<svg version="1.1" xmlns="http://www.w3.org/2000/svg" width="16px" height="16px" fill="currentColor" viewBox="0 0 40 40"><path d="M0 0 C3.06347483 2.32131606 5.6974974 4.99987074 8.375 7.75 C9.11105469 8.46671875 9.84710938 9.1834375 10.60546875 9.921875 C11.30027344 10.623125 11.99507812 11.324375 12.7109375 12.046875 C13.65912354 13.00352051 13.65912354 13.00352051 14.62646484 13.97949219 C16.32758431 16.48188549 16.27053255 18.03506609 16 21 C15.34 21 14.68 21 14 21 C14.01160156 22.21558594 14.02320313 23.43117188 14.03515625 24.68359375 C14.04453278 26.26822764 14.05363313 27.85286318 14.0625 29.4375 C14.07087891 30.23994141 14.07925781 31.04238281 14.08789062 31.86914062 C14.0965143 33.91295221 14.0522815 35.95683902 14 38 C13 39 13 39 10.49609375 39.09765625 C9.48675781 39.08605469 8.47742187 39.07445312 7.4375 39.0625 C6.42558594 39.05347656 5.41367187 39.04445312 4.37109375 39.03515625 C3.19740234 39.01775391 3.19740234 39.01775391 2 39 C1.93941406 38.00097656 1.87882812 37.00195312 1.81640625 35.97265625 C1.73261719 34.68230469 1.64882813 33.39195313 1.5625 32.0625 C1.48128906 30.77472656 1.40007813 29.48695312 1.31640625 28.16015625 C1.35080812 25.13976043 1.35080812 25.13976043 0 24 C-1.87321948 23.83946185 -1.87321948 23.83946185 -4 23.875 C-4.721875 23.87242188 -5.44375 23.86984375 -6.1875 23.8671875 C-8.02089415 23.80304724 -8.02089415 23.80304724 -9 25 C-9.23527773 27.34987262 -9.41386417 29.70556039 -9.5625 32.0625 C-9.64628906 33.35285156 -9.73007813 34.64320312 -9.81640625 35.97265625 C-9.87699219 36.97167969 -9.93757812 37.97070312 -10 39 C-11.81242052 39.02687279 -13.62495233 39.04633715 -15.4375 39.0625 C-16.44683594 39.07410156 -17.45617187 39.08570313 -18.49609375 39.09765625 C-21 39 -21 39 -22 38 C-22.07325168 35.13732433 -22.09238205 32.299281 -22.0625 29.4375 C-22.05798828 28.63119141 -22.05347656 27.82488281 -22.04882812 26.99414062 C-22.03700518 24.99606244 -22.01906914 22.99802217 -22 21 C-22.66 21 -23.32 21 -24 21 C-24.28612773 17.99272589 -24.34399152 16.48366868 -22.56298828 13.97949219 C-21.90540527 13.34172852 -21.24782227 12.70396484 -20.5703125 12.046875 C-19.85746094 11.345625 -19.14460938 10.644375 -18.41015625 9.921875 C-17.65605469 9.20515625 -16.90195312 8.4884375 -16.125 7.75 C-15.37863281 7.0178125 -14.63226563 6.285625 -13.86328125 5.53125 C-6.21173322 -1.91349943 -6.21173322 -1.91349943 0 0 Z " fill="#BDBCBB" transform="translate(24,1)"></path><path d="M0 0 C3.06347483 2.32131606 5.6974974 4.99987074 8.375 7.75 C9.11105469 8.46671875 9.84710938 9.1834375 10.60546875 9.921875 C11.30027344 10.623125 11.99507812 11.324375 12.7109375 12.046875 C13.65912354 13.00352051 13.65912354 13.00352051 14.62646484 13.97949219 C16.32758431 16.48188549 16.27053255 18.03506609 16 21 C10.27003831 20.83566075 7.37524908 16.82273925 3.6875 12.9375 C3.04232422 12.27427734 2.39714844 11.61105469 1.73242188 10.92773438 C0.14552982 9.29382329 -1.43126328 7.65131853 -3 6 C-5.92938538 7.31347306 -7.90831193 8.69600713 -10.09375 11.0390625 C-10.64933594 11.61914062 -11.20492188 12.19921875 -11.77734375 12.796875 C-12.92968647 14.01976932 -14.07810911 15.24636898 -15.22265625 16.4765625 C-15.77824219 17.0540625 -16.33382813 17.6315625 -16.90625 18.2265625 C-17.65358398 19.02441162 -17.65358398 19.02441162 -18.41601562 19.83837891 C-20 21 -20 21 -24 21 C-24.28612773 17.99272589 -24.34399152 16.48366868 -22.56298828 13.97949219 C-21.90540527 13.34172852 -21.24782227 12.70396484 -20.5703125 12.046875 C-19.85746094 11.345625 -19.14460938 10.644375 -18.41015625 9.921875 C-17.65605469 9.20515625 -16.90195312 8.4884375 -16.125 7.75 C-15.37863281 7.0178125 -14.63226563 6.285625 -13.86328125 5.53125 C-6.21173322 -1.91349943 -6.21173322 -1.91349943 0 0 Z " fill="#E16907" transform="translate(24,1)"></path></svg>