<svg version="1.1" xmlns="http://www.w3.org/2000/svg" width="16px" height="16px" fill="currentColor" viewBox="0 0 512 512"><path d="M0 0 C168.96 0 337.92 0 512 0 C512 168.96 512 337.92 512 512 C343.04 512 174.08 512 0 512 C0 343.04 0 174.08 0 0 Z " fill="#D72B6B" transform="translate(0,0)"></path><path d="M0 0 C3.19540405 1.23693848 3.19540405 1.23693848 6.66943359 2.99414062 C7.30785187 3.31291168 7.94627014 3.63168274 8.60403442 3.96011353 C10.70806098 5.01421131 12.80306586 6.08506507 14.8984375 7.15625 C16.3755781 7.90042773 17.85325941 8.64353305 19.33145142 9.38562012 C23.2269009 11.34478832 27.11494889 13.31822154 31.00158691 15.2947998 C34.90175572 17.27527435 38.80850407 19.24267072 42.71484375 21.2109375 C47.81932653 23.78422759 52.92158628 26.36178607 58.01969337 28.94768524 C64.17801687 32.07128507 70.34261495 35.18186667 76.51806641 38.27148438 C77.15212591 38.58889839 77.78618542 38.90631241 78.43945885 39.23334503 C84.07382708 42.04824472 89.73485197 44.80719994 95.40234375 47.5546875 C98 49 98 49 99 51 C99.09491608 52.48759957 99.12735525 53.97939916 99.12863445 55.47002316 C99.1318589 56.41615536 99.13508335 57.36228756 99.1384055 58.33709043 C99.1360826 59.90695285 99.1360826 59.90695285 99.13371277 61.50852966 C99.13597833 62.61476451 99.13824388 63.72099935 99.14057809 64.86075646 C99.14694243 68.59264688 99.14608717 72.32450121 99.14526367 76.05639648 C99.14825363 78.72174212 99.15162714 81.38708486 99.15544128 84.0524292 C99.16375927 90.55564696 99.16649664 97.05885566 99.16705366 103.56207829 C99.16752826 108.8461411 99.16958019 114.13020091 99.17275429 119.41426277 C99.18156383 134.3837212 99.18617317 149.35317246 99.18542381 164.3226335 C99.18538386 165.13019032 99.1853439 165.93774715 99.18530273 166.76977539 C99.18526185 167.57831406 99.18522097 168.38685273 99.18517885 169.21989257 C99.18477225 182.32863345 99.19434459 195.43734562 99.2084411 208.5460782 C99.22278914 221.99443563 99.22971216 235.44277905 99.22884732 248.89114434 C99.22851482 256.44605697 99.23128526 264.0009395 99.24202538 271.55584526 C99.25110971 277.98742211 99.25332271 284.41895522 99.24651595 290.85053568 C99.24324029 294.13391374 99.24430843 297.41718991 99.2518692 300.70056343 C99.25952721 304.2552808 99.25498558 307.80977452 99.24723816 311.36448669 C99.25238172 312.40883092 99.25752529 313.45317514 99.26282471 314.52916616 C99.25592652 315.95227609 99.25592652 315.95227609 99.24888897 317.4041357 C99.24910634 318.22514607 99.24932371 319.04615644 99.24954766 319.89204592 C99 322 99 322 97 325 C94.64797974 326.07725525 94.64797974 326.07725525 91.65283203 327.07788086 C90.52673019 327.45973541 89.40062836 327.84158997 88.24040222 328.23501587 C87.00864761 328.64085907 85.77689301 329.04670227 84.5078125 329.46484375 C83.21712813 329.8982947 81.92675374 330.33266966 80.63667297 330.76791382 C77.18320143 331.93013559 73.72558544 333.07951693 70.26691818 334.22616959 C66.7083296 335.40797583 63.15329266 336.60036799 59.59790039 337.79174805 C54.6632877 339.44414633 49.72734189 341.09245044 44.78961277 342.73551273 C37.53458684 345.14976263 30.28888409 347.5901417 23.05078125 350.0546875 C20.59471611 350.8875628 18.13836706 351.71959217 15.68182373 352.55105591 C14.19561104 353.05529149 12.71012415 353.56167184 11.22540283 354.07028198 C9.21377696 354.75836356 7.19923455 355.437069 5.18359375 356.11328125 C3.55248657 356.66689331 3.55248657 356.66689331 1.88842773 357.23168945 C-1.00274319 358.00072968 -3.04223418 358.4604228 -6 358 C-8.11933899 356.4356842 -8.11933899 356.4356842 -10 354 C-10.3746353 351.40778615 -10.50823593 349.24690198 -10.45410156 346.66113281 C-10.45468567 345.92903091 -10.45526978 345.19692902 -10.45587158 344.44264221 C-10.45309052 342.02898314 -10.4219996 339.61656761 -10.390625 337.203125 C-10.38316264 335.52733027 -10.37746968 333.8515268 -10.37347412 332.17572021 C-10.3582173 327.76963111 -10.3189354 323.36407123 -10.2746582 318.95819092 C-10.23370635 314.46048136 -10.21546331 309.9626861 -10.1953125 305.46484375 C-10.15244093 296.64299691 -10.08418923 287.8215425 -10 279 C-13.96 279 -17.92 279 -22 279 C-22 274.71 -22 270.42 -22 266 C-18.04 266 -14.08 266 -10 266 C-10 210.89 -10 155.78 -10 99 C-13.96 99 -17.92 99 -22 99 C-22 94.38 -22 89.76 -22 85 C-18.04 85 -14.08 85 -10 85 C-10.00888245 83.99410828 -10.01776489 82.98821655 -10.0269165 81.95184326 C-10.10797519 72.47595573 -10.1679523 63.00013847 -10.20724869 53.523983 C-10.22813056 48.65207224 -10.25645914 43.78044118 -10.30175781 38.90869141 C-10.34519419 34.20785012 -10.36913259 29.50727799 -10.37950897 24.80625153 C-10.38690432 23.01205456 -10.40134567 21.21787246 -10.42292023 19.42378998 C-10.45192537 16.91208472 -10.45595729 14.40149401 -10.45410156 11.88964844 C-10.46848267 11.14661972 -10.48286377 10.403591 -10.49768066 9.63804626 C-10.47109196 6.31584662 -10.1996313 4.30102033 -8.34661865 1.50689697 C-5.24265678 -0.48633305 -3.64468592 -0.50309317 0 0 Z " fill="#E03373" transform="translate(336,77)"></path><path d="M0 0 C0 107.58 0 215.16 0 326 C-11.25609919 322.62317024 -11.25609919 322.62317024 -16.11376953 321.01049805 C-17.20255402 320.6496965 -18.2913385 320.28889496 -19.41311646 319.91716003 C-20.55811615 319.53586441 -21.70311584 319.15456879 -22.8828125 318.76171875 C-24.09589081 318.35846878 -25.30896912 317.95521881 -26.55880737 317.53974915 C-29.11573071 316.6894237 -31.67224609 315.83788446 -34.22851562 314.9855957 C-37.45411222 313.91036316 -40.68106004 312.83925122 -43.90838814 311.76922894 C-47.04661746 310.72782196 -50.18336332 309.68197536 -53.3203125 308.63671875 C-54.45316681 308.26149582 -55.58602112 307.88627289 -56.75320435 307.49967957 C-65.60118211 304.54216189 -74.24714638 301.28232011 -83 298 C-83 212.86 -83 127.72 -83 40 C-75.41 36.37 -67.82 32.74 -60 29 C-55.03592001 26.54364448 -50.08022975 24.07850093 -45.13671875 21.58203125 C-43.87416326 20.94725717 -42.61144837 20.31280004 -41.34858704 19.67863464 C-36.11941371 17.05212194 -30.89288151 14.42038168 -25.66772461 11.78588867 C-22.42040492 10.14888669 -19.17117578 8.51572945 -15.92072487 6.88495445 C-14.69632016 6.26965536 -13.47267578 5.65284078 -12.24982262 5.03446388 C-10.56378723 4.18189851 -8.87509965 3.33458415 -7.1862793 2.48754883 C-5.75145454 1.76454338 -5.75145454 1.76454338 -4.28764343 1.02693176 C-2 0 -2 0 0 0 Z " fill="#CD2364" transform="translate(173,94)"></path><path d="M0 0 C2.34661865 1.50689697 2.34661865 1.50689697 4 4 C4.37421307 6.76649871 4.50754576 9.12834634 4.45410156 11.88964844 C4.45468567 12.68027176 4.45526978 13.47089508 4.45587158 14.28547668 C4.45308899 16.89389233 4.42198983 19.50115947 4.390625 22.109375 C4.38316321 23.91969173 4.37746998 25.73001654 4.37347412 27.54034424 C4.35821288 32.30151735 4.31892691 37.06220116 4.2746582 41.82318115 C4.23371603 46.68283469 4.21546536 51.5425674 4.1953125 56.40234375 C4.15243293 65.93514523 4.08207914 75.46745535 4 85 C10.27 85 16.54 85 23 85 C23 89.62 23 94.24 23 99 C16.73 99 10.46 99 4 99 C4 154.11 4 209.22 4 266 C10.27 266 16.54 266 23 266 C23 270.29 23 274.58 23 279 C16.73 279 10.46 279 4 279 C4.0314209 282.32324341 4.0314209 282.32324341 4.06347656 285.71362305 C4.1297876 293.03771893 4.17395173 300.36182816 4.20724869 307.68614483 C4.2281139 312.12645549 4.25641177 316.5664583 4.30175781 321.0065918 C4.34525406 325.29247369 4.36914513 329.57805968 4.37950897 333.86414528 C4.3868936 335.49842804 4.40131425 337.13269481 4.42292023 338.76685143 C4.45200559 341.05805694 4.45595403 343.34804355 4.45410156 345.6394043 C4.46298401 346.94290329 4.47186646 348.24640228 4.48101807 349.58940125 C3.89758412 353.72616706 3.31422631 355.41379152 0 358 C-5.86662886 358.50218127 -11.70332282 356.37627942 -17.17504883 354.47143555 C-17.9373732 354.21436829 -18.69969757 353.95730103 -19.48512268 353.69244385 C-21.97878631 352.84917239 -24.46783047 351.9930644 -26.95703125 351.13671875 C-28.70876493 350.54157263 -30.46077924 349.94725193 -32.21305847 349.35371399 C-36.81264649 347.79332314 -41.40843801 346.2220377 -46.003479 344.64831543 C-50.64922502 343.05925488 -55.29834452 341.48013289 -59.94726562 339.90039062 C-65.19057679 338.11805285 -70.43353005 336.33471261 -75.67402649 334.54411316 C-76.47157191 334.2718028 -77.26911734 333.99949244 -78.0908308 333.71893024 C-79.63086662 333.19232214 -81.1704151 332.66428625 -82.70942402 332.13468456 C-86.01711667 330.99954002 -89.32425746 329.89941865 -92.66488647 328.8631897 C-93.73155548 328.53168915 -94.79822449 328.2001886 -95.8972168 327.85864258 C-96.79893112 327.59030106 -97.70064545 327.32195953 -98.62968445 327.04548645 C-101.73101313 325.67756853 -102.98392796 324.78870848 -105 322 C-105.61748585 318.42692456 -105.54333175 314.87588576 -105.5146637 311.25769043 C-105.52160922 310.1504523 -105.52855475 309.04321418 -105.53571075 307.90242338 C-105.55405966 304.1788868 -105.54369407 300.45598166 -105.53344727 296.73242188 C-105.54050171 294.0683849 -105.5491073 291.40439335 -105.55955505 288.7403717 C-105.58121429 282.2477385 -105.58106337 275.75528043 -105.57292951 269.26262295 C-105.56663386 263.98670516 -105.56776252 258.71083851 -105.57420158 253.43492126 C-105.57510324 252.68449522 -105.57600489 251.93406918 -105.57693387 251.16090295 C-105.57878504 249.63650499 -105.5806476 248.11210705 -105.58252143 246.58770913 C-105.59910642 232.28789868 -105.59037459 217.98818686 -105.57353585 203.68838233 C-105.55883632 190.59976973 -105.57346953 177.51138663 -105.60230602 164.42280358 C-105.63168301 150.98904513 -105.6426774 137.55539266 -105.63312382 124.12160349 C-105.63210124 122.60276192 -105.63110663 121.08392034 -105.6301403 119.56507874 C-105.62966391 118.81774765 -105.62918752 118.07041657 -105.6286967 117.30043909 C-105.62653042 112.02983671 -105.63634789 106.75933444 -105.65091133 101.48875427 C-105.66840774 95.06704783 -105.66835632 88.6456341 -105.64555968 82.2239393 C-105.63439277 78.94632536 -105.63399866 75.66933595 -105.64986038 72.39172554 C-105.66568673 68.84142141 -105.65093645 65.29254499 -105.62818909 61.74230957 C-105.64002482 60.70224243 -105.65186054 59.66217528 -105.66405493 58.59059095 C-105.57306358 51.63552664 -105.57306358 51.63552664 -102.71883202 48.47018814 C-101.82161745 47.98502605 -100.92440289 47.49986397 -100 47 C-99.318051 46.59535145 -98.63610201 46.1907029 -97.93348789 45.77379227 C-96.91230822 45.25943178 -96.91230822 45.25943178 -95.87049866 44.73468018 C-95.08136581 44.33371628 -94.29223297 43.93275238 -93.47918701 43.51963806 C-92.62762024 43.09453445 -91.77605347 42.66943085 -90.89868164 42.23144531 C-89.53678963 41.54294243 -89.53678963 41.54294243 -88.14738464 40.8405304 C-85.1548009 39.33002677 -82.15779906 37.82856098 -79.16015625 36.328125 C-77.07408387 35.2802677 -74.98810188 34.23223043 -72.90220642 33.184021 C-68.53402272 30.99095641 -64.16339374 28.80285349 -59.79125977 26.61767578 C-54.18853658 23.81646686 -48.59426021 20.99881886 -43.00196171 18.17686844 C-38.69867014 16.00855268 -34.38997507 13.85115427 -30.07967949 11.69680023 C-28.01447857 10.6624293 -25.95122313 9.62416459 -23.88997078 8.58194733 C-21.00911637 7.12683489 -18.1210667 5.68710596 -15.23071289 4.25097656 C-13.95639908 3.60117577 -13.95639908 3.60117577 -12.65634155 2.93824768 C-4.80218999 -0.92643015 -4.80218999 -0.92643015 0 0 Z M-16.61694336 19.70288086 C-18.38665749 20.59027199 -18.38665749 20.59027199 -20.19212341 21.49559021 C-21.49137047 22.15199431 -22.79061038 22.80841255 -24.08984375 23.46484375 C-25.43131787 24.13872053 -26.7730013 24.81218078 -28.11488342 25.48524475 C-31.66852059 27.26873618 -35.21992031 29.05663471 -38.77069092 30.8458252 C-44.39158257 33.67772481 -50.01497178 36.50464017 -55.639925 39.3284626 C-57.57623329 40.30159292 -59.51108526 41.27756866 -61.44578552 42.25389099 C-71.56140009 47.3384797 -81.7589629 52.14898243 -92 57 C-92 142.14 -92 227.28 -92 315 C-64.27324942 324.81224363 -64.27324942 324.81224363 -36.42871094 334.2590332 C-33.51373819 335.22434506 -30.60055028 336.19491912 -27.6875 337.16601562 C-25.80478396 337.79195688 -23.92197554 338.41762035 -22.0390625 339.04296875 C-21.18204742 339.3282695 -20.32503235 339.61357025 -19.44204712 339.90751648 C-18.25571182 340.29977165 -18.25571182 340.29977165 -17.04541016 340.69995117 C-16.3574234 340.92800949 -15.66943665 341.15606781 -14.96060181 341.39103699 C-12.99524094 342.00147816 -10.99653388 342.50086653 -9 343 C-9 235.42 -9 127.84 -9 17 C-11.97458699 17 -13.96568449 18.36774288 -16.61694336 19.70288086 Z " fill="#FDF8FA" transform="translate(182,77)"></path><path d="M0 0 C3.19540405 1.23693848 3.19540405 1.23693848 6.66943359 2.99414062 C7.30785187 3.31291168 7.94627014 3.63168274 8.60403442 3.96011353 C10.70806098 5.01421131 12.80306586 6.08506507 14.8984375 7.15625 C16.3755781 7.90042773 17.85325941 8.64353305 19.33145142 9.38562012 C23.2269009 11.34478832 27.11494889 13.31822154 31.00158691 15.2947998 C34.90175572 17.27527435 38.80850407 19.24267072 42.71484375 21.2109375 C47.81932653 23.78422759 52.92158628 26.36178607 58.01969337 28.94768524 C64.17801687 32.07128507 70.34261495 35.18186667 76.51806641 38.27148438 C77.15212591 38.58889839 77.78618542 38.90631241 78.43945885 39.23334503 C84.07382708 42.04824472 89.73485197 44.80719994 95.40234375 47.5546875 C98 49 98 49 99 51 C99.09491608 52.48759957 99.12735525 53.97939916 99.12863445 55.47002316 C99.1318589 56.41615536 99.13508335 57.36228756 99.1384055 58.33709043 C99.1360826 59.90695285 99.1360826 59.90695285 99.13371277 61.50852966 C99.13597833 62.61476451 99.13824388 63.72099935 99.14057809 64.86075646 C99.14694243 68.59264688 99.14608717 72.32450121 99.14526367 76.05639648 C99.14825363 78.72174212 99.15162714 81.38708486 99.15544128 84.0524292 C99.16375927 90.55564696 99.16649664 97.05885566 99.16705366 103.56207829 C99.16752826 108.8461411 99.16958019 114.13020091 99.17275429 119.41426277 C99.18156383 134.3837212 99.18617317 149.35317246 99.18542381 164.3226335 C99.18538386 165.13019032 99.1853439 165.93774715 99.18530273 166.76977539 C99.18526185 167.57831406 99.18522097 168.38685273 99.18517885 169.21989257 C99.18477225 182.32863345 99.19434459 195.43734562 99.2084411 208.5460782 C99.22278914 221.99443563 99.22971216 235.44277905 99.22884732 248.89114434 C99.22851482 256.44605697 99.23128526 264.0009395 99.24202538 271.55584526 C99.25110971 277.98742211 99.25332271 284.41895522 99.24651595 290.85053568 C99.24324029 294.13391374 99.24430843 297.41718991 99.2518692 300.70056343 C99.25952721 304.2552808 99.25498558 307.80977452 99.24723816 311.36448669 C99.25238172 312.40883092 99.25752529 313.45317514 99.26282471 314.52916616 C99.25592652 315.95227609 99.25592652 315.95227609 99.24888897 317.4041357 C99.24910634 318.22514607 99.24932371 319.04615644 99.24954766 319.89204592 C99 322 99 322 97 325 C94.64797974 326.07725525 94.64797974 326.07725525 91.65283203 327.07788086 C90.52673019 327.45973541 89.40062836 327.84158997 88.24040222 328.23501587 C87.00864761 328.64085907 85.77689301 329.04670227 84.5078125 329.46484375 C83.21712813 329.8982947 81.92675374 330.33266966 80.63667297 330.76791382 C77.18320143 331.93013559 73.72558544 333.07951693 70.26691818 334.22616959 C66.7083296 335.40797583 63.15329266 336.60036799 59.59790039 337.79174805 C54.6632877 339.44414633 49.72734189 341.09245044 44.78961277 342.73551273 C37.53458684 345.14976263 30.28888409 347.5901417 23.05078125 350.0546875 C20.59471611 350.8875628 18.13836706 351.71959217 15.68182373 352.55105591 C14.19561104 353.05529149 12.71012415 353.56167184 11.22540283 354.07028198 C9.21377696 354.75836356 7.19923455 355.437069 5.18359375 356.11328125 C3.55248657 356.66689331 3.55248657 356.66689331 1.88842773 357.23168945 C-1.00274319 358.00072968 -3.04223418 358.4604228 -6 358 C-8.11933899 356.4356842 -8.11933899 356.4356842 -10 354 C-10.3746353 351.40778615 -10.50823593 349.24690198 -10.45410156 346.66113281 C-10.45468567 345.92903091 -10.45526978 345.19692902 -10.45587158 344.44264221 C-10.45309052 342.02898314 -10.4219996 339.61656761 -10.390625 337.203125 C-10.38316264 335.52733027 -10.37746968 333.8515268 -10.37347412 332.17572021 C-10.3582173 327.76963111 -10.3189354 323.36407123 -10.2746582 318.95819092 C-10.23370635 314.46048136 -10.21546331 309.9626861 -10.1953125 305.46484375 C-10.15244093 296.64299691 -10.08418923 287.8215425 -10 279 C-13.96 279 -17.92 279 -22 279 C-22 274.71 -22 270.42 -22 266 C-18.04 266 -14.08 266 -10 266 C-10 210.89 -10 155.78 -10 99 C-13.96 99 -17.92 99 -22 99 C-22 94.38 -22 89.76 -22 85 C-18.04 85 -14.08 85 -10 85 C-10.00888245 83.99410828 -10.01776489 82.98821655 -10.0269165 81.95184326 C-10.10797519 72.47595573 -10.1679523 63.00013847 -10.20724869 53.523983 C-10.22813056 48.65207224 -10.25645914 43.78044118 -10.30175781 38.90869141 C-10.34519419 34.20785012 -10.36913259 29.50727799 -10.37950897 24.80625153 C-10.38690432 23.01205456 -10.40134567 21.21787246 -10.42292023 19.42378998 C-10.45192537 16.91208472 -10.45595729 14.40149401 -10.45410156 11.88964844 C-10.46848267 11.14661972 -10.48286377 10.403591 -10.49768066 9.63804626 C-10.47109196 6.31584662 -10.1996313 4.30102033 -8.34661865 1.50689697 C-5.24265678 -0.48633305 -3.64468592 -0.50309317 0 0 Z M3 17 C3 124.25 3 231.5 3 342 C8.06330402 341.27667085 11.87040924 340.53617976 16.58691406 338.93041992 C17.20424911 338.72212051 17.82158417 338.51382111 18.45762634 338.29920959 C20.47900741 337.61550417 22.49729285 336.92311752 24.515625 336.23046875 C25.93641343 335.74773136 27.35737613 335.2655066 28.77850342 334.7837677 C32.51123488 333.51673776 36.24134382 332.24215019 39.9710083 330.96612549 C42.99087672 329.93437688 46.01257724 328.9080612 49.03439713 327.88204479 C52.67461795 326.64591315 56.31397963 325.40726246 59.953125 324.16796875 C60.63294685 323.9365386 61.31276871 323.70510845 62.01319122 323.46666527 C63.97441447 322.79834392 65.93505298 322.12833533 67.89550781 321.45776367 C69.00468567 321.07883469 70.11386353 320.6999057 71.25665283 320.30949402 C76.18709926 318.58473011 81.0910646 316.78506742 86 315 C86 230.19 86 145.38 86 58 C74.58564135 51.99244282 63.18442552 46.01156025 51.65234375 40.2421875 C50.2942087 39.56150515 48.93610082 38.88076861 47.57801819 38.19998169 C44.78178987 36.7989251 41.9847825 35.3994388 39.18725586 34.00097656 C35.59982586 32.2073133 32.015224 30.40806967 28.43122005 28.60757256 C25.65058661 27.21172181 22.86816338 25.81946974 20.08520699 24.42825699 C18.76043963 23.76528383 17.43631969 23.10101535 16.11286736 22.43542099 C14.28278427 21.51551175 12.44993266 20.60111639 10.61694336 19.68701172 C9.57726913 19.1664621 8.53759491 18.64591248 7.46641541 18.10958862 C5.14676461 16.86324235 5.14676461 16.86324235 3 17 Z " fill="#FEF9FB" transform="translate(336,77)"></path><path d="M0 0 C4.39156872 0.83784428 7.93333477 2.16601372 12 4 C10.82312824 9.95341823 9.24264304 15.50370388 7.015625 21.14453125 C6.72311356 21.90077789 6.43060211 22.65702454 6.12922668 23.43618774 C5.17556434 25.89737001 4.21288492 28.35491301 3.25 30.8125 C2.58332525 32.52785174 1.91723655 34.24343136 1.25170898 35.95922852 C-0.12752474 39.51169144 -1.51058314 43.06262835 -2.89697266 46.61230469 C-4.97338929 51.92896171 -7.04041059 57.24923521 -9.10546875 62.5703125 C-12.39713074 71.04941808 -15.69607973 79.52566404 -19 88 C-20.62566606 87.52309796 -22.25051311 87.04340334 -23.875 86.5625 C-24.77992188 86.29566406 -25.68484375 86.02882813 -26.6171875 85.75390625 C-29 85 -29 85 -31 84 C-28.89579814 76.5748235 -26.35989192 69.37760832 -23.61328125 62.16796875 C-23.19257858 61.05553299 -22.77187592 59.94309723 -22.33842468 58.79695129 C-20.99964329 55.25924818 -19.65614123 51.72335977 -18.3125 48.1875 C-17.43002982 45.85753878 -16.54786594 43.52746153 -15.66601562 41.19726562 C-10.46346902 27.45744853 -5.23538288 13.72733419 0 0 Z " fill="#FEFAFB" transform="translate(262,212)"></path><path d="M0 0 C2.168428 0.90799033 3.50695599 1.95235819 5.18408203 3.59619141 C5.71646484 4.09763672 6.24884766 4.59908203 6.79736328 5.11572266 C7.87158203 6.78369141 7.87158203 6.78369141 7.69091797 8.61743164 C6.60960892 11.4763277 5.01766639 12.97633609 2.83642578 15.11181641 C2.02753906 15.91103516 1.21865234 16.71025391 0.38525391 17.53369141 C-0.88995117 18.77119141 -0.88995117 18.77119141 -2.19091797 20.03369141 C-3.47192383 21.29439453 -3.47192383 21.29439453 -4.77880859 22.58056641 C-6.88877209 24.65516738 -9.00541505 26.72244973 -11.12841797 28.78369141 C-9.67096373 32.14704734 -7.81723943 34.32903146 -5.21435547 36.89306641 C-4.45380859 37.64716797 -3.69326172 38.40126953 -2.90966797 39.17822266 C-2.11560547 39.95552734 -1.32154297 40.73283203 -0.50341797 41.53369141 C0.29837891 42.32646484 1.10017578 43.11923828 1.92626953 43.93603516 C3.90361049 45.88983634 5.88547112 47.83881243 7.87158203 49.78369141 C6.4896975 52.99413022 4.947363 54.83305506 2.24658203 57.03369141 C1.29912109 57.81486328 1.29912109 57.81486328 0.33251953 58.61181641 C-0.14958984 58.99853516 -0.63169922 59.38525391 -1.12841797 59.78369141 C-4.83230529 56.22855458 -8.51570048 52.65382028 -12.18188477 49.05981445 C-13.43073769 47.84106217 -14.68493242 46.62775806 -15.94458008 45.42016602 C-17.75861052 43.67924151 -19.55226984 41.91936497 -21.34326172 40.15478516 C-21.9068187 39.62219589 -22.47037567 39.08960663 -23.05101013 38.5408783 C-26.7417688 34.8533333 -28.03010565 32.20392307 -28.12841797 26.78369141 C-26.85498047 24.51025391 -26.85498047 24.51025391 -24.75341797 22.40869141 C-23.93744141 21.57982422 -23.12146484 20.75095703 -22.28076172 19.89697266 C-21.79720215 19.42340332 -21.31364258 18.94983398 -20.81542969 18.46191406 C-18.79713966 16.45413901 -16.8423051 14.39136954 -14.88232422 12.32666016 C-13.36160617 10.74847026 -11.83946067 9.17165463 -10.31591797 7.59619141 C-9.57486816 6.81646973 -8.83381836 6.03674805 -8.0703125 5.23339844 C-7.00659424 4.15421143 -7.00659424 4.15421143 -5.92138672 3.05322266 C-5.28740967 2.39942627 -4.65343262 1.74562988 -4.00024414 1.07202148 C-2.12841797 -0.21630859 -2.12841797 -0.21630859 0 0 Z " fill="#FDF8FA" transform="translate(220.12841796875,223.21630859375)"></path><path d="M0 0 C3.05685268 1.18098728 4.74195871 3.03891677 7.04223633 5.36499023 C7.95875977 6.28666992 8.8752832 7.20834961 9.81958008 8.15795898 C10.29250488 8.64119629 10.76542969 9.12443359 11.25268555 9.62231445 C12.68663639 11.08725917 14.13082753 12.54141704 15.57739258 13.99389648 C18.1448039 16.5901957 20.70468482 19.18223717 23.19848633 21.84936523 C23.97901367 22.63408203 24.75954102 23.41879883 25.5637207 24.22729492 C27.19848633 26.84936523 27.19848633 26.84936523 27.31005859 30.26367188 C25.90181502 34.80636315 23.81047325 37.00999038 20.41333008 40.22045898 C19.83764786 40.78765152 19.26196564 41.35484406 18.6688385 41.93922424 C16.83822156 43.73642269 14.98781852 45.511561 13.13598633 47.28686523 C11.88657034 48.50616701 10.63850732 49.7268568 9.3918457 50.94897461 C6.34282144 53.93206816 3.27588182 56.89555992 0.19848633 59.84936523 C-0.9335072 58.94134903 -2.0568373 58.02252698 -3.17651367 57.09936523 C-4.11624023 56.33366211 -4.11624023 56.33366211 -5.07495117 55.55249023 C-6.80151367 53.84936523 -6.80151367 53.84936523 -8.80151367 49.84936523 C-2.53151367 43.57936523 3.73848633 37.30936523 10.19848633 30.84936523 C8.37070731 27.19380719 7.13179478 25.59095826 4.24926758 22.88061523 C3.48420898 22.14456055 2.71915039 21.40850586 1.9309082 20.65014648 C0.31146144 19.11043035 -1.31360174 17.57660092 -2.9440918 16.04858398 C-3.7052832 15.3125293 -4.46647461 14.57647461 -5.25073242 13.81811523 C-6.30780396 12.81941406 -6.30780396 12.81941406 -7.38623047 11.80053711 C-8.80151367 9.84936523 -8.80151367 9.84936523 -8.6027832 7.70996094 C-7.67724894 5.5608151 -6.62564824 4.20664683 -4.98901367 2.53686523 C-4.48756836 2.00448242 -3.98612305 1.47209961 -3.46948242 0.92358398 C-1.80151367 -0.15063477 -1.80151367 -0.15063477 0 0 Z " fill="#FDF8FA" transform="translate(292.801513671875,223.150634765625)"></path><path d="M0 0 C6.27 0 12.54 0 19 0 C19 4.29 19 8.58 19 13 C12.73 13 6.46 13 0 13 C0 8.71 0 4.42 0 0 Z " fill="#FEFAFB" transform="translate(282,343)"></path><path d="M0 0 C6.27 0 12.54 0 19 0 C19 4.29 19 8.58 19 13 C12.73 13 6.46 13 0 13 C0 8.71 0 4.42 0 0 Z " fill="#FEFAFB" transform="translate(250,343)"></path><path d="M0 0 C6.27 0 12.54 0 19 0 C19 4.29 19 8.58 19 13 C12.73 13 6.46 13 0 13 C0 8.71 0 4.42 0 0 Z " fill="#FEFAFB" transform="translate(218,343)"></path><path d="M0 0 C6.27 0 12.54 0 19 0 C19 4.29 19 8.58 19 13 C12.73 13 6.46 13 0 13 C0 8.71 0 4.42 0 0 Z " fill="#FDF6F9" transform="translate(282,162)"></path><path d="M0 0 C6.27 0 12.54 0 19 0 C19 4.29 19 8.58 19 13 C12.73 13 6.46 13 0 13 C0 8.71 0 4.42 0 0 Z " fill="#FDF6F9" transform="translate(250,162)"></path><path d="M0 0 C6.27 0 12.54 0 19 0 C19 4.29 19 8.58 19 13 C12.73 13 6.46 13 0 13 C0 8.71 0 4.42 0 0 Z " fill="#FDF6F8" transform="translate(218,162)"></path></svg>