<svg version="1.1" xmlns="http://www.w3.org/2000/svg" width="16px" height="16px" fill="currentColor" viewBox="0 0 512 512"><path d="M0 0 C168.96 0 337.92 0 512 0 C512 168.96 512 337.92 512 512 C343.04 512 174.08 512 0 512 C0 343.04 0 174.08 0 0 Z " fill="#3F52D5" transform="translate(0,0)"></path><path d="M0 0 C1.19247475 -0.00538554 2.3849495 -0.01077108 3.61355984 -0.01631981 C6.89716731 -0.02808868 10.18044586 -0.02655772 13.46405578 -0.019153 C17.01563181 -0.01440155 20.56715467 -0.02694858 24.11871338 -0.03717041 C31.06637872 -0.05432536 38.01395349 -0.05520528 44.9616345 -0.04995751 C50.61156941 -0.0459083 56.26147764 -0.04736826 61.91141129 -0.05270576 C62.71699719 -0.05345419 63.5225831 -0.05420261 64.3525807 -0.05497371 C65.98938059 -0.05650526 67.62618048 -0.05804361 69.26298036 -0.05958868 C84.59646943 -0.07330184 99.92990742 -0.06788443 115.26339532 -0.05640347 C129.27413297 -0.04647297 143.28473852 -0.05941067 157.2954558 -0.08333766 C171.70124214 -0.10775291 186.10696702 -0.11733053 200.51277363 -0.11068493 C208.5927007 -0.10719801 216.67252622 -0.10938981 224.75243759 -0.12693596 C231.63083371 -0.14168835 238.50905677 -0.1422539 245.38744961 -0.12486505 C248.89282535 -0.1163774 252.39789235 -0.11415007 255.90325165 -0.1295166 C259.71297115 -0.14274548 263.52185875 -0.13116038 267.33154297 -0.11352539 C268.42592458 -0.1231304 269.52030618 -0.1327354 270.64785087 -0.14263147 C281.52263548 -0.0395001 291.83287213 2.66796594 299.79275513 10.38768005 C307.60887952 18.73958716 310.25100871 26.8989208 310.212677 38.21507263 C310.22114655 39.15296127 310.22961609 40.09084991 310.23834229 41.05715942 C310.26158343 44.13231783 310.26273742 47.20697202 310.26150513 50.2822113 C310.26861499 52.43778682 310.27631519 54.59336047 310.28457642 56.74893188 C310.29799209 61.25853236 310.29960331 65.76795784 310.29373169 70.27757263 C310.28784169 76.03057576 310.31841265 81.78273324 310.35884857 87.53557301 C310.38481443 91.98568168 310.38759486 96.4355892 310.38395691 100.88576317 C310.38564016 103.0054658 310.3952053 105.12517853 310.4131012 107.24480629 C310.52544309 122.19603261 309.96706749 134.11290053 299.03103638 145.48143005 C290.11406958 153.07563563 279.61251377 154.72657084 268.29275513 154.51268005 C267.37494263 154.50365662 266.45713013 154.49463318 265.51150513 154.4853363 C263.27163957 154.46200437 261.0323433 154.42927241 258.79275513 154.38768005 C258.7964423 155.38381695 258.80012947 156.37995384 258.80392838 157.4062767 C258.89265941 181.62541826 258.95842617 205.84453877 259.00000381 230.06380844 C259.020644 241.77599101 259.04879248 253.48806632 259.09451294 265.20018005 C259.13433604 275.40643167 259.16017733 285.61260562 259.16910911 295.81893277 C259.17433151 301.22496989 259.18663639 306.63078478 259.21567535 312.03675079 C259.24277289 317.12237329 259.25121157 322.20768146 259.24518585 327.29336929 C259.24628863 329.16227296 259.25427611 331.03118687 259.26957703 332.90002823 C259.2894166 335.4476319 259.28471681 337.99404169 259.27377319 340.54167175 C259.28542456 341.28486436 259.29707592 342.02805696 259.30908036 342.79377055 C259.27244941 345.93861539 258.95574808 348.10411985 257.37951279 350.84630966 C253.34896593 353.24799022 249.53319512 352.93888396 244.9236145 352.89561462 C243.91029808 352.90185459 242.89698166 352.90809455 241.85295868 352.9145236 C238.44723958 352.93051686 235.04222992 352.91782418 231.63650513 352.90525818 C229.19908225 352.91067646 226.76166264 352.91779746 224.32424927 352.92649841 C218.38506268 352.94287064 212.44606129 352.94043808 206.50687981 352.92884785 C201.68052384 352.91981875 196.85422454 352.91858724 192.02786255 352.92294312 C191.34126981 352.92355605 190.65467708 352.92416898 189.9472785 352.92480049 C188.55253154 352.92607937 187.1577846 352.92737622 185.76303768 352.92869085 C172.68072644 352.94010037 159.59852726 352.92697716 146.5162344 352.90548939 C135.28803934 352.88761803 124.0600097 352.89072203 112.83181763 352.90916443 C99.79671759 352.93056462 86.7617158 352.9390017 73.72660065 352.92671537 C72.33694968 352.92544116 70.9472987 352.92418368 69.55764771 352.92294312 C68.87389116 352.92232601 68.19013461 352.92170891 67.48565817 352.92107311 C62.66441587 352.91761764 57.84323583 352.92345276 53.02200317 352.93286133 C46.53443652 352.94524327 40.04710911 352.9364432 33.55957031 352.9132843 C31.17466757 352.90798277 28.78973859 352.90953549 26.40484619 352.91833496 C23.15683685 352.92921662 19.90984004 352.91561534 16.66189575 352.89561462 C15.71132042 352.90453751 14.76074509 352.9134604 13.78136444 352.92265368 C9.96952363 352.87691845 7.51890502 352.82037074 4.20599747 350.84630966 C2.24590381 347.4363182 2.25175921 344.36741142 2.31173706 340.54167175 C2.30661051 339.34823147 2.30661051 339.34823147 2.3013804 338.13068128 C2.29478598 335.4617505 2.31680277 332.79382302 2.33865356 330.12498474 C2.33978171 328.21308923 2.33914883 326.30119199 2.33688354 324.38929749 C2.33573418 319.1953338 2.35927967 314.00173835 2.38717937 308.80786037 C2.41215583 303.3812998 2.41453207 297.95473113 2.41928101 292.52812195 C2.43172182 282.25045988 2.46455845 271.97296767 2.50467896 261.69538045 C2.54936223 249.99541334 2.57137506 238.29543818 2.5914607 226.59540701 C2.63329006 202.52607046 2.70366366 178.45688477 2.79275513 154.38768005 C1.16466919 154.41595886 1.16466919 154.41595886 -0.49630737 154.44480896 C-1.9416153 154.46005977 -3.38692818 154.47484634 -4.83224487 154.48924255 C-5.54509644 154.50285828 -6.257948 154.516474 -6.99240112 154.53050232 C-16.80378513 154.60363764 -25.07677607 151.14203622 -32.20724487 144.38768005 C-43.29613543 132.68131067 -42.80691279 118.8356014 -42.73849487 103.70018005 C-42.74119422 101.58990806 -42.74508031 99.47963728 -42.75009155 97.36936951 C-42.75596574 92.96161475 -42.74749082 88.55418579 -42.72872925 84.14646912 C-42.70594125 78.52129172 -42.7190755 72.89687796 -42.7430191 67.27172852 C-42.75753336 62.91858762 -42.75284533 58.56562517 -42.74250793 54.21247864 C-42.73985619 52.13941862 -42.74305521 50.06634193 -42.75242615 47.99330139 C-42.80181831 33.99847769 -42.65363277 20.99098794 -32.20724487 10.38768005 C-22.38968676 1.94593891 -12.69931846 -0.06945804 0 0 Z " fill="#445CDE" transform="translate(125.20724487304688,82.61231994628906)"></path><path d="M0 0 C75.9 0 151.8 0 230 0 C230 61.05 230 122.1 230 185 C154.1 185 78.2 185 0 185 C0 123.95 0 62.9 0 0 Z " fill="#3D4CD0" transform="translate(141,237)"></path><path d="M0 0 C1.19247475 -0.00538554 2.3849495 -0.01077108 3.61355984 -0.01631981 C6.89716731 -0.02808868 10.18044586 -0.02655772 13.46405578 -0.019153 C17.01563181 -0.01440155 20.56715467 -0.02694858 24.11871338 -0.03717041 C31.06637872 -0.05432536 38.01395349 -0.05520528 44.9616345 -0.04995751 C50.61156941 -0.0459083 56.26147764 -0.04736826 61.91141129 -0.05270576 C62.71699719 -0.05345419 63.5225831 -0.05420261 64.3525807 -0.05497371 C65.98938059 -0.05650526 67.62618048 -0.05804361 69.26298036 -0.05958868 C84.59646943 -0.07330184 99.92990742 -0.06788443 115.26339532 -0.05640347 C129.27413297 -0.04647297 143.28473852 -0.05941067 157.2954558 -0.08333766 C171.70124214 -0.10775291 186.10696702 -0.11733053 200.51277363 -0.11068493 C208.5927007 -0.10719801 216.67252622 -0.10938981 224.75243759 -0.12693596 C231.63083371 -0.14168835 238.50905677 -0.1422539 245.38744961 -0.12486505 C248.89282535 -0.1163774 252.39789235 -0.11415007 255.90325165 -0.1295166 C259.71297115 -0.14274548 263.52185875 -0.13116038 267.33154297 -0.11352539 C268.42592458 -0.1231304 269.52030618 -0.1327354 270.64785087 -0.14263147 C281.52263548 -0.0395001 291.83287213 2.66796594 299.79275513 10.38768005 C307.60887952 18.73958716 310.25100871 26.8989208 310.212677 38.21507263 C310.22114655 39.15296127 310.22961609 40.09084991 310.23834229 41.05715942 C310.26158343 44.13231783 310.26273742 47.20697202 310.26150513 50.2822113 C310.26861499 52.43778682 310.27631519 54.59336047 310.28457642 56.74893188 C310.29799209 61.25853236 310.29960331 65.76795784 310.29373169 70.27757263 C310.28784169 76.03057576 310.31841265 81.78273324 310.35884857 87.53557301 C310.38481443 91.98568168 310.38759486 96.4355892 310.38395691 100.88576317 C310.38564016 103.0054658 310.3952053 105.12517853 310.4131012 107.24480629 C310.52544309 122.19603261 309.96706749 134.11290053 299.03103638 145.48143005 C290.11406958 153.07563563 279.61251377 154.72657084 268.29275513 154.51268005 C267.37494263 154.50365662 266.45713013 154.49463318 265.51150513 154.4853363 C263.27163957 154.46200437 261.0323433 154.42927241 258.79275513 154.38768005 C258.7964423 155.38381695 258.80012947 156.37995384 258.80392838 157.4062767 C258.89265941 181.62541826 258.95842617 205.84453877 259.00000381 230.06380844 C259.020644 241.77599101 259.04879248 253.48806632 259.09451294 265.20018005 C259.13433604 275.40643167 259.16017733 285.61260562 259.16910911 295.81893277 C259.17433151 301.22496989 259.18663639 306.63078478 259.21567535 312.03675079 C259.24277289 317.12237329 259.25121157 322.20768146 259.24518585 327.29336929 C259.24628863 329.16227296 259.25427611 331.03118687 259.26957703 332.90002823 C259.2894166 335.4476319 259.28471681 337.99404169 259.27377319 340.54167175 C259.28542456 341.28486436 259.29707592 342.02805696 259.30908036 342.79377055 C259.27244941 345.93861539 258.95574808 348.10411985 257.37951279 350.84630966 C253.34896593 353.24799022 249.53319512 352.93888396 244.9236145 352.89561462 C243.91029808 352.90185459 242.89698166 352.90809455 241.85295868 352.9145236 C238.44723958 352.93051686 235.04222992 352.91782418 231.63650513 352.90525818 C229.19908225 352.91067646 226.76166264 352.91779746 224.32424927 352.92649841 C218.38506268 352.94287064 212.44606129 352.94043808 206.50687981 352.92884785 C201.68052384 352.91981875 196.85422454 352.91858724 192.02786255 352.92294312 C191.34126981 352.92355605 190.65467708 352.92416898 189.9472785 352.92480049 C188.55253154 352.92607937 187.1577846 352.92737622 185.76303768 352.92869085 C172.68072644 352.94010037 159.59852726 352.92697716 146.5162344 352.90548939 C135.28803934 352.88761803 124.0600097 352.89072203 112.83181763 352.90916443 C99.79671759 352.93056462 86.7617158 352.9390017 73.72660065 352.92671537 C72.33694968 352.92544116 70.9472987 352.92418368 69.55764771 352.92294312 C68.87389116 352.92232601 68.19013461 352.92170891 67.48565817 352.92107311 C62.66441587 352.91761764 57.84323583 352.92345276 53.02200317 352.93286133 C46.53443652 352.94524327 40.04710911 352.9364432 33.55957031 352.9132843 C31.17466757 352.90798277 28.78973859 352.90953549 26.40484619 352.91833496 C23.15683685 352.92921662 19.90984004 352.91561534 16.66189575 352.89561462 C15.71132042 352.90453751 14.76074509 352.9134604 13.78136444 352.92265368 C9.96952363 352.87691845 7.51890502 352.82037074 4.20599747 350.84630966 C2.24590381 347.4363182 2.25175921 344.36741142 2.31173706 340.54167175 C2.30661051 339.34823147 2.30661051 339.34823147 2.3013804 338.13068128 C2.29478598 335.4617505 2.31680277 332.79382302 2.33865356 330.12498474 C2.33978171 328.21308923 2.33914883 326.30119199 2.33688354 324.38929749 C2.33573418 319.1953338 2.35927967 314.00173835 2.38717937 308.80786037 C2.41215583 303.3812998 2.41453207 297.95473113 2.41928101 292.52812195 C2.43172182 282.25045988 2.46455845 271.97296767 2.50467896 261.69538045 C2.54936223 249.99541334 2.57137506 238.29543818 2.5914607 226.59540701 C2.63329006 202.52607046 2.70366366 178.45688477 2.79275513 154.38768005 C1.16466919 154.41595886 1.16466919 154.41595886 -0.49630737 154.44480896 C-1.9416153 154.46005977 -3.38692818 154.47484634 -4.83224487 154.48924255 C-5.54509644 154.50285828 -6.257948 154.516474 -6.99240112 154.53050232 C-16.80378513 154.60363764 -25.07677607 151.14203622 -32.20724487 144.38768005 C-43.29613543 132.68131067 -42.80691279 118.8356014 -42.73849487 103.70018005 C-42.74119422 101.58990806 -42.74508031 99.47963728 -42.75009155 97.36936951 C-42.75596574 92.96161475 -42.74749082 88.55418579 -42.72872925 84.14646912 C-42.70594125 78.52129172 -42.7190755 72.89687796 -42.7430191 67.27172852 C-42.75753336 62.91858762 -42.75284533 58.56562517 -42.74250793 54.21247864 C-42.73985619 52.13941862 -42.74305521 50.06634193 -42.75242615 47.99330139 C-42.80181831 33.99847769 -42.65363277 20.99098794 -32.20724487 10.38768005 C-22.38968676 1.94593891 -12.69931846 -0.06945804 0 0 Z M-24.08224487 21.32518005 C-24.63654175 21.97357849 -25.19083862 22.62197693 -25.76193237 23.2900238 C-29.00562742 27.99776499 -29.45386127 31.99223458 -29.43429565 37.65647888 C-29.43453672 38.38067111 -29.43477779 39.10486334 -29.43502617 39.85100079 C-29.43353996 42.18236501 -29.41833934 44.51340469 -29.40255737 46.8447113 C-29.39961478 48.28916775 -29.39757567 49.73362632 -29.39645386 51.17808533 C-29.38599154 56.51881621 -29.35806899 61.85950136 -29.33224487 67.20018005 C-29.29099487 79.14205505 -29.24974487 91.08393005 -29.20724487 103.38768005 C-3.79724487 103.38768005 21.61275513 103.38768005 47.79275513 103.38768005 C47.79275513 107.34768005 47.79275513 111.30768005 47.79275513 115.38768005 C22.38275513 115.38768005 -3.02724487 115.38768005 -29.20724487 115.38768005 C-29.20724487 124.8152341 -28.61537802 128.22218399 -22.95724487 135.13768005 C-15.68878111 141.08460495 -9.46756124 141.96915869 -0.2068634 141.8888855 C0.98743032 141.89441989 2.18172405 141.89995429 3.4122085 141.9056564 C6.71021184 141.91687945 10.00728794 141.91026345 13.30521977 141.89591968 C16.8683236 141.88478251 20.43136158 141.89676148 23.99446106 141.90576172 C30.96749826 141.91967715 37.94035407 141.91215082 44.9133826 141.89708614 C53.0366158 141.880206 61.15980407 141.88343879 69.2830494 141.88718022 C83.77793909 141.89305559 98.27274185 141.8788994 112.76760864 141.85423279 C126.82786314 141.83030853 140.88800151 141.82323067 154.94827271 141.83372498 C170.26615839 141.84513749 185.5839904 141.84706047 200.90187544 141.83262688 C202.53557582 141.83110107 204.16927621 141.82958071 205.80297661 141.82806587 C206.60675192 141.82730806 207.41052723 141.82655024 208.23865937 141.82576947 C213.89910015 141.82102956 219.55951694 141.82287596 225.21995735 141.82713127 C232.11865988 141.83206083 239.01725268 141.82606055 245.9159301 141.80623697 C249.43479361 141.79637406 252.95349013 141.79124898 256.47236252 141.79912949 C260.28813336 141.8075 264.10361157 141.7925893 267.9193573 141.77536011 C269.58482238 141.78437518 269.58482238 141.78437518 271.28393322 141.79357237 C280.36177283 141.71890878 286.17847219 139.70131377 292.79275513 133.38768005 C297.0374762 127.47538998 297.79275513 122.68307825 297.79275513 115.38768005 C238.39275513 115.38768005 178.99275513 115.38768005 117.79275513 115.38768005 C117.79275513 111.42768005 117.79275513 107.46768005 117.79275513 103.38768005 C177.19275513 103.38768005 236.59275513 103.38768005 297.79275513 103.38768005 C303.04412327 58.36594737 303.04412327 58.36594737 291.54275513 20.07518005 C284.71768518 13.40522533 278.02278218 12.8053808 268.76113892 12.87974548 C266.96463135 12.87038554 266.96463135 12.87038554 265.13183069 12.86083651 C261.82436579 12.84768263 258.51781506 12.85236086 255.21040654 12.86478138 C251.63705064 12.87385475 248.06377296 12.85985086 244.49043274 12.84886169 C237.49701534 12.83109618 230.50376989 12.83490762 223.51034582 12.84651226 C217.825522 12.85555408 212.1407463 12.85676735 206.45591736 12.85241699 C205.24123665 12.85149759 205.24123665 12.85149759 204.00201693 12.85055962 C202.35683404 12.84928069 200.71165116 12.84798384 199.0664683 12.84666926 C183.6477259 12.83526923 168.2290787 12.84836809 152.81035191 12.86987072 C139.58682797 12.88774119 126.3634445 12.88463692 113.1399231 12.86619568 C97.77551064 12.84477876 82.41118157 12.83636781 67.04675627 12.84864473 C65.40770182 12.8499189 63.76864737 12.85117638 62.1295929 12.85241699 C61.32319419 12.85303409 60.51679548 12.8536512 59.68596044 12.854287 C54.00944619 12.85773744 48.33298493 12.85191817 42.65647888 12.84249878 C35.73655578 12.83126827 28.81681412 12.83434085 21.89691174 12.85562176 C18.36774915 12.86611816 14.83888883 12.87027842 11.30972862 12.85702515 C7.48110609 12.84286497 3.65297611 12.85979816 -0.17562866 12.87974548 C-1.28691682 12.8708226 -2.39820498 12.86189971 -3.54316854 12.85270643 C-11.91571235 12.93736269 -18.49523493 14.57532355 -24.08224487 21.32518005 Z M15.79275513 154.38768005 C15.79275513 215.43768005 15.79275513 276.48768005 15.79275513 339.38768005 C91.69275513 339.38768005 167.59275513 339.38768005 245.79275513 339.38768005 C245.79275513 278.33768005 245.79275513 217.28768005 245.79275513 154.38768005 C169.89275513 154.38768005 93.99275513 154.38768005 15.79275513 154.38768005 Z " fill="#FCFCFE" transform="translate(125.20724487304688,82.61231994628906)"></path><path d="M0 0 C1.43931117 0.45261358 2.87638999 0.91232979 4.3125 1.375 C5.11300781 1.63023437 5.91351563 1.88546875 6.73828125 2.1484375 C9 3 9 3 12 5 C10.02269912 11.19953451 7.7659134 17.21764782 5.25390625 23.21875 C4.89052155 24.09450684 4.52713684 24.97026367 4.15274048 25.87255859 C3.36813901 27.76283167 2.58218801 29.65254506 1.79501343 31.54174805 C-0.33331414 36.65011363 -2.45155276 41.76266027 -4.5703125 46.875 C-5.01198257 47.94012817 -5.45365265 49.00525635 -5.90870667 50.10266113 C-11.35675847 63.253872 -16.72227284 76.43882114 -22.08322144 89.62573242 C-26.62368353 100.79435118 -31.18485962 111.9464431 -36 123 C-40.39156872 122.16215572 -43.93333477 120.83398628 -48 119 C-45.88255896 110.92101855 -42.76221171 103.32815712 -39.50619507 95.6607666 C-37.83355989 91.7201781 -36.179093 87.77196463 -34.5234375 83.82421875 C-34.16616074 82.97316559 -33.80888397 82.12211243 -33.44078064 81.24526978 C-28.35228031 69.10072215 -23.40724428 56.89703669 -18.447052 44.69967651 C-12.37449416 29.76746446 -6.22285252 14.87023821 0 0 Z " fill="#FAFBFE" transform="translate(271,268)"></path><path d="M0 0 C3.44779086 1.50006391 5.82360533 3.50409262 8.5625 6.0625 C12.10168226 9.31107492 15.69560168 12.42468216 19.4375 15.4375 C24.25888985 19.33955704 28.86061781 23.42935935 33.40625 27.6484375 C35.7658466 29.78771032 38.20094595 31.76250786 40.6875 33.75 C43.18245328 35.956281 43.91784706 36.73711058 44.9375 40 C43.51173024 44.56246322 40.5480409 46.9218532 37 50 C36.13181641 50.78117187 36.13181641 50.78117187 35.24609375 51.578125 C32.12761505 54.35309957 28.94201768 57.04961643 25.765625 59.7578125 C24.57291115 60.7760352 23.38020297 61.79426455 22.1875 62.8125 C21.58687744 63.32361328 20.98625488 63.83472656 20.36743164 64.36132812 C15.54492869 68.4832363 10.89804735 72.75976339 6.3046875 77.13671875 C4.08473326 78.93149532 2.78865072 79.62089771 0 80 C-1.19959375 78.74057614 -2.38439443 77.46704714 -3.5625 76.1875 C-4.22378906 75.47980469 -4.88507813 74.77210938 -5.56640625 74.04296875 C-6.03949219 73.36878906 -6.51257813 72.69460938 -7 72 C-5.92518582 68.77555746 -5.32427942 68.16725333 -2.8125 66.0625 C-2.09449219 65.45277344 -1.37648438 64.84304688 -0.63671875 64.21484375 C0.23339844 63.48394531 1.10351562 62.75304687 2 62 C4.29555285 60.04620279 6.58537029 58.08573262 8.875 56.125 C9.47481689 55.61235596 10.07463379 55.09971191 10.69262695 54.5715332 C15.87414923 50.13332805 20.96003026 45.59868206 26 41 C24.49066744 37.2097098 22.31798482 35.41322011 19.125 32.9375 C14.87211625 29.55414425 10.79590829 26.0710638 6.8125 22.375 C2.27604229 18.16915804 -2.31365786 14.03852425 -7 10 C-4.75421558 6.59260295 -2.48862878 3.23521742 0 0 Z " fill="#FAFAFE" transform="translate(299,286)"></path><path d="M0 0 C2.25809724 1.22825373 3.51357471 2.57360902 5.1171875 4.578125 C5.89835937 5.53912109 5.89835937 5.53912109 6.6953125 6.51953125 C7.08203125 7.01324219 7.46875 7.50695312 7.8671875 8.015625 C1.21925487 16.28062233 -6.68018771 23.09327724 -14.9453125 29.703125 C-19.23497716 33.15698107 -22.72987127 36.69296992 -26.1328125 41.015625 C-25.56691406 41.26183594 -25.00101563 41.50804687 -24.41796875 41.76171875 C-21.74032992 43.23098724 -19.80237638 44.99314935 -17.5703125 47.078125 C-13.98853011 50.36493708 -10.3498048 53.5205582 -6.5703125 56.578125 C-1.6234366 60.58072544 3.15237939 64.74319395 7.8671875 69.015625 C6.04213841 72.93862772 3.68447924 75.75349772 0.8671875 79.015625 C-8.02111919 75.05610091 -15.28510329 67.01452087 -22.359375 60.5078125 C-27.6505355 55.75322039 -33.18734639 51.27808448 -38.828125 46.9453125 C-41.3933808 44.79745425 -42.87496414 43.04701842 -43.6953125 39.765625 C-42.77451631 35.26395476 -39.48288665 32.97989407 -36.1328125 30.015625 C-35.55402344 29.49355469 -34.97523438 28.97148437 -34.37890625 28.43359375 C-31.27004398 25.67389096 -28.09942502 22.98684038 -24.93359375 20.29296875 C-24.35665771 19.80103027 -23.77972168 19.3090918 -23.18530273 18.80224609 C-21.98175635 17.77622402 -20.77683456 16.75181317 -19.57055664 15.72900391 C-16.54066497 13.14402726 -13.57686689 10.51994585 -10.703125 7.76171875 C-10.16397461 7.24770508 -9.62482422 6.73369141 -9.06933594 6.20410156 C-7.58831454 4.78050563 -6.12183357 3.34182788 -4.65625 1.90234375 C-2.1328125 0.015625 -2.1328125 0.015625 0 0 Z " fill="#FAFAFD" transform="translate(206.1328125,286.984375)"></path><path d="M0 0 C10.56 0 21.12 0 32 0 C32 3.96 32 7.92 32 12 C21.44 12 10.88 12 0 12 C0 8.04 0 4.08 0 0 Z " fill="#FFFFFF" transform="translate(192,186)"></path></svg>