<svg version="1.1" xmlns="http://www.w3.org/2000/svg" width="16px" height="16px" fill="currentColor" viewBox="0 0 512 512"><path d="M0 0 C168.96 0 337.92 0 512 0 C512 168.96 512 337.92 512 512 C343.04 512 174.08 512 0 512 C0 343.04 0 174.08 0 0 Z " fill="#E3750D" transform="translate(0,0)"></path><path d="M0 0 C10.66313588 8.73689198 18.98365023 20.1217007 21 34 C21.66527863 42.80791429 21.40602864 50.79519417 18 59 C17.50693359 60.22783203 17.50693359 60.22783203 17.00390625 61.48046875 C10.92984553 75.03676344 -0.49331153 84.52436325 -14.0078125 90.0546875 C-17 91 -17 91 -24 92 C-24 103.88 -24 115.76 -24 128 C-21.03 128.66 -18.06 129.32 -15 130 C-4.04263779 134.34815961 3.87013152 142.471214 9 153 C10.55266389 156.8110841 11 158.85350496 11 163 C28.16 163 45.32 163 63 163 C63.66 160.03 64.32 157.06 65 154 C69.44235813 142.59394535 77.76965758 135.0666754 88.67578125 129.875 C98.36762887 126.22630442 112.04998856 126.29426969 121.625 130.0625 C133.23856895 135.86118575 141.82095487 144.71053224 146.34375 157.03125 C149.28141692 170.32069559 146.85488434 182.2722976 139.65234375 193.6484375 C132.67555479 203.57757923 123.63736897 208.09065776 112 211 C111.67 227.17 111.34 243.34 111 260 C113.31 260.33 115.62 260.66 118 261 C130.48136853 265.88747467 137.5245518 272.40442997 144 284 C144.54720703 284.95326172 144.54720703 284.95326172 145.10546875 285.92578125 C149.04147721 294.25977099 148.00246499 305.85151608 145.375 314.4375 C140.89858696 325.92385152 133.51848687 334.15480295 122.25 339.4375 C112.45633713 343.60541378 99.28158978 343.59527097 89.33203125 340.03125 C76.96202208 334.56109519 69.241021 326.4614834 64 314 C61.27815254 305.83445762 61.57536189 293.35479492 64.5625 285.3125 C70.17355794 274.11014137 79.23369599 265.39485462 91 261 C93.31 260.67 95.62 260.34 98 260 C98 243.83 98 227.66 98 211 C95.03 210.34 92.06 209.68 89 209 C77.10532855 203.45132289 68.85965704 194.74180169 64.0625 182.5 C63 179 63 179 63 176 C45.84 176 28.68 176 11 176 C10.67 178.31 10.34 180.62 10 183 C6.30405545 193.37402461 -0.70043444 201.06999748 -10.01953125 206.7109375 C-14.4935393 208.64596064 -19.29722784 209.71742577 -24 211 C-24 224.86 -24 238.72 -24 253 C-18.06 254.485 -18.06 254.485 -12 256 C-0.5905553 261.84054907 8.21128741 270.10791121 12.8125 282.25 C15.81744286 293.4707693 15.72107866 307.09016267 10.48046875 317.52734375 C3.50207385 329.18255212 -5.58910965 337.25314197 -18.80078125 341.109375 C-30.52977547 343.87471412 -42.36190679 342.73935274 -53 337 C-61.87618435 331.4082753 -69.08978083 323.7936508 -73 314 C-73.2990625 313.25105469 -73.598125 312.50210937 -73.90625 311.73046875 C-77.90170805 300.28052182 -76.63254748 289.06344415 -72 278 C-70.28910506 274.71487924 -68.33826541 271.86819939 -66 269 C-65.44828125 268.31292969 -64.8965625 267.62585938 -64.328125 266.91796875 C-57.11781958 258.86029837 -47.56194291 254.50884899 -37 253 C-37.33 239.14 -37.66 225.28 -38 211 C-41.3 210.01 -44.6 209.02 -48 208 C-58.12879146 203.53999718 -66.06304833 195.50708385 -70.34375 185.30078125 C-71.2074978 182.27252261 -71.55465944 179.11738391 -72 176 C-88.5 176 -105 176 -122 176 C-122 177.98 -122 179.96 -122 182 C-127.6092217 196.45453284 -135.62783297 205.38157465 -149.8125 211.875 C-153 213 -153 213 -159 214 C-159.33 229.18 -159.66 244.36 -160 260 C-157.36 260.33 -154.72 260.66 -152 261 C-140.40118087 264.98015443 -132.42424547 273.25582147 -127 284 C-126.6596875 284.61101562 -126.319375 285.22203125 -125.96875 285.8515625 C-122.01468126 294.16242921 -122.97076559 305.69062091 -125.5 314.3125 C-129.99915696 325.89075009 -137.61627346 334.28862698 -148.96484375 339.3125 C-160.1046288 343.2782084 -172.52559431 343.98190409 -183.54296875 339.2578125 C-195.1883898 333.2962456 -202.86797896 325.24907296 -207.08203125 312.8046875 C-209.56886882 302.49753943 -209.54388796 290.25708394 -204 281 C-197.97835903 271.18966699 -189.12042912 263.37671424 -178 260 C-176.02 260 -174.04 260 -172 260 C-172.33 244.82 -172.66 229.64 -173 214 C-175.97 213.34 -178.94 212.68 -182 212 C-193.46819903 207.18305814 -201.45514579 200.08970843 -207 189 C-207.41507812 188.19046875 -207.83015625 187.3809375 -208.2578125 186.546875 C-212.5488476 176.76451526 -212.7965358 164.19777251 -209.4375 154.0625 C-203.26515208 139.99127327 -194.97171479 131.29106252 -180.91796875 125.12890625 C-171.78706024 121.59633254 -160.56760237 121.69067807 -151.3359375 124.95703125 C-137.98090449 130.91989716 -128.65605561 139.63061046 -123.0625 153.3125 C-122 157 -122 157 -122 163 C-105.5 163 -89 163 -72 163 C-71.67 160.36 -71.34 157.72 -71 155 C-66.44374891 143.27041243 -58.01870167 135.62027736 -47 130 C-43.1889159 128.44733611 -41.14649504 128 -37 128 C-37 116.12 -37 104.24 -37 92 C-40.63 91.34 -44.26 90.68 -48 90 C-60.91454818 85.08247541 -72.57704853 73.85486091 -78.3125 61.3125 C-78.90563444 59.88736701 -79.46659103 58.44854664 -80 57 C-80.35707031 56.11054688 -80.71414062 55.22109375 -81.08203125 54.3046875 C-84.46237842 42.1354377 -82.39113386 29.32588582 -76.609375 18.36328125 C-75.16939734 15.82816268 -73.63886408 13.41058236 -72 11 C-71.58363281 10.38511719 -71.16726562 9.77023438 -70.73828125 9.13671875 C-63.8087277 0.08459925 -52.78438992 -5.9753297 -42 -9 C-41.38511719 -9.19078125 -40.77023438 -9.3815625 -40.13671875 -9.578125 C-25.47560001 -12.47282486 -12.18892399 -8.02327488 0 0 Z " fill="#FEFCFA" transform="translate(288,93)"></path><path d="M0 0 C3.35949218 2.01365616 6.17135843 4.29892462 9 7 C9.63679688 7.59683594 10.27359375 8.19367188 10.9296875 8.80859375 C17.56941712 15.66204858 21.21938101 23.94985486 21.5625 33.5 C21.0659454 44.42420131 17.44807369 53.04482342 10 61 C9.47664063 61.56460938 8.95328125 62.12921875 8.4140625 62.7109375 C0.63164382 70.18965204 -10.49030484 73.40387268 -21.0625 73.27734375 C-32.39905521 72.2070041 -42.14788457 64.73611866 -49.2734375 56.3046875 C-55.65473483 47.78666617 -57.11469182 38.53091203 -56.30810547 28.01513672 C-54.78959135 18.08342871 -47.87784237 8.90535649 -40 3 C-26.51264341 -4.9278111 -14.63508569 -6.36879852 0 0 Z " fill="#EA7E0B" transform="translate(275,100)"></path><path d="M0 0 C3 2.5625 3 2.5625 5 5 C6.0209375 6.11375 6.0209375 6.11375 7.0625 7.25 C13.55170458 16.46048392 14.39934319 25.52897606 12.5625 36.6484375 C10.21880322 44.99785729 4.53286507 51.61062639 -2.8125 56.02734375 C-11.39055481 59.84151455 -21.96142158 60.82252432 -31.015625 58.08984375 C-33.51869302 56.89589566 -35.7276909 55.58640839 -38 54 C-38.65484375 53.56558594 -39.3096875 53.13117188 -39.984375 52.68359375 C-45.89955783 48.24720663 -48.70651211 41.88046368 -51 35 C-52.21934663 23.29150109 -50.68728817 14.86047197 -44 5 C-32.5960901 -8.50059289 -14.19785632 -9.24613483 0 0 Z " fill="#DC6D14" transform="translate(141,235)"></path><path d="M0 0 C8.46709586 5.27168751 13.92704289 12.36583599 16.8671875 21.94921875 C18.46700407 30.2584701 17.25726998 38.87215735 12.92578125 46.16796875 C7.94764647 53.13213106 1.67854961 58.80470057 -6.75 60.9375 C-17.14699216 62.1912627 -26.33655115 61.70144672 -34.921875 55.32421875 C-42.5112582 49.07821177 -46.86533799 41.88978952 -48.109375 32.11328125 C-48.57710119 22.17409964 -45.4024696 13.36753098 -38.75 5.9375 C-36.56640625 4.20703125 -36.56640625 4.20703125 -34.3125 2.75 C-33.57128906 2.26144531 -32.83007812 1.77289063 -32.06640625 1.26953125 C-23.16010704 -3.85196627 -9.38735943 -4.41075312 0 0 Z " fill="#DC6D14" transform="translate(272.75,361.0625)"></path><path d="M0 0 C6.63386799 5.15827378 10.94704617 12.3792386 12.3125 20.6875 C12.64285068 29.24358262 10.36410782 36.62862135 5.1171875 43.41015625 C-0.7980437 49.74363612 -8.97825505 53.10548102 -17.5078125 53.91015625 C-25.96658559 53.19331107 -33.10161399 50.63904834 -39.1953125 44.59765625 C-45.99483491 36.16624846 -48.29725102 28.40781258 -47.1953125 17.59765625 C-45.20975198 10.00021211 -40.35333381 3.4718974 -33.91796875 -0.9765625 C-22.67077028 -7.50779755 -10.93764521 -6.98685877 0 0 Z " fill="#E37510" transform="translate(275.1953125,238.40234375)"></path><path d="M0 0 C6.37884896 4.39051946 11.77985462 10.32060783 13.76953125 17.90625 C14.82371231 28.941791 13.45565823 36.62809301 6.45703125 45.21875 C1.27069029 50.80575249 -4.19670237 53.59765585 -11.8046875 54.1796875 C-21.97659748 54.53172081 -28.02901988 53.28019564 -35.98046875 46.59375 C-43.49769311 37.61484313 -44.91618738 30.3811262 -44.4140625 18.89501953 C-44.04581078 14.90595232 -42.62444013 12.0458846 -40.23046875 8.90625 C-39.48796875 7.854375 -38.74546875 6.8025 -37.98046875 5.71875 C-27.34498151 -5.15845286 -13.36690372 -7.42800416 0 0 Z " fill="#EA7E0B" transform="translate(408.23046875,237.09375)"></path><path d="M0 0 C7.47194841 4.22846614 12.4921822 9.90141227 15.05078125 18.23046875 C16.70584007 26.36184467 16.2241842 34.00410373 12.04296875 41.21875 C7.54291465 47.68971387 2.30860688 52.53871646 -5.5 54.4375 C-16.03124743 55.55882931 -25.31914739 54.62269468 -33.875 48.0625 C-40.20399816 41.73350184 -42.78273824 35.47118543 -42.8125 26.5625 C-42.6178308 16.79830259 -40.37541561 11.57032482 -33.6953125 4.421875 C-24.48914615 -3.89971309 -11.06812164 -5.20852783 0 0 Z " fill="#D46215" transform="translate(135.5,367.5625)"></path><path d="M0 0 C6.42683051 4.05535812 10.7701786 10.85079657 13.1015625 18.00390625 C14.29394689 28.28351485 12.87069665 35.86201885 6.52734375 44.03125 C1.45354606 49.62543719 -3.93043924 52.58140808 -11.45703125 53.3828125 C-21.20712817 53.68719619 -28.90440425 52.31757421 -36.7109375 46.31640625 C-42.38998594 40.85267719 -45.08758319 35.70589829 -45.49047852 27.80932617 C-45.62318624 18.77831997 -44.27406845 11.91222271 -38.1015625 4.98828125 C-27.15368897 -5.43409435 -13.35780874 -7.00872681 0 0 Z " fill="#E3750F" transform="translate(408.8984375,368.99609375)"></path><path d="M0 0 C4.66018963 1.7027616 7.47755931 3.70250846 10 8 C11.20567943 12.46762034 11.37006959 15.91035066 9.875 20.3125 C7.44785585 23.79140662 4.7924148 26.1037926 1 28 C-3.26156584 28.61547295 -7.30125444 28.94993604 -11.14453125 26.80078125 C-15.61358854 23.06559021 -17.80413138 20.02397573 -18.375 14.125 C-18.24562158 9.77465059 -16.87112239 7.3244575 -14 4 C-9.44787756 0.06862153 -5.81719888 -0.95402062 0 0 Z " fill="#FEFCFA" transform="translate(261,377)"></path><path d="M0 0 C3.85432136 1.78950635 5.49773376 3.26334285 7.875 6.75 C9.2361704 10.68227005 9.74677599 13.88862888 9 18 C6.30455136 23.10209922 3.4785689 26.17381037 -2 28 C-6.1320154 28.38981277 -8.46020609 28.27518905 -12.1875 26.375 C-15.94657889 23.20066672 -18.50048267 20.60524122 -19.453125 15.63671875 C-19.7792997 10.75151126 -19.31667468 7.73934778 -16.125 3.9375 C-11.3998126 -0.91323585 -6.52678474 -0.6545222 0 0 Z " fill="#FEFDFB" transform="translate(127,248)"></path></svg>