<?xml version="1.0" encoding="iso-8859-1"?>
<!-- Generator: Adobe Illustrator 19.0.0, SVG Export Plug-In . SVG Version: 6.00 Build 0)  -->
<svg version="1.1" id="Layer_1" xmlns="http://www.w3.org/2000/svg" xmlns:xlink="http://www.w3.org/1999/xlink" x="0px" y="0px"
	 viewBox="0 0 512 512" style="enable-background:new 0 0 512 512;" xml:space="preserve">
<rect x="340.309" y="74.969" style="fill:#F6E27D;" width="37.46" height="124.866"/>
<g>
	
		<rect x="69.159" y="274.736" transform="matrix(-0.9701 -0.2425 0.2425 -0.9701 242.581 616.788)" style="fill:#F8E99B;" width="180.185" height="37.457"/>
	<path style="fill:#F8E99B;" d="M321.577,312.215c0,82.753,67.085,149.839,149.839,149.839V512l-274.704-37.46V312.215
		c0-75.857,61.494-137.352,137.352-137.352h37.46c55.169,0,99.892,44.723,99.892,99.892v74.919h-74.919v-37.46
		c0-20.688-16.772-37.46-37.46-37.46S321.577,291.527,321.577,312.215"/>
</g>
<path style="fill:#E07188;" d="M63.723,156.133c-42.758,74.058-51.714,158.35-31.668,235.026l95.156-31.365
	c-11.624-50.483-4.923-105.312,23.021-153.713c58.618-101.528,188.44-136.313,289.969-77.696l49.946-86.509
	C340.84-44.327,149.925,6.827,63.723,156.133z"/>
<g>
	<path style="fill:#F6E27D;" d="M471.416,512v-49.946c-61.436,0-114.226-36.979-137.352-89.888V493.27L471.416,512z"/>
	<path style="fill:#F6E27D;" d="M471.416,349.675v-74.919c0-55.169-44.723-99.892-99.892-99.892h-37.46v109.438
		c6.628-5.934,15.377-9.546,24.973-9.546c20.688,0,37.46,16.772,37.46,37.46v37.46L471.416,349.675L471.416,349.675z"/>
</g>
<path style="fill:#E02753;" d="M150.232,206.13c58.618-101.528,188.44-136.313,289.969-77.696l25.013-43.325
	c-38.578-22.327-83.369-35.112-131.149-35.112c-144.819,0-262.218,117.399-262.218,262.218c0,21.84,2.687,43.05,7.719,63.334
	l47.645-15.704C115.588,309.362,122.287,254.533,150.232,206.13z"/>
<g>
</g>
<g>
</g>
<g>
</g>
<g>
</g>
<g>
</g>
<g>
</g>
<g>
</g>
<g>
</g>
<g>
</g>
<g>
</g>
<g>
</g>
<g>
</g>
<g>
</g>
<g>
</g>
<g>
</g>
</svg>
