<svg version="1.1" xmlns="http://www.w3.org/2000/svg" width="16px" height="16px" fill="currentColor" viewBox="0 0 512 512"><path d="M0 0 C168.96 0 337.92 0 512 0 C512 168.96 512 337.92 512 512 C343.04 512 174.08 512 0 512 C0 343.04 0 174.08 0 0 Z " fill="#D72B6B" transform="translate(0,0)"></path><path d="M0 0 C0.658862 -0.00525696 1.317724 -0.01051392 1.99655151 -0.01593018 C4.17372365 -0.02913053 6.35016422 -0.02039267 8.52734375 -0.01025391 C10.04044739 -0.01227465 11.55355008 -0.01518609 13.06665039 -0.01895142 C16.23756179 -0.02337479 19.40821964 -0.01694352 22.57910156 -0.00292969 C26.64480267 0.01416249 30.70990968 0.00432134 34.77558899 -0.01364708 C37.89998862 -0.02448472 41.02424726 -0.02103873 44.14865112 -0.0132637 C45.647777 -0.01126163 47.14691565 -0.01372125 48.64602661 -0.02070236 C50.74092541 -0.02831687 52.83486053 -0.0167143 54.9296875 0 C56.12198975 0.00238678 57.31429199 0.00477356 58.54272461 0.00723267 C61.46484375 0.38818359 61.46484375 0.38818359 63.352005 1.75346375 C64.99033933 4.16011758 64.8036155 6.04556338 64.7578125 8.93115234 C64.74814453 10.00429687 64.73847656 11.07744141 64.72851562 12.18310547 C64.70337891 13.30265625 64.67824219 14.42220703 64.65234375 15.57568359 C64.63880859 16.70683594 64.62527344 17.83798828 64.61132812 19.00341797 C64.57594333 21.79881677 64.52657323 24.59326252 64.46484375 27.38818359 C65.38559692 27.64233032 65.38559692 27.64233032 66.32495117 27.90161133 C72.39219229 29.63949341 78.05278594 31.80669331 83.77734375 34.45068359 C85.3147532 35.15067369 86.85250421 35.84991418 88.390625 36.54833984 C89.09525879 36.86947754 89.79989258 37.19061523 90.52587891 37.52148438 C92.81363757 38.54409118 95.12656054 39.48740783 97.46484375 40.38818359 C97.88258057 39.90349609 98.30031738 39.41880859 98.73071289 38.91943359 C100.64298948 36.72402291 102.58434279 34.55643349 104.52734375 32.38818359 C105.18412109 31.62505859 105.84089844 30.86193359 106.51757812 30.07568359 C107.17177734 29.35380859 107.82597656 28.63193359 108.5 27.88818359 C109.09176025 27.21787109 109.68352051 26.54755859 110.29321289 25.85693359 C113.46704195 23.71036185 115.69792904 24.03096808 119.46484375 24.38818359 C122.05296326 26.0874176 122.05296326 26.0874176 124.48217773 28.49975586 C125.40260361 29.39811661 126.32302948 30.29647736 127.27134705 31.22206116 C128.25210792 32.21535212 129.23194986 33.20955114 130.2109375 34.20458984 C131.23124424 35.22017755 132.25258787 36.23472451 133.2749176 37.24827576 C135.41026566 39.37332063 137.53248395 41.51046576 139.64624023 43.65698242 C142.35198782 46.40261468 145.08795806 49.11561199 147.83456326 51.82029819 C149.94829963 53.9086956 152.04502506 56.01353536 154.13704109 58.12367058 C155.1394033 59.13069037 156.14695862 60.13256928 157.15978813 61.12906075 C158.5745852 62.52601054 159.96452802 63.94799646 161.35327148 65.37084961 C162.14934311 66.17249039 162.94541473 66.97413116 163.76560974 67.80006409 C165.99894374 71.20167637 165.93037818 73.39555235 165.46484375 77.38818359 C163.328125 79.99365234 163.328125 79.99365234 160.46484375 82.38818359 C159.50964844 83.27119141 158.55445313 84.15419922 157.5703125 85.06396484 C156.60738281 85.93408203 155.64445312 86.80419922 154.65234375 87.70068359 C153.67652344 88.58369141 152.70070313 89.46669922 151.6953125 90.37646484 C150.95925781 91.04033203 150.22320312 91.70419922 149.46484375 92.38818359 C149.9959375 93.48775391 150.52703125 94.58732422 151.07421875 95.72021484 C160.54396814 115.47888835 160.54396814 115.47888835 162.46484375 125.38818359 C163.17616455 125.37247314 163.88748535 125.3567627 164.62036133 125.34057617 C167.83927479 125.27826444 171.05806143 125.23920492 174.27734375 125.20068359 C175.39689453 125.17554688 176.51644531 125.15041016 177.66992188 125.12451172 C178.74306641 125.11484375 179.81621094 125.10517578 180.921875 125.09521484 C181.9116333 125.07950439 182.9013916 125.06379395 183.92114258 125.04760742 C186.46484375 125.38818359 186.46484375 125.38818359 188.0995636 126.50102234 C190.11669035 129.28919988 189.84618943 131.50749797 189.85302734 134.92333984 C189.86091278 135.91163284 189.86091278 135.91163284 189.86895752 136.91989136 C189.88215787 139.0970635 189.87342001 141.27350406 189.86328125 143.45068359 C189.86530199 144.96378724 189.86821343 146.47688993 189.87197876 147.98999023 C189.87640213 151.16090163 189.86997086 154.33155948 189.85595703 157.50244141 C189.83886485 161.56814251 189.848706 165.63324953 189.86667442 169.69892883 C189.87751207 172.82332846 189.87406607 175.94758711 189.86629105 179.07199097 C189.86428897 180.57111684 189.8667486 182.0702555 189.87372971 183.56936646 C189.88134421 185.66426526 189.86974164 187.75820037 189.85302734 189.85302734 C189.85064056 191.04532959 189.84825378 192.23763184 189.84579468 193.46606445 C189.46484375 196.38818359 189.46484375 196.38818359 188.0995636 198.27534485 C185.69290976 199.91367917 183.80746396 199.72695534 180.921875 199.68115234 C179.84873047 199.67148437 178.77558594 199.66181641 177.66992188 199.65185547 C176.55037109 199.62671875 175.43082031 199.60158203 174.27734375 199.57568359 C173.14619141 199.56214844 172.01503906 199.54861328 170.84960938 199.53466797 C168.05421058 199.49928317 165.25976483 199.44991308 162.46484375 199.38818359 C162.28961182 200.00636963 162.11437988 200.62455566 161.93383789 201.26147461 C160.23574581 207.10453334 158.25793553 212.71785543 155.90234375 218.32568359 C155.59876953 219.06625 155.29519531 219.80681641 154.98242188 220.56982422 C153.6533403 223.76946504 152.40035866 226.48491123 150.46484375 229.38818359 C150.38224312 232.23547596 150.92010897 233.80306297 152.86767578 235.89501953 C155.36407376 238.13824016 157.9324748 240.27988871 160.53710938 242.39599609 C161.47780273 243.20810547 161.47780273 243.20810547 162.4375 244.03662109 C163.01765869 244.51276855 163.59781738 244.98891602 164.19555664 245.47949219 C166.19267201 248.48265587 165.79289341 250.85996919 165.46484375 254.38818359 C163.71418762 257.01426697 163.71418762 257.01426697 161.22973633 259.49731445 C160.30489944 260.43776108 159.38006256 261.3782077 158.42720032 262.34715271 C157.40532748 263.34986113 156.38270043 264.35180142 155.359375 265.35302734 C154.31643238 266.39560605 153.27467545 267.4393721 152.23405457 268.48426819 C150.05322044 270.66639502 147.86078334 272.83590962 145.65893555 274.99682617 C142.83825427 277.7663705 140.04507119 280.5618295 137.25961781 283.36675167 C135.11315004 285.52351737 132.95450423 287.66774128 130.79178429 289.80819893 C129.75697705 290.83464692 128.72558159 291.86454641 127.69770241 292.89793205 C126.25969528 294.33922215 124.80367424 295.76247135 123.34692383 297.18481445 C122.52307693 297.99865097 121.69923004 298.81248749 120.85041809 299.65098572 C118.46484375 301.38818359 118.46484375 301.38818359 115.83183289 301.79029846 C112.20774869 301.17462257 110.29981343 298.79101491 107.90234375 296.20068359 C107.43376953 295.71792969 106.96519531 295.23517578 106.48242188 294.73779297 C103.6243992 291.75985326 100.9961062 288.64606726 98.46484375 285.38818359 C93.5027478 286.03927372 89.37974559 288.16102888 84.90234375 290.26318359 C77.8410239 293.50435095 71.12812499 295.9456836 63.46484375 297.38818359 C63.62984375 298.37818359 63.79484375 299.36818359 63.96484375 300.38818359 C64.50733863 304.81589913 64.64677708 309.24431846 64.71484375 313.70068359 C64.74674805 314.75932617 64.74674805 314.75932617 64.77929688 315.83935547 C64.81297565 320.85749263 64.81297565 320.85749263 63.3527832 323.08340454 C60.55535464 325.01674313 58.30730533 324.76960579 54.9296875 324.77636719 C54.2708255 324.78162415 53.6119635 324.7868811 52.93313599 324.79229736 C50.75596385 324.80549772 48.57952328 324.79675985 46.40234375 324.78662109 C44.88924011 324.78864184 43.37613742 324.79155328 41.86303711 324.7953186 C38.69212571 324.79974198 35.52146786 324.79331071 32.35058594 324.77929688 C28.28488483 324.76220469 24.21977782 324.77204584 20.15409851 324.79001427 C17.02969888 324.80085191 13.90544024 324.79740592 10.78103638 324.78963089 C9.2819105 324.78762881 7.78277185 324.79008844 6.28366089 324.79706955 C4.18876209 324.80468406 2.09482697 324.79308149 0 324.77636719 C-1.78845337 324.77278702 -1.78845337 324.77278702 -3.61303711 324.76913452 C-6.53515625 324.38818359 -6.53515625 324.38818359 -8.4230957 323.04458618 C-10.15825377 320.46008633 -9.85648064 318.20513233 -9.78515625 315.13818359 C-9.759375 313.98447266 -9.73359375 312.83076172 -9.70703125 311.64208984 C-9.5225991 308.15045392 -9.17413204 304.82267844 -8.53515625 301.38818359 C-6.74357136 301.36121994 -4.95187152 301.34180443 -3.16015625 301.32568359 C-2.16242188 301.31408203 -1.1646875 301.30248047 -0.13671875 301.29052734 C2.46484375 301.38818359 2.46484375 301.38818359 4.46484375 302.38818359 C4.13484375 305.68818359 3.80484375 308.98818359 3.46484375 312.38818359 C19.30484375 312.38818359 35.14484375 312.38818359 51.46484375 312.38818359 C51.13484375 308.42818359 50.80484375 304.46818359 50.46484375 300.38818359 C49.93777331 291.11174378 49.93777331 291.11174378 52.015625 288.25927734 C55.10980432 285.89546252 58.26827837 284.95626101 61.96484375 283.95068359 C72.86342361 280.75153047 82.64169745 276.51231344 92.45703125 270.74365234 C95.77419159 269.24877619 97.86848613 268.97615394 101.46484375 269.38818359 C103.45746037 271.00381869 104.82654071 272.44696515 106.46484375 274.38818359 C108.06699825 276.16083764 109.67131317 277.93154053 111.27734375 279.70068359 C112.6745287 281.2619751 114.07081307 282.82407509 115.46484375 284.38818359 C120.13358912 280.48841638 124.55612184 276.43603715 128.8359375 272.11474609 C129.40313004 271.54613861 129.97032257 270.97753113 130.55470276 270.39169312 C132.33964288 268.60122124 134.12104631 266.80727875 135.90234375 265.01318359 C137.12281314 263.78769036 138.34351428 262.56242787 139.56445312 261.33740234 C142.53393131 258.35698585 145.50024632 255.37345465 148.46484375 252.38818359 C146.33400891 247.62696135 142.63260182 244.89887222 138.6328125 241.71826172 C135.70389335 239.21130549 134.53152229 237.78069795 133.87890625 233.93896484 C134.54952357 229.87502386 135.82916591 227.40383789 137.96484375 223.88818359 C143.25338342 214.73301167 146.37322876 204.84591655 149.63037109 194.82910156 C150.04343506 193.62084717 150.04343506 193.62084717 150.46484375 192.38818359 C150.76729004 191.50146973 151.06973633 190.61475586 151.38134766 189.70117188 C152.46484375 187.38818359 152.46484375 187.38818359 155.46484375 185.38818359 C162.38212666 184.62676626 169.62633605 185.76650108 176.46484375 186.38818359 C176.46484375 170.54818359 176.46484375 154.70818359 176.46484375 138.38818359 C174.81484375 138.71818359 173.16484375 139.04818359 171.46484375 139.38818359 C168.61219104 139.65466055 165.76610592 139.70910396 162.90234375 139.76318359 C161.77022461 139.81925781 161.77022461 139.81925781 160.61523438 139.87646484 C156.86756136 139.93589931 154.9215605 139.78503941 152.05078125 137.29052734 C150.27667159 134.04381926 149.44690204 131.18837964 148.65234375 127.57568359 C145.89188569 116.11935534 141.25603439 105.24103976 134.43359375 95.59912109 C133.01986257 92.37262171 133.3586081 90.7195092 134.46484375 87.38818359 C136.40969957 85.19413417 138.20000007 83.39579097 140.40234375 81.51318359 C140.95341797 81.01560547 141.50449219 80.51802734 142.07226562 80.00537109 C146.16147622 76.38818359 146.16147622 76.38818359 148.46484375 76.38818359 C148.2363818 70.76988467 144.60110247 68.01343136 140.8046875 64.33740234 C140.1402211 63.67859573 139.4757547 63.01978912 138.79115295 62.34101868 C136.67076556 60.24298704 134.53688431 58.15930454 132.40234375 56.07568359 C130.96067634 54.65408204 129.51990988 53.23156619 128.08007812 51.80810547 C124.552026 48.32411027 121.0118085 44.85291822 117.46484375 41.38818359 C112.71040978 43.52420619 109.9507116 47.18767905 106.70703125 51.13232422 C104.54840468 53.62141469 102.74272215 55.27155294 99.69140625 56.55224609 C94.82727927 56.3049176 91.38020771 54.09415538 87.21484375 51.70068359 C85.50956702 50.76388892 83.80255316 49.83024891 82.09375 48.89990234 C81.28566895 48.45694824 80.47758789 48.01399414 79.64501953 47.55761719 C72.27591003 43.60486976 64.54098851 41.48010646 56.46875 39.41552734 C52.04197213 37.9015578 52.04197213 37.9015578 50.46484375 35.38818359 C50.13671875 32.56787109 50.13671875 32.56787109 50.21484375 29.26318359 C50.2303125 28.18810547 50.24578125 27.11302734 50.26171875 26.00537109 C50.49859173 21.78720995 50.99829189 17.58715032 51.46484375 13.38818359 C35.62484375 13.38818359 19.78484375 13.38818359 3.46484375 13.38818359 C3.79484375 16.02818359 4.12484375 18.66818359 4.46484375 21.38818359 C4.64304301 23.80151072 4.77057993 26.21927779 4.83984375 28.63818359 C4.88882813 29.81896484 4.9378125 30.99974609 4.98828125 32.21630859 C4.46484375 35.38818359 4.46484375 35.38818359 2.3671875 37.69677734 C-0.88701579 39.59323767 -3.67188363 40.39225256 -7.34765625 41.20068359 C-18.8039845 43.96114165 -29.68230009 48.59699295 -39.32421875 55.41943359 C-42.60533868 56.85709745 -44.14720376 56.56641954 -47.53515625 55.38818359 C-50.09939904 53.26521194 -52.23710291 50.84042745 -54.41015625 48.32568359 C-55.29960937 47.33084961 -55.29960937 47.33084961 -56.20703125 46.31591797 C-57.66274879 44.68410557 -59.10442418 43.04189103 -60.53515625 41.38818359 C-63.44059497 42.70195276 -65.50176684 44.10874851 -67.74316406 46.36914062 C-68.3434845 46.96961212 -68.94380493 47.57008362 -69.56231689 48.18875122 C-70.19788513 48.83464203 -70.83345337 49.48053284 -71.48828125 50.14599609 C-72.14850281 50.80904755 -72.80872437 51.472099 -73.48895264 52.15524292 C-75.59243449 54.26990191 -77.68884767 56.39141572 -79.78515625 58.51318359 C-81.21177886 59.94983916 -82.63885697 61.38604257 -84.06640625 62.82177734 C-87.56129286 66.33869164 -91.04985687 69.86176906 -94.53515625 73.38818359 C-90.63422815 77.31546931 -86.60889511 80.99651898 -82.42578125 84.61865234 C-79.81973967 87.05777803 -79.56847303 88.0102892 -79.25 91.62255859 C-79.58098738 95.99340563 -80.72702636 97.98552425 -83.09765625 101.63818359 C-88.69377954 110.71199622 -92.2109724 120.71912421 -95.29443359 130.89355469 C-95.54273926 131.70002441 -95.79104492 132.50649414 -96.046875 133.33740234 C-96.36918091 134.43121216 -96.36918091 134.43121216 -96.69799805 135.54711914 C-97.53515625 137.38818359 -97.53515625 137.38818359 -100.53515625 139.38818359 C-107.79515625 139.05818359 -115.05515625 138.72818359 -122.53515625 138.38818359 C-122.53515625 154.22818359 -122.53515625 170.06818359 -122.53515625 186.38818359 C-116.26515625 186.38818359 -109.99515625 186.38818359 -103.53515625 186.38818359 C-103.53515625 190.34818359 -103.53515625 194.30818359 -103.53515625 198.38818359 C-109.85124609 199.17610627 -116.0466411 199.59803523 -122.41015625 199.63818359 C-123.67085937 199.66912109 -123.67085937 199.66912109 -124.95703125 199.70068359 C-125.76398438 199.70583984 -126.5709375 199.71099609 -127.40234375 199.71630859 C-128.12534668 199.7256543 -128.84834961 199.735 -129.59326172 199.74462891 C-132.22701584 199.261189 -132.9359499 198.5382934 -134.53515625 196.38818359 C-134.91610718 193.46606445 -134.91610718 193.46606445 -134.92333984 189.85302734 C-134.9285968 189.19416534 -134.93385376 188.53530334 -134.93927002 187.85647583 C-134.95247037 185.67930369 -134.94373251 183.50286313 -134.93359375 181.32568359 C-134.93561449 179.81257995 -134.93852593 178.29947726 -134.94229126 176.78637695 C-134.94671463 173.61546556 -134.94028336 170.44480771 -134.92626953 167.27392578 C-134.90917735 163.20822468 -134.9190185 159.14311766 -134.93698692 155.07743835 C-134.94782457 151.95303873 -134.94437857 148.82878008 -134.93660355 145.70437622 C-134.93460147 144.20525034 -134.9370611 142.70611169 -134.94404221 141.20700073 C-134.95165671 139.11210193 -134.94005414 137.01816681 -134.92333984 134.92333984 C-134.92095306 133.7310376 -134.91856628 132.53873535 -134.91610718 131.31030273 C-134.53515625 128.38818359 -134.53515625 128.38818359 -133.18276978 126.50024414 C-130.65685887 124.79537475 -128.54516899 125.06582752 -125.53515625 125.13818359 C-124.38660156 125.16396484 -123.23804687 125.18974609 -122.0546875 125.21630859 C-117.19635146 125.45356363 -112.36862047 125.84575074 -107.53515625 126.38818359 C-107.29732422 125.40591797 -107.29732422 125.40591797 -107.0546875 124.40380859 C-104.18625762 113.18365192 -99.38384936 102.86961381 -94.53515625 92.38818359 C-95.43878906 91.55673828 -96.34242188 90.72529297 -97.2734375 89.86865234 C-98.46487441 88.77102937 -99.65627896 87.67337128 -100.84765625 86.57568359 C-101.44255859 86.02847656 -102.03746094 85.48126953 -102.65039062 84.91748047 C-103.22724609 84.38574219 -103.80410156 83.85400391 -104.3984375 83.30615234 C-104.92735596 82.81912842 -105.45627441 82.33210449 -106.0012207 81.83032227 C-106.50741943 81.3544165 -107.01361816 80.87851074 -107.53515625 80.38818359 C-108.09485107 79.97737549 -108.6545459 79.56656738 -109.23120117 79.14331055 C-111.356087 76.28320865 -110.85122034 73.84687821 -110.53515625 70.38818359 C-108.83592224 67.80006409 -108.83592224 67.80006409 -106.42358398 65.37084961 C-105.52522324 64.45042374 -104.62686249 63.52999786 -103.70127869 62.5816803 C-102.70798772 61.60091943 -101.7137887 60.62107749 -100.71875 59.64208984 C-99.7031623 58.62178311 -98.68861534 57.60043947 -97.67506409 56.57810974 C-95.55001921 54.44276168 -93.41287408 52.32054339 -91.26635742 50.20678711 C-88.52072516 47.50103952 -85.80772785 44.76506928 -83.10304165 42.01846409 C-81.01464424 39.90472771 -78.90980448 37.80800228 -76.79966927 35.71598625 C-75.79264948 34.71362404 -74.79077057 33.70606872 -73.7942791 32.69323921 C-72.3973293 31.27844214 -70.97534338 29.88849933 -69.55249023 28.49975586 C-68.75084946 27.70368423 -67.94920868 26.90761261 -67.12327576 26.0874176 C-63.7368388 23.86404699 -61.50972592 23.97104403 -57.53515625 24.38818359 C-55.34765625 25.85693359 -55.34765625 25.85693359 -53.53515625 27.88818359 C-52.93703125 28.53787109 -52.33890625 29.18755859 -51.72265625 29.85693359 C-50.63984375 31.10990234 -50.63984375 31.10990234 -49.53515625 32.38818359 C-48.28570251 33.81574521 -47.0356654 35.24279639 -45.78515625 36.66943359 C-44.70164941 37.90886527 -43.61825764 39.14839759 -42.53515625 40.38818359 C-41.99213867 40.13649414 -41.44912109 39.88480469 -40.88964844 39.62548828 C-30.90686413 35.01642451 -21.08176449 30.55240317 -10.53515625 27.38818359 C-10.52057373 26.67686279 -10.50599121 25.96554199 -10.4909668 25.23266602 C-10.41654619 22.01312028 -10.31986625 18.79461841 -10.22265625 15.57568359 C-10.20009766 14.45613281 -10.17753906 13.33658203 -10.15429688 12.18310547 C-10.10112305 10.57338867 -10.10112305 10.57338867 -10.046875 8.93115234 C-10.02069092 7.94139404 -9.99450684 6.95163574 -9.9675293 5.93188477 C-8.97018548 0.06439451 -5.34483635 0.01069942 0 0 Z " fill="#FEFBFC" transform="translate(243.53515625,76.61181640625)"></path><path d="M0 0 C13.53424931 9.47586214 23.42602714 23.04059688 28 39 C31.19970645 59.1271857 29.03887351 78.97537708 16.89453125 95.94140625 C5.15216777 110.79620342 -9.26597905 119.71779246 -28 123 C-46.85945029 124.40208177 -63.42049525 121.74644348 -78.7578125 109.86328125 C-81.2733054 107.65934023 -83.64967307 105.37859546 -86 103 C-86.70898438 102.31292969 -87.41796875 101.62585938 -88.1484375 100.91796875 C-101.14743802 87.49562914 -105.48659175 69.73853019 -105.20703125 51.60546875 C-104.69522215 36.29201479 -98.12652924 22.36200994 -88 11 C-87.41863281 10.32582031 -86.83726562 9.65164062 -86.23828125 8.95703125 C-63.99473924 -15.1517973 -26.70907534 -17.69829803 0 0 Z M-80 21 C-90.16310204 34.29170515 -93.02522155 47.60784649 -92 64 C-89.92405346 79.28811475 -81.30311922 91.06968895 -69.6875 100.8125 C-57.14860675 110.13403224 -43.04096205 111.09829548 -28 110 C-14.0991807 107.53281605 -1.60188983 99.68558414 6.58984375 88.1953125 C13.20977159 77.88949686 16.58529019 67.43905752 16.5 55.1875 C16.49141968 53.74455566 16.49141968 53.74455566 16.48266602 52.27246094 C16.10448985 37.14032093 9.00941415 25.16474888 -1.84375 14.8125 C-25.86800374 -5.38180024 -59.14450976 -1.29259125 -80 21 Z " fill="#FEFAFB" transform="translate(309,183)"></path><path d="M0 0 C7 6 7 6 9 10 C-32.25 51.25 -73.5 92.5 -116 135 C-120 133 -120 133 -126 126 C-84.42 84.42 -42.84 42.84 0 0 Z " fill="#FDFAFB" transform="translate(203,298)"></path><path d="M0 0 C1.13199353 0.9080162 2.25532363 1.82683826 3.375 2.75 C4.00148438 3.26046875 4.62796875 3.7709375 5.2734375 4.296875 C7.08312318 6.08199481 8.00117455 7.67949644 9 10 C4.82521153 14.26176323 0.6672103 18.50187047 -3.875 22.375 C-7.24557743 25.262148 -10.38503864 28.34246998 -13.5 31.5 C-17.16846859 35.21846476 -20.93149223 38.7366819 -24.90625 42.125 C-27.53985556 44.48345274 -30.01826218 46.9844568 -32.5 49.5 C-35.55337951 52.59491502 -38.62323685 55.61934277 -41.9375 58.4375 C-45.47682224 61.45355489 -48.73469419 64.69468811 -52 68 C-58.01317555 74.07988422 -64.25583979 79.73112484 -71 85 C-73.64 82.36 -76.28 79.72 -79 77 C-75.27132416 69.54264831 -68.42975959 64.31234387 -62.1640625 58.9453125 C-59.51024922 56.55975472 -57.00499984 54.03923284 -54.5 51.5 C-50.83153141 47.78153524 -47.06850777 44.2633181 -43.09375 40.875 C-40.46014444 38.51654726 -37.98173782 36.0155432 -35.5 33.5 C-32.44662049 30.40508498 -29.37676315 27.38065723 -26.0625 24.5625 C-21.96282678 21.06893863 -18.2256914 17.25363041 -14.4440918 13.42456055 C-10.93462349 9.88821264 -7.3250482 6.52883835 -3.5234375 3.3046875 C-2.30041699 2.25728019 -1.13860468 1.13860468 0 0 Z " fill="#FEFAFC" transform="translate(228,340)"></path><path d="M0 0 C3.85829052 1.33044501 6.42259618 3.90711541 9 7 C8.80939995 9.59113039 8.26484653 10.72231652 6.46875 12.60546875 C5.8190625 13.12753906 5.169375 13.64960938 4.5 14.1875 C1.33529523 16.82663773 -1.61343479 19.55830942 -4.5 22.5 C-7.22829407 25.26560408 -9.98516834 27.91287031 -12.9375 30.4375 C-17.02918541 33.94349685 -20.76966883 37.75461891 -24.5546875 41.5859375 C-27.29123479 44.28751294 -30.14979366 46.79078735 -33.0703125 49.2890625 C-35.84245001 51.7469496 -38.40550689 54.39623604 -41.00390625 57.03515625 C-43.53648781 59.52808878 -46.21146819 61.82030136 -48.91796875 64.12109375 C-52.11983231 67.01058037 -55.01263872 70.19367687 -57.921875 73.375 C-60 75 -60 75 -62.03125 74.97265625 C-64.42631232 73.78938141 -65.91670861 72.3765582 -67.75 70.4375 C-68.36359375 69.79683594 -68.9771875 69.15617187 -69.609375 68.49609375 C-70.06828125 68.00238281 -70.5271875 67.50867188 -71 67 C-70.30519531 66.30648437 -69.61039062 65.61296875 -68.89453125 64.8984375 C-66.90582005 62.91042581 -64.92538864 60.91453723 -62.94921875 58.9140625 C-57.73736916 53.65145844 -52.54140089 48.46791168 -46.890625 43.671875 C-43.85623513 40.98857156 -41.06233063 38.07003379 -38.21875 35.1875 C-35.59228878 32.59803119 -32.83023542 30.21163036 -30.03125 27.8125 C-27.76361428 25.7890712 -25.6342305 23.66346653 -23.5 21.5 C-20.1465881 18.10065095 -16.68124343 14.93817209 -13.0546875 11.8359375 C-9.85258182 8.97474041 -6.87624223 5.89718278 -3.8828125 2.8203125 C-2 1 -2 1 0 0 Z " fill="#FEFAFB" transform="translate(152,290)"></path></svg>