<svg version="1.1" xmlns="http://www.w3.org/2000/svg" width="16px" height="16px" fill="currentColor" viewBox="0 0 512 512"><path d="M0 0 C168.96 0 337.92 0 512 0 C512 168.96 512 337.92 512 512 C343.04 512 174.08 512 0 512 C0 343.04 0 174.08 0 0 Z " fill="#D72B6B" transform="translate(0,0)"></path><path d="M0 0 C1.18164734 0.02491957 2.36329468 0.04983913 3.58074951 0.07551384 C6.03832595 0.05744305 8.49586144 0.03270105 10.95330811 0.00164604 C16.08708168 -0.03662679 21.2116176 0.00799616 26.34442139 0.11189079 C32.89506054 0.23747289 39.42286387 0.15154854 45.97232056 0.00252438 C51.04263714 -0.08855245 56.10760614 -0.06466301 61.17822266 -0.00728226 C63.58938373 0.00611591 66.0010315 -0.01580523 68.41149902 -0.07516479 C83.61345492 -0.37364674 83.61345492 -0.37364674 90.20574951 3.16535759 C96.15052422 9.15057671 99.62937711 16.74269784 102.96861839 24.39023495 C104.5183248 27.86652397 106.34934908 31.03386534 108.32684326 34.28254509 C109.43291839 36.20146653 110.53840321 38.12072837 111.64324951 40.04035759 C112.89714395 42.21614565 114.15105057 44.39192668 115.40496826 46.56770134 C116.34155273 48.19361198 116.34155273 48.19361198 117.29705811 49.85236931 C119.87625083 54.32917224 122.45678801 58.80519324 125.04095459 63.27912712 C126.30522313 65.47366388 127.56428665 67.67120849 128.81781006 69.87190056 C131.68446579 74.89056091 134.60047921 79.83401446 137.76824951 84.66926384 C138.30868896 85.51883659 138.84912842 86.36840935 139.40594482 87.24372673 C140.40344423 88.80235884 141.43212849 90.34168601 142.4977417 91.85456657 C143.86330253 94.02311564 144.73358639 95.64351859 145.20574951 98.16535759 C144.20090795 101.9090969 142.27300627 104.91323212 140.20574951 108.16535759 C139.206097 109.91071996 138.2100725 111.65816469 137.21746826 113.40754509 C136.1121052 115.28674585 135.00389297 117.16427281 133.89324951 119.04035759 C128.62401807 128.00612515 123.41647278 137.004678 118.26824951 146.04035759 C112.26931109 156.56546196 106.23547551 167.06951774 100.16497803 177.55354118 C99.58675293 178.55337029 99.00852783 179.55319939 98.41278076 180.58332634 C97.91238281 181.44723991 97.41198486 182.31115349 96.89642334 183.20124626 C94.63255844 187.17028362 92.42478922 191.17108612 90.20574951 195.16535759 C71.06574951 195.16535759 51.92574951 195.16535759 32.20574951 195.16535759 C32.20574951 190.87535759 32.20574951 186.58535759 32.20574951 182.16535759 C34.37560425 182.3005883 34.37560425 182.3005883 36.58929443 182.43855095 C61.81001257 184.97367901 61.81001257 184.97367901 85.62420654 179.24738884 C90.42035747 174.19816701 92.27236307 168.0107975 94.14276123 161.4202404 C95.92752552 155.95527084 98.99343265 151.33232574 102.01824951 146.47785759 C103.18497051 144.49863986 104.34501148 142.51547084 105.49871826 140.52863884 C106.09345947 139.50979607 106.68820068 138.49095329 107.30096436 137.4412365 C110.4770198 131.97900733 113.62805978 126.50256031 116.76834106 121.01969719 C117.4671251 119.8000317 118.16666853 118.58080093 118.86703491 117.36204338 C120.45641092 114.59524863 122.03328987 111.82286958 123.58807373 109.03645134 C124.57877654 107.2781258 125.59988891 105.53599538 126.67108154 103.82551384 C128.07010425 101.60712723 128.07010425 101.60712723 129.20574951 98.16535759 C128.2787552 95.23098711 127.50167727 93.632592 125.83074951 91.16535759 C124.96029981 89.75690989 124.09055313 88.34802755 123.22137451 86.93879509 C122.73604248 86.17663689 122.25071045 85.41447868 121.75067139 84.62922478 C118.90410585 80.08947455 116.26355591 75.42803331 113.58074951 70.79035759 C112.37723996 68.72992555 111.17279268 66.67004099 109.96746826 64.61067009 C106.08959586 57.97364012 102.23671888 51.32235978 98.39324951 44.66535759 C97.807854 43.65296013 97.2224585 42.64056267 96.61932373 41.5974865 C93.20180245 35.67346429 89.82598112 29.72766668 86.47650146 23.76496696 C85.85743801 22.66363426 85.85743801 22.66363426 85.22586823 21.54005241 C84.2189361 19.74861442 83.21231088 17.95700393 82.20574951 16.16535759 C69.98598512 15.48985341 57.77072364 14.9765288 45.53601933 14.6628046 C39.8518741 14.51209965 34.18058183 14.30845579 28.50384521 13.97761345 C4.31527716 11.31307533 4.31527716 11.31307533 -17.48150635 18.9401989 C-23.50107886 25.37809843 -26.67110531 33.43243552 -29.4967804 41.64851189 C-31.34630537 46.66172491 -34.02119335 50.95420322 -36.91925049 55.41535759 C-37.87616967 56.99300687 -38.82861221 58.5733882 -39.77471924 60.15754509 C-40.4986084 61.35782341 -40.4986084 61.35782341 -41.23712158 62.58234978 C-48.88565457 75.26994447 -56.51601047 87.96845286 -64.04425049 100.72785759 C-64.56011719 101.60216423 -65.07598389 102.47647087 -65.60748291 103.37727165 C-66.14349121 104.28573845 -66.67949951 105.19420525 -67.23175049 106.13020134 C-71.49489443 113.35481253 -75.76565846 120.57488483 -80.04425049 127.79035759 C-80.44463531 128.46558464 -80.84502014 129.14081169 -81.25753784 129.83650017 C-87.88645416 141.00920186 -94.59392933 152.13257333 -101.36358643 163.22053337 C-104.58168011 168.49634283 -107.77063744 173.77543868 -110.79425049 179.16535759 C-109.27831299 178.54660759 -109.27831299 178.54660759 -107.73175049 177.91535759 C-103.56606814 176.35977064 -99.32687657 175.10298965 -95.04425049 173.91535759 C-94.39448242 173.72812126 -93.74471436 173.54088493 -93.07525635 173.34797478 C-89.34496865 172.34012745 -87.65885476 172.19920652 -83.79425049 173.16535759 C-83.13425049 176.79535759 -82.47425049 180.42535759 -81.79425049 184.16535759 C-90.19864039 187.40551812 -98.60320095 189.75474833 -107.35675049 191.85285759 C-109.85853851 192.45892813 -112.35986702 193.06689967 -114.86065674 193.67707634 C-115.95321777 193.93964226 -117.04577881 194.20220818 -118.17144775 194.47273064 C-120.7501883 195.0583181 -120.7501883 195.0583181 -122.79425049 196.16535759 C-124.79385061 196.20534959 -126.79472291 196.20882558 -128.79425049 196.16535759 C-128.98011719 195.43647331 -129.16598389 194.70758904 -129.35748291 193.95661736 C-134.07363862 175.40668123 -134.07363862 175.40668123 -139.37115479 157.01716423 C-140.79425049 152.35059372 -140.79425049 152.35059372 -140.79425049 150.16535759 C-139.38028147 149.65777897 -137.9629332 149.15960834 -136.54425049 148.66535759 C-135.36089111 148.24770134 -135.36089111 148.24770134 -134.15362549 147.82160759 C-131.79425049 147.16535759 -131.79425049 147.16535759 -127.79425049 147.16535759 C-125.81425049 154.75535759 -123.83425049 162.34535759 -121.79425049 170.16535759 C-116.73272634 162.57704476 -116.73272634 162.57704476 -112.01690674 154.82160759 C-111.689077 154.25901237 -111.36124725 153.69641716 -111.02348328 153.11677361 C-110.32629812 151.9200117 -109.63027495 150.72257219 -108.93536377 149.52448845 C-107.06277233 146.29683255 -105.18047478 143.07484791 -103.29815674 139.85285759 C-102.91732941 139.20071281 -102.53650208 138.54856804 -102.14413452 137.8766613 C-98.57684303 131.77644324 -94.94350879 125.71686433 -91.29425049 119.66535759 C-85.8310977 110.59976507 -80.44819801 101.49041794 -75.10675049 92.35285759 C-69.96237122 83.55356202 -64.79021269 74.77345373 -59.52740479 66.04426384 C-56.44006605 60.91929192 -53.37530932 55.78146807 -50.32550049 50.63410759 C-49.72292923 49.61743759 -49.72292923 49.61743759 -49.10818481 48.58022881 C-47.49875476 45.86430812 -45.88942192 43.14833511 -44.28308105 40.43058586 C-43.73197662 39.49818581 -43.73197662 39.49818581 -43.16973877 38.54694939 C-42.81972935 37.95251061 -42.46971992 37.35807184 -42.10910416 36.74561977 C-41.33767774 35.45028192 -40.55554941 34.16121314 -39.75933075 32.88096523 C-37.25866043 28.82352656 -35.10728518 24.74480833 -33.12564087 20.40846062 C-25.18110557 4.02504094 -18.06047029 -0.29003455 0 0 Z " fill="#FEFBFC" transform="translate(287.79425048828125,118.83464241027832)"></path><path d="M0 0 C4.64367468 15.12276356 8.98421947 30.46141718 12 46 C10.77773359 46.53682668 9.54671915 47.05375532 8.3125 47.5625 C7.62800781 47.85253906 6.94351562 48.14257812 6.23828125 48.44140625 C3.52363605 49.11888315 1.67806455 48.70820971 -1 48 C-1.84179395 45.27318889 -2.67363069 42.54398557 -3.5 39.8125 C-3.73847656 39.04357422 -3.97695313 38.27464844 -4.22265625 37.48242188 C-5.40213617 33.55643872 -6.3326262 30.14951179 -6 26 C-6.66 26 -7.32 26 -8 26 C-8.28053223 26.73089844 -8.56106445 27.46179688 -8.85009766 28.21484375 C-9.90513101 30.77021965 -11.07489502 33.13797119 -12.3984375 35.5625 C-12.8713623 36.43044189 -13.34428711 37.29838379 -13.83154297 38.19262695 C-14.34088379 39.11906006 -14.85022461 40.04549316 -15.375 41 C-15.90883301 41.97477295 -16.44266602 42.9495459 -16.99267578 43.95385742 C-21.03738019 51.31256017 -25.17528048 58.61474821 -29.35913086 65.89501953 C-33.2653989 72.69582398 -37.11198197 79.52847654 -40.9375 86.375 C-47.05526613 97.32147653 -53.21346793 108.2444508 -59.39111328 119.15722656 C-62.09622269 123.93693733 -64.79796913 128.71854843 -67.5 133.5 C-70.73664396 139.22749056 -73.97392146 144.95461651 -77.21484375 150.6796875 C-82.96997226 160.84898401 -88.70400493 171.02969148 -94.41015625 181.2265625 C-95.04828247 182.36649658 -95.68640869 183.50643066 -96.34387207 184.6809082 C-97.89610035 187.45383497 -99.44814025 190.22686698 -101 193 C-115.46413841 193.30416805 -129.92777873 193.53229 -144.39446259 193.67355824 C-151.11237204 193.74049538 -157.82829078 193.83167664 -164.54492188 193.98071289 C-171.02902781 194.12212079 -177.51106834 194.19972376 -183.99659729 194.23340416 C-186.46880115 194.25739929 -188.94089356 194.30426165 -191.41221619 194.37449074 C-210.26694189 194.88891529 -210.26694189 194.88891529 -214.78487968 191.76640511 C-217.99803116 188.33189161 -219.42532227 184.40158287 -221 180 C-222.21378151 177.81854031 -223.46095159 175.65501719 -224.75390625 173.51953125 C-226.02545846 171.28500298 -227.29492382 169.04928614 -228.5625 166.8125 C-229.96765477 164.34182403 -231.37451273 161.87211894 -232.78125 159.40234375 C-233.13417618 158.78224426 -233.48710236 158.16214478 -233.85072327 157.52325439 C-237.39784206 151.29361652 -240.97725441 145.08276443 -244.5625 138.875 C-245.46875122 137.30335083 -245.46875122 137.30335083 -246.39331055 135.69995117 C-249.30678569 130.65005666 -252.22768792 125.60471507 -255.16716003 120.56991577 C-256.56846941 118.16854378 -257.96615285 115.76507136 -259.36349487 113.36138916 C-260.35277224 111.66315705 -261.34734749 109.96801465 -262.34204102 108.27294922 C-262.93815186 107.2470166 -263.5342627 106.22108398 -264.1484375 105.1640625 C-264.67614746 104.26123535 -265.20385742 103.3584082 -265.74755859 102.42822266 C-267.81092144 98.42779248 -267.81092144 98.42779248 -268 96 C-266.97460938 93.57177734 -266.97460938 93.57177734 -265.34375 90.8359375 C-264.74103271 89.80968262 -264.13831543 88.78342773 -263.51733398 87.72607422 C-262.85161377 86.62021973 -262.18589355 85.51436523 -261.5 84.375 C-260.81128051 83.21056662 -260.12388216 82.0453509 -259.43774414 80.87939453 C-258.00930081 78.4543123 -256.57519734 76.03271357 -255.13720703 73.61328125 C-251.84749681 68.06654521 -248.64829923 62.46763618 -245.4375 56.875 C-240.04919635 47.52566007 -234.62906176 38.19524281 -229.18139648 28.88037109 C-228.40324585 27.5493335 -228.40324585 27.5493335 -227.609375 26.19140625 C-227.04001221 25.26835693 -226.47064941 24.34530762 -225.8840332 23.39428711 C-224.34874319 20.62829811 -223.16355488 18.00999222 -221.98120117 15.09204102 C-216.41655991 2.34709528 -216.41655991 2.34709528 -210.50238037 0.01522827 C-203.29475627 -1.37446775 -196.08117261 -0.73279936 -188.8125 -0.1875 C-186.5986704 -0.09207771 -184.38444533 -0.0054054 -182.16992188 0.07226562 C-176.77010803 0.28062662 -171.38942934 0.60748097 -166 1 C-166 5.29 -166 9.58 -166 14 C-179.2 14 -192.4 14 -206 14 C-206.66 15.98 -207.32 17.96 -208 20 C-209.34808217 22.46344279 -210.72817722 24.85498177 -212.1875 27.25 C-213.09498405 28.76618915 -214.00114806 30.28316888 -214.90625 31.80078125 C-215.40125 32.62916504 -215.89625 33.45754883 -216.40625 34.31103516 C-219.37902273 39.32667836 -222.27941347 44.38417174 -225.1875 49.4375 C-226.46874365 51.66146199 -227.74999375 53.88542026 -229.03125 56.109375 C-229.67964844 57.23537109 -230.32804687 58.36136719 -230.99609375 59.52148438 C-233.04746236 63.08319577 -235.10156839 66.64332403 -237.15625 70.203125 C-237.49586258 70.79154678 -237.83547516 71.37996857 -238.18537903 71.98622131 C-239.81580862 74.81109084 -241.44633508 77.63590443 -243.0769043 80.46069336 C-244.22244383 82.44592832 -245.36426133 84.43331803 -246.50146484 86.42333984 C-247.42047402 88.00353255 -248.36358369 89.57036614 -249.34619141 91.11181641 C-251.51618782 94.49376458 -251.51618782 94.49376458 -251.75683594 98.39501953 C-250.9513501 101.16744982 -249.88386049 103.27857085 -248.40234375 105.75390625 C-247.85650635 106.67606934 -247.31066895 107.59823242 -246.74829102 108.54833984 C-246.15072998 109.5430127 -245.55316895 110.53768555 -244.9375 111.5625 C-243.6523941 113.73233205 -242.3685913 115.90293628 -241.0859375 118.07421875 C-240.07805176 119.77650635 -240.07805176 119.77650635 -239.04980469 121.51318359 C-235.65817939 127.26436676 -232.36414956 133.07188917 -229.0625 138.875 C-224.95324655 146.09431969 -220.83194949 153.30549475 -216.65234375 160.484375 C-215.94846171 161.69546096 -215.24460389 162.90656098 -214.54077148 164.11767578 C-213.20502719 166.41568701 -211.86388658 168.71025921 -210.51977539 171.00341797 C-209.92543701 172.02580566 -209.33109863 173.04819336 -208.71875 174.1015625 C-208.19216797 175.00213379 -207.66558594 175.90270508 -207.12304688 176.83056641 C-206 179 -206 179 -206 181 C-173.99 181 -141.98 181 -109 181 C-108.34 179.35 -107.68 177.7 -107 176 C-106.15252438 174.32052469 -105.27838239 172.65432973 -104.3828125 171 C-103.86468994 170.0416626 -103.34656738 169.0833252 -102.81274414 168.09594727 C-102.25578857 167.07428467 -101.69883301 166.05262207 -101.125 165 C-100.25379517 163.39692993 -100.25379517 163.39692993 -99.36499023 161.76147461 C-95.19724912 154.12240738 -90.92976062 146.54585697 -86.59008789 139.00341797 C-82.6980486 132.23791191 -78.86921098 125.43885556 -75.0625 118.625 C-67.88402427 105.78039554 -60.64498976 92.97063925 -53.39550781 80.16601562 C-45.9821109 67.06976552 -38.60509313 53.9537719 -31.2578125 40.8203125 C-27.18444578 33.53979589 -23.09465731 26.26855835 -19 19 C-24.33444368 19.83077402 -29.59683861 20.93771109 -34.875 22.0625 C-35.75414062 22.24876953 -36.63328125 22.43503906 -37.5390625 22.62695312 C-39.69295534 23.08348476 -41.84659009 23.54119679 -44 24 C-44.50757862 22.58603098 -45.00574925 21.16868271 -45.5 19.75 C-45.91765625 18.56664062 -45.91765625 18.56664062 -46.34375 17.359375 C-47 15 -47 15 -47 11 C-46.21987549 10.80889648 -45.43975098 10.61779297 -44.63598633 10.42089844 C-41.02718715 9.53449864 -37.41985023 8.64227744 -33.8125 7.75 C-32.58595703 7.44964844 -31.35941406 7.14929688 -30.09570312 6.83984375 C-22.93260951 5.06324533 -15.90554635 3.0961558 -8.90893555 0.74316406 C-5.82854625 -0.04380237 -3.1658739 -0.13292847 0 0 Z " fill="#FEFBFC" transform="translate(345,197)"></path></svg>