<svg version="1.1" xmlns="http://www.w3.org/2000/svg" width="16px" height="16px" fill="currentColor" viewBox="0 0 512 512"><path d="M0 0 C168.96 0 337.92 0 512 0 C512 168.96 512 337.92 512 512 C343.04 512 174.08 512 0 512 C0 343.04 0 174.08 0 0 Z " fill="#3F52D5" transform="translate(0,0)"></path><path d="M0 0 C9.67279388 7.0624447 13.77773425 14.7400385 16.35546875 26.33984375 C37.80546875 26.33984375 59.25546875 26.33984375 81.35546875 26.33984375 C81.68546875 24.02984375 82.01546875 21.71984375 82.35546875 19.33984375 C86.49335956 8.71433127 94.17819009 1.24001496 104.35546875 -3.66015625 C109.38352723 -5.35246755 114.01477968 -6.01626198 119.29296875 -5.97265625 C120.35064453 -5.96528442 120.35064453 -5.96528442 121.4296875 -5.95776367 C132.84504042 -5.7001255 141.74350752 0.0223898 149.52734375 8.08203125 C157.31161536 17.69593935 158.39449948 28.42921079 157.35546875 40.33984375 C156.52039932 44.03800838 155.22806821 47.05550263 153.35546875 50.33984375 C152.93136719 51.11714844 152.50726563 51.89445312 152.0703125 52.6953125 C145.92937747 62.90739666 136.71035148 68.26286114 125.35546875 71.33984375 C116.23617793 72.77973177 106.61535954 70.51622025 98.7421875 65.76171875 C96.46973942 64.06597598 94.40486935 62.29779037 92.35546875 60.33984375 C91.79214844 59.80488281 91.22882813 59.26992187 90.6484375 58.71875 C85.89756459 53.70327151 81.35546875 46.36719272 81.35546875 39.33984375 C59.57546875 39.33984375 37.79546875 39.33984375 15.35546875 39.33984375 C15.35546875 41.31984375 15.35546875 43.29984375 15.35546875 45.33984375 C11.25025968 55.91113305 4.43245241 63.07071361 -5.60864258 68.18164062 C-14.59773781 72.13268599 -25.97571773 72.25623654 -35.2265625 69.12890625 C-38.14453125 67.71484375 -38.14453125 67.71484375 -40.55078125 66.23828125 C-42.60249078 65.06953724 -42.60249078 65.06953724 -44.54838943 66.07172203 C-46.78926517 67.42740473 -48.4282666 68.87746921 -50.27655029 70.73135376 C-50.98042374 71.43247787 -51.68429718 72.13360199 -52.40950012 72.85597229 C-53.17123032 73.62489304 -53.93296051 74.39381378 -54.71777344 75.18603516 C-55.5279039 75.99587357 -56.33803436 76.80571198 -57.17271423 77.64009094 C-59.8503791 80.31914959 -62.52088941 83.00522386 -65.19140625 85.69140625 C-67.0461337 87.54986365 -68.90130309 89.4078801 -70.75689697 91.26547241 C-75.14174086 95.65652936 -79.52146208 100.05265907 -83.8993628 104.45063722 C-88.88452405 109.45816285 -93.87537398 114.46000219 -98.86670828 119.46137357 C-109.13232097 129.74788432 -119.39077673 140.04151272 -129.64453125 150.33984375 C-128.33298215 154.37846035 -128.33298215 154.37846035 -126.79296875 158.33203125 C-123.07887458 167.37341201 -123.23875169 178.48733809 -126.58203125 187.58984375 C-127.26822407 189.17374403 -127.95556121 190.75714953 -128.64453125 192.33984375 C-129.48887904 194.23453281 -129.48887904 194.23453281 -129.64453125 196.33984375 C-128.45165485 198.2758028 -128.45165485 198.2758028 -126.53785706 200.04779053 C-125.46711441 201.12884315 -125.46711441 201.12884315 -124.3747406 202.23173523 C-123.57633255 203.0121669 -122.7779245 203.79259857 -121.95532227 204.59667969 C-121.12641479 205.42631729 -120.29750732 206.2559549 -119.44348145 207.11073303 C-117.16518508 209.38613815 -114.87615907 211.65005021 -112.58195233 213.90939236 C-110.18806411 216.27207195 -107.80828247 218.64887233 -105.42698669 221.02423096 C-100.91427564 225.52138737 -96.38896801 230.00564468 -91.85902971 234.48544049 C-86.70301818 239.5856089 -81.56115898 244.69994393 -76.42045701 249.81553602 C-65.84418633 260.33951188 -55.25021788 270.84550668 -44.64453125 281.33984375 C-40.60591465 280.02829465 -40.60591465 280.02829465 -36.65234375 278.48828125 C-27.77427994 274.84127578 -16.68837237 274.95442867 -7.64453125 277.96484375 C1.26393497 281.79228358 6.96077259 287.35154366 12.35546875 295.33984375 C14.33546875 300.78484375 14.33546875 300.78484375 16.35546875 306.33984375 C48.53046875 306.83484375 48.53046875 306.83484375 81.35546875 307.33984375 C81.68546875 305.35984375 82.01546875 303.37984375 82.35546875 301.33984375 C87.13675537 290.06049981 94.0730911 282.64763042 105.33203125 277.66796875 C114.78475871 274.11317748 126.81847025 275.00179847 135.96875 279.0234375 C144.19039452 283.55812523 149.59718335 289.26752217 154.35546875 297.33984375 C154.71769531 297.94054687 155.07992188 298.54125 155.453125 299.16015625 C159.06449393 306.65164715 158.47811935 317.39891258 156.6640625 325.3828125 C152.51457485 336.5812206 143.93805731 345.51753927 133.21484375 350.61328125 C125.03398293 353.81000418 113.20288568 353.83932723 104.91796875 350.83984375 C95.31869241 346.15448268 87.82522235 339.10473159 83.35546875 329.33984375 C82.69546875 326.36984375 82.03546875 323.39984375 81.35546875 320.33984375 C59.90546875 320.66984375 38.45546875 320.99984375 16.35546875 321.33984375 C15.03546875 324.96984375 13.71546875 328.59984375 12.35546875 332.33984375 C6.54467599 342.46186985 -2.48021898 349.20491478 -13.64453125 352.33984375 C-24.51918903 353.91741583 -33.51812252 351.9232149 -42.95703125 346.40234375 C-51.45739387 339.87880965 -56.29806561 332.37924066 -59.64453125 322.33984375 C-60.38812683 312.57749606 -60.26407308 304.64134823 -55.640625 295.7578125 C-54.47104209 292.91870732 -54.59990351 292.16268751 -55.64453125 289.33984375 C-57.08155837 287.46186678 -57.08155837 287.46186678 -58.95375061 285.66986084 C-59.66191422 284.95757324 -60.37007782 284.24528564 -61.09970093 283.51141357 C-61.88156769 282.74033264 -62.66343445 281.96925171 -63.46899414 281.17480469 C-64.28844009 280.35492065 -65.10788605 279.53503662 -65.9521637 278.69030762 C-68.66678905 275.97777493 -71.39189172 273.27602715 -74.1171875 270.57421875 C-75.99971496 268.69728552 -77.88164598 266.81977297 -79.76280212 264.94146729 C-84.2121114 260.50148214 -88.66901267 256.06919967 -93.12868828 251.6396296 C-98.20586792 246.59598247 -103.27453125 241.54381376 -108.34249508 236.4909091 C-118.76705232 226.09770922 -129.20227132 215.71525794 -139.64453125 205.33984375 C-140.40378906 205.68917969 -141.16304687 206.03851563 -141.9453125 206.3984375 C-142.93917969 206.85347656 -143.93304688 207.30851563 -144.95703125 207.77734375 C-146.43623047 208.45603516 -146.43623047 208.45603516 -147.9453125 209.1484375 C-155.74969239 212.59320721 -166.31680411 212.68925495 -174.62109375 210.5859375 C-176.76905509 209.64482042 -178.67993203 208.61595619 -180.64453125 207.33984375 C-181.71703125 206.70046875 -182.78953125 206.06109375 -183.89453125 205.40234375 C-192.44260913 198.99128534 -199.35747604 190.21188526 -200.92822266 179.38427734 C-201.89869036 168.003835 -199.67935676 158.50643457 -192.64453125 149.33984375 C-185.83487338 141.77355723 -177.78281613 135.60508328 -167.34765625 134.87109375 C-165.86361052 134.83814059 -164.37889767 134.82826849 -162.89453125 134.83984375 C-162.11392334 134.84048828 -161.33331543 134.84113281 -160.52905273 134.84179688 C-154.36335875 134.99912706 -149.46305206 136.44439018 -143.9296875 139.24609375 C-141.61576643 140.55570789 -141.61576643 140.55570789 -138.64453125 140.33984375 C-136.86413293 139.02309806 -136.86413293 139.02309806 -135.08807373 137.18452454 C-134.37571564 136.4849614 -133.66335754 135.78539825 -132.92941284 135.06463623 C-132.15316559 134.28702942 -131.37691833 133.50942261 -130.57714844 132.70825195 C-129.75580414 131.89698349 -128.93445984 131.08571503 -128.08822632 130.24986267 C-125.36455277 127.55478145 -122.65242911 124.84842774 -119.94140625 122.140625 C-118.5353432 120.74176175 -117.12927781 119.34290078 -115.7228272 117.94442719 C-111.29946115 113.54550096 -106.8847048 109.13805689 -102.47460938 104.72583008 C-97.9217377 100.1711553 -93.35239671 95.63348251 -88.77500796 91.10345966 C-84.84836228 87.2160087 -80.93333745 83.31711122 -77.02719998 79.40905446 C-74.69285025 77.07393886 -72.35273564 74.74516939 -70.00356293 72.42495155 C-67.38607729 69.83672537 -64.78813219 67.23034413 -62.19433594 64.6184082 C-61.40999176 63.85092255 -60.62564758 63.08343689 -59.8175354 62.29269409 C-58.76591721 61.2222007 -58.76591721 61.2222007 -57.6930542 60.13008118 C-57.07658398 59.51524526 -56.46011375 58.90040934 -55.82496262 58.26694202 C-54.38061824 56.34228555 -54.38061824 56.34228555 -54.89320755 53.73063946 C-55.63400991 51.37332383 -56.5892097 49.35192809 -57.70703125 47.15234375 C-61.28417252 38.41258835 -61.2929781 26.65957334 -58.08203125 17.77734375 C-53.59340686 8.67497652 -47.34574322 2.46883292 -38.64453125 -2.66015625 C-38.04382813 -3.02238281 -37.443125 -3.38460937 -36.82421875 -3.7578125 C-25.66774291 -9.13593426 -10.01202402 -6.28524403 0 0 Z " fill="#FAFBFE" transform="translate(277.64453125,82.66015625)"></path><path d="M0 0 C6.36324174 4.62781217 10.79708599 13.31487452 12.12890625 20.90625 C13.10812395 30.7902287 10.77779871 39.40432803 4.66015625 47.3125 C-2.33053935 54.58853011 -11.43652757 57.90998725 -21.37109375 58.34375 C-30.48890833 58.02270019 -37.31954976 54.3981269 -43.890625 48.19921875 C-50.98820133 39.98170927 -52.8448647 30.44240304 -52.13183594 19.86328125 C-51.01629752 11.49047607 -45.69904031 4.66860725 -39.27734375 -0.46875 C-26.41429494 -9.15548426 -13.02339854 -7.61284257 0 0 Z " fill="#FAFBFE" transform="translate(416.87109375,230.09375)"></path><path d="M0 0 C7.33758021 4.77952472 11.62552316 11.65835962 14 20 C15.54447264 31.04366274 13.0203196 38.89264029 7 48 C1.79568601 54.31186823 -6.03653732 57.70928587 -14 59 C-24.38832049 59.96013265 -31.99010944 57.24879617 -40.14453125 50.8359375 C-46.64178044 44.40708041 -50.26420313 35.76176366 -50.375 26.6875 C-50.26383248 20.57328646 -49.17488016 16.2024516 -46 11 C-45.57589844 10.30132812 -45.15179688 9.60265625 -44.71484375 8.8828125 C-34.17648681 -6.6752075 -15.80622083 -8.79670733 0 0 Z " fill="#FAFBFE" transform="translate(274,229)"></path><path d="M0 0 C7.07233705 4.80865341 11.56243227 11.49186894 13.8125 19.71484375 C14.96323996 31.00815221 13.37905477 39.67619941 6.1875 48.52734375 C0.89832274 54.13407011 -6.44057558 58.34265559 -14.2265625 58.953125 C-21.87220882 59.11136822 -27.62912397 58.77418675 -34.1875 54.71484375 C-35.23357422 54.09609375 -35.23357422 54.09609375 -36.30078125 53.46484375 C-42.96986341 49.04390793 -46.18054011 42.91121442 -49.5625 35.83984375 C-51.33726095 26.96603898 -50.87265616 18.58189742 -46.1875 10.71484375 C-41.67749617 4.68989655 -37.07557154 -0.16602951 -30.1875 -3.28515625 C-29.300625 -3.69765625 -28.41375 -4.11015625 -27.5 -4.53515625 C-17.33169273 -6.8374145 -8.88571238 -5.22035602 0 0 Z " fill="#FAFAFE" transform="translate(133.1875,88.28515625)"></path><path d="M0 0 C8.01781361 4.80797945 13.97856032 11.26443831 16.91796875 20.234375 C18.54461875 29.10847552 18.09182979 37.66511406 13.3125 45.38671875 C12.9 46.08410156 12.4875 46.78148437 12.0625 47.5 C7.58097614 54.2604806 0.97141282 58.55525527 -6.8125 60.76171875 C-16.34060073 62.29850919 -24.91083907 61.3656714 -32.9375 55.63671875 C-41.01504068 49.01150356 -45.62428389 41.77093726 -46.9609375 31.23046875 C-47.34268148 22.42099223 -44.35931731 14.36096111 -38.875 7.44921875 C-28.87818779 -3.08726713 -13.25880875 -6.2150666 0 0 Z " fill="#FAFAFD" transform="translate(129.6875,367.61328125)"></path><path d="M0 0 C5.89884258 4.06460394 8.7689623 9.02157554 10.67578125 15.84375 C11.556517 23.2326594 11.34942119 29.56883117 7.23046875 35.91015625 C4.702319 39.0544631 1.96871861 41.52457064 -1.32421875 43.84375 C-2.62359375 44.771875 -2.62359375 44.771875 -3.94921875 45.71875 C-10.52463227 47.91055451 -18.1627464 47.88133701 -24.76171875 45.65625 C-33.31590137 41.304122 -37.07575925 35.89065428 -40.32421875 26.84375 C-41.65340243 19.90559973 -40.38276774 14.25145428 -36.94140625 8.13671875 C-27.64896159 -5.03880061 -13.84079502 -7.61153967 0 0 Z " fill="#4154D6" transform="translate(411.32421875,375.15625)"></path><path d="M0 0 C6.13390091 3.64648037 11.60311726 9.70354596 13.6875 16.5625 C14.60099621 25.82796159 13.66600572 32.75845851 8.75 40.6875 C3.57060955 46.34905593 -4.33916201 49.87224172 -11.9375 50.25 C-19.7301995 49.74470969 -25.90086956 46.41955497 -31.25 40.8125 C-35.81558572 35.07321417 -38.08216532 28.38409694 -37.78515625 21.0234375 C-36.24468472 13.0028006 -32.14517463 6.25996381 -25.4375 1.6484375 C-17.84004729 -2.23408429 -8.01004555 -3.47366332 0 0 Z " fill="#4B6CEC" transform="translate(408.3125,91.4375)"></path><path d="M0 0 C5.39049561 3.6282182 9.00426581 7.80984142 11 14 C11.8617145 20.86591873 12.53192269 28.42730772 8.9375 34.625 C4.63096238 40.12038463 -1.01649636 45.46083071 -8 47 C-15.74886382 47.80365937 -22.6041003 47.79341055 -29 43 C-34.61785388 38.3127805 -38.53556026 33.73486954 -39.46875 26.23046875 C-39.50295203 24.8832063 -39.51266516 23.53513699 -39.5 22.1875 C-39.49427979 21.48189941 -39.48855957 20.77629883 -39.48266602 20.04931641 C-39.20830074 12.01420146 -36.420655 7.04256849 -30.6875 1.625 C-21.1833159 -5.74893594 -10.28802451 -6.01453741 0 0 Z " fill="#3C48CB" transform="translate(270,375)"></path><path d="M0 0 C7.00688803 3.22167993 11.82772004 7.90541932 14.88671875 14.99609375 C17.48820383 23.17666731 16.06396248 29.63952473 12.55859375 37.37890625 C9.34423153 43.07709382 4.58560151 46.6318653 -1.62109375 48.6484375 C-8.91348359 50.10450874 -16.687108 50.37616114 -23.2109375 46.4453125 C-29.11386788 42.04730503 -33.58937314 37.54412866 -34.98828125 30.12109375 C-35.77497911 21.9106274 -35.58777131 14.51517322 -30.21875 7.9609375 C-21.75468347 -0.95627217 -12.05447658 -3.54543429 0 0 Z " fill="#3C47CB" transform="translate(124.98828125,231.87890625)"></path><path d="M0 0 C6.25454217 3.7421468 10.8406856 8.69309035 13.625 15.4375 C14.70443309 23.53324819 14.43513398 31.20201556 10.25 38.34765625 C6.42817311 43.26274612 1.53234737 46.5338317 -4.375 48.4375 C-12.17591401 49.27583352 -19.76623153 49.53992736 -26.5078125 45.0625 C-32.10139332 40.1944464 -35.95371014 34.3976247 -36.74609375 26.94921875 C-36.87948192 19.26762955 -36.91180676 13.28116593 -31.375 7.4375 C-23.11681156 -1.07504742 -11.53327789 -5.24854248 0 0 Z " fill="#455FE1" transform="translate(267.375,91.5625)"></path><path d="M0 0 C4.91751466 3.10453209 7.93891728 6.15146375 10.01953125 11.63671875 C10.96449211 18.25144476 10.57855264 22.89092103 7.33203125 28.82421875 C3.73818103 32.98551901 0.06062364 36.33261481 -5.46484375 37.328125 C-13.14190127 37.48044757 -18.03550456 36.17089194 -23.66796875 30.82421875 C-27.27573492 26.98180112 -27.98339664 23.13949153 -28.29296875 17.94921875 C-28.03185 10.76395096 -25.29822377 6.23277881 -20.1328125 1.3828125 C-14.39748673 -2.66150813 -6.27897951 -2.76716374 0 0 Z " fill="#4255D6" transform="translate(264.66796875,238.17578125)"></path><path d="M0 0 C4.82135895 2.1428262 7.72774616 4.97473305 10.69921875 9.296875 C12.63298707 15.29651517 12.67915214 21.92828859 10.01171875 27.671875 C7.61841809 31.85172404 4.66711218 34.17236447 0.51171875 36.546875 C-4.55704344 37.89854492 -9.64816449 38.39419681 -14.5859375 36.3515625 C-20.21871733 33.00348029 -24.53906174 28.7565132 -26.30078125 22.296875 C-27.00191692 16.76215249 -26.5468244 12.04674574 -23.74609375 7.16015625 C-17.68918865 -0.64834032 -9.34959118 -2.85726046 0 0 Z " fill="#383CC0" transform="translate(122.30078125,378.703125)"></path><path d="M0 0 C4.99646469 2.78648992 9.04614256 6.47684514 11.25 11.8125 C12.1686239 18.92623388 11.53083884 24.93329601 7.25 30.8125 C2.80923216 35.139402 -1.81689675 37.09554901 -8 37.3125 C-14.23733029 37.1778208 -18.30026671 35.13298792 -22.75 30.8125 C-26.45148385 26.13062313 -27.45720106 21.17163172 -27.203125 15.2734375 C-26.20255133 9.8392874 -23.15647866 6.11606558 -19.1875 2.4375 C-12.74011197 -1.86075868 -7.42354744 -2.35079002 0 0 Z " fill="#4254D6" transform="translate(122.75,97.1875)"></path><path d="M0 0 C5.09473426 3.07606597 9.40478922 7.27686765 11.3125 13 C12.09491557 19.5030278 11.16931542 24.64768472 7.3125 30 C2.51537922 35.11989689 -1.3712767 37.06532147 -8.375 37.4375 C-14.41473859 37.35720805 -18.3592944 35.11664361 -22.6875 31 C-26.63095344 26.12117216 -27.39344798 20.84094968 -27.12890625 14.6796875 C-26.12866076 8.60740075 -22.90837958 4.56429998 -18 1 C-12.07846728 -2.30712016 -6.35870691 -1.72439509 0 0 Z " fill="#4660E1" transform="translate(404.6875,238)"></path></svg>