<svg version="1.1" xmlns="http://www.w3.org/2000/svg" width="16px" height="16px" fill="currentColor" viewBox="0 0 512 512"><path d="M0 0 C168.96 0 337.92 0 512 0 C512 168.96 512 337.92 512 512 C343.04 512 174.08 512 0 512 C0 343.04 0 174.08 0 0 Z " fill="#2D8F7A" transform="translate(0,0)"></path><path d="M0 0 C1.0949881 0.00422974 1.0949881 0.00422974 2.21209717 0.00854492 C43.00929436 0.2451863 77.70746951 17.18710724 106.30078125 45.734375 C119.77731209 60.00082683 130.1997497 77.57033192 135.875 96.3125 C136.40346462 97.73414425 136.94380861 99.15147259 137.5 100.5625 C142.15380203 113.25468736 143.28413466 126.31451819 143.25 139.75 C143.25067978 140.79574188 143.25067978 140.79574188 143.25137329 141.86260986 C143.21773965 159.56199829 140.75028444 177.54950622 133.0625 193.6875 C132.55074219 194.77675781 132.03898437 195.86601562 131.51171875 196.98828125 C130.4061258 199.23376955 129.26160442 201.46044511 128.08203125 203.66796875 C127.51871094 204.72628906 126.95539063 205.78460938 126.375 206.875 C125.8490625 207.82503906 125.323125 208.77507812 124.78125 209.75390625 C123.64792336 212.20290098 123.64792336 212.20290098 124.38671875 214.34375 C126.37690859 216.97644208 128.71747511 219.08515193 131.1875 221.25 C138.52459205 227.83489855 145.44185294 234.81968062 152.36254883 241.83764648 C156.08931836 245.60018627 159.79882428 249.3176678 163.82421875 252.76171875 C169.6468006 257.75197985 174.93173509 263.31294103 180.31152344 268.76953125 C185.39510778 273.91904604 190.50056947 278.97431755 195.99853516 283.68505859 C216.69389743 301.63396374 216.69389743 301.63396374 218.32421875 313.61328125 C218.89730315 325.26599734 215.4562907 334.01270326 207.75 342.6875 C200.03418693 350.89597949 190.41138174 356.12358041 179.0625 356.6875 C170.71026508 356.4968097 163.80727599 353.11294764 157.875 347.3125 C156.89257042 346.18056838 155.91882973 345.04106961 154.95117188 343.89648438 C150.38839273 338.65547035 145.46251637 333.78750437 140.53346252 328.89579773 C138.80627324 327.18155414 137.0823868 325.46404698 135.35925293 323.74572754 C131.70066029 320.09847559 128.03813719 316.45518685 124.375 312.8125 C120.12486631 308.5860937 115.87642938 304.35800978 111.63221741 300.12565613 C109.9466171 298.44646365 108.25799859 296.77034924 106.56921387 295.09436035 C101.63324492 290.18169932 96.7984072 285.23519369 92.27182007 279.93640137 C90.49937826 277.87581336 88.62084149 275.94473949 86.69140625 274.03125 C85.99208984 273.33515625 85.29277344 272.6390625 84.57226562 271.921875 C83.86779297 271.22578125 83.16332031 270.5296875 82.4375 269.8125 C81.70595703 269.08546875 80.97441406 268.3584375 80.22070312 267.609375 C78.44110176 265.84140501 76.65919082 264.07583622 74.875 262.3125 C71.31576897 263.6557347 67.95465879 265.26664678 64.55957031 266.97802734 C56.94718296 270.7553452 49.25024717 273.69896797 41.125 276.1875 C40.20412598 276.47326904 39.28325195 276.75903809 38.33447266 277.0534668 C26.67043048 280.49689041 15.17839393 281.66730934 3.04638672 281.62817383 C1.00824402 281.62501279 -1.0284411 281.64859244 -3.06640625 281.67382812 C-12.4422429 281.7185307 -20.9988589 280.48115864 -30.125 278.3125 C-31.40785889 278.0124707 -32.69071777 277.71244141 -34.01245117 277.40332031 C-69.6893812 268.80189595 -100.59755787 245.31058168 -119.97363281 214.35961914 C-133.63512308 191.77948575 -140.53617746 166.60363305 -140.5 140.25 C-140.49945618 139.57507507 -140.49891235 138.90015015 -140.49835205 138.20477295 C-140.35912981 100.42208462 -123.67817045 65.38522763 -97.05053711 38.86938477 C-71.01142689 13.82632821 -36.01877642 -0.20077013 0 0 Z " fill="#2E907B" transform="translate(217.125,76.6875)"></path><path d="M0 0 C1.0949881 0.00422974 1.0949881 0.00422974 2.21209717 0.00854492 C43.00929436 0.2451863 77.70746951 17.18710724 106.30078125 45.734375 C119.77731209 60.00082683 130.1997497 77.57033192 135.875 96.3125 C136.40346462 97.73414425 136.94380861 99.15147259 137.5 100.5625 C142.15380203 113.25468736 143.28413466 126.31451819 143.25 139.75 C143.25067978 140.79574188 143.25067978 140.79574188 143.25137329 141.86260986 C143.21773965 159.56199829 140.75028444 177.54950622 133.0625 193.6875 C132.55074219 194.77675781 132.03898437 195.86601562 131.51171875 196.98828125 C130.4061258 199.23376955 129.26160442 201.46044511 128.08203125 203.66796875 C127.51871094 204.72628906 126.95539063 205.78460938 126.375 206.875 C125.8490625 207.82503906 125.323125 208.77507812 124.78125 209.75390625 C123.64792336 212.20290098 123.64792336 212.20290098 124.38671875 214.34375 C126.37690859 216.97644208 128.71747511 219.08515193 131.1875 221.25 C138.52459205 227.83489855 145.44185294 234.81968062 152.36254883 241.83764648 C156.08931836 245.60018627 159.79882428 249.3176678 163.82421875 252.76171875 C169.6468006 257.75197985 174.93173509 263.31294103 180.31152344 268.76953125 C185.39510778 273.91904604 190.50056947 278.97431755 195.99853516 283.68505859 C216.69389743 301.63396374 216.69389743 301.63396374 218.32421875 313.61328125 C218.89730315 325.26599734 215.4562907 334.01270326 207.75 342.6875 C200.03418693 350.89597949 190.41138174 356.12358041 179.0625 356.6875 C170.71026508 356.4968097 163.80727599 353.11294764 157.875 347.3125 C156.89257042 346.18056838 155.91882973 345.04106961 154.95117188 343.89648438 C150.38839273 338.65547035 145.46251637 333.78750437 140.53346252 328.89579773 C138.80627324 327.18155414 137.0823868 325.46404698 135.35925293 323.74572754 C131.70066029 320.09847559 128.03813719 316.45518685 124.375 312.8125 C120.12486631 308.5860937 115.87642938 304.35800978 111.63221741 300.12565613 C109.9466171 298.44646365 108.25799859 296.77034924 106.56921387 295.09436035 C101.63324492 290.18169932 96.7984072 285.23519369 92.27182007 279.93640137 C90.49937826 277.87581336 88.62084149 275.94473949 86.69140625 274.03125 C85.99208984 273.33515625 85.29277344 272.6390625 84.57226562 271.921875 C83.86779297 271.22578125 83.16332031 270.5296875 82.4375 269.8125 C81.70595703 269.08546875 80.97441406 268.3584375 80.22070312 267.609375 C78.44110176 265.84140501 76.65919082 264.07583622 74.875 262.3125 C71.31576897 263.6557347 67.95465879 265.26664678 64.55957031 266.97802734 C56.94718296 270.7553452 49.25024717 273.69896797 41.125 276.1875 C40.20412598 276.47326904 39.28325195 276.75903809 38.33447266 277.0534668 C26.67043048 280.49689041 15.17839393 281.66730934 3.04638672 281.62817383 C1.00824402 281.62501279 -1.0284411 281.64859244 -3.06640625 281.67382812 C-12.4422429 281.7185307 -20.9988589 280.48115864 -30.125 278.3125 C-31.40785889 278.0124707 -32.69071777 277.71244141 -34.01245117 277.40332031 C-69.6893812 268.80189595 -100.59755787 245.31058168 -119.97363281 214.35961914 C-133.63512308 191.77948575 -140.53617746 166.60363305 -140.5 140.25 C-140.49945618 139.57507507 -140.49891235 138.90015015 -140.49835205 138.20477295 C-140.35912981 100.42208462 -123.67817045 65.38522763 -97.05053711 38.86938477 C-71.01142689 13.82632821 -36.01877642 -0.20077013 0 0 Z M-23.125 15.3125 C-23.82866699 15.46315918 -24.53233398 15.61381836 -25.25732422 15.76904297 C-41.73440843 19.40847532 -57.35318325 25.41400671 -71.125 35.3125 C-72.135625 36.02792969 -73.14625 36.74335937 -74.1875 37.48046875 C-88.48665594 47.87591394 -99.90041552 60.25042462 -109.125 75.3125 C-109.49850586 75.91642578 -109.87201172 76.52035156 -110.25683594 77.14257812 C-126.41085396 103.77843408 -131.72704874 137.64915474 -124.71142578 167.99658203 C-116.30349877 201.20124298 -97.31296563 229.87552626 -68.125 248.3125 C-67.50931152 248.70276367 -66.89362305 249.09302734 -66.25927734 249.49511719 C-51.40605831 258.73695083 -35.42199863 264.67254294 -18.125 267.3125 C-16.98998047 267.50779297 -16.98998047 267.50779297 -15.83203125 267.70703125 C12.23816612 271.77911017 41.44679883 265.23574094 65.875 251.3125 C67.34259766 250.48298828 67.34259766 250.48298828 68.83984375 249.63671875 C95.97240021 233.32604277 117.12888647 205.61490058 125.49267578 175.05566406 C126.49934455 170.83861609 127.23437277 166.60099633 127.875 162.3125 C128.04628418 161.40048828 128.21756836 160.48847656 128.39404297 159.54882812 C129.19654973 154.14881308 129.06094304 148.72210292 129.06030273 143.27441406 C129.06247212 141.213977 129.08061437 139.15409143 129.09960938 137.09375 C129.24541177 103.28795175 114.70979243 73.73883221 91.625 49.625 C79.88745312 38.31849298 66.51967622 30.30802283 51.875 23.3125 C50.26431641 22.54099609 50.26431641 22.54099609 48.62109375 21.75390625 C26.60683573 12.34434989 0.20513657 10.28876146 -23.125 15.3125 Z " fill="#FAFCFC" transform="translate(217.125,76.6875)"></path><path d="M0 0 C0.61939453 0.29664551 1.23878906 0.59329102 1.87695312 0.89892578 C31.09006038 15.06065081 54.12103768 41.85891172 65.10253906 72.2644043 C69.93065786 86.2255418 71.23510944 99.36683259 71.25 114.0625 C71.25100708 114.75253113 71.25201416 115.44256226 71.25305176 116.15350342 C71.24292443 126.41099241 70.75667498 136.06177261 68 146 C67.70996094 147.1034375 67.41992188 148.206875 67.12109375 149.34375 C61.35848355 169.59727539 51.10969139 186.55250084 37 202 C36.28457031 202.79792969 35.56914062 203.59585938 34.83203125 204.41796875 C19.82586559 220.32506743 0.4843898 230.1942994 -20 237 C-20.99773437 237.3403125 -21.99546875 237.680625 -23.0234375 238.03125 C-53.17419093 247.3084049 -87.82030728 242.24685676 -115.44311523 228.03027344 C-136.94918632 216.60728791 -154.26134245 200.69329822 -167 180 C-167.37495605 179.39462402 -167.74991211 178.78924805 -168.13623047 178.16552734 C-184.28679021 151.53062959 -189.60137426 117.66042766 -182.58642578 87.31591797 C-173.49497668 51.41188542 -152.44143096 22.94443361 -120.80249023 3.77026367 C-83.82668666 -17.91093222 -38.21079707 -18.65747292 0 0 Z M-128 39 C-129.12148437 39.94939453 -129.12148437 39.94939453 -130.265625 40.91796875 C-142.97938286 52.62392873 -152.66210665 70.35776766 -157 87 C-157.27714844 88.01320313 -157.55429688 89.02640625 -157.83984375 90.0703125 C-164.18320927 116.67152275 -159.36255436 144.70727822 -145.79296875 168.28125 C-130.02912318 192.18459753 -107.64354136 209.13763035 -79.47680664 215.66137695 C-51.05017436 221.24208139 -22.02630177 215.75920736 2.29150391 200.16552734 C25.89507804 184.06328915 40.52427336 159.67869246 46.0859375 131.828125 C50.75175334 105.14662095 44.39383945 77.26024517 29 55 C16.75220075 38.7113336 1.81930144 26.82584813 -17 19 C-18.093125 18.46375 -19.18625 17.9275 -20.3125 17.375 C-57.62518654 3.46179485 -98.59590886 13.68853436 -128 39 Z " fill="#2F907B" transform="translate(275,103)"></path><path d="M0 0 C19.97090678 16.84601383 33.1171268 40.74558188 36.4375 66.75 C38.17338146 96.72409207 31.07512432 125.03341331 10.92675781 147.91137695 C-6.3454257 166.98071327 -30.84711016 180.02657085 -56.73852539 181.9909668 C-85.39920455 183.12631737 -111.28779309 177.6768715 -133.5625 158.75 C-134.408125 158.06550781 -135.25375 157.38101563 -136.125 156.67578125 C-155.84998089 140.00200834 -168.14509829 115.37241807 -170.5625 89.75 C-172.69966062 58.3597467 -163.12141805 31.41485269 -142.671875 7.54296875 C-105.18826405 -32.46671164 -41.75187094 -32.8175545 0 0 Z M-137.4375 22.03125 C-150.47909987 38.71682631 -157.13714815 57.12462049 -156.9375 78.1875 C-156.94910156 79.40759766 -156.96070313 80.62769531 -156.97265625 81.88476562 C-156.90153939 104.17989972 -148.10652087 124.07829672 -133.5625 140.75 C-132.76779297 141.67039062 -132.76779297 141.67039062 -131.95703125 142.609375 C-118.49317678 157.10379611 -96.01943537 167.80777997 -76.25561523 168.87451172 C-64.66240124 169.22512832 -53.74070484 169.11431408 -42.5625 165.75 C-41.4178125 165.4096875 -40.273125 165.069375 -39.09375 164.71875 C-16.23821906 157.23508058 2.06499476 141.97632113 13.42382812 120.77490234 C19.83441474 107.96916886 22.82200946 95.22742032 22.6875 80.9375 C22.67928223 79.87724609 22.67106445 78.81699219 22.66259766 77.72460938 C22.31216131 53.17145667 13.56324109 32.44444937 -3.5625 14.75 C-21.93413465 -2.7853341 -45.5962631 -10.80123486 -70.69311523 -10.67382812 C-96.44060565 -9.97801354 -120.69664286 2.65968674 -137.4375 22.03125 Z " fill="#FAFCFC" transform="translate(285.5625,138.25)"></path><path d="M0 0 C9.99127498 4.58345618 17.64586733 14.57622411 25.22265625 22.26171875 C29.03416743 26.10651824 32.81970826 29.91942767 36.9375 33.4375 C42.96877059 38.60280454 48.43627506 44.38105784 54.00927734 50.02978516 C59.21579475 55.30060145 64.42961283 60.48318162 70.06542969 65.30126953 C73.82391424 68.60156427 77.3379256 72.15352829 80.875 75.6875 C81.63296875 76.43322266 82.3909375 77.17894531 83.171875 77.94726562 C84.25855469 79.03104492 84.25855469 79.03104492 85.3671875 80.13671875 C86.01800293 80.78342529 86.66881836 81.43013184 87.33935547 82.09643555 C89.93048857 85.06660091 90.91391372 87.26826663 91.375 91.1875 C90.47317859 100.35601764 85.38181322 107.57694211 78.35546875 113.3515625 C74.16389404 116.30158217 70.29536112 117.17237752 65.25 117.4375 C64.45078125 117.49808594 63.6515625 117.55867188 62.828125 117.62109375 C55.70196494 116.05609451 50.29491136 109.46958984 45.59375 104.21875 C38.8642259 96.88193911 31.89616721 89.80497413 24.84375 82.78125 C24.30532471 82.24444611 23.76689941 81.70764221 23.2121582 81.15457153 C19.31163784 77.26615873 15.40637408 73.38253078 11.5 69.5 C7.56046547 65.58429217 3.62272754 61.66680786 -0.31083679 57.74510193 C-1.86127063 56.20104439 -3.41472661 54.66007571 -4.96838379 53.1192627 C-9.69074221 48.4212186 -14.3014398 43.67959153 -18.62110901 38.60498047 C-20.45945064 36.46521566 -22.42588048 34.47632795 -24.4375 32.5 C-25.11683594 31.8296875 -25.79617188 31.159375 -26.49609375 30.46875 C-26.99238281 29.9840625 -27.48867188 29.499375 -28 29 C-24.52498875 25.4679174 -20.9430422 22.11962906 -17.25 18.8125 C-10.93689959 13.09290547 -4.74298267 7.114474 0 0 Z " fill="#2E907B" transform="translate(331,302)"></path><path d="M0 0 C4.29 0 8.58 0 13 0 C13 25.08 13 50.16 13 76 C51.28 76 89.56 76 129 76 C129 61.48 129 46.96 129 32 C133.29 32 137.58 32 142 32 C142.0988118 39.47473278 142.1714432 46.94908612 142.21972656 54.42431641 C142.23985272 56.96767803 142.26715637 59.51099333 142.30175781 62.05419922 C142.3502297 65.70812404 142.37295916 69.36143756 142.390625 73.015625 C142.41127014 74.15429016 142.43191528 75.29295532 142.45318604 76.46612549 C142.45348816 77.52692322 142.45379028 78.58772095 142.45410156 79.68066406 C142.46298401 80.61332092 142.47186646 81.54597778 142.48101807 82.50689697 C141.83820372 85.83858553 140.61668411 86.88076577 138 89 C135.42625427 89.50336456 135.42625427 89.50336456 132.45874023 89.50793457 C131.33152557 89.51921387 130.20431091 89.53049316 129.04293823 89.54211426 C127.81060455 89.53401733 126.57827087 89.52592041 125.30859375 89.51757812 C124.00745636 89.5245874 122.70631897 89.53159668 121.36575317 89.53881836 C117.79956785 89.55704987 114.23384552 89.54998528 110.66765213 89.53730202 C106.93524174 89.52717329 103.20287093 89.53656733 99.47045898 89.54284668 C93.20256433 89.55012349 86.93485822 89.54053464 80.66699219 89.52148438 C73.42095169 89.49971539 66.17536137 89.50676675 58.92933178 89.52879 C52.70754487 89.54694317 46.48589347 89.54950278 40.26408863 89.53903532 C36.5482883 89.53279986 32.83269957 89.53196597 29.11691284 89.54518127 C24.97480618 89.55888383 20.83347535 89.53989161 16.69140625 89.51757812 C14.84290573 89.52972351 14.84290573 89.52972351 12.95706177 89.54211426 C11.26623978 89.52519531 11.26623978 89.52519531 9.54125977 89.50793457 C8.56198013 89.50642647 7.5827005 89.50491837 6.57374573 89.50336456 C3.23558805 88.85049887 2.04695892 87.67459634 0 85 C-0.37403548 82.1167327 -0.50714898 79.62193377 -0.45410156 76.74316406 C-0.45497772 75.49870766 -0.45497772 75.49870766 -0.45587158 74.22911072 C-0.45308808 71.49085437 -0.42198411 68.75369083 -0.390625 66.015625 C-0.38316354 64.11562698 -0.37747016 62.21562126 -0.37347412 60.31561279 C-0.35821028 55.31771554 -0.31892193 50.32028414 -0.2746582 45.3225708 C-0.23372172 40.22162172 -0.21546657 35.12059729 -0.1953125 30.01953125 C-0.15242847 20.01281629 -0.08416798 10.0064469 0 0 Z " fill="#F9FBFB" transform="translate(115,346)"></path><path d="M0 0 C12.83887926 -0.06945809 25.67771395 -0.12279004 38.51674271 -0.15543652 C44.47818887 -0.17110383 50.43950664 -0.19236176 56.40087891 -0.22631836 C62.15208959 -0.25887349 67.90317665 -0.27684499 73.65447235 -0.28463173 C75.85056251 -0.29018213 78.04664577 -0.30102048 80.24268341 -0.31719017 C83.31460788 -0.33891304 86.3860191 -0.34196904 89.45800781 -0.34057617 C90.82502083 -0.35675491 90.82502083 -0.35675491 92.21965027 -0.3732605 C93.05815018 -0.36913651 93.89665009 -0.36501251 94.76055908 -0.36076355 C95.48693195 -0.36352893 96.21330482 -0.36629431 96.961689 -0.36914349 C99.69887339 0.12656781 101.03880213 1.03808159 103 3 C103.49219131 5.11828899 103.49219131 5.11828899 103.48101807 7.61271667 C103.48651672 8.55922592 103.49201538 9.50573517 103.49768066 10.48092651 C103.48329956 11.5174234 103.46891846 12.55392029 103.45410156 13.62182617 C103.45468567 14.71466415 103.45526978 15.80750214 103.45587158 16.93345642 C103.45307996 20.55361452 103.42193575 24.1729541 103.390625 27.79296875 C103.38316648 30.29974416 103.37747172 32.8065254 103.37347412 35.31330872 C103.35975067 41.24197477 103.32821025 47.17037723 103.28807616 53.09890777 C103.2389905 60.51054755 103.21749883 67.92222369 103.1953125 75.33398438 C103.1523879 88.55614388 103.08409938 101.77804279 103 115 C98.71 115 94.42 115 90 115 C90 81.34 90 47.68 90 13 C60.3 13 30.6 13 0 13 C0 8.71 0 4.42 0 0 Z " fill="#FCFDFD" transform="translate(167,160)"></path><path d="M0 0 C32.01 0 64.02 0 97 0 C97 4.29 97 8.58 97 13 C64.99 13 32.98 13 0 13 C0 8.71 0 4.42 0 0 Z " fill="#F8FBFA" transform="translate(147,230)"></path><path d="M0 0 C31.68 0 63.36 0 96 0 C96 4.29 96 8.58 96 13 C64.32 13 32.64 13 0 13 C0 8.71 0 4.42 0 0 Z " fill="#F8FBFB" transform="translate(147,192)"></path><path d="M0 0 C25.41 0 50.82 0 77 0 C77 4.29 77 8.58 77 13 C51.59 13 26.18 13 0 13 C0 8.71 0 4.42 0 0 Z " fill="#F9FBFB" transform="translate(167,262)"></path></svg>