<svg version="1.1" xmlns="http://www.w3.org/2000/svg" width="16px" height="16px" fill="currentColor" viewBox="0 0 512 512"><path d="M0 0 C168.96 0 337.92 0 512 0 C512 168.96 512 337.92 512 512 C343.04 512 174.08 512 0 512 C0 343.04 0 174.08 0 0 Z " fill="#438A26" transform="translate(0,0)"></path><path d="M0 0 C0.70825928 0.00491455 1.41651855 0.0098291 2.14624023 0.01489258 C10.84128926 0.20807186 18.93420536 2.05896418 25.3125 8.3125 C32.37624246 16.55081395 33.6962263 25.15472401 33.515625 35.75 C33.24370031 39.18043459 32.46314934 42.07629873 31.3125 45.3125 C31.97121094 45.52390625 32.62992188 45.7353125 33.30859375 45.953125 C37.40679629 47.80770821 40.77414893 50.38786239 44.375 53.0625 C45.98862076 54.24480443 47.60324077 55.42574605 49.21875 56.60546875 C50.05535156 57.21696777 50.89195312 57.8284668 51.75390625 58.45849609 C55.92555234 61.48134728 60.14874737 64.42920641 64.375 67.375 C66.06121502 68.55205883 67.74741306 69.72914198 69.43359375 70.90625 C70.2519873 71.47730469 71.07038086 72.04835938 71.91357422 72.63671875 C80.63727154 78.73069986 89.33154219 84.86330141 97.94091797 91.11791992 C105.16493489 96.3659696 112.4436862 101.51924525 119.8125 106.5625 C120.63218262 107.12380615 121.45186523 107.6851123 122.29638672 108.26342773 C126.19514623 110.97149937 126.19514623 110.97149937 130.3125 113.3125 C132.32973344 112.34773618 134.32862292 111.34411608 136.3125 110.3125 C144.8822179 107.35674082 157.24101888 108.19859732 165.3046875 112.12109375 C172.37279613 116.3152049 176.78630941 121.82432978 179.43359375 129.609375 C181.83612176 139.73202637 181.34970988 150.40773919 176.05859375 159.45703125 C172.66839679 164.43609435 168.80004716 167.81504444 163.3125 170.3125 C162.53414795 170.40740723 161.7557959 170.50231445 160.95385742 170.60009766 C157.85352543 170.99364488 155.96062662 171.61853473 153.3125 173.3125 C150.11192246 178.49327626 148.32667332 184.1319539 146.375 189.875 C145.75376225 191.60566889 145.12824559 193.33480693 144.4987793 195.0625 C143.13972201 198.80312588 141.79982168 202.54990722 140.47070312 206.30126953 C137.08846702 215.78962891 133.4556367 225.18413157 129.85562134 234.59143066 C128.62890561 237.80227734 127.40839323 241.0154087 126.19018555 244.22949219 C122.65053883 253.56824771 119.09988103 262.90188679 115.47265625 272.20703125 C115.18564346 272.94392181 114.89863068 273.68081238 114.60292053 274.44003296 C113.30838138 277.76071184 112.00875188 281.07925516 110.70043945 284.39453125 C110.26046631 285.51859375 109.82049316 286.64265625 109.3671875 287.80078125 C108.99062012 288.75509033 108.61405273 289.70939941 108.22607422 290.69262695 C107.3428183 293.22555567 106.76765522 295.67218103 106.3125 298.3125 C107.05242187 298.55613281 107.79234375 298.79976563 108.5546875 299.05078125 C111.65134362 300.46752336 113.20099418 301.95213748 115.4375 304.5 C116.43136719 305.60408203 116.43136719 305.60408203 117.4453125 306.73046875 C123.82569434 315.55354907 123.6346534 325.83154607 122.3125 336.3125 C120.11470016 343.81775265 116.15573226 350.30735244 109.3125 354.3125 C100.34438675 359.09750002 89.38313111 360.17214559 79.53515625 357.58203125 C77.30931161 356.64983991 75.35097994 355.59973889 73.3125 354.3125 C72.67957031 353.95027344 72.04664063 353.58804687 71.39453125 353.21484375 C63.63448354 348.33379029 61.49007061 342.02278243 59.3125 333.3125 C21.0325 333.3125 -17.2475 333.3125 -56.6875 333.3125 C-57.6775 336.6125 -58.6675 339.9125 -59.6875 343.3125 C-64.28873736 350.69588088 -69.10889608 354.62564593 -77.25 357.625 C-88.44093605 359.89850377 -98.87477261 359.03138734 -108.640625 353.1328125 C-114.34477738 348.94150054 -117.68079491 343.00624418 -119.6875 336.3125 C-120.99830533 326.98584824 -121.30267566 316.2692184 -115.6875 308.3125 C-114.41615957 307.13848837 -113.14432205 305.96501489 -111.87205505 304.79200745 C-109.66442047 302.28340874 -108.69606424 301.08992589 -108.65887642 297.71417046 C-109.33843257 294.6535829 -110.25251912 291.78399658 -111.29711914 288.82788086 C-111.64475091 287.73251227 -111.99238268 286.63714369 -112.35054874 285.50858212 C-113.07730247 283.22241985 -113.82086971 280.94153969 -114.58049393 278.6660881 C-115.93494569 274.5628827 -117.15774848 270.42866888 -118.37053585 266.28183842 C-119.5510639 262.25091409 -120.76848988 258.23142897 -121.98348808 254.21078682 C-122.96517976 250.96187217 -123.94364825 247.71200061 -124.92140198 244.4618988 C-127.34038969 236.42316936 -129.76429687 228.38592568 -132.18865967 220.34881592 C-134.25977871 213.4822825 -136.32873949 206.61510667 -138.39460945 199.74699211 C-139.35857834 196.54547225 -140.32577727 193.34493965 -141.29307556 190.14442444 C-141.87710967 188.20383638 -142.46098603 186.26320084 -143.04467773 184.32250977 C-143.31420258 183.43390259 -143.58372742 182.54529541 -143.86141968 181.62976074 C-144.10372818 180.82172501 -144.34603668 180.01368927 -144.59568787 179.1811676 C-144.80782645 178.47804727 -145.01996504 177.77492693 -145.23853207 177.05049992 C-145.6875 175.3125 -145.6875 175.3125 -145.6875 173.3125 C-146.244375 173.27511719 -146.80125 173.23773438 -147.375 173.19921875 C-156.03648108 172.45304386 -164.16766842 170.1749105 -170.28515625 163.59375 C-177.92159557 154.13732391 -178.75254431 144.08715651 -177.6875 132.3125 C-175.62195223 123.66163057 -171.21656173 117.72521233 -163.6875 113 C-157.65671656 109.40979923 -152.23392678 109.11090159 -145.3125 109.0625 C-144.58289063 109.041875 -143.85328125 109.02125 -143.1015625 109 C-139.28717357 108.97275436 -136.43022851 109.24144389 -132.9609375 110.890625 C-129.41681035 112.4300788 -128.23841863 112.65369555 -124.6875 111.3125 C-122.4112084 109.95689963 -122.4112084 109.95689963 -120.125 108.125 C-114.90668794 104.20077337 -109.60677605 100.4206982 -104.25 96.6875 C-102.5012839 95.46617187 -100.75258628 94.24481728 -99.00390625 93.0234375 C-98.12234863 92.40823242 -97.24079102 91.79302734 -96.33251953 91.15917969 C-92.11464807 88.21437816 -87.90122625 85.26322828 -83.6875 82.3125 C-82.02085629 81.14580053 -80.35418959 79.97913392 -78.6875 78.8125 C-77.45 77.94625 -77.45 77.94625 -76.1875 77.0625 C-73.6875 75.3125 -71.1875 73.5625 -68.6875 71.8125 C-67.8612915 71.2340332 -67.03508301 70.65556641 -66.18383789 70.05957031 C-64.52983755 68.90201272 -62.87538337 67.74510332 -61.22045898 66.58886719 C-56.85590732 63.53820276 -52.50157705 60.4741372 -48.16015625 57.390625 C-47.25458984 56.74996094 -46.34902344 56.10929687 -45.41601562 55.44921875 C-43.68131166 54.2215821 -41.9493824 52.99001205 -40.22070312 51.75390625 C-39.43759766 51.20089844 -38.65449219 50.64789063 -37.84765625 50.078125 C-36.82103882 49.34770996 -36.82103882 49.34770996 -35.77368164 48.60253906 C-33.49249743 47.19191561 -31.19950531 46.24009389 -28.6875 45.3125 C-29.0175 44.44625 -29.3475 43.58 -29.6875 42.6875 C-32.07746098 34.14945098 -31.77552286 24.6118588 -28.015625 16.5625 C-24.13002165 9.9798308 -19.54511968 5.61431688 -12.6875 2.3125 C-11.95144531 1.95542969 -11.21539062 1.59835938 -10.45703125 1.23046875 C-6.95120722 0.06845373 -3.6533281 -0.02978609 0 0 Z " fill="#428926" transform="translate(254.6875,76.6875)"></path><path d="M0 0 C0.70825928 0.00491455 1.41651855 0.0098291 2.14624023 0.01489258 C10.84128926 0.20807186 18.93420536 2.05896418 25.3125 8.3125 C32.37624246 16.55081395 33.6962263 25.15472401 33.515625 35.75 C33.24370031 39.18043459 32.46314934 42.07629873 31.3125 45.3125 C31.97121094 45.52390625 32.62992188 45.7353125 33.30859375 45.953125 C37.40679629 47.80770821 40.77414893 50.38786239 44.375 53.0625 C45.98862076 54.24480443 47.60324077 55.42574605 49.21875 56.60546875 C50.05535156 57.21696777 50.89195312 57.8284668 51.75390625 58.45849609 C55.92555234 61.48134728 60.14874737 64.42920641 64.375 67.375 C66.06121502 68.55205883 67.74741306 69.72914198 69.43359375 70.90625 C70.2519873 71.47730469 71.07038086 72.04835938 71.91357422 72.63671875 C80.63727154 78.73069986 89.33154219 84.86330141 97.94091797 91.11791992 C105.16493489 96.3659696 112.4436862 101.51924525 119.8125 106.5625 C120.63218262 107.12380615 121.45186523 107.6851123 122.29638672 108.26342773 C126.19514623 110.97149937 126.19514623 110.97149937 130.3125 113.3125 C132.32973344 112.34773618 134.32862292 111.34411608 136.3125 110.3125 C144.8822179 107.35674082 157.24101888 108.19859732 165.3046875 112.12109375 C172.37279613 116.3152049 176.78630941 121.82432978 179.43359375 129.609375 C181.83612176 139.73202637 181.34970988 150.40773919 176.05859375 159.45703125 C172.66839679 164.43609435 168.80004716 167.81504444 163.3125 170.3125 C162.53414795 170.40740723 161.7557959 170.50231445 160.95385742 170.60009766 C157.85352543 170.99364488 155.96062662 171.61853473 153.3125 173.3125 C150.11192246 178.49327626 148.32667332 184.1319539 146.375 189.875 C145.75376225 191.60566889 145.12824559 193.33480693 144.4987793 195.0625 C143.13972201 198.80312588 141.79982168 202.54990722 140.47070312 206.30126953 C137.08846702 215.78962891 133.4556367 225.18413157 129.85562134 234.59143066 C128.62890561 237.80227734 127.40839323 241.0154087 126.19018555 244.22949219 C122.65053883 253.56824771 119.09988103 262.90188679 115.47265625 272.20703125 C115.18564346 272.94392181 114.89863068 273.68081238 114.60292053 274.44003296 C113.30838138 277.76071184 112.00875188 281.07925516 110.70043945 284.39453125 C110.26046631 285.51859375 109.82049316 286.64265625 109.3671875 287.80078125 C108.99062012 288.75509033 108.61405273 289.70939941 108.22607422 290.69262695 C107.3428183 293.22555567 106.76765522 295.67218103 106.3125 298.3125 C107.05242187 298.55613281 107.79234375 298.79976563 108.5546875 299.05078125 C111.65134362 300.46752336 113.20099418 301.95213748 115.4375 304.5 C116.43136719 305.60408203 116.43136719 305.60408203 117.4453125 306.73046875 C123.82569434 315.55354907 123.6346534 325.83154607 122.3125 336.3125 C120.11470016 343.81775265 116.15573226 350.30735244 109.3125 354.3125 C100.34438675 359.09750002 89.38313111 360.17214559 79.53515625 357.58203125 C77.30931161 356.64983991 75.35097994 355.59973889 73.3125 354.3125 C72.67957031 353.95027344 72.04664063 353.58804687 71.39453125 353.21484375 C63.63448354 348.33379029 61.49007061 342.02278243 59.3125 333.3125 C21.0325 333.3125 -17.2475 333.3125 -56.6875 333.3125 C-57.6775 336.6125 -58.6675 339.9125 -59.6875 343.3125 C-64.28873736 350.69588088 -69.10889608 354.62564593 -77.25 357.625 C-88.44093605 359.89850377 -98.87477261 359.03138734 -108.640625 353.1328125 C-114.34477738 348.94150054 -117.68079491 343.00624418 -119.6875 336.3125 C-120.99830533 326.98584824 -121.30267566 316.2692184 -115.6875 308.3125 C-114.41615957 307.13848837 -113.14432205 305.96501489 -111.87205505 304.79200745 C-109.66442047 302.28340874 -108.69606424 301.08992589 -108.65887642 297.71417046 C-109.33843257 294.6535829 -110.25251912 291.78399658 -111.29711914 288.82788086 C-111.64475091 287.73251227 -111.99238268 286.63714369 -112.35054874 285.50858212 C-113.07730247 283.22241985 -113.82086971 280.94153969 -114.58049393 278.6660881 C-115.93494569 274.5628827 -117.15774848 270.42866888 -118.37053585 266.28183842 C-119.5510639 262.25091409 -120.76848988 258.23142897 -121.98348808 254.21078682 C-122.96517976 250.96187217 -123.94364825 247.71200061 -124.92140198 244.4618988 C-127.34038969 236.42316936 -129.76429687 228.38592568 -132.18865967 220.34881592 C-134.25977871 213.4822825 -136.32873949 206.61510667 -138.39460945 199.74699211 C-139.35857834 196.54547225 -140.32577727 193.34493965 -141.29307556 190.14442444 C-141.87710967 188.20383638 -142.46098603 186.26320084 -143.04467773 184.32250977 C-143.31420258 183.43390259 -143.58372742 182.54529541 -143.86141968 181.62976074 C-144.10372818 180.82172501 -144.34603668 180.01368927 -144.59568787 179.1811676 C-144.80782645 178.47804727 -145.01996504 177.77492693 -145.23853207 177.05049992 C-145.6875 175.3125 -145.6875 175.3125 -145.6875 173.3125 C-146.244375 173.27511719 -146.80125 173.23773438 -147.375 173.19921875 C-156.03648108 172.45304386 -164.16766842 170.1749105 -170.28515625 163.59375 C-177.92159557 154.13732391 -178.75254431 144.08715651 -177.6875 132.3125 C-175.62195223 123.66163057 -171.21656173 117.72521233 -163.6875 113 C-157.65671656 109.40979923 -152.23392678 109.11090159 -145.3125 109.0625 C-144.58289063 109.041875 -143.85328125 109.02125 -143.1015625 109 C-139.28717357 108.97275436 -136.43022851 109.24144389 -132.9609375 110.890625 C-129.41681035 112.4300788 -128.23841863 112.65369555 -124.6875 111.3125 C-122.4112084 109.95689963 -122.4112084 109.95689963 -120.125 108.125 C-114.90668794 104.20077337 -109.60677605 100.4206982 -104.25 96.6875 C-102.5012839 95.46617187 -100.75258628 94.24481728 -99.00390625 93.0234375 C-98.12234863 92.40823242 -97.24079102 91.79302734 -96.33251953 91.15917969 C-92.11464807 88.21437816 -87.90122625 85.26322828 -83.6875 82.3125 C-82.02085629 81.14580053 -80.35418959 79.97913392 -78.6875 78.8125 C-77.45 77.94625 -77.45 77.94625 -76.1875 77.0625 C-73.6875 75.3125 -71.1875 73.5625 -68.6875 71.8125 C-67.8612915 71.2340332 -67.03508301 70.65556641 -66.18383789 70.05957031 C-64.52983755 68.90201272 -62.87538337 67.74510332 -61.22045898 66.58886719 C-56.85590732 63.53820276 -52.50157705 60.4741372 -48.16015625 57.390625 C-47.25458984 56.74996094 -46.34902344 56.10929687 -45.41601562 55.44921875 C-43.68131166 54.2215821 -41.9493824 52.99001205 -40.22070312 51.75390625 C-39.43759766 51.20089844 -38.65449219 50.64789063 -37.84765625 50.078125 C-36.82103882 49.34770996 -36.82103882 49.34770996 -35.77368164 48.60253906 C-33.49249743 47.19191561 -31.19950531 46.24009389 -28.6875 45.3125 C-29.0175 44.44625 -29.3475 43.58 -29.6875 42.6875 C-32.07746098 34.14945098 -31.77552286 24.6118588 -28.015625 16.5625 C-24.13002165 9.9798308 -19.54511968 5.61431688 -12.6875 2.3125 C-11.95144531 1.95542969 -11.21539062 1.59835938 -10.45703125 1.23046875 C-6.95120722 0.06845373 -3.6533281 -0.02978609 0 0 Z M-22.6875 55.3125 C-23.18862305 55.66328613 -23.68974609 56.01407227 -24.20605469 56.37548828 C-67.6875 86.8125 -67.6875 86.8125 -70.18896484 88.56347656 C-71.85080991 89.72680058 -73.51259405 90.89021164 -75.17431641 92.05371094 C-80.27971081 95.6281879 -85.38747409 99.19924903 -90.49682617 102.76806641 C-93.0041674 104.52170215 -95.50817801 106.28000691 -98.01171875 108.0390625 C-101.00055261 110.13806273 -104.00229629 112.21550352 -107.01953125 114.2734375 C-108.30474252 115.1613787 -109.58990237 116.04939434 -110.875 116.9375 C-111.45749512 117.32711914 -112.03999023 117.71673828 -112.64013672 118.11816406 C-114.86894621 119.671556 -116.47388477 120.85637896 -117.640625 123.34765625 C-117.69600603 125.66904447 -117.19009602 127.00665031 -116.25 129.125 C-113.84179032 135.64905895 -114.44398369 142.46698592 -114.6875 149.3125 C-105.87956693 153.52985778 -96.85079035 156.96680679 -87.6875 160.3125 C-88.29395022 164.25715818 -89.07276115 167.65242527 -90.6875 171.3125 C-95.30786324 169.83629291 -99.86893201 168.28088402 -104.36328125 166.453125 C-105.12833984 166.14246094 -105.89339844 165.83179688 -106.68164062 165.51171875 C-108.24943326 164.86980871 -109.81448829 164.22117787 -111.37695312 163.56640625 C-112.13556641 163.26089844 -112.89417969 162.95539063 -113.67578125 162.640625 C-114.35165283 162.3612207 -115.02752441 162.08181641 -115.72387695 161.79394531 C-118.08638781 161.21469983 -119.4151091 161.49818435 -121.6875 162.3125 C-123.50921342 163.63452432 -123.50921342 163.63452432 -125.1875 165.25 C-127.56278538 167.44713898 -129.73474392 168.97210415 -132.6875 170.3125 C-131.98816237 176.63309577 -130.36033373 182.57901158 -128.625 188.6875 C-128.31119385 189.7997998 -127.9973877 190.91209961 -127.67407227 192.05810547 C-125.34388898 200.22441473 -122.79885906 208.30467321 -120.16625977 216.37744141 C-116.44629848 227.8831442 -113.01018934 239.47289771 -109.5625 251.0625 C-109.26681122 252.05493713 -108.97112244 253.04737427 -108.66647339 254.06988525 C-104.5806986 267.79138641 -100.59311626 281.53865769 -96.6875 295.3125 C-87.61439867 296.97204652 -87.61439867 296.97204652 -78.6875 295.3125 C-72.93673691 290.47578999 -68.98053752 283.86182037 -65.11938477 277.48901367 C-63.6875 275.3125 -63.6875 275.3125 -60.6875 272.3125 C-58.0475 274.2925 -55.4075 276.2725 -52.6875 278.3125 C-54.52005096 284.27704483 -58.74868367 288.74527169 -62.60742188 293.51757812 C-63.14302734 294.20400391 -63.67863281 294.89042969 -64.23046875 295.59765625 C-64.72571045 296.21519775 -65.22095215 296.83273926 -65.73120117 297.46899414 C-66.89338772 299.28256996 -66.89338772 299.28256996 -66.42260742 301.41479492 C-65.21708385 304.52689546 -63.20795543 307.01800358 -61.2578125 309.703125 C-59.6875 312.3125 -59.6875 312.3125 -56.6875 320.3125 C-18.4075 320.3125 19.8725 320.3125 59.3125 320.3125 C60.6325 317.3425 61.9525 314.3725 63.3125 311.3125 C65.37026478 307.94524855 67.37304271 304.95801157 70.3125 302.3125 C68.9061251 299.30223039 67.25088471 296.72170605 65.2734375 294.0546875 C64.40332031 292.86939453 64.40332031 292.86939453 63.515625 291.66015625 C62.29037881 290.00293224 61.06380167 288.34669149 59.8359375 286.69140625 C59.2584375 285.90378906 58.6809375 285.11617187 58.0859375 284.3046875 C57.55403809 283.58651855 57.02213867 282.86834961 56.47412109 282.12841797 C55.3125 280.3125 55.3125 280.3125 55.3125 278.3125 C57.28125 276.8046875 57.28125 276.8046875 59.8125 275.1875 C60.6478125 274.64867187 61.483125 274.10984375 62.34375 273.5546875 C62.9934375 273.14476562 63.643125 272.73484375 64.3125 272.3125 C64.72089111 272.86711914 65.12928223 273.42173828 65.55004883 273.99316406 C67.40818513 276.51640921 69.26658989 279.03945651 71.125 281.5625 C71.76759766 282.43519531 72.41019531 283.30789063 73.07226562 284.20703125 C74.00522461 285.47353516 74.00522461 285.47353516 74.95703125 286.765625 C75.52784424 287.54067383 76.09865723 288.31572266 76.68676758 289.11425781 C77.22325928 289.83967773 77.75975098 290.56509766 78.3125 291.3125 C78.74908936 292.07143555 79.18567871 292.83037109 79.63549805 293.61230469 C81.25728087 295.63593607 81.25728087 295.63593607 84.23046875 295.484375 C85.84888672 295.27554688 85.84888672 295.27554688 87.5 295.0625 C88.58667969 294.93359375 89.67335938 294.8046875 90.79296875 294.671875 C91.62441406 294.55328125 92.45585937 294.4346875 93.3125 294.3125 C93.50834183 293.79712677 93.70418365 293.28175354 93.90596008 292.75076294 C94.51202215 291.15586277 95.11808621 289.56096336 95.72415161 287.96606445 C96.45705557 286.03735889 97.18994481 284.10864774 97.92282104 282.17993164 C100.01437141 276.67565269 102.10619777 271.17147886 104.19848633 265.66748047 C108.21742832 255.09440602 112.23500235 244.52082852 116.2424469 233.94338989 C117.92410457 229.50502835 119.60707699 225.06716584 121.29013062 220.6293335 C122.08458605 218.53343001 122.87840925 216.43728674 123.67153931 214.34088135 C124.79366992 211.37505161 125.91765549 208.40993604 127.04296875 205.4453125 C127.57404991 204.04540573 127.57404991 204.04540573 128.11585999 202.61721802 C129.91255449 197.90415917 131.7460021 193.20939335 133.63916016 188.53417969 C134.19945671 187.15043655 134.19945671 187.15043655 134.77107239 185.73873901 C135.48121628 183.99359406 136.19619838 182.25040739 136.91679382 180.509552 C137.23211563 179.7366684 137.54743744 178.96378479 137.87231445 178.16748047 C138.15138138 177.49248505 138.4304483 176.81748962 138.7179718 176.12203979 C139.46856838 174.15493211 139.46856838 174.15493211 139.3125 171.3125 C138.31669922 170.85810547 138.31669922 170.85810547 137.30078125 170.39453125 C132.04879187 167.90271147 128.17084377 165.65313674 124.3125 161.3125 C122.22952155 159.97984903 122.22952155 159.97984903 119.51513672 161.20874023 C117.77127686 161.90785522 117.77127686 161.90785522 115.9921875 162.62109375 C115.37352814 162.86666519 114.75486877 163.11223663 114.11746216 163.36524963 C112.13784621 164.15296927 110.16271949 164.95132846 108.1875 165.75 C106.84793774 166.28521028 105.50809717 166.81972456 104.16796875 167.35351562 C100.87954222 168.66510966 97.59505951 169.9862803 94.3125 171.3125 C91.86410412 167.63990617 90.3125 164.76601799 90.3125 160.3125 C103.6775 154.8675 103.6775 154.8675 117.3125 149.3125 C117.3125 144.6925 117.3125 140.0725 117.3125 135.3125 C117.96875 131.3203125 117.96875 131.3203125 118.8125 128.4375 C119.23015625 126.95636719 119.23015625 126.95636719 119.65625 125.4453125 C119.8728125 124.74148437 120.089375 124.03765625 120.3125 123.3125 C114.03659689 118.04737937 107.52329934 113.32360818 100.75292969 108.7265625 C95.62485802 105.23672362 90.57887155 101.64832027 85.5625 98 C79.19159565 93.37006248 72.77434371 88.81464002 66.3125 84.3125 C59.03679012 79.24280958 51.82513241 74.09343347 44.64892578 68.8840332 C38.27023576 64.26124243 31.81537226 59.75881018 25.3125 55.3125 C24.85101563 55.63863281 24.38953125 55.96476562 23.9140625 56.30078125 C23.26179687 56.73777344 22.60953125 57.17476562 21.9375 57.625 C21.31101562 58.05425781 20.68453125 58.48351562 20.0390625 58.92578125 C16.03950135 60.95994201 11.61038719 62.02313384 7.3125 63.3125 C7.3125 74.2025 7.3125 85.0925 7.3125 96.3125 C3.3525 96.3125 -0.6075 96.3125 -4.6875 96.3125 C-4.6875 85.4225 -4.6875 74.5325 -4.6875 63.3125 C-7.9875 62.3225 -11.2875 61.3325 -14.6875 60.3125 C-17.4140625 58.92578125 -17.4140625 58.92578125 -19.3125 57.625 C-20.29089844 56.96951172 -20.29089844 56.96951172 -21.2890625 56.30078125 C-21.98128906 55.81158203 -21.98128906 55.81158203 -22.6875 55.3125 Z " fill="#FBFCFA" transform="translate(254.6875,76.6875)"></path><path d="M0 0 C2.46940706 1.92479463 4.82044868 3.92295635 7.1484375 6.015625 C7.75945312 6.53382813 8.37046875 7.05203125 9 7.5859375 C21.22672763 18.69606899 29.70736848 36.83279844 30.51953125 53.23046875 C30.99909266 75.42952119 25.51154233 95.1413836 9.91918945 111.5090332 C-6.21373169 127.57679108 -25.28262849 133.51710507 -47.56982422 133.51538086 C-66.62796988 133.11937124 -82.84559685 124.48936011 -96.54296875 111.51171875 C-108.35060343 98.74508836 -116.95643754 81.32978236 -117.0390625 63.703125 C-116.9771875 62.48625 -116.9153125 61.269375 -116.8515625 60.015625 C-112.5615625 60.015625 -108.2715625 60.015625 -103.8515625 60.015625 C-103.69300781 61.10359375 -103.53445312 62.1915625 -103.37109375 63.3125 C-101.35054356 76.35599274 -97.85378909 87.31134787 -89.8515625 98.015625 C-89.44808594 98.60730469 -89.04460937 99.19898438 -88.62890625 99.80859375 C-81.34892971 109.53749206 -67.53792477 116.47426151 -55.8515625 119.015625 C-35.35467645 120.64974953 -18.58967241 117.67394866 -2.2890625 104.515625 C9.17754738 93.88258073 15.71733079 79.15487649 16.38671875 63.6328125 C16.8191723 45.05678956 11.86783855 30.16957207 -1.15625 16.5234375 C-15.52100117 3.15797337 -32.34915184 0.21042225 -51.15527344 0.84521484 C-61.6577979 1.50899265 -75.18686 6.3509225 -82.8515625 14.015625 C-79.8815625 14.345625 -76.9115625 14.675625 -73.8515625 15.015625 C-73.8515625 19.305625 -73.8515625 23.595625 -73.8515625 28.015625 C-77.90950188 28.13061698 -81.96327904 28.23007234 -86.02197266 28.2902832 C-87.40139952 28.3153843 -88.78069392 28.34947373 -90.15966797 28.39282227 C-92.14492122 28.45365375 -94.13115609 28.47920437 -96.1171875 28.50390625 C-97.90817871 28.54318237 -97.90817871 28.54318237 -99.73535156 28.58325195 C-102.8515625 28.015625 -102.8515625 28.015625 -105.24804688 25.88476562 C-107.14185177 22.49621582 -107.31540677 20.48341026 -107.2421875 16.62109375 C-107.22929687 15.41904297 -107.21640625 14.21699219 -107.203125 12.97851562 C-107.16960937 11.73263672 -107.13609375 10.48675781 -107.1015625 9.203125 C-107.08351562 7.93791016 -107.06546875 6.67269531 -107.046875 5.36914062 C-106.99980839 2.25097763 -106.92806752 -0.86679538 -106.8515625 -3.984375 C-102.5615625 -3.984375 -98.2715625 -3.984375 -93.8515625 -3.984375 C-93.8515625 -1.014375 -93.8515625 1.955625 -93.8515625 5.015625 C-93.29210937 4.59152344 -92.73265625 4.16742188 -92.15625 3.73046875 C-64.58035994 -16.44160516 -28.97571429 -20.16392173 0 0 Z " fill="#FAFCF9" transform="translate(304.8515625,208.984375)"></path><path d="M0 0 C5.62354822 5.47556011 7.52901046 9.13787198 7.75 17 C7.70373482 23.39781392 6.86462177 27.65114407 2.375 32.3125 C-3.61460249 36.84122383 -10.34818766 37.00792943 -17.625 36.3125 C-22.32942821 35.06907369 -25.66219842 32.79410765 -28.625 28.9375 C-31.78834505 23.2520285 -31.50084787 16.60400718 -30.625 10.3125 C-28.43666198 5.0287737 -26.18696406 2.57104575 -21.625 -0.6875 C-15.03308794 -2.99686165 -6.24771124 -2.9084173 0 0 Z " fill="#51952F" transform="translate(267.625,91.6875)"></path><path d="M0 0 C4.2189222 2.56214837 6.80662444 6.10051742 8.67578125 10.625 C9.42071868 17.4842291 9.31662516 23.67828827 5.67578125 29.625 C1.88082662 33.70348573 -2.38500137 36.24716339 -7.9375 36.9609375 C-14.29226232 37.05290222 -19.10562685 36.42817192 -24.32421875 32.625 C-30.02406516 26.77900368 -29.67936527 20.9193603 -29.59765625 13.05078125 C-29.11032838 6.94525919 -27.17411975 4.22824754 -22.51171875 0.1875 C-16.03143069 -3.0808192 -6.55024357 -2.70938395 0 0 Z " fill="#3C8323" transform="translate(119.32421875,200.375)"></path><path d="M0 0 C3.93294905 2.2976272 6.46293569 5.23837137 8.5 9.3125 C9.75592184 26.15420603 9.75592184 26.15420603 4.5 32.3125 C-0.9638557 37.16926062 -6.76253752 36.97539407 -13.890625 36.75 C-18.8451271 36.14945429 -22.11295321 35.03041511 -25.5 31.3125 C-29.73468531 25.25774937 -30.5716775 18.52991993 -29.5 11.3125 C-27.69134546 5.90685833 -23.99402127 2.56349411 -19.5 -0.6875 C-13.31444008 -2.74935331 -5.96260471 -2.78479467 0 0 Z " fill="#337A1E" transform="translate(176.5,385.6875)"></path><path d="M0 0 C4.95774855 2.96346624 8.71742208 6.47257874 10.578125 12.0546875 C11.31078662 19.38130368 10.79875612 25.84635855 6.578125 32.0546875 C-0.45193169 37.79350929 -7.63903344 37.91936991 -16.421875 37.0546875 C-21.7597673 35.11728984 -25.0062432 32.21470573 -27.421875 27.0546875 C-27.73727685 24.30699751 -27.88734361 21.85556901 -27.859375 19.1171875 C-27.87935547 18.42689453 -27.89933594 17.73660156 -27.91992188 17.02539062 C-27.91504657 11.88194158 -26.62087165 9.01674757 -23.421875 5.0546875 C-16.68910655 -1.00480411 -8.83458217 -3.44833691 0 0 Z " fill="#418726" transform="translate(354.421875,384.9453125)"></path><path d="M0 0 C3.90959294 1.70078337 6.8592984 4.09120259 8.76171875 8.0234375 C10.56327822 14.70046729 10.59907325 22.56225739 7.82421875 28.96484375 C4.94286362 33.77053248 0.59153802 35.60490399 -4.61328125 37.33984375 C-11.03076299 38.13775445 -15.62176781 37.56184429 -20.92578125 33.765625 C-25.47730321 29.92001038 -28.14366256 25.64694796 -28.984375 19.7265625 C-29.12776131 13.89833082 -28.52564796 9.98502607 -25.29296875 5.09375 C-18.33369868 -2.1730227 -9.42082374 -2.37984935 0 0 Z " fill="#539831" transform="translate(412.61328125,199.66015625)"></path></svg>