<svg version="1.1" xmlns="http://www.w3.org/2000/svg" width="16px" height="16px" fill="currentColor" viewBox="0 0 512 512"><path d="M0 0 C168.96 0 337.92 0 512 0 C512 168.96 512 337.92 512 512 C343.04 512 174.08 512 0 512 C0 343.04 0 174.08 0 0 Z " fill="#458B27" transform="translate(0,0)"></path><path d="M0 0 C1.82421875 1.6796875 1.82421875 1.6796875 3.6875 3.875 C4.31011719 4.59429687 4.93273437 5.31359375 5.57421875 6.0546875 C7 8 7 8 7 10 C5.46804728 11.37212301 3.87078919 12.6715446 2.25 13.9375 C-1.9858479 17.32074775 -6.03854856 20.80100363 -10 24.5 C-14.64237673 28.82037517 -19.44187666 32.87535693 -24.37890625 36.859375 C-31.56885594 42.17296018 -31.56885594 42.17296018 -37 49 C-36.33226563 49.22042969 -35.66453125 49.44085938 -34.9765625 49.66796875 C-31.06547299 51.41820697 -27.83181052 53.80092987 -24.375 56.3125 C-22.84463654 57.4087907 -21.31335364 58.50379882 -19.78125 59.59765625 C-18.99105469 60.16242676 -18.20085937 60.72719727 -17.38671875 61.30908203 C-13.58234047 64.00436885 -9.72982871 66.6276094 -5.875 69.25 C2.34033356 74.84799891 10.50641764 80.51448372 18.66259766 86.19824219 C24.09623602 89.9834734 29.53792745 93.75592363 35 97.5 C42.52989333 102.66194652 50.0203884 107.87995924 57.51171875 113.09765625 C63.61117233 117.34390729 69.72377439 121.56980591 75.85449219 125.77075195 C80.81820714 129.17648943 85.75895247 132.61452826 90.69580078 136.05908203 C93.68154244 138.13979313 96.6724217 140.21293936 99.6640625 142.28515625 C102.78671471 144.44980893 105.89020976 146.63347769 108.9609375 148.87109375 C110.00507813 149.61488281 111.04921875 150.35867188 112.125 151.125 C112.97320312 151.74632812 113.82140625 152.36765625 114.6953125 153.0078125 C116.98151146 154.29091787 116.98151146 154.29091787 119.36328125 153.24414062 C121.93245762 152.03187 124.15485754 150.6962769 126.4921875 149.0859375 C127.35054199 148.49780273 128.20889648 147.90966797 129.09326172 147.30371094 C130.47022217 146.34899902 130.47022217 146.34899902 131.875 145.375 C132.83809082 144.71274414 133.80118164 144.05048828 134.79345703 143.36816406 C137.86670665 141.25173241 140.93424821 139.12727607 144 137 C144.99644531 136.30874023 145.99289062 135.61748047 147.01953125 134.90527344 C151.90995426 131.50985851 156.79604668 128.10828576 161.6796875 124.703125 C166.10764031 121.61749818 170.54828593 118.55121386 175 115.5 C181.52084879 111.02982924 188.01255544 106.51849252 194.5 102 C201.60545183 97.05106662 208.72131678 92.11871995 215.86328125 87.22265625 C222.7597852 82.48921056 229.61945594 77.70294709 236.4831543 72.92211914 C242.88842914 68.46277756 249.3055628 64.02158313 255.74658203 59.61401367 C260.26777361 56.51744656 264.74019644 53.35751884 269.1796875 50.14453125 C271 49 271 49 273 49 C264.35719474 40.26008457 255.34855042 31.94969558 245.74609375 24.2734375 C241.99453466 21.16759484 238.43297936 17.87268063 234.88232422 14.54052734 C232.16043846 11.96869047 232.16043846 11.96869047 229 10 C230.66751148 6.05860922 233.22710649 3.2107188 236 0 C240.25365414 0.48268416 242.63007115 3.15514896 245.5625 6 C249.41196497 9.63747057 253.29626152 13.12815254 257.4375 16.4375 C262.20956306 20.27574928 266.68215453 24.35539303 271.14404297 28.54296875 C275.47967703 32.58696823 279.98441406 36.31565548 284.66015625 39.96484375 C288.32749314 43.15463093 290.76428135 45.4226528 291.50336456 50.36834049 C291.50487267 51.66379512 291.50638077 52.95924974 291.50793457 54.29396057 C291.51729451 55.38031851 291.51729451 55.38031851 291.52684355 56.48862308 C291.54277088 58.91014778 291.53017115 61.33066549 291.51757812 63.75219727 C291.52299934 65.49027086 291.530122 67.22833986 291.53881836 68.96640015 C291.55705343 73.68327897 291.5499838 78.39980784 291.53730202 83.11669278 C291.52717693 88.05159529 291.53656618 92.98646778 291.54284668 97.92137146 C291.55012383 106.20764549 291.54053288 114.49377691 291.52148438 122.7800293 C291.49970833 132.36352635 291.50677204 141.94668311 291.52879 151.53017193 C291.5469335 159.75619916 291.54950768 167.98212387 291.53903532 176.20816463 C291.53279554 181.12224243 291.53197822 186.03616019 291.54518127 190.95022774 C291.55672414 195.56897439 291.5487428 200.18728158 291.52560425 204.80598068 C291.52030908 206.50232017 291.52184473 208.19869656 291.53065491 209.89502144 C291.54156246 212.20819022 291.52790683 214.51994478 291.50793457 216.83302307 C291.50567242 218.77563947 291.50567242 218.77563947 291.50336456 220.75750065 C290.89697826 224.66363018 290.06682126 225.59133935 287 228 C284.34054279 228.50139666 284.34054279 228.50139666 281.24031067 228.50336456 C280.05742557 228.51379555 278.87454046 228.52422654 277.65581036 228.53497362 C276.35504968 228.52605073 275.054289 228.51712785 273.71411133 228.50793457 C272.31932072 228.51254229 270.92453497 228.51889435 269.52975941 228.52684355 C265.69265563 228.54357801 261.85594858 228.53527208 258.01884317 228.52289867 C253.88243801 228.51386722 249.74610219 228.52780841 245.60971069 228.53881836 C237.50482806 228.55662861 229.40009337 228.55275248 221.29520488 228.5411678 C214.70969981 228.53214358 208.12423628 228.53090508 201.53872681 228.53526306 C200.60235156 228.53587599 199.66597631 228.53648893 198.70122606 228.53712043 C196.7991491 228.5383993 194.89707216 228.53969615 192.99499524 228.5410108 C175.14853451 228.55242393 157.30215589 228.5392914 139.45570862 228.51780933 C124.13416826 228.49993768 108.81274911 228.50304159 93.49121094 228.52148438 C75.70972414 228.54287814 57.92830936 228.55132523 40.14681149 228.53903532 C38.25163207 228.53776109 36.35645264 228.53650361 34.46127319 228.53526306 C33.52874672 228.53464596 32.59622025 228.53402886 31.6354354 228.53339306 C25.05589976 228.52993567 18.47640969 228.53577686 11.8968811 228.54518127 C3.88138358 228.55638606 -4.13395721 228.55339333 -12.14943671 228.5320583 C-16.24108621 228.5215273 -20.33247415 228.51746069 -24.42412186 228.53065491 C-28.16714392 228.5425426 -31.9096611 228.53607692 -35.65263712 228.5147447 C-37.65369531 228.50813416 -39.65478833 228.52124712 -41.65581036 228.53497362 C-42.83869546 228.52454263 -44.02158056 228.51411164 -45.24031067 228.50336456 C-46.26338727 228.50271515 -47.28646387 228.50206574 -48.34054279 228.50139666 C-51.73107145 227.86216857 -52.91740016 226.70522716 -55 224 C-55.50336456 220.75750065 -55.50336456 220.75750065 -55.50793457 216.83302307 C-55.51417453 216.11034443 -55.5204145 215.3876658 -55.52684355 214.6430878 C-55.54280219 212.22079269 -55.5301588 209.7994999 -55.51757812 207.37719727 C-55.52299804 205.64089368 -55.53011997 203.9045947 -55.53881836 202.16830444 C-55.55707156 197.45129944 -55.54997562 192.73464393 -55.53730202 188.01763272 C-55.52718307 183.08319222 -55.53656477 178.14878187 -55.54284668 173.21434021 C-55.55012699 164.92628603 -55.54052603 156.63837435 -55.52148438 148.3503418 C-55.49972208 138.76745347 -55.50676079 129.18490562 -55.52879 119.60202557 C-55.54694162 111.37685213 -55.54950326 103.1517812 -55.53903532 94.9265942 C-55.53279817 90.01302856 -55.53197073 85.09962295 -55.54518127 80.18606758 C-55.55673543 75.56568975 -55.54872202 70.94575079 -55.52560425 66.32542038 C-55.52031452 64.62950176 -55.52183547 62.93354622 -55.53065491 61.23764229 C-55.54158426 58.92258294 -55.5278801 56.60893025 -55.50793457 54.29396057 C-55.50642647 52.99850595 -55.50491837 51.70305132 -55.50336456 50.36834049 C-54.61224115 44.40525273 -50.61632229 41.49153574 -46.0625 37.9375 C-41.70399509 34.44953535 -37.56969347 30.81952969 -33.5 27 C-28.77302928 22.57163328 -23.90776516 18.42267129 -18.84375 14.37890625 C-14.84106527 11.03050652 -11.06556517 7.44762994 -7.32617188 3.80859375 C-3.32417297 0 -3.32417297 0 0 0 Z " fill="#FBFCFA" transform="translate(138,207)"></path><path d="M0 0 C7.54328744 4.71718497 14.90647444 9.63865157 22.1875 14.75 C24.2106717 16.16444276 26.23411027 17.57850389 28.2578125 18.9921875 C29.2365332 19.67635742 30.21525391 20.36052734 31.22363281 21.06542969 C35.62144548 24.12982184 40.04103854 27.162376 44.47509766 30.17407227 C47.65587655 32.34459855 50.77669551 34.5654673 53.84375 36.89453125 C54.78238892 37.59763428 54.78238892 37.59763428 55.73999023 38.31494141 C56.91184432 39.19748175 58.07383878 40.09335307 59.22290039 41.00537109 C63.24039258 44.01525876 66.04322848 44.64307139 71 44 C73.5582046 42.95237993 73.5582046 42.95237993 75.875 41.25 C76.81730469 40.610625 77.75960937 39.97125 78.73046875 39.3125 C79.82144884 38.5432758 80.91120324 37.7723115 82 37 C83.30844161 36.08311618 84.61704468 35.16646275 85.92578125 34.25 C88.82952374 32.20971484 91.72513299 30.15837464 94.6171875 28.1015625 C98.65486009 25.23525866 102.72571465 22.42067749 106.8125 19.625 C116.26036925 13.15788726 125.62933415 6.57826527 135 0 C140.22302966 4.32111475 144.89927403 8.90263723 149.5 13.875 C150.1914209 14.6160498 150.8828418 15.35709961 151.59521484 16.12060547 C153.02940421 17.65786598 154.46217971 19.19644674 155.89355469 20.73632812 C158.50845651 23.54640806 161.13546573 26.34496216 163.76342773 29.14282227 C169.16692516 34.89639546 174.55484569 40.66443359 179.9375 46.4375 C184.92317565 51.78438493 189.92535365 57.11542383 194.9375 62.4375 C195.9265332 63.4884082 195.9265332 63.4884082 196.93554688 64.56054688 C200.39073348 68.23147196 203.84941762 71.89902225 207.3125 75.5625 C208.68756293 77.020774 210.06256512 78.47910527 211.4375 79.9375 C212.08259521 80.61804443 212.72769043 81.29858887 213.39233398 81.99975586 C214.27900757 82.94153687 214.27900757 82.94153687 215.18359375 83.90234375 C215.70493896 84.45398193 216.22628418 85.00562012 216.76342773 85.57397461 C218 87 218 87 219 89 C119.34 89 19.68 89 -83 89 C-76.25021745 81.1252537 -76.25021745 81.1252537 -73.87890625 78.59765625 C-73.34402588 78.0260376 -72.80914551 77.45441895 -72.25805664 76.86547852 C-71.4187561 75.97300415 -71.4187561 75.97300415 -70.5625 75.0625 C-69.95978271 74.41917725 -69.35706543 73.77585449 -68.73608398 73.11303711 C-66.82536232 71.07412873 -64.91267462 69.03707623 -63 67 C-61.76024268 65.67724638 -60.52065791 64.35433102 -59.28125 63.03125 C-56.15245312 59.69169874 -53.02203892 56.35366871 -49.89111328 53.01611328 C-46.76003342 49.67807332 -43.63007036 46.33898654 -40.5 43 C-39.25000541 41.66666159 -38.00000541 40.33332826 -36.75 39 C-36.13125 38.34 -35.5125 37.68 -34.875 37 C-33 35 -31.125 33 -29.25 31 C-28.6302832 30.33895264 -28.01056641 29.67790527 -27.37207031 28.99682617 C-26.13190101 27.67401126 -24.89166746 26.35125657 -23.65136719 25.02856445 C-20.37540682 21.53481051 -17.10082645 18.0397758 -13.828125 14.54296875 C-13.14556641 13.81400391 -12.46300781 13.08503906 -11.75976562 12.33398438 C-10.45076083 10.93593163 -9.14214712 9.53751257 -7.83398438 8.13867188 C-7.24423828 7.50896484 -6.65449219 6.87925781 -6.046875 6.23046875 C-5.52963867 5.67770264 -5.01240234 5.12493652 -4.47949219 4.55541992 C-3.01065133 3.01119795 -1.51356382 1.5003018 0 0 Z " fill="#388020" transform="translate(188,333)"></path><path d="M0 0 C0.80898994 -0.00467997 1.61797989 -0.00935994 2.45148468 -0.01418173 C5.17159757 -0.02618063 7.89121119 -0.01665553 10.61132812 -0.00723267 C12.55762019 -0.0112962 14.50390995 -0.01663684 16.45019531 -0.02316284 C21.74349598 -0.03686824 27.03662172 -0.03152449 32.32992554 -0.02202559 C37.86188234 -0.01444567 43.39382388 -0.02146995 48.92578125 -0.02618408 C58.21682431 -0.03164651 67.50779591 -0.02443725 76.79882812 -0.01016235 C87.55012998 0.00616507 98.30126118 0.0008769 109.0525589 -0.01564157 C118.272987 -0.02924257 127.49336364 -0.03118289 136.71379852 -0.02332556 C142.22532449 -0.01864142 147.73677017 -0.01804453 153.24829102 -0.02793503 C158.42915867 -0.03658226 163.60980567 -0.03062391 168.79064941 -0.01325226 C170.69543084 -0.0092754 172.60023074 -0.01044185 174.50500488 -0.01704025 C177.0986419 -0.0251986 179.69156512 -0.01500381 182.28515625 0 C183.04477913 -0.00669217 183.80440201 -0.01338433 184.58704376 -0.02027929 C187.37406228 0.01114534 189.61910308 0.1047722 192.11111927 1.41952801 C193.75255585 4.54088502 193.543431 7.70394454 193.50334167 11.14466858 C193.50590495 11.94352456 193.50846822 12.74238055 193.51110917 13.56544429 C193.51606363 16.25113862 193.49952698 18.9362749 193.4831543 21.62191772 C193.48230838 23.54351793 193.48278247 25.46511911 193.48448181 27.38671875 C193.48534458 32.61166554 193.46767323 37.83640684 193.44675994 43.06130576 C193.42804006 48.51857707 193.4262464 53.97585279 193.42268372 59.43315125 C193.41334945 69.77101776 193.38871697 80.1087894 193.35863525 90.44661409 C193.32513421 102.21428197 193.30861604 113.98195431 193.29354894 125.74965799 C193.26216862 149.96014162 193.20938129 174.17054097 193.14257812 198.38095093 C189.18257812 198.38095093 185.22257813 198.38095093 181.14257812 198.38095093 C181.14257812 137.00095093 181.14257812 75.62095093 181.14257812 12.38095093 C121.74257813 12.38095093 62.34257812 12.38095093 1.14257812 12.38095093 C1.14257812 73.76095093 1.14257812 135.14095093 1.14257812 198.38095093 C-2.81742188 198.38095093 -6.77742187 198.38095093 -10.85742188 198.38095093 C-10.92743297 173.00794114 -10.98037126 147.63494578 -11.01285839 122.26185894 C-11.02834214 110.48129235 -11.04946043 98.70078569 -11.08374023 86.92025757 C-11.11359646 76.65505221 -11.1329859 66.38989024 -11.13968736 56.12464267 C-11.14360603 50.6868225 -11.15284667 45.24912651 -11.17461205 39.81134605 C-11.19491756 34.69703609 -11.20126773 29.5829019 -11.19674492 24.46855545 C-11.19757279 22.58795149 -11.20357364 20.70734188 -11.2150383 18.82677269 C-11.22988969 16.26585277 -11.22640265 13.7056029 -11.21818542 11.14466858 C-11.22692395 10.39467219 -11.23566247 9.64467579 -11.2446658 8.87195224 C-11.22057652 6.10844599 -11.12600616 3.891691 -9.82596302 1.41952801 C-6.6789138 -0.24081483 -3.47215581 -0.03058918 0 0 Z " fill="#FEFEFE" transform="translate(164.857421875,76.61904907226563)"></path><path d="M0 0 C3.54818207 1.41927283 5.71666316 2.3173399 8.64453125 4.43359375 C9.31242676 4.91151367 9.98032227 5.38943359 10.66845703 5.88183594 C11.37599121 6.39520508 12.08352539 6.90857422 12.8125 7.4375 C14.34704945 8.53600441 15.88221918 9.63364278 17.41796875 10.73046875 C18.57498291 11.55877197 18.57498291 11.55877197 19.75537109 12.40380859 C23.01897703 14.72461081 26.31871695 16.99059958 29.625 19.25 C37.26754648 24.48256912 44.86883068 29.77353111 52.46850586 35.06811523 C59.00369891 39.61848537 65.55329611 44.14688185 72.12890625 48.63867188 C75.13617865 50.69714326 78.10766656 52.78230513 81 55 C79.5158627 58.48654476 77.53785948 60.64191072 74.8125 63.25 C71.89341371 66.09914013 69.09011446 68.96370846 66.4375 72.0625 C63.44282544 75.5551343 60.24562463 78.77353883 56.96875 82 C55.06013545 83.93891002 53.27289448 85.93699551 51.5 88 C48.48237647 91.51141648 45.26640919 94.75307402 41.96875 98 C40.06013545 99.93891002 38.27289448 101.93699551 36.5 104 C33.48237647 107.51141648 30.26640919 110.75307402 26.96875 114 C25.06013545 115.93891002 23.27289448 117.93699551 21.5 120 C18.48891993 123.50380226 15.2822969 126.74011217 11.98828125 129.9765625 C9.3646962 132.64653707 6.94749566 135.46878189 4.54296875 138.3359375 C3 140 3 140 0 142 C0 95.14 0 48.28 0 0 Z " fill="#327B1D" transform="translate(96,270)"></path><path d="M0 0 C0 46.86 0 93.72 0 142 C-4.43511569 138.19847227 -8.13757245 134.94317251 -11.9375 130.6875 C-12.88816879 129.63307288 -13.84006802 128.57975427 -14.79296875 127.52734375 C-15.55939697 126.68018799 -15.55939697 126.68018799 -16.34130859 125.81591797 C-19.4390184 122.42457774 -22.5972 119.09004251 -25.75 115.75 C-27.12894119 114.28779336 -28.50784722 112.82555357 -29.88671875 111.36328125 C-30.57169434 110.63705566 -31.25666992 109.91083008 -31.96240234 109.16259766 C-35.16845107 105.75986825 -38.3659033 102.34910688 -41.5625 98.9375 C-42.17706055 98.28168945 -42.79162109 97.62587891 -43.42480469 96.95019531 C-44.66362333 95.62813846 -45.90239297 94.3060357 -47.14111328 92.98388672 C-49.63547583 90.32179189 -52.13051742 87.66033447 -54.62597656 84.99926758 C-55.86683985 83.6754753 -57.10708317 82.3511016 -58.34667969 81.02612305 C-61.619262 77.52970438 -64.90411507 74.04592105 -68.20703125 70.578125 C-69.23763672 69.49144531 -69.23763672 69.49144531 -70.2890625 68.3828125 C-71.60686906 66.99377315 -72.92830998 65.60816988 -74.25390625 64.2265625 C-74.846875 63.60007812 -75.43984375 62.97359375 -76.05078125 62.328125 C-76.57325439 61.7805957 -77.09572754 61.23306641 -77.6340332 60.66894531 C-79.09760496 58.88074575 -80.04518339 57.09768152 -81 55 C-72.63958532 48.95813426 -64.19585619 43.05387337 -55.67138672 37.24584961 C-48.20516618 32.15390197 -40.78735432 26.99390544 -33.37329102 21.82641602 C-26.97778711 17.37061643 -20.56836725 12.93618013 -14.1340332 8.53662109 C-13.55355225 8.13910645 -12.97307129 7.7415918 -12.375 7.33203125 C-11.82199219 6.95385254 -11.26898438 6.57567383 -10.69921875 6.18603516 C-8.83877624 4.88746767 -7.01576535 3.54261682 -5.1875 2.19921875 C-2 0 -2 0 0 0 Z " fill="#488E29" transform="translate(416,270)"></path><path d="M0 0 C6.78098142 -0.0740655 13.56172825 -0.12856234 20.34301758 -0.16479492 C22.65067648 -0.17989676 24.95830661 -0.20037969 27.26586914 -0.22631836 C30.57966199 -0.26263975 33.89307592 -0.27971236 37.20703125 -0.29296875 C38.2414888 -0.30845261 39.27594635 -0.32393646 40.3417511 -0.33988953 C41.3025206 -0.34011612 42.2632901 -0.34034271 43.25317383 -0.34057617 C44.09922684 -0.34723801 44.94527985 -0.35389984 45.81697083 -0.36076355 C48 0 48 0 49.77539062 1.22460938 C51.37043796 3.53704642 51.36261128 4.9483671 51.34057617 7.74682617 C51.34034958 8.70759567 51.34012299 9.66836517 51.33988953 10.6582489 C51.32440567 11.69270645 51.30892181 12.727164 51.29296875 13.79296875 C51.28872391 14.85413406 51.28447906 15.91529938 51.28010559 17.00862122 C51.26329706 20.40183765 51.22564019 23.79446272 51.1875 27.1875 C51.172456 29.48631956 51.15876711 31.78514841 51.14648438 34.08398438 C51.1133863 39.72288451 51.06158843 45.36134196 51 51 C47.04 51 43.08 51 39 51 C38.67 41.76 38.34 32.52 38 23 C36.61699707 24.38823975 35.23399414 25.77647949 33.80908203 27.20678711 C29.24500592 31.78697196 24.67862686 36.36485051 20.11065865 40.94115353 C17.34050902 43.71652733 14.5712996 46.49282601 11.80419922 49.27124023 C9.13502401 51.95126077 6.4634313 54.62884905 3.7901268 57.30475044 C2.76935771 58.32737081 1.74947085 59.35087258 0.73047256 60.37525749 C-0.69412844 61.80709065 -2.12212989 63.23553813 -3.55029297 64.66381836 C-4.3630368 65.47878281 -5.17578064 66.29374725 -6.01315308 67.13340759 C-8.41106653 69.38618661 -9.48126181 69.93147351 -12.75 70.36328125 C-16.95970419 69.89272537 -19.02305323 67.97148357 -22 65.1875 C-23.12674454 64.18246708 -24.25573408 63.17994652 -25.38671875 62.1796875 C-25.97114746 61.65858398 -26.55557617 61.13748047 -27.15771484 60.60058594 C-30.28225164 57.88597379 -33.54493576 55.35156498 -36.8125 52.8125 C-37.42931641 52.33127686 -38.04613281 51.85005371 -38.68164062 51.35424805 C-40.11936633 50.23394497 -41.55941084 49.11661858 -43 48 C-46.22745524 49.41901662 -48.37258107 51.12855765 -50.85058594 53.62353516 C-51.59105164 54.36415192 -52.33151733 55.10476868 -53.09442139 55.86782837 C-54.27744843 57.06633926 -54.27744843 57.06633926 -55.484375 58.2890625 C-56.29996887 59.10748627 -57.11556274 59.92591003 -57.95587158 60.76913452 C-60.55864562 63.38309973 -63.15437762 66.00393505 -65.75 68.625 C-67.5138634 70.39889454 -69.2781809 72.17233766 -71.04296875 73.9453125 C-75.36726136 78.29165142 -79.6857933 82.64365081 -84 87 C-87.21043882 85.61811547 -89.04936365 84.07578097 -91.25 81.375 C-92.03117188 80.42753906 -92.03117188 80.42753906 -92.828125 79.4609375 C-93.21484375 78.97882813 -93.6015625 78.49671875 -94 78 C-88.12373857 71.98466603 -82.23140361 65.98574584 -76.31790733 60.0070343 C-73.57246789 57.23029327 -70.83288219 54.44825522 -68.10595703 51.65332031 C-65.47366751 48.95579784 -62.82695169 46.27323682 -60.16963577 43.60037231 C-59.15886537 42.57852273 -58.15338769 41.55140945 -57.15339279 40.51901245 C-55.7510156 39.07303388 -54.32780275 37.64735147 -52.90380859 36.22265625 C-52.0999472 35.40547119 -51.29608582 34.58828613 -50.46786499 33.74633789 C-47.38570092 31.5653029 -45.70220003 31.51803215 -42 32 C-39.09765625 33.765625 -39.09765625 33.765625 -36.0625 36.25 C-35.51762939 36.68876465 -34.97275879 37.1275293 -34.41137695 37.57958984 C-33.23263243 38.53049583 -32.05888989 39.48762829 -30.88964844 40.45019531 C-28.88103799 42.09756729 -26.85346876 43.71897367 -24.8203125 45.3359375 C-21.20391487 48.21212688 -17.59939367 51.10256277 -14 54 C-10.7875001 52.58473458 -8.63853492 50.88691567 -6.1652832 48.40820312 C-5.4280452 47.67404175 -4.69080719 46.93988037 -3.93122864 46.18347168 C-3.145681 45.39073853 -2.36013336 44.59800537 -1.55078125 43.78125 C-0.73755905 42.96756958 0.07566315 42.15388916 0.91352844 41.31555176 C2.62970204 39.59635925 4.3434467 37.87473912 6.05493164 36.15087891 C8.68257743 33.50495681 11.31815708 30.86714398 13.95507812 28.23046875 C15.62026485 26.56036749 17.28499423 24.88981008 18.94921875 23.21875 C19.74083908 22.42601685 20.53245941 21.63328369 21.34806824 20.81652832 C22.07584976 20.08236694 22.80363129 19.34820557 23.5534668 18.59179688 C24.19648239 17.94496948 24.83949799 17.29814209 25.5019989 16.63171387 C27.08693362 15.05567051 27.08693362 15.05567051 28 13 C18.76 13 9.52 13 0 13 C0 8.71 0 4.42 0 0 Z " fill="#FCFDFB" transform="translate(275,141)"></path></svg>