<svg version="1.1" xmlns="http://www.w3.org/2000/svg" width="16px" height="16px" fill="currentColor" viewBox="0 0 512 512"><path d="M0 0 C168.96 0 337.92 0 512 0 C512 168.96 512 337.92 512 512 C343.04 512 174.08 512 0 512 C0 343.04 0 174.08 0 0 Z " fill="#D72B6B" transform="translate(0,0)"></path><path d="M0 0 C1.05951664 -0.00679667 1.05951664 -0.00679667 2.14043766 -0.01373065 C4.50718954 -0.02639061 6.87371178 -0.02475328 9.24049377 -0.02310181 C10.93738603 -0.029086 12.63427556 -0.0358913 14.3311615 -0.04345703 C18.94063202 -0.06113378 23.55002831 -0.06581307 28.15952945 -0.0670886 C32.00655498 -0.06898729 35.85356321 -0.07634434 39.70058209 -0.08343279 C48.7755811 -0.09972017 57.85054042 -0.10460137 66.92555237 -0.10317993 C76.29029432 -0.1019779 85.65480603 -0.12309127 95.01948971 -0.15466726 C103.05780957 -0.18080621 111.09605411 -0.19154825 119.13441616 -0.19026911 C123.93622464 -0.18975884 128.73782846 -0.19547796 133.53959465 -0.21662521 C138.05487999 -0.23596794 142.56976458 -0.23615939 147.08506393 -0.22159195 C148.74229453 -0.21949792 150.39954996 -0.22424007 152.0567379 -0.23631287 C154.31922265 -0.25172802 156.58031904 -0.24248367 158.84277344 -0.22705078 C160.74170931 -0.22868508 160.74170931 -0.22868508 162.67900753 -0.2303524 C166.57145915 0.35574928 168.21486735 1.52624284 170.98487854 4.26742554 C172.17660836 6.65088517 172.11832441 8.12127554 172.13204956 10.78198242 C172.14278252 12.20758484 172.14278252 12.20758484 172.1537323 13.6619873 C172.1564212 14.70821259 172.15911011 15.75443787 172.16188049 16.83236694 C172.16845169 17.9317157 172.17502289 19.03106445 172.18179321 20.16372681 C172.20156318 23.81548119 172.21319834 27.46719434 172.22315979 31.11898804 C172.22723532 32.36488079 172.23131084 33.61077354 172.23550987 34.89442062 C172.2542337 40.81043779 172.26879404 46.72644183 172.27712184 52.64248145 C172.28687991 59.46152937 172.31315911 66.28025144 172.35362273 73.09918463 C172.38749877 79.01196158 172.39927343 84.92465935 172.40332603 90.83753586 C172.40819582 93.34850648 172.41982084 95.85947353 172.43836403 98.3703804 C172.46273109 101.88922193 172.46179406 105.40721673 172.45484924 108.92611694 C172.47406433 110.47723679 172.47406433 110.47723679 172.4936676 112.05969238 C172.44881866 118.30745322 171.58880242 123.06385745 167.98487854 128.26742554 C163.04616182 133.07950849 158.44231863 134.52176397 151.63404846 134.49447632 C149.74265388 134.49424973 149.74265388 134.49424973 147.81304932 134.49401855 C146.44714702 134.4838069 145.08124635 134.47337493 143.71534729 134.46273804 C142.31001995 134.45900494 140.90469001 134.45615937 139.49935913 134.4541626 C135.81188186 134.44654943 132.12456372 134.42692106 128.43714905 134.40475464 C124.66987765 134.38424613 120.90258038 134.3751502 117.13526917 134.36508179 C109.75173331 134.34367279 102.36832828 134.30956508 94.98487854 134.26742554 C94.99487129 135.17824638 94.99487129 135.17824638 95.00506592 136.10746765 C95.07134741 142.41748774 95.11664918 148.72740921 95.14967346 155.03768921 C95.16477601 157.39384985 95.18525945 159.74998231 95.2111969 162.10604858 C95.2475151 165.48933866 95.26459021 168.87225762 95.27784729 172.25570679 C95.29333115 173.31203812 95.308815 174.36836945 95.32476807 175.45671082 C95.32499466 176.43750107 95.32522125 177.41829132 95.32545471 178.42880249 C95.33544746 179.72452934 95.33544746 179.72452934 95.34564209 181.0464325 C94.90305454 183.77116414 94.18937786 184.64698095 91.98487854 186.26742554 C88.66590834 186.72279876 86.81586046 186.87794287 84.07081604 184.86117554 C83.50620667 184.17023804 82.94159729 183.47930054 82.35987854 182.76742554 C81.68440979 181.94758179 81.00894104 181.12773804 80.31300354 180.28305054 C76.49219708 175.33395224 72.72181214 170.350371 69.00050354 165.32601929 C65.57665106 160.70468854 62.1072033 156.12546483 58.49488831 151.64950562 C56.73372109 149.3914547 55.5705362 147.44646044 54.25514221 144.84017944 C51.98375939 140.79669519 50.02054657 137.67187756 45.98487854 135.26742554 C37.43139621 133.06184364 28.1633717 133.99335209 19.42237854 134.32992554 C15.80146562 134.43198765 12.18236957 134.51473789 8.56033325 134.56318665 C6.31570018 134.59690795 4.07123826 134.66280124 1.82873535 134.76622009 C-4.61139933 134.90648289 -8.73185495 133.97786389 -14.08187866 130.34895325 C-19.80116992 124.190977 -20.60211157 117.89840629 -20.53269958 109.75570679 C-20.53970886 108.73351044 -20.54671814 107.71131409 -20.55393982 106.65814209 C-20.57146264 103.29845555 -20.55991682 99.9396198 -20.54637146 96.57992554 C-20.549068 94.23397664 -20.55295177 91.88802883 -20.55796814 89.54208374 C-20.56385548 84.63303961 -20.55532451 79.72428724 -20.53660583 74.8152771 C-20.51381721 68.53395868 -20.52694433 62.253324 -20.55089569 55.97203064 C-20.56537407 51.13004437 -20.56073822 46.28821925 -20.55038452 41.44622803 C-20.5477229 39.13065509 -20.55096705 36.81506736 -20.56030273 34.49951172 C-20.57050152 31.25899695 -20.55491948 28.0195778 -20.53269958 24.77914429 C-20.54079651 23.82929657 -20.54889343 22.87944885 -20.55723572 21.90081787 C-20.4810311 15.87881578 -19.44655853 11.2929139 -16.01512146 6.26742554 C-10.87299349 1.38240396 -7.0562258 0.01868729 0 0 Z " fill="#DC306F" transform="translate(135.01512145996094,76.73257446289063)"></path><path d="M0 0 C1.31478333 0.00636726 1.31478333 0.00636726 2.65612793 0.01286316 C5.42732823 0.02951745 8.19777336 0.06714366 10.96875 0.10546875 C12.85936442 0.12053276 14.74999036 0.13421815 16.640625 0.14648438 C21.25028639 0.17937736 25.85939062 0.2310662 30.46875 0.29296875 C30.46875 4.58296875 30.46875 8.87296875 30.46875 13.29296875 C29.33969238 13.29184082 28.21063477 13.29071289 27.04736328 13.28955078 C22.81623395 13.29325096 18.5862258 13.33630715 14.35546875 13.390625 C12.53230055 13.40867617 10.70899678 13.41637345 8.88574219 13.41308594 C-5.92606516 13.18980301 -5.92606516 13.18980301 -18.53125 20.29296875 C-24.96362989 27.26028921 -25.83125864 34.76675235 -25.82177734 43.92504883 C-25.82849457 44.865858 -25.83521179 45.80666718 -25.84213257 46.77598572 C-25.86105659 49.87154491 -25.86503395 52.96688664 -25.8671875 56.0625 C-25.87361931 58.22572416 -25.88034795 60.38894745 -25.88735962 62.5521698 C-25.8993184 67.08208227 -25.90304188 71.61191856 -25.90185547 76.1418457 C-25.90165236 81.92859983 -25.92895246 87.7148624 -25.96339989 93.50150013 C-25.98570534 97.96866574 -25.98969189 102.43571372 -25.98863602 106.90292931 C-25.99098655 109.03544496 -25.99977902 111.16796412 -26.01530075 113.30042458 C-26.03503429 116.29152879 -26.02909363 119.28158167 -26.01708984 122.27270508 C-26.03394836 123.57683853 -26.03394836 123.57683853 -26.05114746 124.90731812 C-25.97487941 132.43702537 -23.7040692 138.67160342 -19.84375 145.10546875 C-13.46353509 151.14080718 -7.1352111 153.03597602 1.48118591 152.92788696 C2.44962199 152.93568692 3.41805806 152.94348687 4.41584069 152.95152318 C7.64017034 152.97136475 10.86330942 152.95570879 14.08764648 152.93994141 C16.40770147 152.94672102 18.72775108 152.95562607 21.04779053 152.9664917 C27.33505326 152.98925157 33.62190493 152.98046166 39.90917468 152.96459627 C45.82799239 152.95320483 51.74675978 152.96190952 57.66557885 152.96923225 C70.10383969 152.98347147 82.54191592 152.96712643 94.98014648 152.94023041 C105.63732877 152.91789846 116.29423865 152.92176952 126.95141602 152.94482422 C139.34535214 152.97162373 151.73912664 152.98209284 164.13308769 152.9667629 C170.68715932 152.95897877 177.24104358 152.95789838 183.79510307 152.97444534 C189.95864858 152.98891984 196.12168123 152.97881301 202.28517151 152.94997406 C204.54338798 152.94337901 206.80164783 152.94523372 209.05984688 152.95628738 C212.15025168 152.97001653 215.23902848 152.95273677 218.32933044 152.92788696 C219.2162177 152.93904057 220.10310495 152.95019418 221.01686758 152.96168578 C228.34720423 152.84789188 235.12058598 150.65476383 240.39203352 145.36185515 C246.36410667 138.18816317 247.92339564 129.89607818 247.85693359 120.78515625 C247.86219055 119.88146301 247.86744751 118.97776978 247.87286377 118.04669189 C247.88596782 115.08693684 247.87735984 112.12772839 247.8671875 109.16796875 C247.86921099 107.09488828 247.87212472 105.02180851 247.87588501 102.94873047 C247.88029538 98.61483956 247.87391879 94.2811348 247.85986328 89.94726562 C247.84277231 84.40938497 247.85262039 78.8719406 247.87058067 73.33407593 C247.88145329 69.05652618 247.87795622 64.77907881 247.8701973 60.50152588 C247.8682049 58.46030627 247.87062057 56.41907718 247.87763596 54.37786865 C247.88530782 51.51859126 247.87356626 48.66000738 247.85693359 45.80078125 C247.86604263 44.55207245 247.86604263 44.55207245 247.87533569 43.27813721 C247.77528251 33.93102566 244.96137223 26.07656458 238.46875 19.29296875 C231.60538755 13.95138716 225.0563292 13.57144683 216.60522461 13.63354492 C215.34569977 13.62306122 214.08617493 13.61257751 212.78848267 13.60177612 C209.36125561 13.57380341 205.9346581 13.57607001 202.50735164 13.58406997 C198.91582448 13.58720971 195.32449275 13.56211802 191.73304749 13.54011536 C184.9440704 13.50276445 178.15529359 13.49053271 171.36622387 13.48749095 C163.63208814 13.48279035 155.89815181 13.44983507 148.16410434 13.4145931 C132.26566092 13.34277667 116.36735513 13.3071629 100.46875 13.29296875 C100.46875 9.00296875 100.46875 4.71296875 100.46875 0.29296875 C117.13280832 0.22341755 133.79680645 0.16993161 150.46097469 0.13753223 C158.19904978 0.12208644 165.93703283 0.10104088 173.67504883 0.06665039 C180.42226731 0.03667774 187.16941911 0.01737713 193.91670233 0.01070327 C197.48685405 0.00680427 201.05681505 -0.00231067 204.62690544 -0.02422142 C208.61976328 -0.04852633 212.61229296 -0.04899622 216.60522461 -0.04760742 C218.36605629 -0.06378616 218.36605629 -0.06378616 220.16246033 -0.08029175 C232.01243064 -0.03577609 240.98066669 3.18450733 249.671875 11.3671875 C254.23041052 16.20430019 257.34125869 20.9947519 259.46875 27.29296875 C259.8296875 28.34355469 260.190625 29.39414062 260.5625 30.4765625 C261.63749703 35.0035974 261.69068835 39.1035268 261.59375 43.73046875 C261.58472656 44.55740234 261.57570313 45.38433594 261.56640625 46.23632812 C261.54306512 48.25533583 261.50720288 50.27419231 261.46875 52.29296875 C262.08621094 52.41671875 262.70367187 52.54046875 263.33984375 52.66796875 C271.8906767 54.75036338 277.3129075 58.79670655 282.36328125 65.9921875 C287.25899571 74.57975221 287.90210486 82.74647668 285.80078125 92.34375 C282.93525714 101.39079774 277.52292851 107.41562697 269.55859375 112.3828125 C266.9059917 113.53805788 264.32518189 113.90805949 261.46875 114.29296875 C261.51515625 115.36933594 261.5615625 116.44570313 261.609375 117.5546875 C262.03528832 131.63573805 259.97447048 143.29653446 250.46875 154.29296875 C243.83005928 161.21104325 236.28563064 166.11523649 226.53302002 166.41322327 C224.90905865 166.41611803 223.28508177 166.41347357 221.66113281 166.40649414 C220.77297379 166.40664017 219.88481476 166.40678619 218.96974182 166.40693665 C216.03709462 166.40624055 213.1045111 166.39846232 210.171875 166.390625 C208.1373498 166.38875974 206.10282415 166.38733635 204.06829834 166.38633728 C198.71550251 166.38252059 193.36273384 166.37269751 188.00994873 166.3616333 C182.54700081 166.35140097 177.08404849 166.34683575 171.62109375 166.34179688 C160.90363198 166.3310745 150.1861975 166.31348454 139.46875 166.29296875 C139.46875 179.16296875 139.46875 192.03296875 139.46875 205.29296875 C135.17875 205.29296875 130.88875 205.29296875 126.46875 205.29296875 C126.46875 192.42296875 126.46875 179.55296875 126.46875 166.29296875 C113.92875 166.29296875 101.38875 166.29296875 88.46875 166.29296875 C88.46875 179.16296875 88.46875 192.03296875 88.46875 205.29296875 C84.17875 205.29296875 79.88875 205.29296875 75.46875 205.29296875 C75.46875 192.42296875 75.46875 179.55296875 75.46875 166.29296875 C69.59320313 166.32777344 63.71765625 166.36257813 57.6640625 166.3984375 C53.92707331 166.41377805 50.1901233 166.42822078 46.453125 166.43945312 C40.53019074 166.45734055 34.60739649 166.47843157 28.68457031 166.51928711 C23.90590766 166.55204146 19.1273953 166.56985551 14.348629 166.57760048 C12.53149935 166.58311525 10.7143773 166.59388384 8.89731216 166.61015892 C-6.00519639 166.73824896 -16.96296583 165.70797305 -28.53125 155.29296875 C-39.56157628 143.13918332 -40.1170512 129.84924508 -39.53125 114.29296875 C-40.59214844 114.18082031 -41.65304688 114.06867188 -42.74609375 113.953125 C-49.52371347 112.77106336 -54.57184872 108.86127009 -58.84375 103.54296875 C-63.99478891 95.99576411 -66.71282646 88.46086319 -65.53125 79.29296875 C-63.40345508 68.94484384 -58.4527823 61.43211593 -49.59375 55.54296875 C-46.3134922 53.41450578 -43.39804373 52.79900719 -39.53125 52.29296875 C-39.57765625 50.97683594 -39.6240625 49.66070312 -39.671875 48.3046875 C-40.03516871 33.79227785 -38.61452004 22.52967558 -28.53125 11.29296875 C-19.73806621 3.57596566 -11.63106351 -0.21602754 0 0 Z " fill="#FDF9FA" transform="translate(148.53125,236.70703125)"></path><path d="M0 0 C1.05951664 -0.00679667 1.05951664 -0.00679667 2.14043766 -0.01373065 C4.50718954 -0.02639061 6.87371178 -0.02475328 9.24049377 -0.02310181 C10.93738603 -0.029086 12.63427556 -0.0358913 14.3311615 -0.04345703 C18.94063202 -0.06113378 23.55002831 -0.06581307 28.15952945 -0.0670886 C32.00655498 -0.06898729 35.85356321 -0.07634434 39.70058209 -0.08343279 C48.7755811 -0.09972017 57.85054042 -0.10460137 66.92555237 -0.10317993 C76.29029432 -0.1019779 85.65480603 -0.12309127 95.01948971 -0.15466726 C103.05780957 -0.18080621 111.09605411 -0.19154825 119.13441616 -0.19026911 C123.93622464 -0.18975884 128.73782846 -0.19547796 133.53959465 -0.21662521 C138.05487999 -0.23596794 142.56976458 -0.23615939 147.08506393 -0.22159195 C148.74229453 -0.21949792 150.39954996 -0.22424007 152.0567379 -0.23631287 C154.31922265 -0.25172802 156.58031904 -0.24248367 158.84277344 -0.22705078 C160.74170931 -0.22868508 160.74170931 -0.22868508 162.67900753 -0.2303524 C166.57145915 0.35574928 168.21486735 1.52624284 170.98487854 4.26742554 C172.17660836 6.65088517 172.11832441 8.12127554 172.13204956 10.78198242 C172.14278252 12.20758484 172.14278252 12.20758484 172.1537323 13.6619873 C172.1564212 14.70821259 172.15911011 15.75443787 172.16188049 16.83236694 C172.16845169 17.9317157 172.17502289 19.03106445 172.18179321 20.16372681 C172.20156318 23.81548119 172.21319834 27.46719434 172.22315979 31.11898804 C172.22723532 32.36488079 172.23131084 33.61077354 172.23550987 34.89442062 C172.2542337 40.81043779 172.26879404 46.72644183 172.27712184 52.64248145 C172.28687991 59.46152937 172.31315911 66.28025144 172.35362273 73.09918463 C172.38749877 79.01196158 172.39927343 84.92465935 172.40332603 90.83753586 C172.40819582 93.34850648 172.41982084 95.85947353 172.43836403 98.3703804 C172.46273109 101.88922193 172.46179406 105.40721673 172.45484924 108.92611694 C172.47406433 110.47723679 172.47406433 110.47723679 172.4936676 112.05969238 C172.44881866 118.30745322 171.58880242 123.06385745 167.98487854 128.26742554 C163.04616182 133.07950849 158.44231863 134.52176397 151.63404846 134.49447632 C149.74265388 134.49424973 149.74265388 134.49424973 147.81304932 134.49401855 C146.44714702 134.4838069 145.08124635 134.47337493 143.71534729 134.46273804 C142.31001995 134.45900494 140.90469001 134.45615937 139.49935913 134.4541626 C135.81188186 134.44654943 132.12456372 134.42692106 128.43714905 134.40475464 C124.66987765 134.38424613 120.90258038 134.3751502 117.13526917 134.36508179 C109.75173331 134.34367279 102.36832828 134.30956508 94.98487854 134.26742554 C94.99487129 135.17824638 94.99487129 135.17824638 95.00506592 136.10746765 C95.07134741 142.41748774 95.11664918 148.72740921 95.14967346 155.03768921 C95.16477601 157.39384985 95.18525945 159.74998231 95.2111969 162.10604858 C95.2475151 165.48933866 95.26459021 168.87225762 95.27784729 172.25570679 C95.29333115 173.31203812 95.308815 174.36836945 95.32476807 175.45671082 C95.32499466 176.43750107 95.32522125 177.41829132 95.32545471 178.42880249 C95.33544746 179.72452934 95.33544746 179.72452934 95.34564209 181.0464325 C94.90305454 183.77116414 94.18937786 184.64698095 91.98487854 186.26742554 C88.66590834 186.72279876 86.81586046 186.87794287 84.07081604 184.86117554 C83.50620667 184.17023804 82.94159729 183.47930054 82.35987854 182.76742554 C81.68440979 181.94758179 81.00894104 181.12773804 80.31300354 180.28305054 C76.49219708 175.33395224 72.72181214 170.350371 69.00050354 165.32601929 C65.57665106 160.70468854 62.1072033 156.12546483 58.49488831 151.64950562 C56.73372109 149.3914547 55.5705362 147.44646044 54.25514221 144.84017944 C51.98375939 140.79669519 50.02054657 137.67187756 45.98487854 135.26742554 C37.43139621 133.06184364 28.1633717 133.99335209 19.42237854 134.32992554 C15.80146562 134.43198765 12.18236957 134.51473789 8.56033325 134.56318665 C6.31570018 134.59690795 4.07123826 134.66280124 1.82873535 134.76622009 C-4.61139933 134.90648289 -8.73185495 133.97786389 -14.08187866 130.34895325 C-19.80116992 124.190977 -20.60211157 117.89840629 -20.53269958 109.75570679 C-20.53970886 108.73351044 -20.54671814 107.71131409 -20.55393982 106.65814209 C-20.57146264 103.29845555 -20.55991682 99.9396198 -20.54637146 96.57992554 C-20.549068 94.23397664 -20.55295177 91.88802883 -20.55796814 89.54208374 C-20.56385548 84.63303961 -20.55532451 79.72428724 -20.53660583 74.8152771 C-20.51381721 68.53395868 -20.52694433 62.253324 -20.55089569 55.97203064 C-20.56537407 51.13004437 -20.56073822 46.28821925 -20.55038452 41.44622803 C-20.5477229 39.13065509 -20.55096705 36.81506736 -20.56030273 34.49951172 C-20.57050152 31.25899695 -20.55491948 28.0195778 -20.53269958 24.77914429 C-20.54079651 23.82929657 -20.54889343 22.87944885 -20.55723572 21.90081787 C-20.4810311 15.87881578 -19.44655853 11.2929139 -16.01512146 6.26742554 C-10.87299349 1.38240396 -7.0562258 0.01868729 0 0 Z M-5.01512146 13.26742554 C-7.07414862 16.35596628 -7.26556038 16.99186096 -7.26908875 20.48031616 C-7.27472839 21.33834839 -7.28036804 22.19638062 -7.28617859 23.08041382 C-7.28213013 24.01869019 -7.27808167 24.95696655 -7.27391052 25.92367554 C-7.27741516 26.91415894 -7.2809198 27.90464233 -7.28453064 28.92514038 C-7.29334804 32.20597296 -7.2874987 35.48659069 -7.28074646 38.76742554 C-7.28209311 41.04281658 -7.28403363 43.31820735 -7.2865448 45.59359741 C-7.28949608 50.36510962 -7.28519825 55.13654701 -7.27586365 59.90805054 C-7.26446917 66.03176834 -7.27102861 72.15531085 -7.28300858 78.27902222 C-7.29022704 82.97837653 -7.2879393 87.67768912 -7.28275299 92.37704468 C-7.28141646 94.63534567 -7.28306433 96.89365042 -7.2877121 99.15194702 C-7.29277704 102.30512566 -7.28506737 105.45801827 -7.27391052 108.61117554 C-7.27795898 109.5494519 -7.28200745 110.48772827 -7.28617859 111.45443726 C-7.28053894 112.31246948 -7.27489929 113.17050171 -7.26908875 114.05453491 C-7.26833469 114.80005615 -7.26758064 115.54557739 -7.26680374 116.31369019 C-7.1204595 118.59025267 -7.1204595 118.59025267 -5.01512146 121.26742554 C-2.5891549 121.71027348 -2.5891549 121.71027348 0.27320862 121.62045288 C1.37808121 121.62410858 2.4829538 121.62776428 3.62130737 121.63153076 C4.82023117 121.62223541 6.01915497 121.61294006 7.25440979 121.60336304 C9.77719881 121.61587713 12.29998529 121.62891432 14.82276917 121.64242554 C18.81258666 121.64635712 22.80196927 121.6424087 26.79176331 121.6277771 C30.63386191 121.61921744 34.47490408 121.64087832 38.31690979 121.66586304 C40.10618645 121.64584732 40.10618645 121.64584732 41.93161011 121.62542725 C50.21907203 121.69950169 50.21907203 121.69950169 54.08106995 124.56356812 C55.0234552 125.90197754 55.0234552 125.90197754 55.98487854 127.26742554 C56.5334552 127.91622681 57.08203186 128.56502808 57.64723206 129.23348999 C58.13119446 129.85957153 58.61515686 130.48565308 59.11378479 131.13070679 C59.6684845 131.84565308 60.2231842 132.56059937 60.79469299 133.29721069 C61.37307922 134.05050659 61.95146545 134.80380249 62.54737854 135.57992554 C63.15219055 136.36158081 63.75700256 137.14323608 64.38014221 137.94857788 C69.10653905 144.07481736 73.75708632 150.25741648 78.34059143 156.49130249 C79.53245646 158.10055696 80.75527721 159.68681718 81.98487854 161.26742554 C82.31487854 161.26742554 82.64487854 161.26742554 82.98487854 161.26742554 C82.99946106 160.15705933 83.01404358 159.04669312 83.02906799 157.90267944 C83.08694979 153.791183 83.16418218 149.68024011 83.24732971 145.56918335 C83.28062694 143.78835012 83.30864385 142.00741013 83.33131409 140.22640991 C83.36477286 137.66930555 83.41708155 135.11318378 83.47315979 132.55648804 C83.47954971 131.75748077 83.48593964 130.95847351 83.49252319 130.13525391 C83.55250549 127.89096069 83.55250549 127.89096069 83.98487854 124.26742554 C87.62836362 121.83843549 89.37777387 122.00603553 93.71949768 121.98031616 C94.73946083 121.9700666 94.73946083 121.9700666 95.7800293 121.95960999 C97.2548702 121.94603082 98.72975809 121.93697185 100.20465279 121.93190002 C102.53695244 121.92361544 104.8688597 121.90311671 107.2010498 121.87936401 C112.99164075 121.82293306 118.78232676 121.7877034 124.57307434 121.7517395 C129.46856419 121.72053688 134.36386306 121.68138273 139.25919914 121.63148499 C141.56036772 121.61136931 143.86138986 121.60308847 146.16262817 121.59518433 C147.56830892 121.58221654 148.97398471 121.56869691 150.37965393 121.55453491 C152.22473289 121.54359802 152.22473289 121.54359802 154.10708618 121.53244019 C157.11371069 121.56478314 157.11371069 121.56478314 158.98487854 119.26742554 C159.28228093 117.2948531 159.28228093 117.2948531 159.22538757 115.00274658 C159.2281369 114.10809692 159.23088623 113.21344727 159.23371887 112.29168701 C159.22652832 111.30769928 159.21933777 110.32371155 159.21192932 109.30990601 C159.21222137 108.27573547 159.21251343 107.24156494 159.21281433 106.17605591 C159.21141699 102.74549065 159.19583671 99.31514052 159.18019104 95.88461304 C159.17646235 93.5109265 159.1736147 91.13723843 159.1716156 88.7635498 C159.16396782 82.50649794 159.1443095 76.24953847 159.12220764 69.99252319 C159.10177384 63.61151377 159.09261917 57.23048947 159.08253479 50.84945679 C159.0610647 38.32207355 159.02729772 25.79475445 158.98487854 13.26742554 C137.63649942 13.19742487 116.28813915 13.14448131 94.93966866 13.11198902 C85.02777908 13.09650303 75.1159607 13.07538055 65.20411682 13.04110718 C56.56756414 13.0112577 47.93106301 12.99186314 39.29446018 12.98516005 C34.71906523 12.98124022 30.14381779 12.97199237 25.56847 12.95023537 C21.26590169 12.92994041 16.96354226 12.92357747 12.66093063 12.92810249 C11.07822791 12.92727414 9.49551852 12.92126693 7.91285706 12.90980911 C5.75879826 12.89497377 3.60553745 12.89843829 1.45146179 12.90666199 C0.24391298 12.90389661 -0.96363583 12.90113123 -2.20777702 12.89828205 C-3.59741252 13.08100808 -3.59741252 13.08100808 -5.01512146 13.26742554 Z " fill="#FEF9FB" transform="translate(135.01512145996094,76.73257446289063)"></path><path d="M0 0 C8.27383215 4.62361209 13.57014012 12.04274607 16.1796875 21.11328125 C18.07080661 30.52237387 16.21946987 38.10246061 11.65625 46.484375 C6.73018448 53.34856466 -0.9721902 58.75577647 -9.34375 60.484375 C-18.98965608 61.48864029 -26.76771202 60.35637577 -34.78515625 54.7890625 C-41.31001628 49.47887987 -44.71045153 43.38427042 -47.34375 35.484375 C-48.35938615 25.10945894 -47.53119006 17.22577969 -41.34375 8.484375 C-30.28949994 -4.07106951 -15.10794879 -6.72386732 0 0 Z " fill="#FEFAFB" transform="translate(348.34375,291.515625)"></path><path d="M0 0 C6.88000229 4.95319813 12.85878204 10.5957195 15 19 C16.32988354 28.91950636 16.24627043 38.74543502 10 47 C5.00639687 53.26988383 -1.96931386 58.53042897 -10 60 C-20.92840117 60.90329603 -29.11210133 59.41031893 -37.75 52.5 C-44.85773196 45.63213821 -48.55198226 37.93860462 -48.75 28 C-48.55198226 18.06139538 -44.85773196 10.36786179 -37.75 3.5 C-26.78373208 -5.27301434 -12.37757546 -7.43055097 0 0 Z " fill="#FEFAFB" transform="translate(202,292)"></path><path d="M0 0 C5.09473426 3.07606597 9.40478922 7.27686765 11.3125 13 C12.10315946 19.35916112 11.56894291 23.97982918 7.80859375 29.2421875 C3.81314536 33.93657856 0.19697869 36.53756206 -5.984375 37.2734375 C-12.50546796 37.54341906 -16.75881089 36.37093907 -21.6875 32 C-26.67053588 25.61149246 -27.62086578 19.93360912 -26.6875 12 C-24.70359516 6.4840029 -21.00730645 2.67955228 -15.9296875 -0.15625 C-10.52019963 -2.1918761 -5.46054172 -1.48082487 0 0 Z " fill="#D82E6E" transform="translate(340.6875,302)"></path><path d="M0 0 C4.79240118 2.73021643 8.96613704 7.05442359 10.6875 12.375 C11.17537506 18.2295007 10.71354849 23.23602642 7.6875 28.375 C2.89040223 33.728798 -1.94200885 36.38546242 -9.125 36.8125 C-14.6187989 36.69787528 -18.1649778 34.89033637 -22.3125 31.375 C-27.45171931 25.84045612 -27.78418628 21.02490944 -27.71875 13.6796875 C-26.9968963 7.80768525 -24.06292296 4.72390136 -19.70703125 1.00390625 C-13.7562583 -3.08106616 -6.4443023 -2.89385651 0 0 Z " fill="#CD2465" transform="translate(194.3125,302.625)"></path><path d="M0 0 C0 11.88 0 23.76 0 36 C-6.19216038 33.93594654 -7.45812046 33.11604822 -11 28 C-13.45321495 22.74311082 -14.23982256 16.65265088 -12.34765625 11.078125 C-10.11534269 6.7476283 -5.25767726 0 0 0 Z " fill="#C92464" transform="translate(109,302)"></path><path d="M0 0 C8.58 0 17.16 0 26 0 C26 4.29 26 8.58 26 13 C17.42 13 8.84 13 0 13 C0 8.71 0 4.42 0 0 Z " fill="#FDF5F8" transform="translate(243,134)"></path><path d="M0 0 C8.58 0 17.16 0 26 0 C26 4.29 26 8.58 26 13 C17.42 13 8.84 13 0 13 C0 8.71 0 4.42 0 0 Z " fill="#FDF5F8" transform="translate(198,134)"></path><path d="M0 0 C8.58 0 17.16 0 26 0 C26 4.29 26 8.58 26 13 C17.42 13 8.84 13 0 13 C0 8.71 0 4.42 0 0 Z " fill="#FCF3F7" transform="translate(153,134)"></path><path d="M0 0 C5.31347324 1.32836831 7.34536048 4.0600778 10.8125 8.125 C13.09495034 13.6509324 12.94552023 20.25501652 10.875 25.875 C8.15165179 30.41391368 5.13154803 33.28948399 0 35 C0 23.45 0 11.9 0 0 Z " fill="#DE3473" transform="translate(410,303)"></path></svg>