<svg version="1.1" xmlns="http://www.w3.org/2000/svg" width="16px" height="16px" fill="currentColor" viewBox="0 0 512 512"><path d="M0 0 C168.96 0 337.92 0 512 0 C512 168.96 512 337.92 512 512 C343.04 512 174.08 512 0 512 C0 343.04 0 174.08 0 0 Z " fill="#7746D3" transform="translate(0,0)"></path><path d="M0 0 C8.56406485 7.24284295 14.81473682 15.46139428 17.0625 26.625 C17.32330373 30.13717954 17.29613562 33.63213192 17.2578125 37.15234375 C17.2549826 38.14126114 17.25215271 39.13017853 17.24923706 40.14906311 C17.23810142 43.28700195 17.21300903 46.42464839 17.1875 49.5625 C17.17746165 51.69856357 17.1683373 53.83463164 17.16015625 55.97070312 C17.1381838 61.18890073 17.10477254 66.40692946 17.0625 71.625 C18.09890625 71.57859375 19.1353125 71.5321875 20.203125 71.484375 C21.57288779 71.44684725 22.94268182 71.41044816 24.3125 71.375 C24.99441406 71.34148437 25.67632812 71.30796875 26.37890625 71.2734375 C29.45336933 71.21373919 31.61614682 71.35052705 34.26063538 72.97668457 C37.12758284 77.19042022 36.61069903 81.40704538 36.56420898 86.38867188 C36.57231346 88.03314049 36.57231346 88.03314049 36.58058167 89.71083069 C36.59310029 93.33874413 36.57655618 96.96586889 36.55859375 100.59375 C36.55874866 103.1119389 36.56023638 105.63012804 36.56300354 108.14831543 C36.56438894 113.42757814 36.55223876 118.70663599 36.52905273 123.98583984 C36.50244336 130.08667764 36.50069612 136.18713513 36.5124411 142.28801107 C36.52322581 148.16028333 36.51692543 154.03241678 36.50288582 159.90467834 C36.49836419 162.402182 36.4980407 164.89969685 36.50195122 167.39720154 C36.50485613 170.88547832 36.48838992 174.37313022 36.46655273 177.86132812 C36.47330521 179.41528038 36.47330521 179.41528038 36.48019409 181.00062561 C36.47028946 181.95114304 36.46038483 182.90166046 36.45018005 183.88098145 C36.44653521 185.11760906 36.44653521 185.11760906 36.44281673 186.37921906 C35.94976464 189.29070546 35.21954865 190.59980616 33.0625 192.625 C30.3903656 193.12836456 30.3903656 193.12836456 27.10327148 193.13293457 C25.85818817 193.14421387 24.61310486 193.15549316 23.33029175 193.16711426 C21.94805677 193.15933681 20.56582407 193.15114411 19.18359375 193.14257812 C17.72990212 193.14799744 16.27621598 193.15511902 14.82254028 193.16381836 C10.8720927 193.18207773 6.92206223 193.17497366 2.97160721 193.16230202 C-1.15899546 193.15218776 -5.28956197 193.1615633 -9.42016602 193.16784668 C-16.35732447 193.1751277 -23.29431269 193.16552354 -30.23144531 193.14648438 C-38.25624897 193.12471466 -46.28064615 193.13176572 -54.30543995 193.15379 C-61.19045146 193.17193113 -68.07534047 193.17450866 -74.96036816 193.16403532 C-79.07464958 193.15779326 -83.18873983 193.15698417 -87.30300903 193.17018127 C-91.17074777 193.18172058 -95.03796155 193.1737499 -98.90564346 193.15060425 C-100.32665255 193.14530678 -101.74770568 193.14684871 -103.16869736 193.15565491 C-105.10520622 193.1665511 -107.04181142 193.1504771 -108.97827148 193.13293457 C-110.06301254 193.13142647 -111.1477536 193.12991837 -112.2653656 193.12836456 C-114.9375 192.625 -114.9375 192.625 -116.78572178 190.88975525 C-118.08747642 188.33009957 -118.31674928 186.74138586 -118.32518005 183.88098145 C-118.33508469 182.93046402 -118.34498932 181.97994659 -118.35519409 181.00062561 C-118.35069244 179.96465744 -118.3461908 178.92868927 -118.34155273 177.86132812 C-118.34841599 176.76501572 -118.35527924 175.66870331 -118.36235046 174.53916931 C-118.38066814 170.91139821 -118.37677406 167.28405747 -118.37109375 163.65625 C-118.37565283 161.13806008 -118.38095758 158.61987142 -118.38697815 156.10168457 C-118.39591879 150.8224698 -118.39370808 145.54336706 -118.38354492 140.26416016 C-118.3720594 134.16327066 -118.38614682 128.06282053 -118.4129414 121.96198893 C-118.43776556 116.0897234 -118.44027745 110.217629 -118.43382454 104.34532166 C-118.4336709 101.84780649 -118.43975042 99.35028302 -118.45211601 96.85279846 C-118.46695467 93.36442134 -118.45640069 89.87701803 -118.43920898 86.38867188 C-118.44887695 85.3527037 -118.45854492 84.31673553 -118.46850586 83.24937439 C-118.3966047 76.29977547 -118.3966047 76.29977547 -116.13563538 72.97668457 C-112.90854123 70.99226932 -109.84478826 71.1952467 -106.1875 71.375 C-105.49011719 71.39304687 -104.79273438 71.41109375 -104.07421875 71.4296875 C-102.36138461 71.47661446 -100.64926176 71.54835395 -98.9375 71.625 C-98.95321045 70.34447754 -98.9689209 69.06395508 -98.98510742 67.74462891 C-99.03975808 62.95498035 -99.07397707 58.16535889 -99.10229492 53.37548828 C-99.11730192 51.30968579 -99.137714 49.24391472 -99.16381836 47.17822266 C-99.20055961 44.19425662 -99.21730764 41.21071493 -99.23046875 38.2265625 C-99.24595261 37.31572906 -99.26143646 36.40489563 -99.27738953 35.46646118 C-99.28049558 23.4015744 -94.97174015 12.85296241 -86.8125 3.9375 C-64.91664465 -16.46654982 -23.77718585 -17.67113982 0 0 Z " fill="#FCFBFE" transform="translate(296.9375,211.375)"></path><path d="M0 0 C42.24 0 84.48 0 128 0 C128 6.27 128 12.54 128 19 C121.73 19 115.46 19 109 19 C109 23.29 109 27.58 109 32 C115.27 32 121.54 32 128 32 C128 40.25 128 48.5 128 57 C121.73 57 115.46 57 109 57 C109 61.29 109 65.58 109 70 C115.27 70 121.54 70 128 70 C128 78.58 128 87.16 128 96 C85.76 96 43.52 96 0 96 C0 64.32 0 32.64 0 0 Z " fill="#7042CC" transform="translate(192,296)"></path><path d="M0 0 C1.68222656 0.56074219 1.68222656 0.56074219 3.3984375 1.1328125 C30.46867588 10.8420904 49.61959437 30.70207325 64 55 C64.68707031 54.65066406 65.37414062 54.30132812 66.08203125 53.94140625 C66.98308594 53.48636719 67.88414062 53.03132813 68.8125 52.5625 C69.70582031 52.11003906 70.59914063 51.65757812 71.51953125 51.19140625 C79.96713361 47.13389645 92.21808481 47.78676839 101.2578125 49.68359375 C103.66302247 50.61551594 105.78116165 51.68831103 108 53 C108.83402344 53.42410156 109.66804688 53.84820312 110.52734375 54.28515625 C121.44469269 60.17888297 128.11121194 69.33363583 132 81 C132.06970052 83.39490986 132.08448003 85.79167691 132.0625 88.1875 C132.05347656 89.45980469 132.04445313 90.73210937 132.03515625 92.04296875 C132.01775391 93.50669922 132.01775391 93.50669922 132 95 C132.9075 95.061875 133.815 95.12375 134.75 95.1875 C150.64988942 97.52289623 165.93243643 108.3016617 175.625 120.6875 C188.19804147 138.15969212 191.511716 157.77247906 188.3125 178.875 C184.69127652 195.00817494 176.83793851 207.74463826 163 217 C151.35634444 223.34225339 140.04940236 227.19104085 126.7578125 227.09765625 C125.98944061 227.0962413 125.22106873 227.09482635 124.42941284 227.09336853 C121.99456761 227.08780683 119.55981706 227.0752616 117.125 227.0625 C115.46614717 227.05748004 113.80729288 227.05291801 112.1484375 227.04882812 C108.0989223 227.03784998 104.04947716 227.02061206 100 227 C100 223.04 100 219.08 100 215 C100.825 214.9906543 101.65 214.98130859 102.5 214.97167969 C134.71394737 215.18465055 134.71394737 215.18465055 162 200 C162.66 200 163.32 200 164 200 C164.42152344 199.11828125 164.42152344 199.11828125 164.8515625 198.21875 C165.90630606 196.18101414 167.07593057 194.38654669 168.375 192.5 C176.71213257 178.81918601 176.97476535 162.66163206 174.33984375 147.1015625 C169.97235316 132.69451561 160.23127417 121.90327697 147.28613281 114.73120117 C140.07025973 110.8746749 133.1271041 107.88591942 125.0078125 106.6875 C122.02719547 105.66689962 120.84372951 104.57716916 119 102 C118.44458511 99.08709039 118.43991762 96.2091613 118.4375 93.25 C118.38946001 85.01457281 117.37122158 77.79773661 111.58203125 71.37890625 C102.40093865 63.3766206 91.69061786 62.20524308 80 63 C73.4631505 64.24835668 68.56398854 69.43601146 64 74 C60.74609375 74.1171875 60.74609375 74.1171875 57 73 C54.80299913 70.31331084 53.4891404 67.27227136 52.0625 64.125 C51.20410225 62.37325743 50.33952445 60.62452952 49.46875 58.87890625 C49.04980469 58.03344238 48.63085938 57.18797852 48.19921875 56.31689453 C38.2760705 37.1453398 20.76611682 22.85033773 1 15 C0.38125 14.7417041 -0.2375 14.4834082 -0.875 14.21728516 C-18.32166701 7.14320689 -41.56219159 6.86726956 -59 14 C-59.97235596 14.39469482 -59.97235596 14.39469482 -60.96435547 14.79736328 C-71.36195173 19.14589644 -79.22844637 24.89748115 -87 33 C-87.59039062 33.59425781 -88.18078125 34.18851563 -88.7890625 34.80078125 C-105.50911684 52.81731039 -111.62206678 77.14253309 -111.40942383 101.02880859 C-111.46941096 108.38359394 -111.46941096 108.38359394 -114.24609375 111.609375 C-116.75353971 112.87554629 -118.89810729 113.74571707 -121.625 114.375 C-134.76107373 117.99671929 -143.64764947 125.02355002 -150.421875 136.609375 C-154.56472686 145.51035374 -155.52191455 153.60111019 -155.5 163.375 C-155.52835938 164.51710938 -155.55671875 165.65921875 -155.5859375 166.8359375 C-155.61232003 178.44424915 -151.8281045 188.38533954 -144 197 C-143.46117187 197.59296875 -142.92234375 198.1859375 -142.3671875 198.796875 C-125.73351011 215.07051609 -101.60431852 214.54796159 -80 215 C-80 218.96 -80 222.92 -80 227 C-84.56740233 227.10056098 -89.13412954 227.17224436 -93.70239258 227.21972656 C-95.24905653 227.23956584 -96.79564839 227.2666464 -98.34204102 227.30175781 C-117.45333939 227.72410695 -134.73291905 223.34127504 -149.5 210.5625 C-160.92900119 199.49361659 -168.73615098 186.17183874 -169.43359375 169.984375 C-169.45681986 167.90637939 -169.45760321 165.82802817 -169.4375 163.75 C-169.43065186 162.65679443 -169.42380371 161.56358887 -169.41674805 160.43725586 C-169.08182468 143.47909491 -163.86728056 128.38067373 -152 116 C-145.23232192 109.91989444 -133.73933498 101 -124 101 C-124.03927612 100.1495813 -124.03927612 100.1495813 -124.0793457 99.28198242 C-125.25221011 69.7703384 -115.67272056 44.08672052 -95.94140625 22.0390625 C-72.40281697 -3.01074377 -32.0860101 -11.08162425 0 0 Z " fill="#FCFBFE" transform="translate(246,113)"></path><path d="M0 0 C1.02931641 -0.00773438 2.05863281 -0.01546875 3.11914062 -0.0234375 C16.20478957 0.00966977 27.54779614 2.58913319 37.6875 11.4296875 C52.94720551 27.6431246 46.1875 47.67932748 46.1875 70.25 C16.4875 70.25 -13.2125 70.25 -43.8125 70.25 C-43.8125 20.56547619 -43.8125 20.56547619 -35.1328125 11.171875 C-24.93961961 2.72902837 -12.91194018 -0.09594011 0 0 Z " fill="#7847D4" transform="translate(254.8125,212.75)"></path><path d="M0 0 C5.23155066 3.06903076 9.01625191 7.7388075 12.125 12.875 C13.60473356 19.78042328 13.26611555 26.02287169 10.08984375 32.38671875 C7.60989165 36.12391676 4.48802311 39.12201906 0.6875 41.5 C-1.7875 41.995 -1.7875 41.995 -4.3125 42.5 C-4.3125 49.1 -4.3125 55.7 -4.3125 62.5 C-8.2725 62.5 -12.2325 62.5 -16.3125 62.5 C-16.3125 55.9 -16.3125 49.3 -16.3125 42.5 C-17.9625 42.17 -19.6125 41.84 -21.3125 41.5 C-27.50009244 37.62843378 -31.40534415 32.52449327 -33.3125 25.5 C-34.64732374 18.26652657 -32.36806327 12.48678387 -28.3125 6.5 C-21.03453182 -1.54057988 -10.25498066 -4.52661256 0 0 Z " fill="#FCFBFE" transform="translate(266.3125,316.5)"></path><path d="M0 0 C2.8100346 1.79363911 4.50940468 3.01880935 6 6 C6.17199251 9.80626901 6.04130648 13.51630842 3.8046875 16.703125 C1.37037636 18.9207697 -0.79649389 19.95760289 -4 20.625 C-7.98272198 19.79526625 -10.65074203 18.29200228 -13 15 C-14.04902782 11.9306223 -14.36799738 9.22435802 -14 6 C-10.48028041 0.17425724 -6.63382773 -0.95313617 0 0 Z " fill="#7346CE" transform="translate(260,328)"></path></svg>