<svg version="1.1" xmlns="http://www.w3.org/2000/svg" width="16px" height="16px" fill="currentColor" viewBox="0 0 512 512"><path d="M0 0 C168.96 0 337.92 0 512 0 C512 168.96 512 337.92 512 512 C343.04 512 174.08 512 0 512 C0 343.04 0 174.08 0 0 Z " fill="#7746D3" transform="translate(0,0)"></path><path d="M0 0 C0.77265701 -0.00988449 1.54531403 -0.01976898 2.34138489 -0.029953 C45.72833055 -0.47054412 84.22476411 10.52033816 117.6796875 39.23828125 C118.51242187 39.94726562 119.34515625 40.65625 120.203125 41.38671875 C135.46909852 54.72638646 147.27817928 70.32300139 156.6796875 88.23828125 C157.01210449 88.86508789 157.34452148 89.49189453 157.68701172 90.13769531 C174.47100941 122.25948697 179.50890049 160.83217769 171.6796875 196.23828125 C171.54578613 196.88990234 171.41188477 197.54152344 171.27392578 198.21289062 C168.47928727 211.7220038 163.90971347 225.45002851 157.3671875 237.61328125 C155.47881743 240.87666805 155.47881743 240.87666805 155.860425 243.22934341 C156.88046977 245.7306254 158.18174323 247.10371425 160.10038757 249.00628662 C160.83353683 249.74066956 161.5666861 250.47505249 162.322052 251.23168945 C163.13189545 252.02760498 163.94173889 252.82352051 164.77612305 253.64355469 C165.62494553 254.48960266 166.47376801 255.33565063 167.34831238 256.20733643 C169.67809492 258.52693103 172.01433615 260.83978713 174.35325217 263.1501646 C176.80410318 265.57478032 179.24564818 268.00872627 181.6879425 270.44195557 C187.37742128 276.10729714 193.07808809 281.76130526 198.77985382 287.41427612 C206.02025885 294.59388479 213.25519226 301.77898066 220.48092681 308.97335458 C222.91016116 311.39144504 225.34169131 313.80713411 227.77863121 316.21746063 C230.50228311 318.91235606 233.21980881 321.6132983 235.9362793 324.31542969 C236.73600159 325.10324829 237.53572388 325.89106689 238.35968018 326.70275879 C248.43617461 336.75786429 256.56581353 347.4616275 256.9296875 362.17578125 C256.63596705 373.49265735 252.7917937 384.12617505 244.6796875 392.23828125 C235.3019799 400.11071106 225.22580674 404.07372347 212.9140625 403.6171875 C195.91217478 401.62542046 185.91401522 389.73853745 174.5546875 378.17578125 C172.69201051 376.28526336 170.82778612 374.39633707 168.96047974 372.51039124 C167.8077478 371.34563222 166.65769263 370.17821494 165.51095581 369.0075531 C162.23757491 365.69391223 158.85386127 362.59927198 155.27566528 359.61647034 C153.65237827 358.21469866 152.10861617 356.83951587 150.6796875 355.23828125 C150.6796875 354.57828125 150.6796875 353.91828125 150.6796875 353.23828125 C149.6896875 352.90828125 148.6996875 352.57828125 147.6796875 352.23828125 C147.6796875 351.57828125 147.6796875 350.91828125 147.6796875 350.23828125 C147.0196875 350.23828125 146.3596875 350.23828125 145.6796875 350.23828125 C145.6796875 349.57828125 145.6796875 348.91828125 145.6796875 348.23828125 C145.0196875 348.23828125 144.3596875 348.23828125 143.6796875 348.23828125 C143.6796875 347.57828125 143.6796875 346.91828125 143.6796875 346.23828125 C143.10667908 345.9905899 142.53367065 345.74289856 141.94329834 345.48770142 C139.32454936 344.04225959 137.57056586 342.36922676 135.46191406 340.24755859 C134.64136536 339.42685883 133.82081665 338.60615906 132.97540283 337.7605896 C132.09922302 336.87408722 131.22304321 335.98758484 130.3203125 335.07421875 C129.41593445 334.1670108 128.5115564 333.25980286 127.57977295 332.32510376 C125.18172292 329.91943706 122.78974132 327.50782389 120.39898682 325.09490967 C117.95583579 322.63125781 115.50697544 320.17329548 113.05859375 317.71484375 C108.26034962 312.89454552 103.46786018 308.06858282 98.6796875 303.23828125 C97.63055176 303.7679248 96.58141602 304.29756836 95.50048828 304.84326172 C81.42640246 311.92910229 67.54830982 318.41781291 52.3046875 322.61328125 C51.0050708 322.97123779 51.0050708 322.97123779 49.67919922 323.33642578 C37.70112991 326.46497533 26.00798457 327.59012952 13.67919922 327.55395508 C11.44578724 327.55080397 9.21371759 327.57432639 6.98046875 327.59960938 C-34.25570004 327.77879245 -74.08017329 309.83222954 -103.3203125 281.23828125 C-104.32449535 280.29448064 -105.32972123 279.35178867 -106.3359375 278.41015625 C-124.95328989 260.73202006 -137.15770203 238.37621802 -145.3203125 214.23828125 C-145.57538574 213.50931641 -145.83045898 212.78035156 -146.09326172 212.02929688 C-159.91808818 172.11372771 -154.2393296 128.24300647 -136.49365234 90.61865234 C-120.70552302 58.58905166 -94.65347772 33.72419385 -63.3203125 17.23828125 C-61.69222656 16.37203125 -61.69222656 16.37203125 -60.03125 15.48828125 C-49.79320822 10.19730359 -39.30858466 6.77917204 -28.1328125 4.05078125 C-27.10478516 3.79103516 -26.07675781 3.53128906 -25.01757812 3.26367188 C-16.64962333 1.19175984 -8.60401082 0.09066987 0 0 Z " fill="#7746D3" transform="translate(204.3203125,57.76171875)"></path><path d="M0 0 C0.77265701 -0.00988449 1.54531403 -0.01976898 2.34138489 -0.029953 C45.72833055 -0.47054412 84.22476411 10.52033816 117.6796875 39.23828125 C118.51242187 39.94726562 119.34515625 40.65625 120.203125 41.38671875 C135.46909852 54.72638646 147.27817928 70.32300139 156.6796875 88.23828125 C157.01210449 88.86508789 157.34452148 89.49189453 157.68701172 90.13769531 C174.47100941 122.25948697 179.50890049 160.83217769 171.6796875 196.23828125 C171.54578613 196.88990234 171.41188477 197.54152344 171.27392578 198.21289062 C168.47928727 211.7220038 163.90971347 225.45002851 157.3671875 237.61328125 C155.47881743 240.87666805 155.47881743 240.87666805 155.860425 243.22934341 C156.88046977 245.7306254 158.18174323 247.10371425 160.10038757 249.00628662 C160.83353683 249.74066956 161.5666861 250.47505249 162.322052 251.23168945 C163.13189545 252.02760498 163.94173889 252.82352051 164.77612305 253.64355469 C165.62494553 254.48960266 166.47376801 255.33565063 167.34831238 256.20733643 C169.67809492 258.52693103 172.01433615 260.83978713 174.35325217 263.1501646 C176.80410318 265.57478032 179.24564818 268.00872627 181.6879425 270.44195557 C187.37742128 276.10729714 193.07808809 281.76130526 198.77985382 287.41427612 C206.02025885 294.59388479 213.25519226 301.77898066 220.48092681 308.97335458 C222.91016116 311.39144504 225.34169131 313.80713411 227.77863121 316.21746063 C230.50228311 318.91235606 233.21980881 321.6132983 235.9362793 324.31542969 C236.73600159 325.10324829 237.53572388 325.89106689 238.35968018 326.70275879 C248.43617461 336.75786429 256.56581353 347.4616275 256.9296875 362.17578125 C256.63596705 373.49265735 252.7917937 384.12617505 244.6796875 392.23828125 C235.3019799 400.11071106 225.22580674 404.07372347 212.9140625 403.6171875 C195.91217478 401.62542046 185.91401522 389.73853745 174.5546875 378.17578125 C172.69201051 376.28526336 170.82778612 374.39633707 168.96047974 372.51039124 C167.8077478 371.34563222 166.65769263 370.17821494 165.51095581 369.0075531 C162.23757491 365.69391223 158.85386127 362.59927198 155.27566528 359.61647034 C153.65237827 358.21469866 152.10861617 356.83951587 150.6796875 355.23828125 C150.6796875 354.57828125 150.6796875 353.91828125 150.6796875 353.23828125 C149.6896875 352.90828125 148.6996875 352.57828125 147.6796875 352.23828125 C147.6796875 351.57828125 147.6796875 350.91828125 147.6796875 350.23828125 C147.0196875 350.23828125 146.3596875 350.23828125 145.6796875 350.23828125 C145.6796875 349.57828125 145.6796875 348.91828125 145.6796875 348.23828125 C145.0196875 348.23828125 144.3596875 348.23828125 143.6796875 348.23828125 C143.6796875 347.57828125 143.6796875 346.91828125 143.6796875 346.23828125 C143.10667908 345.9905899 142.53367065 345.74289856 141.94329834 345.48770142 C139.32454936 344.04225959 137.57056586 342.36922676 135.46191406 340.24755859 C134.64136536 339.42685883 133.82081665 338.60615906 132.97540283 337.7605896 C132.09922302 336.87408722 131.22304321 335.98758484 130.3203125 335.07421875 C129.41593445 334.1670108 128.5115564 333.25980286 127.57977295 332.32510376 C125.18172292 329.91943706 122.78974132 327.50782389 120.39898682 325.09490967 C117.95583579 322.63125781 115.50697544 320.17329548 113.05859375 317.71484375 C108.26034962 312.89454552 103.46786018 308.06858282 98.6796875 303.23828125 C97.63055176 303.7679248 96.58141602 304.29756836 95.50048828 304.84326172 C81.42640246 311.92910229 67.54830982 318.41781291 52.3046875 322.61328125 C51.0050708 322.97123779 51.0050708 322.97123779 49.67919922 323.33642578 C37.70112991 326.46497533 26.00798457 327.59012952 13.67919922 327.55395508 C11.44578724 327.55080397 9.21371759 327.57432639 6.98046875 327.59960938 C-34.25570004 327.77879245 -74.08017329 309.83222954 -103.3203125 281.23828125 C-104.32449535 280.29448064 -105.32972123 279.35178867 -106.3359375 278.41015625 C-124.95328989 260.73202006 -137.15770203 238.37621802 -145.3203125 214.23828125 C-145.57538574 213.50931641 -145.83045898 212.78035156 -146.09326172 212.02929688 C-159.91808818 172.11372771 -154.2393296 128.24300647 -136.49365234 90.61865234 C-120.70552302 58.58905166 -94.65347772 33.72419385 -63.3203125 17.23828125 C-61.69222656 16.37203125 -61.69222656 16.37203125 -60.03125 15.48828125 C-49.79320822 10.19730359 -39.30858466 6.77917204 -28.1328125 4.05078125 C-27.10478516 3.79103516 -26.07675781 3.53128906 -25.01757812 3.26367188 C-16.64962333 1.19175984 -8.60401082 0.09066987 0 0 Z M-30.7578125 17.92578125 C-31.64831299 18.1885083 -32.53881348 18.45123535 -33.45629883 18.72192383 C-70.9461189 30.13186907 -103.18946965 56.74161915 -122.11010742 90.9831543 C-141.73862566 127.87803221 -145.48196161 168.32529998 -133.8581543 208.40966797 C-121.80409214 247.76765003 -94.42069403 278.99941938 -58.3203125 298.23828125 C-57.44890625 298.70878906 -56.5775 299.17929687 -55.6796875 299.6640625 C-35.89334037 309.97211109 -14.75723621 314.6273879 7.41772461 314.49902344 C9.61144746 314.48830928 11.80434873 314.4989832 13.99804688 314.51171875 C26.60454344 314.52604683 38.73323359 313.18918557 50.8671875 309.61328125 C51.75446533 309.35313232 52.64174316 309.0929834 53.5559082 308.82495117 C75.60395349 302.14532754 94.57045368 291.6390677 111.6796875 276.23828125 C112.96826514 275.17203705 114.25934034 274.10879107 115.5546875 273.05078125 C143.06242604 249.15719814 158.74143863 210.85613778 161.6796875 175.23828125 C163.73998421 131.02889235 150.18774874 93.08694355 121.0546875 59.86328125 C117.16888741 55.65253621 113.12755351 51.84590914 108.6796875 48.23828125 C107.78121094 47.490625 106.88273438 46.74296875 105.95703125 45.97265625 C78.53081249 23.92072814 46.11508418 12.79741805 11.0546875 12.80078125 C9.9942775 12.80004105 9.9942775 12.80004105 8.91244507 12.79928589 C-4.5673194 12.84503059 -17.78927887 14.05743239 -30.7578125 17.92578125 Z " fill="#FBFAFE" transform="translate(204.3203125,57.76171875)"></path><path d="M0 0 C0.86496094 0.72316406 1.72992188 1.44632813 2.62109375 2.19140625 C7.54898418 6.43786832 11.86319075 10.98737978 16 16 C16.61359375 16.71414062 17.2271875 17.42828125 17.859375 18.1640625 C31.33391964 34.27961789 40.68325581 53.06277614 47 73 C47.47953125 74.50626953 47.47953125 74.50626953 47.96875 76.04296875 C55.82560856 103.89553234 53.95717304 137.01379805 44 164 C43.77441406 164.62422852 43.54882812 165.24845703 43.31640625 165.89160156 C36.50497787 184.58454696 26.65665637 201.28617947 13.0078125 215.81640625 C10.93597301 218.01608181 10.93597301 218.01608181 8.95703125 220.578125 C6.02059648 224.21203629 2.59574648 227.03437629 -1 230 C-2.35738281 231.13115234 -2.35738281 231.13115234 -3.7421875 232.28515625 C-31.40358619 254.49169896 -64.28625201 265.22196017 -99.5 265.25 C-100.2607785 265.25067474 -101.02155701 265.25134949 -101.8053894 265.25204468 C-112.83556265 265.23648936 -123.28402968 264.84768048 -134 262 C-134.68723145 261.82839355 -135.37446289 261.65678711 -136.08251953 261.47998047 C-146.66683802 258.8166451 -156.28984537 254.94587634 -166 250 C-167.09957031 249.45472656 -168.19914062 248.90945313 -169.33203125 248.34765625 C-182.79922769 241.42678746 -194.15330257 232.46850017 -205 222 C-205.85207031 221.21109375 -206.70414063 220.4221875 -207.58203125 219.609375 C-229.19194776 199.0544308 -241.73387833 170.76384409 -248 142 C-248.36931641 140.30617187 -248.36931641 140.30617187 -248.74609375 138.578125 C-255.4562883 100.63081787 -245.4868764 60.32556676 -223.8125 28.8203125 C-218.94071054 22.1723498 -213.66351839 15.98232572 -208 10 C-207.18015625 9.11570313 -206.3603125 8.23140625 -205.515625 7.3203125 C-150.92103283 -49.6971166 -58.93510384 -49.73791819 0 0 Z M-188 26 C-188.54132568 26.51216064 -189.08265137 27.02432129 -189.64038086 27.55200195 C-193.92054426 31.69725545 -197.52715191 36.05702691 -200.9375 40.9375 C-201.45256104 41.67331299 -201.96762207 42.40912598 -202.49829102 43.16723633 C-210.25959993 54.50938325 -216.08783499 66.81558625 -220 80 C-220.19609863 80.65145996 -220.39219727 81.30291992 -220.59423828 81.97412109 C-226.18887751 101.35636673 -226.73520822 124.61368779 -221 144 C-220.60528877 145.48042078 -220.21077055 146.96089302 -219.81640625 148.44140625 C-210.64506098 181.27367717 -188.48928424 207.99676878 -159.07763672 224.86572266 C-153.25162773 228.04640864 -147.19424202 230.63103191 -141 233 C-139.9584375 233.39960938 -138.916875 233.79921875 -137.84375 234.2109375 C-107.44745696 244.63028537 -73.06176048 241.52893485 -44.28125 227.82421875 C-31.79512922 221.56550477 -21.15288972 213.57369802 -11 204 C-10.33484375 203.39929688 -9.6696875 202.79859375 -8.984375 202.1796875 C11.48240916 182.96087798 24.8512852 152.48154902 26.16113281 124.56591797 C26.19882969 121.35773878 26.2311023 118.14980829 26.24023438 114.94140625 C26.24987894 112.90061704 26.28094 110.86086378 26.3125 108.8203125 C26.3825291 100.14525206 25.30794373 92.35714037 23 84 C22.65286791 82.5603958 22.3075289 81.12035673 21.96484375 79.6796875 C16.45963959 59.291593 5.43989265 42.26088989 -9 27 C-9.77085937 26.1646875 -10.54171875 25.329375 -11.3359375 24.46875 C-32.04724259 2.75204175 -63.80904324 -10.63907465 -93.65087891 -11.34936523 C-130.38998066 -11.65325728 -161.35094627 0.58351813 -188 26 Z " fill="#7747D3" transform="translate(314,107)"></path><path d="M0 0 C23.48223397 20.73151578 40.80124055 47.89439625 44.70068359 79.50146484 C44.99377086 84.54650181 45.0347775 89.57379835 45.01318359 94.62646484 C45.00995087 95.65409439 45.00995087 95.65409439 45.00665283 96.70248413 C44.8302286 131.66762627 31.84586779 161.42904623 7.70068359 186.50146484 C6.82863281 187.46826172 6.82863281 187.46826172 5.93896484 188.45458984 C-14.03701902 209.99041124 -46.05314386 221.25319878 -74.74853516 222.77880859 C-109.3937486 223.91095511 -141.70755429 211.33234586 -166.96313477 187.81420898 C-189.48398156 166.13850705 -204.48251796 136.01316736 -205.67041016 104.54052734 C-206.00671563 84.04785651 -203.85779685 65.31050353 -195.29931641 46.50146484 C-194.79787109 45.37869141 -194.29642578 44.25591797 -193.77978516 43.09912109 C-187.61327911 30.02959424 -179.26133341 18.9360633 -169.29931641 8.50146484 C-168.77466797 7.91365234 -168.25001953 7.32583984 -167.70947266 6.72021484 C-125.01219402 -39.34504251 -46.57456925 -39.7389633 0 0 Z M-152.29931641 10.50146484 C-153.11787109 11.18853516 -153.93642578 11.87560547 -154.77978516 12.58349609 C-175.83775296 30.70314281 -189.82374544 56.72496924 -192.29931641 84.50146484 C-193.99461933 116.11131681 -187.35789036 145.22169411 -166.29931641 169.50146484 C-165.63544922 170.30970703 -164.97158203 171.11794922 -164.28759766 171.95068359 C-146.45097672 192.95239808 -120.26932147 205.47238354 -93.29931641 209.50146484 C-78.29701782 210.45589328 -63.68730385 210.02763566 -49.29931641 205.50146484 C-48.61724121 205.2871582 -47.93516602 205.07285156 -47.23242188 204.85205078 C-17.31155751 195.11696491 6.20168264 175.23474631 20.93017578 147.40039062 C28.739842 131.82520327 32.05439946 115.96430052 31.95068359 98.62646484 C31.95841797 97.34126953 31.96615234 96.05607422 31.97412109 94.73193359 C31.91793211 67.05885968 22.03247209 42.14160078 3.70068359 21.50146484 C2.91177734 20.61201172 2.12287109 19.72255859 1.31005859 18.80615234 C-17.86633402 -1.44970608 -46.17264282 -14.7516243 -74.17431641 -15.83447266 C-102.86964312 -16.25721423 -130.39903514 -8.82231274 -152.29931641 10.50146484 Z " fill="#FCFBFE" transform="translate(295.29931640625,124.49853515625)"></path><path d="M0 0 C3.98087165 1.60177782 6.65493174 4.38230594 9.61328125 7.3828125 C10.14592087 7.91591034 10.67856049 8.44900818 11.2273407 8.9982605 C12.35339921 10.12733517 13.4770312 11.25883441 14.59838867 12.39257812 C16.29108744 14.10335871 17.99147489 15.80617492 19.69335938 17.5078125 C20.79213599 18.61151214 21.89045736 19.71566521 22.98828125 20.8203125 C23.48644852 21.31959259 23.98461578 21.81887268 24.49787903 22.33328247 C27.13370462 25.00363258 29.64343381 27.73248267 32.07617188 30.58935547 C36.76464891 35.99232238 41.89484716 40.9571089 46.98882103 45.97229004 C48.82972544 47.78621806 50.66593768 49.60477484 52.50080872 51.42480469 C57.71233376 56.59390207 62.92661479 61.76011712 68.15698242 66.91015625 C71.37032977 70.07482002 74.57368882 73.24930448 77.7708683 76.43029785 C78.98358128 77.63316271 80.19992847 78.83237583 81.42006493 80.02770996 C96.99217937 95.28999568 96.99217937 95.28999568 97.3125 107.125 C97.19806276 115.81078661 93.76253176 121.97135572 87.9375 128.2734375 C82.70883714 132.93285078 76.36851909 135.1400502 69.4375 135.375 C68.46683594 135.42398438 67.49617188 135.47296875 66.49609375 135.5234375 C56.83418212 134.07684961 50.20305846 127.91795781 43.60302734 121.1706543 C42.72374573 120.29210281 41.84446411 119.41355133 40.9385376 118.50837708 C38.55390913 116.12088294 36.18085188 113.72292869 33.8124423 111.31941199 C31.32581025 108.8013061 28.82480056 106.29755955 26.3253479 103.79219055 C21.60523445 99.05660001 16.89800105 94.30842198 12.19537604 89.55547124 C6.83642732 84.14043707 1.46309981 78.73976696 -3.91142201 73.34019601 C-14.95690925 62.24258975 -25.98439959 51.12727772 -37 40 C-34.15655293 37.14733492 -31.31176343 34.32310671 -28.328125 31.6171875 C-20.54176104 24.48752774 -13.38280623 17.43629102 -7 9 C-5.64653118 7.27028705 -4.29240937 5.54108477 -2.9375 3.8125 C-1.95687005 2.54279546 -0.97709698 1.27242533 0 0 Z " fill="#7746D3" transform="translate(351,313)"></path><path d="M0 0 C7.99444929 6.32147036 14.96987594 13.79386787 21 22 C21.56847656 21.7834375 22.13695312 21.566875 22.72265625 21.34375 C27.7242219 19.54018042 31.68962036 18.6610396 37 19 C37 23.29 37 27.58 37 32 C35.30875 32.4125 33.6175 32.825 31.875 33.25 C28.17063752 34.23530358 25.94481497 35.03820502 22.75 37.25 C20 39 20 39 16.5390625 38.98046875 C13 38 13 38 11.1015625 35.41015625 C10.61429688 34.30542969 10.12703125 33.20070312 9.625 32.0625 C2.68184218 17.92821444 -8.37133363 9.3766943 -23 4 C-38.16854103 -0.20018425 -53.13148946 1.72342944 -66.9765625 9.08203125 C-76.44723366 15.08991179 -83.58007778 22.56710938 -88 33 C-88.31324219 33.73734375 -88.62648437 34.4746875 -88.94921875 35.234375 C-90.6199121 39.70042357 -91.29074626 44.02285614 -91.875 48.75 C-92.44648612 52.65061955 -92.79218236 54.68827354 -95 58 C-97.57809175 59.71872783 -100.03249253 61.03410546 -102.8125 62.375 C-112.55280582 67.10063799 -118.6275333 73.71666165 -122.42431641 83.97753906 C-124.87371945 92.58265138 -124.16862018 102.85926156 -120.24609375 110.8671875 C-119.83488281 111.57101562 -119.42367187 112.27484375 -119 113 C-118.59910156 113.70382812 -118.19820312 114.40765625 -117.78515625 115.1328125 C-112.47296159 123.23198465 -103.22598416 128.48867189 -94 131 C-90.29781622 131.42458804 -86.62607272 131.43766837 -82.90234375 131.43237305 C-81.27662193 131.44766052 -81.27662193 131.44766052 -79.61805725 131.46325684 C-76.05781833 131.49330138 -72.49784886 131.50263998 -68.9375 131.51171875 C-66.46027742 131.52857171 -63.98306337 131.54672278 -61.50585938 131.56611633 C-55.00236676 131.61355507 -48.4989087 131.64340429 -41.99530029 131.66955566 C-35.35226262 131.69939194 -28.70935631 131.74591176 -22.06640625 131.79101562 C-9.04433314 131.87697919 3.9777645 131.94435554 17 132 C17 136.29 17 140.58 17 145 C3.25619569 145.04645811 -10.48758975 145.08193753 -24.23145676 145.10362434 C-30.61413102 145.11403592 -36.99675132 145.12814702 -43.37939453 145.15087891 C-49.54560116 145.17270108 -55.71175607 145.18458836 -61.87799835 145.18975449 C-64.2237657 145.19343345 -66.5695304 145.20061733 -68.91527557 145.21146011 C-72.21538789 145.22609968 -75.51528983 145.22797275 -78.81542969 145.22705078 C-79.7728154 145.23424133 -80.73020111 145.24143188 -81.71659851 145.24884033 C-98.23467108 145.19930598 -111.99436593 140.71433619 -124 129 C-134.3858528 116.66057028 -138.36360996 103.00084094 -137 87 C-134.37235637 73.2953437 -126.9083828 61.1089791 -115.33984375 53.17578125 C-108.57488345 49 -108.57488345 49 -106 49 C-105.91363281 48.20078125 -105.82726562 47.4015625 -105.73828125 46.578125 C-103.47988356 28.92532837 -95.07836336 13.16381974 -81 2 C-56.81117927 -14.70357094 -24.81528958 -16.96673288 0 0 Z " fill="#FCFBFE" transform="translate(262,153)"></path></svg>