<svg version="1.1" xmlns="http://www.w3.org/2000/svg" width="16px" height="16px" fill="currentColor" viewBox="0 0 512 512"><path d="M0 0 C168.96 0 337.92 0 512 0 C512 168.96 512 337.92 512 512 C343.04 512 174.08 512 0 512 C0 343.04 0 174.08 0 0 Z " fill="#7646D3" transform="translate(0,0)"></path><path d="M0 0 C5.33060771 4.10916719 8.99564315 8.60701374 12.3125 14.4375 C12.85197266 15.33662109 12.85197266 15.33662109 13.40234375 16.25390625 C17.15311717 23.98015381 16.60709522 36.27136613 14.1875 44.4375 C11.46291405 51.10046849 6.90659542 56.95992469 2.3125 62.4375 C3.281875 62.540625 4.25125 62.64375 5.25 62.75 C29.62211044 66.41788197 53.22553937 84.08739553 67.79248047 103.37890625 C72.17884285 109.42019656 75.79596518 115.8634652 79.3125 122.4375 C79.71082031 123.14132813 80.10914063 123.84515625 80.51953125 124.5703125 C84.0711479 131.10755112 86.06842035 138.37416733 88.3125 145.4375 C91.18834583 145.4375 92.19185848 144.02026078 94.375 142.1875 C103.97808138 134.72011969 112.1428797 133.25459095 124.16210938 134.16699219 C132.92991711 135.26993621 141.20018735 140.17296501 147.3125 146.4375 C155.41766705 157.10464514 157.80794624 167.25428335 156.3125 180.4375 C153.77539503 190.47265626 148.19909328 199.29067476 139.375 204.8125 C129.39806214 210.5088485 119.67832954 212.02057024 108.3125 210.4375 C100.26119086 207.91755641 93.66904066 202.86303218 87.3125 197.4375 C87.1990625 198.43910156 87.085625 199.44070313 86.96875 200.47265625 C84.54431632 217.24586498 74.25180057 233.91279355 63.3125 246.4375 C62.48685547 247.46037109 62.48685547 247.46037109 61.64453125 248.50390625 C48.45308615 264.51537524 27.22002139 277.01397654 7.3125 282.4375 C4.5 282.5390625 4.5 282.5390625 2.3125 282.4375 C2.91578125 283.18773437 3.5190625 283.93796875 4.140625 284.7109375 C12.94487319 295.98605535 16.74833533 305.02026476 15.58740234 319.39697266 C14.3751978 328.39484618 9.23533078 337.29500051 2.31640625 343.1171875 C-7.87344002 350.41900247 -18.22517775 352.79210024 -30.6875 351.4375 C-41.15976889 348.73675697 -49.49858395 342.22176795 -55.6875 333.4375 C-60.87531513 323.02507673 -62.65644885 312.36627158 -59.81640625 300.9296875 C-57.2643008 294.38625648 -53.69062117 289.33969365 -48.6875 284.4375 C-51.67898393 282.81679731 -54.76081128 281.66554377 -57.96557617 280.53613281 C-72.53478922 275.35394783 -84.78791292 268.2753578 -96.6875 258.4375 C-97.43644531 257.84195312 -98.18539062 257.24640625 -98.95703125 256.6328125 C-114.86525023 243.51716056 -127.3032721 222.2007836 -132.6875 202.4375 C-132.7890625 199.625 -132.7890625 199.625 -132.6875 197.4375 C-133.42613281 198.04078125 -134.16476563 198.6440625 -134.92578125 199.265625 C-146.00860583 207.99669392 -156.26227254 212.19900939 -170.57275391 210.79394531 C-180.67287751 209.09154627 -189.56934524 202.42617341 -195.6875 194.4375 C-201.64224761 184.80946229 -202.52283922 175.58298493 -201.6875 164.4375 C-199.03355087 153.90420966 -192.40753864 145.72403948 -183.6875 139.4375 C-173.5030106 133.79501275 -162.49836364 132.53386875 -151.11328125 135.30859375 C-144.60130562 137.85168283 -139.56593197 141.45862973 -134.6875 146.4375 C-133.06675034 143.44592937 -131.91556447 140.36394533 -130.78588867 137.15917969 C-125.80562667 123.15460899 -119.13728344 110.97275289 -109.6875 99.4375 C-109.00171875 98.58671875 -108.3159375 97.7359375 -107.609375 96.859375 C-92.39243841 78.93720524 -71.00999241 67.79000579 -48.6875 61.4375 C-49.25017578 60.72787109 -49.25017578 60.72787109 -49.82421875 60.00390625 C-59.28849295 47.77425219 -61.94656108 37.82407042 -60.6875 22.4375 C-58.68793344 12.90944488 -52.47770427 5.22473493 -44.75 -0.4375 C-43.08290381 -1.51151862 -41.3966002 -2.55666591 -39.6875 -3.5625 C-39.07519531 -3.92472656 -38.46289062 -4.28695312 -37.83203125 -4.66015625 C-26.08204271 -10.23686163 -10.27365651 -6.89086717 0 0 Z " fill="#FCFBFE" transform="translate(278.6875,83.5625)"></path><path d="M0 0 C1.91697937 0.14166357 3.83357723 0.28849584 5.75 0.4375 C7.35101563 0.55931641 7.35101563 0.55931641 8.984375 0.68359375 C12 1 12 1 13.9092865 1.51069641 C16.16205705 2.03792729 18.1548394 2.13379891 20.46704102 2.14526367 C21.34638809 2.15164352 22.22573517 2.15802338 23.13172913 2.16459656 C24.07954758 2.16570938 25.02736603 2.1668222 26.00390625 2.16796875 C26.99639877 2.17129715 27.9888913 2.17462555 29.01145935 2.17805481 C31.12050922 2.18312025 33.2295671 2.18546325 35.33862305 2.18530273 C38.49867907 2.1874565 41.65836666 2.205524 44.81835938 2.22460938 C57.346402 2.2582422 69.57599664 1.62372202 82 0 C83.1458962 3.83849013 84.21628743 7.53486668 84.6328125 11.5234375 C84.71660156 12.3175 84.80039062 13.1115625 84.88671875 13.9296875 C84.96535156 14.73664063 85.04398437 15.54359375 85.125 16.375 C85.21136719 17.17421875 85.29773438 17.9734375 85.38671875 18.796875 C85.94602878 24.28344002 86 29.40271736 86 35 C56.3 35 26.6 35 -4 35 C-2.64705882 7.94117647 -2.64705882 7.94117647 0 0 Z " fill="#7B4BD6" transform="translate(215,215)"></path><path d="M0 0 C0.95001389 -0.00570007 1.90002777 -0.01140015 2.87882996 -0.01727295 C4.89015602 -0.02669874 6.90149736 -0.03324728 8.9128418 -0.03710938 C11.93241925 -0.04672204 14.95128785 -0.07772961 17.97070312 -0.109375 C29.70445076 -0.17167103 40.7068481 0.64742905 52.16796875 3.203125 C49.07873041 20.81178354 40.68176179 38.68232164 26.2734375 49.64453125 C20.44232033 53.16775363 13.75875165 53.26250237 7.16796875 52.203125 C3.65987484 50.70570331 1.01736981 48.71531883 -1.83203125 46.203125 C-2.43402344 45.71972656 -3.03601563 45.23632812 -3.65625 44.73828125 C-14.22665191 35.40307237 -20.14855809 19.50862536 -23.83203125 6.203125 C-23.83203125 5.213125 -23.83203125 4.223125 -23.83203125 3.203125 C-15.77226845 1.11870359 -8.32929928 0.03933069 0 0 Z " fill="#7142CE" transform="translate(241.83203125,303.796875)"></path><path d="M0 0 C12.99748066 7.89132754 21.32161779 23.38407455 25.75 37.5625 C26.18572741 40.22819842 26.47641306 42.8727084 26.75 45.5625 C1.76207629 49.96750649 -23.26207629 49.96750649 -48.25 45.5625 C-46.98487984 40.01448524 -45.37154985 34.9464843 -43.0625 29.75 C-42.75497803 29.05712891 -42.44745605 28.36425781 -42.13061523 27.65039062 C-37.72295226 17.96183785 -32.41463216 9.51634503 -24.25 2.5625 C-23.72019531 2.10746094 -23.19039062 1.65242187 -22.64453125 1.18359375 C-16.42661682 -3.22268142 -6.81454243 -2.96343829 0 0 Z " fill="#7E4CD9" transform="translate(266.25,157.4375)"></path><path d="M0 0 C29.7 0 59.4 0 90 0 C88.83928571 24.375 88.83928571 24.375 87 32 C84.60385425 31.85834107 82.20817103 31.71181159 79.8125 31.5625 C79.13896484 31.52318359 78.46542969 31.48386719 77.77148438 31.44335938 C72.43771617 31.10512042 72.43771617 31.10512042 69.87939453 30.49072266 C65.64302107 29.768736 61.45029439 29.83725123 57.16015625 29.83203125 C56.2016124 29.82870285 55.24306854 29.82537445 54.25547791 29.82194519 C52.22558063 29.81688834 50.19567506 29.81453648 48.16577148 29.81469727 C45.10450945 29.81252974 42.0436193 29.79441348 38.98242188 29.77539062 C29.41656005 29.74876813 20.18054066 29.8885634 10.73999023 31.5690918 C8.10767878 31.98306575 5.65910331 32.07700047 3 32 C1.22544667 21.28376536 0.6073227 10.93180858 0 0 Z " fill="#7748D2" transform="translate(211,262)"></path><path d="M0 0 C5.39049561 3.6282182 9.00426581 7.80984142 11 14 C11.8550905 20.81314045 12.53934955 28.3987348 9 34.5625 C4.38267388 40.46169002 -0.67127443 45.06995053 -8 47 C-15.71534601 47.8232255 -22.63398649 47.75702108 -29 43 C-33.64360686 39.21006632 -37.82303525 35.06188924 -39 29 C-39.80024314 21.03353459 -40.13399902 13.70531174 -35.546875 6.86328125 C-26.10990167 -4.50398208 -13.02562915 -7.6149832 0 0 Z " fill="#6C3FC8" transform="translate(270,375)"></path><path d="M0 0 C6.41702559 3.68477641 12.21713539 10.06840695 14.4375 17.1484375 C15.32559649 25.12065253 14.95945379 32.35887638 10.4375 39.1484375 C5.86695767 44.81458198 1.11653464 48.65199873 -6.296875 49.65234375 C-7.63481441 49.69699134 -8.97382447 49.71574308 -10.3125 49.7109375 C-11.36594604 49.70731201 -11.36594604 49.70731201 -12.44067383 49.70361328 C-20.39539632 49.42405143 -26.10566537 46.04854869 -31.5 40.2734375 C-36.24438104 33.08498137 -37.80984502 26.3331899 -36.09375 17.82421875 C-34.00199898 10.49063928 -29.95952486 5.48405367 -23.6875 1.2109375 C-16.80088295 -2.30836935 -7.30401488 -2.42724885 0 0 Z " fill="#8350DF" transform="translate(407.5625,231.8515625)"></path><path d="M0 0 C5.66848217 4.56351489 9.50426073 9.32614925 10.50390625 16.734375 C10.54838317 18.07232009 10.56714596 19.41132391 10.5625 20.75 C10.56080811 21.45157227 10.55911621 22.15314453 10.55737305 22.87597656 C10.28857855 30.69708736 7.07494678 35.84194655 1.6875 41.375 C-5.41477746 45.66940032 -11.56326646 48.31326513 -20 47 C-27.6712121 44.68626345 -33.74622248 40.59087046 -37.875 33.625 C-41.15406109 26.51327011 -41.69407864 17.95789987 -39.1484375 10.5078125 C-35.76903901 4.59961242 -30.24392416 -0.30431237 -24.25 -3.4375 C-15.56898885 -4.9399827 -7.54686144 -4.93950048 0 0 Z " fill="#8350DF" transform="translate(271,94)"></path><path d="M0 0 C6.97989838 3.20927042 11.80329358 7.88576479 14.88671875 14.93359375 C17.23134511 22.33692911 16.7233156 28.30033012 13.51171875 35.37109375 C9.67915755 42.42010702 4.64600677 46.64600037 -2.98828125 49.12109375 C-10.42012517 49.91171544 -18.09268835 50.50896338 -24.27734375 45.7421875 C-30.2694859 40.06470122 -34.41457991 35.49787612 -35.32421875 26.97265625 C-35.43766882 17.60168064 -34.02596831 12.14784536 -27.61328125 5.30859375 C-20.14884447 -2.13815479 -9.84579425 -2.89582184 0 0 Z " fill="#6C3FC8" transform="translate(124.98828125,231.87890625)"></path><path d="M0 0 C2.96430693 2.3319988 4.33493008 5.36414173 5.93359375 8.6953125 C6.45191772 9.75480103 6.45191772 9.75480103 6.98071289 10.83569336 C12.71623981 22.931541 16.07850926 35.14179014 15.99609375 48.5703125 C10.03296209 48.59495824 4.0698598 48.6131465 -1.89331055 48.62524414 C-3.92358923 48.63028528 -5.95386427 48.63711807 -7.98413086 48.64575195 C-10.89567972 48.65782717 -13.80718075 48.66354284 -16.71875 48.66796875 C-18.08905617 48.67571068 -18.08905617 48.67571068 -19.48704529 48.68360901 C-21.65966052 48.68380418 -23.83217921 48.63243055 -26.00390625 48.5703125 C-28.15058232 46.42363643 -27.33406377 41.56272436 -27.44140625 38.5703125 C-27.83523723 29.16260055 -28.75915554 19.89990038 -30.00390625 10.5703125 C-25.95963618 9.05144426 -21.91446582 7.5354875 -17.86328125 6.03515625 C-17.18523437 5.78314453 -16.5071875 5.53113281 -15.80859375 5.27148438 C-14.42379692 4.75679278 -13.03836501 4.24380704 -11.65234375 3.73242188 C-7.60530668 2.22676174 -7.60530668 2.22676174 -3.76953125 0.26171875 C-2.00390625 -0.4296875 -2.00390625 -0.4296875 0 0 Z " fill="#8250DC" transform="translate(340.00390625,201.4296875)"></path><path d="M0 0 C4.52282644 1.45202877 8.91846665 3.1402734 13.3125 4.9375 C18.8188473 7.1682453 24.33144156 9.20992891 30 11 C29.81824219 12.60101563 29.81824219 12.60101563 29.6328125 14.234375 C29.46347738 15.7395761 29.29421043 17.24478487 29.125 18.75 C29.04636719 19.4409375 28.96773437 20.131875 28.88671875 20.84375 C27.83578601 30.22130365 26.93916271 39.60837291 26 49 C12.14 49 -1.72 49 -16 49 C-16 33.44416682 -11.61503872 11.61503872 0 0 Z " fill="#7546D0" transform="translate(172,201)"></path><path d="M0 0 C14.19 0 28.38 0 43 0 C43 17.56898011 37.02820274 31.5720881 29 47 C22.01302922 44.75196395 15.20639724 42.16644208 8.3984375 39.4296875 C4.61688106 37.93255253 1.04927221 36.59929229 -3 36 C-2.86722656 34.90945313 -2.73445313 33.81890625 -2.59765625 32.6953125 C-2.4189854 31.17190845 -2.24061701 29.6484689 -2.0625 28.125 C-1.97548828 27.41730469 -1.88847656 26.70960938 -1.79882812 25.98046875 C-0.79849063 17.31087713 -0.4872807 8.77105265 0 0 Z " fill="#7D4DD8" transform="translate(313,262)"></path><path d="M0 0 C14.19 0 28.38 0 43 0 C43.9375 13.5 43.9375 13.5 44.22631836 17.70898438 C44.65805834 23.83553822 45.14745351 29.91696558 46 36 C44.36804688 36.43699219 44.36804688 36.43699219 42.703125 36.8828125 C34.39985571 39.17601521 26.88608594 41.67997755 19.3203125 45.86328125 C17 47 17 47 14 47 C5.95420468 30.94446607 1.31728647 18.44201054 0 0 Z " fill="#7143CC" transform="translate(156,262)"></path><path d="M0 0 C17.19751471 3.43950294 33.08067708 14.50925606 46 26 C46.825 26.70511719 47.65 27.41023438 48.5 28.13671875 C66.87353424 44.12743526 82.20516822 65.16726364 91 88 C91 88.66 91 89.32 91 90 C86.38 90 81.76 90 77 90 C76.2265625 88.53949219 75.453125 87.07898438 74.65625 85.57421875 C66.76511816 70.68195266 66.76511816 70.68195266 57 57 C56.5781543 56.47035645 56.15630859 55.94071289 55.72167969 55.39501953 C40.39275747 36.20415955 21.63278687 24.12720934 0 13 C0 8.71 0 4.42 0 0 Z " fill="#FBF9FE" transform="translate(310,112)"></path><path d="M0 0 C4.29 0 8.58 0 13 0 C11.95183578 5.24082109 10.21778119 9.28281575 7.9375 14.0625 C7.33240601 15.33178345 7.33240601 15.33178345 6.71508789 16.62670898 C-9.45997809 49.86084553 -38.52231628 74.40354355 -71.86328125 89.27734375 C-74 90 -74 90 -77 90 C-77 85.71 -77 81.42 -77 77 C-75.79085938 76.39414062 -74.58171875 75.78828125 -73.3359375 75.1640625 C-62.90641716 69.85997369 -53.1830902 64.26204223 -44 57 C-43.41911621 56.54399414 -42.83823242 56.08798828 -42.23974609 55.61816406 C-23.09890011 40.40779449 -11.06776925 21.51722738 0 0 Z " fill="#FBFAFE" transform="translate(387,310)"></path><path d="M0 0 C0 4.62 0 9.24 0 14 C-1.81371094 14.90878906 -1.81371094 14.90878906 -3.6640625 15.8359375 C-14.09219301 21.13984511 -23.80813439 26.75161997 -33 34 C-33.55913086 34.43957031 -34.11826172 34.87914062 -34.69433594 35.33203125 C-53.72781057 50.47155147 -66.23485862 69.46971723 -77 91 C-81.62 91 -86.24 91 -91 91 C-75.9149285 52.55739843 -47.49228763 20.17893211 -9.23291016 3.38598633 C-1.33662541 0 -1.33662541 0 0 0 Z " fill="#FBFAFE" transform="translate(202,111)"></path><path d="M0 0 C4.29 0 8.58 0 13 0 C13.61746094 1.22074219 14.23492187 2.44148438 14.87109375 3.69921875 C32.19753492 37.5551262 56.07780236 60.03890118 90 77 C90 81.62 90 86.24 90 91 C69.66036678 82.37415806 52.51561218 71.66531538 36 57 C35.34644531 56.41992188 34.69289062 55.83984375 34.01953125 55.2421875 C19.07091377 41.11024033 7.67651602 21.93397667 0 3 C0 2.01 0 1.02 0 0 Z " fill="#FCFBFE" transform="translate(112,310)"></path><path d="M0 0 C1.08565413 2.69119897 1.91478122 5.21838405 2.6875 8 C6.1851332 19.53766225 11.74792572 29.73865903 18 40 C1.49657277 35.04897183 -17.24260209 24.74248594 -27 10 C-27 9.34 -27 8.68 -27 8 C-24.48159568 6.86928786 -21.96051069 5.74535012 -19.4375 4.625 C-18.73302734 4.30789063 -18.02855469 3.99078125 -17.30273438 3.6640625 C-4.72181567 -1.90168955 -4.72181567 -1.90168955 0 0 Z " fill="#7043CA" transform="translate(206,311)"></path><path d="M0 0 C6.37322418 1.19751364 12.11536302 3.06059036 18.0625 5.625 C18.83271484 5.94984375 19.60292969 6.2746875 20.39648438 6.609375 C22.2671933 7.39948809 24.13402675 8.19876694 26 9 C18.79780441 24.19367288 -0.11575779 34.48010992 -15.0390625 40.46875 C-17 41 -17 41 -19 40 C-18.55269531 39.32195312 -18.10539062 38.64390625 -17.64453125 37.9453125 C-9.7973694 25.86503348 -4.80224407 13.51789033 0 0 Z " fill="#7849D3" transform="translate(307,310)"></path><path d="M0 0 C-0.52787109 0.73089844 -0.52787109 0.73089844 -1.06640625 1.4765625 C-8.73131004 12.48360449 -13.82459398 24.33909141 -18 37 C-26.79029799 36.69156849 -34.03345739 33.43222587 -42 30 C-42 26 -42 26 -40.125 23.8125 C-39.08647747 22.87151826 -38.04427074 21.93459847 -37 21 C-36.35289062 20.3503125 -35.70578125 19.700625 -35.0390625 19.03125 C-29.89577119 14.04594375 -24.52949605 10.25486657 -18.375 6.625 C-17.67084961 6.20839111 -16.96669922 5.79178223 -16.24121094 5.36254883 C-3.67159717 -1.83579858 -3.67159717 -1.83579858 0 0 Z " fill="#7A4BD5" transform="translate(224,162)"></path><path d="M0 0 C5.32106016 0.89353762 9.45844608 3.05496941 14.1875 5.5625 C15.03594482 6.01069092 15.88438965 6.45888184 16.75854492 6.9206543 C23.0924644 10.34421399 28.62963489 14.1915242 34 19 C35.12314479 19.87738007 36.24791561 20.75268653 37.375 21.625 C40.18819391 24.17027068 41.95453687 26.82300407 44 30 C41.17098808 31.15759783 38.33753932 32.30115001 35.5 33.4375 C34.70851563 33.76298828 33.91703125 34.08847656 33.1015625 34.42382812 C28.00644204 36.44934733 23.46882143 37.55471752 18 38 C17.64808594 37.00742188 17.29617188 36.01484375 16.93359375 34.9921875 C12.47605326 22.64022496 7.26063759 11.00096604 0 0 Z " fill="#8351DE" transform="translate(288,161)"></path></svg>