<svg version="1.1" xmlns="http://www.w3.org/2000/svg" width="16px" height="16px" fill="currentColor" viewBox="0 0 512 512"><path d="M0 0 C168.96 0 337.92 0 512 0 C512 168.96 512 337.92 512 512 C343.04 512 174.08 512 0 512 C0 343.04 0 174.08 0 0 Z " fill="#7746D3" transform="translate(0,0)"></path><path d="M0 0 C1.04027344 0.32871094 2.08054688 0.65742188 3.15234375 0.99609375 C15.58593903 5.35161985 26.92976092 11.8473795 37 20.3125 C37.60577881 20.81595947 38.21155762 21.31941895 38.83569336 21.83813477 C40.5 23.30078125 40.5 23.30078125 43 26 C43 30 43 30 41.5390625 31.921875 C40.90742188 32.52515625 40.27578125 33.1284375 39.625 33.75 C38.99851562 34.36359375 38.37203125 34.9771875 37.7265625 35.609375 C36 37 36 37 34 37 C34 36.34 34 35.68 34 35 C33.40703125 34.73316406 32.8140625 34.46632812 32.203125 34.19140625 C29.96181375 32.97934963 28.55421814 31.72064083 26.75 29.9375 C19.4440537 23.36352941 10.07537876 18.6301515 1 15 C1 46.35 1 77.7 1 110 C11.56 110 22.12 110 33 110 C33 99.44 33 88.88 33 78 C37.29 78 41.58 78 46 78 C46.09891077 83.76573685 46.17148845 89.5309794 46.21972656 95.29736328 C46.23983632 97.25871381 46.26712818 99.22000444 46.30175781 101.18115234 C46.35030421 104.00112695 46.37297486 106.82030865 46.390625 109.640625 C46.41127014 110.51680481 46.43191528 111.39298462 46.45318604 112.29571533 C46.45450645 115.88187537 46.34343261 118.33926551 44.67480469 121.54956055 C40.25526169 123.94610171 35.75819259 123.58953693 30.8125 123.56640625 C29.71784424 123.57260483 28.62318848 123.57880341 27.49536133 123.58518982 C25.18213796 123.59229034 22.8688635 123.58911001 20.55566406 123.57641602 C17.01271753 123.56254977 13.47241094 123.59662155 9.9296875 123.63476562 C7.68229102 123.63571679 5.43489123 123.63385814 3.1875 123.62890625 C1.59675659 123.64879356 1.59675659 123.64879356 -0.02612305 123.66908264 C-1.50786011 123.65028297 -1.50786011 123.65028297 -3.01953125 123.63110352 C-3.88682861 123.63014175 -4.75412598 123.62917999 -5.64770508 123.62818909 C-8 123 -8 123 -10.28289795 121.10992432 C-12.77048953 116.60453015 -12.52827095 112.67754394 -12.45410156 107.61010742 C-12.45468567 106.56574524 -12.45526978 105.52138306 -12.45587158 104.44537354 C-12.4530881 100.99839882 -12.42198234 97.55229214 -12.390625 94.10546875 C-12.38316358 91.71365328 -12.37747018 89.3218317 -12.37347412 86.93000793 C-12.35821015 80.63834725 -12.31892112 74.3470566 -12.2746582 68.05554199 C-12.23372235 61.63408412 -12.21546666 55.2125664 -12.1953125 48.79101562 C-12.15242813 36.19384794 -12.08416705 23.59695476 -12 11 C-18.27 10.34 -24.54 9.68 -31 9 C-30.97643433 11.65736206 -30.97643433 11.65736206 -30.95239258 14.3684082 C-30.90403 20.21972717 -30.86955153 26.07103922 -30.84456348 31.92249775 C-30.82890307 35.47049936 -30.80765849 39.01828487 -30.77368164 42.56616211 C-30.73486993 46.64438967 -30.72029398 50.72239001 -30.70703125 54.80078125 C-30.69154739 56.07585037 -30.67606354 57.35091949 -30.66011047 58.66462708 C-30.65977058 60.43612373 -30.65977058 60.43612373 -30.65942383 62.2434082 C-30.64943108 63.80560844 -30.64943108 63.80560844 -30.63923645 65.39936829 C-31 68 -31 68 -32.09838867 69.83276367 C-34.97477916 71.59833344 -37.41076927 71.40225107 -40.76635742 71.43237305 C-41.44954544 71.4425647 -42.13273346 71.45275635 -42.83662415 71.46325684 C-45.09298861 71.49343178 -47.34892887 71.5026592 -49.60546875 71.51171875 C-51.17061275 71.52856219 -52.7357432 71.54671198 -54.30085754 71.56611633 C-58.41897343 71.61365927 -62.53703438 71.64344064 -66.65533447 71.66955566 C-70.85822402 71.69933968 -75.06092414 71.74587736 -79.26367188 71.79101562 C-87.50902162 71.87709751 -95.75438851 71.94442083 -104 72 C-105.18365575 75.9019108 -106.23532467 79.53991329 -106.4140625 83.62109375 C-106.45273438 84.41064453 -106.49140625 85.20019531 -106.53125 86.01367188 C-106.57765625 87.2134668 -106.57765625 87.2134668 -106.625 88.4375 C-106.66367188 89.26443359 -106.70234375 90.09136719 -106.7421875 90.94335938 C-106.83553092 92.96191073 -106.91880961 94.98092331 -107 97 C-105.66029144 96.98667633 -105.66029144 96.98667633 -104.29351807 96.9730835 C-95.87718257 96.89294066 -87.46097519 96.83203718 -79.04434586 96.79275131 C-74.71722386 96.77187497 -70.39041712 96.74355688 -66.06347656 96.69824219 C-61.88782401 96.65478548 -57.7124747 96.63086325 -53.53661346 96.62049103 C-51.9433693 96.61309928 -50.35014176 96.59866479 -48.75702667 96.57707977 C-46.52547831 96.54804673 -44.29518336 96.54404374 -42.06347656 96.54589844 C-40.79328674 96.53701599 -39.52309692 96.52813354 -38.2144165 96.51898193 C-34.42998556 97.08529923 -33.26368126 97.97222757 -31 101 C-29.07778502 109.3924928 -28.79128651 121.67687764 -32.73828125 129.40234375 C-35.02502287 131.6495907 -37.2829755 133.30770618 -40 135 C-41.33185439 136.14452227 -42.64531468 137.3108724 -43.9375 138.5 C-44.58976562 139.05945313 -45.24203125 139.61890625 -45.9140625 140.1953125 C-48.25025501 142.21651276 -50.52964851 144.29378839 -52.8125 146.375 C-56.18940982 149.42858867 -59.63217132 152.34429205 -63.1875 155.1875 C-68.52139407 159.49535504 -73.47515486 164.13859865 -78.4519043 168.84643555 C-82.84997201 172.98543211 -87.40262801 176.82709615 -92.125 180.59375 C-96.39132853 184.16448149 -100.39187376 188.00460921 -104.43115234 191.82788086 C-109.00230107 196.13127581 -113.69636457 200.15212478 -118.6328125 204.03515625 C-121.25453503 206.21127247 -123.62383556 208.5604148 -126 211 C-124.90012224 214.29963329 -124.54413252 214.61064772 -121.6875 216.25 C-121.09324219 216.60578125 -120.49898437 216.9615625 -119.88671875 217.328125 C-117.45099344 218.19550544 -116.42901814 217.8448637 -114 217 C-112.06971228 215.63075771 -112.06971228 215.63075771 -110.23046875 213.88671875 C-109.53356934 213.25427246 -108.83666992 212.62182617 -108.11865234 211.97021484 C-107.06991943 210.9949585 -107.06991943 210.9949585 -106 210 C-105.36143066 209.41041504 -104.72286133 208.82083008 -104.06494141 208.21337891 C-102.13850855 206.42237891 -100.22417876 204.6192332 -98.3125 202.8125 C-96.90402425 201.48657708 -95.49516522 200.16106119 -94.0859375 198.8359375 C-93.39467773 198.18592773 -92.70341797 197.53591797 -91.99121094 196.86621094 C-89.15444284 194.20752343 -86.29838203 191.57018892 -83.4375 188.9375 C-78.77356691 184.64419143 -74.13106415 180.32874299 -69.5 176 C-57.61195748 164.89360353 -57.61195748 164.89360353 -51.9375 159.71484375 C-50.07223014 157.99095737 -48.23483932 156.23600572 -46.4375 154.44140625 C-40.88340987 149.02804476 -40.88340987 149.02804476 -36.0625 148.875 C-33 150 -33 150 -31 152 C-30.81234227 154.40926234 -30.74799019 156.70248397 -30.77294922 159.11181641 C-30.77265717 159.84362625 -30.77236511 160.5754361 -30.77206421 161.329422 C-30.77345999 163.75358854 -30.7890326 166.17744951 -30.8046875 168.6015625 C-30.80841675 170.28022087 -30.81126414 171.95888141 -30.81326294 173.63754272 C-30.82090631 178.05991607 -30.84056078 182.48215845 -30.8626709 186.90447998 C-30.88311421 191.41546863 -30.89226141 195.9264784 -30.90234375 200.4375 C-30.92380608 209.29173352 -30.95899389 218.14583539 -31 227 C-24.73 227 -18.46 227 -12 227 C-12.08701172 224.05513672 -12.08701172 224.05513672 -12.17578125 221.05078125 C-12.22267949 218.47137792 -12.26817957 215.89194891 -12.3125 213.3125 C-12.3753418 211.37213867 -12.3753418 211.37213867 -12.43945312 209.39257812 C-12.45556641 208.14541016 -12.47167969 206.89824219 -12.48828125 205.61328125 C-12.52755737 203.89298706 -12.52755737 203.89298706 -12.56762695 202.13793945 C-12 199 -12 199 -10.16113281 196.12597656 C-5.50431911 192.99410031 -1.42971737 193.30058428 4.06640625 193.37109375 C5.6729734 193.36747581 5.6729734 193.36747581 7.31199646 193.36378479 C9.57221181 193.36476278 11.83245125 193.3781447 14.0925293 193.40307617 C17.55404861 193.43741616 21.01301956 193.42372329 24.47460938 193.40429688 C26.67188588 193.41119443 28.86915579 193.42086599 31.06640625 193.43359375 C32.10189102 193.42863388 33.13737579 193.42367401 34.20423889 193.41856384 C41.2390857 193.53406138 41.2390857 193.53406138 44.65893555 195.62817383 C46.43101876 198.76230607 46.45596732 200.92179738 46.390625 204.515625 C46.37773437 205.76601563 46.36484375 207.01640625 46.3515625 208.3046875 C46.30128906 210.25761719 46.30128906 210.25761719 46.25 212.25 C46.23195313 213.56742188 46.21390625 214.88484375 46.1953125 216.2421875 C46.14816882 219.49510156 46.07642616 222.74764217 46 226 C52.27 226 58.54 226 65 226 C64.97381592 223.63303955 64.94763184 221.2660791 64.9206543 218.82739258 C64.83778228 211.00440848 64.78256721 203.18140491 64.74093914 195.35809803 C64.71485234 190.61504193 64.67947125 185.8724358 64.62280273 181.12963867 C64.56844991 176.5519691 64.53857256 171.97473213 64.52561378 167.39676476 C64.51637973 165.65081662 64.49834739 163.904892 64.47134972 162.15912819 C64.43501437 159.71209301 64.43005629 157.26684191 64.43237305 154.81958008 C64.41439667 154.09884811 64.39642029 153.37811615 64.37789917 152.63554382 C64.41448601 149.06064773 64.95754963 147.06586723 66.90332031 144.04675293 C71.325679 141.1237914 74.92025791 141.33454836 80.11450195 141.43237305 C81.12960342 141.43164291 82.1447049 141.43091278 83.19056702 141.43016052 C86.54035172 141.43363941 89.88873994 141.47251673 93.23828125 141.51171875 C95.56283305 141.52104575 97.88739469 141.5281624 100.21195984 141.53315735 C106.32617391 141.55223572 112.43979283 141.60134486 118.55377197 141.65667725 C124.79422962 141.70785096 131.03478357 141.73066745 137.27539062 141.75585938 C149.51718838 141.80946188 161.75854467 141.89478572 174 142 C172.93041603 140.25206017 171.85180195 138.50964437 170.76953125 136.76953125 C169.87004761 135.31317261 169.87004761 135.31317261 168.95239258 133.82739258 C162.13748953 123.95826763 151.17790186 117.72596729 140 114 C140.28482368 112.58194169 140.57818144 111.16559621 140.875 109.75 C141.11863281 108.56664062 141.11863281 108.56664062 141.3671875 107.359375 C141.99150075 105.03168856 142.84838542 103.10968048 144 101 C161.4665133 106.43928171 176.54215705 118.02910308 185.72265625 133.99609375 C194.51880434 151.6532264 196.02374406 173.52973998 190.2578125 192.41796875 C183.44490559 211.81994278 170.56605585 224.38760984 152.28515625 233.17578125 C150.85814956 233.78708272 149.42954283 234.39465311 148 235 C147.26091526 235.34134948 146.52183052 235.68269896 145.76034927 236.03439236 C135.21903559 240.27776105 124.3196409 239.56947288 113.13574219 239.53344727 C110.82498119 239.54051337 108.51422482 239.54926128 106.20347595 239.55955505 C99.95323521 239.58198423 93.70324848 239.57912383 87.4529829 239.57023358 C82.22225564 239.56510834 76.99157546 239.57242896 71.76085305 239.57970566 C58.70778174 239.59765431 45.65485136 239.59131526 32.60178521 239.57353585 C21.30006896 239.55885289 9.99861891 239.5734536 -1.30306306 239.60230602 C-12.94268049 239.63179687 -24.58216465 239.64213721 -36.22181773 239.63312382 C-42.74251227 239.62821139 -49.26300019 239.6303186 -55.78366852 239.65091133 C-61.92016993 239.66936425 -68.05618001 239.66319232 -74.19265556 239.63871193 C-76.43384752 239.63373401 -78.67507754 239.63711441 -80.91623878 239.64986038 C-96.95218767 239.73378481 -111.13226716 238.23853023 -125.25 229.875 C-125.90347412 229.49738525 -126.55694824 229.11977051 -127.23022461 228.73071289 C-133.97688259 224.67184835 -139.52601366 219.61693222 -145 214 C-145.66386719 213.34515625 -146.32773438 212.6903125 -147.01171875 212.015625 C-155.74962247 202.82609929 -161.03136099 191.19322351 -164 179 C-164.19207031 178.23429688 -164.38414062 177.46859375 -164.58203125 176.6796875 C-167.57149114 157.51361753 -164.06590757 136.49193186 -152.6875 120.6875 C-144.87977889 110.82511544 -135.03370476 103.14606635 -123 99 C-122.01 99 -121.02 99 -120 99 C-120.04640625 97.8140625 -120.0928125 96.628125 -120.140625 95.40625 C-120.88944331 67.79751964 -109.94031352 44.22582267 -91.3359375 24.12109375 C-81.85879638 14.31025047 -71.52626884 7.36102359 -59 2 C-58.09096924 1.60820557 -58.09096924 1.60820557 -57.16357422 1.20849609 C-40.06472301 -5.79037562 -17.46900032 -5.74546349 0 0 Z " fill="#FCFBFE" transform="translate(242,138)"></path><path d="M0 0 C0.87881836 -0.00636475 1.75763672 -0.01272949 2.66308594 -0.01928711 C14.27491195 0.20653476 24.56895146 4.81769916 33.0625 12.75 C41.92786033 22.24262639 45.81647047 32.73417966 45.66186523 45.56494141 C45.46123323 51.379869 44.51871669 56.1465638 42.3125 61.5 C41.86003906 62.63050781 41.40757812 63.76101562 40.94140625 64.92578125 C34.50040638 80.52347835 26.39634445 95.39276165 17.5625 109.75 C17.04413574 110.59457764 16.52577148 111.43915527 15.99169922 112.30932617 C6.35366934 127.69622217 6.35366934 127.69622217 2.32543945 129.2824707 C0.375 129.5625 0.375 129.5625 -2.6875 129.5 C-8.55178436 122.41345823 -13.39667075 114.80409971 -18.125 106.9375 C-18.49878784 106.3191629 -18.87257568 105.70082581 -19.25769043 105.06375122 C-24.87656745 95.75758018 -30.14324291 86.38139237 -34.6875 76.5 C-35.3990625 75.02466797 -35.3990625 75.02466797 -36.125 73.51953125 C-37.38054447 70.87018295 -38.54935597 68.20157319 -39.6875 65.5 C-40.08066406 64.62988281 -40.47382813 63.75976562 -40.87890625 62.86328125 C-45.26226573 51.91251908 -45.91335734 37.90258967 -41.625 26.8125 C-35.72622606 15.08104483 -26.72926009 6.18592768 -14.40234375 1.37890625 C-9.56584253 0.23462363 -4.95716357 0.03077637 0 0 Z " fill="#FCFBFE" transform="translate(338.6875,144.5)"></path><path d="M0 0 C25.16604959 -0.04010881 25.16604959 -0.04010881 35.85351562 -0.04882812 C43.15991945 -0.05481715 50.4663108 -0.06191902 57.77270508 -0.07543945 C63.66005147 -0.08626637 69.54738449 -0.09227642 75.43474007 -0.09487724 C77.68632277 -0.09673185 79.93790469 -0.10035313 82.18948174 -0.10573006 C85.33133427 -0.11293789 88.47313083 -0.11399105 91.61499023 -0.11352539 C93.02623421 -0.1189183 93.02623421 -0.1189183 94.46598816 -0.12442017 C100.88594784 -0.11405216 100.88594784 -0.11405216 102 1 C103.40707311 19.97065626 101.78562893 37.59641855 89.4375 52.8125 C80.09713029 62.45822795 68.73091665 67.49665193 56 71 C55.38223694 71.18070541 54.76447388 71.36141083 54.12799072 71.54759216 C51.62490235 72.07974523 49.33205225 72.11973799 46.77246094 72.11352539 C45.71720215 72.11340454 44.66194336 72.11328369 43.57470703 72.11315918 C42.47239746 72.10804321 41.37008789 72.10292725 40.234375 72.09765625 C39.21617676 72.09664917 38.19797852 72.09564209 37.14892578 72.09460449 C33.34927238 72.08937665 29.54963505 72.07541538 25.75 72.0625 C13.00375 72.0315625 13.00375 72.0315625 0 72 C0 48.24 0 24.48 0 0 Z " fill="#7B4AD7" transform="translate(320,293)"></path><path d="M0 0 C1.57753781 0.00747521 3.15508502 0.01316208 4.7326355 0.01715088 C8.85260378 0.0323068 12.9719936 0.07149942 17.09173584 0.1159668 C21.3084735 0.15713851 25.52530609 0.17520829 29.7421875 0.1953125 C37.99245076 0.23800559 46.24224685 0.30613206 54.4921875 0.390625 C54.55564176 2.15611048 54.60100793 3.92225267 54.63867188 5.68847656 C54.66586304 6.67189026 54.6930542 7.65530396 54.72106934 8.66851807 C54.43852527 12.02883344 53.19926014 13.73249498 50.63330078 15.91186523 C49.82094971 16.52010132 49.82094971 16.52010132 48.9921875 17.140625 C48.43901855 17.59832275 47.88584961 18.05602051 47.31591797 18.52758789 C46.21696034 19.43452421 45.10761061 20.32904322 43.98730469 21.20947266 C42.12976341 22.6769424 40.37489359 24.24311929 38.6171875 25.828125 C36.20807406 27.92300625 33.78119052 29.99611542 31.34765625 32.0625 C24.20804786 38.13437235 17.23317815 44.3391507 10.37109375 50.72265625 C5.8007957 54.9580885 1.10054087 59.02588691 -3.6484375 63.05859375 C-9.65933361 68.17143587 -15.60180724 73.33044038 -21.3828125 78.703125 C-21.92115723 79.20336182 -22.45950195 79.70359863 -23.01416016 80.21899414 C-23.53413574 80.70231201 -24.05411133 81.18562988 -24.58984375 81.68359375 C-27.06646393 83.98118115 -29.55031261 86.26579146 -32.0703125 88.515625 C-32.93849609 89.29292969 -32.93849609 89.29292969 -33.82421875 90.0859375 C-35.62558404 91.48189112 -37.44114846 92.44095443 -39.5078125 93.390625 C-48.68766093 81.19491859 -53.90782436 69.58020871 -53.8203125 54.203125 C-53.81467285 53.17735352 -53.8090332 52.15158203 -53.80322266 51.09472656 C-53.5701674 36.56223138 -49.62519265 24.06745653 -39.546875 13.234375 C-35.59602494 9.66195885 -31.21866781 6.85458419 -26.5078125 4.390625 C-25.87636826 4.05353516 -25.24492401 3.71644531 -24.59434509 3.36914062 C-16.55122436 -0.40664575 -8.66640606 -0.12160383 0 0 Z " fill="#6B3EC7" transform="translate(143.5078125,247.609375)"></path><path d="M0 0 C0.87881836 -0.00636475 1.75763672 -0.01272949 2.66308594 -0.01928711 C14.27491195 0.20653476 24.56895146 4.81769916 33.0625 12.75 C41.92786033 22.24262639 45.81647047 32.73417966 45.66186523 45.56494141 C45.46123323 51.379869 44.51871669 56.1465638 42.3125 61.5 C41.86003906 62.63050781 41.40757812 63.76101562 40.94140625 64.92578125 C34.50040638 80.52347835 26.39634445 95.39276165 17.5625 109.75 C17.04413574 110.59457764 16.52577148 111.43915527 15.99169922 112.30932617 C6.35366934 127.69622217 6.35366934 127.69622217 2.32543945 129.2824707 C0.375 129.5625 0.375 129.5625 -2.6875 129.5 C-8.55178436 122.41345823 -13.39667075 114.80409971 -18.125 106.9375 C-18.49878784 106.3191629 -18.87257568 105.70082581 -19.25769043 105.06375122 C-24.87656745 95.75758018 -30.14324291 86.38139237 -34.6875 76.5 C-35.3990625 75.02466797 -35.3990625 75.02466797 -36.125 73.51953125 C-37.38054447 70.87018295 -38.54935597 68.20157319 -39.6875 65.5 C-40.08066406 64.62988281 -40.47382813 63.75976562 -40.87890625 62.86328125 C-45.26226573 51.91251908 -45.91335734 37.90258967 -41.625 26.8125 C-35.72622606 15.08104483 -26.72926009 6.18592768 -14.40234375 1.37890625 C-9.56584253 0.23462363 -4.95716357 0.03077637 0 0 Z M-25.6875 25.5 C-30.43825905 33.38502605 -33.08340454 41.17515536 -31.31445312 50.45751953 C-30.76613223 52.5261377 -30.12997956 54.5375254 -29.4375 56.5625 C-29.17718994 57.32780029 -28.91687988 58.09310059 -28.64868164 58.8815918 C-22.03039515 77.2992116 -11.20551978 94.11104074 -0.6875 110.5 C3.69897401 109.037842 4.99888405 105.61656551 7.25 101.8125 C7.72727539 101.01448975 8.20455078 100.21647949 8.69628906 99.39428711 C10.25107425 96.77191307 11.78466807 94.13816108 13.3125 91.5 C13.83150879 90.60861328 14.35051758 89.71722656 14.88525391 88.79882812 C30.22780546 63.38286044 30.22780546 63.38286044 31.640625 34.765625 C28.73564394 26.35646931 23.61902386 20.51029352 16 16 C1.39518494 9.29464466 -15.86001828 12.52172261 -25.6875 25.5 Z " fill="#FCFBFE" transform="translate(338.6875,144.5)"></path><path d="M0 0 C1.54675415 -0.01418472 1.54675415 -0.01418472 3.12475586 -0.02865601 C4.23729736 -0.02258331 5.34983887 -0.01651062 6.49609375 -0.01025391 C7.63892822 -0.01312408 8.7817627 -0.01599426 9.95922852 -0.01895142 C12.3767954 -0.02099398 14.79437874 -0.01545079 17.21191406 -0.00292969 C20.9189946 0.01312039 24.62498475 -0.00277281 28.33203125 -0.02197266 C30.67838783 -0.01999026 33.02474373 -0.01614666 35.37109375 -0.01025391 C37.03990601 -0.01936295 37.03990601 -0.01936295 38.74243164 -0.02865601 C39.77360107 -0.01919952 40.80477051 -0.00974304 41.8671875 0 C43.22928345 0.00358017 43.22928345 0.00358017 44.61889648 0.00723267 C46.93359375 0.38818359 46.93359375 0.38818359 48.72499084 1.6025238 C50.32323026 3.96385509 50.32033407 5.50386436 50.33764648 8.34692383 C50.35033066 9.35484482 50.36301483 10.36276581 50.37608337 11.40122986 C50.37314774 12.48876053 50.3702121 13.5762912 50.3671875 14.69677734 C50.37242935 15.8150441 50.3776712 16.93331085 50.3830719 18.08546448 C50.38949889 20.45174326 50.3881464 22.81805396 50.37963867 25.18432617 C50.37113479 28.80819543 50.39987311 32.43048603 50.43164062 36.05419922 C50.43325281 38.35172479 50.43267477 40.64925315 50.4296875 42.94677734 C50.44092148 44.03228378 50.45215546 45.11779022 50.46372986 46.2361908 C50.44965843 47.75280052 50.44965843 47.75280052 50.43530273 49.30004883 C50.43513657 50.18812729 50.4349704 51.07620575 50.43479919 51.99119568 C49.75617218 55.23669266 48.56227056 56.41160483 45.93359375 58.38818359 C43.58129883 58.89611816 43.58129883 58.89611816 40.953125 58.90576172 C39.47138794 58.92467468 39.47138794 58.92467468 37.9597168 58.94396973 C36.89922119 58.9358728 35.83872559 58.92777588 34.74609375 58.91943359 C33.65143799 58.9232605 32.55678223 58.9270874 31.42895508 58.93103027 C29.1157133 58.93375096 26.80244083 58.92637893 24.48925781 58.90966797 C20.94656853 58.88826199 17.40590739 58.90946585 13.86328125 58.93505859 C11.61588094 58.93241535 9.36848188 58.92729044 7.12109375 58.91943359 C6.06059814 58.92753052 5.00010254 58.93562744 3.9074707 58.94396973 C2.919646 58.93136108 1.93182129 58.91875244 0.9140625 58.90576172 C0.04676514 58.90257935 -0.82053223 58.89939697 -1.71411133 58.89611816 C-4.92645916 58.20247108 -6.10600812 56.99318433 -8.06640625 54.38818359 C-8.56761169 51.99119568 -8.56761169 51.99119568 -8.56811523 49.30004883 C-8.57749619 48.28897568 -8.58687714 47.27790253 -8.59654236 46.2361908 C-8.58530838 45.15068436 -8.5740744 44.06517792 -8.5625 42.94677734 C-8.56395523 41.82755386 -8.56541046 40.70833038 -8.56690979 39.55519104 C-8.56525058 37.1906575 -8.55368703 34.82611319 -8.53295898 32.46166992 C-8.50398707 28.83579838 -8.51235388 25.21138685 -8.52539062 21.58544922 C-8.51915389 19.28921813 -8.51076346 16.99299167 -8.5 14.69677734 C-8.50293564 13.60924667 -8.50587128 12.521716 -8.50889587 11.40122986 C-8.4962117 10.39330887 -8.48352753 9.38538788 -8.47045898 8.34692383 C-8.465056 7.45964096 -8.45965302 6.57235809 -8.4540863 5.65818787 C-8.06640625 3.38818359 -8.06640625 3.38818359 -6.85780334 1.6025238 C-4.46418737 -0.02004449 -2.88289302 0.00757747 0 0 Z " fill="#FCFBFE" transform="translate(238.06640625,267.61181640625)"></path><path d="M0 0 C7.61902386 4.51029352 12.73564394 10.35646931 15.640625 18.765625 C20.94996445 40.37340184 4.78690448 63.56341855 -5.87841797 81.25634766 C-6.74297607 82.67633057 -6.74297607 82.67633057 -7.625 84.125 C-8.18074707 85.04458496 -8.73649414 85.96416992 -9.30908203 86.91162109 C-10.09774658 88.18126709 -10.09774658 88.18126709 -10.90234375 89.4765625 C-11.36761475 90.23018066 -11.83288574 90.98379883 -12.31225586 91.76025391 C-13.6875 93.5 -13.6875 93.5 -16.6875 94.5 C-39.96331592 56.41442144 -39.96331592 56.41442144 -45.3125 40.8125 C-45.5607251 40.09392822 -45.8089502 39.37535645 -46.06469727 38.63500977 C-48.72286166 30.26439027 -48.11633311 22.59513982 -44.6875 14.5 C-35.30756483 -1.53116193 -17.18345273 -7.96253428 0 0 Z M-37.05859375 15.21875 C-41.68962738 21.7044182 -41.63722379 28.79294946 -40.6875 36.5 C-37.91776841 43.88266534 -32.6854753 50.12731498 -25.5234375 53.52734375 C-19.6868457 55.70353004 -14.17877906 56.73901859 -8.2109375 54.62109375 C0.11775612 50.80901797 6.2922362 45.54119507 9.64453125 36.875 C11.92858791 28.75390964 10.20665318 22.59546577 6.22265625 15.27734375 C2.61437162 10.03094218 -1.9302028 6.8786486 -7.5625 4.0625 C-20.80801122 1.67830798 -28.34932225 5.22508089 -37.05859375 15.21875 Z " fill="#8452DF" transform="translate(354.6875,160.5)"></path><path d="M0 0 C0 15.18 0 30.36 0 46 C-18.15 46 -36.3 46 -55 46 C-50.27783005 36.55566009 -46.75785349 30.49240279 -40 23 C-39.31164062 22.21753906 -38.62328125 21.43507812 -37.9140625 20.62890625 C-28.81600593 10.87132513 -13.82376673 0 0 0 Z " fill="#7747D3" transform="translate(198,150)"></path><path d="M0 0 C0 18.15 0 36.3 0 55 C-7.26043996 55.04191402 -14.52044306 55.08198699 -21.78089905 55.10350037 C-25.16176517 55.11407136 -28.54253139 55.12820263 -31.92333984 55.15087891 C-35.80048318 55.17504885 -39.67748277 55.18646511 -43.5546875 55.1953125 C-44.76929657 55.20563507 -45.98390564 55.21595764 -47.23532104 55.22659302 C-48.35633209 55.22674408 -49.47734314 55.22689514 -50.63232422 55.22705078 C-51.62271698 55.231492 -52.61310974 55.23593323 -53.6335144 55.24050903 C-56 55 -56 55 -58 53 C-56.83687329 51.80903249 -55.66923328 50.62247296 -54.5 49.4375 C-53.8503125 48.77621094 -53.200625 48.11492187 -52.53125 47.43359375 C-50.47435176 45.45605115 -48.38803593 43.57575766 -46.234375 41.70703125 C-41.96488285 37.99855593 -37.85124687 34.14265264 -33.75 30.25 C-27.83222385 24.65687381 -21.88544845 19.10197379 -15.8671875 13.6171875 C-13.78148012 11.71334017 -11.7037739 9.8025571 -9.6328125 7.8828125 C-9.07762939 7.36952393 -8.52244629 6.85623535 -7.95043945 6.32739258 C-6.87952166 5.33692531 -5.81027505 4.34464726 -4.74291992 3.3503418 C-1.11230737 0 -1.11230737 0 0 0 Z " fill="#693CC5" transform="translate(198,309)"></path><path d="M0 0 C10.56 0 21.12 0 32 0 C32 10.56 32 21.12 32 32 C21.44 32 10.88 32 0 32 C0 21.44 0 10.88 0 0 Z " fill="#7444D0" transform="translate(243,281)"></path><path d="M0 0 C10.56 0 21.12 0 32 0 C32 6.6 32 13.2 32 20 C21.44 20 10.88 20 0 20 C0 13.4 0 6.8 0 0 Z " fill="#7448CD" transform="translate(243,345)"></path><path d="M0 0 C4.2523169 3.19699738 6.69285295 6.3804974 7.6875 11.625 C6.59058417 17.00985952 4.32296717 19.90711408 0.125 23.375 C-3.44606968 25.23195623 -5.04592929 25.72625789 -9 25 C-13.20264579 22.77092372 -16.2302057 20.5125561 -18 16 C-18.64908204 12.24215662 -18.84103267 8.58489424 -17.01953125 5.15234375 C-12.29214139 -0.76780294 -7.13389992 -2.44180467 0 0 Z " fill="#8552E0" transform="translate(345,178)"></path></svg>