<svg version="1.1" xmlns="http://www.w3.org/2000/svg" width="16px" height="16px" fill="currentColor" viewBox="0 0 512 512"><path d="M0 0 C168.96 0 337.92 0 512 0 C512 168.96 512 337.92 512 512 C343.04 512 174.08 512 0 512 C0 343.04 0 174.08 0 0 Z " fill="#3F52D5" transform="translate(0,0)"></path><path d="M0 0 C1.06347656 0.29003906 1.06347656 0.29003906 2.1484375 0.5859375 C28.42769729 8.1082535 48.81546905 27.6423329 62.28515625 50.75 C63.62313025 53.28575028 64.54609239 55.20672242 65 58 C65.7734375 57.51789063 66.546875 57.03578125 67.34375 56.5390625 C68.3853125 55.90742188 69.426875 55.27578125 70.5 54.625 C71.5209375 53.99851563 72.541875 53.37203125 73.59375 52.7265625 C83.16613216 47.87450641 94.85814184 47.49645091 105.265625 49.6875 C111.34358198 51.72480402 116.20096808 54.79445177 121 59 C121.59425781 59.47824219 122.18851563 59.95648438 122.80078125 60.44921875 C133.22394113 69.62437279 136.20913709 82.86700531 138 96 C138.804375 96.185625 138.804375 96.185625 139.625 96.375 C151.28101306 99.44237186 162.80023926 105.1941424 172 113 C172.80050781 113.60199219 173.60101563 114.20398438 174.42578125 114.82421875 C186.3013543 124.86169097 192.49353616 139.81549243 194 155 C194.70860842 166.12207127 195.18987337 177.50007637 191 188 C190.64808594 188.99 190.29617188 189.98 189.93359375 191 C186.4358403 200.2349926 181.23479126 207.30781808 174 214 C173.33871094 214.66902344 173.33871094 214.66902344 172.6640625 215.3515625 C160.67679306 226.7303411 142.79394723 233.07788602 126.52090454 233.15821838 C125.78890567 233.16315636 125.0569068 233.16809434 124.30272615 233.17318195 C121.86148758 233.18848239 119.42027515 233.19689724 116.97900391 233.20532227 C115.2244443 233.21490666 113.46988697 233.22491707 111.71533203 233.23532104 C106.95965528 233.26231537 102.20396867 233.28335452 97.44825792 233.30332303 C92.47544597 233.32521639 87.50266425 233.35258867 82.52987671 233.37937927 C73.11652897 233.42926089 63.70316442 233.47421651 54.28978384 233.51740164 C43.57156989 233.56681276 32.85338628 233.62171651 22.13520169 233.67708123 C0.09016139 233.79083172 -21.95490685 233.89696077 -44 234 C-33.44 244.56 -22.88 255.12 -12 266 C-13.806612 269.61322401 -14.66418971 270.83748791 -17.625 273.25 C-18.25664062 273.77078125 -18.88828125 274.2915625 -19.5390625 274.828125 C-20.02117187 275.21484375 -20.50328125 275.6015625 -21 276 C-26.86775384 270.27146976 -32.71897563 264.52675859 -38.5500021 258.76087093 C-41.25832113 256.08382069 -43.97191516 253.41261864 -46.69848633 250.75415039 C-49.33123439 248.18675292 -51.94890819 245.60483134 -54.55693245 243.01233101 C-55.55282639 242.0274952 -56.55397402 241.04794209 -57.56045341 240.07392693 C-58.97277389 238.70536407 -60.36465162 237.31580098 -61.75561523 235.92553711 C-62.55281479 235.14166122 -63.35001434 234.35778534 -64.17137146 233.55015564 C-66.50947992 230.28949316 -66.93668398 227.99121494 -67 224 C-65.87773132 221.88734436 -65.87773132 221.88734436 -64.1159668 220.13305664 C-63.46437592 219.46235138 -62.81278503 218.79164612 -62.14144897 218.10061646 C-61.43477081 217.40741302 -60.72809265 216.71420959 -60 216 C-58.59266626 214.53001885 -57.18619812 213.0592086 -55.78051758 211.58764648 C-51.69032247 207.40953997 -47.57642393 203.25478071 -43.45629883 199.10620117 C-41.68304171 197.31624148 -39.91518699 195.52091474 -38.15258789 193.72045898 C-35.59930219 191.11276249 -33.03027715 188.521577 -30.45703125 185.93359375 C-29.66843216 185.12232529 -28.87983307 184.31105682 -28.06733704 183.47520447 C-27.32944443 182.7401619 -26.59155182 182.00511932 -25.83129883 181.24780273 C-25.18622879 180.59464584 -24.54115875 179.94148895 -23.87654114 179.26853943 C-22 178 -22 178 -19.8691864 178.21766663 C-17.70171659 179.12484419 -16.36377949 180.16949653 -14.6875 181.8125 C-14.15511719 182.31394531 -13.62273437 182.81539062 -13.07421875 183.33203125 C-12 185 -12 185 -12.25364685 186.90374756 C-13.10556933 189.29650838 -14.06731279 190.4304846 -15.86743164 192.20800781 C-16.76825218 193.10848846 -16.76825218 193.10848846 -17.68727112 194.02716064 C-18.66384926 194.980513 -18.66384926 194.980513 -19.66015625 195.953125 C-20.32462265 196.61334656 -20.98908905 197.27356812 -21.6736908 197.95379639 C-23.79635563 200.0596764 -25.92921605 202.15488328 -28.0625 204.25 C-29.50393934 205.67639232 -30.94470309 207.1034677 -32.38476562 208.53125 C-35.91538832 212.02880594 -39.45519053 215.51682565 -43 219 C-20.05080577 219.11706436 2.89833887 219.20510107 25.84777164 219.25906086 C36.50481745 219.28478694 47.16167718 219.31982996 57.81860352 219.37719727 C67.11267254 219.42720411 76.40660673 219.45933164 85.70080656 219.47044247 C90.61709925 219.47693208 95.53300638 219.49206651 100.44917488 219.52865028 C105.08756778 219.56288352 109.7254206 219.57299849 114.36392784 219.56553841 C116.05568005 219.56690086 117.74745254 219.57666926 119.43909454 219.59602737 C136.86979877 219.78551264 153.18752414 215.5820088 166.3125 203.375 C171.24440804 198.19218408 174.25363252 192.55973584 177 186 C177.3609375 185.20207031 177.721875 184.40414062 178.09375 183.58203125 C182.20747495 171.86146147 181.95691924 153.96683843 177.2578125 142.53125 C169.03131853 125.97606959 157.38596573 117.08727767 140 111 C136.87457959 110.20565325 133.75884914 109.48794775 130.59375 108.87109375 C127.34372993 107.77959605 125.98630763 106.80663886 124 104 C123.67433237 101.39465894 123.545013 99.09942751 123.5625 96.5 C123.22605528 85.57361633 119.90620265 76.77142159 112.140625 68.84765625 C105.22881761 62.8818079 97.75986834 62.13617679 88.875 62.5625 C80.59276702 63.49759082 75.88788029 66.87865979 70.3125 72.875 C66.462402 76.9152263 66.462402 76.9152263 62.25 77.6875 C57.20188743 75.06636463 56.15839637 71.09431304 54 66 C43.811348 43.29403588 28.55342704 25.65523463 5 16 C0.37175671 14.50750461 -4.29068012 13.2099512 -9 12 C-9.63671631 11.82130371 -10.27343262 11.64260742 -10.92944336 11.45849609 C-13.09384891 10.97921846 -15.01577898 10.87066776 -17.23046875 10.8671875 C-18.03419922 10.86589844 -18.83792969 10.86460937 -19.66601562 10.86328125 C-20.91415039 10.86908203 -20.91415039 10.86908203 -22.1875 10.875 C-23.00025391 10.87113281 -23.81300781 10.86726562 -24.65039062 10.86328125 C-44.79252007 10.89532919 -61.82072374 17.75739002 -77 31 C-77.90492188 31.76183594 -77.90492188 31.76183594 -78.828125 32.5390625 C-95.4024991 47.64188002 -102.9242019 70.26887828 -104 92 C-108.62 92 -113.24 92 -118 92 C-118.27057066 85.42126756 -117.30706321 79.58508675 -115.8125 73.1875 C-115.58473877 72.20845703 -115.35697754 71.22941406 -115.12231445 70.22070312 C-113.46358272 63.36392583 -111.45943938 57.17622737 -108 51 C-107.401875 49.87464844 -106.80375 48.74929687 -106.1875 47.58984375 C-94.11586653 25.28806327 -75.74261554 8.29444105 -51.25024414 0.78369141 C-34.88647092 -4.00631187 -16.37437568 -5.70702996 0 0 Z " fill="#FAFAFE" transform="translate(241,119)"></path><path d="M0 0 C3.4414212 1.48760405 5.71893519 3.44509377 8.38549805 6.06323242 C9.24286057 6.90137985 10.10022308 7.73952728 10.98356628 8.60307312 C12.35875175 9.96550896 12.35875175 9.96550896 13.76171875 11.35546875 C14.71767623 12.29991208 15.67363428 13.24435482 16.6295929 14.188797 C18.62974478 16.16797531 20.62522784 18.15174217 22.6184082 20.13793945 C25.16720419 22.67576238 27.73401833 25.19449739 30.30560589 27.70919323 C32.28631545 29.65256863 34.2533969 31.60931616 36.21705055 33.56991005 C37.61301018 34.95691231 39.02304593 36.32970113 40.43327332 37.70219421 C41.28117935 38.55610245 42.12908539 39.41001068 43.00268555 40.28979492 C43.7522905 41.03210861 44.50189545 41.7744223 45.2742157 42.53923035 C47.55934438 45.79756066 48.00750404 48.03053749 48 52 C46.37391663 54.58811951 46.37391663 54.58811951 43.89086914 57.01733398 C42.96983902 57.93775986 42.0488089 58.85818573 41.09986877 59.8065033 C40.07871787 60.7868044 39.05713679 61.76665758 38.03515625 62.74609375 C37.00065975 63.76566215 35.96792086 64.78701671 34.93687439 65.81007385 C32.22347824 68.49298081 29.48692531 71.15099765 26.74481201 73.80450439 C23.94892582 76.51843013 21.17565875 79.25525618 18.40039062 81.99023438 C12.9554541 87.34947196 7.48584656 92.68261227 2 98 C-2 96 -2 96 -8 89 C2.56 78.44 13.12 67.88 24 57 C2.80702894 56.90959372 -18.3857852 56.83595637 -39.57890034 56.79275131 C-49.4199395 56.77215438 -59.26085005 56.74408878 -69.10180664 56.69824219 C-77.68241264 56.65828642 -86.26292546 56.63254634 -94.84362191 56.62364602 C-99.38414467 56.61844604 -103.92440094 56.60628439 -108.46483803 56.57707977 C-112.74531676 56.54977233 -117.0254212 56.54158571 -121.30597878 56.54756927 C-122.87039733 56.54647585 -124.43482942 56.53861361 -125.99917221 56.5231781 C-140.71441821 56.38519893 -151.71044305 59.56250532 -162.74609375 69.5859375 C-172.37893143 79.84428412 -174.58028653 91.6454682 -174.3359375 105.0859375 C-173.8261152 116.05343698 -168.82717606 125.42617376 -161 133 C-157.51471962 135.75014537 -153.93326447 137.94881076 -150 140 C-149.20464844 140.4228125 -148.40929687 140.845625 -147.58984375 141.28125 C-138.3653185 145.37454171 -127.91460156 144.81588484 -118 145 C-118 149.29 -118 153.58 -118 158 C-138.23146697 158.43147678 -154.93719633 155.80949843 -170.8203125 142.19921875 C-182.31965444 130.59683611 -188.23605342 116.77479442 -188.375 100.5 C-188.18453357 84.3744354 -182.46546732 70.85647602 -171.25 59.1484375 C-156.5862037 45.14654868 -140.71322622 42.86905735 -121.22070312 42.79467773 C-119.62348179 42.78508679 -118.02626292 42.77507601 -116.42904663 42.76467896 C-112.11149215 42.73775555 -107.79392688 42.71667836 -103.47633553 42.69667697 C-98.95730776 42.67473947 -94.43831279 42.64738893 -89.91931152 42.62062073 C-81.37018142 42.57079846 -72.82103302 42.525821 -64.27186728 42.48259836 C-54.53544873 42.43313629 -44.7990631 42.37825155 -35.06267643 42.32291877 C-15.04181498 42.20925949 4.97907793 42.10238577 25 42 C24.01 41.319375 24.01 41.319375 23 40.625 C22.34 40.08875 21.68 39.5525 21 39 C21 38.34 21 37.68 21 37 C20.34 37 19.68 37 19 37 C19 36.34 19 35.68 19 35 C18.4225 34.7525 17.845 34.505 17.25 34.25 C14.67060021 32.81700012 12.93878408 31.21575324 11 29 C11 28.34 11 27.68 11 27 C10.01 26.67 9.02 26.34 8 26 C6.30911778 24.02043058 4.64169528 22.02054804 3 20 C2.34 19.67 1.68 19.34 1 19 C1 18.34 1 17.68 1 17 C0.34 17 -0.32 17 -1 17 C-1 16.34 -1 15.68 -1 15 C-1.66 15 -2.32 15 -3 15 C-4.38232443 13.37373596 -5.71937515 11.7074998 -7 10 C-5.33248852 6.05860922 -2.77289351 3.2107188 0 0 Z " fill="#FBFBFE" transform="translate(265,194)"></path></svg>