<svg version="1.1" xmlns="http://www.w3.org/2000/svg" width="16px" height="16px" fill="currentColor" viewBox="0 0 512 512"><path d="M0 0 C168.96 0 337.92 0 512 0 C512 168.96 512 337.92 512 512 C343.04 512 174.08 512 0 512 C0 343.04 0 174.08 0 0 Z " fill="#2D8E79" transform="translate(0,0)"></path><path d="M0 0 C3.19384766 1.45874023 3.19384766 1.45874023 6.4140625 3.30859375 C6.99159271 3.63537613 7.56912292 3.96215851 8.16415405 4.29884338 C9.99060623 5.33466073 11.80798748 6.38522746 13.625 7.4375 C15.45064469 8.48331154 17.27805925 9.52588246 19.10726929 10.56544495 C20.76322975 11.5082997 22.41423436 12.45984296 24.06494141 13.41186523 C25.03351074 13.93594971 26.00208008 14.46003418 27 15 C27.8235498 15.46245117 28.64709961 15.92490234 29.49560547 16.40136719 C33.22678657 17.29324241 34.94789255 15.90862332 38.21875 14.01953125 C39.08929016 13.52654793 39.08929016 13.52654793 39.97741699 13.02360535 C41.82849905 11.97001133 43.66386269 10.89188678 45.5 9.8125 C46.73472977 9.10446522 47.97039911 8.39806626 49.20703125 7.69335938 C55.47257126 4.17611012 55.47257126 4.17611012 61.45117188 0.2097168 C65.03563083 -1.49152785 67.19168923 -0.94004264 71 0 C73.93652344 1.32836914 73.93652344 1.32836914 76.859375 3.03515625 C77.9630542 3.67243652 79.0667334 4.3097168 80.20385742 4.96630859 C81.38614591 5.66463126 82.56818783 6.36337153 83.75 7.0625 C84.97647998 7.77769543 86.20345766 8.49203799 87.4309082 9.20556641 C89.98831452 10.69548656 92.54104752 12.19300427 95.09033203 13.69677734 C98.34717577 15.61787194 101.61205123 17.52476969 104.87991333 19.42704773 C107.38508968 20.88667298 109.88691683 22.3519522 112.38757324 23.81930542 C113.58533421 24.52181721 114.78381917 25.22309609 115.98303223 25.92312622 C117.65200207 26.89910012 119.31635803 27.88295129 120.98046875 28.8671875 C121.92817139 29.42519043 122.87587402 29.98319336 123.85229492 30.55810547 C126 32 126 32 127 34 C126.93079609 35.92212535 126.85332095 37.84438344 126.72972107 39.76377869 C124.93173633 58.69725992 124.93173633 58.69725992 130.03955078 76.34423828 C134.82459691 81.31926142 140.41104411 84.76775244 146.6340332 87.69604492 C149.37726984 89.2079247 151.01529902 90.56459911 153 93 C153.52139282 95.9150238 153.52139282 95.9150238 153.54931641 99.34155273 C153.56838043 100.62646103 153.58744446 101.91136932 153.60708618 103.23521423 C153.60656331 104.63467519 153.60468911 106.03413619 153.6015625 107.43359375 C153.60933992 108.87321974 153.61800999 110.31284116 153.62753296 111.75245667 C153.64244416 114.76782109 153.64188533 117.78271715 153.63134766 120.7980957 C153.61975835 124.65672602 153.65361793 128.51343613 153.700037 132.37174892 C153.72954601 135.3444585 153.73125095 138.31670733 153.72501755 141.28953743 C153.72604231 142.71168891 153.7364874 144.13386674 153.75664139 145.55587578 C153.89395659 156.59947171 153.89395659 156.59947171 151.77197266 159.92390442 C150.23291016 161.25683594 150.23291016 161.25683594 147 163 C145.86062988 163.68993042 145.86062988 163.68993042 144.69824219 164.39379883 C143.98829102 164.74466553 143.27833984 165.09553223 142.546875 165.45703125 C141.763125 165.84697266 140.979375 166.23691406 140.171875 166.63867188 C139.37265625 167.02603516 138.5734375 167.41339844 137.75 167.8125 C136.9353125 168.21919922 136.120625 168.62589844 135.28125 169.04492188 C129.28169643 172 129.28169643 172 127 172 C127.0314209 173.21582764 127.0628418 174.43165527 127.09521484 175.68432617 C127.20397113 180.20342416 127.27275325 184.722407 127.32958984 189.24243164 C127.35972831 191.19705671 127.4006477 193.15154692 127.45263672 195.10571289 C127.52558389 197.91846999 127.55948459 200.72943706 127.5859375 203.54296875 C127.61690521 204.41398727 127.64787292 205.2850058 127.67977905 206.18241882 C127.68232238 210.78700875 127.56968941 212.39279232 124.30493164 215.87255859 C123.2143042 216.57461426 122.12367676 217.27666992 121 218 C120.10804932 218.59868896 119.21609863 219.19737793 118.29711914 219.81420898 C117.38567139 220.36923096 116.47422363 220.92425293 115.53515625 221.49609375 C114.49842773 222.13063477 113.46169922 222.76517578 112.39355469 223.41894531 C111.29430664 224.08506836 110.19505859 224.75119141 109.0625 225.4375 C107.91151719 226.13986268 106.76080479 226.84266865 105.61035156 227.54589844 C102.65858088 229.3485194 99.70334532 231.14536188 96.74664307 232.93988037 C92.91361813 235.26632305 89.08272156 237.59627092 85.25170898 239.92602539 C83.29790719 241.11324404 81.34304527 242.29872037 79.38696289 243.48217773 C78.50129639 244.01915283 77.61562988 244.55612793 76.703125 245.109375 C75.87876953 245.60630859 75.05441406 246.10324219 74.20507812 246.61523438 C72.34322501 247.78445834 70.55879692 249.07562962 68.796875 250.390625 C65.13156431 252.49971439 63.18195636 252.62236824 59 252 C56.02869934 250.70557916 53.35416798 249.05225635 50.625 247.3125 C49.12120687 246.39564777 47.61730172 245.47897925 46.11328125 244.5625 C43.7737833 243.10977713 41.43948835 241.64901834 39.10546875 240.1875 C38.34878906 239.73375 37.59210938 239.28 36.8125 238.8125 C36.20019531 238.42707031 35.58789062 238.04164063 34.95703125 237.64453125 C31.13641138 236.38624327 27.69394752 237.65199358 24.2109375 239.39868164 C23.27507812 239.97996826 22.33921875 240.56125488 21.375 241.16015625 C20.33859375 241.78857422 19.3021875 242.41699219 18.234375 243.06445312 C16.07637657 244.39756447 13.92012572 245.73350884 11.765625 247.07226562 C10.21101563 248.01295898 10.21101563 248.01295898 8.625 248.97265625 C7.68914062 249.55281494 6.75328125 250.13297363 5.7890625 250.73071289 C2.49695241 252.22893421 0.58242275 252.4660015 -3 252 C-5.91821289 250.64575195 -5.91821289 250.64575195 -8.97265625 248.73828125 C-9.52900757 248.39604019 -10.08535889 248.05379913 -10.65856934 247.70118713 C-12.46793422 246.5840471 -14.26499994 245.44861272 -16.0625 244.3125 C-17.31621967 243.53344964 -18.57070359 242.7556279 -19.82592773 241.97900391 C-22.35589982 240.41089333 -24.88112818 238.83556784 -27.40234375 237.25341797 C-30.63319543 235.22672448 -33.87633923 233.22071205 -37.125 231.22265625 C-41.38480063 228.6025319 -45.63468017 225.9671456 -49.87792969 223.3203125 C-51.80231847 222.12299375 -53.73204082 220.93494447 -55.6640625 219.75 C-57.16066406 218.821875 -57.16066406 218.821875 -58.6875 217.875 C-59.49574219 217.37742187 -60.30398437 216.87984375 -61.13671875 216.3671875 C-63 215 -63 215 -65 212 C-65.2784729 210.12068176 -65.2784729 210.12068176 -65.31884766 207.98754883 C-65.33871735 207.18694534 -65.35858704 206.38634186 -65.37905884 205.56147766 C-65.39061005 204.70201035 -65.40216125 203.84254303 -65.4140625 202.95703125 C-65.43342865 202.0734343 -65.4527948 201.18983734 -65.4727478 200.27946472 C-65.53252805 197.45724134 -65.57892266 194.63497714 -65.625 191.8125 C-65.66318122 189.89907075 -65.70223304 187.98565867 -65.7421875 186.07226562 C-65.83822832 181.38164979 -65.9222651 176.69095348 -66 172 C-66.65597168 171.67725098 -67.31194336 171.35450195 -67.98779297 171.02197266 C-70.95227492 169.56048989 -73.91365543 168.09282878 -76.875 166.625 C-77.90753906 166.11710938 -78.94007813 165.60921875 -80.00390625 165.0859375 C-80.99003906 164.59609375 -81.97617188 164.10625 -82.9921875 163.6015625 C-83.90339355 163.15119629 -84.81459961 162.70083008 -85.75341797 162.23681641 C-88 161 -88 161 -90 159 C-90.31452942 156.276474 -90.31452942 156.276474 -90.40161133 152.76538086 C-90.43696487 151.45319077 -90.47231842 150.14100067 -90.50874329 148.78904724 C-90.53504655 147.34767906 -90.55942714 145.90627469 -90.58203125 144.46484375 C-90.59392675 143.73872957 -90.60582226 143.01261539 -90.61807823 142.26449776 C-90.67743063 138.41573155 -90.72123294 134.56708637 -90.75512695 130.71801758 C-90.78619791 127.54212814 -90.84868884 124.36930779 -90.93969727 121.19458008 C-91.04973366 117.35335914 -91.10478365 113.5149378 -91.12152672 109.6722126 C-91.13672368 108.2140085 -91.17059248 106.75586587 -91.22416115 105.29856682 C-91.61649751 93.99364593 -91.61649751 93.99364593 -87.72438049 89.19345093 C-84.92624393 86.84733038 -82.12448713 84.88504761 -79 83 C-77.95609352 82.35574318 -77.95609352 82.35574318 -76.89109802 81.69847107 C-76.30353226 81.34519241 -75.71596649 80.99191376 -75.1105957 80.62792969 C-68.8969893 76.96623402 -68.8969893 76.96623402 -65.355896 70.93774414 C-64.45571023 65.06357351 -64.84132737 59.15822956 -65.1875 53.25 C-66.0339144 35.65930064 -66.0339144 35.65930064 -63.53686523 31.65185547 C-61.43109011 30.02527163 -59.44810068 29.03270893 -57 28 C-55.51726363 27.12980228 -54.04210627 26.24658063 -52.57421875 25.3515625 C-50.94798985 24.43792635 -49.31893448 23.52930802 -47.6875 22.625 C-37.6046282 16.95505373 -27.65002868 11.08625999 -17.71166992 5.16845703 C-16.05421753 4.18208252 -16.05421753 4.18208252 -14.36328125 3.17578125 C-13.37626221 2.58708252 -12.38924316 1.99838379 -11.37231445 1.3918457 C-7.00273596 -1.17180223 -5.06597181 -1.03212706 0 0 Z " fill="#2A8B76" transform="translate(225,180)"></path><path d="M0 0 C1.19347624 -0.00967334 2.38695248 -0.01934668 3.61659467 -0.02931315 C4.924069 -0.02466734 6.23154332 -0.02002154 7.57863808 -0.01523495 C8.98452702 -0.02084025 10.39041128 -0.02774276 11.79628813 -0.03583091 C15.6594674 -0.05419238 19.52245198 -0.05378335 23.38566494 -0.05024779 C27.5521063 -0.04963595 31.71848501 -0.06619017 35.88489723 -0.08042049 C44.04742871 -0.10534543 52.2098952 -0.11358524 60.37246154 -0.11525763 C67.00654096 -0.11668278 73.64059892 -0.12284535 80.27467155 -0.1323595 C99.07977925 -0.15878008 117.88483557 -0.17261739 136.68996195 -0.17036808 C138.21081107 -0.17018828 138.21081107 -0.17018828 139.76238441 -0.17000484 C140.77752037 -0.1698822 141.79265633 -0.16975956 142.83855398 -0.1696332 C159.29413871 -0.16841358 175.74951759 -0.1971279 192.20504276 -0.23941994 C209.09780494 -0.28249351 225.99046667 -0.30323151 242.88328516 -0.30063862 C252.36884416 -0.29964212 261.85418731 -0.30790852 271.33969688 -0.34017277 C279.41514239 -0.36746461 287.4902742 -0.37403305 295.56574582 -0.3536445 C299.6862596 -0.34383679 303.80617129 -0.34371992 307.92662811 -0.36970425 C311.69955972 -0.39325243 315.47141028 -0.38905722 319.24431498 -0.36285185 C321.25407537 -0.35605104 323.26386886 -0.3787721 325.27349985 -0.40257078 C335.05024992 -0.29004491 335.05024992 -0.29004491 339.37590408 3.30726051 C342.28599775 6.29095767 343.20296821 8.28475296 343.21301174 12.44149494 C343.21746959 13.29520876 343.22192743 14.14892258 343.22652036 15.02850652 C343.22624382 16.44355241 343.22624382 16.44355241 343.22596169 17.8871851 C343.22963837 18.88513088 343.23331506 19.88307666 343.23710316 20.91126323 C343.24817308 24.27683848 343.25198943 27.6423829 343.25579262 31.00797367 C343.26205474 33.41229698 343.26870132 35.81661932 343.27570534 38.22094059 C343.29495734 45.45193436 343.3055372 52.68292559 343.31443313 59.91393721 C343.3188149 63.3181652 343.32418201 66.72239163 343.329422 70.12661839 C343.34643546 81.44153998 343.3609298 92.75646059 343.36817074 104.07139301 C343.37008067 107.00842382 343.372001 109.94545461 343.37395668 112.88248539 C343.37444042 113.61248114 343.37492416 114.3424769 343.37542256 115.09459373 C343.38372347 126.92097177 343.40906084 138.74724868 343.44153736 150.57358256 C343.47460016 162.7122701 343.49261881 174.85090623 343.49581498 186.98963904 C343.49798086 193.80637394 343.50674071 200.6229614 343.53227615 207.43965244 C343.55623992 213.85165011 343.55981369 220.2634543 343.54951477 226.67549038 C343.54901787 229.03053958 343.55538333 231.3856016 343.56907082 233.74061108 C343.58669832 236.95295743 343.579728 240.16434092 343.56653786 243.37668705 C343.58299173 244.77834862 343.58299173 244.77834862 343.599778 246.20832658 C343.54469217 251.7557836 342.84192543 255.01959287 339.07879066 259.38590336 C334.77390725 262.20966033 331.46299346 262.74898872 326.36785316 262.67887211 C325.12390785 262.66920414 323.87996254 262.65953617 322.59832191 262.64957523 C321.3131266 262.62443851 320.02793129 262.5993018 318.70379066 262.57340336 C317.39539223 262.5598682 316.08699379 262.54633305 314.73894691 262.53238773 C311.51871766 262.49712975 308.29870095 262.4433258 305.07879066 262.38590336 C305.07879066 258.09590336 305.07879066 253.80590336 305.07879066 249.38590336 C313.65879066 249.38590336 322.23879066 249.38590336 331.07879066 249.38590336 C331.07879066 190.31590336 331.07879066 131.24590336 331.07879066 70.38590336 C221.18879066 70.38590336 111.29879066 70.38590336 -1.92120934 70.38590336 C-1.92120934 129.45590336 -1.92120934 188.52590336 -1.92120934 249.38590336 C6.32879066 249.38590336 14.57879066 249.38590336 23.07879066 249.38590336 C23.07879066 253.67590336 23.07879066 257.96590336 23.07879066 262.38590336 C19.05786707 262.47810288 15.03966043 262.55761874 11.01824379 262.60562992 C9.65255699 262.62565655 8.28695498 262.65288668 6.9215641 262.68766117 C4.95091965 262.73656768 2.97963084 262.75681683 1.00847816 262.77652836 C-0.17504234 262.79747562 -1.35856285 262.81842289 -2.57794762 262.84000492 C-6.72255247 262.2770602 -8.74855185 261.09343272 -11.92120934 258.38590336 C-15.35233985 253.12285185 -15.34835534 248.54667391 -15.30888939 242.47953129 C-15.31427493 241.48633491 -15.31966046 240.49313853 -15.3252092 239.46984529 C-15.3395085 236.14421231 -15.33238006 232.81897625 -15.32526207 229.49332523 C-15.33096454 227.10811385 -15.33792832 224.72290519 -15.3460598 222.33770084 C-15.36215361 216.5331679 -15.36408941 210.72875929 -15.3588469 204.92420876 C-15.35480308 200.20614247 -15.35625125 195.48810814 -15.36159515 190.77004337 C-15.36234358 190.09817587 -15.363092 189.42630836 -15.3638631 188.73408124 C-15.36539459 187.36913382 -15.36693294 186.00418641 -15.36847807 184.63923901 C-15.38220025 171.84444744 -15.37676714 159.04971704 -15.36529285 146.25492686 C-15.35535801 134.55165475 -15.36830591 122.84854068 -15.39222705 111.14529294 C-15.41661295 99.12398564 -15.42622735 87.10275196 -15.41957432 75.08142042 C-15.41608131 68.33406731 -15.41831965 61.58683578 -15.43582535 54.83950138 C-15.45126322 48.49634271 -15.44737372 42.15348651 -15.4285202 35.81033993 C-15.42482579 33.48109782 -15.42796746 31.15183346 -15.43840599 28.82261181 C-15.45155858 25.6454818 -15.44011848 22.46936161 -15.42241478 19.29227543 C-15.43201979 18.36834476 -15.44162479 17.44441409 -15.45152086 16.49248552 C-15.3882888 10.98570434 -14.72368434 7.66707196 -10.92120934 3.38590336 C-7.17182781 0.68601112 -4.59334647 0.00942259 0 0 Z " fill="#FAFCFC" transform="translate(91.92120933532715,76.61409664154053)"></path><path d="M0 0 C109.56 0 219.12 0 332 0 C332 14.52 332 29.04 332 44 C222.44 44 112.88 44 0 44 C0 29.48 0 14.96 0 0 Z " fill="#399D87" transform="translate(90,90)"></path><path d="M0 0 C3.19384766 1.45874023 3.19384766 1.45874023 6.4140625 3.30859375 C6.99159271 3.63537613 7.56912292 3.96215851 8.16415405 4.29884338 C9.99060623 5.33466073 11.80798748 6.38522746 13.625 7.4375 C15.45064469 8.48331154 17.27805925 9.52588246 19.10726929 10.56544495 C20.76322975 11.5082997 22.41423436 12.45984296 24.06494141 13.41186523 C25.03351074 13.93594971 26.00208008 14.46003418 27 15 C27.8235498 15.46245117 28.64709961 15.92490234 29.49560547 16.40136719 C33.22678657 17.29324241 34.94789255 15.90862332 38.21875 14.01953125 C39.08929016 13.52654793 39.08929016 13.52654793 39.97741699 13.02360535 C41.82849905 11.97001133 43.66386269 10.89188678 45.5 9.8125 C46.73472977 9.10446522 47.97039911 8.39806626 49.20703125 7.69335938 C55.47257126 4.17611012 55.47257126 4.17611012 61.45117188 0.2097168 C65.03563083 -1.49152785 67.19168923 -0.94004264 71 0 C73.93652344 1.32836914 73.93652344 1.32836914 76.859375 3.03515625 C77.9630542 3.67243652 79.0667334 4.3097168 80.20385742 4.96630859 C81.38614591 5.66463126 82.56818783 6.36337153 83.75 7.0625 C84.97647998 7.77769543 86.20345766 8.49203799 87.4309082 9.20556641 C89.98831452 10.69548656 92.54104752 12.19300427 95.09033203 13.69677734 C98.34717577 15.61787194 101.61205123 17.52476969 104.87991333 19.42704773 C107.38508968 20.88667298 109.88691683 22.3519522 112.38757324 23.81930542 C113.58533421 24.52181721 114.78381917 25.22309609 115.98303223 25.92312622 C117.65200207 26.89910012 119.31635803 27.88295129 120.98046875 28.8671875 C121.92817139 29.42519043 122.87587402 29.98319336 123.85229492 30.55810547 C126 32 126 32 127 34 C126.93079609 35.92212535 126.85332095 37.84438344 126.72972107 39.76377869 C124.93173633 58.69725992 124.93173633 58.69725992 130.03955078 76.34423828 C134.82459691 81.31926142 140.41104411 84.76775244 146.6340332 87.69604492 C149.37726984 89.2079247 151.01529902 90.56459911 153 93 C153.52139282 95.9150238 153.52139282 95.9150238 153.54931641 99.34155273 C153.56838043 100.62646103 153.58744446 101.91136932 153.60708618 103.23521423 C153.60656331 104.63467519 153.60468911 106.03413619 153.6015625 107.43359375 C153.60933992 108.87321974 153.61800999 110.31284116 153.62753296 111.75245667 C153.64244416 114.76782109 153.64188533 117.78271715 153.63134766 120.7980957 C153.61975835 124.65672602 153.65361793 128.51343613 153.700037 132.37174892 C153.72954601 135.3444585 153.73125095 138.31670733 153.72501755 141.28953743 C153.72604231 142.71168891 153.7364874 144.13386674 153.75664139 145.55587578 C153.89395659 156.59947171 153.89395659 156.59947171 151.77197266 159.92390442 C150.23291016 161.25683594 150.23291016 161.25683594 147 163 C145.86062988 163.68993042 145.86062988 163.68993042 144.69824219 164.39379883 C143.98829102 164.74466553 143.27833984 165.09553223 142.546875 165.45703125 C141.763125 165.84697266 140.979375 166.23691406 140.171875 166.63867188 C139.37265625 167.02603516 138.5734375 167.41339844 137.75 167.8125 C136.9353125 168.21919922 136.120625 168.62589844 135.28125 169.04492188 C129.28169643 172 129.28169643 172 127 172 C127.0314209 173.21582764 127.0628418 174.43165527 127.09521484 175.68432617 C127.20397113 180.20342416 127.27275325 184.722407 127.32958984 189.24243164 C127.35972831 191.19705671 127.4006477 193.15154692 127.45263672 195.10571289 C127.52558389 197.91846999 127.55948459 200.72943706 127.5859375 203.54296875 C127.61690521 204.41398727 127.64787292 205.2850058 127.67977905 206.18241882 C127.68232238 210.78700875 127.56968941 212.39279232 124.30493164 215.87255859 C123.2143042 216.57461426 122.12367676 217.27666992 121 218 C120.10804932 218.59868896 119.21609863 219.19737793 118.29711914 219.81420898 C117.38567139 220.36923096 116.47422363 220.92425293 115.53515625 221.49609375 C114.49842773 222.13063477 113.46169922 222.76517578 112.39355469 223.41894531 C111.29430664 224.08506836 110.19505859 224.75119141 109.0625 225.4375 C107.91151719 226.13986268 106.76080479 226.84266865 105.61035156 227.54589844 C102.65858088 229.3485194 99.70334532 231.14536188 96.74664307 232.93988037 C92.91361813 235.26632305 89.08272156 237.59627092 85.25170898 239.92602539 C83.29790719 241.11324404 81.34304527 242.29872037 79.38696289 243.48217773 C78.50129639 244.01915283 77.61562988 244.55612793 76.703125 245.109375 C75.87876953 245.60630859 75.05441406 246.10324219 74.20507812 246.61523438 C72.34322501 247.78445834 70.55879692 249.07562962 68.796875 250.390625 C65.13156431 252.49971439 63.18195636 252.62236824 59 252 C56.02869934 250.70557916 53.35416798 249.05225635 50.625 247.3125 C49.12120687 246.39564777 47.61730172 245.47897925 46.11328125 244.5625 C43.7737833 243.10977713 41.43948835 241.64901834 39.10546875 240.1875 C38.34878906 239.73375 37.59210938 239.28 36.8125 238.8125 C36.20019531 238.42707031 35.58789062 238.04164063 34.95703125 237.64453125 C31.13641138 236.38624327 27.69394752 237.65199358 24.2109375 239.39868164 C23.27507812 239.97996826 22.33921875 240.56125488 21.375 241.16015625 C20.33859375 241.78857422 19.3021875 242.41699219 18.234375 243.06445312 C16.07637657 244.39756447 13.92012572 245.73350884 11.765625 247.07226562 C10.21101563 248.01295898 10.21101563 248.01295898 8.625 248.97265625 C7.68914062 249.55281494 6.75328125 250.13297363 5.7890625 250.73071289 C2.49695241 252.22893421 0.58242275 252.4660015 -3 252 C-5.91821289 250.64575195 -5.91821289 250.64575195 -8.97265625 248.73828125 C-9.52900757 248.39604019 -10.08535889 248.05379913 -10.65856934 247.70118713 C-12.46793422 246.5840471 -14.26499994 245.44861272 -16.0625 244.3125 C-17.31621967 243.53344964 -18.57070359 242.7556279 -19.82592773 241.97900391 C-22.35589982 240.41089333 -24.88112818 238.83556784 -27.40234375 237.25341797 C-30.63319543 235.22672448 -33.87633923 233.22071205 -37.125 231.22265625 C-41.38480063 228.6025319 -45.63468017 225.9671456 -49.87792969 223.3203125 C-51.80231847 222.12299375 -53.73204082 220.93494447 -55.6640625 219.75 C-57.16066406 218.821875 -57.16066406 218.821875 -58.6875 217.875 C-59.49574219 217.37742187 -60.30398437 216.87984375 -61.13671875 216.3671875 C-63 215 -63 215 -65 212 C-65.2784729 210.12068176 -65.2784729 210.12068176 -65.31884766 207.98754883 C-65.33871735 207.18694534 -65.35858704 206.38634186 -65.37905884 205.56147766 C-65.39061005 204.70201035 -65.40216125 203.84254303 -65.4140625 202.95703125 C-65.43342865 202.0734343 -65.4527948 201.18983734 -65.4727478 200.27946472 C-65.53252805 197.45724134 -65.57892266 194.63497714 -65.625 191.8125 C-65.66318122 189.89907075 -65.70223304 187.98565867 -65.7421875 186.07226562 C-65.83822832 181.38164979 -65.9222651 176.69095348 -66 172 C-66.65597168 171.67725098 -67.31194336 171.35450195 -67.98779297 171.02197266 C-70.95227492 169.56048989 -73.91365543 168.09282878 -76.875 166.625 C-77.90753906 166.11710938 -78.94007813 165.60921875 -80.00390625 165.0859375 C-80.99003906 164.59609375 -81.97617188 164.10625 -82.9921875 163.6015625 C-83.90339355 163.15119629 -84.81459961 162.70083008 -85.75341797 162.23681641 C-88 161 -88 161 -90 159 C-90.31452942 156.276474 -90.31452942 156.276474 -90.40161133 152.76538086 C-90.43696487 151.45319077 -90.47231842 150.14100067 -90.50874329 148.78904724 C-90.53504655 147.34767906 -90.55942714 145.90627469 -90.58203125 144.46484375 C-90.59392675 143.73872957 -90.60582226 143.01261539 -90.61807823 142.26449776 C-90.67743063 138.41573155 -90.72123294 134.56708637 -90.75512695 130.71801758 C-90.78619791 127.54212814 -90.84868884 124.36930779 -90.93969727 121.19458008 C-91.04973366 117.35335914 -91.10478365 113.5149378 -91.12152672 109.6722126 C-91.13672368 108.2140085 -91.17059248 106.75586587 -91.22416115 105.29856682 C-91.61649751 93.99364593 -91.61649751 93.99364593 -87.72438049 89.19345093 C-84.92624393 86.84733038 -82.12448713 84.88504761 -79 83 C-77.95609352 82.35574318 -77.95609352 82.35574318 -76.89109802 81.69847107 C-76.30353226 81.34519241 -75.71596649 80.99191376 -75.1105957 80.62792969 C-68.8969893 76.96623402 -68.8969893 76.96623402 -65.355896 70.93774414 C-64.45571023 65.06357351 -64.84132737 59.15822956 -65.1875 53.25 C-66.0339144 35.65930064 -66.0339144 35.65930064 -63.53686523 31.65185547 C-61.43109011 30.02527163 -59.44810068 29.03270893 -57 28 C-55.51726363 27.12980228 -54.04210627 26.24658063 -52.57421875 25.3515625 C-50.94798985 24.43792635 -49.31893448 23.52930802 -47.6875 22.625 C-37.6046282 16.95505373 -27.65002868 11.08625999 -17.71166992 5.16845703 C-16.05421753 4.18208252 -16.05421753 4.18208252 -14.36328125 3.17578125 C-13.37626221 2.58708252 -12.38924316 1.99838379 -11.37231445 1.3918457 C-7.00273596 -1.17180223 -5.06597181 -1.03212706 0 0 Z M-10.26171875 15.3515625 C-11.1225708 15.86388428 -11.98342285 16.37620605 -12.87036133 16.90405273 C-14.78517731 18.07378476 -16.69235871 19.25608742 -18.5925293 20.44946289 C-23.87141242 23.72144154 -28.93182084 26.46670809 -34.7578125 28.64453125 C-44.62795373 32.61188864 -44.62795373 32.61188864 -52 40 C-54.45713305 47.88828578 -53.8824042 56.61178554 -53.42895508 64.75756836 C-53.36147568 66.00097488 -53.36147568 66.00097488 -53.29263306 67.26950073 C-53.19102275 68.84787131 -53.05935365 70.42468148 -52.8934021 71.99758911 C-52.57549173 76.00675759 -52.71305227 77.64132306 -55.2668457 80.83349609 C-56.16878662 81.54844238 -57.07072754 82.26338867 -58 83 C-58.61552734 83.52988525 -59.23105469 84.05977051 -59.86523438 84.60571289 C-60.43564453 85.0568042 -61.00605469 85.50789551 -61.59375 85.97265625 C-62.55087891 86.73352539 -62.55087891 86.73352539 -63.52734375 87.50976562 C-64.50380859 88.27836914 -64.50380859 88.27836914 -65.5 89.0625 C-66.15097656 89.57876953 -66.80195313 90.09503906 -67.47265625 90.62695312 C-68.69221369 91.59397594 -69.91278037 92.55972858 -71.13476562 93.52368164 C-71.75029297 94.0108667 -72.36582031 94.49805176 -73 95 C-73.88905029 95.47139404 -74.77810059 95.94278809 -75.6940918 96.4284668 C-79.50600884 100.67949086 -78.61291195 105.48525517 -78.48828125 110.984375 C-78.48120651 112.15510559 -78.47413177 113.32583618 -78.46684265 114.53204346 C-78.43884981 118.27201173 -78.37609721 122.01048407 -78.3125 125.75 C-78.28742368 128.28513463 -78.26460936 130.82029273 -78.24414062 133.35546875 C-78.18900684 139.57082307 -78.10532977 145.78530467 -78 152 C-77.27820557 152.35304199 -76.55641113 152.70608398 -75.81274414 153.06982422 C-72.5595671 154.66532642 -69.31101332 156.27002507 -66.0625 157.875 C-64.92619141 158.43058594 -63.78988281 158.98617187 -62.61914062 159.55859375 C-61.53955078 160.09355469 -60.45996094 160.62851562 -59.34765625 161.1796875 C-58.34742432 161.67194824 -57.34719238 162.16420898 -56.31665039 162.67138672 C-54 164 -54 164 -53 166 C-53.08647122 168.04093225 -53.18117812 170.08190581 -53.32107544 172.11987305 C-55.30981204 191.79057647 -55.30981204 191.79057647 -50.03808594 210.09765625 C-44.88051891 214.82728515 -38.69804225 217.26709185 -32.20947266 219.68847656 C-26.89250452 221.86120993 -22.23654136 225.00175985 -17.4375 228.125 C-14.98576422 229.64781155 -12.52838534 231.16109469 -10.06982422 232.67285156 C-8.23287645 233.85068219 -6.52332747 235.11410178 -4.78515625 236.4296875 C-1.23535317 238.43111925 0.10128224 237.95103207 4 237 C6.64538559 235.81784189 6.64538559 235.81784189 9.1796875 234.27734375 C10.01741699 233.79257568 10.85514648 233.30780762 11.71826172 232.80834961 C12.75998535 232.19096924 13.80170898 231.57358887 14.875 230.9375 C19.886875 227.9984375 19.886875 227.9984375 25 225 C25 213.78 25 202.56 25 191 C29.29 191 33.58 191 38 191 C38 202.22 38 213.44 38 225 C41.691875 227.165625 45.38375 229.33125 49.1875 231.5625 C50.3427417 232.25029541 51.4979834 232.93809082 52.68823242 233.64672852 C53.60967041 234.17709717 54.5311084 234.70746582 55.48046875 235.25390625 C56.41785889 235.80377197 57.35524902 236.3536377 58.32104492 236.92016602 C61.50704293 238.20437901 62.78305767 238.11280888 66 237 C68.46623777 235.74331607 68.46623777 235.74331607 70.9296875 234.11328125 C72.35462524 233.20956787 72.35462524 233.20956787 73.80834961 232.28759766 C74.82034424 231.63581543 75.83233887 230.9840332 76.875 230.3125 C79.01869537 228.9505064 81.16325066 227.58986547 83.30859375 226.23046875 C84.40800293 225.53228027 85.50741211 224.8340918 86.64013672 224.11474609 C93.02613176 220.09530931 99.49114122 216.20560438 105.95068359 212.3059082 C107.31894287 211.47772583 107.31894287 211.47772583 108.71484375 210.6328125 C109.52042725 210.14699707 110.32601074 209.66118164 111.15600586 209.16064453 C112.9426974 208.13122538 112.9426974 208.13122538 114 207 C114.09848291 204.01860181 114.13714072 201.05613075 114.140625 198.07421875 C114.15895419 196.22720122 114.1785246 194.38019567 114.19921875 192.53320312 C114.22819879 189.60990275 114.25000002 186.6873694 114.25048828 183.76391602 C114.25381979 180.94998483 114.28835517 178.13784029 114.328125 175.32421875 C114.3210553 174.45117599 114.3139856 173.57813324 114.30670166 172.67863464 C114.42716735 166.68066257 114.42716735 166.68066257 116.89746094 163.74536133 C121.30331469 161.26680857 125.76649033 158.96035665 130.3125 156.75 C131.24384766 156.29109375 132.17519531 155.8321875 133.13476562 155.359375 C135.42054168 154.23406987 137.70893473 153.11448623 140 152 C140.30540812 144.47542952 140.51485594 136.95246553 140.65917969 129.4230957 C140.71936179 126.86487114 140.80113429 124.30705658 140.90527344 121.75024414 C142.34018154 107.31283589 142.34018154 107.31283589 137.51049805 94.44262695 C134.42981345 92.13001723 131.5183974 90.54423218 128 89 C126.71716231 88.11474338 125.45594734 87.19561108 124.23828125 86.22265625 C122.26050924 84.76243206 120.28130293 83.30414885 118.30078125 81.84765625 C116 80 116 80 115 78 C115.12067437 76.12809501 115.24941338 74.2562863 115.42321777 72.38856506 C117.54370581 53.75109573 117.54370581 53.75109573 111.61328125 36.81591797 C105.31208415 31.58360116 98.06218957 28.4914905 90.51611328 25.48339844 C85.36926856 23.31201748 80.77726793 20.40792641 76.0625 17.4375 C71.41331478 14.1811542 71.41331478 14.1811542 66.12329102 13.21142578 C63.41812048 14.21610565 60.96744044 15.49575873 58.4296875 16.87109375 C57.36878906 17.44537109 56.30789063 18.01964844 55.21484375 18.61132812 C53.56162109 19.5152832 53.56162109 19.5152832 51.875 20.4375 C50.76511719 21.03626953 49.65523438 21.63503906 48.51171875 22.25195312 C42.89684981 25.12932592 42.89684981 25.12932592 38 29 C37.82446581 32.08524939 37.76877203 35.07964202 37.8046875 38.1640625 C37.80893234 39.52487442 37.80893234 39.52487442 37.81326294 40.91317749 C37.82447847 43.81725123 37.84958537 46.72101912 37.875 49.625 C37.88502803 51.59114139 37.89415419 53.5572876 37.90234375 55.5234375 C37.92442228 60.34907659 37.95896135 65.1744864 38 70 C33.71 70 29.42 70 25 70 C25 56.47 25 42.94 25 29 C21.679375 27.1025 18.35875 25.205 14.9375 23.25 C13.05078125 22.171875 11.1640625 21.09375 9.27734375 20.015625 C8.37226074 19.50064453 7.46717773 18.98566406 6.53466797 18.45507812 C4.96847959 17.55597557 3.40870375 16.64546508 1.85986328 15.71679688 C-3.13701619 12.73523343 -5.29812073 12.34972453 -10.26171875 15.3515625 Z " fill="#FAFCFC" transform="translate(225,180)"></path><path d="M0 0 C4 1.33333333 8 2.66666667 12 4 C11.32570073 7.80775297 10.28342823 11.33894886 9.0222168 14.99267578 C8.6147673 16.17805939 8.20731781 17.36344299 7.78752136 18.58474731 C7.34151462 19.871635 6.89541127 21.15848921 6.44921875 22.4453125 C5.98915007 23.77936147 5.52934098 25.11349998 5.06977844 26.44772339 C4.10584628 29.24414851 3.1398256 32.03983971 2.17211914 34.83496094 C0.94221669 38.38746198 -0.28414126 41.94117242 -1.50910664 45.49537849 C-2.68841931 48.91662 -3.86953484 52.33723827 -5.05078125 55.7578125 C-5.27113855 56.39637302 -5.49149586 57.03493355 -5.71853065 57.69284439 C-8.41002314 65.48781722 -11.15281367 73.26045747 -14 81 C-22.625 79.25 -22.625 79.25 -26 77 C-24.45753171 69.09118951 -21.95727836 61.62452357 -19.31640625 54.0234375 C-18.85527241 52.68555694 -18.39449918 51.34755205 -17.93406677 50.00942993 C-16.97301155 47.21973999 -16.00867899 44.43121337 -15.04174805 41.64355469 C-13.80828098 38.08709873 -12.5814893 34.52838566 -11.35694981 30.96884727 C-10.40760498 28.21076577 -9.455535 25.45363132 -8.50257683 22.69679642 C-8.04945708 21.38541421 -7.59697679 20.07381086 -7.14517403 18.76197433 C-4.9566983 12.41403372 -2.77520618 6.11777277 0 0 Z " fill="#F9FCFB" transform="translate(261,270)"></path><path d="M0 0 C5.73351542 2.38031597 9.83184884 7.30629686 14.18334961 11.59301758 C15.26958484 12.65613796 16.36471565 13.71024461 17.46850586 14.75512695 C19.06802878 16.26934834 20.63938868 17.80834452 22.20703125 19.35546875 C23.1503833 20.26965576 24.09373535 21.18384277 25.06567383 22.12573242 C27 25 27 25 26.9543457 28.66357422 C25.75110371 32.8701501 23.53442823 35.09743121 20.375 37.9375 C19.27409 38.97710379 18.17512433 40.01877047 17.078125 41.0625 C16.54638672 41.56265625 16.01464844 42.0628125 15.46679688 42.578125 C13.55805175 44.42841322 11.83517096 46.40378318 10.125 48.4375 C7.3425232 51.71220857 4.38590789 54.35734019 1 57 C-1.64 54.36 -4.28 51.72 -7 49 C-5.45111376 45.90222752 -4.52821016 44.26309897 -2.28515625 41.87109375 C-1.50301758 41.03094727 -1.50301758 41.03094727 -0.70507812 40.17382812 C-0.16302734 39.60083984 0.37902344 39.02785156 0.9375 38.4375 C1.47568359 37.86064453 2.01386719 37.28378906 2.56835938 36.68945312 C5.00574507 34.08376459 7.4680287 31.51420308 10 29 C8.5735422 25.7413364 6.83295838 23.5975146 4.3046875 21.109375 C3.58925781 20.40039062 2.87382812 19.69140625 2.13671875 18.9609375 C1.39035156 18.23132813 0.64398438 17.50171875 -0.125 16.75 C-0.87910156 16.00492187 -1.63320313 15.25984375 -2.41015625 14.4921875 C-4.26900772 12.6568658 -6.13237005 10.8263809 -8 9 C-7.04270084 7.87411986 -6.08412105 6.7493285 -5.125 5.625 C-4.59132813 4.99851562 -4.05765625 4.37203125 -3.5078125 3.7265625 C-2.38567993 2.44163349 -1.20628025 1.20628025 0 0 Z " fill="#FAFCFC" transform="translate(294,282)"></path><path d="M0 0 C4 2 4 2 10 9 C4.06 14.94 -1.88 20.88 -8 27 C-6.45111376 30.09777248 -5.52821016 31.73690103 -3.28515625 34.12890625 C-2.76373047 34.68900391 -2.24230469 35.24910156 -1.70507812 35.82617188 C-1.16302734 36.39916016 -0.62097656 36.97214844 -0.0625 37.5625 C0.47568359 38.13935547 1.01386719 38.71621094 1.56835938 39.31054688 C4.00574507 41.91623541 6.4680287 44.48579692 9 47 C7.61811547 50.21043882 6.07578097 52.04936365 3.375 54.25 C2.42753906 55.03117187 2.42753906 55.03117187 1.4609375 55.828125 C0.97882813 56.21484375 0.49671875 56.6015625 0 57 C-15.65283019 41.54339623 -15.65283019 41.54339623 -20.703125 35.515625 C-21.97104929 33.93640229 -21.97104929 33.93640229 -23.671875 32.671875 C-25 31 -25 31 -25.42480469 28.27392578 C-24.85324823 23.8689993 -22.62796062 21.86665691 -19.53125 18.9453125 C-18.97634888 18.39890106 -18.42144775 17.85248962 -17.84973145 17.28952026 C-16.08010377 15.553388 -14.29074901 13.83931167 -12.5 12.125 C-11.29420929 10.94931359 -10.08976515 9.77224443 -8.88671875 8.59375 C-5.93984458 5.7129086 -2.97510304 2.85166792 0 0 Z " fill="#FAFCFC" transform="translate(214,282)"></path><path d="M0 0 C3.64575305 0.870234 5.12960019 2.43704001 7.16015625 5.515625 C7.67537 9.71093696 7.63625012 12.99696529 5.16015625 16.515625 C1.15351377 19.18671999 -2.13196637 19.45555148 -6.83984375 18.515625 C-10.20718402 16.27073149 -11.64051963 13.47238078 -12.46484375 9.515625 C-10.94878038 2.23852083 -7.15793315 -0.52579142 0 0 Z " fill="#FBFDFC" transform="translate(184.83984375,102.484375)"></path><path d="M0 0 C3.64575305 0.870234 5.12960019 2.43704001 7.16015625 5.515625 C7.67537 9.71093696 7.63625012 12.99696529 5.16015625 16.515625 C1.15351377 19.18671999 -2.13196637 19.45555148 -6.83984375 18.515625 C-10.20718402 16.27073149 -11.64051963 13.47238078 -12.46484375 9.515625 C-10.94878038 2.23852083 -7.15793315 -0.52579142 0 0 Z " fill="#FBFDFC" transform="translate(152.83984375,102.484375)"></path><path d="M0 0 C3.64575305 0.870234 5.12960019 2.43704001 7.16015625 5.515625 C7.67537 9.71093696 7.63625012 12.99696529 5.16015625 16.515625 C1.15351377 19.18671999 -2.13196637 19.45555148 -6.83984375 18.515625 C-10.20718402 16.27073149 -11.64051963 13.47238078 -12.46484375 9.515625 C-10.94878038 2.23852083 -7.15793315 -0.52579142 0 0 Z " fill="#FBFDFC" transform="translate(120.83984375,102.484375)"></path></svg>