<svg version="1.1" xmlns="http://www.w3.org/2000/svg" width="16px" height="16px" fill="currentColor" viewBox="0 0 512 512"><path d="M0 0 C168.96 0 337.92 0 512 0 C512 168.96 512 337.92 512 512 C343.04 512 174.08 512 0 512 C0 343.04 0 174.08 0 0 Z " fill="#3F52D5" transform="translate(0,0)"></path><path d="M0 0 C9.30142527 5.24262152 16.41049252 13.98716334 20 24 C22.61748112 34.96761457 21.44951325 45.45340914 15.71484375 55.1796875 C10.53853463 62.59089332 3.70632219 69.2139769 -5 72 C-5.99 72 -6.98 72 -8 72 C-6.68 78.6 -5.36 85.2 -4 92 C0.31176193 90.27529523 4.02571973 88.34134618 8.01171875 86.0234375 C10 85 10 85 12 85 C12.89434157 86.40453643 13.76493192 87.82421869 14.625 89.25 C15.11226563 90.03890625 15.59953125 90.8278125 16.1015625 91.640625 C17 94 17 94 16.40136719 95.93383789 C14.50899826 98.72392817 12.42128807 99.78985499 9.4765625 101.41796875 C8.373125 102.03220703 7.2696875 102.64644531 6.1328125 103.27929688 C4.97523438 103.90900391 3.81765625 104.53871094 2.625 105.1875 C1.47515625 105.82880859 0.3253125 106.47011719 -0.859375 107.13085938 C-9.41944679 111.8548617 -9.41944679 111.8548617 -14 113 C-16.31 100.46 -18.62 87.92 -21 75 C-25.62 73.68 -30.24 72.36 -35 71 C-44.78605897 65.15086131 -53.33577101 57.47253829 -56.52392578 46.13720703 C-59.02112853 34.9266876 -57.79377101 23.84875609 -52.0546875 13.9609375 C-39.80558689 -3.69080824 -19.6844954 -8.86716433 0 0 Z " fill="#FAFBFE" transform="translate(408,165)"></path><path d="M0 0 C3.97275304 1.47091422 7.51552627 3.3489266 11.17578125 5.4765625 C11.74580368 5.80667328 12.31582611 6.13678406 12.90312195 6.47689819 C14.70808352 7.52314007 16.51031402 8.57398575 18.3125 9.625 C19.54213964 10.33884848 20.77195562 11.05239331 22.00195312 11.765625 C25.00334992 13.50690874 28.00231667 15.25232936 31 17 C22.77281206 25.25995184 14.22149528 32.99215037 5.08203125 40.22265625 C2.92059417 41.83388616 2.92059417 41.83388616 2 44 C2.7667116 45.9041514 2.7667116 45.9041514 3.90625 48.00390625 C6.26147744 53.08084263 6.6229244 57.39632362 6.5 62.9375 C6.48718994 63.81704346 6.47437988 64.69658691 6.46118164 65.6027832 C6.12430675 76.37778147 2.53397623 84.22732353 -5 92 C-14.4027695 99.98080058 -25.02046561 102.9181186 -37.19140625 102.3828125 C-48.60090477 101.23601162 -57.22238636 94.73734356 -64.4609375 86.16015625 C-66.93221062 82.69159271 -68.47417254 78.954026 -70 75 C-70.33 74.34 -70.66 73.68 -71 73 C-71.74513381 59.0000821 -71.08694062 48.27606722 -62 37 C-55.40381079 29.79626704 -46.2284887 24.66406297 -36.40625 23.76171875 C-27.11468862 23.52443425 -18.92970935 25.40413742 -11 30.375 C-10.01 30.91125 -9.02 31.4475 -8 32 C-4.22909233 30.72691579 -1.29924629 27.98457105 1.75 25.5 C2.73484375 24.7059375 3.7196875 23.911875 4.734375 23.09375 C5.48203125 22.4028125 6.2296875 21.711875 7 21 C7 20.34 7 19.68 7 19 C4.85718967 17.53417645 2.73293604 16.18876486 0.5 14.875 C-0.43005859 14.31619141 -0.43005859 14.31619141 -1.37890625 13.74609375 C-2.91537838 12.82421047 -4.45720675 11.91126525 -6 11 C-4.45657029 6.91894938 -2.50065501 3.58427218 0 0 Z " fill="#FBFBFE" transform="translate(174,104)"></path><path d="M0 0 C1.99491189 2.99236784 2.53509351 4.73563359 3.25390625 8.19140625 C3.57584961 9.73344727 3.57584961 9.73344727 3.90429688 11.30664062 C4.23010742 12.91829102 4.23010742 12.91829102 4.5625 14.5625 C4.78357422 15.60986328 5.00464844 16.65722656 5.23242188 17.73632812 C6.5505183 24.1436307 7.50409118 30.47675172 8 37 C8.94875 36.938125 9.8975 36.87625 10.875 36.8125 C20.71160159 36.87187586 30.15974285 41.49355369 37.265625 48.109375 C45.63088141 57.09428003 49.50758918 66.59740521 49.24609375 78.94921875 C48.41718198 89.22509329 43.79866957 98.76707507 36.25 105.8125 C25.57872694 114.50989596 14.34140815 116.10851184 1 115 C-9.26762885 112.75676024 -18.06149551 105.48975521 -24 97 C-29.44311842 87.91439071 -30.47901091 78.3404783 -29 68 C-26.11582351 56.81905148 -19.72353139 48.20362116 -10.015625 42.09375 C-8 41 -8 41 -5 40 C-6.485 30.595 -6.485 30.595 -8 21 C-12.33277903 22.73311161 -15.95672405 24.67685501 -19.9140625 27.07421875 C-22 28 -22 28 -25 27 C-26.203125 25.51171875 -26.203125 25.51171875 -27.25 23.6875 C-27.60578125 23.09324219 -27.9615625 22.49898437 -28.328125 21.88671875 C-29.22835374 19.35875083 -29.08225768 18.47077185 -28 16 C-25.93365683 14.51955619 -23.99642735 13.3127624 -21.77734375 12.109375 C-21.15726944 11.75989807 -20.53719513 11.41042114 -19.89833069 11.050354 C-17.91799225 9.93791042 -15.92814137 8.84388036 -13.9375 7.75 C-12.59243261 6.9985874 -11.24802256 6.24599681 -9.90429688 5.4921875 C-6.6103339 3.64770722 -3.30772541 1.81967576 0 0 Z " fill="#FBFBFE" transform="translate(113,231)"></path><path d="M0 0 C8.45167845 6.06877466 15.24269132 13.83699942 18 24 C18.35103007 26.78862416 18.50276 29.56811474 18.625 32.375 C18.74875 34.89125 18.8725 37.4075 19 40 C23.95 41.65 28.9 43.3 34 45 C34 39.72 34 34.44 34 29 C38.29 29 42.58 29 47 29 C47 40.22 47 51.44 47 63 C36.875 60.75 36.875 60.75 31.87109375 59.0546875 C30.81728516 58.70019531 29.76347656 58.34570312 28.67773438 57.98046875 C27.60845703 57.61566406 26.53917969 57.25085938 25.4375 56.875 C24.33341797 56.50246094 23.22933594 56.12992188 22.09179688 55.74609375 C19.39310627 54.83484757 16.69591967 53.91940476 14 53 C13.53891846 53.61125732 13.07783691 54.22251465 12.6027832 54.85229492 C11.98749756 55.65771729 11.37221191 56.46313965 10.73828125 57.29296875 C9.83009644 58.48829224 9.83009644 58.48829224 8.90356445 59.70776367 C2.87870464 66.96278596 -5.82380538 71.16825012 -15 73 C-28.2792113 74.01249118 -37.73001458 70.78904235 -47.94140625 62.40625 C-54.67976631 56.23548398 -59.40846708 47.05360965 -60.30078125 37.921875 C-60.34274664 26.56324164 -58.1096307 17.08934494 -51 8 C-36.92659964 -6.09552835 -17.79069797 -10.14921467 0 0 Z " fill="#F9FAFE" transform="translate(298,82)"></path><path d="M0 0 C7.85401546 5.99145458 13.82291796 13.92503885 15.35546875 23.796875 C16.55930164 37.57255359 15.06603526 47.06622043 6.4609375 58.26171875 C-0.45101644 65.82122846 -10.05481466 70.10666213 -20.1875 71.16796875 C-31.86810018 71.38079855 -40.16336931 69.11718066 -49.08203125 61.421875 C-56.68915101 54.03419139 -61.55599844 47.09706218 -61.82421875 36.21875 C-61.86084174 31.74147878 -61.77487927 27.27215689 -61.64453125 22.796875 C-62.38058594 22.60351562 -63.11664063 22.41015625 -63.875 22.2109375 C-64.85082031 21.95054687 -65.82664063 21.69015625 -66.83203125 21.421875 C-68.27642578 21.03902344 -68.27642578 21.03902344 -69.75 20.6484375 C-72.64453125 19.796875 -72.64453125 19.796875 -77.64453125 17.796875 C-77.64453125 24.066875 -77.64453125 30.336875 -77.64453125 36.796875 C-81.93453125 36.796875 -86.22453125 36.796875 -90.64453125 36.796875 C-90.64453125 24.586875 -90.64453125 12.376875 -90.64453125 -0.203125 C-79.45229062 3.15454719 -79.45229062 3.15454719 -75.21484375 4.62109375 C-74.31765625 4.92724609 -73.42046875 5.23339844 -72.49609375 5.54882812 C-70.65381627 6.18095629 -68.81269459 6.81646147 -66.97265625 7.45507812 C-66.08320313 7.75736328 -65.19375 8.05964844 -64.27734375 8.37109375 C-63.48215332 8.64526123 -62.68696289 8.91942871 -61.86767578 9.2019043 C-59.38409241 9.96922667 -59.38409241 9.96922667 -55.64453125 9.796875 C-53.98355028 8.24813921 -53.98355028 8.24813921 -52.51953125 6.171875 C-39.12643861 -9.96266091 -16.9379417 -10.87905954 0 0 Z " fill="#FBFBFE" transform="translate(253.64453125,364.203125)"></path><path d="M0 0 C8.54915536 6.47000078 14.60620692 14.927541 16.625 25.6875 C17.61562209 38.67988965 14.50736966 48.32455023 6.625 58.6875 C2.3628924 63.33444801 -2.62634163 66.20768659 -8.375 68.6875 C-9.09042969 69.04585938 -9.80585938 69.40421875 -10.54296875 69.7734375 C-19.45811255 72.65087702 -32.04376274 72.00193116 -40.41796875 67.91015625 C-43.36011589 66.07204836 -45.85524317 64.07463805 -48.375 61.6875 C-52.54730166 63.3873266 -53.81987313 65.13237313 -57.375 68.6875 C-50.445 72.6475 -50.445 72.6475 -43.375 76.6875 C-45.06017904 80.9004476 -46.80976202 84.01065889 -49.375 87.6875 C-56.07438419 85.64615531 -61.72597982 82.2586902 -67.75 78.75 C-68.86761719 78.11642578 -69.98523438 77.48285156 -71.13671875 76.83007812 C-72.72033203 75.9106543 -72.72033203 75.9106543 -74.3359375 74.97265625 C-75.30321777 74.41457275 -76.27049805 73.85648926 -77.26708984 73.28149414 C-78.31050537 72.49246704 -78.31050537 72.49246704 -79.375 71.6875 C-79.375 70.6975 -79.375 69.7075 -79.375 68.6875 C-77.23464403 66.63026465 -75.10437612 64.74890479 -72.8125 62.875 C-72.20341797 62.36646484 -71.59433594 61.85792969 -70.96679688 61.33398438 C-69.73551126 60.30595861 -68.50161317 59.28105386 -67.26513672 58.25927734 C-64.271905 55.77020142 -61.32309298 53.2297413 -58.375 50.6875 C-58.87 49.57375 -59.365 48.46 -59.875 47.3125 C-62.85270949 38.37937154 -63.16982272 25.46533529 -59.47265625 16.6953125 C-53.80639411 6.33069066 -45.98449927 -2.37005642 -34.359375 -5.9296875 C-21.92275009 -9.10407078 -10.73948004 -7.15965336 0 0 Z " fill="#FBFBFE" transform="translate(384.375,317.3125)"></path><path d="M0 0 C5.16046038 4.44937332 8.40683242 9.87778491 9.38671875 16.6875 C9.86991849 24.93410889 7.7077617 31.23885287 3 38 C-2.62474452 43.86778904 -9.80866031 47.02106108 -17.875 47.5 C-25.96586989 47.18976726 -31.96542326 43.46969443 -37.4375 37.6875 C-42.44785113 31.55361559 -44.76404643 25.70015151 -44.46875 17.71484375 C-43.16017787 10.13603016 -39.44583477 3.71416501 -33.5 -1.125 C-22.23485485 -8.8159878 -11.10612965 -7.37161237 0 0 Z " fill="#4256D7" transform="translate(379,329)"></path><path d="M0 0 C7.02557489 4.33176101 11.46931064 9.24910349 14.02734375 17.25 C15.39272629 25.66430863 13.74520869 32.2120861 9.02734375 39.25 C5.03646287 43.95719283 0.22954127 48.10835656 -5.97265625 49.25 C-15.01673965 49.87207981 -21.88061779 49.44732647 -29.66015625 44.5625 C-35.32740523 38.89525102 -38.95000368 32.00909111 -39.28515625 23.9375 C-39.04508336 15.98841991 -36.55445465 9.81202761 -31.04296875 4.046875 C-22.0555557 -3.75352123 -10.70200848 -5.57355957 0 0 Z " fill="#4052D4" transform="translate(153.97265625,143.75)"></path><path d="M0 0 C7.06818958 3.62276383 12.80536687 8.36523595 15.6875 15.91796875 C17.53732629 23.37508097 17.1319667 30.57252566 13.55859375 37.41015625 C8.94674157 44.91345181 3.84811556 48.80578224 -4.6875 51.4375 C-11.91694735 52.68433358 -18.35843881 51.03283224 -24.6875 47.4375 C-30.23344049 43.34432021 -34.03492407 38.15410976 -35.6875 31.4375 C-36.76036121 22.93857341 -36.63095947 15.69006313 -31.6015625 8.52734375 C-23.40933466 -0.41723154 -11.60454142 -4.68606265 0 0 Z " fill="#3B44C8" transform="translate(132.6875,282.5625)"></path><path d="M0 0 C5.87440945 4.20762199 10.24453264 9.62992211 12.2578125 16.6171875 C13.30824207 25.125667 11.90060169 32.69092855 6.75 39.65625 C1.72773417 45.14570335 -3.7386117 48.17183561 -11.1484375 48.99609375 C-20.6831223 49.31187925 -26.47053176 47.78613375 -33.4921875 41.4296875 C-38.64986783 35.85892064 -40.9351024 30.26590801 -41.3046875 22.6796875 C-40.97991725 14.44519022 -37.89931202 8.30785421 -31.9296875 2.6796875 C-22.45859296 -4.79842067 -10.6596829 -6.06676486 0 0 Z " fill="#3C46C9" transform="translate(244.7421875,373.3828125)"></path><path d="M0 0 C6.71884768 5.51666817 10.91626571 11.30041346 12.34765625 19.91796875 C12.94836478 28.0928283 9.54370673 35.45428295 4.25390625 41.6015625 C-2.04931429 47.34861652 -8.53341601 49.21020846 -16.97265625 48.95703125 C-24.48884104 48.11337786 -30.50640571 45.23186637 -35.5625 39.578125 C-41.1095964 32.17709187 -42.18992309 24.74748697 -41.03515625 15.61328125 C-40.09145329 12.61365397 -38.81103691 10.19694096 -37.03515625 7.61328125 C-36.45765625 6.72640625 -35.88015625 5.83953125 -35.28515625 4.92578125 C-26.2687578 -4.34107271 -11.19629607 -7.40164824 0 0 Z " fill="#4761E3" transform="translate(292.03515625,93.38671875)"></path><path d="M0 0 C7.08680368 4.40614316 12.30616611 10.29824647 14.5 18.4375 C15.70339436 26.91088506 14.05928482 34.50925948 9.02734375 41.4765625 C4.07479251 46.97939721 -1.97780105 49.8832472 -9.3046875 50.78125 C-17.3789568 51.04964676 -23.30890531 49.39995147 -29.6875 44.4375 C-35.40945636 39.07669276 -38.68394845 32.16439189 -39.0625 24.3125 C-38.52664962 15.4004621 -33.97448043 8.36352238 -27.5 2.4375 C-20.32854471 -3.40164364 -8.25743571 -3.72552275 0 0 Z " fill="#4764E4" transform="translate(401.5,175.5625)"></path><path d="M0 0 C1.4589426 0.47730838 2.91713496 0.95691042 4.375 1.4375 C5.59316406 1.83775391 5.59316406 1.83775391 6.8359375 2.24609375 C9 3 9 3 11 4 C10.36954869 7.79388915 9.26576852 11.01909926 7.7265625 14.5390625 C6.9982019 16.21343384 6.9982019 16.21343384 6.25512695 17.92163086 C5.71188824 19.15614751 5.16850773 20.39060176 4.625 21.625 C4.05459309 22.93027203 3.48453496 24.23569652 2.91479492 25.54125977 C-3.06449216 39.22136033 -9.10556456 52.87511548 -15.16577148 66.51953125 C-18.60277838 74.26358389 -22.02994054 82.00661478 -25.296875 89.82421875 C-25.75618408 90.91677979 -26.21549316 92.00934082 -26.6887207 93.13500977 C-27.49205274 95.05845207 -28.28328489 96.98701653 -29.05932617 98.92163086 C-29.39939697 99.7338208 -29.73946777 100.54601074 -30.08984375 101.3828125 C-30.36691162 102.06746582 -30.64397949 102.75211914 -30.92944336 103.45751953 C-32 105 -32 105 -33.9855957 105.7746582 C-36.63741438 106.0713045 -37.93191998 105.33744401 -40.25 104.0625 C-40.95640625 103.68222656 -41.6628125 103.30195313 -42.390625 102.91015625 C-42.92171875 102.60980469 -43.4528125 102.30945313 -44 102 C-43.41586585 97.14697807 -41.91537956 93.07005998 -39.89453125 88.6640625 C-39.57890732 87.96058182 -39.26328339 87.25710114 -38.93809509 86.53230286 C-37.90242144 84.22702467 -36.85734972 81.92613169 -35.8125 79.625 C-34.71492984 77.18667268 -33.61994772 74.7471935 -32.52505493 72.30766296 C-31.77876061 70.64528741 -31.03166335 68.9832721 -30.28378296 67.3216095 C-27.00816488 60.03973412 -23.797737 52.73052139 -20.60931396 45.41012573 C-16.09704748 35.05184768 -11.56459144 24.70241885 -6.98864746 14.37210083 C-6.20477654 12.60152359 -5.42316338 10.82994734 -4.64160156 9.05834961 C-4.17592773 8.0091333 -3.71025391 6.95991699 -3.23046875 5.87890625 C-2.82207764 4.9566626 -2.41368652 4.03441895 -1.99291992 3.08422852 C-1 1 -1 1 0 0 Z " fill="#FAFBFE" transform="translate(270,204)"></path><path d="M0 0 C3.25207092 1.41738489 5.31361067 3.12526412 7.75 5.6875 C10.27943536 8.33915597 12.89442416 10.79411501 15.671875 13.1796875 C20.50901832 17.37476701 24.99834166 21.88818567 29.5 26.4375 C30.32242188 27.26443359 31.14484375 28.09136719 31.9921875 28.94335938 C33.99712113 30.95994959 35.99966253 32.97885236 38 35 C33.75337063 39.56405419 28.98057904 43.1058692 23.9375 46.75 C22.23669014 47.99048923 20.53616925 49.23137477 18.8359375 50.47265625 C18.01061523 51.07352051 17.18529297 51.67438477 16.33496094 52.29345703 C10.76983576 56.3608164 5.20902895 60.45451358 -0.19140625 64.73828125 C-2 66 -2 66 -4 66 C-5.54296875 64.390625 -5.54296875 64.390625 -7.1875 62.25 C-7.73792969 61.55390625 -8.28835938 60.8578125 -8.85546875 60.140625 C-10 58 -10 58 -9.82202148 56.07104492 C-8.73991671 53.34473224 -7.36881206 52.42262793 -4.9921875 50.72265625 C-4.16976563 50.12646484 -3.34734375 49.53027344 -2.5 48.91601562 C-1.63375 48.30435547 -0.7675 47.69269531 0.125 47.0625 C0.96804688 46.45470703 1.81109375 45.84691406 2.6796875 45.22070312 C5.11239963 43.46983034 7.55474108 41.73329003 10 40 C11.37279557 39.02009102 12.74524094 38.03969105 14.1171875 37.05859375 C15.06851562 36.37925781 16.01984375 35.69992187 17 35 C13.0289051 25.5086468 2.12569789 18.37559576 -5.5625 11.8125 C-7 10 -7 10 -6.78125 8.08984375 C-5.87772295 5.6729089 -4.81147921 4.50436351 -2.9375 2.75 C-2.38964844 2.22921875 -1.84179688 1.7084375 -1.27734375 1.171875 C-0.85582031 0.78515625 -0.43429687 0.3984375 0 0 Z " fill="#FAFAFE" transform="translate(292,222)"></path><path d="M0 0 C3.47132095 1.40929697 4.88093274 2.90605083 6.75 6.125 C7.17796875 6.84945312 7.6059375 7.57390625 8.046875 8.3203125 C8.36140625 8.87460938 8.6759375 9.42890625 9 10 C2.60860671 15.36227064 -3.91062913 20.52857064 -10.5625 25.5625 C-11.26503906 26.09907227 -11.96757812 26.63564453 -12.69140625 27.18847656 C-13.35140625 27.68444336 -14.01140625 28.18041016 -14.69140625 28.69140625 C-15.28123291 29.13685791 -15.87105957 29.58230957 -16.47875977 30.04125977 C-18 31 -18 31 -20 31 C-20 31.66 -20 32.32 -20 33 C-19.44731445 33.22671387 -18.89462891 33.45342773 -18.32519531 33.68701172 C-15.31116616 35.3889698 -13.23019787 37.54619518 -10.796875 40.0078125 C-10.3142218 40.49329559 -9.8315686 40.97877869 -9.33428955 41.47897339 C-7.80141438 43.02299866 -6.27565996 44.57384824 -4.75 46.125 C-3.70879639 47.17624009 -2.66713459 48.22702657 -1.625 49.27734375 C0.92199464 51.84633004 3.46265177 54.42148161 6 57 C5.0919838 58.13199353 4.17316174 59.25532363 3.25 60.375 C2.73953125 61.00148438 2.2290625 61.62796875 1.703125 62.2734375 C-0.09150963 64.09276893 -1.70813932 64.92026058 -4 66 C-5.37720215 64.61494263 -5.37720215 64.61494263 -6.78222656 63.2019043 C-10.19389999 59.77211133 -13.60889773 56.34564479 -17.02490234 52.92016602 C-18.50204696 51.4379971 -19.97829221 49.95493131 -21.45361328 48.47094727 C-23.57608203 46.33632971 -25.70177917 44.20497342 -27.828125 42.07421875 C-28.81428802 41.0803138 -28.81428802 41.0803138 -29.82037354 40.06632996 C-30.44071472 39.44591324 -31.06105591 38.82549652 -31.70019531 38.1862793 C-32.51293915 37.37020454 -32.51293915 37.37020454 -33.34210205 36.53764343 C-35.13421977 34.87551577 -37.02247663 33.43412331 -39 32 C-37.55215587 28.49135583 -35.79608662 26.78792442 -32.7734375 24.53125 C-31.48312622 23.55865234 -31.48312622 23.55865234 -30.16674805 22.56640625 C-29.24547119 21.88449219 -28.32419434 21.20257813 -27.375 20.5 C-26.43889893 19.79746094 -25.50279785 19.09492188 -24.53833008 18.37109375 C-22.62365864 16.93537517 -20.70641325 15.50308286 -18.78662109 14.07421875 C-16.20235359 12.1506217 -13.62495965 10.21831793 -11.05078125 8.28125 C-7.37237249 5.51384528 -3.68816562 2.75438677 0 0 Z " fill="#FAFBFE" transform="translate(217,217)"></path></svg>