<svg version="1.1" xmlns="http://www.w3.org/2000/svg" width="16px" height="16px" fill="currentColor" viewBox="0 0 512 512"><path d="M0 0 C168.96 0 337.92 0 512 0 C512 168.96 512 337.92 512 512 C343.04 512 174.08 512 0 512 C0 343.04 0 174.08 0 0 Z " fill="#2D8F7A" transform="translate(0,0)"></path><path d="M0 0 C0.77561498 -0.00976779 1.55122995 -0.01953558 2.35034841 -0.02959937 C4.95200638 -0.05728387 7.55285423 -0.05632687 10.15464783 -0.05534363 C12.01915187 -0.06894846 13.88364464 -0.08418107 15.74812317 -0.10092163 C20.81668372 -0.14057445 25.88498849 -0.15402538 30.95368886 -0.16037965 C34.12243892 -0.16544366 37.29112299 -0.17595266 40.45985222 -0.18837547 C51.52107717 -0.23139538 62.58211136 -0.25259287 73.64341736 -0.25456238 C83.94222848 -0.25699354 94.24002963 -0.30792282 104.53855616 -0.38145429 C113.38718423 -0.44239469 122.23548059 -0.46847745 131.08431715 -0.46789759 C136.36617592 -0.46818038 141.64706828 -0.48251229 146.92871284 -0.53225136 C151.90245303 -0.57794169 156.87437889 -0.58007156 161.84821701 -0.54956245 C163.66743668 -0.54567018 165.4867664 -0.55697503 167.30577278 -0.58510208 C182.71576523 -0.80834307 182.71576523 -0.80834307 189.75717163 4.87844849 C191.31986055 6.39819245 192.85184833 7.95055745 194.34190369 9.5415802 C195.69164227 10.78247793 197.0481179 12.01616135 198.41612244 13.2368927 C199.62356323 14.37693843 200.82802695 15.52014597 202.02940369 16.6665802 C203.31762 17.8823212 204.60667277 19.09717655 205.89659119 20.31111145 C206.49568298 20.87523743 207.09477478 21.4393634 207.71202087 22.02058411 C210.23916566 24.37889927 212.83633412 26.64958212 215.45518494 28.90486145 C217.77849156 30.92031792 220.05938834 32.98006482 222.34190369 35.0415802 C225.34447678 37.75077211 228.35749414 40.444849 231.40440369 43.1040802 C232.29486562 43.90714096 232.29486562 43.90714096 233.20331669 44.72642517 C235.30713269 46.58250407 235.30713269 46.58250407 237.65925503 48.08866882 C241.53374659 50.8906212 243.96400628 53.04225145 245.15669441 57.77430725 C245.45082521 61.83126407 245.4572328 65.79946562 245.3636322 69.8618927 C245.36109052 71.40984956 245.36252443 72.95781725 245.36761475 74.50576782 C245.37018822 78.69000591 245.31742855 82.87190336 245.25444913 87.05559921 C245.19803447 91.43434908 245.1928887 95.81315776 245.18222046 100.19221497 C245.15429145 108.47625868 245.0804981 116.75922836 244.99007505 125.04279995 C244.88933879 134.47675296 244.83995952 143.91075836 244.79481614 153.34511566 C244.70084318 172.74456211 244.54080725 192.14294529 244.34190369 211.5415802 C240.05190369 211.5415802 235.76190369 211.5415802 231.34190369 211.5415802 C231.34190369 163.0315802 231.34190369 114.5215802 231.34190369 64.5415802 C213.85190369 64.5415802 196.36190369 64.5415802 178.34190369 64.5415802 C176.36190369 62.5615802 176.36190369 62.5615802 174.34190369 60.5415802 C174.34190369 45.0315802 174.34190369 29.5215802 174.34190369 13.5415802 C117.25190369 13.5415802 60.16190369 13.5415802 1.34190369 13.5415802 C1.34190369 116.8315802 1.34190369 220.1215802 1.34190369 326.5415802 C49.85190369 326.5415802 98.36190369 326.5415802 148.34190369 326.5415802 C148.34190369 330.8315802 148.34190369 335.1215802 148.34190369 339.5415802 C128.07116858 339.65726637 107.80052653 339.74652293 87.52952957 339.80064106 C78.11758953 339.82643565 68.70585821 339.86161005 59.29405212 339.91877747 C51.09183291 339.96857414 42.88976484 340.00086209 34.68739867 340.01202267 C30.34320479 340.01854782 25.99944332 340.03390938 21.65538788 340.07023048 C17.56775048 340.10413122 13.48072422 340.11464535 9.39295959 340.10711861 C7.89170258 340.10849583 6.39042544 340.11846418 4.88928986 340.13760757 C2.84143812 340.16244524 0.79325954 340.15353203 -1.25471497 340.14285278 C-2.40142544 340.14746175 -3.54813591 340.15207071 -4.72959518 340.15681934 C-7.65809631 339.5415802 -7.65809631 339.5415802 -9.98445511 337.25815201 C-11.46847832 334.84935876 -12.29815931 333.2094065 -12.83973694 330.47515869 C-13.00139564 329.69589964 -13.16305433 328.91664059 -13.32961178 328.11376762 C-13.48957417 327.26937693 -13.64953657 326.42498623 -13.81434631 325.55500793 C-13.99781648 324.64959826 -14.18128664 323.74418858 -14.37031651 322.81134224 C-14.97993611 319.78518165 -15.56892511 316.75537661 -16.15809631 313.72517395 C-16.58944776 311.562889 -17.02209047 309.4008613 -17.45593262 307.23907471 C-18.62816843 301.37976795 -19.78277475 295.51710929 -20.93441391 289.65372467 C-22.14956484 283.48354888 -23.38121996 277.3166709 -24.61146545 271.14949036 C-26.64294511 260.95639597 -28.66555424 250.76158016 -30.68202209 240.56550598 C-33.44383225 226.60417053 -36.23103098 212.64801477 -39.02919006 198.69392395 C-39.88370199 194.43188364 -40.73819064 190.16983866 -41.59266663 185.90779114 C-41.80073503 184.87009394 -42.00880344 183.83239674 -42.22317696 182.76325417 C-43.67359092 175.52766116 -45.11976171 168.2912293 -46.56336975 161.05427551 C-46.76461393 160.04547522 -46.96585812 159.03667492 -47.17320061 157.99730492 C-47.57647799 155.97568581 -47.97975191 153.95406602 -48.38302231 151.93244553 C-51.4634597 136.49076806 -54.56000885 121.05253281 -57.68449593 105.6197052 C-58.75777921 100.31522592 -59.82771605 95.01007045 -60.8976469 89.70491409 C-61.88451852 84.81397577 -62.87715325 79.9242556 -63.87436962 75.0354166 C-64.47534794 72.08213103 -65.0707858 69.12774902 -65.66464806 66.17302513 C-66.06562863 64.18684275 -66.47346865 62.20204898 -66.88156128 60.21731567 C-69.82622457 45.50064222 -69.82622457 45.50064222 -67.56556702 41.70930481 C-64.84959788 40.04662973 -62.25223559 39.52043801 -59.13856506 38.85798645 C-58.49123917 38.71747864 -57.84391327 38.57697083 -57.17697144 38.4322052 C-55.06876016 37.97811105 -52.95748961 37.54069989 -50.84559631 37.1040802 C-49.39820107 36.79666575 -47.95093583 36.48863863 -46.50379944 36.18000793 C-34.93192095 33.73062618 -23.3180479 31.53019482 -11.65809631 29.5415802 C-11.67904358 28.80520325 -11.69999084 28.06882629 -11.72157288 27.31013489 C-11.80476775 23.97075578 -11.85676788 20.63159471 -11.90809631 17.2915802 C-11.95836975 15.55327942 -11.95836975 15.55327942 -12.00965881 13.77986145 C-12.02254944 12.66482239 -12.03544006 11.54978333 -12.04872131 10.4009552 C-12.06966858 9.37453918 -12.09061584 8.34812317 -12.11219788 7.29060364 C-10.98456047 0.46415353 -6.00007972 -0.04568152 0 0 Z " fill="#FBFCFC" transform="translate(145.65809631347656,76.45841979980469)"></path><path d="M0 0 C1.00792099 -0.01268417 2.01584198 -0.02536835 3.05430603 -0.03843689 C4.1418367 -0.03550125 5.22936737 -0.03256561 6.34985352 -0.02954102 C8.02725365 -0.03740379 8.02725365 -0.03740379 9.73854065 -0.04542542 C12.10481943 -0.05185241 14.47113013 -0.05049992 16.83740234 -0.04199219 C20.46127161 -0.0334883 24.0835622 -0.06222662 27.70727539 -0.09399414 C30.00480096 -0.09560633 32.30232932 -0.09502829 34.59985352 -0.09204102 C36.22811317 -0.10889198 36.22811317 -0.10889198 37.88926697 -0.12608337 C38.90034012 -0.11670242 39.91141327 -0.10732147 40.953125 -0.09765625 C42.28524269 -0.097407 42.28524269 -0.097407 43.64427185 -0.09715271 C46.84983195 0.57312358 48.04901266 1.85069688 50.04125977 4.40405273 C50.39065905 7.15491465 50.51011156 9.49240834 50.43188477 12.23217773 C50.42622498 12.98118347 50.42056519 13.73018921 50.41473389 14.50189209 C50.39240034 16.88660473 50.34221362 19.26979682 50.29125977 21.65405273 C50.27119067 23.27382265 50.25294061 24.89361619 50.23657227 26.51342773 C50.192546 30.4775524 50.12354274 34.44054506 50.04125977 38.40405273 C51.05027344 38.38310547 52.05928711 38.3621582 53.09887695 38.34057617 C56.84840663 38.26808489 60.59787459 38.22222053 64.34790039 38.18432617 C65.9697512 38.1642313 67.59152974 38.13695019 69.21313477 38.10229492 C71.54664957 38.05368003 73.87920534 38.03106385 76.21313477 38.01342773 C76.93619812 37.99278259 77.65926147 37.97213745 78.40423584 37.9508667 C81.51764975 37.94948423 83.74407213 38.24370139 86.49731445 39.72924805 C89.03316503 44.12247685 88.61053507 48.61118312 88.57250977 53.59155273 C88.57633667 54.6862085 88.58016357 55.78086426 88.58410645 56.90869141 C88.58682713 59.22193319 88.5794551 61.53520565 88.56274414 63.84838867 C88.54133816 67.39107796 88.56254202 70.9317391 88.58813477 74.47436523 C88.58549152 76.72176555 88.58036661 78.9691646 88.57250977 81.21655273 C88.58060669 82.27704834 88.58870361 83.33754395 88.5970459 84.43017578 C88.50553345 91.5997228 88.50553345 91.5997228 86.49731445 95.07885742 C83.08061747 96.92237941 79.99378701 96.90262415 76.21313477 96.79467773 C75.08962616 96.78618805 75.08962616 96.78618805 73.94342041 96.77752686 C71.55870777 96.75519331 69.17551568 96.70500659 66.79125977 96.65405273 C65.17148985 96.63398364 63.55169631 96.61573358 61.93188477 96.59936523 C57.9677601 96.55533897 54.00476744 96.48633571 50.04125977 96.40405273 C50.07268066 97.91757324 50.07268066 97.91757324 50.10473633 99.46166992 C50.17722761 103.2111996 50.22309197 106.96066755 50.26098633 110.71069336 C50.2810812 112.33254417 50.30836231 113.95432271 50.34301758 115.57592773 C50.39163247 117.90944254 50.41424865 120.24199831 50.43188477 122.57592773 C50.45252991 123.29899109 50.47317505 124.02205444 50.4944458 124.76702881 C50.49590262 128.04787525 50.37988686 129.97024898 48.33088684 132.59515381 C45.61361333 134.74191089 44.37482237 134.90936942 40.953125 134.92163086 C39.94205185 134.9342395 38.9309787 134.94684814 37.88926697 134.95983887 C36.26100731 134.94769348 36.26100731 134.94769348 34.59985352 134.93530273 C32.9210183 134.94104309 32.9210183 134.94104309 31.20826721 134.94689941 C28.84375102 134.94962008 26.4792048 134.9422482 24.11474609 134.92553711 C20.48865975 134.90411123 16.86455043 134.92534558 13.23852539 134.95092773 C10.94229705 134.94828488 8.64606993 134.94316079 6.34985352 134.93530273 C5.26232285 134.94339966 4.17479218 134.95149658 3.05430603 134.95983887 C1.54242455 134.9409259 1.54242455 134.9409259 0 134.92163086 C-0.88728287 134.91844849 -1.77456573 134.91526611 -2.68873596 134.9119873 C-4.95874023 134.40405273 -4.95874023 134.40405273 -6.74737549 132.59515381 C-8.54222798 129.34864755 -8.32899171 126.18486748 -8.25170898 122.57592773 C-8.24746414 121.826922 -8.2432193 121.07791626 -8.23884583 120.30621338 C-8.22209769 117.92178899 -8.18445421 115.5382202 -8.14624023 113.15405273 C-8.13118833 111.5342733 -8.1175008 109.91448058 -8.10522461 108.29467773 C-8.07220704 104.33080808 -8.0204527 100.36757531 -7.95874023 96.40405273 C-8.96775391 96.41976318 -9.97676758 96.43547363 -11.01635742 96.45166016 C-14.76595045 96.50602954 -18.51550874 96.54042805 -22.26538086 96.56884766 C-23.88718529 96.58391838 -25.50894907 96.60437866 -27.13061523 96.63037109 C-29.46405069 96.66683102 -31.79694654 96.68379588 -34.13061523 96.69702148 C-34.85367859 96.71250534 -35.57674194 96.7279892 -36.32171631 96.74394226 C-40.57095387 96.74535737 -42.92064975 96.41941162 -45.95874023 93.40405273 C-46.4666748 91.08935547 -46.4666748 91.08935547 -46.47631836 88.33764648 C-46.488927 87.30647705 -46.50153564 86.27530762 -46.51452637 85.21289062 C-46.50642944 84.10034912 -46.49833252 82.98780762 -46.48999023 81.84155273 C-46.49381714 80.69871826 -46.49764404 79.55588379 -46.50158691 78.37841797 C-46.50431033 75.96084717 -46.49691927 73.54324711 -46.48022461 71.12573242 C-46.45882283 67.41836047 -46.48001361 63.71292667 -46.50561523 60.00561523 C-46.50297204 57.65925678 -46.49784723 55.31289953 -46.48999023 52.96655273 C-46.49808716 51.85401123 -46.50618408 50.74146973 -46.51452637 49.59521484 C-46.50191772 48.56404541 -46.48930908 47.53287598 -46.47631836 46.47045898 C-46.4715448 45.10836304 -46.4715448 45.10836304 -46.4666748 43.71875 C-45.95874023 41.40405273 -45.95874023 41.40405273 -44.14984131 39.60868835 C-40.90203829 37.82309332 -37.73710032 38.03385383 -34.13061523 38.11108398 C-33.00710663 38.11745125 -33.00710663 38.11745125 -31.86090088 38.12394714 C-29.47647649 38.14069528 -27.0929077 38.17833876 -24.70874023 38.21655273 C-23.0889608 38.23160464 -21.46916808 38.24529217 -19.84936523 38.25756836 C-15.88549558 38.29058593 -11.92226281 38.34234027 -7.95874023 38.40405273 C-7.97445068 37.35950928 -7.99016113 36.31496582 -8.00634766 35.23876953 C-8.06063721 31.36433622 -8.09508654 27.48993654 -8.12353516 23.61523438 C-8.13862407 21.93809353 -8.15909771 20.26099216 -8.18505859 18.58398438 C-8.22143834 16.1736477 -8.23846509 13.76383255 -8.25170898 11.35327148 C-8.26719284 10.60317307 -8.2826767 9.85307465 -8.29862976 9.08024597 C-8.30031109 3.88251353 -8.30031109 3.88251353 -6.74737549 1.70721436 C-4.38639851 -0.01294328 -2.90841074 0.01771036 0 0 Z " fill="#FBFDFD" transform="translate(346.958740234375,300.595947265625)"></path><path d="M0 0 C10.56 0 21.12 0 32 0 C32.04898438 2.49175781 32.09796875 4.98351562 32.1484375 7.55078125 C32.20244452 9.96352149 32.25975304 12.37616226 32.31738281 14.78881836 C32.35566993 16.46582634 32.39052331 18.14291638 32.421875 19.82006836 C32.46753179 22.23060432 32.5255241 24.64057557 32.5859375 27.05078125 C32.59748871 27.80087967 32.60903992 28.55097809 32.62094116 29.32380676 C32.72695459 33.06127713 32.87619082 34.81428623 35 38 C37.68784817 38.33784096 40.1571425 38.48892244 42.8515625 38.51171875 C44.01261002 38.53864555 44.01261002 38.53864555 45.19711304 38.56611633 C47.67301967 38.62036392 50.14873203 38.65416009 52.625 38.6875 C54.30211046 38.72066046 55.97919523 38.75514893 57.65625 38.79101562 C61.77086348 38.87860393 65.88458045 38.9385442 70 39 C70 49.56 70 60.12 70 71 C66.24496094 71.07347656 66.24496094 71.07347656 62.4140625 71.1484375 C59.99472982 71.20241761 57.57549777 71.25973667 55.15625 71.31738281 C53.47240671 71.35571104 51.78848045 71.39055712 50.10449219 71.421875 C47.68654694 71.46744287 45.26917472 71.52544923 42.8515625 71.5859375 C42.0963028 71.59748871 41.34104309 71.60903992 40.56289673 71.62094116 C36.32174802 71.60330066 36.32174802 71.60330066 33 74 C32.75443629 76.72000357 32.62643514 79.34574257 32.5859375 82.0703125 C32.56657135 82.86654022 32.5472052 83.66276794 32.5272522 84.48312378 C32.46739526 87.03030634 32.42104721 89.57753395 32.375 92.125 C32.33682579 93.8502803 32.29777439 95.57554143 32.2578125 97.30078125 C32.16003447 101.53375532 32.08051661 105.76652123 32 110 C21.44 110 10.88 110 0 110 C-0.05607422 106.26236328 -0.05607422 106.26236328 -0.11328125 102.44921875 C-0.15949038 100.0364503 -0.2107261 97.62383739 -0.26245117 95.21118164 C-0.29570863 93.53419441 -0.32373808 91.85709503 -0.34643555 90.17993164 C-0.37996737 87.76920775 -0.43227978 85.35951238 -0.48828125 82.94921875 C-0.49467117 82.19912033 -0.5010611 81.44902191 -0.50764465 80.67619324 C-0.58699606 77.86800924 -0.71186108 75.54692029 -2.03515625 73.03515625 C-5.19414764 71.37087649 -8.4593995 71.51801025 -11.94921875 71.48828125 C-13.10814384 71.46135445 -13.10814384 71.46135445 -14.29048157 71.43388367 C-16.756099 71.37973896 -19.22152243 71.34587269 -21.6875 71.3125 C-23.36005306 71.27933048 -25.03258051 71.24484115 -26.70507812 71.20898438 C-30.80341394 71.12152609 -34.90086325 71.06149765 -39 71 C-39 60.44 -39 49.88 -39 39 C-36.50824219 38.96261719 -34.01648438 38.92523438 -31.44921875 38.88671875 C-29.0364503 38.84050962 -26.62383739 38.7892739 -24.21118164 38.73754883 C-22.53419441 38.70429137 -20.85709503 38.67626192 -19.17993164 38.65356445 C-16.76920775 38.62003263 -14.35951238 38.56772022 -11.94921875 38.51171875 C-11.19912033 38.50532883 -10.44902191 38.4989389 -9.67619324 38.49235535 C-6.86800924 38.41300394 -4.54692029 38.28813892 -2.03515625 36.96484375 C-0.37087649 33.80585236 -0.51801025 30.5406005 -0.48828125 27.05078125 C-0.47033005 26.27816452 -0.45237885 25.50554779 -0.43388367 24.70951843 C-0.37973896 22.243901 -0.34587269 19.77847757 -0.3125 17.3125 C-0.27933048 15.63994694 -0.24484115 13.96741949 -0.20898438 12.29492188 C-0.12152609 8.19658606 -0.06149765 4.09913675 0 0 Z " fill="#2F907B" transform="translate(352,313)"></path><path d="M0 0 C0 72.93 0 145.86 0 221 C-2.38800121 217.41799819 -2.98640808 214.02980273 -3.79702759 209.88356018 C-3.96616208 209.04669094 -4.13529658 208.20982169 -4.30955637 207.34759277 C-4.87636628 204.53448989 -5.4335067 201.71955873 -5.99072266 198.90454102 C-6.39438611 196.89079603 -6.79863086 194.87716749 -7.20341492 192.86364746 C-8.30243451 187.38768409 -9.39299852 181.91006747 -10.48188066 176.43208051 C-11.62128861 170.70620395 -12.76769988 164.98172959 -13.91317749 159.25706482 C-15.83606921 149.6416154 -17.75367249 140.0251231 -19.66796875 130.40795898 C-21.8826992 119.28169469 -24.10483938 108.1569308 -26.33117068 97.03298241 C-28.47060441 86.34272445 -30.60566077 75.65159728 -32.73841476 64.96000481 C-33.64702991 60.40520946 -34.55702799 55.85069362 -35.46809769 51.29638863 C-36.54036647 45.93491907 -37.60875681 40.57269087 -38.67412758 35.2098465 C-39.06625674 33.23910013 -39.45969624 31.26861397 -39.85452461 29.2984066 C-40.39222298 26.61410569 -40.92519581 23.92890925 -41.4569397 21.24342346 C-41.61510434 20.45947679 -41.77326898 19.67553011 -41.93622649 18.86782748 C-42.60153127 15.48359535 -43 12.46612259 -43 9 C-35.25990308 6.99149384 -27.48123657 5.16206176 -19.6875 3.375 C-18.27380127 3.04786011 -18.27380127 3.04786011 -16.83154297 2.71411133 C-4.91814486 0 -4.91814486 0 0 0 Z " fill="#288974" transform="translate(134,119)"></path><path d="M0 0 C57.42 0 114.84 0 174 0 C174 4.29 174 8.58 174 13 C116.58 13 59.16 13 0 13 C0 8.71 0 4.42 0 0 Z " fill="#F7FAFA" transform="translate(172,237)"></path><path d="M0 0 C52.8 0 105.6 0 160 0 C160 4.29 160 8.58 160 13 C107.2 13 54.4 13 0 13 C0 8.71 0 4.42 0 0 Z " fill="#FBFCFC" transform="translate(173,275)"></path><path d="M0 0 C40.26 0 80.52 0 122 0 C122 4.29 122 8.58 122 13 C81.74 13 41.48 13 0 13 C0 8.71 0 4.42 0 0 Z " fill="#FAFCFC" transform="translate(172,160)"></path><path d="M0 0 C37.95 0 75.9 0 115 0 C115 3.96 115 7.92 115 12 C77.05 12 39.1 12 0 12 C0 8.04 0 4.08 0 0 Z " fill="#FEFEFE" transform="translate(173,314)"></path><path d="M0 0 C37.95 0 75.9 0 115 0 C115 3.96 115 7.92 115 12 C77.05 12 39.1 12 0 12 C0 8.04 0 4.08 0 0 Z " fill="#FEFEFE" transform="translate(230,199)"></path><path d="M0 0 C15.18 0 30.36 0 46 0 C46 4.29 46 8.58 46 13 C30.82 13 15.64 13 0 13 C0 8.71 0 4.42 0 0 Z " fill="#F3F8F7" transform="translate(172,198)"></path><path d="M0 0 C5.02158187 3.7661864 8.99051734 6.84871089 13.23046875 11.22265625 C15.64324178 13.6460817 18.21479541 15.8583202 20.80078125 18.09375 C23.38545435 20.33410608 25.946676 22.59897635 28.5 24.875 C29.3559375 25.63554688 30.211875 26.39609375 31.09375 27.1796875 C31.7228125 27.78039062 32.351875 28.38109375 33 29 C33 29.33 33 29.66 33 30 C22.11 30 11.22 30 0 30 C0 20.1 0 10.2 0 0 Z " fill="#40A58F" transform="translate(333,98)"></path></svg>