<svg version="1.1" xmlns="http://www.w3.org/2000/svg" width="16px" height="16px" fill="currentColor" viewBox="0 0 512 512"><path d="M0 0 C168.96 0 337.92 0 512 0 C512 168.96 512 337.92 512 512 C343.04 512 174.08 512 0 512 C0 343.04 0 174.08 0 0 Z " fill="#E4750D" transform="translate(0,0)"></path><path d="M0 0 C0.76447952 0.34423508 1.52895905 0.68847015 2.31660461 1.0431366 C4.75189063 2.14062262 7.18284016 3.24729961 9.61328125 4.35546875 C12.02631967 5.45186385 14.44028585 6.54606345 16.85639954 7.63566589 C18.3543803 8.31158153 19.85062456 8.99136623 21.34465027 9.67597961 C27.14381368 12.29847281 32.88933571 14.34789764 38.92578125 16.54296875 C38.92578125 59.44296875 38.92578125 102.34296875 38.92578125 146.54296875 C36.00402082 145.08208853 34.07855883 144.00423483 31.6484375 142.01171875 C31.05224609 141.53089844 30.45605469 141.05007812 29.84179688 140.5546875 C28.60846413 139.54878703 27.37668437 138.54097937 26.14648438 137.53125 C22.86463418 134.89019256 20.00216343 132.8424606 15.92578125 131.54296875 C13.94578125 134.18296875 11.96578125 136.82296875 9.92578125 139.54296875 C13.58410998 143.35229791 17.43026597 146.63812181 21.61328125 149.85546875 C23.37567601 151.2212741 25.13435333 152.58875202 26.87524414 153.98193359 C28.97875975 155.62589256 28.97875975 155.62589256 31.55249023 157.23291016 C35.42298685 159.88722259 38.32840136 161.93474307 39.99633789 166.42504883 C40.53033622 169.78046341 40.67211954 172.89615144 40.61328125 176.29296875 C40.59177002 178.03839966 40.59177002 178.03839966 40.56982422 179.8190918 C40.20219656 185.27325866 39.73320321 189.50727602 35.734375 193.453125 C32.19782574 196.16706001 28.33016286 198.21233075 24.36328125 200.22558594 C20.30771656 202.41747567 16.72611621 205.21298546 13.05078125 207.98046875 C6.88276521 212.47971316 0.62193683 216.8247996 -5.69921875 221.10546875 C-12.50861555 225.71747738 -19.13756157 230.51237489 -25.68408203 235.48950195 C-30.36221818 239.0393251 -35.13226609 242.36599918 -40.07421875 245.54296875 C-38.09421875 248.51296875 -36.11421875 251.48296875 -34.07421875 254.54296875 C-30.4445713 253.09110977 -28.31748405 252.19377995 -25.3515625 249.99609375 C-24.65869141 249.48820313 -23.96582031 248.9803125 -23.25195312 248.45703125 C-22.14303711 247.63332031 -22.14303711 247.63332031 -21.01171875 246.79296875 C-19.3968204 245.6093292 -17.7808976 244.42708635 -16.1640625 243.24609375 C-14.90891846 242.32860352 -14.90891846 242.32860352 -13.62841797 241.39257812 C-9.48096044 238.38921947 -5.2778802 235.46688071 -1.07421875 232.54296875 C5.51044689 227.95512935 12.05239261 223.3147527 18.55078125 218.60546875 C20.02213448 217.54036329 21.4934886 216.47525906 22.96484375 215.41015625 C23.64192383 214.91999023 24.31900391 214.42982422 25.01660156 213.92480469 C25.64663086 213.46879883 26.27666016 213.01279297 26.92578125 212.54296875 C27.77414551 211.92856934 27.77414551 211.92856934 28.63964844 211.30175781 C30.06469705 210.27290305 31.49497526 209.25130168 32.92578125 208.23046875 C34.03953125 207.43189453 34.03953125 207.43189453 35.17578125 206.6171875 C36.92578125 205.54296875 36.92578125 205.54296875 38.92578125 205.54296875 C38.92578125 237.88296875 38.92578125 270.22296875 38.92578125 303.54296875 C13.27578125 317.04296875 13.27578125 317.04296875 7.05078125 320.23046875 C6.03371094 320.76607422 5.01664062 321.30167969 3.96875 321.85351562 C2.98777344 322.35302734 2.00679688 322.85253906 0.99609375 323.3671875 C-0.29143799 324.0336731 -0.29143799 324.0336731 -1.60498047 324.71362305 C-4.60676616 325.72183602 -6.07943674 325.50783847 -9.07421875 324.54296875 C-11.29418945 323.41967773 -11.29418945 323.41967773 -13.5 322.0390625 C-14.29599609 321.54599609 -15.09199219 321.05292969 -15.91210938 320.54492188 C-16.72873047 320.02865234 -17.54535156 319.51238281 -18.38671875 318.98046875 C-19.22267578 318.46033203 -20.05863281 317.94019531 -20.91992188 317.40429688 C-22.9756608 316.1238652 -25.02679098 314.83663295 -27.07421875 313.54296875 C-23.36748879 309.73905861 -19.49550646 306.23113739 -15.44921875 302.79296875 C-14.84255371 302.27508789 -14.23588867 301.75720703 -13.61083984 301.22363281 C-8.16134219 296.58606607 -2.63969829 292.04078487 2.92578125 287.54296875 C1.06677903 284.4029734 -0.83267283 281.42495636 -3.07421875 278.54296875 C-6.99147443 280.19482355 -9.96511023 282.84718031 -13.13671875 285.60546875 C-14.29492307 286.59971585 -15.45378841 287.59319338 -16.61328125 288.5859375 C-17.19239258 289.08270996 -17.77150391 289.57948242 -18.36816406 290.09130859 C-21.76572464 292.98224952 -25.23153905 295.78838978 -28.703125 298.58984375 C-30.68814904 300.22495416 -32.56398477 301.92184873 -34.44921875 303.66796875 C-37.07421875 305.54296875 -37.07421875 305.54296875 -39.20703125 305.48828125 C-43.43374611 304.09473221 -46.86838356 301.72418303 -50.57421875 299.29296875 C-52.2584081 298.20723666 -53.94333319 297.12264518 -55.62890625 296.0390625 C-56.51030273 295.4704248 -57.39169922 294.90178711 -58.29980469 294.31591797 C-63.98119116 290.68531003 -69.73783675 287.17490029 -75.48242188 283.64550781 C-76.32998047 283.12311523 -77.17753906 282.60072266 -78.05078125 282.0625 C-79.1812085 281.36797729 -79.1812085 281.36797729 -80.33447266 280.65942383 C-82.07421875 279.54296875 -82.07421875 279.54296875 -83.07421875 278.54296875 C-85.8228991 263.5677977 -89.83757879 238.64256715 -81.56646729 225.06854248 C-73.32239576 215.20370313 -60.72895935 209.40488455 -49.07421875 204.54296875 C-50.44393515 200.54796257 -52.33144297 197.74287383 -55.07421875 194.54296875 C-56.05293945 195.20417725 -57.03166016 195.86538574 -58.04003906 196.54663086 C-61.67397239 198.99943134 -65.31300058 201.44457806 -68.95361328 203.88745117 C-70.52825587 204.94559153 -72.10151112 206.00579948 -73.67333984 207.06811523 C-75.93355102 208.59514989 -78.1986553 210.1146672 -80.46484375 211.6328125 C-81.16603333 212.10887436 -81.8672229 212.58493622 -82.58966064 213.07542419 C-83.25004333 213.51580521 -83.91042603 213.95618622 -84.59082031 214.40991211 C-85.16817932 214.79851913 -85.74553833 215.18712616 -86.34039307 215.58750916 C-89.63810242 217.40477837 -91.51276631 217.68790653 -95.19042969 216.73852539 C-96.38442383 216.31434326 -97.57841797 215.89016113 -98.80859375 215.453125 C-99.44661926 215.2297496 -100.08464478 215.00637421 -100.74200439 214.77622986 C-102.77307734 214.06257306 -104.79854068 213.33428032 -106.82421875 212.60546875 C-108.20278066 212.1181654 -109.58168368 211.63182589 -110.9609375 211.14648438 C-114.33605675 209.95645879 -117.70630355 208.75325395 -121.07421875 207.54296875 C-124.85537233 168.16585828 -124.85537233 168.16585828 -118.99414062 160.09960938 C-113.83329163 155.09825682 -107.80397311 152.32302654 -101.13818359 149.81787109 C-96.05930497 147.70457195 -91.60511505 144.63310602 -87.07421875 141.54296875 C-87.45771484 140.87185059 -87.84121094 140.20073242 -88.23632812 139.50927734 C-92.07421875 132.79296875 -92.07421875 132.79296875 -92.07421875 130.54296875 C-92.85901611 131.04111084 -92.85901611 131.04111084 -93.65966797 131.54931641 C-96.08872387 133.09012348 -98.51896553 134.62905092 -100.94921875 136.16796875 C-101.77164063 136.69003906 -102.5940625 137.21210938 -103.44140625 137.75 C-104.26640625 138.27207031 -105.09140625 138.79414063 -105.94140625 139.33203125 C-107.05684814 140.03900146 -107.05684814 140.03900146 -108.19482422 140.76025391 C-112.45966739 143.40073931 -116.77296633 145.9622173 -121.07421875 148.54296875 C-121.07421875 138.97296875 -121.07421875 129.40296875 -121.07421875 119.54296875 C-116.40935155 117.07725323 -111.74716252 114.61362348 -107.06640625 112.1796875 C-104.15631339 110.65902455 -101.28430129 109.10681857 -98.45703125 107.4375 C-97.46445313 106.87417969 -96.471875 106.31085938 -95.44921875 105.73046875 C-94.61132812 105.22902344 -93.7734375 104.72757812 -92.91015625 104.2109375 C-84.60761505 102.25538028 -73.20287829 109.85428327 -65.51171875 113.23046875 C-64.10757662 113.84345355 -62.70328088 114.4560866 -61.29882812 115.06835938 C-57.88884473 116.55584533 -54.48096371 118.04807823 -51.07421875 119.54296875 C-48.38439947 146.61642577 -48.38439947 146.61642577 -52.58154297 154.30371094 C-56.36105038 158.62068442 -60.96059363 161.53050555 -65.94091797 164.30566406 C-68.94065773 166.04549939 -71.38828548 168.15385698 -74.01171875 170.41796875 C-77.82317272 173.54296875 -77.82317272 173.54296875 -80.07421875 173.54296875 C-77.90547672 177.53801985 -75.32016467 180.38202305 -72.07421875 183.54296875 C-70.60016354 182.39169935 -69.12638134 181.24007906 -67.65380859 180.08691406 C-66.38567519 179.09400651 -65.11645666 178.10248342 -63.84619141 177.11230469 C-60.79162334 174.72123832 -57.77037338 172.31110458 -54.8359375 169.7734375 C-53.88332031 168.95488281 -52.93070312 168.13632812 -51.94921875 167.29296875 C-51.10101563 166.5453125 -50.2528125 165.79765625 -49.37890625 165.02734375 C-47.07421875 163.54296875 -47.07421875 163.54296875 -45.12890625 163.52734375 C-39.85055537 166.13641453 -34.90980508 170.32325308 -32.07421875 175.54296875 C-30.7829328 181.14772592 -31.41759697 186.88540937 -32.07421875 192.54296875 C-27.78421875 192.54296875 -23.49421875 192.54296875 -19.07421875 192.54296875 C-17.50797766 179.76529741 -17.50797766 179.76529741 -21.88818359 168.26611328 C-24.23752884 166.15429095 -26.65076841 164.17943097 -29.13671875 162.23046875 C-33.9510342 158.36904427 -37.90960214 154.84651141 -38.92236328 148.54833984 C-39.88677906 138.92925003 -39.07214542 129.12818237 -38.07421875 119.54296875 C-37.58767822 119.28717041 -37.1011377 119.03137207 -36.59985352 118.76782227 C-31.64543012 116.16264403 -26.69223894 113.55513536 -21.73974609 110.94628906 C-19.18144501 109.59942017 -16.62202095 108.25470508 -14.0625 106.91015625 C-12.524683 106.10036786 -10.98692012 105.29047669 -9.44921875 104.48046875 C-8.35782593 103.90824585 -8.35782593 103.90824585 -7.24438477 103.32446289 C-3.95080323 101.73466365 -3.95080323 101.73466365 -1.07421875 99.54296875 C-0.91386315 96.51489831 -0.81461427 93.50711421 -0.7578125 90.4765625 C-0.72664085 89.11362816 -0.72664085 89.11362816 -0.69483948 87.72315979 C-0.62924203 84.80900929 -0.57041195 81.89476571 -0.51171875 78.98046875 C-0.46854321 77.00975584 -0.42492924 75.03905249 -0.38085938 73.06835938 C-0.27355032 68.22665887 -0.172312 63.38486438 -0.07421875 58.54296875 C-4.03421875 58.54296875 -7.99421875 58.54296875 -12.07421875 58.54296875 C-12.07421875 70.09296875 -12.07421875 81.64296875 -12.07421875 93.54296875 C-15.37421875 94.86296875 -18.67421875 96.18296875 -22.07421875 97.54296875 C-23.96273592 98.45162181 -25.83794388 99.38945971 -27.6875 100.375 C-28.62529297 100.86291016 -29.56308594 101.35082031 -30.52929688 101.85351562 C-32.45760544 102.86709682 -34.38201919 103.88811781 -36.30273438 104.91601562 C-37.23408203 105.39748047 -38.16542969 105.87894531 -39.125 106.375 C-39.95684814 106.81561768 -40.78869629 107.25623535 -41.64575195 107.71020508 C-46.95957737 109.53240861 -51.85232927 106.5222263 -56.74609375 104.41796875 C-57.46911682 104.11101074 -58.19213989 103.80405273 -58.93707275 103.48779297 C-60.45754496 102.84112277 -61.97704035 102.19215159 -63.49560547 101.54101562 C-65.8280754 100.54131579 -68.16374287 99.54940614 -70.5 98.55859375 C-71.97805805 97.92883929 -73.45592937 97.29864635 -74.93359375 96.66796875 C-75.63458191 96.37003418 -76.33557007 96.07209961 -77.05780029 95.76513672 C-81.95819124 93.65899626 -81.95819124 93.65899626 -83.07421875 92.54296875 C-83.21968207 90.95507409 -83.2969793 89.36086621 -83.34643555 87.76708984 C-83.37863693 86.74868011 -83.41083832 85.73027039 -83.4440155 84.68099976 C-83.5545273 79.99933377 -83.63710838 75.31781242 -83.69897461 70.63525391 C-83.74062973 68.16739062 -83.80199154 65.69977728 -83.88354492 63.23291016 C-83.99925955 59.67653431 -84.04924047 56.12437083 -84.0859375 52.56640625 C-84.1344133 51.46823578 -84.1828891 50.37006531 -84.23283386 49.23861694 C-84.2149105 41.71861598 -84.2149105 41.71861598 -80.9485321 38.35214233 C-78.39451498 36.54566008 -75.82569587 35.02714677 -73.07421875 33.54296875 C-71.46130387 32.51023593 -69.85462512 31.46761591 -68.2578125 30.41015625 C-66.67738802 29.41021636 -65.09536122 28.41280434 -63.51171875 27.41796875 C-62.33319336 26.66966797 -62.33319336 26.66966797 -61.13085938 25.90625 C-55.85642877 22.58097112 -50.55053312 19.58536562 -45.07421875 16.54296875 C-45.07421875 30.40296875 -45.07421875 44.26296875 -45.07421875 58.54296875 C-40.78421875 58.54296875 -36.49421875 58.54296875 -32.07421875 58.54296875 C-32.16848145 57.06086914 -32.26274414 55.57876953 -32.35986328 54.05175781 C-32.68777781 48.50739331 -32.89298224 42.96386151 -33.06298828 37.41259766 C-33.15305528 35.01952714 -33.27557633 32.62743517 -33.43212891 30.23779297 C-34.65848971 11.02480702 -34.65848971 11.02480702 -30.34606934 5.21459961 C-20.18197646 -4.36893553 -12.29779218 -5.65970674 0 0 Z " fill="#DF7011" transform="translate(211.07421875,95.45703125)"></path><path d="M0 0 C5.32278151 2.0778187 10.4645838 4.48939545 15.625 6.9375 C17.82783055 7.96566364 20.03272419 8.9893035 22.23783875 10.01255798 C23.71028381 10.69605494 25.18205814 11.38099874 26.65315247 12.06739807 C34.13875718 15.5532917 41.71283225 18.81901826 49.32080078 22.02905273 C50.18302246 22.39716064 51.04524414 22.76526855 51.93359375 23.14453125 C52.67665771 23.45753174 53.41972168 23.77053223 54.18530273 24.09301758 C56 25 56 25 58 27 C58.25299966 29.17381513 58.25299966 29.17381513 58.25726891 31.93575096 C58.2637178 32.98576833 58.27016669 34.0357857 58.276811 35.11762178 C58.2721652 36.86155369 58.2721652 36.86155369 58.26742554 38.64071655 C58.27195665 39.8687524 58.27648776 41.09678825 58.28115618 42.3620373 C58.29166246 45.78173923 58.29311992 49.20123164 58.29076743 52.62093496 C58.29036051 56.30473446 58.30138642 59.98850217 58.31088257 63.67228699 C58.32752091 70.89373741 58.3329934 78.11515519 58.33410732 85.33662318 C58.33505648 91.20468168 58.33916014 97.07272937 58.34550858 102.94078445 C58.36312891 119.56530704 58.37234624 136.18980376 58.37084763 152.81433575 C58.37076772 153.71123972 58.3706878 154.60814369 58.37060547 155.53222656 C58.37052371 156.43022136 58.37044195 157.32821617 58.37035771 158.25342293 C58.36954463 172.81002229 58.38868555 187.36651821 58.4168822 201.92308764 C58.4455831 216.85742155 58.45942403 231.79170498 58.45769465 246.72606719 C58.45702977 255.1155017 58.46256486 263.50482779 58.48405075 271.89423752 C58.5022259 279.03691586 58.50664025 286.17943664 58.4930319 293.32212804 C58.48648349 296.96822756 58.48645182 300.61402451 58.5037384 304.2600956 C58.52226692 308.2086441 58.50996337 312.1567464 58.49447632 316.10531616 C58.50476344 317.26347599 58.51505057 318.42163583 58.52564943 319.61489141 C58.51185304 321.19774071 58.51185304 321.19774071 58.49777794 322.81256676 C58.49821267 323.72433029 58.49864741 324.63609381 58.49909532 325.57548654 C57.84150593 328.76993508 56.4691088 329.93935958 54 332 C51.66116333 333.43011475 51.66116333 333.43011475 49.05126953 334.74902344 C47.57921555 335.49934845 47.57921555 335.49934845 46.0774231 336.26483154 C45.0232016 336.79103088 43.9689801 337.31723022 42.8828125 337.859375 C41.79290009 338.40861633 40.70298767 338.95785767 39.58004761 339.52374268 C37.27725213 340.68087645 34.97235582 341.8338375 32.66552734 342.98291016 C29.137955 344.74353411 25.62157538 346.525204 22.10546875 348.30859375 C19.86523272 349.43098458 17.62436762 350.55212089 15.3828125 351.671875 C13.80755295 352.4733194 13.80755295 352.4733194 12.20046997 353.29095459 C11.21279633 353.77856262 10.22512268 354.26617065 9.20751953 354.76855469 C8.34466339 355.20061218 7.48180725 355.63266968 6.59280396 356.07781982 C2.35106692 357.5864745 -0.84600344 357.53553241 -4.91821289 355.64575195 C-6.43016235 354.70155396 -6.43016235 354.70155396 -7.97265625 353.73828125 C-8.52832779 353.39644806 -9.08399933 353.05461487 -9.6565094 352.7024231 C-11.46654023 351.58484315 -13.26426731 350.44894715 -15.0625 349.3125 C-16.32719789 348.52684443 -17.59266924 347.74243266 -18.85888672 346.95922852 C-21.3999191 345.38464209 -23.9362277 343.80288264 -26.46826172 342.21386719 C-30.34963004 339.77809525 -34.24837289 337.37096993 -38.14892578 334.96606445 C-40.6428457 333.42648324 -43.13224101 331.87978805 -45.62109375 330.33203125 C-49.64476685 327.83350301 -53.68117866 325.35630253 -57.72265625 322.88671875 C-59.47255315 321.81581465 -61.22233402 320.74472117 -62.97210693 319.6736145 C-64.62865307 318.66097295 -66.28719145 317.65159267 -67.94580078 316.64233398 C-84.48730292 306.51269708 -84.48730292 306.51269708 -89 302 C-89.24050903 299.6335144 -89.24050903 299.6335144 -89.22705078 296.63232422 C-89.22689972 295.51131317 -89.22674866 294.39030212 -89.22659302 293.23532104 C-89.21627045 292.02071198 -89.20594788 290.80610291 -89.1953125 289.5546875 C-89.1924826 288.31453888 -89.18965271 287.07439026 -89.18673706 285.79666138 C-89.17742174 282.49875367 -89.1594489 279.20104028 -89.1373291 275.90319824 C-89.11687474 272.5383543 -89.10773623 269.17348193 -89.09765625 265.80859375 C-89.07556519 259.20565277 -89.04206483 252.60284229 -89 246 C-89.86209579 245.81926186 -89.86209579 245.81926186 -90.74160767 245.63487244 C-97.81778866 244.11356919 -104.53827603 241.93200288 -111.375 239.5625 C-112.54933594 239.16740234 -113.72367188 238.77230469 -114.93359375 238.36523438 C-116.61775391 237.78418945 -116.61775391 237.78418945 -118.3359375 237.19140625 C-119.35220215 236.84279541 -120.3684668 236.49418457 -121.41552734 236.13500977 C-124.02838719 234.98753334 -125.23198125 234.19451825 -127 232 C-127.38311005 230.04905796 -127.38311005 230.04905796 -127.39440918 227.7938385 C-127.40575897 226.93725143 -127.41710876 226.08066437 -127.42880249 225.19812012 C-127.42587189 224.26141479 -127.42294128 223.32470947 -127.41992188 222.35961914 C-127.42839142 221.37074203 -127.43686096 220.38186493 -127.44558716 219.36302185 C-127.46902878 216.08693662 -127.4699776 212.81131908 -127.46875 209.53515625 C-127.47584722 207.26215933 -127.48354557 204.9891642 -127.49182129 202.71617126 C-127.50528258 197.94883241 -127.50682742 193.1816592 -127.50097656 188.41430664 C-127.49507895 182.2994003 -127.52566771 176.1852875 -127.56609344 170.07053471 C-127.59191931 165.3753988 -127.59485248 160.68045525 -127.59120178 155.9852581 C-127.59289781 153.73055463 -127.60258646 151.47584273 -127.62034607 149.22120857 C-127.64243415 146.07018774 -127.63288478 142.92078977 -127.61523438 139.76977539 C-127.62849762 138.8350943 -127.64176086 137.90041321 -127.65542603 136.93740845 C-127.57296904 130.61522467 -127.57296904 130.61522467 -124.68061829 127.50956726 C-121.32857915 125.62189509 -117.96770391 123.79767936 -114.51171875 122.109375 C-113.80852005 121.75989807 -113.10532135 121.41042114 -112.3808136 121.050354 C-110.15248194 119.94452879 -107.92010897 118.84715958 -105.6875 117.75 C-104.16834419 116.99795229 -102.64946097 116.24535369 -101.13085938 115.4921875 C-97.42369587 113.65507038 -93.71288656 111.82552106 -90 110 C-90.00452431 108.93004288 -90.00452431 108.93004288 -90.00914001 107.83847046 C-90.0314307 101.09997801 -90.0201229 94.3624646 -89.97153378 87.62409019 C-89.94772807 84.16006094 -89.93669377 80.69699174 -89.95532227 77.23291016 C-89.97619355 73.24590122 -89.94066209 69.26033424 -89.90234375 65.2734375 C-89.91659897 64.03572601 -89.93085419 62.79801453 -89.94554138 61.52279663 C-89.80437029 53.11605966 -89.80437029 53.11605966 -87.50769043 49.9294281 C-85.74002509 48.3828382 -84.0255928 47.181522 -82 46 C-80.8042423 45.20509638 -79.60886956 44.40961304 -78.4140625 43.61328125 C-77.15440522 42.84084206 -75.89122842 42.07411956 -74.625 41.3125 C-73.1984726 40.4374131 -71.77271508 39.56107016 -70.34765625 38.68359375 C-69.62336426 38.23870605 -68.89907227 37.79381836 -68.15283203 37.33544922 C-64.75825112 35.22971577 -61.41000694 33.05452692 -58.0625 30.875 C-53.0191896 27.59577621 -47.96535008 24.33423238 -42.89453125 21.09765625 C-41.82581787 20.41517822 -40.75710449 19.7327002 -39.65600586 19.02954102 C-37.47759501 17.64053867 -35.29743018 16.25428312 -33.11547852 14.87084961 C-28.46596379 11.91239143 -23.85191202 8.94498754 -19.3828125 5.71875 C-18.71330566 5.24187744 -18.04379883 4.76500488 -17.35400391 4.27368164 C-16.17156894 3.4215001 -15.00268877 2.54995699 -13.85302734 1.65405273 C-9.2226587 -1.66516928 -5.2417917 -1.50904302 0 0 Z M-10.56640625 15.1171875 C-11.5419043 15.78041016 -11.5419043 15.78041016 -12.53710938 16.45703125 C-13.20548828 16.92496094 -13.87386719 17.39289063 -14.5625 17.875 C-15.23474609 18.33519531 -15.90699219 18.79539062 -16.59960938 19.26953125 C-17.85126254 20.12716847 -19.100345 20.98857857 -20.34594727 21.85498047 C-21.88542225 22.92068345 -23.44210806 23.96140538 -25 25 C-25.43793526 27.25817121 -25.43793526 27.25817121 -25.34057617 29.90869141 C-25.34034958 30.92959869 -25.34012299 31.95050598 -25.33988953 33.00234985 C-25.32440567 34.10759003 -25.30892181 35.2128302 -25.29296875 36.3515625 C-25.28872391 37.4807309 -25.28447906 38.60989929 -25.28010559 39.77328491 C-25.26327132 43.39076273 -25.22560975 47.00768969 -25.1875 50.625 C-25.17245934 53.07290864 -25.15876986 55.52082598 -25.14648438 57.96875 C-25.11335214 63.97937991 -25.06153674 69.98959647 -25 76 C-29.29 76 -33.58 76 -38 76 C-38 62.14 -38 48.28 -38 34 C-46.65713474 38.67004612 -46.65713474 38.67004612 -54.96484375 43.76171875 C-55.94904297 44.40560547 -56.93324219 45.04949219 -57.94726562 45.71289062 C-58.93404297 46.36451172 -59.92082031 47.01613281 -60.9375 47.6875 C-62.45827148 48.68233398 -62.45827148 48.68233398 -64.00976562 49.69726562 C-68.01853228 52.32817825 -68.01853228 52.32817825 -72 55 C-72.69994583 55.4229837 -73.39989166 55.84596741 -74.12104797 56.2817688 C-76.20758276 57.85250055 -76.20758276 57.85250055 -76.48101807 60.33488464 C-76.47213562 61.25199722 -76.46325317 62.1691098 -76.45410156 63.11401367 C-76.45379944 64.15486618 -76.45349731 65.19571869 -76.45318604 66.26811218 C-76.43254089 67.39006485 -76.41189575 68.51201752 -76.390625 69.66796875 C-76.38213531 71.39289299 -76.38213531 71.39289299 -76.37347412 73.15266418 C-76.35105474 76.8313634 -76.3008458 80.50909437 -76.25 84.1875 C-76.2299423 86.67902241 -76.21169026 89.17056006 -76.1953125 91.66210938 C-76.15117166 97.77507084 -76.08420349 103.88746626 -76 110 C-62.98608037 116.10628948 -62.98608037 116.10628948 -49.875 122 C-48.53695312 122.60908203 -48.53695312 122.60908203 -47.171875 123.23046875 C-46.30820313 123.60816406 -45.44453125 123.98585938 -44.5546875 124.375 C-43.79655762 124.71273437 -43.03842773 125.05046875 -42.25732422 125.3984375 C-37.28483646 126.72357376 -33.33653627 124.33950803 -28.96484375 122.09375 C-27.82595703 121.51496094 -26.68707031 120.93617188 -25.51367188 120.33984375 C-24.32134896 119.72707908 -23.12929409 119.11379258 -21.9375 118.5 C-19.59490217 117.29712156 -17.24942946 116.10040466 -14.90234375 114.90625 C-13.86585693 114.37322266 -12.82937012 113.84019531 -11.76147461 113.29101562 C-9 112 -9 112 -5 111 C-5 99.45 -5 87.9 -5 76 C-1.04 76 2.92 76 7 76 C7.05485299 81.74851769 7.05750577 87.49382896 7.01220703 93.24243164 C7.00410614 95.19685172 7.01016058 97.1513846 7.03076172 99.10571289 C7.0579493 101.91962735 7.03389261 104.7292077 7 107.54296875 C7.0194165 108.41398727 7.03883301 109.2850058 7.05883789 110.18241882 C6.91879967 116.09994173 6.91879967 116.09994173 4.39390564 118.57333374 C2.31812065 119.90260245 0.23822291 120.9702301 -2 122 C-3.14267334 122.60618164 -4.28534668 123.21236328 -5.46264648 123.83691406 C-6.58743408 124.39088867 -7.71222168 124.94486328 -8.87109375 125.515625 C-9.47889175 125.81692322 -10.08668976 126.11822144 -10.71290588 126.4286499 C-12.61919661 127.37302067 -14.52812165 128.31188991 -16.4375 129.25 C-18.37147514 130.20316144 -20.30483703 131.15752013 -22.23707581 132.11419678 C-23.97111454 132.97233351 -25.7070658 133.82660238 -27.44311523 134.68066406 C-29.87037964 135.76899893 -29.87037964 135.76899893 -31 137 C-33.72577113 155.49330203 -33.72577113 155.49330203 -29.24511719 172.97070312 C-26.26092037 176.26315764 -23.00278145 178.95016735 -19.51293945 181.68676758 C-14.90430116 185.47508764 -12.4928407 187.92609147 -11.58203125 193.96484375 C-11.2245072 199.35746273 -11.46772118 204.62699678 -12 210 C-16.29 210 -20.58 210 -25 210 C-24.79117188 208.36804688 -24.79117188 208.36804688 -24.578125 206.703125 C-23.72315049 197.39454817 -23.72315049 197.39454817 -27.53125 189.1640625 C-30.44054479 186.00431064 -33.37755311 183.31799063 -37 181 C-40.38644824 181.33546008 -42.31579633 182.81994904 -44.86328125 184.984375 C-45.94706055 185.89316406 -45.94706055 185.89316406 -47.05273438 186.8203125 C-47.79845703 187.45710937 -48.54417969 188.09390625 -49.3125 188.75 C-54.4090903 193.06353209 -59.5075732 197.19810879 -65 201 C-68.28788824 197.88983545 -70.83735988 194.98381075 -73 191 C-72.12057739 190.59140747 -72.12057739 190.59140747 -71.22338867 190.17456055 C-69.04356806 189.02301591 -67.32183511 187.77490706 -65.42578125 186.20703125 C-64.75740234 185.65853516 -64.08902344 185.11003906 -63.40039062 184.54492188 C-62.71138672 183.97322266 -62.02238281 183.40152344 -61.3125 182.8125 C-59.95525718 181.69300327 -58.59717818 180.57451956 -57.23828125 179.45703125 C-56.2174646 178.58727661 -56.2174646 178.58727661 -55.17602539 177.69995117 C-53 176 -53 176 -50.49389648 174.59106445 C-47.72161177 172.92485334 -45.94011072 171.60331322 -44 169 C-42.89515668 163.47578339 -43.14609431 158.1615213 -43.4375 152.5625 C-43.48269705 151.05285377 -43.52375258 149.54307752 -43.56054688 148.03320312 C-43.65920724 144.3527458 -43.81418623 140.67720681 -44 137 C-49.1486744 134.65983191 -54.30790794 132.34549945 -59.47851562 130.05419922 C-61.23522083 129.27146065 -62.98885678 128.48179511 -64.73925781 127.68505859 C-67.25848595 126.53982492 -69.78776541 125.42010025 -72.3203125 124.3046875 C-73.09867462 123.94438446 -73.87703674 123.58408142 -74.6789856 123.21286011 C-78.2764533 121.65551203 -80.22890323 120.85184767 -84.15258789 121.60571289 C-85.09223389 122.06582764 -86.03187988 122.52594238 -87 123 C-88.51074097 123.6952478 -88.51074097 123.6952478 -90.05200195 124.40454102 C-91.10347412 124.93233154 -92.15494629 125.46012207 -93.23828125 126.00390625 C-94.38748047 126.57947266 -95.53667969 127.15503906 -96.72070312 127.74804688 C-97.30988525 128.04573975 -97.89906738 128.34343262 -98.50610352 128.65014648 C-100.3227231 129.56766336 -102.14252584 130.47861177 -103.96289062 131.38867188 C-109.30669057 133.70959006 -109.30669057 133.70959006 -114 137 C-114.08775605 139.14558827 -114.10695219 141.29404421 -114.09765625 143.44140625 C-114.09443359 144.74658203 -114.09121094 146.05175781 -114.08789062 147.39648438 C-114.07953401 148.7851569 -114.07106905 150.17382877 -114.0625 151.5625 C-114.05748666 152.95507656 -114.05292347 154.34765481 -114.04882812 155.74023438 C-114.03699434 159.1601987 -114.0205088 162.58007844 -114 166 C-106.79781726 161.85836264 -99.6966269 157.62004197 -92.75 153.0625 C-91.61498047 152.32290039 -91.61498047 152.32290039 -90.45703125 151.56835938 C-88.63635264 150.3814613 -86.81791711 149.19112342 -85 148 C-84.731875 148.70125 -84.46375 149.4025 -84.1875 150.125 C-82.9318551 153.1649824 -81.49764877 156.0727774 -80 159 C-80.60360352 159.38220703 -81.20720703 159.76441406 -81.82910156 160.15820312 C-84.63698907 161.93735258 -87.44349567 163.71866953 -90.25 165.5 C-91.673125 166.40105469 -91.673125 166.40105469 -93.125 167.3203125 C-95.08121413 168.56277283 -97.02276686 169.82857166 -98.95019531 171.11523438 C-102 173 -102 173 -105.38574219 174.46289062 C-109.17435464 176.29836747 -111.37862893 177.67981814 -114 181 C-115.98025094 188.25730871 -115.12214718 196.07578087 -114.75 203.5 C-114.68975878 205.58318014 -114.63501428 207.66652695 -114.5859375 209.75 C-114.45415661 214.83746589 -114.24743001 219.91689948 -114 225 C-109.94793389 226.45613988 -105.89120266 227.89816376 -101.82958984 229.32739258 C-100.4489947 229.81541465 -99.06974063 230.30724812 -97.69189453 230.80297852 C-95.70947265 231.51547838 -93.72260925 232.21406714 -91.734375 232.91015625 C-90.54038086 233.33433838 -89.34638672 233.75852051 -88.11621094 234.19555664 C-84.43854756 235.14493778 -82.56388367 234.86180962 -79.26617432 233.04454041 C-78.68881531 232.65593338 -78.1114563 232.26732635 -77.51660156 231.86694336 C-76.85621887 231.42656235 -76.19583618 230.98618134 -75.51544189 230.53245544 C-74.81425232 230.05639359 -74.11306274 229.58033173 -73.390625 229.08984375 C-72.66381531 228.60294571 -71.93700562 228.11604767 -71.18817139 227.61439514 C-68.87177602 226.06081595 -66.56086461 224.49929096 -64.25 222.9375 C-62.67874042 221.88163298 -61.10712981 220.82628813 -59.53515625 219.77148438 C-55.68600745 217.18702702 -51.84175688 214.59543124 -48 212 C-46.96680187 213.2608012 -45.94875621 214.53403258 -44.9375 215.8125 C-44.08478516 216.87404297 -44.08478516 216.87404297 -43.21484375 217.95703125 C-42.81394531 218.63121094 -42.41304688 219.30539062 -42 220 C-42.33 220.99 -42.66 221.98 -43 223 C-44.69578044 223.8367589 -46.40078196 224.659212 -48.14402771 225.39196777 C-58.37295751 229.72641472 -69.97219562 235.2701284 -76 245 C-79.02404464 253.52172366 -78.85917989 262.56838684 -78.625 271.5 C-78.6050296 272.6554834 -78.5850592 273.8109668 -78.56448364 275.00146484 C-78.46969677 278.35525163 -78.28255998 281.68518766 -78.0390625 285.03125 C-77.95145409 286.55365295 -77.95145409 286.55365295 -77.86207581 288.10681152 C-77.41601319 292.16296572 -77.06922754 294.95423959 -74.0839386 297.87400818 C-71.78593378 299.42727003 -69.46569127 300.73298243 -67 302 C-65.91710693 302.68328369 -64.83421387 303.36656738 -63.71850586 304.07055664 C-62.72729736 304.67762451 -61.73608887 305.28469238 -60.71484375 305.91015625 C-59.60689453 306.59013672 -58.49894531 307.27011719 -57.35742188 307.97070312 C-56.21749306 308.66804254 -55.07751885 309.36530778 -53.9375 310.0625 C-51.67542706 311.44864178 -49.41390891 312.83568589 -47.15234375 314.22265625 C-45.56075439 315.19162842 -45.56075439 315.19162842 -43.93701172 316.18017578 C-42.12258859 317.30442433 -40.32340688 318.45425504 -38.55126953 319.64404297 C-35.07606627 322.23325817 -35.07606627 322.23325817 -30.9765625 322.77172852 C-27.59875419 321.45289797 -25.10727099 318.8877273 -22.4375 316.5 C-21.18709105 315.40392818 -19.93577832 314.3088866 -18.68359375 313.21484375 C-18.06339355 312.67069824 -17.44319336 312.12655273 -16.80419922 311.56591797 C-13.38606651 308.5992193 -9.86444875 305.76271622 -6.34765625 302.9140625 C-4.34917734 301.28468702 -2.38967747 299.62154707 -0.4375 297.9375 C2 296 2 296 4 296 C5.5078125 297.75 5.5078125 297.75 7.125 300 C7.66382813 300.7425 8.20265625 301.485 8.7578125 302.25 C9.37269531 303.11625 9.37269531 303.11625 10 304 C2.67243454 311.57181764 -5.33484604 318.37876163 -13.5546875 324.95703125 C-15.84083252 326.86702142 -17.90964623 328.88118913 -20 331 C-16.78547765 333.04487405 -13.55135381 335.05642792 -10.3125 337.0625 C-9.40048828 337.64322266 -8.48847656 338.22394531 -7.54882812 338.82226562 C-6.21948242 339.63920898 -6.21948242 339.63920898 -4.86328125 340.47265625 C-4.05157471 340.98062744 -3.23986816 341.48859863 -2.40356445 342.01196289 C1.10448077 343.45402069 3.67745361 342.54626999 7.11309814 341.12719727 C7.80957458 340.77713623 8.50605103 340.4270752 9.22363281 340.06640625 C10.02085754 339.66929443 10.81808228 339.27218262 11.63946533 338.86303711 C12.48547302 338.43385986 13.33148071 338.00468262 14.203125 337.5625 C15.08152039 337.12236572 15.95991577 336.68223145 16.8649292 336.22875977 C18.71540044 335.30017013 20.56443318 334.36870905 22.41210938 333.43457031 C25.25080074 331.99959522 28.09371043 330.5732782 30.9375 329.1484375 C32.73462623 328.24529141 34.53150986 327.34166237 36.328125 326.4375 C37.18222961 326.00832275 38.03633423 325.57914551 38.9163208 325.13696289 C39.70093689 324.73985107 40.48555298 324.34273926 41.29394531 323.93359375 C41.98723938 323.58353271 42.68053345 323.23347168 43.39483643 322.87280273 C44.99174334 322.10273319 44.99174334 322.10273319 46 321 C46.09530981 317.95597578 46.12551639 314.93468292 46.11352539 311.89038086 C46.11374443 310.45638695 46.11374443 310.45638695 46.1139679 308.99342346 C46.11326835 305.81720755 46.10547403 302.64104948 46.09765625 299.46484375 C46.09579222 297.26908907 46.09436825 295.07333398 46.09336853 292.87757874 C46.08954219 287.08579367 46.07971091 281.2940335 46.06866455 275.5022583 C46.05845293 269.59721209 46.05387145 263.69216187 46.04882812 257.78710938 C46.03808875 246.19139528 46.02101093 234.59569971 46 223 C42.75015087 224.26234223 40.01820193 225.51307166 37.20703125 227.58203125 C36.50392822 228.09507812 35.8008252 228.608125 35.07641602 229.13671875 C34.32932373 229.68972656 33.58223145 230.24273437 32.8125 230.8125 C31.19274697 231.99614662 29.57295421 233.17973888 27.953125 234.36328125 C27.12876953 234.96865723 26.30441406 235.5740332 25.45507812 236.19775391 C21.66714761 238.97843241 17.86783302 241.74319528 14.0625 244.5 C12.96180176 245.29760742 12.96180176 245.29760742 11.83886719 246.11132812 C5.51965671 250.66863608 -0.90061276 255.06979132 -7.34472656 259.44799805 C-13.32060527 263.51362681 -19.19998603 267.68583231 -25 272 C-29.66154042 270.50164772 -30.86610751 267.11536409 -33 263 C-31.27353016 261.7813154 -29.54705486 260.56263854 -27.82055664 259.34399414 C-26.29230921 258.26518265 -24.7641543 257.18624009 -23.23608398 256.10717773 C-19.39906744 253.39788929 -15.56097414 250.69018049 -11.71875 247.98828125 C-3.68776942 242.33709482 4.29900363 236.62971449 12.25170898 230.86889648 C18.77861951 226.14647224 25.3495139 221.48828766 31.9375 216.8515625 C32.57776123 216.38709717 33.21802246 215.92263184 33.87768555 215.4440918 C36 214 36 214 38.66333008 212.53442383 C42.57286597 210.24294024 45.39683202 208.56321724 47.06787109 204.23242188 C47.61004452 200.900957 47.74448817 197.81211752 47.6875 194.4375 C47.67750977 193.27742432 47.66751953 192.11734863 47.65722656 190.92211914 C47.20012697 183.79964923 45.88268502 179.42704487 40.50292969 174.63354492 C37.50801232 172.37891868 34.44358284 170.32223252 31.23681641 168.38134766 C27.95662842 166.3556651 24.97346443 163.99325929 21.9375 161.625 C20.29486783 160.41231853 18.65042999 159.20204728 17 158 C18.85900222 154.86000465 20.75845408 151.88198761 23 149 C28.331046 150.57103517 32.03110736 154.10429094 36.1875 157.625 C37.61481228 158.8298905 39.04563181 160.0306426 40.48046875 161.2265625 C41.10848389 161.75846191 41.73649902 162.29036133 42.38354492 162.83837891 C43.93892975 164.1945226 43.93892975 164.1945226 46 164 C46 121.1 46 78.2 46 34 C39.565 31.525 39.565 31.525 33 29 C29.98095212 27.69665761 26.9841475 26.38023278 23.99609375 25.01171875 C22.41611312 24.29861207 20.83603228 23.58572738 19.25585938 22.87304688 C16.82540246 21.77202836 14.39609282 20.6686123 11.96850586 19.5612793 C9.58476121 18.47573313 7.19702707 17.39940093 4.80859375 16.32421875 C3.71954994 15.82277596 3.71954994 15.82277596 2.60850525 15.311203 C-2.39638781 13.06729724 -5.8604532 11.86819185 -10.56640625 15.1171875 Z " fill="#FEFCFB" transform="translate(204,78)"></path><path d="M0 0 C7.37426768 4.75759205 13.56765378 10.79407958 16.43359375 19.203125 C17.78159318 22.64439782 17.78159318 22.64439782 21.37109375 23.578125 C26.10760337 23.2570057 27.51448605 21.35538366 31.05859375 18.328125 C34.62109375 17.640625 34.62109375 17.640625 38.05859375 18.328125 C42.1780472 21.80677458 43.19856024 24.23112095 43.93359375 29.515625 C44.2824428 32.08857122 44.2824428 32.08857122 45.05859375 34.328125 C47.65068189 35.88337788 49.25709917 36.54567632 52.05859375 37.328125 C58.47858339 39.94232533 62.86866302 42.94826354 66.05859375 49.328125 C66.74665672 56.65994351 66.74601359 63.33864409 62.05859375 69.328125 C55.33127113 74.88547847 48.7110217 75.63082463 40.32470703 75.66625977 C39.36132416 75.67779587 38.39794128 75.68933197 37.40536499 75.70121765 C34.22986195 75.73542704 31.05455274 75.75400443 27.87890625 75.76953125 C26.24725336 75.77988561 26.24725336 75.77988561 24.58263779 75.79044914 C18.82869071 75.82623722 13.07484113 75.84980344 7.32080078 75.86352539 C1.38664274 75.8800899 -4.54632721 75.93855391 -10.48008537 76.00666904 C-15.05269106 76.05148651 -19.62501226 76.06502211 -24.19781876 76.07014275 C-26.38507574 76.07802663 -28.57232395 76.09764227 -30.75936508 76.12936592 C-33.82342438 76.17088894 -36.88448513 76.16796179 -39.94873047 76.15454102 C-41.29405853 76.18757828 -41.29405853 76.18757828 -42.66656494 76.22128296 C-48.80698929 76.13021843 -51.91196455 74.41860556 -56.34739876 70.20263577 C-60.73284785 65.04546331 -61.47140696 59.25794352 -61.21875 52.6484375 C-60.50339299 46.66361968 -57.33253356 43.36939187 -52.921875 39.6640625 C-50.83816216 38.25848106 -48.93930445 37.62051111 -46.56640625 36.828125 C-44.44965941 36.00049827 -44.44965941 36.00049827 -42.94140625 34.328125 C-42.33669644 30.88311156 -42.31210382 27.56971059 -42.25390625 24.07421875 C-41.56586877 15.82636948 -36.97905773 8.20440377 -30.8359375 2.73046875 C-21.80044438 -3.95765914 -10.13414589 -5.28091272 0 0 Z " fill="#E27410" transform="translate(355.94140625,334.671875)"></path><path d="M0 0 C3.58413652 -0.10788371 7.16503148 -0.18726305 10.75 -0.25 C11.76578125 -0.28351563 12.7815625 -0.31703125 13.828125 -0.3515625 C14.8078125 -0.36445312 15.7875 -0.37734375 16.796875 -0.390625 C17.69760742 -0.41157227 18.59833984 -0.43251953 19.52636719 -0.45410156 C22.8799225 0.16153334 24.00047751 1.26633128 26 4 C26.54589844 6.74902344 26.54589844 6.74902344 26.609375 9.859375 C26.64160156 10.97441406 26.67382812 12.08945313 26.70703125 13.23828125 C26.72121094 14.39714844 26.73539062 15.55601563 26.75 16.75 C26.77964844 17.92433594 26.80929687 19.09867188 26.83984375 20.30859375 C26.91050727 23.20579822 26.96322266 26.10219955 27 29 C27.62471191 29.17523193 28.24942383 29.35046387 28.89306641 29.53100586 C34.59020696 31.1768345 39.97696989 33.11602436 45.375 35.5625 C46.40173828 36.01786133 46.40173828 36.01786133 47.44921875 36.48242188 C50.09973216 37.663573 52.72522711 38.85417343 55.2890625 40.21484375 C57.14068539 41.20854168 57.14068539 41.20854168 60 41 C62.16393791 38.71389647 62.16393791 38.71389647 64.3125 35.8125 C70.90057837 27.55075124 70.90057837 27.55075124 75 25 C79.99028954 25.22962674 82.3069225 26.67284636 85.81201172 30.13330078 C86.71249237 31.01156525 87.61297302 31.88982971 88.54074097 32.79470825 C89.50451094 33.76079107 90.46747414 34.7276793 91.4296875 35.6953125 C92.42944131 36.68661218 93.42978647 37.67731577 94.43069458 38.66744995 C96.52189342 40.74228131 98.6033101 42.82636312 100.67871094 44.91699219 C103.33517721 47.59075515 106.01790061 50.23629387 108.70905876 52.8750782 C110.78033506 54.91322793 112.83508647 56.96743107 114.88544083 59.02660751 C115.86799769 60.00880518 116.85601489 60.98557269 117.84957504 61.95663834 C119.23790987 63.31766651 120.60172303 64.70357174 121.96435547 66.09033203 C122.74567841 66.87119171 123.52700134 67.65205139 124.33200073 68.45657349 C126.54406322 71.82960757 126.44466299 74.0425532 126 78 C123.98828125 80.73046875 123.98828125 80.73046875 121.3125 83.1875 C120.00732422 84.41533203 120.00732422 84.41533203 118.67578125 85.66796875 C116.16912783 87.85259954 113.61671941 89.94905776 111 92 C111.62729035 96.41612405 113.34783126 100.05071404 115.3125 104 C118.62530434 110.84238188 121.00485095 117.65140755 123 125 C123.92280762 124.9685791 123.92280762 124.9685791 124.86425781 124.93652344 C127.65933809 124.85322983 130.45415715 124.80129987 133.25 124.75 C134.21808594 124.71648437 135.18617188 124.68296875 136.18359375 124.6484375 C137.58544922 124.62910156 137.58544922 124.62910156 139.015625 124.609375 C139.87446289 124.58842773 140.73330078 124.56748047 141.61816406 124.54589844 C144.90231935 125.1720289 145.93295912 126.39880336 148 129 C148.50120544 131.92175293 148.50120544 131.92175293 148.50170898 135.35742188 C148.51108994 136.64555786 148.52047089 137.93369385 148.53013611 139.26086426 C148.51965778 140.6634996 148.50828877 142.06612853 148.49609375 143.46875 C148.49624877 144.91076734 148.49773824 146.35278511 148.50050354 147.7947998 C148.50188697 150.81439676 148.48933978 153.8335184 148.46655273 156.85302734 C148.4381676 160.72022205 148.44090584 164.58662718 148.45364285 168.45388031 C148.46060365 171.43079349 148.45280629 174.40752473 148.44038582 177.38441467 C148.43587517 178.81013796 148.43553115 180.2358808 148.43945122 181.66160583 C148.44236701 183.65529605 148.42368351 185.64898243 148.40405273 187.64257812 C148.39864975 188.77634888 148.39324677 189.91011963 148.38768005 191.07824707 C147.95882442 194.31031996 147.27792527 195.70167719 145 198 C142.63989258 198.54589844 142.63989258 198.54589844 139.89453125 198.609375 C138.91162109 198.64160156 137.92871094 198.67382812 136.91601562 198.70703125 C135.89185547 198.72121094 134.86769531 198.73539063 133.8125 198.75 C132.77673828 198.77964844 131.74097656 198.80929687 130.67382812 198.83984375 C128.11580688 198.91057245 125.55869842 198.96325257 123 199 C122.67128906 200.10214844 122.34257812 201.20429688 122.00390625 202.33984375 C119.39001824 210.78622721 116.41353083 218.74671959 112.25 226.5625 C111.86142822 227.2939624 111.47285645 228.0254248 111.07250977 228.77905273 C108.2812145 233.85939275 108.2812145 233.85939275 106 235 C103.6171875 233.78515625 103.6171875 233.78515625 100.875 232.0625 C99.96492188 231.49660156 99.05484375 230.93070313 98.1171875 230.34765625 C97.41851562 229.90292969 96.71984375 229.45820313 96 229 C97.1250328 226.03452893 98.37895064 223.16827969 99.76953125 220.3203125 C104.81055958 209.9927432 108.77766919 199.75979148 111.9453125 188.69921875 C113 186 113 186 116 184 C122.27 184.33 128.54 184.66 135 185 C135 169.49 135 153.98 135 138 C131.7 138.33 128.4 138.66 125 139 C123.18957331 139.12023268 121.37656256 139.21425492 119.5625 139.25 C118.35787109 139.28867187 118.35787109 139.28867187 117.12890625 139.328125 C114.41029338 138.90910944 113.74468118 138.0893277 112 136 C111.2355957 134.07739258 111.2355957 134.07739258 110.67578125 131.89453125 C110.45575439 131.08314697 110.23572754 130.2717627 110.0090332 129.43579102 C109.66424927 128.13726196 109.66424927 128.13726196 109.3125 126.8125 C106.32947924 116.20695213 102.10233395 106.61818177 96.29296875 97.24609375 C94.54793217 94.2146858 94.42611715 92.4432971 95 89 C97.0625 86.5625 97.0625 86.5625 100 84 C101.23564333 82.75640189 102.46461365 81.50614476 103.6875 80.25 C106.75266525 77.12366738 106.75266525 77.12366738 109 76 C108.41799126 72.7351256 107.4813186 71.11126021 105.13256836 68.79199219 C104.53202133 68.19167175 103.9314743 67.59135132 103.31272888 66.97283936 C102.66167679 66.33727112 102.01062469 65.70170288 101.33984375 65.046875 C100.67537735 64.38665344 100.01091095 63.72643188 99.3263092 63.04620361 C97.20364437 60.9403236 95.07078395 58.84511672 92.9375 56.75 C91.49606066 55.32360768 90.05529691 53.8965323 88.61523438 52.46875 C85.08461168 48.97119406 81.54480947 45.48317435 78 42 C77.0522168 42.78028564 76.10443359 43.56057129 75.12792969 44.36450195 C74.59480164 44.80341263 74.06167358 45.2423233 73.51239014 45.6945343 C71.56391845 47.37641709 69.90799517 49.22148279 68.25 51.1875 C63.36440802 56.94237524 63.36440802 56.94237524 60.40625 57.41015625 C55.7305653 56.84714376 52.52265145 54.78615234 48.5 52.4375 C40.31892397 47.85840608 32.13106577 44.80286108 23.12304688 42.24584961 C22.23681641 41.9906958 21.35058594 41.73554199 20.4375 41.47265625 C19.65246094 41.25875244 18.86742187 41.04484863 18.05859375 40.82446289 C15.64982774 39.85975667 14.5026809 39.12438815 13 37 C12.65942383 34.45629883 12.65942383 34.45629883 12.70703125 31.45703125 C12.71669922 30.38388672 12.72636719 29.31074219 12.73632812 28.20507812 C12.76146484 27.08552734 12.78660156 25.96597656 12.8125 24.8125 C12.82603516 23.68134766 12.83957031 22.55019531 12.85351562 21.38476562 C12.88889695 18.58964118 12.94270421 15.79476111 13 13 C8.71 13 4.42 13 0 13 C0 8.71 0 4.42 0 0 Z " fill="#FEFCFA" transform="translate(281,83)"></path><path d="M0 0 C0.53882813 0.39832031 1.07765625 0.79664063 1.6328125 1.20703125 C2.4990625 1.80515625 3.3653125 2.40328125 4.2578125 3.01953125 C7.53226319 6.03547267 10.25876495 9.43792483 12.6328125 13.20703125 C12.6328125 13.86703125 12.6328125 14.52703125 12.6328125 15.20703125 C13.2515625 14.87703125 13.8703125 14.54703125 14.5078125 14.20703125 C20.28543249 12.35819285 26.20296478 12.23714684 31.8203125 14.70703125 C37.61929174 18.04085737 42.1755344 22.89305474 43.9453125 29.39453125 C44.80701253 32.14554875 45.31140386 33.00286968 47.78515625 34.57421875 C49.53612315 35.37992683 51.29559324 36.16737592 53.0625 36.9375 C59.5427685 40.13824052 63.56617529 45.83786166 66.6328125 52.20703125 C69.21226935 62.40202737 68.73770989 72.45518122 63.45703125 81.61328125 C58.04239893 89.31203042 51.60324926 92.73203127 42.6328125 95.20703125 C38.94550001 95.71878008 35.33173972 95.77561864 31.61279297 95.75634766 C30.57225769 95.76656952 29.53172241 95.77679138 28.45965576 95.787323 C25.05619638 95.81488595 21.65355696 95.8132205 18.25 95.80859375 C15.86589258 95.8163777 13.48178791 95.8250491 11.09768677 95.83456421 C6.11662778 95.84943736 1.1358525 95.84894173 -3.84521484 95.83837891 C-10.2151217 95.82676837 -16.58386948 95.86072534 -22.95358467 95.90706825 C-27.87111142 95.9365797 -32.7883597 95.93828193 -37.70595932 95.9320488 C-40.05422138 95.93307247 -42.40249959 95.94349638 -44.7506752 95.96367264 C-48.0365304 95.98845387 -51.32013568 95.97479435 -54.60595703 95.95166016 C-55.56619781 95.96694763 -56.5264386 95.98223511 -57.51577759 95.99798584 C-66.13519022 95.86440431 -71.66696887 92.09962237 -77.6171875 86.08203125 C-83.5384648 78.53984564 -86.24921465 69.99663691 -85.859375 60.45703125 C-84.70219329 52.8159584 -81.58546257 45.91723243 -76.3671875 40.20703125 C-74.11328125 38.86328125 -74.11328125 38.86328125 -71.8046875 37.70703125 C-68.73108528 35.76158645 -67.56220109 34.73746822 -66.29296875 31.28515625 C-65.83602013 29.03475031 -65.41103105 26.77765572 -65.015625 24.515625 C-62.83022872 13.36483797 -55.01661928 4.31952206 -45.9921875 -2.23046875 C-31.61700712 -11.04025812 -13.68521829 -9.47658421 0 0 Z M-45.7421875 14.45703125 C-51.34196575 21.34645541 -53.44842428 26.47582203 -53.4296875 35.39453125 C-53.578125 39.03515625 -53.578125 39.03515625 -54.3671875 42.20703125 C-56.95598905 44.45124829 -59.40983582 45.58350141 -62.55859375 46.91015625 C-66.57157652 48.76316081 -69.02142846 51.50932711 -71.3671875 55.20703125 C-73.65248215 62.06291519 -72.73282247 68.46661914 -69.92578125 75.00390625 C-67.16052364 78.91269144 -63.94018844 82.55900204 -59.15854454 83.76329422 C-56.60559869 83.97099029 -54.11259437 83.99544523 -51.55151367 83.95166016 C-50.59119736 83.95896149 -49.63088104 83.96626282 -48.64146423 83.9737854 C-45.48029877 83.98994052 -42.32120279 83.96282256 -39.16015625 83.93359375 C-36.9520925 83.93255558 -34.74402689 83.93359473 -32.53596497 83.93661499 C-27.91163472 83.93643578 -23.28800349 83.91563154 -18.66381836 83.87939453 C-12.75589908 83.83409977 -6.84900397 83.83291972 -0.94095898 83.84642982 C3.61892183 83.85313636 8.17857209 83.83979754 12.73840904 83.82017136 C14.91555256 83.81250744 17.09272181 83.8101542 19.26987648 83.81334305 C22.32339271 83.81409064 25.37563207 83.7886711 28.42895508 83.75634766 C29.76114075 83.76377991 29.76114075 83.76377991 31.12023926 83.7713623 C38.50745731 83.64749442 45.7173045 82.04965155 51.1328125 76.76953125 C54.90176668 70.3309012 55.44306517 64.57933024 54.6328125 57.20703125 C52.05269521 51.85567687 48.5286753 48.31081664 42.9375 46.1796875 C40.98680265 45.50483789 39.02719615 44.85505749 37.05859375 44.234375 C34.6328125 43.20703125 34.6328125 43.20703125 32.6328125 40.20703125 C32.28874588 38.57134945 32.00150353 36.92314895 31.7578125 35.26953125 C31.15551663 32.12012154 30.69877827 30.30964467 28.9453125 27.58203125 C25.56600146 25.57271117 23.50142698 25.606729 19.6328125 26.20703125 C18.6428125 27.05265625 17.6528125 27.89828125 16.6328125 28.76953125 C13.6328125 31.20703125 13.6328125 31.20703125 10.1328125 31.76953125 C5.14668151 29.54357992 4.39289585 26.20067872 2.22265625 21.359375 C-2.11614192 12.75640173 -9.47997987 8.16943379 -18.3671875 5.20703125 C-29.77189107 4.08735488 -37.76005519 6.06329727 -45.7421875 14.45703125 Z " fill="#FEFCFB" transform="translate(367.3671875,326.79296875)"></path><path d="M0 0 C18.24241967 1.68911293 33.40134935 10.7392958 45.1875 24.6640625 C55.59120954 38.07229161 59.48053095 54.16551597 58 71 C54.81818181 89.27272732 45.43635001 104.13032056 30.3359375 114.921875 C22.48116381 119.81501271 13.21372087 125.22022868 3.75 125.0625 C1.89375 125.0315625 1.89375 125.0315625 0 125 C-0.33 121.04 -0.66 117.08 -1 113 C0.19496094 112.63648438 1.38992188 112.27296875 2.62109375 111.8984375 C11.18118684 109.22048488 18.94775862 106.73982874 26 101 C27.03125 100.2575 28.0625 99.515 29.125 98.75 C38.69326683 89.59774477 44.02911084 77.9944969 44.54101562 64.79858398 C44.6626347 50.72532234 40.4527038 39.44738738 31.0390625 28.77734375 C22.19120874 20.24196066 10.82123695 15.71568957 -1 13 C-0.67 8.71 -0.34 4.42 0 0 Z " fill="#FEFCF9" transform="translate(281,182)"></path></svg>