<svg version="1.1" xmlns="http://www.w3.org/2000/svg" width="16px" height="16px" fill="currentColor" viewBox="0 0 512 512"><path d="M0 0 C168.96 0 337.92 0 512 0 C512 168.96 512 337.92 512 512 C343.04 512 174.08 512 0 512 C0 343.04 0 174.08 0 0 Z " fill="#DD2C33" transform="translate(0,0)"></path><path d="M0 0 C1.68416016 0.54333984 1.68416016 0.54333984 3.40234375 1.09765625 C29.2809324 10.17516356 48.25328013 30.25471633 61.00390625 53.85546875 C62 56 62 56 62 58 C62.75023437 57.52949219 63.50046875 57.05898437 64.2734375 56.57421875 C75.83397966 49.54179827 86.06033379 45.9839758 99.734375 48.50390625 C112.6572069 52.01554535 122.60123004 59.59446154 129.4609375 71.04296875 C133.80158912 79.38274863 135.63188373 87.64984686 136 97 C137.155 97.185625 138.31 97.37125 139.5 97.5625 C152.20368925 100.44333662 163.17049473 106.60490794 173 115 C173.66386719 115.55171875 174.32773437 116.1034375 175.01171875 116.671875 C184.99791822 125.73799766 192.2370573 139.91038081 193.25 153.30615234 C193.41145659 157.10290488 193.48084628 160.88740168 193.5 164.6875 C193.50644531 165.91082031 193.51289063 167.13414062 193.51953125 168.39453125 C193.36556458 179.3616956 191.4247868 189.34530523 186.375 199.125 C186.02872559 199.80167725 185.68245117 200.47835449 185.32568359 201.17553711 C176.33023285 218.04955377 160.30114154 226.7995849 142.86328125 233.140625 C134.11169616 235.76729447 126.51230674 236.17309776 117.41015625 235.95703125 C114.74150095 235.93346795 112.07298756 235.91309999 109.40429688 235.89648438 C105.24327769 235.8670946 101.08508461 235.81979219 96.92553711 235.7019043 C79.35918886 235.22782022 66.86737871 235.98607286 53.67428589 248.44247437 C51.4983113 250.46670226 49.14850414 252.16852378 46.71875 253.875 C45.31199715 254.91598748 43.90573194 255.95763432 42.5 257 C32.64722235 264.28115676 22.71423 271.44832243 12.77050781 278.60449219 C10.53389856 280.21465509 8.2979439 281.82571961 6.0625 283.4375 C5.32322266 283.97052734 4.58394531 284.50355469 3.82226562 285.05273438 C-0.86036425 288.43576185 -5.51825798 291.85049212 -10.16186523 295.28686523 C-13.31689705 297.62049144 -16.47844618 299.94515558 -19.64208984 302.26708984 C-21.23310075 303.43637907 -22.82192228 304.60865236 -24.40869141 305.78369141 C-26.72228872 307.49279708 -29.04694102 309.18566815 -31.375 310.875 C-32.07052979 311.39328369 -32.76605957 311.91156738 -33.48266602 312.44555664 C-36.26711169 314.4465226 -38.34445239 315.86287973 -41.7265625 316.5703125 C-44.90421312 315.7731699 -45.99199517 314.58548896 -48 312 C-48.37454981 309.37881671 -48.50811196 307.18430138 -48.45410156 304.56933594 C-48.45468567 303.82748047 -48.45526978 303.085625 -48.45587158 302.32128906 C-48.45309025 299.87517098 -48.42199786 297.43027953 -48.390625 294.984375 C-48.38316274 293.28615993 -48.37746973 291.58793624 -48.37347412 289.88970947 C-48.35821651 285.4244399 -48.31893389 280.95969247 -48.2746582 276.49462891 C-48.23370807 271.93659529 -48.21546367 267.37847713 -48.1953125 262.8203125 C-48.15243953 253.87997919 -48.08418685 244.94003305 -48 236 C-48.87315353 236.00888245 -49.74630707 236.01776489 -50.6459198 236.0269165 C-58.92700481 236.10749791 -67.20795568 236.16818381 -75.4893446 236.20724869 C-79.74559114 236.22800844 -84.00151021 236.25610982 -88.25756836 236.30175781 C-92.37490815 236.34563508 -96.49193556 236.36922409 -100.60949135 236.37950897 C-102.17017844 236.38682606 -103.73085096 236.40111157 -105.29140282 236.42292023 C-123.92621097 236.67267519 -137.13188566 231.48491195 -150.75 218.8125 C-166.00436076 202.688865 -171.65044779 183.11752473 -171.23828125 161.32421875 C-170.61915323 144.22957571 -165.53754593 128.58141384 -153.33203125 116.16796875 C-145.43221094 108.8239147 -134.38725017 99 -123 99 C-123.02618408 98.42781738 -123.05236816 97.85563477 -123.0793457 97.26611328 C-124.19705151 68.91883021 -115.08798682 46.11574796 -96.5625 24.6875 C-72.29801373 -1.20856379 -33.72637495 -11.49334565 0 0 Z " fill="#DE2E35" transform="translate(248,100)"></path><path d="M0 0 C1.68416016 0.54333984 1.68416016 0.54333984 3.40234375 1.09765625 C29.2809324 10.17516356 48.25328013 30.25471633 61.00390625 53.85546875 C62 56 62 56 62 58 C62.75023437 57.52949219 63.50046875 57.05898437 64.2734375 56.57421875 C75.83397966 49.54179827 86.06033379 45.9839758 99.734375 48.50390625 C112.6572069 52.01554535 122.60123004 59.59446154 129.4609375 71.04296875 C133.80158912 79.38274863 135.63188373 87.64984686 136 97 C137.155 97.185625 138.31 97.37125 139.5 97.5625 C152.20368925 100.44333662 163.17049473 106.60490794 173 115 C173.66386719 115.55171875 174.32773437 116.1034375 175.01171875 116.671875 C184.99791822 125.73799766 192.2370573 139.91038081 193.25 153.30615234 C193.41145659 157.10290488 193.48084628 160.88740168 193.5 164.6875 C193.50644531 165.91082031 193.51289063 167.13414062 193.51953125 168.39453125 C193.36556458 179.3616956 191.4247868 189.34530523 186.375 199.125 C186.02872559 199.80167725 185.68245117 200.47835449 185.32568359 201.17553711 C176.33023285 218.04955377 160.30114154 226.7995849 142.86328125 233.140625 C134.11169616 235.76729447 126.51230674 236.17309776 117.41015625 235.95703125 C114.74150095 235.93346795 112.07298756 235.91309999 109.40429688 235.89648438 C105.24327769 235.8670946 101.08508461 235.81979219 96.92553711 235.7019043 C79.35918886 235.22782022 66.86737871 235.98607286 53.67428589 248.44247437 C51.4983113 250.46670226 49.14850414 252.16852378 46.71875 253.875 C45.31199715 254.91598748 43.90573194 255.95763432 42.5 257 C32.64722235 264.28115676 22.71423 271.44832243 12.77050781 278.60449219 C10.53389856 280.21465509 8.2979439 281.82571961 6.0625 283.4375 C5.32322266 283.97052734 4.58394531 284.50355469 3.82226562 285.05273438 C-0.86036425 288.43576185 -5.51825798 291.85049212 -10.16186523 295.28686523 C-13.31689705 297.62049144 -16.47844618 299.94515558 -19.64208984 302.26708984 C-21.23310075 303.43637907 -22.82192228 304.60865236 -24.40869141 305.78369141 C-26.72228872 307.49279708 -29.04694102 309.18566815 -31.375 310.875 C-32.07052979 311.39328369 -32.76605957 311.91156738 -33.48266602 312.44555664 C-36.26711169 314.4465226 -38.34445239 315.86287973 -41.7265625 316.5703125 C-44.90421312 315.7731699 -45.99199517 314.58548896 -48 312 C-48.37454981 309.37881671 -48.50811196 307.18430138 -48.45410156 304.56933594 C-48.45468567 303.82748047 -48.45526978 303.085625 -48.45587158 302.32128906 C-48.45309025 299.87517098 -48.42199786 297.43027953 -48.390625 294.984375 C-48.38316274 293.28615993 -48.37746973 291.58793624 -48.37347412 289.88970947 C-48.35821651 285.4244399 -48.31893389 280.95969247 -48.2746582 276.49462891 C-48.23370807 271.93659529 -48.21546367 267.37847713 -48.1953125 262.8203125 C-48.15243953 253.87997919 -48.08418685 244.94003305 -48 236 C-48.87315353 236.00888245 -49.74630707 236.01776489 -50.6459198 236.0269165 C-58.92700481 236.10749791 -67.20795568 236.16818381 -75.4893446 236.20724869 C-79.74559114 236.22800844 -84.00151021 236.25610982 -88.25756836 236.30175781 C-92.37490815 236.34563508 -96.49193556 236.36922409 -100.60949135 236.37950897 C-102.17017844 236.38682606 -103.73085096 236.40111157 -105.29140282 236.42292023 C-123.92621097 236.67267519 -137.13188566 231.48491195 -150.75 218.8125 C-166.00436076 202.688865 -171.65044779 183.11752473 -171.23828125 161.32421875 C-170.61915323 144.22957571 -165.53754593 128.58141384 -153.33203125 116.16796875 C-145.43221094 108.8239147 -134.38725017 99 -123 99 C-123.02618408 98.42781738 -123.05236816 97.85563477 -123.0793457 97.26611328 C-124.19705151 68.91883021 -115.08798682 46.11574796 -96.5625 24.6875 C-72.29801373 -1.20856379 -33.72637495 -11.49334565 0 0 Z M-80 27 C-80.94875 27.75152344 -81.8975 28.50304687 -82.875 29.27734375 C-98.31101546 42.18062584 -108.28631852 63.39827886 -111 83 C-111.16074687 87.77784677 -110.95531464 92.54236585 -110.74609375 97.31640625 C-110.58064307 104.37239099 -110.58064307 104.37239099 -112.72265625 107.578125 C-115.05823861 109.03636167 -116.88596394 109.76649592 -119.5625 110.375 C-133.61407189 114.25414173 -144.83266373 123.37827575 -152 136 C-152.38929688 136.680625 -152.77859375 137.36125 -153.1796875 138.0625 C-160.4078264 151.56909532 -159.97843138 169.71860289 -156.375 184.3125 C-151.45778778 199.6637967 -141.96229265 211.77459494 -128 220 C-122.29063887 222.47120676 -117.78093429 223.43651069 -111.59619141 223.38476562 C-110.39956879 223.39282478 -110.39956879 223.39282478 -109.17877197 223.40104675 C-107.46228062 223.41076516 -105.74574047 223.41378703 -104.0292244 223.41069031 C-101.31419838 223.40618804 -98.59981568 223.42027614 -95.88485718 223.43908691 C-89.15097207 223.48196432 -82.41710327 223.49315533 -75.68310547 223.50531006 C-69.97431989 223.51681588 -64.26583201 223.54028499 -58.55717087 223.58000183 C-55.87918508 223.59360964 -53.20159708 223.58939683 -50.52359009 223.58459473 C-48.89153526 223.59392875 -47.25948491 223.60409589 -45.62744141 223.61523438 C-44.88043976 223.60908615 -44.13343811 223.60293793 -43.36380005 223.59660339 C-41.29971313 223.62145996 -41.29971313 223.62145996 -38 224 C-35.57109032 227.64336451 -35.72793806 229.42308306 -35.68115234 233.76635742 C-35.67110672 234.44954544 -35.6610611 235.13273346 -35.65071106 235.83662415 C-35.61984114 238.09289719 -35.60283368 240.34905137 -35.5859375 242.60546875 C-35.56722888 244.17060878 -35.54765569 245.73573869 -35.5272522 247.30085754 C-35.47589252 251.41895588 -35.43628744 255.53708694 -35.39910889 259.65533447 C-35.35909321 263.85819619 -35.30798978 268.06092137 -35.2578125 272.26367188 C-35.16100783 280.50902136 -35.07661769 288.75443834 -35 297 C-33.58591659 296.06196506 -32.17246763 295.12297367 -30.75927734 294.18359375 C-29.9720932 293.66079834 -29.18490906 293.13800293 -28.37387085 292.59936523 C-24.73255715 290.14607653 -21.17665503 287.58067577 -17.625 285 C-16.47161133 284.1646875 -16.47161133 284.1646875 -15.29492188 283.3125 C-8.87446005 278.65441596 -2.490321 273.94759538 3.88989258 269.23461914 C12.95012057 262.54808009 22.08993994 255.97294292 31.22949219 249.39550781 C32.67718649 248.35329463 34.12386402 247.30966707 35.56933594 246.26437378 C37.06436289 245.18997728 38.56551388 244.12400569 40.07501221 243.07003784 C43.92270426 240.3571268 47.50305827 237.60664085 50.89208984 234.33398438 C64.6536386 221.66468718 78.92180193 222.25861142 96.50354004 222.86657715 C102.96243062 223.07632593 109.42504031 223.14734072 115.88671875 223.21484375 C116.56862526 223.22422029 117.25053177 223.23359684 117.95310211 223.24325752 C128.55785174 223.36572623 137.31486063 222.4312807 147 218 C147.96921387 217.58975586 148.93842773 217.17951172 149.93701172 216.75683594 C163.61408861 210.75787772 172.28788121 200.15370239 178 186.625 C183.32194828 172.65488577 182.43089449 156.17793838 176.96875 142.3984375 C170.12998309 127.47329079 158.24445689 117.90414553 143.13671875 112.0546875 C138.42245296 110.469567 133.64938698 109.14305292 128.8359375 107.89453125 C126 107 126 107 124 105 C123.60351573 102.48599606 123.30362959 100.02883574 123.0625 97.5 C121.81494522 86.52005164 119.74861471 77.38469502 112 69 C104.00829073 62.87976695 96.04996114 60.01470969 86 61 C78.42329998 62.66614431 72.79988105 66.02889338 67.5 71.6875 C65.12587743 74.12990486 64.06441901 74.97770111 60.75 76.125 C58 76 58 76 56.5234375 74.94921875 C54.33040529 72.14326215 53.18909291 68.96384804 51.875 65.6875 C46.6390971 53.25187741 39.58014325 42.58014325 30 33 C29.30390625 32.30390625 28.6078125 31.6078125 27.890625 30.890625 C10.4768146 14.49367944 -11.02339165 8.24135408 -34.453125 8.6953125 C-51.05259398 9.38081958 -67.38021865 16.18701554 -80 27 Z " fill="#FEFAFA" transform="translate(248,100)"></path><path d="M0 0 C4.7123347 3.99524029 8.84706064 8.79608821 10 15 C10.97125881 27.03724035 10.97125881 27.03724035 7.875 32.5 C5.63315228 35.71905907 5.63315228 35.71905907 6.64477539 38.34375 C8.19066015 41.37369528 9.93061001 44.16296567 11.80859375 47 C12.1759816 47.55816406 12.54336945 48.11632812 12.92189026 48.69140625 C14.08956124 50.46375209 15.26325813 52.23200238 16.4375 54 C17.60694866 55.76877601 18.77511569 57.53838745 19.94239807 59.30859375 C21.0028704 60.91556066 22.06665196 62.52034229 23.13061523 64.125 C25 67 25 67 26.56079102 69.85546875 C27.27319946 70.91701172 27.27319946 70.91701172 28 72 C31.0607568 72.41820953 31.0607568 72.41820953 34.5 72 C41.81798702 71.6957178 46.7053835 73.40307628 53 77 C53.21269531 76.46890625 53.42539062 75.9378125 53.64453125 75.390625 C55.52245219 72.07855694 58.08032373 69.49056113 60.6875 66.75 C61.77032668 65.59579781 62.85236015 64.44085094 63.93359375 63.28515625 C64.45808105 62.72586426 64.98256836 62.16657227 65.52294922 61.59033203 C68.42749916 58.46301992 71.22106908 55.23882442 74 52 C73.71382812 51.43410156 73.42765625 50.86820313 73.1328125 50.28515625 C69.00017135 41.94862151 65.88760726 34.12463824 68.66015625 24.7734375 C71.80403614 17.72352501 77.6396075 11.78979746 84.71484375 8.66796875 C92.02342942 6.53161294 98.50611232 7.38087731 105.375 10.5 C112.37066807 14.37325601 116.48089075 19.4314762 119 27 C120.08083331 35.6807981 119.14909011 42.82248045 114 50 C109.29897444 55.38564094 103.57113303 58.62769052 96.41015625 59.2109375 C92.41928915 59.26954054 88.85220416 59.095581 85 58 C84.77699219 58.54140625 84.55398438 59.0828125 84.32421875 59.640625 C82.57918837 62.74976467 80.24681433 65.17847218 77.8125 67.75 C76.81705278 68.8184 75.82226139 69.88741142 74.828125 70.95703125 C74.10206055 71.73554443 74.10206055 71.73554443 73.36132812 72.52978516 C70.49976528 75.62023197 67.71862293 78.78330875 65 82 C64.27683594 82.72832031 63.55367187 83.45664062 62.80859375 84.20703125 C60.40066598 87.92553742 60.72010707 91.0040242 61 95.25 C61.23596975 103.17689806 60.69303703 108.84941856 55.234375 114.984375 C49.36208993 120.57922928 43.6955858 123.05730964 35.625 123.5 C28.58580656 123.26601019 23.10628044 120.80140477 17.890625 116.09765625 C11.44616844 109.16054495 10.56003889 102.72346623 10.66796875 93.421875 C11.12321075 88.73020454 12.55861547 85.99499287 15 82 C16.24316287 78.57441192 16.07752765 78.170252 14.45556641 74.60839844 C12.40971244 71.02540699 10.23663263 67.51678306 8.03710938 64.02636719 C7.10130612 62.51782128 6.19152906 60.99279352 5.30957031 59.45214844 C0.67522917 50.73169343 0.67522917 50.73169343 -7.09729004 45.34155273 C-10.87245757 44.85640547 -14.43624147 45.07708582 -18.20166016 45.54394531 C-22 46 -22 46 -24.58984375 45.19189453 C-27.33439908 44.70518899 -27.33439908 44.70518899 -30.15380859 47.37744141 C-31.33492635 48.51891201 -32.49887068 49.67832322 -33.6484375 50.8515625 C-34.57361679 51.76813126 -34.57361679 51.76813126 -35.51748657 52.70321655 C-36.81738883 53.99903619 -38.10974574 55.3024626 -39.39501953 56.61279297 C-41.36794329 58.61782843 -43.37079006 60.58887743 -45.37890625 62.55859375 C-46.63734499 63.82099733 -47.89392121 65.08526089 -49.1484375 66.3515625 C-49.75037933 66.94135895 -50.35232117 67.5311554 -50.97250366 68.13882446 C-52.8417879 70.003519 -52.8417879 70.003519 -55 73 C-55.02821547 75.69924559 -55.02821547 75.69924559 -54 78 C-53.25618773 86.79823659 -53.2482715 93.95884118 -59 101 C-63.79797474 106.17406302 -68.96231888 109.58123922 -76.05078125 110.31640625 C-85.30494638 110.64729335 -90.93197449 108.99762863 -97.75 102.8125 C-102.72160863 97.45408429 -105.17044714 91.87738104 -105.5625 84.5625 C-105.21648407 76.58181002 -101.93602488 70.45522153 -96.125 65.0625 C-90.04561843 60.26239239 -84.79031454 58.67971626 -77.13671875 58.50390625 C-74 59 -74 59 -64 63 C-55.09 54.09 -46.18 45.18 -37 36 C-38.32 32.7 -39.64 29.4 -41 26 C-42.28349931 19.13106574 -41.02972011 13.33621896 -37.609375 7.29296875 C-28.24981054 -6.04213887 -13.46807252 -8.60066385 0 0 Z " fill="#FEFBFB" transform="translate(241,187)"></path><path d="M0 0 C4.38773175 2.19386588 7.09334197 4.44520582 9 9 C9.53751218 13.22330997 9.28625223 15.42749554 7.375 19.25 C4.31183282 22.79682516 1.69929303 24.51412726 -2.953125 25.3515625 C-6.84569498 25.63384811 -9.28091135 25.19508469 -12.375 22.75 C-15.82177446 19.13909342 -16.82522878 17.57294101 -17.375 12.625 C-16.8476637 7.52741573 -14.66444332 4.84938147 -11.3125 1.125 C-7.59344385 -0.68427056 -4.04760663 -0.63243854 0 0 Z " fill="#DD3138" transform="translate(281,272)"></path><path d="M0 0 C3.96349618 1.57612714 6.59715839 3.39573758 9 7 C9.6772783 12.08746258 9.82467221 16.55682364 7.25 21.0625 C3.12813511 24.61188366 -0.3031787 25.55471493 -5.67578125 25.45703125 C-9.72458526 24.66087987 -12.43498094 22.13756796 -15 19 C-16.20643566 15.38069302 -16.32268559 12.80768995 -16 9 C-12.17886405 1.90360466 -8.28478193 -1.41936674 0 0 Z " fill="#D72830" transform="translate(165,259)"></path><path d="M0 0 C4.11092959 1.77517414 6.73298981 4.13768634 9 8 C9.8724952 12.76787779 9.4529713 16.11023495 7.25 20.4375 C4.64553443 23.40369689 2.74420306 24.75974305 -1.18359375 25.30078125 C-5.90921728 25.32535122 -9.29643664 25.26785002 -13 22 C-15.57054568 18.18850123 -16.64785885 14.67347645 -16.49609375 10.03125 C-15.56122422 6.20343775 -12.87712858 3.57152684 -10 1 C-6.80436932 -0.59781534 -3.4765367 -0.36841911 0 0 Z " fill="#E5383D" transform="translate(338,208)"></path><path d="M0 0 C3.92670595 2.11438013 6.63262715 4.23125126 9 8 C9.80503292 12.06541625 9.95254041 16.23956421 7.9453125 19.94921875 C5.45094143 22.99707452 3.50946833 24.82985059 -0.42578125 25.2734375 C-8.25299519 25.54881986 -8.25299519 25.54881986 -12.0625 22.75 C-15.48630504 17.89040575 -16.63418719 15.13047618 -16 9 C-12.32317126 1.9187002 -8.0382172 -0.98714948 0 0 Z " fill="#DF3138" transform="translate(229,195)"></path></svg>