<svg version="1.1" xmlns="http://www.w3.org/2000/svg" width="16px" height="16px" fill="currentColor" viewBox="0 0 512 512"><path d="M0 0 C168.96 0 337.92 0 512 0 C512 168.96 512 337.92 512 512 C343.04 512 174.08 512 0 512 C0 343.04 0 174.08 0 0 Z " fill="#D62A6B" transform="translate(0,0)"></path><path d="M0 0 C1.34661557 -0.00350982 2.69322695 -0.00917805 4.03982544 -0.01681519 C7.66391076 -0.03094701 11.28722671 -0.01411923 14.91123819 0.00946999 C18.72132848 0.02972348 22.53139129 0.02369209 26.34152222 0.0213623 C32.73497047 0.02141571 39.12812152 0.04107424 45.52148438 0.07324219 C52.89419271 0.11015928 60.2665127 0.11891159 67.63930142 0.11194468 C74.75938243 0.10562258 81.87933149 0.11642342 88.99938583 0.13591003 C92.01750456 0.1440462 95.03555548 0.14680062 98.05368423 0.1452179 C101.61125411 0.14433386 105.16845948 0.1586932 108.72593307 0.18444443 C110.64086853 0.19492887 112.55586638 0.1909549 114.4708252 0.18643188 C125.29934345 0.29259845 133.83075593 2.57053402 142.22607422 9.61523438 C151.0676776 18.87537519 153.82916733 27.72393198 153.74746704 40.34761047 C153.75894368 42.23917154 153.75894368 42.23917154 153.77065217 44.16894597 C153.79113345 47.64865759 153.78686917 51.12795528 153.77829099 54.60770023 C153.77334198 58.36858758 153.79140279 62.12937712 153.80636597 65.89022827 C153.8318247 73.2504633 153.83545175 80.61055228 153.83076544 87.97082392 C153.82719461 93.95593492 153.83070796 99.94100169 153.83921432 105.92610741 C153.8404047 106.77900995 153.84159508 107.63191248 153.84282153 108.51066056 C153.84524512 110.24353098 153.84767339 111.9764014 153.85010628 113.70927181 C153.87184406 129.9493388 153.86753875 146.18932267 153.85533659 162.42939433 C153.84500107 177.27119824 153.8675038 192.11273951 153.90553303 206.95449147 C153.94432148 222.2100266 153.9607962 237.46543757 153.95328653 252.72102231 C153.949467 261.2794431 153.9543932 269.83764043 153.98271561 278.39602089 C154.00658589 285.68256658 154.00930599 292.96875126 153.98513527 300.25530211 C153.97338662 303.96939968 153.97107586 307.68283766 153.99514008 311.39689064 C154.02098215 315.43241458 153.99986121 319.46638028 153.97451782 323.50190735 C153.98926639 324.6631172 154.00401496 325.82432705 154.01921046 327.02072507 C153.8881364 336.97614181 150.68270568 345.46080658 143.60107422 352.61523438 C134.61914435 359.59757825 123.86102341 360.20225428 112.91137695 360.1328125 C111.51859816 360.13824752 110.12582513 360.14537785 108.73306274 360.15405273 C104.98714011 360.17212383 101.24166334 360.16528712 97.49573398 360.15253639 C93.55444157 360.14232573 89.61318435 360.15182406 85.67189026 360.15808105 C79.05747709 360.16533335 72.44324329 360.15583278 65.82885742 360.13671875 C58.20675621 360.11494555 50.58508302 360.12201421 42.96299213 360.14402437 C36.39019651 360.16223694 29.81752895 360.1647085 23.24471623 360.1542697 C19.33151911 360.14806794 15.41852251 360.14710693 11.50533867 360.16041565 C7.82540569 360.17205976 4.14601915 360.16379464 0.46614456 360.14083862 C-1.51044231 360.13311788 -3.48707598 360.14483328 -5.46363831 360.15734863 C-14.96131099 360.06815066 -24.37837634 358.63840216 -31.64892578 351.99023438 C-32.32697266 351.39984375 -33.00501953 350.80945313 -33.70361328 350.20117188 C-42.2964605 339.46821931 -41.43135518 328.79731909 -41.26220703 315.63867188 C-41.25286978 313.50062897 -41.24575798 311.36257529 -41.24076843 309.22451782 C-41.22177062 303.62491797 -41.1727321 298.02597707 -41.11724854 292.42663574 C-41.06589999 286.70183218 -41.04322115 280.9769211 -41.01806641 275.25195312 C-40.96460631 264.03942565 -40.87938135 252.82738502 -40.77392578 241.61523438 C-36.81392578 241.61523438 -32.85392578 241.61523438 -28.77392578 241.61523438 C-28.77392578 263.06523437 -28.77392578 284.51523437 -28.77392578 306.61523438 C26.99607422 306.61523438 82.76607422 306.61523438 140.22607422 306.61523438 C140.22607422 224.44523437 140.22607422 142.27523437 140.22607422 57.61523438 C84.45607422 57.61523438 28.68607422 57.61523438 -28.77392578 57.61523438 C-28.77392578 86.65523438 -28.77392578 115.69523438 -28.77392578 145.61523438 C-32.73392578 145.61523438 -36.69392578 145.61523438 -40.77392578 145.61523438 C-40.93657631 130.47192713 -41.0611963 115.32872219 -41.13661098 100.18473625 C-41.17257207 93.15166193 -41.22152119 86.11914323 -41.30200195 79.08642578 C-41.37972694 72.29122839 -41.41999184 65.4966068 -41.43806648 58.70099258 C-41.4509365 56.11676105 -41.47606817 53.53255872 -41.51403618 50.94857407 C-41.90605298 23.14724329 -41.90605298 23.14724329 -31.71311951 11.19967651 C-22.54138328 2.20495541 -12.49646979 -0.1340194 0 0 Z " fill="#FEFAFB" transform="translate(274.77392578125,76.384765625)"></path><path d="M0 0 C6.69349255 3.83925702 13.18226222 8.12662813 15.3125 15.9375 C16.3025 15.4425 16.3025 15.4425 17.3125 14.9375 C24.76195919 14.2479446 30.311415 14.28359734 36.3125 18.9375 C39.38625759 22.08111572 41.12459742 24.41853098 42.625 28.5625 C44.67252476 32.65754952 46.28660459 33.29444423 50.32421875 35.05859375 C56.2909106 37.69612944 59.34105063 42.37174676 62.3125 47.9375 C64.59534137 54.78602411 64.48197101 64.2354077 61.6875 70.9375 C57.39687609 78.86323583 52.07604601 84.25023197 43.3125 86.9375 C36.4902789 87.85337298 29.54182457 87.56891413 22.67578125 87.49609375 C20.66660367 87.4918371 18.65742116 87.48951434 16.64823914 87.48902893 C12.45300755 87.48288616 8.25831462 87.46029216 4.06323242 87.42456055 C-1.30325614 87.37920276 -6.66925947 87.3645282 -12.03592205 87.36082363 C-16.17872358 87.3563877 -20.32142426 87.34107226 -24.4641819 87.3219471 C-26.44285063 87.31309567 -28.42152998 87.30635083 -30.40021324 87.30178642 C-33.16632399 87.29270497 -35.93200485 87.2702826 -38.69799805 87.24389648 C-39.50803787 87.24323181 -40.3180777 87.24256714 -41.15266418 87.24188232 C-50.40999037 87.12051554 -57.03392163 84.5661586 -63.6875 77.9375 C-65.67096469 75.06100618 -67.23912929 72.11227687 -68.6875 68.9375 C-69.0175 68.2775 -69.3475 67.6175 -69.6875 66.9375 C-70.99847356 49.68883356 -70.99847356 49.68883356 -66.32421875 42.8046875 C-62.97071864 38.97897616 -59.27472634 35.23111317 -54.6875 32.9375 C-54.18005713 30.92156493 -54.18005713 30.92156493 -53.875 28.5 C-51.81657035 17.53730271 -45.7175069 8.21357009 -36.76171875 1.4921875 C-25.94483236 -4.9835538 -11.26244465 -5.75323729 0 0 Z " fill="#DC3171" transform="translate(334.6875,218.0625)"></path><path d="M0 0 C1.31494949 -0.0087616 2.62989899 -0.01752319 3.98469543 -0.02655029 C7.56746802 -0.04920545 11.14951498 -0.04056604 14.73229909 -0.02465487 C18.49484553 -0.01192628 22.25733311 -0.02375493 26.0198822 -0.03158569 C32.33530749 -0.04066104 38.65043962 -0.02874912 44.96582031 -0.00488281 C52.25230127 0.02233652 59.53808279 0.01350047 66.82454687 -0.01401484 C73.09832278 -0.03675151 79.37188894 -0.03988422 85.64569277 -0.02682149 C89.38506205 -0.01905337 93.12410321 -0.0179122 96.863451 -0.03450394 C101.03308238 -0.05171553 105.20151969 -0.02781922 109.37109375 0 C110.59989258 -0.01012115 111.82869141 -0.02024231 113.09472656 -0.03067017 C121.5431122 0.07360468 126.48174529 1.80351864 132.64428711 7.52587891 C133.09030273 8.08146484 133.53631836 8.63705078 133.99584961 9.20947266 C134.68807617 10.04671875 134.68807617 10.04671875 135.39428711 10.90087891 C140.55051662 18.24111646 138.62084961 20.49660259 138.62084961 31.64697266 C82.85084961 31.64697266 27.08084961 31.64697266 -30.37915039 31.64697266 C-30.37915039 21.96023715 -30.34375174 16.18106884 -25.25415039 8.39697266 C-17.50844922 0.9880411 -10.49338461 -0.08657268 0 0 Z " fill="#E83B79" transform="translate(276.379150390625,89.35302734375)"></path><path d="M0 0 C55.44 0 110.88 0 168 0 C168 17.26315789 168 17.26315789 164 22 C159.04524726 25.84246131 155.45585041 27.12076941 149.26423645 27.15390015 C148.06844971 27.16250061 146.87266296 27.17110107 145.64064026 27.17996216 C143.66993813 27.18635208 143.66993813 27.18635208 141.65942383 27.19287109 C140.26311032 27.20077403 138.86679884 27.2090431 137.4704895 27.21765137 C132.88268987 27.24385256 128.29488121 27.25917857 123.70703125 27.2734375 C122.12630393 27.27879824 120.54557667 27.28417575 118.96484947 27.28956985 C112.38772402 27.3111971 105.81060099 27.32993242 99.23344898 27.34119225 C89.81561257 27.35742246 80.3981893 27.39057909 70.98050863 27.44759309 C64.35447559 27.48633509 57.72855285 27.50583004 51.10240954 27.51111281 C47.14713899 27.5147609 43.19230929 27.52672339 39.23716164 27.55921555 C35.51303378 27.58937119 31.78961175 27.59558191 28.06538773 27.58383179 C26.05585863 27.58350713 24.0463726 27.60792359 22.03700256 27.63320923 C14.96011677 27.58455262 9.18988735 27.22230292 4 22 C0 16 0 16 0 0 Z " fill="#D12768" transform="translate(247,396)"></path><path d="M0 0 C6.69349255 3.83925702 13.18226222 8.12662813 15.3125 15.9375 C16.3025 15.4425 16.3025 15.4425 17.3125 14.9375 C24.76195919 14.2479446 30.311415 14.28359734 36.3125 18.9375 C39.38625759 22.08111572 41.12459742 24.41853098 42.625 28.5625 C44.67252476 32.65754952 46.28660459 33.29444423 50.32421875 35.05859375 C56.2909106 37.69612944 59.34105063 42.37174676 62.3125 47.9375 C64.59534137 54.78602411 64.48197101 64.2354077 61.6875 70.9375 C57.39687609 78.86323583 52.07604601 84.25023197 43.3125 86.9375 C36.4902789 87.85337298 29.54182457 87.56891413 22.67578125 87.49609375 C20.66660367 87.4918371 18.65742116 87.48951434 16.64823914 87.48902893 C12.45300755 87.48288616 8.25831462 87.46029216 4.06323242 87.42456055 C-1.30325614 87.37920276 -6.66925947 87.3645282 -12.03592205 87.36082363 C-16.17872358 87.3563877 -20.32142426 87.34107226 -24.4641819 87.3219471 C-26.44285063 87.31309567 -28.42152998 87.30635083 -30.40021324 87.30178642 C-33.16632399 87.29270497 -35.93200485 87.2702826 -38.69799805 87.24389648 C-39.50803787 87.24323181 -40.3180777 87.24256714 -41.15266418 87.24188232 C-50.40999037 87.12051554 -57.03392163 84.5661586 -63.6875 77.9375 C-65.67096469 75.06100618 -67.23912929 72.11227687 -68.6875 68.9375 C-69.0175 68.2775 -69.3475 67.6175 -69.6875 66.9375 C-70.99847356 49.68883356 -70.99847356 49.68883356 -66.32421875 42.8046875 C-62.97071864 38.97897616 -59.27472634 35.23111317 -54.6875 32.9375 C-54.18005713 30.92156493 -54.18005713 30.92156493 -53.875 28.5 C-51.81657035 17.53730271 -45.7175069 8.21357009 -36.76171875 1.4921875 C-25.94483236 -4.9835538 -11.26244465 -5.75323729 0 0 Z M-34.42578125 16.83984375 C-39.67906603 23.37197113 -40.89214866 29.19430596 -41.24609375 37.44921875 C-41.76263107 40.36102645 -42.35125671 41.18265059 -44.6875 42.9375 C-46.58984375 43.9296875 -46.58984375 43.9296875 -48.625 44.8125 C-52.31986685 46.58522104 -54.4389462 48.42975607 -56.6875 51.9375 C-58.37929466 57.01288397 -58.25121867 61.25714436 -56.0625 66.125 C-53.44542293 70.93073582 -49.83542809 73.22152397 -44.6875 74.9375 C-42.06815681 75.04898035 -39.47470969 75.10514322 -36.85473633 75.11450195 C-35.65903519 75.12435875 -35.65903519 75.12435875 -34.43917847 75.13441467 C-31.79929508 75.15413505 -29.15946861 75.1658088 -26.51953125 75.17578125 C-25.16508187 75.18189454 -25.16508187 75.18189454 -23.78326988 75.18813133 C-19.00191858 75.20898888 -14.22059593 75.22329073 -9.43920898 75.23266602 C-4.51082931 75.24371665 0.41709714 75.27810185 5.34531689 75.31783772 C9.14328323 75.34403992 12.94114229 75.35236115 16.73919106 75.35594749 C18.55518967 75.36080585 20.37118374 75.37239835 22.18709373 75.39098549 C24.73601054 75.41544919 27.28376433 75.4143988 29.83276367 75.4074707 C30.57539963 75.42028076 31.31803558 75.43309082 32.08317566 75.44628906 C37.5615204 75.39233353 41.70505892 73.91319765 46.3125 70.9375 C50.510669 66.46848138 50.79289281 61.63930552 50.70703125 55.73046875 C50.17503117 51.96432954 48.97197351 50.02952388 46.3046875 47.375 C42.37467672 44.53922752 37.24483619 41.9375 32.3125 41.9375 C32.14814453 40.92429687 32.14814453 40.92429687 31.98046875 39.890625 C31.82191406 38.99859375 31.66335938 38.1065625 31.5 37.1875 C31.27376953 35.86492187 31.27376953 35.86492187 31.04296875 34.515625 C30.23999084 31.6815853 29.35245555 30.05516814 27.3125 27.9375 C23.85500051 27.27073122 23.85500051 27.27073122 20.3125 27.9375 C18.93939293 29.22983607 17.60215176 30.56187146 16.3125 31.9375 C13.75 32.375 13.75 32.375 11.3125 31.9375 C8.59494794 29.73123995 7.49195468 27.36554625 6.125 24.1875 C3.17761427 18.09682979 -0.92391573 13.84173259 -6.98046875 10.77734375 C-17.12081726 7.63134818 -27.23462462 8.96997121 -34.42578125 16.83984375 Z " fill="#FEFBFC" transform="translate(334.6875,218.0625)"></path><path d="M0 0 C51.48 0 102.96 0 156 0 C156 4.29 156 8.58 156 13 C104.52 13 53.04 13 0 13 C0 8.71 0 4.42 0 0 Z " fill="#FDF7F9" transform="translate(90,280)"></path><path d="M0 0 C37.29 0 74.58 0 113 0 C113 3.96 113 7.92 113 12 C75.71 12 38.42 12 0 12 C0 8.04 0 4.08 0 0 Z " fill="#FFFFFF" transform="translate(144,243)"></path><path d="M0 0 C14.52 0 29.04 0 44 0 C44 4.29 44 8.58 44 13 C29.48 13 14.96 13 0 13 C0 8.71 0 4.42 0 0 Z " fill="#FEFBFD" transform="translate(320,99)"></path><path d="M0 0 C4.29 0 8.58 0 13 0 C13 4.29 13 8.58 13 13 C8.71 13 4.42 13 0 13 C0 8.71 0 4.42 0 0 Z " fill="#FEFBFC" transform="translate(298,99)"></path></svg>