<svg version="1.1" xmlns="http://www.w3.org/2000/svg" width="16px" height="16px" fill="currentColor" viewBox="0 0 512 512"><path d="M0 0 C168.96 0 337.92 0 512 0 C512 168.96 512 337.92 512 512 C343.04 512 174.08 512 0 512 C0 343.04 0 174.08 0 0 Z " fill="#4053D6" transform="translate(0,0)"></path><path d="M0 0 C1.11826172 0.00966797 2.23652344 0.01933594 3.38867188 0.02929688 C5.13954102 0.06700195 5.13954102 0.06700195 6.92578125 0.10546875 C8.10462891 0.11900391 9.28347656 0.13253906 10.49804688 0.14648438 C13.41165258 0.1818723 16.32502389 0.23567964 19.23828125 0.29296875 C19.23828125 4.25296875 19.23828125 8.21296875 19.23828125 12.29296875 C14.28828125 12.29296875 9.33828125 12.29296875 4.23828125 12.29296875 C4.56828125 40.01296875 4.89828125 67.73296875 5.23828125 96.29296875 C24.70828125 96.29296875 44.17828125 96.29296875 64.23828125 96.29296875 C64.23828125 100.25296875 64.23828125 104.21296875 64.23828125 108.29296875 C45.75828125 108.29296875 27.27828125 108.29296875 8.23828125 108.29296875 C14.86893884 126.29046793 21.18095964 141.72282529 33.23828125 156.29296875 C33.92277344 157.14117187 34.60726562 157.989375 35.3125 158.86328125 C53.89571027 180.77841647 83.07278163 195.4135222 111.49902344 198.09008789 C144.03770446 200.50003833 175.3699772 193.1653108 200.63232422 171.69970703 C225.28641652 150.1039515 238.11291972 122.67705678 242.23828125 90.29296875 C242.56828125 83.69296875 242.89828125 77.09296875 243.23828125 70.29296875 C171.95828125 70.29296875 100.67828125 70.29296875 27.23828125 70.29296875 C27.23828125 66.00296875 27.23828125 61.71296875 27.23828125 57.29296875 C98.51828125 57.29296875 169.79828125 57.29296875 243.23828125 57.29296875 C243.23828125 42.44296875 243.23828125 27.59296875 243.23828125 12.29296875 C197.03828125 12.29296875 150.83828125 12.29296875 103.23828125 12.29296875 C103.23828125 8.33296875 103.23828125 4.37296875 103.23828125 0.29296875 C122.74401945 0.22357459 142.24972288 0.17001199 161.75555897 0.13753223 C170.81209829 0.12205167 179.86855958 0.10093949 188.92504883 0.06665039 C196.81705723 0.03678437 204.70900915 0.01740241 212.60107249 0.01070327 C216.78135366 0.00678624 220.9614732 -0.00244384 225.14170265 -0.02422142 C229.07410937 -0.04454248 233.00628744 -0.050874 236.93874168 -0.04635429 C238.38395809 -0.04718147 239.82918193 -0.05317329 241.27435303 -0.06464767 C243.24382534 -0.07952143 245.21341959 -0.07420925 247.18293762 -0.0677948 C248.28632382 -0.07056018 249.38971003 -0.07332556 250.52653217 -0.07617474 C253.23828125 0.29296875 253.23828125 0.29296875 255.09293079 1.58936501 C257.0948497 4.56703575 256.65301865 8.04964452 256.62646484 11.51782227 C256.63435028 12.77721115 256.63435028 12.77721115 256.64239502 14.06204224 C256.65563502 16.8488407 256.64683102 19.63507025 256.63671875 22.421875 C256.63874117 24.36986907 256.64165401 26.3178624 256.64541626 28.26585388 C256.64984735 32.36244873 256.64339382 36.45884781 256.62939453 40.55541992 C256.61247194 45.75629713 256.62202997 50.95670405 256.64011192 56.15756321 C256.65107478 60.19100835 256.64744402 64.22434654 256.63972855 68.25779533 C256.63775192 70.1715596 256.6400946 72.08533416 256.64716721 73.99908638 C256.75775771 112.40350898 244.07772337 147.28522173 217.2421875 175.34765625 C192.61362066 200.09875327 158.07720036 212.29784841 123.61328125 212.54296875 C94.4698784 212.33509854 65.99278538 202.63967365 43.23828125 184.29296875 C42.66029785 183.83696289 42.08231445 183.38095703 41.48681641 182.91113281 C25.70841385 170.37958061 10.39377244 153.87640823 4.23828125 134.29296875 C3.1802832 134.31391602 2.12228516 134.33486328 1.03222656 134.35644531 C-2.94858903 134.4296544 -6.92934706 134.47505779 -10.91064453 134.51269531 C-12.62331192 134.53262874 -14.33591289 134.5597858 -16.04833984 134.59472656 C-33.61291802 134.94375968 -47.10632478 131.6023192 -60.38671875 119.41796875 C-72.2824811 107.03357027 -77.27877205 90.86098769 -77.11376953 73.93945312 C-76.61580442 57.68861937 -70.28296921 44.65137468 -58.76171875 33.29296875 C-58.19710937 32.71804687 -57.6325 32.143125 -57.05078125 31.55078125 C-46.51378629 21.63058599 -33.69846661 18.94121315 -19.76171875 19.16796875 C-18.70082031 19.17699219 -17.63992187 19.18601563 -16.546875 19.1953125 C-13.95158237 19.21869351 -11.3567741 19.25146319 -8.76171875 19.29296875 C-8.81392578 17.61267578 -8.81392578 17.61267578 -8.8671875 15.8984375 C-8.89532714 14.42579624 -8.92262712 12.95313877 -8.94921875 11.48046875 C-8.97435547 10.74248047 -8.99949219 10.00449219 -9.02539062 9.24414062 C-9.09937386 3.7940421 -9.09937386 3.7940421 -7.60351562 1.57421875 C-5.00814984 -0.2312531 -3.14086433 -0.04783042 0 0 Z " fill="#FCFCFE" transform="translate(153.76171875,185.70703125)"></path><path d="M0 0 C1.82421875 0.94140625 1.82421875 0.94140625 2.87109375 3.2265625 C3.21914062 4.60134766 3.21914062 4.60134766 3.57421875 6.00390625 C3.8165625 6.92300781 4.05890625 7.84210938 4.30859375 8.7890625 C4.47875 9.49933594 4.64890625 10.20960938 4.82421875 10.94140625 C3.76203125 11.50988281 2.69984375 12.07835937 1.60546875 12.6640625 C-11.29385244 19.4719693 -11.29385244 19.4719693 -21.17578125 29.94140625 C-21.95924459 34.65868025 -22.00005956 39.41310965 -19.42578125 43.56640625 C-7.0175074 58.16236474 15.94263501 63.65200588 33.82421875 67.94140625 C34.56961914 68.12155273 35.31501953 68.30169922 36.08300781 68.48730469 C57.86909842 73.64692272 80.22109023 76.08848691 102.59375 76.109375 C103.87239426 76.1127034 105.15103851 76.1160318 106.46842957 76.11946106 C109.16182295 76.12539658 111.85518454 76.1273071 114.54858398 76.12670898 C117.25438199 76.12662829 119.96000864 76.13348905 122.66577148 76.1472168 C162.89144053 76.34808345 226.68479153 76.1730198 258.13671875 46.19140625 C261.3449086 42.72218258 262.71926629 39.85599198 263.26171875 35.12890625 C263.05737001 30.31338375 261.332725 27.17846134 257.82421875 23.94140625 C252.30624657 19.96766754 246.65943067 16.21315449 240.4453125 13.42578125 C237.82421875 11.94140625 237.82421875 11.94140625 236.828125 10.01953125 C236.82323146 7.41616935 237.51161886 5.96431514 238.76171875 3.69140625 C239.14199219 2.985 239.52226562 2.27859375 239.9140625 1.55078125 C240.21441406 1.0196875 240.51476562 0.48859375 240.82421875 -0.05859375 C252.01775465 1.47651974 263.45024902 9.78599464 270.82421875 17.94140625 C276.59141995 25.6220872 277.77318416 32.36243773 276.82421875 41.94140625 C273.23165516 53.33246154 261.94806109 61.62203426 251.83544922 66.953125 C229.92293311 77.72052791 204.88845302 83.53463935 180.82421875 86.94140625 C179.79055176 87.0909375 178.75688477 87.24046875 177.69189453 87.39453125 C136.09887292 93.10349798 91.15261409 92.36806859 49.82421875 84.94140625 C48.61209717 84.72895264 48.61209717 84.72895264 47.37548828 84.51220703 C17.51713478 79.20236032 -15.52712229 71.47916547 -33.98828125 45.37890625 C-36.48072054 38.16395042 -36.33634475 30.52311757 -33.11328125 23.56640625 C-27.51775419 13.91840833 -11.78339939 -0.31732673 0 0 Z " fill="#FAFBFE" transform="translate(158.17578125,345.05859375)"></path><path d="M0 0 C0.97646484 0.00322266 1.95292969 0.00644531 2.95898438 0.00976562 C3.96638672 0.01814453 4.97378906 0.02652344 6.01171875 0.03515625 C7.03845703 0.03966797 8.06519531 0.04417969 9.12304688 0.04882812 C11.64849757 0.06057441 14.1738278 0.0770006 16.69921875 0.09765625 C16.71134903 1.07792786 16.71134903 1.07792786 16.72372437 2.07800293 C16.81062996 8.95794213 16.91015654 15.83762116 17.01660156 22.71728516 C17.05458701 25.27550849 17.08948935 27.83377972 17.12109375 30.39208984 C17.21993894 55.16839043 17.21993894 55.16839043 21.82421875 79.41015625 C23.69921875 85.84948107 23.69921875 85.84948107 23.69921875 89.09765625 C19.44919909 89.19746703 15.1998228 89.26956137 10.94897461 89.31738281 C9.50679623 89.33734376 8.06469715 89.36452288 6.62280273 89.39941406 C-1.73963932 89.59651842 -8.92531762 89.58890761 -16.30078125 85.09765625 C-17.31140625 84.52015625 -18.32203125 83.94265625 -19.36328125 83.34765625 C-28.48774144 76.35870802 -35.28641903 67.65869567 -37.97265625 56.2421875 C-39.15589697 44.90279724 -39.67895928 33.43645191 -34.30078125 23.09765625 C-33.86507812 22.22753906 -33.429375 21.35742188 -32.98046875 20.4609375 C-27.76394741 10.92582062 -20.37358843 5.07419677 -10.30078125 1.09765625 C-6.80658064 0.26421434 -3.5875928 -0.02098007 0 0 Z " fill="#3B47CA" transform="translate(128.30078125,217.90234375)"></path><path d="M0 0 C1.07008804 -0.00619858 2.14017609 -0.01239716 3.24269104 -0.01878357 C5.50463959 -0.02588414 7.76664038 -0.02270366 10.02856445 -0.01000977 C13.48812193 0.00384305 16.94496841 -0.03019868 20.40429688 -0.06835938 C22.60286525 -0.06931069 24.801437 -0.06745109 27 -0.0625 C28.03346054 -0.07575821 29.06692108 -0.08901642 30.13169861 -0.10267639 C34.58708138 -0.04497445 37.33345085 0.1328134 41.21655273 2.42993164 C43.93933585 7.04648102 43.78339096 11.10585266 43.73046875 16.37890625 C43.73525238 17.4253833 43.74003601 18.47186035 43.7449646 19.55004883 C43.74836173 21.75896714 43.7391725 23.96793586 43.71826172 26.17675781 C43.69149521 29.55517835 43.71801768 32.93027639 43.75 36.30859375 C43.74669587 38.45703857 43.74028958 40.60548133 43.73046875 42.75390625 C43.7405899 43.76235596 43.75071106 44.77080566 43.76113892 45.80981445 C43.68797089 50.19447261 43.47235123 52.87811601 41.21655273 56.70288086 C36.52979002 59.47541902 32.3545093 59.26400521 27 59.1953125 C25.39343285 59.19893044 25.39343285 59.19893044 23.75440979 59.20262146 C21.49419444 59.20164347 19.233955 59.18826155 16.97387695 59.16333008 C13.51235764 59.12899009 10.05338669 59.14268296 6.59179688 59.16210938 C4.39452037 59.15521182 2.19725046 59.14554026 0 59.1328125 C-1.03548477 59.13777237 -2.07096954 59.14273224 -3.13783264 59.14784241 C-7.06410684 59.08338116 -10.05178581 59.01100642 -13.58374023 57.23022461 C-15.83495184 52.78765455 -15.50230254 48.28507634 -15.46484375 43.37890625 C-15.46867065 42.28425049 -15.47249756 41.18959473 -15.47644043 40.06176758 C-15.47916111 37.7485258 -15.47178909 35.43525333 -15.45507812 33.12207031 C-15.43367215 29.57938103 -15.45487601 26.03871989 -15.48046875 22.49609375 C-15.4778255 20.24869344 -15.47270059 18.00129438 -15.46484375 15.75390625 C-15.47294067 14.69341064 -15.4810376 13.63291504 -15.48937988 12.5402832 C-15.3993323 5.48550071 -15.3993323 5.48550071 -13.58374023 1.90258789 C-9.21100951 -0.30210628 -4.82732313 -0.0231224 0 0 Z " fill="#FBFBFE" transform="translate(200.93359375,146.43359375)"></path><path d="M0 0 C0.98790024 -0.00945648 1.97580048 -0.01891296 2.99363708 -0.02865601 C4.05929398 -0.02258331 5.12495087 -0.01651062 6.22290039 -0.01025391 C7.86700645 -0.01455917 7.86700645 -0.01455917 9.54432678 -0.01895142 C11.86354081 -0.02099393 14.182772 -0.01545105 16.50195312 -0.00292969 C20.05320796 0.01310526 23.60332194 -0.0027649 27.15454102 -0.02197266 C29.40649666 -0.01998996 31.65845159 -0.01614573 33.91040039 -0.01025391 C35.50584938 -0.01936295 35.50584938 -0.01936295 37.13352966 -0.02865601 C38.12458206 -0.01919952 39.11563446 -0.00974304 40.13671875 0 C41.00703232 0.00238678 41.87734589 0.00477356 42.77403259 0.00723267 C45.72012279 0.48298695 47.06380351 1.24003499 49.13305664 3.38818359 C49.64099121 5.65818787 49.64099121 5.65818787 49.65063477 8.34692383 C49.66324341 9.35484482 49.67585205 10.36276581 49.68884277 11.40122986 C49.68074585 12.48876053 49.67264893 13.5762912 49.66430664 14.69677734 C49.66813354 15.8150441 49.67196045 16.93331085 49.67590332 18.08546448 C49.67862682 20.45176086 49.67123519 22.81808712 49.65454102 25.18432617 C49.6331592 28.80830037 49.65431922 32.43028732 49.67993164 36.05419922 C49.67728805 38.35172964 49.67216243 40.64925883 49.66430664 42.94677734 C49.67240356 44.03228378 49.68050049 45.11779022 49.68884277 46.2361908 C49.67623413 47.24726395 49.66362549 48.2583371 49.65063477 49.30004883 C49.64586121 50.63216652 49.64586121 50.63216652 49.64099121 51.99119568 C48.95392994 55.23349823 47.76170231 56.41277178 45.13305664 58.38818359 C42.77403259 58.88938904 42.77403259 58.88938904 40.13671875 58.88989258 C39.14566635 58.89927353 38.15461395 58.90865448 37.13352966 58.9183197 C36.069897 58.90708572 35.00626434 58.89585175 33.91040039 58.88427734 C32.26485924 58.88646019 32.26485924 58.88646019 30.58607483 58.88868713 C28.2686192 58.88702805 25.95115257 58.87546581 23.63378906 58.85473633 C20.08033646 58.82576333 16.52837358 58.83413159 12.97485352 58.84716797 C10.7241952 58.84093124 8.47354161 58.83254082 6.22290039 58.82177734 C5.1572435 58.82471298 4.09158661 58.82764862 2.99363708 58.83067322 C1.51178673 58.81164696 1.51178673 58.81164696 0 58.79223633 C-0.86951797 58.78683334 -1.73903595 58.78143036 -2.63490295 58.77586365 C-4.86694336 58.38818359 -4.86694336 58.38818359 -6.64686584 57.17958069 C-8.27698332 54.78613628 -8.24753937 53.20851483 -8.25512695 50.32177734 C-8.26458344 49.29060791 -8.27403992 48.25943848 -8.28378296 47.19702148 C-8.27771027 46.08447998 -8.27163757 44.97193848 -8.26538086 43.82568359 C-8.26825104 42.68284912 -8.27112122 41.54001465 -8.27407837 40.36254883 C-8.27612093 37.94498194 -8.27057774 35.5273986 -8.25805664 33.10986328 C-8.24200657 29.40278275 -8.25789977 25.69679259 -8.27709961 21.98974609 C-8.27511721 19.64338951 -8.27127361 17.29703361 -8.26538086 14.95068359 C-8.27145355 13.83814209 -8.27752625 12.72560059 -8.28378296 11.5793457 C-8.27432648 10.54817627 -8.26487 9.51700684 -8.25512695 8.45458984 C-8.25274017 7.54652588 -8.25035339 6.63846191 -8.24789429 5.70288086 C-7.86694336 3.38818359 -7.86694336 3.38818359 -6.64686584 1.59579468 C-4.30937269 0.00989267 -2.81609156 0.00773002 0 0 Z " fill="#FBFCFE" transform="translate(283.866943359375,114.61181640625)"></path><path d="M0 0 C1.51672302 -0.01418472 1.51672302 -0.01418472 3.06408691 -0.02865601 C4.7000885 -0.01954697 4.7000885 -0.01954697 6.36914062 -0.01025391 C7.48977905 -0.01312408 8.61041748 -0.01599426 9.76501465 -0.01895142 C12.13550318 -0.02099387 14.5060085 -0.0154514 16.87646484 -0.00292969 C20.51112446 0.0131206 24.14467197 -0.00277309 27.77929688 -0.02197266 C30.08008059 -0.01999026 32.38086361 -0.01614665 34.68164062 -0.01025391 C35.77230835 -0.0163266 36.86297607 -0.02239929 37.98669434 -0.02865601 C38.99784302 -0.01919952 40.0089917 -0.00974304 41.05078125 0 C42.38622986 0.00358017 42.38622986 0.00358017 43.74865723 0.00723267 C46.02539062 0.38818359 46.02539062 0.38818359 47.81204224 1.60153198 C49.42029901 3.96968493 49.40592337 5.50892886 49.41357422 8.36279297 C49.4230307 9.37394165 49.43248718 10.38509033 49.44223022 11.42687988 C49.43615753 12.51754761 49.43008484 13.60821533 49.42382812 14.73193359 C49.4266983 15.85257202 49.42956848 16.97321045 49.43252563 18.12780762 C49.43456809 20.49829615 49.42902562 22.86880147 49.41650391 25.23925781 C49.40045362 28.87391743 49.41634731 32.50746494 49.43554688 36.14208984 C49.43356448 38.44287356 49.42972087 40.74365657 49.42382812 43.04443359 C49.43293716 44.68043518 49.43293716 44.68043518 49.44223022 46.3494873 C49.43277374 47.36063599 49.42331726 48.37178467 49.41357422 49.41357422 C49.41118744 50.30387329 49.40880066 51.19417236 49.40634155 52.1114502 C49.02539062 54.38818359 49.02539062 54.38818359 47.81204224 56.17483521 C45.44388929 57.78309198 43.90464536 57.76871634 41.05078125 57.77636719 C39.53405823 57.79055191 39.53405823 57.79055191 37.98669434 57.80502319 C36.89602661 57.7989505 35.80535889 57.79287781 34.68164062 57.78662109 C33.00068298 57.79092636 33.00068298 57.79092636 31.2857666 57.7953186 C28.91527807 57.79736106 26.54477275 57.79181859 24.17431641 57.77929688 C20.53965679 57.76324659 16.90610928 57.77914028 13.27148438 57.79833984 C10.97070066 57.79635745 8.66991764 57.79251384 6.36914062 57.78662109 C4.73313904 57.79573013 4.73313904 57.79573013 3.06408691 57.80502319 C2.05293823 57.79556671 1.04178955 57.78611023 0 57.77636719 C-0.89029907 57.77398041 -1.78059814 57.77159363 -2.69787598 57.76913452 C-4.97460938 57.38818359 -4.97460938 57.38818359 -6.76126099 56.17483521 C-8.36951776 53.80668226 -8.35514212 52.26743833 -8.36279297 49.41357422 C-8.37224945 48.40242554 -8.38170593 47.39127686 -8.39144897 46.3494873 C-8.38537628 45.25881958 -8.37930359 44.16815186 -8.37304688 43.04443359 C-8.37591705 41.92379517 -8.37878723 40.80315674 -8.38174438 39.64855957 C-8.38378684 37.27807104 -8.37824437 34.90756572 -8.36572266 32.53710938 C-8.34967237 28.90244976 -8.36556606 25.26890225 -8.38476562 21.63427734 C-8.38278323 19.33349363 -8.37893962 17.03271061 -8.37304688 14.73193359 C-8.37911957 13.64126587 -8.38519226 12.55059814 -8.39144897 11.42687988 C-8.38199249 10.4157312 -8.37253601 9.40458252 -8.36279297 8.36279297 C-8.36040619 7.4724939 -8.35801941 6.58219482 -8.3555603 5.66491699 C-7.97460938 3.38818359 -7.97460938 3.38818359 -6.76126099 1.60153198 C-4.39310804 -0.00672479 -2.85386411 0.00765085 0 0 Z " fill="#F9FAFE" transform="translate(206.974609375,76.61181640625)"></path><path d="M0 0 C42.24 0 84.48 0 128 0 C128 3.96 128 7.92 128 12 C85.76 12 43.52 12 0 12 C0 8.04 0 4.08 0 0 Z " fill="#FEFEFE" transform="translate(237,282)"></path><path d="M0 0 C10.56 0 21.12 0 32 0 C32 10.56 32 21.12 32 32 C21.44 32 10.88 32 0 32 C0 21.44 0 10.88 0 0 Z " fill="#4256D8" transform="translate(199,160)"></path><path d="M0 0 C10.56 0 21.12 0 32 0 C32 10.56 32 21.12 32 32 C21.44 32 10.88 32 0 32 C0 21.44 0 10.88 0 0 Z " fill="#4762E3" transform="translate(288,128)"></path><path d="M0 0 C10.23 0 20.46 0 31 0 C31 10.23 31 20.46 31 31 C20.77 31 10.54 31 0 31 C0 20.77 0 10.54 0 0 Z " fill="#435DDF" transform="translate(212,90)"></path></svg>