<svg version="1.1" xmlns="http://www.w3.org/2000/svg" width="16px" height="16px" fill="currentColor" viewBox="0 0 512 512"><path d="M0 0 C168.96 0 337.92 0 512 0 C512 168.96 512 337.92 512 512 C343.04 512 174.08 512 0 512 C0 343.04 0 174.08 0 0 Z " fill="#7646D3" transform="translate(0,0)"></path><path d="M0 0 C7.54764068 5.42736706 13.31697105 12.07005013 15.3125 21.3125 C16.71773919 32.38245308 16.01593875 42.00454046 9.3125 51.3125 C3.3667486 58.5915411 -3.35072614 63.41349515 -12.6875 65.3125 C-15.9875 65.3125 -19.2875 65.3125 -22.6875 65.3125 C-22.6875 98.9725 -22.6875 132.6325 -22.6875 167.3125 C-19.3875 167.3125 -16.0875 167.3125 -12.6875 167.3125 C-2.60804833 169.72333039 5.09418937 175.73589335 11.265625 183.89453125 C16.47189655 192.59192415 16.87226004 202.47100152 15.3125 212.3125 C12.66036377 220.98545077 7.62190351 228.16953007 -0.21484375 232.80859375 C-10.08917934 237.92700852 -21.43373283 239.55428235 -32.2265625 236.21875 C-44.00571579 230.61246945 -49.63633554 222.73952566 -54 210.6875 C-54.6875 207.3125 -54.6875 207.3125 -54.6875 199.3125 C-88.3475 199.3125 -122.0075 199.3125 -156.6875 199.3125 C-156.6875 201.9525 -156.6875 204.5925 -156.6875 207.3125 C-158.3304232 215.04390331 -161.31024195 221.51960848 -166.6875 227.3125 C-167.20054687 227.86679687 -167.71359375 228.42109375 -168.2421875 228.9921875 C-175.6954646 236.1601717 -184.8466028 237.91654437 -194.90600586 237.78515625 C-200.61667069 237.53356704 -204.90791145 236.39672347 -209.6875 233.3125 C-210.72970703 232.65894531 -210.72970703 232.65894531 -211.79296875 231.9921875 C-218.56806159 227.33987234 -223.92180749 221.12239559 -226.20703125 213.1171875 C-228.2173964 201.38188525 -227.66014137 191.31334865 -220.6875 181.3125 C-215.1676584 173.84034801 -206.57696421 169.53486605 -197.6875 167.3125 C-194.7175 167.3125 -191.7475 167.3125 -188.6875 167.3125 C-188.6875 133.6525 -188.6875 99.9925 -188.6875 65.3125 C-191.9875 65.3125 -195.2875 65.3125 -198.6875 65.3125 C-208.74939168 62.90586966 -216.57382103 56.89887605 -222.640625 48.66015625 C-228.01436931 39.50721326 -227.96141686 29.74886021 -226.20703125 19.5078125 C-223.81059093 11.11300943 -217.71402258 4.27067251 -210.6875 -0.6875 C-210.10097656 -1.10257813 -209.51445312 -1.51765625 -208.91015625 -1.9453125 C-201.25413953 -6.28119524 -191.17813455 -5.88313121 -182.6875 -4.6875 C-172.95955003 -1.74310445 -165.92536775 4.1755226 -160.875 12.875 C-157.03441185 20.37930711 -156.6875 24.27146728 -156.6875 33.3125 C-123.0275 33.3125 -89.3675 33.3125 -54.6875 33.3125 C-54.6875 30.3425 -54.6875 27.3725 -54.6875 24.3125 C-53.09104303 14.32764191 -47.48831928 7.23799778 -39.90625 0.8515625 C-27.57969018 -7.69890329 -12.62662122 -7.8675212 0 0 Z " fill="#FBFAFE" transform="translate(361.6875,139.6875)"></path><path d="M0 0 C14.53375967 -0.14015411 29.06741459 -0.24556381 43.60171127 -0.31087303 C50.35026385 -0.34181316 57.09839659 -0.38399525 63.84667969 -0.45263672 C70.35647258 -0.51882078 76.86599275 -0.55368463 83.37610626 -0.56926346 C85.86251959 -0.58036862 88.34890843 -0.60205408 90.83513641 -0.63438034 C94.31216978 -0.67780012 97.78738856 -0.68393979 101.26464844 -0.68115234 C102.29755005 -0.702724 103.33045166 -0.72429565 104.39465332 -0.746521 C107.06542164 -0.72328138 109.41103341 -0.6565956 112 0 C114.54156494 2.91244507 114.54156494 2.91244507 116 6 C118.01170372 8.08427174 118.01170372 8.08427174 120.125 9.8125 C120.80820312 10.39644531 121.49140625 10.98039063 122.1953125 11.58203125 C123.95090867 13.05918106 123.95090867 13.05918106 126 14 C126.14015411 28.53375967 126.24556381 43.06741459 126.31087303 57.60171127 C126.34181316 64.35026385 126.38399525 71.09839659 126.45263672 77.84667969 C126.51882078 84.35647258 126.55368463 90.86599275 126.56926346 97.37610626 C126.58036862 99.86251959 126.60205408 102.34890843 126.63438034 104.83513641 C126.67780012 108.31216978 126.68393979 111.78738856 126.68115234 115.26464844 C126.702724 116.29755005 126.72429565 117.33045166 126.746521 118.39465332 C126.72328138 121.06542164 126.6565956 123.41103341 126 126 C123.08755493 128.54156494 123.08755493 128.54156494 120 130 C117.91572826 132.01170372 117.91572826 132.01170372 116.1875 134.125 C115.60355469 134.80820312 115.01960937 135.49140625 114.41796875 136.1953125 C112.94081894 137.95090867 112.94081894 137.95090867 112 140 C97.46624033 140.14015411 82.93258541 140.24556381 68.39828873 140.31087303 C61.64973615 140.34181316 54.90160341 140.38399525 48.15332031 140.45263672 C41.64352742 140.51882078 35.13400725 140.55368463 28.62389374 140.56926346 C26.13748041 140.58036862 23.65109157 140.60205408 21.16486359 140.63438034 C17.68783022 140.67780012 14.21261144 140.68393979 10.73535156 140.68115234 C9.70244995 140.702724 8.66954834 140.72429565 7.60534668 140.746521 C4.93457836 140.72328138 2.58896659 140.6565956 0 140 C-2.54156494 137.08755493 -2.54156494 137.08755493 -4 134 C-6.01170372 131.91572826 -6.01170372 131.91572826 -8.125 130.1875 C-8.80820313 129.60355469 -9.49140625 129.01960937 -10.1953125 128.41796875 C-11.95090867 126.94081894 -11.95090867 126.94081894 -14 126 C-14.14015411 111.46624033 -14.24556381 96.93258541 -14.31087303 82.39828873 C-14.34181316 75.64973615 -14.38399525 68.90160341 -14.45263672 62.15332031 C-14.51882078 55.64352742 -14.55368463 49.13400725 -14.56926346 42.62389374 C-14.58036862 40.13748041 -14.60205408 37.65109157 -14.63438034 35.16486359 C-14.67780012 31.68783022 -14.68393979 28.21261144 -14.68115234 24.73535156 C-14.702724 23.70244995 -14.72429565 22.66954834 -14.746521 21.60534668 C-14.72328138 18.93457836 -14.6565956 16.58896659 -14 14 C-11.08755493 11.45843506 -11.08755493 11.45843506 -8 10 C-5.91572826 7.98829628 -5.91572826 7.98829628 -4.1875 5.875 C-3.60355469 5.19179687 -3.01960937 4.50859375 -2.41796875 3.8046875 C-0.94081894 2.04909133 -0.94081894 2.04909133 0 0 Z " fill="#7646D3" transform="translate(200,186)"></path><path d="M0 0 C5.71700538 4.75136274 10.97689423 9.84614587 16.21484375 15.1171875 C17.07058487 15.97434357 17.92632599 16.83149963 18.80799866 17.71463013 C21.52020465 20.43239954 24.2288983 23.15363891 26.9375 25.875 C28.78427369 27.72679342 30.63127653 29.57835834 32.47851562 31.4296875 C36.98833201 35.95048435 41.49527569 40.47412946 46 45 C49.48972003 43.50469676 51.73465395 41.50808338 54.40136719 38.82568359 C55.6922525 37.53457169 55.6922525 37.53457169 57.00921631 36.21737671 C57.92914368 35.28712677 58.84907104 34.35687683 59.796875 33.3984375 C60.75479097 32.43678914 61.71315114 31.47558306 62.67193604 30.51480103 C65.18835125 27.99076718 67.69870107 25.46078409 70.20782471 22.92950439 C72.77162441 20.3452081 75.34112918 17.76659801 77.91015625 15.1875 C82.94569457 10.13054303 87.9748456 5.06727744 93 0 C94.13199353 0.9080162 95.25532363 1.82683826 96.375 2.75 C97.00148438 3.26046875 97.62796875 3.7709375 98.2734375 4.296875 C100.08312318 6.08199481 101.00117455 7.67949644 102 10 C95.34141883 16.79760591 88.66675361 23.57888052 81.97099876 30.33987427 C78.86237656 33.47980813 75.75958004 36.62507631 72.66943359 39.78320312 C69.68700047 42.83083188 66.69014329 45.86356399 63.68272781 48.88653564 C62.53799354 50.04235567 61.39855339 51.20344399 60.26456833 52.36981201 C58.67494471 54.00299975 57.06750982 55.61642403 55.45458984 57.2265625 C54.5441391 58.15033691 53.63368835 59.07411133 52.69564819 60.02587891 C50 62 50 62 47 62.59667969 C42.96756213 61.7946551 41.42241802 60.14567292 38.54541016 57.2265625 C38.03734833 56.71937683 37.5292865 56.21219116 37.00582886 55.68963623 C35.33561708 54.0152554 33.68764381 52.32065948 32.0390625 50.625 C30.88310017 49.45784318 29.725803 48.29200702 28.56723022 47.12744141 C25.52561795 44.06295118 22.5024548 40.98087198 19.48278809 37.89477539 C16.39660547 34.74714896 13.29330722 31.61649879 10.19140625 28.484375 C4.11072621 22.33940047 -1.95056794 16.17573836 -8 10 C-5.95933017 5.73384496 -3.41446998 3.26601476 0 0 Z " fill="#FCFBFE" transform="translate(209,373)"></path><path d="M0 0 C3.74511128 1.56694164 6.16647754 3.88889739 9.04394531 6.72167969 C9.77633926 7.43917892 9.77633926 7.43917892 10.52352905 8.1711731 C12.13065274 9.74917799 13.72996972 11.33479069 15.328125 12.921875 C16.44341749 14.02565806 17.55871294 15.12943813 18.67401123 16.23321533 C21.00791182 18.54613403 23.33714276 20.86365353 25.6640625 23.18359375 C28.64563686 26.15418026 31.645316 29.1057512 34.64967728 32.05326462 C36.95885303 34.32519103 39.25450117 36.610425 41.54665375 38.89951324 C42.6469132 39.993722 43.75217017 41.08292947 44.8624649 42.16695404 C46.4140442 43.68440083 47.94555455 45.21968132 49.47363281 46.76074219 C50.34981262 47.62963074 51.22599243 48.49851929 52.12872314 49.39373779 C54 52 54 52 54.58123779 54.98654175 C53.79991167 59.03736861 52.15499504 60.56839432 49.2265625 63.45458984 C48.465784 64.21668259 48.465784 64.21668259 47.68963623 64.99417114 C46.0152554 66.66438292 44.32065948 68.31235619 42.625 69.9609375 C41.45784318 71.11689983 40.29200702 72.274197 39.12744141 73.43276978 C36.06295118 76.47438205 32.98087198 79.4975452 29.89477539 82.51721191 C26.74714896 85.60339453 23.61649879 88.70669278 20.484375 91.80859375 C14.33940047 97.88927379 8.17573836 103.95056794 2 110 C-2 108 -2 108 -8 101 C6.85 86.15 21.7 71.3 37 56 C35.1462535 52.29250701 33.70141537 50.45754745 30.82568359 47.59863281 C29.96494232 46.7380426 29.10420105 45.87745239 28.21737671 44.99078369 C27.28712677 44.07085632 26.35687683 43.15092896 25.3984375 42.203125 C24.43678914 41.24520903 23.47558306 40.28684886 22.51480103 39.32806396 C19.99076718 36.81164875 17.46078409 34.30129893 14.92950439 31.79217529 C12.3452081 29.22837559 9.76659801 26.65887082 7.1875 24.08984375 C2.13054303 19.05430543 -2.93272256 14.0251544 -8 9 C-7.04270084 7.87411986 -6.08412105 6.7493285 -5.125 5.625 C-4.59132813 4.99851563 -4.05765625 4.37203125 -3.5078125 3.7265625 C-2.38567993 2.44163349 -1.20628025 1.20628025 0 0 Z " fill="#FCFCFE" transform="translate(381,201)"></path><path d="M0 0 C4 2 4 2 10 9 C-4.85 23.85 -19.7 38.7 -35 54 C-33.1462535 57.70749299 -31.70141537 59.54245255 -28.82568359 62.40136719 C-27.53457169 63.6922525 -27.53457169 63.6922525 -26.21737671 65.00921631 C-25.28712677 65.92914368 -24.35687683 66.84907104 -23.3984375 67.796875 C-22.43678914 68.75479097 -21.47558306 69.71315114 -20.51480103 70.67193604 C-17.99076718 73.18835125 -15.46078409 75.69870107 -12.92950439 78.20782471 C-10.3452081 80.77162441 -7.76659801 83.34112918 -5.1875 85.91015625 C-0.13054303 90.94569457 4.93272256 95.9748456 10 101 C9.0919838 102.13199353 8.17316174 103.25532363 7.25 104.375 C6.73953125 105.00148438 6.2290625 105.62796875 5.703125 106.2734375 C3.91800519 108.08312318 2.32050356 109.00117455 0 110 C-6.79760591 103.34141883 -13.57888052 96.66675361 -20.33987427 89.97099876 C-23.47980813 86.86237656 -26.62507631 83.75958004 -29.78320312 80.66943359 C-32.83083188 77.68700047 -35.86356399 74.69014329 -38.88653564 71.68272781 C-40.04235567 70.53799354 -41.20344399 69.39855339 -42.36981201 68.26456833 C-44.00299975 66.67494471 -45.61642403 65.06750982 -47.2265625 63.45458984 C-48.15033691 62.5441391 -49.07411133 61.63368835 -50.02587891 60.69564819 C-52 58 -52 58 -52.59667969 55 C-51.7946551 50.96756213 -50.14567292 49.42241802 -47.2265625 46.54541016 C-46.71937683 46.03734833 -46.21219116 45.5292865 -45.68963623 45.00582886 C-44.0152554 43.33561708 -42.32065948 41.68764381 -40.625 40.0390625 C-39.45784318 38.88310017 -38.29200702 37.725803 -37.12744141 36.56723022 C-34.06295118 33.52561795 -30.98087198 30.5024548 -27.89477539 27.48278809 C-24.74714896 24.39660547 -21.61649879 21.29330722 -18.484375 18.19140625 C-12.33940047 12.11072621 -6.17573836 6.04943206 0 0 Z " fill="#FCFBFE" transform="translate(129,201)"></path><path d="M0 0 C4.03243787 0.80202459 5.57758198 2.45100677 8.45458984 5.37011719 C9.21668259 6.13089569 9.21668259 6.13089569 9.99417114 6.90704346 C11.66438292 8.58142429 13.31235619 10.27602021 14.9609375 11.97167969 C16.11689983 13.13883651 17.274197 14.30467267 18.43276978 15.46923828 C21.47438205 18.53372851 24.4975452 21.6158077 27.51721191 24.7019043 C30.60339453 27.84953072 33.70669278 30.9801809 36.80859375 34.11230469 C42.88927379 40.25727922 48.95056794 46.42094133 55 52.59667969 C53 56.59667969 53 56.59667969 46 62.59667969 C31.15 47.74667969 16.3 32.89667969 1 17.59667969 C-2.70749299 19.45042618 -4.54245255 20.89526431 -7.40136719 23.77099609 C-8.2619574 24.63173737 -9.12254761 25.49247864 -10.00921631 26.37930298 C-10.92914368 27.30955292 -11.84907104 28.23980286 -12.796875 29.19824219 C-13.75479097 30.15989055 -14.71315114 31.12109663 -15.67193604 32.08187866 C-18.18835125 34.6059125 -20.69870107 37.1358956 -23.20782471 39.66717529 C-25.77162441 42.25147159 -28.34112918 44.83008167 -30.91015625 47.40917969 C-35.94569457 52.46613666 -40.9748456 57.52940225 -46 62.59667969 C-47.13199353 61.68866349 -48.25532363 60.76984143 -49.375 59.84667969 C-50.31472656 59.08097656 -50.31472656 59.08097656 -51.2734375 58.29980469 C-53.08312318 56.51468488 -54.00117455 54.91718325 -55 52.59667969 C-48.34141883 45.79907378 -41.66675361 39.01779916 -34.97099876 32.25680542 C-31.86237656 29.11687156 -28.75958004 25.97160338 -25.66943359 22.81347656 C-22.68700047 19.7658478 -19.69014329 16.73311569 -16.68272781 13.71014404 C-15.53799354 12.55432401 -14.39855339 11.3932357 -13.26456833 10.22686768 C-11.67494471 8.59367994 -10.06750982 6.98025566 -8.45458984 5.37011719 C-7.5441391 4.44634277 -6.63368835 3.52256836 -5.69564819 2.57080078 C-3 0.59667969 -3 0.59667969 0 0 Z " fill="#FCFCFE" transform="translate(256,76.4033203125)"></path><path d="M0 0 C5.27811704 3.0517508 9.06296684 7.71272782 12.1875 12.875 C13.68113855 19.84531324 13.29523537 26.04937248 10.078125 32.4609375 C6.41236871 38.08895157 1.11837237 41.52360858 -5.25 43.5 C-12.53731513 44.72590348 -18.19096006 42.53228578 -24.25 38.5 C-28.85453026 34.49988302 -31.69472469 29.17335977 -32.60546875 23.1484375 C-32.9867752 16.49103307 -31.27862989 11.78063517 -27.25 6.5 C-19.99433119 -1.21844495 -10.14365943 -4.46874665 0 0 Z " fill="#6A3EC5" transform="translate(179.25,321.5)"></path><path d="M0 0 C5.14431806 3.36056026 9.00609562 8.57195843 11.0390625 14.33203125 C12.24082822 22.00997889 10.35365011 27.95098326 6.0390625 34.33203125 C2.11503834 38.83819086 -3.16944219 41.76156774 -9.08984375 42.65234375 C-15.98822361 43.01225922 -21.83881228 41.12707669 -27.01171875 36.49609375 C-32.59960574 30.45701091 -34.48698214 25.05407439 -34.265625 16.8515625 C-33.39429667 9.64634746 -29.40079005 5.17750422 -23.89453125 0.7421875 C-16.66943683 -4.52702277 -7.79468502 -3.89734251 0 0 Z " fill="#7848D4" transform="translate(353.9609375,322.66796875)"></path><path d="M0 0 C5.87698575 3.25267136 8.89405573 7.70991697 12.125 13.4375 C13.89456968 20.69273569 12.89874861 26.15964488 9.30859375 32.69921875 C5.83110732 37.83265111 1.62798081 41.04945928 -4.25 43 C-11.31124918 43.90772411 -17.47889553 43.35876667 -23.25 39 C-29.28159855 33.39752704 -32.20793601 28.41572656 -32.625 20.125 C-32.47127594 14.1026337 -30.76680592 9.68743683 -26.63671875 5.27734375 C-18.54894616 -2.02137785 -10.25332087 -4.57075749 0 0 Z " fill="#8653E2" transform="translate(352.25,149)"></path><path d="M0 0 C4.86721427 2.84118686 7.96141261 7.0216749 10.83984375 11.77734375 C12.32027481 18.68602205 11.97742469 24.92491261 8.8046875 31.29296875 C5.27178447 36.60708474 0.47279813 40.44324256 -5.59765625 42.40234375 C-12.66811638 43.31125193 -18.79698675 42.72740434 -24.59765625 38.40234375 C-30.0228651 33.42101563 -33.5980927 27.57015057 -34.09765625 20.08984375 C-33.86588267 13.92677368 -31.19720241 8.39467848 -27.17578125 3.765625 C-18.84362609 -3.69299777 -9.82441822 -4.25371575 0 0 Z " fill="#7848D4" transform="translate(180.59765625,149.59765625)"></path></svg>