<svg version="1.1" xmlns="http://www.w3.org/2000/svg" width="16px" height="16px" fill="currentColor" viewBox="0 0 512 512"><path d="M0 0 C168.96 0 337.92 0 512 0 C512 168.96 512 337.92 512 512 C343.04 512 174.08 512 0 512 C0 343.04 0 174.08 0 0 Z " fill="#7746D4" transform="translate(0,0)"></path><path d="M0 0 C6.69469148 4.08740517 10.72315057 10.27718156 13.546875 17.46484375 C14.30051486 21.68522698 14.34625983 25.69241536 14.171875 29.96484375 C20.71680531 29.70615085 24.8237482 29.03960703 30.171875 24.96484375 C38.30904809 22.27543909 47.43580139 23.71345049 55.171875 26.96484375 C61.4710683 30.79913533 64.25770735 37.04755122 66.171875 43.96484375 C67.15239503 55.50305617 66.70912111 65.48098882 59.296875 74.90234375 C56.24156604 78.45523159 52.60931396 80.64141334 47.91064453 81.26489258 C45.32405365 81.4036865 42.76194711 81.42329286 40.171875 81.40234375 C39.2953125 81.42232422 38.41875 81.44230469 37.515625 81.46289062 C31.2974611 81.45820827 27.66378634 80.45675509 23.171875 75.96484375 C20.531875 75.63484375 17.891875 75.30484375 15.171875 74.96484375 C15.171875 85.52484375 15.171875 96.08484375 15.171875 106.96484375 C44.541875 106.96484375 73.911875 106.96484375 104.171875 106.96484375 C104.501875 104.65484375 104.831875 102.34484375 105.171875 99.96484375 C106.84375 97.41796875 106.84375 97.41796875 108.921875 95.21484375 C109.93507813 94.10882813 109.93507813 94.10882813 110.96875 92.98046875 C115.44455827 88.88558033 118.70600173 87.58430784 124.79296875 87.56640625 C126.05818359 87.56253906 127.32339844 87.55867188 128.62695312 87.5546875 C129.94115234 87.56628906 131.25535156 87.57789063 132.609375 87.58984375 C134.57487305 87.57244141 134.57487305 87.57244141 136.58007812 87.5546875 C137.84658203 87.55855469 139.11308594 87.56242187 140.41796875 87.56640625 C141.56966553 87.56979004 142.7213623 87.57317383 143.90795898 87.57666016 C149.90732338 88.29017571 153.62642957 90.97015004 157.484375 95.46484375 C158.16113281 96.23828125 158.83789062 97.01171875 159.53515625 97.80859375 C162.53955754 101.76665941 162.3181153 105.58501737 162.31231689 110.33305359 C162.31677358 111.46774282 162.31677358 111.46774282 162.3213203 112.62535506 C162.33001275 115.16780968 162.33151602 117.71021724 162.33300781 120.25268555 C162.33763567 122.07263795 162.34266029 123.89258938 162.34805298 125.71253967 C162.36118377 130.66315415 162.36762349 135.61375505 162.37206364 140.56438422 C162.37499381 143.65753153 162.37909856 146.75067513 162.38356781 149.84382057 C162.39724573 159.52195013 162.40691044 169.20007121 162.4107697 178.87820977 C162.41524861 190.04902316 162.43278753 201.21971408 162.4617703 212.39049023 C162.48339456 221.02500175 162.49347441 229.65947883 162.49481082 238.29401714 C162.49585849 243.45081177 162.50175806 248.60749132 162.51963043 253.76425743 C162.5361235 258.61763073 162.53826057 263.4708026 162.52949142 268.32419395 C162.52872166 270.10271749 162.53305574 271.8812519 162.54294968 273.65974808 C162.55569402 276.09397559 162.54977918 278.52749241 162.53936768 280.9617157 C162.55145228 282.00926664 162.55145228 282.00926664 162.56378102 283.07798022 C162.50439275 289.04389247 161.17166357 294.51734132 157.33984375 299.20703125 C156.68628906 299.74585938 156.03273438 300.2846875 155.359375 300.83984375 C154.71355469 301.39414062 154.06773437 301.9484375 153.40234375 302.51953125 C146.96853342 306.6885502 140.21316174 306.33120006 132.796875 306.33984375 C131.69859375 306.36433594 130.6003125 306.38882812 129.46875 306.4140625 C121.66018722 306.44215086 116.12798354 305.37870575 110.1484375 300.21875 C106.38880504 295.51377643 104.171875 292.17960453 104.171875 285.96484375 C28.271875 285.96484375 -47.628125 285.96484375 -125.828125 285.96484375 C-126.158125 288.27484375 -126.488125 290.58484375 -126.828125 292.96484375 C-128.66905645 297.75668001 -131.4934266 301.17825192 -135.828125 303.96484375 C-142.13732561 306.4156937 -147.95201428 306.3323411 -154.640625 306.33984375 C-155.77822266 306.36433594 -156.91582031 306.38882812 -158.08789062 306.4140625 C-165.64872715 306.44023966 -172.55439921 305.78255587 -178.40917969 300.55249023 C-183.16050036 295.21024757 -184.12583458 290.2194089 -184.10227966 283.28019714 C-184.10751634 282.5138617 -184.11275302 281.74752626 -184.11814839 280.95796853 C-184.13313169 278.39404512 -184.13385317 275.83032158 -184.13452148 273.26635742 C-184.14214409 271.42640344 -184.15057176 269.58645264 -184.15974426 267.74650574 C-184.18168604 262.75055008 -184.19048773 257.75465562 -184.19557071 252.75865722 C-184.19921463 249.63634691 -184.20545487 246.51405263 -184.2125721 243.39174843 C-184.23706538 232.49610312 -184.25011825 221.60050541 -184.25366211 210.70483398 C-184.25729738 200.55336388 -184.28719253 190.40219612 -184.32906669 180.25081843 C-184.36377166 171.53133362 -184.37921059 162.81194901 -184.37990814 154.0923956 C-184.38070088 148.88636772 -184.38943808 143.68064783 -184.41790581 138.47469139 C-184.4440899 133.57685574 -184.44628966 128.6795834 -184.43025017 123.78170967 C-184.42843596 121.98705186 -184.43512385 120.19236163 -184.45106888 118.39777374 C-184.59759373 100.83168531 -184.59759373 100.83168531 -178.828125 94.96484375 C-171.36321808 87.59000213 -165.21512625 87.5737964 -155.078125 87.52734375 C-153.82773438 87.49447266 -152.57734375 87.46160156 -151.2890625 87.42773438 C-143.83550398 87.38439973 -138.49547677 87.86187556 -132.828125 92.96484375 C-128.56006892 97.2439391 -125.828125 100.84036955 -125.828125 106.96484375 C-96.458125 106.96484375 -67.088125 106.96484375 -36.828125 106.96484375 C-36.828125 96.40484375 -36.828125 85.84484375 -36.828125 74.96484375 C-41.778125 74.96484375 -46.728125 74.96484375 -51.828125 74.96484375 C-52.158125 75.95484375 -52.488125 76.94484375 -52.828125 77.96484375 C-59.76128461 82.06171079 -67.3242424 83.19800361 -75.19921875 81.43359375 C-80.81204477 79.69200861 -86.09131909 77.82657273 -89.26953125 72.58984375 C-94.2600954 62.80776929 -95.95314202 51.55185429 -92.578125 40.83984375 C-89.39287171 33.13971308 -84.99934176 29.01928859 -77.828125 24.96484375 C-71.0217267 22.69604432 -63.13069461 22.99477267 -56.578125 25.90234375 C-53.14039266 27.65257609 -53.14039266 27.65257609 -51.828125 28.96484375 C-49.13576724 29.20163091 -46.46314344 29.386824 -43.765625 29.52734375 C-43.00701172 29.57052734 -42.24839844 29.61371094 -41.46679688 29.65820312 C-39.58747062 29.76458008 -37.70782256 29.86524309 -35.828125 29.96484375 C-35.910625 28.70671875 -35.993125 27.44859375 -36.078125 26.15234375 C-36.05249718 18.01551025 -33.14423146 10.24724618 -27.42578125 4.40234375 C-19.96531011 -2.3102562 -9.47492739 -3.46803282 0 0 Z " fill="#FCFCFE" transform="translate(266.828125,104.03515625)"></path><path d="M0 0 C75.9 0 151.8 0 230 0 C230 29.7 230 59.4 230 90 C154.1 90 78.2 90 0 90 C0 60.3 0 30.6 0 0 Z " fill="#7344D0" transform="translate(141,256)"></path><path d="M0 0 C75.9 0 151.8 0 230 0 C230 6.6 230 13.2 230 20 C154.1 20 78.2 20 0 20 C0 13.4 0 6.8 0 0 Z " fill="#7346CC" transform="translate(141,358)"></path><path d="M0 0 C75.9 0 151.8 0 230 0 C230 6.27 230 12.54 230 19 C154.1 19 78.2 19 0 19 C0 12.73 0 6.46 0 0 Z " fill="#7847D5" transform="translate(141,224)"></path><path d="M0 0 C10.56 0 21.12 0 32 0 C32 40.26 32 80.52 32 122 C21.44 122 10.88 122 0 122 C0 81.74 0 41.48 0 0 Z " fill="#7F4CDB" transform="translate(384,243)"></path><path d="M0 0 C10.56 0 21.12 0 32 0 C32 40.26 32 80.52 32 122 C21.44 122 10.88 122 0 122 C0 81.74 0 41.48 0 0 Z " fill="#673AC3" transform="translate(96,243)"></path><path d="M0 0 C0.94746094 -0.03996094 1.89492187 -0.07992187 2.87109375 -0.12109375 C4.20333984 0.15541016 4.20333984 0.15541016 5.5625 0.4375 C6.10079437 1.26198639 6.63908875 2.08647278 7.19369507 2.9359436 C9.44160083 5.81910746 9.44160083 5.81910746 13.40884399 6.04550171 C14.99074855 6.06301282 16.57310433 6.05284615 18.15478516 6.02099609 C19.02022446 6.02333252 19.88566376 6.02566895 20.77732849 6.02807617 C23.63602146 6.02969026 26.4930986 5.99566618 29.3515625 5.9609375 C31.33645037 5.95414877 33.3213463 5.94942616 35.3062439 5.94668579 C39.46416631 5.93600755 43.62155122 5.90930497 47.77929688 5.86962891 C53.11723342 5.81869537 58.45486131 5.79361064 63.7930088 5.77869225 C68.87506978 5.76392313 73.95705773 5.73868414 79.0390625 5.7109375 C80.01315693 5.70602673 80.98725136 5.70111595 81.9908638 5.69605637 C84.73699198 5.67982707 87.48295343 5.65642388 90.22900391 5.63037109 C91.0477449 5.62611115 91.8664859 5.6218512 92.71003723 5.61746216 C96.76775784 5.66454702 96.76775784 5.66454702 100.5625 4.4375 C101.69600534 2.42080173 101.69600534 2.42080173 102.5625 0.4375 C114.62287996 -0.13278066 114.62287996 -0.13278066 118.5625 3.4375 C121.66027429 7.59305088 121.96849528 10.74528063 121.9375 15.875 C121.94523438 17.15246094 121.95296875 18.42992187 121.9609375 19.74609375 C121.43978519 24.57441666 120.1206991 28.02095537 116.5 31.3125 C112.18479308 32.96513244 108.11648507 33.29281699 103.5625 32.4375 C101.0625 30 101.0625 30 99.5625 27.4375 C96.37805041 25.84527521 92.92779279 26.25431437 89.4284668 26.22875977 C88.58764557 26.21897598 87.74682434 26.2091922 86.88052368 26.19911194 C84.09093822 26.16913535 81.30140074 26.14776705 78.51171875 26.12890625 C77.08408172 26.11904851 77.08408172 26.11904851 75.62760353 26.10899162 C70.59037385 26.07638903 65.55316543 26.05193966 60.51586914 26.0324707 C56.34368182 26.01464849 52.17216923 25.97981513 48.00024414 25.92993164 C42.96634924 25.86980792 37.93308064 25.83900581 32.89884377 25.82929802 C30.97984344 25.82072918 29.06086048 25.80187596 27.14206505 25.7725544 C24.45553758 25.73370956 21.77145763 25.73259543 19.0847168 25.74047852 C18.29232101 25.72047791 17.49992523 25.70047729 16.68351746 25.67987061 C13.71552568 25.7189584 11.3147796 25.77442882 9.02155495 27.79571342 C7.81163043 29.29889478 6.68222718 30.86597763 5.5625 32.4375 C0.77542323 33.65490314 -3.96014764 33.04050096 -8.5 31.1875 C-11.72427152 28.27525475 -12.37122228 26.15653615 -12.7734375 21.79296875 C-12.80315813 20.40390274 -12.81553219 19.01438062 -12.8125 17.625 C-12.81161377 16.90812012 -12.81072754 16.19124023 -12.80981445 15.45263672 C-12.68470828 9.89589051 -11.97391045 6.68119254 -8.4375 2.4375 C-5.15189849 0.247099 -3.8511285 0.088832 0 0 Z " fill="#804EDB" transform="translate(198.4375,140.5625)"></path><path d="M0 0 C8.58 0 17.16 0 26 0 C26 10.56 26 21.12 26 32 C17.42 32 8.84 32 0 32 C0 21.44 0 10.88 0 0 Z " fill="#7E4ED9" transform="translate(243,179)"></path><path d="M0 0 C1.051875 -0.00515625 2.10375 -0.0103125 3.1875 -0.015625 C4.280625 -0.00015625 5.37375 0.0153125 6.5 0.03125 C8.1396875 0.00804687 8.1396875 0.00804687 9.8125 -0.015625 C10.864375 -0.01046875 11.91625 -0.0053125 13 0 C14.43859375 0.00676758 14.43859375 0.00676758 15.90625 0.01367188 C19.28606918 0.68810868 20.46778359 1.77636279 22.5 4.53125 C22.95410156 6.91308594 22.95410156 6.91308594 22.890625 9.515625 C22.88063477 10.35834961 22.87064453 11.20107422 22.86035156 12.06933594 C22.80572754 13.6592334 22.80572754 13.6592334 22.75 15.28125 C22.6675 18.66375 22.585 22.04625 22.5 25.53125 C11.94 25.53125 1.38 25.53125 -9.5 25.53125 C-9.5825 22.14875 -9.665 18.76625 -9.75 15.28125 C-9.78641602 14.22131836 -9.82283203 13.16138672 -9.86035156 12.06933594 C-9.8703418 11.22661133 -9.88033203 10.38388672 -9.890625 9.515625 C-9.91157227 8.65678711 -9.93251953 7.79794922 -9.95410156 6.91308594 C-8.89378229 1.35154036 -5.19833157 0.02445452 0 0 Z " fill="#8651E2" transform="translate(393.5,204.46875)"></path><path d="M0 0 C1.051875 -0.00515625 2.10375 -0.0103125 3.1875 -0.015625 C4.280625 -0.00015625 5.37375 0.0153125 6.5 0.03125 C8.1396875 0.00804687 8.1396875 0.00804687 9.8125 -0.015625 C10.864375 -0.01046875 11.91625 -0.0053125 13 0 C14.43859375 0.00676758 14.43859375 0.00676758 15.90625 0.01367188 C19.28606918 0.68810868 20.46778359 1.77636279 22.5 4.53125 C22.95410156 6.91308594 22.95410156 6.91308594 22.890625 9.515625 C22.88063477 10.35834961 22.87064453 11.20107422 22.86035156 12.06933594 C22.80572754 13.6592334 22.80572754 13.6592334 22.75 15.28125 C22.6675 18.66375 22.585 22.04625 22.5 25.53125 C11.94 25.53125 1.38 25.53125 -9.5 25.53125 C-9.5825 22.14875 -9.665 18.76625 -9.75 15.28125 C-9.78641602 14.22131836 -9.82283203 13.16138672 -9.86035156 12.06933594 C-9.8703418 11.22661133 -9.88033203 10.38388672 -9.890625 9.515625 C-9.91157227 8.65678711 -9.93251953 7.79794922 -9.95410156 6.91308594 C-8.89378229 1.35154036 -5.19833157 0.02445452 0 0 Z " fill="#6E3FCA" transform="translate(105.5,204.46875)"></path><path d="M0 0 C10.56 0 21.12 0 32 0 C32 4.95 32 9.9 32 15 C27.49224713 19.50775287 27.49224713 19.50775287 22.24609375 19.53125 C21.14458984 19.53640625 20.04308594 19.5415625 18.90820312 19.546875 C17.76287109 19.53140625 16.61753906 19.5159375 15.4375 19.5 C14.28830078 19.51546875 13.13910156 19.5309375 11.95507812 19.546875 C10.30475586 19.53914063 10.30475586 19.53914063 8.62109375 19.53125 C7.6148999 19.52673828 6.60870605 19.52222656 5.57202148 19.51757812 C3 19 3 19 0 15 C0 10.05 0 5.1 0 0 Z " fill="#6237BC" transform="translate(96,378)"></path><path d="M0 0 C10.56 0 21.12 0 32 0 C32 14 32 14 30.1875 17.3359375 C25.46059258 19.80366123 21.25733969 19.72822002 16 19.625 C14.52273438 19.65400391 14.52273438 19.65400391 13.015625 19.68359375 C8.66393316 19.65419043 5.70260588 19.3668016 1.8125 17.3359375 C0 14 0 14 0 0 Z " fill="#7948D4" transform="translate(384,378)"></path><path d="M0 0 C3.2659032 2.66428945 4.69027671 5.06887615 6.375 8.9375 C6.375 11.9075 6.375 14.8775 6.375 17.9375 C-1.545 17.9375 -9.465 17.9375 -17.625 17.9375 C-17.625 7.75978916 -17.625 7.75978916 -15.375 4.5 C-14.95734375 3.86191406 -14.5396875 3.22382812 -14.109375 2.56640625 C-10.18953293 -1.73510465 -5.26784985 -2.13222494 0 0 Z " fill="#8351DE" transform="translate(261.625,116.0625)"></path></svg>