<svg version="1.1" xmlns="http://www.w3.org/2000/svg" width="16px" height="16px" fill="currentColor" viewBox="0 0 512 512"><path d="M0 0 C168.96 0 337.92 0 512 0 C512 168.96 512 337.92 512 512 C343.04 512 174.08 512 0 512 C0 343.04 0 174.08 0 0 Z " fill="#2D8F7A" transform="translate(0,0)"></path><path d="M0 0 C1.96567678 -0.00913666 1.96567678 -0.00913666 3.97106421 -0.01845789 C7.59784298 -0.03483138 11.22440401 -0.03254483 14.85120678 -0.02708292 C18.76679324 -0.02440952 22.68232207 -0.03895031 26.59788513 -0.05117798 C34.26484548 -0.07222089 41.93173019 -0.07677349 49.59871601 -0.07499009 C55.83131912 -0.07368192 62.06389866 -0.0774894 68.29649734 -0.08491516 C70.09251296 -0.08701438 71.88852858 -0.08911198 73.68454421 -0.09120798 C74.5785005 -0.09225151 75.47245679 -0.09329504 76.39350267 -0.09437019 C93.29633745 -0.11326787 110.19912882 -0.11222377 127.10196979 -0.10540086 C142.56021086 -0.09982539 158.01828619 -0.1206518 173.47648852 -0.15376133 C189.35457211 -0.18750585 205.23257632 -0.20266573 221.11069643 -0.1980443 C230.02281698 -0.19580043 238.93478434 -0.20103081 247.84687424 -0.22593689 C255.43397934 -0.24695983 263.02084724 -0.25053218 270.60796212 -0.2316373 C274.47754378 -0.2224856 278.3466833 -0.22131857 282.21623039 -0.24199295 C286.41476099 -0.26417661 290.61225166 -0.24747123 294.81079102 -0.22705078 C296.02879501 -0.23956863 297.246799 -0.25208648 298.5017122 -0.26498365 C307.12551785 -0.17503011 312.88400372 1.73774436 319.3722229 7.45690918 C319.89944946 8.09628418 320.42667603 8.73565918 320.96987915 9.39440918 C321.78778931 10.35347168 321.78778931 10.35347168 322.6222229 11.33190918 C325.43196103 15.44144306 326.28248313 19.05486736 326.29244137 23.99489117 C326.30303975 25.67782852 326.30303975 25.67782852 326.31385225 27.3947646 C326.31143717 28.6223736 326.30902208 29.8499826 326.30653381 31.11479187 C326.31177049 32.42282864 326.31700717 33.73086542 326.32240254 35.07853967 C326.33658001 38.70786259 326.33824588 42.33709987 326.33780563 45.96644652 C326.33945408 49.88139658 326.35252118 53.79631138 326.36399841 57.71124268 C326.38684605 66.27126189 326.39476886 74.8312563 326.39982486 83.39130187 C326.40308234 88.73748312 326.40960516 94.08365718 326.41682625 99.42983437 C326.43639236 114.23540484 326.45279634 129.04096862 326.45570278 143.84655285 C326.45589035 144.79396483 326.45607792 145.74137682 326.45627118 146.71749826 C326.45663742 148.63809287 326.45700112 150.55868749 326.45736229 152.4792821 C326.4575451 153.43265343 326.45772791 154.38602476 326.45791626 155.36828613 C326.45818708 156.80009123 326.45818708 156.80009123 326.45846338 158.26082168 C326.46200441 173.72497523 326.48902232 189.18898948 326.52641415 204.65309473 C326.56450728 220.53450305 326.58386033 236.41584228 326.58416229 252.2972973 C326.58474666 261.21228241 326.59322515 270.12710137 326.62215996 279.04204369 C326.64668738 286.63391652 326.65394764 294.22556261 326.63891243 301.81746437 C326.63174886 305.68918838 326.6325765 309.56046477 326.65532303 313.43213844 C326.67977691 317.63478979 326.66526188 321.83642514 326.64710999 326.03910828 C326.66030995 327.25556367 326.67350992 328.47201906 326.68710989 329.72533673 C326.60477853 338.07718688 325.06567953 345.00426193 319.27696794 351.30513066 C311.69393379 358.45362027 304.11326422 358.83258214 294.10945129 358.78881836 C292.15095819 358.79795501 292.15095819 358.79795501 290.15289956 358.80727625 C286.53945274 358.82364932 282.92622447 358.82136327 279.31275356 358.81590128 C275.41146294 358.8132278 271.51023015 358.82776888 267.60896301 358.83999634 C259.96974108 358.86103951 252.33059506 358.86559181 244.69134756 358.86380845 C238.48068283 358.8625002 232.27004176 358.8663082 226.05938148 358.87373352 C224.26956012 358.87583275 222.47973875 358.87793035 220.68991739 358.88002634 C219.35359166 358.88159163 219.35359166 358.88159163 217.99026946 358.88318855 C201.14510839 358.90208662 184.29999087 358.90104212 167.45482359 358.89421922 C152.0522233 358.88864477 136.6497894 358.90946576 121.24722799 358.94257969 C105.42451013 358.97633234 89.60187193 358.99148301 73.77911741 358.98686266 C64.89882282 358.98461947 56.01868199 358.989839 47.1384182 359.01475525 C39.57769185 359.03578879 32.01720355 359.03934013 24.45646735 359.02045566 C20.60093809 359.01131016 16.74585243 359.0101178 12.89035797 359.03081131 C8.70531387 359.0530246 4.5213111 359.03627416 0.33625793 359.01586914 C-0.87494227 359.02838699 -2.08614247 359.04090484 -3.33404571 359.05380201 C-11.66917501 358.96674481 -18.59067979 357.41509393 -24.8785432 351.63902426 C-32.02652656 344.05540634 -32.40579514 336.47559853 -32.36203003 326.47148132 C-32.36812113 325.16581925 -32.37421224 323.86015718 -32.38048792 322.51492959 C-32.39686099 318.90148277 -32.39457494 315.2882545 -32.38911295 311.67478359 C-32.38643947 307.77349297 -32.40098055 303.87226018 -32.41320801 299.97099304 C-32.43425118 292.33177111 -32.43880348 284.69262509 -32.43702012 277.05337759 C-32.43571187 270.84271286 -32.43951987 264.63207179 -32.44694519 258.42141151 C-32.44904442 256.63159015 -32.45114202 254.84176878 -32.45323801 253.05194741 C-32.45428154 252.1610636 -32.45532507 251.27017978 -32.45640022 250.35229949 C-32.47529829 233.50713842 -32.47425379 216.6620209 -32.46743089 199.81685362 C-32.46185644 184.41425333 -32.48267743 169.01181943 -32.51579136 153.60925802 C-32.54954401 137.78654016 -32.56469468 121.96390196 -32.56007433 106.14114743 C-32.55783114 97.26085285 -32.56305067 88.38071202 -32.58796692 79.50044823 C-32.60900046 71.93972188 -32.6125518 64.37923358 -32.59366733 56.81849738 C-32.58452183 52.96296812 -32.58332947 49.10788246 -32.60402298 45.252388 C-32.62623627 41.0673439 -32.60948583 36.88334113 -32.58908081 32.69828796 C-32.60159866 31.48708776 -32.61411651 30.27588756 -32.62701368 29.02798432 C-32.53995648 20.69285502 -30.9883056 13.77135024 -25.21223593 7.48348683 C-17.615684 0.32331244 -10.0206781 -0.04367357 0 0 Z " fill="#2D8F7A" transform="translate(108.96762084960938,76.6055908203125)"></path><path d="M0 0 C1.96567678 -0.00913666 1.96567678 -0.00913666 3.97106421 -0.01845789 C7.59784298 -0.03483138 11.22440401 -0.03254483 14.85120678 -0.02708292 C18.76679324 -0.02440952 22.68232207 -0.03895031 26.59788513 -0.05117798 C34.26484548 -0.07222089 41.93173019 -0.07677349 49.59871601 -0.07499009 C55.83131912 -0.07368192 62.06389866 -0.0774894 68.29649734 -0.08491516 C70.09251296 -0.08701438 71.88852858 -0.08911198 73.68454421 -0.09120798 C74.5785005 -0.09225151 75.47245679 -0.09329504 76.39350267 -0.09437019 C93.29633745 -0.11326787 110.19912882 -0.11222377 127.10196979 -0.10540086 C142.56021086 -0.09982539 158.01828619 -0.1206518 173.47648852 -0.15376133 C189.35457211 -0.18750585 205.23257632 -0.20266573 221.11069643 -0.1980443 C230.02281698 -0.19580043 238.93478434 -0.20103081 247.84687424 -0.22593689 C255.43397934 -0.24695983 263.02084724 -0.25053218 270.60796212 -0.2316373 C274.47754378 -0.2224856 278.3466833 -0.22131857 282.21623039 -0.24199295 C286.41476099 -0.26417661 290.61225166 -0.24747123 294.81079102 -0.22705078 C296.02879501 -0.23956863 297.246799 -0.25208648 298.5017122 -0.26498365 C307.12551785 -0.17503011 312.88400372 1.73774436 319.3722229 7.45690918 C319.89944946 8.09628418 320.42667603 8.73565918 320.96987915 9.39440918 C321.78778931 10.35347168 321.78778931 10.35347168 322.6222229 11.33190918 C325.43196103 15.44144306 326.28248313 19.05486736 326.29244137 23.99489117 C326.30303975 25.67782852 326.30303975 25.67782852 326.31385225 27.3947646 C326.31143717 28.6223736 326.30902208 29.8499826 326.30653381 31.11479187 C326.31177049 32.42282864 326.31700717 33.73086542 326.32240254 35.07853967 C326.33658001 38.70786259 326.33824588 42.33709987 326.33780563 45.96644652 C326.33945408 49.88139658 326.35252118 53.79631138 326.36399841 57.71124268 C326.38684605 66.27126189 326.39476886 74.8312563 326.39982486 83.39130187 C326.40308234 88.73748312 326.40960516 94.08365718 326.41682625 99.42983437 C326.43639236 114.23540484 326.45279634 129.04096862 326.45570278 143.84655285 C326.45589035 144.79396483 326.45607792 145.74137682 326.45627118 146.71749826 C326.45663742 148.63809287 326.45700112 150.55868749 326.45736229 152.4792821 C326.4575451 153.43265343 326.45772791 154.38602476 326.45791626 155.36828613 C326.45818708 156.80009123 326.45818708 156.80009123 326.45846338 158.26082168 C326.46200441 173.72497523 326.48902232 189.18898948 326.52641415 204.65309473 C326.56450728 220.53450305 326.58386033 236.41584228 326.58416229 252.2972973 C326.58474666 261.21228241 326.59322515 270.12710137 326.62215996 279.04204369 C326.64668738 286.63391652 326.65394764 294.22556261 326.63891243 301.81746437 C326.63174886 305.68918838 326.6325765 309.56046477 326.65532303 313.43213844 C326.67977691 317.63478979 326.66526188 321.83642514 326.64710999 326.03910828 C326.66030995 327.25556367 326.67350992 328.47201906 326.68710989 329.72533673 C326.60477853 338.07718688 325.06567953 345.00426193 319.27696794 351.30513066 C311.69393379 358.45362027 304.11326422 358.83258214 294.10945129 358.78881836 C292.15095819 358.79795501 292.15095819 358.79795501 290.15289956 358.80727625 C286.53945274 358.82364932 282.92622447 358.82136327 279.31275356 358.81590128 C275.41146294 358.8132278 271.51023015 358.82776888 267.60896301 358.83999634 C259.96974108 358.86103951 252.33059506 358.86559181 244.69134756 358.86380845 C238.48068283 358.8625002 232.27004176 358.8663082 226.05938148 358.87373352 C224.26956012 358.87583275 222.47973875 358.87793035 220.68991739 358.88002634 C219.35359166 358.88159163 219.35359166 358.88159163 217.99026946 358.88318855 C201.14510839 358.90208662 184.29999087 358.90104212 167.45482359 358.89421922 C152.0522233 358.88864477 136.6497894 358.90946576 121.24722799 358.94257969 C105.42451013 358.97633234 89.60187193 358.99148301 73.77911741 358.98686266 C64.89882282 358.98461947 56.01868199 358.989839 47.1384182 359.01475525 C39.57769185 359.03578879 32.01720355 359.03934013 24.45646735 359.02045566 C20.60093809 359.01131016 16.74585243 359.0101178 12.89035797 359.03081131 C8.70531387 359.0530246 4.5213111 359.03627416 0.33625793 359.01586914 C-0.87494227 359.02838699 -2.08614247 359.04090484 -3.33404571 359.05380201 C-11.66917501 358.96674481 -18.59067979 357.41509393 -24.8785432 351.63902426 C-32.02652656 344.05540634 -32.40579514 336.47559853 -32.36203003 326.47148132 C-32.36812113 325.16581925 -32.37421224 323.86015718 -32.38048792 322.51492959 C-32.39686099 318.90148277 -32.39457494 315.2882545 -32.38911295 311.67478359 C-32.38643947 307.77349297 -32.40098055 303.87226018 -32.41320801 299.97099304 C-32.43425118 292.33177111 -32.43880348 284.69262509 -32.43702012 277.05337759 C-32.43571187 270.84271286 -32.43951987 264.63207179 -32.44694519 258.42141151 C-32.44904442 256.63159015 -32.45114202 254.84176878 -32.45323801 253.05194741 C-32.45428154 252.1610636 -32.45532507 251.27017978 -32.45640022 250.35229949 C-32.47529829 233.50713842 -32.47425379 216.6620209 -32.46743089 199.81685362 C-32.46185644 184.41425333 -32.48267743 169.01181943 -32.51579136 153.60925802 C-32.54954401 137.78654016 -32.56469468 121.96390196 -32.56007433 106.14114743 C-32.55783114 97.26085285 -32.56305067 88.38071202 -32.58796692 79.50044823 C-32.60900046 71.93972188 -32.6125518 64.37923358 -32.59366733 56.81849738 C-32.58452183 52.96296812 -32.58332947 49.10788246 -32.60402298 45.252388 C-32.62623627 41.0673439 -32.60948583 36.88334113 -32.58908081 32.69828796 C-32.60159866 31.48708776 -32.61411651 30.27588756 -32.62701368 29.02798432 C-32.53995648 20.69285502 -30.9883056 13.77135024 -25.21223593 7.48348683 C-17.615684 0.32331244 -10.0206781 -0.04367357 0 0 Z M-16.96762085 17.39440918 C-19.40093895 21.04438634 -19.21465491 22.74621086 -19.20812988 27.09513855 C-19.20983873 27.77965507 -19.21154758 28.46417159 -19.21330822 29.16943103 C-19.21660815 31.46808095 -19.20559133 33.76644035 -19.19467163 36.06506348 C-19.19410762 37.71080519 -19.19442387 39.3565474 -19.19555664 41.00228882 C-19.19613157 45.47515291 -19.18435461 49.9479102 -19.17040873 54.42074943 C-19.15792469 59.09326371 -19.15673271 63.76578032 -19.15435791 68.43830872 C-19.14813629 77.2886827 -19.13171625 86.13900741 -19.11165893 94.98935968 C-19.08932114 105.06420042 -19.07831184 115.13904349 -19.06826806 125.21390283 C-19.04735061 145.94076581 -19.01216139 166.66758439 -18.96762085 187.39440918 C-16.04992991 184.50992773 -13.36187348 181.72554327 -10.96762085 178.39440918 C8.73192285 152.82329522 39.17983162 136.01599732 71.14175415 131.82409668 C83.52868246 130.54789927 96.70811187 130.09193392 108.87612915 132.96789551 C111.32003637 133.52377169 111.32003637 133.52377169 115.03237915 133.39440918 C115.03237915 137.68440918 115.03237915 141.97440918 115.03237915 146.39440918 C113.17612915 145.90972168 111.31987915 145.42503418 109.40737915 144.92565918 C102.22196986 143.27705878 95.38648629 142.85514354 88.03237915 142.89440918 C86.77070923 142.90012939 85.50903931 142.90584961 84.20913696 142.91174316 C54.62044071 143.46920591 27.9287796 155.77417261 7.03237915 176.39440918 C6.26796509 177.07503418 5.50355103 177.75565918 4.7159729 178.45690918 C-3.03735065 185.55834327 -8.39395154 194.56586677 -13.96762085 203.39440918 C-14.57182877 204.16210113 -14.57182877 204.16210113 -15.18824291 204.94530201 C-19.6307167 211.02183677 -19.67409037 216.425521 -19.59872437 223.77380371 C-19.60587967 224.99428406 -19.61303497 226.2147644 -19.6204071 227.472229 C-19.63436092 230.79906438 -19.62604835 234.12433101 -19.6063168 237.45103693 C-19.5898549 240.94225051 -19.59875328 244.43341596 -19.60383606 247.9246521 C-19.60834747 253.78367936 -19.59254386 259.64238636 -19.56454468 265.50134277 C-19.5324668 272.26575612 -19.53252299 279.02959305 -19.54975945 285.79404747 C-19.56564419 292.31667853 -19.55888051 298.83909915 -19.54182243 305.36172104 C-19.53496744 308.13115956 -19.53596817 310.90042861 -19.54336739 313.66986465 C-19.55247849 317.53806652 -19.52845247 321.40567999 -19.50106812 325.27380371 C-19.50759399 326.41785675 -19.51411987 327.56190979 -19.52084351 328.7406311 C-19.44654327 334.91187288 -19.19371944 338.74984676 -14.96762085 343.39440918 C-11.62397397 345.6235071 -10.56594787 345.64594407 -6.66453075 345.65167809 C-5.00476673 345.66135142 -5.00476673 345.66135142 -3.31147212 345.67122018 C-2.09087275 345.66812298 -0.87027338 345.66502578 0.38731384 345.66183472 C1.68012982 345.66636583 2.9729458 345.67089694 4.30493802 345.67556536 C7.90090071 345.68783152 11.49677062 345.68753066 15.09274948 345.68517661 C18.96811801 345.68476935 22.84345644 345.69579894 26.71881104 345.70529175 C34.31444747 345.72192285 41.91005287 345.72740226 49.50570599 345.7285165 C55.6788338 345.72946604 61.85195135 345.73357162 68.02507591 345.73991776 C85.5189592 345.75753644 103.01281792 345.76675572 120.50671015 345.76525681 C121.4503152 345.76517689 122.39392024 345.76509698 123.36611938 345.76501465 C124.3108739 345.76493289 125.25562842 345.76485113 126.22901186 345.76476689 C141.54077792 345.76395396 156.85244562 345.78309174 172.16418324 345.81129138 C187.87826665 345.8400041 203.59230208 345.85383254 219.3064124 345.85210383 C228.13184618 345.85143934 236.95717687 345.85695741 245.78258705 345.87845993 C253.29701525 345.89665062 260.81129364 345.90103657 268.32573429 345.88744108 C272.16043293 345.88090049 275.99484399 345.88083316 279.82951546 345.89814758 C283.98539363 345.91671943 288.14060287 345.90435229 292.29649353 345.8888855 C293.51040073 345.89917262 294.72430793 345.90945975 295.9750002 345.92005861 C302.23556854 345.86838449 306.3908337 345.816908 311.03237915 341.39440918 C313.56264141 338.01021024 313.27901107 334.6243219 313.27288818 330.49749756 C313.27459703 329.80395951 313.27630588 329.11042146 313.27806652 328.39586711 C313.28135995 326.07268477 313.2703603 323.74979146 313.25942993 321.42663574 C313.25886579 319.76104235 313.25918244 318.09544845 313.26031494 316.42985535 C313.26088932 311.90746567 313.24912119 307.38518186 313.23516703 302.86281681 C313.2226739 298.13692319 313.22149029 293.41102721 313.21911621 288.68511963 C313.21289727 279.73561447 313.19648085 270.78615811 313.17641723 261.83667445 C313.15407112 251.64814877 313.14306804 241.45962077 313.13302636 231.27107668 C313.11211499 210.31216027 313.07693096 189.3532878 313.03237915 168.39440918 C309.92614379 169.61759997 306.99631555 170.88555643 304.0909729 172.53112793 C273.94199739 189.24983593 241.9657051 194.93106337 208.03237915 187.39440918 C206.01220732 186.99521355 203.99147633 186.59882272 201.96987915 186.20690918 C200.67050415 185.93878418 199.37112915 185.67065918 198.03237915 185.39440918 C198.03237915 180.77440918 198.03237915 176.15440918 198.03237915 171.39440918 C198.98757446 171.73214355 199.94276978 172.06987793 200.9269104 172.41784668 C202.23275554 172.86878601 203.53875361 173.31928266 204.84487915 173.76940918 C205.46814087 173.99112793 206.09140259 174.21284668 206.73355103 174.44128418 C234.25601394 183.84594487 265.35434492 178.77529397 291.03237915 166.39440918 C295.57343387 164.03586825 299.86582571 161.36435866 304.03237915 158.39440918 C305.13426512 157.75064378 305.13426512 157.75064378 306.25841141 157.09387302 C309.87592898 154.75328111 312.55586557 152.93932384 313.85932159 148.71336174 C314.16218429 145.39637364 314.18028657 142.1832493 314.10171509 138.85314941 C314.10784821 137.60355438 314.11398132 136.35395935 314.12030029 135.0664978 C314.12775976 131.65358324 314.09525092 128.24561627 314.04371929 124.83338809 C313.99843248 121.25549688 314.00212923 117.67763239 313.99972534 114.09950256 C313.98866585 108.09292187 313.94386237 102.08737344 313.87612915 96.08117676 C313.78947461 88.38166831 313.75845174 80.6829897 313.74508286 72.98304653 C313.73312374 66.34946078 313.69562668 59.7160539 313.65404224 53.08259702 C313.64177589 50.95677108 313.63298363 48.83095138 313.62465668 46.70510674 C313.60718232 42.73857107 313.56312078 38.77257098 313.51577759 34.80627441 C313.51242401 33.63259811 313.50907043 32.45892181 313.50561523 31.24967957 C313.47637131 23.33831294 313.47637131 23.33831294 310.03237915 16.39440918 C304.26792865 12.35745538 298.09853809 12.97316153 291.34791565 13.00672913 C290.05591438 13.00134359 288.76391312 12.99595805 287.4327603 12.99040931 C283.85299962 12.97595585 280.27346919 12.980199 276.6936959 12.98757613 C272.83066196 12.99230566 268.96767798 12.97979999 265.10466003 12.96955872 C257.53983165 12.95236225 249.9750863 12.95153231 242.41024344 12.95677162 C236.26291844 12.9608123 230.11561798 12.95937099 223.96829414 12.95402336 C222.65615775 12.95290073 222.65615775 12.95290073 221.31751354 12.95175542 C219.5404994 12.95022395 217.76348526 12.94868561 215.98647112 12.94714045 C199.32268176 12.93341281 182.65893935 12.93885537 165.99515105 12.95032566 C150.74432777 12.96026252 135.49362573 12.94731003 120.24282115 12.92339147 C104.58627261 12.89902132 88.92978058 12.8893872 73.27321345 12.89604419 C64.48195625 12.89954052 55.69079236 12.89727694 46.89954948 12.87979317 C39.41736318 12.8650974 31.93533592 12.86440144 24.45315283 12.88186408 C20.63476462 12.89039745 16.81666084 12.89246699 12.9982872 12.87721252 C8.86191209 12.8608919 4.72622803 12.87546383 0.58985901 12.89320374 C-0.62102373 12.88359873 -1.83190646 12.87399372 -3.07948261 12.86409765 C-10.91130442 12.80501506 -10.91130442 12.80501506 -16.96762085 17.39440918 Z " fill="#F9FBFB" transform="translate(108.96762084960938,76.6055908203125)"></path><path d="M0 0 C3.69419915 0.37383326 5.55643158 1.16972209 8.27539062 3.68408203 C8.96777832 4.32017395 9.66016602 4.95626587 10.37353516 5.6116333 C11.51894775 6.70106232 11.51894775 6.70106232 12.6875 7.8125 C13.53231934 8.61242371 14.37713867 9.41234741 15.24755859 10.23651123 C20.92616847 15.66710347 26.52862905 21.17596195 32.11981964 26.69637871 C34.94032787 29.4809659 37.76909131 32.25588193 40.61914062 35.01025391 C43.39757214 37.69576463 46.15319456 40.40282807 48.89427185 43.12643814 C49.9359425 44.15406388 50.9853335 45.17392762 52.0426178 46.18548203 C61.29242077 55.05373512 61.29242077 55.05373512 61.45117188 60.81689453 C61.13692465 64.00160575 60.52496745 65.06137797 58.6875 67.875 C55.61065547 69.86212876 53.46432259 70.67209573 49.77197266 70.41748047 C41.24472091 67.94259995 33.5291824 56.57151203 27.66601562 50.3125 C22.97681096 45.20979928 22.97681096 45.20979928 16.78515625 42.5546875 C13.77782534 42.54695407 13.77782534 42.54695407 12.01797581 43.96063709 C10.13284738 46.58450998 10.3082702 48.48463473 10.30223083 51.70011902 C10.29258301 52.92956238 10.28293518 54.15900574 10.272995 55.42570496 C10.27735893 56.79055872 10.28199139 58.15541164 10.28686523 59.52026367 C10.28112364 60.95598931 10.27404125 62.39171012 10.26571655 63.8274231 C10.25058879 66.92131713 10.24483046 70.01503844 10.24624443 73.10896873 C10.24827687 78.00522331 10.2287176 82.90124573 10.20606995 87.79743958 C10.16505686 97.31417693 10.14648999 106.8308962 10.12989807 116.34770203 C10.10756104 128.44316788 10.07390171 140.53858004 10.02269894 152.63395864 C10.0028236 157.49645577 9.9932003 162.35883203 9.99174678 167.22136819 C9.9889861 170.25477892 9.97813271 173.28812359 9.96523666 176.3215065 C9.96097565 177.72267987 9.9600843 179.1238684 9.96291161 180.52504539 C9.99027643 195.85164344 6.91585553 207.21683965 -3.87109375 218.5546875 C-12.25374595 226.30696426 -23.43518828 230.87087079 -34.875 231.25 C-48.78878022 230.62307095 -59.71138328 225.34041985 -69.26953125 215.30859375 C-78.44604007 204.09675984 -80.33007947 192.11813592 -79.55517578 178.09765625 C-78.64337163 169.51165339 -73.88597542 162.1723321 -68.3125 155.8125 C-67.81234375 155.20792969 -67.3121875 154.60335937 -66.796875 153.98046875 C-59.3451418 145.67865919 -48.63909913 141.49704851 -37.69921875 140.59765625 C-31.62188878 140.38275774 -26.62586988 141.4445782 -20.8359375 143.203125 C-17.24579029 144.07009553 -14.84917177 143.8119942 -11.3125 142.8125 C-10.02554125 140.23858249 -10.18780485 138.40820552 -10.18792725 135.52520752 C-10.18536423 134.40363251 -10.18280121 133.2820575 -10.18016052 132.12649536 C-10.18226028 130.89011322 -10.18436005 129.65373108 -10.18652344 128.37988281 C-10.18365576 126.38795059 -10.18078018 124.39601836 -10.17760801 122.40408659 C-10.17492449 120.25878154 -10.174483 118.11348441 -10.17440033 115.9681778 C-10.17326098 111.49687513 -10.16042936 107.02565523 -10.14483643 102.55438232 C-10.14226357 101.80000295 -10.13969072 101.04562357 -10.1370399 100.26838422 C-10.13177313 98.72555281 -10.12648765 97.18272147 -10.12118387 95.63989019 C-10.08606844 85.22866415 -10.05952076 74.81754017 -10.06201172 64.40625 C-10.06360106 57.3860782 -10.04754603 50.36618787 -10.01130509 43.34610629 C-9.99285266 39.63126071 -9.98349531 35.91688497 -9.99578094 32.20200348 C-10.00936151 28.05517883 -9.98427117 23.90944627 -9.95605469 19.76269531 C-9.96625137 18.5344101 -9.97644806 17.30612488 -9.98695374 16.0406189 C-9.87359297 6.76318032 -9.87359297 6.76318032 -6.90826416 3.05511475 C-3.33675043 -0.03050046 -3.33675043 -0.03050046 0 0 Z " fill="#2C8D78" transform="translate(265.3125,134.1875)"></path><path d="M0 0 C1.16789062 -0.06058594 2.33578125 -0.12117188 3.5390625 -0.18359375 C14.06609318 1.52088474 21.74882034 11.36921072 28.9609375 18.625 C30.15114421 19.81318165 31.3417956 21.00091801 32.53286743 22.18823242 C35.01362763 24.66459481 37.48894397 27.14623773 39.96044922 29.63183594 C43.12091831 32.80945154 46.29474419 35.97333067 49.47273827 39.13340759 C51.92832881 41.57813933 54.37670717 44.02999371 56.8229866 46.48403931 C57.99052733 47.65357332 59.16027871 48.82090497 60.33231735 49.9859314 C61.96900376 51.61496258 63.59570751 53.25336623 65.22021484 54.89453125 C66.14571136 55.82241455 67.07120789 56.75029785 68.02474976 57.70629883 C73.33170733 63.8734586 73.9724809 69.10752842 73.7890625 77.01953125 C73.01934574 83.37332522 69.99831769 87.17514952 65.3125 91.3125 C58.5421731 96.21018329 52.64498131 96.27851505 44.375 95.4375 C38.25580548 93.62203217 33.99560936 88.1361255 29.62890625 83.73046875 C29.02663208 83.12537476 28.42435791 82.52028076 27.80383301 81.89685059 C26.326128 80.41181932 24.85036907 78.92485203 23.375 77.4375 C23.37353344 78.08335084 23.37206688 78.72920168 23.37055588 79.39462376 C23.33336446 95.17246119 23.274188 110.95004421 23.19109726 126.72770023 C23.15143366 134.3579394 23.11897726 141.98807733 23.10400391 149.6184082 C23.09092113 156.27570696 23.06378973 162.93278177 23.02038693 169.58995432 C22.99791946 173.10885875 22.98208034 176.62748851 22.98311615 180.14647102 C22.98251781 202.83293482 22.13831785 221.8597186 5.72265625 239.15234375 C-7.24544994 251.77520918 -21.16300003 255.89237919 -38.89941406 255.87133789 C-47.13729334 255.71321995 -53.33794644 254.47561407 -60.625 250.4375 C-61.57246094 249.92960938 -62.51992187 249.42171875 -63.49609375 248.8984375 C-77.11625021 240.92658448 -86.44160507 229.3988364 -91.0625 214.3125 C-94.81405031 198.46179394 -93.27200832 183.7678281 -85.5625 169.3125 C-77.02332101 155.59915747 -63.51363565 145.14650185 -47.625 141.4375 C-43.4269908 141.09773346 -39.27054952 141.15107659 -35.0625 141.25 C-33.95841797 141.26353516 -32.85433594 141.27707031 -31.71679688 141.29101562 C-29.01900728 141.32605185 -26.32227364 141.37517409 -23.625 141.4375 C-23.62445523 140.80765512 -23.62391047 140.17781025 -23.62334919 139.52887917 C-23.6083512 124.17002316 -23.56578305 108.81152458 -23.49290943 93.45284462 C-23.45832534 86.02533339 -23.43291259 78.59800648 -23.42944336 71.17041016 C-23.42639425 64.69294533 -23.40577748 58.21580932 -23.36447543 51.73847139 C-23.34322875 48.31187921 -23.33050129 44.88575349 -23.33884621 41.459095 C-23.34375896 37.62408007 -23.31762502 33.79041517 -23.28442383 29.95556641 C-23.29304947 28.83202759 -23.30167511 27.70848877 -23.31056213 26.55090332 C-23.20487061 19.24252255 -21.88095165 13.48986334 -17.625 7.4375 C-12.09713267 2.26178496 -7.62335802 0.27404228 0 0 Z M-8.55495834 17.3303318 C-10.90035889 21.94898698 -10.29183732 27.31177184 -10.23681641 32.37182617 C-10.24248123 33.67486191 -10.24814606 34.97789764 -10.25398254 36.32041931 C-10.26613155 39.14596648 -10.262731 41.97090913 -10.24715042 44.79643822 C-10.22279341 49.26317183 -10.23434332 53.72937804 -10.25082397 58.19612122 C-10.27528719 66.06146624 -10.26952563 73.92657012 -10.25701904 81.79193115 C-10.23841021 93.64426043 -10.24324897 105.49654502 -10.27705324 117.34884053 C-10.28857772 121.79051189 -10.28411544 126.23179891 -10.26703286 130.67344892 C-10.26104487 132.76857303 -10.26175237 134.86356674 -10.26542664 136.95869446 C-10.26968139 139.51482798 -10.26308276 142.07101072 -10.24382019 144.6270752 C-10.24913254 145.75002487 -10.25444489 146.87297455 -10.25991821 148.029953 C-10.25803308 149.00755679 -10.25614796 149.98516058 -10.2542057 150.99238873 C-10.625 153.4375 -10.625 153.4375 -11.91734886 155.28719044 C-14.43218216 156.9812348 -16.58467998 156.36909782 -19.4609375 155.8984375 C-21.47172154 155.47014776 -23.45707879 154.92692066 -25.4375 154.375 C-36.34992134 151.5671255 -48.04927445 153.62169319 -57.8125 159.0625 C-68.58370752 166.09922787 -76.28949966 175.91050778 -79.625 188.4375 C-81.18613678 203.22054497 -78.98014731 215.60215085 -69.625 227.4375 C-62.32665643 236.33951548 -52.14878868 242.16371334 -40.625 243.4375 C-27.33107114 244.74443003 -14.95728931 240.19296165 -4.6640625 231.84765625 C3.64829752 224.13422174 9.01651905 213.76262915 9.50528526 202.41183949 C9.50784136 201.33723815 9.51039745 200.26263681 9.51303101 199.1554718 C9.51848434 197.91467865 9.52393768 196.6738855 9.52955627 195.39549255 C9.5306758 194.03359991 9.53172636 192.6717072 9.53271484 191.30981445 C9.53738751 189.86553799 9.54253182 188.42126299 9.54811096 186.97698975 C9.55935706 183.87499951 9.56780767 180.77301869 9.57423019 177.67101479 C9.58493594 172.76755344 9.60518462 167.86416041 9.62734985 162.96073914 C9.68919743 149.02032579 9.74336144 135.07991806 9.77636719 121.1394043 C9.79469012 113.43406508 9.82358885 105.72884187 9.8643719 98.02358788 C9.88546614 93.94739541 9.90090272 89.8713492 9.90317917 85.79509926 C9.9053205 81.96595834 9.92113643 78.1371229 9.94756889 74.30807495 C9.95478075 72.90158457 9.95685374 71.49505726 9.95346642 70.08855247 C9.94958688 68.17187271 9.96574917 66.25518331 9.98300171 64.33857727 C9.98631186 63.26510701 9.989622 62.19163675 9.99303246 61.08563709 C10.375 58.4375 10.375 58.4375 11.69278908 56.57075787 C13.375 55.4375 13.375 55.4375 16.68237305 55.40429688 C21.08980604 56.63750391 23.41704986 58.72323857 26.45703125 61.96875 C26.99728439 62.5198645 27.53753754 63.070979 28.09416199 63.63879395 C29.80672551 65.39135042 31.49737783 67.16331732 33.1875 68.9375 C34.89969522 70.70711274 36.61610284 72.47251564 38.33439636 74.23620605 C39.3995619 75.33249288 40.46036238 76.43304125 41.51631165 77.53820801 C44.90612629 81.06596174 46.22860886 82.32474022 51.1875 82.8125 C54.53584564 82.74541111 55.40691618 82.41688747 58.375 80.5 C60.48223068 77.27330302 61.27448905 74.98405545 61.16595459 71.11621094 C59.30499184 64.81372362 53.24872887 60.22286456 48.6328125 55.78125 C47.42502288 54.58772249 46.21914663 53.39225592 45.0151062 52.19494629 C41.84948493 49.05792988 38.65734622 45.94929114 35.45922852 42.84545898 C32.20385631 39.67527409 28.97687998 36.47644972 25.74609375 33.28125 C21.03040589 28.62894452 16.30853849 23.9830842 11.55908203 19.36523438 C11.0613327 18.87802917 10.56358337 18.39082397 10.05075073 17.88885498 C6.68414319 14.62816318 4.74298556 13.25958996 0.0625 13 C-0.69675781 12.93941406 -1.45601563 12.87882813 -2.23828125 12.81640625 C-5.19071543 13.58471563 -6.67557178 14.96168511 -8.55495834 17.3303318 Z " fill="#FBFDFC" transform="translate(265.625,121.5625)"></path></svg>