<svg version="1.1" xmlns="http://www.w3.org/2000/svg" width="16px" height="16px" fill="currentColor" viewBox="0 0 512 512"><path d="M0 0 C168.96 0 337.92 0 512 0 C512 168.96 512 337.92 512 512 C343.04 512 174.08 512 0 512 C0 343.04 0 174.08 0 0 Z " fill="#DD2C33" transform="translate(0,0)"></path><path d="M0 0 C2.71875 1.1706543 2.71875 1.1706543 5.5 2.82421875 C7.06004761 3.73856689 7.06004761 3.73856689 8.65161133 4.67138672 C9.75657959 5.3367041 10.86154785 6.00202148 12 6.6875 C13.16946475 7.37895436 14.3396418 8.0692053 15.51049805 8.75830078 C17.88817365 10.16056836 20.26127447 11.57010346 22.63037109 12.98681641 C25.60827926 14.76596658 28.59261928 16.53324398 31.58203125 18.29296875 C35.12079819 20.37678144 38.6555582 22.46714078 42.1875 24.5625 C46.42967402 27.07594385 50.68086445 29.57364752 54.9375 32.0625 C55.53777512 32.4135228 56.13805023 32.76454559 56.7565155 33.12620544 C57.98752297 33.84601773 59.218536 34.5658205 60.44955444 35.28561401 C70.33698137 41.06743855 80.19162285 46.89703999 90 52.8125 C98.51170256 57.94523909 107.0859128 62.94737937 115.72998047 67.85351562 C146.11605716 85.11605716 146.11605716 85.11605716 151 90 C151.26006222 92.99640369 151.26006222 92.99640369 151.27415466 96.9264679 C151.27939134 97.64743768 151.28462802 98.36840747 151.29002339 99.11122483 C151.30508644 101.53945585 151.30572991 103.96747733 151.30639648 106.39575195 C151.31401382 108.1317582 151.32244058 109.86776107 151.33161926 111.60375977 C151.35361502 116.32903941 151.36237012 121.05425433 151.36744571 125.7795794 C151.37108373 128.73015316 151.37732092 131.68070982 151.3844471 134.63127708 C151.40896061 144.9204521 151.4219973 155.20957657 151.42553711 165.4987793 C151.42917241 175.09641779 151.45906249 184.69373649 151.50094169 194.29127723 C151.53561239 202.52488439 151.551085 210.75838544 151.55178314 218.99206513 C151.55257716 223.91244428 151.56137227 228.83249802 151.58978081 233.7528019 C151.61590589 238.38138439 151.61819793 243.00937046 151.60212517 247.63799286 C151.60030614 249.33715551 151.60704224 251.036352 151.62294388 252.73544121 C151.64333097 255.05519749 151.63289884 257.3728526 151.61473083 259.69258118 C151.61674216 260.99063344 151.61875349 262.2886857 151.62082577 263.62607288 C150.67706044 268.75504076 147.67694616 270.83190298 143.55004883 273.70654297 C142.26650513 274.46668701 142.26650513 274.46668701 140.95703125 275.2421875 C139.97847168 275.82597168 138.99991211 276.40975586 137.99169922 277.01123047 C136.41799561 277.93379639 136.41799561 277.93379639 134.8125 278.875 C133.71695801 279.52484863 132.62141602 280.17469727 131.49267578 280.84423828 C122.37862446 286.23387847 113.20722856 291.52480602 104.02587891 296.79882812 C97.98530547 300.26935242 91.97671098 303.77764446 86.01757812 307.38623047 C79.50637546 311.31903976 72.93907211 315.15638179 66.375 319 C65.75465881 319.36329407 65.13431763 319.72658813 64.49517822 320.10089111 C61.29086763 321.97727804 58.0862162 323.85308185 54.88134766 325.72851562 C49.83096876 328.68395421 44.78151859 331.64097501 39.7331543 334.59985352 C37.30231185 336.02442994 34.8700736 337.44657945 32.43676758 338.86694336 C26.76169305 342.18301132 21.10853875 345.52892349 15.5 348.95703125 C14.49316162 349.56772461 13.48632324 350.17841797 12.44897461 350.80761719 C10.58361643 351.94169438 8.72453911 353.08619703 6.87329102 354.24316406 C6.05014404 354.74170898 5.22699707 355.24025391 4.37890625 355.75390625 C3.6732251 356.19033447 2.96754395 356.6267627 2.24047852 357.07641602 C-0.71501235 358.29474683 -2.82489784 358.32557324 -6 358 C-8.56347656 356.86108398 -8.56347656 356.86108398 -11.140625 355.24609375 C-12.11499512 354.64676025 -13.08936523 354.04742676 -14.09326172 353.42993164 C-15.13498535 352.7724292 -16.17670898 352.11492676 -17.25 351.4375 C-18.93004228 350.40252011 -20.61011807 349.36759035 -22.29208374 348.33573914 C-23.45393013 347.62286846 -24.61491103 346.9085854 -25.77505493 346.19294739 C-31.73588792 342.52301647 -37.7979886 339.03607079 -43.875 335.5625 C-52.7938167 330.44698093 -61.66429623 325.25775615 -70.5 320 C-79.40039658 314.70485174 -88.3338287 309.473836 -97.3125 304.3125 C-107.10577478 298.68261352 -116.85645632 292.98721693 -126.56640625 287.21484375 C-130.41323267 284.93015172 -134.277433 282.67812359 -138.15234375 280.44140625 C-139.16200195 279.85504395 -140.17166016 279.26868164 -141.21191406 278.66455078 C-143.14881036 277.54036269 -145.08939915 276.42250476 -147.03417969 275.31201172 C-147.90333008 274.80557129 -148.77248047 274.29913086 -149.66796875 273.77734375 C-150.43391357 273.33640381 -151.1998584 272.89546387 -151.98901367 272.44116211 C-154.33126468 270.76260102 -155.5217291 269.48902295 -157 267 C-157.38311005 263.77311802 -157.38311005 263.77311802 -157.39440918 259.87098694 C-157.40050028 259.15239185 -157.40659139 258.43379677 -157.41286707 257.69342607 C-157.42951845 255.28512153 -157.42471838 252.87734447 -157.41992188 250.46899414 C-157.42726096 248.74254303 -157.43584672 247.01609683 -157.44558716 245.28965759 C-157.46782825 240.59958232 -157.47073257 235.90968259 -157.46883965 231.21956182 C-157.46872007 227.30542449 -157.47727888 223.39132453 -157.48561716 219.47719759 C-157.50486039 210.24396907 -157.50773162 201.01083097 -157.50097656 191.77758789 C-157.49433393 182.24919225 -157.51720696 172.72118354 -157.55429029 163.19286638 C-157.58496633 155.0144086 -157.59634963 146.83607542 -157.59245348 138.65756124 C-157.5903839 133.77187955 -157.59589744 128.88649894 -157.62034607 124.00087166 C-157.64257625 119.40671161 -157.64076668 114.81318162 -157.62041855 110.21901894 C-157.61700192 108.53276329 -157.62212568 106.84646554 -157.63640213 105.16026688 C-157.6545491 102.85810568 -157.64188289 100.55809238 -157.62145996 98.2559967 C-157.62217247 96.96791642 -157.62288498 95.67983614 -157.62361908 94.35272312 C-156.8347845 90.11176254 -155.28907886 88.69854548 -152 86 C-149.94121671 84.6173992 -147.83043862 83.31069377 -145.6875 82.0625 C-145.04635254 81.68609375 -144.40520508 81.3096875 -143.74462891 80.921875 C-141.50069171 79.60712919 -139.25028147 78.30385436 -137 77 C-135.23267053 75.9681368 -133.46576515 74.93554699 -131.69921875 73.90234375 C-127.67802636 71.55211749 -123.65424911 69.20639127 -119.62890625 66.86328125 C-109.59750962 61.02124757 -99.58754703 55.14260905 -89.57467651 49.26890564 C-85.27117592 46.74468747 -80.96602711 44.22329735 -76.66015625 41.703125 C-65.92022791 35.41607723 -55.18476692 29.1219774 -44.47973633 22.77563477 C-42.22654284 21.44000953 -39.97249244 20.10582868 -37.7175293 18.77319336 C-32.33320134 15.58785581 -26.96749828 12.37726242 -21.6328125 9.109375 C-20.62855225 8.4999707 -19.62429199 7.89056641 -18.58959961 7.26269531 C-16.71136617 6.1218822 -14.83930282 4.97082145 -12.97485352 3.80761719 C-12.14139404 3.30391602 -11.30793457 2.80021484 -10.44921875 2.28125 C-9.73080811 1.83845703 -9.01239746 1.39566406 -8.2722168 0.93945312 C-5.29274148 -0.29241762 -3.20377043 -0.33346563 0 0 Z " fill="#DE2D34" transform="translate(259,77)"></path><path d="M0 0 C2.71875 1.1706543 2.71875 1.1706543 5.5 2.82421875 C7.06004761 3.73856689 7.06004761 3.73856689 8.65161133 4.67138672 C9.75657959 5.3367041 10.86154785 6.00202148 12 6.6875 C13.16946475 7.37895436 14.3396418 8.0692053 15.51049805 8.75830078 C17.88817365 10.16056836 20.26127447 11.57010346 22.63037109 12.98681641 C25.60827926 14.76596658 28.59261928 16.53324398 31.58203125 18.29296875 C35.12079819 20.37678144 38.6555582 22.46714078 42.1875 24.5625 C46.42967402 27.07594385 50.68086445 29.57364752 54.9375 32.0625 C55.53777512 32.4135228 56.13805023 32.76454559 56.7565155 33.12620544 C57.98752297 33.84601773 59.218536 34.5658205 60.44955444 35.28561401 C70.33698137 41.06743855 80.19162285 46.89703999 90 52.8125 C98.51170256 57.94523909 107.0859128 62.94737937 115.72998047 67.85351562 C146.11605716 85.11605716 146.11605716 85.11605716 151 90 C151.26006222 92.99640369 151.26006222 92.99640369 151.27415466 96.9264679 C151.27939134 97.64743768 151.28462802 98.36840747 151.29002339 99.11122483 C151.30508644 101.53945585 151.30572991 103.96747733 151.30639648 106.39575195 C151.31401382 108.1317582 151.32244058 109.86776107 151.33161926 111.60375977 C151.35361502 116.32903941 151.36237012 121.05425433 151.36744571 125.7795794 C151.37108373 128.73015316 151.37732092 131.68070982 151.3844471 134.63127708 C151.40896061 144.9204521 151.4219973 155.20957657 151.42553711 165.4987793 C151.42917241 175.09641779 151.45906249 184.69373649 151.50094169 194.29127723 C151.53561239 202.52488439 151.551085 210.75838544 151.55178314 218.99206513 C151.55257716 223.91244428 151.56137227 228.83249802 151.58978081 233.7528019 C151.61590589 238.38138439 151.61819793 243.00937046 151.60212517 247.63799286 C151.60030614 249.33715551 151.60704224 251.036352 151.62294388 252.73544121 C151.64333097 255.05519749 151.63289884 257.3728526 151.61473083 259.69258118 C151.61674216 260.99063344 151.61875349 262.2886857 151.62082577 263.62607288 C150.67706044 268.75504076 147.67694616 270.83190298 143.55004883 273.70654297 C142.26650513 274.46668701 142.26650513 274.46668701 140.95703125 275.2421875 C139.97847168 275.82597168 138.99991211 276.40975586 137.99169922 277.01123047 C136.41799561 277.93379639 136.41799561 277.93379639 134.8125 278.875 C133.71695801 279.52484863 132.62141602 280.17469727 131.49267578 280.84423828 C122.37862446 286.23387847 113.20722856 291.52480602 104.02587891 296.79882812 C97.98530547 300.26935242 91.97671098 303.77764446 86.01757812 307.38623047 C79.50637546 311.31903976 72.93907211 315.15638179 66.375 319 C65.75465881 319.36329407 65.13431763 319.72658813 64.49517822 320.10089111 C61.29086763 321.97727804 58.0862162 323.85308185 54.88134766 325.72851562 C49.83096876 328.68395421 44.78151859 331.64097501 39.7331543 334.59985352 C37.30231185 336.02442994 34.8700736 337.44657945 32.43676758 338.86694336 C26.76169305 342.18301132 21.10853875 345.52892349 15.5 348.95703125 C14.49316162 349.56772461 13.48632324 350.17841797 12.44897461 350.80761719 C10.58361643 351.94169438 8.72453911 353.08619703 6.87329102 354.24316406 C6.05014404 354.74170898 5.22699707 355.24025391 4.37890625 355.75390625 C3.6732251 356.19033447 2.96754395 356.6267627 2.24047852 357.07641602 C-0.71501235 358.29474683 -2.82489784 358.32557324 -6 358 C-8.56347656 356.86108398 -8.56347656 356.86108398 -11.140625 355.24609375 C-12.11499512 354.64676025 -13.08936523 354.04742676 -14.09326172 353.42993164 C-15.13498535 352.7724292 -16.17670898 352.11492676 -17.25 351.4375 C-18.93004228 350.40252011 -20.61011807 349.36759035 -22.29208374 348.33573914 C-23.45393013 347.62286846 -24.61491103 346.9085854 -25.77505493 346.19294739 C-31.73588792 342.52301647 -37.7979886 339.03607079 -43.875 335.5625 C-52.7938167 330.44698093 -61.66429623 325.25775615 -70.5 320 C-79.40039658 314.70485174 -88.3338287 309.473836 -97.3125 304.3125 C-107.10577478 298.68261352 -116.85645632 292.98721693 -126.56640625 287.21484375 C-130.41323267 284.93015172 -134.277433 282.67812359 -138.15234375 280.44140625 C-139.16200195 279.85504395 -140.17166016 279.26868164 -141.21191406 278.66455078 C-143.14881036 277.54036269 -145.08939915 276.42250476 -147.03417969 275.31201172 C-147.90333008 274.80557129 -148.77248047 274.29913086 -149.66796875 273.77734375 C-150.43391357 273.33640381 -151.1998584 272.89546387 -151.98901367 272.44116211 C-154.33126468 270.76260102 -155.5217291 269.48902295 -157 267 C-157.38311005 263.77311802 -157.38311005 263.77311802 -157.39440918 259.87098694 C-157.40050028 259.15239185 -157.40659139 258.43379677 -157.41286707 257.69342607 C-157.42951845 255.28512153 -157.42471838 252.87734447 -157.41992188 250.46899414 C-157.42726096 248.74254303 -157.43584672 247.01609683 -157.44558716 245.28965759 C-157.46782825 240.59958232 -157.47073257 235.90968259 -157.46883965 231.21956182 C-157.46872007 227.30542449 -157.47727888 223.39132453 -157.48561716 219.47719759 C-157.50486039 210.24396907 -157.50773162 201.01083097 -157.50097656 191.77758789 C-157.49433393 182.24919225 -157.51720696 172.72118354 -157.55429029 163.19286638 C-157.58496633 155.0144086 -157.59634963 146.83607542 -157.59245348 138.65756124 C-157.5903839 133.77187955 -157.59589744 128.88649894 -157.62034607 124.00087166 C-157.64257625 119.40671161 -157.64076668 114.81318162 -157.62041855 110.21901894 C-157.61700192 108.53276329 -157.62212568 106.84646554 -157.63640213 105.16026688 C-157.6545491 102.85810568 -157.64188289 100.55809238 -157.62145996 98.2559967 C-157.62217247 96.96791642 -157.62288498 95.67983614 -157.62361908 94.35272312 C-156.8347845 90.11176254 -155.28907886 88.69854548 -152 86 C-149.94121671 84.6173992 -147.83043862 83.31069377 -145.6875 82.0625 C-145.04635254 81.68609375 -144.40520508 81.3096875 -143.74462891 80.921875 C-141.50069171 79.60712919 -139.25028147 78.30385436 -137 77 C-135.23267053 75.9681368 -133.46576515 74.93554699 -131.69921875 73.90234375 C-127.67802636 71.55211749 -123.65424911 69.20639127 -119.62890625 66.86328125 C-109.59750962 61.02124757 -99.58754703 55.14260905 -89.57467651 49.26890564 C-85.27117592 46.74468747 -80.96602711 44.22329735 -76.66015625 41.703125 C-65.92022791 35.41607723 -55.18476692 29.1219774 -44.47973633 22.77563477 C-42.22654284 21.44000953 -39.97249244 20.10582868 -37.7175293 18.77319336 C-32.33320134 15.58785581 -26.96749828 12.37726242 -21.6328125 9.109375 C-20.62855225 8.4999707 -19.62429199 7.89056641 -18.58959961 7.26269531 C-16.71136617 6.1218822 -14.83930282 4.97082145 -12.97485352 3.80761719 C-12.14139404 3.30391602 -11.30793457 2.80021484 -10.44921875 2.28125 C-9.73080811 1.83845703 -9.01239746 1.39566406 -8.2722168 0.93945312 C-5.29274148 -0.29241762 -3.20377043 -0.33346563 0 0 Z M-9.13671875 16.7890625 C-10.69664551 17.69615967 -10.69664551 17.69615967 -12.28808594 18.62158203 C-13.40989258 19.28270996 -14.53169922 19.94383789 -15.6875 20.625 C-16.86066004 21.31031983 -18.03416759 21.99504508 -19.20800781 22.67919922 C-21.62623105 24.08996326 -24.04226266 25.50437422 -26.45654297 26.921875 C-29.72775749 28.84195259 -33.00541243 30.75077055 -36.28515625 32.65625 C-46.79276757 38.76383645 -57.26919482 44.92283184 -67.72729492 51.11474609 C-74.32466978 55.01798205 -80.9390079 58.89126723 -87.5625 62.75 C-96.11014102 67.73019931 -104.65420323 72.71639709 -113.19039917 77.71618652 C-114.40923843 78.42994611 -115.62824439 79.14342115 -116.84744263 79.85656738 C-119.65757595 81.50043362 -122.46027612 83.1520452 -125.24495411 84.83884811 C-127.73943692 86.31954067 -130.24959322 87.60439387 -132.88926983 88.80528641 C-140.69155203 92.52969606 -140.69155203 92.52969606 -145.41922951 99.42902374 C-146.00736381 103.69987654 -146.11183061 107.75375411 -146.05200195 112.05371094 C-146.08383529 113.669524 -146.12191497 115.28522415 -146.16572571 116.90075684 C-146.26364742 121.27007375 -146.26635631 125.63448316 -146.24540353 130.00466442 C-146.23585914 133.66268166 -146.27135717 137.31973061 -146.3060748 140.97755265 C-146.3865718 149.61502734 -146.38783907 158.25005069 -146.34008789 166.88769531 C-146.29239632 175.77337111 -146.38020062 184.65041351 -146.53490478 193.53467727 C-146.66315974 201.18482168 -146.70534111 208.83223871 -146.68000191 216.48341203 C-146.66580933 221.04396743 -146.68338637 225.59848924 -146.78454018 230.15807343 C-147.92632123 248.36795272 -147.92632123 248.36795272 -141.83573151 264.76637459 C-136.67328486 269.18843563 -131.00957729 271.78514287 -124.63734627 274.01843452 C-120.88408085 275.41532192 -117.73736023 277.36642467 -114.3515625 279.49609375 C-112.10964913 280.81036357 -109.86746352 282.12416909 -107.625 283.4375 C-106.39062075 284.16080004 -105.15624586 284.88410752 -103.921875 285.60742188 C-95.31676847 290.64863246 -86.70347247 295.67572311 -78.0871582 300.69775391 C-70.32241198 305.22488687 -62.56595363 309.76606627 -54.8125 314.3125 C-54.2128241 314.66412201 -53.61314819 315.01574402 -52.99530029 315.37802124 C-47.32926488 318.70047088 -41.66376186 322.02382786 -35.99853516 325.34765625 C-32.6776131 327.29606248 -29.3564851 329.24411727 -26.0352478 331.19198608 C-24.17411578 332.28368965 -22.31324914 333.37584456 -20.45239258 334.46801758 C-18.24168411 335.7646093 -16.02888702 337.05765017 -13.81347656 338.34619141 C-12.11980818 339.34175801 -10.43585492 340.35453835 -8.77246094 341.39990234 C-5.6826839 343.46162089 -5.6826839 343.46162089 -2.12280273 343.75512695 C0.39206532 342.86053387 2.57364044 341.69579987 4.89453125 340.375 C5.84150879 339.83842773 6.78848633 339.30185547 7.76416016 338.74902344 C8.7701123 338.1718457 9.77606445 337.59466797 10.8125 337 C11.85712402 336.40477539 12.90174805 335.80955078 13.97802734 335.19628906 C19.96398787 331.77441829 25.91529937 328.30510525 31.80957031 324.72753906 C38.51770955 320.66232747 45.29269615 316.71124163 52.0625 312.75 C61.59017689 307.17348806 71.10775924 301.58087258 80.60717773 295.95629883 C85.76471947 292.90503272 90.92952846 289.86647615 96.1015625 286.83984375 C96.72311218 286.47601593 97.34466187 286.11218811 97.98504639 285.73733521 C101.00607467 283.96920268 104.02782121 282.20232958 107.05078125 280.4375 C109.32494874 279.10722871 111.57863517 277.74127607 113.80961609 276.33978271 C116.79850695 274.55204572 119.71087951 273.3569564 123.00520325 272.23883057 C129.03466406 269.90762674 134.06715872 267.26233413 138 262 C141.78395497 251.22118579 141.05890611 239.10083596 140.98289418 227.82288003 C140.96913823 224.18219143 141.01574714 220.54321702 141.06120962 216.9028632 C141.16669435 208.30244267 141.16710676 199.70640347 141.10180664 191.10571289 C141.03661564 182.27149181 141.15067834 173.45246343 141.35359007 164.62067252 C141.52204576 157.00309083 141.57636988 149.3902888 141.54197305 141.77093095 C141.52266021 137.23427522 141.54455743 132.70812528 141.67747688 128.17315102 C142.79875663 110.39372609 142.79875663 110.39372609 136.67401338 94.35601282 C129.8799816 87.70071757 121.04196895 83.89748868 112.34210587 80.38719749 C108.16340814 78.65275842 104.41001184 76.49158925 100.59765625 74.078125 C99.49615234 73.43294922 98.39464844 72.78777344 97.25976562 72.12304688 C86.95220309 66.08459087 76.65405658 60.03080869 66.37402344 53.94555664 C59.48140213 49.86824022 52.57379215 45.81680694 45.66278076 41.77078247 C35.05252853 35.55880616 24.45436591 29.32695086 13.875 23.0625 C12.99964096 22.54470474 12.99964096 22.54470474 12.1065979 22.01644897 C10.46375276 21.04443299 8.82170123 20.07107606 7.1796875 19.09765625 C6.24882324 18.54601807 5.31795898 17.99437988 4.35888672 17.42602539 C2.54451198 16.32917558 0.76407127 15.17604751 -1 14 C-4.62600435 14 -6.02337664 14.96556858 -9.13671875 16.7890625 Z " fill="#FEFAFA" transform="translate(259,77)"></path><path d="M0 0 C5.37719965 2.95013677 8.69621635 6.17596156 11.6875 11.5 C12.368125 12.675625 12.368125 12.675625 13.0625 13.875 C14.28619092 19.01450186 14.35980447 24.48308658 12.6875 29.5 C13.56100098 29.76393555 14.43450195 30.02787109 15.33447266 30.29980469 C18.63560908 31.48142597 21.33809787 32.89636169 24.3359375 34.703125 C25.41286865 35.34773682 26.4897998 35.99234863 27.59936523 36.65649414 C28.16420624 36.99810577 28.72904724 37.33971741 29.31100464 37.69168091 C31.08515877 38.76369127 32.86415816 39.82719156 34.64477539 40.88842773 C39.51461259 43.79243891 44.37761486 46.70765986 49.23095703 49.63916016 C52.52149461 51.62619667 55.82314169 53.59432948 59.125 55.5625 C60.13030762 56.17577148 61.13561523 56.78904297 62.17138672 57.42089844 C63.10354004 57.97422852 64.03569336 58.52755859 64.99609375 59.09765625 C65.80876709 59.58758057 66.62144043 60.07750488 67.45874023 60.58227539 C70.10662506 61.67258091 71.06758074 61.56431093 73.6875 60.5 C74.80125 59.819375 75.915 59.13875 77.0625 58.4375 C82.90890441 55.47619274 89.31995318 55.46132215 95.6875 56.5 C97.42294756 57.46535664 99.15157118 58.44303418 100.875 59.4296875 C104.32103565 61.0705028 105.88892869 61.70990523 109.61791992 60.72973633 C112.86087469 59.0683746 115.8430719 57.20855355 118.875 55.1875 C120.57563711 54.12891885 122.27630559 53.07038299 123.9790802 52.01524353 C125.73027259 50.92249739 127.46917066 49.81204421 129.20703125 48.69824219 C134.6579819 45.22616059 140.27616701 42.03812749 145.875 38.8125 C148.68101933 37.17444976 151.4852213 35.53395463 154.28125 33.87890625 C155.79243558 33.01291841 157.32727167 32.1857859 158.890625 31.41796875 C161.04475083 30.40284965 161.04475083 30.40284965 163.6875 28.5 C164.55976144 25.81951317 164.55976144 25.81951317 164.3125 22.875 C164.52442723 15.63415306 166.47563881 10.11716749 171.328125 4.65234375 C177.42867962 -0.93983132 183.67127544 -3.09301609 191.90625 -2.85546875 C198.2802081 -2.04081961 204.1524008 0.9649008 208.6875 5.5 C213.86402766 12.75007993 215.54976793 18.55397023 214.6875 27.5 C212.86720566 33.86113729 209.46328613 40.19010731 203.6953125 43.71875 C196.98418713 47.16035275 191.2410763 48.2636129 183.6875 47.5 C179.76724936 46.1889228 176.62924591 44.30721078 173.5 41.625 C172.901875 41.25375 172.30375 40.8825 171.6875 40.5 C168.00492405 41.70155011 164.76404985 43.50606536 161.42578125 45.44921875 C160.40097656 46.043396 159.37617188 46.63757324 158.3203125 47.24975586 C157.22460938 47.88921143 156.12890625 48.52866699 155 49.1875 C153.26862289 50.19119152 151.53724391 51.19487982 149.80575562 52.19837952 C145.51983463 54.68417854 141.23876978 57.17832111 136.95849609 59.67382812 C133.94618312 61.43000612 130.93165971 63.18233759 127.91586304 64.93252563 C126.20535337 65.92711897 124.49780009 66.92679106 122.7902832 67.92651367 C121.75605225 68.5269751 120.72182129 69.12743652 119.65625 69.74609375 C118.74294922 70.27904053 117.82964844 70.8119873 116.88867188 71.36108398 C114.6875 72.5 114.6875 72.5 112.6875 72.5 C113.0175 73.49 113.3475 74.48 113.6875 75.5 C114.42427609 82.86776091 113.91352897 89.26660728 109.6875 95.5 C106.04730582 99.40127368 102.46354958 102.11197521 97.6875 104.5 C97.3575 127.27 97.0275 150.04 96.6875 173.5 C99.6575 174.49 99.6575 174.49 102.6875 175.5 C108.05544275 178.83109491 112.00111667 183.37313985 113.6875 189.5 C114.65805861 197.40454953 114.33271648 204.81923921 109.6875 211.5 C104.54981801 217.31967517 98.9850967 220.72452943 91.3125 221.84765625 C84.49113848 222.26333297 79.26975512 220.3804621 73.6875 216.5 C68.18578894 211.5474431 65.15104067 206.84434627 64.3515625 199.3515625 C64.25269014 191.18470571 64.79369309 185.52147271 70.59375 179.53125 C78.31659836 172.5 78.31659836 172.5 83.6875 172.5 C83.6875 150.06 83.6875 127.62 83.6875 104.5 C81.7075 104.17 79.7275 103.84 77.6875 103.5 C72.2953603 99.89208222 66.93850082 95.30989643 65.09277344 88.90234375 C64.6875 86.5 64.6875 86.5 64.81884766 83.52026367 C64.92438594 79.87378055 64.72982253 77.00539379 63.6875 73.5 C60.06127206 69.8527582 55.70401481 67.78559286 51.125 65.5625 C49.85871582 64.90276838 48.59513939 64.23781527 47.33422852 63.56787109 C44.74671423 62.19744937 42.14931219 60.84936795 39.54296875 59.51513672 C33.60470412 56.44674778 27.87618752 53.02805639 22.125 49.625 C20.16548188 48.4815698 18.20585639 47.33832357 16.24609375 46.1953125 C13.66786668 44.68876584 11.17400602 43.15767068 8.6875 41.5 C4.0067519 41.76004156 0.62591286 44.16612571 -3.3125 46.5 C-9.83186639 48.67312213 -16.3910098 48.31835911 -22.625 45.4375 C-29.0925169 41.78283965 -33.55079373 36.85731234 -35.8359375 29.7265625 C-37.46802482 22.1012365 -36.82514122 15.63372845 -33.00390625 8.796875 C-24.83612602 -2.29470647 -12.46637755 -5.70600366 0 0 Z " fill="#FEFAFA" transform="translate(166.3125,174.5)"></path><path d="M0 0 C6.8397392 3.72672396 11.28700427 9.23601281 13.75 16.625 C14.65728554 25.6978554 12.90776806 32.60493313 7.5 39.9375 C2.09745128 45.21726352 -4.36823353 47.6821239 -11.875 48 C-18.61359577 47.91054961 -24.03639602 45.41237861 -29.10546875 41.015625 C-34.91352278 34.76300388 -36.9453926 27.89293842 -36.65234375 19.4296875 C-35.6206909 12.23816567 -32.35108107 7.15074831 -26.75 2.625 C-18.25584387 -3.59607209 -9.62214089 -4.27382418 0 0 Z " fill="#FEF9F9" transform="translate(367.25,290.375)"></path><path d="M0 0 C7.39607159 4.01175091 11.03428904 9.74270727 13.75 17.5625 C14.95539407 26.02829089 12.51888316 32.40917526 7.875 39.375 C2.20132885 45.21554383 -4.03359715 47.53510265 -12.0625 48 C-18.68917681 47.83861974 -24.12498037 45.27304334 -29.10546875 40.953125 C-35.00077586 34.60657216 -36.85454524 27.80567431 -36.60546875 19.2421875 C-36.05616591 15.10128919 -34.52214738 12.02218086 -32.25 8.5625 C-31.4146875 7.2321875 -31.4146875 7.2321875 -30.5625 5.875 C-22.01648766 -2.67101234 -10.96854828 -4.94472538 0 0 Z " fill="#FEFAFA" transform="translate(166.25,290.4375)"></path><path d="M0 0 C5.86612531 3.33452856 10.00814295 7.78731695 13.125 13.75 C14.60957768 22.32755991 14.75611628 30.60294375 9.6875 38 C4.04765733 44.27600714 -2.0775906 48.03181325 -10.625 48.5 C-17.6950516 48.2672411 -23.18113284 45.82402927 -28.421875 41.09765625 C-34.53022517 34.52234543 -35.75181062 28.82443282 -35.5546875 19.96484375 C-34.9761637 12.8825927 -32.49884857 8.32160797 -27.25 3.54296875 C-19.08183053 -2.96192427 -9.71673472 -4.36291742 0 0 Z " fill="#FEFAFA" transform="translate(266.3125,116)"></path><path d="M0 0 C4.08998175 1.80720124 6.66247347 4.19069751 9 8 C9.88278491 13.95879816 8.42198084 17.2832156 5 22 C1.15159412 24.3922523 -2.54655045 24.46878416 -7 24 C-10.3923422 22.27182567 -12.42158265 20.97279282 -14.375 17.6875 C-15.42102922 13.18957434 -15.66572342 9.54167528 -13.8125 5.25 C-9.87317521 0.35980371 -6.1922734 -0.66345786 0 0 Z " fill="#E1333A" transform="translate(359,301)"></path><path d="M0 0 C3.32015872 2.08386162 6.2312203 4.46244061 8 8 C8.40049779 13.20647133 7.96843282 16.64629854 5 21 C0.67481024 23.94899302 -2.81962079 24.6475474 -8 24 C-11.3923422 22.27182567 -13.42158265 20.97279282 -15.375 17.6875 C-16.42102922 13.18957434 -16.66572342 9.54167528 -14.8125 5.25 C-10.92305479 0.42172319 -6.152155 -1.47698239 0 0 Z " fill="#D4252E" transform="translate(159,301)"></path><path d="M0 0 C3.12740787 2.0612461 4.33498308 3.35356975 5.75 6.8125 C6.3160929 12.00168491 5.70455268 15.47915607 2.75 19.8125 C-1.58334393 22.76705268 -5.06081509 23.3785929 -10.25 22.8125 C-13.70893025 21.39748308 -15.0012539 20.18990787 -17.0625 17.0625 C-18.78760637 12.34115625 -19.07550674 8.72419981 -17.0625 4.0625 C-12.34785657 -1.79016081 -6.95235198 -2.54028245 0 0 Z " fill="#E83B40" transform="translate(362.25,186.1875)"></path><path d="M0 0 C3.12740787 2.0612461 4.33498308 3.35356975 5.75 6.8125 C6.3160929 12.00168491 5.70455268 15.47915607 2.75 19.8125 C-1.58334393 22.76705268 -5.06081509 23.3785929 -10.25 22.8125 C-13.70893025 21.39748308 -15.0012539 20.18990787 -17.0625 17.0625 C-18.78760637 12.34115625 -19.07550674 8.72419981 -17.0625 4.0625 C-12.34785657 -1.79016081 -6.95235198 -2.54028245 0 0 Z " fill="#DB2C34" transform="translate(161.25,186.1875)"></path><path d="M0 0 C3.75212276 2.01502889 5.63644095 3.45466142 8 7 C8.70351326 11.82642815 8.73487541 15.7836545 6.1875 20 C2.11908256 23.71969594 -0.37161757 24.49027277 -5.70703125 24.39453125 C-9.58307419 23.72761415 -11.32149114 21.8124343 -14 19 C-15.86233425 15.27533151 -15.57130829 11.05504687 -15 7 C-11.60805676 0.65909118 -6.91548702 -0.95120082 0 0 Z " fill="#E6383D" transform="translate(259,127)"></path><path d="M0 0 C2.81992717 1.82120296 4.50345478 3.00690956 6 6 C6.51436888 10.08555854 6.92098732 14.21847627 4.98828125 17.95703125 C2.85188119 20.59384934 1.23364822 21.92211726 -2 23 C-8.83159214 23.67195988 -8.83159214 23.67195988 -11.8203125 21.953125 C-14.79088455 19.51352476 -16.81899538 17.67651821 -17.23828125 13.79296875 C-17.43884011 6.75229732 -17.43884011 6.75229732 -15.25 3 C-10.30081092 -1.39927918 -6.28753855 -1.58029044 0 0 Z " fill="#D62730" transform="translate(261,360)"></path><path d="M0 0 C3 2.5 3 2.5 5 5 C5.33 5.33 5.66 5.66 6 6 C6.53798008 10.08096316 6.93436984 14.24979978 4.953125 17.9609375 C2.64588318 20.7431997 0.68479503 22.7641287 -2.953125 23.2734375 C-7.24672199 23.46329043 -10.09582964 23.4342668 -13.5 20.625 C-17.35718058 16.57496039 -17.33996851 13.90688201 -17.28515625 8.48046875 C-16.88136394 4.96802881 -15.61222617 3.32197882 -13 1 C-8.63930119 -1.64201668 -4.81832702 -1.3656221 0 0 Z " fill="#DE3037" transform="translate(261,244)"></path><path d="M0 0 C8.89370107 4.32844327 17.52247492 8.89174771 26 14 C25.45897018 17.60064671 24.64824474 19.9215261 22.4375 22.8125 C21.98246094 23.41707031 21.52742188 24.02164063 21.05859375 24.64453125 C20.70925781 25.09183594 20.35992187 25.53914063 20 26 C10.80467713 21.70548108 2.43258596 16.61340781 -6 11 C-4.54955729 6.89041233 -2.48889248 3.56741255 0 0 Z " fill="#FEF8F8" transform="translate(295,154)"></path><path d="M0 0 C6.12330785 7.34796942 6.12330785 7.34796942 5.85693359 10.91674805 C4.61417323 13.93796577 2.79503181 14.67897459 -0.0234375 16.26953125 C-1.044375 16.84767578 -2.0653125 17.42582031 -3.1171875 18.02148438 C-4.19226563 18.61251953 -5.26734375 19.20355469 -6.375 19.8125 C-7.44234375 20.42287109 -8.5096875 21.03324219 -9.609375 21.66210938 C-15.53221519 24.97039605 -15.53221519 24.97039605 -18 26 C-21 25 -21 25 -22.38671875 22.71484375 C-22.81597656 21.79832031 -23.24523437 20.88179687 -23.6875 19.9375 C-24.12449219 19.01839844 -24.56148437 18.09929687 -25.01171875 17.15234375 C-25.33785156 16.44207031 -25.66398438 15.73179687 -26 15 C-25.39003174 14.65219482 -24.78006348 14.30438965 -24.15161133 13.94604492 C-21.3715801 12.36043661 -18.59203592 10.7739764 -15.8125 9.1875 C-14.85279297 8.64029297 -13.89308594 8.09308594 -12.90429688 7.52929688 C-11.97294922 6.99755859 -11.04160156 6.46582031 -10.08203125 5.91796875 C-9.22843018 5.43094482 -8.3748291 4.9439209 -7.49536133 4.44213867 C-4.98003239 2.98846016 -2.48699751 1.50154666 0 0 Z " fill="#FEF9F9" transform="translate(214,154)"></path><path d="M0 0 C2.9002353 2.82233641 5.14178835 5.37648729 7 9 C7 9.99 7 10.98 7 12 C3.25795438 14.18062935 -0.49485223 16.3420238 -4.25 18.5 C-5.31347656 19.12003906 -6.37695312 19.74007813 -7.47265625 20.37890625 C-8.49746094 20.96542969 -9.52226562 21.55195313 -10.578125 22.15625 C-11.52075195 22.70087891 -12.46337891 23.24550781 -13.43457031 23.80664062 C-16 25 -16 25 -20 25 C-21.51953125 23.35546875 -21.51953125 23.35546875 -22.8125 21.1875 C-23.47185547 20.12595703 -23.47185547 20.12595703 -24.14453125 19.04296875 C-25 17 -25 17 -24 14 C-21.68334961 12.37426758 -21.68334961 12.37426758 -18.65234375 10.64453125 C-17.03295898 9.71157227 -17.03295898 9.71157227 -15.38085938 8.75976562 C-14.24455078 8.11716797 -13.10824219 7.47457031 -11.9375 6.8125 C-10.79732422 6.15830078 -9.65714844 5.50410156 -8.48242188 4.83007812 C-5.65947391 3.21190293 -2.83196517 1.6023252 0 0 Z " fill="#FEF9FA" transform="translate(314,329)"></path><path d="M0 0 C3.65357103 1.46142841 6.71628422 2.87932955 10.08203125 4.8203125 C11.01337891 5.35527344 11.94472656 5.89023437 12.90429688 6.44140625 C13.86400391 6.99699219 14.82371094 7.55257813 15.8125 8.125 C16.79154297 8.68832031 17.77058594 9.25164062 18.77929688 9.83203125 C21.18789555 11.21844415 23.59471395 12.60785055 26 14 C25.11236977 18.7973478 23.52513204 21.84575052 21 26 C11.63390584 21.55241339 2.82436288 16.42481324 -6 11 C-4.02 7.37 -2.04 3.74 0 0 Z " fill="#FEF9F9" transform="translate(194,329)"></path><path d="M0 0 C4.29 0 8.58 0 13 0 C13 8.58 13 17.16 13 26 C8.71 26 4.42 26 0 26 C0 17.42 0 8.84 0 0 Z " fill="#FEF6F6" transform="translate(352,243)"></path><path d="M0 0 C4.29 0 8.58 0 13 0 C13 8.58 13 17.16 13 26 C8.71 26 4.42 26 0 26 C0 17.42 0 8.84 0 0 Z " fill="#FDF5F6" transform="translate(147,243)"></path></svg>