<svg version="1.1" xmlns="http://www.w3.org/2000/svg" width="16px" height="16px" fill="currentColor" viewBox="0 0 512 512"><path d="M0 0 C168.96 0 337.92 0 512 0 C512 168.96 512 337.92 512 512 C343.04 512 174.08 512 0 512 C0 343.04 0 174.08 0 0 Z " fill="#2D8F7A" transform="translate(0,0)"></path><path d="M0 0 C0.71592316 -0.00700928 1.43184631 -0.01401855 2.16946411 -0.02124023 C4.53134168 -0.03881735 6.89201692 -0.02719963 9.25390625 -0.01367188 C10.89770741 -0.0163669 12.54150702 -0.02024941 14.18530273 -0.02526855 C17.62857253 -0.03116318 21.07142696 -0.02260216 24.51464844 -0.00390625 C28.92674318 0.01888371 33.33786467 0.00576037 37.74992371 -0.01819611 C41.14375126 -0.03265531 44.53734834 -0.02804763 47.93118286 -0.01768494 C49.55787267 -0.01501797 51.18458346 -0.0182864 52.81124878 -0.02760315 C55.08566653 -0.0377713 57.35851179 -0.02226664 59.6328125 0 C60.92646729 0.00318237 62.22012207 0.00636475 63.55297852 0.00964355 C67.35877861 0.6019954 68.55774729 1.44979258 70.81640625 4.51757812 C71.27050781 7.35839844 71.27050781 7.35839844 71.20703125 10.59570312 C71.19414062 11.75585938 71.18125 12.91601562 71.16796875 14.11132812 C71.11769531 15.92117187 71.11769531 15.92117187 71.06640625 17.76757812 C71.04835938 18.98960938 71.0303125 20.21164063 71.01171875 21.47070312 C70.96458725 24.48711891 70.89880038 27.50195304 70.81640625 30.51757812 C71.52345703 30.69498535 72.23050781 30.87239258 72.95898438 31.05517578 C78.73548531 32.55788622 83.9572008 34.27225865 89.31640625 36.89257812 C90.58829837 37.50636379 91.86043631 38.11964032 93.1328125 38.73242188 C93.74914551 39.0326123 94.36547852 39.33280273 95.00048828 39.64208984 C97.7311094 40.95857376 100.4914192 42.20715926 103.25390625 43.45507812 C104.13949219 43.85597656 105.02507812 44.256875 105.9375 44.66992188 C106.86755859 45.08951172 106.86755859 45.08951172 107.81640625 45.51757812 C108.21730469 45.05609375 108.61820312 44.59460938 109.03125 44.11914062 C121.35486779 29.97911659 121.35486779 29.97911659 124.81640625 26.51757812 C130.60745282 26.776094 133.22305783 28.16967898 137.29272461 32.2175293 C137.79117889 32.70546967 138.28963318 33.19341003 138.80319214 33.69613647 C140.43623441 35.30290667 142.04649928 36.93046741 143.65625 38.56054688 C144.78880298 39.68905525 145.92224513 40.81667191 147.05653381 41.94343567 C149.42558203 44.30365524 151.7834814 46.67434199 154.1340332 49.05297852 C157.14573574 52.09890494 160.18363198 55.1170449 163.23036861 58.12787914 C165.57384479 60.44966375 167.90282923 62.78556296 170.22769356 65.12597084 C171.34244195 66.24471691 172.46165146 67.35903628 173.58537102 68.46877098 C175.15385646 70.02199467 176.70178615 71.59320015 178.24584961 73.1706543 C179.1307457 74.06032394 180.01564178 74.94999359 180.92735291 75.86662292 C183.1940529 79.04753899 183.32459022 80.69174001 182.81640625 84.51757812 C181.453125 86.53710938 181.453125 86.53710938 179.50390625 88.33007812 C178.78589844 88.99652344 178.06789063 89.66296875 177.328125 90.34960938 C172.90178824 94.17016443 168.39522714 97.88145565 163.81640625 101.51757812 C164.18608521 102.27880981 164.18608521 102.27880981 164.56323242 103.05541992 C176.92154054 128.58823246 176.92154054 128.58823246 178.81640625 138.51757812 C179.58307617 138.49663086 180.34974609 138.47568359 181.13964844 138.45410156 C184.61510085 138.37092654 188.09034388 138.31891238 191.56640625 138.26757812 C192.77296875 138.2340625 193.97953125 138.20054687 195.22265625 138.16601562 C196.3828125 138.153125 197.54296875 138.14023438 198.73828125 138.12695312 C199.8065918 138.10600586 200.87490234 138.08505859 201.97558594 138.06347656 C205.6356779 138.64853767 206.57458684 139.59190384 208.81640625 142.51757812 C209.32434082 145.78100586 209.32434082 145.78100586 209.33398438 149.70117188 C209.34449829 150.77505661 209.34449829 150.77505661 209.35522461 151.87063599 C209.37280173 154.23251356 209.361184 156.59318879 209.34765625 158.95507812 C209.35035127 160.59887929 209.35423378 162.2426789 209.35925293 163.88647461 C209.36514755 167.32974441 209.35658653 170.77259884 209.33789062 174.21582031 C209.31510067 178.62791505 209.328224 183.03903654 209.35218048 187.45109558 C209.36663968 190.84492313 209.36203201 194.23852021 209.35166931 197.63235474 C209.34900234 199.25904455 209.35227078 200.88575534 209.36158752 202.51242065 C209.37175567 204.78683841 209.35625102 207.05968367 209.33398438 209.33398438 C209.330802 210.62763916 209.32761963 211.92129395 209.32434082 213.25415039 C208.73198898 217.05995048 207.8841918 218.25891916 204.81640625 220.51757812 C201.97558594 220.97167969 201.97558594 220.97167969 198.73828125 220.90820312 C197.578125 220.8953125 196.41796875 220.88242187 195.22265625 220.86914062 C193.4128125 220.81886719 193.4128125 220.81886719 191.56640625 220.76757812 C190.344375 220.74953125 189.12234375 220.73148438 187.86328125 220.71289062 C184.84686547 220.66575913 181.83203134 220.59997225 178.81640625 220.51757812 C178.56987305 221.41331543 178.56987305 221.41331543 178.31835938 222.32714844 C176.44544851 228.8721852 174.04819514 235.03765694 171.31640625 241.26757812 C170.92582031 242.17378906 170.53523438 243.08 170.1328125 244.01367188 C168.15083388 248.58490201 166.10313185 253.09071189 163.81640625 257.51757812 C169.28119876 262.45604841 174.76111423 267.37293798 180.3203125 272.20507812 C181.17293566 272.95307129 182.01439003 273.71556191 182.81640625 274.51757812 C182.54953521 280.24039523 181.22783268 282.86042185 177.22412109 286.88623047 C176.74754059 287.37332489 176.27096008 287.86041931 175.77993774 288.36227417 C174.21043121 289.9580515 172.62015813 291.53102798 171.02734375 293.10351562 C169.92365156 294.21125312 168.82085105 295.31987969 167.71890259 296.42935181 C165.40995503 298.7471284 163.09054808 301.05374889 160.76318359 303.35302734 C157.78687053 306.29515564 154.83831218 309.26340601 151.89708519 312.24056053 C149.62588745 314.53348236 147.34053848 316.8118685 145.05070877 319.0861702 C143.95791244 320.17497579 142.86952312 321.26822376 141.78574753 322.36600876 C140.26627355 323.90079398 138.7287517 325.41492043 137.18505859 326.92529297 C136.31537445 327.79020355 135.44569031 328.65511414 134.5496521 329.54623413 C131.23803238 331.93472825 128.86241525 332.34409457 124.81640625 332.51757812 C122.84765625 331.36523437 122.84765625 331.36523437 121.31640625 329.58007812 C120.74535156 328.93683594 120.17429687 328.29359375 119.5859375 327.63085938 C119.00199219 326.93347656 118.41804688 326.23609375 117.81640625 325.51757812 C117.18089844 324.80988281 116.54539062 324.1021875 115.890625 323.37304688 C113.32022727 320.50463201 110.95614555 317.72718707 108.81640625 314.51757812 C104.45699349 315.14736196 101.05734049 316.74734357 97.12890625 318.70507812 C88.63584892 322.83156928 79.81382565 325.70395213 70.81640625 328.51757812 C70.83735352 329.28424805 70.85830078 330.05091797 70.87988281 330.84082031 C70.96305783 334.31627273 71.015072 337.79151575 71.06640625 341.26757812 C71.11667969 343.07742188 71.11667969 343.07742188 71.16796875 344.92382812 C71.18085938 346.08398438 71.19375 347.24414062 71.20703125 348.43945312 C71.22797852 349.50776367 71.24892578 350.57607422 71.27050781 351.67675781 C70.6854467 355.33684978 69.74208054 356.27575872 66.81640625 358.51757812 C63.55297852 359.0255127 63.55297852 359.0255127 59.6328125 359.03515625 C58.91688934 359.04216553 58.20096619 359.0491748 57.46334839 359.05639648 C55.10147082 359.0739736 52.74079558 359.06235588 50.37890625 359.04882812 C48.73510509 359.05152315 47.09130548 359.05540566 45.44750977 359.0604248 C42.00423997 359.06631943 38.56138554 359.05775841 35.11816406 359.0390625 C30.70606932 359.01627254 26.29494783 359.02939588 21.88288879 359.05335236 C18.48906124 359.06781156 15.09546416 359.06320388 11.70162964 359.05284119 C10.07493983 359.05017422 8.44822904 359.05344265 6.82156372 359.0627594 C4.54714597 359.07292755 2.27430071 359.05742289 0 359.03515625 C-1.29365479 359.03197388 -2.58730957 359.0287915 -3.92016602 359.0255127 C-7.72435882 358.43341102 -8.93052169 357.58893226 -11.18359375 354.51757812 C-11.54589844 351.67675781 -11.54589844 351.67675781 -11.35546875 348.43945312 C-11.29746094 347.27929688 -11.23945313 346.11914062 -11.1796875 344.92382812 C-11.05787109 343.11398437 -11.05787109 343.11398437 -10.93359375 341.26757812 C-10.83498047 339.43453125 -10.83498047 339.43453125 -10.734375 337.56445312 C-10.56937244 334.54726354 -10.3850964 331.53251404 -10.18359375 328.51757812 C-10.87614258 328.340896 -11.56869141 328.16421387 -12.28222656 327.98217773 C-18.36038716 326.38569884 -24.14841674 324.52765301 -29.93359375 322.08007812 C-30.63613281 321.79326172 -31.33867187 321.50644531 -32.0625 321.2109375 C-35.51527726 319.77281413 -38.74664883 318.23130002 -41.94921875 316.29492188 C-45.15276577 314.19651568 -45.15276577 314.19651568 -49.18359375 314.51757812 C-50.9194051 315.94991303 -50.9194051 315.94991303 -52.43359375 317.95507812 C-53.03558594 318.67695313 -53.63757813 319.39882813 -54.2578125 320.14257812 C-55.57444706 321.76633839 -56.88947795 323.39139996 -58.203125 325.01757812 C-63.26686961 331.05921606 -63.26686961 331.05921606 -67.18359375 333.01757812 C-78.23658167 331.17541347 -89.60550632 314.3996781 -97.53100586 306.52026367 C-99.59674794 304.4679456 -101.66955694 302.42317998 -103.7487793 300.38452148 C-106.27841542 297.90419393 -108.79556186 295.41182161 -111.30421638 292.91028023 C-112.71703049 291.50740196 -114.14192521 290.1167236 -115.56700134 288.7263031 C-116.42201736 287.86843704 -117.27703339 287.01057098 -118.15795898 286.12670898 C-118.91326401 285.37949081 -119.66856903 284.63227264 -120.44676208 283.8624115 C-122.53641608 281.0412455 -122.95007276 278.99354417 -123.18359375 275.51757812 C-122.25 273.64648438 -122.25 273.64648438 -120.74609375 272.08007812 C-120.19179687 271.49613281 -119.6375 270.9121875 -119.06640625 270.31054688 C-116.51835788 267.88408588 -113.90717798 265.55166715 -111.2109375 263.29101562 C-108.753592 261.14143016 -106.47361424 258.84331817 -104.18359375 256.51757812 C-104.70308594 255.51339844 -105.22257812 254.50921875 -105.7578125 253.47460938 C-111.23877958 242.76922552 -115.96256317 232.13940468 -119.18359375 220.51757812 C-119.95026367 220.53852539 -120.71693359 220.55947266 -121.50683594 220.58105469 C-124.98228835 220.66422971 -128.45753138 220.71624387 -131.93359375 220.76757812 C-133.14015625 220.80109375 -134.34671875 220.83460938 -135.58984375 220.86914062 C-136.75 220.88203125 -137.91015625 220.89492188 -139.10546875 220.90820312 C-140.1737793 220.92915039 -141.24208984 220.95009766 -142.34277344 220.97167969 C-146.0028654 220.38661858 -146.94177434 219.44325241 -149.18359375 216.51757812 C-149.69152832 213.25415039 -149.69152832 213.25415039 -149.70117188 209.33398438 C-149.70818115 208.61806122 -149.71519043 207.90213806 -149.72241211 207.16452026 C-149.73998923 204.80264269 -149.7283715 202.44196746 -149.71484375 200.08007812 C-149.71753877 198.43627696 -149.72142128 196.79247735 -149.72644043 195.14868164 C-149.73233505 191.70541184 -149.72377403 188.26255741 -149.70507812 184.81933594 C-149.68228817 180.4072412 -149.6954115 175.99611971 -149.71936798 171.58406067 C-149.73382718 168.19023312 -149.72921951 164.79663604 -149.71885681 161.40280151 C-149.71618984 159.7761117 -149.71945828 158.14940091 -149.72877502 156.5227356 C-149.73894317 154.24831784 -149.72343852 151.97547258 -149.70117188 149.70117188 C-149.6979895 148.40751709 -149.69480713 147.1138623 -149.69152832 145.78100586 C-149.09942664 141.97681305 -148.25494789 140.77065018 -145.18359375 138.51757812 C-142.34277344 138.15527344 -142.34277344 138.15527344 -139.10546875 138.34570312 C-137.9453125 138.40371094 -136.78515625 138.46171875 -135.58984375 138.52148438 C-133.78 138.64330078 -133.78 138.64330078 -131.93359375 138.76757812 C-130.10054687 138.86619141 -130.10054687 138.86619141 -128.23046875 138.96679688 C-125.21327916 139.13179943 -122.19852967 139.31607547 -119.18359375 139.51757812 C-119.0134375 138.83808105 -118.84328125 138.15858398 -118.66796875 137.45849609 C-116.97232024 130.93859229 -114.85967554 124.81969924 -112.18359375 118.64257812 C-111.84070313 117.82789063 -111.4978125 117.01320313 -111.14453125 116.17382812 C-109.73051643 112.8600682 -108.33658164 109.76413451 -106.43359375 106.69726562 C-104.85194194 104.35803952 -104.85194194 104.35803952 -105.18359375 100.51757812 C-106.61592866 98.78176678 -106.61592866 98.78176678 -108.62109375 97.26757812 C-109.34296875 96.66558594 -110.06484375 96.06359375 -110.80859375 95.44335938 C-112.43235402 94.12672482 -114.05741559 92.81169392 -115.68359375 91.49804688 C-121.72523168 86.43430226 -121.72523168 86.43430226 -123.68359375 82.51757812 C-121.84434117 71.48206266 -105.10396957 60.09514882 -97.24121094 52.17016602 C-95.19451194 50.10555084 -93.15670491 48.03271622 -91.12597656 45.95239258 C-88.65434108 43.42051965 -86.16825055 40.90373167 -83.6711731 38.39695549 C-82.27269563 36.98582691 -80.88898535 35.5601124 -79.50561523 34.13417053 C-72.41865393 27.07013186 -72.41865393 27.07013186 -68.17773438 26.35546875 C-65.18359375 26.51757812 -65.18359375 26.51757812 -63.21484375 27.66992188 C-62.456875 28.55357422 -62.456875 28.55357422 -61.68359375 29.45507812 C-61.11253906 30.09832031 -60.54148437 30.7415625 -59.953125 31.40429688 C-59.36917969 32.10167969 -58.78523438 32.7990625 -58.18359375 33.51757812 C-57.54808594 34.22527344 -56.91257812 34.93296875 -56.2578125 35.66210938 C-53.68741477 38.53052424 -51.32333305 41.30796918 -49.18359375 44.51757812 C-44.39313041 43.88382033 -40.57698788 41.89184193 -36.30859375 39.76757812 C-17.24086668 30.51757812 -17.24086668 30.51757812 -10.18359375 30.51757812 C-10.23483398 29.7509082 -10.28607422 28.98423828 -10.33886719 28.19433594 C-10.5588589 24.71973004 -10.74656527 21.24410754 -10.93359375 17.76757812 C-11.01480469 16.56101562 -11.09601563 15.35445312 -11.1796875 14.11132812 C-11.26669922 12.37109375 -11.26669922 12.37109375 -11.35546875 10.59570312 C-11.41831055 9.52739258 -11.48115234 8.45908203 -11.54589844 7.35839844 C-11.18359375 4.51757812 -11.18359375 4.51757812 -9.60992432 2.37237549 C-6.30308196 -0.15552511 -4.13941397 0.0101829 0 0 Z " fill="#2E907A" transform="translate(226.18359375,76.482421875)"></path><path d="M0 0 C0.71592316 -0.00700928 1.43184631 -0.01401855 2.16946411 -0.02124023 C4.53134168 -0.03881735 6.89201692 -0.02719963 9.25390625 -0.01367188 C10.89770741 -0.0163669 12.54150702 -0.02024941 14.18530273 -0.02526855 C17.62857253 -0.03116318 21.07142696 -0.02260216 24.51464844 -0.00390625 C28.92674318 0.01888371 33.33786467 0.00576037 37.74992371 -0.01819611 C41.14375126 -0.03265531 44.53734834 -0.02804763 47.93118286 -0.01768494 C49.55787267 -0.01501797 51.18458346 -0.0182864 52.81124878 -0.02760315 C55.08566653 -0.0377713 57.35851179 -0.02226664 59.6328125 0 C60.92646729 0.00318237 62.22012207 0.00636475 63.55297852 0.00964355 C67.35877861 0.6019954 68.55774729 1.44979258 70.81640625 4.51757812 C71.27050781 7.35839844 71.27050781 7.35839844 71.20703125 10.59570312 C71.19414062 11.75585938 71.18125 12.91601562 71.16796875 14.11132812 C71.11769531 15.92117187 71.11769531 15.92117187 71.06640625 17.76757812 C71.04835938 18.98960938 71.0303125 20.21164063 71.01171875 21.47070312 C70.96458725 24.48711891 70.89880038 27.50195304 70.81640625 30.51757812 C71.52345703 30.69498535 72.23050781 30.87239258 72.95898438 31.05517578 C78.73548531 32.55788622 83.9572008 34.27225865 89.31640625 36.89257812 C90.58829837 37.50636379 91.86043631 38.11964032 93.1328125 38.73242188 C93.74914551 39.0326123 94.36547852 39.33280273 95.00048828 39.64208984 C97.7311094 40.95857376 100.4914192 42.20715926 103.25390625 43.45507812 C104.13949219 43.85597656 105.02507812 44.256875 105.9375 44.66992188 C106.86755859 45.08951172 106.86755859 45.08951172 107.81640625 45.51757812 C108.21730469 45.05609375 108.61820312 44.59460938 109.03125 44.11914062 C121.35486779 29.97911659 121.35486779 29.97911659 124.81640625 26.51757812 C130.60745282 26.776094 133.22305783 28.16967898 137.29272461 32.2175293 C137.79117889 32.70546967 138.28963318 33.19341003 138.80319214 33.69613647 C140.43623441 35.30290667 142.04649928 36.93046741 143.65625 38.56054688 C144.78880298 39.68905525 145.92224513 40.81667191 147.05653381 41.94343567 C149.42558203 44.30365524 151.7834814 46.67434199 154.1340332 49.05297852 C157.14573574 52.09890494 160.18363198 55.1170449 163.23036861 58.12787914 C165.57384479 60.44966375 167.90282923 62.78556296 170.22769356 65.12597084 C171.34244195 66.24471691 172.46165146 67.35903628 173.58537102 68.46877098 C175.15385646 70.02199467 176.70178615 71.59320015 178.24584961 73.1706543 C179.1307457 74.06032394 180.01564178 74.94999359 180.92735291 75.86662292 C183.1940529 79.04753899 183.32459022 80.69174001 182.81640625 84.51757812 C181.453125 86.53710938 181.453125 86.53710938 179.50390625 88.33007812 C178.78589844 88.99652344 178.06789063 89.66296875 177.328125 90.34960938 C172.90178824 94.17016443 168.39522714 97.88145565 163.81640625 101.51757812 C164.18608521 102.27880981 164.18608521 102.27880981 164.56323242 103.05541992 C176.92154054 128.58823246 176.92154054 128.58823246 178.81640625 138.51757812 C179.58307617 138.49663086 180.34974609 138.47568359 181.13964844 138.45410156 C184.61510085 138.37092654 188.09034388 138.31891238 191.56640625 138.26757812 C192.77296875 138.2340625 193.97953125 138.20054687 195.22265625 138.16601562 C196.3828125 138.153125 197.54296875 138.14023438 198.73828125 138.12695312 C199.8065918 138.10600586 200.87490234 138.08505859 201.97558594 138.06347656 C205.6356779 138.64853767 206.57458684 139.59190384 208.81640625 142.51757812 C209.32434082 145.78100586 209.32434082 145.78100586 209.33398438 149.70117188 C209.34449829 150.77505661 209.34449829 150.77505661 209.35522461 151.87063599 C209.37280173 154.23251356 209.361184 156.59318879 209.34765625 158.95507812 C209.35035127 160.59887929 209.35423378 162.2426789 209.35925293 163.88647461 C209.36514755 167.32974441 209.35658653 170.77259884 209.33789062 174.21582031 C209.31510067 178.62791505 209.328224 183.03903654 209.35218048 187.45109558 C209.36663968 190.84492313 209.36203201 194.23852021 209.35166931 197.63235474 C209.34900234 199.25904455 209.35227078 200.88575534 209.36158752 202.51242065 C209.37175567 204.78683841 209.35625102 207.05968367 209.33398438 209.33398438 C209.330802 210.62763916 209.32761963 211.92129395 209.32434082 213.25415039 C208.73198898 217.05995048 207.8841918 218.25891916 204.81640625 220.51757812 C201.97558594 220.97167969 201.97558594 220.97167969 198.73828125 220.90820312 C197.578125 220.8953125 196.41796875 220.88242187 195.22265625 220.86914062 C193.4128125 220.81886719 193.4128125 220.81886719 191.56640625 220.76757812 C190.344375 220.74953125 189.12234375 220.73148438 187.86328125 220.71289062 C184.84686547 220.66575913 181.83203134 220.59997225 178.81640625 220.51757812 C178.56987305 221.41331543 178.56987305 221.41331543 178.31835938 222.32714844 C176.44544851 228.8721852 174.04819514 235.03765694 171.31640625 241.26757812 C170.92582031 242.17378906 170.53523438 243.08 170.1328125 244.01367188 C168.15083388 248.58490201 166.10313185 253.09071189 163.81640625 257.51757812 C169.28119876 262.45604841 174.76111423 267.37293798 180.3203125 272.20507812 C181.17293566 272.95307129 182.01439003 273.71556191 182.81640625 274.51757812 C182.54953521 280.24039523 181.22783268 282.86042185 177.22412109 286.88623047 C176.74754059 287.37332489 176.27096008 287.86041931 175.77993774 288.36227417 C174.21043121 289.9580515 172.62015813 291.53102798 171.02734375 293.10351562 C169.92365156 294.21125312 168.82085105 295.31987969 167.71890259 296.42935181 C165.40995503 298.7471284 163.09054808 301.05374889 160.76318359 303.35302734 C157.78687053 306.29515564 154.83831218 309.26340601 151.89708519 312.24056053 C149.62588745 314.53348236 147.34053848 316.8118685 145.05070877 319.0861702 C143.95791244 320.17497579 142.86952312 321.26822376 141.78574753 322.36600876 C140.26627355 323.90079398 138.7287517 325.41492043 137.18505859 326.92529297 C136.31537445 327.79020355 135.44569031 328.65511414 134.5496521 329.54623413 C131.23803238 331.93472825 128.86241525 332.34409457 124.81640625 332.51757812 C122.84765625 331.36523437 122.84765625 331.36523437 121.31640625 329.58007812 C120.74535156 328.93683594 120.17429687 328.29359375 119.5859375 327.63085938 C119.00199219 326.93347656 118.41804688 326.23609375 117.81640625 325.51757812 C117.18089844 324.80988281 116.54539062 324.1021875 115.890625 323.37304688 C113.32022727 320.50463201 110.95614555 317.72718707 108.81640625 314.51757812 C104.45699349 315.14736196 101.05734049 316.74734357 97.12890625 318.70507812 C88.63584892 322.83156928 79.81382565 325.70395213 70.81640625 328.51757812 C70.83735352 329.28424805 70.85830078 330.05091797 70.87988281 330.84082031 C70.96305783 334.31627273 71.015072 337.79151575 71.06640625 341.26757812 C71.11667969 343.07742188 71.11667969 343.07742188 71.16796875 344.92382812 C71.18085938 346.08398438 71.19375 347.24414062 71.20703125 348.43945312 C71.22797852 349.50776367 71.24892578 350.57607422 71.27050781 351.67675781 C70.6854467 355.33684978 69.74208054 356.27575872 66.81640625 358.51757812 C63.55297852 359.0255127 63.55297852 359.0255127 59.6328125 359.03515625 C58.91688934 359.04216553 58.20096619 359.0491748 57.46334839 359.05639648 C55.10147082 359.0739736 52.74079558 359.06235588 50.37890625 359.04882812 C48.73510509 359.05152315 47.09130548 359.05540566 45.44750977 359.0604248 C42.00423997 359.06631943 38.56138554 359.05775841 35.11816406 359.0390625 C30.70606932 359.01627254 26.29494783 359.02939588 21.88288879 359.05335236 C18.48906124 359.06781156 15.09546416 359.06320388 11.70162964 359.05284119 C10.07493983 359.05017422 8.44822904 359.05344265 6.82156372 359.0627594 C4.54714597 359.07292755 2.27430071 359.05742289 0 359.03515625 C-1.29365479 359.03197388 -2.58730957 359.0287915 -3.92016602 359.0255127 C-7.72435882 358.43341102 -8.93052169 357.58893226 -11.18359375 354.51757812 C-11.54589844 351.67675781 -11.54589844 351.67675781 -11.35546875 348.43945312 C-11.29746094 347.27929688 -11.23945313 346.11914062 -11.1796875 344.92382812 C-11.05787109 343.11398437 -11.05787109 343.11398437 -10.93359375 341.26757812 C-10.83498047 339.43453125 -10.83498047 339.43453125 -10.734375 337.56445312 C-10.56937244 334.54726354 -10.3850964 331.53251404 -10.18359375 328.51757812 C-10.87614258 328.340896 -11.56869141 328.16421387 -12.28222656 327.98217773 C-18.36038716 326.38569884 -24.14841674 324.52765301 -29.93359375 322.08007812 C-30.63613281 321.79326172 -31.33867187 321.50644531 -32.0625 321.2109375 C-35.51527726 319.77281413 -38.74664883 318.23130002 -41.94921875 316.29492188 C-45.15276577 314.19651568 -45.15276577 314.19651568 -49.18359375 314.51757812 C-50.9194051 315.94991303 -50.9194051 315.94991303 -52.43359375 317.95507812 C-53.03558594 318.67695313 -53.63757813 319.39882813 -54.2578125 320.14257812 C-55.57444706 321.76633839 -56.88947795 323.39139996 -58.203125 325.01757812 C-63.26686961 331.05921606 -63.26686961 331.05921606 -67.18359375 333.01757812 C-78.23658167 331.17541347 -89.60550632 314.3996781 -97.53100586 306.52026367 C-99.59674794 304.4679456 -101.66955694 302.42317998 -103.7487793 300.38452148 C-106.27841542 297.90419393 -108.79556186 295.41182161 -111.30421638 292.91028023 C-112.71703049 291.50740196 -114.14192521 290.1167236 -115.56700134 288.7263031 C-116.42201736 287.86843704 -117.27703339 287.01057098 -118.15795898 286.12670898 C-118.91326401 285.37949081 -119.66856903 284.63227264 -120.44676208 283.8624115 C-122.53641608 281.0412455 -122.95007276 278.99354417 -123.18359375 275.51757812 C-122.25 273.64648438 -122.25 273.64648438 -120.74609375 272.08007812 C-120.19179687 271.49613281 -119.6375 270.9121875 -119.06640625 270.31054688 C-116.51835788 267.88408588 -113.90717798 265.55166715 -111.2109375 263.29101562 C-108.753592 261.14143016 -106.47361424 258.84331817 -104.18359375 256.51757812 C-104.70308594 255.51339844 -105.22257812 254.50921875 -105.7578125 253.47460938 C-111.23877958 242.76922552 -115.96256317 232.13940468 -119.18359375 220.51757812 C-119.95026367 220.53852539 -120.71693359 220.55947266 -121.50683594 220.58105469 C-124.98228835 220.66422971 -128.45753138 220.71624387 -131.93359375 220.76757812 C-133.14015625 220.80109375 -134.34671875 220.83460938 -135.58984375 220.86914062 C-136.75 220.88203125 -137.91015625 220.89492188 -139.10546875 220.90820312 C-140.1737793 220.92915039 -141.24208984 220.95009766 -142.34277344 220.97167969 C-146.0028654 220.38661858 -146.94177434 219.44325241 -149.18359375 216.51757812 C-149.69152832 213.25415039 -149.69152832 213.25415039 -149.70117188 209.33398438 C-149.70818115 208.61806122 -149.71519043 207.90213806 -149.72241211 207.16452026 C-149.73998923 204.80264269 -149.7283715 202.44196746 -149.71484375 200.08007812 C-149.71753877 198.43627696 -149.72142128 196.79247735 -149.72644043 195.14868164 C-149.73233505 191.70541184 -149.72377403 188.26255741 -149.70507812 184.81933594 C-149.68228817 180.4072412 -149.6954115 175.99611971 -149.71936798 171.58406067 C-149.73382718 168.19023312 -149.72921951 164.79663604 -149.71885681 161.40280151 C-149.71618984 159.7761117 -149.71945828 158.14940091 -149.72877502 156.5227356 C-149.73894317 154.24831784 -149.72343852 151.97547258 -149.70117188 149.70117188 C-149.6979895 148.40751709 -149.69480713 147.1138623 -149.69152832 145.78100586 C-149.09942664 141.97681305 -148.25494789 140.77065018 -145.18359375 138.51757812 C-142.34277344 138.15527344 -142.34277344 138.15527344 -139.10546875 138.34570312 C-137.9453125 138.40371094 -136.78515625 138.46171875 -135.58984375 138.52148438 C-133.78 138.64330078 -133.78 138.64330078 -131.93359375 138.76757812 C-130.10054687 138.86619141 -130.10054687 138.86619141 -128.23046875 138.96679688 C-125.21327916 139.13179943 -122.19852967 139.31607547 -119.18359375 139.51757812 C-119.0134375 138.83808105 -118.84328125 138.15858398 -118.66796875 137.45849609 C-116.97232024 130.93859229 -114.85967554 124.81969924 -112.18359375 118.64257812 C-111.84070313 117.82789063 -111.4978125 117.01320313 -111.14453125 116.17382812 C-109.73051643 112.8600682 -108.33658164 109.76413451 -106.43359375 106.69726562 C-104.85194194 104.35803952 -104.85194194 104.35803952 -105.18359375 100.51757812 C-106.61592866 98.78176678 -106.61592866 98.78176678 -108.62109375 97.26757812 C-109.34296875 96.66558594 -110.06484375 96.06359375 -110.80859375 95.44335938 C-112.43235402 94.12672482 -114.05741559 92.81169392 -115.68359375 91.49804688 C-121.72523168 86.43430226 -121.72523168 86.43430226 -123.68359375 82.51757812 C-121.84434117 71.48206266 -105.10396957 60.09514882 -97.24121094 52.17016602 C-95.19451194 50.10555084 -93.15670491 48.03271622 -91.12597656 45.95239258 C-88.65434108 43.42051965 -86.16825055 40.90373167 -83.6711731 38.39695549 C-82.27269563 36.98582691 -80.88898535 35.5601124 -79.50561523 34.13417053 C-72.41865393 27.07013186 -72.41865393 27.07013186 -68.17773438 26.35546875 C-65.18359375 26.51757812 -65.18359375 26.51757812 -63.21484375 27.66992188 C-62.456875 28.55357422 -62.456875 28.55357422 -61.68359375 29.45507812 C-61.11253906 30.09832031 -60.54148437 30.7415625 -59.953125 31.40429688 C-59.36917969 32.10167969 -58.78523438 32.7990625 -58.18359375 33.51757812 C-57.54808594 34.22527344 -56.91257812 34.93296875 -56.2578125 35.66210938 C-53.68741477 38.53052424 -51.32333305 41.30796918 -49.18359375 44.51757812 C-44.39313041 43.88382033 -40.57698788 41.89184193 -36.30859375 39.76757812 C-17.24086668 30.51757812 -17.24086668 30.51757812 -10.18359375 30.51757812 C-10.23483398 29.7509082 -10.28607422 28.98423828 -10.33886719 28.19433594 C-10.5588589 24.71973004 -10.74656527 21.24410754 -10.93359375 17.76757812 C-11.01480469 16.56101562 -11.09601563 15.35445312 -11.1796875 14.11132812 C-11.26669922 12.37109375 -11.26669922 12.37109375 -11.35546875 10.59570312 C-11.41831055 9.52739258 -11.48115234 8.45908203 -11.54589844 7.35839844 C-11.18359375 4.51757812 -11.18359375 4.51757812 -9.60992432 2.37237549 C-6.30308196 -0.15552511 -4.13941397 0.0101829 0 0 Z M2.81640625 13.51757812 C2.81640625 21.43757813 2.81640625 29.35757813 2.81640625 37.51757812 C0.031695 40.30228937 -0.59495357 40.89802528 -4.0703125 41.87695312 C-4.83601562 42.10189453 -5.60171875 42.32683594 -6.390625 42.55859375 C-7.20917969 42.79255859 -8.02773437 43.02652344 -8.87109375 43.26757812 C-21.1857152 46.97510516 -32.75976117 51.72472209 -43.75390625 58.45117188 C-46.79895752 59.78766544 -48.88983178 59.9110611 -52.18359375 59.51757812 C-54.0546875 58.26757812 -54.0546875 58.26757812 -55.62109375 56.51757812 C-56.20246094 55.88464844 -56.78382813 55.25171875 -57.3828125 54.59960938 C-57.97707031 53.91253906 -58.57132812 53.22546875 -59.18359375 52.51757812 C-60.12138672 51.44056641 -60.12138672 51.44056641 -61.078125 50.34179688 C-62.26433443 48.97578306 -63.44112497 47.60149544 -64.60546875 46.21679688 C-66.27094351 44.29165295 -66.27094351 44.29165295 -69.18359375 42.51757812 C-81.72359375 55.05757812 -94.26359375 67.59757812 -107.18359375 80.51757812 C-102.40532305 86.09222727 -97.96369041 90.39581861 -92.37890625 94.99023438 C-90.18359375 97.51757812 -90.18359375 97.51757812 -89.57421875 100.27148438 C-90.43393178 104.85110954 -92.51379181 108.37412494 -94.80859375 112.39257812 C-101.27927894 124.21000249 -106.0397525 135.80172356 -108.4453125 149.13867188 C-108.68894531 149.92371094 -108.93257812 150.70875 -109.18359375 151.51757812 C-117.7275975 154.36557937 -127.17742303 152.51757812 -136.18359375 152.51757812 C-136.18359375 170.33757812 -136.18359375 188.15757812 -136.18359375 206.51757812 C-122.81859375 207.01257813 -122.81859375 207.01257813 -109.18359375 207.51757812 C-108.64734375 209.84820312 -108.11109375 212.17882812 -107.55859375 214.58007812 C-104.48177927 227.1421287 -99.53809527 238.52426408 -93.0793457 249.70874023 C-90.80622626 253.76680221 -89.41274906 256.73421151 -90.18359375 261.51757812 C-91.36328125 263.35351562 -91.36328125 263.35351562 -93.05859375 264.89257812 C-93.68636719 265.46878906 -94.31414062 266.045 -94.9609375 266.63867188 C-98.96457186 270.02311498 -103.0392703 273.30718672 -107.18359375 276.51757812 C-105.77850276 279.70017663 -104.11438033 281.83106278 -101.65185547 284.27636719 C-100.93125946 284.99681213 -100.21066345 285.71725708 -99.4682312 286.45953369 C-98.69109772 287.2263446 -97.91396423 287.99315552 -97.11328125 288.78320312 C-96.31705353 289.57660095 -95.52082581 290.36999878 -94.70046997 291.18743896 C-92.15783427 293.71888516 -89.60833027 296.24328616 -87.05859375 298.76757812 C-85.33287622 300.48326429 -83.6076102 302.19940474 -81.8828125 303.91601562 C-77.65496343 308.1218206 -73.42145506 312.32186319 -69.18359375 316.51757812 C-68.0701208 315.58256007 -66.95941391 314.64424749 -65.84985352 313.70458984 C-65.23102798 313.18242889 -64.61220245 312.66026794 -63.97462463 312.12228394 C-60.49539406 309.00500574 -57.67394119 305.31459689 -54.7109375 301.71289062 C-52.18359375 299.51757812 -52.18359375 299.51757812 -49.47265625 298.88085938 C-44.64056633 299.81628771 -40.86469285 302.15392773 -36.62109375 304.58007812 C-24.72373519 311.11208524 -11.75097914 316.70859341 1.81640625 318.51757812 C4.6644075 327.06158187 2.81640625 336.5114074 2.81640625 345.51757812 C20.63640625 345.51757812 38.45640625 345.51757812 56.81640625 345.51757812 C57.14640625 336.93757813 57.47640625 328.35757812 57.81640625 319.51757812 C61.83828125 318.25945312 65.86015625 317.00132812 70.00390625 315.70507812 C80.32023242 312.38046857 89.80527654 308.40251962 99.19018555 302.97338867 C106.86082952 298.59987873 106.86082952 298.59987873 111.81640625 299.51757812 C113.65234375 300.69726563 113.65234375 300.69726563 115.19140625 302.39257812 C115.76761719 303.02035156 116.34382812 303.648125 116.9375 304.29492188 C120.32194311 308.29855623 123.60601485 312.37325468 126.81640625 316.51757812 C129.98440699 315.11537164 132.12816293 313.45843646 134.57519531 311.01757812 C135.29564026 310.3034375 136.01608521 309.58929688 136.75836182 308.85351562 C137.52517273 308.08265625 138.29198364 307.31179688 139.08203125 306.51757812 C139.87542908 305.72609375 140.6688269 304.93460937 141.48626709 304.11914062 C143.15964679 302.44712076 144.83050806 300.77257715 146.49902344 299.09570312 C149.06354222 296.52045414 151.63857614 293.9560676 154.21484375 291.39257812 C155.83788152 289.76821928 157.46029906 288.14324043 159.08203125 286.51757812 C160.24439301 285.36128906 160.24439301 285.36128906 161.43023682 284.18164062 C162.49199127 283.11042969 162.49199127 283.11042969 163.57519531 282.01757812 C164.20266663 281.38851563 164.83013794 280.75945312 165.47662354 280.11132812 C167.03090053 278.60943793 167.03090053 278.60943793 166.81640625 276.51757812 C165.1583228 275.04241491 163.43794578 273.63686512 161.69140625 272.26757812 C150.04039521 262.87160148 150.04039521 262.87160148 149.3828125 258.89648438 C149.99047528 254.16109421 152.09643545 250.74804878 154.44140625 246.64257812 C160.58061022 235.45004527 165.2646242 224.15236504 168.078125 211.65429688 C168.81640625 209.51757813 168.81640625 209.51757813 171.81640625 206.51757812 C179.73640625 206.51757812 187.65640625 206.51757812 195.81640625 206.51757812 C195.81640625 188.69757813 195.81640625 170.87757813 195.81640625 152.51757812 C182.94640625 152.02257812 182.94640625 152.02257812 169.81640625 151.51757812 C167.94783218 146.53471394 166.4359211 142.25227722 165.19140625 137.20507812 C163.46201317 131.00473473 161.07607838 125.32903721 158.31640625 119.51757812 C157.93661621 118.71666748 157.55682617 117.91575684 157.16552734 117.09057617 C155.4832815 113.63343379 153.76967706 110.33172551 151.58203125 107.16601562 C149.81640625 104.51757812 149.81640625 104.51757812 149.06640625 101.14257812 C150.80487809 92.73996421 160.25256364 87.37968376 166.81640625 82.51757812 C165.41419976 79.34957739 163.75726459 77.20582145 161.31640625 74.75878906 C160.60226562 74.03834412 159.888125 73.31789917 159.15234375 72.57562256 C158.38148438 71.80881165 157.610625 71.04200073 156.81640625 70.25195312 C156.02492188 69.4585553 155.2334375 68.66515747 154.41796875 67.84771729 C152.74594888 66.17433758 151.07140528 64.50347631 149.39453125 62.83496094 C146.81928227 60.27044216 144.25489573 57.69540823 141.69140625 55.11914062 C140.06704741 53.49610286 138.44206856 51.87368532 136.81640625 50.25195312 C135.66011719 49.08959137 135.66011719 49.08959137 134.48046875 47.90374756 C133.76632812 47.19591125 133.0521875 46.48807495 132.31640625 45.75878906 C131.68734375 45.13131775 131.05828125 44.50384644 130.41015625 43.85736084 C128.90826606 42.30308384 128.90826606 42.30308384 126.81640625 42.51757812 C125.34124304 44.17566157 123.93569325 45.89603859 122.56640625 47.64257812 C113.09286915 59.37099865 113.09286915 59.37099865 108.55078125 59.89257812 C104.17367506 59.45303608 101.89139643 58.17398291 98.19140625 55.83007812 C91.66497483 51.85277338 85.05496225 49.01000968 77.81640625 46.51757812 C77.00429688 46.23269531 76.1921875 45.9478125 75.35546875 45.65429688 C70.54282137 44.00786488 65.67369317 42.56920678 60.78515625 41.16601562 C58.81640625 40.51757812 58.81640625 40.51757812 57.81640625 39.51757812 C57.48640625 30.93757813 57.15640625 22.35757813 56.81640625 13.51757812 C38.99640625 13.51757812 21.17640625 13.51757812 2.81640625 13.51757812 Z " fill="#FAFCFC" transform="translate(226.18359375,76.482421875)"></path><path d="M0 0 C22.0973939 19.14627615 34.61871922 45.46213752 36.734375 74.51171875 C36.99473972 78.36553662 37.20804914 82.22025564 37.3984375 86.078125 C38.01887939 85.73966553 38.63932129 85.40120605 39.27856445 85.05249023 C42.08381699 83.52972889 44.89715 82.02255229 47.7109375 80.515625 C48.68740234 79.98259766 49.66386719 79.44957031 50.66992188 78.90039062 C51.60771484 78.40087891 52.54550781 77.90136719 53.51171875 77.38671875 C54.80783081 76.68760376 54.80783081 76.68760376 56.13012695 75.97436523 C58.3984375 75.078125 58.3984375 75.078125 61.3984375 76.078125 C62.63671875 77.78515625 62.63671875 77.78515625 63.7109375 79.890625 C64.07832031 80.57769531 64.44570313 81.26476562 64.82421875 81.97265625 C65.3984375 84.078125 65.3984375 84.078125 64.73681641 86.03442383 C63.01673178 88.66098866 61.3565264 89.47733698 58.55859375 90.8828125 C57.57697266 91.38425781 56.59535156 91.88570313 55.58398438 92.40234375 C54.55337891 92.91410156 53.52277344 93.42585938 52.4609375 93.953125 C50.45129155 94.97030502 48.44217532 95.9885323 46.43359375 97.0078125 C45.43730957 97.50635742 44.44102539 98.00490234 43.41455078 98.51855469 C39.45278638 100.5671018 35.60736471 102.80442874 31.77124023 105.07861328 C28.98327705 106.25300584 28.18705697 106.06542042 25.3984375 105.078125 C23.28888847 103.21242267 21.34232756 101.34690497 19.390625 99.328125 C18.82393097 98.75481445 18.25723694 98.18150391 17.67337036 97.59082031 C15.86615466 95.76021759 14.06941005 93.9197538 12.2734375 92.078125 C10.46862795 90.23826595 8.66170261 88.40055621 6.8520813 86.56542969 C5.72703456 85.42339119 4.60508701 84.27828979 3.48654175 83.12988281 C0.7222026 80.2396304 0.7222026 80.2396304 -2.6015625 78.078125 C-0.95064472 73.78573877 2.13598316 71.1987335 5.3984375 68.078125 C8.33073943 69.39933328 10.38508649 70.82450697 12.6328125 73.1171875 C13.49326172 73.98730469 13.49326172 73.98730469 14.37109375 74.875 C14.95761719 75.47828125 15.54414063 76.0815625 16.1484375 76.703125 C16.75042969 77.31414062 17.35242188 77.92515625 17.97265625 78.5546875 C19.45249055 80.05801124 20.92608426 81.56747356 22.3984375 83.078125 C23.14173974 57.84714328 15.07381815 36.08395349 -1.6015625 17.078125 C-16.65824222 1.2619095 -38.99951979 -10.60831502 -61.1875 -11.1875 C-63.11717554 -11.19606024 -65.04695827 -11.1905434 -66.9765625 -11.171875 C-67.99024902 -11.16510742 -69.00393555 -11.15833984 -70.04833984 -11.15136719 C-77.06833977 -11.0543217 -83.77288774 -10.6566191 -90.6015625 -8.921875 C-91.59285156 -8.68855469 -92.58414063 -8.45523438 -93.60546875 -8.21484375 C-107.88149259 -4.37870974 -120.76990479 3.09353537 -131.6015625 13.078125 C-132.30410156 13.68914062 -133.00664062 14.30015625 -133.73046875 14.9296875 C-140.87017676 21.49654223 -146.48406579 30.32302674 -150.6015625 39.078125 C-155.16610501 38.53472708 -158.5743801 37.28348679 -162.6015625 35.078125 C-162.04483368 30.56524744 -160.17088706 27.25574861 -157.7265625 23.515625 C-157.32945068 22.90501221 -156.93233887 22.29439941 -156.52319336 21.6652832 C-140.8490985 -1.74423683 -116.21563293 -18.39906091 -88.6015625 -23.921875 C-55.65553963 -28.91441593 -25.68004953 -21.22452043 0 0 Z " fill="#FAFCFC" transform="translate(324.6015625,175.921875)"></path><path d="M0 0 C3.33231162 1.28987376 5.53705437 3.98878363 7.97645569 6.51202393 C8.54314972 7.08533447 9.10984375 7.65864502 9.69371033 8.24932861 C11.50092603 10.07993133 13.29767064 11.92039513 15.09364319 13.76202393 C16.89845273 15.60188298 18.70537808 17.43959272 20.51499939 19.27471924 C21.64004613 20.41675773 22.76199368 21.56185913 23.88053894 22.71026611 C26.64487809 25.60051853 26.64487809 25.60051853 29.96864319 27.76202393 C28.31772541 32.05441016 25.23109753 34.64141542 21.96864319 37.76202393 C19.03634126 36.44081564 16.9819942 35.01564195 14.73426819 32.72296143 C14.16063538 32.1428833 13.58700256 31.56280518 12.99598694 30.96514893 C12.4094635 30.36186768 11.82294006 29.75858643 11.21864319 29.13702393 C10.616651 28.5260083 10.01465881 27.91499268 9.39442444 27.28546143 C7.91459013 25.78213769 6.44099642 24.27267537 4.96864319 22.76202393 C3.80266812 41.54717775 8.72722329 57.52510689 17.96864319 73.76202393 C18.45075256 74.61022705 18.93286194 75.45843018 19.42958069 76.33233643 C31.74091595 96.18703318 52.85263364 110.15680591 75.37733459 115.73468018 C100.4162569 120.83598862 126.55703253 115.29239823 147.96864319 101.76202393 C151.81489165 98.9461099 155.42422428 95.9474422 158.96864319 92.76202393 C159.62606506 92.17550049 160.28348694 91.58897705 160.96083069 90.98468018 C168.23417318 84.11541227 173.35556519 75.56301145 177.96864319 66.76202393 C182.5331857 67.30542184 185.94146079 68.55666213 189.96864319 70.76202393 C189.41191437 75.27490149 187.53796775 78.58440032 185.09364319 82.32452393 C184.69653137 82.93513672 184.29941956 83.54574951 183.89027405 84.17486572 C179.54686928 90.66181262 174.47354071 96.24927348 168.96864319 101.76202393 C168.17844788 102.5638208 167.38825256 103.36561768 166.57411194 104.19171143 C156.73763401 113.62037518 144.70202977 120.10977172 131.96864319 124.76202393 C131.0057135 125.1306958 130.04278381 125.49936768 129.05067444 125.87921143 C104.57569794 134.73805364 75.46937907 132.65797763 51.96864319 121.76202393 C41.0217821 116.51790876 31.87103745 109.97088889 22.96864319 101.76202393 C22.30606506 101.18065674 21.64348694 100.59928955 20.96083069 100.00030518 C-1.54655282 79.2202325 -8.47276569 49.04713083 -10.03135681 19.76202393 C-10.65179871 20.1004834 -11.2722406 20.43894287 -11.91148376 20.78765869 C-14.7167363 22.31042004 -17.53006931 23.81759663 -20.34385681 25.32452393 C-21.32032166 25.85755127 -22.2967865 26.39057861 -23.30284119 26.9397583 C-24.24063416 27.43927002 -25.17842712 27.93878174 -26.14463806 28.45343018 C-27.00871277 28.91950684 -27.87278748 29.3855835 -28.76304626 29.86578369 C-31.03135681 30.76202393 -31.03135681 30.76202393 -34.03135681 29.76202393 C-35.19932556 28.01983643 -35.19932556 28.01983643 -36.21885681 25.88702393 C-36.5630365 25.18835205 -36.90721619 24.48968018 -37.26182556 23.76983643 C-38.03135681 21.76202393 -38.03135681 21.76202393 -38.03135681 18.76202393 C-37.18951843 18.32857666 -36.34768005 17.89512939 -35.48033142 17.44854736 C-32.32816295 15.82461752 -29.17671941 14.19929719 -26.02574158 12.57305908 C-24.66730132 11.87231352 -23.30858254 11.17210761 -21.9495697 10.47247314 C-19.98519348 9.46106827 -18.02185976 8.44766364 -16.05870056 7.43389893 C-15.16138466 6.9727066 -15.16138466 6.9727066 -14.24594116 6.50219727 C-10.65937003 4.64861286 -10.65937003 4.64861286 -7.17762756 2.6083374 C-2.49959171 -0.2928304 -2.49959171 -0.2928304 0 0 Z " fill="#FAFCFC" transform="translate(160.03135681152344,230.23797607421875)"></path><path d="M0 0 C4.29238623 1.65091778 6.8793915 4.73754566 10 8 C8.34772269 12.21681552 5.23534431 15.07464634 2.10083008 18.22143555 C1.49730713 18.83488831 0.89378418 19.44834106 0.27197266 20.0803833 C-1.72324841 22.10477764 -3.72614687 24.12133682 -5.73046875 26.13671875 C-7.12332067 27.54107756 -8.51616831 28.94544061 -9.90901184 30.34980774 C-12.82974481 33.29153951 -15.75509994 36.22859442 -18.68286133 39.16333008 C-22.43128951 42.92273581 -26.16080428 46.70033102 -29.88616467 50.48257732 C-32.75603385 53.38970906 -35.63924618 56.2833232 -38.52626991 59.17341042 C-39.90712923 60.56031962 -41.28298872 61.95222569 -42.65367699 63.34918785 C-44.57317202 65.30283306 -46.51075448 67.23662086 -48.45385742 69.16674805 C-49.01464493 69.74596512 -49.57543243 70.32518219 -50.1532135 70.92195129 C-53.86685149 74.55853678 -56.576786 76.04686648 -62 76 C-63.96723938 74.98806763 -63.96723938 74.98806763 -65.5168457 73.37548828 C-66.11048416 72.77801788 -66.70412262 72.18054749 -67.31575012 71.56497192 C-68.23646553 70.57761551 -68.23646553 70.57761551 -69.17578125 69.5703125 C-69.82701462 68.90538788 -70.47824799 68.24046326 -71.1492157 67.5553894 C-73.22327587 65.42999042 -75.26801888 63.27883094 -77.3125 61.125 C-79.38063967 58.98461825 -81.45433036 56.84975133 -83.52934265 54.71603394 C-84.817907 53.38682964 -86.10128823 52.05257758 -87.37898254 50.71292114 C-88.24579903 49.80725906 -88.24579903 49.80725906 -89.13012695 48.88330078 C-89.63751907 48.34955841 -90.14491119 47.81581604 -90.66767883 47.26589966 C-91.99620563 45.8802805 -91.99620563 45.8802805 -94 45 C-92.34908222 40.70761377 -89.26245434 38.1206085 -86 35 C-82.13671373 36.5847358 -79.71123077 39.05956887 -76.796875 42.0078125 C-76.3142218 42.49329559 -75.8315686 42.97877869 -75.33428955 43.47897339 C-73.80141438 45.02299866 -72.27565996 46.57384824 -70.75 48.125 C-69.70879639 49.17624009 -68.66713459 50.22702657 -67.625 51.27734375 C-65.07800536 53.84633004 -62.53734823 56.42148161 -60 59 C-56.07807669 57.40894082 -53.43687683 54.71276849 -50.51293945 51.75585938 C-49.70980316 50.9555706 -49.70980316 50.9555706 -48.89044189 50.13911438 C-47.12646824 48.37883782 -45.36978525 46.61147782 -43.61328125 44.84375 C-42.38864509 43.61792152 -41.16363881 42.39246271 -39.9382782 41.1673584 C-37.37395362 38.60147089 -34.81302084 36.03226155 -32.25463867 33.46044922 C-28.97098571 30.15977987 -25.68076143 26.86575852 -22.38821125 23.57396698 C-19.85981712 21.04530133 -17.3340346 18.51404093 -14.80913353 15.98188782 C-13.59644922 14.76601635 -12.38315389 13.55075399 -11.16924477 12.33610535 C-9.47658678 10.64128584 -7.78725894 8.94321852 -6.09887695 7.24414062 C-5.59446579 6.74018265 -5.09005463 6.23622467 -4.57035828 5.71699524 C-1.95809588 3.10428215 -1.95809588 3.10428215 0 0 Z " fill="#F9FCFB" transform="translate(298,219)"></path></svg>