<svg version="1.1" xmlns="http://www.w3.org/2000/svg" width="16px" height="16px" fill="currentColor" viewBox="0 0 512 512"><path d="M0 0 C168.96 0 337.92 0 512 0 C512 168.96 512 337.92 512 512 C343.04 512 174.08 512 0 512 C0 343.04 0 174.08 0 0 Z " fill="#DD2C33" transform="translate(0,0)"></path><path d="M0 0 C1.53304831 -0.01564648 1.53304831 -0.01564648 3.0970673 -0.03160906 C4.21816223 -0.02268617 5.33925717 -0.01376328 6.49432468 -0.00457001 C8.28275542 -0.01392995 8.28275542 -0.01392995 10.10731608 -0.02347898 C13.41820515 -0.03669019 16.72818889 -0.03191359 20.03902328 -0.01953411 C23.60898442 -0.01049755 27.17886545 -0.02444644 30.74881077 -0.0354538 C37.74310641 -0.05325916 44.73723056 -0.04938996 51.73153298 -0.03780323 C57.41552479 -0.02877636 63.09946847 -0.02754167 68.78346539 -0.0318985 C69.59188529 -0.03251143 70.4003052 -0.03312436 71.23322268 -0.03375587 C72.8754319 -0.03503475 74.51764111 -0.0363316 76.15985031 -0.03764623 C91.56656178 -0.04905812 106.97317813 -0.03592918 122.379874 -0.01444477 C135.60268799 0.0034234 148.8253615 0.00032564 162.04817295 -0.01811981 C177.39751183 -0.03952163 192.74676727 -0.04795586 208.09611899 -0.03567076 C209.73265428 -0.03439654 211.36918959 -0.03313906 213.00572491 -0.0318985 C213.81096159 -0.0312814 214.61619828 -0.03066429 215.44583608 -0.03002849 C221.12321251 -0.02657327 226.80053607 -0.03240771 232.47790432 -0.04181671 C239.39654632 -0.0530306 246.31500678 -0.05000977 253.23362797 -0.02869374 C256.76441642 -0.01817441 260.29490209 -0.0140761 263.82568836 -0.02729034 C267.65119638 -0.04139113 271.47620762 -0.02456496 275.30169773 -0.00457001 C276.42056195 -0.01349289 277.53942616 -0.02241578 278.69219536 -0.03160906 C283.0495953 0.01274993 286.17934156 0.13426868 290.15097904 2.00845337 C292.71341815 5.53950739 292.65165013 8.72777963 292.58969212 12.92987823 C292.5967865 13.78801967 292.60388089 14.6461611 292.61119026 15.53030682 C292.62881836 18.41110208 292.61064118 21.2905567 292.59260654 24.17133331 C292.59774352 26.23437872 292.60502312 28.29741975 292.61428928 30.36045074 C292.63283959 35.96790621 292.61984162 41.57488759 292.60019898 47.18232346 C292.58384122 53.04479547 292.59262137 58.90723678 292.59771824 64.76972198 C292.6022424 74.61558374 292.58634924 84.46125571 292.55842686 94.3070755 C292.52637361 105.69746796 292.52638971 117.08751807 292.54364163 128.47793484 C292.55949389 139.4257964 292.5527815 150.3735322 292.53570461 161.32138824 C292.52882393 165.98481332 292.52987701 170.64813789 292.53724957 175.31156158 C292.5448989 180.80112821 292.53283028 186.29030426 292.50540066 191.77980423 C292.49850156 193.79703741 292.4984351 195.81430696 292.50561619 197.83153915 C292.51427574 200.58041537 292.49841445 203.32807653 292.47616673 206.07685089 C292.48440749 206.87957019 292.49264826 207.68228949 292.50113875 208.50933361 C292.45054609 211.88445736 292.35428046 213.99885999 290.24592489 216.7069459 C287.53371801 218.83976521 286.31451932 219.00423083 282.90459538 219.00672913 C281.87846307 219.01716012 280.85233077 219.0275911 279.79510355 219.03833818 C278.10660154 219.02495385 278.10660154 219.02495385 276.38398838 219.01129913 C275.1869121 219.0175391 273.98983582 219.02377906 272.75648451 219.03020811 C269.43226454 219.04341947 266.10894625 219.03864262 262.78478074 219.02626324 C259.20052379 219.01722688 255.61634663 219.0311754 252.03210545 219.04218292 C245.01007154 219.05998795 237.98820846 219.0561194 230.96616781 219.04453236 C225.26023763 219.03550608 219.5543554 219.03427054 213.84842014 219.03862762 C212.63119416 219.03954702 212.63119416 219.03954702 211.38937774 219.04048499 C209.74096579 219.04176387 208.09255385 219.04306072 206.44414192 219.04437536 C190.97975683 219.05578697 175.51546652 219.04265837 160.05109698 219.02117389 C146.77623042 219.00330237 133.50150377 219.00640632 120.22663975 219.02484894 C104.8183469 219.04624542 89.41013716 219.05468828 74.00183153 219.04239988 C72.35941634 219.04112566 70.71700113 219.03986818 69.07458591 219.03862762 C68.26644441 219.03801052 67.4583029 219.03739342 66.62567225 219.03675762 C60.92528378 219.03330104 55.22494793 219.03913967 49.5245676 219.04854584 C42.57954682 219.05975366 35.63470692 219.05675157 28.68970692 219.03542286 C25.14486586 219.02489586 21.60032659 219.02081829 18.05548763 219.03401947 C14.2164929 219.04810009 10.37799451 219.03131045 6.53901768 219.01129913 C4.85051567 219.02468346 4.85051567 219.02468346 3.12790251 219.03833818 C1.58870405 219.0226917 1.58870405 219.0226917 0.01841068 219.00672913 C-1.31115524 219.00575501 -1.31115524 219.00575501 -2.66758108 219.00476122 C-5.85852662 218.3299463 -7.05679707 217.04902613 -9.03849697 214.50336456 C-9.43125139 211.56907348 -9.57904137 209.01049144 -9.54643154 206.07685089 C-9.5526715 205.21870946 -9.55891147 204.36056803 -9.56534052 203.47642231 C-9.58131809 200.59580213 -9.5686477 197.71602254 -9.5560751 194.83539581 C-9.56149409 192.77235164 -9.5686155 190.70931133 -9.57731533 188.64627838 C-9.59557795 183.03889129 -9.58846894 177.43179801 -9.57579899 171.82440567 C-9.56568658 165.96193131 -9.57505977 160.09948246 -9.58134365 154.23700714 C-9.58862518 144.39117659 -9.57901905 134.54546598 -9.55998135 124.69965363 C-9.53821172 113.30926941 -9.54526272 101.91917156 -9.56728697 90.52879429 C-9.58542652 80.75715715 -9.58800634 70.98560632 -9.57753229 61.21395779 C-9.57128943 55.37431327 -9.57048354 49.53480345 -9.58367825 43.69516754 C-9.59521504 38.20561665 -9.58725054 32.71643573 -9.56410122 27.2269249 C-9.55880254 25.20968618 -9.56034762 23.19241644 -9.56915188 21.17518997 C-9.58004516 18.42632937 -9.56641928 15.6786623 -9.54643154 12.92987823 C-9.55535443 12.12715894 -9.56427732 11.32443964 -9.57347059 10.49739552 C-9.52568297 7.1209201 -9.431998 5.00851116 -7.32194275 2.29978323 C-4.61503599 0.1702219 -3.40327169 0.00250354 0 0 Z " fill="#FEFAFA" transform="translate(137.03849697113037,165.49663543701172)"></path><path d="M0 0 C39.93 0 79.86 0 121 0 C121.25 45.25 121.25 45.25 121.29785156 59.53613281 C121.3310729 63.76329841 121.3310729 63.76329841 121.36956787 67.99041748 C121.3841789 69.87269924 121.39095321 71.75505176 121.39154053 73.63739014 C121.39395355 76.48952882 121.42125484 79.34045399 121.45410156 82.19238281 C121.44907749 83.03051136 121.44405342 83.86863991 121.43887711 84.73216629 C121.50091795 88.1655403 121.57049373 90.4370845 123.69043255 93.21549892 C126.52421674 95.40503919 127.92198097 95.49652601 131.47206116 95.48774719 C132.58389267 95.49469101 133.69572418 95.50163483 134.84124756 95.50878906 C136.05645081 95.495979 137.27165405 95.48316895 138.52368164 95.4699707 C140.44853645 95.4732563 140.44853645 95.4732563 142.41227722 95.47660828 C145.92886581 95.48202644 149.44492732 95.46262022 152.96142125 95.43850732 C156.64088508 95.41721093 160.320347 95.41780608 163.99986267 95.41581726 C170.17781648 95.40937024 176.35557225 95.38812466 182.53344727 95.35668945 C190.46526651 95.31638292 198.39695677 95.29899912 206.328866 95.28938007 C213.14648452 95.28108002 219.96407567 95.26384352 226.78167033 95.24434257 C228.24541415 95.24029315 229.70915886 95.23655366 231.17290425 95.2331202 C235.98389889 95.22183355 240.79476779 95.20167153 245.60571289 95.17700195 C246.82294037 95.17431305 248.04016785 95.17162415 249.29428101 95.16885376 C250.40329269 95.16169846 251.51230438 95.15454315 252.65492249 95.14717102 C253.62037522 95.14289754 254.58582796 95.13862406 255.58053684 95.13422108 C258.14309822 95.09851967 258.14309822 95.09851967 261 94 C261.33 62.98 261.66 31.96 262 0 C266.29 0 270.58 0 275 0 C275 39.93 275 79.86 275 121 C184.25 121 93.5 121 0 121 C0 81.07 0 41.14 0 0 Z " fill="#D92830" transform="translate(141,250)"></path><path d="M0 0 C90.75 0 181.5 0 275 0 C275 19.14 275 38.28 275 58 C270.71 58 266.42 58 262 58 C261.67 45.79 261.34 33.58 261 21 C257.94302718 19.98100906 255.85600331 19.86699825 252.65492249 19.85282898 C251.5459108 19.84567368 250.43689911 19.83851837 249.29428101 19.83114624 C248.07705353 19.82845734 246.85982605 19.82576843 245.60571289 19.82299805 C244.32422867 19.81642685 243.04274445 19.80985565 241.72242737 19.80308533 C237.47251635 19.78206756 233.22260506 19.77168771 228.97265625 19.76171875 C227.50946979 19.75767088 226.04628353 19.75355394 224.58309746 19.74936867 C217.711347 19.73032503 210.83960725 19.71609011 203.96783549 19.7077567 C196.03321886 19.69797539 188.09888054 19.67162943 180.16436201 19.63125581 C174.03180326 19.60112042 167.89932443 19.58629044 161.76669306 19.58297569 C158.10336513 19.58062296 154.44033482 19.57163372 150.77708626 19.54651451 C146.69243883 19.51895675 142.60841602 19.52305693 138.52368164 19.5300293 C137.30847839 19.51721924 136.09327515 19.50440918 134.84124756 19.49121094 C133.17350029 19.50162666 133.17350029 19.50162666 131.47206116 19.51225281 C130.50623139 19.50986445 129.54040163 19.5074761 128.5453043 19.50501537 C125.38011502 19.87438969 125.38011502 19.87438969 122 24 C121.67 35.22 121.34 46.44 121 58 C81.07 58 41.14 58 0 58 C0 38.86 0 19.72 0 0 Z " fill="#E13138" transform="translate(141,179)"></path><path d="M0 0 C1.04852502 -0.00843994 2.09705005 -0.01687988 3.17734855 -0.02557558 C4.33316604 -0.01956553 5.48898353 -0.01355549 6.67982578 -0.00736332 C7.9046325 -0.01274886 9.12943922 -0.01813439 10.3913613 -0.02368313 C13.7975016 -0.03554388 17.2031547 -0.03387754 20.60927618 -0.02651632 C24.28011426 -0.02179936 27.95089911 -0.0342814 31.62172031 -0.04453373 C38.815647 -0.06175617 46.00948648 -0.06255462 53.20342844 -0.05732083 C59.04906074 -0.05328425 64.89466721 -0.05471658 70.74029827 -0.06006908 C71.98686879 -0.06119172 71.98686879 -0.06119172 73.25862255 -0.06233703 C74.94673503 -0.06386846 76.6348475 -0.06540681 78.32295997 -0.066952 C94.16454305 -0.08068953 110.00607679 -0.07523059 125.84765876 -0.06376678 C140.3492337 -0.05383329 154.85068107 -0.06677485 169.35223632 -0.09070098 C184.23236721 -0.11506728 199.11243861 -0.12470593 213.99258906 -0.11804825 C222.35070286 -0.1145505 230.70871852 -0.11682462 239.06681728 -0.13429928 C246.18203174 -0.14899046 253.29707896 -0.14969731 260.41229003 -0.13222837 C264.0442141 -0.12369032 267.67583903 -0.12163652 271.30774784 -0.13687992 C275.24092924 -0.15318372 279.17364438 -0.13863854 283.10682774 -0.12088871 C284.2604145 -0.13049372 285.41400126 -0.14009872 286.6025452 -0.14999479 C287.65367797 -0.1401805 288.70481074 -0.13036621 289.78779602 -0.12025452 C291.15007156 -0.12009351 291.15007156 -0.12009351 292.53986782 -0.11992925 C295.73355063 0.54108008 296.94140806 1.87089883 298.95681858 4.38031673 C299.41092014 6.85394955 299.41092014 6.85394955 299.34744358 9.58344173 C299.32810764 11.05297298 299.32810764 11.05297298 299.30838108 12.55219173 C299.25810764 14.07586361 299.25810764 14.07586361 299.20681858 15.63031673 C299.18877171 16.66156673 299.17072483 17.69281673 299.15213108 18.75531673 C299.10505581 21.29738123 299.03331405 23.8389674 298.95681858 26.38031673 C294.66681858 26.38031673 290.37681858 26.38031673 285.95681858 26.38031673 C285.95681858 22.09031673 285.95681858 17.80031673 285.95681858 13.38031673 C192.89681858 13.38031673 99.83681858 13.38031673 3.95681858 13.38031673 C3.95681858 76.74031673 3.95681858 140.10031673 3.95681858 205.38031673 C8.24681858 205.38031673 12.53681858 205.38031673 16.95681858 205.38031673 C16.95681858 209.67031673 16.95681858 213.96031673 16.95681858 218.38031673 C13.53930853 218.4882381 10.12520261 218.56759409 6.70681858 218.63031673 C5.73873264 218.66383236 4.77064671 218.69734798 3.77322483 218.73187923 C2.83865452 218.74476986 1.90408421 218.75766048 0.94119358 218.77094173 C0.08235569 218.791889 -0.7764822 218.81283627 -1.66134548 218.8344183 C-5.01954444 218.19417126 -5.9873677 217.1117057 -8.04318142 214.38031673 C-8.43379359 211.43137928 -8.57946155 208.85710683 -8.54438686 205.90911007 C-8.54992126 205.04617952 -8.55545566 204.18324897 -8.56115776 203.29416901 C-8.57479083 200.39738197 -8.55978074 197.50145255 -8.5448904 194.60468197 C-8.54867258 192.53016448 -8.55417179 190.45564952 -8.56126308 188.38114071 C-8.5752472 182.74281921 -8.56402745 177.10480185 -8.54755187 171.46649718 C-8.53372377 165.57286403 -8.54015882 159.67924894 -8.54368496 153.78560543 C-8.54638864 143.88849631 -8.53289712 133.99150836 -8.50973415 124.09442806 C-8.48311614 112.64157689 -8.48137909 101.18892826 -8.49312252 89.73605675 C-8.50388982 78.730544 -8.49772194 67.72510472 -8.48356724 56.71959782 C-8.47779908 52.0302428 -8.47789661 47.34094141 -8.48263264 42.65158558 C-8.48739391 37.13335897 -8.47733598 31.61535505 -8.45567799 26.09717083 C-8.45009862 24.06822555 -8.44965529 22.03925893 -8.45463085 20.01031208 C-8.46055659 17.24813823 -8.44813099 14.48665155 -8.43086147 11.72453976 C-8.43687152 10.91501667 -8.44288156 10.10549358 -8.44907373 9.27143949 C-8.38729395 3.8656499 -8.38729395 3.8656499 -6.83461046 1.67575932 C-4.44507287 -0.05219567 -2.93774257 0.00332957 0 0 Z " fill="#FEFCFC" transform="translate(98.04318141937256,127.61968326568604)"></path><path d="M0 0 C37.95 0 75.9 0 115 0 C115 32.67 115 65.34 115 99 C112.74457878 96.74457878 110.9805744 94.73013844 109.125 92.1875 C108.59519531 91.47980469 108.06539063 90.77210938 107.51953125 90.04296875 C106.27442229 88.36895336 105.0416865 86.68574149 103.8125 85 C98.84164564 79.09002658 91.60082231 74.86243769 85 71 C86.43770951 67.16610796 88.19830545 63.58436131 90.09765625 59.96484375 C93.47222504 52.61675674 93.19745989 41.9677479 91.31640625 34.1640625 C90.37701154 31.94225759 89.31803289 30.01823786 88 28 C87.5875 27.30648437 87.175 26.61296875 86.75 25.8984375 C81.56882985 18.03836687 73.45709874 13.80465029 64.4921875 11.47265625 C54.71875753 9.6190747 45.67952328 11.50065533 37.19140625 16.73046875 C29.58667997 22.39163943 25.53939837 28.92441106 23 38 C22.76281951 40.63656449 22.61870097 43.11732134 22.625 45.75 C22.62661133 46.45374756 22.62822266 47.15749512 22.62988281 47.88256836 C22.7705554 53.89632131 24.11757498 58.69283231 27 64 C27.3815625 64.71285156 27.763125 65.42570312 28.15625 66.16015625 C29.06634291 67.79507316 30.02709848 69.40166179 31 71 C30.39414062 71.32871094 29.78828125 71.65742188 29.1640625 71.99609375 C17.10537816 78.84171609 7.95439259 88.02299054 1 100 C0.67 100 0.34 100 0 100 C0 67 0 34 0 0 Z " fill="#E3353B" transform="translate(275,211)"></path><path d="M0 0 C6.61760731 2.2058691 13.86000046 1.39116267 20.5 -0.375 C26.34115199 -1.5432304 29.99384035 0.13730814 35.07421875 3.0234375 C39.84283429 6.24495882 43.96562805 9.90778759 48 14 C48.57492187 14.56460937 49.14984375 15.12921875 49.7421875 15.7109375 C56.93142357 23.3471727 59.85568276 31.70114481 61 42 C27.67 42 -5.66 42 -40 42 C-38.08315671 26.66525371 -30.28153053 15.83347376 -18.5 6.125 C-6.7168105 -2.56819225 -6.7168105 -2.56819225 0 0 Z " fill="#DF3036" transform="translate(322,291)"></path><path d="M0 0 C6.34732399 3.69181089 11.29040741 9.30872222 13.625 16.3125 C14.65548545 24.72531565 12.00700601 30.70546233 7.4375 37.625 C2.16985261 42.65852972 -3.11617304 44.53286421 -10.375 44.875 C-17.35142743 44.59984828 -22.35741809 42.47284923 -27.19140625 37.41015625 C-31.74981545 31.68743048 -33.95702123 26.1037404 -33.74609375 18.74609375 C-32.74459428 12.17836563 -29.59205529 6.87350327 -24.375 2.8125 C-17.06575449 -2.25681544 -8.27311517 -3.87753216 0 0 Z " fill="#E3353B" transform="translate(342.375,235.6875)"></path><path d="M0 0 C23.1 0 46.2 0 70 0 C70 3.96 70 7.92 70 12 C46.9 12 23.8 12 0 12 C0 8.04 0 4.08 0 0 Z " fill="#FFFFFF" transform="translate(160,282)"></path><path d="M0 0 C14.85 0 29.7 0 45 0 C45 3.96 45 7.92 45 12 C30.15 12 15.3 12 0 12 C0 8.04 0 4.08 0 0 Z " fill="#FEFEFE" transform="translate(160,314)"></path><path d="M0 0 C6.27 0 12.54 0 19 0 C19 3.96 19 7.92 19 12 C12.73 12 6.46 12 0 12 C0 8.04 0 4.08 0 0 Z " fill="#FEFCFC" transform="translate(218,314)"></path></svg>