<svg version="1.1" xmlns="http://www.w3.org/2000/svg" width="16px" height="16px" fill="currentColor" viewBox="0 0 512 512"><path d="M0 0 C168.96 0 337.92 0 512 0 C512 168.96 512 337.92 512 512 C343.04 512 174.08 512 0 512 C0 343.04 0 174.08 0 0 Z " fill="#7746D3" transform="translate(0,0)"></path><path d="M0 0 C1.04141144 -0.00511093 2.08282288 -0.01022186 3.15579224 -0.01548767 C6.59106223 -0.02936327 10.02613113 -0.02842833 13.46142578 -0.02612305 C15.85507278 -0.03001121 18.24871909 -0.03434613 20.6423645 -0.03910828 C25.65743243 -0.04656622 30.67242995 -0.04628235 35.6875 -0.04101562 C42.10551416 -0.03522301 48.52323955 -0.05214933 54.94120598 -0.0753603 C59.88438596 -0.09011206 64.82749664 -0.09096733 69.77069473 -0.08785057 C72.13651221 -0.0883631 74.50233364 -0.09358796 76.86812973 -0.10366249 C80.18050497 -0.11603657 83.49232082 -0.1092288 86.8046875 -0.09765625 C87.77637878 -0.10529999 88.74807007 -0.11294373 89.74920654 -0.12081909 C96.31044228 -0.07030342 102.31558557 0.59867014 107.55517578 4.95825195 C108.00119141 5.53704102 108.44720703 6.11583008 108.90673828 6.7121582 C109.59896484 7.57647461 109.59896484 7.57647461 110.30517578 8.45825195 C112.60728228 11.86742241 113.78380263 14.43197598 113.75878906 18.58422852 C113.75856247 19.8450827 113.75856247 19.8450827 113.7583313 21.13140869 C113.74800873 22.02946228 113.73768616 22.92751587 113.72705078 23.8527832 C113.72422089 24.7793573 113.72139099 25.7059314 113.71847534 26.6605835 C113.70729439 29.6154073 113.68219355 32.56992626 113.65673828 35.5246582 C113.64670579 37.52986215 113.63758041 39.53507086 113.62939453 41.5402832 C113.60736186 46.45185871 113.57284623 51.3632068 113.53173828 56.2746582 C114.63565918 56.25411377 115.73958008 56.23356934 116.87695312 56.21240234 C120.64208847 56.27653792 122.09542616 56.65829607 125.15673828 58.7121582 C126.22794922 59.39084961 126.22794922 59.39084961 127.32080078 60.08325195 C133.03411664 65.74609682 134.94912617 71.1182669 135.02001953 79.15356445 C135.00548257 82.04997145 134.92892698 84.94208316 134.84423828 87.8371582 C134.81911188 89.33777189 134.79630639 90.83842632 134.77587891 92.33911133 C134.72125475 95.98515189 134.63522664 99.62963891 134.53173828 103.2746582 C130.24173828 103.2746582 125.95173828 103.2746582 121.53173828 103.2746582 C121.47566406 100.07842773 121.47566406 100.07842773 121.41845703 96.81762695 C121.37223571 94.7523374 121.32100463 92.68722867 121.26928711 90.62207031 C121.23604827 89.18761192 121.20801293 87.75302308 121.18530273 86.31835938 C121.15173557 84.25505013 121.09942415 82.19293518 121.04345703 80.13012695 C121.01727295 78.88900146 120.99108887 77.64787598 120.96411133 76.36914062 C120.78066715 73.3685087 120.78066715 73.3685087 119.37996006 71.60506248 C116.73240827 69.699277 114.77274353 69.89706397 111.52781677 69.89370728 C110.27287415 69.8852478 109.01793152 69.87678833 107.72496033 69.86807251 C106.33169426 69.87390557 104.93842948 69.88005008 103.54516602 69.88647461 C102.08000293 69.8824102 100.61484291 69.87706905 99.14968872 69.87054443 C95.16837787 69.85685055 91.18729983 69.86217761 87.20598483 69.87168169 C83.04422287 69.87926616 78.88248111 69.87223619 74.72071838 69.86752319 C67.73231417 69.8620627 60.74400502 69.86926556 53.75561523 69.88354492 C45.66836894 69.89987842 37.58134944 69.8945791 29.49410862 69.87806571 C22.55732414 69.86446677 15.62060808 69.86252316 8.68381459 69.87038171 C4.53773692 69.87506621 0.39176598 69.87566175 -3.75430489 69.86577225 C-7.65068216 69.85712771 -11.54676596 69.86307803 -15.44311142 69.88045502 C-16.87583236 69.88443311 -18.30857786 69.88326331 -19.74128914 69.87666702 C-21.69129194 69.8685145 -23.64134851 69.88053304 -25.59132385 69.89370728 C-26.68436105 69.89483835 -27.77739824 69.89596943 -28.90355778 69.89713478 C-29.74991008 70.02171751 -30.59626238 70.14630024 -31.46826172 70.2746582 C-33.88996851 73.90721838 -33.77271202 75.80044516 -33.88232422 80.13012695 C-33.90169037 80.79176346 -33.92105652 81.45339996 -33.94100952 82.13508606 C-34.00068859 84.24397984 -34.04714259 86.35292857 -34.09326172 88.4621582 C-34.13145238 89.89382235 -34.17050475 91.32546379 -34.21044922 92.75708008 C-34.30800024 96.26281985 -34.38765633 99.76832397 -34.46826172 103.2746582 C-38.75826172 103.2746582 -43.04826172 103.2746582 -47.46826172 103.2746582 C-47.5608677 99.18456076 -47.64025674 95.09718517 -47.68798828 91.0065918 C-47.70791514 89.61974664 -47.73506731 88.23298339 -47.77001953 86.84643555 C-47.98836659 77.95200401 -48.20111161 68.76237598 -42.05541992 61.63647461 C-37.09718694 57.2078079 -32.92593528 56.17708347 -26.46826172 56.2746582 C-26.4944458 55.04424805 -26.52062988 53.81383789 -26.54760742 52.54614258 C-26.63853037 47.95420725 -26.69566343 43.3623505 -26.74291992 38.76977539 C-26.76796855 36.78721712 -26.80201756 34.80475031 -26.84545898 32.82250977 C-26.90653791 29.96257894 -26.93456801 27.10387529 -26.95654297 24.2434082 C-26.9823494 23.36599976 -27.00815582 22.48859131 -27.03474426 21.58459473 C-27.03758931 15.2544736 -25.44207972 11.20624222 -21.46826172 6.2746582 C-15.14603062 0.11453559 -8.36007033 -0.02122634 0 0 Z " fill="#FBFAFD" transform="translate(205.46826171875,331.725341796875)"></path><path d="M0 0 C15.81073343 11.30176321 27.29933144 24.71324813 35.41015625 42.46875 C35.41015625 43.12875 35.41015625 43.78875 35.41015625 44.46875 C36.58771484 43.74558594 36.58771484 43.74558594 37.7890625 43.0078125 C38.83964844 42.37617188 39.89023437 41.74453125 40.97265625 41.09375 C42.00519531 40.46726563 43.03773438 39.84078125 44.1015625 39.1953125 C53.30503942 34.39255359 65.26905611 33.43641724 75.27734375 36.49609375 C88.00156486 41.52174344 97.22351955 50.21946837 102.84765625 62.64453125 C105.29694963 68.67730784 106.7585816 74.01605911 107.41015625 80.46875 C107.94793701 80.63890625 108.48571777 80.8090625 109.03979492 80.984375 C128.70890948 87.29662258 146.67071864 95.76780931 157.41015625 114.46875 C158.95243559 117.74186321 160.23271935 121.04942567 161.41015625 124.46875 C161.80203125 125.520625 162.19390625 126.5725 162.59765625 127.65625 C167.91812835 146.0732688 165.13921109 166.17275054 156.22265625 182.84375 C146.53297371 198.18921291 131.50762099 206.89998825 114.19287109 211.28320312 C99.67290182 214.29318766 85.11275005 213.79954793 70.34765625 213.65625 C67.63087239 213.63943912 64.91407425 213.62728136 62.19726562 213.61523438 C55.60135881 213.58248486 49.00584912 213.53087434 42.41015625 213.46875 C42.41015625 209.17875 42.41015625 204.88875 42.41015625 200.46875 C45.01083984 200.45473145 45.01083984 200.45473145 47.6640625 200.44042969 C53.45965307 200.40458549 59.2549304 200.35059224 65.05024719 200.28484726 C68.55630074 200.24571172 72.06211589 200.21336064 75.56835938 200.19775391 C109.0955786 200.15811983 109.0955786 200.15811983 137.890625 184.25390625 C149.85802332 170.19452056 151.71818781 154.29647175 150.41015625 136.46875 C148.00700565 122.81885459 140.67210625 113.00486517 129.63671875 104.9453125 C120.18968025 98.68043433 109.30904718 95.0859043 98.40625 92.27734375 C96.41015625 91.46875 96.41015625 91.46875 94.41015625 88.46875 C94.07161251 86.43748756 93.74065669 84.40420018 93.47363281 82.36230469 C92.13949045 72.17544197 89.84816887 63.37475262 82.16015625 56.03125 C74.10336049 49.9622663 65.37004015 48.08441189 55.41015625 49.46875 C49.44904406 51.29323709 45.42829855 54.24527947 41.22265625 58.78125 C38.474537 61.70702544 37.72534239 62.39520657 33.66015625 63.34375 C29.26601877 62.16071299 28.67909068 60.33717088 26.41015625 56.46875 C25.42382953 54.2607532 24.4873781 52.029913 23.59765625 49.78125 C19.72702659 40.39873429 14.67166129 32.40234104 7.6953125 25.02734375 C6.41015625 23.46875 6.41015625 23.46875 6.41015625 21.46875 C5.81460938 21.19546875 5.2190625 20.9221875 4.60546875 20.640625 C2.48368427 19.50799984 1.03268789 18.35212128 -0.71484375 16.71875 C-17.83873044 1.80322925 -39.9412657 -2.88506197 -62.05664062 -1.75146484 C-68.47061453 -1.19388924 -74.49183889 0.47291375 -80.58984375 2.46875 C-81.53214844 2.76910156 -82.47445312 3.06945312 -83.4453125 3.37890625 C-102.27282895 10.12178423 -116.40287334 26.82486881 -124.90698242 44.35180664 C-130.57264927 56.63923066 -132.1168173 67.83200518 -131.99975586 81.2578125 C-132.05875945 88.73241128 -132.05875945 88.73241128 -134.84375 92.59375 C-137.41190313 94.34725427 -139.08651857 95.21634303 -142.08984375 95.84375 C-155.69439375 99.45809313 -166.90287089 107.39941832 -174.046875 119.48046875 C-180.82785454 132.61325191 -181.95299195 148.27315977 -178.02734375 162.53125 C-172.88539003 176.52381396 -163.8615095 186.10215107 -150.71484375 192.84375 C-149.78007202 193.32654419 -149.78007202 193.32654419 -148.82641602 193.8190918 C-135.50602539 200.23575595 -121.80460211 199.99885205 -107.33984375 200.15625 C-105.22654203 200.18947801 -103.11325983 200.22397259 -101 200.25976562 C-95.86338993 200.34403854 -90.72681923 200.41114203 -85.58984375 200.46875 C-85.58984375 204.75875 -85.58984375 209.04875 -85.58984375 213.46875 C-91.42070826 213.54390987 -97.25127982 213.59782012 -103.08251953 213.63354492 C-105.05880659 213.64846574 -107.03506154 213.66880972 -109.01123047 213.69506836 C-134.32350155 214.02254827 -156.00309541 209.99274804 -175.171875 192.04296875 C-189.21398529 177.0934523 -194.44639139 159.74631029 -193.96875 139.58984375 C-193.10166373 122.97845986 -184.75626075 107.55297896 -172.58984375 96.46875 C-164.69148337 90.28083239 -156.00471031 85.90017573 -146.58984375 82.46875 C-146.55117187 80.90640625 -146.55117187 80.90640625 -146.51171875 79.3125 C-145.49554617 50.51755636 -133.53674248 25.08398373 -112.63671875 5.1640625 C-108.35405421 1.25960023 -103.65290958 -1.73601574 -98.58984375 -4.53125 C-97.44515625 -5.20220703 -97.44515625 -5.20220703 -96.27734375 -5.88671875 C-66.65943673 -22.14654946 -27.46145636 -18.94121399 0 0 Z " fill="#FBFAFE" transform="translate(270.58984375,92.53125)"></path><path d="M0 0 C0.89865784 -0.00845947 1.79731567 -0.01691895 2.72320557 -0.02563477 C4.19839409 -0.01652573 4.19839409 -0.01652573 5.7033844 -0.00723267 C6.74102936 -0.01248962 7.77867432 -0.01774658 8.84776306 -0.02316284 C12.28619838 -0.0363929 15.72417268 -0.02761324 19.16261292 -0.01748657 C21.54771005 -0.01950659 23.93280659 -0.02241742 26.31790161 -0.02618408 C31.32064179 -0.03061165 36.32322145 -0.02416289 41.32594299 -0.01016235 C47.7433346 0.00692032 54.16034957 -0.0029034 60.57772732 -0.02087975 C65.50446415 -0.03171369 70.43111152 -0.02827282 75.35785103 -0.02049637 C77.72417813 -0.01849281 80.09051331 -0.02095906 82.45683098 -0.02793503 C85.763193 -0.03554185 89.06894303 -0.02395502 92.3752594 -0.00723267 C93.35669418 -0.01330536 94.33812897 -0.01937805 95.3493042 -0.02563477 C96.25078186 -0.01717529 97.15225952 -0.00871582 98.08105469 0 C98.86252585 0.00113108 99.64399702 0.00226215 100.44914913 0.00342751 C102.60401917 0.38095093 102.60401917 0.38095093 106.60401917 3.38095093 C106.60401917 16.58095093 106.60401917 29.78095093 106.60401917 43.38095093 C68.98401917 43.38095093 31.36401917 43.38095093 -7.39598083 43.38095093 C-7.39598083 30.18095093 -7.39598083 16.98095093 -7.39598083 3.38095093 C-4.02085237 0.00582246 -4.02085237 0.00582246 0 0 Z " fill="#6D3FC9" transform="translate(199.39598083496094,344.6190490722656)"></path><path d="M0 0 C6.13924894 4.854023 10.11286351 10.65721948 11.28125 18.484375 C11.62375441 27.09117929 9.35714851 33.71542512 4.65234375 40.83984375 C0.55673196 44.75342835 -4.32517278 48.52734375 -10.16015625 48.52734375 C-10.16015625 86.47734375 -10.16015625 124.42734375 -10.16015625 163.52734375 C-14.12015625 163.52734375 -18.08015625 163.52734375 -22.16015625 163.52734375 C-22.16015625 125.57734375 -22.16015625 87.62734375 -22.16015625 48.52734375 C-25.62515625 48.03234375 -25.62515625 48.03234375 -29.16015625 47.52734375 C-36.48019633 43.64795342 -41.29628632 37.46994203 -43.76171875 29.609375 C-45.24795316 21.84307168 -44.78086373 14.7650467 -40.83984375 7.8515625 C-30.56899276 -6.36042899 -14.65606844 -9.99156926 0 0 Z " fill="#FDFCFE" transform="translate(265.16015625,160.47265625)"></path><path d="M0 0 C6.07368419 4.76784209 10.59163631 11.57504792 11.6953125 19.30078125 C12.15060546 27.66379403 9.94480107 35.58337125 4.4765625 42.046875 C0.22721925 45.97379727 -3.07199119 47.44658998 -8.65625 49.83984375 C-8.98625 71.28984375 -9.31625 92.73984375 -9.65625 114.83984375 C-13.94625 114.83984375 -18.23625 114.83984375 -22.65625 114.83984375 C-22.65625 93.38984375 -22.65625 71.93984375 -22.65625 49.83984375 C-24.96625 49.17984375 -27.27625 48.51984375 -29.65625 47.83984375 C-36.27493232 43.36110736 -41.92783844 37.81712786 -43.65625 29.83984375 C-44.74482635 20.8353093 -44.13377901 13.26700173 -38.65625 5.83984375 C-28.54951621 -5.53831284 -13.18308864 -8.2394304 0 0 Z " fill="#FCFBFE" transform="translate(307.65625,209.16015625)"></path><path d="M0 0 C7.78569631 4.13795341 13.20240689 9.91972067 16 18.3125 C16.82275906 27.35109598 16.51369355 34.8543638 11 42.3125 C6.36590762 47.43133008 2.51120034 49.52198557 -4 52.3125 C-4.33 73.7625 -4.66 95.2125 -5 117.3125 C-9.29 117.3125 -13.58 117.3125 -18 117.3125 C-18 95.8625 -18 74.4125 -18 52.3125 C-19.98 51.6525 -21.96 50.9925 -24 50.3125 C-30.4021221 46.71130632 -35.23901481 41.9804142 -37.875 35.0625 C-40.46033158 25.80231236 -39.54181879 18.49869779 -34.9140625 10.0546875 C-27.01801945 -1.25760275 -12.86801639 -5.40544226 0 0 Z " fill="#FCFBFE" transform="translate(218,206.6875)"></path><path d="M0 0 C4.43118719 2.13646525 7.2290203 4.37577522 9 9 C9.70952366 13.62265413 10.0791694 17.97475876 7.828125 22.19921875 C5.06671814 25.5940411 2.36512024 28.06461709 -2 29 C-6.84275415 29.46121468 -8.99497747 29.5309553 -13.3125 27.25 C-17.23652863 23.96476673 -19.63069544 21.17844092 -20.23828125 15.94921875 C-20.41915946 10.43719317 -19.78759517 7.29943235 -16 3 C-11.49597957 -1.09456403 -5.75025959 -0.7599462 0 0 Z " fill="#7748D2" transform="translate(212,218)"></path><path d="M0 0 C5.34740414 1.95385921 8.45618143 4.91236287 11 10 C11.80889711 16.51095871 10.90069977 20.7287841 7 26 C3.11494252 29.64959945 -1.24512358 29.5053663 -6.33984375 29.34765625 C-10.1549205 28.84906325 -12.22388218 27.63731193 -15 25 C-18.30154375 20.26778729 -18.89608574 15.60808715 -18 10 C-14.24297249 2.34144392 -8.40400378 -1.37825662 0 0 Z " fill="#7E4DD9" transform="translate(252,168)"></path><path d="M0 0 C2.99417353 2.55385389 5.3603812 5.2832624 7.125 8.8125 C7.49881854 14.41977817 7.30990827 17.98022538 4.125 22.8125 C-0.02618443 26.75080318 -2.70333816 27.6114202 -8.25 28.125 C-13.82883601 27.64406586 -16.57063336 25.25416839 -20.25 21.1875 C-22.45239329 16.61329855 -22.67843315 12.80352414 -21.875 7.8125 C-17.47861371 -1.14310171 -9.16014384 -3.78353767 0 0 Z " fill="#7D4CD8" transform="translate(298.875,219.1875)"></path></svg>