<svg version="1.1" xmlns="http://www.w3.org/2000/svg" width="16px" height="16px" fill="currentColor" viewBox="0 0 512 512"><path d="M0 0 C168.96 0 337.92 0 512 0 C512 168.96 512 337.92 512 512 C343.04 512 174.08 512 0 512 C0 343.04 0 174.08 0 0 Z " fill="#3F52D5" transform="translate(0,0)"></path><path d="M0 0 C1.40557159 0.00515121 1.40557159 0.00515121 2.83953857 0.01040649 C41.16506933 0.17447615 87.09542326 2.33457025 117.59375 28.8828125 C122.89585405 34.23793759 128.43124 40.98874385 129.17800903 48.74946594 C129.17356781 49.62660751 129.16912659 50.50374908 129.16455078 51.4074707 C129.16432419 52.90846062 129.16432419 52.90846062 129.16409302 54.43977356 C129.15377045 55.5076561 129.14344788 56.57553864 129.1328125 57.67578125 C129.1299826 58.77850876 129.12715271 59.88123627 129.12423706 61.01737976 C129.11305981 64.53253114 129.08795937 68.04742589 129.0625 71.5625 C129.05246704 73.94856402 129.04334174 76.33463205 129.03515625 78.72070312 C129.01312845 84.56390066 128.97861513 90.40690685 128.9375 96.25 C124.6475 96.25 120.3575 96.25 115.9375 96.25 C115.6075 89.32 115.2775 82.39 114.9375 75.25 C113.65875 76.24 112.38 77.23 111.0625 78.25 C100.0753438 85.93321703 86.85475062 90.92237103 73.9375 94.25 C72.10058594 94.73726562 72.10058594 94.73726562 70.2265625 95.234375 C36.41142049 103.72284898 0.43552651 104.64275323 -34.0625 100.25 C-34.87348145 100.14816406 -35.68446289 100.04632813 -36.52001953 99.94140625 C-61.06509011 96.7340649 -87.41902191 91.24616983 -107.0625 75.25 C-107.20184618 84.76008748 -107.30829521 94.26982071 -107.37337303 103.78070831 C-107.40461587 108.19759822 -107.44695768 112.613787 -107.51513672 117.03027344 C-107.58058393 121.29675635 -107.616259 125.56256719 -107.63176346 129.82951355 C-107.64280467 131.45300368 -107.66436622 133.07645919 -107.69688034 134.69966125 C-108.09988655 146.17046283 -108.09988655 146.17046283 -102.59510803 155.89476013 C-84.61420574 171.79473922 -58.19725644 177.25244017 -35.0625 180.25 C-34.31371582 180.35296387 -33.56493164 180.45592773 -32.79345703 180.56201172 C-20.75135746 182.16576704 -8.75400939 182.4330563 3.375 182.4375 C4.09284668 182.43849701 4.81069336 182.43949402 5.55029297 182.44052124 C15.05873959 182.439025 24.45891387 182.06079745 33.9375 181.25 C35.10926777 185.64514279 35.00398728 189.72886481 34.9375 194.25 C27.81378269 195.09243672 20.78376628 195.42239929 13.61328125 195.453125 C12.54998093 195.45882507 11.4866806 195.46452515 10.39115906 195.47039795 C8.14644345 195.47979595 5.90171436 195.48636109 3.65698242 195.49023438 C0.30426294 195.49984446 -3.04781698 195.53087894 -6.40039062 195.5625 C-25.03039969 195.65499605 -43.43735378 194.27024389 -61.5 189.4375 C-62.49169189 189.17960693 -63.48338379 188.92171387 -64.50512695 188.65600586 C-79.70943267 184.59322204 -94.71635748 179.29427543 -107.0625 169.25 C-107.15530748 178.14278795 -107.22631914 187.03540839 -107.26974869 195.92857552 C-107.29059606 200.05835235 -107.3188609 204.18779709 -107.36425781 208.31738281 C-107.40781833 212.30501429 -107.43165855 216.29232696 -107.44200897 220.28017807 C-107.44938213 221.7992034 -107.46378042 223.3182119 -107.48542023 224.83710098 C-107.51459175 226.97006761 -107.51845054 229.10172827 -107.51660156 231.23486328 C-107.52548401 232.4473172 -107.53436646 233.65977112 -107.54351807 234.90896606 C-106.68805654 240.85079278 -102.94097352 244.92592486 -98.43359375 248.609375 C-95.34204252 250.74850435 -92.11420301 252.58631767 -88.8125 254.375 C-87.91954224 254.86202393 -87.91954224 254.86202393 -87.00854492 255.35888672 C-77.81225197 260.17279097 -67.99911057 262.99487622 -57.9375 265.375 C-56.29998779 265.76401489 -56.29998779 265.76401489 -54.62939453 266.16088867 C-45.79753199 268.19756064 -37.10010293 269.57953223 -28.0625 270.25 C-26.5933313 270.37918823 -26.5933313 270.37918823 -25.09448242 270.51098633 C-12.94284243 271.47731447 -0.80661917 271.36137032 11.375 271.3125 C13.57096252 271.30747269 15.76692615 271.30291197 17.96289062 271.29882812 C23.28778528 271.28792534 28.61263724 271.27128574 33.9375 271.25 C35.03186179 275.38509713 35.00877804 278.97331787 34.9375 283.25 C-8.77032702 291.06993071 -67.96201463 285.99072763 -105.0625 260.25 C-106.0525 259.59 -107.0425 258.93 -108.0625 258.25 C-108.02438137 265.83929291 -107.96493043 273.42816795 -107.87859726 281.01706123 C-107.83916697 284.54134041 -107.80695718 288.06537141 -107.79150391 291.58984375 C-107.77339674 295.64623752 -107.72342678 299.70170488 -107.671875 303.7578125 C-107.67064636 305.01739777 -107.66941772 306.27698303 -107.66815186 307.57473755 C-107.53235429 316.20504358 -107.53235429 316.20504358 -103.0625 323.25 C-102.54171875 323.85585938 -102.0209375 324.46171875 -101.484375 325.0859375 C-72.39355093 351.86580826 -20.74233072 352.53815475 15.9375 351.25 C47.57883729 349.9101829 86.69085477 344.85665964 109.9375 321.25 C114.04708767 322.70044271 117.37008745 324.76110752 120.9375 327.25 C114.60382832 341.28342941 96.37615709 348.13398195 82.9375 353.25 C74.16531762 356.45773833 65.36942443 358.72278372 56.1875 360.4375 C55.36830078 360.59234863 54.54910156 360.74719727 53.70507812 360.90673828 C36.99660577 363.83040281 20.2638631 364.60056271 3.32983398 364.56567383 C0.13816113 364.56251303 -3.05258113 364.58609356 -6.24414062 364.61132812 C-24.64962025 364.66872944 -42.85123296 363.03680051 -60.75 358.5625 C-61.77907471 358.30831299 -62.80814941 358.05412598 -63.8684082 357.79223633 C-83.0631479 352.84205298 -106.25900702 344.69460905 -117.4609375 327.046875 C-120.00729031 322.17088025 -121.18485362 317.97582296 -121.19672108 312.53223038 C-121.20117892 311.58171618 -121.20563676 310.63120198 -121.21022969 309.65188432 C-121.21004533 308.6106547 -121.20986097 307.56942509 -121.20967102 306.49664307 C-121.21334771 305.38814365 -121.2170244 304.27964424 -121.2208125 303.13755393 C-121.23185738 299.40973183 -121.23569454 295.68193759 -121.23950195 291.95410156 C-121.24576592 289.28672113 -121.25239982 286.61934368 -121.25941467 283.95196533 C-121.27916391 275.93869847 -121.28924267 267.92543037 -121.29814246 259.91214526 C-121.3025273 256.13759379 -121.30789355 252.36304371 -121.31313133 248.58849335 C-121.33014096 236.03992631 -121.34463542 223.49136015 -121.35188007 210.94278336 C-121.35378993 207.6874415 -121.35571027 204.43209964 -121.35766602 201.17675781 C-121.35839163 199.96312772 -121.35839163 199.96312772 -121.3591319 198.72497985 C-121.36743334 185.61647933 -121.39277337 172.50807004 -121.42524669 159.39960936 C-121.45832102 145.93873454 -121.47632911 132.47790609 -121.47952431 119.01699042 C-121.48168891 111.46022619 -121.49043026 103.90359504 -121.51598549 96.34687042 C-121.5376975 89.91179431 -121.54574045 83.47688361 -121.53601871 77.04177502 C-121.53147555 73.75967613 -121.53554524 70.47798959 -121.55278015 67.19592285 C-121.57043792 63.63409055 -121.56342191 60.07312401 -121.55024719 56.5112915 C-121.56121644 55.47898478 -121.57218568 54.44667805 -121.58348733 53.3830893 C-121.49325882 43.27870327 -117.62397505 37.0312304 -110.79296875 29.765625 C-95.0120069 15.22636973 -73.45462998 8.86821338 -52.9375 4.625 C-51.95531494 4.41858887 -50.97312988 4.21217773 -49.96118164 3.99951172 C-33.38032931 0.71191742 -16.86309392 -0.10168454 0 0 Z " fill="#FBFBFE" transform="translate(217.0625,76.75)"></path><path d="M0 0 C0.77934402 -0.01272446 1.55868805 -0.02544891 2.36164856 -0.03855896 C3.20745987 -0.03203308 4.05327118 -0.0255072 4.92471313 -0.01878357 C5.82274155 -0.02739914 6.72076996 -0.03601471 7.64601135 -0.04489136 C10.61501889 -0.06759603 13.58308581 -0.06080325 16.55215454 -0.05174255 C18.61714967 -0.05697683 20.6821424 -0.06325259 22.74713135 -0.07052612 C27.07645918 -0.08093918 31.40545853 -0.0763568 35.73477173 -0.06175232 C41.27893057 -0.04457956 46.8220516 -0.06803678 52.36609459 -0.10324192 C56.63155975 -0.12522109 60.89677692 -0.12377286 65.16228104 -0.11547661 C67.20599123 -0.11465706 69.24971962 -0.12152107 71.29337692 -0.13624763 C74.15420676 -0.15369907 77.01317633 -0.13914512 79.87393188 -0.11643982 C80.71569473 -0.12813202 81.55745758 -0.13982422 82.42472839 -0.15187073 C88.34765639 -0.05639294 90.87537965 1.27772538 95.02871704 5.5146637 C96.55632395 7.24388371 98.03734167 9.01550703 99.46621704 10.8271637 C102.79178935 14.99822049 106.20919625 19.02443808 109.81387329 22.95606995 C111.02871704 24.5146637 111.02871704 24.5146637 111.02871704 26.5146637 C111.97231079 26.39284729 111.97231079 26.39284729 112.93496704 26.26856995 C113.79090454 26.20540588 114.64684204 26.14224182 115.52871704 26.0771637 C116.36402954 25.99595276 117.19934204 25.91474182 118.05996704 25.83106995 C121.2786821 26.57222144 122.1048097 27.26393461 124.47344971 29.44355774 C127.79942628 32.45952015 131.23471059 35.25751509 134.75854492 38.03913879 C144.94070382 46.56938476 153.27234888 54.26944496 154.50699806 68.19961166 C154.86642892 74.81804676 154.7238978 81.40899693 154.45957232 88.02764797 C154.32466072 92.019882 154.32211278 96.01250605 154.30322266 100.00666809 C154.25399414 106.68596228 154.12230544 113.35905053 153.92861938 120.03565979 C153.65545565 129.45556507 153.53392878 138.87310555 153.4418385 148.29628325 C153.31034235 160.92054358 153.13961275 173.54764293 152.78878784 186.1678791 C152.73565448 188.17669607 152.69637873 190.18586449 152.6574707 192.19500732 C152.62010803 193.38594498 152.58274536 194.57688263 152.54425049 195.8039093 C152.51714304 196.84055096 152.49003559 197.87719261 152.4621067 198.94524765 C152.02871704 201.5146637 152.02871704 201.5146637 150.82149315 203.34735584 C148.39074255 204.93006004 146.72319292 204.89483975 143.82876587 204.90234375 C142.21356552 204.9172007 142.21356552 204.9172007 140.56573486 204.93235779 C139.38433929 204.92785614 138.20294373 204.92335449 136.98574829 204.91871643 C135.11963394 204.92901131 135.11963394 204.92901131 133.21582031 204.93951416 C129.80249833 204.9546965 126.38972163 204.95627175 122.9764061 204.95057178 C120.12833327 204.94748475 117.28031008 204.95356684 114.4322443 204.95961052 C107.71468552 204.97366396 100.99725389 204.97208737 94.2796936 204.96070862 C87.34551438 204.94922263 80.41172171 204.96330893 73.47759342 204.99010509 C67.52676446 205.01224184 61.57605701 205.0189042 55.62518978 205.01302868 C52.06979556 205.00965345 48.51464922 205.0121114 44.95928955 205.02927971 C40.99659998 205.04757949 37.03438817 205.03358257 33.07168579 205.01637268 C31.29959244 205.03087463 31.29959244 205.03087463 29.49169922 205.04566956 C27.87649887 205.03091835 27.87649887 205.03091835 26.22866821 205.01586914 C24.82278694 205.01555521 24.82278694 205.01555521 23.38850403 205.01523495 C21.02871704 204.5146637 21.02871704 204.5146637 19.22752953 202.9178791 C17.60994381 199.67516436 17.65103547 197.18502821 17.64776611 193.56201172 C17.64308614 192.86242326 17.63840617 192.16283481 17.63358438 191.4420467 C17.62161942 189.09813954 17.63109707 186.75481543 17.64053345 184.41090393 C17.63646844 182.73047036 17.63112695 181.05003947 17.62460327 179.36961365 C17.61091649 174.8056785 17.61623365 170.24194659 17.62574053 165.67800784 C17.63332881 160.90546029 17.62629395 156.1329303 17.62158203 151.36038208 C17.61612259 143.34642914 17.62332161 135.33255913 17.63760376 127.31861877 C17.6539362 118.04702376 17.64863822 108.7756266 17.63212454 99.50403637 C17.6185217 91.54896805 17.61658396 83.59395936 17.62444055 75.63888317 C17.62912297 70.88525432 17.62972621 66.13171854 17.61983109 61.37809563 C17.61118096 56.91045594 17.6171474 52.44307203 17.63451385 47.97546005 C17.63848894 46.33352522 17.63732725 44.69156894 17.63072586 43.04964256 C17.62256044 40.81291268 17.63277018 38.57700889 17.64776611 36.34033203 C17.64889719 35.08727988 17.65002827 33.83422773 17.65119362 32.54320431 C18.02871704 29.5146637 18.02871704 29.5146637 19.35676861 27.61297989 C22.12739912 25.79293072 24.80346472 26.11040597 28.07046509 26.08229065 C28.78291382 26.072099 29.49536255 26.06190735 30.22940063 26.05140686 C32.58315846 26.02122419 34.9365097 26.01200323 37.29043579 26.00294495 C38.92283995 25.9861021 40.5552311 25.96795239 42.18760681 25.94854736 C46.48327573 25.9009981 50.77889196 25.87122078 55.07473755 25.84510803 C59.45859182 25.81532724 63.8422644 25.76878844 68.22598267 25.72364807 C76.82680497 25.63755896 85.42764372 25.57023882 94.02871704 25.5146637 C90.98574205 20.86680733 87.5938536 15.72515242 82.11553192 13.86507034 C76.71446649 12.88245189 71.23676464 13.10228779 65.77090454 13.22169495 C64.21237248 13.21798633 62.65384424 13.20933087 61.09536743 13.19569397 C55.36467182 13.1797871 49.63403002 13.25905742 43.90371704 13.3271637 C31.07496704 13.3890387 18.24621704 13.4509137 5.02871704 13.5146637 C5.02871704 64.0046637 5.02871704 114.4946637 5.02871704 166.5146637 C7.33871704 166.5146637 9.64871704 166.5146637 12.02871704 166.5146637 C12.02871704 170.8046637 12.02871704 175.0946637 12.02871704 179.5146637 C9.63096959 179.65038525 7.24096459 179.74903238 4.84121704 179.8271637 C3.83091431 179.89000549 3.83091431 179.89000549 2.80020142 179.95411682 C-0.91772418 180.04479793 -2.70520087 179.72103476 -5.66761684 177.42340946 C-8.5189663 173.82312616 -8.59732637 172.03843073 -8.59947205 167.4864502 C-8.60656643 166.79079643 -8.61366082 166.09514267 -8.62097019 165.37840849 C-8.63853656 163.05338743 -8.62045474 160.73004126 -8.60238647 158.40504456 C-8.60752582 156.73593383 -8.61480722 155.06682853 -8.62406921 153.3977356 C-8.6425882 148.8687776 -8.62964224 144.34040808 -8.60997891 139.81147456 C-8.59359787 135.07276517 -8.60240442 130.33409321 -8.60749817 125.59536743 C-8.6120193 117.63860162 -8.59614703 109.68207089 -8.56820679 101.72535706 C-8.53614377 92.523566 -8.5361748 83.32219867 -8.55342156 74.12037748 C-8.56927855 65.27033796 -8.56255914 56.42045393 -8.54548454 47.57042122 C-8.53860825 43.80292693 -8.53965237 40.03555706 -8.5470295 36.2680645 C-8.55468399 31.8331455 -8.54259382 27.3987095 -8.51518059 22.96387291 C-8.50828726 21.33526798 -8.50820894 19.70661803 -8.51539612 18.07801437 C-8.52407004 15.85676638 -8.50817257 13.63701614 -8.48594666 11.41589355 C-8.48313973 10.17243636 -8.48033281 8.92897917 -8.47744083 7.64784145 C-7.67214854 2.66298586 -5.11423476 0.02128805 0 0 Z " fill="#4358DA" transform="translate(269.9712829589844,184.48533630371094)"></path><path d="M0 0 C3.28859211 0.00314212 6.57626554 -0.02032045 9.86474609 -0.0456543 C43.30110866 -0.14474445 86.55522035 3.71288049 112.51708984 27.32348633 C115.42646443 30.5351336 117.14239975 33.27926993 117.88427734 37.56567383 C116.80322624 44.7726812 112.63595348 49.65812365 106.88427734 53.94067383 C90.04799787 64.82880666 70.89395721 70.04896039 51.32177734 73.31567383 C50.44457031 73.46810547 49.56736328 73.62053711 48.66357422 73.77758789 C34.10689973 76.21422574 19.6699724 76.60414656 4.94677734 76.62817383 C4.06584412 76.63175903 3.18491089 76.63534424 2.27728271 76.63903809 C-31.13722464 76.71220797 -76.38430318 73.76178645 -102.05322266 49.56567383 C-105.33640083 45.82816551 -106.51165017 42.84258833 -107.05322266 37.87817383 C-106.32517885 30.96175766 -101.61623809 26.74154465 -96.54150391 22.39770508 C-82.71835116 12.34621748 -66.12915299 8.13730927 -49.67822266 4.62817383 C-48.73011719 4.42554932 -47.78201172 4.2229248 -46.80517578 4.01416016 C-31.12767669 0.82517804 -15.96267299 -0.03174195 0 0 Z " fill="#435BDD" transform="translate(215.67822265625,89.684326171875)"></path><path d="M0 0 C0.77934402 -0.01272446 1.55868805 -0.02544891 2.36164856 -0.03855896 C3.20745987 -0.03203308 4.05327118 -0.0255072 4.92471313 -0.01878357 C5.82274155 -0.02739914 6.72076996 -0.03601471 7.64601135 -0.04489136 C10.61501889 -0.06759603 13.58308581 -0.06080325 16.55215454 -0.05174255 C18.61714967 -0.05697683 20.6821424 -0.06325259 22.74713135 -0.07052612 C27.07645918 -0.08093918 31.40545853 -0.0763568 35.73477173 -0.06175232 C41.27893057 -0.04457956 46.8220516 -0.06803678 52.36609459 -0.10324192 C56.63155975 -0.12522109 60.89677692 -0.12377286 65.16228104 -0.11547661 C67.20599123 -0.11465706 69.24971962 -0.12152107 71.29337692 -0.13624763 C74.15420676 -0.15369907 77.01317633 -0.13914512 79.87393188 -0.11643982 C80.71569473 -0.12813202 81.55745758 -0.13982422 82.42472839 -0.15187073 C88.34765639 -0.05639294 90.87537965 1.27772538 95.02871704 5.5146637 C96.55632395 7.24388371 98.03734167 9.01550703 99.46621704 10.8271637 C102.79178935 14.99822049 106.20919625 19.02443808 109.81387329 22.95606995 C111.02871704 24.5146637 111.02871704 24.5146637 111.02871704 26.5146637 C111.97231079 26.39284729 111.97231079 26.39284729 112.93496704 26.26856995 C113.79090454 26.20540588 114.64684204 26.14224182 115.52871704 26.0771637 C116.36402954 25.99595276 117.19934204 25.91474182 118.05996704 25.83106995 C121.2786821 26.57222144 122.1048097 27.26393461 124.47344971 29.44355774 C127.79942628 32.45952015 131.23471059 35.25751509 134.75854492 38.03913879 C144.94070382 46.56938476 153.27234888 54.26944496 154.50699806 68.19961166 C154.86642892 74.81804676 154.7238978 81.40899693 154.45957232 88.02764797 C154.32466072 92.019882 154.32211278 96.01250605 154.30322266 100.00666809 C154.25399414 106.68596228 154.12230544 113.35905053 153.92861938 120.03565979 C153.65545565 129.45556507 153.53392878 138.87310555 153.4418385 148.29628325 C153.31034235 160.92054358 153.13961275 173.54764293 152.78878784 186.1678791 C152.73565448 188.17669607 152.69637873 190.18586449 152.6574707 192.19500732 C152.62010803 193.38594498 152.58274536 194.57688263 152.54425049 195.8039093 C152.51714304 196.84055096 152.49003559 197.87719261 152.4621067 198.94524765 C152.02871704 201.5146637 152.02871704 201.5146637 150.82149315 203.34735584 C148.39074255 204.93006004 146.72319292 204.89483975 143.82876587 204.90234375 C142.21356552 204.9172007 142.21356552 204.9172007 140.56573486 204.93235779 C139.38433929 204.92785614 138.20294373 204.92335449 136.98574829 204.91871643 C135.11963394 204.92901131 135.11963394 204.92901131 133.21582031 204.93951416 C129.80249833 204.9546965 126.38972163 204.95627175 122.9764061 204.95057178 C120.12833327 204.94748475 117.28031008 204.95356684 114.4322443 204.95961052 C107.71468552 204.97366396 100.99725389 204.97208737 94.2796936 204.96070862 C87.34551438 204.94922263 80.41172171 204.96330893 73.47759342 204.99010509 C67.52676446 205.01224184 61.57605701 205.0189042 55.62518978 205.01302868 C52.06979556 205.00965345 48.51464922 205.0121114 44.95928955 205.02927971 C40.99659998 205.04757949 37.03438817 205.03358257 33.07168579 205.01637268 C31.29959244 205.03087463 31.29959244 205.03087463 29.49169922 205.04566956 C27.87649887 205.03091835 27.87649887 205.03091835 26.22866821 205.01586914 C24.82278694 205.01555521 24.82278694 205.01555521 23.38850403 205.01523495 C21.02871704 204.5146637 21.02871704 204.5146637 19.22752953 202.9178791 C17.60994381 199.67516436 17.65103547 197.18502821 17.64776611 193.56201172 C17.64308614 192.86242326 17.63840617 192.16283481 17.63358438 191.4420467 C17.62161942 189.09813954 17.63109707 186.75481543 17.64053345 184.41090393 C17.63646844 182.73047036 17.63112695 181.05003947 17.62460327 179.36961365 C17.61091649 174.8056785 17.61623365 170.24194659 17.62574053 165.67800784 C17.63332881 160.90546029 17.62629395 156.1329303 17.62158203 151.36038208 C17.61612259 143.34642914 17.62332161 135.33255913 17.63760376 127.31861877 C17.6539362 118.04702376 17.64863822 108.7756266 17.63212454 99.50403637 C17.6185217 91.54896805 17.61658396 83.59395936 17.62444055 75.63888317 C17.62912297 70.88525432 17.62972621 66.13171854 17.61983109 61.37809563 C17.61118096 56.91045594 17.6171474 52.44307203 17.63451385 47.97546005 C17.63848894 46.33352522 17.63732725 44.69156894 17.63072586 43.04964256 C17.62256044 40.81291268 17.63277018 38.57700889 17.64776611 36.34033203 C17.64889719 35.08727988 17.65002827 33.83422773 17.65119362 32.54320431 C18.02871704 29.5146637 18.02871704 29.5146637 19.35676861 27.61297989 C22.12739912 25.79293072 24.80346472 26.11040597 28.07046509 26.08229065 C28.78291382 26.072099 29.49536255 26.06190735 30.22940063 26.05140686 C32.58315846 26.02122419 34.9365097 26.01200323 37.29043579 26.00294495 C38.92283995 25.9861021 40.5552311 25.96795239 42.18760681 25.94854736 C46.48327573 25.9009981 50.77889196 25.87122078 55.07473755 25.84510803 C59.45859182 25.81532724 63.8422644 25.76878844 68.22598267 25.72364807 C76.82680497 25.63755896 85.42764372 25.57023882 94.02871704 25.5146637 C90.98574205 20.86680733 87.5938536 15.72515242 82.11553192 13.86507034 C76.71446649 12.88245189 71.23676464 13.10228779 65.77090454 13.22169495 C64.21237248 13.21798633 62.65384424 13.20933087 61.09536743 13.19569397 C55.36467182 13.1797871 49.63403002 13.25905742 43.90371704 13.3271637 C31.07496704 13.3890387 18.24621704 13.4509137 5.02871704 13.5146637 C5.02871704 64.0046637 5.02871704 114.4946637 5.02871704 166.5146637 C7.33871704 166.5146637 9.64871704 166.5146637 12.02871704 166.5146637 C12.02871704 170.8046637 12.02871704 175.0946637 12.02871704 179.5146637 C9.63096959 179.65038525 7.24096459 179.74903238 4.84121704 179.8271637 C3.83091431 179.89000549 3.83091431 179.89000549 2.80020142 179.95411682 C-0.91772418 180.04479793 -2.70520087 179.72103476 -5.66761684 177.42340946 C-8.5189663 173.82312616 -8.59732637 172.03843073 -8.59947205 167.4864502 C-8.60656643 166.79079643 -8.61366082 166.09514267 -8.62097019 165.37840849 C-8.63853656 163.05338743 -8.62045474 160.73004126 -8.60238647 158.40504456 C-8.60752582 156.73593383 -8.61480722 155.06682853 -8.62406921 153.3977356 C-8.6425882 148.8687776 -8.62964224 144.34040808 -8.60997891 139.81147456 C-8.59359787 135.07276517 -8.60240442 130.33409321 -8.60749817 125.59536743 C-8.6120193 117.63860162 -8.59614703 109.68207089 -8.56820679 101.72535706 C-8.53614377 92.523566 -8.5361748 83.32219867 -8.55342156 74.12037748 C-8.56927855 65.27033796 -8.56255914 56.42045393 -8.54548454 47.57042122 C-8.53860825 43.80292693 -8.53965237 40.03555706 -8.5470295 36.2680645 C-8.55468399 31.8331455 -8.54259382 27.3987095 -8.51518059 22.96387291 C-8.50828726 21.33526798 -8.50820894 19.70661803 -8.51539612 18.07801437 C-8.52407004 15.85676638 -8.50817257 13.63701614 -8.48594666 11.41589355 C-8.48313973 10.17243636 -8.48033281 8.92897917 -8.47744083 7.64784145 C-7.67214854 2.66298586 -5.11423476 0.02128805 0 0 Z M31.02871704 39.5146637 C31.02871704 90.0046637 31.02871704 140.4946637 31.02871704 192.5146637 C66.99871704 192.5146637 102.96871704 192.5146637 140.02871704 192.5146637 C140.02871704 152.2546637 140.02871704 111.9946637 140.02871704 70.5146637 C128.14871704 70.1846637 116.26871704 69.8546637 104.02871704 69.5146637 C98.45404906 61.15266173 101.40067963 49.55765348 101.02871704 39.5146637 C77.92871704 39.5146637 54.82871704 39.5146637 31.02871704 39.5146637 Z " fill="#FBFCFE" transform="translate(269.9712829589844,184.48533630371094)"></path><path d="M0 0 C0 4.29 0 8.58 0 13 C-1.32 13 -2.64 13 -4 13 C-3.87625 14.5778125 -3.87625 14.5778125 -3.75 16.1875 C-3.73606198 23.97885397 -6.32592545 31.84121941 -11 38 C-10.36528142 40.53887433 -9.2196665 42.5855511 -8 44.88671875 C-4.14692258 52.3237248 -3.85265156 58.71574329 -4 67 C-2.68 67 -1.36 67 0 67 C0 71.29 0 75.58 0 80 C-8.01098901 80.48551449 -8.01098901 80.48551449 -12.4375 78.3125 C-16.09122174 75.01523892 -16.89037374 72.39851791 -17.2734375 67.51171875 C-17.30695313 66.24972656 -17.34046875 64.98773438 -17.375 63.6875 C-17.67028467 57.80813327 -18.06194569 52.62582718 -22 48 C-24.05986594 46.38912969 -26.18590719 44.91908627 -28.33984375 43.4375 C-30 42 -30 42 -30.8125 38.875 C-29.7443495 35.09539056 -28.20313357 34.20660312 -25 32 C-19.31212989 26.97351013 -18.09347695 22.89360355 -17.5625 15.5 C-17.09715337 9.68711076 -15.80950846 6.02239181 -11.875 1.625 C-7.74591119 -0.70883281 -4.70123721 -0.28067088 0 0 Z " fill="#F8F9FD" transform="translate(348,270)"></path><path d="M0 0 C8.69721116 -0.44223108 8.69721116 -0.44223108 13 3 C16.93022938 7.49169072 17.10781033 11.35676846 17.3125 17.1875 C17.64915444 23.39145428 18.35252145 27.87381394 22 33 C25.05039221 34.90206849 25.05039221 34.90206849 28 36 C29.63191323 39.26382646 29.54862988 41.40342633 29 45 C27.35546875 46.25390625 27.35546875 46.25390625 25.25 47.375 C20.96470437 49.71105496 19.39926853 51.9457637 17.6640625 56.46484375 C16.70748659 60.11671295 16.49785626 63.72716491 16.26171875 67.484375 C15.77579857 72.15501076 13.93113476 74.98905368 10.8125 78.375 C6.94705019 80.608371 4.41640708 80.29941743 0 80 C0 75.71 0 71.42 0 67 C1.32 67 2.64 67 4 67 C3.93039062 66.20078125 3.86078125 65.4015625 3.7890625 64.578125 C3.39142348 56.51173349 4.63113864 51.53451349 8.8828125 44.65625 C10.29595206 42.0557311 10.29595206 42.0557311 9.3125 39.43359375 C8.879375 38.63050781 8.44625 37.82742188 8 37 C4.00922164 28.85822956 3.53113844 22.03860897 4 13 C2.68 13 1.36 13 0 13 C0 8.71 0 4.42 0 0 Z " fill="#FBFBFE" transform="translate(368,270)"></path><path d="M0 0 C4.22941817 1.05735454 5.16265519 1.79469108 8.109375 4.78125 C8.86347656 5.54050781 9.61757813 6.29976562 10.39453125 7.08203125 C11.17183594 7.87996094 11.94914062 8.67789063 12.75 9.5 C13.54277344 10.29792969 14.33554687 11.09585938 15.15234375 11.91796875 C21 17.8461435 21 17.8461435 21 19 C14.07 19 7.14 19 0 19 C0 12.73 0 6.46 0 0 Z " fill="#5069E4" transform="translate(384,224)"></path></svg>