<svg version="1.1" xmlns="http://www.w3.org/2000/svg" width="16px" height="16px" fill="currentColor" viewBox="0 0 512 512"><path d="M0 0 C168.96 0 337.92 0 512 0 C512 168.96 512 337.92 512 512 C343.04 512 174.08 512 0 512 C0 343.04 0 174.08 0 0 Z " fill="#4053D6" transform="translate(0,0)"></path><path d="M0 0 C0.99971329 -0.0096579 1.99942657 -0.0193158 3.0294342 -0.02926636 C6.23841108 -0.0539313 9.44718878 -0.06663827 12.65625 -0.07421875 C13.75073456 -0.07716949 14.84521912 -0.08012024 15.97286987 -0.0831604 C31.85356564 -0.09290682 47.0282526 0.55819198 62.62597656 3.734375 C64.95181708 4.19756825 67.2713983 4.58046744 69.6171875 4.92578125 C80.59742831 6.6045404 90.79258983 10.34071338 101.15625 14.23828125 C99.82291667 18.23828125 98.48958333 22.23828125 97.15625 26.23828125 C94.99280184 25.73398098 92.90636854 25.15374424 90.80078125 24.44140625 C83.2774554 21.90941796 75.6794029 20.18869032 67.90625 18.61328125 C66.90827393 18.40735352 65.91029785 18.20142578 64.88208008 17.98925781 C47.50629263 14.56105065 30.52094389 13.83048703 12.84375 13.86328125 C11.69217407 13.86415741 10.54059814 13.86503357 9.35412598 13.86593628 C-23.66386643 13.94882256 -65.7007693 15.97670789 -91.05859375 40.16015625 C-93.52096413 43.02663555 -94.68821184 45.26061282 -95.28125 48.98828125 C-94.53306841 54.54620164 -91.96687044 58.30212837 -87.84765625 62.05859375 C-77.13364982 70.1166829 -63.68749639 74.85447636 -50.84375 78.23828125 C-48.98556641 78.74488281 -48.98556641 78.74488281 -47.08984375 79.26171875 C-25.62622927 84.75229127 -2.90238284 85.57331207 19.15625 86.23828125 C19.15625 90.19828125 19.15625 94.15828125 19.15625 98.23828125 C-18.0669672 99.12099162 -64.48754582 98.00907087 -94.84375 73.23828125 C-94.91817006 78.25533846 -94.97247908 83.27207097 -95.00854492 88.28955078 C-95.02358738 89.99468588 -95.04402653 91.69978257 -95.07006836 93.40478516 C-95.10665284 95.86240137 -95.12352173 98.31950394 -95.13671875 100.77734375 C-95.15994453 101.91207626 -95.15994453 101.91207626 -95.18363953 103.06973267 C-95.18544829 108.8194391 -93.87164933 112.8433008 -90.07421875 117.328125 C-66.76035031 138.41313413 -30.61437164 140.70804758 -0.84375 143.23828125 C-0.84375 147.52828125 -0.84375 151.81828125 -0.84375 156.23828125 C-27.74524173 156.71268515 -55.95355632 151.15600033 -80.31640625 139.7421875 C-83.81790991 137.97681634 -83.81790991 137.97681634 -87.84375 138.23828125 C-89.58834661 139.6781566 -89.58834661 139.6781566 -91.03125 141.61328125 C-91.54042969 142.23976562 -92.04960938 142.86625 -92.57421875 143.51171875 C-95.05665424 146.88783101 -95.3766782 149.05098824 -94.84375 153.23828125 C-90.48230261 163.67873717 -80.16605896 168.51965377 -70.2890625 172.72460938 C-57.55567814 177.88929121 -44.39507181 181.12867916 -30.84375 183.23828125 C-30.00634277 183.37121582 -29.16893555 183.50415039 -28.30615234 183.64111328 C-8.23884371 186.71415801 11.89762181 186.94871229 32.15625 187.23828125 C32.48625 191.19828125 32.81625 195.15828125 33.15625 199.23828125 C-15.90965807 199.88240755 -15.90965807 199.88240755 -36.84375 196.23828125 C-38.06457275 196.02945313 -38.06457275 196.02945313 -39.31005859 195.81640625 C-58.65778969 192.35472895 -79.04906418 186.30345988 -94.84375 174.23828125 C-94.91817006 179.25533846 -94.97247908 184.27207097 -95.00854492 189.28955078 C-95.02358738 190.99468588 -95.04402653 192.69978257 -95.07006836 194.40478516 C-95.10665284 196.86240137 -95.12352173 199.31950394 -95.13671875 201.77734375 C-95.15220261 202.53383209 -95.16768646 203.29032043 -95.18363953 204.06973267 C-95.18543895 209.78975221 -93.85070476 213.76021035 -90.1796875 218.29296875 C-63.42889447 243.12537822 -17.77352202 243.31535259 16.15625 244.23828125 C16.15625 248.52828125 16.15625 252.81828125 16.15625 257.23828125 C-20.18199699 257.96397109 -53.40018395 252.76560456 -86.84375 238.23828125 C-90.41255981 241.82572715 -93.38650909 244.89062382 -95.03125 249.73828125 C-94.77359758 254.54779314 -93.92707468 257.48829178 -90.84375 261.23828125 C-58.30145513 289.21323649 -4.35336419 289.5096364 36.23046875 286.76953125 C61.63509687 284.81183255 99.49584943 281.13806344 117.71875 260.48828125 C120.67559125 256.76919481 121.50844493 254.22226972 121.4375 249.3359375 C120.8337142 244.83270174 118.08474296 242.11519127 114.90625 239.11328125 C111.58224083 238.05564197 110.98131881 238.51998227 107.96875 240.05078125 C107.29457031 240.44910156 106.62039063 240.84742188 105.92578125 241.2578125 C104.15625 242.23828125 104.15625 242.23828125 102.15625 242.23828125 C101.45718058 240.63912244 100.77235532 239.0337308 100.09375 237.42578125 C99.71089844 236.53246094 99.32804688 235.63914062 98.93359375 234.71875 C98.15625 232.23828125 98.15625 232.23828125 99.15625 229.23828125 C101.6328125 227.84375 101.6328125 227.84375 104.78125 226.42578125 C114.17713481 221.87290595 118.43361932 218.06602625 122.15625 208.23828125 C126.44625 208.23828125 130.73625 208.23828125 135.15625 208.23828125 C135.15625 217.59479963 130.85861256 223.09132017 125.15625 230.23828125 C125.54296875 230.65078125 125.9296875 231.06328125 126.328125 231.48828125 C126.84890625 232.06578125 127.3696875 232.64328125 127.90625 233.23828125 C128.41671875 233.79515625 128.9271875 234.35203125 129.453125 234.92578125 C135.65147132 243.34188451 135.7647813 250.88571799 135.72265625 260.98046875 C135.72790068 262.51449966 135.73418015 264.04852735 135.74143982 265.58255005 C135.75181133 268.78842403 135.7473311 271.99385328 135.73266602 275.19970703 C135.71550107 279.2839487 135.73896049 283.36678038 135.77415562 287.45086479 C135.79624581 290.61676138 135.79466005 293.78232677 135.7863903 296.94827652 C135.78557676 298.45279612 135.79232461 299.95734152 135.80716133 301.46178818 C135.89839632 312.38771167 134.50232811 320.59848724 127.03125 328.92578125 C92.68260361 360.33235943 33.80433681 360.07730893 -9.84375 358.23828125 C-32.11843059 356.85207943 -56.42783747 352.56576689 -76.84375 343.23828125 C-77.98585937 342.74972656 -79.12796875 342.26117188 -80.3046875 341.7578125 C-92.49770869 336.1902833 -102.95080652 328.27930972 -107.93740845 315.41741943 C-108.88998479 312.07610532 -109.11009542 309.30928065 -109.13427734 305.84082031 C-109.14703705 304.59222229 -109.15979675 303.34362427 -109.17294312 302.05718994 C-109.17600175 300.70609697 -109.17822899 299.3550019 -109.1796875 298.00390625 C-109.18612451 296.60154081 -109.19285353 295.19917668 -109.19985962 293.79681396 C-109.21180576 290.86158134 -109.21554335 287.92646614 -109.21435547 284.99121094 C-109.21415275 281.25463004 -109.24141732 277.5188137 -109.27589989 273.78241348 C-109.29828906 270.88593176 -109.30218933 267.98963032 -109.30113602 265.09307098 C-109.30347539 263.71693038 -109.31220373 262.34078351 -109.32780075 260.96472931 C-109.43353671 250.67034609 -108.54248339 241.34850439 -101.09375 233.61328125 C-100.48015625 232.96101562 -99.8665625 232.30875 -99.234375 231.63671875 C-98.54601562 230.94449219 -98.54601562 230.94449219 -97.84375 230.23828125 C-98.42382812 229.51125 -98.42382812 229.51125 -99.015625 228.76953125 C-104.72116202 221.42577073 -108.91720571 214.59550207 -109.05249023 205.12133789 C-109.07178085 203.85894791 -109.09107147 202.59655792 -109.11094666 201.2959137 C-109.12576299 199.91343216 -109.13953497 198.53093909 -109.15234375 197.1484375 C-109.15891558 196.44904997 -109.1654874 195.74966244 -109.17225838 195.02908134 C-109.20484849 191.31945697 -109.2292879 187.60986105 -109.2487793 183.90014648 C-109.26650855 180.8495821 -109.30118998 177.79995684 -109.35131836 174.74975586 C-109.41203125 171.05031564 -109.44232499 167.35173763 -109.45195198 163.65182304 C-109.46042995 162.25214028 -109.47905527 160.8524757 -109.5086956 159.45308113 C-109.75938426 146.93264419 -106.49089984 137.39408696 -97.84375 128.23828125 C-98.30265625 127.77679688 -98.7615625 127.3153125 -99.234375 126.83984375 C-99.84796875 126.18757813 -100.4615625 125.5353125 -101.09375 124.86328125 C-101.69703125 124.23679687 -102.3003125 123.6103125 -102.921875 122.96484375 C-109.00952658 114.3282974 -109.44466427 105.65533325 -109.375 95.359375 C-109.37770192 93.9379093 -109.38159013 92.51644541 -109.38659668 91.09498596 C-109.39245709 88.13223477 -109.3840409 85.16996958 -109.36523438 82.20727539 C-109.34242495 78.43251916 -109.35560114 74.65889968 -109.37952423 70.88418484 C-109.39405906 67.95424513 -109.38934179 65.02456984 -109.37901306 62.09462166 C-109.37636799 60.7037244 -109.37953631 59.31280217 -109.38893127 57.92193413 C-109.44994803 46.35588958 -107.66287219 38.55440562 -99.6640625 30.0703125 C-99.06335938 29.46574219 -98.46265625 28.86117187 -97.84375 28.23828125 C-97.36679688 27.72652344 -96.88984375 27.21476562 -96.3984375 26.6875 C-80.88148171 11.61736755 -54.29943141 6.76865614 -33.84375 3.23828125 C-32.09578125 2.91730469 -32.09578125 2.91730469 -30.3125 2.58984375 C-20.24519065 0.79952327 -10.2161804 0.08313443 0 0 Z " fill="#FAFBFE" transform="translate(210.84375,76.76171875)"></path><path d="M0 0 C0.97926956 -0.00700928 1.95853912 -0.01401855 2.96748352 -0.02124023 C6.20582399 -0.03885136 9.44329121 -0.02718603 12.68164062 -0.01367188 C14.93078784 -0.01636588 17.17993392 -0.02024754 19.42907715 -0.02526855 C24.14342332 -0.03116785 28.85746639 -0.02258649 33.57177734 -0.00390625 C39.61820348 0.01888319 45.66391945 0.00576247 51.71031952 -0.01819611 C56.35485191 -0.03264223 60.99921561 -0.02805346 65.64375305 -0.01768494 C67.8733173 -0.01501439 70.1028968 -0.01829889 72.33244324 -0.02760315 C75.44730262 -0.03774889 78.56100795 -0.02229448 81.67578125 0 C83.06142021 -0.01214539 83.06142021 -0.01214539 84.47505188 -0.02453613 C90.68805601 0.05795285 90.68805601 0.05795285 93.94091797 2.35868835 C95.6035177 4.92807977 95.59008283 6.45442142 94.96069336 9.41763306 C93.62866826 13.90890997 91.88299782 18.2244997 90.11914062 22.56054688 C89.70120239 23.6065657 89.28326416 24.65258453 88.85266113 25.7303009 C87.52164988 29.05818622 86.18030293 32.38177738 84.83789062 35.70507812 C83.49728074 39.03977913 82.15887119 42.37534015 80.82312012 45.71199036 C79.99277359 47.78448527 79.15930458 49.85573249 78.3223877 51.92558289 C77.94529663 52.86368301 77.56820557 53.80178314 77.1796875 54.76831055 C76.84739136 55.59102951 76.51509521 56.41374847 76.17272949 57.26139832 C75.40580496 59.33403737 74.82456678 61.36398211 74.33789062 63.51757812 C76.21492676 63.49401245 76.21492676 63.49401245 78.12988281 63.4699707 C82.77402303 63.41565707 87.41813517 63.38122273 92.0625 63.3527832 C94.07231366 63.33769987 96.08209442 63.3172304 98.09179688 63.29125977 C100.98120239 63.25485668 103.87017258 63.23784725 106.75976562 63.22460938 C108.10684601 63.20138359 108.10684601 63.20138359 109.48114014 63.1776886 C115.67613882 63.17601861 115.67613882 63.17601861 118.89355469 64.83666992 C120.33789062 66.51757812 120.33789062 66.51757812 121.02539062 69.70507812 C119.26604489 79.4614499 107.25525366 87.67283854 100.30810547 94.52685547 C93.37422863 101.33371383 93.37422863 101.33371383 86.83789062 108.51757812 C81.69939132 114.53202809 75.93529669 119.97510058 70.30810547 125.52685547 C63.38882498 132.31722595 63.38882498 132.31722595 56.86914062 139.48632812 C51.54746494 145.71518022 45.56153648 151.34798258 39.73535156 157.09960938 C34.37175127 162.4007275 29.09203066 167.69863738 24.19335938 173.43945312 C19.49180482 178.70519423 14.33191918 183.57038941 9.30810547 188.52685547 C2.38882498 195.31722595 2.38882498 195.31722595 -4.13085938 202.48632812 C-9.45253506 208.71518022 -15.43846352 214.34798258 -21.26464844 220.09960938 C-22.83679486 221.6534414 -24.40664803 223.20952334 -25.97460938 224.76757812 C-26.47629639 225.26604248 -26.9779834 225.76450684 -27.49487305 226.27807617 C-30.89267124 229.68039497 -34.10093527 233.18959386 -37.16210938 236.89648438 C-39.85055887 239.80197015 -41.74415667 241.40517575 -45.72460938 241.89257812 C-48.66210938 241.51757812 -48.66210938 241.51757812 -50.53710938 240.45507812 C-52.56707703 236.95902271 -52.05069288 233.15485244 -51.13723755 229.30606079 C-50.37542749 226.76961122 -49.54963218 224.26333318 -48.69726562 221.75585938 C-48.38897827 220.82148544 -48.08069092 219.88711151 -47.76306152 218.92442322 C-46.75962401 215.88977169 -45.7420536 212.86005889 -44.72460938 209.83007812 C-44.02352605 207.71619546 -43.32358166 205.60193473 -42.62475586 203.48730469 C-41.25075808 199.33209513 -39.87247325 195.17835407 -38.49023438 191.02587891 C-36.36032959 184.61948228 -34.27967108 178.19839746 -32.22460938 171.76757812 C-31.90041016 170.75727539 -31.57621094 169.74697266 -31.2421875 168.70605469 C-29.05956455 161.90009169 -26.88763157 155.09072641 -24.7157135 148.28134155 C-23.25423724 143.70033488 -21.79142874 139.11975401 -20.32858276 134.53918457 C-19.24046997 131.12977452 -18.15450199 127.71968616 -17.06860352 124.30957031 C-16.39284028 122.1926766 -15.71698181 120.07581329 -15.04101562 117.95898438 C-14.57441528 116.49057854 -14.57441528 116.49057854 -14.09838867 114.99250793 C-13.66115479 113.62541939 -13.66115479 113.62541939 -13.21508789 112.23071289 C-12.83611107 111.04168114 -12.83611107 111.04168114 -12.44947815 109.82862854 C-11.60601464 107.35293132 -10.65292745 104.93765231 -9.66210938 102.51757812 C-11.62216919 102.55685425 -11.62216919 102.55685425 -13.62182617 102.59692383 C-18.47646925 102.68752137 -23.33103783 102.74486257 -28.1862793 102.79223633 C-30.28634208 102.81735864 -32.38631761 102.8514627 -34.48608398 102.89477539 C-37.50721777 102.95552684 -40.52719433 102.98381076 -43.54882812 103.00585938 C-44.48546799 103.0316658 -45.42210785 103.05747223 -46.38713074 103.08406067 C-50.91668916 103.08600336 -53.04544814 102.94573 -56.85668945 100.29956055 C-58.66210938 97.51757812 -58.66210938 97.51757812 -58.53051758 95.38009644 C-57.304437 91.33858912 -55.46709908 87.70227081 -53.57299805 83.93530273 C-53.15012009 83.08268356 -52.72724213 82.23006439 -52.29154968 81.35160828 C-50.89385876 78.53794562 -49.48735916 75.72879881 -48.08007812 72.91992188 C-47.10430531 70.9638153 -46.12883037 69.0075601 -45.15364075 67.05116272 C-43.10897583 62.95289934 -41.05978155 58.85693963 -39.00756836 54.76245117 C-36.37853436 49.5158761 -33.76223931 44.26306603 -31.14948559 39.00836849 C-29.13824008 34.96753051 -27.11955892 30.93044267 -25.09868813 26.89441109 C-24.13098608 24.95916038 -23.16576765 23.0226657 -22.20308495 21.08491325 C-20.85616299 18.3761902 -19.49913863 15.67276805 -18.1394043 12.97045898 C-17.74392395 12.16983032 -17.3484436 11.36920166 -16.940979 10.54431152 C-12.56175069 1.90091944 -9.69734195 -0.08499902 0 0 Z " fill="#445DDF" transform="translate(288.662109375,115.482421875)"></path><path d="M0 0 C1.39738403 0.81078003 1.39738403 0.81078003 2.82299805 1.63793945 C4.07332139 2.35903161 5.32373304 3.0799707 6.57421875 3.80078125 C7.18487183 4.15563599 7.7955249 4.51049072 8.42468262 4.87609863 C23.23489513 13.39429486 39.23208021 18.0896704 55.9375 21.1875 C56.76958984 21.34234863 57.60167969 21.49719727 58.45898438 21.65673828 C74.4105979 24.44372171 90.07637784 25.32536912 106.24926758 25.26074219 C109.4300446 25.25002512 112.61025562 25.26070172 115.79101562 25.2734375 C131.56295079 25.28490066 147.32213687 24.68208478 162.75 21.125 C163.5325415 20.9506543 164.31508301 20.77630859 165.12133789 20.59667969 C167.41754217 20.07773705 169.70881704 19.54061044 172 19 C173.26199219 18.71382813 174.52398437 18.42765625 175.82421875 18.1328125 C189.05640573 14.89986736 203.62663447 10.40486824 214.5390625 2.03125 C216 1 216 1 218 1 C218.14914428 6.26517542 218.25758661 11.5291021 218.32958984 16.79589844 C218.35962642 18.58452798 218.40046952 20.3730119 218.45263672 22.16113281 C218.92970395 38.94267437 218.92970395 38.94267437 215.2265625 44.00390625 C213.56494141 45.68994141 213.56494141 45.68994141 212 47 C211.01 47.98806641 211.01 47.98806641 210 48.99609375 C196.38295118 58.80994339 179.30069441 63.84559535 163 67 C162.10667969 67.19980469 161.21335937 67.39960938 160.29296875 67.60546875 C145.25204306 70.92295319 130.28889008 71.34558388 114.94946289 71.31567383 C111.59943412 71.31253461 108.25030968 71.33598164 104.90039062 71.36132812 C70.98381472 71.46137702 30.4061294 67.95174175 3.99609375 44.24609375 C-0.26587958 39.4503312 -0.276677 34.59385174 -0.1953125 28.41796875 C-0.1924826 27.60378983 -0.18965271 26.7896109 -0.18673706 25.95075989 C-0.17558584 23.362854 -0.15049083 20.77530042 -0.125 18.1875 C-0.11496365 16.42773939 -0.10583894 14.66797333 -0.09765625 12.90820312 C-0.0756631 8.60533402 -0.04116836 4.30272664 0 0 Z " fill="#3B46C9" transform="translate(115,351)"></path><path d="M0 0 C0.97926956 -0.00700928 1.95853912 -0.01401855 2.96748352 -0.02124023 C6.20582399 -0.03885136 9.44329121 -0.02718603 12.68164062 -0.01367188 C14.93078784 -0.01636588 17.17993392 -0.02024754 19.42907715 -0.02526855 C24.14342332 -0.03116785 28.85746639 -0.02258649 33.57177734 -0.00390625 C39.61820348 0.01888319 45.66391945 0.00576247 51.71031952 -0.01819611 C56.35485191 -0.03264223 60.99921561 -0.02805346 65.64375305 -0.01768494 C67.8733173 -0.01501439 70.1028968 -0.01829889 72.33244324 -0.02760315 C75.44730262 -0.03774889 78.56100795 -0.02229448 81.67578125 0 C83.06142021 -0.01214539 83.06142021 -0.01214539 84.47505188 -0.02453613 C90.68805601 0.05795285 90.68805601 0.05795285 93.94091797 2.35868835 C95.6035177 4.92807977 95.59008283 6.45442142 94.96069336 9.41763306 C93.62866826 13.90890997 91.88299782 18.2244997 90.11914062 22.56054688 C89.70120239 23.6065657 89.28326416 24.65258453 88.85266113 25.7303009 C87.52164988 29.05818622 86.18030293 32.38177738 84.83789062 35.70507812 C83.49728074 39.03977913 82.15887119 42.37534015 80.82312012 45.71199036 C79.99277359 47.78448527 79.15930458 49.85573249 78.3223877 51.92558289 C77.94529663 52.86368301 77.56820557 53.80178314 77.1796875 54.76831055 C76.84739136 55.59102951 76.51509521 56.41374847 76.17272949 57.26139832 C75.40580496 59.33403737 74.82456678 61.36398211 74.33789062 63.51757812 C76.21492676 63.49401245 76.21492676 63.49401245 78.12988281 63.4699707 C82.77402303 63.41565707 87.41813517 63.38122273 92.0625 63.3527832 C94.07231366 63.33769987 96.08209442 63.3172304 98.09179688 63.29125977 C100.98120239 63.25485668 103.87017258 63.23784725 106.75976562 63.22460938 C108.10684601 63.20138359 108.10684601 63.20138359 109.48114014 63.1776886 C115.67613882 63.17601861 115.67613882 63.17601861 118.89355469 64.83666992 C120.33789062 66.51757812 120.33789062 66.51757812 121.02539062 69.70507812 C119.26604489 79.4614499 107.25525366 87.67283854 100.30810547 94.52685547 C93.37422863 101.33371383 93.37422863 101.33371383 86.83789062 108.51757812 C81.69939132 114.53202809 75.93529669 119.97510058 70.30810547 125.52685547 C63.38882498 132.31722595 63.38882498 132.31722595 56.86914062 139.48632812 C51.54746494 145.71518022 45.56153648 151.34798258 39.73535156 157.09960938 C34.37175127 162.4007275 29.09203066 167.69863738 24.19335938 173.43945312 C19.49180482 178.70519423 14.33191918 183.57038941 9.30810547 188.52685547 C2.38882498 195.31722595 2.38882498 195.31722595 -4.13085938 202.48632812 C-9.45253506 208.71518022 -15.43846352 214.34798258 -21.26464844 220.09960938 C-22.83679486 221.6534414 -24.40664803 223.20952334 -25.97460938 224.76757812 C-26.47629639 225.26604248 -26.9779834 225.76450684 -27.49487305 226.27807617 C-30.89267124 229.68039497 -34.10093527 233.18959386 -37.16210938 236.89648438 C-39.85055887 239.80197015 -41.74415667 241.40517575 -45.72460938 241.89257812 C-48.66210938 241.51757812 -48.66210938 241.51757812 -50.53710938 240.45507812 C-52.56707703 236.95902271 -52.05069288 233.15485244 -51.13723755 229.30606079 C-50.37542749 226.76961122 -49.54963218 224.26333318 -48.69726562 221.75585938 C-48.38897827 220.82148544 -48.08069092 219.88711151 -47.76306152 218.92442322 C-46.75962401 215.88977169 -45.7420536 212.86005889 -44.72460938 209.83007812 C-44.02352605 207.71619546 -43.32358166 205.60193473 -42.62475586 203.48730469 C-41.25075808 199.33209513 -39.87247325 195.17835407 -38.49023438 191.02587891 C-36.36032959 184.61948228 -34.27967108 178.19839746 -32.22460938 171.76757812 C-31.90041016 170.75727539 -31.57621094 169.74697266 -31.2421875 168.70605469 C-29.05956455 161.90009169 -26.88763157 155.09072641 -24.7157135 148.28134155 C-23.25423724 143.70033488 -21.79142874 139.11975401 -20.32858276 134.53918457 C-19.24046997 131.12977452 -18.15450199 127.71968616 -17.06860352 124.30957031 C-16.39284028 122.1926766 -15.71698181 120.07581329 -15.04101562 117.95898438 C-14.57441528 116.49057854 -14.57441528 116.49057854 -14.09838867 114.99250793 C-13.66115479 113.62541939 -13.66115479 113.62541939 -13.21508789 112.23071289 C-12.83611107 111.04168114 -12.83611107 111.04168114 -12.44947815 109.82862854 C-11.60601464 107.35293132 -10.65292745 104.93765231 -9.66210938 102.51757812 C-11.62216919 102.55685425 -11.62216919 102.55685425 -13.62182617 102.59692383 C-18.47646925 102.68752137 -23.33103783 102.74486257 -28.1862793 102.79223633 C-30.28634208 102.81735864 -32.38631761 102.8514627 -34.48608398 102.89477539 C-37.50721777 102.95552684 -40.52719433 102.98381076 -43.54882812 103.00585938 C-44.48546799 103.0316658 -45.42210785 103.05747223 -46.38713074 103.08406067 C-50.91668916 103.08600336 -53.04544814 102.94573 -56.85668945 100.29956055 C-58.66210938 97.51757812 -58.66210938 97.51757812 -58.53051758 95.38009644 C-57.304437 91.33858912 -55.46709908 87.70227081 -53.57299805 83.93530273 C-53.15012009 83.08268356 -52.72724213 82.23006439 -52.29154968 81.35160828 C-50.89385876 78.53794562 -49.48735916 75.72879881 -48.08007812 72.91992188 C-47.10430531 70.9638153 -46.12883037 69.0075601 -45.15364075 67.05116272 C-43.10897583 62.95289934 -41.05978155 58.85693963 -39.00756836 54.76245117 C-36.37853436 49.5158761 -33.76223931 44.26306603 -31.14948559 39.00836849 C-29.13824008 34.96753051 -27.11955892 30.93044267 -25.09868813 26.89441109 C-24.13098608 24.95916038 -23.16576765 23.0226657 -22.20308495 21.08491325 C-20.85616299 18.3761902 -19.49913863 15.67276805 -18.1394043 12.97045898 C-17.74392395 12.16983032 -17.3484436 11.36920166 -16.940979 10.54431152 C-12.56175069 1.90091944 -9.69734195 -0.08499902 0 0 Z M-3.66210938 13.51757812 C-11.11242672 28.45746236 -11.11242672 28.45746236 -18.55810547 43.3996582 C-23.72098744 53.74737052 -28.91803502 64.0679295 -34.39730835 74.25263977 C-37.06399118 79.24216928 -39.4275699 84.32044362 -41.66210938 89.51757812 C-40.37522217 89.53739746 -39.08833496 89.5572168 -37.76245117 89.57763672 C-32.9932073 89.65364218 -28.22427056 89.74236737 -23.45532227 89.83496094 C-21.39027973 89.87327161 -19.32516997 89.90812079 -17.26000977 89.93945312 C-14.29353799 89.98505826 -11.32752977 90.04306013 -8.36132812 90.10351562 C-6.97369514 90.12084244 -6.97369514 90.12084244 -5.55802917 90.13851929 C-4.69736343 90.15838898 -3.83669769 90.17825867 -2.94995117 90.19873047 C-2.19272263 90.21205414 -1.43549408 90.22537781 -0.65531921 90.23910522 C1.33789062 90.51757812 1.33789062 90.51757812 4.33789062 92.51757812 C5.00727349 98.26553973 3.50873739 102.832545 1.58789062 108.14257812 C1.07037646 109.61326889 0.55480177 111.08464333 0.04101562 112.55664062 C-0.21923904 113.30116989 -0.47949371 114.04569916 -0.74763489 114.81278992 C-1.70421559 117.64211784 -2.58302413 120.48692219 -3.44995117 123.3449707 C-5.57924956 130.29497822 -7.81242669 137.20880671 -10.06764412 144.11860847 C-10.78011285 146.30260667 -11.49071727 148.48720364 -12.20079041 150.67198181 C-14.21637534 156.87347968 -16.2329056 163.07466261 -18.25610352 169.27368164 C-19.50267746 173.0936036 -20.74520983 176.91482055 -21.98522758 180.73687553 C-22.45295401 182.17601574 -22.92212368 183.61468785 -23.39286995 185.05284309 C-26.14692204 193.46879675 -28.66035554 201.88680998 -30.66210938 210.51757812 C-25.90069104 206.64200506 -21.50694346 202.47243648 -17.16210938 198.14257812 C-16.62884033 197.6138208 -16.09557129 197.08506348 -15.54614258 196.5402832 C-12.72851555 193.71235564 -10.03920784 190.82414094 -7.44335938 187.79101562 C-2.35412398 181.91134251 3.26133472 176.53675623 8.79492188 171.08105469 C15.49370462 164.49778242 15.49370462 164.49778242 21.80664062 157.54882812 C26.95856807 151.52597962 32.72971196 146.07068386 38.36767578 140.50830078 C43.59465019 135.34509043 48.72010553 130.17217352 53.49609375 124.58203125 C58.01290349 119.51918088 62.96448821 114.84349968 67.79492188 110.08105469 C72.93599087 105.005808 77.96893066 99.90496577 82.66650391 94.41162109 C85.7024887 90.9711931 89.00033592 87.79085305 92.27539062 84.58007812 C93.62007607 83.26074019 94.96265417 81.93924969 96.30273438 80.61523438 C97.17853149 79.7568396 97.17853149 79.7568396 98.07202148 78.88110352 C99.45128656 77.70552496 99.45128656 77.70552496 99.33789062 76.51757812 C98.16693848 76.50299561 96.99598633 76.48841309 95.78955078 76.47338867 C91.45443838 76.41551463 87.1198514 76.33828202 82.78515625 76.25512695 C80.90731316 76.2218261 79.02936873 76.19381036 77.15136719 76.17114258 C74.45528888 76.13769071 71.76014363 76.08538171 69.06445312 76.02929688 C68.2216983 76.02290695 67.37894348 76.01651703 66.51065063 76.00993347 C64.14501953 75.94995117 64.14501953 75.94995117 60.33789062 75.51757812 C58.09988482 72.16056941 58.16119843 70.79549794 58.76974487 66.91549683 C59.92614865 62.03477348 61.9040453 57.46121726 63.81054688 52.83398438 C64.25305283 51.73787338 64.69555878 50.64176239 65.151474 49.51243591 C66.55883343 46.03127733 67.97914849 42.55558898 69.40039062 39.08007812 C70.82245832 35.57851525 72.24187685 32.07589308 73.66001892 28.57273865 C74.54187417 26.39697813 75.42654373 24.22235585 76.31422424 22.04896545 C76.71141159 21.07382492 77.10859894 20.09868439 77.51782227 19.09399414 C77.87010391 18.23209976 78.22238556 17.37020538 78.58534241 16.48219299 C79.39750835 14.71257505 79.39750835 14.71257505 79.33789062 13.51757812 C51.94789063 13.51757812 24.55789063 13.51757812 -3.66210938 13.51757812 Z " fill="#FAFBFE" transform="translate(288.662109375,115.482421875)"></path><path d="M0 0 C4.33094062 0.67645168 8.1708414 2.18888168 12.1875 3.875 C17.47044585 6.06618505 22.64939286 7.8904558 28.2421875 9.1640625 C30 10 30 10 30.81640625 11.7890625 C31.02736197 14.32950799 30.67995545 16.28017818 30.0625 18.75 C29.86785156 19.54921875 29.67320312 20.3484375 29.47265625 21.171875 C29.31667969 21.77515625 29.16070312 22.3784375 29 23 C17.12626851 21.34452782 5.50366642 16.68948598 -5 11 C-3.77472971 6.94718288 -2.30119506 3.55639236 0 0 Z " fill="#F9FAFD" transform="translate(130,378)"></path><path d="M0 0 C6.49097282 2.08638412 12.86704312 4.41969771 19.23828125 6.84228516 C23.13242427 8.31881438 27.03800532 9.71219769 31 11 C30.85831863 12.43791516 30.71148957 13.8753237 30.5625 15.3125 C30.48128906 16.11300781 30.40007812 16.91351563 30.31640625 17.73828125 C30 20 30 20 29 23 C23.1552218 22.44773749 18.06932455 21.25761155 12.5625 19.25 C11.82330322 18.98558105 11.08410645 18.72116211 10.32250977 18.44873047 C4.91322472 16.46150054 -0.14268475 14.12750213 -5 11 C-3.55049545 7.2089881 -1.84827434 3.6125362 0 0 Z " fill="#FAFAFD" transform="translate(130,276)"></path><path d="M0 0 C4.31646465 0.67290894 8.12615299 2.18788251 12.125 3.875 C18.30938305 6.42559111 24.480268 8.45478285 31 10 C30.47973634 14.38507941 29.90136124 18.67498095 29 23 C17.12626851 21.34452782 5.50366642 16.68948598 -5 11 C-3.77472971 6.94718288 -2.30119506 3.55639236 0 0 Z " fill="#FAFAFD" transform="translate(130,175)"></path></svg>