<svg version="1.1" xmlns="http://www.w3.org/2000/svg" width="16px" height="16px" fill="currentColor" viewBox="0 0 512 512"><path d="M0 0 C168.96 0 337.92 0 512 0 C512 168.96 512 337.92 512 512 C343.04 512 174.08 512 0 512 C0 343.04 0 174.08 0 0 Z " fill="#E3740D" transform="translate(0,0)"></path><path d="M0 0 C31.35 0 62.7 0 95 0 C95 31.35 95 62.7 95 95 C63.65 95 32.3 95 0 95 C0 63.65 0 32.3 0 0 Z " fill="#E3740D" transform="translate(215,218)"></path><path d="M0 0 C4.29 0 8.58 0 13 0 C13 4.29 13 8.58 13 13 C19.27 13 25.54 13 32 13 C32 8.71 32 4.42 32 0 C36.29 0 40.58 0 45 0 C45 4.29 45 8.58 45 13 C51.27 13 57.54 13 64 13 C64 8.71 64 4.42 64 0 C68.29 0 72.58 0 77 0 C77 4.29 77 8.58 77 13 C83.27 13 89.54 13 96 13 C96 8.71 96 4.42 96 0 C99.96 0 103.92 0 108 0 C108.02578125 0.97582031 108.0515625 1.95164063 108.078125 2.95703125 C108.13484375 4.22933594 108.1915625 5.50164062 108.25 6.8125 C108.29640625 8.07707031 108.3428125 9.34164062 108.390625 10.64453125 C108.65732278 14.07144083 108.65732278 14.07144083 111.046875 15.82421875 C111.69140625 16.21222656 112.3359375 16.60023438 113 17 C113 17.66 113 18.32 113 19 C117.95 19 122.9 19 128 19 C128 23.29 128 27.58 128 32 C123.71 32 119.42 32 115 32 C115 38.27 115 44.54 115 51 C118.96 51 122.92 51 127 51 C127 55.29 127 59.58 127 64 C123.04 64 119.08 64 115 64 C115 70.27 115 76.54 115 83 C118.96 83 122.92 83 127 83 C127 87.29 127 91.58 127 96 C123.04 96 119.08 96 115 96 C115 102.27 115 108.54 115 115 C119.29 115 123.58 115 128 115 C128 119.29 128 123.58 128 128 C123.05 128 118.1 128 113 128 C112.34 129.32 111.68 130.64 111 132 C110.34 132.33 109.68 132.66 109 133 C108.52998967 136.27555608 108.52998967 136.27555608 108.375 140.0625 C108.30023438 141.35285156 108.22546875 142.64320313 108.1484375 143.97265625 C108.07496094 145.47119141 108.07496094 145.47119141 108 147 C104.04 147 100.08 147 96 147 C96 142.71 96 138.42 96 134 C89.73 134 83.46 134 77 134 C77 138.29 77 142.58 77 147 C72.71 147 68.42 147 64 147 C64 142.71 64 138.42 64 134 C57.73 134 51.46 134 45 134 C45 138.29 45 142.58 45 147 C40.71 147 36.42 147 32 147 C32 142.71 32 138.42 32 134 C25.73 134 19.46 134 13 134 C13 138.29 13 142.58 13 147 C8.71 147 4.42 147 0 147 C-0.02578125 146.03578125 -0.0515625 145.0715625 -0.078125 144.078125 C-0.13484375 142.81484375 -0.1915625 141.5515625 -0.25 140.25 C-0.31960937 138.37054688 -0.31960937 138.37054688 -0.390625 136.453125 C-0.76088358 133.01352109 -0.76088358 133.01352109 -2.59375 130.59375 C-5.85418339 128.43424217 -8.36678805 128.39382266 -12.25 128.25 C-13.51328125 128.19328125 -14.7765625 128.1365625 -16.078125 128.078125 C-17.04234375 128.05234375 -18.0065625 128.0265625 -19 128 C-19 123.71 -19 119.42 -19 115 C-14.71 115 -10.42 115 -6 115 C-6 108.73 -6 102.46 -6 96 C-10.29 96 -14.58 96 -19 96 C-19 91.71 -19 87.42 -19 83 C-14.71 83 -10.42 83 -6 83 C-6 76.73 -6 70.46 -6 64 C-10.29 64 -14.58 64 -19 64 C-19 59.71 -19 55.42 -19 51 C-14.71 51 -10.42 51 -6 51 C-6 44.73 -6 38.46 -6 32 C-10.29 32 -14.58 32 -19 32 C-19 27.71 -19 23.42 -19 19 C-18.02417969 18.96261719 -17.04835937 18.92523438 -16.04296875 18.88671875 C-14.13451172 18.78810547 -14.13451172 18.78810547 -12.1875 18.6875 C-10.29064453 18.60048828 -10.29064453 18.60048828 -8.35546875 18.51171875 C-4.88046571 17.98177067 -4.11622676 17.62243383 -2 15 C-1.34 15 -0.68 15 0 15 C0 10.05 0 5.1 0 0 Z M7 26 C7 57.35 7 88.7 7 121 C38.35 121 69.7 121 102 121 C102 89.65 102 58.3 102 26 C70.65 26 39.3 26 7 26 Z " fill="#FEFBF8" transform="translate(208,192)"></path><path d="M0 0 C3.61692773 1.52897576 5.9203522 3.67815633 8.67675781 6.44970703 C10.05773651 7.83091232 10.05773651 7.83091232 11.46661377 9.24002075 C12.4622253 10.24584465 13.45772648 11.2517778 14.453125 12.2578125 C15.47830193 13.28672149 16.50392275 14.31518837 17.52996826 15.3432312 C20.22393164 18.04481581 22.91183368 20.75235341 25.59851074 23.46118164 C28.34328304 26.22644489 31.09375472 28.98602633 33.84375 31.74609375 C39.23475573 37.15852274 44.61936964 42.57725438 50 48 C48 52 48 52 41 58 C30.44 47.44 19.88 36.88 9 26 C8.67 49.1 8.34 72.2 8 96 C3.71 96 -0.58 96 -5 96 C-5 72.57 -5 49.14 -5 25 C-5.66 25 -6.32 25 -7 25 C-7.27041107 25.59572815 -7.54082214 26.1914563 -7.81942749 26.80523682 C-8.99017019 28.98172573 -10.14318823 30.38542137 -11.88916016 32.11621094 C-12.4696109 32.69651062 -13.05006165 33.2768103 -13.64810181 33.87469482 C-14.27211884 34.48838928 -14.89613586 35.10208374 -15.5390625 35.734375 C-16.17991791 36.37240051 -16.82077332 37.01042603 -17.48104858 37.66778564 C-19.52437821 39.69994069 -21.57455982 41.72502218 -23.625 43.75 C-25.0134786 45.1284453 -26.4015049 46.50734636 -27.7890625 47.88671875 C-31.18748697 51.26311894 -34.59207254 54.63319288 -38 58 C-41.21043882 56.61811547 -43.04936365 55.07578097 -45.25 52.375 C-45.77078125 51.74335938 -46.2915625 51.11171875 -46.828125 50.4609375 C-47.21484375 49.97882813 -47.6015625 49.49671875 -48 49 C-47.41340103 48.41562164 -46.82680206 47.83124329 -46.22242737 47.22915649 C-40.70169061 41.72843536 -35.18334674 36.2253274 -29.66769505 30.71950722 C-26.83178709 27.8888236 -23.99495403 25.05908009 -21.15600586 22.23144531 C-18.41763093 19.50391514 -15.68168759 16.77396782 -12.94743156 14.04230881 C-11.90248248 12.99921109 -10.85665193 11.95699566 -9.80993843 10.91566849 C-8.34695985 9.45992137 -6.88711278 8.00110282 -5.42797852 6.54150391 C-4.59524918 5.71099518 -3.76251984 4.88048645 -2.90455627 4.02481079 C-0.95185407 2.14292466 -0.95185407 2.14292466 0 0 Z " fill="#FEFBF8" transform="translate(258,77)"></path><path d="M0 0 C4.26615504 2.04066983 6.73398524 4.58553002 10 8 C8.67365058 10.93745916 7.2306634 13.02143479 4.95898438 15.29980469 C4.34494751 15.92014587 3.73091064 16.54048706 3.0982666 17.17962646 C2.43677612 17.83706848 1.77528564 18.4945105 1.09375 19.171875 C0.41324585 19.8542926 -0.2672583 20.53671021 -0.96838379 21.23980713 C-2.40501197 22.67779427 -3.84416085 24.11326692 -5.28564453 25.54638672 C-7.49876429 27.74877028 -9.70098472 29.96164933 -11.90234375 32.17578125 C-13.29883803 33.57095454 -14.69595227 34.96550762 -16.09375 36.359375 C-16.75524048 37.02491394 -17.41673096 37.69045288 -18.0982666 38.37615967 C-18.71230347 38.98389221 -19.32634033 39.59162476 -19.95898438 40.21777344 C-20.49922241 40.75642029 -21.03946045 41.29506714 -21.59606934 41.85003662 C-23 43 -23 43 -25 43 C-25 43.66 -25 44.32 -25 45 C-1.24 45 22.52 45 47 45 C47 48.96 47 52.92 47 57 C24.56 57.33 2.12 57.66 -21 58 C-10.77 68.23 -0.54 78.46 10 89 C4 96 4 96 0 98 C-15.84 82.16 -31.68 66.32 -48 50 C-46.09675257 46.19350513 -44.51708822 44.27382544 -41.55029297 41.32324219 C-40.16908768 39.94226349 -40.16908768 39.94226349 -38.75997925 38.53338623 C-37.75415535 37.5377747 -36.7482222 36.54227352 -35.7421875 35.546875 C-34.71327851 34.52169807 -33.68481163 33.49607725 -32.6567688 32.47003174 C-29.95518419 29.77606836 -27.24764659 27.08816632 -24.53881836 24.40148926 C-21.77355511 21.65671696 -19.01397367 18.90624528 -16.25390625 16.15625 C-10.84147726 10.76524427 -5.42274562 5.38063036 0 0 Z " fill="#FEFCF9" transform="translate(388,205)"></path><path d="M0 0 C4.29 0 8.58 0 13 0 C13.33 21.12 13.66 42.24 14 64 C24.56 53.44 35.12 42.88 46 32 C53 38 53 38 55 42 C48.78198639 48.26427812 42.55864253 54.52319665 36.32835579 60.77526855 C33.43580344 63.67827471 30.54514757 66.58311883 27.65869141 69.4921875 C24.87497811 72.29757234 22.08646031 75.09809627 19.29449081 77.89526367 C18.22817956 78.96528094 17.16363517 80.03706184 16.10086441 81.1105957 C14.61626336 82.60963608 13.12560122 84.10237991 11.63330078 85.59375 C10.78502716 86.44646484 9.93675354 87.29917969 9.06277466 88.17773438 C7 90 7 90 5 90 C3.61277771 88.59277344 3.61277771 88.59277344 1.97827148 86.609375 C-2.31592847 81.5631899 -6.95511015 76.91906597 -11.65234375 72.25 C-12.55247696 71.35128174 -13.45261017 70.45256348 -14.38002014 69.52661133 C-16.74711263 67.16413425 -19.11634639 64.80384888 -21.48669434 62.44464111 C-23.91550742 60.02614819 -26.34141103 57.60474054 -28.76757812 55.18359375 C-33.50907369 50.45307046 -38.25341898 45.72542027 -43 41 C-42.0919838 39.86800647 -41.17316174 38.74467637 -40.25 37.625 C-39.73953125 36.99851562 -39.2290625 36.37203125 -38.703125 35.7265625 C-36.91800519 33.91687682 -35.32050356 32.99882545 -33 32 C-28.57816365 36.37127028 -24.16407358 40.75024957 -19.75537109 45.13476562 C-18.25357961 46.62647797 -16.75000097 48.11639328 -15.24462891 49.60449219 C-13.08548034 51.73947648 -10.93276847 53.88076771 -8.78125 56.0234375 C-8.10316284 56.69120209 -7.42507568 57.35896667 -6.72644043 58.04696655 C-5.79547546 58.97770493 -5.79547546 58.97770493 -4.84570312 59.92724609 C-4.29499146 60.47351654 -3.74427979 61.01978699 -3.17687988 61.58261108 C-2 63 -2 63 -2 65 C-1.34 65 -0.68 65 0 65 C0 43.55 0 22.1 0 0 Z " fill="#FEFBF9" transform="translate(253,345)"></path><path d="M0 0 C6.04265914 5.00255879 11.56098043 10.43177324 17.08984375 15.9921875 C18.04368954 16.94790248 18.99775941 17.90339388 19.95204163 18.8586731 C22.44153194 21.35194916 24.92800224 23.84821525 27.41381836 26.34515381 C29.95957994 28.90121509 32.50823777 31.45438505 35.05664062 34.0078125 C40.04057069 39.00241019 45.02131048 44.00017799 50 49 C42.48952414 58.02297039 34.09205895 66.20771463 25.82275391 74.52734375 C23.846939 76.51660181 21.87869045 78.5129242 19.91650391 80.515625 C17.08072437 83.40991429 14.22499725 86.28370846 11.3671875 89.15625 C10.48795624 90.05815063 9.60872498 90.96005127 8.70285034 91.88928223 C7.88164703 92.7076355 7.06044373 93.52598877 6.21435547 94.36914062 C5.13563675 95.45998962 5.13563675 95.45998962 4.03512573 96.57287598 C2 98 2 98 -0.1569519 97.81506348 C-2.35363354 96.84361028 -3.61221749 95.6869495 -5.25 93.9375 C-6.03117187 93.11572266 -6.03117187 93.11572266 -6.828125 92.27734375 C-7.21484375 91.85582031 -7.6015625 91.43429687 -8 91 C-6.72370463 88.19923613 -5.40867105 86.16415401 -3.21850586 84.00732422 C-2.38270241 83.1765889 -2.38270241 83.1765889 -1.53001404 82.32907104 C-0.93100784 81.74352448 -0.33200165 81.15797791 0.28515625 80.5546875 C0.90144394 79.94360138 1.51773163 79.33251526 2.1526947 78.70291138 C4.11793324 76.75545618 6.08973764 74.81483091 8.0625 72.875 C10.03794275 70.92716399 12.01191351 68.97789254 13.98301697 67.02566528 C15.20893061 65.81202071 16.43750729 64.60105915 17.66896057 63.39303589 C20.71132027 60.4854956 20.71132027 60.4854956 23 57 C1.88 57 -19.24 57 -41 57 C-41 53.04 -41 49.08 -41 45 C-18.89 44.67 3.22 44.34 26 44 C14.78 32.78 3.56 21.56 -8 10 C-5.77502475 5.55004949 -3.55366005 3.39915309 0 0 Z " fill="#FEFCFB" transform="translate(124,205)"></path></svg>