<svg version="1.1" xmlns="http://www.w3.org/2000/svg" width="16px" height="16px" fill="currentColor" viewBox="0 0 512 512"><path d="M0 0 C168.96 0 337.92 0 512 0 C512 168.96 512 337.92 512 512 C343.04 512 174.08 512 0 512 C0 343.04 0 174.08 0 0 Z " fill="#E3750D" transform="translate(0,0)"></path><path d="M0 0 C1.64857483 1.03260803 1.64857483 1.03260803 3 3 C3.30124929 5.70792365 3.42012042 8.18700151 3.40405273 10.89624023 C3.41091599 11.6997995 3.41777924 12.50335876 3.42485046 13.33126831 C3.44316885 15.99055596 3.4392738 18.64925647 3.43359375 21.30859375 C3.43815328 23.15560601 3.44345816 25.00261656 3.44947815 26.84962463 C3.45841924 30.72249235 3.45597496 34.59515396 3.44604492 38.46801758 C3.4345563 43.43272747 3.45475987 48.39672601 3.48396206 53.36134243 C3.5023032 57.17634099 3.50203574 60.99116845 3.49632454 64.80620003 C3.49617106 66.63664815 3.50223768 68.46710768 3.51461601 70.29751396 C3.52948441 72.85691892 3.51888023 75.41500182 3.50170898 77.97436523 C3.51621094 79.10989082 3.51621094 79.10989082 3.53100586 80.26835632 C3.48209967 83.74723154 3.29172174 85.6291068 1.10992432 88.4030304 C-1.12684743 90.09600889 -3.36886889 91.6435355 -5.76171875 93.109375 C-6.70337891 93.69114502 -7.64503906 94.27291504 -8.61523438 94.87231445 C-9.62908203 95.49195068 -10.64292969 96.11158691 -11.6875 96.75 C-13.85884755 98.09119462 -16.02939504 99.43368522 -18.19921875 100.77734375 C-19.31989746 101.47069824 -20.44057617 102.16405273 -21.59521484 102.87841797 C-28.08371511 106.90929004 -34.49770111 111.05824091 -40.9206543 115.19238281 C-41.87496338 115.8056543 -42.82927246 116.41892578 -43.8125 117.05078125 C-44.72240189 117.66084518 -45.63230377 118.27090912 -46.56977844 118.89945984 C-48.98466249 120.45529749 -51.4078126 121.65784662 -54.04162598 122.80055237 C-61.89857886 126.44875004 -61.89857886 126.44875004 -66.90997314 133.1837635 C-68.34986183 139.70203569 -67.9831223 146.34693233 -67.78125 152.9765625 C-67.77383661 155.11460105 -67.77349845 157.25267476 -67.77990723 159.39071655 C-67.77783841 164.99236573 -67.68027889 170.58835418 -67.56219482 176.18859863 C-67.45858659 181.91318234 -67.44611873 187.6379033 -67.42578125 193.36328125 C-67.3726118 204.57750548 -67.21846733 215.7878624 -67 227 C-66.0809639 227.29607651 -65.1619278 227.59215302 -64.21504211 227.89720154 C-60.55807822 229.15158453 -57.20925334 230.81165877 -53.79296875 232.59765625 C-53.11406586 232.94832153 -52.43516296 233.29898682 -51.73568726 233.66027832 C-49.55079477 234.79023057 -47.36915914 235.92631964 -45.1875 237.0625 C-43.69215611 237.83685524 -42.19663166 238.6108619 -40.70092773 239.38452148 C-32.2816299 243.7449991 -23.8701485 248.122728 -15.5456543 252.66235352 C-12.45028232 254.44080981 -12.45028232 254.44080981 -9 255 C-8.360625 254.154375 -7.72125 253.30875 -7.0625 252.4375 C-2.88064564 247.1630891 3.65404515 243.11531828 10 241 C10.10957031 240.03320312 10.21914062 239.06640625 10.33203125 238.0703125 C11.56523704 227.94398854 13.08494512 218.71766593 18.328125 209.7890625 C19.23474451 207.37492451 18.99176562 206.37572947 18 204 C16.23177658 201.72193794 16.23177658 201.72193794 14 199.4375 C9.74621138 194.85702041 5.76790782 190.11747285 1.84765625 185.25 C0.04394839 182.97880251 0.04394839 182.97880251 -2 181 C-2.33 197.17 -2.66 213.34 -3 230 C-7.29 230 -11.58 230 -16 230 C-16 194.03 -16 158.06 -16 121 C-11.71 121 -7.42 121 -3 121 C-2.67 135.52 -2.34 150.04 -2 165 C0.31 162.36 2.62 159.72 5 157 C6.9502643 154.86642104 8.90544053 152.7404282 10.875 150.625 C15.96909483 145.12955707 21.00108141 139.58227534 26 134 C27.66610473 132.14532838 29.33276232 130.29115323 31 128.4375 C31.7425 127.61121094 32.485 126.78492188 33.25 125.93359375 C34.14940606 124.93983036 35.05224029 123.94775971 36 123 C38.86267567 122.92674832 41.700719 122.90761795 44.5625 122.9375 C45.36880859 122.94201172 46.17511719 122.94652344 47.00585938 122.95117188 C49.00393756 122.96299482 51.00197783 122.98093086 53 123 C49.08695675 128.43592495 44.87107892 133.42443877 40.3515625 138.3671875 C38.00298292 140.99666032 35.77521304 143.69311033 33.5625 146.4375 C30.46851286 150.26455727 27.2716945 153.94280873 23.9375 157.5625 C19.37235402 162.52057717 15.13265833 167.67833662 11 173 C14.99778239 178.61257292 19.37375363 183.7382331 24.046875 188.80078125 C26 191 26 191 28 194 C31.52170497 193.40123137 33.37699105 192.05903574 36.0625 189.75 C45.94150148 181.82401364 56.93540056 178.64337229 69.4375 178.75 C70.34048828 178.74226562 71.24347656 178.73453125 72.17382812 178.7265625 C80.07210547 178.74943948 86.36847763 180.37210447 93.75170898 183.07714844 C94.736306 183.43726013 95.72090302 183.79737183 96.7353363 184.168396 C97.48267532 184.44282532 98.23001434 184.71725464 99 185 C102.96623159 154.93195899 102.96623159 154.93195899 95.63964844 127.12988281 C90.39233428 121.75695007 82.93458463 119.28463484 75.92372131 117.0471344 C69.20572997 114.90210704 63.56381281 111.49807728 57.62976074 107.7487793 C54.87813898 106.02313553 52.08010105 104.37689191 49.28515625 102.72265625 C48.23215332 102.09633301 47.17915039 101.47000977 46.09423828 100.82470703 C43.11534477 99.06802011 40.12304771 97.3380258 37.12109375 95.62109375 C36.22849854 95.1103833 35.33590332 94.59967285 34.41625977 94.07348633 C32.76971031 93.1349737 31.12060494 92.20092543 29.46850586 91.2722168 C24.10889423 88.21778846 24.10889423 88.21778846 23 86 C22.89135367 83.39193327 22.84268318 80.81015988 22.83886719 78.20141602 C22.83390228 77.39639648 22.82893738 76.59137695 22.82382202 75.76196289 C22.80918826 73.09260206 22.80239693 70.42330064 22.796875 67.75390625 C22.79112522 65.90307106 22.78536747 64.0522359 22.77960205 62.20140076 C22.76908907 58.31842775 22.76324813 54.43547547 22.75976562 50.55249023 C22.75427558 45.57098687 22.73023797 40.58975611 22.70179367 35.60833836 C22.68319459 31.78483777 22.67796319 27.96140326 22.67642975 24.13786125 C22.67339728 22.30099939 22.66534884 20.46413886 22.65224457 18.62732124 C22.63523837 16.06066085 22.63705065 13.49467199 22.64355469 10.92797852 C22.6343399 10.16579514 22.62512512 9.40361176 22.6156311 8.61833191 C22.65635261 3.50281261 22.65635261 3.50281261 24.34710693 1.02896118 C27.00722973 -0.62702199 28.92944852 -0.37584713 32 0 C34.99414062 1.35424805 34.99414062 1.35424805 38.15625 3.26171875 C38.731474 3.60359726 39.306698 3.94547577 39.89935303 4.29771423 C41.77379335 5.41554371 43.63664484 6.55130638 45.5 7.6875 C46.80880716 8.47246525 48.11838659 9.25614421 49.42871094 10.03857422 C52.0624293 11.6133523 54.69205706 13.19462448 57.31835938 14.78173828 C61.4018302 17.2469145 65.51083867 19.66754974 69.62402344 22.08276367 C77.14642359 26.50067012 84.63237141 30.97766926 92.10449219 35.47998047 C101.68260215 41.25033824 111.30081539 46.93528724 121 52.5 C171.4690203 81.4690203 171.4690203 81.4690203 176 86 C176.10898528 87.9992777 176.14690644 90.00243987 176.15821838 92.00465393 C176.17290161 93.96300674 176.17290161 93.96300674 176.18788147 95.96092224 C176.19378645 97.4212948 176.19959684 98.88166774 176.20532227 100.34204102 C176.21489528 101.86926543 176.22490501 103.39648716 176.23532104 104.92370605 C176.2624387 109.08258801 176.28341098 113.2414814 176.30332303 117.40040326 C176.32514042 121.74196806 176.35254982 126.08349737 176.37937927 130.42503357 C176.42936377 138.65211008 176.47428116 146.87920624 176.51740164 155.10632128 C176.56672492 164.47015585 176.62166119 173.83395481 176.67708123 183.19775498 C176.79098962 202.46513695 176.89780927 221.7325525 177 241 C178.03522797 241.51176788 178.03522797 241.51176788 179.09136963 242.03387451 C179.99482117 242.48256897 180.89827271 242.93126343 181.82910156 243.39355469 C183.17370453 244.06001007 183.17370453 244.06001007 184.54547119 244.7399292 C192.48670546 248.81668617 197.61836182 254.3109317 202 262 C202.86625 263.5159375 202.86625 263.5159375 203.75 265.0625 C208.17496598 275.46117005 208.57737981 287.26786056 205 298 C204.76667969 298.77601563 204.53335937 299.55203125 204.29296875 300.3515625 C200.37377173 311.91229891 191.59878244 319.48897489 181 325 C170.35185888 329.80282328 159.88370946 329.43561853 148.43852615 329.21076775 C145.1544211 329.15103153 141.87160028 329.12515613 138.58700562 329.10902405 C129.25711059 329.06111928 119.92858195 328.98526939 110.60009766 328.81176758 C75.69209512 327.07717005 75.69209512 327.07717005 45.03582764 341.40164185 C42.00590206 343.78048088 38.71932028 345.52295199 35.3125 347.296875 C34.24515625 347.88210938 33.1778125 348.46734375 32.078125 349.0703125 C31.06234375 349.62460937 30.0465625 350.17890625 29 350.75 C27.92234375 351.35070312 26.8446875 351.95140625 25.734375 352.5703125 C15.09602964 358.36113596 15.09602964 358.36113596 10 358 C5.95076741 356.44574118 2.22540321 354.41478919 -1.5625 352.3125 C-2.66803223 351.71816162 -3.77356445 351.12382324 -4.91259766 350.51147461 C-8.28549125 348.69275748 -11.64390257 346.84949333 -15 345 C-16.86022728 343.98355136 -18.72087577 342.96787307 -20.58203125 341.953125 C-23.23899889 340.50322652 -25.89488718 339.05156341 -28.54711914 337.59301758 C-35.80551467 333.61185231 -43.14099357 329.79141151 -50.5 326 C-59.66757187 321.27680295 -68.75896441 316.44208182 -77.79296875 311.46875 C-84.64333315 307.70952528 -91.55763512 304.08610816 -98.5 300.5 C-107.51436318 295.84248623 -116.46099618 291.07924807 -125.35058594 286.18774414 C-129.42558073 283.94574377 -133.50488899 281.72143561 -137.6328125 279.578125 C-138.3345459 279.21243408 -139.0362793 278.84674316 -139.75927734 278.4699707 C-141.60199955 277.51425913 -143.44924883 276.56728997 -145.296875 275.62109375 C-148 274 -148 274 -150 271 C-150.20996897 268.51833245 -150.30430032 266.14623986 -150.30780029 263.6630249 C-150.3165648 262.9099434 -150.32532931 262.1568619 -150.33435941 261.38095975 C-150.36113196 258.84999173 -150.37349187 256.31916297 -150.38574219 253.78808594 C-150.40154437 251.97635773 -150.41808228 250.16463581 -150.43530273 248.35292053 C-150.48773895 242.39679984 -150.51835618 236.44065103 -150.546875 230.484375 C-150.5575943 228.4343387 -150.56834932 226.38430259 -150.57913971 224.33426666 C-150.62239549 215.80729484 -150.65986965 207.2803306 -150.68238449 198.75327682 C-150.7148697 186.530383 -150.78123785 174.30876009 -150.89518619 162.08634543 C-150.97256732 153.49346509 -151.01164742 144.90092481 -151.02222562 136.30770516 C-151.02953522 131.17444607 -151.05359657 126.04254244 -151.11843109 120.90966034 C-151.17856729 116.07952654 -151.19123039 111.25156892 -151.16766357 106.42114067 C-151.16722184 104.65018285 -151.18385663 102.8791245 -151.21897125 101.10851479 C-151.46945238 87.74930965 -151.46945238 87.74930965 -147.86040497 83.45291901 C-145.30380753 81.62544391 -142.85734567 80.29400679 -140 79 C-138.42849587 78.08603324 -136.86339271 77.16085437 -135.30859375 76.21875 C-133.68716679 75.30844313 -132.06336554 74.40235538 -130.4375 73.5 C-122.54986572 69.05718948 -114.74983468 64.49143654 -107 59.8125 C-97.8081035 54.2681132 -88.57848854 48.79421272 -79.3125 43.375 C-78.39233597 42.83675095 -78.39233597 42.83675095 -77.45358276 42.28762817 C-75.02061503 40.86450798 -72.58764542 39.44139102 -70.15455627 38.01847839 C-61.97560546 33.23340099 -53.82233551 28.40492506 -45.66796875 23.578125 C-42.87351424 21.92518266 -40.07756709 20.27478925 -37.28125 18.625 C-36.33241943 18.06482178 -35.38358887 17.50464355 -34.40600586 16.92749023 C-32.53532704 15.82390698 -30.66376817 14.72181393 -28.79125977 13.62133789 C-24.6614279 11.18940482 -20.55199791 8.73724399 -16.49609375 6.18359375 C-15.81409912 5.75852539 -15.13210449 5.33345703 -14.42944336 4.89550781 C-13.19257001 4.1211121 -11.96219618 3.33617762 -10.74047852 2.53808594 C-7.03368283 0.22772729 -4.35320334 -0.65420331 0 0 Z " fill="#FEFCFA" transform="translate(227,77)"></path><path d="M0 0 C0.419339 7.89258542 0.73790225 15.78044599 0.93261909 23.68145466 C1.02615022 27.35196926 1.15255379 31.01481396 1.35791016 34.6809082 C2.6470215 58.30519916 2.6470215 58.30519916 -1.69189453 64.36160278 C-5.8419631 68.08129788 -10.47400161 70.16157574 -15.66618347 72.05160522 C-19.52372138 73.6191958 -22.83547066 75.95799219 -26.25 78.3125 C-27.01626709 78.81088379 -27.78253418 79.30926758 -28.57202148 79.82275391 C-29.49349976 80.42482666 -29.49349976 80.42482666 -30.43359375 81.0390625 C-35.6990623 84.46518349 -41.00721972 87.82350359 -46.3125 91.1875 C-58.77021786 98.31618436 -58.77021786 98.31618436 -70 107 C-70.10404705 108.38211485 -70.13960584 109.76946675 -70.14717102 111.1554718 C-70.15432632 112.05138031 -70.16148163 112.94728882 -70.16885376 113.87034607 C-70.17154266 114.86099564 -70.17423157 115.8516452 -70.17700195 116.87231445 C-70.18357315 117.90966736 -70.19014435 118.94702026 -70.19691467 120.01580811 C-70.21670223 123.46496645 -70.22832214 126.91408117 -70.23828125 130.36328125 C-70.24235678 131.53785574 -70.2464323 132.71243023 -70.25063133 133.92259789 C-70.27151496 140.13874513 -70.28580697 146.35487014 -70.29516602 152.57104492 C-70.30623772 159.00421368 -70.34064023 165.43703722 -70.38033772 171.87008381 C-70.40643645 176.80538086 -70.41485184 181.74059482 -70.41844749 186.67595482 C-70.42333059 189.04788737 -70.43499314 191.4198158 -70.45348549 193.79168129 C-70.47773399 197.10790259 -70.47693782 200.42321986 -70.4699707 203.73950195 C-70.48278076 204.72407883 -70.49559082 205.7086557 -70.50878906 206.72306824 C-70.53864002 211.99464947 -70.53864002 211.99464947 -68.14257812 216.53874207 C-65.52892407 218.32127811 -62.8979359 219.81848855 -60.07421875 221.25 C-59.21001564 221.69245308 -59.21001564 221.69245308 -58.32835388 222.1438446 C-56.45155065 223.10290999 -54.56957888 224.05133623 -52.6875 225 C-51.38416567 225.66426333 -50.08127237 226.32939266 -48.77880859 226.99536133 C-46.13414079 228.34702736 -43.48785781 229.69544508 -40.84033203 231.04150391 C-35.24994606 233.8877063 -29.6863426 236.7850525 -24.125 239.6875 C-23.20033936 240.16767578 -22.27567871 240.64785156 -21.32299805 241.14257812 C-16.48616056 243.66278482 -11.71445651 246.25739383 -7 249 C-7.15726562 249.96550781 -7.31453125 250.93101562 -7.4765625 251.92578125 C-9.21004198 264.20510834 -9.28017166 276.0096996 -3 287 C-2.5771875 287.80695313 -2.154375 288.61390625 -1.71875 289.4453125 C2.13461793 296.05428656 7.53897336 300.06160528 14 304 C14.83660156 304.51949219 15.67320312 305.03898437 16.53515625 305.57421875 C26.73754098 310.81815435 38.79545134 309.93068511 50 310 C46.05176314 314.35408458 40.73086325 316.85652201 35.6875 319.75 C34.13772461 320.67232422 34.13772461 320.67232422 32.55664062 321.61328125 C31.55181641 322.18949219 30.54699219 322.76570313 29.51171875 323.359375 C28.59865967 323.89014648 27.68560059 324.42091797 26.74487305 324.96777344 C22.38182212 326.60852584 19.36681313 325.58759192 15.18945312 323.79174805 C14.22974609 323.28683838 13.27003906 322.78192871 12.28125 322.26171875 C11.19569824 321.69509521 10.11014648 321.12847168 8.99169922 320.54467773 C7.26330811 319.62537476 7.26330811 319.62537476 5.5 318.6875 C4.28560855 318.04900954 3.0709235 317.41107722 1.85595703 316.77368164 C-6.40652602 312.42704692 -14.60984082 307.97255598 -22.7890625 303.47143555 C-29.64022728 299.71039006 -36.55621379 296.08677192 -43.5 292.5 C-52.34355079 287.93155638 -61.10972109 283.24460139 -69.83203125 278.44921875 C-76.34386025 274.87851886 -82.90633811 271.41695839 -89.5 268 C-97.42023752 263.89361146 -105.29340636 259.71070133 -113.125 255.4375 C-114.50268555 254.68629883 -114.50268555 254.68629883 -115.90820312 253.91992188 C-120.70875696 251.29061778 -120.70875696 251.29061778 -123 250 C-123.85718187 249.62046834 -124.71436375 249.24093668 -125.59752083 248.84990406 C-128 247 -128 247 -128.64037895 243.96142864 C-128.64745935 242.70359979 -128.65453976 241.44577093 -128.66183472 240.14982605 C-128.67776804 239.09877472 -128.67776804 239.09877472 -128.69402325 238.02649003 C-128.72339436 235.67241317 -128.71689232 233.31980774 -128.71044922 230.96557617 C-128.72376954 229.28029187 -128.73915982 227.59502283 -128.75646973 225.90977478 C-128.79642691 221.32694065 -128.80397085 216.74459243 -128.80335379 212.16160369 C-128.80513193 208.33705109 -128.82104468 204.51260605 -128.83647549 200.68808824 C-128.87202287 191.66430763 -128.87975536 182.64078118 -128.87158203 173.61694336 C-128.86374222 164.30693383 -128.90768624 154.99815901 -128.97638309 145.68842715 C-129.03322638 137.69761405 -129.05532113 129.70720096 -129.05014813 121.71618825 C-129.0475694 116.94251523 -129.05877002 112.16986021 -129.10439682 107.39638329 C-129.14601918 102.90518435 -129.14432121 98.41605037 -129.10943604 93.92481422 C-129.10393162 92.2776632 -129.11376271 90.63037795 -129.14014053 88.98342896 C-129.32612478 76.53500679 -129.32612478 76.53500679 -126.03724098 72.72808075 C-123.73892949 71.1685862 -121.5607301 70.05856201 -119 69 C-117.38859131 68.01604248 -117.38859131 68.01604248 -115.74462891 67.01220703 C-114.74866699 66.43325684 -113.75270508 65.85430664 -112.7265625 65.2578125 C-111.89087234 64.77016922 -111.89087234 64.77016922 -111.03829956 64.27267456 C-109.85068962 63.58000637 -108.66237355 62.8885476 -107.47338867 62.19824219 C-104.25235706 60.32799322 -101.03677363 58.44840702 -97.8203125 56.5703125 C-96.83535797 55.99570282 -96.83535797 55.99570282 -95.83050537 55.40948486 C-89.36848561 51.63739773 -82.93266989 47.821931 -76.5 44 C-66.93596348 38.32077932 -57.35016969 32.68033469 -47.75 27.0625 C-36.72194985 20.60987919 -36.72194985 20.60987919 -25.75 14.0625 C-20.40260191 10.84269713 -15.05298475 7.62710706 -9.6875 4.4375 C-8.95047852 3.9947876 -8.21345703 3.5520752 -7.45410156 3.09594727 C-2.22857207 0 -2.22857207 0 0 0 Z " fill="#DD6D11" transform="translate(218,95)"></path><path d="M0 0 C1.22396484 0.70382812 1.22396484 0.70382812 2.47265625 1.421875 C13.9845416 8.57115939 19.78001723 18.49101606 25.671875 30.37109375 C26.75917125 32.86326668 26.75917125 32.86326668 28 34 C31.68104777 34.60098739 34.06005027 34.66100782 37.171875 32.47265625 C38.57488065 31.22070412 39.95274601 29.9398639 41.30078125 28.62890625 C43.75276757 26.27838143 44.78788168 26.01631679 48.25 25.75 C54.07543127 26.13836208 57.40900345 28.1061927 61.25 32.375 C65.24402167 37.38056241 66.22019254 41.50232242 66.4609375 47.81640625 C67.22457277 50.90968246 68.50456658 52.04579469 71 54 C74.04428826 55.19051396 74.04428826 55.19051396 77.375 56 C86.59095802 58.68156638 92.41865564 63.18858206 98 71 C101.9948845 78.98976901 102.43057706 88.71004393 100.12109375 97.25 C96.32494157 107.27284405 90.96584305 112.45417795 81.4296875 117.0546875 C76.95346753 118.79623932 72.74540385 119.12773413 67.96798706 119.14717102 C66.15144371 119.15790398 66.15144371 119.15790398 64.29820251 119.16885376 C62.96426417 119.17169365 61.63032556 119.17440543 60.29638672 119.17700195 C58.88494196 119.18327181 57.47349884 119.18991907 56.0620575 119.19691467 C51.43461239 119.21789856 46.80716718 119.228313 42.1796875 119.23828125 C40.58230701 119.24233118 38.98492669 119.24644817 37.38754654 119.25063133 C29.87987044 119.26967199 22.37220409 119.28390435 14.86450851 119.2922433 C6.21911549 119.3020063 -2.42602087 119.3283059 -11.07132351 119.36874419 C-17.76708437 119.39898078 -24.46277197 119.41371937 -31.15859973 119.41702431 C-35.15131152 119.41936653 -39.14374877 119.42821808 -43.13638687 119.45348549 C-46.89741508 119.47690337 -50.65799065 119.48094506 -54.4190731 119.47072411 C-56.44109879 119.469999 -58.46310221 119.48899392 -60.48503113 119.50878906 C-72.45570567 119.44109712 -82.37103892 116.5768748 -91 108 C-92.97375937 105.46161998 -94.59011314 102.88772007 -96 100 C-96.54333984 98.90751953 -96.54333984 98.90751953 -97.09765625 97.79296875 C-99.8502802 89.27294224 -99.25363833 78.39006032 -95.5625 70.3125 C-90.27743868 61.39318906 -82.90455935 57.5568635 -73.40625 54.04296875 C-70.85353482 53.24273752 -70.85353482 53.24273752 -70 51 C-69.92459433 48.89283038 -69.85370593 46.78534737 -69.81176758 44.67724609 C-69.46509117 30.35252192 -65.29643304 19.04478514 -55.5625 8.3125 C-54.716875 7.549375 -53.87125 6.78625 -53 6 C-52.53464844 5.51917969 -52.06929688 5.03835938 -51.58984375 4.54296875 C-38.49149516 -8.16918775 -15.27186073 -9.05352118 0 0 Z " fill="#E2730E" transform="translate(320,274)"></path><path d="M0 0 C4.56897543 1.45423461 8.4461876 3.28132811 12.5 5.8125 C13.83145555 6.62724365 15.16352517 7.44098432 16.49609375 8.25390625 C17.21651855 8.69492676 17.93694336 9.13594727 18.67919922 9.59033203 C22.94951663 12.1841478 27.25804414 14.71339145 31.5625 17.25 C33.45967138 18.36973073 35.35680636 19.48952315 37.25390625 20.609375 C38.20539551 21.17076172 39.15688477 21.73214844 40.13720703 22.31054688 C44.7593711 25.03827802 49.37961088 27.76926382 54 30.5 C55.83332361 31.58334979 57.66665695 32.66668311 59.5 33.75 C63.16666667 35.91666667 66.83333333 38.08333333 70.5 40.25 C71.40782227 40.78641113 72.31564453 41.32282227 73.25097656 41.87548828 C75.08115842 42.95701849 76.91123685 44.03872374 78.74121094 45.12060547 C83.37192202 47.85798381 88.0044862 50.59213545 92.640625 53.3203125 C101.56490121 58.57543607 110.47069882 63.8569642 119.3125 69.25 C120.46057129 69.94923584 120.46057129 69.94923584 121.63183594 70.66259766 C126.87462831 73.87462831 126.87462831 73.87462831 128 75 C128.09605864 76.63223456 128.12187821 78.2686439 128.12025452 79.90370178 C128.12231651 81.49603889 128.12231651 81.49603889 128.12442017 83.12054443 C128.12082489 84.29514221 128.11722961 85.46973999 128.11352539 86.67993164 C128.11367142 87.90902756 128.11381744 89.13812347 128.1139679 90.40446472 C128.11338892 93.78448672 128.10835964 97.16444829 128.10139394 100.54445958 C128.09515988 104.07321194 128.09455656 107.60196503 128.09336853 111.13072205 C128.09025537 117.81723119 128.08204218 124.50372406 128.07201904 131.19022602 C128.06085744 138.80074303 128.05534733 146.4112608 128.05032361 154.02178395 C128.03985956 169.68119874 128.02226041 185.34059727 128 201 C127.32453125 200.57847656 126.6490625 200.15695312 125.953125 199.72265625 C125.06109375 199.17480469 124.1690625 198.62695312 123.25 198.0625 C122.36828125 197.51722656 121.4865625 196.97195313 120.578125 196.41015625 C115.93068957 193.8681499 111.89742956 193.81314287 106.625 193.75 C105.33851563 193.72421875 104.05203125 193.6984375 102.7265625 193.671875 C98.7725301 194.0200288 96.42778736 195.07882125 93 197 C92.34 197 91.68 197 91 197 C89.53146403 194.75978111 88.29852252 192.4212598 87.0234375 190.06640625 C85.22365818 187.04931382 85.22365818 187.04931382 83.08137512 185.30377197 C78.10153186 180.73442564 76.43761118 177.3037739 76.0793457 170.52416992 C76.04482516 167.59009861 76.10666563 164.66363297 76.17578125 161.73046875 C76.18096745 160.16108512 76.18188668 158.59168217 76.17875671 157.02229309 C76.17864468 152.91488146 76.22170384 148.80924836 76.27856445 144.70227051 C76.36748502 138.11287294 76.41240817 131.52395884 76.41506004 124.93398476 C76.42563334 122.63759293 76.4684038 120.34334181 76.51374817 118.04740906 C76.52126062 116.6412314 76.5275668 115.2350466 76.5324707 113.82885742 C76.54993851 112.60357834 76.56740631 111.37829926 76.58540344 110.1158905 C76.27500461 106.82504401 76.27500461 106.82504401 73.62458801 104.67176819 C71.03211121 103.02045369 68.44714014 101.40754398 65.7734375 99.890625 C64.75499756 99.30885498 63.73655762 98.72708496 62.68725586 98.12768555 C61.59421143 97.50804932 60.50116699 96.88841309 59.375 96.25 C57.02914817 94.90892186 54.68393913 93.56679492 52.33984375 92.22265625 C51.73723221 91.87745438 51.13462067 91.5322525 50.51374817 91.17658997 C43.95070021 87.4103477 37.44124028 83.55499189 30.9375 79.6875 C29.81472656 79.02000732 28.69195312 78.35251465 27.53515625 77.66479492 C25.36731125 76.37587941 23.19950377 75.08690079 21.03173828 73.79785156 C15.95325561 70.78625981 10.85916821 67.80111432 5.75756836 64.82885742 C1.10812602 62.10812602 1.10812602 62.10812602 0 61 C-0.09391296 59.09756238 -0.11743658 57.19161541 -0.11352539 55.28686523 C-0.11344986 54.0656749 -0.11337433 52.84448456 -0.11329651 51.58628845 C-0.10818911 50.24372314 -0.10297311 48.90115825 -0.09765625 47.55859375 C-0.09579199 46.19238842 -0.09436813 44.82618243 -0.09336853 43.4599762 C-0.08954394 39.85798305 -0.07971417 36.25603 -0.06866455 32.65405273 C-0.05844916 28.98096255 -0.05387064 25.30786591 -0.04882812 21.63476562 C-0.03809184 14.42315877 -0.02101614 7.211585 0 0 Z " fill="#EB7F0A" transform="translate(262,95)"></path></svg>