<svg version="1.1" xmlns="http://www.w3.org/2000/svg" width="16px" height="16px" fill="currentColor" viewBox="0 0 512 512"><path d="M0 0 C168.96 0 337.92 0 512 0 C512 168.96 512 337.92 512 512 C343.04 512 174.08 512 0 512 C0 343.04 0 174.08 0 0 Z " fill="#E3740D" transform="translate(0,0)"></path><path d="M0 0 C59.4 0 118.8 0 180 0 C180 33.99 180 67.98 180 103 C171.42 103 162.84 103 154 103 C154 109.27 154 115.54 154 122 C139.15 122 124.3 122 109 122 C109 115.73 109 109.46 109 103 C104.71 103 100.42 103 96 103 C96 109.27 96 115.54 96 122 C68.61 122 41.22 122 13 122 C13 115.73 13 109.46 13 103 C8.71 103 4.42 103 0 103 C0 69.01 0 35.02 0 0 Z " fill="#E37610" transform="translate(166,198)"></path><path d="M0 0 C59.4 0 118.8 0 180 0 C180 33.99 180 67.98 180 103 C171.42 103 162.84 103 154 103 C154 109.27 154 115.54 154 122 C139.15 122 124.3 122 109 122 C109 115.73 109 109.46 109 103 C104.71 103 100.42 103 96 103 C96 109.27 96 115.54 96 122 C68.61 122 41.22 122 13 122 C13 115.73 13 109.46 13 103 C8.71 103 4.42 103 0 103 C0 69.01 0 35.02 0 0 Z M13 13 C13 38.41 13 63.82 13 90 C17.29 90 21.58 90 26 90 C26 96.27 26 102.54 26 109 C45.14 109 64.28 109 84 109 C84 102.73 84 96.46 84 90 C96.54 90 109.08 90 122 90 C122 96.27 122 102.54 122 109 C128.27 109 134.54 109 141 109 C141 102.73 141 96.46 141 90 C149.58 90 158.16 90 167 90 C167 64.59 167 39.18 167 13 C116.18 13 65.36 13 13 13 Z " fill="#FEFBF8" transform="translate(166,198)"></path><path d="M0 0 C1.82826576 0.002062 1.82826576 0.002062 3.69346619 0.00416565 C6.26293737 0.01320537 8.83239344 0.03678157 11.40161133 0.07397461 C15.33018339 0.1287715 19.25663229 0.13550308 23.18554688 0.13476562 C25.68621622 0.14951237 28.18687122 0.16699787 30.6875 0.1875 C31.85950455 0.19083847 33.03150909 0.19417694 34.23902893 0.19761658 C44.47804326 0.37607711 44.47804326 0.37607711 49.27734375 3.69140625 C53.05548847 7.87799905 54.39666868 10.28129642 54.4543457 15.85620117 C54.47359856 17.47379585 54.47359856 17.47379585 54.49324036 19.12406921 C54.50062729 20.29484512 54.50801422 21.46562103 54.515625 22.671875 C54.52369675 23.87322586 54.53176849 25.07457672 54.54008484 26.31233215 C54.55393685 28.86030632 54.56465398 31.40829912 54.57250977 33.95629883 C54.58969646 37.84557538 54.63357146 41.73399639 54.67773438 45.62304688 C54.68786334 48.09764999 54.6963788 50.57226035 54.703125 53.046875 C54.72063309 54.20752975 54.73814117 55.36818451 54.75617981 56.56401062 C54.73849078 63.17967823 54.26430045 67.3302436 50.27734375 72.69140625 C46.4184848 76.19945984 43.01489769 76.81629166 37.90722656 76.90014648 C36.80888489 76.9194371 35.71054321 76.93872772 34.57891846 76.95860291 C29.55590138 77.01638843 24.53302645 77.06561609 19.50976562 77.09643555 C16.86184658 77.11802537 14.21399908 77.15213911 11.56640625 77.19897461 C7.74576996 77.2659406 3.926609 77.29343102 0.10546875 77.3125 C-1.07392273 77.34033066 -2.25331421 77.36816132 -3.46844482 77.39683533 C-12.65928806 77.37388196 -12.65928806 77.37388196 -16.83691406 74.09008789 C-23.13771129 67.45167626 -23.17108731 60.79400453 -23.12109375 52.0625 C-23.12396393 50.95463638 -23.12683411 49.84677277 -23.12979126 48.70533752 C-23.13182628 46.37134284 -23.1263359 44.03733088 -23.11376953 41.70336914 C-23.09769339 38.13714406 -23.11364604 34.57204966 -23.1328125 31.00585938 C-23.13083027 28.73307042 -23.12698701 26.46028217 -23.12109375 24.1875 C-23.12716644 23.12486435 -23.13323914 22.0622287 -23.13949585 20.96739197 C-23.06961076 13.59191013 -22.02560948 8.82812118 -16.83032227 3.35961914 C-11.79583681 -0.67097694 -6.17994913 -0.11386378 0 0 Z " fill="#FEFCFA" transform="translate(380.72265625,217.30859375)"></path><path d="M0 0 C1.83038818 -0.00574036 1.83038818 -0.00574036 3.69775391 -0.01159668 C6.27312039 -0.01431401 8.84851456 -0.00696555 11.42382812 0.00976562 C15.36130422 0.03117553 19.29695553 0.00995544 23.234375 -0.015625 C25.73958735 -0.01298169 28.24479857 -0.00785667 30.75 0 C31.9251416 -0.00809692 33.1002832 -0.01619385 34.31103516 -0.02453613 C40.62738913 0.04777619 44.60701365 0.22582949 49.375 4.53125 C53.19739702 8.76687913 54.48838578 11.77059689 54.55200195 17.42651367 C54.57125481 18.91902901 54.57125481 18.91902901 54.59089661 20.44169617 C54.59828354 21.51667862 54.60567047 22.59166107 54.61328125 23.69921875 C54.621353 24.80799881 54.62942474 25.91677887 54.63774109 27.05915833 C54.65157951 29.408645 54.66230274 31.75815175 54.67016602 34.10766602 C54.68734953 37.68740375 54.73123591 41.26621094 54.77539062 44.84570312 C54.78552035 47.13020155 54.79403558 49.41470782 54.80078125 51.69921875 C54.81828934 52.76408005 54.83579742 53.82894135 54.85383606 54.92607117 C54.8353813 61.30211081 54.12829825 66.24591372 50.375 71.53125 C46.20175209 75.40640877 43.71768483 76.65140025 38.10253906 76.70825195 C37.00089417 76.72108719 35.89924927 76.73392242 34.76422119 76.74714661 C33.56843445 76.75453354 32.37264771 76.76192047 31.140625 76.76953125 C29.91470642 76.777603 28.68878784 76.78567474 27.42572021 76.79399109 C24.82647114 76.80784237 22.2272038 76.81855983 19.62792969 76.82641602 C15.65531928 76.83963057 11.68332218 76.88749754 7.7109375 76.93164062 C5.18750613 76.94176809 2.66406767 76.95028402 0.140625 76.95703125 C-1.04706482 76.97453934 -2.23475464 76.99204742 -3.45843506 77.01008606 C-14.09792645 76.98215117 -14.09792645 76.98215117 -18.625 72.53125 C-23.4491231 66.41610063 -23.20971903 60.60900549 -23.15625 53.02734375 C-23.1600769 51.83069595 -23.16390381 50.63404816 -23.16784668 49.40113831 C-23.17056131 46.87882645 -23.16323179 44.35648623 -23.14648438 41.83422852 C-23.12505163 37.97803954 -23.14631329 34.12370978 -23.171875 30.26757812 C-23.16923202 27.8124959 -23.16410765 25.35741483 -23.15625 22.90234375 C-23.16434692 21.75221298 -23.17244385 20.60208221 -23.18078613 19.417099 C-23.10970793 13.33960063 -22.99911287 9.15754014 -18.625 4.53125 C-13.14925562 -0.67939882 -7.13363352 -0.04915194 0 0 Z " fill="#FEFCFB" transform="translate(99.625,217.46875)"></path><path d="M0 0 C33.66 0 67.32 0 102 0 C102 16.83 102 33.66 102 51 C68.34 51 34.68 51 0 51 C0 34.17 0 17.34 0 0 Z " fill="#FEFBF9" transform="translate(205,224)"></path><path d="M0 0 C0.90363281 0.48984375 1.80726563 0.9796875 2.73828125 1.484375 C28.52739316 16.12699675 47.37066735 38.66480121 60.625 64.8125 C61.13969849 65.82630737 61.13969849 65.82630737 61.66479492 66.8605957 C63.08932041 69.76347941 64 71.72349827 64 75 C62.3767313 75.6708712 60.75132422 76.33657029 59.125 77 C57.76761719 77.556875 57.76761719 77.556875 56.3828125 78.125 C54 79 54 79 52 79 C51.5153125 77.91203125 51.030625 76.8240625 50.53125 75.703125 C44.53447494 62.46578813 37.34488938 51.1872761 28 40 C27.44828125 39.31292969 26.8965625 38.62585938 26.328125 37.91796875 C21.53491429 32.13187868 15.92420418 27.58883029 10 23 C9.18015625 22.34128906 8.3603125 21.68257812 7.515625 21.00390625 C-15.43362971 3.29306837 -43.34996709 -5.49773145 -72.125 -5.4375 C-73.4042334 -5.43532471 -74.6834668 -5.43314941 -76.00146484 -5.4309082 C-108.09769826 -4.91982168 -139.44766177 6.80386017 -162.87890625 29.00390625 C-164.67232418 30.69163473 -166.49390563 32.1829293 -168.4375 33.6875 C-181.97815384 45.28467176 -191.07332802 62.89209222 -198 79 C-199.62566606 78.52309796 -201.25051311 78.04340334 -202.875 77.5625 C-203.77992188 77.29566406 -204.68484375 77.02882813 -205.6171875 76.75390625 C-208 76 -208 76 -210 75 C-206.61782518 50.81513346 -182.18233936 25.67054965 -163.6953125 11.4140625 C-115.60242392 -24.57133304 -52.6380932 -29.37366045 0 0 Z " fill="#FEFCF9" transform="translate(329,128)"></path><path d="M0 0 C0.46148437 1.05316406 0.92296875 2.10632813 1.3984375 3.19140625 C10.6931883 23.94281599 23.6083463 42.31508608 42 56 C42.78890625 56.63808594 43.5778125 57.27617187 44.390625 57.93359375 C72.98906131 80.28174288 109.83123676 87.48096558 145.38427734 83.63378906 C159.01943249 81.56518486 171.63562855 77.00354369 184 71 C184.62616211 70.69803711 185.25232422 70.39607422 185.89746094 70.08496094 C203.29752767 61.55177753 219.50542239 48.6429966 231 33 C232.12148438 31.50726563 232.12148438 31.50726563 233.265625 29.984375 C239.21633719 21.76672484 243.66311657 13.14177586 248 4 C248.66243052 2.66455699 249.32657382 1.3299321 250 0 C251.62566606 0.47690204 253.25051311 0.95659666 254.875 1.4375 C255.77992188 1.70433594 256.68484375 1.97117187 257.6171875 2.24609375 C260 3 260 3 262 4 C258.64367627 28.00001351 233.92990664 53.45900928 215.8359375 67.48046875 C198.30305424 80.67874836 179.14436538 89.106541 158.0625 94.875 C157.33039307 95.07843018 156.59828613 95.28186035 155.84399414 95.49145508 C136.27592466 100.53824505 112.50013008 100.02737729 93 95 C91.80375 94.73316406 90.6075 94.46632813 89.375 94.19140625 C51.32609254 85.12254589 18.74841962 59.93815245 -1.7890625 27.03076172 C-3.86228998 23.55392579 -5.74074909 19.98889681 -7.5625 16.375 C-7.89709229 15.71218018 -8.23168457 15.04936035 -8.57641602 14.36645508 C-10.24399615 10.94043166 -11.4711535 7.78161469 -12 4 C-10.3767313 3.3291288 -8.75132422 2.66342971 -7.125 2 C-6.22007813 1.62875 -5.31515625 1.2575 -4.3828125 0.875 C-2 0 -2 0 0 0 Z " fill="#FEFBF9" transform="translate(131,305)"></path><path d="M0 0 C0.84525742 0.00142502 1.69051483 0.00285004 2.56138611 0.00431824 C3.51900345 0.00124161 4.47662079 -0.00183502 5.46325684 -0.00500488 C6.49973862 0.00218063 7.5362204 0.00936615 8.60411072 0.01676941 C9.66431931 0.01722763 10.72452789 0.01768585 11.81686401 0.01815796 C14.06049212 0.02118245 16.30411809 0.0290746 18.54771423 0.04142761 C21.99562456 0.05968083 25.44326651 0.06193737 28.89122009 0.06169128 C31.06635264 0.0666064 33.24148336 0.07243469 35.41661072 0.07926941 C36.45511673 0.08038223 37.49362274 0.08149506 38.56359863 0.0826416 C39.51806381 0.08902145 40.47252899 0.09540131 41.45591736 0.10197449 C42.30037918 0.10578629 43.144841 0.10959808 44.01489258 0.11352539 C45.94395447 0.24723816 45.94395447 0.24723816 46.94395447 1.24723816 C47.04242413 2.80722864 47.07194065 4.3716436 47.073349 5.93473816 C47.07650116 6.93247253 47.07965332 7.93020691 47.082901 8.95817566 C47.08087677 10.04356628 47.07885254 11.12895691 47.07676697 12.24723816 C47.07772369 13.35325378 47.07868042 14.45926941 47.07966614 15.59880066 C47.08034813 17.94255124 47.07849251 20.28630369 47.07432556 22.63005066 C47.06897761 26.23165604 47.07426993 29.83313669 47.08067322 33.43473816 C47.08001244 35.70557177 47.07873128 37.9764053 47.07676697 40.24723816 C47.0787912 41.33262878 47.08081543 42.41801941 47.082901 43.53630066 C47.07817276 45.03290222 47.07817276 45.03290222 47.073349 46.55973816 C47.07255341 47.44274597 47.07175781 48.32575378 47.07093811 49.23551941 C46.94395447 51.24723816 46.94395447 51.24723816 45.94395447 52.24723816 C44.4507415 52.3507401 42.9526979 52.38574555 41.45591736 52.39250183 C40.50145218 52.39888168 39.546987 52.40526154 38.56359863 52.41183472 C37.00583961 52.41350395 37.00583961 52.41350395 35.41661072 52.41520691 C34.35735886 52.41853531 33.29810699 52.42186371 32.20675659 52.42529297 C29.96136409 52.43036685 27.71596402 52.43270115 25.4705658 52.43254089 C22.02472069 52.43472657 18.57919595 52.45287537 15.13340759 52.47184753 C12.9569764 52.47478145 10.78054368 52.47676626 8.60411072 52.47770691 C7.56762894 52.48489243 6.53114716 52.49207794 5.46325684 52.4994812 C4.5056395 52.49640457 3.54802216 52.49332794 2.56138611 52.49015808 C1.71612869 52.4915831 0.87087128 52.49300812 0 52.49447632 C-2.05604553 52.24723816 -2.05604553 52.24723816 -4.05604553 50.24723816 C-4.31001282 48.19792175 -4.31001282 48.19792175 -4.31483459 45.64567566 C-4.32113892 44.69128601 -4.32744324 43.73689636 -4.3339386 42.75358582 C-4.32989014 41.72024109 -4.32584167 40.68689636 -4.32167053 39.62223816 C-4.32358398 38.56440125 -4.32549744 37.50656433 -4.32746887 36.41667175 C-4.32883155 34.17724876 -4.32512935 31.9378179 -4.31678772 29.69841003 C-4.30608955 26.26138139 -4.31668041 22.82487546 -4.32948303 19.38786316 C-4.32816145 17.215987 -4.32559909 15.04411117 -4.32167053 12.87223816 C-4.32774323 11.32222107 -4.32774323 11.32222107 -4.3339386 9.7408905 C-4.32763428 8.78650085 -4.32132996 7.83211121 -4.31483459 6.84880066 C-4.31324341 6.00655945 -4.31165222 5.16431824 -4.31001282 4.29655457 C-3.94612126 1.3602357 -2.9374738 0.35322934 0 0 Z " fill="#EB800E" transform="translate(375.05604553222656,229.7527618408203)"></path><path d="M0 0 C1.43169777 -0.00956978 1.43169777 -0.00956978 2.89231873 -0.01933289 C4.45007774 -0.02100212 4.45007774 -0.02100212 6.03930664 -0.02270508 C7.0985585 -0.02603348 8.15781036 -0.02936188 9.24916077 -0.03279114 C11.49455327 -0.03786502 13.73995334 -0.04019932 15.98535156 -0.04003906 C19.43119667 -0.04222474 22.87672141 -0.06037354 26.32250977 -0.0793457 C28.49894096 -0.08227961 30.67537368 -0.08426443 32.85180664 -0.08520508 C34.40652931 -0.09598335 34.40652931 -0.09598335 35.99266052 -0.10697937 C36.95027786 -0.10390274 37.9078952 -0.10082611 38.89453125 -0.09765625 C39.73978867 -0.09908127 40.58504608 -0.10050629 41.45591736 -0.10197449 C43.51196289 0.14526367 43.51196289 0.14526367 45.51196289 2.14526367 C45.76593018 4.19458008 45.76593018 4.19458008 45.77075195 6.74682617 C45.77705627 7.70121582 45.7833606 8.65560547 45.78985596 9.63891602 C45.7858075 10.67226074 45.78175903 11.70560547 45.77758789 12.77026367 C45.78045807 14.35701904 45.78045807 14.35701904 45.78338623 15.97583008 C45.78474891 18.21525307 45.78104671 20.45468393 45.77270508 22.6940918 C45.76200691 26.13112045 45.77259777 29.56762637 45.78540039 33.00463867 C45.78407881 35.17651483 45.78151645 37.34839066 45.77758789 39.52026367 C45.78163635 40.5536084 45.78568481 41.58695312 45.78985596 42.65161133 C45.78355164 43.60600098 45.77724731 44.56039062 45.77075195 45.54370117 C45.76916077 46.38594238 45.76756958 47.22818359 45.76593018 48.09594727 C45.51196289 50.14526367 45.51196289 50.14526367 43.51196289 52.14526367 C41.45591736 52.39250183 41.45591736 52.39250183 38.89453125 52.38818359 C37.93691391 52.39126022 36.97929657 52.39433685 35.99266052 52.39750671 C34.95617874 52.3903212 33.91969696 52.38313568 32.85180664 52.37573242 C31.79159805 52.3752742 30.73138947 52.37481598 29.63905334 52.37434387 C27.39542524 52.37131938 25.15179927 52.36342723 22.90820312 52.35107422 C19.4602928 52.33282101 16.01265085 52.33056446 12.56469727 52.33081055 C10.38956472 52.32589543 8.214434 52.32006714 6.03930664 52.31323242 C5.00080063 52.3121196 3.96229462 52.31100677 2.89231873 52.30986023 C1.93785355 52.30348038 0.98338837 52.29710052 0 52.29052734 C-0.84446182 52.28671555 -1.68892365 52.28290375 -2.55897522 52.27897644 C-4.48803711 52.14526367 -4.48803711 52.14526367 -5.48803711 51.14526367 C-5.58650678 49.58527319 -5.61602329 48.02085823 -5.61743164 46.45776367 C-5.6205838 45.4600293 -5.62373596 44.46229492 -5.62698364 43.43432617 C-5.62495941 42.34893555 -5.62293518 41.26354492 -5.62084961 40.14526367 C-5.62180634 39.03924805 -5.62276306 37.93323242 -5.62374878 36.79370117 C-5.62443078 34.4499506 -5.62257515 32.10619814 -5.6184082 29.76245117 C-5.61306025 26.1608458 -5.61835257 22.55936514 -5.62475586 18.95776367 C-5.62409508 16.68693006 -5.62281393 14.41609653 -5.62084961 12.14526367 C-5.62287384 11.05987305 -5.62489807 9.97448242 -5.62698364 8.85620117 C-5.62383148 7.8584668 -5.62067932 6.86073242 -5.61743164 5.83276367 C-5.61663605 4.94975586 -5.61584045 4.06674805 -5.61502075 3.15698242 C-5.37436982 -0.65549276 -3.32306998 0.01499993 0 0 Z " fill="#DC6D15" transform="translate(95.488037109375,229.854736328125)"></path><path d="M0 0 C10.23 0 20.46 0 31 0 C31 8.25 31 16.5 31 25 C20.77 25 10.54 25 0 25 C0 16.75 0 8.5 0 0 Z " fill="#E4760C" transform="translate(263,237)"></path><path d="M0 0 C10.23 0 20.46 0 31 0 C31 8.25 31 16.5 31 25 C20.77 25 10.54 25 0 25 C0 16.75 0 8.5 0 0 Z " fill="#E2730D" transform="translate(218,237)"></path></svg>