<svg version="1.1" xmlns="http://www.w3.org/2000/svg" width="16px" height="16px" fill="currentColor" viewBox="0 0 512 512"><path d="M0 0 C168.96 0 337.92 0 512 0 C512 168.96 512 337.92 512 512 C343.04 512 174.08 512 0 512 C0 343.04 0 174.08 0 0 Z " fill="#E3750D" transform="translate(0,0)"></path><path d="M0 0 C12.90003343 8.63178012 21.79104944 22.02611617 26.01953125 36.95703125 C29.10335617 53.91806832 26.10488119 71.10292912 16.70703125 85.58203125 C15.70166166 86.98904347 14.68167659 88.38577516 13.64453125 89.76953125 C13.22945313 90.36121094 12.814375 90.95289063 12.38671875 91.5625 C4.23350661 102.23002606 -9.48760057 108.99970032 -22.35546875 111.76953125 C-40.87357878 113.23627548 -56.30423022 111.48831081 -71.35546875 99.76953125 C-79.92494587 92.29134143 -86.16680959 84.38578632 -90.35546875 73.76953125 C-102.03757861 77.80048079 -113.56451395 82.13077274 -125.04296875 86.70703125 C-126.66930062 87.35262999 -128.29576848 87.99788626 -129.92236328 88.64282227 C-133.31545722 89.98845137 -136.70796197 91.335551 -140.10009766 92.68359375 C-148.11891996 95.86852333 -156.14609034 99.03232217 -164.17251587 102.19802856 C-168.24161997 103.80311558 -172.31024674 105.40941143 -176.37890625 107.015625 C-178.68117187 107.92441406 -180.9834375 108.83320313 -183.35546875 109.76953125 C-183.68546875 119.66953125 -184.01546875 129.56953125 -184.35546875 139.76953125 C-181.38546875 140.75953125 -178.41546875 141.74953125 -175.35546875 142.76953125 C-172.56598702 143.83539074 -169.79112351 144.91681755 -167.02172852 146.03173828 C-166.24334122 146.34268433 -165.46495392 146.65363037 -164.66297913 146.97399902 C-162.12327156 147.98928661 -159.58505453 149.00824286 -157.046875 150.02734375 C-155.27099033 150.73830994 -153.49502362 151.44907123 -151.71897888 152.15963745 C-148.01424856 153.64244618 -144.31019875 155.12693724 -140.60668945 156.61279297 C-135.85392658 158.51958209 -131.09995419 160.42333263 -126.34553623 162.32599068 C-122.68649393 163.79043728 -119.02784315 165.25585968 -115.36933708 166.72164536 C-113.61546191 167.424336 -111.86152152 168.12686389 -110.10751534 168.82922745 C-107.66579562 169.80728536 -105.22454709 170.7865094 -102.78344727 171.76611328 C-102.05671814 172.0570285 -101.32998901 172.34794373 -100.58123779 172.64767456 C-95.58488016 174.65482555 -95.58488016 174.65482555 -93.35546875 175.76953125 C-93.29359375 174.53203125 -93.23171875 173.29453125 -93.16796875 172.01953125 C-91.51202505 157.74261121 -82.15861584 144.82961737 -71.35546875 135.76953125 C-55.4419652 124.34032422 -39.54672939 121.50267827 -20.16699219 124.05810547 C-4.82395894 127.0740843 7.55465634 137.1821777 16.49609375 149.48046875 C25.93317002 163.9277746 29.19892433 179.90008945 25.95703125 196.8828125 C21.67484571 214.35056103 11.98149067 228.25880139 -3.35546875 237.76953125 C-17.98428356 245.41827805 -33.99212394 246.93962688 -50.25 244.0859375 C-53.11596452 243.18069838 -55.68136308 242.13639099 -58.35546875 240.76953125 C-59.20625 240.34542969 -60.05703125 239.92132813 -60.93359375 239.484375 C-67.54471739 235.84420109 -72.99249446 231.03939834 -78.35546875 225.76953125 C-78.93296875 225.20492187 -79.51046875 224.6403125 -80.10546875 224.05859375 C-85.55390722 218.24125059 -90.05257918 210.5855279 -90.89453125 202.6015625 C-91.50359297 197.79450248 -92.39165791 193.70167036 -95.35546875 189.76953125 C-99.01774489 187.40162665 -102.95663399 186.02710648 -107.05078125 184.56640625 C-108.8728376 183.87135653 -110.69486812 183.17623436 -112.51579189 182.47822285 C-114.45646272 181.73843093 -116.40165813 181.01158972 -118.34762573 180.28585815 C-124.44707456 177.99627379 -130.47069865 175.51799791 -136.50387764 173.06044197 C-139.92177607 171.67069084 -143.34482837 170.29376503 -146.76757812 168.91601562 C-148.1389316 168.36356408 -149.51026945 167.81107373 -150.8815918 167.25854492 C-151.5642511 166.98353149 -152.2469104 166.70851807 -152.95025635 166.4251709 C-156.5119113 164.99020425 -160.07332619 163.55464205 -163.63476562 162.11914062 C-170.54144133 159.33537812 -177.44836716 156.55223692 -184.35546875 153.76953125 C-184.33190308 155.19217285 -184.33190308 155.19217285 -184.30786133 156.64355469 C-184.25666768 160.16965215 -184.2190875 163.69535347 -184.19067383 167.22167969 C-184.17560724 168.74648275 -184.15514999 170.27124261 -184.12915039 171.79589844 C-184.09267169 173.99034291 -184.07572161 176.18421341 -184.0625 178.37890625 C-184.03893433 180.35842285 -184.03893433 180.35842285 -184.01489258 182.37792969 C-184.38533775 186.06697936 -184.76821068 187.20371854 -187.35546875 189.76953125 C-189.91828156 190.2701025 -189.91828156 190.2701025 -193.0489502 190.27073669 C-194.23513443 190.28057083 -195.42131866 190.29040497 -196.64344788 190.30053711 C-197.94640305 190.29086914 -199.24935822 190.28120117 -200.59179688 190.27124023 C-201.97652231 190.27502285 -203.36124397 190.28052241 -204.74595642 190.28761292 C-208.50841733 190.30159271 -212.27042224 190.29038046 -216.03285789 190.2739017 C-219.96726225 190.26006746 -223.90163969 190.26650942 -227.83605957 190.27003479 C-234.44367842 190.27273821 -241.05111575 190.2592501 -247.65869141 190.23608398 C-255.30172629 190.20947332 -262.94445765 190.2077266 -270.58752298 190.21947235 C-277.93505143 190.23024566 -285.28246991 190.22406661 -292.62998962 190.20991707 C-295.75913589 190.20415335 -298.88820178 190.20424295 -302.01734924 190.20898247 C-305.7011724 190.2137493 -309.38466253 190.20366322 -313.06842232 190.18202782 C-315.06809522 190.17379416 -317.06781171 190.18031655 -319.06748962 190.18722534 C-320.25367386 190.17732071 -321.43985809 190.16741608 -322.6619873 190.1572113 C-323.69510796 190.15478141 -324.72822861 190.15235151 -325.79265594 190.14984798 C-328.35546875 189.76953125 -328.35546875 189.76953125 -330.18708134 188.57267094 C-331.77269075 186.12564418 -331.73566366 184.44148765 -331.7431488 181.53161621 C-331.75305344 180.44640182 -331.76295807 179.36118744 -331.77316284 178.24308777 C-331.76866119 177.05234146 -331.76415955 175.86159515 -331.75952148 174.63476562 C-331.76638474 173.38093582 -331.77324799 172.12710602 -331.78031921 170.83528137 C-331.7955019 167.39510219 -331.7970767 163.95546401 -331.79137683 160.51529121 C-331.78828988 157.64485057 -331.79437181 154.77445919 -331.80041558 151.90402555 C-331.81446918 145.13372938 -331.81289228 138.36355938 -331.80151367 131.59326172 C-331.79002768 124.60455206 -331.80411396 117.61622593 -331.83091015 110.62756681 C-331.85304661 104.63002932 -331.85970932 98.6326124 -331.85383373 92.63503695 C-331.85045844 89.05169778 -331.85291691 85.46860457 -331.87008476 81.88529968 C-331.88838398 77.89147829 -331.8743879 73.89813097 -331.85717773 69.90429688 C-331.8668457 68.71355057 -331.87651367 67.52280426 -331.88647461 66.29597473 C-331.87664047 65.21076035 -331.86680634 64.12554596 -331.85667419 63.00744629 C-331.85646491 62.06281776 -331.85625563 61.11818924 -331.85604 60.14493561 C-331.35546875 57.76953125 -331.35546875 57.76953125 -329.68233585 55.96639156 C-326.80987748 54.48889789 -324.85208838 54.38956951 -321.62438965 54.3818512 C-320.45510422 54.37194656 -319.28581879 54.36204193 -318.08110046 54.35183716 C-316.16246941 54.35858963 -316.16246941 54.35858963 -314.20507812 54.36547852 C-312.84153178 54.35977497 -311.47799021 54.35281077 -310.11445618 54.34468079 C-306.41406044 54.32673358 -302.71390162 54.32792045 -299.01347542 54.33362317 C-295.92437133 54.33671237 -292.83531293 54.33062567 -289.74621534 54.32458442 C-282.4595151 54.31053608 -275.17293209 54.3121034 -267.88623047 54.32348633 C-260.3675513 54.33497204 -252.84922864 54.32088521 -245.33059645 54.29408985 C-238.87527944 54.27194494 -232.42007445 54.2652926 -225.96472216 54.27116627 C-222.10918166 54.27453948 -218.25386978 54.27209667 -214.39836121 54.25491524 C-210.77356631 54.23946687 -207.14930043 54.24337745 -203.5245266 54.26222038 C-201.55962177 54.26767307 -199.5946933 54.25337674 -197.62983704 54.23852539 C-196.46055161 54.24835953 -195.29126617 54.25819366 -194.08654785 54.26832581 C-193.0703965 54.26853509 -192.05424515 54.26874437 -191.00730133 54.26896 C-187.60942064 54.91035848 -186.42875934 56.04345596 -184.35546875 58.76953125 C-183.93764276 61.64647623 -183.75070597 64.15660121 -183.74609375 67.03515625 C-183.7295575 67.82855408 -183.71302124 68.6219519 -183.69598389 69.43939209 C-183.64751259 71.96618394 -183.62613588 74.49237406 -183.60546875 77.01953125 C-183.57730818 78.73570734 -183.54738063 80.45185541 -183.515625 82.16796875 C-183.44175439 86.36844003 -183.39217488 90.56857745 -183.35546875 94.76953125 C-182.3281665 94.36863281 -181.30086426 93.96773438 -180.24243164 93.5546875 C-179.20743782 93.150793 -179.20743782 93.150793 -178.15153503 92.73873901 C-176.56950393 92.12135342 -174.98748326 91.50394107 -173.4054718 90.88650513 C-168.89962281 89.12798696 -164.39358033 87.36996716 -159.88720703 85.61279297 C-151.12519643 82.1956485 -142.36439816 78.77557346 -133.61039734 75.33795166 C-129.8805252 73.87345271 -126.14975248 72.41125591 -122.41891479 70.94921875 C-120.6353612 70.24952396 -118.85225459 69.54868866 -117.0696106 68.84667969 C-114.5696737 67.86232348 -112.06821239 66.88193753 -109.56640625 65.90234375 C-108.47045891 65.46899216 -108.47045891 65.46899216 -107.35237122 65.02688599 C-103.06801724 63.35459953 -98.79720566 61.96546728 -94.35546875 60.76953125 C-94.401875 59.56039062 -94.44828125 58.35125 -94.49609375 57.10546875 C-94.98721493 38.89663742 -91.19099992 24.5854469 -78.98046875 10.45703125 C-57.76102612 -11.90747406 -26.2593801 -16.34758263 0 0 Z " fill="#FEFDFB" transform="translate(408.35546875,196.23046875)"></path><path d="M0 0 C40.26 0 80.52 0 122 0 C122 36.3 122 72.6 122 110 C81.74 110 41.48 110 0 110 C0 73.7 0 37.4 0 0 Z " fill="#DB6B15" transform="translate(89,264)"></path><path d="M0 0 C0.9187793 0.00572021 1.83755859 0.01144043 2.78417969 0.01733398 C15.97186096 0.36151161 25.52285503 5.45648485 34.90234375 14.59765625 C45.21714888 25.48870748 48.37325318 37.04346593 48.05859375 51.65625 C47.54588991 62.56556654 43.69763754 71.18280763 36.75 79.5 C36.15316406 80.22058594 35.55632812 80.94117188 34.94140625 81.68359375 C27.08426334 90.32481745 15.26365106 95.61815123 3.6953125 96.81640625 C-10.81882347 97.35590051 -23.46882818 92.01620208 -34.0625 82.1875 C-37.89370964 78.07215758 -40.68713709 73.48539616 -43.25 68.5 C-43.87455078 67.30310547 -43.87455078 67.30310547 -44.51171875 66.08203125 C-49.17965086 55.51776384 -49.03114004 42.14532789 -45.125 31.375 C-39.24683692 18.36378508 -30.66453398 8.26551121 -17.28515625 2.6796875 C-11.48246613 0.53054301 -6.16239585 -0.04482774 0 0 Z " fill="#EA7F0D" transform="translate(374.25,199.5)"></path><path d="M0 0 C10.5726027 7.67452886 18.02758485 17.79374445 21.49609375 30.42578125 C23.11099742 44.14415532 21.57351981 58.09227994 13.12109375 69.42578125 C11.93528073 70.77918241 10.72775597 72.11396747 9.49609375 73.42578125 C8.97402344 74.04839844 8.45195312 74.67101562 7.9140625 75.3125 C0.14663173 84.02487368 -11.99814416 88.49725466 -23.40234375 89.7421875 C-36.84664598 90.28913418 -48.26315588 85.1581091 -58.53125 76.76953125 C-68.25952624 67.74373448 -73.4379164 55.15731708 -73.9765625 42.01025391 C-74.07380738 34.15252046 -73.09925366 27.52715066 -69.50390625 20.42578125 C-69.06820313 19.5646875 -68.6325 18.70359375 -68.18359375 17.81640625 C-61.89671263 6.4794075 -52.50242939 -1.3286718 -40.265625 -5.7421875 C-26.3849223 -8.81237408 -12.10545624 -7.61076266 0 0 Z " fill="#E37610" transform="translate(400.50390625,339.57421875)"></path><path d="M0 0 C1.13759766 -0.01160156 2.27519531 -0.02320312 3.44726562 -0.03515625 C21.10896488 0.02529452 36.93967079 6.20469224 50.5625 17.375 C51.40425781 18.05304688 52.24601563 18.73109375 53.11328125 19.4296875 C62.80454932 27.65897579 70.53802416 37.6600379 75.5625 49.375 C76.30371094 48.941875 77.04492188 48.50875 77.80859375 48.0625 C88.04797782 42.64828468 97.84097606 41.27842727 109.1015625 44.3359375 C120.1749584 48.64989074 127.17243427 55.94997173 132.08203125 66.703125 C134.14897639 71.92111908 135.77839835 76.80287336 136.5625 82.375 C137.22894531 82.59414062 137.89539063 82.81328125 138.58203125 83.0390625 C150.16798782 87.02527973 163.53211368 92.82942052 170.5625 103.375 C150.24402326 104.33620887 150.24402326 104.33620887 143.00390625 99.73828125 C138.83157377 97.40845079 134.18830323 96.5657786 129.56640625 95.46484375 C126.14289269 94.22276276 125.17107146 93.60822863 123.5625 90.375 C123.02818728 87.81369143 122.60566088 85.33374508 122.25 82.75 C120.85436477 74.21080148 118.09830143 67.22638758 111.4375 61.375 C104.6888279 56.68027158 98.73043369 56.3427886 90.5625 57.375 C85.74604664 59.42645236 82.42005743 62.45761298 78.875 66.25 C76.5625 68.375 76.5625 68.375 73.5 69 C69.57491522 68.16487558 68.82570069 66.62298662 66.5625 63.375 C65.7462466 61.54903055 64.99766513 59.69159094 64.3125 57.8125 C57.12304434 39.88296795 44.06823432 26.86082746 26.7109375 18.6953125 C8.67346997 11.13121321 -7.514191 11.67334263 -25.6171875 18.58984375 C-42.01808848 25.93829938 -53.71168061 41.04653583 -60.4375 57.375 C-63.67338007 65.92676184 -63.87147629 73.92178603 -63.87695312 82.98046875 C-63.89564453 84.00527344 -63.91433594 85.03007812 -63.93359375 86.0859375 C-63.93544678 87.00681152 -63.9372998 87.92768555 -63.93920898 88.87646484 C-64.59001305 92.13973228 -65.8880758 93.30286791 -68.4375 95.375 C-71.28515625 96.578125 -71.28515625 96.578125 -74.5 97.625 C-85.0564708 101.51547463 -93.23687983 107.25803793 -98.4375 117.375 C-99.05431641 118.46748047 -99.05431641 118.46748047 -99.68359375 119.58203125 C-104.34001348 129.55547006 -104.663783 144.89443878 -101.37890625 155.390625 C-100.21699153 158.19025334 -98.96424857 160.76102139 -97.4375 163.375 C-96.7775 164.695 -96.1175 166.015 -95.4375 167.375 C-100.3875 167.375 -105.3375 167.375 -110.4375 167.375 C-117.27588836 152.5584919 -119.40581602 136.00005081 -114.8125 120 C-110.09030612 107.55057977 -102.46353159 97.6906763 -91.375 90.375 C-90.7975 89.98884521 -90.22 89.60269043 -89.625 89.20483398 C-85.47212145 86.60163361 -82.21664747 85.7646375 -77.4375 85.375 C-77.49550781 84.1890625 -77.55351562 83.003125 -77.61328125 81.78125 C-78.38785428 59.137349 -69.98930025 39.09123501 -54.53125 22.46484375 C-39.81651246 7.41358496 -20.88135068 -0.21223281 0 0 Z " fill="#FEFCF9" transform="translate(211.4375,70.625)"></path><path d="M0 0 C2.79467773 1.28417969 2.79467773 1.28417969 5.68359375 2.921875 C6.76527832 3.529104 7.84696289 4.13633301 8.96142578 4.76196289 C10.12026256 5.42438767 11.27895065 6.08707265 12.4375 6.75 C13.63742457 7.42842031 14.83778857 8.10606394 16.03857422 8.78295898 C18.49404592 10.16884865 20.94656448 11.55976805 23.39697266 12.95458984 C26.78003066 14.87852062 30.17548148 16.77966539 33.57421875 18.67578125 C35.59129728 19.80441688 37.60823181 20.93330991 39.625 22.0625 C40.54079834 22.57329102 41.45659668 23.08408203 42.40014648 23.61035156 C56.63082418 31.63082418 56.63082418 31.63082418 60 35 C59.9375 38.3125 59.9375 38.3125 59 42 C53.93281724 46.11395036 47.89686232 48.38802271 41.9375 50.9375 C34.63053251 54.09373818 27.34634236 57.27931067 20.1171875 60.609375 C18.80355427 61.21120984 17.48983417 61.81285512 16.17602539 62.41430664 C14.25465519 63.29397337 12.33521183 64.17688331 10.42086792 65.07174683 C8.63554289 65.90563327 6.84326662 66.72458726 5.05078125 67.54296875 C4.02637939 68.01758545 3.00197754 68.49220215 1.9465332 68.98120117 C-1.29837068 70.1031652 -3.5934047 70.41357553 -7 70 C-8.65032959 68.86991882 -8.65032959 68.86991882 -10 67 C-10.38768005 64.19177246 -10.38768005 64.19177246 -10.40405273 60.74023438 C-10.41673691 59.44879517 -10.42942108 58.15735596 -10.44248962 56.82678223 C-10.44043833 55.41576986 -10.43745043 54.00475859 -10.43359375 52.59375 C-10.43815411 51.14790603 -10.44345925 49.70206422 -10.44947815 48.25622559 C-10.45841359 45.22655427 -10.45598103 42.1971465 -10.44604492 39.16748047 C-10.43454798 35.28324466 -10.4547743 31.39991696 -10.48396206 27.51580048 C-10.50229907 24.53035701 -10.50203682 21.54513225 -10.49632454 18.55964661 C-10.49617105 17.12749456 -10.50223829 15.69532794 -10.51461601 14.26322937 C-10.52947589 12.26212534 -10.51624492 10.26087204 -10.50170898 8.25976562 C-10.50154282 7.12075806 -10.50137665 5.98175049 -10.50120544 4.80822754 C-10 2 -10 2 -8.14956665 0.10064697 C-5.05038139 -1.48623514 -3.31084817 -0.92773511 0 0 Z " fill="#FEFDFB" transform="translate(132,284)"></path><path d="M0 0 C2.91821289 1.18652344 2.91821289 1.18652344 5.97265625 2.859375 C7.67941528 3.78327026 7.67941528 3.78327026 9.4206543 4.72583008 C10.63489046 5.4000357 11.84883337 6.07476969 13.0625 6.75 C14.30920488 7.43270134 15.55636095 8.11457936 16.80395508 8.7956543 C19.94580388 10.51622136 23.07787287 12.25371407 26.20593262 13.99920654 C27.91746913 14.9539614 29.63104767 15.90505287 31.34472656 16.85595703 C34.2979684 18.49833521 37.24476057 20.15138909 40.1875 21.8125 C41.07123291 22.30911133 41.95496582 22.80572266 42.86547852 23.31738281 C43.66655029 23.7759668 44.46762207 24.23455078 45.29296875 24.70703125 C45.9893042 25.1038208 46.68563965 25.50061035 47.40307617 25.90942383 C49 27 49 27 50 29 C50.375 31.875 50.375 31.875 50 35 C46.51132222 38.25131712 42.64740439 40.40440964 38.44140625 42.609375 C37.50300148 43.10513031 37.50300148 43.10513031 36.54563904 43.61090088 C34.55385145 44.66228145 32.55847736 45.70659866 30.5625 46.75 C28.60767018 47.77565981 26.65371917 48.80293227 24.70101929 49.8326416 C23.40330932 50.51693786 22.1044988 51.19915108 20.80459595 51.87927246 C17.53239183 53.60397693 14.31740177 55.38457491 11.15185547 57.29882812 C10.22130592 57.85597504 10.22130592 57.85597504 9.2719574 58.42437744 C7.57320389 59.45019041 5.88566524 60.49451027 4.19897461 61.54003906 C0.47275226 63.24062745 -1.94807548 63.50012601 -6 63 C-7.68095398 61.82000732 -7.68095398 61.82000732 -9 60 C-9.38095093 57.4954834 -9.38095093 57.4954834 -9.38818359 54.47460938 C-9.39764008 53.34333618 -9.40709656 52.21206299 -9.4168396 51.04650879 C-9.41076691 49.82459839 -9.40469421 48.60268799 -9.3984375 47.34375 C-9.40130768 46.0899353 -9.40417786 44.83612061 -9.40713501 43.54431152 C-9.40917827 40.8910425 -9.40513468 38.23860029 -9.39111328 35.58544922 C-9.37402086 32.18558366 -9.38386317 28.78642854 -9.40183067 25.38658905 C-9.41528089 22.14311722 -9.40586234 18.8997311 -9.3984375 15.65625 C-9.40451019 14.4343396 -9.41058289 13.2124292 -9.4168396 11.95349121 C-9.40265488 10.25658142 -9.40265488 10.25658142 -9.38818359 8.52539062 C-9.38579681 7.5285022 -9.38341003 6.53161377 -9.38095093 5.5045166 C-9 3 -9 3 -7.65162659 1.17755127 C-5.04615428 -0.68005822 -3.12355671 -0.35905702 0 0 Z " fill="#FEFCFA" transform="translate(361,217)"></path><path d="M0 0 C5.18195676 1.15256637 9.74952311 4.15347131 14.32910156 6.74023438 C15.46605469 7.36833008 16.60300781 7.99642578 17.77441406 8.64355469 C21.26225233 10.57270923 24.73326675 12.5306527 28.20410156 14.49023438 C29.26983398 15.08707031 30.33556641 15.68390625 31.43359375 16.29882812 C36.07678203 18.89983928 40.71311025 21.51309183 45.32910156 24.16210938 C46.03292969 24.56526367 46.73675781 24.96841797 47.46191406 25.38378906 C49.20410156 26.49023438 49.20410156 26.49023438 51.20410156 28.49023438 C51.57910156 31.36523438 51.57910156 31.36523438 51.20410156 34.49023438 C48.19207586 38.19645235 44.4149292 40.20892052 40.23535156 42.35351562 C39.559198 42.70858688 38.88304443 43.06365814 38.18640137 43.42948914 C36.02922455 44.56093402 33.86704655 45.68236173 31.70410156 46.80273438 C28.87914739 48.27411832 26.05665188 49.75013912 23.23535156 51.22851562 C22.54932861 51.58681458 21.86330566 51.94511353 21.15649414 52.31427002 C15.87481503 55.09038749 10.73941282 58.05486844 5.63964844 61.15454102 C2.27194617 63.00144349 0.04237358 63.65016238 -3.79589844 63.49023438 C-5.95204163 62.32775879 -5.95204163 62.32775879 -7.79589844 60.49023438 C-8.29710388 57.98571777 -8.29710388 57.98571777 -8.29760742 54.96484375 C-8.30698837 53.83357056 -8.31636932 52.70229736 -8.32603455 51.53674316 C-8.31480057 50.31483276 -8.30356659 49.09292236 -8.29199219 47.83398438 C-8.29417503 45.95326233 -8.29417503 45.95326233 -8.29640198 44.0345459 C-8.29474039 41.3810369 -8.28522856 38.72895583 -8.26245117 36.07568359 C-8.23406528 32.67578636 -8.23680304 29.27678712 -8.24954128 25.87682343 C-8.25817077 22.63331915 -8.24305226 19.3899605 -8.22949219 16.14648438 C-8.23242783 14.92457397 -8.23536346 13.70266357 -8.23838806 12.44372559 C-8.22570389 11.31245239 -8.21301971 10.1811792 -8.19995117 9.015625 C-8.19184669 7.52029236 -8.19184669 7.52029236 -8.18357849 5.99475098 C-7.79589844 3.49023438 -7.79589844 3.49023438 -6.45375061 1.68103027 C-4.33981874 0.16264314 -2.58192169 -0.12159757 0 0 Z " fill="#FEFCFA" transform="translate(359.7958984375,347.509765625)"></path><path d="M0 0 C3.69736089 1.47894436 6.98024834 2.98202277 10.45703125 4.86328125 C11.48763672 5.42080078 12.51824219 5.97832031 13.58007812 6.55273438 C15.18012695 7.42381836 15.18012695 7.42381836 16.8125 8.3125 C17.86759766 8.88162109 18.92269531 9.45074219 20.00976562 10.03710938 C25.80165081 13.18024458 31.45683778 16.43606096 37 20 C34.00241686 21.99838876 31.05690277 23.44804012 27.79296875 24.96875 C27.18995438 25.24972534 26.58694 25.53070068 25.96565247 25.82019043 C24.69114478 26.4131197 23.41603963 27.00476615 22.14038086 27.59521484 C20.2029228 28.49285449 18.26836891 29.39654087 16.33398438 30.30078125 C15.09131775 30.87797443 13.84848443 31.4548089 12.60546875 32.03125 C11.48293701 32.55267578 10.36040527 33.07410156 9.20385742 33.61132812 C6.20421949 34.91148362 3.10151719 35.96616094 0 37 C0 24.79 0 12.58 0 0 Z " fill="#DB6D1A" transform="translate(134,301)"></path><path d="M0 0 C8.88914435 4.36924044 17.62886195 8.68754701 26 14 C21.58474399 17.44440501 16.7743828 20.00219472 11.875 22.6875 C10.95589844 23.19861328 10.03679687 23.70972656 9.08984375 24.23632812 C8.21199219 24.71908203 7.33414062 25.20183594 6.4296875 25.69921875 C5.62772949 26.14096436 4.82577148 26.58270996 3.99951172 27.0378418 C2 28 2 28 0 28 C0 18.76 0 9.52 0 0 Z " fill="#E37612" transform="translate(365,365)"></path><path d="M0 0 C4.16511153 1.38837051 7.24853758 2.5284041 10.9609375 4.6015625 C11.84394531 5.09140625 12.72695313 5.58125 13.63671875 6.0859375 C14.99216797 6.84777344 14.99216797 6.84777344 16.375 7.625 C17.30183594 8.140625 18.22867187 8.65625 19.18359375 9.1875 C21.45829425 10.45382811 23.73028792 11.72475925 26 13 C23.60588968 15.6663255 21.07119607 17.21723265 17.9296875 18.91796875 C16.95128906 19.44970703 15.97289062 19.98144531 14.96484375 20.52929688 C13.43537109 21.35010742 13.43537109 21.35010742 11.875 22.1875 C10.84761719 22.74630859 9.82023437 23.30511719 8.76171875 23.88085938 C1.14709249 28 1.14709249 28 0 28 C0 18.76 0 9.52 0 0 Z " fill="#EA7F0E" transform="translate(365,235)"></path></svg>