<svg version="1.1" xmlns="http://www.w3.org/2000/svg" width="16px" height="16px" fill="currentColor" viewBox="0 0 512 512"><path d="M0 0 C168.96 0 337.92 0 512 0 C512 168.96 512 337.92 512 512 C343.04 512 174.08 512 0 512 C0 343.04 0 174.08 0 0 Z " fill="#438926" transform="translate(0,0)"></path><path d="M0 0 C0.65725571 -0.00511093 1.31451141 -0.01022186 1.99168396 -0.01548767 C4.16390087 -0.02938535 6.33580056 -0.02842681 8.50805664 -0.02612305 C10.01876442 -0.03000995 11.52947112 -0.03434461 13.04017639 -0.03910828 C16.20683331 -0.04657089 19.37337875 -0.04627899 22.54003906 -0.04101562 C26.59664568 -0.03522149 30.65279564 -0.05215003 34.70932674 -0.0753603 C37.82945928 -0.09009762 40.94948185 -0.09096935 44.06964302 -0.08785057 C45.56515978 -0.08836381 47.06068269 -0.09360204 48.5561657 -0.10366249 C50.64842201 -0.11600981 52.739789 -0.10924651 54.83203125 -0.09765625 C56.02211288 -0.09828568 57.21219452 -0.0989151 58.43833923 -0.0995636 C61.75660776 0.30859416 63.14953693 0.91370994 65.48071289 3.2746582 C66.77250372 9.22043516 63.40641783 13.4560821 60.35571289 18.2746582 C59.82236328 19.13969971 59.28901367 20.00474121 58.73950195 20.89599609 C57.00313791 23.69963653 55.24518195 26.48862932 53.48071289 29.2746582 C52.88226563 30.22195801 52.28381836 31.16925781 51.66723633 32.14526367 C48.69414891 36.84427383 45.70639282 41.53363125 42.70727539 46.21606445 C38.88671393 52.18862933 35.16967439 58.22018334 31.48071289 64.2746582 C32.36855469 64.25371094 33.25639648 64.23276367 34.17114258 64.21118164 C37.47365744 64.14290143 40.77541959 64.0928095 44.07836914 64.05493164 C45.5062241 64.03484838 46.93399714 64.00757568 48.36157227 63.97290039 C50.41711657 63.92423151 52.47157144 63.90165853 54.52758789 63.8840332 C56.3814209 63.8526123 56.3814209 63.8526123 58.27270508 63.82055664 C61.48071289 64.2746582 61.48071289 64.2746582 63.90625 66.09765625 C65.48071289 68.2746582 65.48071289 68.2746582 65.62524414 71.49731445 C64.10627095 76.51044441 61.48204939 79.72222413 58.16821289 83.7121582 C56.88046537 85.31268431 55.59402977 86.91426675 54.30883789 88.5168457 C53.66237305 89.31574219 53.0159082 90.11463867 52.34985352 90.93774414 C49.62482193 94.34474549 47.01705006 97.83352123 44.41821289 101.3371582 C40.38975289 106.73866889 36.32870767 112.11319659 32.23071289 117.4621582 C31.69679932 118.15921875 31.16288574 118.8562793 30.61279297 119.57446289 C29.49362336 121.03544053 28.37439992 122.49637694 27.25512695 123.95727539 C18.73451072 135.08519081 10.24432485 146.23432373 1.85571289 157.4621582 C-4.61452529 166.11812638 -11.21159378 174.6695102 -17.87866211 183.17456055 C-19.06022055 184.68702569 -20.23669297 186.20346905 -21.40991211 187.72241211 C-22.03381836 188.52984863 -22.65772461 189.33728516 -23.30053711 190.16918945 C-23.86836914 190.9062915 -24.43620117 191.64339355 -25.02124023 192.40283203 C-26.51928711 194.2746582 -26.51928711 194.2746582 -28.51928711 196.2746582 C-33.76427232 196.83263535 -33.76427232 196.83263535 -36.19197083 195.03849792 C-39.12074827 191.14651374 -37.78104425 185.31446675 -37.1925354 180.72836304 C-36.75360644 178.079579 -36.2521269 175.45051642 -35.72631836 172.81762695 C-35.53986252 171.84361938 -35.35340668 170.86961182 -35.16130066 169.86608887 C-34.55953164 166.72982813 -33.94562015 163.59607763 -33.33178711 160.4621582 C-32.50095128 156.15042503 -31.67628689 151.83751725 -30.85131836 147.5246582 C-30.64813995 146.46719894 -30.44496155 145.40973969 -30.23562622 144.32023621 C-28.33024425 134.37349559 -26.59151751 124.40396241 -24.92871094 114.4140625 C-24.75235107 113.36130127 -24.57599121 112.30854004 -24.39428711 111.22387695 C-24.24733398 110.33015381 -24.10038086 109.43643066 -23.94897461 108.515625 C-23.51928711 106.2746582 -23.51928711 106.2746582 -22.51928711 103.2746582 C-23.46247803 103.30084229 -24.40566895 103.32702637 -25.37744141 103.35400391 C-28.89061856 103.43942742 -32.40268619 103.50200118 -35.91650391 103.54931641 C-37.43458512 103.5743993 -38.95254629 103.6084748 -40.47021484 103.65185547 C-42.65744676 103.71279113 -44.8430775 103.74092716 -47.03100586 103.76293945 C-48.34544678 103.78912354 -49.6598877 103.81530762 -51.01416016 103.84228516 C-55.43282576 103.12671801 -56.90153273 101.85861966 -59.51928711 98.2746582 C-60.20411241 94.43705226 -59.22691184 92.16469669 -57.27319336 88.88012695 C-56.52489258 87.59525391 -56.52489258 87.59525391 -55.76147461 86.28442383 C-55.20717773 85.35307617 -54.65288086 84.42172852 -54.08178711 83.4621582 C-48.49520376 73.8449862 -43.19658211 64.116024 -38.01928711 54.2746582 C-31.9600742 42.77850882 -25.72471172 31.40612771 -19.26928711 20.1262207 C-16.33531029 14.98975719 -13.57334132 9.77444845 -10.88647461 4.50512695 C-8.06316539 -0.10090038 -4.99570867 0.01935378 0 0 Z " fill="#FBFCFA" transform="translate(273.519287109375,210.725341796875)"></path><path d="M0 0 C1.21623047 -0.01224609 2.43246094 -0.02449219 3.68554688 -0.03710938 C27.29346204 -0.07512534 47.89820314 9.48565291 65.3125 25.1875 C66.15425781 25.93515625 66.99601563 26.6828125 67.86328125 27.453125 C77.59357342 36.59324393 84.8789444 48.03349406 90.3125 60.1875 C91.49005859 59.46433594 91.49005859 59.46433594 92.69140625 58.7265625 C103.68692717 52.11575851 112.86258677 49.28454264 125.7265625 51.875 C139.13112101 55.64208904 149.07471228 63.34448119 155.9609375 75.44140625 C159.53173781 82.69652941 161.69316299 90.13611881 162.3125 98.1875 C163.116875 98.373125 163.116875 98.373125 163.9375 98.5625 C180.56147433 102.93723009 199.36347785 112.90034221 208.37988281 127.97167969 C209.50575087 129.9818003 210.57711619 132.01068602 211.625 134.0625 C211.95072998 134.69800781 212.27645996 135.33351562 212.61206055 135.98828125 C217.28514281 145.65287167 218.80590302 154.94899418 218.6875 165.625 C218.69910156 166.66720703 218.71070313 167.70941406 218.72265625 168.78320312 C218.65680398 186.48648903 212.18251708 202.78486817 199.99609375 215.62890625 C189.82274836 225.27970421 178.55151974 230.2902362 165.3125 234.1875 C164.27609375 234.56003906 163.2396875 234.93257812 162.171875 235.31640625 C156.56524488 236.58187034 151.10119844 236.39713966 145.375 236.3125 C144.21419922 236.30347656 143.05339844 236.29445313 141.85742188 236.28515625 C139.00902505 236.26171265 136.16073519 236.22584572 133.3125 236.1875 C133.3125 231.8975 133.3125 227.6075 133.3125 223.1875 C135.90158203 223.14882813 135.90158203 223.14882813 138.54296875 223.109375 C155.86621152 222.98635609 155.86621152 222.98635609 172.3125 218.1875 C173.25609375 217.7646875 174.1996875 217.341875 175.171875 216.90625 C189.0289542 210.01598962 196.86661282 199.78554123 202.55078125 185.70703125 C206.96851962 171.09451203 205.94091924 152.82731926 198.8515625 139.42578125 C189.8772839 123.8232918 175.92908803 115.97966376 158.98828125 111.26171875 C157.12820431 110.78758149 155.26154756 110.33773915 153.38671875 109.92578125 C151.3125 109.1875 151.3125 109.1875 149.3125 106.1875 C148.95435846 103.84252563 148.67282605 101.48546432 148.4375 99.125 C147.08942735 87.66775807 143.23754705 79.11254705 135.0625 70.9375 C127.26527388 65.97562883 119.56521269 63.76119251 110.3125 65.1875 C103.37688688 67.62798695 97.74706996 71.50947305 92.8125 76.9375 C90.3125 79.1875 90.3125 79.1875 87.75 79.8125 C84.23440832 78.91106624 83.37780526 77.14187001 81.3125 74.1875 C80.15631673 71.67417781 79.08771847 69.18865861 78.0625 66.625 C68.60464716 44.20222023 51.67016378 27.70929265 29.3125 18.1875 C8.818215 10.72884982 -12.856008 10.93060493 -32.828125 19.984375 C-54.03691642 30.3459018 -67.46564011 48.21565407 -75.6796875 69.95703125 C-78.65037596 79.47935433 -79.04564744 88.44396666 -79.16601562 98.38867188 C-79.19244141 99.46310547 -79.21886719 100.53753906 -79.24609375 101.64453125 C-79.25954834 102.61366455 -79.27300293 103.58279785 -79.28686523 104.58129883 C-79.75279189 107.61223548 -80.59236832 108.97818537 -82.6875 111.1875 C-85.21875 112.2421875 -85.21875 112.2421875 -88.1875 113.0625 C-101.47312062 117.19722873 -112.54233632 124.23870538 -119.40625 136.59375 C-127.69343005 153.37023644 -128.86273698 173.87230739 -122.8815918 191.71923828 C-118.08638243 204.70879277 -111.72893195 214.290649 -98.984375 220.27734375 C-94.30427373 222.13187368 -89.98491452 222.35306499 -84.98144531 222.39282227 C-84.21032913 222.40272186 -83.43921295 222.41262146 -82.64472961 222.42282104 C-80.10172573 222.45435078 -77.55870318 222.47915968 -75.015625 222.50390625 C-73.25013754 222.52448314 -71.48465493 222.54547981 -69.71917725 222.56687927 C-65.07663909 222.62202399 -60.43405702 222.67146675 -55.79144287 222.71972656 C-51.05232851 222.76999711 -46.31327775 222.82565417 -41.57421875 222.88085938 C-32.2787002 222.98834798 -22.98312637 223.08981356 -13.6875 223.1875 C-13.6875 227.4775 -13.6875 231.7675 -13.6875 236.1875 C-23.46790969 236.28077719 -33.24821105 236.35155466 -43.02897739 236.39474869 C-47.57213275 236.41549488 -52.11498056 236.44357078 -56.65795898 236.48925781 C-61.0541117 236.53318427 -65.44997134 236.55673419 -69.84632683 236.56700897 C-71.51141909 236.57431741 -73.17649796 236.58858502 -74.84146309 236.61042023 C-92.93347765 236.83793701 -107.72506198 233.7428717 -121.4375 221 C-136.45464861 205.07109594 -140.32059545 182.71722755 -139.87109375 161.5546875 C-139.29289509 145.02754308 -133.91168231 129.62566555 -122.375 117.4375 C-114.22595295 109.84983175 -104.26519492 103.71339831 -93.6875 100.1875 C-93.64786133 99.56931396 -93.60822266 98.95112793 -93.56738281 98.31420898 C-92.27070421 79.01626434 -89.16272804 63.1799583 -79.6875 46.1875 C-79.14222656 45.19878906 -78.59695312 44.21007812 -78.03515625 43.19140625 C-65.70656821 22.42270904 -45.51340225 8.52798857 -22.5546875 1.87890625 C-15.00015214 0.05717225 -7.73564458 0.00403529 0 0 Z " fill="#FAFCF9" transform="translate(216.6875,102.8125)"></path><path d="M0 0 C2.01034147 0.00094833 4.02084099 0.03475846 6.03027344 0.09521484 C7.61989899 0.10794937 7.61989899 0.10794937 9.24163818 0.12094116 C12.62534387 0.15451944 16.00666353 0.22981192 19.38964844 0.30615234 C21.68388485 0.33624599 23.97815862 0.36362284 26.27246094 0.38818359 C31.8956704 0.45432496 37.51748899 0.55471826 43.13964844 0.68115234 C39.25108047 8.01949704 35.08815654 15.08546988 30.57714844 22.05615234 C29.35395238 23.97117224 28.13131096 25.8865465 26.90917969 27.80224609 C25.02424025 30.74859822 23.13352265 33.69057482 21.22705078 36.62304688 C19.39247497 39.44631055 17.57739127 42.28133768 15.76464844 45.11865234 C15.19931396 45.97571777 14.63397949 46.8327832 14.05151367 47.71582031 C10.95090299 52.60712948 9.22199581 55.85180162 10.13964844 61.68115234 C12.93142413 64.47292803 14.77148416 63.99328719 18.67871094 64.09521484 C19.98066406 64.13388672 21.28261719 64.17255859 22.62402344 64.21240234 C24.00422705 64.24385998 25.38443548 64.27510725 26.76464844 64.30615234 C28.15269384 64.34433168 29.54071555 64.38338339 30.92871094 64.42333984 C34.33222029 64.51788177 37.73572009 64.60343131 41.13964844 64.68115234 C39.88668308 67.31880413 38.53751394 69.64682958 36.77636719 71.97412109 C36.07495605 72.90550903 36.07495605 72.90550903 35.359375 73.85571289 C34.85374023 74.51998291 34.34810547 75.18425293 33.82714844 75.86865234 C33.29444336 76.57352783 32.76173828 77.27840332 32.21289062 78.00463867 C30.52608173 80.23342488 28.8339041 82.45802277 27.13964844 84.68115234 C26.61902832 85.36435547 26.0984082 86.04755859 25.56201172 86.75146484 C22.92155266 90.21304736 20.27591286 93.67063566 17.62792969 97.12646484 C8.47008084 109.07925866 -0.66258687 121.05038488 -9.67797852 133.11108398 C-14.34538424 139.34750151 -19.09270233 145.52118076 -23.86035156 151.68115234 C-24.93128271 148.46835889 -24.80097534 147.34602662 -24.17944336 144.10888672 C-24.00563644 143.18362183 -23.83182953 142.25835693 -23.65275574 141.30505371 C-23.45700455 140.30510376 -23.26125336 139.30515381 -23.05957031 138.27490234 C-22.86313431 137.23982544 -22.6666983 136.20474854 -22.46430969 135.13830566 C-21.83255656 131.81785976 -21.19041884 128.49952075 -20.54785156 125.18115234 C-20.12592708 122.97555707 -19.70469509 120.7698292 -19.28417969 118.56396484 C-18.50363363 114.4713129 -17.71824607 110.37964166 -16.92944336 106.28857422 C-16.57244577 104.41955452 -16.21608282 102.55041348 -15.86035156 100.68115234 C-15.67131256 99.69711426 -15.48227356 98.71307617 -15.2875061 97.69921875 C-15.10634247 96.73612793 -14.92517883 95.77303711 -14.73852539 94.78076172 C-14.57564529 93.92204468 -14.4127652 93.06332764 -14.24494934 92.17858887 C-13.64133777 88.25895732 -13.60886594 84.64205097 -13.86035156 80.68115234 C-16.72580752 77.81569639 -18.82849912 78.36485606 -22.83691406 78.26708984 C-23.52216156 78.24772369 -24.20740906 78.22835754 -24.91342163 78.20840454 C-27.103938 78.14858404 -29.29450686 78.10221478 -31.48535156 78.05615234 C-32.96974958 78.01797471 -34.45412541 77.97892311 -35.93847656 77.93896484 C-39.57889841 77.8428815 -43.21948592 77.75885952 -46.86035156 77.68115234 C-42.01540559 67.67970662 -36.81787074 57.97905215 -31.29345703 48.33740234 C-25.49379752 38.15522473 -20.03512426 27.79772294 -14.59692383 17.41943359 C-14.24566437 16.75194595 -13.89440491 16.08445831 -13.53250122 15.39674377 C-12.57529343 13.57747036 -11.62186424 11.75621026 -10.66870117 9.93481445 C-10.0719458 8.86110596 -9.47519043 7.78739746 -8.86035156 6.68115234 C-8.34964111 5.56345459 -7.83893066 4.44575684 -7.31274414 3.29418945 C-4.50493524 0.30245439 -3.91955888 0.25301944 0 0 Z " fill="#448A27" transform="translate(277.8603515625,223.31884765625)"></path></svg>