<svg version="1.1" xmlns="http://www.w3.org/2000/svg" width="16px" height="16px" fill="currentColor" viewBox="0 0 512 512"><path d="M0 0 C168.96 0 337.92 0 512 0 C512 168.96 512 337.92 512 512 C343.04 512 174.08 512 0 512 C0 343.04 0 174.08 0 0 Z " fill="#E3740D" transform="translate(0,0)"></path><path d="M0 0 C1.40910645 0.67869141 1.40910645 0.67869141 2.84667969 1.37109375 C3.82540039 1.85578125 4.80412109 2.34046875 5.8125 2.83984375 C6.82473633 3.33355469 7.83697266 3.82726562 8.87988281 4.3359375 C33.01373221 16.17663133 33.01373221 16.17663133 35.8125 19.77734375 C36.17999268 22.24389648 36.17999268 22.24389648 36.16894531 25.2109375 C36.17344696 26.87781616 36.17344696 26.87781616 36.17803955 28.57836914 C36.15951935 30.37842407 36.15951935 30.37842407 36.140625 32.21484375 C36.13875183 33.4464624 36.13687866 34.67808105 36.13494873 35.94702148 C36.12649714 39.22084808 36.1045103 42.49423617 36.07678223 45.76794434 C36.05312322 49.09658436 36.0517955 52.42518702 36.046875 55.75390625 C36.03770394 58.28255691 36.02732784 60.81120354 36.015625 63.33984375 C36.01137512 64.53988037 36.00712524 65.73991699 36.00274658 66.97631836 C35.99313904 68.0875708 35.98353149 69.19882324 35.97363281 70.34375 C35.96339081 71.8124353 35.96339081 71.8124353 35.95294189 73.31079102 C35.8125 75.77734375 35.8125 75.77734375 34.8125 78.77734375 C46.12414357 85.48141379 57.4497025 92.16028921 68.8125 98.77734375 C71.80283478 100.52119652 74.79286735 102.26556583 77.78271484 104.01025391 C79.84232423 105.21149909 81.90256927 106.41165494 83.96337891 107.61083984 C87.01994083 109.39095194 90.07284802 111.17718359 93.125 112.96484375 C94.05634766 113.50560547 94.98769531 114.04636719 95.94726562 114.60351562 C96.80642578 115.10818359 97.66558594 115.61285156 98.55078125 116.1328125 C99.30399658 116.57262451 100.05721191 117.01243652 100.83325195 117.46557617 C102.79141395 118.76336875 104.30929536 119.97297593 105.8125 121.77734375 C106.3125 124.71484375 106.3125 124.71484375 105.8125 127.77734375 C102.11725302 131.2434112 97.84759912 133.51697382 93.37890625 135.82421875 C92.66451889 136.19911438 91.95013153 136.57401001 91.21409607 136.96026611 C88.9370182 138.15438339 86.65631343 139.34134131 84.375 140.52734375 C81.39533907 142.08121999 78.41750795 143.63853653 75.44140625 145.19921875 C74.71716461 145.57880737 73.99292297 145.958396 73.24673462 146.3494873 C66.33709484 149.99085087 59.56045565 153.84513515 52.8125 157.77734375 C53.61747925 158.27379395 53.61747925 158.27379395 54.4387207 158.78027344 C66.59410619 166.28076186 78.71356326 173.83393746 90.77392578 181.48632812 C92.63679849 182.66607314 94.5030242 183.84022658 96.37109375 185.01171875 C97.36238281 185.635625 98.35367188 186.25953125 99.375 186.90234375 C100.20128906 187.42054688 101.02757812 187.93875 101.87890625 188.47265625 C103.8125 189.77734375 103.8125 189.77734375 105.8125 191.77734375 C106.1875 194.65234375 106.1875 194.65234375 105.8125 197.77734375 C102.78426227 201.51101791 98.96446227 203.52632582 94.7578125 205.68359375 C94.06846115 206.04492401 93.3791098 206.40625427 92.66886902 206.77853394 C90.42845228 207.95139313 88.18298699 209.11422623 85.9375 210.27734375 C83.60363937 211.49670712 81.27123546 212.71882323 78.9389801 213.94125366 C77.39027009 214.75293512 75.84114749 215.56382987 74.29161072 216.37393188 C68.1969769 219.56320257 62.14947942 222.83238696 56.125 226.15234375 C47.96266556 230.63940258 39.7296956 234.97472314 31.45703125 239.25463867 C23.5033393 243.3819783 15.63999207 247.66439964 7.81640625 252.03320312 C6.9553125 252.50951172 6.09421875 252.98582031 5.20703125 253.4765625 C4.45268799 253.89768311 3.69834473 254.31880371 2.92114258 254.75268555 C0.8125 255.77734375 0.8125 255.77734375 -3.1875 256.77734375 C-3.1875 278.55734375 -3.1875 300.33734375 -3.1875 322.77734375 C-7.1475 322.77734375 -11.1075 322.77734375 -15.1875 322.77734375 C-15.1875 300.99734375 -15.1875 279.21734375 -15.1875 256.77734375 C-17.1675 256.11734375 -19.1475 255.45734375 -21.1875 254.77734375 C-23.6365628 253.57947777 -26.0379719 252.3552227 -28.4375 251.06640625 C-29.12361359 250.70247269 -29.80972717 250.33853912 -30.51663208 249.96357727 C-32.7427375 248.78109883 -34.9651669 247.59189443 -37.1875 246.40234375 C-38.73927124 245.57597277 -40.291193 244.74988438 -41.84326172 243.92407227 C-50.86670606 239.11675511 -59.86220128 234.2599982 -68.82226562 229.33544922 C-74.24206991 226.36313379 -79.686288 223.44038697 -85.1484375 220.546875 C-86.2025029 219.98836098 -86.2025029 219.98836098 -87.27786255 219.41856384 C-90.74986795 217.57994176 -94.22363074 215.74473163 -97.69970703 213.91381836 C-104.20630946 210.47982602 -110.68210827 206.9954107 -117.09375 203.38671875 C-118.24166016 202.74186523 -119.38957031 202.09701172 -120.57226562 201.43261719 C-123.1875 199.77734375 -123.1875 199.77734375 -124.1875 197.77734375 C-124.48828125 194.84765625 -124.48828125 194.84765625 -124.1875 191.77734375 C-122.66796875 190.08203125 -122.66796875 190.08203125 -120.375 188.65234375 C-119.45976562 188.06582031 -118.54453125 187.47929687 -117.6015625 186.875 C-117.06821289 186.54773926 -116.53486328 186.22047852 -115.98535156 185.88330078 C-113.96293738 184.63920297 -111.96189483 183.36425269 -109.9609375 182.0859375 C-105.9088393 179.50398248 -101.84088339 176.94813506 -97.76904297 174.39746094 C-92.64229369 171.18003062 -87.53168306 167.93696529 -82.41821289 164.69848633 C-78.69954328 162.34758472 -74.97433474 160.01776191 -71.1875 157.77734375 C-81.71526064 151.70544603 -92.40609683 146.00277533 -103.22827148 140.47192383 C-120.23395975 131.730884 -120.23395975 131.730884 -124.1875 127.77734375 C-124.8125 125.02734375 -124.8125 125.02734375 -124.1875 121.77734375 C-118.62642568 116.23777094 -110.9513937 112.60339993 -104.1875 108.77734375 C-102.45947355 107.78998786 -100.73145413 106.80261931 -99.00395203 105.81434631 C-97.82407362 105.13965959 -96.64382456 104.46562066 -95.46321106 103.79222107 C-89.41414379 100.34187969 -83.39082824 96.84780208 -77.375 93.33984375 C-75.88709961 92.47238525 -75.88709961 92.47238525 -74.36914062 91.58740234 C-67.24286751 87.42077308 -60.17554236 83.17216726 -53.1875 78.77734375 C-53.5175 77.78734375 -53.8475 76.79734375 -54.1875 75.77734375 C-54.30524082 73.97923212 -54.36684395 72.17721084 -54.39624023 70.37548828 C-54.41553085 69.27069122 -54.43482147 68.16589417 -54.45469666 67.02761841 C-54.51240188 61.98507977 -54.56168565 56.94268276 -54.5925293 51.89990234 C-54.61414842 49.23831234 -54.64829655 46.57679417 -54.69506836 43.91552734 C-54.76186894 40.08008038 -54.78949498 36.24610186 -54.80859375 32.41015625 C-54.83642441 31.2204422 -54.86425507 30.03072815 -54.89292908 28.80496216 C-54.87242543 20.59390412 -54.87242543 20.59390412 -51.66210938 16.76660156 C-50.00914001 15.72354126 -50.00914001 15.72354126 -48.1875 14.77734375 C-47.56601578 14.41329437 -46.94453156 14.049245 -46.30421448 13.67416382 C-44.22222954 12.49002322 -42.1104486 11.39634509 -39.97265625 10.31640625 C-39.19869003 9.92158051 -38.42472382 9.52675476 -37.62730408 9.1199646 C-35.9998576 8.29399525 -34.37022083 7.47232869 -32.73852539 6.65478516 C-30.25129123 5.40299361 -27.77926534 4.12410683 -25.30664062 2.84375 C-23.71700292 2.04126869 -22.12653455 1.24043027 -20.53515625 0.44140625 C-19.80265152 0.05820221 -19.07014679 -0.32500183 -18.31544495 -0.71981812 C-11.63654847 -4.00098766 -6.67763161 -3.25016895 0 0 Z " fill="#FEFCFB" transform="translate(265.1875,99.22265625)"></path><path d="M0 0 C2.31176758 1.03149414 2.31176758 1.03149414 4.64453125 2.28515625 C5.78305542 2.89049194 5.78305542 2.89049194 6.94458008 3.50805664 C7.89099365 4.02102295 8.83740723 4.53398926 9.8125 5.0625 C12.844375 6.691875 15.87625 8.32125 19 10 C19 19.24 19 28.48 19 38 C22.96 38 26.92 38 31 38 C31 28.76 31 19.52 31 10 C34.031875 8.370625 37.06375 6.74125 40.1875 5.0625 C41.60712036 4.29305054 41.60712036 4.29305054 43.05541992 3.50805664 C43.81443604 3.10449951 44.57345215 2.70094238 45.35546875 2.28515625 C46.12528076 1.87144775 46.89509277 1.45773926 47.68823242 1.03149414 C50.23677596 -0.10564774 52.20814328 -0.7925406 55 -1 C57.57348633 0.04125977 57.57348633 0.04125977 60.33203125 1.69140625 C61.36610107 2.29968262 62.4001709 2.90795898 63.46557617 3.53466797 C65.12230347 4.53844482 65.12230347 4.53844482 66.8125 5.5625 C67.97091664 6.25028491 69.13019113 6.93662685 70.2902832 7.62158203 C72.68365578 9.03697423 75.07242372 10.45970561 77.45800781 11.88818359 C81.83066099 14.50213675 86.23798826 17.05556852 90.64526367 19.6105957 C100.48443358 25.3170142 110.27160512 31.10683772 120 37 C117.35703293 40.07972857 114.05831926 41.74582223 110.515625 43.58984375 C109.87203033 43.9303476 109.22843567 44.27085144 108.56533813 44.62167358 C106.46296507 45.73223594 104.35655171 46.8348876 102.25 47.9375 C100.78898338 48.70746764 99.32821037 49.47789769 97.86767578 50.2487793 C88.63832813 55.11459444 79.38402812 59.93261233 70.12451172 64.74072266 C63.50012 68.1903565 56.92843894 71.73007994 50.375 75.3125 C49.00202759 76.06080078 49.00202759 76.06080078 47.60131836 76.82421875 C43.68403712 78.96372039 39.77820009 81.11631361 35.91015625 83.34375 C34.76417969 83.9934375 33.61820312 84.643125 32.4375 85.3125 C31.48746094 85.86550781 30.53742188 86.41851562 29.55859375 86.98828125 C26.38670319 88.24250973 25.26738933 87.91348842 22 87 C19.63978343 85.92181943 17.36014355 84.80912421 15.06640625 83.60546875 C14.40107376 83.26231628 13.73574127 82.91916382 13.05024719 82.56561279 C10.88428308 81.44596649 8.72332024 80.31703725 6.5625 79.1875 C5.05434488 78.40474858 3.54604294 77.62227999 2.03759766 76.84008789 C-6.91541993 72.18665128 -15.8078809 67.43350068 -24.63647461 62.54760742 C-34.17064243 57.29658069 -43.86939027 52.36260604 -53.57080078 47.42944336 C-54.84929212 46.77589507 -56.12777555 46.12233132 -57.40625 45.46875 C-58.53353516 44.89576172 -59.66082031 44.32277344 -60.82226562 43.73242188 C-64.03638132 41.98016581 -66.98857178 40.0750445 -70 38 C-67.5849251 35.32186248 -64.98947088 33.6956489 -61.86328125 31.91796875 C-60.82252441 31.32242188 -59.78176758 30.726875 -58.70947266 30.11328125 C-57.58847168 29.47777344 -56.4674707 28.84226563 -55.3125 28.1875 C-53.55140262 27.18190096 -51.79132074 26.17453941 -50.03125 25.16714478 C-48.82421113 24.4764644 -47.61685069 23.78634572 -46.40917969 23.09677124 C-40.29216975 19.60266909 -34.20645784 16.05557547 -28.125 12.5 C-27.18309814 11.94981201 -26.24119629 11.39962402 -25.27075195 10.83276367 C-24.35898193 10.30013916 -23.44721191 9.76751465 -22.5078125 9.21875 C-21.16831543 8.44337891 -21.16831543 8.44337891 -19.80175781 7.65234375 C-17.78889487 6.46525274 -15.79545772 5.24499098 -13.81542969 4.00390625 C-12.76000977 3.35292969 -11.70458984 2.70195312 -10.6171875 2.03125 C-9.66183105 1.42861328 -8.70647461 0.82597656 -7.72216797 0.20507812 C-4.50264104 -1.22017613 -3.29022943 -1.1226496 0 0 Z " fill="#E5770E" transform="translate(231,186)"></path><path d="M0 0 C1.86168893 0.83810224 3.69404772 1.74303238 5.5 2.6953125 C7.07019897 3.51769409 7.07019897 3.51769409 8.67211914 4.35668945 C9.77031982 4.94023193 10.86852051 5.52377441 12 6.125 C13.11818115 6.7130542 14.2363623 7.3011084 15.38842773 7.90698242 C22.95108106 11.89094398 30.49228539 15.91352243 38 20 C38 25.28 38 30.56 38 36 C41.96 36 45.92 36 50 36 C50 30.72 50 25.44 50 20 C52.13339844 18.90300781 54.26679688 17.80601562 56.46484375 16.67578125 C58.5601558 15.59710736 60.65521148 14.5179371 62.75024414 13.4387207 C64.19203491 12.69634088 65.63408627 11.9544669 67.07641602 11.21313477 C69.16493491 10.13955642 71.25239746 9.06394328 73.33984375 7.98828125 C74.01566498 7.64185577 74.69148621 7.2954303 75.38778687 6.93850708 C79.73731343 4.69663284 83.97162353 2.32438733 88.10766602 -0.29614258 C90.75186684 -1.27965838 92.32831349 -0.81270402 95 0 C97.01025391 1.0246582 97.01025391 1.0246582 98.9765625 2.30078125 C99.72075439 2.77773438 100.46494629 3.2546875 101.23168945 3.74609375 C102.41637817 4.52146484 102.41637817 4.52146484 103.625 5.3125 C105.3188484 6.40259554 107.01286388 7.4924315 108.70703125 8.58203125 C109.57666504 9.14486816 110.44629883 9.70770508 111.34228516 10.28759766 C115.64410008 13.05931637 119.97983476 15.77686583 124.3125 18.5 C126.55471397 19.91057408 128.79536692 21.32320128 131.02978516 22.74609375 C132.30596068 23.55829171 133.58664765 24.36346149 134.87255859 25.16015625 C136.28316249 26.05410224 137.64791465 27.01979186 139 28 C139 28.66 139 29.32 139 30 C138.16678223 30.44166504 137.33356445 30.88333008 136.47509766 31.33837891 C121.2670732 39.40134744 106.06888298 47.48037006 90.92407227 55.66162109 C84.7544513 58.99031565 78.57270631 62.29468103 72.37890625 65.578125 C71.64586273 65.96681763 70.91281921 66.35551025 70.15756226 66.75598145 C66.54579057 68.67051165 62.93284044 70.58277752 59.31835938 72.4921875 C58.00518863 73.1874628 56.69203666 73.88277353 55.37890625 74.578125 C54.2194751 75.19075195 53.06004395 75.80337891 51.86547852 76.43457031 C48.92544132 77.98623261 48.92544132 77.98623261 46 80 C40.13427989 79.8590818 35.58660337 76.82424109 30.625 74 C28.65995859 72.90426703 26.69373853 71.81064604 24.7265625 70.71875 C23.65567383 70.12320313 22.58478516 69.52765625 21.48144531 68.9140625 C15.71285379 65.74255075 9.89148294 62.67142064 4.07168579 59.59518433 C-6.89262529 53.79896672 -17.82541149 47.95151594 -28.70166016 41.99121094 C-36.10340907 37.93518402 -43.54126606 33.95010832 -51 30 C-49.71341538 26.14024614 -48.33195621 25.69971974 -44.8828125 23.62890625 C-43.80926514 22.97720459 -42.73571777 22.32550293 -41.62963867 21.65405273 C-40.46163622 20.95651599 -39.2934189 20.25933894 -38.125 19.5625 C-35.74678447 18.1307653 -33.37142616 16.69432392 -30.99609375 15.2578125 C-30.40155899 14.89946823 -29.80702423 14.54112396 -29.19447327 14.17192078 C-25.48962479 11.93100692 -21.84076182 9.62189824 -18.22265625 7.2421875 C-17.36462402 6.68072021 -16.5065918 6.11925293 -15.62255859 5.54077148 C-14.03329487 4.49438138 -12.45117097 3.43704217 -10.87744141 2.36743164 C-10.16894043 1.90457764 -9.46043945 1.44172363 -8.73046875 0.96484375 C-8.12614014 0.5587085 -7.52181152 0.15257324 -6.89916992 -0.26586914 C-4.22269876 -1.30046855 -2.72734095 -0.82664472 0 0 Z " fill="#E17210" transform="translate(212,265)"></path><path d="M0 0 C1.14162598 0.58128662 2.28325195 1.16257324 3.45947266 1.76147461 C4.58144043 2.32745361 5.7034082 2.89343262 6.859375 3.4765625 C8.26654785 4.19835693 9.6737207 4.92015137 11.12353516 5.66381836 C15.61978516 7.95319336 20.11603516 10.24256836 24.74853516 12.60131836 C24.74853516 27.12131836 24.74853516 41.64131836 24.74853516 56.60131836 C18.47853516 59.90131836 12.20853516 63.20131836 5.74853516 66.60131836 C1.01277067 69.20546522 1.01277067 69.20546522 -3.70849609 71.83569336 C-8.82353117 73.37570392 -13.94627869 69.87802317 -18.48974609 67.59741211 C-19.63894531 67.0218457 -20.78814453 66.4462793 -21.97216797 65.85327148 C-22.5613501 65.55557861 -23.15053223 65.25788574 -23.75756836 64.95117188 C-25.57418795 64.033655 -27.39399069 63.12270659 -29.21435547 62.21264648 C-38.111079 57.7417042 -38.111079 57.7417042 -39.25146484 56.60131836 C-39.34424814 55.21971721 -39.36893527 53.83343798 -39.36499023 52.44873047 C-39.36487694 51.12747414 -39.36487694 51.12747414 -39.36476135 49.77952576 C-39.35701942 48.34359825 -39.35701942 48.34359825 -39.34912109 46.87866211 C-39.34770615 45.90345108 -39.3462912 44.92824005 -39.34483337 43.92347717 C-39.33921617 40.79522693 -39.32666077 37.66704713 -39.31396484 34.53881836 C-39.30895206 32.42358501 -39.30438877 30.30835055 -39.30029297 28.19311523 C-39.28924116 22.9958254 -39.27248631 17.79857691 -39.25146484 12.60131836 C-35.09926855 10.42608605 -30.93684218 8.27241392 -26.76367188 6.13769531 C-25.34662342 5.40909866 -23.93250415 4.67477473 -22.52148438 3.93457031 C-20.48846117 2.86934638 -18.44566872 1.82540825 -16.39990234 0.78491211 C-15.77465668 0.45164413 -15.14941101 0.11837616 -14.50521851 -0.22499084 C-8.87791101 -3.04147737 -5.6275478 -2.42080052 0 0 Z " fill="#E97D0B" transform="translate(263.25146484375,112.398681640625)"></path><path d="M0 0 C4.29 0 8.58 0 13 0 C13.11297316 8.66660547 13.20469895 17.33272178 13.25906086 25.999897 C13.28515231 30.02446096 13.32054057 34.04849497 13.37719727 38.07275391 C13.43153552 41.9566544 13.46142394 45.84004529 13.47438622 49.72429657 C13.48362306 51.20593031 13.50166111 52.68753624 13.52865028 54.16895294 C13.564969 56.2450835 13.56994481 58.31911056 13.56762695 60.39550781 C13.57873001 61.57687317 13.58983307 62.75823853 13.60127258 63.97540283 C13 67 13 67 10.60914612 69.32270813 C8.19526667 70.87447265 5.79553788 72.38012031 3.2890625 73.77734375 C2.38607422 74.28394531 1.48308594 74.79054688 0.55273438 75.3125 C-0.41341797 75.84875 -1.37957031 76.385 -2.375 76.9375 C-4.45579578 78.10274564 -6.53652306 79.26811361 -8.6171875 80.43359375 C-10.20998535 81.32280518 -10.20998535 81.32280518 -11.83496094 82.22998047 C-16.73316041 84.96925432 -21.61620632 87.7351521 -26.5 90.5 C-28.41658469 91.58347835 -30.33325161 92.66681126 -32.25 93.75 C-33.19875 94.28625 -34.1475 94.8225 -35.125 95.375 C-43.75 100.25 -43.75 100.25 -46.62890625 101.87719727 C-48.53256423 102.9531849 -50.43621019 104.02919378 -52.33984375 105.10522461 C-57.33044169 107.92612758 -62.32128963 110.746587 -67.3125 113.56640625 C-68.86614258 114.44425781 -68.86614258 114.44425781 -70.45117188 115.33984375 C-72.42635477 116.45586637 -74.40161056 117.57176001 -76.37695312 118.6875 C-77.27349609 119.19410156 -78.17003906 119.70070313 -79.09375 120.22265625 C-79.93550781 120.69719238 -80.77726562 121.17172852 -81.64453125 121.66064453 C-83.14803116 122.51555752 -84.64608058 123.38017767 -86.13671875 124.25732422 C-90.8020331 127 -90.8020331 127 -93 127 C-94.98 123.37 -96.96 119.74 -99 116 C-47.25 86.75 -47.25 86.75 -44.37060547 85.12255859 C-42.46853866 84.04744922 -40.56651983 82.97225497 -38.66455078 81.89697266 C-33.64991182 79.06208749 -28.63426152 76.22901128 -23.6171875 73.3984375 C-22.57240234 72.80869141 -21.52761719 72.21894531 -20.45117188 71.61132812 C-18.45017689 70.48187762 -16.44889032 69.35294351 -14.44726562 68.22460938 C-13.0927832 67.45987305 -13.0927832 67.45987305 -11.7109375 66.6796875 C-10.91993652 66.23351074 -10.12893555 65.78733398 -9.31396484 65.32763672 C-7.63293354 64.36314545 -5.97429856 63.35928838 -4.33056641 62.33251953 C-2 61 -2 61 0 61 C0 40.87 0 20.74 0 0 Z " fill="#FEFBF9" transform="translate(390,275)"></path><path d="M0 0 C4.29 0 8.58 0 13 0 C13 20.13 13 40.26 13 61 C14.65 61.66 16.3 62.32 18 63 C19.4982973 63.75138689 20.98390133 64.52852178 22.45703125 65.328125 C23.30974609 65.79089844 24.16246094 66.25367188 25.04101562 66.73046875 C25.95560547 67.23191406 26.87019531 67.73335938 27.8125 68.25 C28.77736328 68.77722656 29.74222656 69.30445313 30.73632812 69.84765625 C38.92209552 74.34903768 46.98432597 79.047657 55.03442383 83.78613281 C61.62439196 87.65202075 68.27510954 91.37451768 75 95 C83.16519575 99.41586354 91.26592232 103.93368345 99.3125 108.5625 C100.36373047 109.15869141 101.41496094 109.75488281 102.49804688 110.36914062 C103.46419922 110.92923828 104.43035156 111.48933594 105.42578125 112.06640625 C106.28598877 112.56084229 107.14619629 113.05527832 108.0324707 113.56469727 C110 115 110 115 111 118 C110.00390625 120.26171875 110.00390625 120.26171875 108.5625 122.6875 C107.85287109 123.89986328 107.85287109 123.89986328 107.12890625 125.13671875 C106.75636719 125.75160156 106.38382812 126.36648438 106 127 C100.31878486 125.4254655 95.60829234 122.64399686 90.5625 119.6875 C88.67612354 118.59576252 86.78939232 117.50463783 84.90234375 116.4140625 C83.44223877 115.56763184 83.44223877 115.56763184 81.95263672 114.70410156 C77.19485182 111.9581665 72.41017598 109.26032874 67.625 106.5625 C65.69007845 105.47009764 63.75518275 104.37764947 61.8203125 103.28515625 C60.85899414 102.74262207 59.89767578 102.20008789 58.90722656 101.64111328 C56.01835777 100.01036286 53.13013466 98.37847571 50.2421875 96.74609375 C49.2934375 96.20984375 48.3446875 95.67359375 47.3671875 95.12109375 C45.46332274 94.04465795 43.55967507 92.96783809 41.65625 91.890625 C36.69602517 89.08436081 31.7309268 86.28727345 26.7578125 83.50390625 C25.73107422 82.92769531 24.70433594 82.35148437 23.64648438 81.7578125 C21.69890022 80.66505035 19.74979262 79.57499679 17.79882812 78.48828125 C3.3940922 70.3940922 3.3940922 70.3940922 0 67 C-0.09417773 64.91380978 -0.11742878 62.82439523 -0.11352539 60.73608398 C-0.11367142 60.08244873 -0.11381744 59.42881348 -0.1139679 58.75537109 C-0.11326883 56.58557872 -0.10547678 54.41587121 -0.09765625 52.24609375 C-0.09579205 50.74536689 -0.09436816 49.24463943 -0.09336853 47.74391174 C-0.08954352 43.78681774 -0.0797134 39.82976022 -0.06866455 35.87268066 C-0.05845006 31.83765151 -0.05387083 27.80261647 -0.04882812 23.76757812 C-0.0380911 15.84503344 -0.02049445 7.92252546 0 0 Z " fill="#FEFBF9" transform="translate(109,275)"></path><path d="M0 0 C5.83938868 1.59865231 10.68606657 4.54019454 15.875 7.5625 C27.08265511 14.00420111 38.46166384 20.081597 49.90771484 26.08618164 C71.01030946 37.17936545 71.01030946 37.17936545 74 41 C74.36076355 43.67655945 74.36076355 43.67655945 74.34057617 46.94018555 C74.34034958 48.16122482 74.34012299 49.3822641 74.33988953 50.64030457 C74.32440567 51.95912125 74.30892181 53.27793793 74.29296875 54.63671875 C74.28737243 56.00006138 74.2831025 57.36341004 74.28010559 58.72676086 C74.26865949 62.31243592 74.23919486 65.89774554 74.20599365 69.48327637 C74.17528739 73.1430975 74.1615991 76.80297777 74.14648438 80.46289062 C74.1143244 87.64211285 74.06155899 94.82095864 74 102 C69.71 102 65.42 102 61 102 C61 83.85 61 65.7 61 47 C59.35 46.34 57.7 45.68 56 45 C53.17046182 43.63561897 50.40195157 42.1556306 47.625 40.6875 C46.80209473 40.25381104 45.97918945 39.82012207 45.13134766 39.37329102 C37.49078642 35.31624856 29.96587284 31.06305063 22.45678711 26.76855469 C17.95397856 24.20118726 13.44349816 21.68018917 8.83203125 19.3125 C8.04328613 18.90717041 7.25454102 18.50184082 6.44189453 18.08422852 C4.983377 17.34233369 3.51976088 16.61034292 2.05029297 15.89038086 C-0.59710538 14.5454121 -2.70089848 13.36491848 -4.59765625 11.05078125 C-5.17823237 8.09153405 -4.18583071 6.77705925 -2.625 4.25 C-2.14289063 3.45078125 -1.66078125 2.6515625 -1.1640625 1.828125 C-0.77992188 1.22484375 -0.39578125 0.6215625 0 0 Z " fill="#FEFBF7" transform="translate(329,129)"></path><path d="M0 0 C1.23828125 1.70703125 1.23828125 1.70703125 2.3125 3.8125 C2.86357422 4.84310547 2.86357422 4.84310547 3.42578125 5.89453125 C4 8 4 8 3.38037109 9.93066406 C1.50643705 12.73990796 -0.51727689 13.66859783 -3.51171875 15.21484375 C-4.65133057 15.81240479 -5.79094238 16.40996582 -6.96508789 17.02563477 C-7.57208527 17.33735626 -8.17908264 17.64907776 -8.80447388 17.97024536 C-11.99875234 19.61105142 -15.17362665 21.28876541 -18.3515625 22.9609375 C-18.99583694 23.2985762 -19.64011139 23.6362149 -20.3039093 23.98408508 C-27.38283674 27.70320811 -34.33080287 31.6458569 -41.27416992 35.61108398 C-45.84600421 38.22031624 -50.42532074 40.81541154 -55.02734375 43.37109375 C-55.930896 43.87439209 -56.83444824 44.37769043 -57.76538086 44.89624023 C-60 46 -60 46 -62 46 C-62 64.15 -62 82.3 -62 101 C-66.29 101 -70.58 101 -75 101 C-75.09040077 93.11566243 -75.16377239 85.23172834 -75.20724869 77.34701157 C-75.2281161 73.68573489 -75.25641706 70.02483142 -75.30175781 66.36376953 C-75.34524763 62.83001289 -75.36914348 59.29661501 -75.37950897 55.76261139 C-75.39048737 53.75948748 -75.42170876 51.75650774 -75.45318604 49.75360107 C-75.45348816 48.53263733 -75.45379028 47.31167358 -75.45410156 46.05371094 C-75.46298401 44.97893494 -75.47186646 43.90415894 -75.48101807 42.79681396 C-74.87841626 39.29306793 -73.73633868 38.19671907 -71 36 C-68.81910725 34.69695308 -66.67397643 33.50091544 -64.41796875 32.34765625 C-63.45408737 31.84278435 -63.45408737 31.84278435 -62.47073364 31.32771301 C-61.09380064 30.60705906 -59.71520583 29.88957288 -58.33511353 29.17498779 C-54.70191688 27.29295135 -51.0815853 25.38650588 -47.4609375 23.48046875 C-46.73721451 23.10001404 -46.01349152 22.71955933 -45.26783752 22.32757568 C-38.88134985 18.9601623 -32.58335585 15.45370614 -26.3125 11.875 C-25.38880615 11.34962646 -24.4651123 10.82425293 -23.51342773 10.28295898 C-20.28183009 8.44356166 -17.05186165 6.60133352 -13.82373047 4.75585938 C-11.97134087 3.70196774 -10.11234993 2.66115448 -8.25 1.625 C-7.28578125 1.08101562 -6.3215625 0.53703125 -5.328125 -0.0234375 C-3 -1 -3 -1 0 0 Z " fill="#FEFBF8" transform="translate(184,130)"></path></svg>