<svg version="1.1" xmlns="http://www.w3.org/2000/svg" width="16px" height="16px" fill="currentColor" viewBox="0 0 512 512"><path d="M0 0 C168.96 0 337.92 0 512 0 C512 168.96 512 337.92 512 512 C343.04 512 174.08 512 0 512 C0 343.04 0 174.08 0 0 Z " fill="#E3740D" transform="translate(0,0)"></path><path d="M0 0 C2.80712891 1.21484375 2.80712891 1.21484375 5.7265625 2.9375 C6.82613281 3.576875 7.92570313 4.21625 9.05859375 4.875 C10.24745692 5.5832308 11.43625726 6.29156708 12.625 7 C13.87289531 7.7305394 15.12160903 8.45968241 16.37109375 9.1875 C18.96576999 10.70033826 21.55682424 12.2191194 24.14550781 13.7421875 C30.06464308 17.21805155 36.03430085 20.60485574 42 24 C48.62442452 27.77592667 55.2454029 31.55652552 61.83969116 35.38485718 C64.41606098 36.87983613 66.9953826 38.3696798 69.57495117 39.85913086 C70.80462993 40.57108407 72.03285493 41.28555488 73.25952148 42.00268555 C74.95968368 42.99642085 76.66528253 43.98083693 78.37109375 44.96484375 C79.33974365 45.5280835 80.30839355 46.09132324 81.30639648 46.67163086 C85.20624555 48.59486831 87.54681667 49.47776242 91.76391602 48.09130859 C92.75061279 47.61516113 93.73730957 47.13901367 94.75390625 46.6484375 C95.85669922 46.12636719 96.95949219 45.60429687 98.09570312 45.06640625 C99.23974609 44.50824219 100.38378906 43.95007813 101.5625 43.375 C103.81274591 42.29727115 106.06404428 41.22173694 108.31640625 40.1484375 C109.42000488 39.62217773 110.52360352 39.09591797 111.66064453 38.55371094 C125.74638592 32 125.74638592 32 129 32 C129 31.34 129 30.68 129 30 C128.29568848 29.73501709 127.59137695 29.47003418 126.86572266 29.19702148 C121.47356526 26.94470016 116.46642955 23.91704865 111.375 21.0625 C110.2303125 20.42892578 109.085625 19.79535156 107.90625 19.14257812 C106.81054688 18.52962891 105.71484375 17.91667969 104.5859375 17.28515625 C103.5861084 16.72707275 102.5862793 16.16898926 101.55615234 15.59399414 C99 14 99 14 96 11 C97.98 7.7 99.96 4.4 102 1 C106.07056001 2.24641611 109.57744611 3.73979318 113.23828125 5.90625 C114.70467041 6.76802856 114.70467041 6.76802856 116.20068359 7.6472168 C117.22758301 8.25863525 118.25448242 8.87005371 119.3125 9.5 C121.4570187 10.76694833 123.60155004 12.03387526 125.74609375 13.30078125 C126.8016748 13.92678223 127.85725586 14.5527832 128.94482422 15.19775391 C131.71462705 16.83165869 134.49542908 18.44339639 137.28515625 20.04296875 C138.45921021 20.71972656 138.45921021 20.71972656 139.65698242 21.41015625 C141.10101376 22.24176571 142.54767319 23.06883365 143.99731445 23.890625 C147.14718834 25.71806921 148.94552829 26.91829244 151 30 C151.24050903 32.14506531 151.24050903 32.14506531 151.22705078 34.6550293 C151.22689972 35.59577805 151.22674866 36.53652679 151.22659302 37.50578308 C151.21627045 38.51836685 151.20594788 39.53095062 151.1953125 40.57421875 C151.19106766 42.13267265 151.19106766 42.13267265 151.18673706 43.72261047 C151.17553282 47.04435697 151.15042764 50.36583485 151.125 53.6875 C151.11497052 55.93814715 151.10584462 58.18879852 151.09765625 60.43945312 C151.07559265 65.95973908 151.04106099 71.47982398 151 77 C146.71 77 142.42 77 138 77 C138 65.45 138 53.9 138 42 C135.17050781 43.28777344 132.34101563 44.57554687 129.42578125 45.90234375 C126.67935965 47.14798597 123.93212933 48.39182745 121.18481445 49.63549805 C119.27803642 50.49982845 117.37210278 51.3660242 115.46704102 52.23413086 C112.7263296 53.48263747 109.9826372 54.72437258 107.23828125 55.96484375 C106.38913651 56.35341049 105.53999176 56.74197723 104.66511536 57.14231873 C103.86466293 57.50261673 103.06421051 57.86291473 102.23950195 58.23413086 C101.54000931 58.55167831 100.84051666 58.86922577 100.11982727 59.19639587 C97.77029029 60.08708052 95.47173316 60.56910253 93 61 C93.00368717 61.54684039 93.00737434 62.09368078 93.01117325 62.65709209 C93.09955106 75.96938234 93.16546708 89.28162111 93.20724869 102.59414196 C93.22813273 109.03202932 93.25646597 115.46970511 93.30175781 121.9074707 C93.34518539 128.11904801 93.36913095 134.33042167 93.37950897 140.54213905 C93.38690581 142.91325398 93.40134989 145.28435763 93.42292023 147.65538597 C93.45191223 150.97387242 93.45595763 154.29151492 93.45410156 157.61010742 C93.46848267 158.59266006 93.48286377 159.57521271 93.49768066 160.58753967 C93.47139622 164.92404012 93.42748114 167.31699985 91.08421326 171.06091309 C89.21992311 172.79539041 87.50273267 174.2301884 85.33203125 175.55078125 C84.61668213 175.99349365 83.90133301 176.43620605 83.16430664 176.89233398 C82.00016235 177.59531616 82.00016235 177.59531616 80.8125 178.3125 C79.09831936 179.3713621 77.38481239 180.43131535 75.671875 181.4921875 C74.75599609 182.05647461 73.84011719 182.62076172 72.89648438 183.20214844 C67.75205516 186.39530224 62.65910789 189.66875976 57.5625 192.9375 C56.50047363 193.6176416 55.43844727 194.2977832 54.34423828 194.99853516 C47.77817872 199.20703323 41.22547237 203.43550921 34.6875 207.6875 C33.89496826 208.2026416 33.10243652 208.7177832 32.28588867 209.24853516 C27.97800091 212.05185079 23.67900535 214.86816372 19.38671875 217.6953125 C18.46479736 218.30028564 17.54287598 218.90525879 16.59301758 219.52856445 C14.8155991 220.69514999 13.04058816 221.86541409 11.26831055 223.03979492 C10.47593994 223.55904541 9.68356934 224.0782959 8.8671875 224.61328125 C8.16706543 225.07516846 7.46694336 225.53705566 6.74560547 226.01293945 C5 227 5 227 3 227 C3 241.19 3 255.38 3 270 C11.10713112 265.61951738 11.10713112 265.61951738 19.21240234 261.2355957 C25.7534965 257.70737226 32.32519008 254.26873015 39 251 C44 259.625 44 259.625 44 263 C42.2421875 263.9765625 40.484375 264.953125 38.7265625 265.9296875 C37.59951904 266.55617188 36.47247559 267.18265625 35.3112793 267.828125 C32.84555525 269.19815043 30.37812359 270.56503197 27.90942383 271.9296875 C22.37995073 274.98925593 16.86104372 278.05923294 11.41015625 281.2578125 C10.60046387 281.72719238 9.79077148 282.19657227 8.95654297 282.68017578 C7.48277149 283.53741794 6.01638615 284.40753346 4.55908203 285.29248047 C0.14266634 287.84020367 -2.10835566 288.23859545 -7 287 C-10.12109375 285.54467773 -10.12109375 285.54467773 -13.4375 283.68359375 C-14.34048828 283.18147118 -14.34048828 283.18147118 -15.26171875 282.66920471 C-17.17924371 281.6002384 -19.08958016 280.51910271 -21 279.4375 C-22.25085426 278.73813074 -23.5021535 278.03955673 -24.75390625 277.34179688 C-33.20340691 272.62154605 -41.6034489 267.81362372 -50 263 C-49.21258341 258.2009031 -47.50483074 255.12085057 -45 251 C-32.77930569 256.95673508 -20.88518449 263.39711973 -9 270 C-9 255.81 -9 241.62 -9 227 C-10.65 226.34 -12.3 225.68 -14 225 C-15.60735613 224.04666921 -17.18868878 223.04854469 -18.74609375 222.015625 C-19.65447998 221.41733887 -20.56286621 220.81905273 -21.4987793 220.20263672 C-22.46855713 219.5582666 -23.43833496 218.91389648 -24.4375 218.25 C-26.51492574 216.88175022 -28.59306844 215.51458847 -30.671875 214.1484375 C-31.72697266 213.45459961 -32.78207031 212.76076172 -33.86914062 212.04589844 C-38.61427062 208.94513507 -43.39852685 205.90744468 -48.1875 202.875 C-56.08372282 197.86824007 -63.94885073 192.81721156 -71.77587891 187.70288086 C-75.80785667 185.06883383 -79.84965657 182.45431298 -83.921875 179.8828125 C-84.70393311 179.38612061 -85.48599121 178.88942871 -86.29174805 178.37768555 C-87.76073875 177.44600334 -89.23334419 176.51998585 -90.71020508 175.60083008 C-91.36400146 175.18470459 -92.01779785 174.7685791 -92.69140625 174.33984375 C-93.54520874 173.80411743 -93.54520874 173.80411743 -94.41625977 173.25756836 C-97.01775016 171.19185586 -98.80093274 169.16657144 -99.36914349 165.83675003 C-99.36499542 164.6586986 -99.36499542 164.6586986 -99.36076355 163.45684814 C-99.36488754 162.551035 -99.36901154 161.64522186 -99.3732605 160.71195984 C-99.36247467 159.72581192 -99.35168884 158.739664 -99.34057617 157.72363281 C-99.34123329 156.15730858 -99.34123329 156.15730858 -99.34190369 154.55934143 C-99.3398133 151.10707924 -99.31646983 147.65530238 -99.29296875 144.203125 C-99.2873737 141.80987819 -99.28310317 139.41662794 -99.28010559 137.02337646 C-99.26864972 130.7235567 -99.23917587 124.42394434 -99.20599365 118.12420654 C-99.17530894 111.69611415 -99.16160366 105.26798826 -99.14648438 98.83984375 C-99.11430712 86.226474 -99.06367802 73.61324803 -99 61 C-99.59949431 60.80442851 -100.19898863 60.60885702 -100.81664944 60.40735912 C-101.61292279 60.14524796 -102.40919615 59.88313681 -103.229599 59.61308289 C-104.01471831 59.3556364 -104.79983763 59.09818991 -105.60874844 58.83294201 C-109.42028977 57.50527204 -113.07748805 55.86660209 -116.75390625 54.20703125 C-117.54022934 53.85613937 -118.32655243 53.5052475 -119.13670349 53.14372253 C-121.61376186 52.03727198 -124.08815451 50.92500203 -126.5625 49.8125 C-128.25568549 49.05494979 -129.94904341 48.29778483 -131.64257812 47.54101562 C-135.76406096 45.69915864 -139.88187717 43.84943087 -144 42 C-144 53.55 -144 65.1 -144 77 C-148.29 77 -152.58 77 -157 77 C-157.1236881 70.39810002 -157.21438303 63.79687584 -157.2746582 57.1940918 C-157.29978723 54.94852956 -157.33389615 52.703049 -157.37719727 50.45776367 C-157.43791776 47.22814782 -157.46622631 43.99961416 -157.48828125 40.76953125 C-157.51408768 39.76727005 -157.5398941 38.76500885 -157.56648254 37.7323761 C-157.56927413 30.77956522 -157.56927413 30.77956522 -154.85205078 27.05859375 C-151.9277876 24.94787751 -149.02534984 23.05755586 -145.87890625 21.29296875 C-145.29769516 20.96388016 -144.71648407 20.63479156 -144.11766052 20.29573059 C-142.27018069 19.25190009 -140.41663167 18.21945948 -138.5625 17.1875 C-137.35438712 16.50792637 -136.14670151 15.82759259 -134.93945312 15.14648438 C-133.13054274 14.12607104 -131.32062457 13.10781853 -129.5062561 12.09713745 C-126.33585369 10.329713 -123.19127039 8.52972932 -120.07373047 6.67041016 C-119.43717026 6.29451248 -118.80061005 5.91861481 -118.14476013 5.53132629 C-116.92514145 4.80928947 -115.710239 4.07920939 -114.50086975 3.34013367 C-113.04364867 2.48231897 -111.52451738 1.73156415 -110 1 C-107 2 -107 2 -105.61328125 4.28515625 C-105.18402344 5.20167969 -104.75476563 6.11820313 -104.3125 7.0625 C-103.87550781 7.98160156 -103.43851563 8.90070313 -102.98828125 9.84765625 C-102.49908203 10.91306641 -102.49908203 10.91306641 -102 12 C-105.89367757 14.24622034 -109.78981161 16.48810081 -113.68823242 18.72607422 C-115.01280167 19.48726886 -116.33670447 20.24962449 -117.65991211 21.01318359 C-119.56708566 22.11344844 -121.47665387 23.20945152 -123.38671875 24.3046875 C-123.97337814 24.6443454 -124.56003754 24.9840033 -125.16447449 25.33395386 C-128.36570767 27.16359992 -131.5395075 28.72463421 -135 30 C-135 30.66 -135 31.32 -135 32 C-133.83984375 32.34546875 -132.6796875 32.6909375 -131.484375 33.046875 C-127.0199813 34.53267557 -122.7755278 36.40556203 -118.515625 38.390625 C-117.84760864 38.70084595 -117.17959229 39.01106689 -116.49133301 39.33068848 C-113.69909378 40.63114942 -110.90945694 41.9365797 -108.12744141 43.25878906 C-106.07480312 44.23161694 -104.01484451 45.18722687 -101.953125 46.140625 C-101.32907776 46.44260803 -100.70503052 46.74459106 -100.06207275 47.0557251 C-96.27440502 48.7898738 -93.95795232 49.40304933 -90 48 C-87.46099872 46.83322107 -87.46099872 46.83322107 -84.88671875 45.33203125 C-83.89865234 44.77580078 -82.91058594 44.21957031 -81.89257812 43.64648438 C-80.30606445 42.73866211 -80.30606445 42.73866211 -78.6875 41.8125 C-77.57955078 41.18537109 -76.47160156 40.55824219 -75.33007812 39.91210938 C-66.86263711 35.10444718 -58.45151557 30.20095207 -50.05493164 25.27075195 C-41.61723643 20.32719646 -33.09889693 15.53565096 -24.546875 10.79296875 C-23.57492188 10.25285156 -22.60296875 9.71273437 -21.6015625 9.15625 C-20.66344727 8.63675781 -19.72533203 8.11726562 -18.75878906 7.58203125 C-15.20937708 5.54661624 -11.77757181 3.34022921 -8.36474609 1.08398438 C-5.31522818 -0.31389499 -3.32943627 -0.37523733 0 0 Z " fill="#E3750E" transform="translate(259,141)"></path><path d="M0 0 C2.80712891 1.21484375 2.80712891 1.21484375 5.7265625 2.9375 C6.82613281 3.576875 7.92570313 4.21625 9.05859375 4.875 C10.24745692 5.5832308 11.43625726 6.29156708 12.625 7 C13.87289531 7.7305394 15.12160903 8.45968241 16.37109375 9.1875 C18.96576999 10.70033826 21.55682424 12.2191194 24.14550781 13.7421875 C30.06464308 17.21805155 36.03430085 20.60485574 42 24 C48.62442452 27.77592667 55.2454029 31.55652552 61.83969116 35.38485718 C64.41606098 36.87983613 66.9953826 38.3696798 69.57495117 39.85913086 C70.80462993 40.57108407 72.03285493 41.28555488 73.25952148 42.00268555 C74.95968368 42.99642085 76.66528253 43.98083693 78.37109375 44.96484375 C79.33974365 45.5280835 80.30839355 46.09132324 81.30639648 46.67163086 C85.20624555 48.59486831 87.54681667 49.47776242 91.76391602 48.09130859 C92.75061279 47.61516113 93.73730957 47.13901367 94.75390625 46.6484375 C95.85669922 46.12636719 96.95949219 45.60429687 98.09570312 45.06640625 C99.23974609 44.50824219 100.38378906 43.95007813 101.5625 43.375 C103.81274591 42.29727115 106.06404428 41.22173694 108.31640625 40.1484375 C109.42000488 39.62217773 110.52360352 39.09591797 111.66064453 38.55371094 C125.74638592 32 125.74638592 32 129 32 C129 31.34 129 30.68 129 30 C128.29568848 29.73501709 127.59137695 29.47003418 126.86572266 29.19702148 C121.47356526 26.94470016 116.46642955 23.91704865 111.375 21.0625 C110.2303125 20.42892578 109.085625 19.79535156 107.90625 19.14257812 C106.81054688 18.52962891 105.71484375 17.91667969 104.5859375 17.28515625 C103.5861084 16.72707275 102.5862793 16.16898926 101.55615234 15.59399414 C99 14 99 14 96 11 C97.98 7.7 99.96 4.4 102 1 C106.07056001 2.24641611 109.57744611 3.73979318 113.23828125 5.90625 C114.70467041 6.76802856 114.70467041 6.76802856 116.20068359 7.6472168 C117.22758301 8.25863525 118.25448242 8.87005371 119.3125 9.5 C121.4570187 10.76694833 123.60155004 12.03387526 125.74609375 13.30078125 C126.8016748 13.92678223 127.85725586 14.5527832 128.94482422 15.19775391 C131.71462705 16.83165869 134.49542908 18.44339639 137.28515625 20.04296875 C138.45921021 20.71972656 138.45921021 20.71972656 139.65698242 21.41015625 C141.10101376 22.24176571 142.54767319 23.06883365 143.99731445 23.890625 C147.14718834 25.71806921 148.94552829 26.91829244 151 30 C151.24050903 32.14506531 151.24050903 32.14506531 151.22705078 34.6550293 C151.22689972 35.59577805 151.22674866 36.53652679 151.22659302 37.50578308 C151.21627045 38.51836685 151.20594788 39.53095062 151.1953125 40.57421875 C151.19106766 42.13267265 151.19106766 42.13267265 151.18673706 43.72261047 C151.17553282 47.04435697 151.15042764 50.36583485 151.125 53.6875 C151.11497052 55.93814715 151.10584462 58.18879852 151.09765625 60.43945312 C151.07559265 65.95973908 151.04106099 71.47982398 151 77 C146.71 77 142.42 77 138 77 C138 65.45 138 53.9 138 42 C135.17050781 43.28777344 132.34101563 44.57554687 129.42578125 45.90234375 C126.67935965 47.14798597 123.93212933 48.39182745 121.18481445 49.63549805 C119.27803642 50.49982845 117.37210278 51.3660242 115.46704102 52.23413086 C112.7263296 53.48263747 109.9826372 54.72437258 107.23828125 55.96484375 C106.38913651 56.35341049 105.53999176 56.74197723 104.66511536 57.14231873 C103.86466293 57.50261673 103.06421051 57.86291473 102.23950195 58.23413086 C101.54000931 58.55167831 100.84051666 58.86922577 100.11982727 59.19639587 C97.77029029 60.08708052 95.47173316 60.56910253 93 61 C93.00368717 61.54684039 93.00737434 62.09368078 93.01117325 62.65709209 C93.09955106 75.96938234 93.16546708 89.28162111 93.20724869 102.59414196 C93.22813273 109.03202932 93.25646597 115.46970511 93.30175781 121.9074707 C93.34518539 128.11904801 93.36913095 134.33042167 93.37950897 140.54213905 C93.38690581 142.91325398 93.40134989 145.28435763 93.42292023 147.65538597 C93.45191223 150.97387242 93.45595763 154.29151492 93.45410156 157.61010742 C93.46848267 158.59266006 93.48286377 159.57521271 93.49768066 160.58753967 C93.47139622 164.92404012 93.42748114 167.31699985 91.08421326 171.06091309 C89.21992311 172.79539041 87.50273267 174.2301884 85.33203125 175.55078125 C84.61668213 175.99349365 83.90133301 176.43620605 83.16430664 176.89233398 C82.00016235 177.59531616 82.00016235 177.59531616 80.8125 178.3125 C79.09831936 179.3713621 77.38481239 180.43131535 75.671875 181.4921875 C74.75599609 182.05647461 73.84011719 182.62076172 72.89648438 183.20214844 C67.75205516 186.39530224 62.65910789 189.66875976 57.5625 192.9375 C56.50047363 193.6176416 55.43844727 194.2977832 54.34423828 194.99853516 C47.77817872 199.20703323 41.22547237 203.43550921 34.6875 207.6875 C33.89496826 208.2026416 33.10243652 208.7177832 32.28588867 209.24853516 C27.97800091 212.05185079 23.67900535 214.86816372 19.38671875 217.6953125 C18.46479736 218.30028564 17.54287598 218.90525879 16.59301758 219.52856445 C14.8155991 220.69514999 13.04058816 221.86541409 11.26831055 223.03979492 C10.47593994 223.55904541 9.68356934 224.0782959 8.8671875 224.61328125 C8.16706543 225.07516846 7.46694336 225.53705566 6.74560547 226.01293945 C5 227 5 227 3 227 C3 241.19 3 255.38 3 270 C11.10713112 265.61951738 11.10713112 265.61951738 19.21240234 261.2355957 C25.7534965 257.70737226 32.32519008 254.26873015 39 251 C44 259.625 44 259.625 44 263 C42.2421875 263.9765625 40.484375 264.953125 38.7265625 265.9296875 C37.59951904 266.55617188 36.47247559 267.18265625 35.3112793 267.828125 C32.84555525 269.19815043 30.37812359 270.56503197 27.90942383 271.9296875 C22.37995073 274.98925593 16.86104372 278.05923294 11.41015625 281.2578125 C10.60046387 281.72719238 9.79077148 282.19657227 8.95654297 282.68017578 C7.48277149 283.53741794 6.01638615 284.40753346 4.55908203 285.29248047 C0.14266634 287.84020367 -2.10835566 288.23859545 -7 287 C-10.12109375 285.54467773 -10.12109375 285.54467773 -13.4375 283.68359375 C-14.34048828 283.18147118 -14.34048828 283.18147118 -15.26171875 282.66920471 C-17.17924371 281.6002384 -19.08958016 280.51910271 -21 279.4375 C-22.25085426 278.73813074 -23.5021535 278.03955673 -24.75390625 277.34179688 C-33.20340691 272.62154605 -41.6034489 267.81362372 -50 263 C-49.21258341 258.2009031 -47.50483074 255.12085057 -45 251 C-32.77930569 256.95673508 -20.88518449 263.39711973 -9 270 C-9 255.81 -9 241.62 -9 227 C-10.65 226.34 -12.3 225.68 -14 225 C-15.60735613 224.04666921 -17.18868878 223.04854469 -18.74609375 222.015625 C-19.65447998 221.41733887 -20.56286621 220.81905273 -21.4987793 220.20263672 C-22.46855713 219.5582666 -23.43833496 218.91389648 -24.4375 218.25 C-26.51492574 216.88175022 -28.59306844 215.51458847 -30.671875 214.1484375 C-31.72697266 213.45459961 -32.78207031 212.76076172 -33.86914062 212.04589844 C-38.61427062 208.94513507 -43.39852685 205.90744468 -48.1875 202.875 C-56.08372282 197.86824007 -63.94885073 192.81721156 -71.77587891 187.70288086 C-75.80785667 185.06883383 -79.84965657 182.45431298 -83.921875 179.8828125 C-84.70393311 179.38612061 -85.48599121 178.88942871 -86.29174805 178.37768555 C-87.76073875 177.44600334 -89.23334419 176.51998585 -90.71020508 175.60083008 C-91.36400146 175.18470459 -92.01779785 174.7685791 -92.69140625 174.33984375 C-93.54520874 173.80411743 -93.54520874 173.80411743 -94.41625977 173.25756836 C-97.01775016 171.19185586 -98.80093274 169.16657144 -99.36914349 165.83675003 C-99.36499542 164.6586986 -99.36499542 164.6586986 -99.36076355 163.45684814 C-99.36488754 162.551035 -99.36901154 161.64522186 -99.3732605 160.71195984 C-99.36247467 159.72581192 -99.35168884 158.739664 -99.34057617 157.72363281 C-99.34123329 156.15730858 -99.34123329 156.15730858 -99.34190369 154.55934143 C-99.3398133 151.10707924 -99.31646983 147.65530238 -99.29296875 144.203125 C-99.2873737 141.80987819 -99.28310317 139.41662794 -99.28010559 137.02337646 C-99.26864972 130.7235567 -99.23917587 124.42394434 -99.20599365 118.12420654 C-99.17530894 111.69611415 -99.16160366 105.26798826 -99.14648438 98.83984375 C-99.11430712 86.226474 -99.06367802 73.61324803 -99 61 C-99.59949431 60.80442851 -100.19898863 60.60885702 -100.81664944 60.40735912 C-101.61292279 60.14524796 -102.40919615 59.88313681 -103.229599 59.61308289 C-104.01471831 59.3556364 -104.79983763 59.09818991 -105.60874844 58.83294201 C-109.42028977 57.50527204 -113.07748805 55.86660209 -116.75390625 54.20703125 C-117.54022934 53.85613937 -118.32655243 53.5052475 -119.13670349 53.14372253 C-121.61376186 52.03727198 -124.08815451 50.92500203 -126.5625 49.8125 C-128.25568549 49.05494979 -129.94904341 48.29778483 -131.64257812 47.54101562 C-135.76406096 45.69915864 -139.88187717 43.84943087 -144 42 C-144 53.55 -144 65.1 -144 77 C-148.29 77 -152.58 77 -157 77 C-157.1236881 70.39810002 -157.21438303 63.79687584 -157.2746582 57.1940918 C-157.29978723 54.94852956 -157.33389615 52.703049 -157.37719727 50.45776367 C-157.43791776 47.22814782 -157.46622631 43.99961416 -157.48828125 40.76953125 C-157.51408768 39.76727005 -157.5398941 38.76500885 -157.56648254 37.7323761 C-157.56927413 30.77956522 -157.56927413 30.77956522 -154.85205078 27.05859375 C-151.9277876 24.94787751 -149.02534984 23.05755586 -145.87890625 21.29296875 C-145.29769516 20.96388016 -144.71648407 20.63479156 -144.11766052 20.29573059 C-142.27018069 19.25190009 -140.41663167 18.21945948 -138.5625 17.1875 C-137.35438712 16.50792637 -136.14670151 15.82759259 -134.93945312 15.14648438 C-133.13054274 14.12607104 -131.32062457 13.10781853 -129.5062561 12.09713745 C-126.33585369 10.329713 -123.19127039 8.52972932 -120.07373047 6.67041016 C-119.43717026 6.29451248 -118.80061005 5.91861481 -118.14476013 5.53132629 C-116.92514145 4.80928947 -115.710239 4.07920939 -114.50086975 3.34013367 C-113.04364867 2.48231897 -111.52451738 1.73156415 -110 1 C-107 2 -107 2 -105.61328125 4.28515625 C-105.18402344 5.20167969 -104.75476563 6.11820313 -104.3125 7.0625 C-103.87550781 7.98160156 -103.43851563 8.90070313 -102.98828125 9.84765625 C-102.49908203 10.91306641 -102.49908203 10.91306641 -102 12 C-105.89367757 14.24622034 -109.78981161 16.48810081 -113.68823242 18.72607422 C-115.01280167 19.48726886 -116.33670447 20.24962449 -117.65991211 21.01318359 C-119.56708566 22.11344844 -121.47665387 23.20945152 -123.38671875 24.3046875 C-123.97337814 24.6443454 -124.56003754 24.9840033 -125.16447449 25.33395386 C-128.36570767 27.16359992 -131.5395075 28.72463421 -135 30 C-135 30.66 -135 31.32 -135 32 C-133.83984375 32.34546875 -132.6796875 32.6909375 -131.484375 33.046875 C-127.0199813 34.53267557 -122.7755278 36.40556203 -118.515625 38.390625 C-117.84760864 38.70084595 -117.17959229 39.01106689 -116.49133301 39.33068848 C-113.69909378 40.63114942 -110.90945694 41.9365797 -108.12744141 43.25878906 C-106.07480312 44.23161694 -104.01484451 45.18722687 -101.953125 46.140625 C-101.32907776 46.44260803 -100.70503052 46.74459106 -100.06207275 47.0557251 C-96.27440502 48.7898738 -93.95795232 49.40304933 -90 48 C-87.46099872 46.83322107 -87.46099872 46.83322107 -84.88671875 45.33203125 C-83.89865234 44.77580078 -82.91058594 44.21957031 -81.89257812 43.64648438 C-80.30606445 42.73866211 -80.30606445 42.73866211 -78.6875 41.8125 C-77.57955078 41.18537109 -76.47160156 40.55824219 -75.33007812 39.91210938 C-66.86263711 35.10444718 -58.45151557 30.20095207 -50.05493164 25.27075195 C-41.61723643 20.32719646 -33.09889693 15.53565096 -24.546875 10.79296875 C-23.57492188 10.25285156 -22.60296875 9.71273437 -21.6015625 9.15625 C-20.66344727 8.63675781 -19.72533203 8.11726562 -18.75878906 7.58203125 C-15.20937708 5.54661624 -11.77757181 3.34022921 -8.36474609 1.08398438 C-5.31522818 -0.31389499 -3.32943627 -0.37523733 0 0 Z M-9.76171875 16.5703125 C-10.70273438 17.12976563 -11.64375 17.68921875 -12.61328125 18.265625 C-13.62777344 18.87921875 -14.64226562 19.4928125 -15.6875 20.125 C-17.86731451 21.42124892 -20.04834188 22.71546004 -22.23046875 24.0078125 C-23.35243652 24.67329102 -24.4744043 25.33876953 -25.63037109 26.02441406 C-30.87445425 29.09897724 -36.1848594 32.05054569 -41.5 35 C-50.07036562 39.77083237 -58.58982759 44.62010776 -67.0625 49.5625 C-68.53396484 50.42004883 -68.53396484 50.42004883 -70.03515625 51.29492188 C-72.69677522 52.85307798 -75.35613546 54.41187416 -78 56 C-78.65168404 56.30011364 -79.30336807 56.60022728 -79.97480011 56.90943527 C-84.29332264 59.08901367 -84.29332264 59.08901367 -86.77015591 63.05583096 C-87.09378999 65.65366589 -87.16102706 68.15408874 -87.14624023 70.7722168 C-87.17150284 71.7517482 -87.19676544 72.7312796 -87.22279358 73.74049377 C-87.29366445 76.97760525 -87.30444545 80.21137825 -87.30859375 83.44921875 C-87.33176851 85.7049955 -87.35628874 87.96075879 -87.38209534 90.21650696 C-87.4254869 94.94699834 -87.43630995 99.67631404 -87.42749023 104.40698242 C-87.42109643 110.45420559 -87.5197749 116.49459598 -87.64646816 122.54030132 C-87.7281615 127.20165185 -87.74094875 131.86136913 -87.73466682 136.52335548 C-87.74223507 138.75096693 -87.77385515 140.97863693 -87.83047295 143.20554161 C-88.52162745 154.61718772 -88.52162745 154.61718772 -84.54586792 164.886343 C-81.05566873 168.0648537 -77.16986576 170.17418958 -72.88921165 172.10493088 C-69.95342735 173.49584432 -67.35940793 175.27995025 -64.6640625 177.08984375 C-62.65190711 178.37375317 -60.6388783 179.65629474 -58.625 180.9375 C-56.43989043 182.33169632 -54.25499485 183.72622807 -52.0703125 185.12109375 C-51.02649414 185.78737793 -49.98267578 186.45366211 -48.90722656 187.14013672 C-45.75168677 189.15885541 -42.60374484 191.18880658 -39.46142578 193.22802734 C-38.16195567 194.07072579 -36.86086453 194.9109302 -35.55810547 195.74853516 C-31.7729016 198.18470303 -28.0141151 200.6552937 -24.27661133 203.16421509 C-22.00749968 204.68262326 -19.72847816 206.18574707 -17.44799805 207.68701172 C-15.7777155 208.79412926 -14.12015725 209.92036696 -12.46289062 211.046875 C-11.43873047 211.71847656 -10.41457031 212.39007813 -9.359375 213.08203125 C-8.44639648 213.69280518 -7.53341797 214.3035791 -6.59277344 214.93286133 C-4.03239685 216.29234196 -4.03239685 216.29234196 -1.37036133 215.30273438 C1.84425358 213.53600401 4.96951615 211.65671131 8.0625 209.6875 C8.75802979 209.24873535 9.45355957 208.8099707 10.17016602 208.35791016 C16.461453 204.37474733 22.70211267 200.31345384 28.93725586 196.24316406 C36.77028187 191.13321989 44.64956041 186.0969187 52.54467773 181.08349609 C54.49196743 179.84238065 56.4248541 178.57835902 58.3421936 177.29145813 C60.97856773 175.57077601 63.66755805 174.15736332 66.49668884 172.77912903 C75.26550939 168.27575202 75.26550939 168.27575202 81.04571533 160.62483025 C82.70619294 153.77772909 82.39698366 146.79127799 82.21484375 139.796875 C82.21427037 137.54631924 82.21979067 135.2957545 82.23109436 133.04522705 C82.23505349 128.34603695 82.17698112 123.6530674 82.07202148 118.95507812 C81.94113828 112.94465215 81.94868874 106.94406865 82.00032711 100.9327507 C82.02792232 96.29241179 81.99120478 91.65432593 81.93429756 87.01432037 C81.9131222 84.79932629 81.90969541 82.58408616 81.92466545 80.36904144 C82.44379657 69.31738236 82.44379657 69.31738236 78.72915459 59.31842422 C75.25970553 56.21989892 71.32686936 54.65232804 67 53 C65.01860886 51.91243022 63.05064262 50.79953154 61.10546875 49.6484375 C59.13400386 48.55514061 57.16131378 47.46405055 55.1875 46.375 C46.61352369 41.60916336 38.09108834 36.76752496 29.625 31.8125 C28.64136475 31.23790039 27.65772949 30.66330078 26.64428711 30.07128906 C21.89019366 27.29045105 17.14606545 24.49404495 12.4140625 21.67578125 C11.54056152 21.15975342 10.66706055 20.64372559 9.76708984 20.11206055 C8.13549509 19.14813779 6.50792822 18.17735129 4.88525391 17.19848633 C4.16515137 16.77462646 3.44504883 16.3507666 2.703125 15.9140625 C2.08083008 15.5423291 1.45853516 15.1705957 0.81738281 14.78759766 C-3.42347889 12.949739 -6.13098576 14.38230415 -9.76171875 16.5703125 Z " fill="#FEFCFA" transform="translate(259,141)"></path><path d="M0 0 C3.08032227 1.59814453 3.08032227 1.59814453 6.31640625 3.6328125 C7.50440975 4.36352119 8.69256534 5.09398264 9.88085938 5.82421875 C11.72928869 6.97607067 13.57456868 8.13261145 15.41674805 9.29443359 C17.2091299 10.41987713 19.01185649 11.52701975 20.81640625 12.6328125 C21.88318604 13.30199707 22.94996582 13.97118164 24.04907227 14.66064453 C27.41596597 16.188797 28.56685101 16.19912649 32 15 C33.56976122 14.36191668 35.11869454 13.6705625 36.64453125 12.93359375 C37.90620117 12.3293457 37.90620117 12.3293457 39.19335938 11.71289062 C40.05767578 11.29201172 40.92199219 10.87113281 41.8125 10.4375 C42.69615234 10.01275391 43.57980469 9.58800781 44.49023438 9.15039062 C46.66264337 8.10528576 48.83239957 7.05503238 51 6 C51.86627399 7.59766103 52.71766465 9.20339944 53.5625 10.8125 C54.03816406 11.70582031 54.51382813 12.59914062 55.00390625 13.51953125 C56 16 56 16 55 19 C53.05053711 20.25854492 53.05053711 20.25854492 50.52734375 21.48046875 C49.17866211 22.14272461 49.17866211 22.14272461 47.80273438 22.81835938 C46.38444336 23.49608398 46.38444336 23.49608398 44.9375 24.1875 C43.98810547 24.65091797 43.03871094 25.11433594 42.06054688 25.59179688 C39.71124969 26.73693168 37.35779635 27.87249578 35 29 C34.9906543 30.09989258 34.98130859 31.19978516 34.97167969 32.33300781 C34.93177063 36.41854166 34.86600996 40.50332319 34.79248047 44.58837891 C34.76427603 46.35553311 34.74305882 48.12281334 34.72900391 49.89013672 C34.70756642 52.43262222 34.66091497 54.97359338 34.609375 57.515625 C34.60814636 58.30430969 34.60691772 59.09299438 34.60565186 59.90557861 C34.5154334 63.29342428 34.3230339 65.53927559 32.35327148 68.34863281 C29.58945122 70.28809544 26.84478758 71.58029941 23.73828125 72.90625 C10.32933797 78.63306989 10.32933797 78.63306989 1.640625 89.48828125 C0.24836747 97.73146453 0.91718745 105.75441136 2 114 C-1.96 114 -5.92 114 -10 114 C-9.73574219 112.17597656 -9.47148437 110.35195313 -9.19921875 108.47265625 C-8.51104717 100.71706338 -7.97467263 93.3209691 -11 86 C-17.4171961 78.4219132 -28.22182198 74.3089247 -37.12670898 70.45678711 C-40 69 -40 69 -42 66 C-42.24097687 63.17562556 -42.3729132 60.44122826 -42.4140625 57.61328125 C-42.43342865 56.79627243 -42.4527948 55.97926361 -42.4727478 55.13749695 C-42.53250352 52.52927066 -42.57891258 49.92100014 -42.625 47.3125 C-42.6631835 45.5436006 -42.70223546 43.77471972 -42.7421875 42.00585938 C-42.83820168 37.67072341 -42.92224735 33.3355004 -43 29 C-43.90093384 28.56917114 -43.90093384 28.56917114 -44.82006836 28.12963867 C-47.53104317 26.82602778 -50.23423389 25.50701686 -52.9375 24.1875 C-54.35579102 23.50977539 -54.35579102 23.50977539 -55.80273438 22.81835938 C-56.70185547 22.37685547 -57.60097656 21.93535156 -58.52734375 21.48046875 C-59.35999756 21.07723389 -60.19265137 20.67399902 -61.05053711 20.25854492 C-63 19 -63 19 -64 16 C-63.00390625 13.73828125 -63.00390625 13.73828125 -61.5625 11.3125 C-61.08941406 10.50425781 -60.61632812 9.69601563 -60.12890625 8.86328125 C-59.57009766 7.94095703 -59.57009766 7.94095703 -59 7 C-53.35333294 7.68377609 -48.78240675 10.59005605 -43.8828125 13.29296875 C-43.19960937 13.65261719 -42.51640625 14.01226562 -41.8125 14.3828125 C-40.89404297 14.88385498 -40.89404297 14.88385498 -39.95703125 15.39501953 C-37.23121165 16.23765688 -35.72214012 15.85124913 -33 15 C-30.89789407 13.86155494 -28.83960108 12.64060384 -26.81640625 11.3671875 C-25.62988682 10.63618361 -24.44302731 9.90573147 -23.25585938 9.17578125 C-21.40404544 8.02580308 -19.55587414 6.87080907 -17.71362305 5.70556641 C-15.92346493 4.5776261 -14.12129257 3.47135879 -12.31640625 2.3671875 C-11.24849854 1.69800293 -10.18059082 1.02881836 -9.08032227 0.33935547 C-5.36718777 -1.2751532 -3.8363232 -1.198851 0 0 Z " fill="#FEFDFB" transform="translate(260,212)"></path><path d="M0 0 C0.85376221 0.30115723 1.70752441 0.60231445 2.5871582 0.91259766 C9.96277713 3.63457596 16.95546075 6.79168262 22 13 C26.07464641 23.03979451 26.16098299 34.98470417 22 45 C15.95661514 52.25015012 6.23640402 57.92820959 -3 60 C-5.54101562 59.2421875 -5.54101562 59.2421875 -8 58 C-8.85376221 57.69884277 -9.70752441 57.39768555 -10.5871582 57.08740234 C-17.96277713 54.36542404 -24.95546075 51.20831738 -30 45 C-34.07464641 34.96020549 -34.16098299 23.01529583 -30 13 C-23.80299518 5.56555452 -9.76054283 -4.93066342 0 0 Z " fill="#E47610" transform="translate(260,227)"></path><path d="M0 0 C1.09441406 0.61415771 2.18882812 1.22831543 3.31640625 1.86108398 C3.91839844 2.19583237 4.52039063 2.53058075 5.140625 2.87547302 C7.05814996 3.94443933 8.96848641 5.02557502 10.87890625 6.10717773 C12.12976051 6.80654699 13.38105975 7.50512101 14.6328125 8.20288086 C23.08231316 12.92313169 31.48235515 17.73105401 39.87890625 22.54467773 C39.09148966 27.34377463 37.38373699 30.42382717 34.87890625 34.54467773 C32.72807327 33.51253434 30.5831023 32.47056563 28.44140625 31.41967773 C27.74998535 31.08145996 27.05856445 30.74324219 26.34619141 30.39477539 C21.61471375 28.03463896 17.02441226 25.49723003 12.4609375 22.82592773 C11.35355225 22.18284668 10.24616699 21.53976563 9.10522461 20.87719727 C6.88898471 19.58268197 4.68247027 18.27135609 2.48657227 16.94262695 C1.45846436 16.34466309 0.43035645 15.74669922 -0.62890625 15.13061523 C-1.5430127 14.58453613 -2.45711914 14.03845703 -3.39892578 13.47583008 C-7.04600593 12.2282997 -8.65069963 12.98707014 -12.12109375 14.54467773 C-13.85467233 15.42776872 -15.56368699 16.36058361 -17.24609375 17.33764648 C-18.19411865 17.88267822 -19.14214355 18.42770996 -20.11889648 18.98925781 C-21.10962158 19.56442139 -22.10034668 20.13958496 -23.12109375 20.73217773 C-31.66943157 25.63638453 -40.24838661 30.25786417 -49.12109375 34.54467773 C-51.10109375 30.91467773 -53.08109375 27.28467773 -55.12109375 23.54467773 C-47.37106904 18.82758838 -39.49973992 14.36807814 -31.55859375 9.98217773 C-30.37946728 9.32934549 -29.20043044 8.67635133 -28.02148438 8.02319336 C-25.75389278 6.76739474 -23.48364407 5.51637909 -21.21044922 4.27075195 C-19.28272047 3.19369788 -17.37167133 2.08551575 -15.48876953 0.93188477 C-14.33417236 0.23168213 -14.33417236 0.23168213 -13.15625 -0.48266602 C-12.51179932 -0.89121826 -11.86734863 -1.29977051 -11.20336914 -1.72070312 C-7.10902051 -3.16517434 -3.79318505 -1.76870902 0 0 Z " fill="#FEFCF9" transform="translate(263.12109375,85.455322265625)"></path><path d="M0 0 C4.29 0 8.58 0 13 0 C13.1236881 6.60189998 13.21438303 13.20312416 13.2746582 19.8059082 C13.29978723 22.05147044 13.33389615 24.296951 13.37719727 26.54223633 C13.43791776 29.77185218 13.46622631 33.00038584 13.48828125 36.23046875 C13.51408768 37.23272995 13.5398941 38.23499115 13.56648254 39.2676239 C13.56927413 46.22043478 13.56927413 46.22043478 10.85205078 49.94140625 C7.9277876 52.05212249 5.02534984 53.94244414 1.87890625 55.70703125 C1.00708961 56.20066414 1.00708961 56.20066414 0.11766052 56.70426941 C-1.72981931 57.74809991 -3.58336833 58.78054052 -5.4375 59.8125 C-6.64561288 60.49207363 -7.85329849 61.17240741 -9.06054688 61.85351562 C-10.86934743 62.8734857 -12.67891307 63.89191505 -14.49154663 64.90505981 C-17.66259393 66.67749013 -20.82045598 68.46914912 -23.96142578 70.29443359 C-24.60249771 70.66581955 -25.24356964 71.03720551 -25.90406799 71.41984558 C-27.13380369 72.13364272 -28.36154982 72.85088146 -29.58702087 73.57197571 C-33.77790304 76 -33.77790304 76 -36 76 C-37.98 72.37 -39.96 68.74 -42 65 C-41.21463867 64.55197021 -40.42927734 64.10394043 -39.62011719 63.64233398 C-36.64524653 61.94487436 -33.67067451 60.24689358 -30.69628906 58.54858398 C-29.42036264 57.82019197 -28.14432491 57.09199489 -26.86816406 56.36401367 C-25.01075825 55.30441485 -23.15378168 54.244067 -21.296875 53.18359375 C-20.68598022 52.83525482 -20.07508545 52.48691589 -19.44567871 52.12802124 C-16.4405543 50.41088569 -13.4461902 48.6787072 -10.47070312 46.91064453 C-9.39240234 46.2711084 -8.31410156 45.63157227 -7.203125 44.97265625 C-6.24567383 44.399104 -5.28822266 43.82555176 -4.30175781 43.23461914 C-2 42 -2 42 0 42 C0 28.14 0 14.28 0 0 Z " fill="#FEFBF7" transform="translate(397,294)"></path><path d="M0 0 C4.29 0 8.58 0 13 0 C13 13.86 13 27.72 13 42 C14.65 42.66 16.3 43.32 18 44 C20.02929279 45.06037283 22.04248495 46.15185468 24.04296875 47.265625 C24.89572136 47.73944611 24.89572136 47.73944611 25.76570129 48.22283936 C26.96576544 48.89046932 28.16502702 49.55954374 29.36352539 50.22998047 C31.16294133 51.23626608 32.96501238 52.23765116 34.76757812 53.23828125 C41.58973293 57.03514261 48.32892654 60.94318102 55 65 C53.02 68.63 51.04 72.26 49 76 C45.75490089 74.70196035 42.92688113 73.50658014 39.91015625 71.85546875 C39.13591309 71.43201172 38.36166992 71.00855469 37.56396484 70.57226562 C36.32573975 69.88680664 36.32573975 69.88680664 35.0625 69.1875 C34.20092285 68.71119141 33.3393457 68.23488281 32.45166016 67.74414062 C25.54918476 63.90461546 18.69563401 59.98297111 11.875 56 C10.44426147 55.17278442 10.44426147 55.17278442 8.98461914 54.32885742 C8.1002417 53.80783447 7.21586426 53.28681152 6.3046875 52.75 C5.52077637 52.29109375 4.73686523 51.8321875 3.92919922 51.359375 C2 50 2 50 0 47 C-0.24050903 44.85493469 -0.24050903 44.85493469 -0.22705078 42.3449707 C-0.22689972 41.40422195 -0.22674866 40.46347321 -0.22659302 39.49421692 C-0.21627045 38.48163315 -0.20594788 37.46904938 -0.1953125 36.42578125 C-0.1924826 35.38681198 -0.18965271 34.34784271 -0.18673706 33.27738953 C-0.17553282 29.95564303 -0.15042764 26.63416515 -0.125 23.3125 C-0.11497052 21.06185285 -0.10584462 18.81120148 -0.09765625 16.56054688 C-0.07559265 11.04026092 -0.04106099 5.52017602 0 0 Z " fill="#FDFAF8" transform="translate(102,294)"></path></svg>