<svg version="1.1" xmlns="http://www.w3.org/2000/svg" width="16px" height="16px" fill="currentColor" viewBox="0 0 512 512"><path d="M0 0 C168.96 0 337.92 0 512 0 C512 168.96 512 337.92 512 512 C343.04 512 174.08 512 0 512 C0 343.04 0 174.08 0 0 Z " fill="#7645D3" transform="translate(0,0)"></path><path d="M0 0 C0.70705078 0.00491455 1.41410156 0.0098291 2.14257812 0.01489258 C14.12229055 0.28303352 23.1449082 5.54915692 31.359375 14.0546875 C39.38581002 23.96767776 40.18317386 35.06598279 39.1875 47.3125 C37.78950312 54.16667899 34.9497069 59.30755585 30.26171875 64.4609375 C28.98047477 66.26138848 28.98047477 66.26138848 29.36767578 68.41601562 C30.49343151 72.39337296 32.32004992 75.85391203 34.23046875 79.5078125 C34.83958855 80.68994827 34.83958855 80.68994827 35.46101379 81.89596558 C36.75989258 84.41284917 38.06744945 86.92511263 39.375 89.4375 C40.23556723 91.10388729 41.09559865 92.77055141 41.95507812 94.4375 C46.26699111 102.78428019 50.62697179 111.09825566 55.1875 119.3125 C56.07050781 119.05855469 56.95351563 118.80460937 57.86328125 118.54296875 C63.7161631 116.86443013 69.57044553 115.19093876 75.4375 113.5625 C76.30890625 113.32015625 77.1803125 113.0778125 78.078125 112.828125 C80.1875 112.3125 80.1875 112.3125 82.1875 112.3125 C82.14109375 111.20132813 82.0946875 110.09015625 82.046875 108.9453125 C81.65069769 95.55662831 83.7445398 86.37340442 93.1875 76.3125 C95.69227909 73.97435902 98.25863986 72.0870764 101.1875 70.3125 C101.85652344 69.89871094 102.52554687 69.48492187 103.21484375 69.05859375 C112.37974285 64.43587663 125.22287395 64.48109011 134.90234375 67.453125 C137.8708577 68.87561592 140.49699833 70.42128698 143.1875 72.3125 C143.8578125 72.75722656 144.528125 73.20195312 145.21875 73.66015625 C152.04347752 78.7936684 157.04285095 87.12843831 159.1875 95.3125 C160.34599899 107.32430534 159.35409408 118.02730254 152.16796875 128.16015625 C147.54920776 133.65251826 142.77193515 137.48073243 136.1875 140.3125 C135.49140625 140.62960938 134.7953125 140.94671875 134.078125 141.2734375 C125.1210445 144.83665565 115.2468361 144.15464466 106.1875 141.3125 C105.94402832 142.1576416 105.70055664 143.0027832 105.44970703 143.87353516 C104.05300307 147.67894561 102.12678078 150.91950958 99.9921875 154.3359375 C98.76537142 156.40570883 97.54984574 158.4818838 96.33398438 160.55810547 C95.48940937 161.97254156 94.62380412 163.37463934 93.73730469 164.76318359 C88.540116 172.53202323 88.540116 172.53202323 87.56726074 181.46569824 C89.11854264 185.88658864 91.47907712 189.75824032 94.07769775 193.63604736 C95.46338318 195.72924549 96.59748625 197.9122161 97.71875 200.15625 C98.37274889 201.37620946 99.02883665 202.59505258 99.6875 203.8125 C100.03296875 204.45574219 100.3784375 205.09898437 100.734375 205.76171875 C101.55003316 207.27974921 102.36841268 208.79631708 103.1875 210.3125 C106.20162537 210.48024308 106.20162537 210.48024308 108.9296875 209.3359375 C118.87983532 206.21011168 129.90484975 207.90392569 139.1875 212.3125 C148.09447181 217.48527744 154.63149028 225.23549944 158.3046875 234.83203125 C160.87240549 244.9552026 160.57300913 256.18054973 155.1875 265.3125 C149.07079825 275.1933259 140.60363426 282.47416519 129.1875 285.3125 C119.83788457 286.48623373 110.31186202 286.57051407 102.1875 281.3125 C101.176875 280.735 100.16625 280.1575 99.125 279.5625 C90.45617293 272.92254735 84.28383128 265.31823921 82.1875 254.3125 C82.12201508 252.73038427 82.10171619 251.14579919 82.125 249.5625 C82.13402344 248.76328125 82.14304687 247.9640625 82.15234375 247.140625 C82.16974609 246.23570312 82.16974609 246.23570312 82.1875 245.3125 C81.20136719 245.20035156 80.21523438 245.08820313 79.19921875 244.97265625 C74.96467155 244.36832998 71.04559481 243.10612896 67 241.75 C62.94470857 240.39074719 59.53084591 239.3125 55.1875 239.3125 C54.71965088 240.22314209 54.25180176 241.13378418 53.76977539 242.07202148 C51.99221683 245.53133309 50.2129292 248.98975362 48.43353271 252.44812012 C47.25525725 254.73977506 46.07896622 257.03244083 44.90283203 259.32519531 C38.34761222 272.08675624 38.34761222 272.08675624 35.01953125 278.11328125 C34.59212646 278.8906665 34.16472168 279.66805176 33.72436523 280.46899414 C32.97449245 281.82015176 32.21305407 283.16498514 31.43774414 284.50170898 C29.92666561 287.2304124 29.16420135 288.9508644 29.3671875 292.1015625 C30.09724234 294.43925787 30.09724234 294.43925787 31.9375 296.4375 C39.12769375 305.62496979 40.44062479 314.85942441 39.46533203 326.19873047 C38.05511322 336.92779414 31.45948242 345.40809269 23.109375 351.9375 C21.18308648 353.2115806 19.25448888 354.28526916 17.1875 355.3125 C16.0325 355.910625 14.8775 356.50875 13.6875 357.125 C4.70018493 360.20940399 -6.75329388 359.32130127 -15.35546875 355.6328125 C-25.0016174 350.44934947 -32.33404524 342.92149643 -36.25 332.625 C-39.43884756 321.77463558 -38.74469972 311.48291184 -33.8125 301.3125 C-33.1525 300.3225 -32.4925 299.3325 -31.8125 298.3125 C-31.92122919 293.1931674 -35.15388831 289.58427347 -38.0625 285.625 C-38.59246582 284.88967041 -39.12243164 284.15434082 -39.66845703 283.39672852 C-40.79582067 281.8344303 -41.92694934 280.27484315 -43.06152344 278.71777344 C-44.81369829 276.31085394 -46.55308996 273.8951879 -48.2890625 271.4765625 C-53.39623392 264.36983064 -58.53948709 257.29742342 -63.8125 250.3125 C-67.22083218 251.63931503 -70.51439784 253.10883525 -73.8125 254.6875 C-94.71419633 264.2216071 -118.04024119 265.15523121 -139.65673828 257.36279297 C-163.06042936 248.3023325 -177.79849999 230.6071197 -187.8125 208.3125 C-195.89795563 189.66703648 -194.54122024 167.4184914 -187.45703125 148.73828125 C-177.4782829 126.13226958 -160.93930802 109.76153485 -138.20703125 100.21875 C-116.2548767 92.44807582 -91.94189234 95.00161485 -71.17578125 104.69140625 C-68.71053137 105.87965097 -66.25792639 107.08461642 -63.8125 108.3125 C-63.48677002 107.86148926 -63.16104004 107.41047852 -62.82543945 106.94580078 C-62.36355225 106.30626465 -61.90166504 105.66672852 -61.42578125 105.0078125 C-60.9057251 104.28770996 -60.38566895 103.56760742 -59.84985352 102.82568359 C-58.6876762 101.21656562 -57.52540208 99.60751757 -56.36303711 97.99853516 C-53.32832725 93.79750785 -50.29510688 89.59542426 -47.265625 85.390625 C-46.69674561 84.60155762 -46.12786621 83.81249023 -45.54174805 82.99951172 C-44.46187528 81.50157777 -43.38257445 80.00323127 -42.30395508 78.50439453 C-41.80275146 77.80942871 -41.30154785 77.11446289 -40.78515625 76.3984375 C-40.30191895 75.72264648 -39.81868164 75.04685547 -39.32080078 74.35058594 C-38.27309215 72.93487347 -37.18454758 71.54884525 -36.06591797 70.18847656 C-32.74987053 66.37368927 -32.74987053 66.37368927 -31.8125 61.62890625 C-32.1425 60.86449219 -32.4725 60.10007813 -32.8125 59.3125 C-33.121875 58.47589844 -33.43125 57.63929688 -33.75 56.77734375 C-34.100625 55.94332031 -34.45125 55.10929687 -34.8125 54.25 C-38.85402402 44.60680481 -39.61648772 33.91301385 -35.875 24 C-30.64347125 13.08138802 -22.13440907 5.67593825 -11 1.17578125 C-7.29467002 0.17225438 -3.81035447 -0.03126956 0 0 Z " fill="#FCFBFE" transform="translate(275.8125,76.6875)"></path><path d="M0 0 C1.08925781 -0.00773438 2.17851562 -0.01546875 3.30078125 -0.0234375 C20.52871619 0.01822619 37.05856148 6.94046545 49.828125 18.5546875 C63.7577193 32.67955649 71.7296461 50.46894638 72 70.3125 C71.74494785 89.01698862 64.2856311 106.60351724 51.09375 119.765625 C50.2378125 120.58546875 49.381875 121.4053125 48.5 122.25 C47.8709375 122.86359375 47.241875 123.4771875 46.59375 124.109375 C31.05088876 138.33255935 11.61553696 141.2520015 -8.62988281 140.4765625 C-24.41705368 139.23034826 -40.35042559 130.3395769 -50.87353516 118.73535156 C-65.56865883 101.47975375 -71.25104217 81.68094796 -69.5 59.25 C-66.36252687 40.91657266 -56.15757722 24.56076376 -41.5 13.25 C-28.38760322 4.24587039 -15.83596653 -0.11244473 0 0 Z " fill="#6F41CC" transform="translate(165.5,185.75)"></path><path d="M0 0 C1.51327134 2.35132676 2.75064666 4.57154888 3.96875 7.0703125 C4.33093628 7.78476532 4.69312256 8.49921814 5.06628418 9.23532104 C6.22398058 11.5255479 7.36237917 13.82474512 8.5 16.125 C9.64168087 18.40160337 10.78722089 20.67622672 11.93371582 22.95040894 C12.64535644 24.36547832 13.35350348 25.78231216 14.05749512 27.20120239 C15.68503799 30.4694652 17.36898975 33.65156999 19.24194336 36.78662109 C21 40 21 40 21.09765625 43.28125 C19.57200854 48.44999241 17.10334614 52.83598027 14.4375 57.5 C13.34706421 59.45018992 12.25722312 61.40071247 11.16796875 63.3515625 C10.63091309 64.30579102 10.09385742 65.26001953 9.54052734 66.24316406 C7.38970243 70.09215216 5.31240698 73.97811352 3.25 77.875 C2.91540771 78.50470703 2.58081543 79.13441406 2.23608398 79.78320312 C1.48962022 81.18821693 0.74460927 82.5940025 0 84 C-6.32309266 83.42322216 -11.90312719 81.93770669 -17.9140625 79.93359375 C-19.87117541 79.29596326 -21.82854257 78.65911275 -23.78613281 78.02294922 C-24.80292114 77.69059265 -25.81970947 77.35823608 -26.86730957 77.01580811 C-32.11475387 75.31426862 -37.3817376 73.6759238 -42.6484375 72.03515625 C-44.76433236 71.3743792 -46.88021777 70.71357189 -48.99609375 70.05273438 C-51.12239173 69.38930976 -53.24869386 68.72589845 -55.375 68.0625 C-57.58725655 67.37179914 -59.79949621 66.68104417 -62.01171875 65.99023438 C-67.34095233 64.32620255 -72.67038991 62.66282552 -78 61 C-77.99476318 60.06728271 -77.98952637 59.13456543 -77.98413086 58.17358398 C-77.96700698 54.68659843 -77.95451007 51.1996581 -77.94506836 47.71264648 C-77.94006445 46.2084075 -77.93325927 44.70417332 -77.92456055 43.19995117 C-77.91232116 41.02781991 -77.90673214 38.85575341 -77.90234375 36.68359375 C-77.89448853 34.72764282 -77.89448853 34.72764282 -77.88647461 32.73217773 C-77.99854025 29.04798967 -78.40625214 25.63028534 -79 22 C-60.04957158 15.83911418 -41.08910995 9.72059916 -22 4 C-21.07687012 3.72220703 -20.15374023 3.44441406 -19.20263672 3.15820312 C-16.68030859 2.40504948 -14.1540925 1.66757147 -11.625 0.9375 C-10.89949951 0.7211792 -10.17399902 0.5048584 -9.42651367 0.28198242 C-3.09711943 -1.50173501 -3.09711943 -1.50173501 0 0 Z " fill="#7B4AD7" transform="translate(326,214)"></path><path d="M0 0 C6.03988633 0.63534323 11.49411521 2.29045019 17.25 4.1875 C19.21997251 4.82576649 21.19002601 5.46378305 23.16015625 6.1015625 C24.14258301 6.42157227 25.12500977 6.74158203 26.13720703 7.07128906 C30.31304249 8.42596057 34.49966461 9.74549312 38.6875 11.0625 C40.23049823 11.54938575 41.773467 12.03636488 43.31640625 12.5234375 C46.57380784 13.55078772 49.83173141 14.57646876 53.08984375 15.6015625 C53.93264893 15.86702881 54.7754541 16.13249512 55.64379883 16.40600586 C57.23588297 16.90745832 58.82815211 17.40832401 60.4206543 17.90844727 C65.63256514 19.55065071 70.82076418 21.25756036 76 23 C74.34104542 27.42852882 72.24595556 31.56425021 70.078125 35.7578125 C69.69565613 36.50151093 69.31318726 37.24520935 68.91912842 38.01144409 C68.10992521 39.58370613 67.29961884 41.15540081 66.48828125 42.7265625 C65.26550751 45.09496337 64.04652756 47.46528552 62.828125 49.8359375 C58.65233434 57.94756763 54.42975402 66.02337568 50 74 C48.515 73.505 48.515 73.505 47 73 C37.26838779 70.58878058 26.16356042 70.8811213 17 75 C15.33464728 75.66994218 13.66825159 76.33730939 12 77 C5.27926584 68.14626688 -1.30664464 59.22196692 -7.68164062 50.11572266 C-11.99002733 43.97498423 -16.44975348 37.96358067 -21 32 C-20.34 30.68 -19.68 29.36 -19 28 C-18.34 28 -17.68 28 -17 28 C-16.74605469 27.43023437 -16.49210938 26.86046875 -16.23046875 26.2734375 C-14.85384171 23.72995515 -13.20847668 21.80779437 -11.3125 19.625 C-6.39181779 13.6158305 -3.23092182 7.00706169 0 0 Z " fill="#7243CE" transform="translate(243,287)"></path><path d="M0 0 C0.65742188 0.3609375 1.31484375 0.721875 1.9921875 1.09375 C8.51759081 4.27687357 14.07875676 5.47312613 21.25 5.4375 C22.36544189 5.43363281 22.36544189 5.43363281 23.50341797 5.4296875 C28.59879042 5.29396171 33.07115743 4.29025773 38 3 C38.50861572 3.99217529 39.01723145 4.98435059 39.54125977 6.0065918 C41.46148466 9.75157566 43.38345618 13.49566095 45.3059082 17.23950195 C46.13156679 18.84798819 46.95677592 20.45670523 47.78149414 22.06567383 C48.97939583 24.40249239 50.17871469 26.73857549 51.37890625 29.07421875 C51.77026764 29.83628632 52.16162903 30.59835388 52.56484985 31.3835144 C55.55030381 37.1764896 58.64034311 42.9053826 61.80053711 48.60473633 C63 51 63 51 63 53 C62.35264893 53.20568604 61.70529785 53.41137207 61.03833008 53.62329102 C57.96257547 54.6015334 54.88743338 55.58167921 51.8125 56.5625 C50.6771582 56.92456543 49.54181641 57.28663086 48.37207031 57.65966797 C41.3093261 59.91946969 34.27295119 62.24493249 27.25 64.625 C14.33364499 68.98250376 1.23938088 72.75490434 -12 76 C-12.42410156 75.16597656 -12.84820312 74.33195312 -13.28515625 73.47265625 C-16.96929568 66.40396674 -20.84094053 60.11945718 -26 54 C-26.48855469 53.39027344 -26.97710937 52.78054687 -27.48046875 52.15234375 C-29.85880844 49.12949585 -29.85880844 49.12949585 -33 47 C-31.42579275 42.11808346 -28.59798706 38.56046365 -25.5 34.5625 C-24.4088083 33.13253802 -23.31898724 31.70152919 -22.23046875 30.26953125 C-21.68567871 29.55361816 -21.14088867 28.83770508 -20.57958984 28.10009766 C-18.26591074 25.02401301 -16.03403516 21.89297238 -13.8125 18.75 C-9.32336551 12.41106685 -4.69309256 6.18944091 0 0 Z " fill="#7E4CDA" transform="translate(255,148)"></path><path d="M0 0 C5.63806535 2.96434364 9.30602717 7.24883919 12.65234375 12.58203125 C14.78904528 20.72820582 15.00265923 29.94153794 10.65234375 37.39453125 C6.32387587 43.94791252 0.97671661 46.95307363 -6.34765625 49.39453125 C-14.77673494 50.29260661 -21.36032488 49.35167543 -28.34765625 44.39453125 C-33.21809282 39.96686164 -36.95872354 34.68139393 -37.74609375 28.02734375 C-37.69049265 19.70571304 -37.0782604 13.98194622 -32.78515625 6.76953125 C-23.08484362 -2.68205541 -12.47147818 -4.95010985 0 0 Z " fill="#8954E5" transform="translate(408.34765625,157.60546875)"></path><path d="M0 0 C6.04820666 4.03213778 10.12547993 9.25794516 12.9375 15.9375 C13.79021358 22.9896718 14.24514652 30.91047345 10.40234375 37.16015625 C4.86893159 43.87402967 -0.57191857 48.38971577 -9.4296875 49.2734375 C-18.16462493 49.37070852 -23.80535402 48.94377845 -30.25 42.87890625 C-37.22548314 35.49236785 -38.56430742 29.41621927 -38.36328125 19.34375 C-37.63207125 11.0630341 -33.4765406 6.9250624 -27.37890625 1.6015625 C-19.93333313 -3.7471966 -8.14389824 -4.21762362 0 0 Z " fill="#7D4CD9" transform="translate(409.0625,300.0625)"></path><path d="M0 0 C4.96873852 4.02923045 9.08757937 8.43309475 11.00390625 14.625 C11.81111933 23.39951103 12.00408103 31.75944525 6.234375 38.77734375 C1.48893171 43.7949922 -2.72947762 47.2527265 -9.80078125 48.05859375 C-11.15734441 48.08236704 -12.51447774 48.08303777 -13.87109375 48.0625 C-14.57999756 48.05347656 -15.28890137 48.04445312 -16.01928711 48.03515625 C-22.90084182 47.80706467 -26.9873464 46.49920986 -31.91796875 41.7890625 C-38.33265604 34.87074273 -40.60647929 29.44674018 -40.3359375 19.9453125 C-39.61170392 12.86946721 -37.4550865 7.59912899 -32.24609375 2.6875 C-22.9742394 -4.52583256 -10.27311213 -6.65954967 0 0 Z " fill="#8451E0" transform="translate(290.99609375,93.375)"></path><path d="M0 0 C5.55212349 3.58549659 10.46671142 8.4000686 12.40625 14.83984375 C13.87475738 23.33722627 13.88853005 31.90280846 8.80859375 39.16796875 C4.13099074 44.26357033 -1.10127561 48.78736682 -8.171875 49.4453125 C-17.75049402 49.72087691 -24.51954002 48.39420214 -31.65234375 41.84765625 C-37.77465405 35.16594704 -38.57427974 28.16665793 -38.45703125 19.421875 C-37.79116541 11.26501846 -33.48963418 7.05442165 -27.5078125 1.83203125 C-20.06502758 -3.51472487 -8.30824493 -3.80571219 0 0 Z " fill="#6D3FC9" transform="translate(289.19140625,372.83203125)"></path><path d="M0 0 C4.29 0 8.58 0 13 0 C13 10.56 13 21.12 13 32 C23.56 32 34.12 32 45 32 C45 36.29 45 40.58 45 45 C34.44 45 23.88 45 13 45 C13 55.56 13 66.12 13 77 C8.71 77 4.42 77 0 77 C0 66.44 0 55.88 0 45 C-10.56 45 -21.12 45 -32 45 C-32 40.71 -32 36.42 -32 32 C-21.44 32 -10.88 32 0 32 C0 21.44 0 10.88 0 0 Z " fill="#FAF9FD" transform="translate(160,217)"></path><path d="M0 0 C0.99 0 1.98 0 3 0 C3 168.96 3 337.92 3 512 C2.01 512 1.02 512 0 512 C0 343.04 0 174.08 0 0 Z " fill="#4C6971" transform="translate(0,0)"></path><path d="M0 0 C2.0546875 1.671875 2.0546875 1.671875 3.875 3.75 C4.79925781 4.76320312 4.79925781 4.76320312 5.7421875 5.796875 C7 8 7 8 6.77612305 10.23803711 C5.84294304 13.55891331 4.44625459 16.34090343 2.83984375 19.39453125 C2.53051407 19.98674973 2.22118439 20.5789682 1.90248108 21.18913269 C0.92003983 23.06674598 -0.07106248 24.93962421 -1.0625 26.8125 C-1.73300053 28.0901913 -2.4029286 29.36818318 -3.07226562 30.64648438 C-4.70823288 33.76782916 -6.35199595 36.88499023 -8 40 C-8.66 40 -9.32 40 -10 40 C-12.2631099 35.6414884 -14.52337138 31.28151632 -16.78100586 26.92016602 C-17.54942971 25.43668784 -18.31863041 23.95361178 -19.08862305 22.47094727 C-20.19524333 20.33975784 -21.29906201 18.20713798 -22.40234375 16.07421875 C-22.74716293 15.41161545 -23.09198212 14.74901215 -23.44725037 14.06632996 C-24.8240318 11.39916093 -26.04896837 8.85309488 -27 6 C-26.44014404 5.823479 -25.88028809 5.64695801 -25.3034668 5.46508789 C-22.76473181 4.66447676 -20.22611469 3.8634925 -17.6875 3.0625 C-16.80642578 2.78470703 -15.92535156 2.50691406 -15.01757812 2.22070312 C-14.17001953 1.95322266 -13.32246094 1.68574219 -12.44921875 1.41015625 C-11.66893311 1.16402588 -10.88864746 0.91789551 -10.0847168 0.66430664 C-4.0426842 -1.26102076 -4.0426842 -1.26102076 0 0 Z " fill="#8451DE" transform="translate(364,202)"></path><path d="M0 0 C0.66 0 1.32 0 2 0 C4.39481465 3.89275037 6.67365878 7.84238082 8.9375 11.8125 C9.61619141 12.91271484 10.29488281 14.01292969 10.99414062 15.14648438 C12.86192347 18.49663456 14.25077162 21.23230571 15 25 C13.43729885 29.3677198 11.00506382 32.51221419 8 36 C7.67 36.66 7.34 37.32 7 38 C-1.27449001 37.57200914 -8.33299888 34.95555804 -16 32 C-14.31826156 25.79858951 -11.10546506 20.44872384 -8 14.875 C-6.91614652 12.91434995 -5.83279323 10.95342328 -4.75 8.9921875 C-4.27046875 8.12964355 -3.7909375 7.26709961 -3.296875 6.37841797 C-2.14891628 4.27310663 -1.05604646 2.1525664 0 0 Z " fill="#7E4ED9" transform="translate(354,271)"></path></svg>