<svg version="1.1" xmlns="http://www.w3.org/2000/svg" width="16px" height="16px" fill="currentColor" viewBox="0 0 512 512"><path d="M0 0 C168.96 0 337.92 0 512 0 C512 168.96 512 337.92 512 512 C343.04 512 174.08 512 0 512 C0 343.04 0 174.08 0 0 Z " fill="#438A26" transform="translate(0,0)"></path><path d="M0 0 C93.06 0 186.12 0 282 0 C282 86.46 282 172.92 282 262 C188.94 262 95.88 262 0 262 C0 175.54 0 89.08 0 0 Z " fill="#438A26" transform="translate(115,128)"></path><path d="M0 0 C7.29912222 4.05082175 12.67256953 9.62768156 15.6875 17.5 C15.72359375 18.634375 15.7596875 19.76875 15.796875 20.9375 C16.33538041 24.78425416 16.33538041 24.78425416 19.8984375 26.65234375 C21.2764182 27.27029035 22.6653492 27.86421258 24.0625 28.4375 C25.53214425 29.10563898 26.9983003 29.78150172 28.4609375 30.46484375 C29.18249023 30.80112793 29.90404297 31.13741211 30.64746094 31.48388672 C47.9122035 40.08319961 59.89244687 56.88615639 66.6875 74.5 C66.6875 75.16 66.6875 75.82 66.6875 76.5 C67.244375 76.51417969 67.80125 76.52835937 68.375 76.54296875 C76.72652168 77.06493885 81.8698771 80.29635578 87.5 86.375 C92.92333209 93.0489178 94.26552587 98.76337154 94.03125 107.28515625 C93.15445452 115.48518671 88.8557814 122.12913901 82.6875 127.5 C78.33840599 130.25489234 74.15180328 132.20554771 69.09375 133.22265625 C65.47239626 134.20326762 65.47239626 134.20326762 63.71875 137.44140625 C63.2134375 138.63636719 62.708125 139.83132813 62.1875 141.0625 C59.39280632 147.27690127 56.14722098 152.31088541 51.6875 157.5 C51.21828125 158.10070312 50.7490625 158.70140625 50.265625 159.3203125 C42.72805779 168.76344445 32.34866036 175.11210175 21.6875 180.5 C21.0275 180.5 20.3675 180.5 19.6875 180.5 C19.6875 191.39 19.6875 202.28 19.6875 213.5 C15.3975 213.5 11.1075 213.5 6.6875 213.5 C6.6875 204.26 6.6875 195.02 6.6875 185.5 C2.3975 185.83 -1.8925 186.16 -6.3125 186.5 C-6.3125 195.41 -6.3125 204.32 -6.3125 213.5 C-10.2725 213.5 -14.2325 213.5 -18.3125 213.5 C-18.3125 204.59 -18.3125 195.68 -18.3125 186.5 C-21.2825 186.5 -24.2525 186.5 -27.3125 186.5 C-28.6325 186.17 -29.9525 185.84 -31.3125 185.5 C-31.3125 194.74 -31.3125 203.98 -31.3125 213.5 C-35.6025 213.5 -39.8925 213.5 -44.3125 213.5 C-44.3125 202.61 -44.3125 191.72 -44.3125 180.5 C-46.2925 179.84 -48.2725 179.18 -50.3125 178.5 C-65.42662266 170.101254 -78.75967881 158.99387163 -85.84643555 142.89135742 C-88.22190575 137.13921439 -88.22190575 137.13921439 -92.69140625 133.12109375 C-95.23720889 132.40251301 -95.23720889 132.40251301 -97.828125 131.9765625 C-105.37633973 130.52863452 -111.03499045 124.55414712 -115.3125 118.5 C-118.94720868 112.32615086 -119.12527485 105.49171093 -118.3125 98.5 C-116.05406292 89.93675941 -110.31629153 83.05085142 -102.8125 78.5 C-98.74921674 76.41608629 -95.82366999 76.0200883 -91.3125 76.5 C-90.94125 75.241875 -90.57 73.98375 -90.1875 72.6875 C-83.24530008 52.15015857 -67.29795638 37.05895653 -48.3125 27.5 C-47.02837093 27.00902372 -45.74322498 26.52069807 -44.45703125 26.03515625 C-41.23798858 24.87121383 -41.23798858 24.87121383 -40.40234375 22.5546875 C-40.35207031 21.83539063 -40.30179687 21.11609375 -40.25 20.375 C-39.11855259 13.0503668 -35.14641443 7.66368513 -29.375 3.125 C-19.86128388 -3.32497703 -10.64132428 -4.89394237 0 0 Z " fill="#FCFDFB" transform="translate(268.3125,151.5)"></path><path d="M0 0 C1.22566114 -0.00709439 2.45132229 -0.01418877 3.71412468 -0.02149814 C7.11833292 -0.03607559 10.52115433 -0.02816527 13.9252615 -0.01077521 C17.59541591 0.0025742 21.26546378 -0.01282951 24.93560791 -0.02459717 C32.12612465 -0.04299641 39.31637003 -0.03444636 46.50687838 -0.01650894 C52.34963685 -0.00249513 58.19232155 0.00141249 64.03509521 -0.00195122 C65.2814625 -0.00266738 65.2814625 -0.00266738 66.55300891 -0.00339801 C68.24087987 -0.00442432 69.92875081 -0.00547968 71.61662173 -0.00656378 C86.54866808 -0.01513545 101.48058323 0.00155929 116.41259766 0.03126526 C130.90874747 0.06010381 145.40470828 0.06718683 159.90087891 0.05177307 C175.67834145 0.03501994 191.45571422 0.03096761 207.23317909 0.04848343 C208.91491317 0.05032786 210.59664725 0.05216259 212.27838135 0.0539875 C213.10587163 0.05489959 213.93336191 0.05581168 214.78592765 0.05675141 C220.62306789 0.06236235 226.46016437 0.05904445 232.29730225 0.05244255 C239.4088504 0.04471876 246.52021236 0.05142734 253.63172293 0.07661759 C257.26161691 0.08913501 260.89122069 0.09523233 264.52112579 0.08407593 C268.45208944 0.07222217 272.38254988 0.09124977 276.31347656 0.11352539 C278.04283353 0.10116424 278.04283353 0.10116424 279.807127 0.08855337 C281.38290111 0.1051249 281.38290111 0.1051249 282.99050903 0.12203121 C283.89815065 0.12322269 284.80579227 0.12441418 285.74093819 0.12564176 C288.96263354 0.79583562 290.16378376 2.05389228 292.15673828 4.62818909 C292.45123429 7.39645158 292.54017191 9.64220931 292.40673828 12.37818909 C292.32423828 14.77068909 292.24173828 17.16318909 292.15673828 19.62818909 C300.40673828 19.62818909 308.65673828 19.62818909 317.15673828 19.62818909 C317.15673828 23.91818909 317.15673828 28.20818909 317.15673828 32.62818909 C308.90673828 32.62818909 300.65673828 32.62818909 292.15673828 32.62818909 C292.15673828 41.20818909 292.15673828 49.78818909 292.15673828 58.62818909 C300.40673828 58.62818909 308.65673828 58.62818909 317.15673828 58.62818909 C317.15673828 62.91818909 317.15673828 67.20818909 317.15673828 71.62818909 C308.90673828 71.62818909 300.65673828 71.62818909 292.15673828 71.62818909 C292.15673828 79.87818909 292.15673828 88.12818909 292.15673828 96.62818909 C300.40673828 96.62818909 308.65673828 96.62818909 317.15673828 96.62818909 C317.15673828 100.91818909 317.15673828 105.20818909 317.15673828 109.62818909 C308.90673828 109.62818909 300.65673828 109.62818909 292.15673828 109.62818909 C292.15673828 117.87818909 292.15673828 126.12818909 292.15673828 134.62818909 C300.73673828 134.62818909 309.31673828 134.62818909 318.15673828 134.62818909 C318.15673828 139.24818909 318.15673828 143.86818909 318.15673828 148.62818909 C309.57673828 148.62818909 300.99673828 148.62818909 292.15673828 148.62818909 C292.15673828 156.87818909 292.15673828 165.12818909 292.15673828 173.62818909 C300.40673828 173.62818909 308.65673828 173.62818909 317.15673828 173.62818909 C317.15673828 177.91818909 317.15673828 182.20818909 317.15673828 186.62818909 C308.90673828 186.62818909 300.65673828 186.62818909 292.15673828 186.62818909 C292.15673828 194.87818909 292.15673828 203.12818909 292.15673828 211.62818909 C300.40673828 211.62818909 308.65673828 211.62818909 317.15673828 211.62818909 C317.15673828 215.91818909 317.15673828 220.20818909 317.15673828 224.62818909 C308.90673828 224.62818909 300.65673828 224.62818909 292.15673828 224.62818909 C292.15673828 233.20818909 292.15673828 241.78818909 292.15673828 250.62818909 C300.40673828 250.62818909 308.65673828 250.62818909 317.15673828 250.62818909 C317.15673828 254.91818909 317.15673828 259.20818909 317.15673828 263.62818909 C308.90673828 263.62818909 300.65673828 263.62818909 292.15673828 263.62818909 C292.31457343 270.35980233 292.31457343 270.35980233 292.51708984 277.09010315 C292.52708008 277.93282776 292.53707031 278.77555237 292.54736328 279.64381409 C292.56831055 280.50265198 292.58925781 281.36148987 292.61083984 282.24635315 C291.99164913 285.49410829 290.68931537 286.55026285 288.15673828 288.62818909 C285.74093819 289.12958574 285.74093819 289.12958574 282.99050903 289.13155365 C281.41473493 289.14720013 281.41473493 289.14720013 279.807127 289.16316271 C278.65422235 289.15423982 277.50131771 289.14531693 276.31347656 289.13612366 C275.08781542 289.14236362 273.86215427 289.14860358 272.59935188 289.15503263 C269.19532844 289.16824528 265.79218537 289.16346614 262.38821507 289.15108776 C258.71806847 289.14205226 255.04799985 289.1559995 251.37786865 289.16700745 C244.18739176 289.18481339 236.99708168 289.18094351 229.80659819 289.16935688 C223.96384529 289.16033097 218.12113921 289.1590949 212.27838135 289.16345215 C211.44746983 289.16406508 210.61655831 289.16467801 209.76046765 289.16530952 C208.0725967 289.16658839 206.38472576 289.16788525 204.69685483 289.16919988 C188.86192474 289.18061176 173.0270872 289.16748247 157.19217229 289.14599842 C143.59893438 289.12812687 130.0058331 289.13123081 116.41259766 289.14967346 C100.63514137 289.17106947 84.85776624 289.17951307 69.08029747 289.16722441 C67.3985634 289.16595018 65.71682931 289.1646927 64.03509521 289.16345215 C62.79385979 289.1625265 62.79385979 289.1625265 61.52754891 289.16158214 C55.69040426 289.15812543 49.85331101 289.1639645 44.01617432 289.17337036 C36.90463511 289.18457765 29.79327255 289.1815772 22.68175364 289.16024739 C19.05185375 289.14971968 15.42224861 289.14564404 11.79235077 289.15884399 C7.86139974 289.17292275 3.93093355 289.15613643 0 289.13612366 C-1.72935697 289.14950799 -1.72935697 289.14950799 -3.49365044 289.16316271 C-4.54416651 289.15273172 -5.59468258 289.14230073 -6.67703247 289.13155365 C-7.58467409 289.13090424 -8.49231571 289.13025483 -9.42746162 289.12958574 C-12.61751655 288.46749335 -13.82668984 287.13180578 -15.84326172 284.62818909 C-16.29736328 282.24635315 -16.29736328 282.24635315 -16.23388672 279.64381409 C-16.22389648 278.80108948 -16.21390625 277.95836487 -16.20361328 277.09010315 C-16.14898926 275.50020569 -16.14898926 275.50020569 -16.09326172 273.87818909 C-16.01076172 270.49568909 -15.92826172 267.11318909 -15.84326172 263.62818909 C-24.09326172 263.62818909 -32.34326172 263.62818909 -40.84326172 263.62818909 C-40.84326172 259.33818909 -40.84326172 255.04818909 -40.84326172 250.62818909 C-32.59326172 250.62818909 -24.34326172 250.62818909 -15.84326172 250.62818909 C-15.84326172 242.04818909 -15.84326172 233.46818909 -15.84326172 224.62818909 C-24.09326172 224.62818909 -32.34326172 224.62818909 -40.84326172 224.62818909 C-40.84326172 220.33818909 -40.84326172 216.04818909 -40.84326172 211.62818909 C-32.59326172 211.62818909 -24.34326172 211.62818909 -15.84326172 211.62818909 C-15.84326172 203.37818909 -15.84326172 195.12818909 -15.84326172 186.62818909 C-24.09326172 186.62818909 -32.34326172 186.62818909 -40.84326172 186.62818909 C-40.84326172 182.33818909 -40.84326172 178.04818909 -40.84326172 173.62818909 C-32.26326172 173.62818909 -23.68326172 173.62818909 -14.84326172 173.62818909 C-14.84326172 165.04818909 -14.84326172 156.46818909 -14.84326172 147.62818909 C-23.42326172 147.62818909 -32.00326172 147.62818909 -40.84326172 147.62818909 C-40.84326172 143.66818909 -40.84326172 139.70818909 -40.84326172 135.62818909 C-32.26326172 135.62818909 -23.68326172 135.62818909 -14.84326172 135.62818909 C-14.84326172 127.04818909 -14.84326172 118.46818909 -14.84326172 109.62818909 C-23.42326172 109.62818909 -32.00326172 109.62818909 -40.84326172 109.62818909 C-40.84326172 105.33818909 -40.84326172 101.04818909 -40.84326172 96.62818909 C-32.59326172 96.62818909 -24.34326172 96.62818909 -15.84326172 96.62818909 C-15.84326172 88.37818909 -15.84326172 80.12818909 -15.84326172 71.62818909 C-24.09326172 71.62818909 -32.34326172 71.62818909 -40.84326172 71.62818909 C-40.84326172 67.33818909 -40.84326172 63.04818909 -40.84326172 58.62818909 C-32.59326172 58.62818909 -24.34326172 58.62818909 -15.84326172 58.62818909 C-15.84326172 50.04818909 -15.84326172 41.46818909 -15.84326172 32.62818909 C-24.09326172 32.62818909 -32.34326172 32.62818909 -40.84326172 32.62818909 C-40.84326172 28.33818909 -40.84326172 24.04818909 -40.84326172 19.62818909 C-32.59326172 19.62818909 -24.34326172 19.62818909 -15.84326172 19.62818909 C-15.92576172 17.42131409 -16.00826172 15.21443909 -16.09326172 12.94068909 C-16.23786173 9.07263872 -16.23671408 6.4500948 -14.55905151 2.94552708 C-10.18070124 -0.79044595 -5.57442974 -0.05722714 0 0 Z M-2.84326172 13.62818909 C-2.84326172 100.08818909 -2.84326172 186.54818909 -2.84326172 275.62818909 C90.21673828 275.62818909 183.27673828 275.62818909 279.15673828 275.62818909 C279.15673828 189.16818909 279.15673828 102.70818909 279.15673828 13.62818909 C186.09673828 13.62818909 93.03673828 13.62818909 -2.84326172 13.62818909 Z " fill="#FAFCF9" transform="translate(117.84326171875,114.37181091308594)"></path><path d="M0 0 C3.30095669 1.60587082 4.36222615 4.0518412 6.3125 7.125 C11.16116731 11.86090761 14.66646325 13.17120589 21.3125 16.125 C21.3125 55.725 21.3125 95.325 21.3125 136.125 C12.3125 135.125 12.3125 135.125 8.3125 133.125 C8.30036972 131.83833687 8.30036972 131.83833687 8.28799438 130.52568054 C8.21009766 122.44732174 8.12282196 114.36913072 8.02497292 106.29098797 C7.9749979 102.13779232 7.92866806 97.98462227 7.890625 93.83129883 C7.85378727 89.82413073 7.80743164 85.81717606 7.75443649 81.8101902 C7.73588445 80.28040112 7.72077947 78.75056627 7.70915604 77.22070885 C7.69230716 75.0801031 7.6632764 72.93998701 7.63134766 70.79956055 C7.61802399 69.58044479 7.60470032 68.36132904 7.5909729 67.10527039 C7.53332005 63.94177041 7.53332005 63.94177041 5.3125 61.125 C2.50439856 60.61395078 2.50439856 60.61395078 -0.7890625 60.61328125 C-2.00078125 60.57783203 -3.2125 60.54238281 -4.4609375 60.50585938 C-5.73195312 60.48330078 -7.00296875 60.46074219 -8.3125 60.4375 C-9.59125 60.40333984 -10.87 60.36917969 -12.1875 60.33398438 C-15.35407932 60.25127521 -18.52037364 60.18219915 -21.6875 60.125 C-22.07856934 59.30080566 -22.46963867 58.47661133 -22.87255859 57.62744141 C-23.39672363 56.54640137 -23.92088867 55.46536133 -24.4609375 54.3515625 C-24.97575684 53.27986816 -25.49057617 52.20817383 -26.02099609 51.10400391 C-29.04946008 45.6903916 -33.18282536 42.74512898 -38.6875 40.125 C-34.6471424 24.23292676 -23.03441792 12.82951169 -9.6875 4.125 C-9.02105469 3.67511719 -8.35460937 3.22523438 -7.66796875 2.76171875 C-5.06251392 1.10989445 -3.10472017 0.14440559 0 0 Z " fill="#468B2A" transform="translate(228.6875,189.875)"></path><path d="M0 0 C12.02044289 1.42139544 22.62565654 11.47980596 30.0703125 20.51171875 C40 34.20265152 40 34.20265152 40 40 C38.66006185 40.9081803 37.27571688 41.75119369 35.875 42.5625 C29.13548042 46.892774 25.87013381 52.68271083 23 60 C22.19256348 60.01458252 21.38512695 60.02916504 20.55322266 60.04418945 C16.9099873 60.11846086 13.26768967 60.21519025 9.625 60.3125 C8.35398437 60.33505859 7.08296875 60.35761719 5.7734375 60.38085938 C3.95585937 60.4340332 3.95585937 60.4340332 2.1015625 60.48828125 C0.42054443 60.52755737 0.42054443 60.52755737 -1.29443359 60.56762695 C-2.63368896 60.78165161 -2.63368896 60.78165161 -4 61 C-6.41567243 64.62350865 -6.27167715 66.35845945 -6.31884766 70.67456055 C-6.32889328 71.347995 -6.3389389 72.02142944 -6.34928894 72.715271 C-6.38015604 74.93907831 -6.39716551 77.16276504 -6.4140625 79.38671875 C-6.43277135 80.92943868 -6.45234456 82.47214835 -6.4727478 84.0148468 C-6.52410506 88.07376052 -6.56371143 92.13270742 -6.60089111 96.19177246 C-6.64090831 100.33431228 -6.69201105 104.47671361 -6.7421875 108.61914062 C-6.83898931 116.74599919 -6.92338035 124.87292622 -7 133 C-8.60256108 133.50512244 -10.20711792 134.00391627 -11.8125 134.5 C-13.15248047 134.91765625 -13.15248047 134.91765625 -14.51953125 135.34375 C-17 136 -17 136 -20 136 C-20 96.4 -20 56.8 -20 16 C-16.04 14.02 -12.08 12.04 -8 10 C-4.75610156 6.70017227 -2.53391232 3.80086849 0 0 Z " fill="#4A8F2C" transform="translate(282,190)"></path><path d="M0 0 C5.61 0 11.22 0 17 0 C17 18.48 17 36.96 17 56 C2.36610033 48.68305017 -9.82562588 37.526355 -16 22 C-14.84886009 18.54658028 -14.1068256 18.15357642 -11.1875 16.1875 C-5.05746254 11.74322284 -3.00284311 7.00663392 0 0 Z " fill="#3F8525" transform="translate(207,262)"></path><path d="M0 0 C5.61 0 11.22 0 17 0 C17.845625 1.85625 18.69125 3.7125 19.5625 5.625 C22.96629085 12.46484512 26.78574161 15.85716107 33 20 C28.42273674 34.90322208 16.37337631 47.69464303 2.828125 55.14453125 C1 56 1 56 0 56 C0 37.52 0 19.04 0 0 Z " fill="#468C29" transform="translate(288,262)"></path><path d="M0 0 C4.35699098 2.46622131 7.04335342 5.33670683 9.3125 9.875 C9.90307744 15.55362925 9.60620905 20.04422672 6.3125 24.875 C2.32200931 28.80164284 -0.80390642 31.02532079 -6.4375 31.1875 C-11.3197451 31.13122052 -13.94623246 30.17087855 -17.6875 26.875 C-22.08493857 21.88331298 -23.05521383 18.96236099 -22.9609375 12.41015625 C-22.39935505 7.20348472 -19.30963842 4.18100158 -15.4375 1 C-10.21320352 -2.46053827 -5.77871055 -1.76299644 0 0 Z " fill="#4D912E" transform="translate(262.6875,163.125)"></path><path d="M0 0 C3.83084349 2.61193874 6.65161815 5.67823629 8.75 9.875 C9.34057744 15.55362925 9.04370905 20.04422672 5.75 24.875 C1.84288127 28.71960483 -1.35513039 31.03052524 -6.875 31.3125 C-11.93938073 31.25386752 -14.81079395 29.9276046 -18.62109375 26.6484375 C-22.03179682 22.9351061 -23.0738997 19.28380236 -23.6875 14.375 C-22.95762587 8.53600694 -20.51944795 4.6170733 -16.0625 0.9375 C-10.85687472 -2.44727352 -5.68127586 -1.96659549 0 0 Z " fill="#4C912E" transform="translate(340.25,241.125)"></path><path d="M0 0 C4.49174728 1.75422004 7.88361287 4.30812456 10.5 8.375 C12.41283009 12.99767272 12.9555549 16.28152296 11.26953125 21.078125 C9.0237751 26.02795489 6.37519919 29.60336585 1.1875 31.75 C-7.55680833 32.74934952 -7.55680833 32.74934952 -12.25 30.3125 C-16.4402289 26.78889842 -19.58565392 23.56609332 -20.23828125 17.94921875 C-20.42001793 12.41103242 -19.74513006 9.35244845 -16 5 C-10.69687713 0.32820128 -7.00928506 -0.97258022 0 0 Z " fill="#408626" transform="translate(183,240)"></path></svg>