<svg version="1.1" xmlns="http://www.w3.org/2000/svg" width="16px" height="16px" fill="currentColor" viewBox="0 0 512 512"><path d="M0 0 C168.96 0 337.92 0 512 0 C512 168.96 512 337.92 512 512 C343.04 512 174.08 512 0 512 C0 343.04 0 174.08 0 0 Z " fill="#438926" transform="translate(0,0)"></path><path d="M0 0 C1 1 1 1 1.09765625 3.28515625 C1.08605469 4.20167969 1.07445312 5.11820313 1.0625 6.0625 C1.05347656 6.98160156 1.04445313 7.90070313 1.03515625 8.84765625 C1.02355469 9.55792969 1.01195312 10.26820313 1 11 C-4.00727683 10.48200585 -8.22322933 9.6261347 -13 8 C-18.66379044 6.98860885 -24.2031932 6.78441444 -29.9375 6.75 C-31.22043945 6.7190625 -31.22043945 6.7190625 -32.52929688 6.6875 C-39.53993203 6.64471962 -44.7799045 7.99638502 -50.8125 11.75 C-55.00826901 16.06564812 -56.17236452 20.20369153 -56.375 26.0625 C-56.18395316 31.53640729 -54.8644786 35.1355214 -50.9375 39.0625 C-41.51307807 45.27860808 -30.77441921 48.894964 -20.25585938 52.80664062 C-8.95253566 57.12579684 0.99167253 62.0790092 6.63671875 73.234375 C9.71244526 80.73418684 9.15578283 90.94270506 6.4375 98.5 C1.78846533 108.15444134 -5.76570031 114.16406891 -15.640625 118.03515625 C-32.36539981 123.05726042 -53.59366452 120.97828087 -69 113 C-69 109.37 -69 105.74 -69 102 C-67.7625 102.268125 -66.525 102.53625 -65.25 102.8125 C-64.41082031 102.99167969 -63.57164062 103.17085938 -62.70703125 103.35546875 C-60 104 -60 104 -57.57421875 104.80078125 C-50.35519866 107.05739346 -43.31915608 107.35437738 -35.8125 107.4375 C-34.2800061 107.47061279 -34.2800061 107.47061279 -32.71655273 107.50439453 C-24.55891365 107.48189435 -18.19730137 105.57344111 -11.625 100.6875 C-6.83407051 95.78250077 -5.81677139 91.67720739 -5.5 85 C-5.67072198 80.43034155 -5.98215562 77.05477668 -9.0546875 73.5625 C-18.05642353 66.33218993 -30.37565971 62.73619551 -41.02832031 58.72729492 C-49.22770459 55.56997953 -57.12137407 51.87000111 -62.875 45 C-63.67550781 44.071875 -63.67550781 44.071875 -64.4921875 43.125 C-70.00162723 35.360401 -70.25735832 27.17169492 -69 18 C-66.38103884 8.80795985 -60.96728331 3.03329961 -53 -2 C-37.88865356 -10.34333028 -14.94422447 -7.10311904 0 0 Z " fill="#FAFCFA" transform="translate(220,166)"></path><path d="M0 0 C22.44 0 44.88 0 68 0 C68 3.63 68 7.26 68 11 C49.52 11 31.04 11 12 11 C12 25.19 12 39.38 12 54 C27.84 54 43.68 54 60 54 C60 57.63 60 61.26 60 65 C44.16 65 28.32 65 12 65 C12 83.15 12 101.3 12 120 C8.04 120 4.08 120 0 120 C0 80.4 0 40.8 0 0 Z " fill="#FEFEFE" transform="translate(77,163)"></path><path d="M0 0 C21.12 0 42.24 0 64 0 C64 14 64 14 59.9375 18.875 C58.30167662 20.26189373 56.65626742 21.63758648 55 23 C53.86492161 24.22199881 52.75887142 25.47177964 51.6875 26.75 C48.61751927 30.32337248 45.45086167 33.79434589 42.25 37.25 C41.73767822 37.80349121 41.22535645 38.35698242 40.69750977 38.92724609 C39.65168417 40.05678343 38.60570354 41.18617725 37.55957031 42.31542969 C35.07652022 44.99749694 32.59889542 47.6844883 30.125 50.375 C29.28195312 51.29023438 28.43890625 52.20546875 27.5703125 53.1484375 C24.65615279 56.38147183 21.83261293 59.69528492 19 63 C33.85 63.33 48.7 63.66 64 64 C64 68.29 64 72.58 64 77 C42.88 77 21.76 77 0 77 C0 64 0 64 2.08984375 60.45703125 C3.49943359 59.14798828 3.49943359 59.14798828 4.9375 57.8125 C5.95777016 56.81976926 6.97729154 55.82626843 7.99609375 54.83203125 C8.50640137 54.35588379 9.01670898 53.87973633 9.54248047 53.38916016 C11.65857061 51.37231713 13.57118235 49.19486146 15.5 47 C18.81001826 43.31169394 22.14724669 39.64943663 25.5 36 C32.13428695 28.77373763 38.71825662 21.53809206 45 14 C30.15 13.67 15.3 13.34 0 13 C0 8.71 0 4.42 0 0 Z " fill="#FBFCFA" transform="translate(288,275)"></path><path d="M0 0 C2.31526867 -0.1324618 4.53725629 -0.06517726 6.85107422 0.08447266 C8.04023438 0.12507812 8.04023438 0.12507812 9.25341797 0.16650391 C11.20380788 0.23699993 13.15279323 0.34461766 15.10107422 0.45947266 C13.78758612 3.23022514 12.32554458 5.67926858 10.51904297 8.15478516 C10.00535156 8.86199707 9.49166016 9.56920898 8.96240234 10.29785156 C8.41003906 11.05243652 7.85767578 11.80702148 7.28857422 12.58447266 C6.716875 13.37128418 6.14517578 14.1580957 5.55615234 14.96875 C3.74043576 17.46759275 1.92110085 19.96376779 0.10107422 22.45947266 C-2.235617 25.66538008 -4.56833586 28.8741281 -6.89892578 32.08447266 C-7.68940308 33.16559326 -7.68940308 33.16559326 -8.49584961 34.26855469 C-11.84209952 38.87813556 -14.94504441 43.58916271 -17.89892578 48.45947266 C-17.36319946 49.19883057 -17.36319946 49.19883057 -16.81665039 49.953125 C-13.37361568 54.70692031 -9.93662999 59.46502105 -6.50634766 64.22802734 C-5.53735699 65.57319361 -4.56755552 66.9177771 -3.59619141 68.26123047 C-2.58814158 69.65719475 -1.58685879 71.05803963 -0.58642578 72.45947266 C-0.05404297 73.20197266 0.47833984 73.94447266 1.02685547 74.70947266 C2.10107422 76.45947266 2.10107422 76.45947266 2.10107422 78.45947266 C-3.55763945 79.28661642 -9.31667327 80.05996954 -14.89892578 78.45947266 C-18.88744793 74.97405408 -21.17336636 71.07691766 -23.71337891 66.47900391 C-26.08785788 62.43417482 -29.07791452 58.78730312 -31.94165039 55.08007812 C-34.95859414 50.97249079 -34.95859414 50.97249079 -34.67431641 48.52832031 C-33.79689821 46.18724921 -32.68364741 44.43249888 -31.23095703 42.39697266 C-30.6739209 41.6095166 -30.11688477 40.82206055 -29.54296875 40.01074219 C-28.93855957 39.16882324 -28.33415039 38.3269043 -27.71142578 37.45947266 C-26.43914008 35.66530839 -25.16700931 33.87103424 -23.89501953 32.07666016 C-23.23743652 31.15336914 -22.57985352 30.23007813 -21.90234375 29.27880859 C-18.66999401 24.73004247 -15.47255069 20.15698352 -12.27392578 15.58447266 C-11.69489502 14.75947266 -11.11586426 13.93447266 -10.51928711 13.08447266 C-9.97167725 12.30330078 -9.42406738 11.52212891 -8.85986328 10.71728516 C-8.33908203 9.98751465 -7.81830078 9.25774414 -7.28173828 8.50585938 C-5.88997567 6.53170018 -5.88997567 6.53170018 -4.92236328 4.57324219 C-3.67211665 2.20042478 -2.67895401 0.64821181 0 0 Z " fill="#FAFCF9" transform="translate(302.89892578125,183.54052734375)"></path><path d="M0 0 C21.12 0 42.24 0 64 0 C64 4.29 64 8.58 64 13 C42.88 13 21.76 13 0 13 C0 8.71 0 4.42 0 0 Z " fill="#FAFCFA" transform="translate(371,307)"></path><path d="M0 0 C3.36600479 1.1220016 4.16402307 2.02210089 6.3125 4.75 C7.14201172 5.76320312 7.14201172 5.76320312 7.98828125 6.796875 C9 9 9 9 8.25146484 11.35571289 C7.01953697 13.95871929 5.65459573 16.16645121 3.98828125 18.51171875 C3.09786133 19.77338867 3.09786133 19.77338867 2.18945312 21.06054688 C1.57005859 21.92744141 0.95066406 22.79433594 0.3125 23.6875 C-0.28755859 24.53505859 -0.88761719 25.38261719 -1.50585938 26.25585938 C-2.71717536 27.96679442 -3.93055289 29.67627179 -5.14599609 31.38427734 C-7.66172278 34.93359203 -10.14597338 38.50457596 -12.62817383 42.07739258 C-14 44 -14 44 -15 45 C-17.69654854 45.07319621 -20.36691458 45.09242537 -23.0625 45.0625 C-24.20041992 45.05573242 -24.20041992 45.05573242 -25.36132812 45.04882812 C-27.24091871 45.0370068 -29.12046899 45.01907078 -31 45 C-29.72757348 42.33851091 -28.34399338 39.92766173 -26.63671875 37.5234375 C-26.16814453 36.86126221 -25.69957031 36.19908691 -25.21679688 35.5168457 C-24.71212891 34.81003662 -24.20746094 34.10322754 -23.6875 33.375 C-23.16349609 32.63660889 -22.63949219 31.89821777 -22.09960938 31.13745117 C-17.55984475 24.7529035 -12.97399091 18.40134871 -8.3659668 12.06591797 C-5.4861166 8.09848644 -2.68661487 4.10096261 0 0 Z " fill="#FAFCFA" transform="translate(262,239)"></path><path d="M0 0 C5.78027281 -1.48083722 11.37252411 -2.46744932 17 0 C23.8485744 6.35168847 28.34483253 14.99910431 33 23 C34.64871949 25.67839537 36.32385306 28.33863692 38 31 C36.71632558 32.83893824 35.42283239 34.67102625 34.125 36.5 C33.40570313 37.5209375 32.68640625 38.541875 31.9453125 39.59375 C31.30335938 40.3878125 30.66140625 41.181875 30 42 C29.34 42 28.68 42 28 42 C26.28842997 39.72097396 24.6959132 37.4364403 23.125 35.0625 C22.13647995 33.59563706 21.1468578 32.12951634 20.15625 30.6640625 C19.640625 29.89868164 19.125 29.13330078 18.59375 28.34472656 C15.98593113 24.50810088 13.3069222 20.72253184 10.625 16.9375 C10.13789551 16.24857666 9.65079102 15.55965332 9.14892578 14.84985352 C8.6795459 14.18655029 8.21016602 13.52324707 7.7265625 12.83984375 C7.05028809 11.88247314 7.05028809 11.88247314 6.36035156 10.90576172 C5.43029324 9.6028121 4.48895845 8.30785789 3.53808594 7.02001953 C0 2.2051893 0 2.2051893 0 0 Z " fill="#F8FBF7" transform="translate(234,184)"></path><path d="M0 0 C12.87 0 25.74 0 39 0 C39 4.29 39 8.58 39 13 C26.13 13 13.26 13 0 13 C0 8.71 0 4.42 0 0 Z " fill="#F8FAF7" transform="translate(371,339)"></path><path d="M0 0 C12.87 0 25.74 0 39 0 C39 4.29 39 8.58 39 13 C26.13 13 13.26 13 0 13 C0 8.71 0 4.42 0 0 Z " fill="#F8FBF7" transform="translate(371,275)"></path></svg>