<svg version="1.1" xmlns="http://www.w3.org/2000/svg" width="16px" height="16px" fill="currentColor" viewBox="0 0 512 512"><path d="M0 0 C168.96 0 337.92 0 512 0 C512 168.96 512 337.92 512 512 C343.04 512 174.08 512 0 512 C0 343.04 0 174.08 0 0 Z " fill="#7646D3" transform="translate(0,0)"></path><path d="M0 0 C0.98830811 0.51071045 0.98830811 0.51071045 1.99658203 1.03173828 C21.10984605 11.0255719 38.03459985 24.67263437 51 42 C51.71414063 42.93714844 52.42828125 43.87429687 53.1640625 44.83984375 C57.99281594 51.46871552 61.98236126 58.38346387 65.8125 65.625 C66.49675049 66.91253174 66.49675049 66.91253174 67.19482422 68.22607422 C71.5325882 76.61860025 74.70451308 85.31490854 77.125 94.4375 C77.43695313 95.59121094 77.74890625 96.74492187 78.0703125 97.93359375 C80.48279051 108.06626022 81.32235532 117.90491595 81.26074219 128.2902832 C81.25003031 130.43144142 81.26069704 132.5717578 81.2734375 134.71289062 C81.2865705 146.55825599 79.72404372 157.82135699 76.875 169.3125 C76.69324219 170.06466797 76.51148438 170.81683594 76.32421875 171.59179688 C75.88760571 173.39569813 75.44455549 175.19803964 75 177 C70.38 177 65.76 177 61 177 C61.44930062 172.95629446 62.18928928 169.26735927 63.375 165.375 C65.66085029 156.40743347 66.69124211 147.16130525 68 138 C48.86 138 29.72 138 10 138 C10 144.6 10 151.2 10 158 C8.5 172.5 8.5 172.5 7 177 C2.71 177 -1.58 177 -6 177 C-5.39817192 169.67775833 -4.5505246 162.43566247 -3.5 155.1640625 C-2.81530801 149.46186201 -2.44048031 143.72624402 -2 138 C-44.24 138 -86.48 138 -130 138 C-127.80186371 160.1700815 -127.80186371 160.1700815 -124.6484375 182.08203125 C-123.99169853 186.05015888 -123.47401168 190.00667519 -123 194 C-122.35160156 193.80664062 -121.70320313 193.61328125 -121.03515625 193.4140625 C-109.22975129 190.28043333 -97.14263635 189.80446149 -85 189 C-85 193.29 -85 197.58 -85 202 C-86.23234375 202.12117187 -87.4646875 202.24234375 -88.734375 202.3671875 C-97.12498816 203.21066136 -105.45073215 204.10027724 -113.75 205.6328125 C-116 206 -116 206 -119 206 C-111.39734988 227.26720581 -111.39734988 227.26720581 -98.50390625 245.41015625 C-92.79960097 251.02547081 -91.50562757 255.123625 -91.38476562 262.97119141 C-91.46160866 267.65790528 -91.65528005 272.3253618 -92 277 C-120.44367388 272.80554118 -146.39481397 258.78476515 -167 239 C-167.49322754 238.54318848 -167.98645508 238.08637695 -168.49462891 237.61572266 C-193.68507187 214.26942778 -210.40430681 180.43619636 -213 146 C-213.16419541 141.65815831 -213.22771773 137.32067114 -213.24023438 132.97583008 C-213.24986256 130.96618729 -213.28102598 128.956685 -213.3125 126.94726562 C-213.34948435 117.52087924 -212.16674737 109.12874405 -210 100 C-209.74017334 98.84165649 -209.74017334 98.84165649 -209.47509766 97.65991211 C-200.83966024 60.11771385 -176.68634772 27.31232231 -144.21630859 6.87744141 C-131.57491697 -0.82476045 -118.26501787 -6.98617934 -104 -11 C-103.30148926 -11.19899902 -102.60297852 -11.39799805 -101.88330078 -11.60302734 C-68.7159603 -20.62448485 -30.3396294 -15.79782708 0 0 Z " fill="#FCFBFE" transform="translate(290,92)"></path><path d="M0 0 C3.24100701 0.31976963 3.24100701 0.31976963 7.0065918 0.29052734 C8.07061974 0.30060318 8.07061974 0.30060318 9.15614319 0.31088257 C11.50390618 0.32989562 13.85138353 0.33378907 16.19921875 0.3359375 C17.83486549 0.34236563 19.47051107 0.349094 21.1061554 0.35610962 C24.5384894 0.3680924 27.97072272 0.37178967 31.40307617 0.37060547 C35.78671276 0.37040279 40.16969731 0.39764691 44.55317974 0.43214989 C47.93425924 0.45447105 51.3151835 0.45844134 54.69632912 0.45738602 C56.31136117 0.45973636 57.92639788 0.46852785 59.54135704 0.48405075 C71.3231941 0.62278668 71.3231941 0.62278668 82 -4 C94.40427081 -8.35237572 108.17386521 -6.82667787 119.9375 -1.4375 C132.29036377 5.037538 142.34200471 15.78696833 147 29 C149.88276645 38.51069842 149.30926723 48.54050534 149.30078125 58.3671875 C149.30467582 60.25228976 149.30901204 62.13739116 149.31376648 64.02249146 C149.32119882 67.96114963 149.32095917 71.89971811 149.31567383 75.83837891 C149.30988322 80.85690355 149.32681501 85.87505864 149.3500185 90.89352226 C149.36483232 94.78343816 149.36561719 98.67326661 149.36250877 102.56320572 C149.36301815 104.41215878 149.36818279 106.26111724 149.37832069 108.11004257 C149.44736786 122.46172083 149.26584788 135.85480659 139 147 C130.40268162 154.05378439 120.83405381 155.05973055 110 154 C92.96804748 149.18713001 82.13546969 130.91982008 73.90625 116.41015625 C69.99224006 109.26961873 66.43635825 101.94580276 62.875 94.625 C62.5331366 93.92539154 62.19127319 93.22578308 61.83905029 92.50497437 C60.86191771 90.49894818 59.89405274 88.48875254 58.9296875 86.4765625 C58.36491699 85.30174316 57.80014648 84.12692383 57.21826172 82.91650391 C56 80 56 80 56 77 C43.79 77.33 31.58 77.66 19 78 C17.06125 82.24875 15.1225 86.4975 13.125 90.875 C-10.55646494 142.1102215 -10.55646494 142.1102215 -33.28515625 153.10546875 C-41.2496945 155.72975545 -51.32479554 154.88755527 -58.8515625 151.32421875 C-67.27807703 146.13042161 -71.16357364 138.77500944 -73.58227539 129.42578125 C-75.55966502 120.5812408 -75.45349179 111.8279009 -75.43359375 102.8125 C-75.43816732 100.97892059 -75.44347634 99.14534287 -75.44947815 97.31176758 C-75.45835792 93.48934923 -75.45604436 89.6671404 -75.44604492 85.84472656 C-75.43454953 80.97983415 -75.45480191 76.11566704 -75.48396206 71.25086975 C-75.50242561 67.47069819 -75.50201171 63.69069734 -75.49632454 59.91049194 C-75.49617263 58.11818422 -75.50210733 56.32586394 -75.51461601 54.53359985 C-75.61858517 37.20283385 -72.56958177 22.07710482 -60.4375 8.75 C-44.7476375 -5.81481422 -18.96623921 -12.64415947 0 0 Z " fill="#FCFBFE" transform="translate(286,281)"></path><path d="M0 0 C3.89492825 0.54739532 7.78497814 1.11686703 11.671875 1.71875 C12.50203125 1.84636719 13.3321875 1.97398437 14.1875 2.10546875 C15.88057177 2.36613986 17.57329007 2.62911847 19.265625 2.89453125 C31.33540468 4.73852537 43.24607024 5.2030798 55.4375 5.1875 C56.63495346 5.18709213 56.63495346 5.18709213 57.8565979 5.18667603 C74.78975928 5.16015531 91.05423373 3.77946957 107.69140625 0.5859375 C111 0 111 0 114 0 C116.55601087 10.76897981 118.47053525 21.50181254 119.75 32.5 C119.87737549 33.57233887 120.00475098 34.64467773 120.13598633 35.74951172 C120.89517179 42.62846615 121 48.9655049 121 56 C78.76 56 36.52 56 -7 56 C-7 47.72667742 -6.67372183 40.08740246 -5.75 31.9375 C-5.61940186 30.76533936 -5.48880371 29.59317871 -5.35424805 28.38549805 C-4.2169993 18.74693539 -2.41881333 9.39285378 0 0 Z " fill="#7B4AD6" transform="translate(167,162)"></path><path d="M0 0 C16.36313716 12.51878566 29.71290338 33.8377851 33.40625 54.234375 C29.8456561 54.89100638 26.28249204 55.53256932 22.71875 56.171875 C21.23665039 56.44547852 21.23665039 56.44547852 19.72460938 56.72460938 C6.60380979 59.06002678 -6.43209881 59.43955173 -19.71875 59.421875 C-20.48965973 59.42160309 -21.26056946 59.42133118 -22.05484009 59.42105103 C-39.29394999 59.39312168 -55.71075316 57.72740883 -72.59375 54.234375 C-67.32148493 33.34616292 -55.76968839 10.68359695 -37.265625 -1.26953125 C-25.34764361 -8.19537805 -11.42457 -7.77696632 0 0 Z " fill="#7F4DDB" transform="translate(243.59375,95.765625)"></path><path d="M0 0 C8.33078393 5.84987366 14.60467659 15.42895681 16.43359375 25.49609375 C17.77183682 37.014006 14.95056931 47.01661377 8.18359375 56.43359375 C1.41700686 64.39599987 -8.16800883 69.64316969 -18.58203125 70.84375 C-30.2623167 71.18816867 -40.84193032 67.57952042 -49.57421875 59.6796875 C-58.26224899 50.37108367 -60.97027849 40.61541742 -60.83984375 28.1328125 C-60.04917103 17.61686531 -54.99434647 9.67777581 -47.5 2.5234375 C-33.16826432 -9.55213943 -15.80893064 -9.26398523 0 0 Z " fill="#7244CE" transform="translate(284.56640625,294.50390625)"></path><path d="M0 0 C7.63432745 6.26046075 14.63385492 14.09247036 16.02050781 24.22705078 C17.01180232 36.25272693 15.18424609 46.90671344 7.37890625 56.47265625 C0.23407834 64.2685716 -8.47690385 69.56869277 -19.19140625 70.5078125 C-31.86879637 70.95683458 -40.95997248 67.0377918 -50.12109375 58.5078125 C-58.203089 50.13034646 -61.07726067 40.46695988 -60.98022461 29.04785156 C-60.42668969 18.45129208 -55.42789879 9.07697351 -47.5625 1.93359375 C-33.09434435 -8.59981011 -15.05828191 -10.57837079 0 0 Z " fill="#7D4CD8" transform="translate(406.25,294.75)"></path><path d="M0 0 C2.97289721 2.00374718 4.4698038 4.92786178 6.2199707 7.97314453 C6.61095947 8.64450439 7.00194824 9.31586426 7.40478516 10.00756836 C18.64339996 29.61960394 25.9074707 50.48722415 25.9074707 73.28564453 C7.0974707 73.28564453 -11.7125293 73.28564453 -31.0925293 73.28564453 C-31.6700293 67.26314453 -32.2475293 61.24064453 -32.8425293 55.03564453 C-34.20833637 41.27422468 -35.80243672 27.74352323 -39.0925293 14.28564453 C-37.9890918 13.87185547 -36.8856543 13.45806641 -35.7487793 13.03173828 C-35.0165918 12.75700684 -34.2844043 12.48227539 -33.5300293 12.19921875 C-31.88462211 11.58252066 -30.23877758 10.96698837 -28.5925293 10.35253906 C-25.92420668 9.35543432 -23.25827975 8.35210363 -20.5925293 7.34814453 C-19.69405273 7.01363281 -18.79557617 6.67912109 -17.86987305 6.33447266 C-13.64503425 4.73862743 -9.64359826 3.08967603 -5.6862793 0.90673828 C-2.0925293 -0.71435547 -2.0925293 -0.71435547 0 0 Z " fill="#8351DF" transform="translate(332.092529296875,144.71435546875)"></path><path d="M0 0 C5.06915562 1.55850426 9.75916719 3.66079196 14.5625 5.875 C21.18122981 8.8840072 27.67957112 11.35648484 34.69140625 13.30859375 C37 14 37 14 38 15 C37.52062117 20.89036743 36.56607713 26.64865453 35.5402832 32.46484375 C33.29118123 45.35983056 32.31601707 57.99843018 32.1418457 71.08007812 C32 73 32 73 31 74 C29.22008076 74.09370624 27.43643261 74.11744271 25.65405273 74.11352539 C24.5129454 74.11344986 23.37183807 74.11337433 22.19615173 74.11329651 C20.9545076 74.10813522 19.71286346 74.10297394 18.43359375 74.09765625 C16.53795433 74.09553383 16.53795433 74.09553383 14.60401917 74.09336853 C11.23875111 74.08870582 7.8735501 74.0797148 4.50830078 74.06866455 C1.0765033 74.05844846 -2.35530109 74.05387049 -5.78710938 74.04882812 C-12.52475824 74.0377738 -19.26237525 74.0210171 -26 74 C-25.24180552 55.67078094 -25.24180552 55.67078094 -22.75 47.25 C-22.41403809 46.05818115 -22.41403809 46.05818115 -22.07128906 44.84228516 C-17.46674622 28.88783483 -10.6885956 12.88112803 0 0 Z " fill="#7344CE" transform="translate(116,144)"></path><path d="M0 0 C19.14 0 38.28 0 58 0 C58.495 11.385 58.495 11.385 59 23 C59.75372554 28.5998101 60.55254589 34.08015389 61.5625 39.625 C62.02828469 42.26199901 62.48522084 44.90036902 62.94140625 47.5390625 C63.24606812 49.22829834 63.24606812 49.22829834 63.55688477 50.95166016 C63.95532693 53.69267879 64.08721523 56.23678992 64 59 C62.329375 59.62068359 62.329375 59.62068359 60.625 60.25390625 C55.72719725 62.09166014 50.86077885 64.00423568 46 65.9375 C45.14921875 66.27201172 44.2984375 66.60652344 43.421875 66.95117188 C39.34737604 68.57284746 35.4668006 70.25969078 31.625 72.37890625 C28 74 28 74 25.90551758 73.28344727 C22.94583396 71.28997426 21.43833807 68.40182067 19.6875 65.375 C19.29723633 64.70984375 18.90697266 64.0446875 18.50488281 63.359375 C7.40464345 44.00418212 0 22.44192953 0 0 Z " fill="#6D40C8" transform="translate(90,230)"></path><path d="M0 0 C0.82254021 0.61909744 0.82254021 0.61909744 1.66169739 1.2507019 C2.38153305 1.79171539 3.10136871 2.33272888 3.84301758 2.89013672 C4.55637772 3.42661835 5.26973785 3.96309998 6.00471497 4.51583862 C17.4154954 13.0035681 29.66156466 17.49648718 44 16 C48.07282093 15.21017725 52.02264521 14.1719534 56 13 C57.331616 12.65987104 58.66429798 12.32371131 60 12 C53.77164408 28.82333094 41.8001726 52.69816032 25 61 C19.19981993 61.80578221 13.79651569 61.8194633 8.4375 59.375 C2.4534718 53.54440842 -0.04667988 47.38871596 -0.22705078 39.16625977 C-0.22673764 37.34127796 -0.21564823 35.51627478 -0.1953125 33.69140625 C-0.1924826 32.72468491 -0.18965271 31.75796356 -0.18673706 30.76194763 C-0.17560407 27.69533548 -0.15051224 24.62902285 -0.125 21.5625 C-0.11496131 19.47461361 -0.10583701 17.38672262 -0.09765625 15.29882812 C-0.07568727 10.19910456 -0.04120507 5.09960295 0 0 Z " fill="#6B3EC7" transform="translate(224,361)"></path><path d="M0 0 C0.10196696 6.38617208 0.17170187 12.77213187 0.21972656 19.15893555 C0.23976081 21.32861171 0.26699612 23.49823443 0.30175781 25.66772461 C0.350637 28.798149 0.37305125 31.92785548 0.390625 35.05859375 C0.41127014 36.01833603 0.43191528 36.97807831 0.45318604 37.96690369 C0.45579025 45.89937904 -1.3709848 51.92212854 -6.5625 58 C-10.9455893 61.59638097 -15.39601847 61.4643552 -20.8671875 61.3984375 C-28.53943672 60.42266516 -34.02933304 54.62285228 -38.8359375 48.92578125 C-47.30313677 37.4782501 -53.90112157 24.82686752 -60 12 C-57.85401647 12.51047645 -55.76066266 13.07711537 -53.66015625 13.75390625 C-39.70843855 18.09677176 -26.10404765 16.42233229 -13.125 9.6875 C-9.20889089 7.34076795 -5.86691511 4.45949045 -2.53125 1.35546875 C-1 0 -1 0 0 0 Z " fill="#7848D4" transform="translate(422,361)"></path><path d="M0 0 C13.53 0 27.06 0 41 0 C39.86820733 2.26358535 38.72837939 4.52331253 37.5625 6.76953125 C36.7890625 8.27580078 36.7890625 8.27580078 36 9.8125 C35.484375 10.80894531 34.96875 11.80539062 34.4375 12.83203125 C31.58919447 19.10913936 30.67667242 24.64858854 30.75 31.4375 C30.74226563 32.14970703 30.73453125 32.86191406 30.7265625 33.59570312 C30.74513324 38.70729798 31.69251686 43.06580766 33 48 C33 49.32 33 50.64 33 52 C24.42 52 15.84 52 7 52 C7.66 49.03 8.32 46.06 9 43 C10.64304258 27.79760126 9.17157178 14.56845022 0 2 C0 1.34 0 0.68 0 0 Z " fill="#7B4CD5" transform="translate(303,294)"></path><path d="M0 0 C0.20568604 0.53254395 0.41137207 1.06508789 0.62329102 1.61376953 C8.94475229 23.13781502 8.94475229 23.13781502 21.203125 42.59765625 C22.9860184 44.98130721 24.51227598 47.42403341 26 50 C3.32370439 46.83664011 -20.0101266 29.24677514 -34 12 C-8.26519158 -0.50697272 -8.26519158 -0.50697272 0 0 Z " fill="#6B3FC6" transform="translate(159,302)"></path><path d="M0 0 C-0.81791016 1.0209375 -0.81791016 1.0209375 -1.65234375 2.0625 C-12.89382689 16.51309029 -19.91313615 31.77691353 -26 49 C-32.30911885 48.45673489 -37.65870785 46.9349931 -43.5625 44.6875 C-44.37396484 44.39166016 -45.18542969 44.09582031 -46.02148438 43.79101562 C-50.99271793 41.93332302 -55.46527738 39.75735483 -60 37 C-46.25127104 19.90698562 -28.79249594 9.70350805 -9 1 C-8.07445312 0.566875 -7.14890625 0.13375 -6.1953125 -0.3125 C-3.69678762 -1.09495619 -2.42723898 -0.8989774 0 0 Z " fill="#7B4BD6" transform="translate(185,97)"></path><path d="M0 0 C6.62738543 1.25543692 12.25813792 3.17748162 18.3125 6.125 C19.14136719 6.52460937 19.97023438 6.92421875 20.82421875 7.3359375 C35.80823389 14.71124714 48.47568813 24.96349649 60 37 C51.94926487 43.64974936 36.399152 50 26 50 C25.6596875 49.030625 25.319375 48.06125 24.96875 47.0625 C19.65953522 32.25042504 13.04952402 18.88986824 4 6 C2.65687737 4.00633884 1.32802252 2.0037862 0 0 Z " fill="#8652E1" transform="translate(263,96)"></path><path d="M0 0 C4.29 0 8.58 0 13 0 C13 4.29 13 8.58 13 13 C17.29 13 21.58 13 26 13 C26 17.29 26 21.58 26 26 C21.71 26 17.42 26 13 26 C13 30.29 13 34.58 13 39 C8.71 39 4.42 39 0 39 C0 34.71 0 30.42 0 26 C-4.29 26 -8.58 26 -13 26 C-13 21.71 -13 17.42 -13 13 C-8.71 13 -4.42 13 0 13 C0 8.71 0 4.42 0 0 Z " fill="#FAF9FD" transform="translate(256,307)"></path><path d="M0 0 C3.0625 2.0625 3.0625 2.0625 5 5 C5.55919321 8.91435244 5.35457139 11.20221437 3.75 14.8125 C1.83877028 17.20153715 0.94084445 18.18309876 -2 19 C-5.73403676 18.86664154 -8.20101954 18.50461924 -11.375 16.5 C-13.76963955 12.81593915 -14.42788906 9.37224825 -14 5 C-10.60394569 -0.5468887 -6.05226127 -1.34616299 0 0 Z " fill="#FBFAFD" transform="translate(398,327)"></path><path d="M0 0 C3 2 3 2 5 5 C5.37990283 8.22917403 5.02828703 10.92088353 4 14 C1.85405442 16.66617481 0.39868082 17.68070519 -2.93359375 18.44140625 C-5.16028813 18.6392411 -6.83677039 18.57133685 -9 18 C-12.56352884 14.95615245 -13.81458415 13.05687034 -14.625 8.4375 C-13.84380508 4.14092793 -12.34762132 2.70997917 -9 0 C-5.77509551 -1.61245225 -3.43772273 -0.81573082 0 0 Z " fill="#FBFAFE" transform="translate(379,308)"></path></svg>