<svg version="1.1" xmlns="http://www.w3.org/2000/svg" width="16px" height="16px" fill="currentColor" viewBox="0 0 512 512"><path d="M0 0 C168.96 0 337.92 0 512 0 C512 168.96 512 337.92 512 512 C343.04 512 174.08 512 0 512 C0 343.04 0 174.08 0 0 Z " fill="#7646D3" transform="translate(0,0)"></path><path d="M0 0 C1.03125 0.48339844 2.0625 0.96679688 3.125 1.46484375 C22.313788 11.08712843 37.33148365 27.70269863 47.8125 46.125 C48.35390625 47.07354858 48.35390625 47.07354858 48.90625 48.04125977 C62.51962509 72.7091762 65.17390145 103.03482296 57.4140625 130.0390625 C52.76084975 144.91785388 45.39029061 159.35640586 35 171 C34.33742188 171.804375 33.67484375 172.60875 32.9921875 173.4375 C15.0610384 194.61081259 -10.76035789 206.58380726 -38 210 C-40.33296506 210.04145446 -42.66728932 210.05390089 -45 210 C-45 212.31 -45 214.62 -45 217 C-23.88 217 -2.76 217 19 217 C19.33 223.6 19.66 230.2 20 237 C21.546875 237.70125 23.09375 238.4025 24.6875 239.125 C31.57688025 242.57942089 34.96684958 246.86069051 38 254 C38.33688679 256.73439779 38.52578085 259.15028589 38.5 261.875 C38.49355469 262.58390381 38.48710937 263.29280762 38.48046875 264.02319336 C38.18615678 272.43528784 34.95590032 276.32095095 29.0625 281.875 C23.16162738 287.08521607 16.7718061 287.45510875 9.1875 287.30859375 C2.09549207 286.62199004 -2.76921506 283.05036609 -7.5234375 277.89453125 C-12.94733286 270.93530043 -13.00630353 262.51938523 -12 254 C-9.7445136 246.5906727 -4.40800721 242.03200454 2 238 C2.99 237.67 3.98 237.34 5 237 C5.33 234.69 5.66 232.38 6 230 C-10.5 230 -27 230 -44 230 C-43.67 236.6 -43.34 243.2 -43 250 C-40.36 251.32 -37.72 252.64 -35 254 C-32.7578125 255.96484375 -32.7578125 255.96484375 -31.125 257.9375 C-30.57070313 258.58589844 -30.01640625 259.23429687 -29.4453125 259.90234375 C-24.94993305 266.42671879 -25.45102975 273.34983397 -26 281 C-27.31284342 287.68356648 -32.52485557 293.618759 -38.03515625 297.39453125 C-44.87259892 300.90632122 -52.40705666 301.41975599 -59.7421875 299.15234375 C-66.68156804 296.0412233 -72.23076221 291.2924796 -75.1640625 284.17578125 C-76.95090538 277.38744824 -77.39243745 269.10248025 -74.5 262.5625 C-71.22217609 257.11897101 -65.87201993 252.43878247 -60 250 C-59.01 250 -58.02 250 -57 250 C-57 243.4 -57 236.8 -57 230 C-73.83 230 -90.66 230 -108 230 C-108 232.64 -108 235.28 -108 238 C-107.34 238.04125 -106.68 238.0825 -106 238.125 C-100.02744542 239.86699509 -95.42965612 243.78327249 -92 248.9375 C-88.567083 255.80333399 -88.82202234 264.1175926 -90.59375 271.4609375 C-93.354021 277.9271279 -99.47226182 283.53169816 -105.890625 286.203125 C-112.46078245 287.88693419 -120.08537529 288.29977062 -126.375 285.4375 C-132.25863248 281.89239375 -137.49709114 277.13250358 -139.5546875 270.42578125 C-140.9494146 262.82818889 -141.33366822 255.43475934 -137.5625 248.5 C-133.40920067 242.51175132 -128.03960633 238.75990158 -121 237 C-121 230.4 -121 223.8 -121 217 C-99.88 217 -78.76 217 -57 217 C-57 214.69 -57 212.38 -57 210 C-57.7528125 209.97421875 -58.505625 209.9484375 -59.28125 209.921875 C-85.4045495 208.52694153 -107.60687771 197.06849515 -127 180 C-127.60972656 179.4740625 -128.21945313 178.948125 -128.84765625 178.40625 C-148.61833017 160.08449072 -160.11726167 131.67875925 -161.28515625 105.15625 C-162.17575205 75.44455271 -153.43437182 47.17471002 -133 25.0625 C-131.03387375 23.00598431 -129.02860101 20.99473339 -127 19 C-126.16597656 18.16726562 -125.33195312 17.33453125 -124.47265625 16.4765625 C-118.2666936 10.58240673 -111.44867488 6.17706653 -104 2 C-102.8965625 1.37996094 -101.793125 0.75992188 -100.65625 0.12109375 C-69.07082875 -16.64960584 -31.73829515 -15.66918352 0 0 Z " fill="#FCFBFE" transform="translate(310,127)"></path><path d="M0 0 C1.55823486 0.01015137 1.55823486 0.01015137 3.14794922 0.02050781 C17.81112712 0.21365122 31.53733503 1.54400725 45.5 6.25 C46.84749853 6.67628014 48.19516214 7.10203871 49.54296875 7.52734375 C85.87746336 19.32463844 115.44267992 46.04660327 132.94775391 79.80541992 C149.14090623 112.29796195 153.19825155 151.74270336 141.60742188 186.48876953 C140.92671286 188.41793835 140.21840603 190.33457095 139.5 192.25 C139.25266113 192.92836914 139.00532227 193.60673828 138.75048828 194.30566406 C132.87942989 210.21980727 124.78486399 224.54932282 113.5 237.25 C112.80132812 238.05695313 112.10265625 238.86390625 111.3828125 239.6953125 C109.76693908 241.55778507 108.14040829 243.40915597 106.5 245.25 C103.28956118 243.86811547 101.45063635 242.32578097 99.25 239.625 C98.72921875 238.99335938 98.2084375 238.36171875 97.671875 237.7109375 C97.28515625 237.22882813 96.8984375 236.74671875 96.5 236.25 C97.03367187 235.70214844 97.56734375 235.15429688 98.1171875 234.58984375 C115.56062141 216.02978864 129.74795915 189.82779146 132.5 164.25 C132.66242188 162.93515625 132.66242188 162.93515625 132.828125 161.59375 C136.65438177 124.94223779 127.72156059 90.38213674 104.546875 61.51953125 C90.69993044 44.72880076 74.21192365 33.20383802 54.5 24.25 C53.44554687 23.76660156 52.39109375 23.28320312 51.3046875 22.78515625 C21.13642904 10.09288383 -15.65408486 11.2948151 -45.78613281 23.14941406 C-77.55678502 36.31852397 -103.03044014 61.25485768 -116.75 92.81640625 C-119.99238663 100.75200405 -122.36258435 108.95810674 -124.5 117.25 C-124.768125 118.26964844 -125.03625 119.28929687 -125.3125 120.33984375 C-132.19765443 152.9008866 -122.94166714 188.82770672 -105.51538086 216.45751953 C-100.82113574 223.58485085 -95.23167934 229.94712237 -89.5 236.25 C-90.4080162 237.38199353 -91.32683826 238.50532363 -92.25 239.625 C-92.76046875 240.25148438 -93.2709375 240.87796875 -93.796875 241.5234375 C-95.58199481 243.33312318 -97.17949644 244.25117455 -99.5 245.25 C-120.19806074 223.55203294 -133.19866885 197.75400241 -138.5 168.25 C-138.72429687 167.10917969 -138.94859375 165.96835938 -139.1796875 164.79296875 C-145.29774682 129.46746186 -135.86049035 92.23551793 -115.67578125 62.91162109 C-112.80411297 58.85336231 -109.75545709 55.00531073 -106.5 51.25 C-105.80390625 50.43273437 -105.1078125 49.61546875 -104.390625 48.7734375 C-82.87227637 24.12653464 -54.41359478 8.52914542 -22.5 2.25 C-21.66001465 2.07194824 -20.8200293 1.89389648 -19.95458984 1.71044922 C-13.24709315 0.36321187 -6.83307707 -0.06528059 0 0 Z " fill="#FBFAFE" transform="translate(255.5,82.75)"></path><path d="M0 0 C1.97931664 0.14378343 3.95844584 0.29014774 5.9375 0.4375 C7.03964844 0.51871094 8.14179688 0.59992188 9.27734375 0.68359375 C11.16245399 0.84381823 13.04862972 1.00636017 14.92456055 1.25170898 C22.24665312 2.20676454 29.56354488 2.19546156 36.9375 2.1875 C37.62164978 2.1882251 38.30579956 2.1889502 39.01068115 2.18969727 C48.64542807 2.1885699 58.11446083 1.79413538 67.6640625 0.4375 C70.50004779 0.0655675 73.14711636 -0.08744471 76 0 C76.66301544 2.80933518 77.30509905 5.62123695 77.9375 8.4375 C78.21110352 9.5831543 78.21110352 9.5831543 78.49023438 10.75195312 C80.38680484 19.33824486 80.46242054 26.86114917 81 36 C52.62 36 24.24 36 -5 36 C-5 28.68440776 -4.83187299 22.27207657 -3.625 15.1875 C-3.49867188 14.38119141 -3.37234375 13.57488281 -3.2421875 12.74414062 C-2.51986979 8.32716786 -1.56089804 4.21442471 0 0 Z " fill="#7C4BD8" transform="translate(222,180)"></path><path d="M0 0 C28.38 0 56.76 0 86 0 C86 16.23872007 86 16.23872007 85.125 23.25 C85.03621582 24.00651855 84.94743164 24.76303711 84.85595703 25.54248047 C84.17863933 31.09553333 83.2327217 36.5408039 82 42 C80.45505859 41.80083984 80.45505859 41.80083984 78.87890625 41.59765625 C68.59486279 40.30986858 58.35147868 39.49231063 48 39 C48 35.37 48 31.74 48 28 C49.72526042 29.5625 51.45052083 31.125 53.17578125 32.6875 C55.03131335 34.29201498 55.03131335 34.29201498 58 34 C59.68711423 32.3540349 61.3545622 30.68762851 63 29 C63.66 29 64.32 29 65 29 C62.91705452 25.23321888 60.61077657 22.37439031 57.55078125 19.35546875 C56.70322266 18.51435547 55.85566406 17.67324219 54.98242188 16.80664062 C54.10134766 15.94232422 53.22027344 15.07800781 52.3125 14.1875 C51.41982422 13.30384766 50.52714844 12.42019531 49.60742188 11.50976562 C47.40940071 9.33525271 45.2068407 7.16555573 43 5 C39.43235715 6.51376081 37.16293713 8.60513129 34.453125 11.3515625 C33.60878906 12.20234375 32.76445312 13.053125 31.89453125 13.9296875 C31.02183594 14.81914062 30.14914063 15.70859375 29.25 16.625 C28.36183594 17.5221875 27.47367188 18.419375 26.55859375 19.34375 C24.36783031 21.55807004 22.18187237 23.77692435 20 26 C21.39307869 28.93335061 22.55515076 30.73881364 25.125 32.75 C26.07375 33.4925 27.0225 34.235 28 35 C28.49371094 34.4946875 28.98742187 33.989375 29.49609375 33.46875 C30.45708984 32.49421875 30.45708984 32.49421875 31.4375 31.5 C32.07558594 30.8503125 32.71367187 30.200625 33.37109375 29.53125 C35 28 35 28 36 28 C36 31.63 36 35.26 36 39 C35.05640625 39.04898438 34.1128125 39.09796875 33.140625 39.1484375 C25.84374062 39.57335647 18.77906065 40.21746315 11.5859375 41.59765625 C9.00901987 41.99859661 6.60266743 42.02798859 4 42 C3.30945566 38.19144595 2.65240664 34.3777564 2 30.5625 C1.80921875 29.51255859 1.6184375 28.46261719 1.421875 27.38085938 C-0.17147041 17.90614469 0 9.96981639 0 0 Z " fill="#7A4AD5" transform="translate(217,229)"></path><path d="M0 0 C9.91813161 6.07058055 17.37196485 20.24351388 21 31 C21 32.32 21 33.64 21 35 C10.06715097 38.09420256 -0.94476819 38.19415928 -12.25 38.1875 C-13.52673584 38.18741943 -14.80347168 38.18733887 -16.11889648 38.18725586 C-26.2833833 38.12570788 -36.13508591 37.62591238 -46 35 C-41.57456628 20.24855427 -34.44871096 6.3253925 -21 -2 C-13.57424386 -5.98455207 -6.90906942 -3.89868917 0 0 Z " fill="#814FDC" transform="translate(272,132)"></path><path d="M0 0 C13.86 0 27.72 0 42 0 C42.495 7.92 42.495 7.92 43 16 C43.62991494 20.62696559 44.29421437 25.21093058 45.0625 29.8125 C45.43026272 32.06870522 45.79623766 34.3252028 46.16015625 36.58203125 C46.32136963 37.55374268 46.48258301 38.5254541 46.64868164 39.52661133 C47 42 47 42 47 45 C46.39526855 45.19634033 45.79053711 45.39268066 45.16748047 45.5949707 C42.40171715 46.49597516 39.63836614 47.40417132 36.875 48.3125 C35.92367187 48.62123047 34.97234375 48.92996094 33.9921875 49.24804688 C29.99254409 50.5673737 26.26284447 51.86504965 22.5078125 53.79296875 C20 55 20 55 17 54 C15.42007987 51.68880255 14.03634491 49.44197786 12.6875 47 C12.29232178 46.28884033 11.89714355 45.57768066 11.48999023 44.8449707 C3.77108678 30.50089742 0 16.29001392 0 0 Z " fill="#7243CE" transform="translate(162,229)"></path><path d="M0 0 C13.86 0 27.72 0 42 0 C42 10.14816557 42 10.14816557 41.1171875 13.98046875 C40.9227002 14.82754395 40.72821289 15.67461914 40.52783203 16.54736328 C40.31239746 17.4186084 40.09696289 18.28985352 39.875 19.1875 C39.53831299 20.56397705 39.53831299 20.56397705 39.19482422 21.96826172 C36.09266918 34.13169437 31.14385481 44.64352409 24 55 C17.45368561 52.84190736 10.94039115 50.59781538 4.4375 48.3125 C3.52419922 47.99216797 2.61089844 47.67183594 1.66992188 47.34179688 C-0.55360346 46.56181678 -2.77690598 45.78120838 -5 45 C-4.91959473 44.34741211 -4.83918945 43.69482422 -4.75634766 43.02246094 C-4.37693079 39.93191843 -4.00097677 36.84096283 -3.625 33.75 C-3.49867188 32.72519531 -3.37234375 31.70039063 -3.2421875 30.64453125 C-2.00510292 20.43858348 -1.02382664 10.23826643 0 0 Z " fill="#7E4CDA" transform="translate(316,229)"></path><path d="M0 0 C3.81162921 3.53321455 6.54433235 7.12296869 9.0625 11.6875 C9.40756592 12.30471924 9.75263184 12.92193848 10.1081543 13.55786133 C16.37298884 24.9631489 20 35.91905864 20 49 C6.14 49 -7.72 49 -22 49 C-22.33 43.72 -22.66 38.44 -23 33 C-23.61990406 28.79759818 -24.27339427 24.66580907 -25.0625 20.5 C-25.24876953 19.47519531 -25.43503906 18.45039063 -25.62695312 17.39453125 C-26.07645161 14.92805238 -26.53406211 12.4634159 -27 10 C-21.0088768 7.74639463 -15.00730951 5.52256241 -9 3.3125 C-7.69482422 2.83200195 -7.69482422 2.83200195 -6.36328125 2.34179688 C-4.24226625 1.56098366 -2.12117124 0.78038863 0 0 Z " fill="#8350DF" transform="translate(337,167)"></path><path d="M0 0 C2.87653553 0.67063581 5.60204972 1.53292183 8.37109375 2.55859375 C9.60375977 3.01395508 9.60375977 3.01395508 10.86132812 3.47851562 C11.71146484 3.79498047 12.56160156 4.11144531 13.4375 4.4375 C14.7069043 4.90639648 14.7069043 4.90639648 16.00195312 5.38476562 C20.02213518 6.87383854 24.03096721 8.37815703 28 10 C27.13639154 18.20882568 26.03819543 26.38254357 24.9375 34.5625 C24.298125 39.326875 23.65875 44.09125 23 49 C9.47 49 -4.06 49 -18 49 C-18 42.53973552 -17.86906903 37.93443984 -16.0625 32 C-15.84795166 31.28158936 -15.63340332 30.56317871 -15.41235352 29.82299805 C-11.99689671 19.11146496 -6.33731841 9.24012639 0 0 Z " fill="#7747D3" transform="translate(181,167)"></path><path d="M0 0 C10.125 0 10.125 0 14.47265625 0.65625 C15.39111328 0.79160156 16.30957031 0.92695313 17.25585938 1.06640625 C18.18205078 1.20949219 19.10824219 1.35257812 20.0625 1.5 C21.02349609 1.64308594 21.98449219 1.78617187 22.97460938 1.93359375 C25.3173455 2.28325586 27.65901777 2.6388144 30 3 C25.15242846 18.55402996 18.08826285 34.08022447 3.8828125 43.0390625 C2 44 2 44 0 44 C0 29.48 0 14.96 0 0 Z " fill="#7A4CD3" transform="translate(265,280)"></path><path d="M0 0 C0 13.86 0 27.72 0 42 C-12.37084611 37.05166156 -18.32109086 26.04380493 -23.93359375 14.50390625 C-25.6628689 10.44359352 -26.88394976 6.26458223 -28 2 C-18.41263423 -0.03368365 -10.06366658 0 0 0 Z " fill="#7648CF" transform="translate(253,281)"></path><path d="M0 0 C0.21092285 0.55349121 0.4218457 1.10698242 0.63916016 1.67724609 C5.78458902 15.42138069 5.78458902 15.42138069 12.87109375 28.22265625 C14 30 14 30 15 33 C2.64588661 30.47104032 -7.89462175 23.06832778 -17.4375 15.125 C-17.99928955 14.6609375 -18.5610791 14.196875 -19.13989258 13.71875 C-20.68359375 12.3828125 -20.68359375 12.3828125 -23 10 C-23 9.01 -23 8.02 -23 7 C-20.41767086 6.01811439 -17.83421317 5.03940411 -15.25 4.0625 C-14.15558594 3.64581055 -14.15558594 3.64581055 -13.0390625 3.22070312 C-12.33007812 2.95322266 -11.62109375 2.68574219 -10.890625 2.41015625 C-9.91657715 2.04096069 -9.91657715 2.04096069 -8.92285156 1.66430664 C-5.82739357 0.594888 -3.29477009 0 0 0 Z " fill="#7345CD" transform="translate(213,286)"></path><path d="M0 0 C7.63866698 1.73248117 14.81536384 3.86864309 22 7 C22 11 22 11 19.8671875 13.296875 C-4.1656051 33 -4.1656051 33 -15 33 C-13.44081516 28.77820721 -11.36339137 24.92524703 -9.1875 21 C-5.47362253 14.19376144 -2.56946717 7.32545207 0 0 Z " fill="#7B4BD5" transform="translate(307,286)"></path><path d="M0 0 C4.38773175 2.19386588 7.09334197 4.44520582 9 9 C9.54223844 13.26044487 9.30065535 15.42096006 7.3125 19.25 C4.43181528 22.67567913 2.39238695 24.60126884 -2.109375 25.3515625 C-6.26517473 25.6165296 -9.11690435 25.38694361 -12.4375 22.75 C-15.81439385 19.12601636 -16.82874435 17.54130086 -17.375 12.625 C-16.8476637 7.52741573 -14.66444332 4.84938147 -11.3125 1.125 C-7.59344385 -0.68427056 -4.04760663 -0.63243854 0 0 Z " fill="#6E42C9" transform="translate(263,389)"></path><path d="M0 0 C3.42484369 2.28322912 4.97163392 4.19326784 6.8125 7.875 C7.4322472 12.21323043 7.1467226 14.25430088 5.0625 18.125 C2.48039127 21.28091067 0.5344338 23.53402301 -3.5546875 24.34375 C-7.91589788 24.3980953 -11.17879387 24.4250512 -14.6875 21.625 C-17.99390712 17.98795217 -19.01972901 16.38493888 -19.5625 11.5 C-19.11265417 7.15149031 -17.98540424 5.20223747 -15.1875 1.875 C-10.35049215 -2.04689826 -5.76079882 -2.03322311 0 0 Z " fill="#7446CE" transform="translate(329.1875,377.125)"></path><path d="M0 0 C3.42484369 2.28322912 4.97163392 4.19326784 6.8125 7.875 C7.4322472 12.21323043 7.1467226 14.25430088 5.0625 18.125 C2.48039127 21.28091067 0.5344338 23.53402301 -3.5546875 24.34375 C-7.91589788 24.3980953 -11.17879387 24.4250512 -14.6875 21.625 C-17.99390712 17.98795217 -19.01972901 16.38493888 -19.5625 11.5 C-19.11265417 7.15149031 -17.98540424 5.20223747 -15.1875 1.875 C-10.35049215 -2.04689826 -5.76079882 -2.03322311 0 0 Z " fill="#6A3FC5" transform="translate(201.1875,377.125)"></path><path d="M0 0 C0 3.4591937 -0.48154424 3.90522446 -2.5 6.5625 C-6.28962978 11.94682033 -8.64929951 17.85704313 -11.01953125 23.96704102 C-13.37034874 29.67487887 -13.37034874 29.67487887 -16.26953125 31.171875 C-19.93531178 30.94112487 -23.18914493 29.96462845 -26.625 28.75 C-27.29273438 28.53214844 -27.96046875 28.31429687 -28.6484375 28.08984375 C-32.07670347 26.91737679 -34.7315162 25.89956576 -37 23 C-26.56387068 12.62184918 -13.81315988 4.97064465 0 0 Z " fill="#804FD9" transform="translate(228,133)"></path><path d="M0 0 C12.99284236 5.12457657 29.89206352 11.83809529 38 24 C21.72900763 31 21.72900763 31 15 31 C14.57589844 29.90042969 14.15179688 28.80085938 13.71484375 27.66796875 C10.54549142 19.62156822 7.31291185 12.24246873 2.3828125 5.1015625 C1 3 1 3 0 0 Z " fill="#8654E1" transform="translate(291,133)"></path></svg>