<svg version="1.1" xmlns="http://www.w3.org/2000/svg" width="16px" height="16px" fill="currentColor" viewBox="0 0 512 512"><path d="M0 0 C168.96 0 337.92 0 512 0 C512 168.96 512 337.92 512 512 C343.04 512 174.08 512 0 512 C0 343.04 0 174.08 0 0 Z " fill="#7646D3" transform="translate(0,0)"></path><path d="M0 0 C4.36244586 0.53063669 8.71634921 1.09437921 13.06640625 1.71875 C14.41508789 1.91017578 14.41508789 1.91017578 15.79101562 2.10546875 C17.61187523 2.36467498 19.43221242 2.62758309 21.25195312 2.89453125 C34.15492395 4.70772374 47.04338278 5.15674948 60.05859375 5.16796875 C61.45939667 5.17120087 62.86019928 5.17456621 64.26100159 5.17805481 C67.17783384 5.18398359 70.09463677 5.18590143 73.01147461 5.18530273 C75.94610814 5.18522186 78.88058428 5.19211394 81.81518555 5.20581055 C103.56997836 5.30569531 125.42502003 5.36275654 146.817276 0.87922668 C150.26833508 0.17546762 152.63683847 0.00650489 156 1 C147.51963843 14.59126261 139.01896756 28.16893078 130.45166016 41.70556641 C127.96526467 45.63545958 125.48287225 49.56788032 123 53.5 C122.00001836 55.08334493 121.00001838 56.66667828 120 58.25 C119.505 59.03375 119.01 59.8175 118.5 60.625 C114 67.75 114 67.75 112.49731445 70.12915039 C111.50614358 71.69857161 110.51509364 73.26806921 109.52416992 74.83764648 C106.89011605 79.00949808 104.25343741 83.17966336 101.61328125 87.34765625 C101.06091797 88.22035156 100.50855469 89.09304688 99.93945312 89.9921875 C98.87511529 91.6736624 97.81004069 93.35467122 96.74414062 95.03515625 C96.26783203 95.78796875 95.79152344 96.54078125 95.30078125 97.31640625 C94.87966064 97.98099854 94.45854004 98.64559082 94.0246582 99.33032227 C92.32803591 102.09496364 91.84236657 103.91199242 91.68359375 107.1328125 C91.64169922 107.93847656 91.59980469 108.74414062 91.55664062 109.57421875 C91.51732422 110.41597656 91.47800781 111.25773437 91.4375 112.125 C91.37272461 113.39923828 91.37272461 113.39923828 91.30664062 114.69921875 C91.20045764 116.79928223 91.09971503 118.89961948 91 121 C86.43810458 121.88135537 82.08173859 122.16406792 77.4375 122.1875 C76.15746094 122.20167969 74.87742187 122.21585937 73.55859375 122.23046875 C70.21178124 122.0137158 67.99037519 121.45213997 65 120 C65.05542969 118.98164063 65.11085938 117.96328125 65.16796875 116.9140625 C65.39683435 104.72296043 61.49081028 97.30339278 54.67382812 87.45117188 C52.30285043 83.97908669 50.07168771 80.42381712 47.83032227 76.8671875 C46.05800286 74.0553652 44.27131817 71.25317562 42.48046875 68.453125 C39.26267557 63.41627006 36.0641418 58.36753401 32.875 53.3125 C32.14422241 52.15439819 32.14422241 52.15439819 31.39868164 50.97290039 C30.42160334 49.42422235 29.44463343 47.87547591 28.46777344 46.32666016 C26.48047616 43.17647002 24.49148837 40.02734933 22.50219727 36.87841797 C21.50747756 35.30348552 20.51316842 33.72829369 19.51928711 32.15283203 C16.91608772 28.02728129 14.30535535 23.90675244 11.68359375 19.79296875 C10.86858398 18.51099609 10.86858398 18.51099609 10.03710938 17.203125 C9.00038898 15.57272711 7.96146222 13.94372926 6.91992188 12.31640625 C4.37188348 8.30385745 2.03360607 4.3068627 0 0 Z " fill="#7747D3" transform="translate(178,208)"></path><path d="M0 0 C0 4.29 0 8.58 0 13 C-0.90016846 13.01981934 -1.80033691 13.03963867 -2.7277832 13.06005859 C-43.26917438 11.36917273 -43.26917438 11.36917273 -79 22 C-66.74454352 25.55047783 -54.52114924 27.27866165 -41.85742188 28.67456055 C-39.78238713 28.91089183 -37.71335081 29.20189168 -35.65014648 29.52563477 C-28.85269457 30.3737109 -21.96871468 30.18595331 -15.12890625 30.203125 C-14.36206953 30.20595238 -13.59523281 30.20877975 -12.80515862 30.21169281 C-8.73037252 30.22664513 -4.65562133 30.23589411 -0.58081055 30.24023438 C2.73440784 30.24458252 6.04936061 30.2583358 9.36450195 30.28125 C49.13234002 30.61596829 49.13234002 30.61596829 88 23 C88.66 22.34 89.32 21.68 90 21 C87.00085281 20.34998322 84.00078199 19.70488963 81 19.0625 C80.16082031 18.88009766 79.32164062 18.69769531 78.45703125 18.50976562 C73.31357169 17.41329169 68.22798341 16.57483614 63 16 C63.33 11.71 63.66 7.42 64 3 C77.51894777 3.82432608 95.43484349 5.23760117 106.3125 14.3125 C108.55213908 17.87933261 108.62170205 20.93727063 108 25 C106.83895366 27.8791769 105.21719714 30.35946251 103.5 32.9375 C102.7738147 34.07554077 102.7738147 34.07554077 102.03295898 35.23657227 C100.95803079 36.9166601 99.87482638 38.59147314 98.78466797 40.26171875 C96.88041608 43.18348198 95.00256318 46.12103017 93.12890625 49.0625 C90.40255338 53.3398374 87.66804584 57.61175271 84.92578125 61.87890625 C80.0533256 69.4665381 75.24104894 77.09154438 70.43554688 84.72167969 C67.96040421 88.64991631 65.47986832 92.57474565 63 96.5 C61.99997552 98.08331787 60.99997549 99.66665119 60 101.25 C54 110.75 54 110.75 52.49731445 113.12451172 C51.5005472 114.70588223 50.50946953 116.29085359 49.52416992 117.87939453 C47.0098622 121.91670883 44.42190306 125.84019479 41.61328125 129.6796875 C34.13164443 140.17209386 31.71582682 147.7580063 32.1875 160.68359375 C32.21262984 163.84267902 32.17358569 164.7349869 30.390625 167.45703125 C19.24137895 174.65303156 3.9087764 174.51160531 -8.625 171.8125 C-13.1393691 170.70654425 -17.27159807 168.89482556 -20 165 C-20.58395277 161.77531686 -20.30194648 158.63472755 -20.125 155.375 C-20.09534458 143.5885033 -24.52934085 136.62962716 -31.32275391 127.34277344 C-34.06602974 123.51097214 -36.51699712 119.50320034 -39 115.5 C-39.99857226 113.91576584 -40.99857411 112.33243187 -42 110.75 C-52 94.91666667 -62 79.08333333 -72 63.25 C-72.4957251 62.46512207 -72.9914502 61.68024414 -73.50219727 60.87158203 C-74.49494664 59.2996884 -75.48762329 57.72774884 -76.48022461 56.15576172 C-79.09054246 52.02200725 -81.70238839 47.8892284 -84.31640625 43.7578125 C-85.13141602 42.46907227 -85.13141602 42.46907227 -85.96289062 41.15429688 C-87.00148561 39.51207403 -88.04052248 37.87013053 -89.08007812 36.22851562 C-89.99678472 34.77863537 -90.91112023 33.32725186 -91.82250977 31.87402344 C-92.80952838 30.3031433 -93.80949 28.74040564 -94.8125 27.1796875 C-96.57096312 23.95198216 -96.4511664 21.60933118 -96 18 C-93.06108073 12.38933593 -87.70712367 10.11399191 -82 8 C-68.88416764 4.00558021 -55.63413858 2.02470798 -42 1 C-40.10507813 0.83371094 -40.10507813 0.83371094 -38.171875 0.6640625 C-25.46809687 -0.31928434 -12.7323636 -0.08734091 0 0 Z M-72 38 C-68.09006945 45.37776131 -63.90607151 52.48854091 -59.375 59.5 C-58.13511462 61.43340008 -56.89553659 63.3669973 -55.65625 65.30078125 C-55.04136719 66.25807129 -54.42648438 67.21536133 -53.79296875 68.20166016 C-51.13415761 72.35134607 -48.50301316 76.51826572 -45.875 80.6875 C-44.89324025 82.24349658 -43.91146946 83.79948619 -42.9296875 85.35546875 C-42.20604004 86.50281494 -42.20604004 86.50281494 -41.46777344 87.67333984 C-39.4808491 90.8229388 -37.49220244 93.97144842 -35.50341797 97.11987305 C-34.50489893 98.70067235 -33.50652541 100.28156359 -32.50830078 101.86254883 C-29.44070928 106.72082303 -26.37030487 111.57729303 -23.29418945 116.43017578 C-22.27236818 118.04796523 -21.25519823 119.66870276 -20.24291992 121.29248047 C-18.07968955 124.75840579 -15.9071901 128.17925429 -13.50390625 131.484375 C-7.40798072 140.22078165 -6.80158124 147.64502091 -7 158 C-2.75350125 160.06211935 0.74654463 160.23946426 5.4375 160.1875 C6.71496094 160.18105469 7.99242187 160.17460937 9.30859375 160.16796875 C12.62845955 160.01690607 15.74128595 159.62958154 19 159 C18.94457031 157.90945313 18.88914062 156.81890625 18.83203125 155.6953125 C18.61119727 143.1429405 22.2537324 135.57349845 29.32617188 125.43505859 C31.70523114 121.97404094 33.93177348 118.42271032 36.16967773 114.86938477 C37.94134406 112.05639654 39.72822732 109.25364179 41.51953125 106.453125 C44.73732443 101.41627006 47.9358582 96.36753401 51.125 91.3125 C51.61218506 90.54043213 52.09937012 89.76836426 52.60131836 88.97290039 C53.57839666 87.42422235 54.55536657 85.87547591 55.53222656 84.32666016 C57.51952384 81.17647002 59.50851163 78.02734933 61.49780273 74.87841797 C62.49252244 73.30348552 63.48683158 71.72829369 64.48071289 70.15283203 C67.08391228 66.02728129 69.69464465 61.90675244 72.31640625 57.79296875 C73.13141602 56.51099609 73.13141602 56.51099609 73.96289062 55.203125 C74.99961102 53.57272711 76.03853778 51.94372926 77.08007812 50.31640625 C79.62811652 46.30385745 81.96639393 42.3068627 84 38 C82.3747496 38.2031563 80.74950223 38.40633686 79.12426758 38.60961914 C77.68925881 38.78889216 76.25419882 38.96775553 74.8190918 39.14624023 C71.15546032 39.60245101 67.49277712 40.06411493 63.83203125 40.54296875 C63.15720703 40.6301416 62.48238281 40.71731445 61.78710938 40.80712891 C59.92681206 41.04771632 58.06690776 41.29133712 56.20703125 41.53515625 C45.41544344 42.79478502 34.67784868 43.15134242 23.8203125 43.1328125 C22.39509057 43.133489 20.96986876 43.13446187 19.54464722 43.13571167 C16.57809332 43.13717337 13.61156984 43.13508449 10.64501953 43.13037109 C6.88812386 43.12468529 3.13129985 43.12795539 -0.62559319 43.13394356 C-3.5634106 43.13759982 -6.50121172 43.13638747 -9.43902969 43.13381577 C-10.82217544 43.13315986 -12.20532278 43.1339267 -13.58846664 43.13629532 C-26.98424584 43.15420697 -40.17475967 42.44558718 -53.4375 40.5 C-55.26947828 40.23921098 -57.1015087 39.97878788 -58.93359375 39.71875 C-59.78679199 39.59628906 -60.63999023 39.47382813 -61.51904297 39.34765625 C-65.00819596 38.85872161 -68.50257691 38.42541755 -72 38 Z " fill="#FCFAFE" transform="translate(250,170)"></path><path d="M0 0 C4.29 0 8.58 0 13 0 C13.10771702 4.58395782 13.18719721 9.16539636 13.25 13.75 C13.30027344 15.70292969 13.30027344 15.70292969 13.3515625 17.6953125 C13.36445313 18.94570313 13.37734375 20.19609375 13.390625 21.484375 C13.41157227 22.63647461 13.43251953 23.78857422 13.45410156 24.97558594 C13 28 13 28 9 32 C3.06 32.495 3.06 32.495 -3 33 C3.93 39.93 10.86 46.86 18 54 C21.7654902 52.1172549 23.64643414 50.58807351 26.546875 47.6484375 C27.39121094 46.79765625 28.23554688 45.946875 29.10546875 45.0703125 C29.97816406 44.18085938 30.85085938 43.29140625 31.75 42.375 C32.63816406 41.4778125 33.52632813 40.580625 34.44140625 39.65625 C36.63216969 37.44192996 38.81812763 35.22307565 41 33 C39.77023437 32.96132813 39.77023437 32.96132813 38.515625 32.921875 C37.43796875 32.86515625 36.3603125 32.8084375 35.25 32.75 C34.18265625 32.70359375 33.1153125 32.6571875 32.015625 32.609375 C28.3442387 31.86748865 27.12587465 31.07127258 25 28 C24.54589844 24.97558594 24.54589844 24.97558594 24.609375 21.484375 C24.62226563 20.23398437 24.63515625 18.98359375 24.6484375 17.6953125 C24.68195313 16.39335937 24.71546875 15.09140625 24.75 13.75 C24.76804687 12.43257813 24.78609375 11.11515625 24.8046875 9.7578125 C24.85183118 6.50489844 24.92357384 3.25235783 25 0 C29.29 0 33.58 0 38 0 C38 6.6 38 13.2 38 20 C39.62550781 19.95359375 41.25101562 19.9071875 42.92578125 19.859375 C45.05466917 19.82186156 47.1835769 19.78546094 49.3125 19.75 C50.38435547 19.71648437 51.45621094 19.68296875 52.56054688 19.6484375 C53.58857422 19.63554687 54.61660156 19.62265625 55.67578125 19.609375 C56.62364502 19.58842773 57.57150879 19.56748047 58.5480957 19.54589844 C61 20 61 20 62.89526367 21.64941406 C64.4049193 24.8615609 63.87198269 26.59338087 63 30 C61.40156555 32.23335266 61.40156555 32.23335266 59.30981445 34.3371582 C58.52842606 35.1343074 57.74703766 35.9314566 56.94197083 36.75276184 C56.09100327 37.59360825 55.24003571 38.43445465 54.36328125 39.30078125 C53.49108444 40.17776169 52.61888763 41.05474213 51.72026062 41.95829773 C49.4023106 44.28051699 47.07260399 46.59013907 44.73858643 48.8961792 C43.3137111 50.3112972 41.89896245 51.73576941 40.48754883 53.16430664 C37.77185461 55.91089072 35.03941339 58.63958742 32.30078125 61.36328125 C31.45993484 62.21424881 30.61908844 63.06521637 29.75276184 63.94197083 C28.95561264 64.72335922 28.15846344 65.50474762 27.3371582 66.30981445 C26.29577446 67.34523125 26.29577446 67.34523125 25.23335266 68.40156555 C22.41264196 70.42037845 20.45822297 70.90055308 17 71 C14.95176697 69.84449768 14.95176697 69.84449768 13.13647461 68.05688477 C12.45704803 67.40559601 11.77762146 66.75430725 11.0776062 66.08328247 C10.39199615 65.39579926 9.70638611 64.70831604 9 64 C8.33847931 63.3702829 7.67695862 62.7405658 6.99539185 62.09176636 C2.57590081 57.88457203 -1.74371539 53.57286648 -6.07495117 49.27514648 C-7.65722061 47.70955489 -9.24485198 46.14936482 -10.83764648 44.59448242 C-13.15266167 42.33410587 -15.45090666 40.05783011 -17.74609375 37.77734375 C-18.45954453 37.08656235 -19.1729953 36.39578094 -19.9080658 35.68406677 C-22.82094032 32.75851404 -24.75413415 30.69740035 -26.14086914 26.76391602 C-26 24 -26 24 -24.89526367 21.64941406 C-22.37650909 19.45738702 -20.98513191 19.53624018 -17.67578125 19.609375 C-16.13374023 19.62871094 -16.13374023 19.62871094 -14.56054688 19.6484375 C-13.48869141 19.68195313 -12.41683594 19.71546875 -11.3125 19.75 C-10.22904297 19.76804687 -9.14558594 19.78609375 -8.02929688 19.8046875 C-5.35248842 19.85185593 -2.67613366 19.92359967 0 20 C0 13.4 0 6.8 0 0 Z " fill="#FBFAFD" transform="translate(237,358)"></path><path d="M0 0 C1.31806641 -0.00515625 2.63613281 -0.0103125 3.99414062 -0.015625 C5.02027466 -0.00305664 5.02027466 -0.00305664 6.06713867 0.00976562 C8.15076629 0.03115361 10.23093341 0.00997288 12.31445312 -0.015625 C13.63380859 -0.01046875 14.95316406 -0.0053125 16.3125 0 C17.51769287 0.00451172 18.72288574 0.00902344 19.96459961 0.01367188 C23.92911242 0.64347833 25.56811676 1.52342727 28.22265625 4.53125 C28.86962891 7.65991211 28.86962891 7.65991211 28.88671875 11.30859375 C28.89638672 13.28569336 28.89638672 13.28569336 28.90625 15.30273438 C28.89577637 15.98682373 28.88530273 16.67091309 28.87451172 17.37573242 C28.84776816 19.46002798 28.87424332 21.53891992 28.90625 23.62304688 C28.89980469 24.94240234 28.89335937 26.26175781 28.88671875 27.62109375 C28.87825928 29.42888306 28.87825928 29.42888306 28.86962891 31.27319336 C28.02598148 35.52167444 26.6934276 36.98403281 23.22265625 39.53125 C20.07226562 40.17822266 20.07226562 40.17822266 16.56640625 40.1953125 C14.66181641 40.20498047 14.66181641 40.20498047 12.71875 40.21484375 C11.40003906 40.19550781 10.08132813 40.17617187 8.72265625 40.15625 C6.74458984 40.18525391 6.74458984 40.18525391 4.7265625 40.21484375 C3.45683594 40.20839844 2.18710937 40.20195312 0.87890625 40.1953125 C-0.27802734 40.18967285 -1.43496094 40.1840332 -2.62695312 40.17822266 C-6.80576069 39.32005154 -8.26654934 37.94912915 -10.77734375 34.53125 C-11.40844727 31.27319336 -11.40844727 31.27319336 -11.40625 27.62109375 C-11.40818359 26.30173828 -11.41011719 24.98238281 -11.41210938 23.62304688 C-11.39962158 22.94105225 -11.38713379 22.25905762 -11.37426758 21.55639648 C-11.33987219 19.47047449 -11.35363842 17.38877522 -11.37304688 15.30273438 C-11.29972086 5.30595376 -11.29972086 5.30595376 -9.16552734 2.14086914 C-5.9768625 -0.0082688 -3.83047966 0.01435309 0 0 Z " fill="#FBF9FD" transform="translate(272.77734375,146.46875)"></path><path d="M0 0 C1.01151878 -0.00786278 1.01151878 -0.00786278 2.04347229 -0.0158844 C3.46817652 -0.02230064 4.89293376 -0.02097264 6.31762695 -0.01245117 C8.49331447 -0.00394765 10.66636928 -0.03268967 12.84179688 -0.06445312 C14.2278638 -0.06606552 15.61393536 -0.06548687 17 -0.0625 C18.25868896 -0.06435303 19.51737793 -0.06620605 20.81420898 -0.06811523 C24.06640625 0.43359375 24.06640625 0.43359375 26.47485352 2.04101562 C28.59829889 5.23318692 28.58334211 7.39085069 28.59765625 11.2109375 C28.60539062 13.18803711 28.60539062 13.18803711 28.61328125 15.20507812 C28.60071289 16.23121216 28.60071289 16.23121216 28.58789062 17.27807617 C28.56650264 19.36170379 28.58768337 21.44187091 28.61328125 23.52539062 C28.608125 24.84474609 28.60296875 26.16410156 28.59765625 27.5234375 C28.59314453 28.72863037 28.58863281 29.93382324 28.58398438 31.17553711 C27.95403284 35.14096314 27.07785332 36.781062 24.06640625 39.43359375 C20.921875 40.06469727 20.921875 40.06469727 17.25390625 40.0625 C16.60317139 40.06491196 15.95243652 40.06732391 15.28198242 40.06980896 C13.91025683 40.06883227 12.53849097 40.05548027 11.16699219 40.03051758 C9.07220034 39.9961887 6.98162665 40.00986314 4.88671875 40.02929688 C3.55076337 40.02239802 2.21481884 40.01272524 0.87890625 40 C-0.93673828 39.9836853 -0.93673828 39.9836853 -2.7890625 39.96704102 C-5.93359375 39.43359375 -5.93359375 39.43359375 -8.32836914 37.85351562 C-10.54216185 34.51615999 -10.43536837 32.13566699 -10.4296875 28.1484375 C-10.43114273 27.45093887 -10.43259796 26.75344025 -10.43409729 26.0348053 C-10.43244164 24.56474619 -10.42091752 23.09466915 -10.40014648 21.62475586 C-10.37114076 19.3747406 -10.37955175 17.12707572 -10.39257812 14.87695312 C-10.38634167 13.44660314 -10.37795145 12.01626058 -10.3671875 10.5859375 C-10.35743896 9.28648193 -10.34769043 7.98702637 -10.33764648 6.64819336 C-9.93359375 3.43359375 -9.93359375 3.43359375 -8.83984375 1.51367188 C-5.90854797 -0.14719551 -3.34739045 0.02594876 0 0 Z " fill="#FCFBFE" transform="translate(259.93359375,82.56640625)"></path><path d="M0 0 C1.08166443 -0.00218285 1.08166443 -0.00218285 2.18518066 -0.00440979 C3.70829309 -0.00275137 5.23142237 0.0088039 6.75439453 0.02954102 C9.08568501 0.05849359 11.41470092 0.05015179 13.74609375 0.03710938 C15.22657355 0.04334713 16.70704617 0.05173836 18.1875 0.0625 C18.8844397 0.05956436 19.58137939 0.05662872 20.29943848 0.05360413 C23.0212341 0.10665429 25.13419773 0.23644005 27.52954102 1.58984375 C29.16746601 4.52375482 29.00145868 7.09051307 29.02734375 10.4296875 C29.0325856 11.10403336 29.03782745 11.77837921 29.04322815 12.47315979 C29.04964439 13.89786402 29.04831639 15.32262126 29.03979492 16.74731445 C29.0312914 18.92300197 29.06003342 21.09605678 29.09179688 23.27148438 C29.09340927 24.6575513 29.09283062 26.04362286 29.08984375 27.4296875 C29.09262329 29.31772095 29.09262329 29.31772095 29.09545898 31.24389648 C28.59375 34.49609375 28.59375 34.49609375 27.00219727 36.90234375 C23.7423085 39.05952103 21.45724351 39.02867406 17.5625 39.0625 C16.88956909 39.06869858 16.21663818 39.07489716 15.52331543 39.08128357 C14.10458824 39.08836816 12.68577768 39.08523126 11.26708984 39.07250977 C9.09967834 39.05863171 6.93657883 39.09273311 4.76953125 39.13085938 C3.38801978 39.13181058 2.00650292 39.12995166 0.625 39.125 C-1.25348633 39.12608765 -1.25348633 39.12608765 -3.16992188 39.12719727 C-6.40625 38.49609375 -6.40625 38.49609375 -8.81469727 36.375 C-10.7225209 32.92400195 -10.90860461 30.73514428 -10.90234375 26.8046875 C-10.90298828 25.53044922 -10.90363281 24.25621094 -10.90429688 22.94335938 C-10.89390381 22.28505127 -10.88351074 21.62674316 -10.87280273 20.94848633 C-10.84377785 18.93552525 -10.85221823 16.92519106 -10.86523438 14.91210938 C-10.80250368 5.38186936 -10.80250368 5.38186936 -9.34204102 2.1171875 C-6.45825577 -0.29778716 -3.59163566 -0.05789361 0 0 Z " fill="#FCFBFE" transform="translate(208.40625,121.50390625)"></path><path d="M0 0 C4.29 0 8.58 0 13 0 C13 4.29 13 8.58 13 13 C8.71 13 4.42 13 0 13 C0 8.71 0 4.42 0 0 Z " fill="#8452DE" transform="translate(275,160)"></path><path d="M0 0 C4.29 0 8.58 0 13 0 C13 4.29 13 8.58 13 13 C8.71 13 4.42 13 0 13 C0 8.71 0 4.42 0 0 Z " fill="#8252DB" transform="translate(211,134)"></path><path d="M0 0 C4.29 0 8.58 0 13 0 C13 4.29 13 8.58 13 13 C8.71 13 4.42 13 0 13 C0 8.71 0 4.42 0 0 Z " fill="#8957E2" transform="translate(262,96)"></path></svg>