<svg version="1.1" xmlns="http://www.w3.org/2000/svg" width="16px" height="16px" fill="currentColor" viewBox="0 0 512 512"><path d="M0 0 C168.96 0 337.92 0 512 0 C512 168.96 512 337.92 512 512 C343.04 512 174.08 512 0 512 C0 343.04 0 174.08 0 0 Z " fill="#7646D3" transform="translate(0,0)"></path><path d="M0 0 C3.58536258 3.50103406 4.46380174 6.08757499 4.53100586 11.08769226 C4.52133789 11.87537491 4.51166992 12.66305756 4.50170898 13.47460938 C4.50981346 14.73649834 4.50981346 14.73649834 4.51808167 16.02388 C4.53056256 18.79753073 4.51408242 21.57014215 4.49609375 24.34375 C4.49624875 26.27518773 4.49773795 28.20662577 4.50050354 30.13806152 C4.50188725 34.1831642 4.48933413 38.2279122 4.46655273 42.27294922 C4.43816829 47.45489126 4.44090585 52.63624403 4.45364285 57.81822968 C4.46060182 61.8056948 4.45280822 65.79302403 4.44038582 69.7804718 C4.43587345 71.69101948 4.43553264 73.60158175 4.43945122 75.51213074 C4.44236556 78.18352098 4.42584592 80.85410263 4.40405273 83.52539062 C4.41080521 84.7069146 4.41080521 84.7069146 4.41769409 85.91230774 C4.33413943 92.08469096 2.73650953 95.12639761 -1.375 99.5625 C-13.6855638 109.39234565 -34.33442209 107.86116273 -49 107 C-56.90661856 105.99242221 -64.43438029 102.82607974 -70 97 C-73.0252287 92.94746881 -73.45368328 89.6911778 -73.6875 84.6875 C-73.75324219 83.43324219 -73.81898438 82.17898437 -73.88671875 80.88671875 C-73.92410156 79.93410156 -73.96148437 78.98148437 -74 78 C-74.73863281 78.68964844 -75.47726562 79.37929687 -76.23828125 80.08984375 C-82.09414201 85.52527376 -88.04827177 90.73187525 -94.2734375 95.74609375 C-98.10310833 98.91188182 -101.74948413 102.26245667 -105.40625 105.625 C-108.885275 108.81061325 -112.43311043 111.91346518 -116 115 C-114.94269053 118.38339029 -113.43146499 120.8271028 -111.25 123.5625 C-99.96423309 138.31657576 -96.30411455 155.80168355 -98 174 C-98.99613528 179.64688155 -100.84898822 184.70664059 -103 190 C-101.11474609 190.59748047 -101.11474609 190.59748047 -99.19140625 191.20703125 C-93.63610136 193.05879955 -88.30142181 195.34708318 -82.9375 197.6875 C-81.97650391 198.10322266 -81.01550781 198.51894531 -80.02539062 198.94726562 C-77.68212514 199.96151487 -75.34039113 200.97914002 -73 202 C-73.03480469 200.83082031 -73.06960938 199.66164063 -73.10546875 198.45703125 C-73.13361716 196.90886859 -73.16091619 195.36069032 -73.1875 193.8125 C-73.22520508 192.65911133 -73.22520508 192.65911133 -73.26367188 191.48242188 C-73.32414468 186.78570083 -73.01054084 183.83224139 -70 180 C-60.60467534 171.03173555 -50.15112871 170.72853543 -37.75 170.8515625 C-28.082273 171.23424336 -17.93765441 172.94909647 -10.89637756 180.15187073 C-8.52629258 183.71145113 -8.4876527 185.82722189 -8.46655273 190.08178711 C-8.45793716 190.77513657 -8.44932159 191.46848602 -8.44044495 192.18284607 C-8.41782424 194.46472989 -8.42451608 196.74538157 -8.43359375 199.02734375 C-8.42835609 200.62008528 -8.42207909 202.2128237 -8.41481018 203.80555725 C-8.40441302 207.14029558 -8.40895682 210.47460702 -8.42358398 213.80932617 C-8.44076467 218.07450685 -8.41728338 222.33833946 -8.38209438 226.60336971 C-8.36009054 229.89177815 -8.36156905 233.17986556 -8.3698597 236.46832466 C-8.37067772 238.04034465 -8.36384276 239.61238856 -8.34908867 241.18433952 C-8.33158702 243.38666487 -8.34622696 245.58658787 -8.36889648 247.78881836 C-8.36985825 249.03948593 -8.37082001 250.2901535 -8.37181091 251.57872009 C-9.20823822 256.13411907 -10.75247849 257.73731078 -14 261 C-16.8671875 262.64453125 -16.8671875 262.64453125 -19.875 263.8125 C-20.86242187 264.21082031 -21.84984375 264.60914063 -22.8671875 265.01953125 C-34.3213893 268.60432508 -50.97456215 269.19105122 -62 264 C-66.91449374 261.2697257 -70.4626986 258.07460281 -73 253 C-73.15676775 250.30344554 -73.25836315 247.62870023 -73.31640625 244.9296875 C-73.33718735 244.13345978 -73.35796844 243.33723206 -73.37937927 242.51687622 C-73.44484149 239.96967315 -73.50374415 237.42236575 -73.5625 234.875 C-73.6056884 233.14972873 -73.64930279 231.42446807 -73.69335938 229.69921875 C-73.80051945 225.46625315 -73.90179623 221.23318247 -74 217 C-78.4775521 214.9730823 -82.96153407 212.96143505 -87.45214844 210.96362305 C-88.97875092 210.28190713 -90.5035149 209.59605851 -92.02636719 208.90600586 C-94.21599352 207.91467894 -96.41180721 206.93841534 -98.609375 205.96484375 C-99.2886908 205.65344955 -99.96800659 205.34205536 -100.66790771 205.02122498 C-103.33348321 203.85417108 -105.40980699 202.95237706 -108.34790039 203.18945312 C-110.87204827 204.42784103 -112.04453783 206.30644084 -113.6875 208.5625 C-121.32707036 218.41684489 -130.16687774 224.20589762 -141 230 C-139.09927117 236.04581172 -136.87460271 241.81598148 -134.2421875 247.578125 C-133.52732485 249.16665816 -132.81248167 250.75520008 -132.09765625 252.34375 C-130.98206682 254.8085963 -129.86472518 257.27263929 -128.74658203 259.73632812 C-127.65749896 262.14001868 -126.5746329 264.54643973 -125.4921875 266.953125 C-125.15677948 267.68654114 -124.82137146 268.41995728 -124.47579956 269.17559814 C-122.86043127 272.77132342 -121.55587476 276.0597439 -121 280 C-120.31035156 280.01417969 -119.62070312 280.02835937 -118.91015625 280.04296875 C-111.96152009 280.39564301 -106.57587717 281.69031161 -101 286 C-98.33715825 288.98915976 -97.62147539 290.87154905 -97.59594727 294.85693359 C-97.57692101 296.29895645 -97.57692101 296.29895645 -97.55751038 297.77011108 C-97.56191383 299.31863266 -97.56191383 299.31863266 -97.56640625 300.8984375 C-97.5611644 301.96615387 -97.55592255 303.03387024 -97.55052185 304.13394165 C-97.54410093 306.39169445 -97.54543953 308.64948069 -97.55395508 310.90722656 C-97.56245177 314.35542703 -97.53372432 317.80196374 -97.50195312 321.25 C-97.50034065 323.445312 -97.50091953 325.64062694 -97.50390625 327.8359375 C-97.49267227 328.86423676 -97.48143829 329.89253601 -97.46986389 330.95199585 C-97.52800046 336.94883155 -98.00624672 340.42951123 -102 345 C-103.9296875 346.42578125 -103.9296875 346.42578125 -105.875 347.3125 C-106.51179687 347.61800781 -107.14859375 347.92351562 -107.8046875 348.23828125 C-117.53389064 351.61407237 -131.31781206 351.45871342 -141.04296875 347.99609375 C-144.06725684 346.45678544 -145.86049497 344.62261907 -148 342 C-148.33 341.67 -148.66 341.34 -149 341 C-149.11944501 339.40062588 -149.17011937 337.79604957 -149.19287109 336.19238281 C-149.20893402 335.1675177 -149.22499695 334.14265259 -149.24154663 333.08673096 C-149.28585815 328.3852999 -149.32707504 323.68401287 -149.35009766 318.98242188 C-149.36665208 316.50120664 -149.39393493 314.02003899 -149.43212891 311.5390625 C-149.48684839 307.96849733 -149.50876676 304.39905283 -149.5234375 300.828125 C-149.54610687 299.71963196 -149.56877625 298.61113892 -149.59213257 297.46905518 C-149.57096495 289.76359256 -149.57096495 289.76359256 -146.66259766 285.87402344 C-139.73762376 281 -139.73762376 281 -135 281 C-138.77350372 270.79389871 -143.10281631 260.93307222 -147.64501953 251.05322266 C-148.51258336 249.16247603 -149.37375141 247.26891344 -150.234375 245.375 C-150.74194336 244.26898438 -151.24951172 243.16296875 -151.77246094 242.0234375 C-152.87226552 239.31461095 -153.55184827 236.8788732 -154 234 C-155.46373047 234.23976563 -155.46373047 234.23976563 -156.95703125 234.484375 C-176.31722231 237.22719031 -193.58937794 233.02855964 -209.7734375 222.1328125 C-211.91776857 220.48614189 -213.96983072 218.78471849 -216 217 C-217.03640625 216.12408203 -217.03640625 216.12408203 -218.09375 215.23046875 C-219.74135924 213.83457759 -221.37272205 212.41954034 -223 211 C-224.32048761 212.11733567 -225.64096924 213.2346784 -226.96142578 214.35205078 C-228.12766849 215.33882078 -229.29401223 216.32547138 -230.46044922 217.31201172 C-233.43298668 219.8263791 -236.40415862 222.34230454 -239.37109375 224.86328125 C-258.45845529 241.07130491 -258.45845529 241.07130491 -262.11608887 243.27482605 C-264.22857572 244.86743301 -264.22857572 244.86743301 -264.49206543 247.48432922 C-264.48888306 248.47216904 -264.48570068 249.46000885 -264.48242188 250.4777832 C-264.49263367 252.16016838 -264.49263367 252.16016838 -264.50305176 253.87654114 C-264.48607239 255.69528999 -264.48607239 255.69528999 -264.46875 257.55078125 C-264.47579956 258.79748093 -264.48284912 260.0441806 -264.4901123 261.32865906 C-264.51596286 265.99923072 -264.50660494 270.66925038 -264.49493408 275.33984375 C-264.4854017 279.91041524 -264.50546519 284.48029416 -264.53125 289.05078125 C-264.51993042 290.25720779 -264.50861084 291.46363434 -264.49694824 292.70661926 C-264.53538218 299.09196936 -264.62017776 303.1842398 -269 308 C-281.63247926 319.4148909 -302.38916677 318.91018087 -318.22949219 318.18017578 C-329.73629091 317.43184855 -343.16984917 315.45337386 -351.265625 306.4921875 C-354.36724782 302.0353511 -354.15948529 297.90533638 -354.17700195 292.67651367 C-354.18685875 291.40284187 -354.18685875 291.40284187 -354.19691467 290.10343933 C-354.21663587 287.29161491 -354.22830721 284.47984385 -354.23828125 281.66796875 C-354.24235678 280.70734339 -354.2464323 279.74671803 -354.25063133 278.7569828 C-354.27148633 273.6731958 -354.28579093 268.58943575 -354.29516602 263.50561523 C-354.30623357 258.25644488 -354.34063917 253.00769806 -354.38033772 247.75867748 C-354.40648771 243.72059849 -354.41485638 239.68262071 -354.41844749 235.64446449 C-354.42331706 233.70958913 -354.43494158 231.77471839 -354.45348549 229.83992577 C-354.47784415 227.13016586 -354.47691806 224.42150589 -354.4699707 221.71166992 C-354.48278076 220.91508972 -354.49559082 220.11850952 -354.50878906 219.29779053 C-354.46003917 214.07193593 -353.395423 211.18187706 -350 207 C-338.72710741 195.97217029 -321.69392762 196.64153407 -307.11206055 196.61962891 C-292.98765211 196.80021495 -277.37512865 198.76216854 -266.85546875 209.109375 C-264.37056034 212.98060074 -264.54157153 215.82727975 -264.75 220.3125 C-264.76804687 221.05306641 -264.78609375 221.79363281 -264.8046875 222.55664062 C-264.85152663 224.3716571 -264.92326211 226.18600166 -265 228 C-259.21211725 223.46571397 -253.56436955 218.80407736 -248 214 C-242.43563045 209.19592264 -236.78788275 204.53428603 -231 200 C-232.18599056 196.33613632 -233.48066509 192.78720158 -235 189.25 C-241.27842411 173.36652408 -240.74704152 155.93410509 -235 140 C-234.45080282 138.36970601 -233.90537938 136.73813702 -233.36328125 135.10546875 C-232.97523315 133.93794067 -232.97523315 133.93794067 -232.5793457 132.74682617 C-232.38816162 132.17037354 -232.19697754 131.5939209 -232 131 C-239.66169557 124.31023342 -247.33336479 117.65569594 -255.2421875 111.2578125 C-258.44954924 108.63195544 -261.59844654 105.94227959 -264.75 103.25 C-269.02566723 99.60419384 -273.3391215 96.14338317 -278 93 C-278 94.051875 -278 95.10375 -278 96.1875 C-279.04796586 100.18286985 -279.23562436 100.66073649 -282.4375 102.8125 C-292.22223874 108.05863859 -305.06318776 108.48951134 -315.8515625 106.46484375 C-320.83073291 104.94111769 -325.31456484 102.77223483 -328.10975647 98.1746521 C-329.1290749 95.68470087 -329.27251496 93.82911953 -329.30639648 91.14306641 C-329.33037758 89.70104355 -329.33037758 89.70104355 -329.35484314 88.22988892 C-329.36288719 86.68136734 -329.36288719 86.68136734 -329.37109375 85.1015625 C-329.38463646 83.49998795 -329.38463646 83.49998795 -329.39845276 81.86605835 C-329.41295382 79.60832523 -329.42184163 77.3505501 -329.42553711 75.09277344 C-329.43743287 71.64445984 -329.48662174 68.197936 -329.53710938 64.75 C-329.54657388 62.55469622 -329.55380878 60.35938147 -329.55859375 58.1640625 C-329.57812607 57.13576324 -329.59765839 56.10746399 -329.61778259 55.04800415 C-329.5675414 47.04895664 -329.5675414 47.04895664 -326.72338867 43.44873047 C-319.95140267 37.35971033 -313.01696574 36.32282317 -304.125 36.5 C-303.15699463 36.51208496 -302.18898926 36.52416992 -301.19165039 36.53662109 C-292.70808736 36.77241456 -285.99768122 37.82903473 -279.2421875 43.1875 C-275.11598283 48.40248669 -276.49378054 56.07217284 -276.6875 62.375 C-276.71260613 63.79292958 -276.73541525 65.21090179 -276.75585938 66.62890625 C-276.81069176 70.08682988 -276.89683389 73.54314188 -277 77 C-276.39728271 77.28431885 -275.79456543 77.5686377 -275.17358398 77.86157227 C-272.1167595 79.46260254 -269.65359402 81.68908148 -267.0625 83.9375 C-265.8998054 84.93367057 -264.73704306 85.92976209 -263.57421875 86.92578125 C-262.9817334 87.4357666 -262.38924805 87.94575195 -261.77880859 88.47119141 C-258.98879286 90.86908854 -256.18297452 93.24817946 -253.375 95.625 C-252.83576904 96.08173096 -252.29653809 96.53846191 -251.7409668 97.0090332 C-246.54453642 101.40154385 -241.27820686 105.70625066 -236 110 C-233.93645121 111.68622162 -231.8745333 113.37442421 -229.8125 115.0625 C-228.89082031 115.81660156 -227.96914062 116.57070312 -227.01953125 117.34765625 C-226.35308594 117.89292969 -225.68664062 118.43820313 -225 119 C-222.04799613 117.68870214 -220.24132462 116.35697382 -218.125 113.9375 C-205.37628227 100.88913293 -187.21728168 93.94212796 -169.1875 93.6875 C-155.99901571 93.74929447 -143.19706571 97.38573096 -132 104.4375 C-131.01 104.953125 -130.02 105.46875 -129 106 C-120.50566607 103.02698312 -113.02776021 94.17753174 -106.48242188 88.08813477 C-102.40242197 84.31281873 -98.13629532 80.81615058 -93.8046875 77.33203125 C-89.63598844 73.86585668 -85.68791326 70.18022088 -81.7265625 66.48046875 C-79 64 -79 64 -76.3671875 62.58300781 C-72.50907057 58.37314012 -73.33303001 53.69592803 -73.3984375 48.19140625 C-73.39043121 47.03253403 -73.38242493 45.8736618 -73.37417603 44.67967224 C-73.35106907 40.97359372 -73.36058589 37.26860858 -73.375 33.5625 C-73.37884533 29.86016652 -73.37542207 26.15831823 -73.35440063 22.45603943 C-73.34229831 20.15224611 -73.34500177 17.84831682 -73.36410522 15.54457092 C-73.36044952 14.49675949 -73.35679382 13.44894806 -73.35302734 12.36938477 C-73.35899429 10.99182762 -73.35899429 10.99182762 -73.36508179 9.58644104 C-72.622305 4.32420001 -69.25368414 0.62561632 -65.21875 -2.57421875 C-48.41953761 -13.36948728 -16.17539852 -10.94000236 0 0 Z " fill="#FCFBFE" transform="translate(431,85)"></path><path d="M0 0 C10.90254961 9.39223971 18.50318876 22.57156873 20.3125 36.9375 C21.28380601 54.62647668 17.35545508 70.2071713 5.5625 83.875 C-6.58723555 96.37344397 -21.55165009 102.05167386 -38.75 102.3125 C-54.09978685 102.38179545 -67.37111047 96.12430177 -78.5 85.625 C-90.42687199 73.01780732 -95.17138837 57.30972899 -94.89453125 40.29296875 C-94.37318688 25.51301575 -87.48991159 12.89969333 -77.34765625 2.375 C-55.04216886 -18.06350827 -23.50011805 -17.86271177 0 0 Z " fill="#7848D4" transform="translate(299.6875,205.0625)"></path><path d="M0 0 C0.68798676 -0.00239685 1.37597351 -0.0047937 2.08480835 -0.00726318 C12.31404729 -0.00756167 21.71074109 0.48790026 30.875 5.4375 C33.37518412 7.93768412 33.11013727 9.41607297 33.12384033 12.82670593 C33.1130545 13.95203484 33.1130545 13.95203484 33.10205078 15.10009766 C33.10234283 15.89042892 33.10263489 16.68076019 33.10293579 17.49504089 C33.10153962 20.11399214 33.08596505 22.7326608 33.0703125 25.3515625 C33.06658339 27.16474248 33.06373594 28.97792447 33.06173706 30.79110718 C33.05409257 35.56857851 33.03443712 40.34592867 33.0123291 45.12335205 C32.9918882 49.99628052 32.98273911 54.86922853 32.97265625 59.7421875 C32.95119197 69.30734497 32.91704623 78.87241242 32.875 88.4375 C31.46588336 89.24889226 30.05313351 90.05397664 28.63891602 90.85644531 C27.85259293 91.30546204 27.06626984 91.75447876 26.25611877 92.21710205 C18.50904176 96.18772166 9.93764535 95.74382344 1.4375 95.6875 C0.27412109 95.69523437 -0.88925781 95.70296875 -2.08789062 95.7109375 C-24.90291878 95.65958122 -24.90291878 95.65958122 -31.125 89.4375 C-31.22007821 86.85110962 -31.25056376 84.2915144 -31.23852539 81.70483398 C-31.23867142 80.8951416 -31.23881744 80.08544922 -31.2389679 79.2512207 C-31.23826854 76.56198492 -31.2304751 73.87281751 -31.22265625 71.18359375 C-31.22079215 69.32414284 -31.21936821 67.46469144 -31.21836853 65.60523987 C-31.21454271 60.70120904 -31.20471188 55.79720764 -31.19366455 50.89318848 C-31.18345181 45.89298908 -31.17887121 40.89278494 -31.17382812 35.89257812 C-31.16308967 26.07420579 -31.14601248 16.25585534 -31.125 6.4375 C-20.83618273 0.48197694 -11.88528334 0.00247658 0 0 Z " fill="#653AC1" transform="translate(121.125,294.5625)"></path><path d="M0 0 C0.98548828 -0.00773437 1.97097656 -0.01546875 2.98632812 -0.0234375 C11.95690573 0.00034137 18.49631796 1.21690898 26.5625 5.25 C26.5625 31.32 26.5625 57.39 26.5625 84.25 C13.02575854 90.26632954 -4.94272875 92.08159042 -19.4375 87.25 C-22.0340271 86.17590332 -22.0340271 86.17590332 -24.4375 84.25 C-24.95399216 81.53320903 -25.12256696 79.42711493 -25.08447266 76.70507812 C-25.09761505 75.55585121 -25.09761505 75.55585121 -25.11102295 74.38340759 C-25.13304486 71.84878034 -25.11845584 69.31589522 -25.1015625 66.78125 C-25.10492987 65.02152165 -25.10978182 63.26179557 -25.11605835 61.5020752 C-25.12343341 57.81317003 -25.1127042 54.12487001 -25.08935547 50.43603516 C-25.06086683 45.70417366 -25.07726748 40.97372992 -25.10721779 36.24192047 C-25.12527395 32.60790294 -25.11954058 28.97422231 -25.10657883 25.3401947 C-25.10324013 23.5954522 -25.10734817 21.85067924 -25.11897659 20.10597229 C-25.13165841 17.66812987 -25.11234951 15.23259227 -25.08447266 12.79492188 C-25.09459381 12.07171249 -25.10471497 11.34850311 -25.11514282 10.6033783 C-25.07241821 8.58972168 -25.07241821 8.58972168 -24.4375 5.25 C-17.56888659 -0.38089248 -8.42124818 -0.06583386 0 0 Z " fill="#8C57E9" transform="translate(395.4375,89.75)"></path><path d="M0 0 C1 1 1 1 1.12025452 3.47401428 C1.11803391 4.57321701 1.11581329 5.67241974 1.11352539 6.80493164 C1.11344986 8.04614273 1.11337433 9.28735382 1.11329651 10.56617737 C1.10818911 11.9308374 1.1029731 13.29549702 1.09765625 14.66015625 C1.095792 16.04878183 1.09436813 17.43740807 1.09336853 18.82603455 C1.08954387 22.48721115 1.07971403 26.1483483 1.06866455 29.80950928 C1.05844932 33.54292263 1.05387067 37.27634234 1.04882812 41.00976562 C1.03809171 48.33986177 1.02101591 55.66992536 1 63 C-0.55268953 63.66524391 -2.11013525 64.31939203 -3.66943359 64.96899414 C-4.5361972 65.33448868 -5.40296082 65.69998322 -6.29598999 66.07655334 C-10.7262176 67.5895207 -14.98808268 67.54257634 -19.625 67.4375 C-20.51445312 67.44458984 -21.40390625 67.45167969 -22.3203125 67.45898438 C-28.24894023 67.40231367 -32.50224432 66.19684462 -38 64 C-38.11580043 55.83772403 -38.20466639 47.67579062 -38.25906086 39.51289654 C-38.28516647 35.72257687 -38.32057991 31.93281872 -38.37719727 28.14282227 C-38.43148603 24.48585805 -38.46141327 20.8294342 -38.47438622 17.17209816 C-38.48363205 15.77615664 -38.5016876 14.38024504 -38.52865028 12.98453331 C-38.56488701 11.03124153 -38.5670419 9.07740708 -38.56762695 7.1237793 C-38.57873001 6.0112529 -38.58983307 4.8987265 -38.60127258 3.75248718 C-38 1 -38 1 -35.60856628 -0.84074402 C-25.30564964 -5.41939621 -10.28092574 -4.06602186 0 0 Z " fill="#804EDB" transform="translate(409,272)"></path><path d="M0 0 C4.29 0 8.58 0 13 0 C13 10.56 13 21.12 13 32 C23.56 32 34.12 32 45 32 C45 36.29 45 40.58 45 45 C34.44 45 23.88 45 13 45 C13 55.56 13 66.12 13 77 C8.71 77 4.42 77 0 77 C0 66.44 0 55.88 0 45 C-10.56 45 -21.12 45 -32 45 C-32 40.71 -32 36.42 -32 32 C-21.44 32 -10.88 32 0 32 C0 21.44 0 10.88 0 0 Z " fill="#FCFBFE" transform="translate(256,211)"></path><path d="M0 0 C0.82951172 -0.00257813 1.65902344 -0.00515625 2.51367188 -0.0078125 C3.80821289 0.00378906 3.80821289 0.00378906 5.12890625 0.015625 C5.98806641 0.00789063 6.84722656 0.00015625 7.73242188 -0.0078125 C8.97862305 -0.00394531 8.97862305 -0.00394531 10.25 0 C11.00595459 0.00225586 11.76190918 0.00451172 12.54077148 0.00683594 C14.69140625 0.265625 14.69140625 0.265625 18.69140625 2.265625 C18.69140625 15.465625 18.69140625 28.665625 18.69140625 42.265625 C15.07407418 44.07429103 14.00040577 44.52005834 10.25 44.53125 C9.41919922 44.53382813 8.58839844 44.53640625 7.73242188 44.5390625 C6.87326172 44.53132813 6.01410156 44.52359375 5.12890625 44.515625 C3.83436523 44.52722656 3.83436523 44.52722656 2.51367188 44.5390625 C1.68416016 44.53648437 0.85464844 44.53390625 0 44.53125 C-0.75482666 44.52899414 -1.50965332 44.52673828 -2.28735352 44.52441406 C-4.30859375 44.265625 -4.30859375 44.265625 -7.30859375 42.265625 C-7.6124514 39.23851484 -7.72846173 36.41975026 -7.70703125 33.390625 C-7.70990143 32.51035645 -7.71277161 31.63008789 -7.71572876 30.72314453 C-7.71777203 28.86034503 -7.71222384 26.9975242 -7.69970703 25.13476562 C-7.68365683 22.27685759 -7.69954657 19.42036384 -7.71875 16.5625 C-7.71676761 14.7552052 -7.71292404 12.94791128 -7.70703125 11.140625 C-7.71310394 10.28227051 -7.71917664 9.42391602 -7.72543335 8.53955078 C-7.69677734 6.1328125 -7.69677734 6.1328125 -7.30859375 2.265625 C-4.21272963 0.20171559 -3.51110923 0.01049323 0 0 Z " fill="#7144CC" transform="translate(301.30859375,377.734375)"></path><path d="M0 0 C0.86302734 -0.01224609 1.72605469 -0.02449219 2.61523438 -0.03710938 C3.85950195 -0.04000977 3.85950195 -0.04000977 5.12890625 -0.04296875 C5.88373291 -0.04707764 6.63855957 -0.05118652 7.41625977 -0.05541992 C9.4375 0.1875 9.4375 0.1875 12.4375 2.1875 C12.703987 5.23825084 12.78507146 8.08376179 12.73046875 11.1328125 C12.72622391 12.0178244 12.72197906 12.9028363 12.71760559 13.81466675 C12.70078259 16.64758445 12.66312425 19.47979652 12.625 22.3125 C12.60995782 24.23045849 12.59626861 26.14842811 12.58398438 28.06640625 C12.55086727 32.77371031 12.49906055 37.48048544 12.4375 42.1875 C8.97090981 43.43278898 5.93263484 44.4405301 2.23828125 44.453125 C1.13709961 44.45699219 1.13709961 44.45699219 0.01367188 44.4609375 C-0.73333984 44.45320313 -1.48035156 44.44546875 -2.25 44.4375 C-3.38791992 44.44910156 -3.38791992 44.44910156 -4.54882812 44.4609375 C-8.40600994 44.44731991 -10.28341189 44.37355874 -13.5625 42.1875 C-13.92326355 40.39047241 -13.92326355 40.39047241 -13.90307617 38.19677734 C-13.90284958 37.37607758 -13.90262299 36.55537781 -13.90238953 35.70980835 C-13.88690567 34.82330597 -13.87142181 33.93680359 -13.85546875 33.0234375 C-13.85122391 32.11622955 -13.84697906 31.20902161 -13.84260559 30.27432251 C-13.82578133 27.37008268 -13.7881226 24.4665309 -13.75 21.5625 C-13.73495799 19.59636417 -13.72126875 17.63021749 -13.70898438 15.6640625 C-13.67586557 10.83827561 -13.62405786 6.01300455 -13.5625 1.1875 C-8.99839775 -0.01352453 -4.70288683 0.00352805 0 0 Z " fill="#7647D1" transform="translate(128.5625,134.8125)"></path></svg>