<svg version="1.1" xmlns="http://www.w3.org/2000/svg" width="16px" height="16px" fill="currentColor" viewBox="0 0 512 512"><path d="M0 0 C168.96 0 337.92 0 512 0 C512 168.96 512 337.92 512 512 C343.04 512 174.08 512 0 512 C0 343.04 0 174.08 0 0 Z " fill="#DD2C33" transform="translate(0,0)"></path><path d="M0 0 C4.77997596 2.41885257 9.38463971 5.07996105 13.984375 7.82421875 C16.14805049 9.10091653 18.31212666 10.37693546 20.4765625 11.65234375 C21.59256836 12.31169922 22.70857422 12.97105469 23.85839844 13.65039062 C29.25563894 16.82597268 34.68204658 19.95042845 40.109375 23.07421875 C42.28255649 24.32681528 44.45573354 25.5794195 46.62890625 26.83203125 C49.96514609 28.75390383 53.30158967 30.6754219 56.63818359 32.59667969 C78.93543024 45.43709267 78.93543024 45.43709267 89.69018555 51.79248047 C96.13853611 55.59589324 102.62326476 59.33565481 109.109375 63.07421875 C110.2238501 63.71681641 111.3383252 64.35941406 112.48657227 65.02148438 C117.56821904 67.95055881 122.65152517 70.87668292 127.73828125 73.796875 C129.3828362 74.7434484 131.02736902 75.69006028 132.671875 76.63671875 C133.38520996 77.04462646 134.09854492 77.45253418 134.83349609 77.87280273 C136.18450559 78.65147663 137.52492519 79.44894118 138.85177231 80.26810932 C141.24919493 81.70731458 141.24919493 81.70731458 144.00876236 82.82140636 C147.34278797 84.44731405 149.6628411 85.94612766 152.234375 88.63671875 C153.94038875 94.26321479 153.80307296 99.77345113 153.75292969 105.61254883 C153.77767691 107.35109762 153.80700178 109.08958636 153.84054565 110.82798767 C153.91620895 115.53947388 153.92158095 120.24855208 153.90954494 124.9605391 C153.90513911 128.89939455 153.93326798 132.83775968 153.96074414 136.77650088 C154.02432116 146.07312512 154.02901552 155.36853122 153.99804688 164.6652832 C153.96725452 174.2424593 154.03931664 183.81499471 154.16164088 193.39133531 C154.26294964 201.62540182 154.29814794 209.85799005 154.2812531 218.09266013 C154.27195045 223.0059301 154.28773867 227.91580576 154.36800385 232.82850075 C154.44083431 237.45286378 154.43077196 242.06993954 154.35843277 246.69423866 C154.34560409 248.38487697 154.36143371 250.07602814 154.40890884 251.76604843 C154.6799409 262.15876053 154.6799409 262.15876053 152.234375 266.63671875 C148.01494939 270.80943344 142.67766081 273.27519449 137.31914186 275.67504728 C134.32652965 277.0554941 131.55710738 278.70958007 128.73046875 280.40234375 C126.71127742 281.56439294 124.69174263 282.7258455 122.671875 283.88671875 C114.17747628 288.77758378 105.69666356 293.69050583 97.234375 298.63671875 C87.82450262 304.1362267 78.38966901 309.59121091 68.9453125 315.03125 C60.71462642 319.77518959 52.50562725 324.55530684 44.30419922 329.34960938 C38.97934034 332.45981304 33.64760705 335.55764165 28.3046875 338.63671875 C27.43296906 339.13909058 27.43296906 339.13909058 26.54364014 339.65161133 C23.74226317 341.26545761 20.93996712 342.87768764 18.13671875 344.48828125 C17.11964844 345.07351563 16.10257813 345.65875 15.0546875 346.26171875 C14.07661133 346.81988281 13.09853516 347.37804687 12.09082031 347.953125 C10.17670136 349.08130998 8.2898349 350.25697443 6.43261719 351.4765625 C5.12405762 352.32927734 5.12405762 352.32927734 3.7890625 353.19921875 C3.02835449 353.71613281 2.26764648 354.23304688 1.48388672 354.765625 C-0.765625 355.63671875 -0.765625 355.63671875 -3.18969727 354.98925781 C-6.00063066 353.51332463 -8.78144752 352.01453813 -11.53515625 350.43359375 C-13.2205249 349.46860962 -13.2205249 349.46860962 -14.93994141 348.48413086 C-16.15274221 347.78512003 -17.36546819 347.08597936 -18.578125 346.38671875 C-19.84022478 345.66200395 -21.10243331 344.93747851 -22.36474609 344.21313477 C-31.2069676 339.13378942 -40.02181134 334.00766771 -48.82348633 328.85839844 C-56.121333 324.58949334 -63.4390695 320.35614126 -70.765625 316.13671875 C-80.10288433 310.75847401 -89.4195533 305.3463671 -98.72216797 299.90844727 C-107.06357998 295.03634481 -115.42927468 290.20700137 -123.80859375 285.40039062 C-125.81224876 284.248091 -127.79289807 283.05498351 -129.75019836 281.82559204 C-132.79607012 280.02613278 -135.81496082 278.91068151 -139.1693573 277.80026245 C-145.81422068 275.27211595 -151.41726578 272.41209721 -155.765625 266.63671875 C-159.76401365 254.95714668 -158.69544832 241.81367562 -158.424402 229.63867164 C-158.33465647 224.70977123 -158.36048461 219.78128176 -158.37019348 214.85176086 C-158.36904584 206.58114622 -158.28172445 198.31497782 -158.1394043 190.0456543 C-157.97584311 180.49704567 -157.93573739 170.95415016 -157.9643299 161.40431279 C-157.99019043 152.19473601 -157.94200131 142.98710136 -157.85567665 133.77793312 C-157.81953435 129.86837962 -157.80676576 125.95979387 -157.8125515 122.05008507 C-157.81506966 117.44553581 -157.75185054 112.84633131 -157.63847923 108.24322319 C-157.60701283 106.55849461 -157.59730282 104.87319223 -157.61137772 103.18822861 C-157.64581659 98.0431222 -157.47684389 93.52212352 -155.765625 88.63671875 C-151.8178713 84.81889157 -147.79006867 82.8715763 -142.765625 80.63671875 C-140.54991039 79.4228454 -138.38844955 78.13712404 -136.21484375 76.84765625 C-133.96199846 75.56714203 -131.70805821 74.28855264 -129.453125 73.01171875 C-126.97952863 71.60581555 -124.50717181 70.1977431 -122.03515625 68.7890625 C-121.41954834 68.43838211 -120.80394043 68.08770172 -120.16967773 67.72639465 C-113.317089 63.81825637 -106.50733964 59.83750491 -99.69921875 55.85253906 C-92.46906435 51.62299437 -85.21492354 47.43665447 -77.953125 43.26171875 C-69.05657004 38.14400805 -60.20912068 32.95020004 -51.390625 27.69921875 C-38.52510622 20.04038682 -25.56736345 12.5437875 -12.50976562 5.21679688 C-10.85705376 4.26516421 -9.22280412 3.27864569 -7.63085938 2.22851562 C-4.86902289 0.42049371 -3.32908346 -0.43729486 0 0 Z " fill="#FEFAFA" transform="translate(257.765625,77.36328125)"></path><path d="M0 0 C1.55012728 0.76969328 3.07457972 1.59208752 4.578125 2.44921875 C5.92934448 3.21564697 5.92934448 3.21564697 7.30786133 3.99755859 C8.27876709 4.55523926 9.24967285 5.11291992 10.25 5.6875 C11.26924561 6.26838379 12.28849121 6.84926758 13.33862305 7.44775391 C22.53848907 12.70381395 31.68812791 18.04581881 40.83203125 23.3984375 C47.20565132 27.12630792 53.60130462 30.8153834 60 34.5 C71.35733238 41.04285693 82.6851438 47.63505227 94.00146484 54.24853516 C97.07937599 56.04636405 100.15862029 57.84188908 103.23828125 59.63671875 C104.27645996 60.24185303 105.31463867 60.8469873 106.38427734 61.47045898 C108.32068515 62.59907537 110.25719614 63.72751475 112.19384766 64.85571289 C114.0134059 65.91660841 115.81282057 67.01286671 117.58956909 68.14399719 C120.33670524 69.63902599 122.31751185 70.42537279 125.25280762 71.23831177 C130.61617581 73.02665826 134.79437073 75.20978636 138 80 C141.10053358 90.87950327 140.02922983 102.93559821 139.72369695 114.13031054 C139.6170049 118.69960158 139.60740729 123.26910262 139.58726501 127.83944702 C139.53454296 136.48237579 139.39522007 145.12162411 139.22432369 153.762936 C139.03392519 163.60526398 138.94074579 173.44777326 138.85550129 183.29148602 C138.67807582 203.52970731 138.37930661 223.76462135 138 244 C134.08640775 246.24341683 130.17199874 248.48539939 126.25683594 250.72607422 C124.92588282 251.48805297 123.59515119 252.25041873 122.26464844 253.01318359 C120.34889308 254.11137818 118.4323377 255.20816485 116.515625 256.3046875 C115.92380432 256.6443454 115.33198364 256.9840033 114.722229 257.33395386 C111.84635068 258.97742367 108.96527506 260.51736247 106 262 C106 207.55 106 153.1 106 97 C104.35 96.34 102.7 95.68 101 95 C99.13501929 94.03308685 97.28572798 93.03557987 95.44921875 92.015625 C94.37075684 91.41741943 93.29229492 90.81921387 92.18115234 90.20288086 C91.0164714 89.55215348 89.85192404 88.90118697 88.6875 88.25 C88.09108704 87.91775421 87.49467407 87.58550842 86.88018799 87.24319458 C77.49192357 82.01251873 68.18787507 76.64806942 58.92260742 71.20214844 C50.81117366 66.44401122 42.61975557 61.84041509 34.39672852 57.27832031 C28.98870032 54.26823556 23.6218178 51.20467689 18.30078125 48.04296875 C17.2128125 47.39779297 16.12484375 46.75261719 15.00390625 46.08789062 C12.92734961 44.85136088 10.85545062 43.60696423 8.7890625 42.35351562 C7.38720703 41.51916992 7.38720703 41.51916992 5.95703125 40.66796875 C5.14210205 40.17578857 4.32717285 39.6836084 3.48754883 39.17651367 C0.55438905 37.78924338 -1.75600173 37.19222915 -5 37 C-7.67097793 37.89102357 -7.67097793 37.89102357 -10.2109375 39.47265625 C-11.19578125 40.03533203 -12.180625 40.59800781 -13.1953125 41.17773438 C-14.24460938 41.79970703 -15.29390625 42.42167969 -16.375 43.0625 C-17.4784375 43.69865234 -18.581875 44.33480469 -19.71875 44.99023438 C-23.15594748 46.97699715 -26.57860843 48.98616793 -30 51 C-32.03331964 52.18711393 -34.06715266 53.3733491 -36.1015625 54.55859375 C-39.0617204 56.28449727 -42.02074674 58.01217403 -44.97607422 59.74633789 C-52.10139238 63.92166505 -59.28382432 67.9840316 -66.5 72 C-77.06223182 77.87824161 -87.52033703 83.92115302 -97.9453125 90.0390625 C-98.81575195 90.54856445 -99.68619141 91.05806641 -100.58300781 91.58300781 C-102.1110715 92.47885445 -103.63678614 93.37873079 -105.15917969 94.28417969 C-109.77916849 97 -109.77916849 97 -112 97 C-112 134.62 -112 172.24 -112 211 C-116.05873719 209.37650512 -119.59830113 207.64644771 -123.39453125 205.5234375 C-123.98674973 205.19332672 -124.5789682 204.86321594 -125.18913269 204.52310181 C-127.0651685 203.47653441 -128.93885485 202.42584018 -130.8125 201.375 C-132.09034139 200.66118365 -133.36833467 199.94763914 -134.64648438 199.234375 C-137.76608639 197.49272484 -140.88359626 195.74736793 -144 194 C-144.56285674 179.38044158 -144.98487968 164.76232913 -145.24349213 150.13410759 C-145.36682554 143.33977282 -145.53456708 136.55219698 -145.81054688 129.76220703 C-146.07710875 123.20074847 -146.21505922 116.64364585 -146.27705383 110.07703018 C-146.3211829 107.58108523 -146.40739112 105.08549697 -146.53752136 102.592556 C-147.33280807 86.71570705 -147.33280807 86.71570705 -144 80 C-138.09831011 73.94835434 -130.46809542 70.51513809 -122.7938385 67.22499466 C-119.27550023 65.6823337 -116.090622 63.84085895 -112.8125 61.84375 C-110.8752747 60.72868928 -108.93778215 59.61409273 -107 58.5 C-98.65163537 53.69214664 -90.31751322 48.86102686 -82 44 C-72.59747243 38.50485526 -63.17052562 33.05328579 -53.73291016 27.61865234 C-47.29237354 23.90730398 -40.86422406 20.17575808 -34.44824219 16.42211914 C-30.52794045 14.12967069 -26.60242689 11.84622972 -22.67675781 9.56298828 C-20.14040647 8.08198488 -17.61276703 6.58701352 -15.0859375 5.08984375 C-13.64098812 4.24677317 -12.19570179 3.40427969 -10.75 2.5625 C-10.11239746 2.17852051 -9.47479492 1.79454102 -8.81787109 1.39892578 C-5.36852839 -0.58775106 -3.75005808 -1.32283037 0 0 Z " fill="#E23339" transform="translate(259,93)"></path><path d="M0 0 C2.51342773 1.19238281 2.51342773 1.19238281 5.18359375 2.703125 C6.18390625 3.26555908 7.18421875 3.82799316 8.21484375 4.4074707 C9.27832031 5.01550537 10.34179688 5.62354004 11.4375 6.25 C12.53320312 6.87028076 13.62890625 7.49056152 14.7578125 8.12963867 C45.72930527 25.72930527 45.72930527 25.72930527 48 28 C48.09391296 29.90243762 48.11743658 31.80838459 48.11352539 33.71313477 C48.11341209 35.54492027 48.11341209 35.54492027 48.11329651 37.41371155 C48.10818911 38.75627686 48.10297311 40.09884175 48.09765625 41.44140625 C48.09579199 42.80761158 48.09436813 44.17381757 48.09336853 45.5400238 C48.08954394 49.14201695 48.07971417 52.74397 48.06866455 56.34594727 C48.05844916 60.01903745 48.05387064 63.69213409 48.04882812 67.36523438 C48.03809184 74.57684123 48.02101614 81.788415 48 89 C47.3120636 89.38253433 46.6241272 89.76506866 45.91534424 90.15919495 C30.59803917 98.63495562 30.59803917 98.63495562 15.484375 107.46484375 C14.5046875 108.05587891 13.525 108.64691406 12.515625 109.25585938 C10.58881 110.42746087 8.66731355 111.60783516 6.75 112.79492188 C5.79609375 113.36662109 4.8421875 113.93832031 3.859375 114.52734375 C2.62912598 115.28132446 2.62912598 115.28132446 1.37402344 116.05053711 C-1.63977881 117.25587205 -2.93555184 117.0188583 -6 116 C-8.00556029 115.01032639 -9.97337229 113.94251827 -11.91015625 112.82421875 C-12.4771373 112.49895706 -13.04411835 112.17369537 -13.62828064 111.83857727 C-15.44352967 110.79472502 -17.25291349 109.74113108 -19.0625 108.6875 C-20.80717457 107.68386549 -22.55288055 106.68210692 -24.30012512 105.68295288 C-25.51483201 104.97594548 -26.72025323 104.2527762 -27.91654968 103.51504517 C-31.62641943 101.24789425 -35.27593323 99.44730836 -39.3215332 97.84326172 C-44.9865041 95.39636516 -50.13206789 92.94819854 -54 88 C-57.31660456 79.03617208 -56.54798923 69.22806142 -56.13104248 59.82861328 C-56.03947314 57.0516896 -56.07159672 54.2816025 -56.1022377 51.5037775 C-56.26515733 31.66316458 -56.26515733 31.66316458 -52.7845459 26.03439331 C-49.45346311 22.69195614 -45.39957272 21.40243927 -41 20 C-39.19595015 19.01522701 -37.41441905 17.98747963 -35.6640625 16.91015625 C-33.98567268 15.95864485 -32.30597803 15.00943146 -30.625 14.0625 C-25.52817366 11.18702514 -20.44491896 8.31435674 -15.4921875 5.1953125 C-14.8120459 4.76984131 -14.1319043 4.34437012 -13.43115234 3.90600586 C-12.18124395 3.11734685 -10.93874555 2.31676662 -9.70556641 1.50219727 C-5.9498331 -0.85978549 -4.21356785 -1.21475392 0 0 Z " fill="#DD2D34" transform="translate(259,197)"></path><path d="M0 0 C7.41220052 3.63109727 14.67608555 7.41669763 21.8125 11.5625 C23.64423004 12.61771054 25.47627258 13.67237877 27.30859375 14.7265625 C28.24429199 15.26571289 29.17999023 15.80486328 30.14404297 16.36035156 C34.87446139 19.07615684 39.62452153 21.75698558 44.375 24.4375 C45.33059814 24.97705322 46.28619629 25.51660645 47.27075195 26.07250977 C49.21133528 27.16812907 51.15200924 28.26358785 53.09277344 29.35888672 C57.89636978 32.07049023 62.69809606 34.78540096 67.5 37.5 C69.41665757 38.58334943 71.33332424 39.66668275 73.25 40.75 C79 44 79 44 84.75 47.25 C86.17421265 48.05497925 86.17421265 48.05497925 87.62719727 48.8762207 C89.53656398 49.95544209 91.44590658 51.03470615 93.35522461 52.11401367 C98.25837974 54.88561703 103.16200038 57.65639162 108.06640625 60.42578125 C109.56119507 61.27052002 109.56119507 61.27052002 111.08618164 62.13232422 C113.04642628 63.23891134 115.00782514 64.34345669 116.97045898 65.44580078 C121.12996188 67.78622115 125.27021538 70.14133189 129.34375 72.62890625 C129.98304443 73.01393311 130.62233887 73.39895996 131.28100586 73.7956543 C132.91525874 74.78579161 134.53830967 75.79435684 136.16015625 76.8046875 C139.69036262 78.29057904 141.30554499 77.87071705 145 77 C147.62368026 75.85173141 147.62368026 75.85173141 150.17578125 74.33203125 C151.15562988 73.77572021 152.13547852 73.21940918 153.14501953 72.64624023 C154.19028809 72.04110596 155.23555664 71.43597168 156.3125 70.8125 C158.56625978 69.52838874 160.82017026 68.24454191 163.07421875 66.9609375 C164.23625351 66.29540128 165.39820007 65.62971104 166.56005859 64.96386719 C171.89457588 61.91838407 177.26069521 58.93008865 182.625 55.9375 C190.74149327 51.39665793 198.8440895 46.83184036 206.9375 42.25 C214.07393565 38.21231209 221.21501066 34.18330346 228.375 30.1875 C229.51763306 29.54699707 229.51763306 29.54699707 230.68334961 28.89355469 C235.88312326 26 235.88312326 26 237 26 C237 37.88 237 49.76 237 62 C233.205 64.18625 229.41 66.3725 225.5 68.625 C216.65241413 73.72585857 207.81722976 78.84680424 199 84 C189.48835921 89.55838234 179.96356697 95.09364453 170.40332031 100.56811523 C165.34319939 103.46920518 160.31315391 106.40024307 155.34765625 109.4609375 C154.48116455 109.98727783 153.61467285 110.51361816 152.72192383 111.0559082 C151.12410812 112.02974729 149.53583645 113.01950073 147.9597168 114.02807617 C142.83469448 117.12563004 142.83469448 117.12563004 138.9375 116.5390625 C135.47642886 114.72568214 132.08562038 112.8450356 128.75 110.8125 C127.23643414 109.90628644 125.72205681 109.00142733 124.20703125 108.09765625 C123.37896973 107.60281738 122.5509082 107.10797852 121.69775391 106.59814453 C116.63863807 103.60113346 111.53511793 100.6808663 106.4375 97.75 C97.94315727 92.85903779 89.46228905 87.94621321 81 83 C72.68250978 78.13892412 64.34797513 73.30853287 56 68.5 C49.55657239 64.78838579 43.1158782 61.07247985 36.69140625 57.328125 C35.1609668 56.43939697 35.1609668 56.43939697 33.59960938 55.53271484 C31.58921384 54.35265792 29.58890904 53.15522385 27.59960938 51.93994141 C22.90716951 49.09973897 18.48308151 46.70416518 13.27734375 44.9453125 C2.95190119 41.11097262 2.95190119 41.11097262 0 36 C-2.86625594 24.54960956 -1.11786012 11.60492677 0 0 Z " fill="#D5242D" transform="translate(115,301)"></path><path d="M0 0 C3.69813356 1.3972311 7.09595998 3.06564695 10.55078125 4.984375 C11.6294043 5.58266113 12.70802734 6.18094727 13.81933594 6.79736328 C14.98385922 7.44800015 16.14824373 8.09888545 17.3125 8.75 C18.20612244 9.24787018 18.20612244 9.24787018 19.11779785 9.75579834 C28.54673364 15.00983427 37.89538642 20.39230818 47.20263672 25.859375 C54.07573135 29.89311153 60.99120239 33.84378881 67.9375 37.75 C74.94932768 41.69542376 81.9377649 45.67460661 88.875 49.75 C89.58906006 50.16862305 90.30312012 50.58724609 91.03881836 51.01855469 C95.87246815 53.87246815 95.87246815 53.87246815 97 55 C97.76919155 62.88934037 97.79923994 70.8916701 97.96293831 78.81539822 C98.04022062 82.48443743 98.14944985 86.14610308 98.33740234 89.8112793 C99.51843171 113.42505453 99.51843171 113.42505453 95.40222168 119.26806641 C91.49692124 122.75577369 87.15578561 124.59531444 82.22235107 126.19714355 C78.54284437 127.52641853 75.32121719 129.58522907 72 131.625 C66.13043478 135 66.13043478 135 65 135 C65.05448807 133.91577507 65.05448807 133.91577507 65.1100769 132.80964661 C65.43510542 125.94218141 65.65072484 119.07866979 65.74871635 112.20447254 C65.80283167 108.6696115 65.89657144 105.14583439 66.08691406 101.61547852 C67.4230424 86.18710185 67.4230424 86.18710185 61.9375 72.50378418 C56.717914 68.22964865 50.8666534 65.55276752 44.63165283 63.07369995 C41.34460055 61.73260061 38.52166274 60.0775038 35.515625 58.1953125 C33.76087424 57.17109066 32.00567557 56.14763577 30.25 55.125 C28.78457764 54.27047241 28.78457764 54.27047241 27.28955078 53.39868164 C20.92761119 49.6930158 14.55332526 46.00922715 8.17236328 42.33642578 C3.84759494 39.84582544 -0.47270087 37.34751777 -4.79296875 34.84912109 C-8.0340427 32.98037154 -11.28256713 31.12501393 -14.53125 29.26953125 C-16.56284098 28.09694474 -18.59410612 26.92379346 -20.625 25.75 C-22.0483667 24.94453735 -22.0483667 24.94453735 -23.50048828 24.12280273 C-24.35884277 23.62337158 -25.21719727 23.12394043 -26.1015625 22.609375 C-26.85775879 22.17592773 -27.61395508 21.74248047 -28.39306641 21.29589844 C-28.92335449 20.86825195 -29.45364258 20.44060547 -30 20 C-30 19.01 -30 18.02 -30 17 C-29.12674072 16.52054932 -28.25348145 16.04109863 -27.35375977 15.54711914 C-24.12315057 13.77280995 -20.8937845 11.99624884 -17.66479492 10.21899414 C-16.26539536 9.44916999 -14.86565654 8.67996223 -13.46557617 7.91137695 C-11.45662991 6.80841212 -9.44890236 5.70325777 -7.44140625 4.59765625 C-6.49763878 4.08042747 -6.49763878 4.08042747 -5.5348053 3.55274963 C-2.58592632 2.03209968 -2.58592632 2.03209968 0 0 Z " fill="#E4353A" transform="translate(255,143)"></path><path d="M0 0 C1.43396124 1.00726033 2.86401471 2.02255605 4.24365234 3.10302734 C7.34580585 5.37905031 10.69911321 7.23561539 14.01782227 9.17553711 C18.06372222 11.54539465 22.06250905 13.99121473 26.0625 16.4375 C24.73357585 20.42427245 23.14028679 20.81533431 19.5078125 22.84375 C18.93851013 23.16529053 18.36920776 23.48683105 17.78265381 23.81811523 C15.92228155 24.86649972 14.05507721 25.902014 12.1875 26.9375 C10.91109516 27.65335993 9.63521778 28.37016112 8.35986328 29.08789062 C6.43640988 30.17014812 4.51259568 31.25169571 2.58676147 32.32971191 C-3.80346478 35.90870635 -10.12465765 39.60360212 -16.42529297 43.33789062 C-21.7194547 46.4375 -21.7194547 46.4375 -23.9375 46.4375 C-23.9375 83.7275 -23.9375 121.0175 -23.9375 159.4375 C-28.8875 156.7975 -33.8375 154.1575 -38.9375 151.4375 C-40.62515472 150.75600891 -42.31280945 150.07451782 -44.05160522 149.37237549 C-48.68534898 147.47201254 -52.78562655 145.43717386 -55.9375 141.4375 C-59.02675697 133.36725074 -58.132922 124.21373814 -57.9140625 115.734375 C-57.90519033 113.20714707 -57.90255054 110.67989027 -57.90585327 108.15264893 C-57.89484092 102.86894513 -57.82876187 97.58898308 -57.71435547 92.30664062 C-57.58284653 86.21034351 -57.54270768 80.11885054 -57.5540663 74.0212543 C-57.56405083 68.13563625 -57.52171949 62.25140792 -57.45335007 56.36612701 C-57.42724974 53.87036438 -57.41228086 51.37445944 -57.40867996 48.87856293 C-57.39385496 45.39147233 -57.31997392 41.91063332 -57.22900391 38.42480469 C-57.23465363 37.3961026 -57.24030334 36.36740051 -57.24612427 35.30752563 C-56.98071819 28.46029492 -56.98071819 28.46029492 -53.9448719 25.48388195 C-51.66606868 23.94455782 -49.40046199 22.65529349 -46.9375 21.4375 C-46.03338379 20.90680908 -45.12926758 20.37611816 -44.19775391 19.8293457 C-43.44413574 19.42804443 -42.69051758 19.02674316 -41.9140625 18.61328125 C-41.04765137 18.14647949 -40.18124023 17.67967773 -39.28857422 17.19873047 C-37.41877032 16.20505177 -35.54794787 15.21328802 -33.67626953 14.22314453 C-28.87681785 11.66051614 -24.22530325 9.03335175 -19.703125 6.00390625 C-6.18406671 -2.94932412 -6.18406671 -2.94932412 0 0 Z " fill="#DA2931" transform="translate(215.9375,170.5625)"></path><path d="M0 0 C0.78130743 9.37710325 1.2752929 18.74077361 1.03125 28.15234375 C1.03467911 28.93991058 1.03810822 29.72747742 1.04164124 30.53890991 C0.85382936 35.07074831 0.05539452 37.45676169 -3.23852539 40.66162109 C-5.91699334 42.83959596 -8.28060325 44.31663861 -11.65234375 45.19921875 C-17.95794745 47.16949829 -23.32020467 50.42863243 -29 53.75 C-31.15079951 54.95690934 -33.30448869 56.15868255 -35.4609375 57.35546875 C-41.85298738 60.91729803 -48.24022655 64.4876452 -54.625 68.0625 C-56.15688965 68.92016968 -56.15688965 68.92016968 -57.71972656 69.79516602 C-65.07036697 73.91317673 -72.41334147 78.04463141 -79.75 82.1875 C-80.7085791 82.72834229 -81.6671582 83.26918457 -82.65478516 83.82641602 C-83.5472998 84.33100342 -84.43981445 84.83559082 -85.359375 85.35546875 C-86.13764648 85.79528076 -86.91591797 86.23509277 -87.71777344 86.68823242 C-90.08608468 87.9969108 -90.08608468 87.9969108 -92.47753906 89.7902832 C-95 91 -95 91 -97.52734375 90.33740234 C-98.75130859 89.67538818 -98.75130859 89.67538818 -100 89 C-100.74378906 88.62439941 -101.48757812 88.24879883 -102.25390625 87.86181641 C-103.01574219 87.44593262 -103.77757812 87.03004883 -104.5625 86.6015625 C-105.43213379 86.12775146 -106.30176758 85.65394043 -107.19775391 85.16577148 C-108.12249512 84.65731689 -109.04723633 84.1488623 -110 83.625 C-110.9595459 83.09914307 -111.9190918 82.57328613 -112.90771484 82.03149414 C-119.84233439 78.21773643 -126.74595595 74.35056185 -133.625 70.4375 C-134.50671875 69.93750488 -135.3884375 69.43750977 -136.296875 68.92236328 C-137.11929688 68.45169434 -137.94171875 67.98102539 -138.7890625 67.49609375 C-139.86728271 66.88012329 -139.86728271 66.88012329 -140.96728516 66.25170898 C-141.63808105 65.83864502 -142.30887695 65.42558105 -143 65 C-144.10819092 64.43974121 -144.10819092 64.43974121 -145.23876953 63.86816406 C-148.04641301 60.89005374 -147.49125288 57.48261945 -147.390625 53.61328125 C-147.38496521 52.79627243 -147.37930542 51.97926361 -147.37347412 51.13749695 C-147.35108697 48.52856797 -147.30088846 45.92101364 -147.25 43.3125 C-147.22993792 41.54363963 -147.21168664 39.77475773 -147.1953125 38.00585938 C-147.1512148 33.67004344 -147.08217294 29.33525475 -147 25 C-143.09928489 26.45268011 -139.5925133 28.27268085 -135.984375 30.34375 C-135.41539993 30.66953033 -134.84642487 30.99531067 -134.26020813 31.33096313 C-133.04756426 32.0260082 -131.83577697 32.72254958 -130.62478638 33.42047119 C-128.73733499 34.5072927 -126.84645401 35.58793349 -124.95483398 36.66748047 C-119.44038441 39.82144403 -113.94753417 42.99830033 -108.55078125 46.3515625 C-107.77702148 46.82787109 -107.00326172 47.30417969 -106.20605469 47.79492188 C-104.81521127 48.6579418 -103.43359252 49.53607875 -102.06347656 50.43164062 C-100.05270089 51.7331269 -100.05270089 51.7331269 -97 53 C-93.64823675 51.94151289 -90.62596499 50.34530088 -87.54296875 48.671875 C-86.69081787 48.20942383 -85.83866699 47.74697266 -84.96069336 47.27050781 C-84.04553955 46.76874023 -83.13038574 46.26697266 -82.1875 45.75 C-80.73259155 44.95480957 -80.73259155 44.95480957 -79.24829102 44.14355469 C-71.239355 39.73873619 -63.35143321 35.14295516 -55.4753418 30.50610352 C-44.98576231 24.35582034 -34.3327504 18.5137824 -23.671875 12.66796875 C-17.51803508 9.29308619 -11.3936626 5.8692159 -5.30078125 2.38549805 C-1.10430301 0 -1.10430301 0 0 0 Z " fill="#DA2A32" transform="translate(352,275)"></path></svg>