<svg version="1.1" xmlns="http://www.w3.org/2000/svg" width="16px" height="16px" fill="currentColor" viewBox="0 0 512 512"><path d="M0 0 C168.96 0 337.92 0 512 0 C512 168.96 512 337.92 512 512 C343.04 512 174.08 512 0 512 C0 343.04 0 174.08 0 0 Z " fill="#E3740D" transform="translate(0,0)"></path><path d="M0 0 C2.14642334 1.43511963 2.14642334 1.43511963 4 4 C4.58413713 7.1791404 4.50497551 10.31806923 4.45410156 13.54199219 C4.45468567 14.50817978 4.45526978 15.47436737 4.45587158 16.46983337 C4.45308547 19.66254639 4.42196785 22.85432514 4.390625 26.046875 C4.38316451 28.26075734 4.37747067 30.47464629 4.37347412 32.6885376 C4.35820283 38.51497638 4.31890768 44.3410162 4.2746582 50.16729736 C4.23373801 56.11277876 4.21547003 62.05832462 4.1953125 68.00390625 C4.15241525 79.6694461 4.08414547 91.33468987 4 103 C4.78706833 103.31096619 5.57413666 103.62193237 6.38505554 103.94232178 C8.55638385 104.8205686 10.53942904 105.75645002 12.58203125 106.890625 C13.25347168 107.26268066 13.92491211 107.63473633 14.61669922 108.01806641 C15.34131348 108.42460449 16.06592773 108.83114258 16.8125 109.25 C17.59383301 109.68618652 18.37516602 110.12237305 19.18017578 110.57177734 C26.64234535 114.75915044 34.02723703 119.07699892 41.40942383 123.40332031 C49.24253611 127.98957531 57.11292728 132.50753485 65 137 C73.80013369 142.01309277 82.5725059 147.0699893 91.3125 152.1875 C94.21723163 153.88048944 97.12268692 155.57223065 100.02832031 157.26367188 C102.08535761 158.46558193 104.13919185 159.67298447 106.19042969 160.88476562 C109.34854457 162.74897694 112.51688208 164.59465532 115.6875 166.4375 C116.65018799 167.01201904 117.61287598 167.58653809 118.60473633 168.1784668 C119.50216553 168.69578369 120.39959473 169.21310059 121.32421875 169.74609375 C122.5011731 170.43723267 122.5011731 170.43723267 123.7019043 171.14233398 C126.6377568 172.23801547 128.03234182 171.95284195 131 171 C132.81952641 170.12981406 134.60485887 169.18617912 136.359375 168.19140625 C137.89549438 167.3262439 137.89549438 167.3262439 139.46264648 166.44360352 C140.54747314 165.82283936 141.6322998 165.2020752 142.75 164.5625 C143.87672119 163.9243335 145.00344238 163.28616699 146.16430664 162.62866211 C152.94069989 158.77987986 159.6862193 154.88069364 166.38891602 150.9050293 C174.08264503 146.34164181 181.83199138 141.87462071 189.59033203 137.42211914 C194.28449226 134.72791367 198.9744601 132.03474948 203.6015625 129.2265625 C204.24585205 128.84064941 204.8901416 128.45473633 205.55395508 128.05712891 C207.16313856 127.0897869 208.76368151 126.10810868 210.36328125 125.125 C213.49205451 123.79005674 214.83759248 123.81343503 218 125 C220.00469444 126.58826049 220.89643403 127.45597059 221.38031673 129.99779415 C221.38274663 130.7641396 221.38517653 131.53048506 221.38768005 132.3200531 C221.402537 133.64279739 221.402537 133.64279739 221.41769409 134.99226379 C221.41319244 135.95702133 221.4086908 136.92177887 221.40405273 137.91577148 C221.41434761 139.44297821 221.41434761 139.44297821 221.42485046 141.0010376 C221.44318716 144.37453057 221.43927105 147.74756152 221.43359375 151.12109375 C221.4381523 153.46135104 221.44345689 155.80160698 221.44947815 158.14186096 C221.45842282 163.05043979 221.4559707 167.95885603 221.44604492 172.86743164 C221.43455476 179.16383625 221.45476112 185.4596801 221.48396206 191.75601101 C221.50229127 196.59010902 221.50203809 201.42407185 221.49632454 206.25819588 C221.49617092 208.57987314 221.50224881 210.90155933 221.51461601 213.22320366 C221.52946155 216.46744021 221.51889552 219.71063061 221.50170898 222.95483398 C221.51137695 223.91756729 221.52104492 224.8803006 221.53100586 225.87220764 C221.45902353 232.34752119 221.45902353 232.34752119 219.14884949 235.63131714 C217 237 217 237 214.11669922 236.9440918 C210.79068668 235.93659607 208.13529616 234.64332998 205.1328125 232.89453125 C203.45227783 231.92471313 203.45227783 231.92471313 201.73779297 230.93530273 C200.53341868 230.22788901 199.32915719 229.52028322 198.125 228.8125 C196.86781736 228.08260957 195.61016059 227.35353525 194.35205078 226.62524414 C191.16283029 224.77616751 187.97993555 222.91650904 184.79907227 221.05310059 C182.1136167 219.48114882 179.42389491 217.91654749 176.734375 216.3515625 C172.84491124 214.08669363 168.95869816 211.81637375 165.07421875 209.54296875 C160.66866694 206.96814418 156.25362643 204.41040685 151.83203125 201.86328125 C151.23382568 201.51865341 150.63562012 201.17402557 150.01928711 200.81895447 C147.10936497 199.14315638 144.19845516 197.46910641 141.28662109 195.79663086 C140.24715332 195.19858643 139.20768555 194.60054199 138.13671875 193.984375 C137.21592529 193.45553711 136.29513184 192.92669922 135.34643555 192.38183594 C133.52937233 191.31175189 131.75458054 190.16972036 130 189 C125.38774618 189.29892762 122.15901408 190.7619487 118.203125 193.0703125 C116.53745483 194.03275879 116.53745483 194.03275879 114.83813477 195.01464844 C113.64201184 195.71796632 112.44596896 196.42142035 111.25 197.125 C110.0017377 197.85017451 108.75294973 198.57444485 107.50366211 199.29785156 C104.92986347 200.78992305 102.35901366 202.28688868 99.79052734 203.78808594 C95.14118267 206.50416134 90.47568284 209.19180469 85.80981445 211.87939453 C82.58002926 213.73990233 79.35241356 215.60413187 76.125 217.46875 C70.44699619 220.74589147 64.75711707 224.00183363 59.0625 227.25 C52.59399885 230.94088652 46.13318704 234.64439697 39.6875 238.375 C38.9361377 238.80949463 38.18477539 239.24398926 37.41064453 239.69165039 C32.77797405 242.37553475 28.15907534 245.08186068 23.546875 247.80078125 C22.45028564 248.44547363 21.35369629 249.09016602 20.22387695 249.75439453 C18.06137933 251.02641416 15.90099572 252.30203574 13.74291992 253.58154297 C12.76427979 254.15662598 11.78563965 254.73170898 10.77734375 255.32421875 C9.90327881 255.84072998 9.02921387 256.35724121 8.12866211 256.8894043 C6 258 6 258 4 258 C4.00888245 259.23139709 4.01776489 260.46279419 4.0269165 261.73150635 C4.10794285 273.32653134 4.1679369 284.92149902 4.20724869 296.51674271 C4.22813862 302.47824131 4.25648238 308.43951167 4.30175781 314.40087891 C4.34516472 320.15209959 4.36912651 325.90310052 4.37950897 331.65447235 C4.38690956 333.85057791 4.40136089 336.04667121 4.42292023 338.24268341 C4.45188514 341.31472427 4.45595883 344.38585276 4.45410156 347.45800781 C4.46848267 348.36934982 4.48286377 349.28069183 4.49768066 350.21965027 C4.45739765 356.36247743 4.45739765 356.36247743 2.15551758 359.57084656 C-0.78396835 361.51978749 -2.53152832 361.46333065 -6 361 C-8.47167969 359.95288086 -8.47167969 359.95288086 -10.921875 358.46484375 C-11.85112793 357.91062744 -12.78038086 357.35641113 -13.73779297 356.78540039 C-14.73182129 356.17559326 -15.72584961 355.56578613 -16.75 354.9375 C-18.91352647 353.64233333 -21.07760792 352.34809337 -23.2421875 351.0546875 C-24.91619629 350.04680176 -24.91619629 350.04680176 -26.62402344 349.01855469 C-32.00384822 345.80186454 -37.43935262 342.68360567 -42.875 339.5625 C-45.04182102 338.31406994 -47.20848654 337.06536997 -49.375 335.81640625 C-50.4578125 335.19266113 -51.540625 334.56891602 -52.65625 333.92626953 C-57.26777425 331.26965984 -61.8785214 328.61170443 -66.48876953 325.95288086 C-68.66664882 324.69687102 -70.84469506 323.44115061 -73.02294922 322.18579102 C-75.01475295 321.03719168 -77.00550979 319.88677464 -78.99511719 318.734375 C-81.12116506 317.50725085 -83.25257771 316.28939956 -85.38769531 315.078125 C-86.47920898 314.45421875 -87.57072266 313.8303125 -88.6953125 313.1875 C-89.68805176 312.62417969 -90.68079102 312.06085938 -91.70361328 311.48046875 C-94 310 -94 310 -95 308 C-95.46137345 302.57886197 -95.46137345 302.57886197 -93.80541992 300.5012207 C-91.61483156 298.67972945 -89.3410326 297.32692019 -86.86328125 295.91796875 C-85.82381348 295.32314697 -84.7843457 294.7283252 -83.71337891 294.11547852 C-82.59108887 293.47924561 -81.46879883 292.8430127 -80.3125 292.1875 C-78.53455888 291.17242204 -76.75762236 290.15560024 -74.98071289 289.13871765 C-73.76634689 288.44392244 -72.55166262 287.74968321 -71.33666992 287.0559845 C-65.57572367 283.76520917 -59.84910329 280.41689037 -54.125 277.0625 C-45.66583919 272.11967667 -37.19029779 267.20575086 -28.69256592 262.32955933 C-27.45091551 261.61658684 -26.20989472 260.90251658 -24.96954346 260.18728638 C-23.23806653 259.18933096 -21.50384879 258.19613558 -19.76953125 257.203125 C-18.27836792 256.34702637 -18.27836792 256.34702637 -16.75708008 255.47363281 C-14 254 -14 254 -9 252 C-9 204.81 -9 157.62 -9 109 C-10.65 108.34 -12.3 107.68 -14 107 C-15.71934044 106.10624743 -17.42309042 105.18209867 -19.11328125 104.234375 C-20.10126709 103.68144775 -21.08925293 103.12852051 -22.10717773 102.55883789 C-23.16493408 101.96192139 -24.22269043 101.36500488 -25.3125 100.75 C-26.42117432 100.12665771 -27.52984863 99.50331543 -28.67211914 98.86108398 C-38.11198046 93.53673729 -47.47885817 88.0909621 -56.828125 82.609375 C-64.70681068 77.99259812 -72.62220702 73.43973144 -80.53686523 68.88500977 C-81.57012939 68.29002686 -82.60339355 67.69504395 -83.66796875 67.08203125 C-84.57828857 66.55843018 -85.4886084 66.0348291 -86.42651367 65.49536133 C-87.27576416 65.00189209 -88.12501465 64.50842285 -89 64 C-89.91434814 63.48268311 -90.82869629 62.96536621 -91.77075195 62.43237305 C-94 61 -94 61 -95 59 C-95.57405784 53.71866784 -95.57405784 53.71866784 -93.46484375 51.078125 C-90.29008994 48.40147044 -86.90586576 46.56908781 -83.25 44.625 C-75.92538914 40.64295755 -68.69131788 36.53047886 -61.5 32.3125 C-51.77973859 26.61751701 -42.03696709 20.96366383 -32.26464844 15.35839844 C-27.40770208 12.56760975 -22.56940804 9.75886669 -17.79296875 6.83203125 C-17.0155835 6.35926758 -16.23819824 5.88650391 -15.43725586 5.39941406 C-14.03391569 4.54165195 -12.63692009 3.6733711 -11.24829102 2.79199219 C-7.36315565 0.42486279 -4.5491808 -0.81961498 0 0 Z " fill="#FEFBF9" transform="translate(214,77)"></path><path d="M0 0 C4.40412687 1.46804229 7.47882978 2.67715882 11.359375 4.94921875 C12.88908936 5.83879272 12.88908936 5.83879272 14.44970703 6.74633789 C15.53880371 7.38692139 16.62790039 8.02750488 17.75 8.6875 C18.9057488 9.36182715 20.06184266 10.03556318 21.21826172 10.70874023 C23.61980548 12.10729796 26.01984804 13.50838294 28.41894531 14.91113281 C33.9723187 18.15475911 39.5506203 21.35516677 45.125 24.5625 C54.40404573 29.91135992 63.661809 35.29571731 72.90869141 40.69995117 C84.57789343 47.51491269 96.28869565 54.25773253 108 61 C108 61.99 108 62.98 108 64 C95.22665565 71.38529211 82.44522428 78.7552504 69.62750244 86.06326294 C60.35091909 91.35255993 51.09374109 96.67279994 41.875 102.0625 C40.91996582 102.6203418 39.96493164 103.17818359 38.98095703 103.75292969 C34.81961051 106.18369778 30.65839039 108.61467418 26.49902344 111.04882812 C23.50081854 112.80267208 20.4994504 114.55100128 17.49615479 116.29611206 C15.78691053 117.29101541 14.08067512 118.29108225 12.37451172 119.29125977 C11.3382666 119.89252686 10.30202148 120.49379395 9.234375 121.11328125 C8.31881836 121.64735596 7.40326172 122.18143066 6.45996094 122.73168945 C4 124 4 124 0 125 C0 83.75 0 42.5 0 0 Z " fill="#E3740E" transform="translate(218,195)"></path><path d="M0 0 C2.43994141 1.03125 2.43994141 1.03125 4.8515625 2.5 C5.77066406 3.04914063 6.68976563 3.59828125 7.63671875 4.1640625 C9.11591797 5.07285156 9.11591797 5.07285156 10.625 6 C12.7829514 7.29317433 14.94184422 8.58477869 17.1015625 9.875 C18.22981445 10.55304688 19.35806641 11.23109375 20.52050781 11.9296875 C25.71228631 15.03344035 30.97532445 18.01235808 36.23553467 20.99807739 C48.61724712 28.02882909 60.93977805 35.16004557 73.21484375 42.37548828 C75.24174872 43.55773106 77.27673465 44.72615223 79.31640625 45.88623047 C80.40824219 46.51029785 81.50007813 47.13436523 82.625 47.77734375 C83.62789063 48.34573975 84.63078125 48.91413574 85.6640625 49.49975586 C88 51 88 51 89 53 C89.3125 55.875 89.3125 55.875 89 59 C86.30533206 62.1900199 83.37990601 64.11092266 79.73828125 66.1015625 C78.710979 66.66866943 77.68367676 67.23577637 76.62524414 67.82006836 C75.53203857 68.4156958 74.43883301 69.01132324 73.3125 69.625 C71.02527436 70.88793429 68.73881647 72.15225999 66.453125 73.41796875 C65.34001953 74.03333496 64.22691406 74.64870117 63.08007812 75.28271484 C59.20537479 77.44304008 55.37526602 79.67011079 51.5625 81.9375 C41.13228522 88.12443109 30.62995448 94.18522237 20.10839844 100.21533203 C18.12239806 101.35558201 16.13845839 102.49943369 14.15722656 103.64794922 C11.67293927 105.08788352 9.18155301 106.51456886 6.6875 107.9375 C5.97150635 108.35644531 5.2555127 108.77539062 4.51782227 109.20703125 C-2.00074921 112.88795758 -2.00074921 112.88795758 -6 112 C-8.10949707 110.58959961 -8.10949707 110.58959961 -10 108 C-10.60905378 104.69330423 -10.54611285 101.41682045 -10.51757812 98.0625 C-10.5245874 97.05396973 -10.53159668 96.04543945 -10.53881836 95.00634766 C-10.55643218 91.67061886 -10.5447631 88.33573752 -10.53125 85 C-10.53394393 82.68359209 -10.53782551 80.36718528 -10.54284668 78.05078125 C-10.54874634 73.19520302 -10.54016338 68.33991904 -10.52148438 63.484375 C-10.49869496 57.25635354 -10.51181548 51.02902155 -10.53577423 44.80102539 C-10.55021932 40.01752515 -10.54563205 35.23418873 -10.53526306 30.45068359 C-10.53259223 28.15413329 -10.535878 25.85756817 -10.54518127 23.56103516 C-10.55532527 20.3527886 -10.53987483 17.14566294 -10.51757812 13.9375 C-10.52567505 12.98568848 -10.53377197 12.03387695 -10.54211426 11.05322266 C-10.45949286 4.64534312 -10.45949286 4.64534312 -8.15182495 1.40429688 C-5.21452446 -0.51260715 -3.45012488 -0.45906028 0 0 Z " fill="#FEFBF9" transform="translate(304,77)"></path><path d="M0 0 C2.43994141 1.03125 2.43994141 1.03125 4.8515625 2.5 C5.77066406 3.04914063 6.68976563 3.59828125 7.63671875 4.1640625 C9.11591797 5.07285156 9.11591797 5.07285156 10.625 6 C12.7829514 7.29317433 14.94184422 8.58477869 17.1015625 9.875 C18.22981445 10.55304688 19.35806641 11.23109375 20.52050781 11.9296875 C25.71228631 15.03344035 30.97532445 18.01235808 36.23553467 20.99807739 C48.61724712 28.02882909 60.93977805 35.16004557 73.21484375 42.37548828 C75.24174872 43.55773106 77.27673465 44.72615223 79.31640625 45.88623047 C80.40824219 46.51029785 81.50007813 47.13436523 82.625 47.77734375 C83.62789063 48.34573975 84.63078125 48.91413574 85.6640625 49.49975586 C88 51 88 51 89 53 C89.57405784 58.28133216 89.57405784 58.28133216 87.46484375 60.921875 C84.29008994 63.59852956 80.90586576 65.43091219 77.25 67.375 C69.92538026 71.35704728 62.69147296 75.46977598 55.5 79.6875 C53.4558304 80.88428751 51.41155761 82.08089879 49.3671875 83.27734375 C48.32788086 83.88562012 47.28857422 84.49389648 46.21777344 85.12060547 C37.49952799 90.21264291 28.75502676 95.25895767 19.99560547 100.27978516 C18.05748582 101.39274286 16.12146382 102.50936487 14.18798828 103.63037109 C11.69347255 105.07620766 9.19180405 106.50870556 6.6875 107.9375 C5.97094238 108.35676758 5.25438477 108.77603516 4.51611328 109.20800781 C-2.0007822 112.88795025 -2.0007822 112.88795025 -6 112 C-8.10949707 110.58959961 -8.10949707 110.58959961 -10 108 C-10.60905378 104.69330423 -10.54611285 101.41682045 -10.51757812 98.0625 C-10.5245874 97.05396973 -10.53159668 96.04543945 -10.53881836 95.00634766 C-10.55643218 91.67061886 -10.5447631 88.33573752 -10.53125 85 C-10.53394393 82.68359209 -10.53782551 80.36718528 -10.54284668 78.05078125 C-10.54874634 73.19520302 -10.54016338 68.33991904 -10.52148438 63.484375 C-10.49869496 57.25635354 -10.51181548 51.02902155 -10.53577423 44.80102539 C-10.55021932 40.01752515 -10.54563205 35.23418873 -10.53526306 30.45068359 C-10.53259223 28.15413329 -10.535878 25.85756817 -10.54518127 23.56103516 C-10.55532527 20.3527886 -10.53987483 17.14566294 -10.51757812 13.9375 C-10.52567505 12.98568848 -10.53377197 12.03387695 -10.54211426 11.05322266 C-10.45949286 4.64534312 -10.45949286 4.64534312 -8.15182495 1.40429688 C-5.21452446 -0.51260715 -3.45012488 -0.45906028 0 0 Z " fill="#FEFBF9" transform="translate(304,326)"></path><path d="M0 0 C3.32601254 1.00749573 5.98140306 2.30076181 8.98388672 4.04956055 C10.10408203 4.69602539 11.22427734 5.34249023 12.37841797 6.00854492 C13.58294723 6.71605328 14.78737165 7.42374016 15.99169922 8.1315918 C17.25034282 8.86222146 18.50946458 9.59202797 19.76904297 10.32104492 C22.95904385 12.17031859 26.14271293 14.03017454 29.32409668 15.89422607 C31.98454766 17.45236081 34.64838385 19.00467714 37.31201172 20.55737305 C40.20937626 22.24681746 43.1058214 23.93771308 45.99902344 25.63427734 C51.49421152 28.85254738 57.01093235 32.0283995 62.55419922 35.1628418 C63.18438965 35.51991211 63.81458008 35.87698242 64.46386719 36.24487305 C67.53200152 37.98324631 70.60277155 39.71653149 73.67919922 41.44018555 C87.35019922 49.1775918 87.35019922 49.1775918 92.11669922 53.9440918 C92.55419922 56.1940918 92.55419922 56.1940918 92.11669922 58.9440918 C86.93849826 64.00761368 80.63382688 67.27760841 74.36669922 70.8190918 C72.61663023 71.81814693 70.86656627 72.817211 69.11682129 73.8168335 C67.30853498 74.84897301 65.49885303 75.87863148 63.68896484 76.90795898 C58.15013681 80.06106668 52.63473917 83.25479684 47.11669922 86.4440918 C44.97487806 87.67995248 42.83295035 88.9156285 40.69091797 90.15112305 C36.7120749 92.44658637 32.73339149 94.74232594 28.75491333 97.03842163 C26.96603004 98.07082657 25.17711205 99.10317136 23.38818359 100.13549805 C21.14332286 101.43095128 18.89852732 102.7265175 16.65380859 104.0222168 C14.67098507 105.16639524 12.6871749 106.30886644 10.70214844 107.44921875 C9.10327135 108.37366864 7.50989973 109.30780635 5.92578125 110.25732422 C1.4015139 112.95056486 1.4015139 112.95056486 -1.63330078 112.8815918 C-4.09927042 111.85410445 -5.21231439 111.01096933 -6.88330078 108.9440918 C-7.26361752 106.94629765 -7.26361752 106.94629765 -7.27098083 104.6240387 C-7.28088547 103.74220917 -7.2907901 102.86037964 -7.30099487 101.951828 C-7.29649323 100.98707047 -7.29199158 100.02231293 -7.28735352 99.02832031 C-7.29421677 98.0101825 -7.30108002 96.99204468 -7.30815125 95.9430542 C-7.32648795 92.56956123 -7.32257183 89.19653027 -7.31689453 85.82299805 C-7.32145308 83.48274076 -7.32675767 81.14248482 -7.33277893 78.80223083 C-7.3417236 73.89365201 -7.33927148 68.98523576 -7.3293457 64.07666016 C-7.31785554 57.78025555 -7.33806191 51.4844117 -7.36726284 45.18808079 C-7.38559205 40.35398278 -7.38533888 35.52001995 -7.37962532 30.68589592 C-7.3794717 28.36421866 -7.3855496 26.04253247 -7.39791679 23.72088814 C-7.41276233 20.47665159 -7.4021963 17.23346119 -7.38500977 13.98925781 C-7.39467773 13.02652451 -7.4043457 12.0637912 -7.41430664 11.07188416 C-7.34232431 4.59657061 -7.34232431 4.59657061 -5.03215027 1.31277466 C-2.88330078 -0.0559082 -2.88330078 -0.0559082 0 0 Z " fill="#FEFBF9" transform="translate(83.88330078125,201.055908203125)"></path><path d="M0 0 C4.42298576 1.47432859 7.52590216 2.70340233 11.4296875 4.984375 C12.4609375 5.5832251 13.4921875 6.1820752 14.5546875 6.79907227 C15.65039062 7.44287842 16.74609375 8.08668457 17.875 8.75 C19.61312824 9.76247445 21.3512569 10.77494818 23.0894165 11.78736877 C24.87820123 12.83064229 26.6653973 13.87658784 28.45214844 14.92333984 C31.8624159 16.92084216 35.27828772 18.90860707 38.6953125 20.89453125 C47.83073971 26.20792323 56.95031775 31.54148097 66 37 C64.7220314 40.8339058 63.52549332 41.10636815 60.03125 43.00390625 C58.99387695 43.57447754 57.95650391 44.14504883 56.88769531 44.73291016 C55.76975586 45.3366748 54.65181641 45.94043945 53.5 46.5625 C51.19192436 47.83060538 48.88463367 49.10014049 46.578125 50.37109375 C45.44697266 50.99226074 44.31582031 51.61342773 43.15039062 52.25341797 C39.14173649 54.47582278 35.1875648 56.77957885 31.25 59.125 C24.71190592 63.0010222 18.14917512 66.83202978 11.5625 70.625 C10.64307617 71.15883301 9.72365234 71.69266602 8.77636719 72.24267578 C7.49681152 72.97719971 7.49681152 72.97719971 6.19140625 73.7265625 C5.04973999 74.38519287 5.04973999 74.38519287 3.88500977 75.05712891 C2 76 2 76 0 76 C0 50.92 0 25.84 0 0 Z " fill="#EE830B" transform="translate(307,95)"></path><path d="M0 0 C0 25.08 0 50.16 0 76 C-4.26634366 74.57788545 -7.14454638 73.51358575 -10.8515625 71.3046875 C-11.77195313 70.76126709 -12.69234375 70.21784668 -13.640625 69.65795898 C-14.62546875 69.06958252 -15.6103125 68.48120605 -16.625 67.875 C-18.76226221 66.61199662 -20.90031758 65.35033471 -23.0390625 64.08984375 C-24.16473633 63.42581543 -25.29041016 62.76178711 -26.45019531 62.07763672 C-33.19137468 58.11906352 -39.99912339 54.2743677 -46.79864502 50.41717529 C-53.28532297 46.73671559 -59.71337356 43.01388771 -66 39 C-64.74327861 35.22983584 -63.70437669 34.99288597 -60.27734375 33.13671875 C-58.77457886 32.31131592 -58.77457886 32.31131592 -57.24145508 31.46923828 C-55.60599731 30.58727783 -55.60599731 30.58727783 -53.9375 29.6875 C-51.64738324 28.43030396 -49.3583478 27.17113648 -47.0703125 25.91015625 C-46.48399551 25.5880719 -45.89767853 25.26598755 -45.29359436 24.93414307 C-39.23958723 21.6009197 -33.27205603 18.1239222 -27.3125 14.625 C-25.3372515 13.46872964 -23.36199149 12.31247895 -21.38671875 11.15625 C-20.0107251 10.34994141 -20.0107251 10.34994141 -18.60693359 9.52734375 C-14.95081495 7.38530608 -11.29303804 5.24656936 -7.625 3.125 C-6.56539062 2.50882812 -5.50578125 1.89265625 -4.4140625 1.2578125 C-2 0 -2 0 0 0 Z " fill="#E6790E" transform="translate(205,95)"></path><path d="M0 0 C4.42298576 1.47432859 7.52590216 2.70340233 11.4296875 4.984375 C12.4609375 5.5832251 13.4921875 6.1820752 14.5546875 6.79907227 C15.65039062 7.44287842 16.74609375 8.08668457 17.875 8.75 C19.61312824 9.76247445 21.3512569 10.77494818 23.0894165 11.78736877 C24.87820123 12.83064229 26.6653973 13.87658784 28.45214844 14.92333984 C31.8624159 16.92084216 35.27828772 18.90860707 38.6953125 20.89453125 C47.83073971 26.20792323 56.95031775 31.54148097 66 37 C64.55418335 41.33744995 61.28163303 42.29374759 57.4375 44.3125 C55.78508522 45.20449223 54.13411712 46.09916808 52.484375 46.99609375 C51.1530957 47.71901611 51.1530957 47.71901611 49.79492188 48.45654297 C44.87421698 51.17393433 40.03437482 54.02865859 35.1875 56.875 C27.17851934 61.56228954 19.16637733 66.24344575 11.125 70.875 C10.23321045 71.39304199 9.3414209 71.91108398 8.42260742 72.44482422 C7.6051001 72.9142041 6.78759277 73.38358398 5.9453125 73.8671875 C5.22875488 74.28081543 4.51219727 74.69444336 3.77392578 75.12060547 C2 76 2 76 0 76 C0 50.92 0 25.84 0 0 Z " fill="#E07211" transform="translate(307,344)"></path><path d="M0 0 C0 25.08 0 50.16 0 76 C-4.28456404 74.57181199 -7.1910008 73.48701477 -10.921875 71.26953125 C-12.31768799 70.44678711 -12.31768799 70.44678711 -13.74169922 69.60742188 C-14.73443848 69.01509766 -15.72717773 68.42277344 -16.75 67.8125 C-18.8928051 66.54745849 -21.03605038 65.28316237 -23.1796875 64.01953125 C-24.29311523 63.36162598 -25.40654297 62.7037207 -26.55371094 62.02587891 C-33.37133359 58.01818319 -40.23536813 54.09071722 -47.09277344 50.15161133 C-53.43624872 46.50075166 -59.73914142 42.79088304 -66 39 C-64.74327861 35.22983584 -63.70437669 34.99288597 -60.27734375 33.13671875 C-58.77457886 32.31131592 -58.77457886 32.31131592 -57.24145508 31.46923828 C-55.60599731 30.58727783 -55.60599731 30.58727783 -53.9375 29.6875 C-51.64738324 28.43030396 -49.3583478 27.17113648 -47.0703125 25.91015625 C-46.48399551 25.5880719 -45.89767853 25.26598755 -45.29359436 24.93414307 C-39.23958723 21.6009197 -33.27205603 18.1239222 -27.3125 14.625 C-25.3372515 13.46872964 -23.36199149 12.31247895 -21.38671875 11.15625 C-20.0107251 10.34994141 -20.0107251 10.34994141 -18.60693359 9.52734375 C-14.95081495 7.38530608 -11.29303804 5.24656936 -7.625 3.125 C-6.56539062 2.50882812 -5.50578125 1.89265625 -4.4140625 1.2578125 C-2 0 -2 0 0 0 Z " fill="#D96815" transform="translate(205,344)"></path><path d="M0 0 C22.30276517 12.16514464 44.43125205 24.57110997 66 38 C63.60030318 40.65565787 61.03555811 42.27998553 57.93359375 44.046875 C56.90306885 44.63734619 55.87254395 45.22781738 54.81079102 45.83618164 C53.69760498 46.4677417 52.58441895 47.09930176 51.4375 47.75 C50.27698209 48.41283959 49.11674871 49.07617758 47.95678711 49.73999023 C45.53440497 51.12585288 43.11079301 52.50953194 40.68652344 53.89208984 C37.07764949 55.95268657 33.47884429 58.03037216 29.8828125 60.11328125 C29.01956108 60.61300949 29.01956108 60.61300949 28.13887024 61.12283325 C25.3901715 62.71415824 22.64196374 64.30632483 19.89428711 65.89941406 C18.88889893 66.48045898 17.88351074 67.06150391 16.84765625 67.66015625 C15.5484021 68.41244507 15.5484021 68.41244507 14.22290039 69.17993164 C9.51189079 71.84037983 4.7496987 74.40925525 0 77 C0 51.59 0 26.18 0 0 Z " fill="#DB6B12" transform="translate(90,219)"></path><path d="M0 0 C0 24.75 0 49.5 0 75 C-4.54603146 73.48465618 -7.81708965 72.13440907 -11.8671875 69.796875 C-12.98899414 69.15274658 -14.11080078 68.50861816 -15.26660156 67.8449707 C-16.46950723 67.14683007 -17.67230429 66.44850227 -18.875 65.75 C-20.11923725 65.03239921 -21.36370645 64.31520043 -22.60839844 63.59838867 C-25.7898091 61.76404036 -28.9670352 59.92258235 -32.1427002 58.07830811 C-33.93655688 57.0368337 -35.73129958 55.99690512 -37.52636719 54.95751953 C-57.34191915 43.47735396 -57.34191915 43.47735396 -66 38 C-63.11159728 34.86423848 -60.28901438 32.84630752 -56.546875 30.8203125 C-55.46390137 30.22782715 -54.38092773 29.6353418 -53.26513672 29.02490234 C-52.1051416 28.39793457 -50.94514648 27.7709668 -49.75 27.125 C-47.30752677 25.79076036 -44.86832273 24.45061436 -42.4296875 23.109375 C-41.81106842 22.76969696 -41.19244934 22.43001892 -40.55508423 22.08004761 C-33.27788034 18.07228979 -26.11513836 13.87099313 -18.95605469 9.65673828 C-14.63324476 7.11368531 -10.30643282 4.57848416 -5.9453125 2.1015625 C-5.23133301 1.69502441 -4.51735352 1.28848633 -3.78173828 0.86962891 C-2 0 -2 0 0 0 Z " fill="#EB7F0B" transform="translate(422,220)"></path></svg>