<svg version="1.1" xmlns="http://www.w3.org/2000/svg" width="16px" height="16px" fill="currentColor" viewBox="0 0 512 512"><path d="M0 0 C168.96 0 337.92 0 512 0 C512 168.96 512 337.92 512 512 C343.04 512 174.08 512 0 512 C0 343.04 0 174.08 0 0 Z " fill="#438926" transform="translate(0,0)"></path><path d="M0 0 C2.83886719 1.15478516 2.83886719 1.15478516 5.796875 2.7890625 C6.90724121 3.39387451 8.01760742 3.99868652 9.16162109 4.62182617 C10.35783712 5.28939003 11.55396106 5.95711891 12.75 6.625 C13.99881861 7.31026528 15.24834225 7.99424715 16.49853516 8.67700195 C19.07344643 10.08488087 21.64486859 11.49884292 24.21386719 12.91748047 C29.90772472 16.05666225 35.64424122 19.11640106 41.375 22.1875 C50.15553168 26.91253844 58.91631222 31.67275679 67.66455078 36.45727539 C74.84230298 40.37909307 82.04411139 44.25517093 89.25 48.125 C97.22741338 52.41054067 105.17668602 56.73790381 113.07714844 61.16357422 C120.92667934 65.54649742 128.85820908 69.77768194 136.79296875 74.00390625 C155.50901291 84.01802582 155.50901291 84.01802582 157 87 C157.10401552 89.40896727 157.14779901 91.78943034 157.14717102 94.19894409 C157.15084771 94.94920431 157.1545244 95.69946453 157.1583125 96.47245991 C157.16937201 98.99971317 157.17319698 101.52692535 157.17700195 104.05419922 C157.1832648 105.86079032 157.18991144 107.66738012 157.19691467 109.47396851 C157.21433886 114.39131271 157.22487989 119.30864718 157.2331202 124.22601461 C157.23826642 127.29584136 157.24434226 130.36566506 157.25063133 133.43548965 C157.26968574 143.03352163 157.28391741 152.6315459 157.2922433 162.22959316 C157.30202338 173.32182251 157.32836197 184.4138527 157.36874419 195.50601184 C157.39886223 204.07165064 157.41370799 212.6372322 157.41702431 221.20292294 C157.41937937 226.32275857 157.42839904 231.4423815 157.45348549 236.56216049 C157.47669645 241.37697462 157.48102769 246.19143495 157.47072411 251.00629044 C157.47022696 252.77521183 157.47659978 254.54415023 157.49028015 256.3130188 C157.50789195 258.72480381 157.50094694 261.13530425 157.48774719 263.54708862 C157.50420106 264.60146694 157.50420106 264.60146694 157.52098733 265.67714584 C157.47667188 269.02202371 157.22845572 270.71131515 155.125247 273.3690052 C152.74085791 275.19887542 150.3554414 276.62938377 147.6953125 278.03125 C146.64859375 278.588125 145.601875 279.145 144.5234375 279.71875 C143.40195312 280.3065625 142.28046875 280.894375 141.125 281.5 C139.35134345 282.44176454 137.57769202 283.38353928 135.80462646 284.32641602 C134.60381505 284.96453191 133.40251807 285.60173487 132.20074463 286.23803711 C126.7742989 289.11141775 121.38389205 292.04789744 116 295 C106.9124229 299.97047051 97.7952675 304.88470362 88.671875 309.7890625 C81.76829177 313.50260134 74.877964 317.23924191 68 321 C60.01689434 325.36503146 52.01398511 329.69193117 44 334 C35.63344913 338.49828579 27.27654874 343.01340907 18.9375 347.5625 C17.62749023 348.27696289 17.62749023 348.27696289 16.29101562 349.00585938 C15.46150391 349.45896484 14.63199219 349.91207031 13.77734375 350.37890625 C12.58214111 351.02690186 12.58214111 351.02690186 11.36279297 351.68798828 C9.75705084 352.5796248 8.16766177 353.50122743 6.59423828 354.44873047 C5.82192871 354.90779785 5.04961914 355.36686523 4.25390625 355.83984375 C3.57787354 356.25484131 2.90184082 356.66983887 2.20532227 357.09741211 C-1.67207316 358.68434125 -4.79919029 358.497407 -8.64282227 356.90527344 C-9.52510498 356.39512695 -10.4073877 355.88498047 -11.31640625 355.359375 C-12.31671875 354.78960937 -13.31703125 354.21984375 -14.34765625 353.6328125 C-15.93900391 352.70082031 -15.93900391 352.70082031 -17.5625 351.75 C-18.67367187 351.11320312 -19.78484375 350.47640625 -20.9296875 349.8203125 C-24.29273868 347.89088199 -27.64639485 345.94578807 -31 344 C-33.65982761 342.47430038 -36.32262835 340.95392463 -38.98608398 339.43457031 C-40.67275861 338.47206666 -42.3584577 337.50785165 -44.04321289 336.54199219 C-50.83677798 332.64894212 -57.66408479 328.81810874 -64.5 325 C-73.04390158 320.22791839 -81.55808459 315.40839933 -90.046875 310.5390625 C-96.840044 306.64842935 -103.66551182 302.81750885 -110.5 299 C-118.49713629 294.53121132 -126.48136123 290.04143759 -134.4375 285.5 C-135.25863281 285.03207031 -136.07976562 284.56414062 -136.92578125 284.08203125 C-139.28894508 282.72999161 -141.64437924 281.36512888 -144 280 C-145.34215576 279.24009766 -145.34215576 279.24009766 -146.71142578 278.46484375 C-147.60200684 277.95050781 -148.49258789 277.43617188 -149.41015625 276.90625 C-150.21718994 276.44541016 -151.02422363 275.98457031 -151.85571289 275.50976562 C-154.29024208 273.7956442 -155.48696787 272.5754413 -157 270 C-157.29459258 267.45319445 -157.41810679 265.15091722 -157.40113831 262.60523987 C-157.40793498 261.85805992 -157.41473164 261.11087996 -157.42173427 260.34105819 C-157.44073307 257.83603623 -157.43826779 255.33150208 -157.43579102 252.82641602 C-157.44476681 251.03099945 -157.45497464 249.23558868 -157.46632385 247.44018555 C-157.49284435 242.56211219 -157.49985812 237.68419665 -157.50177121 232.80605817 C-157.50461875 228.73534408 -157.51565376 224.66466682 -157.5262875 220.5939669 C-157.5507206 210.99158072 -157.55804018 201.38927893 -157.5559082 191.78686523 C-157.55410509 181.87669924 -157.58577534 171.96702275 -157.63313919 162.05698067 C-157.67234333 153.55156093 -157.68846088 145.04630135 -157.68654197 136.54079193 C-157.68577643 131.459434 -157.69436196 126.37851116 -157.72607613 121.29724312 C-157.75508375 116.5191643 -157.75538314 111.7419376 -157.73352623 106.96382904 C-157.73038425 105.20983832 -157.73750422 103.45579487 -157.7556076 101.70189476 C-157.77872232 99.30750466 -157.76487697 96.91606891 -157.74171448 94.52174377 C-157.75714517 93.82699292 -157.77257586 93.13224207 -157.78847414 92.41643816 C-157.73012213 89.68861367 -157.51089672 87.59907131 -155.70655334 85.48332012 C-152.65013426 82.88677944 -149.26021778 80.83207366 -145.75390625 78.90625 C-144.76374512 78.35767334 -143.77358398 77.80909668 -142.75341797 77.24389648 C-141.70041504 76.66841064 -140.64741211 76.0929248 -139.5625 75.5 C-137.30572602 74.25177848 -135.04922136 73.00306993 -132.79296875 71.75390625 C-131.65520996 71.12629395 -130.51745117 70.49868164 -129.34521484 69.85205078 C-124.33693088 67.07925541 -119.35515778 64.26040802 -114.375 61.4375 C-112.47660198 60.36321149 -110.57816447 59.28899274 -108.6796875 58.21484375 C-107.74350586 57.68487793 -106.80732422 57.15491211 -105.84277344 56.60888672 C-101.06306263 53.90377729 -96.28142898 51.2020709 -91.5 48.5 C-89.58332424 47.41668275 -87.66665757 46.33334943 -85.75 45.25 C-51.25 25.75 -51.25 25.75 -48.37060547 24.12255859 C-46.46853866 23.04744922 -44.56651983 21.97225497 -42.66455078 20.89697266 C-37.64991182 18.06208749 -32.63426152 15.22901128 -27.6171875 12.3984375 C-26.57240234 11.80869141 -25.52761719 11.21894531 -24.45117188 10.61132812 C-22.45017689 9.48187762 -20.44889032 8.35294351 -18.44726562 7.22460938 C-17.0927832 6.45987305 -17.0927832 6.45987305 -15.7109375 5.6796875 C-14.91993652 5.23351074 -14.12893555 4.78733398 -13.31396484 4.32763672 C-10.94132142 3.00860085 -10.94132142 3.00860085 -8.58056641 1.33251953 C-5.39513029 -0.3123348 -3.5493483 -0.42108023 0 0 Z " fill="#448A27" transform="translate(259,77)"></path><path d="M0 0 C16.21816819 11.79658339 28.66022859 28.67646367 32.56494141 48.63793945 C32.99865065 52.03847138 32.95897836 55.32731396 32.83447266 58.7512207 C33.53958984 58.97680664 34.24470703 59.20239258 34.97119141 59.43481445 C38.42555329 61.02297265 40.92074288 63.22782775 43.64697266 65.8137207 C44.17395752 66.31049316 44.70094238 66.80726563 45.24389648 67.3190918 C46.78452066 68.78606157 48.31042734 70.26706373 49.83447266 71.7512207 C50.94435547 72.8050293 50.94435547 72.8050293 52.07666016 73.88012695 C66.60229801 88.78494813 71.49984958 108.61248767 71.37817383 128.80908203 C70.71486822 150.42393219 60.56533168 169.7448721 45.08447266 184.5637207 C34.88760672 193.23344291 23.58044536 198.1200151 10.83447266 201.7512207 C9.63757813 202.12053711 9.63757813 202.12053711 8.41650391 202.49731445 C-6.60230382 206.58310642 -22.98709673 203.29734002 -37.16943359 197.87231445 C-38.15814453 197.50235352 -39.14685547 197.13239258 -40.16552734 196.7512207 C-40.83455078 196.48954102 -41.50357422 196.22786133 -42.19287109 195.95825195 C-45.2362775 195.63884494 -47.37630372 196.81169886 -50.16552734 198.0012207 C-68.8726351 205.44673255 -88.36060459 206.42081883 -107.29638672 198.90551758 C-116.1890205 195.07346771 -124.00661132 190.31984014 -131.16552734 183.7512207 C-131.92091797 183.08735352 -132.67630859 182.42348633 -133.45458984 181.73950195 C-143.52444044 172.37903946 -150.0048383 160.77172994 -154.16552734 147.7512207 C-154.48392578 146.84629883 -154.80232422 145.94137695 -155.13037109 145.0090332 C-159.64370217 130.32510813 -158.17681908 114.05681129 -153.16552734 99.7512207 C-152.86517578 98.84243164 -152.56482422 97.93364258 -152.25537109 96.99731445 C-147.31988013 83.34459269 -137.69511777 70.48866318 -125.16552734 63.0637207 C-121.49775953 60.56155707 -120.34582895 59.35370741 -119.05615234 55.04418945 C-118.68813212 52.87617451 -118.41077357 50.71101445 -118.15258789 48.52734375 C-115.92499971 30.09330236 -103.89625786 13.75809483 -89.56347656 2.49194336 C-63.39978004 -16.85047609 -27.21682352 -18.36397518 0 0 Z " fill="#FBFCFB" transform="translate(299.16552734375,148.248779296875)"></path><path d="M0 0 C2.83886719 1.15478516 2.83886719 1.15478516 5.796875 2.7890625 C6.90724121 3.39387451 8.01760742 3.99868652 9.16162109 4.62182617 C10.35783712 5.28939003 11.55396106 5.95711891 12.75 6.625 C13.99881861 7.31026528 15.24834225 7.99424715 16.49853516 8.67700195 C19.07344643 10.08488087 21.64486859 11.49884292 24.21386719 12.91748047 C29.90772472 16.05666225 35.64424122 19.11640106 41.375 22.1875 C50.15553168 26.91253844 58.91631222 31.67275679 67.66455078 36.45727539 C74.84230298 40.37909307 82.04411139 44.25517093 89.25 48.125 C97.22741338 52.41054067 105.17668602 56.73790381 113.07714844 61.16357422 C120.92667934 65.54649742 128.85820908 69.77768194 136.79296875 74.00390625 C155.50901291 84.01802582 155.50901291 84.01802582 157 87 C157.10401552 89.40896727 157.14779901 91.78943034 157.14717102 94.19894409 C157.15084771 94.94920431 157.1545244 95.69946453 157.1583125 96.47245991 C157.16937201 98.99971317 157.17319698 101.52692535 157.17700195 104.05419922 C157.1832648 105.86079032 157.18991144 107.66738012 157.19691467 109.47396851 C157.21433886 114.39131271 157.22487989 119.30864718 157.2331202 124.22601461 C157.23826642 127.29584136 157.24434226 130.36566506 157.25063133 133.43548965 C157.26968574 143.03352163 157.28391741 152.6315459 157.2922433 162.22959316 C157.30202338 173.32182251 157.32836197 184.4138527 157.36874419 195.50601184 C157.39886223 204.07165064 157.41370799 212.6372322 157.41702431 221.20292294 C157.41937937 226.32275857 157.42839904 231.4423815 157.45348549 236.56216049 C157.47669645 241.37697462 157.48102769 246.19143495 157.47072411 251.00629044 C157.47022696 252.77521183 157.47659978 254.54415023 157.49028015 256.3130188 C157.50789195 258.72480381 157.50094694 261.13530425 157.48774719 263.54708862 C157.50420106 264.60146694 157.50420106 264.60146694 157.52098733 265.67714584 C157.47667188 269.02202371 157.22845572 270.71131515 155.125247 273.3690052 C152.74085791 275.19887542 150.3554414 276.62938377 147.6953125 278.03125 C146.64859375 278.588125 145.601875 279.145 144.5234375 279.71875 C143.40195312 280.3065625 142.28046875 280.894375 141.125 281.5 C139.35134345 282.44176454 137.57769202 283.38353928 135.80462646 284.32641602 C134.60381505 284.96453191 133.40251807 285.60173487 132.20074463 286.23803711 C126.7742989 289.11141775 121.38389205 292.04789744 116 295 C106.9124229 299.97047051 97.7952675 304.88470362 88.671875 309.7890625 C81.76829177 313.50260134 74.877964 317.23924191 68 321 C60.01689434 325.36503146 52.01398511 329.69193117 44 334 C35.63344913 338.49828579 27.27654874 343.01340907 18.9375 347.5625 C17.62749023 348.27696289 17.62749023 348.27696289 16.29101562 349.00585938 C15.46150391 349.45896484 14.63199219 349.91207031 13.77734375 350.37890625 C12.58214111 351.02690186 12.58214111 351.02690186 11.36279297 351.68798828 C9.75705084 352.5796248 8.16766177 353.50122743 6.59423828 354.44873047 C5.82192871 354.90779785 5.04961914 355.36686523 4.25390625 355.83984375 C3.57787354 356.25484131 2.90184082 356.66983887 2.20532227 357.09741211 C-1.67207316 358.68434125 -4.79919029 358.497407 -8.64282227 356.90527344 C-9.52510498 356.39512695 -10.4073877 355.88498047 -11.31640625 355.359375 C-12.31671875 354.78960937 -13.31703125 354.21984375 -14.34765625 353.6328125 C-15.93900391 352.70082031 -15.93900391 352.70082031 -17.5625 351.75 C-18.67367187 351.11320312 -19.78484375 350.47640625 -20.9296875 349.8203125 C-24.29273868 347.89088199 -27.64639485 345.94578807 -31 344 C-33.65982761 342.47430038 -36.32262835 340.95392463 -38.98608398 339.43457031 C-40.67275861 338.47206666 -42.3584577 337.50785165 -44.04321289 336.54199219 C-50.83677798 332.64894212 -57.66408479 328.81810874 -64.5 325 C-73.04390158 320.22791839 -81.55808459 315.40839933 -90.046875 310.5390625 C-96.840044 306.64842935 -103.66551182 302.81750885 -110.5 299 C-118.49713629 294.53121132 -126.48136123 290.04143759 -134.4375 285.5 C-135.25863281 285.03207031 -136.07976562 284.56414062 -136.92578125 284.08203125 C-139.28894508 282.72999161 -141.64437924 281.36512888 -144 280 C-145.34215576 279.24009766 -145.34215576 279.24009766 -146.71142578 278.46484375 C-147.60200684 277.95050781 -148.49258789 277.43617188 -149.41015625 276.90625 C-150.21718994 276.44541016 -151.02422363 275.98457031 -151.85571289 275.50976562 C-154.29024208 273.7956442 -155.48696787 272.5754413 -157 270 C-157.29459258 267.45319445 -157.41810679 265.15091722 -157.40113831 262.60523987 C-157.40793498 261.85805992 -157.41473164 261.11087996 -157.42173427 260.34105819 C-157.44073307 257.83603623 -157.43826779 255.33150208 -157.43579102 252.82641602 C-157.44476681 251.03099945 -157.45497464 249.23558868 -157.46632385 247.44018555 C-157.49284435 242.56211219 -157.49985812 237.68419665 -157.50177121 232.80605817 C-157.50461875 228.73534408 -157.51565376 224.66466682 -157.5262875 220.5939669 C-157.5507206 210.99158072 -157.55804018 201.38927893 -157.5559082 191.78686523 C-157.55410509 181.87669924 -157.58577534 171.96702275 -157.63313919 162.05698067 C-157.67234333 153.55156093 -157.68846088 145.04630135 -157.68654197 136.54079193 C-157.68577643 131.459434 -157.69436196 126.37851116 -157.72607613 121.29724312 C-157.75508375 116.5191643 -157.75538314 111.7419376 -157.73352623 106.96382904 C-157.73038425 105.20983832 -157.73750422 103.45579487 -157.7556076 101.70189476 C-157.77872232 99.30750466 -157.76487697 96.91606891 -157.74171448 94.52174377 C-157.75714517 93.82699292 -157.77257586 93.13224207 -157.78847414 92.41643816 C-157.73012213 89.68861367 -157.51089672 87.59907131 -155.70655334 85.48332012 C-152.65013426 82.88677944 -149.26021778 80.83207366 -145.75390625 78.90625 C-144.76374512 78.35767334 -143.77358398 77.80909668 -142.75341797 77.24389648 C-141.70041504 76.66841064 -140.64741211 76.0929248 -139.5625 75.5 C-137.30572602 74.25177848 -135.04922136 73.00306993 -132.79296875 71.75390625 C-131.65520996 71.12629395 -130.51745117 70.49868164 -129.34521484 69.85205078 C-124.33693088 67.07925541 -119.35515778 64.26040802 -114.375 61.4375 C-112.47660198 60.36321149 -110.57816447 59.28899274 -108.6796875 58.21484375 C-107.74350586 57.68487793 -106.80732422 57.15491211 -105.84277344 56.60888672 C-101.06306263 53.90377729 -96.28142898 51.2020709 -91.5 48.5 C-89.58332424 47.41668275 -87.66665757 46.33334943 -85.75 45.25 C-51.25 25.75 -51.25 25.75 -48.37060547 24.12255859 C-46.46853866 23.04744922 -44.56651983 21.97225497 -42.66455078 20.89697266 C-37.64991182 18.06208749 -32.63426152 15.22901128 -27.6171875 12.3984375 C-26.57240234 11.80869141 -25.52761719 11.21894531 -24.45117188 10.61132812 C-22.45017689 9.48187762 -20.44889032 8.35294351 -18.44726562 7.22460938 C-17.0927832 6.45987305 -17.0927832 6.45987305 -15.7109375 5.6796875 C-14.91993652 5.23351074 -14.12893555 4.78733398 -13.31396484 4.32763672 C-10.94132142 3.00860085 -10.94132142 3.00860085 -8.58056641 1.33251953 C-5.39513029 -0.3123348 -3.5493483 -0.42108023 0 0 Z M-9.10546875 16.1328125 C-9.91113281 16.60203125 -10.71679688 17.07125 -11.546875 17.5546875 C-12.85398438 18.33199219 -12.85398438 18.33199219 -14.1875 19.125 C-16.08652933 20.23298906 -17.98630057 21.33970728 -19.88671875 22.4453125 C-20.88493652 23.02829102 -21.8831543 23.61126953 -22.91162109 24.21191406 C-28.07434525 27.20098851 -33.28835907 30.09734452 -38.5 33 C-47.04682066 37.77223042 -55.56328241 42.59315623 -64.0534668 47.46533203 C-70.77896549 51.31846246 -77.54195829 55.10170033 -84.3125 58.875 C-93.65973664 64.08620849 -102.91579759 69.43634288 -112.14013672 74.86157227 C-120.10820734 79.52760132 -128.17917082 83.98476882 -136.3112793 88.35791016 C-137.60932495 89.0566626 -137.60932495 89.0566626 -138.93359375 89.76953125 C-139.69728271 90.17792236 -140.46097168 90.58631348 -141.24780273 91.00708008 C-142.96771685 91.87885596 -142.96771685 91.87885596 -144 93 C-144.09701605 95.2149186 -144.12186691 97.43299797 -144.12025452 99.65003967 C-144.12110894 100.3532651 -144.12196337 101.05649053 -144.12284368 101.78102583 C-144.12450053 104.15490516 -144.1189738 106.52871498 -144.11352539 108.90258789 C-144.11324354 110.59729511 -144.11340122 112.29200245 -144.1139679 113.98670959 C-144.11425594 118.60221626 -144.10835809 123.21769717 -144.10139394 127.83319783 C-144.09516156 132.65120264 -144.09455669 137.46920797 -144.09336853 142.28721619 C-144.09025487 151.41742498 -144.08204102 160.54762186 -144.07201904 169.67782539 C-144.06085898 180.06942676 -144.05534772 190.46102868 -144.05032361 200.85263455 C-144.03985843 222.23509636 -144.02225832 243.61754743 -144 265 C-140.64150354 266.92097095 -137.28269296 268.841392 -133.92382812 270.76171875 C-132.97904602 271.30211792 -132.03426392 271.84251709 -131.06085205 272.39929199 C-124.22841866 276.30502641 -117.37583268 280.17114211 -110.5 284 C-101.95549375 288.77099052 -93.44190412 293.59160714 -84.953125 298.4609375 C-78.15995781 302.35156962 -71.33457101 306.18264205 -64.5 310 C-56.81074642 314.29472944 -49.14027222 318.61872639 -41.5 323 C-38.94065114 324.46401322 -36.38070196 325.92696759 -33.8203125 327.38916016 C-31.79369273 328.54667723 -29.76772856 329.70534242 -27.7421875 330.86474609 C-24.33221616 332.81295438 -20.91672207 334.75116011 -17.5 336.6875 C-16.43072266 337.30044922 -15.36144531 337.91339844 -14.25976562 338.54492188 C-12.75446289 339.39473633 -12.75446289 339.39473633 -11.21875 340.26171875 C-10.33123047 340.76662842 -9.44371094 341.27153809 -8.52929688 341.79174805 C-5.86873666 343.06270485 -3.94769149 343.81858616 -1 344 C1.89552554 342.95947233 1.89552554 342.95947233 4.83984375 341.23828125 C5.97373535 340.62009521 7.10762695 340.00190918 8.27587891 339.36499023 C9.49654751 338.68105565 10.71708472 337.99688651 11.9375 337.3125 C13.20417323 336.61591768 14.47159793 335.92070018 15.73974609 335.22680664 C18.29898333 333.82374175 20.85379325 332.41311736 23.40478516 330.99511719 C27.42580068 328.76055502 31.46471605 326.55953049 35.50610352 324.36206055 C38.15478795 322.92129671 40.8001532 321.47456757 43.4453125 320.02734375 C49.61563166 316.65777623 55.80749219 313.32856369 62 310 C70.95496091 305.18578776 79.89449076 300.34485392 88.81469727 295.46655273 C93.5010127 292.90471161 98.19258641 290.35337268 102.89453125 287.8203125 C103.90306152 287.27640869 104.9115918 286.73250488 105.95068359 286.17211914 C107.82105956 285.16415864 109.69233716 284.15786744 111.56494141 283.15405273 C122.47579787 277.27043967 133.20106006 271.10374866 144 265 C144 208.24 144 151.48 144 93 C130.61524824 85.43470552 117.38082737 78.06890543 103.75 71.03125 C97.92093199 67.98999712 92.2065655 64.76401007 86.5 61.5 C77.94813502 56.61103971 69.29945305 51.96580426 60.5480957 47.44482422 C53.14785953 43.61687759 45.82189222 39.66764387 38.51757812 35.66015625 C33.36127169 32.83214612 28.19610325 30.02177976 23.015625 27.23828125 C22.42578323 26.92131287 21.83594147 26.60434448 21.22822571 26.277771 C18.34150877 24.72716022 15.45379254 23.17843479 12.56518555 21.63134766 C11.52144775 21.07108887 10.47770996 20.51083008 9.40234375 19.93359375 C8.47929443 19.43915771 7.55624512 18.94472168 6.60522461 18.43530273 C4 17 4 17 1.41235352 15.31665039 C-2.67563019 13.08544949 -5.34964118 13.9126146 -9.10546875 16.1328125 Z " fill="#FBFCFA" transform="translate(259,77)"></path><path d="M0 0 C12.85351393 10.83161286 23.50198666 24.41082103 25.28344727 41.76049805 C25.40060467 44.63918735 25.41704164 47.49430692 25.375 50.375 C25.36412354 51.38941162 25.35324707 52.40382324 25.34204102 53.44897461 C24.93839573 72.41116378 17.23992328 87.87986275 3.80078125 101.17578125 C-10.35563282 113.55363057 -27.48029511 117.97959853 -45.88574219 117.16552734 C-58.84941118 116.15058882 -58.84941118 116.15058882 -63 112 C-62.35933594 111.46632813 -61.71867187 110.93265625 -61.05859375 110.3828125 C-53.78060445 104.11354601 -48.27855786 97.76948391 -44.07421875 89.1015625 C-43.73922363 88.42432129 -43.40422852 87.74708008 -43.05908203 87.04931641 C-42.4091873 85.71290867 -41.78496625 84.36361588 -41.19091797 83.00146484 C-39.92838924 80.38588646 -38.85368275 78.3621317 -36.109375 77.19799805 C-34.71465733 76.86759357 -33.30941432 76.5786545 -31.8972168 76.33349609 C-25.89901958 75.27912247 -20.89873642 70.49522799 -17.25390625 65.8671875 C-12.71246637 59.10454494 -12.14847717 52.0175851 -13 44 C-13.53560547 42.70642578 -13.53560547 42.70642578 -14.08203125 41.38671875 C-15.16322643 38.57561129 -15.14246235 37.74921305 -14 35 C-12.79711045 33.00475362 -11.5633106 31.02805952 -10.3125 29.0625 C-4.86018419 20.09136624 -2.51140892 10.10639557 0 0 Z " fill="#478D29" transform="translate(332,222)"></path><path d="M0 0 C0.13986328 0.53254395 0.27972656 1.06508789 0.42382812 1.61376953 C3.28946452 12.31844183 6.43122332 21.84910057 12.36328125 31.25 C13.78111708 33.63223491 14.67921062 35.27329028 15 38 C14.690625 38.886875 14.38125 39.77375 14.0625 40.6875 C11.66278493 48.16896461 12.68361335 55.92356293 16 63 C20.07385876 68.97499285 24.96748321 73.85578435 32 76 C33.15371094 76.04125 34.30742187 76.0825 35.49609375 76.125 C39 77 39 77 41.1875 80.28125 C41.81491996 81.67728031 42.41806052 83.08440724 43 84.5 C43.66560536 85.96829973 44.33878759 87.43318849 45.01953125 88.89453125 C45.51380615 89.95728271 45.51380615 89.95728271 46.01806641 91.04150391 C49.14154466 97.27137525 54.05567179 102.18930228 59 107 C60.34555186 108.65681796 61.68060137 110.32228048 63 112 C43.99662608 117.72914638 27.60011559 117.94183264 9.375 108.9375 C-6.7473046 99.75565092 -18.69762145 84.79180592 -23.8828125 66.96484375 C-27.70327609 47.40514638 -24.36415478 28.91419962 -13.19921875 12.32421875 C-3.85766807 0 -3.85766807 0 0 0 Z " fill="#3C8323" transform="translate(180,223)"></path><path d="M0 0 C14.10786398 10.43369573 23.2775315 22.84616848 28.33984375 39.73046875 C28.33984375 40.39046875 28.33984375 41.05046875 28.33984375 41.73046875 C27.75976562 41.59769531 27.1796875 41.46492188 26.58203125 41.328125 C25.80085938 41.15152344 25.0196875 40.97492188 24.21484375 40.79296875 C23.44914062 40.61894531 22.6834375 40.44492188 21.89453125 40.265625 C21.05148437 40.08902344 20.2084375 39.91242188 19.33984375 39.73046875 C18.48261719 39.54613281 17.62539063 39.36179688 16.7421875 39.171875 C13.77452606 38.78686267 11.02395841 38.67181195 8.0390625 38.66015625 C7.06130859 38.64984375 6.08355469 38.63953125 5.07617188 38.62890625 C3.05538315 38.61337168 1.0342759 38.62091504 -0.98632812 38.65234375 C-7.86583447 38.52586563 -11.53301527 37.10451701 -16.61401367 32.42626953 C-22.17783687 27.81508758 -28.83991171 28.16974657 -35.6953125 28.34765625 C-40.99265713 28.85912401 -44.59898447 30.33918098 -48.66015625 33.73046875 C-49.27632812 34.61089844 -49.8925 35.49132812 -50.52734375 36.3984375 C-55.69522331 40.24535034 -61.35826155 39.12606277 -67.59765625 38.85546875 C-77.90381805 38.46010536 -86.68134902 39.12780346 -96.66015625 41.73046875 C-95.63359782 27.61529038 -87.37074971 15.61275081 -77.3359375 6.01953125 C-55.62927079 -12.54996757 -24.27941912 -15.71496512 0 0 Z " fill="#4B912C" transform="translate(290.66015625,158.26953125)"></path><path d="M0 0 C1.49569553 7.79508474 2.295451 13.91186506 -2.00219727 20.81787109 C-3.92737115 23.60600201 -5.95015148 26.30173002 -8 29 C-8.49242187 29.92296875 -8.98484375 30.8459375 -9.4921875 31.796875 C-11.39159143 34.57216986 -12.64242447 34.88809069 -15.875 35.625 C-19.72869959 36.60808663 -22.65016973 37.80167388 -26 40 C-26.66 40 -27.32 40 -28 40 C-34.08466979 28.74119295 -39.31191702 18.13950455 -39 5 C-26.91306127 0.26633198 -12.96180457 -3.99070338 0 0 Z " fill="#458B29" transform="translate(231,209)"></path><path d="M0 0 C1.75860352 -0.061875 1.75860352 -0.061875 3.55273438 -0.125 C13.27027561 -0.21279258 13.27027561 -0.21279258 17.39453125 3.40625 C17.87768799 3.93541016 18.36084473 4.46457031 18.85864258 5.00976562 C20.5183393 6.7109896 22.1531712 7.54171627 24.3125 8.5 C22.54978506 19.81743112 13.22093683 29.78929588 4.5625 36.75 C1.3125 38.5 1.3125 38.5 -1.01953125 37.953125 C-4.39940409 36.11225722 -6.95357903 33.72284349 -9.625 31 C-10.15206543 30.46898682 -10.67913086 29.93797363 -11.22216797 29.39086914 C-15.5813924 24.87051656 -18.75909021 20.05133798 -21.6875 14.5 C-22.3475 13.51 -23.0075 12.52 -23.6875 11.5 C-23.6875 10.51 -23.6875 9.52 -23.6875 8.5 C-21.7890625 6.96484375 -21.7890625 6.96484375 -19.3125 5.4375 C-12.01240745 0.88363274 -8.916443 0.07715689 0 0 Z " fill="#418726" transform="translate(255.6875,289.5)"></path><path d="M0 0 C11.78375145 -0.46010309 21.95131598 2.02787276 33 6 C32.74156877 18.82758655 28.75000145 30.14255086 22 41 C21.29746094 40.69964844 20.59492188 40.39929688 19.87109375 40.08984375 C17.03358509 38.94097808 17.03358509 38.94097808 14.09765625 38.31640625 C9.4194461 37.15437979 6.03155406 36.2958528 2.95703125 32.43359375 C1.4645577 29.66606872 0.18924522 26.90894513 -1 24 C-1.40734375 23.31035156 -1.8146875 22.62070313 -2.234375 21.91015625 C-3 20 -3 20 -2.5390625 18.02734375 C-2.23742187 17.33769531 -1.93578125 16.64804688 -1.625 15.9375 C0.39504339 10.59817825 0.28469725 5.6412232 0 0 Z " fill="#4B912D" transform="translate(287,208)"></path><path d="M0 0 C2.50651042 1.52994792 5.01302083 3.05989583 7.51953125 4.58984375 C13.58162071 8.03616548 20.21223151 7.45915007 27 7 C29.62096002 6.2573227 31.58033413 5.29048847 34 4 C34.99 4 35.98 4 37 4 C38.75 6.3125 38.75 6.3125 40 9 C38.8493096 12.4520712 38.17942272 12.76575464 35.25 14.6875 C29.9202573 18.524532 26.21877996 23.46077676 25 30 C24.7801777 32.24707241 24.59516013 34.49771238 24.4375 36.75 C24.293125 38.8125 24.14875 40.875 24 43 C19.38 43 14.76 43 10 43 C9.938125 40.89625 9.87625 38.7925 9.8125 36.625 C9.17489676 27.97805201 7.04258635 21.34013309 0.375 15.5625 C-0.19476563 15.13066406 -0.76453125 14.69882813 -1.3515625 14.25390625 C-3 13 -3 13 -6 10 C-4.02 6.7 -2.04 3.4 0 0 Z " fill="#478C2B" transform="translate(239,235)"></path><path d="M0 0 C3.83084349 2.61193874 6.65161815 5.67823629 8.75 9.875 C9.34057744 15.55362925 9.04370905 20.04422672 5.75 24.875 C2.03512566 28.62032413 -1.13768791 30.71251445 -6.5 31.125 C-11.93101683 30.76293221 -15.7315895 29.43444862 -19.5625 25.5 C-22.73228696 20.56922029 -23.9527547 16.79821823 -23.25 10.875 C-18.74510077 0.55046701 -10.76235133 -3.72542931 0 0 Z " fill="#478D2A" transform="translate(298.25,257.125)"></path><path d="M0 0 C4.49174728 1.75422004 7.88361287 4.30812456 10.5 8.375 C12.41602523 13.00539431 12.85494812 16.20538833 11.375 21.04296875 C9.3699411 25.81393481 6.74969493 28.66113128 2.21484375 31.15234375 C-1.59948547 32.61214876 -5.00502384 32.8004776 -9 32 C-14.3035228 29.29820537 -18.09832298 25.70503105 -20 20 C-20.54225459 15.33305478 -20.4698456 11.92228952 -18.3125 7.6875 C-12.82853218 1.3142401 -8.32730703 -1.15546365 0 0 Z " fill="#428827" transform="translate(225,256)"></path><path d="M0 0 C4.87995132 2.26569169 7.63239735 5.17373306 10 10 C11.01121284 15.5616706 10.11862418 20.37785466 7.31640625 25.26953125 C4.42018433 29.07673098 1.22713466 30.66116493 -3.46484375 31.375 C-9.14579318 31.648369 -12.60986528 30.86749964 -17 27 C-20.8980006 22.7859453 -21.79568604 20.20659081 -22.3125 14.625 C-21.82800512 9.00485935 -19.1027342 6.26814434 -15.5 2.125 C-11.03379666 -1.39555314 -5.35318651 -0.78680076 0 0 Z " fill="#498F2B" transform="translate(265,199)"></path></svg>