<svg version="1.1" xmlns="http://www.w3.org/2000/svg" width="16px" height="16px" fill="currentColor" viewBox="0 0 512 512"><path d="M0 0 C168.96 0 337.92 0 512 0 C512 168.96 512 337.92 512 512 C343.04 512 174.08 512 0 512 C0 343.04 0 174.08 0 0 Z " fill="#438A26" transform="translate(0,0)"></path><path d="M0 0 C1.16789062 0.63615234 1.16789062 0.63615234 2.359375 1.28515625 C10.91004548 6.435644 17.05352536 14.42853271 20 24 C20 25.32 20 26.64 20 28 C20.54353024 27.99723462 21.08706049 27.99446924 21.64706135 27.99162006 C34.86687877 27.92539289 48.08666717 27.87592683 61.30661488 27.84456348 C67.69967123 27.82888785 74.09260812 27.8076148 80.4855957 27.77368164 C86.65176764 27.74115611 92.81782446 27.72316129 98.98407555 27.71536827 C101.34008281 27.70981253 103.69608357 27.69896397 106.05204201 27.68280983 C109.34448638 27.66112632 112.63645114 27.6580293 115.92895508 27.65942383 C117.39954376 27.64324509 117.39954376 27.64324509 118.89984131 27.6267395 C119.79586563 27.63086349 120.69188995 27.63498749 121.61506653 27.63923645 C122.3939816 27.63647107 123.17289667 27.63370569 123.97541523 27.63085651 C126.55592711 28.10136245 127.43846965 28.92209456 129 31 C129.36076355 33.94230652 129.36076355 33.94230652 129.34057617 37.58276367 C129.34101425 38.24644455 129.34145233 38.91012543 129.34190369 39.59391785 C129.33981519 41.78556839 129.31648268 43.97645201 129.29296875 46.16796875 C129.28737298 47.6882536 129.28310279 49.20854386 129.28010559 50.72883606 C129.26865524 54.72877965 129.23918672 58.72839606 129.20599365 62.72821045 C129.17529669 66.8102984 129.16160107 70.89243925 129.14648438 74.97460938 C129.11431695 82.98322301 129.0631186 90.99157079 129 99 C130.99101766 98.98321533 132.98203532 98.96643066 134.97305298 98.949646 C151.93121719 99.37092561 168.2262164 111.05175637 179.65136719 122.57373047 C193.83277103 137.57151491 200.71284819 157.04507174 200.54101562 177.42285156 C199.72844721 199.03882982 189.66850739 218.13600402 174.0625 232.8125 C169.36620027 236.878278 164.49288474 240.11433705 159 243 C158.17113281 243.44085938 157.34226562 243.88171875 156.48828125 244.3359375 C148.84413955 248.10659036 138.66555888 252 130 252 C130 270.81 130 289.62 130 309 C161.68 309 193.36 309 226 309 C226.33 307.02 226.66 305.04 227 303 C231.78128662 291.72065606 238.71762235 284.30778667 249.9765625 279.328125 C259.42928996 275.77333373 271.4630015 276.66195472 280.61328125 280.68359375 C288.83171674 285.21651153 294.24845676 290.92623953 299 299 C299.36222656 299.61230469 299.72445313 300.22460938 300.09765625 300.85546875 C303.69766832 308.44061047 303.21479118 320.02677744 300.875 327.9375 C296.43190473 338.75725978 288.4327124 347.34906737 277.82421875 352.30859375 C269.60045252 355.42552442 257.86879509 355.50722326 249.5625 352.5 C239.96322366 347.81463893 232.4697536 340.76488784 228 331 C227.6069385 329.44494626 227.24666179 327.88135343 226.9140625 326.31225586 C226.74084473 325.50404892 226.56762695 324.69584198 226.38916016 323.86314392 C226.2607373 323.24830643 226.13231445 322.63346893 226 322 C225.45646976 322.00276538 224.91293951 322.00553076 224.35293865 322.00837994 C211.13312123 322.07460711 197.91333283 322.12407317 184.69338512 322.15543652 C178.30032877 322.17111215 171.90739188 322.1923852 165.5144043 322.22631836 C159.34823236 322.25884389 153.18217554 322.27683871 147.01592445 322.28463173 C144.65991719 322.29018747 142.30391643 322.30103603 139.94795799 322.31719017 C136.65551362 322.33887368 133.36354886 322.3419707 130.07104492 322.34057617 C128.60045624 322.35675491 128.60045624 322.35675491 127.10015869 322.3732605 C126.20413437 322.36913651 125.30811005 322.36501251 124.38493347 322.36076355 C123.6060184 322.36352893 122.82710333 322.36629431 122.02458477 322.36914349 C119.44407289 321.89863755 118.56153035 321.07790544 117 319 C116.63923645 316.05769348 116.63923645 316.05769348 116.65942383 312.41723633 C116.65898575 311.75355545 116.65854767 311.08987457 116.65809631 310.40608215 C116.66018481 308.21443161 116.68351732 306.02354799 116.70703125 303.83203125 C116.71262702 302.3117464 116.71689721 300.79145614 116.71989441 299.27116394 C116.73134476 295.27122035 116.76081328 291.27160394 116.79400635 287.27178955 C116.82470331 283.1897016 116.83839893 279.10756075 116.85351562 275.02539062 C116.88568305 267.01677699 116.9368814 259.00842921 117 251 C116.39449814 251.01064987 115.78899628 251.02129974 115.16514587 251.03227234 C113.96372704 251.04469719 113.96372704 251.04469719 112.73803711 251.05737305 C111.94691025 251.06802292 111.15578339 251.07867279 110.34068298 251.08964539 C94.05064539 250.46575624 76.33637308 238.24431715 65.578125 226.859375 C54.8091041 214.17112265 46.71927253 197.8597481 46 181 C45.93683594 179.85273438 45.87367188 178.70546875 45.80859375 177.5234375 C45.02728976 157.10299229 52.15644641 138.10716396 66 123 C66.56332031 122.36835938 67.12664062 121.73671875 67.70703125 121.0859375 C79.78972059 108.23923736 95.9609055 101.24650203 113 98 C113.99 98 114.98 98 116 98 C116 79.19 116 60.38 116 41 C84.32 41 52.64 41 20 41 C19.67 42.65 19.34 44.3 19 46 C14.15398161 57.9361661 7.94098822 65.38930788 -3.96875 70.67578125 C-12.5060047 73.89003209 -24.56694726 73.64947322 -32.9921875 70.09765625 C-44.05873127 64.04765858 -51.71232542 56.62407737 -55.33984375 44.3125 C-57.55091501 33.21789391 -56.61594494 23.48383973 -50.6796875 13.859375 C-39.17226235 -2.61573642 -18.36018705 -10.30353154 0 0 Z " fill="#FAFCF9" transform="translate(133,81)"></path><path d="M0 0 C10.8039764 8.5453555 18.02770054 18.17766 23 31 C23.32097656 31.804375 23.64195312 32.60875 23.97265625 33.4375 C29.14670406 48.83931675 26.63635091 65.5243676 20 80 C17.97648009 83.96513545 15.72089009 87.48083224 13 91 C12.03320312 92.27230469 12.03320312 92.27230469 11.046875 93.5703125 C0.83342826 105.93993133 -14.55906142 114.35687251 -30.52832031 116.30908203 C-48.69192042 117.6842768 -65.81769119 113.11455079 -79.8215332 101.09033203 C-89.06515362 92.74303627 -94.8095233 83.69649539 -99 72 C-99.32097656 71.16210938 -99.64195312 70.32421875 -99.97265625 69.4609375 C-104.81823069 54.90167663 -102.96384641 37.96709611 -96.26953125 24.37890625 C-87.05170971 6.78446007 -72.57090406 -4.74313604 -53.8125 -10.9375 C-35.20070499 -15.28298518 -15.42398647 -11.15039247 0 0 Z " fill="#438A27" transform="translate(294,204)"></path><path d="M0 0 C0.74999268 0.00161133 1.49998535 0.00322266 2.27270508 0.00488281 C13.60275148 0.25429788 22.28856407 5.4011547 30.078125 13.44921875 C37.90880919 22.46914236 39.60335614 31.67384295 38.9453125 43.41992188 C37.94146486 53.4684368 32.1310174 62.87452666 24.4375 69.1875 C22.89564959 70.27974988 21.33359042 71.34419746 19.75 72.375 C19.11964844 72.81070313 18.48929688 73.24640625 17.83984375 73.6953125 C12.55947377 76.69766998 7.18098227 76.7535678 1.25 76.8125 C0.45480957 76.82273193 -0.34038086 76.83296387 -1.15966797 76.84350586 C-12.43291595 76.67755214 -19.91118852 72.35446842 -27.97265625 64.75 C-32.70462144 59.71547949 -37.25 52.40665539 -37.25 45.375 C-62.99 45.375 -88.73 45.375 -115.25 45.375 C-115.25 41.085 -115.25 36.795 -115.25 32.375 C-89.51 32.375 -63.77 32.375 -37.25 32.375 C-36.92 30.065 -36.59 27.755 -36.25 25.375 C-32.0525167 14.84660181 -24.33502545 7.26943275 -14.25 2.375 C-9.50068947 0.43542143 -5.08277801 -0.01135943 0 0 Z " fill="#FAFCF9" transform="translate(396.25,76.625)"></path><path d="M0 0 C9.44837425 5.50422732 14.83754782 11.89843096 19.25 21.9375 C19.745 24.4125 19.745 24.4125 20.25 26.9375 C45.99 27.2675 71.73 27.5975 98.25 27.9375 C98.25 32.2275 98.25 36.5175 98.25 40.9375 C72.51 40.9375 46.77 40.9375 20.25 40.9375 C19.59 43.9075 18.93 46.8775 18.25 49.9375 C13.15746963 60.91253774 4.79986223 67.76439996 -6.37890625 72.05078125 C-16.06755992 74.59924519 -25.93572517 73.99372532 -35 69.609375 C-45.22068446 63.39566342 -52.58215577 54.55292883 -55.75 42.9375 C-56.82969395 31.04831194 -55.6864262 21.12023898 -48.625 11.1875 C-36.88423051 -2.84108539 -16.74628423 -8.55941635 0 0 Z " fill="#FAFBF9" transform="translate(132.75,362.0625)"></path><path d="M0 0 C12.6544207 5.296642 22.26503282 27.93393096 27.26220703 39.84814453 C29.34127638 45.08323861 30.81076931 50.37864486 32.0625 55.86328125 C32.50916016 57.69439453 32.50916016 57.69439453 32.96484375 59.5625 C40.12067707 91.68958586 34.00398707 125.73949453 16.95556641 153.67724609 C12.30936973 160.95648948 7.00365873 167.59835365 1.0625 173.86328125 C-2.70838145 172.11481699 -5.17792594 170.00612949 -7.9375 166.86328125 C-7.9375 162.7261775 -6.25526132 161.71621422 -3.5 158.67578125 C9.69989384 143.4199539 17.86285418 123.67548814 21.0625 103.86328125 C21.19269531 103.09242188 21.32289063 102.3215625 21.45703125 101.52734375 C25.33706021 73.69460267 17.8935544 44.56351352 1.81640625 21.6640625 C-0.03455473 19.32324418 -1.9415433 17.08051918 -3.9375 14.86328125 C-4.94184451 13.65855657 -5.9424711 12.45071142 -6.9375 11.23828125 C-7.5975 10.45453125 -8.2575 9.67078125 -8.9375 8.86328125 C-7.41124768 5.11702556 -4.51750832 -0.31877579 0 0 Z " fill="#FBFCFA" transform="translate(343.9375,169.13671875)"></path><path d="M0 0 C2.29513072 1.00078374 3.55983078 2.11930788 5.265625 3.94140625 C6.04679687 4.76318359 6.04679687 4.76318359 6.84375 5.6015625 C7.23046875 6.02308594 7.6171875 6.44460937 8.015625 6.87890625 C6.64443644 10.11210655 4.68749191 12.56973691 2.43579102 15.24267578 C-7.34339754 26.94004452 -15.31158722 41.00946447 -18.984375 55.87890625 C-19.16194336 56.58563477 -19.33951172 57.29236328 -19.52246094 58.02050781 C-27.04507805 88.75794669 -22.31763252 119.4408697 -6.109375 146.69140625 C-2.69411601 152.06876501 1.12731336 156.85403793 5.328125 161.63671875 C7.015625 163.87890625 7.015625 163.87890625 7.015625 166.87890625 C5.484375 168.703125 5.484375 168.703125 3.515625 170.56640625 C2.54109375 171.50033203 2.54109375 171.50033203 1.546875 172.453125 C1.0415625 172.92363281 0.53625 173.39414062 0.015625 173.87890625 C-11.50941511 169.31636177 -20.21811276 151.24848353 -24.99609375 140.4609375 C-38.53559134 108.58763975 -41.02163779 73.13527745 -28.234375 40.50390625 C-22.41045294 26.4586129 -14.77122091 14.46817612 -4.984375 2.87890625 C-4.46488281 2.23308594 -3.94539063 1.58726562 -3.41015625 0.921875 C-1.984375 -0.12109375 -1.984375 -0.12109375 0 0 Z " fill="#FBFCFA" transform="translate(168.984375,169.12109375)"></path><path d="M0 0 C8.20065511 4.16541212 13.389089 9.51501316 16.3125 18.375 C17.78943948 26.01704294 15.85211721 31.97866777 12.15625 38.69921875 C8.09540874 44.59260067 3.13371157 47.47927867 -3.6875 49.375 C-11.28935324 50.18611585 -18.5066379 50.28832801 -24.6875 45.375 C-29.93904403 40.357482 -34.25264092 35.78571356 -34.98828125 28.32421875 C-35.01895471 19.78677185 -34.51664706 12.47608292 -28.453125 5.828125 C-19.92242995 -1.19271252 -10.40482673 -4.14787011 0 0 Z " fill="#2F771B" transform="translate(124.6875,372.625)"></path><path d="M0 0 C6.44223244 3.99418411 9.4345207 9.97128958 12 17 C13.52222831 24.93403845 11.06410709 31.41290477 6.6796875 37.9765625 C2.28506383 43.61993169 -3.92974412 47.23994267 -11.05859375 48.30859375 C-18.777938 48.72688334 -24.64918629 46.31928541 -31 42 C-35.96194183 37.17216471 -38.59747725 31.77248067 -39.3359375 24.8515625 C-39.43780664 16.43717159 -38.80470443 10.98216266 -32.90625 4.80859375 C-23.39934098 -4.04867648 -11.87555148 -6.04194724 0 0 Z " fill="#458B28" transform="translate(129,93)"></path><path d="M0 0 C5.89884258 4.06460394 8.7689623 9.02157554 10.67578125 15.84375 C11.556517 23.2326594 11.34942119 29.56883117 7.23046875 35.91015625 C4.702319 39.0544631 1.96871861 41.52457064 -1.32421875 43.84375 C-2.62359375 44.771875 -2.62359375 44.771875 -3.94921875 45.71875 C-10.52463227 47.91055451 -18.1627464 47.88133701 -24.76171875 45.65625 C-33.31590137 41.304122 -37.07575925 35.89065428 -40.32421875 26.84375 C-41.65340243 19.90559973 -40.38276774 14.25145428 -36.94140625 8.13671875 C-27.64896159 -5.03880061 -13.84079502 -7.61153967 0 0 Z " fill="#458B28" transform="translate(411.32421875,375.15625)"></path><path d="M0 0 C5.98499759 3.87977745 10.97052812 9.11991764 13.125 16 C14.03849621 25.26546159 13.10350572 32.19595851 8.1875 40.125 C3.00810955 45.78655593 -4.90166201 49.30974172 -12.5 49.6875 C-20.2926995 49.18220969 -26.46336956 45.85705497 -31.8125 40.25 C-36.37808572 34.51071417 -38.64466532 27.82159694 -38.34765625 20.4609375 C-36.80718472 12.4403006 -32.70767463 5.69746381 -26 1.0859375 C-18.05693684 -2.97320139 -8.13945819 -4.14651644 0 0 Z " fill="#5B9F35" transform="translate(408.875,92)"></path></svg>