<svg version="1.1" xmlns="http://www.w3.org/2000/svg" width="16px" height="16px" fill="currentColor" viewBox="0 0 512 512"><path d="M0 0 C168.96 0 337.92 0 512 0 C512 168.96 512 337.92 512 512 C343.04 512 174.08 512 0 512 C0 343.04 0 174.08 0 0 Z " fill="#438926" transform="translate(0,0)"></path><path d="M0 0 C10.20546168 8.10107966 17.26194264 16.84430977 22 29 C22.36867188 29.85722656 22.73734375 30.71445313 23.1171875 31.59765625 C24.42646552 36.64359057 24.32844401 41.5586292 24.3125 46.75 C24.32861328 47.78382813 24.34472656 48.81765625 24.36132812 49.8828125 C24.36518708 56.01083523 23.69157209 61.09600895 21.54760742 66.85253906 C20.90957715 69.35459624 21.06336154 70.60968869 22 73 C23.74878653 74.85698904 25.46439088 76.51538495 27.375 78.1875 C27.91519775 78.67162354 28.45539551 79.15574707 29.01196289 79.65454102 C33.27374941 83.44327982 37.68669544 87.03178156 42.1328125 90.6015625 C46.03349649 93.86453249 49.7345293 97.32599431 53.40991211 100.83959961 C56.71440894 103.96054226 59.96265644 106.84419019 64 109 C66.24191306 108.62561816 66.24191306 108.62561816 68.1875 107.25 C74.57577511 103.97040057 80.24518631 103.93793755 87.12109375 105.8828125 C96.40132379 109.3817257 102.12870843 114.19284441 106.2734375 123.203125 C107.79577276 126.96804016 108.13499213 129.89568438 108.125 133.9375 C108.12757813 134.97777344 108.13015625 136.01804687 108.1328125 137.08984375 C108.01846071 139.59549327 107.64878146 141.60105484 107 144 C108.07483643 144.57500244 108.07483643 144.57500244 109.17138672 145.16162109 C112.40791884 146.89572149 115.64148186 148.6352865 118.875 150.375 C120.00292969 150.97828125 121.13085938 151.5815625 122.29296875 152.203125 C123.36933594 152.78320312 124.44570313 153.36328125 125.5546875 153.9609375 C127.04718018 154.76217041 127.04718018 154.76217041 128.56982422 155.57958984 C131 157 131 157 133 159 C133.56253991 165.187939 133.56253991 165.187939 131.95532227 167.50805664 C129.03951039 169.73286952 125.76330035 171.03036759 122.40234375 172.43359375 C121.65344376 172.75280289 120.90454376 173.07201202 120.13294983 173.40089417 C117.73729547 174.41991807 115.33747346 175.42869678 112.9375 176.4375 C111.34933638 177.11198776 109.76144271 177.78711156 108.17382812 178.46289062 C105.12882504 179.75768922 102.07842407 181.03823153 99.02294922 182.30810547 C96.64524764 183.29800375 94.30551135 184.32014642 91.96533203 185.39892578 C91.13243652 185.77388184 90.29954102 186.14883789 89.44140625 186.53515625 C88.77955322 186.84976807 88.1177002 187.16437988 87.43579102 187.48852539 C80.09067289 189.03087504 73.36565771 186.2704137 66.765625 183.2890625 C65.50404572 182.73585831 65.50404572 182.73585831 64.21697998 182.17147827 C62.45315092 181.39545168 60.69187659 180.61359449 58.93310547 179.82617188 C56.24847447 178.62431705 53.55681036 177.43957204 50.86328125 176.2578125 C49.14279755 175.49837289 47.42273047 174.7379886 45.703125 173.9765625 C44.90408752 173.62332916 44.10505005 173.27009583 43.28179932 172.90615845 C35.11746085 169.2455015 35.11746085 169.2455015 32 167 C30.8125 163.625 30.8125 163.625 31 160 C35.17628582 155.97911086 39.88437961 153.09385936 44.875 150.1875 C45.56335938 149.78080078 46.25171875 149.37410156 46.9609375 148.95507812 C48.63780563 147.96526013 50.31850691 146.98194062 52 146 C51.51466797 144.15921875 51.51466797 144.15921875 51.01953125 142.28125 C49.47448978 136.07376242 49.1296792 130.70259363 51.5625 124.6875 C53.15775184 121.3505153 53.15775184 121.3505153 52.88671875 119.01953125 C51.6191685 116.13264368 49.74859235 114.90644041 47.25 113 C42.80899334 109.50241962 38.61600361 105.87327124 34.5 102 C29.57647372 97.38373579 24.52307205 93.04731408 19.2421875 88.83984375 C17.37317239 87.3062094 15.66598362 85.74764949 14 84 C10.71772977 85.41701534 8.77106229 87.11942949 6.375 89.75 C-2.5620061 98.85189551 -13.58440488 102.93073415 -26 105 C-26.33 122.16 -26.66 139.32 -27 157 C-25.35 157.33 -23.7 157.66 -22 158 C-12.92245146 161.31063535 -7.42723201 167.53135224 -2.9453125 175.88671875 C0.16098329 182.83095852 -0.0325186 190.88853239 -2.5 198 C-2.7784375 198.70125 -3.056875 199.4025 -3.34375 200.125 C-4.16517521 202.14084136 -4.16517521 202.14084136 -4 205 C-3.40461426 205.29245605 -2.80922852 205.58491211 -2.19580078 205.88623047 C0.49654862 207.21163817 3.18578967 208.54323554 5.875 209.875 C6.81214844 210.33519531 7.74929688 210.79539062 8.71484375 211.26953125 C9.61074219 211.71425781 10.50664062 212.15898437 11.4296875 212.6171875 C12.25710449 213.02565918 13.08452148 213.43413086 13.93701172 213.85498047 C16 215 16 215 18 217 C18.375 219.875 18.375 219.875 18 223 C15.14883869 226.40461708 11.89013001 228.407597 8.046875 230.57421875 C7.47379608 230.89981277 6.90071716 231.2254068 6.31027222 231.56086731 C4.46050763 232.60971465 2.60562158 233.64905537 0.75 234.6875 C-0.52318469 235.40452997 -1.79613325 236.12197937 -3.06884766 236.83984375 C-4.96174738 237.90711796 -6.85503649 238.97364908 -8.75003052 240.03720093 C-12.25408835 242.00541064 -15.73612869 244.00480912 -19.1953125 246.05078125 C-19.91944336 246.47464111 -20.64357422 246.89850098 -21.38964844 247.33520508 C-22.66683408 248.08452292 -23.93882884 248.8427977 -25.20410156 249.61206055 C-29.02916627 251.8282832 -31.61916366 252.35023501 -36 252 C-38.62695313 250.92114258 -38.62695313 250.92114258 -41.28125 249.39453125 C-42.77688477 248.54677124 -42.77688477 248.54677124 -44.30273438 247.68188477 C-45.88538086 246.75653931 -45.88538086 246.75653931 -47.5 245.8125 C-48.59119141 245.18335693 -49.68238281 244.55421387 -50.80664062 243.90600586 C-53.07578416 242.59528379 -55.34203253 241.27953774 -57.60546875 239.95898438 C-60.88094579 238.0687062 -64.18310588 236.2382694 -67.5 234.421875 C-69.50046264 233.30291004 -71.50048309 232.18315406 -73.5 231.0625 C-74.91442383 230.3032019 -74.91442383 230.3032019 -76.35742188 229.52856445 C-82.6572061 225.92574283 -82.6572061 225.92574283 -84.34375 221.37109375 C-84 218 -84 218 -82.640625 215.859375 C-78.87950979 213.21101577 -74.89096734 211.23637027 -70.75 209.25 C-69.90953125 208.83878906 -69.0690625 208.42757812 -68.203125 208.00390625 C-66.13886376 206.99523315 -64.07123857 205.99424543 -62 205 C-62.53028026 202.18139319 -63.13639294 199.59884428 -64.0625 196.875 C-66.20805324 188.00671326 -65.63974821 179.95385407 -61 172 C-55.93886346 164.94945542 -50.29449427 159.84468215 -42 157 C-41.01 157 -40.02 157 -39 157 C-39 139.84 -39 122.68 -39 105 C-42.96 104.34 -46.92 103.68 -51 103 C-60.50851847 99.54670506 -67.94488584 94.15213931 -75 87 C-75.58394531 86.41734375 -76.16789062 85.8346875 -76.76953125 85.234375 C-77.17558594 84.82703125 -77.58164063 84.4196875 -78 84 C-81.44779086 85.50006391 -83.82360533 87.50409262 -86.5625 90.0625 C-90.05918953 93.27291085 -93.60799393 96.34456239 -97.3125 99.3125 C-102.3027635 103.34172844 -107.00895364 107.61754516 -111.6730957 112.01489258 C-114.03737768 114.23568508 -116.29315301 116.19543534 -119 118 C-118.51886708 120.72641988 -117.93805874 123.16031856 -116.9375 125.75 C-114.88168106 132.87683899 -116.13782252 138.97988647 -118 146 C-117.20565552 146.47626831 -117.20565552 146.47626831 -116.39526367 146.9621582 C-113.98994108 148.40777738 -111.58870601 149.86005426 -109.1875 151.3125 C-108.35412109 151.81201172 -107.52074219 152.31152344 -106.66210938 152.82617188 C-105.85966797 153.31279297 -105.05722656 153.79941406 -104.23046875 154.30078125 C-103.49207764 154.74591064 -102.75368652 155.19104004 -101.99291992 155.6496582 C-100.03281114 156.97776817 -98.48148803 158.15134791 -97 160 C-96.92578125 163.4609375 -96.92578125 163.4609375 -98 167 C-100.54296875 168.9765625 -100.54296875 168.9765625 -104.1875 170.625 C-105.19961548 171.09099609 -105.19961548 171.09099609 -106.23217773 171.56640625 C-107.83395299 172.29503269 -109.44248663 173.0088927 -111.05566406 173.71191406 C-113.88581975 174.95004851 -116.69959901 176.22129614 -119.51145935 177.50033569 C-122.18261343 178.71149044 -124.86039323 179.90741395 -127.54019165 181.0993042 C-128.88173832 181.69680233 -130.22190859 182.29740108 -131.56063843 182.90118408 C-133.47359853 183.76010777 -135.39359461 184.60090351 -137.31640625 185.4375 C-138.43474854 185.93121094 -139.55309082 186.42492187 -140.70532227 186.93359375 C-148.59230315 189.48641572 -154.17057468 187.08670637 -161.421875 183.94921875 C-162.40367737 183.53460892 -163.38547974 183.11999908 -164.39703369 182.69282532 C-166.46368618 181.81690437 -168.52775792 180.93487224 -170.58935547 180.04711914 C-173.74731019 178.68865708 -176.91374336 177.35173625 -180.08203125 176.01757812 C-182.09168099 175.16271531 -184.1008142 174.30663697 -186.109375 173.44921875 C-187.05625183 173.0491008 -188.00312866 172.64898285 -188.97869873 172.23674011 C-189.85681213 171.85657242 -190.73492554 171.47640472 -191.63964844 171.0847168 C-192.41129333 170.75384567 -193.18293823 170.42297455 -193.97796631 170.08207703 C-196.11228707 168.93991037 -197.48057047 167.88084742 -199 166 C-199.4375 163.0625 -199.4375 163.0625 -199 160 C-196.37557087 156.92339134 -193.65362529 155.05796935 -190.0859375 153.203125 C-189.16039062 152.71972656 -188.23484375 152.23632812 -187.28125 151.73828125 C-186.3221875 151.24714844 -185.363125 150.75601563 -184.375 150.25 C-183.40820312 149.74339844 -182.44140625 149.23679687 -181.4453125 148.71484375 C-174.27596445 145 -174.27596445 145 -172 145 C-172.33 144.236875 -172.66 143.47375 -173 142.6875 C-175.43623222 133.70389368 -174.33298612 126.87193276 -169.83203125 118.734375 C-165.29088954 111.95655155 -158.90643485 107.16561992 -151 105 C-142.93041609 103.83692476 -136.37479078 105.80473282 -129 109 C-128.00033203 108.07380859 -128.00033203 108.07380859 -126.98046875 107.12890625 C-122.2931797 102.82184484 -117.59181799 98.61162122 -112.625 94.625 C-107.75135058 90.69396186 -103.158119 86.5267444 -98.58374023 82.25732422 C-94.80603215 78.73207397 -90.96277512 75.31767219 -87 72 C-87.31008884 70.39536551 -87.62316287 68.79130769 -87.9375 67.1875 C-88.19853516 65.84751953 -88.19853516 65.84751953 -88.46484375 64.48046875 C-88.97741153 61.88602829 -88.97741153 61.88602829 -90 59 C-91.05973055 46.15713885 -91.44337703 33.46757987 -85 22 C-84.48050781 21.04222656 -83.96101563 20.08445313 -83.42578125 19.09765625 C-75.5210583 5.66515502 -63.74032203 -3.96471149 -48.75 -8.5 C-31.72313123 -12.4063701 -14.55590809 -10.33173513 0 0 Z " fill="#FBFDFB" transform="translate(289,138)"></path><path d="M0 0 C10.87313494 8.43578009 18.03826306 18.13558949 20 32 C20.88541005 44.66678456 17.73893747 56.01743364 9.74609375 66.0234375 C2.61965005 74.090508 -6.79489656 81.06276173 -17.89428711 82.19287109 C-32.53239884 82.74575845 -43.6345072 80.98785731 -55 71 C-55.92425781 70.21496094 -55.92425781 70.21496094 -56.8671875 69.4140625 C-64.83677081 62.1285636 -69.43544701 51.28011045 -70.1640625 40.59375 C-70.60478056 26.65103326 -66.17577648 15.41599663 -56.6875 5.1875 C-40.85279532 -9.58447282 -18.29249924 -11.39487509 0 0 Z " fill="#498F2A" transform="translate(281,148)"></path><path d="M0 0 C4.59433484 2.78222668 8.26931297 7.1126264 9.9609375 12.1875 C10.72059151 18.90501191 10.41659624 23.97100151 6.39453125 29.53125 C2.80287309 33.68074063 -0.39423155 35.90167012 -5.89453125 36.49609375 C-12.62000306 36.75628199 -17.32400117 36.6532426 -22.44921875 32.015625 C-27.07772878 26.69340708 -28.74694641 21.64301037 -28.421875 14.578125 C-27.36292166 7.96506943 -23.25888931 3.99362372 -18.0390625 0.1875 C-12.73987087 -3.52193414 -5.66991555 -2.33071627 0 0 Z " fill="#3F8625" transform="translate(265.0390625,308.8125)"></path><path d="M0 0 C5.67476113 1.96434039 9.31400331 5.62800662 12 11 C12.59057744 16.67862925 12.29370905 21.16922672 9 26 C4.99653611 30.03627917 1.41408246 32.12458106 -4.3125 32.3125 C-8.94226662 32.25237316 -11.4369151 31.06591027 -15 28 C-19.3022759 23.23261319 -20.36282503 19.56252705 -20.28125 13.28125 C-19.69180611 8.50020514 -16.85179203 5.75038822 -13.375 2.6875 C-8.92314854 -0.47565762 -5.3540278 -0.48837416 0 0 Z " fill="#4F932F" transform="translate(372,256)"></path><path d="M0 0 C5.67476113 1.96434039 9.31400331 5.62800662 12 11 C12.59057744 16.67862925 12.29370905 21.16922672 9 26 C4.99653611 30.03627917 1.41408246 32.12458106 -4.3125 32.3125 C-8.94226662 32.25237316 -11.4369151 31.06591027 -15 28 C-19.3022759 23.23261319 -20.36282503 19.56252705 -20.28125 13.28125 C-19.69180611 8.50020514 -16.85179203 5.75038822 -13.375 2.6875 C-8.92314854 -0.47565762 -5.3540278 -0.48837416 0 0 Z " fill="#3D8325" transform="translate(148,256)"></path><path d="M0 0 C1.57587891 0.75990234 1.57587891 0.75990234 3.18359375 1.53515625 C7.03817287 3.19079408 10.7119866 3.4971722 14.875 3.4375 C15.57608887 3.43500244 16.27717773 3.43250488 16.99951172 3.42993164 C22.10251316 3.29707173 25.74065424 2.20644159 30.1875 -0.16015625 C33.12536783 -1.52145277 35.00697717 -1.04105142 38 0 C40.42517864 1.22737699 42.68451723 2.56440068 45 4 C45 4.66 45 5.32 45 6 C44.25838623 6.41362793 43.51677246 6.82725586 42.75268555 7.25341797 C39.99578642 8.79182082 37.23950783 10.331328 34.48364258 11.87158203 C33.29183222 12.53738882 32.0997771 13.20275769 30.9074707 13.86767578 C29.19157316 14.82468742 27.47663386 15.78341652 25.76171875 16.7421875 C24.73006592 17.3182373 23.69841309 17.89428711 22.63549805 18.48779297 C20.7156323 19.58938152 18.84170566 20.77219623 17 22 C12.40837671 21.7012612 9.19939639 20.25887016 5.26953125 17.9453125 C4.21958984 17.33042969 3.16964844 16.71554687 2.08789062 16.08203125 C1.00701172 15.43621094 -0.07386719 14.79039062 -1.1875 14.125 C-2.27998047 13.48691406 -3.37246094 12.84882813 -4.49804688 12.19140625 C-13.29041262 7.001581 -13.29041262 7.001581 -16 4 C-5.54476091 -1.97147055 -5.54476091 -1.97147055 0 0 Z " fill="#3F8426" transform="translate(241,354)"></path><path d="M0 0 C4.8274799 1.41292095 8.7162359 3.42974154 13 6 C13 6.66 13 7.32 13 8 C9.27359349 9.74715863 5.53835273 11.4736311 1.79394531 13.18188477 C0.52283112 13.76520651 -0.74578135 14.3540134 -2.01171875 14.94848633 C-3.83699047 15.80444119 -5.67234032 16.63879927 -7.5078125 17.47265625 C-8.60754395 17.98062744 -9.70727539 18.48859863 -10.84033203 19.01196289 C-16.49649865 20.78066219 -20.77420465 18.86738465 -26.01953125 16.56640625 C-27.12361328 16.08236328 -28.22769531 15.59832031 -29.36523438 15.09960938 C-30.50283203 14.59236328 -31.64042969 14.08511719 -32.8125 13.5625 C-33.96943359 13.05912109 -35.12636719 12.55574219 -36.31835938 12.03710938 C-44.87262651 8.25474698 -44.87262651 8.25474698 -46 6 C-39.81818182 2 -39.81818182 2 -36.625 2 C-34 3 -34 3 -32.078125 3.97265625 C-24.79848419 7.57375516 -18.55110285 8.46131383 -10.703125 5.94140625 C-4.89117215 3.6992155 -4.89117215 3.6992155 0 0 Z " fill="#4E922F" transform="translate(387,293)"></path><path d="M0 0 C2.3597217 1.30715663 4.70911058 2.62953366 7.05078125 3.96875 C13.4410218 7.16387028 19.33139965 7.65021934 26.16796875 5.46875 C27.84177279 4.79326825 29.5010208 4.07954961 31.13671875 3.31640625 C37.03712355 0.80923766 37.03712355 0.80923766 40.4453125 2.12109375 C42.93554688 3.73242188 42.93554688 3.73242188 45.42578125 5.34375 C41.4581916 9.92575214 35.47480468 11.70546941 30.05078125 14.09375 C28.91382813 14.61324219 27.776875 15.13273437 26.60546875 15.66796875 C24.95804688 16.39693359 24.95804688 16.39693359 23.27734375 17.140625 C22.27525879 17.58760742 21.27317383 18.03458984 20.24072266 18.49511719 C15.02723065 20.06685164 11.08281673 17.91105092 6.25 15.83984375 C5.09306641 15.34677734 3.93613281 14.85371094 2.74414062 14.34570312 C1.54595703 13.82943359 0.34777344 13.31316406 -0.88671875 12.78125 C-2.11634956 12.2554221 -3.34616553 11.73002697 -4.57617188 11.20507812 C-7.57736927 9.92221336 -10.5766069 8.63496552 -13.57421875 7.34375 C-13.57421875 6.68375 -13.57421875 6.02375 -13.57421875 5.34375 C-11.85850651 4.28006851 -10.12598274 3.24346828 -8.38671875 2.21875 C-7.42378906 1.63867188 -6.46085937 1.05859375 -5.46875 0.4609375 C-2.57421875 -0.65625 -2.57421875 -0.65625 0 0 Z " fill="#3B8224" transform="translate(125.57421875,293.65625)"></path></svg>