<svg version="1.1" xmlns="http://www.w3.org/2000/svg" width="16px" height="16px" fill="currentColor" viewBox="0 0 512 512"><path d="M0 0 C168.96 0 337.92 0 512 0 C512 168.96 512 337.92 512 512 C343.04 512 174.08 512 0 512 C0 343.04 0 174.08 0 0 Z " fill="#7746D3" transform="translate(0,0)"></path><path d="M0 0 C1.33514648 -0.01836914 1.33514648 -0.01836914 2.69726562 -0.03710938 C22.48555978 -0.08047306 40.25175487 8.96949899 54.5625 22.1875 C68.82083161 36.72678396 76.81514751 55.60552221 77 75.875 C76.71889435 97.18791931 68.40527762 116.07880942 53.5625 131.1875 C52.81226563 131.96222656 52.06203125 132.73695313 51.2890625 133.53515625 C41.22552234 143.28107638 29.02764955 148.74834925 15.5625 152.1875 C14.95212891 152.3618457 14.34175781 152.53619141 13.71289062 152.71582031 C-5.21092389 156.86668426 -25.1549939 151.86203886 -41.4375 142.1875 C-45.00559471 139.74617204 -48.2378315 137.09148956 -51.4375 134.1875 C-52.28054688 133.43726563 -53.12359375 132.68703125 -53.9921875 131.9140625 C-68.54992077 118.24129782 -77.09284596 98.61933061 -77.8425293 78.67602539 C-78.14199599 57.45441925 -69.80572335 37.21564577 -55.16796875 21.796875 C-39.4463631 6.86261955 -21.38159761 0.01541572 0 0 Z " fill="#7848D3" transform="translate(352.4375,281.8125)"></path><path d="M0 0 C1.33514648 -0.01836914 1.33514648 -0.01836914 2.69726562 -0.03710938 C22.48555978 -0.08047306 40.25175487 8.96949899 54.5625 22.1875 C68.82083161 36.72678396 76.81514751 55.60552221 77 75.875 C76.71889435 97.18791931 68.40527762 116.07880942 53.5625 131.1875 C52.81226563 131.96222656 52.06203125 132.73695313 51.2890625 133.53515625 C41.22552234 143.28107638 29.02764955 148.74834925 15.5625 152.1875 C14.95212891 152.3618457 14.34175781 152.53619141 13.71289062 152.71582031 C-5.21092389 156.86668426 -25.1549939 151.86203886 -41.4375 142.1875 C-45.00559471 139.74617204 -48.2378315 137.09148956 -51.4375 134.1875 C-52.28054688 133.43726563 -53.12359375 132.68703125 -53.9921875 131.9140625 C-68.54992077 118.24129782 -77.09284596 98.61933061 -77.8425293 78.67602539 C-78.14199599 57.45441925 -69.80572335 37.21564577 -55.16796875 21.796875 C-39.4463631 6.86261955 -21.38159761 0.01541572 0 0 Z M-25.4375 17.1875 C-26.35015625 17.61160156 -27.2628125 18.03570312 -28.203125 18.47265625 C-44.17265479 26.47972496 -54.52208764 38.86817462 -61.4375 55.1875 C-61.4375 55.8475 -61.4375 56.5075 -61.4375 57.1875 C-51.8675 57.1875 -42.2975 57.1875 -32.4375 57.1875 C-32.4375 61.4775 -32.4375 65.7675 -32.4375 70.1875 C-42.9975 70.1875 -53.5575 70.1875 -64.4375 70.1875 C-64.4375 74.4775 -64.4375 78.7675 -64.4375 83.1875 C-55.8575 83.1875 -47.2775 83.1875 -38.4375 83.1875 C-38.4375 87.4775 -38.4375 91.7675 -38.4375 96.1875 C-46.0275 96.1875 -53.6175 96.1875 -61.4375 96.1875 C-59.10178299 102.26127392 -59.10178299 102.26127392 -56.4375 108.1875 C-50.4975 108.1875 -44.5575 108.1875 -38.4375 108.1875 C-38.4375 112.4775 -38.4375 116.7675 -38.4375 121.1875 C-40.7475 121.1875 -43.0575 121.1875 -45.4375 121.1875 C-38.3101993 131.746464 -24.54182516 137.5475298 -12.4375 140.1875 C6.07880855 141.49425403 23.2675919 139.55425678 38.44921875 127.98828125 C40.5831008 126.12239067 42.64126397 124.27138035 44.5625 122.1875 C44.5625 121.8575 44.5625 121.5275 44.5625 121.1875 C40.2725 121.1875 35.9825 121.1875 31.5625 121.1875 C31.5625 116.8975 31.5625 112.6075 31.5625 108.1875 C39.4825 108.1875 47.4025 108.1875 55.5625 108.1875 C56.8 105.4959375 56.8 105.4959375 58.0625 102.75 C58.5265625 101.74066406 58.990625 100.73132813 59.46875 99.69140625 C60.62921563 97.49016354 60.62921563 97.49016354 60.5625 96.1875 C50.9925 96.1875 41.4225 96.1875 31.5625 96.1875 C31.5625 91.8975 31.5625 87.6075 31.5625 83.1875 C42.1225 83.1875 52.6825 83.1875 63.5625 83.1875 C63.84455529 70.9573027 63.84455529 70.9573027 61.6875 59.875 C61.33945312 58.64136719 60.99140625 57.40773438 60.6328125 56.13671875 C59.7714331 53.11412394 59.7714331 53.11412394 57.5625 51.1875 C57.53671875 52.15171875 57.5109375 53.1159375 57.484375 54.109375 C57.39929688 56.00429688 57.39929688 56.00429688 57.3125 57.9375 C57.26609375 59.19046875 57.2196875 60.4434375 57.171875 61.734375 C56.45231148 65.81190163 55.87267529 66.77227397 52.5625 69.1875 C49.62835543 69.57297929 47.07830318 69.72566124 44.1484375 69.68359375 C43.33758698 69.68504898 42.52673645 69.68650421 41.6913147 69.68800354 C39.98167314 69.68634677 38.27201634 69.67481023 36.5625 69.65405273 C33.93946437 69.62502174 31.31844065 69.6334621 28.6953125 69.64648438 C27.03384431 69.64024909 25.37238251 69.63185979 23.7109375 69.62109375 C22.92447845 69.62402939 22.13801941 69.62696503 21.32772827 69.62998962 C19.12255859 69.59155273 19.12255859 69.59155273 15.5625 69.1875 C13.03027746 65.3891662 13.25660365 62.30873906 13.26171875 57.90625 C13.25743362 57.0963562 13.2531485 56.2864624 13.24873352 55.45202637 C13.24299362 53.74065078 13.24248746 52.0292508 13.24682617 50.31787109 C13.24998833 47.69716916 13.22651628 45.07759378 13.20117188 42.45703125 C13.19889909 40.79427226 13.19819529 39.13151023 13.19921875 37.46875 C13.190009 36.68431519 13.18079926 35.89988037 13.17131042 35.0916748 C13.21687779 29.74500604 13.21687779 29.74500604 14.79345703 27.2019043 C17.04321073 25.91185094 18.64033995 25.75826943 21.23046875 25.67578125 C22.12314453 25.64033203 23.01582031 25.60488281 23.93554688 25.56835938 C25.32870117 25.53452148 25.32870117 25.53452148 26.75 25.5 C27.69037109 25.46583984 28.63074219 25.43167969 29.59960938 25.39648438 C31.92045393 25.31401782 34.24092148 25.24486597 36.5625 25.1875 C33.67636072 21.9957695 31.06829705 20.25795365 27.125 18.5625 C26.19816406 18.15773438 25.27132812 17.75296875 24.31640625 17.3359375 C23.40761719 16.95695312 22.49882812 16.57796875 21.5625 16.1875 C20.33853516 15.64996094 20.33853516 15.64996094 19.08984375 15.1015625 C6.25676202 10.46023155 -13.30993618 11.14254971 -25.4375 17.1875 Z " fill="#FCFAFE" transform="translate(352.4375,281.8125)"></path><path d="M0 0 C4.29 0 8.58 0 13 0 C13.20625 1.4025 13.4125 2.805 13.625 4.25 C16.42963777 18.09667321 24.45183229 28.06633531 35.828125 35.9375 C84.14967906 67.358412 148.46324462 73.33896208 204.72891235 77.81546021 C207.37296709 78.03030586 210.01587396 78.25739864 212.65893555 78.48413086 C226.99525054 79.69690106 241.31041437 80.53725173 255.6875 81.0625 C256.75633423 81.10324646 257.82516846 81.14399292 258.9263916 81.18597412 C287.93951162 82.2820206 316.97014525 82.64171462 346 83 C346 87.62 346 92.24 346 97 C343.59122559 97.029729 343.59122559 97.029729 341.13378906 97.06005859 C268.46260387 97.8731445 268.46260387 97.8731445 196 103 C195.11487732 103.08979126 194.22975464 103.17958252 193.31781006 103.27209473 C160.01247717 106.59255223 160.01247717 106.59255223 127 112 C126.07815918 112.17998535 125.15631836 112.3599707 124.20654297 112.54541016 C66.37457364 123.82581507 66.37457364 123.82581507 20.6875 158.375 C16.50025364 165.12111913 13.68937051 172.07223912 13 180 C8.71 180 4.42 180 0 180 C0.59129093 163.44385387 7.4167102 150.69412067 19.30859375 139.28515625 C56.77113561 107.47733769 111.80504492 99.65265935 158.74609375 93.44287109 C163.41175287 92.80785416 168.0662551 92.09884958 172.72094727 91.38818359 C177.81711419 90.78488485 182.87784976 90.8311379 188 91 C188 90.34 188 89.68 188 89 C187.10087891 89.05220703 187.10087891 89.05220703 186.18359375 89.10546875 C174.99936553 89.43956376 164.03829244 87.60392085 153 86 C151.9201886 85.8448291 150.8403772 85.6896582 149.72784424 85.52978516 C105.36775362 79.10527112 53.64246018 70.7183585 19 40 C18.28199219 39.36449219 17.56398438 38.72898438 16.82421875 38.07421875 C5.7217433 27.64081903 0.69750479 14.99635297 0 0 Z " fill="#FBFAFE" transform="translate(83,166)"></path><path d="M0 0 C4.29 0 8.58 0 13 0 C13.07476562 1.3303125 13.14953125 2.660625 13.2265625 4.03125 C14.67472764 25.31987185 21.09066829 42.99433735 37 58 C51.39781506 69.90194544 68.37430206 78.08985897 86 84 C87.15371094 84.40476562 88.30742187 84.80953125 89.49609375 85.2265625 C113.42914061 93.21283217 138.16036245 97.29498833 163.10058594 100.49316406 C166.41816568 100.92437465 169.72858879 101.38518979 173.0390625 101.8671875 C203.67280671 106.2127466 234.75200162 107.28762658 265.65014648 107.70947266 C267.58317202 107.73589665 269.51619614 107.76242525 271.44921875 107.7890625 C272.84985817 107.80811142 272.84985817 107.80811142 274.27879333 107.82754517 C285.19420785 107.9986841 296.09579642 108.49405745 307 109 C307 113.29 307 117.58 307 122 C255.06333215 122.41549334 203.47189122 120.18348767 152 113 C150.8052002 112.83387207 149.61040039 112.66774414 148.37939453 112.49658203 C102.32919644 105.89603036 47.0829894 93.50090555 16.03515625 55.6015625 C11.3148933 49.21836227 8.08139689 42.2901341 5 35 C4.6803125 34.2678125 4.360625 33.535625 4.03125 32.78125 C-0.32211419 22.15904139 -0.25459292 11.27280864 0 0 Z " fill="#FBFAFD" transform="translate(122,115)"></path><path d="M0 0 C4.29 0 8.58 0 13 0 C13.09796875 1.835625 13.1959375 3.67125 13.296875 5.5625 C14.75429694 30.47796034 18.17136505 54.61521304 37.50732422 72.38525391 C56.68068453 89.20327857 80.6689495 98.46061614 105 105 C105.7950293 105.2175293 106.59005859 105.43505859 107.40917969 105.65917969 C131.25413105 112.0845824 155.78063906 114.97673307 180.3125 117.25 C181.20503479 117.33299347 182.09756958 117.41598694 183.01715088 117.50149536 C203.90132982 119.41754355 224.72284803 120.18468906 245.6875 120.5625 C247.96159408 120.60582999 250.23568269 120.64944808 252.50976562 120.69335938 C258.00645322 120.79888346 263.50319936 120.90054657 269 121 C269 125.29 269 129.58 269 134 C227.09377553 134.58937712 185.52388262 132.89426694 144 127 C143.03271973 126.8659375 142.06543945 126.731875 141.06884766 126.59375 C96.39341195 120.32923756 46.01145389 106.84403076 16.68359375 70.09765625 C4.21859359 52.47635621 -0.25642177 31.11689255 -0.0625 9.875 C-0.05798828 8.91851562 -0.05347656 7.96203125 -0.04882812 6.9765625 C-0.03720038 4.65101378 -0.01927208 2.32549793 0 0 Z " fill="#FCFAFE" transform="translate(160,77)"></path><path d="M0 0 C-2.98015533 3.22850161 -6.26638463 5.768486 -9.8046875 8.33984375 C-12.14954894 10.04745635 -12.14954894 10.04745635 -14.62060547 12.5 C-18.25376755 15.52318376 -21.66609521 16.08572883 -26.265625 16.66015625 C-27.0578949 16.77677109 -27.85016479 16.89338593 -28.66644287 17.01353455 C-31.19201283 17.38217316 -33.72026186 17.72376496 -36.25 18.0625 C-39.54832009 18.52272318 -42.84489173 18.99427424 -46.140625 19.47265625 C-46.95871643 19.59095291 -47.77680786 19.70924957 -48.61968994 19.83113098 C-81.70351742 24.76767926 -119.18332523 34.74251729 -145 57 C-145.75667969 57.61359375 -146.51335937 58.2271875 -147.29296875 58.859375 C-160.02258567 69.52069571 -168.50976928 85.4957681 -170.21386719 102.08154297 C-170.59800959 106.71665807 -170.82896601 111.35259372 -171 116 C-175.29 116 -179.58 116 -184 116 C-184.69348798 93.5772221 -178.53871763 75.69292673 -165 58 C-164.49855469 57.32582031 -163.99710938 56.65164063 -163.48046875 55.95703125 C-159.11709831 50.4619509 -153.52451337 46.26547372 -148 42 C-147.25234375 41.41347656 -146.5046875 40.82695312 -145.734375 40.22265625 C-124.97208884 24.79613244 -99.86629635 16.82563794 -75 11 C-73.96085449 10.75008301 -72.92170898 10.50016602 -71.85107422 10.24267578 C-57.12216618 6.73133973 -42.36749424 4.16511201 -27.375 2.125 C-26.58027283 2.01550018 -25.78554565 1.90600037 -24.96673584 1.79318237 C-16.61798944 0.65550413 -8.4469441 -0.28662285 0 0 Z " fill="#FBFAFD" transform="translate(306,281)"></path><path d="M0 0 C-0.300271 0.72002197 -0.60054199 1.44004395 -0.90991211 2.18188477 C-2.02804037 4.92421731 -2.02804037 4.92421731 -2.68579102 7.55053711 C-3.8277938 11.38833064 -4.6777043 14.22049584 -8.23388672 16.31689453 C-11.11615301 17.26147622 -13.96876848 17.94128352 -16.9375 18.5625 C-19.11340362 19.10639362 -21.28657325 19.661329 -23.45703125 20.2265625 C-24.55225098 20.50918945 -25.6474707 20.79181641 -26.77587891 21.08300781 C-51.97895145 28.25116929 -77.90633636 43.46185495 -91.28125 66.5390625 C-98.00490491 80.07805853 -100.20333252 94.19195023 -100.625 109.1875 C-100.68300781 110.90163086 -100.68300781 110.90163086 -100.7421875 112.65039062 C-100.83534134 115.43336156 -100.91870329 118.21665745 -101 121 C-105.29 121 -109.58 121 -114 121 C-114.6585232 92.42740991 -111.04650059 65.91841491 -91 44 C-90.31292969 43.23171875 -89.62585938 42.4634375 -88.91796875 41.671875 C-69.25062037 20.80040325 -28.79653355 0 0 0 Z " fill="#FCFBFE" transform="translate(274,314)"></path><path d="M0 0 C0.8306749 -0.00145523 1.66134979 -0.00291046 2.51719666 -0.00440979 C4.26971959 -0.00275263 6.02225736 0.00878827 7.7746582 0.02954102 C10.45912317 0.05853197 13.14161724 0.05014 15.82617188 0.03710938 C17.52995752 0.04334595 19.23373694 0.05173626 20.9375 0.0625 C21.74067154 0.05956436 22.54384308 0.05662872 23.37135315 0.05360413 C26.28594334 0.1030512 28.76618722 0.17894644 31.40429688 1.49414062 C33.06673292 4.82877262 32.8492631 8.31513937 32.8359375 11.9609375 C32.84117935 12.79065567 32.8464212 13.62037384 32.8518219 14.47523499 C32.85824321 16.22949098 32.85690365 17.98379003 32.84838867 19.73803711 C32.83988513 22.42054075 32.86862566 25.1009103 32.90039062 27.78320312 C32.90200292 29.48828061 32.90142456 31.19336187 32.8984375 32.8984375 C32.91528847 34.10015846 32.91528847 34.10015846 32.93247986 35.32615662 C32.8901074 38.71743206 32.65835426 41.07618406 30.87695312 43.99804688 C27.42017105 46.0906687 24.23931025 46.0884297 20.3125 46.0625 C19.14019081 46.07179787 19.14019081 46.07179787 17.94419861 46.08128357 C16.29427331 46.08837478 14.64427635 46.0852198 12.99438477 46.07250977 C10.47602935 46.05865529 7.9614003 46.09270351 5.44335938 46.13085938 C3.83723868 46.13181077 2.23111335 46.12995066 0.625 46.125 C-0.12410141 46.13825821 -0.87320282 46.15151642 -1.64500427 46.16517639 C-5.39364781 46.09876662 -7.45429873 45.59370488 -10.57226562 43.47070312 C-13.13326246 39.70947054 -13.30445247 36.67429463 -13.2265625 32.2734375 C-13.22897446 31.49094131 -13.23138641 30.70844513 -13.23387146 29.90223694 C-13.23289514 28.25402743 -13.21955253 26.60578427 -13.19458008 24.95776367 C-13.16020961 22.43750612 -13.17394367 19.92074588 -13.19335938 17.40039062 C-13.18646197 15.79555803 -13.17679053 14.19073445 -13.1640625 12.5859375 C-13.16902237 11.83481186 -13.17398224 11.08368622 -13.17909241 10.30979919 C-13.10594625 7.05669072 -12.79624302 4.82413735 -11.09960938 2.02148438 C-7.49583499 -0.17566457 -4.09508321 -0.05742274 0 0 Z " fill="#FAF9FD" transform="translate(338.59765625,364.50390625)"></path><path d="M0 0 C12.54 0 25.08 0 38 0 C38 3.96 38 7.92 38 12 C25.46 12 12.92 12 0 12 C0 8.04 0 4.08 0 0 Z " fill="#FFFFFF" transform="translate(314,314)"></path><path d="M0 0 C6.27 0 12.54 0 19 0 C19 6.27 19 12.54 19 19 C12.73 19 6.46 19 0 19 C0 12.73 0 6.46 0 0 Z " fill="#7647D1" transform="translate(339,378)"></path><path d="M0 0 C6.27 0 12.54 0 19 0 C19 6.27 19 12.54 19 19 C12.73 19 6.46 19 0 19 C0 12.73 0 6.46 0 0 Z " fill="#7C4BD8" transform="translate(378,320)"></path><path d="M0 0 C6.27 0 12.54 0 19 0 C19 4.29 19 8.58 19 13 C12.73 13 6.46 13 0 13 C0 8.71 0 4.42 0 0 Z " fill="#FCFCFE" transform="translate(333,339)"></path></svg>