<svg version="1.1" xmlns="http://www.w3.org/2000/svg" width="16px" height="16px" fill="currentColor" viewBox="0 0 512 512"><path d="M0 0 C168.96 0 337.92 0 512 0 C512 168.96 512 337.92 512 512 C343.04 512 174.08 512 0 512 C0 343.04 0 174.08 0 0 Z " fill="#7746D3" transform="translate(0,0)"></path><path d="M0 0 C1.22102921 -0.0071553 2.44205841 -0.01431061 3.7000885 -0.02168274 C5.05549596 -0.02452298 6.4109037 -0.02723471 7.76631165 -0.02983093 C9.19218104 -0.03609674 10.61804881 -0.04274364 12.04391479 -0.04974365 C16.72911952 -0.07077549 21.41432453 -0.08114636 26.0995636 -0.09111023 C27.71372304 -0.09515835 29.32788231 -0.09927529 30.9420414 -0.10346031 C38.52713891 -0.12251138 46.1122267 -0.13674164 53.69734353 -0.14507228 C62.44579611 -0.15483974 71.19399534 -0.18114664 79.94235867 -0.22157317 C86.70852008 -0.25176397 93.474609 -0.26654403 100.24083644 -0.26985329 C104.27987047 -0.27220074 108.31863382 -0.28112087 112.35759544 -0.30631447 C116.16044611 -0.32965181 119.96284898 -0.33380597 123.76575279 -0.32355309 C125.15727226 -0.32305895 126.54881419 -0.32934316 127.94026566 -0.34310913 C136.93957026 -0.42711979 143.39616827 -0.01894538 150.39253235 6.11201477 C150.93136047 6.76299133 151.4701886 7.4139679 152.02534485 8.08467102 C152.57964172 8.73306946 153.1339386 9.3814679 153.70503235 10.04951477 C157.33031415 15.31107242 157.44747845 20.03285485 157.44087219 26.2167511 C157.44758942 27.12146652 157.45430664 28.02618195 157.46122742 28.95831299 C157.48020038 31.94449887 157.48413137 34.93045989 157.48628235 37.91670227 C157.49271112 39.99789522 157.49943954 42.07908726 157.50645447 44.16027832 C157.51842574 48.52222284 157.52213548 52.88408818 157.52095032 57.24604797 C157.52074722 62.82455775 157.54804056 68.40255754 157.58249474 73.98094654 C157.60477663 78.27990025 157.60878744 82.57873151 157.60773087 86.87773705 C157.61008521 88.93375594 157.61889931 90.98977829 157.6343956 93.04574013 C157.65407992 95.92732143 157.64820764 98.80780688 157.63618469 101.68940735 C157.64742371 102.53175934 157.65866272 103.37411133 157.67024231 104.24198914 C157.5984504 111.04295806 155.691323 116.24752597 151.1855011 121.38935852 C150.53452454 121.92818665 149.88354797 122.46701477 149.21284485 123.02217102 C148.56444641 123.5764679 147.91604797 124.13076477 147.2480011 124.70185852 C142.95301198 127.66116201 139.23074793 128.39827286 134.06018066 128.41459656 C132.22451286 128.42739151 132.22451286 128.42739151 130.35176086 128.44044495 C129.0036162 128.43974599 127.65547164 128.43882296 126.30732727 128.43769836 C124.88116098 128.44368573 123.45499792 128.45049175 122.02883911 128.45805359 C118.16093542 128.4757008 114.29312026 128.48040846 110.4251802 128.48168516 C108.00640874 128.48310817 105.5876597 128.48738063 103.16889381 128.4926796 C94.72413838 128.51117642 86.27944604 128.51935074 77.83467102 128.51777649 C69.97354387 128.51657553 62.11269147 128.53766961 54.25163382 128.56926382 C47.49391366 128.59545188 40.73628308 128.60614271 33.97851259 128.60486567 C29.94623133 128.60435673 25.91419426 128.61000188 21.88196373 128.63122177 C18.08727293 128.65064675 14.29305815 128.65069997 10.49835014 128.63618851 C9.11006217 128.63410448 7.72174407 128.63877712 6.33350754 128.65090942 C-2.46072805 128.72275324 -9.02739905 128.39224589 -15.87309265 122.36592102 C-16.54211609 121.51513977 -16.54211609 121.51513977 -17.22465515 120.64717102 C-17.91688171 119.79638977 -17.91688171 119.79638977 -18.62309265 118.92842102 C-20.89656018 115.62682487 -22.09729558 113.03955926 -22.12380981 108.99952698 C-22.13378494 108.1810025 -22.14376007 107.36247803 -22.15403748 106.51914978 C-22.15470215 105.62972687 -22.15536682 104.74030396 -22.15605164 103.82392883 C-22.16437515 102.88034515 -22.17269867 101.93676147 -22.18127441 100.96458435 C-22.20538199 97.84311298 -22.21414821 94.72185064 -22.2207489 91.60029602 C-22.22971578 89.42799314 -22.23883764 87.25569089 -22.24810791 85.08338928 C-22.26460332 80.52716064 -22.27229884 75.97100552 -22.27519226 71.41474915 C-22.28057164 65.58614042 -22.31823156 59.75822619 -22.36393642 53.92981339 C-22.39373231 49.44127401 -22.4009164 44.95290121 -22.40191841 40.46427155 C-22.40611689 38.31613235 -22.41853615 36.16799249 -22.43943596 34.01995087 C-22.46639739 31.00878425 -22.46150988 27.99921844 -22.44902039 24.98799133 C-22.47127182 23.66600235 -22.47127182 23.66600235 -22.49397278 22.31730652 C-22.42044548 16.06828255 -20.74765914 12.03144313 -16.84965515 7.14717102 C-14.71684265 5.08857727 -14.71684265 5.08857727 -12.72465515 3.70967102 C-12.06207703 3.23658508 -11.3994989 2.76349915 -10.71684265 2.27607727 C-7.12073316 0.10186045 -4.10566985 0.01649791 0 0 Z " fill="#7646D2" transform="translate(271.8496551513672,287.8528289794922)"></path><path d="M0 0 C4.29 0 8.58 0 13 0 C13.20625 1.4025 13.4125 2.805 13.625 4.25 C16.42963777 18.09667321 24.45183229 28.06633531 35.828125 35.9375 C97.42350479 75.98966814 185.34847202 78.3035704 256.71563721 80.91467285 C259.93453159 81.03490729 263.15275646 81.17045874 266.37109375 81.3046875 C292.89776165 82.35076675 319.45799105 82.57629788 346 83 C346 87.62 346 92.24 346 97 C343.02407837 97.02187378 343.02407837 97.02187378 339.98803711 97.04418945 C227.64294687 97.53017778 227.64294687 97.53017778 116.82470703 114.34521484 C113.86587098 115.03109196 110.90051467 115.6820894 107.93359375 116.33203125 C86.53183581 121.12472236 65.18168125 127.15818016 46 138 C44.61554688 138.75023437 44.61554688 138.75023437 43.203125 139.515625 C33.70125436 144.88624753 24.7923602 151.62724887 19 161 C18.61199219 161.62390625 18.22398438 162.2478125 17.82421875 162.890625 C14.77183899 168.35160988 13.92300843 173.84661049 13 180 C8.71 180 4.42 180 0 180 C-1.04186403 168.79996173 4.10916908 157.0620069 11.0390625 148.47265625 C46.19208273 108.30640461 108.9781329 100.02662894 158.74609375 93.44287109 C163.41175287 92.80785416 168.0662551 92.09884958 172.72094727 91.38818359 C177.81711419 90.78488485 182.87784976 90.8311379 188 91 C188 90.34 188 89.68 188 89 C186.07800781 89.06767578 186.07800781 89.06767578 184.1171875 89.13671875 C176.05493009 89.12964411 168.09795436 87.89648615 160.125 86.8125 C159.28608215 86.69984802 158.44716431 86.58719604 157.58282471 86.47113037 C43.82351254 71.14362239 43.82351254 71.14362239 10.0625 30.5 C3.32167333 21.29301724 0 11.32910175 0 0 Z " fill="#FBFAFE" transform="translate(83,166)"></path><path d="M0 0 C1.22102921 -0.0071553 2.44205841 -0.01431061 3.7000885 -0.02168274 C5.05549596 -0.02452298 6.4109037 -0.02723471 7.76631165 -0.02983093 C9.19218104 -0.03609674 10.61804881 -0.04274364 12.04391479 -0.04974365 C16.72911952 -0.07077549 21.41432453 -0.08114636 26.0995636 -0.09111023 C27.71372304 -0.09515835 29.32788231 -0.09927529 30.9420414 -0.10346031 C38.52713891 -0.12251138 46.1122267 -0.13674164 53.69734353 -0.14507228 C62.44579611 -0.15483974 71.19399534 -0.18114664 79.94235867 -0.22157317 C86.70852008 -0.25176397 93.474609 -0.26654403 100.24083644 -0.26985329 C104.27987047 -0.27220074 108.31863382 -0.28112087 112.35759544 -0.30631447 C116.16044611 -0.32965181 119.96284898 -0.33380597 123.76575279 -0.32355309 C125.15727226 -0.32305895 126.54881419 -0.32934316 127.94026566 -0.34310913 C136.93957026 -0.42711979 143.39616827 -0.01894538 150.39253235 6.11201477 C150.93136047 6.76299133 151.4701886 7.4139679 152.02534485 8.08467102 C152.57964172 8.73306946 153.1339386 9.3814679 153.70503235 10.04951477 C157.33031415 15.31107242 157.44747845 20.03285485 157.44087219 26.2167511 C157.44758942 27.12146652 157.45430664 28.02618195 157.46122742 28.95831299 C157.48020038 31.94449887 157.48413137 34.93045989 157.48628235 37.91670227 C157.49271112 39.99789522 157.49943954 42.07908726 157.50645447 44.16027832 C157.51842574 48.52222284 157.52213548 52.88408818 157.52095032 57.24604797 C157.52074722 62.82455775 157.54804056 68.40255754 157.58249474 73.98094654 C157.60477663 78.27990025 157.60878744 82.57873151 157.60773087 86.87773705 C157.61008521 88.93375594 157.61889931 90.98977829 157.6343956 93.04574013 C157.65407992 95.92732143 157.64820764 98.80780688 157.63618469 101.68940735 C157.64742371 102.53175934 157.65866272 103.37411133 157.67024231 104.24198914 C157.5984504 111.04295806 155.691323 116.24752597 151.1855011 121.38935852 C150.53452454 121.92818665 149.88354797 122.46701477 149.21284485 123.02217102 C148.56444641 123.5764679 147.91604797 124.13076477 147.2480011 124.70185852 C142.95301198 127.66116201 139.23074793 128.39827286 134.06018066 128.41459656 C132.22451286 128.42739151 132.22451286 128.42739151 130.35176086 128.44044495 C129.0036162 128.43974599 127.65547164 128.43882296 126.30732727 128.43769836 C124.88116098 128.44368573 123.45499792 128.45049175 122.02883911 128.45805359 C118.16093542 128.4757008 114.29312026 128.48040846 110.4251802 128.48168516 C108.00640874 128.48310817 105.5876597 128.48738063 103.16889381 128.4926796 C94.72413838 128.51117642 86.27944604 128.51935074 77.83467102 128.51777649 C69.97354387 128.51657553 62.11269147 128.53766961 54.25163382 128.56926382 C47.49391366 128.59545188 40.73628308 128.60614271 33.97851259 128.60486567 C29.94623133 128.60435673 25.91419426 128.61000188 21.88196373 128.63122177 C18.08727293 128.65064675 14.29305815 128.65069997 10.49835014 128.63618851 C9.11006217 128.63410448 7.72174407 128.63877712 6.33350754 128.65090942 C-2.46072805 128.72275324 -9.02739905 128.39224589 -15.87309265 122.36592102 C-16.54211609 121.51513977 -16.54211609 121.51513977 -17.22465515 120.64717102 C-17.91688171 119.79638977 -17.91688171 119.79638977 -18.62309265 118.92842102 C-20.89656018 115.62682487 -22.09729558 113.03955926 -22.12380981 108.99952698 C-22.13378494 108.1810025 -22.14376007 107.36247803 -22.15403748 106.51914978 C-22.15470215 105.62972687 -22.15536682 104.74030396 -22.15605164 103.82392883 C-22.16437515 102.88034515 -22.17269867 101.93676147 -22.18127441 100.96458435 C-22.20538199 97.84311298 -22.21414821 94.72185064 -22.2207489 91.60029602 C-22.22971578 89.42799314 -22.23883764 87.25569089 -22.24810791 85.08338928 C-22.26460332 80.52716064 -22.27229884 75.97100552 -22.27519226 71.41474915 C-22.28057164 65.58614042 -22.31823156 59.75822619 -22.36393642 53.92981339 C-22.39373231 49.44127401 -22.4009164 44.95290121 -22.40191841 40.46427155 C-22.40611689 38.31613235 -22.41853615 36.16799249 -22.43943596 34.01995087 C-22.46639739 31.00878425 -22.46150988 27.99921844 -22.44902039 24.98799133 C-22.47127182 23.66600235 -22.47127182 23.66600235 -22.49397278 22.31730652 C-22.42044548 16.06828255 -20.74765914 12.03144313 -16.84965515 7.14717102 C-14.71684265 5.08857727 -14.71684265 5.08857727 -12.72465515 3.70967102 C-12.06207703 3.23658508 -11.3994989 2.76349915 -10.71684265 2.27607727 C-7.12073316 0.10186045 -4.10566985 0.01649791 0 0 Z M-7.13534546 15.62113953 C-7.70106766 16.45472992 -8.26678986 17.28832031 -8.84965515 18.14717102 C-9.17965515 18.47717102 -9.50965515 18.80717102 -9.84965515 19.14717102 C-9.96613264 21.88450672 -10.01766846 24.59694771 -10.0266571 27.33540344 C-10.0332283 28.19397949 -10.0397995 29.05255554 -10.04656982 29.93714905 C-10.0663577 32.79231341 -10.07797922 35.64742498 -10.0879364 38.50263977 C-10.09201193 39.47613184 -10.09608746 40.44962391 -10.10028648 41.45261574 C-10.12117332 46.60771601 -10.13546216 51.76278949 -10.14482117 56.91792297 C-10.15587488 62.24337693 -10.19025538 67.5684118 -10.22999287 72.89371777 C-10.25614663 76.98670222 -10.26451204 81.07958681 -10.26810265 85.17264748 C-10.27297392 87.13543329 -10.28460329 89.09821449 -10.30314064 91.06091881 C-10.32749956 93.8116041 -10.3265727 96.56120571 -10.31962585 99.31196594 C-10.33243591 100.12103897 -10.34524597 100.930112 -10.35844421 101.76370239 C-10.31029868 107.00315165 -9.32125206 109.98863072 -5.84965515 114.14717102 C-3.20510907 115.46944406 -1.21465749 115.28215398 1.74807739 115.29434204 C3.5335775 115.305075 3.5335775 115.305075 5.35514832 115.31602478 C6.66790741 115.31871368 7.9806665 115.32140259 9.33320618 115.32417297 C10.72438731 115.33043682 12.11556677 115.33708355 13.50674438 115.34408569 C17.29195909 115.36150239 21.07716116 115.37204923 24.86240602 115.38029122 C27.22669014 115.38543989 29.59097034 115.39151567 31.95525169 115.39780235 C39.35079908 115.41685617 46.74633648 115.43108699 54.1419037 115.43941432 C62.68211707 115.44918897 71.22207142 115.47551341 79.7621935 115.51591522 C86.36098573 115.5460629 92.95970364 115.5608819 99.55856341 115.56419533 C103.50082711 115.56654735 107.44281415 115.57552697 111.38500404 115.60065651 C115.09426716 115.62391902 118.8030711 115.62817813 122.51238823 115.61789513 C124.52128399 115.61716287 126.53015633 115.63626688 128.53895569 115.65596008 C129.73774857 115.64901627 130.93654144 115.64207245 132.17166138 115.63491821 C133.73158672 115.63850074 133.73158672 115.63850074 135.3230257 115.64215565 C138.90943417 115.01427568 140.57890255 113.68123529 143.15034485 111.14717102 C144.42627496 107.31938069 144.31416082 103.70566859 144.3273468 99.71601868 C144.3372036 98.42530708 144.3372036 98.42530708 144.34725952 97.10852051 C144.36697963 94.25942397 144.37865101 91.41038006 144.3886261 88.56123352 C144.39270163 87.58832745 144.39677715 86.61542137 144.40097618 85.61303329 C144.42182941 80.46556053 144.43613551 75.31811438 144.44551086 70.17060852 C144.45658592 64.85184027 144.49100063 59.53348915 144.53068256 54.21486855 C144.55681038 50.12621781 144.56519919 46.03766716 144.56879234 41.94894028 C144.57366664 39.98811901 144.58530454 38.02730246 144.60383034 36.06656265 C144.62814476 33.32307443 144.62727116 30.58067512 144.62031555 27.83711243 C144.63312561 27.02758621 144.64593567 26.21806 144.65913391 25.38400269 C144.62409761 21.59268889 144.30787045 19.39372153 142.24597168 16.16654968 C138.9515182 12.99196299 137.03258365 13.01730176 132.5526123 12.99327087 C130.7671122 12.98037018 130.7671122 12.98037018 128.94554138 12.96720886 C127.63278229 12.96294891 126.32002319 12.95868896 124.96748352 12.95429993 C123.57630203 12.94639962 122.18512259 12.93813071 120.79394531 12.92951965 C116.21875467 12.90329214 111.64355484 12.88799172 107.0683136 12.87373352 C105.49402167 12.86837422 103.91972981 12.86299671 102.345438 12.85760117 C95.79751345 12.83597174 89.24959137 12.81723447 82.70164013 12.80597878 C73.31373562 12.78973578 63.92624475 12.75655069 54.5384962 12.69957793 C47.93970613 12.66089451 41.34102678 12.64134803 34.74212629 12.63605821 C30.7997915 12.63240261 26.85789782 12.62036009 22.91568565 12.58795547 C19.2063533 12.55790225 15.49772956 12.55155259 11.78830147 12.56333923 C9.77937825 12.56366551 7.77049894 12.53918166 5.76173401 12.51396179 C-1.29217743 12.28505245 -1.29217743 12.28505245 -7.13534546 15.62113953 Z " fill="#FDFCFE" transform="translate(271.8496551513672,287.8528289794922)"></path><path d="M0 0 C4.29 0 8.58 0 13 0 C13.00257813 1.01835938 13.00515625 2.03671875 13.0078125 3.0859375 C13.41143571 22.96556792 20.30648863 40.84506017 34.1640625 55.34765625 C65.88932994 85.01908406 115.29157823 94.59416006 157 100 C158.19898926 100.16306641 159.39797852 100.32613281 160.63330078 100.49414062 C209.17858557 107.034618 258.09937107 107.85416473 307 109 C307 113.29 307 117.58 307 122 C108.06604292 124.24024726 108.06604292 124.24024726 25.27734375 65.24609375 C15.22355524 55.3302646 9.12340715 45.12409005 4 32 C3.64679688 31.15695313 3.29359375 30.31390625 2.9296875 29.4453125 C-0.66782833 19.98293892 -0.22464516 9.94678848 0 0 Z " fill="#FBFAFE" transform="translate(122,115)"></path><path d="M0 0 C4.29 0 8.58 0 13 0 C13.02578125 1.53527344 13.0515625 3.07054688 13.078125 4.65234375 C13.62705159 27.41990294 16.86151264 49.69155833 33 67 C33.804375 67.86625 34.60875 68.7325 35.4375 69.625 C36.283125 70.40875 37.12875 71.1925 38 72 C38.87978516 72.87011719 38.87978516 72.87011719 39.77734375 73.7578125 C56.76350328 89.88991932 80.31391398 98.14116753 102.44775391 104.29052734 C104.60061708 104.88897965 106.74380518 105.51177443 108.88671875 106.14453125 C160.16776439 120.30464396 216.30451631 120.24746958 269 121 C269 125.29 269 129.58 269 134 C227.07489949 134.58689121 185.55985848 132.70208148 144 127 C143.01563965 126.8659375 142.0312793 126.731875 141.01708984 126.59375 C97.52596205 120.53732459 46.21941506 107.40828992 17.70214844 71.359375 C2.16319878 50.42886217 -0.82400515 25.36104739 0 0 Z " fill="#FCFBFE" transform="translate(160,77)"></path><path d="M0 0 C3.69687601 0.87905455 6.38469365 2.03504921 9.67919922 3.90405273 C11.34402344 4.83846191 11.34402344 4.83846191 13.04248047 5.79174805 C14.21591112 6.46546023 15.38908366 7.13962216 16.56201172 7.81420898 C17.7686075 8.49824593 18.97564196 9.18150961 20.18310547 9.86401367 C23.69318156 11.85315124 27.19049829 13.86382908 30.68701172 15.87670898 C31.63350586 16.41763184 32.58 16.95855469 33.55517578 17.51586914 C35.93709802 18.87832144 38.31385934 20.24904918 40.68701172 21.62670898 C41.36747559 22.01979248 42.04793945 22.41287598 42.74902344 22.81787109 C48.67709899 26.31282738 48.67709899 26.31282738 50.68701172 28.87670898 C51.37451172 31.68920898 51.37451172 31.68920898 50.68701172 34.87670898 C45.11588407 40.40396948 37.49647938 43.96001797 30.68701172 47.68920898 C28.46279221 48.91660039 26.23883399 50.14446542 24.01513672 51.37280273 C22.93683594 51.96689941 21.85853516 52.56099609 20.74755859 53.1730957 C18.03701285 54.68188545 15.34912071 56.2208199 12.67138672 57.78686523 C11.94435547 58.2092749 11.21732422 58.63168457 10.46826172 59.06689453 C9.15612802 59.83225329 7.84845908 60.60534218 6.54638672 61.38769531 C3.15311956 63.35084806 0.62314383 64.59607106 -3.31298828 63.87670898 C-4.93032837 62.7019043 -4.93032837 62.7019043 -6.31298828 60.87670898 C-6.69393921 58.33422852 -6.69393921 58.33422852 -6.70117188 55.25952148 C-6.71062836 54.10822754 -6.72008484 52.95693359 -6.72982788 51.77075195 C-6.72375519 50.52696777 -6.7176825 49.28318359 -6.71142578 48.00170898 C-6.71429596 46.72569824 -6.71716614 45.4496875 -6.72012329 44.13500977 C-6.72216663 41.43466782 -6.7181222 38.73513817 -6.70410156 36.03491211 C-6.68700917 32.57451669 -6.69685135 29.11481928 -6.71481895 25.65444946 C-6.72826844 22.35351093 -6.71885073 19.05265662 -6.71142578 15.75170898 C-6.71749847 14.5079248 -6.72357117 13.26414062 -6.72982788 11.98266602 C-6.71564316 10.2557251 -6.71564316 10.2557251 -6.70117188 8.49389648 C-6.6987851 7.47924316 -6.69639832 6.46458984 -6.69393921 5.41918945 C-6.31298828 2.87670898 -6.31298828 2.87670898 -4.99578857 1.01792908 C-3.31298828 -0.12329102 -3.31298828 -0.12329102 0 0 Z " fill="#FDFCFE" transform="translate(320.31298828125,320.123291015625)"></path><path d="M0 0 C0 4.29 0 8.58 0 13 C-1.35609375 13.35191406 -2.7121875 13.70382812 -4.109375 14.06640625 C-36.02831168 22.47601293 -73.99815168 33.72621498 -92 64 C-99.64944059 77.1469109 -101.44507024 90.09343863 -102 105 C-106.29 105 -110.58 105 -115 105 C-115.51018681 90.20458247 -113.73707618 76.32649042 -107 63 C-106.51917969 62.02804687 -106.03835937 61.05609375 -105.54296875 60.0546875 C-89.07378177 29.36029036 -53.79014772 14.3292544 -22.11669922 4.63330078 C-6.6306862 0 -6.6306862 0 0 0 Z " fill="#FBFAFD" transform="translate(237,292)"></path><path d="M0 0 C0 4.62 0 9.24 0 14 C-0.969375 14.38929688 -1.93875 14.77859375 -2.9375 15.1796875 C-27.62817448 25.36692296 -47.1453612 40.12625771 -58.18994141 64.99853516 C-62.66115264 76.04584972 -63.06338376 88.30463061 -63.5625 100.0625 C-63.60568359 101.02349609 -63.64886719 101.98449219 -63.69335938 102.97460938 C-63.79821073 105.31628963 -63.89948137 107.65812976 -64 110 C-68.29 110 -72.58 110 -77 110 C-77.76588975 81.49188161 -73.73521753 55.10937904 -54 33 C-53.33484375 32.25234375 -52.6696875 31.5046875 -51.984375 30.734375 C-41.02719571 19.12788138 -16.74219548 0 0 0 Z " fill="#FBFAFD" transform="translate(237,325)"></path><path d="M0 0 C5.88048888 1.96016296 10.56852067 4.40721762 15.875 7.5 C16.75414062 7.99886719 17.63328125 8.49773437 18.5390625 9.01171875 C19.36921875 9.49253906 20.199375 9.97335937 21.0546875 10.46875 C21.81249512 10.90638672 22.57030273 11.34402344 23.35107422 11.79492188 C23.89521973 12.19259766 24.43936523 12.59027344 25 13 C25 13.66 25 14.32 25 15 C21.21225306 17.17357444 17.41917971 19.3376772 13.625 21.5 C12.54476563 22.12003906 11.46453125 22.74007813 10.3515625 23.37890625 C9.3203125 23.96542969 8.2890625 24.55195313 7.2265625 25.15625 C6.27346191 25.70087891 5.32036133 26.24550781 4.33837891 26.80664062 C2 28 2 28 0 28 C0 18.76 0 9.52 0 0 Z " fill="#7B4DD4" transform="translate(326,338)"></path></svg>