<svg version="1.1" xmlns="http://www.w3.org/2000/svg" width="16px" height="16px" fill="currentColor" viewBox="0 0 512 512"><path d="M0 0 C168.96 0 337.92 0 512 0 C512 168.96 512 337.92 512 512 C343.04 512 174.08 512 0 512 C0 343.04 0 174.08 0 0 Z " fill="#E3750D" transform="translate(0,0)"></path><path d="M0 0 C33.66 0 67.32 0 102 0 C116.55618622 30.23207908 116.55618622 30.23207908 121.3125 40.625 C126.41284451 51.69154677 131.69032146 62.66223756 137.03094482 73.61413574 C141.60082112 82.99022853 146.07746072 92.39903524 150.4375 101.875 C155.32093052 112.48636406 160.37372738 123.0044079 165.5 133.5 C171.19381647 145.15776772 176.76246025 156.8586324 182.1875 168.64453125 C186.18902518 177.31450248 190.32112338 185.9146947 194.5 194.5 C199.30564001 204.37376266 204.02390982 214.27875732 208.625 224.25 C212.80246271 233.29545788 217.01505877 242.32219893 221.31829834 251.30847168 C222.16954242 253.0874708 223.0167008 254.86842307 223.86376953 256.64941406 C224.37665527 257.71643555 224.88954102 258.78345703 225.41796875 259.8828125 C225.86938232 260.82527832 226.3207959 261.76774414 226.78588867 262.73876953 C227.92052596 265.11285216 227.92052596 265.11285216 230 267 C232.50279048 267.24506256 234.90633955 267.37349935 237.4140625 267.4140625 C238.38412231 267.44052856 238.38412231 267.44052856 239.3737793 267.4675293 C241.7905995 267.53061614 244.20783729 267.57678927 246.625 267.625 C252.02875 267.74875 257.4325 267.8725 263 268 C263 289.12 263 310.24 263 332 C236.93 332 210.86 332 184 332 C178.77935691 322.13878527 173.70155234 312.49850907 169.125 302.375 C163.76030659 290.66132556 158.16953022 279.06892514 152.5 267.5 C146.52325966 255.29859831 140.65991544 243.0634427 134.9921875 230.71484375 C130.31284346 220.56842691 125.4142956 210.53419922 120.5 200.5 C114.50118595 188.2512417 108.61339756 175.96941607 102.921875 163.57421875 C98.42123799 153.81339137 93.7224965 144.15496351 89 134.5 C81.96951016 120.12466897 75.15054672 105.67004401 68.45068359 91.13769531 C66.0935985 86.03953684 63.71132958 80.95363482 61.3125 75.875 C60.69665039 74.55822266 60.69665039 74.55822266 60.06835938 73.21484375 C59.5027832 72.02181641 59.5027832 72.02181641 58.92578125 70.8046875 C58.60005127 70.11358887 58.27432129 69.42249023 57.9387207 68.71044922 C57.0031379 66.8166819 57.0031379 66.8166819 55 65 C52.5744976 64.66854413 52.5744976 64.66854413 49.72412109 64.68115234 C48.6077124 64.66109131 47.49130371 64.64103027 46.34106445 64.62036133 C45.16374756 64.60900146 43.98643066 64.5976416 42.7734375 64.5859375 C41.69425049 64.56829346 40.61506348 64.55064941 39.50317383 64.5324707 C35.46060254 64.46926567 31.41777834 64.42317452 27.375 64.375 C18.34125 64.25125 9.3075 64.1275 0 64 C0 42.88 0 21.76 0 0 Z " fill="#E5770C" transform="translate(153,90)"></path><path d="M0 0 C1.13532669 -0.00700928 2.27065338 -0.01401855 3.44038391 -0.02124023 C7.19813399 -0.03886417 10.95513271 -0.02718106 14.71289062 -0.01367188 C17.32076156 -0.0163655 19.92863153 -0.02024684 22.53649902 -0.02526855 C28.00407064 -0.03254347 33.47142606 -0.02296159 38.93896484 -0.00390625 C45.25799114 0.01786251 51.57650118 0.01081101 57.89551497 -0.01121187 C63.97710989 -0.03155803 70.05847614 -0.02939571 76.14009094 -0.01768494 C78.72691418 -0.01501305 81.31375057 -0.01830354 83.90055847 -0.02760315 C87.51348981 -0.03774065 91.12542432 -0.02230505 94.73828125 0 C95.81165237 -0.00809692 96.8850235 -0.01619385 97.99092102 -0.02453613 C105.21666721 0.05827578 105.21666721 0.05827578 108.4462738 2.33172607 C110.51331318 5.50717594 112.168049 8.81788945 113.74804688 12.25195312 C114.11243362 13.02535538 114.47682037 13.79875763 114.85224915 14.59559631 C116.05331073 17.14928522 117.24232567 19.70840025 118.43164062 22.26757812 C119.27398488 24.06317482 120.11726163 25.85833434 120.96142578 27.65307617 C122.71996999 31.39380418 124.47445162 35.13639726 126.22607422 38.88037109 C129.96671388 46.86824727 133.75317286 54.83430535 137.54116821 62.79980469 C138.74484243 65.33155427 139.94715186 67.86394812 141.14916992 70.39648438 C145.64730388 79.86996351 150.17807698 89.32665861 154.74414062 98.76757812 C159.53286139 108.66895594 164.17827414 118.63086242 168.78466797 128.61816406 C173.36697766 138.51617191 178.11862996 148.32630303 182.89907837 158.12969971 C188.03687024 168.67130219 193.03115972 179.26725051 197.93554688 189.91992188 C202.45883772 199.71112393 207.15900731 209.41050867 211.8868103 219.10415649 C218.29663831 232.25325985 224.49299956 245.49242832 230.58911133 258.78979492 C231.52891297 260.79254215 232.51636167 262.77310893 233.5300293 264.73950195 C234.86914062 267.51757812 234.86914062 267.51757812 234.86914062 269.51757812 C235.94397705 269.49663086 237.01881348 269.47568359 238.1262207 269.45410156 C242.11241341 269.38172439 246.09854801 269.33578721 250.08520508 269.29785156 C251.81089035 269.27773074 253.5365074 269.25043064 255.26196289 269.21582031 C257.74187032 269.16732054 260.22087691 269.14461508 262.70117188 269.12695312 C263.47314407 269.10630798 264.24511627 269.08566284 265.04048157 269.06439209 C270.36539707 269.06215928 270.36539707 269.06215928 272.57171631 271.05682373 C274.3621385 274.45262048 274.29609147 277.59622003 274.27319336 281.34375 C274.28348824 282.52004723 274.28348824 282.52004723 274.29399109 283.72010803 C274.31227385 286.30903287 274.30842001 288.89735266 274.30273438 291.48632812 C274.30729512 293.28707069 274.31260037 295.08781152 274.31861877 296.8885498 C274.3275525 300.66128616 274.32512339 304.43381086 274.31518555 308.20654297 C274.303689 313.04231561 274.3239163 317.87735879 274.35310268 322.71303558 C274.37144324 326.43109785 274.37117664 330.14898455 274.36546516 333.86708069 C274.36531172 335.65008061 274.37137506 337.43309226 274.38375664 339.21604919 C274.39862663 341.70830154 274.38802049 344.19919655 274.37084961 346.69140625 C274.38051758 347.42815079 274.39018555 348.16489532 274.40014648 348.92396545 C274.35438252 352.09428549 274.03914521 354.23199306 272.40724182 356.97337341 C268.59076052 359.29535664 265.14799779 359.08404522 260.7578125 359.05102539 C259.83706436 359.05964096 258.91631622 359.06825653 257.96766663 359.07713318 C254.92412202 359.09983616 251.88149487 359.09304664 248.83789062 359.08398438 C246.72326381 359.0892178 244.60863933 359.09549324 242.49401855 359.10276794 C238.06214412 359.11318 233.6305906 359.10859865 229.19873047 359.09399414 C223.51538034 359.07679992 217.83304054 359.10030576 212.14980316 359.13548374 C207.78319583 359.1574282 203.41683138 359.15602348 199.05018616 359.14771843 C196.95458365 359.1468974 194.85896358 359.15378971 192.76341248 359.16848946 C189.83512977 359.18588181 186.90867729 359.17143729 183.98046875 359.14868164 C183.11281387 359.16037384 182.245159 359.17206604 181.35121155 359.18411255 C175.47188926 359.09100756 175.47188926 359.09100756 172.40696716 356.1751709 C170.62355105 353.09316284 168.97950943 350.00512583 167.43554688 346.79492188 C167.12179611 346.14644791 166.80804535 345.49797394 166.48478699 344.82984924 C165.46056193 342.70798964 164.4459478 340.58169431 163.43164062 338.45507812 C162.71032146 336.95490473 161.98863667 335.45490707 161.26660156 333.95507812 C156.44126702 323.90932645 151.7415605 313.80892838 147.08618164 303.68334961 C141.752837 292.14437298 136.14631777 280.74139613 130.55047607 269.32800293 C124.80732854 257.6088523 119.18347031 245.85224724 113.74023438 233.99023438 C109.25835075 224.26238009 104.57529215 214.63845866 99.86914062 205.01757812 C94.63402204 194.31531954 89.46325926 183.5965293 84.49414062 172.76757812 C79.11568649 161.05032482 73.48159492 149.46834575 67.80664062 137.89257812 C61.97918859 126.00004954 56.18181822 114.09917419 50.61914062 102.08007812 C50.12406006 101.01515137 49.62897949 99.95022461 49.11889648 98.85302734 C48.46159546 97.42047607 48.46159546 97.42047607 47.79101562 95.95898438 C47.41557617 95.14115479 47.04013672 94.3233252 46.65332031 93.48071289 C45.86914062 91.51757812 45.86914062 91.51757812 45.86914062 89.51757812 C45.14917404 89.52646057 44.42920746 89.53534302 43.68742371 89.54449463 C36.9043075 89.62462374 30.12126197 89.68553387 23.3377943 89.72482681 C19.85023506 89.74570712 16.36306669 89.77403131 12.87573242 89.81933594 C8.86698646 89.87108874 4.8586514 89.89051948 0.84960938 89.90820312 C-1.03018364 89.93917084 -1.03018364 89.93917084 -2.94795227 89.97076416 C-4.10892929 89.97106628 -5.26990631 89.97136841 -6.46606445 89.97167969 C-8.00161736 89.98500336 -8.00161736 89.98500336 -9.56819153 89.99859619 C-12.13085938 89.51757812 -12.13085938 89.51757812 -13.95965576 87.97833252 C-15.58218704 84.56931728 -15.55751252 81.39021373 -15.53491211 77.69140625 C-15.54177536 76.9072081 -15.54863861 76.12300995 -15.55570984 75.31504822 C-15.5739926 72.72612338 -15.57013876 70.13780359 -15.56445312 67.54882812 C-15.56901387 65.74808556 -15.57431912 63.94734473 -15.58033752 62.14660645 C-15.58927125 58.37387009 -15.58684214 54.60134539 -15.5769043 50.82861328 C-15.56540775 45.99284064 -15.58563505 41.15779746 -15.61482143 36.32212067 C-15.63316199 32.6040584 -15.63289539 28.8861717 -15.62718391 25.16807556 C-15.62703047 23.38507564 -15.63309381 21.60206399 -15.64547539 19.81910706 C-15.66034538 17.32685471 -15.64973924 14.8359597 -15.63256836 12.34375 C-15.64223633 11.60700546 -15.6519043 10.87026093 -15.66186523 10.1111908 C-15.61718798 7.01615312 -15.28025466 4.79236919 -13.79518127 2.06079102 C-9.41854113 -0.4742208 -4.96568873 -0.03745844 0 0 Z M-2.13085938 13.51757812 C-2.13085938 34.63757813 -2.13085938 55.75757813 -2.13085938 77.51757812 C15.83447017 77.64849019 15.83447017 77.64849019 33.80004883 77.7253418 C36.0483638 77.75177956 38.29665824 77.78005483 40.54492188 77.81054688 C41.7171228 77.80655884 42.88932373 77.8025708 44.0970459 77.79846191 C45.77147766 77.82800964 45.77147766 77.82800964 47.47973633 77.8581543 C48.45014359 77.86481613 49.42055084 77.87147797 50.42036438 77.87834167 C52.86914062 78.51757812 52.86914062 78.51757812 54.57710266 80.80438232 C55.00347519 81.69973694 55.42984772 82.59509155 55.86914062 83.51757812 C56.39905106 84.53000328 56.39905106 84.53000328 56.93966675 85.56288147 C57.26685699 86.23121506 57.59404724 86.89954865 57.93115234 87.58813477 C58.30991013 88.3593718 58.68866791 89.13060883 59.0789032 89.92521667 C59.48147842 90.75104752 59.88405365 91.57687836 60.29882812 92.42773438 C60.93852287 93.73433769 60.93852287 93.73433769 61.59114075 95.06733704 C62.97823754 97.90357705 64.36147238 100.74167683 65.74414062 103.58007812 C66.21888824 104.55285706 66.69363586 105.52563599 67.18276978 106.52789307 C73.27070345 119.00670017 79.25811564 131.51993392 85.04638672 144.14086914 C89.50999179 153.83778981 94.17864779 163.42883803 98.86914062 173.01757812 C104.12461603 183.76159736 109.31546713 194.52262555 114.30664062 205.39257812 C119.88803665 217.54538643 125.73618035 229.55782028 131.6178894 241.56732178 C136.64479042 251.8363315 141.59953456 262.12598824 146.36914062 272.51757812 C152.36685643 285.58263495 158.65668928 298.49851106 164.984375 311.40625 C165.75336154 312.97585937 166.52224285 314.5455203 167.29101562 316.11523438 C167.85212036 317.26011826 167.85212036 317.26011826 168.42456055 318.4281311 C171.7012941 325.13282527 174.89402104 331.8762892 178.05194092 338.63771057 C179.57730262 342.32824661 179.57730262 342.32824661 181.86914062 345.51757812 C184.33358119 345.61258361 186.76988689 345.64315798 189.23461914 345.63110352 C190.39063629 345.63132256 190.39063629 345.63132256 191.57000732 345.63154602 C194.12938201 345.63084672 196.68868483 345.62305358 199.24804688 345.61523438 C201.01781677 345.61337025 202.78758719 345.61194632 204.55735779 345.61094666 C209.22465428 345.60712101 213.89191986 345.59729033 218.5592041 345.58624268 C224.15421662 345.57423519 229.74923946 345.56962654 235.34426117 345.56378937 C243.85257585 345.55407859 252.36082264 345.53492237 260.86914062 345.51757812 C260.86914062 324.39757812 260.86914062 303.27757812 260.86914062 281.51757812 C250.23374081 281.50523974 250.23374081 281.50523974 239.59887695 281.58007812 C238.25793017 281.56238316 236.91701763 281.54174507 235.57617188 281.51757812 C234.54574768 281.54658203 234.54574768 281.54658203 233.49450684 281.57617188 C231.46606445 281.51757812 231.46606445 281.51757812 227.86914062 280.51757812 C225.63833444 278.12645089 224.28658868 275.44616579 222.86914062 272.51757812 C222.51765457 271.83166595 222.16616852 271.14575378 221.80403137 270.4390564 C220.72444295 268.28779662 219.69825612 266.11722952 218.68164062 263.93554688 C218.30226349 263.13230484 217.92288635 262.32906281 217.53201294 261.5014801 C216.30657981 258.90476166 215.08788913 256.30493963 213.86914062 253.70507812 C212.58690598 250.98395878 211.30292388 248.26366859 210.01882935 245.54342651 C209.16529858 243.73503804 208.31233024 241.92638399 207.45993042 240.11746216 C204.01595689 232.81222963 200.51649857 225.5353675 196.99414062 218.26757812 C192.20452622 208.36664201 187.55999874 198.40427567 182.95361328 188.41699219 C178.37161816 178.51966382 173.62023633 168.71023922 168.84020996 158.9074707 C163.67932097 148.31816834 158.6605744 137.6746924 153.73242188 126.97460938 C149.40582921 117.60742969 144.92444952 108.32162678 140.40884399 99.04473877 C136.00656181 89.99570441 131.70188173 80.90925943 127.49414062 71.76757812 C121.70902737 59.19991829 115.68657261 46.75494487 109.60400391 34.32910156 C109.25299118 33.61080673 108.90197845 32.8925119 108.54032898 32.15245056 C107.88916676 30.82046978 107.23664158 29.48915388 106.58235168 28.15870667 C104.21776228 23.32206645 102.06023883 18.44754908 99.86914062 13.51757812 C66.20914063 13.51757812 32.54914063 13.51757812 -2.13085938 13.51757812 Z " fill="#FEFCFA" transform="translate(155.130859375,76.482421875)"></path><path d="M0 0 C2.46414444 2.22599242 3.81433777 4.31981078 5.21484375 7.3203125 C5.644021 8.2282959 6.07319824 9.1362793 6.51538086 10.07177734 C6.98468018 11.07934082 7.45397949 12.0869043 7.9375 13.125 C8.99833728 15.37057791 10.06097701 17.61530482 11.125 19.859375 C11.41733017 20.47706757 11.70966034 21.09476013 12.010849 21.73117065 C14.65435929 27.3041208 17.35321754 32.84939908 20.0625 38.390625 C20.72470299 39.74503189 20.72470299 39.74503189 21.40028381 41.12680054 C23.18515492 44.7754522 24.97118123 48.42353521 26.75875854 52.07086182 C29.18157872 57.01564628 31.59287466 61.96567102 33.98846436 66.92370605 C34.89094419 68.77615032 35.81533754 70.61788189 36.74267578 72.45800781 C37.21044434 73.41288086 37.67821289 74.36775391 38.16015625 75.3515625 C38.54953369 76.12580566 38.93891113 76.90004883 39.34008789 77.69775391 C40.92354928 83.22200138 38.28804195 87.92870578 35.859375 92.8203125 C35.54110748 93.46791534 35.22283997 94.11551819 34.89492798 94.78274536 C34.21016548 96.17453957 33.52199808 97.56466282 32.83074951 98.95324707 C30.98286125 102.66655595 29.16078747 106.39251771 27.3359375 110.1171875 C26.9660672 110.87056396 26.5961969 111.62394043 26.21511841 112.40014648 C22.83288761 119.30394499 19.58609759 126.26483321 16.375 133.25 C11.24200181 144.39885919 5.95475084 155.46546654 0.57958984 166.49902344 C-0.25258057 168.2107373 -0.25258057 168.2107373 -1.1015625 169.95703125 C-1.58963379 170.95710205 -2.07770508 171.95717285 -2.58056641 172.98754883 C-4.13555791 176.28769334 -5.56292579 179.64682685 -7 183 C-33.4 183 -59.8 183 -87 183 C-78.96399336 164.63198482 -78.96399336 164.63198482 -75.984375 158.58984375 C-75.646978 157.89846313 -75.30958099 157.20708252 -74.96195984 156.49475098 C-74.25499761 155.04683316 -73.54664179 153.59959494 -72.83688354 152.15304565 C-71.33200816 149.08544918 -69.83497255 146.0140466 -68.33738708 142.94288635 C-67.58867594 141.4075934 -66.83962642 139.8724654 -66.09022522 138.33750916 C-60.0935869 126.05340405 -54.2063963 113.71787221 -48.40625 101.33984375 C-47.08363527 98.51808751 -45.76075291 95.69645703 -44.4375 92.875 C-44.1034314 92.16265198 -43.76936279 91.45030396 -43.4251709 90.71636963 C-36.83419367 76.67415655 -30.06101715 62.72373754 -23.2572937 48.78366089 C-22.89137115 48.03391998 -22.52544861 47.28417908 -22.1484375 46.51171875 C-21.7888797 45.77511017 -21.4293219 45.03850159 -21.05886841 44.27957153 C-13.89281271 29.58945655 -6.86576852 14.83287192 0 0 Z " fill="#DA6812" transform="translate(187,239)"></path><path d="M0 0 C3.625 0.4375 3.625 0.4375 5.64355469 2.55566406 C7.74220672 5.60796675 9.3565734 8.64185937 10.953125 11.984375 C11.25894501 12.61972168 11.56476501 13.25506836 11.87985229 13.90966797 C12.88418559 15.99948325 13.87951044 18.09345954 14.875 20.1875 C15.58379273 21.66601625 16.29327762 23.14420086 17.00341797 24.62207031 C18.47922556 27.694696 19.95204075 30.76872953 21.42285156 33.84375 C24.17925041 39.60087382 26.9669104 45.3426848 29.75708008 51.08349609 C31.0839562 53.8136188 32.40656595 56.54574065 33.7253418 59.27978516 C36.69235971 65.42666736 39.67505139 71.56289604 42.74523926 77.65905762 C44.08496376 80.32250281 45.41180383 82.99226397 46.73748779 85.66271973 C47.3630246 86.91363259 47.99491764 88.16139026 48.63360596 89.40563965 C49.51269263 91.11904713 50.36821771 92.84448129 51.22265625 94.5703125 C51.95754272 96.02268311 51.95754272 96.02268311 52.70727539 97.50439453 C54.70828199 103.89973726 52.07213884 109.29934361 49.2578125 115.02734375 C48.91142227 115.75197311 48.56503204 116.47660248 48.20814514 117.22319031 C47.06412773 119.61141525 45.90700647 121.99304447 44.75 124.375 C43.9395162 126.0618596 43.13004569 127.74920638 42.3215332 129.43701172 C40.62474775 132.97653597 38.923275 136.51374848 37.21826172 140.04931641 C33.45357047 147.86229048 29.73396431 155.69665301 26.01486206 163.53140259 C24.81717386 166.05266103 23.61696337 168.5727057 22.41625977 171.0925293 C18.78609356 178.7184633 15.18448695 186.35459719 11.6796875 194.0390625 C11.3771254 194.70036163 11.07456329 195.36166077 10.76283264 196.04299927 C9.37418671 199.07926276 7.99469046 202.11862127 6.6315918 205.16650391 C6.15633057 206.20983887 5.68106934 207.25317383 5.19140625 208.328125 C4.58727905 209.67438965 4.58727905 209.67438965 3.97094727 211.04785156 C2.36363413 213.90153939 1.27011076 215.45178829 -1.375 217.4375 C-4.52938362 218.04272069 -7.64980722 217.98373948 -10.85351562 217.95507812 C-12.29315926 217.96559204 -12.29315926 217.96559204 -13.7618866 217.97631836 C-16.9353018 217.99392759 -20.10782568 217.98226489 -23.28125 217.96875 C-25.48555676 217.97144406 -27.68986235 217.97532577 -29.89416504 217.98034668 C-34.51435661 217.98624571 -39.1342389 217.97766547 -43.75439453 217.95898438 C-49.67975736 217.93619491 -55.60439551 217.94931578 -61.52973175 217.97327423 C-66.08161897 217.98772107 -70.63333407 217.98313127 -75.18522644 217.97276306 C-77.37013332 217.97009271 -79.55505576 217.97337633 -81.73994446 217.98268127 C-84.79254611 217.99282824 -87.84397052 217.97737105 -90.89648438 217.95507812 C-91.80154221 217.96317505 -92.70660004 217.97127197 -93.63908386 217.97961426 C-99.73188283 217.89708646 -99.73188283 217.89708646 -102.97145081 215.58201599 C-104.375 213.4375 -104.375 213.4375 -104.31030273 210.60766602 C-103.28140995 207.1202808 -101.97248546 203.99978211 -100.41015625 200.71484375 C-99.95319366 199.74692146 -99.95319366 199.74692146 -99.48699951 198.75944519 C-98.47792201 196.62768282 -97.45788854 194.50136855 -96.4375 192.375 C-95.71981254 190.86530146 -95.00261843 189.35536829 -94.28588867 187.84521484 C-88.61467801 175.92263168 -82.8277937 164.05583941 -77.02999878 152.19442749 C-72.24557328 142.40553463 -67.54569791 132.59002408 -63 122.6875 C-57.22356358 110.10521864 -51.15030674 97.67723453 -45.05578613 85.24682617 C-39.84254302 74.6089595 -34.69339552 63.9540411 -29.75 53.1875 C-24.92437858 42.68594143 -19.96192538 32.25606613 -14.92047119 21.85656738 C-14.10324364 20.17033014 -13.2874304 18.48340667 -12.4730835 16.79577637 C-11.33669428 14.44242538 -10.19466027 12.09190531 -9.05078125 9.7421875 C-8.53764626 8.677155 -8.53764626 8.677155 -8.0141449 7.59060669 C-4.59045708 0.59505925 -4.59045708 0.59505925 0 0 Z M-0.375 21.4375 C-12.23103223 45.65478758 -12.23103223 45.65478758 -23.6875 70.0625 C-29.11747983 81.87832501 -34.78463571 93.57019504 -40.5 105.25 C-40.93780792 106.14480072 -41.37561584 107.03960144 -41.82669067 107.96151733 C-43.5387862 111.46030267 -45.25106294 114.95899924 -46.96366882 118.45753479 C-55.32420807 135.54434791 -63.42240327 152.75446171 -71.50878906 169.97216797 C-75.84542223 179.20372665 -80.20687475 188.42274328 -84.63305664 197.61181641 C-86.51756665 200.89439108 -86.51756665 200.89439108 -87.375 204.4375 C-60.975 204.4375 -34.575 204.4375 -7.375 204.4375 C-4.77625 198.95125 -2.1775 193.465 0.5 187.8125 C1.77079773 185.12993876 3.04159546 182.44737752 4.31239319 179.76481628 C7.62960289 172.76229627 10.9463286 165.75954844 14.26094055 158.75579834 C15.04494931 157.09935017 15.82911761 155.44297751 16.6134491 153.78668213 C18.51871038 149.76320372 20.4220375 145.73883663 22.32104492 141.71240234 C25.57020413 134.83035425 28.83954101 127.96392002 32.234375 121.15234375 C32.76232666 120.0842749 33.29027832 119.01620605 33.83422852 117.91577148 C34.782078 116.00614046 35.74243599 114.10263733 36.71850586 112.20727539 C38.41431824 108.77830978 39.61405907 106.28104537 39.6640625 102.42578125 C38.18100648 98.16060134 36.31211398 94.17087582 34.3125 90.125 C33.84682617 89.16730713 33.38115234 88.20961426 32.90136719 87.22290039 C31.49106342 84.32622112 30.07331057 81.4332799 28.65447998 78.54077148 C26.65874232 74.46339437 24.67637362 70.37950283 22.69140625 66.296875 C11.7586207 43.81764738 11.7586207 43.81764738 0.625 21.4375 C0.295 21.4375 -0.035 21.4375 -0.375 21.4375 Z " fill="#FEFBFA" transform="translate(187.375,217.5625)"></path></svg>