<svg version="1.1" xmlns="http://www.w3.org/2000/svg" width="16px" height="16px" fill="currentColor" viewBox="0 0 512 512"><path d="M0 0 C168.96 0 337.92 0 512 0 C512 168.96 512 337.92 512 512 C343.04 512 174.08 512 0 512 C0 343.04 0 174.08 0 0 Z " fill="#D62A6B" transform="translate(0,0)"></path><path d="M0 0 C1.23027829 -0.00782324 2.46055658 -0.01564648 3.72811604 -0.02370679 C5.10067181 -0.01722004 6.47322628 -0.01045004 7.84577942 -0.00342751 C9.29816382 -0.0068821 10.7505456 -0.01164532 12.20292187 -0.01760924 C16.20377684 -0.0301763 20.20441818 -0.02392309 24.20527411 -0.01465058 C28.51617248 -0.00788368 32.82703322 -0.01832956 37.13792419 -0.02659035 C45.58682778 -0.03995517 54.03565158 -0.03703774 62.48455834 -0.02835242 C69.34898043 -0.02158707 76.2133801 -0.02065417 83.07780457 -0.02392387 C84.05345908 -0.02438357 85.0291136 -0.02484327 86.03433341 -0.0253169 C88.01613562 -0.02627604 89.99793782 -0.02724868 91.97974002 -0.02823468 C110.57868853 -0.03679662 129.17759272 -0.02694183 147.77653396 -0.01083358 C163.74763602 0.00257033 179.71867268 0.00024247 195.68977356 -0.01358986 C214.2205491 -0.02963148 232.75128578 -0.03597257 251.2820673 -0.02675307 C253.25672467 -0.02579738 255.23138205 -0.02485427 257.20603943 -0.02392387 C258.17769914 -0.02346105 259.14935886 -0.02299822 260.15046281 -0.02252137 C267.00947226 -0.01992722 273.86845713 -0.02431161 280.72746277 -0.03136253 C289.08224794 -0.039762 297.43694853 -0.03753021 305.79172397 -0.0215203 C310.05737513 -0.01361658 314.32288508 -0.01058155 318.58853531 -0.02046776 C322.48936331 -0.02937195 326.38991848 -0.02455304 330.29072154 -0.0085351 C331.70588174 -0.00516905 333.12106474 -0.00692201 334.53621042 -0.01416247 C336.4520727 -0.02321691 338.36799905 -0.01218271 340.28384399 0 C341.35037107 0.00048706 342.41689814 0.00097411 343.51574421 0.00147593 C346.141922 0.37752342 346.141922 0.37752342 347.98445666 1.53498876 C349.63496808 4.16238882 349.51803231 6.14125402 349.51944542 9.23560143 C349.52726866 10.46587972 349.5350919 11.69615801 349.54315221 12.96371746 C349.53666545 14.33627324 349.52989546 15.7088277 349.52287292 17.08138084 C349.52632752 18.53376524 349.53109074 19.98614703 349.53705466 21.43852329 C349.54962172 25.43937827 349.54336851 29.44001961 349.534096 33.44087553 C349.5273291 37.7517739 349.53777498 42.06263464 349.54603577 46.37352562 C349.55940059 54.82242921 349.55648316 63.27125301 349.54779784 71.72015977 C349.54103249 78.58458186 349.54009959 85.44898153 349.54336929 92.31340599 C349.54382899 93.28906051 349.54428869 94.26471503 349.54476232 95.26993483 C349.54572146 97.25173704 349.5466941 99.23353925 349.54768009 101.21534145 C349.55624204 119.81428995 349.54638725 138.41319415 349.530279 157.01213539 C349.51687509 172.98323745 349.51920295 188.9542741 349.53303528 204.92537498 C349.5490769 223.45615053 349.55541799 241.98688721 349.54619849 260.51766872 C349.5452428 262.49232609 349.54429969 264.46698347 349.54336929 266.44164085 C349.54290647 267.41330057 349.54244364 268.38496028 349.54196679 269.38606423 C349.53937264 276.24507368 349.54375703 283.10405855 349.55080795 289.96306419 C349.55920742 298.31784937 349.55697563 306.67254995 349.54096572 315.02732539 C349.533062 319.29297656 349.53002697 323.5584865 349.53991318 327.82413673 C349.54881737 331.72496474 349.54399845 335.6255199 349.52798052 339.52632296 C349.52461447 340.94148316 349.52636743 342.35666616 349.53360789 343.77181184 C349.54266233 345.68767412 349.53162813 347.60360048 349.51944542 349.51944542 C349.51871483 351.11923603 349.51871483 351.11923603 349.51796949 352.75134563 C349.141922 355.37752342 349.141922 355.37752342 347.7713753 357.22110558 C345.40960158 358.8972489 343.62825914 358.73784153 340.7525177 358.71809959 C339.65160294 358.717873 338.55068817 358.71764641 337.41641235 358.71741295 C336.22883835 358.70192909 335.04126434 358.68644524 333.81770325 358.67049217 C332.60116562 358.66624733 331.38462799 358.66200249 330.13122559 358.65762901 C326.23873429 358.64081193 322.34675729 358.60315301 318.454422 358.56502342 C315.81836176 358.54998056 313.18229341 358.53629146 310.54621887 358.5240078 C304.0779212 358.4908983 297.61000885 358.43909418 291.141922 358.37752342 C291.141922 354.08752342 291.141922 349.79752342 291.141922 345.37752342 C305.991922 345.37752342 320.841922 345.37752342 336.141922 345.37752342 C336.141922 256.93752342 336.141922 168.49752342 336.141922 77.37752342 C226.581922 77.37752342 117.021922 77.37752342 4.141922 77.37752342 C4.141922 165.81752342 4.141922 254.25752342 4.141922 345.37752342 C71.791922 345.37752342 139.441922 345.37752342 209.141922 345.37752342 C209.141922 349.66752342 209.141922 353.95752342 209.141922 358.37752342 C181.16123407 358.44752986 153.18055923 358.50047052 125.19980145 358.53295994 C112.20855473 358.54844468 99.21736236 358.56956486 86.22615051 358.60384178 C74.90619093 358.63369498 63.58627069 358.65308672 52.26627284 358.65978891 C46.26954423 358.66370808 40.2729282 358.672952 34.27623558 358.69471359 C28.63663341 358.7150143 22.99719063 358.72137024 17.35755539 358.71684647 C15.28344546 358.71767455 13.20933042 358.72367821 11.135252 358.73513985 C8.31160859 358.74998357 5.48857338 358.74650683 2.66491699 358.73828697 C1.83710163 358.7470255 1.00928627 358.75576402 0.1563856 358.76476735 C-5.35031594 358.72119576 -5.35031594 358.72119576 -7.56741267 357.22058183 C-9.39938231 354.60454578 -9.23414914 352.69957003 -9.23560143 349.51944542 C-9.24733629 347.67402798 -9.24733629 347.67402798 -9.25930822 345.79132938 C-9.25282146 344.41877361 -9.24605147 343.04621914 -9.23902893 341.673666 C-9.24248352 340.2212816 -9.24724675 338.76889982 -9.25321066 337.31652355 C-9.26577773 333.31566857 -9.25952452 329.31502724 -9.25025201 325.31417131 C-9.2434851 321.00327294 -9.25393099 316.6924122 -9.26219177 312.38152122 C-9.27555659 303.93261764 -9.27263916 295.48379384 -9.26395385 287.03488708 C-9.2571885 280.17046499 -9.2562556 273.30606532 -9.2595253 266.44164085 C-9.259985 265.46598634 -9.2604447 264.49033182 -9.26091833 263.48511201 C-9.26187747 261.5033098 -9.26285011 259.52150759 -9.2638361 257.5397054 C-9.27239805 238.94075689 -9.26254326 220.3418527 -9.246435 201.74291146 C-9.23303109 185.7718094 -9.23535896 169.80077274 -9.24919128 153.82967186 C-9.26523291 135.29889632 -9.271574 116.76815964 -9.26235449 98.23737812 C-9.26139881 96.26272075 -9.2604557 94.28806337 -9.2595253 92.31340599 C-9.25906247 91.34174628 -9.25859965 90.37008656 -9.25812279 89.36898261 C-9.25552865 82.50997316 -9.25991303 75.65098829 -9.26696396 68.79198265 C-9.27536343 60.43719747 -9.27313164 52.08249689 -9.25712173 43.72772145 C-9.24921801 39.46207029 -9.24618298 35.19656034 -9.25606918 30.93091011 C-9.26497337 27.03008211 -9.26015446 23.12952694 -9.24413653 19.22872388 C-9.24077048 17.81356368 -9.24252343 16.39838068 -9.24976389 14.983235 C-9.25881834 13.06737272 -9.24778413 11.15144637 -9.23560143 9.23560143 C-9.23511437 8.16907435 -9.23462731 7.10254728 -9.23412549 6.00370121 C-8.858078 3.37752342 -8.858078 3.37752342 -7.70061266 1.53498876 C-5.07321261 -0.11552266 -3.09434741 0.00141311 0 0 Z " fill="#FDF8FA" transform="translate(85.85807800292969,76.62247657775879)"></path><path d="M0 0 C0.9077417 -0.00945648 1.8154834 -0.01891296 2.75073242 -0.02865601 C3.72373291 -0.02258331 4.6967334 -0.01651062 5.69921875 -0.01025391 C7.20802612 -0.01455917 7.20802612 -0.01455917 8.74731445 -0.01895142 C10.87223881 -0.02099128 12.99718197 -0.01546685 15.12207031 -0.00292969 C18.37477604 0.01312465 21.62623917 -0.00278143 24.87890625 -0.02197266 C26.94401316 -0.01999021 29.0091193 -0.01614651 31.07421875 -0.01025391 C32.53371948 -0.01936295 32.53371948 -0.01936295 34.02270508 -0.02865601 C34.93044678 -0.01919952 35.83818848 -0.00974304 36.7734375 0 C37.96779419 0.00358017 37.96779419 0.00358017 39.1862793 0.00723267 C41.94244313 0.48439334 43.34069389 1.51323495 45.38671875 3.38818359 C45.84082031 5.28930664 45.84082031 5.28930664 45.77734375 7.39990234 C45.76445312 8.15722656 45.7515625 8.91455078 45.73828125 9.69482422 C45.68800781 10.87334961 45.68800781 10.87334961 45.63671875 12.07568359 C45.61867188 12.87296875 45.600625 13.67025391 45.58203125 14.49169922 C45.53494122 16.45770808 45.46319774 18.42309853 45.38671875 20.38818359 C46.08796875 20.55833984 46.78921875 20.72849609 47.51171875 20.90380859 C52.22876383 22.10870598 56.58393875 23.3262421 60.88671875 25.63818359 C62.04171875 26.21568359 63.19671875 26.79318359 64.38671875 27.38818359 C67.82304106 26.24274282 68.7214346 25.11703279 71.01171875 22.38818359 C71.62273437 21.66630859 72.23375 20.94443359 72.86328125 20.20068359 C73.36601562 19.60255859 73.86875 19.00443359 74.38671875 18.38818359 C75.38671875 17.38818359 75.38671875 17.38818359 78.47119141 16.90136719 C84.01001382 17.59000741 86.2505684 20.27555264 90.03515625 24.17724609 C90.73315338 24.87328949 91.43115051 25.56933289 92.15029907 26.28646851 C93.61924459 27.75940734 95.07957599 29.24098077 96.53173828 30.73046875 C98.75420996 33.00549724 101.00693435 35.24682849 103.265625 37.48583984 C104.69071629 38.92274599 106.11395816 40.36148919 107.53515625 41.80224609 C108.20799652 42.47123932 108.88083679 43.14023254 109.57406616 43.82949829 C112.40311044 46.76024341 114.18010738 48.74659086 115.44384766 52.67089844 C115.37525674 55.93336389 114.27109371 57.40700353 112.1015625 59.79833984 C109.61611015 62.10262027 107.00434815 64.2352651 104.38671875 66.38818359 C105.12728516 68.06847656 105.12728516 68.06847656 105.8828125 69.78271484 C106.53001743 71.25534055 107.17714902 72.72799848 107.82421875 74.20068359 C108.14970703 74.93867188 108.47519531 75.67666016 108.81054688 76.43701172 C109.12314453 77.14921875 109.43574219 77.86142578 109.7578125 78.59521484 C110.0458374 79.24981689 110.3338623 79.90441895 110.63061523 80.57885742 C111.28865859 82.15352946 111.84703244 83.76912468 112.38671875 85.38818359 C113.423125 85.42556641 114.45953125 85.46294922 115.52734375 85.50146484 C116.89717059 85.56714147 118.26696066 85.63358823 119.63671875 85.70068359 C120.31863281 85.72324219 121.00054687 85.74580078 121.703125 85.76904297 C125.90241361 85.99327683 128.36304628 86.43516892 131.38671875 89.38818359 C131.89465332 91.54429626 131.89465332 91.54429626 131.90429688 94.0715332 C131.91690552 95.01939194 131.92951416 95.96725067 131.94250488 96.9438324 C131.93440796 97.96574173 131.92631104 98.98765106 131.91796875 100.04052734 C131.92179565 101.09220596 131.92562256 102.14388458 131.92956543 103.22743225 C131.93228849 105.45249386 131.92489986 107.67758726 131.90820312 109.90258789 C131.88682145 113.30932058 131.90798157 116.71393905 131.93359375 120.12060547 C131.93095013 122.28141742 131.92582444 124.44222805 131.91796875 126.60302734 C131.92606567 127.62291245 131.9341626 128.64279755 131.94250488 129.69358826 C131.84957232 136.70305679 131.84957232 136.70305679 129.59667969 140.0378418 C126.23857807 142.08972647 122.93653904 141.81273364 119.13671875 141.63818359 C118.39164063 141.62013672 117.6465625 141.60208984 116.87890625 141.58349609 C115.04762174 141.53654008 113.21700226 141.46480011 111.38671875 141.38818359 C111.27585937 142.26345703 111.165 143.13873047 111.05078125 144.04052734 C110.19302494 148.36462828 108.34891794 151.80710505 106.34765625 155.70458984 C105.21903547 158.85646984 105.20688963 160.26933096 106.38671875 163.38818359 C108.31652887 165.31383464 110.38615376 166.82526489 112.57421875 168.44677734 C115.02597715 171.07290649 115.21270484 172.82721125 115.38671875 176.38818359 C113.92431641 178.73754883 113.92431641 178.73754883 111.67578125 181.00927734 C110.84336914 181.8689209 110.01095703 182.72856445 109.15332031 183.61425781 C108.2403418 184.52965332 107.32736328 185.44504883 106.38671875 186.38818359 C105.45369918 187.36595496 104.52372546 188.34664104 103.59667969 189.33007812 C101.18127015 191.88662514 98.73256606 194.40751128 96.265625 196.91430664 C95.25319556 197.94859535 94.2470955 198.98911356 93.24707031 200.03540039 C91.77412842 201.57531586 90.28234789 203.09453572 88.78515625 204.61083984 C87.91552246 205.50552979 87.04588867 206.40021973 86.14990234 207.32202148 C82.80670737 209.82188534 80.52725257 210.25903881 76.38671875 210.38818359 C72.18887818 207.88946897 69.39635378 204.17172478 66.38671875 200.38818359 C60.90555476 202.16540949 55.57231251 204.24866825 50.21484375 206.36474609 C47.38671875 207.38818359 47.38671875 207.38818359 45.38671875 207.38818359 C45.42152344 208.50837891 45.45632813 209.62857422 45.4921875 210.78271484 C45.52032714 212.2553561 45.54762712 213.72801357 45.57421875 215.20068359 C45.59935547 215.93867188 45.62449219 216.67666016 45.65039062 217.43701172 C45.72475769 222.91538566 45.72475769 222.91538566 44.16210938 225.10098267 C41.86933128 226.76330196 40.50631141 226.76832914 37.6875 226.77636719 C36.73641357 226.78582367 35.78532715 226.79528015 34.80541992 226.80502319 C33.26785034 226.79591415 33.26785034 226.79591415 31.69921875 226.78662109 C30.64516846 226.78949127 29.59111816 226.79236145 28.50512695 226.7953186 C26.27587344 226.79736072 24.04660208 226.79182058 21.81738281 226.77929688 C18.39998407 226.7632459 14.9837681 226.77914118 11.56640625 226.79833984 C9.40234113 226.79635744 7.23827675 226.79251382 5.07421875 226.78662109 C4.04917236 226.79269379 3.02412598 226.79876648 1.96801758 226.80502319 C0.54138794 226.79083847 0.54138794 226.79083847 -0.9140625 226.77636719 C-1.75106689 226.77398041 -2.58807129 226.77159363 -3.45043945 226.76913452 C-6.14499909 226.29452977 -7.02068361 225.59107551 -8.61328125 223.38818359 C-8.99002643 220.59566776 -9.21520066 218.00039158 -9.30078125 215.20068359 C-9.33494141 214.45109375 -9.36910156 213.70150391 -9.40429688 212.92919922 C-9.48662419 211.08271522 -9.55163406 209.23547366 -9.61328125 207.38818359 C-10.40992188 207.13423828 -11.2065625 206.88029297 -12.02734375 206.61865234 C-21.05951116 203.68484614 -21.05951116 203.68484614 -25.11328125 201.51318359 C-27.50258201 200.09073632 -27.50258201 200.09073632 -29.59375 201.09521484 C-31.78874601 202.50052176 -32.90482407 203.85114905 -34.42578125 205.95068359 C-36.66618695 208.61783323 -37.63135279 209.39554607 -40.98828125 210.76318359 C-49.79733483 209.85190219 -57.26419105 198.89166927 -63.36083984 192.77099609 C-65.00244087 191.12397725 -66.64939593 189.48244557 -68.296875 187.84130859 C-69.3479775 186.78954621 -70.39877026 185.73747417 -71.44921875 184.68505859 C-71.93877045 184.19753113 -72.42832214 183.71000366 -72.93270874 183.20770264 C-78.53077198 177.5708165 -78.53077198 177.5708165 -78.80078125 173.70068359 C-77.1748954 169.16531779 -74.23735166 167.26536887 -70.44921875 164.41552734 C-68.33930416 162.55563692 -68.33930416 162.55563692 -68.6796875 160.05615234 C-70.18084826 155.76622431 -71.85285059 151.5627343 -73.5546875 147.34912109 C-74.61328125 144.38818359 -74.61328125 144.38818359 -74.61328125 141.38818359 C-75.721875 141.43458984 -76.83046875 141.48099609 -77.97265625 141.52880859 C-79.43617093 141.56633461 -80.89971481 141.60273389 -82.36328125 141.63818359 C-83.09289062 141.67169922 -83.8225 141.70521484 -84.57421875 141.73974609 C-87.761435 141.79769548 -90.07874891 141.71863465 -92.82324219 140.02197266 C-95.64329674 135.87266162 -95.18445495 131.76238443 -95.14453125 126.85693359 C-95.14835815 125.82886597 -95.15218506 124.80079834 -95.15612793 123.74157715 C-95.15884799 121.56957011 -95.15148031 119.39753037 -95.13476562 117.22558594 C-95.1133582 113.90013631 -95.13456503 110.57684724 -95.16015625 107.25146484 C-95.15751299 105.14078299 -95.15238806 103.03010248 -95.14453125 100.91943359 C-95.15262817 99.92455933 -95.1607251 98.92968506 -95.16906738 97.90466309 C-95.07617169 91.06926134 -95.07617169 91.06926134 -92.82324219 87.75439453 C-89.46885592 85.68069308 -86.16905327 85.96336014 -82.36328125 86.13818359 C-81.61820313 86.15623047 -80.873125 86.17427734 -80.10546875 86.19287109 C-78.27418424 86.23982711 -76.44356476 86.31156707 -74.61328125 86.38818359 C-74.50242188 85.35048828 -74.3915625 84.31279297 -74.27734375 83.24365234 C-73.47652049 78.5941667 -71.70560388 75.10164243 -69.57421875 70.93896484 C-68.46678349 68.5107624 -68.46678349 68.5107624 -68.71484375 66.26708984 C-69.90083665 63.78681774 -71.43350073 62.67137377 -73.61328125 61.01318359 C-76.20068962 58.80944157 -77.53744696 57.54314932 -79.05078125 54.45068359 C-77.85500441 46.08024568 -66.21153119 37.62847276 -60.36132812 31.67626953 C-59.18878303 30.47686726 -58.02346533 29.27035966 -56.86523438 28.05712891 C-55.17289344 26.28578668 -53.4587372 24.53842812 -51.73828125 22.79443359 C-51.22765137 22.25081177 -50.71702148 21.70718994 -50.19091797 21.14709473 C-47.40101093 18.37232567 -45.84472424 17.41773533 -41.89624023 16.91357422 C-37.5794932 17.53763581 -36.39062653 19.04683556 -33.67578125 22.38818359 C-32.90363281 23.31630859 -32.13148438 24.24443359 -31.3359375 25.20068359 C-30.76746094 25.92255859 -30.19898438 26.64443359 -29.61328125 27.38818359 C-24.36146953 25.70823186 -19.37195637 23.61019817 -14.3203125 21.41162109 C-11.61328125 20.38818359 -11.61328125 20.38818359 -8.61328125 20.38818359 C-8.6596875 19.19580078 -8.70609375 18.00341797 -8.75390625 16.77490234 C-8.79142436 15.20852112 -8.82782448 13.64211284 -8.86328125 12.07568359 C-8.89679688 11.29 -8.9303125 10.50431641 -8.96484375 9.69482422 C-8.98417969 8.55883789 -8.98417969 8.55883789 -9.00390625 7.39990234 C-9.03532715 6.35515747 -9.03532715 6.35515747 -9.06738281 5.28930664 C-8.01728101 0.89299334 -4.03132719 0.01208419 0 0 Z " fill="#D52A6A" transform="translate(237.61328125,175.61181640625)"></path><path d="M0 0 C109.56 0 219.12 0 332 0 C332 16.83 332 33.66 332 51 C222.44 51 112.88 51 0 51 C0 34.17 0 17.34 0 0 Z " fill="#E23675" transform="translate(90,90)"></path><path d="M0 0 C0.9077417 -0.00945648 1.8154834 -0.01891296 2.75073242 -0.02865601 C3.72373291 -0.02258331 4.6967334 -0.01651062 5.69921875 -0.01025391 C7.20802612 -0.01455917 7.20802612 -0.01455917 8.74731445 -0.01895142 C10.87223881 -0.02099128 12.99718197 -0.01546685 15.12207031 -0.00292969 C18.37477604 0.01312465 21.62623917 -0.00278143 24.87890625 -0.02197266 C26.94401316 -0.01999021 29.0091193 -0.01614651 31.07421875 -0.01025391 C32.53371948 -0.01936295 32.53371948 -0.01936295 34.02270508 -0.02865601 C34.93044678 -0.01919952 35.83818848 -0.00974304 36.7734375 0 C37.96779419 0.00358017 37.96779419 0.00358017 39.1862793 0.00723267 C41.94244313 0.48439334 43.34069389 1.51323495 45.38671875 3.38818359 C45.84082031 5.28930664 45.84082031 5.28930664 45.77734375 7.39990234 C45.76445312 8.15722656 45.7515625 8.91455078 45.73828125 9.69482422 C45.68800781 10.87334961 45.68800781 10.87334961 45.63671875 12.07568359 C45.61867188 12.87296875 45.600625 13.67025391 45.58203125 14.49169922 C45.53494122 16.45770808 45.46319774 18.42309853 45.38671875 20.38818359 C46.08796875 20.55833984 46.78921875 20.72849609 47.51171875 20.90380859 C52.22876383 22.10870598 56.58393875 23.3262421 60.88671875 25.63818359 C62.04171875 26.21568359 63.19671875 26.79318359 64.38671875 27.38818359 C67.82304106 26.24274282 68.7214346 25.11703279 71.01171875 22.38818359 C71.62273437 21.66630859 72.23375 20.94443359 72.86328125 20.20068359 C73.36601562 19.60255859 73.86875 19.00443359 74.38671875 18.38818359 C75.38671875 17.38818359 75.38671875 17.38818359 78.47119141 16.90136719 C84.01001382 17.59000741 86.2505684 20.27555264 90.03515625 24.17724609 C90.73315338 24.87328949 91.43115051 25.56933289 92.15029907 26.28646851 C93.61924459 27.75940734 95.07957599 29.24098077 96.53173828 30.73046875 C98.75420996 33.00549724 101.00693435 35.24682849 103.265625 37.48583984 C104.69071629 38.92274599 106.11395816 40.36148919 107.53515625 41.80224609 C108.20799652 42.47123932 108.88083679 43.14023254 109.57406616 43.82949829 C112.40311044 46.76024341 114.18010738 48.74659086 115.44384766 52.67089844 C115.37525674 55.93336389 114.27109371 57.40700353 112.1015625 59.79833984 C109.61611015 62.10262027 107.00434815 64.2352651 104.38671875 66.38818359 C105.12728516 68.06847656 105.12728516 68.06847656 105.8828125 69.78271484 C106.53001743 71.25534055 107.17714902 72.72799848 107.82421875 74.20068359 C108.14970703 74.93867188 108.47519531 75.67666016 108.81054688 76.43701172 C109.12314453 77.14921875 109.43574219 77.86142578 109.7578125 78.59521484 C110.0458374 79.24981689 110.3338623 79.90441895 110.63061523 80.57885742 C111.28865859 82.15352946 111.84703244 83.76912468 112.38671875 85.38818359 C113.423125 85.42556641 114.45953125 85.46294922 115.52734375 85.50146484 C116.89717059 85.56714147 118.26696066 85.63358823 119.63671875 85.70068359 C120.31863281 85.72324219 121.00054687 85.74580078 121.703125 85.76904297 C125.90241361 85.99327683 128.36304628 86.43516892 131.38671875 89.38818359 C131.89465332 91.54429626 131.89465332 91.54429626 131.90429688 94.0715332 C131.91690552 95.01939194 131.92951416 95.96725067 131.94250488 96.9438324 C131.93440796 97.96574173 131.92631104 98.98765106 131.91796875 100.04052734 C131.92179565 101.09220596 131.92562256 102.14388458 131.92956543 103.22743225 C131.93228849 105.45249386 131.92489986 107.67758726 131.90820312 109.90258789 C131.88682145 113.30932058 131.90798157 116.71393905 131.93359375 120.12060547 C131.93095013 122.28141742 131.92582444 124.44222805 131.91796875 126.60302734 C131.92606567 127.62291245 131.9341626 128.64279755 131.94250488 129.69358826 C131.84957232 136.70305679 131.84957232 136.70305679 129.59667969 140.0378418 C126.23857807 142.08972647 122.93653904 141.81273364 119.13671875 141.63818359 C118.39164063 141.62013672 117.6465625 141.60208984 116.87890625 141.58349609 C115.04762174 141.53654008 113.21700226 141.46480011 111.38671875 141.38818359 C111.27585937 142.26345703 111.165 143.13873047 111.05078125 144.04052734 C110.19302494 148.36462828 108.34891794 151.80710505 106.34765625 155.70458984 C105.21903547 158.85646984 105.20688963 160.26933096 106.38671875 163.38818359 C108.31652887 165.31383464 110.38615376 166.82526489 112.57421875 168.44677734 C115.02597715 171.07290649 115.21270484 172.82721125 115.38671875 176.38818359 C113.92431641 178.73754883 113.92431641 178.73754883 111.67578125 181.00927734 C110.84336914 181.8689209 110.01095703 182.72856445 109.15332031 183.61425781 C108.2403418 184.52965332 107.32736328 185.44504883 106.38671875 186.38818359 C105.45369918 187.36595496 104.52372546 188.34664104 103.59667969 189.33007812 C101.18127015 191.88662514 98.73256606 194.40751128 96.265625 196.91430664 C95.25319556 197.94859535 94.2470955 198.98911356 93.24707031 200.03540039 C91.77412842 201.57531586 90.28234789 203.09453572 88.78515625 204.61083984 C87.91552246 205.50552979 87.04588867 206.40021973 86.14990234 207.32202148 C82.80670737 209.82188534 80.52725257 210.25903881 76.38671875 210.38818359 C72.18887818 207.88946897 69.39635378 204.17172478 66.38671875 200.38818359 C60.90555476 202.16540949 55.57231251 204.24866825 50.21484375 206.36474609 C47.38671875 207.38818359 47.38671875 207.38818359 45.38671875 207.38818359 C45.42152344 208.50837891 45.45632813 209.62857422 45.4921875 210.78271484 C45.52032714 212.2553561 45.54762712 213.72801357 45.57421875 215.20068359 C45.59935547 215.93867188 45.62449219 216.67666016 45.65039062 217.43701172 C45.72475769 222.91538566 45.72475769 222.91538566 44.16210938 225.10098267 C41.86933128 226.76330196 40.50631141 226.76832914 37.6875 226.77636719 C36.73641357 226.78582367 35.78532715 226.79528015 34.80541992 226.80502319 C33.26785034 226.79591415 33.26785034 226.79591415 31.69921875 226.78662109 C30.64516846 226.78949127 29.59111816 226.79236145 28.50512695 226.7953186 C26.27587344 226.79736072 24.04660208 226.79182058 21.81738281 226.77929688 C18.39998407 226.7632459 14.9837681 226.77914118 11.56640625 226.79833984 C9.40234113 226.79635744 7.23827675 226.79251382 5.07421875 226.78662109 C4.04917236 226.79269379 3.02412598 226.79876648 1.96801758 226.80502319 C0.54138794 226.79083847 0.54138794 226.79083847 -0.9140625 226.77636719 C-1.75106689 226.77398041 -2.58807129 226.77159363 -3.45043945 226.76913452 C-6.14499909 226.29452977 -7.02068361 225.59107551 -8.61328125 223.38818359 C-8.99002643 220.59566776 -9.21520066 218.00039158 -9.30078125 215.20068359 C-9.33494141 214.45109375 -9.36910156 213.70150391 -9.40429688 212.92919922 C-9.48662419 211.08271522 -9.55163406 209.23547366 -9.61328125 207.38818359 C-10.40992188 207.13423828 -11.2065625 206.88029297 -12.02734375 206.61865234 C-21.05951116 203.68484614 -21.05951116 203.68484614 -25.11328125 201.51318359 C-27.50258201 200.09073632 -27.50258201 200.09073632 -29.59375 201.09521484 C-31.78874601 202.50052176 -32.90482407 203.85114905 -34.42578125 205.95068359 C-36.66618695 208.61783323 -37.63135279 209.39554607 -40.98828125 210.76318359 C-49.79733483 209.85190219 -57.26419105 198.89166927 -63.36083984 192.77099609 C-65.00244087 191.12397725 -66.64939593 189.48244557 -68.296875 187.84130859 C-69.3479775 186.78954621 -70.39877026 185.73747417 -71.44921875 184.68505859 C-71.93877045 184.19753113 -72.42832214 183.71000366 -72.93270874 183.20770264 C-78.53077198 177.5708165 -78.53077198 177.5708165 -78.80078125 173.70068359 C-77.1748954 169.16531779 -74.23735166 167.26536887 -70.44921875 164.41552734 C-68.33930416 162.55563692 -68.33930416 162.55563692 -68.6796875 160.05615234 C-70.18084826 155.76622431 -71.85285059 151.5627343 -73.5546875 147.34912109 C-74.61328125 144.38818359 -74.61328125 144.38818359 -74.61328125 141.38818359 C-75.721875 141.43458984 -76.83046875 141.48099609 -77.97265625 141.52880859 C-79.43617093 141.56633461 -80.89971481 141.60273389 -82.36328125 141.63818359 C-83.09289062 141.67169922 -83.8225 141.70521484 -84.57421875 141.73974609 C-87.761435 141.79769548 -90.07874891 141.71863465 -92.82324219 140.02197266 C-95.64329674 135.87266162 -95.18445495 131.76238443 -95.14453125 126.85693359 C-95.14835815 125.82886597 -95.15218506 124.80079834 -95.15612793 123.74157715 C-95.15884799 121.56957011 -95.15148031 119.39753037 -95.13476562 117.22558594 C-95.1133582 113.90013631 -95.13456503 110.57684724 -95.16015625 107.25146484 C-95.15751299 105.14078299 -95.15238806 103.03010248 -95.14453125 100.91943359 C-95.15262817 99.92455933 -95.1607251 98.92968506 -95.16906738 97.90466309 C-95.07617169 91.06926134 -95.07617169 91.06926134 -92.82324219 87.75439453 C-89.46885592 85.68069308 -86.16905327 85.96336014 -82.36328125 86.13818359 C-81.61820313 86.15623047 -80.873125 86.17427734 -80.10546875 86.19287109 C-78.27418424 86.23982711 -76.44356476 86.31156707 -74.61328125 86.38818359 C-74.50242188 85.35048828 -74.3915625 84.31279297 -74.27734375 83.24365234 C-73.47652049 78.5941667 -71.70560388 75.10164243 -69.57421875 70.93896484 C-68.46678349 68.5107624 -68.46678349 68.5107624 -68.71484375 66.26708984 C-69.90083665 63.78681774 -71.43350073 62.67137377 -73.61328125 61.01318359 C-76.20068962 58.80944157 -77.53744696 57.54314932 -79.05078125 54.45068359 C-77.85500441 46.08024568 -66.21153119 37.62847276 -60.36132812 31.67626953 C-59.18878303 30.47686726 -58.02346533 29.27035966 -56.86523438 28.05712891 C-55.17289344 26.28578668 -53.4587372 24.53842812 -51.73828125 22.79443359 C-51.22765137 22.25081177 -50.71702148 21.70718994 -50.19091797 21.14709473 C-47.40101093 18.37232567 -45.84472424 17.41773533 -41.89624023 16.91357422 C-37.5794932 17.53763581 -36.39062653 19.04683556 -33.67578125 22.38818359 C-32.90363281 23.31630859 -32.13148438 24.24443359 -31.3359375 25.20068359 C-30.76746094 25.92255859 -30.19898438 26.64443359 -29.61328125 27.38818359 C-24.36146953 25.70823186 -19.37195637 23.61019817 -14.3203125 21.41162109 C-11.61328125 20.38818359 -11.61328125 20.38818359 -8.61328125 20.38818359 C-8.6596875 19.19580078 -8.70609375 18.00341797 -8.75390625 16.77490234 C-8.79142436 15.20852112 -8.82782448 13.64211284 -8.86328125 12.07568359 C-8.89679688 11.29 -8.9303125 10.50431641 -8.96484375 9.69482422 C-8.98417969 8.55883789 -8.98417969 8.55883789 -9.00390625 7.39990234 C-9.03532715 6.35515747 -9.03532715 6.35515747 -9.06738281 5.28930664 C-8.01728101 0.89299334 -4.03132719 0.01208419 0 0 Z M4.38671875 13.38818359 C4.28359375 15.63630859 4.18046875 17.88443359 4.07421875 20.20068359 C3.77208668 26.78716275 3.77208668 26.78716275 2.20703125 29.22802734 C-0.24448872 30.79047677 -2.61332615 31.40299188 -5.42578125 32.13818359 C-12.30071107 34.12564924 -22.43294356 37.2078459 -27.61328125 42.38818359 C-29.875 42.73193359 -29.875 42.73193359 -32.61328125 42.38818359 C-35.0703125 40.41943359 -35.0703125 40.41943359 -37.42578125 37.88818359 C-38.21597656 37.05287109 -39.00617188 36.21755859 -39.8203125 35.35693359 C-40.41199219 34.70724609 -41.00367188 34.05755859 -41.61328125 33.38818359 C-44.97663719 34.84563783 -47.1586213 36.69936213 -49.72265625 39.30224609 C-50.85380859 40.44306641 -50.85380859 40.44306641 -52.0078125 41.60693359 C-53.17376953 42.79802734 -53.17376953 42.79802734 -54.36328125 44.01318359 C-55.15605469 44.81498047 -55.94882813 45.61677734 -56.765625 46.44287109 C-58.71942618 48.42021205 -60.66840228 50.40207268 -62.61328125 52.38818359 C-61.67737621 53.49370249 -60.73948267 54.59753813 -59.80078125 55.70068359 C-59.27871094 56.31556641 -58.75664062 56.93044922 -58.21875 57.56396484 C-56.65749359 59.39813388 -56.65749359 59.39813388 -54.94042969 60.94897461 C-53.61328125 62.38818359 -53.61328125 62.38818359 -53.19140625 65.10302734 C-53.72169934 69.23243931 -55.38095962 72.36397911 -57.36328125 75.95068359 C-60.67389504 82.20406519 -63.05018559 88.16879812 -64.921875 95.00927734 C-65.61328125 97.38818359 -65.61328125 97.38818359 -66.61328125 98.38818359 C-69.14121519 98.62490342 -71.64263091 98.8096161 -74.17578125 98.95068359 C-77.85734375 99.16724609 -77.85734375 99.16724609 -81.61328125 99.38818359 C-81.61328125 108.95818359 -81.61328125 118.52818359 -81.61328125 128.38818359 C-77.32328125 128.38818359 -73.03328125 128.38818359 -68.61328125 128.38818359 C-64.63192678 132.36953806 -63.59977676 134.79865394 -62.23828125 139.95068359 C-60.47184246 146.17527744 -58.23976059 151.45575018 -54.75 156.95849609 C-53.31473536 160.02631261 -53.18039867 162.03669066 -53.61328125 165.38818359 C-55.07421875 167.47021484 -55.07421875 167.47021484 -56.98828125 169.20068359 C-57.61476563 169.78462891 -58.24125 170.36857422 -58.88671875 170.97021484 C-60.61328125 172.38818359 -60.61328125 172.38818359 -62.61328125 173.38818359 C-61.15582701 176.75153953 -59.30210271 178.93352364 -56.69921875 181.49755859 C-55.93867188 182.25166016 -55.178125 183.00576172 -54.39453125 183.78271484 C-53.60046875 184.56001953 -52.80640625 185.33732422 -51.98828125 186.13818359 C-51.18648437 186.93095703 -50.3846875 187.72373047 -49.55859375 188.54052734 C-47.58125279 190.49432853 -45.59939216 192.44330462 -43.61328125 194.38818359 C-40.43335002 193.00240304 -39.50185378 192.24061749 -37.30078125 189.32568359 C-34.61328125 186.38818359 -34.61328125 186.38818359 -31.3828125 185.47802734 C-26.88616415 185.37085334 -24.31131347 186.72347451 -20.61328125 189.01318359 C-14.08765154 192.79592936 -7.66661457 195.2787288 -0.46484375 197.47802734 C2.38671875 198.38818359 2.38671875 198.38818359 3.38671875 199.38818359 C3.62343858 201.91611753 3.80815125 204.41753326 3.94921875 206.95068359 C4.16578125 210.63224609 4.16578125 210.63224609 4.38671875 214.38818359 C13.62671875 214.38818359 22.86671875 214.38818359 32.38671875 214.38818359 C32.63604616 209.54223947 32.63604616 209.54223947 32.86474609 204.6953125 C33.16449653 199.61040582 33.16449653 199.61040582 35.38671875 197.38818359 C37.24628707 196.79570284 39.12540133 196.26401725 41.01171875 195.76318359 C47.39257679 193.91273476 52.97973971 191.24148013 58.74072266 187.94238281 C62.19081554 186.06857251 64.08733836 185.38692964 68.1171875 185.40380859 C71.76047277 186.50071169 73.01769822 187.48515719 75.32421875 190.45068359 C75.91074219 191.18416016 76.49726563 191.91763672 77.1015625 192.67333984 C77.52566406 193.23923828 77.94976562 193.80513672 78.38671875 194.38818359 C83.43017643 192.15241677 86.83037763 188.35145441 90.69921875 184.51318359 C91.45267578 183.79259766 92.20613281 183.07201172 92.98242188 182.32958984 C93.68947266 181.62962891 94.39652344 180.92966797 95.125 180.20849609 C95.77509033 179.57186035 96.42518066 178.93522461 97.0949707 178.27929688 C98.62260713 176.47369401 98.62260713 176.47369401 98.19238281 174.25634766 C96.87147478 171.19344213 94.38296651 169.48761328 91.8828125 167.36474609 C89.74292436 164.53763539 89.93283256 162.86940503 90.38671875 159.38818359 C91.7421875 156.26708984 91.7421875 156.26708984 93.57421875 152.95068359 C96.96696735 146.60790606 99.2547265 140.2456598 101.34375 133.37255859 C102.38671875 130.38818359 102.38671875 130.38818359 104.38671875 128.38818359 C109.04339019 127.79632847 113.69603941 127.64403883 118.38671875 127.38818359 C118.38671875 118.14818359 118.38671875 108.90818359 118.38671875 99.38818359 C113.54087703 99.17836102 113.54087703 99.17836102 108.69384766 99.00024414 C106.9157482 98.9027783 105.14850502 98.6475027 103.38671875 98.38818359 C101.23907347 95.16671567 100.62767859 92.75223001 99.69921875 89.01318359 C97.8997106 82.40358333 95.3455485 77.2027267 91.77734375 71.32568359 C90.21502968 68.02551455 89.94154283 65.99512028 90.38671875 62.38818359 C92.63671875 59.82568359 92.63671875 59.82568359 95.38671875 57.38818359 C96.70671875 55.73818359 98.02671875 54.08818359 99.38671875 52.38818359 C93.11671875 46.11818359 86.84671875 39.84818359 80.38671875 33.38818359 C76.222485 35.47030047 74.26752004 37.51441878 71.265625 40.92724609 C69.38671875 42.38818359 69.38671875 42.38818359 67.09765625 42.83349609 C63.42131578 42.22960155 60.60776791 40.50615162 57.44921875 38.63818359 C51.11766405 35.04255396 45.23647859 32.92400367 38.1171875 31.27490234 C35.38671875 30.38818359 35.38671875 30.38818359 33.38671875 27.38818359 C32.81179187 22.7291063 32.64493895 18.07918394 32.38671875 13.38818359 C23.14671875 13.38818359 13.90671875 13.38818359 4.38671875 13.38818359 Z " fill="#FEFAFC" transform="translate(237.61328125,175.61181640625)"></path><path d="M0 0 C7.82390764 6.71949274 13.43663318 14.11002685 14.5 24.609375 C14.69230559 36.07983783 12.89203222 44.79803816 5.31640625 53.8828125 C-2.38779596 61.83136441 -10.79189692 65.14604834 -21.74609375 66.3828125 C-32.85828541 65.83518909 -42.15861932 61.10607528 -49.61328125 53.06640625 C-57.53394781 43.31334668 -59.05204056 33.15257319 -57.87109375 20.9453125 C-55.9898443 11.70102711 -49.76541031 4.60659413 -42.34375 -0.9453125 C-28.79303389 -9.5476161 -13.30062371 -9.5185416 0 0 Z " fill="#D42A6A" transform="translate(277.87109375,260.0546875)"></path><path d="M0 0 C2.27151241 1.68274247 4.36431422 3.46107882 6.4609375 5.35546875 C7.07453125 5.85433594 7.688125 6.35320312 8.3203125 6.8671875 C15.78384135 13.42254359 21.06547396 24.58722399 22.4609375 34.35546875 C23.36291802 49.84948976 20.46779558 62.7152721 10.1484375 74.73046875 C0.82488001 84.4593983 -10.87601488 90.32277534 -24.39331055 90.69873047 C-33.81341951 90.81173353 -41.21293827 90.22304907 -49.5390625 85.35546875 C-50.35632813 84.88625 -51.17359375 84.41703125 -52.015625 83.93359375 C-63.292468 76.91856767 -70.59455146 67.01942523 -74.5390625 54.35546875 C-77.42833534 40.95974923 -75.48429915 28.05917519 -68.8515625 16.10546875 C-61.85493437 5.34008332 -51.46854752 -3.38700097 -38.74584961 -6.27612305 C-25.17734602 -8.54129308 -11.68449097 -7.56795492 0 0 Z M-56.80859375 20.9609375 C-63.09809639 29.66401903 -63.69328842 38.9674355 -62.5390625 49.35546875 C-60.02978852 59.35787425 -54.19845972 67.37999874 -45.7265625 73.23046875 C-36.23061335 78.62207839 -26.48866633 79.58533038 -16.1015625 76.79296875 C-5.50312323 73.2969558 1.21309325 66.69987236 6.71484375 57.1875 C10.57583158 49.1561072 11.02877353 39.12286558 8.6953125 30.5390625 C7.76043844 28.34656023 6.71541125 26.3792365 5.4609375 24.35546875 C4.9040625 23.34484375 4.3471875 22.33421875 3.7734375 21.29296875 C-3.3306859 12.268812 -11.90710015 6.55403228 -23.46484375 4.94921875 C-37.18367013 4.48351602 -48.16638465 10.55923673 -56.80859375 20.9609375 Z " fill="#FEFBFC" transform="translate(282.5390625,247.64453125)"></path><path d="M0 0 C6.6 0 13.2 0 20 0 C20 4.29 20 8.58 20 13 C13.4 13 6.8 13 0 13 C0 8.71 0 4.42 0 0 Z " fill="#FCF0F4" transform="translate(166,109)"></path><path d="M0 0 C6.6 0 13.2 0 20 0 C20 4.29 20 8.58 20 13 C13.4 13 6.8 13 0 13 C0 8.71 0 4.42 0 0 Z " fill="#FCF0F4" transform="translate(134,109)"></path><path d="M0 0 C6.6 0 13.2 0 20 0 C20 4.29 20 8.58 20 13 C13.4 13 6.8 13 0 13 C0 8.71 0 4.42 0 0 Z " fill="#FCF0F4" transform="translate(102,109)"></path></svg>