<svg version="1.1" xmlns="http://www.w3.org/2000/svg" width="16px" height="16px" fill="currentColor" viewBox="0 0 512 512"><path d="M0 0 C168.96 0 337.92 0 512 0 C512 168.96 512 337.92 512 512 C343.04 512 174.08 512 0 512 C0 343.04 0 174.08 0 0 Z " fill="#222E3E" transform="translate(0,0)"></path><path d="M0 0 C4.7943781 1.52707392 8.99541941 4.39055904 13.26660156 6.99462891 C15.40180456 8.26321778 17.53722569 9.53143956 19.67285156 10.79931641 C22.8554169 12.70637519 26.03517767 14.61791576 29.21191406 16.53466797 C32.05512937 18.24416055 34.90972605 19.93309813 37.76660156 21.61962891 C39.05268311 22.40817261 39.05268311 22.40817261 40.36474609 23.21264648 C41.17024902 23.68597412 41.97575195 24.15930176 42.80566406 24.64697266 C43.50127441 25.0658374 44.19688477 25.48470215 44.91357422 25.91625977 C48.9558 27.30574719 52.15778471 26.15011698 55.90795898 24.36621094 C57.31331909 23.53645752 57.31331909 23.53645752 58.74707031 22.68994141 C59.80442383 22.07183594 60.86177734 21.45373047 61.95117188 20.81689453 C63.62324707 19.82206055 63.62324707 19.82206055 65.32910156 18.80712891 C66.48958361 18.12828083 67.65072302 17.45055533 68.8125 16.77392578 C74.19320243 13.63375671 79.54352979 10.44657104 84.86425781 7.20556641 C85.72059814 6.69106934 86.57693848 6.17657227 87.45922852 5.64648438 C89.04101427 4.69420585 90.61438371 3.72775576 92.17749023 2.74511719 C92.88236572 2.32214355 93.58724121 1.89916992 94.31347656 1.46337891 C95.21211426 0.9074707 95.21211426 0.9074707 96.12890625 0.34033203 C100.082194 -0.95249473 103.37588752 0.31932971 107.01220703 2.04223633 C108.0010791 2.61820557 108.98995117 3.1941748 110.00878906 3.78759766 C111.1310791 4.43510986 112.25336914 5.08262207 113.40966797 5.74975586 C114.61218252 6.45603409 115.8144893 7.16266618 117.01660156 7.86962891 C118.25625331 8.5906475 119.49633034 9.31093535 120.73681641 10.03051758 C123.28141669 11.50832749 125.8228307 12.99142748 128.36230469 14.47802734 C131.40731647 16.25802878 134.46321686 18.01792735 137.52597046 19.76719666 C140.27583854 21.33779579 143.02076084 22.91700252 145.76660156 24.49462891 C146.7847998 25.0743042 147.80299805 25.65397949 148.85205078 26.2512207 C149.78549316 26.79174072 150.71893555 27.33226074 151.68066406 27.88916016 C152.49744629 28.35813721 153.31422852 28.82711426 154.15576172 29.31030273 C156.14160156 30.68212891 156.14160156 30.68212891 158.14160156 33.68212891 C158.41575623 36.40097046 158.41575623 36.40097046 158.44799805 39.7265625 C158.46398544 40.97150482 158.47997284 42.21644714 158.4964447 43.49911499 C158.50282146 44.85959464 158.50821419 46.2200792 158.51269531 47.58056641 C158.52166327 48.97677711 158.53078514 50.37298682 158.54005432 51.76919556 C158.55654246 54.69625177 158.56424402 57.62319363 158.56713867 60.55029297 C158.57252124 64.29544614 158.61019443 68.03952002 158.65588284 71.78436852 C158.68567238 74.66864922 158.69286262 77.55267067 158.69386482 80.43709183 C158.69806379 81.81738857 158.71048549 83.19768633 158.73138237 84.57783127 C158.7583263 86.51133784 158.75035929 88.44523476 158.7409668 90.37890625 C158.74603745 91.47794281 158.75110809 92.57697937 158.7563324 93.70932007 C157.76914176 98.48332664 154.59520809 100.69078207 150.70410156 103.34448242 C149.85847656 103.82844482 149.01285156 104.31240723 148.14160156 104.81103516 C147.18141113 105.36581543 146.2212207 105.9205957 145.23193359 106.4921875 C143.70221924 107.359646 143.70221924 107.359646 142.14160156 108.24462891 C141.08956543 108.84871582 140.0375293 109.45280273 138.95361328 110.07519531 C136.77175287 111.32687869 134.58797356 112.57522276 132.40234375 113.8203125 C129.24761762 115.62159593 126.10335249 117.43982208 122.96191406 119.26416016 C121.06368248 120.36217247 119.1652542 121.45984482 117.26660156 122.55712891 C116.37585938 123.07476807 115.48511719 123.59240723 114.56738281 124.12573242 C113.74882812 124.59551514 112.93027344 125.06529785 112.08691406 125.54931641 C111.37035645 125.96294434 110.65379883 126.37657227 109.91552734 126.80273438 C108.14160156 127.68212891 108.14160156 127.68212891 106.14160156 127.68212891 C106.16158707 128.42048981 106.18157257 129.15885071 106.2021637 129.91958618 C106.38282025 136.89270801 106.51967988 143.86547847 106.60791111 150.84034157 C106.65480176 154.42615536 106.71833844 158.01002941 106.82055664 161.59472656 C106.91867026 165.0573248 106.97222032 168.51806374 106.99549675 171.98194504 C107.02011633 173.94005525 107.09033165 175.89742096 107.16127014 177.85440063 C107.16618686 186.53951652 107.16618686 186.53951652 104.30331421 189.73217773 C101.9837057 191.30794309 99.68838788 192.51524321 97.14160156 193.68212891 C95.49708008 194.66777832 95.49708008 194.66777832 93.81933594 195.67333984 C92.80162109 196.24858398 91.78390625 196.82382812 90.73535156 197.41650391 C90.1720816 197.73653381 89.60881165 198.05656372 89.0284729 198.3862915 C87.23466812 199.40482164 85.4383428 200.41878922 83.64160156 201.43212891 C81.14833552 202.84168928 78.6562129 204.25324929 76.16503906 205.66650391 C75.2528511 206.18367981 75.2528511 206.18367981 74.32223511 206.71130371 C70.76204083 208.73714081 67.23801787 210.81133809 63.74316406 212.94775391 C62.97166016 213.41729492 62.20015625 213.88683594 61.40527344 214.37060547 C60.02731301 215.21562869 58.65562684 216.07101341 57.29199219 216.93896484 C53.31687423 219.36773222 50.76234853 220.10563786 46.14160156 219.68212891 C43.27099609 218.43554688 43.27099609 218.43554688 40.27441406 216.67431641 C39.15220459 216.02366211 38.02999512 215.37300781 36.8737793 214.70263672 C35.67113332 213.98789365 34.46874629 213.27271471 33.26660156 212.55712891 C32.02643542 211.83045323 30.785623 211.10487945 29.54418945 210.38037109 C26.99798116 208.89233609 24.45603691 207.39734454 21.91650391 205.89794922 C18.31900433 203.77892 14.69681171 201.70694951 11.06738281 199.64306641 C8.9045528 198.40620893 6.7417891 197.16923549 4.57910156 195.93212891 C3.56928223 195.36091309 2.55946289 194.78969727 1.51904297 194.20117188 C0.58882324 193.66379395 -0.34139648 193.12641602 -1.29980469 192.57275391 C-2.1113501 192.10901367 -2.92289551 191.64527344 -3.7590332 191.16748047 C-6.11795924 189.49848338 -7.34732608 188.14788052 -8.85839844 185.68212891 C-9.21916199 182.99920654 -9.21916199 182.99920654 -9.19897461 179.90380859 C-9.19863472 178.16245636 -9.19863472 178.16245636 -9.19828796 176.38592529 C-9.18280411 175.13789124 -9.16732025 173.88985718 -9.15136719 172.60400391 C-9.14712234 171.32229309 -9.1428775 170.04058228 -9.13850403 168.72003174 C-9.12707492 165.32013256 -9.0976251 161.92062067 -9.06439209 158.52087402 C-9.03364907 155.04863727 -9.0199897 151.57633766 -9.00488281 148.10400391 C-8.97275302 141.29655361 -8.92158047 134.48935988 -8.85839844 127.68212891 C-9.62802917 127.38193848 -10.39765991 127.08174805 -11.19061279 126.77246094 C-14.10430403 125.58162655 -16.71445323 124.13727091 -19.43652344 122.55712891 C-20.50765381 121.93749268 -21.57878418 121.31785645 -22.68237305 120.67944336 C-23.81296143 120.02032959 -24.9435498 119.36121582 -26.10839844 118.68212891 C-27.27701922 118.0025473 -28.4457209 117.32310477 -29.61450195 116.64379883 C-31.36930051 115.6234503 -33.12375547 114.60253214 -34.87721252 113.57987976 C-38.32286499 111.57074466 -41.77873787 109.58103919 -45.24511719 107.60791016 C-46.76211371 106.73693735 -48.27904645 105.86585341 -49.79589844 104.99462891 C-50.48006836 104.60984375 -51.16423828 104.22505859 -51.86914062 103.82861328 C-55.3424632 101.81670418 -57.81098638 100.14922158 -59.85839844 96.68212891 C-60.25280762 93.84303284 -60.25280762 93.84303284 -60.27832031 90.52416992 C-60.29423218 89.27930313 -60.31014404 88.03443634 -60.32653809 86.75184631 C-60.32780536 85.3965765 -60.3279822 84.0413053 -60.32714844 82.68603516 C-60.33425228 81.29125157 -60.34195161 79.8964709 -60.35021973 78.50169373 C-60.363656 75.58055495 -60.36523729 72.65968639 -60.359375 69.73852539 C-60.35347919 66.00119246 -60.3840667 62.26515878 -60.42449188 58.52807713 C-60.4503841 55.6480566 -60.45324504 52.76834833 -60.44960022 49.88822746 C-60.45129007 48.51073885 -60.46091986 47.1332356 -60.47874451 45.75586128 C-60.60551459 34.7489734 -60.60551459 34.7489734 -57.61352539 30.4765625 C-56.7043335 29.88439941 -55.7951416 29.29223633 -54.85839844 28.68212891 C-54.10002686 28.17431885 -53.34165527 27.66650879 -52.56030273 27.14331055 C-51.7756665 26.71397217 -50.99103027 26.28463379 -50.18261719 25.84228516 C-49.28317383 25.34317627 -48.38373047 24.84406738 -47.45703125 24.32983398 C-46.49635742 23.80671631 -45.53568359 23.28359863 -44.54589844 22.74462891 C-42.4916443 21.6055692 -40.4382893 20.46488675 -38.38574219 19.32275391 C-37.32081543 18.73171875 -36.25588867 18.14068359 -35.15869141 17.53173828 C-29.60364001 14.41847675 -24.10547743 11.20882746 -18.60839844 7.99462891 C-17.57932373 7.39465088 -16.55024902 6.79467285 -15.48999023 6.17651367 C-3.76079036 -0.67993358 -3.76079036 -0.67993358 0 0 Z " fill="#FBFBFB" transform="translate(174.8583984375,99.31787109375)"></path><path d="M0 0 C1.62215675 0.00333092 1.62215675 0.00333092 3.27708435 0.00672913 C4.49827469 0.00680466 5.71946503 0.00688019 6.97766113 0.00695801 C8.32022644 0.0120654 9.66279134 0.01728141 11.00535583 0.02259827 C12.37156116 0.02446252 13.73776716 0.02588639 15.10397339 0.02688599 C18.70596654 0.03071058 22.30791959 0.04054035 25.90989685 0.05158997 C29.58298703 0.06180536 33.25608368 0.06638388 36.92918396 0.07142639 C44.14079293 0.08216268 51.35236054 0.09975899 58.56394958 0.12025452 C58.56394958 4.41025452 58.56394958 8.70025452 58.56394958 13.12025452 C41.07394958 13.12025452 23.58394958 13.12025452 5.56394958 13.12025452 C4.90394958 17.41025452 4.24394958 21.70025452 3.56394958 26.12025452 C3.17067116 28.33386881 2.76398032 30.54525393 2.33055115 32.75135803 C2.10981934 33.88126663 1.88908752 35.01117523 1.66166687 36.17532349 C1.42832642 37.35468979 1.19498596 38.53405609 0.95457458 39.74916077 C0.70528198 41.01831833 0.45598938 42.28747589 0.19914246 43.59509277 C-0.32694762 46.27203546 -0.85491014 48.9485997 -1.3842926 51.62489319 C-2.04418964 54.96164033 -2.69965311 58.29923881 -3.35376072 61.63712502 C-6.22047072 76.2557176 -9.20501638 90.84292987 -12.36444092 105.40164185 C-13.79871496 112.04214924 -15.1505265 118.68839853 -16.37745667 125.37025452 C-16.58611862 126.49046242 -16.58611862 126.49046242 -16.79899597 127.63330078 C-17.34298618 130.55470336 -17.88584676 133.47574128 -18.39772034 136.40296936 C-18.78906861 138.62510784 -19.20581778 140.84119298 -19.62745667 143.05775452 C-19.97079041 144.95847717 -19.97079041 144.95847717 -20.32106018 146.89759827 C-21.65277229 150.74664576 -22.97320972 152.0408825 -26.43605042 154.12025452 C-28.47242737 154.57435608 -28.47242737 154.57435608 -30.42433167 154.51087952 C-31.13009338 154.49798889 -31.8358551 154.48509827 -32.56300354 154.47181702 C-33.64484924 154.42154358 -33.64484924 154.42154358 -34.74855042 154.37025452 C-35.48911682 154.35220764 -36.22968323 154.33416077 -36.99269104 154.31556702 C-38.80770751 154.26872788 -40.62205207 154.1969924 -42.43605042 154.12025452 C-42.71190979 154.8356842 -42.98776917 155.55111389 -43.27198792 156.28822327 C-44.41853564 159.07764307 -45.69832156 161.7431581 -47.06105042 164.43275452 C-47.50706604 165.31576233 -47.95308167 166.19877014 -48.41261292 167.10853577 C-48.75034729 167.77240295 -49.08808167 168.43627014 -49.43605042 169.12025452 C-48.61105042 169.28525452 -47.78605042 169.45025452 -46.93605042 169.62025452 C-40.69538034 172.2948274 -36.09480292 177.25258575 -32.93605042 183.24525452 C-30.19282592 190.42459431 -30.14732588 198.20854294 -32.54151917 205.47572327 C-36.38142106 213.762911 -40.88080733 218.67062172 -49.12355042 222.49525452 C-57.45439246 225.46965501 -64.76734694 225.27099882 -72.81105042 221.55775452 C-80.512278 217.24466492 -84.74191726 212.16199297 -87.74073792 203.85853577 C-89.69614612 196.15774276 -89.1389417 188.66115794 -85.81886292 181.44056702 C-81.25176428 173.77713032 -74.99888534 169.43206785 -66.43605042 167.12025452 C-65.44605042 167.12025452 -64.45605042 167.12025452 -63.43605042 167.12025452 C-63.18855042 166.27462952 -62.94105042 165.42900452 -62.68605042 164.55775452 C-61.29686076 160.73748295 -59.48608971 157.62448836 -57.43605042 154.12025452 C-58.32911266 154.1230199 -59.22217491 154.12578527 -60.14229965 154.12863445 C-81.85789575 154.19484556 -103.57347449 154.24451135 -125.28915024 154.27569103 C-135.79062776 154.2911695 -146.29203797 154.31227774 -156.79347229 154.34657288 C-165.94496939 154.37644524 -175.09641774 154.39582239 -184.24796224 154.40252 C-189.0950494 154.40643593 -193.94199709 154.41565923 -198.78903961 154.43744469 C-203.34933465 154.45777567 -207.90943248 154.46409519 -212.46976852 154.45957756 C-214.14515885 154.46040428 -215.82055564 154.46639011 -217.49590683 154.47787094 C-219.78062142 154.49276233 -222.06458813 154.48922081 -224.34931946 154.48101807 C-225.62876812 154.48378345 -226.90821678 154.48654882 -228.22643661 154.489398 C-231.64876551 154.09578977 -233.02600096 153.52888771 -235.43605042 151.12025452 C-236.28083801 149.01657104 -236.28083801 149.01657104 -236.77296448 146.54920959 C-236.96733597 145.61606934 -237.16170746 144.68292908 -237.36196899 143.72151184 C-237.55657211 142.70454224 -237.75117523 141.68757263 -237.95167542 140.63978577 C-238.16879684 139.57487915 -238.38591827 138.50997253 -238.60961914 137.41279602 C-239.31734654 133.92238197 -240.00195658 130.4278705 -240.68605042 126.93275452 C-241.1675058 124.53135571 -241.65034347 122.13023364 -242.13453674 119.72938538 C-243.11232045 114.86851025 -244.08086616 110.00593131 -245.04200745 105.14173889 C-246.3112319 98.72777704 -247.61559065 92.32151726 -248.93214417 85.91712952 C-249.48870454 83.19540993 -250.04431329 80.47349894 -250.59925842 77.75144958 C-250.94672881 76.04906715 -251.29542838 74.3469351 -251.645401 72.64506531 C-252.12705755 70.29548919 -252.60101479 67.94449218 -253.07276917 65.59291077 C-253.21282883 64.91713989 -253.35288849 64.24136902 -253.49719238 63.54512024 C-254.28771609 59.55561847 -254.43605042 56.27915027 -254.43605042 52.12025452 C-250.47605042 51.46025452 -246.51605042 50.80025452 -242.43605042 50.12025452 C-238.42184648 68.61818888 -234.56173862 87.14049989 -230.85646057 105.70252991 C-230.18064957 109.08753508 -229.50032388 112.47161731 -228.81899452 115.85551548 C-228.16005764 119.13203622 -227.50530803 122.40938974 -226.85011292 125.68666077 C-226.60644989 126.89576614 -226.36278687 128.10487152 -226.11174011 129.35061646 C-225.89085724 130.46125961 -225.66997437 131.57190277 -225.44239807 132.71620178 C-225.24731659 133.69097977 -225.05223511 134.66575775 -224.85124207 135.67007446 C-224.43605042 138.12025452 -224.43605042 138.12025452 -224.43605042 141.12025452 C-161.07605042 141.12025452 -97.71605042 141.12025452 -32.43605042 141.12025452 C-32.10605042 137.82025452 -31.77605042 134.52025452 -31.43605042 131.12025452 C-31.09792399 129.0174552 -30.72864539 126.91921624 -30.31617737 124.82972717 C-29.98496635 123.13452438 -29.98496635 123.13452438 -29.64706421 121.40507507 C-29.40856247 120.21022491 -29.17006073 119.01537476 -28.92433167 117.78431702 C-28.67362411 116.51091461 -28.42291656 115.23751221 -28.16461182 113.92552185 C-27.6337103 111.2304122 -27.09971398 108.53594159 -26.56324768 105.8419342 C-25.89421773 102.48180391 -25.23110678 99.12054348 -24.57015133 95.75881672 C-21.6855847 81.09549899 -18.6788778 66.4647365 -15.51356506 51.85891724 C-14.06563826 45.14933 -12.68704704 38.43356613 -11.42433167 31.68666077 C-11.28048538 30.92005127 -11.1366391 30.15344177 -10.98843384 29.36360168 C-10.4269123 26.35697656 -9.86956663 23.34969911 -9.32350159 20.34022522 C-8.90756411 18.05813861 -8.47940648 15.77861899 -8.04933167 13.49916077 C-7.93052139 12.82534866 -7.81171112 12.15153656 -7.68930054 11.45730591 C-6.80012676 6.81058274 -5.48059686 0.27054716 0 0 Z " fill="#FAFAFA" transform="translate(357.43605041503906,191.87974548339844)"></path><path d="M0 0 C2.27114808 1.20260445 4.15048131 2.48693807 6.125 4.12890625 C6.76824219 4.64839844 7.41148437 5.16789062 8.07421875 5.703125 C13.62185328 10.69250699 16.55656911 15.99666081 17.57421875 23.39453125 C18.05212758 33.03766948 15.71246959 40.59268991 9.51953125 48.06640625 C3.67143856 53.62278885 -3.78201723 56.29561704 -11.75 56.75390625 C-19.98208252 56.44626399 -27.69558284 52.88653094 -33.375 46.87890625 C-39.14850166 39.07272206 -41.14061198 30.73490116 -39.875 21.12890625 C-37.10469682 10.96641652 -31.85310386 5.35373281 -22.875 0.12890625 C-16.13039144 -2.1192966 -6.83670735 -2.07144802 0 0 Z " fill="#FAFBFB" transform="translate(180.875,359.87109375)"></path><path d="M0 0 C0 14.85 0 29.7 0 45 C-10.625 51 -10.625 51 -14.07739258 52.94799805 C-18.58729073 55.49487652 -23.09448626 58.04487788 -27.57421875 60.64453125 C-28.54077393 61.20430664 -28.54077393 61.20430664 -29.52685547 61.77539062 C-31.20348777 62.74918527 -32.8772378 63.72793768 -34.55078125 64.70703125 C-37 66 -37 66 -39 66 C-39 51.48 -39 36.96 -39 22 C-25.625 14.375 -25.625 14.375 -21.47119141 12.00927734 C-15.1888196 8.42338218 -8.93763123 4.80113051 -2.77099609 1.01806641 C-1 0 -1 0 0 0 Z " fill="#263242" transform="translate(269,235)"></path><path d="M0 0 C0 14.85 0 29.7 0 45 C-12.375 52.125 -12.375 52.125 -16.21240234 54.33251953 C-17.24316895 54.92661621 -18.27393555 55.52071289 -19.3359375 56.1328125 C-20.46225586 56.7815332 -21.58857422 57.43025391 -22.74902344 58.09863281 C-26.5430742 60.31762255 -30.28085322 62.61990639 -33.99853516 64.96435547 C-36 66 -36 66 -39 66 C-39 51.48 -39 36.96 -39 22 C-35.143125 19.855 -31.28625 17.71 -27.3125 15.5 C-19.11267089 10.92643666 -10.9866759 6.29472218 -3.0625 1.2578125 C-1 0 -1 0 0 0 Z " fill="#263242" transform="translate(320,146)"></path><path d="M0 0 C4.3739558 1.31971752 8.086961 3.03192424 12.02734375 5.3359375 C13.71053711 6.31433594 13.71053711 6.31433594 15.42773438 7.3125 C16.59774962 7.99984108 17.76767086 8.68734222 18.9375 9.375 C20.10321496 10.05520303 21.26922839 10.73489483 22.43554688 11.4140625 C24.59648298 12.67367872 26.75607045 13.9356137 28.91381836 15.20068359 C32.26416767 17.15401596 35.63278923 19.07587956 39 21 C39 35.85 39 50.7 39 66 C34.05 63.36 29.1 60.72 24 58 C21.78410156 57.24203125 19.56820312 56.4840625 17.28515625 55.703125 C10.20113162 53.10498848 4.16364386 50.55757076 0 44 C-3.80234405 30.17256741 -1.40356742 14.06626475 0 0 Z " fill="#263242" transform="translate(230,147)"></path><path d="M0 0 C3.32098267 1.03391932 6.04266654 2.54665593 9.05224609 4.29296875 C9.6500589 4.63720383 10.2478717 4.9814389 10.86380005 5.33610535 C12.76643264 6.43366348 14.66327227 7.54081272 16.56005859 8.6484375 C17.82661036 9.3815082 19.09353426 10.11393635 20.36083984 10.84570312 C22.70939484 12.20282746 25.05519631 13.56431599 27.39941406 14.92895508 C30.81918177 16.91378236 34.25005796 18.87762293 37.68505859 20.8359375 C37.68505859 21.4959375 37.68505859 22.1559375 37.68505859 22.8359375 C36.99057617 23.22338135 36.29609375 23.6108252 35.58056641 24.01000977 C32.36473677 25.80497209 29.14989508 27.60169706 25.93505859 29.3984375 C24.84322266 30.00751953 23.75138672 30.61660156 22.62646484 31.24414062 C21.53720703 31.85322266 20.44794922 32.46230469 19.32568359 33.08984375 C18.22675781 33.69973145 17.12783203 34.30961914 15.99560547 34.93798828 C13.76322988 36.21781777 11.56094462 37.55141905 9.39013672 38.93310547 C8.34792969 39.59068848 7.30572266 40.24827148 6.23193359 40.92578125 C5.30735352 41.53156006 4.38277344 42.13733887 3.43017578 42.76147461 C0.68505859 43.8359375 0.68505859 43.8359375 -2.28491211 43.22631836 C-5.41345073 41.79073481 -8.37042377 40.23770125 -11.34228516 38.5 C-12.46441406 37.84773438 -13.58654297 37.19546875 -14.74267578 36.5234375 C-15.91269103 35.83609642 -17.08261226 35.14859528 -18.25244141 34.4609375 C-19.41815637 33.78073447 -20.58416979 33.10104267 -21.75048828 32.421875 C-23.96696174 31.12988588 -26.18235161 29.83603543 -28.39648438 28.54003906 C-31.6904842 26.6166562 -34.99779105 24.71903595 -38.31494141 22.8359375 C-38.31494141 22.1759375 -38.31494141 21.5159375 -38.31494141 20.8359375 C-37.50863281 20.37743408 -36.70232422 19.91893066 -35.87158203 19.4465332 C-32.8441222 17.72391552 -29.81753555 15.99978257 -26.79150391 14.2746582 C-25.48845851 13.53219916 -24.18508055 12.79032343 -22.88134766 12.04907227 C-20.99372315 10.97570296 -19.10739799 9.90007731 -17.22119141 8.82421875 C-16.61049805 8.47779327 -15.99980469 8.1313678 -15.37060547 7.77444458 C-12.06191946 5.88538658 -8.87175988 3.8940128 -5.72119141 1.75390625 C-2.31494141 -0.1640625 -2.31494141 -0.1640625 0 0 Z " fill="#243040" transform="translate(224.31494140625,202.1640625)"></path><path d="M0 0 C0.83144531 0.52722656 1.66289062 1.05445312 2.51953125 1.59765625 C3.80481659 2.29106579 5.0928738 2.97934843 6.3828125 3.6640625 C7.86762981 4.49297674 9.35061616 5.32517684 10.83203125 6.16015625 C11.61368652 6.59763184 12.3953418 7.03510742 13.20068359 7.48583984 C15.64207257 8.8533127 18.0809721 10.22514454 20.51953125 11.59765625 C22.0988887 12.48449902 23.67831389 13.37122116 25.2578125 14.2578125 C29.01380282 16.36740863 32.76734569 18.48130091 36.51953125 20.59765625 C36.51953125 21.25765625 36.51953125 21.91765625 36.51953125 22.59765625 C35.31006836 23.28541138 35.31006836 23.28541138 34.07617188 23.98706055 C31.04871205 25.70967823 28.02212539 27.43381118 24.99609375 29.15893555 C23.69304835 29.90139459 22.38967039 30.64327032 21.0859375 31.38452148 C19.19831299 32.45789079 17.31198784 33.53351644 15.42578125 34.609375 C14.81508789 34.95580048 14.20439453 35.30222595 13.57519531 35.65914917 C10.2665093 37.54820717 7.07634973 39.53958095 3.92578125 41.6796875 C0.51953125 43.59765625 0.51953125 43.59765625 -1.79541016 43.43359375 C-5.11639283 42.39967443 -7.8380767 40.88693782 -10.84765625 39.140625 C-11.74437546 38.62427238 -11.74437546 38.62427238 -12.65921021 38.0974884 C-14.5618428 36.99993027 -16.45868242 35.89278103 -18.35546875 34.78515625 C-19.62202052 34.05208555 -20.88894442 33.3196574 -22.15625 32.58789062 C-24.504805 31.23076629 -26.85060646 29.86927776 -29.19482422 28.50463867 C-32.61459193 26.51981139 -36.04546812 24.55597082 -39.48046875 22.59765625 C-36.56210377 19.42516398 -33.67685766 17.38557139 -29.90234375 15.3203125 C-28.82339844 14.72412109 -27.74445313 14.12792969 -26.6328125 13.51367188 C-25.51003906 12.90201172 -24.38726562 12.29035156 -23.23046875 11.66015625 C-21.01589368 10.44458914 -18.80232924 9.22717876 -16.58984375 8.0078125 C-15.53732422 7.43305176 -14.48480469 6.85829102 -13.40039062 6.26611328 C-10.82890769 4.79675589 -8.42812139 3.21597149 -5.99609375 1.53125 C-2.82969185 -0.45898939 -2.82969185 -0.45898939 0 0 Z " fill="#243040" transform="translate(276.48046875,113.40234375)"></path><path d="M0 0 C2.151007 1.15394631 4.283674 2.34239147 6.40234375 3.5546875 C7.00252823 3.89750763 7.60271271 4.24032776 8.22108459 4.59353638 C9.48511088 5.31650302 10.74823428 6.04105031 12.01049805 6.76708984 C13.92591639 7.86834012 15.84453389 8.96384128 17.76367188 10.05859375 C23.2892834 13.22322506 28.73260496 16.42025551 34 20 C30.87441528 22.45651643 27.61474175 24.45645293 24.16796875 26.43359375 C23.03939453 27.08263672 21.91082031 27.73167969 20.74804688 28.40039062 C19.56122944 29.07948217 18.37438024 29.75851823 17.1875 30.4375 C16.0122327 31.11239153 14.83710122 31.78751964 13.66210938 32.46289062 C11.42233963 33.7491329 9.1800927 35.03107392 6.93505859 36.30810547 C5.19339297 37.31207675 3.46223561 38.33529814 1.75634766 39.39892578 C-2.52708366 42.05764669 -2.52708366 42.05764669 -4.83862305 41.77587891 C-7.57522384 40.79350939 -9.97453621 39.47980347 -12.5078125 38.05078125 C-14.11269531 37.14875977 -14.11269531 37.14875977 -15.75 36.22851562 C-16.86375 35.59623047 -17.9775 34.96394531 -19.125 34.3125 C-20.21554688 33.69955078 -21.30609375 33.08660156 -22.4296875 32.45507812 C-25.62825094 30.65110365 -28.8159288 28.82941367 -32 27 C-33.0012793 26.43071777 -34.00255859 25.86143555 -35.03417969 25.27490234 C-35.94844727 24.74461426 -36.86271484 24.21432617 -37.8046875 23.66796875 C-38.61663574 23.20028076 -39.42858398 22.73259277 -40.26513672 22.25073242 C-40.8376416 21.83799072 -41.41014648 21.42524902 -42 21 C-42 20.34 -42 19.68 -42 19 C-40.92105469 18.40574219 -39.84210938 17.81148437 -38.73046875 17.19921875 C-37.65768677 16.60608887 -37.65768677 16.60608887 -36.56323242 16.00097656 C-34.96418722 15.11690882 -33.3640675 14.2347821 -31.76293945 13.35449219 C-27.37024351 10.92534371 -23.03257882 8.43540485 -18.75 5.81640625 C-17.90284424 5.30440674 -17.05568848 4.79240723 -16.18286133 4.26489258 C-14.54071086 3.2679702 -12.90735215 2.25639503 -11.28393555 1.22924805 C-10.534104 0.77718994 -9.78427246 0.32513184 -9.01171875 -0.140625 C-8.35647217 -0.54829102 -7.70122559 -0.95595703 -7.02612305 -1.37597656 C-4.06280858 -2.28864457 -2.73666556 -1.3824549 0 0 Z " fill="#243040" transform="translate(177,115)"></path><path d="M0 0 C3.46918998 1.09306604 6.65551414 2.19330848 9.77734375 4.06640625 C10.45732422 4.47052734 11.13730469 4.87464844 11.83789062 5.29101562 C12.53076172 5.71060547 13.22363281 6.13019531 13.9375 6.5625 C14.59556641 6.95501953 15.25363281 7.34753906 15.93164062 7.75195312 C17.39182835 8.62425539 18.83668705 9.52251715 20.26879883 10.44018555 C22.488097 11.70764742 24.51660035 12.62558706 26.87768555 13.55395508 C31.16242043 15.39910595 35.08619493 17.24798678 38 21 C40.45327271 28.16459595 39.40456567 36.13938709 38.9375 43.5625 C38.86218487 45.64103565 38.7937564 47.71983296 38.73242188 49.79882812 C38.56779083 54.87238261 38.30954486 59.9333062 38 65 C34.24738264 63.5876971 30.81986229 61.87869881 27.32421875 59.91796875 C26.24849609 59.31533203 25.17277344 58.71269531 24.06445312 58.09179688 C22.95005859 57.46337891 21.83566406 56.83496094 20.6875 56.1875 C19.58470703 55.57068359 18.48191406 54.95386719 17.34570312 54.31835938 C14.21966886 52.56218132 11.09766475 50.80582113 8 49 C6.94499802 48.51768166 6.94499802 48.51768166 5.86868286 48.02561951 C3.56973145 46.86430981 1.82735995 45.82078776 0 44 C-1.09307342 40.61443733 -0.93675664 37.41427304 -0.78125 33.88671875 C-0.76993042 32.91716751 -0.75861084 31.94761627 -0.74694824 30.94868469 C-0.70225207 27.85959109 -0.60190534 24.7751838 -0.5 21.6875 C-0.45986412 19.59056195 -0.42336353 17.49355096 -0.390625 15.39648438 C-0.3025386 10.26252426 -0.16453968 5.13205579 0 0 Z " fill="#232F3F" transform="translate(128,147)"></path><path d="M0 0 C4.37987559 1.32261146 8.11010944 3.03932877 12.0625 5.3359375 C13.18914062 5.98820313 14.31578125 6.64046875 15.4765625 7.3125 C16.05567383 7.65152344 16.63478516 7.99054688 17.23144531 8.33984375 C18.99213248 9.37039505 20.75729085 10.39290147 22.5234375 11.4140625 C25.69476092 13.25734888 28.86195754 15.10057712 32 17 C33.1029541 17.52770996 34.2059082 18.05541992 35.34228516 18.59912109 C38.31611779 21.28556884 38.4198945 21.70776412 38.68115234 25.49316406 C38.68020487 27.33425772 38.64644249 29.17552558 38.5859375 31.015625 C38.57744781 31.98659119 38.56895813 32.95755737 38.56021118 33.95794678 C38.52664785 37.05643097 38.45136181 40.15230379 38.375 43.25 C38.34490425 45.35152489 38.31752777 47.45309061 38.29296875 49.5546875 C38.22684654 54.70412977 38.12330308 59.85162233 38 65 C33.94207241 63.49953027 30.31134139 61.5643857 26.5625 59.41015625 C25.95994385 59.06496445 25.3573877 58.71977264 24.73657227 58.36412048 C22.82262402 57.26660899 20.9113237 56.16457445 19 55.0625 C17.71631037 54.32588506 16.43245769 53.5895542 15.1484375 52.85351562 C11.76143685 50.90950512 8.37644429 48.96231568 5 47 C4.05229736 46.63277832 3.10459473 46.26555664 2.12817383 45.88720703 C-0.44665177 43.60392128 -0.36658839 42.95348309 -0.56762695 39.62036133 C-0.56683523 37.77406202 -0.53857755 35.92764552 -0.48828125 34.08203125 C-0.48120651 33.10965012 -0.47413177 32.13726898 -0.46684265 31.13542175 C-0.43883408 28.02700138 -0.37608275 24.92037666 -0.3125 21.8125 C-0.28742553 19.70640621 -0.26461088 17.6002842 -0.24414062 15.49414062 C-0.18898599 10.32873429 -0.10266795 5.16467165 0 0 Z " fill="#232F3F" transform="translate(179,236)"></path><path d="M0 0 C3.4784585 38.18763639 3.4784585 38.18763639 -1.93359375 47.23095703 C-6.89789375 51.85704939 -12.78002058 54.06608182 -19.18652344 56.05419922 C-23.24270084 57.41775625 -26.65167827 59.53771017 -30.25 61.8125 C-35.7443299 65 -35.7443299 65 -38 65 C-38 50.48 -38 35.96 -38 21 C-25.625 13.875 -25.625 13.875 -21.78759766 11.66748047 C-15.77506502 8.20207359 -9.79886957 4.69804075 -3.90380859 1.03564453 C-2 0 -2 0 0 0 Z " fill="#232F3F" transform="translate(217,147)"></path><path d="M0 0 C4.47999795 2.23999898 8.77385016 5.39613267 11 10 C11.9006735 15.18474659 11.80004325 20.18973601 9.375 24.9375 C6.16870543 29.07193247 3.73221831 31.56251489 -1.5859375 32.4140625 C-7.22002411 32.70734372 -11.28574716 32.21823986 -15.62890625 28.46875 C-19.97713032 23.81082336 -20.70656586 18.94654305 -20.5546875 12.76171875 C-19.59830968 8.00003482 -16.69678725 4.99800429 -13 2 C-8.78116014 -0.56323936 -4.81884957 -0.67161666 0 0 Z " fill="#263141" transform="translate(302,371)"></path><path d="M0 0 C4.47999795 2.23999898 8.77385016 5.39613267 11 10 C11.9006735 15.18474659 11.80004325 20.18973601 9.375 24.9375 C6.16870543 29.07193247 3.73221831 31.56251489 -1.5859375 32.4140625 C-7.22002411 32.70734372 -11.28574716 32.21823986 -15.62890625 28.46875 C-19.97713032 23.81082336 -20.70656586 18.94654305 -20.5546875 12.76171875 C-19.59830968 8.00003482 -16.69678725 4.99800429 -13 2 C-8.78116014 -0.56323936 -4.81884957 -0.67161666 0 0 Z " fill="#263141" transform="translate(174,371)"></path></svg>