<svg version="1.1" xmlns="http://www.w3.org/2000/svg" width="16px" height="16px" fill="currentColor" viewBox="0 0 512 512"><path d="M0 0 C168.96 0 337.92 0 512 0 C512 168.96 512 337.92 512 512 C343.04 512 174.08 512 0 512 C0 343.04 0 174.08 0 0 Z " fill="#2D8F7A" transform="translate(0,0)"></path><path d="M0 0 C4.06479745 1.08878503 4.37017933 1.48022593 6.5 4.9375 C7.85506564 7.67649404 9.06705212 10.47022492 10.2734375 13.27734375 C10.81426971 14.51755531 10.81426971 14.51755531 11.36602783 15.78282166 C12.54045045 18.47816966 13.70777325 21.17652901 14.875 23.875 C16.49246658 27.59606595 18.11328846 31.31566616 19.734375 35.03515625 C20.13778107 35.96203247 20.54118713 36.88890869 20.95681763 37.84387207 C23.45728857 43.57975286 25.994555 49.29717704 28.578125 54.99609375 C29.03881882 56.01367012 29.03881882 56.01367012 29.50881958 57.05180359 C30.92881449 60.18499512 32.35554552 63.31478644 33.79052734 66.44116211 C34.28504395 67.53050049 34.77956055 68.61983887 35.2890625 69.7421875 C35.71912598 70.68046387 36.14918945 71.61874023 36.59228516 72.58544922 C37.5 74.9375 37.5 74.9375 37.5 77.9375 C51.71092865 72.65703231 65.85387252 67.20117093 80 61.75 C83.5192237 60.39431661 87.03852686 59.03884041 90.5579834 57.6837616 C92.73073691 56.84715565 94.90335262 56.01019168 97.07580566 55.17280579 C99.01294214 54.42676913 100.95061026 53.68211084 102.88891602 52.93911743 C104.55499688 52.30000523 106.21970204 51.65728708 107.88256836 51.00985718 C111.95407847 49.44214454 115.11196709 48.23940385 119.5 48.9375 C121.9375 50.5625 121.9375 50.5625 123.5 52.9375 C123.09300485 56.9298463 122.08190499 60.45921976 120.66162109 64.19824219 C120.28387543 65.20079041 119.90612976 66.20333862 119.51693726 67.23626709 C119.10658234 68.3081427 118.69622742 69.38001831 118.2734375 70.484375 C117.84753326 71.60958557 117.42162903 72.73479614 116.9828186 73.894104 C115.61872171 77.49389142 114.24689418 81.09067796 112.875 84.6875 C111.97476946 87.06101176 111.07502502 89.43470796 110.17578125 91.80859375 C103.27370383 110.00368701 103.27370383 110.00368701 100.29003906 117.54882812 C99.95936432 118.38690002 99.62868958 119.22497192 99.28799438 120.08843994 C98.68365162 121.61453098 98.07489794 123.1388861 97.46078491 124.66107178 C96.30287765 127.58246641 95.5 129.76283685 95.5 132.9375 C96.24904854 133.27004036 96.24904854 133.27004036 97.01322937 133.60929871 C108.56925654 138.73987105 120.12346068 143.87451904 131.67536926 149.01435852 C137.00246255 151.38403578 142.33128563 153.74968489 147.66368103 156.10740662 C150.3543721 157.29789355 153.04334505 158.49222021 155.73184204 159.68765259 C157.52565769 160.48365137 159.32176743 161.27447391 161.11791992 162.06518555 C162.18373291 162.53996338 163.2495459 163.01474121 164.34765625 163.50390625 C165.25523682 163.90552979 166.16281738 164.30715332 167.09790039 164.72094727 C169.50718357 165.94113815 171.49517736 167.12563977 173.5 168.9375 C174.25 172.3125 174.25 172.3125 173.5 175.9375 C168.75280164 180.03323827 162.482878 182.46178484 156.76953125 184.90625 C155.94824738 185.26397491 155.1269635 185.62169983 154.28079224 185.99026489 C151.62709304 187.14495744 148.9698112 188.29114792 146.3125 189.4375 C143.55541386 190.63527697 140.79936499 191.83541725 138.04341125 193.03579712 C136.19726069 193.83984022 134.35081488 194.64320577 132.5040741 195.44589233 C124.12165718 199.09193393 115.77329739 202.81130362 107.4375 206.5625 C106.5049791 206.98172729 106.5049791 206.98172729 105.55361938 207.40942383 C102.20138239 208.91650145 98.85011036 210.4257012 95.5 211.9375 C97.69015805 219.78712332 100.47108603 227.33682185 103.4296875 234.92578125 C103.90189728 236.14597458 104.37410706 237.36616791 104.86062622 238.62333679 C106.1080691 241.84666276 107.35997288 245.06823709 108.61291504 248.28942871 C109.87348599 251.53242566 111.12997816 254.77700158 112.38671875 258.02148438 C114.24232517 262.81119912 116.10044849 267.5999293 117.96044922 272.38793945 C118.3759906 273.46604889 118.79153198 274.54415833 119.21966553 275.65493774 C120.10604497 277.92746556 121.01259351 280.19219104 121.93511963 282.45028687 C122.39368347 283.58841827 122.85224731 284.72654968 123.32470703 285.89916992 C123.74188995 286.91532883 124.15907288 287.93148773 124.58889771 288.97843933 C125.56975773 292.16405784 125.77896899 294.62378204 125.5 297.9375 C123.9375 300.375 123.9375 300.375 121.5 301.9375 C114.96111618 301.62578899 109.21714423 299.12052921 103.1796875 296.74609375 C102.08520294 296.32256119 100.99071838 295.89902863 99.86306763 295.46266174 C96.36430692 294.10704069 92.86959944 292.74130774 89.375 291.375 C87.07969659 290.48303012 84.78412591 289.59174771 82.48828125 288.70117188 C77.98624918 286.9540012 73.48459613 285.20586213 68.98339844 283.45654297 C67.90457397 283.03749695 66.82574951 282.61845093 65.7142334 282.18670654 C63.58404199 281.35881114 61.45423543 280.52992481 59.3248291 279.70001221 C56.38771987 278.55675597 53.44815233 277.420073 50.5078125 276.28515625 C49.19851273 275.77316933 49.19851273 275.77316933 47.86276245 275.25083923 C47.06387604 274.94384598 46.26498962 274.63685272 45.44189453 274.32055664 C44.74887238 274.05183243 44.05585022 273.78310822 43.34182739 273.50624084 C41.34353162 272.78997739 41.34353162 272.78997739 38.5 272.9375 C36.21903501 277.98924881 33.93989828 283.04181779 31.66238403 288.09512329 C30.8473118 289.90334206 30.03194423 291.71142773 29.21627808 293.51937866 C24.78477265 303.34441238 20.37570144 313.17754347 16.0703125 323.05859375 C15.72720535 323.84433777 15.38409821 324.63008179 15.03059387 325.43963623 C13.40669526 329.15965119 11.79006635 332.88253059 10.18530273 336.61083984 C9.60429615 337.94511428 9.02301343 339.27926851 8.44140625 340.61328125 C7.69419312 342.3444519 7.69419312 342.3444519 6.93188477 344.1105957 C5.64847839 346.64436593 4.7447307 348.23723434 2.5 349.9375 C-0.4375 350.4375 -0.4375 350.4375 -3.5 349.9375 C-7.20690932 346.08885455 -9.18359622 341.71615856 -11.30078125 336.89453125 C-11.65445267 336.10491501 -12.00812408 335.31529877 -12.37251282 334.50175476 C-13.52627499 331.92093662 -14.66948923 329.33559547 -15.8125 326.75 C-16.6086287 324.96328154 -17.40534711 323.17682573 -18.20263672 321.390625 C-20.64547441 315.91083056 -23.07354961 310.4245656 -25.5 304.9375 C-26.26895188 303.20096878 -27.03799283 301.46447699 -27.80712891 299.72802734 C-32.05350232 290.13794606 -36.28467664 280.54127028 -40.5 270.9375 C-45.70164893 271.57222349 -50.1395358 273.1846839 -54.96484375 275.11328125 C-55.78321716 275.43491745 -56.60159058 275.75655365 -57.44476318 276.0879364 C-59.20029326 276.77865455 -60.95479192 277.4719989 -62.70834351 278.16772461 C-65.4572721 279.25784083 -68.20922491 280.33996248 -70.9621582 281.41992188 C-78.86922719 284.52387381 -86.76932912 287.64513357 -94.66270447 290.78373718 C-97.50722652 291.91268957 -100.35470148 293.03404487 -103.20291138 294.15365601 C-105.14813159 294.92195084 -107.0885237 295.70163818 -109.02905273 296.48168945 C-110.19895752 296.94148193 -111.3688623 297.40127441 -112.57421875 297.875 C-113.58057373 298.27589844 -114.58692871 298.67679687 -115.6237793 299.08984375 C-118.74671434 300.01020963 -121.26101483 300.16780736 -124.5 299.9375 C-126.375 298.875 -126.375 298.875 -127.5 296.9375 C-128.31145348 290.01814288 -125.73426719 284.42612068 -123.22265625 278.06640625 C-122.77788437 276.91244858 -122.33311249 275.75849091 -121.87486267 274.56956482 C-120.68814399 271.49634531 -119.49157844 268.42721541 -118.28979492 265.35986328 C-117.10424226 262.32812774 -115.93049944 259.29183634 -114.75585938 256.25585938 C-113.36857281 252.67091998 -111.98040987 249.08635055 -110.58755493 245.50357056 C-106.1256383 234.01863494 -101.79392229 222.48614595 -97.5 210.9375 C-98.62106895 210.73824921 -98.62106895 210.73824921 -99.76478577 210.53497314 C-102.14779401 210.01443497 -104.05943734 209.38522865 -106.26342773 208.37792969 C-106.96807663 208.05913849 -107.67272552 207.74034729 -108.39872742 207.41189575 C-109.52973625 206.89089798 -109.52973625 206.89089798 -110.68359375 206.359375 C-111.88415154 205.81456985 -111.88415154 205.81456985 -113.10896301 205.25875854 C-115.72059136 204.07293114 -118.3290447 202.88028878 -120.9375 201.6875 C-124.55445701 200.04088414 -128.17324642 198.39833974 -131.79296875 196.7578125 C-133.15036667 196.14218948 -133.15036667 196.14218948 -134.53518677 195.51412964 C-140.22239612 192.94301032 -145.93233734 190.43498177 -151.67578125 187.9921875 C-152.3727562 187.69501831 -153.06973114 187.39784912 -153.78782654 187.0916748 C-157.02313041 185.71446364 -160.26278834 184.34905784 -163.50952148 182.99902344 C-165.21410522 182.27634277 -165.21410522 182.27634277 -166.953125 181.5390625 C-167.93442383 181.12994629 -168.91572266 180.72083008 -169.92675781 180.29931641 C-172.69815895 178.83262992 -174.48096529 177.32698368 -176.5 174.9375 C-177 172.4375 -177 172.4375 -176.5 169.9375 C-173.19825342 165.76639787 -169.06852937 164.14825154 -164.30078125 162.13671875 C-163.48477448 161.78304733 -162.6687677 161.42937592 -161.82803345 161.06498718 C-160.07216595 160.30500847 -158.31446735 159.54924911 -156.55514526 158.79730225 C-151.92200028 156.81693448 -147.30184085 154.8066351 -142.6796875 152.80078125 C-141.74444748 152.39597534 -140.80920746 151.99116943 -139.84562683 151.57409668 C-130.66134376 147.59220049 -121.54194019 143.47312233 -112.4375 139.3125 C-111.72050934 138.98526947 -111.00351868 138.65803894 -110.26480103 138.32089233 C-106.34147881 136.53017448 -102.41981878 134.73587729 -98.5 132.9375 C-99.86590886 125.91584665 -102.00855898 119.54399959 -104.640625 112.90234375 C-105.04528992 111.86541885 -105.44995483 110.82849396 -105.86688232 109.76014709 C-107.15512233 106.46265825 -108.45222231 103.16874528 -109.75 99.875 C-110.60609531 97.69100071 -111.46156943 95.50675781 -112.31640625 93.32226562 C-112.73369995 92.25601959 -113.15099365 91.18977356 -113.58093262 90.09121704 C-115.19177201 85.97255598 -116.80099174 81.85326669 -118.40795898 77.73309326 C-119.10633051 75.94528245 -119.80681037 74.15829287 -120.51000977 72.37237549 C-121.38449585 70.14840406 -122.2485636 67.92069846 -123.109375 65.69140625 C-123.81271973 63.88845093 -123.81271973 63.88845093 -124.53027344 62.04907227 C-125.44888817 59.1015031 -125.80090052 56.99245725 -125.5 53.9375 C-124.4375 52.125 -124.4375 52.125 -122.5 50.9375 C-115.77073259 50.18192721 -110.46916059 52.52951484 -104.28515625 54.99609375 C-103.19778671 55.41866959 -102.11041718 55.84124542 -100.99009705 56.27662659 C-97.50981117 57.63173966 -94.03608454 59.00281213 -90.5625 60.375 C-87.1616382 61.7062576 -83.75948293 63.03417068 -80.35726929 64.36196899 C-78.10606669 65.24101929 -75.85543238 66.12152639 -73.6053772 67.00350952 C-62.2821991 71.43591785 -50.89918874 75.70503424 -39.5 79.9375 C-39.36905945 79.19612793 -39.2381189 78.45475586 -39.10321045 77.69091797 C-38.56108489 75.21632847 -37.8739881 73.18670584 -36.84863281 70.8828125 C-36.50983093 70.11493408 -36.17102905 69.34705566 -35.82196045 68.5559082 C-35.45274475 67.7330835 -35.08352905 66.91025879 -34.703125 66.0625 C-34.12488983 64.75768677 -34.12488983 64.75768677 -33.53497314 63.42651367 C-32.27840874 60.59454665 -31.01451914 57.76592303 -29.75 54.9375 C-28.8844453 52.99363219 -28.01921246 51.04962102 -27.15429688 49.10546875 C-25.42258413 45.21495231 -23.68780086 41.32582415 -21.95117188 37.4375 C-20.08695374 33.26014288 -18.23540236 29.07745083 -16.39422607 24.88989258 C-15.20612863 22.18837519 -14.01276095 19.48920842 -12.8182373 16.79052734 C-12.01561405 14.97286047 -11.21916987 13.15246914 -10.42285156 11.33203125 C-9.94299805 10.25308594 -9.46314453 9.17414063 -8.96875 8.0625 C-8.56076172 7.13695313 -8.15277344 6.21140625 -7.73242188 5.2578125 C-5.59000971 1.22423777 -4.7101783 -0.08411033 0 0 Z " fill="#FAFCFC" transform="translate(259.5,83.0625)"></path><path d="M0 0 C0.66 0 1.32 0 2 0 C2.22848633 0.52166748 2.45697266 1.04333496 2.69238281 1.58081055 C7.67264803 12.94279243 12.68033391 24.29217374 17.7265625 35.625 C18.35120392 37.02870598 18.35120392 37.02870598 18.98846436 38.46076965 C21.15599083 43.3308368 23.3270946 48.19926123 25.50390625 53.06518555 C29.40533852 61.80116195 33.26718302 70.54234845 36.8984375 79.39453125 C37.47908364 80.79477968 38.05996663 82.19492993 38.64111328 83.5949707 C39.68610555 86.11448742 40.69623621 88.63978496 41.69091797 91.18041992 C44.61061997 98.2330264 46.97099531 101.93099795 54 105 C54.86834473 105.41588379 55.73668945 105.83176758 56.63134766 106.26025391 C59.7950343 107.74739355 62.9859671 109.15872316 66.1875 110.5625 C67.42831737 111.11188631 68.66886784 111.66187572 69.90917969 112.21240234 C72.69188103 113.44652039 75.47610278 114.67712966 78.26123047 115.90576172 C83.52424204 118.22925641 88.77977608 120.56946301 94.03515625 122.91015625 C113.66977835 131.65293008 133.31242288 140.37699325 153 149 C150.85008707 151.14991293 149.25024026 151.90549605 146.48046875 153.1171875 C145.50094238 153.54894287 144.52141602 153.98069824 143.51220703 154.42553711 C142.41505371 154.90385986 141.31790039 155.38218262 140.1875 155.875 C138.38480363 156.66856067 136.58212009 157.46215072 134.77972412 158.25639343 C133.442622 158.84529075 132.10524937 159.43357418 130.76763916 160.02131653 C125.85051959 162.18203964 120.93870249 164.35447279 116.0302124 166.534729 C114.14186634 167.37342534 112.25306648 168.2111006 110.36383057 169.04779053 C105.47530713 171.21510448 100.5970259 173.40174817 95.73388672 175.62548828 C87.35374829 179.43805089 79.1266998 183.13940402 70.29296875 185.76953125 C58.77596734 189.3511749 50.63627235 193.38668525 44.875 204.25 C40.65304431 212.72449385 37.36863665 221.58639881 34.09912109 230.46044922 C31.03153023 238.70211945 27.38726187 246.68957789 23.7883606 254.7093811 C21.89032614 258.95639565 20.03282392 263.22101484 18.171875 267.484375 C12.83514741 279.68021289 7.42623275 291.84374489 2 304 C1.34 304 0.68 304 0 304 C-9.23481159 283.70783869 -18.43122473 263.40178497 -27.36123657 242.97329712 C-28.4959431 240.38425657 -29.63781791 237.79849626 -30.78198242 235.21362305 C-33.98593642 227.96460971 -37.14533313 220.72134115 -40.04296875 213.34375 C-40.72746094 211.6723999 -40.72746094 211.6723999 -41.42578125 209.96728516 C-42.22232731 208.01506913 -42.98168712 206.04688048 -43.6875 204.06005859 C-46.42843002 197.50798998 -50.64114736 195.11470933 -56.94189453 192.43647766 C-58.29693994 191.88398762 -59.65480395 191.33836185 -61.01535034 190.79956055 C-64.05181824 189.57625147 -67.00976809 188.19045289 -69.98046875 186.81640625 C-72.38224407 185.73048571 -74.78451306 184.64572966 -77.1875 183.5625 C-78.15521835 183.12570419 -78.15521835 183.12570419 -79.14248657 182.68008423 C-90.30619448 177.64206941 -101.4934374 172.6576374 -112.6875 167.6875 C-114.22209843 167.00580466 -115.75668516 166.32408296 -117.29125977 165.64233398 C-123.74296007 162.77654854 -130.19577669 159.91340232 -136.65234375 157.05859375 C-138.47667876 156.24765734 -140.30090915 155.43648548 -142.125 154.625 C-142.92381592 154.27397217 -143.72263184 153.92294434 -144.5456543 153.5612793 C-149.77204939 151.22795061 -149.77204939 151.22795061 -152 149 C-133.21258611 140.0767896 -114.17717313 131.66974187 -95.1177063 123.34632874 C-90.63399812 121.3873107 -86.1601382 119.41045738 -81.703125 117.39135742 C-67.26133192 110.8837684 -67.26133192 110.8837684 -60.16015625 109.10546875 C-52.28260286 106.97820258 -46.84938695 104.34627386 -42.56347656 97.14404297 C-36.89641238 86.80128367 -32.63512158 75.78081818 -28.32763672 64.82373047 C-24.96229849 56.30924862 -21.20149944 47.97022675 -17.47277832 39.61038208 C-15.64533703 35.4990237 -13.84875715 31.37430694 -12.05078125 27.25 C-8.07608669 18.1478423 -4.04455619 9.071294 0 0 Z " fill="#2E907B" transform="translate(258,106)"></path><path d="M0 0 C7.20937021 5.79884126 13.83308641 12.79243628 15.14208984 22.24023438 C16.29176432 33.82642753 14.59951653 42.6877149 7.875 52.3125 C5.46931878 55.21346853 3.04830081 57.2910735 -0.125 59.3125 C-0.89070313 59.81523437 -1.65640625 60.31796875 -2.4453125 60.8359375 C-10.65612928 65.38076269 -19.98461519 65.74776704 -29.125 64.3125 C-40.85518842 60.67562936 -47.38289826 53.40786344 -52.9609375 42.86328125 C-56.64923247 34.78121207 -56.09079222 25.03762061 -53.21875 16.75390625 C-48.68814678 6.64095264 -41.37186435 -0.00118265 -31.375 -4.625 C-20.15177273 -8.26005337 -9.92174272 -5.35774107 0 0 Z " fill="#FAFCFC" transform="translate(278.125,228.6875)"></path><path d="M0 0 C1.16868591 1.89300537 1.16868591 1.89300537 2.11889648 4.40527344 C2.48285019 5.34425476 2.84680389 6.28323608 3.2217865 7.25067139 C3.60105789 8.27654358 3.98032928 9.30241577 4.37109375 10.359375 C4.77530045 11.4147345 5.17950714 12.47009399 5.59596252 13.55743408 C6.89128249 16.94953635 8.1646261 20.34941941 9.4375 23.75 C10.29087456 25.99664245 11.14567609 28.24274343 12.00195312 30.48828125 C13.63483113 34.7751351 15.25556222 39.06625957 16.86669922 43.36132812 C18.12683945 46.71289072 19.40740159 50.05228198 20.74658203 53.37304688 C21.21306152 54.53384766 21.67954102 55.69464844 22.16015625 56.890625 C22.54953369 57.83454102 22.93891113 58.77845703 23.34008789 59.75097656 C24 62 24 62 23 65 C16.09790108 62.38844669 9.1969959 59.77375744 2.296875 57.15698242 C-0.04595629 56.26890616 -2.38905045 55.38152305 -4.73242188 54.49487305 C-8.11920004 53.21329196 -11.50499496 51.92914188 -14.890625 50.64453125 C-15.92237854 50.25473587 -16.95413208 49.86494049 -18.01715088 49.46333313 C-25.07242846 46.78256209 -32.04918293 43.94073401 -39 41 C-36.80077459 29.55922615 -32.44902656 14.46834814 -23.34130859 6.74560547 C-17.23706561 2.98700777 -7.28455931 -2.92457188 0 0 Z " fill="#30917C" transform="translate(343,302)"></path><path d="M0 0 C3.37630174 1.43445593 6.75079959 2.87310895 10.125 4.3125 C11.07632813 4.71662109 12.02765625 5.12074219 13.0078125 5.53710938 C14.85909075 6.32775946 16.70664851 7.12718783 18.55004883 7.93603516 C20.5017084 8.78360191 22.47610294 9.57876578 24.45703125 10.35546875 C27.88867595 12.57470441 29.07178828 15.34201577 30.5625 19 C31.147019 20.35031082 31.73165541 21.70057082 32.31640625 23.05078125 C32.59758301 23.71803223 32.87875977 24.3852832 33.16845703 25.07275391 C34.72772608 28.68663232 36.51399071 32.19877485 38.25 35.73046875 C39.13559031 38.41030193 39.07631467 39.41226263 38 42 C36.06903076 43.16868591 36.06903076 43.16868591 33.50292969 44.11889648 C32.54392761 44.48285019 31.58492554 44.84680389 30.59686279 45.2217865 C29.54911682 45.60105789 28.50137085 45.98032928 27.421875 46.37109375 C26.34431946 46.77530045 25.26676392 47.17950714 24.15655518 47.59596252 C20.69305099 48.89139457 17.22189347 50.16474481 13.75 51.4375 C11.45518441 52.2908542 9.16090636 53.14565543 6.8671875 54.00195312 C2.49550566 55.63214612 -1.87883343 57.25481874 -6.25585938 58.87060547 C-12.52672436 61.1889834 -18.77285478 63.566394 -25 66 C-22.83396392 58.23847278 -20.09014002 50.7788507 -17.1484375 43.28125 C-16.68893707 42.1015564 -16.22943665 40.92186279 -15.75601196 39.7064209 C-14.79128448 37.23161653 -13.82518537 34.75740983 -12.85644531 32.28417969 C-11.61454964 29.11353501 -10.3769321 25.9412429 -9.14087486 22.76831818 C-7.95726179 19.73042867 -6.77166607 16.69331431 -5.5859375 13.65625 C-5.14116058 12.51675903 -4.69638367 11.37726807 -4.23812866 10.20324707 C-3.82745148 9.15455444 -3.41677429 8.10586182 -2.99365234 7.02539062 C-2.63185883 6.1006897 -2.27006531 5.17598877 -1.89730835 4.2232666 C-1 2 -1 2 0 0 Z " fill="#23826E" transform="translate(174,300)"></path><path d="M0 0 C-16.25714425 42.43368668 -16.25714425 42.43368668 -23 59 C-32.49120049 57.29677731 -45.12707219 53.34423934 -51.75683594 46.07324219 C-54.27788801 42.27447098 -55.95794632 38.22836552 -57.35302734 33.90087891 C-58.01993021 31.94144279 -58.85264532 30.13106271 -59.73828125 28.26171875 C-61 25 -61 25 -60.91000366 22.95173645 C-59.53805897 20.00924887 -57.68928265 19.65909015 -54.70166016 18.51049805 C-53.5702359 18.06711594 -52.43881165 17.62373383 -51.27310181 17.16691589 C-50.04086884 16.70320084 -48.80863586 16.23948578 -47.5390625 15.76171875 C-46.26929927 15.27289787 -44.99996619 14.78295827 -43.73104858 14.29194641 C-41.06980181 13.26604189 -38.40474601 12.25099733 -35.73632812 11.24389648 C-32.31417261 9.95180108 -28.90100658 8.63770738 -25.49021339 7.31595135 C-22.86963924 6.30236297 -20.24549199 5.29832314 -17.6200676 4.29737282 C-15.74669594 3.58190797 -13.87572691 2.86016242 -12.00479126 2.13835144 C-10.86706268 1.71073013 -9.72933411 1.28310883 -8.55712891 0.8425293 C-7.55420807 0.46154587 -6.55128723 0.08056244 -5.51797485 -0.31196594 C-3 -1 -3 -1 0 0 Z " fill="#3B9E89" transform="translate(365,151)"></path><path d="M0 0 C6.64626664 1.89801059 13.09574857 4.07966554 19.5234375 6.6171875 C20.82457993 7.12573776 20.82457993 7.12573776 22.15200806 7.64456177 C23.97282978 8.35706256 25.79292204 9.07143014 27.61230469 9.78759766 C30.35974489 10.86899556 33.10933144 11.94477334 35.859375 13.01953125 C44.94967524 16.57880411 54.01598422 20.17873397 63 24 C61.57442597 27.44256682 60.13252063 30.87805563 58.6875 34.3125 C58.28337891 35.28896484 57.87925781 36.26542969 57.46289062 37.27148438 C56.86831055 38.67817383 56.86831055 38.67817383 56.26171875 40.11328125 C55.90037842 40.97735596 55.53903809 41.84143066 55.16674805 42.73168945 C52.84633419 47.24287697 49.92500239 48.68526112 45.34375 50.69921875 C44.23902344 51.18583984 43.13429687 51.67246094 41.99609375 52.17382812 C40.26552734 52.9230957 40.26552734 52.9230957 38.5 53.6875 C37.34628906 54.19861328 36.19257813 54.70972656 35.00390625 55.23632812 C26.39117782 59 26.39117782 59 23 59 C17.74928155 46.01996309 12.63814607 32.98675867 7.5625 19.9375 C7.24609558 19.12470581 6.92969116 18.31191162 6.60369873 17.4744873 C5.69453531 15.13828779 4.78649508 12.80165536 3.87890625 10.46484375 C3.60318283 9.75623703 3.32745941 9.04763031 3.04338074 8.31755066 C1.97358362 5.55912795 0.93577532 2.80732596 0 0 Z " fill="#2F907B" transform="translate(151,151)"></path><path d="M0 0 C5.80490111 2.94918053 8.95419069 7.21754325 12.0625 12.8125 C14.09381718 19.35785537 13.99276278 24.31315873 11.1875 30.625 C7.94306002 36.55163326 3.51024151 39.563133 -2.25 42.8125 C-9.50523569 44.58206968 -14.97214488 43.58624861 -21.51171875 39.99609375 C-26.64554518 36.51834036 -29.86196873 32.31521698 -31.8125 26.4375 C-32.91731477 18.92688422 -32.10625767 12.93751114 -27.76953125 6.640625 C-20.19705975 -1.88407346 -10.60098418 -4.07319694 0 0 Z " fill="#30917C" transform="translate(267.8125,237.5625)"></path></svg>