<svg version="1.1" xmlns="http://www.w3.org/2000/svg" width="16px" height="16px" fill="currentColor" viewBox="0 0 512 512"><path d="M0 0 C168.96 0 337.92 0 512 0 C512 168.96 512 337.92 512 512 C343.04 512 174.08 512 0 512 C0 343.04 0 174.08 0 0 Z " fill="#3F52D5" transform="translate(0,0)"></path><path d="M0 0 C1.08640778 0.00090637 1.08640778 0.00090637 2.19476318 0.00183105 C13.87823467 0.02818499 25.36883488 0.46995207 36.9375 2.1875 C37.86208008 2.32172363 38.78666016 2.45594727 39.73925781 2.59423828 C52.18840438 4.45112288 64.092547 6.8859118 75.9375 11.1875 C76.58686523 11.42227051 77.23623047 11.65704102 77.90527344 11.89892578 C94.0589896 17.81509571 109.62325623 26.4054952 117.99557495 42.18119812 C119.35928604 46.53369646 119.19905141 50.67532998 119.16455078 55.21020508 C119.16484283 56.21555298 119.16513489 57.22090088 119.16543579 58.25671387 C119.16404452 61.57357469 119.14849266 64.89020976 119.1328125 68.20703125 C119.12908165 70.50916928 119.12623502 72.81130891 119.12423706 75.1134491 C119.11660627 81.16824743 119.09696243 87.22294959 119.0748291 93.27770996 C119.05435881 99.4579132 119.0452328 105.638132 119.03515625 111.81835938 C119.0137161 123.94144847 118.97958674 136.06446623 118.9375 148.1875 C114.6475 148.1875 110.3575 148.1875 105.9375 148.1875 C105.6075 124.7575 105.2775 101.3275 104.9375 77.1875 C101.3075 79.4975 97.6775 81.8075 93.9375 84.1875 C47.96915572 109.7698829 -18.12915141 108.43728485 -67.51171875 94.5703125 C-79.6387246 90.99285857 -91.42238128 85.99183387 -101.72265625 78.58813477 C-102.34922119 78.13841812 -102.97578613 77.68870148 -103.62133789 77.22535706 C-104.09692139 76.88286423 -104.57250488 76.5403714 -105.0625 76.1875 C-105.02434353 84.52458395 -104.96483882 92.86113364 -104.87859726 101.19784546 C-104.83920472 105.06957616 -104.80697637 108.94108224 -104.79150391 112.81298828 C-104.77628248 116.55450741 -104.74174163 120.29540865 -104.69419098 124.03665161 C-104.67943328 125.45902108 -104.67146222 126.88147879 -104.67061615 128.30392456 C-104.6592017 137.87778705 -104.31138359 145.12953416 -97.25 152.1875 C-87.23068328 160.02777556 -75.17847013 164.74701001 -63.0625 168.1875 C-61.85207031 168.54585937 -60.64164063 168.90421875 -59.39453125 169.2734375 C-25.12726214 178.75311236 13.17795289 177.34657768 47.76074219 170.64648438 C51.19187733 170.15074705 54.47545024 170.11107506 57.9375 170.1875 C59.54049483 174.39536142 60.03793342 177.70565878 59.9375 182.1875 C52.11756265 184.23316079 44.30828493 185.67350539 36.3125 186.8125 C35.45503174 186.93536377 34.59756348 187.05822754 33.71411133 187.18481445 C-11.15181638 193.3795486 -63.24927482 190.63769437 -102.0625 165.1875 C-102.7225 164.5275 -103.3825 163.8675 -104.0625 163.1875 C-104.1553245 171.68915072 -104.22632753 180.19058845 -104.26974869 188.69262123 C-104.29059247 192.64080373 -104.31885049 196.58863863 -104.36425781 200.53662109 C-104.40783152 204.34919001 -104.43166124 208.16142532 -104.44200897 211.97422409 C-104.44937981 213.42626571 -104.46377356 214.87828979 -104.48542023 216.33018875 C-104.51460976 218.36977333 -104.51844986 220.40799289 -104.51660156 222.44775391 C-104.52548401 223.60691315 -104.53436646 224.76607239 -104.54351807 225.96035767 C-103.61758649 232.17241747 -99.35828431 236.42763078 -94.70703125 240.328125 C-81.95340844 249.29522169 -66.77293164 254.0894611 -51.6875 257.375 C-50.98197998 257.53000977 -50.27645996 257.68501953 -49.54956055 257.84472656 C-47.06102318 258.35221902 -44.56963581 258.78099588 -42.0625 259.1875 C-40.94593018 259.36990234 -39.82936035 259.55230469 -38.67895508 259.74023438 C-24.66029677 261.71045242 -10.62804109 261.40918619 3.5 261.3125 C6.07226213 261.3024464 8.64452807 261.29332478 11.21679688 261.28515625 C17.45711596 261.26334009 23.69728963 261.23005248 29.9375 261.1875 C30.83195704 265.26537895 31.01946118 269.00748005 30.9375 273.1875 C20.01696964 276.40726676 7.01272882 275.39423264 -4.3125 275.375 C-5.03405273 275.37406342 -5.75560547 275.37312683 -6.49902344 275.37216187 C-39.07843348 275.28091435 -72.30139703 270.18774846 -100.29711914 252.55859375 C-101.005746 252.11314209 -101.71437286 251.66769043 -102.44447327 251.20874023 C-103.2453965 250.70322632 -103.2453965 250.70322632 -104.0625 250.1875 C-104.13864689 257.76800086 -104.1911408 265.34840284 -104.22729492 272.92919922 C-104.24236905 275.50736171 -104.26283167 278.08549862 -104.28881836 280.66357422 C-104.32526086 284.37213461 -104.34224052 288.08035554 -104.35546875 291.7890625 C-104.37095261 292.93927887 -104.38643646 294.08949524 -104.40238953 295.27456665 C-104.40382786 302.13425858 -103.83026351 306.68030947 -99.46875 312.20703125 C-86.48385324 324.42028455 -67.79060286 329.57834843 -50.8125 333.3125 C-50.09900391 333.47145752 -49.38550781 333.63041504 -48.65039062 333.79418945 C-33.69862548 336.90477249 -18.86032029 337.51145511 -3.63330078 337.44824219 C-0.56653075 337.4375141 2.49965375 337.44820629 5.56640625 337.4609375 C17.17351684 337.46993707 28.45993641 336.93382395 39.9375 335.1875 C41.03191406 335.02121094 42.12632812 334.85492188 43.25390625 334.68359375 C64.7067528 331.16718053 90.3637433 325.75537473 103.9375 307.1875 C105.51980808 304.02288385 105.17907813 300.59670633 105.25390625 297.1171875 C105.27468735 296.32095978 105.29546844 295.52473206 105.31687927 294.70437622 C105.38234149 292.15717315 105.44124415 289.60986575 105.5 287.0625 C105.5431884 285.33722873 105.58680279 283.61196807 105.63085938 281.88671875 C105.73801945 277.65375315 105.83929623 273.42068247 105.9375 269.1875 C110.2275 269.1875 114.5175 269.1875 118.9375 269.1875 C119.06209983 274.41609225 119.15230498 279.64380019 119.2121582 284.87353516 C119.23713627 286.64842809 119.27113126 288.42321993 119.31469727 290.19775391 C119.6000787 302.13005513 119.1712454 310.27783255 111.75390625 320.0703125 C94.53827044 337.19643894 69.33924658 344.50545769 45.9375 348.1875 C45.11459473 348.32575195 44.29168945 348.46400391 43.44384766 348.60644531 C-2.64861683 356.15086126 -61.03704003 354.85482969 -101.0625 328.1875 C-109.30663932 322.00998097 -116.31080297 314.63938695 -118.0625 304.1875 C-118.15149419 302.65237073 -118.19661037 301.11419511 -118.2023077 299.57649899 C-118.21084456 298.22459261 -118.21084456 298.22459261 -118.21955389 296.845375 C-118.22073376 295.86425999 -118.22191364 294.88314497 -118.22312927 293.87229919 C-118.230761 292.29825643 -118.230761 292.29825643 -118.23854691 290.69241482 C-118.25426298 287.17051418 -118.26279427 283.64863404 -118.27124023 280.12670898 C-118.28077936 277.60360077 -118.29067055 275.08049386 -118.30088806 272.55738831 C-118.32955644 264.9820507 -118.34935201 257.40671028 -118.36628041 249.83133826 C-118.37107898 247.69018392 -118.37606186 245.54903007 -118.38108563 243.40787625 C-118.41205909 230.09910118 -118.43873173 216.79032166 -118.45550442 203.48152065 C-118.45945362 200.40101043 -118.46345666 197.32050029 -118.4675293 194.23999023 C-118.46853766 193.47438686 -118.46954602 192.70878348 -118.47058494 191.91998 C-118.48758165 179.52550772 -118.52868244 167.13123544 -118.57955229 154.73686074 C-118.6313994 141.99914536 -118.6604559 129.26153268 -118.6677013 116.52371269 C-118.67235445 109.37699181 -118.68700967 102.23059855 -118.7274456 95.08398247 C-118.76545961 88.35744436 -118.77270666 81.63156211 -118.75943947 74.90489769 C-118.75949334 72.44108597 -118.76975873 69.97724923 -118.7911911 67.51353073 C-118.91801529 52.10653159 -118.65337907 41.50443491 -108.125 29.5 C-89.9058385 12.65414213 -63.73608806 5.98425568 -39.8125 2.625 C-38.96042969 2.49931641 -38.10835938 2.37363281 -37.23046875 2.24414062 C-24.84445027 0.48130193 -12.49798047 -0.01940736 0 0 Z " fill="#FBFBFE" transform="translate(201.0625,82.8125)"></path><path d="M0 0 C6.42864946 3.70161457 10.78974272 9.49183092 12.80859375 16.6171875 C13.87225732 25.04283714 12.7275906 31.6257199 7.80859375 38.6171875 C3.30511143 43.92078089 -2.52580509 46.85737236 -9.19140625 48.6171875 C-12.11035156 48.77587891 -12.11035156 48.77587891 -15.01953125 48.71875 C-15.9930957 48.70408691 -16.96666016 48.68942383 -17.96972656 48.67431641 C-18.70288086 48.65546387 -19.43603516 48.63661133 -20.19140625 48.6171875 C-20.6196167 49.36291016 -21.04782715 50.10863281 -21.48901367 50.87695312 C-23.09995345 53.68070624 -24.71225449 56.48367099 -26.32543945 59.28613281 C-27.01933336 60.49220565 -27.712706 61.69857855 -28.40551758 62.90527344 C-34.91701857 74.2451582 -34.91701857 74.2451582 -38.171875 79.3046875 C-40.37628506 82.32760358 -40.37628506 82.32760358 -40.31640625 85.1171875 C-38.97029441 88.10854715 -37.30292869 90.75655637 -35.4453125 93.45703125 C-30.9729219 101.16180385 -30.81834723 110.44369728 -33.06640625 118.9140625 C-36.36198131 127.45653996 -41.5543217 134.46215543 -49.19140625 139.6171875 C-51.51578509 140.63782821 -53.8484155 141.64002897 -56.19140625 142.6171875 C-56.30998752 154.00098934 -56.05753417 165.26472512 -55.19140625 176.6171875 C-54.03640625 177.0090625 -52.88140625 177.4009375 -51.69140625 177.8046875 C-47.10884578 179.3594848 -43.22846129 182.00486615 -39.19140625 184.6171875 C-26.20757394 178.54486996 -26.20757394 178.54486996 -18.0390625 167.91796875 C-18.1982986 164.30945211 -18.1982986 164.30945211 -18.7890625 160.7890625 C-19.32683305 156.54955101 -18.34282717 154.5502482 -15.79296875 151.23828125 C-11.23404838 146.62376429 -7.27447158 144.33733989 -0.69140625 144.0546875 C5.91965405 144.38478205 10.623558 146.31714987 15.18359375 151.1171875 C18.86043413 156.77386501 19.45192791 160.90368429 18.80859375 167.6171875 C16.81516844 174.65280623 12.58725263 178.42954289 6.43359375 181.9921875 C2.14480213 183.01332836 -2.84218835 183.45443497 -7.0546875 181.953125 C-10.01329077 181.48796982 -11.09814103 182.43211418 -13.5625 184.07421875 C-14.38427734 184.60982422 -15.20605469 185.14542969 -16.05273438 185.69726562 C-16.90287109 186.26896484 -17.75300781 186.84066406 -18.62890625 187.4296875 C-20.31265911 188.54406773 -21.99878923 189.65486604 -23.6875 190.76171875 C-24.80402954 191.50965698 -24.80402954 191.50965698 -25.94311523 192.27270508 C-28.28952156 193.67586065 -30.63115198 194.6691017 -33.19140625 195.6171875 C-33.03285156 196.17148437 -32.87429688 196.72578125 -32.7109375 197.296875 C-30.63876787 206.55152733 -32.5750744 214.58198468 -37.37109375 222.5859375 C-42.23492878 229.14779778 -49.76688309 232.93348635 -57.73046875 234.1640625 C-67.64011189 234.55267596 -74.79395179 232.00826075 -82.06640625 225.3046875 C-87.44114753 219.48627654 -89.82847371 213.24457736 -90.44140625 205.4296875 C-89.75911355 195.02472385 -85.90027937 188.62292957 -78.19140625 181.6171875 C-72.71717945 177.6171875 -72.71717945 177.6171875 -69.19140625 177.6171875 C-69.22169922 177.04911377 -69.25199219 176.48104004 -69.28320312 175.89575195 C-69.84915709 165.12847771 -70.37149371 154.40242536 -70.19140625 143.6171875 C-70.74828125 143.59140625 -71.30515625 143.565625 -71.87890625 143.5390625 C-80.91818854 142.86722395 -87.98527073 139.26661841 -94.19140625 132.6171875 C-95.5558403 130.63827429 -96.89472268 128.64114142 -98.19140625 126.6171875 C-99.25359375 126.74996094 -100.31578125 126.88273438 -101.41015625 127.01953125 C-102.83723958 127.19791667 -104.26432292 127.37630208 -105.69140625 127.5546875 C-106.3875 127.64169922 -107.08359375 127.72871094 -107.80078125 127.81835938 C-110.703125 128.18115234 -113.60546875 128.54394531 -116.5078125 128.90673828 C-117.23871094 128.99810059 -117.96960938 129.08946289 -118.72265625 129.18359375 C-119.86734375 129.32667969 -121.01203125 129.46976563 -122.19140625 129.6171875 C-122.14975342 130.22570557 -122.10810059 130.83422363 -122.06518555 131.46118164 C-121.72221325 137.4351232 -122.61073517 141.76994925 -126.19140625 146.6171875 C-131.18362274 151.87950525 -135.7969256 156.18392884 -143.2421875 156.91796875 C-151.78487231 156.94866103 -159.07975593 156.44158655 -165.73828125 150.38671875 C-170.49064552 144.59956549 -174.20646784 137.38010312 -173.57421875 129.765625 C-172.1527105 121.78777259 -169.4125417 115.99636477 -163.19140625 110.6171875 C-156.86858565 106.24637863 -150.83787978 104.32499275 -143.19140625 105.6171875 C-136.16852227 107.63690742 -130.33491757 110.40192052 -126.19140625 116.6171875 C-121.01110717 115.91604321 -115.88788689 115.03639103 -110.75390625 114.0546875 C-110.02236328 113.91611328 -109.29082031 113.77753906 -108.53710938 113.63476562 C-106.75494307 113.2969694 -104.97313623 112.95727762 -103.19140625 112.6171875 C-103.0934375 111.63878906 -102.99546875 110.66039062 -102.89453125 109.65234375 C-102.745 108.34136719 -102.59546875 107.03039062 -102.44140625 105.6796875 C-102.23257813 103.74802734 -102.23257813 103.74802734 -102.01953125 101.77734375 C-101.28576443 97.02516524 -99.30390687 92.90114513 -97.19140625 88.6171875 C-100.1920896 85.44328531 -103.21526993 82.2931713 -106.26123047 79.1628418 C-107.29373658 78.0951624 -108.31986966 77.02128101 -109.33935547 75.94116211 C-110.80749835 74.38796129 -112.2972445 72.85863062 -113.79296875 71.33203125 C-114.68322754 70.40511475 -115.57348633 69.47819824 -116.49072266 68.52319336 C-119.06363476 66.28690049 -119.06363476 66.28690049 -122.28662109 66.79907227 C-123.2452002 67.06905029 -124.2037793 67.33902832 -125.19140625 67.6171875 C-132.03927208 68.27988419 -135.84000762 66.95776639 -141.19140625 62.6171875 C-146.23644257 57.30662295 -147.73838034 52.40259935 -147.56640625 45.1796875 C-146.81900973 40.07247797 -144.23394238 36.41390419 -140.40625 33.046875 C-135.29443767 29.24828834 -131.50604917 28.1079421 -125.19140625 28.6171875 C-117.88467585 30.80670431 -114.15328855 34.08491123 -110.02734375 40.3984375 C-108.87292181 43.46251069 -109.40715888 45.87601208 -109.75390625 49.1171875 C-109.83542669 54.3562347 -109.27023212 57.36877687 -105.76660156 61.37988281 C-103.8147348 63.38169633 -101.81359479 65.31088139 -99.74462891 67.19140625 C-97.23796987 69.49239474 -94.88748841 71.93927549 -92.50390625 74.3671875 C-91.06899572 75.78647692 -89.63252559 77.20420281 -88.19140625 78.6171875 C-84.89343584 77.5503335 -81.78813568 76.43323952 -78.62890625 74.9921875 C-70.17860341 71.80308854 -60.67939747 73.31535937 -52.19140625 75.6171875 C-51.66933594 74.74320312 -51.14726562 73.86921875 -50.609375 72.96875 C-50.2592334 72.38391846 -49.9090918 71.79908691 -49.54833984 71.1965332 C-48.75948577 69.87820819 -47.97208283 68.55901391 -47.18603516 67.23901367 C-44.8778934 63.37671117 -42.52565622 59.54962313 -40.109375 55.75390625 C-39.3500769 54.54903564 -39.3500769 54.54903564 -38.57543945 53.31982422 C-37.58016248 51.74341885 -36.57496853 50.17322529 -35.55932617 48.60986328 C-35.10533447 47.88653809 -34.65134277 47.16321289 -34.18359375 46.41796875 C-33.7747998 45.78028564 -33.36600586 45.14260254 -32.94482422 44.4855957 C-31.98543391 42.1063948 -32.29190093 40.98399934 -33.19140625 38.6171875 C-33.66578125 37.9984375 -34.14015625 37.3796875 -34.62890625 36.7421875 C-39.02911016 30.75791018 -38.80028857 23.74579438 -38.19140625 16.6171875 C-36.80466261 10.45275774 -34.09997948 5.5785609 -28.81640625 2.015625 C-18.59515366 -4.25380609 -11.03321659 -4.97548875 0 0 Z " fill="#FBFBFE" transform="translate(416.19140625,201.3828125)"></path><path d="M0 0 C0.80872559 0.14453613 1.61745117 0.28907227 2.45068359 0.43798828 C22.67306298 4.19458334 45.82303866 10.23544181 60 26 C62.5191398 29.67398142 63.60766335 32.32688101 63.41015625 36.88671875 C62.06015794 43.84242433 56.67158915 49.17119992 51 53 C41.44515329 58.78560862 31.76885649 62.93814111 21 66 C20.28312012 66.21253418 19.56624023 66.42506836 18.82763672 66.64404297 C-24.91241091 79.45450237 -83.49900826 79.31298541 -125 59 C-125.9384375 58.55011719 -126.876875 58.10023438 -127.84375 57.63671875 C-135.19062788 53.89263676 -143.34691375 49.14518124 -147.0625 41.4375 C-148.29736893 36.90964726 -149.24244845 33.37665328 -146.96875 29.02734375 C-134.16809194 10.57306171 -107.93170538 3.8087431 -87 0 C-58.68724464 -4.85302891 -28.29376818 -5.11109712 0 0 Z " fill="#4259DB" transform="translate(244,99)"></path><path d="M0 0 C5.64336225 3.29388082 10.48747161 8.02565181 12.625 14.3125 C13.50087835 20.73560788 13.36166446 26.81232286 10.02734375 32.49609375 C5.74799677 38.03898051 0.51767229 42.68005403 -6.55078125 43.59375 C-13.44139205 44.02240386 -18.76874269 42.34591748 -24.375 38.3125 C-30.76735421 31.64785484 -31.80475828 25.94202915 -31.7109375 16.83203125 C-31.13494278 10.79748193 -28.8236652 7.48009273 -24.3671875 3.53515625 C-17.17979941 -2.10071079 -8.62079216 -4.07229801 0 0 Z " fill="#4358D9" transform="translate(358.375,289.6875)"></path><path d="M0 0 C4.87995132 2.26569169 7.63239735 5.17373306 10 10 C11.01121284 15.5616706 10.11862418 20.37785466 7.31640625 25.26953125 C4.42018433 29.07673098 1.22713466 30.66116493 -3.46484375 31.375 C-9.14579318 31.648369 -12.60986528 30.86749964 -17 27 C-20.8980006 22.7859453 -21.79568604 20.20659081 -22.3125 14.625 C-21.82800512 9.00485935 -19.1027342 6.26814434 -15.5 2.125 C-11.03379666 -1.39555314 -5.35318651 -0.78680076 0 0 Z " fill="#4050D2" transform="translate(361,391)"></path><path d="M0 0 C3.43761572 2.12108204 5.77560839 4.1042085 7 8 C7.4824587 13.21055397 6.98916514 16.66088932 4 21 C0.85252391 23.56725954 -2.05862476 24.84630608 -6.0625 25.5 C-10.58570395 24.73009295 -13.60744069 22.55463866 -16.64453125 19.1640625 C-19.04108304 15.33786742 -18.74113344 11.35072777 -18 7 C-14.02563039 -0.72794092 -7.80556574 -1.93745293 0 0 Z " fill="#4A65E4" transform="translate(409,212)"></path><path d="M0 0 C3.2186267 2.1213676 4.36898801 3.20652425 5.75 6.8125 C6.37643013 10.97478018 6.75165414 14.96500458 4.6953125 18.7578125 C2.2039 21.80942427 0.26015517 23.64227317 -3.67578125 24.0859375 C-11.50299519 24.36131986 -11.50299519 24.36131986 -15.3125 21.5625 C-18.73630504 16.70290575 -19.88418719 13.94297618 -19.25 7.8125 C-14.95433332 -0.46063583 -8.93630974 -3.2651901 0 0 Z " fill="#4150D1" transform="translate(275.25,321.1875)"></path><path d="M0 0 C2 2 2 2 2.3125 5.4375 C2 9 2 9 0.875 10.9375 C-1.88980433 12.50422245 -3.88188517 12.38976435 -7 12 C-8.875 10.9375 -8.875 10.9375 -10 9 C-10.4375 5.5 -10.4375 5.5 -10 2 C-7.00303875 -1.6885677 -4.34072074 -1.22672543 0 0 Z " fill="#495DDA" transform="translate(292,244)"></path><path d="M0 0 C0.70125 -0.01675781 1.4025 -0.03351563 2.125 -0.05078125 C2.74375 0.06910156 3.3625 0.18898438 4 0.3125 C6.31282587 3.78173881 6.42478586 5.23455575 6 9.3125 C4.875 11.1875 4.875 11.1875 3 12.3125 C-0.11811483 12.70226435 -2.11019567 12.81672245 -4.875 11.25 C-6.61973477 8.24517901 -6.30835443 5.70439869 -6 2.3125 C-3.67471713 -0.01278287 -3.15334102 0.01738975 0 0 Z " fill="#475BDA" transform="translate(416,358.6875)"></path></svg>