<svg version="1.1" xmlns="http://www.w3.org/2000/svg" width="16px" height="16px" fill="currentColor" viewBox="0 0 512 512"><path d="M0 0 C168.96 0 337.92 0 512 0 C512 168.96 512 337.92 512 512 C343.04 512 174.08 512 0 512 C0 343.04 0 174.08 0 0 Z " fill="#2D8F7A" transform="translate(0,0)"></path><path d="M0 0 C0.86955322 0.50378174 1.73910645 1.00756348 2.63500977 1.52661133 C3.62500977 2.0912207 4.61500977 2.65583008 5.63500977 3.23754883 C6.68817383 3.85500977 7.74133789 4.4724707 8.82641602 5.10864258 C10.48543945 6.0599707 10.48543945 6.0599707 12.17797852 7.03051758 C14.47230045 8.34641716 16.76378908 9.66726844 19.05249023 10.99291992 C23.97730034 13.83911853 28.93348149 16.62873966 33.88891602 19.42114258 C35.78610895 20.49525974 37.6832439 21.56947933 39.58032227 22.64379883 C43.56023353 24.89360773 47.54775541 27.12914712 51.54125977 29.35473633 C61.94612679 35.15422357 72.3067391 41.00990744 82.57641602 47.04614258 C92.10255066 52.64419943 101.74630433 57.9869561 111.46313477 63.24536133 C117.83588392 66.69650629 124.13201127 70.26393769 130.38891602 73.92114258 C131.04569336 74.30431641 131.7024707 74.68749023 132.37915039 75.08227539 C134.44863745 76.29318667 136.51329376 77.51192337 138.57641602 78.73364258 C139.21313232 79.10706787 139.84984863 79.48049316 140.50585938 79.86523438 C146.65492182 83.53700069 146.65492182 83.53700069 148.38891602 85.92114258 C148.68565516 88.4281821 148.79813065 90.68785812 148.77659607 93.19564819 C148.78467438 94.31513648 148.78467438 94.31513648 148.79291588 95.4572407 C148.80725687 97.96539383 148.80007679 100.47302375 148.79296875 102.98120117 C148.79866918 104.77646816 148.80563216 106.57173152 148.81376648 108.36698914 C148.83175073 113.24927491 148.83051946 118.13138148 148.82482409 123.01369047 C148.82173936 127.08683595 148.82781681 131.15994664 148.83386284 135.23308718 C148.8479242 144.84170002 148.84633383 154.45022399 148.83496094 164.05883789 C148.823482 173.97626508 148.83754797 183.89342178 148.86435741 193.81081331 C148.88650127 202.32045505 148.89315464 210.8300118 148.887281 219.33968031 C148.8839066 224.42429745 148.88635834 229.50874124 148.90353203 234.5933342 C148.91897779 239.37536853 148.91507198 244.15700181 148.89622688 248.93902016 C148.89253421 250.69460917 148.89566918 252.45022773 148.90611267 254.20578957 C148.91927862 256.60188095 148.90781534 258.99663608 148.89012146 261.39266968 C148.89972647 262.08810265 148.90933147 262.78353562 148.91922754 263.50004232 C148.84725233 268.23444329 147.71031726 270.58576144 144.38891602 273.92114258 C141.82128906 275.65942383 141.82128906 275.65942383 138.90063477 277.23364258 C137.81363281 277.82741699 136.72663086 278.42119141 135.60668945 279.03295898 C134.4299494 279.66238671 133.25319113 280.2917804 132.07641602 280.92114258 C130.85601347 281.58445115 129.6362951 282.24901993 128.41723633 282.91479492 C125.93428992 284.27041039 123.4491693 285.62190461 120.96264648 286.97094727 C115.82039862 289.76848707 110.7287586 292.65464013 105.63891602 295.54614258 C103.75875201 296.61132499 101.87854377 297.67642934 99.99829102 298.74145508 C99.07467773 299.26513672 98.15106445 299.78881836 97.19946289 300.32836914 C92.43173516 303.0303024 87.66010681 305.72533091 82.88891602 308.42114258 C80.97223117 309.50444374 79.05556449 310.58777706 77.13891602 311.67114258 C42.63891602 331.17114258 42.63891602 331.17114258 39.75952148 332.79858398 C37.85745468 333.87369336 35.95543584 334.94888761 34.0534668 336.02416992 C29.03882784 338.85905509 24.02317753 341.6921313 19.00610352 344.52270508 C17.96131836 345.11245117 16.9165332 345.70219727 15.84008789 346.30981445 C13.83909291 347.43926495 11.83780634 348.56819907 9.83618164 349.6965332 C8.48169922 350.46126953 8.48169922 350.46126953 7.09985352 351.24145508 C6.30885254 351.68763184 5.51785156 352.13380859 4.70288086 352.59350586 C3.03712697 353.54923171 1.39180796 354.54089641 -0.23925781 355.5546875 C-3.47102542 357.41657153 -4.89729691 357.52490445 -8.61108398 356.92114258 C-12.24271516 355.28137994 -15.62678583 353.26922102 -19.04858398 351.23364258 C-21.12000176 350.03148048 -23.19162197 348.82966714 -25.26342773 347.62817383 C-26.31900879 347.01022949 -27.37458984 346.39228516 -28.4621582 345.75561523 C-33.3169709 342.92734243 -38.21436631 340.17599389 -43.11108398 337.42114258 C-45.02798742 336.33822825 -46.94465344 335.25489356 -48.86108398 334.17114258 C-49.80983398 333.63489258 -50.75858398 333.09864258 -51.73608398 332.54614258 C-79.04858398 317.10864258 -79.04858398 317.10864258 -106.36108398 301.67114258 C-107.78578003 300.86592163 -107.78578003 300.86592163 -109.23925781 300.04443359 C-111.14544217 298.96696868 -113.05153028 297.88933346 -114.95751953 296.81152344 C-119.90876779 294.01196013 -124.86192734 291.21585924 -129.81811523 288.42504883 C-130.8403418 287.84883789 -131.86256836 287.27262695 -132.91577148 286.67895508 C-134.85134187 285.58799722 -136.78749367 284.49806991 -138.72436523 283.40942383 C-141.35921211 281.92349274 -143.98623326 280.42464997 -146.61108398 278.92114258 C-147.98852783 278.14359619 -147.98852783 278.14359619 -149.39379883 277.3503418 C-150.72918701 276.57907959 -150.72918701 276.57907959 -152.09155273 275.79223633 C-153.28687622 275.10859009 -153.28687622 275.10859009 -154.50634766 274.41113281 C-156.91566287 272.70552433 -158.1086622 271.47531935 -159.61108398 268.92114258 C-159.90567656 266.37433703 -160.02919078 264.0720598 -160.01222229 261.52638245 C-160.01901896 260.77920249 -160.02581563 260.03202254 -160.03281826 259.26220077 C-160.05181706 256.75717881 -160.04935178 254.25264465 -160.046875 251.74755859 C-160.05585079 249.95214203 -160.06605862 248.15673126 -160.07740784 246.36132812 C-160.10392834 241.48325476 -160.1109421 236.60533923 -160.1128552 231.72720075 C-160.11570274 227.65648666 -160.12673775 223.5858094 -160.13737148 219.51510948 C-160.16180459 209.9127233 -160.16912417 200.31042151 -160.16699219 190.70800781 C-160.16518907 180.79784182 -160.19685932 170.88816533 -160.24422318 160.97812325 C-160.28342731 152.47270351 -160.29954487 143.96744393 -160.29762596 135.46193451 C-160.29686041 130.38057658 -160.30544594 125.29965374 -160.33716011 120.2183857 C-160.36616773 115.44030687 -160.36646712 110.66308017 -160.34461021 105.88497162 C-160.34146824 104.1309809 -160.3485882 102.37693745 -160.36669159 100.62303734 C-160.3898063 98.22864724 -160.37596096 95.83721149 -160.35279846 93.44288635 C-160.36822915 92.7481355 -160.38365984 92.05338465 -160.39955813 91.33758074 C-160.34120611 88.60975625 -160.12198071 86.52021389 -158.31763732 84.4044627 C-155.26121825 81.80792201 -151.87130177 79.75321624 -148.36499023 77.82739258 C-147.3748291 77.27881592 -146.38466797 76.73023926 -145.36450195 76.16503906 C-144.31149902 75.58955322 -143.25849609 75.01406738 -142.17358398 74.42114258 C-139.91681001 73.17292106 -137.66030534 71.92421251 -135.40405273 70.67504883 C-134.26629395 70.04743652 -133.12853516 69.41982422 -131.95629883 68.77319336 C-126.94801554 66.00039837 -121.96621068 63.1816044 -116.98608398 60.35864258 C-115.08118741 59.28042686 -113.17623953 58.20230179 -111.27124023 57.12426758 C-110.33425293 56.59381836 -109.39726562 56.06336914 -108.43188477 55.5168457 C-105.63732072 53.93598448 -102.84126239 52.35780115 -100.04467773 50.78051758 C-90.81341609 45.57233412 -81.59461293 40.34384058 -72.39868164 35.07348633 C-71.21949413 34.39768464 -70.04029487 33.72190347 -68.86108398 33.04614258 C-68.27655457 32.71114746 -67.69202515 32.37615234 -67.08978271 32.03100586 C-57.16542383 26.34687173 -47.18758534 20.76563422 -37.16992188 15.24755859 C-32.03846922 12.41382809 -26.938348 9.54843285 -21.90795898 6.53833008 C-21.03792236 6.01988525 -20.16788574 5.50144043 -19.27148438 4.96728516 C-17.68028745 4.01262984 -16.09551792 3.04713471 -14.51904297 2.06835938 C-13.82109619 1.64981689 -13.12314941 1.23127441 -12.40405273 0.80004883 C-11.81132568 0.43468018 -11.21859863 0.06931152 -10.60791016 -0.30712891 C-6.84707165 -1.76060861 -3.69202423 -1.52548435 0 0 Z " fill="#2E907A" transform="translate(261.611083984375,78.078857421875)"></path><path d="M0 0 C5.9981944 2.72894951 9.67697941 6.52381077 12.99609375 12.1640625 C13.37378906 12.75316406 13.75148438 13.34226563 14.140625 13.94921875 C15.38754668 17.17755023 15.22142639 20.09285327 15.18359375 23.5390625 C15.17392578 25.46878906 15.17392578 25.46878906 15.1640625 27.4375 C15.01382703 30.77063101 14.62908669 33.892755 13.99609375 37.1640625 C14.43775879 37.50026611 14.87942383 37.83646973 15.33447266 38.18286133 C23.00735421 44.02730731 30.67018611 49.88171258 38.24609375 55.8515625 C38.8076416 56.29056885 39.36918945 56.7295752 39.94775391 57.18188477 C42.84695643 59.45120851 45.71233913 61.75101256 48.54296875 64.10546875 C49.69399908 65.04168061 50.84504034 65.97787902 51.99609375 66.9140625 C53.00671875 67.75453125 54.01734375 68.595 55.05859375 69.4609375 C57.9002205 71.4660182 57.9002205 71.4660182 61.24609375 70.9921875 C63.92481266 70.27066733 63.92481266 70.27066733 65.99609375 69.1640625 C76.44647206 68.10079726 83.56186102 69.93743705 91.80859375 76.3515625 C96.62594004 82.54529344 99.8874758 88.65096069 99.41015625 96.65234375 C98.0636134 104.82052348 94.65076524 111.16263925 87.99609375 116.1640625 C84.69813227 118.06022105 81.8603406 119.1640625 77.99609375 119.1640625 C77.81820312 120.36095703 77.81820312 120.36095703 77.63671875 121.58203125 C76.85841952 125.93386291 75.82417396 130.19062678 74.74609375 134.4765625 C74.52574463 135.35666992 74.30539551 136.23677734 74.07836914 137.14355469 C72.6508204 142.77266771 71.10429853 148.35263971 69.43359375 153.9140625 C67.74067205 159.55469388 66.1404704 165.20746945 64.68359375 170.9140625 C64.35746094 172.18765625 64.03132812 173.46125 63.6953125 174.7734375 C62.70367984 179.58202492 62.33624873 182.59611236 64.99609375 186.7890625 C67.66216032 191.91021195 67.97364214 196.50180143 66.99609375 202.1640625 C64.3266673 210.04569024 60.54375298 216.30698664 52.99609375 220.1640625 C45.78688448 223.00824369 36.96409118 223.88384752 29.68359375 220.7265625 C24.0910252 217.39001948 19.38264887 212.21198547 16.6953125 206.3046875 C15.86501891 202.57532411 16.50805608 200.03113178 17.18359375 196.2890625 C17.32814307 191.57955227 17.18105489 189.47913359 14.00830078 185.95800781 C8.8108876 181.40714843 3.16177069 177.50081653 -2.62207031 173.73535156 C-4.81734225 172.28713814 -6.918232 170.76480844 -9.00390625 169.1640625 C-12.07440581 170.59368779 -14.69350858 172.29789966 -17.41015625 174.31640625 C-18.64958984 175.23389648 -18.64958984 175.23389648 -19.9140625 176.16992188 C-20.76871094 176.80736328 -21.62335938 177.44480469 -22.50390625 178.1015625 C-23.78587891 179.05192383 -23.78587891 179.05192383 -25.09375 180.02148438 C-27.399805 181.73213828 -29.7032289 183.44618482 -32.00390625 185.1640625 C-32.74962891 185.65962646 -33.49535156 186.15519043 -34.26367188 186.66577148 C-36.38730546 188.13776507 -36.38730546 188.13776507 -36.25390625 191.421875 C-36.17140625 192.69804687 -36.08890625 193.97421875 -36.00390625 195.2890625 C-35.74743627 202.93919555 -36.57387477 208.36945067 -41.8046875 214.15625 C-48.8373734 220.73829777 -55.26668551 222.75043636 -64.84375 222.51953125 C-71.44067172 221.77747949 -76.11611738 218.50705858 -81.00390625 214.1640625 C-85.0972322 208.10842628 -87.92048463 201.91763401 -87.484375 194.52734375 C-86.81742102 191.24679777 -85.38044381 188.54060859 -83.88989258 185.56469727 C-81.30919504 178.57213763 -84.70683577 169.77579669 -86.69140625 162.9140625 C-87.23207498 160.99227304 -87.77242987 159.07039527 -88.3125 157.1484375 C-88.59077637 156.16810547 -88.86905273 155.18777344 -89.15576172 154.17773438 C-90.81988344 148.26468932 -92.40180537 142.32892882 -93.9987793 136.39746094 C-94.97093911 132.81712469 -95.95826062 129.29552192 -97.17578125 125.7890625 C-98.00390625 123.1640625 -98.00390625 123.1640625 -98.00390625 119.1640625 C-98.87015625 119.0815625 -99.73640625 118.9990625 -100.62890625 118.9140625 C-107.49991435 117.38717181 -112.09821696 112.79793289 -116.00390625 107.1640625 C-119.14813439 101.4997414 -120.00030756 95.54876995 -119.00390625 89.1640625 C-116.54643037 81.32863214 -111.67763318 75.82652926 -105.00390625 71.1640625 C-101.16367197 69.23451762 -97.97078634 68.86693752 -93.69140625 68.8515625 C-92.62277344 68.83480469 -91.55414063 68.81804687 -90.453125 68.80078125 C-87.30753372 69.13208362 -85.77078718 69.67164875 -83 70.97265625 C-81.01237563 71.84396984 -81.01237563 71.84396984 -79.00390625 72.1640625 C-76.20183596 70.72057175 -74.61998485 69.61867249 -72.37890625 67.5390625 C-71.15422736 66.49150727 -69.92895051 65.44465076 -68.703125 64.3984375 C-68.08743652 63.85638672 -67.47174805 63.31433594 -66.83740234 62.75585938 C-64.03845351 60.32587983 -61.11875166 58.06116397 -58.19140625 55.7890625 C-57.04682076 54.88939192 -55.90229091 53.98965054 -54.7578125 53.08984375 C-47.88847678 47.71845919 -40.94231325 42.4457065 -34.00390625 37.1640625 C-34.15988281 36.32359375 -34.31585938 35.483125 -34.4765625 34.6171875 C-35.91269424 25.21318408 -36.56388567 16.32587671 -30.9296875 8.2578125 C-22.61210603 -0.78523753 -11.76744346 -3.27468518 0 0 Z " fill="#FBFDFC" transform="translate(266.00390625,135.8359375)"></path><path d="M0 0 C0.86955322 0.50378174 1.73910645 1.00756348 2.63500977 1.52661133 C3.62500977 2.0912207 4.61500977 2.65583008 5.63500977 3.23754883 C6.68817383 3.85500977 7.74133789 4.4724707 8.82641602 5.10864258 C10.48543945 6.0599707 10.48543945 6.0599707 12.17797852 7.03051758 C14.47230045 8.34641716 16.76378908 9.66726844 19.05249023 10.99291992 C23.97730034 13.83911853 28.93348149 16.62873966 33.88891602 19.42114258 C35.78610895 20.49525974 37.6832439 21.56947933 39.58032227 22.64379883 C43.56023353 24.89360773 47.54775541 27.12914712 51.54125977 29.35473633 C61.94612679 35.15422357 72.3067391 41.00990744 82.57641602 47.04614258 C92.10255066 52.64419943 101.74630433 57.9869561 111.46313477 63.24536133 C117.83588392 66.69650629 124.13201127 70.26393769 130.38891602 73.92114258 C131.04569336 74.30431641 131.7024707 74.68749023 132.37915039 75.08227539 C134.44863745 76.29318667 136.51329376 77.51192337 138.57641602 78.73364258 C139.21313232 79.10706787 139.84984863 79.48049316 140.50585938 79.86523438 C146.65492182 83.53700069 146.65492182 83.53700069 148.38891602 85.92114258 C148.68565516 88.4281821 148.79813065 90.68785812 148.77659607 93.19564819 C148.78467438 94.31513648 148.78467438 94.31513648 148.79291588 95.4572407 C148.80725687 97.96539383 148.80007679 100.47302375 148.79296875 102.98120117 C148.79866918 104.77646816 148.80563216 106.57173152 148.81376648 108.36698914 C148.83175073 113.24927491 148.83051946 118.13138148 148.82482409 123.01369047 C148.82173936 127.08683595 148.82781681 131.15994664 148.83386284 135.23308718 C148.8479242 144.84170002 148.84633383 154.45022399 148.83496094 164.05883789 C148.823482 173.97626508 148.83754797 183.89342178 148.86435741 193.81081331 C148.88650127 202.32045505 148.89315464 210.8300118 148.887281 219.33968031 C148.8839066 224.42429745 148.88635834 229.50874124 148.90353203 234.5933342 C148.91897779 239.37536853 148.91507198 244.15700181 148.89622688 248.93902016 C148.89253421 250.69460917 148.89566918 252.45022773 148.90611267 254.20578957 C148.91927862 256.60188095 148.90781534 258.99663608 148.89012146 261.39266968 C148.89972647 262.08810265 148.90933147 262.78353562 148.91922754 263.50004232 C148.84725233 268.23444329 147.71031726 270.58576144 144.38891602 273.92114258 C141.82128906 275.65942383 141.82128906 275.65942383 138.90063477 277.23364258 C137.81363281 277.82741699 136.72663086 278.42119141 135.60668945 279.03295898 C134.4299494 279.66238671 133.25319113 280.2917804 132.07641602 280.92114258 C130.85601347 281.58445115 129.6362951 282.24901993 128.41723633 282.91479492 C125.93428992 284.27041039 123.4491693 285.62190461 120.96264648 286.97094727 C115.82039862 289.76848707 110.7287586 292.65464013 105.63891602 295.54614258 C103.75875201 296.61132499 101.87854377 297.67642934 99.99829102 298.74145508 C99.07467773 299.26513672 98.15106445 299.78881836 97.19946289 300.32836914 C92.43173516 303.0303024 87.66010681 305.72533091 82.88891602 308.42114258 C80.97223117 309.50444374 79.05556449 310.58777706 77.13891602 311.67114258 C42.63891602 331.17114258 42.63891602 331.17114258 39.75952148 332.79858398 C37.85745468 333.87369336 35.95543584 334.94888761 34.0534668 336.02416992 C29.03882784 338.85905509 24.02317753 341.6921313 19.00610352 344.52270508 C17.96131836 345.11245117 16.9165332 345.70219727 15.84008789 346.30981445 C13.83909291 347.43926495 11.83780634 348.56819907 9.83618164 349.6965332 C8.48169922 350.46126953 8.48169922 350.46126953 7.09985352 351.24145508 C6.30885254 351.68763184 5.51785156 352.13380859 4.70288086 352.59350586 C3.03712697 353.54923171 1.39180796 354.54089641 -0.23925781 355.5546875 C-3.47102542 357.41657153 -4.89729691 357.52490445 -8.61108398 356.92114258 C-12.24271516 355.28137994 -15.62678583 353.26922102 -19.04858398 351.23364258 C-21.12000176 350.03148048 -23.19162197 348.82966714 -25.26342773 347.62817383 C-26.31900879 347.01022949 -27.37458984 346.39228516 -28.4621582 345.75561523 C-33.3169709 342.92734243 -38.21436631 340.17599389 -43.11108398 337.42114258 C-45.02798742 336.33822825 -46.94465344 335.25489356 -48.86108398 334.17114258 C-49.80983398 333.63489258 -50.75858398 333.09864258 -51.73608398 332.54614258 C-79.04858398 317.10864258 -79.04858398 317.10864258 -106.36108398 301.67114258 C-107.78578003 300.86592163 -107.78578003 300.86592163 -109.23925781 300.04443359 C-111.14544217 298.96696868 -113.05153028 297.88933346 -114.95751953 296.81152344 C-119.90876779 294.01196013 -124.86192734 291.21585924 -129.81811523 288.42504883 C-130.8403418 287.84883789 -131.86256836 287.27262695 -132.91577148 286.67895508 C-134.85134187 285.58799722 -136.78749367 284.49806991 -138.72436523 283.40942383 C-141.35921211 281.92349274 -143.98623326 280.42464997 -146.61108398 278.92114258 C-147.98852783 278.14359619 -147.98852783 278.14359619 -149.39379883 277.3503418 C-150.72918701 276.57907959 -150.72918701 276.57907959 -152.09155273 275.79223633 C-153.28687622 275.10859009 -153.28687622 275.10859009 -154.50634766 274.41113281 C-156.91566287 272.70552433 -158.1086622 271.47531935 -159.61108398 268.92114258 C-159.90567656 266.37433703 -160.02919078 264.0720598 -160.01222229 261.52638245 C-160.01901896 260.77920249 -160.02581563 260.03202254 -160.03281826 259.26220077 C-160.05181706 256.75717881 -160.04935178 254.25264465 -160.046875 251.74755859 C-160.05585079 249.95214203 -160.06605862 248.15673126 -160.07740784 246.36132812 C-160.10392834 241.48325476 -160.1109421 236.60533923 -160.1128552 231.72720075 C-160.11570274 227.65648666 -160.12673775 223.5858094 -160.13737148 219.51510948 C-160.16180459 209.9127233 -160.16912417 200.31042151 -160.16699219 190.70800781 C-160.16518907 180.79784182 -160.19685932 170.88816533 -160.24422318 160.97812325 C-160.28342731 152.47270351 -160.29954487 143.96744393 -160.29762596 135.46193451 C-160.29686041 130.38057658 -160.30544594 125.29965374 -160.33716011 120.2183857 C-160.36616773 115.44030687 -160.36646712 110.66308017 -160.34461021 105.88497162 C-160.34146824 104.1309809 -160.3485882 102.37693745 -160.36669159 100.62303734 C-160.3898063 98.22864724 -160.37596096 95.83721149 -160.35279846 93.44288635 C-160.36822915 92.7481355 -160.38365984 92.05338465 -160.39955813 91.33758074 C-160.34120611 88.60975625 -160.12198071 86.52021389 -158.31763732 84.4044627 C-155.26121825 81.80792201 -151.87130177 79.75321624 -148.36499023 77.82739258 C-147.3748291 77.27881592 -146.38466797 76.73023926 -145.36450195 76.16503906 C-144.31149902 75.58955322 -143.25849609 75.01406738 -142.17358398 74.42114258 C-139.91681001 73.17292106 -137.66030534 71.92421251 -135.40405273 70.67504883 C-134.26629395 70.04743652 -133.12853516 69.41982422 -131.95629883 68.77319336 C-126.94801554 66.00039837 -121.96621068 63.1816044 -116.98608398 60.35864258 C-115.08118741 59.28042686 -113.17623953 58.20230179 -111.27124023 57.12426758 C-110.33425293 56.59381836 -109.39726562 56.06336914 -108.43188477 55.5168457 C-105.63732072 53.93598448 -102.84126239 52.35780115 -100.04467773 50.78051758 C-90.81341609 45.57233412 -81.59461293 40.34384058 -72.39868164 35.07348633 C-71.21949413 34.39768464 -70.04029487 33.72190347 -68.86108398 33.04614258 C-68.27655457 32.71114746 -67.69202515 32.37615234 -67.08978271 32.03100586 C-57.16542383 26.34687173 -47.18758534 20.76563422 -37.16992188 15.24755859 C-32.03846922 12.41382809 -26.938348 9.54843285 -21.90795898 6.53833008 C-21.03792236 6.01988525 -20.16788574 5.50144043 -19.27148438 4.96728516 C-17.68028745 4.01262984 -16.09551792 3.04713471 -14.51904297 2.06835938 C-13.82109619 1.64981689 -13.12314941 1.23127441 -12.40405273 0.80004883 C-11.81132568 0.43468018 -11.21859863 0.06931152 -10.60791016 -0.30712891 C-6.84707165 -1.76060861 -3.69202423 -1.52548435 0 0 Z M-11.71655273 15.05395508 C-12.5222168 15.52317383 -13.32788086 15.99239258 -14.15795898 16.47583008 C-15.46506836 17.25313477 -15.46506836 17.25313477 -16.79858398 18.04614258 C-18.69761332 19.15413164 -20.59738455 20.26084986 -22.49780273 21.36645508 C-23.49602051 21.94943359 -24.49423828 22.53241211 -25.52270508 23.13305664 C-30.68542924 26.12213109 -35.89944306 29.0184871 -41.11108398 31.92114258 C-49.65790464 36.693373 -58.17436639 41.51429881 -66.66455078 46.38647461 C-73.39004947 50.23960504 -80.15304227 54.02284291 -86.92358398 57.79614258 C-96.27082062 63.00735106 -105.52688158 68.35748546 -114.7512207 73.78271484 C-122.71929132 78.4487439 -130.79025481 82.9059114 -138.92236328 87.27905273 C-140.22040894 87.97780518 -140.22040894 87.97780518 -141.54467773 88.69067383 C-142.3083667 89.09906494 -143.07205566 89.50745605 -143.85888672 89.92822266 C-145.57880084 90.79999854 -145.57880084 90.79999854 -146.61108398 91.92114258 C-146.70810003 94.13606118 -146.73295089 96.35414054 -146.7313385 98.57118225 C-146.73219293 99.27440768 -146.73304735 99.97763311 -146.73392767 100.70216841 C-146.73558451 103.07604774 -146.73005779 105.44985756 -146.72460938 107.82373047 C-146.72432752 109.51843769 -146.7244852 111.21314503 -146.72505188 112.90785217 C-146.72533993 117.52335884 -146.71944207 122.13883975 -146.71247792 126.75434041 C-146.70624554 131.57234522 -146.70564068 136.39035055 -146.70445251 141.20835876 C-146.70133886 150.33856755 -146.693125 159.46876443 -146.68310302 168.59896797 C-146.67194296 178.99056934 -146.66643171 189.38217126 -146.66140759 199.77377713 C-146.65094242 221.15623894 -146.63334231 242.53869001 -146.61108398 263.92114258 C-143.24187565 265.84717153 -139.87253616 267.77297093 -136.50317383 269.69873047 C-135.55413681 270.2412571 -134.60509979 270.78378372 -133.62730408 271.34275055 C-127.17295719 275.03153711 -120.71161116 278.70714734 -114.23608398 282.35864258 C-112.29856572 283.45236023 -110.36106627 284.54611121 -108.42358398 285.63989258 C-107.46194336 286.18258789 -106.50030273 286.7252832 -105.50952148 287.28442383 C-102.64652812 288.90112763 -99.784829 290.52009685 -96.92358398 292.13989258 C-86.95859572 297.78009649 -76.98130647 303.39717502 -66.98608398 308.98364258 C-58.45223818 313.75456376 -49.94404559 318.56715279 -41.46264648 323.43066406 C-33.6582101 327.90395688 -25.82517415 332.32597423 -17.98364258 336.73388672 C-17.06405762 337.25200928 -16.14447266 337.77013184 -15.19702148 338.30395508 C-13.97571533 338.99062256 -13.97571533 338.99062256 -12.72973633 339.69116211 C-10.98493666 340.70410297 -9.28975964 341.80202547 -7.61108398 342.92114258 C-1.76292604 342.79021367 2.63373335 339.76493401 7.51391602 336.85864258 C9.39646953 335.76054221 11.27929651 334.66291057 13.16235352 333.56567383 C14.67007324 332.68129639 14.67007324 332.68129639 16.20825195 331.77905273 C21.24030304 328.83969836 26.30052793 325.94973781 31.36160278 323.0607605 C33.15230923 322.03849677 34.94238949 321.01514272 36.73242188 319.99169922 C50.6531328 312.03773211 64.65380947 304.22694312 78.66235352 296.42895508 C91.07296897 289.51149975 103.39891111 282.46797217 115.65063477 275.27270508 C122.20451605 271.44477441 128.79904705 267.68678199 135.38891602 263.92114258 C135.38891602 207.16114258 135.38891602 150.40114258 135.38891602 91.92114258 C119.20224704 82.67161745 103.02632183 73.47262844 86.72094727 64.44458008 C79.28639635 60.31888054 71.90794403 56.09820997 64.53344727 51.86645508 C59.1453299 48.77604455 53.73679456 45.72236337 48.32641602 42.67114258 C39.43706517 37.65447871 30.56454919 32.60892888 21.70141602 27.54614258 C19.98329712 26.56532715 19.98329712 26.56532715 18.23046875 25.56469727 C17.12388916 24.93208984 16.01730957 24.29948242 14.87719727 23.64770508 C13.80163574 23.03443359 12.72607422 22.42116211 11.61791992 21.78930664 C9.40923963 20.51145835 7.21403957 19.21010059 5.03100586 17.88891602 C3.43506592 16.92646973 3.43506592 16.92646973 1.80688477 15.94458008 C0.85966553 15.36369629 -0.08755371 14.7828125 -1.06347656 14.18432617 C-5.26043139 12.10334445 -7.90246164 12.79931562 -11.71655273 15.05395508 Z " fill="#FAFCFB" transform="translate(261.611083984375,78.078857421875)"></path><path d="M0 0 C1.32 0.66 2.64 1.32 4 2 C4 8.93 4 15.86 4 23 C2.47375 23.680625 0.9475 24.36125 -0.625 25.0625 C-6.6430682 28.08005828 -10.60394731 31.52665929 -13.13671875 37.828125 C-14.03307099 41.12150969 -14.30001674 43.9045702 -14.3125 47.3125 C-14.32925781 48.36050781 -14.34601563 49.40851563 -14.36328125 50.48828125 C-14.03187968 53.6918298 -13.42063288 55.43717119 -12.1796875 58.3203125 C-11.17641248 61.13824296 -10.85750485 62.5043625 -11.69116211 65.40405273 C-12.93508896 67.89771092 -14.30858712 70.21685924 -15.8125 72.5625 C-16.30298828 73.38041016 -16.79347656 74.19832031 -17.29882812 75.04101562 C-18.50628459 77.04562782 -19.73907568 79.02874967 -21 81 C-24.03603225 79.58229898 -26.64251627 77.90726029 -29.3359375 75.91796875 C-30.15320313 75.31533203 -30.97046875 74.71269531 -31.8125 74.09179688 C-32.658125 73.46337891 -33.50375 72.83496094 -34.375 72.1875 C-35.21289062 71.57068359 -36.05078125 70.95386719 -36.9140625 70.31835938 C-39.2886887 68.5616587 -41.64793448 66.78675999 -44 65 C-44.64114746 64.52014648 -45.28229492 64.04029297 -45.94287109 63.54589844 C-47.609375 62.24609375 -47.609375 62.24609375 -50 60 C-49.875 56.875 -49.875 56.875 -49 53 C-48.88927258 51.16894653 -48.83008931 49.33431403 -48.8125 47.5 C-48.79832031 46.6234375 -48.78414062 45.746875 -48.76953125 44.84375 C-49.04976314 41.38597348 -49.96580498 38.30288369 -51 35 C-42.91384282 28.49081124 -34.81203099 22.01455085 -26.54296875 15.73828125 C-23.77265383 13.62084823 -21.06514509 11.43449069 -18.36328125 9.23046875 C-17.55866455 8.58255371 -16.75404785 7.93463867 -15.92504883 7.26708984 C-14.33303744 5.98392834 -12.75043864 4.68898224 -11.1784668 3.38134766 C-10.44926025 2.79788574 -9.72005371 2.21442383 -8.96875 1.61328125 C-8.32357422 1.08516846 -7.67839844 0.55705566 -7.01367188 0.01293945 C-4.26699295 -1.3687253 -2.89086976 -0.91087221 0 0 Z " fill="#30917C" transform="translate(246,183)"></path><path d="M0 0 C2.10250391 0.96772707 3.73866819 2.0800207 5.55126953 3.5222168 C6.25840088 4.07901123 6.96553223 4.63580566 7.6940918 5.20947266 C8.82609009 6.11644897 8.82609009 6.11644897 9.98095703 7.04174805 C11.59669596 8.31797519 13.21258582 9.59401127 14.82861328 10.86987305 C15.6576416 11.52793945 16.48666992 12.18600586 17.34082031 12.86401367 C21.34596368 16.03329427 25.38302552 19.16119266 29.41845703 22.29174805 C30.83658985 23.39440165 32.25456357 24.49725992 33.67236328 25.6003418 C34.3467041 26.1248291 35.02104492 26.64931641 35.71582031 27.18969727 C39.42919922 30.07788086 43.14257812 32.96606445 46.85595703 35.85424805 C46.53071045 36.61560059 46.20546387 37.37695312 45.87036133 38.16137695 C44.67023473 41.3472726 44.6240862 43.83286267 44.66845703 47.22924805 C44.678125 48.84959961 44.678125 48.84959961 44.68798828 50.50268555 C44.76902213 53.92955307 44.76902213 53.92955307 45.64501953 57.5065918 C45.85595703 60.85424805 45.85595703 60.85424805 44.10986328 63.0847168 C43.22169922 63.73053711 42.33353516 64.37635742 41.41845703 65.04174805 C40.42072266 65.78682617 39.42298828 66.5319043 38.39501953 67.29956055 C37.83588867 67.70078125 37.27675781 68.10200195 36.70068359 68.51538086 C34.64722299 70.00574321 32.6382366 71.54649826 30.62939453 73.09643555 C24.74728301 77.60726537 24.74728301 77.60726537 22.16455078 79.5456543 C21.57472412 79.99110596 20.98489746 80.43655762 20.37719727 80.89550781 C18.85595703 81.85424805 18.85595703 81.85424805 16.85595703 81.85424805 C15.07574116 79.07116974 13.36750435 76.24998202 11.66845703 73.41674805 C11.16636719 72.63364258 10.66427734 71.85053711 10.14697266 71.04370117 C6.66526997 65.12724136 6.66526997 65.12724136 7.21142578 61.48120117 C7.75574172 59.94804462 8.34962729 58.43155226 8.99243164 56.93701172 C11.27703444 51.42670737 10.83631316 43.54340354 8.73095703 37.97924805 C4.07540836 30.22000026 0.7318422 27.7990859 -8.14404297 23.85424805 C-8.14404297 16.92424805 -8.14404297 9.99424805 -8.14404297 2.85424805 C-2.14404297 -0.14575195 -2.14404297 -0.14575195 0 0 Z " fill="#359782" transform="translate(270.14404296875,182.145751953125)"></path><path d="M0 0 C1.93188477 1.27172852 1.93188477 1.27172852 3.94140625 2.87890625 C4.68535645 3.46720215 5.42930664 4.05549805 6.19580078 4.66162109 C6.97681152 5.28891113 7.75782227 5.91620117 8.5625 6.5625 C10.17473225 7.83856606 11.78801195 9.11330984 13.40234375 10.38671875 C14.18593262 11.00595215 14.96952148 11.62518555 15.77685547 12.26318359 C20.09283622 15.63501393 24.5329098 18.83171135 29 22 C27.73257801 26.13583806 26.18613233 29.72949115 24.03125 33.4765625 C23.46019531 34.476875 22.88914063 35.4771875 22.30078125 36.5078125 C21.70652344 37.53648437 21.11226562 38.56515625 20.5 39.625 C19.32213411 41.67923899 18.1450199 43.73390922 16.96875 45.7890625 C16.18661133 47.14572021 16.18661133 47.14572021 15.38867188 48.52978516 C13.96290719 50.90461206 13.96290719 50.90461206 13.18945312 53.26318359 C12 55 12 55 8.875 55.75 C7.92625 55.8325 6.9775 55.915 6 56 C5.72119995 54.91452881 5.72119995 54.91452881 5.43676758 53.80712891 C0.95526594 36.33393552 0.95526594 36.33393552 -3.8125 18.9375 C-5.49533992 12.99727624 -6.9210784 7.0811945 -8 1 C-4.86922511 -0.90082761 -3.44815553 -1.2093531 0 0 Z " fill="#2A8A75" transform="translate(189,253)"></path><path d="M0 0 C0.89332031 0.391875 1.78664063 0.78375 2.70703125 1.1875 C1.61665379 9.21493405 -0.55807597 16.85901838 -2.82519531 24.61279297 C-5.87460882 35.07824673 -8.58768267 45.62876552 -11.29296875 56.1875 C-14.0715332 56.03808594 -14.0715332 56.03808594 -17.29296875 55.1875 C-19.21166992 52.76660156 -19.21166992 52.76660156 -20.8359375 49.578125 C-21.43470703 48.43085938 -22.03347656 47.28359375 -22.65039062 46.1015625 C-23.26106835 44.88053405 -23.87108869 43.6591766 -24.48046875 42.4375 C-25.1002057 41.23073759 -25.72193175 40.02499448 -26.34570312 38.8203125 C-27.49489521 36.59414192 -28.63482518 34.36314832 -29.76245117 32.12597656 C-31.23911374 29.17410313 -31.23911374 29.17410313 -33.05200195 26.49121094 C-33.461521 25.73098633 -33.87104004 24.97076172 -34.29296875 24.1875 C-33.13968997 20.72766366 -32.31008367 20.19380925 -29.42578125 18.11328125 C-28.22828247 17.24026367 -28.22828247 17.24026367 -27.0065918 16.34960938 C-26.15234619 15.73923828 -25.29810059 15.12886719 -24.41796875 14.5 C-22.67681792 13.24646233 -20.93593116 11.99255778 -19.1953125 10.73828125 C-18.35081543 10.13193848 -17.50631836 9.5255957 -16.63623047 8.90087891 C-14.64959367 7.448262 -12.71346075 5.96084052 -10.796875 4.41796875 C-9.86746094 3.68191406 -8.93804687 2.94585937 -7.98046875 2.1875 C-7.20058594 1.548125 -6.42070312 0.90875 -5.6171875 0.25 C-3.29296875 -0.8125 -3.29296875 -0.8125 0 0 Z " fill="#33947F" transform="translate(328.29296875,252.8125)"></path><path d="M0 0 C0.86625 0.16242188 1.7325 0.32484375 2.625 0.4921875 C5.8120427 0.97171939 8.78142071 1.13338172 12 1.125 C12.99 1.12757813 13.98 1.13015625 15 1.1328125 C18.07102524 0.99685565 20.9811129 0.56604133 24 0 C25.5066972 2.7881022 27.00419804 5.58103958 28.5 8.375 C28.92925781 9.1690625 29.35851562 9.963125 29.80078125 10.78125 C30.20683594 11.54179687 30.61289062 12.30234375 31.03125 13.0859375 C31.40830078 13.7876709 31.78535156 14.4894043 32.17382812 15.21240234 C33 17 33 17 33 19 C30.10495309 21.60486934 26.88931402 23.82405141 23.75 26.125 C22.87730469 26.78371094 22.00460937 27.44242187 21.10546875 28.12109375 C20.26113281 28.74371094 19.41679687 29.36632812 18.546875 30.0078125 C17.77182617 30.58160645 16.99677734 31.15540039 16.19824219 31.74658203 C14 33 14 33 10 33 C7.80175781 31.71484375 7.80175781 31.71484375 5.453125 29.9375 C4.60878906 29.30585938 3.76445312 28.67421875 2.89453125 28.0234375 C2.02183594 27.35570312 1.14914063 26.68796875 0.25 26 C-0.63816406 25.33226562 -1.52632812 24.66453125 -2.44140625 23.9765625 C-4.63416515 22.32609881 -6.81986762 20.66708554 -9 19 C-7.6077541 14.37324343 -5.70479016 10.35313769 -3.375 6.125 C-2.74335938 4.97257812 -2.11171875 3.82015625 -1.4609375 2.6328125 C-0.97882813 1.76398438 -0.49671875 0.89515625 0 0 Z " fill="#2E8F7A" transform="translate(244,254)"></path><path d="M0 0 C8.26901331 4.70198796 8.26901331 4.70198796 9.65234375 9.05078125 C10.17633681 13.20683576 10.266253 15.43554364 8.4375 19.3125 C2.57870288 25.77219939 2.57870288 25.77219939 -2.2109375 26.1953125 C-6.43965203 25.95648145 -8.55245901 25.3523195 -11.9375 22.6875 C-14.83987896 18.90561226 -16.39827205 16.39641771 -15.9375 11.5625 C-15.30349614 6.97351968 -13.72576638 4.85930908 -10 2 C-6.68264144 -0.2472429 -3.96386483 -0.47566378 0 0 Z " fill="#3A9A85" transform="translate(259,147)"></path><path d="M0 0 C4.57015831 1.82806332 6.87647372 4.58959926 9 9 C9.33879989 13.57379855 8.59485858 17.00148738 6.25 20.9375 C3.18508623 23.74700429 1.07527651 24.96975918 -3.14453125 25.03125 C-8.20533892 24.69554137 -11.4498298 23.87291295 -15 20 C-17.03969799 16.30911793 -17.51184637 13.18007873 -17 9 C-12.69834342 1.16483981 -8.76393156 -1.13082988 0 0 Z " fill="#33947F" transform="translate(260,218)"></path><path d="M0 0 C4.36350222 2.22291622 7.09544338 4.45022584 9 9 C9.56796579 14.20635305 8.88868756 17.6171637 6 22 C2.25165705 25.4075845 -1.68128543 25.56061472 -6.5546875 25.4296875 C-10.55175316 24.72732772 -12.26833621 22.94179178 -15 20 C-16.9780436 16.04391279 -16.56564099 11.30135786 -16 7 C-11.7031829 1.30962059 -7.11772979 -1.09192446 0 0 Z " fill="#2F8F7A" transform="translate(311,320)"></path><path d="M0 0 C2.8004189 1.78208475 4.04051345 2.94997893 5.75 5.75 C6.54114046 10.11445818 6.79175261 14.759095 4.6953125 18.765625 C2.21747462 21.7859481 0.22113925 23.5841711 -3.67578125 24.0234375 C-11.50299519 24.29881986 -11.50299519 24.29881986 -15.3125 21.5 C-18.73630504 16.64040575 -19.88418719 13.88047618 -19.25 7.75 C-14.97331717 -0.48657434 -8.89361805 -3.42062233 0 0 Z " fill="#278572" transform="translate(211.25,321.25)"></path><path d="M0 0 C3.8026029 2.0050088 5.61790841 3.42686262 8 7 C8.73545723 11.96861222 8.50048991 15.96194685 6.3125 20.5 C2.7127415 24.39163081 0.27918419 24.85786842 -4.9375 25.4375 C-8.08965457 25.35407814 -9.88333429 24.74978532 -12.375 22.8125 C-15.90097309 19.03467169 -16.7521131 16.67323656 -17.5 11.625 C-16.8288294 6.75901315 -14.5570446 4.26216007 -11 1 C-7.53081128 -0.73459436 -3.79303468 -0.47173877 0 0 Z " fill="#2C8B77" transform="translate(177,218)"></path><path d="M0 0 C3.26333227 1.48978212 5.67634514 3.28055777 8 6 C9.29497448 10.30292152 9.3049519 14.04926761 7.9375 18.3125 C5.27247877 22.00914234 2.64476026 24.48266167 -1.95703125 25.3828125 C-7.03461199 25.67406952 -10.07374941 24.36535765 -14 21 C-16.74392056 16.59281253 -16.67778825 12.03849822 -16 7 C-11.94594684 0.28984305 -7.37879178 -0.85739482 0 0 Z " fill="#389A85" transform="translate(343,218)"></path><path d="M0 0 C3.78396863 1.26132288 4.05134961 2.36541472 5.91796875 5.8046875 C6.44970703 6.78050781 6.98144531 7.75632812 7.52929688 8.76171875 C8.07650391 9.78910156 8.62371094 10.81648438 9.1875 11.875 C9.74630859 12.89464844 10.30511719 13.91429687 10.88085938 14.96484375 C15 22.59958791 15 22.59958791 15 26 C12.43093949 28.05524841 10.92791882 29.0874666 7.59643555 28.7734375 C4.68804926 27.90707476 3.00299743 26.77091243 0.64453125 24.875 C-0.14244141 24.25109375 -0.92941406 23.6271875 -1.74023438 22.984375 C-2.54783203 22.32953125 -3.35542969 21.6746875 -4.1875 21 C-5.80496282 19.70704782 -7.42340478 18.41531928 -9.04296875 17.125 C-9.75477295 16.55007813 -10.46657715 15.97515625 -11.19995117 15.3828125 C-12.95716605 13.94215082 -12.95716605 13.94215082 -15 13 C-15 12.34 -15 11.68 -15 11 C-12.74941971 8.87920524 -10.18298971 7.13427623 -7.6875 5.3125 C-6.99720703 4.78849609 -6.30691406 4.26449219 -5.59570312 3.72460938 C-4.92861328 3.23412109 -4.26152344 2.74363281 -3.57421875 2.23828125 C-2.65515747 1.5582605 -2.65515747 1.5582605 -1.7175293 0.86450195 C-1.15074463 0.57921631 -0.58395996 0.29393066 0 0 Z " fill="#31907C" transform="translate(282,284)"></path><path d="M0 0 C4.27070776 1.61005185 7.69545144 3.74875772 11.3125 6.5 C11.86228516 6.90347656 12.41207031 7.30695313 12.97851562 7.72265625 C14.36007451 8.76268691 15.68556298 9.87633454 17 11 C17 11.66 17 12.32 17 13 C15.3034668 14.48046875 15.3034668 14.48046875 12.94921875 16.1875 C12.10552734 16.80367188 11.26183594 17.41984375 10.39257812 18.0546875 C9.49990234 18.69664062 8.60722656 19.33859375 7.6875 20 C6.80642578 20.64195312 5.92535156 21.28390625 5.01757812 21.9453125 C-4.73359097 29.03437536 -4.73359097 29.03437536 -6.9375 28.75 C-9.05674028 27.97936717 -11.01322958 27.0643413 -13 26 C-12.41279381 22.11470308 -11.25117945 19.30465526 -9.27734375 15.91796875 C-8.73916016 14.98662109 -8.20097656 14.05527344 -7.64648438 13.09570312 C-6.80053711 11.65614258 -6.80053711 11.65614258 -5.9375 10.1875 C-5.36966797 9.20845703 -4.80183594 8.22941406 -4.21679688 7.22070312 C-2.81745173 4.81006652 -1.41170071 2.4034149 0 0 Z " fill="#2C8C77" transform="translate(228,284)"></path></svg>