<svg version="1.1" xmlns="http://www.w3.org/2000/svg" width="16px" height="16px" fill="currentColor" viewBox="0 0 512 512"><path d="M0 0 C168.96 0 337.92 0 512 0 C512 168.96 512 337.92 512 512 C343.04 512 174.08 512 0 512 C0 343.04 0 174.08 0 0 Z " fill="#E3740D" transform="translate(0,0)"></path><path d="M0 0 C1.24809448 -0.01260864 2.49618896 -0.02521729 3.78210449 -0.03820801 C5.14054937 -0.03104816 6.49898909 -0.02284416 7.85742188 -0.01367188 C9.25460073 -0.01636757 10.65177775 -0.02025064 12.0489502 -0.02526855 C14.97438452 -0.03116013 17.89932966 -0.02261251 20.82470703 -0.00390625 C24.57098579 0.01888418 28.31611832 0.00575912 32.06235504 -0.01819611 C34.9466411 -0.03266392 37.83065626 -0.02804383 40.71495056 -0.01768494 C42.09602495 -0.01502031 43.47712408 -0.01827818 44.85816956 -0.02760315 C46.78955604 -0.03778276 48.72102898 -0.01951075 50.65234375 0 C51.75058472 0.00318237 52.84882568 0.00636475 53.98034668 0.00964355 C57.52407332 0.64214244 58.70895397 1.64146297 60.82617188 4.51757812 C61.30718994 6.55511475 61.30718994 6.55511475 61.28027344 8.73535156 C61.27979004 9.56728027 61.27930664 10.39920898 61.27880859 11.25634766 C61.24811279 12.55354736 61.24811279 12.55354736 61.21679688 13.87695312 C61.21276855 14.67891113 61.20874023 15.48086914 61.20458984 16.30712891 C61.18370927 19.29417906 61.12786346 22.28090228 61.07617188 25.26757812 C60.99367188 31.95007813 60.91117187 38.63257813 60.82617188 45.51757812 C75.67617187 45.51757812 90.52617187 45.51757812 105.82617188 45.51757812 C105.70748077 31.8302666 105.70748077 31.8302666 105.5559082 18.14331055 C105.54714691 16.42822834 105.53950213 14.7131399 105.53320312 12.99804688 C105.51018127 11.66078552 105.51018127 11.66078552 105.48669434 10.29650879 C105.48615051 9.01798035 105.48615051 9.01798035 105.4855957 7.71362305 C105.47560295 6.60442757 105.47560295 6.60442757 105.46540833 5.4728241 C105.82617188 3.51757812 105.82617188 3.51757812 106.92753601 1.77958679 C109.78085883 -0.11699496 112.14237006 0.13600874 115.54492188 0.12939453 C116.56247559 0.12150909 116.56247559 0.12150909 117.60058594 0.11346436 C119.84268222 0.10026177 122.08406838 0.10900275 124.32617188 0.11914062 C125.88411597 0.11711995 127.44205914 0.11420856 129 0.11044312 C132.26506557 0.10601944 135.52988492 0.11245203 138.79492188 0.12646484 C142.98168536 0.143557 147.16787194 0.13371601 151.35461426 0.11574745 C154.57165886 0.10491066 157.78856652 0.10835542 161.00561523 0.11613083 C162.54939848 0.11813314 164.09319413 0.11567246 165.63696289 0.10869217 C167.79411792 0.10107912 169.95033665 0.1126784 172.10742188 0.12939453 C173.33525391 0.13178131 174.56308594 0.13416809 175.828125 0.1366272 C178.82617188 0.51757812 178.82617188 0.51757812 180.72480774 1.77958679 C182.08545872 3.92674189 182.18957646 5.17966897 182.16674805 7.71362305 C182.1663855 8.56597534 182.16602295 9.41832764 182.16564941 10.29650879 C182.15030151 11.18801636 182.13495361 12.07952393 182.11914062 12.99804688 C182.11611938 13.82067017 182.11309814 14.64329346 182.10998535 15.49084473 C182.09429476 18.56238357 182.05241066 21.6337435 182.01367188 24.70507812 C181.95179688 31.57320312 181.88992188 38.44132812 181.82617188 45.51757812 C196.67617188 45.51757812 211.52617187 45.51757812 226.82617188 45.51757812 C226.70755162 32.20440624 226.70755162 32.20440624 226.5559082 18.89160156 C226.54714468 17.22005792 226.53950042 15.54850788 226.53320312 13.87695312 C226.51018127 12.57975342 226.51018127 12.57975342 226.48669434 11.25634766 C226.48615051 10.00845459 226.48615051 10.00845459 226.4855957 8.73535156 C226.47560295 7.65613434 226.47560295 7.65613434 226.46540833 6.55511475 C226.96124772 3.75469071 227.76029706 2.47869406 229.82617188 0.51757812 C232.58970642 0.00964355 232.58970642 0.00964355 235.97827148 0 C237.24646225 -0.01260864 238.51465302 -0.02521729 239.8212738 -0.03820801 C241.20702671 -0.03104763 242.59277457 -0.0228435 243.97851562 -0.01367188 C245.39954392 -0.01636667 246.82057042 -0.02024898 248.24159241 -0.02526855 C251.22007805 -0.03116628 254.19808382 -0.02259395 257.17651367 -0.00390625 C260.99119573 0.01886372 264.8047509 0.00577587 268.61939144 -0.01819611 C271.55429033 -0.032665 274.48892303 -0.02804296 277.42383003 -0.01768494 C278.83002417 -0.01501954 280.23624261 -0.01828091 281.64240837 -0.02760315 C283.60982668 -0.03778222 285.57732985 -0.01951133 287.54467773 0 C288.6636998 0.00318237 289.78272186 0.00636475 290.93565369 0.00964355 C293.82617188 0.51757812 293.82617188 0.51757812 296.1854248 2.02735901 C298.50425449 5.54672779 298.39324694 8.80121367 298.35961914 12.87866211 C298.36823471 13.71977539 298.37685028 14.56088867 298.38572693 15.42749023 C298.40842047 18.20653094 298.40164169 20.98456595 298.39257812 23.76367188 C298.39781247 25.69654134 298.40408825 27.62940825 298.41136169 29.56227112 C298.42177234 33.6133323 298.41719526 37.66404237 298.40258789 41.71508789 C298.385405 46.9051342 298.40888571 52.09407294 298.44407749 57.28399563 C298.46604515 61.27577544 298.46461144 65.26729003 298.45631218 69.2591114 C298.4554922 71.17246782 298.46236454 73.08584362 298.47708321 74.9991436 C298.49451628 77.6758198 298.47999771 80.35050336 298.45727539 83.02709961 C298.46896759 83.8163533 298.48065979 84.60560699 298.4927063 85.41877747 C298.43221425 88.92346456 297.99491681 91.24343546 296.15019131 94.24037266 C292.41998219 97.72817557 287.60060771 97.02152918 282.7890625 96.95703125 C281.54318359 96.91513672 280.29730469 96.87324219 279.01367188 96.83007812 C277.74845703 96.80751953 276.48324219 96.78496094 275.1796875 96.76171875 C272.06064569 96.7028689 268.94401285 96.62069182 265.82617188 96.51757812 C265.82769076 97.06197942 265.82920964 97.60638071 265.83077455 98.16727901 C265.9202435 130.41694597 265.98889613 162.66658013 266.03043319 194.91634254 C266.03543615 198.78667649 266.04061343 202.65701018 266.04589844 206.52734375 C266.04694768 207.29787312 266.04799692 208.06840249 266.04907796 208.86228123 C266.0664938 221.34648061 266.09803795 233.83060647 266.13478306 246.3147622 C266.17215973 259.12007746 266.19440078 271.92535415 266.20252585 284.73072171 C266.20802045 292.63541704 266.22538834 300.53990461 266.25783774 308.444536 C266.2814368 314.50092508 266.28400002 320.55713459 266.2786026 326.61357498 C266.2797064 329.10169634 266.28770723 331.58982529 266.30299377 334.07789993 C266.32279648 337.46618769 266.31814595 340.85357519 266.30718994 344.24188232 C266.31884131 345.23409562 266.33049267 346.22630891 266.34249711 347.24858928 C266.30877216 351.08799187 266.25818149 353.73534692 264.38445663 357.1280632 C260.45220827 359.26383709 256.82212481 359.0690423 252.41259766 359.0255127 C250.96612697 359.03487264 250.96612697 359.03487264 249.49043465 359.04442167 C246.2505378 359.06041052 243.01138716 359.0477241 239.77148438 359.03515625 C237.45228638 359.04057473 235.13309182 359.04769584 232.81390381 359.05639648 C226.50820258 359.07466516 220.2027625 359.06754753 213.89705658 359.05488014 C207.30587548 359.04477089 200.71471711 359.05414004 194.12353516 359.0604248 C182.34409834 359.06897449 170.56477164 359.05572367 158.7853539 359.03538746 C148.10293735 359.01751615 137.42069466 359.02062018 126.73828125 359.0390625 C114.33602983 359.06046393 101.9338893 359.06843914 89.53162193 359.05661345 C82.96539509 359.05036915 76.39928805 359.04956867 69.83306885 359.0627594 C63.66064754 359.07429234 57.48855539 359.06633863 51.31616974 359.04318237 C49.04737139 359.03788164 46.77854547 359.03943222 44.509758 359.04823303 C41.41937678 359.05911795 38.33005902 359.04550975 35.23974609 359.0255127 C33.88392016 359.03889703 33.88392016 359.03889703 32.50070381 359.05255175 C28.88657037 359.00699839 26.47352312 358.86918254 23.26788712 357.1280632 C20.96664712 352.96125377 21.29016169 348.92493061 21.34515381 344.24188232 C21.34173611 343.18490812 21.33831841 342.12793391 21.33479714 341.03893018 C21.32819146 337.48564134 21.3502396 333.93310244 21.37207031 330.37988281 C21.3731982 327.83745339 21.37256607 325.29502266 21.37030029 322.75259399 C21.36938846 317.27300165 21.38075751 311.79365221 21.40325165 306.3141098 C21.43575305 298.39165771 21.44617674 290.46929775 21.45120361 282.54678622 C21.4599592 269.69324798 21.4865819 256.83981125 21.52441406 243.98632812 C21.56112735 231.50000517 21.58944244 219.01370978 21.60644531 206.52734375 C21.60749621 205.75774978 21.6085471 204.98815582 21.60962984 204.19524083 C21.61484997 200.33443315 21.61990481 196.47362529 21.62487745 192.61281729 C21.6663477 160.58099712 21.73680326 128.54930171 21.82617188 96.51757812 C20.58528809 96.55685425 20.58528809 96.55685425 19.31933594 96.59692383 C15.57180769 96.70084644 11.82458238 96.76589301 8.07617188 96.83007812 C6.77421875 96.87197266 5.47226563 96.91386719 4.13085938 96.95703125 C2.88046875 96.97314453 1.63007812 96.98925781 0.34179688 97.00585938 C-0.81030273 97.03204346 -1.96240234 97.05822754 -3.14941406 97.08520508 C-6.17382812 96.51757812 -6.17382812 96.51757812 -8.54930878 94.22938633 C-10.76240148 90.53507332 -10.73431764 87.20991898 -10.69140625 83.02709961 C-10.69841553 82.18423401 -10.7054248 81.34136841 -10.71264648 80.47296143 C-10.73021262 77.6945271 -10.7186099 74.91711605 -10.70507812 72.13867188 C-10.70777319 70.20483709 -10.71165573 68.27100362 -10.7166748 66.33717346 C-10.72256776 62.28788325 -10.71401244 58.23894636 -10.6953125 54.18969727 C-10.67250785 48.99858495 -10.68565694 43.80829916 -10.70960236 38.61721706 C-10.72405276 34.62549098 -10.71945808 30.63396106 -10.70909119 26.64222908 C-10.7064226 24.7280575 -10.7096983 22.81386812 -10.7190094 20.89971733 C-10.72916422 18.22555179 -10.71369013 15.55272767 -10.69140625 12.87866211 C-10.69950317 12.08738419 -10.7076001 11.29610626 -10.71594238 10.48085022 C-10.6633808 7.07762826 -10.42352925 4.89523766 -8.52734375 2.02735901 C-5.50245056 0.08688924 -3.58601968 0.01039121 0 0 Z " fill="#E3750E" transform="translate(112.173828125,76.482421875)"></path><path d="M0 0 C1.24809448 -0.01260864 2.49618896 -0.02521729 3.78210449 -0.03820801 C5.14054937 -0.03104816 6.49898909 -0.02284416 7.85742188 -0.01367188 C9.25460073 -0.01636757 10.65177775 -0.02025064 12.0489502 -0.02526855 C14.97438452 -0.03116013 17.89932966 -0.02261251 20.82470703 -0.00390625 C24.57098579 0.01888418 28.31611832 0.00575912 32.06235504 -0.01819611 C34.9466411 -0.03266392 37.83065626 -0.02804383 40.71495056 -0.01768494 C42.09602495 -0.01502031 43.47712408 -0.01827818 44.85816956 -0.02760315 C46.78955604 -0.03778276 48.72102898 -0.01951075 50.65234375 0 C51.75058472 0.00318237 52.84882568 0.00636475 53.98034668 0.00964355 C57.52407332 0.64214244 58.70895397 1.64146297 60.82617188 4.51757812 C61.30718994 6.55511475 61.30718994 6.55511475 61.28027344 8.73535156 C61.27979004 9.56728027 61.27930664 10.39920898 61.27880859 11.25634766 C61.24811279 12.55354736 61.24811279 12.55354736 61.21679688 13.87695312 C61.21276855 14.67891113 61.20874023 15.48086914 61.20458984 16.30712891 C61.18370927 19.29417906 61.12786346 22.28090228 61.07617188 25.26757812 C60.99367188 31.95007813 60.91117187 38.63257813 60.82617188 45.51757812 C75.67617187 45.51757812 90.52617187 45.51757812 105.82617188 45.51757812 C105.70748077 31.8302666 105.70748077 31.8302666 105.5559082 18.14331055 C105.54714691 16.42822834 105.53950213 14.7131399 105.53320312 12.99804688 C105.51018127 11.66078552 105.51018127 11.66078552 105.48669434 10.29650879 C105.48615051 9.01798035 105.48615051 9.01798035 105.4855957 7.71362305 C105.47560295 6.60442757 105.47560295 6.60442757 105.46540833 5.4728241 C105.82617188 3.51757812 105.82617188 3.51757812 106.92753601 1.77958679 C109.78085883 -0.11699496 112.14237006 0.13600874 115.54492188 0.12939453 C116.56247559 0.12150909 116.56247559 0.12150909 117.60058594 0.11346436 C119.84268222 0.10026177 122.08406838 0.10900275 124.32617188 0.11914062 C125.88411597 0.11711995 127.44205914 0.11420856 129 0.11044312 C132.26506557 0.10601944 135.52988492 0.11245203 138.79492188 0.12646484 C142.98168536 0.143557 147.16787194 0.13371601 151.35461426 0.11574745 C154.57165886 0.10491066 157.78856652 0.10835542 161.00561523 0.11613083 C162.54939848 0.11813314 164.09319413 0.11567246 165.63696289 0.10869217 C167.79411792 0.10107912 169.95033665 0.1126784 172.10742188 0.12939453 C173.33525391 0.13178131 174.56308594 0.13416809 175.828125 0.1366272 C178.82617188 0.51757812 178.82617188 0.51757812 180.72480774 1.77958679 C182.08545872 3.92674189 182.18957646 5.17966897 182.16674805 7.71362305 C182.1663855 8.56597534 182.16602295 9.41832764 182.16564941 10.29650879 C182.15030151 11.18801636 182.13495361 12.07952393 182.11914062 12.99804688 C182.11611938 13.82067017 182.11309814 14.64329346 182.10998535 15.49084473 C182.09429476 18.56238357 182.05241066 21.6337435 182.01367188 24.70507812 C181.95179688 31.57320312 181.88992188 38.44132812 181.82617188 45.51757812 C196.67617188 45.51757812 211.52617187 45.51757812 226.82617188 45.51757812 C226.70755162 32.20440624 226.70755162 32.20440624 226.5559082 18.89160156 C226.54714468 17.22005792 226.53950042 15.54850788 226.53320312 13.87695312 C226.51018127 12.57975342 226.51018127 12.57975342 226.48669434 11.25634766 C226.48615051 10.00845459 226.48615051 10.00845459 226.4855957 8.73535156 C226.47560295 7.65613434 226.47560295 7.65613434 226.46540833 6.55511475 C226.96124772 3.75469071 227.76029706 2.47869406 229.82617188 0.51757812 C232.58970642 0.00964355 232.58970642 0.00964355 235.97827148 0 C237.24646225 -0.01260864 238.51465302 -0.02521729 239.8212738 -0.03820801 C241.20702671 -0.03104763 242.59277457 -0.0228435 243.97851562 -0.01367188 C245.39954392 -0.01636667 246.82057042 -0.02024898 248.24159241 -0.02526855 C251.22007805 -0.03116628 254.19808382 -0.02259395 257.17651367 -0.00390625 C260.99119573 0.01886372 264.8047509 0.00577587 268.61939144 -0.01819611 C271.55429033 -0.032665 274.48892303 -0.02804296 277.42383003 -0.01768494 C278.83002417 -0.01501954 280.23624261 -0.01828091 281.64240837 -0.02760315 C283.60982668 -0.03778222 285.57732985 -0.01951133 287.54467773 0 C288.6636998 0.00318237 289.78272186 0.00636475 290.93565369 0.00964355 C293.82617188 0.51757812 293.82617188 0.51757812 296.1854248 2.02735901 C298.50425449 5.54672779 298.39324694 8.80121367 298.35961914 12.87866211 C298.36823471 13.71977539 298.37685028 14.56088867 298.38572693 15.42749023 C298.40842047 18.20653094 298.40164169 20.98456595 298.39257812 23.76367188 C298.39781247 25.69654134 298.40408825 27.62940825 298.41136169 29.56227112 C298.42177234 33.6133323 298.41719526 37.66404237 298.40258789 41.71508789 C298.385405 46.9051342 298.40888571 52.09407294 298.44407749 57.28399563 C298.46604515 61.27577544 298.46461144 65.26729003 298.45631218 69.2591114 C298.4554922 71.17246782 298.46236454 73.08584362 298.47708321 74.9991436 C298.49451628 77.6758198 298.47999771 80.35050336 298.45727539 83.02709961 C298.46896759 83.8163533 298.48065979 84.60560699 298.4927063 85.41877747 C298.43221425 88.92346456 297.99491681 91.24343546 296.15019131 94.24037266 C292.41998219 97.72817557 287.60060771 97.02152918 282.7890625 96.95703125 C281.54318359 96.91513672 280.29730469 96.87324219 279.01367188 96.83007812 C277.74845703 96.80751953 276.48324219 96.78496094 275.1796875 96.76171875 C272.06064569 96.7028689 268.94401285 96.62069182 265.82617188 96.51757812 C265.82769076 97.06197942 265.82920964 97.60638071 265.83077455 98.16727901 C265.9202435 130.41694597 265.98889613 162.66658013 266.03043319 194.91634254 C266.03543615 198.78667649 266.04061343 202.65701018 266.04589844 206.52734375 C266.04694768 207.29787312 266.04799692 208.06840249 266.04907796 208.86228123 C266.0664938 221.34648061 266.09803795 233.83060647 266.13478306 246.3147622 C266.17215973 259.12007746 266.19440078 271.92535415 266.20252585 284.73072171 C266.20802045 292.63541704 266.22538834 300.53990461 266.25783774 308.444536 C266.2814368 314.50092508 266.28400002 320.55713459 266.2786026 326.61357498 C266.2797064 329.10169634 266.28770723 331.58982529 266.30299377 334.07789993 C266.32279648 337.46618769 266.31814595 340.85357519 266.30718994 344.24188232 C266.31884131 345.23409562 266.33049267 346.22630891 266.34249711 347.24858928 C266.30877216 351.08799187 266.25818149 353.73534692 264.38445663 357.1280632 C260.45220827 359.26383709 256.82212481 359.0690423 252.41259766 359.0255127 C250.96612697 359.03487264 250.96612697 359.03487264 249.49043465 359.04442167 C246.2505378 359.06041052 243.01138716 359.0477241 239.77148438 359.03515625 C237.45228638 359.04057473 235.13309182 359.04769584 232.81390381 359.05639648 C226.50820258 359.07466516 220.2027625 359.06754753 213.89705658 359.05488014 C207.30587548 359.04477089 200.71471711 359.05414004 194.12353516 359.0604248 C182.34409834 359.06897449 170.56477164 359.05572367 158.7853539 359.03538746 C148.10293735 359.01751615 137.42069466 359.02062018 126.73828125 359.0390625 C114.33602983 359.06046393 101.9338893 359.06843914 89.53162193 359.05661345 C82.96539509 359.05036915 76.39928805 359.04956867 69.83306885 359.0627594 C63.66064754 359.07429234 57.48855539 359.06633863 51.31616974 359.04318237 C49.04737139 359.03788164 46.77854547 359.03943222 44.509758 359.04823303 C41.41937678 359.05911795 38.33005902 359.04550975 35.23974609 359.0255127 C33.88392016 359.03889703 33.88392016 359.03889703 32.50070381 359.05255175 C28.88657037 359.00699839 26.47352312 358.86918254 23.26788712 357.1280632 C20.96664712 352.96125377 21.29016169 348.92493061 21.34515381 344.24188232 C21.34173611 343.18490812 21.33831841 342.12793391 21.33479714 341.03893018 C21.32819146 337.48564134 21.3502396 333.93310244 21.37207031 330.37988281 C21.3731982 327.83745339 21.37256607 325.29502266 21.37030029 322.75259399 C21.36938846 317.27300165 21.38075751 311.79365221 21.40325165 306.3141098 C21.43575305 298.39165771 21.44617674 290.46929775 21.45120361 282.54678622 C21.4599592 269.69324798 21.4865819 256.83981125 21.52441406 243.98632812 C21.56112735 231.50000517 21.58944244 219.01370978 21.60644531 206.52734375 C21.60749621 205.75774978 21.6085471 204.98815582 21.60962984 204.19524083 C21.61484997 200.33443315 21.61990481 196.47362529 21.62487745 192.61281729 C21.6663477 160.58099712 21.73680326 128.54930171 21.82617188 96.51757812 C20.58528809 96.55685425 20.58528809 96.55685425 19.31933594 96.59692383 C15.57180769 96.70084644 11.82458238 96.76589301 8.07617188 96.83007812 C6.77421875 96.87197266 5.47226563 96.91386719 4.13085938 96.95703125 C2.88046875 96.97314453 1.63007812 96.98925781 0.34179688 97.00585938 C-0.81030273 97.03204346 -1.96240234 97.05822754 -3.14941406 97.08520508 C-6.17382812 96.51757812 -6.17382812 96.51757812 -8.54930878 94.22938633 C-10.76240148 90.53507332 -10.73431764 87.20991898 -10.69140625 83.02709961 C-10.69841553 82.18423401 -10.7054248 81.34136841 -10.71264648 80.47296143 C-10.73021262 77.6945271 -10.7186099 74.91711605 -10.70507812 72.13867188 C-10.70777319 70.20483709 -10.71165573 68.27100362 -10.7166748 66.33717346 C-10.72256776 62.28788325 -10.71401244 58.23894636 -10.6953125 54.18969727 C-10.67250785 48.99858495 -10.68565694 43.80829916 -10.70960236 38.61721706 C-10.72405276 34.62549098 -10.71945808 30.63396106 -10.70909119 26.64222908 C-10.7064226 24.7280575 -10.7096983 22.81386812 -10.7190094 20.89971733 C-10.72916422 18.22555179 -10.71369013 15.55272767 -10.69140625 12.87866211 C-10.69950317 12.08738419 -10.7076001 11.29610626 -10.71594238 10.48085022 C-10.6633808 7.07762826 -10.42352925 4.89523766 -8.52734375 2.02735901 C-5.50245056 0.08688924 -3.58601968 0.01039121 0 0 Z M2.82617188 13.51757812 C2.82617188 36.61757812 2.82617188 59.71757812 2.82617188 83.51757812 C16.68617188 84.01257813 16.68617188 84.01257813 30.82617188 84.51757812 C32.31117188 85.50757813 32.31117188 85.50757813 33.82617188 86.51757812 C34.20517939 88.43310273 34.20517939 88.43310273 34.21093273 90.82419014 C34.22038927 91.73385509 34.22984581 92.64352003 34.23958892 93.58075058 C34.23474134 94.58657146 34.22989376 95.59239233 34.22489929 96.62869263 C34.23154612 97.69212509 34.23819295 98.75555755 34.24504119 99.85121524 C34.26379186 103.43817777 34.26105778 107.02481026 34.25854492 110.61181641 C34.2675547 113.17366003 34.27787997 115.73549932 34.28942871 118.29733276 C34.31137145 123.82490104 34.32410755 129.35237026 34.32855797 134.87997818 C34.33500834 142.87200305 34.35792596 150.86391345 34.38490126 158.85589229 C34.42821474 171.82139258 34.4581554 184.78688807 34.47973633 197.75244141 C34.50073238 210.34947071 34.52802973 222.94646044 34.5637207 235.54345703 C34.56593421 236.32747182 34.56814772 237.11148661 34.57042831 237.91925943 C34.58778797 244.05050074 34.60551386 250.18174097 34.62335551 256.31298089 C34.71075876 286.38115544 34.76620903 316.44931215 34.82617188 346.51757812 C106.76617187 346.51757812 178.70617187 346.51757812 252.82617188 346.51757812 C252.87515625 327.77203125 252.92414063 309.02648437 252.97460938 289.71289062 C253.00997359 277.8730423 253.04582665 266.03319853 253.08398438 254.19335938 C253.10399359 247.97672574 253.12387823 241.76009173 253.14355469 235.54345703 C253.14602612 234.76426143 253.14849756 233.98506583 253.15104389 233.18225825 C253.19080515 220.58900981 253.22352874 207.99575235 253.25367169 195.40247764 C253.28474324 182.48639907 253.32333406 169.57035889 253.36896193 156.65432346 C253.39689697 148.67908367 253.41890815 140.7038721 253.43343438 132.72859643 C253.44518441 126.62174479 253.4673763 120.51497754 253.49355507 114.40816879 C253.50266418 111.89665485 253.50832878 109.38512582 253.51038551 106.87359619 C253.5136846 103.45852053 253.52909772 100.04371402 253.54769897 96.62869263 C253.54576424 95.62287175 253.54382951 94.61705088 253.54183614 93.58075058 C253.54930164 92.67108564 253.55676713 91.76142069 253.56445885 90.82419014 C253.56787633 89.64060187 253.56787633 89.64060187 253.57136285 88.43310273 C253.82617188 86.51757812 253.82617188 86.51757812 255.82617188 84.51757812 C265.39617187 84.18757813 274.96617187 83.85757813 284.82617188 83.51757812 C284.82617188 60.41757813 284.82617188 37.31757812 284.82617188 13.51757812 C269.97617187 13.51757812 255.12617188 13.51757812 239.82617188 13.51757812 C239.57660438 26.54632186 239.57660438 26.54632186 239.34814453 39.57543945 C239.3129398 41.20851277 239.27701868 42.84157087 239.24023438 44.47460938 C239.22319458 45.74709534 239.22319458 45.74709534 239.20581055 47.04528809 C239.18574951 47.85703491 239.16568848 48.66878174 239.14501953 49.50512695 C239.13169586 50.20906082 239.11837219 50.91299469 239.10464478 51.63825989 C238.82617188 53.51757812 238.82617188 53.51757812 236.82617188 56.51757812 C234.08004761 56.87834167 234.08004761 56.87834167 230.54052734 56.8581543 C229.89649963 56.85859238 229.25247192 56.85903046 228.58892822 56.85948181 C226.45676523 56.85738906 224.32538525 56.83403677 222.19335938 56.81054688 C220.7164859 56.80495261 219.23960686 56.80068171 217.76272583 56.79768372 C213.87291125 56.78622148 209.98343197 56.75674285 206.09375 56.72357178 C202.12569719 56.69290035 198.15759027 56.67918467 194.18945312 56.6640625 C186.40153973 56.63187411 178.61390276 56.58066158 170.82617188 56.51757812 C169.94051602 53.86061055 169.68114567 52.2356773 169.62084961 49.50512695 C169.60066772 48.69338013 169.58048584 47.8816333 169.55969238 47.04528809 C169.53497864 45.77280212 169.53497864 45.77280212 169.50976562 44.47460938 C169.4911145 43.69130249 169.47246338 42.90799561 169.45324707 42.10095215 C169.38499555 39.17744122 169.32481735 36.25374631 169.26367188 33.33007812 C169.11929688 26.79195312 168.97492188 20.25382812 168.82617188 13.51757812 C152.32617188 13.51757812 135.82617188 13.51757812 118.82617188 13.51757812 C118.53704371 26.54639978 118.53704371 26.54639978 118.25805664 39.57543945 C118.21993152 41.20850472 118.1814622 42.841562 118.14257812 44.47460938 C118.12610229 45.32293335 118.10962646 46.17125732 118.09265137 47.04528809 C118.07246948 47.85703491 118.0522876 48.66878174 118.03149414 49.50512695 C118.00817772 50.56102776 118.00817772 50.56102776 117.98439026 51.63825989 C117.82617188 53.51757812 117.82617188 53.51757812 116.82617188 56.51757812 C108.2554134 56.58700439 99.68477186 56.64035154 91.11380196 56.67301464 C87.13419813 56.68868914 83.15478629 56.7099595 79.17529297 56.74389648 C75.33682232 56.776427 71.49853664 56.79441769 67.65993881 56.80220985 C66.19345054 56.80776478 64.72697269 56.81861192 63.2605629 56.8347683 C61.21075597 56.85645973 59.16171912 56.85954868 57.11181641 56.8581543 C55.94377472 56.86481613 54.77573303 56.87147797 53.57229614 56.87834167 C52.66607513 56.7592897 51.75985413 56.64023773 50.82617188 56.51757812 C48.81949953 53.50756961 48.57125217 52.88265356 48.50732422 49.50512695 C48.48726318 48.69338013 48.46720215 47.8816333 48.4465332 47.04528809 C48.43517334 46.19696411 48.42381348 45.34864014 48.41210938 44.47460938 C48.39446533 43.69130249 48.37682129 42.90799561 48.35864258 42.10095215 C48.29562146 39.17753552 48.24940301 36.25377616 48.20117188 33.33007812 C48.07742187 26.79195312 47.95367187 20.25382812 47.82617188 13.51757812 C32.97617188 13.51757812 18.12617188 13.51757812 2.82617188 13.51757812 Z " fill="#FEFBF9" transform="translate(112.173828125,76.482421875)"></path><path d="M0 0 C3.14753587 4.72130381 2.37036393 8.91045054 1.41677856 14.29046631 C0.57623684 18.32792894 -0.32417028 22.34772909 -1.24609375 26.3671875 C-1.58067303 27.85296791 -1.91457012 29.33890209 -2.24781799 30.82498169 C-2.94461705 33.92423338 -3.64693028 37.02216136 -4.35375977 40.11914062 C-5.26043855 44.0920701 -6.15729762 48.0671321 -7.05059719 52.04308891 C-7.90400496 55.83939706 -8.76241856 59.63456799 -9.62109375 63.4296875 C-9.78452208 64.15411922 -9.9479504 64.87855095 -10.1163311 65.62493515 C-10.57794991 67.66710474 -11.04314305 69.70842457 -11.50952148 71.74951172 C-11.77377426 72.91118866 -12.03802704 74.0728656 -12.31028748 75.26974487 C-13 78 -13 78 -14 80 C-13.40753479 79.99333817 -12.81506958 79.98667633 -12.20465088 79.97981262 C-6.04046045 79.91346232 0.12362859 79.86820067 6.28808594 79.83520508 C8.5889091 79.82011505 10.88970349 79.79964073 13.19042969 79.77368164 C16.49681702 79.73730853 19.80282416 79.72027568 23.109375 79.70703125 C24.13867126 79.69154739 25.16796753 79.67606354 26.22845459 79.66011047 C27.18914856 79.65988388 28.14984253 79.65965729 29.13964844 79.65942383 C30.40539703 79.64943108 30.40539703 79.64943108 31.69671631 79.63923645 C34.55052652 80.08622902 35.91678909 81.02615491 38 83 C38.72980189 86.1531184 38.45112659 88.13033288 36.95898438 91.00683594 C35.46482239 93.35797485 33.88129429 95.6168488 32.25 97.875 C31.66089844 98.71289062 31.07179688 99.55078125 30.46484375 100.4140625 C26.26876745 106.3442774 21.92524598 112.16121884 17.52246094 117.93896484 C13.67574768 123.01375453 10.06504398 128.22441235 6.5 133.5 C2.01927941 140.13061503 -2.62847475 146.57876504 -7.48046875 152.94140625 C-11.3246482 158.0165303 -14.93563965 163.22542399 -18.5 168.5 C-22.97526892 175.12254759 -27.6124788 181.56703816 -32.46508789 187.91723633 C-37.06970584 193.98692537 -41.3410273 200.26918666 -45.54882812 206.61914062 C-48.38649475 210.85226309 -51.11271719 214.67647152 -55 218 C-58.2072487 218.51315979 -60.00288188 218.53179633 -62.875 217 C-65.84975519 211.71154632 -63.63949782 204.33111098 -62.27734375 198.7421875 C-62.09631104 197.96812057 -61.91527832 197.19405365 -61.72875977 196.39653015 C-61.13992901 193.88732383 -60.53882638 191.38123807 -59.9375 188.875 C-59.52787916 187.13944147 -59.11911422 185.40368073 -58.71118164 183.66772461 C-57.88348265 180.15063079 -57.05115896 176.63468366 -56.21484375 173.11962891 C-55.07787364 168.33671907 -53.95704956 163.55018797 -52.84375 158.76171875 C-52.67960098 158.05573547 -52.51545197 157.3497522 -52.34632874 156.62237549 C-52.02942842 155.25910622 -51.71257803 153.89582535 -51.39578247 152.53253174 C-50.26863691 147.68723942 -49.13380564 142.84373735 -48 138 C-48.59246521 138.00888245 -49.18493042 138.01776489 -49.79534912 138.0269165 C-55.95949662 138.11538296 -62.12346393 138.17573126 -68.28808594 138.21972656 C-70.58894169 138.23984688 -72.88974629 138.26714634 -75.19042969 138.30175781 C-78.49687317 138.35025612 -81.80264085 138.37296478 -85.109375 138.390625 C-86.13867126 138.41127014 -87.16796753 138.43191528 -88.22845459 138.45318604 C-95.35063424 138.45542586 -95.35063424 138.45542586 -98.64282227 136.14648438 C-100.59574212 133.05778653 -100.67035595 131.61559724 -100 128 C-98.3809901 125.03502903 -96.37270354 122.42089321 -94.3125 119.75 C-93.11163442 118.14218451 -91.9111234 116.53410416 -90.7109375 114.92578125 C-90.0931543 114.10803223 -89.47537109 113.2902832 -88.83886719 112.44775391 C-85.98523645 108.64922739 -83.21195696 104.79402465 -80.4375 100.9375 C-79.89971924 100.19338867 -79.36193848 99.44927734 -78.80786133 98.68261719 C-74.667943 92.95032685 -70.58652143 87.17827656 -66.51928711 81.39428711 C-62.34744926 75.47020892 -58.10686623 69.59759925 -53.85546875 63.73046875 C-50.20004412 58.67917792 -46.58642038 53.60047648 -43 48.5 C-38.34529894 41.88025364 -33.62530675 35.31062219 -28.87524414 28.7590332 C-24.51351448 22.73431611 -20.21670159 16.66564475 -15.95703125 10.56835938 C-7.27098633 -1.81774658 -7.27098633 -1.81774658 0 0 Z " fill="#FEFCF9" transform="translate(287,176)"></path><path d="M0 0 C0.33 0 0.66 0 1 0 C0.42277068 5.960305 -0.46661627 11.65093005 -1.84765625 17.47265625 C-2.2091746 19.04748239 -2.57049687 20.62235354 -2.93164062 22.19726562 C-3.49694054 24.6355975 -4.06501795 27.07322776 -4.63696289 29.51000977 C-5.1939149 31.89171557 -5.7400742 34.27571016 -6.28515625 36.66015625 C-6.45700943 37.37808853 -6.62886261 38.09602081 -6.80592346 38.83570862 C-7.90125122 43.6590939 -8.4047307 48.05034811 -8 53 C-4.91960147 55.05359902 -4.20515302 55.25738734 -0.7121582 55.31884766 C0.14850754 55.33871735 1.00917328 55.35858704 1.8959198 55.37905884 C3.28355278 55.39638565 3.28355278 55.39638565 4.69921875 55.4140625 C5.64940384 55.43342865 6.59958893 55.4527948 7.5785675 55.4727478 C10.6147869 55.53254912 13.65104419 55.57893129 16.6875 55.625 C18.74545928 55.66317926 20.80340258 55.70223096 22.86132812 55.7421875 C27.9074223 55.83825119 32.95359129 55.92228031 38 56 C34.03205094 62.37545239 29.97710886 68.56654393 25.375 74.5 C20.88900294 80.37682716 16.63708424 86.37300424 12.5 92.5 C8.02368234 99.12468408 3.38070335 105.56739727 -1.46728516 111.92382812 C-6.01222456 117.92368866 -10.25770977 124.11274382 -14.4609375 130.35546875 C-17.83184184 135.35163055 -21.33692013 140.21370606 -25 145 C-26.37546547 142.24906906 -25.66868165 140.93310126 -24.92578125 137.96875 C-24.54510498 136.42380859 -24.54510498 136.42380859 -24.15673828 134.84765625 C-23.87813965 133.74292969 -23.59954102 132.63820313 -23.3125 131.5 C-22.75301988 129.21896722 -22.19443193 126.93771544 -21.63671875 124.65625 C-21.35876465 123.52703125 -21.08081055 122.3978125 -20.79443359 121.234375 C-19.7122705 116.82856779 -18.64790308 112.41993972 -17.625 108 C-17.45782471 107.31486328 -17.29064941 106.62972656 -17.1184082 105.92382812 C-16.00174945 101.04197125 -15.33048377 95.99352919 -16 91 C-18.40233858 88.59766142 -18.98352302 88.73742532 -22.26611328 88.68115234 C-23.14687531 88.66128265 -24.02763733 88.64141296 -24.93508911 88.62094116 C-25.88721283 88.60938995 -26.83933655 88.59783875 -27.8203125 88.5859375 C-28.79410858 88.56657135 -29.76790466 88.5472052 -30.77120972 88.5272522 C-33.88905003 88.46735442 -37.00692706 88.42103029 -40.125 88.375 C-42.23569341 88.33682961 -44.34637108 88.29777844 -46.45703125 88.2578125 C-51.63788144 88.16164473 -56.81882597 88.07662736 -62 88 C-59.87478929 84.21746015 -57.78653743 80.51720439 -55.22265625 77.01171875 C-54.71597412 76.3148999 -54.20929199 75.61808105 -53.68725586 74.90014648 C-53.15108643 74.16997314 -52.61491699 73.4397998 -52.0625 72.6875 C-50.89837683 71.08858583 -49.73431609 69.48962622 -48.5703125 67.890625 C-47.68134277 66.67342773 -47.68134277 66.67342773 -46.77441406 65.43164062 C-43.98440396 61.60823658 -41.20975696 57.77378794 -38.4375 53.9375 C-37.89939697 53.19330811 -37.36129395 52.44911621 -36.80688477 51.68237305 C-32.67214808 45.95443506 -28.5934228 40.18851927 -24.53027344 34.40966797 C-20.24812493 28.32845178 -15.89732093 22.29828436 -11.53027344 16.27783203 C-8.00746499 11.41592545 -4.54862528 6.51951341 -1.171875 1.5546875 C-0.78515625 1.04164063 -0.3984375 0.52859375 0 0 Z " fill="#E27410" transform="translate(268,213)"></path></svg>