<svg version="1.1" xmlns="http://www.w3.org/2000/svg" width="16px" height="16px" fill="currentColor" viewBox="0 0 512 512"><path d="M0 0 C168.96 0 337.92 0 512 0 C512 168.96 512 337.92 512 512 C343.04 512 174.08 512 0 512 C0 343.04 0 174.08 0 0 Z " fill="#2D8F7A" transform="translate(0,0)"></path><path d="M0 0 C5.25759918 0.42547045 8.53442673 3.2599695 12.5625 6.375 C13.26705322 6.91447266 13.97160645 7.45394531 14.69750977 8.00976562 C31.12851355 20.74784404 31.12851355 20.74784404 34.65853786 26.88210678 C37.62450713 31.75341218 39.89004993 35.34884243 45.59849739 37.1105423 C50.05713544 37.67050469 54.51115591 37.55211041 58.99438477 37.45410156 C60.7100033 37.46058697 62.42560874 37.47235093 64.14115906 37.4889679 C68.77806318 37.51903296 73.41166582 37.47563405 78.04820752 37.41865635 C82.90091946 37.37163985 87.75333414 37.39270555 92.60618591 37.40643311 C101.78624915 37.4221162 110.96495379 37.3769061 120.14474291 37.30961108 C130.59943802 37.23595015 141.05382464 37.23048504 151.50873864 37.23064089 C173.00634295 37.22943908 194.50290146 37.14294528 216 37 C216 41.29 216 45.58 216 50 C160.56 50 105.12 50 48 50 C48.99 52.97 48.99 52.97 50 56 C50.18839897 58.75394972 50.28659893 61.37666875 50.25 64.125 C50.24178223 64.87563721 50.23356445 65.62627441 50.22509766 66.3996582 C49.820225 86.76301164 41.75288828 103.15422605 27.140625 117.2734375 C15.2418834 127.90922856 1.47323288 136.52623026 -12 145 C-13.48086948 145.9394728 -14.96133077 146.87958929 -16.44140625 147.8203125 C-23.30092358 152.17276471 -30.17898682 156.49422735 -37.08203125 160.77734375 C-69.68831732 180.52390603 -69.68831732 180.52390603 -93 210 C-51.09 210 -9.18 210 34 210 C24.26300405 193.77167341 12.43986773 184.4236895 -3 174 C-2.39305845 170.84669446 -1.3583335 168.81111133 0.5625 166.25 C1.01753906 165.63640625 1.47257812 165.0228125 1.94140625 164.390625 C2.29074219 163.93171875 2.64007813 163.4728125 3 163 C9.54381436 165.28796408 14.62990538 169.75187438 20 174 C20.55349121 174.43554199 21.10698242 174.87108398 21.67724609 175.31982422 C34.46491308 185.47331366 43.73353739 196.20061216 49 212 C49.08507079 214.7315956 49.11591565 217.43691443 49.09765625 220.16796875 C49.09553383 221.36018791 49.09553383 221.36018791 49.09336853 222.57649231 C49.08777378 225.11353325 49.07522228 227.65048575 49.0625 230.1875 C49.05748432 231.90820185 49.05292153 233.62890508 49.04882812 235.34960938 C49.03780607 239.5664403 49.02054506 243.78320516 49 248 C44.71 248 40.42 248 36 248 C36 239.75 36 231.5 36 223 C-7.89 223 -51.78 223 -97 223 C-97 231.25 -97 239.5 -97 248 C-101.29 248 -105.58 248 -110 248 C-110.08168514 243.58295162 -110.14083683 239.16744654 -110.1875 234.75 C-110.21263672 233.51507813 -110.23777344 232.28015625 -110.26367188 231.0078125 C-110.42900282 210.06589289 -102.12463719 194.46222726 -87.734375 179.5703125 C-84.02028683 175.89449853 -80.00726293 172.82967348 -75.75 169.8125 C-74.9677002 169.25353027 -74.18540039 168.69456055 -73.37939453 168.11865234 C-64.80712714 162.05809176 -55.9306345 156.51199364 -47 151 C2.73533618 123.80387205 2.73533618 123.80387205 35 80 C36.1192852 74.99119873 36.15026945 70.10442804 36.125 65 C36.12886719 64.21882813 36.13273438 63.43765625 36.13671875 62.6328125 C36.13542969 61.86710937 36.13414062 61.10140625 36.1328125 60.3125 C36.13112061 59.28576172 36.13112061 59.28576172 36.12939453 58.23828125 C35.96942572 55.47112266 35.4556776 52.73406558 35 50 C10.25 50 -14.5 50 -40 50 C-40 45.71 -40 41.42 -40 37 C-18.55 36.67 2.9 36.34 25 36 C19.50245322 29.81525987 14.80808158 24.90816284 8.3125 20.125 C7.57966797 19.57070312 6.84683594 19.01640625 6.09179688 18.4453125 C2.50121797 15.7515689 -1.08357531 13.20926521 -5 11 C-4.32902328 6.80639551 -2.1441606 3.59665648 0 0 Z " fill="#FAFCFC" transform="translate(187,187)"></path><path d="M0 0 C4.29 0 8.58 0 13 0 C13 8.25 13 16.5 13 25 C57.22 25 101.44 25 147 25 C147 16.75 147 8.5 147 0 C151.29 0 155.58 0 160 0 C160.97185812 30.75391044 160.97185812 30.75391044 155 44 C154.5771875 44.97195312 154.154375 45.94390625 153.71875 46.9453125 C144.71482771 65.31959577 127.78174981 77.28999959 111 88 C110.27925293 88.46132324 109.55850586 88.92264648 108.81591797 89.39794922 C100.62438009 94.63039814 92.37903991 99.77274662 84.09838867 104.86279297 C68.68717489 114.34509406 53.54222972 124.22269111 39 135 C38.00097656 135.73734375 37.00195312 136.4746875 35.97265625 137.234375 C25.39957722 145.4143703 16.76930137 156.64325061 14 170 C13.9090785 171.7468937 13.86935376 173.49683687 13.8671875 175.24609375 C13.86589844 176.24833984 13.86460938 177.25058594 13.86328125 178.28320312 C13.86714844 179.32412109 13.87101562 180.36503906 13.875 181.4375 C13.87113281 182.47455078 13.86726563 183.51160156 13.86328125 184.58007812 C13.86457031 185.58361328 13.86585937 186.58714844 13.8671875 187.62109375 C13.86831543 188.5330249 13.86944336 189.44495605 13.87060547 190.38452148 C13.95639813 193.42082776 13.95639813 193.42082776 15 198 C43.71 198 72.42 198 102 198 C102 202.29 102 206.58 102 211 C76.26 211.33 50.52 211.66 24 212 C34.06052852 222.20117152 34.06052852 222.20117152 45.125 230.6875 C45.86492187 231.19732422 46.60484375 231.70714844 47.3671875 232.23242188 C51.07728728 234.79453537 51.07728728 234.79453537 55 237 C53.54955729 241.10958767 51.48889248 244.43258745 49 248 C43.33947722 246.55607948 39.46301794 243.7147117 34.9375 240.1875 C34.19306641 239.6092749 33.44863281 239.0310498 32.68164062 238.43530273 C17.62610925 226.52924145 2.6721845 211.92620336 0 192 C-1.23800534 171.06342512 2.26077925 152.91680646 16.46875 136.625 C31.37900596 121.16251234 50.43163549 109.52777566 68.7578125 98.5625 C73.68859614 95.60718336 78.50214635 92.48203656 83.31469727 89.33911133 C87.36734526 86.69571459 91.43823379 84.08610296 95.53515625 81.51171875 C115.25481635 69.11574032 130.50574047 58.30317173 143 38 C80.135 38.495 80.135 38.495 16 39 C25.22661048 54.37768414 37.5556777 65.07400384 53 74 C51.5140084 78.59306496 49.14985318 81.43569245 46 85 C35.86947024 80.32625318 26.98193523 72.6518552 19 65 C18.0925 64.13375 17.185 63.2675 16.25 62.375 C15.5075 61.59125 14.765 60.8075 14 60 C13.54367188 59.55011719 13.08734375 59.10023438 12.6171875 58.63671875 C3.79056516 49.32486325 -0.19207981 37.83443589 -0.09765625 25.1953125 C-0.0962413 24.4713327 -0.09482635 23.74735291 -0.09336853 23.00143433 C-0.08781075 20.70924593 -0.07526633 18.41715843 -0.0625 16.125 C-0.05747953 14.56250142 -0.05291759 13.00000129 -0.04882812 11.4375 C-0.03785519 7.62496165 -0.0206201 3.81249788 0 0 Z " fill="#FAFCFC" transform="translate(77,77)"></path><path d="M0 0 C52.8 0 105.6 0 160 0 C160 4.29 160 8.58 160 13 C107.2 13 54.4 13 0 13 C0 8.71 0 4.42 0 0 Z " fill="#F8FBFA" transform="translate(275,326)"></path><path d="M0 0 C52.8 0 105.6 0 160 0 C160 3.96 160 7.92 160 12 C107.2 12 54.4 12 0 12 C0 8.04 0 4.08 0 0 Z " fill="#FEFEFE" transform="translate(275,173)"></path><path d="M0 0 C27.72 0 55.44 0 84 0 C84 4.29 84 8.58 84 13 C56.28 13 28.56 13 0 13 C0 8.71 0 4.42 0 0 Z " fill="#F9FCFB" transform="translate(275,275)"></path></svg>