<svg version="1.1" xmlns="http://www.w3.org/2000/svg" width="16px" height="16px" fill="currentColor" viewBox="0 0 512 512"><path d="M0 0 C168.96 0 337.92 0 512 0 C512 168.96 512 337.92 512 512 C343.04 512 174.08 512 0 512 C0 343.04 0 174.08 0 0 Z " fill="#7746D3" transform="translate(0,0)"></path><path d="M0 0 C2.26505578 0.11269312 4.53348039 0.15939951 6.80126953 0.17700195 C7.50072189 0.18357315 8.20017426 0.19014435 8.92082214 0.19691467 C11.24148668 0.21666325 13.56208629 0.22831676 15.8828125 0.23828125 C17.07314905 0.24439454 17.07314905 0.24439454 18.28753281 0.25063133 C22.4918161 0.27150373 26.6960667 0.28579752 30.90039062 0.29516602 C35.23133346 0.30620272 39.56175856 0.34056702 43.892519 0.38033772 C47.23154616 0.40656671 50.57045149 0.41486364 53.9095726 0.41844749 C55.50507967 0.42330122 57.10058173 0.43488046 58.6959877 0.45348549 C70.39607637 0.6036376 70.39607637 0.6036376 81 -4 C92.78466519 -8.208809 105.69711648 -6.89735133 117 -2 C118.08861328 -1.54947266 118.08861328 -1.54947266 119.19921875 -1.08984375 C131.20640713 4.35939105 140.43720409 14.34950149 145.18626404 26.6665802 C148.81648263 37.07637445 148.34476 47.89016624 148.37109375 58.76953125 C148.38007759 60.69707807 148.3891997 62.62462425 148.39845276 64.5521698 C148.41487902 68.58077682 148.42263137 72.60930137 148.42553711 76.63793945 C148.4309181 81.76865914 148.46861435 86.89859059 148.51428127 92.02908802 C148.54420107 96.00740815 148.55126387 99.98554167 148.55226326 103.96396446 C148.55643498 105.85398664 148.56874474 107.74401096 148.58978081 109.63392067 C148.72264075 122.5999051 147.98197294 134.81064714 139.58203125 145.50390625 C132.08371678 152.59490488 124.13204665 154.41254225 114.1171875 154.265625 C103.00861681 153.31903 94.62026503 146.18285438 87.43359375 138.12109375 C77.07850401 125.17318029 69.65061822 110.60264576 62.4375 95.75 C62.12373413 95.10667725 61.80996826 94.46335449 61.48669434 93.80053711 C60.58671399 91.94854759 59.69593662 90.09244757 58.80859375 88.234375 C58.29095459 87.15381836 57.77331543 86.07326172 57.23999023 84.95996094 C56 82 56 82 55 77 C42.79 77.33 30.58 77.66 18 78 C16.06125 82.24875 14.1225 86.4975 12.125 90.875 C-12.45235515 144.08532858 -12.45235515 144.08532858 -34.875 153.1640625 C-42.76811329 155.27547031 -51.66664994 155.20170813 -58.97265625 151.32421875 C-68.42950605 145.14720125 -72.50043435 138.26607366 -75.36257935 127.49847412 C-76.73951772 119.94116757 -76.44998149 112.22819741 -76.43359375 104.5703125 C-76.43816473 102.68903415 -76.443473 100.80775747 -76.44947815 98.92648315 C-76.45837317 94.9979572 -76.45602781 91.06963493 -76.44604492 87.14111328 C-76.4345652 82.13940788 -76.4547701 77.13840957 -76.48396206 72.13679695 C-76.50242491 68.25539786 -76.50201154 64.37416505 -76.49632454 60.492733 C-76.49617253 58.65018599 -76.50211602 56.80762684 -76.51461601 54.96512222 C-76.61667272 37.45805171 -73.70974407 22.23107325 -61.4375 8.75 C-44.2315536 -7.22218668 -20.94176019 -10.47088009 0 0 Z " fill="#FCFBFE" transform="translate(287,281)"></path><path d="M0 0 C1.07629417 -0.00810448 1.07629417 -0.00810448 2.17433167 -0.01637268 C4.54104121 -0.02885866 6.90653402 -0.0123729 9.27319336 0.00561523 C10.91938847 0.00546026 12.56558394 0.00397152 14.21177673 0.00120544 C17.65925251 -0.00017842 21.10631218 0.0123784 24.55371094 0.03515625 C28.97474892 0.06356346 33.39509671 0.06079751 37.81618595 0.04806614 C41.21424771 0.04111526 44.61214961 0.04889103 48.01019096 0.06132317 C49.64049098 0.06584188 51.27080812 0.0661708 52.9011097 0.06225777 C55.17792143 0.05935069 57.4537777 0.07582613 59.73046875 0.09765625 C61.02634415 0.10305923 62.32221954 0.10846222 63.65736389 0.11402893 C66.80053711 0.50170898 66.80053711 0.50170898 68.72190857 1.79820251 C70.6051354 4.77243226 70.14759584 8.16163878 70.05053711 11.56420898 C70.03410156 12.70297485 70.03410156 12.70297485 70.01733398 13.86474609 C69.90789074 19.45170469 69.50472016 24.95626749 68.80053711 30.50170898 C69.39697021 30.59460205 69.99340332 30.68749512 70.60791016 30.78320312 C77.40119493 31.97395544 83.32966543 34.13905991 89.61303711 36.93920898 C90.52762695 37.33430664 91.4422168 37.7294043 92.38452148 38.13647461 C96.00749548 39.72004361 99.38324257 41.2255831 102.68725586 43.41186523 C103.73333008 43.95133789 103.73333008 43.95133789 104.80053711 44.50170898 C108.12802337 43.28948066 109.96955732 41.44207994 112.22631836 38.77124023 C112.85860352 38.05129883 113.49088867 37.33135742 114.14233398 36.58959961 C115.45695718 35.07172447 116.75911208 33.54296107 118.04858398 32.00366211 C118.68473633 31.28758789 119.32088867 30.57151367 119.97631836 29.83374023 C120.54261963 29.17092041 121.1089209 28.50810059 121.69238281 27.82519531 C123.80053711 26.50170898 123.80053711 26.50170898 127.09576416 26.63197327 C131.42913189 27.64927844 133.04699257 28.98393864 136.18505859 32.09399414 C136.67375931 32.57057465 137.16246002 33.04715515 137.66596985 33.53817749 C139.26666895 35.10753727 140.84448811 36.69776582 142.42163086 38.29077148 C143.53183757 39.39439155 144.64285839 40.49719319 145.75465393 41.59921265 C148.07677412 43.90800067 150.38748751 46.22750192 152.69091797 48.55493164 C155.64044716 51.53306739 158.61834355 54.48085001 161.6056509 57.42103004 C163.90445107 59.69061306 166.18652453 61.97644939 168.46400642 64.26740646 C169.55554801 65.36109819 170.65242073 66.44949657 171.7546978 67.53236771 C173.29454394 69.04965222 174.81020843 70.58766726 176.32177734 72.13305664 C177.18890854 73.00274078 178.05603973 73.87242493 178.94944763 74.76846313 C181.30584064 78.24782029 181.26468836 80.37965869 180.80053711 84.50170898 C179.33178711 86.68920898 179.33178711 86.68920898 177.30053711 88.50170898 C176.57479492 89.16299805 175.84905273 89.82428711 175.10131836 90.50561523 C174.34206055 91.16432617 173.58280273 91.82303711 172.80053711 92.50170898 C172.0722168 93.17073242 171.34389648 93.83975586 170.59350586 94.52905273 C165.2935328 99.33737709 165.2935328 99.33737709 161.80053711 100.50170898 C162.0720459 100.9830127 162.34355469 101.46431641 162.62329102 101.96020508 C169.06919781 113.49627779 174.07378737 124.82167023 177.80053711 137.50170898 C178.62779297 137.48076172 179.45504883 137.45981445 180.30737305 137.43823242 C184.05497081 137.35509279 187.8023746 137.30305368 191.55053711 137.25170898 C192.85249023 137.21819336 194.15444336 137.18467773 195.49584961 137.15014648 C196.74624023 137.13725586 197.99663086 137.12436523 199.28491211 137.11108398 C200.43701172 137.09013672 201.58911133 137.06918945 202.77612305 137.04760742 C206.52410375 137.61034912 207.45840586 138.58243854 209.80053711 141.50170898 C210.28155518 143.91888428 210.28155518 143.91888428 210.25463867 146.63745117 C210.25418549 148.16858551 210.25418549 148.16858551 210.25372314 149.73065186 C210.233078 150.82556946 210.21243286 151.92048706 210.19116211 153.04858398 C210.18550232 154.17492249 210.17984253 155.30126099 210.17401123 156.46173096 C210.15162256 160.05882281 210.10141924 163.65491824 210.05053711 167.25170898 C210.03047544 169.69049668 210.01222409 172.12929999 209.99584961 174.56811523 C209.95174922 180.54636368 209.88270241 186.5238674 209.80053711 192.50170898 C205.51053711 192.50170898 201.22053711 192.50170898 196.80053711 192.50170898 C196.80053711 178.97170898 196.80053711 165.44170898 196.80053711 151.50170898 C187.7200766 151.69938436 187.7200766 151.69938436 178.64111328 151.95214844 C177.51165283 151.96463623 176.38219238 151.97712402 175.21850586 151.98999023 C174.06116943 152.01617432 172.90383301 152.0423584 171.71142578 152.06933594 C168.80053711 151.50170898 168.80053711 151.50170898 166.97070312 149.19897461 C165.48605134 145.77681044 164.49955748 142.28597157 163.55053711 138.68920898 C160.12782024 126.48866603 155.50036769 115.18169232 148.08569336 104.83374023 C146.54948987 102.04616126 146.2411649 100.63518338 146.80053711 97.50170898 C148.48803711 95.29077148 148.48803711 95.29077148 150.80053711 93.12670898 C151.61393555 92.35713867 152.42733398 91.58756836 153.26538086 90.79467773 C156.73995587 87.65203439 160.22613451 84.53069865 163.80053711 81.50170898 C162.42854288 78.42525912 160.86376783 76.31630649 158.48413086 73.94238281 C157.81003174 73.26520706 157.13593262 72.58803131 156.44140625 71.89033508 C155.71429443 71.17040878 154.98718262 70.45048248 154.23803711 69.70874023 C153.49094482 68.96210617 152.74385254 68.21547211 151.97412109 67.44621277 C150.39616411 65.87127368 148.81578058 64.29876256 147.2331543 62.72851562 C144.80451301 60.31815496 142.38399318 57.89986396 139.96459961 55.48022461 C138.43121708 53.95175651 136.89737843 52.42374585 135.36303711 50.89624023 C134.63592529 50.17024124 133.90881348 49.44424225 133.15966797 48.69624329 C132.48556885 48.02852402 131.81146973 47.36080475 131.11694336 46.67285156 C130.52341064 46.08313065 129.92987793 45.49340973 129.31835938 44.88581848 C127.83137875 43.40370218 127.83137875 43.40370218 125.80053711 42.50170898 C125.5878418 43.0237793 125.37514648 43.54584961 125.15600586 44.08374023 C123.23185513 47.51615897 120.73790749 50.27376255 118.11303711 53.18920898 C117.60836914 53.78282227 117.10370117 54.37643555 116.58374023 54.98803711 C113.84352054 58.02618208 112.24183598 59.36830429 108.23413086 60.57983398 C104.29178985 60.49013339 102.77470272 59.769963 99.55053711 57.56420898 C87.89791973 50.27220812 75.09945065 45.37266255 61.70678711 42.38842773 C58.66754981 41.46113356 57.68552599 40.9754991 55.80053711 38.50170898 C55.4440918 36.18920898 55.4440918 36.18920898 55.47241211 33.50170898 C55.47756836 32.53233398 55.48272461 31.56295898 55.48803711 30.56420898 C55.50866211 29.55358398 55.52928711 28.54295898 55.55053711 27.50170898 C55.55569336 26.49108398 55.56084961 25.48045898 55.56616211 24.43920898 C55.64566074 16.96633811 55.64566074 16.96633811 56.80053711 13.50170898 C38.98053711 13.50170898 21.16053711 13.50170898 2.80053711 13.50170898 C3.13053711 18.12170898 3.46053711 22.74170898 3.80053711 27.50170898 C4.31483854 36.75913473 4.31483854 36.75913473 2.33959961 39.61108398 C-1.22602411 42.26610226 -4.87102397 43.038589 -9.13696289 44.12670898 C-21.10386456 47.42704517 -33.62736587 52.19790534 -43.85961914 59.36499023 C-47.37080904 61.07076029 -49.49921469 60.57185863 -53.19946289 59.50170898 C-55.92993164 57.17358398 -55.92993164 57.17358398 -58.38696289 54.25170898 C-59.20551758 53.29780273 -60.02407227 52.34389648 -60.86743164 51.36108398 C-62.99404131 48.75358268 -65.10751066 46.13708789 -67.19946289 43.50170898 C-70.29125425 44.87786259 -72.39585042 46.45329344 -74.7746582 48.84985352 C-75.45506165 49.53040802 -76.13546509 50.21096252 -76.83648682 50.91213989 C-77.55955017 51.64552582 -78.28261353 52.37891174 -79.02758789 53.13452148 C-79.77659363 53.88635712 -80.52559937 54.63819275 -81.29730225 55.41281128 C-83.68609309 57.81278799 -86.06783186 60.21962907 -88.44946289 62.62670898 C-90.06879458 64.25607251 -91.68858091 65.88498433 -93.30883789 67.51342773 C-97.27766794 71.50429704 -101.24073188 75.50082314 -105.19946289 79.50170898 C-103.39601993 83.43952097 -101.08948809 85.63058763 -97.82446289 88.50170898 C-95.94499763 90.16333864 -94.06972471 91.82972707 -92.19946289 93.50170898 C-91.40282227 94.12045898 -90.60618164 94.73920898 -89.78540039 95.37670898 C-88.19946289 97.50170898 -88.19946289 97.50170898 -88.12133789 100.62670898 C-89.19166111 105.68250709 -91.9448616 110.04059122 -94.44946289 114.50170898 C-99.07895225 123.01985039 -102.53938369 131.18572345 -105.19946289 140.50170898 C-105.70845902 142.25518847 -106.22755961 144.00580507 -106.76196289 145.75170898 C-107.04233398 146.74944336 -107.04233398 146.74944336 -107.32836914 147.76733398 C-108.19946289 149.50170898 -108.19946289 149.50170898 -112.19946289 152.50170898 C-123.58446289 152.00670898 -123.58446289 152.00670898 -135.19946289 151.50170898 C-135.19946289 169.32170898 -135.19946289 187.14170898 -135.19946289 205.50170898 C-132.88946289 205.17170898 -130.57946289 204.84170898 -128.19946289 204.50170898 C-125.30299023 204.27800144 -122.41628811 204.22745734 -119.51196289 204.18920898 C-118.76624023 204.16020508 -118.02051758 204.13120117 -117.25219727 204.10131836 C-113.96993666 204.06325468 -111.67827606 204.20305127 -108.86352539 205.95874023 C-106.48751278 209.58968908 -105.43559468 213.349232 -104.26196289 217.50170898 C-103.74501053 219.22423265 -103.22417659 220.94559619 -102.69946289 222.66577148 C-102.44551758 223.49882812 -102.19157227 224.33188477 -101.92993164 225.19018555 C-99.21372643 233.78544991 -94.7556761 246.94549577 -88.19946289 253.50170898 C-88.16665241 257.21866775 -88.35809297 259.41504499 -90.65991211 262.38793945 C-92.58659028 264.32683434 -94.57749654 266.14216771 -96.63696289 267.93920898 C-97.33112305 268.57536133 -98.0252832 269.21151367 -98.74047852 269.86694336 C-103.88302727 274.50170898 -103.88302727 274.50170898 -106.19946289 274.50170898 C-101.57804943 279.90737275 -96.78286038 285.05655515 -91.73461914 290.06420898 C-91.05644638 290.7409668 -90.37827362 291.41772461 -89.67955017 292.11499023 C-87.54271984 294.24628573 -85.40241466 296.37405116 -83.26196289 298.50170898 C-81.80014166 299.95850678 -80.33855102 301.415536 -78.87719727 302.87280273 C-75.32060889 306.41844871 -71.76090273 309.96093637 -68.19946289 313.50170898 C-67.07781295 312.54516678 -65.95685177 311.5878169 -64.83618164 310.63012695 C-64.21187256 310.09708954 -63.58756348 309.56405212 -62.94433594 309.01486206 C-60.95332797 307.2882609 -59.05887068 305.49413146 -57.19946289 303.62670898 C-56.53430664 302.95897461 -55.86915039 302.29124023 -55.18383789 301.60327148 C-52.58266458 298.84848557 -50.19242069 295.93942272 -47.84008789 292.97045898 C-46.19946289 291.50170898 -46.19946289 291.50170898 -42.19946289 291.50170898 C-39.59446548 293.57723537 -37.46264741 296.06443334 -35.19946289 298.50170898 C-39.9245809 305.22187681 -45.33411867 311.10481901 -51.09423828 316.93188477 C-52.64658342 318.51149851 -54.17334872 320.11348677 -55.70141602 321.71655273 C-56.69797079 322.72974126 -57.69596827 323.74151322 -58.69555664 324.75170898 C-59.58428467 325.66436523 -60.4730127 326.57702148 -61.38867188 327.51733398 C-65.01044487 330.07424972 -66.83027692 329.98394377 -71.19946289 329.50170898 C-73.93270874 327.65061951 -73.93270874 327.65061951 -76.56811523 325.02294922 C-77.29875687 324.3082975 -77.29875687 324.3082975 -78.04415894 323.57920837 C-79.64246492 322.00652071 -81.21401178 320.40985191 -82.78540039 318.81030273 C-83.89291818 317.70496226 -85.00154818 316.60073517 -86.11123657 315.49757385 C-88.43054005 313.18407068 -90.73699909 310.8586714 -93.03491211 308.52392578 C-95.97536304 305.53802283 -98.94389275 302.58203934 -101.9224453 299.6342001 C-104.21558013 297.35889784 -106.49393514 295.06924371 -108.76805496 292.77495003 C-109.85699666 291.6795093 -110.95024604 290.58833279 -112.04789352 289.50161552 C-113.58279134 287.97729867 -115.09691128 286.43490543 -116.60717773 284.88623047 C-117.47208832 284.01353012 -118.3369989 283.14082977 -119.2281189 282.24168396 C-121.6172743 278.92099207 -122.04299993 276.55828606 -122.19946289 272.50170898 C-120.82836914 270.31420898 -120.82836914 270.31420898 -118.76196289 268.50170898 C-118.02719727 267.84041992 -117.29243164 267.17913086 -116.53540039 266.49780273 C-115.76454102 265.8390918 -114.99368164 265.18038086 -114.19946289 264.50170898 C-113.46985352 263.83268555 -112.74024414 263.16366211 -111.98852539 262.47436523 C-106.70181757 257.66916055 -106.70181757 257.66916055 -103.19946289 256.50170898 C-103.77954102 255.33897461 -104.35961914 254.17624023 -104.95727539 252.97827148 C-118.19946289 225.99713704 -118.19946289 225.99713704 -118.19946289 217.50170898 C-119.05926758 217.57389648 -119.91907227 217.64608398 -120.80493164 217.72045898 C-126.99452765 218.20644689 -133.17904413 218.61189099 -139.38696289 218.75170898 C-140.95510742 218.79038086 -140.95510742 218.79038086 -142.55493164 218.82983398 C-145.19946289 218.50170898 -145.19946289 218.50170898 -146.8394928 217.42308044 C-148.91439186 214.49165433 -148.58867696 211.99061077 -148.60351562 208.43164062 C-148.61037888 207.71586349 -148.61724213 207.00008636 -148.62431335 206.26261902 C-148.64262113 203.89549954 -148.63873832 201.52904036 -148.63305664 199.16186523 C-148.63761673 197.51663497 -148.64292179 195.87140661 -148.64894104 194.22618103 C-148.65788006 190.77701075 -148.65544034 187.32807191 -148.64550781 183.87890625 C-148.63402007 179.45897068 -148.65422199 175.03983426 -148.68342495 170.6200037 C-148.70177305 167.22190781 -148.70149726 163.82400389 -148.69578743 160.4258709 C-148.69563403 158.79637977 -148.70169408 157.16687578 -148.7140789 155.53743172 C-148.72896074 153.25816902 -148.71833434 150.98038824 -148.70117188 148.70117188 C-148.70100571 147.40450089 -148.70083954 146.1078299 -148.70066833 144.77186584 C-148.11615778 140.95817781 -147.27346498 139.76247838 -144.19946289 137.50170898 C-141.35864258 137.04760742 -141.35864258 137.04760742 -138.12133789 137.11108398 C-136.96118164 137.12397461 -135.80102539 137.13686523 -134.60571289 137.15014648 C-132.79586914 137.20041992 -132.79586914 137.20041992 -130.94946289 137.25170898 C-129.72743164 137.26975586 -128.50540039 137.28780273 -127.24633789 137.30639648 C-124.22992211 137.35352798 -121.21508798 137.41931486 -118.19946289 137.50170898 C-117.96420898 136.66776611 -117.72895508 135.83382324 -117.48657227 134.97460938 C-114.55296579 124.70951567 -110.66345041 114.56920304 -105.35961914 105.27905273 C-103.94189994 102.6575467 -103.94189994 102.6575467 -104.71118164 100.40795898 C-106.60667209 97.98013919 -108.69390005 96.03131722 -111.01196289 94.00170898 C-111.8640332 93.24889648 -112.71610352 92.49608398 -113.59399414 91.72045898 C-115.33573293 90.23723914 -117.1213259 88.80408292 -118.94555664 87.42358398 C-121.19946289 85.50170898 -121.19946289 85.50170898 -122.44946289 82.25170898 C-122.17800799 78.1798855 -121.90206332 77.73541072 -119.29907227 74.90185547 C-118.65832764 74.20140106 -118.01758301 73.50094666 -117.35742188 72.77926636 C-110.56776379 65.61331189 -103.63607437 58.58964444 -96.68432617 51.58154297 C-94.68612686 49.56542589 -92.69682848 47.54109643 -90.71459961 45.50927734 C-87.84102881 42.56396925 -84.94329897 39.64357225 -82.04321289 36.72436523 C-81.16072876 35.81405045 -80.27824463 34.90373566 -79.36901855 33.96583557 C-72.4470516 27.06679262 -72.4470516 27.06679262 -68.24047852 26.33544922 C-63.44969125 26.59737328 -61.64365165 28.92714207 -58.51196289 32.34155273 C-56.70705267 34.36818684 -54.94615636 36.42477506 -53.19946289 38.50170898 C-52.68512695 39.11272461 -52.17079102 39.72374023 -51.64086914 40.35327148 C-50.48808939 41.73138212 -49.34284492 43.11579138 -48.19946289 44.50170898 C-43.25114631 43.00175052 -38.81406823 40.9089638 -34.19946289 38.62670898 C-26.68152399 34.98264613 -19.31453625 32.53029581 -11.19946289 30.50170898 C-11.22041016 29.73503906 -11.24135742 28.96836914 -11.26293945 28.1784668 C-11.34611447 24.70301438 -11.39812864 21.22777136 -11.44946289 17.75170898 C-11.48297852 16.54514648 -11.51649414 15.33858398 -11.55102539 14.09545898 C-11.56391602 12.93530273 -11.57680664 11.77514648 -11.59008789 10.57983398 C-11.61103516 9.51152344 -11.63198242 8.44321289 -11.65356445 7.3425293 C-10.57737217 0.60996294 -6.07400168 0.00077838 0 0 Z " fill="#FCFAFE" transform="translate(225.199462890625,76.498291015625)"></path><path d="M0 0 C8.26674401 6.03699838 14.11395686 15.25728431 16.125 25.3125 C17.23249095 36.56144374 14.79237132 46.29098087 8.4375 55.6875 C1.58285408 63.97602594 -8.42604595 69.43026735 -19.07421875 70.69140625 C-30.31046833 71.10362369 -40.28338652 67.60481466 -48.875 60.3125 C-57.67321797 51.23552661 -61.27666917 40.47082635 -61.1484375 28.01953125 C-60.37023596 17.46934178 -55.32865095 9.51872634 -47.80859375 2.33984375 C-33.64929395 -9.59044284 -15.60688887 -9.512518 0 0 Z " fill="#7244CE" transform="translate(284.875,294.6875)"></path><path d="M0 0 C9.52352616 -0.4980608 18.60303188 2.39357062 25.96875 8.48828125 C33.13823144 15.2087023 39.32329663 22.85936597 40.05078125 32.9921875 C40.44513569 45.54603128 38.84572173 54.70022614 30.52734375 64.62109375 C22.8864119 72.50198875 12.99495723 77.08565135 1.96484375 77.62109375 C-8.61894705 77.22170542 -17.60504223 73.44582212 -25.22265625 66.18359375 C-25.78597656 65.66023438 -26.34929687 65.136875 -26.9296875 64.59765625 C-34.78603883 56.44296246 -36.91136951 46.5937053 -36.75048828 35.63452148 C-36.49045059 29.79735964 -35.43625872 25.1429941 -32.22265625 20.18359375 C-31.62453125 19.15234375 -31.02640625 18.12109375 -30.41015625 17.05859375 C-23.89116367 8.49077493 -16.2500988 2.87987299 -5.59765625 0.30859375 C-3.73021795 0.23942937 -1.86237605 0.15383423 0 0 Z " fill="#7D4BD8" transform="translate(382.22265625,287.81640625)"></path><path d="M0 0 C1.09054687 0.350625 2.18109375 0.70125 3.3046875 1.0625 C18.51111721 6.416353 30.81013653 14.51630198 42 26 C42.74765625 26.73863281 43.4953125 27.47726563 44.265625 28.23828125 C60.64873339 45.36314455 68.32825478 68.69391081 68 92 C63.71 92 59.42 92 55 92 C54.9175 90.164375 54.835 88.32875 54.75 86.4375 C53.18749735 67.18746732 45.31194215 50.66137698 33 36 C32.47277344 35.35933594 31.94554687 34.71867187 31.40234375 34.05859375 C17.51949357 18.75550315 -3.67192089 10.79362125 -23.86328125 9.68359375 C-48.48202625 8.83993105 -69.56873706 17.31185327 -87.625 34.125 C-93.06811991 39.77296851 -97.03818185 46.27340427 -101 53 C-101.50660156 53.84433594 -102.01320312 54.68867188 -102.53515625 55.55859375 C-112.18152746 73.05186019 -112.92887146 96.13274722 -108 115.1875 C-104.41700229 127.57908308 -98.38827868 138.0840254 -89.8828125 147.73046875 C-88 150 -88 150 -86 154 C-88.31 156.64 -90.62 159.28 -93 162 C-107.03138438 154.98430781 -114.86841157 136.78725612 -119.80859375 122.65625 C-127.50926003 99.02404136 -126.19999529 72.9896335 -115.25 50.625 C-102.74092122 26.67652337 -83.69455684 8.88974103 -58 0 C-53.69671935 -1.23536976 -49.40702722 -2.21946384 -45 -3 C-44.113125 -3.18175781 -43.22625 -3.36351562 -42.3125 -3.55078125 C-27.97695085 -5.49487105 -13.69876196 -4.57628971 0 0 Z " fill="#FCFBFE" transform="translate(282,156)"></path><path d="M0 0 C0.54672867 0.41232376 1.09345734 0.82464752 1.65675354 1.24946594 C2.73460365 2.06051033 2.73460365 2.06051033 3.83422852 2.88793945 C4.90182152 3.69205009 4.90182152 3.69205009 5.99098206 4.5124054 C8.24669848 6.18267001 10.54157373 7.72537063 12.9375 9.1875 C14.06478516 9.88939453 14.06478516 9.88939453 15.21484375 10.60546875 C22.75296317 14.37981466 29.47927114 15.4972467 37.875 15.375 C38.83937988 15.36919922 39.80375977 15.36339844 40.79736328 15.35742188 C47.5209865 15.23474046 53.7067813 14.52933192 60 12 C41.42011968 53.93447848 41.42011968 53.93447848 25.1015625 60.515625 C19.24999338 61.86431379 14.02467824 61.95712062 8.5625 59.375 C3.631702 54.8049921 0.34411074 49.54502242 -0.17193604 42.72906494 C-0.2309727 40.00716734 -0.22478947 37.29268997 -0.1953125 34.5703125 C-0.1924826 33.57998016 -0.18965271 32.58964783 -0.18673706 31.56930542 C-0.1755847 28.42107824 -0.15048907 25.27314051 -0.125 22.125 C-0.11496382 19.98437912 -0.10583908 17.84375376 -0.09765625 15.703125 C-0.07566158 10.46865203 -0.04223333 5.2343467 0 0 Z " fill="#6C3FC7" transform="translate(224,361)"></path><path d="M0 0 C0.33 0 0.66 0 1 0 C1.10196696 6.38617208 1.17170187 12.77213187 1.21972656 19.15893555 C1.23976081 21.32861171 1.26699612 23.49823443 1.30175781 25.66772461 C1.350637 28.798149 1.37305125 31.92785548 1.390625 35.05859375 C1.41127014 36.01833603 1.43191528 36.97807831 1.45318604 37.96690369 C1.4556542 45.48496476 -0.21347225 51.49436831 -4.9375 57.4375 C-9.65070021 61.00810622 -14.39160454 61.56522513 -20.16015625 61.43359375 C-28.77831427 60.11775394 -34.9878028 52.61289891 -40 46 C-45.08424056 38.60567854 -49.32531708 30.71170281 -53.5625 22.8125 C-54.0167334 21.97412598 -54.4709668 21.13575195 -54.93896484 20.27197266 C-55.35227051 19.48741699 -55.76557617 18.70286133 -56.19140625 17.89453125 C-56.56467041 17.19175049 -56.93793457 16.48896973 -57.32250977 15.76489258 C-57.54608154 15.18247803 -57.76965332 14.60006348 -58 14 C-57.67 13.34 -57.34 12.68 -57 12 C-56.4750293 12.21076172 -55.95005859 12.42152344 -55.40917969 12.63867188 C-49.2720692 14.91564434 -43.77068162 15.544982 -37.25 15.5 C-36.28352539 15.49427979 -35.31705078 15.48855957 -34.32128906 15.48266602 C-21.552188 15.16504265 -10.43398427 10.43398427 -1.2890625 1.2890625 C-0.86367188 0.86367188 -0.43828125 0.43828125 0 0 Z " fill="#7848D4" transform="translate(421,361)"></path><path d="M0 0 C13.53 0 27.06 0 41 0 C38.69 4.29 36.38 8.58 34 13 C30.46077172 24.75937137 29.48547103 36.13846472 33 48 C33 49.32 33 50.64 33 52 C24.42 52 15.84 52 7 52 C7.66 49.03 8.32 46.06 9 43 C10.64304258 27.79760126 9.17157178 14.56845022 0 2 C0 1.34 0 0.68 0 0 Z " fill="#7B4DD5" transform="translate(303,294)"></path><path d="M0 0 C4.29 0 8.58 0 13 0 C13 4.29 13 8.58 13 13 C17.29 13 21.58 13 26 13 C26 17.29 26 21.58 26 26 C21.71 26 17.42 26 13 26 C13 30.29 13 34.58 13 39 C8.71 39 4.42 39 0 39 C0 34.71 0 30.42 0 26 C-4.29 26 -8.58 26 -13 26 C-13 21.71 -13 17.42 -13 13 C-8.71 13 -4.42 13 0 13 C0 8.71 0 4.42 0 0 Z " fill="#FAF9FD" transform="translate(256,307)"></path><path d="M0 0 C3.64751591 0.28057815 5.34775143 1.07331357 8.25 3.25 C10.75083894 7.00125841 10.46222497 8.77066893 9.84375 13.0859375 C9.25 15.25 9.25 15.25 7.1875 17.8125 C3.3911123 19.67030675 0.38781982 20.3428516 -3.75 19.25 C-7.31352884 16.20615245 -8.56458415 14.30687034 -9.375 9.6875 C-8.59686049 5.40773271 -7.04670019 3.98384894 -3.75 1.25 C-2.75 0.25 -2.75 0.25 0 0 Z " fill="#FBF9FD" transform="translate(373.75,306.75)"></path><path d="M0 0 C3.64575305 0.870234 5.12960019 2.43704001 7.16015625 5.515625 C7.73182988 9.51734043 7.52954253 11.74327186 5.78515625 15.390625 C3.97298312 17.76038986 3.08755476 18.37168692 0.171875 18.82421875 C-5.86883867 19.15924993 -5.86883867 19.15924993 -8.54296875 17.38671875 C-10.76369819 14.94264009 -11.79627504 12.72475479 -12.46484375 9.515625 C-10.94878038 2.23852083 -7.15793315 -0.52579142 0 0 Z " fill="#FCFBFE" transform="translate(395.83984375,326.484375)"></path></svg>