<svg version="1.1" xmlns="http://www.w3.org/2000/svg" width="16px" height="16px" fill="currentColor" viewBox="0 0 512 512"><path d="M0 0 C168.96 0 337.92 0 512 0 C512 168.96 512 337.92 512 512 C343.04 512 174.08 512 0 512 C0 343.04 0 174.08 0 0 Z " fill="#E4750D" transform="translate(0,0)"></path><path d="M0 0 C5.67971832 0.67564117 10.76351777 2.54901808 16.10546875 4.4921875 C17.06649002 4.83879425 18.02751129 5.185401 19.01765442 5.54251099 C21.04163046 6.27452246 23.06461873 7.00927017 25.08666992 7.74658203 C28.18380542 8.87365551 31.2859558 9.98605228 34.38867188 11.09765625 C36.35709276 11.81161307 38.32520281 12.52642754 40.29296875 13.2421875 C41.22110886 13.57354706 42.14924896 13.90490662 43.10551453 14.24630737 C43.96683487 14.56318512 44.82815521 14.88006287 45.71557617 15.20654297 C46.47247238 15.48110321 47.22936859 15.75566345 48.00920105 16.0385437 C50.22863887 17.11042114 51.52155801 18.02369916 53 20 C53.70253384 26.62437121 50.68799484 33.43218972 48.40234375 39.50390625 C47.87176109 40.94974342 47.87176109 40.94974342 47.33045959 42.42478943 C46.20892741 45.47428051 45.07347913 48.51836506 43.9375 51.5625 C43.1702952 53.64093345 42.40400978 55.71970651 41.63867188 57.79882812 C39.76972817 62.86986113 37.88936045 67.93654087 36 73 C31.6850046 72.43584866 27.97591818 71.80723554 24 70 C24.58749653 64.03650782 26.30772773 58.89501917 28.4375 53.3125 C28.75009766 52.47138672 29.06269531 51.63027344 29.38476562 50.76367188 C30.76900081 47.07335355 32.18933887 43.50515918 34 40 C19.96236975 46.1505081 10.1678197 54.84256128 3.1875 68.5625 C-1.92853344 83.37207049 -1.95166841 99.87956872 4.75 114.125 C10.98855603 125.9288866 19.90722107 132.5997157 32.49238586 137.11946106 C39.74745191 138.94074696 47.24590679 138.686917 54.6875 138.75 C56.37177472 138.77821448 58.05602154 138.80814938 59.74023438 138.83984375 C63.82677195 138.9130537 67.91298057 138.96302205 72 139 C71.99111755 138.01916443 71.98223511 137.03832886 71.9730835 136.027771 C71.8920203 126.78734353 71.83204555 117.54698814 71.79275131 108.30628586 C71.77187056 103.55543964 71.7435441 98.80488031 71.69824219 94.05419922 C71.6548017 89.47006661 71.63086657 84.88621006 71.62049103 80.30188751 C71.61309641 78.55234684 71.59865645 76.80282138 71.57707977 75.05339813 C71.54806899 72.60395075 71.54404292 70.15564605 71.54589844 67.70605469 C71.53151733 66.98172745 71.51713623 66.25740021 71.50231934 65.51112366 C71.52841309 62.33062421 71.70335318 60.39915877 73.62441635 57.81423569 C76.74241208 55.43301913 78.58783429 55.49712319 82.49035645 55.49206543 C83.14023671 55.48582547 83.79011697 55.4795855 84.45969057 55.47315645 C86.63560636 55.45721148 88.81040419 55.46983519 90.98632812 55.48242188 C92.54691725 55.47700137 94.10750126 55.46987911 95.66807556 55.46118164 C99.9057029 55.44293663 104.14294098 55.45002053 108.38057518 55.46269798 C112.81366404 55.47281961 117.24671941 55.46343464 121.67980957 55.45715332 C129.12465402 55.44987446 136.56933979 55.45947083 144.01416016 55.47851562 C152.62346567 55.50028488 161.2323923 55.49323367 169.84168863 55.47121 C177.23118793 55.45306276 184.62057311 55.45049436 192.01008749 55.46096468 C196.42451787 55.46720335 200.83877012 55.46802505 205.25318909 55.45481873 C209.40327773 55.4432706 213.5528775 55.45126657 217.70291328 55.47439575 C219.22670746 55.47968846 220.75054273 55.47815943 222.2743206 55.46934509 C224.35331843 55.45842711 226.43074604 55.47210446 228.50964355 55.49206543 C229.67328178 55.49357353 230.83692001 55.49508163 232.03582001 55.49663544 C235 56 235 56 237.37558365 57.51052475 C239.6742525 61.03331569 239.54073619 64.27110996 239.48101807 68.33953857 C239.48443577 69.18825161 239.48785347 70.03696465 239.49137473 70.91139627 C239.49797199 73.75995756 239.47594724 76.60757998 239.45410156 79.45605469 C239.45297348 81.4960274 239.45360617 83.53600174 239.45587158 85.57597351 C239.4570212 91.11909002 239.43347166 96.66186166 239.40557575 102.20489788 C239.38060341 107.99581348 239.37822339 113.78673662 239.37347412 119.57769775 C239.3610321 130.54596603 239.32819381 141.51407519 239.28807616 152.48227334 C239.23504549 167.30198117 239.2134229 182.12173239 239.19006729 196.94151115 C239.15243337 220.29445999 239.07275055 243.64707304 239 267 C272.66 267 306.32 267 341 267 C341 271.29 341 275.58 341 280 C222.86 280 104.72 280 -17 280 C-17 275.71 -17 271.42 -17 267 C12.37 267 41.74 267 72 267 C72 229.05 72 191.1 72 152 C60.12 152 48.24 152 36 152 C16.22744778 145.82107743 1.84497563 138.12572727 -8.21484375 119.78515625 C-9.28360851 117.55486601 -10.1697159 115.32940817 -11 113 C-11.44859375 111.76636719 -11.44859375 111.76636719 -11.90625 110.5078125 C-17.18807269 93.24407721 -14.79401078 74.13195991 -6.8125 58.1875 C-3.27670921 52.03008656 0.96152389 46.97670845 6 42 C6.60199219 41.37609375 7.20398438 40.7521875 7.82421875 40.109375 C14.34318092 33.8308084 23.43356246 28.85547918 32 26 C26.99160183 23.61793724 21.94564316 21.58469446 16.6875 19.81640625 C15.04587891 19.26049805 15.04587891 19.26049805 13.37109375 18.69335938 C11.09674989 17.9304132 8.81793206 17.18069339 6.53515625 16.44335938 C4.90900391 15.88551758 4.90900391 15.88551758 3.25 15.31640625 C2.26515625 14.99099854 1.2803125 14.66559082 0.265625 14.33032227 C-2 13 -2 13 -2.86303711 10.49511719 C-3.01253148 7.77170824 -2.62017762 6.18361919 -1.5625 3.6875 C-1.27503906 2.99011719 -0.98757812 2.29273438 -0.69140625 1.57421875 C-0.46324219 1.05472656 -0.23507813 0.53523437 0 0 Z " fill="#DF7010" transform="translate(94,155)"></path><path d="M0 0 C5.67971832 0.67564117 10.76351777 2.54901808 16.10546875 4.4921875 C17.06649002 4.83879425 18.02751129 5.185401 19.01765442 5.54251099 C21.04163046 6.27452246 23.06461873 7.00927017 25.08666992 7.74658203 C28.18380542 8.87365551 31.2859558 9.98605228 34.38867188 11.09765625 C36.35709276 11.81161307 38.32520281 12.52642754 40.29296875 13.2421875 C41.22110886 13.57354706 42.14924896 13.90490662 43.10551453 14.24630737 C43.96683487 14.56318512 44.82815521 14.88006287 45.71557617 15.20654297 C46.47247238 15.48110321 47.22936859 15.75566345 48.00920105 16.0385437 C50.22863887 17.11042114 51.52155801 18.02369916 53 20 C53.70253384 26.62437121 50.68799484 33.43218972 48.40234375 39.50390625 C47.87176109 40.94974342 47.87176109 40.94974342 47.33045959 42.42478943 C46.20892741 45.47428051 45.07347913 48.51836506 43.9375 51.5625 C43.1702952 53.64093345 42.40400978 55.71970651 41.63867188 57.79882812 C39.76972817 62.86986113 37.88936045 67.93654087 36 73 C31.6850046 72.43584866 27.97591818 71.80723554 24 70 C24.58749653 64.03650782 26.30772773 58.89501917 28.4375 53.3125 C28.75009766 52.47138672 29.06269531 51.63027344 29.38476562 50.76367188 C30.76900081 47.07335355 32.18933887 43.50515918 34 40 C19.96236975 46.1505081 10.1678197 54.84256128 3.1875 68.5625 C-1.92853344 83.37207049 -1.95166841 99.87956872 4.75 114.125 C10.98855603 125.9288866 19.90722107 132.5997157 32.49238586 137.11946106 C39.74745191 138.94074696 47.24590679 138.686917 54.6875 138.75 C56.37177472 138.77821448 58.05602154 138.80814938 59.74023438 138.83984375 C63.82677195 138.9130537 67.91298057 138.96302205 72 139 C71.99111755 138.01916443 71.98223511 137.03832886 71.9730835 136.027771 C71.8920203 126.78734353 71.83204555 117.54698814 71.79275131 108.30628586 C71.77187056 103.55543964 71.7435441 98.80488031 71.69824219 94.05419922 C71.6548017 89.47006661 71.63086657 84.88621006 71.62049103 80.30188751 C71.61309641 78.55234684 71.59865645 76.80282138 71.57707977 75.05339813 C71.54806899 72.60395075 71.54404292 70.15564605 71.54589844 67.70605469 C71.53151733 66.98172745 71.51713623 66.25740021 71.50231934 65.51112366 C71.52841309 62.33062421 71.70335318 60.39915877 73.62441635 57.81423569 C76.74241208 55.43301913 78.58783429 55.49712319 82.49035645 55.49206543 C83.14023671 55.48582547 83.79011697 55.4795855 84.45969057 55.47315645 C86.63560636 55.45721148 88.81040419 55.46983519 90.98632812 55.48242188 C92.54691725 55.47700137 94.10750126 55.46987911 95.66807556 55.46118164 C99.9057029 55.44293663 104.14294098 55.45002053 108.38057518 55.46269798 C112.81366404 55.47281961 117.24671941 55.46343464 121.67980957 55.45715332 C129.12465402 55.44987446 136.56933979 55.45947083 144.01416016 55.47851562 C152.62346567 55.50028488 161.2323923 55.49323367 169.84168863 55.47121 C177.23118793 55.45306276 184.62057311 55.45049436 192.01008749 55.46096468 C196.42451787 55.46720335 200.83877012 55.46802505 205.25318909 55.45481873 C209.40327773 55.4432706 213.5528775 55.45126657 217.70291328 55.47439575 C219.22670746 55.47968846 220.75054273 55.47815943 222.2743206 55.46934509 C224.35331843 55.45842711 226.43074604 55.47210446 228.50964355 55.49206543 C229.67328178 55.49357353 230.83692001 55.49508163 232.03582001 55.49663544 C235 56 235 56 237.37558365 57.51052475 C239.6742525 61.03331569 239.54073619 64.27110996 239.48101807 68.33953857 C239.48443577 69.18825161 239.48785347 70.03696465 239.49137473 70.91139627 C239.49797199 73.75995756 239.47594724 76.60757998 239.45410156 79.45605469 C239.45297348 81.4960274 239.45360617 83.53600174 239.45587158 85.57597351 C239.4570212 91.11909002 239.43347166 96.66186166 239.40557575 102.20489788 C239.38060341 107.99581348 239.37822339 113.78673662 239.37347412 119.57769775 C239.3610321 130.54596603 239.32819381 141.51407519 239.28807616 152.48227334 C239.23504549 167.30198117 239.2134229 182.12173239 239.19006729 196.94151115 C239.15243337 220.29445999 239.07275055 243.64707304 239 267 C272.66 267 306.32 267 341 267 C341 271.29 341 275.58 341 280 C222.86 280 104.72 280 -17 280 C-17 275.71 -17 271.42 -17 267 C12.37 267 41.74 267 72 267 C72 229.05 72 191.1 72 152 C60.12 152 48.24 152 36 152 C16.22744778 145.82107743 1.84497563 138.12572727 -8.21484375 119.78515625 C-9.28360851 117.55486601 -10.1697159 115.32940817 -11 113 C-11.44859375 111.76636719 -11.44859375 111.76636719 -11.90625 110.5078125 C-17.18807269 93.24407721 -14.79401078 74.13195991 -6.8125 58.1875 C-3.27670921 52.03008656 0.96152389 46.97670845 6 42 C6.60199219 41.37609375 7.20398438 40.7521875 7.82421875 40.109375 C14.34318092 33.8308084 23.43356246 28.85547918 32 26 C26.99160183 23.61793724 21.94564316 21.58469446 16.6875 19.81640625 C15.04587891 19.26049805 15.04587891 19.26049805 13.37109375 18.69335938 C11.09674989 17.9304132 8.81793206 17.18069339 6.53515625 16.44335938 C4.90900391 15.88551758 4.90900391 15.88551758 3.25 15.31640625 C2.26515625 14.99099854 1.2803125 14.66559082 0.265625 14.33032227 C-2 13 -2 13 -2.86303711 10.49511719 C-3.01253148 7.77170824 -2.62017762 6.18361919 -1.5625 3.6875 C-1.27503906 2.99011719 -0.98757812 2.29273438 -0.69140625 1.57421875 C-0.46324219 1.05472656 -0.23507813 0.53523437 0 0 Z M85 69 C85 134.34 85 199.68 85 267 C99.85 267 114.7 267 130 267 C130.04898438 263.12507812 130.09796875 259.25015625 130.1484375 255.2578125 C130.20239797 251.51802601 130.25972488 247.77830531 130.31738281 244.03857422 C130.35574082 241.43315501 130.39058145 238.8276816 130.421875 236.22216797 C130.46737751 232.48385197 130.52539626 228.74591135 130.5859375 225.0078125 C130.59748871 223.83695099 130.60903992 222.66608948 130.62094116 221.45974731 C130.64081085 220.37877777 130.66068054 219.29780823 130.68115234 218.18408203 C130.69447601 217.22921906 130.70779968 216.27435608 130.7215271 215.29055786 C131 213 131 213 133 211 C134.9354248 210.74603271 134.9354248 210.74603271 137.32617188 210.74121094 C138.22049927 210.73490662 139.11482666 210.72860229 140.03625488 210.72210693 C141.48783997 210.72817963 141.48783997 210.72817963 142.96875 210.734375 C143.95999878 210.73246155 144.95124756 210.7305481 145.97253418 210.72857666 C148.07072198 210.72721415 150.16891819 210.73091518 152.26708984 210.73925781 C155.48684546 210.74995629 158.70604308 210.73936464 161.92578125 210.7265625 C163.96093874 210.72788408 165.99609588 210.73044645 168.03125 210.734375 C168.99897339 210.73032654 169.96669678 210.72627808 170.96374512 210.72210693 C172.30523621 210.73156342 172.30523621 210.73156342 173.67382812 210.74121094 C174.46277466 210.74280212 175.25172119 210.74439331 176.0645752 210.74603271 C178 211 178 211 180 213 C180.2784729 215.29055786 180.2784729 215.29055786 180.31884766 218.18408203 C180.33871735 219.26505157 180.35858704 220.34602112 180.37905884 221.45974731 C180.39061005 222.63060883 180.40216125 223.80147034 180.4140625 225.0078125 C180.43342865 226.20356903 180.4527948 227.39932556 180.4727478 228.63131714 C180.53267944 232.46247148 180.5789836 236.29365565 180.625 240.125 C180.66316724 242.71746125 180.70221821 245.30990966 180.7421875 247.90234375 C180.84006045 254.26816351 180.91952294 260.63384112 181 267 C195.85 267 210.7 267 226 267 C226 201.66 226 136.32 226 69 C179.47 69 132.94 69 85 69 Z " fill="#FEFBF9" transform="translate(94,155)"></path><path d="M0 0 C11.69026742 9.86106484 21.03137192 21.833239 27.4375 35.75 C27.4375 36.41 27.4375 37.07 27.4375 37.75 C28.05496094 37.35167969 28.67242187 36.95335937 29.30859375 36.54296875 C40.36373006 29.62719855 50.48567014 26.67132529 63.625 29.4375 C76.2946443 33.24107186 84.61556159 40.61873013 91.4375 51.75 C95.08264033 59.2288224 97.23063349 66.41892128 97.4375 74.75 C98.13488281 74.86988281 98.83226562 74.98976563 99.55078125 75.11328125 C117.7120317 79.11907804 133.10814206 90.44041591 143.4375 105.75 C152.68595379 122.12747026 155.35461431 143.44365495 150.8125 161.6875 C147.21236752 173.35343452 142.12870587 182.16666371 133.4375 190.75 C132.89609375 191.31332031 132.3546875 191.87664062 131.796875 192.45703125 C123.34312818 200.5478647 111.18841911 204.1663603 100.4375 207.75 C109.6775 212.04 118.9175 216.33 128.4375 220.75 C127.51738583 225.35057086 126.33309434 228.54672559 124.4375 232.75 C120.44671442 232.1269525 117.26103575 230.86405571 113.640625 229.08984375 C112.52421631 228.5469873 111.40780762 228.00413086 110.25756836 227.44482422 C109.0794458 226.86490723 107.90132324 226.28499023 106.6875 225.6875 C104.25748267 224.49930664 101.82595715 223.31421389 99.39453125 222.12890625 C98.20939941 221.55027832 97.02426758 220.97165039 95.80322266 220.37548828 C92.86514632 218.95653338 89.91624578 217.57191669 86.94921875 216.21484375 C86.16321289 215.85463135 85.37720703 215.49441895 84.56738281 215.12329102 C83.14398226 214.47515239 81.71768286 213.83332898 80.28808594 213.19897461 C76.95638581 211.674174 75.52508172 210.88137258 73.4375 207.75 C73.69787799 202.03918861 75.58953964 197.7236649 78.11328125 192.7265625 C78.47971237 191.98095062 78.84614349 191.23533875 79.22367859 190.46713257 C80.38997271 188.09843682 81.56943602 185.73661091 82.75 183.375 C83.91486966 181.02352354 85.0769566 178.67068944 86.23849487 176.31756592 C86.98098749 174.81348301 87.72455719 173.30993127 88.4692688 171.8069458 C90.92354598 166.84104423 93.25431782 161.84214075 95.4375 156.75 C100.19231646 157.32634139 103.40798212 159.30068521 107.4375 161.75 C106.07614937 166.10976848 104.39318515 170.13535411 102.3984375 174.2421875 C102.11271881 174.83299103 101.82700012 175.42379456 101.53262329 176.03250122 C100.629324 177.89834319 99.72100839 179.7616898 98.8125 181.625 C98.19497773 182.8982752 97.57778701 184.17171124 96.9609375 185.4453125 C95.45695183 188.54874308 93.94846073 191.64995825 92.4375 194.75 C108.07417202 191.91153895 121.92008959 185.98709701 131.4375 172.75 C139.52487185 158.52525714 140.96189521 141.01875019 136.875 125.25 C131.88285078 110.32628632 123.28083321 100.05523503 109.4375 92.75 C103.33251539 90.19614882 97.14896175 88.06739527 90.6875 86.625 C87.4375 85.75 87.4375 85.75 85.4375 82.75 C85.08352048 81.13742661 84.80005372 79.50878783 84.5625 77.875 C82.51877467 66.00567213 79.57007785 56.23524155 70.5625 47.9375 C63.32498883 42.87124218 56.23899977 41.56736954 47.4375 42.75 C41.50496859 44.59643629 37.44032082 47.5343798 33.25 52.0625 C30.4565579 55.05385803 29.81498703 55.67574026 25.625 56.5 C21.83388396 55.6079727 21.44601056 54.95379265 19.4375 51.75 C18.66262632 49.95656445 17.93734004 48.14127116 17.25 46.3125 C7.90945111 23.39330242 -8.85027294 7.24625189 -31.1328125 -2.87109375 C-49.3607927 -10.19965527 -69.53252157 -8.88859919 -87.67578125 -2.08203125 C-109.06039771 7.05745213 -122.77734079 24.52387475 -131.73046875 45.484375 C-132.38705159 47.22293238 -132.98564664 48.98338658 -133.5625 50.75 C-135.1881807 50.44106068 -136.81302748 50.1277305 -138.4375 49.8125 C-139.34242188 49.63847656 -140.24734375 49.46445313 -141.1796875 49.28515625 C-143.5625 48.75 -143.5625 48.75 -145.5625 47.75 C-145.02930009 42.14774893 -143.5530169 37.74625802 -141.125 32.6875 C-140.77083008 31.94798096 -140.41666016 31.20846191 -140.05175781 30.4465332 C-128.79819436 7.71248059 -110.54571677 -8.82199953 -86.5625 -17.25 C-55.29197001 -26.17943466 -25.52725904 -20.02908017 0 0 Z " fill="#FEFCF9" transform="translate(274.5625,104.25)"></path><path d="M0 0 C0.67293091 -0.0038269 1.34586182 -0.00765381 2.03918457 -0.01159668 C3.4579417 -0.0143113 4.87674927 -0.00698134 6.29541016 0.00976562 C8.46240203 0.03118725 10.62607951 0.00995462 12.79296875 -0.015625 C14.17448646 -0.01298164 15.5560021 -0.00785647 16.9375 0 C18.18982422 0.00451172 19.44214844 0.00902344 20.73242188 0.01367188 C23.96875 0.53125 23.96875 0.53125 26.37280273 2.14086914 C29.40661051 6.68485139 28.59445879 12.07769465 28.54516602 17.37573242 C28.53130951 19.45979878 28.56536189 21.53936047 28.60351562 23.62304688 C28.60158203 24.94240234 28.59964844 26.26175781 28.59765625 27.62109375 C28.59838135 28.82628662 28.59910645 30.03147949 28.59985352 31.27319336 C27.7752471 35.53020403 26.4434666 36.98308517 22.96875 39.53125 C19.81835938 40.17822266 19.81835938 40.17822266 16.3125 40.1953125 C14.40791016 40.20498047 14.40791016 40.20498047 12.46484375 40.21484375 C11.14613281 40.19550781 9.82742188 40.17617188 8.46875 40.15625 C6.49068359 40.18525391 6.49068359 40.18525391 4.47265625 40.21484375 C3.20292969 40.20839844 1.93320312 40.20195312 0.625 40.1953125 C-0.53193359 40.18967285 -1.68886719 40.1840332 -2.88085938 40.17822266 C-7.05966694 39.32005154 -8.52045559 37.94912915 -11.03125 34.53125 C-11.66235352 31.27319336 -11.66235352 31.27319336 -11.66015625 27.62109375 C-11.66208984 26.30173828 -11.66402344 24.98238281 -11.66601562 23.62304688 C-11.65352783 22.94105225 -11.64104004 22.25905762 -11.62817383 21.55639648 C-11.59377844 19.47047449 -11.60754467 17.38877522 -11.62695312 15.30273438 C-11.55368424 5.31374252 -11.55368424 5.31374252 -9.43530273 2.14086914 C-6.17448547 -0.04239157 -3.90850509 0.01408108 0 0 Z " fill="#FEFAF7" transform="translate(273.03125,242.46875)"></path><path d="M0 0 C0.67293091 -0.0038269 1.34586182 -0.00765381 2.03918457 -0.01159668 C3.4579417 -0.0143113 4.87674927 -0.00698134 6.29541016 0.00976562 C8.46240203 0.03118725 10.62607951 0.00995462 12.79296875 -0.015625 C14.17448646 -0.01298164 15.5560021 -0.00785647 16.9375 0 C18.18982422 0.00451172 19.44214844 0.00902344 20.73242188 0.01367188 C23.96875 0.53125 23.96875 0.53125 26.37280273 2.14086914 C29.40661051 6.68485139 28.59445879 12.07769465 28.54516602 17.37573242 C28.53130951 19.45979878 28.56536189 21.53936047 28.60351562 23.62304688 C28.60158203 24.94240234 28.59964844 26.26175781 28.59765625 27.62109375 C28.59838135 28.82628662 28.59910645 30.03147949 28.59985352 31.27319336 C27.7752471 35.53020403 26.4434666 36.98308517 22.96875 39.53125 C19.81835938 40.17822266 19.81835938 40.17822266 16.3125 40.1953125 C14.40791016 40.20498047 14.40791016 40.20498047 12.46484375 40.21484375 C11.14613281 40.19550781 9.82742187 40.17617188 8.46875 40.15625 C6.49068359 40.18525391 6.49068359 40.18525391 4.47265625 40.21484375 C3.20292969 40.20839844 1.93320313 40.20195312 0.625 40.1953125 C-0.53193359 40.18967285 -1.68886719 40.1840332 -2.88085938 40.17822266 C-7.05966694 39.32005154 -8.52045559 37.94912915 -11.03125 34.53125 C-11.66235352 31.27319336 -11.66235352 31.27319336 -11.66015625 27.62109375 C-11.66208984 26.30173828 -11.66402344 24.98238281 -11.66601562 23.62304688 C-11.65352783 22.94105225 -11.64104004 22.25905762 -11.62817383 21.55639648 C-11.59377844 19.47047449 -11.60754467 17.38877522 -11.62695312 15.30273438 C-11.55368424 5.31374252 -11.55368424 5.31374252 -9.43530273 2.14086914 C-6.17448547 -0.04239157 -3.90850509 0.01408108 0 0 Z " fill="#FEFAF7" transform="translate(209.03125,242.46875)"></path><path d="M0 0 C0.67293091 -0.0038269 1.34586182 -0.00765381 2.03918457 -0.01159668 C3.4579417 -0.0143113 4.87674927 -0.00698134 6.29541016 0.00976562 C8.46240203 0.03118725 10.62607951 0.00995462 12.79296875 -0.015625 C14.17448646 -0.01298164 15.5560021 -0.00785647 16.9375 0 C18.18982422 0.00451172 19.44214844 0.00902344 20.73242188 0.01367188 C23.96875 0.53125 23.96875 0.53125 26.375 2.13867188 C28.50689124 5.33912135 28.48571944 7.5124792 28.5 11.34375 C28.5038269 11.99448486 28.50765381 12.64521973 28.51159668 13.31567383 C28.51431076 14.68735304 28.50698453 16.05908444 28.49023438 17.43066406 C28.46881119 19.52526685 28.49004637 21.61644084 28.515625 23.7109375 C28.51298163 25.04688254 28.50785643 26.38282545 28.5 27.71875 C28.49548828 28.92917969 28.49097656 30.13960938 28.48632812 31.38671875 C27.96875 34.53125 27.96875 34.53125 26.375 36.92382812 C23.11257064 39.10319449 20.84538054 39.04842117 16.9375 39.0625 C16.26456909 39.0663269 15.59163818 39.07015381 14.89831543 39.07409668 C13.4795583 39.0768113 12.06075073 39.06948134 10.64208984 39.05273438 C8.47509797 39.03131275 6.31142049 39.05254538 4.14453125 39.078125 C2.76301354 39.07548164 1.3814979 39.07035647 0 39.0625 C-1.25232422 39.05798828 -2.50464844 39.05347656 -3.79492188 39.04882812 C-7.03125 38.53125 -7.03125 38.53125 -9.4375 36.92382812 C-11.56939124 33.72337865 -11.54821944 31.5500208 -11.5625 27.71875 C-11.5663269 27.06801514 -11.57015381 26.41728027 -11.57409668 25.74682617 C-11.57681076 24.37514696 -11.56948453 23.00341556 -11.55273438 21.63183594 C-11.53131119 19.53723315 -11.55254637 17.44605916 -11.578125 15.3515625 C-11.57548163 14.01561746 -11.57035643 12.67967455 -11.5625 11.34375 C-11.55798828 10.13332031 -11.55347656 8.92289062 -11.54882812 7.67578125 C-11.03125 4.53125 -11.03125 4.53125 -9.4375 2.13867188 C-6.17507064 -0.04069449 -3.90788054 0.01407883 0 0 Z " fill="#FEFBF8" transform="translate(273.03125,300.46875)"></path><path d="M0 0 C0.67293091 -0.0038269 1.34586182 -0.00765381 2.03918457 -0.01159668 C3.4579417 -0.0143113 4.87674927 -0.00698134 6.29541016 0.00976562 C8.46240203 0.03118725 10.62607951 0.00995462 12.79296875 -0.015625 C14.17448646 -0.01298164 15.5560021 -0.00785647 16.9375 0 C18.18982422 0.00451172 19.44214844 0.00902344 20.73242188 0.01367188 C23.96875 0.53125 23.96875 0.53125 26.375 2.13867188 C28.50689124 5.33912135 28.48571944 7.5124792 28.5 11.34375 C28.5038269 11.99448486 28.50765381 12.64521973 28.51159668 13.31567383 C28.51431076 14.68735304 28.50698453 16.05908444 28.49023438 17.43066406 C28.46881119 19.52526685 28.49004637 21.61644084 28.515625 23.7109375 C28.51298163 25.04688254 28.50785643 26.38282545 28.5 27.71875 C28.49548828 28.92917969 28.49097656 30.13960938 28.48632812 31.38671875 C27.96875 34.53125 27.96875 34.53125 26.375 36.92382812 C23.11257064 39.10319449 20.84538054 39.04842117 16.9375 39.0625 C16.26456909 39.0663269 15.59163818 39.07015381 14.89831543 39.07409668 C13.4795583 39.0768113 12.06075073 39.06948134 10.64208984 39.05273438 C8.47509797 39.03131275 6.31142049 39.05254538 4.14453125 39.078125 C2.76301354 39.07548164 1.3814979 39.07035647 0 39.0625 C-1.25232422 39.05798828 -2.50464844 39.05347656 -3.79492188 39.04882812 C-7.03125 38.53125 -7.03125 38.53125 -9.4375 36.92382812 C-11.56939124 33.72337865 -11.54821944 31.5500208 -11.5625 27.71875 C-11.5663269 27.06801514 -11.57015381 26.41728027 -11.57409668 25.74682617 C-11.57681076 24.37514696 -11.56948453 23.00341556 -11.55273438 21.63183594 C-11.53131119 19.53723315 -11.55254637 17.44605916 -11.578125 15.3515625 C-11.57548163 14.01561746 -11.57035643 12.67967455 -11.5625 11.34375 C-11.55798828 10.13332031 -11.55347656 8.92289062 -11.54882812 7.67578125 C-11.03125 4.53125 -11.03125 4.53125 -9.4375 2.13867188 C-6.17507064 -0.04069449 -3.90788054 0.01407883 0 0 Z " fill="#FEFBF8" transform="translate(209.03125,300.46875)"></path><path d="M0 0 C8.25 0 16.5 0 25 0 C25 14.52 25 29.04 25 44 C16.75 44 8.5 44 0 44 C0 29.48 0 14.96 0 0 Z " fill="#DB6A11" transform="translate(237,378)"></path><path d="M0 0 C4.29 0 8.58 0 13 0 C13 4.29 13 8.58 13 13 C8.71 13 4.42 13 0 13 C0 8.71 0 4.42 0 0 Z " fill="#E57A14" transform="translate(275,256)"></path><path d="M0 0 C4.29 0 8.58 0 13 0 C13 4.29 13 8.58 13 13 C8.71 13 4.42 13 0 13 C0 8.71 0 4.42 0 0 Z " fill="#E27616" transform="translate(211,256)"></path><path d="M0 0 C4.29 0 8.58 0 13 0 C13 3.96 13 7.92 13 12 C8.71 12 4.42 12 0 12 C0 8.04 0 4.08 0 0 Z " fill="#E17411" transform="translate(275,314)"></path><path d="M0 0 C4.29 0 8.58 0 13 0 C13 3.96 13 7.92 13 12 C8.71 12 4.42 12 0 12 C0 8.04 0 4.08 0 0 Z " fill="#DF6F13" transform="translate(211,314)"></path></svg>