<svg version="1.1" xmlns="http://www.w3.org/2000/svg" width="16px" height="16px" fill="currentColor" viewBox="0 0 512 512"><path d="M0 0 C168.96 0 337.92 0 512 0 C512 168.96 512 337.92 512 512 C343.04 512 174.08 512 0 512 C0 343.04 0 174.08 0 0 Z " fill="#2D8F7A" transform="translate(0,0)"></path><path d="M0 0 C1.06347656 0.38542969 2.12695312 0.77085937 3.22265625 1.16796875 C24.68957817 9.55390917 40.73254442 24.79330142 50.53125 45.5 C58.89468564 65.42988918 60.12875727 87.92971104 52.13818359 108.18457031 C48.49016733 116.9678856 44.37843923 124.87364643 38 132 C37.09507812 133.11568359 37.09507812 133.11568359 36.171875 134.25390625 C23.36340821 149.63968647 2.1020173 160.41970169 -17.87988281 162.26611328 C-43.6766865 163.75646612 -65.301787 156.648781 -84.80078125 139.54296875 C-100.19682715 124.99870962 -109.78771949 105.20752079 -111.203125 83.94921875 C-111.53726964 60.69832057 -104.58200909 39.44409134 -88.33203125 22.3359375 C-87.17767578 21.17964844 -87.17767578 21.17964844 -86 20 C-85.24074219 19.22914063 -84.48148438 18.45828125 -83.69921875 17.6640625 C-62.03041674 -3.11812732 -28.20536963 -10.39501618 0 0 Z " fill="#2E907B" transform="translate(286,177)"></path><path d="M0 0 C6.09975379 5.05956399 11.02314706 11.3123494 12.484375 19.26953125 C13.44846995 31.81857049 11.19300623 40.41961357 3.484375 50.26953125 C4.144375 50.47578125 4.804375 50.68203125 5.484375 50.89453125 C17.34044186 56.32856189 24.66211522 66.46230123 29.484375 78.26953125 C31.63140574 84.79133892 33.44788056 91.40455414 32.484375 98.26953125 C30.50036034 100.98602177 28.91455069 102.93512208 25.53480339 103.72538757 C23.12681439 103.90719387 20.765967 103.92223578 18.35131836 103.88476562 C17.44017776 103.89031464 16.52903717 103.89586365 15.59028625 103.90158081 C12.58439221 103.91337309 9.5800069 103.88910778 6.57421875 103.86328125 C4.48344491 103.86157012 2.39266893 103.86163585 0.30189514 103.86340332 C-4.0770219 103.86175036 -8.45542681 103.84305492 -12.83422852 103.81152344 C-18.44897979 103.77182163 -24.06306104 103.76748122 -29.67792606 103.77498627 C-33.99391323 103.77805448 -38.30974955 103.76594108 -42.6257 103.74885559 C-44.69616182 103.74182163 -46.76664074 103.73870154 -48.83711433 103.73954773 C-51.72904544 103.73775155 -54.62017095 103.71638569 -57.51196289 103.68945312 C-58.36869598 103.69238373 -59.22542908 103.69531433 -60.10812378 103.69833374 C-63.60833621 103.64799604 -65.91766072 103.58698346 -69.04515076 101.92663574 C-71.98492527 98.61374973 -71.02743532 94.22706604 -70.90234375 90.04296875 C-69.48663256 76.22905956 -62.41281124 64.70638325 -52.515625 55.26953125 C-45.94611827 50.26953125 -45.94611827 50.26953125 -42.515625 50.26953125 C-42.99773437 49.47289062 -43.47984375 48.67625 -43.9765625 47.85546875 C-44.92402344 46.26605469 -44.92402344 46.26605469 -45.890625 44.64453125 C-46.51710937 43.60039062 -47.14359375 42.55625 -47.7890625 41.48046875 C-51.96382053 33.71655223 -53.13833249 25.31780463 -50.828125 16.70703125 C-49.87763644 14.4258587 -48.79961429 12.38008865 -47.515625 10.26953125 C-47.103125 9.57085937 -46.690625 8.8721875 -46.265625 8.15234375 C-41.76816632 1.38060199 -35.50851388 -2.1333132 -28.078125 -5.10546875 C-17.87831464 -6.89490916 -8.69922703 -5.98409561 0 0 Z " fill="#FAFCFC" transform="translate(278.515625,197.73046875)"></path><path d="M0 0 C27.15571225 -1.12040655 51.4716624 6.9634023 71.96435547 25.22363281 C85.07183504 37.42685411 95.28590695 52.6503474 99.90185547 70.09863281 C100.17771484 70.96359375 100.45357422 71.82855469 100.73779297 72.71972656 C107.379355 96.14798894 102.03721102 121.53964564 91.15185547 142.78613281 C77.97060185 165.7235899 56.40108567 182.33926417 30.87841797 189.35644531 C29.89615234 189.60136719 28.91388672 189.84628906 27.90185547 190.09863281 C27.08458984 190.32292969 26.26732422 190.54722656 25.42529297 190.77832031 C1.36435001 196.35434836 -24.76254443 190.38805621 -45.56567383 177.82299805 C-52.12943005 173.65768489 -57.58766671 168.54221561 -63.09814453 163.09863281 C-64.07847656 162.22658203 -64.07847656 162.22658203 -65.07861328 161.33691406 C-73.47103962 153.7126732 -79.57352465 142.39256354 -84.09814453 132.09863281 C-84.45521484 131.30972656 -84.81228516 130.52082031 -85.18017578 129.70800781 C-94.32221933 107.38361684 -93.0286722 81.06741445 -83.88330078 59.01269531 C-78.5645273 46.98477601 -71.28844643 37.40204612 -62.09814453 28.09863281 C-61.52837891 27.45667969 -60.95861328 26.81472656 -60.37158203 26.15332031 C-47.23596866 11.67046454 -24.56344849 1.6433499 -5.19580078 0.23144531 C-3.46374104 0.15718298 -1.73173859 0.08140824 0 0 Z M-58.79150391 42.53759766 C-74.05716113 60.77538022 -79.71346019 83.70858272 -77.85986328 107.10644531 C-75.36654778 125.59223905 -66.15312724 141.99976781 -53.09814453 155.09863281 C-52.36208984 155.85789062 -51.62603516 156.61714844 -50.86767578 157.39941406 C-34.82631407 172.95711663 -13.81242649 179.44522473 8.1184082 179.55175781 C30.60829195 179.20351871 51.0096642 169.77304825 66.90185547 154.09863281 C81.8671192 138.57824337 90.34452012 117.72909754 90.21435547 96.22363281 C90.20944092 95.25619141 90.20452637 94.28875 90.19946289 93.29199219 C90.08270089 86.16891114 89.25972686 79.85028865 86.90185547 73.09863281 C86.54994141 71.96296875 86.19802734 70.82730469 85.83544922 69.65722656 C78.98237442 48.69088881 63.98182766 31.84240465 44.48291016 21.72827148 C38.81557444 18.92007317 33.02040947 16.72061169 26.90185547 15.09863281 C25.93856323 14.83590576 25.93856323 14.83590576 24.95581055 14.56787109 C-6.04190749 6.79503989 -37.91250894 19.22068198 -58.79150391 42.53759766 Z " fill="#FAFCFC" transform="translate(253.09814453125,159.9013671875)"></path><path d="M0 0 C4.15323954 1.66735894 7.11163474 4.66297315 10.3125 7.6875 C10.88919434 8.22697266 11.46588867 8.76644531 12.06005859 9.32226562 C26.47946163 22.86000891 26.47946163 22.86000891 27.5625 27.3125 C26.22522693 33.70169356 19.99770095 37.98014919 15.234375 42.0234375 C10.95714802 45.80713829 6.99937953 49.92686142 3 54 C-1.6489565 51.99892742 -3.84245171 48.8751729 -7 45 C-4.03 42.03 -1.06 39.06 2 36 C-4.54531985 36.55858653 -10.4781315 37.75699007 -16.75 39.6875 C-17.62688477 39.9558667 -18.50376953 40.2242334 -19.40722656 40.50073242 C-26.58977521 42.75997285 -33.3235481 45.50242177 -40 49 C-40.60730957 49.30744141 -41.21461914 49.61488281 -41.84033203 49.93164062 C-53.03312096 55.63060521 -62.59405069 62.70255079 -72 71 C-72.86367187 71.76054687 -73.72734375 72.52109375 -74.6171875 73.3046875 C-88.06784396 85.98947028 -96.89190514 102.62056004 -105 119 C-109.38889325 118.33501617 -112.9811485 116.81242323 -117 115 C-110.1801274 95.58959336 -98.99410946 79.87035204 -85 65 C-84.41347656 64.34902344 -83.82695312 63.69804687 -83.22265625 63.02734375 C-60.31502151 38.61592555 -27.29575353 26.16106473 5 21 C4.20335937 20.31164062 4.20335937 20.31164062 3.390625 19.609375 C1.9388601 18.34835293 0.49239496 17.08120834 -0.94921875 15.80859375 C-2.47507067 14.46293768 -4.0151644 13.13339624 -5.5625 11.8125 C-7 10 -7 10 -6.78125 8.08984375 C-5.87772295 5.6729089 -4.81147921 4.50436351 -2.9375 2.75 C-2.38964844 2.22921875 -1.84179688 1.7084375 -1.27734375 1.171875 C-0.85582031 0.78515625 -0.43429688 0.3984375 0 0 Z " fill="#FAFCFC" transform="translate(239,90)"></path><path d="M0 0 C3.25312918 0.58681665 6.23351164 1.3622164 9.3125 2.5625 C10.529375 3.036875 11.74625 3.51125 13 4 C1.96055351 33.29059168 -18.52469813 58.29264095 -45 75 C-45.59377441 75.37511719 -46.18754883 75.75023437 -46.79931641 76.13671875 C-62.93504462 86.14522548 -80.46527246 92.22551101 -99 96 C-100.8549285 96.41326192 -102.70926621 96.82920353 -104.5625 97.25 C-105.696875 97.4975 -106.83125 97.745 -108 98 C-104.37 101.3 -100.74 104.6 -97 108 C-98.806612 111.61322401 -99.66418971 112.83748791 -102.625 115.25 C-103.57246094 116.03117187 -103.57246094 116.03117187 -104.5390625 116.828125 C-105.02117187 117.21484375 -105.50328125 117.6015625 -106 118 C-111.86824442 112.81781338 -117.55128977 107.52951898 -123.01953125 101.92578125 C-125.06358729 99.83896414 -125.06358729 99.83896414 -128 97.875 C-130 96 -130 96 -131.1875 92.6875 C-130.92240954 87.47405428 -128.71044701 85.46152813 -125 82 C-123.10157739 80.29587224 -121.17927229 78.62746369 -119.234375 76.9765625 C-114.95714802 73.19286171 -110.99937953 69.07313858 -107 65 C-105.86800647 65.9080162 -104.74467637 66.82683826 -103.625 67.75 C-102.68527344 68.51570313 -102.68527344 68.51570313 -101.7265625 69.296875 C-100 71 -100 71 -98 75 C-100.64 77.64 -103.28 80.28 -106 83 C-70.3874905 77.46890179 -38.73848937 59.79580457 -16.79296875 30.9375 C-9.86966922 21.43670532 -4.55660614 10.80762863 0 0 Z " fill="#FAFCFC" transform="translate(384,304)"></path><path d="M0 0 C20.37336348 2.73003071 40.03725993 19.96083029 54 34 C54.87011719 34.87011719 55.74023438 35.74023438 56.63671875 36.63671875 C70.07579231 50.75091061 81.6379622 68.70092546 87.23828125 87.453125 C87.896806 89.65496161 88.67249164 91.69816542 89.5625 93.8125 C91.93157495 99.91742392 92.82105965 106.57853766 94 113 C96.24765368 110.80271391 98.15463264 108.54836445 100 106 C104.05281712 107.22527029 107.44360764 108.69880494 111 111 C109.05260491 117.45569147 105.7451627 122.55081082 102.125 128.1875 C101.49980469 129.18458984 100.87460937 130.18167969 100.23046875 131.20898438 C99.31587891 132.64274414 99.31587891 132.64274414 98.3828125 134.10546875 C97.82996582 134.97324951 97.27711914 135.84103027 96.70751953 136.73510742 C94.32729332 139.89229338 92.51155278 141.69677566 88.5769043 142.48608398 C84.85758582 141.78450529 83.37808389 139.92738989 80.76953125 137.22265625 C80.05478889 136.49374428 80.05478889 136.49374428 79.3256073 135.75010681 C77.8089877 134.1989546 76.31046877 132.63165175 74.8125 131.0625 C73.3004814 129.50052113 71.78496402 127.94205675 70.26725769 126.38560486 C68.89430211 124.97417225 67.53053954 123.55381468 66.16723633 122.13305664 C64.18769571 119.96523216 64.18769571 119.96523216 62 119 C63.65091778 114.70761377 66.73754566 112.1206085 70 109 C74.29238623 110.65091778 76.8793915 113.73754566 80 117 C79.37712327 93.44393455 65.67937723 68.73856893 51 51 C50.57412598 50.48373047 50.14825195 49.96746094 49.70947266 49.43554688 C35.38617026 32.33278609 16.73073414 20.08754003 -4 12 C-3.52309796 10.37433394 -3.04340334 8.74948689 -2.5625 7.125 C-2.29566406 6.22007813 -2.02882813 5.31515625 -1.75390625 4.3828125 C-1 2 -1 2 0 0 Z " fill="#FAFCFC" transform="translate(311,121)"></path><path d="M0 0 C2.08710576 1.66286018 3.80100057 3.21344714 5.6171875 5.12890625 C6.11920685 5.63800034 6.6212262 6.14709442 7.13845825 6.6716156 C8.72948988 8.29049827 10.30219369 9.92592477 11.875 11.5625 C12.95456234 12.66715715 14.0352803 13.77068619 15.1171875 14.87304688 C17.75834945 17.56915438 20.3832178 20.2802323 23 23 C22.0919838 24.13199353 21.17316174 25.25532363 20.25 26.375 C19.48429687 27.31472656 19.48429687 27.31472656 18.703125 28.2734375 C17 30 17 30 13 32 C10.36 29.36 7.72 26.72 5 24 C6.68911139 54.96704221 26.07602572 84.98100043 48.48925781 105.19433594 C60.14732052 115.33272567 73.78856569 123.04927574 88 129 C87.34877894 133.18893544 86.42755093 137.0028574 85 141 C78.95476989 140.51280218 74.25648254 137.86315465 69 135.0625 C68.06736328 134.56741943 67.13472656 134.07233887 66.17382812 133.56225586 C33.04956725 115.64280797 7.24799142 85.0602038 -4 49 C-5.44580357 43.95627231 -6.7531111 38.88035967 -8.01953125 33.7890625 C-8.80163823 30.22264945 -8.80163823 30.22264945 -10 28 C-11.65 30.64 -13.3 33.28 -15 36 C-19.51478398 35.46884894 -22.34666857 33.63379708 -26 31 C-25.43424002 27.30634925 -24.46784002 24.73935915 -22.453125 21.6015625 C-21.6796875 20.38726562 -21.6796875 20.38726562 -20.890625 19.1484375 C-20.34921875 18.31570313 -19.8078125 17.48296875 -19.25 16.625 C-18.7240625 15.8 -18.198125 14.975 -17.65625 14.125 C-7.31440512 -2.00213435 -7.31440512 -2.00213435 0 0 Z " fill="#FBFCFC" transform="translate(123,251)"></path><path d="M0 0 C6.66497744 5.67628097 10.49094425 12.66462729 13 21 C13 22.32 13 23.64 13 25 C-12.08 25 -37.16 25 -63 25 C-60.74128736 14.83579313 -57.97272739 6.8681577 -50 0 C-34.364303 -9.44699386 -15.6627897 -10.15964737 0 0 Z " fill="#2E8F7A" transform="translate(284,263)"></path><path d="M0 0 C3.25725739 3.07629864 5.03073499 5.69795022 5.71875 10.17578125 C5.78821838 17.42654362 5.44482488 22.76586192 0.25 28.125 C-3.76263898 31.75505921 -7.37857644 33.42680218 -12.8125 33.625 C-18.67988854 33.2920347 -22.93003933 31.61405873 -27.5 27.875 C-31.93621227 22.45296279 -33.34398335 17.37231228 -33.09375 10.48046875 C-32.22806556 4.5485629 -27.82972153 1.04630433 -23.53125 -2.67578125 C-16.00589026 -7.74219669 -6.80278582 -4.63826306 0 0 Z " fill="#32947E" transform="translate(272.75,209.875)"></path></svg>