<svg version="1.1" xmlns="http://www.w3.org/2000/svg" width="16px" height="16px" fill="currentColor" viewBox="0 0 512 512"><path d="M0 0 C168.96 0 337.92 0 512 0 C512 168.96 512 337.92 512 512 C343.04 512 174.08 512 0 512 C0 343.04 0 174.08 0 0 Z " fill="#D72B6B" transform="translate(0,0)"></path><path d="M0 0 C1.1859375 -0.020625 2.371875 -0.04125 3.59375 -0.0625 C15.01938389 -0.1123936 25.58329901 2.25225857 36.25 6.25 C37.16136719 6.57484375 38.07273438 6.8996875 39.01171875 7.234375 C55.63578309 13.57976949 69.95715275 25.37439639 78.25 41.25 C78.93359375 43.5703125 78.93359375 43.5703125 79.25 45.25 C79.91 45.25 80.57 45.25 81.25 45.25 C81.35570312 44.69441406 81.46140625 44.13882813 81.5703125 43.56640625 C85.77544845 29.2351096 99.95020893 18.24925295 112.47265625 11.1796875 C117.20738279 8.70306131 122.20578166 6.97224999 127.25 5.25 C128.64744286 4.69151062 130.04352444 4.12958825 131.4375 3.5625 C140.45961041 0.28979818 149.49743695 -0.09556806 159.01708984 -0.06567383 C161.11478812 -0.06251538 163.2110688 -0.08604787 165.30859375 -0.11132812 C188.95142739 -0.22316234 211.40729039 9.80739381 228.25 26.25 C245.28181981 43.84384543 253.70954662 65.47704911 253.61352539 89.85009766 C253.12425834 115.8530103 239.09540101 136.58247115 221.71240234 154.70654297 C218.78667616 157.7944296 216.01200712 161.01594075 213.25 164.25 C212.11800647 163.3419838 210.99467637 162.42316174 209.875 161.5 C209.24851562 160.98953125 208.62203125 160.4790625 207.9765625 159.953125 C206.16687682 158.16800519 205.24882545 156.57050356 204.25 154.25 C204.89066406 153.54875 205.53132813 152.8475 206.19140625 152.125 C207.99551723 150.14612417 209.79662322 148.1648747 211.59375 146.1796875 C213.1066728 144.51102264 214.62431365 142.84653897 216.15625 141.1953125 C231.24077234 124.61656861 240.35043745 105.51096096 239.58984375 82.80078125 C238.45130648 63.66444133 229.88654226 47.38223226 216.25 34.25 C215.60546875 33.58613281 214.9609375 32.92226562 214.296875 32.23828125 C199.55098874 17.97323911 179.90463278 13.78418559 160.18066406 13.81835938 C149.54593255 14.0124581 138.9998122 15.01804584 129.0625 19 C128.38815918 19.26385498 127.71381836 19.52770996 127.01904297 19.79956055 C111.10430423 26.21310496 98.95042739 36.99840243 91.5 52.5625 C88.83961608 59.18312968 88.10082641 66.0714916 87.41308594 73.12817383 C87.31672852 74.00497803 87.22037109 74.88178223 87.12109375 75.78515625 C87.04818115 76.572854 86.97526855 77.36055176 86.90014648 78.17211914 C86.02113506 80.98145681 84.77870172 81.82171175 82.25 83.25 C78.57706204 83.02962372 76.88033454 82.88033454 74.25 80.25 C73.8269043 78.28564453 73.8269043 78.28564453 73.57421875 75.8828125 C73.47141602 75.00278564 73.36861328 74.12275879 73.26269531 73.21606445 C73.15538086 72.27851318 73.04806641 71.34096191 72.9375 70.375 C70.89258254 54.65702077 64.91962704 40.445813 52.25 30.25 C30.80395133 15.55445629 5.44671457 10.46095032 -20.36328125 14.8984375 C-32.8283251 17.97850113 -44.00291256 23.93687771 -53.75 32.25 C-54.56597656 32.86746094 -55.38195312 33.48492187 -56.22265625 34.12109375 C-69.291761 45.12984505 -77.41993875 63.66951728 -78.95703125 80.51953125 C-79.52112243 90.10908134 -78.91206706 99.11227152 -75.75 108.25 C-75.44449219 109.16265625 -75.13898438 110.0753125 -74.82421875 111.015625 C-68.86473292 126.87869273 -57.97882778 141.14792274 -48.75 155.25 C-51.57309456 158.13290588 -54.02991151 160.57596018 -57.75 162.25 C-61.13251792 161.07213671 -62.57478995 159.46827215 -64.4140625 156.4609375 C-64.89149902 155.69241455 -65.36893555 154.9238916 -65.86083984 154.13208008 C-66.61034912 152.89107544 -66.61034912 152.89107544 -67.375 151.625 C-68.44234873 149.88649792 -69.51006275 148.14822006 -70.578125 146.41015625 C-71.10986328 145.53891113 -71.64160156 144.66766602 -72.18945312 143.77001953 C-73.6047802 141.48450545 -75.06000234 139.23546903 -76.546875 136.99609375 C-89.08188179 117.99644825 -96.12379002 95.60730492 -92.0234375 72.74609375 C-87.17834079 49.33763667 -74.17486942 28.42799138 -54.04052734 15.12011719 C-36.72850007 4.25596148 -20.28592542 0.08706406 0 0 Z " fill="#FEF9FB" transform="translate(175.75,89.75)"></path><path d="M0 0 C3.5 1 3.5 1 5.0390625 3.01171875 C6.91257778 6.84390909 8.14681511 10.73479513 9.375 14.8125 C9.634021 15.65272705 9.89304199 16.4929541 10.15991211 17.35864258 C10.69070664 19.08108302 11.21895269 20.80431091 11.74462891 22.52832031 C12.83224813 26.08716228 13.94810485 29.6369749 15.0625 33.1875 C15.47033979 34.49339977 15.87789287 35.79938911 16.28515625 37.10546875 C17.52189189 41.07079601 18.760804 45.03544105 20 49 C20.41667593 50.33333044 20.8333426 51.66666377 21.25 53 C21.45625 53.66 21.6625 54.32 21.875 55 C22.5 57 23.125 59 23.75 61 C23.95641113 61.66040283 24.16282227 62.32080566 24.37548828 63.0012207 C24.79078701 64.33040392 25.20582739 65.65966789 25.62060547 66.98901367 C26.68106396 70.38656274 27.74640564 73.782457 28.8203125 77.17578125 C35.5 98.32357762 35.5 98.32357762 35.5 102 C65.86 102 96.22 102 127.5 102 C127.5 106.29 127.5 110.58 127.5 115 C114.66118292 115.11576292 101.82248964 115.2046492 88.98325729 115.25906086 C83.02169127 115.28517357 77.06048186 115.32060304 71.09912109 115.37719727 C65.34788755 115.43145602 59.59699736 115.46140792 53.84552765 115.47438622 C51.64940229 115.48363703 49.45329608 115.50170151 47.25731659 115.52865028 C44.18512614 115.56485819 41.11436108 115.56994869 38.04199219 115.56762695 C37.13065018 115.58560333 36.21930817 115.60357971 35.28034973 115.62210083 C29.1308809 115.57169262 29.1308809 115.57169262 26.00637817 112.74032593 C24.68516121 110.33683579 23.6465811 108.20449122 22.85595703 105.5871582 C22.59533478 104.74470047 22.33471252 103.90224274 22.06619263 103.03425598 C21.66604446 101.68118599 21.66604446 101.68118599 21.2578125 100.30078125 C20.9669577 99.35172409 20.67610291 98.40266693 20.37643433 97.42485046 C19.44868493 94.39050957 18.53628904 91.3518204 17.625 88.3125 C16.4231788 84.34906767 15.21540189 80.38745922 14.0078125 76.42578125 C13.5661525 74.96990601 13.5661525 74.96990601 13.11557007 73.48461914 C11.01786371 66.5986653 8.78597202 59.76696009 6.48144531 52.94786072 C4.69146436 47.63339532 3.0664982 42.29542818 1.625 36.875 C1.41359375 36.09769531 1.2021875 35.32039063 0.984375 34.51953125 C0.48500074 32.68092603 -0.00828481 30.84066835 -0.5 29 C-1.85295608 33.0337419 -3.20375207 37.06819943 -4.55273438 41.10327148 C-5.00985465 42.46967057 -5.46751771 43.83588822 -5.92578125 45.2019043 C-8.52364195 52.94706135 -11.05275848 60.70346341 -13.43334961 68.51879883 C-15.42994826 75.03504972 -17.49838638 81.52873339 -19.55767822 88.02539062 C-20.61080347 91.34977123 -21.66149484 94.67491768 -22.71240234 98 C-24.55640526 103.82956538 -26.40865583 109.65643812 -28.2685833 115.48094177 C-29.3459485 118.85567969 -30.41961228 122.2315112 -31.4855957 125.60986328 C-32.53482661 128.93467726 -33.59299897 132.25651987 -34.65754128 135.57646179 C-35.25030187 137.43299225 -35.83382424 139.29246422 -36.41716003 141.15197754 C-36.77796158 142.27164917 -37.13876312 143.3913208 -37.51049805 144.54492188 C-37.82327194 145.52908081 -38.13604584 146.51323975 -38.45829773 147.52722168 C-39.51529877 150.036316 -40.34512357 151.36039856 -42.5 153 C-45.4375 153.4375 -45.4375 153.4375 -48.5 153 C-51.64475694 150.33289873 -53.46640319 147.57234007 -55.3125 143.9140625 C-55.82433838 142.91221924 -56.33617676 141.91037598 -56.86352539 140.87817383 C-57.67358032 139.26785278 -57.67358032 139.26785278 -58.5 137.625 C-59.66355608 135.34933481 -60.82895639 133.07461176 -61.99609375 130.80078125 C-62.58245605 129.65689941 -63.16881836 128.51301758 -63.77294922 127.33447266 C-66.3000319 122.45535259 -68.91940547 117.62952663 -71.5625 112.8125 C-72.04428711 111.93255371 -72.52607422 111.05260742 -73.02246094 110.14599609 C-75.07217238 106.40776487 -77.12834536 102.67314724 -79.18896484 98.94091797 C-80.32996348 96.87384475 -81.46940143 94.80590918 -82.60717773 92.73706055 C-83.68239522 90.78204704 -84.76119713 88.82899957 -85.84399414 86.87817383 C-86.32344482 86.00572021 -86.80289551 85.1332666 -87.296875 84.234375 C-87.93641113 83.07760254 -87.93641113 83.07760254 -88.58886719 81.89746094 C-89.5 80 -89.5 80 -89.5 78 C-90.16 78 -90.82 78 -91.5 78 C-91.76192139 78.69673828 -92.02384277 79.39347656 -92.29370117 80.11132812 C-94.39805798 85.15054079 -97.1433863 89.8653765 -99.78491211 94.63818359 C-100.80699795 96.49003121 -101.81664222 98.34831624 -102.82617188 100.20703125 C-103.48361676 101.39885608 -104.1417962 102.59027607 -104.80078125 103.78125 C-105.68503784 105.3909668 -105.68503784 105.3909668 -106.5871582 107.03320312 C-108.68139447 110.28134086 -110.50192973 112.54437071 -113.5 115 C-116.31639867 115.47034074 -118.51551059 115.6375656 -121.31958008 115.56762695 C-122.47647339 115.56872215 -122.47647339 115.56872215 -123.65673828 115.56983948 C-126.19506222 115.56636796 -128.73152967 115.52753062 -131.26953125 115.48828125 C-133.0335744 115.4789515 -134.79763053 115.47183615 -136.56169128 115.46684265 C-141.19640096 115.44778548 -145.83032258 115.39869609 -150.46472168 115.34332275 C-155.19707581 115.29210241 -159.92955773 115.26932268 -164.66210938 115.24414062 C-173.94175179 115.19057581 -183.22081027 115.10527877 -192.5 115 C-192.5 110.71 -192.5 106.42 -192.5 102 C-189.29289307 102.14308594 -189.29289307 102.14308594 -186.02099609 102.2890625 C-178.90581343 102.58853393 -171.79195315 102.75250836 -164.67131615 102.8523407 C-160.3574415 102.91688902 -156.05442168 103.02490524 -151.74511719 103.23779297 C-133.24783061 104.83874494 -133.24783061 104.83874494 -116.60498047 98.70452881 C-111.92200537 93.08004732 -109.15492108 86.85106076 -106.67553711 80.01681519 C-104.87921633 75.40686476 -102.34802297 71.31820267 -99.75 67.125 C-98.96239967 65.77410266 -98.17584102 64.42259713 -97.390625 63.0703125 C-95.5 60 -95.5 60 -93.5 58 C-90.625 57.625 -90.625 57.625 -87.5 58 C-83.76632758 61.02823631 -81.75101215 64.84803928 -79.59375 69.0546875 C-79.23214783 69.74458267 -78.87054565 70.43447784 -78.49798584 71.14527893 C-77.72544749 72.62103453 -76.9562314 74.09853325 -76.19006348 75.5776062 C-74.58869001 78.66902574 -72.97159907 81.75211793 -71.3550415 84.83561707 C-70.54609751 86.37882907 -69.73794982 87.92245876 -68.93060303 89.46650696 C-65.60250434 95.82664411 -62.20208698 102.14364599 -58.75 108.4375 C-58.07227539 109.6737915 -58.07227539 109.6737915 -57.38085938 110.93505859 C-56.53128127 112.48295933 -55.68105175 114.03050275 -54.83007812 115.57763672 C-52.37648612 120.04616459 -49.93910635 124.52355352 -47.5 129 C-46.9497345 127.34920349 -46.39947052 125.69840647 -45.84921265 124.04760742 C-45.35650015 122.56949059 -44.86376263 121.0913821 -44.3710022 119.61328125 C-43.00448702 115.51410861 -41.63842552 111.41478569 -40.27319336 107.31518555 C-35.57831323 93.219672 -35.57831323 93.219672 -33.3203125 86.53125 C-30.57718128 78.39718033 -27.931836 70.25862792 -25.55078125 62.01098633 C-20.71421499 45.30584301 -15.64621535 28.6284105 -9.69140625 12.28515625 C-8.89736545 10.09568638 -8.13804731 7.89331012 -7.4140625 5.6796875 C-5.84809207 1.0888511 -4.98952303 0 0 0 Z " fill="#FEFAFB" transform="translate(301.5,160)"></path><path d="M0 0 C1.89237763 2.3388937 3.67554357 4.69034686 5.4375 7.125 C6.5312264 8.61035207 7.62630351 10.0947104 8.72265625 11.578125 C9.55047607 12.70057617 9.55047607 12.70057617 10.39501953 13.84570312 C12.66892192 16.89786538 15.01200359 19.89157412 17.375 22.875 C18.27745226 24.01684133 19.17979313 25.1587707 20.08203125 26.30078125 C20.54818848 26.89068848 21.0143457 27.4805957 21.49462891 28.08837891 C29.19453675 37.86623788 36.7964585 47.72170252 44.375 57.59375 C47.56627975 61.74241368 50.784213 65.87032481 54 70 C58.80727636 76.17344678 63.59285693 82.36233093 68.35546875 88.5703125 C70.40926848 91.24065407 72.47809912 93.89897782 74.55078125 96.5546875 C75.17275391 97.35197266 75.79472656 98.14925781 76.43554688 98.97070312 C77.65304922 100.53027168 78.87172882 102.08892219 80.09179688 103.64648438 C82.75307066 107.05595628 85.34512182 110.47253251 87.79296875 114.0390625 C88.52128906 115.01617187 89.24960938 115.99328125 90 117 C90.66 117 91.32 117 92 117 C93.48443685 115.26406765 94.88462191 113.4560534 96.25 111.625 C97.15161133 110.42783346 98.05399912 109.23125143 98.95703125 108.03515625 C99.44510254 107.38562988 99.93317383 106.73610352 100.43603516 106.06689453 C103.23313194 102.37032548 106.08766669 98.71846455 108.9375 95.0625 C109.83710449 93.90645264 109.83710449 93.90645264 110.75488281 92.72705078 C114.76242992 87.57929468 118.78765534 82.44574904 122.82275391 77.31958008 C128.91601334 69.57306786 134.95390314 61.78333117 141 54 C147.91314256 45.10049356 154.82915547 36.20387953 161.79956055 27.34912109 C165.71583004 22.37028668 169.61016189 17.37450357 173.5 12.375 C174.10005859 11.60414063 174.70011719 10.83328125 175.31835938 10.0390625 C176.16624023 8.94851563 176.16624023 8.94851563 177.03125 7.8359375 C177.78245117 6.86986572 177.78245117 6.86986572 178.54882812 5.88427734 C180.04974117 3.93541346 181.52822419 1.97093306 183 0 C187.59306496 1.4859916 190.43569245 3.85014682 194 7 C190.74521815 12.05410843 187.14691018 16.77232036 183.4375 21.5 C182.81617188 22.29535156 182.19484375 23.09070313 181.5546875 23.91015625 C177.44188852 29.17149868 173.31624778 34.42281619 169.18530273 39.66992188 C165.43831988 44.43223821 161.71748743 49.21463821 158 54 C153.84785525 59.34487747 149.68693181 64.68232498 145.5 70 C138.96286228 78.30442076 132.48345279 86.65364676 126 95 C121.88239847 100.3007183 117.76329704 105.60025204 113.63867188 110.89550781 C112.56895641 112.26930807 111.49991507 113.64363359 110.43164062 115.01855469 C107.31198961 119.03212899 104.16424757 123.02149979 101 127 C100.33226562 127.87140625 99.66453125 128.7428125 98.9765625 129.640625 C98.38617188 130.37796875 97.79578125 131.1153125 97.1875 131.875 C96.70667969 132.49117187 96.22585938 133.10734375 95.73046875 133.7421875 C93.05412825 135.68751852 91.2148719 135.4826398 88 135 C85.76171875 133.234375 85.76171875 133.234375 83.6875 130.75 C82.91148437 129.82703125 82.13546875 128.9040625 81.3359375 127.953125 C78.34085016 124.16669352 75.42564321 120.33242706 72.5625 116.4453125 C69.54999591 112.36688245 66.43099697 108.37262264 63.3125 104.375 C62.71896729 103.61356689 62.12543457 102.85213379 61.51391602 102.06762695 C60.29230797 100.50105578 59.0703807 98.9347335 57.84814453 97.36865234 C54.81209213 93.47753208 51.7806605 89.58282058 48.75 85.6875 C48.16259033 84.93259277 47.57518066 84.17768555 46.9699707 83.39990234 C42.83569136 78.0833203 38.72609942 72.74847161 34.625 67.40625 C31.43372025 63.25758632 28.215787 59.12967519 25 55 C20.19272364 48.82655322 15.40714307 42.63766907 10.64453125 36.4296875 C8.59073152 33.75934593 6.52190088 31.10102218 4.44921875 28.4453125 C3.82724609 27.64802734 3.20527344 26.85074219 2.56445312 26.02929688 C1.34695078 24.46972832 0.12827118 22.91107781 -1.09179688 21.35351562 C-4.50864447 16.97604573 -7.80574754 12.54267047 -11 8 C-3.21621622 0 -3.21621622 0 0 0 Z " fill="#FEFBFC" transform="translate(165,287)"></path><path d="M0 0 C4.29 0 8.58 0 13 0 C13 4.29 13 8.58 13 13 C8.71 13 4.42 13 0 13 C0 8.71 0 4.42 0 0 Z " fill="#FCF4F7" transform="translate(83,262)"></path></svg>