<svg version="1.1" xmlns="http://www.w3.org/2000/svg" width="16px" height="16px" fill="currentColor" viewBox="0 0 512 512"><path d="M0 0 C168.96 0 337.92 0 512 0 C512 168.96 512 337.92 512 512 C343.04 512 174.08 512 0 512 C0 343.04 0 174.08 0 0 Z " fill="#DD2C33" transform="translate(0,0)"></path><path d="M0 0 C8.12313648 5.51914717 13.97995611 12.5010131 16.4296875 22.19140625 C17.61152331 30.09041091 17.52939194 37.58708273 13.8125 44.75 C13.48378906 45.40484375 13.15507812 46.0596875 12.81640625 46.734375 C7.35869001 56.47894794 -1.13268554 62.27159555 -11.625 65.5 C-19.47859366 66.26620426 -25.35707896 65.7262208 -32.7421875 62.72265625 C-33.54914063 62.40167969 -34.35609375 62.08070313 -35.1875 61.75 C-35.87585938 61.4715625 -36.56421875 61.193125 -37.2734375 60.90625 C-39.32922888 60.52611204 -39.32922888 60.52611204 -41.109375 62.18359375 C-41.71265625 62.84488281 -42.3159375 63.50617188 -42.9375 64.1875 C-43.85789062 65.17556641 -43.85789062 65.17556641 -44.796875 66.18359375 C-45.25578125 66.70050781 -45.7146875 67.21742188 -46.1875 67.75 C-45.8471875 68.24886719 -45.506875 68.74773437 -45.15625 69.26171875 C-43.47991372 71.74501478 -41.83014218 74.24427464 -40.1875 76.75 C-39.5378125 77.74 -38.888125 78.73 -38.21875 79.75 C-23.39053279 103.0188947 -18.102388 130.18691257 -23.30859375 157.4921875 C-31.00318572 186.01347507 -47.34202569 209.63297186 -73.0234375 224.83691406 C-96.57218985 238.3090478 -125.97489262 241.83638135 -152.1875 234.75 C-178.9068255 226.91529647 -200.55248611 209.15148507 -214.3515625 185.03125 C-219.77989653 175.09080941 -222.8297923 164.79320747 -225.1875 153.75 C-225.48720703 152.36361328 -225.48720703 152.36361328 -225.79296875 150.94921875 C-228.70396662 127.3441964 -225.11479285 105.27932956 -213.1875 84.75 C-212.63191406 83.75742188 -212.07632813 82.76484375 -211.50390625 81.7421875 C-207.0261307 74.20406175 -201.31002924 67.95768263 -195.1875 61.75 C-194.39472656 60.94433594 -193.60195312 60.13867188 -192.78515625 59.30859375 C-171.43986504 38.88672612 -144.47411873 33.15948619 -115.88671875 33.47265625 C-107.77632169 33.69992375 -100.8411391 35.04476203 -93.1875 37.75 C-92.5598877 37.96430664 -91.93227539 38.17861328 -91.28564453 38.39941406 C-81.81256198 41.67883342 -73.53786773 46.20509178 -65.1875 51.75 C-64.26066406 52.3584375 -63.33382812 52.966875 -62.37890625 53.59375 C-60.30525521 54.96540061 -58.24133764 56.34893247 -56.1875 57.75 C-54.98544536 56.68283928 -53.80117667 55.59561663 -52.625 54.5 C-51.63306641 53.59507812 -51.63306641 53.59507812 -50.62109375 52.671875 C-48.94749014 50.87540351 -48.94749014 50.87540351 -49.375 48.71875 C-50.10411925 46.95203797 -50.92186491 45.22252099 -51.75 43.5 C-54.81529294 35.45171852 -54.53506378 23.71377768 -51.2890625 15.765625 C-45.74513811 5.62142293 -37.92276728 -0.95140844 -26.98046875 -4.55859375 C-17.54117964 -6.89531287 -8.32221255 -4.85863276 0 0 Z " fill="#FEFAFA" transform="translate(380.1875,120.25)"></path><path d="M0 0 C1.67400879 -0.0153479 1.67400879 -0.0153479 3.38183594 -0.03100586 C23.98309177 0.18580159 41.98578081 8.36992495 58.3125 20.4375 C56.70876852 24.44267396 53.89136014 27.1146098 50.8671875 30.078125 C50.07237473 30.86869293 50.07237473 30.86869293 49.26150513 31.67523193 C47.57482175 33.35075675 45.88130436 35.01917722 44.1875 36.6875 C43.03990612 37.82505851 41.89276539 38.96307436 40.74609375 40.1015625 C37.94011863 42.88553465 35.12799536 45.6631576 32.3125 48.4375 C27.25108582 46.44180457 22.37688738 44.12247014 17.46875 41.77734375 C7.91851369 37.72322116 -6.06420387 37.69094114 -15.8125 41.125 C-17.45698309 41.85334359 -19.08420112 42.62248974 -20.6875 43.4375 C-21.84765625 43.98083984 -21.84765625 43.98083984 -23.03125 44.53515625 C-35.40863071 50.78742904 -43.37248945 60.83731843 -47.8515625 73.80859375 C-51.3833038 87.5559793 -50.50630774 101.53391229 -43.9375 114.25 C-36.63930242 126.54451866 -26.34022526 134.10404113 -12.6875 138.4375 C1.00617621 141.80479743 15.80025139 139.2228007 27.81640625 132.08984375 C39.31161289 124.48034077 47.17042051 112.93731942 50.3125 99.4375 C51.95511718 85.14910255 49.99233338 73.51953102 42.0703125 61.41015625 C41.3125 59.4375 41.3125 59.4375 41.92919922 57.66674805 C43.79758228 54.65576927 46.18688003 52.27758116 48.6875 49.796875 C49.21263184 49.26982971 49.73776367 48.74278442 50.27880859 48.19976807 C51.38588883 47.09133072 52.4954833 45.98539954 53.60742188 44.88183594 C55.31356975 43.18643699 57.00874047 41.4805839 58.703125 39.7734375 C59.78060892 38.69727442 60.85871267 37.62173149 61.9375 36.546875 C62.44587402 36.03445251 62.95424805 35.52203003 63.47802734 34.99407959 C67.08255909 31.4375 67.08255909 31.4375 69.3125 31.4375 C83.72303755 47.99014449 89.6804422 68.37451614 89.625 89.875 C89.64111328 91.12087891 89.65722656 92.36675781 89.67382812 93.65039062 C89.67789894 101.40529418 88.8179986 108.09838464 86.3125 115.4375 C85.73048828 117.18546875 85.73048828 117.18546875 85.13671875 118.96875 C75.43641508 144.30287643 58.67774971 161.30009233 34.25927734 172.58007812 C16.38215922 180.45372232 -7.68847353 181.92616063 -26.3046875 175.8359375 C-51.32334877 165.49335004 -71.55736215 149.64861009 -82.55859375 124.26953125 C-90.44301646 104.49027013 -92.79040402 79.55742268 -84.6875 59.4375 C-84.41905273 58.76219238 -84.15060547 58.08688477 -83.87402344 57.39111328 C-74.35937907 33.99436045 -56.87592782 15.84943137 -33.52734375 5.9453125 C-22.20942233 1.41130014 -12.15100256 0.08551197 0 0 Z " fill="#DD2D34" transform="translate(255.6875,166.5625)"></path><path d="M0 0 C-1.3595759 4.2205965 -2.94043847 8.0681098 -5 12 C-14.4267865 9.27627685 -14.4267865 9.27627685 -18.75 7.5 C-24.63188874 5.23955584 -30.83154015 4.18701173 -37 3 C-37.99644531 2.79117188 -38.99289062 2.58234375 -40.01953125 2.3671875 C-75.23139411 -4.18600323 -112.2887388 5.58932563 -141.59301758 25.3503418 C-148.28748949 30.0197562 -154.2220857 35.24028386 -160 41 C-160.84433594 41.83789062 -161.68867188 42.67578125 -162.55859375 43.5390625 C-189.36689745 70.56183263 -202.34392922 106.58388968 -202.2421875 144.33642578 C-201.73701638 182.47053106 -184.64653937 216.52026213 -158 243 C-156.89785156 244.11568359 -156.89785156 244.11568359 -155.7734375 245.25390625 C-130.19120267 269.8778489 -94.22973381 281.6265629 -59.1940918 281.41943359 C-23.31914451 280.53475985 10.43956838 265.98360947 36 241 C36.86238281 240.19949219 37.72476563 239.39898437 38.61328125 238.57421875 C58.31396189 219.85397634 71.71045608 192.70587024 76 166 C76.20109375 165.10796875 76.4021875 164.2159375 76.609375 163.296875 C81.76880215 138.89417902 76.76141778 113.21729647 69 90 C68.60941406 88.82308594 68.21882813 87.64617187 67.81640625 86.43359375 C67.54699219 85.63050781 67.27757812 84.82742187 67 84 C68.4096347 83.29819469 69.82807641 82.61406042 71.25 81.9375 C72.03890625 81.55464844 72.8278125 81.17179687 73.640625 80.77734375 C76 80 76 80 78.14453125 80.05078125 C81.80154561 81.92163281 82.3866366 86.10811787 83.69921875 89.76953125 C87.817462 102.61281304 91.10692499 116.12168351 91.23828125 129.6328125 C91.25310799 130.8710376 91.25310799 130.8710376 91.26823425 132.13427734 C91.59619488 166.61606933 91.59619488 166.61606933 87 181 C86.5973291 182.2991333 86.5973291 182.2991333 86.18652344 183.62451172 C79.03921918 206.13891589 68.18626339 226.53006842 52.0078125 243.8359375 C50.28645685 245.69125078 48.70342909 247.58720874 47.125 249.5625 C43.02268226 254.37679024 37.97830224 258.13913926 33 262 C32.1440625 262.67160156 31.288125 263.34320313 30.40625 264.03515625 C-3.93584799 290.05032988 -44.51841448 297.53807296 -86.75 293.375 C-101.82921476 291.00018975 -116.32276874 285.66260141 -130 279 C-131.11761719 278.45601563 -132.23523438 277.91203125 -133.38671875 277.3515625 C-145.00271327 271.38242659 -155.35706482 263.85268584 -164.89453125 254.953125 C-166.61257461 253.35939276 -168.34865335 251.88541074 -170.1875 250.4375 C-173.86595643 247.24950442 -176.91407256 243.75678124 -180 240 C-180.77601563 239.0615625 -181.55203125 238.123125 -182.3515625 237.15625 C-188.95151915 228.98635061 -194.17690722 220.31547299 -199 211 C-199.54398438 209.95457031 -200.08796875 208.90914062 -200.6484375 207.83203125 C-211.48773841 185.66594764 -215.21513711 163.71565094 -215.375 139.3125 C-215.38312714 138.58150085 -215.39125427 137.85050171 -215.39962769 137.09735107 C-215.73097505 97.29208358 -197.85234955 60.70883022 -171 32 C-151.47755156 12.22474287 -125.70983764 -1.81932016 -98.9375 -8.6875 C-98.11056641 -8.90220947 -97.28363281 -9.11691895 -96.43164062 -9.33813477 C-64.91181602 -17.14634151 -29.40318697 -12.88245692 0 0 Z " fill="#FEFAFB" transform="translate(318,115)"></path><path d="M0 0 C0 0.66 0 1.32 0 2 C-1.43579102 3.41894531 -1.43579102 3.41894531 -3.44140625 5.078125 C-8.16036512 9.09293242 -12.55612377 13.37244363 -16.9375 17.75 C-17.70384766 18.50410156 -18.47019531 19.25820312 -19.25976562 20.03515625 C-19.98744141 20.76089844 -20.71511719 21.48664063 -21.46484375 22.234375 C-22.120896 22.88631836 -22.77694824 23.53826172 -23.45288086 24.20996094 C-25.21994038 26.02465828 -25.21994038 26.02465828 -26 29 C-25.401875 29.268125 -24.80375 29.53625 -24.1875 29.8125 C-22.00152146 30.99917406 -20.58667406 32.09599113 -19 34 C-19 34.66 -19 35.32 -19 36 C-15.06461038 33.8401097 -12.11502092 31.36082408 -8.953125 28.18359375 C-8.02628906 27.25482422 -7.09945312 26.32605469 -6.14453125 25.36914062 C-5.66967285 24.88807861 -5.19481445 24.4070166 -4.70556641 23.91137695 C-3.24567037 22.43311591 -1.77782061 20.96312253 -0.30859375 19.49414062 C4.37745393 15.14971143 4.37745393 15.14971143 8 10 C8.66 10 9.32 10 10 10 C10.81498562 11.6029053 11.62689927 13.20737278 12.4375 14.8125 C12.88996094 15.70582031 13.34242188 16.59914062 13.80859375 17.51953125 C17.71106367 25.64434567 17.27466283 37.41794057 14.5 45.9375 C9.84377916 56.68765198 1.74208719 64.38360709 -9 68.875 C-18.14511381 71.55906679 -30.10302072 71.57551379 -38.73046875 67.38671875 C-48.40133945 61.47766695 -56.26037827 53.90850157 -59.52734375 42.77734375 C-61.69667461 30.03028389 -60.43997236 18.98930496 -52.875 8.3125 C-48.91634124 3.52311627 -44.33085616 0.14230978 -39 -3 C-38.39929688 -3.36222656 -37.79859375 -3.72445312 -37.1796875 -4.09765625 C-25.95843973 -9.50700215 -9.94410743 -6.62940495 0 0 Z " fill="#DD2E35" transform="translate(278,224)"></path><path d="M0 0 C6.37911583 3.50206515 10.51068136 8.00093842 12.8125 14.9375 C13.72229315 22.01484436 13.13136914 28.1280477 8.8125 33.9375 C3.53181363 39.81978356 -2.31215373 42.43745532 -10.0625 43.4375 C-16.19585442 43.14773522 -21.89095695 40.32219318 -26.12109375 35.9296875 C-31.66635047 28.72218356 -32.19401078 21.9179214 -31.1875 12.9375 C-28.56924045 6.14548353 -23.64304568 2.0207457 -17.1875 -1.0625 C-11.09098933 -3.09467022 -5.84091959 -2.69105812 0 0 Z " fill="#EB3E42" transform="translate(371.1875,130.0625)"></path></svg>