<svg version="1.1" xmlns="http://www.w3.org/2000/svg" width="16px" height="16px" fill="currentColor" viewBox="0 0 512 512"><path d="M0 0 C168.96 0 337.92 0 512 0 C512 168.96 512 337.92 512 512 C343.04 512 174.08 512 0 512 C0 343.04 0 174.08 0 0 Z " fill="#3F52D5" transform="translate(0,0)"></path><path d="M0 0 C19.03276994 14.68258671 32.06543765 34.69639914 36.18359375 58.52490234 C39.12341032 83.7649491 33.58186565 106.76434464 18.6171875 127.24755859 C15.79130428 130.77743378 12.80803273 134.0458231 9.6171875 137.24755859 C8.88242187 138.00552734 8.14765625 138.76349609 7.390625 139.54443359 C-0.74684125 147.43695939 -10.84682669 153.14702399 -21.3828125 157.24755859 C-20.70927734 157.47830078 -20.03574219 157.70904297 -19.34179688 157.94677734 C27.96035658 174.26231221 27.96035658 174.26231221 36.6171875 187.24755859 C33.1521875 191.70255859 33.1521875 191.70255859 29.6171875 196.24755859 C26.86463671 194.8712832 24.4148582 193.5397826 21.8515625 191.89208984 C-10.78261445 171.20628579 -46.60460818 163.20194176 -84.72900391 171.60595703 C-119.81134389 180.08768559 -150.29748776 203.87081167 -169.0078125 234.43505859 C-182.34718025 256.92987037 -188.52921877 280.29724635 -190.3828125 306.24755859 C-129.3328125 306.24755859 -68.2828125 306.24755859 -5.3828125 306.24755859 C-5.3828125 310.53755859 -5.3828125 314.82755859 -5.3828125 319.24755859 C-70.7228125 319.24755859 -136.0628125 319.24755859 -203.3828125 319.24755859 C-203.3828125 289.90803864 -200.29772386 266.3694895 -187.3828125 240.24755859 C-187.07118164 239.5973877 -186.75955078 238.9472168 -186.43847656 238.27734375 C-179.40210227 223.6647675 -169.56565476 210.94621461 -158.3828125 199.24755859 C-157.72539062 198.52697266 -157.06796875 197.80638672 -156.390625 197.06396484 C-138.91520748 178.56640026 -113.37089828 163.93481753 -88.4375 158.72021484 C-86.40158112 158.44318975 -86.40158112 158.44318975 -85.3828125 157.24755859 C-86.90648437 156.53792969 -86.90648437 156.53792969 -88.4609375 155.81396484 C-113.9091958 143.69973724 -130.69521193 124.96550047 -140.1953125 98.49755859 C-140.61726355 97.08845044 -141.01321367 95.67129494 -141.3828125 94.24755859 C-141.58648437 93.47025391 -141.79015625 92.69294922 -142 91.89208984 C-147.12091073 68.70769261 -141.66769955 44.62872835 -129.54296875 24.59912109 C-117.49289172 5.90297988 -100.42242997 -6.92661131 -79.3828125 -13.75244141 C-78.51398438 -14.07083984 -77.64515625 -14.38923828 -76.75 -14.71728516 C-51.49960093 -22.70465629 -20.92594514 -15.4003442 0 0 Z " fill="#4257DA" transform="translate(274.3828125,93.75244140625)"></path><path d="M0 0 C3.99723079 1.38552961 5.01833876 2.7247195 6.88720703 6.44335938 C7.42063721 7.60254883 7.42063721 7.60254883 7.96484375 8.78515625 C8.36171387 9.59275391 8.75858398 10.40035156 9.16748047 11.23242188 C10.08825856 13.10743606 10.99855433 14.9876179 11.90087891 16.87158203 C13.79451553 20.77312155 15.75653013 24.63665021 17.7265625 28.5 C18.83402434 30.67994184 19.94038707 32.8604369 21.0461731 35.04122925 C21.78337575 36.49503185 22.5213922 37.94842206 23.26022339 39.40139771 C24.30612314 41.46369755 25.34362868 43.53000781 26.37890625 45.59765625 C26.69715866 46.22192001 27.01541107 46.84618378 27.3433075 47.48936462 C28.73397917 50.28466883 29.52734375 52.05259266 29.52734375 55.22265625 C30.19169434 55.25568848 30.85604492 55.2887207 31.54052734 55.32275391 C42.1096961 55.98621997 52.53195565 57.54278942 62.99658203 59.12402344 C66.17831809 59.60155461 69.36240506 60.0606317 72.546875 60.51953125 C74.57438758 60.82309325 76.60173799 61.12774087 78.62890625 61.43359375 C79.57883453 61.56808929 80.52876282 61.70258484 81.50747681 61.84115601 C82.38624481 61.97784698 83.26501282 62.11453796 84.17041016 62.25537109 C84.94172272 62.3700473 85.71303528 62.48472351 86.50772095 62.60287476 C88.93320191 63.34720593 89.96621167 64.24157666 91.52734375 66.22265625 C92.23590069 69.2694511 92.16410681 71.19954257 90.484375 73.8984375 C86.6531656 78.49785855 82.1575993 82.47103135 77.77734375 86.53515625 C75.78162107 88.39846374 73.78609544 90.26198074 71.79101562 92.12597656 C70.19225417 93.6067966 68.583138 95.07647465 66.96679688 96.53808594 C64.29153159 98.96614811 61.65824029 101.43417719 59.02734375 103.91015625 C58.17172852 104.66917236 57.31611328 105.42818848 56.43457031 106.21020508 C52.17204147 110.219468 52.17204147 110.219468 50.10131836 115.52734375 C50.30809408 118.5166461 50.88794504 121.29295231 51.52734375 124.22265625 C51.79241716 125.74468309 52.04905289 127.26819262 52.29931641 128.79272461 C53.3381411 135.08258376 54.46060424 141.3569845 55.59155273 147.63085938 C56.07809934 150.34001216 56.55514986 153.0507135 57.03125 155.76171875 C57.1812294 156.57758453 57.3312088 157.39345032 57.48573303 158.23403931 C59.41294901 169.27879919 59.41294901 169.27879919 58.52734375 174.22265625 C56.70203843 176.53730083 55.927639 177.14111463 52.99609375 177.73828125 C47.75663484 176.95944276 43.63978879 174.49500852 39.02734375 171.97265625 C38.02646729 171.43850098 37.02559082 170.9043457 35.99438477 170.35400391 C30.75447537 167.54806667 25.54523925 164.68647246 20.3359375 161.82421875 C18.85673828 161.01259277 18.85673828 161.01259277 17.34765625 160.18457031 C15.46534833 159.14840826 13.58627459 158.10634293 11.7109375 157.05761719 C9.33424551 155.74130924 6.93863691 154.474073 4.52734375 153.22265625 C3.53863281 152.68640625 2.54992187 152.15015625 1.53125 151.59765625 C-3.48228175 150.97177972 -7.14312662 153.50249437 -11.47265625 155.84765625 C-12.4265625 156.34458984 -13.38046875 156.84152344 -14.36328125 157.35351562 C-17.41331211 158.95238652 -20.44451849 160.5827352 -23.47265625 162.22265625 C-24.4884375 162.77018555 -25.50421875 163.31771484 -26.55078125 163.88183594 C-31.32909519 166.46243177 -36.09520287 169.06350585 -40.84765625 171.69140625 C-52.19614767 177.92619073 -52.19614767 177.92619073 -57.47265625 177.22265625 C-59.45071853 175.70275667 -60.35886046 174.82472767 -60.82714844 172.34710693 C-60.66037698 166.19511272 -59.81891355 160.28952566 -58.72265625 154.23828125 C-58.54508789 153.21966003 -58.36751953 152.20103882 -58.18457031 151.15155029 C-57.62108441 147.92394711 -57.04763518 144.69823017 -56.47265625 141.47265625 C-55.89887371 138.23261408 -55.32733766 134.99222251 -54.76074219 131.75091553 C-54.40908605 129.74121824 -54.05314747 127.73226433 -53.69238281 125.72418213 C-53.5322168 124.81263367 -53.37205078 123.90108521 -53.20703125 122.96191406 C-52.99385254 121.76686249 -52.99385254 121.76686249 -52.77636719 120.54766846 C-51.97102264 115.5357922 -51.97102264 115.5357922 -54.0291748 111.10523987 C-54.7575354 110.40607956 -55.485896 109.70691925 -56.23632812 108.98657227 C-57.05717896 108.18546524 -57.87802979 107.38435822 -58.72375488 106.55897522 C-59.62057983 105.70677902 -60.51740479 104.85458282 -61.44140625 103.9765625 C-63.30995741 102.15175576 -65.17844504 100.32688396 -67.046875 98.50195312 C-69.51510805 96.11250918 -71.98981838 93.72980812 -74.46661377 91.34924316 C-77.828875 88.11667605 -81.16875277 84.86214339 -84.50390625 81.6015625 C-85.4007312 80.75139053 -86.29755615 79.90121857 -87.22155762 79.02528381 C-88.04240845 78.22102463 -88.86325928 77.41676544 -89.70898438 76.58813477 C-90.43734497 75.88817886 -91.16570557 75.18822296 -91.9161377 74.46705627 C-93.93927814 71.54981739 -93.85004692 69.70119913 -93.47265625 66.22265625 C-91.90303686 63.79150408 -90.81405515 63.31704802 -88.02758789 62.54663086 C-87.07231201 62.40749268 -86.11703613 62.26835449 -85.1328125 62.125 C-84.06869141 61.96322266 -83.00457031 61.80144531 -81.90820312 61.63476562 C-80.79509766 61.47814453 -79.68199219 61.32152344 -78.53515625 61.16015625 C-76.35931853 60.83631669 -74.18353708 60.51209881 -72.0078125 60.1875 C-70.92765869 60.03063721 -69.84750488 59.87377441 -68.73461914 59.7121582 C-65.4938694 59.22583957 -62.26528361 58.68884953 -59.03515625 58.13671875 C-55.1609539 57.48214403 -51.3327272 56.93822689 -47.41015625 56.66015625 C-44.46247025 56.44806137 -42.29883223 56.16471491 -39.47265625 55.22265625 C-38.07825961 55.15600249 -36.6809575 55.13727426 -35.28515625 55.16015625 C-34.02703125 55.18078125 -32.76890625 55.20140625 -31.47265625 55.22265625 C-31.24304199 54.44486816 -31.01342773 53.66708008 -30.77685547 52.86572266 C-29.05230491 48.04847379 -26.84479566 43.52998776 -24.60546875 38.93359375 C-24.12947235 37.95274811 -23.65347595 36.97190247 -23.16305542 35.96133423 C-22.15807717 33.89446811 -21.15104475 31.82859968 -20.14208984 29.76367188 C-18.60159592 26.60573239 -17.07402866 23.44175162 -15.546875 20.27734375 C-14.56719367 18.26654326 -13.58675054 16.2561137 -12.60546875 14.24609375 C-12.15116486 13.30124115 -11.69686096 12.35638855 -11.22879028 11.38290405 C-5.81023457 0.37253472 -5.81023457 0.37253472 0 0 Z " fill="#4153D5" transform="translate(346.47265625,253.77734375)"></path><path d="M0 0 C19.03276994 14.68258671 32.06543765 34.69639914 36.18359375 58.52490234 C39.12341032 83.7649491 33.58186565 106.76434464 18.6171875 127.24755859 C15.79130428 130.77743378 12.80803273 134.0458231 9.6171875 137.24755859 C8.88242187 138.00552734 8.14765625 138.76349609 7.390625 139.54443359 C-0.74684125 147.43695939 -10.84682669 153.14702399 -21.3828125 157.24755859 C-20.70927734 157.47830078 -20.03574219 157.70904297 -19.34179688 157.94677734 C27.96035658 174.26231221 27.96035658 174.26231221 36.6171875 187.24755859 C33.1521875 191.70255859 33.1521875 191.70255859 29.6171875 196.24755859 C26.86463671 194.8712832 24.4148582 193.5397826 21.8515625 191.89208984 C-10.78261445 171.20628579 -46.60460818 163.20194176 -84.72900391 171.60595703 C-119.81134389 180.08768559 -150.29748776 203.87081167 -169.0078125 234.43505859 C-182.34718025 256.92987037 -188.52921877 280.29724635 -190.3828125 306.24755859 C-129.3328125 306.24755859 -68.2828125 306.24755859 -5.3828125 306.24755859 C-5.3828125 310.53755859 -5.3828125 314.82755859 -5.3828125 319.24755859 C-70.7228125 319.24755859 -136.0628125 319.24755859 -203.3828125 319.24755859 C-203.3828125 289.90803864 -200.29772386 266.3694895 -187.3828125 240.24755859 C-187.07118164 239.5973877 -186.75955078 238.9472168 -186.43847656 238.27734375 C-179.40210227 223.6647675 -169.56565476 210.94621461 -158.3828125 199.24755859 C-157.72539062 198.52697266 -157.06796875 197.80638672 -156.390625 197.06396484 C-138.91520748 178.56640026 -113.37089828 163.93481753 -88.4375 158.72021484 C-86.40158112 158.44318975 -86.40158112 158.44318975 -85.3828125 157.24755859 C-86.90648437 156.53792969 -86.90648437 156.53792969 -88.4609375 155.81396484 C-113.9091958 143.69973724 -130.69521193 124.96550047 -140.1953125 98.49755859 C-140.61726355 97.08845044 -141.01321367 95.67129494 -141.3828125 94.24755859 C-141.58648437 93.47025391 -141.79015625 92.69294922 -142 91.89208984 C-147.12091073 68.70769261 -141.66769955 44.62872835 -129.54296875 24.59912109 C-117.49289172 5.90297988 -100.42242997 -6.92661131 -79.3828125 -13.75244141 C-78.51398438 -14.07083984 -77.64515625 -14.38923828 -76.75 -14.71728516 C-51.49960093 -22.70465629 -20.92594514 -15.4003442 0 0 Z M-111.75390625 21.82177734 C-126.90480745 40.0658682 -131.99042008 59.96249904 -130.3828125 83.24755859 C-128.54363109 98.87400852 -120.92154221 113.72993502 -110.3828125 125.24755859 C-109.79242188 125.92947266 -109.20203125 126.61138672 -108.59375 127.31396484 C-96.06372102 140.9370389 -77.06337461 149.42210848 -58.74609375 150.60302734 C-37.34600573 151.46272126 -17.4008231 144.69462595 -1.3828125 130.24755859 C-0.69832031 129.65587891 -0.01382813 129.06419922 0.69140625 128.45458984 C11.38153372 118.60455098 17.32166867 105.87673019 21.6171875 92.24755859 C21.88402344 91.41224609 22.15085937 90.57693359 22.42578125 89.71630859 C27.04331576 71.62831134 23.29699767 51.81180756 14.6640625 35.63427734 C3.30453322 16.83902565 -12.34060927 4.69516956 -33.3828125 -1.75244141 C-34.94902344 -2.30158203 -34.94902344 -2.30158203 -36.546875 -2.86181641 C-64.3618238 -9.31986969 -92.81691228 1.26250382 -111.75390625 21.82177734 Z " fill="#FBFBFE" transform="translate(274.3828125,93.75244140625)"></path><path d="M0 0 C3.99723079 1.38552961 5.01833876 2.7247195 6.88720703 6.44335938 C7.42063721 7.60254883 7.42063721 7.60254883 7.96484375 8.78515625 C8.36171387 9.59275391 8.75858398 10.40035156 9.16748047 11.23242188 C10.08825856 13.10743606 10.99855433 14.9876179 11.90087891 16.87158203 C13.79451553 20.77312155 15.75653013 24.63665021 17.7265625 28.5 C18.83402434 30.67994184 19.94038707 32.8604369 21.0461731 35.04122925 C21.78337575 36.49503185 22.5213922 37.94842206 23.26022339 39.40139771 C24.30612314 41.46369755 25.34362868 43.53000781 26.37890625 45.59765625 C26.69715866 46.22192001 27.01541107 46.84618378 27.3433075 47.48936462 C28.73397917 50.28466883 29.52734375 52.05259266 29.52734375 55.22265625 C30.19169434 55.25568848 30.85604492 55.2887207 31.54052734 55.32275391 C42.1096961 55.98621997 52.53195565 57.54278942 62.99658203 59.12402344 C66.17831809 59.60155461 69.36240506 60.0606317 72.546875 60.51953125 C74.57438758 60.82309325 76.60173799 61.12774087 78.62890625 61.43359375 C79.57883453 61.56808929 80.52876282 61.70258484 81.50747681 61.84115601 C82.38624481 61.97784698 83.26501282 62.11453796 84.17041016 62.25537109 C84.94172272 62.3700473 85.71303528 62.48472351 86.50772095 62.60287476 C88.93320191 63.34720593 89.96621167 64.24157666 91.52734375 66.22265625 C92.23590069 69.2694511 92.16410681 71.19954257 90.484375 73.8984375 C86.6531656 78.49785855 82.1575993 82.47103135 77.77734375 86.53515625 C75.78162107 88.39846374 73.78609544 90.26198074 71.79101562 92.12597656 C70.19225417 93.6067966 68.583138 95.07647465 66.96679688 96.53808594 C64.29153159 98.96614811 61.65824029 101.43417719 59.02734375 103.91015625 C58.17172852 104.66917236 57.31611328 105.42818848 56.43457031 106.21020508 C52.17204147 110.219468 52.17204147 110.219468 50.10131836 115.52734375 C50.30809408 118.5166461 50.88794504 121.29295231 51.52734375 124.22265625 C51.79241716 125.74468309 52.04905289 127.26819262 52.29931641 128.79272461 C53.3381411 135.08258376 54.46060424 141.3569845 55.59155273 147.63085938 C56.07809934 150.34001216 56.55514986 153.0507135 57.03125 155.76171875 C57.1812294 156.57758453 57.3312088 157.39345032 57.48573303 158.23403931 C59.41294901 169.27879919 59.41294901 169.27879919 58.52734375 174.22265625 C56.70203843 176.53730083 55.927639 177.14111463 52.99609375 177.73828125 C47.75663484 176.95944276 43.63978879 174.49500852 39.02734375 171.97265625 C38.02646729 171.43850098 37.02559082 170.9043457 35.99438477 170.35400391 C30.75447537 167.54806667 25.54523925 164.68647246 20.3359375 161.82421875 C18.85673828 161.01259277 18.85673828 161.01259277 17.34765625 160.18457031 C15.46534833 159.14840826 13.58627459 158.10634293 11.7109375 157.05761719 C9.33424551 155.74130924 6.93863691 154.474073 4.52734375 153.22265625 C3.53863281 152.68640625 2.54992187 152.15015625 1.53125 151.59765625 C-3.48228175 150.97177972 -7.14312662 153.50249437 -11.47265625 155.84765625 C-12.4265625 156.34458984 -13.38046875 156.84152344 -14.36328125 157.35351562 C-17.41331211 158.95238652 -20.44451849 160.5827352 -23.47265625 162.22265625 C-24.4884375 162.77018555 -25.50421875 163.31771484 -26.55078125 163.88183594 C-31.32909519 166.46243177 -36.09520287 169.06350585 -40.84765625 171.69140625 C-52.19614767 177.92619073 -52.19614767 177.92619073 -57.47265625 177.22265625 C-59.45071853 175.70275667 -60.35886046 174.82472767 -60.82714844 172.34710693 C-60.66037698 166.19511272 -59.81891355 160.28952566 -58.72265625 154.23828125 C-58.54508789 153.21966003 -58.36751953 152.20103882 -58.18457031 151.15155029 C-57.62108441 147.92394711 -57.04763518 144.69823017 -56.47265625 141.47265625 C-55.89887371 138.23261408 -55.32733766 134.99222251 -54.76074219 131.75091553 C-54.40908605 129.74121824 -54.05314747 127.73226433 -53.69238281 125.72418213 C-53.5322168 124.81263367 -53.37205078 123.90108521 -53.20703125 122.96191406 C-52.99385254 121.76686249 -52.99385254 121.76686249 -52.77636719 120.54766846 C-51.97102264 115.5357922 -51.97102264 115.5357922 -54.0291748 111.10523987 C-54.7575354 110.40607956 -55.485896 109.70691925 -56.23632812 108.98657227 C-57.05717896 108.18546524 -57.87802979 107.38435822 -58.72375488 106.55897522 C-59.62057983 105.70677902 -60.51740479 104.85458282 -61.44140625 103.9765625 C-63.30995741 102.15175576 -65.17844504 100.32688396 -67.046875 98.50195312 C-69.51510805 96.11250918 -71.98981838 93.72980812 -74.46661377 91.34924316 C-77.828875 88.11667605 -81.16875277 84.86214339 -84.50390625 81.6015625 C-85.4007312 80.75139053 -86.29755615 79.90121857 -87.22155762 79.02528381 C-88.04240845 78.22102463 -88.86325928 77.41676544 -89.70898438 76.58813477 C-90.43734497 75.88817886 -91.16570557 75.18822296 -91.9161377 74.46705627 C-93.93927814 71.54981739 -93.85004692 69.70119913 -93.47265625 66.22265625 C-91.90303686 63.79150408 -90.81405515 63.31704802 -88.02758789 62.54663086 C-87.07231201 62.40749268 -86.11703613 62.26835449 -85.1328125 62.125 C-84.06869141 61.96322266 -83.00457031 61.80144531 -81.90820312 61.63476562 C-80.79509766 61.47814453 -79.68199219 61.32152344 -78.53515625 61.16015625 C-76.35931853 60.83631669 -74.18353708 60.51209881 -72.0078125 60.1875 C-70.92765869 60.03063721 -69.84750488 59.87377441 -68.73461914 59.7121582 C-65.4938694 59.22583957 -62.26528361 58.68884953 -59.03515625 58.13671875 C-55.1609539 57.48214403 -51.3327272 56.93822689 -47.41015625 56.66015625 C-44.46247025 56.44806137 -42.29883223 56.16471491 -39.47265625 55.22265625 C-38.07825961 55.15600249 -36.6809575 55.13727426 -35.28515625 55.16015625 C-34.02703125 55.18078125 -32.76890625 55.20140625 -31.47265625 55.22265625 C-31.24304199 54.44486816 -31.01342773 53.66708008 -30.77685547 52.86572266 C-29.05230491 48.04847379 -26.84479566 43.52998776 -24.60546875 38.93359375 C-24.12947235 37.95274811 -23.65347595 36.97190247 -23.16305542 35.96133423 C-22.15807717 33.89446811 -21.15104475 31.82859968 -20.14208984 29.76367188 C-18.60159592 26.60573239 -17.07402866 23.44175162 -15.546875 20.27734375 C-14.56719367 18.26654326 -13.58675054 16.2561137 -12.60546875 14.24609375 C-12.15116486 13.30124115 -11.69686096 12.35638855 -11.22879028 11.38290405 C-5.81023457 0.37253472 -5.81023457 0.37253472 0 0 Z M-1.47265625 21.22265625 C-2.03251221 22.34236816 -2.59236816 23.46208008 -3.16918945 24.61572266 C-18.38793945 55.05322266 -18.38793945 55.05322266 -19.49038696 57.21905518 C-20.36127175 58.99545775 -21.12691096 60.8226033 -21.87573242 62.65380859 C-23.47265625 65.22265625 -23.47265625 65.22265625 -26.02197266 66.50341797 C-30.55757973 67.44879072 -35.09010011 68.13416332 -39.68359375 68.73046875 C-41.13579819 68.92598831 -41.13579819 68.92598831 -42.61734009 69.12545776 C-45.69340928 69.53833483 -48.77048193 69.94310668 -51.84765625 70.34765625 C-53.9401757 70.62706895 -56.03262454 70.90701106 -58.125 71.1875 C-63.24008789 71.87201919 -68.35609082 72.54927392 -73.47265625 73.22265625 C-70.03834083 77.29741942 -66.56101895 81.2614809 -62.79296875 85.03515625 C-61.94605469 85.88335937 -61.09914063 86.7315625 -60.2265625 87.60546875 C-59.35902344 88.46914063 -58.49148438 89.3328125 -57.59765625 90.22265625 C-56.73785156 91.08632813 -55.87804687 91.95 -54.9921875 92.83984375 C-50.46014366 97.36501044 -45.87300592 101.73176088 -40.96435547 105.84765625 C-39.47265625 107.22265625 -39.47265625 107.22265625 -38.47265625 109.22265625 C-39.15603365 118.99603785 -41.24234113 128.67495359 -42.96411133 138.31079102 C-43.37893696 140.63872853 -43.78747416 142.96770472 -44.1953125 145.296875 C-44.32341812 146.00325607 -44.45152374 146.70963715 -44.58351135 147.43742371 C-45.27611336 151.41435843 -45.60127489 155.18749237 -45.47265625 159.22265625 C-35.602794 154.35391645 -25.80409385 149.35339853 -16.03515625 144.28515625 C-14.9150415 143.70548096 -13.79492676 143.12580566 -12.64086914 142.52856445 C-11.59664795 141.98546631 -10.55242676 141.44236816 -9.4765625 140.8828125 C-8.53627197 140.39433838 -7.59598145 139.90586426 -6.62719727 139.40258789 C-4.55542401 138.39893903 -4.55542401 138.39893903 -3.47265625 137.22265625 C2.63854149 137.54721468 6.98645947 139.72206328 12.27734375 142.66015625 C13.94782783 143.56266444 15.61840364 144.46500289 17.2890625 145.3671875 C18.1454834 145.83463379 19.0019043 146.30208008 19.88427734 146.78369141 C24.2689499 149.17083902 28.67813381 151.51097418 33.08984375 153.84765625 C33.90485352 154.2852124 34.71986328 154.72276855 35.55957031 155.17358398 C36.31334961 155.57391846 37.06712891 155.97425293 37.84375 156.38671875 C38.50834229 156.7420166 39.17293457 157.09731445 39.85766602 157.46337891 C41.5250748 158.3606407 41.5250748 158.3606407 43.52734375 158.22265625 C42.91675356 148.12184933 41.19376883 138.3878568 39.25585938 128.46875 C39.03478516 127.29183594 38.81371094 126.11492187 38.5859375 124.90234375 C38.38282959 123.85804199 38.17972168 122.81374023 37.97045898 121.73779297 C37.75111694 119.99780029 37.75111694 119.99780029 37.52734375 118.22265625 C37.42552795 117.44291946 37.32371216 116.66318268 37.21881104 115.8598175 C36.85198447 110.93961681 37.16814036 107.97833651 40.43310547 104.16577148 C41.74881771 102.84493011 43.0919171 101.55096808 44.45703125 100.28125 C45.51532639 99.24062157 45.51532639 99.24062157 46.59500122 98.17897034 C48.84164874 95.9814247 51.12087052 93.82146322 53.40234375 91.66015625 C54.92930671 90.17480829 56.45407278 88.68719834 57.9765625 87.19726562 C60.75907097 84.48945214 63.54750458 81.78874178 66.36279297 79.11499023 C66.92682831 78.57889633 67.49086365 78.04280243 68.07199097 77.49046326 C69.52734375 76.22265625 69.52734375 76.22265625 71.52734375 75.22265625 C71.52734375 74.56265625 71.52734375 73.90265625 71.52734375 73.22265625 C70.93265793 73.14162155 70.33797211 73.06058685 69.7252655 72.97709656 C63.54278235 72.13212361 57.3629341 71.26957738 51.18432617 70.39672852 C48.87733967 70.07318872 46.56971681 69.75415345 44.26147461 69.43969727 C40.94598077 68.98722819 37.63310413 68.51867126 34.3203125 68.046875 C33.28585495 67.9092424 32.2513974 67.7716098 31.18559265 67.62980652 C30.22482315 67.48988785 29.26405365 67.34996918 28.27416992 67.20581055 C27.42811691 67.08811813 26.5820639 66.97042572 25.71037292 66.84916687 C22.37831314 65.89289434 21.09936119 64.18848543 19.36933899 61.26741028 C18.81973763 60.1582148 18.81973763 60.1582148 18.2590332 59.02661133 C17.83882401 58.18596634 17.41861481 57.34532135 16.985672 56.47920227 C16.31987373 55.12437996 16.31987373 55.12437996 15.640625 53.7421875 C15.1787529 52.81419846 14.7168808 51.88620941 14.24101257 50.93009949 C12.76829782 47.96788837 11.30398666 45.00161206 9.83984375 42.03515625 C8.84234787 40.0251171 7.8443075 38.01534805 6.84570312 36.00585938 C4.39992518 31.08124087 1.96103243 26.15325934 -0.47265625 21.22265625 C-0.80265625 21.22265625 -1.13265625 21.22265625 -1.47265625 21.22265625 Z " fill="#FBFBFE" transform="translate(346.47265625,253.77734375)"></path></svg>