<svg version="1.1" xmlns="http://www.w3.org/2000/svg" width="16px" height="16px" fill="currentColor" viewBox="0 0 512 512"><path d="M0 0 C168.96 0 337.92 0 512 0 C512 168.96 512 337.92 512 512 C343.04 512 174.08 512 0 512 C0 343.04 0 174.08 0 0 Z " fill="#7646D3" transform="translate(0,0)"></path><path d="M0 0 C6.29395207 5.00133619 11.26080387 10.97920609 12.3828125 19.1484375 C12.85120621 27.69962518 10.02924346 33.7676468 4.84765625 40.4296875 C-2.49452429 46.14027237 -8.67241532 48.33019908 -18.0390625 48 C-21.47106884 47.55095244 -23.96890318 46.30720526 -26.96484375 44.6171875 C-30.83928178 45.89883981 -33.31361084 48.72255162 -36.140625 51.5625 C-36.87299629 52.29555862 -36.87299629 52.29555862 -37.62016296 53.04342651 C-38.65206573 54.07834417 -39.68154319 55.11568501 -40.70874023 56.15527344 C-42.25659267 57.72119419 -43.81210725 59.27915108 -45.36914062 60.8359375 C-49.4372021 64.92387715 -53.45217435 68.99571363 -57.21166992 73.37060547 C-61.44428398 78.24492137 -66.00496628 82.7640192 -70.58984375 87.3046875 C-71.49557129 88.20662842 -72.40129883 89.10856934 -73.33447266 90.0378418 C-76.69405681 93.38324194 -80.05815637 96.72407142 -83.42260742 100.0645752 C-86.73118726 103.3501055 -90.03586856 106.63952541 -93.33984375 109.9296875 C-94.2004541 110.78199951 -95.06106445 111.63431152 -95.94775391 112.51245117 C-100.24667776 116.79400992 -104.36818428 121.14647288 -108.32229614 125.74755859 C-111.00792261 128.80447143 -113.88433934 131.66021216 -116.7734375 134.5234375 C-117.38502213 135.13360718 -117.99660675 135.74377686 -118.62672424 136.37243652 C-120.54956177 138.28974915 -122.47587469 140.20352452 -124.40234375 142.1171875 C-125.71963434 143.42945335 -127.03669361 144.74195145 -128.35351562 146.0546875 C-131.55462985 149.24487256 -134.7588624 152.43189401 -137.96484375 155.6171875 C-137.64249756 156.52871582 -137.32015137 157.44024414 -136.98803711 158.37939453 C-134.91539622 164.93805918 -134.6559542 173.60528884 -136.8046875 180.19140625 C-140.84184404 187.11030416 -147.23105472 192.58046294 -154.96484375 194.6171875 C-162.67242078 195.43958406 -169.6083909 195.38103458 -175.96484375 190.6171875 C-181.57578781 185.93573317 -185.45998083 181.35865222 -186.46875 173.8828125 C-186.76335316 165.12053463 -186.07534164 158.4252898 -179.96484375 151.6171875 C-175.70372292 147.57202991 -172.81604511 145.78742777 -166.96484375 144.6171875 C-166.96484375 127.1271875 -166.96484375 109.6371875 -166.96484375 91.6171875 C-168.61484375 91.2871875 -170.26484375 90.9571875 -171.96484375 90.6171875 C-172.81046875 90.0603125 -173.65609375 89.5034375 -174.52734375 88.9296875 C-175.33171875 88.4965625 -176.13609375 88.0634375 -176.96484375 87.6171875 C-180.49865846 88.85588374 -182.73693087 91.14686058 -185.34268188 93.76797485 C-186.21194809 94.63738205 -187.08121429 95.50678925 -187.9768219 96.40254211 C-188.93206173 97.36804904 -189.8872132 98.33364341 -190.84228516 99.29931641 C-191.85395021 100.31482068 -192.86607223 101.32986989 -193.87861633 102.34449768 C-196.05589663 104.52809558 -198.23003185 106.71476094 -200.40181351 108.90382767 C-203.83331428 112.36236363 -207.27242215 115.81326669 -210.71273804 119.26303101 C-218.0110334 126.58352421 -225.30084894 133.91243549 -232.58984375 141.2421875 C-240.46534593 149.16169609 -248.34226568 157.07976216 -256.22895372 164.98813379 C-259.65165812 168.42082825 -263.0694212 171.85834689 -266.48353982 175.29957986 C-268.60339751 177.43430651 -270.72734585 179.56492614 -272.85245323 181.69442558 C-273.84027145 182.68600259 -274.82635196 183.67931407 -275.81059837 184.67443657 C-277.14946666 186.02763692 -278.49502938 187.37420417 -279.8409729 188.72036743 C-280.59349146 189.47732721 -281.34601002 190.23428699 -282.12133217 191.01418495 C-283.96484375 192.6171875 -283.96484375 192.6171875 -285.96484375 192.6171875 C-285.46984375 193.6690625 -284.97484375 194.7209375 -284.46484375 195.8046875 C-281.85706838 202.79600908 -281.77919762 211.05113718 -284.21484375 218.1171875 C-288.11880532 225.92511064 -293.38746412 229.90067014 -301.46484375 232.9296875 C-310.38800771 234.68245185 -316.41630546 233.30893148 -323.94921875 228.296875 C-330.07751144 223.50423584 -333.06295116 217.279703 -334.2734375 209.6796875 C-334.72952789 202.38224122 -331.98985576 196.59939351 -327.96484375 190.6171875 C-323.37946963 185.97818327 -318.18559616 182.90724356 -311.625 182.31640625 C-309.84416016 182.31060547 -309.84416016 182.31060547 -308.02734375 182.3046875 C-306.84269531 182.28792969 -305.65804687 182.27117187 -304.4375 182.25390625 C-300.66394659 182.64866493 -298.22693199 183.72965858 -294.96484375 185.6171875 C-294.76427872 185.07978439 -294.56371368 184.54238129 -294.35707092 183.98869324 C-292.37638412 180.61481129 -289.56866994 178.26406406 -286.68920898 175.6730957 C-285.31412898 174.41189255 -283.94085241 173.14872127 -282.56906128 171.88394165 C-281.45377611 170.85580038 -281.45377611 170.85580038 -280.31595993 169.80688858 C-276.09648871 165.87710375 -271.95671521 161.86540516 -267.81665039 157.85229492 C-266.90904181 156.97256673 -266.00143324 156.09283854 -265.06632137 155.18645191 C-256.92531243 147.28024964 -248.827238 139.33043603 -240.74694157 131.36222363 C-235.33718333 126.02931977 -229.91212215 120.71398771 -224.44750977 115.43725586 C-219.63467047 110.78984011 -214.85297964 106.11285941 -210.1058206 101.39833909 C-207.60612561 98.91779291 -205.09432187 96.45367308 -202.54438972 94.0247097 C-190.07270632 83.15159525 -190.07270632 83.15159525 -184.74049282 68.32023335 C-184.85890525 66.18515695 -185.11152305 64.14563866 -185.47117615 62.03901672 C-185.9899382 58.44324672 -185.77893837 57.06327256 -183.96484375 53.9921875 C-178.99302206 47.72091242 -173.14581663 42.26226276 -164.984375 41.24609375 C-156.05656946 41.06123054 -149.7221915 42.48036337 -142.8984375 48.4140625 C-137.47446142 54.07583294 -135.52839673 59.79755067 -134.40234375 67.4296875 C-134.72377276 74.72028184 -139.12215321 82.36816547 -144.40234375 87.2421875 C-147.82715999 90.07474229 -150.18658079 90.25196951 -154.96484375 91.6171875 C-154.63484375 109.1071875 -154.30484375 126.5971875 -153.96484375 144.6171875 C-150.99484375 145.6071875 -150.99484375 145.6071875 -147.96484375 146.6171875 C-144.81412247 143.49146279 -141.66691239 140.3622544 -138.52270508 137.22998047 C-137.45592078 136.16817889 -136.38823522 135.10728192 -135.31958008 134.04736328 C-133.77048041 132.51059837 -132.22481364 130.97044637 -130.6796875 129.4296875 C-129.752771 128.50800781 -128.82585449 127.58632813 -127.87084961 126.63671875 C-125.75771318 124.48759852 -123.77806508 122.25845789 -121.81860352 119.96875 C-117.50781176 114.99909464 -112.84675093 110.38631999 -108.17889404 105.756073 C-106.55251106 104.14265236 -104.92944679 102.52595479 -103.30712891 100.90844727 C-99.28020952 96.89477649 -95.24781712 92.88661915 -91.21557617 88.8782959 C-87.79655755 85.47913026 -84.37967976 82.07783883 -80.96551514 78.67379761 C-79.37963369 77.09431684 -77.79073279 75.51791953 -76.20166016 73.94165039 C-71.45216718 69.21582189 -66.83809394 64.43900369 -62.48095703 59.34701538 C-60.19295341 56.73648983 -57.72768376 54.37638708 -55.21484375 51.98046875 C-54.18417722 50.98186094 -53.15424881 49.98249084 -52.125 48.98242188 C-50.53408181 47.44123534 -48.93917122 45.90535424 -47.33154297 44.3815918 C-45.75798097 42.88649455 -44.20407208 41.373171 -42.65234375 39.85546875 C-41.72808594 38.96899658 -40.80382812 38.08252441 -39.8515625 37.16918945 C-37.66676153 34.79406093 -37.66676153 34.79406093 -38.15698242 32.0078125 C-38.55687378 30.82445312 -38.55687378 30.82445312 -38.96484375 29.6171875 C-40.10494794 12.92680978 -40.10494794 12.92680978 -34.96484375 6.6171875 C-25.84158857 -3.33361958 -12.1488482 -7.80524911 0 0 Z " fill="#FCFBFE" transform="translate(416.96484375,131.3828125)"></path><path d="M0 0 C4.29 0 8.58 0 13 0 C13.09336027 28.61532225 13.16393848 57.23062175 13.20724869 85.84606552 C13.22789113 99.13213684 13.25604388 112.41809185 13.30175781 125.70410156 C13.34157402 137.28153363 13.36742057 148.85889726 13.37635398 160.43639588 C13.38157754 166.56900899 13.39388987 172.70142628 13.42292023 178.83397675 C13.4500068 184.60247491 13.45845863 190.37069599 13.45243073 196.13925171 C13.45353399 198.25971226 13.46152783 200.38018178 13.4768219 202.50058746 C13.49664385 205.38971243 13.49196755 208.27778318 13.48101807 211.16693115 C13.49266943 212.01128841 13.5043208 212.85564567 13.51632524 213.72558951 C13.48088534 217.17119976 13.43804294 219.42821134 11.3038404 222.21404052 C8.50477267 224.38390504 7.15521411 224.50095095 3.6463623 224.50336456 C2.55404549 224.51379555 1.46172867 224.52422654 0.33631134 224.53497362 C-0.86328468 224.52605073 -2.06288071 224.51712785 -3.29882812 224.50793457 C-5.21082378 224.51729451 -5.21082378 224.51729451 -7.16144562 224.52684355 C-10.70211959 224.54357159 -14.24236339 224.53527509 -17.78303909 224.52289867 C-21.60042515 224.51386456 -25.41773618 224.52780973 -29.23510742 224.53881836 C-36.71434386 224.55662578 -44.19341995 224.55275376 -51.67266273 224.5411678 C-57.74996891 224.53214246 -63.82723007 224.53090556 -69.90454102 224.53526306 C-70.76875687 224.53587599 -71.63297273 224.53648893 -72.52337694 224.53712043 C-74.27889189 224.5383993 -76.03440683 224.53969616 -77.78992176 224.5410108 C-94.26007195 224.5524231 -110.73013315 224.53929271 -127.20026875 224.51780933 C-141.33928624 224.49993775 -155.47817238 224.50304168 -169.6171875 224.52148438 C-186.02749546 224.54287962 -202.43772539 224.55132441 -218.84804535 224.53903532 C-220.59718322 224.53776109 -222.34632109 224.53650361 -224.09545898 224.53526306 C-224.95611859 224.53464596 -225.81677819 224.53402886 -226.70351839 224.53339306 C-232.77510224 224.52993611 -238.84663669 224.53577591 -244.91821289 224.54518127 C-252.31521242 224.55638771 -259.71204212 224.5533899 -267.10902214 224.5320583 C-270.8847374 224.52152947 -274.66016927 224.51745691 -278.43588257 224.53065491 C-282.52456019 224.54473095 -286.61251928 224.52795008 -290.70117188 224.50793457 C-291.9007679 224.51685746 -293.10036392 224.52578034 -294.33631134 224.53497362 C-295.42862816 224.52454263 -296.52094498 224.51411164 -297.6463623 224.50336456 C-298.59045708 224.50271515 -299.53455185 224.50206574 -300.50725555 224.50139666 C-303.78368765 223.84236717 -304.97796494 222.61679917 -307 220 C-307.34939929 217.24913809 -307.46885179 214.9116444 -307.390625 212.171875 C-307.38496521 211.42286926 -307.37930542 210.67386353 -307.37347412 209.90216064 C-307.35114057 207.517448 -307.30095386 205.13425592 -307.25 202.75 C-307.22993091 201.13023009 -307.21168085 199.51043654 -307.1953125 197.890625 C-307.15128624 193.92650034 -307.08228298 189.96350768 -307 186 C-302.71 186 -298.42 186 -294 186 C-294 194.25 -294 202.5 -294 211 C-196.98 211 -99.96 211 0 211 C0 141.37 0 71.74 0 0 Z " fill="#FCFCFE" transform="translate(403,192)"></path><path d="M0 0 C1.09231682 -0.00981429 2.18463364 -0.01962858 3.31005096 -0.02974027 C4.50964699 -0.02013527 5.70924301 -0.01053026 6.94519043 -0.00063419 C8.85718609 -0.00893579 8.85718609 -0.00893579 10.80780792 -0.01740509 C14.34849157 -0.03219011 17.88873188 -0.02196085 21.4294014 -0.00766838 C25.24678 0.00342041 29.06409533 -0.00849422 32.88146973 -0.01751041 C40.36071369 -0.03145923 47.83978907 -0.02387465 55.31902504 -0.00883483 C64.02478837 0.00800648 72.73050948 0.00481738 81.43628407 0.00107109 C96.96728177 -0.0048105 112.49819845 0.00937577 128.0291748 0.03401852 C143.1073307 0.05794017 158.18537834 0.06502316 173.2635498 0.05452633 C189.67385266 0.04312262 206.08410541 0.04118028 222.49440765 0.05562443 C224.24354553 0.0571503 225.99268341 0.05867066 227.74182129 0.06018543 C228.60248089 0.06094325 229.4631405 0.06170106 230.3498807 0.06248184 C236.42145309 0.06722891 242.49300314 0.06537024 248.5645752 0.06112003 C255.96155359 0.05619846 263.35842954 0.06215491 270.75538445 0.08201433 C274.53105384 0.09190078 278.30656709 0.09697697 282.08224487 0.08912182 C286.17082331 0.08078959 290.25898389 0.09561681 294.34753418 0.1128912 C296.14692822 0.10387613 296.14692822 0.10387613 297.98267365 0.09467894 C299.62114887 0.10733885 299.62114887 0.10733885 301.29272461 0.12025452 C302.70886677 0.12179821 302.70886677 0.12179821 304.15361786 0.12337309 C307.15004403 0.57678757 308.52457135 1.34929912 310.6463623 3.50057125 C310.94197307 6.37095177 311.02579246 8.8381187 310.8963623 11.68807125 C310.87831543 12.43766109 310.86026855 13.18725094 310.8416748 13.95955563 C310.7946034 15.80710835 310.72285996 17.65400284 310.6463623 19.50057125 C306.3563623 19.50057125 302.0663623 19.50057125 297.6463623 19.50057125 C297.6463623 17.52057125 297.6463623 15.54057125 297.6463623 13.50057125 C200.6263623 13.50057125 103.6063623 13.50057125 3.6463623 13.50057125 C3.6463623 76.86057125 3.6463623 140.22057125 3.6463623 205.50057125 C-0.6436377 205.50057125 -4.9336377 205.50057125 -9.3536377 205.50057125 C-9.44700544 179.3625445 -9.51757984 153.22454268 -9.56088638 127.08638287 C-9.58152723 114.95046323 -9.60967698 102.81464711 -9.65539551 90.67879391 C-9.69521658 80.10337832 -9.72105942 69.52803769 -9.72999167 58.95254922 C-9.73521442 53.35089579 -9.74752149 47.74945679 -9.77655792 42.14787197 C-9.80365222 36.87839858 -9.81209478 31.60922854 -9.80606842 26.33969212 C-9.80717134 24.40306164 -9.8151607 22.46642132 -9.83045959 20.52985096 C-9.85029396 17.89030039 -9.8456011 15.25190258 -9.83465576 12.61232662 C-9.84630713 11.84189738 -9.85795849 11.07146814 -9.86996293 10.27769256 C-9.83280956 6.97424562 -9.70803309 4.95933418 -7.65747809 2.30490178 C-4.85753166 0.11202903 -3.52213321 0.00040044 0 0 Z " fill="#FCFCFE" transform="translate(105.3536376953125,95.49942874908447)"></path><path d="M0 0 C3.42484369 2.28322912 4.97163392 4.19326784 6.8125 7.875 C7.4322472 12.21323043 7.1467226 14.25430088 5.0625 18.125 C2.48039127 21.28091067 0.5344338 23.53402301 -3.5546875 24.34375 C-7.91589788 24.3980953 -11.17879387 24.4250512 -14.6875 21.625 C-17.99390712 17.98795217 -19.01972901 16.38493888 -19.5625 11.5 C-19.11265417 7.15149031 -17.98540424 5.20223747 -15.1875 1.875 C-10.35049215 -2.04689826 -5.76079882 -2.03322311 0 0 Z " fill="#7648D0" transform="translate(262.1875,289.125)"></path><path d="M0 0 C4.57681459 1.83072584 6.7481855 4.66317208 9 9 C9.60938288 13.26568014 9.30540652 15.38918695 7.375 19.25 C3.83044344 23.35422338 0.85923054 24.76759618 -4.5 25.4375 C-8.76506 24.9043675 -10.75593838 23.80168958 -14 21 C-16.64201025 16.94891762 -17.70236884 13.8162435 -17 9 C-12.69834342 1.16483981 -8.76393156 -1.13082988 0 0 Z " fill="#7E4DD9" transform="translate(260,186)"></path><path d="M0 0 C3.14933291 1.67121049 5.26672972 4.00008598 7.375 6.875 C8.75017467 11.55059389 8.55896687 14.92347121 6.3125 19.25 C3.43181528 22.67567913 1.39238695 24.60126884 -3.109375 25.3515625 C-7.3584843 25.62247887 -10.14009279 25.36150274 -13.5 22.625 C-17.52748841 18.39613716 -17.33714142 15.37693545 -17.28515625 9.703125 C-16.90033774 6.05525636 -15.76015463 4.37679982 -13 2 C-8.7473947 -0.49106586 -4.82891558 -0.82853144 0 0 Z " fill="#8D58E8" transform="translate(408,141)"></path><path d="M0 0 C3.17282395 1.66019858 5.37590133 3.75180266 7 7 C7.41654299 11.52589985 7.51073318 15.66641891 5.875 19.9375 C2.55114421 23.59374137 -0.64072341 24.83009043 -5.5 25.4375 C-10.66221232 24.79222346 -13.57751576 22.70698109 -16.875 18.75 C-18.38521493 15.0583635 -18.59064398 11.93496596 -18 8 C-14.3666069 -0.17513448 -8.30737875 -1.32053708 0 0 Z " fill="#663CC0" transform="translate(114,327)"></path></svg>