<svg version="1.1" xmlns="http://www.w3.org/2000/svg" width="16px" height="16px" fill="currentColor" viewBox="0 0 512 512"><path d="M0 0 C168.96 0 337.92 0 512 0 C512 168.96 512 337.92 512 512 C343.04 512 174.08 512 0 512 C0 343.04 0 174.08 0 0 Z " fill="#E3740D" transform="translate(0,0)"></path><path d="M0 0 C6.47050683 5.78899324 12.13506845 11.7023134 17.1328125 18.8203125 C22.27675081 18.05020273 26.81681534 15.93811463 31.51757812 13.81640625 C35.79088211 12.00296354 38.68556592 11.31665893 43.1328125 12.8203125 C46.11992444 15.61187987 48.02619498 19.33458246 50.1328125 22.8203125 C50.58978516 23.55862305 51.04675781 24.29693359 51.51757812 25.05761719 C53.05462604 27.55058531 54.56616251 30.0573725 56.0703125 32.5703125 C56.56748779 33.38612793 57.06466309 34.20194336 57.5769043 35.04248047 C62.01134404 42.62686944 62.01134404 42.62686944 61.1328125 47.8203125 C58.96725869 51.06864322 58.38762629 51.37375215 54.8984375 52.62963867 C54.02413086 52.94974411 53.14982422 53.26984955 52.24902344 53.59965515 C51.30317383 53.93415176 50.35732422 54.26864838 49.3828125 54.61328125 C47.9292334 55.13961906 47.9292334 55.13961906 46.44628906 55.67658997 C44.39686985 56.41660645 42.34570738 57.15181011 40.29296875 57.88256836 C37.14203538 59.00452849 33.99646312 60.14054962 30.8515625 61.27929688 C28.86227653 61.99561801 26.87270262 62.71114012 24.8828125 63.42578125 C23.93696289 63.76635056 22.99111328 64.10691986 22.01660156 64.45780945 C21.14229492 64.7684584 20.26798828 65.07910736 19.3671875 65.39916992 C18.59600586 65.67435959 17.82482422 65.94954926 17.03027344 66.233078 C15.1328125 66.8203125 15.1328125 66.8203125 13.1328125 66.8203125 C13.35420898 67.38314941 13.57560547 67.94598633 13.80371094 68.52587891 C19.93293197 84.17420753 25.19478888 99.04110802 27.1328125 115.8203125 C28.27878906 115.3871875 29.42476563 114.9540625 30.60546875 114.5078125 C32.13519926 113.94472152 33.66515955 113.38225452 35.1953125 112.8203125 C35.94748047 112.53414062 36.69964844 112.24796875 37.47460938 111.953125 C42.13742266 110.25755653 46.10667585 109.13129499 51.1328125 109.8203125 C53.87093391 111.92026924 54.99863713 113.11532218 55.65039062 116.53979492 C55.6571582 118.09210815 55.6571582 118.09210815 55.6640625 119.67578125 C55.67219971 120.84343018 55.68033691 122.0110791 55.6887207 123.21411133 C55.670271 124.46603271 55.65182129 125.7179541 55.6328125 127.0078125 C55.61577271 128.94466919 55.61577271 128.94466919 55.59838867 130.9206543 C55.23947264 149.06091495 52.42931308 166.77729187 46.1328125 183.8203125 C45.70355469 185.02042969 45.27429688 186.22054687 44.83203125 187.45703125 C28.98672615 229.45824844 -2.27360584 262.85636505 -42.89624023 281.86132812 C-76.06423264 296.67688432 -112.8981063 301.53260162 -148.49365234 293.36279297 C-150.67116111 292.86511508 -152.85241297 292.41625571 -155.04296875 291.98046875 C-183.25987608 285.82663067 -209.35295958 269.81468669 -229.8671875 249.8203125 C-230.40182617 249.30082031 -230.93646484 248.78132813 -231.48730469 248.24609375 C-233.12055854 246.65239301 -234.74614261 245.05142605 -236.3671875 243.4453125 C-236.85977051 242.95756348 -237.35235352 242.46981445 -237.85986328 241.96728516 C-245.8671875 233.92123813 -245.8671875 233.92123813 -245.8671875 230.8203125 C-253.15395851 232.99823452 -260.3049834 235.26199271 -267.33203125 238.18359375 C-270.68968395 239.02688711 -272.57320509 238.93983593 -275.8671875 237.8203125 C-277.80980236 235.62497502 -279.23189191 233.7223515 -280.7421875 231.2578125 C-281.16854492 230.58741943 -281.59490234 229.91702637 -282.03417969 229.22631836 C-289.59429213 217.09546679 -295.21665269 204.30831221 -299.8671875 190.8203125 C-300.37958984 189.34498047 -300.37958984 189.34498047 -300.90234375 187.83984375 C-302.44239656 183.10507675 -303.58473857 178.84316997 -302.8671875 173.8203125 C-300.26344989 171.46732624 -297.6543331 170.18925848 -294.37402344 169.01098633 C-293.05310699 168.53082817 -293.05310699 168.53082817 -291.70550537 168.04096985 C-290.76370422 167.70647324 -289.82190308 167.37197662 -288.8515625 167.02734375 C-287.88059631 166.67645187 -286.90963013 166.32556 -285.90924072 165.96403503 C-282.81416441 164.84718833 -279.71576825 163.73989457 -276.6171875 162.6328125 C-274.51539898 161.87627867 -272.41383366 161.11912444 -270.3125 160.36132812 C-265.16662873 158.50712188 -260.01800077 156.66074263 -254.8671875 154.8203125 C-255.0115625 154.01207031 -255.1559375 153.20382812 -255.3046875 152.37109375 C-255.4903125 151.30246094 -255.6759375 150.23382813 -255.8671875 149.1328125 C-256.0528125 148.07707031 -256.2384375 147.02132812 -256.4296875 145.93359375 C-256.81786824 143.17127188 -256.94978726 140.60289207 -256.8671875 137.8203125 C-257.86878906 138.18125 -258.87039063 138.5421875 -259.90234375 138.9140625 C-261.2445932 139.38338049 -262.58705251 139.8520986 -263.9296875 140.3203125 C-264.58646484 140.55878906 -265.24324219 140.79726563 -265.91992188 141.04296875 C-270.32863539 142.56321479 -274.1502089 143.4207602 -278.8671875 142.8203125 C-281.40621957 140.43881162 -281.84937523 138.96727718 -282.27124023 135.48657227 C-282.28098877 134.17487061 -282.2907373 132.86316895 -282.30078125 131.51171875 C-282.30783585 130.79743713 -282.31489044 130.08315552 -282.32215881 129.347229 C-282.33633928 127.02527558 -282.32375151 124.70471898 -282.3046875 122.3828125 C-282.30098145 121.58998871 -282.29727539 120.79716492 -282.29345703 119.98031616 C-282.20822837 107.21619467 -281.36800905 95.15642756 -277.8671875 82.8203125 C-277.609375 81.88783691 -277.3515625 80.95536133 -277.0859375 79.99462891 C-271.05934616 58.80041851 -261.50535795 39.15735447 -247.8671875 21.8203125 C-247.16464844 20.89734375 -246.46210938 19.974375 -245.73828125 19.0234375 C-218.44032666 -15.76511605 -177.53643768 -37.71362255 -133.8671875 -43.4296875 C-84.44012804 -48.95354296 -37.01157952 -32.63119866 0 0 Z " fill="#FEFCFA" transform="translate(376.8671875,127.1796875)"></path><path d="M0 0 C1.04800781 0.53496094 2.09601563 1.06992188 3.17578125 1.62109375 C10.25806465 5.45158944 15.85622614 10.1857845 21.6015625 15.7421875 C23.78032253 18.0099301 23.78032253 18.0099301 26 19 C32.9001953 18.77741305 37.99245595 16.93482929 44.203125 13.9609375 C47.41846612 12.85622533 48.83971108 12.78170081 52 14 C53.94921875 15.890625 53.94921875 15.890625 55.6875 18.25 C56.55955078 19.40242188 56.55955078 19.40242188 57.44921875 20.578125 C58.99514059 22.99241099 59.97426842 25.33237691 61 28 C51.94670271 31.89015509 42.76464244 35.34520662 33.5 38.6875 C31.48130942 39.41636423 29.46296427 40.1461159 27.44567871 40.87886047 C25.63715795 41.53575089 23.82740505 42.18924616 22.01757812 42.8425293 C18.40020495 44.20357845 18.40020495 44.20357845 15 46 C13.65605999 49.79953411 13.85936524 51.62908114 15.29296875 55.41015625 C15.91218734 56.6339018 16.54436012 57.85115532 17.1875 59.0625 C24.74999565 74.29265638 27.12494634 89.50892517 27.57104492 106.37329102 C27.5991626 107.20272217 27.62728027 108.03215332 27.65625 108.88671875 C27.67494141 109.63139404 27.69363281 110.37606934 27.71289062 111.14331055 C27.85062585 113.24445388 27.85062585 113.24445388 30 115 C35.5872373 114.76224522 40.37172291 112.87087411 45.546875 110.83984375 C48 110 48 110 51 110 C50.63312128 116.98716407 49.36726305 122.78577861 46.5625 129.1875 C46.03450806 130.41134399 46.03450806 130.41134399 45.49584961 131.65991211 C34.34185666 156.57964761 14.23181227 175.09116838 -11.17163086 184.99951172 C-35.91777633 194.06656414 -63.67528365 191.79391701 -87.5390625 181.46875 C-97.90934583 176.59402702 -106.55054233 170.15500678 -114.9375 162.375 C-118.60961272 159.52723911 -119.46733498 159.50675467 -124 160 C-128.15579092 161.28764491 -132.15734111 162.96850086 -136.1875 164.59960938 C-137.00476563 164.91865234 -137.82203125 165.23769531 -138.6640625 165.56640625 C-139.40092285 165.86490479 -140.1377832 166.16340332 -140.89697266 166.47094727 C-143.363517 167.09144896 -144.64349694 166.91858433 -147 166 C-157.12440484 155.4759476 -165.43417806 139.32415557 -168 125 C-167.78855896 122.45417786 -167.78855896 122.45417786 -167 120 C-165.22279358 118.79130554 -165.22279358 118.79130554 -162.87915039 117.96362305 C-162.00476822 117.64366867 -161.13038605 117.32371429 -160.22950745 116.99406433 C-159.27849655 116.66989029 -158.32748566 116.34571625 -157.34765625 116.01171875 C-155.89195473 115.48962578 -155.89195473 115.48962578 -154.40684509 114.95698547 C-151.29852971 113.84785091 -148.18089914 112.76791481 -145.0625 111.6875 C-142.96354931 110.94126034 -140.8652325 110.19323519 -138.76757812 109.44335938 C-134.93208968 108.08155827 -131.09582853 106.7224599 -127.25024414 105.3894043 C-126.4760463 105.12024704 -125.70184845 104.85108978 -124.90419006 104.57377625 C-123 104 -123 104 -121 104 C-120.80341192 102.58456585 -120.61812454 101.16755969 -120.4375 99.75 C-120.33308594 98.96109375 -120.22867188 98.1721875 -120.12109375 97.359375 C-119.88378892 95.06874566 -119.88378892 95.06874566 -120.47705078 93.18701172 C-121.08762559 90.63354339 -121.17856351 88.27279451 -121.24609375 85.6484375 C-121.27896484 84.63265625 -121.31183594 83.616875 -121.34570312 82.5703125 C-121.40712219 80.43240625 -121.46438444 78.29437672 -121.51757812 76.15625 C-121.55173828 75.14304687 -121.58589844 74.12984375 -121.62109375 73.0859375 C-121.6461499 72.1582959 -121.67120605 71.2306543 -121.69702148 70.27490234 C-121.79176649 67.8031886 -121.79176649 67.8031886 -124 66 C-131.05899033 65.22992833 -136.51754166 67.33075245 -143 70 C-141.44602044 53.29471977 -133.38990666 37.88973383 -123 25 C-122.33484375 24.16984375 -121.6696875 23.3396875 -120.984375 22.484375 C-108.08276536 7.28914586 -91.22579799 -3.03153535 -72 -8 C-70.62134766 -8.44666016 -70.62134766 -8.44666016 -69.21484375 -8.90234375 C-46.13388644 -15.64335012 -20.80641929 -11.07324687 0 0 Z " fill="#E3750D" transform="translate(309,164)"></path><path d="M0 0 C1.88468395 41.46304687 -14.2188329 80.19371818 -41.8125 110.625 C-67.84323012 138.58965631 -106.09512539 157.57656989 -144.4543457 159.14086914 C-161.31002678 159.57479499 -177.62508063 159.50761044 -194 155 C-194.83966309 154.7745752 -195.67932617 154.54915039 -196.54443359 154.31689453 C-222.11229609 147.22300463 -244.57567959 133.7945407 -263.53222656 115.42089844 C-264.92415721 114.07342067 -266.33273633 112.74320307 -267.7421875 111.4140625 C-271.6129876 107.69166368 -274.09592953 105.05757334 -276 100 C-270.25840315 97.82944735 -264.51098607 95.67540014 -258.75756836 93.53637695 C-256.80145572 92.80650354 -254.8470056 92.07215815 -252.89428711 91.33325195 C-250.08613016 90.27153586 -247.2723747 89.22607921 -244.45703125 88.18359375 C-243.15050346 87.68369179 -243.15050346 87.68369179 -241.81758118 87.1736908 C-234.15110213 84.36688461 -234.15110213 84.36688461 -230 86 C-227.66796875 87.75 -227.66796875 87.75 -225.1875 90 C-201.1063833 110.33157369 -170.34328583 116.17061144 -139.57080078 113.81396484 C-118.67405587 111.46122425 -97.55074385 100.81199926 -82 87 C-81.23300781 86.37609375 -80.46601563 85.7521875 -79.67578125 85.109375 C-65.04966689 72.95923462 -55.55481138 55.41916208 -49.5 37.625 C-49.26893555 36.94928955 -49.03787109 36.2735791 -48.79980469 35.57739258 C-46.78236743 29.18756568 -45.9115051 22.62368862 -45 16 C-38.75284795 13.71911999 -32.50479753 11.44071471 -26.25610352 9.1640625 C-24.12861482 8.38859686 -22.00133571 7.61255599 -19.87426758 6.8359375 C-16.82427457 5.72245926 -13.77354418 4.61102346 -10.72265625 3.5 C-9.76537125 3.15001953 -8.80808624 2.80003906 -7.8217926 2.43945312 C-6.50053627 1.95895508 -6.50053627 1.95895508 -5.15258789 1.46875 C-4.37315323 1.18451172 -3.59371857 0.90027344 -2.79066467 0.60742188 C-1 0 -1 0 0 0 Z " fill="#E07110" transform="translate(419,252)"></path><path d="M0 0 C16.35775862 13.70258621 16.35775862 13.70258621 22.5 21.6875 C22.5 22.3475 22.5 23.0075 22.5 23.6875 C17.20161685 25.95622054 11.8996538 28.21627947 6.59423828 30.46850586 C4.79115279 31.23535951 2.98905546 32.00454102 1.18798828 32.77612305 C-1.40594236 33.88688683 -4.00335013 34.98913922 -6.6015625 36.08984375 C-7.4017984 36.43466293 -8.2020343 36.77948212 -9.02651978 37.13475037 C-13.15643917 38.87428998 -16.97785157 40.35478101 -21.5 40.6875 C-23.59765625 39.31640625 -23.59765625 39.31640625 -25.5625 37.25 C-45.56935598 18.04743974 -74.32425454 11.05699943 -101.21875 11.5 C-107.45140802 11.67606379 -113.4088281 12.33913248 -119.5 13.6875 C-120.61503906 13.90921875 -121.73007813 14.1309375 -122.87890625 14.359375 C-139.16896336 18.08482495 -154.83919681 25.78567862 -167.5 36.6875 C-168.78197266 37.74710938 -168.78197266 37.74710938 -170.08984375 38.828125 C-188.49371029 54.59476567 -200.14630651 76.17049037 -205.5 99.6875 C-205.59469021 101.39435172 -205.66223956 103.1032104 -205.6875 104.8125 C-205.955625 106.09125 -206.22375 107.37 -206.5 108.6875 C-209.49585948 110.25991243 -212.3484316 111.48435618 -215.5 112.6875 C-216.70744873 113.15736328 -217.91489746 113.62722656 -219.15893555 114.11132812 C-222.62310217 115.45031536 -226.09742694 116.76069231 -229.57617188 118.0612793 C-231.76096986 118.87910631 -233.94302607 119.70396915 -236.125 120.52929688 C-237.5258821 121.05511282 -238.92691841 121.58051814 -240.328125 122.10546875 C-240.97404602 122.3502446 -241.61996704 122.59502045 -242.28546143 122.84721375 C-245.66581168 124.10405419 -248.93954925 125.09988158 -252.5 125.6875 C-254.58994791 85.35924592 -238.24191921 47.06242349 -211.8125 17.3125 C-210.38153173 15.7647687 -208.94466398 14.22245548 -207.5 12.6875 C-206.96375 12.09839844 -206.4275 11.50929687 -205.875 10.90234375 C-152.67712314 -45.35441102 -59.03773845 -47.11344947 0 0 Z " fill="#E77A0C" transform="translate(359.5,129.3125)"></path><path d="M0 0 C3.82042798 9.58326457 7.3097057 19.07240193 9.4375 29.1875 C9.60088867 29.95167236 9.76427734 30.71584473 9.93261719 31.50317383 C10.90119917 36.42320358 11.05279201 40.98607106 11 46 C5.19909319 48.14033196 -0.60333318 50.27647133 -6.40722656 52.40869141 C-8.38258831 53.13507072 -10.35752525 53.86260633 -12.33203125 54.59130859 C-15.16556439 55.63681405 -18.00058506 56.67819017 -20.8359375 57.71875 C-21.72243988 58.04685669 -22.60894226 58.37496338 -23.52230835 58.7130127 C-24.34300812 59.01332397 -25.16370789 59.31363525 -26.00927734 59.62304688 C-26.73319672 59.88952026 -27.45711609 60.15599365 -28.20297241 60.43054199 C-30 61 -30 61 -32 61 C-32.02578125 60.19820313 -32.0515625 59.39640625 -32.078125 58.5703125 C-32.75915019 44.91885302 -35.23628952 31.72891009 -41.046875 19.28515625 C-42 17 -42 17 -42 14 C-36.66452928 11.99786727 -31.32597183 10.00428559 -25.984375 8.01855469 C-24.16774567 7.34186026 -22.35198134 6.66283892 -20.53710938 5.98144531 C-17.9280236 5.0023245 -15.31593966 4.03161899 -12.703125 3.0625 C-11.89256653 2.75626709 -11.08200806 2.45003418 -10.24688721 2.13452148 C-9.48640076 1.85423096 -8.72591431 1.57394043 -7.94238281 1.28515625 C-7.27619934 1.03644775 -6.61001587 0.78773926 -5.92364502 0.53149414 C-4 0 -4 0 0 0 Z " fill="#EB7F0C" transform="translate(380,203)"></path><path d="M0 0 C0.268125 0.8971875 0.53625 1.794375 0.8125 2.71875 C4.94529458 15.87843799 10.36460465 28.1364213 18.75 39.1796875 C20 41 20 41 20 43 C14.54308531 45.02802834 9.08050776 47.03965357 3.61206055 49.03637695 C1.7529946 49.71778048 -0.10445111 50.40362164 -1.96020508 51.09399414 C-4.62947669 52.08613176 -7.30418708 53.06211274 -9.98046875 54.03515625 C-10.80773972 54.34655045 -11.63501068 54.65794464 -12.48735046 54.97877502 C-19.99273315 57.6750451 -19.99273315 57.6750451 -24 56 C-25.71461889 53.718972 -26.9982525 51.68683209 -28.3125 49.1875 C-28.88291016 48.13780029 -28.88291016 48.13780029 -29.46484375 47.06689453 C-34.88367278 36.80117415 -40.2875228 25.54267542 -42 14 C-36.66452928 11.99786727 -31.32597183 10.00428559 -25.984375 8.01855469 C-24.16774567 7.34186026 -22.35198134 6.66283892 -20.53710938 5.98144531 C-17.9280236 5.0023245 -15.31593966 4.03161899 -12.703125 3.0625 C-11.89256653 2.75626709 -11.08200806 2.45003418 -10.24688721 2.13452148 C-9.48640076 1.85423096 -8.72591431 1.57394043 -7.94238281 1.28515625 C-7.27619934 1.03644775 -6.61001587 0.78773926 -5.92364502 0.53149414 C-4 0 -4 0 0 0 Z " fill="#D96715" transform="translate(130,294)"></path><path d="M0 0 C2.64 4.62 5.28 9.24 8 14 C-5.53 18.95 -19.06 23.9 -33 29 C-37.3168024 24.6831976 -39.97442705 21.10025154 -43 16 C-35.52068089 12.09250005 -27.85954492 8.68406918 -20.07519531 5.44091797 C-18.10278459 4.61570557 -16.13754978 3.77470385 -14.171875 2.93359375 C-12.90926433 2.40526872 -11.64625751 1.87788918 -10.3828125 1.3515625 C-9.25246582 0.87541504 -8.12211914 0.39926758 -6.95751953 -0.09130859 C-4 -1 -4 -1 0 0 Z " fill="#F0860B" transform="translate(415,155)"></path><path d="M0 0 C0.495 7.425 0.495 7.425 1 15 C-4.81997151 17.13827368 -10.64070172 19.27446387 -16.4621582 21.40869141 C-18.44414142 22.13565169 -20.42591276 22.86318989 -22.4074707 23.59130859 C-25.24896168 24.63529553 -28.09119789 25.67722969 -30.93359375 26.71875 C-31.82525742 27.04685669 -32.71692108 27.37496338 -33.63560486 27.7130127 C-34.86676781 28.16347961 -34.86676781 28.16347961 -36.12280273 28.62304688 C-36.84894272 28.88952026 -37.5750827 29.15599365 -38.32322693 29.43054199 C-40 30 -40 30 -41 30 C-41.33951619 28.43883181 -41.67132544 26.87598662 -42 25.3125 C-42.185625 24.44238281 -42.37125 23.57226562 -42.5625 22.67578125 C-42.99035038 20.05901776 -43.0310028 17.64492638 -43 15 C-37.03765334 12.86156574 -31.07443634 10.72557275 -25.1105957 8.59130859 C-23.08011876 7.86433768 -21.04984485 7.13679944 -19.01977539 6.40869141 C-16.10876275 5.36473225 -13.19703594 4.32278788 -10.28515625 3.28125 C-9.3716188 2.95314331 -8.45808136 2.62503662 -7.51686096 2.2869873 C-6.67606491 1.98667603 -5.83526886 1.68636475 -4.96899414 1.37695312 C-4.22508926 1.11047974 -3.48118439 0.84400635 -2.71473694 0.56945801 C-1 0 -1 0 0 0 Z " fill="#DE7015" transform="translate(175,244)"></path></svg>