<svg version="1.1" xmlns="http://www.w3.org/2000/svg" width="16px" height="16px" fill="currentColor" viewBox="0 0 512 512"><path d="M0 0 C168.96 0 337.92 0 512 0 C512 168.96 512 337.92 512 512 C343.04 512 174.08 512 0 512 C0 343.04 0 174.08 0 0 Z " fill="#DF2E35" transform="translate(0,0)"></path><path d="M0 0 C1.77314074 1.5361895 3.52251147 3.10014697 5.25 4.6875 C5.73952148 5.13464355 6.22904297 5.58178711 6.73339844 6.04248047 C25.76489219 23.61976053 37.95712716 46.7263962 40.25 72.6875 C40.3859773 76.66262173 40.37658896 80.63421724 40.36352539 84.61132812 C40.36364593 85.80175468 40.36376646 86.99218124 40.36389065 88.21868134 C40.36314738 92.05205691 40.3555459 95.88538318 40.34765625 99.71875 C40.34618502 102.09342424 40.34516542 104.46809881 40.34460449 106.84277344 C40.33937265 115.62435392 40.32541139 124.40592745 40.3125 133.1875 C40.291875 152.8225 40.27125 172.4575 40.25 192.6875 C-35.65 192.6875 -111.55 192.6875 -189.75 192.6875 C-189.79125 173.3 -189.8325 153.9125 -189.875 133.9375 C-189.89320801 127.83411133 -189.91141602 121.73072266 -189.93017578 115.44238281 C-189.93920898 107.94287109 -189.93920898 107.94287109 -189.94088745 104.42303467 C-189.94394234 101.9843879 -189.95094248 99.54574401 -189.96115112 97.1071167 C-189.97589959 93.39590267 -189.97780833 89.68487198 -189.97705078 85.97363281 C-189.984247 84.90197498 -189.99144321 83.83031715 -189.9988575 82.72618484 C-189.97114024 72.50732324 -188.47580494 62.68335889 -185.1875 53 C-184.9306543 52.24307861 -184.67380859 51.48615723 -184.40917969 50.70629883 C-174.35777175 22.35956504 -153.75870346 -0.44769712 -126.78442383 -13.61499023 C-119.95683305 -16.80712128 -113.0108704 -19.26674783 -105.75 -21.3125 C-104.67621094 -21.6321875 -103.60242188 -21.951875 -102.49609375 -22.28125 C-68.13144239 -30.88236784 -27.71176866 -21.8382928 0 0 Z " fill="#D9272F" transform="translate(330.75,229.3125)"></path><path d="M0 0 C4.16192247 3.06941782 6.64215507 7.04713078 8.1875 11.90234375 C8.65811176 16.58259566 8.56647415 21.20470828 8.4375 25.90234375 C8.41945313 27.15402344 8.40140625 28.40570313 8.3828125 29.6953125 C8.33594512 32.76512617 8.2703431 35.83332549 8.1875 38.90234375 C8.80568604 38.94045166 9.42387207 38.97855957 10.06079102 39.01782227 C16.1586374 39.49491396 21.42445286 40.65388736 27.125 42.83984375 C28.33555054 43.29738037 28.33555054 43.29738037 29.57055664 43.76416016 C43.54778826 49.22522075 56.67608939 56.22874906 68.1875 65.90234375 C69.10660156 66.65902344 70.02570313 67.41570312 70.97265625 68.1953125 C82.62575765 78.24221989 91.14076402 90.32487991 98.1875 103.90234375 C98.89326172 105.25199219 98.89326172 105.25199219 99.61328125 106.62890625 C106.52918074 120.80328848 109.33378837 135.24948792 109.1875 150.90234375 C118.0975 150.90234375 127.0075 150.90234375 136.1875 150.90234375 C136.125625 153.54234375 136.06375 156.18234375 136 158.90234375 C136.13153822 163.48461785 136.31360994 166.81619956 139.24609375 170.4609375 C143.17780278 173.2057155 147.2072423 175.4798779 151.61303711 177.37866211 C155.83064241 179.68062716 158.84806656 181.6280066 161.1875 185.90234375 C163.2917234 195.01420242 162.4742658 204.65409237 162.08013916 213.93914795 C161.946129 217.43106685 161.88756851 220.92420924 161.82226562 224.41796875 C161.68364856 231.24910552 161.46238768 238.07536704 161.1875 244.90234375 C158.14985911 246.53495205 155.10671677 248.15703483 152.0625 249.77734375 C151.2065625 250.23753906 150.350625 250.69773437 149.46875 251.171875 C148.63085938 251.61660156 147.79296875 252.06132812 146.9296875 252.51953125 C146.1651123 252.92800293 145.40053711 253.33647461 144.61279297 253.75732422 C141.90200115 255.03713232 139.03138308 255.95438272 136.1875 256.90234375 C136.1875 264.16234375 136.1875 271.42234375 136.1875 278.90234375 C34.5475 278.90234375 -67.0925 278.90234375 -171.8125 278.90234375 C-172.3075 266.52734375 -172.3075 266.52734375 -172.8125 253.90234375 C-180.7325 251.26234375 -188.6525 248.62234375 -196.8125 245.90234375 C-196.8125 223.79234375 -196.8125 201.68234375 -196.8125 178.90234375 C-187.8125 174.40234375 -187.8125 174.40234375 -184.53125 173.19921875 C-183.90154297 172.96557617 -183.27183594 172.73193359 -182.62304688 172.49121094 C-181.47932617 172.07597168 -181.47932617 172.07597168 -180.3125 171.65234375 C-177.8375 170.74484375 -175.3625 169.83734375 -172.8125 168.90234375 C-172.4825 162.96234375 -172.1525 157.02234375 -171.8125 150.90234375 C-162.9025 150.90234375 -153.9925 150.90234375 -144.8125 150.90234375 C-144.8125 147.60234375 -144.8125 144.30234375 -144.8125 140.90234375 C-144.22882476 137.62892084 -143.59254581 134.53914536 -142.75 131.33984375 C-142.52666992 130.4785083 -142.30333984 129.61717285 -142.07324219 128.72973633 C-133.32264722 96.35551133 -112.66407305 69.65642403 -83.88671875 52.53125 C-76.10088373 48.08339554 -68.1167979 44.70986301 -59.625 41.83984375 C-58.73997803 41.54053955 -57.85495605 41.24123535 -56.94311523 40.93286133 C-52.36383082 39.46726221 -48.66497161 38.76657059 -43.8125 38.90234375 C-43.83344727 38.12632812 -43.85439453 37.3503125 -43.87597656 36.55078125 C-43.95962759 33.00143627 -44.01131629 29.4522994 -44.0625 25.90234375 C-44.09601563 24.68160156 -44.12953125 23.46085937 -44.1640625 22.203125 C-44.25416672 13.86848463 -43.55228454 8.53385307 -38.20703125 1.9140625 C-26.90108403 -7.54943406 -12.40753518 -7.51404609 0 0 Z M-48.8125 51.90234375 C-50.02035156 52.24265625 -51.22820312 52.58296875 -52.47265625 52.93359375 C-71.2974645 58.69589286 -86.506001 68.43450159 -100.8125 81.90234375 C-101.41578125 82.44117188 -102.0190625 82.98 -102.640625 83.53515625 C-119.54386892 99.25359336 -130.58289025 124.07503848 -132.8125 146.90234375 C-132.95187069 150.80885876 -132.93893201 154.71221841 -132.92602539 158.62084961 C-132.92614593 159.80124345 -132.92626646 160.98163729 -132.92639065 162.19780064 C-132.92564653 166.00428235 -132.91804111 169.81071459 -132.91015625 173.6171875 C-132.90868528 175.97302222 -132.90766552 178.32885727 -132.90710449 180.68469238 C-132.90186958 189.40308117 -132.88790833 198.12146295 -132.875 206.83984375 C-132.854375 226.33046875 -132.83375 245.82109375 -132.8125 265.90234375 C-56.9125 265.90234375 18.9875 265.90234375 97.1875 265.90234375 C97.249375 246.43234375 97.31125 226.96234375 97.375 206.90234375 C97.40231201 200.78316406 97.42962402 194.66398438 97.45776367 188.359375 C97.46780472 182.81384529 97.46780472 182.81384529 97.47383118 177.26831055 C97.47840006 174.82233029 97.48887153 172.37635625 97.50422668 169.93041992 C97.58565862 156.26077807 97.60408519 143.20627556 94.1875 129.90234375 C93.89767746 128.75741455 93.60785492 127.61248535 93.30924988 126.43286133 C86.60080302 101.31074928 68.49801652 78.99101406 46.1875 65.90234375 C18.04644321 49.85771911 -17.11618993 42.46574724 -48.8125 51.90234375 Z " fill="#FEFAFA" transform="translate(273.8125,156.09765625)"></path><path d="M0 0 C2.5905758 2.12151805 5.04819493 4.27918265 7.375 6.6875 C5.8154735 10.51542868 3.53868164 13.05109864 0.375 15.6875 C-3.29395049 15.41460286 -5.30147611 13.47814967 -8 11.125 C-18.0673414 2.87332281 -29.57283239 -2.57771987 -41.625 -7.3125 C-42.42421875 -7.63089844 -43.2234375 -7.94929688 -44.046875 -8.27734375 C-67.91874603 -17.03326725 -95.04617603 -12.7569127 -117.57519531 -2.41748047 C-125.52690382 1.37354378 -132.62248503 5.8325421 -139.41479492 11.45019531 C-144.57890517 15.6875 -144.57890517 15.6875 -147.625 15.6875 C-149.546875 14.25390625 -149.546875 14.25390625 -151.375 12.25 C-151.98859375 11.59128906 -152.6021875 10.93257812 -153.234375 10.25390625 C-153.69328125 9.73699219 -154.1521875 9.22007813 -154.625 8.6875 C-149.39845808 -4.27665985 -129.42645074 -12.37821488 -117.25 -17.78125 C-112.11123582 -19.95193487 -106.98925658 -21.78591315 -101.625 -23.3125 C-100.67753906 -23.6115625 -99.73007813 -23.910625 -98.75390625 -24.21875 C-64.31139789 -33.50661742 -27.27541864 -21.47547329 0 0 Z " fill="#FEF9F9" transform="translate(329.625,103.3125)"></path><path d="M0 0 C5.19538323 4.12994523 9.89088169 9.02970859 11.84765625 15.46875 C12.76115246 24.73421159 11.82616197 31.66470851 6.91015625 39.59375 C1.7307658 45.25530593 -6.17900576 48.77849172 -13.77734375 49.15625 C-21.62944879 48.64710774 -27.7788323 45.3167267 -33.08984375 39.59375 C-37.93478081 33.4575915 -39.73894071 28.03428104 -39.50390625 20.24609375 C-38.60921758 13.17805324 -35.12073215 7.4371384 -30.15234375 2.46875 C-21.72290843 -3.45463698 -9.20096448 -5.4697878 0 0 Z " fill="#FEF9FA" transform="translate(314.15234375,284.53125)"></path><path d="M0 0 C6.44575721 3.99636947 9.39354621 9.98675835 12 17 C13.37468921 24.05226742 11.48921441 31.28593406 7.5234375 37.203125 C2.71843896 43.12709581 -3.39621283 47.15996359 -11.05859375 48.30859375 C-18.777938 48.72688334 -24.64918629 46.31928541 -31 42 C-35.96194183 37.17216471 -38.59747725 31.77248067 -39.3359375 24.8515625 C-39.43780664 16.43717159 -38.80470443 10.98216266 -32.90625 4.80859375 C-23.39934098 -4.04867648 -11.87555148 -6.04194724 0 0 Z " fill="#FEFAFA" transform="translate(225,285)"></path><path d="M0 0 C6.82571833 3.77156809 10.65221624 8.58946123 13.1015625 15.9375 C14.08432824 23.58903325 12.62092144 29.65580731 8.1015625 35.9375 C1.48587115 42.28290046 -4.25119523 43.41312572 -13.3046875 43.34765625 C-20.14560352 42.56689953 -24.15701622 39.12543955 -28.3359375 33.875 C-28.8515625 32.905625 -29.3671875 31.93625 -29.8984375 30.9375 C-30.3109375 30.195 -30.7234375 29.4525 -31.1484375 28.6875 C-32.93813249 22.12528503 -32.69307627 15.79020326 -29.3046875 9.82421875 C-22.04766228 0.08770992 -11.86512963 -4.34948148 0 0 Z " fill="#FEFAFA" transform="translate(114.8984375,110.0625)"></path><path d="M0 0 C6.26050343 2.76485268 9.55624152 8.01582342 12.8828125 13.76171875 C14.44830551 20.33678938 14.30422166 26.55957437 10.90625 32.5 C7.00752314 37.76001418 2.06575338 42.182199 -4.4921875 43.38671875 C-10.6523245 44.00848959 -16.01295933 43.39068156 -21.4921875 40.38671875 C-27.07734926 35.69010545 -30.88569607 30.4032693 -31.765625 23.125 C-32.0469528 16.40559363 -30.72386734 11.67884342 -26.4921875 6.38671875 C-18.60561524 -0.79111757 -10.61026882 -2.61099092 0 0 Z " fill="#FEFAFB" transform="translate(159.4921875,167.61328125)"></path><path d="M0 0 C1.06025391 -0.020625 2.12050781 -0.04125 3.21289062 -0.0625 C19.9787814 -0.14423499 38.70125056 5.93615856 51.671875 16.80859375 C53.0625 18.1875 53.0625 18.1875 54.8125 20.25 C53.43061547 23.46043882 51.88828097 25.29936365 49.1875 27.5 C48.55585938 28.02078125 47.92421875 28.5415625 47.2734375 29.078125 C46.79132813 29.46484375 46.30921875 29.8515625 45.8125 30.25 C44.45125 28.950625 44.45125 28.950625 43.0625 27.625 C27.34435855 14.26930466 7.50572828 12.69720061 -12.1875 14.25 C-25.30954954 15.96296377 -37.00092712 22.02238345 -47.1875 30.25 C-49.8275 27.61 -52.4675 24.97 -55.1875 22.25 C-49.94197501 11.75895001 -36.75302968 7.00292846 -26.24609375 3.1796875 C-17.50218168 0.42969378 -9.11606652 0.04353942 0 0 Z " fill="#FEFAFA" transform="translate(256.1875,108.75)"></path><path d="M0 0 C4.29 0 8.58 0 13 0 C13 33.66 13 67.32 13 102 C8.71 102 4.42 102 0 102 C0 68.34 0 34.68 0 0 Z " fill="#DF2E34" transform="translate(384,320)"></path><path d="M0 0 C4.29 0 8.58 0 13 0 C13 33.66 13 67.32 13 102 C8.71 102 4.42 102 0 102 C0 68.34 0 34.68 0 0 Z " fill="#CE1E28" transform="translate(115,320)"></path><path d="M0 0 C3.77820973 1.91778975 6.38944871 4.49062453 8.2578125 8.30078125 C9.59060723 12.3926949 9.80654262 16.13836818 8.92578125 20.3515625 C6.58176826 24.89592317 3.79553675 28.50776015 -1.07421875 30.3515625 C-6.13314063 31.16821703 -11.01774552 31.52807148 -15.56640625 28.92578125 C-20.24569103 24.92353585 -22.88256115 21.72811669 -23.38671875 15.4765625 C-23.23924522 10.80078418 -22.01490595 7.26637387 -18.609375 3.90625 C-12.93296312 -0.95131518 -7.29949302 -2.28195074 0 0 Z " fill="#FEFAFA" transform="translate(106.07421875,250.6484375)"></path><path d="M0 0 C4.1610986 1.53303633 5.53935571 2.30903357 8 6 C8.22705078 8.36010742 8.22705078 8.36010742 8.1953125 11.10546875 C8.19031738 11.99129639 8.18532227 12.87712402 8.18017578 13.78979492 C8.15286377 15.47165894 8.15286377 15.47165894 8.125 17.1875 C8.063125 22.5396875 8.063125 22.5396875 8 28 C-0.58 28.33 -9.16 28.66 -18 29 C-18.103125 25.308125 -18.20625 21.61625 -18.3125 17.8125 C-18.35802002 16.6572583 -18.40354004 15.5020166 -18.45043945 14.31176758 C-18.55314243 6.73361304 -18.55314243 6.73361304 -15.60546875 2.82421875 C-10.53948604 -0.72272866 -6.06938831 -0.487948 0 0 Z " fill="#E3373D" transform="translate(261,164)"></path><path d="M0 0 C0 18.81 0 37.62 0 57 C-9 55 -9 55 -12 54 C-12 37.5 -12 21 -12 4 C-2 0 -2 0 0 0 Z " fill="#CC1A25" transform="translate(102,339)"></path><path d="M0 0 C3.465 1.98 3.465 1.98 7 4 C7.9593042 4.53141602 8.9186084 5.06283203 9.90698242 5.61035156 C13.25018428 9.42736541 12.61951225 13.3338894 12.48828125 18.234375 C12.47766914 19.72411835 12.47766914 19.72411835 12.46684265 21.24395752 C12.43887288 24.41340733 12.37612801 27.58108497 12.3125 30.75 C12.28742054 32.89971406 12.26460676 35.04945582 12.24414062 37.19921875 C12.1890374 42.46682776 12.10274538 47.73311352 12 53 C8.04 54.98 4.08 56.96 0 59 C0 39.53 0 20.06 0 0 Z " fill="#E13037" transform="translate(410,340)"></path><path d="M0 0 C3.17282395 1.66019858 5.37590133 3.75180266 7 7 C7.41654299 11.52589985 7.51073318 15.66641891 5.875 19.9375 C2.55114421 23.59374137 -0.64072341 24.83009043 -5.5 25.4375 C-10.66221232 24.79222346 -13.57751576 22.70698109 -16.875 18.75 C-18.38521493 15.0583635 -18.59064398 11.93496596 -18 8 C-14.3666069 -0.17513448 -8.30737875 -1.32053708 0 0 Z " fill="#DD3037" transform="translate(306,295)"></path><path d="M0 0 C4.20475482 1.6997945 6.20472472 3.8425204 8 8 C8.56872801 13.21334006 7.9156441 16.62653385 5 21 C1.7525341 23.86985359 -0.77097319 25.25126393 -5.0625 25.4375 C-10.11642263 24.87595304 -12.48338657 23.72580148 -15.8125 19.9375 C-17.56766891 15.59576638 -17.81046726 11.61229552 -17 7 C-13.01782873 -0.34489368 -7.63994158 -0.66277096 0 0 Z " fill="#D82931" transform="translate(216,295)"></path><path d="M0 0 C3.64751591 0.28057815 5.34775143 1.07331357 8.25 3.25 C10.75083894 7.00125841 10.46222497 8.77066893 9.84375 13.0859375 C9.25 15.25 9.25 15.25 7.1875 17.8125 C3.3911123 19.67030675 0.38781982 20.3428516 -3.75 19.25 C-7.31352884 16.20615245 -8.56458415 14.30687034 -9.375 9.6875 C-8.59686049 5.40773271 -7.04670019 3.98384894 -3.75 1.25 C-2.75 0.25 -2.75 0.25 0 0 Z " fill="#DC2F37" transform="translate(149.75,178.75)"></path><path d="M0 0 C2.99444659 0.25569278 5.09054573 0.97524798 7.5625 2.6875 C10.34588049 6.02755659 10.92945244 7.52999223 10.578125 11.75390625 C9.65503414 15.21549699 7.93631108 16.66971775 5.0625 18.6875 C1.12118098 19.81359115 -0.95584462 20.10197672 -4.75 18.5 C-8.00635871 15.80187421 -8.74373021 13.96084434 -9.375 9.8125 C-8.54648013 3.89450095 -5.8441921 1.02041449 0 0 Z " fill="#DC3037" transform="translate(104.9375,121.3125)"></path><path d="M0 0 C2.9838283 1.98921886 4.60276841 3.38502568 5.4765625 6.9375 C5.76063594 10.88462572 5.25361564 12.63878985 2.9375 15.9375 C-0.6336219 18.44488346 -2.63040496 19.15331912 -7 19 C-10.02727138 17.2730331 -12.41976665 15.16046671 -14 12 C-14.43023798 8.12785818 -14.31669086 6.47503629 -12.125 3.1875 C-8.56163286 -0.48067206 -4.95088036 -0.8141027 0 0 Z " fill="#FDF6F6" transform="translate(129,218)"></path><path d="M0 0 C3.94875513 2.45865885 5.66872408 3.98776803 7.125 8.4375 C6.97177911 12.80429526 5.76736304 14.67916436 3 18 C-0.23176757 19.61588379 -3.50615283 19.57451407 -7 19 C-9.97717008 17.01521994 -11.62826444 15.63168881 -12.44140625 12.0625 C-12.66684799 8.22271812 -12.23190202 6.36331317 -10.125 3.0625 C-6.78220282 -0.18197961 -4.62268262 -0.53338646 0 0 Z " fill="#FDF6F6" transform="translate(102,179)"></path><path d="M0 0 C3.66262449 0.81465246 5.13193418 2.40542239 7.16015625 5.48046875 C7.97945873 9.9866324 7.47426996 11.92317023 5.22265625 15.91796875 C1.61028057 18.94056881 -0.17656434 19.25360715 -4.75 18.94921875 C-7.74941508 18.27645275 -9.09176463 16.95691417 -10.83984375 14.48046875 C-12.40919969 11.34175687 -12.19185478 8.94191053 -11.83984375 5.48046875 C-8.64082959 0.63035051 -5.55413317 -0.34307667 0 0 Z " fill="#FDF6F7" transform="translate(152.83984375,134.51953125)"></path><path d="M0 0 C1.65 0 3.3 0 5 0 C5 1.65 5 3.3 5 5 C3.125 5.625 3.125 5.625 1 6 C0.34 5.34 -0.32 4.68 -1 4 C-0.625 1.875 -0.625 1.875 0 0 Z " fill="#D6323B" transform="translate(97,263)"></path><path d="M0 0 C1.32 0 2.64 0 4 0 C4.33 1.65 4.66 3.3 5 5 C3.35 5.33 1.7 5.66 0 6 C-0.38218767 4.34385343 -0.71395102 2.67542976 -1 1 C-0.67 0.67 -0.34 0.34 0 0 Z " fill="#DA343C" transform="translate(123,224)"></path><path d="M0 0 C1.65 0.33 3.3 0.66 5 1 C4.67 2.65 4.34 4.3 4 6 C2.35 5.67 0.7 5.34 -1 5 C-0.67 3.35 -0.34 1.7 0 0 Z " fill="#DA343C" transform="translate(97,186)"></path><path d="M0 0 C1.65 0.33 3.3 0.66 5 1 C4.67 2.65 4.34 4.3 4 6 C2.35 5.67 0.7 5.34 -1 5 C-0.67 3.35 -0.34 1.7 0 0 Z " fill="#E13E44" transform="translate(148,141)"></path></svg>