<svg version="1.1" xmlns="http://www.w3.org/2000/svg" width="16px" height="16px" fill="currentColor" viewBox="0 0 512 512"><path d="M0 0 C168.96 0 337.92 0 512 0 C512 168.96 512 337.92 512 512 C343.04 512 174.08 512 0 512 C0 343.04 0 174.08 0 0 Z " fill="#458B27" transform="translate(0,0)"></path><path d="M0 0 C1.21398972 -0.00708481 2.42797943 -0.01416962 3.67875671 -0.02146912 C5.02108802 -0.01917534 6.36341897 -0.01666564 7.70574951 -0.01396179 C9.12191537 -0.01830993 10.53807888 -0.02349341 11.95423889 -0.02944946 C15.79948437 -0.04284341 19.64463156 -0.04341744 23.48989582 -0.04088616 C26.70287992 -0.0398162 29.91584415 -0.04470075 33.128824 -0.04949158 C40.71291193 -0.06058925 48.29695035 -0.06102346 55.88104248 -0.05497742 C63.69495729 -0.04894365 71.50869177 -0.06123278 79.32257581 -0.08254749 C86.03781188 -0.10018922 92.7529907 -0.10616059 99.46824908 -0.10290974 C103.47590456 -0.10110001 107.48343155 -0.10370153 111.49106598 -0.11762428 C115.26352426 -0.13023907 119.03570277 -0.12822427 122.80815697 -0.11521339 C124.18837518 -0.11285555 125.5686133 -0.11555378 126.94880867 -0.12383652 C135.23067603 -0.16993012 142.31182695 -0.14021652 149.27508545 4.83882141 C149.80489014 5.39054016 150.33469482 5.94225891 150.8805542 6.51069641 C151.42324951 7.05210266 151.96594482 7.59350891 152.52508545 8.15132141 C157.35934892 14.76018793 157.48945139 20.76456172 157.40863037 28.70381165 C157.40906845 29.83624802 157.40950653 30.96868439 157.40995789 32.13543701 C157.40787457 35.86356588 157.38456424 39.59124023 157.36102295 43.31929016 C157.35542539 45.91003168 157.35115605 48.50077638 157.34815979 51.09152222 C157.33789139 57.20417057 157.314268 63.31663247 157.28411132 69.42921072 C157.25051132 76.39173276 157.23406728 83.35426277 157.21902502 90.31684577 C157.18771661 104.63154948 157.13499121 118.94611718 157.0680542 133.26069641 C157.89424255 133.05234508 158.72043091 132.84399374 159.57165527 132.62932873 C161.19554169 132.22125217 161.19554169 132.22125217 162.85223389 131.80493164 C164.46276642 131.39959214 164.46276642 131.39959214 166.10583496 130.98606396 C182.78058051 126.9028688 199.84864333 125.88287058 216.9430542 125.94819641 C218.06308838 125.95201828 218.06308838 125.95201828 219.20574951 125.95591736 C251.34933476 126.14511717 293.5792782 128.97883146 318.25164795 152.32710266 C322.63335505 156.99150055 323.24352163 160.68578479 323.17489624 166.78990173 C323.00347195 170.75420475 322.45565828 174.63362699 321.86102295 178.55366516 C321.67315468 179.84553993 321.67315468 179.84553993 321.48149109 181.16351318 C321.07861136 183.92595491 320.66711002 186.68703536 320.2555542 189.44819641 C319.97798414 191.34246033 319.70113042 193.23682935 319.42498779 195.13130188 C319.01623595 197.93487147 318.60706254 200.73837029 318.19543457 203.54151917 C317.15169456 210.65068228 316.15194426 217.76453667 315.1930542 224.88569641 C315.01359253 226.21443787 315.01359253 226.21443787 314.83050537 227.57002258 C314.57505336 229.46673901 314.3212856 231.36368223 314.0680542 233.26069641 C314.78090576 233.51721985 315.49375732 233.77374329 316.22821045 234.03804016 C324.72445443 237.69598289 332.15327688 243.78394068 336.0680542 252.26069641 C336.7555542 255.44819641 336.7555542 255.44819641 336.0680542 258.26069641 C333.50227481 261.96682219 331.3071549 264.66453765 327.0680542 266.26069641 C324.00946045 266.49116516 324.00946045 266.49116516 320.6305542 266.44819641 C319.51809326 266.4417511 318.40563232 266.43530579 317.25946045 266.42866516 C314.40992128 266.27868942 311.84974294 265.85257648 309.0680542 265.26069641 C309.01689453 266.02221008 308.96573486 266.78372375 308.9130249 267.5683136 C308.2918692 276.25271171 307.35335246 284.87480528 306.2555542 293.51069641 C306.16846191 294.19758545 306.08136963 294.88447449 305.99163818 295.59217834 C304.76722907 305.20123673 303.49742427 314.80482071 302.0680542 324.38569641 C301.85572144 325.91178528 301.85572144 325.91178528 301.63909912 327.46870422 C300.64081347 333.8747803 299.1239356 338.33355502 294.30633545 342.94819641 C272.92533567 357.52023683 243.63558647 358.40323912 218.74432373 358.42182922 C217.26757182 358.42647277 215.79082108 358.43149941 214.31407166 358.43687439 C210.34961433 358.44983688 206.38517378 358.45640908 202.42069864 358.46088505 C199.93772953 358.46383703 197.45476481 358.46794518 194.97179794 358.47238922 C187.18383946 358.4860101 179.39589127 358.49570785 171.60792172 358.49959111 C162.6502158 358.50408442 153.6926615 358.52171374 144.73500168 358.55059171 C137.78178255 358.57222396 130.82860611 358.58229591 123.87535369 358.58363223 C119.7336978 358.58467744 115.59218552 358.59052696 111.45056534 358.60845184 C107.56144276 358.62496355 103.67257149 358.62707317 99.78342628 358.61831284 C98.36126722 358.61754462 96.9390944 358.62185672 95.51696968 358.63177109 C84.65963572 358.70300023 77.05040315 357.830914 68.89227295 350.21772766 C63.95853388 344.92478704 62.07646068 340.29011911 60.0680542 333.26069641 C47.8580542 333.26069641 35.6480542 333.26069641 23.0680542 333.26069641 C23.0680542 341.51069641 23.0680542 349.76069641 23.0680542 358.26069641 C18.7780542 358.26069641 14.4880542 358.26069641 10.0680542 358.26069641 C10.0680542 349.68069641 10.0680542 341.10069641 10.0680542 332.26069641 C7.4486792 332.38444641 4.8293042 332.50819641 2.1305542 332.63569641 C-4.31845197 332.74217018 -9.01688402 332.33690949 -14.1975708 328.12007141 C-18.7586737 323.23024037 -22.05165157 318.08191448 -22.06896019 311.35173607 C-22.07403473 310.30766889 -22.07910928 309.26360171 -22.08433759 308.18789613 C-22.08483535 307.03189428 -22.08533311 305.87589244 -22.08584595 304.68486023 C-22.0902282 303.4637302 -22.09461046 302.24260017 -22.0991255 300.9844662 C-22.11020799 297.58394611 -22.1167435 294.18347215 -22.12130666 290.78294063 C-22.12725625 287.1195207 -22.13886781 283.4561178 -22.14959717 279.79270935 C-22.17413768 270.93915178 -22.18875163 262.08558857 -22.20165724 253.23200744 C-22.20536825 250.73177281 -22.20934157 248.23153873 -22.2134099 245.73130465 C-22.23864773 230.20937623 -22.26070366 214.68744696 -22.27313805 199.16550255 C-22.27606781 195.56881583 -22.27902946 191.97212915 -22.28204346 188.3754425 C-22.28278951 187.48148756 -22.28353556 186.58753261 -22.28430422 185.66648813 C-22.29695613 171.18694045 -22.33017575 156.70751562 -22.37184529 142.22802536 C-22.41426539 127.36599949 -22.43783325 112.5040365 -22.44305861 97.64195025 C-22.44647287 89.29594408 -22.45822953 80.9501298 -22.49116135 72.6041832 C-22.51916425 65.49564324 -22.53016026 58.3873345 -22.51896589 51.27874367 C-22.51377955 47.65232671 -22.51666336 44.02639391 -22.54143143 40.4000473 C-22.56807659 36.46597986 -22.55586224 32.53257206 -22.53994751 28.59843445 C-22.5538296 27.45581693 -22.56771168 26.31319941 -22.58201444 25.13595712 C-22.50084885 17.00005433 -20.5609468 12.16885134 -15.05303955 6.23725891 C-14.49745361 5.79124329 -13.94186768 5.34522766 -13.3694458 4.88569641 C-12.81128174 4.42421204 -12.25311768 3.96272766 -11.67803955 3.48725891 C-7.71371911 0.70247901 -4.87466712 0.00948354 0 0 Z " fill="#FAFCF9" transform="translate(98.93194580078125,76.73930358886719)"></path><path d="M0 0 C1.7916861 -0.01898094 1.7916861 -0.01898094 3.61956787 -0.03834534 C4.92154114 -0.02665314 6.2235144 -0.01496094 7.56494141 -0.00291443 C8.95657259 -0.00805519 10.34819726 -0.01533765 11.73980713 -0.02459717 C15.51269933 -0.04310012 19.28488419 -0.0301803 23.05774689 -0.01050687 C27.00855824 0.00589045 30.95932518 -0.00293476 34.91015625 -0.00802612 C41.5445484 -0.01254589 48.1786585 0.00331532 54.81298828 0.03126526 C62.47994916 0.06331683 70.14640137 0.06330117 77.81339836 0.04605049 C85.19298548 0.03017901 92.57238635 0.03692289 99.95196533 0.0539875 C103.09064703 0.06085475 106.22917931 0.05982896 109.36785889 0.05244255 C113.06494053 0.0447734 116.76144429 0.05692549 120.45842743 0.08429146 C122.46007491 0.09444758 124.46179183 0.08499929 126.46343994 0.07496643 C127.65789734 0.08769089 128.85235474 0.10041534 130.08300781 0.11352539 C131.63708847 0.11773577 131.63708847 0.11773577 133.2225647 0.12203121 C136.77372447 0.75966379 138.45886915 2.16024725 141.04150391 4.62818909 C142.26559494 7.07637116 142.16463971 8.64917468 142.16175842 11.38639832 C142.16382042 12.89244881 142.16382042 12.89244881 142.16592407 14.42892456 C142.1623288 15.53447189 142.15873352 16.64001923 142.1550293 17.77906799 C142.15517532 18.94003494 142.15532135 20.10100189 142.1554718 21.29714966 C142.15477293 25.14970238 142.14698172 29.00220727 142.13916016 32.85475159 C142.13729588 35.51990338 142.13582285 38.1850525 142.13487244 40.85020447 C142.13176136 47.15772994 142.12355097 53.46523813 142.11352295 59.77275598 C142.10235489 66.95283264 142.09684961 74.13291011 142.09182751 81.31299329 C142.08136818 96.08473407 142.06377304 110.85646128 142.04150391 125.62818909 C141.2376123 125.94997131 140.4337207 126.27175354 139.60546875 126.60328674 C138.00759521 127.25369934 138.00759521 127.25369934 136.37744141 127.91725159 C134.800354 128.55461243 134.800354 128.55461243 133.19140625 129.20484924 C125.12830166 132.8483076 117.09334396 138.52450898 113.04150391 146.62818909 C112.02217102 156.50402081 113.73287798 166.16112632 115.26025391 175.88551331 C116.96221319 186.79607696 118.37121208 197.7326456 119.72900391 208.69068909 C119.89135025 209.99184662 119.89135025 209.99184662 120.05697632 211.31929016 C121.14939085 220.08040283 122.22261858 228.83642025 123.04150391 237.62818909 C122.07470703 237.71455627 121.10791016 237.80092346 120.11181641 237.88990784 C106.72242102 239.33490199 97.27150715 243.33140155 88.04150391 253.62818909 C83.12931769 260.69229421 78.81592096 267.83045432 79.04150391 276.62818909 C78.83447266 279.24147034 78.83447266 279.24147034 78.04150391 281.62818909 C75.70627288 283.57641384 73.32711489 284.82936407 70.61962891 286.20631409 C64.47920217 289.59285247 61.2894397 295.12100654 59.04150391 301.62818909 C58.68498906 303.62418715 58.34791188 305.6238874 58.04150391 307.62818909 C50.0613921 307.72103862 42.08150754 307.79202908 34.10098839 307.83543777 C30.39493041 307.85627624 26.68924311 307.88452411 22.98339844 307.9299469 C19.40424604 307.97354021 15.82544926 307.99735432 12.24605179 308.00769806 C10.88332143 308.01506544 9.52060964 308.02945246 8.15803146 308.05110931 C-5.16139584 308.25430998 -5.16139584 308.25430998 -9.95849609 303.62818909 C-11.19272644 301.1597284 -11.08832422 299.53512801 -11.09551048 296.77331829 C-11.10058503 295.7413346 -11.10565957 294.7093509 -11.11088789 293.64609498 C-11.11138564 292.50361056 -11.1118834 291.36112615 -11.11239624 290.184021 C-11.11677849 288.97710848 -11.12116075 287.77019596 -11.1256758 286.52671033 C-11.13675785 283.16600456 -11.14329363 279.80534546 -11.14785695 276.44462812 C-11.15380658 272.82421064 -11.16541794 269.20381041 -11.17614746 265.58340454 C-11.20068498 256.8351662 -11.21529998 248.08692214 -11.22820753 239.33865997 C-11.23191828 236.86884896 -11.2358916 234.39903851 -11.23996019 231.92922807 C-11.26519399 216.60021254 -11.2872525 201.27119614 -11.29968834 185.94216442 C-11.30261815 182.39048446 -11.3055798 178.83880453 -11.30859375 175.28712463 C-11.3093398 174.40434522 -11.31008585 173.5215658 -11.31085451 172.61203549 C-11.32351363 158.30505669 -11.35674345 143.99820202 -11.39839558 129.69128128 C-11.44078471 115.01120188 -11.46437981 100.33118608 -11.4696089 85.65104562 C-11.47302632 77.4051797 -11.48482026 69.15950779 -11.51771164 60.91370201 C-11.5456718 53.89254433 -11.55672932 46.87162042 -11.54551618 39.85041138 C-11.54031918 36.26689469 -11.54328268 32.68386786 -11.56798172 29.10042191 C-11.5945196 25.21784996 -11.5824492 21.33595072 -11.5664978 17.45330811 C-11.58732093 15.74961973 -11.58732093 15.74961973 -11.60856473 14.01151341 C-11.53194443 6.47549683 -11.53194443 6.47549683 -8.79290199 2.42838097 C-5.54238125 0.36390564 -3.82669071 0.00216555 0 0 Z " fill="#3E8523" transform="translate(100.95849609375,89.37181091308594)"></path><path d="M0 0 C2.73040951 0.88553822 5.44516742 1.7770395 8.109375 2.84765625 C32.63513541 12.49393463 59.31892851 14.5297617 85.41088867 14.33618164 C88.82820011 14.3123907 92.24473468 14.31568109 95.66210938 14.32226562 C112.64277223 14.30153987 129.29654288 13.37947614 145.9375 9.8125 C146.9275 9.60471924 147.9175 9.39693848 148.9375 9.18286133 C158.93151137 6.97712686 168.4580552 3.66267129 178 0 C177.47674471 11.32727696 176.247336 22.41563294 174.5625 33.625 C174.34248999 35.11970216 174.12308778 36.61449391 173.90429688 38.109375 C173.47848044 41.01380837 173.04946061 43.91773725 172.61767578 46.82128906 C171.71919838 52.87714323 170.85895444 58.93842554 170 65 C162.2461245 63.06247672 154.89846871 60.57487069 147.5 57.5625 C146.43845703 57.13437012 145.37691406 56.70624023 144.28320312 56.26513672 C132.6910859 51.54336217 121.26151082 46.45514224 109.86401367 41.28369141 C108.01332455 40.45418639 106.15444811 39.64260884 104.28637695 38.85302734 C103.47644287 38.50965332 102.66650879 38.1662793 101.83203125 37.8125 C101.13053955 37.52246094 100.42904785 37.23242188 99.70629883 36.93359375 C97.17060229 35.54619876 96.26413179 33.52826358 95 31 C91.79967764 28.68252519 88.87521392 28.51559826 85 29 C81.76937692 31.18285343 81.09232861 32.66146175 80.0625 36.4375 C79.99301392 40.39820668 80.56633434 41.93538398 83 45 C85.22038125 46.11019063 86.64365627 46.1678833 89.10546875 46.32421875 C94.1204171 46.84679655 97.87435938 48.51382401 102.3125 50.8125 C123.62587574 61.33383075 145.63998813 70.0027802 168 78 C166.67371596 92.2943947 164.74286416 106.52860942 162.90724182 120.7646637 C162.30518024 125.46988281 161.7582834 130.17419489 161.28515625 134.89453125 C161.18058105 135.82023926 161.07600586 136.74594727 160.96826172 137.69970703 C160.78877141 139.29014727 160.63543701 140.88389815 160.51611328 142.47998047 C160.15600263 145.40026361 159.57081845 147.47638566 157.37329102 149.4921875 C146.01418659 157.00525257 131.23450944 159.0568379 118 161 C116.7315625 161.18949219 115.463125 161.37898437 114.15625 161.57421875 C109.27535781 162.16761489 104.40965505 162.10888482 99.5 162.0625 C98.5821875 162.05798828 97.664375 162.05347656 96.71875 162.04882812 C94.47909609 162.03716326 92.23958455 162.02079614 90 162 C91.85239852 156.31049025 91.85239852 156.31049025 93.09375 153.69921875 C95.5912011 146.26068982 95.34001841 136.20347981 92.97265625 128.77734375 C88.4974252 120.7566388 81.63899857 115.9164948 73.1875 112.75 C69.8629239 111.35938784 68.37534596 110.72147337 66.6953125 107.4921875 C66.10662155 105.58024434 65.54662053 103.65923193 65.015625 101.73046875 C63.04204306 96.42456962 58.57787211 93.27197637 53.625 90.828125 C50.6005567 89.87398515 48.1040604 89.76846439 44.9375 89.8125 C43.91527344 89.81894531 42.89304687 89.82539063 41.83984375 89.83203125 C39.39927201 89.97638419 37.33160404 90.30107793 35 91 C34.59910156 90.443125 34.19820313 89.88625 33.78515625 89.3125 C26.55843863 79.54388121 26.55843863 79.54388121 16.56030273 73.03662109 C9.61875645 70.2399819 9.61875645 70.2399819 7.89868164 66.79296875 C7.25763887 63.89424582 6.93463601 61.08379262 6.6875 58.125 C6.55762695 57.02397949 6.42775391 55.92295898 6.29394531 54.78857422 C6.00109931 52.29464898 5.72712939 49.79846206 5.46826172 47.30078125 C4.95566649 42.43846566 4.30908023 37.59571039 3.66015625 32.75 C2.73997458 25.83814522 1.82672301 18.92573217 0.953125 12.0078125 C0.85649063 11.25781982 0.75985626 10.50782715 0.66029358 9.73510742 C0.24842074 6.44753001 0 3.32104353 0 0 Z " fill="#438A27" transform="translate(228,260)"></path><path d="M0 0 C5.87099327 4.98064744 9.70044452 10.32961611 13.2890625 17.08203125 C14.69038446 19.80573472 14.69038446 19.80573472 16.2890625 22.08203125 C19.20225164 22.91603 19.20225164 22.91603 22.2890625 22.08203125 C23.43375 20.84453125 23.43375 20.84453125 24.6015625 19.58203125 C27.45360108 16.9289721 28.09281309 16.62058287 31.7890625 16.39453125 C35.3895055 16.63376334 36.21667041 17.02380283 39.1640625 19.39453125 C41.25875659 22.34261922 41.85285202 25.26314799 42.6015625 28.76953125 C43.40873169 32.60110918 43.40873169 32.60110918 45.96875 35.31640625 C48.05638578 36.04748493 50.13976246 36.56296952 52.2890625 37.08203125 C58.70376308 39.75582233 64.12174243 42.97553915 68.1640625 48.76953125 C70.20126787 54.76796928 70.2997941 60.5606316 67.6640625 66.39453125 C64.54496232 71.85020118 60.2486873 75.06598642 54.2890625 77.08203125 C51.91020298 77.34209347 51.91020298 77.34209347 49.40028381 77.35618591 C47.96415993 77.37114861 47.96415993 77.37114861 46.49902344 77.38641357 C45.46044189 77.38707825 44.42186035 77.38774292 43.35180664 77.38842773 C42.24880722 77.39675125 41.1458078 77.40507477 40.00938416 77.41365051 C36.3642931 77.43774071 32.71938096 77.44652075 29.07421875 77.453125 C26.53982998 77.46209073 24.00544175 77.47121256 21.47105408 77.48048401 C16.15915305 77.49697298 10.84731904 77.5047072 5.53540039 77.50756836 C-0.59676412 77.51120497 -6.72842855 77.54111514 -12.86044019 77.58297294 C-18.7695044 77.62188884 -24.67841869 77.63316165 -30.58761787 77.63429451 C-33.09745563 77.63850265 -35.60729359 77.65096051 -38.11704826 77.67181206 C-41.62657205 77.69865337 -45.13471325 77.69392171 -48.64428711 77.68139648 C-49.68084442 77.69623077 -50.71740173 77.71106506 -51.78536987 77.72634888 C-56.37639308 77.67966752 -59.66206738 77.63383646 -63.31349182 74.66200256 C-69.38294775 68.13045846 -71.14063835 61.68502244 -71.05859375 52.90625 C-70.3702081 47.31408342 -67.34118317 43.71227692 -63.4609375 39.83203125 C-60.30077038 37.82101581 -57.07319436 36.40267059 -53.6015625 35.01171875 C-51.53354065 34.23164878 -51.53354065 34.23164878 -50.7109375 32.08203125 C-50.58022554 30.08359059 -50.48102624 28.08303844 -50.3984375 26.08203125 C-49.58816319 15.26248605 -46.00449174 7.26977826 -37.7109375 0.08203125 C-25.63206429 -7.62123797 -11.9978188 -8.48837036 0 0 Z " fill="#377F1F" transform="translate(241.7109375,344.91796875)"></path><path d="M0 0 C1.69140625 1.94921875 1.69140625 1.94921875 1.87890625 4.38671875 C-0.59025195 9.71490223 -6.18107117 12.06284459 -11.43359375 14.046875 C-13.38592249 14.71951065 -15.34469348 15.37365766 -17.30859375 16.01171875 C-18.35370117 16.35533447 -19.39880859 16.6989502 -20.47558594 17.05297852 C-41.63193314 23.74169765 -62.99411454 25.13626615 -85.03100586 25.13452148 C-88.07615602 25.1366868 -91.12093024 25.15483488 -94.16601562 25.17382812 C-121.34038478 25.25279544 -157.33783919 25.10236753 -180.04296875 7.61328125 C-181.30859375 5.94921875 -181.30859375 5.94921875 -181.68359375 3.44140625 C-181.30859375 0.94921875 -181.30859375 0.94921875 -180.12109375 -0.60546875 C-139.83801212 -29.94961011 -38.38347883 -34.09699896 0 0 Z " fill="#4A902B" transform="translate(407.30859375,237.05078125)"></path><path d="M0 0 C32.01 0 64.02 0 97 0 C97 4.29 97 8.58 97 13 C64.99 13 32.98 13 0 13 C0 8.71 0 4.42 0 0 Z " fill="#F7FAF6" transform="translate(121,198)"></path><path d="M0 0 C31.35 0 62.7 0 95 0 C95 3.96 95 7.92 95 12 C63.65 12 32.3 12 0 12 C0 8.04 0 4.08 0 0 Z " fill="#FFFFFF" transform="translate(122,154)"></path><path d="M0 0 C23.1 0 46.2 0 70 0 C70 4.29 70 8.58 70 13 C46.9 13 23.8 13 0 13 C0 8.71 0 4.42 0 0 Z " fill="#FCFDFB" transform="translate(122,243)"></path><path d="M0 0 C1.5027237 0.97498145 3.00211963 1.95509389 4.5 2.9375 C5.3353125 3.48277344 6.170625 4.02804687 7.03125 4.58984375 C8.00578125 5.28787109 8.00578125 5.28787109 9 6 C9 6.33 9 6.66 9 7 C2.375 7.125 2.375 7.125 -1 6 C-1.042721 4.33388095 -1.04063832 2.66617115 -1 1 C-0.67 0.67 -0.34 0.34 0 0 Z " fill="#68A24E" transform="translate(411,323)"></path></svg>