<svg version="1.1" xmlns="http://www.w3.org/2000/svg" width="16px" height="16px" fill="currentColor" viewBox="0 0 512 512"><path d="M0 0 C168.96 0 337.92 0 512 0 C512 168.96 512 337.92 512 512 C343.04 512 174.08 512 0 512 C0 343.04 0 174.08 0 0 Z " fill="#DE2D34" transform="translate(0,0)"></path><path d="M0 0 C9.71319146 6.76877454 17.28857045 15.66667252 20.4375 27.25 C20.6993636 30.43806648 20.67092604 33.60772384 20.6328125 36.8046875 C20.6299826 37.70623566 20.62715271 38.60778381 20.62423706 39.53665161 C20.61309439 42.39957276 20.5880008 45.26217434 20.5625 48.125 C20.55246255 50.07291213 20.54333804 52.02082919 20.53515625 53.96875 C20.51317443 58.7292887 20.4786855 63.48959027 20.4375 68.25 C21.64148438 68.22679687 22.84546875 68.20359375 24.0859375 68.1796875 C25.66145215 68.16093137 27.23697348 68.14273101 28.8125 68.125 C29.6065625 68.10824219 30.400625 68.09148437 31.21875 68.07421875 C33.29242015 68.05664527 35.36633241 68.14664832 37.4375 68.25 C39.82546037 70.63796037 39.68934732 71.13119908 39.69819641 74.38059998 C39.70528122 75.24567169 39.71236603 76.11074341 39.71966553 77.00202942 C39.71718811 77.9532518 39.71471069 78.90447418 39.7121582 79.88452148 C39.71726913 80.88461243 39.72238007 81.88470337 39.72764587 82.9151001 C39.74159016 86.23382487 39.74058146 89.5523431 39.73828125 92.87109375 C39.74216553 95.17033466 39.74649964 97.46957484 39.75126648 99.76881409 C39.75873912 104.59337691 39.75842986 109.41786657 39.75317383 114.24243164 C39.747378 120.43461494 39.7643081 126.62649924 39.7875185 132.81863308 C39.80222808 137.56860616 39.80313132 142.31850679 39.80000877 147.06849861 C39.80052339 149.3519252 39.80578725 151.6353557 39.81582069 153.9187603 C39.82811385 157.10806759 39.82143609 160.29678659 39.80981445 163.48608398 C39.81745819 164.43528214 39.82510193 165.38448029 39.83297729 166.36244202 C39.82596298 167.23033356 39.81894867 168.0982251 39.8117218 168.99241638 C39.81188954 169.74661078 39.81205729 170.50080519 39.81223011 171.27785397 C39.31548012 173.89217158 38.62164422 174.73719372 36.4375 176.25 C33.98400879 176.62752342 33.98400879 176.62752342 31.00976562 176.63095093 C29.31883789 176.64364014 29.31883789 176.64364014 27.59375 176.65658569 C25.7375 176.64747665 25.7375 176.64747665 23.84375 176.63818359 C21.88985352 176.64606903 21.88985352 176.64606903 19.89648438 176.65411377 C16.32210947 176.66780351 12.74799401 176.66248204 9.1736145 176.65297651 C5.43539727 176.64538843 1.69720246 176.65242315 -2.04101562 176.65713501 C-8.31905105 176.66259506 -14.59698064 176.65539446 -20.875 176.64111328 C-28.13630911 176.62478622 -35.39736553 176.63007455 -42.65866852 176.6465925 C-48.88974421 176.66020031 -55.12074378 176.6621305 -61.35182953 176.65427649 C-65.07484581 176.64959606 -68.79774327 176.64898517 -72.52075195 176.65888596 C-76.67023722 176.66914981 -80.81928591 176.65492979 -84.96875 176.63818359 C-86.20625 176.64425629 -87.44375 176.65032898 -88.71875 176.65658569 C-89.84603516 176.64812622 -90.97332031 176.63966675 -92.13476562 176.63095093 C-93.11626587 176.62981985 -94.09776611 176.62868877 -95.10900879 176.62752342 C-97.5625 176.25 -97.5625 176.25 -99.37834454 174.99228954 C-100.84989551 172.82714488 -100.9373017 171.59975485 -100.9367218 168.99241638 C-100.94373611 168.12452484 -100.95075043 167.2566333 -100.95797729 166.36244202 C-100.95033356 165.41324387 -100.94268982 164.46404572 -100.93481445 163.48608398 C-100.93846512 162.48424072 -100.94211578 161.48239746 -100.94587708 160.45019531 C-100.95399652 157.13199012 -100.94036156 153.81427107 -100.92578125 150.49609375 C-100.92526285 148.19588725 -100.92577976 145.8956803 -100.92729187 143.59547424 C-100.92720209 138.77264806 -100.91675924 133.94998883 -100.89868164 129.12719727 C-100.87598166 122.93386808 -100.87545205 116.74078271 -100.88219929 110.54742336 C-100.88553457 105.79748859 -100.87891771 101.04760979 -100.86907005 96.29768562 C-100.86521111 94.01344152 -100.8640727 91.7291912 -100.8656559 89.44494438 C-100.8660252 86.2580152 -100.85344466 83.0714032 -100.8371582 79.88452148 C-100.83963562 78.9332991 -100.84211304 77.98207672 -100.84466553 77.00202942 C-100.83758072 76.1369577 -100.83049591 75.27188599 -100.82319641 74.38059998 C-100.82114354 73.6267826 -100.81909067 72.87296522 -100.81697559 72.09630489 C-100.5625 70.25 -100.5625 70.25 -98.5625 68.25 C-95.6531442 68.10482256 -92.842554 68.06369204 -89.9375 68.125 C-89.13570312 68.13402344 -88.33390625 68.14304687 -87.5078125 68.15234375 C-85.52591477 68.17593777 -83.54417019 68.21180935 -81.5625 68.25 C-81.57821045 67.12094238 -81.5939209 65.99188477 -81.61010742 64.82861328 C-81.66483425 60.59805572 -81.69900402 56.3675288 -81.72729492 52.13671875 C-81.74228489 50.31342285 -81.76268384 48.4901624 -81.78881836 46.66699219 C-82.03170693 29.27426561 -80.04785004 18.09447191 -67.75 5 C-49.10570457 -12.74965553 -21.22788145 -13.42244051 0 0 Z " fill="#FEFCFC" transform="translate(286.5625,162.75)"></path><path d="M0 0 C38.28 0 76.56 0 116 0 C116 6.6 116 13.2 116 20 C109.73 20 103.46 20 97 20 C97 23.96 97 27.92 97 32 C103.27 32 109.54 32 116 32 C116 38.6 116 45.2 116 52 C109.73 52 103.46 52 97 52 C97 55.96 97 59.92 97 64 C103.27 64 109.54 64 116 64 C116 70.6 116 77.2 116 84 C77.72 84 39.44 84 0 84 C0 56.28 0 28.56 0 0 Z " fill="#DC3037" transform="translate(198,243)"></path><path d="M0 0 C8.6303686 4.32128781 16.2959525 11.20242939 20.375 20.0625 C23.69063931 33.32505725 21.375 47.3917689 21.375 61.0625 C-3.705 61.0625 -28.785 61.0625 -54.625 61.0625 C-54.625 19.02741228 -54.625 19.02741228 -46.0625 8.8125 C-34.16966711 -2.37674927 -15.28801683 -5.8154417 0 0 Z " fill="#E13137" transform="translate(272.625,168.9375)"></path><path d="M0 0 C2.57047972 0.97568795 3.18025543 1.94899545 4.59228516 4.28271484 C5.04015381 5.01482178 5.48802246 5.74692871 5.94946289 6.5012207 C6.41296143 7.29278564 6.87645996 8.08435059 7.35400391 8.89990234 C7.83748291 9.71015869 8.32096191 10.52041504 8.8190918 11.35522461 C13.08281434 18.61542227 16.76599259 26.02376124 20.04150391 33.77490234 C20.41662109 34.64501953 20.79173828 35.51513672 21.17822266 36.41162109 C27.65720337 52.72431166 31.04150391 71.27419453 31.04150391 88.77490234 C35.99150391 88.77490234 40.94150391 88.77490234 46.04150391 88.77490234 C46.04150391 92.73490234 46.04150391 96.69490234 46.04150391 100.77490234 C41.09150391 100.77490234 36.14150391 100.77490234 31.04150391 100.77490234 C31.09371094 102.38365234 31.09371094 102.38365234 31.14697266 104.02490234 C31.13009116 119.39382077 27.34941085 135.41872128 22.04150391 149.77490234 C21.38021484 151.60988281 21.38021484 151.60988281 20.70556641 153.48193359 C15.73358193 166.59863296 9.30148839 179.40527664 1.04150391 190.77490234 C-3.55016109 189.10093929 -6.33046192 186.98107208 -9.95849609 183.77490234 C-9.62978516 183.17806641 -9.30107422 182.58123047 -8.96240234 181.96630859 C-7.61922234 179.5165521 -6.28285557 177.06322205 -4.95166016 174.60693359 C-4.2595396 173.33021957 -3.56607668 172.05423273 -2.87158203 170.77880859 C4.54844235 157.12138583 10.41157879 143.95305434 14.04150391 128.77490234 C14.24646484 127.93572266 14.45142578 127.09654297 14.66259766 126.23193359 C16.51826427 117.87424133 17.17069468 109.27918821 18.04150391 100.77490234 C12.76150391 100.77490234 7.48150391 100.77490234 2.04150391 100.77490234 C2.04150391 96.81490234 2.04150391 92.85490234 2.04150391 88.77490234 C7.32150391 88.77490234 12.60150391 88.77490234 18.04150391 88.77490234 C15.61255386 61.61482461 9.00287384 33.08175609 -7.82958984 10.90380859 C-8.53212891 9.87126953 -9.23466797 8.83873047 -9.95849609 7.77490234 C-8.87750133 4.53191805 -8.30222993 3.95877709 -5.64599609 2.02490234 C-5.05173828 1.57630859 -4.45748047 1.12771484 -3.84521484 0.66552734 C-1.95849609 -0.22509766 -1.95849609 -0.22509766 0 0 Z " fill="#FEFBFB" transform="translate(388.95849609375,161.22509765625)"></path><path d="M0 0 C3.14364834 0.71160767 5.15995402 1.61996552 7.75 3.5625 C8.67039062 4.24505859 8.67039062 4.24505859 9.609375 4.94140625 C10.29773438 5.46541016 10.29773438 5.46541016 11 6 C9.57082242 9.9555016 7.66439603 13.2292555 5.375 16.75 C-7.09887924 36.63651782 -13.20274355 57.82419336 -16 81 C-16.19092111 82.52610244 -16.38229932 84.05214779 -16.57421875 85.578125 C-16.71472656 86.70734375 -16.85523437 87.8365625 -17 89 C-11.72 89 -6.44 89 -1 89 C-1 92.96 -1 96.92 -1 101 C-6.28 101 -11.56 101 -17 101 C-13.53606442 131.02077503 -6.10472393 157.7705322 11 183 C5.35475578 188.80205656 5.35475578 188.80205656 2 191 C1.34 191 0.68 191 0 191 C-1.10986328 189.61743164 -1.10986328 189.61743164 -2.3203125 187.66015625 C-2.99380737 186.57359741 -2.99380737 186.57359741 -3.6809082 185.46508789 C-4.39573364 184.27580688 -4.39573364 184.27580688 -5.125 183.0625 C-5.61637451 182.2470874 -6.10774902 181.4316748 -6.61401367 180.59155273 C-21.08732855 156.17711391 -29.32854276 129.40264116 -30 101 C-34.95 101 -39.9 101 -45 101 C-45 97.04 -45 93.08 -45 89 C-40.05 89 -35.1 89 -30 89 C-30.03480469 87.75347656 -30.06960937 86.50695312 -30.10546875 85.22265625 C-30.09990076 79.52214949 -29.26903317 74.04697678 -28.3125 68.4375 C-28.04240112 66.85086548 -28.04240112 66.85086548 -27.7668457 65.23217773 C-26.21451723 56.51699057 -24.10531606 48.29421264 -21 40 C-20.74879395 39.31921387 -20.49758789 38.63842773 -20.23876953 37.93701172 C-15.14741153 24.3465466 -8.58235687 11.71416429 0 0 Z " fill="#FEFBFB" transform="translate(122,161)"></path><path d="M0 0 C1.16705892 0.64512424 2.33359688 1.29119081 3.5 1.9375 C4.32242188 2.39125 5.14484375 2.845 5.9921875 3.3125 C8.22045265 4.56264357 10.4294047 5.83251742 12.6328125 7.125 C34.3323239 19.76166306 57.94502372 26.43406398 83 28 C83 22.72 83 17.44 83 12 C86.96 12 90.92 12 95 12 C95 17.28 95 22.56 95 28 C122.66580248 25.26934937 147.14151498 18.35653255 171 4 C173.32734473 2.65586819 175.663046 1.32741342 178 0 C179.17249353 1.45365269 180.33783816 2.91307419 181.5 4.375 C182.1496875 5.18710937 182.799375 5.99921875 183.46875 6.8359375 C185 9 185 9 185 11 C183.61743164 12.10986328 183.61743164 12.10986328 181.66015625 13.3203125 C180.93562256 13.76930908 180.21108887 14.21830566 179.46459961 14.6809082 C178.2755603 15.39573364 178.2755603 15.39573364 177.0625 16.125 C176.2485376 16.61637451 175.4345752 17.10774902 174.59594727 17.61401367 C150.50795665 31.91312922 123.2805595 41.44188374 95 41 C95 45.95 95 50.9 95 56 C91.04 56 87.08 56 83 56 C83 51.05 83 46.1 83 41 C81.535625 41.061875 80.07125 41.12375 78.5625 41.1875 C48.42027092 41.14885612 17.32944568 27.85958866 -7 11 C-5.64247374 8.22438868 -4.19952413 5.74671723 -2.375 3.25 C-1.92898437 2.63640625 -1.48296875 2.0228125 -1.0234375 1.390625 C-0.68570313 0.93171875 -0.34796875 0.4728125 0 0 Z " fill="#FEFBFB" transform="translate(167,379)"></path><path d="M0 0 C3.96 0 7.92 0 12 0 C12 5.28 12 10.56 12 16 C14.6296875 15.9071875 14.6296875 15.9071875 17.3125 15.8125 C41.47569666 15.96822415 66.21619933 23.82767905 87 36 C87.66435059 36.38752441 88.32870117 36.77504883 89.01318359 37.17431641 C91.02363043 38.36458095 93.01550365 39.57951253 95 40.8125 C95.60690674 41.18568359 96.21381348 41.55886719 96.83911133 41.94335938 C98.5 43.01953125 98.5 43.01953125 101 45 C101 48.60573896 100.18292538 49.41336566 98 52.1875 C97.443125 52.90292969 96.88625 53.61835938 96.3125 54.35546875 C95.879375 54.89816406 95.44625 55.44085938 95 56 C91.17455971 54.65851612 87.94988735 52.80500141 84.53344727 50.67456055 C62.08525756 36.75589849 37.99250451 30.83932332 12 28 C12 33.28 12 38.56 12 44 C8.04 44 4.08 44 0 44 C0 38.72 0 33.44 0 28 C-28.55471533 30.98645647 -57.89429769 37.86146558 -81 56 C-84.47132095 54.59070303 -85.88093274 53.09394917 -87.75 49.875 C-88.17796875 49.15054688 -88.6059375 48.42609375 -89.046875 47.6796875 C-89.36140625 47.12539062 -89.6759375 46.57109375 -90 46 C-73.56851775 33.15543175 -55.13140245 25.20197305 -35 20 C-33.50146484 19.58427734 -33.50146484 19.58427734 -31.97265625 19.16015625 C-21.80827644 16.5307607 -11.43304927 15.83740244 -1 15 C-0.67 10.05 -0.34 5.1 0 0 Z " fill="#FEFBFB" transform="translate(250,77)"></path><path d="M0 0 C2.70443693 1.00017109 4.08340062 2.36313836 6.11780167 4.40587711 C7.28720291 5.56909237 7.28720291 5.56909237 8.48022842 6.75580692 C9.32611526 7.61247959 10.17200211 8.46915226 11.04352188 9.35178471 C11.94143448 10.24925922 12.83934708 11.14673374 13.76446915 12.07140446 C16.22546199 14.53153623 18.67709272 17.00081094 21.12716007 19.47181726 C23.68959649 22.05300173 26.26052556 24.62569851 28.83057022 27.19930363 C33.69554373 32.07360309 38.55281909 36.95549973 43.40738273 41.8401646 C48.93470012 47.40100883 54.4705339 52.95334148 60.00710344 58.50497162 C71.39561552 69.92484519 82.77337194 81.35537285 94.14410782 92.79294682 C92.10343799 97.05910186 89.5585778 99.52693205 86.14410782 102.79294682 C82.89243356 101.36378889 80.71546054 99.62097117 78.20164871 97.12464237 C77.42901688 96.36198566 76.65638504 95.59932896 75.86034012 94.81356144 C75.02223297 93.97611897 74.18412582 93.13867649 73.32062149 92.27585697 C72.43085617 91.39441517 71.54109085 90.51297337 70.62436295 89.60482121 C68.18889236 87.18931231 65.75809986 84.76929689 63.33005309 82.3463378 C61.81340864 80.83333819 60.29547462 79.32164465 58.7770977 77.8103838 C53.48201307 72.53977514 48.19265691 67.26348705 42.90802383 61.98239994 C37.97781155 57.05582968 33.03460148 52.14256728 28.08535022 47.23513091 C23.83782889 43.02224626 19.59992453 38.79984786 15.3693369 34.56995904 C12.84174388 32.04316059 10.31029538 29.52053415 7.76894569 27.0075655 C4.93892057 24.20844546 2.12894978 21.389722 -0.67937851 18.56882572 C-1.95172096 17.3187347 -1.95172096 17.3187347 -3.2497673 16.04338932 C-4.00830002 15.27509296 -4.76683273 14.50679661 -5.54835129 13.71521854 C-6.2151431 13.05043806 -6.88193491 12.38565758 -7.56893253 11.70073223 C-8.85589218 9.79294682 -8.85589218 9.79294682 -8.64195919 7.65644741 C-7.7304655 5.49560233 -6.68342586 4.15369637 -5.04339218 2.48044682 C-4.54194687 1.948064 -4.04050156 1.41568119 -3.52386093 0.86716557 C-1.85589218 -0.20705318 -1.85589218 -0.20705318 0 0 Z " fill="#FDF4F5" transform="translate(88.85589218139648,80.20705318450928)"></path><path d="M0 0 C3.08339095 1.37598713 5.20912431 2.95343601 7.6007843 5.32662964 C8.29768875 6.01355896 8.9945932 6.70048828 9.71261597 7.40823364 C10.46656647 8.16151947 11.22051697 8.9148053 11.99731445 9.69091797 C12.79929764 10.48457764 13.60128082 11.2782373 14.42756653 12.09594727 C17.07829228 14.72256457 19.72128358 17.35679288 22.36328125 19.9921875 C24.1983418 21.81828558 26.03348181 23.64430382 27.86869812 25.47024536 C31.71315985 29.29821445 35.55321617 33.13053905 39.39086914 36.96533203 C43.83030487 41.4011254 48.28272295 45.82359214 52.74119025 50.24024856 C57.02889579 54.48914473 61.30278926 58.75166103 65.57170677 63.01944351 C67.39097964 64.8344963 69.21439486 66.64540657 71.04192543 68.45214462 C73.58974553 70.97326205 76.12145608 73.50952438 78.6496582 76.05029297 C79.41372986 76.79953033 80.17780151 77.5487677 80.96502686 78.32070923 C81.98923485 79.35956268 81.98923485 79.35956268 83.03413391 80.41940308 C83.63455663 81.01781446 84.23497934 81.61622585 84.85359669 82.23277092 C86 84 86 84 85.76471233 86.11514473 C84.87606614 88.30547094 83.83984182 89.62669303 82.1875 91.3125 C81.68605469 91.84488281 81.18460937 92.37726563 80.66796875 92.92578125 C79 94 79 94 77.12275314 93.77159214 C74.55825484 92.83943159 73.29093219 91.66043642 71.36798096 89.72874451 C70.66410751 89.02899506 69.96023407 88.32924561 69.23503113 87.60829163 C68.47330093 86.8357756 67.71157074 86.06325958 66.92675781 85.26733398 C66.11662735 84.4576416 65.30649689 83.64794922 64.47181702 82.8137207 C61.79174915 80.13156029 59.12246788 77.43892464 56.453125 74.74609375 C54.59861556 72.88599005 52.74344334 71.02654693 50.88763428 69.16773987 C46.50077264 64.77155434 42.1216143 60.36777755 37.74516845 55.96122557 C32.76198015 50.94450397 27.77026954 45.93629934 22.77782297 40.92879379 C12.50903634 30.62865037 2.25099906 20.31784586 -8 10 C-5.95933017 5.73384496 -3.41446998 3.26601476 0 0 Z " fill="#FDF4F4" transform="translate(346,338)"></path><path d="M0 0 C5.98730978 2.68794447 9.84397563 7.11615676 13.08984375 12.72265625 C14.61967084 19.14793004 14.3202953 24.67759121 11.0546875 30.48828125 C7.72058406 35.11520032 4.24690382 37.96464123 -1.28515625 39.34765625 C-1.28515625 44.62765625 -1.28515625 49.90765625 -1.28515625 55.34765625 C-5.24515625 55.34765625 -9.20515625 55.34765625 -13.28515625 55.34765625 C-13.28515625 50.06765625 -13.28515625 44.78765625 -13.28515625 39.34765625 C-15.26515625 38.68765625 -17.24515625 38.02765625 -19.28515625 37.34765625 C-25.17955292 32.35316747 -27.91976237 27.12339303 -28.66015625 19.47265625 C-28.48139728 13.9626738 -26.39120943 9.55632455 -22.6015625 5.58203125 C-15.77647794 -0.46514045 -9.08634015 -2.5938783 0 0 Z " fill="#FEFBFB" transform="translate(263.28515625,257.65234375)"></path><path d="M0 0 C2.1302171 1.02207514 3.43448912 2.20228088 5.04693604 3.92466736 C5.82810791 4.7464447 5.82810791 4.7464447 6.62506104 5.58482361 C7.01177979 6.00634705 7.39849854 6.42787048 7.79693604 6.86216736 C6.2573747 10.52097913 4.05604546 12.84508526 1.25543213 15.63072205 C0.79672226 16.08972397 0.33801239 16.54872589 -0.13459778 17.02163696 C-1.64491307 18.53056411 -3.16217784 20.0322919 -4.67962646 21.53404236 C-5.73095567 22.5816396 -6.78184282 23.62968064 -7.83230591 24.67814636 C-10.59307413 27.43129256 -13.35979646 30.17837863 -16.12780762 32.92424011 C-18.95339324 35.72933651 -21.77329841 38.54013057 -24.59368896 41.35044861 C-30.12460771 46.85994268 -35.66182985 52.36304613 -41.20306396 57.86216736 C-44.41350278 56.48028282 -46.25242762 54.93794833 -48.45306396 52.23716736 C-48.97384521 51.60552673 -49.49462646 50.97388611 -50.03118896 50.32310486 C-50.41790771 49.84099548 -50.80462646 49.35888611 -51.20306396 48.86216736 C-44.89805769 42.4414493 -38.57974124 36.03422174 -32.24389267 29.6439352 C-29.30250017 26.67641873 -26.36595018 23.70441891 -23.43988037 20.7217865 C-20.61731059 17.84499787 -17.78279605 14.98050003 -14.93949127 12.12420845 C-13.85541293 11.03087208 -12.77575449 9.93313533 -11.70058441 8.83103752 C-10.19683163 7.29112965 -8.67829434 5.76744679 -7.1552124 4.24668884 C-6.29361511 3.37398849 -5.43201782 2.50128815 -4.54431152 1.60214233 C-2.20306396 -0.13783264 -2.20306396 -0.13783264 0 0 Z " fill="#FEFAFA" transform="translate(152.20306396484375,353.13783264160156)"></path><path d="M0 0 C4.03744506 2.01872253 6.62010675 4.08100128 10 7 C8.46043866 10.65881177 6.25910943 12.9829179 3.45849609 15.76855469 C2.99978622 16.22755661 2.54107635 16.68655853 2.06846619 17.1594696 C0.5581509 18.66839675 -0.95911388 20.17012454 -2.4765625 21.671875 C-3.5278917 22.71947224 -4.57877885 23.76751328 -5.62924194 24.815979 C-8.39001016 27.5691252 -11.15673249 30.31621127 -13.92474365 33.06207275 C-16.75032928 35.86716916 -19.57023445 38.67796321 -22.390625 41.48828125 C-27.92154374 46.99777532 -33.45876589 52.50087877 -39 58 C-43 56 -43 56 -49 49 C-32.83 32.83 -16.66 16.66 0 0 Z " fill="#FEFBFB" transform="translate(401,102)"></path><path d="M0 0 C1.91015625 0.48046875 1.91015625 0.48046875 4.47265625 2.54296875 C6.3464113 6.37194647 6.03978326 8.41381151 4.91015625 12.48046875 C3.84765625 14.41796875 3.84765625 14.41796875 1.91015625 15.48046875 C-1.63661786 16.00619101 -4.83482008 16.16870754 -8.02734375 14.41796875 C-9.69950352 11.36873624 -10.03005773 8.94805817 -10.08984375 5.48046875 C-7.72833365 0.65477419 -5.11395668 -0.35367551 0 0 Z " fill="#DD3037" transform="translate(258.08984375,269.51953125)"></path></svg>