<svg version="1.1" xmlns="http://www.w3.org/2000/svg" width="16px" height="16px" fill="currentColor" viewBox="0 0 512 512"><path d="M0 0 C168.96 0 337.92 0 512 0 C512 168.96 512 337.92 512 512 C343.04 512 174.08 512 0 512 C0 343.04 0 174.08 0 0 Z " fill="#E3750D" transform="translate(0,0)"></path><path d="M0 0 C12.1667196 10.52082385 21.9957175 21.88399323 28.9453125 36.546875 C28.9453125 37.206875 28.9453125 37.866875 28.9453125 38.546875 C29.63496094 38.14855469 30.32460938 37.75023437 31.03515625 37.33984375 C42.78766458 30.71394399 52.84737922 27.43532132 66.59375 30.05078125 C80.11967963 34.20347894 89.21784287 42.29685568 95.9453125 54.546875 C99.29106172 61.32149765 100.86842208 68.09365971 101.9453125 75.546875 C102.88890625 75.83820313 103.8325 76.12953125 104.8046875 76.4296875 C117.07784263 80.30863441 128.15137478 84.96569505 137.9453125 93.546875 C138.62207031 94.11792969 139.29882812 94.68898438 139.99609375 95.27734375 C151.6645188 105.90354054 157.3170596 120.67797993 158.07202148 136.14233398 C158.67745478 157.32863062 158.67745478 157.32863062 154.9453125 167.546875 C154.605 168.53558594 154.2646875 169.52429688 153.9140625 170.54296875 C148.12672512 185.8911439 138.35224225 196.10033703 123.625 202.97265625 C118.23520456 205.35874871 112.65053644 207.08721661 106.9453125 208.546875 C106.25749349 208.72382495 105.56967447 208.9007749 104.86101246 209.08308697 C100.71985823 209.74180282 96.64131995 209.69490691 92.45426941 209.69404602 C91.49348443 209.69772271 90.53269945 209.7013994 89.54279977 209.7051875 C86.32043857 209.71620818 83.09810964 209.72006551 79.87573242 209.72387695 C77.56600848 209.73014302 75.25628555 209.73678995 72.94656372 209.74378967 C65.35631002 209.76482251 57.76605615 209.77519413 50.17578125 209.78515625 C47.5594564 209.78920466 44.94313166 209.79332161 42.32680702 209.79750633 C31.43812797 209.81437656 20.54945182 209.82900902 9.66076183 209.83625507 C6.83707363 209.83816474 4.01338544 209.8400851 1.18969727 209.84204102 C0.48794604 209.84252476 -0.21380519 209.8430085 -0.9368216 209.8435069 C-12.28419909 209.85179283 -23.63147067 209.87710531 -34.978802 209.90962169 C-46.64980772 209.94279054 -58.32075982 209.96071284 -69.99181288 209.96389931 C-76.53607903 209.96624391 -83.08017787 209.97512709 -89.62439919 210.00036049 C-95.78944366 210.023747 -101.95421195 210.02783192 -108.1192894 210.01759911 C-110.37177515 210.01710614 -112.62427499 210.02335528 -114.87671852 210.03715515 C-140.81676569 210.18707806 -163.28927636 204.1441889 -182.76953125 185.9296875 C-196.48309983 171.63006898 -200.61550207 155.02320609 -200.33203125 135.7734375 C-199.72422129 119.25673106 -192.87313953 103.9711556 -180.9140625 92.4921875 C-173.44778601 86.13843565 -162.96874816 78.88763368 -153.0546875 77.546875 C-153.10109375 76.34933594 -153.1475 75.15179688 -153.1953125 73.91796875 C-153.90082876 47.94263042 -143.96552851 25.65142212 -126.28125 6.8125 C-125.54648438 6.06484375 -124.81171875 5.3171875 -124.0546875 4.546875 C-123.38179688 3.86109375 -122.70890625 3.1753125 -122.015625 2.46875 C-111.89413282 -7.15993545 -99.41881787 -13.63693996 -86.0546875 -17.453125 C-84.95511719 -17.77152344 -83.85554688 -18.08992187 -82.72265625 -18.41796875 C-53.6804395 -25.49110123 -23.34839844 -18.44968814 0 0 Z " fill="#FEFBF9" transform="translate(277.0546875,161.453125)"></path><path d="M0 0 C4.7909146 2.44065461 7.6266147 5.16194535 10 10 C10.91557705 15.73007207 10.11365467 20.04121663 7 25 C6.443125 25.680625 5.88625 26.36125 5.3125 27.0625 C3.60625748 29.58123896 3.5408566 31.01556792 4 34 C5.03087208 35.76456074 5.03087208 35.76456074 7 37 C10.29303325 37.47664645 10.29303325 37.47664645 14.13354492 37.43237305 C15.21684837 37.44766052 15.21684837 37.44766052 16.32203674 37.46325684 C18.70825909 37.49344195 21.09408039 37.50266087 23.48046875 37.51171875 C25.13529297 37.52856141 26.79010436 37.54671109 28.44490051 37.56611633 C32.79975375 37.61366759 37.15455499 37.64344364 41.50958252 37.66955566 C45.95375845 37.69933544 50.39775513 37.74587459 54.84179688 37.79101562 C63.56110996 37.87710701 72.28043927 37.94442615 81 38 C80.98114746 39.01900391 80.96229492 40.03800781 80.94287109 41.08789062 C80.92762067 42.44400555 80.91283406 43.80012574 80.8984375 45.15625 C80.87801392 46.16026855 80.87801392 46.16026855 80.85717773 47.18457031 C80.79018611 55.61520885 83.57069322 62.3660278 89.28515625 68.53125 C95.72964401 74.05090239 103.16456418 75.48544244 111.4375 75.40234375 C119.02155251 74.5458115 125.75986177 71.11055405 130.5625 65.125 C131.4196255 63.7773661 132.23578102 62.40240886 133 61 C133.33644531 60.41863281 133.67289063 59.83726562 134.01953125 59.23828125 C137.34206541 52.24427099 136 46.15437038 136 38 C169.99 38 203.98 38 239 38 C239 52.29581691 235.11183915 64.32170519 225.625 75.125 C221.8925253 78.64296466 217.77228256 81.02880514 213.25 83.375 C212.61916504 83.70902832 211.98833008 84.04305664 211.33837891 84.38720703 C198.69497046 90.54567848 184.00630416 89.30350141 170.31933594 89.30639648 C168.02828199 89.31402761 165.73723058 89.32245673 163.44618225 89.33161926 C157.24973015 89.35347461 151.05332737 89.36235085 144.85684109 89.36744571 C140.9784608 89.37109932 137.10009324 89.37734451 133.22171783 89.3844471 C122.45542357 89.40388277 111.68914444 89.42040928 100.92283249 89.42332363 C100.23589029 89.4235112 99.54894809 89.42369877 98.84118946 89.42389202 C97.4489948 89.42425824 96.05680013 89.42462194 94.66460547 89.42498314 C93.97364992 89.42516595 93.28269437 89.42534876 92.57080078 89.42553711 C91.8789893 89.42571766 91.18717781 89.42589821 90.47440234 89.42608423 C79.26969781 89.42962444 68.06518562 89.4566469 56.86054775 89.494035 C45.32038579 89.53223064 33.78034542 89.55104198 22.24011636 89.55178314 C15.77528857 89.55257362 9.31070946 89.56120754 2.84593964 89.58978081 C-3.23800033 89.61607238 -9.32148731 89.61810464 -15.40545845 89.60212517 C-17.62731227 89.60031962 -19.84919284 89.60691964 -22.07098961 89.62294388 C-44.12175825 89.7721777 -62.70904638 85.18667799 -79.0625 69.5625 C-87.59932681 60.4548601 -93.12376211 50.66716033 -93 38 C-92.0795842 37.99191315 -91.1591684 37.98382629 -90.21086121 37.97549438 C-81.54386501 37.89760758 -72.87702541 37.81033487 -64.21023083 37.71247292 C-59.75436209 37.66249138 -55.29851728 37.61616156 -50.8425293 37.578125 C-46.5435965 37.54129558 -42.24486296 37.49494213 -37.94610023 37.44193649 C-36.30466514 37.42338005 -34.66318731 37.40827671 -33.02168846 37.39665604 C-30.72543231 37.37981479 -28.42963373 37.35078558 -26.13354492 37.31884766 C-24.82560471 37.30552399 -23.51766449 37.29220032 -22.17008972 37.2784729 C-18.84268522 37.2416184 -18.84268522 37.2416184 -16 35 C-15.44559439 30.80235751 -15.47025766 28.75189236 -17.9375 25.25 C-18.618125 24.5075 -19.29875 23.765 -20 23 C-21.45016555 18.64950335 -21.51070107 14.54665815 -21 10 C-16.37326696 0.74653391 -9.73201356 -2.13304407 0 0 Z " fill="#DF6F0F" transform="translate(183,269)"></path><path d="M0 0 C24.45334404 8.15111468 40.95769836 24.83412532 52.375 47.5 C53.25456751 49.33114639 54.12968943 51.16443589 55 53 C56.63206375 56.74499406 56.63206375 56.74499406 59 60 C62.36852515 60.0565109 62.36852515 60.0565109 66 59 C67.20353897 57.60129255 68.40010166 56.19120539 69.48046875 54.6953125 C73.66281062 50.02915216 80.5822155 46.28876019 86.8203125 45.76171875 C97.53691654 45.52103852 104.35595867 47.74264528 112.21484375 55.0859375 C119.97515312 63.40661932 122.12396867 73.15497393 123.375 84.1796875 C124.07395168 87.33370696 124.31934785 88.25080678 127 90 C129.64966808 90.86784558 132.24382403 91.61851411 134.9375 92.3125 C150.08516942 96.51341086 164.46735772 103.79894669 172.62890625 117.79296875 C175.04523069 122.38689643 176.99355177 126.61916156 178.08105469 131.70361328 C178.25497742 132.50952911 178.42890015 133.31544495 178.60809326 134.14578247 C178.73742249 134.75767426 178.86675171 135.36956604 179 136 C178.39462497 136.00238835 177.78924994 136.00477671 177.1655302 136.00723743 C162.44343268 136.06634308 147.72148292 136.14186454 132.99956799 136.23571491 C125.88017951 136.28070319 118.76084139 136.32011073 111.64135742 136.34643555 C104.77481717 136.37184069 97.90850977 136.41272476 91.04210854 136.46318626 C88.4182036 136.47991293 85.79425994 136.49139092 83.17030907 136.49761391 C79.50416822 136.50719187 75.83860695 136.53517611 72.17260742 136.56762695 C70.53370544 136.56547432 70.53370544 136.56547432 68.86169434 136.5632782 C67.86470016 136.57581635 66.86770599 136.58835449 65.84049988 136.60127258 C64.97309268 136.60588155 64.10568548 136.61049051 63.21199322 136.61523914 C60.51209587 137.08486753 59.59157721 137.79342138 58 140 C58.10794437 144.96544091 59.8842686 147.30006896 63 151 C64.65597473 155.13993684 64.69904062 159.86293295 63.31640625 164.08984375 C61.16185025 168.89065939 58.95977274 171.83573553 54 174 C48.5922522 174.85772435 43.69169727 174.95299247 39 171.875 C35.28662071 168.67810991 33.33240974 165.54708962 32.6875 160.60546875 C32.40533237 154.72403716 33.19751682 151.49384376 37 147 C37.33 146.67 37.66 146.34 38 146 C38.25003964 142.54178598 38.25003964 142.54178598 38 139 C35.05807216 136.05807216 31.87809027 136.64462603 27.9296875 136.5859375 C27.13345978 136.56657135 26.33723206 136.5472052 25.51687622 136.5272522 C22.96969366 136.46739526 20.42246605 136.42104721 17.875 136.375 C16.1497197 136.33682579 14.42445857 136.29777439 12.69921875 136.2578125 C8.46624468 136.16003447 4.23347877 136.08051661 0 136 C0 128.08 0 120.16 0 112 C2.26875 112.0825 4.5375 112.165 6.875 112.25 C16.03384025 112.35905742 23.71768764 110.22835206 30.4609375 103.8046875 C36.29441092 96.96442171 37.77032231 90.30524169 37.421875 81.41015625 C36.49008915 73.8782206 34.04110825 67.80542702 28 63 C18.17761824 56.1184511 13.67071667 57 0 57 C0 38.19 0 19.38 0 0 Z " fill="#E7790D" transform="translate(243,158)"></path><path d="M0 0 C0.96292969 -0.00128906 1.92585938 -0.00257813 2.91796875 -0.00390625 C3.91183594 -0.00003906 4.90570313 0.00382813 5.9296875 0.0078125 C7.43208984 0.00201172 7.43208984 0.00201172 8.96484375 -0.00390625 C9.92519531 -0.00261719 10.88554687 -0.00132812 11.875 0 C12.74914551 0.00112793 13.62329102 0.00225586 14.52392578 0.00341797 C16.8046875 0.1328125 16.8046875 0.1328125 19.8046875 1.1328125 C19.8201487 2.5134362 19.8201487 2.5134362 19.83592224 3.92195129 C19.93383165 12.58888976 20.0363368 21.25575899 20.14402676 29.92258167 C20.19923069 34.37845701 20.25264669 38.83433894 20.30200195 43.2902832 C20.34968277 47.58915134 20.40202699 51.88793953 20.45762825 56.18671227 C20.47803494 57.82816265 20.49675082 59.46963495 20.51376152 61.11112404 C20.53784283 63.40725254 20.56789227 65.70323017 20.59936523 67.99926758 C20.61490952 69.30720779 20.6304538 70.61514801 20.64646912 71.96272278 C20.66367318 75.15734448 20.66367318 75.15734448 21.8046875 78.1328125 C26.89787986 78.74615878 26.89787986 78.74615878 31.5078125 77.01953125 C32.03890625 76.56191406 32.57 76.10429687 33.1171875 75.6328125 C36.96850074 72.53232868 40.38459091 72.47254061 45.21875 72.7109375 C48.91455291 73.31387816 51.04068541 74.63846915 53.8046875 77.1328125 C54.5884375 77.7928125 55.3721875 78.4528125 56.1796875 79.1328125 C58.79596297 83.96285951 58.51802555 88.76821918 57.8046875 94.1328125 C55.5390336 99.01268243 52.65003577 101.79986704 47.8046875 104.1328125 C42.66812601 104.95265456 38.96709205 104.76685135 34.3671875 102.2578125 C33.5215625 101.5565625 32.6759375 100.8553125 31.8046875 100.1328125 C28.58325474 97.98519066 27.5451408 97.5717445 23.8046875 98.1328125 C21.01678398 100.67222259 20.78865571 102.27899052 20.37231445 106.07519531 C20.33101805 107.66179242 20.30548031 109.24885236 20.29296875 110.8359375 C20.27501755 111.67372742 20.25706635 112.51151733 20.23857117 113.37469482 C20.18449694 116.04401657 20.15058218 118.71315981 20.1171875 121.3828125 C20.08401182 123.19533732 20.04952193 125.0078386 20.01367188 126.8203125 C19.92630302 131.25783777 19.86621213 135.69455273 19.8046875 140.1328125 C11.5546875 140.1328125 3.3046875 140.1328125 -5.1953125 140.1328125 C-5.1128125 137.6784375 -5.0303125 135.2240625 -4.9453125 132.6953125 C-4.84434568 122.77157332 -7.37423621 116.13539456 -14.3125 108.86328125 C-20.51431387 103.1632739 -26.63163226 102.5083115 -34.90136719 102.59375 C-43.33604875 102.96483146 -48.32515227 105.9065473 -54.0703125 112.0078125 C-61.67660537 120.7899574 -60.1953125 128.18785414 -60.1953125 140.1328125 C-79.9953125 140.1328125 -99.7953125 140.1328125 -120.1953125 140.1328125 C-117.34736197 124.46908457 -111.65641384 114.03636105 -98.89453125 104.39453125 C-93.15268857 100.65992097 -86.90829553 98.35578909 -80.46435547 96.13574219 C-76.61085823 95.04744357 -76.61085823 95.04744357 -74.1953125 92.1328125 C-74.11262292 90.38441369 -74.08706495 88.63316339 -74.08984375 86.8828125 C-73.95282745 72.92702291 -72.94024199 60.93382657 -67.1953125 48.1328125 C-66.74027344 47.11445313 -66.28523438 46.09609375 -65.81640625 45.046875 C-56.7009772 26.91989643 -41.23339861 11.33587996 -21.921875 4.5625 C-14.7294227 2.20502353 -7.62353803 0.0098115 0 0 Z " fill="#E1720F" transform="translate(210.1953125,153.8671875)"></path></svg>