<svg version="1.1" xmlns="http://www.w3.org/2000/svg" width="16px" height="16px" fill="currentColor" viewBox="0 0 512 512"><path d="M0 0 C168.96 0 337.92 0 512 0 C512 168.96 512 337.92 512 512 C343.04 512 174.08 512 0 512 C0 343.04 0 174.08 0 0 Z " fill="#DE2D34" transform="translate(0,0)"></path><path d="M0 0 C0 74.25 0 148.5 0 225 C-19.54530105 225 -34.46278674 219.88790638 -48.7578125 206.30078125 C-65.17778081 189.45171969 -70.18141046 168.64056582 -70.11352539 145.76928711 C-70.11367142 144.47074799 -70.11381744 143.17220886 -70.1139679 141.83432007 C-70.11425297 138.29982767 -70.10840333 134.76536971 -70.10139394 131.23088527 C-70.09511192 127.52734349 -70.09455278 123.8238008 -70.09336853 120.12025452 C-70.09026945 113.11880995 -70.08207535 106.11738114 -70.07201904 99.11594349 C-70.06081357 91.14007251 -70.05533631 83.16420075 -70.05032361 75.18832386 C-70.03989145 58.79220671 -70.02231974 42.39610537 -70 26 C-68.58261537 25.36709632 -67.16490872 24.73491379 -65.74707031 24.10302734 C-64.95762024 23.75090179 -64.16817017 23.39877625 -63.35479736 23.03598022 C-50.45998669 17.36297877 -37.19333092 12.49292543 -24.0357666 7.46942139 C-22.34799822 6.82418899 -20.66106231 6.17677477 -18.97497559 5.52716064 C-16.57953217 4.60524214 -14.18089768 3.69215984 -11.78125 2.78125 C-10.6933316 2.35995316 -10.6933316 2.35995316 -9.58343506 1.93014526 C-6.13442183 0.63154163 -3.73889963 0 0 0 Z " fill="#D92830" transform="translate(230,145)"></path><path d="M0 0 C0.895979 0.37125 0.895979 0.37125 1.81005859 0.75 C19.60788428 8.32316985 32.63277348 20.71586741 39.9921875 38.8828125 C45.751172 56.69548549 44.20419619 75.08765434 35.8125 91.8125 C26.47800295 108.01877573 12.0835796 118.62264436 -5.75 123.875 C-23.19736295 127.74706998 -40.8869462 124.47119478 -56 115 C-71.16142506 104.36707705 -80.88179552 89.51059903 -84.52734375 71.3046875 C-86.98255441 54.13850388 -82.92387 37.30025991 -72.96484375 23.09765625 C-56.44126227 1.85305149 -26.18328019 -10.9621654 0 0 Z " fill="#DD2D34" transform="translate(360,291)"></path><path d="M0 0 C1.02067566 0.40509293 2.04135132 0.81018585 3.09295654 1.22755432 C6.46326852 2.56742814 9.82904852 3.91830702 13.19482422 5.26953125 C15.55566042 6.2112079 17.9167383 7.15227885 20.27804565 8.09277344 C25.23445778 10.0687067 30.18889069 12.04948362 35.14160156 14.03466797 C41.43083386 16.55553296 47.72380835 19.066907 54.01808357 21.57514954 C58.90268173 23.5221186 63.78604836 25.47216022 68.66900253 27.42324829 C70.98478861 28.34854748 73.30077418 29.27334756 75.61697769 30.19760132 C86.99842447 34.74255573 98.36045034 39.33152608 109.65136719 44.09765625 C110.54692888 44.47073914 111.44249058 44.84382202 112.36519051 45.22821045 C113.58384458 45.74801483 113.58384458 45.74801483 114.82711792 46.27832031 C115.89616017 46.73032806 115.89616017 46.73032806 116.98679924 47.19146729 C118.62451172 48.08203125 118.62451172 48.08203125 119.62451172 50.08203125 C119.7182426 51.98257891 119.74642089 53.88648032 119.74476624 55.78933716 C119.74682823 57.61091843 119.74682823 57.61091843 119.74893188 59.46929932 C119.74539252 60.8221438 119.74175771 62.17498803 119.73803711 63.52783203 C119.73775516 64.94682819 119.73791313 66.36582449 119.73847961 67.78482056 C119.73876727 71.64409588 119.73287563 75.50334031 119.72590566 79.36260843 C119.71966688 83.39317577 119.7190679 87.42374377 119.71788025 91.45431519 C119.71476849 99.08993798 119.70655717 106.72554651 119.69653076 114.36116302 C119.68536483 123.05269866 119.67985796 131.74423497 119.67483532 140.435776 C119.66437444 158.31786918 119.64677798 176.19994907 119.62451172 194.08203125 C118.71958984 193.77458984 118.71958984 193.77458984 117.79638672 193.4609375 C116.99716797 193.19152344 116.19794922 192.92210937 115.37451172 192.64453125 C114.58560547 192.37769531 113.79669922 192.11085938 112.98388672 191.8359375 C110.88928622 191.16663635 108.75779205 190.61535133 106.62451172 190.08203125 C106.62451172 146.19203125 106.62451172 102.30203125 106.62451172 57.08203125 C103.65451172 56.09203125 100.68451172 55.10203125 97.62451172 54.08203125 C95.90548014 53.43898074 94.19225613 52.77985771 92.48922729 52.09555054 C91.5782428 51.73106308 90.6672583 51.36657562 89.72866821 50.99104309 C88.76214325 50.60131821 87.79561829 50.21159332 86.79980469 49.81005859 C85.75634888 49.39182327 84.71289307 48.97358795 83.63781738 48.54267883 C81.38669648 47.64017969 79.13601719 46.73657839 76.88573837 45.83198166 C73.32222785 44.40009936 69.7570942 42.97233392 66.19143677 41.54580688 C56.05868844 37.49158801 45.92754751 33.43339827 35.80078125 29.36425781 C29.59457377 26.87053251 23.38514551 24.38498094 17.17386246 21.90391922 C14.81165533 20.95864777 12.45058675 20.01052588 10.09069443 19.0594902 C6.79340048 17.7309591 3.49241271 16.41203981 0.19042969 15.09521484 C-0.78014374 14.7014415 -1.75071716 14.30766815 -2.7507019 13.90196228 C-12.56799892 10.0107207 -18.09186925 9.79787197 -27.83374023 13.85229492 C-29.3766272 14.47154343 -29.3766272 14.47154343 -30.95068359 15.103302 C-34.34486515 16.4700671 -37.72910635 17.85984976 -41.11376953 19.25 C-43.47819361 20.20735456 -45.84320864 21.16325079 -48.20878601 22.11775208 C-53.80088787 24.37820686 -59.38687356 26.65315074 -64.97014064 28.93529636 C-71.28779927 31.51671292 -77.61279282 34.07990539 -83.93855727 36.64138067 C-94.77111479 41.02806816 -105.59847098 45.42735871 -116.41868591 49.84440613 C-118.20238675 50.57204336 -119.98661496 51.29838958 -121.77144814 52.02324486 C-123.5826691 52.75967594 -125.39209267 53.50053679 -127.20009422 54.24483681 C-128.100432 54.61221647 -129.00076977 54.97959614 -129.9283905 55.35810852 C-130.73544024 55.68949986 -131.54248999 56.02089121 -132.37399578 56.36232471 C-134.37548828 57.08203125 -134.37548828 57.08203125 -136.37548828 57.08203125 C-136.31462325 76.24247108 -136.23689509 95.40277441 -136.13977337 114.56306553 C-136.09504705 123.46203479 -136.05558092 132.3609661 -136.02905273 141.26000977 C-136.00588298 149.02776407 -135.97227896 156.79539585 -135.92678672 164.56305259 C-135.90310664 168.66566988 -135.8842147 172.76816776 -135.87787437 176.87085152 C-135.8374576 199.98336158 -135.47121468 222.8503697 -128.37548828 245.08203125 C-128.17616699 245.73268555 -127.9768457 246.38333984 -127.77148438 247.05371094 C-122.82465726 263.05568749 -115.64362122 278.54862067 -104.37548828 291.08203125 C-103.84955078 291.74847656 -103.32361328 292.41492188 -102.78173828 293.1015625 C-86.28709219 313.59858595 -58.10985408 323.90434012 -32.79321289 326.88134766 C-11.77830191 328.62569349 10.80337643 327.94026652 30.77514648 320.66748047 C33.54745532 319.78985716 34.96137459 319.8906278 37.62451172 321.08203125 C40.85798603 323.51598128 43.76573983 326.22325936 46.62451172 329.08203125 C44.18939939 330.02613377 41.75167028 330.962304 39.31201172 331.89453125 C38.30557617 332.28608398 38.30557617 332.28608398 37.27880859 332.68554688 C3.86339196 345.39281799 -38.66278677 344.85421884 -71.68798828 330.95703125 C-72.4045459 330.65555176 -73.12110352 330.35407227 -73.859375 330.04345703 C-104.30854575 316.82890618 -125.29767946 291.91495394 -137.48046875 261.41601562 C-142.27800316 248.90526033 -145.56052709 236.35590672 -147.37548828 223.08203125 C-147.53695374 221.96465167 -147.69841921 220.84727209 -147.86477757 219.69603252 C-149.17109268 210.1155392 -149.67875808 200.69288979 -149.68188477 191.0246582 C-149.68953269 189.49348051 -149.69796453 187.96230658 -149.70710754 186.43113708 C-149.72876732 182.32856607 -149.73780923 178.22606933 -149.74293399 174.12344766 C-149.74660383 171.55505472 -149.75285632 168.98668057 -149.75993538 166.41829491 C-149.784305 157.44527725 -149.79746 148.47231663 -149.80102539 139.49926758 C-149.80467802 131.14986362 -149.83472787 122.80082325 -149.87642998 114.45153075 C-149.91109458 107.25797088 -149.92657295 100.06453222 -149.92727143 92.87088937 C-149.92806383 88.58450636 -149.93679052 84.29849749 -149.96526909 80.01220131 C-149.99139294 75.99242087 -149.99368751 71.97332715 -149.97761345 67.95350075 C-149.97579595 66.48008223 -149.98251699 65.00662454 -149.99843216 63.53329086 C-150.01883946 61.52162925 -150.00537047 59.50970916 -149.99021912 57.4980011 C-149.99223044 56.37299352 -149.99424177 55.24798594 -149.99631405 54.08888721 C-149.16819548 50.07804651 -147.51277685 48.63907082 -144.37548828 46.08203125 C-142.18187809 44.83600235 -142.18187809 44.83600235 -139.93605042 43.94683838 C-139.07748444 43.59957703 -138.21891846 43.25231567 -137.33433533 42.89453125 C-136.40504715 42.53391602 -135.47575897 42.17330078 -134.51831055 41.80175781 C-133.52879395 41.40583435 -132.53927734 41.00991089 -131.51977539 40.60198975 C-128.24854845 39.29660582 -124.97038349 38.00968026 -121.69189453 36.72265625 C-119.3971566 35.81087464 -117.10288779 34.89791157 -114.80906677 33.98382568 C-108.7573475 31.57572511 -102.69965431 29.18302886 -96.64050293 26.79370117 C-90.55330352 24.39061107 -84.47131766 21.97441013 -78.38916016 19.55859375 C-71.51082449 16.82675927 -64.63213262 14.0959154 -57.74867249 11.37701416 C-56.17016463 10.7527183 -56.17016463 10.7527183 -54.55976772 10.11581039 C-52.49835074 9.30115079 -50.43621998 8.4882947 -48.37333012 7.67737198 C-43.27597622 5.66532301 -38.21161474 3.59915779 -33.17868042 1.43054199 C-32.18179923 1.00589535 -31.18491804 0.5812487 -30.15782833 0.14373398 C-28.27999568 -0.65971495 -26.40782822 -1.47659441 -24.54286289 -2.30947495 C-15.28000352 -6.25405409 -8.94958579 -3.61423941 0 0 Z " fill="#FEF9F9" transform="translate(251.37548828125,87.91796875)"></path><path d="M0 0 C0.99356506 0.38822433 1.98713013 0.77644867 3.01080322 1.17643738 C6.22813118 2.4357776 9.44024775 3.70785007 12.65234375 4.98046875 C14.86254098 5.84915597 17.07307342 6.71699076 19.28393555 7.58398438 C22.59668683 8.88352671 25.90905313 10.18398768 29.21992493 11.48831177 C35.65840599 14.02439541 42.107108 16.53005904 48.57421875 18.9921875 C49.66983376 19.41042534 49.66983376 19.41042534 50.7875824 19.83711243 C54.80992308 21.3726401 54.80992308 21.3726401 58.8364563 22.89712524 C60.60666006 23.56507583 62.37373867 24.24129155 64.140625 24.91796875 C65.10653564 25.2840625 66.07244629 25.65015625 67.06762695 26.02734375 C69.65121871 27.19572442 71.50258923 28.2486754 73.58984375 30.16796875 C74.08203506 32.31749249 74.08203506 32.31749249 74.07086182 34.85661316 C74.07636047 35.81995071 74.08185913 36.78328827 74.08752441 37.77581787 C74.06595276 39.35861542 74.06595276 39.35861542 74.04394531 40.97338867 C74.04452942 42.0857338 74.04511353 43.19807892 74.04571533 44.34413147 C74.04292353 48.02921508 74.01177836 51.71349479 73.98046875 55.3984375 C73.9730103 57.95005349 73.9673155 60.50167519 73.96331787 63.05329895 C73.94959391 69.08824158 73.91805313 75.12283792 73.87791991 81.15764171 C73.83322018 88.02815629 73.81121976 94.89868467 73.79113817 101.76930845 C73.74932063 115.90236042 73.67815235 130.03513773 73.58984375 144.16796875 C69.62984375 144.82796875 65.66984375 145.48796875 61.58984375 146.16796875 C61.25984375 110.52796875 60.92984375 74.88796875 60.58984375 38.16796875 C47.38984375 33.21796875 34.18984375 28.26796875 20.58984375 23.16796875 C-4.65153556 13.54727909 -4.65153556 13.54727909 -9.41015625 11.16796875 C-9.41015625 86.07796875 -9.41015625 160.98796875 -9.41015625 238.16796875 C1.14200876 236.41292098 1.14200876 236.41292098 11.58984375 234.16796875 C12.09742237 235.58193777 12.595593 236.99928604 13.08984375 238.41796875 C13.36828125 239.206875 13.64671875 239.99578125 13.93359375 240.80859375 C14.58984375 243.16796875 14.58984375 243.16796875 14.58984375 247.16796875 C12.7368754 247.65174866 10.88239934 248.12975511 9.02734375 248.60546875 C7.99480469 248.87230469 6.96226562 249.13914062 5.8984375 249.4140625 C-17.86475002 254.82881479 -45.30839606 251.57133885 -66.28515625 238.85546875 C-71.77664093 235.11202424 -76.67522158 230.82154715 -81.41015625 226.16796875 C-82.34988281 225.24757813 -82.34988281 225.24757813 -83.30859375 224.30859375 C-104.73559144 201.62118443 -105.89206876 170.64301959 -105.84606433 141.30592513 C-105.84294155 138.22611044 -105.84909698 135.14634025 -105.85510308 132.06653196 C-105.86905208 124.80790618 -105.86766079 117.54939842 -105.85620117 110.29077148 C-105.84465685 102.81328801 -105.85892245 95.33616056 -105.88559765 87.85872382 C-105.90773184 81.41163722 -105.91439934 74.96466266 -105.90852123 68.51754075 C-105.9051537 64.6778428 -105.90755638 60.83837448 -105.92477226 56.99870872 C-105.94020913 53.40082569 -105.93632315 49.80347583 -105.91746712 46.20561409 C-105.91201544 44.25753073 -105.92630933 42.30942353 -105.94116211 40.36138916 C-105.93132797 39.20247665 -105.92149384 38.04356415 -105.91136169 36.84953308 C-105.91115241 35.84289203 -105.91094313 34.83625097 -105.9107275 33.79910564 C-105.27248602 30.44433705 -104.0269965 29.29166478 -101.41015625 27.16796875 C-98.94015503 25.91903687 -98.94015503 25.91903687 -96.13623047 24.85302734 C-95.07926971 24.44514984 -94.02230896 24.03727234 -92.93331909 23.61703491 C-91.2164238 22.97322372 -91.2164238 22.97322372 -89.46484375 22.31640625 C-88.26699249 21.85746979 -87.06914124 21.39853333 -85.83499146 20.9256897 C-82.63620343 19.7002424 -79.43268642 18.48766613 -76.22796631 17.27783203 C-73.06972892 16.08323626 -69.91582308 14.87733189 -66.76171875 13.671875 C-63.02190383 12.24262526 -59.28112557 10.8162374 -55.53485107 9.4039917 C-49.33693599 7.06366561 -43.16424122 4.68031983 -37.02441406 2.19238281 C-35.84831573 1.72168365 -34.67221741 1.2509845 -33.46047974 0.76602173 C-31.24704973 -0.12225579 -29.03912353 -1.02442504 -26.83810425 -1.94302368 C-16.3326229 -6.12870403 -10.2203979 -4.0825836 0 0 Z M-31.21606445 13.81689453 C-32.6445446 14.35843674 -32.6445446 14.35843674 -34.10188293 14.91091919 C-35.64086494 15.50608841 -35.64086494 15.50608841 -37.2109375 16.11328125 C-38.27950485 16.52077606 -39.3480722 16.92827087 -40.44902039 17.34811401 C-43.87597057 18.65687535 -47.29926564 19.97492847 -50.72265625 21.29296875 C-52.98610581 22.15813393 -55.24977544 23.02272358 -57.51367188 23.88671875 C-76.05861747 29.21127762 -76.05861747 29.21127762 -92.41015625 38.16796875 C-92.51071648 39.8595587 -92.54092001 41.5553652 -92.54386902 43.24993896 C-92.548134 44.35160904 -92.55239899 45.45327911 -92.55679321 46.58833313 C-92.55634003 47.80796249 -92.55588684 49.02759186 -92.55541992 50.28417969 C-92.55877853 51.56066879 -92.56213715 52.8371579 -92.56559753 54.15232849 C-92.5744642 57.66749761 -92.57677703 61.1826424 -92.57741332 64.69782162 C-92.57812344 66.89750103 -92.58025723 69.09717424 -92.58291054 71.29685211 C-92.59217955 78.98224785 -92.59624433 86.66762621 -92.59545898 94.35302734 C-92.59486088 101.49475346 -92.60535587 108.63640339 -92.62120265 115.77811027 C-92.63434075 121.9201123 -92.63964012 128.06208967 -92.63900357 134.20410562 C-92.63875 137.86709275 -92.64152133 141.5300125 -92.65218163 145.19298553 C-92.66379106 149.29504957 -92.65907776 153.39694732 -92.65307617 157.49902344 C-92.65869568 158.69436203 -92.66431519 159.88970062 -92.67010498 161.1212616 C-92.58924774 183.010473 -86.23225217 202.86466396 -71.16015625 219.04296875 C-63.27653586 226.43128315 -53.64202649 231.79287267 -43.41015625 235.16796875 C-42.77078125 235.39226562 -42.13140625 235.6165625 -41.47265625 235.84765625 C-34.90880545 237.84416087 -29.74390342 237.16796875 -22.41015625 237.16796875 C-22.41015625 162.91796875 -22.41015625 88.66796875 -22.41015625 12.16796875 C-26.12841277 12.16796875 -27.85362784 12.52920986 -31.21606445 13.81689453 Z " fill="#FEFAFA" transform="translate(252.41015625,132.83203125)"></path><path d="M0 0 C0.895979 0.37125 0.895979 0.37125 1.81005859 0.75 C19.60788428 8.32316985 32.63277348 20.71586741 39.9921875 38.8828125 C45.751172 56.69548549 44.20419619 75.08765434 35.8125 91.8125 C26.47800295 108.01877573 12.0835796 118.62264436 -5.75 123.875 C-23.19736295 127.74706998 -40.8869462 124.47119478 -56 115 C-71.16142506 104.36707705 -80.88179552 89.51059903 -84.52734375 71.3046875 C-86.98255441 54.13850388 -82.92387 37.30025991 -72.96484375 23.09765625 C-56.44126227 1.85305149 -26.18328019 -10.9621654 0 0 Z M-59 26 C-68.89951015 38.26952 -73.32749622 51.18457123 -72.24267578 67.00195312 C-71.0766808 76.60205669 -66.90953071 85.43513856 -61 93 C-60.071875 94.3303125 -60.071875 94.3303125 -59.125 95.6875 C-50.58798238 104.97778388 -37.83011134 111.57864614 -25.234375 112.1796875 C-8.99724963 112.57066913 4.65331184 107.99072521 16.6875 96.75 C27.11486484 85.69506228 30.66443454 72.25505171 30.54077148 57.38769531 C30.01729043 43.30859884 23.3965385 32.0449168 13.5 22.3125 C1.80381359 12.21287891 -11.76036391 9.12081467 -26.95458984 9.82080078 C-38.85693191 10.86356983 -50.83462895 17.35318018 -59 26 Z " fill="#FEFAFA" transform="translate(360,291)"></path><path d="M0 0 C4.29 0 8.58 0 13 0 C13 8.25 13 16.5 13 25 C21.25 25 29.5 25 38 25 C38 29.62 38 34.24 38 39 C29.75 39 21.5 39 13 39 C13 47.25 13 55.5 13 64 C8.71 64 4.42 64 0 64 C0 55.42 0 46.84 0 38 C-8.58 38 -17.16 38 -26 38 C-26 34.04 -26 30.08 -26 26 C-17.42 26 -8.84 26 0 26 C0 17.42 0 8.84 0 0 Z " fill="#FDF7F8" transform="translate(333,320)"></path></svg>