<svg version="1.1" xmlns="http://www.w3.org/2000/svg" width="16px" height="16px" fill="currentColor" viewBox="0 0 512 512"><path d="M0 0 C168.96 0 337.92 0 512 0 C512 168.96 512 337.92 512 512 C343.04 512 174.08 512 0 512 C0 343.04 0 174.08 0 0 Z " fill="#438926" transform="translate(0,0)"></path><path d="M0 0 C3.43432298 1.3178971 6.74754745 2.81269958 10.06005859 4.41088867 C22.67661849 10.46979058 35.41198114 14.57714522 49.05566406 17.56347656 C50.72847952 17.93904086 52.39267838 18.35262189 54.0546875 18.7734375 C61.44638044 20.6363845 68.91180294 21.87275356 76.4375 23.0625 C77.94461548 23.30613281 77.94461548 23.30613281 79.48217773 23.5546875 C100.26449317 26.7358026 120.89930858 27.32416417 141.8762207 27.26074219 C145.67222637 27.24935864 149.46795139 27.25613218 153.26394749 27.26760387 C176.34128078 27.32713424 198.93196281 26.28283427 221.6875 22.1875 C222.43481384 22.05516968 223.18212769 21.92283936 223.9520874 21.78649902 C245.98684402 17.87453348 268.54163348 13.16125344 288.10546875 1.69140625 C291 0 291 0 293 0 C291.85213709 11.84690526 290.40809211 23.59938803 288.57046509 35.35861206 C286.043528 51.55021969 283.77477003 67.76443397 281.73706055 84.0246582 C280.46396017 94.07871186 278.84730241 104.03554883 277 114 C276.07960938 113.81304565 276.07960938 113.81304565 275.140625 113.62231445 C274.43421875 113.47882568 273.7278125 113.33533691 273 113.1875 C269.27036932 112.42991877 265.81377527 111.23222545 262.26318359 109.86791992 C259.84662555 108.94118164 257.41900882 108.04903861 254.98828125 107.16015625 C229.94042831 97.93211699 205.43918326 87.51594806 181.17089844 76.421875 C178.30158983 75.13523708 175.4165112 73.91294984 172.5078125 72.71875 C161.87557975 68.26357362 161.87557975 68.26357362 159.3515625 64.62109375 C158.55084062 62.33279224 158.18970916 60.40456364 158 58 C157.67 57.01 157.34 56.02 157 55 C154.62374655 53.81608777 154.62374655 53.81608777 152 53 C151.01 52.67 150.02 52.34 149 52 C142.88813129 51.41232032 139.90745381 52.60253198 135 56 C131.17739302 60.04536963 131.50284069 63.74542188 131.65234375 69.08203125 C132.12413495 73.04189668 133.22157549 75.14845906 136 78 C140.39420747 80.92947164 143.76914571 81.47553221 149 81 C149.845625 80.649375 150.69125 80.29875 151.5625 79.9375 C155.77600462 78.3169213 159.25299622 79.69779553 163.32275391 81.34423828 C164.54403105 81.9124703 165.76180107 82.48828143 166.9765625 83.0703125 C168.36493863 83.71861638 169.75336888 84.36680438 171.1418457 85.01489258 C171.8708609 85.35839752 172.5998761 85.70190247 173.35098267 86.05581665 C201.99444237 99.52322067 231.17627169 111.41683207 261 122 C263.61758458 122.93378511 266.2345479 123.86930639 268.8515625 124.8046875 C270.90102721 125.53649883 272.95050088 126.26828504 275 127 C274.01768723 135.00225522 273.01376143 143.00166956 272 151 C271.87271515 152.00628448 271.87271515 152.00628448 271.74285889 153.03289795 C269.28124231 172.47263901 266.65611859 191.88904042 263.83312988 211.27975464 C263.52967867 213.37134855 263.22942404 215.46340892 262.93249512 217.55593872 C262.51410691 220.49581989 262.08297389 223.43356159 261.6484375 226.37109375 C261.52667145 227.24240936 261.4049054 228.11372498 261.27944946 229.01144409 C260.42263442 234.67377404 259.47820325 240.65278001 255.15234375 244.75 C242.34477908 251.97825519 228.56764349 256.64343231 214.19215393 259.55453491 C212.73603189 259.8504318 211.28119503 260.15272838 209.82775879 260.46154785 C189.84494567 264.62632122 169.7497068 265.46835412 149.39257812 265.33618164 C145.47505386 265.31234823 141.55820478 265.31568432 137.640625 265.32226562 C124.29102345 265.30763131 111.21395883 264.94725559 98 263 C96.94796387 262.85409424 95.89592773 262.70818848 94.81201172 262.55786133 C43.63528399 255.09913476 43.63528399 255.09913476 32 240 C30.54923789 235.91556932 30.11180978 231.86168476 29.6875 227.5625 C29.54054687 226.36818359 29.39359375 225.17386719 29.2421875 223.94335938 C28.79838099 220.29835722 28.39855741 216.6501843 28 213 C27.63204293 209.96610746 27.25023738 206.93423758 26.86621094 203.90234375 C26.62132223 201.9615191 26.38111486 200.02009825 26.14550781 198.078125 C25.06577152 189.21784994 23.74427982 180.39919913 22.41015625 171.57421875 C21.40786086 164.89738944 20.52045864 158.23138911 19.78222656 151.52026367 C19.07559535 145.28059076 18.13178181 139.08256686 17.1875 132.875 C15.47446503 121.58156858 13.98707311 110.27019276 12.5625 98.9375 C11.01079199 86.60239961 9.35163887 74.29366492 7.5 62 C5.58612804 49.26778898 3.83765217 36.51909116 2.1875 23.75 C2.07631836 22.89954102 1.96513672 22.04908203 1.85058594 21.17285156 C1.53547602 18.75638181 1.22579144 16.33928261 0.91796875 13.921875 C0.82448654 13.2077948 0.73100433 12.4937146 0.63468933 11.75799561 C0.1405199 7.81256339 -0.09105349 3.9753568 0 0 Z " fill="#3F8624" transform="translate(100,157)"></path><path d="M0 0 C3.35302324 0.01546502 6.70571235 0.02080397 10.05874729 0.02005482 C13.30130529 0.0203916 16.54383195 0.02920998 19.78637695 0.0378418 C20.98210831 0.03895462 22.17783966 0.04006744 23.4098053 0.04121399 C24.51964279 0.04759384 25.62948029 0.05397369 26.77294922 0.06054688 C27.74361832 0.06435867 28.71428741 0.06817047 29.71437073 0.07209778 C32.37732755 0.20431394 34.80561006 0.6446449 37.4074707 1.20581055 C39.57250445 1.35647011 41.73962468 1.47827729 43.9074707 1.58081055 C50.45714093 1.98694167 56.91031454 2.72473924 63.4074707 3.64331055 C64.29112305 3.76561035 65.17477539 3.88791016 66.08520508 4.01391602 C71.00676114 4.73234362 75.63481811 5.77004229 80.4074707 7.20581055 C82.59096203 7.68287588 84.77867176 8.14099848 86.9699707 8.58081055 C110.26089645 13.53319686 134.36538079 21.49643326 153.4074707 36.20581055 C153.98883789 36.6234668 154.57020508 37.04112305 155.16918945 37.47143555 C159.4545679 40.70975679 162.48198229 44.2099105 164.4074707 49.20581055 C165.84088822 61.40030713 163.22106291 73.8470548 161.33007812 85.85162354 C160.39228283 91.80984305 159.4920031 97.77376408 158.5871582 103.73706055 C158.40324524 104.94302887 158.21933228 106.14899719 158.02984619 107.39151001 C156.18830569 119.52025226 154.52115466 131.66992922 152.9074707 143.83081055 C152.77814148 144.79569397 152.64881226 145.76057739 152.51556396 146.75469971 C152.1533978 149.45934292 151.7951538 152.16446897 151.4387207 154.86987305 C151.33286652 155.6621228 151.22701233 156.45437256 151.11795044 157.27062988 C150.68209008 160.62665718 150.4074707 163.81394157 150.4074707 167.20581055 C152.73840105 168.97201998 152.73840105 168.97201998 155.7824707 170.45581055 C165.05543503 175.57230498 178.42536654 183.78661566 182.4074707 194.20581055 C183.05100425 199.22686883 183.22106087 203.70379794 180.7824707 208.20581055 C174.92906439 213.13499481 169.94974665 213.65562899 162.5949707 213.51831055 C161.74354492 213.5215332 160.89211914 213.52475586 160.01489258 213.52807617 C154.21402127 213.47947786 149.02904116 212.63251852 143.4074707 211.20581055 C140.5156532 230.5934177 137.64876013 249.98043578 135.14700317 269.42279053 C133.57073781 281.66373259 131.94853884 293.89634367 130.10012817 306.09957886 C129.891319 307.48409059 129.68587529 308.86911484 129.48410034 310.25466919 C129.20585862 312.15658838 128.91245726 314.05627107 128.6184082 315.95581055 C128.37550049 317.55682617 128.37550049 317.55682617 128.12768555 319.19018555 C126.31612349 326.77541081 122.11280718 332.46829087 115.5949707 336.64331055 C99.88554824 346.23542148 81.57318123 350.6150236 63.6574707 353.89331055 C62.01838745 354.19700562 62.01838745 354.19700562 60.34619141 354.50683594 C41.80987544 357.73739329 23.25847803 358.61678819 4.4699707 358.58081055 C3.39085419 358.58026672 2.31173767 358.5797229 1.19992065 358.5791626 C-92.74743987 358.36339998 -92.74743987 358.36339998 -120.5925293 330.51831055 C-127.80148486 321.40413101 -127.47144684 307.88077092 -128.78393555 296.76831055 C-129.55119674 290.37225436 -130.49241034 284.01049042 -131.4675293 277.64331055 C-133.16183995 266.49618566 -134.62331481 255.32964466 -136.0300293 244.14331055 C-137.5818907 231.80826601 -139.23964225 219.49927228 -141.0925293 207.20581055 C-143.04790923 194.23065772 -144.77028336 181.23625979 -146.4050293 168.21704102 C-147.92088014 156.16839531 -149.59287429 144.15388565 -151.40301514 132.1461792 C-153.42102888 118.7286318 -155.15596742 105.28129264 -156.84716797 91.8190918 C-158.02034911 82.5056806 -159.2412353 73.20824857 -160.78051758 63.9465332 C-161.99127216 56.44841386 -162.30176519 51.05435397 -158.30737305 44.52612305 C-138.55302224 17.79700145 -92.59549499 8.64259389 -61.84634399 3.92172241 C-41.22659141 0.9010933 -20.8330223 -0.09964238 0 0 Z M-144.5925293 80.20581055 C-143.92998367 90.66407006 -142.69574283 101.006341 -141.3425293 111.39331055 C-141.23337189 112.24007355 -141.12421448 113.08683655 -141.01174927 113.95925903 C-139.38422378 126.57600876 -137.60731212 139.16512426 -135.71374512 151.7444458 C-134.18625116 161.90301926 -132.8247352 172.06985373 -131.5925293 182.26831055 C-130.15899998 194.12523651 -128.4675182 205.92105269 -126.63500977 217.72219849 C-125.37369825 225.85575455 -124.20431954 233.96959754 -123.40063477 242.16186523 C-122.43454861 251.47942512 -120.89060013 260.7303373 -119.4440918 269.9831543 C-117.66616492 281.39844101 -116.05668482 292.82481792 -115.0222168 304.3347168 C-114.83737393 306.14592012 -114.65247965 307.9571182 -114.4675293 309.76831055 C-114.36698242 311.14599609 -114.36698242 311.14599609 -114.2644043 312.55151367 C-113.69139587 317.66818507 -112.77734091 320.60761047 -108.91674805 324.13549805 C-89.8036928 338.68485005 -61.6264543 341.47261993 -38.5925293 344.20581055 C-37.53299545 344.33573898 -37.53299545 344.33573898 -36.45205688 344.46829224 C-29.43246059 345.26017345 -22.46457945 345.38349377 -15.4050293 345.40893555 C-14.14907959 345.41463562 -12.89312988 345.42033569 -11.59912109 345.4262085 C-8.94324145 345.43562039 -6.28747358 345.44253499 -3.6315918 345.44604492 C0.33993002 345.45251242 4.31107037 345.48666592 8.2824707 345.51831055 C29.54766063 345.60752352 50.64330741 344.31903582 71.4074707 339.45581055 C73.07507446 339.07392578 73.07507446 339.07392578 74.77636719 338.68432617 C94.96756613 333.87836932 94.96756613 333.87836932 112.4074707 323.20581055 C115.71898444 316.92629205 116.5133096 310.48731365 117.4934082 303.5144043 C117.6756192 302.27193939 117.8578302 301.02947449 118.04556274 299.74935913 C118.53361685 296.40520959 119.01291034 293.06004808 119.48760986 289.71399307 C119.8816674 286.94669423 120.28273841 284.18043054 120.6837883 281.41413784 C126.20343315 244.39105682 126.20343315 244.39105682 130.4074707 207.20581055 C129.66215088 206.95114014 128.91683105 206.69646973 128.14892578 206.43408203 C94.41187689 194.84072621 61.30151163 181.51829025 29.0715332 166.20581055 C28.06276123 165.73183838 27.05398926 165.25786621 26.01464844 164.76953125 C24.12985111 163.88111227 22.25118941 162.97950181 20.38037109 162.06201172 C14.20997862 159.15678775 10.92760735 159.03243167 4.4074707 161.20581055 C-1.69742632 161.79281988 -4.7234323 160.67036033 -9.5925293 157.20581055 C-13.54229405 151.85659535 -13.38453234 146.6219251 -12.5925293 140.20581055 C-10.25360622 135.79784013 -7.22949857 133.93330891 -2.5925293 132.20581055 C2.72516915 131.63605714 5.78595728 132.62636119 10.4074707 135.20581055 C11.0674707 135.20581055 11.7274707 135.20581055 12.4074707 135.20581055 C13.62522517 138.0762318 14.4458609 140.47116359 14.89575195 143.58081055 C17.12612984 148.92910688 20.56994926 149.92345083 25.7199707 152.14331055 C26.71617432 152.59512695 27.71237793 153.04694336 28.73876953 153.51245117 C31.62866091 154.81209325 34.52878003 156.08498667 37.4354248 157.34661865 C39.51640292 158.25327074 41.59270296 159.1700136 43.66821289 160.08911133 C68.26460667 170.9746309 93.01345158 181.83304607 118.6730957 189.98706055 C121.41381598 190.88152156 124.07970019 191.82872876 126.7668457 192.86206055 C130.0734 194.32123223 130.0734 194.32123223 132.4074707 194.20581055 C134.40996175 183.75309131 135.98425066 173.29582042 137.22900391 162.7253418 C138.93427323 148.37670072 141.12574546 134.08973017 143.23168945 119.7956543 C143.46101669 118.2375856 143.46101669 118.2375856 143.69497681 116.64804077 C144.97649031 107.94235465 144.97649031 107.94235465 145.58154297 103.86181641 C146.05088216 100.69430942 146.5166155 97.52628995 146.98168945 94.3581543 C147.12539474 93.39473618 147.26910004 92.43131805 147.41716003 91.43870544 C147.54762222 90.545793 147.67808441 89.65288055 147.8125 88.73291016 C147.92780563 87.95241806 148.04311127 87.17192596 148.16191101 86.36778259 C148.48270785 83.90604843 148.48270785 83.90604843 148.4074707 80.20581055 C145.1939108 81.47614771 142.01376753 82.7983543 138.8527832 84.1940918 C96.65695661 102.69061964 52.07899005 107.60508196 6.40087891 107.46655273 C2.60371608 107.45514862 -1.19316683 107.46195739 -4.99032021 107.47341347 C-27.3629089 107.531062 -49.1887772 106.38161304 -71.29125977 102.71118164 C-73.62036722 102.32620929 -75.95182437 101.95881678 -78.28393555 101.5925293 C-86.54535856 100.26277599 -94.49012758 98.58493697 -102.50366211 96.1418457 C-105.76312663 95.15411357 -109.042953 94.29865764 -112.3425293 93.45581055 C-122.05746438 90.69426048 -131.8299828 86.67264538 -140.49487305 81.4597168 C-142.47133226 80.03478231 -142.47133226 80.03478231 -144.5925293 80.20581055 Z " fill="#FBFCFA" transform="translate(244.592529296875,76.794189453125)"></path><path d="M0 0 C1.1864209 0.20898926 2.3728418 0.41797852 3.59521484 0.63330078 C29.38707893 5.38059687 64.78249587 13.1800849 83.29296875 33.51953125 C85 36 85 36 85 39.5 C82.67108525 47.65120164 75.95920952 51.03846777 69 55 C44.25918589 68.5915202 15.39271934 72.61580925 -12.1875 76.25 C-14.04689209 76.49508301 -14.04689209 76.49508301 -15.94384766 76.74511719 C-31.69924301 78.71585473 -47.33133666 79.20532239 -63.1875 79.1875 C-64.10319763 79.18722809 -65.01889526 79.18695618 -65.96234131 79.18667603 C-82.04717601 79.16484489 -97.98247639 78.57005639 -114 77 C-115.02077637 76.90348145 -116.04155273 76.80696289 -117.09326172 76.70751953 C-147.10594209 73.75997521 -191.29955347 68.63430126 -213.55859375 45.37109375 C-215.30400591 43.05796968 -216.03070809 40.86879269 -216.6875 38.0625 C-215.21380631 31.49786448 -209.55676479 28.20928118 -204.15869141 24.70727539 C-194.6665349 18.82143542 -184.48139386 14.76856687 -174 11 C-173.31325195 10.75266113 -172.62650391 10.50532227 -171.91894531 10.25048828 C-155.16299271 4.34925912 -137.607705 1.20899137 -120.0625 -1.25 C-118.90339111 -1.41314697 -117.74428223 -1.57629395 -116.55004883 -1.74438477 C-78.62312999 -6.78396333 -37.70497169 -6.67548339 0 0 Z " fill="#4D922C" transform="translate(312,94)"></path><path d="M0 0 C8.44379631 2.99273793 16.18582711 9.24298827 22 16 C22 16.99 22 17.98 22 19 C13.70316995 19.19676277 6.04924606 19.25943749 -2 17 C-1.85978195 14.35375716 -1.71310224 11.70815422 -1.5625 9.0625 C-1.52318359 8.30775391 -1.48386719 7.55300781 -1.44335938 6.77539062 C-1.11328125 1.11328125 -1.11328125 1.11328125 0 0 Z " fill="#519530" transform="translate(392,258)"></path></svg>