<svg version="1.1" xmlns="http://www.w3.org/2000/svg" width="16px" height="16px" fill="currentColor" viewBox="0 0 512 512"><path d="M0 0 C168.96 0 337.92 0 512 0 C512 168.96 512 337.92 512 512 C343.04 512 174.08 512 0 512 C0 343.04 0 174.08 0 0 Z " fill="#7847D4" transform="translate(0,0)"></path><path d="M0 0 C71.28 0 142.56 0 216 0 C216 55.44 216 110.88 216 168 C144.72 168 73.44 168 0 168 C0 112.56 0 57.12 0 0 Z " fill="#7041CC" transform="translate(148,256)"></path><path d="M0 0 C4.29 0 8.58 0 13 0 C13 12.21 13 24.42 13 37 C56.56 37 100.12 37 145 37 C145 24.79 145 12.58 145 0 C149.29 0 153.58 0 158 0 C158 11.88 158 23.76 158 36 C171.53 36 185.06 36 199 36 C199 100.02 199 164.04 199 230 C119.14 230 39.28 230 -43 230 C-43 166.31 -43 102.62 -43 37 C-28.81 37 -14.62 37 0 37 C0 24.79 0 12.58 0 0 Z M-30 49 C-30 104.44 -30 159.88 -30 217 C41.28 217 112.56 217 186 217 C186 161.56 186 106.12 186 49 C114.72 49 43.44 49 -30 49 Z " fill="#FCFBFE" transform="translate(178,207)"></path><path d="M0 0 C1.13199353 0.9080162 2.25532363 1.82683826 3.375 2.75 C4.00148437 3.26046875 4.62796875 3.7709375 5.2734375 4.296875 C7 6 7 6 9 10 C1.74 17.26 -5.52 24.52 -13 32 C77.09 32.33 167.18 32.66 260 33 C255.87137166 27.97769618 255.87137166 27.97769618 251.3125 23.75 C246.25936866 19.45049055 241.64551622 14.73119172 237 10 C238.38188453 6.78956118 239.92421903 4.95063635 242.625 2.75 C243.25664062 2.22921875 243.88828125 1.7084375 244.5390625 1.171875 C245.02117187 0.78515625 245.50328125 0.3984375 246 0 C246.8353125 0.85271484 246.8353125 0.85271484 247.6875 1.72265625 C248.450625 2.49480469 249.21375 3.26695312 250 4.0625 C250.7425 4.81660156 251.485 5.57070312 252.25 6.34765625 C254.33746879 8.36099617 256.43692146 10.25035017 258.63671875 12.1328125 C264.47474931 17.19705385 269.81853129 22.7611918 275.2409668 28.26147461 C276.62345034 29.6620081 278.00894861 31.0595637 279.39453125 32.45703125 C280.61426636 33.6941687 280.61426636 33.6941687 281.85864258 34.95629883 C284.02422475 37.14122979 284.02422475 37.14122979 287 39 C285.56741228 42.27196452 283.81174684 44.43203956 281.28466797 46.94238281 C280.1437117 48.08311249 280.1437117 48.08311249 278.97970581 49.24688721 C278.15882477 50.05744568 277.33794373 50.86800415 276.4921875 51.703125 C275.65156769 52.54091492 274.81094788 53.37870483 273.94485474 54.24188232 C271.25955999 56.91598431 268.56739345 59.58304724 265.875 62.25 C264.05292845 64.06204062 262.23130823 65.87453518 260.41015625 67.6875 C255.94532748 72.13028036 251.47483717 76.56730165 247 81 C245.86800647 80.0919838 244.74467637 79.17316174 243.625 78.25 C242.99851562 77.73953125 242.37203125 77.2290625 241.7265625 76.703125 C240 75 240 75 238 71 C245.92 63.08 253.84 55.16 262 47 C170.59 47 79.18 47 -15 47 C-6.01508862 56.05510161 -6.01508862 56.05510161 3.30859375 64.46484375 C5.84077676 66.76310685 7.89837748 69.30729614 10 72 C6.04 76.455 6.04 76.455 2 81 C-9.32573325 71.47608795 -19.84588213 61.26063668 -30.2331543 50.72998047 C-31.06500244 49.88967285 -31.89685059 49.04936523 -32.75390625 48.18359375 C-33.49970947 47.42618896 -34.2455127 46.66878418 -35.01391602 45.88842773 C-37.05544217 43.83928839 -37.05544217 43.83928839 -40 42 C-38.56741228 38.72803548 -36.81174684 36.56796044 -34.28466797 34.05761719 C-33.52403046 33.29713074 -32.76339294 32.53664429 -31.97970581 31.75311279 C-31.15882477 30.94255432 -30.33794373 30.13199585 -29.4921875 29.296875 C-28.65156769 28.45908508 -27.81094788 27.62129517 -26.94485474 26.75811768 C-24.25955999 24.08401569 -21.56739345 21.41695276 -18.875 18.75 C-17.05292845 16.93795938 -15.23130823 15.12546482 -13.41015625 13.3125 C-8.94532748 8.86971964 -4.47483717 4.43269835 0 0 Z " fill="#FBF9FD" transform="translate(130,144)"></path><path d="M0 0 C6.08633191 5.01835292 10.98196378 11.65301911 12.6328125 19.45703125 C13.59669768 29.65938512 11.93160543 37.75213029 5.3828125 45.76953125 C-0.25572651 51.73337059 -5.45909815 54.19757715 -13.3671875 56.45703125 C-13.3671875 70.31703125 -13.3671875 84.17703125 -13.3671875 98.45703125 C-17.6571875 98.45703125 -21.9471875 98.45703125 -26.3671875 98.45703125 C-26.3671875 84.26703125 -26.3671875 70.07703125 -26.3671875 55.45703125 C-28.0171875 55.12703125 -29.6671875 54.79703125 -31.3671875 54.45703125 C-39.22006515 50.51010666 -45.70434708 44.00507366 -48.89453125 35.6953125 C-50.57994268 27.71398401 -50.60720417 18.74106231 -46.69140625 11.4453125 C-41.52652429 3.69037174 -35.66346646 -1.52075315 -26.9296875 -4.85546875 C-17.37277531 -6.69978514 -8.30789234 -5.41521035 0 0 Z " fill="#FBFAFD" transform="translate(275.3671875,281.54296875)"></path><path d="M0 0 C16.53048109 14.03168743 27.90559984 31.29099158 30.6875 53.28125 C30.99076141 59.28237418 30.87126864 65.27814126 30.6875 71.28125 C26.3975 71.28125 22.1075 71.28125 17.6875 71.28125 C17.67332031 70.0953125 17.65914062 68.909375 17.64453125 67.6875 C17.13200649 46.61046664 11.12119462 29.3474757 -4.3125 14.28125 C-18.49204642 0.91350967 -36.11028624 -2.53719912 -55.00390625 -2.09375 C-71.79951732 -1.24807996 -85.82633697 7.34272096 -97.3125 19.28125 C-110.06766129 34.44065796 -113.59791079 52.08590542 -114.3125 71.28125 C-118.6025 71.28125 -122.8925 71.28125 -127.3125 71.28125 C-127.74391923 50.83677202 -124.59702138 33.16917875 -112.3125 16.28125 C-111.74144531 15.45367187 -111.17039063 14.62609375 -110.58203125 13.7734375 C-99.43085776 -1.39596268 -81.30669101 -12.39938712 -62.7265625 -15.2734375 C-39.76207162 -17.95592991 -18.54666331 -14.35158471 0 0 Z " fill="#FBFAFE" transform="translate(305.3125,92.71875)"></path><path d="M0 0 C5.1494644 3.20562685 8.27593488 6.241121 10.484375 11.90625 C11.4532482 17.55631053 10.55500187 22.13308608 7.76171875 27.11328125 C5.06561789 30.89771641 1.93362358 33.42316714 -2.515625 34.90625 C-8.58879046 35.61703529 -13.93777581 35.94064357 -19.078125 32.28125 C-23.12791232 28.64401897 -25.22181312 25.60634402 -25.82421875 20.0703125 C-26.01901641 15.28891544 -25.95435654 11.83433596 -23.890625 7.46875 C-17.31608108 0.37516314 -9.72994429 -4.23041056 0 0 Z " fill="#7445CF" transform="translate(264.515625,290.09375)"></path></svg>