<svg version="1.1" xmlns="http://www.w3.org/2000/svg" width="16px" height="16px" fill="currentColor" viewBox="0 0 512 512"><path d="M0 0 C168.96 0 337.92 0 512 0 C512 168.96 512 337.92 512 512 C343.04 512 174.08 512 0 512 C0 343.04 0 174.08 0 0 Z " fill="#438926" transform="translate(0,0)"></path><path d="M0 0 C1.2148407 -0.00574036 1.2148407 -0.00574036 2.45422363 -0.01159668 C4.16562138 -0.01431724 5.87706059 -0.00694584 7.58837891 0.00976562 C10.20960087 0.03117527 12.82808214 0.00997108 15.44921875 -0.015625 C17.11198522 -0.01298175 18.77474999 -0.00785681 20.4375 0 C21.22193481 -0.00809692 22.00636963 -0.01619385 22.8145752 -0.02453613 C28.22832087 0.0688609 28.22832087 0.0688609 30.7043457 2.40332031 C31.9118314 4.93627948 32.22232713 6.98562231 32.40625 9.78125 C32.47199219 10.67328125 32.53773438 11.5653125 32.60546875 12.484375 C32.66154297 13.49757813 32.66154297 13.49757813 32.71875 14.53125 C33.96295647 15.0657756 35.21445936 15.58333611 36.46875 16.09375 C37.16484375 16.38378906 37.8609375 16.67382812 38.578125 16.97265625 C41.08649937 17.6272138 42.32476275 17.49183116 44.71875 16.53125 C45.8634375 15.231875 45.8634375 15.231875 47.03125 13.90625 C49.71875 11.53125 49.71875 11.53125 53.02954102 11.57543945 C57.42689748 12.71471882 59.22641032 14.26545152 62.43359375 17.44921875 C62.93419815 17.94408279 63.43480255 18.43894684 63.95057678 18.94880676 C64.99893026 19.99309745 66.0398259 21.04492353 67.07348633 22.10375977 C68.65565494 23.71814282 70.26741459 25.29790583 71.88476562 26.87695312 C72.90297153 27.89912291 73.91931515 28.92315186 74.93359375 29.94921875 C75.85261475 30.87500732 76.77163574 31.8007959 77.71850586 32.75463867 C80.07748413 36.02922183 80.30031333 37.58173572 79.71875 41.53125 C77.91881226 44.23115662 76.634977 46.0731365 73.71875 47.53125 C74.37885476 50.37675012 75.23599966 53.05450999 76.28125 55.78125 C76.55066406 56.48765625 76.82007813 57.1940625 77.09765625 57.921875 C77.30261719 58.45296875 77.50757813 58.9840625 77.71875 59.53125 C78.85763672 59.56992187 78.85763672 59.56992187 80.01953125 59.609375 C81.51033203 59.69445312 81.51033203 59.69445312 83.03125 59.78125 C84.01738281 59.82765625 85.00351562 59.8740625 86.01953125 59.921875 C88.71875 60.53125 88.71875 60.53125 90.36035156 62.08886719 C92.2157121 65.42478143 92.16771551 68.49830864 92.15234375 72.21875 C92.1575856 72.95826904 92.16282745 73.69778809 92.16822815 74.4597168 C92.17463747 76.01968126 92.17332542 77.57969413 92.16479492 79.13964844 C92.15627711 81.52366231 92.18506892 83.90528477 92.21679688 86.2890625 C92.2184089 87.80729095 92.21783133 89.32552363 92.21484375 90.84375 C92.23169472 91.90952271 92.23169472 91.90952271 92.24888611 92.99682617 C92.20093697 96.40860198 91.94445954 98.23259974 89.86254883 100.98730469 C87.06995875 102.99850382 85.3727019 102.94334295 81.96875 102.78125 C80.98390625 102.74515625 79.9990625 102.7090625 78.984375 102.671875 C78.23671875 102.62546875 77.4890625 102.5790625 76.71875 102.53125 C76.595 103.3975 76.47125 104.26375 76.34375 105.15625 C75.73816879 108.42638853 74.83568965 111.40381899 73.71875 114.53125 C74.70875 115.3975 75.69875 116.26375 76.71875 117.15625 C78.88004786 119.36397192 79.67157762 120.36433234 80.53125 123.40625 C79.25175701 128.32737688 76.25559426 130.97270731 72.71875 134.53125 C72.13416016 135.12808594 71.54957031 135.72492188 70.94726562 136.33984375 C67.63332905 139.72302676 64.30434166 143.09123282 60.94921875 146.43359375 C60.37582764 147.00585693 59.80243652 147.57812012 59.21166992 148.16772461 C56.88923166 150.28887223 55.60283317 150.54655977 52.40625 150.96875 C48.47576461 150.50242122 48.12046531 150.37172573 45.78125 147.53125 C44.7603125 146.04625 44.7603125 146.04625 43.71875 144.53125 C42.2598074 145.00855838 40.80161504 145.48816042 39.34375 145.96875 C38.53164063 146.23558594 37.71953125 146.50242187 36.8828125 146.77734375 C34.70843201 147.48304729 34.70843201 147.48304729 32.71875 148.53125 C32.40141993 151.0200244 32.33927555 153.48144108 32.2578125 155.98828125 C31.53329315 159.40612252 30.49917198 160.41761109 27.71875 162.53125 C24.93512012 162.91710898 22.55590988 163.06978189 19.77734375 163.02734375 C19.01325699 163.02879898 18.24917023 163.03025421 17.46192932 163.03175354 C15.8506386 163.03009707 14.23933165 163.01856383 12.62817383 162.99780273 C10.160939 162.96880511 7.69584816 162.97720572 5.22851562 162.99023438 C3.66144789 162.98399786 2.09438693 162.97560759 0.52734375 162.96484375 C-0.21020645 162.96777939 -0.94775665 162.97071503 -1.70765686 162.97373962 C-6.77517663 162.88025746 -6.77517663 162.88025746 -9.25097656 161.17285156 C-10.79076164 158.71941203 -10.56965491 156.70272251 -10.46875 153.84375 C-10.42814453 152.35294922 -10.42814453 152.35294922 -10.38671875 150.83203125 C-10.35191406 150.07277344 -10.31710937 149.31351563 -10.28125 148.53125 C-11.69726714 148.05016725 -13.11409437 147.57146859 -14.53125 147.09375 C-15.32015625 146.82691406 -16.1090625 146.56007813 -16.921875 146.28515625 C-19.02946988 145.61170292 -21.12878973 145.03974405 -23.28125 144.53125 C-23.961875 145.52125 -24.6425 146.51125 -25.34375 147.53125 C-26.50390625 149.21875 -26.50390625 149.21875 -28.28125 150.53125 C-32.64419425 151.06576984 -34.63702892 150.98423516 -38.27905273 148.42333984 C-39.27624968 147.46528005 -40.25417295 146.48686933 -41.21484375 145.4921875 C-41.7376442 144.97371246 -42.26044464 144.45523743 -42.79908752 143.92105103 C-43.89568627 142.82483242 -44.98363054 141.71989532 -46.06323242 140.60693359 C-47.71587898 138.90919935 -49.40048123 137.24896025 -51.09179688 135.58984375 C-52.15573108 134.51769024 -53.21765249 133.44353482 -54.27734375 132.3671875 C-55.03186073 131.62618301 -55.03186073 131.62618301 -55.80162048 130.87020874 C-58.24182522 128.31201484 -59.24419613 126.83593044 -59.67602539 123.28515625 C-59.03485128 118.81240179 -56.60141863 117.43639755 -53.28125 114.53125 C-53.4978125 113.91636719 -53.714375 113.30148437 -53.9375 112.66796875 C-54.2159375 111.85972656 -54.494375 111.05148437 -54.78125 110.21875 C-55.0596875 109.41824219 -55.338125 108.61773437 -55.625 107.79296875 C-56.28125 105.53125 -56.28125 105.53125 -56.28125 102.53125 C-57.02890625 102.58925781 -57.7765625 102.64726562 -58.546875 102.70703125 C-60.02414062 102.77470703 -60.02414062 102.77470703 -61.53125 102.84375 C-62.50578125 102.90175781 -63.4803125 102.95976562 -64.484375 103.01953125 C-67.28125 102.53125 -67.28125 102.53125 -69.42504883 100.47363281 C-71.68459098 96.89188849 -71.84477822 94.06758615 -71.77734375 89.96484375 C-71.77879898 89.2489357 -71.78025421 88.53302765 -71.78175354 87.79542542 C-71.78009992 86.28846142 -71.76859871 84.7814796 -71.74780273 83.2746582 C-71.71879206 80.97208825 -71.72721381 78.67181567 -71.74023438 76.36914062 C-71.73399775 74.90103052 -71.72560739 73.43292765 -71.71484375 71.96484375 C-71.71777939 71.27933945 -71.72071503 70.59383514 -71.72373962 69.88755798 C-71.66402399 66.85453016 -71.41146047 64.76753426 -69.93652344 62.09106445 C-68.28125 60.53125 -68.28125 60.53125 -65.36328125 60.140625 C-64.28433594 60.18703125 -63.20539063 60.2334375 -62.09375 60.28125 C-61.00707031 60.31734375 -59.92039062 60.3534375 -58.80078125 60.390625 C-57.96933594 60.43703125 -57.13789063 60.4834375 -56.28125 60.53125 C-56.1575 59.62375 -56.03375 58.71625 -55.90625 57.78125 C-55.28125 54.53125 -55.28125 54.53125 -54.15625 52.40625 C-53.1335037 50.5831499 -53.1335037 50.5831499 -53.34375 48.59375 C-54.24527158 46.25781094 -54.24527158 46.25781094 -56.84375 44.15625 C-59.28125 41.53125 -59.28125 41.53125 -59.73266602 38.71606445 C-59.12978938 34.46267034 -57.50450572 32.97978437 -54.49609375 29.94921875 C-54.00218643 29.44957108 -53.50827911 28.9499234 -52.99940491 28.43513489 C-51.95333883 27.38499647 -50.89969926 26.34235478 -49.83911133 25.30688477 C-48.2269084 23.72674614 -46.64915355 22.11724769 -45.07226562 20.50195312 C-44.04879252 19.48244639 -43.02345893 18.46480329 -41.99609375 17.44921875 C-41.06917725 16.52906982 -40.14226074 15.6089209 -39.18725586 14.66088867 C-35.77643059 12.16129791 -33.47372186 11.67865755 -29.28125 11.53125 C-27.4609375 12.78125 -27.4609375 12.78125 -26.15625 14.53125 C-24.73774235 16.20225098 -24.73774235 16.20225098 -23.28125 17.53125 C-20.76375172 17.67893913 -20.76375172 17.67893913 -18.28125 16.53125 C-17.023125 16.180625 -15.765 15.83 -14.46875 15.46875 C-13.416875 15.159375 -12.365 14.85 -11.28125 14.53125 C-11.33345703 13.51804687 -11.33345703 13.51804687 -11.38671875 12.484375 C-11.41378906 11.59234375 -11.44085938 10.7003125 -11.46875 9.78125 C-11.50355469 8.89953125 -11.53835938 8.0178125 -11.57421875 7.109375 C-10.76587956 -0.00400983 -6.17930409 -0.06378268 0 0 Z " fill="#468C29" transform="translate(346.28125,262.46875)"></path><path d="M0 0 C1.8140485 -0.00807831 1.8140485 -0.00807831 3.66474444 -0.01631981 C7.00014451 -0.02810346 10.33504149 -0.02655083 13.670421 -0.019153 C17.27582801 -0.01440712 20.88118235 -0.02694365 24.48657227 -0.03717041 C31.54132031 -0.05433573 38.5959792 -0.05520319 45.6507427 -0.04995751 C51.38653095 -0.04591053 57.12229291 -0.04736563 62.85807991 -0.05270576 C63.6754802 -0.05345419 64.49288049 -0.05420261 65.33505048 -0.05497371 C66.99577137 -0.05650524 68.65649225 -0.05804359 70.31721313 -0.05958868 C85.87859178 -0.07330539 101.43992011 -0.06788175 117.0012976 -0.05640347 C131.22684454 -0.04647081 145.45226143 -0.05941376 159.67778831 -0.08333766 C174.29823549 -0.10773976 188.91862213 -0.11733387 203.53908926 -0.11068493 C211.74192784 -0.10719533 219.9446664 -0.10940773 228.14748955 -0.12693596 C235.12990399 -0.1416718 242.11214797 -0.14227533 249.09455913 -0.12486505 C252.65436071 -0.11636417 256.21385794 -0.11418278 259.77364349 -0.1295166 C263.6387201 -0.14595888 267.50332927 -0.13119029 271.3684082 -0.11352539 C273.04308801 -0.1279329 273.04308801 -0.1279329 274.75159973 -0.14263147 C286.20949294 -0.0350686 296.03535366 4.17876346 304.46644592 11.9775238 C311.30680387 19.39372821 314.87573875 27.98069277 314.86795044 37.98088074 C314.86923208 38.97218518 314.86923208 38.97218518 314.87053961 39.98351598 C314.8721856 42.19606447 314.86668747 44.408537 314.86122131 46.62107849 C314.86093923 48.20785521 314.8610976 49.79463205 314.86166382 51.38140869 C314.86195095 55.68889711 314.85606777 59.99635773 314.84908986 64.30383968 C314.84284236 68.80551958 314.84225142 73.3072001 314.84106445 77.80888367 C314.83795527 86.33337994 314.82974742 94.8578634 314.81971496 103.38235402 C314.80854104 113.08721806 314.80304015 122.79208271 314.79801953 132.49695158 C314.78756448 152.46053508 314.76977177 172.42410631 314.74769592 192.38768005 C310.45769592 192.38768005 306.16769592 192.38768005 301.74769592 192.38768005 C301.74405029 190.40095276 301.74040466 188.41422546 301.73664856 186.36729431 C301.70041141 167.6507496 301.64220483 148.93436517 301.56379318 130.21794891 C301.52400788 120.59548671 301.49161279 110.97310623 301.47669983 101.35057068 C301.46368069 92.96217368 301.4367093 84.57395654 301.39308286 76.18566084 C301.37047395 71.74534357 301.3547849 67.30524809 301.35581207 62.86486816 C301.35655902 58.68196392 301.33859438 54.49954985 301.30652809 50.31677246 C301.29803764 48.78500098 301.29627337 47.25317447 301.30189323 45.72138977 C301.33270356 36.02956518 300.89887879 29.17750644 294.31019592 21.57518005 C289.00634098 17.047499 283.63588852 14.14166017 276.57891369 14.13041115 C275.55325713 14.12396226 274.52760058 14.11751336 273.47086352 14.11086905 C272.35083684 14.11396625 271.23081015 14.11706346 270.07684326 14.12025452 C268.88173482 14.1157234 267.68662638 14.11119229 266.45530254 14.10652387 C263.14131114 14.0960524 259.82753674 14.09455422 256.5135442 14.09691262 C252.93810606 14.09732081 249.36270028 14.08628146 245.78727722 14.07679749 C238.78347205 14.06018681 231.77970054 14.05468791 224.77587732 14.05357273 C219.08240997 14.05262227 213.38895372 14.04851208 207.69548988 14.04217148 C191.55165447 14.02455874 175.40784565 14.01533264 159.26400056 14.01683243 C157.95860921 14.01695229 157.95860921 14.01695229 156.62684631 14.01707458 C155.31986011 14.01719723 155.31986011 14.01719723 153.98647014 14.01732235 C139.86601965 14.01813522 125.74567584 13.99899744 111.6252562 13.97079785 C97.12473255 13.9420678 82.62426091 13.92825763 68.12370807 13.9299854 C59.98346471 13.93064927 51.84333318 13.92515838 43.70311546 13.9036293 C36.77215804 13.88541588 29.84136313 13.88107142 22.91039213 13.89464815 C19.37516233 13.90117712 15.8402443 13.90129802 12.30504417 13.88394165 C8.46971837 13.86530572 4.6348475 13.87776747 0.79949951 13.89320374 C-0.31383501 13.88291661 -1.42716953 13.87262948 -2.57424146 13.86203063 C-9.28066257 13.92171532 -13.49994087 14.89950624 -19.25230408 18.38768005 C-20.13917908 18.92393005 -21.02605408 19.46018005 -21.93980408 20.01268005 C-31.14209484 29.46368138 -29.95282013 41.01434003 -29.86753845 53.31590271 C-29.87104289 55.44230593 -29.87670511 57.56870652 -29.88435364 59.69509888 C-29.89856286 65.44916792 -29.88157866 71.20275687 -29.85806847 76.95677996 C-29.83791598 82.98683496 -29.84384123 89.01687089 -29.84617615 95.04695129 C-29.84612263 105.16972238 -29.8263971 115.29230646 -29.79429626 125.4150238 C-29.75738613 137.11102457 -29.7486241 148.80678064 -29.75559378 160.50283206 C-29.76190253 171.76677219 -29.75113882 183.03062861 -29.73162842 194.29455185 C-29.72346312 199.08303904 -29.72074326 203.87148339 -29.72232056 208.65997696 C-29.72320058 214.29896207 -29.70895121 219.93771526 -29.68309402 225.57663918 C-29.67594289 227.64379947 -29.67384352 229.71098445 -29.67721176 231.77815437 C-29.68093734 234.60394507 -29.66614153 237.42906292 -29.64671326 240.254776 C-29.65204118 241.06898785 -29.65736911 241.8831997 -29.66285849 242.72208464 C-29.57806057 249.89099366 -27.88154215 256.57835402 -22.85897636 262.01598835 C-14.99859683 268.72676408 -6.54106652 269.11430463 3.37709045 269.04710388 C4.82683686 269.05557222 6.27657189 269.06622323 7.72628784 269.07887268 C11.63275668 269.10685325 15.53867333 269.10457717 19.44521189 269.09657884 C23.53854253 269.09343982 27.63170155 269.11852875 31.72496033 269.14053345 C39.46304763 269.17788927 47.20095921 269.19011641 54.9391278 269.19315785 C63.75427015 269.1978579 72.56923749 269.23081148 81.38430238 269.2660557 C99.50542222 269.33787855 117.62644556 269.37348702 135.74769592 269.38768005 C135.74769592 273.67768005 135.74769592 277.96768005 135.74769592 282.38768005 C116.77129251 282.4804364 97.79495353 282.55174045 78.81836987 282.59492874 C70.0064031 282.61551844 61.19458013 282.64357 52.38270569 282.68943787 C44.69864069 282.72941601 37.01467989 282.75513896 29.33051378 282.76403403 C25.26505363 282.76923029 21.19989147 282.78136757 17.13452721 282.81060028 C13.30053909 282.83794339 9.46696898 282.84608737 5.63289261 282.84011078 C4.23295246 282.84120264 2.83299694 282.84904359 1.43314171 282.86450195 C-10.97939571 282.99473766 -21.60263489 280.55700226 -31.25230408 272.38768005 C-43.40590708 260.06255443 -43.98591103 246.32144831 -43.89927673 230.02049255 C-43.90606143 227.87072511 -43.91496932 225.72096349 -43.92582703 223.57121277 C-43.94852534 217.76123924 -43.93982302 211.9517121 -43.9239316 206.14173126 C-43.91122352 200.0454798 -43.92302631 193.94926514 -43.93086243 187.85301208 C-43.93994469 177.61775388 -43.92800833 167.38267641 -43.90415955 157.14744568 C-43.8769512 145.33438444 -43.88576636 133.52175478 -43.91329157 121.70870399 C-43.9360221 111.54441461 -43.93916341 101.38025471 -43.92609823 91.2159481 C-43.91832545 85.15481371 -43.91720233 79.0938818 -43.93378067 73.03276062 C-43.94828348 67.33289254 -43.93809731 61.63357787 -43.90930939 55.93376923 C-43.90272962 53.84893459 -43.90454259 51.76405294 -43.91562271 49.67923737 C-43.98497938 35.29712106 -42.93899095 22.20935666 -32.25230408 11.38768005 C-21.98703381 2.55922833 -13.37240192 -0.07184223 0 0 Z " fill="#FAFCFA" transform="translate(120.25230407714844,82.61231994628906)"></path><path d="M0 0 C0.80370529 -0.00671722 1.60741058 -0.01343445 2.43547058 -0.02035522 C5.08920489 -0.03933612 7.74268643 -0.04325909 10.39648438 -0.04541016 C12.24206649 -0.05183675 14.08764758 -0.05856501 15.93322754 -0.06558228 C19.80007287 -0.07755434 23.66682885 -0.08126304 27.53369141 -0.08007812 C32.49049296 -0.07987465 37.44672302 -0.10720667 42.40338898 -0.14162254 C46.21407712 -0.16384701 50.0246266 -0.16791708 53.83537292 -0.16685867 C55.6630399 -0.1692202 57.49071039 -0.1780747 59.3183136 -0.19352341 C61.8727746 -0.21309884 64.42598808 -0.20737983 66.98046875 -0.1953125 C67.73591476 -0.20655151 68.49136078 -0.21779053 69.2696991 -0.22937012 C72.77280858 -0.18727327 74.63698503 0.01528441 77.43951416 2.19894409 C78.99818705 4.30125376 79.69747403 5.72383972 80.25585938 8.25927734 C80.4234375 8.99533203 80.59101563 9.73138672 80.76367188 10.48974609 C80.9209375 11.24900391 81.07820313 12.00826172 81.24023438 12.79052734 C81.41296875 13.54978516 81.58570313 14.30904297 81.76367188 15.09130859 C82.54892563 18.64987919 82.99023438 21.60396433 82.99023438 25.29052734 C114.01023438 25.29052734 145.03023438 25.29052734 176.99023438 25.29052734 C177.32023438 22.65052734 177.65023437 20.01052734 177.99023438 17.29052734 C178.52001473 14.63154277 179.21827282 12.03183167 179.92773438 9.41552734 C180.09724609 8.75294922 180.26675781 8.09037109 180.44140625 7.40771484 C181.74304081 2.53772091 181.74304081 2.53772091 183.99023438 0.29052734 C186.62766801 0.07632662 189.16142618 -0.01357761 191.80126953 -0.01586914 C193.01138199 -0.02835442 193.01138199 -0.02835442 194.24594116 -0.04109192 C196.92377503 -0.06526376 199.60136533 -0.07397503 202.27929688 -0.08056641 C204.14057489 -0.08953107 206.00185215 -0.09865289 207.86312866 -0.10792542 C211.77221427 -0.1244401 215.68121402 -0.13211936 219.59033203 -0.13500977 C224.58726488 -0.14037976 229.58338398 -0.17799155 234.58008766 -0.22375393 C238.42868955 -0.25358321 242.27709749 -0.26073468 246.1258049 -0.26173592 C247.96692994 -0.26593072 249.80805595 -0.27833524 251.64906693 -0.29925346 C254.23425094 -0.32627499 256.81757635 -0.32131004 259.40283203 -0.30883789 C260.15638977 -0.32367218 260.90994751 -0.33850647 261.68634033 -0.35379028 C268.45582539 -0.26133651 273.0103111 2.67877991 278.01367188 7.06396484 C278.4596875 7.59248047 278.90570313 8.12099609 279.36523438 8.66552734 C280.05746094 9.45056641 280.05746094 9.45056641 280.76367188 10.25146484 C284.69254383 16.78290166 284.26480465 23.91171519 284.21728516 31.28442383 C284.21757721 32.47538162 284.21786926 33.66633942 284.21817017 34.89338684 C284.21701992 38.14087248 284.20702591 41.38818321 284.19302225 44.63563418 C284.18047495 48.03622085 284.17934125 51.43681136 284.17697144 54.8374176 C284.17076838 61.26875697 284.15437355 67.70002791 284.13427246 74.13133723 C284.1118768 81.4566226 284.10091083 88.78191132 284.09088159 96.10722244 C284.0700062 111.1683631 284.03444781 126.2294358 283.99023438 141.29052734 C279.70023437 141.29052734 275.41023438 141.29052734 270.99023438 141.29052734 C270.98880936 139.77320511 270.98738434 138.25588287 270.98591614 136.69258118 C270.96925845 122.4045906 270.92681987 108.11693617 270.85814381 93.82911396 C270.82349741 86.48329158 270.79813878 79.13765678 270.79467773 71.79174805 C270.79163731 65.38867443 270.77113688 58.98593492 270.7297098 52.58299035 C270.7083845 49.19288456 270.69577634 45.80325367 270.70408058 42.41308022 C270.70896411 38.627324 270.68298994 34.84295852 270.6496582 31.05737305 C270.65828384 29.93455933 270.66690948 28.81174561 270.67579651 27.65490723 C270.60558687 22.90888802 270.53908395 20.13059208 267.90332031 16.09631348 C264.26148278 13.8387832 261.99790481 13.65326139 257.72143555 13.63110352 C256.65232437 13.61537796 256.65232437 13.61537796 255.56161499 13.59933472 C253.21836425 13.57065639 250.8765974 13.57686695 248.53320312 13.58349609 C246.90365249 13.57037653 245.27411812 13.5550715 243.64460754 13.53767395 C239.36527927 13.49784066 235.08637656 13.48763464 230.80688477 13.48364258 C226.43622949 13.47430791 222.06582393 13.43689233 217.6953125 13.40185547 C209.12694851 13.3372967 200.5588302 13.30404271 191.99023438 13.29052734 C191.9251619 13.90119553 191.86008942 14.51186371 191.79304504 15.14103699 C191.70576645 15.94600113 191.61848785 16.75096527 191.52856445 17.58032227 C191.44286697 18.37661545 191.35716949 19.17290863 191.26887512 19.99333191 C190.91458012 22.91424307 190.35636824 25.7406331 189.67773438 28.60302734 C189.45472656 29.58916016 189.23171875 30.57529297 189.00195312 31.59130859 C187.74146788 34.95422482 186.92674119 36.17002552 183.99023438 38.29052734 C180.56121418 38.90053249 177.16057424 38.83654928 173.68554688 38.80810547 C172.63800232 38.81511475 171.59045776 38.82212402 170.51116943 38.8293457 C167.04558877 38.8469629 163.58082347 38.83528913 160.11523438 38.82177734 C157.70914554 38.82447117 155.30305776 38.82835267 152.89697266 38.83337402 C147.85308472 38.83927415 142.80948003 38.83068919 137.765625 38.81201172 C131.29547582 38.78922234 124.8259903 38.8023426 118.35586548 38.82630157 C113.38707465 38.84074539 108.41844154 38.83615997 103.449646 38.82579041 C101.06378094 38.82311922 98.67790164 38.82640657 96.29205322 38.83570862 C92.9592894 38.84585044 89.62760514 38.83040495 86.29492188 38.80810547 C85.3057074 38.81620239 84.31649292 38.82429932 83.29730225 38.8326416 C76.64497147 38.75004609 76.64497147 38.75004609 73.42529297 36.49035645 C71.36056795 33.32529949 70.54985579 29.99300561 69.74023438 26.35302734 C69.5675 25.64984375 69.39476562 24.94666016 69.21679688 24.22216797 C68.33659341 20.49527471 67.91273278 17.10583213 67.99023438 13.29052734 C58.55827158 13.30540451 49.12691385 13.34700749 39.69524097 13.42261791 C35.31555665 13.45689094 30.93622126 13.48199833 26.55639648 13.48608398 C22.32855575 13.49036635 18.10150215 13.518823 13.87390709 13.56395912 C12.26204706 13.57693626 10.65009284 13.581241 9.03818703 13.57668114 C6.77760748 13.57177618 4.51932954 13.59785682 2.2590332 13.63110352 C0.9732991 13.63776535 -0.312435 13.64442719 -1.63713074 13.65129089 C-6.00076927 14.47835842 -7.26798897 15.83343027 -10.00976562 19.29052734 C-10.49728966 22.03374095 -10.67587861 24.15352206 -10.62449646 26.88819885 C-10.63017972 27.6451059 -10.63586297 28.40201295 -10.64171845 29.18185657 C-10.65462148 31.71416631 -10.63183353 34.2448775 -10.60913086 36.77709961 C-10.61099494 38.59398738 -10.61503163 40.41087402 -10.62107849 42.22775269 C-10.63105927 47.15960521 -10.60987331 52.09088368 -10.58259845 57.02265286 C-10.55878064 62.18175231 -10.56171349 67.34084012 -10.56129456 72.49998474 C-10.5566656 81.16293058 -10.5330168 89.82565672 -10.49682617 98.48852539 C-10.45507904 108.50819748 -10.43751058 118.52767174 -10.43420643 128.54742581 C-10.43060838 139.20987569 -10.411736 149.87225426 -10.38708615 160.53467441 C-10.38085415 163.60951247 -10.37721997 166.6843451 -10.37405205 169.7591877 C-10.3681559 174.58795759 -10.35185509 179.41658578 -10.32744789 184.24529648 C-10.32000086 186.01903501 -10.31593551 187.79279138 -10.31546783 189.56654549 C-10.31421213 191.98445677 -10.30068276 194.40199316 -10.28392029 196.81983948 C-10.28633537 197.52460295 -10.28875046 198.22936642 -10.29123873 198.95548636 C-10.25215651 202.54703736 -10.11368846 205.30985413 -8.00976562 208.29052734 C-4.63275086 210.54187052 -3.47991979 210.54696103 0.47612 210.56900024 C1.61615479 210.58016373 2.75618958 210.59132721 3.93077087 210.60282898 C5.80811668 210.60606926 5.80811668 210.60606926 7.72338867 210.609375 C9.69914383 210.62444344 9.69914383 210.62444344 11.71481323 210.63981628 C15.3281443 210.66714983 18.94143632 210.68227556 22.55484366 210.69524431 C26.33053815 210.71086023 30.10615269 210.73765533 33.88179016 210.76327515 C41.03214402 210.81009026 48.18251288 210.84682111 55.33294183 210.87994802 C63.47317187 210.91815013 71.61332168 210.96756527 79.75348413 211.01793218 C96.49901094 211.12129266 113.24458134 211.21014188 129.99023438 211.29052734 C129.99023438 215.58052734 129.99023438 219.87052734 129.99023438 224.29052734 C112.43079072 224.40646579 94.87150085 224.49559896 77.31176186 224.5495882 C69.15774091 224.57532704 61.00396274 224.61039432 52.85009766 224.66772461 C45.73993045 224.7176926 38.62993915 224.74984974 31.51960123 224.76096982 C27.75757268 224.76746609 23.99604715 224.78264236 20.23418045 224.81917763 C16.68657054 224.85334987 13.13966638 224.86353828 9.5919075 224.85606575 C7.68290407 224.85807733 5.77397588 224.88486089 3.86517334 224.91262817 C-3.76230513 224.86735799 -9.69400703 223.76353585 -16.00976562 219.29052734 C-22.46278565 212.66782932 -24.31575185 205.6349148 -24.28392029 196.45475769 C-24.28915697 195.69629164 -24.29439365 194.93782558 -24.29978901 194.15637571 C-24.31471472 191.63097024 -24.31549251 189.1057687 -24.31616211 186.58032227 C-24.32378855 184.76302247 -24.33221688 182.9457259 -24.34138489 181.12843323 C-24.36328771 176.20270728 -24.372123 171.27704339 -24.37721133 166.35127425 C-24.38085959 163.27081493 -24.38710206 160.19037175 -24.39421272 157.10991859 C-24.4186916 146.35460321 -24.43175595 135.59933596 -24.43530273 124.84399414 C-24.4389378 114.83225742 -24.46883521 104.82082728 -24.51070732 94.80918425 C-24.5454395 86.20172874 -24.56085167 77.5943747 -24.56154877 68.98684961 C-24.56234051 63.8512089 -24.57103239 58.71588077 -24.59954643 53.58031273 C-24.62577756 48.74810421 -24.62790413 43.91646638 -24.61189079 39.08421898 C-24.61008038 37.31620028 -24.61673006 35.54814837 -24.6327095 33.78020096 C-24.71965287 23.53176146 -24.69457708 14.21628312 -17.16640377 6.36903667 C-11.71485933 1.36343908 -7.40383925 -0.00888301 0 0 Z " fill="#F9FBF9" transform="translate(126.009765625,108.70947265625)"></path><path d="M0 0 C1.2148407 -0.00574036 1.2148407 -0.00574036 2.45422363 -0.01159668 C4.16562138 -0.01431724 5.87706059 -0.00694584 7.58837891 0.00976562 C10.20960087 0.03117527 12.82808214 0.00997108 15.44921875 -0.015625 C17.11198522 -0.01298175 18.77474999 -0.00785681 20.4375 0 C21.22193481 -0.00809692 22.00636963 -0.01619385 22.8145752 -0.02453613 C28.22832087 0.0688609 28.22832087 0.0688609 30.7043457 2.40332031 C31.9118314 4.93627948 32.22232713 6.98562231 32.40625 9.78125 C32.47199219 10.67328125 32.53773438 11.5653125 32.60546875 12.484375 C32.66154297 13.49757813 32.66154297 13.49757813 32.71875 14.53125 C33.96295647 15.0657756 35.21445936 15.58333611 36.46875 16.09375 C37.16484375 16.38378906 37.8609375 16.67382812 38.578125 16.97265625 C41.08649937 17.6272138 42.32476275 17.49183116 44.71875 16.53125 C45.8634375 15.231875 45.8634375 15.231875 47.03125 13.90625 C49.71875 11.53125 49.71875 11.53125 53.02954102 11.57543945 C57.42689748 12.71471882 59.22641032 14.26545152 62.43359375 17.44921875 C62.93419815 17.94408279 63.43480255 18.43894684 63.95057678 18.94880676 C64.99893026 19.99309745 66.0398259 21.04492353 67.07348633 22.10375977 C68.65565494 23.71814282 70.26741459 25.29790583 71.88476562 26.87695312 C72.90297153 27.89912291 73.91931515 28.92315186 74.93359375 29.94921875 C75.85261475 30.87500732 76.77163574 31.8007959 77.71850586 32.75463867 C80.07748413 36.02922183 80.30031333 37.58173572 79.71875 41.53125 C77.91881226 44.23115662 76.634977 46.0731365 73.71875 47.53125 C74.37885476 50.37675012 75.23599966 53.05450999 76.28125 55.78125 C76.55066406 56.48765625 76.82007813 57.1940625 77.09765625 57.921875 C77.30261719 58.45296875 77.50757813 58.9840625 77.71875 59.53125 C78.85763672 59.56992187 78.85763672 59.56992187 80.01953125 59.609375 C81.51033203 59.69445312 81.51033203 59.69445312 83.03125 59.78125 C84.01738281 59.82765625 85.00351562 59.8740625 86.01953125 59.921875 C88.71875 60.53125 88.71875 60.53125 90.36035156 62.08886719 C92.2157121 65.42478143 92.16771551 68.49830864 92.15234375 72.21875 C92.1575856 72.95826904 92.16282745 73.69778809 92.16822815 74.4597168 C92.17463747 76.01968126 92.17332542 77.57969413 92.16479492 79.13964844 C92.15627711 81.52366231 92.18506892 83.90528477 92.21679688 86.2890625 C92.2184089 87.80729095 92.21783133 89.32552363 92.21484375 90.84375 C92.23169472 91.90952271 92.23169472 91.90952271 92.24888611 92.99682617 C92.20093697 96.40860198 91.94445954 98.23259974 89.86254883 100.98730469 C87.06995875 102.99850382 85.3727019 102.94334295 81.96875 102.78125 C80.98390625 102.74515625 79.9990625 102.7090625 78.984375 102.671875 C78.23671875 102.62546875 77.4890625 102.5790625 76.71875 102.53125 C76.595 103.3975 76.47125 104.26375 76.34375 105.15625 C75.73816879 108.42638853 74.83568965 111.40381899 73.71875 114.53125 C74.70875 115.3975 75.69875 116.26375 76.71875 117.15625 C78.88004786 119.36397192 79.67157762 120.36433234 80.53125 123.40625 C79.25175701 128.32737688 76.25559426 130.97270731 72.71875 134.53125 C72.13416016 135.12808594 71.54957031 135.72492188 70.94726562 136.33984375 C67.63332905 139.72302676 64.30434166 143.09123282 60.94921875 146.43359375 C60.37582764 147.00585693 59.80243652 147.57812012 59.21166992 148.16772461 C56.88923166 150.28887223 55.60283317 150.54655977 52.40625 150.96875 C48.47576461 150.50242122 48.12046531 150.37172573 45.78125 147.53125 C44.7603125 146.04625 44.7603125 146.04625 43.71875 144.53125 C42.2598074 145.00855838 40.80161504 145.48816042 39.34375 145.96875 C38.53164063 146.23558594 37.71953125 146.50242187 36.8828125 146.77734375 C34.70843201 147.48304729 34.70843201 147.48304729 32.71875 148.53125 C32.40141993 151.0200244 32.33927555 153.48144108 32.2578125 155.98828125 C31.53329315 159.40612252 30.49917198 160.41761109 27.71875 162.53125 C24.93512012 162.91710898 22.55590988 163.06978189 19.77734375 163.02734375 C19.01325699 163.02879898 18.24917023 163.03025421 17.46192932 163.03175354 C15.8506386 163.03009707 14.23933165 163.01856383 12.62817383 162.99780273 C10.160939 162.96880511 7.69584816 162.97720572 5.22851562 162.99023438 C3.66144789 162.98399786 2.09438693 162.97560759 0.52734375 162.96484375 C-0.21020645 162.96777939 -0.94775665 162.97071503 -1.70765686 162.97373962 C-6.77517663 162.88025746 -6.77517663 162.88025746 -9.25097656 161.17285156 C-10.79076164 158.71941203 -10.56965491 156.70272251 -10.46875 153.84375 C-10.42814453 152.35294922 -10.42814453 152.35294922 -10.38671875 150.83203125 C-10.35191406 150.07277344 -10.31710937 149.31351563 -10.28125 148.53125 C-11.69726714 148.05016725 -13.11409437 147.57146859 -14.53125 147.09375 C-15.32015625 146.82691406 -16.1090625 146.56007813 -16.921875 146.28515625 C-19.02946988 145.61170292 -21.12878973 145.03974405 -23.28125 144.53125 C-23.961875 145.52125 -24.6425 146.51125 -25.34375 147.53125 C-26.50390625 149.21875 -26.50390625 149.21875 -28.28125 150.53125 C-32.64419425 151.06576984 -34.63702892 150.98423516 -38.27905273 148.42333984 C-39.27624968 147.46528005 -40.25417295 146.48686933 -41.21484375 145.4921875 C-41.7376442 144.97371246 -42.26044464 144.45523743 -42.79908752 143.92105103 C-43.89568627 142.82483242 -44.98363054 141.71989532 -46.06323242 140.60693359 C-47.71587898 138.90919935 -49.40048123 137.24896025 -51.09179688 135.58984375 C-52.15573108 134.51769024 -53.21765249 133.44353482 -54.27734375 132.3671875 C-55.03186073 131.62618301 -55.03186073 131.62618301 -55.80162048 130.87020874 C-58.24182522 128.31201484 -59.24419613 126.83593044 -59.67602539 123.28515625 C-59.03485128 118.81240179 -56.60141863 117.43639755 -53.28125 114.53125 C-53.4978125 113.91636719 -53.714375 113.30148437 -53.9375 112.66796875 C-54.2159375 111.85972656 -54.494375 111.05148437 -54.78125 110.21875 C-55.0596875 109.41824219 -55.338125 108.61773437 -55.625 107.79296875 C-56.28125 105.53125 -56.28125 105.53125 -56.28125 102.53125 C-57.02890625 102.58925781 -57.7765625 102.64726562 -58.546875 102.70703125 C-60.02414062 102.77470703 -60.02414062 102.77470703 -61.53125 102.84375 C-62.50578125 102.90175781 -63.4803125 102.95976562 -64.484375 103.01953125 C-67.28125 102.53125 -67.28125 102.53125 -69.42504883 100.47363281 C-71.68459098 96.89188849 -71.84477822 94.06758615 -71.77734375 89.96484375 C-71.77879898 89.2489357 -71.78025421 88.53302765 -71.78175354 87.79542542 C-71.78009992 86.28846142 -71.76859871 84.7814796 -71.74780273 83.2746582 C-71.71879206 80.97208825 -71.72721381 78.67181567 -71.74023438 76.36914062 C-71.73399775 74.90103052 -71.72560739 73.43292765 -71.71484375 71.96484375 C-71.71777939 71.27933945 -71.72071503 70.59383514 -71.72373962 69.88755798 C-71.66402399 66.85453016 -71.41146047 64.76753426 -69.93652344 62.09106445 C-68.28125 60.53125 -68.28125 60.53125 -65.36328125 60.140625 C-64.28433594 60.18703125 -63.20539063 60.2334375 -62.09375 60.28125 C-61.00707031 60.31734375 -59.92039062 60.3534375 -58.80078125 60.390625 C-57.96933594 60.43703125 -57.13789063 60.4834375 -56.28125 60.53125 C-56.1575 59.62375 -56.03375 58.71625 -55.90625 57.78125 C-55.28125 54.53125 -55.28125 54.53125 -54.15625 52.40625 C-53.1335037 50.5831499 -53.1335037 50.5831499 -53.34375 48.59375 C-54.24527158 46.25781094 -54.24527158 46.25781094 -56.84375 44.15625 C-59.28125 41.53125 -59.28125 41.53125 -59.73266602 38.71606445 C-59.12978938 34.46267034 -57.50450572 32.97978437 -54.49609375 29.94921875 C-54.00218643 29.44957108 -53.50827911 28.9499234 -52.99940491 28.43513489 C-51.95333883 27.38499647 -50.89969926 26.34235478 -49.83911133 25.30688477 C-48.2269084 23.72674614 -46.64915355 22.11724769 -45.07226562 20.50195312 C-44.04879252 19.48244639 -43.02345893 18.46480329 -41.99609375 17.44921875 C-41.06917725 16.52906982 -40.14226074 15.6089209 -39.18725586 14.66088867 C-35.77643059 12.16129791 -33.47372186 11.67865755 -29.28125 11.53125 C-27.4609375 12.78125 -27.4609375 12.78125 -26.15625 14.53125 C-24.73774235 16.20225098 -24.73774235 16.20225098 -23.28125 17.53125 C-20.76375172 17.67893913 -20.76375172 17.67893913 -18.28125 16.53125 C-17.023125 16.180625 -15.765 15.83 -14.46875 15.46875 C-13.416875 15.159375 -12.365 14.85 -11.28125 14.53125 C-11.33345703 13.51804687 -11.33345703 13.51804687 -11.38671875 12.484375 C-11.41378906 11.59234375 -11.44085938 10.7003125 -11.46875 9.78125 C-11.50355469 8.89953125 -11.53835938 8.0178125 -11.57421875 7.109375 C-10.76587956 -0.00400983 -6.17930409 -0.06378268 0 0 Z M2.71875 13.53125 C2.63625 14.789375 2.55375 16.0475 2.46875 17.34375 C2.28845468 20.09325369 2.08233166 21.16942903 0.10546875 23.13671875 C-2.89782792 24.89150911 -5.91938132 25.93263417 -9.21875 27.03125 C-12.7259473 28.2015661 -15.83908567 29.26086174 -18.99609375 31.19140625 C-21.28125 32.53125 -21.28125 32.53125 -24.90625 32.46875 C-28.28125 31.53125 -28.28125 31.53125 -30.21875 29.46875 C-30.569375 28.829375 -30.92 28.19 -31.28125 27.53125 C-34.73326639 29.00846422 -36.93086936 30.96919001 -39.53125 33.65625 C-40.59085937 34.74292969 -40.59085937 34.74292969 -41.671875 35.8515625 C-42.20296875 36.40585937 -42.7340625 36.96015625 -43.28125 37.53125 C-41.90747194 40.54425427 -41.90747194 40.54425427 -39.59375 42.84375 C-38.28125 44.53125 -38.28125 44.53125 -38.28125 47.59375 C-39.07222505 51.73115796 -40.98298386 55.21711077 -42.9765625 58.89453125 C-44.30012292 61.56939138 -45.10489185 64.18051812 -45.96875 67.03125 C-46.90234375 69.5234375 -46.90234375 69.5234375 -48.28125 71.53125 C-51.75043115 73.03291767 -54.44379945 73.22829338 -58.28125 73.53125 C-58.28125 78.81125 -58.28125 84.09125 -58.28125 89.53125 C-56.858125 89.634375 -55.435 89.7375 -53.96875 89.84375 C-51.35264974 90.03332248 -49.76241028 90.1906155 -47.609375 91.71484375 C-45.85654449 94.11209725 -45.1847815 96.43690314 -44.34375 99.28125 C-43.20110536 102.96162866 -42.09346794 106.12736663 -39.96875 109.34375 C-37.84430358 113.35659323 -38.00298675 115.21711154 -39.28125 119.53125 C-40.60125 121.18125 -41.92125 122.83125 -43.28125 124.53125 C-39.98125 127.83125 -36.68125 131.13125 -33.28125 134.53125 C-29.38665926 132.84747777 -29.38665926 132.84747777 -27.28125 130.53125 C-20.96243876 129.43232631 -16.81415183 132.06095091 -11.3046875 134.99609375 C-7.38646775 136.98557742 -3.48378579 138.27048926 0.71875 139.53125 C1.37875 142.83125 2.03875 146.13125 2.71875 149.53125 C7.66875 149.53125 12.61875 149.53125 17.71875 149.53125 C17.821875 147.96375 17.925 146.39625 18.03125 144.78125 C18.58203125 142.00390625 18.58203125 142.00390625 19.71875 139.53125 C22.32269278 137.921457 24.75413319 137.20907057 27.703125 136.40234375 C30.75394362 135.52108397 33.19793312 134.31539861 35.96875 132.78125 C40.06524553 130.68098325 43.04862927 129.69062827 47.71875 130.53125 C49.09070574 131.82480827 50.43057656 133.15423702 51.71875 134.53125 C55.49316263 134.25195942 57.38850714 132.26516223 59.96875 129.65625 C60.67515625 128.95757812 61.3815625 128.25890625 62.109375 127.5390625 C64.03146764 125.56997996 64.03146764 125.56997996 63.71875 122.53125 C62.4503125 121.3865625 62.4503125 121.3865625 61.15625 120.21875 C58.71875 117.53125 58.71875 117.53125 58.59375 114.90625 C59.92789713 110.90380861 61.6411848 107.17213664 63.44921875 103.36328125 C64.93629314 100.04596146 66.03153268 96.69822016 67.04296875 93.2109375 C67.71875 91.53125 67.71875 91.53125 69.71875 90.53125 C71.25543865 90.30657169 72.79843054 90.12328195 74.34375 89.96875 C76.509375 89.7521875 76.509375 89.7521875 78.71875 89.53125 C78.71875 84.25125 78.71875 78.97125 78.71875 73.53125 C77.295625 73.469375 75.8725 73.4075 74.40625 73.34375 C71.98046875 73.23828125 71.98046875 73.23828125 69.71875 72.53125 C66.37777829 68.15369996 64.86856818 62.81408449 63 57.6875 C61.80578378 54.74565028 60.3692653 52.23209321 58.71875 49.53125 C58.21875 47.03125 58.21875 47.03125 58.71875 44.53125 C61.21875 41.71875 61.21875 41.71875 63.71875 39.53125 C62.24908642 36.13265297 60.33837486 33.88161291 57.71875 31.28125 C57.0175 30.57484375 56.31625 29.8684375 55.59375 29.140625 C53.87764232 27.31414601 53.87764232 27.31414601 51.71875 27.53125 C50.996875 28.376875 50.275 29.2225 49.53125 30.09375 C46.71875 32.53125 46.71875 32.53125 43.453125 32.3671875 C39.66587774 31.51941458 36.63162778 30.30425483 33.15625 28.59375 C29.92858994 27.01673002 26.85961909 25.57708702 23.44140625 24.46484375 C20.71875 23.53125 20.71875 23.53125 18.71875 21.53125 C18.15354997 18.87587628 17.98086802 16.23980287 17.71875 13.53125 C12.76875 13.53125 7.81875 13.53125 2.71875 13.53125 Z " fill="#FAFCFA" transform="translate(346.28125,262.46875)"></path><path d="M0 0 C0.82955657 -0.00538554 1.65911313 -0.01077108 2.51380777 -0.01631981 C5.29756345 -0.03064406 8.0808466 -0.02348473 10.86462402 -0.01637268 C12.85870243 -0.02207387 14.85277757 -0.02903715 16.84684753 -0.03717041 C22.26617479 -0.05514353 27.68534051 -0.05392576 33.10468864 -0.04822803 C37.62533633 -0.04514253 42.1459527 -0.05122141 46.66659594 -0.05726677 C57.32849757 -0.0713237 67.9903191 -0.06974066 78.65222168 -0.05836487 C89.66087896 -0.04687886 100.66929276 -0.06096487 111.67791796 -0.08776134 C121.12258642 -0.10989232 130.5671783 -0.1165617 140.01187086 -0.11068493 C145.65590716 -0.10730836 151.29978732 -0.109777 156.94380188 -0.12693596 C162.24948775 -0.14236182 167.55481182 -0.13849806 172.86048317 -0.11963081 C174.81000002 -0.115933 176.75954341 -0.1190879 178.70903587 -0.1295166 C181.3659345 -0.14264675 184.02162114 -0.13125057 186.6784668 -0.11352539 C187.84169079 -0.1279329 187.84169079 -0.1279329 189.02841425 -0.14263147 C192.52968959 -0.09441193 194.48025606 0.11860497 197.31921768 2.24657726 C199.33585136 5.08721894 199.32247589 6.88182371 199.29333496 10.34959412 C199.29303284 11.55053711 199.29273071 12.7514801 199.29241943 13.98881531 C199.27177429 15.28059692 199.25112915 16.57237854 199.2298584 17.90330505 C199.22239411 19.24279434 199.21670206 20.58229458 199.21270752 21.92179871 C199.19746553 25.44019442 199.15819757 28.95792521 199.1138916 32.47605896 C199.07290704 36.06890366 199.0546898 39.66185625 199.0345459 43.25486755 C198.99170069 50.29943572 198.9213635 57.34344442 198.8392334 64.38768005 C194.5492334 64.38768005 190.2592334 64.38768005 185.8392334 64.38768005 C185.8392334 47.55768005 185.8392334 30.72768005 185.8392334 13.38768005 C124.4592334 13.38768005 63.0792334 13.38768005 -0.1607666 13.38768005 C-0.1607666 38.79768005 -0.1607666 64.20768005 -0.1607666 90.38768005 C37.7892334 90.38768005 75.7392334 90.38768005 114.8392334 90.38768005 C114.8392334 94.34768005 114.8392334 98.30768005 114.8392334 102.38768005 C98.72347036 102.45708734 82.60776882 102.5106435 66.49189281 102.54311657 C59.00923262 102.55859425 51.52666693 102.57970086 44.04406738 102.61399841 C37.5232394 102.64387334 31.00247984 102.6632485 24.48158532 102.66994554 C21.02787674 102.67386108 17.57436392 102.68308151 14.120718 102.70487022 C10.26798166 102.72898025 6.41543792 102.72965127 2.56262207 102.72825623 C1.41391632 102.73904205 0.26521057 102.74982788 -0.91830444 102.76094055 C-2.48952309 102.75475456 -2.48952309 102.75475456 -4.09248352 102.7484436 C-5.00413678 102.75120898 -5.91579004 102.75397436 -6.85506916 102.75682354 C-9.1607666 102.38768005 -9.1607666 102.38768005 -10.95330429 101.11420155 C-12.41043449 99.03068592 -12.53969053 97.92961796 -12.54844666 95.40257263 C-12.55835129 94.59502533 -12.56825592 93.78747803 -12.57846069 92.95545959 C-12.57395905 92.07328766 -12.5694574 91.19111572 -12.56481934 90.2822113 C-12.57168259 89.35024933 -12.57854584 88.41828735 -12.58561707 87.45808411 C-12.6039455 84.37196191 -12.60003927 81.28634509 -12.59436035 78.20018005 C-12.59891894 76.05930922 -12.60422354 73.91843985 -12.61024475 71.77757263 C-12.61918752 67.28849852 -12.61673907 62.7996022 -12.60681152 58.31053162 C-12.59531498 52.54984841 -12.61553823 46.78977754 -12.64472866 41.0291748 C-12.66304863 36.60773299 -12.66280669 32.1864391 -12.65709114 27.76496887 C-12.65693744 25.64063151 -12.66302181 23.51628443 -12.67538261 21.39198303 C-12.69021299 18.42531063 -12.67967445 15.45978462 -12.66247559 12.4931488 C-12.67214355 11.61097687 -12.68181152 10.72880493 -12.69177246 9.81990051 C-12.68193832 9.01235321 -12.67210419 8.20480591 -12.66197205 7.37278748 C-12.66176276 6.6715123 -12.66155348 5.97023712 -12.66133785 5.24771118 C-12.1607666 3.38768005 -12.1607666 3.38768005 -10.63948917 1.66284084 C-7.13981281 -0.1375422 -3.84486917 -0.02979801 0 0 Z " fill="#FDFDFC" transform="translate(166.1607666015625,178.61231994628906)"></path><path d="M0 0 C0.61230469 0.39445312 1.22460938 0.78890625 1.85546875 1.1953125 C9.19628727 6.59241815 13.36066365 15.24784067 15 24 C16.25037849 33.47817768 13.74746719 43.64162107 8.1875 51.4375 C2.38124278 58.34971097 -4.33166151 63.69192189 -13.25 65.75 C-14.4875 65.8325 -15.725 65.915 -17 66 C-18.32837891 66.11214844 -18.32837891 66.11214844 -19.68359375 66.2265625 C-29.90554974 66.73167866 -38.09488809 63.7706196 -45.9375 57.1875 C-54.08918727 49.36069882 -57.79721627 40.54213171 -58.3125 29.3125 C-58.2064921 19.27203748 -53.51907535 10.65402233 -46.8125 3.4375 C-34.01022153 -8.97933352 -14.52056372 -9.68037582 0 0 Z " fill="#FBFCFA" transform="translate(378,314)"></path><path d="M0 0 C6.61772252 3.62840861 11.51537252 8.76746741 13.875 16 C15.04185725 23.99604283 13.49367509 30.39031711 8.875 37 C4.61468469 41.6873173 0.23263165 44.6302736 -6.17578125 45.3359375 C-14.14329706 45.43135685 -19.85554209 44.93803881 -25.8359375 39.421875 C-31.52238585 33.26386752 -33.75076212 27.06728452 -33.46484375 18.70703125 C-32.55437468 11.45467418 -28.76389694 6.97663627 -23.1953125 2.4765625 C-15.6705087 -2.89018436 -8.35536649 -3.75294155 0 0 Z " fill="#468C29" transform="translate(366.125,322)"></path><path d="M0 0 C17.16 0 34.32 0 52 0 C52 4.29 52 8.58 52 13 C34.84 13 17.68 13 0 13 C0 8.71 0 4.42 0 0 Z " fill="#F6FAF5" transform="translate(230,109)"></path></svg>