<svg version="1.1" xmlns="http://www.w3.org/2000/svg" width="16px" height="16px" fill="currentColor" viewBox="0 0 512 512"><path d="M0 0 C168.96 0 337.92 0 512 0 C512 168.96 512 337.92 512 512 C343.04 512 174.08 512 0 512 C0 343.04 0 174.08 0 0 Z " fill="#4053D6" transform="translate(0,0)"></path><path d="M0 0 C1.64725231 -0.00761181 1.64725231 -0.00761181 3.32778245 -0.0153774 C5.1524011 -0.01612404 5.1524011 -0.01612404 7.01388073 -0.01688576 C8.29838074 -0.02126801 9.58288076 -0.02565027 10.90630502 -0.03016531 C14.4836281 -0.04214987 18.06093769 -0.0477836 21.63827693 -0.05234647 C25.49182484 -0.05829537 29.34535655 -0.06990691 33.19889355 -0.08063698 C42.51072658 -0.10517612 51.82256499 -0.11978972 61.13442042 -0.13269705 C63.76324333 -0.13640767 66.39206571 -0.140381 69.02088809 -0.14444971 C85.33602037 -0.16968332 101.65115347 -0.19174233 117.96630096 -0.20417786 C121.74658047 -0.20710768 125.52685995 -0.21006933 129.3071394 -0.21308327 C130.24674049 -0.21382932 131.18634159 -0.21457537 132.15441545 -0.21534403 C147.38287059 -0.2280036 162.61120912 -0.26123396 177.83960972 -0.3028851 C193.46437944 -0.34527106 209.08908941 -0.36886896 224.71391648 -0.37409842 C233.49074514 -0.37751618 242.26739153 -0.38931431 251.0441637 -0.42220116 C258.51730056 -0.45015694 265.99021781 -0.46122074 273.4634029 -0.4500057 C277.27778865 -0.44480761 281.09171418 -0.44777947 284.90603352 -0.47247124 C289.0383331 -0.49899869 293.16961318 -0.48694287 297.30196667 -0.47098732 C299.11654707 -0.49181045 299.11654707 -0.49181045 300.96778566 -0.51305425 C309.98936873 -0.42681882 309.98936873 -0.42681882 313.09497166 2.5259161 C314.9891542 5.34661829 315.46126407 6.66243791 315.41602612 10.01909447 C315.41564846 10.95969215 315.41527081 11.90028984 315.41488171 12.86939049 C315.38907528 13.87165169 315.36326885 14.87391289 315.33668041 15.90654564 C315.32960567 16.94268501 315.32253094 17.97882439 315.31524181 19.04636192 C315.28730523 22.34815436 315.22456546 25.64823654 315.16089916 28.94951439 C315.13581546 31.19102632 315.11300242 33.43256489 315.09253979 35.67412376 C315.03748047 41.1624106 314.95121044 46.64942276 314.84839916 52.13701439 C310.88839916 50.15701439 306.92839916 48.17701439 302.84839916 46.13701439 C302.84839916 35.24701439 302.84839916 24.35701439 302.84839916 13.13701439 C203.51839916 13.13701439 104.18839916 13.13701439 1.84839916 13.13701439 C2.17839916 64.28701439 2.50839916 115.43701439 2.84839916 168.13701439 C8.78839916 162.69201439 8.78839916 162.69201439 14.84839916 157.13701439 C17.28949629 155.26186316 19.59388961 153.5345536 22.16089916 151.88701439 C22.77989086 151.48281273 23.39888256 151.07861107 24.03663158 150.66216087 C33.57100679 144.59636084 43.85514258 139.85299543 54.84839916 137.13701439 C54.14714916 136.59174095 53.44589916 136.04646751 52.72339916 135.48467064 C41.87095013 126.85874308 34.97471069 119.1487032 29.84839916 106.13701439 C29.47199291 105.24756126 29.09558666 104.35810814 28.70777416 103.44170189 C25.73231325 91.99970221 26.11225909 76.56020696 31.84839916 66.13701439 C32.35757885 65.13670189 32.86675854 64.13638939 33.39136791 63.10576439 C41.42626952 48.24947034 52.97744202 40.29713129 68.84839916 35.13701439 C84.9299607 31.11029268 100.0096624 36.14514391 113.84839916 44.13701439 C123.08018029 50.07657945 130.39867339 60.8259556 133.84839916 71.13701439 C134.07140697 71.7828347 134.29441479 72.42865501 134.52418041 73.09404564 C138.39690544 86.87251632 136.45788584 102.34507083 129.90552807 114.95097923 C125.61578414 122.45438867 120.11785926 128.13300605 113.23121166 133.33232689 C111.25117454 134.83196156 109.54266009 136.33055076 107.84839916 138.13701439 C108.52902416 138.26076439 109.20964916 138.38451439 109.91089916 138.51201439 C121.9500207 141.07352961 134.05687897 146.3454942 142.84839916 155.13701439 C140.88176183 157.19871576 138.94637303 158.9256516 136.53589916 160.44951439 C135.98289135 160.8168972 135.42988354 161.18428001 134.86011791 161.56279564 C130.16699357 162.90238647 125.3301523 159.43319897 121.28589916 157.26201439 C101.05038218 146.98126846 76.59013439 144.57746167 54.87183666 151.44365501 C39.85354393 156.58988467 27.32776628 164.10590778 15.84839916 175.13701439 C15.14070385 175.80474876 14.43300854 176.47248314 13.70386791 177.16045189 C10.00567788 180.62955683 10.00567788 180.62955683 7.84839916 185.13701439 C8.56793774 185.40997337 9.28747631 185.68293236 10.02881908 185.96416283 C12.80177936 187.1176221 15.34319286 188.43440126 17.96168041 189.90263939 C19.44378002 190.73215111 19.44378002 190.73215111 20.95582104 191.57842064 C22.01349682 192.17525658 23.0711726 192.77209251 24.16089916 193.38701439 C25.26884838 194.00963158 26.3767976 194.63224876 27.51832104 195.27373314 C36.00416842 200.05815305 44.42340733 204.95207374 52.82422924 209.8840847 C59.95040551 214.05783016 67.13234128 218.12093122 74.34839916 222.13701439 C82.69085267 226.78175636 90.98113179 231.50413889 99.22339916 236.32451439 C100.20864574 236.8988723 101.19389233 237.47323021 102.20899487 238.0649929 C106.96105373 240.84042317 111.69410158 243.64198049 116.39918041 246.49638939 C117.7026643 247.27719872 117.7026643 247.27719872 119.03248119 248.07378197 C120.65406426 249.04587784 122.26886123 250.02942207 123.87525463 251.02641869 C124.59213451 251.45350121 125.3090144 251.88058372 126.04761791 252.32060814 C126.66467602 252.69757835 127.28173412 253.07454857 127.91749096 253.46294212 C130.6093745 254.40266781 132.13665693 253.9685507 134.84839916 253.13701439 C137.49026519 251.85813743 137.49026519 251.85813743 140.16480541 250.22295189 C141.17736401 249.62611595 142.1899226 249.02928001 143.23316479 248.41435814 C144.8061433 247.47269798 144.8061433 247.47269798 146.41089916 246.51201439 C148.47470125 245.29066022 150.53850333 244.06930606 152.60230541 242.84795189 C155.81436964 240.94108971 159.02471589 239.0315858 162.23072338 237.11455345 C163.30982983 236.47485619 164.38893627 235.83515892 165.50074291 235.17607689 C166.47906078 234.59293724 167.45737865 234.00979759 168.46534252 233.40898705 C170.84839916 232.13701439 170.84839916 232.13701439 172.84839916 232.13701439 C172.51839916 231.47701439 172.18839916 230.81701439 171.84839916 230.13701439 C171.60245151 228.28499896 171.3768997 226.43026091 171.16089916 224.57451439 C169.43507115 212.98313222 165.54502312 201.78803127 158.84839916 192.13701439 C158.84839916 191.47701439 158.84839916 190.81701439 158.84839916 190.13701439 C160.28134414 189.29587268 161.71994321 188.46435752 163.16089916 187.63701439 C163.96140697 187.17295189 164.76191479 186.70888939 165.58668041 186.23076439 C167.84839916 185.13701439 167.84839916 185.13701439 170.84839916 185.13701439 C177.57626786 197.85791175 182.11399379 209.95952618 184.84839916 224.13701439 C185.57430248 223.70767601 186.3002058 223.27833763 187.04810619 222.835989 C189.75779588 221.24405171 192.47569125 219.66747129 195.19996166 218.10063744 C196.37499686 217.42075405 197.54662066 216.73493772 198.7146101 216.04302025 C200.398446 215.046918 202.09598775 214.07410119 203.79371166 213.10185814 C204.80965405 212.51009789 205.82559643 211.91833763 206.87232494 211.30864525 C210.39527695 209.92171771 212.23740852 210.14571209 215.84839916 211.13701439 C218.18433666 212.32842064 218.18433666 212.32842064 220.22339916 213.69951439 C220.91175854 214.15455345 221.60011791 214.60959251 222.30933666 215.07842064 C222.81722729 215.42775658 223.32511791 215.77709251 223.84839916 216.13701439 C221.0710257 219.12586707 218.40910926 221.14752347 214.83277416 223.09795189 C213.8414851 223.64451439 212.85019604 224.19107689 211.82886791 224.75420189 C210.76281322 225.33428001 209.69675854 225.91435814 208.59839916 226.51201439 C206.32132943 227.76796478 204.04531275 229.025826 201.77027416 230.28545189 C200.90130505 230.76579887 200.90130505 230.76579887 200.014781 231.25584984 C194.23797866 234.45728367 188.54021222 237.78757946 182.84839916 241.13701439 C173.49003299 246.63350512 164.0586551 251.98594641 154.57105541 257.25615501 C153.6055476 257.79304955 152.64003979 258.32994408 151.64527416 258.88310814 C150.69587963 259.40630638 149.7464851 259.92950462 148.76832104 260.46855736 C146.71453231 261.64210185 144.69166946 262.87062454 142.69410229 264.13750267 C134.876301 269.04367101 134.876301 269.04367101 130.27808666 269.46123314 C125.1683948 267.48835667 120.63780306 264.80285332 115.97339916 261.94951439 C113.82098372 260.66229851 111.66729782 259.37720506 109.51246166 258.09404564 C107.85778881 257.10525414 107.85778881 257.10525414 106.16968822 256.09648705 C100.94806982 253.01587036 95.65035641 250.07647819 90.34839916 247.13701439 C81.11819236 242.00234407 71.9759906 236.73486624 62.86793041 231.38701439 C55.74311586 227.21457397 48.56290976 223.15211462 41.34839916 219.13701439 C31.87932828 213.86645885 22.48721464 208.47786754 13.14283276 202.98930931 C8.8822374 200.48696972 4.62109755 197.99265611 0.30543041 195.58623314 C-0.35432789 195.21740013 -1.01408619 194.84856712 -1.69383717 194.46855736 C-3.37173935 193.53561961 -5.0544068 192.61126562 -6.73753834 191.68779564 C-9.15160084 190.13701439 -9.15160084 190.13701439 -11.15160084 187.13701439 C-11.34867433 184.69959479 -11.42993526 182.37617646 -11.41902637 179.93843651 C-11.42355749 179.20027809 -11.4280886 178.46211966 -11.43275702 177.7015928 C-11.44544575 175.22118192 -11.44377779 172.74098935 -11.44212818 170.26054955 C-11.44811065 168.48498819 -11.45491554 166.70942944 -11.46248341 164.93387413 C-11.48017942 160.1053438 -11.4848403 155.2768843 -11.48611498 150.44832468 C-11.4880122 146.4199207 -11.4953677 142.3915333 -11.50245917 138.3631357 C-11.51875446 128.86001904 -11.52362709 119.35694029 -11.52220631 109.85381126 C-11.52100461 100.0454574 -11.54210949 90.23732349 -11.57369363 80.42902529 C-11.59983096 72.01280989 -11.61057467 63.59666643 -11.60929549 55.18041074 C-11.6087851 50.15167222 -11.61451063 45.12312909 -11.63565159 40.09443092 C-11.65499114 35.36494217 -11.65518788 30.63583604 -11.64061832 25.90633392 C-11.63852378 24.17008914 -11.64326943 22.43382067 -11.65533924 20.69761658 C-11.67074717 18.3278123 -11.66151433 15.9593347 -11.64607716 13.58955956 C-11.65636428 12.90190848 -11.66665141 12.2142574 -11.67725027 11.50576842 C-11.60954714 6.80505987 -10.4556395 4.44518796 -7.15160084 1.13701439 C-4.61183343 -0.13286931 -2.84452818 0.00695343 0 0 Z " fill="#FBFBFE" transform="translate(107.15160083770752,165.8629856109619)"></path><path d="M0 0 C3.31721214 1.44042369 6.35271758 3.24467653 9.4375 5.125 C10.80515503 5.93263794 10.80515503 5.93263794 12.20043945 6.7565918 C14.14693464 7.90678599 16.08980403 9.06313479 18.02929688 10.22509766 C21.91192942 12.54484935 25.82031483 14.81890774 29.73022461 17.09228516 C32.71508918 18.82854832 35.69549148 20.57230455 38.67578125 22.31640625 C43.18273207 24.9483742 47.70232961 27.55710065 52.23046875 30.15234375 C52.82931381 30.49598465 53.42815887 30.83962555 54.04515076 31.19367981 C56.96119399 32.86698003 59.87884337 34.53724855 62.79956055 36.20239258 C63.84281494 36.80075928 64.88606934 37.39912598 65.9609375 38.015625 C66.88696777 38.54446289 67.81299805 39.07330078 68.76708984 39.61816406 C71 41 71 41 73 43 C73.23008967 45.76799428 73.33551696 48.43837257 73.35400391 51.20996094 C73.3671463 52.05892944 73.3802887 52.90789795 73.39382935 53.78259277 C73.43333825 56.5998569 73.45663022 59.41690754 73.4765625 62.234375 C73.48471355 63.19591743 73.49286461 64.15745987 73.50126266 65.14813995 C73.54300443 70.23839971 73.57159757 75.32855134 73.59033203 80.41894531 C73.61245528 85.67656482 73.68123659 90.93248976 73.76067543 96.18951035 C73.8129809 100.23190445 73.82971295 104.27389424 73.83689499 108.31659698 C73.84663597 110.25435062 73.86989163 112.19208564 73.90697098 114.12950897 C74.17821576 129.24301256 74.17821576 129.24301256 71.37197876 133.42774963 C69.30272099 135.02729263 67.4158742 136.01853917 65 137 C63.48237061 137.94637329 63.48237061 137.94637329 61.93408203 138.91186523 C60.48557861 139.72699585 60.48557861 139.72699585 59.0078125 140.55859375 C57.90308594 141.18451416 56.79835938 141.81043457 55.66015625 142.45532227 C54.48177705 143.11605926 53.30339148 143.7767849 52.125 144.4375 C50.891556 145.13467917 49.65848937 145.83252637 48.42578125 146.53100586 C46.52289698 147.60918699 44.61982902 148.68702318 42.71563721 149.76289368 C36.12080437 153.48978964 29.55864693 157.27238746 23 161.0625 C21.9702002 161.65667725 20.94040039 162.25085449 19.87939453 162.86303711 C18.88794434 163.43546143 17.89649414 164.00788574 16.875 164.59765625 C15.90949219 165.14953613 14.94398438 165.70141602 13.94921875 166.27001953 C11.88579953 167.48039938 9.84824399 168.73546935 7.83203125 170.02294922 C0.05028139 174.90587642 0.05028139 174.90587642 -4.57421875 175.3203125 C-9.65772119 173.36110632 -14.16971683 170.70828429 -18.8125 167.875 C-20.93304363 166.6084535 -23.05415934 165.34286442 -25.17578125 164.078125 C-26.28131348 163.41490234 -27.3868457 162.75167969 -28.52587891 162.06835938 C-33.89497382 158.85968371 -39.32165793 155.75010215 -44.74472046 152.6338501 C-46.48784417 151.63198658 -48.23004759 150.62854234 -49.97192383 149.62451172 C-52.64753478 148.08228653 -55.32358448 146.54082831 -58 145 C-58 144.01 -58 143.02 -58 142 C-55.98828125 140.32421875 -55.98828125 140.32421875 -53.3125 138.6875 C-52.00732422 137.85798828 -52.00732422 137.85798828 -50.67578125 137.01171875 C-48 136 -48 136 -45.67651367 136.75073242 C-42.87982905 138.05609001 -40.19344574 139.46936132 -37.5 140.9765625 C-36.45360352 141.56171631 -35.40720703 142.14687012 -34.32910156 142.74975586 C-33.23049805 143.36858643 -32.13189453 143.98741699 -31 144.625 C-29.87819336 145.25220947 -28.75638672 145.87941895 -27.60058594 146.52563477 C-20.71507513 150.39636252 -13.98424582 154.39758699 -7.453125 158.83984375 C-5.09366446 160.17919953 -5.09366446 160.17919953 -2.62109375 159.94921875 C0.91089779 158.67012196 4.00159284 156.83201337 7.1875 154.875 C8.70098225 153.9647466 10.21536679 153.05599236 11.73046875 152.1484375 C12.56368652 151.64795898 13.3969043 151.14748047 14.25537109 150.63183594 C19.47056276 147.53111177 24.73903298 144.52216782 30 141.5 C33.17375377 139.6767111 36.33091011 137.85595135 39.43969727 135.92333984 C42.0785253 134.36733322 44.60314387 133.47522715 47.54272461 132.62744141 C52.84874334 130.82441362 56.97509833 128.89116152 60 124 C62.8991295 112.70472559 61.97876778 100.56721821 61.63085938 89.00976562 C61.51677155 84.61249484 61.49995936 80.2149253 61.47460938 75.81640625 C61.41082867 67.20773369 61.23987071 58.60555922 61 50 C60.22847595 49.69791626 59.4569519 49.39583252 58.66204834 49.08459473 C55.84937406 47.93863068 53.28877787 46.58000593 50.640625 45.09375 C49.61573975 44.51971436 48.59085449 43.94567871 47.53491211 43.35424805 C46.45089111 42.74234619 45.36687012 42.13044434 44.25 41.5 C43.13052979 40.8706958 42.01105957 40.2413916 40.85766602 39.59301758 C34.51520883 36.01721771 28.20339101 32.39571654 21.9375 28.6875 C21.27427734 28.29651123 20.61105469 27.90552246 19.92773438 27.50268555 C17.21897287 25.90530509 14.51122989 24.30685218 11.81494141 22.68847656 C9.63435294 21.38288915 7.44346095 20.09631166 5.25 18.8125 C4.59378662 18.41313232 3.93757324 18.01376465 3.26147461 17.60229492 C-0.31597662 15.50693548 -0.31597662 15.50693548 -4.35131836 15.2109375 C-7.46486672 16.13848735 -9.95720011 17.47605345 -12.76953125 19.10546875 C-14.45719604 20.07661621 -14.45719604 20.07661621 -16.17895508 21.06738281 C-17.39023658 21.77391737 -18.60141595 22.48062705 -19.8125 23.1875 C-21.06045619 23.90910801 -22.30875138 24.63013004 -23.55737305 25.35058594 C-26.7531321 27.19714756 -29.94372491 29.05242298 -33.13232422 30.91131592 C-34.93652249 31.96299842 -36.74154099 33.01325684 -38.546875 34.06298828 C-44.51931036 37.53687458 -50.486869 41.01889513 -56.4465332 44.51464844 C-59 46 -59 46 -60.83311462 46.64044189 C-63.02838648 47.529529 -64.37307931 48.26471418 -66 50 C-67.06913355 54.04734927 -66.95351099 58.03752229 -66.90234375 62.203125 C-66.92078087 63.99251495 -66.92078087 63.99251495 -66.93959045 65.8180542 C-66.97139106 69.62932365 -66.9550206 73.43866892 -66.9375 77.25 C-66.95060443 79.83335137 -66.96684194 82.41668889 -66.98632812 85 C-67.02724494 91.33362129 -67.02861396 97.66633188 -67 104 C-68.78881736 105.00508801 -70.58114696 106.00392736 -72.375 107 C-73.37273437 107.556875 -74.37046875 108.11375 -75.3984375 108.6875 C-78 110 -78 110 -80 110 C-80.0926956 101.46380765 -80.16376219 92.92782571 -80.20724869 84.39125443 C-80.22812052 80.42732207 -80.25642999 76.46373413 -80.30175781 72.5 C-80.34523119 68.67447273 -80.36914015 64.84927666 -80.37950897 61.02352142 C-80.38689778 59.56424495 -80.40132665 58.10498654 -80.42292023 56.64585114 C-80.45197624 54.601068 -80.45595541 52.5576518 -80.45410156 50.51269531 C-80.46298401 49.34909485 -80.47186646 48.18549438 -80.48101807 46.9866333 C-79.89757435 43.36404079 -78.82274876 42.25759447 -76 40 C-74.03076172 38.68237305 -74.03076172 38.68237305 -71.9296875 37.51171875 C-71.12926025 37.06062744 -70.32883301 36.60953613 -69.50415039 36.14477539 C-68.63653076 35.66387451 -67.76891113 35.18297363 -66.875 34.6875 C-64.97488195 33.61785954 -63.07516045 32.54751441 -61.17578125 31.4765625 C-60.17111816 30.91227539 -59.16645508 30.34798828 -58.13134766 29.76660156 C-52.75498072 26.73343525 -47.40936511 23.64727575 -42.0625 20.5625 C-40.97590088 19.93875488 -39.88930176 19.31500977 -38.76977539 18.67236328 C-33.37217932 15.56544649 -28.01075216 12.41479323 -22.703125 9.15625 C-21.70917725 8.55095459 -20.71522949 7.94565918 -19.69116211 7.32202148 C-17.8244877 6.18105613 -15.96535691 5.02761966 -14.11547852 3.85961914 C-9.27588886 0.91165285 -5.81298577 -1.11687704 0 0 Z " fill="#FBFBFE" transform="translate(349,200)"></path><path d="M0 0 C9.20381775 6.54603081 14.63822871 14.89906113 18.19140625 25.55859375 C19.18740706 39.3034049 17.93977942 50.45897126 9.56640625 61.93359375 C1.88614693 70.81208902 -7.96944493 75.83410336 -19.5703125 76.90625 C-31.17849469 77.49607115 -40.90569505 74.62641868 -50 67.21484375 C-56.03153832 61.69136158 -60.00679408 56.260023 -62.80859375 48.55859375 C-63.22109375 47.48609375 -63.63359375 46.41359375 -64.05859375 45.30859375 C-66.53929003 32.90511234 -64.49205599 21.72480713 -57.49609375 11.18359375 C-43.57469196 -7.20205503 -19.9451113 -12.02415476 0 0 Z " fill="#3E4ED0" transform="translate(211.80859375,219.44140625)"></path><path d="M0 0 C2.65527344 1.13891602 2.65527344 1.13891602 5.359375 2.75390625 C6.88884766 3.65302734 6.88884766 3.65302734 8.44921875 4.5703125 C10.08310547 5.55644531 10.08310547 5.55644531 11.75 6.5625 C12.90673576 7.24747417 14.06430424 7.93104385 15.22265625 8.61328125 C17.62761083 10.03120342 20.02887559 11.45509179 22.42773438 12.88330078 C27.91885412 16.14576589 33.46195091 19.31810993 39 22.5 C41.16691089 23.74957658 43.33357685 24.999578 45.5 26.25 C46.5725 26.86875 47.645 27.4875 48.75 28.125 C52 30 55.25 31.875 58.5 33.75 C59.57266113 34.36883057 60.64532227 34.98766113 61.75048828 35.62524414 C63.91557071 36.87435518 66.08060982 38.12354129 68.24560547 39.37280273 C73.68615706 42.51202309 79.12747216 45.64990563 84.5703125 48.78515625 C89.96108791 51.8907073 95.34868308 55.00172139 100.73486328 58.11523438 C103.55467555 59.74294117 106.37694115 61.36629395 109.20031738 62.98780823 C111.99013269 64.59184396 114.77595633 66.20278948 117.5625 67.8125 C118.59842285 68.40554932 119.6343457 68.99859863 120.70166016 69.60961914 C121.64702637 70.15739014 122.59239258 70.70516113 123.56640625 71.26953125 C124.40115479 71.75010986 125.23590332 72.23068848 126.09594727 72.72583008 C128 74 128 74 129 76 C109.35961472 78.48370631 97.52589849 73.86345793 81.26611328 63.11669922 C75.97288695 59.68627073 70.48488594 56.61083698 65 53.5 C62.83231737 52.25176265 60.66565038 51.00175991 58.5 49.75 C57.4275 49.13125 56.355 48.5125 55.25 47.875 C45.5 42.25 45.5 42.25 42.24487305 40.37158203 C40.09582789 39.13205302 37.94625774 37.89343374 35.79614258 36.65576172 C30.71627726 33.73016059 25.64229038 30.79553671 20.5866394 27.82830811 C18.19795658 26.42711049 15.80625784 25.03110715 13.41430664 23.63549805 C11.72701199 22.64812175 10.04411136 21.65324876 8.36132812 20.65820312 C7.33845703 20.06201172 6.31558594 19.46582031 5.26171875 18.8515625 C4.36412842 18.32385254 3.46653809 17.79614258 2.54174805 17.25244141 C-0.10157414 15.94994954 -2.05819817 15.20158081 -5 15 C-7.44487134 15.89071586 -7.44487134 15.89071586 -9.82421875 17.4375 C-10.75669434 17.99493896 -11.68916992 18.55237793 -12.64990234 19.12670898 C-13.65230957 19.74489502 -14.6547168 20.36308105 -15.6875 21 C-17.86011105 22.30432872 -20.03330807 23.60768179 -22.20703125 24.91015625 C-23.32932129 25.58836426 -24.45161133 26.26657227 -25.60791016 26.96533203 C-30.98965623 30.19345005 -36.43216997 33.31386781 -41.875 36.4375 C-44.06008488 37.69628648 -46.24497969 38.95540295 -48.4296875 40.21484375 C-49.51475586 40.83987793 -50.59982422 41.46491211 -51.71777344 42.10888672 C-58.21336316 45.85143641 -64.70606042 49.59900243 -71.19897461 53.34619141 C-76.28625032 56.28182759 -81.37426104 59.21616612 -86.4649353 62.14590454 C-88.87543748 63.53328095 -91.28551376 64.92139624 -93.69555664 66.30957031 C-95.40143968 67.29173815 -97.10793986 68.27283385 -98.81445312 69.25390625 C-100.35842773 70.14335937 -100.35842773 70.14335937 -101.93359375 71.05078125 C-103.2956897 71.83449097 -103.2956897 71.83449097 -104.68530273 72.6340332 C-106.49126201 73.69977966 -108.25521129 74.83680752 -110 76 C-112.72729492 76.22705078 -112.72729492 76.22705078 -115.98046875 76.1953125 C-117.14384766 76.18886719 -118.30722656 76.18242187 -119.50585938 76.17578125 C-121.32827148 76.15064453 -121.32827148 76.15064453 -123.1875 76.125 C-124.41404297 76.11597656 -125.64058594 76.10695313 -126.90429688 76.09765625 C-129.93639295 76.07406017 -132.96809938 76.04113841 -136 76 C-132.89748085 73.43029212 -129.84706936 71.20896315 -126.32421875 69.2578125 C-125.42622559 68.75628662 -124.52823242 68.25476074 -123.60302734 67.73803711 C-122.15984131 66.93958374 -122.15984131 66.93958374 -120.6875 66.125 C-112.36868185 61.47507894 -104.09682141 56.7569117 -95.875 51.9375 C-88.47986943 47.60726467 -81.07077864 43.30510281 -73.625 39.0625 C-55.96689438 28.99887982 -38.37249671 18.8253773 -20.8269043 8.56689453 C-19.0151989 7.50782125 -17.20145581 6.45222247 -15.38525391 5.40087891 C-13.90449002 4.5312143 -12.43526133 3.64116847 -10.98583984 2.72021484 C-7.06848059 0.27601392 -4.58226308 -0.39824045 0 0 Z " fill="#FBFBFE" transform="translate(240,77)"></path><path d="M0 0 C3.49107379 1.16369126 3.85222763 1.88973538 5.6875 4.9375 C6.12449219 5.64777344 6.56148438 6.35804688 7.01171875 7.08984375 C8 9 8 9 8 11 C-50.5 44.75 -50.5 44.75 -53.75219727 46.6262207 C-55.91159395 47.8720577 -58.07093669 49.11798818 -60.23022461 50.36401367 C-65.75767597 53.55348953 -71.28615121 56.74116885 -76.81640625 59.92578125 C-77.93716553 60.571521 -79.0579248 61.21726074 -80.21264648 61.88256836 C-82.41880124 63.15358748 -84.62533478 64.42394941 -86.83227539 65.69360352 C-91.67627672 68.48485361 -96.50875119 71.2908789 -101.3046875 74.1640625 C-102.09673584 74.63739014 -102.88878418 75.11071777 -103.70483398 75.59838867 C-105.14541391 76.46242158 -106.58269773 77.33198539 -108.01586914 78.20825195 C-112.66998719 81 -112.66998719 81 -116 81 C-116.86646667 79.56988027 -117.71781829 78.13059381 -118.5625 76.6875 C-119.27599609 75.48673828 -119.27599609 75.48673828 -120.00390625 74.26171875 C-121 72 -121 72 -120 69 C-117.86132812 67.53295898 -117.86132812 67.53295898 -115.03125 65.99609375 C-113.99427979 65.42576416 -112.95730957 64.85543457 -111.88891602 64.26782227 C-110.77057373 63.66381592 -109.65223145 63.05980957 -108.5 62.4375 C-106.18543129 61.16545643 -103.87162963 59.89201618 -101.55859375 58.6171875 C-99.86065674 57.68471191 -99.86065674 57.68471191 -98.12841797 56.73339844 C-94.23288683 54.5749568 -90.38850119 52.3413034 -86.5625 50.0625 C-79.59296829 45.92571237 -72.58493863 41.85883854 -65.5625 37.8125 C-64.45672607 37.17521973 -63.35095215 36.53793945 -62.21166992 35.88134766 C-58.8080747 33.9203862 -55.40408111 31.96011785 -52 30 C-47.62449212 27.48004706 -43.24944028 24.95930579 -38.875 22.4375 C-37.81547119 21.82672607 -36.75594238 21.21595215 -35.66430664 20.58666992 C-26.88723643 15.52217799 -18.13172542 10.42128589 -9.38623047 5.30249023 C-8.44408691 4.75149658 -7.50194336 4.20050293 -6.53125 3.6328125 C-5.70173828 3.14699707 -4.87222656 2.66118164 -4.01757812 2.16064453 C-2.69953424 1.40241841 -1.3600431 0.68002155 0 0 Z " fill="#FBFBFE" transform="translate(330,290)"></path></svg>