<svg version="1.1" xmlns="http://www.w3.org/2000/svg" width="16px" height="16px" fill="currentColor" viewBox="0 0 512 512"><path d="M0 0 C168.96 0 337.92 0 512 0 C512 168.96 512 337.92 512 512 C343.04 512 174.08 512 0 512 C0 343.04 0 174.08 0 0 Z " fill="#7646D3" transform="translate(0,0)"></path><path d="M0 0 C0.68739258 0.34047363 1.37478516 0.68094727 2.08300781 1.03173828 C40.20807351 19.99005683 72.3991928 53.62429845 87 94 C87.24202148 94.66467285 87.48404297 95.3293457 87.73339844 96.01416016 C91.4190231 106.24416037 94.17485425 116.26669254 96 127 C96.20496094 127.9590625 96.40992188 128.918125 96.62109375 129.90625 C100.02177137 147.35524416 98.82451408 166.52307014 96 184 C95.8870459 184.73138184 95.7740918 185.46276367 95.65771484 186.21630859 C91.17228322 214.05961036 78.71699829 241.12693524 61 263 C60.52981445 263.5882959 60.05962891 264.1765918 59.57519531 264.78271484 C31.40311816 299.77369354 -10.75562885 323.34033746 -55.54980469 328.28125 C-73.23309912 330.03393051 -90.54744736 329.25861355 -108 326 C-108.73379883 325.86609863 -109.46759766 325.73219727 -110.22363281 325.59423828 C-140.87126964 319.79242544 -169.42891986 304.32635145 -192 283 C-193.35008458 281.84935973 -194.70411589 280.7033304 -196.0625 279.5625 C-222.69879715 256.11617856 -240.5213056 218.72258633 -246 184 C-246.20496094 182.73542969 -246.40992188 181.47085938 -246.62109375 180.16796875 C-251.6199236 146.23664366 -245.99929681 111.75412553 -231 81 C-230.69868164 80.37818848 -230.39736328 79.75637695 -230.08691406 79.11572266 C-222.24622187 63.16468484 -211.94386875 49.11214639 -200 36 C-198.98873047 34.88044922 -198.98873047 34.88044922 -197.95703125 33.73828125 C-191.94792514 27.42167291 -184.94759749 22.22804783 -178 17 C-177.01515625 16.2471875 -176.0303125 15.494375 -175.015625 14.71875 C-124.88307402 -21.88596977 -55.416114 -27.98444659 0 0 Z " fill="#FCFBFE" transform="translate(331,100)"></path><path d="M0 0 C-0.48210937 0.71285156 -0.96421875 1.42570312 -1.4609375 2.16015625 C-7.32224551 11.04781309 -10.14108738 18.26800101 -9 29 C-6.83209556 38.54137582 -2.10930375 45.50004687 6.0625 50.875 C9.38216063 52.88223666 12.12759553 53.70919851 16 55 C16 72.16 16 89.32 16 107 C11.71 108.32 7.42 109.64 3 111 C-10.4594355 117.43712133 -18.80556394 125.45969153 -25 139 C-26.03742989 142.24869913 -26.86063699 145.42716691 -27.52734375 148.76953125 C-28 151 -28 151 -29 152 C-30.62674778 152.09340434 -32.25754051 152.11745171 -33.88696289 152.11352539 C-34.92796646 152.11344986 -35.96897003 152.11337433 -37.04151917 152.11329651 C-38.1737944 152.10813522 -39.30606964 152.10297394 -40.47265625 152.09765625 C-42.20182533 152.09553383 -42.20182533 152.09553383 -43.96592712 152.09336853 C-47.66481064 152.08775005 -51.36363464 152.07519442 -55.0625 152.0625 C-57.56315017 152.05748738 -60.06380129 152.05292406 -62.56445312 152.04882812 C-68.70965588 152.03777462 -74.85482369 152.02101852 -81 152 C-81.26799408 151.31025589 -81.53598816 150.62051178 -81.81210327 149.90986633 C-82.16720978 149.00673203 -82.52231628 148.10359772 -82.88818359 147.1730957 C-83.23867767 146.27710159 -83.58917175 145.38110748 -83.95028687 144.45796204 C-87.23528287 136.76596009 -93.37531187 132.23219809 -100.80078125 128.875 C-108.34173728 125.87469067 -116.75596791 125.78501158 -124.375 128.6875 C-128.66015138 130.64102489 -132.29775396 133.10259005 -136 136 C-136.26618394 130.17526916 -135.3249697 125.13076082 -133.875 119.5 C-133.53722534 118.17887207 -133.53722534 118.17887207 -133.19262695 116.83105469 C-124.56456899 84.23551176 -104.81826987 53.51467097 -78 33 C-77.04222656 32.24976563 -76.08445313 31.49953125 -75.09765625 30.7265625 C-55.68824724 15.7805524 -25.53755391 -1.78168981 0 0 Z " fill="#7747D3" transform="translate(234,98)"></path><path d="M0 0 C17.16 0 34.32 0 52 0 C54 6 54 6 54.82421875 8.60546875 C59.96958543 23.99500438 68.36120451 32.74852181 82.36328125 40.421875 C87.05278234 42.45684647 92.06812873 43.6549442 97 45 C97 62.16 97 79.32 97 97 C93.7 98.32 90.4 99.64 87 101 C79.52272018 105.9359821 74.2466082 112.26193595 72 121 C70.65274239 131.753786 72.56373159 140.29502714 78.75 149.125 C79.4925 150.07375 80.235 151.0225 81 152 C50.00302554 153.66512673 16.35571562 131.51757531 -5.8112793 111.79394531 C-31.07696653 88.86745442 -53.2296531 52.80833615 -54.95703125 18.02734375 C-54.97121094 17.35832031 -54.98539062 16.68929688 -55 16 C-54.27554688 16.48210937 -53.55109375 16.96421875 -52.8046875 17.4609375 C-51.83789062 18.09257812 -50.87109375 18.72421875 -49.875 19.375 C-48.44800781 20.31472656 -48.44800781 20.31472656 -46.9921875 21.2734375 C-39.26288697 25.73342553 -30.91551048 26.32762877 -22.25 24.3828125 C-13.67691719 21.35544263 -7.12652368 15.78683731 -3 7.6875 C-1.84821442 5.13997426 -0.8848689 2.65460669 0 0 Z " fill="#6B3EC7" transform="translate(153,262)"></path><path d="M0 0 C31.2565897 1.2996503 63.45647526 18.5889891 85.703125 39.84375 C87.99242571 42.05176763 87.99242571 42.05176763 90.59765625 44.06640625 C112.43244235 61.64074628 127.00095869 92.88058606 133.8125 119.375 C134.03188232 120.2196582 134.25126465 121.06431641 134.47729492 121.93457031 C135.66126515 126.75840055 136.23421766 131.03458561 136 136 C135.443125 135.60167969 134.88625 135.20335937 134.3125 134.79296875 C124.69240495 128.11415276 116.94941688 125.44476136 105 127 C96.58658045 129.63793677 89.7163272 134.49675218 85 142 C83.68 145.3 82.36 148.6 81 152 C63.84 152 46.68 152 29 152 C27 146 27 146 26.17578125 143.39453125 C21.51340253 129.44958855 14.15152811 119.89206065 1.0625 113.1875 C-4.20376384 110.59091983 -9.21432024 108.98062369 -15 108 C-16 107 -16 107 -16.12025452 104.90562439 C-16.1169236 103.52329369 -16.1169236 103.52329369 -16.11352539 102.11303711 C-16.11344986 101.07203354 -16.11337433 100.03102997 -16.11329651 98.95848083 C-16.10813522 97.8262056 -16.10297394 96.69393036 -16.09765625 95.52734375 C-16.0962413 94.37456436 -16.09482635 93.22178497 -16.09336853 92.03407288 C-16.08775005 88.33518936 -16.07519442 84.63636536 -16.0625 80.9375 C-16.05748738 78.43684983 -16.05292406 75.93619871 -16.04882812 73.43554688 C-16.03777462 67.29034412 -16.02101852 61.14517631 -16 55 C-15.31025589 54.73200592 -14.62051178 54.46401184 -13.90986633 54.18789673 C-13.00673203 53.83279022 -12.10359772 53.47768372 -11.1730957 53.11181641 C-10.27710159 52.76132233 -9.38110748 52.41082825 -8.45796204 52.04971313 C-0.76596009 48.76471713 3.76780191 42.62468813 7.125 35.19921875 C10.56503549 26.55305813 9.66641226 18.00900343 6.22265625 9.4921875 C4.497203 5.97512944 2.44542888 3.05678611 0 0 Z " fill="#8350E0" transform="translate(278,98)"></path><path d="M0 0 C0.9215538 0.00222061 1.8431076 0.00444122 2.79258728 0.00672913 C3.83359085 0.00680466 4.87459442 0.00688019 5.94714355 0.00695801 C7.07941879 0.01211929 8.21169403 0.01728058 9.37828064 0.02259827 C10.53106003 0.02401321 11.68383942 0.02542816 12.87155151 0.02688599 C16.57043503 0.03250446 20.26925903 0.0450601 23.96812439 0.05775452 C26.46877456 0.06276714 28.96942567 0.06733045 31.47007751 0.07142639 C37.61528027 0.0824799 43.76044808 0.099236 49.90562439 0.12025452 C50.30442055 1.15106392 50.30442055 1.15106392 50.71127319 2.20269775 C51.06472305 3.10385818 51.41817291 4.00501862 51.78233337 4.93348694 C52.13069748 5.82694321 52.47906158 6.72039948 52.83798218 7.64093018 C55.80855044 14.53931067 61.51023165 19.79845965 68.09312439 23.24525452 C76.26026284 26.45949248 85.11961856 26.48220045 93.34312439 23.43275452 C97.59327695 21.47276681 101.22617651 18.99982242 104.90562439 16.12025452 C103.87077341 26.64123945 102.13144364 36.55065173 98.46812439 46.49525452 C98.12249451 47.43498108 97.77686462 48.37470764 97.42076111 49.34291077 C89.9682877 68.93712782 79.54060634 86.48816447 65.13218689 101.71791077 C62.86767796 104.10037082 62.86767796 104.10037082 60.83140564 106.72962952 C51.72016225 118.04013856 37.39596493 127.04430472 24.90562439 134.12025452 C24.33070251 134.44735413 23.75578064 134.77445374 23.16343689 135.11146545 C7.70282907 143.76164177 -13.05349775 153.0697744 -31.09437561 152.12025452 C-30.6960553 151.56337952 -30.29773499 151.00650452 -29.88734436 150.43275452 C-23.35122536 141.01819868 -20.87335952 133.76902868 -22.09437561 122.12025452 C-23.85152858 114.36225838 -28.11119525 108.28800996 -34.09437561 103.12025452 C-38.24156261 100.54592659 -42.47159266 98.66118217 -47.09437561 97.12025452 C-47.09437561 79.96025452 -47.09437561 62.80025452 -47.09437561 45.12025452 C-41.09437561 43.12025452 -41.09437561 43.12025452 -38.48890686 42.29603577 C-24.54396416 37.63365704 -14.98643626 30.27178263 -8.28187561 17.18275452 C-5.68529544 11.91649067 -4.0749993 6.90593427 -3.09437561 1.12025452 C-2.09437561 0.12025452 -2.09437561 0.12025452 0 0 Z " fill="#7747D3" transform="translate(309.09437561035156,261.87974548339844)"></path><path d="M0 0 C5.90768094 4.19286751 9.91898076 9.31968984 13.578125 15.52734375 C14.12146484 16.42839844 14.12146484 16.42839844 14.67578125 17.34765625 C18.62283236 25.53549251 17.80181857 37.96691981 15.078125 46.46484375 C10.42190416 57.21499573 2.32021219 64.91095084 -8.421875 69.40234375 C-17.63750797 72.10710773 -29.54207425 72.07350727 -38.22265625 67.84375 C-48.53032222 61.67379719 -56.20382263 53.31486143 -59.421875 41.52734375 C-59.83323777 38.55434326 -59.90016721 35.65073167 -59.859375 32.65234375 C-59.85107666 31.862229 -59.84277832 31.07211426 -59.83422852 30.25805664 C-59.53352241 19.84677654 -55.69357023 11.99295085 -48.421875 4.52734375 C-45.2550026 1.86675764 -41.98297293 -0.37354262 -38.421875 -2.47265625 C-37.82117188 -2.83488281 -37.22046875 -3.19710937 -36.6015625 -3.5703125 C-25.53457656 -8.90529451 -10.02222961 -6.0941622 0 0 Z " fill="#7747D3" transform="translate(277.421875,223.47265625)"></path><path d="M0 0 C4.61082305 2.67866863 8.73964992 6.0610602 10.67578125 11.12890625 C11.50253475 16.92349712 11.78230985 22.88962247 8.98828125 28.19140625 C5.32798924 32.84096637 1.1487378 36.6715184 -4.875 37.46484375 C-11.33435936 37.55620668 -15.1375725 37.0707574 -20.32421875 33.12890625 C-24.94863546 28.62780732 -27.34336057 24.24591094 -27.76171875 17.81640625 C-27.61261393 11.84227303 -24.89362668 7.71758474 -20.76171875 3.5546875 C-14.95549585 -1.51124198 -7.28920751 -2.73192147 0 0 Z " fill="#8350DF" transform="translate(398.32421875,237.87109375)"></path><path d="M0 0 C4.59433484 2.78222668 8.26931297 7.1126264 9.9609375 12.1875 C10.72059151 18.90501191 10.41659624 23.97100151 6.39453125 29.53125 C2.80287309 33.68074063 -0.39423155 35.90167012 -5.89453125 36.49609375 C-12.62000306 36.75628199 -17.32400117 36.6532426 -22.44921875 32.015625 C-27.07772878 26.69340708 -28.74694641 21.64301037 -28.421875 14.578125 C-27.36292166 7.96506943 -23.25888931 3.99362372 -18.0390625 0.1875 C-12.73987087 -3.52193414 -5.66991555 -2.33071627 0 0 Z " fill="#6D40C8" transform="translate(265.0390625,372.8125)"></path><path d="M0 0 C5.65459693 2.57514851 8.53634013 6.15570911 12.05859375 11.1875 C14.05966971 17.37264389 12.7772658 22.60572512 10.015625 28.265625 C7.18369269 32.83157124 2.97966458 36.00410729 -2.25390625 37.3125 C-8.69663986 38.13877779 -13.22634371 37.5514739 -18.5625 33.74609375 C-21.85604792 30.95456468 -23.89059689 28.40242807 -25.25390625 24.3125 C-25.73145051 18.4488828 -26.11606236 13.13260734 -23.56640625 7.75 C-16.75433401 0.56970764 -9.92026917 -3.02593999 0 0 Z " fill="#6D3FC8" transform="translate(128.25390625,237.6875)"></path><path d="M0 0 C5.14448349 2.71113169 8.49026005 7.00521279 10.74609375 12.265625 C11.73372576 19.01827179 10.75642469 24.70809848 6.74609375 30.265625 C3.37591724 33.98607266 -0.30456791 36.31382917 -5.25390625 37.265625 C-11.63269539 37.34900786 -16.28217508 36.52710886 -21.25390625 32.265625 C-26.24486126 26.85875708 -27.80216416 22.10495714 -27.62890625 14.828125 C-26.80359035 9.18846632 -23.43197784 4.98525482 -19.25390625 1.265625 C-13.75011486 -2.2949418 -6.06619339 -1.97650668 0 0 Z " fill="#8250DE" transform="translate(264.25390625,103.734375)"></path></svg>