<svg version="1.1" xmlns="http://www.w3.org/2000/svg" width="16px" height="16px" fill="currentColor" viewBox="0 0 512 512"><path d="M0 0 C168.96 0 337.92 0 512 0 C512 168.96 512 337.92 512 512 C343.04 512 174.08 512 0 512 C0 343.04 0 174.08 0 0 Z " fill="#2D8F7A" transform="translate(0,0)"></path><path d="M0 0 C0 4.13643553 -0.15232641 4.69802433 -2.5 7.75 C-2.9640625 8.36359375 -3.428125 8.9771875 -3.90625 9.609375 C-4.2671875 10.06828125 -4.628125 10.5271875 -5 11 C-9.61928055 10.39940521 -13.26869802 8.41769928 -17.3125 6.25 C-33.41167464 -2.05049803 -49.6489596 -5.11567505 -67.6875 -5.25 C-68.63761963 -5.25942627 -69.58773926 -5.26885254 -70.56665039 -5.27856445 C-93.83390513 -5.17180621 -114.22580326 4.65117956 -132 19 C-132.65355469 19.50015625 -133.30710938 20.0003125 -133.98046875 20.515625 C-152.78397044 35.48958058 -164.70002523 61.19022078 -167.71875 84.73046875 C-169.75925332 108.4513198 -162.73352849 128.80936983 -151 149 C-150.67 149.33 -150.34 149.66 -150 150 C-149.0136178 157.07874284 -152.13858716 162.1089886 -155.375 168.25 C-155.91358643 169.29961914 -156.45217285 170.34923828 -157.00708008 171.43066406 C-159.6304097 176.52539154 -162.30895578 181.59080488 -164.98828125 186.65625 C-165.44477051 187.51959961 -165.90125977 188.38294922 -166.37158203 189.27246094 C-167.22981919 190.88830336 -168.09381673 192.50110327 -168.96435547 194.11035156 C-169.54467529 195.19268066 -169.54467529 195.19268066 -170.13671875 196.296875 C-170.47405029 196.91916992 -170.81138184 197.54146484 -171.15893555 198.18261719 C-172.04574183 200.09883953 -172.55333995 201.94041666 -173 204 C-172.4237085 203.69932617 -171.84741699 203.39865234 -171.25366211 203.08886719 C-170.02788452 202.44933105 -170.02788452 202.44933105 -168.77734375 201.796875 C-167.39663696 201.07612793 -167.39663696 201.07612793 -165.98803711 200.34082031 C-163.93629851 199.27086203 -161.88371116 198.20252991 -159.83032227 197.13574219 C-154.38690274 194.30478259 -148.96026845 191.44842633 -143.5625 188.53125 C-142.53519775 187.98114258 -141.50789551 187.43103516 -140.44946289 186.86425781 C-138.47455561 185.80580868 -136.50475767 184.73775819 -134.54077148 183.65917969 C-125.86953747 179.03803415 -125.86953747 179.03803415 -121 180 C-118.12965083 181.08922294 -115.42143379 182.42018799 -112.6875 183.8125 C-111.16300609 184.55526848 -109.63697909 185.29489927 -108.109375 186.03125 C-107.38943359 186.37929688 -106.66949219 186.72734375 -105.92773438 187.0859375 C-102.34987521 188.78242999 -98.84157371 190.05535073 -95 191 C-93.90429688 191.27585937 -92.80859375 191.55171875 -91.6796875 191.8359375 C-76.26059659 195.23125247 -59.41789624 195.59435618 -44 192 C-43.36852051 191.8546582 -42.73704102 191.70931641 -42.08642578 191.55957031 C-19.22000852 186.10559505 2.22791217 173.07696887 15.5625 153.375 C16.036875 152.59125 16.51125 151.8075 17 151 C20.15330554 151.60694155 22.18888867 152.6416665 24.75 154.5625 C25.36359375 155.01753906 25.9771875 155.47257813 26.609375 155.94140625 C27.06828125 156.29074219 27.5271875 156.64007813 28 157 C26.5370033 161.48873988 24.04533886 164.72758592 21 168.25 C20.50725586 168.82210205 20.01451172 169.3942041 19.50683594 169.98364258 C2.78535578 189.0835629 -19.18771744 201.13484656 -44 206 C-45.13566406 206.22429687 -46.27132812 206.44859375 -47.44140625 206.6796875 C-71.8930423 210.81634899 -98.87689631 207.60408491 -120.44921875 194.94140625 C-123.81550912 193.69902343 -124.78700483 194.53184498 -128 196 C-129.8448111 196.8774143 -131.68020596 197.77479073 -133.5078125 198.6875 C-134.56806641 199.21666016 -135.62832031 199.74582031 -136.72070312 200.29101562 C-137.84412109 200.85498047 -138.96753906 201.41894531 -140.125 202 C-141.86040039 202.86915039 -141.86040039 202.86915039 -143.63085938 203.75585938 C-150.62367964 207.26966458 -157.58216341 210.84089729 -164.5 214.5 C-165.26932861 214.90589355 -166.03865723 215.31178711 -166.83129883 215.72998047 C-169.95490109 217.38022447 -173.07202533 219.03915768 -176.17578125 220.7265625 C-184.37551933 225.07546062 -184.37551933 225.07546062 -189 224 C-192.11786998 221.6954874 -193.79841201 220.29287682 -194.40625 216.39453125 C-193.83569122 211.62707374 -191.84903358 208.02467243 -189.625 203.8125 C-189.17382812 202.93537354 -188.72265625 202.05824707 -188.2578125 201.15454102 C-186.85142982 198.4294304 -185.42765107 195.71401902 -184 193 C-183.15340399 191.37773035 -182.30704046 189.75533935 -181.4609375 188.1328125 C-180.641226 186.56739348 -179.82091954 185.00228585 -179 183.4375 C-178.39551025 182.28447388 -178.39551025 182.28447388 -177.77880859 181.1081543 C-175.59531254 176.96314663 -173.36600204 172.85012783 -171.078125 168.76171875 C-170.60503906 167.90199463 -170.13195312 167.04227051 -169.64453125 166.15649414 C-168.73500386 164.50542804 -167.81111972 162.86216577 -166.87109375 161.22827148 C-164.45656407 157.05182002 -164.45656407 157.05182002 -164.49609375 152.41796875 C-164.99238281 151.62003906 -165.48867187 150.82210937 -166 150 C-166.58394531 148.86949219 -167.16789062 147.73898437 -167.76953125 146.57421875 C-168.26332275 145.63872192 -168.26332275 145.63872192 -168.76708984 144.68432617 C-177.03866936 128.88487525 -181.40665013 112.64267781 -181.3125 94.75 C-181.30621582 93.10801636 -181.30621582 93.10801636 -181.29980469 91.43286133 C-181.18189295 82.94509752 -180.31549429 75.19945596 -178 67 C-177.73316406 66.00742187 -177.46632813 65.01484375 -177.19140625 63.9921875 C-171.26111396 44.22454652 -159.66344251 27.27756244 -145 13 C-144.56171875 12.505 -144.1234375 12.01 -143.671875 11.5 C-107.19908512 -28.28849805 -42.99239626 -26.46719395 0 0 Z " fill="#FBFCFC" transform="translate(271,211)"></path><path d="M0 0 C1.12005936 -0.01424011 2.24011871 -0.02848022 3.39411926 -0.04315186 C5.23858643 -0.04346909 5.23858643 -0.04346909 7.12031555 -0.04379272 C9.06216484 -0.06131592 9.06216484 -0.06131592 11.04324341 -0.07919312 C14.59723576 -0.10999526 18.15102675 -0.12111776 21.70513892 -0.12683535 C23.92725712 -0.13118944 26.14932315 -0.13956434 28.37142372 -0.14933395 C36.12889398 -0.18309483 43.886212 -0.2002163 51.64375305 -0.20297241 C58.86548295 -0.20600343 66.08635445 -0.24639704 73.30783528 -0.30412066 C79.5135227 -0.35197066 85.71892763 -0.37270455 91.92479831 -0.37276304 C95.62871281 -0.37330019 99.33178785 -0.38479864 103.03551292 -0.42393875 C107.17245746 -0.46661833 111.30741104 -0.45295888 115.4445343 -0.43441772 C117.27381973 -0.46509842 117.27381973 -0.46509842 119.14006042 -0.49639893 C124.79603707 -0.42679061 128.62157125 -0.2112322 132.99307251 3.57978821 C134.21414424 4.83975509 135.41924576 6.11544424 136.60591125 7.40786743 C137.74824861 8.43132467 138.90390996 9.44014125 140.07356262 10.43226624 C150.27968961 19.36138106 160.27182428 28.50816927 170.10591125 37.84536743 C170.87869164 38.57844872 171.65147202 39.31153 172.44766998 40.06682587 C205.77036546 71.86826051 205.77036546 71.86826051 207.20314026 91.88252258 C207.28152639 101.95805893 205.59821656 111.81156523 202.60591125 121.40786743 C198.31591125 121.40786743 194.02591125 121.40786743 189.60591125 121.40786743 C189.60591125 108.86786743 189.60591125 96.32786743 189.60591125 83.40786743 C184.8879425 83.45427368 180.16997375 83.50067993 175.30903625 83.54849243 C172.31943091 83.56893157 169.32991175 83.58818722 166.34028625 83.60317993 C161.59531252 83.62708833 156.85064764 83.65536617 152.10591125 83.70962524 C148.28038398 83.75309862 144.45518791 83.77700758 140.62943268 83.7873764 C139.17015621 83.79476521 137.71089779 83.80919408 136.25176239 83.83078766 C134.20697925 83.85984367 132.16356306 83.86382284 130.11860657 83.86196899 C128.9550061 83.87085144 127.79140564 83.87973389 126.59254456 83.8888855 C123.60591125 83.40786743 123.60591125 83.40786743 121.22724915 81.78652954 C119.08994488 78.65089402 119.12294277 76.67673893 119.15180969 72.89517212 C119.15132755 72.24048573 119.15084541 71.58579933 119.15034866 70.91127396 C119.15332513 68.80020282 119.18373797 66.69055947 119.21528625 64.57974243 C119.21931458 63.28632935 119.2233429 61.99291626 119.22749329 60.66030884 C119.24843075 55.82601752 119.30427605 50.99192832 119.35591125 46.15786743 C119.43841125 35.35036743 119.52091125 24.54286743 119.60591125 13.40786743 C81.65591125 13.40786743 43.70591125 13.40786743 4.60591125 13.40786743 C4.60591125 40.79786743 4.60591125 68.18786743 4.60591125 96.40786743 C0.31591125 96.40786743 -3.97408875 96.40786743 -8.39408875 96.40786743 C-8.46352119 84.33402249 -8.51686565 72.26022485 -8.54952526 60.18622112 C-8.56519821 54.58009998 -8.5864663 48.97411518 -8.6204071 43.36807251 C-8.65294231 37.96050993 -8.67092947 32.55307868 -8.67872047 27.1454258 C-8.68427448 25.07968896 -8.69511976 23.01395952 -8.71127892 20.94827843 C-8.7329755 18.06054378 -8.73605892 15.17335568 -8.73466492 12.28555298 C-8.74545074 11.42672012 -8.75623657 10.56788727 -8.76734924 9.68302917 C-8.73705687 3.90484315 -8.73705687 3.90484315 -7.20867157 1.69014645 C-4.72461541 -0.0652174 -3.03097852 0.01966658 0 0 Z " fill="#FBFDFC" transform="translate(232.3940887451172,76.59213256835938)"></path><path d="M0 0 C4.29 0 8.58 0 13 0 C13.09258337 15.3161452 13.16397194 30.632258 13.20724869 45.94861984 C13.22787671 53.06024449 13.25600159 60.1716921 13.30175781 67.28320312 C13.34587447 74.14315727 13.36912208 81.00292717 13.37950897 87.86301422 C13.38691336 90.48335927 13.4013719 93.10369397 13.42292023 95.72396088 C13.45185625 99.38748641 13.45595995 103.05024622 13.45410156 106.71386719 C13.46848267 107.80287323 13.48286377 108.89187927 13.49768066 110.0138855 C13.45878682 117.07568259 13.45878682 117.07568259 11.67126465 120.67700195 C7.20661699 122.88820934 2.71438121 122.51948611 -2.19433594 122.45410156 C-3.3360878 122.45468567 -4.47783966 122.45526978 -5.65419006 122.45587158 C-9.43122673 122.45308301 -13.20747604 122.42195281 -16.984375 122.390625 C-19.6018226 122.3831654 -22.21927578 122.37747115 -24.83673096 122.37347412 C-31.02390309 122.36104591 -37.21079222 122.32822674 -43.39783978 122.28807616 C-50.44249851 122.24335336 -57.48717081 122.22137019 -64.53193617 122.20129442 C-79.02144031 122.15949374 -93.51070672 122.08833836 -108 122 C-108 117.71 -108 113.42 -108 109 C-72.36 109 -36.72 109 0 109 C0 73.03 0 37.06 0 0 Z " fill="#FAFCFC" transform="translate(422,243)"></path><path d="M0 0 C4.29 0 8.58 0 13 0 C13 33.99 13 67.98 13 103 C8.71 103 4.42 103 0 103 C0 69.01 0 35.02 0 0 Z " fill="#F7FAF9" transform="translate(198,249)"></path><path d="M0 0 C3.96 0 7.92 0 12 0 C12 33.66 12 67.32 12 102 C8.04 102 4.08 102 0 102 C0 68.34 0 34.68 0 0 Z " fill="#FFFFFF" transform="translate(250,250)"></path><path d="M0 0 C7.87699975 6.75171407 7.87699975 6.75171407 11.55834961 10.42895508 C12.37867172 11.24612503 13.19899384 12.06329498 14.04417419 12.90522766 C14.90487015 13.76794785 15.7655661 14.63066803 16.65234375 15.51953125 C18.00254356 16.86829597 18.00254356 16.86829597 19.38002014 18.24430847 C21.26964342 20.13325439 23.15823816 22.02316308 25.04516602 23.91479492 C27.46847733 26.34385209 29.89631743 28.76832574 32.32547665 31.19153309 C34.64518724 33.50677961 36.961105 35.82581218 39.27734375 38.14453125 C40.15220932 39.01737259 41.02707489 39.89021393 41.92845154 40.789505 C42.72670853 41.59091415 43.52496552 42.3923233 44.34741211 43.21801758 C45.40828285 44.28008171 45.40828285 44.28008171 46.49058533 45.36360168 C48 47 48 47 48 48 C32.16 48 16.32 48 0 48 C0 32.16 0 16.32 0 0 Z " fill="#43A791" transform="translate(365,99)"></path><path d="M0 0 C4.29 0 8.58 0 13 0 C13 29.7 13 59.4 13 90 C8.71 90 4.42 90 0 90 C0 60.3 0 30.6 0 0 Z " fill="#FAFCFC" transform="translate(147,256)"></path><path d="M0 0 C29.7 0 59.4 0 90 0 C90 4.29 90 8.58 90 13 C60.3 13 30.6 13 0 13 C0 8.71 0 4.42 0 0 Z " fill="#F7FBFA" transform="translate(294,205)"></path><path d="M0 0 C4.29 0 8.58 0 13 0 C13 23.43 13 46.86 13 71 C8.71 71 4.42 71 0 71 C0 47.57 0 24.14 0 0 Z " fill="#F6FAF9" transform="translate(173,262)"></path><path d="M0 0 C23.1 0 46.2 0 70 0 C70 3.96 70 7.92 70 12 C46.9 12 23.8 12 0 12 C0 8.04 0 4.08 0 0 Z " fill="#FFFFFF" transform="translate(320,173)"></path><path d="M0 0 C4.29 0 8.58 0 13 0 C13 19.14 13 38.28 13 58 C8.71 58 4.42 58 0 58 C0 38.86 0 19.72 0 0 Z " fill="#F9FCFB" transform="translate(224,269)"></path><path d="M0 0 C19.14 0 38.28 0 58 0 C58 4.29 58 8.58 58 13 C38.86 13 19.72 13 0 13 C0 8.71 0 4.42 0 0 Z " fill="#FBFDFC" transform="translate(262,134)"></path><path d="M0 0 C4.29 0 8.58 0 13 0 C13 14.85 13 29.7 13 45 C8.71 45 4.42 45 0 45 C0 30.15 0 15.3 0 0 Z " fill="#FAFCFC" transform="translate(275,275)"></path><path d="M0 0 C3.96 0 7.92 0 12 0 C12 14.52 12 29.04 12 44 C8.04 44 4.08 44 0 44 C0 29.48 0 14.96 0 0 Z " fill="#FEFFFE" transform="translate(122,282)"></path><path d="M0 0 C14.52 0 29.04 0 44 0 C44 3.96 44 7.92 44 12 C29.48 12 14.96 12 0 12 C0 8.04 0 4.08 0 0 Z " fill="#FFFFFF" transform="translate(263,173)"></path></svg>