<svg version="1.1" xmlns="http://www.w3.org/2000/svg" width="16px" height="16px" fill="currentColor" viewBox="0 0 512 512"><path d="M0 0 C168.96 0 337.92 0 512 0 C512 168.96 512 337.92 512 512 C343.04 512 174.08 512 0 512 C0 343.04 0 174.08 0 0 Z " fill="#7646D3" transform="translate(0,0)"></path><path d="M0 0 C1.27141846 -0.00945648 2.54283691 -0.01891296 3.8527832 -0.02865601 C5.24170238 -0.02328631 6.63061873 -0.01713337 8.01953125 -0.01025391 C9.44295399 -0.01227479 10.86637572 -0.01518636 12.28979492 -0.01895142 C15.27239849 -0.02337412 18.25473246 -0.01694576 21.23730469 -0.00292969 C25.06088216 0.01416256 28.88382791 0.00432104 32.7073822 -0.01364708 C35.64649212 -0.02448659 38.58545222 -0.0210379 41.52456665 -0.0132637 C42.93437779 -0.01126214 44.34420253 -0.01371947 45.7539978 -0.02070236 C47.72401673 -0.02831864 49.69408334 -0.0146522 51.6640625 0 C52.78530518 0.00238678 53.90654785 0.00477356 55.06176758 0.00723267 C57.83203125 0.38818359 57.83203125 0.38818359 59.69624329 1.55265808 C61.30586297 4.15393409 61.19211329 6.09535821 61.17260742 9.14477539 C61.17238083 10.32577316 61.17215424 11.50677094 61.17192078 12.72355652 C61.15643692 13.99862564 61.14095306 15.27369476 61.125 16.58740234 C61.12075516 17.89272415 61.11651031 19.19804596 61.11213684 20.54292297 C61.10069214 24.01023638 61.07122879 27.47717172 61.0380249 30.94433594 C61.00731558 34.48350917 60.9936297 38.0227436 60.97851562 41.56201172 C60.9463583 48.50422414 60.89516679 55.44618571 60.83203125 62.38818359 C61.45054962 62.67909378 62.06906799 62.97000397 62.70632935 63.26972961 C65.3392014 64.65503497 66.92871219 66.37566364 68.94921875 68.55615234 C70.10744141 69.77141602 70.10744141 69.77141602 71.2890625 71.01123047 C72.90324162 72.72319911 74.50743504 74.44463746 76.1015625 76.17529297 C76.87628906 76.98160156 77.65101563 77.78791016 78.44921875 78.61865234 C79.14644043 79.36526123 79.84366211 80.11187012 80.56201172 80.88110352 C82.75442373 82.64721536 82.75442373 82.64721536 85.54248047 82.33374023 C89.74749076 81.12504164 93.78033971 79.6361108 97.84765625 78.02880859 C98.72446045 77.68761993 99.60126465 77.34643127 100.50463867 76.99490356 C102.38771475 76.26148127 104.26980725 75.52552954 106.15100098 74.78729248 C109.10293134 73.62998972 112.05823562 72.48173675 115.01464844 71.3359375 C123.55506943 68.02312651 132.08805274 64.69326207 140.59625244 61.29846191 C143.69782194 60.06339621 146.80440913 58.84131584 149.9119873 57.62145996 C151.34669994 57.05401526 152.77882431 56.47997764 154.20812988 55.89904785 C156.18612257 55.09532368 158.1716435 54.31387707 160.16015625 53.53662109 C161.26262695 53.09495605 162.36509766 52.65329102 163.50097656 52.19824219 C171.81789231 50.17570287 179.17292559 53.76754374 186.8359375 56.76318359 C187.9908519 57.20654053 189.1457663 57.64989746 190.3356781 58.10668945 C194.02526574 59.52545 197.70988424 60.95664762 201.39453125 62.38818359 C203.81283854 63.31998463 206.23145586 64.25098144 208.65039062 65.18115234 C211.04569994 66.1039998 213.440883 67.02717503 215.8359375 67.95068359 C217.01161285 68.4039502 218.18728821 68.8572168 219.39859009 69.32421875 C225.13853494 71.54481941 230.86240614 73.79630777 236.56201172 76.11865234 C237.61581528 76.5439624 238.66961884 76.96927246 239.75535583 77.4074707 C241.72862277 78.20592862 243.69774278 79.01474271 245.66175842 79.83569336 C246.53642258 80.18817139 247.41108673 80.54064941 248.31225586 80.90380859 C249.06864853 81.21608398 249.8250412 81.52835937 250.60435486 81.85009766 C253.36086677 82.51592161 255.13121565 82.19942711 257.83203125 81.38818359 C260.20172457 79.53533581 260.20172457 79.53533581 262.40625 77.13427734 C263.23833984 76.28027344 264.07042969 75.42626953 264.92773438 74.54638672 C266.21067383 73.19963867 266.21067383 73.19963867 267.51953125 71.82568359 C269.22735537 70.04929256 270.93937574 68.27692298 272.65625 66.50927734 C273.40994873 65.719646 274.16364746 64.93001465 274.94018555 64.11645508 C276.83203125 62.38818359 276.83203125 62.38818359 278.83203125 62.38818359 C278.8220385 61.2894416 278.8220385 61.2894416 278.81184387 60.16850281 C278.75174892 53.26761556 278.70606508 46.3667674 278.67659473 39.46568584 C278.66093432 35.91768424 278.63968974 32.36989872 278.60571289 28.82202148 C278.56690118 24.74379392 278.55232523 20.66579358 278.5390625 16.58740234 C278.52357864 15.31233322 278.50809479 14.0372641 278.49214172 12.72355652 C278.49191513 11.54255875 278.49168854 10.36156097 278.49145508 9.14477539 C278.48146233 7.58257515 278.48146233 7.58257515 278.4712677 5.98881531 C278.83203125 3.38818359 278.83203125 3.38818359 279.96781921 1.55265808 C282.6801105 -0.14156658 284.81515769 0.00677955 288 0 C289.27141846 -0.00945648 290.54283691 -0.01891296 291.8527832 -0.02865601 C293.24170238 -0.02328631 294.63061873 -0.01713337 296.01953125 -0.01025391 C297.44295399 -0.01227479 298.86637572 -0.01518636 300.28979492 -0.01895142 C303.27239849 -0.02337412 306.25473246 -0.01694576 309.23730469 -0.00292969 C313.06088216 0.01416256 316.88382791 0.00432104 320.7073822 -0.01364708 C323.64649212 -0.02448659 326.58545222 -0.0210379 329.52456665 -0.0132637 C330.93437779 -0.01126214 332.34420253 -0.01371947 333.7539978 -0.02070236 C335.72401673 -0.02831864 337.69408334 -0.0146522 339.6640625 0 C340.78530518 0.00238678 341.90654785 0.00477356 343.06176758 0.00723267 C345.83203125 0.38818359 345.83203125 0.38818359 347.69326782 1.52694702 C349.35309358 4.23982691 349.21347109 6.38812454 349.22021484 9.55615234 C349.22967133 10.8275708 349.23912781 12.09898926 349.24887085 13.40893555 C349.24350116 14.79785473 349.23734821 16.18677107 349.23046875 17.57568359 C349.23248964 18.99910634 349.2354012 20.42252807 349.23916626 21.84594727 C349.24358896 24.82855084 349.2371606 27.8108848 349.22314453 30.79345703 C349.20605228 34.6170345 349.2158938 38.43998026 349.23386192 42.26353455 C349.24470144 45.20264447 349.24125274 48.14160457 349.23347855 51.08071899 C349.23147698 52.49053014 349.23393431 53.90035488 349.24091721 55.31015015 C349.24853348 57.28016908 349.23486704 59.25023568 349.22021484 61.22021484 C349.21782806 62.34145752 349.21544128 63.4627002 349.21298218 64.61791992 C348.83203125 67.38818359 348.83203125 67.38818359 347.66755676 69.25239563 C345.06628075 70.86201531 343.12485663 70.74826563 340.07543945 70.72875977 C338.89444168 70.72853317 337.71344391 70.72830658 336.49665833 70.72807312 C335.2215892 70.71258926 333.94652008 70.69710541 332.6328125 70.68115234 C331.32749069 70.6769075 330.02216888 70.67266266 328.67729187 70.66828918 C325.20997846 70.65684448 321.74304312 70.62738114 318.27587891 70.59417725 C314.73670567 70.56346793 311.19747124 70.54978204 307.65820312 70.53466797 C300.7159907 70.50251064 293.77402914 70.45131913 286.83203125 70.38818359 C286.53322052 71.0123114 286.23440979 71.63643921 285.92654419 72.27947998 C284.73282247 74.57932058 283.41884966 76.03021643 281.57421875 77.84130859 C280.63642578 78.76943359 280.63642578 78.76943359 279.6796875 79.71630859 C279.02871094 80.35052734 278.37773437 80.98474609 277.70703125 81.63818359 C277.04832031 82.28787109 276.38960938 82.93755859 275.7109375 83.60693359 C274.08906482 85.20530087 272.46270315 86.79880257 270.83203125 88.38818359 C271.16203125 89.37818359 271.49203125 90.36818359 271.83203125 91.38818359 C271.93040052 93.09838551 271.97128945 94.81215139 271.97920227 96.52516174 C271.98993523 98.12046722 271.98993523 98.12046722 272.00088501 99.7480011 C272.00357391 100.91518173 272.00626282 102.08236237 272.0090332 103.28491211 C272.0156044 104.51464752 272.0221756 105.74438293 272.02894592 107.01138306 C272.04871246 111.09662112 272.0603607 115.18181977 272.0703125 119.26708984 C272.07436252 120.67919369 272.07847951 122.09129734 272.08266258 123.5034008 C272.10172866 130.15092691 272.11594663 136.79844194 272.12427455 143.44599015 C272.13399865 151.07993059 272.16018427 158.71357734 272.20077544 166.34741455 C272.23116038 172.26872874 272.24576509 178.18995998 272.24905556 184.11135048 C272.25138429 187.63652105 272.26005201 191.16137854 272.28551674 194.68646431 C272.41680685 213.85337732 271.40990098 230.88880099 264.01953125 248.76318359 C263.37798534 250.32942291 262.74601961 251.89963026 262.125 253.47412109 C261.85196045 254.13460449 261.5789209 254.79508789 261.29760742 255.47558594 C260.68475697 257.99318971 260.78123216 258.99267106 261.83203125 261.38818359 C263.63806439 263.42580639 265.44031966 265.29778061 267.3984375 267.17724609 C267.95192368 267.72174408 268.50540985 268.26624207 269.07566833 268.82723999 C270.84162998 270.56320359 272.61715715 272.28891206 274.39453125 274.01318359 C276.17455794 275.74546459 277.95228473 277.47987597 279.72410583 279.22055054 C280.82640447 280.30300902 281.93361112 281.38049571 283.04603577 282.45254517 C284.34600594 283.72680789 285.59449235 285.0532059 286.83203125 286.38818359 C286.83203125 287.04818359 286.83203125 287.70818359 286.83203125 288.38818359 C287.56452591 288.38152176 288.29702057 288.37485992 289.05171204 288.36799622 C295.95259928 288.30790126 302.85344745 288.26221743 309.754529 288.23274708 C313.30253061 288.21708666 316.85031612 288.19584209 320.39819336 288.16186523 C324.47642092 288.12305352 328.55442126 288.10847757 332.6328125 288.09521484 C334.54541618 288.07198906 334.54541618 288.07198906 336.49665833 288.04829407 C337.6776561 288.04806747 338.85865387 288.04784088 340.07543945 288.04760742 C341.11690628 288.04094559 342.15837311 288.03428375 343.23139954 288.02742004 C345.83203125 288.38818359 345.83203125 288.38818359 347.66755676 289.52397156 C349.36178143 292.23626285 349.2134353 294.37131003 349.22021484 297.55615234 C349.22967133 298.8275708 349.23912781 300.09898926 349.24887085 301.40893555 C349.24350116 302.79785473 349.23734821 304.18677107 349.23046875 305.57568359 C349.23248964 306.99910634 349.2354012 308.42252807 349.23916626 309.84594727 C349.24358896 312.82855084 349.2371606 315.8108848 349.22314453 318.79345703 C349.20605228 322.6170345 349.2158938 326.43998026 349.23386192 330.26353455 C349.24470144 333.20264447 349.24125274 336.14160457 349.23347855 339.08071899 C349.23147698 340.49053014 349.23393431 341.90035488 349.24091721 343.31015015 C349.24853348 345.28016908 349.23486704 347.25023568 349.22021484 349.22021484 C349.21782806 350.34145752 349.21544128 351.4627002 349.21298218 352.61791992 C348.83203125 355.38818359 348.83203125 355.38818359 347.69326782 357.24942017 C344.98038793 358.90924592 342.8320903 358.76962343 339.6640625 358.77636719 C338.39264404 358.78582367 337.12122559 358.79528015 335.8112793 358.80502319 C334.42236012 358.7996535 333.03344377 358.79350055 331.64453125 358.78662109 C330.22110851 358.78864198 328.79768678 358.79155355 327.37426758 358.7953186 C324.39166401 358.79974131 321.40933004 358.79331295 318.42675781 358.77929688 C314.60318034 358.76220462 310.78023459 358.77204615 306.9566803 358.79001427 C304.01757038 358.80085378 301.07861028 358.79740508 298.13949585 358.78963089 C296.72968471 358.78762933 295.31985997 358.79008665 293.9100647 358.79706955 C291.94004577 358.80468583 289.96997916 358.79101938 288 358.77636719 C286.31813599 358.77278702 286.31813599 358.77278702 284.60229492 358.76913452 C281.83203125 358.38818359 281.83203125 358.38818359 279.96781921 357.22370911 C278.35819953 354.62243309 278.47194921 352.68100898 278.49145508 349.6315918 C278.49168167 348.45059402 278.49190826 347.26959625 278.49214172 346.05281067 C278.50762558 344.77774155 278.52310944 343.50267242 278.5390625 342.18896484 C278.54330734 340.88364304 278.54755219 339.57832123 278.55192566 338.23344421 C278.56337036 334.76613081 278.59283371 331.29919547 278.6260376 327.83203125 C278.65674692 324.29285802 278.6704328 320.75362358 278.68554688 317.21435547 C278.7177042 310.27214305 278.76889571 303.33018148 278.83203125 296.38818359 C278.22304993 296.10451935 277.6140686 295.8208551 276.9866333 295.52859497 C274.00170367 293.94869871 272.00027126 291.77931011 269.62890625 289.38037109 C269.14625305 288.894888 268.66359985 288.40940491 268.1663208 287.90921021 C266.63344563 286.36518493 265.10769121 284.81433535 263.58203125 283.26318359 C262.54082764 282.21194351 261.49916584 281.16115702 260.45703125 280.11083984 C257.91003661 277.54185356 255.36937948 274.96670198 252.83203125 272.38818359 C249.75487932 274.80554302 247.13093025 277.06706549 244.70703125 280.13818359 C229.12959314 298.1506388 203.71942949 305.43235839 180.83203125 307.38818359 C150.59837945 309.21952234 123.04925918 303.69382137 99.390625 283.74365234 C95.56117602 280.21822069 92.14205154 276.40004199 88.83203125 272.38818359 C84.97219287 273.96736143 82.58827012 276.43145509 79.69921875 279.39599609 C79.2213089 279.88147919 78.74339905 280.36696228 78.25100708 280.86715698 C76.73142156 282.41109115 75.21849427 283.96129941 73.70703125 285.51318359 C71.71011531 287.56313176 69.70678782 289.60648601 67.69921875 291.64599609 C66.37059814 293.00942139 66.37059814 293.00942139 65.01513672 294.40039062 C62.83203125 296.38818359 62.83203125 296.38818359 60.83203125 296.38818359 C60.842024 297.48692558 60.842024 297.48692558 60.85221863 298.60786438 C60.91231358 305.50875162 60.95799742 312.40959979 60.98746777 319.31068134 C61.00312818 322.85868295 61.02437276 326.40646847 61.05834961 329.9543457 C61.09716132 334.03257327 61.11173727 338.11057361 61.125 342.18896484 C61.14048386 343.46403397 61.15596771 344.73910309 61.17192078 346.05281067 C61.17214737 347.23380844 61.17237396 348.41480621 61.17260742 349.6315918 C61.18260017 351.19379204 61.18260017 351.19379204 61.1927948 352.78755188 C60.83203125 355.38818359 60.83203125 355.38818359 59.69624329 357.22370911 C56.983952 358.91793377 54.84890481 358.76958764 51.6640625 358.77636719 C50.39264404 358.78582367 49.12122559 358.79528015 47.8112793 358.80502319 C46.42236012 358.7996535 45.03344377 358.79350055 43.64453125 358.78662109 C42.22110851 358.78864198 40.79768678 358.79155355 39.37426758 358.7953186 C36.39166401 358.79974131 33.40933004 358.79331295 30.42675781 358.77929688 C26.60318034 358.76220462 22.78023459 358.77204615 18.9566803 358.79001427 C16.01757038 358.80085378 13.07861028 358.79740508 10.13949585 358.78963089 C8.72968471 358.78762933 7.31985997 358.79008665 5.9100647 358.79706955 C3.94004577 358.80468583 1.96997916 358.79101938 0 358.77636719 C-1.68186401 358.77278702 -1.68186401 358.77278702 -3.39770508 358.76913452 C-6.16796875 358.38818359 -6.16796875 358.38818359 -8.02920532 357.24942017 C-9.68903108 354.53654028 -9.54940859 352.38824265 -9.55615234 349.22021484 C-9.56560883 347.94879639 -9.57506531 346.67737793 -9.58480835 345.36743164 C-9.57943866 343.97851246 -9.57328571 342.58959612 -9.56640625 341.20068359 C-9.56842714 339.77726085 -9.5713387 338.35383912 -9.57510376 336.93041992 C-9.57952646 333.94781635 -9.5730981 330.96548238 -9.55908203 327.98291016 C-9.54198978 324.15933269 -9.5518313 320.33638693 -9.56979942 316.51283264 C-9.58063894 313.57372272 -9.57719024 310.63476262 -9.56941605 307.69564819 C-9.56741448 306.28583705 -9.56987181 304.87601231 -9.57685471 303.46621704 C-9.58447098 301.49619811 -9.57080454 299.52613151 -9.55615234 297.55615234 C-9.55376556 296.43490967 -9.55137878 295.31366699 -9.54891968 294.15844727 C-9.16796875 291.38818359 -9.16796875 291.38818359 -7.99655151 289.52276611 C-5.4246327 287.92696516 -3.54015907 288.03728882 -0.52246094 288.06689453 C1.21514496 288.07109406 1.21514496 288.07109406 2.987854 288.07537842 C4.24096375 288.09094788 5.49407349 288.10651733 6.78515625 288.12255859 C8.7543943 288.1204965 10.72363332 288.11839301 12.69286728 288.11388016 C17.54921086 288.10662007 22.40514554 288.12938677 27.26123047 288.17871094 C29.98477685 288.20512336 32.70720061 288.21284393 35.43084717 288.20074463 C37.99408639 288.19047937 40.55762557 288.20805884 43.12042236 288.2567749 C50.85880861 288.19717983 50.85880861 288.19717983 57.05395508 283.97290039 C58.01161351 282.80319413 58.9429266 281.61081 59.83203125 280.38818359 C60.47011719 279.67791016 61.10820312 278.96763672 61.765625 278.23583984 C62.51005859 277.3521875 62.51005859 277.3521875 63.26953125 276.45068359 C66.90499609 272.24769144 70.62235112 268.02689561 74.83203125 264.38818359 C75.49203125 264.38818359 76.15203125 264.38818359 76.83203125 264.38818359 C77.49203125 263.06818359 78.15203125 261.74818359 78.83203125 260.38818359 C79.49203125 260.38818359 80.15203125 260.38818359 80.83203125 260.38818359 C80.46851563 259.69337891 80.105 258.99857422 79.73046875 258.28271484 C73.25750864 245.18741862 67.69732076 229.54658902 67.71177673 214.79623413 C67.70971474 213.1643943 67.70971474 213.1643943 67.70761108 211.49958801 C67.713004 209.73200386 67.713004 209.73200386 67.71850586 207.92871094 C67.71835983 206.67604935 67.71821381 205.42338776 67.71806335 204.13276672 C67.71863942 200.70938507 67.72364557 197.28606421 67.73063731 193.86269331 C67.73690633 190.27578379 67.73747763 186.68887338 67.73866272 183.10195923 C67.74176757 176.31059241 67.74996776 169.51924174 67.76001221 162.72788203 C67.77118041 155.01039478 67.77668876 147.29290678 67.78170764 139.57541347 C67.79172879 124.34301881 67.80818677 109.11063952 67.82923794 93.87825584 C68.15236569 89.45465421 68.15236569 89.45465421 66.45507812 85.58886719 C65.82666016 84.99412598 65.19824219 84.39938477 64.55078125 83.78662109 C63.87402344 83.13177734 63.19726562 82.47693359 62.5 81.80224609 C61.78457031 81.12935547 61.06914062 80.45646484 60.33203125 79.76318359 C58.92152129 78.42129304 57.51504059 77.07515009 56.11328125 75.72412109 C55.1706543 74.83539307 55.1706543 74.83539307 54.20898438 73.92871094 C52.83203125 72.38818359 52.83203125 72.38818359 52.83203125 70.38818359 C52.09953659 70.39484543 51.36704193 70.40150726 50.61235046 70.40837097 C43.71146322 70.46846593 36.81061505 70.51414976 29.9095335 70.54362011 C26.36153189 70.55928053 22.81374638 70.5805251 19.26586914 70.61450195 C15.18764158 70.65331366 11.10964124 70.66788962 7.03125 70.68115234 C5.75618088 70.6966362 4.48111176 70.71212006 3.16740417 70.72807312 C1.9864064 70.72829971 0.80540863 70.72852631 -0.41137695 70.72875977 C-1.97357719 70.73875252 -1.97357719 70.73875252 -3.56733704 70.74894714 C-6.16796875 70.38818359 -6.16796875 70.38818359 -8.00349426 69.25239563 C-9.69771893 66.54010434 -9.5493728 64.40505716 -9.55615234 61.22021484 C-9.56560883 59.94879639 -9.57506531 58.67737793 -9.58480835 57.36743164 C-9.57943866 55.97851246 -9.57328571 54.58959612 -9.56640625 53.20068359 C-9.56842714 51.77726085 -9.5713387 50.35383912 -9.57510376 48.93041992 C-9.57952646 45.94781635 -9.5730981 42.96548238 -9.55908203 39.98291016 C-9.54198978 36.15933269 -9.5518313 32.33638693 -9.56979942 28.51283264 C-9.58063894 25.57372272 -9.57719024 22.63476262 -9.56941605 19.69564819 C-9.56741448 18.28583705 -9.56987181 16.87601231 -9.57685471 15.46621704 C-9.58447098 13.49619811 -9.57080454 11.52613151 -9.55615234 9.55615234 C-9.55376556 8.43490967 -9.55137878 7.31366699 -9.54891968 6.15844727 C-9.16796875 3.38818359 -9.16796875 3.38818359 -8.02920532 1.52694702 C-5.31632543 -0.13287873 -3.1680278 0.00674375 0 0 Z " fill="#FDFDFE" transform="translate(86.16796875,76.61181640625)"></path><path d="M0 0 C1.27141846 -0.00945648 2.54283691 -0.01891296 3.8527832 -0.02865601 C5.24170238 -0.02328631 6.63061873 -0.01713337 8.01953125 -0.01025391 C9.44295399 -0.01227479 10.86637572 -0.01518636 12.28979492 -0.01895142 C15.27239849 -0.02337412 18.25473246 -0.01694576 21.23730469 -0.00292969 C25.06088216 0.01416256 28.88382791 0.00432104 32.7073822 -0.01364708 C35.64649212 -0.02448659 38.58545222 -0.0210379 41.52456665 -0.0132637 C42.93437779 -0.01126214 44.34420253 -0.01371947 45.7539978 -0.02070236 C47.72401673 -0.02831864 49.69408334 -0.0146522 51.6640625 0 C52.78530518 0.00238678 53.90654785 0.00477356 55.06176758 0.00723267 C57.83203125 0.38818359 57.83203125 0.38818359 59.69624329 1.55265808 C61.30586297 4.15393409 61.19211329 6.09535821 61.17260742 9.14477539 C61.17238083 10.32577316 61.17215424 11.50677094 61.17192078 12.72355652 C61.15643692 13.99862564 61.14095306 15.27369476 61.125 16.58740234 C61.12075516 17.89272415 61.11651031 19.19804596 61.11213684 20.54292297 C61.10069214 24.01023638 61.07122879 27.47717172 61.0380249 30.94433594 C61.00731558 34.48350917 60.9936297 38.0227436 60.97851562 41.56201172 C60.9463583 48.50422414 60.89516679 55.44618571 60.83203125 62.38818359 C61.45054962 62.67909378 62.06906799 62.97000397 62.70632935 63.26972961 C65.3392014 64.65503497 66.92871219 66.37566364 68.94921875 68.55615234 C70.10744141 69.77141602 70.10744141 69.77141602 71.2890625 71.01123047 C72.90324162 72.72319911 74.50743504 74.44463746 76.1015625 76.17529297 C76.87628906 76.98160156 77.65101563 77.78791016 78.44921875 78.61865234 C79.14644043 79.36526123 79.84366211 80.11187012 80.56201172 80.88110352 C82.75442373 82.64721536 82.75442373 82.64721536 85.54248047 82.33374023 C89.74749076 81.12504164 93.78033971 79.6361108 97.84765625 78.02880859 C98.72446045 77.68761993 99.60126465 77.34643127 100.50463867 76.99490356 C102.38771475 76.26148127 104.26980725 75.52552954 106.15100098 74.78729248 C109.10293134 73.62998972 112.05823562 72.48173675 115.01464844 71.3359375 C123.55506943 68.02312651 132.08805274 64.69326207 140.59625244 61.29846191 C143.69782194 60.06339621 146.80440913 58.84131584 149.9119873 57.62145996 C151.34669994 57.05401526 152.77882431 56.47997764 154.20812988 55.89904785 C156.18612257 55.09532368 158.1716435 54.31387707 160.16015625 53.53662109 C161.26262695 53.09495605 162.36509766 52.65329102 163.50097656 52.19824219 C171.81789231 50.17570287 179.17292559 53.76754374 186.8359375 56.76318359 C187.9908519 57.20654053 189.1457663 57.64989746 190.3356781 58.10668945 C194.02526574 59.52545 197.70988424 60.95664762 201.39453125 62.38818359 C203.81283854 63.31998463 206.23145586 64.25098144 208.65039062 65.18115234 C211.04569994 66.1039998 213.440883 67.02717503 215.8359375 67.95068359 C217.01161285 68.4039502 218.18728821 68.8572168 219.39859009 69.32421875 C225.13853494 71.54481941 230.86240614 73.79630777 236.56201172 76.11865234 C237.61581528 76.5439624 238.66961884 76.96927246 239.75535583 77.4074707 C241.72862277 78.20592862 243.69774278 79.01474271 245.66175842 79.83569336 C246.53642258 80.18817139 247.41108673 80.54064941 248.31225586 80.90380859 C249.06864853 81.21608398 249.8250412 81.52835937 250.60435486 81.85009766 C253.36086677 82.51592161 255.13121565 82.19942711 257.83203125 81.38818359 C260.20172457 79.53533581 260.20172457 79.53533581 262.40625 77.13427734 C263.23833984 76.28027344 264.07042969 75.42626953 264.92773438 74.54638672 C266.21067383 73.19963867 266.21067383 73.19963867 267.51953125 71.82568359 C269.22735537 70.04929256 270.93937574 68.27692298 272.65625 66.50927734 C273.40994873 65.719646 274.16364746 64.93001465 274.94018555 64.11645508 C276.83203125 62.38818359 276.83203125 62.38818359 278.83203125 62.38818359 C278.8220385 61.2894416 278.8220385 61.2894416 278.81184387 60.16850281 C278.75174892 53.26761556 278.70606508 46.3667674 278.67659473 39.46568584 C278.66093432 35.91768424 278.63968974 32.36989872 278.60571289 28.82202148 C278.56690118 24.74379392 278.55232523 20.66579358 278.5390625 16.58740234 C278.52357864 15.31233322 278.50809479 14.0372641 278.49214172 12.72355652 C278.49191513 11.54255875 278.49168854 10.36156097 278.49145508 9.14477539 C278.48146233 7.58257515 278.48146233 7.58257515 278.4712677 5.98881531 C278.83203125 3.38818359 278.83203125 3.38818359 279.96781921 1.55265808 C282.6801105 -0.14156658 284.81515769 0.00677955 288 0 C289.27141846 -0.00945648 290.54283691 -0.01891296 291.8527832 -0.02865601 C293.24170238 -0.02328631 294.63061873 -0.01713337 296.01953125 -0.01025391 C297.44295399 -0.01227479 298.86637572 -0.01518636 300.28979492 -0.01895142 C303.27239849 -0.02337412 306.25473246 -0.01694576 309.23730469 -0.00292969 C313.06088216 0.01416256 316.88382791 0.00432104 320.7073822 -0.01364708 C323.64649212 -0.02448659 326.58545222 -0.0210379 329.52456665 -0.0132637 C330.93437779 -0.01126214 332.34420253 -0.01371947 333.7539978 -0.02070236 C335.72401673 -0.02831864 337.69408334 -0.0146522 339.6640625 0 C340.78530518 0.00238678 341.90654785 0.00477356 343.06176758 0.00723267 C345.83203125 0.38818359 345.83203125 0.38818359 347.69326782 1.52694702 C349.35309358 4.23982691 349.21347109 6.38812454 349.22021484 9.55615234 C349.22967133 10.8275708 349.23912781 12.09898926 349.24887085 13.40893555 C349.24350116 14.79785473 349.23734821 16.18677107 349.23046875 17.57568359 C349.23248964 18.99910634 349.2354012 20.42252807 349.23916626 21.84594727 C349.24358896 24.82855084 349.2371606 27.8108848 349.22314453 30.79345703 C349.20605228 34.6170345 349.2158938 38.43998026 349.23386192 42.26353455 C349.24470144 45.20264447 349.24125274 48.14160457 349.23347855 51.08071899 C349.23147698 52.49053014 349.23393431 53.90035488 349.24091721 55.31015015 C349.24853348 57.28016908 349.23486704 59.25023568 349.22021484 61.22021484 C349.21782806 62.34145752 349.21544128 63.4627002 349.21298218 64.61791992 C348.83203125 67.38818359 348.83203125 67.38818359 347.66755676 69.25239563 C345.06628075 70.86201531 343.12485663 70.74826563 340.07543945 70.72875977 C338.89444168 70.72853317 337.71344391 70.72830658 336.49665833 70.72807312 C335.2215892 70.71258926 333.94652008 70.69710541 332.6328125 70.68115234 C331.32749069 70.6769075 330.02216888 70.67266266 328.67729187 70.66828918 C325.20997846 70.65684448 321.74304312 70.62738114 318.27587891 70.59417725 C314.73670567 70.56346793 311.19747124 70.54978204 307.65820312 70.53466797 C300.7159907 70.50251064 293.77402914 70.45131913 286.83203125 70.38818359 C286.53322052 71.0123114 286.23440979 71.63643921 285.92654419 72.27947998 C284.73282247 74.57932058 283.41884966 76.03021643 281.57421875 77.84130859 C280.63642578 78.76943359 280.63642578 78.76943359 279.6796875 79.71630859 C279.02871094 80.35052734 278.37773437 80.98474609 277.70703125 81.63818359 C277.04832031 82.28787109 276.38960938 82.93755859 275.7109375 83.60693359 C274.08906482 85.20530087 272.46270315 86.79880257 270.83203125 88.38818359 C271.16203125 89.37818359 271.49203125 90.36818359 271.83203125 91.38818359 C271.93040052 93.09838551 271.97128945 94.81215139 271.97920227 96.52516174 C271.98993523 98.12046722 271.98993523 98.12046722 272.00088501 99.7480011 C272.00357391 100.91518173 272.00626282 102.08236237 272.0090332 103.28491211 C272.0156044 104.51464752 272.0221756 105.74438293 272.02894592 107.01138306 C272.04871246 111.09662112 272.0603607 115.18181977 272.0703125 119.26708984 C272.07436252 120.67919369 272.07847951 122.09129734 272.08266258 123.5034008 C272.10172866 130.15092691 272.11594663 136.79844194 272.12427455 143.44599015 C272.13399865 151.07993059 272.16018427 158.71357734 272.20077544 166.34741455 C272.23116038 172.26872874 272.24576509 178.18995998 272.24905556 184.11135048 C272.25138429 187.63652105 272.26005201 191.16137854 272.28551674 194.68646431 C272.41680685 213.85337732 271.40990098 230.88880099 264.01953125 248.76318359 C263.37798534 250.32942291 262.74601961 251.89963026 262.125 253.47412109 C261.85196045 254.13460449 261.5789209 254.79508789 261.29760742 255.47558594 C260.68475697 257.99318971 260.78123216 258.99267106 261.83203125 261.38818359 C263.63806439 263.42580639 265.44031966 265.29778061 267.3984375 267.17724609 C267.95192368 267.72174408 268.50540985 268.26624207 269.07566833 268.82723999 C270.84162998 270.56320359 272.61715715 272.28891206 274.39453125 274.01318359 C276.17455794 275.74546459 277.95228473 277.47987597 279.72410583 279.22055054 C280.82640447 280.30300902 281.93361112 281.38049571 283.04603577 282.45254517 C284.34600594 283.72680789 285.59449235 285.0532059 286.83203125 286.38818359 C286.83203125 287.04818359 286.83203125 287.70818359 286.83203125 288.38818359 C287.56452591 288.38152176 288.29702057 288.37485992 289.05171204 288.36799622 C295.95259928 288.30790126 302.85344745 288.26221743 309.754529 288.23274708 C313.30253061 288.21708666 316.85031612 288.19584209 320.39819336 288.16186523 C324.47642092 288.12305352 328.55442126 288.10847757 332.6328125 288.09521484 C334.54541618 288.07198906 334.54541618 288.07198906 336.49665833 288.04829407 C337.6776561 288.04806747 338.85865387 288.04784088 340.07543945 288.04760742 C341.11690628 288.04094559 342.15837311 288.03428375 343.23139954 288.02742004 C345.83203125 288.38818359 345.83203125 288.38818359 347.66755676 289.52397156 C349.36178143 292.23626285 349.2134353 294.37131003 349.22021484 297.55615234 C349.22967133 298.8275708 349.23912781 300.09898926 349.24887085 301.40893555 C349.24350116 302.79785473 349.23734821 304.18677107 349.23046875 305.57568359 C349.23248964 306.99910634 349.2354012 308.42252807 349.23916626 309.84594727 C349.24358896 312.82855084 349.2371606 315.8108848 349.22314453 318.79345703 C349.20605228 322.6170345 349.2158938 326.43998026 349.23386192 330.26353455 C349.24470144 333.20264447 349.24125274 336.14160457 349.23347855 339.08071899 C349.23147698 340.49053014 349.23393431 341.90035488 349.24091721 343.31015015 C349.24853348 345.28016908 349.23486704 347.25023568 349.22021484 349.22021484 C349.21782806 350.34145752 349.21544128 351.4627002 349.21298218 352.61791992 C348.83203125 355.38818359 348.83203125 355.38818359 347.69326782 357.24942017 C344.98038793 358.90924592 342.8320903 358.76962343 339.6640625 358.77636719 C338.39264404 358.78582367 337.12122559 358.79528015 335.8112793 358.80502319 C334.42236012 358.7996535 333.03344377 358.79350055 331.64453125 358.78662109 C330.22110851 358.78864198 328.79768678 358.79155355 327.37426758 358.7953186 C324.39166401 358.79974131 321.40933004 358.79331295 318.42675781 358.77929688 C314.60318034 358.76220462 310.78023459 358.77204615 306.9566803 358.79001427 C304.01757038 358.80085378 301.07861028 358.79740508 298.13949585 358.78963089 C296.72968471 358.78762933 295.31985997 358.79008665 293.9100647 358.79706955 C291.94004577 358.80468583 289.96997916 358.79101938 288 358.77636719 C286.31813599 358.77278702 286.31813599 358.77278702 284.60229492 358.76913452 C281.83203125 358.38818359 281.83203125 358.38818359 279.96781921 357.22370911 C278.35819953 354.62243309 278.47194921 352.68100898 278.49145508 349.6315918 C278.49168167 348.45059402 278.49190826 347.26959625 278.49214172 346.05281067 C278.50762558 344.77774155 278.52310944 343.50267242 278.5390625 342.18896484 C278.54330734 340.88364304 278.54755219 339.57832123 278.55192566 338.23344421 C278.56337036 334.76613081 278.59283371 331.29919547 278.6260376 327.83203125 C278.65674692 324.29285802 278.6704328 320.75362358 278.68554688 317.21435547 C278.7177042 310.27214305 278.76889571 303.33018148 278.83203125 296.38818359 C278.22304993 296.10451935 277.6140686 295.8208551 276.9866333 295.52859497 C274.00170367 293.94869871 272.00027126 291.77931011 269.62890625 289.38037109 C269.14625305 288.894888 268.66359985 288.40940491 268.1663208 287.90921021 C266.63344563 286.36518493 265.10769121 284.81433535 263.58203125 283.26318359 C262.54082764 282.21194351 261.49916584 281.16115702 260.45703125 280.11083984 C257.91003661 277.54185356 255.36937948 274.96670198 252.83203125 272.38818359 C249.75487932 274.80554302 247.13093025 277.06706549 244.70703125 280.13818359 C229.12959314 298.1506388 203.71942949 305.43235839 180.83203125 307.38818359 C150.59837945 309.21952234 123.04925918 303.69382137 99.390625 283.74365234 C95.56117602 280.21822069 92.14205154 276.40004199 88.83203125 272.38818359 C84.97219287 273.96736143 82.58827012 276.43145509 79.69921875 279.39599609 C79.2213089 279.88147919 78.74339905 280.36696228 78.25100708 280.86715698 C76.73142156 282.41109115 75.21849427 283.96129941 73.70703125 285.51318359 C71.71011531 287.56313176 69.70678782 289.60648601 67.69921875 291.64599609 C66.37059814 293.00942139 66.37059814 293.00942139 65.01513672 294.40039062 C62.83203125 296.38818359 62.83203125 296.38818359 60.83203125 296.38818359 C60.842024 297.48692558 60.842024 297.48692558 60.85221863 298.60786438 C60.91231358 305.50875162 60.95799742 312.40959979 60.98746777 319.31068134 C61.00312818 322.85868295 61.02437276 326.40646847 61.05834961 329.9543457 C61.09716132 334.03257327 61.11173727 338.11057361 61.125 342.18896484 C61.14048386 343.46403397 61.15596771 344.73910309 61.17192078 346.05281067 C61.17214737 347.23380844 61.17237396 348.41480621 61.17260742 349.6315918 C61.18260017 351.19379204 61.18260017 351.19379204 61.1927948 352.78755188 C60.83203125 355.38818359 60.83203125 355.38818359 59.69624329 357.22370911 C56.983952 358.91793377 54.84890481 358.76958764 51.6640625 358.77636719 C50.39264404 358.78582367 49.12122559 358.79528015 47.8112793 358.80502319 C46.42236012 358.7996535 45.03344377 358.79350055 43.64453125 358.78662109 C42.22110851 358.78864198 40.79768678 358.79155355 39.37426758 358.7953186 C36.39166401 358.79974131 33.40933004 358.79331295 30.42675781 358.77929688 C26.60318034 358.76220462 22.78023459 358.77204615 18.9566803 358.79001427 C16.01757038 358.80085378 13.07861028 358.79740508 10.13949585 358.78963089 C8.72968471 358.78762933 7.31985997 358.79008665 5.9100647 358.79706955 C3.94004577 358.80468583 1.96997916 358.79101938 0 358.77636719 C-1.68186401 358.77278702 -1.68186401 358.77278702 -3.39770508 358.76913452 C-6.16796875 358.38818359 -6.16796875 358.38818359 -8.02920532 357.24942017 C-9.68903108 354.53654028 -9.54940859 352.38824265 -9.55615234 349.22021484 C-9.56560883 347.94879639 -9.57506531 346.67737793 -9.58480835 345.36743164 C-9.57943866 343.97851246 -9.57328571 342.58959612 -9.56640625 341.20068359 C-9.56842714 339.77726085 -9.5713387 338.35383912 -9.57510376 336.93041992 C-9.57952646 333.94781635 -9.5730981 330.96548238 -9.55908203 327.98291016 C-9.54198978 324.15933269 -9.5518313 320.33638693 -9.56979942 316.51283264 C-9.58063894 313.57372272 -9.57719024 310.63476262 -9.56941605 307.69564819 C-9.56741448 306.28583705 -9.56987181 304.87601231 -9.57685471 303.46621704 C-9.58447098 301.49619811 -9.57080454 299.52613151 -9.55615234 297.55615234 C-9.55376556 296.43490967 -9.55137878 295.31366699 -9.54891968 294.15844727 C-9.16796875 291.38818359 -9.16796875 291.38818359 -7.99655151 289.52276611 C-5.4246327 287.92696516 -3.54015907 288.03728882 -0.52246094 288.06689453 C1.21514496 288.07109406 1.21514496 288.07109406 2.987854 288.07537842 C4.24096375 288.09094788 5.49407349 288.10651733 6.78515625 288.12255859 C8.7543943 288.1204965 10.72363332 288.11839301 12.69286728 288.11388016 C17.54921086 288.10662007 22.40514554 288.12938677 27.26123047 288.17871094 C29.98477685 288.20512336 32.70720061 288.21284393 35.43084717 288.20074463 C37.99408639 288.19047937 40.55762557 288.20805884 43.12042236 288.2567749 C50.85880861 288.19717983 50.85880861 288.19717983 57.05395508 283.97290039 C58.01161351 282.80319413 58.9429266 281.61081 59.83203125 280.38818359 C60.47011719 279.67791016 61.10820312 278.96763672 61.765625 278.23583984 C62.51005859 277.3521875 62.51005859 277.3521875 63.26953125 276.45068359 C66.90499609 272.24769144 70.62235112 268.02689561 74.83203125 264.38818359 C75.49203125 264.38818359 76.15203125 264.38818359 76.83203125 264.38818359 C77.49203125 263.06818359 78.15203125 261.74818359 78.83203125 260.38818359 C79.49203125 260.38818359 80.15203125 260.38818359 80.83203125 260.38818359 C80.46851563 259.69337891 80.105 258.99857422 79.73046875 258.28271484 C73.25750864 245.18741862 67.69732076 229.54658902 67.71177673 214.79623413 C67.70971474 213.1643943 67.70971474 213.1643943 67.70761108 211.49958801 C67.713004 209.73200386 67.713004 209.73200386 67.71850586 207.92871094 C67.71835983 206.67604935 67.71821381 205.42338776 67.71806335 204.13276672 C67.71863942 200.70938507 67.72364557 197.28606421 67.73063731 193.86269331 C67.73690633 190.27578379 67.73747763 186.68887338 67.73866272 183.10195923 C67.74176757 176.31059241 67.74996776 169.51924174 67.76001221 162.72788203 C67.77118041 155.01039478 67.77668876 147.29290678 67.78170764 139.57541347 C67.79172879 124.34301881 67.80818677 109.11063952 67.82923794 93.87825584 C68.15236569 89.45465421 68.15236569 89.45465421 66.45507812 85.58886719 C65.82666016 84.99412598 65.19824219 84.39938477 64.55078125 83.78662109 C63.87402344 83.13177734 63.19726562 82.47693359 62.5 81.80224609 C61.78457031 81.12935547 61.06914062 80.45646484 60.33203125 79.76318359 C58.92152129 78.42129304 57.51504059 77.07515009 56.11328125 75.72412109 C55.1706543 74.83539307 55.1706543 74.83539307 54.20898438 73.92871094 C52.83203125 72.38818359 52.83203125 72.38818359 52.83203125 70.38818359 C52.09953659 70.39484543 51.36704193 70.40150726 50.61235046 70.40837097 C43.71146322 70.46846593 36.81061505 70.51414976 29.9095335 70.54362011 C26.36153189 70.55928053 22.81374638 70.5805251 19.26586914 70.61450195 C15.18764158 70.65331366 11.10964124 70.66788962 7.03125 70.68115234 C5.75618088 70.6966362 4.48111176 70.71212006 3.16740417 70.72807312 C1.9864064 70.72829971 0.80540863 70.72852631 -0.41137695 70.72875977 C-1.97357719 70.73875252 -1.97357719 70.73875252 -3.56733704 70.74894714 C-6.16796875 70.38818359 -6.16796875 70.38818359 -8.00349426 69.25239563 C-9.69771893 66.54010434 -9.5493728 64.40505716 -9.55615234 61.22021484 C-9.56560883 59.94879639 -9.57506531 58.67737793 -9.58480835 57.36743164 C-9.57943866 55.97851246 -9.57328571 54.58959612 -9.56640625 53.20068359 C-9.56842714 51.77726085 -9.5713387 50.35383912 -9.57510376 48.93041992 C-9.57952646 45.94781635 -9.5730981 42.96548238 -9.55908203 39.98291016 C-9.54198978 36.15933269 -9.5518313 32.33638693 -9.56979942 28.51283264 C-9.58063894 25.57372272 -9.57719024 22.63476262 -9.56941605 19.69564819 C-9.56741448 18.28583705 -9.56987181 16.87601231 -9.57685471 15.46621704 C-9.58447098 13.49619811 -9.57080454 11.52613151 -9.55615234 9.55615234 C-9.55376556 8.43490967 -9.55137878 7.31366699 -9.54891968 6.15844727 C-9.16796875 3.38818359 -9.16796875 3.38818359 -8.02920532 1.52694702 C-5.31632543 -0.13287873 -3.1680278 0.00674375 0 0 Z M163.86865234 65.99609375 C162.87755463 66.37464508 161.88645691 66.75319641 160.86532593 67.14321899 C159.78957306 67.56694794 158.71382019 67.99067688 157.60546875 68.42724609 C155.90374008 69.0822963 155.90374008 69.0822963 154.16763306 69.75057983 C150.51002176 71.16115482 146.85849674 72.58678462 143.20703125 74.01318359 C140.86367676 74.9204558 138.51992997 75.82671545 136.17578125 76.73193359 C131.35848892 78.59338049 126.54341934 80.46043562 121.72949219 82.33056641 C112.83038775 85.78480095 103.91363607 89.19282994 94.99609375 92.59912109 C94.23262005 92.89076771 93.46914635 93.18241432 92.68253708 93.48289871 C88.39936637 95.11886232 84.11585218 96.75392341 79.83203125 98.38818359 C79.7616072 113.10595267 79.70888091 127.82369912 79.67659473 142.54160309 C79.66119791 149.37707692 79.64024796 156.2124454 79.60571289 163.04785156 C79.57234744 169.65497073 79.55513461 176.26200993 79.54739952 182.86921692 C79.54189315 185.37915256 79.53114151 187.88908281 79.51484108 190.39897156 C79.43168304 203.74456184 79.55862461 216.39124297 82.83203125 229.38818359 C83.0293837 230.20541901 83.22673615 231.02265442 83.43006897 231.86465454 C87.06062792 245.87496304 93.10725976 258.5698635 102.83203125 269.38818359 C103.35023438 269.99919922 103.8684375 270.61021484 104.40234375 271.23974609 C117.49067719 285.64348993 138.23431354 293.25217777 157.23779297 294.63623047 C184.81485796 295.93741471 212.41940228 291.68722369 234.08203125 273.13818359 C251.58076708 256.56486168 259.36534769 232.91939812 260.09310913 209.26239014 C260.21457505 202.18688656 260.17033571 195.11265449 260.125 188.03662109 C260.11939213 185.43918098 260.11512768 182.84173766 260.11213684 180.24429321 C260.10193615 174.15680018 260.078405 168.06949882 260.04808837 161.98207724 C260.01427698 155.03864751 259.99799195 148.09520882 259.98300207 141.15171695 C259.95184521 126.89711745 259.89925396 112.64265647 259.83203125 98.38818359 C258.9913208 98.08114502 258.15061035 97.77410645 257.28442383 97.45776367 C254.0988818 96.29376098 250.91370757 95.12876193 247.72875977 93.96313477 C246.36268992 93.46339995 244.99648379 92.96403749 243.63012695 92.46508789 C233.07014825 88.60850133 222.5337398 84.69651496 212.10546875 80.49365234 C205.35766901 77.78007093 198.5631407 75.18721952 191.77099609 72.5871582 C189.44023355 71.69424843 187.11074729 70.7980601 184.78125 69.90185547 C183.29044192 69.33069003 181.79955919 68.75971939 180.30859375 68.18896484 C179.61690094 67.92231522 178.92520813 67.65566559 178.21255493 67.38093567 C171.09580322 64.50390185 171.09580322 64.50390185 163.86865234 65.99609375 Z " fill="#FBFAFE" transform="translate(86.16796875,76.61181640625)"></path><path d="M0 0 C1.87418047 0.72424495 3.74930875 1.44641767 5.63407898 2.14263916 C7.79522538 2.94104606 9.94607855 3.76290257 12.09570312 4.59179688 C12.83183838 4.87531006 13.56797363 5.15882324 14.32641602 5.45092773 C15.06432373 5.73524658 15.80223145 6.01956543 16.5625 6.3125 C19.48011687 7.4345108 22.39816332 8.55539988 25.31640625 9.67578125 C26.04057236 9.95393173 26.76473846 10.23208221 27.510849 10.5186615 C33.03615024 12.63791551 38.57345295 14.72377463 44.11639404 16.79638672 C48.68263153 18.50414738 53.24358173 20.22529904 57.80078125 21.95703125 C58.42519608 22.19426407 59.0496109 22.43149689 59.69294739 22.67591858 C62.21630629 23.63492513 64.73946255 24.59446309 67.26245117 25.55444336 C69.1500293 26.27249484 71.03790061 26.98977549 72.92578125 27.70703125 C74.02317627 28.1244458 75.12057129 28.54186035 76.2512207 28.97192383 C78.15446787 29.68376092 80.07226671 30.35742224 82 31 C82.09412314 45.87487891 82.16430777 60.74973446 82.20724869 75.62484932 C82.22773138 82.53418149 82.25557204 89.44332692 82.30175781 96.35253906 C82.34642275 103.03752028 82.36922969 109.72226887 82.37950897 116.40740585 C82.38682139 118.94030661 82.401097 121.47319848 82.42292023 124.00601578 C82.64308668 150.65195608 80.5948641 176.7258786 63 198 C62.29810547 198.94359375 62.29810547 198.94359375 61.58203125 199.90625 C50.68575848 213.9659568 32.77121055 221.0637092 16 225 C15.29415771 225.17587646 14.58831543 225.35175293 13.86108398 225.53295898 C-10.23932691 231.04296385 -38.00338865 227.66629086 -59.32519531 215.05273438 C-63.55041687 212.39688083 -67.31963418 209.35764718 -71 206 C-71.91265625 205.22462891 -71.91265625 205.22462891 -72.84375 204.43359375 C-89.2119046 189.59065356 -96.90702481 164.35041529 -98.17959976 142.98462486 C-98.24247034 139.9770214 -98.24807985 136.97570192 -98.22705078 133.9675293 C-98.22748886 132.28219086 -98.22748886 132.28219086 -98.22793579 130.56280518 C-98.22655776 126.89986064 -98.2110693 123.23712714 -98.1953125 119.57421875 C-98.19157693 117.01447155 -98.18873253 114.4547229 -98.18673706 111.89497375 C-98.17991689 105.87819251 -98.16420213 99.86149994 -98.14403808 93.84475404 C-98.12155922 86.98606877 -98.11065574 80.12737966 -98.10064721 73.26866663 C-98.07983175 59.17907033 -98.04473129 45.08953925 -98 31 C-97.13388265 30.67251172 -97.13388265 30.67251172 -96.25026798 30.33840752 C-90.11566915 28.01832203 -83.98232373 25.69494483 -77.84962463 23.36984253 C-75.5756176 22.50815585 -73.30131584 21.64724648 -71.02668762 20.78720093 C-55.06859999 14.75257996 -39.17351243 8.58417261 -23.40074444 2.07871914 C-22.58539132 1.74251584 -21.7700382 1.40631254 -20.92997742 1.05992126 C-20.20594066 0.76005782 -19.4819039 0.46019438 -18.73592663 0.15124416 C-11.45700638 -2.75158508 -7.07014566 -3.69812121 0 0 Z M-17.5 20.67578125 C-18.24057648 20.95694794 -18.98115295 21.23811462 -19.74417114 21.52780151 C-22.16543893 22.44923691 -24.58280983 23.38042543 -27 24.3125 C-28.66637406 24.95061587 -30.33287896 25.58839018 -31.99951172 26.22583008 C-35.37483144 27.51868419 -38.74820948 28.81643785 -42.12011719 30.11816406 C-45.92233959 31.5860005 -49.72837814 33.04349623 -53.53643799 34.49610901 C-56.73563348 35.71881267 -59.93016019 36.95345906 -63.125 38.1875 C-64.87296875 38.85422729 -64.87296875 38.85422729 -66.65625 39.53442383 C-67.72101563 39.94974365 -68.78578125 40.36506348 -69.8828125 40.79296875 C-70.80465332 41.1489917 -71.72649414 41.50501465 -72.67626953 41.87182617 C-75.07643241 43.03710802 -76.32533413 43.94420566 -78 46 C-78.4456788 47.98479384 -78.4456788 47.98479384 -78.3742218 50.19702148 C-78.38123611 51.05190659 -78.38825043 51.90679169 -78.39547729 52.7875824 C-78.38783356 53.72264114 -78.38018982 54.65769989 -78.37231445 55.62109375 C-78.37596512 56.60848038 -78.37961578 57.595867 -78.38337708 58.61317444 C-78.39150322 61.88812296 -78.37784733 65.16257957 -78.36328125 68.4375 C-78.36276256 70.71614583 -78.3632806 72.99479211 -78.36479187 75.2734375 C-78.36470203 80.05849863 -78.35425514 84.84339171 -78.33618164 89.62841797 C-78.31359699 95.74014928 -78.31293061 101.85163271 -78.31969929 107.96339417 C-78.32305531 112.67509126 -78.3163768 117.38673268 -78.30657005 122.09841919 C-78.30273814 124.35010486 -78.30156145 126.60179675 -78.3031559 128.85348511 C-78.30353012 132.01702458 -78.29080391 135.18025701 -78.2746582 138.34375 C-78.27713562 139.2626149 -78.27961304 140.1814798 -78.28216553 141.12818909 C-78.13039591 159.92464587 -71.89985304 177.75738155 -58.81640625 191.42578125 C-41.88840894 206.89811166 -20.85568187 208.69529845 1 208 C18.85238154 206.93444689 34.77783246 200.14527208 47.1875 187.16015625 C58.56186059 173.60407563 62.14060865 156.83282189 62.16113281 139.5925293 C62.16609772 138.58180862 62.17106262 137.57108795 62.17617798 136.52973938 C62.19069681 133.21122544 62.19758075 129.89275913 62.203125 126.57421875 C62.20888046 124.26113382 62.21463815 121.9480489 62.22039795 119.63496399 C62.23087547 114.79920226 62.23674084 109.96345702 62.24023438 105.12768555 C62.24574334 98.92224379 62.26983598 92.71701876 62.29820633 86.51164532 C62.31678707 81.74110767 62.32203564 76.97062304 62.32357025 72.20005226 C62.3266025 69.91103734 62.33465018 67.62202347 62.34775543 65.33304405 C62.36473659 62.1420238 62.36295625 58.95154465 62.35644531 55.76049805 C62.37026749 54.33681412 62.37026749 54.33681412 62.3843689 52.8843689 C62.37879974 52.01673416 62.37323059 51.14909943 62.36749268 50.25517273 C62.36895924 49.50139689 62.3704258 48.74762106 62.3719368 47.97100353 C61.89492294 45.44316544 60.98225877 44.59073879 59 43 C56.57129599 41.80615013 56.57129599 41.80615013 53.76928711 40.79516602 C52.70064926 40.38786758 51.63201141 39.98056915 50.5309906 39.56092834 C49.37478714 39.12961105 48.21858368 38.69829376 47.02734375 38.25390625 C45.83452286 37.80152084 44.64170197 37.34913544 43.41273499 36.88304138 C40.23760494 35.68034748 37.06002903 34.48462604 33.88098145 33.2923584 C30.05127368 31.85414329 26.22571925 30.40492869 22.39959812 28.95720577 C19.41466012 27.827991 16.42894221 26.70095356 13.44163513 25.57801819 C12.35093216 25.1675676 11.26022919 24.757117 10.13647461 24.33422852 C9.09901093 23.94413605 8.06154724 23.55404358 6.99264526 23.15213013 C3.3375477 21.74496434 -0.27436772 20.24323914 -3.87547302 18.70347595 C-8.87986319 17.04641621 -12.86684786 18.87957396 -17.5 20.67578125 Z " fill="#794AD4" transform="translate(264,144)"></path><path d="M0 0 C0 53.13 0 106.26 0 161 C-15.13655394 159.73862051 -28.02349323 156.69300934 -38.8125 145.3125 C-45.50691513 136.98060203 -48.97823587 127.38517688 -51 117 C-51.17385727 116.14070892 -51.34771454 115.28141785 -51.52684021 114.39608765 C-52.11224834 110.19434153 -52.13168533 106.10983683 -52.11352539 101.87353516 C-52.11367142 100.97533051 -52.11381744 100.07712585 -52.1139679 99.15170288 C-52.11327398 96.19746443 -52.10550605 93.24328987 -52.09765625 90.2890625 C-52.09579022 88.23497553 -52.09436719 86.18088811 -52.09336853 84.12680054 C-52.08955794 78.73129031 -52.07974012 73.33580717 -52.06866455 67.94030762 C-52.05841906 62.43026089 -52.05386419 56.92020977 -52.04882812 51.41015625 C-52.03811653 40.60675896 -52.02105764 29.80338174 -52 19 C-44.9176167 16.28947665 -37.83328702 13.5840907 -30.74755859 10.88232422 C-28.33564485 9.96196732 -25.92418474 9.04042071 -23.51318359 8.11767578 C-20.05423721 6.79409211 -16.59369966 5.47474918 -13.1328125 4.15625 C-12.04944611 3.74064819 -10.96607971 3.32504639 -9.84988403 2.89685059 C-8.34855423 2.32625916 -8.34855423 2.32625916 -6.81689453 1.74414062 C-5.93309113 1.40660767 -5.04928772 1.06907471 -4.13870239 0.72131348 C-2 0 -2 0 0 0 Z " fill="#7647D1" transform="translate(250,178)"></path><path d="M0 0 C10.12215739 3.37405246 10.12215739 3.37405246 13.53833008 4.70166016 C14.68915825 5.14694565 14.68915825 5.14694565 15.86323547 5.60122681 C16.65731308 5.91071259 17.45139069 6.22019836 18.26953125 6.5390625 C19.99934821 7.20833526 21.72916594 7.87760604 23.45898438 8.546875 C26.1495762 9.59084535 28.83985225 10.63562538 31.5300293 11.68066406 C34.15078182 12.69790641 36.77261339 13.71232837 39.39453125 14.7265625 C40.19873001 15.04009674 41.00292877 15.35363098 41.83149719 15.67666626 C42.58295517 15.96721893 43.33441315 16.25777161 44.10864258 16.55712891 C45.09384636 16.93993515 45.09384636 16.93993515 46.09895325 17.33047485 C48.04620925 18.01627433 49.99047114 18.53122106 52 19 C52.09328119 30.68436815 52.16405688 42.36864558 52.20724869 54.0533123 C52.22799386 59.48082647 52.25606841 64.90808317 52.30175781 70.33544922 C52.34568711 75.58747968 52.36923495 80.83926478 52.37950897 86.091465 C52.38681684 88.08062723 52.40108313 90.06977828 52.42292023 92.05883408 C52.63621746 112.32010822 50.7624033 132.50831651 36.22265625 147.87890625 C26.50210123 157.08262194 13.186388 161 0 161 C0 107.87 0 54.74 0 0 Z " fill="#7B4AD6" transform="translate(262,178)"></path><path d="M0 0 C14.52 0 29.04 0 44 0 C44 14.52 44 29.04 44 44 C29.48 44 14.96 44 0 44 C0 29.48 0 14.96 0 0 Z " fill="#7646D3" transform="translate(378,378)"></path><path d="M0 0 C14.52 0 29.04 0 44 0 C44 14.52 44 29.04 44 44 C29.48 44 14.96 44 0 44 C0 29.48 0 14.96 0 0 Z " fill="#5E34BA" transform="translate(90,378)"></path><path d="M0 0 C14.52 0 29.04 0 44 0 C44 14.52 44 29.04 44 44 C29.48 44 14.96 44 0 44 C0 29.48 0 14.96 0 0 Z " fill="#8E57EB" transform="translate(378,90)"></path><path d="M0 0 C14.52 0 29.04 0 44 0 C44 14.52 44 29.04 44 44 C29.48 44 14.96 44 0 44 C0 29.48 0 14.96 0 0 Z " fill="#7646D3" transform="translate(90,90)"></path></svg>