<svg version="1.1" xmlns="http://www.w3.org/2000/svg" width="16px" height="16px" fill="currentColor" viewBox="0 0 512 512"><path d="M0 0 C168.96 0 337.92 0 512 0 C512 168.96 512 337.92 512 512 C343.04 512 174.08 512 0 512 C0 343.04 0 174.08 0 0 Z " fill="#DE2D34" transform="translate(0,0)"></path><path d="M0 0 C1.27819262 0.4641146 2.55022908 0.94544848 3.81640625 1.44140625 C4.50452393 1.70655029 5.1926416 1.97169434 5.90161133 2.24487305 C32.80211072 13.01668497 56.86870642 31.79810787 68.51806641 58.79052734 C71.06502957 65.33924205 72.73685727 72.18308743 74.37890625 79.00390625 C74.51039063 77.73675781 74.641875 76.46960938 74.77734375 75.1640625 C75.08393657 72.20934937 75.36358637 71.02806452 77.00390625 68.44140625 C79.37890625 67.00390625 79.37890625 67.00390625 82.62890625 66.81640625 C91.97569059 69.77622129 96.79014272 77.80531541 101.37890625 86.00390625 C111.18884744 104.92307855 109.38263001 130.13665419 103.37890625 150.00390625 C100.24312779 159.31299794 96.1024812 167.74069514 89.37890625 175.00390625 C88.77433594 175.68710937 88.16976562 176.3703125 87.546875 177.07421875 C72.53212906 193.15926226 47.82652285 201.71815428 26.37890625 204.00390625 C19.54076801 203.96434805 14.0054601 201.95067036 7.87890625 199.06640625 C6.58448608 198.46687134 6.58448608 198.46687134 5.26391602 197.85522461 C-15.30157555 188.14107082 -33.35133834 176.94345306 -41.55859375 154.56640625 C-47.21926834 137.69951485 -45.45960784 121.5275686 -37.57617188 105.67602539 C-36.87646345 104.30934806 -36.16490747 102.94864589 -35.43945312 101.59545898 C-31.85141498 94.86961581 -30.21112896 88.54488096 -30.18359375 80.87890625 C-30.17972656 80.11408936 -30.17585937 79.34927246 -30.171875 78.5612793 C-30.31448801 71.17288525 -31.90373083 64.27938321 -33.84204102 57.17333984 C-36.97558518 45.6282334 -36.97558518 45.6282334 -34.62109375 41.06640625 C-30.5482678 38.90271747 -26.47310338 39.503685 -22.19140625 40.66015625 C-13.24342673 43.89369402 -2.01271236 51.22066902 2.37890625 60.00390625 C5.86127127 48.36771095 3.0666869 34.85770999 -1.9765625 24.1171875 C-4.40167814 19.87160972 -7.14376577 16.36513324 -10.49609375 12.81640625 C-13.10623514 9.9637296 -13.58970886 9.19535408 -14.24609375 5.19140625 C-13.62109375 2.00390625 -13.62109375 2.00390625 -12.55859375 0.06640625 C-8.55255417 -2.13045417 -4.2319591 -1.16413114 0 0 Z " fill="#FEFBFB" transform="translate(228.62109375,147.99609375)"></path><path d="M0 0 C4.22735836 3.80756842 6.67209827 7.58075772 9.125 12.6875 C9.47119385 13.39575928 9.8173877 14.10401855 10.17407227 14.83374023 C14.9913941 24.90319337 17.18353176 34.38805601 17.02734375 45.61328125 C17.01471572 47.03971128 17.00235347 48.46614368 16.99023438 49.89257812 C16.96528857 52.11571854 16.93710992 54.33873242 16.90405273 56.56176758 C16.87396812 58.72478061 16.85613083 60.88762675 16.83984375 63.05078125 C16.82300537 64.33637939 16.80616699 65.62197754 16.78881836 66.9465332 C16.67181111 70.10956699 16.67181111 70.10956699 19 72 C22.30710094 72.06359809 24.81320685 71.8751101 27.546875 69.859375 C34.49935604 62.4583468 38.77447422 51.48684052 42 42 C44.27978255 44.82693036 45.79019506 47.50120169 47.125 50.875 C47.45757812 51.69742188 47.79015625 52.51984375 48.1328125 53.3671875 C53.79679104 70.56323045 50.33723301 93.68806546 43.5078125 110.06640625 C35.82265712 125.0186127 22.10669206 133.77076601 6.9375 139.75 C6.19387207 140.04390625 5.45024414 140.3378125 4.68408203 140.640625 C-2.39510276 143.33211704 -9.35647276 145.39197576 -17 145 C-17.4829607 142.98007005 -17.96118112 140.95900646 -18.4375 138.9375 C-18.70433594 137.81214844 -18.97117188 136.68679688 -19.24609375 135.52734375 C-22.60218102 119.82502871 -22.52917305 102.43857248 -18 87 C-17.74476563 85.989375 -17.48953125 84.97875 -17.2265625 83.9375 C-15.10482333 76.15130122 -11.79575855 69.11804926 -8.29418945 61.88378906 C-1.35794834 47.53493648 1.36338518 34.60278026 1.1875 18.625 C1.18685547 17.48933594 1.18621094 16.35367188 1.18554688 15.18359375 C1.15813945 9.98836365 0.95142984 5.12016355 0 0 Z " fill="#DE2F36" transform="translate(273,193)"></path><path d="M0 0 C11.74856498 7.37700592 19.52479966 18.18416508 22.75 31.625 C27.27717565 55.00711598 19.69779513 74.12034853 9.75 94.75 C6.53549466 101.60702906 4.66464789 108.63771639 3 116 C2.82049805 116.75458496 2.64099609 117.50916992 2.45605469 118.28662109 C1.03635857 124.65760199 0.68860694 130.73466105 0.75 137.25 C0.75580078 138.75409424 0.75580078 138.75409424 0.76171875 140.28857422 C0.84044794 147.07787334 1.36141572 153.56844032 2.5625 160.2578125 C2.98282539 162.892352 3.07801083 165.33788042 3 168 C-16.17061421 159.57411328 -31.41908725 151.06782152 -40 131 C-43.66128168 121.01468633 -43.4690273 108.56808627 -39.34765625 98.7890625 C-37.16564553 94.273249 -34.92630677 89.79483467 -32.5859375 85.359375 C-28.6384219 76.99764245 -28.72526702 69.74032816 -28.8125 60.5625 C-28.81314453 59.27794922 -28.81378906 57.99339844 -28.81445312 56.66992188 C-28.84371141 50.35988421 -29.01454198 44.23597837 -30 38 C-21.12589099 43.10261268 -15.58897455 51.21626042 -10.34765625 59.8125 C-9.17916472 61.89788062 -9.17916472 61.89788062 -8 63 C-5.66702567 63.04092937 -3.33294775 63.04241723 -1 63 C7.32742668 48.72441141 8.22105512 29.06313799 4.125 13.3125 C2.88719704 8.82431816 1.5025807 4.40621637 0 0 Z " fill="#DC2C34" transform="translate(239,167)"></path><path d="M0 0 C2.57047972 0.97568795 3.18025543 1.94899545 4.59228516 4.28271484 C5.04015381 5.01482178 5.48802246 5.74692871 5.94946289 6.5012207 C6.41296143 7.29278564 6.87645996 8.08435059 7.35400391 8.89990234 C7.83748291 9.71015869 8.32096191 10.52041504 8.8190918 11.35522461 C13.08281434 18.61542227 16.76599259 26.02376124 20.04150391 33.77490234 C20.41662109 34.64501953 20.79173828 35.51513672 21.17822266 36.41162109 C27.65720337 52.72431166 31.04150391 71.27419453 31.04150391 88.77490234 C35.99150391 88.77490234 40.94150391 88.77490234 46.04150391 88.77490234 C46.04150391 92.73490234 46.04150391 96.69490234 46.04150391 100.77490234 C41.09150391 100.77490234 36.14150391 100.77490234 31.04150391 100.77490234 C30.93837891 102.87865234 30.83525391 104.98240234 30.72900391 107.14990234 C28.86753724 136.98314089 18.46800416 166.41740766 1.04150391 190.77490234 C-3.55016109 189.10093929 -6.33046192 186.98107208 -9.95849609 183.77490234 C-9.48283203 182.91445313 -9.48283203 182.91445313 -8.99755859 182.03662109 C-7.30537 178.95608993 -5.62815926 175.86768028 -3.95849609 172.77490234 C-3.56210937 172.04078125 -3.16572266 171.30666016 -2.75732422 170.55029297 C-1.44299996 168.10769035 -0.13741983 165.66057094 1.16650391 163.21240234 C1.79564697 162.04487427 1.79564697 162.04487427 2.4375 160.85375977 C7.41192955 151.47147111 10.73112534 142.1063979 13.16650391 131.77490234 C13.55443115 130.15080444 13.55443115 130.15080444 13.95019531 128.49389648 C16.08069216 119.25697271 17.24806357 110.21684238 18.04150391 100.77490234 C12.76150391 100.77490234 7.48150391 100.77490234 2.04150391 100.77490234 C2.04150391 96.81490234 2.04150391 92.85490234 2.04150391 88.77490234 C7.32150391 88.77490234 12.60150391 88.77490234 18.04150391 88.77490234 C17.49470109 84.82109739 16.9361296 80.87088454 16.35351562 76.92236328 C16.14601112 75.49418672 15.94448103 74.06512898 15.74902344 72.63525391 C12.66813187 50.20393504 4.95145254 28.33161468 -8.62255859 10.02490234 C-9.06341797 9.28240234 -9.50427734 8.53990234 -9.95849609 7.77490234 C-8.87750133 4.53191805 -8.30222993 3.95877709 -5.64599609 2.02490234 C-5.05173828 1.57630859 -4.45748047 1.12771484 -3.84521484 0.66552734 C-1.95849609 -0.22509766 -1.95849609 -0.22509766 0 0 Z " fill="#FEFAFB" transform="translate(388.95849609375,161.22509765625)"></path><path d="M0 0 C3.15330554 0.60694155 5.18888867 1.6416665 7.75 3.5625 C8.67039062 4.24505859 8.67039062 4.24505859 9.609375 4.94140625 C10.29773438 5.46541016 10.29773438 5.46541016 11 6 C9.57082242 9.9555016 7.66439603 13.2292555 5.375 16.75 C-7.09887924 36.63651782 -13.20274355 57.82419336 -16 81 C-16.19092111 82.52610244 -16.38229932 84.05214779 -16.57421875 85.578125 C-16.71472656 86.70734375 -16.85523437 87.8365625 -17 89 C-11.72 89 -6.44 89 -1 89 C-1 92.96 -1 96.92 -1 101 C-6.28 101 -11.56 101 -17 101 C-13.72128063 131.03008879 -6.07688704 157.81159162 11 183 C5.35475578 188.80205656 5.35475578 188.80205656 2 191 C1.34 191 0.68 191 0 191 C-1.10986328 189.61743164 -1.10986328 189.61743164 -2.3203125 187.66015625 C-2.76922852 186.93602539 -3.21814453 186.21189453 -3.68066406 185.46582031 C-4.39561035 184.27617676 -4.39561035 184.27617676 -5.125 183.0625 C-5.61709961 182.24491211 -6.10919922 181.42732422 -6.61621094 180.58496094 C-20.79535005 156.6455556 -30.44557646 129.07131707 -30 101 C-34.95 101 -39.9 101 -45 101 C-45 97.04 -45 93.08 -45 89 C-40.05 89 -35.1 89 -30 89 C-30.02449219 87.70964844 -30.04898438 86.41929687 -30.07421875 85.08984375 C-30.04521824 55.38751791 -17.87359695 23.459096 0 0 Z " fill="#FEFBFB" transform="translate(122,161)"></path><path d="M0 0 C3.96 0 7.92 0 12 0 C12 5.28 12 10.56 12 16 C14.2275 15.9175 16.455 15.835 18.75 15.75 C45.62173617 15.49277393 72.52615442 26.81103963 95 40.8125 C95.60658447 41.18560303 96.21316895 41.55870605 96.83813477 41.94311523 C98.5 43.01953125 98.5 43.01953125 101 45 C101 48.60573896 100.18292538 49.41336566 98 52.1875 C97.443125 52.90292969 96.88625 53.61835938 96.3125 54.35546875 C95.879375 54.89816406 95.44625 55.44085938 95 56 C91.09887425 54.63384701 87.77722795 52.72354997 84.27734375 50.57250977 C75.78560507 45.35475246 67.39173672 41.339036 58 38 C57.19433594 37.70738281 56.38867188 37.41476563 55.55859375 37.11328125 C53.38575668 36.35698989 51.19937394 35.67501865 49 35 C47.59041016 34.52433594 47.59041016 34.52433594 46.15234375 34.0390625 C34.99489952 30.50166064 23.5928508 29.31691593 12 28 C12 33.28 12 38.56 12 44 C8.04 44 4.08 44 0 44 C0 38.72 0 33.44 0 28 C-12.71103873 29.44393899 -24.81447865 31.0047471 -37 35 C-38.01191406 35.27328125 -39.02382812 35.5465625 -40.06640625 35.828125 C-54.81657838 39.88949905 -68.68371697 46.97789247 -81 56 C-84.47132095 54.59070303 -85.88093274 53.09394917 -87.75 49.875 C-88.17796875 49.15054688 -88.6059375 48.42609375 -89.046875 47.6796875 C-89.36140625 47.12539062 -89.6759375 46.57109375 -90 46 C-73.19157221 33.43408403 -55.2604677 25.34684532 -35 20 C-34.08605469 19.72285156 -33.17210937 19.44570312 -32.23046875 19.16015625 C-22.06978405 16.2384143 -11.49571841 15.79371536 -1 15 C-0.67 10.05 -0.34 5.1 0 0 Z " fill="#FEFBFB" transform="translate(250,77)"></path><path d="M0 0 C1.16705892 0.64512424 2.33359688 1.29119081 3.5 1.9375 C4.32242188 2.39125 5.14484375 2.845 5.9921875 3.3125 C8.22045265 4.56264357 10.4294047 5.83251742 12.6328125 7.125 C34.45940355 19.8340855 57.8291613 26.40690894 83 28 C83 22.72 83 17.44 83 12 C86.96 12 90.92 12 95 12 C95 17.28 95 22.56 95 28 C124.52290442 25.35974025 152.65954893 17.41430645 177 0 C182.80205656 5.64524422 182.80205656 5.64524422 185 9 C185 9.66 185 10.32 185 11 C183.61743164 12.10986328 183.61743164 12.10986328 181.66015625 13.3203125 C180.93562256 13.76930908 180.21108887 14.21830566 179.46459961 14.6809082 C178.2755603 15.39573364 178.2755603 15.39573364 177.0625 16.125 C176.2485376 16.61637451 175.4345752 17.10774902 174.59594727 17.61401367 C150.50795665 31.91312922 123.2805595 41.44188374 95 41 C95 45.95 95 50.9 95 56 C91.04 56 87.08 56 83 56 C83 51.05 83 46.1 83 41 C81.47375 41.0825 79.9475 41.165 78.375 41.25 C48.11928006 41.17872622 17.39827174 28.12530339 -7 11 C-5.67855892 8.20891884 -4.19617639 5.74213611 -2.375 3.25 C-1.92898437 2.63640625 -1.48296875 2.0228125 -1.0234375 1.390625 C-0.68570313 0.93171875 -0.34796875 0.4728125 0 0 Z " fill="#FEFBFB" transform="translate(167,379)"></path><path d="M0 0 C3.65492416 0.29390609 5.45085707 2.07039954 7.98042297 4.58601379 C8.76146896 5.35570999 9.54251495 6.12540619 10.347229 6.91842651 C11.61841583 8.19400925 11.61841583 8.19400925 12.9152832 9.49536133 C13.81480209 10.38641068 14.71432098 11.27746002 15.64109802 12.19551086 C18.10664979 14.63884027 20.56246854 17.09173488 23.01598382 19.54714417 C25.06382615 21.59510612 27.11599038 23.63871048 29.16805619 25.68243903 C34.00688374 30.50203178 38.83749167 35.32975771 43.66333008 40.16235352 C48.6466168 45.1522891 53.64449654 50.12726258 58.64959842 55.09530813 C62.94395252 59.35901441 67.22863058 63.63227766 71.50573796 67.91328448 C74.0615193 70.47113755 76.62096747 73.02503629 79.1899662 75.56962013 C82.05133476 78.40468852 84.89229849 81.25937601 87.73168945 84.11645508 C89.01805801 85.38292877 89.01805801 85.38292877 90.33041382 86.67498779 C91.48083412 87.8422213 91.48083412 87.8422213 92.65449524 89.03303528 C93.32866139 89.70648892 94.00282755 90.37994257 94.69742298 91.0738039 C96 93 96 93 95.78843975 95.13929272 C94.87434361 97.29654739 93.82600254 98.6408126 92.1875 100.3125 C91.68605469 100.84488281 91.18460937 101.37726563 90.66796875 101.92578125 C89 103 89 103 87.14648056 102.79531956 C84.42659603 101.78754087 83.03498218 100.40404292 80.98834229 98.34910583 C80.2003273 97.56521484 79.41231232 96.78132385 78.60041809 95.97367859 C77.74518051 95.10765518 76.88994293 94.24163177 76.00878906 93.34936523 C74.64728981 91.9885231 74.64728981 91.9885231 73.25828552 90.60018921 C70.7704345 88.1131993 68.29194476 85.6170649 65.81501865 83.11920047 C63.22455461 80.50998907 60.62559861 77.90926471 58.02752686 75.30763245 C53.10942976 70.38020919 48.1990303 65.44518818 43.2913425 60.50739962 C37.70356637 54.88609729 32.10727443 49.27330601 26.51024675 43.66121757 C14.99732111 32.11692996 3.49515053 20.56198775 -8 9 C-7.04270084 7.87411986 -6.08412105 6.7493285 -5.125 5.625 C-4.59132813 4.99851562 -4.05765625 4.37203125 -3.5078125 3.7265625 C-2.38567993 2.44163349 -1.20628025 1.20628025 0 0 Z " fill="#FDF4F4" transform="translate(336,329)"></path><path d="M0 0 C2.70443693 1.00017109 4.08340062 2.36313836 6.11780167 4.40587711 C7.28720291 5.56909237 7.28720291 5.56909237 8.48022842 6.75580692 C9.32611526 7.61247959 10.17200211 8.46915226 11.04352188 9.35178471 C11.94143448 10.24925922 12.83934708 11.14673374 13.76446915 12.07140446 C16.22546199 14.53153623 18.67709272 17.00081094 21.12716007 19.47181726 C23.68959649 22.05300173 26.26052556 24.62569851 28.83057022 27.19930363 C33.69554373 32.07360309 38.55281909 36.95549973 43.40738273 41.8401646 C48.93470012 47.40100883 54.4705339 52.95334148 60.00710344 58.50497162 C71.39561552 69.92484519 82.77337194 81.35537285 94.14410782 92.79294682 C92.10343799 97.05910186 89.5585778 99.52693205 86.14410782 102.79294682 C82.89243356 101.36378889 80.71546054 99.62097117 78.20164871 97.12464237 C77.42901688 96.36198566 76.65638504 95.59932896 75.86034012 94.81356144 C75.02223297 93.97611897 74.18412582 93.13867649 73.32062149 92.27585697 C72.43085617 91.39441517 71.54109085 90.51297337 70.62436295 89.60482121 C68.18889236 87.18931231 65.75809986 84.76929689 63.33005309 82.3463378 C61.81340864 80.83333819 60.29547462 79.32164465 58.7770977 77.8103838 C53.48201307 72.53977514 48.19265691 67.26348705 42.90802383 61.98239994 C37.97781155 57.05582968 33.03460148 52.14256728 28.08535022 47.23513091 C23.83782889 43.02224626 19.59992453 38.79984786 15.3693369 34.56995904 C12.84174388 32.04316059 10.31029538 29.52053415 7.76894569 27.0075655 C4.93892057 24.20844546 2.12894978 21.389722 -0.67937851 18.56882572 C-1.95172096 17.3187347 -1.95172096 17.3187347 -3.2497673 16.04338932 C-4.00830002 15.27509296 -4.76683273 14.50679661 -5.54835129 13.71521854 C-6.2151431 13.05043806 -6.88193491 12.38565758 -7.56893253 11.70073223 C-8.85589218 9.79294682 -8.85589218 9.79294682 -8.64195919 7.65644741 C-7.7304655 5.49560233 -6.68342586 4.15369637 -5.04339218 2.48044682 C-4.54194687 1.948064 -4.04050156 1.41568119 -3.52386093 0.86716557 C-1.85589218 -0.20705318 -1.85589218 -0.20705318 0 0 Z " fill="#FDF4F5" transform="translate(88.85589218139648,80.20705318450928)"></path><path d="M0 0 C2.1302171 1.02207514 3.43448912 2.20228088 5.04693604 3.92466736 C5.82810791 4.7464447 5.82810791 4.7464447 6.62506104 5.58482361 C7.01177979 6.00634705 7.39849854 6.42787048 7.79693604 6.86216736 C6.2573747 10.52097913 4.05604546 12.84508526 1.25543213 15.63072205 C0.79672226 16.08972397 0.33801239 16.54872589 -0.13459778 17.02163696 C-1.64491307 18.53056411 -3.16217784 20.0322919 -4.67962646 21.53404236 C-5.73095567 22.5816396 -6.78184282 23.62968064 -7.83230591 24.67814636 C-10.59307413 27.43129256 -13.35979646 30.17837863 -16.12780762 32.92424011 C-18.95339324 35.72933651 -21.77329841 38.54013057 -24.59368896 41.35044861 C-30.12460771 46.85994268 -35.66182985 52.36304613 -41.20306396 57.86216736 C-44.41350278 56.48028282 -46.25242762 54.93794833 -48.45306396 52.23716736 C-48.97384521 51.60552673 -49.49462646 50.97388611 -50.03118896 50.32310486 C-50.41790771 49.84099548 -50.80462646 49.35888611 -51.20306396 48.86216736 C-44.89805769 42.4414493 -38.57974124 36.03422174 -32.24389267 29.6439352 C-29.30250017 26.67641873 -26.36595018 23.70441891 -23.43988037 20.7217865 C-20.61731059 17.84499787 -17.78279605 14.98050003 -14.93949127 12.12420845 C-13.85541293 11.03087208 -12.77575449 9.93313533 -11.70058441 8.83103752 C-10.19683163 7.29112965 -8.67829434 5.76744679 -7.1552124 4.24668884 C-6.29361511 3.37398849 -5.43201782 2.50128815 -4.54431152 1.60214233 C-2.20306396 -0.13783264 -2.20306396 -0.13783264 0 0 Z " fill="#FEFAFA" transform="translate(152.20306396484375,353.13783264160156)"></path><path d="M0 0 C4.03744506 2.01872253 6.62010675 4.08100128 10 7 C8.46043866 10.65881177 6.25910943 12.9829179 3.45849609 15.76855469 C2.99978622 16.22755661 2.54107635 16.68655853 2.06846619 17.1594696 C0.5581509 18.66839675 -0.95911388 20.17012454 -2.4765625 21.671875 C-3.5278917 22.71947224 -4.57877885 23.76751328 -5.62924194 24.815979 C-8.39001016 27.5691252 -11.15673249 30.31621127 -13.92474365 33.06207275 C-16.75032928 35.86716916 -19.57023445 38.67796321 -22.390625 41.48828125 C-27.92154374 46.99777532 -33.45876589 52.50087877 -39 58 C-43 56 -43 56 -49 49 C-32.83 32.83 -16.66 16.66 0 0 Z " fill="#FEFBFB" transform="translate(401,102)"></path></svg>