<svg version="1.1" xmlns="http://www.w3.org/2000/svg" width="16px" height="16px" fill="currentColor" viewBox="0 0 512 512"><path d="M0 0 C168.96 0 337.92 0 512 0 C512 168.96 512 337.92 512 512 C343.04 512 174.08 512 0 512 C0 343.04 0 174.08 0 0 Z " fill="#E3740D" transform="translate(0,0)"></path><path d="M0 0 C0.33 -8.25 0.66 -16.5 1 -25 C5.29 -25 9.58 -25 14 -25 C14 -8.5 14 8 14 25 C-2.5 25 -19 25 -36 25 C-36 21.04 -36 17.08 -36 13 C-26.43 13 -16.86 13 -7 13 C-7 12.34 -7 11.68 -7 11 C-7.53238281 10.76410156 -8.06476563 10.52820313 -8.61328125 10.28515625 C-11.07082628 8.96186277 -13.23585906 7.39870043 -15.46508789 5.7253418 C-27.54350863 -3.30565316 -40.7195541 -10.13741779 -55 -15 C-56.49660156 -15.53560547 -56.49660156 -15.53560547 -58.0234375 -16.08203125 C-73.15667245 -21.17091504 -88.09999997 -22.27994333 -103.9375 -22.3125 C-104.99584045 -22.31787781 -104.99584045 -22.31787781 -106.07556152 -22.32336426 C-118.44449896 -22.35716899 -129.91713712 -20.94021616 -141.75 -17.3125 C-142.60416504 -17.05194824 -143.45833008 -16.79139648 -144.33837891 -16.52294922 C-167.1057342 -9.37185475 -186.63083988 2.61019551 -204 19 C-204.72574219 19.66128906 -205.45148438 20.32257813 -206.19921875 21.00390625 C-230.01307682 43.53515078 -246.61982057 78.61472522 -248.16113281 111.43066406 C-248.20728376 115.37066668 -248.24667092 119.30972214 -248.25 123.25 C-248.25067474 123.96486572 -248.25134949 124.67973145 -248.25204468 125.41625977 C-248.19097137 166.17898187 -232.36859372 202.38145115 -203.875 231.5 C-186.96654351 248.29879825 -166.52671517 259.44861175 -144 267 C-143.89768066 266.45939941 -143.79536133 265.91879883 -143.68994141 265.36181641 C-142.12716194 257.31737204 -140.2526085 249.35009468 -138.375 241.375 C-138.04672627 239.97529529 -137.71860021 238.57555594 -137.390625 237.17578125 C-136.59544967 233.78345365 -135.79828563 230.3915972 -135 227 C-136.37273071 226.79987305 -136.37273071 226.79987305 -137.77319336 226.59570312 C-141.72434141 225.8662788 -145.01723968 224.31231913 -148.5625 222.5 C-149.26068848 222.14542725 -149.95887695 221.79085449 -150.67822266 221.42553711 C-177.86164632 207.27716814 -195.3404697 185.09079504 -204.5546875 156.17578125 C-207.39742367 146.46555419 -208.33682349 137.22695063 -208.25 127.125 C-208.24250732 125.97604248 -208.23501465 124.82708496 -208.22729492 123.64331055 C-207.85599566 94.44757285 -195.91880521 69.16366241 -175.18237305 48.77539062 C-170.46607408 44.27694495 -165.55597265 40.42262756 -160 37 C-159.23816406 36.49339844 -158.47632813 35.98679687 -157.69140625 35.46484375 C-135.68230359 21.33420477 -107.73884089 17.18149265 -82.19140625 22.1171875 C-53.68910696 30.00154446 -28.29369953 46.19851181 -13 72 C0.40598758 96.32508262 6.24388829 125.71320162 -1.02539062 153.10473633 C-9.574338 181.51720552 -27.88044402 205.62365111 -54 220 C-61.25169493 223.75489599 -68.00563766 226.4221066 -76 228 C-75.76289307 229.02883301 -75.52578613 230.05766602 -75.28149414 231.11767578 C-74.39816743 234.95270868 -73.51721592 238.78828398 -72.63696289 242.62402344 C-72.2564211 244.28074681 -71.87524442 245.93732449 -71.4934082 247.59375 C-70.94313279 249.98138567 -70.39517962 252.36954444 -69.84765625 254.7578125 C-69.6778273 255.49242706 -69.50799835 256.22704163 -69.33302307 256.98391724 C-68.42093939 260.97358408 -67.62588118 264.95541675 -67 269 C-46.79002506 262.63703521 -27.31006742 254.8660512 -11 241 C-10.15695312 240.28328125 -9.31390625 239.5665625 -8.4453125 238.828125 C-5.91153998 236.602194 -3.4491206 234.3186032 -1 232 C-0.11570312 231.18015625 0.76859375 230.3603125 1.6796875 229.515625 C21.96107162 210.09605607 35.80214564 183.48110541 41.625 156.0625 C41.86476563 154.96035156 42.10453125 153.85820312 42.3515625 152.72265625 C46.68080073 127.86865604 43.9199203 103.17453816 37.51904297 79.02978516 C36.92369314 76.70159207 36.42859202 74.36447956 36 72 C37.22226641 71.46317332 38.45328085 70.94624468 39.6875 70.4375 C40.37199219 70.14746094 41.05648438 69.85742188 41.76171875 69.55859375 C44.47636395 68.88111685 46.32193545 69.29179029 49 70 C62.98919417 114.34956194 61.23340874 159.48799521 39.5625 201.25 C33.33036735 212.81231759 26.05625683 223.16047481 17.07421875 232.76953125 C15.17519913 234.81160319 13.40162345 236.91451582 11.625 239.0625 C7.29087846 244.0243219 2.18269525 247.96440797 -3 252 C-4.35738281 253.09828125 -4.35738281 253.09828125 -5.7421875 254.21875 C-20.75745986 266.03131884 -44.30620302 281 -64 281 C-63.68977905 282.19375244 -63.68977905 282.19375244 -63.37329102 283.41162109 C-62.59768914 286.41078925 -61.82881002 289.4115843 -61.06420898 292.41357422 C-60.57324222 294.3330034 -60.07478941 296.2505128 -59.57617188 298.16796875 C-57.81227409 305.11445281 -56.40037073 311.83514107 -56 319 C-63.5 322 -63.5 322 -68 322 C-70.35103073 313.63383213 -72.4530798 305.25275895 -74.25 296.75 C-74.42499023 295.92846436 -74.59998047 295.10692871 -74.78027344 294.26049805 C-75.43095256 291.12525896 -76 288.21105325 -76 285 C-77.1456543 285.16153564 -78.29130859 285.32307129 -79.47167969 285.48950195 C-83.81230814 286.02966825 -88.08295159 286.16131039 -92.453125 286.16796875 C-93.234599 286.17129715 -94.016073 286.17462555 -94.82122803 286.17805481 C-96.4649599 286.1830848 -98.10870185 286.18546436 -99.75244141 286.18530273 C-102.22966893 286.18748211 -104.70644512 286.20566039 -107.18359375 286.22460938 C-128.40121147 286.29939427 -128.40121147 286.29939427 -135 283 C-135.14695312 283.88816406 -135.29390625 284.77632813 -135.4453125 285.69140625 C-137.60309601 297.98085144 -140.73889605 309.96192195 -144 322 C-152.03571429 321.0625 -152.03571429 321.0625 -156 320 C-155.57487998 311.30779412 -153.73416408 303.31009123 -151.4375 294.9375 C-150.78842738 292.53046946 -150.14119176 290.12294255 -149.49609375 287.71484375 C-149.20919678 286.66417725 -148.9222998 285.61351074 -148.62670898 284.53100586 C-147.91988202 282.11101193 -147.91988202 282.11101193 -148 280 C-149.00675781 279.68289063 -150.01351562 279.36578125 -151.05078125 279.0390625 C-171.9267828 272.21020557 -190.37139337 261.31443899 -207 247 C-207.92941406 246.2059375 -208.85882813 245.411875 -209.81640625 244.59375 C-216.29186918 238.90182709 -221.74777571 232.82412654 -227 226 C-228.10988281 224.61361328 -228.10988281 224.61361328 -229.2421875 223.19921875 C-239.0305566 210.68433161 -246.17858665 196.73281604 -252 182 C-252.40412109 181.00057373 -252.40412109 181.00057373 -252.81640625 179.98095703 C-267.52806953 142.87309622 -265.19576186 98.41504793 -249.78515625 61.87890625 C-241.76895027 44.14160669 -232.0125398 28.50168066 -218.45947266 14.51513672 C-216.95744195 12.9558188 -215.48487341 11.37174048 -214.01171875 9.78515625 C-193.43522987 -11.99465504 -165.79151177 -25.7131749 -137 -33 C-135.783125 -33.32097656 -134.56625 -33.64195313 -133.3125 -33.97265625 C-85.81775774 -44.43512509 -37.86454482 -28.39840862 0 0 Z " fill="#FEFCFA" transform="translate(358,113)"></path><path d="M0 0 C0.66 0.33 1.32 0.66 2 1 C2.57495117 2.76464844 2.57495117 2.76464844 3.04296875 5.109375 C3.22593506 5.99407471 3.40890137 6.87877441 3.59741211 7.7902832 C3.79214111 8.76698975 3.98687012 9.74369629 4.1875 10.75 C6.10749219 19.98098411 8.19841035 29.15370317 10.4375 38.3125 C13.73428898 51.85090925 16.91245427 65.41241916 20 79 C20.2779541 80.21751953 20.5559082 81.43503906 20.84228516 82.68945312 C21.69164009 86.41683118 22.53436113 90.14564751 23.375 93.875 C23.63804932 95.02887207 23.90109863 96.18274414 24.17211914 97.37158203 C24.4118042 98.44263184 24.65148926 99.51368164 24.8984375 100.6171875 C25.11161621 101.56190918 25.32479492 102.50663086 25.54443359 103.47998047 C26 106 26 106 26 110 C20.35122359 111.77799006 14.2316718 111.18594369 8.36816406 111.18530273 C6.16711173 111.18745875 3.96658668 111.20554164 1.765625 111.22460938 C-7.34884655 111.25966207 -15.99973737 110.57625159 -25 109 C-24.3872394 102.06725504 -23.06466114 95.55702333 -21.375 88.8125 C-20.8309431 86.59792329 -20.2880249 84.38306661 -19.74609375 82.16796875 C-19.4610498 81.00571777 -19.17600586 79.8434668 -18.88232422 78.64599609 C-17.35079032 72.3172946 -15.90092805 65.9697229 -14.4375 59.625 C-12.38033687 50.74192257 -10.23962735 41.89930655 -7.85449219 33.09887695 C-4.91807521 22.14574946 -2.50029388 11.05904196 0 0 Z " fill="#DE6F12" transform="translate(252,275)"></path><path d="M0 0 C1.4413923 0.06647931 2.87952111 0.2058765 4.3125 0.375 C15.0212765 1.57503664 25.5955455 2.18180261 36.375 2.1875 C38.19257813 2.20586914 38.19257813 2.20586914 40.046875 2.22460938 C47.50171217 2.23653076 54.61778245 1.65180576 61.97558594 0.44311523 C65.71561668 -0.10484697 69.22984284 -0.15080629 73 0 C76.55318146 12.39383532 76 22.52160146 76 36 C49.93 36 23.86 36 -3 36 C-3 3 -3 3 0 0 Z " fill="#E5770D" transform="translate(218,201)"></path><path d="M0 0 C12.87 0 25.74 0 39 0 C39.66 6.27 40.32 12.54 41 19 C44.06054467 39.10706674 49.57010636 57.46045568 60 75 C60.33 75.66 60.66 76.32 61 77 C46.80571287 73.08433459 36.29202378 65.16876601 26 55 C25.34515625 54.41734375 24.6903125 53.8346875 24.015625 53.234375 C9.50600993 40.05591728 1.88769993 18.87699931 0 0 Z " fill="#DE7013" transform="translate(163,250)"></path><path d="M0 0 C12.87 0 25.74 0 39 0 C35.57624715 20.54251707 29.14149203 37.49076435 15 53 C14.32582031 53.76699219 13.65164063 54.53398437 12.95703125 55.32421875 C4.4013624 64.52196406 -7.91827449 73.24579151 -20 77 C-20.66 76.67 -21.32 76.34 -22 76 C-21.5153125 75.2678125 -21.030625 74.535625 -20.53125 73.78125 C-6.83402682 51.6549664 -2.15795098 25.53575326 0 0 Z " fill="#E5790F" transform="translate(307,250)"></path><path d="M0 0 C12.88157595 5.53521115 19.51180453 18.89308191 25 31 C26.22961265 34.30094752 27.26377396 37.55581611 28 41 C8.53129359 46.21483207 -17.41812085 46.66559555 -37 42 C-37.33 41.67 -37.66 41.34 -38 41 C-36.6983613 26.26031666 -27.96832948 12.72736933 -16.859375 3.33984375 C-11.48142199 -0.53544592 -6.51294258 -0.98975518 0 0 Z " fill="#E87C0E" transform="translate(260,147)"></path><path d="M0 0 C10.95113695 12.40755414 14 32.17011088 14 48 C1.13 48 -11.74 48 -25 48 C-25.12375 44.7825 -25.2475 41.565 -25.375 38.25 C-25.67802463 31.18305227 -26.24435159 24.35513028 -27.58984375 17.3984375 C-28.13563649 14.20684949 -28.14672192 11.22788222 -28 8 C-27.35675781 7.84144531 -26.71351563 7.68289062 -26.05078125 7.51953125 C-19.42471348 5.80866354 -13.17495098 3.59454239 -6.84765625 0.98828125 C-4 0 -4 0 0 0 Z " fill="#E97D0C" transform="translate(332,189)"></path><path d="M0 0 C1.2375 0.4125 2.475 0.825 3.75 1.25 C4.56726563 1.52199219 5.38453125 1.79398438 6.2265625 2.07421875 C8.15988772 2.71956816 10.09209729 3.36826536 12.0234375 4.01953125 C17.32121023 5.8010241 22.60724649 7.52924904 28 9 C27.85805236 11.06277107 27.71127784 13.12521031 27.5625 15.1875 C27.48128906 16.33605469 27.40007812 17.48460937 27.31640625 18.66796875 C27 22 27 22 26.5 24.390625 C26.00251279 26.98688639 25.79692905 29.44293785 25.68359375 32.08203125 C25.64548584 32.9222583 25.60737793 33.76248535 25.56811523 34.62817383 C25.52501221 35.67900146 25.48190918 36.7298291 25.4375 37.8125 C25.293125 41.174375 25.14875 44.53625 25 48 C12.13 48 -0.74 48 -14 48 C-14 30.47539 -10.1154758 14.49739528 0 0 Z " fill="#E17310" transform="translate(177,189)"></path><path d="M0 0 C10.89 0 21.78 0 33 0 C33 7.96336951 32.8767626 14.58409788 31.3125 22.1875 C31.13170898 23.08750732 30.95091797 23.98751465 30.76464844 24.91479492 C27.69135183 39.73808459 23.22608743 52.67746164 16 66 C15.34 66 14.68 66 14 66 C10.66102364 51.69779481 7.38239987 37.38175101 4.16967773 23.05065918 C3.80706891 21.43582278 3.44297773 19.82131851 3.07739258 18.20715332 C2.56046597 15.92286476 2.04907967 13.63740226 1.5390625 11.3515625 C1.38309601 10.66718109 1.22712952 9.98279968 1.06643677 9.27767944 C0.35456996 6.05971202 0 3.32345437 0 0 Z " fill="#E47710" transform="translate(261,250)"></path><path d="M0 0 C9.9 0 19.8 0 30 0 C27.75170751 14.61390117 27.75170751 14.61390117 26.44921875 19.4375 C26.02298218 21.04274536 26.02298218 21.04274536 25.58813477 22.68041992 C25.29092529 23.77588135 24.99371582 24.87134277 24.6875 26 C24.06338682 28.34980496 23.4410134 30.70007263 22.8203125 33.05078125 C22.51383789 34.2104541 22.20736328 35.37012695 21.89160156 36.56494141 C19.7865042 44.67521519 17.89805292 52.83924713 16 61 C15.34 61 14.68 61 14 61 C7.725135 48.64462422 3.48595551 35.26755001 1.125 21.625 C0.94493408 20.61167603 0.94493408 20.61167603 0.76123047 19.57788086 C-0.2716907 12.91178757 0 6.9602158 0 0 Z " fill="#E17412" transform="translate(215,250)"></path><path d="M0 0 C-1.18403504 2.44093377 -2.4495545 4.80780876 -3.76953125 7.1796875 C-8.43273237 15.57413394 -12.06666098 23.84741816 -15 33 C-23.38836188 32.7917111 -30.3268905 30.25926751 -38 27 C-33.19487846 16.39639045 -12.00569332 0 0 0 Z " fill="#E57A12" transform="translate(224,152)"></path><path d="M0 0 C14.7593481 4.52920453 28.6603666 13.62888655 38 26 C35.48241883 26.98829417 32.96145276 27.9657226 30.4375 28.9375 C29.73302734 29.21529297 29.02855469 29.49308594 28.30273438 29.77929688 C23.83909502 31.4865875 19.75619544 32.50625566 15 33 C14.78907715 32.44650879 14.5781543 31.89301758 14.36083984 31.32275391 C9.21541098 17.57861931 9.21541098 17.57861931 2.12890625 4.77734375 C1 3 1 3 0 0 Z " fill="#EB800F" transform="translate(285,152)"></path></svg>