<svg version="1.1" xmlns="http://www.w3.org/2000/svg" width="16px" height="16px" fill="currentColor" viewBox="0 0 512 512"><path d="M0 0 C168.96 0 337.92 0 512 0 C512 168.96 512 337.92 512 512 C343.04 512 174.08 512 0 512 C0 343.04 0 174.08 0 0 Z " fill="#D82C6C" transform="translate(0,0)"></path><path d="M0 0 C0.90938828 -0.00861557 1.81877655 -0.01723114 2.75572205 -0.02610779 C5.76199807 -0.0488116 8.76734521 -0.04202047 11.77368164 -0.03295898 C13.86349261 -0.03819283 15.95330121 -0.04446843 18.04310608 -0.05174255 C22.4237072 -0.0621551 26.80398366 -0.05757324 31.18457031 -0.04296875 C36.79832473 -0.02578514 42.41105526 -0.04926696 48.0246954 -0.08445835 C52.34073164 -0.10641994 56.65652247 -0.10499374 60.97259712 -0.09669304 C63.04225347 -0.09587274 65.11192769 -0.10275109 67.18153191 -0.11746407 C70.07608814 -0.13488556 72.96879924 -0.12038699 75.86328125 -0.09765625 C76.71799011 -0.10934845 77.57269897 -0.12104065 78.45330811 -0.13308716 C82.78895612 -0.06381757 84.46857148 0.10955082 87.96148682 2.9150238 C89.93977076 5.46065732 91.62541071 7.94961271 93.20336914 10.76000977 C94.07082764 12.28706543 94.07082764 12.28706543 94.95581055 13.8449707 C95.56730957 14.93841797 96.17880859 16.03186523 96.80883789 17.15844727 C98.14460953 19.51086195 99.48182652 21.86240735 100.82055664 24.21313477 C101.16328613 24.81677856 101.50601563 25.42042236 101.85913086 26.0423584 C105.53302196 32.50385728 109.32194172 38.89495573 113.12133789 45.28344727 C114.11000854 46.95370972 114.11000854 46.95370972 115.11865234 48.65771484 C118.34206405 54.09819127 121.59162482 59.51988084 124.89477539 64.91235352 C125.50305176 65.91492188 126.11132812 66.91749023 126.73803711 67.95043945 C127.87714306 69.82627902 129.02659574 71.69589016 130.18823242 73.55786133 C135.07370208 81.64146222 135.07370208 81.64146222 133.99633789 86.53344727 C132.46669688 90.15890021 130.63346644 93.58310245 128.74633789 97.03344727 C127.93096558 98.55869019 127.93096558 98.55869019 127.09912109 100.11474609 C125.41177716 103.26187495 123.70659535 106.3987208 121.99633789 109.53344727 C121.01585638 111.33942992 120.03538703 113.14541918 119.05493164 114.95141602 C117.11575677 118.51542989 115.16700323 122.07405501 113.21508789 125.63110352 C110.83501658 129.97936822 108.48589522 134.34354784 106.15258789 138.71704102 C105.82317703 139.33413437 105.49376617 139.95122772 105.15437317 140.58702087 C103.5447589 143.60356271 101.93801336 146.62156342 100.33496094 149.64160156 C97.36540306 155.21209646 94.35208387 160.75509597 91.23461914 166.24438477 C90.68459229 167.21424316 90.13456543 168.18410156 89.56787109 169.18334961 C87.99633789 171.53344727 87.99633789 171.53344727 84.99633789 173.53344727 C81.99734321 173.73896115 79.09044709 173.82712953 76.09033203 173.82397461 C75.17948349 173.83069183 74.26863495 173.83740906 73.33018494 173.84432983 C70.31389946 173.86335542 67.29783591 173.86723621 64.28149414 173.86938477 C62.18786018 173.87580907 60.09422714 173.88253715 58.00059509 173.88955688 C53.60991331 173.90154075 49.21931027 173.90523652 44.82861328 173.90405273 C39.19808814 173.90384938 33.56806682 173.93116365 27.93766117 173.96559715 C23.61313042 173.98781593 19.28872193 173.99189183 14.96413994 173.99083328 C12.88806864 173.99319636 10.81199432 174.0020594 8.73597908 174.01749802 C5.83420462 174.03705811 2.93352983 174.03135943 0.03173828 174.01928711 C-0.8281369 174.03052612 -1.68801208 174.04176514 -2.57394409 174.05334473 C-8.39336845 173.99171184 -8.39336845 173.99171184 -11.45436096 171.6932373 C-13.46344306 168.89249356 -15.11962866 165.97526285 -16.69116211 162.91625977 C-17.03011505 162.27161774 -17.36906799 161.62697571 -17.71829224 160.96279907 C-18.44328902 159.58207218 -19.1649677 158.19959878 -19.88360596 156.81555176 C-21.40079517 153.89361283 -22.93384968 150.98010389 -24.46609497 148.06604004 C-25.23553315 146.60236077 -26.00414996 145.13824943 -26.77194214 143.67370605 C-29.83035695 137.84336694 -32.95827677 132.05369176 -36.12866211 126.28344727 C-37.06518167 124.57008137 -38.00137375 122.85653644 -38.93725586 121.14282227 C-40.60660065 118.08730012 -42.27811415 115.03299715 -43.95336914 111.98071289 C-45.69853788 108.79886743 -47.4338526 105.61178803 -49.16400146 102.42175293 C-49.84138911 101.17646094 -50.52186609 99.93284379 -51.20562744 98.69104004 C-52.16074895 96.9554532 -53.10391133 95.21330161 -54.04663086 93.47094727 C-54.59343506 92.4693457 -55.14023926 91.46774414 -55.70361328 90.43579102 C-57.10036734 87.31755398 -57.84813412 84.95113977 -58.00366211 81.53344727 C-56.88647461 78.78637695 -56.88647461 78.78637695 -55.12866211 75.95532227 C-54.48074707 74.89031494 -53.83283203 73.82530762 -53.1652832 72.72802734 C-52.44476325 71.57982117 -51.72422233 70.43162817 -51.00366211 69.28344727 C-50.26681779 68.0811272 -49.53198419 66.87757277 -48.79907227 65.67285156 C-47.66531516 63.80957657 -46.53047437 61.94708165 -45.38955688 60.08818054 C-41.59920182 53.90941217 -37.97960632 47.63673616 -34.37866211 41.34594727 C-33.15117172 39.21422134 -31.92330782 37.08271044 -30.69506836 34.95141602 C-28.81167688 31.67920534 -26.93052623 28.40576628 -25.05395508 25.12963867 C-23.14702842 21.80260972 -21.23224372 18.48020991 -19.31616211 15.15844727 C-18.451604 13.64214722 -18.451604 13.64214722 -17.56958008 12.09521484 C-16.7577124 10.69178833 -16.7577124 10.69178833 -15.92944336 9.26000977 C-15.45933838 8.44097168 -14.9892334 7.62193359 -14.50488281 6.77807617 C-10.27977195 0.46067997 -7.2871384 -0.05550735 0 0 Z " fill="#C92061" transform="translate(141.003662109375,274.466552734375)"></path><path d="M0 0 C0.90924225 -0.00846954 1.8184845 -0.01693909 2.75527954 -0.02566528 C5.76684484 -0.04910147 8.77790111 -0.05005577 11.78955078 -0.04882812 C13.88079026 -0.05592633 15.97202778 -0.06362483 18.06326294 -0.07189941 C22.44978241 -0.08535991 26.83612188 -0.08690621 31.22265625 -0.08105469 C36.84425088 -0.07516097 42.46498116 -0.10572971 48.08640862 -0.14617157 C52.40671442 -0.17202243 56.7268115 -0.17492827 61.04718399 -0.17127991 C63.11964208 -0.17297399 65.19210952 -0.18264411 67.26449203 -0.20042419 C70.16389489 -0.22255913 73.06154067 -0.21293928 75.9609375 -0.1953125 C76.81721741 -0.20857574 77.67349731 -0.22183899 78.5557251 -0.23550415 C82.89422281 -0.17421707 84.57748596 -0.00710855 88.07402039 2.79753113 C90.07637775 5.37678881 91.78408425 7.90791414 93.38720703 10.75195312 C93.97566406 11.78521729 94.56412109 12.81848145 95.17041016 13.88305664 C95.78980469 14.98834717 96.40919922 16.0936377 97.04736328 17.23242188 C97.70982407 18.39954727 98.37325225 19.56612406 99.03759766 20.73217773 C100.40162621 23.12713234 101.76246997 25.52385059 103.12109375 27.921875 C106.07765989 33.13178723 109.0915226 38.30812356 112.10986328 43.48242188 C112.6700415 44.44825195 113.23021973 45.41408203 113.80737305 46.40917969 C116.90556372 51.73043564 120.07254666 57.00156136 123.32080078 62.23242188 C124.0229534 63.37146023 124.72477933 64.51070005 125.42626953 65.65014648 C126.76716508 67.82067344 128.12074831 69.98342949 129.48876953 72.13696289 C135.38534683 81.71025729 135.38534683 81.71025729 134.10986328 87.41992188 C132.31906657 89.4796872 130.82561056 90.31529096 128.12005615 90.71080017 C125.57179551 90.85179779 123.04096556 90.88810338 120.48876953 90.88867188 C119.08340187 90.90009216 119.08340187 90.90009216 117.64964294 90.91174316 C115.67018292 90.92253788 113.69066598 90.92539982 111.71118164 90.92089844 C108.68620618 90.91992632 105.66376929 90.96154997 102.63916016 91.00585938 C100.71403523 91.01106672 98.7889015 91.01375456 96.86376953 91.01367188 C95.96155167 91.03006714 95.0593338 91.0464624 94.129776 91.06335449 C89.88124609 91.016712 87.74330912 90.87343702 84.21679688 88.34863281 C81.84654429 85.05389933 80.23250205 81.67272078 78.64501953 77.96679688 C71.56836581 62.41236783 71.56836581 62.41236783 58.48937988 52.47583008 C44.45096907 49.30411163 29.28793056 50.90341779 15.10986328 52.41992188 C14.75976196 53.43469604 14.75976196 53.43469604 14.40258789 54.4699707 C12.79798908 58.13160761 10.66651801 61.32713905 8.42626953 64.61914062 C7.9700975 65.29539993 7.51392548 65.97165924 7.04393005 66.66841125 C6.08219164 68.09117254 5.11803599 69.5123025 4.15161133 70.93188477 C2.67354025 73.10569091 1.20673335 75.28679772 -0.25927734 77.46875 C-1.19675878 78.85266738 -2.13488779 80.23614634 -3.07373047 81.61914062 C-3.51132187 82.27121994 -3.94891327 82.92329926 -4.39976501 83.59513855 C-6.40079972 86.51797059 -7.907168 88.43127606 -10.89013672 90.41992188 C-12.85643005 90.68734741 -12.85643005 90.68734741 -15.11450195 90.71044922 C-15.96225693 90.72320892 -16.8100119 90.73596863 -17.68345642 90.74911499 C-19.05226707 90.75245346 -19.05226707 90.75245346 -20.44873047 90.75585938 C-21.85977806 90.76584457 -21.85977806 90.76584457 -23.29933167 90.77603149 C-25.28897139 90.7861571 -27.27864508 90.79084854 -29.26831055 90.79052734 C-32.31274323 90.79490048 -35.35572622 90.83122077 -38.39990234 90.86914062 C-40.33284009 90.87500878 -42.26578473 90.87897818 -44.19873047 90.88085938 C-45.10924667 90.89523041 -46.01976288 90.90960144 -46.95787048 90.92440796 C-53.19267262 90.87932154 -53.19267262 90.87932154 -56.49584961 88.70361328 C-58.20642254 85.90187992 -58.4335857 84.65291051 -57.89013672 81.41992188 C-56.65942383 78.78637695 -56.65942383 78.78637695 -54.91748047 75.93945312 C-54.27286865 74.87130371 -53.62825684 73.8031543 -52.96411133 72.70263672 C-52.61653778 72.13808777 -52.26896423 71.57353882 -51.91085815 70.99188232 C-50.43128869 68.58863967 -48.9754549 66.17132302 -47.51808167 63.75457764 C-46.76184488 62.50095207 -46.00437401 61.24807019 -45.24571228 59.99591064 C-41.50760367 53.81864854 -37.91201197 47.56244164 -34.32763672 41.29492188 C-29.16791125 32.31539166 -23.94477054 23.37690436 -18.64013672 14.48242188 C-18.007771 13.41556152 -17.37540527 12.34870117 -16.72387695 11.24951172 C-16.13421143 10.26547363 -15.5445459 9.28143555 -14.93701172 8.26757812 C-14.16115723 6.96832397 -14.16115723 6.96832397 -13.36962891 5.64282227 C-9.64622071 0.04849362 -6.51843697 -0.02220426 0 0 Z " fill="#FEFAFB" transform="translate(140.89013671875,69.580078125)"></path><path d="M0 0 C0.95673615 -0.0133136 1.91347229 -0.0266272 2.89920044 -0.04034424 C4.9214917 -0.06057725 6.94391622 -0.06997889 8.96630859 -0.06933594 C12.05400704 -0.07807883 15.13597121 -0.15068868 18.22265625 -0.2265625 C20.19008466 -0.23830093 22.15754017 -0.24623832 24.125 -0.25 C25.50339554 -0.2931131 25.50339554 -0.2931131 26.90963745 -0.33709717 C30.62977686 -0.28432556 33.16571479 -0.24220044 36.01940918 2.29130554 C37.5982807 4.34594347 38.91567699 6.42021515 40.1953125 8.671875 C41.19836426 10.27929565 41.19836426 10.27929565 42.22167969 11.91918945 C42.80594727 12.9474585 43.39021484 13.97572754 43.9921875 15.03515625 C44.96478516 16.73575195 44.96478516 16.73575195 45.95703125 18.47070312 C46.6200153 19.64180051 47.28277362 20.81302571 47.9453125 21.984375 C49.27164775 24.31482666 50.60074978 26.64368624 51.9296875 28.97265625 C52.79932129 30.50660034 52.79932129 30.50660034 53.68652344 32.0715332 C55.62918749 36.04005175 55.62918749 36.04005175 59.13023376 38.2277832 C59.92119949 38.30859131 60.71216522 38.38939941 61.52709961 38.47265625 C62.42717239 38.56482422 63.32724518 38.65699219 64.2545929 38.75195312 C87.77130122 41.78861952 87.77130122 41.78861952 109.22802734 34.94140625 C115.51990097 28.67422243 119.33246924 20.41722387 122.53173828 12.2421875 C124.57872876 7.84899866 126.45706835 3.85830932 130.1953125 0.671875 C133.65943802 -0.41765138 136.91316973 -0.33663908 140.51953125 -0.21484375 C141.50274857 -0.21063919 142.48596588 -0.20643463 143.49897766 -0.20210266 C145.56929583 -0.18568698 147.63954021 -0.15007445 149.70922852 -0.09643555 C152.8832778 -0.01561315 156.05353059 0.00603451 159.22851562 0.01757812 C161.24223021 0.04082642 163.25590971 0.06740399 165.26953125 0.09765625 C166.21954514 0.10726883 167.16955902 0.11688141 168.14836121 0.12678528 C169.0297023 0.15238022 169.9110434 0.17797516 170.8190918 0.2043457 C171.5937529 0.22181351 172.368414 0.23928131 173.16654968 0.25727844 C175.72320472 0.77975469 176.63278537 1.6093682 178.1953125 3.671875 C178.79130332 8.36339252 177.7922819 11.09727771 175.40625 15.1015625 C174.49927368 16.64674561 174.49927368 16.64674561 173.57397461 18.22314453 C172.91276611 19.31997559 172.25155762 20.41680664 171.5703125 21.546875 C170.88356642 22.70741374 170.19812028 23.86872262 169.51391602 25.03076172 C168.1052594 27.41949535 166.68996153 29.80408761 165.26904297 32.18554688 C162.7623652 36.39134506 160.30150758 40.62343195 157.84155273 44.85668945 C156.13311431 47.79635569 154.41899692 50.73263608 152.703125 53.66796875 C150.23696299 57.88779944 147.77367191 62.10928811 145.3125 66.33203125 C144.67578369 67.42435059 144.03906738 68.51666992 143.38305664 69.64208984 C142.16331266 71.73475827 140.94373963 73.82752635 139.72436523 75.92041016 C139.17466064 76.86319824 138.62495605 77.80598633 138.05859375 78.77734375 C137.57688721 79.60387451 137.09518066 80.43040527 136.59887695 81.28198242 C136.13570068 82.07064697 135.67252441 82.85931152 135.1953125 83.671875 C134.68250732 84.57719971 134.16970215 85.48252441 133.64135742 86.4152832 C132.1953125 88.671875 132.1953125 88.671875 130.1953125 89.671875 C127.19611417 89.7915127 124.21945659 89.85029141 121.21923828 89.86474609 C120.28902863 89.87292358 119.35881897 89.88110107 118.40042114 89.88952637 C115.31382904 89.91439467 112.22728291 89.93089845 109.140625 89.9453125 C107.56217615 89.95329802 107.56217615 89.95329802 105.95183945 89.96144485 C100.38407875 89.98818035 94.81634053 90.00755558 89.24853516 90.02197266 C83.48901163 90.03863806 77.73005837 90.08343082 71.97075081 90.1343441 C67.54929929 90.16794519 63.12798445 90.17954217 58.70641708 90.18519974 C56.58287056 90.19193002 54.45933357 90.20719786 52.3359108 90.23109055 C49.36685458 90.26259689 46.39935424 90.26280085 43.43017578 90.25537109 C42.55002808 90.27177643 41.66988037 90.28818176 40.76306152 90.30508423 C34.79153794 90.24378608 34.79153794 90.24378608 31.71868896 87.29624939 C31.21597473 86.43020584 30.7132605 85.56416229 30.1953125 84.671875 C29.66437988 83.82262451 29.13344727 82.97337402 28.58642578 82.09838867 C28.06806152 81.18806885 27.54969727 80.27774902 27.015625 79.33984375 C26.42386475 78.30649902 25.83210449 77.2731543 25.22241211 76.20849609 C24.2808728 74.55068115 24.2808728 74.55068115 23.3203125 72.859375 C22.31396844 71.09914778 21.30601626 69.33984757 20.29801941 67.58056641 C19.60972175 66.37901965 18.92190997 65.17719443 18.23457336 63.97509766 C14.90064514 58.14619329 11.52081904 52.3444946 8.1328125 46.546875 C7.56941162 45.57919189 7.00601074 44.61150879 6.42553711 43.61450195 C3.39206543 38.40840282 0.33290384 33.21921749 -2.7578125 28.046875 C-3.40355225 26.95906738 -4.04929199 25.87125977 -4.71459961 24.75048828 C-5.95247718 22.66612675 -7.19771063 20.58611039 -8.45141602 18.51123047 C-9.00756592 17.57166504 -9.56371582 16.63209961 -10.13671875 15.6640625 C-10.62889893 14.84276855 -11.1210791 14.02147461 -11.62817383 13.17529297 C-13.01952365 10.21474077 -13.71171531 7.9528935 -13.8046875 4.671875 C-10.76730132 -0.67741772 -5.48995024 0.02647664 0 0 Z " fill="#FEFBFC" transform="translate(96.8046875,172.328125)"></path><path d="M0 0 C1.37207359 -0.00786278 1.37207359 -0.00786278 2.77186584 -0.0158844 C4.70426418 -0.02230091 6.6367016 -0.0209724 8.5690918 -0.01245117 C11.52138043 -0.00394594 14.47173083 -0.03269956 17.42382812 -0.06445312 C19.30338484 -0.06606541 21.18294497 -0.06548708 23.0625 -0.0625 C23.94284409 -0.07373398 24.82318817 -0.08496796 25.73020935 -0.09654236 C29.67151713 -0.05186623 32.04960837 0.12852209 35.54321289 2.07324219 C37.96555891 4.8562774 38.86834895 7.19119751 40.00390625 10.6953125 C44.61670371 22.66707951 44.61670371 22.66707951 53.59765625 31.43359375 C67.46541926 36.01721921 84.29613504 33.67552056 98.59765625 32.43359375 C98.98836304 31.37821411 98.98836304 31.37821411 99.38696289 30.30151367 C101.44228845 25.43280842 104.27475498 21.00814831 106.99243164 16.48510742 C108.03574024 14.7451198 109.06787137 12.99882021 110.09960938 11.25195312 C110.75767578 10.15302734 111.41574219 9.05410156 112.09375 7.921875 C112.99371704 6.41427612 112.99371704 6.41427612 113.91186523 4.8762207 C115.59765625 2.43359375 115.59765625 2.43359375 118.59765625 0.43359375 C120.51925659 0.16616821 120.51925659 0.16616821 122.71435547 0.14306641 C123.538862 0.1303067 124.36336853 0.117547 125.21286011 0.10440063 C126.10038971 0.10217499 126.98791931 0.09994934 127.90234375 0.09765625 C128.81847443 0.09099945 129.7346051 0.08434265 130.67849731 0.07748413 C132.6168619 0.0673583 134.55526134 0.06266709 136.49365234 0.06298828 C139.45468858 0.05862026 142.41422804 0.02231466 145.375 -0.015625 C147.25910949 -0.02149425 149.14322606 -0.02546292 151.02734375 -0.02734375 C152.35256546 -0.0489003 152.35256546 -0.0489003 153.70455933 -0.07089233 C157.83181309 -0.04032453 160.06717521 0.11870188 163.68603516 2.2668457 C165.59765625 4.43359375 165.59765625 4.43359375 165.75390625 7.5625 C164.59389229 12.63353325 161.73588322 16.95132338 159.09765625 21.37109375 C153.44461558 31.08935928 148.08875065 40.926609 142.84765625 50.87109375 C133.32991799 68.88270473 133.32991799 68.88270473 129.16015625 76.37109375 C128.63953613 77.31843384 128.63953613 77.31843384 128.10839844 78.28491211 C125.83881312 82.31301531 125.83881312 82.31301531 123.59765625 83.43359375 C120.59845792 83.55323145 117.62180034 83.61201016 114.62158203 83.62646484 C113.69137238 83.63464233 112.76116272 83.64281982 111.80276489 83.65124512 C108.71617279 83.67611342 105.62962666 83.6926172 102.54296875 83.70703125 C100.9645199 83.71501677 100.9645199 83.71501677 99.3541832 83.7231636 C93.7864225 83.7498991 88.21868428 83.76927433 82.65087891 83.78369141 C76.89135538 83.80035681 71.13240212 83.84514957 65.37309456 83.89606285 C60.95164304 83.92966394 56.5303282 83.94126092 52.10876083 83.94691849 C49.98521431 83.95364877 47.86167732 83.96891661 45.73825455 83.9928093 C42.76919833 84.02431564 39.80169799 84.0245196 36.83251953 84.01708984 C35.95237183 84.03349518 35.07222412 84.04990051 34.16540527 84.06680298 C28.19836334 84.00555083 28.19836334 84.00555083 25.12776184 81.08190918 C24.622827 80.20796509 24.11789215 79.334021 23.59765625 78.43359375 C23.03119385 77.45793457 22.46473145 76.48227539 21.88110352 75.47705078 C21.31447998 74.39278809 20.74785645 73.30852539 20.1640625 72.19140625 C19.84976791 71.59480698 19.53547333 70.9982077 19.21165466 70.38352966 C18.53911092 69.10642997 17.86876243 67.82817218 17.20043945 66.54885864 C15.42987956 63.16143185 13.64140899 59.78351658 11.8515625 56.40625 C11.49220612 55.7278154 11.13284973 55.0493808 10.76260376 54.35038757 C7.47948414 48.17213817 4.06379957 42.07347418 0.59765625 35.99609375 C-0.44798395 34.15368402 -1.49355947 32.31123757 -2.5390625 30.46875 C-3.93253432 28.01544147 -5.32781464 25.56337012 -6.73291016 23.11669922 C-7.90789609 21.0633391 -9.06386666 19.00047816 -10.21484375 16.93359375 C-10.84003906 15.83015625 -11.46523437 14.72671875 -12.109375 13.58984375 C-13.62469402 9.89081726 -13.94431825 7.39236403 -13.40234375 3.43359375 C-9.85647225 -0.69704606 -5.01847731 -0.01669647 0 0 Z " fill="#FEFBFC" transform="translate(263.40234375,274.56640625)"></path><path d="M0 0 C1.36386337 -0.01248528 1.36386337 -0.01248528 2.75527954 -0.02522278 C5.7667466 -0.04935587 8.77799722 -0.05809886 11.78955078 -0.06469727 C13.88078884 -0.07366093 15.97202623 -0.08278272 18.06326294 -0.09205627 C22.44974325 -0.10855772 26.83614712 -0.11624852 31.22265625 -0.11914062 C36.84421397 -0.12452623 42.46505373 -0.16220906 48.08640862 -0.20788479 C52.40669378 -0.23762282 56.72680536 -0.24486348 61.04718399 -0.24586678 C63.11965346 -0.25007537 65.19212316 -0.26253519 67.26449203 -0.28338432 C70.16384468 -0.31023143 73.06152416 -0.30549311 75.9609375 -0.29296875 C76.81721741 -0.30780304 77.67349731 -0.32263733 78.5557251 -0.33792114 C82.89634647 -0.28450972 84.57698533 -0.11999625 88.07876587 2.68202209 C90.0839327 5.27289167 91.69052685 7.76941776 93.20361328 10.67358398 C93.75235107 11.71232666 94.30108887 12.75106934 94.86645508 13.82128906 C95.44177979 14.93012451 96.01710449 16.03895996 96.60986328 17.18139648 C97.85386364 19.5380084 99.09962679 21.89359093 100.34814453 24.24780273 C100.66241898 24.84225693 100.97669342 25.43671112 101.30049133 26.04917908 C104.35234546 31.80505362 107.56276438 37.46444315 110.79736328 43.11889648 C115.08198691 50.67170886 119.34831902 58.23379577 123.48486328 65.86889648 C124.20935669 67.16307495 124.20935669 67.16307495 124.94848633 68.48339844 C126.93637919 72.20463013 128.1300594 74.49212576 128.02392578 78.77124023 C127.10986328 81.30639648 127.10986328 81.30639648 125.10986328 83.30639648 C123.18789673 83.57382202 123.18789673 83.57382202 120.81542969 83.59692383 C119.92755768 83.60968353 119.03968567 83.62244324 118.12490845 83.6355896 C116.68273453 83.63892807 116.68273453 83.63892807 115.21142578 83.64233398 C114.22492035 83.64899078 113.23841492 83.65564758 112.22201538 83.6625061 C110.1322415 83.67264412 108.04243517 83.67732277 105.95263672 83.67700195 C102.75450207 83.68136966 99.55775306 83.71766247 96.35986328 83.75561523 C94.33122218 83.76148421 92.3025745 83.76545306 90.27392578 83.76733398 C89.31652496 83.78170502 88.35912415 83.79607605 87.37271118 83.81088257 C80.80797209 83.76570743 80.80797209 83.76570743 77.62109375 81.66894531 C75.83291508 78.87343562 74.81940113 76.19282275 73.76611328 73.04467773 C69.07865451 61.09880138 69.07865451 61.09880138 60.10986328 52.30639648 C46.5713241 47.75486065 30.08486684 50.06339275 16.10986328 51.30639648 C15.85011719 52.00998291 15.59037109 52.71356934 15.32275391 53.43847656 C14.01074023 56.54077621 12.43679595 59.30516962 10.70361328 62.19311523 C10.04232422 63.2959082 9.38103516 64.39870117 8.69970703 65.53491211 C8.35665527 66.10250244 8.01360352 66.67009277 7.66015625 67.25488281 C6.60841342 68.99629707 5.56384692 70.74186931 4.52001953 72.48803711 C-0.62993099 81.04619076 -0.62993099 81.04619076 -2.89013672 83.30639648 C-4.8188324 83.5670929 -4.8188324 83.5670929 -7.20043945 83.58105469 C-8.09153915 83.5905867 -8.98263885 83.60011871 -9.90074158 83.60993958 C-10.86532791 83.60902817 -11.82991425 83.60811676 -12.82373047 83.60717773 C-13.81260757 83.61146286 -14.80148468 83.61574799 -15.82032776 83.62016296 C-17.91430902 83.62591285 -20.00831025 83.6264017 -22.10229492 83.62207031 C-25.31121832 83.61891264 -28.51921819 83.64235366 -31.72802734 83.66772461 C-33.75992722 83.66999771 -35.79182958 83.67070105 -37.82373047 83.66967773 C-39.26757362 83.68349236 -39.26757362 83.68349236 -40.74058533 83.69758606 C-41.63483719 83.69135727 -42.52908905 83.68512848 -43.45043945 83.67871094 C-44.23716537 83.67934036 -45.0238913 83.67996979 -45.8344574 83.68061829 C-48.43049146 83.20802875 -49.31391807 82.39138261 -50.89013672 80.30639648 C-51.60115721 75.28489745 -50.00877468 71.82038779 -47.62841797 67.52905273 C-47.28626755 66.88947632 -46.94411713 66.2498999 -46.59159851 65.59094238 C-45.47408707 63.51010772 -44.33882025 61.43958562 -43.20263672 59.36889648 C-42.42247961 57.92592049 -41.64318972 56.48247531 -40.86474609 55.03857422 C-35.79375735 45.66246373 -30.60360437 36.35272889 -25.3059082 27.1027832 C-21.59014122 20.6086238 -18.04730046 14.04110773 -14.69091797 7.35351562 C-11.03099337 0.21935378 -7.51860482 0.00580873 0 0 Z " fill="#FEFBFC" transform="translate(300.89013671875,178.693603515625)"></path><path d="M0 0 C0.90938828 -0.00861557 1.81877655 -0.01723114 2.75572205 -0.02610779 C5.76199807 -0.0488116 8.76734521 -0.04202047 11.77368164 -0.03295898 C13.86349261 -0.03819283 15.95330121 -0.04446843 18.04310608 -0.05174255 C22.4237072 -0.0621551 26.80398366 -0.05757324 31.18457031 -0.04296875 C36.79832473 -0.02578514 42.41105526 -0.04926696 48.0246954 -0.08445835 C52.34073164 -0.10641994 56.65652247 -0.10499374 60.97259712 -0.09669304 C63.04225347 -0.09587274 65.11192769 -0.10275109 67.18153191 -0.11746407 C70.07608814 -0.13488556 72.96879924 -0.12038699 75.86328125 -0.09765625 C76.71799011 -0.10934845 77.57269897 -0.12104065 78.45330811 -0.13308716 C82.78895612 -0.06381757 84.46857148 0.10955082 87.96148682 2.9150238 C89.93977076 5.46065732 91.62541071 7.94961271 93.20336914 10.76000977 C94.07082764 12.28706543 94.07082764 12.28706543 94.95581055 13.8449707 C95.56730957 14.93841797 96.17880859 16.03186523 96.80883789 17.15844727 C98.14460953 19.51086195 99.48182652 21.86240735 100.82055664 24.21313477 C101.16328613 24.81677856 101.50601563 25.42042236 101.85913086 26.0423584 C105.53302196 32.50385728 109.32194172 38.89495573 113.12133789 45.28344727 C114.11000854 46.95370972 114.11000854 46.95370972 115.11865234 48.65771484 C118.34206405 54.09819127 121.59162482 59.51988084 124.89477539 64.91235352 C125.50305176 65.91492188 126.11132812 66.91749023 126.73803711 67.95043945 C127.87714306 69.82627902 129.02659574 71.69589016 130.18823242 73.55786133 C135.07370208 81.64146222 135.07370208 81.64146222 133.99633789 86.53344727 C132.46669688 90.15890021 130.63346644 93.58310245 128.74633789 97.03344727 C127.93096558 98.55869019 127.93096558 98.55869019 127.09912109 100.11474609 C125.41177716 103.26187495 123.70659535 106.3987208 121.99633789 109.53344727 C121.01585638 111.33942992 120.03538703 113.14541918 119.05493164 114.95141602 C117.11575677 118.51542989 115.16700323 122.07405501 113.21508789 125.63110352 C110.83501658 129.97936822 108.48589522 134.34354784 106.15258789 138.71704102 C105.82317703 139.33413437 105.49376617 139.95122772 105.15437317 140.58702087 C103.5447589 143.60356271 101.93801336 146.62156342 100.33496094 149.64160156 C97.36540306 155.21209646 94.35208387 160.75509597 91.23461914 166.24438477 C90.68459229 167.21424316 90.13456543 168.18410156 89.56787109 169.18334961 C87.99633789 171.53344727 87.99633789 171.53344727 84.99633789 173.53344727 C81.99734321 173.73896115 79.09044709 173.82712953 76.09033203 173.82397461 C75.17948349 173.83069183 74.26863495 173.83740906 73.33018494 173.84432983 C70.31389946 173.86335542 67.29783591 173.86723621 64.28149414 173.86938477 C62.18786018 173.87580907 60.09422714 173.88253715 58.00059509 173.88955688 C53.60991331 173.90154075 49.21931027 173.90523652 44.82861328 173.90405273 C39.19808814 173.90384938 33.56806682 173.93116365 27.93766117 173.96559715 C23.61313042 173.98781593 19.28872193 173.99189183 14.96413994 173.99083328 C12.88806864 173.99319636 10.81199432 174.0020594 8.73597908 174.01749802 C5.83420462 174.03705811 2.93352983 174.03135943 0.03173828 174.01928711 C-0.8281369 174.03052612 -1.68801208 174.04176514 -2.57394409 174.05334473 C-8.39336845 173.99171184 -8.39336845 173.99171184 -11.45436096 171.6932373 C-13.46344306 168.89249356 -15.11962866 165.97526285 -16.69116211 162.91625977 C-17.03011505 162.27161774 -17.36906799 161.62697571 -17.71829224 160.96279907 C-18.44328902 159.58207218 -19.1649677 158.19959878 -19.88360596 156.81555176 C-21.40079517 153.89361283 -22.93384968 150.98010389 -24.46609497 148.06604004 C-25.23553315 146.60236077 -26.00414996 145.13824943 -26.77194214 143.67370605 C-29.83035695 137.84336694 -32.95827677 132.05369176 -36.12866211 126.28344727 C-37.06518167 124.57008137 -38.00137375 122.85653644 -38.93725586 121.14282227 C-40.60660065 118.08730012 -42.27811415 115.03299715 -43.95336914 111.98071289 C-45.69853788 108.79886743 -47.4338526 105.61178803 -49.16400146 102.42175293 C-49.84138911 101.17646094 -50.52186609 99.93284379 -51.20562744 98.69104004 C-52.16074895 96.9554532 -53.10391133 95.21330161 -54.04663086 93.47094727 C-54.59343506 92.4693457 -55.14023926 91.46774414 -55.70361328 90.43579102 C-57.10036734 87.31755398 -57.84813412 84.95113977 -58.00366211 81.53344727 C-56.88647461 78.78637695 -56.88647461 78.78637695 -55.12866211 75.95532227 C-54.48074707 74.89031494 -53.83283203 73.82530762 -53.1652832 72.72802734 C-52.44476325 71.57982117 -51.72422233 70.43162817 -51.00366211 69.28344727 C-50.26681779 68.0811272 -49.53198419 66.87757277 -48.79907227 65.67285156 C-47.66531516 63.80957657 -46.53047437 61.94708165 -45.38955688 60.08818054 C-41.59920182 53.90941217 -37.97960632 47.63673616 -34.37866211 41.34594727 C-33.15117172 39.21422134 -31.92330782 37.08271044 -30.69506836 34.95141602 C-28.81167688 31.67920534 -26.93052623 28.40576628 -25.05395508 25.12963867 C-23.14702842 21.80260972 -21.23224372 18.48020991 -19.31616211 15.15844727 C-18.451604 13.64214722 -18.451604 13.64214722 -17.56958008 12.09521484 C-16.7577124 10.69178833 -16.7577124 10.69178833 -15.92944336 9.26000977 C-15.45933838 8.44097168 -14.9892334 7.62193359 -14.50488281 6.77807617 C-10.27977195 0.46067997 -7.2871384 -0.05550735 0 0 Z M-9.57763672 23.14762878 C-10.0482251 24.26494888 -10.51881348 25.38226898 -11.00366211 26.53344727 C-12.14421203 28.55104 -13.30715339 30.55634127 -14.50366211 32.54125977 C-15.67175096 34.57950789 -16.8383761 36.61859543 -18.00366211 38.65844727 C-23.54027548 48.30335122 -29.14425513 57.90503554 -34.81616211 67.47094727 C-35.16445068 68.05902161 -35.51273926 68.64709595 -35.87158203 69.25299072 C-41.6344678 78.9796558 -41.6344678 78.9796558 -44.00366211 82.53344727 C-43.6136111 85.88587226 -42.03225326 88.65567454 -40.48413086 91.61938477 C-39.96278564 92.62090576 -39.44144043 93.62242676 -38.90429688 94.65429688 C-38.05629517 96.26510132 -38.05629517 96.26510132 -37.19116211 97.90844727 C-36.60584717 99.02678955 -36.02053223 100.14513184 -35.41748047 101.29736328 C-30.75269711 110.1801213 -25.97449552 118.99766004 -21.14428711 127.79125977 C-18.79897387 132.06578229 -16.48059539 136.35430344 -14.17553711 140.65063477 C-13.69261452 141.55033745 -13.69261452 141.55033745 -13.19993591 142.46821594 C-11.61730837 145.41768873 -10.03692929 148.36832959 -8.45898438 151.3203125 C-7.89236084 152.37677979 -7.3257373 153.43324707 -6.74194336 154.52172852 C-6.23703369 155.4657251 -5.73212402 156.40972168 -5.21191406 157.38232422 C-4.17899914 159.44818583 -4.17899914 159.44818583 -3.00366211 160.53344727 C-0.41727173 160.62852548 2.14232349 160.65901102 4.72900391 160.64697266 C5.53869629 160.64711868 6.34838867 160.64726471 7.18261719 160.64741516 C9.87185297 160.6467158 12.56102038 160.63892236 15.25024414 160.63110352 C17.10969505 160.62923942 18.96914645 160.62781548 20.82859802 160.6268158 C25.73262885 160.62298997 30.63663025 160.61315915 35.54064941 160.60211182 C40.54084882 160.59189907 45.54105295 160.58731847 50.54125977 160.58227539 C60.3596321 160.57153693 70.17798255 160.55445975 79.99633789 160.53344727 C80.35938019 159.83274612 80.72242249 159.13204498 81.09646606 158.41011047 C82.77293563 155.17591586 84.45103423 151.94256906 86.12915039 148.70922852 C86.69996338 147.60744263 87.27077637 146.50565674 87.85888672 145.3704834 C91.45490364 138.44515202 95.12028179 131.56346633 98.87133789 124.72094727 C99.8414572 122.94494232 100.81151632 121.16890449 101.78149414 119.39282227 C103.51001768 116.2344235 105.24625219 113.08059734 106.99584961 109.93383789 C108.76624245 106.7490735 110.5222143 103.55668268 112.27056885 100.35977173 C112.95784848 99.10946903 113.65029081 97.86198914 114.3480835 96.61752319 C115.32343625 94.87676211 116.27943865 93.12520207 117.23461914 91.37329102 C117.79189697 90.36645264 118.3491748 89.35961426 118.92333984 88.32226562 C120.16765227 85.08818579 120.10804605 83.77731455 118.99633789 80.53344727 C117.8816141 78.17149511 117.8816141 78.17149511 116.43383789 75.81469727 C115.89259277 74.89672363 115.35134766 73.97875 114.79370117 73.03295898 C114.20057129 72.04312012 113.60744141 71.05328125 112.99633789 70.03344727 C111.72285137 67.87983042 110.4494162 65.72618321 109.17602539 63.57250977 C108.49230084 62.42167791 107.80837763 61.27096406 107.12426758 60.12036133 C103.79647745 54.51807422 100.50661272 48.89349548 97.21313477 43.27099609 C95.85760529 40.95853314 94.49912523 38.6478123 93.13989258 36.33752441 C89.97718635 30.94385936 86.84325427 25.53563118 83.74584961 20.10424805 C83.20062904 19.14912071 83.20062904 19.14912071 82.64439392 18.17469788 C81.76141464 16.62778208 80.87883353 15.08063902 79.99633789 13.53344727 C69.31344087 13.23171185 58.63156285 13.00099828 47.94526672 12.85988903 C42.98240275 12.79214546 38.02246097 12.70035145 33.0612793 12.55273438 C28.26938424 12.41105323 23.48029069 12.33367408 18.6864624 12.30004311 C16.86167267 12.27609347 15.03703003 12.22931501 13.21343994 12.15895653 C1.90116745 11.74002168 -4.40536836 12.18574131 -9.57763672 23.14762878 Z " fill="#FEFBFC" transform="translate(141.003662109375,274.466552734375)"></path><path d="M0 0 C3.06377634 0.08711813 6.11202587 0.0618262 9.17651367 0.02270508 C11.13036509 0.04141674 13.08416756 0.06658952 15.0378418 0.09887695 C15.94736099 0.09007004 16.85688019 0.08126312 17.79396057 0.07218933 C21.64432044 0.24298044 24.05355688 0.42938196 26.81886292 3.25630188 C28.3909997 5.57306172 29.71865792 7.91302768 31.00268555 10.3996582 C32.01359253 12.10085815 32.01359253 12.10085815 33.04492188 13.83642578 C33.6355542 14.89498779 34.22618652 15.9535498 34.8347168 17.04418945 C35.15679611 17.62126144 35.47887543 18.19833344 35.81071472 18.79289246 C36.47873125 19.99238583 37.14485721 21.19293405 37.80908203 22.39453125 C38.82500473 24.22989754 39.8500185 26.05998385 40.87573242 27.88989258 C41.52927473 29.0660208 42.18228919 30.24244252 42.8347168 31.41918945 C43.41970947 32.47211182 44.00470215 33.52503418 44.60742188 34.60986328 C47.39602456 40.18560481 47.39602456 40.18560481 46.33242798 43.46842957 C45.96016083 44.2026564 45.58789368 44.93688324 45.2043457 45.69335938 C44.78706207 46.53070114 44.36977844 47.36804291 43.93984985 48.23075867 C43.24778946 49.57313347 43.24778946 49.57313347 42.54174805 50.94262695 C42.07658783 51.86682938 41.61142761 52.7910318 41.13217163 53.74324036 C39.64180544 56.69699743 38.13475449 59.64189433 36.62768555 62.5871582 C35.61882052 64.58337141 34.61099491 66.58011029 33.60424805 68.57739258 C31.76214662 72.21940299 29.91884648 75.86073874 28.05981445 79.49414062 C27.68595612 80.22598068 27.31209778 80.95782074 26.9269104 81.71183777 C26.00268555 83.3996582 26.00268555 83.3996582 25.00268555 84.3996582 C23.6210844 84.4924415 22.23480517 84.51712863 20.85009766 84.51318359 C19.9692601 84.51310806 19.08842255 84.51303253 18.18089294 84.51295471 C17.22360794 84.50779343 16.26632294 84.50263214 15.2800293 84.49731445 C14.30481827 84.49589951 13.32960724 84.49448456 12.32484436 84.49302673 C9.19659412 84.48740953 6.06841431 84.47485413 2.94018555 84.4621582 C0.8249522 84.45714542 -1.29028226 84.45258213 -3.40551758 84.44848633 C-8.60280741 84.43743452 -13.8000559 84.42067967 -18.99731445 84.3996582 C-22.0021216 78.5168545 -24.99119587 72.62625462 -27.96948242 66.72998047 C-28.98443133 64.72522121 -30.00296365 62.72227192 -31.02514648 60.72119141 C-32.49409464 57.84396594 -33.95001817 54.96047004 -35.40356445 52.07543945 C-35.86291382 51.18254715 -36.32226318 50.28965485 -36.79553223 49.3697052 C-37.21596802 48.52921127 -37.63640381 47.68871735 -38.06958008 46.82275391 C-38.44264282 46.08773148 -38.81570557 45.35270905 -39.20007324 44.59541321 C-40.51933479 40.96191421 -40.41621669 38.32030236 -38.82324219 34.81933594 C-38.28127197 33.91642822 -37.73930176 33.01352051 -37.1809082 32.08325195 C-36.58084961 31.07069336 -35.98079102 30.05813477 -35.36254883 29.01489258 C-34.40832031 27.44191406 -34.40832031 27.44191406 -33.43481445 25.8371582 C-32.82573242 24.81557617 -32.21665039 23.79399414 -31.58911133 22.74145508 C-30.35073613 20.66439192 -29.08764159 18.60188362 -27.80126953 16.55419922 C-25.90587979 13.44312753 -25.90587979 13.44312753 -24.74609375 9.99316406 C-20.07485787 -1.51702774 -10.95135785 -0.34099087 0 0 Z " fill="#C91F61" transform="translate(175.997314453125,318.600341796875)"></path><path d="M0 0 C0.77251602 0.00359528 1.54503204 0.00719055 2.34095764 0.01089478 C3.55549622 0.01067574 3.55549622 0.01067574 4.79457092 0.01045227 C7.48380671 0.01115163 10.17297412 0.01894507 12.86219788 0.02676392 C14.72164878 0.02862802 16.58110018 0.03005196 18.44055176 0.03105164 C23.34458258 0.03487746 28.24858398 0.04470829 33.15260315 0.05575562 C38.15280255 0.06596836 43.15300669 0.07054896 48.1532135 0.07559204 C57.97158583 0.0863305 67.78993629 0.10340769 77.60829163 0.12442017 C77.89360843 0.63933643 78.17892523 1.1542527 78.47288799 1.68477249 C79.78069875 4.04421371 81.08938587 6.40316776 82.39808655 8.76211548 C83.07124531 9.97703171 83.07124531 9.97703171 83.75800323 11.2164917 C87.05523992 17.15772025 90.43611009 23.04095096 93.92079163 28.87442017 C94.7187616 30.21971802 94.7187616 30.21971802 95.53285217 31.5921936 C98.45375536 36.51547697 101.38901029 41.4300948 104.32704163 46.34317017 C105.22942566 47.85765747 105.22942566 47.85765747 106.15003967 49.40274048 C107.31173262 51.35229604 108.47713851 53.29964495 109.6466217 55.24453735 C110.16635559 56.11755493 110.68608948 56.99057251 111.22157288 57.89004517 C111.91440369 59.04681763 111.91440369 59.04681763 112.62123108 60.22695923 C113.60829163 62.12442017 113.60829163 62.12442017 113.60829163 64.12442017 C105.55497582 66.64917351 97.40456702 67.92596394 89.60829163 64.12442017 C80.10037032 55.468044 73.76223327 42.63741793 67.54408264 31.54263306 C65.95509526 28.38227666 65.95509526 28.38227666 64.60829163 27.12442017 C62.85021255 27.00979616 61.08754704 26.96479031 59.32582092 26.94741821 C58.19762436 26.93458298 57.0694278 26.92174774 55.90704346 26.90852356 C54.67794754 26.90113663 53.44885162 26.89374969 52.18251038 26.88613892 C50.92823746 26.87806717 49.67396454 26.86999542 48.38168335 26.86167908 C45.72093492 26.84781741 43.06031129 26.83680729 40.39955139 26.82925415 C36.99295108 26.81819771 33.58700547 26.78381333 30.18063641 26.74408245 C26.93132577 26.71163143 23.68195838 26.707138 20.43251038 26.69863892 C19.20948715 26.68113083 17.98646393 26.66362274 16.72637939 26.64558411 C15.58872635 26.64850967 14.4510733 26.65143524 13.27894592 26.65444946 C11.77789558 26.6456501 11.77789558 26.6456501 10.246521 26.63667297 C6.85616569 27.26347074 5.75524595 28.47957057 3.60829163 31.12442017 C2.4342226 32.8276391 2.4342226 32.8276391 1.51551819 34.6078186 C1.15197235 35.26803513 0.78842651 35.92825165 0.41386414 36.60847473 C0.02943146 37.30983047 -0.35500122 38.01118622 -0.75108337 38.73379517 C-14.23332488 62.22305007 -14.23332488 62.22305007 -21.77159119 65.66983032 C-28.79690786 66.96883975 -35.55877051 66.05445068 -42.39170837 64.12442017 C-38.6850147 56.35966688 -34.44732605 48.99530293 -30.01670837 41.62442017 C-28.59886635 39.25349848 -27.18423957 36.88067075 -25.77061462 34.50723267 C-25.41130356 33.90432404 -25.05199249 33.30141541 -24.68179321 32.68023682 C-20.03472892 24.86637787 -15.51699916 16.97773525 -11.00157166 9.08731079 C-10.40973083 8.05541626 -9.81789001 7.02352173 -9.20811462 5.96035767 C-8.68676941 5.04818481 -8.16542419 4.13601196 -7.62828064 3.19619751 C-5.47103161 -0.41809968 -4.14656165 0.00814596 0 0 Z " fill="#DC3271" transform="translate(143.39170837402344,82.87557983398438)"></path><path d="M0 0 C1.65719559 -0.0238678 1.65719559 -0.0238678 3.34786987 -0.04821777 C5.13851364 -0.0485199 5.13851364 -0.0485199 6.96533203 -0.04882812 C8.19220734 -0.05644165 9.41908264 -0.06405518 10.68313599 -0.07189941 C13.28059858 -0.08271401 15.87810471 -0.08554804 18.47558594 -0.08105469 C22.4507713 -0.08008359 26.42401986 -0.12166933 30.39892578 -0.16601562 C32.92105717 -0.17122329 35.44319527 -0.17391081 37.96533203 -0.17382812 C39.74990311 -0.19842102 39.74990311 -0.19842102 41.57052612 -0.22351074 C49.7854138 -0.15471146 49.7854138 -0.15471146 53.67407227 2.59472656 C55.60009841 5.42279084 57.38902009 8.20551835 59.01611328 11.21679688 C59.62640381 12.33296387 60.23669434 13.44913086 60.86547852 14.59912109 C61.50573949 15.78927742 62.14579103 16.97954644 62.78564453 18.16992188 C64.10971898 20.60703557 65.43941026 23.0410586 66.77001953 25.47460938 C67.09659042 26.07359039 67.42316132 26.67257141 67.7596283 27.28970337 C70.9250638 33.07130668 74.287532 38.73083048 77.80395508 44.30566406 C79.95984239 47.83491424 81.41382746 50.28415452 80.59814453 54.41992188 C79.37339363 57.07705959 78.08910953 59.56297735 76.66064453 62.10742188 C73.0465879 68.72400928 69.58605621 75.39979037 66.25439453 82.16210938 C65.68838783 83.30837547 65.68838783 83.30837547 65.11094666 84.47779846 C63.57557747 87.58930966 62.0414302 90.70130294 60.52102661 93.82015991 C59.44046097 96.03532389 58.35022365 98.24549567 57.25830078 100.45507812 C56.93361816 101.12824066 56.60893555 101.8014032 56.27441406 102.4949646 C54.64593128 105.77050338 53.71012711 107.34526682 50.59814453 109.41992188 C48.14505005 109.70080566 48.14505005 109.70080566 45.19628906 109.7421875 C44.091492 109.76140259 42.98669495 109.78061768 41.84841919 109.80041504 C40.05777542 109.81316467 40.05777542 109.81316467 38.23095703 109.82617188 C37.00408173 109.83757202 35.77720642 109.84897217 34.51315308 109.86071777 C31.91570489 109.87962256 29.31820868 109.89268766 26.72070312 109.90039062 C22.74540689 109.91981311 18.77217429 109.9818531 14.79736328 110.04492188 C12.27524016 110.05798105 9.75310224 110.06848234 7.23095703 110.07617188 C6.04124298 110.10086548 4.85152893 110.12555908 3.62576294 110.15100098 C-4.55004338 110.10683507 -4.55004338 110.10683507 -8.33276367 107.05639648 C-9.37731934 105.40145874 -9.37731934 105.40145874 -10.40185547 103.41992188 C-10.84049927 102.64476227 -11.27914307 101.86960266 -11.7310791 101.07095337 C-13.26737229 98.27088373 -14.71032581 95.43593542 -16.14013672 92.58007812 C-16.92858223 91.01959999 -16.92858223 91.01959999 -17.73295593 89.42759705 C-18.83709146 87.23514003 -19.93701419 85.04055692 -21.03295898 82.84399414 C-22.71093909 79.48925215 -24.41205216 76.14693984 -26.11474609 72.8046875 C-27.18714141 70.66803572 -28.25815245 68.53068849 -29.32763672 66.39257812 C-29.83692215 65.39758804 -30.34620758 64.40259796 -30.8709259 63.37745667 C-33.39854079 58.25482858 -35.33890206 54.25899084 -34.40185547 48.41992188 C-33.09179688 45.32470703 -33.09179688 45.32470703 -31.25341797 42.20898438 C-30.76084251 41.35963066 -30.76084251 41.35963066 -30.25831604 40.49311829 C-29.19541285 38.66825429 -28.11177327 36.8567678 -27.02685547 35.04492188 C-26.29028358 33.79120983 -25.55501899 32.53672883 -24.82104492 31.28149414 C-23.36621938 28.79856855 -21.90324987 26.3207623 -20.43261719 23.84716797 C-18.67374933 20.87878771 -16.9380124 17.89934293 -15.21826172 14.90820312 C-14.34229282 13.39108362 -13.46602125 11.8741388 -12.58935547 10.35742188 C-12.20021973 9.6808252 -11.81108398 9.00422852 -11.41015625 8.30712891 C-6.57350115 0.05687397 -6.57350115 0.05687397 0 0 Z M-7.14794922 21.43774414 C-9.1708618 25.61189309 -10.81921447 29.78483022 -12.21679688 34.20703125 C-13.88964662 38.74240469 -16.43852046 42.56563851 -19.13305664 46.55957031 C-20.84836447 50.42652172 -20.46942899 52.3325412 -19.40185547 56.41992188 C-18.08366721 59.65730959 -16.53004432 62.74778847 -14.92919922 65.85351562 C-14.53704224 66.63279419 -14.14488525 67.41207275 -13.74084473 68.21496582 C-12.28465604 71.10134735 -10.81098563 73.97888258 -9.33935547 76.85742188 C-6.05998047 83.31304687 -2.78060547 89.76867187 0.59814453 96.41992188 C15.11814453 96.41992188 29.63814453 96.41992188 44.59814453 96.41992188 C53.01199068 80.48733102 53.01199068 80.48733102 61.28564453 64.48242188 C61.82125 63.45697266 62.35685547 62.43152344 62.90869141 61.375 C63.40820312 60.39080078 63.90771484 59.40660156 64.42236328 58.39257812 C64.86668701 57.52898682 65.31101074 56.66539551 65.76879883 55.77563477 C66.7454177 53.00160018 66.68916699 52.11873328 65.59814453 49.41992188 C64.58906054 47.4022836 63.52579213 45.41144185 62.43017578 43.43945312 C62.1128801 42.86716476 61.79558441 42.2948764 61.46867371 41.70524597 C60.79591586 40.49453707 60.12083843 39.28511456 59.44360352 38.0769043 C58.42561307 36.25915015 57.416613 34.43663341 56.40869141 32.61328125 C55.10618359 30.25822458 53.76747658 27.94086009 52.39941406 25.62133789 C50.59814453 22.41992188 50.59814453 22.41992188 49.52734375 19.62280273 C48.20367604 16.61821547 47.31891694 15.30468267 44.59814453 13.41992188 C37.64730715 11.32769338 30.29517811 11.37910949 23.09814453 11.35742188 C21.58832504 11.33911316 21.58832504 11.33911316 20.04800415 11.32043457 C4.1539573 11.27519816 4.1539573 11.27519816 -7.14794922 21.43774414 Z " fill="#FEFBFC" transform="translate(156.40185546875,306.580078125)"></path><path d="M0 0 C27.39 0 54.78 0 83 0 C88.61 10.56 94.22 21.12 100 32 C105.5033565 42.03080009 105.5033565 42.03080009 111.0546875 52.03417969 C112 54 112 54 113 58 C105.08 58 97.16 58 89 58 C87.0509375 54.473125 87.0509375 54.473125 85.0625 50.875 C78.52922969 38.22501311 78.52922969 38.22501311 70 27 C62.62934107 26.25497863 55.15145688 26.24167027 47.7492075 26.08887386 C44.32248261 26.01682615 40.90279595 25.91470784 37.47973633 25.73803711 C23.07995219 24.36858883 23.07995219 24.36858883 9.80175781 28.48834229 C5.81214733 32.69896496 3.87182953 37.59896219 2 43 C1.38299735 44.52088661 0.75289153 46.03652751 0.109375 47.54638672 C-0.17188232 48.21572235 -0.45313965 48.88505798 -0.74291992 49.57467651 C-2.32585868 53.02977003 -3.76251011 55.88504404 -7 58 C-14.82966889 59.83069305 -23.08738061 58.91418461 -31 58 C-29.46443727 53.91795443 -27.55427086 50.09335329 -25.5078125 46.25 C-25.16176971 45.59660645 -24.81572693 44.94321289 -24.459198 44.27001953 C-23.72245626 42.88082806 -22.9843986 41.49233379 -22.24511719 40.10449219 C-21.15911358 38.06409308 -20.07923903 36.02054565 -19 33.9765625 C-12.89954717 22.49721577 -6.45887188 11.30302579 0 0 Z " fill="#E13675" transform="translate(298,192)"></path><path d="M0 0 C7.92099954 -1.82045955 16.31025868 -3.20783655 24 0 C31.06180528 6.91546607 35.31939842 16.23398404 39.47973633 25.08911133 C40.87233422 27.75555498 41.66190574 29.19865171 44 31 C46.53177894 31.46213319 46.53177894 31.46213319 49.41772461 31.40405273 C50.52574936 31.41673691 51.63377411 31.42942108 52.77537537 31.44248962 C53.97227493 31.43955399 55.1691745 31.43661835 56.40234375 31.43359375 C57.63159073 31.4388356 58.86083771 31.44407745 60.12733459 31.44947815 C63.39580832 31.45755422 66.66386398 31.45041949 69.93231201 31.43914795 C73.25122164 31.43642033 76.56988577 31.47159501 79.88867188 31.49804688 C82.41406207 31.49965903 84.93945481 31.49908108 87.46484375 31.49609375 C89.25715675 31.51294472 89.25715675 31.51294472 91.0856781 31.53013611 C92.19685501 31.52075516 93.30803192 31.51137421 94.45288086 31.50170898 C95.42978378 31.50154282 96.40668671 31.50137665 97.41319275 31.50120544 C100.74413937 30.85581968 101.88628069 29.59966443 104 27 C105.08518893 24.93614797 106.09475683 22.83164355 107.046875 20.703125 C116.21321628 1.54278586 116.21321628 1.54278586 123.09570312 -1.26123047 C130.15006952 -2.3662194 137.06300249 -1.52485354 144 0 C142.38765736 5.92169477 139.37115875 10.86153544 136.3125 16.125 C130.25139393 26.68255269 124.46543573 37.36797931 118.76293945 48.12158203 C118.15538818 49.26481934 117.54783691 50.40805664 116.921875 51.5859375 C116.38143555 52.6073584 115.84099609 53.6287793 115.28417969 54.68115234 C114 57 114 57 113 58 C110.44410112 58.09506052 107.91532028 58.12556761 105.35913086 58.11352539 C104.15922264 58.11374443 104.15922264 58.11374443 102.93507385 58.1139679 C100.27830335 58.11326855 97.62160207 58.10547518 94.96484375 58.09765625 C93.12781309 58.09579215 91.29078194 58.09436821 89.45375061 58.09336853 C84.60890338 58.08954275 79.76408592 58.07971196 74.91925049 58.06866455 C69.97937422 58.05845172 65.03949315 58.05387119 60.09960938 58.04882812 C50.39972647 58.03808974 40.69986571 58.0210126 31 58 C30.61321075 57.27817032 30.22642151 56.55634064 29.82791138 55.81263733 C28.35645304 53.06834028 26.88362481 50.32478371 25.40994263 47.5816803 C24.47320542 45.83710393 23.53797112 44.09172084 22.6027832 42.34631348 C17.93293879 33.65718867 13.11412302 25.06219255 8.19146729 16.5140686 C5.09934874 11.14183004 2.38750493 5.72111756 0 0 Z " fill="#D82F6E" transform="translate(267,288)"></path><path d="M0 0 C7.92330363 -1.52333666 16.23498068 -2.70801202 24 0 C30.13394815 5.28463225 33.12252147 13.33468532 36.38476562 20.56933594 C39.00815024 26.14125261 42.20500932 31.3515025 45.375 36.625 C46.53447002 38.60749526 47.69083376 40.59181124 48.84375 42.578125 C50.35649507 45.17736203 51.86938627 47.77648495 53.38671875 50.37304688 C54.55370325 52.37128342 55.71537055 54.37248926 56.875 56.375 C57.79925781 57.96441406 57.79925781 57.96441406 58.7421875 59.5859375 C60 62 60 62 60 64 C52.37285378 65.75941662 44.44813162 66.94102548 37 64 C30.36418745 57.8774177 26.71866578 48.88081639 22.88378906 40.83300781 C19.91864107 34.68126948 16.35323232 28.87059003 12.875 23 C8.46531199 15.39599424 4.17432148 7.7357239 0 0 Z " fill="#D12869" transform="translate(101,186)"></path><path d="M0 0 C3.67375374 0.38414722 7.22266729 0.94373191 10.8125 1.8125 C9.44400275 5.45144928 7.80789358 8.7449108 5.86328125 12.109375 C4.97201538 13.65455811 4.97201538 13.65455811 4.06274414 15.23095703 C3.42328857 16.33036621 2.78383301 17.42977539 2.125 18.5625 C1.46814209 19.69671387 0.81128418 20.83092773 0.13452148 21.99951172 C-6.83902695 34.01700261 -13.99491013 45.9250685 -21.1875 57.8125 C-25.15082753 54.21439624 -27.11355666 49.59114607 -29.5 44.875 C-29.98017578 43.96814453 -30.46035156 43.06128906 -30.95507812 42.12695312 C-31.39916016 41.25103516 -31.84324219 40.37511719 -32.30078125 39.47265625 C-32.71110596 38.67480713 -33.12143066 37.87695801 -33.54418945 37.05493164 C-34.1875 34.8125 -34.1875 34.8125 -33.5246582 32.94213867 C-33.083396 32.23935791 -32.64213379 31.53657715 -32.1875 30.8125 C-31.40028564 29.26997559 -31.40028564 29.26997559 -30.59716797 27.69628906 C-15.55904689 -1.03556707 -15.55904689 -1.03556707 0 0 Z " fill="#D92F6F" transform="translate(246.1875,184.1875)"></path><path d="M0 0 C12.87 0 25.74 0 39 0 C40.60875 3.0525 42.2175 6.105 43.875 9.25 C44.3788623 10.20551758 44.88272461 11.16103516 45.40185547 12.14550781 C45.80291504 12.90702148 46.20397461 13.66853516 46.6171875 14.453125 C47.02565918 15.22817383 47.43413086 16.00322266 47.85498047 16.80175781 C48.23283691 17.52717773 48.61069336 18.25259766 49 19 C49.37914551 19.6919043 49.75829102 20.38380859 50.14892578 21.09667969 C51 23 51 23 51 26 C38.79 26 26.58 26 14 26 C11.875625 22.266875 9.75125 18.53375 7.5625 14.6875 C6.8929126 13.51405029 6.2233252 12.34060059 5.53344727 11.1315918 C5.00807373 10.20515869 4.4827002 9.27872559 3.94140625 8.32421875 C3.40201416 7.37635498 2.86262207 6.42849121 2.30688477 5.4519043 C1 3 1 3 0 0 Z " fill="#D42C6C" transform="translate(162,224)"></path></svg>