<svg version="1.1" xmlns="http://www.w3.org/2000/svg" width="16px" height="16px" fill="currentColor" viewBox="0 0 512 512"><path d="M0 0 C168.96 0 337.92 0 512 0 C512 168.96 512 337.92 512 512 C343.04 512 174.08 512 0 512 C0 343.04 0 174.08 0 0 Z " fill="#DD2C33" transform="translate(0,0)"></path><path d="M0 0 C1.13248924 -0.01710022 1.13248924 -0.01710022 2.28785706 -0.0345459 C3.88382442 -0.05336755 5.47986814 -0.06648262 7.07592773 -0.07421875 C9.46679894 -0.0934515 11.85408839 -0.1554701 14.24414062 -0.21875 C29.89800848 -0.43319906 42.09872338 4.07911591 53.69140625 14.84375 C54.86703125 16.1121875 54.86703125 16.1121875 56.06640625 17.40625 C56.54851562 17.88320312 57.030625 18.36015625 57.52734375 18.8515625 C63.94312935 25.59302249 68.20748414 35.43976882 68.17993164 44.80761719 C68.17985611 45.6682074 68.17978058 46.52879761 68.17970276 47.41546631 C68.17454147 48.33539368 68.16938019 49.25532104 68.1640625 50.203125 C68.16194008 51.62628021 68.16194008 51.62628021 68.15977478 53.07818604 C68.15418367 56.10423962 68.14163277 59.13021883 68.12890625 62.15625 C68.1238901 64.20963435 68.1193274 66.26301986 68.11523438 68.31640625 C68.10421714 73.34638276 68.08695858 78.37630378 68.06640625 83.40625 C69.04867187 83.3748291 69.04867187 83.3748291 70.05078125 83.34277344 C73.05582953 83.25894617 76.06063089 83.20738105 79.06640625 83.15625 C80.09636719 83.12273437 81.12632812 83.08921875 82.1875 83.0546875 C89.87304348 82.95678249 95.28867621 84.07295879 101.125 89.22265625 C101.58003906 89.79886719 102.03507813 90.37507813 102.50390625 90.96875 C102.97699219 91.54753906 103.45007813 92.12632812 103.9375 92.72265625 C106.17966628 96.06650977 106.19698132 99.05123097 106.21357727 102.95219421 C106.22431023 104.68276817 106.22431023 104.68276817 106.23526001 106.44830322 C106.23794891 107.71535095 106.24063782 108.98239868 106.2434082 110.2878418 C106.24967437 111.63489456 106.2563213 112.9819456 106.26332092 114.32899475 C106.284349 118.75447387 106.29472347 123.17995328 106.3046875 127.60546875 C106.3087358 129.13047618 106.31285274 130.65548343 106.31703758 132.18049049 C106.33608805 139.34698201 106.35031828 146.51346325 106.35864955 153.67997521 C106.36841593 161.94395016 106.39472017 170.20765684 106.43515044 178.47153729 C106.46534825 184.86402888 106.48012197 191.25644373 106.48343056 197.64900523 C106.48577727 201.4644806 106.49468756 205.27966933 106.51989174 209.09506798 C106.54324139 212.68780769 106.54737843 216.28007345 106.53713036 219.87286949 C106.53640209 221.81080571 106.55544572 223.74871823 106.57519531 225.68655396 C106.52926574 233.41101577 105.93031545 239.4924839 100.25 245.24609375 C99.67378906 245.60832031 99.09757813 245.97054687 98.50390625 246.34375 C97.63572266 246.91416016 97.63572266 246.91416016 96.75 247.49609375 C92.9575338 249.5463133 89.72820327 249.54055391 85.49543762 249.56015015 C84.82473273 249.5645324 84.15402785 249.56891465 83.46299857 249.5734297 C81.21076247 249.58680691 78.95856549 249.59299414 76.70629883 249.59912109 C75.09323958 249.60702297 73.48018209 249.61529197 71.86712646 249.62390137 C66.56508063 249.65011357 61.26302694 249.66542911 55.9609375 249.6796875 C54.13504214 249.68504768 52.30914683 249.69042519 50.48325157 249.69581985 C42.88701594 249.71744821 35.29078244 249.73618421 27.69452381 249.74744225 C16.81232417 249.76367679 5.93048185 249.79684299 -4.95158309 249.85384309 C-12.60520849 249.89256401 -20.25873842 249.91207753 -27.91245919 249.91736281 C-32.48250917 249.92101358 -37.05217798 249.93300537 -41.62212181 249.96546555 C-45.92404865 249.99558384 -50.22536443 250.00184478 -54.52737427 249.99008179 C-56.10273328 249.98986136 -57.67812096 249.99814104 -59.25338173 250.01573563 C-74.9618612 250.1815797 -74.9618612 250.1815797 -80.93359375 244.40625 C-84.73312633 239.53505438 -86.05362914 235.96501511 -86.0874939 229.86030579 C-86.09609436 228.70658981 -86.10469482 227.55287384 -86.11355591 226.36419678 C-86.11781586 225.09714905 -86.12207581 223.83010132 -86.12646484 222.5246582 C-86.13436807 221.17760508 -86.14263716 219.83055406 -86.15124512 218.48350525 C-86.17744332 214.05803442 -86.19277217 209.63255425 -86.20703125 205.20703125 C-86.21239214 203.68202394 -86.21776966 202.1570167 -86.2231636 200.63200951 C-86.24479055 194.28650005 -86.26352568 187.9409931 -86.274786 181.59545612 C-86.29101503 172.51042838 -86.32416905 163.42582899 -86.38118684 154.34096271 C-86.41993457 147.94847339 -86.43942447 141.55609841 -86.44470656 135.16349477 C-86.44835392 131.34794566 -86.46030842 127.53285366 -86.4928093 123.71743202 C-86.52297513 120.1246209 -86.52917217 116.5325414 -86.51742554 112.93963051 C-86.51710104 111.00166582 -86.54151093 109.06374571 -86.56680298 107.12594604 C-86.51551971 99.92639015 -85.7771576 94.9189542 -80.93359375 89.40625 C-76.25702436 85.07186861 -72.68650742 83.14292113 -66.29296875 83.2109375 C-65.22304687 83.21738281 -64.153125 83.22382813 -63.05078125 83.23046875 C-61.38402344 83.25560547 -61.38402344 83.25560547 -59.68359375 83.28125 C-57.99363281 83.29478516 -57.99363281 83.29478516 -56.26953125 83.30859375 C-53.4906701 83.33214342 -50.71223985 83.3650332 -47.93359375 83.40625 C-47.95454102 82.16649414 -47.97548828 80.92673828 -47.99707031 79.64941406 C-48.07011871 74.99767865 -48.11562671 70.34599267 -48.15332031 65.69384766 C-48.17328935 63.69017986 -48.20047438 61.68656922 -48.23535156 59.68310547 C-48.49714118 44.24521793 -47.65414034 32.06726194 -37.93359375 19.40625 C-37.31871094 18.58125 -36.70382813 17.75625 -36.0703125 16.90625 C-30.28836841 10.14126971 -22.23618831 5.42809523 -13.93359375 2.40625 C-13.06250977 2.06835449 -12.19142578 1.73045898 -11.29394531 1.38232422 C-7.48603837 0.27624954 -3.93171806 0.04710616 0 0 Z " fill="#DE2E35" transform="translate(245.93359375,76.59375)"></path><path d="M0 0 C1.13248924 -0.01710022 1.13248924 -0.01710022 2.28785706 -0.0345459 C3.88382442 -0.05336755 5.47986814 -0.06648262 7.07592773 -0.07421875 C9.46679894 -0.0934515 11.85408839 -0.1554701 14.24414062 -0.21875 C29.89800848 -0.43319906 42.09872338 4.07911591 53.69140625 14.84375 C54.86703125 16.1121875 54.86703125 16.1121875 56.06640625 17.40625 C56.54851562 17.88320312 57.030625 18.36015625 57.52734375 18.8515625 C63.94312935 25.59302249 68.20748414 35.43976882 68.17993164 44.80761719 C68.17985611 45.6682074 68.17978058 46.52879761 68.17970276 47.41546631 C68.17454147 48.33539368 68.16938019 49.25532104 68.1640625 50.203125 C68.16194008 51.62628021 68.16194008 51.62628021 68.15977478 53.07818604 C68.15418367 56.10423962 68.14163277 59.13021883 68.12890625 62.15625 C68.1238901 64.20963435 68.1193274 66.26301986 68.11523438 68.31640625 C68.10421714 73.34638276 68.08695858 78.37630378 68.06640625 83.40625 C69.04867187 83.3748291 69.04867187 83.3748291 70.05078125 83.34277344 C73.05582953 83.25894617 76.06063089 83.20738105 79.06640625 83.15625 C80.09636719 83.12273437 81.12632812 83.08921875 82.1875 83.0546875 C89.87304348 82.95678249 95.28867621 84.07295879 101.125 89.22265625 C101.58003906 89.79886719 102.03507813 90.37507813 102.50390625 90.96875 C102.97699219 91.54753906 103.45007813 92.12632812 103.9375 92.72265625 C106.17966628 96.06650977 106.19698132 99.05123097 106.21357727 102.95219421 C106.22431023 104.68276817 106.22431023 104.68276817 106.23526001 106.44830322 C106.23794891 107.71535095 106.24063782 108.98239868 106.2434082 110.2878418 C106.24967437 111.63489456 106.2563213 112.9819456 106.26332092 114.32899475 C106.284349 118.75447387 106.29472347 123.17995328 106.3046875 127.60546875 C106.3087358 129.13047618 106.31285274 130.65548343 106.31703758 132.18049049 C106.33608805 139.34698201 106.35031828 146.51346325 106.35864955 153.67997521 C106.36841593 161.94395016 106.39472017 170.20765684 106.43515044 178.47153729 C106.46534825 184.86402888 106.48012197 191.25644373 106.48343056 197.64900523 C106.48577727 201.4644806 106.49468756 205.27966933 106.51989174 209.09506798 C106.54324139 212.68780769 106.54737843 216.28007345 106.53713036 219.87286949 C106.53640209 221.81080571 106.55544572 223.74871823 106.57519531 225.68655396 C106.52926574 233.41101577 105.93031545 239.4924839 100.25 245.24609375 C99.67378906 245.60832031 99.09757813 245.97054687 98.50390625 246.34375 C97.63572266 246.91416016 97.63572266 246.91416016 96.75 247.49609375 C92.9575338 249.5463133 89.72820327 249.54055391 85.49543762 249.56015015 C84.82473273 249.5645324 84.15402785 249.56891465 83.46299857 249.5734297 C81.21076247 249.58680691 78.95856549 249.59299414 76.70629883 249.59912109 C75.09323958 249.60702297 73.48018209 249.61529197 71.86712646 249.62390137 C66.56508063 249.65011357 61.26302694 249.66542911 55.9609375 249.6796875 C54.13504214 249.68504768 52.30914683 249.69042519 50.48325157 249.69581985 C42.88701594 249.71744821 35.29078244 249.73618421 27.69452381 249.74744225 C16.81232417 249.76367679 5.93048185 249.79684299 -4.95158309 249.85384309 C-12.60520849 249.89256401 -20.25873842 249.91207753 -27.91245919 249.91736281 C-32.48250917 249.92101358 -37.05217798 249.93300537 -41.62212181 249.96546555 C-45.92404865 249.99558384 -50.22536443 250.00184478 -54.52737427 249.99008179 C-56.10273328 249.98986136 -57.67812096 249.99814104 -59.25338173 250.01573563 C-74.9618612 250.1815797 -74.9618612 250.1815797 -80.93359375 244.40625 C-84.73312633 239.53505438 -86.05362914 235.96501511 -86.0874939 229.86030579 C-86.09609436 228.70658981 -86.10469482 227.55287384 -86.11355591 226.36419678 C-86.11781586 225.09714905 -86.12207581 223.83010132 -86.12646484 222.5246582 C-86.13436807 221.17760508 -86.14263716 219.83055406 -86.15124512 218.48350525 C-86.17744332 214.05803442 -86.19277217 209.63255425 -86.20703125 205.20703125 C-86.21239214 203.68202394 -86.21776966 202.1570167 -86.2231636 200.63200951 C-86.24479055 194.28650005 -86.26352568 187.9409931 -86.274786 181.59545612 C-86.29101503 172.51042838 -86.32416905 163.42582899 -86.38118684 154.34096271 C-86.41993457 147.94847339 -86.43942447 141.55609841 -86.44470656 135.16349477 C-86.44835392 131.34794566 -86.46030842 127.53285366 -86.4928093 123.71743202 C-86.52297513 120.1246209 -86.52917217 116.5325414 -86.51742554 112.93963051 C-86.51710104 111.00166582 -86.54151093 109.06374571 -86.56680298 107.12594604 C-86.51551971 99.92639015 -85.7771576 94.9189542 -80.93359375 89.40625 C-76.25702436 85.07186861 -72.68650742 83.14292113 -66.29296875 83.2109375 C-65.22304687 83.21738281 -64.153125 83.22382813 -63.05078125 83.23046875 C-61.38402344 83.25560547 -61.38402344 83.25560547 -59.68359375 83.28125 C-57.99363281 83.29478516 -57.99363281 83.29478516 -56.26953125 83.30859375 C-53.4906701 83.33214342 -50.71223985 83.3650332 -47.93359375 83.40625 C-47.95454102 82.16649414 -47.97548828 80.92673828 -47.99707031 79.64941406 C-48.07011871 74.99767865 -48.11562671 70.34599267 -48.15332031 65.69384766 C-48.17328935 63.69017986 -48.20047438 61.68656922 -48.23535156 59.68310547 C-48.49714118 44.24521793 -47.65414034 32.06726194 -37.93359375 19.40625 C-37.31871094 18.58125 -36.70382813 17.75625 -36.0703125 16.90625 C-30.28836841 10.14126971 -22.23618831 5.42809523 -13.93359375 2.40625 C-13.06250977 2.06835449 -12.19142578 1.73045898 -11.29394531 1.38232422 C-7.48603837 0.27624954 -3.93171806 0.04710616 0 0 Z M-71.80749512 97.5912466 C-73.35966632 100.09297773 -73.31398769 101.88809171 -73.3212738 104.82725525 C-73.33117844 105.95309525 -73.34108307 107.07893524 -73.35128784 108.2388916 C-73.34678619 109.47482056 -73.34228455 110.71074951 -73.33764648 111.98413086 C-73.34450974 113.28512222 -73.35137299 114.58611359 -73.35844421 115.92652893 C-73.37641089 119.49682514 -73.37520069 123.06687606 -73.36950183 126.63720393 C-73.36641483 129.61690407 -73.37249699 132.59655675 -73.37854058 135.57625014 C-73.39259587 142.60547957 -73.39101638 149.63458749 -73.37963867 156.66381836 C-73.36815761 163.91720827 -73.38223034 171.17022844 -73.40903515 178.42356962 C-73.43118254 184.64956994 -73.43783169 190.87545411 -73.43195873 197.10149103 C-73.42858545 200.82067469 -73.43102843 204.53962134 -73.44820976 208.2587719 C-73.46653069 212.40574479 -73.45250186 216.55199702 -73.43530273 220.69897461 C-73.4449707 221.93287933 -73.45463867 223.16678406 -73.46459961 224.43807983 C-73.45476547 225.56673965 -73.44493134 226.69539948 -73.43479919 227.85826111 C-73.43458991 228.83883956 -73.43438063 229.81941801 -73.434165 230.82971096 C-72.76937166 234.25153351 -71.76488358 235.3949448 -68.93359375 237.40625 C-65.90792318 238.00723556 -65.90792318 238.00723556 -62.48120117 237.91418457 C-61.83540446 237.92042453 -61.18960775 237.9266645 -60.52424145 237.93309355 C-58.36214278 237.94903767 -56.20116935 237.93641519 -54.0390625 237.92382812 C-52.48832542 237.92924867 -50.9375935 237.93637095 -49.38687134 237.94506836 C-45.17610183 237.96331291 -40.96572407 237.95622966 -36.75494766 237.94355202 C-32.34988595 237.93343015 -27.94485794 237.94281543 -23.53979492 237.94909668 C-16.14202853 237.95637547 -8.74442184 237.94677935 -1.34667969 237.92773438 C7.20809508 237.90596513 15.76248854 237.91301634 24.31725407 237.93504 C31.66004483 237.95318744 39.00272075 237.95575555 46.3455267 237.94528532 C50.73201181 237.93904676 55.11831764 237.93822465 59.50479126 237.95143127 C63.62861622 237.96297969 67.75194921 237.95498291 71.87572098 237.93185425 C73.38983976 237.9265617 74.90399989 237.92809031 76.41810226 237.93690491 C78.48396637 237.94782354 80.54825049 237.93414485 82.61401367 237.91418457 C83.77027756 237.91267647 84.92654144 237.91116837 86.11784363 237.90961456 C89.13795563 237.6134085 89.13795563 237.6134085 91.43793488 235.7212534 C93.44196273 232.87236618 93.56901223 231.32294514 93.57434082 227.85826111 C93.58562012 226.72960129 93.59689941 225.60094147 93.60852051 224.43807983 C93.60042358 223.20417511 93.59232666 221.97027039 93.58398438 220.69897461 C93.59099365 219.39623093 93.59800293 218.09348724 93.60522461 216.75126648 C93.62345507 213.18101636 93.61639244 209.61122874 93.60370827 206.04097056 C93.59358112 202.30542298 93.60297294 198.56991499 93.60925293 194.83436584 C93.6165293 188.56227507 93.6069411 182.29037272 93.58789062 176.01831055 C93.56611224 168.76429787 93.57318 161.51073471 93.59519625 154.25673288 C93.61333937 148.02986612 93.61591425 141.80313478 93.60544157 135.57625014 C93.59920179 131.85656936 93.59838426 128.13710002 93.61158752 124.41743279 C93.62527211 120.27272721 93.60631437 116.12879871 93.58398438 111.98413086 C93.5920813 110.7482019 93.60017822 109.51227295 93.60852051 108.2388916 C93.59724121 107.11305161 93.58596191 105.98721161 93.57434082 104.82725525 C93.57283272 103.84705382 93.57132462 102.8668524 93.56977081 101.8569479 C93.26290202 99.31905388 93.26290202 99.31905388 91.44072819 97.5912466 C88.33605224 96.04173876 86.039339 96.02866823 82.56932068 96.02529907 C81.91873485 96.0206191 81.26814902 96.01593913 80.59784847 96.01111734 C78.41976074 95.99915954 76.24230129 96.00862705 74.06420898 96.01806641 C72.50200025 96.01400107 70.9397944 96.00865941 69.37759399 96.00213623 C65.13595753 95.98845333 60.89453982 95.99376496 56.6528995 96.00327349 C52.21667814 96.0108637 47.78047563 96.00382638 43.34425354 95.99911499 C35.89523959 95.99365614 28.44631486 96.00085302 20.99731445 96.01513672 C12.38009321 96.03146949 3.76308482 96.02617073 -4.85413128 96.0096575 C-12.248696 95.99605344 -19.64319655 95.99411749 -27.03776973 96.00197351 C-31.45605297 96.00665521 -35.87423606 96.00726115 -40.29251289 95.99736404 C-44.44498181 95.98871212 -48.59717559 95.99468358 -52.74961472 96.01204681 C-54.2754451 96.01602093 -55.80129855 96.01486184 -57.32711983 96.00825882 C-59.40622539 96.00008943 -61.48444319 96.01030754 -63.56349182 96.02529907 C-64.72805184 96.02643015 -65.89261187 96.02756123 -67.09246159 96.02872658 C-69.89616532 96.19961583 -69.89616532 96.19961583 -71.80749512 97.5912466 Z " fill="#FEFBFB" transform="translate(245.93359375,76.59375)"></path><path d="M0 0 C1.62094926 0.00747666 3.24190767 0.01316284 4.86286926 0.01715088 C9.09296398 0.03229532 13.32249391 0.07147767 17.55236816 0.1159668 C21.88314172 0.1571637 26.21400811 0.1752136 30.54492188 0.1953125 C39.01588183 0.23798525 47.48638594 0.30609728 55.95703125 0.390625 C55.95703125 4.680625 55.95703125 8.970625 55.95703125 13.390625 C52.74823242 13.40464355 52.74823242 13.40464355 49.47460938 13.41894531 C42.38577487 13.45279868 35.29722892 13.50839379 28.20862579 13.57452774 C23.91315746 13.61394137 19.61789225 13.64615962 15.32226562 13.66162109 C11.17229227 13.67682827 7.02287756 13.71134491 2.87315369 13.75893402 C1.29447806 13.77370617 -0.28427734 13.78166362 -1.86302185 13.78250885 C-13.55313599 13.67967365 -13.55313599 13.67967365 -24.04296875 18.390625 C-26.57362358 22.18660725 -26.32748125 25.21633048 -26.31039429 29.61422729 C-26.3149254 30.46264163 -26.31945651 31.31105597 -26.32412493 32.18517983 C-26.33682302 35.03870982 -26.33514509 37.89205028 -26.33349609 40.74560547 C-26.33947797 42.78717292 -26.34628272 44.82873811 -26.35385132 46.87030029 C-26.37155319 52.4240123 -26.37620846 57.97766272 -26.37748289 63.5314002 C-26.37937952 68.16373795 -26.38673434 72.79606127 -26.39382708 77.42839348 C-26.41012454 88.35542728 -26.41499479 99.28242811 -26.41357422 110.20947266 C-26.41237241 121.49016702 -26.43347901 132.77067018 -26.46506155 144.05131614 C-26.4911922 153.72866623 -26.50194286 163.40595375 -26.5006634 173.08333886 C-26.50015282 178.86660039 -26.50588879 184.64969207 -26.5270195 190.43291855 C-26.54634778 195.87154161 -26.54656339 201.30983186 -26.53198624 206.74846649 C-26.52989031 208.74594482 -26.53464542 210.74344368 -26.54670715 212.74088669 C-26.56209491 215.46533713 -26.55289458 218.18863071 -26.53744507 220.91305542 C-26.54773219 221.7057621 -26.55801932 222.49846878 -26.56861818 223.31519687 C-26.5224515 226.99269063 -26.17093538 229.18362196 -24.2201643 232.33925343 C-19.75274076 236.54849667 -14.19345453 236.63880053 -8.31665039 236.59838867 C-6.37412132 236.59430244 -6.37412132 236.59430244 -4.39234924 236.59013367 C-3.70994234 236.58458654 -3.02753544 236.57903942 -2.32444954 236.5733242 C-0.16658213 236.55834 1.99067189 236.56010947 4.14857483 236.56697083 C10.279181 236.58570227 16.40930272 236.59227773 22.53979492 236.54516602 C26.30250927 236.51745745 30.06387773 236.52398902 33.82657051 236.55217934 C35.25180542 236.55641607 36.67713965 236.54807899 38.10221672 236.5264492 C50.59694601 236.34455306 50.59694601 236.34455306 55.37915039 240.43505859 C56.59882486 241.72860173 57.79146906 243.04811822 58.95703125 244.390625 C60.29283437 245.70334778 61.63616959 247.0084431 62.98632812 248.30639648 C64.38538217 249.7056059 65.78178037 251.10747492 67.17578125 252.51171875 C68.29080017 253.62886009 68.29080017 253.62886009 69.42834473 254.76856995 C71.77362426 257.11939245 74.11537961 259.47368931 76.45703125 261.828125 C78.05836086 263.43447699 79.65992123 265.04059897 81.26171875 266.64648438 C85.16282598 270.55854485 89.06105545 274.47345452 92.95703125 278.390625 C92.96637695 277.32626221 92.97572266 276.26189941 92.98535156 275.1652832 C93.02531782 271.20457589 93.09109424 267.24463993 93.16455078 263.28442383 C93.19272211 261.5726108 93.21395577 259.86066863 93.22802734 258.14868164 C93.2495109 255.68308581 93.29618541 253.21903639 93.34765625 250.75390625 C93.34888489 249.99225662 93.35011353 249.23060699 93.35137939 248.44587708 C93.48912787 243.41359021 94.32556096 240.8738266 97.95703125 237.390625 C101.06900501 236.77094173 101.06900501 236.77094173 104.80683899 236.77830505 C105.49543808 236.77277164 106.18403716 236.76723823 106.89350289 236.76153713 C109.20085053 236.74895704 111.50647097 236.77194569 113.8137207 236.79467773 C115.46796053 236.79277394 117.12219907 236.78861879 118.77642822 236.78237915 C122.33916265 236.77358268 125.90141032 236.78035494 129.46410561 236.79903984 C135.09950429 236.82810966 140.73448275 236.82034461 146.36991882 236.80714417 C157.31898009 236.78646709 168.26783867 236.80208362 179.21688843 236.82261658 C193.14280354 236.84774557 207.0686049 236.86060409 220.9945237 236.83266026 C226.59422891 236.82271264 232.1934308 236.83282192 237.79308093 236.85856807 C241.28097348 236.87075641 244.76870961 236.86652792 248.25660706 236.85799026 C249.87107819 236.85745604 251.48556873 236.86377013 253.09998131 236.87753105 C255.3091955 236.89544361 257.51705188 236.88862311 259.72627258 236.8759613 C260.96088887 236.87876822 262.19550516 236.88157515 263.46753407 236.88446712 C268.48283037 236.1746902 272.0124822 234.26117846 275.71218777 230.70225716 C280.60097196 222.7087107 279.64892612 213.33838588 279.58813477 204.30419922 C279.59327782 202.36350857 279.600562 200.42282261 279.6098175 198.48214722 C279.62828795 193.2301346 279.6154213 187.97863145 279.59572721 182.72664022 C279.57930816 177.22328216 279.58815792 171.71995552 279.59324646 166.21658325 C279.597763 156.97812791 279.58192282 147.73987534 279.55395508 138.50146484 C279.5218863 127.82617955 279.52192776 117.15125951 279.53916985 106.47594821 C279.55504041 96.19603775 279.54829915 85.91626098 279.53123283 75.63635635 C279.52436694 71.26568154 279.52539003 66.89511405 279.53277779 62.52444077 C279.54044631 57.37787325 279.52829574 52.2317209 279.50092888 47.08522415 C279.49405068 45.19825218 279.49394101 43.31124139 279.50114441 41.42427063 C279.5098542 38.84528267 279.4938581 36.26757158 279.47169495 33.68869019 C279.4840561 32.57287199 279.4840561 32.57287199 279.49666697 31.43451202 C279.40908996 25.90055262 278.03970513 22.83258289 274.95703125 18.390625 C270.78579146 14.52609285 266.12548565 13.8839006 260.55297852 13.84472656 C259.84969925 13.83438889 259.14641998 13.82405121 258.42182922 13.81340027 C256.12212651 13.78415558 253.82331088 13.7824771 251.5234375 13.78125 C249.91916748 13.76625583 248.31491283 13.74952609 246.7106781 13.73114014 C242.50708273 13.68759276 238.30369555 13.66749574 234.09991455 13.65240479 C229.80281325 13.63278796 225.5059353 13.59082321 221.20898438 13.55078125 C212.79169796 13.47561569 204.37457342 13.42730963 195.95703125 13.390625 C195.95703125 9.100625 195.95703125 4.810625 195.95703125 0.390625 C205.30227478 0.29760182 214.64735687 0.22669714 223.99296379 0.18337631 C228.33336718 0.16257565 232.67345186 0.1343972 237.01367188 0.08886719 C241.20880352 0.04513879 245.40363021 0.02143144 249.59897232 0.01111603 C251.19283976 0.00377275 252.78669208 -0.01056607 254.38042831 -0.03229523 C266.46147338 -0.19033351 276.12635647 0.91960087 285.265625 9.5234375 C291.09642581 15.96021068 292.10487769 22.14669134 292.11766052 30.57348633 C292.12529225 31.82160504 292.12529225 31.82160504 292.13307816 33.09493828 C292.14879365 35.8875093 292.15732542 38.68005445 292.16577148 41.47265625 C292.17531084 43.47345646 292.18520204 45.47425502 292.19541931 47.47505188 C292.22680053 54.05105635 292.24707341 60.62707345 292.265625 67.203125 C292.26892232 68.32264305 292.27221964 69.4421611 292.27561688 70.59560394 C292.30640189 81.15820679 292.33310405 91.72081252 292.35003567 102.28344727 C292.37192948 115.78255072 292.41387369 129.28125579 292.48347324 142.7802 C292.53077341 152.27762726 292.55497743 161.77494727 292.56223255 171.27248859 C292.56718038 176.94150532 292.58217886 182.61007298 292.62197685 188.27896118 C292.65896168 193.61757729 292.66721386 198.95549005 292.65397072 204.29421043 C292.65402447 206.24684659 292.66424122 208.19951486 292.68572235 210.15203285 C292.81008102 222.10052233 292.47376402 232.33623881 283.88480282 241.63381958 C276.81301002 248.30771766 269.8625754 250.51839405 260.28153992 250.51087952 C259.62389942 250.51173394 258.96625891 250.51258837 258.28868991 250.51346868 C256.09306667 250.51511103 253.89752045 250.50962257 251.7019043 250.50415039 C250.12483217 250.50386822 248.54775992 250.50402683 246.97068787 250.5045929 C242.69424931 250.50487972 238.41783881 250.49900152 234.14140677 250.49201894 C229.67042925 250.48576631 225.19945107 250.48518009 220.72846985 250.48399353 C212.26421397 250.48088585 203.79997102 250.47268004 195.33572084 250.46264404 C185.69854697 250.45146543 176.06137248 250.44596804 166.42419374 250.44094861 C146.60179903 250.43049697 126.77941596 250.41290841 106.95703125 250.390625 C106.9659137 250.97056213 106.97479614 251.55049927 106.98394775 252.14801025 C107.07242154 258.18239488 107.13276547 264.21659538 107.17675781 270.25146484 C107.19687681 272.50381961 107.22417533 274.75612213 107.25878906 277.00830078 C107.30729334 280.24524831 107.3299973 283.48150547 107.34765625 286.71875 C107.36830139 287.72617249 107.38894653 288.73359497 107.41021729 289.77154541 C107.41242787 296.65427913 107.41242787 296.65427913 105.30761719 300.05761719 C102.19607275 301.8221615 100.48102319 302.01676499 96.95703125 301.390625 C94.76797485 299.49916077 94.76797485 299.49916077 92.70166016 296.81665039 C91.90526627 295.81903183 91.10887238 294.82141327 90.28834534 293.79356384 C89.86679232 293.2551631 89.4452393 292.71676235 89.01091194 292.16204643 C66.45979266 262.94875731 66.45979266 262.94875731 34.16967773 248.3556366 C20.43242904 247.03851645 6.34226224 247.90231121 -7.31617737 249.71986389 C-17.15371986 250.94562882 -24.54455096 249.27750461 -32.48046875 243.203125 C-36.83443277 239.48862006 -39.46890552 233.78771199 -40.41567528 228.18509007 C-40.55601198 225.9010048 -40.58154326 223.64676805 -40.55763245 221.35852051 C-40.56457797 220.49555123 -40.5715235 219.63258195 -40.5786795 218.74346209 C-40.59685217 215.87623129 -40.58671256 213.00983706 -40.57641602 210.14257812 C-40.58347935 208.07705571 -40.59222611 206.01153848 -40.6025238 203.94602966 C-40.62497927 198.35307628 -40.6220872 192.76040639 -40.61320233 187.16742516 C-40.60808412 182.4929 -40.61539168 177.81842773 -40.62267441 173.14390802 C-40.63966078 162.11493442 -40.63611969 151.08609922 -40.61938477 140.05712891 C-40.60245782 128.68884916 -40.61830896 117.32095324 -40.65060765 105.9527154 C-40.67731623 96.1808954 -40.68457629 86.4091948 -40.67609257 76.63734198 C-40.67116795 70.80595725 -40.6733543 64.97480353 -40.69388008 59.14344788 C-40.71225736 53.66032427 -40.70625299 48.17775237 -40.68168068 42.69465828 C-40.67667968 40.68596229 -40.68014401 38.6772241 -40.69282913 36.66856194 C-40.76250815 24.68435265 -40.74296382 16.00917832 -31.91796875 7.078125 C-22.3752775 -0.26779868 -11.46112077 -0.15679653 0 0 Z " fill="#FEFAFA" transform="translate(130.04296875,133.609375)"></path><path d="M0 0 C2.2151063 -0.0118017 4.42733439 -0.06093369 6.6418457 -0.11157227 C19.71377888 -0.26272949 29.44200348 2.80164638 39.05395508 12.08959961 C54.18639888 28.69363886 48.18286133 46.5224325 48.18286133 70.42553711 C18.48286133 70.42553711 -11.21713867 70.42553711 -41.81713867 70.42553711 C-41.81713867 21.70276483 -41.81713867 21.70276483 -31.32495117 10.69116211 C-21.71917896 2.01305015 -12.57636949 0.0316231 0 0 Z " fill="#E6363C" transform="translate(252.817138671875,89.574462890625)"></path><path d="M0 0 C4 2 4 2 10 9 C-13.43 32.43 -36.86 55.86 -61 80 C-65 78 -65 78 -71 71 C-47.57 47.57 -24.14 24.14 0 0 Z " fill="#FEFCFC" transform="translate(313,204)"></path><path d="M0 0 C4 2 4 2 10 9 C-13.43 32.43 -36.86 55.86 -61 80 C-65 78 -65 78 -71 71 C-47.57 47.57 -24.14 24.14 0 0 Z " fill="#FEFCFC" transform="translate(265,204)"></path></svg>