<svg version="1.1" xmlns="http://www.w3.org/2000/svg" width="16px" height="16px" fill="currentColor" viewBox="0 0 512 512"><path d="M0 0 C168.96 0 337.92 0 512 0 C512 168.96 512 337.92 512 512 C343.04 512 174.08 512 0 512 C0 343.04 0 174.08 0 0 Z " fill="#DF2E35" transform="translate(0,0)"></path><path d="M0 0 C52.47 0 104.94 0 159 0 C159 52.47 159 104.94 159 159 C157.02 159 155.04 159 153 159 C153 163.62 153 168.24 153 173 C212.07 173 271.14 173 332 173 C332 225.47 332 277.94 332 332 C279.53 332 227.06 332 173 332 C173 325.73 173 319.46 173 313 C168.38 313 163.76 313 159 313 C159 319.27 159 325.54 159 332 C106.53 332 54.06 332 0 332 C0 279.53 0 227.06 0 173 C3.96 173 7.92 173 12 173 C12 168.38 12 163.76 12 159 C8.04 159 4.08 159 0 159 C0 106.53 0 54.06 0 0 Z " fill="#DA2830" transform="translate(90,90)"></path><path d="M0 0 C0.72307394 -0.13832611 1.44614787 -0.27665221 2.19113314 -0.41917002 C66.07494254 -12.46774241 137.62094885 -17.81937789 193.95496082 19.66228962 C219.57481634 37.19098462 242.33208047 58.03094365 264.20825195 79.94604492 C264.69013804 80.42707499 265.17202413 80.90810506 265.66851282 81.4037118 C315.67811869 131.33073974 352.92855221 181.90389909 353.14892578 255.38427734 C352.8811639 285.12897383 349.74148792 314.94829732 344.15429688 344.15429688 C344.02045762 344.86096013 343.88661837 345.56762338 343.74872339 346.29570067 C341.36658962 358.62918476 341.36658962 358.62918476 338.02075195 361.13354492 C335.39457417 361.50959241 335.39457417 361.50959241 332.16267395 361.51106834 C330.93239566 361.51889159 329.70211737 361.52671483 328.43455791 361.53477514 C327.06200214 361.52828838 325.68944767 361.52151839 324.31689453 361.51449585 C322.86451013 361.51795044 321.41212835 361.52271367 319.95975208 361.52867758 C315.95889711 361.54124465 311.95825577 361.53499144 307.95739985 361.52571893 C303.64650147 361.51895202 299.33564073 361.52939791 295.02474976 361.53765869 C286.57584617 361.55102351 278.12702237 361.54810608 269.67811561 361.53942077 C262.81369352 361.53265542 255.94929385 361.53172252 249.08486938 361.53499222 C248.10921487 361.53545192 247.13356035 361.53591162 246.12834054 361.53638525 C244.14653833 361.53734439 242.16473613 361.53831703 240.18293393 361.53930302 C221.58398542 361.54786496 202.98508123 361.53801018 184.38613999 361.52190192 C168.41503793 361.50849801 152.44400127 361.51082588 136.47290039 361.5246582 C117.94212485 361.54069983 99.41138817 361.54704092 80.88060665 361.53782141 C78.90594928 361.53686573 76.9312919 361.53592262 74.95663452 361.53499222 C73.98497481 361.53452939 73.01331509 361.53406656 72.01221114 361.53358971 C65.15320169 361.53099556 58.29421682 361.53537995 51.43521118 361.54243088 C43.08042601 361.55083035 34.72572542 361.54859856 26.37094998 361.53258865 C22.10529882 361.52468493 17.83978887 361.5216499 13.57413864 361.5315361 C9.67331064 361.54044029 5.77275548 361.53562138 1.87195241 361.51960345 C0.45679221 361.51623739 -0.95839079 361.51799035 -2.37353647 361.52523081 C-4.28939875 361.53428526 -6.2053251 361.52325105 -8.12117004 361.51106834 C-9.18769711 361.51058129 -10.25422419 361.51009423 -11.35307026 361.50959241 C-13.97924805 361.13354492 -13.97924805 361.13354492 -15.82178271 359.97607958 C-17.47229413 357.34867953 -17.35535836 355.36981433 -17.35677147 352.27546692 C-17.36850633 350.43004948 -17.36850633 350.43004948 -17.38047826 348.54735088 C-17.3739915 347.1747951 -17.36722151 345.80224064 -17.36019897 344.4296875 C-17.36365357 342.9773031 -17.36841679 341.52492132 -17.37438071 340.07254505 C-17.38694777 336.07169007 -17.38069456 332.07104874 -17.37142205 328.07019281 C-17.36465515 323.75929444 -17.37510103 319.4484337 -17.38336182 315.13754272 C-17.39672663 306.68863914 -17.39380921 298.23981534 -17.38512389 289.79090858 C-17.37835854 282.92648649 -17.37742564 276.06208682 -17.38069534 269.19766235 C-17.38115504 268.22200784 -17.38161474 267.24635332 -17.38208837 266.24113351 C-17.38304751 264.2593313 -17.38402015 262.27752909 -17.38500614 260.2957269 C-17.39356809 241.69677839 -17.3837133 223.09787419 -17.36760505 204.49893296 C-17.35420114 188.5278309 -17.356529 172.55679424 -17.37036133 156.58569336 C-17.38640295 138.05491782 -17.39274404 119.52418114 -17.38352454 100.99339962 C-17.38256885 99.01874225 -17.38162574 97.04408487 -17.38069534 95.06942749 C-17.38023252 94.09776778 -17.37976969 93.12610806 -17.37929284 92.12500411 C-17.37669869 85.26599466 -17.38108308 78.40700979 -17.388134 71.54800415 C-17.39653347 63.19321897 -17.39430168 54.83851839 -17.37829177 46.48374295 C-17.37038805 42.21809179 -17.36735302 37.95258184 -17.37723923 33.68693161 C-17.38614342 29.78610361 -17.3813245 25.88554844 -17.36530657 21.98474538 C-17.36194052 20.56958518 -17.36369348 19.15440218 -17.37093394 17.7392565 C-17.37998838 15.82339422 -17.36895417 13.90746787 -17.35677147 11.99162292 C-17.35628441 10.92509585 -17.35579736 9.85856878 -17.35529554 8.75972271 C-16.97924805 6.13354492 -16.97924805 6.13354492 -15.6227172 4.32121295 C-11.33061212 1.21948393 -5.1222402 0.97013222 0 0 Z M-3.97924805 16.13354492 C-3.97924805 68.60354492 -3.97924805 121.07354492 -3.97924805 175.13354492 C-0.01924805 175.13354492 3.94075195 175.13354492 8.02075195 175.13354492 C8.02075195 179.75354492 8.02075195 184.37354492 8.02075195 189.13354492 C4.06075195 189.13354492 0.10075195 189.13354492 -3.97924805 189.13354492 C-3.97924805 241.60354492 -3.97924805 294.07354492 -3.97924805 348.13354492 C48.49075195 348.13354492 100.96075195 348.13354492 155.02075195 348.13354492 C155.02075195 341.86354492 155.02075195 335.59354492 155.02075195 329.13354492 C159.64075195 329.13354492 164.26075195 329.13354492 169.02075195 329.13354492 C169.02075195 335.40354492 169.02075195 341.67354492 169.02075195 348.13354492 C221.49075195 348.13354492 273.96075195 348.13354492 328.02075195 348.13354492 C328.02075195 295.66354492 328.02075195 243.19354492 328.02075195 189.13354492 C268.95075195 189.13354492 209.88075195 189.13354492 149.02075195 189.13354492 C149.02075195 184.51354492 149.02075195 179.89354492 149.02075195 175.13354492 C151.00075195 175.13354492 152.98075195 175.13354492 155.02075195 175.13354492 C155.02075195 122.66354492 155.02075195 70.19354492 155.02075195 16.13354492 C102.55075195 16.13354492 50.08075195 16.13354492 -3.97924805 16.13354492 Z " fill="#FDF8F8" transform="translate(93.979248046875,73.866455078125)"></path><path d="M0 0 C4.59482204 3.93841889 8.97345812 7.83117541 13.2191925 12.10566711 C13.80362678 12.68995253 14.38806106 13.27423795 14.99020547 13.87622899 C16.92855392 15.81526643 18.86331411 17.75784349 20.7980957 19.70043945 C22.19465703 21.0989218 23.59144758 22.49717527 24.9884491 23.8952179 C27.98600501 26.89592522 30.98200263 29.89817662 33.97680092 32.90163612 C38.709255 37.64763936 43.44554508 42.38980192 48.18241882 47.13139343 C58.22874511 57.1888027 68.27082837 67.25044368 78.3125 77.3125 C89.17084003 88.19285504 100.02990454 99.0724811 110.89383572 109.94725388 C115.60634627 114.66475707 120.31640557 119.38469019 125.02462637 124.10647452 C127.94580543 127.03508844 130.8690328 129.96165109 133.79283333 132.88764763 C135.1522685 134.24896187 136.51083551 135.6111437 137.86848831 136.97423553 C139.7152867 138.82820208 141.56510152 140.67910465 143.41572571 142.5292511 C143.95763985 143.0747602 144.49955398 143.62026929 145.05788976 144.18230897 C147.76958494 146.93426341 147.76958494 146.93426341 151 149 C151 149.66 151 150.32 151 151 C101.17 151 51.34 151 0 151 C0 101.17 0 51.34 0 0 Z " fill="#E5363C" transform="translate(262,99)"></path><path d="M0 0 C3.96 0 7.92 0 12 0 C12 6.27 12 12.54 12 19 C8.04 19 4.08 19 0 19 C0 12.73 0 6.46 0 0 Z " fill="#FEFCFC" transform="translate(250,371)"></path><path d="M0 0 C3.96 0 7.92 0 12 0 C12 6.27 12 12.54 12 19 C8.04 19 4.08 19 0 19 C0 12.73 0 6.46 0 0 Z " fill="#FEFCFC" transform="translate(250,339)"></path><path d="M0 0 C3.96 0 7.92 0 12 0 C12 6.27 12 12.54 12 19 C8.04 19 4.08 19 0 19 C0 12.73 0 6.46 0 0 Z " fill="#FEFCFC" transform="translate(250,307)"></path><path d="M0 0 C3.96 0 7.92 0 12 0 C12 6.27 12 12.54 12 19 C8.04 19 4.08 19 0 19 C0 12.73 0 6.46 0 0 Z " fill="#FEFCFC" transform="translate(250,275)"></path><path d="M0 0 C6.27 0 12.54 0 19 0 C19 3.96 19 7.92 19 12 C12.73 12 6.46 12 0 12 C0 8.04 0 4.08 0 0 Z " fill="#FEFCFC" transform="translate(211,250)"></path><path d="M0 0 C6.27 0 12.54 0 19 0 C19 3.96 19 7.92 19 12 C12.73 12 6.46 12 0 12 C0 8.04 0 4.08 0 0 Z " fill="#FEFCFC" transform="translate(179,250)"></path><path d="M0 0 C6.27 0 12.54 0 19 0 C19 3.96 19 7.92 19 12 C12.73 12 6.46 12 0 12 C0 8.04 0 4.08 0 0 Z " fill="#FEFCFC" transform="translate(147,250)"></path><path d="M0 0 C6.27 0 12.54 0 19 0 C19 3.96 19 7.92 19 12 C12.73 12 6.46 12 0 12 C0 8.04 0 4.08 0 0 Z " fill="#FEFCFC" transform="translate(115,250)"></path></svg>