<svg version="1.1" xmlns="http://www.w3.org/2000/svg" width="16px" height="16px" fill="currentColor" viewBox="0 0 512 512"><path d="M0 0 C168.96 0 337.92 0 512 0 C512 168.96 512 337.92 512 512 C343.04 512 174.08 512 0 512 C0 343.04 0 174.08 0 0 Z " fill="#4053D6" transform="translate(0,0)"></path><path d="M0 0 C1.32064453 0.30744141 1.32064453 0.30744141 2.66796875 0.62109375 C29.23237004 7.59804091 52.03572486 26.60450192 65.77734375 49.9921875 C71.86701364 60.76721171 75.44615877 71.95110805 78 84 C78.19464844 84.9075 78.38929688 85.815 78.58984375 86.75 C80.30654372 100.35280357 79.9675417 114.84951903 76 128 C75.6596875 129.20398438 75.319375 130.40796875 74.96875 131.6484375 C66.84887987 158.25747137 48.54015608 180.94639772 23.99609375 194.2265625 C0.57322205 206.21228054 -29.69434452 210.9428781 -55.18359375 203.328125 C-83.96722621 193.68163823 -108.00775626 175.17523142 -121.8125 147.875 C-134.10146223 122.13345557 -135.73331924 94.12411257 -126.8125 67 C-116.02738944 38.52859206 -95.41374716 17.41933335 -67.8515625 4.52734375 C-46.16706159 -4.40317489 -22.70849522 -5.73716389 0 0 Z " fill="#3E4ED1" transform="translate(289,216)"></path><path d="M0 0 C1.62459731 1.37200035 3.2282642 2.76908598 4.8125 4.1875 C5.70582031 4.98671875 6.59914063 5.7859375 7.51953125 6.609375 C16.50829472 15.10784228 23.47999687 25.02684442 28.8125 36.1875 C31.87253211 35.03998796 34.74093932 33.71201334 37.625 32.1875 C46.98300075 27.50849962 57.34110919 26.75904691 67.49609375 29.375 C81.3114501 34.22085855 89.40416912 43.33684179 95.8125 56.1875 C98.38561026 62.10659613 99.30365593 67.77606478 99.8125 74.1875 C100.81796875 74.29835938 101.8234375 74.40921875 102.859375 74.5234375 C119.5759951 76.93432693 134.72975296 87.76664032 144.8515625 100.81640625 C155.4091478 116.24845114 156.91867855 136.4940024 154.31640625 154.6484375 C153.63909988 157.25817165 152.81136352 159.68432395 151.8125 162.1875 C151.46058594 163.1775 151.10867188 164.1675 150.74609375 165.1875 C148.10534043 172.159786 144.76407754 177.63442931 139.8125 183.1875 C139.29042969 183.80238281 138.76835937 184.41726563 138.23046875 185.05078125 C129.01038547 195.16819623 115.13209378 201.18429296 101.61328125 202.109375 C101.01902344 202.13515625 100.42476563 202.1609375 99.8125 202.1875 C98.80753148 199.17259443 98.70914697 197.14568308 98.75 194 C98.75902344 193.09894531 98.76804687 192.19789063 98.77734375 191.26953125 C98.79474609 190.23892578 98.79474609 190.23892578 98.8125 189.1875 C100.24529297 188.85878906 100.24529297 188.85878906 101.70703125 188.5234375 C113.13039769 185.77583911 124.55267775 182.06085827 131.8125 172.1875 C134.05321292 168.28699973 136.001249 164.30346977 137.8125 160.1875 C138.17730469 159.38570312 138.54210937 158.58390625 138.91796875 157.7578125 C143.36447614 144.98138515 142.55624899 126.30189685 136.8125 114.1875 C128.6101063 99.50625355 114.47074146 91.45758059 98.70703125 86.6953125 C97.41483148 86.34894968 96.12042487 86.01074211 94.82421875 85.6796875 C91.28291453 84.75586901 89.0367909 84.14472343 86.8125 81.1875 C86.22265625 78.4375 86.22265625 78.4375 85.875 75.1875 C84.44805068 64.75800866 81.50976527 54.3453153 72.82421875 47.65625 C65.01270934 42.59568647 58.1353135 41.00001314 48.8125 42.1875 C41.56172333 44.64682776 36.19067818 47.91211128 31.8125 54.1875 C29.01379973 55.58685013 26.90751208 55.44015405 23.8125 55.1875 C21.31344468 53.17543011 20.12684644 51.07633012 18.8671875 48.16015625 C18.3422168 46.98042236 18.3422168 46.98042236 17.80664062 45.77685547 C17.25266602 44.52606201 17.25266602 44.52606201 16.6875 43.25 C12.90194615 35.00911657 8.7924169 28.06806989 2.8125 21.1875 C2.12800781 20.39214844 1.44351563 19.59679687 0.73828125 18.77734375 C-7.94956249 9.41502785 -19.38075062 2.84031556 -31.1875 -1.8125 C-31.93257812 -2.10769531 -32.67765625 -2.40289062 -33.4453125 -2.70703125 C-54.2112283 -10.26165653 -76.55560199 -7.27516433 -96.25 1.875 C-114.51600674 11.37809893 -127.82042577 28.77155499 -134.1875 48.1875 C-136.79694198 57.64263286 -137.60122283 66.80434823 -137.63378906 76.57421875 C-137.75689956 82.68629303 -137.75689956 82.68629303 -139.87890625 85.15625 C-142.453327 86.30624506 -144.97459594 87.1644682 -147.6875 87.9375 C-161.90890408 92.50432451 -171.51970847 100.10025156 -178.67578125 113.09375 C-184.65791183 125.33624979 -184.96049558 139.51565795 -181.15234375 152.51953125 C-176.47956853 165.44060605 -166.53322703 176.15703199 -154.18310547 182.16210938 C-149.56784739 184.29302112 -144.89349 186.2665686 -140.1875 188.1875 C-141.25 196.97321429 -141.25 196.97321429 -142.1875 200.1875 C-147.77900007 199.67325582 -151.96958677 198.19582094 -156.9375 195.625 C-157.63415771 195.26929932 -158.33081543 194.91359863 -159.04858398 194.54711914 C-165.20472717 191.32402609 -170.82037715 187.61333992 -176.1875 183.1875 C-177.13302734 182.41212891 -177.13302734 182.41212891 -178.09765625 181.62109375 C-189.65311608 171.1185232 -196.45288487 155.83295631 -197.42578125 140.41015625 C-197.90885067 122.29505285 -193.14824743 105.72636157 -180.4934082 92.34838867 C-172.60010282 84.37293037 -163.582458 79.31224351 -153.1875 75.1875 C-152.5275 75.1875 -151.8675 75.1875 -151.1875 75.1875 C-151.23390625 74.30191406 -151.2803125 73.41632813 -151.328125 72.50390625 C-152.06953891 47.05752183 -141.57415988 24.79441704 -124.36328125 6.39453125 C-90.94788716 -27.50079669 -37.03236124 -28.51783409 0 0 Z " fill="#FAFBFE" transform="translate(280.1875,109.8125)"></path><path d="M0 0 C1.32064453 0.30744141 1.32064453 0.30744141 2.66796875 0.62109375 C29.23237004 7.59804091 52.03572486 26.60450192 65.77734375 49.9921875 C71.86701364 60.76721171 75.44615877 71.95110805 78 84 C78.19464844 84.9075 78.38929688 85.815 78.58984375 86.75 C80.30654372 100.35280357 79.9675417 114.84951903 76 128 C75.6596875 129.20398438 75.319375 130.40796875 74.96875 131.6484375 C66.84887987 158.25747137 48.54015608 180.94639772 23.99609375 194.2265625 C0.57322205 206.21228054 -29.69434452 210.9428781 -55.18359375 203.328125 C-83.96722621 193.68163823 -108.00775626 175.17523142 -121.8125 147.875 C-134.10146223 122.13345557 -135.73331924 94.12411257 -126.8125 67 C-116.02738944 38.52859206 -95.41374716 17.41933335 -67.8515625 4.52734375 C-46.16706159 -4.40317489 -22.70849522 -5.73716389 0 0 Z M-90 34 C-90.70511719 34.62390625 -91.41023438 35.2478125 -92.13671875 35.890625 C-106.31045345 49.14543388 -118.0229673 70.48612591 -119.17700195 89.99169922 C-119.8529326 110.89173197 -119.8529326 110.89173197 -115 131 C-114.75862305 131.64146973 -114.51724609 132.28293945 -114.26855469 132.94384766 C-105.03335662 157.26320256 -87.38496486 175.8341268 -63.74243164 186.67578125 C-41.61465926 196.25564405 -16.24940925 196.87276371 6.33203125 188.45703125 C19.18500312 183.29380711 30.13152353 175.7058986 40 166 C40.77214844 165.24074219 41.54429687 164.48148438 42.33984375 163.69921875 C58.99185429 146.30711886 66.54996753 122.95708739 66.28344727 99.22558594 C65.74562486 78.22412852 58.73907955 59.04332769 45 43 C44.33355469 42.18917969 43.66710937 41.37835938 42.98046875 40.54296875 C29.12330124 24.28888578 8.16147726 13.08512063 -13 10 C-16.94250537 9.73549767 -20.86230649 9.71312648 -24.8125 9.75 C-26.40070557 9.76123901 -26.40070557 9.76123901 -28.02099609 9.77270508 C-51.54431609 10.09615525 -72.58451322 18.13193127 -90 34 Z " fill="#FBFBFE" transform="translate(289,216)"></path><path d="M0 0 C4.29 0 8.58 0 13 0 C13 29.37 13 58.74 13 89 C17.29 89 21.58 89 26 89 C26 93.29 26 97.58 26 102 C-12.28 102 -50.56 102 -90 102 C-90 97.71 -90 93.42 -90 89 C-85.71 89 -81.42 89 -77 89 C-77 74.15 -77 59.3 -77 44 C-72.71 44 -68.42 44 -64 44 C-64 58.85 -64 73.7 -64 89 C-55.42 89 -46.84 89 -38 89 C-38 67.88 -38 46.76 -38 25 C-33.71 25 -29.42 25 -25 25 C-25 46.12 -25 67.24 -25 89 C-16.75 89 -8.5 89 0 89 C0 59.63 0 30.26 0 0 Z " fill="#F8F9FD" transform="translate(291,270)"></path></svg>