<svg version="1.1" xmlns="http://www.w3.org/2000/svg" width="16px" height="16px" fill="currentColor" viewBox="0 0 512 512"><path d="M0 0 C168.96 0 337.92 0 512 0 C512 168.96 512 337.92 512 512 C343.04 512 174.08 512 0 512 C0 343.04 0 174.08 0 0 Z " fill="#DD2C33" transform="translate(0,0)"></path><path d="M0 0 C0.98613281 0.50660156 1.97226562 1.01320313 2.98828125 1.53515625 C37.74551614 19.9707476 64.64636884 50.7850237 76.47265625 88.55078125 C76.92753042 90.09394349 77.37435691 91.63950424 77.8125 93.1875 C78.0074707 93.87505371 78.20244141 94.56260742 78.40332031 95.27099609 C81.49702513 106.91740339 82.37640983 118.48351668 82.3125 130.5 C82.31100952 131.19665771 82.30951904 131.89331543 82.3079834 132.61108398 C82.26206862 144.6078606 81.3618511 156.22482227 79 168 C78.8767334 168.66708984 78.7534668 169.33417969 78.62646484 170.02148438 C70.99118157 210.45679983 44.52934193 251.82785599 13 278 C12.03449219 278.84175781 11.06898438 279.68351562 10.07421875 280.55078125 C-6.21440212 294.71641876 -24.4605884 305.90437694 -44 315 C-45.07411133 315.50080078 -45.07411133 315.50080078 -46.16992188 316.01171875 C-59.39411171 322.08298269 -72.97268252 326.21534541 -87 330 C-88.77721436 330.48678223 -88.77721436 330.48678223 -90.59033203 330.98339844 C-94.24437793 331.98105389 -97.90230733 332.96265611 -101.5625 333.9375 C-103.26599609 334.39781616 -103.26599609 334.39781616 -105.00390625 334.86743164 C-116.0192238 337.73958963 -116.0192238 337.73958963 -121 337 C-123.95656065 334.79489608 -124.90255691 333.62040377 -125.48101807 329.93743896 C-125.4676944 328.13874359 -125.4676944 328.13874359 -125.45410156 326.30371094 C-125.45468567 325.63988403 -125.45526978 324.97605713 -125.45587158 324.29211426 C-125.45309265 322.10566262 -125.42201328 319.92058738 -125.390625 317.734375 C-125.38316184 316.21552271 -125.37746926 314.69666078 -125.37347412 313.17779541 C-125.35822341 309.18596675 -125.31894723 305.19472303 -125.2746582 301.203125 C-125.23369289 297.12768466 -125.21546046 293.05214952 -125.1953125 288.9765625 C-125.15245175 280.98410698 -125.08420804 272.99212632 -125 265 C-126.39412109 264.54753906 -126.39412109 264.54753906 -127.81640625 264.0859375 C-153.4472386 255.34315052 -175.79737094 232.13027836 -190 210 C-190.66773438 208.96746094 -191.33546875 207.93492187 -192.0234375 206.87109375 C-200.66707982 192.67570487 -207.10895226 176.37916981 -210 160 C-210.26139771 158.5780835 -210.26139771 158.5780835 -210.52807617 157.12744141 C-211.98437463 148.56918484 -212.40180008 140.17079562 -212.375 131.5 C-212.37412384 130.80201294 -212.37324768 130.10402588 -212.37234497 129.3848877 C-212.21347451 90.80520263 -196.56158191 56.56245311 -170 29 C-168.85144531 27.73929688 -168.85144531 27.73929688 -167.6796875 26.453125 C-145.40759227 2.74655584 -114.45022637 -9.06724721 -83 -14 C-81.8759375 -14.18691406 -80.751875 -14.37382813 -79.59375 -14.56640625 C-52.46963848 -17.83898927 -24.1625045 -12.48442407 0 0 Z " fill="#DF2E35" transform="translate(321,98)"></path><path d="M0 0 C0.98613281 0.50660156 1.97226562 1.01320313 2.98828125 1.53515625 C37.74551614 19.9707476 64.64636884 50.7850237 76.47265625 88.55078125 C76.92753042 90.09394349 77.37435691 91.63950424 77.8125 93.1875 C78.0074707 93.87505371 78.20244141 94.56260742 78.40332031 95.27099609 C81.49702513 106.91740339 82.37640983 118.48351668 82.3125 130.5 C82.31100952 131.19665771 82.30951904 131.89331543 82.3079834 132.61108398 C82.26206862 144.6078606 81.3618511 156.22482227 79 168 C78.8767334 168.66708984 78.7534668 169.33417969 78.62646484 170.02148438 C70.99118157 210.45679983 44.52934193 251.82785599 13 278 C12.03449219 278.84175781 11.06898438 279.68351562 10.07421875 280.55078125 C-6.21440212 294.71641876 -24.4605884 305.90437694 -44 315 C-45.07411133 315.50080078 -45.07411133 315.50080078 -46.16992188 316.01171875 C-59.39411171 322.08298269 -72.97268252 326.21534541 -87 330 C-88.77721436 330.48678223 -88.77721436 330.48678223 -90.59033203 330.98339844 C-94.24437793 331.98105389 -97.90230733 332.96265611 -101.5625 333.9375 C-103.26599609 334.39781616 -103.26599609 334.39781616 -105.00390625 334.86743164 C-116.0192238 337.73958963 -116.0192238 337.73958963 -121 337 C-123.95656065 334.79489608 -124.90255691 333.62040377 -125.48101807 329.93743896 C-125.4676944 328.13874359 -125.4676944 328.13874359 -125.45410156 326.30371094 C-125.45468567 325.63988403 -125.45526978 324.97605713 -125.45587158 324.29211426 C-125.45309265 322.10566262 -125.42201328 319.92058738 -125.390625 317.734375 C-125.38316184 316.21552271 -125.37746926 314.69666078 -125.37347412 313.17779541 C-125.35822341 309.18596675 -125.31894723 305.19472303 -125.2746582 301.203125 C-125.23369289 297.12768466 -125.21546046 293.05214952 -125.1953125 288.9765625 C-125.15245175 280.98410698 -125.08420804 272.99212632 -125 265 C-126.39412109 264.54753906 -126.39412109 264.54753906 -127.81640625 264.0859375 C-153.4472386 255.34315052 -175.79737094 232.13027836 -190 210 C-190.66773438 208.96746094 -191.33546875 207.93492187 -192.0234375 206.87109375 C-200.66707982 192.67570487 -207.10895226 176.37916981 -210 160 C-210.26139771 158.5780835 -210.26139771 158.5780835 -210.52807617 157.12744141 C-211.98437463 148.56918484 -212.40180008 140.17079562 -212.375 131.5 C-212.37412384 130.80201294 -212.37324768 130.10402588 -212.37234497 129.3848877 C-212.21347451 90.80520263 -196.56158191 56.56245311 -170 29 C-168.85144531 27.73929688 -168.85144531 27.73929688 -167.6796875 26.453125 C-145.40759227 2.74655584 -114.45022637 -9.06724721 -83 -14 C-81.8759375 -14.18691406 -80.751875 -14.37382813 -79.59375 -14.56640625 C-52.46963848 -17.83898927 -24.1625045 -12.48442407 0 0 Z M-152 62 C-154.61350434 65.19266079 -156.84947954 68.48191555 -159 72 C-159.65484375 73.03382813 -160.3096875 74.06765625 -160.984375 75.1328125 C-175.64007158 98.95176947 -180.11359838 128.09984912 -173.96484375 155.38671875 C-164.30036721 191.57959647 -141.84333366 215.26519056 -110.58154297 234.5078125 C-100.40216272 240.79841243 -91.46319044 247.02738376 -88 259 C-87.72875977 262.09619141 -87.72875977 262.09619141 -87.69140625 265.3515625 C-87.66626953 266.53234375 -87.64113281 267.713125 -87.61523438 268.9296875 C-87.57996741 271.40098761 -87.54874248 273.87234858 -87.52148438 276.34375 C-87.4818457 278.11105469 -87.4818457 278.11105469 -87.44140625 279.9140625 C-87.42122437 281.5220874 -87.42122437 281.5220874 -87.40063477 283.16259766 C-86.94935512 286.35868058 -86.31255732 287.76572201 -84 290 C-78.11339348 290.63808062 -73.34751914 289.55587908 -67.8125 287.625 C-66.66769165 287.23332642 -66.66769165 287.23332642 -65.49975586 286.83374023 C-51.71281243 281.93137614 -37.91542336 275.53812183 -26 267 C-25.06671875 266.33742188 -24.1334375 265.67484375 -23.171875 264.9921875 C14.13676798 237.7432048 39.1740033 200.25830851 46.59375 154.32421875 C48.49753338 137.6975689 48.40766628 119.90379632 43 104 C42.566875 102.37771484 42.566875 102.37771484 42.125 100.72265625 C34.77142681 73.63918356 16.04831329 50.55405468 -7.92236328 36.33520508 C-57.80828814 7.92307366 -114.23464999 20.22943436 -152 62 Z " fill="#DE2F36" transform="translate(321,98)"></path><path d="M0 0 C0.98613281 0.50660156 1.97226562 1.01320313 2.98828125 1.53515625 C37.74551614 19.9707476 64.64636884 50.7850237 76.47265625 88.55078125 C76.92753042 90.09394349 77.37435691 91.63950424 77.8125 93.1875 C78.0074707 93.87505371 78.20244141 94.56260742 78.40332031 95.27099609 C81.49702513 106.91740339 82.37640983 118.48351668 82.3125 130.5 C82.31100952 131.19665771 82.30951904 131.89331543 82.3079834 132.61108398 C82.26206862 144.6078606 81.3618511 156.22482227 79 168 C78.8767334 168.66708984 78.7534668 169.33417969 78.62646484 170.02148438 C70.99118157 210.45679983 44.52934193 251.82785599 13 278 C12.03449219 278.84175781 11.06898438 279.68351562 10.07421875 280.55078125 C-6.21440212 294.71641876 -24.4605884 305.90437694 -44 315 C-45.07411133 315.50080078 -45.07411133 315.50080078 -46.16992188 316.01171875 C-59.39411171 322.08298269 -72.97268252 326.21534541 -87 330 C-88.77721436 330.48678223 -88.77721436 330.48678223 -90.59033203 330.98339844 C-94.24437793 331.98105389 -97.90230733 332.96265611 -101.5625 333.9375 C-103.26599609 334.39781616 -103.26599609 334.39781616 -105.00390625 334.86743164 C-116.0192238 337.73958963 -116.0192238 337.73958963 -121 337 C-123.95656065 334.79489608 -124.90255691 333.62040377 -125.48101807 329.93743896 C-125.4676944 328.13874359 -125.4676944 328.13874359 -125.45410156 326.30371094 C-125.45468567 325.63988403 -125.45526978 324.97605713 -125.45587158 324.29211426 C-125.45309265 322.10566262 -125.42201328 319.92058738 -125.390625 317.734375 C-125.38316184 316.21552271 -125.37746926 314.69666078 -125.37347412 313.17779541 C-125.35822341 309.18596675 -125.31894723 305.19472303 -125.2746582 301.203125 C-125.23369289 297.12768466 -125.21546046 293.05214952 -125.1953125 288.9765625 C-125.15245175 280.98410698 -125.08420804 272.99212632 -125 265 C-126.39412109 264.54753906 -126.39412109 264.54753906 -127.81640625 264.0859375 C-153.4472386 255.34315052 -175.79737094 232.13027836 -190 210 C-190.66773438 208.96746094 -191.33546875 207.93492187 -192.0234375 206.87109375 C-200.66707982 192.67570487 -207.10895226 176.37916981 -210 160 C-210.26139771 158.5780835 -210.26139771 158.5780835 -210.52807617 157.12744141 C-211.98437463 148.56918484 -212.40180008 140.17079562 -212.375 131.5 C-212.37412384 130.80201294 -212.37324768 130.10402588 -212.37234497 129.3848877 C-212.21347451 90.80520263 -196.56158191 56.56245311 -170 29 C-168.85144531 27.73929688 -168.85144531 27.73929688 -167.6796875 26.453125 C-145.40759227 2.74655584 -114.45022637 -9.06724721 -83 -14 C-81.8759375 -14.18691406 -80.751875 -14.37382813 -79.59375 -14.56640625 C-52.46963848 -17.83898927 -24.1625045 -12.48442407 0 0 Z M-95 1 C-96.21042969 1.26683594 -97.42085938 1.53367187 -98.66796875 1.80859375 C-131.97569983 9.70557952 -161.45256298 32.18670614 -179.71142578 60.88574219 C-197.00649881 89.2630314 -205.04405564 126.00473108 -197.375 158.8125 C-196.66260355 161.56917849 -195.84690414 164.28211913 -195 167 C-194.57146565 168.49474898 -194.14308456 169.9895419 -193.71484375 171.484375 C-183.25033944 206.49676897 -158.54889074 233.51165295 -127 251 C-123.77101724 252.68556962 -120.50254095 254.27106468 -117.1875 255.78125 C-115 257 -115 257 -113 260 C-112.7215271 262.75248718 -112.7215271 262.75248718 -112.68115234 266.1237793 C-112.66128265 267.38486008 -112.64141296 268.64594086 -112.62094116 269.94523621 C-112.60906478 271.32156194 -112.59740192 272.69788953 -112.5859375 274.07421875 C-112.56722711 275.48241819 -112.54765379 276.8906064 -112.5272522 278.29878235 C-112.47591107 282.00258773 -112.43629615 285.70642946 -112.39910889 289.41040039 C-112.35908153 293.1910096 -112.30798344 296.97146732 -112.2578125 300.75195312 C-112.16102983 308.16786484 -112.07663274 315.5838498 -112 323 C-109.31755568 322.37173932 -106.63529258 321.74272139 -103.953125 321.11328125 C-103.20305176 320.93768677 -102.45297852 320.76209229 -101.68017578 320.58117676 C-94.40870322 318.87360181 -87.17455854 317.08413494 -80 315 C-79.25363281 314.78569336 -78.50726563 314.57138672 -77.73828125 314.35058594 C-55.39566723 307.79906086 -33.89322312 297.6499321 -15 284 C-14.40558105 283.57090332 -13.81116211 283.14180664 -13.19873047 282.69970703 C-6.59597319 277.87594992 -0.35132572 272.69615776 5.66015625 267.15234375 C7.96430584 265.03283386 10.31995434 262.98564658 12.6875 260.9375 C16.84734194 257.22697896 20.4612564 253.30050836 24 249 C24.63977783 248.24468994 24.63977783 248.24468994 25.29248047 247.47412109 C42.01534722 227.70864557 53.76550705 205.4680512 62 181 C62.4021875 179.80761719 62.804375 178.61523438 63.21875 177.38671875 C74.67528554 140.45675001 70.86102075 101.35686221 53.24023438 67.30712891 C50.52757802 62.2609473 47.45978276 57.5720995 44 53 C43.31550781 52.09507812 42.63101563 51.19015625 41.92578125 50.2578125 C19.59513043 21.95361235 -12.28220048 2.98164562 -48.234375 -1.58203125 C-63.84609693 -3.18060985 -79.77089644 -2.8447245 -95 1 Z " fill="#FEFAFA" transform="translate(321,98)"></path><path d="M0 0 C20.51014514 16.92884788 33.93661077 39.11967563 40.0546875 64.92578125 C40.23201416 65.62872314 40.40934082 66.33166504 40.59204102 67.0559082 C42.30235983 74.48099055 42.40036953 81.76796295 42.3671875 89.36328125 C42.36536469 90.02330139 42.36354187 90.68332153 42.36166382 91.36334229 C42.18811253 128.7814515 27.76645434 165.27656532 2.1171875 192.70703125 C0.28023001 194.68315218 -1.42342415 196.71532746 -3.1328125 198.80078125 C-22.17241286 220.56660614 -54.76529473 240.45793391 -83.5546875 245.37109375 C-85.6953125 245.48828125 -85.6953125 245.48828125 -88.9453125 244.92578125 C-91.21145427 242.6846688 -91.89420002 241.3123215 -92.31420898 238.13598633 C-92.31493408 237.08306396 -92.31565918 236.0301416 -92.31640625 234.9453125 C-92.33380859 233.78064453 -92.35121094 232.61597656 -92.36914062 231.41601562 C-92.37818256 228.98373519 -92.383453 226.55143751 -92.38476562 224.11914062 C-92.55328523 213.56051555 -94.6836516 206.58313634 -101.92871094 198.79248047 C-105.48128488 195.50398406 -109.45590307 193.01267559 -113.5703125 190.48828125 C-115.35490279 189.35793218 -117.1387571 188.22642033 -118.921875 187.09375 C-119.78329102 186.55153809 -120.64470703 186.00932617 -121.53222656 185.45068359 C-150.75658833 166.98292119 -171.43008334 141.85120892 -179.50830078 107.98632812 C-185.21220403 81.09194632 -179.77135925 52.34682458 -165.5078125 29.05078125 C-149.06379814 4.6570116 -126.45139565 -13.15252827 -97.9453125 -21.07421875 C-96.82382813 -21.39390625 -95.70234375 -21.71359375 -94.546875 -22.04296875 C-61.83863243 -29.98114897 -26.10910973 -20.7758855 0 0 Z M-139.9453125 17.92578125 C-140.58726562 18.49554688 -141.22921875 19.0653125 -141.890625 19.65234375 C-152.43515703 29.21598908 -159.02320397 42.80239837 -163.9453125 55.92578125 C-164.37972656 57.01117188 -164.81414062 58.0965625 -165.26171875 59.21484375 C-168.23820757 68.07171293 -168.33552004 76.84085335 -168.3828125 86.11328125 C-168.39304443 87.38445801 -168.40327637 88.65563477 -168.41381836 89.96533203 C-168.33871212 98.04004021 -167.2908186 105.20573636 -164.9453125 112.92578125 C-164.59210938 114.14910156 -164.23890625 115.37242187 -163.875 116.6328125 C-159.19268733 130.41962204 -151.65948409 142.12089566 -141.9453125 152.92578125 C-141.27242187 153.68117188 -140.59953125 154.4365625 -139.90625 155.21484375 C-130.60237177 165.07625775 -119.08393014 172.32128258 -107.59790039 179.36035156 C-95.40251155 186.8971832 -85.25941115 195.03868488 -81.29296875 209.265625 C-79.78193358 216.07079798 -79.35894929 222.98103732 -78.9453125 229.92578125 C-74.00107595 229.30967701 -69.64292356 227.83037637 -65.0703125 225.92578125 C-64.33143799 225.61817871 -63.59256348 225.31057617 -62.83129883 224.99365234 C-50.14636842 219.56900693 -38.65415711 212.63806161 -27.9453125 203.92578125 C-27.38602051 203.47332031 -26.82672852 203.02085937 -26.25048828 202.5546875 C-1.35957134 182.28489804 15.91302343 156.74380766 25.0546875 125.92578125 C25.2805957 125.17135742 25.50650391 124.41693359 25.73925781 123.63964844 C31.7157886 102.75392256 31.53157756 77.71448867 24.4921875 57.11328125 C24.23679199 56.36046875 23.98139648 55.60765625 23.71826172 54.83203125 C15.15610347 30.81977769 -2.80001709 10.0925669 -25.79370117 -1.03515625 C-28.81940248 -2.44326386 -31.87554052 -3.7647356 -34.9453125 -5.07421875 C-36.01652344 -5.56535156 -36.01652344 -5.56535156 -37.109375 -6.06640625 C-72.24112001 -21.07864971 -114.07975087 -7.62530546 -139.9453125 17.92578125 Z " fill="#FEFAFA" transform="translate(325.9453125,143.07421875)"></path><path d="M0 0 C44.22 0 88.44 0 134 0 C134 4.29 134 8.58 134 13 C89.78 13 45.56 13 0 13 C0 8.71 0 4.42 0 0 Z " fill="#FEFAFA" transform="translate(197,221)"></path><path d="M0 0 C37.95 0 75.9 0 115 0 C115 4.29 115 8.58 115 13 C77.05 13 39.1 13 0 13 C0 8.71 0 4.42 0 0 Z " fill="#FEFAFB" transform="translate(197,189)"></path><path d="M0 0 C23.1 0 46.2 0 70 0 C70 4.29 70 8.58 70 13 C46.9 13 23.8 13 0 13 C0 8.71 0 4.42 0 0 Z " fill="#FDF8F8" transform="translate(197,253)"></path></svg>