<svg version="1.1" xmlns="http://www.w3.org/2000/svg" width="16px" height="16px" fill="currentColor" viewBox="0 0 512 512"><path d="M0 0 C168.96 0 337.92 0 512 0 C512 168.96 512 337.92 512 512 C343.04 512 174.08 512 0 512 C0 343.04 0 174.08 0 0 Z " fill="#4053D6" transform="translate(0,0)"></path><path d="M0 0 C0.87718689 0.00115814 1.75437378 0.00231628 2.65814209 0.00350952 C16.46890278 0.03950697 29.89567475 0.78450486 43.5 3.3125 C44.7375 3.51746094 45.975 3.72242187 47.25 3.93359375 C65.75895054 7.38259958 88.63512673 13.69569555 100.5 29.3125 C104.75440409 36.19635958 105.05488511 41.70556941 104.95410156 49.6953125 C104.95468567 50.91567703 104.95526978 52.13604156 104.95587158 53.39338684 C104.95357293 56.71758379 104.93360422 60.04076985 104.90557575 63.36478806 C104.88045983 66.84675834 104.87821212 70.32874412 104.87347412 73.81079102 C104.86107408 80.39448135 104.82829323 86.97790393 104.78807616 93.56147671 C104.7432654 101.06087702 104.72134812 108.56029056 104.70129442 116.05979156 C104.65955754 131.47752 104.58845206 146.89496484 104.5 162.3125 C100.21 162.3125 95.92 162.3125 91.5 162.3125 C91.17 156.0425 90.84 149.7725 90.5 143.3125 C88.23125 144.50875 85.9625 145.705 83.625 146.9375 C58.62593333 159.59192223 31.78432281 162.49172952 4.10083008 162.55273438 C1.46598176 162.56239557 -1.16806919 162.593509 -3.80273438 162.625 C-32.31158635 162.80131703 -64.34326902 157.41698732 -88.5 141.3125 C-88.45828247 148.73274692 -88.38590789 156.15224675 -88.29248047 163.57202148 C-88.26430092 166.09473929 -88.24307146 168.61754489 -88.22900391 171.14038086 C-88.20753367 174.77242891 -88.1608589 178.40342466 -88.109375 182.03515625 C-88.10814636 183.15833755 -88.10691772 184.28151886 -88.10565186 185.43873596 C-87.96922393 192.77654457 -87.15061324 197.75712015 -81.703125 203.0625 C-68.6973161 211.3862177 -54.49769568 216.09157927 -39.5 219.3125 C-38.76410645 219.47766113 -38.02821289 219.64282227 -37.27001953 219.81298828 C-7.23919413 226.24768985 27.71564493 224.23449535 57.1875 216.1796875 C60.28437877 215.36894801 63.3358774 214.78518905 66.5 214.3125 C67.17305018 215.91399886 67.83822227 217.51881029 68.5 219.125 C68.87125 220.01832031 69.2425 220.91164063 69.625 221.83203125 C70.5 224.3125 70.5 224.3125 70.5 227.3125 C57.58143541 230.75654304 44.75867788 233.55843367 31.5 235.3125 C30.19417969 235.498125 28.88835937 235.68375 27.54296875 235.875 C20.06624429 236.67195801 12.51111272 236.55610052 5 236.5625 C4.18108276 236.56350708 3.36216553 236.56451416 2.51843262 236.56555176 C-28.32207914 236.53999042 -61.2181992 232.83370054 -87.5 215.3125 C-87.57433795 221.18405408 -87.62869117 227.05533219 -87.66479492 232.92724609 C-87.67985098 234.92338841 -87.70030027 236.91949781 -87.72631836 238.91552734 C-87.76284161 241.79012185 -87.77975837 244.66427772 -87.79296875 247.5390625 C-87.80845261 248.42679352 -87.82393646 249.31452454 -87.83988953 250.22915649 C-87.84147152 256.09666806 -86.96269862 260.25759819 -83.16796875 264.96484375 C-68.62932737 277.58545857 -48.85183381 281.03903181 -30.5 284.3125 C-29.27410156 284.54195313 -28.04820312 284.77140625 -26.78515625 285.0078125 C-5.52777584 288.34322467 17.44341445 287.34988408 38.5 283.3125 C39.70398438 283.10753906 40.90796875 282.90257812 42.1484375 282.69140625 C57.59756611 279.79244389 76.79786427 275.31107534 87.625 263.0625 C90.30394725 259.13337737 90.6511084 256.20273511 90.81640625 251.55078125 C90.85830078 250.43251953 90.90019531 249.31425781 90.94335938 248.16210938 C90.98267578 246.99486328 91.02199219 245.82761719 91.0625 244.625 C91.10568359 243.44615234 91.14886719 242.26730469 91.19335938 241.05273438 C91.29951094 238.13946374 91.40026629 235.2259974 91.5 232.3125 C95.79 232.3125 100.08 232.3125 104.5 232.3125 C104.6086673 236.60485817 104.68765239 240.89442167 104.75 245.1875 C104.78351563 246.39148438 104.81703125 247.59546875 104.8515625 248.8359375 C104.95047066 257.93548839 103.8242397 264.9035084 98.2734375 272.265625 C72.70251303 296.75374159 34.47181769 299.75711184 0.75 299.625 C-0.70150955 299.62226578 -0.70150955 299.62226578 -2.18234253 299.61947632 C-16.12888304 299.57524549 -29.82363973 299.31491364 -43.5 296.3125 C-44.31033691 296.14089355 -45.12067383 295.96928711 -45.95556641 295.79248047 C-65.18415148 291.59244403 -86.50387715 284.30707198 -98.375 267.6875 C-101.18836817 261.74816721 -101.79001529 256.75550301 -101.76069641 250.29275513 C-101.76452196 249.39489159 -101.76834751 248.49702804 -101.77228898 247.57195652 C-101.78259253 244.56890723 -101.77863183 241.56605009 -101.7746582 238.56298828 C-101.77900615 236.40762149 -101.78418957 234.25225625 -101.79014587 232.09689331 C-101.8035385 226.24564098 -101.80411422 220.39445324 -101.80158257 214.54318857 C-101.800513 209.65748095 -101.80539591 204.7717864 -101.810188 199.88608158 C-101.82128419 188.35910304 -101.82172001 176.83215708 -101.81567383 165.30517578 C-101.8096336 153.41614433 -101.82194611 141.52723121 -101.8432439 129.63821995 C-101.86086088 119.42828432 -101.86686108 109.21838635 -101.86360615 99.00843608 C-101.86179325 92.91160864 -101.86443028 86.81486559 -101.87832069 80.71805191 C-101.89089583 74.9839451 -101.88895775 69.25002271 -101.87590981 63.51591873 C-101.87354377 61.4132735 -101.87627965 59.31061529 -101.88453293 57.20798492 C-101.89499969 54.33384702 -101.88690006 51.46032801 -101.8742218 48.58621216 C-101.88159609 47.75759898 -101.88897037 46.92898581 -101.89656812 46.07526314 C-101.81138211 36.8719999 -98.6014504 30.44213 -92.27734375 23.76953125 C-80.20153705 13.08643362 -64.10725788 8.26795001 -48.625 5.125 C-46.89830078 4.7547168 -46.89830078 4.7547168 -45.13671875 4.37695312 C-29.97465634 1.2076257 -15.43684053 -0.0632284 0 0 Z " fill="#FAFAFD" transform="translate(171.5,121.6875)"></path><path d="M0 0 C1.0919165 0.55139648 2.18383301 1.10279297 3.30883789 1.67089844 C4.75922662 2.40049147 6.20966891 3.12997804 7.66015625 3.859375 C8.37772095 4.22208496 9.09528564 4.58479492 9.83459473 4.95849609 C23.60589263 11.87368028 38.20655365 15.10835741 53.3125 17.6875 C54.0041626 17.80681885 54.6958252 17.9261377 55.40844727 18.04907227 C93.81611641 24.28428842 140.34156412 21.82564942 174.83984375 2.83984375 C175.81171631 2.30609131 176.78358887 1.77233887 177.78491211 1.22241211 C178.51589111 0.81901611 179.24687012 0.41562012 180 0 C180.2092179 7.94532508 180.36878001 15.88948618 180.46630955 23.83689117 C180.51313859 27.52799764 180.57656281 31.21721021 180.67895508 34.90722656 C180.77728785 38.47357035 180.83066495 42.03810219 180.85389519 45.60569763 C180.87843958 47.61798988 180.94861836 49.62955977 181.01966858 51.64074707 C181.0245959 60.63372741 181.0245959 60.63372741 178.05555725 64.59286499 C162.98686759 78.23845015 139.64786541 82.92522541 120 85 C118.81229004 85.16749756 117.62458008 85.33499512 116.40087891 85.50756836 C111.76808375 86.08698956 107.18029559 86.17942709 102.515625 86.203125 C101.61994812 86.20882507 100.72427124 86.21452515 99.80145264 86.22039795 C97.90882529 86.22980134 96.01618191 86.23636327 94.12353516 86.24023438 C91.29949233 86.2498318 88.47621296 86.28085447 85.65234375 86.3125 C59.95202058 86.46165975 23.75476699 83.31882405 4.25 64.29296875 C0.73130064 60.18448739 -0.12502813 57.76299524 -0.11352539 52.44873047 C-0.11344986 51.28767792 -0.11337433 50.12662537 -0.11329651 48.9303894 C-0.10813522 47.67203278 -0.10297394 46.41367615 -0.09765625 45.1171875 C-0.0962413 43.83264679 -0.09482635 42.54810608 -0.09336853 41.22463989 C-0.08954911 37.80843158 -0.07972373 34.39226574 -0.06866455 30.97607422 C-0.05843807 27.49056574 -0.05386826 24.0050504 -0.04882812 20.51953125 C-0.03810096 13.67967005 -0.02103142 6.83983706 0 0 Z " fill="#3E4ED1" transform="translate(83,185)"></path><path d="M0 0 C2.57079553 0.01074931 5.14089491 0.00001315 7.71166992 -0.01269531 C18.14714925 -0.02136815 28.18477677 0.70631044 38.5065918 2.26074219 C40.0326297 2.46259356 41.55867055 2.66442268 43.0847168 2.86621094 C59.68598726 5.49768892 81.48004276 10.49105891 92.3815918 24.24902344 C93.5065918 26.26074219 93.5065918 26.26074219 93.7565918 29.88574219 C90.13974199 39.65123665 81.48260951 43.48012726 72.4675293 47.67480469 C46.90740976 58.22239832 17.74865995 58.97914112 -9.4934082 58.26074219 C-11.00122062 58.24120451 -12.50903311 58.22167259 -14.0168457 58.20214844 C-22.6149656 57.98867647 -30.87951946 56.59657351 -39.3059082 54.94824219 C-40.84516968 54.64720581 -40.84516968 54.64720581 -42.41552734 54.34008789 C-57.2667818 51.25657991 -73.62574526 46.37539747 -84.4934082 35.26074219 C-86.30389436 32.03658877 -87.18509517 29.97855964 -86.4934082 26.26074219 C-79.72352918 14.90653563 -64.46595903 9.70004245 -52.33959961 6.58935547 C-49.0645104 5.78298014 -45.77916325 5.02231902 -42.4934082 4.26074219 C-41.25357178 3.93517334 -40.01373535 3.60960449 -38.73632812 3.27416992 C-26.07909288 0.1122763 -12.97073421 -0.06427887 0 0 Z " fill="#4154D6" transform="translate(169.493408203125,134.7392578125)"></path><path d="M0 0 C3.72004801 3.37156576 3.52039794 7.54755423 3.8125 12.25 C4.62731925 21.59768222 7.19566376 29.47327929 11 38 C11.46535156 39.06992188 11.93070312 40.13984375 12.41015625 41.2421875 C24.88692265 68.00293995 49.68508801 88.72772541 77 99 C82.95184445 100.97265004 88.64532439 101.57246712 94.859375 101.94726562 C98.97986577 102.32017742 100.67450967 102.7405329 104.0234375 105.41015625 C106 108 106 108 106 110.625 C104.88476579 113.27368126 104.31537606 114.30582239 102 116 C99.37838829 116.41734177 96.88739878 116.68865887 94.25 116.875 C68.02438829 119.41440271 44.0728233 135.34363323 27.23828125 155.1640625 C15.05531265 170.17788082 4.40149342 188.77875816 3.625 208.375 C3.21495891 215.69945953 3.21495891 215.69945953 0.8125 218.4375 C-2 220 -2 220 -5.1875 220 C-8 219 -8 219 -10 216 C-10.33774656 213.61268031 -10.59677496 211.21392265 -10.8125 208.8125 C-13.92564939 180.50733323 -30.7599062 155.86179722 -52.4921875 138.09765625 C-67.92406012 125.96627771 -87.7724828 116.61319662 -107.6796875 116.3359375 C-110 116 -110 116 -111.79296875 114.66015625 C-113.69764745 112.04045253 -113.44853984 110.13977889 -113 107 C-110.73515222 103.93149656 -109.45219176 103.08863383 -105.671875 102.34765625 C-104.37765625 102.25355469 -103.0834375 102.15945313 -101.75 102.0625 C-73.66275021 99.31395969 -50.34796629 82.56312304 -32.59228516 61.31542969 C-20.06704783 45.36892451 -12.30914031 26.14513455 -10.5546875 6.01171875 C-10 3 -10 3 -8.6640625 1.109375 C-5.79061468 -0.80625688 -3.32189613 -0.41523702 0 0 Z M-4 38 C-4.39155273 38.77694214 -4.39155273 38.77694214 -4.79101562 39.56958008 C-9.86701321 49.58267426 -14.87588294 59.26142476 -22 68 C-22.42474609 68.53399414 -22.84949219 69.06798828 -23.28710938 69.61816406 C-37.27834542 87.13187632 -54.26724525 100.28451349 -75 109 C-73.37934133 112.24131734 -69.91389098 113.07865685 -66.75 114.5625 C-53.86217809 120.83532095 -43.2749788 129.09569144 -33 139 C-31.92298828 139.98226562 -31.92298828 139.98226562 -30.82421875 140.984375 C-19.13381641 151.94851988 -11.00992728 166.76577457 -4 181 C-2.2884206 178.43263089 -0.88479413 175.85888051 0.51098633 173.11450195 C13.39370321 148.01371589 32.71991765 128.62173692 57.46728516 115.10742188 C60.83469704 113.26330408 64.00446642 111.42715029 67 109 C66.00742187 108.53851563 65.01484375 108.07703125 63.9921875 107.6015625 C50.0053551 100.94785127 38.20553485 92.72157487 27 82 C26.20335937 81.278125 25.40671875 80.55625 24.5859375 79.8125 C12.03973755 68.02305497 3.68368963 53.70667064 -3 38 C-3.33 38 -3.66 38 -4 38 Z " fill="#FBFBFE" transform="translate(336,209)"></path><path d="M0 0 C4.62 0 9.24 0 14 0 C14 6.27 14 12.54 14 19 C20.27 19 26.54 19 33 19 C33 23.62 33 28.24 33 33 C26.73 33 20.46 33 14 33 C14 39.27 14 45.54 14 52 C9.38 52 4.76 52 0 52 C0 45.73 0 39.46 0 33 C-6.27 33 -12.54 33 -19 33 C-19 28.38 -19 23.76 -19 19 C-12.73 19 -6.46 19 0 19 C0 12.73 0 6.46 0 0 Z " fill="#F0F2FC" transform="translate(365,154)"></path><path d="M0 0 C4.62 0 9.24 0 14 0 C14 6.27 14 12.54 14 19 C20.27 19 26.54 19 33 19 C33 23.62 33 28.24 33 33 C26.73 33 20.46 33 14 33 C14 39.27 14 45.54 14 52 C9.38 52 4.76 52 0 52 C0 45.73 0 39.46 0 33 C-6.27 33 -12.54 33 -19 33 C-19 28.38 -19 23.76 -19 19 C-12.73 19 -6.46 19 0 19 C0 12.73 0 6.46 0 0 Z " fill="#F0F2FC" transform="translate(288,83)"></path></svg>