<svg version="1.1" xmlns="http://www.w3.org/2000/svg" width="16px" height="16px" fill="currentColor" viewBox="0 0 512 512"><path d="M0 0 C168.96 0 337.92 0 512 0 C512 168.96 512 337.92 512 512 C343.04 512 174.08 512 0 512 C0 343.04 0 174.08 0 0 Z " fill="#438A26" transform="translate(0,0)"></path><path d="M0 0 C0.72661333 -0.00467997 1.45322666 -0.00935994 2.20185858 -0.01418173 C4.64326588 -0.02617381 7.08411621 -0.01665833 9.52552795 -0.00723267 C11.27315601 -0.01129654 13.0207815 -0.01663738 14.7684021 -0.02316284 C19.5204714 -0.03686517 24.27234579 -0.03152552 29.02441859 -0.02202559 C33.99269441 -0.01444287 38.96095328 -0.02147084 43.92922974 -0.02618408 C52.27451073 -0.0316462 60.61971216 -0.0244386 68.96498108 -0.01016235 C78.61768568 0.00615968 88.27020016 0.00088072 97.92290014 -0.01564157 C106.2040752 -0.02924983 114.48519297 -0.03117917 122.7663756 -0.02332556 C127.71511073 -0.01864473 132.66375647 -0.01803536 137.61248589 -0.02793503 C142.26560692 -0.03659262 146.91848258 -0.03060489 151.57157707 -0.01325226 C153.28081861 -0.00928072 154.99008074 -0.01043284 156.69931412 -0.01704025 C159.02988467 -0.02521981 161.35966552 -0.01497826 163.69018555 0 C164.99523513 0.00113108 166.30028471 0.00226215 167.64488125 0.00342751 C171.18875158 0.41335877 172.65112002 0.61187702 174.90858459 3.38095093 C175.31019364 5.98640308 175.4491558 8.17516547 175.41651917 10.7828064 C175.42275913 11.54279371 175.42899909 12.30278103 175.43542814 13.08579826 C175.45142226 15.64022439 175.43872941 18.19370471 175.42616272 20.74813843 C175.43158101 22.57620807 175.43870201 24.40427335 175.44740295 26.23233032 C175.46567417 31.20337837 175.45855314 36.17409522 175.44588661 41.14514923 C175.43577858 46.3407838 175.44514616 51.5363895 175.45143127 56.73202515 C175.4587141 65.45815131 175.44910332 74.18414217 175.43006897 82.9102478 C175.40829904 93.0072228 175.41534996 103.10387474 175.43737459 113.2008419 C175.45551051 121.86077838 175.45809577 130.52061746 175.44761992 139.18056679 C175.44137503 144.35677004 175.44057664 149.53282132 175.45376587 154.70901489 C175.46529746 159.57477739 175.45734804 164.44012229 175.43418884 169.30583954 C175.42888732 171.0945135 175.43044008 172.88322245 175.4392395 174.67188263 C175.4501221 177.10809909 175.43652129 179.54296573 175.41651917 181.97909546 C175.42544205 182.69202696 175.43436494 183.40495846 175.44355822 184.13949394 C175.39546884 187.14553078 175.25675941 188.95471514 173.32519531 191.31933689 C170.02055781 192.77105997 167.3460838 192.76186223 163.73487854 192.76863098 C163.01149434 192.77401652 162.28811013 192.77940206 161.54280519 192.78495079 C159.11833477 192.79926094 156.69440798 192.79211937 154.26991272 192.78500366 C152.53198812 192.7907056 150.79406727 192.79766918 149.05615234 192.80580139 C144.33514295 192.82376625 139.61431908 192.82255832 134.89328575 192.81685901 C130.95420313 192.81377234 127.01515641 192.8198537 123.07607889 192.82589775 C113.78535389 192.83995194 104.49472083 192.83837391 95.20399475 192.82699585 C85.61314482 192.81550994 76.02257437 192.82959621 66.43176126 192.85639232 C58.20151754 192.87852774 49.97136168 192.88519169 41.7410903 192.87931591 C36.82363284 192.87594041 31.9063546 192.87840083 26.98892212 192.89556694 C22.36610327 192.91099995 17.74369953 192.90712127 13.12089729 192.8882618 C11.42293949 192.88456596 9.72495117 192.88771325 8.02702141 192.89814758 C5.71162846 192.91129176 3.39762319 192.89987029 1.08229065 192.88215637 C-0.21408577 192.88194709 -1.51046219 192.8817378 -2.84612274 192.88152218 C-6.09141541 192.38095093 -6.09141541 192.38095093 -8.50844669 190.81738472 C-10.64078215 187.53539049 -10.64415976 184.68577194 -10.59262085 180.89680481 C-10.60092244 179.76166753 -10.60092244 179.76166753 -10.60939175 178.60359818 C-10.62301267 176.06607705 -10.60802194 173.52953707 -10.59312439 170.99203491 C-10.59690702 169.17367128 -10.6024066 167.35531053 -10.60949707 165.53695679 C-10.62347525 160.59694492 -10.61226577 155.65728041 -10.59578586 150.71728778 C-10.58195246 145.55236193 -10.5883934 140.3874566 -10.59191895 135.22251892 C-10.59462218 126.54944244 -10.58113488 117.87650427 -10.55796814 109.20346069 C-10.53134933 99.16842187 -10.52961355 89.1336142 -10.5413565 79.09855217 C-10.55212536 69.45350456 -10.54595477 59.80854078 -10.53180122 50.16349983 C-10.52603451 46.05468839 -10.52612945 41.94593814 -10.53086662 37.83712578 C-10.53562939 33.00177222 -10.52556388 28.1666727 -10.50391197 23.33136749 C-10.49833467 21.55398223 -10.49788742 19.7765726 -10.50286484 17.99918556 C-10.50879488 15.57854371 -10.49635726 13.15868459 -10.47909546 10.7381134 C-10.4851055 10.02975497 -10.49111555 9.32139654 -10.49730772 8.5915727 C-10.46218136 5.89492106 -10.3388923 3.82416205 -9.01039886 1.44493771 C-6.01929408 -0.21349032 -3.40110472 0.00294856 0 0 Z " fill="#428826" transform="translate(183.09141540527344,191.61904907226563)"></path><path d="M0 0 C1.1693245 -0.01337005 1.1693245 -0.01337005 2.36227173 -0.0270102 C4.98306152 -0.05309323 7.60344056 -0.05759748 10.22434998 -0.06207275 C12.10017782 -0.07595626 13.97599718 -0.09103011 15.85180664 -0.10720825 C20.95544016 -0.14660685 26.05895523 -0.16592138 31.1627171 -0.17924023 C34.35237997 -0.18803142 37.54201045 -0.20034588 40.73165703 -0.21375275 C50.71413289 -0.25479176 60.69653474 -0.28378169 70.67908913 -0.29535842 C82.19667756 -0.30878878 93.71319575 -0.36137008 105.2304588 -0.4483602 C114.13508264 -0.51327726 123.03940597 -0.54347491 131.94426388 -0.54748178 C137.26134194 -0.55062238 142.57741467 -0.56826277 147.89424324 -0.62194061 C152.90075862 -0.67149948 157.90551764 -0.67779794 162.91219139 -0.65152359 C164.74474427 -0.6492181 166.57739297 -0.66216819 168.40970612 -0.69189835 C183.94955323 -0.92914809 183.94955323 -0.92914809 190.37460327 4.79333496 C191.75472072 6.30699547 193.10672696 7.84720448 194.41746521 9.42132568 C195.53316591 10.47874092 196.66215477 11.5227471 197.81590271 12.53851318 C198.80863659 13.45719395 199.80082689 14.37646247 200.79246521 15.29632568 C201.90298444 16.32384007 203.01366521 17.35117988 204.12449646 18.37835693 C204.67315369 18.88576416 205.22181091 19.39317139 205.78709412 19.91595459 C208.34556404 22.27826749 210.91211462 24.63171836 213.47996521 26.98382568 C213.97093689 27.43354736 214.46190857 27.88326904 214.96775818 28.34661865 C215.95631036 29.25195171 216.94491698 30.15722531 217.93357849 31.06243896 C220.42910928 33.34775064 222.92321048 35.63462149 225.41746521 37.92132568 C226.41745845 38.83799972 227.41745845 39.75466639 228.41746521 40.67132568 C234.41746521 46.17132568 234.41746521 46.17132568 235.91819763 47.54705811 C236.91567512 48.46137186 237.91323339 49.37559749 238.91087341 50.28973389 C241.45014612 52.61667479 243.98788662 54.94525042 246.52293396 57.27679443 C247.03920349 57.75116943 247.55547302 58.22554443 248.08738708 58.71429443 C252.22689875 62.51817002 252.22689875 62.51817002 253.75812125 63.9624756 C255.46378405 65.5085038 255.46378405 65.5085038 257.64843583 67.03535146 C263.90392702 71.82757204 263.90392702 71.82757204 265.24972105 76.00421202 C265.55927736 79.0579295 265.58913839 82.00019813 265.51994324 85.06898499 C265.53465302 86.80340569 265.53465302 86.80340569 265.54965997 88.57286519 C265.56767185 91.76542259 265.54553513 94.95472791 265.50603294 98.14699662 C265.47322719 101.59553205 265.4925948 105.04383395 265.50538635 108.4924469 C265.5222573 115.23988628 265.49140373 121.98629987 265.44452247 128.73356447 C265.39184623 136.58993599 265.38764359 144.44611001 265.3856757 152.30263057 C265.38061558 166.31645674 265.3332146 180.3298161 265.26121521 194.34344482 C265.19137839 207.94602331 265.14893133 221.54830573 265.13816833 235.15106201 C265.13750003 235.98959677 265.13683173 236.82813152 265.13614318 237.69207642 C265.13481539 239.3812945 265.13348932 241.07051257 265.13216497 242.75973065 C265.13150627 243.59297916 265.13084757 244.42622767 265.13016891 245.28472614 C265.12919698 246.53141816 265.12919698 246.53141816 265.1282054 247.80329587 C265.11710995 260.76439854 265.08303655 273.72545341 265.04577772 286.68650365 C265.0324665 291.38618232 265.02215403 296.08585649 265.01391134 300.78554664 C265.00062645 308.23606316 264.97734754 315.68640319 264.93358812 323.13680825 C264.91374372 326.54174018 264.89856565 329.94651615 264.8962059 333.35150909 C264.89098918 337.03743343 264.86739646 340.72277855 264.83879089 344.40858459 C264.84139034 345.49163653 264.84398979 346.57468847 264.846668 347.69056016 C264.83514457 348.67391727 264.82362113 349.65727438 264.8117485 350.67043018 C264.80800901 351.52160351 264.80426952 352.37277683 264.80041671 353.24974328 C264.41746521 355.42132568 264.41746521 355.42132568 263.1767866 357.19448686 C260.92832847 358.76241853 259.60533456 358.7981757 256.87403965 358.80164242 C255.93698329 358.81008236 254.99992692 358.8185223 254.03447491 358.827218 C253.00316777 358.82120795 251.97186063 358.81519791 250.90930176 358.80900574 C249.81516871 358.81439128 248.72103567 358.81977681 247.59374708 358.82532555 C243.90865304 358.8396917 240.22391384 358.83247997 236.5388031 358.82537842 C233.9044872 358.83107744 231.27017376 358.83803987 228.63586426 358.84617615 C222.21196566 358.86339532 215.78816475 358.86419772 209.36424906 358.85896324 C204.14409251 358.85492603 198.9239649 358.85635975 193.70380974 358.8617115 C192.59045656 358.86283414 192.59045656 358.86283414 191.4546114 358.86397945 C189.94688292 358.86551088 188.43915445 358.86704923 186.93142598 358.86859442 C172.78376483 358.88233078 158.63615894 358.87687384 144.48849904 358.8654092 C131.53888457 358.85547597 118.58941296 358.86841698 105.63982052 358.89234339 C92.35074551 358.91671251 79.06173709 358.92634765 65.77264017 358.91969067 C58.30878352 358.91619352 50.84503677 358.91846305 43.38119698 358.9359417 C37.02720999 358.95063641 30.67341028 358.95133515 24.31942708 358.93387078 C21.07632222 358.92533551 17.83362265 358.92542506 14.59052277 358.93852234 C11.07756581 358.95162966 7.56552879 358.94027503 4.0526123 358.92253113 C3.02353589 358.93213613 1.99445947 358.94174114 0.93419892 358.95163721 C-5.90445547 358.88021111 -5.90445547 358.88021111 -9.21716785 356.63835621 C-10.65529869 354.30317445 -11.07836368 353.15801246 -11.06355286 350.44763184 C-11.07180084 349.27823059 -11.07180084 349.27823059 -11.08021545 348.08520508 C-11.06583435 347.23931824 -11.05145325 346.3934314 -11.03663635 345.52191162 C-11.03751251 344.17504272 -11.03751251 344.17504272 -11.03840637 342.80096436 C-11.03562147 339.83548209 -11.00451013 336.87100717 -10.97315979 333.90570068 C-10.96569885 331.84876047 -10.96000523 329.79181314 -10.95600891 327.73486328 C-10.94074107 322.32269646 -10.90144905 316.91095947 -10.85719299 311.4989624 C-10.81626528 305.97574681 -10.79800322 300.45246173 -10.77784729 294.92913818 C-10.73495615 284.0930119 -10.66669066 273.25720454 -10.58253479 262.42132568 C-6.29253479 262.42132568 -2.00253479 262.42132568 2.41746521 262.42132568 C2.41746521 289.81132568 2.41746521 317.20132568 2.41746521 345.42132568 C84.58746521 345.42132568 166.75746521 345.42132568 251.41746521 345.42132568 C251.41746521 258.96132568 251.41746521 172.50132568 251.41746521 83.42132568 C227.32746521 83.42132568 203.23746521 83.42132568 178.41746521 83.42132568 C163.81746892 65.17133032 174.41746521 36.79272321 174.41746521 13.42132568 C117.65746521 13.42132568 60.89746521 13.42132568 2.41746521 13.42132568 C2.41746521 57.64132568 2.41746521 101.86132568 2.41746521 147.42132568 C-1.87253479 147.42132568 -6.16253479 147.42132568 -10.58253479 147.42132568 C-10.65193155 128.69789122 -10.70549288 109.97449299 -10.73797131 91.25095654 C-10.7534513 82.55762038 -10.77456237 73.86436552 -10.80885315 65.17108154 C-10.83872093 57.59549939 -10.85810155 50.0199761 -10.86480027 42.44433671 C-10.868717 38.43172662 -10.87794517 34.41928495 -10.89972496 30.40672874 C-10.92004883 26.63190846 -10.92637698 22.85732639 -10.92185783 19.08245659 C-10.92268488 17.69529171 -10.92867508 16.30811908 -10.94015121 14.92100143 C-10.95502929 13.03035457 -10.94971177 11.13958063 -10.94329834 9.24888611 C-10.94606372 8.18974597 -10.9488291 7.13060583 -10.95167828 6.03937054 C-10.58253479 3.42132568 -10.58253479 3.42132568 -9.53389549 1.58343601 C-6.50387812 -0.22105584 -3.42728887 -0.01217912 0 0 Z " fill="#F9FBF9" transform="translate(138.58253479003906,76.57867431640625)"></path><path d="M0 0 C0.72661333 -0.00467997 1.45322666 -0.00935994 2.20185858 -0.01418173 C4.64326588 -0.02617381 7.08411621 -0.01665833 9.52552795 -0.00723267 C11.27315601 -0.01129654 13.0207815 -0.01663738 14.7684021 -0.02316284 C19.5204714 -0.03686517 24.27234579 -0.03152552 29.02441859 -0.02202559 C33.99269441 -0.01444287 38.96095328 -0.02147084 43.92922974 -0.02618408 C52.27451073 -0.0316462 60.61971216 -0.0244386 68.96498108 -0.01016235 C78.61768568 0.00615968 88.27020016 0.00088072 97.92290014 -0.01564157 C106.2040752 -0.02924983 114.48519297 -0.03117917 122.7663756 -0.02332556 C127.71511073 -0.01864473 132.66375647 -0.01803536 137.61248589 -0.02793503 C142.26560692 -0.03659262 146.91848258 -0.03060489 151.57157707 -0.01325226 C153.28081861 -0.00928072 154.99008074 -0.01043284 156.69931412 -0.01704025 C159.02988467 -0.02521981 161.35966552 -0.01497826 163.69018555 0 C164.99523513 0.00113108 166.30028471 0.00226215 167.64488125 0.00342751 C171.18875158 0.41335877 172.65112002 0.61187702 174.90858459 3.38095093 C175.31019364 5.98640308 175.4491558 8.17516547 175.41651917 10.7828064 C175.42275913 11.54279371 175.42899909 12.30278103 175.43542814 13.08579826 C175.45142226 15.64022439 175.43872941 18.19370471 175.42616272 20.74813843 C175.43158101 22.57620807 175.43870201 24.40427335 175.44740295 26.23233032 C175.46567417 31.20337837 175.45855314 36.17409522 175.44588661 41.14514923 C175.43577858 46.3407838 175.44514616 51.5363895 175.45143127 56.73202515 C175.4587141 65.45815131 175.44910332 74.18414217 175.43006897 82.9102478 C175.40829904 93.0072228 175.41534996 103.10387474 175.43737459 113.2008419 C175.45551051 121.86077838 175.45809577 130.52061746 175.44761992 139.18056679 C175.44137503 144.35677004 175.44057664 149.53282132 175.45376587 154.70901489 C175.46529746 159.57477739 175.45734804 164.44012229 175.43418884 169.30583954 C175.42888732 171.0945135 175.43044008 172.88322245 175.4392395 174.67188263 C175.4501221 177.10809909 175.43652129 179.54296573 175.41651917 181.97909546 C175.42544205 182.69202696 175.43436494 183.40495846 175.44355822 184.13949394 C175.39546884 187.14553078 175.25675941 188.95471514 173.32519531 191.31933689 C170.02055781 192.77105997 167.3460838 192.76186223 163.73487854 192.76863098 C163.01149434 192.77401652 162.28811013 192.77940206 161.54280519 192.78495079 C159.11833477 192.79926094 156.69440798 192.79211937 154.26991272 192.78500366 C152.53198812 192.7907056 150.79406727 192.79766918 149.05615234 192.80580139 C144.33514295 192.82376625 139.61431908 192.82255832 134.89328575 192.81685901 C130.95420313 192.81377234 127.01515641 192.8198537 123.07607889 192.82589775 C113.78535389 192.83995194 104.49472083 192.83837391 95.20399475 192.82699585 C85.61314482 192.81550994 76.02257437 192.82959621 66.43176126 192.85639232 C58.20151754 192.87852774 49.97136168 192.88519169 41.7410903 192.87931591 C36.82363284 192.87594041 31.9063546 192.87840083 26.98892212 192.89556694 C22.36610327 192.91099995 17.74369953 192.90712127 13.12089729 192.8882618 C11.42293949 192.88456596 9.72495117 192.88771325 8.02702141 192.89814758 C5.71162846 192.91129176 3.39762319 192.89987029 1.08229065 192.88215637 C-0.21408577 192.88194709 -1.51046219 192.8817378 -2.84612274 192.88152218 C-6.09141541 192.38095093 -6.09141541 192.38095093 -8.50844669 190.81738472 C-10.64078215 187.53539049 -10.64415976 184.68577194 -10.59262085 180.89680481 C-10.60092244 179.76166753 -10.60092244 179.76166753 -10.60939175 178.60359818 C-10.62301267 176.06607705 -10.60802194 173.52953707 -10.59312439 170.99203491 C-10.59690702 169.17367128 -10.6024066 167.35531053 -10.60949707 165.53695679 C-10.62347525 160.59694492 -10.61226577 155.65728041 -10.59578586 150.71728778 C-10.58195246 145.55236193 -10.5883934 140.3874566 -10.59191895 135.22251892 C-10.59462218 126.54944244 -10.58113488 117.87650427 -10.55796814 109.20346069 C-10.53134933 99.16842187 -10.52961355 89.1336142 -10.5413565 79.09855217 C-10.55212536 69.45350456 -10.54595477 59.80854078 -10.53180122 50.16349983 C-10.52603451 46.05468839 -10.52612945 41.94593814 -10.53086662 37.83712578 C-10.53562939 33.00177222 -10.52556388 28.1666727 -10.50391197 23.33136749 C-10.49833467 21.55398223 -10.49788742 19.7765726 -10.50286484 17.99918556 C-10.50879488 15.57854371 -10.49635726 13.15868459 -10.47909546 10.7381134 C-10.4851055 10.02975497 -10.49111555 9.32139654 -10.49730772 8.5915727 C-10.46218136 5.89492106 -10.3388923 3.82416205 -9.01039886 1.44493771 C-6.01929408 -0.21349032 -3.40110472 0.00294856 0 0 Z M2.90858459 13.38095093 C2.90858459 68.16095093 2.90858459 122.94095093 2.90858459 179.38095093 C55.70858459 179.38095093 108.50858459 179.38095093 162.90858459 179.38095093 C162.90858459 124.60095093 162.90858459 69.82095093 162.90858459 13.38095093 C110.10858459 13.38095093 57.30858459 13.38095093 2.90858459 13.38095093 Z " fill="#FCFDFB" transform="translate(183.09141540527344,191.61904907226563)"></path><path d="M0 0 C0.95755692 -0.00845947 1.91511383 -0.01691895 2.90168762 -0.02563477 C3.95060181 -0.01956207 4.99951599 -0.01348938 6.08021545 -0.00723267 C7.18613541 -0.01248962 8.29205536 -0.01774658 9.43148804 -0.02316284 C13.09717317 -0.0363959 16.76242608 -0.02761215 20.42811584 -0.01748657 C22.97015466 -0.01950649 25.51219291 -0.02241724 28.05422974 -0.02618408 C33.38652081 -0.03061206 38.71865624 -0.02444678 44.05091858 -0.01016235 C50.21363922 0.00615624 56.37606199 0.00088228 62.53877538 -0.01564157 C68.4681521 -0.03090295 74.39743636 -0.02927832 80.32682991 -0.02049637 C82.84945785 -0.0184924 85.37209336 -0.02096048 87.89471245 -0.02793503 C91.41899219 -0.03553926 94.94269733 -0.02395852 98.4669342 -0.00723267 C99.51382416 -0.01330536 100.56071411 -0.01937805 101.639328 -0.02563477 C102.59970474 -0.01717529 103.56008148 -0.00871582 104.54956055 0 C105.38265212 0.00113108 106.21574369 0.00226215 107.07408047 0.00342751 C109.92724136 0.47915361 111.29117764 1.35133616 113.33827209 3.38095093 C113.74301112 6.40962067 113.89914391 9.06987573 113.86952209 12.09970093 C113.87526245 13.38112976 113.87526245 13.38112976 113.88111877 14.68844604 C113.88383984 16.49400003 113.87646494 18.2995933 113.85975647 20.10507202 C113.83834833 22.87110149 113.85955013 25.63453364 113.88514709 28.40048218 C113.88250385 30.15439417 113.87737894 31.90830454 113.86952209 33.66220093 C113.87761902 34.4903833 113.88571594 35.31856567 113.89405823 36.17184448 C113.7999768 41.92403711 113.7999768 41.92403711 111.60242462 44.09878635 C109.02029263 45.56101919 107.54293653 45.75994002 104.59425354 45.76863098 C103.64373611 45.77853561 102.69321869 45.78844025 101.71389771 45.79864502 C100.67792953 45.79414337 99.64196136 45.78964172 98.57460022 45.78500366 C96.93013161 45.79529854 96.93013161 45.79529854 95.25244141 45.80580139 C91.62467031 45.82411907 87.99732956 45.82022499 84.36952209 45.81454468 C81.85133218 45.81910376 79.33314351 45.82440851 76.81495667 45.83042908 C71.53574189 45.83936972 66.25663915 45.83715901 60.97743225 45.82699585 C54.87654275 45.81551033 48.77609263 45.82959775 42.67526102 45.85639232 C36.8029955 45.88121648 30.93090109 45.88372838 25.05859375 45.87727547 C22.56107858 45.87712182 20.06355512 45.88320135 17.56607056 45.89556694 C14.07769344 45.9104056 10.59029012 45.89985162 7.10194397 45.88265991 C6.0659758 45.89232788 5.03000763 45.90199585 3.96264648 45.91195679 C-2.98342351 45.84009214 -2.98342351 45.84009214 -6.30310059 43.59301758 C-8.41422876 40.15575692 -8.21264774 36.69319837 -8.15782166 32.78329468 C-8.15927689 31.95261978 -8.16073212 31.12194489 -8.16223145 30.26609802 C-8.16057429 28.51357508 -8.14903339 26.76103732 -8.12828064 25.00863647 C-8.09928968 22.32417151 -8.10768166 19.64167743 -8.12071228 16.9571228 C-8.11447571 15.25333715 -8.1060854 13.54955774 -8.09532166 11.84579468 C-8.09825729 11.04262314 -8.10119293 10.2394516 -8.10421753 9.41194153 C-8.01009761 3.86417192 -8.01009761 3.86417192 -6.4278326 1.66942406 C-4.14718072 0.00555969 -2.81030926 0.00381725 0 0 Z " fill="#FBFCFB" transform="translate(212.66172790527344,223.61904907226563)"></path><path d="M0 0 C31.35 0 62.7 0 95 0 C95 6.27 95 12.54 95 19 C63.65 19 32.3 19 0 19 C0 12.73 0 6.46 0 0 Z " fill="#448B26" transform="translate(218,237)"></path><path d="M0 0 C4.05742048 2.70494699 6.70146694 4.46871302 9.875 7.8125 C12.36029118 10.36307087 14.85835093 12.80799592 17.5625 15.125 C21.60355233 18.6001456 25.48784714 22.23010187 29.375 25.875 C39.27567973 35.34376382 39.27567973 35.34376382 49.7734375 44.1171875 C50.50820313 44.73851562 51.24296875 45.35984375 52 46 C52 46.66 52 47.32 52 48 C34.84 48 17.68 48 0 48 C0 32.16 0 16.32 0 0 Z " fill="#559931" transform="translate(327,99)"></path><path d="M0 0 C25.41 0 50.82 0 77 0 C77 4.29 77 8.58 77 13 C51.59 13 26.18 13 0 13 C0 8.71 0 4.42 0 0 Z " fill="#F8FAF7" transform="translate(83,237)"></path><path d="M0 0 C23.1 0 46.2 0 70 0 C70 3.96 70 7.92 70 12 C46.9 12 23.8 12 0 12 C0 8.04 0 4.08 0 0 Z " fill="#FFFFFF" transform="translate(90,314)"></path><path d="M0 0 C16.83 0 33.66 0 51 0 C51 4.29 51 8.58 51 13 C34.17 13 17.34 13 0 13 C0 8.71 0 4.42 0 0 Z " fill="#FBFDFB" transform="translate(109,275)"></path><path d="M0 0 C10.89 0 21.78 0 33 0 C33 4.29 33 8.58 33 13 C22.11 13 11.22 13 0 13 C0 8.71 0 4.42 0 0 Z " fill="#F3F7F1" transform="translate(294,333)"></path><path d="M0 0 C10.89 0 21.78 0 33 0 C33 4.29 33 8.58 33 13 C22.11 13 11.22 13 0 13 C0 8.71 0 4.42 0 0 Z " fill="#F3F7F1" transform="translate(249,333)"></path><path d="M0 0 C10.89 0 21.78 0 33 0 C33 4.29 33 8.58 33 13 C22.11 13 11.22 13 0 13 C0 8.71 0 4.42 0 0 Z " fill="#F3F7F1" transform="translate(249,301)"></path><path d="M0 0 C10.56 0 21.12 0 32 0 C32 4.29 32 8.58 32 13 C21.44 13 10.88 13 0 13 C0 8.71 0 4.42 0 0 Z " fill="#F7FAF6" transform="translate(205,333)"></path><path d="M0 0 C10.56 0 21.12 0 32 0 C32 4.29 32 8.58 32 13 C21.44 13 10.88 13 0 13 C0 8.71 0 4.42 0 0 Z " fill="#F7FAF6" transform="translate(205,301)"></path><path d="M0 0 C10.23 0 20.46 0 31 0 C31 3.96 31 7.92 31 12 C20.77 12 10.54 12 0 12 C0 8.04 0 4.08 0 0 Z " fill="#FFFFFF" transform="translate(295,301)"></path></svg>