<svg version="1.1" xmlns="http://www.w3.org/2000/svg" width="16px" height="16px" fill="currentColor" viewBox="0 0 512 512"><path d="M0 0 C168.96 0 337.92 0 512 0 C512 168.96 512 337.92 512 512 C343.04 512 174.08 512 0 512 C0 343.04 0 174.08 0 0 Z " fill="#7646D3" transform="translate(0,0)"></path><path d="M0 0 C9.06015378 5.85531927 15.39850492 13.4874599 18.54296875 23.83203125 C20.94445007 35.78315316 17.99195596 46.0179848 12.04296875 56.3203125 C6.17134511 64.80154665 -3.00003287 70.01163023 -12.95703125 72.3203125 C-21.68131997 73.39577205 -28.4414219 72.35495727 -36.3359375 68.51171875 C-39.99939336 66.75709689 -39.99939336 66.75709689 -43.95703125 66.3203125 C-46.53136867 68.00953437 -48.61027455 70.13795433 -50.76953125 72.3203125 C-52.02539421 73.53842829 -53.28189892 74.75588281 -54.5390625 75.97265625 C-55.13541504 76.55901855 -55.73176758 77.14538086 -56.34619141 77.74951172 C-60.41510992 81.71729312 -64.80270128 85.33821856 -69.12890625 89.01953125 C-70.3219157 90.03610506 -71.51461428 91.05304378 -72.70703125 92.0703125 C-73.30708984 92.58223145 -73.90714844 93.09415039 -74.52539062 93.62158203 C-79.53728684 97.91768492 -84.40762135 102.34944345 -89.23828125 106.84765625 C-92.07917166 109.4313971 -94.99107996 111.88212607 -97.95703125 114.3203125 C-97.54453125 115.5165625 -97.13203125 116.7128125 -96.70703125 117.9453125 C-95.36381162 122.01334911 -94.06968983 126.09387458 -92.83203125 130.1953125 C-92.33316406 131.83113281 -92.33316406 131.83113281 -91.82421875 133.5 C-90.72202004 138.35563217 -90.40782296 143.36160374 -89.95703125 148.3203125 C-72.79703125 148.6503125 -55.63703125 148.9803125 -37.95703125 149.3203125 C-37.29703125 146.0203125 -36.63703125 142.7203125 -35.95703125 139.3203125 C-31.56575268 129.50112565 -22.61980507 122.48530122 -12.95703125 118.3203125 C-4.27065272 115.42485299 7.88826176 116.17347334 16.078125 120.19140625 C16.72652344 120.56394531 17.37492187 120.93648438 18.04296875 121.3203125 C19.09484375 121.9184375 20.14671875 122.5165625 21.23046875 123.1328125 C29.62318163 129.66047807 35.12249424 136.98929475 38.04296875 147.3203125 C39.17742607 158.21637931 37.68023503 168.5405564 31.29296875 177.6328125 C23.91338681 186.48096796 15.51290123 192.63617966 3.76171875 193.87109375 C-8.088142 194.6138563 -16.64718425 191.85768333 -26.1640625 184.6484375 C-33.37274939 178.05225342 -36.75620384 170.9269318 -37.95703125 161.3203125 C-55.11703125 161.6503125 -72.27703125 161.9803125 -89.95703125 162.3203125 C-90.94703125 169.7453125 -90.94703125 169.7453125 -91.95703125 177.3203125 C-92.9567134 180.51484134 -93.93094274 183.45051712 -95.20703125 186.5078125 C-97.44079908 191.35842226 -97.44079908 191.35842226 -97.4375 196.515625 C-95.46842131 198.91592673 -93.33911126 200.94115656 -91.01953125 203.0078125 C-90.53009033 203.44569092 -90.04064941 203.88356934 -89.53637695 204.3347168 C-86.31255006 207.19512109 -83.00349448 209.93168776 -79.64453125 212.6328125 C-73.9050792 217.26219861 -68.56182142 222.2636112 -63.1875 227.3046875 C-60.10585519 230.19311737 -56.9727057 233.01011243 -53.7578125 235.75 C-52.43129938 236.90674246 -51.14190198 238.10638463 -49.875 239.328125 C-49.18019531 239.98554688 -48.48539063 240.64296875 -47.76953125 241.3203125 C-47.15722656 241.9184375 -46.54492188 242.5165625 -45.9140625 243.1328125 C-43.98688555 244.56210258 -43.98688555 244.56210258 -41.50390625 244.1328125 C-39.02798109 243.3429468 -36.74282538 242.43115772 -34.39453125 241.3203125 C-25.26746269 237.01777758 -15.71603069 236.97476922 -6.20703125 240.3828125 C5.30334782 245.36139815 11.67034525 252.35721238 17.140625 263.5703125 C21.07520851 273.5257238 19.73082024 283.68364195 15.5859375 293.30859375 C9.99705424 304.2175279 1.64748395 310.76873961 -9.9375 314.625 C-20.72943679 317.11007729 -30.99903227 315.63136805 -40.390625 309.8125 C-49.50299889 303.20487644 -56.0800021 294.53394357 -57.95703125 283.3203125 C-58.72997974 274.47557338 -57.97752237 267.80529494 -53.953125 259.84375 C-52.83128934 257.46058456 -52.83128934 257.46058456 -52.96875 255.30859375 C-54.4673304 252.29366323 -56.83799961 250.31561981 -59.33203125 248.1328125 C-59.8736792 247.64723877 -60.41532715 247.16166504 -60.97338867 246.66137695 C-64.32851127 243.67790473 -67.7684441 240.81921181 -71.26953125 238.0078125 C-75.87044693 234.30981822 -80.1718383 230.37297142 -84.45703125 226.3203125 C-91.2604287 219.88946768 -98.14754078 213.52663948 -105.95703125 208.3203125 C-106.41851562 208.99835938 -106.88 209.67640625 -107.35546875 210.375 C-121.61090425 230.71575974 -142.52397254 244.95586345 -166.96875 249.93359375 C-191.87193869 254.18535767 -217.21863832 250.47747128 -238.40625 236.1640625 C-261.88523646 219.193034 -276.10393113 197.48977912 -281.56445312 168.95800781 C-285.11498423 145.10232492 -279.14217279 119.83705464 -265.1875 100.16015625 C-261.0695596 94.91717434 -256.63541224 90.0662026 -251.95703125 85.3203125 C-250.88001953 84.22396484 -250.88001953 84.22396484 -249.78125 83.10546875 C-232.52576715 66.69488713 -208.51721697 58.6249629 -184.96508789 58.91162109 C-173.86954932 59.29172363 -162.22062553 60.96312625 -151.95703125 65.3203125 C-151.35955078 65.5687793 -150.76207031 65.81724609 -150.14648438 66.07324219 C-131.41766797 73.9736247 -117.00138013 85.80918523 -104.95703125 102.3203125 C-104.18359375 101.60746094 -103.41015625 100.89460938 -102.61328125 100.16015625 C-95.77814435 93.87020026 -88.89389535 87.66145581 -81.8125 81.6484375 C-75.18051163 76.0078528 -68.65339633 70.29213725 -62.30786133 64.3293457 C-59.29633787 61.50856666 -56.21386634 58.85407044 -52.95703125 56.3203125 C-53.49688569 53.62104029 -54.34504867 51.43110592 -55.45703125 48.8828125 C-59.33383511 39.67540332 -59.54397559 28.35788477 -56.01953125 19.0078125 C-50.79120906 8.09589287 -42.24309624 0.57237027 -31.05078125 -3.8203125 C-20.96114427 -6.62298944 -9.18521885 -4.95011794 0 0 Z " fill="#FCFBFE" transform="translate(377.95703125,100.6796875)"></path><path d="M0 0 C17.16572651 16.41017929 26.79975703 36.65140344 27.46875 60.46801758 C27.73617916 82.67090554 20.27156393 102.73917174 5.125 119.125 C4.53976563 119.77855469 3.95453125 120.43210937 3.3515625 121.10546875 C-9.82419315 135.11630751 -29.84423251 144.25182901 -48.98925781 145.23339844 C-72.29159329 145.87980247 -93.58369749 140.79386652 -111.1875 124.6875 C-113.11473833 122.86137176 -114.99566256 121.00160187 -116.875 119.125 C-117.54402344 118.46757812 -118.21304688 117.81015625 -118.90234375 117.1328125 C-134.21049896 100.95684804 -139.52972572 79.14404759 -139.0546875 57.48046875 C-138.22038538 33.76465839 -127.14706703 14.75127214 -110.28515625 -1.34765625 C-79.42234974 -28.40482346 -30.21017113 -27.71498759 0 0 Z " fill="#7142CE" transform="translate(247.875,193.875)"></path><path d="M0 0 C7.09921337 4.04038832 12.40946827 10.09388989 14.6875 18 C16.056264 26.79919717 13.70635993 33.73167219 8.6875 41 C3.2235672 46.50653656 -2.7212566 49.2764298 -10.5 49.4375 C-17.97305974 49.302241 -23.55320659 47.35309857 -29.15625 42.35546875 C-35.35586561 35.62402337 -36.97419499 29.32095341 -36.71484375 20.28515625 C-35.79563927 12.77980706 -32.63848342 7.72692478 -26.8125 3 C-18.70114573 -2.94071017 -9.29732449 -4.22217947 0 0 Z " fill="#7647D2" transform="translate(369.3125,354)"></path><path d="M0 0 C6.82934022 4.04127968 9.43941629 9.21086384 12.89453125 16.12109375 C13.82624458 24.53313412 12.86971563 31.17506338 7.89453125 38.12109375 C2.97213817 43.57897729 -2.45191434 47.60617763 -9.9296875 48.43359375 C-18.26920399 48.76843005 -23.11725343 46.84033147 -29.85546875 42.24609375 C-34.53901308 37.82274633 -37.67748459 32.55848234 -38.4765625 26.140625 C-38.65671762 17.44019268 -37.36620487 10.89797605 -31.4609375 4.27734375 C-22.52528045 -3.95233588 -10.82189242 -5.63518362 0 0 Z " fill="#8A55E6" transform="translate(371.10546875,111.87890625)"></path><path d="M0 0 C6.33819556 3.32843789 11.88308137 9.70534191 14.0625 16.5 C15.10275379 25.20774244 14.29280833 32.31620302 9.0625 39.5 C4.01402938 45.07716056 -0.68316715 48.0755538 -8.3046875 48.8359375 C-16.78254997 48.93034577 -22.51828545 48.54349186 -28.8671875 42.734375 C-34.48350011 36.81510776 -36.99135704 31.25852927 -37.4375 23.125 C-37.20362223 16.08917723 -34.75446948 10.56686194 -30 5.390625 C-21.65085244 -2.26276026 -10.78832369 -4.1964908 0 0 Z " fill="#814FDD" transform="translate(388.9375,232.5)"></path></svg>