<svg version="1.1" xmlns="http://www.w3.org/2000/svg" width="16px" height="16px" fill="currentColor" viewBox="0 0 512 512"><path d="M0 0 C168.96 0 337.92 0 512 0 C512 168.96 512 337.92 512 512 C343.04 512 174.08 512 0 512 C0 343.04 0 174.08 0 0 Z " fill="#438926" transform="translate(0,0)"></path><path d="M0 0 C0.89050049 0.00346436 1.78100098 0.00692871 2.69848633 0.01049805 C9.30678051 0.11960151 15.09237175 1.01105255 21.3125 3.3125 C23.04107107 3.87682761 24.77020997 4.4394199 26.5 5 C27.758125 5.433125 29.01625 5.86625 30.3125 6.3125 C30.3125 9.2825 30.3125 12.2525 30.3125 15.3125 C29.63445312 15.11914062 28.95640625 14.92578125 28.2578125 14.7265625 C25.28285631 13.89423404 22.30021788 13.09773355 19.3125 12.3125 C18.53390625 12.09980469 17.7553125 11.88710937 16.953125 11.66796875 C6.73920551 9.22015011 -6.00152305 8.33925423 -15.6640625 12.97265625 C-19.52688963 15.53047421 -22.81735074 18.73942059 -24.32421875 23.1953125 C-25.28432846 28.7907906 -25.35739955 34.3733171 -23.5 39.75 C-20.10814752 44.54537765 -15.69151286 47.00599172 -10.4375 49.4375 C-9.81270752 49.72898926 -9.18791504 50.02047852 -8.54418945 50.32080078 C-4.25501754 52.27708779 0.09230099 54.01056175 4.50390625 55.671875 C5.59477539 56.08808105 6.68564453 56.50428711 7.80957031 56.93310547 C9.96672593 57.74926641 12.13126347 58.54626152 14.30371094 59.32080078 C23.50923576 62.80959289 31.67408626 68.06358608 35.9375 77.25 C38.69912213 85.71810199 37.96112315 94.2159087 34.3125 102.3125 C30.71451932 108.15108364 26.41293317 113.09052365 20.3125 116.3125 C19.20841797 116.9003125 19.20841797 116.9003125 18.08203125 117.5 C3.5138294 123.69740345 -15.26471419 121.86449771 -29.7734375 116.50390625 C-30.73507813 116.11074219 -31.69671875 115.71757812 -32.6875 115.3125 C-33.6775 114.9825 -34.6675 114.6525 -35.6875 114.3125 C-35.6875 111.3425 -35.6875 108.3725 -35.6875 105.3125 C-34.99785156 105.50585938 -34.30820313 105.69921875 -33.59765625 105.8984375 C-32.65792969 106.15882813 -31.71820313 106.41921875 -30.75 106.6875 C-29.37521484 107.07035156 -29.37521484 107.07035156 -27.97265625 107.4609375 C-26.88855469 107.74195313 -25.80445313 108.02296875 -24.6875 108.3125 C-23.69617065 108.57716064 -23.69617065 108.57716064 -22.68481445 108.84716797 C-16.67748845 110.33612328 -10.92512933 110.67892938 -4.75 110.6875 C-3.36264648 110.72423828 -3.36264648 110.72423828 -1.94726562 110.76171875 C6.07171217 110.79543555 13.251929 108.85119066 19.75 104 C24.63921136 98.87229052 25.51109251 94.72900865 25.8125 87.8125 C25.65009095 83.08098314 25.48299042 79.44393602 22.2578125 75.83984375 C14.87177725 70.04076788 5.61030568 67.01342655 -3.04907227 63.66430664 C-28.72553069 53.71074451 -28.72553069 53.71074451 -34.75 41.0859375 C-37.1886084 33.87172098 -36.84568253 24.70942214 -33.625 17.8125 C-29.23792718 10.39391056 -23.69810947 5.47182448 -15.6875 2.3125 C-14.81609375 1.95414063 -13.9446875 1.59578125 -13.046875 1.2265625 C-8.64345875 0.02842366 -4.54364766 -0.02851217 0 0 Z " fill="#F9FBF8" transform="translate(190.6875,191.6875)"></path><path d="M0 0 C21.45 0 42.9 0 65 0 C65 2.97 65 5.94 65 9 C46.85 9 28.7 9 10 9 C10 23.19 10 37.38 10 52 C25.18 52 40.36 52 56 52 C56 54.97 56 57.94 56 61 C40.82 61 25.64 61 10 61 C10 78.82 10 96.64 10 115 C6.7 115 3.4 115 0 115 C0 77.05 0 39.1 0 0 Z " fill="#F7FAF6" transform="translate(83,195)"></path><path d="M0 0 C1.45442505 0.00410889 1.45442505 0.00410889 2.93823242 0.00830078 C9.52628413 0.10462218 16.16188596 0.34729941 22.1875 3.3125 C23.1875 5.3125 23.1875 5.3125 22.41015625 7.9140625 C22.02730469 8.91179687 21.64445312 9.90953125 21.25 10.9375 C20.86972656 11.94039063 20.48945313 12.94328125 20.09765625 13.9765625 C19.79730469 14.74742187 19.49695313 15.51828125 19.1875 16.3125 C18.67445313 16.168125 18.16140625 16.02375 17.6328125 15.875 C6.14971583 13.09121899 -7.86219391 12.3792563 -18.8125 17.3125 C-20.16214844 17.91578125 -20.16214844 17.91578125 -21.5390625 18.53125 C-35.05698207 25.23435061 -43.22275713 36.41568461 -48.06640625 50.484375 C-49.28017759 55.08526741 -49.5659704 59.56680513 -49.8125 64.3125 C-54.1025 64.3125 -58.3925 64.3125 -62.8125 64.3125 C-63.66770046 50.45825251 -59.75487075 38.65874394 -51.8125 27.3125 C-51.28914063 26.54421875 -50.76578125 25.7759375 -50.2265625 24.984375 C-43.95061788 16.32180355 -36.12988264 10.73041532 -26.6875 5.9375 C-26.03080322 5.60355225 -25.37410645 5.26960449 -24.69750977 4.92553711 C-16.5064584 0.9501823 -9.06784669 -0.05140238 0 0 Z " fill="#FAFCF9" transform="translate(358.8125,245.6875)"></path><path d="M0 0 C2 1 4 2 6 3 C4.67116216 5.84201859 3.17328895 8.23221169 1.234375 10.6953125 C0.68064209 11.40260498 0.12690918 12.10989746 -0.44360352 12.83862305 C-1.03971436 13.59312744 -1.6358252 14.34763184 -2.25 15.125 C-3.51437136 16.73824328 -4.77869279 18.3515257 -6.04296875 19.96484375 C-6.69442871 20.7935498 -7.34588867 21.62225586 -8.01708984 22.47607422 C-11.2089119 26.53875046 -14.38660723 30.61236759 -17.5625 34.6875 C-18.13323242 35.41662598 -18.70396484 36.14575195 -19.29199219 36.89697266 C-20.87233741 38.92316423 -22.44085631 40.95745813 -24 43 C-24.48637939 43.63615234 -24.97275879 44.27230469 -25.47387695 44.92773438 C-27.74346524 47.98368477 -29.26224304 50.4241339 -30.0625 54.125 C-31.0371939 58.15373478 -32.14775516 60.05862251 -35 63 C-38.70221166 64.85110583 -42.95906917 64.46454795 -47 64 C-50.50252011 61.95686327 -52.77361702 59.90212767 -54 56 C-54.480151 51.67864101 -54.29173086 49.5331633 -52.1875 45.6875 C-49.55937388 42.45865933 -47.91566862 41.17954287 -43.8125 40.375 C-39.53627361 39.23407405 -37.20473071 36.56518819 -34.28515625 33.36328125 C-32.42275825 31.43721152 -30.5610271 29.74065042 -28.52734375 28.0078125 C-22.55118874 22.83754029 -17.06229815 17.1686153 -11.5 11.5625 C-10.38044368 10.4379167 -9.26065371 9.31356595 -8.140625 8.18945312 C-5.42438466 5.46230656 -2.71131708 2.73204093 0 0 Z " fill="#FAFCFA" transform="translate(401,252)"></path><path d="M0 0 C1.72283203 0.12181641 1.72283203 0.12181641 3.48046875 0.24609375 C4.64191406 0.30925781 5.80335938 0.37242187 7 0.4375 C8.32064453 0.55931641 8.32064453 0.55931641 9.66796875 0.68359375 C8.39554223 3.34508284 7.01196213 5.75593202 5.3046875 8.16015625 C4.83603271 8.82249268 4.36737793 9.4848291 3.88452148 10.16723633 C3.37993408 10.87388428 2.87534668 11.58053223 2.35546875 12.30859375 C1.57055054 13.41400513 1.57055054 13.41400513 0.76977539 14.54174805 C-15.19171782 36.97954681 -15.19171782 36.97954681 -19.00512695 41.79736328 C-20.52627895 43.55987698 -20.52627895 43.55987698 -20.27734375 45.59375 C-18.5170311 49.48535029 -15.61002302 52.6197943 -12.94921875 55.9296875 C-11.33203125 58.68359375 -11.33203125 58.68359375 -11.4921875 61.23046875 C-11.76933594 62.04 -12.04648437 62.84953125 -12.33203125 63.68359375 C-12.58082031 64.49441406 -12.82960938 65.30523437 -13.0859375 66.140625 C-13.35277344 66.91792969 -13.61960937 67.69523437 -13.89453125 68.49609375 C-14.29865234 69.68138672 -14.29865234 69.68138672 -14.7109375 70.890625 C-14.91589844 71.48230469 -15.12085938 72.07398438 -15.33203125 72.68359375 C-20.19382944 68.21297472 -23.89764624 63.05879959 -27.70703125 57.68359375 C-28.36058594 56.79414063 -29.01414062 55.9046875 -29.6875 54.98828125 C-30.29980469 54.12460937 -30.91210938 53.2609375 -31.54296875 52.37109375 C-32.10290527 51.59121094 -32.6628418 50.81132812 -33.23974609 50.0078125 C-34.61304276 47.08564346 -34.3213155 45.71086014 -33.33203125 42.68359375 C-31.828125 40.37890625 -31.828125 40.37890625 -29.76953125 37.80859375 C-24.9883829 31.6416053 -20.52074334 25.28847223 -16.08203125 18.87109375 C-12.02527251 13.00703826 -12.02527251 13.00703826 -10.07299805 10.22241211 C-8.99946938 8.65690592 -7.95895971 7.06740448 -6.97583008 5.44360352 C-4.89245598 2.0962453 -3.9475202 0.8098664 0 0 Z " fill="#FAFCF9" transform="translate(303.33203125,215.31640625)"></path><path d="M0 0 C0.66 0 1.32 0 2 0 C6.08754384 5.02183958 6.08754384 5.02183958 5.78173828 8.4387207 C4.95561845 11.14541127 3.92486179 12.98088349 2.3046875 15.29296875 C1.75748047 16.08405029 1.21027344 16.87513184 0.64648438 17.69018555 C0.06189453 18.51429932 -0.52269531 19.33841309 -1.125 20.1875 C-2.32640443 21.88479157 -3.52693391 23.58270282 -4.7265625 25.28125 C-5.30051758 26.09335937 -5.87447266 26.90546875 -6.46582031 27.7421875 C-8.1493538 30.15324779 -8.1493538 30.15324779 -9.9609375 33.46875 C-11.47973307 36.15169851 -12.58319913 38.08289553 -15 40 C-19.4554841 40.79430708 -23.53043619 40.60490337 -28 40 C-26.72757348 37.33851091 -25.34399338 34.92766173 -23.63671875 32.5234375 C-22.93349487 31.52957031 -22.93349487 31.52957031 -22.21606445 30.515625 C-21.71163818 29.80921875 -21.20721191 29.1028125 -20.6875 28.375 C-20.16567139 27.64023437 -19.64384277 26.90546875 -19.10620117 26.1484375 C-15.02888834 20.41757133 -10.92488315 14.70573769 -6.8125 9 C-6.24813232 8.2167334 -5.68376465 7.4334668 -5.10229492 6.62646484 C-4.3188269 5.54292725 -4.3188269 5.54292725 -3.51953125 4.4375 C-3.05651611 3.79683594 -2.59350098 3.15617187 -2.11645508 2.49609375 C-1 1 -1 1 0 0 Z " fill="#FAFCF9" transform="translate(262,270)"></path><path d="M0 0 C8.52820962 8.52820962 12.06456439 20.20201124 12.125 32.0625 C12.08375 33.691875 12.0425 35.32125 12 37 C7.71 37 3.42 37 -1 37 C-1.061875 35.2675 -1.12375 33.535 -1.1875 31.75 C-1.75346365 24.81079347 -3.99863552 19.2230126 -7 13 C-7.32871094 12.31164062 -7.65742188 11.62328125 -7.99609375 10.9140625 C-8.64168895 9.59816032 -9.31585354 8.2962775 -10 7 C-6.7 4.69 -3.4 2.38 0 0 Z " fill="#F9FBF9" transform="translate(410,273)"></path><path d="M0 0 C4.94246644 -0.97406273 9.0858329 -1.22728431 14 0 C18.2712607 3.42734746 20.96823766 8.39783772 23.76269531 13.02880859 C26.11946139 16.78345131 28.98626415 20.15980627 31.734375 23.6328125 C33 26 33 26 32.86328125 28.59765625 C31.5765791 32.17829797 29.5448478 34.19414217 27 37 C22.43054359 32.81133163 19.1694756 28.08576411 15.75 22.9375 C11.18648806 16.15374285 6.50536195 9.52759664 1.51171875 3.0546875 C0 1 0 1 0 0 Z " fill="#F9FBF8" transform="translate(236,216)"></path></svg>