<svg version="1.1" xmlns="http://www.w3.org/2000/svg" width="16px" height="16px" fill="currentColor" viewBox="0 0 512 512"><path d="M0 0 C168.96 0 337.92 0 512 0 C512 168.96 512 337.92 512 512 C343.04 512 174.08 512 0 512 C0 343.04 0 174.08 0 0 Z " fill="#438A26" transform="translate(0,0)"></path><path d="M0 0 C5.76407033 4.86667016 9.85729399 10.25208807 13.171875 17.015625 C13.54441406 17.76199219 13.91695312 18.50835937 14.30078125 19.27734375 C17.28828478 28.6685544 16.14068267 40.61295507 11.84765625 49.33203125 C7.00048265 57.09428827 0.90429612 63.78139496 -7.828125 67.015625 C-12.283125 68.005625 -12.283125 68.005625 -16.828125 69.015625 C-16.828125 137.655625 -16.828125 206.295625 -16.828125 277.015625 C-10.888125 274.045625 -4.948125 271.075625 1.171875 268.015625 C1.831875 268.015625 2.491875 268.015625 3.171875 268.015625 C3.16910962 267.27625293 3.16634424 266.53688086 3.16349506 265.77510357 C3.09729053 247.79851151 3.0476214 229.82194373 3.01643848 211.84525585 C3.00095849 203.1519197 2.97984742 194.45866484 2.94555664 185.76538086 C2.91568886 178.18979871 2.89630824 170.61427542 2.88960952 163.03863603 C2.88569279 159.02602594 2.87646462 155.01358426 2.85468483 151.00102806 C2.83436096 147.22620778 2.82803281 143.4516257 2.83255196 139.67675591 C2.83172491 138.28959103 2.82573471 136.9024184 2.81425858 135.51530075 C2.7993805 133.62465389 2.80469802 131.73387995 2.81111145 129.84318542 C2.80834607 128.78404529 2.80558069 127.72490515 2.80273151 126.63366985 C3.171875 124.015625 3.171875 124.015625 4.57221985 122.1739502 C6.63080006 120.68331309 7.83944782 120.6522698 10.36791992 120.67504883 C11.62888741 120.67538872 11.62888741 120.67538872 12.91532898 120.67573547 C13.81854385 120.69121933 14.72175873 120.70670319 15.65234375 120.72265625 C16.58033279 120.72690109 17.50832184 120.73114594 18.46443176 120.73551941 C21.42970743 120.75231838 24.3943046 120.78997284 27.359375 120.828125 C29.36913081 120.84317026 31.37889727 120.85685894 33.38867188 120.86914062 C38.31666786 120.90222592 43.24415638 120.95401667 48.171875 121.015625 C48.44342407 119.91589355 48.44342407 119.91589355 48.72045898 118.79394531 C51.56623524 107.74725071 56.02630928 100.67247512 65.75390625 94.41796875 C74.47208724 89.36170546 84.51350379 87.38098106 94.49609375 89.51171875 C104.53906164 92.61399679 113.56773675 97.74296001 118.90234375 107.02734375 C124.46041726 117.9718638 126.20089891 128.4649238 122.609375 140.390625 C118.868517 150.15623325 112.06329787 157.81603581 102.546875 162.234375 C91.72269514 166.63956448 81.75771157 167.87672697 70.66796875 163.2734375 C59.59990561 157.69610365 52.25078156 148.65084695 48.171875 137.015625 C48.171875 136.025625 48.171875 135.035625 48.171875 134.015625 C37.281875 134.015625 26.391875 134.015625 15.171875 134.015625 C15.171875 175.925625 15.171875 217.835625 15.171875 261.015625 C32.661875 252.435625 50.151875 243.855625 68.171875 235.015625 C84.984375 226.890625 84.984375 226.890625 91.12890625 223.9453125 C99.5364589 219.47589037 105.3684569 212.69982426 109.171875 204.015625 C110.0915043 200.92567056 110.35738225 198.02887546 110.48828125 194.8125 C110.53017578 193.8328125 110.57207031 192.853125 110.61523438 191.84375 C110.67420898 190.32007813 110.67420898 190.32007813 110.734375 188.765625 C110.77755859 187.734375 110.82074219 186.703125 110.86523438 185.640625 C110.97113087 183.09910912 111.07198981 180.55738423 111.171875 178.015625 C115.461875 178.015625 119.751875 178.015625 124.171875 178.015625 C124.22622646 181.34918146 124.2657181 184.68183625 124.296875 188.015625 C124.31363281 188.95019531 124.33039063 189.88476562 124.34765625 190.84765625 C124.44373473 204.58687845 119.62021542 216.90713853 110.171875 227.015625 C102.99268662 232.94390574 95.27897489 237.29951238 86.921875 241.328125 C85.78347168 241.88733643 84.64506836 242.44654785 83.47216797 243.02270508 C75.53217668 246.91099312 67.55083403 250.71354374 59.56152344 254.49926758 C49.57355531 259.25379087 39.7003926 264.23498587 29.81549072 269.19894409 C19.39331009 274.43067401 8.95067039 279.60066176 -1.59936523 284.57128906 C-5.33070023 286.33026189 -9.03990679 288.09690881 -12.67578125 290.046875 C-14.26712891 290.89765625 -14.26712891 290.89765625 -15.890625 291.765625 C-16.72722656 292.23484375 -17.56382812 292.7040625 -18.42578125 293.1875 C-22.81762875 294.70143767 -26.2954378 293.25393148 -30.4206543 291.40844727 C-31.7522779 290.72480005 -33.079305 290.03214794 -34.40234375 289.33203125 C-35.47738411 288.77566986 -35.47738411 288.77566986 -36.57414246 288.20806885 C-38.89215945 287.00595437 -41.20386957 285.79223062 -43.515625 284.578125 C-45.12024274 283.74303638 -46.72522495 282.9086477 -48.33056641 282.07495117 C-52.83533901 279.73244532 -57.33277458 277.37615038 -61.828125 275.015625 C-62.82763184 274.49162109 -63.82713867 273.96761719 -64.85693359 273.42773438 C-67.84348424 271.86074969 -70.82856352 270.29110428 -73.80932617 268.71313477 C-80.32109199 265.26762794 -86.86518966 261.88536732 -93.41116333 258.50549316 C-118.19063689 245.71003023 -118.19063689 245.71003023 -126.81152344 241.09472656 C-128.14349864 240.3819747 -129.47745615 239.67291358 -130.81347656 238.96777344 C-145.59702679 231.13062048 -156.81971561 221.81540259 -162.265625 205.515625 C-164.55262061 196.77638219 -164.17221954 187.98119946 -163.828125 179.015625 C-159.538125 179.015625 -155.248125 179.015625 -150.828125 179.015625 C-150.77914062 180.2221875 -150.73015625 181.42875 -150.6796875 182.671875 C-150.60458968 184.28647806 -150.52904497 185.90106039 -150.453125 187.515625 C-150.4221875 188.30710937 -150.39125 189.09859375 -150.359375 189.9140625 C-150.00363532 197.14743596 -148.98566689 203.74923508 -145.203125 210.078125 C-144.53410156 211.24021484 -144.53410156 211.24021484 -143.8515625 212.42578125 C-138.56465105 219.19261965 -131.92027177 223.40975416 -124.30859375 227.16015625 C-123.4105452 227.61484787 -122.51249664 228.06953949 -121.5872345 228.53800964 C-118.73545073 229.97912584 -115.87598736 231.40412459 -113.015625 232.828125 C-110.20801064 234.23909756 -107.40209362 235.65340638 -104.59622192 237.06784058 C-102.73881406 238.00387491 -100.88080206 238.9387114 -99.02218628 239.87234497 C-92.86087255 242.97172438 -86.73147642 246.12635487 -80.62890625 249.33984375 C-79.90052048 249.72332474 -79.1721347 250.10680573 -78.42167664 250.50190735 C-72.52672011 253.62002125 -66.6839029 256.82156433 -60.828125 260.015625 C-60.828125 218.435625 -60.828125 176.855625 -60.828125 134.015625 C-71.718125 134.015625 -82.608125 134.015625 -93.828125 134.015625 C-94.158125 135.665625 -94.488125 137.315625 -94.828125 139.015625 C-99.74645841 151.35400466 -106.16198368 158.21449305 -118.09375 163.88671875 C-127.50837213 167.77361274 -137.31945314 166.57033545 -146.78515625 163.3359375 C-155.85762274 159.39948863 -162.84329576 152.15306974 -167.1484375 143.30078125 C-170.95550102 133.38378013 -171.60258942 122.74347321 -167.890625 112.703125 C-162.80839297 102.05053696 -154.51713937 94.52203235 -143.640625 90.203125 C-133.4963105 87.17028871 -123.31911209 88.63201801 -113.828125 93.015625 C-104.20395159 98.52232596 -96.77035568 107.29196846 -93.828125 118.015625 C-93.828125 119.005625 -93.828125 119.995625 -93.828125 121.015625 C-91.99652832 120.99205933 -91.99652832 120.99205933 -90.12792969 120.96801758 C-85.59560752 120.91369818 -81.06331411 120.87926754 -76.53076172 120.85083008 C-74.56944947 120.83574805 -72.60817092 120.81527953 -70.64697266 120.78930664 C-67.82706382 120.75289769 -65.00760108 120.73589284 -62.1875 120.72265625 C-61.31132019 120.70717239 -60.43514038 120.69168854 -59.53240967 120.67573547 C-58.71186096 120.67550888 -57.89131226 120.67528229 -57.04589844 120.67504883 C-56.32642029 120.66838699 -55.60694214 120.66172516 -54.86566162 120.65486145 C-52.09459342 121.14550314 -50.85147075 122.05971518 -48.828125 124.015625 C-48.33593369 126.61805248 -48.33593369 126.61805248 -48.34710693 129.80522156 C-48.34160828 131.01256958 -48.33610962 132.2199176 -48.33044434 133.46385193 C-48.34460084 134.80362334 -48.35914008 136.14339076 -48.37402344 137.4831543 C-48.3751516 138.89244555 -48.37451867 140.30173916 -48.37225342 141.71102905 C-48.37110409 145.53944702 -48.3946482 149.36736535 -48.42254925 153.19566703 C-48.44752678 157.19550794 -48.44990201 161.19535986 -48.45465088 165.19526672 C-48.46709144 172.77075289 -48.49992751 180.3460086 -48.54004884 187.92139322 C-48.58473308 196.54520811 -48.60674514 205.16903392 -48.62683058 213.79293573 C-48.66865931 231.53396289 -48.73903221 249.27477543 -48.828125 267.015625 C-46.848125 267.675625 -44.868125 268.335625 -42.828125 269.015625 C-38.208125 271.655625 -33.588125 274.295625 -28.828125 277.015625 C-28.828125 208.375625 -28.828125 139.735625 -28.828125 69.015625 C-32.128125 68.355625 -35.428125 67.695625 -38.828125 67.015625 C-47.69572038 63.04991153 -54.59716386 55.17077922 -58.828125 46.578125 C-62.4143973 36.93694775 -62.87653086 25.70150831 -58.72094727 16.17333984 C-53.09298921 4.93589119 -45.41279597 -1.36648547 -33.828125 -5.984375 C-21.88778791 -9.03975168 -10.09413056 -7.082622 0 0 Z " fill="#FCFDFC" transform="translate(278.828125,134.984375)"></path><path d="M0 0 C6.46153846 0.46153846 6.46153846 0.46153846 9 3 C9.2165625 4.36125 9.2165625 4.36125 9.4375 5.75 C12.00505702 11.09051861 16.77256512 12.6051345 22 15 C23.01578125 15.48339844 24.0315625 15.96679688 25.078125 16.46484375 C43.13765364 24.38163712 63.29465885 28.33177738 82.79199219 30.72802734 C84.9603991 30.99512214 87.12451647 31.28541566 89.2890625 31.58203125 C103.70800772 33.50959887 118.10988797 34.19456137 132.64990234 34.47680664 C134.6131442 34.51647049 136.57612171 34.56860341 138.5390625 34.62109375 C140.25923584 34.65867798 140.25923584 34.65867798 142.01416016 34.69702148 C144.89984926 34.98983752 146.60139169 35.40740034 149 37 C150.7026057 40.40521141 150.12864821 44.29392119 150.11352539 48.03955078 C150.11367142 48.97618561 150.11381744 49.91282043 150.1139679 50.87783813 C150.11326944 53.98368622 150.10548015 57.08947485 150.09765625 60.1953125 C150.09579183 62.34479744 150.09436804 64.4942828 150.09336853 66.64376831 C150.08954522 72.30895149 150.07971651 77.97410915 150.06866455 83.63928223 C150.05844644 89.41707006 150.05387005 95.194862 150.04882812 100.97265625 C150.03809409 112.3151154 150.02101989 123.65755558 150 135 C145.71 135 141.42 135 137 135 C137 106.29 137 77.58 137 48 C130.73 48 124.46 48 118 48 C114.07783782 47.83441407 110.21697133 47.63966132 106.3125 47.3125 C105.29559082 47.2292749 104.27868164 47.1460498 103.23095703 47.06030273 C80.86566065 45.04244411 57.63252402 41.80868727 36.125 35.3125 C35.29347412 35.06193848 34.46194824 34.81137695 33.60522461 34.55322266 C24.28315039 31.6256291 13.82012805 28.08016578 6.27734375 21.6953125 C4.22196369 19.80906547 4.22196369 19.80906547 2.12109375 20.015625 C-1.59952296 21.74232005 -5.15935167 23.73725396 -8.72070312 25.765625 C-18.98625314 31.42937673 -30.02937269 34.80961138 -41.375 37.5625 C-42.59832031 37.8605957 -43.82164062 38.15869141 -45.08203125 38.46582031 C-62.5958158 42.65290876 -79.88523337 45.24988968 -97.8125 46.75 C-98.59262451 46.81529907 -99.37274902 46.88059814 -100.17651367 46.94787598 C-108.48655892 47.62963816 -116.64076166 48 -125 48 C-125 76.71 -125 105.42 -125 135 C-129.29 135 -133.58 135 -138 135 C-138.1157695 122.55233741 -138.2046525 110.10480256 -138.25906086 97.65671158 C-138.28517217 91.87674211 -138.32059896 86.09714053 -138.37719727 80.31738281 C-138.4314612 74.74121223 -138.46140897 69.16539584 -138.47438622 63.58898163 C-138.48363612 61.45984062 -138.50169886 59.33071934 -138.52865028 57.20172882 C-138.56486535 54.22292452 -138.56994843 51.24559002 -138.56762695 48.26660156 C-138.58560333 47.38331177 -138.60357971 46.50002197 -138.62210083 45.58996582 C-138.57172886 39.62991046 -138.57172886 39.62991046 -135.69343567 36.45870972 C-132.17652512 34.55402283 -128.99810285 34.33270186 -125.0859375 34.2421875 C-124.3232103 34.2090596 -123.56048309 34.1759317 -122.77464294 34.14179993 C-121.14912249 34.07283495 -119.52323695 34.01206371 -117.89712524 33.95883179 C-114.50721406 33.84615605 -111.11986655 33.68879907 -107.73170471 33.5330658 C-106.06629412 33.45666877 -104.40079585 33.38215853 -102.73521423 33.30958557 C-80.57233102 32.33950918 -58.94739185 28.38414192 -37.5625 22.5 C-36.56331543 22.22776611 -35.56413086 21.95553223 -34.53466797 21.67504883 C-24.43296975 18.78509063 -11.59375726 14.59375726 -4 7 C-3.67 6.175 -3.34 5.35 -3 4.5 C-2 2 -2 2 0 0 Z " fill="#FAFCF9" transform="translate(253,83)"></path><path d="M0 0 C7.09921337 4.04038832 12.40946827 10.09388989 14.6875 18 C15.79359537 26.05336852 14.38301515 32.34234929 9.6875 39 C4.77527894 44.45688155 -0.62746619 48.40855602 -8.06640625 49.34765625 C-15.54776252 49.72029085 -21.17670098 48.35302676 -27.3125 44 C-32.27302819 39.49042891 -35.89040537 34.19736685 -36.78125 27.44921875 C-36.85808368 18.20036493 -36.04280677 12.08985503 -29.66796875 5.23046875 C-21.31681082 -2.51744527 -10.53427558 -4.75327069 0 0 Z " fill="#3C8323" transform="translate(158.3125,239)"></path><path d="M0 0 C6.14150496 3.80300884 11.12990697 8.06384207 13.03125 15.2578125 C14.12911757 23.80208621 13.93975676 30.98891495 8.875 38.16796875 C3.80825973 43.91099003 -1.72950114 47.65168704 -9.43359375 48.54296875 C-16.67311395 48.93895934 -22.03256924 47.44448854 -27.96875 43.2578125 C-34.24352139 37.60933656 -37.99991243 31.50460343 -38.46875 22.9453125 C-38.22028496 15.69013336 -35.72731689 10.23586754 -30.80859375 4.92578125 C-21.853331 -3.37166587 -11.27479855 -5.84165287 0 0 Z " fill="#4D912D" transform="translate(376.96875,239.7421875)"></path><path d="M0 0 C5.75042305 3.57381664 10.37788612 8.96320772 12.36328125 15.46875 C13.21072974 23.62790522 13.23670437 31.58298643 8.36328125 38.46875 C3.14538581 44.36774241 -2.43714136 47.77286671 -10.234375 48.81640625 C-17.38445783 49.20860489 -22.78552892 47.59841629 -28.63671875 43.46875 C-34.13493511 38.5101734 -37.22711069 33.80421193 -37.9375 26.28515625 C-37.97223343 16.64083981 -36.28275523 10.42159265 -29.64453125 3.26953125 C-21.2561647 -4.253887 -9.99297043 -4.46257053 0 0 Z " fill="#4B902B" transform="translate(268.63671875,143.53125)"></path></svg>