<svg version="1.1" xmlns="http://www.w3.org/2000/svg" width="16px" height="16px" fill="currentColor" viewBox="0 0 512 512"><path d="M0 0 C168.96 0 337.92 0 512 0 C512 168.96 512 337.92 512 512 C343.04 512 174.08 512 0 512 C0 343.04 0 174.08 0 0 Z " fill="#438A26" transform="translate(0,0)"></path><path d="M0 0 C1.77697266 -0.00483398 1.77697266 -0.00483398 3.58984375 -0.00976562 C27.31651455 0.13411165 48.42451751 9.43800525 65.875 25.3125 C66.91333984 26.22902344 66.91333984 26.22902344 67.97265625 27.1640625 C76.07086579 34.73097798 82.74594957 44.51319035 87.875 54.3125 C87.875 55.3025 87.875 56.2925 87.875 57.3125 C88.62523437 56.83039063 89.37546875 56.34828125 90.1484375 55.8515625 C96.67650221 51.82290796 102.19730425 48.97645168 109.875 48.3125 C110.73609375 48.23128906 111.5971875 48.15007812 112.484375 48.06640625 C123.59612981 47.53651043 134.39276791 51.10421531 142.875 58.3125 C152.57240718 67.31212327 158.30458598 79.22571651 159.875 92.3125 C161.1125 92.704375 162.35 93.09625 163.625 93.5 C185.21000805 100.74011242 203.52569907 111.71594603 215.55078125 131.5625 C219.44882035 139.65754284 220.42633626 146.84510835 220.375 155.8125 C220.37000488 156.95726807 220.36500977 158.10203613 220.35986328 159.28149414 C219.97595575 178.11017258 213.48942659 194.07171119 199.875 207.3125 C186.59816548 219.3018839 168.51500585 224.57080769 150.9375 224.375 C150.15826172 224.37048828 149.37902344 224.36597656 148.57617188 224.36132812 C146.67574732 224.34966908 144.77536294 224.33173877 142.875 224.3125 C142.875 220.0225 142.875 215.7325 142.875 211.3125 C144.43734375 211.27382813 144.43734375 211.27382813 146.03125 211.234375 C163.37968426 210.62426187 179.91993124 207.54663862 193.09765625 195.28515625 C205.07339846 181.99339841 206.66820195 165.81165182 206.04541016 148.75390625 C205.29477637 137.99984051 199.03957656 129.87080018 191.1796875 122.93359375 C181.15279139 115.03239962 170.22414966 109.55026025 157.875 106.3125 C156.2032626 105.82972484 154.53626633 105.3301601 152.875 104.8125 C152.153125 104.5959375 151.43125 104.379375 150.6875 104.15625 C148.875 103.3125 148.875 103.3125 146.875 100.3125 C146.53701016 98.39997214 146.20624086 96.48538454 145.93847656 94.56176758 C144.55720104 84.65079295 142.11215722 75.95170886 134.5625 68.875 C126.23815596 62.63174197 118.26173126 60.94644464 107.875 62.3125 C101.67258364 64.319648 97.22096683 67.45524295 92.875 72.3125 C90.61230154 74.36307048 89.37406738 75.21268652 86.375 75.8125 C82.7477095 75.0870419 81.99058152 73.30924306 79.875 70.3125 C78.49897835 67.79833092 77.28282713 65.21754441 76.0625 62.625 C72.86479893 56.06290364 69.43517528 50.04696934 64.875 44.3125 C64.23304688 43.49523437 63.59109375 42.67796875 62.9296875 41.8359375 C50.02054657 26.44976583 31.96884574 17.65273214 12.5625 13.625 C-12.50531354 11.50060902 -34.3893789 17.33362115 -53.8046875 33.55078125 C-69.61569378 48.20428396 -77.64593417 68.17739149 -78.46582031 89.421875 C-78.52956082 91.32765173 -78.57745583 93.23403371 -78.60839844 95.140625 C-78.63321289 96.02234375 -78.65802734 96.9040625 -78.68359375 97.8125 C-78.69704834 98.6065625 -78.71050293 99.400625 -78.72436523 100.21875 C-79.22317576 102.82557452 -80.05892896 103.69249491 -82.125 105.3125 C-84.65625 106.26953125 -84.65625 106.26953125 -87.625 107.125 C-100.67587908 111.30757089 -112.12297845 118.03655646 -118.61645508 130.45947266 C-123.12107634 139.56728906 -124.3066169 146.25017768 -124.3125 156.375 C-124.32474609 157.45716797 -124.33699219 158.53933594 -124.34960938 159.65429688 C-124.3758279 174.22305631 -121.35186363 188.80844282 -110.984375 199.7890625 C-100.8743619 208.07247659 -90.93974356 210.55754488 -78.1875 210.9375 C-76.58938477 210.99550781 -76.58938477 210.99550781 -74.95898438 211.0546875 C-72.3479222 211.14835789 -69.73648565 211.23149065 -67.125 211.3125 C-67.125 215.6025 -67.125 219.8925 -67.125 224.3125 C-86.94565024 224.92184535 -102.92199991 223.80239366 -118.875 210.625 C-126.8285598 203.14013212 -131.55599821 193.50964797 -135.125 183.3125 C-135.44597656 182.41015625 -135.76695312 181.5078125 -136.09765625 180.578125 C-141.35716034 162.47564581 -139.76922559 141.34199192 -131.4375 124.5625 C-122.89609643 109.96914716 -109.07347341 99.6286578 -93.125 94.3125 C-93.08632812 92.98412109 -93.08632812 92.98412109 -93.046875 91.62890625 C-91.88007996 66.14504192 -82.91997762 44.67187056 -65.125 26.3125 C-64.5990625 25.71308594 -64.073125 25.11367187 -63.53125 24.49609375 C-47.62968209 7.01248209 -22.93870283 -0.31405672 0 0 Z " fill="#FAFCFA" transform="translate(215.125,76.6875)"></path><path d="M0 0 C3.96 0 7.92 0 12 0 C12 6.27 12 12.54 12 19 C18.6 19 25.2 19 32 19 C32 12.73 32 6.46 32 0 C35.96 0 39.92 0 44 0 C44 6.27 44 12.54 44 19 C50.6 19 57.2 19 64 19 C64 12.73 64 6.46 64 0 C67.96 0 71.92 0 76 0 C76 6.27 76 12.54 76 19 C82.6 19 89.2 19 96 19 C96 12.73 96 6.46 96 0 C99.96 0 103.92 0 108 0 C108 6.27 108 12.54 108 19 C110.5678125 18.9071875 110.5678125 18.9071875 113.1875 18.8125 C117.66589378 18.82972459 120.56190894 18.87446268 124 22 C127.39342492 25.76028167 128.24301014 28.43316702 128.25 33.375 C128.1675 34.90125 128.085 36.4275 128 38 C134.27 38 140.54 38 147 38 C147 42.29 147 46.58 147 51 C140.73 51 134.46 51 128 51 C128 57.27 128 63.54 128 70 C134.27 70 140.54 70 147 70 C147 74.29 147 78.58 147 83 C140.73 83 134.46 83 128 83 C128 89.27 128 95.54 128 102 C134.27 102 140.54 102 147 102 C147 106.29 147 110.58 147 115 C140.73 115 134.46 115 128 115 C128 121.27 128 127.54 128 134 C134.27 134 140.54 134 147 134 C147 138.29 147 142.58 147 147 C140.73 147 134.46 147 128 147 C128.0825 148.52625 128.165 150.0525 128.25 151.625 C128.24301014 156.56683298 127.39342492 159.23971833 124 163 C120.30801521 165.64480079 117.81068192 166.37117843 113.29174805 166.34057617 C112.17096359 166.34034958 111.05017914 166.34012299 109.89543152 166.33988953 C108.6963063 166.32440567 107.49718109 166.30892181 106.26171875 166.29296875 C105.02581497 166.28872391 103.78991119 166.28447906 102.51655579 166.28010559 C99.24323918 166.26617779 95.97037092 166.23925977 92.69720459 166.20599365 C89.35221485 166.17521247 86.00720553 166.16183918 82.66210938 166.14648438 C76.10787557 166.11342631 69.55402474 166.06164849 63 166 C63 161.71 63 157.42 63 153 C80.16 153 97.32 153 115 153 C115 113.07 115 73.14 115 32 C74.74 32 34.48 32 -7 32 C-7 71.93 -7 111.86 -7 153 C-0.73 153 5.54 153 12 153 C12 157.29 12 161.58 12 166 C8.12382748 166.13521532 4.25239011 166.23423665 0.375 166.3125 C-1.26662109 166.3753418 -1.26662109 166.3753418 -2.94140625 166.43945312 C-12.06086575 166.57762675 -12.06086575 166.57762675 -15.6484375 163.73046875 C-20.54286393 158.04740551 -20.19375454 154.36267266 -20 147 C-26.27 147 -32.54 147 -39 147 C-39 142.71 -39 138.42 -39 134 C-32.73 134 -26.46 134 -20 134 C-20 127.73 -20 121.46 -20 115 C-26.27 115 -32.54 115 -39 115 C-39 110.71 -39 106.42 -39 102 C-32.73 102 -26.46 102 -20 102 C-20 95.73 -20 89.46 -20 83 C-26.27 83 -32.54 83 -39 83 C-39 78.71 -39 74.42 -39 70 C-32.73 70 -26.46 70 -20 70 C-20 63.73 -20 57.46 -20 51 C-26.27 51 -32.54 51 -39 51 C-39 46.71 -39 42.42 -39 38 C-32.73 38 -26.46 38 -20 38 C-20.12375 35.710625 -20.12375 35.710625 -20.25 33.375 C-20.25 28.43383116 -19.33276815 25.79565261 -16 22 C-13.56355094 19.704952 -12.36424174 19.03538618 -8.984375 18.70703125 C-7.91703125 18.74183594 -6.8496875 18.77664062 -5.75 18.8125 C-2.90375 18.9053125 -2.90375 18.9053125 0 19 C0 12.73 0 6.46 0 0 Z " fill="#FBFCFA" transform="translate(199,186)"></path><path d="M0 0 C3.96 0 7.92 0 12 0 C12 29.37 12 58.74 12 89 C8.04 89 4.08 89 0 89 C0 59.63 0 30.26 0 0 Z " fill="#FEFEFE" transform="translate(231,320)"></path><path d="M0 0 C3.96 0 7.92 0 12 0 C12 21.12 12 42.24 12 64 C8.04 64 4.08 64 0 64 C0 42.88 0 21.76 0 0 Z " fill="#FEFEFE" transform="translate(199,371)"></path><path d="M0 0 C3.96 0 7.92 0 12 0 C12 16.83 12 33.66 12 51 C8.04 51 4.08 51 0 51 C0 34.17 0 17.34 0 0 Z " fill="#FEFEFE" transform="translate(263,378)"></path><path d="M0 0 C3.96 0 7.92 0 12 0 C12 14.85 12 29.7 12 45 C8.04 45 4.08 45 0 45 C0 30.15 0 15.3 0 0 Z " fill="#FDFDFC" transform="translate(295,358)"></path></svg>