<svg version="1.1" xmlns="http://www.w3.org/2000/svg" width="16px" height="16px" fill="currentColor" viewBox="0 0 512 512"><path d="M0 0 C168.96 0 337.92 0 512 0 C512 168.96 512 337.92 512 512 C343.04 512 174.08 512 0 512 C0 343.04 0 174.08 0 0 Z " fill="#2F927D" transform="translate(0,0)"></path><path d="M0 0 C14.52 0 29.04 0 44 0 C44 69.63 44 139.26 44 211 C48.29 211 52.58 211 57 211 C57 181.96 57 152.92 57 123 C64.81564865 129.69912741 72.52397321 136.45445542 80.07397461 143.44897461 C85.00554045 148.01529212 89.99339524 152.51610765 95 157 C99.92332996 161.42867828 99.92332996 161.42867828 102.32739258 163.66503906 C104.90606579 166.02257329 104.90606579 166.02257329 107.65380859 167.75561523 C111.17206118 170.26101766 114.35582897 172.60183469 115.52307129 176.94732666 C116.24907007 182.47793205 115.91206489 188.01023172 115.625 193.5625 C115.57476548 195.2557275 115.52915101 196.94909871 115.48828125 198.64257812 C115.37880347 202.76530529 115.20672666 206.88105082 115 211 C119.29 211 123.58 211 128 211 C128 181.96 128 152.92 128 123 C133.62054208 126.37232525 133.62054208 126.37232525 136.1640625 128.6015625 C136.72295166 129.0869751 137.28184082 129.5723877 137.85766602 130.07250977 C138.44088623 130.58483154 139.02410645 131.09715332 139.625 131.625 C140.87544875 132.7106191 142.1267595 133.79524606 143.37890625 134.87890625 C143.9939502 135.4114502 144.60899414 135.94399414 145.24267578 136.49267578 C147.64957643 138.55716656 150.10096059 140.56362879 152.5625 142.5625 C156.58358578 145.82778699 160.55332082 149.14572767 164.5 152.5 C174.12663673 160.98781518 174.12663673 160.98781518 184.43367004 168.55589294 C191.45372596 173.36832375 191.45372596 173.36832375 192.90751648 177.7106781 C193.21737509 180.87522479 193.23000851 183.90804996 193.125 187.0859375 C193.12830322 188.22406891 193.13160645 189.36220032 193.13500977 190.53482056 C193.13674776 194.15019997 193.07079934 197.7603804 193 201.375 C192.97167372 205.00988552 192.95718508 208.64446298 192.95068359 212.27944946 C192.94201196 214.5365432 192.91802805 216.79363906 192.87744141 219.05038452 C192.86503418 220.06549103 192.85262695 221.08059753 192.83984375 222.12646484 C192.82300537 223.0216684 192.80616699 223.91687195 192.78881836 224.83920288 C192.78998772 227.21330346 192.78998772 227.21330346 195 229 C197.07253792 229.31359254 197.07253792 229.31359254 199.49246216 229.2784729 C200.43759674 229.28963638 201.38273132 229.30079987 202.35650635 229.31230164 C203.91664459 229.31554192 203.91664459 229.31554192 205.50830078 229.31884766 C206.60099274 229.32889328 207.69368469 229.3389389 208.81948853 229.34928894 C212.44475764 229.38027238 216.06995242 229.39719819 219.6953125 229.4140625 C222.20352831 229.43276195 224.71173774 229.45233442 227.21994019 229.4727478 C233.15555708 229.51893989 239.0911883 229.55630164 245.02688873 229.58942068 C253.63125126 229.63805401 262.23547945 229.70446986 270.83973694 229.76873779 C282.89311693 229.85711452 294.94647566 229.92676144 307 230 C307 253.1 307 276.2 307 300 C205.69 300 104.38 300 0 300 C0 201 0 102 0 0 Z " fill="#248470" transform="translate(90,122)"></path><path d="M0 0 C1.27141846 -0.00945648 2.54283691 -0.01891296 3.8527832 -0.02865601 C5.24170238 -0.02328631 6.63061873 -0.01713337 8.01953125 -0.01025391 C9.44295399 -0.01227479 10.86637572 -0.01518636 12.28979492 -0.01895142 C15.27239849 -0.02337412 18.25473246 -0.01694576 21.23730469 -0.00292969 C25.06088216 0.01416256 28.88382791 0.00432104 32.7073822 -0.01364708 C35.64649212 -0.02448659 38.58545222 -0.0210379 41.52456665 -0.0132637 C42.93437779 -0.01126214 44.34420253 -0.01371947 45.7539978 -0.02070236 C47.72401673 -0.02831864 49.69408334 -0.0146522 51.6640625 0 C52.78530518 0.00238678 53.90654785 0.00477356 55.06176758 0.00723267 C57.83203125 0.38818359 57.83203125 0.38818359 59.48571968 1.54332638 C61.40377447 4.17164607 61.18029008 6.0516968 61.14328003 9.28684998 C61.1370311 10.51892685 61.13078217 11.75100372 61.12434387 13.02041626 C61.10243563 14.38836945 61.08035018 15.75631982 61.05810547 17.12426758 C61.04584025 18.56333765 61.03507897 20.00242121 61.02571106 21.44151306 C61.00353002 24.54365656 60.97309967 27.64557438 60.93706894 30.7475872 C60.88250798 35.66162947 60.86135847 40.5754554 60.84768677 45.48976135 C60.8426182 47.17366321 60.8375273 48.85756499 60.83241463 50.54146671 C60.82987875 51.384913 60.82734288 52.22835928 60.82473016 53.09736454 C60.78779195 64.53718959 60.72396689 75.97617418 60.58886719 87.4152832 C60.49799715 95.13183236 60.45383056 102.84715684 60.46185887 110.5642553 C60.46416603 114.64485307 60.44291736 118.72222024 60.36404037 122.80212212 C59.03958389 141.55872937 59.03958389 141.55872937 66.33229256 157.71839237 C69.0185937 159.95686182 71.79836843 161.6406845 74.83203125 163.38818359 C76.55458803 164.86919284 78.24968859 166.38381318 79.89453125 167.95068359 C80.68988281 168.66353516 81.48523438 169.37638672 82.3046875 170.11083984 C85.16285367 172.68628169 87.99909742 175.28508055 90.83203125 177.88818359 C96.13322319 182.75765766 101.47364933 187.58177446 106.83203125 192.38818359 C108.6865725 194.05443345 110.54074654 195.7210921 112.39453125 197.38818359 C113.22082031 198.13068359 114.04710937 198.87318359 114.8984375 199.63818359 C115.89220089 200.53758965 116.88427154 201.44042389 117.83203125 202.38818359 C117.83567688 201.74338547 117.83932251 201.09858734 117.84307861 200.43424988 C117.88482765 193.73452465 117.95411953 187.03548936 118.03955078 180.33618164 C118.06780963 177.83462416 118.08899955 175.33297658 118.10302734 172.83129883 C118.12438821 169.23911234 118.17100532 165.64801496 118.22265625 162.05615234 C118.22388489 160.93419968 118.22511353 159.81224701 118.22637939 158.65629578 C118.24609802 157.61544327 118.26581665 156.57459076 118.28613281 155.50219727 C118.29945648 154.1265284 118.29945648 154.1265284 118.31304932 152.72306824 C118.83203125 150.38818359 118.83203125 150.38818359 120.68280029 148.56416321 C122.83203125 147.38818359 122.83203125 147.38818359 125.765625 147.45849609 C129.26959961 148.52084763 131.13714043 149.86804659 133.89453125 152.26318359 C135.31958984 153.48134766 135.31958984 153.48134766 136.7734375 154.72412109 C137.27117676 155.15821289 137.76891602 155.59230469 138.28173828 156.03955078 C140.39745193 157.88005506 142.54050688 159.68732093 144.68334961 161.49609375 C145.78834146 162.42911071 146.89200811 163.36369927 147.99438477 164.29980469 C151.41064872 167.20001515 154.85632988 170.05912434 158.33203125 172.88818359 C162.93656705 176.63606157 167.47222316 180.45801804 171.99609375 184.30224609 C175.41262665 187.20063182 178.85707963 190.0597346 182.33203125 192.88818359 C187.99634338 197.50078865 193.64356891 202.15223141 199.12944031 206.97718811 C200.80139563 208.41710067 200.80139563 208.41710067 202.64595032 209.57225037 C205.5958357 211.64125377 207.52870915 213.20683298 208.44546509 216.77732849 C208.64180786 219.70036947 208.61943476 222.54629515 208.515625 225.47412109 C208.50572037 226.53104156 208.49581573 227.58796204 208.48561096 228.6769104 C208.4465407 232.04043508 208.35872754 235.40065169 208.26953125 238.76318359 C208.2344081 241.04829259 208.20247086 243.33345293 208.17382812 245.61865234 C208.09680367 251.2096177 207.97978893 256.79866432 207.83203125 262.38818359 C208.39948657 262.38449642 208.96694189 262.38080925 209.55159283 262.37701035 C223.36459732 262.28863939 237.17755223 262.22271981 250.99077892 262.18093491 C257.67081209 262.16004929 264.35060181 262.13171335 271.03051758 262.08642578 C277.4755129 262.04300373 283.92031198 262.0190538 290.36544228 262.00867462 C292.82587079 262.0012768 295.28628842 261.98683083 297.74663353 261.96526337 C301.18964323 261.93627883 304.63183934 261.93222566 308.07495117 261.93408203 C309.09490677 261.91970093 310.11486237 261.90531982 311.16572571 261.89050293 C315.32620493 261.91481837 318.17747803 262.07497894 321.96490479 263.88726807 C324.60237644 267.42001956 324.52493959 270.61651553 324.46313477 274.85693359 C324.47386772 276.13564331 324.47386772 276.13564331 324.4848175 277.44018555 C324.50171982 280.25673083 324.48229349 283.07168782 324.4609375 285.88818359 C324.46176606 287.84586723 324.46422495 289.80355079 324.46824646 291.76123047 C324.47110551 295.86365709 324.45639274 299.96553806 324.42895508 304.06787109 C324.39487221 309.32741745 324.40088954 314.585988 324.41961765 319.84558105 C324.43018436 323.88794085 324.4212528 327.93007344 324.40623283 331.97241211 C324.40104815 333.91169561 324.40153629 335.85100281 324.40777779 337.7902832 C324.41322601 340.50051931 324.39286807 343.20935683 324.36547852 345.91943359 C324.37526733 347.12273315 324.37526733 347.12273315 324.38525391 348.3503418 C324.32742145 351.71437348 324.22299972 353.87600481 322.14830691 356.59390593 C319.28641866 358.81083643 317.84783622 358.88918589 314.25695705 358.89154816 C313.115256 358.90197915 311.97355494 358.91241014 310.79725689 358.92315722 C309.54250547 358.91423433 308.28775405 358.90531144 306.99497986 358.89611816 C305.64897393 358.90072609 304.30297302 358.90707828 302.95698267 358.91502714 C299.25476233 358.93175871 295.55295327 358.92345705 291.85073125 358.91108227 C287.85953985 358.90204971 283.86842028 358.91599249 279.87724304 358.92700195 C272.05744528 358.94481053 264.23780088 358.94093697 256.41799705 358.92935139 C250.06465308 358.92032716 243.71135216 358.91908868 237.35800362 358.92344666 C236.45464398 358.92405959 235.55128434 358.92467252 234.62055017 358.92530403 C232.78555149 358.92658289 230.95055282 358.92787974 229.11555416 358.92919439 C211.89957511 358.94060687 194.68368119 358.92747568 177.46771611 358.90599293 C162.68538465 358.8881183 147.90317881 358.89122775 133.12084961 358.90966797 C115.96599828 358.93105768 98.81122158 358.93951137 81.65635878 358.92721891 C79.82832024 358.92594468 78.00028168 358.9246872 76.17224312 358.92344666 C75.27274526 358.92282955 74.3732474 358.92221245 73.44649203 358.92157665 C67.09792025 358.91811827 60.74939569 358.92396252 54.40083122 358.93336487 C46.66820397 358.94456503 38.93573921 358.94158662 31.20313065 358.92024189 C27.25539575 358.90970507 23.30793208 358.90565411 19.36019897 358.9188385 C15.74983593 358.93071414 12.1399968 358.92428085 8.52968163 358.90292829 C6.59747473 358.8963079 4.66523177 358.9094414 2.73306221 358.92315722 C1.5939689 358.91272623 0.45487559 358.90229524 -0.71873569 358.89154816 C-2.19924045 358.89057404 -2.19924045 358.89057404 -3.70965439 358.88958025 C-6.16796875 358.38818359 -6.16796875 358.38818359 -7.9849506 356.72956759 C-9.47306257 353.78435364 -9.54398062 351.7219626 -9.54549217 348.42267513 C-9.55331541 347.19388919 -9.56113866 345.96510324 -9.56919897 344.69908136 C-9.56271263 343.33339809 -9.55594266 341.96771614 -9.54891968 340.60203552 C-9.5523753 339.15291286 -9.55713922 337.70379283 -9.56310141 336.25467831 C-9.57565418 332.26748388 -9.56942171 328.28050417 -9.56014276 324.29330885 C-9.55337012 319.99537979 -9.56382457 315.69748831 -9.57208252 311.39956665 C-9.58544083 302.97820565 -9.58253289 294.55692474 -9.5738446 286.13556056 C-9.56707715 279.29356894 -9.56614726 272.4515998 -9.56941605 265.60960579 C-9.56987575 264.63686212 -9.57033544 263.66411846 -9.57080907 262.66189771 C-9.57176822 260.68597403 -9.57274086 258.71005036 -9.57372685 256.73412669 C-9.58228677 238.19478534 -9.57243693 219.65548844 -9.55632575 201.11615438 C-9.54291991 185.19679875 -9.54525169 169.27750874 -9.55908203 153.3581543 C-9.57512358 134.8848702 -9.58146497 116.41162509 -9.57224524 97.938335 C-9.57128956 95.96987188 -9.57034645 94.00140876 -9.56941605 92.03294563 C-9.56895322 91.06434502 -9.56849039 90.0957444 -9.56801354 89.09779225 C-9.56541953 82.26081255 -9.56980344 75.42385752 -9.57685471 68.58688164 C-9.585254 60.25956895 -9.58302267 51.93234114 -9.56701247 43.60503822 C-9.55910884 39.35355681 -9.5560736 35.10221709 -9.56595993 30.85073662 C-9.57486417 26.96290115 -9.57004514 23.07533942 -9.55402727 19.18752898 C-9.55066127 17.77710928 -9.55241408 16.3666667 -9.55965464 14.95626157 C-9.56870928 13.04680698 -9.55767473 11.1372881 -9.54549217 9.22785091 C-9.54500512 8.16490368 -9.54451806 7.10195644 -9.54401624 6.00679868 C-9.16796875 3.38818359 -9.16796875 3.38818359 -7.81751502 1.54701382 C-5.26997248 -0.24267184 -3.08055075 0.00655754 0 0 Z M3.83203125 45.38818359 C3.83203125 144.38818359 3.83203125 243.38818359 3.83203125 345.38818359 C105.14203125 345.38818359 206.45203125 345.38818359 310.83203125 345.38818359 C310.83203125 322.28818359 310.83203125 299.18818359 310.83203125 275.38818359 C302.77023437 275.33919922 294.7084375 275.29021484 286.40234375 275.23974609 C281.30727879 275.20437746 276.21223135 275.1684276 271.1171875 275.13037109 C263.02297394 275.06996861 254.92878731 275.01147191 246.83447266 274.96630859 C240.31162672 274.92990312 233.78890233 274.88320632 227.2661705 274.83012009 C224.77261553 274.81152994 222.27903202 274.79643925 219.78543472 274.78483963 C216.30359418 274.76805609 212.82206109 274.7390404 209.34033203 274.70703125 C207.78019379 274.70379097 207.78019379 274.70379097 206.1885376 274.70048523 C205.24340302 274.68932175 204.29826843 274.67815826 203.32449341 274.66665649 C202.50041048 274.66112574 201.67632755 274.65559498 200.82727242 274.64989662 C198.83203125 274.38818359 198.83203125 274.38818359 196.83203125 272.38818359 C196.62757874 270.2341156 196.62757874 270.2341156 196.68774414 267.53051758 C196.71119652 266.01269936 196.71119652 266.01269936 196.73512268 264.46421814 C196.75807907 263.36533768 196.78103546 262.26645721 196.8046875 261.13427734 C196.81850211 258.81202643 196.82947821 256.48975723 196.83789062 254.16748047 C196.85822836 250.50154295 196.89421957 246.83911818 196.97924805 243.17407227 C198.08522172 229.34411265 198.08522172 229.34411265 193.54052734 216.921875 C190.74227219 214.6370699 188.05104899 213.00815016 184.83203125 211.38818359 C182.88696289 209.86254883 182.88696289 209.86254883 181.30078125 208.41943359 C176.34739883 204.19602332 171.38080033 199.9976468 166.33203125 195.88818359 C162.2921873 192.59993852 158.30146237 189.2605675 154.33203125 185.88818359 C150.18180463 182.36812187 146.02377894 178.85877039 141.83203125 175.38818359 C140.98640625 174.68693359 140.14078125 173.98568359 139.26953125 173.26318359 C136.50123699 171.05934992 136.50123699 171.05934992 131.83203125 168.38818359 C131.83203125 197.42818359 131.83203125 226.46818359 131.83203125 256.38818359 C127.54203125 256.38818359 123.25203125 256.38818359 118.83203125 256.38818359 C118.95771484 254.87019165 118.95771484 254.87019165 119.0859375 253.3215332 C121.53015945 233.26410795 121.53015945 233.26410795 115.62109375 214.97412109 C112.37728185 211.6959518 108.74311086 209.09482977 104.83203125 206.66699219 C102.08268716 204.90904976 99.81001384 202.76435444 97.45703125 200.51318359 C95.91646817 199.13694724 94.37483235 197.7619106 92.83203125 196.38818359 C87.44928317 191.56468207 82.09117668 186.71641293 76.76953125 181.82568359 C73.07539051 178.43489491 69.3746734 175.05189067 65.64453125 171.70068359 C64.92910156 171.05744141 64.21367187 170.41419922 63.4765625 169.75146484 C62.05974039 168.28181631 62.05974039 168.28181631 60.83203125 168.38818359 C60.83203125 197.42818359 60.83203125 226.46818359 60.83203125 256.38818359 C56.54203125 256.38818359 52.25203125 256.38818359 47.83203125 256.38818359 C47.83203125 186.75818359 47.83203125 117.12818359 47.83203125 45.38818359 C33.31203125 45.38818359 18.79203125 45.38818359 3.83203125 45.38818359 Z " fill="#F9FBFB" transform="translate(86.16796875,76.61181640625)"></path><path d="M0 0 C20.39755679 17.78934461 33.7034586 42.13075876 36.20507812 69.27880859 C36.85282451 81.27646561 35.81094157 92.72010617 32.9375 104.375 C32.74414062 105.24640625 32.55078125 106.1178125 32.3515625 107.015625 C30.72186469 113.40742678 27.69257893 119.08435155 24.54223633 124.84375 C22.48831154 128.44676502 22.48831154 128.44676502 22.20849609 132.45483398 C23.34237419 135.4414218 25.43359837 136.97001004 27.8125 139.0625 C28.30717773 139.50037842 28.80185547 139.93825684 29.31152344 140.3894043 C33.42830762 144.00562198 37.67180028 147.46286637 41.93359375 150.90625 C46.73369046 154.85119294 51.40048544 158.94757933 56.0859375 163.02734375 C59.23491297 165.76894543 62.39842164 168.49288529 65.57128906 171.20678711 C66.76206546 172.22558755 67.9515469 173.24590372 69.13964844 174.26782227 C71.5456878 176.33691916 73.95644066 178.39047518 76.4140625 180.3984375 C81.88724683 184.92867622 86.27863854 189.16260703 87.4140625 196.421875 C87.8137621 205.38356079 85.69739245 211.65878708 80.140625 218.62890625 C74.45154474 224.80724741 67.27485977 228.72144574 58.875 229.75 C47.11942163 228.63042111 39.59931272 219.7627887 31.57470703 211.95166016 C29.68573761 210.13254824 27.74012029 208.395098 25.75 206.6875 C22.41574634 203.81815317 19.17266125 200.85497676 15.9375 197.875 C12.03045947 194.27728446 8.08499215 190.73496182 4.0703125 187.2578125 C0.77369512 184.34761181 -2.45232111 181.35993632 -5.67578125 178.36914062 C-7.12852102 177.02740108 -8.59551739 175.70115228 -10.0625 174.375 C-10.55459961 173.87387695 -11.04669922 173.37275391 -11.55371094 172.85644531 C-13.20420023 171.18910354 -13.20420023 171.18910354 -16.0625 169.375 C-19.05816335 169.75639324 -19.05816335 169.75639324 -22.0625 171.375 C-23.39673005 171.88894058 -24.73561847 172.39089689 -26.078125 172.8828125 C-28.21762401 173.69804911 -30.35573368 174.51665814 -32.4921875 175.33984375 C-37.84575123 177.375 -37.84575123 177.375 -40.0625 177.375 C-41.94904385 172.73724637 -43.27475675 169.42494191 -43.0625 164.375 C-42.20269531 164.09527344 -41.34289062 163.81554687 -40.45703125 163.52734375 C-17.5837469 155.76988308 0.99049321 142.12554273 12.04248047 120.22070312 C21.45134918 100.81779875 25.32345531 79.57576678 19.9375 58.375 C19.68033203 57.11816406 19.68033203 57.11816406 19.41796875 55.8359375 C14.71551318 35.26648669 0.67243092 16.00594739 -16.875 4.5625 C-32.1588473 -5.0038152 -48.4441768 -9.82711424 -66.4375 -9.75 C-67.33210938 -9.75386719 -68.22671875 -9.75773437 -69.1484375 -9.76171875 C-90.52691988 -9.73064537 -110.18080845 -2.01445208 -126.0625 12.375 C-127.30773437 13.48101562 -127.30773437 13.48101562 -128.578125 14.609375 C-144.18525701 29.25901425 -154.46890288 50.79787435 -155.4453125 72.2578125 C-155.64613074 82.41524868 -155.20270444 92.41922756 -153.0625 102.375 C-154.49804025 102.88059908 -155.9360202 103.3792749 -157.375 103.875 C-158.57576172 104.29265625 -158.57576172 104.29265625 -159.80078125 104.71875 C-162.0625 105.375 -162.0625 105.375 -165.0625 105.375 C-165.54723678 103.68909158 -166.02498926 102.00117455 -166.5 100.3125 C-166.90025391 98.90291016 -166.90025391 98.90291016 -167.30859375 97.46484375 C-173.19085802 73.35670364 -167.41713357 47.24680109 -155.15234375 26.078125 C-150.77569722 19.2216688 -145.67605279 13.24062943 -140.0625 7.375 C-139.38832031 6.62605469 -138.71414062 5.87710938 -138.01953125 5.10546875 C-102.23625748 -33.22895774 -38.99704626 -32.72891261 0 0 Z " fill="#FAFCFC" transform="translate(348.0625,100.625)"></path><path d="M0 0 C1.57625645 1.25373013 3.14118113 2.52202661 4.6875 3.8125 C5.739375 4.59625 6.79125 5.38 7.875 6.1875 C21.41022807 18.82037953 30.96370201 36.62544923 31.79614258 55.2421875 C32.37895264 80.37737063 26.79334598 99.92857024 9.25 118.625 C-0.05805786 127.4206877 -14.69245418 137.2971404 -27.8125 138 C-28.6375 137.938125 -29.4625 137.87625 -30.3125 137.8125 C-32.31035435 133.6919254 -32.49085515 130.36055635 -32.3125 125.8125 C-31.24 125.420625 -30.1675 125.02875 -29.0625 124.625 C-28.3303125 124.34527344 -27.598125 124.06554687 -26.84375 123.77734375 C-25.07992306 123.10502083 -23.30833406 122.45286192 -21.53125 121.81640625 C-6.30135864 116.02503967 5.20004668 105.72185818 12.125 90.9375 C13.00131749 88.90524235 13.85758999 86.86414638 14.6875 84.8125 C15.04972656 83.98492187 15.41195312 83.15734375 15.78515625 82.3046875 C20.06357207 70.48811047 19.78832604 51.83111017 14.93359375 40.32421875 C14.52238281 39.49535156 14.11117187 38.66648438 13.6875 37.8125 C13.28660156 36.91144531 12.88570312 36.01039063 12.47265625 35.08203125 C4.33329598 18.35505609 -10.17789451 8.02702088 -27.3125 1.8125 C-41.72639038 -2.73124523 -58.52856224 -1.00485799 -72.08203125 5.54296875 C-88.13519848 13.94460628 -99.39932581 26.66887871 -105.3125 43.8125 C-105.68246094 44.86308594 -106.05242187 45.91367188 -106.43359375 46.99609375 C-107.57102399 51.93506861 -107.56538773 56.57637888 -107.5 61.625 C-107.49935547 62.55892578 -107.49871094 63.49285156 -107.49804688 64.45507812 C-107.45945445 70.63415348 -107.00951423 76.67319867 -106.3125 82.8125 C-110.2725 83.8025 -114.2325 84.7925 -118.3125 85.8125 C-124.65069927 68.91063529 -122.73537001 47.69653996 -115.4296875 31.53515625 C-110.78040023 21.8571793 -105.0267065 14.22645296 -97.3125 6.8125 C-96.65765625 6.14992188 -96.0028125 5.48734375 -95.328125 4.8046875 C-86.12821385 -3.9627492 -74.50946457 -9.17785939 -62.3125 -12.1875 C-61.48492187 -12.41179687 -60.65734375 -12.63609375 -59.8046875 -12.8671875 C-39.28600475 -17.81063252 -16.9452663 -12.19966577 0 0 Z " fill="#FAFCFC" transform="translate(326.3125,116.1875)"></path><path d="M0 0 C0.96147949 -0.0038269 1.92295898 -0.00765381 2.91357422 -0.01159668 C4.9443466 -0.01431602 6.97515399 -0.00695329 9.00585938 0.00976562 C12.1140757 0.03117475 15.21998056 0.00996454 18.328125 -0.015625 C20.30208843 -0.01298173 22.27605043 -0.00785676 24.25 0 C25.17925293 -0.00809692 26.10850586 -0.01619385 27.06591797 -0.02453613 C30.87729908 0.03084745 33.38874604 0.09562437 36.70678711 2.05883789 C38.69559092 5.52597788 38.71711137 8.72829523 38.69140625 12.62109375 C38.70070412 13.79340294 38.70070412 13.79340294 38.71018982 14.98939514 C38.71728103 16.63932044 38.71412605 18.2893174 38.70141602 19.93920898 C38.68756154 22.4575644 38.72160976 24.97219345 38.75976562 27.49023438 C38.76071702 29.09635507 38.75885691 30.7024804 38.75390625 32.30859375 C38.76716446 33.05769516 38.78042267 33.80679657 38.79408264 34.57859802 C38.72862926 38.27325626 38.21318101 40.39652748 36.17944336 43.50366211 C31.94166402 46.31676717 28.61179413 46.25284979 23.625 46.1953125 C22.71169922 46.20009613 21.79839844 46.20487976 20.85742188 46.20980835 C18.93097201 46.21320317 17.00446421 46.20402994 15.078125 46.18310547 C12.13410652 46.15633281 9.1939003 46.18286622 6.25 46.21484375 C4.37499161 46.21153958 2.49998558 46.20513318 0.625 46.1953125 C-0.25220703 46.20543365 -1.12941406 46.21555481 -2.03320312 46.22598267 C-6.23280717 46.14569069 -8.35828358 45.87425454 -11.92944336 43.50366211 C-14.39361665 39.73890997 -14.58107159 36.66850899 -14.50390625 32.30859375 C-14.50631821 31.52609756 -14.50873016 30.74360138 -14.51121521 29.93739319 C-14.51023889 28.28918368 -14.49689628 26.64094052 -14.47192383 24.99291992 C-14.43755336 22.47266237 -14.45128742 19.95590213 -14.47070312 17.43554688 C-14.46380572 15.83071428 -14.45413428 14.2258907 -14.44140625 12.62109375 C-14.44636612 11.86996811 -14.45132599 11.11884247 -14.45643616 10.34495544 C-14.38438308 7.14046069 -14.06085444 4.85525549 -12.45678711 2.05883789 C-8.43378555 -0.32148558 -4.5929047 -0.04001967 0 0 Z " fill="#F7FAFA" transform="translate(179.875,364.46875)"></path><path d="M0 0 C0.96147949 -0.0038269 1.92295898 -0.00765381 2.91357422 -0.01159668 C4.9443466 -0.01431602 6.97515399 -0.00695329 9.00585938 0.00976562 C12.1140757 0.03117475 15.21998056 0.00996454 18.328125 -0.015625 C20.30208843 -0.01298173 22.27605043 -0.00785676 24.25 0 C25.17925293 -0.00809692 26.10850586 -0.01619385 27.06591797 -0.02453613 C30.87729908 0.03084745 33.38874604 0.09562437 36.70678711 2.05883789 C38.69559092 5.52597788 38.71711137 8.72829523 38.69140625 12.62109375 C38.70070412 13.79340294 38.70070412 13.79340294 38.71018982 14.98939514 C38.71728103 16.63932044 38.71412605 18.2893174 38.70141602 19.93920898 C38.68756154 22.4575644 38.72160976 24.97219345 38.75976562 27.49023438 C38.76071702 29.09635507 38.75885691 30.7024804 38.75390625 32.30859375 C38.76716446 33.05769516 38.78042267 33.80679657 38.79408264 34.57859802 C38.72862926 38.27325626 38.21318101 40.39652748 36.17944336 43.50366211 C31.94166402 46.31676717 28.61179413 46.25284979 23.625 46.1953125 C22.71169922 46.20009613 21.79839844 46.20487976 20.85742188 46.20980835 C18.93097201 46.21320317 17.00446421 46.20402994 15.078125 46.18310547 C12.13410652 46.15633281 9.1939003 46.18286622 6.25 46.21484375 C4.37499161 46.21153958 2.49998558 46.20513318 0.625 46.1953125 C-0.25220703 46.20543365 -1.12941406 46.21555481 -2.03320312 46.22598267 C-6.23280717 46.14569069 -8.35828358 45.87425454 -11.92944336 43.50366211 C-14.39361665 39.73890997 -14.58107159 36.66850899 -14.50390625 32.30859375 C-14.50631821 31.52609756 -14.50873016 30.74360138 -14.51121521 29.93739319 C-14.51023889 28.28918368 -14.49689628 26.64094052 -14.47192383 24.99291992 C-14.43755336 22.47266237 -14.45128742 19.95590213 -14.47070312 17.43554688 C-14.46380572 15.83071428 -14.45413428 14.2258907 -14.44140625 12.62109375 C-14.44636612 11.86996811 -14.45132599 11.11884247 -14.45643616 10.34495544 C-14.38438308 7.14046069 -14.06085444 4.85525549 -12.45678711 2.05883789 C-8.43378555 -0.32148558 -4.5929047 -0.04001967 0 0 Z " fill="#F7FAF9" transform="translate(115.875,364.46875)"></path><path d="M0 0 C3.44779086 1.50006391 5.82360533 3.50409262 8.5625 6.0625 C12.02560159 9.23785117 15.53195256 12.29828184 19.1875 15.25 C24.9563121 19.92192529 30.55092947 24.77833282 36.1484375 29.65234375 C39.29764848 32.39415048 42.46101622 35.11871737 45.63500977 37.83178711 C46.82310106 38.84897864 48.00855636 39.86925831 49.19116211 40.89282227 C51.63718148 43.0069501 54.08051512 45.06142391 56.65234375 47.0234375 C61.68836671 50.93542722 61.68836671 50.93542722 62.58203125 53.98828125 C62.81742635 58.61771814 61.54488465 62.22371955 59 66 C52.16360656 72.75726852 52.16360656 72.75726852 47.1796875 73.31640625 C43.17198795 72.91760568 41.96960587 71.7308097 39.125 68.9375 C38.26132812 68.11121094 37.39765625 67.28492188 36.5078125 66.43359375 C35.68023437 65.63050781 34.85265625 64.82742188 34 64 C32.67568381 62.82310769 31.34305479 61.65546212 30 60.5 C25.28297123 56.38917573 20.64430291 52.1925774 16 48 C14.33359149 46.49971321 12.66692647 44.99971128 11 43.5 C8.47499507 41.2282871 5.95086696 38.95564586 3.4296875 36.6796875 C-6.5782559 27.59719713 -6.5782559 27.59719713 -17 19 C-15.4177703 14.83313421 -12.3326419 12.35408341 -9.0625 9.5 C-5.70818773 6.55141891 -2.52145569 3.7250774 0 0 Z " fill="#379984" transform="translate(360,244)"></path><path d="M0 0 C15.18 0 30.36 0 46 0 C46 6.27 46 12.54 46 19 C30.82 19 15.64 19 0 19 C0 12.73 0 6.46 0 0 Z " fill="#35947F" transform="translate(89,90)"></path><path d="M0 0 C8.58 0 17.16 0 26 0 C26 6.27 26 12.54 26 19 C17.42 19 8.84 19 0 19 C0 12.73 0 6.46 0 0 Z " fill="#23806C" transform="translate(179,378)"></path><path d="M0 0 C8.58 0 17.16 0 26 0 C26 6.27 26 12.54 26 19 C17.42 19 8.84 19 0 19 C0 12.73 0 6.46 0 0 Z " fill="#1E7967" transform="translate(115,378)"></path></svg>