<svg version="1.1" xmlns="http://www.w3.org/2000/svg" width="16px" height="16px" fill="currentColor" viewBox="0 0 512 512"><path d="M0 0 C168.96 0 337.92 0 512 0 C512 168.96 512 337.92 512 512 C343.04 512 174.08 512 0 512 C0 343.04 0 174.08 0 0 Z " fill="#4053D6" transform="translate(0,0)"></path><path d="M0 0 C0.88275604 -0.00261841 1.76551208 -0.00523682 2.67501831 -0.00793457 C36.74915892 -0.0186573 79.10101757 3.76085636 105.2734375 28.125 C110.62929779 34.05243431 114.37808521 40.51281656 114.37025452 48.57060242 C114.37231651 50.20492722 114.37231651 50.20492722 114.37442017 51.87226868 C114.37082489 53.06772812 114.36722961 54.26318756 114.36352539 55.49487305 C114.36367142 56.75352173 114.36381744 58.01217041 114.3639679 59.30895996 C114.3642551 62.76116579 114.3583707 66.21333696 114.35139394 69.66553473 C114.3451477 73.27301849 114.34455559 76.88050301 114.34336853 80.48799133 C114.34025897 87.31963919 114.33205062 94.15127107 114.32201904 100.98291188 C114.31084628 108.76034034 114.30534452 116.53776955 114.30032361 124.31520402 C114.28986771 140.31431194 114.2722755 156.31340391 114.25 172.3125 C115.1268042 172.37236084 116.0036084 172.43222168 116.90698242 172.49389648 C118.64492065 172.61873413 118.64492065 172.61873413 120.41796875 172.74609375 C121.56289795 172.82657959 122.70782715 172.90706543 123.88745117 172.98999023 C128.14551218 173.39839063 132.10843523 174.2595598 136.25 175.3125 C136.10915204 177.10456547 135.96216299 178.89614917 135.8125 180.6875 C135.73128906 181.68523437 135.65007812 182.68296875 135.56640625 183.7109375 C135.25 186.3125 135.25 186.3125 134.25 188.3125 C133.04472656 188.0959375 131.83945312 187.879375 130.59765625 187.65625 C107.63231078 183.86131046 83.09098828 183.01652576 60.39746094 188.77001953 C58.4029649 189.2738588 56.393103 189.71576551 54.3828125 190.15234375 C26.97309493 196.54794452 2.31096785 211.93480762 -17.75 231.3125 C-18.67554688 232.17488281 -19.60109375 233.03726563 -20.5546875 233.92578125 C-32.24578662 245.10353183 -40.73422458 258.35911316 -48.75 272.3125 C-52.52948596 270.83161112 -56.1350182 269.16202557 -59.75 267.3125 C-57.81876412 252.74776277 -42.39487427 237.44182001 -32.75 227.3125 C-31.98212158 226.50377441 -31.98212158 226.50377441 -31.19873047 225.67871094 C-1.52849544 194.63027919 39.16061223 174.349505 82.25 171.3125 C88.52 171.3125 94.79 171.3125 101.25 171.3125 C101.25 138.9725 101.25 106.6325 101.25 73.3125 C97.62 75.6225 93.99 77.9325 90.25 80.3125 C49.46950442 101.81341905 -7.27203523 102.63109768 -51.75 94.3125 C-52.8210498 94.11382324 -53.89209961 93.91514648 -54.99560547 93.71044922 C-66.52665919 91.48363644 -77.74550645 88.67700723 -88.6875 84.375 C-89.83001221 83.9260437 -89.83001221 83.9260437 -90.99560547 83.46801758 C-95.45810766 81.5921957 -99.46327822 79.29603998 -103.53344727 76.67358398 C-104.51346207 76.04395248 -105.49347687 75.41432098 -106.50318909 74.76560974 C-107.24463669 74.28608353 -107.98608429 73.80655731 -108.75 73.3125 C-108.8428022 82.33567278 -108.9138165 91.35868052 -108.95724869 100.38222694 C-108.97809718 104.57253538 -109.00636416 108.76251659 -109.05175781 112.95263672 C-109.09531419 116.99862242 -109.1191577 121.04429395 -109.12950897 125.09049606 C-109.13688286 126.63184935 -109.15128257 128.17318602 -109.17292023 129.71440506 C-109.20208611 131.87849936 -109.20595076 134.04130625 -109.20410156 136.20556641 C-109.21298401 137.43578522 -109.22186646 138.66600403 -109.23101807 139.9335022 C-108.43165176 145.5487944 -105.25800299 149.33057549 -100.875 152.75 C-89.02417455 161.47005633 -75.79748059 165.58794865 -61.75 169.3125 C-60.61433594 169.62058594 -59.47867188 169.92867187 -58.30859375 170.24609375 C-46.03261635 173.2113799 -33.28803172 174.0493109 -20.75 175.3125 C-19.74259766 175.41401367 -18.73519531 175.51552734 -17.69726562 175.62011719 C-15.38165227 175.85233035 -13.0658491 176.08264981 -10.75 176.3125 C-10.75 180.6025 -10.75 184.8925 -10.75 189.3125 C-19.23143045 189.52494431 -27.46568612 188.74338578 -35.875 187.6875 C-36.57431641 187.60046814 -37.27363281 187.51343628 -37.99414062 187.42376709 C-62.64150373 184.30149677 -89.56819804 178.71765544 -109.75 163.3125 C-109.75832634 171.78007508 -109.7342961 180.24669423 -109.6697216 188.71399689 C-109.64073206 192.64640525 -109.62260833 196.57822044 -109.62988281 200.51074219 C-109.636503 204.31078842 -109.61384146 208.10966534 -109.57144547 211.9094696 C-109.56036154 213.35418023 -109.55957148 214.79901013 -109.56957626 216.24372864 C-109.61530099 223.82200021 -109.5967163 229.95086399 -104.32870483 235.87437439 C-101.87636982 238.10833587 -99.40741567 239.77732593 -96.5 241.375 C-95.91589355 241.69662109 -95.33178711 242.01824219 -94.72998047 242.34960938 C-87.06946753 246.41981693 -78.88940594 249.35942755 -70.75 252.3125 C-72.235 258.2525 -72.235 258.2525 -73.75 264.3125 C-79.9158548 263.30354194 -85.47956489 261.39180931 -91.25 259.0625 C-91.94923584 258.78720459 -92.64847168 258.51190918 -93.36889648 258.22827148 C-97.37807888 256.56931553 -100.92342893 254.6235165 -104.51757812 252.18457031 C-105.31425903 251.64616516 -106.11093994 251.10776001 -106.9317627 250.55303955 C-107.53178101 250.1436615 -108.13179932 249.73428345 -108.75 249.3125 C-108.81957765 257.57067754 -108.87285044 265.82873215 -108.90543652 274.08713055 C-108.92107795 277.92204343 -108.94228805 281.75675545 -108.97631836 285.59155273 C-109.00896667 289.29387696 -109.02686447 292.99600825 -109.03463173 296.69846535 C-109.04016547 298.10944467 -109.05097164 299.52041369 -109.06719017 300.93131065 C-109.08903449 302.91072627 -109.090226 304.89033693 -109.09057617 306.86987305 C-109.09723801 307.99572311 -109.10389984 309.12157318 -109.11076355 310.28153992 C-108.40047107 316.2490723 -104.70545316 319.7968555 -100.27734375 323.48828125 C-89.33928407 331.38329496 -76.58206199 334.8161999 -63.75 338.3125 C-64.05769707 340.12582154 -64.37129064 341.93814345 -64.6875 343.75 C-64.86152344 344.75933594 -65.03554687 345.76867187 -65.21484375 346.80859375 C-65.75 349.3125 -65.75 349.3125 -66.75 350.3125 C-83.55086402 350.01248457 -101.65097688 340.71361097 -113.62890625 329.5234375 C-121.40172734 321.4213809 -123.20123253 315.11950919 -123.13768005 304.16041565 C-123.14306559 303.04526941 -123.14845113 301.93012317 -123.15399987 300.78118461 C-123.16829436 297.04875329 -123.16117179 293.31667587 -123.15405273 289.58422852 C-123.1597555 286.90654377 -123.16661886 284.22888435 -123.17485046 281.5512085 C-123.19202919 275.03560976 -123.19288044 268.5201075 -123.18763756 262.00449199 C-123.183593 256.70771126 -123.18504281 251.41095899 -123.19038582 246.11417961 C-123.19113424 245.35976421 -123.19188266 244.6053488 -123.19265376 243.82807232 C-123.19418527 242.2953879 -123.19572362 240.76270349 -123.19726873 239.23001909 C-123.21099035 224.86332543 -123.2055584 210.49668626 -123.19408352 196.12999385 C-123.18415083 182.99257419 -123.19709298 169.85529536 -123.22101771 156.71789742 C-123.24541196 143.22075441 -123.25501583 129.72367699 -123.24836498 116.22651237 C-123.24487357 108.65192344 -123.24709971 101.07744281 -123.26461601 93.50287056 C-123.27934206 87.05503952 -123.27996824 80.60739307 -123.2625451 74.15956564 C-123.25403597 70.87138404 -123.25405354 67.58359977 -123.26719666 64.29542351 C-123.2803704 60.72716011 -123.26888957 57.15979276 -123.25120544 53.59156799 C-123.26081045 52.55741668 -123.27041546 51.52326536 -123.28031152 50.45777613 C-123.18794577 41.3986098 -120.15217972 35.01697117 -114.04296875 28.38671875 C-96.53881851 12.55247041 -72.11415237 6.89723181 -49.5 3 C-48.5920166 2.84063965 -47.6840332 2.6812793 -46.74853516 2.51708984 C-31.35189263 0.05025452 -15.55916225 0.04487141 0 0 Z " fill="#FAFAFE" transform="translate(199.75,76.6875)"></path><path d="M0 0 C0.87301758 0.27859863 1.74603516 0.55719727 2.64550781 0.84423828 C7.17397289 2.29931425 11.68376902 3.80546583 16.16015625 5.4140625 C16.87824463 5.6713916 17.59633301 5.9287207 18.33618164 6.19384766 C20 7 20 7 21 9 C20.00390625 11.3828125 20.00390625 11.3828125 18.5625 14.125 C17.85287109 15.49011719 17.85287109 15.49011719 17.12890625 16.8828125 C16.75636719 17.58148438 16.38382813 18.28015625 16 19 C11.96391159 18.32594858 8.15782674 17.15358593 4.26391602 15.93017578 C-30.5932696 5.03668595 -65.27137067 7.16123674 -98 24 C-127.97287442 40.39379299 -149.94877867 68.52173257 -160 101 C-162.80094367 111.22854733 -163.75508258 121.41820191 -165 132 C-141.24 132 -117.48 132 -93 132 C-92.67 129.69 -92.34 127.38 -92 125 C-87.88250075 113.71941321 -80.61916271 106.30958135 -70 101 C-69.33742188 100.65839844 -68.67484375 100.31679688 -67.9921875 99.96484375 C-59.72486759 96.47960104 -48.33424211 96.57496781 -39.75390625 98.8671875 C-37.43289901 99.81214439 -35.23904752 100.88047624 -33 102 C-31.11434412 102.8502206 -31.11434412 102.8502206 -29 103 C-27.09362849 101.76993894 -27.09362849 101.76993894 -25.390625 99.84375 C-24.71773437 99.15023437 -24.04484375 98.45671875 -23.3515625 97.7421875 C-22.65804687 97.00226563 -21.96453125 96.26234375 -21.25 95.5 C-19.88280765 94.07042625 -18.51302131 92.64332868 -17.140625 91.21875 C-16.11775391 90.15624023 -16.11775391 90.15624023 -15.07421875 89.07226562 C-12.44140509 86.44193107 -9.65893147 84.02485243 -6.83496094 81.60351562 C-4.25755333 79.35119881 -1.89161735 76.94924669 0.5 74.5 C4.16565971 70.77879999 7.93168361 67.26315496 11.90625 63.875 C15.04520347 61.06399689 17.97350681 58.04732203 20.93139648 55.04907227 C24.15366448 51.79999393 27.49340645 48.77556137 30.97265625 45.80859375 C33.41428634 43.63041508 35.70048032 41.32751992 38 39 C40.89591958 36.06881809 43.80242571 33.23596826 46.9375 30.5625 C50.80222837 27.25991394 54.35348231 23.67603831 57.92016602 20.06030273 C61.24522281 16.70741635 64.6856962 13.56160057 68.28125 10.50390625 C69.8986582 9.08867408 71.38887375 7.61342827 72.875 6.0625 C75 4 75 4 77 4 C78.7265625 5.75 78.7265625 5.75 80.625 8 C81.57246094 9.11375 81.57246094 9.11375 82.5390625 10.25 C83.02117187 10.8275 83.50328125 11.405 84 12 C82.38308134 16.08125856 79.45729468 18.80607719 76.375 21.8125 C75.84100586 22.34004883 75.30701172 22.86759766 74.75683594 23.41113281 C70.64780287 27.4410985 66.4181345 31.30955824 62 35 C62.763125 35.86625 63.52625 36.7325 64.3125 37.625 C81.9905243 58.42267565 95.72248037 80.88205916 101 108 C101.22212158 109.1132666 101.22212158 109.1132666 101.44873047 110.24902344 C101.90901875 112.62032563 102.33583997 114.99523106 102.75 117.375 C102.87802002 118.06851563 103.00604004 118.76203125 103.13793945 119.4765625 C104.5134583 128.09997027 104 135.9967108 104 145 C10.94 145 -82.12 145 -178 145 C-178 117.35344828 -178 117.35344828 -175 106 C-174.7215625 104.78570312 -174.443125 103.57140625 -174.15625 102.3203125 C-168.00838801 76.82788476 -154.02368984 54.72664186 -136 36 C-135.14728516 35.05253906 -135.14728516 35.05253906 -134.27734375 34.0859375 C-124.91457492 23.98085195 -112.1707763 16.20470949 -100 10 C-98.99743164 9.48759766 -98.99743164 9.48759766 -97.97460938 8.96484375 C-69.57560356 -5.24777043 -30.57058595 -10.19251443 0 0 Z " fill="#FBFCFE" transform="translate(331,290)"></path><path d="M0 0 C4.23778711 4.05211087 6.50173933 7.9797078 7.4375 13.875 C7.07442179 19.94191974 3.07308585 23.75088015 -1.09765625 27.78515625 C-7.38061524 33.12860736 -14.54046129 36.03049479 -22.1875 38.9375 C-23.84845703 39.60265625 -23.84845703 39.60265625 -25.54296875 40.28125 C-37.3508925 44.65752005 -49.74684584 46.31557808 -62.1875 47.9375 C-63.16441803 48.06853119 -63.16441803 48.06853119 -64.16107178 48.20220947 C-70.22958574 48.95602332 -76.23278559 49.11440995 -82.34375 49.140625 C-83.40372192 49.14632507 -84.46369385 49.15202515 -85.55578613 49.15789795 C-87.79808571 49.16730695 -90.04039886 49.17386553 -92.28271484 49.17773438 C-95.62233634 49.1873131 -98.96130712 49.21832276 -102.30078125 49.25 C-121.56165243 49.34578139 -141.06334784 48.20006585 -159.75 43.1875 C-160.73049316 42.93291016 -161.71098633 42.67832031 -162.72119141 42.41601562 C-177.17670393 38.50053658 -194.2938016 32.67091321 -203.1875 19.9375 C-204.94386052 16.42477896 -204.71803007 12.77121133 -204.1875 8.9375 C-200.21844006 -0.92439892 -188.42195762 -5.74554071 -179.28833008 -9.63964844 C-173.03932555 -12.21108631 -166.72516505 -14.34121118 -160.1875 -16.0625 C-159.19621094 -16.32675781 -158.20492187 -16.59101562 -157.18359375 -16.86328125 C-153.53829004 -17.73547048 -149.88051006 -18.43238946 -146.1875 -19.0625 C-145.40600586 -19.20075195 -144.62451172 -19.33900391 -143.81933594 -19.48144531 C-100.27705449 -26.79074076 -36.60991461 -28.7977571 0 0 Z " fill="#4359DB" transform="translate(294.1875,112.0625)"></path><path d="M0 0 C13.32945158 4.85710865 23.11326395 26.75704848 28.91992188 38.92822266 C35.65979789 53.85167792 40 70.63651726 40 87 C5.68 87 -28.64 87 -64 87 C-65.98 80.565 -65.98 80.565 -68 74 C-68.99 72.68 -69.98 71.36 -71 70 C-70.7866808 66.70199868 -69.42512014 65.05639555 -67.12109375 62.79296875 C-66.53352295 62.20990967 -65.94595215 61.62685059 -65.34057617 61.02612305 C-64.71256104 60.41937744 -64.0845459 59.81263184 -63.4375 59.1875 C-62.47904175 58.24547729 -62.47904175 58.24547729 -61.5012207 57.28442383 C-57.72900368 53.60032258 -53.88066087 50.04397093 -49.85546875 46.63671875 C-46.82762966 43.96584596 -44.04531469 41.05275926 -41.2109375 38.1796875 C-39.24107189 36.23766452 -37.22846367 34.41938329 -35.125 32.625 C-31.75442279 29.73785219 -28.61495793 26.65753382 -25.5 23.5 C-21.81786881 19.76760939 -18.04369162 16.22972517 -14.05078125 12.83203125 C-10.57639281 9.72824424 -7.35419858 6.37225922 -4.1015625 3.0390625 C-2 1 -2 1 0 0 Z " fill="#3F51D4" transform="translate(382,335)"></path><path d="M0 0 C5.47311773 3.81230959 9.24762441 7.92183723 12 14 C12 15.32 12 16.64 12 18 C-5.82 18 -23.64 18 -42 18 C-40.47190862 10.35954312 -36.95250612 5.00949746 -30.5 0.5625 C-20.35900876 -5.52884415 -10.40080268 -5.77822371 0 0 Z " fill="#3D49CB" transform="translate(293,404)"></path><path d="M0 0 C4.58249551 0.6967537 8.68664665 2.35025073 12.9375 4.125 C13.67734131 4.43123291 14.41718262 4.73746582 15.17944336 5.05297852 C22.2910718 8.04146058 29.16128661 11.43433169 36 15 C35.36934243 18.21852831 34.21979305 20.50801069 32.4375 23.25 C31.98246094 23.95640625 31.52742188 24.6628125 31.05859375 25.390625 C30.53458984 26.18726563 30.53458984 26.18726563 30 27 C29.49251221 26.75354736 28.98502441 26.50709473 28.4621582 26.25317383 C26.08149757 25.10089428 23.69750713 23.95575629 21.3125 22.8125 C20.45285645 22.3990332 19.59321289 21.98556641 18.70751953 21.55957031 C12.66521122 18.69000923 6.65375674 16.29061297 0.2734375 14.265625 C-2 13 -2 13 -2.92578125 10.62890625 C-3.00380596 7.8651888 -2.63397727 6.21618635 -1.5625 3.6875 C-1.27503906 2.99011719 -0.98757813 2.29273438 -0.69140625 1.57421875 C-0.46324219 1.05472656 -0.23507812 0.53523438 0 0 Z " fill="#F8F9FD" transform="translate(352,257)"></path></svg>