<svg version="1.1" xmlns="http://www.w3.org/2000/svg" width="16px" height="16px" fill="currentColor" viewBox="0 0 512 512"><path d="M0 0 C168.96 0 337.92 0 512 0 C512 168.96 512 337.92 512 512 C343.04 512 174.08 512 0 512 C0 343.04 0 174.08 0 0 Z " fill="#3F52D6" transform="translate(0,0)"></path><path d="M0 0 C5.81386128 6.08132705 6.19836549 10.55973182 6.14672852 18.79833984 C6.15534409 19.90802628 6.16395966 21.01771271 6.1728363 22.161026 C6.19551033 25.82373483 6.18875356 29.48567935 6.1796875 33.1484375 C6.18492289 35.69902778 6.19119906 38.24961613 6.19847107 40.80020142 C6.20887839 46.14489866 6.2046397 51.4893195 6.18969727 56.83398438 C6.17278763 62.99741646 6.18859826 69.16013968 6.22092015 75.32349432 C6.25091176 81.26943763 6.25278478 87.21516188 6.24342155 93.1611824 C6.24260244 95.6833043 6.24945812 98.205441 6.26419258 100.72751999 C6.28165513 104.25815872 6.26707841 107.78729228 6.24438477 111.31787109 C6.26192307 112.87359077 6.26192307 112.87359077 6.27981567 114.46073914 C6.17673881 122.3618081 3.9721263 127.22986539 -1.51171875 132.875 C-18.96493149 143.87811238 -40.70404553 146.10835681 -60.88671875 146 C-61.57827057 145.99850952 -62.26982239 145.99701904 -62.98233032 145.9954834 C-82.0878122 145.92192794 -109.29341118 145.77363007 -124.265625 131.953125 C-128.12359867 127.60244626 -130.63006013 123.87470262 -130.65414429 117.92570496 C-130.66267426 116.97110886 -130.67120422 116.01651276 -130.67999268 115.0329895 C-130.6790863 113.99238373 -130.67817993 112.95177795 -130.67724609 111.87963867 C-130.68396332 110.77839157 -130.69068054 109.67714447 -130.69760132 108.54252625 C-130.7166212 104.89679469 -130.72050766 101.25124686 -130.72265625 97.60546875 C-130.72908174 95.07204614 -130.73580991 92.53862428 -130.74282837 90.00520325 C-130.75481138 84.69151795 -130.75859378 79.37790118 -130.75732422 74.06420898 C-130.75612366 67.93272371 -130.77720951 61.80159092 -130.80881155 55.6701948 C-130.83817402 49.76166518 -130.84529871 43.85324261 -130.84410477 37.94463539 C-130.84646417 35.43563714 -130.85530666 32.92663626 -130.8707695 30.41768456 C-130.89038415 26.90600812 -130.88460808 23.3952362 -130.87255859 19.88354492 C-130.88379761 18.84901184 -130.89503662 17.81447876 -130.90661621 16.74859619 C-130.84474789 9.64610519 -129.66767292 5.16232873 -124.66796875 -0.1328125 C-94.95185978 -21.89855898 -29.35571927 -22.67476247 0 0 Z " fill="#FAFAFE" transform="translate(301.38671875,174.3125)"></path><path d="M0 0 C0.97926956 -0.00525696 1.95853912 -0.01051392 2.96748352 -0.01593018 C6.20569796 -0.029138 9.44342115 -0.02038911 12.68164062 -0.01025391 C14.93078709 -0.01227441 17.17993292 -0.01518565 19.42907715 -0.01895142 C24.14337398 -0.02337584 28.85750032 -0.01693976 33.57177734 -0.00292969 C39.61809612 0.01416209 45.6640154 0.00432157 51.71031952 -0.01364708 C56.35482805 -0.02448162 60.99924168 -0.02104006 65.64375305 -0.0132637 C67.87331693 -0.01126079 70.10288938 -0.01372415 72.33244324 -0.02070236 C75.44712179 -0.02831123 78.56115112 -0.01672009 81.67578125 0 C83.06142021 -0.00910904 83.06142021 -0.00910904 84.47505188 -0.0184021 C87.88229738 0.01552596 90.69038377 0.15609192 93.90942383 1.30992126 C96.36877003 4.88799993 95.89203783 8.79801368 95.85546875 13.02856445 C95.86247803 14.01744156 95.8694873 15.00631866 95.87670898 16.02516174 C95.89434654 19.30140072 95.88264455 22.57677923 95.86914062 25.85302734 C95.87183409 28.12602403 95.87571529 30.39901959 95.8807373 32.67201233 C95.88664036 37.43941196 95.87804396 42.2065121 95.859375 46.97387695 C95.8365983 53.08871045 95.84969585 59.20284125 95.87366486 65.31764889 C95.88811188 70.01279504 95.88352157 74.70777434 95.87315369 79.40292549 C95.87048272 81.65760951 95.87376911 83.91230861 95.8830719 86.16697502 C95.89321768 89.3178614 95.8777625 92.46760691 95.85546875 95.6184082 C95.86356567 96.55308929 95.8716626 97.48777039 95.88000488 98.45077515 C95.86872559 99.31018204 95.85744629 100.16958893 95.8458252 101.05503845 C95.84431709 101.7996379 95.84280899 102.54423735 95.84125519 103.31140041 C95.09497177 106.39041902 93.88088979 107.52602134 91.33789062 109.38818359 C88.17068481 109.89154816 88.17068481 109.89154816 84.35400391 109.89611816 C83.65103746 109.90235813 82.94807102 109.90859809 82.22380257 109.91502714 C79.86826156 109.93098222 77.5137518 109.91834399 75.15820312 109.90576172 C73.46953731 109.91118175 71.78087623 109.91830375 70.09222412 109.92700195 C65.50544412 109.94525244 60.91902361 109.93816072 56.33223724 109.92548561 C51.53479536 109.91536686 46.73738449 109.92474816 41.93994141 109.93103027 C33.88308173 109.93830996 25.82636867 109.92871055 17.76953125 109.90966797 C8.45132511 109.8878986 -0.86653097 109.89494975 -10.18472862 109.91697359 C-18.18143907 109.93511844 -26.17804407 109.9376904 -34.17476845 109.92721891 C-38.95248784 109.92097894 -43.73004262 109.92016217 -48.50775146 109.93336487 C-52.99926918 109.94490945 -57.49033505 109.93692329 -61.98180389 109.91378784 C-63.63137817 109.90849328 -65.28099039 109.91002731 -66.93054962 109.9188385 C-69.18028939 109.92974874 -71.42857584 109.91608741 -73.67822266 109.89611816 C-74.93772736 109.89461006 -76.19723206 109.89310196 -77.49490356 109.89154816 C-81.23310405 109.29743531 -82.41674055 108.38079977 -84.66210938 105.38818359 C-85.19023132 102.83502197 -85.19023132 102.83502197 -85.22729492 99.92041016 C-85.24958664 98.8253717 -85.27187836 97.73033325 -85.29484558 96.60211182 C-85.29681694 94.83332672 -85.29681694 94.83332672 -85.29882812 93.02880859 C-85.31524101 91.20129059 -85.31524101 91.20129059 -85.33198547 89.33685303 C-85.34785621 86.75797761 -85.3530455 84.17901771 -85.34838867 81.60009766 C-85.34960079 77.66604236 -85.40930045 73.73572911 -85.47265625 69.80224609 C-85.48080055 67.29444268 -85.48547054 64.78662509 -85.48632812 62.27880859 C-85.50990891 61.10771545 -85.53348969 59.93662231 -85.55778503 58.7300415 C-85.49520936 53.13227952 -85.24927718 49.33838848 -81.51806641 44.99829102 C-80.25571624 43.77084884 -78.97060713 42.56630748 -77.66210938 41.38818359 C-76.57606337 40.26994118 -75.49535758 39.14648183 -74.4206543 38.01733398 C-73.33061693 36.9208571 -72.23786033 35.82707763 -71.14257812 34.73583984 C-70.55793289 34.15023788 -69.97328766 33.56463593 -69.3709259 32.96128845 C-68.1512611 31.74095026 -66.93036128 30.5218452 -65.70825195 29.30395508 C-63.83296374 27.43408606 -61.96315473 25.5588546 -60.09375 23.68310547 C-58.90201372 22.49202898 -57.70996782 21.30126219 -56.51757812 20.11083984 C-55.95926804 19.55050552 -55.40095795 18.9901712 -54.82572937 18.41285706 C-49.92116898 13.53815279 -49.92116898 13.53815279 -45.95654297 13.06591797 C-41.80986311 13.47155139 -39.24987776 15.18681951 -35.95117188 17.54443359 C-35.3381723 17.96615845 -34.72517273 18.3878833 -34.09359741 18.8223877 C-32.14878382 20.16476881 -30.21807052 21.52597303 -28.28710938 22.88818359 C-26.96638056 23.80482573 -25.64477425 24.72020494 -24.32226562 25.63427734 C-21.09186982 27.8710832 -17.87397538 30.12486038 -14.66210938 32.38818359 C-14.65276367 31.52539795 -14.64341797 30.6626123 -14.63378906 29.77368164 C-14.58975216 26.5695652 -14.52813043 23.36640631 -14.45458984 20.1628418 C-14.42638141 18.77689964 -14.40516604 17.39079664 -14.39111328 16.00463867 C-14.36968516 14.01110955 -14.32093923 12.01793313 -14.27148438 10.02490234 C-14.25053711 8.82567139 -14.22958984 7.62644043 -14.20800781 6.39086914 C-13.66210938 3.38818359 -13.66210938 3.38818359 -12.23187256 1.72477722 C-8.25322504 -0.34460993 -4.42085693 -0.02906223 0 0 Z " fill="#3F50D3" transform="translate(339.662109375,319.61181640625)"></path><path d="M0 0 C0.97926956 -0.00525696 1.95853912 -0.01051392 2.96748352 -0.01593018 C6.20569796 -0.029138 9.44342115 -0.02038911 12.68164062 -0.01025391 C14.93078709 -0.01227441 17.17993292 -0.01518565 19.42907715 -0.01895142 C24.14337398 -0.02337584 28.85750032 -0.01693976 33.57177734 -0.00292969 C39.61809612 0.01416209 45.6640154 0.00432157 51.71031952 -0.01364708 C56.35482805 -0.02448162 60.99924168 -0.02104006 65.64375305 -0.0132637 C67.87331693 -0.01126079 70.10288938 -0.01372415 72.33244324 -0.02070236 C75.44712179 -0.02831123 78.56115112 -0.01672009 81.67578125 0 C83.06142021 -0.00910904 83.06142021 -0.00910904 84.47505188 -0.0184021 C87.88229738 0.01552596 90.69038377 0.15609192 93.90942383 1.30992126 C96.36877003 4.88799993 95.89203783 8.79801368 95.85546875 13.02856445 C95.86247803 14.01744156 95.8694873 15.00631866 95.87670898 16.02516174 C95.89434654 19.30140072 95.88264455 22.57677923 95.86914062 25.85302734 C95.87183409 28.12602403 95.87571529 30.39901959 95.8807373 32.67201233 C95.88664036 37.43941196 95.87804396 42.2065121 95.859375 46.97387695 C95.8365983 53.08871045 95.84969585 59.20284125 95.87366486 65.31764889 C95.88811188 70.01279504 95.88352157 74.70777434 95.87315369 79.40292549 C95.87048272 81.65760951 95.87376911 83.91230861 95.8830719 86.16697502 C95.89321768 89.3178614 95.8777625 92.46760691 95.85546875 95.6184082 C95.86356567 96.55308929 95.8716626 97.48777039 95.88000488 98.45077515 C95.86872559 99.31018204 95.85744629 100.16958893 95.8458252 101.05503845 C95.84431709 101.7996379 95.84280899 102.54423735 95.84125519 103.31140041 C95.09497177 106.39041902 93.88088979 107.52602134 91.33789062 109.38818359 C88.17068481 109.89154816 88.17068481 109.89154816 84.35400391 109.89611816 C83.65103746 109.90235813 82.94807102 109.90859809 82.22380257 109.91502714 C79.86826156 109.93098222 77.5137518 109.91834399 75.15820312 109.90576172 C73.46953731 109.91118175 71.78087623 109.91830375 70.09222412 109.92700195 C65.50544412 109.94525244 60.91902361 109.93816072 56.33223724 109.92548561 C51.53479536 109.91536686 46.73738449 109.92474816 41.93994141 109.93103027 C33.88308173 109.93830996 25.82636867 109.92871055 17.76953125 109.90966797 C8.45132511 109.8878986 -0.86653097 109.89494975 -10.18472862 109.91697359 C-18.18143907 109.93511844 -26.17804407 109.9376904 -34.17476845 109.92721891 C-38.95248784 109.92097894 -43.73004262 109.92016217 -48.50775146 109.93336487 C-52.99926918 109.94490945 -57.49033505 109.93692329 -61.98180389 109.91378784 C-63.63137817 109.90849328 -65.28099039 109.91002731 -66.93054962 109.9188385 C-69.18028939 109.92974874 -71.42857584 109.91608741 -73.67822266 109.89611816 C-74.93772736 109.89461006 -76.19723206 109.89310196 -77.49490356 109.89154816 C-81.23310405 109.29743531 -82.41674055 108.38079977 -84.66210938 105.38818359 C-85.19023132 102.83502197 -85.19023132 102.83502197 -85.22729492 99.92041016 C-85.24958664 98.8253717 -85.27187836 97.73033325 -85.29484558 96.60211182 C-85.29681694 94.83332672 -85.29681694 94.83332672 -85.29882812 93.02880859 C-85.31524101 91.20129059 -85.31524101 91.20129059 -85.33198547 89.33685303 C-85.34785621 86.75797761 -85.3530455 84.17901771 -85.34838867 81.60009766 C-85.34960079 77.66604236 -85.40930045 73.73572911 -85.47265625 69.80224609 C-85.48080055 67.29444268 -85.48547054 64.78662509 -85.48632812 62.27880859 C-85.50990891 61.10771545 -85.53348969 59.93662231 -85.55778503 58.7300415 C-85.49520936 53.13227952 -85.24927718 49.33838848 -81.51806641 44.99829102 C-80.25571624 43.77084884 -78.97060713 42.56630748 -77.66210938 41.38818359 C-76.57606337 40.26994118 -75.49535758 39.14648183 -74.4206543 38.01733398 C-73.33061693 36.9208571 -72.23786033 35.82707763 -71.14257812 34.73583984 C-70.55793289 34.15023788 -69.97328766 33.56463593 -69.3709259 32.96128845 C-68.1512611 31.74095026 -66.93036128 30.5218452 -65.70825195 29.30395508 C-63.83296374 27.43408606 -61.96315473 25.5588546 -60.09375 23.68310547 C-58.90201372 22.49202898 -57.70996782 21.30126219 -56.51757812 20.11083984 C-55.95926804 19.55050552 -55.40095795 18.9901712 -54.82572937 18.41285706 C-49.92116898 13.53815279 -49.92116898 13.53815279 -45.95654297 13.06591797 C-41.80986311 13.47155139 -39.24987776 15.18681951 -35.95117188 17.54443359 C-35.3381723 17.96615845 -34.72517273 18.3878833 -34.09359741 18.8223877 C-32.14878382 20.16476881 -30.21807052 21.52597303 -28.28710938 22.88818359 C-26.96638056 23.80482573 -25.64477425 24.72020494 -24.32226562 25.63427734 C-21.09186982 27.8710832 -17.87397538 30.12486038 -14.66210938 32.38818359 C-14.65276367 31.52539795 -14.64341797 30.6626123 -14.63378906 29.77368164 C-14.58975216 26.5695652 -14.52813043 23.36640631 -14.45458984 20.1628418 C-14.42638141 18.77689964 -14.40516604 17.39079664 -14.39111328 16.00463867 C-14.36968516 14.01110955 -14.32093923 12.01793313 -14.27148438 10.02490234 C-14.25053711 8.82567139 -14.22958984 7.62644043 -14.20800781 6.39086914 C-13.66210938 3.38818359 -13.66210938 3.38818359 -12.23187256 1.72477722 C-8.25322504 -0.34460993 -4.42085693 -0.02906223 0 0 Z M-0.66210938 13.38818359 C-0.99210937 24.60818359 -1.32210937 35.82818359 -1.66210938 47.38818359 C-1.99210937 48.37818359 -2.32210937 49.36818359 -2.66210938 50.38818359 C-9.59616018 50.98692817 -12.9662243 49.56861435 -18.52148438 45.54052734 C-19.23314758 45.04984268 -19.94481079 44.55915802 -20.67803955 44.05360413 C-22.93535741 42.49489797 -25.17468937 40.91279167 -27.41210938 39.32568359 C-29.66512539 37.73722799 -31.92144717 36.15465673 -34.18902588 34.58705139 C-35.5957914 33.61375803 -36.99411633 32.62812546 -38.38275146 31.62913513 C-41.72496809 29.08147265 -41.72496809 29.08147265 -45.70581055 28.66691589 C-56.9978786 32.8301878 -64.6831269 44.70157775 -71.66210938 53.38818359 C-71.66210938 67.57818359 -71.66210938 81.76818359 -71.66210938 96.38818359 C-20.84210938 96.38818359 29.97789062 96.38818359 82.33789062 96.38818359 C82.33789062 68.99818359 82.33789062 41.60818359 82.33789062 13.38818359 C54.94789063 13.38818359 27.55789063 13.38818359 -0.66210938 13.38818359 Z " fill="#FBFBFE" transform="translate(339.662109375,319.61181640625)"></path><path d="M0 0 C3.22836596 0.62759888 6.30736792 1.36597996 9.4375 2.375 C23.75391525 6.74707891 37.73650209 8.23853176 52.625 8.25 C53.79851013 8.25101212 53.79851013 8.25101212 54.99572754 8.25204468 C72.05716266 8.22867704 88.06841181 7.01082604 104.1640625 0.98828125 C107 0 107 0 110 0 C110.14528105 3.74959217 110.23406281 7.49846105 110.3125 11.25 C110.35439453 12.31347656 110.39628906 13.37695312 110.43945312 14.47265625 C110.56238453 22.29109383 110.56238453 22.29109383 107.9609375 25.5703125 C104.48479125 27.24876834 101.01268746 28.55694069 97.3125 29.625 C96.60134033 29.83737305 95.89018066 30.04974609 95.1574707 30.26855469 C69.61653446 37.7524406 32.52236494 39.87398724 8 28 C7.31599121 27.72551025 6.63198242 27.45102051 5.92724609 27.16821289 C3.48877431 25.99687459 1.83787584 24.99589318 0 23 C-0.99371423 19.02665848 -0.75818622 15.25145037 -0.5 11.1875 C-0.46390625 10.11306641 -0.4278125 9.03863281 -0.390625 7.93164062 C-0.29649065 5.28411207 -0.16518356 2.64388994 0 0 Z " fill="#4356D7" transform="translate(184,202)"></path><path d="M0 0 C0.7633667 0.309375 1.5267334 0.61875 2.31323242 0.9375 C18.91588648 7.5031293 36.01678981 8.35742066 53.64477539 8.31567383 C56.4308978 8.3125075 59.21596033 8.33610111 62.00195312 8.36132812 C76.30264573 8.41264347 90.00755442 7.1817523 103.5625 2.3125 C104.80128906 1.87550781 106.04007812 1.43851563 107.31640625 0.98828125 C108.20199219 0.66214844 109.08757812 0.33601562 110 0 C110.14528105 3.74959217 110.23406281 7.49846105 110.3125 11.25 C110.35439453 12.31347656 110.39628906 13.37695312 110.43945312 14.47265625 C110.56298218 22.32910441 110.56298218 22.32910441 107.83984375 25.57421875 C106.43412109 26.27998047 106.43412109 26.27998047 105 27 C103.64648438 27.68255859 103.64648438 27.68255859 102.265625 28.37890625 C86.90169027 34.40905162 71.54192465 35.55631088 55.1875 35.4375 C54.31113892 35.43479095 53.43477783 35.43208191 52.53186035 35.42929077 C15.04047007 35.25352582 15.04047007 35.25352582 1.37988281 24.75488281 C-0.52501309 22.3323082 -0.34360371 20.73075696 -0.29296875 17.67578125 C-0.2784668 16.13374023 -0.2784668 16.13374023 -0.26367188 14.56054688 C-0.23853516 13.48869141 -0.21339844 12.41683594 -0.1875 11.3125 C-0.16719727 9.68731445 -0.16719727 9.68731445 -0.14648438 8.02929688 C-0.11110643 5.35236595 -0.06174189 2.67643162 0 0 Z " fill="#4254D4" transform="translate(184,240)"></path><path d="M0 0 C7.88433757 -0.09040077 15.76827166 -0.16377239 23.65298843 -0.20724869 C27.31426511 -0.2281161 30.97516858 -0.25641706 34.63623047 -0.30175781 C38.16998711 -0.34524763 41.70338499 -0.36914348 45.23738861 -0.37950897 C47.24051252 -0.39048737 49.24349226 -0.42170876 51.24639893 -0.45318604 C52.46736267 -0.45348816 53.68832642 -0.45379028 54.94628906 -0.45410156 C56.02106506 -0.46298401 57.09584106 -0.47186646 58.20318604 -0.48101807 C61 0 61 0 63.34997559 1.65002441 C65.45964587 4.65463066 65.48430427 6.39918381 65.45410156 10.05371094 C65.45379944 11.27467468 65.45349731 12.49563843 65.45318604 13.75360107 C65.43254089 15.06725647 65.41189575 16.38091187 65.390625 17.734375 C65.38316087 19.09628468 65.37746874 20.45820512 65.37347412 21.82012939 C65.35823092 25.39770368 65.31896181 28.97462422 65.2746582 32.55194092 C65.23367632 36.20511024 65.21545697 39.85838562 65.1953125 43.51171875 C65.1524649 50.67481114 65.08212736 57.83723054 65 65 C60.38 65 55.76 65 51 65 C51 51.47 51 37.94 51 24 C44.69788655 29.47299167 44.69788655 29.47299167 38.6953125 35.19116211 C37.95514893 35.93140121 37.21498535 36.67164032 36.45239258 37.43431091 C35.68435303 38.20751175 34.91631348 38.98071259 34.125 39.77734375 C33.31506592 40.58869278 32.50513184 41.40004181 31.6706543 42.23597717 C29.11138985 44.80079139 26.5556447 47.36907948 24 49.9375 C22.25413867 51.68838283 20.50804713 53.43903613 18.76171875 55.18945312 C14.50514802 59.45698616 10.25145284 63.72736866 6 68 C2.09965426 66.10614981 -0.72092608 63.83192748 -4 61 C-2.50469676 57.51027997 -0.50808338 55.26534605 2.17431641 52.59863281 C3.03505768 51.7380426 3.89579895 50.87745239 4.78262329 49.99078369 C5.71287323 49.07085632 6.64312317 48.15092896 7.6015625 47.203125 C8.56321086 46.24520903 9.52441694 45.28684886 10.48519897 44.32806396 C13.00923282 41.81164875 15.53921591 39.30129893 18.07049561 36.79217529 C20.65479176 34.22837574 23.23345684 31.6589257 25.8125 29.08984375 C30.86895321 24.05374663 35.93464464 19.02720624 41 14 C20.705 13.505 20.705 13.505 0 13 C0 8.71 0 4.42 0 0 Z " fill="#F8F9FE" transform="translate(332,83)"></path><path d="M0 0 C1.83144562 0.00056648 1.83144562 0.00056648 3.69989014 0.00114441 C5.01354553 0.02695084 6.32720093 0.05275726 7.68066406 0.0793457 C9.04256898 0.08867584 10.40449073 0.09579101 11.76641846 0.1007843 C15.34416357 0.11983922 18.92088733 0.16892429 22.49822998 0.2243042 C26.15134871 0.27553084 29.80463314 0.29830546 33.45800781 0.32348633 C40.62128691 0.37704723 47.78351453 0.46496768 54.94628906 0.56762695 C54.94628906 4.85762695 54.94628906 9.14762695 54.94628906 13.56762695 C41.41628906 13.89762695 27.88628906 14.22762695 13.94628906 14.56762695 C28.79628906 29.41762695 43.64628906 44.26762695 58.94628906 59.56762695 C52.94628906 66.56762695 52.94628906 66.56762695 48.94628906 68.56762695 C34.09628906 53.71762695 19.24628906 38.86762695 3.94628906 23.56762695 C3.61628906 37.09762695 3.28628906 50.62762695 2.94628906 64.56762695 C-1.34371094 64.56762695 -5.63371094 64.56762695 -10.05371094 64.56762695 C-10.1441825 56.96140465 -10.21752488 49.35538349 -10.26095963 41.74875355 C-10.28180937 38.21641313 -10.31007772 34.68446082 -10.35546875 31.15234375 C-10.40735918 27.08891128 -10.4266776 23.02588467 -10.44433594 18.9621582 C-10.47530365 17.06503838 -10.47530365 17.06503838 -10.50689697 15.1295929 C-10.5071991 13.94874619 -10.50750122 12.76789948 -10.5078125 11.55126953 C-10.51669495 10.51424393 -10.52557739 9.47721832 -10.534729 8.4087677 C-9.44927953 1.99754337 -6.22660627 -0.06432444 0 0 Z " fill="#FBFBFE" transform="translate(91.0537109375,82.432373046875)"></path><path d="M0 0 C2.10985556 0.95194313 3.48784894 2.01752428 5.14031982 3.63719177 C5.67270264 4.13863708 6.20508545 4.6400824 6.75360107 5.15672302 C7.82781982 6.82469177 7.82781982 6.82469177 7.64251709 8.70066833 C6.57499813 11.48383134 5.15975689 12.56874543 2.86688232 14.47703552 C-2.15487578 18.84133153 -6.88702471 23.43181296 -11.58624268 28.14109802 C-12.7046756 29.26105667 -12.7046756 29.26105667 -13.84570312 30.40364075 C-16.16483395 32.72953604 -18.48106575 35.05829313 -20.79718018 37.38719177 C-22.38939373 38.98443064 -23.98183978 40.58143777 -25.57452393 42.1782074 C-29.44353223 46.05728076 -33.30772393 49.94106237 -37.17218018 53.82469177 C-16.87718018 54.31969177 -16.87718018 54.31969177 3.82781982 54.82469177 C3.82781982 59.11469177 3.82781982 63.40469177 3.82781982 67.82469177 C-3.92609458 67.91509616 -11.67972054 67.98846668 -19.43401718 68.03194046 C-23.03476303 68.0528069 -26.63512933 68.08110598 -30.23565674 68.12644958 C-33.71105931 68.16994302 -37.18609705 68.19383599 -40.66175079 68.20420074 C-42.63163801 68.21517792 -44.60137865 68.24639877 -46.57104492 68.27787781 C-48.37245941 68.27833099 -48.37245941 68.27833099 -50.21026611 68.27879333 C-51.79578278 68.292117 -51.79578278 68.292117 -53.41333008 68.30570984 C-56.95739822 67.68778543 -58.10624203 66.74966052 -60.17218018 63.82469177 C-60.65319824 61.06584167 -60.65319824 61.06584167 -60.62628174 57.86277771 C-60.62597961 56.66183472 -60.62567749 55.46089172 -60.62536621 54.22355652 C-60.60472107 52.9317749 -60.58407593 51.63999329 -60.56280518 50.30906677 C-60.55534088 48.96957749 -60.54964884 47.63007725 -60.5456543 46.29057312 C-60.5304123 42.77217741 -60.49114435 39.25444662 -60.44683838 35.73631287 C-60.40585382 32.14346816 -60.38763658 28.55051557 -60.36749268 24.95750427 C-60.32464747 17.91293611 -60.25431028 10.86892741 -60.17218018 3.82469177 C-55.88218018 3.82469177 -51.59218018 3.82469177 -47.17218018 3.82469177 C-46.84218018 17.02469177 -46.51218018 30.22469177 -46.17218018 43.82469177 C-43.04233643 40.63684021 -39.91249268 37.44898865 -36.68780518 34.16453552 C-34.18888122 31.63346829 -31.68745908 29.10492818 -29.18429565 26.57805634 C-26.54048866 23.90781938 -23.90133079 21.23333044 -21.27276611 18.54808044 C-18.74197487 15.96305611 -16.19924588 13.3903552 -13.64769745 10.82582283 C-12.67525816 9.84412801 -11.70723875 8.85803497 -10.74372101 7.86758232 C-9.39595328 6.48364849 -8.03102185 5.11649217 -6.66534424 3.75022888 C-5.89257141 2.966353 -5.11979858 2.18247711 -4.3236084 1.37484741 C-2.17218018 -0.17530823 -2.17218018 -0.17530823 0 0 Z " fill="#FBFBFE" transform="translate(148.17218017578125,329.17530822753906)"></path><path d="M0 0 C20.42654966 3.41081223 43.0871763 17.21250992 55.5625 33.625 C62.1197183 43.29482192 65.17541475 52.27318776 64 64 C59.87071541 80.24699825 48.87841745 92.11082469 35.0625 101 C9.76129518 116 9.76129518 116 -1 116 C-1.50559908 114.56445975 -2.0042749 113.1264798 -2.5 111.6875 C-2.7784375 110.88699219 -3.056875 110.08648437 -3.34375 109.26171875 C-4 107 -4 107 -4 104 C-3.46745605 103.79955078 -2.93491211 103.59910156 -2.38623047 103.39257812 C17.41660894 95.8754254 37.77802142 87.68643749 48.09375 67.90234375 C50.68414275 61.87008655 51.16611893 56.30400364 48.96875 50.078125 C39.39151966 29.11463192 16.35094434 19.70941656 -4 12 C-3.5317879 7.22423661 -2.75668002 3.95523655 0 0 Z " fill="#F9FAFE" transform="translate(335,179)"></path><path d="M0 0 C-0.3046875 1.875 -0.3046875 1.875 -1 4 C-7.95217249 8.4493904 -16.01629863 10.20509978 -24 12 C-24.7410498 12.18095215 -25.48209961 12.3619043 -26.24560547 12.54833984 C-34.73473799 14.38850305 -43.23001296 14.37221792 -51.87597656 14.37060547 C-54.46748288 14.37494554 -57.05723456 14.41127226 -59.6484375 14.44921875 C-75.50308732 14.55600436 -91.80275495 12.57529954 -106 5 C-106.66 4.34 -107.32 3.68 -108 3 C-107.8984375 1.03515625 -107.8984375 1.03515625 -107 -1 C-83.84320926 -17.8196443 -22.5141646 -18.5284034 0 0 Z " fill="#4359DA" transform="translate(293,184)"></path><path d="M0 0 C0.94921875 1.7421875 0.94921875 1.7421875 1.6875 3.875 C1.93886719 4.57367188 2.19023437 5.27234375 2.44921875 5.9921875 C3 8 3 8 3 11 C2.46745605 11.22550537 1.93491211 11.45101074 1.38623047 11.68334961 C-16.83967871 19.46671883 -37.00004014 28.1000843 -46 47 C-47.96298053 53.08402039 -48.09890522 59.93847439 -45.94140625 65.94921875 C-36.69307125 83.91956074 -15.57654565 94.80781812 3 101 C2.33501617 105.38889325 0.81242323 108.9811485 -1 113 C-21.25344806 109.89602329 -42.65507124 94.44100113 -54.6015625 78.26953125 C-60.36658597 68.91344567 -62.21160958 58.83928751 -61 48 C-57.1305639 32.70307035 -44.80260194 21.13510172 -31.875 12.9375 C-6.409375 -2.13645833 -6.409375 -2.13645833 0 0 Z " fill="#FAFBFE" transform="translate(138,181)"></path><path d="M0 0 C2.35441952 0.56691183 4.67653377 1.19530624 7.00390625 1.8671875 C36.99850396 10.36181561 72.62220317 12.30593159 102.44140625 1.8671875 C104.94965801 1.01706247 107.39507585 0.46163213 110 0 C110.13526616 2.5850867 110.23417653 5.16308752 110.3125 7.75 C110.35439453 8.47960937 110.39628906 9.20921875 110.43945312 9.9609375 C110.52396951 13.67965823 110.40955889 15.5435046 107.88671875 18.35546875 C83.96591901 31.9828797 45.13947469 31.8670384 19.04296875 25.2109375 C2.97730072 20.60128293 2.97730072 20.60128293 0 16 C-0.21714241 13.18872957 -0.28284276 10.6116655 -0.1875 7.8125 C-0.17396484 7.06291016 -0.16042969 6.31332031 -0.14648438 5.54101562 C-0.11118539 3.69370233 -0.05737917 1.84675934 0 0 Z " fill="#4150D1" transform="translate(184,279)"></path><path d="M0 0 C4.29 0 8.58 0 13 0 C13 6.27 13 12.54 13 19 C8.71 19 4.42 19 0 19 C0 12.73 0 6.46 0 0 Z " fill="#FAFBFE" transform="translate(390,346)"></path><path d="M0 0 C4.29 0 8.58 0 13 0 C13 6.27 13 12.54 13 19 C8.71 19 4.42 19 0 19 C0 12.73 0 6.46 0 0 Z " fill="#F9F9FD" transform="translate(371,346)"></path><path d="M0 0 C3.96 0 7.92 0 12 0 C12 6.27 12 12.54 12 19 C8.04 19 4.08 19 0 19 C0 12.73 0 6.46 0 0 Z " fill="#FCFDFE" transform="translate(352,346)"></path></svg>