<svg version="1.1" xmlns="http://www.w3.org/2000/svg" width="16px" height="16px" fill="currentColor" viewBox="0 0 512 512"><path d="M0 0 C168.96 0 337.92 0 512 0 C512 168.96 512 337.92 512 512 C343.04 512 174.08 512 0 512 C0 343.04 0 174.08 0 0 Z " fill="#7646D3" transform="translate(0,0)"></path><path d="M0 0 C1.58059269 0.54076364 3.16132428 1.08112148 4.7421875 1.62109375 C18.91806646 6.62752656 33.10651643 13.88575449 40.05980682 27.94003296 C42.44982121 33.41487282 42.55969458 38.36557563 42.50793457 44.27197266 C42.51417453 45.37587152 42.5204145 46.47977039 42.52684355 47.61712074 C42.54274152 51.29965481 42.53018112 54.98152404 42.51757812 58.6640625 C42.52300066 61.31087157 42.52997986 63.95763552 42.53881836 66.60443115 C42.5565664 73.03723944 42.55278028 79.46986061 42.5411678 85.90267611 C42.53211905 91.13266308 42.53091569 96.36259777 42.53526306 101.59259033 C42.53587599 102.33811995 42.53648893 103.08364957 42.53712043 103.851771 C42.53839939 105.36649562 42.53969624 106.88122024 42.5410108 108.39594483 C42.55240571 122.58577191 42.53932003 136.77549547 42.51780933 150.96530557 C42.49993932 163.12991699 42.50304373 175.29437571 42.52148438 187.45898438 C42.54291038 201.59946136 42.55130717 215.73984772 42.53903532 229.88033867 C42.53776118 231.38936232 42.5365037 232.89838599 42.53526306 234.40740967 C42.53433741 235.52099238 42.53433741 235.52099238 42.53339306 236.65707171 C42.52994534 241.87827591 42.535756 247.09942242 42.54518127 252.32061768 C42.5564219 258.687135 42.55331808 265.05345515 42.5320583 271.41995001 C42.52157533 274.66573348 42.51954662 277.91112238 42.53065491 281.15691376 C42.54160261 284.68094457 42.52785438 288.204055 42.50793457 291.72802734 C42.51685746 292.74622873 42.52578034 293.76443012 42.53497362 294.8134861 C42.43085574 304.32480492 39.38020698 311.25511109 32.89453125 318.1640625 C15.45865999 335.06068001 -10.84636422 340.46231487 -34 344 C-35.33472864 344.21556939 -36.66937374 344.43165718 -38.00390625 344.6484375 C-51.7495654 346.76787992 -65.49573702 347.20898976 -79.375 347.1875 C-80.16202301 347.18656342 -80.94904602 347.18562683 -81.75991821 347.18466187 C-118.39592649 347.09068659 -165.80572974 344.36646037 -193.73046875 317.32421875 C-200.73552407 309.80027044 -202.59818855 301.98681222 -202.49447632 291.92457581 C-202.49930515 290.84180026 -202.50413398 289.75902472 -202.50910914 288.6434378 C-202.52033825 285.03230654 -202.50309173 281.42188997 -202.48583984 277.81079102 C-202.48798675 275.2148825 -202.491866 272.61897492 -202.49734497 270.02307129 C-202.50740078 263.7142364 -202.49618106 257.40561209 -202.47764437 251.09680337 C-202.45681658 243.74222254 -202.45701836 236.38768654 -202.45798953 229.03308176 C-202.45898968 215.90539239 -202.44069826 202.77780063 -202.41162109 189.65014648 C-202.38345429 176.9268211 -202.36927942 164.2035816 -202.37060547 151.48022461 C-202.37068538 150.69668932 -202.37076529 149.91315404 -202.37084763 149.10587526 C-202.37092834 148.32366304 -202.37100905 147.54145082 -202.3710922 146.7355352 C-202.37247408 132.23007488 -202.36067847 117.72465088 -202.34278577 103.21920236 C-202.33676777 98.09917797 -202.33462839 92.9791603 -202.33372116 87.85913277 C-202.33220954 80.9603211 -202.31946894 74.06160103 -202.29938889 67.16281891 C-202.29355883 64.63368976 -202.2910841 62.10455026 -202.29224396 59.57541466 C-202.29322941 56.11765095 -202.28187435 52.66013669 -202.26742554 49.20240784 C-202.27052274 48.20657403 -202.27361995 47.21074022 -202.276811 46.18472964 C-202.2001701 35.04362523 -200.65550306 26.42374896 -193 18 C-181.35256401 7.19736261 -166.18077348 1.00830459 -151 -3 C-149.82824219 -3.33644531 -148.65648437 -3.67289062 -147.44921875 -4.01953125 C-102.035335 -16.40513591 -44.4584173 -16.21436269 0 0 Z " fill="#7444D0" transform="translate(336,88)"></path><path d="M0 0 C1.58059269 0.54076364 3.16132428 1.08112148 4.7421875 1.62109375 C18.91806646 6.62752656 33.10651643 13.88575449 40.05980682 27.94003296 C42.44982121 33.41487282 42.55969458 38.36557563 42.50793457 44.27197266 C42.51417453 45.37587152 42.5204145 46.47977039 42.52684355 47.61712074 C42.54274152 51.29965481 42.53018112 54.98152404 42.51757812 58.6640625 C42.52300066 61.31087157 42.52997986 63.95763552 42.53881836 66.60443115 C42.5565664 73.03723944 42.55278028 79.46986061 42.5411678 85.90267611 C42.53211905 91.13266308 42.53091569 96.36259777 42.53526306 101.59259033 C42.53587599 102.33811995 42.53648893 103.08364957 42.53712043 103.851771 C42.53839939 105.36649562 42.53969624 106.88122024 42.5410108 108.39594483 C42.55240571 122.58577191 42.53932003 136.77549547 42.51780933 150.96530557 C42.49993932 163.12991699 42.50304373 175.29437571 42.52148438 187.45898438 C42.54291038 201.59946136 42.55130717 215.73984772 42.53903532 229.88033867 C42.53776118 231.38936232 42.5365037 232.89838599 42.53526306 234.40740967 C42.53433741 235.52099238 42.53433741 235.52099238 42.53339306 236.65707171 C42.52994534 241.87827591 42.535756 247.09942242 42.54518127 252.32061768 C42.5564219 258.687135 42.55331808 265.05345515 42.5320583 271.41995001 C42.52157533 274.66573348 42.51954662 277.91112238 42.53065491 281.15691376 C42.54160261 284.68094457 42.52785438 288.204055 42.50793457 291.72802734 C42.51685746 292.74622873 42.52578034 293.76443012 42.53497362 294.8134861 C42.43085574 304.32480492 39.38020698 311.25511109 32.89453125 318.1640625 C15.45865999 335.06068001 -10.84636422 340.46231487 -34 344 C-35.33472864 344.21556939 -36.66937374 344.43165718 -38.00390625 344.6484375 C-51.7495654 346.76787992 -65.49573702 347.20898976 -79.375 347.1875 C-80.16202301 347.18656342 -80.94904602 347.18562683 -81.75991821 347.18466187 C-118.39592649 347.09068659 -165.80572974 344.36646037 -193.73046875 317.32421875 C-200.73552407 309.80027044 -202.59818855 301.98681222 -202.49447632 291.92457581 C-202.49930515 290.84180026 -202.50413398 289.75902472 -202.50910914 288.6434378 C-202.52033825 285.03230654 -202.50309173 281.42188997 -202.48583984 277.81079102 C-202.48798675 275.2148825 -202.491866 272.61897492 -202.49734497 270.02307129 C-202.50740078 263.7142364 -202.49618106 257.40561209 -202.47764437 251.09680337 C-202.45681658 243.74222254 -202.45701836 236.38768654 -202.45798953 229.03308176 C-202.45898968 215.90539239 -202.44069826 202.77780063 -202.41162109 189.65014648 C-202.38345429 176.9268211 -202.36927942 164.2035816 -202.37060547 151.48022461 C-202.37068538 150.69668932 -202.37076529 149.91315404 -202.37084763 149.10587526 C-202.37092834 148.32366304 -202.37100905 147.54145082 -202.3710922 146.7355352 C-202.37247408 132.23007488 -202.36067847 117.72465088 -202.34278577 103.21920236 C-202.33676777 98.09917797 -202.33462839 92.9791603 -202.33372116 87.85913277 C-202.33220954 80.9603211 -202.31946894 74.06160103 -202.29938889 67.16281891 C-202.29355883 64.63368976 -202.2910841 62.10455026 -202.29224396 59.57541466 C-202.29322941 56.11765095 -202.28187435 52.66013669 -202.26742554 49.20240784 C-202.27052274 48.20657403 -202.27361995 47.21074022 -202.276811 46.18472964 C-202.2001701 35.04362523 -200.65550306 26.42374896 -193 18 C-181.35256401 7.19736261 -166.18077348 1.00830459 -151 -3 C-149.82824219 -3.33644531 -148.65648437 -3.67289062 -147.44921875 -4.01953125 C-102.035335 -16.40513591 -44.4584173 -16.21436269 0 0 Z M-189 60 C-189.06843417 90.59983147 -189.12152715 121.19964545 -189.15319599 151.79953516 C-189.15694812 155.41192982 -189.16083109 159.02432432 -189.16479492 162.63671875 C-189.16558185 163.35588305 -189.16636878 164.07504734 -189.16717956 164.8160045 C-189.18023436 176.46142211 -189.2038886 188.1067953 -189.23145839 199.75218655 C-189.25951055 211.70096388 -189.27617586 223.64971793 -189.28226548 235.59852684 C-189.28601287 242.31019395 -189.29502784 249.02176844 -189.31719017 255.73340225 C-189.33752743 262.04850777 -189.34383933 268.36347087 -189.33932304 274.67860603 C-189.34014947 276.99817618 -189.34613141 279.317751 -189.35761642 281.63729286 C-189.37251704 284.80143131 -189.36896217 287.96503028 -189.36076355 291.12918091 C-189.36950207 292.0494224 -189.3782406 292.96966389 -189.38724393 293.91779149 C-189.34534592 299.89016106 -188.37202356 304.05844044 -184.51953125 308.8359375 C-158.61510076 332.19141945 -115.46358793 334.43484249 -82.4375 334.375 C-80.82267731 334.37468277 -80.82267731 334.37468277 -79.17523193 334.37435913 C-46.64325334 334.31074356 -0.06522833 333.06522833 24.6640625 308.3359375 C27.89858549 304.66773545 29.12556367 301.70555975 29.12304783 296.88268757 C29.12503888 296.04069948 29.12702993 295.1987114 29.12908131 294.33120853 C29.12471205 292.94357493 29.12471205 292.94357493 29.12025452 291.52790833 C29.12110894 290.54529248 29.12196337 289.56267664 29.12284368 288.55028456 C29.1244967 285.24289603 29.11897998 281.93555772 29.11352539 278.62817383 C29.11324345 276.26322938 29.11340138 273.89828485 29.1139679 271.53334045 C29.11422571 265.76853901 29.10988106 260.00375414 29.10353024 254.23895649 C29.09638804 247.53197383 29.09488562 240.82499355 29.09374207 234.11800762 C29.09155266 222.15687462 29.08489558 210.19574844 29.07543945 198.23461914 C29.06626246 186.6145023 29.05918303 174.99438731 29.05493164 163.37426758 C29.05466892 162.65817681 29.05440619 161.94208604 29.05413551 161.20429555 C29.05283049 157.61193037 29.05156677 154.01956517 29.05032361 150.42719996 C29.03995446 120.61812853 29.0222649 90.80906506 29 61 C26.51242 62.23919786 24.03699659 63.49629186 21.56640625 64.76953125 C-0.66599791 76.16475446 -22.38766202 80.72206315 -47 84 C-48.21139648 84.17724609 -49.42279297 84.35449219 -50.67089844 84.53710938 C-55.90052286 85.18151972 -61.12728056 85.19955273 -66.390625 85.23828125 C-68.02577309 85.25290405 -68.02577309 85.25290405 -69.69395447 85.26782227 C-97.85532572 85.46793771 -124.96692481 85.36011986 -152.03564453 76.63232422 C-153.99471571 76.00170101 -155.96213451 75.40700803 -157.93359375 74.81640625 C-169.15999784 71.31174581 -179.23845276 66.58048424 -189 60 Z " fill="#FBFAFD" transform="translate(336,88)"></path><path d="M0 0 C1.02389832 -0.00349457 2.04779663 -0.00698914 3.10272217 -0.0105896 C20.5399401 -0.04355319 37.66332401 0.8683265 54.75 4.5625 C55.75788574 4.77793457 56.76577148 4.99336914 57.80419922 5.21533203 C75.79008745 9.21632704 95.28216547 15.40256933 107.6875 29.6875 C109.15691765 33.80186942 108.96356285 37.16503585 107.625 41.3125 C98.41073044 56.7162941 76.2795759 61.84776908 60.078125 65.99609375 C52.639744 67.82721921 45.21628569 69.28836033 37.625 70.3125 C36.88121094 70.41546387 36.13742187 70.51842773 35.37109375 70.62451172 C11.45244108 73.78404994 -13.46871949 73.35555045 -37.375 70.3125 C-38.17615234 70.21598145 -38.97730469 70.11946289 -39.80273438 70.02001953 C-60.71132109 67.42983863 -90.58243923 62.12269507 -105.0625 45.5 C-108.59991 40.62411055 -109.18020272 37.26314449 -108.375 31.3125 C-102.76637177 19.89493538 -88.6870642 14.45860668 -77.375 10.3125 C-72.74816498 8.79254863 -68.09807951 7.49727249 -63.375 6.3125 C-62.34761719 6.04695313 -61.32023437 5.78140625 -60.26171875 5.5078125 C-56.65130186 4.65259775 -53.02806261 3.95315218 -49.375 3.3125 C-48.62202637 3.17424805 -47.86905273 3.03599609 -47.09326172 2.89355469 C-31.4543138 0.15681602 -15.82897826 0.01740313 0 0 Z " fill="#824FDE" transform="translate(256.375,89.6875)"></path><path d="M0 0 C7.18539953 3.26225576 12.57573663 9.10966543 15.55859375 16.34375 C16.59493168 24.19400982 16.61045964 31.74786045 12.109375 38.48046875 C5.59390147 46.30888405 -1.46464594 49.21917205 -11.44140625 50.34375 C-13.0431146 54.0904741 -14.62737055 57.84405733 -16.19604492 61.60473633 C-16.73169807 62.88211287 -17.27201853 64.15754291 -17.81713867 65.4309082 C-18.60138426 67.26511182 -19.36732416 69.1071081 -20.1328125 70.94921875 C-20.59888916 72.05418701 -21.06496582 73.15915527 -21.54516602 74.29760742 C-22.50472037 77.55894213 -22.52270909 79.15571742 -21.44140625 82.34375 C-20.13394876 84.03079193 -18.79968596 85.69735035 -17.44140625 87.34375 C-14.39792376 93.5705216 -14.26976425 101.07111539 -16.09375 107.72265625 C-18.91900981 113.9188269 -23.80769313 119.45558627 -30.06640625 122.28125 C-36.87614047 124.40101163 -45.2108555 124.73528486 -51.81640625 121.84375 C-57.46862274 118.47876518 -62.77951385 112.80666488 -64.44140625 106.34375 C-64.44140625 105.35375 -64.44140625 104.36375 -64.44140625 103.34375 C-65.11042969 103.24578125 -65.77945313 103.1478125 -66.46875 103.046875 C-75.58312247 101.62772439 -84.48750376 99.52918118 -93.44140625 97.34375 C-93.70695312 98.10429687 -93.9725 98.86484375 -94.24609375 99.6484375 C-96.53898216 104.81867606 -101.1325953 108.01648241 -106.25390625 110.21875 C-111.81463526 112.0650858 -117.89198634 112.19355664 -123.44140625 110.34375 C-123.57869141 111.32988281 -123.57869141 111.32988281 -123.71875 112.3359375 C-124.8480095 117.03609866 -126.98642816 121.25857255 -129.00195312 125.63671875 C-130.91263997 129.82099715 -130.91263997 129.82099715 -131.44140625 134.34375 C-130.69890625 134.92125 -129.95640625 135.49875 -129.19140625 136.09375 C-124.94677684 139.5666286 -122.48736069 143.91283274 -121.44140625 149.34375 C-120.79904375 157.2991625 -121.09811835 164.0858615 -126.140625 170.5078125 C-132.38793612 177.25834515 -137.71694585 179.40487293 -146.81640625 179.90625 C-154.61277213 179.69846736 -159.91977372 176.96788327 -165.3203125 171.41015625 C-170.06327276 165.54717164 -172.03057526 159.26829174 -171.8125 151.73828125 C-170.64738458 144.22022072 -166.39273114 138.41163936 -160.5546875 133.75 C-155.4160456 130.33057101 -150.65084625 128.878042 -144.44140625 129.34375 C-144.09078125 128.18875 -143.74015625 127.03375 -143.37890625 125.84375 C-142.3126212 122.56649153 -141.0599111 119.44762412 -139.61328125 116.32421875 C-139.28851807 115.6178125 -138.96375488 114.91140625 -138.62915039 114.18359375 C-137.96725759 112.75932064 -137.29210338 111.34112882 -136.60327148 109.9296875 C-134.72759711 106.11102757 -134.72759711 106.11102757 -135.140625 102.0390625 C-135.56988281 101.47960937 -135.99914062 100.92015625 -136.44140625 100.34375 C-140.42870668 93.4426531 -140.4209857 86.14773297 -139.44140625 78.34375 C-136.77135379 70.61678 -131.58253319 66.02993172 -124.44140625 62.34375 C-117.75954242 60.11646206 -110.53607615 60.41531959 -104.12890625 63.34375 C-98.32197167 66.63528136 -94.19673668 71.138364 -91.00390625 76.96875 C-90.32840408 79.82087029 -90.3055874 82.42364471 -90.44140625 85.34375 C-89.14203125 85.42625 -87.84265625 85.50875 -86.50390625 85.59375 C-78.6639006 86.35173034 -71.06639306 88.44192614 -63.44140625 90.34375 C-63.1784375 89.42980469 -62.91546875 88.51585937 -62.64453125 87.57421875 C-60.58954751 82.05645396 -56.52388428 78.83123431 -51.81640625 75.46875 C-48.44140625 74.34375 -48.44140625 74.34375 -35.44140625 73.34375 C-29.99640625 58.98875 -29.99640625 58.98875 -24.44140625 44.34375 C-26.75140625 41.70375 -29.06140625 39.06375 -31.44140625 36.34375 C-34.80345577 29.61965097 -35.97826876 22.97482902 -33.5625 15.6953125 C-27.36681756 2.0770798 -14.68781766 -3.94808539 0 0 Z " fill="#FCFBFE" transform="translate(334.44140625,188.65625)"></path><path d="M0 0 C4.56005984 1.86547902 6.71582225 4.68544202 9 9 C9.66067786 12.96406718 9.20144076 14.61950078 7.3125 18.1875 C3.79307746 22.46787877 1.59515954 23.79744006 -3.9375 24.5 C-8.70314808 24.31982427 -10.76251637 22.39164952 -14 19 C-16.55550471 15.51522085 -16.57216273 12.21970013 -16 8 C-11.74604444 1.41028357 -7.93961882 -0.82608751 0 0 Z " fill="#7546CF" transform="translate(223,263)"></path><path d="M0 0 C3.49291032 2.39737429 5.54933193 5.11568493 6.5390625 9.25390625 C6.80282693 13.35613724 6.30767181 16.17069176 3.75 19.4375 C0.36839813 22.5885381 -1.32460691 23.78147047 -5.875 24.375 C-10.80094062 23.78388713 -13.74139198 21.51032962 -16.875 17.75 C-18.36952925 14.09670628 -18.81253404 10.84448976 -18 7 C-13.92883262 -0.35071888 -7.78041255 -2.48596947 0 0 Z " fill="#7A4AD5" transform="translate(300,276)"></path><path d="M0 0 C3.12291165 1.68012647 5.39164837 3.78329674 7 7 C7.51816286 11.79937735 7.71207367 15.73409126 5.3125 20 C1.80763596 23.03123377 -0.81733242 23.82478999 -5.375 24.5 C-10.24098685 23.8288294 -12.73783993 21.5570446 -16 18 C-17.60632723 14.78734554 -17.47931944 11.48478188 -17 8 C-12.89861561 0.36293942 -8.3022388 -1.30205919 0 0 Z " fill="#8350DD" transform="translate(330,201)"></path><path d="M0 0 C3 2.5 3 2.5 5 5 C5.33 5.33 5.66 5.66 6 6 C6.53798008 10.08096316 6.93436984 14.24979978 4.953125 17.9609375 C2.53845283 20.87274805 0.60164497 22.82707904 -3.20703125 23.23828125 C-10.22118281 23.43808467 -10.22118281 23.43808467 -14 21.3125 C-16.88940602 17.97162429 -17.81893412 15.41834936 -18.375 11.0625 C-17.77606637 6.17120869 -15.44006195 3.27548344 -11.8125 0.0625 C-7.7007116 -1.49084229 -4.1912301 -1.27559177 0 0 Z " fill="#6C3FC7" transform="translate(194,332)"></path></svg>