<svg version="1.1" xmlns="http://www.w3.org/2000/svg" width="16px" height="16px" fill="currentColor" viewBox="0 0 512 512"><path d="M0 0 C168.96 0 337.92 0 512 0 C512 168.96 512 337.92 512 512 C343.04 512 174.08 512 0 512 C0 343.04 0 174.08 0 0 Z " fill="#2D8F7A" transform="translate(0,0)"></path><path d="M0 0 C0.76829132 -0.00040283 1.53658264 -0.00080566 2.32815552 -0.0012207 C23.42841711 0.06224943 42.02761651 4.59093087 61.1875 13.4375 C61.86748047 13.75058105 62.54746094 14.06366211 63.24804688 14.38623047 C96.5341773 30.08990189 122.26857981 60.18365408 134.7265625 94.5703125 C135.97479961 98.16467099 137.10064405 101.7909874 138.1875 105.4375 C138.52201172 106.50097656 138.52201172 106.50097656 138.86328125 107.5859375 C148.0585489 139.73427784 142.16555359 177.32928345 126.625 206.5 C126.25407227 207.1487207 125.88314453 207.79744141 125.50097656 208.46582031 C124.35386571 210.46317879 124.35386571 210.46317879 123.1875 213.4375 C124.31378444 216.54903396 126.08879625 218.5874612 128.40869141 220.90161133 C129.06342438 221.55942093 129.71815735 222.21723053 130.39273071 222.89497375 C131.45516495 223.94662971 131.45516495 223.94662971 132.5390625 225.01953125 C133.63835587 226.11813728 133.63835587 226.11813728 134.75985718 227.23893738 C136.31263829 228.78869847 137.86784803 230.33602945 139.42529297 231.88110352 C141.78793828 234.22562668 144.14261735 236.57791748 146.49609375 238.93164062 C148.00994833 240.44057417 149.52425717 241.94905215 151.0390625 243.45703125 C152.08327866 244.49957817 152.08327866 244.49957817 153.14859009 245.56318665 C157.06786603 249.44534457 161.09411836 253.13373292 165.26815796 256.73930359 C168.31874906 259.43840711 171.17303341 262.3187721 174.03125 265.21875 C174.9513385 266.14451843 174.9513385 266.14451843 175.89001465 267.08898926 C178.47499518 269.69008789 181.05387822 272.29720014 183.63330078 274.90380859 C192.83859286 284.28031694 192.83859286 284.28031694 202.5871582 293.08032227 C209.45626208 298.9056996 216.58492216 305.97270063 217.4609375 315.37109375 C217.82097157 327.79226933 214.43223389 336.8074177 206.3515625 346.25 C199.09479939 353.58535621 189.5655544 358.53885514 179.1875 358.9375 C169.19901159 358.54052161 162.01574729 354.56039961 155.1875 347.4375 C154.14803282 346.23564391 153.11152655 345.0312247 152.0769043 343.82519531 C148.19313025 339.37751156 144.07257989 335.21232216 139.875 331.0625 C139.10244873 330.29373535 138.32989746 329.5249707 137.53393555 328.73291016 C135.08755818 326.29864235 132.6379586 323.86765894 130.1875 321.4375 C126.95536312 318.23213822 123.72667465 315.02335927 120.5 311.8125 C119.40594849 310.730896 119.40594849 310.730896 118.28979492 309.62744141 C114.32429262 305.6807156 110.56866801 301.6305857 106.91647339 297.39355469 C103.99033518 294.08310099 100.85837771 290.98551055 97.72265625 287.875 C97.04448349 287.19824219 96.36631073 286.52148438 95.66758728 285.82421875 C93.53075695 283.69292325 91.39045177 281.56515782 89.25 279.4375 C87.78817877 277.98070221 86.32658813 276.52367299 84.86523438 275.06640625 C81.308646 271.52076027 77.74893984 267.97827261 74.1875 264.4375 C71.03648013 265.67425548 67.94813432 266.98211064 64.88671875 268.42578125 C28.57717157 285.33747611 -10.33578517 289.08186836 -48.56054688 275.3527832 C-83.81600012 261.94997041 -112.76897916 235.06815669 -128.74072266 200.90576172 C-141.70193368 171.05659464 -145.73945582 137.02518982 -136.8125 105.4375 C-136.61414551 104.69854492 -136.41579102 103.95958984 -136.21142578 103.19824219 C-126.39728439 67.42386203 -101.70206017 36.94896178 -69.75878906 18.53515625 C-47.81003853 6.15663362 -25.11488376 -0.01354468 0 0 Z " fill="#2E907B" transform="translate(217.8125,76.5625)"></path><path d="M0 0 C0.76829132 -0.00040283 1.53658264 -0.00080566 2.32815552 -0.0012207 C23.42841711 0.06224943 42.02761651 4.59093087 61.1875 13.4375 C61.86748047 13.75058105 62.54746094 14.06366211 63.24804688 14.38623047 C96.5341773 30.08990189 122.26857981 60.18365408 134.7265625 94.5703125 C135.97479961 98.16467099 137.10064405 101.7909874 138.1875 105.4375 C138.52201172 106.50097656 138.52201172 106.50097656 138.86328125 107.5859375 C148.0585489 139.73427784 142.16555359 177.32928345 126.625 206.5 C126.25407227 207.1487207 125.88314453 207.79744141 125.50097656 208.46582031 C124.35386571 210.46317879 124.35386571 210.46317879 123.1875 213.4375 C124.31378444 216.54903396 126.08879625 218.5874612 128.40869141 220.90161133 C129.06342438 221.55942093 129.71815735 222.21723053 130.39273071 222.89497375 C131.45516495 223.94662971 131.45516495 223.94662971 132.5390625 225.01953125 C133.63835587 226.11813728 133.63835587 226.11813728 134.75985718 227.23893738 C136.31263829 228.78869847 137.86784803 230.33602945 139.42529297 231.88110352 C141.78793828 234.22562668 144.14261735 236.57791748 146.49609375 238.93164062 C148.00994833 240.44057417 149.52425717 241.94905215 151.0390625 243.45703125 C152.08327866 244.49957817 152.08327866 244.49957817 153.14859009 245.56318665 C157.06786603 249.44534457 161.09411836 253.13373292 165.26815796 256.73930359 C168.31874906 259.43840711 171.17303341 262.3187721 174.03125 265.21875 C174.9513385 266.14451843 174.9513385 266.14451843 175.89001465 267.08898926 C178.47499518 269.69008789 181.05387822 272.29720014 183.63330078 274.90380859 C192.83859286 284.28031694 192.83859286 284.28031694 202.5871582 293.08032227 C209.45626208 298.9056996 216.58492216 305.97270063 217.4609375 315.37109375 C217.82097157 327.79226933 214.43223389 336.8074177 206.3515625 346.25 C199.09479939 353.58535621 189.5655544 358.53885514 179.1875 358.9375 C169.19901159 358.54052161 162.01574729 354.56039961 155.1875 347.4375 C154.14803282 346.23564391 153.11152655 345.0312247 152.0769043 343.82519531 C148.19313025 339.37751156 144.07257989 335.21232216 139.875 331.0625 C139.10244873 330.29373535 138.32989746 329.5249707 137.53393555 328.73291016 C135.08755818 326.29864235 132.6379586 323.86765894 130.1875 321.4375 C126.95536312 318.23213822 123.72667465 315.02335927 120.5 311.8125 C119.40594849 310.730896 119.40594849 310.730896 118.28979492 309.62744141 C114.32429262 305.6807156 110.56866801 301.6305857 106.91647339 297.39355469 C103.99033518 294.08310099 100.85837771 290.98551055 97.72265625 287.875 C97.04448349 287.19824219 96.36631073 286.52148438 95.66758728 285.82421875 C93.53075695 283.69292325 91.39045177 281.56515782 89.25 279.4375 C87.78817877 277.98070221 86.32658813 276.52367299 84.86523438 275.06640625 C81.308646 271.52076027 77.74893984 267.97827261 74.1875 264.4375 C71.03648013 265.67425548 67.94813432 266.98211064 64.88671875 268.42578125 C28.57717157 285.33747611 -10.33578517 289.08186836 -48.56054688 275.3527832 C-83.81600012 261.94997041 -112.76897916 235.06815669 -128.74072266 200.90576172 C-141.70193368 171.05659464 -145.73945582 137.02518982 -136.8125 105.4375 C-136.61414551 104.69854492 -136.41579102 103.95958984 -136.21142578 103.19824219 C-126.39728439 67.42386203 -101.70206017 36.94896178 -69.75878906 18.53515625 C-47.81003853 6.15663362 -25.11488376 -0.01354468 0 0 Z M-94.82421875 54.6015625 C-120.28262831 83.21059226 -129.90883275 117.67510486 -127.8125 155.4375 C-127.3395637 161.25322229 -126.30018081 166.80184729 -124.8125 172.4375 C-124.62977539 173.16485352 -124.44705078 173.89220703 -124.25878906 174.64160156 C-119.39690036 193.47443481 -110.44017057 210.66182361 -97.8125 225.4375 C-97.18601562 226.20191406 -96.55953125 226.96632813 -95.9140625 227.75390625 C-76.28393326 251.15906034 -44.93307738 266.77915687 -14.8125 270.4375 C-9.87135643 270.72656953 -4.94874467 270.77164037 0 270.75 C0.99270401 270.74726578 0.99270401 270.74726578 2.00546265 270.74447632 C11.81478746 270.69899488 20.73279792 270.17351647 30.1875 267.4375 C31.54239219 267.09148447 32.89789705 266.74786183 34.25390625 266.40625 C65.92410129 258.10582708 94.6552475 236.82770127 111.328125 208.49951172 C113.86877177 203.92565714 116.08588511 199.22678896 118.1875 194.4375 C118.50734863 193.71127441 118.82719727 192.98504883 119.15673828 192.23681641 C123.66682778 181.80539393 126.65140771 171.69398433 128.1875 160.4375 C128.38279297 159.09945312 128.38279297 159.09945312 128.58203125 157.734375 C130.36465313 142.61774147 129.91847152 127.19613635 126.1875 112.4375 C126.02121094 111.75768066 125.85492188 111.07786133 125.68359375 110.37744141 C121.67439318 94.3517758 115.00333373 79.76453116 105.1875 66.4375 C104.30191406 65.21740234 104.30191406 65.21740234 103.3984375 63.97265625 C82.00655751 35.89012443 52.27913358 20.19803579 18.00390625 13.84765625 C-24.43132457 9.28706338 -65.47771098 22.98564341 -94.82421875 54.6015625 Z " fill="#FAFCFC" transform="translate(217.8125,76.5625)"></path><path d="M0 0 C25.28530827 21.59747348 43.00994552 52.16966427 45.95849609 85.67285156 C46.74720643 102.29360745 46.36546953 119.80143145 40.95849609 135.67285156 C40.62422607 136.68702148 40.62422607 136.68702148 40.28320312 137.72167969 C29.12588591 171.25829061 7.00804714 198.1516865 -24.48486328 214.59814453 C-51.11628013 227.83538323 -85.17954158 232.8436762 -114.04150391 224.67285156 C-114.73002441 224.48480957 -115.41854492 224.29676758 -116.12792969 224.10302734 C-139.80893563 217.49254001 -160.1343778 204.44700977 -177.04150391 186.67285156 C-178.02183594 185.66738281 -178.02183594 185.66738281 -179.02197266 184.64160156 C-203.3846094 158.8113361 -211.83627345 125.60239249 -211.35400391 90.90332031 C-210.87643774 75.69084793 -207.1433294 61.5578322 -201.04150391 47.67285156 C-200.75823242 47.01865234 -200.47496094 46.36445313 -200.18310547 45.69042969 C-189.85055969 22.2852155 -172.30352077 3.61995437 -151.04150391 -10.32714844 C-150.19845703 -10.89046875 -149.35541016 -11.45378906 -148.48681641 -12.03417969 C-102.48042317 -40.90221397 -41.14195619 -33.93468104 0 0 Z M-163.04150391 32.67285156 C-172.19682434 43.70000877 -179.35290712 57.86110581 -183.04150391 71.67285156 C-183.35861328 72.85234375 -183.35861328 72.85234375 -183.68212891 74.05566406 C-190.22807937 100.89406098 -185.38685889 128.76013266 -171.94384766 152.58691406 C-156.79895415 177.15460579 -134.50640631 193.28878372 -106.64746094 200.22167969 C-101.12017176 201.51415879 -95.73097921 202.54458642 -90.04150391 202.67285156 C-88.48496094 202.73085938 -88.48496094 202.73085938 -86.89697266 202.79003906 C-57.22445396 203.38948388 -31.31997112 193.3538592 -9.51416016 173.13769531 C10.00804908 153.67716762 21.02612218 127.38323651 21.20849609 99.73535156 C20.96966447 68.92239774 9.10850305 43.88690537 -12.37744141 22.32910156 C-21.59609894 13.61761936 -32.34170783 7.44897977 -44.04150391 2.67285156 C-44.88841797 2.31449219 -45.73533203 1.95613281 -46.60791016 1.58691406 C-88.48259674 -15.01318524 -133.78860106 0.62304107 -163.04150391 32.67285156 Z " fill="#2F907B" transform="translate(301.04150390625,119.3271484375)"></path><path d="M0 0 C1.05106934 0.00491455 2.10213867 0.0098291 3.18505859 0.01489258 C30.62201989 0.42436812 55.27120716 11.65541076 75 30.5 C94.7628918 51.002223 104.8771745 77.54021807 104.6730957 106.07666016 C103.86726266 135.54410945 91.22935055 161.39173653 70.0625 181.5625 C48.79596972 200.170714 21.4652447 208.79093393 -6.625 207.3125 C-35.92611263 205.08272616 -61.1942071 191.02475398 -80.46484375 169.03515625 C-87.36499699 160.33821808 -92.35527764 150.51686791 -96.625 140.3125 C-96.93179688 139.5803125 -97.23859375 138.848125 -97.5546875 138.09375 C-104.07208812 120.62442875 -104.42039004 100.38804505 -100.625 82.3125 C-100.41875 81.30960937 -100.2125 80.30671875 -100 79.2734375 C-94.19004134 53.72282387 -78.00938957 30.87676676 -56.20703125 16.4453125 C-45.43795839 9.85027546 -33.92686247 5.13313135 -21.625 2.3125 C-20.89087891 2.13662354 -20.15675781 1.96074707 -19.40039062 1.77954102 C-12.89652924 0.32727888 -6.65265754 -0.0370487 0 0 Z M-60.625 36.3125 C-61.85089844 37.37210938 -61.85089844 37.37210938 -63.1015625 38.453125 C-79.83188544 53.97610505 -88.68595791 77.11180328 -89.8984375 99.51171875 C-90.73522921 125.5975381 -81.76108837 147.915827 -64.8203125 167.38671875 C-48.71966738 184.5273577 -25.6412039 193.45777088 -2.5234375 194.53515625 C20.05589416 195.21071738 40.66758036 188.38140875 58.375 174.3125 C59.25414062 173.62671875 60.13328125 172.9409375 61.0390625 172.234375 C75.54134965 160.1117201 84.77060032 142.4061711 89.375 124.3125 C89.71337891 123.04792969 89.71337891 123.04792969 90.05859375 121.7578125 C95.46138324 97.83649629 89.14624014 73.98712586 76.65625 53.4921875 C62.66317714 32.43657315 42.252644 19.6231738 17.6640625 14.2265625 C-10.62293775 8.7838135 -39.22860148 17.49325873 -60.625 36.3125 Z " fill="#FAFCFC" transform="translate(217.625,114.6875)"></path><path d="M0 0 C2.79284202 1.2835044 4.92283763 2.64411781 7.16015625 4.74609375 C8.08356812 5.6114978 8.08356812 5.6114978 9.02563477 6.49438477 C9.69780029 7.13561279 10.36996582 7.77684082 11.0625 8.4375 C11.77913818 9.11546631 12.49577637 9.79343262 13.23413086 10.49194336 C21.83565036 18.69475818 30.19854769 27.14411069 38.55688477 35.59350586 C45.04144267 42.1870776 45.04144267 42.1870776 51.890625 48.39453125 C58.53492381 54.05171689 64.54204075 60.4391452 70.6875 66.625 C72.00562426 67.94815093 73.3239819 69.27106941 74.64257812 70.59375 C77.59315489 73.5542153 80.54263046 76.51575646 83.48617554 79.48321533 C84.92882164 80.92868245 86.38749262 82.35810315 87.84692383 83.78662109 C91.41190579 87.45145004 91.40420242 90.25141333 91.33984375 95.20703125 C90.455953 102.47119087 86.26375694 108.66480737 80.94140625 113.52734375 C75.45387674 117.68991643 69.49592216 119.9534742 62.54856873 119.54811096 C59.5779802 118.90923781 58.38344918 117.98898083 56.17602539 115.93334961 C55.48703156 115.29734833 54.79803772 114.66134705 54.08816528 114.006073 C53.39907074 113.34406891 52.7099762 112.68206482 52 112 C51.36351532 111.38980011 50.72703064 110.77960022 50.07125854 110.15090942 C48.11241387 108.24341185 46.17645956 106.31520524 44.24609375 104.37890625 C43.54154556 103.67531479 42.83699738 102.97172333 42.11109924 102.24681091 C40.63346633 100.76985352 39.15707543 99.29165258 37.68188477 97.81225586 C35.44333519 95.56834915 33.19949527 93.32983296 30.95507812 91.09179688 C29.51009596 89.64615382 28.06542408 88.20020055 26.62109375 86.75390625 C25.96048447 86.0953212 25.29987518 85.43673615 24.61924744 84.75819397 C21.48295673 81.60631828 18.45220151 78.41253599 15.54980469 75.04321289 C11.76656468 70.66526022 7.70347357 66.61233493 3.58203125 62.5546875 C1.98228941 60.96758143 0.38268405 59.38033778 -1.21679688 57.79296875 C-3.70991936 55.32471102 -6.20462881 52.85809905 -8.7019043 50.39404297 C-11.13251716 47.99367879 -13.55683338 45.58709376 -15.98046875 43.1796875 C-16.72532028 42.44829559 -17.47017181 41.71690369 -18.2375946 40.96334839 C-22.02278329 37.19648628 -25.2419903 33.5797607 -28 29 C-27.59273682 28.62302979 -27.18547363 28.24605957 -26.76586914 27.85766602 C-11.98577345 15.1270267 -11.98577345 15.1270267 0 0 Z " fill="#2E907A" transform="translate(331,303)"></path><path d="M0 0 C4.29 0 8.58 0 13 0 C13 10.56 13 21.12 13 32 C2.44 32 -8.12 32 -19 32 C-19 27.71 -19 23.42 -19 19 C-12.73 19 -6.46 19 0 19 C0 12.73 0 6.46 0 0 Z " fill="#FDFEFE" transform="translate(256,237)"></path><path d="M0 0 C10.56 0 21.12 0 32 0 C32 4.29 32 8.58 32 13 C25.73 13 19.46 13 13 13 C13 19.27 13 25.54 13 32 C8.71 32 4.42 32 0 32 C0 21.44 0 10.88 0 0 Z " fill="#F8FBFB" transform="translate(166,166)"></path><path d="M0 0 C3.96 0 7.92 0 12 0 C12 6.27 12 12.54 12 19 C18.6 19 25.2 19 32 19 C32 23.29 32 27.58 32 32 C21.44 32 10.88 32 0 32 C0 21.44 0 10.88 0 0 Z " fill="#FDFEFE" transform="translate(166,237)"></path><path d="M0 0 C10.56 0 21.12 0 32 0 C32 10.56 32 21.12 32 32 C27.71 32 23.42 32 19 32 C19 25.4 19 18.8 19 12 C12.73 12 6.46 12 0 12 C0 8.04 0 4.08 0 0 Z " fill="#FDFEFE" transform="translate(237,166)"></path></svg>