<svg version="1.1" xmlns="http://www.w3.org/2000/svg" width="16px" height="16px" fill="currentColor" viewBox="0 0 512 512"><path d="M0 0 C168.96 0 337.92 0 512 0 C512 168.96 512 337.92 512 512 C343.04 512 174.08 512 0 512 C0 343.04 0 174.08 0 0 Z " fill="#2D8F7A" transform="translate(0,0)"></path><path d="M0 0 C2.82397461 1.34179687 2.82397461 1.34179687 5.90234375 3.21875 C6.45728012 3.55282867 7.01221649 3.88690735 7.58396912 4.23110962 C8.76523251 4.94391697 9.94354278 5.66163772 11.11907959 6.3838501 C12.9440516 7.50402138 14.7773405 8.60917652 16.61376953 9.71044922 C21.66791353 12.74531392 26.70109419 15.81284407 31.71484375 18.9140625 C32.93472939 19.65131713 34.15476109 20.38833021 35.375 21.125 C36.37273437 21.74632813 37.37046875 22.36765625 38.3984375 23.0078125 C40.9381884 24.28792408 40.9381884 24.28792408 43.31884766 23.24804688 C46.1184603 21.94485803 48.80504691 20.53148216 51.5 19.0234375 C52.54623535 18.43828369 53.5924707 17.85312988 54.67041016 17.25024414 C55.7691748 16.63141357 56.86793945 16.01258301 58 15.375 C59.12325684 14.74779053 60.24651367 14.12058105 61.40380859 13.47436523 C68.25132375 9.62890153 74.90803322 5.65585648 81.3515625 1.16015625 C84.8434636 -0.36948184 87.44135336 -0.07773369 91 1 C94.15398537 2.63770112 97.02041224 4.63310257 99.9296875 6.66796875 C100.7857962 7.2512645 101.64190491 7.83456024 102.5239563 8.43553162 C105.31580223 10.34122619 108.09524946 12.26421603 110.875 14.1875 C112.79854099 15.50511414 114.72302844 16.82134761 116.6484375 18.13623047 C119.57688099 20.13638072 122.50464399 22.1374502 125.42913818 24.14337158 C131.611369 28.38223445 137.82212443 32.57384862 144.0703125 36.71484375 C145.22404861 37.47969337 145.22404861 37.47969337 146.40109253 38.25999451 C149.30692522 40.18446369 152.21408952 42.10688266 155.1239624 44.02523804 C157.08460711 45.3185708 159.04250154 46.61597484 161 47.9140625 C162.6396875 48.9961499 162.6396875 48.9961499 164.3125 50.10009766 C168.38493517 52.97906663 168.38493517 52.97906663 170 55 C170.28433228 57.19166565 170.28433228 57.19166565 170.16259766 59.77172852 C170.12752106 60.7402626 170.09244446 61.70879669 170.05630493 62.7066803 C170.00936493 63.75351486 169.96242493 64.80034943 169.9140625 65.87890625 C169.86809698 68.10212882 169.82657349 70.32544684 169.7890625 72.54882812 C169.7194589 76.0527814 169.62573072 79.54751072 169.45507812 83.0480957 C168.36177955 95.61758825 168.36177955 95.61758825 172.53683472 106.9675293 C176.50308773 110.31514351 181.0054059 112.28224369 185.81750488 114.12973022 C188.90137214 115.35942208 191.69252826 116.99960912 194.55078125 118.6796875 C197.4642159 120.29891103 200.38050969 121.91231426 203.30273438 123.515625 C204.72489258 124.30839844 204.72489258 124.30839844 206.17578125 125.1171875 C207.01020752 125.57722168 207.84463379 126.03725586 208.7043457 126.51123047 C211.33903453 128.21986946 213.06144713 129.49967098 215 132 C215.39455787 134.9478527 215.54732315 137.52177283 215.51757812 140.46875 C215.52809204 141.74745972 215.52809204 141.74745972 215.53881836 143.05200195 C215.55641568 145.8683332 215.5447696 148.68365864 215.53125 151.5 C215.53394442 153.45768425 215.53782642 155.4153672 215.54284668 157.37304688 C215.54874408 161.47539007 215.54017093 165.57738482 215.52148438 169.6796875 C215.49869475 174.93920628 215.51181653 180.19790864 215.53577423 185.45739746 C215.55022563 189.4997371 215.54562923 193.54188305 215.53526306 197.58422852 C215.53259396 199.52351986 215.53587197 201.46282877 215.54518127 203.40209961 C215.55533602 206.1122905 215.53986128 208.82115775 215.51757812 211.53125 C215.52972351 212.73454956 215.52972351 212.73454956 215.54211426 213.9621582 C215.48866968 217.46926796 215.33071081 219.56060332 213.19110107 222.40338135 C211.29359256 223.78606402 209.5268622 224.97930668 207.42480469 226.01464844 C206.40419952 226.52472443 206.40419952 226.52472443 205.36297607 227.04510498 C204.63991272 227.39631409 203.91684937 227.74752319 203.171875 228.109375 C202.42286926 228.48104797 201.67386353 228.85272095 200.90216064 229.23565674 C198.52177355 230.41470377 196.13605336 231.58246945 193.75 232.75 C192.12984289 233.55004161 190.51004691 234.350815 188.890625 235.15234375 C184.93121536 237.11006162 180.9669865 239.05768435 177 241 C176.99786247 242.05782684 176.99786247 242.05782684 176.99568176 243.13702393 C176.97784151 249.78778989 176.93619885 256.43793293 176.86790943 263.08838272 C176.83363861 266.50741573 176.80852954 269.92600195 176.80444336 273.34521484 C176.79934081 277.27742401 176.75423677 281.20868667 176.70703125 285.140625 C176.7109639 286.36678528 176.71489655 287.59294556 176.71894836 288.85626221 C176.69930527 289.99714294 176.67966217 291.13802368 176.65942383 292.31347656 C176.64943108 293.81905121 176.64943108 293.81905121 176.63923645 295.3550415 C175.76736363 298.96257582 174.02778499 299.9889378 171 302 C169.12573242 303.06152344 169.12573242 303.06152344 167.35546875 303.859375 C166.35241699 304.31969116 166.35241699 304.31969116 165.32910156 304.78930664 C164.62237305 305.10633545 163.91564453 305.42336426 163.1875 305.75 C161.66464346 306.45025679 160.14252482 307.15212023 158.62109375 307.85546875 C157.8513623 308.21044434 157.08163086 308.56541992 156.28857422 308.93115234 C152.74724854 310.58508064 149.24538482 312.31395443 145.75 314.0625 C144.76749268 314.55109497 144.76749268 314.55109497 143.76513672 315.04956055 C140.55974951 316.65785378 137.40094781 318.31755827 134.28515625 320.09375 C133.13917969 320.7434375 131.99320312 321.393125 130.8125 322.0625 C129.80832031 322.65160156 128.80414063 323.24070312 127.76953125 323.84765625 C124.57121414 325.17840878 123.19713834 325.30294337 120 324 C118.63671875 322.22265625 118.63671875 322.22265625 117.6875 320.0625 C117.36136719 319.35222656 117.03523437 318.64195312 116.69921875 317.91015625 C116 316 116 316 116 314 C122.51169004 310.71886876 129.02646507 307.44392762 135.54345703 304.17333984 C137.76162677 303.0592159 139.97907748 301.94365924 142.19580078 300.82666016 C145.37606362 299.22444459 148.55884857 297.62734326 151.7421875 296.03125 C153.23599442 295.27660461 153.23599442 295.27660461 154.75997925 294.50671387 C155.68078278 294.04623657 156.6015863 293.58575928 157.55029297 293.11132812 C158.76940872 292.49843933 158.76940872 292.49843933 160.01315308 291.87316895 C162 291 162 291 164 291 C163.99333817 290.29256149 163.98667633 289.58512299 163.97981262 288.85624695 C163.91971303 282.19081104 163.87403161 275.5254507 163.84456348 268.85980511 C163.82890426 265.43286777 163.80766196 262.00615423 163.77368164 258.5793457 C163.73486486 254.64016392 163.72029284 250.70107291 163.70703125 246.76171875 C163.69154739 245.53039719 163.67606354 244.29907562 163.66011047 243.03044128 C163.65988388 241.88948502 163.65965729 240.74852875 163.65942383 239.57299805 C163.64943108 238.06409248 163.64943108 238.06409248 163.63923645 236.52470398 C164.06050576 233.57656717 164.66001159 232.77014667 167 231 C168.96201119 229.89648945 170.96119357 228.85814365 172.98046875 227.86328125 C174.14384766 227.28642578 175.30722656 226.70957031 176.50585938 226.11523438 C177.73300866 225.5141917 178.96022303 224.91328191 180.1875 224.3125 C181.42670635 223.70042434 182.66564188 223.08780005 183.90429688 222.47460938 C186.93357536 220.97765075 189.96551257 219.48636358 193 218 C187.8378218 213.72572576 182.29249151 210.46598761 176.5 207.125 C174.95119141 206.196875 174.95119141 206.196875 173.37109375 205.25 C171.87255859 204.38761719 171.87255859 204.38761719 170.34375 203.5078125 C169.43818359 202.97816895 168.53261719 202.44852539 167.59960938 201.90283203 C164.99915104 200.72023057 164.99915104 200.72023057 162.30273438 201.77294922 C161.54283203 202.17787598 160.78292969 202.58280273 160 203 C155.14526642 205.49672013 150.34140452 205.88759244 145 205 C139.36638118 202.61317084 134.95657997 199.06318487 132.59765625 193.3359375 C131.16089645 187.72036652 130.60511028 181.94264407 133.140625 176.59375 C136.06556131 172.46805036 139.35228838 169.06564961 144 167 C150.35876624 166.13779441 156.6143287 166.20312626 162.2421875 169.546875 C166.4023382 172.98593291 169.59679806 177.16042887 170.3671875 182.5859375 C170.375 185.0625 170.375 185.0625 170 189 C171.65 189.66 173.3 190.32 175 191 C183.91 195.95 192.82 200.9 202 206 C202 183.56 202 161.12 202 138 C200.35 137.34 198.7 136.68 197 136 C195.1516517 135.03607277 193.31914876 134.04139866 191.5 133.0234375 C190.45336182 132.43860596 189.40672363 131.85377441 188.32836914 131.2512207 C187.23000732 130.63206787 186.13164551 130.01291504 185 129.375 C183.88036865 128.74489014 182.7607373 128.11478027 181.60717773 127.46557617 C159.73956816 115.10935224 159.73956816 115.10935224 157 111 C156.77294922 108.73168945 156.77294922 108.73168945 156.8046875 106.11328125 C156.81113281 105.17548828 156.81757813 104.23769531 156.82421875 103.27148438 C156.84097656 102.29501953 156.85773438 101.31855469 156.875 100.3125 C156.88402344 99.32443359 156.89304687 98.33636719 156.90234375 97.31835938 C156.92591434 94.87880294 156.96178531 92.43937099 157 90 C152.38 90 147.76 90 143 90 C142.34 91.98 141.68 93.96 141 96 C136.06039613 100.93960387 131.51841013 102.98818682 124.625 103.4375 C119.42080666 103.3146354 115.94815344 101.26774604 112 98 C106.95496368 92.68943545 105.45302591 87.78541185 105.625 80.5625 C106.37239652 75.45529047 108.95746387 71.79671669 112.78515625 68.4296875 C117.29076072 65.08157377 121.03179737 63.57278998 126.67578125 63.65625 C131.81087258 64.41572569 136.92411221 66.82297922 140.5234375 70.59765625 C141.99894219 72.72719671 143 74.36953503 143 77 C147.62 77 152.24 77 157 77 C157.99901175 71.45231587 158.39319825 66.24360839 156 61 C150.21722058 54.49346006 141.96226974 50.33533946 134.5625 45.9375 C132.52872791 44.67763401 130.49808765 43.4126975 128.47070312 42.14257812 C124.71848591 39.79697638 120.94849596 37.48672943 117.15844727 35.20288086 C112.72270815 32.49935391 108.46209538 29.59778647 104.23182678 26.58435059 C100.82927027 24.16891116 97.35369836 21.86625024 93.875 19.5625 C93.2046875 19.11712891 92.534375 18.67175781 91.84375 18.21289062 C90.22989503 17.14082982 88.61505915 16.07024586 87 15 C77.81313541 19.97430055 68.70593125 25.08440395 59.61328125 30.22851562 C58.01033203 31.13053711 58.01033203 31.13053711 56.375 32.05078125 C54.93253906 32.86542847 54.93253906 32.86542847 53.4609375 33.6965332 C51 35 51 35 48 36 C48 61.08 48 86.16 48 112 C49.65 112.66 51.3 113.32 53 114 C55.08801682 115.09538407 57.15974603 116.22210152 59.21875 117.37109375 C59.79911011 117.69408951 60.37947021 118.01708527 60.97741699 118.34986877 C62.19844743 119.03011523 63.41869109 119.71177568 64.63818359 120.39477539 C66.49282085 121.43347926 68.34968572 122.46810122 70.20703125 123.50195312 C79.44373218 128.65292147 79.44373218 128.65292147 82.76757812 130.72680664 C84.85364815 132.18788623 84.85364815 132.18788623 86.9375 131.875 C89.15415846 130.9853302 89.15415846 130.9853302 91.6875 129.4375 C96.61561413 127.29888444 100.97060569 127.12263444 106.14453125 128.62109375 C111.68567449 131.00495079 114.95656698 134.87144677 118 140 C119.96251794 145.88755382 119.78762259 151.15604594 117 156.75 C114.14050197 161.2854816 111.14748004 164.28965519 106 166 C100.09424004 166.80861261 94.95627974 166.90827274 89.5 164.375 C83.86118985 159.01813036 80.17066891 154.6080605 79.875 146.625 C79.91625 145.75875 79.9575 144.8925 80 144 C78.9483667 143.60494263 78.9483667 143.60494263 77.87548828 143.2019043 C72.94287722 141.14015831 68.35554463 138.42712233 63.69140625 135.82495117 C61.90361473 134.82844964 60.112207 133.83870944 58.3203125 132.84960938 C39.30111834 122.30111834 39.30111834 122.30111834 36 119 C35.90492179 116.41360962 35.87443624 113.8540144 35.88647461 111.26733398 C35.88632858 110.4576416 35.88618256 109.64794922 35.8860321 108.8137207 C35.88673146 106.12448492 35.8945249 103.43531751 35.90234375 100.74609375 C35.90420785 98.88664284 35.90563179 97.02719144 35.90663147 95.16773987 C35.91045729 90.26370904 35.92028812 85.35970764 35.93133545 80.45568848 C35.94154819 75.45548908 35.94612879 70.45528494 35.95117188 65.45507812 C35.96191033 55.63670579 35.97898752 45.81835534 36 36 C35.2380835 35.70399399 34.47616699 35.40798798 33.69116211 35.10301208 C30.4772156 33.78572918 27.57426519 32.14083317 24.5625 30.41015625 C23.95994385 30.06496445 23.3573877 29.71977264 22.73657227 29.36412048 C20.82262402 28.26660899 18.9113237 27.16457445 17 26.0625 C15.71631037 25.32588506 14.43245769 24.5895542 13.1484375 23.85351562 C3.2002116 18.14360954 3.2002116 18.14360954 0.41015625 16.14233398 C-1.96239716 14.70303527 -1.96239716 14.70303527 -4.52661133 15.64990234 C-5.34282959 16.09543457 -6.15904785 16.5409668 -7 17 C-7.75240967 17.40814941 -8.50481934 17.81629883 -9.2800293 18.23681641 C-10.41565308 18.91236572 -10.41565308 18.91236572 -11.57421875 19.6015625 C-12.82235352 20.33632812 -12.82235352 20.33632812 -14.09570312 21.0859375 C-15.83566134 22.11916062 -17.57523973 23.15302363 -19.31445312 24.1875 C-20.14267578 24.67476562 -20.97089844 25.16203125 -21.82421875 25.6640625 C-22.57791748 26.11217285 -23.33161621 26.5602832 -24.1081543 27.02197266 C-26 28 -26 28 -28 28 C-28 48.46 -28 68.92 -28 90 C-32.29 90 -36.58 90 -41 90 C-41 72.51 -41 55.02 -41 37 C-55.67311731 43.80637232 -55.67311731 43.80637232 -73.16390991 57.40284729 C-73.23663116 58.23742966 -73.30935242 59.07201202 -73.38427734 59.93188477 C-73.52680435 61.36689835 -73.52680435 61.36689835 -73.67221069 62.8309021 C-73.72624054 63.85736847 -73.78027039 64.88383484 -73.8359375 65.94140625 C-73.90664459 67.0139566 -73.97735168 68.08650696 -74.05020142 69.19155884 C-74.23101143 72.65028957 -74.31838705 76.0996046 -74.375 79.5625 C-74.41753906 81.30667709 -74.41753906 81.30667709 -74.4609375 83.08609009 C-74.82298494 97.56202607 -74.82298494 97.56202607 -69.02050781 110.35644531 C-61.63122927 117.8393883 -51.73762463 122.36997238 -42 126 C-38.3469729 124.31799085 -35.08846439 122.1220407 -31.7734375 119.8671875 C-30.56518643 119.05326329 -29.35685059 118.2394649 -28.1484375 117.42578125 C-26.25336294 116.14579206 -24.35930229 114.86435143 -22.46679688 113.58056641 C-20.63417984 112.33876463 -18.79783847 111.1026401 -16.9609375 109.8671875 C-16.39321625 109.47973358 -15.825495 109.09227966 -15.24057007 108.69308472 C-11.22665309 106 -11.22665309 106 -9 106 C-9 94.12 -9 82.24 -9 70 C-4.71 70 -0.42 70 4 70 C4.12377604 75.74739758 4.21442248 81.49401627 4.2746582 87.24243164 C4.29977281 89.19699623 4.33387131 91.15146717 4.37719727 93.10571289 C4.43798434 95.91836668 4.46623983 98.72977702 4.48828125 101.54296875 C4.51408768 102.41398727 4.5398941 103.2850058 4.56648254 104.18241882 C4.56840114 108.35066817 4.44904028 110.38039817 1.94897461 113.83007812 C-1.45455483 116.33447167 -4.91754567 118.25883072 -8.671875 120.17578125 C-25.12311376 128.24141165 -25.12311376 128.24141165 -35.63916016 142.16064453 C-37.5713722 151.28546019 -36.52056635 160.88691666 -35 170 C-34.29335205 170.26280762 -33.5867041 170.52561523 -32.85864258 170.79638672 C-29.82541541 172.07350773 -27.09804095 173.58938767 -24.26171875 175.2578125 C-23.19501953 175.88300781 -22.12832031 176.50820313 -21.02929688 177.15234375 C-19.92650391 177.80332031 -18.82371094 178.45429688 -17.6875 179.125 C-16.56537109 179.78371094 -15.44324219 180.44242188 -14.28710938 181.12109375 C-11.52291344 182.7443237 -8.76063368 184.37072154 -6 186 C-7.54342971 190.08105062 -9.49934499 193.41572782 -12 197 C-19.27542495 195.19025323 -25.22692356 190.52776535 -31.38867188 186.43554688 C-32.29294922 185.85482422 -33.19722656 185.27410156 -34.12890625 184.67578125 C-34.94431885 184.13864502 -35.75973145 183.60150879 -36.59985352 183.0480957 C-39.6193903 181.72952471 -40.90015908 181.96983956 -44 183 C-46.49476394 184.16788935 -46.49476394 184.16788935 -48.9765625 185.65234375 C-49.894375 186.18150391 -50.8121875 186.71066406 -51.7578125 187.25585938 C-52.70398438 187.81080078 -53.65015625 188.36574219 -54.625 188.9375 C-55.57890625 189.48857422 -56.5328125 190.03964844 -57.515625 190.60742188 C-61.06894675 192.66684708 -64.58199229 194.72132819 -68 197 C-68.99 197 -69.98 197 -71 197 C-71.83848804 195.54462432 -72.67063934 194.08559627 -73.5 192.625 C-73.9640625 191.81289063 -74.428125 191.00078125 -74.90625 190.1640625 C-76 188 -76 188 -76 186 C-74.07521226 185.08387965 -72.10819526 184.25636087 -70.12890625 183.46484375 C-57.10388188 178.19151547 -57.10388188 178.19151547 -48.18286133 168.0881958 C-45.50283643 158.14972142 -46.77733276 147.07924668 -48 137 C-48.70576172 136.75145264 -49.41152344 136.50290527 -50.13867188 136.24682617 C-53.35473433 134.84542421 -55.92882475 133.09230939 -58.78125 131.05078125 C-59.88109681 130.27740625 -60.98137018 129.50463759 -62.08203125 128.73242188 C-63.79826401 127.52071723 -65.51084206 126.30470081 -67.21630859 125.07788086 C-68.8745994 123.88852709 -70.54523612 122.7185776 -72.21875 121.55078125 C-73.7027832 120.49370972 -73.7027832 120.49370972 -75.21679688 119.4152832 C-77.84801404 117.79689077 -77.84801404 117.79689077 -80.47705078 118.07568359 C-83.55738863 119.20420683 -86.28910236 120.62656514 -89.1484375 122.23828125 C-89.72405426 122.56032028 -90.29967102 122.88235931 -90.89273071 123.2141571 C-92.72381113 124.24058452 -94.54939763 125.27636687 -96.375 126.3125 C-98.19086309 127.33319857 -100.00773448 128.35206706 -101.82527161 129.36978149 C-103.54940141 130.34266485 -105.26252977 131.33496327 -106.9753418 132.32763672 C-110 134 -110 134 -112.37817383 134.94189453 C-114.57749436 135.71386005 -114.57749436 135.71386005 -117 138 C-117.99072687 142.08694399 -117.97880325 146.06136492 -117.9375 150.25 C-117.95361328 151.37664062 -117.96972656 152.50328125 -117.98632812 153.6640625 C-118.02166554 156.44393943 -118.02505827 159.22011824 -118 162 C-117.23333008 161.60619141 -116.46666016 161.21238281 -115.67675781 160.80664062 C-112.82485554 159.34656342 -109.96939176 157.89377522 -107.11132812 156.44580078 C-105.87613116 155.81815741 -104.64238672 155.18764678 -103.41015625 154.55419922 C-101.63668025 153.64314744 -99.85746098 152.74330319 -98.078125 151.84375 C-97.00981445 151.29912109 -95.94150391 150.75449219 -94.84082031 150.19335938 C-92 149 -92 149 -88 149 C-87.29773859 150.24176695 -86.61370891 151.49385599 -85.9375 152.75 C-85.55464844 153.44609375 -85.17179687 154.1421875 -84.77734375 154.859375 C-84 157 -84 157 -84.0078125 158.890625 C-85.61367321 162.30465958 -88.83423654 163.34411867 -92.09765625 164.890625 C-92.72571167 165.20112793 -93.35376709 165.51163086 -94.00085449 165.83154297 C-96.34722081 166.98642495 -98.70560801 168.11675358 -101.0625 169.25 C-106.321875 171.8075 -111.58125 174.365 -117 177 C-117 189.21 -117 201.42 -117 214 C-113.37064453 215.78857422 -113.37064453 215.78857422 -109.66796875 217.61328125 C-107.32406483 218.77353174 -104.98120108 219.93585735 -102.63842773 221.09838867 C-101.01092365 221.90460222 -99.38234854 222.70865745 -97.75268555 223.51049805 C-95.40908784 224.66408241 -93.06946401 225.82539902 -90.73046875 226.98828125 C-90.00224411 227.34465164 -89.27401947 227.70102203 -88.52372742 228.06819153 C-82.02462619 231.31666007 -82.02462619 231.31666007 -80 234 C-79.63923645 236.52470398 -79.63923645 236.52470398 -79.65942383 239.57299805 C-79.65976372 241.28443245 -79.65976372 241.28443245 -79.66011047 243.03044128 C-79.67559433 244.26176285 -79.69107819 245.49308441 -79.70703125 246.76171875 C-79.71127609 248.02264847 -79.71552094 249.28357819 -79.71989441 250.5827179 C-79.73385373 253.93174943 -79.76079896 257.28016758 -79.79400635 260.62902832 C-79.82471895 264.04755353 -79.83840224 267.46614215 -79.85351562 270.88476562 C-79.88662777 277.59001349 -79.93685982 284.29497133 -80 291 C-79.21157715 291.23122559 -78.4231543 291.46245117 -77.61083984 291.70068359 C-72.9529879 293.37675446 -68.63950687 295.55693337 -64.2265625 297.7890625 C-62.8409462 298.48399307 -62.8409462 298.48399307 -61.42733765 299.19296265 C-58.4913182 300.66654837 -55.55813723 302.14568698 -52.625 303.625 C-50.62909128 304.62797246 -48.6329995 305.63058072 -46.63671875 306.6328125 C-41.75568416 309.08432696 -36.87696511 311.54040069 -32 314 C-33.28631545 318.03791199 -34.69233055 321.43360176 -37 325 C-40.67314166 324.40120913 -43.61873904 323.37803943 -46.94213867 321.71508789 C-48.37338326 321.00413719 -48.37338326 321.00413719 -49.83354187 320.27882385 C-51.36033318 319.50852089 -51.36033318 319.50852089 -52.91796875 318.72265625 C-53.97156082 318.19610947 -55.02515289 317.66956268 -56.110672 317.12705994 C-58.33360637 316.01442388 -60.55506659 314.89883841 -62.77514648 313.78051758 C-66.18162196 312.06545942 -69.59331874 310.36115552 -73.00585938 308.65820312 C-75.16438051 307.57615499 -77.32259438 306.49349363 -79.48046875 305.41015625 C-80.50440231 304.89864517 -81.52833588 304.38713409 -82.58329773 303.86012268 C-83.5280043 303.38300339 -84.47271088 302.90588409 -85.44604492 302.41430664 C-86.27923752 301.99540665 -87.11243011 301.57650665 -87.97087097 301.14491272 C-90 300 -90 300 -92 298 C-92.2784729 295.59555054 -92.2784729 295.59555054 -92.31884766 292.54052734 C-92.33871735 291.39949554 -92.35858704 290.25846375 -92.37905884 289.08285522 C-92.39061005 287.84637238 -92.40216125 286.60988953 -92.4140625 285.3359375 C-92.43342865 284.07359283 -92.4527948 282.81124817 -92.4727478 281.51065063 C-92.52249045 278.15365788 -92.56372572 274.79677685 -92.60089111 271.43963623 C-92.64088847 268.01434336 -92.69200019 264.58921854 -92.7421875 261.1640625 C-92.8384006 254.44281619 -92.92340582 247.72149695 -93 241 C-94.08007324 240.47043701 -95.16014648 239.94087402 -96.27294922 239.39526367 C-100.27633204 237.42975268 -104.27442329 235.45368177 -108.27099609 233.47436523 C-110.00198991 232.61893036 -111.73440838 231.76637209 -113.46826172 230.91674805 C-115.95920226 229.69551704 -118.44484818 228.46405697 -120.9296875 227.23046875 C-121.70682098 226.85222458 -122.48395447 226.47398041 -123.28463745 226.08427429 C-124.00523346 225.72412735 -124.72582947 225.36398041 -125.46826172 224.99291992 C-126.42090408 224.52326057 -126.42090408 224.52326057 -127.39279175 224.04411316 C-129 223 -129 223 -131 220 C-131.21530175 217.18846883 -131.31444453 214.47401886 -131.32226562 211.66064453 C-131.33219543 210.80992371 -131.34212524 209.95920288 -131.35235596 209.08270264 C-131.38158622 206.26603979 -131.39520001 203.44960215 -131.40625 200.6328125 C-131.41775333 198.67609653 -131.42926879 196.71938063 -131.4407959 194.76266479 C-131.46181169 190.65866037 -131.47349993 186.55473426 -131.48046875 182.45068359 C-131.49144258 177.19218464 -131.5395057 171.93472037 -131.59641266 166.6765461 C-131.63366213 162.63419572 -131.6440763 158.59209477 -131.6471405 154.54958725 C-131.65319478 152.6110658 -131.66925647 150.67254881 -131.69551086 148.73419571 C-131.72963441 146.02137786 -131.72587612 143.31109003 -131.71289062 140.59814453 C-131.74053497 139.39788132 -131.74053497 139.39788132 -131.76873779 138.17337036 C-131.72441747 135.2169723 -131.6298435 132.77405561 -129.71443367 130.420084 C-126.56615947 127.74115418 -122.98106982 125.67919816 -119.3671875 123.6953125 C-118.31273438 123.11136719 -117.25828125 122.52742188 -116.171875 121.92578125 C-115.08390625 121.33152344 -113.9959375 120.73726563 -112.875 120.125 C-110.72595598 118.94120457 -108.57751679 117.75631047 -106.4296875 116.5703125 C-105.37362305 115.98926758 -104.31755859 115.40822266 -103.22949219 114.80957031 C-98.89402533 112.380293 -94.62746843 109.84001866 -90.36767578 107.28076172 C-88 106 -88 106 -86 106 C-86.00888245 105.2947821 -86.01776489 104.58956421 -86.0269165 103.86297607 C-86.10710923 97.21260292 -86.16798781 90.56236495 -86.20724869 83.91161728 C-86.22811201 80.4924632 -86.25640505 77.07370906 -86.30175781 73.65478516 C-86.35358618 69.72303069 -86.37295578 65.79143743 -86.390625 61.859375 C-86.41127014 60.63321472 -86.43191528 59.40705444 -86.45318604 58.14373779 C-86.45348816 57.00285706 -86.45379028 55.86197632 -86.45410156 54.68652344 C-86.46298401 53.68280701 -86.47186646 52.67909058 -86.48101807 51.6449585 C-85.86762669 48.27212316 -84.60969396 47.14738012 -82 45 C-80.43638848 43.95792772 -78.83359735 42.97306226 -77.203125 42.0390625 C-76.25735596 41.4927417 -75.31158691 40.9464209 -74.3371582 40.38354492 C-73.318396 39.8032251 -72.29963379 39.22290527 -71.25 38.625 C-69.06111185 37.36343057 -66.87231212 36.10170771 -64.68359375 34.83984375 C-63.56710449 34.19901855 -62.45061523 33.55819336 -61.30029297 32.89794922 C-57.25905488 30.57389352 -53.23074911 28.22826179 -49.20532227 25.87695312 C-47.27086577 24.74720049 -45.33514614 23.61960803 -43.39819336 22.49414062 C-38.32068376 19.54085719 -33.25906603 16.56385586 -28.2224884 13.54139709 C-25.57236608 11.95223589 -22.91747541 10.37113364 -20.26229858 8.79043579 C-18.97168174 8.01900685 -17.68340638 7.24364576 -16.39761353 6.46420288 C-14.60025801 5.37502559 -12.79531441 4.29958401 -10.98828125 3.2265625 C-9.95227783 2.60346191 -8.91627441 1.98036133 -7.84887695 1.33837891 C-4.79279062 -0.09734526 -3.31305934 -0.53499197 0 0 Z " fill="#FBFCFC" transform="translate(214,83)"></path><path d="M0 0 C6.43843679 0.06886029 10.6461273 5.28222359 15.14941406 9.34130859 C17.43802523 11.34438827 19.86330673 13.13622351 22.3125 14.9375 C29.79726968 20.48249953 37.13016231 26.21866497 44.46875 31.95507812 C46.58049441 33.60394898 48.69599472 35.24787236 50.8125 36.890625 C52.06262482 37.86442312 53.31263183 38.83837249 54.5625 39.8125 C55.12694824 40.24933105 55.69139648 40.68616211 56.27294922 41.13623047 C57.7606863 42.29953607 59.22511707 43.49247794 60.6875 44.6875 C61.3949939 45.17114014 62.10248779 45.65478027 62.8314209 46.15307617 C65.84273847 50.26494565 65.24353681 54.57792425 65.20507812 59.54296875 C65.2120874 60.64903473 65.21909668 61.75510071 65.22631836 62.89468384 C65.24394017 66.55504373 65.23226001 70.21463208 65.21875 73.875 C65.22144369 76.41561024 65.22532508 78.95621947 65.23034668 81.49682617 C65.23624745 86.82318888 65.22804079 92.14927442 65.20898438 97.47558594 C65.18721566 103.63102219 65.19426719 109.78592848 65.21629 115.94135189 C65.23663745 121.86594489 65.23447329 127.79037338 65.22276306 133.71499634 C65.2200914 136.23483352 65.2233809 138.75468418 65.23268127 141.27450562 C65.24282014 144.79404726 65.22738141 148.31256595 65.20507812 151.83203125 C65.21317505 152.87735016 65.22127197 153.92266907 65.22961426 154.99966431 C65.21833496 155.95859589 65.20705566 156.91752747 65.19543457 157.90551758 C65.19392647 158.73731033 65.19241837 159.56910309 65.19086456 160.42610168 C64.49071827 163.57155485 63.23078935 164.75567585 60.6875 166.6875 C58.33239746 167.19086456 58.33239746 167.19086456 55.67773438 167.19543457 C54.66831787 167.20671387 53.65890137 167.21799316 52.61889648 167.22961426 C50.96676147 167.21746887 50.96676147 167.21746887 49.28125 167.20507812 C48.1166626 167.2120874 46.9520752 167.21909668 45.75219727 167.22631836 C41.89705667 167.24394432 38.04264826 167.23225841 34.1875 167.21875 C31.51236047 167.22144357 28.83724331 167.22531853 26.16210938 167.23034668 C20.5533045 167.23762197 14.94471037 167.22803871 9.3359375 167.20898438 C2.85332093 167.18721557 -3.62879242 167.19426705 -10.11139679 167.21629 C-15.67926589 167.23444759 -21.24698359 167.23700066 -26.81487274 167.22653532 C-30.1394567 167.22030222 -33.46375252 167.22103198 -36.78833008 167.23268127 C-40.49465157 167.24281748 -44.20000107 167.22738485 -47.90625 167.20507812 C-49.00767334 167.21317505 -50.10909668 167.22127197 -51.24389648 167.22961426 C-52.25331299 167.21833496 -53.26272949 167.20705566 -54.30273438 167.19543457 C-55.17877319 167.19392647 -56.05481201 167.19241837 -56.95739746 167.19086456 C-60.16372619 166.50556435 -61.34629931 165.27499717 -63.3125 162.6875 C-63.83262444 160.44006824 -63.83262444 160.44006824 -63.86080933 157.93916321 C-63.88075958 156.98745743 -63.90070984 156.03575165 -63.92126465 155.0552063 C-63.92259399 154.01774261 -63.92392334 152.98027893 -63.92529297 151.91137695 C-63.94194 150.81334244 -63.95858704 149.71530792 -63.97573853 148.58399963 C-64.02399482 144.94778317 -64.04149036 141.31228414 -64.0546875 137.67578125 C-64.07261893 135.14714847 -64.0908626 132.61851789 -64.10940552 130.08988953 C-64.14240795 124.78455111 -64.15785514 119.4794814 -64.16357422 114.17407227 C-64.17083361 108.0578026 -64.23053461 101.94354725 -64.31438339 95.8278926 C-64.39238758 89.93003963 -64.41476428 84.03278556 -64.41702652 78.13438988 C-64.42542617 75.63253055 -64.45027675 73.13066914 -64.49206161 70.62914467 C-64.80897741 50.0112799 -64.80897741 50.0112799 -61.12286377 45.19264221 C-58.61316146 42.90009986 -56.2970112 41.28620377 -53.3125 39.6875 C-52.23260964 38.85141855 -51.16681033 37.99635917 -50.125 37.11328125 C-49.196875 36.41589844 -48.26875 35.71851563 -47.3125 35 C-46.20134611 34.15818107 -45.09069873 33.3156933 -43.98046875 32.47265625 C-43.39313965 32.02809082 -42.80581055 31.58352539 -42.20068359 31.12548828 C-38.65373291 28.42422896 -35.14152555 25.67817104 -31.625 22.9375 C-30.10161105 21.75123973 -28.57817288 20.56504267 -27.0546875 19.37890625 C-25.89791504 18.47809326 -25.89791504 18.47809326 -24.71777344 17.55908203 C-22.2117534 15.60910745 -19.70376836 13.66168369 -17.1953125 11.71484375 C-16.36733154 11.07192383 -15.53935059 10.42900391 -14.6862793 9.76660156 C-13.08658273 8.52454835 -11.48649737 7.28299569 -9.88598633 6.04199219 C-9.16950928 5.48543945 -8.45303223 4.92888672 -7.71484375 4.35546875 C-7.08054443 3.86328857 -6.44624512 3.3711084 -5.79272461 2.86401367 C-2.96312475 0.61498816 -2.96312475 0.61498816 0 0 Z " fill="#278773" transform="translate(255.3125,262.3125)"></path><path d="M0 0 C6.43843679 0.06886029 10.6461273 5.28222359 15.14941406 9.34130859 C17.43802523 11.34438827 19.86330673 13.13622351 22.3125 14.9375 C29.79726968 20.48249953 37.13016231 26.21866497 44.46875 31.95507812 C46.58049441 33.60394898 48.69599472 35.24787236 50.8125 36.890625 C52.06262482 37.86442312 53.31263183 38.83837249 54.5625 39.8125 C55.12694824 40.24933105 55.69139648 40.68616211 56.27294922 41.13623047 C57.7606863 42.29953607 59.22511707 43.49247794 60.6875 44.6875 C61.3949939 45.17114014 62.10248779 45.65478027 62.8314209 46.15307617 C65.84273847 50.26494565 65.24353681 54.57792425 65.20507812 59.54296875 C65.2120874 60.64903473 65.21909668 61.75510071 65.22631836 62.89468384 C65.24394017 66.55504373 65.23226001 70.21463208 65.21875 73.875 C65.22144369 76.41561024 65.22532508 78.95621947 65.23034668 81.49682617 C65.23624745 86.82318888 65.22804079 92.14927442 65.20898438 97.47558594 C65.18721566 103.63102219 65.19426719 109.78592848 65.21629 115.94135189 C65.23663745 121.86594489 65.23447329 127.79037338 65.22276306 133.71499634 C65.2200914 136.23483352 65.2233809 138.75468418 65.23268127 141.27450562 C65.24282014 144.79404726 65.22738141 148.31256595 65.20507812 151.83203125 C65.21317505 152.87735016 65.22127197 153.92266907 65.22961426 154.99966431 C65.21833496 155.95859589 65.20705566 156.91752747 65.19543457 157.90551758 C65.19392647 158.73731033 65.19241837 159.56910309 65.19086456 160.42610168 C64.49071827 163.57155485 63.23078935 164.75567585 60.6875 166.6875 C58.33239746 167.19086456 58.33239746 167.19086456 55.67773438 167.19543457 C54.66831787 167.20671387 53.65890137 167.21799316 52.61889648 167.22961426 C50.96676147 167.21746887 50.96676147 167.21746887 49.28125 167.20507812 C48.1166626 167.2120874 46.9520752 167.21909668 45.75219727 167.22631836 C41.89705667 167.24394432 38.04264826 167.23225841 34.1875 167.21875 C31.51236047 167.22144357 28.83724331 167.22531853 26.16210938 167.23034668 C20.5533045 167.23762197 14.94471037 167.22803871 9.3359375 167.20898438 C2.85332093 167.18721557 -3.62879242 167.19426705 -10.11139679 167.21629 C-15.67926589 167.23444759 -21.24698359 167.23700066 -26.81487274 167.22653532 C-30.1394567 167.22030222 -33.46375252 167.22103198 -36.78833008 167.23268127 C-40.49465157 167.24281748 -44.20000107 167.22738485 -47.90625 167.20507812 C-49.00767334 167.21317505 -50.10909668 167.22127197 -51.24389648 167.22961426 C-52.25331299 167.21833496 -53.26272949 167.20705566 -54.30273438 167.19543457 C-55.17877319 167.19392647 -56.05481201 167.19241837 -56.95739746 167.19086456 C-60.16372619 166.50556435 -61.34629931 165.27499717 -63.3125 162.6875 C-63.83262444 160.44006824 -63.83262444 160.44006824 -63.86080933 157.93916321 C-63.88075958 156.98745743 -63.90070984 156.03575165 -63.92126465 155.0552063 C-63.92259399 154.01774261 -63.92392334 152.98027893 -63.92529297 151.91137695 C-63.94194 150.81334244 -63.95858704 149.71530792 -63.97573853 148.58399963 C-64.02399482 144.94778317 -64.04149036 141.31228414 -64.0546875 137.67578125 C-64.07261893 135.14714847 -64.0908626 132.61851789 -64.10940552 130.08988953 C-64.14240795 124.78455111 -64.15785514 119.4794814 -64.16357422 114.17407227 C-64.17083361 108.0578026 -64.23053461 101.94354725 -64.31438339 95.8278926 C-64.39238758 89.93003963 -64.41476428 84.03278556 -64.41702652 78.13438988 C-64.42542617 75.63253055 -64.45027675 73.13066914 -64.49206161 70.62914467 C-64.80897741 50.0112799 -64.80897741 50.0112799 -61.12286377 45.19264221 C-58.61316146 42.90009986 -56.2970112 41.28620377 -53.3125 39.6875 C-52.23260964 38.85141855 -51.16681033 37.99635917 -50.125 37.11328125 C-49.196875 36.41589844 -48.26875 35.71851563 -47.3125 35 C-46.20134611 34.15818107 -45.09069873 33.3156933 -43.98046875 32.47265625 C-43.39313965 32.02809082 -42.80581055 31.58352539 -42.20068359 31.12548828 C-38.65373291 28.42422896 -35.14152555 25.67817104 -31.625 22.9375 C-30.10161105 21.75123973 -28.57817288 20.56504267 -27.0546875 19.37890625 C-25.89791504 18.47809326 -25.89791504 18.47809326 -24.71777344 17.55908203 C-22.2117534 15.60910745 -19.70376836 13.66168369 -17.1953125 11.71484375 C-16.36733154 11.07192383 -15.53935059 10.42900391 -14.6862793 9.76660156 C-13.08658273 8.52454835 -11.48649737 7.28299569 -9.88598633 6.04199219 C-9.16950928 5.48543945 -8.45303223 4.92888672 -7.71484375 4.35546875 C-7.08054443 3.86328857 -6.44624512 3.3711084 -5.79272461 2.86401367 C-2.96312475 0.61498816 -2.96312475 0.61498816 0 0 Z M-7.4375 20.4375 C-12.98360335 25.0198275 -18.59165534 29.47085324 -24.375 33.75 C-30.54022435 38.31621213 -36.56869702 43.02575585 -42.52954102 47.85571289 C-45.07138155 49.91265924 -47.5894375 51.872125 -50.3125 53.6875 C-50.75712563 55.55181452 -50.75712563 55.55181452 -50.67326355 57.72439575 C-50.67739604 58.56680376 -50.68152853 59.40921177 -50.68578625 60.27714729 C-50.67499192 61.20678732 -50.6641976 62.13642735 -50.65307617 63.09423828 C-50.65343778 64.08569792 -50.65379938 65.07715755 -50.65417194 66.09866142 C-50.65192683 69.31858151 -50.62905373 72.53798521 -50.60546875 75.7578125 C-50.60105976 77.74145253 -50.59799808 79.72509602 -50.59631348 81.70874023 C-50.58056327 89.07671327 -50.53867987 96.44461166 -50.5 103.8125 C-50.438125 120.27125 -50.37625 136.73 -50.3125 153.6875 C-16.6525 153.6875 17.0075 153.6875 51.6875 153.6875 C52.05875 137.47625 52.43 121.265 52.8125 104.5625 C52.97637207 99.46925293 53.14024414 94.37600586 53.30908203 89.12841797 C53.36933084 84.5090351 53.36933084 84.5090351 53.40548706 79.88943481 C53.43289326 77.85266043 53.49572893 75.81615467 53.58786011 73.78128052 C54.35930337 61.95444784 54.35930337 61.95444784 49.91870117 51.39922905 C45.6481354 47.23276506 40.87688305 44.00235304 35.76794815 40.95283127 C33.1756863 39.37621424 30.83255295 37.56179702 28.484375 35.64453125 C26.39895637 34.02390522 24.31327814 32.40362381 22.2265625 30.78466797 C18.63936272 27.99818242 15.06448102 25.1984903 11.515625 22.36328125 C10.86754883 21.84725342 10.21947266 21.33122559 9.55175781 20.79956055 C8.33944055 19.83253272 7.13026864 18.86154393 5.92480469 17.88598633 C-0.24595906 12.97011896 -1.96580229 15.85209494 -7.4375 20.4375 Z " fill="#FBFCFC" transform="translate(255.3125,262.3125)"></path><path d="M0 0 C1.19092758 -0.01051392 1.19092758 -0.01051392 2.40591431 -0.02124023 C5.02747689 -0.03882973 7.6479579 -0.02719461 10.26953125 -0.01367188 C12.09269416 -0.01636653 13.91585568 -0.02024872 15.73901367 -0.02526855 C19.55889578 -0.03116488 23.3784036 -0.02259641 27.19824219 -0.00390625 C32.09457694 0.01888349 36.9900347 0.00576111 41.88633728 -0.01819611 C45.65074267 -0.03265052 49.41494015 -0.02804976 53.17935181 -0.01768494 C54.98467106 -0.01501666 56.79000919 -0.01829097 58.5953064 -0.02760315 C61.11873367 -0.03776305 63.64074099 -0.02227675 66.1640625 0 C67.28320541 -0.01214539 67.28320541 -0.01214539 68.42495728 -0.02453613 C71.75772208 0.02996931 73.76775073 0.30231942 76.54455566 2.20422363 C78.42886661 5.03944211 78.58853064 6.65845568 78.59960938 10.04882812 C78.61221802 11.15677734 78.62482666 12.26472656 78.63781738 13.40625 C78.62972046 14.59798828 78.62162354 15.78972656 78.61328125 17.01757812 C78.61902161 18.85932617 78.61902161 18.85932617 78.62487793 20.73828125 C78.62759967 23.33399272 78.62022036 25.92973149 78.60351562 28.52539062 C78.582112 32.50257412 78.60331088 36.47795094 78.62890625 40.45507812 C78.62626302 42.97591545 78.62113816 45.49675166 78.61328125 48.01757812 C78.62137817 49.20931641 78.6294751 50.40105469 78.63781738 51.62890625 C78.62520874 52.73685547 78.6126001 53.84480469 78.59960938 54.98632812 C78.596427 55.96021484 78.59324463 56.93410156 78.58996582 57.9375 C77.90659008 61.40874 77.00155109 62.51792484 74.08203125 64.51757812 C71.30987326 64.91231324 68.93458074 65.06522302 66.1640625 65.03515625 C65.37011078 65.04216553 64.57615906 65.0491748 63.75814819 65.05639648 C61.13658561 65.07398598 58.5161046 65.06235086 55.89453125 65.04882812 C54.07136834 65.05152278 52.24820682 65.05540497 50.42504883 65.0604248 C46.60516672 65.06632113 42.7856589 65.05775266 38.96582031 65.0390625 C34.06948556 65.01627276 29.1740278 65.02939514 24.27772522 65.05335236 C20.51331983 65.06780677 16.74912235 65.06320601 12.98471069 65.05284119 C11.17939144 65.05017291 9.37405331 65.05344722 7.5687561 65.0627594 C5.04532883 65.0729193 2.52332151 65.057433 0 65.03515625 C-0.74609528 65.04325317 -1.49219055 65.0513501 -2.26089478 65.05969238 C-5.59365958 65.00518694 -7.60368823 64.73283683 -10.38049316 62.83093262 C-12.26480411 59.99571414 -12.42446814 58.37670057 -12.43554688 54.98632812 C-12.44815552 53.87837891 -12.46076416 52.77042969 -12.47375488 51.62890625 C-12.46565796 50.43716797 -12.45756104 49.24542969 -12.44921875 48.01757812 C-12.45304565 46.78974609 -12.45687256 45.56191406 -12.46081543 44.296875 C-12.46353717 41.70116353 -12.45615786 39.10542476 -12.43945312 36.50976562 C-12.4180495 32.53258213 -12.43924838 28.55720531 -12.46484375 24.58007812 C-12.46220052 22.0592408 -12.45707566 19.53840459 -12.44921875 17.01757812 C-12.45731567 15.82583984 -12.4654126 14.63410156 -12.47375488 13.40625 C-12.46114624 12.29830078 -12.4485376 11.19035156 -12.43554688 10.04882812 C-12.4323645 9.07494141 -12.42918213 8.10105469 -12.42590332 7.09765625 C-11.06923421 0.20639012 -6.08771107 -0.06606627 0 0 Z " fill="#FAFCFB" transform="translate(222.91796875,338.482421875)"></path><path d="M0 0 C21.12 0 42.24 0 64 0 C64 12.54 64 25.08 64 38 C42.88 38 21.76 38 0 38 C0 25.46 0 12.92 0 0 Z " fill="#258570" transform="translate(224,352)"></path><path d="M0 0 C5.04278671 2.62092204 8.98964335 6.92596131 10.78125 12.30078125 C11.522665 19.14367706 10.87178621 24.64954815 6.78125 30.30078125 C2.41349032 35.00360195 -2.17117039 37.32444045 -8.53125 37.73828125 C-13.76963303 37.61605231 -17.24320409 35.59119907 -21.21875 32.30078125 C-26.26378632 26.9902167 -27.76572409 22.0861931 -27.59375 14.86328125 C-26.7684341 9.22362257 -23.39682159 5.02041107 -19.21875 1.30078125 C-13.71637298 -2.25887055 -6.07895552 -1.91572718 0 0 Z " fill="#FBFCFC" transform="translate(264.21875,295.69921875)"></path><path d="M0 0 C17.16 0 34.32 0 52 0 C52 4.29 52 8.58 52 13 C34.84 13 17.68 13 0 13 C0 8.71 0 4.42 0 0 Z " fill="#F4F9F8" transform="translate(230,365)"></path><path d="M0 0 C2.73251347 1.99399631 3.83247946 3.1623973 4.5 6.5 C3.82597224 9.87013879 2.7912125 11.01677007 0 13 C-3.0625 13.5 -3.0625 13.5 -6 13 C-7.9375 11.4375 -7.9375 11.4375 -9 9 C-8.875 5.375 -8.875 5.375 -8 2 C-4.75173326 -0.16551116 -3.76905843 -0.55156953 0 0 Z " fill="#44A48F" transform="translate(342,160)"></path><path d="M0 0 C3.375 0.9375 3.375 0.9375 5.375 3.9375 C5.88819996 7.27329974 5.69722026 8.49593891 3.6875 11.25 C1.375 12.9375 1.375 12.9375 -1.125 13.4375 C-4.4626027 12.76997946 -5.63100369 11.67001347 -7.625 8.9375 C-8.28974877 5.61375617 -7.92761443 4.39747394 -6.0625 1.5625 C-3.625 -0.0625 -3.625 -0.0625 0 0 Z " fill="#3E9C87" transform="translate(314.625,224.0625)"></path><path d="M0 0 C2 2 2 2 2.375 5.4375 C2 9 2 9 0.3125 10.9375 C-2.41818887 12.19214083 -4.02932151 12.45702746 -7 12 C-8.8125 10.9375 -8.8125 10.9375 -10 9 C-10.4375 5.5 -10.4375 5.5 -10 2 C-7.00303875 -1.6885677 -4.34072074 -1.22672543 0 0 Z " fill="#318E7B" transform="translate(260,308)"></path><path d="M0 0 C3.5625 0.3125 3.5625 0.3125 5.5 1.4375 C7.06672245 4.20230433 6.95226435 6.19438517 6.5625 9.3125 C5.4375 11.1875 5.4375 11.1875 3.5625 12.3125 C0.44438517 12.70226435 -1.54769567 12.81672245 -4.3125 11.25 C-6.05723477 8.24517901 -5.74585443 5.70439869 -5.4375 2.3125 C-3.4375 0.3125 -3.4375 0.3125 0 0 Z " fill="#399A85" transform="translate(364.4375,262.6875)"></path></svg>