<svg version="1.1" xmlns="http://www.w3.org/2000/svg" width="16px" height="16px" fill="currentColor" viewBox="0 0 512 512"><path d="M0 0 C168.96 0 337.92 0 512 0 C512 168.96 512 337.92 512 512 C343.04 512 174.08 512 0 512 C0 343.04 0 174.08 0 0 Z " fill="#428925" transform="translate(0,0)"></path><path d="M0 0 C3.96646477 0.01070308 7.93247486 0.00006013 11.89892578 -0.01269531 C25.42842567 -0.02009304 38.74566641 0.31700323 52.17523193 2.01696777 C54.76583908 2.34405926 57.36181096 2.61806116 59.95751953 2.90136719 C94.74109967 7.1782972 138.60936771 16.44605152 163.70751953 42.95214844 C169.02393725 49.82785068 167.69246834 58.95218514 166.79046631 67.11627197 C165.77438639 75.04075091 164.53063855 82.93087732 163.29345703 90.82324219 C162.75320276 94.33453072 162.21612431 97.84629451 161.67939758 101.35812378 C161.3269769 103.66278172 160.97329709 105.96724749 160.61833191 108.27151489 C159.09794088 118.17961815 157.73657667 128.10556277 156.40707397 138.04074097 C156.01098238 140.96094805 155.58821367 143.87682004 155.15673828 146.79199219 C154.96821289 148.06623047 154.96821289 148.06623047 154.77587891 149.36621094 C154.52821621 151.02541567 154.27804515 152.68424718 154.02587891 154.34277344 C153.687362 156.64612127 153.38589404 158.94964681 153.10595703 161.26074219 C152.96802734 162.37707031 152.83009766 163.49339844 152.68798828 164.64355469 C152.83910479 167.46415416 152.83910479 167.46415416 155.37939453 169.09667969 C156.40291016 169.60457031 157.42642578 170.11246094 158.48095703 170.63574219 C167.82766721 175.63898117 181.08594648 183.84793438 185.10595703 194.26074219 C185.66577399 198.73200747 185.61057201 202.89531342 184.04345703 207.13574219 C180.15393168 211.40167322 176.09995247 213.46043999 170.39892578 213.75683594 C168.69699901 213.76212348 166.99483324 213.74185077 165.29345703 213.69824219 C164.41141602 213.68792969 163.529375 213.67761719 162.62060547 213.66699219 C156.4448211 213.51185612 150.80996651 212.7825148 145.10595703 210.26074219 C145.10595703 212.24074219 145.10595703 214.22074219 145.10595703 216.26074219 C140.81595703 215.93074219 136.52595703 215.60074219 132.10595703 215.26074219 C132.43595703 212.62074219 132.76595703 209.98074219 133.10595703 207.26074219 C132.45618896 207.09348633 131.8064209 206.92623047 131.13696289 206.75390625 C96.86547993 197.69911245 64.03929343 182.19033449 31.93798828 167.40527344 C30.16149902 166.58893433 30.16149902 166.58893433 28.34912109 165.75610352 C26.3319379 164.82601867 24.31768707 163.88951243 22.30810547 162.94311523 C21.51049805 162.57355713 20.71289062 162.20399902 19.89111328 161.82324219 C19.22861572 161.51128906 18.56611816 161.19933594 17.88354492 160.87792969 C14.04191297 159.54409566 10.77499758 161.03772867 7.10595703 162.26074219 C1.26824209 162.82206093 -2.36959787 161.82206284 -6.89404297 158.26074219 C-10.52776981 154.53384287 -11.23513933 151.37672698 -11.51904297 146.32324219 C-11.34326432 141.0824342 -10.31706505 138.16243513 -6.53466797 134.53027344 C-2.17989254 131.16050674 1.67281635 130.7841509 7.10595703 131.26074219 C12.23060519 133.10561552 15.07443874 135.75677215 18.10595703 140.26074219 C18.91845703 144.13574219 18.91845703 144.13574219 19.10595703 147.26074219 C20.3675061 147.65447021 20.3675061 147.65447021 21.65454102 148.05615234 C25.325637 149.3374134 28.81396448 150.88459723 32.32861328 152.53417969 C33.75345096 153.1950227 35.1784242 153.8555735 36.60351562 154.51586914 C37.34720398 154.86154938 38.09089233 155.20722961 38.8571167 155.56338501 C68.72306789 169.41983301 99.25362446 182.44172109 130.64892578 192.45605469 C133.10595703 193.26074219 133.10595703 193.26074219 135.10595703 194.26074219 C135.26451172 192.9567749 135.42306641 191.65280762 135.58642578 190.30932617 C137.72113835 172.91733319 140.06328352 155.55528636 142.43994141 138.19506836 C142.99770605 134.11966259 143.55109937 130.0436757 144.10348511 125.96753788 C144.53879766 122.7608487 144.97716531 119.55458221 145.4163208 116.34841728 C145.62147967 114.84705756 145.82559101 113.34555422 146.02850342 111.84388924 C147.45961357 101.26469413 149.18356062 90.76176087 151.10595703 80.26074219 C150.0204808 80.82398697 148.93500458 81.38723175 147.81663513 81.96754456 C117.8579353 97.51287012 84.64547513 104.61429662 51.10595703 107.26074219 C50.04755615 107.34831787 48.98915527 107.43589355 47.89868164 107.52612305 C34.17789014 108.50114728 20.43629681 108.44811991 6.68823242 108.44604492 C3.85060228 108.44596381 1.0131341 108.45289747 -1.82446289 108.46655273 C-18.60698841 108.54597941 -35.20909869 108.27199015 -51.89404297 106.26074219 C-53.15385986 106.11467529 -54.41367676 105.9686084 -55.71166992 105.81811523 C-84.40956589 102.25669696 -112.28145851 95.89621881 -137.89404297 82.26074219 C-139.22577901 81.59089047 -140.55875548 80.92348613 -141.89404297 80.26074219 C-141.76876221 81.11676025 -141.64348145 81.97277832 -141.5144043 82.85473633 C-138.96934538 100.30541466 -136.53699599 117.76367407 -134.33154297 135.26074219 C-132.51533636 149.66188906 -130.49704282 164.01614657 -128.32617188 178.36865234 C-126.64920517 189.59201258 -125.19469944 200.84641809 -123.77294922 212.10449219 C-121.21636609 232.32649771 -118.46004696 252.50178355 -115.43310547 272.65869141 C-114.82207142 276.74166076 -114.22144382 280.82595578 -113.63378906 284.91235352 C-113.39569668 286.56768525 -113.15399743 288.22250335 -112.90820312 289.87670898 C-112.24991243 294.38880049 -111.72238648 298.89269769 -111.29248047 303.43261719 C-111.1293335 304.99846558 -111.1293335 304.99846558 -110.96289062 306.59594727 C-110.75654104 308.60366869 -110.57486356 310.614144 -110.42285156 312.62670898 C-109.9158492 317.37092263 -109.34897018 320.43296108 -105.72216797 323.70214844 C-90.62274364 334.62344495 -69.36584774 338.90712763 -51.17138672 340.89746094 C-48.00307928 341.24865592 -44.90508604 341.75638915 -41.76904297 342.32324219 C-31.3288961 344.10405892 -20.83212245 344.41343464 -10.26123047 344.39355469 C-8.52524094 344.39498978 -8.52524094 344.39498978 -6.75418091 344.39645386 C-4.32228541 344.39712933 -1.89038805 344.39531959 0.54150391 344.39111328 C4.20105187 344.38578572 7.86047546 344.39106485 11.52001953 344.39746094 C24.74852783 344.40082372 37.90610193 344.15155485 51.10595703 343.26074219 C51.43595703 347.55074219 51.76595703 351.84074219 52.10595703 356.26074219 C10.5505641 361.42634042 -34.13645497 360.06089908 -74.89404297 350.26074219 C-75.6386377 350.08929688 -76.38323242 349.91785156 -77.15039062 349.74121094 C-92.95057791 346.08386342 -111.5353041 340.6150241 -120.89404297 326.26074219 C-123.37135968 321.47726883 -123.62569693 316.34725418 -124.20654297 311.07324219 C-125.59355527 299.21915775 -127.30323288 287.42762158 -129.0925293 275.62915039 C-130.24946981 267.95088512 -131.26761868 260.27328978 -132.14593506 252.55815125 C-132.91253513 245.90892993 -133.88609863 239.29653544 -134.89550781 232.67993164 C-136.91675484 219.39586465 -138.72130058 206.09286686 -140.39404297 192.76074219 C-141.92428298 180.5712635 -143.56372266 168.40882576 -145.39404297 156.26074219 C-147.31946933 143.4752964 -149.0283484 130.67262929 -150.63412476 117.84326172 C-151.85340845 108.11546368 -153.13791741 98.40119262 -154.54248047 88.69824219 C-154.68116043 87.73950195 -154.81984039 86.78076172 -154.96272278 85.79296875 C-155.63842214 81.13642383 -156.32211854 76.48118246 -157.01489258 71.82714844 C-157.26243665 70.13835615 -157.50991713 68.44955454 -157.75732422 66.76074219 C-157.87268524 66.00204834 -157.98804626 65.24335449 -158.10690308 64.46166992 C-159.3924786 55.62655367 -159.31491955 49.59559569 -153.89404297 42.26074219 C-137.95818912 24.23545153 -111.23247128 16.47580381 -88.89404297 10.26074219 C-88.15605469 10.05320312 -87.41806641 9.84566406 -86.65771484 9.63183594 C-72.68018343 5.78431526 -58.24612902 4.09196136 -43.89404297 2.26074219 C-42.62786133 2.07833984 -41.36167969 1.8959375 -40.05712891 1.70800781 C-26.74017087 -0.10500137 -13.4195076 -0.04301655 0 0 Z " fill="#FBFCFA" transform="translate(241.89404296875,76.7392578125)"></path><path d="M0 0 C1.18787109 0.20898926 2.37574219 0.41797852 3.59960938 0.63330078 C28.84632136 5.280896 69.04146566 13.36789675 85 36 C85.27772664 40.16589959 83.77992758 42.67485915 81.3125 45.875 C54.46073452 74.2935687 -6.1629067 77.87289491 -43 79 C-50.14530667 79.14596587 -57.29087489 79.18019301 -64.4375 79.1875 C-65.31783905 79.18867828 -66.1981781 79.18985657 -67.10519409 79.19107056 C-84.78701906 79.18838627 -102.26840505 78.47581224 -119.8125 76.1875 C-120.83508408 76.05586456 -120.83508408 76.05586456 -121.87832642 75.92156982 C-192.33555491 66.82141098 -192.33555491 66.82141098 -212.25 45.9375 C-214.13007135 43.4910274 -215.26884283 41.40854577 -216.5625 38.5625 C-215.58908233 32.39752144 -210.8337353 29.55403081 -206 26 C-181.68716475 8.96300582 -148.91368956 2.79949282 -120.125 -1.25 C-118.39890503 -1.49472046 -118.39890503 -1.49472046 -116.63793945 -1.74438477 C-78.67704563 -6.80278626 -37.73036285 -6.65020577 0 0 Z " fill="#4D922C" transform="translate(312,94)"></path><path d="M0 0 C9.625 0.875 9.625 0.875 13 2 C12.731875 3.216875 12.46375 4.43375 12.1875 5.6875 C12.00960937 6.5021875 11.83171875 7.316875 11.6484375 8.15625 C11.1814041 10.20444466 10.68269198 12.24550811 10.1640625 14.28125 C9.88304687 15.4053125 9.60203125 16.529375 9.3125 17.6875 C9.04050781 18.74324219 8.76851563 19.79898437 8.48828125 20.88671875 C7.623788 26.39872771 8.94137568 30.43687222 11.72265625 35.1796875 C12.52993164 36.571875 12.52993164 36.571875 13.35351562 37.9921875 C13.91748047 38.94351563 14.48144531 39.89484375 15.0625 40.875 C15.63033203 41.84953125 16.19816406 42.8240625 16.78320312 43.828125 C18.18062409 46.2237038 19.58636981 48.61396262 21 51 C24.51866986 46.81385412 27.45403882 42.39756998 30.3125 37.75 C30.77978516 37.03714844 31.24707031 36.32429688 31.72851562 35.58984375 C35.11105981 30.04387027 35.46370555 26.28311615 34 20 C33.75121094 18.91332031 33.50242187 17.82664062 33.24609375 16.70703125 C32.70481827 14.76942193 32.1631484 12.83192274 31.62109375 10.89453125 C30.96747437 7.84841828 30.89416762 5.10595017 31 2 C32.2375 1.67 33.475 1.34 34.75 1 C35.79414063 0.7215625 35.79414063 0.7215625 36.859375 0.4375 C39 0 39 0 43 0 C43.67286212 2.41509441 44.33846012 4.83180356 45 7.25 C45.19078125 7.93191406 45.3815625 8.61382812 45.578125 9.31640625 C46.49957044 12.70600912 47 15.45778976 47 19 C48.62808594 18.58427734 48.62808594 18.58427734 50.2890625 18.16015625 C51.73434281 17.7941437 53.17965712 17.4282654 54.625 17.0625 C55.33785156 16.88009766 56.05070312 16.69769531 56.78515625 16.50976562 C60.83969313 15.48683201 64.85947059 14.62042633 69 14 C69.50512244 15.60256108 70.00391627 17.20711792 70.5 18.8125 C70.7784375 19.70582031 71.056875 20.59914063 71.34375 21.51953125 C72 24 72 24 72 27 C71.33468262 27.13462646 70.66936523 27.26925293 69.98388672 27.40795898 C66.93826141 28.04672891 63.90800621 28.74137026 60.875 29.4375 C59.82828125 29.64826172 58.7815625 29.85902344 57.703125 30.07617188 C52.31684707 31.35456062 48.77981043 32.43221347 45.59375 37.125 C44.69662067 38.73226112 43.83215209 40.35815584 43 42 C42.07808294 43.60694137 41.15361386 45.2124214 40.2265625 46.81640625 C39.35537836 48.39624018 38.48817419 49.97827547 37.625 51.5625 C37.17511719 52.38041016 36.72523438 53.19832031 36.26171875 54.04101562 C35.1708828 56.02540867 34.0837051 58.01170664 33 60 C51.13974788 61.76279791 51.13974788 61.76279791 67.34765625 55.40625 C70.77681643 52.08274177 73.78484782 48.46733997 76.53735352 44.56640625 C78 43 78 43 82 42 C84.31 44.64 86.62 47.28 89 50 C86.97291087 54.05417827 84.70317737 56.34418016 81.375 59.25 C80.6015625 59.93835938 80.6015625 59.93835938 79.8125 60.640625 C78.5465398 61.76592296 77.27392058 62.88372177 76 64 C77.82255564 68.68341571 81.6369584 71.64871152 85.27539062 74.93359375 C86.76171875 76.34375 86.76171875 76.34375 89 79 C89.01193598 82.26448998 87.41416187 84.04074118 85.1875 86.3125 C84.68605469 86.84488281 84.18460938 87.37726563 83.66796875 87.92578125 C82 89 82 89 80.0456543 88.76245117 C77.11048146 87.66846087 76.00914441 85.42206613 74.19189453 82.98291016 C69.75496001 77.367955 65.7839947 73.87389119 58.44082642 73.01202393 C50.31189092 72.37091722 42.1354326 72.58106837 34 73 C35.98729207 76.78943827 38.02028844 80.55241497 40.0625 84.3125 C40.62388672 85.38435547 41.18527344 86.45621094 41.76367188 87.56054688 C45.07373327 93.6997739 45.07373327 93.6997739 50.34375 98.0625 C52.15359375 98.5265625 52.15359375 98.5265625 54 99 C55.54054374 99.46164216 57.08089759 99.92391829 58.62109375 100.38671875 C60.22518311 100.82538808 61.83068312 101.25892918 63.4375 101.6875 C64.26443359 101.91244141 65.09136719 102.13738281 65.94335938 102.36914062 C67.96101454 102.91728971 69.98033943 103.45928664 72 104 C71.68950274 105.43793392 71.3765224 106.8753318 71.0625 108.3125 C70.88847656 109.11300781 70.71445312 109.91351563 70.53515625 110.73828125 C70 113 70 113 69 116 C64.33648338 116.21904396 60.68175228 115.49720322 56.25 114.0625 C55.12078125 113.70285156 53.9915625 113.34320313 52.828125 112.97265625 C50 112 50 112 48 111 C47.70996094 112.2684375 47.70996094 112.2684375 47.4140625 113.5625 C45.99972516 119.7239696 44.56149739 125.87412563 43 132 C39.04 131.01 35.08 130.02 31 129 C31 122.27084844 31 122.27084844 32.1640625 118.87109375 C32.39867187 118.14599609 32.63328125 117.42089844 32.875 116.67382812 C33.37697129 115.17706479 33.88483722 113.68226605 34.3984375 112.18945312 C35.79619176 107.92669696 35.79619176 107.92669696 35.45703125 103.54296875 C34.97621094 102.70378906 34.49539063 101.86460937 34 101 C33.64905273 100.33379639 33.29810547 99.66759277 32.93652344 98.98120117 C31.67725954 96.59361454 30.37451195 94.23397097 29.0625 91.875 C28.39831055 90.65876953 28.39831055 90.65876953 27.72070312 89.41796875 C27.28822266 88.63808594 26.85574219 87.85820312 26.41015625 87.0546875 C26.01965088 86.34812012 25.62914551 85.64155273 25.22680664 84.91357422 C23.99616749 82.99402205 22.67023022 81.54300624 21 80 C18.73942305 83.57376583 16.55224889 87.18746983 14.375 90.8125 C13.73820312 91.81732422 13.10140625 92.82214844 12.4453125 93.85742188 C9.35057594 99.08819943 7.41116326 102.72436792 8.5 108.85546875 C8.96285781 110.58070837 9.4593553 112.29753344 10 114 C10.28101563 115.1859375 10.56203125 116.371875 10.8515625 117.59375 C11.10679687 118.5528125 11.36203125 119.511875 11.625 120.5 C12.42665409 123.5161243 13 125.87282056 13 129 C8.47580359 130.22690072 4.70776045 131.13191623 0 131 C-0.67099984 128.39688008 -1.33695338 125.79264602 -2 123.1875 C-2.19078125 122.44951172 -2.3815625 121.71152344 -2.578125 120.95117188 C-3.35262914 117.89464659 -4 115.16626522 -4 112 C-5.16917969 112.27714844 -6.33835937 112.55429687 -7.54296875 112.83984375 C-9.09113523 113.20577401 -10.63931291 113.57165693 -12.1875 113.9375 C-13.34088867 114.21110352 -13.34088867 114.21110352 -14.51757812 114.49023438 C-18.33440092 115.39120113 -22.14656426 116.26637997 -26 117 C-26.33872513 115.58461283 -26.67074624 114.16762037 -27 112.75 C-27.185625 111.96109375 -27.37125 111.1721875 -27.5625 110.359375 C-28 108 -28 108 -28 104 C-24.56435978 102.99353274 -21.12620371 101.9959455 -17.6875 101 C-16.71103516 100.71382813 -15.73457031 100.42765625 -14.72851562 100.1328125 C-13.79072266 99.86210937 -12.85292969 99.59140625 -11.88671875 99.3125 C-11.02264404 99.06113281 -10.15856934 98.80976563 -9.26831055 98.55078125 C-7 98 -7 98 -4 98 C-3.72365723 97.27530518 -3.44731445 96.55061035 -3.16259766 95.80395508 C-2.05385924 93.12989782 -0.8019852 90.66636868 0.6015625 88.13671875 C1.09140625 87.25048828 1.58125 86.36425781 2.0859375 85.45117188 C2.59382813 84.53916016 3.10171875 83.62714844 3.625 82.6875 C4.3984375 81.29047852 4.3984375 81.29047852 5.1875 79.86523438 C6.45573517 77.57536531 7.72664162 75.28702285 9 73 C-9.56070255 71.28219919 -9.56070255 71.28219919 -26.33203125 77.40625 C-30.04860726 80.92630279 -33.10867728 84.78475583 -36 89 C-40 87 -40 87 -46 80 C-41.38 75.38 -36.76 70.76 -32 66 C-37.04413355 60.10578217 -37.04413355 60.10578217 -42.375 54.5625 C-43.06335938 53.88316406 -43.75171875 53.20382812 -44.4609375 52.50390625 C-44.96882813 52.00761719 -45.47671875 51.51132812 -46 51 C-45.0919838 49.86800647 -44.17316174 48.74467637 -43.25 47.625 C-42.73953125 46.99851562 -42.2290625 46.37203125 -41.703125 45.7265625 C-39.90849037 43.90723107 -38.29186068 43.07973942 -36 42 C-35.63688721 42.51498047 -35.27377441 43.02996094 -34.8996582 43.56054688 C-29.72922319 50.53972622 -24.1798169 57.85778041 -15.34863281 59.80517578 C-6.87338826 60.50250603 1.56255094 59.95146252 10 59 C9.57589844 58.28344238 9.15179688 57.56688477 8.71484375 56.82861328 C6.80539326 53.59671096 4.90262197 50.36092656 3 47.125 C2.33226562 45.99707031 1.66453125 44.86914062 0.9765625 43.70703125 C0.34492188 42.63066406 -0.28671875 41.55429687 -0.9375 40.4453125 C-1.81728516 38.95281982 -1.81728516 38.95281982 -2.71484375 37.43017578 C-4 35 -4 35 -4 33 C-5.1446875 32.88785156 -6.289375 32.77570313 -7.46875 32.66015625 C-12.00427203 32.093216 -16.17111004 30.86843862 -20.5 29.4375 C-21.22703125 29.20353516 -21.9540625 28.96957031 -22.703125 28.72851562 C-24.47080261 28.15867219 -26.23570969 27.58024596 -28 27 C-27.85831863 25.56208484 -27.71148957 24.1246763 -27.5625 22.6875 C-27.48128906 21.88699219 -27.40007812 21.08648437 -27.31640625 20.26171875 C-27 18 -27 18 -26 15 C-20.91342817 15.55489875 -16.04685247 16.3733475 -11.078125 17.59765625 C-8.6982734 18.12671952 -8.6982734 18.12671952 -5 18 C-3.35 12.06 -1.7 6.12 0 0 Z " fill="#FAFCF9" transform="translate(335,305)"></path><path d="M0 0 C8.44379631 2.99273793 16.18582711 9.24298827 22 16 C22 16.99 22 17.98 22 19 C13.70316995 19.19676277 6.04924606 19.25943749 -2 17 C-1.85978195 14.35375716 -1.71310224 11.70815422 -1.5625 9.0625 C-1.52318359 8.30775391 -1.48386719 7.55300781 -1.44335938 6.77539062 C-1.11328125 1.11328125 -1.11328125 1.11328125 0 0 Z " fill="#519530" transform="translate(392,258)"></path></svg>