<svg version="1.1" xmlns="http://www.w3.org/2000/svg" width="16px" height="16px" fill="currentColor" viewBox="0 0 512 512"><path d="M0 0 C168.96 0 337.92 0 512 0 C512 168.96 512 337.92 512 512 C343.04 512 174.08 512 0 512 C0 343.04 0 174.08 0 0 Z " fill="#2D8F7A" transform="translate(0,0)"></path><path d="M0 0 C2.64282227 1.09472656 2.64282227 1.09472656 5.31640625 2.640625 C6.31671875 3.21039063 7.31703125 3.78015625 8.34765625 4.3671875 C9.40855469 4.98851562 10.46945312 5.60984375 11.5625 6.25 C13.22925781 7.20519531 13.22925781 7.20519531 14.9296875 8.1796875 C18.29273868 10.10911801 21.64639485 12.05421193 25 14 C27.65982761 15.52569962 30.32262835 17.04607537 32.98608398 18.56542969 C34.67275861 19.52793334 36.3584577 20.49214835 38.04321289 21.45800781 C44.83678142 25.35105985 51.66423867 29.18161089 58.5 33 C104.30224 58.60448 104.30224 58.60448 106 62 C106.10140639 63.67598634 106.1394515 65.35597005 106.14717102 67.03500366 C106.15790398 68.63335304 106.15790398 68.63335304 106.16885376 70.26399231 C106.17154266 71.43806137 106.17423157 72.61213043 106.17700195 73.82177734 C106.18357315 75.05434769 106.19014435 76.28691803 106.19691467 77.55683899 C106.2132698 80.94325737 106.22487644 84.32961323 106.2331202 87.71605635 C106.23826942 89.83107848 106.24434514 91.94609623 106.25063133 94.06111526 C106.26968261 100.67657975 106.28391465 107.29203306 106.2922433 113.9075197 C106.3020207 121.54783867 106.32835323 129.18786831 106.36874419 136.8280853 C106.3988833 142.73132653 106.41371 148.6344847 106.41702431 154.53780138 C106.41937708 158.06477414 106.42836639 161.59143777 106.45348549 165.11832809 C106.48105023 169.05212469 106.4769418 172.98553902 106.4699707 176.91943359 C106.48918579 178.67446449 106.48918579 178.67446449 106.50878906 180.46495056 C106.49837334 182.07175941 106.49837334 182.07175941 106.48774719 183.71102905 C106.49013555 184.64128592 106.4925239 185.57154278 106.49498463 186.52998924 C105.84701953 189.76338412 104.49884471 190.91862344 102 193 C100.33008065 194.07063854 98.61851135 195.07800732 96.87890625 196.03125 C95.87214844 196.588125 94.86539063 197.145 93.828125 197.71875 C92.75046875 198.3065625 91.6728125 198.894375 90.5625 199.5 C88.28210042 200.75959931 86.00215905 202.0200285 83.72265625 203.28125 C82.5845752 203.90902344 81.44649414 204.53679687 80.27392578 205.18359375 C75.65709476 207.74505704 71.07669406 210.36769965 66.5 213 C57.81030618 217.98604035 49.0747447 222.88699803 40.32763672 227.77148438 C33.40400729 231.64192962 26.50654373 235.5552767 19.625 239.5 C17.91939576 240.47417709 16.21367284 241.44814643 14.5078125 242.421875 C11.80840763 243.96278996 9.11547168 245.51362072 6.4296875 247.078125 C5.46289062 247.62984375 4.49609375 248.1815625 3.5 248.75 C2.7265625 249.19859375 1.953125 249.6471875 1.15625 250.109375 C-1.47137848 251.19469981 -3.16577829 251.22774532 -6 251 C-8.34228516 249.95288086 -8.34228516 249.95288086 -10.7890625 248.46484375 C-11.7162207 247.91070801 -12.64337891 247.35657227 -13.59863281 246.78564453 C-14.59733398 246.17575684 -15.59603516 245.56586914 -16.625 244.9375 C-18.79795253 243.63936821 -20.9724908 242.3438879 -23.1484375 241.05078125 C-24.27733398 240.37869629 -25.40623047 239.70661133 -26.56933594 239.01416016 C-32.07346368 235.78265903 -37.65923639 232.70339632 -43.25 229.625 C-53.80337201 223.79775618 -64.2938581 217.87098038 -74.74707031 211.86669922 C-80.3920927 208.62627453 -86.04611512 205.40621958 -91.734375 202.2421875 C-92.79237305 201.65195801 -93.85037109 201.06172852 -94.94042969 200.45361328 C-96.92235674 199.35004745 -98.90721384 198.25172083 -100.89550781 197.15966797 C-102.21566895 196.42321045 -102.21566895 196.42321045 -103.5625 195.671875 C-104.70912109 195.03910645 -104.70912109 195.03910645 -105.87890625 194.39355469 C-108.32686309 192.78525155 -110.10176841 191.24058881 -112 189 C-112.50615788 186.53836918 -112.50615788 186.53836918 -112.5146637 183.73121643 C-112.52738815 182.66434601 -112.54011261 181.59747559 -112.55322266 180.49827576 C-112.54669678 179.33296829 -112.5401709 178.16766083 -112.53344727 176.96704102 C-112.54637062 175.12015686 -112.54637062 175.12015686 -112.55955505 173.23596191 C-112.57837059 169.86166889 -112.57910894 166.48835747 -112.57023358 163.11408734 C-112.56512222 160.29596333 -112.57241748 157.47792734 -112.57970566 154.65981239 C-112.59670614 148.01067879 -112.59313781 141.36177467 -112.57641602 134.71264648 C-112.55949568 127.85621771 -112.57532694 121.00042562 -112.6076389 114.14406639 C-112.63434255 108.25431186 -112.64160875 102.36475543 -112.63312382 96.47494644 C-112.62819655 92.95857771 -112.6303985 89.44259203 -112.65091133 85.92627144 C-112.67269301 82.00471227 -112.65386086 78.08391935 -112.63110352 74.16235352 C-112.64279572 72.99907028 -112.65448792 71.83578705 -112.66653442 70.63725281 C-112.57331644 62.75716153 -112.57331644 62.75716153 -109.60142517 58.83227539 C-107.24890529 57.17531276 -104.98403212 55.6462233 -102.4375 54.30859375 C-101.13594971 53.6139502 -101.13594971 53.6139502 -99.80810547 52.90527344 C-98.88143066 52.4209082 -97.95475586 51.93654297 -97 51.4375 C-95.00165466 50.37026559 -93.0042805 49.30121097 -91.0078125 48.23046875 C-89.49429199 47.42101807 -89.49429199 47.42101807 -87.95019531 46.59521484 C-83.55127735 44.21665394 -79.20989795 41.74286253 -74.875 39.25 C-74.02905273 38.76442627 -73.18310547 38.27885254 -72.31152344 37.77856445 C-70.51493301 36.74656871 -68.71872151 35.71391307 -66.92285156 34.68066406 C-61.36973899 31.48757795 -55.81035533 28.30545074 -50.25 25.125 C-49.66344635 24.78937042 -49.0768927 24.45374084 -48.4725647 24.10794067 C-38.649465 18.48907431 -28.79078784 12.93665266 -18.90527344 7.42822266 C-17.93750977 6.88858887 -16.96974609 6.34895508 -15.97265625 5.79296875 C-15.12968994 5.3239917 -14.28672363 4.85501465 -13.41821289 4.37182617 C-10.95334142 3.01942526 -10.95334142 3.01942526 -8.56420898 1.32543945 C-5.3998592 -0.31021274 -3.52509694 -0.41153205 0 0 Z " fill="#FBFDFC" transform="translate(259,135)"></path><path d="M0 0 C0.44111927 13.75977306 0.77824621 27.51785429 0.98443127 41.28326893 C1.08342158 47.6763382 1.21752273 54.0645573 1.43334961 60.45483398 C1.64052747 66.62799385 1.75352938 72.79650692 1.80266762 78.9728756 C1.83765525 81.3229971 1.90599769 83.6728761 2.00887108 86.02100563 C2.76274183 103.94918289 2.76274183 103.94918289 -1.86045647 109.05444908 C-6.42390392 112.61696544 -11.41122122 114.97060562 -16.77144337 117.0918684 C-19.64003478 118.26081267 -22.25211377 119.75925989 -24.90234375 121.35546875 C-26.58023018 122.30036579 -28.25861373 123.24438062 -29.9375 124.1875 C-38.14334941 128.81022509 -46.32791793 133.46900813 -54.50057983 138.15005493 C-63.19324872 143.12718728 -71.88797991 148.10103124 -80.625 153 C-81.35887939 153.41531982 -82.09275879 153.83063965 -82.84887695 154.25854492 C-87.76647066 157 -87.76647066 157 -90 157 C-90.55789685 143.29283697 -90.98336318 129.58839957 -91.24349213 115.87216759 C-91.36840611 109.50117594 -91.53748164 103.13798386 -91.81054688 96.77148438 C-93.58348491 54.33816263 -93.58348491 54.33816263 -87.78442383 46.40270996 C-82.3281786 41.13934766 -76.15227274 38.7389421 -68.91137695 36.82012939 C-64.98584742 35.71431513 -62.0558776 33.98469432 -58.59375 31.84375 C-56.56367328 30.72703111 -54.53245244 29.61238916 -52.5 28.5 C-43.63787855 23.61571133 -34.85030783 18.62469253 -26.125 13.5 C-3.12375312 0 -3.12375312 0 0 0 Z " fill="#2F917C" transform="translate(352,211)"></path><path d="M0 0 C4.27192537 1.37457513 7.9468218 2.94623088 11.83203125 5.203125 C12.94707031 5.84636719 14.06210938 6.48960937 15.2109375 7.15234375 C15.79713867 7.49378418 16.38333984 7.83522461 16.98730469 8.18701172 C20.12722072 10.01568941 23.27742739 11.82652721 26.42578125 13.640625 C27.06569 14.01006226 27.70559875 14.37949951 28.36489868 14.76013184 C34.37901294 18.22906049 40.43453388 21.62174087 46.5 25 C55.81993289 30.20098013 65.10677015 35.45762672 74.375 40.75 C75.29768677 41.2761792 75.29768677 41.2761792 76.23901367 41.81298828 C77.9803657 42.8063723 79.72067459 43.80158423 81.4609375 44.796875 C82.45915527 45.36760742 83.45737305 45.93833984 84.48583984 46.52636719 C86.35998524 47.62486608 88.19249243 48.79499495 90 50 C90.36914349 51.91715431 90.36914349 51.91715431 90.36076355 54.30264282 C90.36488754 55.20570663 90.36901154 56.10877045 90.3732605 57.03919983 C90.36247467 58.0325383 90.35168884 59.02587677 90.34057617 60.04931641 C90.34123329 61.61520256 90.34123329 61.61520256 90.34190369 63.21272278 C90.33980756 66.67585722 90.31643734 70.13851225 90.29296875 73.6015625 C90.28737574 75.9976678 90.28310425 78.39377652 90.28010559 80.78988647 C90.26863368 87.10617492 90.2391462 93.42225745 90.20599365 99.73846436 C90.17534335 106.17978123 90.16161104 112.62113127 90.14648438 119.0625 C90.11427885 131.70842135 90.06362821 144.35419974 90 157 C86.2184471 155.77127338 82.81876905 154.50261966 79.3671875 152.5234375 C78.05645264 151.77719116 78.05645264 151.77719116 76.71923828 151.01586914 C75.78063965 150.47438232 74.84204102 149.93289551 73.875 149.375 C72.37622314 148.51926392 72.37622314 148.51926392 70.84716797 147.64624023 C67.56187625 145.76918328 64.28088222 143.88475203 61 142 C56.96357465 139.68859711 52.92589143 137.37939784 48.88787842 135.07077026 C47.12229576 134.06095332 45.35727181 133.05016485 43.59228516 132.03930664 C34.48728503 126.82853999 25.34306537 121.6911535 16.16845703 116.60375977 C14.73155518 115.8040979 14.73155518 115.8040979 13.265625 114.98828125 C12.43836914 114.52977783 11.61111328 114.07127441 10.75878906 113.59887695 C9.84838867 113.07124756 8.93798828 112.54361816 8 112 C7.34413029 111.70807518 6.68826057 111.41615036 6.01251602 111.11537933 C0.4458987 108.32722635 0.4458987 108.32722635 -0.72715378 104.8356123 C-0.98761264 102.06447368 -0.9896531 99.3925396 -0.90820312 96.61010742 C-0.90937134 95.56574524 -0.91053955 94.52138306 -0.91174316 93.44537354 C-0.90617456 89.99738018 -0.84397494 86.55285676 -0.78125 83.10546875 C-0.76632726 80.7136677 -0.7549404 78.32184218 -0.74694824 75.93000793 C-0.7164178 69.63783123 -0.63784333 63.34713438 -0.54931641 57.05554199 C-0.46744664 50.63423686 -0.43093412 44.21269234 -0.390625 37.79101562 C-0.30485307 25.19337941 -0.16987206 12.59676845 0 0 Z " fill="#278873" transform="translate(160,211)"></path><path d="M0 0 C1.85362524 0.927077 3.68054465 1.90822482 5.48828125 2.921875 C6.57488037 3.52829834 7.66147949 4.13472168 8.78100586 4.75952148 C9.95825268 5.42286863 11.13541523 6.08636534 12.3125 6.75 C13.53569098 7.43533018 14.75908232 8.12030286 15.98266602 8.80493164 C19.07976816 10.5395863 22.17352342 12.28010945 25.26599121 14.02301025 C26.86586675 14.92442552 28.46658647 15.82434206 30.06738281 16.72412109 C36.72193873 20.4645979 43.36380001 24.22706635 50 28 C50.5784668 28.32865051 51.15693359 28.65730103 51.75292969 28.99591064 C55.52816275 31.14080399 59.30201603 33.28809791 63.07424927 35.43826294 C64.29830696 36.13576832 65.52264344 36.83278473 66.74728394 37.52926636 C73.24948952 41.22853532 79.69299756 44.97590028 86 49 C82.93293545 51.40811603 79.75036018 53.37186384 76.36328125 55.30078125 C75.24123291 55.94112305 74.11918457 56.58146484 72.96313477 57.24121094 C71.74631953 57.93175168 70.52943964 58.62217852 69.3125 59.3125 C68.05192399 60.03013651 66.791427 60.74791184 65.53100586 61.46582031 C56.37121365 66.67749016 47.18031821 71.8330716 37.97949219 76.97192383 C31.15662563 80.78473441 24.35044908 84.6253521 17.5625 88.5 C16.74080322 88.96825195 15.91910645 89.43650391 15.07250977 89.91894531 C14.28674561 90.36850586 13.50098145 90.81806641 12.69140625 91.28125 C11.92586426 91.71566406 11.16032227 92.15007812 10.37158203 92.59765625 C8.67314707 93.60196039 7.00484527 94.65791705 5.35888672 95.74609375 C4.48635254 96.31457031 3.61381836 96.88304687 2.71484375 97.46875 C1.93101318 97.99919922 1.14718262 98.52964844 0.33959961 99.07617188 C-2 100 -2 100 -4.48388672 99.32666016 C-5.3142041 98.8888623 -6.14452148 98.45106445 -7 98 C-7.79801025 97.58476074 -8.59602051 97.16952148 -9.41821289 96.74169922 C-10.2611792 96.26748535 -11.10414551 95.79327148 -11.97265625 95.3046875 C-12.94009766 94.76199219 -13.90753906 94.21929687 -14.90429688 93.66015625 C-15.94650391 93.07105469 -16.98871094 92.48195313 -18.0625 91.875 C-19.70895508 90.94880859 -19.70895508 90.94880859 -21.38867188 90.00390625 C-30.19868448 85.0392577 -38.97897029 80.0228061 -47.7532959 74.99542236 C-58.40779824 68.89087092 -69.10904667 62.87420862 -79.83203125 56.890625 C-83.90257754 54.61848658 -87.9580382 52.32257777 -92 50 C-89.36932295 47.19056082 -86.93392574 45.20255376 -83.53515625 43.40625 C-82.6639917 42.93977051 -81.79282715 42.47329102 -80.89526367 41.99267578 C-79.49304565 41.25380127 -79.49304565 41.25380127 -78.0625 40.5 C-76.05893623 39.42626784 -74.05635438 38.35070173 -72.0546875 37.2734375 C-71.03987305 36.7278418 -70.02505859 36.18224609 -68.97949219 35.62011719 C-64.50951009 33.18953695 -60.09630351 30.6644198 -55.6875 28.125 C-46.82501248 23.02953328 -37.92402707 18.00642365 -28.9921875 13.03344727 C-24.30364757 10.42148106 -19.62700092 7.79789871 -15 5.078125 C-13.89168823 4.43266724 -13.89168823 4.43266724 -12.76098633 3.77416992 C-11.42405261 2.99291453 -10.09264941 2.2020785 -8.76831055 1.3996582 C-5.32486492 -0.60132111 -3.74679249 -1.33680598 0 0 Z " fill="#32957F" transform="translate(259,150)"></path><path d="M0 0 C0.68610352 0.14002441 1.37220703 0.28004883 2.07910156 0.42431641 C33.22613429 7.05149107 62.5268834 22.25412809 85.8046875 43.95703125 C87.84159003 45.85258289 89.93370553 47.64680818 92.0625 49.4375 C99.65736507 56.06769471 105.96248861 63.96292696 112 72 C109.14723863 74.93200474 106.34920216 77.64315404 103 80 C98.89705439 78.45547313 96.71239423 75.50882341 94.0625 72.1875 C67.97596449 40.56034379 30.77194734 18.84382928 -10 13 C-11.18980469 12.81824219 -12.37960937 12.63648437 -13.60546875 12.44921875 C-46.53788562 8.4886154 -79.08313522 15.15103825 -108 31 C-109.21349101 31.64462663 -110.42703213 32.28915892 -111.640625 32.93359375 C-130.36943193 43.06737609 -147.77501941 58.36212119 -161 75 C-165.82570553 74.15656917 -168.48096868 71.18066292 -172 68 C-146.5818799 31.47773992 -103.55671975 7.89330212 -60.57421875 -0.68359375 C-41.55237691 -3.69798399 -18.87084183 -3.8683179 0 0 Z " fill="#FAFCFB" transform="translate(288,79)"></path><path d="M0 0 C6.80330978 29.85530117 4.84651239 64.32729983 -6 93 C-6.28359375 93.76973145 -6.5671875 94.53946289 -6.859375 95.33251953 C-15.45078077 118.48107947 -26.96815436 138.97214 -44 157 C-45.12962233 158.32941948 -46.25479312 159.66263718 -47.375 161 C-60.274065 175.69141799 -76.69925012 187.12209876 -94 196 C-94.60102539 196.31275879 -95.20205078 196.62551758 -95.82128906 196.94775391 C-108.11538442 203.27014249 -122.22122134 209.23523032 -136 211 C-137.30120196 206.66266014 -138.29517987 202.48291002 -139 198 C-137.41638672 197.61521484 -137.41638672 197.61521484 -135.80078125 197.22265625 C-109.00067386 190.41452735 -85.53392106 177.88176423 -65.25390625 159.04296875 C-63 157 -63 157 -60.65234375 155.23828125 C-42.11702039 139.59654298 -29.95685272 116.09196917 -21 94 C-20.61199219 93.0615625 -20.22398437 92.123125 -19.82421875 91.15625 C-16.64901156 83.01595048 -14.74153461 74.54277024 -13 66 C-12.77054687 64.8759375 -12.54109375 63.751875 -12.3046875 62.59375 C-9.02755542 42.83864392 -10.70268356 21.89990754 -12 2 C-10.7625 1.67 -9.525 1.34 -8.25 1 C-7.55390625 0.814375 -6.8578125 0.62875 -6.140625 0.4375 C-4 0 -4 0 0 0 Z " fill="#FAFCFC" transform="translate(432,224)"></path><path d="M0 0 C1.6045556 0.14148989 3.20863767 0.28835686 4.8125 0.4375 C5.70582031 0.51871094 6.59914063 0.59992188 7.51953125 0.68359375 C10 1 10 1 13 2 C12.85925049 2.88993652 12.71850098 3.77987305 12.57348633 4.69677734 C11.14750057 14.38644173 10.63585374 23.83789536 10.6875 33.625 C10.68965515 34.36534485 10.6918103 35.1056897 10.69403076 35.86846924 C10.87174625 74.08551833 22.76238562 110.13579657 47 140 C47.45632812 140.56315918 47.91265625 141.12631836 48.3828125 141.70654297 C71.74536249 170.32410503 102.50884928 188.54781133 138 198 C137.67 201.96 137.34 205.92 137 210 C132.47630738 211.13092315 129.93586556 210.35430113 125.6875 208.9375 C124.97891846 208.70635498 124.27033691 208.47520996 123.5402832 208.23706055 C98.98651567 200.08522064 76.1933519 188.13788176 57.3359375 170.21484375 C55.30602127 168.29015729 53.22544547 166.52008395 51.0625 164.75 C19.73302256 137.32072282 0.36916632 92.04008994 -2.80957031 51.22900391 C-3.8300465 33.92539096 -3.47361326 16.99254052 0 0 Z " fill="#FAFCFC" transform="translate(80,224)"></path></svg>