<svg version="1.1" xmlns="http://www.w3.org/2000/svg" width="16px" height="16px" fill="currentColor" viewBox="0 0 512 512"><path d="M0 0 C168.96 0 337.92 0 512 0 C512 168.96 512 337.92 512 512 C343.04 512 174.08 512 0 512 C0 343.04 0 174.08 0 0 Z " fill="#D72B6B" transform="translate(0,0)"></path><path d="M0 0 C17.08103037 16.03525301 27.0215351 36.4599165 27.89233398 59.98925781 C28.09091914 73.5510298 24.48602655 85.78840675 19.48828125 98.3359375 C28.8760094 107.0607109 28.8760094 107.0607109 38.46484375 115.5625 C41.00329296 117.78731842 43.49469901 120.06097069 45.98828125 122.3359375 C49.17269093 125.23962787 52.36602946 128.12767797 55.61328125 130.9609375 C56.23976563 131.51136719 56.86625 132.06179688 57.51171875 132.62890625 C58.93723601 133.8600348 60.38259253 135.06832198 61.83984375 136.26171875 C67.77808442 141.24249065 71.77763788 145.34093457 72.89453125 153.19140625 C73.2547854 160.29741941 72.19633899 165.85943815 67.48828125 171.3359375 C61.1699741 176.580907 55.66529667 178.8761731 47.4375 178.71484375 C36.70329216 177.33574685 28.5478598 167.04448154 21.12988281 159.90087891 C18.63984198 157.52711899 16.0478059 155.28283264 13.44140625 153.0390625 C10.92215849 150.84227845 8.45725129 148.58904131 5.98828125 146.3359375 C2.05037263 142.74307511 -1.92127333 139.19794435 -5.953125 135.7109375 C-7.17907698 134.6293959 -8.35571475 133.4919415 -9.51171875 132.3359375 C-13.57610621 132.68631573 -16.69687678 134.31534693 -20.26171875 136.2109375 C-39.97194418 146.2583451 -61.56722416 146.72984945 -82.51171875 140.3359375 C-86.36933742 138.95139615 -89.91356795 137.29109707 -93.51171875 135.3359375 C-94.47207031 134.84480469 -95.43242187 134.35367188 -96.421875 133.84765625 C-117.00707595 122.71836696 -129.65087192 104.04165877 -136.8203125 82.1796875 C-141.96148356 61.03407997 -138.52310008 37.62310225 -127.54296875 18.99609375 C-114.87511323 -0.3040267 -96.19486716 -14.31143837 -73.51171875 -19.6640625 C-47.41664336 -24.93424439 -19.97847531 -17.34427634 0 0 Z " fill="#D8306F" transform="translate(362.51171875,237.6640625)"></path><path d="M0 0 C17.08103037 16.03525301 27.0215351 36.4599165 27.89233398 59.98925781 C28.09091914 73.5510298 24.48602655 85.78840675 19.48828125 98.3359375 C28.8760094 107.0607109 28.8760094 107.0607109 38.46484375 115.5625 C41.00329296 117.78731842 43.49469901 120.06097069 45.98828125 122.3359375 C49.17269093 125.23962787 52.36602946 128.12767797 55.61328125 130.9609375 C56.23976563 131.51136719 56.86625 132.06179688 57.51171875 132.62890625 C58.93723601 133.8600348 60.38259253 135.06832198 61.83984375 136.26171875 C67.77808442 141.24249065 71.77763788 145.34093457 72.89453125 153.19140625 C73.2547854 160.29741941 72.19633899 165.85943815 67.48828125 171.3359375 C61.1699741 176.580907 55.66529667 178.8761731 47.4375 178.71484375 C36.70329216 177.33574685 28.5478598 167.04448154 21.12988281 159.90087891 C18.63984198 157.52711899 16.0478059 155.28283264 13.44140625 153.0390625 C10.92215849 150.84227845 8.45725129 148.58904131 5.98828125 146.3359375 C2.05037263 142.74307511 -1.92127333 139.19794435 -5.953125 135.7109375 C-7.17907698 134.6293959 -8.35571475 133.4919415 -9.51171875 132.3359375 C-13.57610621 132.68631573 -16.69687678 134.31534693 -20.26171875 136.2109375 C-39.97194418 146.2583451 -61.56722416 146.72984945 -82.51171875 140.3359375 C-86.36933742 138.95139615 -89.91356795 137.29109707 -93.51171875 135.3359375 C-94.47207031 134.84480469 -95.43242187 134.35367188 -96.421875 133.84765625 C-117.00707595 122.71836696 -129.65087192 104.04165877 -136.8203125 82.1796875 C-141.96148356 61.03407997 -138.52310008 37.62310225 -127.54296875 18.99609375 C-114.87511323 -0.3040267 -96.19486716 -14.31143837 -73.51171875 -19.6640625 C-47.41664336 -24.93424439 -19.97847531 -17.34427634 0 0 Z M-103.51171875 10.3359375 C-104.21039063 10.94050781 -104.9090625 11.54507813 -105.62890625 12.16796875 C-117.48163844 23.12136912 -125.15242499 39.35618842 -125.84765625 55.5 C-126.21266681 77.58113355 -120.83196436 95.43554182 -105.26953125 111.67578125 C-92.02396152 124.37849976 -75.08656622 131.77137616 -56.69921875 131.6484375 C-55.82265625 131.64352295 -54.94609375 131.6386084 -54.04296875 131.63354492 C-47.1814639 131.51002263 -41.00385193 130.65522181 -34.51171875 128.3359375 C-33.52042969 127.98402344 -32.52914062 127.63210938 -31.5078125 127.26953125 C-12.00487547 119.72241769 1.1163921 106.31190722 9.80078125 87.4609375 C16.88774119 70.09316101 16.23048785 51.28602443 9.1328125 34.04296875 C6.01742454 27.45304622 2.16102499 21.90085188 -2.51171875 16.3359375 C-3.25421875 15.3253125 -3.99671875 14.3146875 -4.76171875 13.2734375 C-14.29372602 2.06479051 -30.23458062 -5.09336859 -44.51171875 -7.6640625 C-67.00555607 -9.35893176 -86.33223836 -4.95088827 -103.51171875 10.3359375 Z " fill="#FEFAFC" transform="translate(362.51171875,237.6640625)"></path><path d="M0 0 C3.81799453 2.84165676 7.43976836 5.84270931 11 9 C12.04607422 9.92039062 12.04607422 9.92039062 13.11328125 10.859375 C22.00615865 19.19978908 29.12549211 29.86559777 34 41 C38.52630452 39.23703719 42.89238141 37.19840936 47.28125 35.12109375 C55.83348897 31.59452395 65.90899553 31.97674886 74.56640625 34.96875 C87.37967759 40.39845086 95.71222622 48.90744796 101.55859375 61.4140625 C103.95163529 67.36748293 106 73.53602135 106 80 C107.51207031 80.17015625 107.51207031 80.17015625 109.0546875 80.34375 C125.52918347 83.0840622 140.69889528 93.3843315 150.86328125 106.3828125 C156.16919789 113.99515543 158.61131148 122.14605949 161 131 C161.17958252 131.65081543 161.35916504 132.30163086 161.54418945 132.97216797 C165.47822086 150.47407739 160.10163755 170.04591164 151 185 C149.12031443 187.55012046 147.21790926 189.72799539 145 192 C141.78956118 190.61811547 139.95063635 189.07578097 137.75 186.375 C137.22921875 185.74335938 136.7084375 185.11171875 136.171875 184.4609375 C135.78515625 183.97882813 135.3984375 183.49671875 135 183 C135.45890625 182.38253906 135.9178125 181.76507813 136.390625 181.12890625 C146.56573407 167.08469058 149.57410305 153.19582502 148 136 C145.35569289 122.33536432 138.63197722 110.24470566 127 102.375 C117.76100152 96.8163718 107.59050598 93.04903495 97.07421875 90.73828125 C95 90 95 90 93 87 C92.64316621 84.82218106 92.36103902 82.63169946 92.125 80.4375 C90.62401657 69.22630837 86.83558092 60.67786252 78.6875 52.75 C70.4170662 47.36460125 63.45750137 45.83360211 53.65234375 47.3671875 C45.76903561 49.39710459 40.58625875 55.41374125 35 61 C31.75 61.375 31.75 61.375 28 60 C25.48143001 56.24391044 23.81571569 52.13014795 22 48 C10.57372338 25.6546183 -5.05529009 8.71745628 -29.375 0.45703125 C-50.66000845 -6.16911568 -72.6700106 -4.43703961 -92.45410156 5.79272461 C-98.16768378 8.91568083 -103.18681512 12.60886678 -108 17 C-108.6084375 17.51691406 -109.216875 18.03382813 -109.84375 18.56640625 C-122.960998 30.46136523 -132.24256675 50.64308196 -134 68 C-134.02041069 72.29556199 -133.88086948 76.5895083 -133.69726562 80.88085938 C-133.5660445 87.34957489 -133.5660445 87.34957489 -135.66796875 90.5 C-138.2655217 92.17078783 -140.52157229 92.9998376 -143.5 93.8125 C-150.67779092 96.03189057 -158.32349232 99.32349232 -163.71484375 104.71484375 C-164.13894531 105.13894531 -164.56304687 105.56304687 -165 106 C-165.66 106 -166.32 106 -167 106 C-167.27070313 106.57492188 -167.54140625 107.14984375 -167.8203125 107.7421875 C-169.01465189 110.02804236 -170.37989305 112.02565294 -171.875 114.125 C-180.80465987 127.33391008 -182.02493058 142.94527514 -179.61767578 158.46484375 C-176.4743654 172.75889857 -168.42496444 185.36550842 -156.4140625 193.8203125 C-149.25657284 198.26956283 -143.18340791 200.2945595 -134.69970703 200.31884766 C-133.88928452 200.32889328 -133.078862 200.3389389 -132.24388123 200.34928894 C-129.58186512 200.38002517 -126.91994914 200.39712933 -124.2578125 200.4140625 C-122.4054987 200.43278185 -120.55319336 200.45235583 -118.70089722 200.4727478 C-113.83810419 200.52399397 -108.97528355 200.56365988 -104.11236572 200.60089111 C-99.1451539 200.64097792 -94.17805624 200.69204891 -89.2109375 200.7421875 C-79.47403862 200.83885779 -69.73707517 200.923291 -60 201 C-60 204.96 -60 208.92 -60 213 C-71.17061224 213.09292776 -82.34113159 213.16388036 -93.51205254 213.20724869 C-98.69990629 213.2280697 -103.8874944 213.2562867 -109.07519531 213.30175781 C-114.08728754 213.34541174 -119.09912521 213.36917832 -124.11139297 213.37950897 C-126.01785409 213.38686537 -127.92430222 213.40123032 -129.83065414 213.42292023 C-148.8519052 213.63061279 -148.8519052 213.63061279 -157 209 C-157.97710937 208.505 -158.95421875 208.01 -159.9609375 207.5 C-177.10311457 196.84855017 -187.92951043 181.47534248 -193 162 C-196.39255172 141.33627588 -194.10881369 121.95923102 -182.2578125 104.421875 C-174.0669355 93.34209947 -162.03755672 85.34585224 -149 81 C-148.96559814 80.45287354 -148.93119629 79.90574707 -148.89575195 79.34204102 C-147.20920051 54.30002058 -140.61639902 31.73959225 -123 13 C-121.75476563 11.61941406 -121.75476563 11.61941406 -120.484375 10.2109375 C-110.80931383 -0.05820638 -99.42119886 -7.4740648 -86 -12 C-85.34499512 -12.22703613 -84.68999023 -12.45407227 -84.01513672 -12.68798828 C-54.92433023 -22.48650862 -25.19897669 -16.85772988 0 0 Z " fill="#FEFAFC" transform="translate(271,113)"></path><path d="M0 0 C7.73725702 7.210401 14.40973872 17.87608603 14.87109375 28.609375 C14.88557824 30.23822153 14.88925083 31.86719554 14.8828125 33.49609375 C14.89892578 34.29982422 14.91503906 35.10355469 14.93164062 35.93164062 C14.94167048 48.39875418 9.44336092 58.89688682 1.06640625 67.8515625 C-8.75013695 77.0228869 -20.92648034 80.6208237 -34.14453125 80.45703125 C-47.72408447 79.32674739 -58.1171929 72.5325049 -66.91796875 62.484375 C-75.45921128 52.03565895 -77.42041493 39.33196211 -76.4296875 26.18359375 C-73.92557126 14.70388013 -67.05381505 3.92553949 -57.4296875 -2.81640625 C-38.867257 -14.69636177 -17.60351356 -13.16018297 0 0 Z " fill="#D72C6C" transform="translate(337.4296875,264.81640625)"></path><path d="M0 0 C11.89471886 11.54430161 19.51390182 24.9470062 20.04467773 41.71508789 C20.1673977 58.73954108 14.58221218 73.4055711 2.6875 85.9375 C-10.69804763 98.45451973 -26.24488805 102.15656072 -44.0859375 101.8984375 C-57.30094306 101.4315905 -70.06616165 95.34266965 -79.7890625 86.40234375 C-91.96840245 73.27059096 -98.21980667 57.31523859 -97.78125 39.42578125 C-96.38060425 23.93909586 -88.94627284 10.01179498 -77.4375 -0.375 C-54.22993088 -18.44430941 -22.95179849 -19.89155869 0 0 Z M-66.4375 7.625 C-67.13746094 8.10453125 -67.83742188 8.5840625 -68.55859375 9.078125 C-76.67441835 15.34297206 -82.18560866 25.74108282 -84.4375 35.625 C-85.78887444 50.5603201 -82.34603879 62.13687806 -73.6171875 74.125 C-65.67529131 83.23398488 -54.17646865 88.80438953 -42.234375 89.92578125 C-36.36046899 90.06598755 -30.99264085 89.53492072 -25.4375 87.625 C-24.64730469 87.36847656 -23.85710937 87.11195313 -23.04296875 86.84765625 C-11.63380084 82.76419062 -2.91322477 74.78737668 2.9140625 64.16015625 C7.68819459 53.83910091 8.36302683 41.06125657 5.69140625 30.02734375 C0.18441307 16.03416436 -9.75698161 6.93897048 -23.19140625 0.7890625 C-38.17281189 -4.58333086 -53.72430958 -1.28909011 -66.4375 7.625 Z " fill="#FEFAFC" transform="translate(345.4375,255.375)"></path><path d="M0 0 C5.53028069 3.97602473 10.57976258 8.233085 15.5 12.9375 C16.81686188 14.18188595 18.13456048 15.42538708 19.453125 16.66796875 C20.07123047 17.2511084 20.68933594 17.83424805 21.32617188 18.43505859 C23.83967343 20.78505057 26.42665816 23.04196205 29.03515625 25.28515625 C32.54416287 28.34768887 35.95751233 31.51667197 39.38671875 34.66796875 C41.13288894 36.22621031 42.92918291 37.72997867 44.76953125 39.17578125 C47 41 47 41 48 43 C48.58394161 50.24087591 48.58394161 50.24087591 46.125 53.4375 C43.19346769 55.59303847 40.83707196 56.64409638 37.12109375 56.60546875 C32.16115957 55.1896496 28.58046175 50.52389838 25 47 C23.67678814 45.82186619 22.34420916 44.65411898 21 43.5 C16.28297919 39.38918266 11.64395651 35.19295011 7 31 C0.68826249 25.30877124 -5.64034654 19.63766381 -12 14 C-8 9.33333333 -4 4.66666667 0 0 Z " fill="#D92F6E" transform="translate(374,347)"></path></svg>