<svg version="1.1" xmlns="http://www.w3.org/2000/svg" width="16px" height="16px" fill="currentColor" viewBox="0 0 512 512"><path d="M0 0 C168.96 0 337.92 0 512 0 C512 168.96 512 337.92 512 512 C343.04 512 174.08 512 0 512 C0 343.04 0 174.08 0 0 Z " fill="#4053D6" transform="translate(0,0)"></path><path d="M0 0 C9.5200275 5.0356327 15.93493585 12.05956321 19.37109375 22.3203125 C22.00690158 32.59522804 20.32091622 42.37226221 15.17578125 51.71875 C9.95283241 59.16787375 3.11750684 63.69005088 -5.50390625 66.3203125 C-6.49390625 66.3203125 -7.48390625 66.3203125 -8.50390625 66.3203125 C-8.50390625 96.6803125 -8.50390625 127.0403125 -8.50390625 158.3203125 C-6.52390625 158.6503125 -4.54390625 158.9803125 -2.50390625 159.3203125 C7.62652045 163.01271102 13.73092759 169.85087688 18.49609375 179.3203125 C21.98226151 187.71880757 21.67012146 197.22209905 18.43359375 205.6328125 C14.30706658 214.40601733 8.17433611 220.89666298 -0.50390625 225.3203125 C-3.96890625 226.3103125 -3.96890625 226.3103125 -7.50390625 227.3203125 C-7.83390625 246.7903125 -8.16390625 266.2603125 -8.50390625 286.3203125 C-5.86390625 286.6503125 -3.22390625 286.9803125 -0.50390625 287.3203125 C-0.15199219 286.67964844 0.19992188 286.03898437 0.5625 285.37890625 C9.12696922 270.37431396 20.83123773 265.49420272 36.65307617 259.53887939 C40.01449739 258.27129413 43.36552505 256.97657348 46.71875 255.6875 C48.1524692 255.13759802 49.58622637 254.58779504 51.02001953 254.03808594 C52.51207811 253.46558297 54.00410203 252.89298969 55.49609375 252.3203125 C56.2707196 252.02306274 57.04534546 251.72581299 57.84344482 251.41955566 C62.62822552 249.58089999 67.4061864 247.72586308 72.17721558 245.85180664 C73.70912364 245.25295427 75.24306036 244.6592627 76.77908325 244.07104492 C89.61416295 239.34986153 89.61416295 239.34986153 99.14575195 229.85546875 C101.07482256 224.80521702 100.86714471 220.15598096 100.7890625 214.796875 C100.78481766 213.69556244 100.78057281 212.59424988 100.77619934 211.45956421 C100.75945525 207.95456117 100.72180989 204.45014071 100.68359375 200.9453125 C100.66854144 198.56381041 100.65485399 196.18229927 100.64257812 193.80078125 C100.60956568 187.97376078 100.55940839 182.14707827 100.49609375 176.3203125 C99.87699631 176.11911301 99.25789886 175.91791351 98.62004089 175.71061707 C97.80852066 175.44412857 96.99700043 175.17764008 96.16088867 174.90307617 C94.95380501 174.50846443 94.95380501 174.50846443 93.72233582 174.10588074 C86.03150799 171.39203836 80.67616103 166.16850783 76.49609375 159.3203125 C76.08230469 158.67707031 75.66851562 158.03382813 75.2421875 157.37109375 C70.84084926 149.31986527 71.10321445 138.00473451 73.62109375 129.3203125 C77.71507729 119.27666129 85.54893689 112.22169114 95.3828125 108.08203125 C104.967952 104.62712884 114.17783558 105.76696621 123.4453125 109.70703125 C131.08020174 113.74443107 136.66090711 119.60373214 140.49609375 127.3203125 C140.85832031 128.04734375 141.22054687 128.774375 141.59375 129.5234375 C144.39722547 138.21299782 143.74593012 149.01193259 139.74609375 157.1328125 C136.72320579 162.42286642 133.41980633 167.03783745 128.30859375 170.4453125 C127.61378906 170.92226562 126.91898438 171.39921875 126.203125 171.890625 C123.74035272 173.19130993 121.46547121 174.05022608 118.8269043 174.90966797 C118.01601852 175.17520477 117.20513275 175.44074158 116.36967468 175.71432495 C115.75139297 175.91430084 115.13311127 176.11427673 114.49609375 176.3203125 C114.49244812 176.96209442 114.48880249 177.60387634 114.48504639 178.2651062 C114.44303588 184.98211075 114.37356114 191.69844378 114.28857422 198.41503906 C114.26045587 200.91724918 114.2391962 203.41954661 114.22509766 205.921875 C114.20354216 209.53170175 114.15682454 213.1404887 114.10546875 216.75 C114.10424011 217.85769745 114.10301147 218.9653949 114.10174561 220.10665894 C113.92105194 229.8232348 111.58039422 238.28572037 104.75512695 245.47265625 C95.48309573 253.05622183 82.40048083 256.88819277 71.34173584 261.11578369 C68.63127009 262.152832 65.92481991 263.19979203 63.21923828 264.24951172 C55.93452898 267.07427451 48.64443622 269.88454937 41.3440094 272.66844177 C38.51581746 273.75069753 35.69406643 274.84952908 32.87109375 275.9453125 C31.40965942 276.49215698 31.40965942 276.49215698 29.91870117 277.05004883 C23.00491486 279.75095085 17.64134526 282.99863275 13.55859375 289.3203125 C12.34729414 292.74045256 11.90929498 294.72617001 12.49609375 298.3203125 C13.70542491 299.98722843 14.91999578 301.65117932 16.18359375 303.27734375 C20.18797637 309.51035598 21.54802139 318.04049506 20.49609375 325.3203125 C18.02516237 336.27771653 13.38173988 344.00071508 3.99609375 350.2578125 C-5.13942986 355.59819978 -14.91935747 357.15142441 -25.3515625 354.6328125 C-35.14002774 351.00185167 -42.61272321 344.67708043 -47.50390625 335.4296875 C-51.30769379 327.01746507 -52.11472469 316.96615601 -49.06640625 308.1953125 C-44.52966338 298.24012762 -36.39766099 291.53739804 -26.69140625 287.0078125 C-24.50390625 286.3203125 -24.50390625 286.3203125 -21.50390625 286.3203125 C-21.83390625 266.8503125 -22.16390625 247.3803125 -22.50390625 227.3203125 C-25.80390625 226.0003125 -29.10390625 224.6803125 -32.50390625 223.3203125 C-41.48973644 217.50595179 -47.91475386 209.89510904 -50.50390625 199.3203125 C-51.45549521 190.78514214 -50.93757786 183.74055457 -46.50390625 176.3203125 C-45.92640625 175.2890625 -45.34890625 174.2578125 -44.75390625 173.1953125 C-38.87972648 165.68941612 -31.75900098 160.63408618 -22.50390625 158.3203125 C-22.17390625 127.9603125 -21.84390625 97.6003125 -21.50390625 66.3203125 C-23.48390625 65.9903125 -25.46390625 65.6603125 -27.50390625 65.3203125 C-37.48365286 61.32498439 -44.14091975 54.13462573 -48.59375 44.51953125 C-51.48454016 37.53448892 -51.73708699 28.86327368 -49.75 21.54296875 C-48.7971139 19.35693594 -47.74326563 17.35578815 -46.50390625 15.3203125 C-45.92640625 14.2890625 -45.34890625 13.2578125 -44.75390625 12.1953125 C-33.78090002 -1.82575102 -16.73370939 -7.11120488 0 0 Z " fill="#FBFBFE" transform="translate(127.50390625,79.6796875)"></path><path d="M0 0 C25.61649077 -0.0933695 51.23295611 -0.163943 76.84958267 -0.20724869 C88.74336682 -0.22788916 100.63704535 -0.2560382 112.53076172 -0.30175781 C122.89522646 -0.34158003 133.25961473 -0.367422 143.62415385 -0.37635398 C149.1140265 -0.38157653 154.60368033 -0.39388237 160.09348297 -0.42292023 C165.25789868 -0.45001635 170.42200487 -0.45845673 175.58648491 -0.45243073 C177.48441435 -0.45353356 179.38235385 -0.46152187 181.28022194 -0.4768219 C183.86723131 -0.4966592 186.45306477 -0.49196243 189.0401001 -0.48101807 C189.79496555 -0.49266943 190.54983099 -0.5043208 191.32757115 -0.51632524 C194.45460145 -0.4804501 196.70432467 -0.16064599 199.46574783 1.33968735 C201.97952041 5.69843693 201.54909398 10.10482282 201.50793457 15.04602051 C201.51417453 16.18592705 201.5204145 17.3258336 201.52684355 18.50028276 C201.54284648 22.33438094 201.53014012 26.16784981 201.51757812 30.00195312 C201.52079481 32.74479998 201.52997158 35.4876198 201.53881836 38.23045349 C201.55662143 44.91560161 201.55275572 51.60057027 201.5411678 58.28572547 C201.53214074 63.71801025 201.53090631 69.15024467 201.53526306 74.58253479 C201.53587599 75.35516372 201.53648893 76.12779266 201.53712043 76.92383459 C201.53839931 78.49332855 201.53969616 80.06282249 201.5410108 81.63231641 C201.55242183 96.35561163 201.53929472 111.07880729 201.51780933 125.80208617 C201.49993785 138.44021018 201.50304181 151.07818724 201.52148438 163.71630859 C201.54288189 178.38627464 201.55132314 193.0561534 201.53903532 207.72613287 C201.5377611 209.2899103 201.53650362 210.85368775 201.53526306 212.41746521 C201.53433741 213.57163116 201.53433741 213.57163116 201.53339306 214.74911359 C201.52993679 220.17598979 201.53577444 225.6028107 201.54518127 231.02967834 C201.55639024 237.64166251 201.55338463 244.25345668 201.5320583 250.86541903 C201.52153257 254.24021679 201.51959765 257.61443459 201.53065491 260.98927116 C201.54152949 264.6444936 201.52794331 268.29881501 201.50793457 271.95397949 C201.51685746 273.02517422 201.52578034 274.09636895 201.53497362 275.20002413 C201.46035602 282.19155786 201.46035602 282.19155786 199.4858408 285.65905094 C195.93743402 287.57318508 192.65013266 287.54913699 188.71861267 287.50120544 C187.87609988 287.50673984 187.03358709 287.51227424 186.16554362 287.51797634 C183.33784702 287.53160731 180.51102932 287.51660056 177.68334961 287.50170898 C175.65809249 287.50549124 173.63283796 287.51099051 171.60758972 287.51808167 C166.10355884 287.53206476 160.59983955 287.52084678 155.09582591 287.50437045 C149.34232878 287.49054143 143.58885014 287.4969775 137.83534241 287.50050354 C128.17362432 287.50320714 118.51203036 287.48971635 108.8503418 287.46655273 C97.67014701 287.43993459 86.49015971 287.43819775 75.30994409 287.4499411 C64.56605933 287.46070867 53.82224983 287.45454032 43.07837105 287.44038582 C38.50065907 287.43461791 33.92300203 287.434715 29.34528923 287.43945122 C23.9583846 287.44421275 18.57170809 287.43415351 13.18484688 287.41249657 C11.20427851 287.40691756 9.22368826 287.40647355 7.24311829 287.41144943 C4.54662434 287.41737591 1.85083408 287.40494824 -0.84559631 287.38768005 C-2.03069883 287.39669512 -2.03069883 287.39669512 -3.23974282 287.40589231 C-8.47805766 287.34458052 -8.47805766 287.34458052 -10.98710251 285.68813705 C-12.72752066 282.78748383 -12.38858412 279.59729264 -12.34057617 276.31567383 C-12.34101425 275.5349501 -12.34145233 274.75422638 -12.34190369 273.94984436 C-12.33981324 271.36865247 -12.3164706 268.7881097 -12.29296875 266.20703125 C-12.28737369 264.41770279 -12.28310317 262.62836973 -12.28010559 260.83903503 C-12.26864968 256.12890948 -12.23917611 251.41906134 -12.20599365 246.70904541 C-12.17530883 241.90307366 -12.16160365 237.09705709 -12.14648438 232.29101562 C-12.1143071 222.86055518 -12.06310175 213.43030066 -12 204 C-8.04 204 -4.08 204 0 204 C0 227.43 0 250.86 0 275 C62.04 275 124.08 275 188 275 C188 188.54 188 102.08 188 13 C125.96 13 63.92 13 0 13 C0 8.71 0 4.42 0 0 Z " fill="#FBFCFE" transform="translate(241,148)"></path><path d="M0 0 C1.44115425 0.00022659 1.44115425 0.00022659 2.91142273 0.00045776 C3.94588028 0.01078033 4.98033783 0.02110291 6.04614258 0.03173828 C7.63789055 0.03598312 7.63789055 0.03598312 9.26179504 0.04031372 C12.6548688 0.05151894 16.0476797 0.07662431 19.44067383 0.10205078 C21.73949814 0.11208013 24.03832659 0.12120606 26.3371582 0.12939453 C31.97593153 0.15145942 37.6145081 0.18599177 43.25317383 0.22705078 C43.25317383 4.51705078 43.25317383 8.80705078 43.25317383 13.22705078 C34.01317383 13.55705078 24.77317383 13.88705078 15.25317383 14.22705078 C24.82317383 23.79705078 34.39317383 33.36705078 44.25317383 43.22705078 C38.25317383 50.22705078 38.25317383 50.22705078 34.25317383 52.22705078 C33.77106445 51.73333984 33.28895508 51.23962891 32.79223633 50.73095703 C32.1605957 50.09029297 31.52895508 49.44962891 30.87817383 48.78955078 C30.25168945 48.15146484 29.62520508 47.51337891 28.97973633 46.85595703 C27.33594322 45.14822902 27.33594322 45.14822902 25.25317383 44.22705078 C25.25317383 43.56705078 25.25317383 42.90705078 25.25317383 42.22705078 C24.67341797 41.9732666 24.09366211 41.71948242 23.49633789 41.45800781 C21.00245159 40.08946464 19.35573547 38.55707309 17.36254883 36.53173828 C16.40300293 35.56469971 16.40300293 35.56469971 15.42407227 34.578125 C14.62517578 33.76102051 13.8262793 32.94391602 13.00317383 32.10205078 C10.44567383 29.50330078 7.88817383 26.90455078 5.25317383 24.22705078 C4.92317383 33.13705078 4.59317383 42.04705078 4.25317383 51.22705078 C0.29317383 51.22705078 -3.66682617 51.22705078 -7.74682617 51.22705078 C-7.82081945 44.28534294 -7.87535399 37.34386313 -7.91162109 30.40185547 C-7.92673517 28.03885908 -7.94722693 25.67589087 -7.97314453 23.31298828 C-8.00941246 19.92229269 -8.02652616 16.53196699 -8.03979492 13.14111328 C-8.05527878 12.07962067 -8.07076263 11.01812805 -8.0867157 9.92446899 C-8.08694229 8.94360321 -8.08716888 7.96273743 -8.08740234 6.95214844 C-8.09406418 6.08610992 -8.10072601 5.22007141 -8.10758972 4.32778931 C-7.98853775 3.63454559 -7.86948578 2.94130188 -7.74682617 2.22705078 C-4.52508368 0.07922245 -3.70345307 -0.0194407 0 0 Z " fill="#FBFCFE" transform="translate(165.746826171875,128.77294921875)"></path><path d="M0 0 C5.28671997 3.05672492 9.1153266 7.7281625 12.1875 12.9375 C13.89928133 20.73561493 12.75984441 27.5653279 8.75 34.5 C4.49588027 39.51227968 -1.04902621 42.94216577 -7.6328125 43.81640625 C-13.67310229 44.10271968 -18.3621999 43.14308082 -23.25 39.5 C-28.98504796 33.97987495 -32.52237752 29.44235395 -32.6875 21.3125 C-32.55868051 14.92877845 -31.50137105 10.35731359 -27.25 5.5 C-19.3943286 -1.00741256 -9.87708663 -4.38766862 0 0 Z " fill="#3C47C9" transform="translate(122.25,251.5)"></path><path d="M0 0 C5.50863019 3.06132474 8.89792531 7.42085061 11.6875 13 C11.83727039 15.24655587 11.90900174 17.49863768 11.9375 19.75 C11.96328125 20.96171875 11.9890625 22.1734375 12.015625 23.421875 C11.33073263 30.89046327 7.2055622 35.03163502 1.6875 39.6875 C-3.74918692 43.25532579 -8.92555899 43.88063773 -15.3125 43 C-22.69732553 40.66852058 -27.5027343 36.71980814 -31.3125 30 C-33.31204039 24.00137882 -33.56718158 16.4100267 -31.37109375 10.44140625 C-28.99374695 6.49903491 -26.17566798 3.54403745 -22.3125 1 C-21.44625 0.4225 -20.58 -0.155 -19.6875 -0.75 C-12.9535294 -3.24406319 -6.55412144 -2.9261236 0 0 Z " fill="#4256D7" transform="translate(245.3125,201)"></path><path d="M0 0 C5.55219806 3.21835665 9.71618434 7.95289383 12.97265625 13.4296875 C14.71236157 20.91042036 14.01107743 27.08972347 10.296875 33.84765625 C6.82450432 38.48546628 2.03550871 41.30457001 -3.40234375 43.1171875 C-11.20596793 43.97104666 -17.19659188 43.82496882 -23.52734375 38.90234375 C-28.12164256 34.52818843 -31.04755198 30.19046998 -31.60546875 23.78515625 C-31.74128918 16.59799165 -30.33919678 11.93945906 -26.21484375 5.9296875 C-19.15478887 -1.13036738 -9.66755982 -3.55263174 0 0 Z " fill="#373BBF" transform="translate(121.40234375,378.8828125)"></path><path d="M0 0 C6.46117793 2.84331047 9.97104971 6.9574259 13.13671875 13.1953125 C15.32686334 19.76574626 14.5835924 25.87823855 11.53515625 32.05078125 C8.44867534 36.78396008 4.32135314 40.07872159 -0.67578125 42.6328125 C-7.84602618 43.89814984 -14.61787957 44.28144941 -21.078125 40.52734375 C-26.05401167 36.81448302 -29.65323341 32.36655648 -30.86328125 26.1953125 C-31.45163248 19.85181649 -31.32855317 13.7191618 -27.86328125 8.1953125 C-19.90629423 -0.36985187 -11.60650005 -3.26185404 0 0 Z " fill="#4154D6" transform="translate(120.86328125,90.8046875)"></path><path d="M0 0 C4.85834353 0.70879516 8.57395923 1.96402124 13 4 C11.64582221 8.28206458 10.02948116 12.31798359 8.15625 16.3984375 C7.87499268 17.01390945 7.59373535 17.62938141 7.30395508 18.26350403 C6.37197137 20.30190225 5.43594624 22.33841856 4.5 24.375 C3.14414903 27.33647064 1.79065424 30.2990151 0.4375 33.26171875 C0.08224243 34.03894791 -0.27301514 34.81617706 -0.63903809 35.61695862 C-3.3676877 41.59419363 -6.06478622 47.58517219 -8.75 53.58203125 C-9.14626587 54.46628784 -9.54253174 55.35054443 -9.95080566 56.26159668 C-11.51387998 59.75014875 -13.0768144 63.23874886 -14.6340332 66.72991943 C-19.19187894 76.94648052 -23.89080522 87.04577443 -29 97 C-38.75 93.25 -38.75 93.25 -41 91 C-40.55309814 90.03102783 -40.10619629 89.06205566 -39.64575195 88.0637207 C-26.16495167 58.82439474 -12.91602038 29.49373844 0 0 Z " fill="#FAFBFE" transform="translate(349,250)"></path><path d="M0 0 C4.12043402 1.63949248 6.9481439 4.60750624 10.04296875 7.671875 C10.61203445 8.23191223 11.18110016 8.79194946 11.76741028 9.36895752 C12.96605965 10.55312938 14.16194277 11.74010701 15.35522461 12.9296875 C17.17959577 14.74214738 19.02177989 16.53510535 20.86523438 18.328125 C22.0297926 19.48321999 23.19324215 20.63943403 24.35546875 21.796875 C24.90647751 22.32835144 25.45748627 22.85982788 26.02519226 23.40740967 C29.35047396 26.77251016 30.95054919 29.20918879 31 34 C27.40763934 38.69372227 22.17297447 41.9208974 17.375 45.3125 C15.77073442 46.45819484 14.16656763 47.60402803 12.5625 48.75 C11.39654297 49.57951172 11.39654297 49.57951172 10.20703125 50.42578125 C7.24894319 52.53570955 4.31086661 54.67176393 1.375 56.8125 C0.51648438 57.43769531 -0.34203125 58.06289063 -1.2265625 58.70703125 C-1.81179688 59.13371094 -2.39703125 59.56039062 -3 60 C-5.93200474 57.14723863 -8.64315404 54.34920216 -11 51 C-9.61239278 47.69855879 -8.16893297 46.10295235 -5.2265625 44.08984375 C-4.4840625 43.57486328 -3.7415625 43.05988281 -2.9765625 42.52929688 C-2.20054687 42.00400391 -1.42453125 41.47871094 -0.625 40.9375 C0.90388775 39.88446573 2.43254112 38.83109108 3.9609375 37.77734375 C4.63946777 37.31577881 5.31799805 36.85421387 6.01708984 36.37866211 C8.04913703 34.9658364 10.02875929 33.49619318 12 32 C11.71125 31.4225 11.4225 30.845 11.125 30.25 C10.39553577 28.79107155 9.70503421 27.3117465 9.0625 25.8125 C8.06565448 23.65604893 8.06565448 23.65604893 5 23 C3.38671875 21.328125 3.38671875 21.328125 1.6875 19.25 C-1.29895915 15.71708237 -4.35818708 12.84239057 -8 10 C-7.44449305 6.40094092 -6.25112752 5.00090201 -3.4375 2.75 C-2.79683594 2.22921875 -2.15617187 1.7084375 -1.49609375 1.171875 C-1.00238281 0.78515625 -0.50867188 0.3984375 0 0 Z " fill="#FAFBFE" transform="translate(370,267)"></path><path d="M0 0 C3.67033927 3.27708863 5.69281189 6.71522208 8 11 C0.09257064 17.13485775 -7.86717819 23.16523004 -16 29 C-14.52040972 32.47794085 -12.56896551 34.60492072 -9.83203125 37.1875 C-8.61676758 38.35925781 -8.61676758 38.35925781 -7.37695312 39.5546875 C-5.66116982 41.1907581 -3.93975599 42.82094327 -2.21289062 44.4453125 C-1.40658203 45.22648437 -0.60027344 46.00765625 0.23046875 46.8125 C0.97707764 47.52019531 1.72368652 48.22789062 2.49291992 48.95703125 C4 51 4 51 3.84809875 52.92456055 C2.74066191 55.63464366 1.32108347 56.58527504 -1.0625 58.25 C-1.79597656 58.77078125 -2.52945312 59.2915625 -3.28515625 59.828125 C-3.85105469 60.21484375 -4.41695313 60.6015625 -5 61 C-9.14927638 56.99912951 -13.27837831 52.97887237 -17.39013672 48.93945312 C-18.79135316 47.56839478 -20.19790944 46.20277156 -21.60986328 44.84277344 C-23.63965314 42.88583318 -25.64937817 40.91009032 -27.65625 38.9296875 C-28.6077594 38.02462967 -28.6077594 38.02462967 -29.57849121 37.10128784 C-32.44256582 34.23944877 -33.8716178 32.81081271 -34.51904297 28.72192383 C-33.26758751 22.1591407 -25.5322637 18.33307775 -20.375 14.6875 C-18.77073442 13.54180516 -17.16656763 12.39597197 -15.5625 11.25 C-14.78519531 10.69699219 -14.00789063 10.14398438 -13.20703125 9.57421875 C-10.24894319 7.46429045 -7.31086661 5.32823607 -4.375 3.1875 C-3.51648438 2.56230469 -2.65796875 1.93710937 -1.7734375 1.29296875 C-1.18820312 0.86628906 -0.60296875 0.43960937 0 0 Z " fill="#FCFCFE" transform="translate(300,260)"></path></svg>