<svg version="1.1" xmlns="http://www.w3.org/2000/svg" width="16px" height="16px" fill="currentColor" viewBox="0 0 512 512"><path d="M0 0 C168.96 0 337.92 0 512 0 C512 168.96 512 337.92 512 512 C343.04 512 174.08 512 0 512 C0 343.04 0 174.08 0 0 Z " fill="#DD2C33" transform="translate(0,0)"></path><path d="M0 0 C1.81738726 -0.00807831 1.81738726 -0.00807831 3.67148942 -0.01631981 C7.02699754 -0.02814207 10.38200837 -0.02653237 13.73749673 -0.019153 C17.35929757 -0.01442157 20.98104521 -0.02693105 24.60282898 -0.03717041 C31.69575297 -0.0543652 38.7885884 -0.0551969 45.88152782 -0.04995751 C51.64790744 -0.04591527 57.4142609 -0.04736001 63.18063927 -0.05270576 C64.00151011 -0.05345419 64.82238095 -0.05420261 65.66812667 -0.05497371 C67.33577489 -0.0565052 69.0034231 -0.05804355 70.67107131 -0.05958868 C86.31013986 -0.07331657 101.94915839 -0.06787436 117.5882258 -0.05640347 C131.88900385 -0.04647426 146.18965246 -0.05940581 160.49041054 -0.08333766 C175.17968862 -0.10773413 189.86890642 -0.11733497 204.55820435 -0.11068493 C212.802974 -0.10719348 221.04764414 -0.10941969 229.29239845 -0.12693596 C236.31224367 -0.14166495 243.33191934 -0.14228451 250.35176126 -0.12486505 C253.93167017 -0.11635767 257.5112763 -0.11419864 261.09116936 -0.1295166 C264.97646156 -0.14593508 268.86128757 -0.13120464 272.74658203 -0.11352539 C273.87188538 -0.1231304 274.99718874 -0.1327354 276.15659219 -0.14263147 C284.07613677 -0.06852238 290.3061779 1.3556541 296.55204773 6.39549255 C297.45503601 7.44350037 297.45503601 7.44350037 298.37626648 8.51268005 C298.99114929 9.19588318 299.6060321 9.8790863 300.23954773 10.58299255 C306.21984918 19.77754595 306.62491506 28.63041051 306.51786804 39.30223083 C306.51673786 40.88989229 306.51737676 42.47755582 306.51963806 44.06521606 C306.52077947 48.34773137 306.49736379 52.62979289 306.46934223 56.91220331 C306.44423235 61.39781003 306.44197905 65.88342869 306.4372406 70.36909485 C306.42483887 78.85098564 306.39205545 87.33266869 306.35184264 95.81446826 C306.30703739 105.47591379 306.28511593 115.13736955 306.2650609 124.79889321 C306.22332015 144.66194098 306.15221134 164.52479006 306.06376648 184.38768005 C301.77376648 184.38768005 297.48376648 184.38768005 293.06376648 184.38768005 C293.06376648 152.70768005 293.06376648 121.02768005 293.06376648 88.38768005 C286.79376648 88.38768005 280.52376648 88.38768005 274.06376648 88.38768005 C274.06376648 109.50768005 274.06376648 130.62768005 274.06376648 152.38768005 C269.77376648 152.38768005 265.48376648 152.38768005 261.06376648 152.38768005 C261.06376648 119.05768005 261.06376648 85.72768005 261.06376648 51.38768005 C217.17376648 51.38768005 173.28376648 51.38768005 128.06376648 51.38768005 C128.39376648 87.02768005 128.72376648 122.66768005 129.06376648 159.38768005 C132.52876648 153.94268005 132.52876648 153.94268005 136.06376648 148.38768005 C143.02739341 139.04502043 152.71503713 130.65448071 164.06376648 127.38768005 C163.66544617 126.69803162 163.26712585 126.00838318 162.85673523 125.2978363 C155.96164404 113.06785703 153.0666673 102.87708553 156.24736023 88.86424255 C159.83611465 77.97778177 167.98646762 69.53955756 178.06376648 64.38768005 C186.38269743 60.50862798 196.1100376 59.93672342 204.93486023 62.5712738 C217.872976 67.53286315 225.87490793 73.93087212 232.06376648 86.38768005 C235.73909058 95.21549201 235.09974362 105.45386987 231.87626648 114.26268005 C229.79485536 119.1688634 227.42256782 123.26115269 224.06376648 127.38768005 C225.39021179 127.79373474 225.39021179 127.79373474 226.74345398 128.20799255 C234.90617796 131.10816037 241.4083865 136.366326 247.50126648 142.38768005 C247.99707214 142.87349548 248.49287781 143.35931091 249.00370789 143.85984802 C252.44835487 147.38676225 254.75991047 151.03050557 257.06376648 155.38768005 C255.44206269 156.39301672 253.81629411 157.39179913 252.18876648 158.38768005 C251.2838446 158.94455505 250.37892273 159.50143005 249.44657898 160.07518005 C247.06376648 161.38768005 247.06376648 161.38768005 245.06376648 161.38768005 C243.80204773 159.8837738 243.80204773 159.8837738 242.37626648 157.82518005 C236.64383734 149.9931624 230.55431301 145.07163155 222.06376648 140.38768005 C221.05314148 139.74830505 220.04251648 139.10893005 219.00126648 138.45018005 C213.94521313 136.6213948 209.06710297 137.71990122 204.06376648 139.38768005 C200.79694535 139.61568692 197.52523391 139.57283983 194.25126648 139.57518005 C193.36116882 139.58742615 192.47107117 139.59967224 191.55400085 139.61228943 C186.60171623 139.62330266 182.74172105 139.181964 178.06376648 137.38768005 C167.07084426 137.5990824 157.65686686 145.07450964 150.06376648 152.38768005 C140.5388897 163.49106749 136.49972137 176.02813117 135.06376648 190.38768005 C152.55376648 190.38768005 170.04376648 190.38768005 188.06376648 190.38768005 C188.06376648 194.67768005 188.06376648 198.96768005 188.06376648 203.38768005 C179.13638322 203.47805226 170.20930379 203.55143657 161.28156662 203.59492874 C157.13603978 203.61580293 152.99084213 203.6441169 148.84550476 203.68943787 C144.84491491 203.73290254 140.84464167 203.75681843 136.84383392 203.76718903 C135.3175737 203.77457937 133.7913308 203.78901117 132.26520538 203.81060028 C130.12704034 203.83964429 127.99018302 203.8436359 125.85185242 203.84178162 C124.63495728 203.85066406 123.41806213 203.85954651 122.16429138 203.86869812 C119.06376648 203.38768005 119.06376648 203.38768005 116.66789246 202.02452087 C114.09376096 197.79319795 114.54151129 193.60023652 114.60966492 188.74412537 C114.60918278 187.64339062 114.60870064 186.54265587 114.60820389 185.40856552 C114.61119051 181.8439836 114.64165581 178.28023738 114.67314148 174.71580505 C114.67902228 172.5157766 114.6831032 170.31574257 114.68534851 168.1157074 C114.7063239 159.95627963 114.76216874 151.79697164 114.81376648 143.63768005 C114.93751648 116.28893005 114.93751648 116.28893005 115.06376648 88.38768005 C70.84376648 88.38768005 26.62376648 88.38768005 -18.93623352 88.38768005 C-18.85373352 109.17768005 -18.77123352 129.96768005 -18.68623352 151.38768005 C-18.6704425 157.94514099 -18.65465149 164.50260193 -18.63838196 171.2587738 C-18.60515014 177.15173476 -18.60515014 177.15173476 -18.56666565 183.04466248 C-18.55207774 185.66372117 -18.54379997 188.28207474 -18.54469299 190.90110779 C-18.54561233 194.87472482 -18.514916 198.84778613 -18.48213196 202.8212738 C-18.48715603 203.98227097 -18.4921801 205.14326813 -18.49735641 206.33944702 C-18.39591156 214.19868233 -17.42662644 219.9060361 -11.74664402 225.57178116 C-8.16883347 227.88352253 -5.93528993 227.8944928 -1.69128418 227.90666199 C-0.97239039 227.91416324 -0.25349661 227.92166449 0.48718184 227.92939305 C2.89036517 227.94965477 5.29260363 227.94157102 7.69584656 227.93357849 C9.42070956 227.94231437 11.14556445 227.95280021 12.8704071 227.96490479 C17.54977825 227.99278367 22.2288852 227.99616905 26.90832734 227.9951849 C31.79977487 227.99831237 36.69110313 228.02392714 41.58248901 228.04716492 C50.84359636 228.08774111 60.10463326 228.10806944 69.36581582 228.12113881 C79.90992982 228.13700336 90.45392386 228.1754167 100.99796832 228.2157321 C122.68652815 228.29815322 144.37508236 228.35223152 166.06376648 228.38768005 C166.06376648 232.67768005 166.06376648 236.96768005 166.06376648 241.38768005 C143.38478847 241.45779067 120.70582835 241.51067833 98.02676392 241.54311657 C87.49625524 241.55857917 76.96581394 241.57965715 66.43534851 241.61399841 C57.25597907 241.64391927 48.07665844 241.66325947 38.89724159 241.66994554 C34.03773074 241.67385323 29.1783595 241.68302432 24.31889343 241.70487022 C19.74217062 241.72527777 15.16564453 241.73150522 10.58888054 241.7270031 C8.91194527 241.72782639 7.23500321 241.73376658 5.55810738 241.74529648 C-6.01739479 241.82096258 -15.00361773 241.44322069 -23.74155712 232.87300873 C-32.2687674 223.21649616 -31.66040614 211.2083768 -31.59907532 199.13182068 C-31.6075019 197.2086488 -31.61803292 195.28548518 -31.63049316 193.36233521 C-31.6574175 188.17010884 -31.65287359 182.97836543 -31.64079261 177.78610039 C-31.63363354 173.43975871 -31.64217928 169.09350479 -31.65069801 164.74716997 C-31.67061088 154.48940067 -31.66512483 144.23186465 -31.64302063 133.97410583 C-31.62065318 123.41519514 -31.63826929 112.85689576 -31.67606992 102.29804277 C-31.70736089 93.20804472 -31.7152028 84.11823532 -31.70411617 75.02819014 C-31.69764812 69.60974695 -31.69954063 64.19165637 -31.72344017 58.77325439 C-31.74477549 53.67737747 -31.73660614 48.58235952 -31.70634651 43.48653603 C-31.70004824 41.62423104 -31.70380898 39.76185853 -31.71875763 37.89960289 C-31.80358378 26.39356115 -31.32452178 16.3564905 -23.08764172 7.37110138 C-21.42943358 5.81881447 -19.86629492 4.58605834 -17.93623352 3.38768005 C-17.15310193 2.87626433 -16.36997034 2.36484861 -15.56310749 1.83793545 C-10.35855719 -0.2431755 -5.55651754 -0.02950093 0 0 Z " fill="#FEFBFB" transform="translate(107.93623352050781,89.61231994628906)"></path><path d="M0 0 C15.38198216 12.08432347 24.72057792 26.05668925 29.13671875 44.96875 C29.3982373 45.90569702 29.3982373 45.90569702 29.66503906 46.86157227 C33.7454912 65.09054865 28.44236388 84.33299189 19.13671875 99.96875 C16.68016005 103.51820656 14.02651751 106.76532967 11.13671875 109.96875 C10.5334375 110.66484375 9.93015625 111.3609375 9.30859375 112.078125 C-1.09710012 123.35824692 -18.48180487 132.31603216 -34.01049805 133.07348633 C-57.04689433 133.6824918 -75.41958246 129.60711975 -92.86328125 113.96875 C-108.18926923 99.12746947 -115.85119671 80.32132102 -116.23828125 59.15625 C-116.1706557 40.10573439 -108.15076816 21.58137933 -94.86328125 7.96875 C-69.20701493 -16.68059849 -29.35995076 -20.8283416 0 0 Z " fill="#DE2F36" transform="translate(404.86328125,289.03125)"></path><path d="M0 0 C1.00698323 -0.00384115 2.01396645 -0.00768229 3.05146432 -0.01163983 C4.16602998 -0.01077335 5.28059563 -0.00990687 6.428936 -0.00901413 C8.19536914 -0.01347081 8.19536914 -0.01347081 9.99748778 -0.01801753 C13.2764486 -0.02521311 16.55537757 -0.02787804 19.8343451 -0.028615 C23.36684271 -0.03046267 26.89932889 -0.0380086 30.43181992 -0.04475021 C38.16119511 -0.05834652 45.89056513 -0.06436042 53.61995029 -0.06876087 C58.4446238 -0.0715214 63.26929529 -0.07575843 68.09396744 -0.08026505 C81.44710922 -0.09245996 94.80024938 -0.10275847 108.15339661 -0.10614014 C109.00845664 -0.1063597 109.86351668 -0.10657927 110.74448763 -0.10680549 C111.60161864 -0.10702377 112.45874965 -0.10724204 113.34185433 -0.10746694 C115.07878765 -0.10791041 116.81572096 -0.10835697 118.55265427 -0.10880661 C119.41423707 -0.10902804 120.27581987 -0.10924947 121.16351125 -0.10947761 C135.12381871 -0.11342549 149.08407397 -0.1308782 163.04436126 -0.15416613 C177.37075285 -0.17787221 191.69711824 -0.19034167 206.02352977 -0.19150805 C214.06983961 -0.1924253 222.11608146 -0.19818978 230.16237259 -0.21632767 C237.01438403 -0.23171871 243.86630647 -0.23685508 250.7183319 -0.22858956 C254.21476625 -0.22467934 257.71102134 -0.22563055 261.2074337 -0.23964691 C264.99765059 -0.25229072 268.78740445 -0.24653032 272.57761765 -0.23606491 C273.68326041 -0.24412132 274.78890318 -0.25217772 275.92805028 -0.26047826 C281.44366825 -0.22475332 285.53409903 -0.06098173 290.25724411 3.13142776 C294.41493188 7.63558952 296.51416394 11.20594216 296.48429489 17.35896683 C296.48414383 18.3997438 296.48399277 19.44052078 296.48383713 20.51283646 C296.47351456 21.62962784 296.46319199 22.74641922 296.45255661 23.89705276 C296.44831177 25.61985458 296.44831177 25.61985458 296.44398117 27.37746048 C296.43278674 31.04555558 296.40768315 34.71340647 296.38224411 38.38142776 C296.37221337 40.86840341 296.36308769 43.35538287 296.35490036 45.84236526 C296.33284975 51.93881352 296.29832463 58.03507924 296.25724411 64.13142776 C289.98724411 64.13142776 283.71724411 64.13142776 277.25724411 64.13142776 C277.2198613 61.71185745 277.18247849 59.29228714 277.14396286 56.79939651 C277.09775159 54.45612418 277.04651668 52.11301186 276.99479294 49.7698555 C276.96153875 48.14137367 276.93350827 46.51277645 276.91080856 44.88411331 C276.87727054 42.54287416 276.82495826 40.2026929 276.76896286 37.86189651 C276.75937798 36.76955956 276.75937798 36.76955956 276.74959946 35.65515518 C276.67179857 31.835575 276.67179857 31.835575 275.11258411 28.43846226 C272.43069773 26.54914925 270.40250837 26.7567153 267.139431 26.75720596 C265.85924591 26.75019165 264.57906082 26.74317734 263.26008224 26.73595047 C261.83848034 26.74337839 260.41688 26.75110955 258.99528122 26.75911331 C257.50056327 26.75668579 256.00584694 26.75296685 254.5111351 26.74805069 C250.44923807 26.73863341 246.38758164 26.74807361 242.32570338 26.76138282 C238.0798658 26.77268398 233.83404029 26.7685909 229.58819199 26.76663589 C222.45854883 26.76575259 215.3290007 26.77684167 208.19938278 26.79524612 C199.94858003 26.81642243 191.69791642 26.81992213 183.447092 26.81368417 C175.5186586 26.80799616 167.59027437 26.81362898 159.66184807 26.82485771 C156.28348573 26.82951035 152.90515339 26.8303747 149.52678871 26.82827187 C145.55166713 26.82639281 141.57668787 26.83446317 137.60159874 26.85033226 C136.13985279 26.8545866 134.67809243 26.85541798 133.21634293 26.85264206 C131.22691325 26.84943632 129.23747523 26.85969729 127.24807358 26.87073135 C126.13291335 26.87278422 125.01775312 26.87483709 123.86880016 26.87695217 C121.0972943 26.86791336 121.0972943 26.86791336 119.25724411 29.13142776 C118.92724411 40.68142776 118.59724411 52.23142776 118.25724411 64.13142776 C74.03724411 64.13142776 29.81724411 64.13142776 -15.74275589 64.13142776 C-15.74275589 13.13142776 -15.74275589 13.13142776 -11.74275589 5.13142776 C-7.78067663 1.45235416 -5.3409676 0.00761814 0 0 Z " fill="#E4363B" transform="translate(104.74275588989258,101.86857223510742)"></path><path d="M0 0 C15.38198216 12.08432347 24.72057792 26.05668925 29.13671875 44.96875 C29.3982373 45.90569702 29.3982373 45.90569702 29.66503906 46.86157227 C33.7454912 65.09054865 28.44236388 84.33299189 19.13671875 99.96875 C16.68016005 103.51820656 14.02651751 106.76532967 11.13671875 109.96875 C10.5334375 110.66484375 9.93015625 111.3609375 9.30859375 112.078125 C-1.09710012 123.35824692 -18.48180487 132.31603216 -34.01049805 133.07348633 C-57.04689433 133.6824918 -75.41958246 129.60711975 -92.86328125 113.96875 C-108.18926923 99.12746947 -115.85119671 80.32132102 -116.23828125 59.15625 C-116.1706557 40.10573439 -108.15076816 21.58137933 -94.86328125 7.96875 C-69.20701493 -16.68059849 -29.35995076 -20.8283416 0 0 Z M-88.86328125 19.96875 C-100.35787645 34.8235863 -104.77151866 50.30320533 -102.86328125 68.96875 C-100.44035733 85.55703248 -91.85810186 99.21715596 -78.73046875 109.3984375 C-64.71711619 118.98652083 -49.56659692 123.22807803 -32.59375 120.4296875 C-29.62622421 119.73637596 -26.7598333 118.91381147 -23.86328125 117.96875 C-23.0125 117.70191406 -22.16171875 117.43507813 -21.28515625 117.16015625 C-4.98990944 111.39532837 5.56253311 98.89024475 13.13671875 83.96875 C18.73712811 71.93752576 19.53081388 54.03475164 15.51171875 41.34375 C14.76966171 39.53097398 13.9787601 37.7373008 13.13671875 35.96875 C12.73582031 35.06382812 12.33492188 34.15890625 11.921875 33.2265625 C4.34471692 17.72084192 -8.38654049 8.36298699 -24.0390625 1.9140625 C-47.13471221 -5.81643159 -72.81242964 2.26018748 -88.86328125 19.96875 Z " fill="#FEFAFA" transform="translate(404.86328125,289.03125)"></path><path d="M0 0 C6.94593055 4.37192649 12.10537641 9.1408282 14.09765625 17.3203125 C15.2469759 26.04419597 14.25439298 33.0903839 9.09765625 40.3203125 C3.9812199 46.47332557 -3.28217466 49.3115642 -11.03515625 50.703125 C-18.14506316 51.13490072 -25.16410901 47.94283126 -30.71484375 43.6953125 C-36.79414885 37.90412612 -39.1974067 31.5215192 -39.46484375 23.1953125 C-39.10101651 14.35814022 -36.33118039 8.84433604 -29.87109375 2.86328125 C-21.15644349 -3.96665298 -9.90562884 -5.14157867 0 0 Z " fill="#E5363C" transform="translate(314.90234375,166.6796875)"></path><path d="M0 0 C3.21043882 1.38188453 5.04936365 2.92421903 7.25 5.625 C8.03117187 6.57246094 8.03117187 6.57246094 8.828125 7.5390625 C9.40820312 8.26222656 9.40820312 8.26222656 10 9 C3.90944057 15.11370328 -2.18379617 21.22472172 -8.28049278 27.33230495 C-11.1111764 30.16821291 -13.94091991 33.00504597 -16.76855469 35.84399414 C-19.49608486 38.58236907 -22.22603218 41.31831241 -24.95769119 44.05256844 C-26.00078891 45.09751752 -27.04300434 46.14334807 -28.08433151 47.19006157 C-29.54007863 48.65304015 -30.99889718 50.11288722 -32.45849609 51.57202148 C-33.28900482 52.40475082 -34.11951355 53.23748016 -34.97518921 54.09544373 C-37.4060321 56.38191766 -38.46596084 56.92796572 -41.77832031 57.37475586 C-45.97684112 56.88637078 -47.78934064 54.96331682 -50.546875 52.00390625 C-51.292789 51.24170021 -51.292789 51.24170021 -52.05377197 50.46409607 C-53.63396513 48.8438278 -55.19219762 47.20428029 -56.75 45.5625 C-58.32625595 43.92883394 -59.90670969 42.29936355 -61.48907471 40.6716156 C-62.47077877 39.65878624 -63.44811409 38.64170036 -64.42059326 37.62001038 C-66.9391315 34.96016177 -66.9391315 34.96016177 -70 33 C-68.40907948 28.86360664 -65.39525082 25.76786752 -62 23 C-61.34 23 -60.68 23 -60 23 C-58.625 24.43359375 -58.625 24.43359375 -57 26.4375 C-53.33810325 30.78067987 -49.25254007 34.42927273 -44.94140625 38.1171875 C-44.30074219 38.73851562 -43.66007812 39.35984375 -43 40 C-43 40.66 -43 41.32 -43 42 C-37.27060924 37.11941901 -31.86424113 31.99967745 -26.5625 26.66015625 C-25.41418701 25.50972084 -25.41418701 25.50972084 -24.24267578 24.33604431 C-21.82606803 21.91389119 -19.41298274 19.48826388 -17 17.0625 C-15.35049314 15.40797107 -13.70075571 13.75367198 -12.05078125 12.09960938 C-8.03118629 8.06905798 -4.01446831 4.03565728 0 0 Z " fill="#FEFAFA" transform="translate(392,322)"></path><path d="M0 0 C27.39 0 54.78 0 83 0 C83 4.29 83 8.58 83 13 C55.61 13 28.22 13 0 13 C0 8.71 0 4.42 0 0 Z " fill="#FDF5F6" transform="translate(108,216)"></path><path d="M0 0 C16.5 0 33 0 50 0 C50 3.96 50 7.92 50 12 C33.5 12 17 12 0 12 C0 8.04 0 4.08 0 0 Z " fill="#FFFEFE" transform="translate(109,255)"></path><path d="M0 0 C8.58 0 17.16 0 26 0 C26 3.96 26 7.92 26 12 C17.42 12 8.84 12 0 12 C0 8.04 0 4.08 0 0 Z " fill="#FEFAFA" transform="translate(172,255)"></path></svg>