<svg version="1.1" xmlns="http://www.w3.org/2000/svg" width="16px" height="16px" fill="currentColor" viewBox="0 0 512 512"><path d="M0 0 C168.96 0 337.92 0 512 0 C512 168.96 512 337.92 512 512 C343.04 512 174.08 512 0 512 C0 343.04 0 174.08 0 0 Z " fill="#438A26" transform="translate(0,0)"></path><path d="M0 0 C6.67804795 5.02993997 11.27197789 10.05402897 14.4375 17.8359375 C14.4375 18.8259375 14.4375 19.8159375 14.4375 20.8359375 C15.02996521 20.82927567 15.62243042 20.82261383 16.23284912 20.81575012 C22.39703955 20.74939982 28.56112859 20.70413817 34.72558594 20.67114258 C37.0264091 20.65605255 39.32720349 20.63557823 41.62792969 20.60961914 C44.93431702 20.57324603 48.24032416 20.55621318 51.546875 20.54296875 C52.57617126 20.52748489 53.60546753 20.51200104 54.66595459 20.49604797 C55.62664856 20.49582138 56.58734253 20.49559479 57.57714844 20.49536133 C58.42098083 20.48869949 59.26481323 20.48203766 60.13421631 20.47517395 C63.13285044 20.94485031 64.3031601 21.66327348 66.4375 23.8359375 C66.92969131 26.96935558 66.92969131 26.96935558 66.91851807 30.91630554 C66.92193577 31.64165758 66.92535347 32.36700963 66.92887473 33.11434203 C66.93547769 35.55148015 66.91343908 37.98752346 66.89160156 40.42456055 C66.8904736 42.16882298 66.89110594 43.91308731 66.89337158 45.65734863 C66.89452166 50.39892085 66.87096489 55.14009027 66.84307575 59.88156867 C66.81811099 64.83433996 66.81572399 69.78711996 66.81097412 74.73994446 C66.79852984 84.12162358 66.76568859 93.50311678 66.72557616 102.88471395 C66.67255449 115.56005878 66.65092472 128.23545427 66.62756729 140.910882 C66.58992821 160.88603982 66.51024707 180.86080527 66.4375 200.8359375 C114.9475 200.8359375 163.4575 200.8359375 213.4375 200.8359375 C213.4375 204.7959375 213.4375 208.7559375 213.4375 212.8359375 C164.9275 212.8359375 116.4175 212.8359375 66.4375 212.8359375 C66.59588556 241.33279237 66.59588556 241.33279237 66.79785156 269.8293457 C66.81591797 275.33825684 66.81591797 275.33825684 66.8192749 277.91642761 C66.82542122 279.71883592 66.8394979 281.52122768 66.85980225 283.3235321 C66.88900997 286.05232354 66.89312665 288.78010928 66.89160156 291.5090332 C66.905994 292.31328641 66.92038643 293.11753962 66.935215 293.94616413 C66.89501743 299.30558904 66.89501743 299.30558904 64.71289062 301.83508301 C62.13484857 302.96906191 60.38939516 303.19871562 57.57714844 303.17651367 C56.61645447 303.17628708 55.6557605 303.17606049 54.66595459 303.17582703 C53.63665833 303.16034317 52.60736206 303.14485931 51.546875 303.12890625 C50.48712463 303.12466141 49.42737427 303.12041656 48.33551025 303.11604309 C44.95258113 303.0992578 41.57024891 303.06160505 38.1875 303.0234375 C35.89323777 303.00839051 33.5989662 302.99470213 31.3046875 302.98242188 C25.6820882 302.94935478 20.05983675 302.89915653 14.4375 302.8359375 C14.2936084 303.61155029 14.1497168 304.38716309 14.00146484 305.1862793 C12.15299239 313.87089903 6.23725947 319.51488959 -0.91015625 324.2734375 C-7.94128057 328.41548423 -15.56229334 328.86910705 -23.5625 327.8359375 C-32.77171648 324.736788 -40.28297775 319.48563759 -44.875 310.8359375 C-48.62032677 302.46119394 -50.1478474 294.70472354 -47.125 285.8984375 C-43.26398687 277.1395314 -36.15226465 270.01421669 -27.5625 265.8359375 C-19.55704531 263.1674526 -9.35973955 263.92019701 -1.7734375 267.51171875 C4.80872393 271.45403805 10.33642966 276.7154541 13.4375 283.8359375 C13.7675 285.8159375 14.0975 287.7959375 14.4375 289.8359375 C27.6375 289.8359375 40.8375 289.8359375 54.4375 289.8359375 C54.4375 264.4259375 54.4375 239.0159375 54.4375 212.8359375 C41.2375 212.8359375 28.0375 212.8359375 14.4375 212.8359375 C13.9425 215.8059375 13.9425 215.8059375 13.4375 218.8359375 C8.670865 228.43318918 1.38116724 234.25180605 -8.5625 237.8359375 C-16.88816389 240.26088815 -23.96368745 238.77651719 -31.5625 234.8359375 C-39.69199943 230.0853064 -45.12961669 222.78706224 -48.09375 213.859375 C-49.96141153 205.79730273 -48.37376551 197.44700792 -44.0859375 190.4140625 C-39.10305671 183.63370416 -32.03984473 176.72149519 -23.5625 174.8359375 C-13.51449915 173.59404975 -5.94731246 175.12454351 2.4375 180.8359375 C7.83775551 185.13843615 12.3047216 190.15697356 14.4375 196.8359375 C14.4375 198.1559375 14.4375 199.4759375 14.4375 200.8359375 C27.6375 200.8359375 40.8375 200.8359375 54.4375 200.8359375 C54.4375 175.0959375 54.4375 149.3559375 54.4375 122.8359375 C41.2375 122.8359375 28.0375 122.8359375 14.4375 122.8359375 C13.9425 125.8059375 13.9425 125.8059375 13.4375 128.8359375 C9.42722901 137.70161924 2.46333665 144.27138134 -6.4765625 147.9453125 C-14.61732071 150.29479715 -22.21566882 149.88445965 -29.9375 146.3984375 C-39.39065458 141.0290457 -45.14903916 133.20151462 -48.140625 122.83203125 C-49.96206833 114.21390585 -47.63737298 107.0978022 -43.27734375 99.63671875 C-37.914292 91.79381577 -29.8524984 86.73153582 -20.5625 84.8359375 C-11.42334523 83.6664722 -4.79933674 86.42975676 2.625 91.5859375 C7.71019721 95.58507463 11.93893123 100.83470223 14.4375 106.8359375 C14.4375 108.1559375 14.4375 109.4759375 14.4375 110.8359375 C27.6375 110.8359375 40.8375 110.8359375 54.4375 110.8359375 C54.4375 85.4259375 54.4375 60.0159375 54.4375 33.8359375 C41.2375 33.8359375 28.0375 33.8359375 14.4375 33.8359375 C14.1075 35.4859375 13.7775 37.1359375 13.4375 38.8359375 C9.51722254 47.54455386 3.46678134 53.709688 -5.1875 57.7734375 C-13.0058668 60.25967814 -22.51870261 60.25860215 -30 56.8359375 C-37.77652516 52.24248254 -43.19535646 46.18712024 -46.5625 37.8359375 C-46.91828125 37.04058594 -47.2740625 36.24523437 -47.640625 35.42578125 C-49.76183508 29.46661903 -49.35397964 22.9580573 -46.9375 17.1484375 C-42.34838509 8.16275795 -35.50783108 -0.01551072 -25.79296875 -3.68359375 C-16.54362599 -5.67600909 -8.03534054 -5.09383195 0 0 Z " fill="#FCFDFC" transform="translate(131.5625,94.1640625)"></path><path d="M0 0 C0.9476976 -0.00845947 1.8953952 -0.01691895 2.87181091 -0.02563477 C4.42879951 -0.01652573 4.42879951 -0.01652573 6.01724243 -0.00723267 C7.65908257 -0.0151181 7.65908257 -0.0151181 9.33409119 -0.02316284 C12.96250564 -0.0363966 16.59048344 -0.0276113 20.21890259 -0.01748657 C22.73612553 -0.01950662 25.25334791 -0.02241748 27.77056885 -0.02618408 C33.05156934 -0.03061226 38.33245583 -0.02444677 43.61343384 -0.01016235 C49.71365159 0.00614778 55.81356827 0.00088858 61.91377866 -0.01564157 C67.78549659 -0.03091432 73.65710038 -0.02927368 79.52882767 -0.02049637 C82.02550931 -0.01849388 84.52219862 -0.02095534 87.01887131 -0.02793503 C90.50942089 -0.03554972 93.99939218 -0.02394338 97.48989868 -0.00723267 C98.52384262 -0.01330536 99.55778656 -0.01937805 100.62306213 -0.02563477 C109.3361282 0.05168094 113.10380138 2.79250572 119.16714478 8.92221069 C119.99976082 9.75197922 119.99976082 9.75197922 120.84919739 10.59851074 C122.67265976 12.41828461 124.48884948 14.24512943 126.30484009 16.07235718 C127.57288732 17.3415971 128.84130508 18.61046694 130.1100769 19.87898254 C132.76258235 22.53304937 135.41170181 25.19043437 138.05825806 27.85043335 C141.45509513 31.26430305 144.85852132 34.67150951 148.26426315 38.07649326 C150.88101225 40.69351382 153.49515058 43.31312886 156.10840607 45.93363762 C157.36295689 47.19137523 158.61811837 48.44850402 159.87389374 49.705019 C161.62391879 51.45720502 163.37061556 53.21263962 165.11636353 54.96908569 C165.63790512 55.4901741 166.15944672 56.01126251 166.6967926 56.54814148 C171.41797413 61.31182543 171.53293787 64.22240182 171.53686523 70.75004578 C171.54343862 72.06426294 171.54343862 72.06426294 171.55014479 73.40502995 C171.56356296 76.35835012 171.56971839 79.31164044 171.57583618 82.26498413 C171.5837347 84.3753676 171.59200349 86.4857497 171.60061646 88.59613037 C171.62686292 95.5413178 171.6421455 102.48651135 171.65640259 109.43173218 C171.66176096 111.81953625 171.66713846 114.20734028 171.67253494 116.59514427 C171.69416643 126.52466083 171.71290476 136.45417574 171.72415733 146.38370991 C171.74040697 160.63065799 171.77360653 174.87733377 171.83055818 189.12417918 C171.86920821 199.13270747 171.88878411 209.14116278 171.8940779 219.14976376 C171.89773777 225.13206869 171.90982685 231.11408338 171.94218063 237.09630775 C171.97217463 242.72290294 171.97860396 248.34903094 171.96679688 253.97568893 C171.96657542 256.04251913 171.97493942 258.10937046 171.99245071 260.17612648 C172.01503705 262.99495341 172.00689651 265.81207115 171.9909668 268.63090515 C172.00484888 269.45153059 172.01873097 270.27215603 172.03303373 271.1176489 C171.97629149 275.18415506 171.67480741 276.96266484 169.28422832 280.38898754 C165.69350667 282.85432263 163.69089013 283.00489477 159.35475159 283.00241089 C158.65909782 283.00879971 157.96344406 283.01518853 157.24670988 283.02177095 C154.9216653 283.03700061 152.59833048 283.01657584 150.27334595 282.9961853 C148.60423722 282.99968712 146.93513184 283.00534638 145.26603699 283.01300049 C140.73706159 283.02724851 136.2086933 283.01018764 131.67977595 282.98671532 C126.94107585 282.96661177 122.20240108 282.97248556 117.46366882 282.974823 C109.50689679 282.97476943 101.55036223 282.9550112 93.59365845 282.92294312 C84.39191639 282.88603764 75.19048528 282.87726929 65.98867887 282.88424063 C57.1386507 282.89054324 48.28872925 282.87979664 39.43872261 282.86027527 C35.67125491 282.85209623 31.90384173 282.84939264 28.13636589 282.85096741 C23.70151065 282.85184561 19.26695145 282.83764769 14.8321743 282.81174088 C13.20356939 282.80457202 11.57493299 282.80249891 9.94631577 282.80585861 C7.72528646 282.80956682 5.50512431 282.79485014 3.28419495 282.77536011 C2.04073775 282.77163139 0.79728056 282.76790268 -0.48385715 282.76406097 C-3.857775 282.35151438 -5.28364934 281.82342567 -7.61703491 279.38095093 C-8.09805298 276.21086121 -8.09805298 276.21086121 -8.07113647 272.24740601 C-8.07172058 271.5252037 -8.07230469 270.8030014 -8.07290649 270.05891418 C-8.07012018 267.67228084 -8.03900465 265.28689724 -8.00765991 262.90048218 C-8.00019941 261.24567853 -7.99450558 259.59086605 -7.99050903 257.93605042 C-7.97523751 253.58090821 -7.93594305 249.22629975 -7.89169312 244.87136841 C-7.85077288 240.42737041 -7.83250499 235.98328615 -7.81234741 231.53915405 C-7.76944988 222.81950809 -7.7011807 214.10029591 -7.61703491 205.38095093 C-3.65703491 205.38095093 0.30296509 205.38095093 4.38296509 205.38095093 C4.38296509 226.50095093 4.38296509 247.62095093 4.38296509 269.38095093 C55.20296509 269.38095093 106.02296509 269.38095093 158.38296509 269.38095093 C158.38296509 204.04095093 158.38296509 138.70095093 158.38296509 71.38095093 C140.89296509 71.38095093 123.40296509 71.38095093 105.38296509 71.38095093 C100.38296509 66.38095093 100.38296509 66.38095093 99.7816925 63.76759338 C99.79279556 62.83715714 99.80389862 61.90672089 99.81533813 60.9480896 C99.81594238 59.87264893 99.81654663 58.79720825 99.81716919 57.68917847 C99.84274902 56.57039307 99.86832886 55.45160767 99.89468384 54.29891968 C99.89971924 53.26207031 99.90475464 52.22522095 99.90994263 51.1569519 C99.93604953 47.29383589 100.00585675 43.43111486 100.07046509 39.56845093 C100.17359009 30.92657593 100.27671509 22.28470093 100.38296509 13.38095093 C68.70296509 13.38095093 37.02296509 13.38095093 4.38296509 13.38095093 C4.38296509 63.87095093 4.38296509 114.36095093 4.38296509 166.38095093 C0.42296509 166.38095093 -3.53703491 166.38095093 -7.61703491 166.38095093 C-7.68705585 145.18022653 -7.73998913 123.97952114 -7.77247143 102.77870464 C-7.78795309 92.93522468 -7.80906739 83.09181648 -7.84335327 73.24838257 C-7.8732159 64.67078394 -7.89260045 56.09323727 -7.8993004 47.5155881 C-7.90321799 42.97201883 -7.91245172 38.42859824 -7.93422508 33.88507652 C-7.95454076 29.61123188 -7.96087873 25.3375976 -7.95635796 21.06370926 C-7.95718537 19.49271439 -7.96318032 17.92171271 -7.97465134 16.35075951 C-7.989519 14.21018702 -7.98601017 12.0704148 -7.97779846 9.92982483 C-7.98056384 8.73057216 -7.98332922 7.53131948 -7.9861784 6.29572582 C-7.61703491 3.38095093 -7.61703491 3.38095093 -6.38305187 1.49545574 C-4.1141245 0.06357228 -2.67870936 0.00367679 0 0 Z " fill="#FCFDFB" transform="translate(257.6170349121094,114.61904907226563)"></path><path d="M0 0 C4.3978016 3.05934024 8.45682941 7.16365882 10.875 12 C11.63933771 18.74120803 11.10492501 24.52804715 6.875 30 C1.61694966 34.85602637 -2.73142789 37.33581438 -10.0703125 37.21484375 C-15.76004213 36.61991004 -19.52460667 33.16887649 -23.125 29 C-26.40334156 24.39260105 -27.85031671 20.97002106 -27.578125 15.2734375 C-26.52923637 10.01091007 -23.43601875 6.24546782 -19.625 2.625 C-13.3254876 -1.46968306 -7.19184494 -2.30139038 0 0 Z " fill="#367E20" transform="translate(123.125,283)"></path><path d="M0 0 C6.53246739 2.84874518 10.83314897 6.4985729 13.53515625 13.1953125 C14.60268794 19.15195991 13.96277811 24.11297663 10.53515625 29.1953125 C6.86722139 33.34587037 3.27852968 36.70718123 -2.296875 37.69921875 C-8.68616058 37.82482725 -12.91155849 37.36141961 -17.7734375 33.02734375 C-21.82334244 28.64072616 -24.70449315 24.75655933 -25.02734375 18.6328125 C-24.60430955 12.15370971 -21.71702663 8.11378822 -16.96484375 3.8828125 C-11.60758194 -0.56127968 -6.93281284 -2.26332717 0 0 Z " fill="#2F771C" transform="translate(120.46484375,371.8046875)"></path><path d="M0 0 C3.6051863 3.40489818 6.66522309 7.36526224 7.30078125 12.3671875 C7.32559098 17.67647034 7.17330037 21.53754636 4 26 C-0.88224252 30.9025852 -4.5742145 34.08466182 -11.6875 34.375 C-18.13105838 34.29046352 -22.04902329 31.8922508 -26.5703125 27.4609375 C-30.40288439 22.83995082 -31.32434246 17.9240196 -31 12 C-29.01036477 5.25734728 -24.85457426 0.77714468 -19 -3 C-12.16118206 -5.59403439 -5.81973148 -3.98578248 0 0 Z " fill="#3D8424" transform="translate(127,196)"></path><path d="M0 0 C4.30139271 3.12828561 8.34976274 7.19952548 10.75 12 C11.30655007 17.9508046 11.31049385 22.99305552 7.75 28 C2.79618843 33.07175946 -1.42190817 36.49440297 -8.5625 37.4375 C-14.68805728 36.71073897 -19.12497449 33.5610589 -23.125 28.9375 C-26.44411762 24.34930799 -27.83147475 21.10951149 -27.69140625 15.44140625 C-26.62799543 9.55970923 -22.51194306 4.75284369 -18.0625 0.9375 C-12.59008302 -2.57700779 -5.96751221 -1.8361576 0 0 Z " fill="#458B28" transform="translate(123.25,104)"></path><path d="M0 0 C25.41 0 50.82 0 77 0 C77 4.29 77 8.58 77 13 C51.59 13 26.18 13 0 13 C0 8.71 0 4.42 0 0 Z " fill="#FAFCFA" transform="translate(282,211)"></path><path d="M0 0 C7.87700649 6.75171985 7.87700649 6.75171985 10.45678711 9.32739258 C11.0368602 9.90431351 11.61693329 10.48123444 12.21458435 11.07563782 C12.81279495 11.67587265 13.41100555 12.27610748 14.02734375 12.89453125 C14.66112442 13.52735519 15.29490509 14.16017914 15.94789124 14.81217957 C17.27255971 16.1361729 18.59598778 17.46140836 19.91821289 18.7878418 C21.95279758 20.82783827 23.99273772 22.86237175 26.03320312 24.89648438 C27.32323791 26.187179 28.61296297 27.47818329 29.90234375 28.76953125 C30.82091408 29.68506523 30.82091408 29.68506523 31.75804138 30.61909485 C36 34.88501609 36 34.88501609 36 36 C24.12 36 12.24 36 0 36 C0 24.12 0 12.24 0 0 Z " fill="#5B9D38" transform="translate(371,137)"></path><path d="M0 0 C14.85 0 29.7 0 45 0 C45 4.29 45 8.58 45 13 C30.15 13 15.3 13 0 13 C0 8.71 0 4.42 0 0 Z " fill="#F7FAF6" transform="translate(358,294)"></path><path d="M0 0 C14.85 0 29.7 0 45 0 C45 4.29 45 8.58 45 13 C30.15 13 15.3 13 0 13 C0 8.71 0 4.42 0 0 Z " fill="#F9FBF8" transform="translate(281,243)"></path><path d="M0 0 C8.58 0 17.16 0 26 0 C26 4.29 26 8.58 26 13 C17.42 13 8.84 13 0 13 C0 8.71 0 4.42 0 0 Z " fill="#F8FAF7" transform="translate(377,243)"></path><path d="M0 0 C8.25 0 16.5 0 25 0 C25 4.29 25 8.58 25 13 C16.75 13 8.5 13 0 13 C0 8.71 0 4.42 0 0 Z " fill="#F7FAF6" transform="translate(377,211)"></path></svg>