<svg version="1.1" xmlns="http://www.w3.org/2000/svg" width="16px" height="16px" fill="currentColor" viewBox="0 0 512 512"><path d="M0 0 C168.96 0 337.92 0 512 0 C512 168.96 512 337.92 512 512 C343.04 512 174.08 512 0 512 C0 343.04 0 174.08 0 0 Z " fill="#E3740D" transform="translate(0,0)"></path><path d="M0 0 C7.24154003 4.78435679 12.0103722 11.73995156 14.640625 20.015625 C16.17245874 28.47401128 15.07896539 36.43101074 11 44 C4.90005259 52.36093178 -0.67116527 57.27852755 -11 59 C-11 97.28 -11 135.56 -11 175 C1.54 175 14.08 175 27 175 C27 164.11 27 153.22 27 142 C25.02 141.67 23.04 141.34 21 141 C13.32926805 137.36581228 7.45018571 131.31018895 3.90234375 123.62109375 C1.19988463 115.79024709 0.42672029 107.02489753 3.625 99.25 C4.37461309 97.81063876 5.16695942 96.39273973 6 95 C6.4125 94.30003906 6.825 93.60007812 7.25 92.87890625 C11.92049688 85.85989248 19.09260635 81.66843934 27 79 C37.34929086 77.94805414 45.66171904 79.81817101 54 86 C60.92174873 91.95592332 65.21994181 99.3589641 66.2890625 108.4609375 C66.78387926 117.54994003 63.8411804 125.79682421 58.1875 132.9375 C53.27830665 138.11171407 47.69872742 140.81595476 41 143 C40.98541748 144.25659424 40.97083496 145.51318848 40.95581055 146.80786133 C40.89788396 151.46537892 40.82065089 156.12241016 40.73754883 160.77954102 C40.7042729 162.79606235 40.67624932 164.81267742 40.65356445 166.8293457 C40.62006744 169.726481 40.56775456 172.62275518 40.51171875 175.51953125 C40.50532883 176.42274612 40.4989389 177.325961 40.49235535 178.25654602 C40.46266411 179.5175135 40.46266411 179.5175135 40.43237305 180.80395508 C40.41571846 181.91315056 40.41571846 181.91315056 40.39872742 183.04475403 C39.87527066 185.61163724 39.12741549 186.48643421 37 188 C34.81697083 188.36076355 34.81697083 188.36076355 32.25317383 188.34057617 C31.29240433 188.34034958 30.33163483 188.34012299 29.3417511 188.33988953 C28.30729355 188.32440567 27.272836 188.30892181 26.20703125 188.29296875 C25.14586594 188.28872391 24.08470062 188.28447906 22.99137878 188.28010559 C19.59816235 188.26329706 16.20553728 188.22564019 12.8125 188.1875 C10.51368044 188.172456 8.21485159 188.15876711 5.91601562 188.14648438 C0.27693198 188.11593679 -5.36087117 188.05721777 -11 188 C-11 200.87 -11 213.74 -11 227 C-15.29 227 -19.58 227 -24 227 C-24 203.57 -24 180.14 -24 156 C-41.26245775 156.15824055 -41.26245775 156.15824055 -58.52441406 156.36035156 C-60.68814304 156.37203374 -62.85188079 156.38222668 -65.015625 156.390625 C-66.13952637 156.41108887 -67.26342773 156.43155273 -68.42138672 156.45263672 C-70.034729 156.45336182 -70.034729 156.45336182 -71.68066406 156.45410156 C-72.61332092 156.46298401 -73.54597778 156.47186646 -74.50689697 156.48101807 C-77.77035933 155.85136725 -78.95781264 154.56724985 -81 152 C-81.45410156 149.43457031 -81.45410156 149.43457031 -81.390625 146.578125 C-81.37128906 145.04091797 -81.37128906 145.04091797 -81.3515625 143.47265625 C-81.31804687 142.40917969 -81.28453125 141.34570312 -81.25 140.25 C-81.23195312 139.17105469 -81.21390625 138.09210938 -81.1953125 136.98046875 C-81.14821415 134.31941212 -81.082456 131.66015746 -81 129 C-82.06089844 128.88785156 -83.12179688 128.77570313 -84.21484375 128.66015625 C-90.9636775 127.48311507 -96.02076207 123.57963291 -100.3125 118.3125 C-105.53522167 110.67481511 -108.21436317 102.23515693 -107 93 C-105.04277626 83.29475831 -99.04762919 75.61054758 -91 70 C-83.50612144 65.89200661 -74.7730062 64.53468038 -66.4453125 66.6484375 C-57.75457877 69.81608811 -50.70016861 74.89541308 -45.97265625 82.91015625 C-42.17589113 91.06786445 -41.61636126 99.56841352 -43.83984375 108.296875 C-47.38080123 117.69173862 -53.09200903 124.06889689 -62.140625 128.40625 C-64 129 -64 129 -68 129 C-68 133.62 -68 138.24 -68 143 C-53.48 143 -38.96 143 -24 143 C-24 115.28 -24 87.56 -24 59 C-25.65 58.67 -27.3 58.34 -29 58 C-37.84410171 54.01873235 -44.29781811 47.87800398 -47.9375 38.8125 C-50.66054786 28.91990842 -49.97175392 19.62720761 -44.8984375 10.6953125 C-34.56915089 -3.96972404 -16.02842797 -9.53195009 0 0 Z " fill="#FEFBF9" transform="translate(270,183)"></path><path d="M0 0 C12.73695619 10.17654592 21.65074843 21.56794155 29.29296875 35.83203125 C32.61303312 35.15572184 35.29908049 33.90199704 38.29296875 32.33203125 C46.8865776 27.82562661 56.46858948 27.40630504 65.8515625 29.703125 C79.7270026 34.68782374 88.02170829 43.3353533 94.2578125 56.44921875 C96.68401375 62.03405937 97.54110323 66.75273657 97.29296875 72.83203125 C98.15664063 72.95320313 99.0203125 73.074375 99.91015625 73.19921875 C116.78864661 76.35662688 131.73010769 86.03351912 141.4375 99.984375 C151.11803663 114.84145122 153.81669416 132.43429999 150.4140625 149.78125 C146.68902647 166.25855909 139.04957583 179.84963014 124.48046875 189.14453125 C111.03177851 196.59725912 98.49378074 199.15545278 83.29296875 198.83203125 C83.29296875 194.54203125 83.29296875 190.25203125 83.29296875 185.83203125 C84.44152344 185.74566406 85.59007812 185.65929687 86.7734375 185.5703125 C102.09501742 184.25282545 116.02552211 180.62640191 127.04296875 169.20703125 C134.49771638 160.19560778 137.68377134 148.07523922 137.60546875 136.58203125 C137.6012793 135.74373779 137.59708984 134.90544434 137.59277344 134.04174805 C137.47578457 127.60300434 136.67425745 121.85772701 134.29296875 115.83203125 C133.91011719 114.79949219 133.91011719 114.79949219 133.51953125 113.74609375 C127.86133814 100.61285654 116.30604187 93.72141043 103.66796875 88.58203125 C99.68319463 87.00102373 95.74673833 85.59121895 91.54296875 84.70703125 C88.29296875 83.83203125 88.29296875 83.83203125 86.67578125 82.25390625 C84.8386732 79.03637238 84.43466607 75.81674786 83.91796875 72.20703125 C82.39276956 63.02150351 79.77154947 54.91924811 72.29296875 48.83203125 C64.40567427 43.29515053 58.00722696 41.80064087 48.29296875 42.83203125 C42.32596516 44.66145642 38.28251581 47.63713332 34.10546875 52.20703125 C31.3400409 55.12857196 30.72933941 55.75807012 26.60546875 56.45703125 C21.49260071 53.94883183 20.41659755 49.92738341 18.29296875 44.83203125 C8.76801745 23.25994528 -7.21406987 8.29410339 -29.046875 -0.515625 C-47.80467673 -7.11515423 -70.79229743 -5.86061646 -88.8984375 2.3203125 C-93.88650112 5.0051256 -98.2931066 8.29952499 -102.70703125 11.83203125 C-103.77050781 12.63060547 -103.77050781 12.63060547 -104.85546875 13.4453125 C-117.87517384 23.81476142 -127.6244211 42.46603293 -129.70703125 58.83203125 C-129.77167672 60.65700921 -129.81651451 62.48273675 -129.84765625 64.30859375 C-129.86699219 65.30890625 -129.88632813 66.30921875 -129.90625 67.33984375 C-129.94022823 69.42558415 -129.95834295 71.51164071 -129.9609375 73.59765625 C-130.14709664 81.18119189 -130.14709664 81.18119189 -132.96875 84.4609375 C-135.4578766 85.70727621 -137.56318984 86.54464847 -140.26953125 87.14453125 C-150.50417623 89.98155653 -161.11704193 96.20078064 -166.70410156 105.48974609 C-171.97032413 114.98675519 -173.90253447 122.19391818 -173.95703125 132.95703125 C-173.97765625 133.9521875 -173.99828125 134.94734375 -174.01953125 135.97265625 C-174.09078563 149.61786997 -169.259553 160.72635463 -160.00390625 170.6953125 C-151.614806 178.49945848 -139.97367842 184.56869889 -128.37890625 185.1484375 C-127.5796875 185.19033203 -126.78046875 185.23222656 -125.95703125 185.27539062 C-125.13203125 185.31470703 -124.30703125 185.35402344 -123.45703125 185.39453125 C-122.19632813 185.45930664 -122.19632813 185.45930664 -120.91015625 185.52539062 C-118.84262454 185.63111668 -116.77484844 185.7320442 -114.70703125 185.83203125 C-114.70703125 190.12203125 -114.70703125 194.41203125 -114.70703125 198.83203125 C-135.64931001 199.46029961 -152.92849279 195.514095 -168.70703125 180.83203125 C-179.94638065 170.20472563 -187.47375057 155.78682278 -188.10546875 140.1484375 C-188.11827363 138.23049558 -188.11010812 136.3123104 -188.08203125 134.39453125 C-188.07187988 133.38608154 -188.06172852 132.37763184 -188.05126953 131.33862305 C-187.6944274 114.2171164 -181.93265579 100.9056498 -169.70703125 88.83203125 C-169.17722656 88.2803125 -168.64742187 87.72859375 -168.1015625 87.16015625 C-161.92421002 81.25276519 -152.76001744 76.51635998 -144.70703125 73.83203125 C-144.6090625 72.56230469 -144.51109375 71.29257813 -144.41015625 69.984375 C-142.40943491 46.07143608 -135.3310327 27.16069177 -119.70703125 8.83203125 C-119.13597656 8.15914062 -118.56492187 7.48625 -117.9765625 6.79296875 C-87.5048038 -26.16167399 -34.43547155 -25.5526196 0 0 Z " fill="#FEFCF9" transform="translate(277.70703125,127.16796875)"></path><path d="M0 0 C4.71074129 3.17701156 8.10858236 6.74883868 10.6875 11.8125 C11.55532678 17.06655208 11.81856657 22.45153579 9.48046875 27.33203125 C6.29619878 31.677149 2.86659163 35.08613612 -2.3125 36.8125 C-9.76798306 37.6968591 -15.42175867 37.33470923 -21.46484375 32.640625 C-25.84013331 28.31158586 -27.50017955 23.92207338 -27.875 17.8125 C-27.58890419 11.17099016 -24.51323263 6.85220342 -19.75 2.4375 C-13.36970423 -1.81603051 -7.3355013 -2.62970801 0 0 Z " fill="#DE7013" transform="translate(203.3125,263.1875)"></path><path d="M0 0 C5.29305155 3.07596203 9.72661155 7.17202216 11.6953125 13.078125 C12.30024846 19.08095109 11.6833855 23.72020099 8.6953125 29.078125 C4.88164367 33.61329875 1.13028076 36.59870458 -4.8515625 37.43359375 C-10.72846913 37.7339329 -14.84049555 37.0461487 -19.6484375 33.578125 C-23.57637449 30.0207481 -25.98159525 25.93518362 -26.578125 20.66015625 C-26.8297479 13.79859335 -26.05501796 9.19921295 -21.3046875 4.078125 C-15.3147182 -1.47818137 -7.70244445 -3.08097778 0 0 Z " fill="#E4760F" transform="translate(311.3046875,275.921875)"></path><path d="M0 0 C5.03311602 2.17879691 8.04281527 5.54831789 10.62890625 10.33203125 C12.47042998 15.85660243 12.44589175 21.24208786 10.00390625 26.58203125 C7.36221281 31.26800337 3.99782503 33.98750978 -0.68359375 36.64453125 C-5.87724013 37.97313846 -10.5723169 37.98927664 -15.62109375 36.14453125 C-20.71800246 32.78520506 -24.32702941 29.14147727 -26.37109375 23.33203125 C-27.09885063 17.46560081 -27.22023689 11.89642452 -23.74609375 6.90234375 C-17.02001092 -0.77914857 -10.01607472 -2.82166191 0 0 Z " fill="#E5790F" transform="translate(260.37109375,192.66796875)"></path></svg>