<svg version="1.1" xmlns="http://www.w3.org/2000/svg" width="16px" height="16px" fill="currentColor" viewBox="0 0 512 512"><path d="M0 0 C168.96 0 337.92 0 512 0 C512 168.96 512 337.92 512 512 C343.04 512 174.08 512 0 512 C0 343.04 0 174.08 0 0 Z " fill="#438926" transform="translate(0,0)"></path><path d="M0 0 C1.22106445 0.48428467 2.44212891 0.96856934 3.70019531 1.4675293 C5.32609697 2.10744947 6.95207774 2.74716864 8.578125 3.38671875 C9.78106201 3.86473938 9.78106201 3.86473938 11.00830078 4.35241699 C48.65925518 19.11919039 104.85712708 18.40766487 142.19140625 2.171875 C145 1 145 1 147 1 C147.16354652 20.45381193 147.28697304 39.90748429 147.3626852 59.3618412 C147.39877474 68.39494436 147.44797403 77.42762029 147.52807617 86.46044922 C147.59786299 94.33381097 147.64301133 102.20686332 147.65861946 110.08052576 C147.66774298 114.24948388 147.68917112 118.41755691 147.7401104 122.58623123 C147.78768634 126.51152899 147.80226917 130.4355787 147.79175377 134.36113739 C147.79367687 135.80031243 147.80756712 137.23952991 147.83443832 138.67845535 C148.02684496 149.51473515 148.02684496 149.51473515 145.5068531 153.15974045 C124.01991003 172.17828217 80.56762363 169.19128635 54.25390625 167.7265625 C40.19050222 166.71655557 26.18033092 164.03510137 12.88671875 159.2734375 C11.76656372 158.87390869 11.76656372 158.87390869 10.6237793 158.46630859 C6.4051446 156.10870926 2.89009257 153.96438252 0 150 C-1.15840618 145.16638399 -1.01389126 140.37463537 -0.90820312 135.43579102 C-0.90594428 133.95694604 -0.90721762 132.4780921 -0.91174316 130.99925232 C-0.91403228 126.99900139 -0.86710719 123.0006818 -0.8111515 119.00087857 C-0.76103263 114.81562252 -0.75643324 110.6303188 -0.74694824 106.44480896 C-0.72211457 98.52560618 -0.65650918 90.60729026 -0.57615232 82.68847746 C-0.48663408 73.67047447 -0.4427225 64.65242841 -0.40258884 55.6340915 C-0.3190394 37.08889212 -0.17838814 18.54451744 0 0 Z " fill="#418825" transform="translate(179,191)"></path><path d="M0 0 C1.49247757 0.00356506 1.49247757 0.00356506 3.0151062 0.00720215 C28.21420793 0.10102443 62.19571228 0.4010932 81.5625 19.125 C85.83296832 23.73666553 86.56372589 27.34687603 86.57992554 33.63571167 C86.58445665 34.36176829 86.58898776 35.08782492 86.59365618 35.83588326 C86.60631902 38.26939698 86.60467862 40.70268744 86.60302734 43.13623047 C86.60901141 44.88076058 86.61581668 46.62528804 86.62338257 48.36981201 C86.64106191 53.10951041 86.64573876 57.84913662 86.64701414 62.5888648 C86.64891284 66.5451503 86.65627003 70.50141897 86.66335833 74.45769799 C86.67964715 83.79163155 86.68452682 93.12552652 86.68310547 102.45947266 C86.68190381 112.08889747 86.70300935 121.71809824 86.7345928 131.34746635 C86.76074117 139.61424975 86.77147337 147.88095991 86.77019465 156.14778435 C86.7696846 161.08543847 86.77539138 166.0228935 86.79655075 170.96050644 C86.81590896 175.60465306 86.81607421 180.24841017 86.80151749 184.8925705 C86.7994253 186.59614505 86.80415469 188.29974384 86.8162384 190.00327682 C86.83167961 192.33108286 86.82239157 194.6575439 86.80697632 196.98532104 C86.80806585 198.28722822 86.80915539 199.5891354 86.81027794 200.93049431 C85.87573463 207.51465254 81.53608547 211.6825066 76.61328125 215.77734375 C55.7076021 230.86208677 25.09261734 230.67182254 0.5 230.6875 C-0.92939407 230.68851212 -0.92939407 230.68851212 -2.38766479 230.68954468 C-28.09480177 230.66066844 -60.67062703 230.61374812 -80.8125 211.9375 C-85.77777365 206.89504593 -87.06187849 200.97088125 -87.07518005 194.11976624 C-87.08056559 193.41705878 -87.08595113 192.71435133 -87.09149987 191.99034971 C-87.10572025 189.65362197 -87.09869073 187.31746547 -87.09155273 184.98071289 C-87.09725941 183.29809619 -87.10422483 181.61548335 -87.11235046 179.93287659 C-87.13026395 175.37499205 -87.12911692 170.81730022 -87.12340808 166.25939107 C-87.12031366 162.44977165 -87.12641148 158.6401891 -87.13244683 154.83057493 C-87.14648444 145.84120158 -87.14493706 136.85192327 -87.13354492 127.86254883 C-87.1220637 118.59833352 -87.13614117 109.33440771 -87.1629414 100.07023054 C-87.18511426 92.10652763 -87.19173222 84.14291548 -87.18586498 76.1791839 C-87.18249809 71.42707951 -87.18489272 66.67516069 -87.20211601 61.92308235 C-87.21760842 57.45369195 -87.21360425 52.9847297 -87.19481087 48.51535606 C-87.19113136 46.87874049 -87.19421482 45.24209304 -87.20469666 43.6055069 C-87.26163286 33.97790988 -87.06777405 26.88076942 -80.8203125 19.1171875 C-60.16454075 0.55110472 -26.31247991 -0.1667881 0 0 Z M-73.6875 50.4375 C-73.87446852 69.87399955 -74.01549735 89.31031637 -74.10199738 108.74752903 C-74.14323047 117.77282859 -74.19943424 126.79756908 -74.29101562 135.82250977 C-74.37081006 143.68965609 -74.42237892 151.55639751 -74.44020796 159.42393726 C-74.45062869 163.5891352 -74.47507616 167.7531749 -74.53334045 171.91800117 C-74.58777454 175.84094056 -74.60436748 179.76224852 -74.59236145 183.68552971 C-74.59455663 185.12269342 -74.61039641 186.55991344 -74.6411438 187.99674988 C-74.96856578 195.85444982 -74.96856578 195.85444982 -71.95063782 202.83175468 C-51.31831705 221.34390121 -11.23115686 219.33586559 14.3125 218.4375 C20.69247185 218.083486 26.99172424 217.35544902 33.3125 216.4375 C34.034375 216.34098145 34.75625 216.24446289 35.5 216.14501953 C43.57737083 215.04700193 51.25758441 213.39095348 58.9375 210.625 C59.57647217 210.40102539 60.21544434 210.17705078 60.8737793 209.94628906 C65.73909403 208.06658122 70.30058247 205.81328333 73.3125 201.4375 C74.34194285 196.64159805 74.19830373 191.86652028 74.10717773 186.98681641 C74.10520182 185.50811864 74.10631429 184.029414 74.11027527 182.55072021 C74.11228039 178.54646584 74.07118353 174.54368497 74.02225757 170.53977251 C73.97844085 166.35181724 73.97438197 162.16382661 73.96607971 157.97567749 C73.94433952 150.04945868 73.88691949 142.12391727 73.81663328 134.1979965 C73.7383389 125.17273198 73.69989061 116.14743478 73.66476524 107.1219151 C73.591635 88.56005963 73.46854354 69.99883431 73.3125 51.4375 C71.87437948 51.91496647 70.43642276 52.39292631 68.99853516 52.87109375 C67.79736557 53.27026001 67.79736557 53.27026001 66.57192993 53.67749023 C64.82033182 54.26667942 63.07641449 54.87872737 61.3359375 55.5 C41.31690984 62.58638147 20.30211096 63.61646946 -0.75 63.625 C-2.03326172 63.62588623 -3.31652344 63.62677246 -4.63867188 63.62768555 C-25.86445128 63.50265021 -48.20583341 61.17676695 -67.94213867 52.85888672 C-69.01912521 52.40617401 -70.09611176 51.9534613 -71.20573425 51.48703003 C-72.02471695 51.14068512 -72.84369965 50.79434021 -73.6875 50.4375 Z " fill="#FAFCF9" transform="translate(252.6875,140.5625)"></path><path d="M0 0 C2 2 2 2 2.25 5.25 C0.60814794 10.17555617 -1.43301151 11.23646973 -5.921875 13.59375 C-41.29647279 29.75473376 -94.6234448 29.51631413 -131 16 C-141.37822032 11.33919291 -141.37822032 11.33919291 -145 7 C-145.14999091 4.22516821 -144.54912175 2.68912962 -142.8203125 0.51953125 C-115.65750502 -25.76487698 -29.0223648 -20.83226185 0 0 Z " fill="#4B902B" transform="translate(324,168)"></path><path d="M0 0 C21.12 0 42.24 0 64 0 C64 21.12 64 42.24 64 64 C59.71 64 55.42 64 51 64 C50.67 50.8 50.34 37.6 50 24 C33.17 40.83 16.34 57.66 -1 75 C-8 69 -8 69 -10 67 C-9.80419316 62.90344687 -7.17377362 60.81182651 -4.38842773 58.04785156 C-3.91035675 57.5693425 -3.43228577 57.09083344 -2.93972778 56.5978241 C-1.36135786 55.02154039 0.22736342 53.45614271 1.81640625 51.890625 C2.91422206 50.79840572 4.0113764 49.70552121 5.1078949 48.61199951 C7.99308732 45.73825127 10.8871757 42.87362664 13.78320312 40.01080322 C17.25749415 36.57262328 20.72064421 33.12322618 24.18566132 29.67570496 C29.44861775 24.44182194 34.72553313 19.22239718 40 14 C20.2 13.505 20.2 13.505 0 13 C0 8.71 0 4.42 0 0 Z " fill="#F9FBF7" transform="translate(371,77)"></path><path d="M0 0 C3.10073859 1.20269369 4.81754827 3.10898109 7.15740967 5.4669342 C7.63591873 5.94500519 8.1144278 6.42307617 8.60743713 6.91563416 C10.18372084 8.49400408 11.74911852 10.08272536 13.31463623 11.67176819 C14.40685551 12.769584 15.49974002 13.86673834 16.59326172 14.96325684 C19.46700996 17.84844926 22.33163459 20.74253764 25.19445801 23.63856506 C28.63263795 27.11285609 32.08203505 30.57600615 35.52955627 34.04102325 C40.76343929 39.30397969 45.98286405 44.58089506 51.20526123 49.85536194 C51.53526123 36.65536194 51.86526123 23.45536194 52.20526123 9.85536194 C56.49526123 9.85536194 60.78526123 9.85536194 65.20526123 9.85536194 C65.20526123 30.97536194 65.20526123 52.09536194 65.20526123 73.85536194 C44.08526123 73.85536194 22.96526123 73.85536194 1.20526123 73.85536194 C1.20526123 69.56536194 1.20526123 65.27536194 1.20526123 60.85536194 C14.40526123 60.52536194 27.60526123 60.19536194 41.20526123 59.85536194 C37.58428467 56.29239319 33.96330811 52.72942444 30.23260498 49.05848694 C27.94801416 46.79943547 25.66420259 44.5396929 23.38299561 42.27723694 C19.75982793 38.6839911 16.13405661 35.09366524 12.49212646 31.51942444 C9.55698475 28.63849907 6.6341281 25.74562771 3.71948433 22.84397125 C2.6038196 21.737565 1.48375411 20.63557864 0.35932732 19.53807831 C-1.21170764 18.00319494 -2.76653552 16.45351626 -4.31842041 14.89930725 C-5.20888565 14.01994507 -6.09935089 13.14058289 -7.01679993 12.23457336 C-8.79473877 9.85536194 -8.79473877 9.85536194 -8.65385437 7.64875793 C-7.66575643 5.58611249 -6.58343755 4.17649006 -4.98223877 2.54286194 C-4.48079346 2.01047913 -3.97934814 1.47809631 -3.46270752 0.92958069 C-1.79473877 -0.14463806 -1.79473877 -0.14463806 0 0 Z " fill="#F8FAF7" transform="translate(369.79473876953125,361.14463806152344)"></path><path d="M0 0 C21.12 0 42.24 0 64 0 C64 4.29 64 8.58 64 13 C50.8 13.33 37.6 13.66 24 14 C27.62097656 17.56296875 31.24195313 21.1259375 34.97265625 24.796875 C37.25724707 27.05592646 39.54105864 29.31566904 41.82226562 31.578125 C45.4454333 35.17137084 49.07120462 38.76169669 52.71313477 42.3359375 C55.64827648 45.21686287 58.57113314 48.10973423 61.4857769 51.01139069 C62.60144163 52.11779694 63.72150712 53.2197833 64.84593391 54.31728363 C66.41696887 55.852167 67.97179675 57.40184568 69.52368164 58.95605469 C70.41414688 59.83541687 71.30461212 60.71477905 72.22206116 61.62078857 C74 64 74 64 73.8591156 66.206604 C72.87101766 68.26924945 71.78869878 69.67887188 70.1875 71.3125 C69.68605469 71.84488281 69.18460937 72.37726563 68.66796875 72.92578125 C67 74 67 74 65.20526123 73.85536194 C62.10452264 72.65266825 60.38771296 70.74638084 58.04785156 68.38842773 C57.5693425 67.91035675 57.09083344 67.43228577 56.5978241 66.93972778 C55.02154039 65.36135786 53.45614271 63.77263658 51.890625 62.18359375 C50.79840572 61.08577794 49.70552121 59.9886236 48.61199951 58.8921051 C45.73825127 56.00691268 42.87362664 53.1128243 40.01080322 50.21679688 C36.57262328 46.74250585 33.12322618 43.27935579 29.67570496 39.81433868 C24.44182194 34.55138225 19.22239718 29.27446687 14 24 C13.67 37.2 13.34 50.4 13 64 C8.71 64 4.42 64 0 64 C0 42.88 0 21.76 0 0 Z " fill="#F8FAF7" transform="translate(77,77)"></path><path d="M0 0 C3.23363953 0.45611336 5.00193919 1.54780641 7.3125 3.8125 C7.84488281 4.31394531 8.37726563 4.81539063 8.92578125 5.33203125 C10 7 10 7 9.80747986 8.84063721 C8.76112879 11.63878943 7.26732148 13.10683969 5.15454102 15.21777344 C4.3402211 16.03832214 3.52590118 16.85887085 2.68690491 17.70428467 C1.80151535 18.58046448 0.91612579 19.45664429 0.00390625 20.359375 C-0.8999733 21.26375305 -1.80385284 22.1681311 -2.73512268 23.09991455 C-4.64748097 25.00993168 -6.56247038 26.91676407 -8.48266602 28.81884766 C-10.94722296 31.26066958 -13.4005018 33.71346207 -15.85034084 36.17004013 C-18.18538193 38.5092183 -20.52844445 40.84032002 -22.87109375 43.171875 C-24.19614174 44.4982901 -24.19614174 44.4982901 -25.54795837 45.85150146 C-26.36543045 46.65944153 -27.18290253 47.46738159 -28.02514648 48.29980469 C-28.74604965 49.01610046 -29.46695282 49.73239624 -30.20970154 50.47039795 C-32 52 -32 52 -34 52 C-34.2475 52.5775 -34.495 53.155 -34.75 53.75 C-36 56 -36 56 -40 60 C-20.2 60.495 -20.2 60.495 0 61 C0 65.29 0 69.58 0 74 C-21.12 74 -42.24 74 -64 74 C-64 52.88 -64 31.76 -64 10 C-59.71 10 -55.42 10 -51 10 C-51 23.53 -51 37.06 -51 51 C-45.62672961 46.29838841 -40.4558594 41.60457275 -35.4296875 36.5625 C-34.74496368 35.87873291 -34.06023987 35.19496582 -33.35476685 34.49047852 C-31.92001636 33.05640325 -30.48650664 31.62108564 -29.05419922 30.18457031 C-26.87709568 28.00210085 -24.69469159 25.82503455 -22.51171875 23.6484375 C-21.10905421 22.24511223 -19.70669988 20.84147682 -18.3046875 19.4375 C-17.66079071 18.79562744 -17.01689392 18.15375488 -16.35348511 17.49243164 C-12.77739818 13.89799738 -9.42664145 10.22490914 -6.25100708 6.26977539 C-5.83817474 5.85074951 -5.42534241 5.43172363 -5 5 C-4.34 5 -3.68 5 -3 5 C-2.690625 4.360625 -2.38125 3.72125 -2.0625 3.0625 C-1 1 -1 1 0 0 Z " fill="#F9FBF8" transform="translate(141,361)"></path></svg>