<svg version="1.1" xmlns="http://www.w3.org/2000/svg" width="16px" height="16px" fill="currentColor" viewBox="0 0 512 512"><path d="M0 0 C168.96 0 337.92 0 512 0 C512 168.96 512 337.92 512 512 C343.04 512 174.08 512 0 512 C0 343.04 0 174.08 0 0 Z " fill="#D72B6B" transform="translate(0,0)"></path><path d="M0 0 C0.85247314 -0.00671722 1.70494629 -0.01343445 2.58325195 -0.02035522 C5.39931067 -0.0393433 8.21513127 -0.04325948 11.03125 -0.04541016 C12.98893329 -0.05183629 14.94661561 -0.05856451 16.90429688 -0.06558228 C21.00653308 -0.07755618 25.10868505 -0.08126286 29.2109375 -0.08007812 C34.47039629 -0.07987465 39.72931647 -0.10720597 44.98864746 -0.14162254 C49.03094979 -0.16384323 53.07312135 -0.16791719 57.11547852 -0.16685867 C59.05478781 -0.1692208 60.99410038 -0.17807861 62.93334961 -0.19352341 C65.64345249 -0.21309074 68.35237871 -0.20738267 71.0625 -0.1953125 C71.86469971 -0.20655151 72.66689941 -0.21779053 73.4934082 -0.22937012 C76.99774205 -0.18965217 79.12799669 0.00641168 82.02819824 2.04977417 C83.68051379 4.51305016 84.03626564 5.69563386 84.04882812 8.62841797 C84.06143677 9.47609741 84.07404541 10.32377686 84.08703613 11.19714355 C84.07893921 12.10452271 84.07084229 13.01190186 84.0625 13.94677734 C84.06824036 15.35570251 84.06824036 15.35570251 84.07409668 16.79309082 C84.07681576 18.77678501 84.06945484 20.76051505 84.05273438 22.74414062 C84.03132461 25.7799475 84.05253607 28.8133878 84.078125 31.84912109 C84.07548172 33.77751173 84.07035675 35.7059009 84.0625 37.63427734 C84.07059692 38.54165649 84.07869385 39.44903564 84.08703613 40.38391113 C83.99369258 46.65940104 83.99369258 46.65940104 81.64648438 49.86279297 C78.92311808 51.70100235 77.76294843 51.90608895 74.53125 51.29052734 C73.62375 50.63052734 72.71625 49.97052734 71.78125 49.29052734 C67.61442601 46.72632796 64.31877966 46.36214707 59.53125 47.29052734 C57.02964182 49.16673348 55.91179348 50.52944038 54.53125 53.29052734 C54.15447997 58.2827302 54.45728639 61.27072878 57.53125 65.29052734 C61.22768918 67.13874693 65.49735238 66.77534093 69.53125 66.29052734 C71.57174422 65.02003094 73.58142465 63.69621539 75.53125 62.29052734 C78.476195 62.35901444 79.86967165 62.75531341 82.15151978 64.60131836 C84.59937726 67.59823963 83.95617637 71.52011246 83.9296875 75.22802734 C83.93255768 76.10450928 83.93542786 76.98099121 83.93838501 77.8840332 C83.94042598 79.73666022 83.93489378 81.58930877 83.92236328 83.44189453 C83.90630984 86.27994913 83.92221055 89.11657961 83.94140625 91.95458984 C83.93942382 93.75407216 83.93558016 95.55355359 83.9296875 97.35302734 C83.93576019 98.2030835 83.94183289 99.05313965 83.9480896 99.92895508 C83.87726034 105.85296687 83.87726034 105.85296687 82.16596985 108.01704407 C79.78224466 109.87401924 77.97595791 109.63091953 74.98828125 109.58349609 C73.91513672 109.57382812 72.84199219 109.56416016 71.73632812 109.55419922 C70.61677734 109.5290625 69.49722656 109.50392578 68.34375 109.47802734 C67.21259766 109.46449219 66.08144531 109.45095703 64.91601562 109.43701172 C62.12061683 109.40162692 59.32617108 109.35225683 56.53125 109.29052734 C56.55517822 110.02295654 56.57910645 110.75538574 56.60375977 111.51000977 C56.76420259 119.8981828 55.61181243 125.80097916 49.81640625 132.17724609 C43.30241369 138.06407088 36.92763578 138.99649716 28.27734375 138.73974609 C21.53781861 137.93156529 17.80224091 134.56151825 13.15625 129.91552734 C9.91685782 124.68266306 8.35061913 120.22772647 8.453125 114.02099609 C8.4644043 113.13178467 8.47568359 112.24257324 8.48730469 111.32641602 C8.50180664 110.65457275 8.51630859 109.98272949 8.53125 109.29052734 C7.8199292 109.30623779 7.1086084 109.32194824 6.37573242 109.33813477 C3.15681896 109.40044649 -0.06196768 109.43950602 -3.28125 109.47802734 C-4.40080078 109.50316406 -5.52035156 109.52830078 -6.67382812 109.55419922 C-7.74697266 109.56386719 -8.82011719 109.57353516 -9.92578125 109.58349609 C-10.91553955 109.59920654 -11.90529785 109.61491699 -12.92504883 109.63110352 C-15.95152959 109.22588798 -16.60859419 108.64412832 -18.46875 106.29052734 C-18.85465336 104.42605209 -18.85465336 104.42605209 -18.86988831 102.29437256 C-18.88268326 101.48419174 -18.89547821 100.67401093 -18.90866089 99.83927917 C-18.90730133 98.95404068 -18.90594177 98.06880219 -18.90454102 97.15673828 C-18.91461685 96.22144791 -18.92469269 95.28615753 -18.93507385 94.32252502 C-18.96362491 91.22319659 -18.96943458 88.12435419 -18.97265625 85.02490234 C-18.98229437 82.87119342 -18.99238662 80.71748649 -19.00291443 78.56378174 C-19.0208951 74.04442799 -19.02643366 69.52524638 -19.0246582 65.00585938 C-19.0243537 59.2206826 -19.06526599 53.43661354 -19.11697483 47.65169907 C-19.1503735 43.20091712 -19.15641463 38.75040157 -19.15482903 34.29950714 C-19.15836529 32.1672815 -19.17161346 30.03504869 -19.19482613 27.90294647 C-19.22430208 24.91514758 -19.21556756 21.9297338 -19.19750977 18.94189453 C-19.22279755 17.62618217 -19.22279755 17.62618217 -19.24859619 16.28388977 C-19.16331724 10.71680193 -17.95629152 7.75626667 -14.14625454 3.67778397 C-9.71408471 0.01248423 -5.56997894 -0.00629329 0 0 Z " fill="#FDF9FA" transform="translate(223.46875,184.70947265625)"></path><path d="M0 0 C25.08 0 50.16 0 76 0 C76 6.6 76 13.2 76 20 C74.02 20.0825 72.04 20.165 70 20.25 C62.33691685 20.85804899 57.63118403 22.36881597 52.1875 27.8125 C47.44911191 34.71700836 45.81664239 40.71649671 47 49 C49.32631989 56.49591965 53.33113713 61.01045952 60 65 C64.54601728 67.27300864 71.08679597 66.68734156 76 67 C76 72.28 76 77.56 76 83 C74.09734375 83.02578125 72.1946875 83.0515625 70.234375 83.078125 C67.73956017 83.13439902 65.24476939 83.1917465 62.75 83.25 C60.86861328 83.27126953 60.86861328 83.27126953 58.94921875 83.29296875 C57.74394531 83.32519531 56.53867187 83.35742188 55.296875 83.390625 C54.18666992 83.41157227 53.07646484 83.43251953 51.93261719 83.45410156 C48.38762872 84.11399119 47.15402957 85.15290059 45 88 C45.07603141 91.04125656 45.57391729 92.50574406 47.5625 94.8125 C49.70121082 98.06705994 49.54975358 101.27059059 49 105 C47.38129806 108.64207936 45.57053617 111.16648143 42 113 C35.4953271 113.83931263 35.4953271 113.83931263 32.18359375 111.98046875 C29.49417327 109.83541289 28.09508177 108.28524531 27 105 C26.64764463 99.45040292 26.60745897 97.38203217 30 93 C30.50031206 89.41571853 30.50031206 89.41571853 30 86 C21.63799803 80.42533202 10.04298979 83.37196258 0 83 C0 55.61 0 28.22 0 0 Z " fill="#D82D6D" transform="translate(218,198)"></path><path d="M0 0 C3.21043882 1.38188453 5.04936365 2.92421903 7.25 5.625 C8.03117187 6.57246094 8.03117187 6.57246094 8.828125 7.5390625 C9.40820312 8.26222656 9.40820312 8.26222656 10 9 C9.06615479 9.9286084 8.13230957 10.8572168 7.17016602 11.81396484 C3.71435806 15.25170671 0.26183285 18.69272921 -3.18969727 22.13476562 C-4.68554414 23.62557598 -6.18228624 25.11548862 -7.67993164 26.60449219 C-9.82933362 28.74179889 -11.97552185 30.8822868 -14.12109375 33.0234375 C-15.13048256 34.02508438 -15.13048256 34.02508438 -16.16026306 35.04696655 C-16.78083084 35.6674588 -17.40139862 36.28795105 -18.04077148 36.92724609 C-18.86350807 37.74665176 -18.86350807 37.74665176 -19.7028656 38.58261108 C-21.10839393 39.98851116 -21.10839393 39.98851116 -22 42 C-0.22 42 21.56 42 44 42 C44 46.29 44 50.58 44 55 C21.89 55 -0.22 55 -23 55 C-23 55.66 -23 56.32 -23 57 C-22.40427185 57.27041107 -21.8085437 57.54082214 -21.19476318 57.81942749 C-19.01827427 58.99017019 -17.61457863 60.14318823 -15.88378906 61.88916016 C-15.30348938 62.4696109 -14.7231897 63.05006165 -14.12530518 63.64810181 C-13.51161072 64.27211884 -12.89791626 64.89613586 -12.265625 65.5390625 C-11.62759949 66.17991791 -10.98957397 66.82077332 -10.33221436 67.48104858 C-8.30005931 69.52437821 -6.27497782 71.57455982 -4.25 73.625 C-2.8715547 75.0134786 -1.49265364 76.4015049 -0.11328125 77.7890625 C3.26311894 81.18748697 6.63319288 84.59207254 10 88 C7.95933017 92.26615504 5.41446998 94.73398524 2 98 C-1.98087165 96.39822218 -4.65493174 93.61769406 -7.61328125 90.6171875 C-8.14592087 90.08408966 -8.67856049 89.55099182 -9.2273407 89.0017395 C-10.35339921 87.87266483 -11.4770312 86.74116559 -12.59838867 85.60742188 C-14.29108744 83.89664129 -15.99147489 82.19382508 -17.69335938 80.4921875 C-22.80997938 75.358073 -27.80781387 70.19555172 -32.51293945 64.67675781 C-35.67512782 61.11118407 -39.31163596 58.00439973 -42.83984375 54.80859375 C-45.61292383 51.20308819 -45.48369396 49.46840642 -45 45 C-43.29162598 42.44984436 -43.29162598 42.44984436 -40.86914062 40.07446289 C-39.96820679 39.17405777 -39.06727295 38.27365265 -38.13903809 37.34596252 C-37.14514475 36.38781048 -36.15087311 35.43005072 -35.15625 34.47265625 C-34.14581734 33.47528891 -33.13692625 32.47635758 -32.1295166 31.47593689 C-29.48142625 28.85449851 -26.81299444 26.2547649 -24.13970947 23.65905762 C-21.4125218 21.00364072 -18.70518751 18.32814886 -15.99609375 15.65429688 C-10.68324839 10.41639234 -5.34874463 5.20126718 0 0 Z " fill="#FEF8FA" transform="translate(391,207)"></path><path d="M0 0 C2.378479 1.66368103 2.378479 1.66368103 4.68847656 4.02319336 C5.56248108 4.90087875 6.4364856 5.77856415 7.3369751 6.68284607 C8.27177323 7.65160589 9.20631721 8.62061102 10.140625 9.58984375 C11.11235618 10.57531453 12.08550282 11.55939143 13.05999756 12.54212952 C15.6173918 15.12804894 18.15668523 17.73102689 20.69213867 20.33843994 C23.77947542 23.50742347 26.88603166 26.65754323 29.9915123 29.80873203 C32.40653747 32.259529 34.81791745 34.71355745 37.21881104 37.1782074 C38.08020691 38.05904495 38.94160278 38.93988251 39.82910156 39.84741211 C40.58821838 40.62684677 41.34733521 41.40628143 42.12945557 42.20933533 C43.88319142 44.06470371 43.88319142 44.06470371 46 45 C44.34908222 49.29238623 41.26245434 51.8793915 38 55 C35.09456128 53.68623083 33.03338941 52.27943508 30.79199219 50.01904297 C30.18339355 49.41020264 29.57479492 48.8013623 28.94775391 48.17407227 C28.32046387 47.53655029 27.69317383 46.89902832 27.046875 46.2421875 C26.46115723 45.65445557 25.87543945 45.06672363 25.27197266 44.46118164 C23.09247912 42.27125046 20.92175597 40.07260476 18.75 37.875 C13.8825 32.96625 9.015 28.0575 4 23 C3.67 44.78 3.34 66.56 3 89 C-0.96 89 -4.92 89 -9 89 C-9 66.89 -9 44.78 -9 22 C-9.66 22 -10.32 22 -11 22 C-11.27041107 22.59572815 -11.54082214 23.1914563 -11.81942749 23.80523682 C-12.99017019 25.98172573 -14.14318823 27.38542137 -15.88916016 29.11621094 C-16.4696109 29.69651062 -17.05006165 30.2768103 -17.64810181 30.87469482 C-18.27211884 31.48838928 -18.89613586 32.10208374 -19.5390625 32.734375 C-20.17991791 33.37240051 -20.82077332 34.01042603 -21.48104858 34.66778564 C-23.52437821 36.69994069 -25.57455982 38.72502218 -27.625 40.75 C-29.0134786 42.1284453 -30.4015049 43.50734636 -31.7890625 44.88671875 C-35.18748697 48.26311894 -38.59207254 51.63319288 -42 55 C-46.26615504 52.95933017 -48.73398524 50.41446998 -52 47 C-50.53414542 43.61842769 -48.65739997 41.4092962 -46.05688477 38.81396484 C-45.24586807 37.99987152 -44.43485138 37.1857782 -43.59925842 36.34701538 C-42.72216721 35.47710968 -41.84507599 34.60720398 -40.94140625 33.7109375 C-39.59126686 32.36148544 -39.59126686 32.36148544 -38.21385193 30.98477173 C-36.31049656 29.08443676 -34.40537037 27.18611563 -32.49682617 25.29101562 C-30.05270579 22.86389658 -27.61523172 20.43023492 -25.17997837 17.99422264 C-22.85324495 15.66782674 -20.52227141 13.34569265 -18.19140625 11.0234375 C-17.31633926 10.14948334 -16.44127228 9.27552917 -15.53968811 8.37509155 C-14.31843483 7.16340805 -14.31843483 7.16340805 -13.07250977 5.92724609 C-12.35684341 5.21539154 -11.64117706 4.50353699 -10.90382385 3.77011108 C-7.22267616 0.34750436 -4.98457536 -0.60422583 0 0 Z " fill="#FEFBFC" transform="translate(259,77)"></path><path d="M0 0 C3.38157231 1.46585458 5.5907038 3.34260003 8.18603516 5.94311523 C9.40717514 7.15964027 9.40717514 7.15964027 10.65298462 8.40074158 C11.52289032 9.27783279 12.39279602 10.15492401 13.2890625 11.05859375 C14.1886972 11.95868668 15.08833191 12.8587796 16.01522827 13.78614807 C17.91556324 15.68950344 19.81388437 17.59462963 21.70898438 19.50317383 C24.13610342 21.94729421 26.56976508 24.38476828 29.00577736 26.82002163 C31.33217326 29.14675505 33.65430735 31.47772859 35.9765625 33.80859375 C36.85051666 34.68366074 37.72447083 35.55872772 38.62490845 36.46031189 C39.83659195 37.68156517 39.83659195 37.68156517 41.07275391 38.92749023 C41.78460846 39.64315659 42.49646301 40.35882294 43.22988892 41.09617615 C45.60626911 43.65206619 46.91649173 45.38138748 47.38891602 48.88101196 C46.8896142 52.88526048 45.63357141 54.09414986 42.77734375 56.90380859 C41.85638916 57.82431 40.93543457 58.7448114 39.98657227 59.69320679 C38.97053151 60.67861031 37.9541664 61.66367949 36.9375 62.6484375 C35.90486458 63.66987679 34.87355009 64.69265307 33.84350586 65.71670532 C31.13409777 68.40324801 28.40715785 71.0712837 25.67614746 73.73583984 C22.89045357 76.46006223 20.1217513 79.20143442 17.3515625 81.94140625 C11.91751187 87.31118472 6.46482266 92.66152224 1 98 C-0.13199353 97.0919838 -1.25532363 96.17316174 -2.375 95.25 C-3.00148437 94.73953125 -3.62796875 94.2290625 -4.2734375 93.703125 C-6 92 -6 92 -8 88 C2.56 77.44 13.12 66.88 24 56 C-8.67 55.505 -8.67 55.505 -42 55 C-42 51.04 -42 47.08 -42 43 C-19.89 43 2.22 43 25 43 C25 42.34 25 41.68 25 41 C24.34 41 23.68 41 23 41 C23 40.34 23 39.68 23 39 C22.43796875 38.77570313 21.8759375 38.55140625 21.296875 38.3203125 C18.31381576 36.60556076 16.52066982 34.46299945 14.25 31.875 C7.16558858 23.9232879 -0.42584944 16.48127755 -8 9 C-7.04270084 7.87411986 -6.08412105 6.7493285 -5.125 5.625 C-4.59132812 4.99851563 -4.05765625 4.37203125 -3.5078125 3.7265625 C-2.38567993 2.44163349 -1.20628025 1.20628025 0 0 Z " fill="#FEFBFC" transform="translate(119,207)"></path><path d="M0 0 C3.96 0 7.92 0 12 0 C12.33 21.78 12.66 43.56 13 66 C23.56 55.44 34.12 44.88 45 34 C48.61322401 35.806612 49.83748791 36.66418971 52.25 39.625 C52.77078125 40.25664062 53.2915625 40.88828125 53.828125 41.5390625 C54.40820312 42.26222656 54.40820312 42.26222656 55 43 C49.27146976 48.86775384 43.52675859 54.71897563 37.76087093 60.5500021 C35.08382069 63.25832113 32.41261864 65.97191516 29.75415039 68.69848633 C27.18675292 71.33123439 24.60483134 73.94890819 22.01233101 76.55693245 C21.0274952 77.55282639 20.04794209 78.55397402 19.07392693 79.56045341 C17.70536407 80.97277389 16.31580098 82.36465162 14.92553711 83.75561523 C14.14166122 84.55281479 13.35778534 85.35001434 12.55015564 86.17137146 C9.24569753 88.54088425 7.05705384 89.02556937 3 89 C0.41188049 87.37391663 0.41188049 87.37391663 -2.01733398 84.89086914 C-2.93775986 83.96983902 -3.85818573 83.0488089 -4.8065033 82.09986877 C-5.7868044 81.07871787 -6.76665758 80.05713679 -7.74609375 79.03515625 C-8.76566215 78.00065975 -9.78701671 76.96792086 -10.81007385 75.93687439 C-13.49298081 73.22347824 -16.15099765 70.48692531 -18.80450439 67.74481201 C-21.51843013 64.94892582 -24.25525618 62.17565875 -26.99023438 59.40039062 C-32.34947196 53.9554541 -37.68261227 48.48584656 -43 43 C-42.0919838 41.86800647 -41.17316174 40.74467637 -40.25 39.625 C-39.73953125 38.99851562 -39.2290625 38.37203125 -38.703125 37.7265625 C-37 36 -37 36 -33 34 C-22.44 44.56 -11.88 55.12 -1 66 C-0.67 44.22 -0.34 22.44 0 0 Z " fill="#FEFDFD" transform="translate(250,346)"></path></svg>