<svg version="1.1" xmlns="http://www.w3.org/2000/svg" width="16px" height="16px" fill="currentColor" viewBox="0 0 512 512"><path d="M0 0 C168.96 0 337.92 0 512 0 C512 168.96 512 337.92 512 512 C343.04 512 174.08 512 0 512 C0 343.04 0 174.08 0 0 Z " fill="#7646D3" transform="translate(0,0)"></path><path d="M0 0 C4.07784354 1.26232337 7.70890379 2.77613508 11.44921875 4.828125 C12.46306641 5.38113281 13.47691406 5.93414062 14.52148438 6.50390625 C15.56626953 7.08011719 16.61105469 7.65632812 17.6875 8.25 C19.22567383 9.09111328 19.22567383 9.09111328 20.79492188 9.94921875 C22.32536133 10.78646484 22.32536133 10.78646484 23.88671875 11.640625 C24.89911621 12.19298828 25.91151367 12.74535156 26.95458984 13.31445312 C29.00940893 14.45173635 31.05134239 15.61257484 33.08056641 16.79492188 C34.0504248 17.35244141 35.0202832 17.90996094 36.01953125 18.484375 C36.88296143 18.99194336 37.7463916 19.49951172 38.63598633 20.02246094 C41.35745369 21.14781004 42.28969224 20.96768814 45 20 C46.95658407 19.90734839 48.9162298 19.87001585 50.875 19.875 C51.88304687 19.87242187 52.89109375 19.86984375 53.9296875 19.8671875 C57 20 57 20 59.86499023 20.66674805 C63.63747299 21.06776346 65.00342268 20.38008248 68.23046875 18.46484375 C69.19919922 17.90216797 70.16792969 17.33949219 71.16601562 16.75976562 C72.16310547 16.15841797 73.16019531 15.55707031 74.1875 14.9375 C76.15968713 13.77914883 78.13234224 12.62159406 80.10546875 11.46484375 C81.55832275 10.60608643 81.55832275 10.60608643 83.04052734 9.72998047 C96.2641829 2 96.2641829 2 99 2 C99.84114171 3.43294498 100.67265687 4.87154405 101.5 6.3125 C102.19609375 7.51326172 102.19609375 7.51326172 102.90625 8.73828125 C104 11 104 11 104 14 C103.17798096 14.43344727 102.35596191 14.86689453 101.5090332 15.31347656 C98.44102072 16.93444412 95.37559647 18.56011292 92.31176758 20.18896484 C90.98887121 20.89104173 89.66499035 21.591267 88.34008789 22.28955078 C86.42848873 23.29747181 84.52060799 24.31214709 82.61328125 25.328125 C81.46641846 25.9355957 80.31955566 26.54306641 79.13793945 27.16894531 C76.15053101 28.91216194 73.55210698 30.6665775 71 33 C70.54571572 35.548539 70.54571572 35.548539 70.9375 38.25 C71.18247726 43.81766494 70.34363618 47.50444038 67 52 C64.60018456 54.45491325 62.08936203 56.45531898 59 58 C58.67 73.51 58.34 89.02 58 105 C53.71 105 49.42 105 45 105 C45.00112793 103.59717773 45.00225586 102.19435547 45.00341797 100.74902344 C44.99974759 95.54532393 44.95696459 90.34255388 44.90234375 85.13916016 C44.88417285 82.88694237 44.87661721 80.63461294 44.87988281 78.38232422 C44.88273667 75.14462735 44.84745407 71.90925085 44.8046875 68.671875 C44.81378143 67.66445251 44.82287537 66.65703003 44.83224487 65.61907959 C44.77663464 62.94572429 44.6746277 60.58785413 44 58 C41.23565644 55.38934796 41.23565644 55.38934796 38 54 C33.28154938 48.88834517 31.72273257 44.61566807 31.875 37.6875 C31.89304688 36.61886719 31.91109375 35.55023438 31.9296875 34.44921875 C31.95289063 33.64097656 31.97609375 32.83273438 32 32 C30.91283691 31.41883423 30.91283691 31.41883423 29.80371094 30.82592773 C27.05177475 29.35342736 24.30094141 27.8788906 21.55078125 26.40307617 C19.80029162 25.46446629 18.04860055 24.52809814 16.296875 23.59179688 C8.76651931 19.5485093 1.35175968 15.35892637 -6 11 C-1.125 1.125 -1.125 1.125 0 0 Z " fill="#FCFBFE" transform="translate(204,215)"></path><path d="M0 0 C4.29 0 8.58 0 13 0 C12.99887207 1.31194336 12.99774414 2.62388672 12.99658203 3.97558594 C13.00025343 8.84386435 13.04304539 13.71114991 13.09765625 18.57910156 C13.1158231 20.68580737 13.12338352 22.79263246 13.12011719 24.89941406 C13.11726209 27.92867432 13.15255567 30.95545757 13.1953125 33.984375 C13.18621857 34.92617615 13.17712463 35.86797729 13.16775513 36.83831787 C13.27115358 41.49162078 13.32881316 43.3098254 16.67529297 46.75097656 C19.89779679 48.29020199 19.89779679 48.29020199 23.01904297 47.4284668 C24.00275879 46.95707275 24.98647461 46.48567871 26 46 C27.39629639 45.3344812 27.39629639 45.3344812 28.82080078 44.65551758 C29.76938965 44.15689209 30.71797852 43.6582666 31.6953125 43.14453125 C32.74074219 42.60505859 33.78617187 42.06558594 34.86328125 41.50976562 C37.04871516 40.3725548 39.23099179 39.22925701 41.41015625 38.08007812 C42.45300781 37.54447266 43.49585938 37.00886719 44.5703125 36.45703125 C45.51664551 35.96178955 46.46297852 35.46654785 47.43798828 34.95629883 C50.21600381 33.91937422 51.31399287 33.81945351 54 35 C55.265625 36.77734375 55.265625 36.77734375 56.25 38.9375 C56.75273437 40.00291016 56.75273437 40.00291016 57.265625 41.08984375 C58 43 58 43 58 45 C53.76671007 47.14132334 49.5308439 49.2774277 45.29248047 51.40869141 C43.85034935 52.13479257 42.40893878 52.86232665 40.96826172 53.59130859 C38.89998128 54.63754818 36.829183 55.67864446 34.7578125 56.71875 C34.11192169 57.04685669 33.46603088 57.37496338 32.80056763 57.7130127 C28.22774341 60 28.22774341 60 26 60 C26.0825 61.155 26.165 62.31 26.25 63.5 C26.23031273 69.0616545 24.33761687 73.53421093 20.50390625 77.578125 C15.0213115 82.33608752 10.22200105 82.34339656 3.23828125 82.28125 C-2.43000191 81.78895038 -5.38867934 79.69841907 -9.3125 75.5625 C-12.85662184 70.18068536 -13.21410048 66.31596406 -13 60 C-13.8252417 59.74855225 -14.6504834 59.49710449 -15.50073242 59.23803711 C-19.49441464 57.82507663 -23.19829076 56.07208041 -26.98828125 54.19140625 C-27.73208542 53.8240184 -28.47588959 53.45663055 -29.24223328 53.07810974 C-30.80392172 52.30448449 -32.36451916 51.52865333 -33.92407227 50.75073242 C-36.31755015 49.55998757 -38.71809588 48.38438096 -41.11914062 47.20898438 C-42.63847746 46.45404328 -44.15737381 45.69821491 -45.67578125 44.94140625 C-46.39550613 44.59130997 -47.11523102 44.24121368 -47.85676575 43.88050842 C-52.88568772 41.34293683 -52.88568772 41.34293683 -54 38 C-53.00390625 35.73828125 -53.00390625 35.73828125 -51.5625 33.3125 C-50.85287109 32.10013672 -50.85287109 32.10013672 -50.12890625 30.86328125 C-49.75636719 30.24839844 -49.38382813 29.63351562 -49 29 C-44.03930566 30.48579316 -39.67787383 32.58868144 -35.1171875 34.984375 C-33.60582926 35.76241944 -32.09409934 36.53974225 -30.58203125 37.31640625 C-28.21693468 38.53619433 -25.85472505 39.76064362 -23.49853516 40.99755859 C-21.21192295 42.19517233 -18.91577822 43.3724549 -16.6171875 44.546875 C-15.91294647 44.92277771 -15.20870544 45.29868042 -14.48312378 45.68597412 C-10.78503148 47.67826448 -10.78503148 47.67826448 -6.77392578 47.34082031 C-6.18853027 46.89834961 -5.60313477 46.45587891 -5 46 C-3.68 45.34 -2.36 44.68 -1 44 C-0.67 29.48 -0.34 14.96 0 0 Z " fill="#FCFCFE" transform="translate(249,346)"></path><path d="M0 0 C3.13507914 2.0976102 4.15233794 4.87840636 5.82299805 8.21972656 C5.82299805 8.87972656 5.82299805 9.53972656 5.82299805 10.21972656 C5.15880859 10.57687744 4.49461914 10.93402832 3.81030273 11.30200195 C0.73003772 12.95992816 -2.34877185 14.62052512 -5.42700195 16.28222656 C-6.5247998 16.87479248 -7.62259766 17.4673584 -8.75366211 18.07788086 C-15.32195405 21.63590871 -21.82014726 25.25898764 -28.20043945 29.14550781 C-30.17700195 30.21972656 -30.17700195 30.21972656 -32.17700195 30.21972656 C-32.16540039 31.20714844 -32.15379883 32.19457031 -32.1418457 33.21191406 C-32.13282227 34.49324219 -32.12379883 35.77457031 -32.11450195 37.09472656 C-32.10290039 38.37089844 -32.09129883 39.64707031 -32.0793457 40.96191406 C-32.17700195 44.21972656 -32.17700195 44.21972656 -33.17700195 46.21972656 C-32.31494141 46.48325928 -31.45288086 46.74679199 -30.56469727 47.01831055 C-27.14758556 48.23015883 -24.15507148 49.7083228 -20.97387695 51.44238281 C-19.82918945 52.06306641 -18.68450195 52.68375 -17.50512695 53.32324219 C-16.31234276 53.97609841 -15.11963525 54.62909473 -13.92700195 55.28222656 C-12.71891371 55.93957823 -11.51058243 56.59648345 -10.30200195 57.25292969 C-8.09860661 58.45058971 -5.89633852 59.65032751 -3.69555664 60.8527832 C-2.20115792 61.66386681 -0.69781335 62.45932086 0.82299805 63.21972656 C0.24665666 67.97454302 -1.72768716 71.19020868 -4.17700195 75.21972656 C-8.3069879 73.94387017 -11.97729334 72.39524535 -15.7668457 70.32128906 C-16.79874023 69.75925781 -17.83063477 69.19722656 -18.89379883 68.61816406 C-19.95663086 68.03292969 -21.01946289 67.44769531 -22.11450195 66.84472656 C-23.1734668 66.26722656 -24.23243164 65.68972656 -25.32348633 65.09472656 C-29.66542659 62.7219632 -33.97566951 60.35083807 -38.1809082 57.74316406 C-41.2460794 55.77239548 -41.2460794 55.77239548 -45.17700195 57.21972656 C-45.50700195 64.80972656 -45.83700195 72.39972656 -46.17700195 80.21972656 C-50.46700195 80.21972656 -54.75700195 80.21972656 -59.17700195 80.21972656 C-59.17700195 72.29972656 -59.17700195 64.37972656 -59.17700195 56.21972656 C-60.82700195 55.55972656 -62.47700195 54.89972656 -64.17700195 54.21972656 C-65.94262695 52.34472656 -65.94262695 52.34472656 -67.42700195 50.21972656 C-68.17723633 49.16785156 -68.17723633 49.16785156 -68.94262695 48.09472656 C-72.18489855 43.16975705 -71.80330129 37.9572044 -71.17700195 32.21972656 C-68.9242362 26.02714627 -64.66577103 22.57397433 -59.17700195 19.21972656 C-56.4372431 18.30647361 -54.69751414 18.05669126 -51.86450195 18.03222656 C-51.12586914 18.01804688 -50.38723633 18.00386719 -49.6262207 17.98925781 C-47.17700195 18.21972656 -47.17700195 18.21972656 -44.4230957 19.49316406 C-39.51819757 20.5910113 -36.76150485 18.47006491 -32.55200195 16.03222656 C-31.32694946 15.35885254 -31.32694946 15.35885254 -30.07714844 14.671875 C-26.49666754 12.69629642 -22.94985214 10.66421412 -19.4050293 8.62548828 C-17.57178407 7.5717991 -15.7355696 6.52325694 -13.89624023 5.48022461 C-12.14722662 4.48581667 -10.40693594 3.4758812 -8.67651367 2.44946289 C-7.48759521 1.77113403 -7.48759521 1.77113403 -6.2746582 1.07910156 C-5.57864502 0.67143555 -4.88263184 0.26376953 -4.16552734 -0.15625 C-2.17700195 -0.78027344 -2.17700195 -0.78027344 0 0 Z " fill="#FCFBFE" transform="translate(180.177001953125,137.7802734375)"></path><path d="M0 0 C5.2345662 0.54439488 9.27775134 3.17957137 13.75 5.75 C14.89082031 6.39582031 14.89082031 6.39582031 16.0546875 7.0546875 C22.4126302 10.65392964 22.4126302 10.65392964 25.4609375 12.44995117 C26.25242187 12.90861572 27.04390625 13.36728027 27.859375 13.83984375 C28.57061523 14.2587085 29.28185547 14.67757324 30.01464844 15.10913086 C33.19985181 16.53839883 35.6772598 15.7713504 39 15 C45.75636147 14.27699453 51.23945247 15.28212317 57 19 C61.02967927 22.71710457 63.69302161 26.03985125 64.2734375 31.63671875 C64.51284189 38.82805837 63.8385824 43.53029816 59 49 C54.7 53 54.7 53 52 53 C52 60.92 52 68.84 52 77 C47.71 77 43.42 77 39 77 C39 69.41 39 61.82 39 54 C31.84622265 53.9557044 31.84622265 53.9557044 26.25 57.125 C25.2084375 57.76824219 24.166875 58.41148437 23.09375 59.07421875 C22.0728125 59.70972656 21.051875 60.34523437 20 61 C11.19325543 66.03797594 2.09147917 70.50559248 -7 75 C-8.00533667 73.37829621 -9.00411907 71.75252763 -10 70.125 C-10.556875 69.22007812 -11.11375 68.31515625 -11.6875 67.3828125 C-13 65 -13 65 -13 63 C-12.26998779 62.60731934 -11.53997559 62.21463867 -10.7878418 61.81005859 C-8.02370827 60.32300676 -5.25973011 58.83566659 -2.49584961 57.34814453 C-0.73367709 56.39984972 1.02866697 55.45187369 2.79101562 54.50390625 C4.49741211 53.58544922 4.49741211 53.58544922 6.23828125 52.6484375 C7.36830566 52.0409668 8.49833008 51.43349609 9.66259766 50.80761719 C11.86130401 49.61674507 14.05390277 48.41451611 16.23974609 47.20019531 C17.22668457 46.65202148 18.21362305 46.10384766 19.23046875 45.5390625 C20.10469482 45.04873535 20.9789209 44.5584082 21.87963867 44.05322266 C24 43 24 43 26 43 C25.67 42.34 25.34 41.68 25 41 C24.92883618 38.62597499 24.91590915 36.24999323 24.9375 33.875 C24.94652344 32.59367187 24.95554687 31.31234375 24.96484375 29.9921875 C24.97644531 29.00476563 24.98804688 28.01734375 25 27 C24.29262695 26.73050537 23.58525391 26.46101074 22.85644531 26.18334961 C17.63488091 24.02019383 12.72521571 21.23405069 7.75 18.5625 C6.63625 17.97662109 5.5225 17.39074219 4.375 16.78710938 C3.31796875 16.21927734 2.2609375 15.65144531 1.171875 15.06640625 C0.2034668 14.55021729 -0.76494141 14.03402832 -1.76269531 13.50219727 C-4 12 -4 12 -5 9 C-4.00390625 6.73828125 -4.00390625 6.73828125 -2.5625 4.3125 C-2.08941406 3.50425781 -1.61632812 2.69601563 -1.12890625 1.86328125 C-0.75636719 1.24839844 -0.38382812 0.63351563 0 0 Z " fill="#FCFAFE" transform="translate(338,141)"></path><path d="M0 0 C5.04226982 2.25932475 8.82129779 5.67728182 11.78125 10.34765625 C13.12283082 14.34045631 12.85077117 18.17638598 12.78125 22.34765625 C13.55339844 22.56035156 14.32554687 22.77304688 15.12109375 22.9921875 C20.14549418 24.85287795 24.67020708 27.43158648 29.34375 30.03515625 C31.30584703 31.11744598 33.2680862 32.19947806 35.23046875 33.28125 C36.17841309 33.8057373 37.12635742 34.33022461 38.10302734 34.87060547 C41.60800799 36.80361667 45.12864862 38.7063243 48.65625 40.59765625 C49.66429687 41.1390625 50.67234375 41.68046875 51.7109375 42.23828125 C52.39414062 42.604375 53.07734375 42.97046875 53.78125 43.34765625 C53.13675393 46.35982737 52.13102818 48.86421461 50.71875 51.59765625 C50.35652344 52.3040625 49.99429688 53.01046875 49.62109375 53.73828125 C49.34394531 54.269375 49.06679688 54.80046875 48.78125 55.34765625 C44.69683028 54.08225168 41.04964764 52.56396208 37.296875 50.51953125 C36.27851563 49.96652344 35.26015625 49.41351563 34.2109375 48.84375 C33.16164063 48.26753906 32.11234375 47.69132812 31.03125 47.09765625 C29.99742187 46.53691406 28.96359375 45.97617188 27.8984375 45.3984375 C22.07667797 42.22359887 16.43174282 38.93225464 10.92871094 35.22753906 C8.80401125 34.0775801 8.80401125 34.0775801 6.69628906 35.09277344 C6.06432617 35.50688477 5.43236328 35.92099609 4.78125 36.34765625 C-0.8507144 39.27627774 -5.86223908 40.48345914 -12.21875 39.34765625 C-14.46517618 38.1500841 -16.36509713 36.8588944 -18.33203125 35.24609375 C-20.24857978 34.06580448 -20.24857978 34.06580448 -22.48901367 35.10595703 C-25.3289698 36.3977929 -28.04786414 37.81211431 -30.78125 39.31640625 C-31.82539063 39.88746094 -32.86953125 40.45851562 -33.9453125 41.046875 C-35.02554688 41.64113281 -36.10578125 42.23539063 -37.21875 42.84765625 C-39.36315703 44.02733601 -41.50894238 45.20451455 -43.65625 46.37890625 C-44.60371094 46.90033203 -45.55117187 47.42175781 -46.52734375 47.95898438 C-49.04810885 49.25961136 -51.56757944 50.34444561 -54.21875 51.34765625 C-55.05989171 49.91471127 -55.89140687 48.4761122 -56.71875 47.03515625 C-57.41484375 45.83439453 -57.41484375 45.83439453 -58.125 44.609375 C-59.21875 42.34765625 -59.21875 42.34765625 -59.21875 39.34765625 C-58.52837646 38.97479492 -57.83800293 38.60193359 -57.12670898 38.21777344 C-53.96942112 36.51193266 -50.81283067 34.80480526 -47.65625 33.09765625 C-46.02719727 32.21787109 -46.02719727 32.21787109 -44.36523438 31.3203125 C-37.67153851 27.70188839 -37.67153851 27.70188839 -31.06640625 23.92578125 C-28.21875 22.34765625 -28.21875 22.34765625 -26.21875 22.34765625 C-26.280625 21.17203125 -26.3425 19.99640625 -26.40625 18.78515625 C-26.36988732 13.63074602 -25.25421 9.48636422 -21.6015625 5.6484375 C-15.02061455 -0.18403354 -8.78901231 -2.58409341 0 0 Z " fill="#FCFAFE" transform="translate(262.21875,83.65234375)"></path><path d="M0 0 C4.29 0 8.58 0 13 0 C13 7.26 13 14.52 13 22 C14.65 22.66 16.3 23.32 18 24 C23.82282378 30.2290673 25.59620477 34.43471943 25.44140625 42.88671875 C24.5158974 49.41442277 20.87423454 53.39909133 16 57.5625 C10.50168742 60.28076689 1.82577783 60.22606521 -3.94256592 58.37745667 C-6.61116938 57.88787492 -7.72583963 58.49955753 -10.12597656 59.72241211 C-10.92650452 60.12290268 -11.72703247 60.52339325 -12.55181885 60.9360199 C-13.40612488 61.37865677 -14.26043091 61.82129364 -15.140625 62.27734375 C-16.02280701 62.7226796 -16.90498901 63.16801544 -17.81390381 63.62684631 C-20.63176111 65.05257504 -23.44082052 66.49476032 -26.25 67.9375 C-28.15829829 68.90669422 -30.06714629 69.87480693 -31.9765625 70.84179688 C-36.65749384 73.21534929 -41.3313087 75.6024697 -46 78 C-48.8731967 75.28014807 -50.49273059 72.69281006 -52 69 C-51.78977966 66.94024658 -51.78977966 66.94024658 -51 65 C-48.3763665 63.36805494 -45.86898211 62.00422903 -43.09765625 60.671875 C-42.30475693 60.27800598 -41.5118576 59.88413696 -40.69493103 59.47833252 C-39.01769507 58.64828822 -37.33712962 57.82494305 -35.65356445 57.0078125 C-33.06985367 55.75356979 -30.49624198 54.48035295 -27.92382812 53.203125 C-26.29482359 52.39991962 -24.66528367 51.59779898 -23.03515625 50.796875 C-22.26115982 50.41569519 -21.48716339 50.03451538 -20.68971252 49.64178467 C-15.23550911 47 -15.23550911 47 -13 47 C-13.33 46.34 -13.66 45.68 -14 45 C-14.50239048 39.49841245 -14.76205731 34.61204431 -12.375 29.5625 C-8.56308229 25.44964141 -5.60871432 22.40217858 0 21 C0 14.07 0 7.14 0 0 Z " fill="#FCFBFE" transform="translate(377,301)"></path><path d="M0 0 C4.29 0 8.58 0 13 0 C13 7.26 13 14.52 13 22 C14.65 22.33 16.3 22.66 18 23 C22.59146851 26.21402796 24.85261922 28.70396705 27 34 C27.29296875 37.6484375 27.29296875 37.6484375 27.1875 41.375 C27.14689453 43.24285156 27.14689453 43.24285156 27.10546875 45.1484375 C27.07066406 46.08945312 27.03585938 47.03046875 27 48 C27.75667969 48.21785156 28.51335937 48.43570313 29.29296875 48.66015625 C34.49359685 50.53983532 39.36480462 52.97808175 44.3125 55.4375 C45.32634766 55.92798828 46.34019531 56.41847656 47.38476562 56.92382812 C48.34705078 57.40142578 49.30933594 57.87902344 50.30078125 58.37109375 C51.17903564 58.80349365 52.05729004 59.23589355 52.9621582 59.68139648 C55 61 55 61 56 64 C55.00390625 66.26171875 55.00390625 66.26171875 53.5625 68.6875 C52.85287109 69.89986328 52.85287109 69.89986328 52.12890625 71.13671875 C51.75636719 71.75160156 51.38382813 72.36648438 51 73 C42.75534872 70.52829756 35.53018203 66.79550659 27.99609375 62.67578125 C22.50513589 59.8046424 19.23632949 58.31950577 13 60 C6.23545308 60.65857898 1.27039404 60.50432492 -4.34765625 56.42578125 C-8.77693439 52.6038273 -11.65892415 48.56633695 -12.22265625 42.671875 C-12.46252833 35.70515554 -11.28336329 31.51169962 -6.5 26.25 C-4 24 -4 24 -1 22 C-0.49156938 19.68246412 -0.49156938 19.68246412 -0.48828125 16.9921875 C-0.45283203 16.00605469 -0.41738281 15.01992188 -0.38085938 14.00390625 C-0.35830078 12.97136719 -0.33574219 11.93882812 -0.3125 10.875 C-0.27833984 9.83472656 -0.24417969 8.79445313 -0.20898438 7.72265625 C-0.12633831 5.14882166 -0.06149784 2.57442671 0 0 Z " fill="#FCFBFE" transform="translate(121,301)"></path><path d="M0 0 C4.29 0 8.58 0 13 0 C13 10.56 13 21.12 13 32 C8.71 32 4.42 32 0 32 C0 21.44 0 10.88 0 0 Z " fill="#FAF9FD" transform="translate(377,243)"></path><path d="M0 0 C4.29 0 8.58 0 13 0 C13 10.56 13 21.12 13 32 C8.71 32 4.42 32 0 32 C0 21.44 0 10.88 0 0 Z " fill="#FAF8FD" transform="translate(121,243)"></path><path d="M0 0 C2.375 1.0625 2.375 1.0625 4 3 C4.57491549 6.95254396 4.61372366 9.07941451 2.375 12.4375 C-0.7370662 14.48491197 -2.34394496 14.68551032 -6 14 C-8.4375 11.875 -8.4375 11.875 -10 9 C-9.93572343 5.78617168 -9.53112958 3.83862565 -7.8125 1.125 C-5.08827656 -0.56589731 -3.14066901 -0.38457172 0 0 Z " fill="#8D5AE5" transform="translate(385,169)"></path><path d="M0 0 C3.4375 1 3.4375 1 5.375 2.75 C6.67120853 5.49491218 6.96237013 7.00074212 6.4375 10 C4.875 12.3125 4.875 12.3125 2.4375 14 C-1.02480815 14.42519574 -3.3972167 14.63902633 -6.5 12.9375 C-8.20152633 9.8347167 -7.98769574 7.46230815 -7.5625 4 C-5.30132583 0.38212133 -4.292718 0 0 0 Z " fill="#6C43C4" transform="translate(129.5625,334)"></path><path d="M0 0 C2.375 1.0625 2.375 1.0625 4 3 C4.57349318 6.9427656 4.5664946 9.09360864 2.4375 12.5 C0 14 0 14 -3.5625 14 C-7 13 -7 13 -9 11.3125 C-10.37694267 8.12832007 -9.980224 6.29075199 -9 3 C-6.69027592 -0.64693276 -4.08119519 -0.49973819 0 0 Z " fill="#7F50D8" transform="translate(385,334)"></path><path d="M0 0 C2 1.6875 2 1.6875 3 4 C2.92974155 7.44266385 2.60090824 9.28353249 0.375 11.9375 C-3.07517724 13.48100034 -5.39999716 12.93333407 -9 12 C-11.46943529 8.29584707 -11.46913089 6.37855495 -11 2 C-7.89207752 -1.97814077 -4.55239669 -1.24156273 0 0 Z " fill="#774AD1" transform="translate(133,170)"></path><path d="M0 0 C2.375 1 2.375 1 4 3 C4.56669256 5.77563703 4.559876 8.22370769 4 11 C2.4375 13.0625 2.4375 13.0625 0 14 C-6.32727273 13.67272727 -6.32727273 13.67272727 -9 11 C-9.55641422 3.98918083 -9.55641422 3.98918083 -7.875 1 C-5.08970454 -0.48549091 -3.10747489 -0.38050713 0 0 Z " fill="#6F43C8" transform="translate(258,402)"></path><path d="M0 0 C2 2 2 2 2.375 5.9375 C2.29081697 8.8365531 2.24906476 9.69345876 0.375 12 C-2.65696965 13.2766188 -4.74003936 13.41616519 -8 13 C-9.875 12 -9.875 12 -11 10 C-11.46553122 7.24129648 -11.50405131 4.75509864 -11 2 C-7.93817059 -2.04161482 -4.56939437 -1.10003939 0 0 Z " fill="#7B4CD5" transform="translate(260,248)"></path><path d="M0 0 C2 2 2 2 2.375 5.9375 C2.28635216 8.80551846 2.21085143 9.72167611 0.4375 12.0625 C-3.0211441 13.39274773 -5.4440159 12.85607025 -9 12 C-11 10 -11 10 -11.375 6.0625 C-11.28635216 3.19448154 -11.21085143 2.27832389 -9.4375 -0.0625 C-5.9788559 -1.39274773 -3.5559841 -0.85607025 0 0 Z " fill="#8654E0" transform="translate(260,97)"></path></svg>