<svg version="1.1" xmlns="http://www.w3.org/2000/svg" width="16px" height="16px" fill="currentColor" viewBox="0 0 512 512"><path d="M0 0 C168.96 0 337.92 0 512 0 C512 168.96 512 337.92 512 512 C343.04 512 174.08 512 0 512 C0 343.04 0 174.08 0 0 Z " fill="#E3750D" transform="translate(0,0)"></path><path d="M0 0 C4.29 0 8.58 0 13 0 C13 12.87 13 25.74 13 39 C21.58 39 30.16 39 39 39 C39 26.13 39 13.26 39 0 C42.96 0 46.92 0 51 0 C51 12.87 51 25.74 51 39 C59.58 39 68.16 39 77 39 C77 26.13 77 13.26 77 0 C81.29 0 85.58 0 90 0 C90 12.54 90 25.08 90 38 C98.25 38 106.5 38 115 38 C115 25.46 115 12.92 115 0 C119.29 0 123.58 0 128 0 C128 12.87 128 25.74 128 39 C136.58 39 145.16 39 154 39 C154 26.13 154 13.26 154 0 C158.29 0 162.58 0 167 0 C167 12.54 167 25.08 167 38 C175.25 38 183.5 38 192 38 C192 25.46 192 12.92 192 0 C196.29 0 200.58 0 205 0 C205 12.87 205 25.74 205 39 C212.06068326 38.84213436 212.06068326 38.84213436 219.12011719 38.63964844 C220.00344727 38.6296582 220.88677734 38.61966797 221.796875 38.609375 C222.69760742 38.58842773 223.59833984 38.56748047 224.52636719 38.54589844 C227 39 227 39 229.27441406 40.42651367 C231.88268426 44.31640844 231.72606482 47.9695957 231.8125 52.56640625 C231.83530029 53.51450668 231.85810059 54.46260712 231.8815918 55.43943787 C231.91938405 57.45415469 231.94552509 59.46911856 231.9609375 61.48413086 C231.99925652 64.50390919 232.12297238 67.51214288 232.25 70.52929688 C232.5634755 85.22436857 228.7714508 95.81900449 219 107 C218.67 107 218.34 107 218 107 C218 88.52 218 70.04 218 51 C141.77 51 65.54 51 -13 51 C-13 127.23 -13 203.46 -13 282 C5.48 282 23.96 282 43 282 C33.10854937 291.89145063 23.72420406 296.09517425 9.77868652 296.12310791 C7.78098187 296.09039681 5.783487 296.04060761 3.78662109 295.97412109 C0.71159703 295.87374645 -2.35706539 295.85105239 -5.43359375 295.83984375 C-7.39850587 295.81171989 -9.36336264 295.77932845 -11.328125 295.7421875 C-12.24160706 295.7314621 -13.15508911 295.72073669 -14.09625244 295.70968628 C-17.96650869 295.56392386 -20.31160399 295.45923466 -23.58007812 293.27880859 C-25.28575982 290.5413889 -25.46525961 289.00616344 -25.390625 285.796875 C-25.38063477 284.91354492 -25.37064453 284.03021484 -25.36035156 283.12011719 C-25.32393555 282.00797852 -25.28751953 280.89583984 -25.25 279.75 C-25.1675 276.2025 -25.085 272.655 -25 269 C-37.87 269 -50.74 269 -64 269 C-64 264.71 -64 260.42 -64 256 C-51.13 256 -38.26 256 -25 256 C-25 247.42 -25 238.84 -25 230 C-37.54 230 -50.08 230 -63 230 C-63 226.04 -63 222.08 -63 218 C-50.46 218 -37.92 218 -25 218 C-25 209.42 -25 200.84 -25 192 C-37.54 192 -50.08 192 -63 192 C-63 188.04 -63 184.08 -63 180 C-50.46 180 -37.92 180 -25 180 C-25 171.42 -25 162.84 -25 154 C-37.87 154 -50.74 154 -64 154 C-64 149.71 -64 145.42 -64 141 C-51.13 141 -38.26 141 -25 141 C-25 132.42 -25 123.84 -25 115 C-37.87 115 -50.74 115 -64 115 C-64 111.04 -64 107.08 -64 103 C-51.13 103 -38.26 103 -25 103 C-25 94.42 -25 85.84 -25 77 C-37.87 77 -50.74 77 -64 77 C-64 72.71 -64 68.42 -64 64 C-51.13 64 -38.26 64 -25 64 C-25.11851937 56.8945511 -25.11851937 56.8945511 -25.27026367 49.78979492 C-25.27775635 48.90396729 -25.28524902 48.01813965 -25.29296875 47.10546875 C-25.3086792 46.19949951 -25.32438965 45.29353027 -25.34057617 44.36010742 C-25 42 -25 42 -23.80078125 40.19921875 C-21.38310806 38.58918476 -19.78572624 38.65689492 -16.89453125 38.70703125 C-16.00870361 38.71452393 -15.12287598 38.7220166 -14.21020508 38.72973633 C-12.52834106 38.77070435 -12.52834106 38.77070435 -10.8125 38.8125 C-7.244375 38.874375 -3.67625 38.93625 0 39 C0 26.13 0 13.26 0 0 Z " fill="#FEFDFB" transform="translate(151,87)"></path><path d="M0 0 C7.1323265 5.81351896 11.18396589 12.52675237 12.33007812 21.78613281 C13.52162655 35.86205084 10.44805846 48.40312564 6.0703125 61.6875 C5.73386719 62.74565918 5.73386719 62.74565918 5.390625 63.82519531 C-9.35093164 109.5740694 -42.17604216 149.6403866 -73.17578125 185.50390625 C-73.61776855 186.02098145 -74.05975586 186.53805664 -74.51513672 187.07080078 C-75.53476737 188.23614323 -76.58172571 189.3777733 -77.64501953 190.50341797 C-78.20431152 191.10943848 -78.76360352 191.71545898 -79.33984375 192.33984375 C-79.85812744 192.88503662 -80.37641113 193.43022949 -80.91040039 193.99194336 C-82.14990738 195.65644588 -82.14990738 195.65644588 -81.66381836 197.7421875 C-80.74553072 200.17548178 -79.62749739 202.44143035 -78.4296875 204.75 C-73.98502858 213.34214587 -73.21687942 224.22684737 -76.0546875 233.625 C-80.4872396 244.41908521 -88.46683596 252.97336348 -99.0078125 257.99609375 C-108.54606716 261.42753902 -120.74293407 261.04019693 -129.9140625 256.85546875 C-131.9296875 255.6875 -131.9296875 255.6875 -133.9453125 253.98828125 C-135.80845007 252.49530719 -135.80845007 252.49530719 -137.89453125 252.75 C-140.58300433 253.98845209 -142.34468152 255.64966896 -144.4921875 257.6875 C-149.79365076 262.59540486 -155.31290802 267.14732894 -160.9296875 271.6875 C-162.16088837 272.69832767 -163.39131368 273.71010049 -164.62109375 274.72265625 C-204.74786718 307.68926193 -258.93697737 350.53698971 -313.9296875 346.6875 C-322.51243969 345.30730066 -328.91903616 341.17290637 -334.7421875 334.8125 C-340.01529481 327.27948956 -341.11023099 319.48085053 -341.1171875 310.5 C-341.13555664 309.28086914 -341.13555664 309.28086914 -341.15429688 308.03710938 C-341.16798373 302.30231821 -340.34318014 297.24649278 -338.9296875 291.6875 C-334.3096875 291.6875 -329.6896875 291.6875 -324.9296875 291.6875 C-325.41308594 293.61916016 -325.41308594 293.61916016 -325.90625 295.58984375 C-326.99522188 300.51527319 -327.29652481 305.21770145 -327.3046875 310.25 C-327.34142578 311.44786133 -327.34142578 311.44786133 -327.37890625 312.66992188 C-327.4073623 318.48918451 -326.15829662 322.81648012 -322.9296875 327.6875 C-318.10398143 332.51320607 -312.70977927 333.97406335 -305.9921875 334 C-261.24885829 332.99226736 -215.49935447 297.52137703 -181.9296875 270.6875 C-181.31174316 270.19427246 -180.69379883 269.70104492 -180.05712891 269.19287109 C-172.69478122 263.29900448 -165.41571369 257.30995657 -158.2421875 251.1875 C-157.67830322 250.70748535 -157.11441895 250.2274707 -156.53344727 249.73291016 C-153.17771142 246.84729175 -150.01863915 243.85095326 -146.9296875 240.6875 C-147.3628125 239.80964844 -147.3628125 239.80964844 -147.8046875 238.9140625 C-151.95394192 229.31891166 -153.35531179 217.64584941 -149.6015625 207.6640625 C-144.79856026 196.79634845 -137.81902503 189.82917917 -126.9609375 185.01171875 C-117.07439717 181.28946592 -105.47039897 182.73961939 -95.9296875 186.6875 C-94.6096875 186.6875 -93.2896875 186.6875 -91.9296875 186.6875 C-89.7626611 184.59847521 -89.7626611 184.59847521 -87.7421875 181.8125 C-84.83655177 178.08950658 -81.90711248 174.5098416 -78.6796875 171.0625 C-72.8632508 164.6694774 -67.74284446 157.75298686 -62.55859375 150.84716797 C-61.04992568 148.84691651 -59.52491048 146.8607503 -57.9921875 144.87890625 C-33.0539648 112.45624841 2.09087393 66.07810473 -0.9296875 22.6875 C-1.74337718 18.19511246 -3.38345781 14.8810256 -6.8046875 11.8125 C-12.23041704 8.12300391 -16.55424726 7.35659664 -23.0546875 7.4375 C-24.17605103 7.44330078 -24.17605103 7.44330078 -25.32006836 7.44921875 C-31.36658757 7.54287248 -37.02151003 8.35607973 -42.9296875 9.6875 C-42.9296875 5.0675 -42.9296875 0.4475 -42.9296875 -4.3125 C-29.23126272 -8.37129253 -11.8686302 -8.60165534 0 0 Z " fill="#FEFCFA" transform="translate(417.9296875,83.3125)"></path><path d="M0 0 C0 7.26 0 14.52 0 22 C12.54 22 25.08 22 38 22 C38 26.29 38 30.58 38 35 C25.46 35 12.92 35 0 35 C0 43.58 0 52.16 0 61 C12.54 61 25.08 61 38 61 C38 65.29 38 69.58 38 74 C25.46 74 12.92 74 0 74 C0 82.25 0 90.5 0 99 C12.54 99 25.08 99 38 99 C38 103.29 38 107.58 38 112 C25.46 112 12.92 112 0 112 C0.19708451 118.68695395 0.19708451 118.68695395 0.45043945 125.37182617 C0.5150632 129.71996229 0.38342965 132.34362042 -1.84375 136.15625 C-6.4902715 138.87055464 -10.54498519 138.54067955 -15.8125 138.3125 C-19.174375 138.209375 -22.53625 138.10625 -26 138 C-26 150.54 -26 163.08 -26 176 C-30.29 176 -34.58 176 -39 176 C-39 163.46 -39 150.92 -39 138 C-47.25 138 -55.5 138 -64 138 C-64 150.54 -64 163.08 -64 176 C-68.29 176 -72.58 176 -77 176 C-77 163.46 -77 150.92 -77 138 C-85.58 138 -94.16 138 -103 138 C-103 150.54 -103 163.08 -103 176 C-107.29 176 -111.58 176 -116 176 C-116 163.46 -116 150.92 -116 138 C-123.26 138 -130.52 138 -138 138 C-138 137.34 -138 136.68 -138 136 C-136.30189246 134.62101957 -134.53964541 133.32040522 -132.75 132.0625 C-131.77546875 131.37285156 -130.8009375 130.68320312 -129.796875 129.97265625 C-128.41242188 128.99619141 -128.41242188 128.99619141 -127 128 C-126.06754896 127.20763207 -126.06754896 127.20763207 -125.11626053 126.39925671 C-122.61995658 124.74871794 -121.30907037 124.62907853 -118.34295654 124.63923645 C-117.41190094 124.63511246 -116.48084534 124.63098846 -115.52157593 124.6267395 C-114.50737579 124.63752533 -113.49317566 124.64831116 -112.44824219 124.65942383 C-111.37476532 124.65898575 -110.30128845 124.65854767 -109.19528198 124.65809631 C-105.64562824 124.66018701 -102.09644628 124.68353199 -98.546875 124.70703125 C-96.08636737 124.71262619 -93.6258564 124.71689677 -91.16534424 124.71989441 C-84.68797587 124.73135115 -78.21080917 124.76082576 -71.73352051 124.79400635 C-65.12445809 124.82468918 -58.5153631 124.83839594 -51.90625 124.85351562 C-38.93741394 124.88569442 -25.96871769 124.9363247 -13 125 C-13.01013972 124.44691634 -13.02027945 123.89383268 -13.03072643 123.32398891 C-13.27478237 109.79995019 -13.45551665 96.2763026 -13.56993389 82.75052547 C-13.62714245 76.20906473 -13.70463213 69.66920282 -13.82983398 63.12866211 C-13.95008339 56.80667674 -14.01527727 50.48622084 -14.04364967 44.1631794 C-14.06384616 41.76104233 -14.10328572 39.35898127 -14.16303062 36.95750237 C-14.49415977 23.08543187 -14.09400743 13.06632218 -4.563797 2.38380432 C-2 0 -2 0 0 0 Z " fill="#FEFBF8" transform="translate(382,244)"></path><path d="M0 0 C6.39947542 3.51929647 10.1479031 7.57858768 12.80859375 14.35546875 C14.74038435 21.26698623 15.00022727 28.87223905 11.6875 35.375 C7.80772255 41.35999759 2.56758236 46.34552812 -4.3125 48.5 C-13.57796159 49.41349621 -20.50845851 48.47850572 -28.4375 43.5625 C-33.27365831 39.16478461 -36.55416112 32.3903401 -37.79296875 26.03515625 C-38.06478233 18.67030259 -35.82054584 11.99552106 -31.25 6.25 C-22.38604011 -3.04136257 -11.67335654 -5.26671834 0 0 Z " fill="#E3760F" transform="translate(316.3125,281.5)"></path><path d="M0 0 C0 11.88 0 23.76 0 36 C-4.29 36 -8.58 36 -13 36 C-13.29811729 31.49511656 -13.51524347 27.00998913 -13.6875 22.5 C-13.77966797 21.2315625 -13.87183594 19.963125 -13.96679688 18.65625 C-14.23289316 9.36707043 -14.23289316 9.36707043 -10.57275391 5.30859375 C-3.40451389 0 -3.40451389 0 0 0 Z " fill="#FEFBF9" transform="translate(241,384)"></path><path d="M0 0 C1.30839844 0.04060547 2.61679687 0.08121094 3.96484375 0.12304688 C7.18648854 0.22886732 10.40622105 0.3902932 13.625 0.5625 C13.625 4.8525 13.625 9.1425 13.625 13.5625 C1.745 13.5625 -10.135 13.5625 -22.375 13.5625 C-21.715 12.2425 -21.055 10.9225 -20.375 9.5625 C-20.04419434 8.79043213 -19.71338867 8.01836426 -19.37255859 7.22290039 C-14.94099307 -1.37596299 -8.88220517 -0.52117252 0 0 Z " fill="#FEFBF9" transform="translate(406.375,227.4375)"></path></svg>