<svg version="1.1" xmlns="http://www.w3.org/2000/svg" width="16px" height="16px" fill="currentColor" viewBox="0 0 512 512"><path d="M0 0 C168.96 0 337.92 0 512 0 C512 168.96 512 337.92 512 512 C343.04 512 174.08 512 0 512 C0 343.04 0 174.08 0 0 Z " fill="#D72B6B" transform="translate(0,0)"></path><path d="M0 0 C2.51113127 1.04920417 2.70584491 2.38397819 3.86773682 4.78038025 C5.1918135 5.4652475 6.52682922 6.12908228 7.86773682 6.78038025 C10.61773682 9.28038025 10.61773682 9.28038025 12.86773682 11.78038025 C12.86773682 12.44038025 12.86773682 13.10038025 12.86773682 13.78038025 C13.46843994 14.04205994 14.06914307 14.30373962 14.68804932 14.573349 C17.00177959 15.85460823 18.12232012 17.02845107 19.74273682 19.09288025 C22.50724023 22.46388186 25.44341025 25.08983795 28.86773682 27.78038025 C27.21681904 32.07276648 24.13019116 34.65977175 20.86773682 37.78038025 C15.06180078 35.42002308 11.14521186 30.17042042 6.86773682 25.78038025 C6.53773682 34.69038025 6.20773682 43.60038025 5.86773682 52.78038025 C8.50773682 53.11038025 11.14773682 53.44038025 13.86773682 53.78038025 C27.95275761 59.10859535 36.22609564 67.31759408 42.86773682 80.78038025 C44.48674821 84.9178538 44.86773682 87.20506652 44.86773682 91.78038025 C53.77773682 91.45038025 62.68773682 91.12038025 71.86773682 90.78038025 C67.57773682 86.49038025 63.28773682 82.20038025 58.86773682 77.78038025 C60.48566362 74.54452664 61.42577791 72.94791957 63.86773682 70.53038025 C64.64117432 69.74920837 64.64117432 69.74920837 65.43023682 68.95225525 C66.86773682 67.78038025 66.86773682 67.78038025 68.86773682 67.78038025 C68.86773682 68.44038025 68.86773682 69.10038025 68.86773682 69.78038025 C69.52773682 69.78038025 70.18773682 69.78038025 70.86773682 69.78038025 C72.49273682 71.15538025 72.49273682 71.15538025 73.86773682 72.78038025 C73.86773682 73.44038025 73.86773682 74.10038025 73.86773682 74.78038025 C74.52773682 74.78038025 75.18773682 74.78038025 75.86773682 74.78038025 C77.30523682 76.276474 77.30523682 76.276474 78.86773682 78.21788025 C81.01298725 80.93226263 81.01298725 80.93226263 83.86773682 82.78038025 C83.86773682 83.44038025 83.86773682 84.10038025 83.86773682 84.78038025 C84.85773682 85.11038025 85.84773682 85.44038025 86.86773682 85.78038025 C89.05523682 87.71788025 89.05523682 87.71788025 90.86773682 89.78038025 C90.86773682 90.44038025 90.86773682 91.10038025 90.86773682 91.78038025 C91.46586182 92.04850525 92.06398682 92.31663025 92.68023682 92.59288025 C94.83998489 93.76531492 96.22563938 94.97407307 97.86773682 96.78038025 C96.21537031 101.07105571 92.97721611 103.92333554 89.76617432 107.07725525 C89.169711 107.67088867 88.57324768 108.26452209 87.95870972 108.87614441 C86.05803872 110.76564652 84.15052207 112.64806417 82.24273682 114.53038025 C80.95061213 115.8124709 79.65894006 117.09501786 78.36773682 118.3780365 C75.20629203 121.51746457 72.03869072 124.65055825 68.86773682 127.78038025 C65.69290305 126.28465532 63.84537146 124.8892955 61.61773682 122.15538025 C60.83656494 121.20791931 60.83656494 121.20791931 60.03961182 120.24131775 C59.65289307 119.75920837 59.26617432 119.277099 58.86773682 118.78038025 C60.14970947 117.51580994 60.14970947 117.51580994 61.45758057 116.22569275 C62.57359729 115.11905432 63.68947554 114.01227623 64.80523682 112.90538025 C65.65118408 112.07200134 65.65118408 112.07200134 66.51422119 111.2217865 C69.5663371 108.28822315 69.5663371 108.28822315 71.86773682 104.78038025 C62.95773682 104.78038025 54.04773682 104.78038025 44.86773682 104.78038025 C44.20773682 107.75038025 43.54773682 110.72038025 42.86773682 113.78038025 C38.23749372 126.40404978 30.04178516 134.82403715 18.02008057 140.62413025 C14.09087422 142.06532613 9.95325263 142.87248785 5.86773682 143.78038025 C6.19773682 152.69038025 6.52773682 161.60038025 6.86773682 170.78038025 C11.15773682 166.49038025 15.44773682 162.20038025 19.86773682 157.78038025 C26.82867432 163.45225525 26.82867432 163.45225525 28.86773682 167.78038025 C24.78066377 171.91676827 20.68715804 176.04663817 16.58746338 180.17051697 C15.19275533 181.57530333 13.79984478 182.98187661 12.40875244 184.39024353 C10.41276651 186.41039738 8.41047491 188.4241068 6.40679932 190.43663025 C5.78278229 191.07096985 5.15876526 191.70530945 4.51583862 192.35887146 C3.00396191 193.87114163 1.4403403 195.33136315 -0.13226318 196.78038025 C-0.79226318 196.78038025 -1.45226318 196.78038025 -2.13226318 196.78038025 C-3.49627686 195.39732361 -3.49627686 195.39732361 -5.11273193 193.432724 C-9.62257148 188.13053639 -14.51443773 183.25169156 -19.44476318 178.34288025 C-20.35032959 177.43344666 -21.255896 176.52401306 -22.18890381 175.58702087 C-23.05322021 174.72399353 -23.91753662 173.86096619 -24.80804443 172.9717865 C-25.98234009 171.79918274 -25.98234009 171.79918274 -27.18035889 170.60289001 C-29.00656851 168.72508658 -29.00656851 168.72508658 -31.13226318 167.78038025 C-29.4813454 163.48799402 -26.39471753 160.90098875 -23.13226318 157.78038025 C-19.05838387 159.39053255 -16.36607978 162.32055369 -13.38226318 165.40538025 C-10.78351318 168.06600525 -10.78351318 168.06600525 -8.13226318 170.78038025 C-7.80226318 161.87038025 -7.47226318 152.96038025 -7.13226318 143.78038025 C-12.57726318 142.79038025 -12.57726318 142.79038025 -18.13226318 141.78038025 C-31.34569325 136.11534632 -38.98228522 126.75603464 -45.00726318 114.03038025 C-46.13226318 110.78038025 -46.13226318 110.78038025 -46.13226318 104.78038025 C-59.49726318 105.27538025 -59.49726318 105.27538025 -73.13226318 105.78038025 C-69.17226318 109.74038025 -65.21226318 113.70038025 -61.13226318 117.78038025 C-63.13226318 121.78038025 -63.13226318 121.78038025 -70.13226318 127.78038025 C-79.70226318 118.21038025 -89.27226318 108.64038025 -99.13226318 98.78038025 C-97.00428441 94.5244227 -94.36901446 91.76243286 -91.03070068 88.48350525 C-90.43423737 87.88987183 -89.83777405 87.2962384 -89.22323608 86.68461609 C-87.32256509 84.79511398 -85.41504844 82.91269633 -83.50726318 81.03038025 C-82.2151385 79.7482896 -80.92346642 78.46574263 -79.63226318 77.182724 C-76.4708184 74.04329593 -73.30321709 70.91020224 -70.13226318 67.78038025 C-69.00026965 68.68839645 -67.87693955 69.60721851 -66.75726318 70.53038025 C-66.13077881 71.040849 -65.50429443 71.55131775 -64.85882568 72.07725525 C-63.13226318 73.78038025 -63.13226318 73.78038025 -61.13226318 77.78038025 C-65.42226318 82.07038025 -69.71226318 86.36038025 -74.13226318 90.78038025 C-60.27226318 91.27538025 -60.27226318 91.27538025 -46.13226318 91.78038025 C-45.80226318 88.48038025 -45.47226318 85.18038025 -45.13226318 81.78038025 C-40.72471166 70.0367698 -32.22077871 61.35995176 -21.13226318 55.78038025 C-16.82690521 54.19567194 -12.57134698 52.97368234 -8.13226318 51.78038025 C-8.13226318 42.87038025 -8.13226318 33.96038025 -8.13226318 24.78038025 C-12.42226318 29.07038025 -16.71226318 33.36038025 -21.13226318 37.78038025 C-24.74548719 35.97376825 -25.9697511 35.11619054 -28.38226318 32.15538025 C-28.90304443 31.52373962 -29.42382568 30.892099 -29.96038818 30.24131775 C-30.34710693 29.75920837 -30.73382568 29.277099 -31.13226318 28.78038025 C-27.09140261 24.61613751 -23.03454824 20.46842567 -18.96185303 16.33531189 C-17.57807374 14.9263523 -16.1988104 13.51294289 -14.82415771 12.09507751 C-12.84996727 10.06039457 -10.86020819 8.04214968 -8.86663818 6.026474 C-7.9460965 5.06722267 -7.9460965 5.06722267 -7.00695801 4.08859253 C-6.42665833 3.50791519 -5.84635864 2.92723785 -5.24847412 2.32896423 C-4.74217468 1.81156174 -4.23587524 1.29415924 -3.7142334 0.76107788 C-2.13226318 -0.21961975 -2.13226318 -0.21961975 0 0 Z " fill="#FEFAFC" transform="translate(260.13226318359375,161.21961975097656)"></path><path d="M0 0 C4.10108886 1.62156024 6.83148167 4.5767703 9.859375 7.6640625 C10.683237 8.49216934 10.683237 8.49216934 11.52374268 9.33700562 C13.27059293 11.09501815 15.01034601 12.8598689 16.75 14.625 C17.93573591 15.8207708 19.1219288 17.01608865 20.30859375 18.2109375 C23.21105085 21.13540253 26.1071641 24.06601874 29 27 C27.37843976 31.10108886 24.4232297 33.83148167 21.3359375 36.859375 C20.78386627 37.40861633 20.23179504 37.95785767 19.66299438 38.52374268 C17.90498185 40.27059293 16.1401311 42.01034601 14.375 43.75 C13.1792292 44.93573591 11.98391135 46.1219288 10.7890625 47.30859375 C7.86459747 50.21105085 4.93398126 53.1071641 2 56 C-2.10108886 54.37843976 -4.83148167 51.4232297 -7.859375 48.3359375 C-8.40861633 47.78386627 -8.95785767 47.23179504 -9.52374268 46.66299438 C-11.27059293 44.90498185 -13.01034601 43.1401311 -14.75 41.375 C-15.93573591 40.1792292 -17.1219288 38.98391135 -18.30859375 37.7890625 C-21.21105085 34.86459747 -24.1071641 31.93398126 -27 29 C-25.37843976 24.89891114 -22.4232297 22.16851833 -19.3359375 19.140625 C-18.78386627 18.59138367 -18.23179504 18.04214233 -17.66299438 17.47625732 C-15.90498185 15.72940707 -14.1401311 13.98965399 -12.375 12.25 C-11.1792292 11.06426409 -9.98391135 9.8780712 -8.7890625 8.69140625 C-5.86459747 5.78894915 -2.93398126 2.8928359 0 0 Z " fill="#FEFAFB" transform="translate(406,231)"></path><path d="M0 0 C5.78313693 4.8032165 11.20607993 9.92373871 16.55517578 15.20507812 C17.52748263 16.16062673 18.50514744 17.11075057 19.48779297 18.05566406 C20.92035975 19.43376962 22.33550098 20.8299183 23.75 22.2265625 C24.59046875 23.04721191 25.4309375 23.86786133 26.296875 24.71337891 C28 27 28 27 27.76271057 28.96536255 C26.48888308 32.3634761 23.76862751 34.59450703 21.21484375 37.078125 C20.63916153 37.64956238 20.06347931 38.22099976 19.47035217 38.80975342 C17.63299681 40.63033802 15.78547868 42.44020568 13.9375 44.25 C12.68876862 45.48368253 11.44071331 46.71804978 10.19335938 47.953125 C7.1366898 50.97674655 4.07086474 53.99079921 1 57 C-5.55377097 51.61359076 -11.47246635 45.64114873 -17.4375 39.625 C-18.46525983 38.59221405 -19.49325285 37.55966009 -20.52148438 36.52734375 C-23.01701598 34.02089713 -25.50938082 31.5113292 -28 29 C-22.61359076 22.44622903 -16.64114873 16.52753365 -10.625 10.5625 C-9.59221405 9.53474017 -8.55966009 8.50674715 -7.52734375 7.47851562 C-5.02089713 4.98298402 -2.5113292 2.49061918 0 0 Z " fill="#FEF9FB" transform="translate(259,83)"></path><path d="M0 0 C4.10108886 1.62156024 6.83148167 4.5767703 9.859375 7.6640625 C10.683237 8.49216934 10.683237 8.49216934 11.52374268 9.33700562 C13.27059293 11.09501815 15.01034601 12.8598689 16.75 14.625 C17.93573591 15.8207708 19.1219288 17.01608865 20.30859375 18.2109375 C23.21105085 21.13540253 26.1071641 24.06601874 29 27 C27.37724852 31.07637122 24.46284177 33.82612042 21.40625 36.859375 C20.85892212 37.40861633 20.31159424 37.95785767 19.74768066 38.52374268 C18.5935222 39.67925859 17.43684833 40.83226685 16.27783203 41.98291016 C14.49926054 43.750735 12.73165237 45.5290213 10.96484375 47.30859375 C9.84178692 48.43032971 8.71811024 49.55144551 7.59375 50.671875 C7.0635022 51.20617126 6.53325439 51.74046753 5.98693848 52.29095459 C2.22993854 56 2.22993854 56 0 56 C-1.35961914 54.61914062 -1.35961914 54.61914062 -2.97265625 52.65625 C-7.51249936 47.31719676 -12.46140488 42.42952259 -17.4375 37.5 C-18.35982422 36.5821875 -19.28214844 35.664375 -20.23242188 34.71875 C-22.48599899 32.47684945 -24.74189075 30.237334 -27 28 C-21.75541414 21.63409696 -15.97902678 15.86429388 -10.125 10.0625 C-9.14039081 9.08291763 -8.156014 8.10310163 -7.171875 7.12304688 C-4.78351797 4.74639748 -2.39284788 2.37212644 0 0 Z " fill="#FEFBFC" transform="translate(258,379)"></path><path d="M0 0 C6.55377097 5.38640924 12.47246635 11.35885127 18.4375 17.375 C19.46525983 18.40778595 20.49325285 19.44033991 21.52148438 20.47265625 C24.01701598 22.97910287 26.50938082 25.4886708 29 28 C23.75541414 34.36590304 17.97902678 40.13570612 12.125 45.9375 C11.14039081 46.91708237 10.156014 47.89689837 9.171875 48.87695312 C6.78351797 51.25360252 4.39284788 53.62787356 2 56 C-2.10108886 54.37843976 -4.83148167 51.4232297 -7.859375 48.3359375 C-8.40861633 47.78386627 -8.95785767 47.23179504 -9.52374268 46.66299438 C-11.27059293 44.90498185 -13.01034601 43.1401311 -14.75 41.375 C-15.93573591 40.1792292 -17.1219288 38.98391135 -18.30859375 37.7890625 C-21.21105085 34.86459747 -24.1071641 31.93398126 -27 29 C-25.37843976 24.89891114 -22.4232297 22.16851833 -19.3359375 19.140625 C-18.78386627 18.59138367 -18.23179504 18.04214233 -17.66299438 17.47625732 C-15.90498185 15.72940707 -14.1401311 13.98965399 -12.375 12.25 C-11.1792292 11.06426409 -9.98391135 9.8780712 -8.7890625 8.69140625 C-5.86459747 5.78894915 -2.93398126 2.8928359 0 0 Z " fill="#FEFBFC" transform="translate(111,231)"></path><path d="M0 0 C0 8.91 0 17.82 0 27 C-8.91 27 -17.82 27 -27 27 C-22.99300134 14.97900403 -19.08216614 8.33266636 -8 2 C-5.10888127 0.81257623 -3.08632038 0 0 0 Z " fill="#D83270" transform="translate(253,226)"></path><path d="M0 0 C9.06494164 1.29499166 14.99280373 4.90987151 20.71484375 12.06640625 C23.5417531 16.31965891 26 20.83804228 26 26 C17.42 26 8.84 26 0 26 C0 17.42 0 8.84 0 0 Z " fill="#DA3271" transform="translate(266,227)"></path><path d="M0 0 C8.58 0 17.16 0 26 0 C26 8.58 26 17.16 26 26 C16.81511318 24.46918553 10.26627782 20.24782029 4.40625 13.01953125 C1.4530849 8.77845804 0 5.26766857 0 0 Z " fill="#D52D6D" transform="translate(227,266)"></path><path d="M0 0 C8.58 0 17.16 0 26 0 C24.28202675 8.58986627 19.96770654 15.61039206 13 21 C4.6835443 26 4.6835443 26 0 26 C0 17.42 0 8.84 0 0 Z " fill="#D72C6C" transform="translate(266,266)"></path><path d="M0 0 C3.15204981 1.39347376 5.26171773 3.02485079 7.671875 5.4765625 C8.66767578 6.48203125 8.66767578 6.48203125 9.68359375 7.5078125 C10.36550781 8.20648438 11.04742187 8.90515625 11.75 9.625 C12.44738281 10.33140625 13.14476562 11.0378125 13.86328125 11.765625 C15.58012488 13.50598703 17.29211832 15.25084981 19 17 C17.61437164 19.88276115 16.2806067 21.99219936 14 24.25 C13.484375 24.77078125 12.96875 25.2915625 12.4375 25.828125 C11 27 11 27 9 27 C7.625 25.56640625 7.625 25.56640625 6 23.5625 C1.76099049 18.55276148 -3.05526122 14.29804256 -8 10 C-6.07712966 5.70621187 -3.37521131 3.22846299 0 0 Z " fill="#FDF5F8" transform="translate(367,211)"></path><path d="M0 0 C4.64080887 2.09691569 7.73327953 5.32828506 11.3125 8.875 C11.97056641 9.50019531 12.62863281 10.12539062 13.30664062 10.76953125 C13.92345703 11.37925781 14.54027344 11.98898438 15.17578125 12.6171875 C15.74208252 13.17003418 16.30838379 13.72288086 16.8918457 14.29248047 C18 16 18 16 17.75585938 18.1027832 C16.87729359 20.30799467 15.84654569 21.61985339 14.1875 23.3125 C13.68605469 23.84488281 13.18460937 24.37726563 12.66796875 24.92578125 C11 26 11 26 9.12524414 25.77832031 C6.53136055 24.8283719 5.25254348 23.59528168 3.328125 21.62109375 C2.66425781 20.94755859 2.00039063 20.27402344 1.31640625 19.58007812 C0.63449219 18.87302734 -0.04742187 18.16597656 -0.75 17.4375 C-1.44738281 16.72658203 -2.14476562 16.01566406 -2.86328125 15.28320312 C-4.5824658 13.52869286 -6.29425872 11.76756648 -8 10 C-5.95933017 5.73384496 -3.41446998 3.26601476 0 0 Z " fill="#FDF5F8" transform="translate(331,175)"></path><path d="M0 0 C7 6 7 6 9 10 C3.39 15.61 -2.22 21.22 -8 27 C-12 25 -12 25 -18 18 C-12.06 12.06 -6.12 6.12 0 0 Z " fill="#FDF8FA" transform="translate(371,286)"></path><path d="M0 0 C4.50045387 3.70037318 8.79872349 7.59056362 13 11.625 C13.5050708 12.09204346 14.0101416 12.55908691 14.53051758 13.0402832 C15.9375 14.4140625 15.9375 14.4140625 18 17 C18.00494315 19.69896139 17.29300952 20.64611593 15.58984375 22.703125 C15.04457031 23.21359375 14.49929687 23.7240625 13.9375 24.25 C13.38964844 24.77078125 12.84179688 25.2915625 12.27734375 25.828125 C11.85582031 26.21484375 11.43429688 26.6015625 11 27 C7.84795019 25.60652624 5.73828227 23.97514921 3.328125 21.5234375 C2.66425781 20.853125 2.00039062 20.1828125 1.31640625 19.4921875 C0.63449219 18.79351562 -0.04742187 18.09484375 -0.75 17.375 C-1.79607422 16.31539063 -1.79607422 16.31539063 -2.86328125 15.234375 C-4.58012488 13.49401297 -6.29211832 11.74915019 -8 10 C-5.95933017 5.73384496 -3.41446998 3.26601476 0 0 Z " fill="#FDF8FA" transform="translate(183,322)"></path><path d="M0 0 C3.95575857 1.97787928 6.19142665 3.62971198 9 7 C8.73686097 10.65146011 6.94753996 12.40555154 4.40234375 14.890625 C3.68369141 15.59960938 2.96503906 16.30859375 2.22460938 17.0390625 C1.46986328 17.76867187 0.71511719 18.49828125 -0.0625 19.25 C-1.20041992 20.36761719 -1.20041992 20.36761719 -2.36132812 21.5078125 C-4.23432207 23.34546694 -6.11395611 25.17575724 -8 27 C-9.13199353 26.0919838 -10.25532363 25.17316174 -11.375 24.25 C-12.00148437 23.73953125 -12.62796875 23.2290625 -13.2734375 22.703125 C-15 21 -15 21 -17 17 C-11.39 11.39 -5.78 5.78 0 0 Z " fill="#FDF8FA" transform="translate(150,211)"></path><path d="M0 0 C3.15204981 1.39347376 5.26171773 3.02485079 7.671875 5.4765625 C8.66767578 6.48203125 8.66767578 6.48203125 9.68359375 7.5078125 C10.36550781 8.20648438 11.04742187 8.90515625 11.75 9.625 C12.44738281 10.33140625 13.14476562 11.0378125 13.86328125 11.765625 C15.58012488 13.50598703 17.29211832 15.25084981 19 17 C17.23770311 20.77519562 15.23124812 23.30729323 12 26 C8.34853989 25.73686097 6.59444846 23.94753996 4.109375 21.40234375 C3.40039062 20.68369141 2.69140625 19.96503906 1.9609375 19.22460938 C1.23132813 18.46986328 0.50171875 17.71511719 -0.25 16.9375 C-0.99507813 16.17888672 -1.74015625 15.42027344 -2.5078125 14.63867188 C-4.34546694 12.76567793 -6.17575724 10.88604389 -8 9 C-7.04270084 7.87411986 -6.08412105 6.7493285 -5.125 5.625 C-4.59132813 4.99851563 -4.05765625 4.37203125 -3.5078125 3.7265625 C-2.38567993 2.44163349 -1.20628025 1.20628025 0 0 Z " fill="#FEF8FA" transform="translate(294,139)"></path><path d="M0 0 C1.13199353 0.9080162 2.25532363 1.82683826 3.375 2.75 C4.00148437 3.26046875 4.62796875 3.7709375 5.2734375 4.296875 C7 6 7 6 9 10 C3.39 15.61 -2.22 21.22 -8 27 C-11.95575857 25.02212072 -14.19142665 23.37028802 -17 20 C-16.73686097 16.34853989 -14.94753996 14.59444846 -12.40234375 12.109375 C-11.68369141 11.40039062 -10.96503906 10.69140625 -10.22460938 9.9609375 C-9.46986328 9.23132813 -8.71511719 8.50171875 -7.9375 7.75 C-7.17888672 7.00492188 -6.42027344 6.25984375 -5.63867188 5.4921875 C-3.76567793 3.65453306 -1.88604389 1.82424276 0 0 Z " fill="#FDF8FA" transform="translate(223,138)"></path><path d="M0 0 C4.28359673 1.8855148 6.15103592 4.35965701 9 8 C6.90308431 12.64080887 3.67171494 15.73327953 0.125 19.3125 C-0.81279297 20.29959961 -0.81279297 20.29959961 -1.76953125 21.30664062 C-2.37925781 21.92345703 -2.98898437 22.54027344 -3.6171875 23.17578125 C-4.17003418 23.74208252 -4.72288086 24.30838379 -5.29248047 24.8918457 C-7 26 -7 26 -9.1027832 25.75585938 C-11.30799467 24.87729359 -12.61985339 23.84654569 -14.3125 22.1875 C-14.84488281 21.68605469 -15.37726563 21.18460937 -15.92578125 20.66796875 C-17 19 -17 19 -16.890625 17.00390625 C-15.79202667 14.53206001 -14.53959196 13.44483735 -12.4375 11.75 C-8.02890953 8.07484592 -4.00786583 4.10379878 0 0 Z " fill="#FDF7F9" transform="translate(298,359)"></path><path d="M0 0 C3.15204981 1.39347376 5.26171773 3.02485079 7.671875 5.4765625 C8.66767578 6.48203125 8.66767578 6.48203125 9.68359375 7.5078125 C10.36550781 8.20648438 11.04742187 8.90515625 11.75 9.625 C12.44738281 10.33140625 13.14476562 11.0378125 13.86328125 11.765625 C15.58012488 13.50598703 17.29211832 15.25084981 19 17 C18.0919838 18.13199353 17.17316174 19.25532363 16.25 20.375 C15.73953125 21.00148438 15.2290625 21.62796875 14.703125 22.2734375 C13 24 13 24 9 26 C3.39 20.39 -2.22 14.78 -8 9 C-2 2 -2 2 0 0 Z " fill="#FEFBFC" transform="translate(219,359)"></path><path d="M0 0 C4 2 4 2 10 9 C4.39 14.61 -1.22 20.22 -7 26 C-11 24 -11 24 -17 17 C-11.39 11.39 -5.78 5.78 0 0 Z " fill="#FEFBFC" transform="translate(334,323)"></path><path d="M0 0 C6.41069287 5.27101414 12.18590512 11.09128152 18 17 C16 21 16 21 9 27 C3.39 21.39 -2.22 15.78 -8 10 C-5.77502475 5.55004949 -3.55366005 3.39915309 0 0 Z " fill="#FEFBFC" transform="translate(147,286)"></path><path d="M0 0 C4 2 4 2 10 9 C4.39 14.61 -1.22 20.22 -7 26 C-11 24 -11 24 -17 17 C-11.39 11.39 -5.78 5.78 0 0 Z " fill="#FEFBFC" transform="translate(186,175)"></path><path d="M0 0 C1.65625 1.64453125 1.65625 1.64453125 3.5 3.8125 C4.1084375 4.52019531 4.716875 5.22789062 5.34375 5.95703125 C7 8 7 8 9 11 C6.03 13.97 3.06 16.94 0 20 C-3.49353838 18.25323081 -5.13945763 17.08594785 -7.75 14.375 C-8.36359375 13.74335938 -8.9771875 13.11171875 -9.609375 12.4609375 C-10.06828125 11.97882813 -10.5271875 11.49671875 -11 11 C-9.60249952 7.84164893 -7.94801766 5.67727175 -5.5 3.25 C-4.8915625 2.63640625 -4.283125 2.0228125 -3.65625 1.390625 C-2 0 -2 0 0 0 Z " fill="#E33D7A" transform="translate(408,249)"></path><path d="M0 0 C3.49353838 1.74676919 5.13945763 2.91405215 7.75 5.625 C8.67039062 6.57246094 8.67039062 6.57246094 9.609375 7.5390625 C10.06828125 8.02117187 10.5271875 8.50328125 11 9 C9.59155282 12.21524305 7.89655214 14.32183868 5.375 16.75 C4.74335938 17.36359375 4.11171875 17.9771875 3.4609375 18.609375 C2.97882813 19.06828125 2.49671875 19.5271875 2 20 C-2.13621084 16.6189962 -5.81316569 13.33409466 -9 9 C-6.03 6.03 -3.06 3.06 0 0 Z " fill="#CD2A69" transform="translate(258,397)"></path><path d="M0 0 C1.1055189 0.93590504 2.20935453 1.87379858 3.3125 2.8125 C3.92738281 3.33457031 4.54226562 3.85664063 5.17578125 4.39453125 C6.85424679 5.87172469 8.43882034 7.40039131 10 9 C8.59155282 12.21524305 6.89655214 14.32183868 4.375 16.75 C3.74335937 17.36359375 3.11171875 17.9771875 2.4609375 18.609375 C1.97882813 19.06828125 1.49671875 19.5271875 1 20 C-0.1055189 19.06409496 -1.20935453 18.12620142 -2.3125 17.1875 C-2.92738281 16.66542969 -3.54226562 16.14335937 -4.17578125 15.60546875 C-5.85424679 14.12827531 -7.43882034 12.59960869 -9 11 C-7.59155282 7.78475695 -5.89655214 5.67816132 -3.375 3.25 C-2.74335937 2.63640625 -2.11171875 2.0228125 -1.4609375 1.390625 C-0.73777344 0.70226562 -0.73777344 0.70226562 0 0 Z " fill="#CC2565" transform="translate(111,249)"></path><path d="M0 0 C3.21524305 1.40844718 5.32183868 3.10344786 7.75 5.625 C8.67039062 6.57246094 8.67039062 6.57246094 9.609375 7.5390625 C10.06828125 8.02117187 10.5271875 8.50328125 11 9 C10.06409496 10.1055189 9.12620142 11.20935453 8.1875 12.3125 C7.66542969 12.92738281 7.14335937 13.54226562 6.60546875 14.17578125 C5.12827531 15.85424679 3.59960869 17.43882034 2 19 C-1.21524305 17.59155282 -3.32183868 15.89655214 -5.75 13.375 C-6.36359375 12.74335937 -6.9771875 12.11171875 -7.609375 11.4609375 C-8.06828125 10.97882813 -8.5271875 10.49671875 -9 10 C-8.06409496 8.8944811 -7.12620142 7.79064547 -6.1875 6.6875 C-5.66542969 6.07261719 -5.14335937 5.45773438 -4.60546875 4.82421875 C-3.12827531 3.14575321 -1.59960869 1.56117966 0 0 Z " fill="#E33876" transform="translate(258,102)"></path></svg>