<svg version="1.1" xmlns="http://www.w3.org/2000/svg" width="16px" height="16px" fill="currentColor" viewBox="0 0 512 512"><path d="M0 0 C168.96 0 337.92 0 512 0 C512 168.96 512 337.92 512 512 C343.04 512 174.08 512 0 512 C0 343.04 0 174.08 0 0 Z " fill="#2D8F7A" transform="translate(0,0)"></path><path d="M0 0 C0.64195312 0.23605957 1.28390625 0.47211914 1.9453125 0.71533203 C27.02585692 10.10237942 48.04135222 30.08270444 60 54 C62.09491568 52.98110919 64.10866448 51.93309836 66.09375 50.7109375 C75.02073069 45.75472419 85.05635575 45.55171386 95 47 C99.52289269 48.39495532 103.14120258 50.28130182 107 53 C107.6703125 53.45632812 108.340625 53.91265625 109.03125 54.3828125 C119.76591039 62.62213517 125.32260669 76.12011551 128 89 C128 90.32 128 91.64 128 93 C128.57105469 93.01417969 129.14210938 93.02835937 129.73046875 93.04296875 C144.86925843 93.93348579 160.74702271 101.87132359 171 113 C185.08840855 130.41419679 187.11976869 148.26685508 186 170 C185.43920841 174.23463884 184.48684188 178.00336904 183 182 C182.63648438 183.010625 182.27296875 184.02125 181.8984375 185.0625 C179.35361527 191.62978319 176.23117217 197.37656552 172 203 C171.55011719 203.61488281 171.10023438 204.22976563 170.63671875 204.86328125 C160.79339939 217.36845599 144.35050107 223.73358012 129 226 C121.18176772 226.60367283 113.33297275 226.38219155 105.5 226.25 C103.40496519 226.22988351 101.3099115 226.21164194 99.21484375 226.1953125 C94.14275267 226.15177304 89.07159189 226.08303614 84 226 C84 222.04 84 218.08 84 214 C85.23862793 214.00112793 86.47725586 214.00225586 87.75341797 214.00341797 C92.43940724 213.99968996 97.12440234 213.95638303 101.81005859 213.90234375 C103.82106021 213.88440268 105.83218279 213.87657457 107.84326172 213.87988281 C124.58351306 213.89659799 141.66984546 212.3147964 155 201 C155.60714844 200.52433594 156.21429688 200.04867187 156.83984375 199.55859375 C165.71168904 191.81271569 170.7970423 178.45787432 172 167 C172.93997576 151.37331528 172.68236554 136.50113037 162 124 C151.41791492 112.68094828 138.31230213 106.81855099 122.9375 105.5 C119 105 119 105 117.33203125 103.95703125 C115.29940656 100.97068237 115.18660433 97.69115317 114.75 94.1875 C113.10950444 83.25866365 109.34051392 73.61237381 101 66 C95.02489209 61.64315048 90.25660419 59.39900081 82.828125 59.5546875 C76.10130695 60.61388261 69.23427842 64.00163867 64.875 69.3125 C63.946875 70.6428125 63.946875 70.6428125 63 72 C60.20129973 73.39935013 58.09501208 73.25265405 55 73 C51.48678726 70.13425695 50.19384026 66.182951 48.4375 62.125 C44.65310415 53.79985806 40.0882985 46.83005233 34 40 C33.50870605 39.44828125 33.01741211 38.8965625 32.51123047 38.328125 C18.3598778 22.74242304 0.17163028 11.10223704 -21.31005859 9.8671875 C-43.11433026 8.8633461 -63.05997546 13.51455863 -79.91015625 28.09375 C-80.59980469 28.7228125 -81.28945312 29.351875 -82 30 C-82.89525391 30.75796875 -82.89525391 30.75796875 -83.80859375 31.53125 C-96.78927851 43.2828168 -105.62311282 61.66631066 -107 79 C-107.07197429 80.83172839 -107.13492895 82.66382207 -107.19140625 84.49609375 C-107.22387451 85.482146 -107.25634277 86.46819824 -107.28979492 87.48413086 C-107.3458307 89.46754053 -107.38172677 91.4516395 -107.39575195 93.43579102 C-107.55643565 100.2958416 -107.55643565 100.2958416 -109.5625 103.48046875 C-112.75348097 105.4697181 -116.07513291 106.65144857 -119.625 107.8125 C-130.92305736 111.79944869 -140.55870341 117.92062004 -146.46875 128.671875 C-150.80570873 137.79966023 -152.24775276 145.97003679 -153 156 C-156.96 156 -160.92 156 -165 156 C-165.67457156 139.11072681 -162.3152308 124.50919451 -150.8125 111.6875 C-142.6191088 102.98071394 -133.06207929 98.18930403 -122 94 C-121.96261719 92.94683594 -121.92523438 91.89367187 -121.88671875 90.80859375 C-121.20117082 74.5959533 -118.26490367 60.53365528 -111 46 C-110.46375 44.92621094 -109.9275 43.85242188 -109.375 42.74609375 C-96.77242753 19.51010076 -74.76234144 5.51724496 -50.17578125 -2.16796875 C-34.38705606 -6.30449823 -15.25212768 -5.78825116 0 0 Z " fill="#FAFCFC" transform="translate(249,113)"></path><path d="M0 0 C2.24813 1.56819364 4.08391766 3.02740176 6.0625 4.875 C7.20109215 5.88770684 8.34178591 6.89805488 9.484375 7.90625 C10.06509766 8.42316406 10.64582031 8.94007813 11.24414062 9.47265625 C14.01542987 11.88327715 16.90783821 14.12842564 19.8125 16.375 C25.63636499 20.90367528 31.36609796 25.5380488 37.07568359 30.2097168 C42.49533651 34.62835915 48.02647867 38.87997358 53.62109375 43.07421875 C56.50272059 45.40696429 56.89832767 46.18097292 57.3515625 49.83203125 C56.88714499 54.01694906 55.5520558 54.99112267 52.375 57.6875 C51.88644531 58.10829834 51.39789063 58.52909668 50.89453125 58.96264648 C45.8582163 63.24872091 40.62661948 67.30754529 35.3984375 71.35546875 C30.51788447 75.1376932 25.7684648 79.07815558 21 83 C18.2533535 85.25412507 15.50254793 87.50308659 12.75 89.75 C11.75734131 90.56476807 11.75734131 90.56476807 10.74462891 91.39599609 C-0.69818646 100.7275274 -0.69818646 100.7275274 -4.6875 101.5625 C-8.06011166 100.742135 -8.98071567 99.87927181 -11 97 C-11.50484342 93.24112398 -11.3748483 89.53386396 -11.25 85.75 C-11.23195312 84.71875 -11.21390625 83.6875 -11.1953125 82.625 C-11.14822712 80.08238936 -11.0824805 77.54166838 -11 75 C-12.30656555 75.00888245 -13.6131311 75.01776489 -14.95928955 75.0269165 C-27.26069277 75.10793454 -39.56204199 75.16793293 -51.86365128 75.20724869 C-58.1883479 75.2281407 -64.51282949 75.25648834 -70.83740234 75.30175781 C-76.93874989 75.34515716 -83.03989035 75.36912494 -89.14138031 75.37950897 C-91.47145601 75.38691091 -93.80152013 75.4013648 -96.13150787 75.42292023 C-99.39033171 75.45187487 -102.6482952 75.45595922 -105.90722656 75.45410156 C-106.874673 75.46848267 -107.84211945 75.48286377 -108.83888245 75.49768066 C-115.341113 75.45746228 -115.341113 75.45746228 -118.58392334 73.20599365 C-120.50473645 70.21371107 -120.73039838 67.5048211 -121 64 C-121.48130371 64.35602295 -121.96260742 64.7120459 -122.45849609 65.07885742 C-124.76324508 66.78275851 -127.06909819 68.48515937 -129.375 70.1875 C-130.22102783 70.81301758 -131.06705566 71.43853516 -131.9387207 72.08300781 C-136.35735786 75.34285277 -140.79142274 78.57613763 -145.26953125 81.75390625 C-146.09598145 82.34212158 -146.92243164 82.93033691 -147.77392578 83.53637695 C-149.36603035 84.66676153 -150.96199457 85.79173212 -152.56201172 86.91088867 C-153.63539795 87.67429565 -153.63539795 87.67429565 -154.73046875 88.453125 C-155.36364014 88.89817383 -155.99681152 89.34322266 -156.64916992 89.80175781 C-157.09494385 90.19717773 -157.54071777 90.59259766 -158 91 C-158 91.66 -158 92.32 -158 93 C-156.43843829 94.33643453 -156.43843829 94.33643453 -154.37109375 95.65234375 C-153.58992188 96.17658936 -152.80875 96.70083496 -152.00390625 97.2409668 C-151.15699219 97.80082275 -150.31007813 98.36067871 -149.4375 98.9375 C-141.78998475 104.07207514 -134.30065827 109.36424057 -126.90625 114.85546875 C-124.97098439 116.28350748 -123.00117136 117.66588576 -121 119 C-120.90203125 118.38511719 -120.8040625 117.77023437 -120.703125 117.13671875 C-120.55359375 116.32847656 -120.4040625 115.52023437 -120.25 114.6875 C-120.11078125 113.88699219 -119.9715625 113.08648437 -119.828125 112.26171875 C-118.71725162 109.22777682 -117.85315204 108.55928076 -115 107 C-111.95044877 106.58531667 -108.93195242 106.65134237 -105.859375 106.70703125 C-104.97719299 106.71127609 -104.09501099 106.71552094 -103.18609619 106.71989441 C-100.37375117 106.73666162 -97.56212774 106.77431002 -94.75 106.8125 C-92.8411562 106.82754938 -90.93230114 106.84123734 -89.0234375 106.85351562 C-84.34868111 106.88655873 -79.67446282 106.93832745 -75 107 C-75 111.29 -75 115.58 -75 120 C-85.56 120 -96.12 120 -107 120 C-107 124.95 -107 129.9 -107 135 C-110 139 -110 139 -112.69921875 139.578125 C-117.31303725 138.77002425 -120.12678748 136.54003096 -123.8125 133.75 C-125.3304332 132.63891847 -126.84867081 131.5282527 -128.3671875 130.41796875 C-129.13772461 129.84739746 -129.90826172 129.27682617 -130.70214844 128.68896484 C-134.23995065 126.08861256 -137.84040362 123.57979417 -141.4375 121.0625 C-147.50557845 116.78655567 -153.54281322 112.46877606 -159.5625 108.125 C-160.28816162 107.60172119 -161.01382324 107.07844238 -161.76147461 106.53930664 C-176.86874253 95.61253486 -176.86874253 95.61253486 -177.5625 92.375 C-176.48129768 85.88778606 -170.42798516 83.00882138 -165.3515625 79.37890625 C-162.47736589 77.34107216 -159.58973473 75.32318641 -156.69921875 73.30859375 C-151.90466038 69.95410771 -147.1995753 66.48574269 -142.5 63 C-140.12408002 61.24848932 -137.74698087 59.49858982 -135.36962891 57.74902344 C-133.77774954 56.57405705 -132.18891775 55.39495148 -130.60302734 54.21191406 C-128.3075133 52.50267969 -125.99925441 50.81217515 -123.6875 49.125 C-123.00042969 48.60679687 -122.31335938 48.08859375 -121.60546875 47.5546875 C-118.50917761 45.31847723 -116.53776029 44.08292863 -112.70703125 43.4921875 C-110 44 -110 44 -108.3425293 45.02001953 C-106.21048958 48.1643807 -106.68795469 51.53097742 -106.8125 55.1875 C-106.83280273 56.31188477 -106.83280273 56.31188477 -106.85351562 57.45898438 C-106.88881461 59.30629767 -106.94262083 61.15324066 -107 63 C-106.45646976 62.99723462 -105.91293951 62.99446924 -105.35293865 62.99162006 C-92.13312123 62.92539289 -78.91333283 62.87592683 -65.69338512 62.84456348 C-59.30032877 62.82888785 -52.90739188 62.8076148 -46.5144043 62.77368164 C-40.34823236 62.74115611 -34.18217554 62.72316129 -28.01592445 62.71536827 C-25.65991719 62.70981253 -23.30391643 62.69896397 -20.94795799 62.68280983 C-17.65551362 62.66112632 -14.36354886 62.6580293 -11.07104492 62.65942383 C-9.60045624 62.64324509 -9.60045624 62.64324509 -8.10015869 62.6267395 C-7.20413437 62.63086349 -6.30811005 62.63498749 -5.38493347 62.63923645 C-4.6060184 62.63647107 -3.82710333 62.63370569 -3.02458477 62.63085651 C-0.43319675 63.1033455 0.43839253 63.90552079 2 66 C2.51171875 69.35546875 2.51171875 69.35546875 2.6875 73.1875 C2.75324219 74.45980469 2.81898438 75.73210937 2.88671875 77.04296875 C2.92410156 78.01878906 2.96148437 78.99460937 3 80 C3.43119141 79.64397705 3.86238281 79.2879541 4.30664062 78.92114258 C12.47869941 72.17617378 20.65984705 65.44245109 28.875 58.75 C29.54595703 58.20190674 30.21691406 57.65381348 30.90820312 57.08911133 C31.53404297 56.58017334 32.15988281 56.07123535 32.8046875 55.546875 C33.35108887 55.10182617 33.89749023 54.65677734 34.46044922 54.19824219 C35.92117693 53.0613485 37.45986328 52.02675781 39 51 C37.66468299 46.99404897 35.0066493 45.44313365 31.75 43 C26.76499158 39.18064351 21.88998548 35.27833508 17.125 31.1875 C12.54493428 27.26557296 7.88152886 23.54150133 3 20 C2.97421875 20.89203125 2.9484375 21.7840625 2.921875 22.703125 C2.86515625 23.87359375 2.8084375 25.0440625 2.75 26.25 C2.70359375 27.41015625 2.6571875 28.5703125 2.609375 29.765625 C1.86607557 33.71082969 1.2520472 34.67319015 -2 37 C-5.12388876 37.55347532 -8.19556808 37.46517276 -11.359375 37.390625 C-12.26375305 37.38496521 -13.1681311 37.37930542 -14.09991455 37.37347412 C-16.98381853 37.35111248 -19.86647261 37.30091686 -22.75 37.25 C-24.70701329 37.22993471 -26.66404608 37.21168399 -28.62109375 37.1953125 C-33.41454289 37.15124839 -38.20705965 37.08222252 -43 37 C-43 32.71 -43 28.42 -43 24 C-32.44 24 -21.88 24 -11 24 C-11.15783515 17.26838676 -11.15783515 17.26838676 -11.36035156 10.53808594 C-11.44066187 3.76352304 -11.44066187 3.76352304 -9.421875 0.265625 C-5.82880186 -1.61204548 -3.85561917 -1.12057823 0 0 Z " fill="#FBFCFC" transform="translate(254,264)"></path><path d="M0 0 C25.41 0 50.82 0 77 0 C77 4.29 77 8.58 77 13 C51.59 13 26.18 13 0 13 C0 8.71 0 4.42 0 0 Z " fill="#F8FBFA" transform="translate(230,371)"></path><path d="M0 0 C27.39 0 54.78 0 83 0 C83 3.96 83 7.92 83 12 C55.61 12 28.22 12 0 12 C0 8.04 0 4.08 0 0 Z " fill="#FEFEFE" transform="translate(83,289)"></path><path d="M0 0 C6.27 0 12.54 0 19 0 C19 4.29 19 8.58 19 13 C12.73 13 6.46 13 0 13 C0 8.71 0 4.42 0 0 Z " fill="#F9FBFB" transform="translate(192,371)"></path><path d="M0 0 C5.94 0 11.88 0 18 0 C18 4.29 18 8.58 18 13 C12.06 13 6.12 13 0 13 C0 8.71 0 4.42 0 0 Z " fill="#F4F9F8" transform="translate(179,288)"></path></svg>