<svg version="1.1" xmlns="http://www.w3.org/2000/svg" width="16px" height="16px" fill="currentColor" viewBox="0 0 512 512"><path d="M0 0 C168.96 0 337.92 0 512 0 C512 168.96 512 337.92 512 512 C343.04 512 174.08 512 0 512 C0 343.04 0 174.08 0 0 Z " fill="#2E907B" transform="translate(0,0)"></path><path d="M0 0 C4.11641158 1.67746531 7.77687206 3.83079993 11.5390625 6.1875 C12.39951172 6.71512939 13.25996094 7.24275879 14.14648438 7.78637695 C16.04810026 8.95247163 17.94740475 10.12234166 19.84472656 11.29541016 C24.76335914 14.32749753 29.70963125 17.31395293 34.65209961 20.3069458 C37.02187816 21.7434414 39.38931987 23.18376385 41.7567749 24.62408447 C46.71929214 27.64319374 51.68555326 30.65581321 56.66107178 33.65345764 C59.18256697 35.17280521 61.70252415 36.69469399 64.22241211 38.21670532 C65.41224956 38.93440948 66.60281593 39.65090693 67.79418945 40.36605835 C69.46370584 41.3683947 71.13032687 42.37554864 72.796875 43.3828125 C73.73934082 43.95016113 74.68180664 44.51750977 75.65283203 45.10205078 C76.72903809 45.79024902 77.80524414 46.47844727 78.9140625 47.1875 C80.18722824 47.86635002 80.18722824 47.86635002 81.4861145 48.55891418 C88.39213636 52.61002231 88.39213636 52.61002231 89.7840271 56.81689453 C90.07191837 60.00598663 90.04052318 63.04758836 89.890625 66.24609375 C89.86940079 67.96252831 89.86940079 67.96252831 89.8477478 69.71363831 C89.79195151 73.35346838 89.66654125 76.98704504 89.5390625 80.625 C89.48888267 83.09821811 89.44325867 85.57153314 89.40234375 88.04492188 C89.29234033 94.09456627 89.12522015 100.14058652 88.9140625 106.1875 C89.82905518 106.47633057 90.74404785 106.76516113 91.68676758 107.06274414 C94.23228763 107.94989225 96.26964643 108.80453959 98.55078125 110.18359375 C99.20159668 110.57216553 99.85241211 110.9607373 100.52294922 111.36108398 C101.2088916 111.77817627 101.89483398 112.19526855 102.6015625 112.625 C104.09710199 113.52175833 105.59321926 114.41755362 107.08984375 115.3125 C108.26087646 116.01439453 108.26087646 116.01439453 109.45556641 116.73046875 C112.00479532 118.24127294 114.57086618 119.71874173 117.14453125 121.1875 C118.00280518 121.67806885 118.8610791 122.1686377 119.74536133 122.67407227 C121.41388226 123.62579699 123.08423656 124.57431622 124.7565918 125.51928711 C125.5175415 125.9550708 126.27849121 126.39085449 127.0625 126.83984375 C127.73458496 127.22132568 128.40666992 127.60280762 129.09912109 127.99584961 C131.02865505 129.26273894 132.42516425 130.42012007 133.9140625 132.1875 C134.21057225 135.2840352 134.32360824 138.17937525 134.30224609 141.27709961 C134.31013153 142.67263313 134.31013153 142.67263313 134.31817627 144.09635925 C134.33140073 147.17769058 134.32262872 150.25850698 134.3125 153.33984375 C134.3145202 155.47831827 134.31743119 157.61679212 134.32119751 159.75526428 C134.32562433 164.24014842 134.31917886 168.72485346 134.30517578 173.2097168 C134.28809414 178.96124773 134.29791652 184.7123584 134.31589317 190.46387386 C134.3267301 194.88105947 134.32328488 199.29814534 134.3155098 203.71533394 C134.31350701 205.83604545 134.31596981 207.95676599 134.32294846 210.07746696 C134.33056014 213.04139076 134.31896192 216.00463288 134.30224609 218.96850586 C134.30831879 219.84708252 134.31439148 220.72565918 134.32064819 221.63085938 C134.28364015 225.16968739 134.23967822 227.55907084 132.59405518 230.7350769 C130.9140625 232.1875 130.9140625 232.1875 127.64599609 232.64526367 C123.43132764 232.12828713 120.88394364 230.95976592 117.203125 228.86328125 C116.59068939 228.5200029 115.97825378 228.17672455 115.34725952 227.82304382 C113.40301187 226.72913184 111.47115699 225.61520919 109.5390625 224.5 C108.25077666 223.77011183 106.96171913 223.04158396 105.671875 222.31445312 C95.96836277 216.82950093 95.96836277 216.82950093 92.17089844 214.51708984 C91.39262695 214.05125488 90.61435547 213.58541992 89.8125 213.10546875 C89.16716309 212.70481201 88.52182617 212.30415527 87.85693359 211.89135742 C85.21253838 210.93335398 83.57828882 211.39896413 80.9140625 212.1875 C80.0271875 212.703125 79.1403125 213.21875 78.2265625 213.75 C72.80885985 216.10107851 67.88926528 216.13256441 62.2578125 214.34375 C55.38049016 211.2779557 51.26059408 206.88056317 47.9140625 200.1875 C46.61636092 185.02293014 46.61636092 185.02293014 51.4921875 178.6953125 C53.50867065 176.55695399 55.45394614 174.80757663 57.9140625 173.1875 C58.7803125 172.61 59.6465625 172.0325 60.5390625 171.4375 C67.2730331 168.94343681 73.67244106 169.2613764 80.2265625 172.1875 C85.97726795 175.392511 89.83208861 179.94157834 91.9140625 186.1875 C91.88723389 187.13923096 91.86040527 188.09096191 91.83276367 189.0715332 C91.76429613 192.70348523 91.94784807 195.67817116 92.9140625 199.1875 C96.19167806 202.58162023 99.98670738 204.38653092 104.2265625 206.375 C105.28552734 206.91962891 106.34449219 207.46425781 107.43554688 208.02539062 C110.24191198 209.45959743 113.06883789 210.83259222 115.9140625 212.1875 C117.2340625 212.8475 118.5540625 213.5075 119.9140625 214.1875 C120.2440625 189.1075 120.5740625 164.0275 120.9140625 138.1875 C119.2640625 137.5275 117.6140625 136.8675 115.9140625 136.1875 C112.10222116 134.20574437 108.3571904 132.10557557 104.60546875 130.01245117 C102.81767723 129.01594964 101.0262695 128.02620944 99.234375 127.03710938 C79.00242372 115.82004183 79.00242372 115.82004183 75.9140625 111.1875 C75.68701172 108.91918945 75.68701172 108.91918945 75.71875 106.30078125 C75.72519531 105.36298828 75.73164063 104.42519531 75.73828125 103.45898438 C75.75503906 102.48251953 75.77179688 101.50605469 75.7890625 100.5 C75.79808594 99.51193359 75.80710937 98.52386719 75.81640625 97.50585938 C75.83997684 95.06630294 75.87584781 92.62687099 75.9140625 90.1875 C70.3040625 90.1875 64.6940625 90.1875 58.9140625 90.1875 C58.2540625 92.1675 57.5940625 94.1475 56.9140625 96.1875 C53.72928956 101.62815377 48.73233695 104.19639346 42.9140625 106.1875 C36.70639514 107.18623705 31.18451616 106.69972882 25.69921875 103.5234375 C20.97781227 99.99013112 17.7213573 95.8129086 15.9140625 90.1875 C15.07124754 83.47739624 14.76402241 77.02655939 18.4140625 71.125 C22.48607312 65.9310102 28.17394839 61.86604394 34.82421875 60.9140625 C42.23783535 60.56423667 48.32603601 62.93358124 53.84375 67.9375 C56.71023603 71.11943665 57.84570073 72.91405292 58.9140625 77.1875 C64.5240625 77.1875 70.1340625 77.1875 75.9140625 77.1875 C77.0146836 68.92562598 77.0146836 68.92562598 74.9140625 61.1875 C70.11779739 56.09447128 63.29005486 53.14552095 57.17089844 49.94042969 C51.98676852 47.15017086 46.99755897 44.04455555 41.98797607 40.95617676 C40.22578022 39.87451983 38.45729453 38.80404642 36.68603516 37.73730469 C30.58137641 34.05922244 24.5251842 30.3205045 18.5234375 26.4765625 C16.74586196 25.3476342 14.96738261 24.22014508 13.18856812 23.09317017 C11.50899679 22.02071033 9.84186063 20.92885505 8.17504883 19.83666992 C7.1620874 19.19576416 6.14912598 18.5548584 5.10546875 17.89453125 C4.22060791 17.3219458 3.33574707 16.74936035 2.42407227 16.15942383 C-0.0556828 14.9181967 -0.0556828 14.9181967 -2.60107422 15.84155273 C-5.10535718 17.19801884 -7.58862509 18.55694744 -10.03515625 20.015625 C-10.96650391 20.56863281 -11.89785156 21.12164062 -12.85742188 21.69140625 C-14.30084961 22.55572266 -14.30084961 22.55572266 -15.7734375 23.4375 C-16.71638672 23.99824219 -17.65933594 24.55898437 -18.63085938 25.13671875 C-22.41553623 27.3893168 -26.19844446 29.64251364 -29.95166016 31.94726562 C-30.84804199 32.49576172 -31.74442383 33.04425781 -32.66796875 33.609375 C-33.47081299 34.1053418 -34.27365723 34.60130859 -35.10083008 35.11230469 C-37.0859375 36.1875 -37.0859375 36.1875 -39.0859375 36.1875 C-44.87501014 81.34671877 -44.87501014 81.34671877 -34.56982422 123.39550781 C-26.42771892 132.71379211 -14.07372747 138.61181804 -2.0859375 141.1875 C0.22545991 140.76580539 1.93250387 140.17827931 4.0390625 139.125 C10.34489835 137.06874918 16.12072989 137.48030575 22.1640625 140.1875 C28.04866132 143.44438488 31.11211728 147.91123597 34.2890625 153.6875 C36.47309782 162.42364127 33.68515435 168.49795994 29.2890625 175.9375 C24.38289758 180.58544571 18.59226534 183.45603445 11.7890625 183.75 C4.5647156 183.30907742 -0.12193332 180.52800662 -4.9609375 175.25 C-7.42060594 172.37275994 -8.98245754 169.82076135 -10.0859375 166.1875 C-9.74627625 164.03173985 -9.38353858 161.87955015 -9.00390625 159.73046875 C-8.94949365 155.90611171 -9.06692166 153.34720367 -11.65533447 150.40142822 C-17.08833042 145.74931011 -23.28186462 142.16760936 -29.3984375 138.5 C-31.25486971 137.34124815 -33.10842653 136.17787608 -34.95898438 135.00976562 C-37.56296512 133.36688371 -40.16911979 131.73208792 -42.79988098 130.13240051 C-43.58046371 129.65727524 -44.36104645 129.18214996 -45.1652832 128.69262695 C-45.85145218 128.27962845 -46.53762115 127.86662994 -47.24458313 127.44111633 C-47.85223007 127.02742294 -48.45987701 126.61372955 -49.0859375 126.1875 C-49.93919617 125.62511124 -49.93919617 125.62511124 -50.80969238 125.05136108 C-52.92940869 121.95567305 -52.47516645 118.48154789 -52.42651367 114.8605957 C-52.42695175 114.01159698 -52.42738983 113.16259827 -52.42784119 112.28787231 C-52.42574985 109.47944199 -52.40240264 106.67160739 -52.37890625 103.86328125 C-52.37331152 101.91701076 -52.36904084 99.97073606 -52.36604309 98.02445984 C-52.35458463 92.9000585 -52.32510879 87.77591195 -52.29193115 82.65161133 C-52.26125187 77.42337491 -52.24754233 72.19509735 -52.23242188 66.96679688 C-52.2002401 56.70691926 -52.1490316 46.44723081 -52.0859375 36.1875 C-52.8665303 35.88293884 -53.64712311 35.57837769 -54.45137024 35.2645874 C-56.97654929 34.23222107 -59.0887875 33.05069879 -61.37890625 31.578125 C-62.16958496 31.0730542 -62.96026367 30.5679834 -63.77490234 30.04760742 C-64.59941895 29.51627197 -65.42393555 28.98493652 -66.2734375 28.4375 C-67.97762576 27.35509265 -69.68205057 26.27305763 -71.38671875 25.19140625 C-74.06241588 23.48627914 -76.72584141 21.76772911 -79.37890625 20.02734375 C-80.23097656 19.48207031 -81.08304688 18.93679687 -81.9609375 18.375 C-83.00894531 17.68470703 -83.00894531 17.68470703 -84.078125 16.98046875 C-86.82941897 15.89386821 -88.24023171 16.40306441 -91.0859375 17.1875 C-93.05199615 18.20674619 -94.9771076 19.30688057 -96.8671875 20.4609375 C-97.95644531 21.1209375 -99.04570312 21.7809375 -100.16796875 22.4609375 C-101.30740502 23.16127394 -102.44672698 23.8617964 -103.5859375 24.5625 C-104.72484598 25.25588952 -105.86416544 25.94860447 -107.00390625 26.640625 C-109.10555156 27.91902226 -111.20536807 29.2004344 -113.30273438 30.48583984 C-116.0859375 32.1875 -116.0859375 32.1875 -118.90307617 33.22045898 C-121.59451405 35.64579339 -121.48698367 36.49497513 -121.74536133 40.02612305 C-121.78656552 42.08347023 -121.80062959 44.14147325 -121.79296875 46.19921875 C-121.81565071 47.82426079 -121.81565071 47.82426079 -121.83879089 49.48213196 C-121.88182184 52.94663049 -121.89052111 56.41026035 -121.8984375 59.875 C-121.9215697 62.22202855 -121.94693235 64.56903627 -121.97460938 66.91601562 C-122.03761442 72.6732544 -122.06982936 78.42994668 -122.0859375 84.1875 C-126.3759375 84.1875 -130.6659375 84.1875 -135.0859375 84.1875 C-135.4159375 70.9875 -135.7459375 57.7875 -136.0859375 44.1875 C-145.54261079 49.77747263 -145.54261079 49.77747263 -154.99365234 55.37695312 C-156.17785609 56.07456482 -157.36225061 56.77185283 -158.546875 57.46875 C-159.16280518 57.83581055 -159.77873535 58.20287109 -160.41333008 58.58105469 C-164.8577939 61.1875 -164.8577939 61.1875 -167.0859375 61.1875 C-167.0859375 76.0375 -167.0859375 90.8875 -167.0859375 106.1875 C-165.4359375 106.8475 -163.7859375 107.5075 -162.0859375 108.1875 C-159.99792068 109.28288407 -157.92619147 110.40960152 -155.8671875 111.55859375 C-155.28682739 111.88158951 -154.70646729 112.20458527 -154.10852051 112.53736877 C-152.88749007 113.21761523 -151.66724641 113.89927568 -150.44775391 114.58227539 C-148.59311665 115.62097926 -146.73625178 116.65560122 -144.87890625 117.68945312 C-135.36135366 122.9970421 -135.36135366 122.9970421 -132.50976562 124.96899414 C-130.1785705 126.38572635 -130.1785705 126.38572635 -127.67578125 126.09326172 C-124.42356655 124.955845 -121.63097799 123.42320337 -118.6484375 121.6953125 C-118.04588135 121.34870575 -117.4433252 121.002099 -116.82250977 120.64498901 C-114.90645165 119.54069953 -112.99621716 118.42674944 -111.0859375 117.3125 C-109.80244988 116.57097977 -108.51859897 115.83008798 -107.234375 115.08984375 C-100.72694117 111.34581808 -100.72694117 111.34581808 -94.30859375 107.45263672 C-92.0859375 106.1875 -92.0859375 106.1875 -90.0859375 106.1875 C-90.0859375 94.6375 -90.0859375 83.0875 -90.0859375 71.1875 C-85.7959375 71.1875 -81.5059375 71.1875 -77.0859375 71.1875 C-76.96214419 76.79248022 -76.87150732 82.39666122 -76.8112793 88.00268555 C-76.78616751 89.90875107 -76.75207105 91.81472059 -76.70874023 93.72045898 C-76.64794006 96.46361998 -76.61969505 99.20550586 -76.59765625 101.94921875 C-76.57184982 102.79836349 -76.5460434 103.64750824 -76.51945496 104.52238464 C-76.51748009 108.70818115 -76.6432335 110.59948481 -79.22509766 114.02880859 C-82.17958995 116.25816692 -85.11694104 118.15761362 -88.34765625 119.96484375 C-88.93835403 120.29867569 -89.52905182 120.63250763 -90.13764954 120.97645569 C-92.01199334 122.03375844 -93.8923564 123.07973972 -95.7734375 124.125 C-97.62966782 125.16593344 -99.48456407 126.20920789 -101.33914185 127.25308228 C-102.54555232 127.931649 -103.75279857 128.60873212 -104.96090698 129.28427124 C-109.44612859 131.79924648 -113.84422247 134.4362833 -118.20629883 137.15844727 C-120.0859375 138.1875 -120.0859375 138.1875 -122.0859375 138.1875 C-121.7559375 150.7275 -121.4259375 163.2675 -121.0859375 176.1875 C-117.4353125 178.146875 -113.7846875 180.10625 -110.0234375 182.125 C-102.70772751 186.07601913 -95.41289386 190.04930561 -88.2734375 194.3125 C-87.67716553 194.66562256 -87.08089355 195.01874512 -86.46655273 195.38256836 C-80.98607331 198.70458703 -80.98607331 198.70458703 -79.0859375 201.1875 C-78.74536133 203.91479492 -78.74536133 203.91479492 -78.79296875 207.16796875 C-78.80263672 208.33134766 -78.81230469 209.49472656 -78.82226562 210.69335938 C-78.84740234 211.90830078 -78.87253906 213.12324219 -78.8984375 214.375 C-78.91197266 215.60154297 -78.92550781 216.82808594 -78.93945312 218.09179688 C-78.97485009 221.12413664 -79.0242299 224.15559996 -79.0859375 227.1875 C-75.31403976 225.06438519 -71.54360479 222.93868595 -67.7734375 220.8125 C-66.70158203 220.20921875 -65.62972656 219.6059375 -64.52539062 218.984375 C-63.49736328 218.40429688 -62.46933594 217.82421875 -61.41015625 217.2265625 C-60.46229248 216.69240723 -59.51442871 216.15825195 -58.5378418 215.60791016 C-56.68149678 214.53251283 -54.87097071 213.37752214 -53.0859375 212.1875 C-52.57373209 209.08536275 -52.57373209 209.08536275 -52.57421875 205.4296875 C-52.55626755 204.76663605 -52.53831635 204.10358459 -52.51982117 203.42044067 C-52.46560826 201.30119197 -52.43178979 199.18216975 -52.3984375 197.0625 C-52.36527383 195.62627048 -52.33078505 194.1900709 -52.29492188 192.75390625 C-52.20987786 189.23198871 -52.14311877 185.70999241 -52.0859375 182.1875 C-52.85993896 181.89182129 -53.63394043 181.59614258 -54.43139648 181.29150391 C-57.39414802 180.05931753 -59.59210714 178.49806235 -62.1484375 176.5625 C-67.10680963 172.87550534 -72.18017277 169.42314156 -77.3359375 166.01953125 C-80.64355488 163.81601911 -83.87200734 161.52490375 -87.0859375 159.1875 C-85.63549479 155.07791233 -83.57482998 151.75491255 -81.0859375 148.1875 C-77.28820161 149.53900743 -74.41399337 151.2527784 -71.2109375 153.6875 C-66.73227832 157.01778503 -62.17820352 160.17494813 -57.5234375 163.25 C-53.06742644 166.20261523 -48.61472732 169.15713819 -44.2109375 172.1875 C-43.42976562 172.72375 -42.64859375 173.26 -41.84375 173.8125 C-40.0859375 175.1875 -40.0859375 175.1875 -39.0859375 177.1875 C-38.99379119 179.49537874 -38.96844353 181.8060085 -38.97241211 184.11572266 C-38.97226608 184.82802536 -38.97212006 185.54032806 -38.9719696 186.2742157 C-38.97266739 188.63336206 -38.98045353 190.99242989 -38.98828125 193.3515625 C-38.9901459 194.98538164 -38.99156958 196.61920134 -38.99256897 198.25302124 C-38.99639041 202.5569818 -39.00621752 206.86090871 -39.01727295 211.16485596 C-39.02749508 215.55521184 -39.03206831 219.94557315 -39.03710938 224.3359375 C-39.04784011 232.95314218 -39.06543391 241.57031303 -39.0859375 250.1875 C-30.8359375 250.1875 -22.5859375 250.1875 -14.0859375 250.1875 C-14.0859375 254.1475 -14.0859375 258.1075 -14.0859375 262.1875 C-22.3359375 262.1875 -30.5859375 262.1875 -39.0859375 262.1875 C-39.05975342 263.97889404 -39.03356934 265.77028809 -39.0065918 267.6159668 C-38.92587866 273.54303102 -38.86847459 279.47007628 -38.82687664 285.39752483 C-38.80081206 288.9905086 -38.76547421 292.58289636 -38.70874023 296.17553711 C-38.65430415 299.64448186 -38.62449334 303.11285439 -38.61155128 306.58219337 C-38.59785301 308.54601051 -38.55883732 310.50959825 -38.51945496 312.47306824 C-38.51665361 321.38079587 -38.51665361 321.38079587 -41.31103516 325.34057617 C-42.68461182 326.25480347 -42.68461182 326.25480347 -44.0859375 327.1875 C-44.87572998 327.74131348 -45.66552246 328.29512695 -46.47924805 328.86572266 C-47.30207275 329.3560498 -48.12489746 329.84637695 -48.97265625 330.3515625 C-49.90271484 330.91157959 -50.83277344 331.47159668 -51.79101562 332.04858398 C-53.26731445 332.92172241 -53.26731445 332.92172241 -54.7734375 333.8125 C-56.84036711 335.04469543 -58.90676691 336.27777999 -60.97265625 337.51171875 C-62.51445557 338.43090088 -62.51445557 338.43090088 -64.08740234 339.36865234 C-66.87650585 341.06046321 -69.62118454 342.80335815 -72.35546875 344.58203125 C-73.15831299 345.09749512 -73.96115723 345.61295898 -74.78833008 346.14404297 C-76.28090282 347.10610292 -77.76449204 348.08229848 -79.23706055 349.07470703 C-82.46361742 351.12877932 -84.50571607 352.15235595 -88.375 352.38671875 C-93.91597683 350.59610834 -98.54257359 347.64053503 -103.4609375 344.5625 C-105.14245479 343.53176963 -106.82398259 342.50105587 -108.50617981 341.47143555 C-110.24025266 340.40806278 -111.97119201 339.33973471 -113.70166016 338.27050781 C-118.82520667 335.11698748 -123.98623168 332.02717391 -129.1484375 328.9375 C-130.14568848 328.3381665 -131.14293945 327.73883301 -132.17041016 327.12133789 C-138.29772105 323.44159786 -144.44162132 319.79156801 -150.59765625 316.16015625 C-152.0617952 315.29529415 -153.52590657 314.43038538 -154.98999023 313.56542969 C-157.83726915 311.88341491 -160.68746946 310.20649825 -163.53930664 308.53222656 C-164.85183875 307.75735366 -166.16426255 306.98229727 -167.4765625 306.20703125 C-168.07131882 305.85971451 -168.66607513 305.51239777 -169.27885437 305.15455627 C-178.26579797 299.82777906 -178.26579797 299.82777906 -180.0859375 296.1875 C-180.02293779 294.70513631 -179.88898871 293.22550826 -179.7199707 291.75146484 C-176.34559201 266.94468567 -176.34559201 266.94468567 -182.69720459 243.71496582 C-190.84776189 234.47159209 -202.5909518 228.78617343 -213.68359375 223.82421875 C-217.0859375 222.1875 -217.0859375 222.1875 -218.0859375 220.1875 C-218.22605349 217.44880589 -218.30637382 214.73398823 -218.34228516 211.9934082 C-218.35688782 211.14604599 -218.37149048 210.29868378 -218.38653564 209.42564392 C-218.51255938 201.60590182 -218.58128672 193.78514203 -218.63437843 185.96459675 C-218.67014871 180.71010045 -218.72347168 175.45713406 -218.81982422 170.20336914 C-218.91269961 165.12398848 -218.96130754 160.04596192 -218.97877121 154.96578026 C-218.99285721 153.03158276 -219.02247877 151.09743242 -219.06807327 149.16372108 C-219.40664702 134.06601575 -219.40664702 134.06601575 -216.23072815 129.54873657 C-213.92928386 127.72173274 -211.73367772 126.44635863 -209.0859375 125.1875 C-208.04268311 124.4562793 -206.99942871 123.72505859 -205.92456055 122.97167969 C-204.52524292 122.04983887 -204.52524292 122.04983887 -203.09765625 121.109375 C-202.06189453 120.42359375 -201.02613281 119.7378125 -199.95898438 119.03125 C-198.90775391 118.3403125 -197.85652344 117.649375 -196.7734375 116.9375 C-194.65167612 115.53746961 -192.53055555 114.13646746 -190.41015625 112.734375 C-189.48291748 112.12432617 -188.55567871 111.51427734 -187.6003418 110.88574219 C-186.77058838 110.32532227 -185.94083496 109.76490234 -185.0859375 109.1875 C-184.38370056 108.75752716 -183.68146362 108.32755432 -182.95794678 107.884552 C-180.89443348 106.34399489 -180.89443348 106.34399489 -180.6006012 103.96218872 C-180.60679977 103.09568695 -180.61299835 102.22918518 -180.61938477 101.33642578 C-180.6158046 100.35175323 -180.61222443 99.36708069 -180.60853577 98.35256958 C-180.6229924 97.29004974 -180.63744904 96.22752991 -180.65234375 95.1328125 C-180.64273692 92.88671807 -180.63296621 90.64062433 -180.62304688 88.39453125 C-180.63164808 84.85034299 -180.64847607 81.30633572 -180.6706543 77.76220703 C-180.68516565 74.34371287 -180.66992449 70.92626928 -180.65234375 67.5078125 C-180.66882462 66.44934113 -180.68530548 65.39086975 -180.70228577 64.30032349 C-180.65240824 56.95851572 -180.65240824 56.95851572 -177.875 53.17822266 C-175.2591349 51.31112147 -172.70050613 49.5822496 -169.89453125 48.015625 C-168.88221436 47.44279785 -167.86989746 46.8699707 -166.8269043 46.27978516 C-165.73676025 45.67183105 -164.64661621 45.06387695 -163.5234375 44.4375 C-161.16243497 43.0991068 -158.80276582 41.7586683 -156.4453125 40.4140625 C-155.53431038 39.89536087 -155.53431038 39.89536087 -154.60490417 39.36618042 C-148.08448341 35.64017958 -141.67714345 31.73458 -135.2734375 27.8125 C-123.95097457 20.88476887 -112.53582944 14.12824161 -101.0612793 7.45556641 C-100.1684877 6.93544479 -100.1684877 6.93544479 -99.25765991 6.40481567 C-97.64503201 5.46568745 -96.03117511 4.5286705 -94.41723633 3.59179688 C-92.20477701 2.38662243 -92.20477701 2.38662243 -91.0859375 1.1875 C-85.65739297 0.73484418 -82.66658071 1.53418286 -78.1015625 4.44140625 C-76.45027344 5.4768457 -76.45027344 5.4768457 -74.765625 6.53320312 C-73.62215474 7.27176228 -72.47892638 8.01069608 -71.3359375 8.75 C-70.20924022 9.4630236 -69.08164093 10.17462394 -67.953125 10.88476562 C-63.5923672 13.64200468 -59.24013437 16.3973945 -54.98242188 19.31201172 C-53.54092773 20.28485107 -53.54092773 20.28485107 -52.0703125 21.27734375 C-51.22694336 21.86249756 -50.38357422 22.44765137 -49.51464844 23.05053711 C-46.42271158 24.4979788 -45.28902283 24.30796174 -42.0859375 23.1875 C-39.88748519 22.05725188 -37.73038674 20.84511354 -35.60546875 19.58203125 C-34.99257492 19.22034348 -34.37968109 18.8586557 -33.74821472 18.48600769 C-31.7942181 17.33071686 -29.84632948 16.16554786 -27.8984375 15 C-26.60911199 14.23567319 -25.31940159 13.47199524 -24.02929688 12.70898438 C-23.08399612 12.14858963 -23.08399612 12.14858963 -22.11959839 11.57687378 C-20.86555177 10.83349719 -19.61093761 10.09107715 -18.35574341 9.34963989 C-15.57944061 7.70273083 -12.84501319 6.03001406 -10.14208984 4.26318359 C-3.93043185 0.23881105 -3.93043185 0.23881105 0 0 Z " fill="#FAFCFC" transform="translate(295.0859375,82.8125)"></path><path d="M0 0 C1.86753776 0.97609575 3.70752142 2.00635444 5.51953125 3.08203125 C6.54240234 3.68466797 7.56527344 4.28730469 8.61914062 4.90820312 C10.19985352 5.85083008 10.19985352 5.85083008 11.8125 6.8125 C13.90183145 8.0490431 15.99166759 9.28473389 18.08203125 10.51953125 C19.46225464 11.34094604 19.46225464 11.34094604 20.87036133 12.17895508 C24.87969092 14.51186633 28.94507859 16.74726588 33 19 C33 31.54 33 44.08 33 57 C14.685 65.91 14.685 65.91 -4 75 C-2.53867783 79.38396651 -1.416361 82.26562391 1 86 C2.05912598 85.44948975 3.11825195 84.89897949 4.20947266 84.33178711 C8.14848084 82.28977518 12.09811285 80.26910427 16.05126953 78.25463867 C17.75931298 77.38052613 19.46443796 76.50068584 21.16650391 75.61499023 C23.61653069 74.34134817 26.07638553 73.08881289 28.5390625 71.83984375 C29.29555084 71.44095444 30.05203918 71.04206512 30.83145142 70.63108826 C35.28401629 68.40293821 38.04755488 67.38948385 43 69 C45.63378906 70.21166992 45.63378906 70.21166992 48.265625 71.73046875 C49.23886719 72.28669922 50.21210938 72.84292969 51.21484375 73.41601562 C52.21644531 74.00060547 53.21804687 74.58519531 54.25 75.1875 C55.23613281 75.75275391 56.22226563 76.31800781 57.23828125 76.90039062 C59.20951925 78.03404726 61.16957595 79.18737941 63.11767578 80.36035156 C65.9532478 82.04816004 65.9532478 82.04816004 68.94091797 83.24121094 C71.86764211 84.57460591 73.82328245 85.6221478 76 88 C77.21775248 92.9805008 76.94800777 97.80194968 76.625 102.875 C76.57478889 104.24462949 76.52917008 105.61443551 76.48828125 106.984375 C76.37056838 110.3274205 76.20639699 113.6614493 76 117 C75.29093506 117.40726318 74.58187012 117.81452637 73.85131836 118.23413086 C70.54587001 120.13379226 67.24150409 122.03532838 63.9375 123.9375 C63.34541748 124.27814484 62.75333496 124.61878967 62.14331055 124.96975708 C54.43562919 129.40623741 46.74798015 133.86954741 39.19116211 138.56030273 C35.21091744 141 35.21091744 141 33 141 C33.3609375 141.69867188 33.721875 142.39734375 34.09375 143.1171875 C34.5578125 144.02726563 35.021875 144.93734375 35.5 145.875 C35.9640625 146.77992188 36.428125 147.68484375 36.90625 148.6171875 C38 151 38 151 38 153 C38.60134766 152.64921387 39.20269531 152.29842773 39.82226562 151.93701172 C41.65250061 150.86937465 43.48274215 149.80174882 45.31298828 148.73413086 C47.46765774 147.47721283 49.62227884 146.22021192 51.77685547 144.96313477 C57.2381564 141.77691452 62.70006791 138.5917562 68.1640625 135.41015625 C70.15108563 134.25267963 72.1380652 133.09512824 74.125 131.9375 C75.10662109 131.36580078 76.08824219 130.79410156 77.09960938 130.20507812 C82.11679182 127.27921302 87.12430535 124.33826037 92.1171875 121.37109375 C93.1057373 120.78400635 94.09428711 120.19691895 95.11279297 119.59204102 C96.97530785 118.48439116 98.83641893 117.37437577 100.69580078 116.26147461 C101.53868652 115.76010986 102.38157227 115.25874512 103.25 114.7421875 C103.97703125 114.3076123 104.7040625 113.87303711 105.453125 113.42529297 C107.66465043 112.18766975 109.89098949 111.03940941 112.15917969 109.91091919 C112.87869812 109.55253023 113.59821655 109.19414127 114.33953857 108.82489204 C114.88749084 108.55267767 115.43544312 108.28046329 116 108 C116.53524491 119.49043062 116.9426606 130.97785943 117.19167995 142.47825813 C117.31127989 147.8205772 117.4730425 153.15432062 117.73510742 158.49169922 C119.38167119 192.91432062 119.38167119 192.91432062 113.84552002 201.2401123 C108.60990964 206.13208547 102.77514522 208.66526198 96.025177 210.84515381 C91.69034087 212.49995582 88.12763119 215.03580739 84.37156677 217.7270813 C82 219 82 219 79.84999084 218.78044128 C74.9974179 216.73332399 70.53361295 213.84725524 66 211.1875 C64.3603125 210.24293945 64.3603125 210.24293945 62.6875 209.27929688 C61.635625 208.66505859 60.58375 208.05082031 59.5 207.41796875 C58.06140625 206.57915161 58.06140625 206.57915161 56.59375 205.72338867 C54.04973008 204.0330426 52.07143237 202.23417904 50 200 C76.95372233 183 76.95372233 183 80 183 C78.02 179.37 76.04 175.74 74 172 C73.23300781 172.43828125 72.46601563 172.8765625 71.67578125 173.328125 C69.94317779 174.31818412 68.21053654 175.30817763 66.47729492 176.29711914 C62.4799096 178.5788715 58.48802465 180.86989023 54.5 183.16796875 C53.08980591 183.97862793 53.08980591 183.97862793 51.65112305 184.80566406 C49.77375274 185.88490575 47.89759103 186.96625285 46.02270508 188.04980469 C45.15540771 188.54770508 44.28811035 189.04560547 43.39453125 189.55859375 C42.61956299 190.00517334 41.84459473 190.45175293 41.04614258 190.91186523 C39 192 39 192 36 193 C33.74468769 191.92679026 31.70006233 190.81079351 29.57421875 189.51953125 C28.94900833 189.15027023 28.32379791 188.78100922 27.67964172 188.40055847 C25.67644866 187.21402144 23.68215099 186.01332942 21.6875 184.8125 C20.35535174 184.02188595 19.0226749 183.2321618 17.68945312 182.44335938 C14.11164054 180.31822012 10.54299458 178.1829088 7 176 C5.88786133 175.45674072 4.77572266 174.91348145 3.62988281 174.35375977 C0.72014103 171.74952467 0.56504466 171.28366487 0.17602539 167.60205078 C0.11621182 165.8006081 0.09231676 163.99774 0.09765625 162.1953125 C0.08480087 161.23857635 0.0719455 160.28184021 0.05870056 159.29611206 C0.04148597 157.27381504 0.03995923 155.25133228 0.05297852 153.22900391 C0.06245303 150.1403136 -0.00784114 147.06027695 -0.08398438 143.97265625 C-0.09080511 142.00521919 -0.09291301 140.03775899 -0.08984375 138.0703125 C-0.11747299 137.15138214 -0.14510223 136.23245178 -0.17356873 135.28567505 C-0.09033621 131.42145228 0.00876125 128.98086719 2.83311462 126.18606567 C5.15668928 124.61111642 7.50646603 123.28643118 10 122 C11.19045942 121.28951559 12.37764514 120.57349433 13.56030273 119.85009766 C20.1903768 116.04489484 20.1903768 116.04489484 22.53198242 114.71142578 C24.46141702 113.61136377 26.38605544 112.5032136 28.31054688 111.39453125 C29.53878432 110.69222161 30.76728996 109.99038075 31.99609375 109.2890625 C33.10138428 108.65693848 34.2066748 108.02481445 35.34545898 107.37353516 C38 106 38 106 40 106 C38.02 102.37 36.04 98.74 34 95 C26.29404955 99.182506 18.6314136 103.43314055 11 107.75 C9.97777344 108.32621094 8.95554688 108.90242188 7.90234375 109.49609375 C6.92394531 110.04910156 5.94554687 110.60210937 4.9375 111.171875 C4.05964844 111.6678418 3.18179688 112.16380859 2.27734375 112.67480469 C0.48026629 113.72053115 -1.27000932 114.84667288 -3 116 C-7.14979449 115.69593692 -9.8888655 114.03489892 -13.30859375 111.76171875 C-14.80036133 110.77848633 -14.80036133 110.77848633 -16.32226562 109.77539062 C-17.35029297 109.08638672 -18.37832031 108.39738281 -19.4375 107.6875 C-20.97374023 106.67139648 -20.97374023 106.67139648 -22.54101562 105.63476562 C-25.36595516 103.76427168 -28.18404177 101.88397817 -31 100 C-32.07926758 99.42443359 -33.15853516 98.84886719 -34.27050781 98.25585938 C-37 96 -37 96 -37.91918945 92.47583008 C-38.01920538 91.07580656 -38.08178226 89.67276924 -38.11328125 88.26953125 C-38.14036667 87.51967453 -38.16745209 86.76981781 -38.19535828 85.99723816 C-38.23880453 84.41152717 -38.2655118 82.8252809 -38.27661133 81.23901367 C-38.31225677 78.82894534 -38.45932223 76.44226274 -38.61132812 74.03710938 C-38.95736006 63.22264232 -38.95736006 63.22264232 -35.63613892 59.45129395 C-32.07477412 56.60261522 -28.08413928 54.70404362 -23.92922974 52.87350464 C-21.21813345 51.64599133 -18.70617454 50.1379097 -16.16015625 48.6015625 C-13.57050152 47.08881324 -10.98070142 45.57824096 -8.37695312 44.08984375 C-7.12495117 43.35314453 -7.12495117 43.35314453 -5.84765625 42.6015625 C-5.10523682 42.17182129 -4.36281738 41.74208008 -3.59790039 41.29931641 C-3.07059326 40.87054199 -2.54328613 40.44176758 -2 40 C-2 36.8256378 -2.41535071 35.93707538 -4 33.3125 C-4.66 32.219375 -5.32 31.12625 -6 30 C-10.11866766 31.25334376 -13.61400003 32.77502212 -17.29296875 35.00390625 C-18.25267578 35.57947266 -19.21238281 36.15503906 -20.20117188 36.74804688 C-21.18666016 37.34681641 -22.17214844 37.94558594 -23.1875 38.5625 C-25.158625 39.75383929 -27.13121612 40.94275717 -29.10546875 42.12890625 C-29.97324951 42.65556885 -30.84103027 43.18223145 -31.73510742 43.72485352 C-34 45 -34 45 -37 46 C-40.16466519 23.50166484 -40.16466519 23.50166484 -35.21435547 16.45996094 C-30.54775504 12.11405816 -25.12544188 9.13425036 -19.45751953 6.27929688 C-16.27108136 4.620551 -13.52526052 2.61368082 -10.625 0.5 C-6.39195681 -2.50135504 -4.73615816 -1.8421001 0 0 Z " fill="#22816D" transform="translate(127,202)"></path><path d="M0 0 C1.01642578 -0.00773437 2.03285156 -0.01546875 3.08007812 -0.0234375 C12.6296599 0.00090815 21.54794702 1.02621854 30.1875 5.25 C29.64410208 9.81454251 28.39286179 13.2228176 26.1875 17.25 C24.90875 16.96125 23.63 16.6725 22.3125 16.375 C21.06919922 16.10429687 21.06919922 16.10429687 19.80078125 15.828125 C18.14785136 15.46245441 16.49862409 15.07922339 14.85546875 14.671875 C-1.44571453 10.887189 -17.23339242 13.82692516 -31.67578125 22.140625 C-47.60335261 32.85156963 -58.03644142 48.36970711 -61.8125 67.25 C-62.2837148 70.92364546 -62.572281 74.55062737 -62.8125 78.25 C-67.1025 78.25 -71.3925 78.25 -75.8125 78.25 C-77.06381046 58.22903259 -68.08333958 39.19835729 -55.27734375 24.30078125 C-40.51465535 8.71190411 -21.55128881 -0.16214136 0 0 Z " fill="#FAFCFB" transform="translate(356.8125,337.75)"></path><path d="M0 0 C3.16115776 1.36983503 3.9927092 1.9890638 6 5 C5.39414062 5.71542969 4.78828125 6.43085938 4.1640625 7.16796875 C-1.5973393 14.01960504 -7.13651212 21.00777013 -12.56494141 28.12646484 C-14.74072819 30.9670548 -16.93576852 33.79253197 -19.1328125 36.61669922 C-20.33446702 38.16200873 -21.53369472 39.70920847 -22.73046875 41.25830078 C-25.51984276 44.86047757 -28.33314924 48.42638898 -31.26953125 51.91015625 C-36.10923109 57.70634298 -39.71183455 62.19184425 -40.578125 69.9375 C-41 72 -41 72 -43.5625 75.0625 C-47.79611828 77.44872121 -51.14271392 78.4223727 -56 78 C-60.01231715 76.74760043 -62.50075951 74.7085994 -64.9375 71.25 C-66.55101199 66.31455155 -66.85863197 62.22234157 -64.9375 57.25 C-61.70455935 53.49561732 -57.86310672 51.51662882 -53.16674805 50.21435547 C-49.63258612 48.8591075 -47.93420219 47.38415895 -45.3203125 44.67578125 C-44.47339844 43.81146484 -43.62648438 42.94714844 -42.75390625 42.05664062 C-41.88636719 41.15107422 -41.01882813 40.24550781 -40.125 39.3125 C-30.21678879 29.09976355 -30.21678879 29.09976355 -26.0859375 25.5703125 C-20.59452329 20.87791358 -15.58166187 15.68808361 -10.5 10.5625 C-9.47679861 9.5342702 -8.45336267 8.50627374 -7.4296875 7.47851562 C-4.95042001 4.98835662 -2.47432462 2.49507167 0 0 Z " fill="#FAFCFC" transform="translate(411,344)"></path><path d="M0 0 C4.16623147 3.74315461 6.44010752 7.27613233 8.6875 12.375 C8.98205078 13.00921875 9.27660156 13.6434375 9.58007812 14.296875 C14.16611713 24.39646652 15.17392115 34.0429675 15 45 C10.71 45 6.42 45 2 45 C1.85304688 43.60201172 1.85304688 43.60201172 1.703125 42.17578125 C0.39556081 31.02766931 -1.17482673 19.86071202 -8.14453125 10.68359375 C-9 9 -9 9 -8.890625 6.95703125 C-7.71767743 4.37963329 -6.37604271 3.64345297 -3.9375 2.25 C-3.20402344 1.82203125 -2.47054688 1.3940625 -1.71484375 0.953125 C-1.14894531 0.63859375 -0.58304687 0.3240625 0 0 Z " fill="#F8FBFA" transform="translate(420,371)"></path><path d="M0 0 C3.49406769 1.66762322 4.82670681 2.74006022 7 6 C7.50256748 10.62362084 6.86230692 13.3198911 4 17 C0.79062591 19.32402951 -2.11506021 19.47570691 -6 19 C-8.69990662 17.20006226 -10.5418865 15.916227 -12 13 C-12.34560019 9.98834116 -12.58340289 7.905902 -12 5 C-8.33086642 0.80670448 -5.57990079 -0.94977035 0 0 Z " fill="#379783" transform="translate(310,234)"></path><path d="M0 0 C2.58861097 2.13560405 3.71069819 3.63614862 4.41015625 6.93359375 C4.7003485 10.86979124 4.23258873 12.65111691 2 16 C-1.33115355 18.22076904 -3.14118584 18.75501158 -7.06640625 18.48046875 C-10.54565017 17.61592935 -11.98608141 15.86830829 -14 13 C-15.125 9.5625 -15.125 9.5625 -15 6 C-11.31499843 -0.45959098 -7.06444676 -1.99647409 0 0 Z " fill="#3FA18C" transform="translate(338,158)"></path><path d="M0 0 C3.4375 2 3.4375 2 6 5 C6.74640732 7.82609184 6.68717509 10.16540277 6 13 C4.20636089 15.8100346 2.98119065 17.50940468 0 19 C-4.1191283 19.56169931 -5.73293198 19.16628763 -9.3125 16.9375 C-12.53289137 13.41753734 -13.16653727 11.74631234 -13 7 C-9.57254205 0.61783692 -7.21564841 -0.72156484 0 0 Z " fill="#399A85" transform="translate(368,266)"></path></svg>