<svg version="1.1" xmlns="http://www.w3.org/2000/svg" width="16px" height="16px" fill="currentColor" viewBox="0 0 512 512"><path d="M0 0 C168.96 0 337.92 0 512 0 C512 168.96 512 337.92 512 512 C343.04 512 174.08 512 0 512 C0 343.04 0 174.08 0 0 Z " fill="#E2730D" transform="translate(0,0)"></path><path d="M0 0 C1.83180368 -0.01379639 1.83180368 -0.01379639 3.7006135 -0.02787149 C5.05774865 -0.01784116 6.41488107 -0.00743665 7.7720108 0.00330162 C9.21217234 0.00012592 10.6523309 -0.00480081 12.09248114 -0.0113312 C16.05501529 -0.02417996 20.01714188 -0.01200573 23.97964931 0.00419736 C28.25101085 0.01733549 32.52232623 0.00745788 36.79369354 0.00043297 C45.16328611 -0.00965944 53.53272084 0.0016427 61.9022938 0.02013357 C71.64355448 0.04088277 81.38478085 0.04076169 91.12605947 0.03978841 C108.50388554 0.0387867 125.88163804 0.05712276 143.25943756 0.08615685 C160.13217255 0.11433261 177.00484279 0.12849842 193.87760162 0.12717247 C194.91675057 0.12709256 195.95589952 0.12701265 197.02653784 0.12693031 C198.06386826 0.1268496 199.10119868 0.12676889 200.16996336 0.12668574 C219.36372745 0.12530675 238.55746396 0.13708218 257.75121912 0.15499217 C264.54564142 0.16103042 271.34005866 0.16315195 278.13448334 0.16405678 C286.41161896 0.16541976 294.68870811 0.17433103 302.96582401 0.1927224 C307.19106955 0.20196918 311.41625557 0.20804541 315.64151192 0.20553398 C319.50653133 0.20334803 323.37141899 0.21035525 327.23641092 0.22483103 C328.63742527 0.22846509 330.03845318 0.22871109 331.43946809 0.22529645 C333.33866076 0.2211789 335.23786853 0.23047995 337.13703918 0.24050903 C338.19353117 0.24191788 339.25002316 0.24332673 340.33853006 0.24477828 C343.11313533 0.50191267 344.75041406 0.9783183 347.06851959 2.49777794 C348.29709021 4.95491917 348.19974037 6.56350736 348.20896149 9.31172752 C348.21467163 10.32825401 348.22038177 11.3447805 348.22626495 12.39211082 C348.22738281 13.5116465 348.22850067 14.63118217 348.2296524 15.78464317 C348.23461731 16.96029839 348.23958221 18.1359536 348.24469757 19.34723473 C348.25681748 22.57655944 348.26426708 25.80584793 348.26870823 29.0351913 C348.27163782 31.05171028 348.27574237 33.06822357 348.2802124 35.08473969 C348.29388729 41.39105657 348.30355445 47.69736045 348.30741429 54.00369114 C348.31189767 61.28909796 348.32945835 68.57431741 348.35841489 75.85966724 C348.38000985 81.48773728 348.39011737 87.11575451 348.39145541 92.74386555 C348.39250486 96.10698746 348.39844217 99.46993324 348.41627502 102.83301163 C348.43325246 106.58265993 348.43147558 110.33184747 348.4249649 114.08151817 C348.43417969 115.19902962 348.44339447 116.31654106 348.45288849 117.46791649 C348.44453476 118.99693596 348.44453476 118.99693596 348.43601227 120.55684471 C348.43747883 121.4437773 348.43894539 122.3307099 348.44045639 123.24451923 C347.97227071 126.08087064 347.35597422 126.78143766 345.06851959 128.49777794 C342.4423418 128.87382543 342.4423418 128.87382543 339.21044159 128.87530136 C337.9801633 128.8831246 336.74988501 128.89094784 335.48232555 128.89900815 C334.10976978 128.8925214 332.73721531 128.8857514 331.36466217 128.87872887 C329.91227777 128.88218346 328.45989599 128.88694668 327.00751972 128.8929106 C323.00666474 128.90547766 319.00602341 128.89922445 315.00516748 128.88995194 C310.69426911 128.88318504 306.38340837 128.89363093 302.0725174 128.90189171 C293.62361381 128.91525653 285.17479001 128.9123391 276.72588325 128.90365379 C269.86146116 128.89688843 262.99706149 128.89595553 256.13263702 128.89922523 C255.15698251 128.89968493 254.18132799 128.90014463 253.17610818 128.90061826 C251.19430597 128.9015774 249.21250376 128.90255004 247.23070157 128.90353604 C228.63175306 128.91209798 210.03284887 128.90224319 191.43390763 128.88613494 C175.46280557 128.87273103 159.49176891 128.8750589 143.52066803 128.88889122 C124.98989249 128.90493284 106.45915581 128.91127393 87.92837429 128.90205443 C85.95371692 128.90109875 83.97905954 128.90015563 82.00440216 128.89922523 C81.03274245 128.89876241 80.06108273 128.89829958 79.05997878 128.89782273 C72.20096933 128.89522858 65.34198446 128.89961297 58.48297882 128.90666389 C50.12819364 128.91506337 41.77349306 128.91283157 33.41871762 128.89682166 C29.15306646 128.88891794 24.88755651 128.88588291 20.62190628 128.89576912 C16.72107828 128.90467331 12.82052311 128.8998544 8.91972005 128.88383646 C7.50455985 128.88047041 6.08937685 128.88222337 4.67423117 128.88946383 C2.75836889 128.89851828 0.84244254 128.88748407 -1.0734024 128.87530136 C-2.13992948 128.8748143 -3.20645655 128.87432725 -4.30530262 128.87382543 C-6.93148041 128.49777794 -6.93148041 128.49777794 -8.77384049 127.11466223 C-10.37870768 124.87313228 -10.31162084 123.31426854 -10.31916046 120.57030296 C-10.32906509 119.55384697 -10.33896973 118.53739098 -10.3491745 117.49013329 C-10.34467285 116.37576393 -10.3401712 115.26139458 -10.33553314 114.11325645 C-10.34239639 112.93906151 -10.34925964 111.76486656 -10.35633087 110.55508995 C-10.37151104 107.33391363 -10.37308868 104.11309931 -10.36738849 100.89190221 C-10.36430046 98.20298354 -10.37038481 95.51411742 -10.37642723 92.82520622 C-10.39048035 86.48156273 -10.38890492 80.13805388 -10.37752533 73.7944088 C-10.36604486 67.24991423 -10.38011634 60.70582949 -10.4069218 54.16138893 C-10.42907423 48.54259941 -10.43571721 42.92393858 -10.42984539 37.30510849 C-10.42647325 33.94920888 -10.42890739 30.59357194 -10.44609642 27.23770905 C-10.4609307 23.49539161 -10.45038364 19.75398246 -10.43318939 16.01169395 C-10.44285736 14.89934883 -10.45252533 13.78700371 -10.46248627 12.64095116 C-10.45265213 11.62167534 -10.44281799 10.60239952 -10.43268585 9.55223656 C-10.43247657 8.66752458 -10.43226728 7.7828126 -10.43205166 6.87129116 C-9.22726375 1.1586578 -5.31768949 -0.00218818 0 0 Z " fill="#E87C0D" transform="translate(86.93148040771484,101.50222206115723)"></path><path d="M0 0 C1.45865479 0.82806152 1.45865479 0.82806152 2.94677734 1.67285156 C4.0445752 2.28878174 5.14237305 2.90471191 6.2734375 3.53930664 C7.443516 4.21347593 8.61326888 4.88821063 9.78271484 5.56347656 C10.98458391 6.24614032 12.18689937 6.92801874 13.38964844 7.60913086 C16.99132894 9.65617019 20.57638048 11.73109573 24.15771484 13.81347656 C25.21345703 14.42594238 26.26919922 15.0384082 27.35693359 15.66943359 C30.17235909 17.31038502 32.98012157 18.9632188 35.78271484 20.62597656 C36.6227002 21.12258789 37.46268555 21.61919922 38.328125 22.13085938 C39.08915527 22.58944336 39.85018555 23.04802734 40.63427734 23.52050781 C41.29508301 23.91729736 41.95588867 24.31408691 42.63671875 24.72290039 C44.15771484 25.81347656 44.15771484 25.81347656 45.15771484 27.81347656 C45.15771484 35.07347656 45.15771484 42.33347656 45.15771484 49.81347656 C83.10771484 49.81347656 121.05771484 49.81347656 160.15771484 49.81347656 C160.15771484 54.10347656 160.15771484 58.39347656 160.15771484 62.81347656 C122.20771484 62.81347656 84.25771484 62.81347656 45.15771484 62.81347656 C45.15771484 69.74347656 45.15771484 76.67347656 45.15771484 83.81347656 C41.46234967 87.50884174 39.45527363 89.4793879 35.16552734 91.82910156 C33.74663208 92.61667847 33.74663208 92.61667847 32.29907227 93.42016602 C31.30367432 93.9624585 30.30827637 94.50475098 29.28271484 95.06347656 C27.21796007 96.20628825 25.15415939 97.3508254 23.09130859 98.49707031 C21.57899658 99.3360083 21.57899658 99.3360083 20.03613281 100.19189453 C15.45516657 102.77262208 10.96461902 105.49708008 6.5 108.2734375 C2.36429537 110.81347656 2.36429537 110.81347656 0.15771484 110.81347656 C0.15771484 126.32347656 0.15771484 141.83347656 0.15771484 157.81347656 C-3.80228516 157.81347656 -7.76228516 157.81347656 -11.84228516 157.81347656 C-11.73118408 156.46825928 -11.62008301 155.12304199 -11.50561523 153.73706055 C-8.4612973 129.40772358 -8.4612973 129.40772358 -15.29785156 107.26025391 C-21.12176355 101.82394546 -29.05455711 99.29349102 -36.50683594 96.94140625 C-41.05837645 95.40223796 -44.88812397 93.15690321 -48.90478516 90.56347656 C-50.03013672 89.89832031 -51.15548828 89.23316406 -52.31494141 88.54785156 C-54.84228516 86.81347656 -54.84228516 86.81347656 -56.84228516 83.81347656 C-56.84228516 76.88347656 -56.84228516 69.95347656 -56.84228516 62.81347656 C-94.79228516 62.81347656 -132.74228516 62.81347656 -171.84228516 62.81347656 C-171.84228516 58.52347656 -171.84228516 54.23347656 -171.84228516 49.81347656 C-133.89228516 49.81347656 -95.94228516 49.81347656 -56.84228516 49.81347656 C-56.84228516 42.55347656 -56.84228516 35.29347656 -56.84228516 27.81347656 C-53.58243339 24.55362479 -51.53880061 22.87489364 -47.65087891 20.74707031 C-46.12297729 19.90233154 -46.12297729 19.90233154 -44.56420898 19.04052734 C-42.93841919 18.15469971 -42.93841919 18.15469971 -41.27978516 17.25097656 C-31.66039592 11.97085295 -31.66039592 11.97085295 -22.17822266 6.45019531 C-21.32429932 5.93980713 -20.47037598 5.42941895 -19.59057617 4.90356445 C-18.00666393 3.95086752 -16.42862972 2.98830495 -14.85766602 2.0144043 C-14.14747314 1.58973877 -13.43728027 1.16507324 -12.70556641 0.72753906 C-12.10010986 0.35580566 -11.49465332 -0.01592773 -10.87084961 -0.39892578 C-6.95678514 -1.9185758 -3.83182411 -1.59961048 0 0 Z " fill="#FEFBF9" transform="translate(261.84228515625,251.1865234375)"></path><path d="M0 0 C1.83180368 -0.01379639 1.83180368 -0.01379639 3.7006135 -0.02787149 C5.05774865 -0.01784116 6.41488107 -0.00743665 7.7720108 0.00330162 C9.21217234 0.00012592 10.6523309 -0.00480081 12.09248114 -0.0113312 C16.05501529 -0.02417996 20.01714188 -0.01200573 23.97964931 0.00419736 C28.25101085 0.01733549 32.52232623 0.00745788 36.79369354 0.00043297 C45.16328611 -0.00965944 53.53272084 0.0016427 61.9022938 0.02013357 C71.64355448 0.04088277 81.38478085 0.04076169 91.12605947 0.03978841 C108.50388554 0.0387867 125.88163804 0.05712276 143.25943756 0.08615685 C160.13217255 0.11433261 177.00484279 0.12849842 193.87760162 0.12717247 C194.91675057 0.12709256 195.95589952 0.12701265 197.02653784 0.12693031 C198.06386826 0.1268496 199.10119868 0.12676889 200.16996336 0.12668574 C219.36372745 0.12530675 238.55746396 0.13708218 257.75121912 0.15499217 C264.54564142 0.16103042 271.34005866 0.16315195 278.13448334 0.16405678 C286.41161896 0.16541976 294.68870811 0.17433103 302.96582401 0.1927224 C307.19106955 0.20196918 311.41625557 0.20804541 315.64151192 0.20553398 C319.50653133 0.20334803 323.37141899 0.21035525 327.23641092 0.22483103 C328.63742527 0.22846509 330.03845318 0.22871109 331.43946809 0.22529645 C333.33866076 0.2211789 335.23786853 0.23047995 337.13703918 0.24050903 C338.19353117 0.24191788 339.25002316 0.24332673 340.33853006 0.24477828 C343.11313533 0.50191267 344.75041406 0.9783183 347.06851959 2.49777794 C348.29709021 4.95491917 348.19974037 6.56350736 348.20896149 9.31172752 C348.21467163 10.32825401 348.22038177 11.3447805 348.22626495 12.39211082 C348.22738281 13.5116465 348.22850067 14.63118217 348.2296524 15.78464317 C348.23461731 16.96029839 348.23958221 18.1359536 348.24469757 19.34723473 C348.25681748 22.57655944 348.26426708 25.80584793 348.26870823 29.0351913 C348.27163782 31.05171028 348.27574237 33.06822357 348.2802124 35.08473969 C348.29388729 41.39105657 348.30355445 47.69736045 348.30741429 54.00369114 C348.31189767 61.28909796 348.32945835 68.57431741 348.35841489 75.85966724 C348.38000985 81.48773728 348.39011737 87.11575451 348.39145541 92.74386555 C348.39250486 96.10698746 348.39844217 99.46993324 348.41627502 102.83301163 C348.43325246 106.58265993 348.43147558 110.33184747 348.4249649 114.08151817 C348.43417969 115.19902962 348.44339447 116.31654106 348.45288849 117.46791649 C348.44453476 118.99693596 348.44453476 118.99693596 348.43601227 120.55684471 C348.43747883 121.4437773 348.43894539 122.3307099 348.44045639 123.24451923 C347.97227071 126.08087064 347.35597422 126.78143766 345.06851959 128.49777794 C342.4423418 128.87382543 342.4423418 128.87382543 339.21044159 128.87530136 C337.9801633 128.8831246 336.74988501 128.89094784 335.48232555 128.89900815 C334.10976978 128.8925214 332.73721531 128.8857514 331.36466217 128.87872887 C329.91227777 128.88218346 328.45989599 128.88694668 327.00751972 128.8929106 C323.00666474 128.90547766 319.00602341 128.89922445 315.00516748 128.88995194 C310.69426911 128.88318504 306.38340837 128.89363093 302.0725174 128.90189171 C293.62361381 128.91525653 285.17479001 128.9123391 276.72588325 128.90365379 C269.86146116 128.89688843 262.99706149 128.89595553 256.13263702 128.89922523 C255.15698251 128.89968493 254.18132799 128.90014463 253.17610818 128.90061826 C251.19430597 128.9015774 249.21250376 128.90255004 247.23070157 128.90353604 C228.63175306 128.91209798 210.03284887 128.90224319 191.43390763 128.88613494 C175.46280557 128.87273103 159.49176891 128.8750589 143.52066803 128.88889122 C124.98989249 128.90493284 106.45915581 128.91127393 87.92837429 128.90205443 C85.95371692 128.90109875 83.97905954 128.90015563 82.00440216 128.89922523 C81.03274245 128.89876241 80.06108273 128.89829958 79.05997878 128.89782273 C72.20096933 128.89522858 65.34198446 128.89961297 58.48297882 128.90666389 C50.12819364 128.91506337 41.77349306 128.91283157 33.41871762 128.89682166 C29.15306646 128.88891794 24.88755651 128.88588291 20.62190628 128.89576912 C16.72107828 128.90467331 12.82052311 128.8998544 8.91972005 128.88383646 C7.50455985 128.88047041 6.08937685 128.88222337 4.67423117 128.88946383 C2.75836889 128.89851828 0.84244254 128.88748407 -1.0734024 128.87530136 C-2.13992948 128.8748143 -3.20645655 128.87432725 -4.30530262 128.87382543 C-6.93148041 128.49777794 -6.93148041 128.49777794 -8.77384049 127.11466223 C-10.37870768 124.87313228 -10.31162084 123.31426854 -10.31916046 120.57030296 C-10.32906509 119.55384697 -10.33896973 118.53739098 -10.3491745 117.49013329 C-10.34467285 116.37576393 -10.3401712 115.26139458 -10.33553314 114.11325645 C-10.34239639 112.93906151 -10.34925964 111.76486656 -10.35633087 110.55508995 C-10.37151104 107.33391363 -10.37308868 104.11309931 -10.36738849 100.89190221 C-10.36430046 98.20298354 -10.37038481 95.51411742 -10.37642723 92.82520622 C-10.39048035 86.48156273 -10.38890492 80.13805388 -10.37752533 73.7944088 C-10.36604486 67.24991423 -10.38011634 60.70582949 -10.4069218 54.16138893 C-10.42907423 48.54259941 -10.43571721 42.92393858 -10.42984539 37.30510849 C-10.42647325 33.94920888 -10.42890739 30.59357194 -10.44609642 27.23770905 C-10.4609307 23.49539161 -10.45038364 19.75398246 -10.43318939 16.01169395 C-10.44285736 14.89934883 -10.45252533 13.78700371 -10.46248627 12.64095116 C-10.45265213 11.62167534 -10.44281799 10.60239952 -10.43268585 9.55223656 C-10.43247657 8.66752458 -10.43226728 7.7828126 -10.43205166 6.87129116 C-9.22726375 1.1586578 -5.31768949 -0.00218818 0 0 Z M2.06851959 13.49777794 C2.06851959 47.48777794 2.06851959 81.47777794 2.06851959 116.49777794 C112.28851959 116.49777794 222.50851959 116.49777794 336.06851959 116.49777794 C336.06851959 82.50777794 336.06851959 48.51777794 336.06851959 13.49777794 C225.84851959 13.49777794 115.62851959 13.49777794 2.06851959 13.49777794 Z " fill="#FEFDFB" transform="translate(86.93148040771484,101.50222206115723)"></path><path d="M0 0 C0.91040039 0.54309814 1.82080078 1.08619629 2.75878906 1.64575195 C3.77714844 2.24709961 4.79550781 2.84844727 5.84472656 3.46801758 C6.89402344 4.10030273 7.94332031 4.73258789 9.02441406 5.3840332 C10.05824219 5.99698242 11.09207031 6.60993164 12.15722656 7.24145508 C14.21996562 8.46636876 16.26740826 9.71742633 18.29833984 10.99438477 C21.18563451 12.77500865 21.18563451 12.77500865 24.24658203 13.68774414 C27.61945269 14.95653186 29.12666588 15.76475433 31.27441406 18.6965332 C32.97912676 26.12531442 32.20505032 34.02174099 31.89941406 41.5715332 C31.84923546 43.71205519 31.8036112 45.85268912 31.76269531 47.9934082 C31.65267262 53.23022932 31.48555328 58.46286598 31.27441406 63.6965332 C30.50887207 64.11950684 29.74333008 64.54248047 28.95458984 64.97827148 C26.06496035 66.57596399 23.17624048 68.17527858 20.28808594 69.77563477 C19.04722558 70.46279166 17.80602478 71.1493342 16.56445312 71.83520508 C15.3583901 72.50155977 14.15280042 73.16877191 12.94769287 73.83685303 C11.7555939 74.49765825 10.56243765 75.15655976 9.3682251 75.8135376 C4.9150827 78.28183313 0.65230569 80.97842523 -3.54638672 83.85620117 C-5.72558594 84.6965332 -5.72558594 84.6965332 -8.11816406 84.05395508 C-11.05871373 82.52310713 -13.97965085 80.97776756 -16.87402344 79.3605957 C-17.4496402 79.03997162 -18.02525696 78.71934753 -18.61831665 78.38900757 C-20.44731357 77.36930626 -22.27394886 76.34545457 -24.10058594 75.3215332 C-25.31918744 74.64157949 -26.53793618 73.96188961 -27.75683594 73.2824707 C-33.43020584 70.11665489 -39.08784323 66.92533338 -44.72558594 63.6965332 C-45.14834731 57.47180244 -45.4552491 51.25551173 -45.65942383 45.01977539 C-45.74453786 42.90403753 -45.86029493 40.78928923 -46.00805664 38.67700195 C-47.16903726 21.64392992 -47.16903726 21.64392992 -43.16629028 16.81564331 C-39.13830791 13.54264263 -34.60746199 11.50661292 -29.82070923 9.57727051 C-27.06435247 8.41856723 -24.6249312 6.90302035 -22.12011719 5.27856445 C-20.95706055 4.57570313 -20.95706055 4.57570313 -19.77050781 3.85864258 C-18.23168449 2.92834781 -16.7008258 1.9847934 -15.17675781 1.03051758 C-14.41556641 0.57612305 -13.654375 0.12172852 -12.87011719 -0.34643555 C-12.21374268 -0.74886475 -11.55736816 -1.15129395 -10.88110352 -1.56591797 C-6.90503584 -2.92640052 -3.67978721 -1.75979791 0 0 Z " fill="#E0710F" transform="translate(262.7255859375,266.303466796875)"></path><path d="M0 0 C31.68 0 63.36 0 96 0 C96 4.29 96 8.58 96 13 C64.32 13 32.64 13 0 13 C0 8.71 0 4.42 0 0 Z " fill="#FEFCFA" transform="translate(301,160)"></path><path d="M0 0 C12.87 0 25.74 0 39 0 C39 4.29 39 8.58 39 13 C26.13 13 13.26 13 0 13 C0 8.71 0 4.42 0 0 Z " fill="#FEFAF7" transform="translate(115,160)"></path></svg>