<svg version="1.1" xmlns="http://www.w3.org/2000/svg" width="16px" height="16px" fill="currentColor" viewBox="0 0 512 512"><path d="M0 0 C168.96 0 337.92 0 512 0 C512 168.96 512 337.92 512 512 C343.04 512 174.08 512 0 512 C0 343.04 0 174.08 0 0 Z " fill="#E2740D" transform="translate(0,0)"></path><path d="M0 0 C1.09380917 -0.00782324 2.18761833 -0.01564648 3.31457323 -0.02370679 C4.52097304 -0.01701463 5.72737285 -0.01032246 6.97033024 -0.00342751 C8.24822314 -0.00810748 9.52611604 -0.01278745 10.84273297 -0.01760924 C14.39700491 -0.03017115 17.95103624 -0.02392546 21.50530922 -0.01465058 C25.33565149 -0.00788149 29.16595148 -0.0183307 32.99628544 -0.02659035 C40.50304198 -0.03995321 48.00970871 -0.0370385 55.51646882 -0.02835242 C61.61619958 -0.0215858 67.71590511 -0.02065473 73.81563854 -0.02392387 C74.68276525 -0.02438357 75.54989196 -0.02484327 76.44329523 -0.0253169 C78.20468871 -0.02627605 79.96608218 -0.02724869 81.72747565 -0.02823468 C98.25721786 -0.03679618 114.78691022 -0.0269428 131.31664426 -0.01083358 C145.50738867 0.00256793 159.69805945 0.00024437 173.88880253 -0.01358986 C190.3565923 -0.02963634 206.82433833 -0.03596963 223.29213482 -0.02675307 C225.04746695 -0.02579739 226.80279908 -0.02485428 228.55813122 -0.02392387 C229.42184992 -0.02346105 230.28556862 -0.02299822 231.17546062 -0.02252137 C237.26906589 -0.01992851 243.36264348 -0.0243089 249.45624447 -0.03136253 C256.88068885 -0.0397675 264.30503805 -0.03751869 271.7294715 -0.0215203 C275.51931486 -0.01362364 279.3089994 -0.01056955 283.09884167 -0.02046776 C287.20279057 -0.03102438 291.30633677 -0.01843884 295.41027164 -0.00342751 C296.61444074 -0.01011967 297.81860983 -0.01681184 299.05926889 -0.02370679 C300.1556858 -0.01588355 301.25210272 -0.00806031 302.38174438 0 C303.32941899 0.00048706 304.2770936 0.00097411 305.25348562 0.00147593 C308.22059613 0.44773089 309.60006733 1.31647301 311.75379276 3.37752342 C312.25715733 5.71889973 312.25715733 5.71889973 312.26172733 8.5327816 C312.27864628 10.13319298 312.27864628 10.13319298 312.29590702 11.7659359 C312.28376163 13.52164658 312.28376163 13.52164658 312.27137089 15.31282616 C312.2818848 17.16190071 312.2818848 17.16190071 312.29261112 19.04833031 C312.30721665 22.43088843 312.3037701 25.81246997 312.29109478 29.19497371 C312.28097379 32.7338695 312.29035814 36.2727233 312.29663944 39.81162071 C312.30391948 45.75594647 312.29431999 51.70007353 312.27527714 57.64436913 C312.25351748 64.51606067 312.26055135 71.38727734 312.28258276 78.25895733 C312.30073874 84.15801127 312.30329389 90.05692229 312.29282808 95.95599514 C312.28659286 99.47954818 312.28575784 103.00287809 312.29897404 106.52641678 C312.3126811 110.45540739 312.2936794 114.38386694 312.27137089 118.31282616 C312.27946781 119.48127571 312.28756474 120.64972527 312.29590702 121.85358238 C312.28462772 122.92334312 312.27334843 123.99310387 312.26172733 125.0952816 C312.25946518 126.48871867 312.25946518 126.48871867 312.25715733 127.91030598 C311.58490406 131.20532335 310.34127697 132.26955405 307.75379276 134.37752342 C305.25348562 134.87892008 305.25348562 134.87892008 302.38174438 134.88088799 C300.73711902 134.89653447 300.73711902 134.89653447 299.05926889 134.91249704 C297.8550998 134.90357416 296.65093071 134.89465127 295.41027164 134.88545799 C294.13081875 134.89169796 292.85136586 134.89793792 291.53314167 134.90436697 C287.97913605 134.92109522 284.42555898 134.91279844 280.87155163 134.9004221 C277.03986975 134.89138816 273.20826262 134.905333 269.3765955 134.91634178 C261.86962077 134.93414888 254.36280581 134.93027747 246.85582476 134.91869122 C240.75658022 134.90966643 234.65738052 134.90842875 228.55813122 134.91278648 C227.69085128 134.91339942 226.82357134 134.91401235 225.93001019 134.91464385 C224.1682925 134.91592272 222.40657483 134.91721957 220.64485718 134.91853422 C204.11703336 134.92994626 187.58929821 134.91681619 171.06148893 134.89533275 C156.87041885 134.87745804 142.67947963 134.88056773 128.4884119 134.8990078 C112.01914996 134.92039808 95.54996576 134.92885089 79.08069187 134.91655874 C77.32567411 134.91528451 75.57065633 134.91402703 73.81563854 134.91278648 C72.95207412 134.91216938 72.08850969 134.91155228 71.19877664 134.91091648 C65.10418074 134.90745827 59.00963403 134.91330196 52.91504574 134.9227047 C45.4916674 134.93390549 38.06845832 134.93092514 30.64509945 134.90958172 C26.85533154 134.89904573 23.06584615 134.89499247 19.27608013 134.90817833 C15.1739159 134.92223565 11.07246935 134.90548877 6.97033024 134.88545799 C5.76393043 134.89438088 4.55753061 134.90330377 3.31457323 134.91249704 C2.22076406 134.90206605 1.1269549 134.89163507 0 134.88088799 C-0.94751226 134.88023858 -1.89502451 134.87958917 -2.87124926 134.87892008 C-5.24620724 134.37752342 -5.24620724 134.37752342 -7.05049998 132.50026423 C-8.53792712 129.85963269 -8.62347609 128.11938542 -8.62715816 125.0952816 C-8.63561764 124.02552086 -8.64407711 122.95576012 -8.65279293 121.85358238 C-8.64672024 120.68513283 -8.64064754 119.51668327 -8.63439083 118.31282616 C-8.63964779 117.07835747 -8.64490475 115.84388878 -8.65032101 114.57201195 C-8.66126244 111.18973005 -8.65869844 107.80799868 -8.64918375 104.42574763 C-8.6415866 100.88639573 -8.64863276 97.34706729 -8.65334225 93.80771446 C-8.65879894 87.86520223 -8.65160977 81.92280187 -8.63732052 75.98030663 C-8.62098657 69.10807731 -8.6262881 62.23611489 -8.64279974 55.36389202 C-8.65640818 49.46400238 -8.65833767 43.56419313 -8.65048373 37.66429287 C-8.6458046 34.14026231 -8.64518897 30.61635727 -8.65509319 27.09233475 C-8.6653583 23.16572607 -8.6511359 19.23941713 -8.63439083 15.31282616 C-8.64046352 14.14235237 -8.64653622 12.97187859 -8.65279293 11.7659359 C-8.64010372 10.16552452 -8.64010372 10.16552452 -8.62715816 8.5327816 C-8.62602709 7.60420058 -8.62489601 6.67561956 -8.62373066 5.71889973 C-7.80153733 0.61970885 -4.69811398 0.00241501 0 0 Z " fill="#E6790B" transform="translate(104.24620723724365,124.62247657775879)"></path><path d="M0 0 C4.01673814 1.90212331 7.84501702 4.08257405 11.6875 6.3125 C12.78006104 6.93608398 13.87262207 7.55966797 14.99829102 8.20214844 C23.82430758 13.26170554 32.5991396 18.4140434 41.30859375 23.671875 C41.97689209 24.0750293 42.64519043 24.47818359 43.33374023 24.89355469 C45 26 45 26 47 28 C47 35.92 47 43.84 47 52 C80.99 52 114.98 52 150 52 C150 56.29 150 60.58 150 65 C116.01 65 82.02 65 47 65 C47 71.93 47 78.86 47 86 C43.36265606 88.90987515 40.22634486 91.15501988 36.24609375 93.42578125 C34.5919043 94.37420898 34.5919043 94.37420898 32.90429688 95.34179688 C31.76025391 95.99212891 30.61621094 96.64246094 29.4375 97.3125 C27.18603666 98.59997846 24.93473382 99.88773763 22.68359375 101.17578125 C21.0281958 102.1186499 21.0281958 102.1186499 19.33935547 103.08056641 C17.06772424 104.38628104 14.80692467 105.70166908 12.55517578 107.04052734 C10.93651611 108.00079834 10.93651611 108.00079834 9.28515625 108.98046875 C8.31586182 109.56078857 7.34656738 110.1411084 6.34790039 110.73901367 C4 112 4 112 2 112 C2 123.88 2 135.76 2 148 C-1.96 148 -5.92 148 -10 148 C-10 136.12 -10 124.24 -10 112 C-12.97 111.01 -12.97 111.01 -16 110 C-17.92431641 109.04541016 -17.92431641 109.04541016 -19.6015625 108.0390625 C-20.24730225 107.65556641 -20.89304199 107.27207031 -21.55834961 106.87695312 C-22.24034424 106.46380859 -22.92233887 106.05066406 -23.625 105.625 C-24.34631104 105.19380859 -25.06762207 104.76261719 -25.81079102 104.31835938 C-27.37189325 103.38425586 -28.93149141 102.44763511 -30.48974609 101.50878906 C-33.15002069 99.90983001 -35.81840908 98.32506374 -38.48828125 96.7421875 C-40.30487801 95.66177859 -42.12128779 94.58105523 -43.9375 93.5 C-44.80777832 92.9838916 -45.67805664 92.4677832 -46.57470703 91.93603516 C-47.38407715 91.45183105 -48.19344727 90.96762695 -49.02734375 90.46875 C-49.74656006 90.04013672 -50.46577637 89.61152344 -51.20678711 89.16992188 C-53 88 -53 88 -55 86 C-55 79.07 -55 72.14 -55 65 C-88.99 65 -122.98 65 -158 65 C-158 60.71 -158 56.42 -158 52 C-124.01 52 -90.02 52 -55 52 C-55 44.08 -55 36.16 -55 28 C-51.41037845 25.12830276 -48.34540994 22.91423533 -44.421875 20.6796875 C-43.35106689 20.06609375 -42.28025879 19.4525 -41.17700195 18.8203125 C-40.04609131 18.17835938 -38.91518066 17.53640625 -37.75 16.875 C-28.17388047 11.44874978 -28.17388047 11.44874978 -18.75390625 5.7578125 C-17.99174805 5.28617676 -17.22958984 4.81454102 -16.44433594 4.32861328 C-15.06673557 3.4700584 -13.69806897 2.59692229 -12.34082031 1.70654297 C-7.75105563 -1.12788472 -5.15142626 -1.56249265 0 0 Z " fill="#FEFCFA" transform="translate(260,284)"></path><path d="M0 0 C1.09380917 -0.00782324 2.18761833 -0.01564648 3.31457323 -0.02370679 C4.52097304 -0.01701463 5.72737285 -0.01032246 6.97033024 -0.00342751 C8.24822314 -0.00810748 9.52611604 -0.01278745 10.84273297 -0.01760924 C14.39700491 -0.03017115 17.95103624 -0.02392546 21.50530922 -0.01465058 C25.33565149 -0.00788149 29.16595148 -0.0183307 32.99628544 -0.02659035 C40.50304198 -0.03995321 48.00970871 -0.0370385 55.51646882 -0.02835242 C61.61619958 -0.0215858 67.71590511 -0.02065473 73.81563854 -0.02392387 C74.68276525 -0.02438357 75.54989196 -0.02484327 76.44329523 -0.0253169 C78.20468871 -0.02627605 79.96608218 -0.02724869 81.72747565 -0.02823468 C98.25721786 -0.03679618 114.78691022 -0.0269428 131.31664426 -0.01083358 C145.50738867 0.00256793 159.69805945 0.00024437 173.88880253 -0.01358986 C190.3565923 -0.02963634 206.82433833 -0.03596963 223.29213482 -0.02675307 C225.04746695 -0.02579739 226.80279908 -0.02485428 228.55813122 -0.02392387 C229.42184992 -0.02346105 230.28556862 -0.02299822 231.17546062 -0.02252137 C237.26906589 -0.01992851 243.36264348 -0.0243089 249.45624447 -0.03136253 C256.88068885 -0.0397675 264.30503805 -0.03751869 271.7294715 -0.0215203 C275.51931486 -0.01362364 279.3089994 -0.01056955 283.09884167 -0.02046776 C287.20279057 -0.03102438 291.30633677 -0.01843884 295.41027164 -0.00342751 C296.61444074 -0.01011967 297.81860983 -0.01681184 299.05926889 -0.02370679 C300.1556858 -0.01588355 301.25210272 -0.00806031 302.38174438 0 C303.32941899 0.00048706 304.2770936 0.00097411 305.25348562 0.00147593 C308.22059613 0.44773089 309.60006733 1.31647301 311.75379276 3.37752342 C312.25715733 5.71889973 312.25715733 5.71889973 312.26172733 8.5327816 C312.27864628 10.13319298 312.27864628 10.13319298 312.29590702 11.7659359 C312.28376163 13.52164658 312.28376163 13.52164658 312.27137089 15.31282616 C312.2818848 17.16190071 312.2818848 17.16190071 312.29261112 19.04833031 C312.30721665 22.43088843 312.3037701 25.81246997 312.29109478 29.19497371 C312.28097379 32.7338695 312.29035814 36.2727233 312.29663944 39.81162071 C312.30391948 45.75594647 312.29431999 51.70007353 312.27527714 57.64436913 C312.25351748 64.51606067 312.26055135 71.38727734 312.28258276 78.25895733 C312.30073874 84.15801127 312.30329389 90.05692229 312.29282808 95.95599514 C312.28659286 99.47954818 312.28575784 103.00287809 312.29897404 106.52641678 C312.3126811 110.45540739 312.2936794 114.38386694 312.27137089 118.31282616 C312.27946781 119.48127571 312.28756474 120.64972527 312.29590702 121.85358238 C312.28462772 122.92334312 312.27334843 123.99310387 312.26172733 125.0952816 C312.25946518 126.48871867 312.25946518 126.48871867 312.25715733 127.91030598 C311.58490406 131.20532335 310.34127697 132.26955405 307.75379276 134.37752342 C305.25348562 134.87892008 305.25348562 134.87892008 302.38174438 134.88088799 C300.73711902 134.89653447 300.73711902 134.89653447 299.05926889 134.91249704 C297.8550998 134.90357416 296.65093071 134.89465127 295.41027164 134.88545799 C294.13081875 134.89169796 292.85136586 134.89793792 291.53314167 134.90436697 C287.97913605 134.92109522 284.42555898 134.91279844 280.87155163 134.9004221 C277.03986975 134.89138816 273.20826262 134.905333 269.3765955 134.91634178 C261.86962077 134.93414888 254.36280581 134.93027747 246.85582476 134.91869122 C240.75658022 134.90966643 234.65738052 134.90842875 228.55813122 134.91278648 C227.69085128 134.91339942 226.82357134 134.91401235 225.93001019 134.91464385 C224.1682925 134.91592272 222.40657483 134.91721957 220.64485718 134.91853422 C204.11703336 134.92994626 187.58929821 134.91681619 171.06148893 134.89533275 C156.87041885 134.87745804 142.67947963 134.88056773 128.4884119 134.8990078 C112.01914996 134.92039808 95.54996576 134.92885089 79.08069187 134.91655874 C77.32567411 134.91528451 75.57065633 134.91402703 73.81563854 134.91278648 C72.95207412 134.91216938 72.08850969 134.91155228 71.19877664 134.91091648 C65.10418074 134.90745827 59.00963403 134.91330196 52.91504574 134.9227047 C45.4916674 134.93390549 38.06845832 134.93092514 30.64509945 134.90958172 C26.85533154 134.89904573 23.06584615 134.89499247 19.27608013 134.90817833 C15.1739159 134.92223565 11.07246935 134.90548877 6.97033024 134.88545799 C5.76393043 134.89438088 4.55753061 134.90330377 3.31457323 134.91249704 C2.22076406 134.90206605 1.1269549 134.89163507 0 134.88088799 C-0.94751226 134.88023858 -1.89502451 134.87958917 -2.87124926 134.87892008 C-5.24620724 134.37752342 -5.24620724 134.37752342 -7.05049998 132.50026423 C-8.53792712 129.85963269 -8.62347609 128.11938542 -8.62715816 125.0952816 C-8.63561764 124.02552086 -8.64407711 122.95576012 -8.65279293 121.85358238 C-8.64672024 120.68513283 -8.64064754 119.51668327 -8.63439083 118.31282616 C-8.63964779 117.07835747 -8.64490475 115.84388878 -8.65032101 114.57201195 C-8.66126244 111.18973005 -8.65869844 107.80799868 -8.64918375 104.42574763 C-8.6415866 100.88639573 -8.64863276 97.34706729 -8.65334225 93.80771446 C-8.65879894 87.86520223 -8.65160977 81.92280187 -8.63732052 75.98030663 C-8.62098657 69.10807731 -8.6262881 62.23611489 -8.64279974 55.36389202 C-8.65640818 49.46400238 -8.65833767 43.56419313 -8.65048373 37.66429287 C-8.6458046 34.14026231 -8.64518897 30.61635727 -8.65509319 27.09233475 C-8.6653583 23.16572607 -8.6511359 19.23941713 -8.63439083 15.31282616 C-8.64046352 14.14235237 -8.64653622 12.97187859 -8.65279293 11.7659359 C-8.64010372 10.16552452 -8.64010372 10.16552452 -8.62715816 8.5327816 C-8.62602709 7.60420058 -8.62489601 6.67561956 -8.62373066 5.71889973 C-7.80153733 0.61970885 -4.69811398 0.00241501 0 0 Z M4.75379276 13.37752342 C4.75379276 49.01752342 4.75379276 84.65752342 4.75379276 121.37752342 C101.77379276 121.37752342 198.79379276 121.37752342 298.75379276 121.37752342 C298.75379276 85.73752342 298.75379276 50.09752342 298.75379276 13.37752342 C201.73379276 13.37752342 104.71379276 13.37752342 4.75379276 13.37752342 Z " fill="#FEFBF8" transform="translate(104.24620723724365,124.62247657775879)"></path><path d="M0 0 C3.12853862 1.43558355 6.08551166 2.98861711 9.05737305 4.72631836 C10.17950195 5.37858398 11.30163086 6.03084961 12.45776367 6.70288086 C13.62777892 7.39022194 14.79770015 8.07772308 15.9675293 8.76538086 C17.13324426 9.44558389 18.29925768 10.12527569 19.46557617 10.80444336 C21.62651227 12.06405958 23.78609975 13.32599456 25.94384766 14.59106445 C29.29419697 16.54439682 32.66281852 18.46626042 36.0300293 20.39038086 C36.0300293 35.57038086 36.0300293 50.75038086 36.0300293 66.39038086 C22.5300293 74.07788086 22.5300293 74.07788086 18.32104492 76.47119141 C17.20407227 77.10839111 16.08709961 77.74559082 14.9362793 78.40209961 C14.3331189 78.74423996 13.7299585 79.08638031 13.10852051 79.43888855 C9.79217589 81.33223192 6.59412801 83.32736027 3.4362793 85.47241211 C0.0300293 87.39038086 0.0300293 87.39038086 -2.36425781 87.17871094 C-5.20490829 86.31930305 -7.49485159 85.17368596 -10.06762695 83.69506836 C-11.03506836 83.14334961 -12.00250977 82.59163086 -12.99926758 82.02319336 C-14.00022461 81.44311523 -15.00118164 80.86303711 -16.0324707 80.26538086 C-17.00635742 79.70850586 -17.98024414 79.15163086 -18.98364258 78.57788086 C-20.97337209 77.43789062 -22.947894 76.27097985 -24.90698242 75.07910156 C-27.94268232 73.29102417 -27.94268232 73.29102417 -31.36499023 72.22314453 C-35.23559705 70.70310055 -37.30275356 69.61330356 -39.9699707 66.39038086 C-41.99908493 58.84170128 -41.08798385 50.67016286 -40.7199707 42.95288086 C-40.65974649 40.76878171 -40.60499902 38.58452423 -40.5559082 36.40014648 C-40.42397009 31.0600936 -40.22352382 25.72596831 -39.9699707 20.39038086 C-39.27548828 20.00293701 -38.58100586 19.61549316 -37.86547852 19.21630859 C-34.64964888 17.42134627 -31.43480719 15.6246213 -28.2199707 13.82788086 C-27.12813477 13.21879883 -26.03629883 12.6097168 -24.91137695 11.98217773 C-23.82211914 11.3730957 -22.73286133 10.76401367 -21.6105957 10.13647461 C-20.51166992 9.52658691 -19.41274414 8.91669922 -18.28051758 8.28833008 C-16.04814199 7.00850059 -13.84585673 5.67489931 -11.67504883 4.29321289 C-10.6328418 3.63562988 -9.59063477 2.97804688 -8.5168457 2.30053711 C-7.59226563 1.6947583 -6.66768555 1.08897949 -5.71508789 0.46484375 C-2.9699707 -0.60961914 -2.9699707 -0.60961914 0 0 Z " fill="#DE6F10" transform="translate(257.969970703125,297.609619140625)"></path><path d="M0 0 C33.66 0 67.32 0 102 0 C102 4.29 102 8.58 102 13 C68.34 13 34.68 13 0 13 C0 8.71 0 4.42 0 0 Z " fill="#FEFAF7" transform="translate(141,157)"></path><path d="M0 0 C2.86157227 1.25 2.86157227 1.25 5.81640625 3 C7.44956787 3.95507446 7.44956787 3.95507446 9.11572266 4.92944336 C10.26487543 5.6192509 11.41379769 6.30944259 12.5625 7 C13.7342583 7.69186222 14.90662324 8.38269805 16.07958984 9.07250977 C23.77912865 13.61422987 31.44851325 18.21535354 39 23 C37.35 26.3 35.7 29.6 34 33 C29.58163667 33 28.14798325 32.227419 24.38671875 30.078125 C23.30326172 29.46453125 22.21980469 28.8509375 21.10351562 28.21875 C19.41258789 27.24421875 19.41258789 27.24421875 17.6875 26.25 C16.57181641 25.61578125 15.45613281 24.9815625 14.30664062 24.328125 C5.58291797 19.36382521 5.58291797 19.36382521 2.78759766 17.61914062 C-0.26803441 15.57643392 -0.26803441 15.57643392 -3.78857422 15.18676758 C-6.85019289 16.31265097 -9.52101138 17.88591364 -12.33984375 19.52734375 C-12.94381485 19.87632217 -13.54778595 20.2253006 -14.1700592 20.58485413 C-16.09525281 21.69779768 -18.01665629 22.81706804 -19.9375 23.9375 C-21.85507372 25.05381476 -23.77346382 26.16861916 -25.69422913 27.2794342 C-27.44009096 28.28937026 -29.18289756 29.30458238 -30.92553711 30.32006836 C-33.58084675 31.77096851 -36.16494794 32.95655022 -39 34 C-40.03325986 32.57140593 -41.05127634 31.13177617 -42.0625 29.6875 C-42.63097656 28.88699219 -43.19945312 28.08648437 -43.78515625 27.26171875 C-44.18605469 26.51535156 -44.58695313 25.76898438 -45 25 C-43.68912701 21.06738103 -42.20664911 20.6847597 -38.63671875 18.671875 C-37.52103516 18.03636719 -36.40535156 17.40085937 -35.25585938 16.74609375 C-34.0665724 16.08043223 -32.87711857 15.41506874 -31.6875 14.75 C-29.3995905 13.45338803 -27.11182939 12.15651418 -24.82421875 10.859375 C-23.69032715 10.22451172 -22.55643555 9.58964844 -21.38818359 8.93554688 C-19.13007726 7.64557231 -16.89281486 6.31840492 -14.67822266 4.95507812 C-13.63585449 4.31505859 -12.59348633 3.67503906 -11.51953125 3.015625 C-10.13858276 2.14599121 -10.13858276 2.14599121 -8.72973633 1.25878906 C-5.47606488 -0.24160714 -3.54966773 -0.44212943 0 0 Z " fill="#FEFBF8" transform="translate(259,77)"></path><path d="M0 0 C12.87 0 25.74 0 39 0 C39 4.29 39 8.58 39 13 C26.13 13 13.26 13 0 13 C0 8.71 0 4.42 0 0 Z " fill="#FEF9F3" transform="translate(339,221)"></path><path d="M0 0 C12.87 0 25.74 0 39 0 C39 4.29 39 8.58 39 13 C26.13 13 13.26 13 0 13 C0 8.71 0 4.42 0 0 Z " fill="#FEF9F3" transform="translate(339,189)"></path><path d="M0 0 C12.87 0 25.74 0 39 0 C39 4.29 39 8.58 39 13 C26.13 13 13.26 13 0 13 C0 8.71 0 4.42 0 0 Z " fill="#FEF9F3" transform="translate(339,157)"></path></svg>