<svg version="1.1" xmlns="http://www.w3.org/2000/svg" width="16px" height="16px" fill="currentColor" viewBox="0 0 512 512"><path d="M0 0 C168.96 0 337.92 0 512 0 C512 168.96 512 337.92 512 512 C343.04 512 174.08 512 0 512 C0 343.04 0 174.08 0 0 Z " fill="#E3740D" transform="translate(0,0)"></path><path d="M0 0 C1.0657576 0.4131546 2.1315152 0.8263092 3.22956848 1.25198364 C6.67339154 2.5890788 10.11213631 3.93871285 13.55078125 5.2890625 C17.08417065 6.66701111 20.61854538 8.04241038 24.15298462 9.41766357 C26.48185144 10.32413535 28.81028465 11.23172192 31.13827515 12.14044189 C37.60704857 14.66248946 44.08780842 17.14341514 50.6015625 19.546875 C51.29174973 19.80262299 51.98193695 20.05837097 52.69303894 20.3218689 C55.7372203 21.44893805 58.78446687 22.56573075 61.83862305 23.66552734 C62.86769775 24.04660645 63.89677246 24.42768555 64.95703125 24.8203125 C65.82005859 25.13291016 66.68308594 25.44550781 67.57226562 25.76757812 C70.45823072 27.21179084 71.89133903 28.31900768 73.86328125 30.9140625 C74.46373222 33.88477469 74.4096878 36.81601976 74.38085938 39.83837891 C74.38786865 40.73973572 74.39487793 41.64109253 74.40209961 42.56976318 C74.4197141 45.55203001 74.40803858 48.53334833 74.39453125 51.515625 C74.39722658 53.59345684 74.40110935 55.67128746 74.40612793 57.74911499 C74.41202885 62.10874412 74.40344602 66.46804566 74.38476562 70.82763672 C74.362061 76.39594675 74.37504163 81.96348196 74.39905548 87.53176308 C74.41357011 91.82654562 74.40888008 96.12114727 74.39854431 100.41593552 C74.39588823 102.46749337 74.39910713 104.51906799 74.40846252 106.57060623 C74.4942287 130.68172933 74.4942287 130.68172933 66.48828125 139.2890625 C65.94429687 139.89492187 65.4003125 140.50078125 64.83984375 141.125 C59.34255927 146.10080294 53.32486341 148.51986312 46.42578125 150.9140625 C45.42458252 151.26218994 44.42338379 151.61031738 43.3918457 151.96899414 C32.76195941 155.51007864 21.95708771 157.48487096 10.86328125 158.9140625 C10.11103271 159.0157373 9.35878418 159.11741211 8.58374023 159.22216797 C0.27402559 160.20909502 -8.09288669 160.15675096 -16.44921875 160.1640625 C-17.24840729 160.16506958 -18.04759583 160.16607666 -18.8710022 160.16711426 C-31.51873591 160.15635225 -43.71849838 159.47815957 -56.13671875 156.9140625 C-57.24901855 156.6972583 -57.24901855 156.6972583 -58.38378906 156.47607422 C-66.41279166 154.88820971 -74.14044195 152.7368741 -81.82421875 149.9140625 C-82.79548706 149.5586438 -82.79548706 149.5586438 -83.78637695 149.19604492 C-89.6142594 146.94420677 -94.5744586 143.95259868 -98.76171875 139.2890625 C-99.58542969 138.40347656 -99.58542969 138.40347656 -100.42578125 137.5 C-107.48067695 126.83712111 -106.72422114 115.85118054 -106.66796875 103.515625 C-106.67066635 101.43199482 -106.67455101 99.34836588 -106.67956543 97.26473999 C-106.68543996 92.91579097 -106.6769583 88.56717217 -106.65820312 84.21826172 C-106.63532948 78.6428099 -106.64860287 73.06812479 -106.67249298 67.49270058 C-106.68693355 63.19817298 -106.68235441 58.90382792 -106.67198181 54.60929489 C-106.66931413 52.55277795 -106.67258573 50.49624443 -106.68190002 48.43974686 C-106.69204619 45.5721753 -106.67659542 42.70585693 -106.65429688 39.83837891 C-106.6623938 38.98950104 -106.67049072 38.14062317 -106.67883301 37.26602173 C-106.62540501 33.56193469 -106.59616846 31.55613332 -104.40034485 28.48751831 C-102.0939175 26.88431118 -100.02708977 25.80622349 -97.40112305 24.81445312 C-95.98850441 24.27181572 -95.98850441 24.27181572 -94.54734802 23.71821594 C-93.52883255 23.33940781 -92.51031708 22.96059967 -91.4609375 22.5703125 C-89.862286 21.9607093 -89.862286 21.9607093 -88.2313385 21.33879089 C-84.76617802 20.02004659 -81.29551565 18.71655917 -77.82421875 17.4140625 C-74.26337304 16.06764101 -70.70354715 14.71854772 -67.14376831 13.36930847 C-64.78501421 12.47569445 -62.42574133 11.58344855 -60.06594849 10.69258118 C-53.37432133 8.16206617 -46.71085309 5.57546483 -40.078125 2.89453125 C-38.64954169 2.32149927 -37.22091432 1.74857712 -35.79223633 1.17578125 C-33.26193755 0.16035867 -30.7428735 -0.87437231 -28.2253418 -1.921875 C-27.11843994 -2.36402344 -26.01153809 -2.80617188 -24.87109375 -3.26171875 C-23.94522461 -3.64239502 -23.01935547 -4.02307129 -22.06542969 -4.4152832 C-14.24924387 -6.20513502 -7.16299607 -2.83485652 0 0 Z " fill="#FEFCF9" transform="translate(272.13671875,101.0859375)"></path><path d="M0 0 C1.00446419 0.42215034 1.00446419 0.42215034 2.02922058 0.85282898 C3.43113882 1.44548015 4.83016819 2.0450085 6.22631836 2.65112305 C8.36091115 3.57657831 10.50441831 4.47824608 12.65039062 5.37695312 C14.01750862 5.95826968 15.38406624 6.54090625 16.75 7.125 C17.38750687 7.39387527 18.02501373 7.66275055 18.68183899 7.93977356 C21.86713728 9.33284758 24.35426605 10.53849532 26.54296875 13.26171875 C26.9037323 15.14103699 26.9037323 15.14103699 26.88354492 17.27416992 C26.88331833 18.07477341 26.88309174 18.87537689 26.88285828 19.70024109 C26.86737442 20.5597084 26.85189056 21.41917572 26.8359375 22.3046875 C26.83169266 23.18828445 26.82744781 24.07188141 26.82307434 24.98225403 C26.80627918 27.80488536 26.76862572 30.62680316 26.73046875 33.44921875 C26.71542298 35.3626199 26.70173439 37.27603224 26.68945312 39.18945312 C26.65637294 43.88048334 26.60458505 48.57098006 26.54296875 53.26171875 C27.859021 52.70859009 27.859021 52.70859009 29.20166016 52.14428711 C32.47191339 50.77444326 35.75000368 49.42430149 39.03076172 48.07983398 C40.44702391 47.49627702 41.86113334 46.90746576 43.27294922 46.31323242 C45.30797785 45.45777465 47.35011413 44.62179048 49.39453125 43.7890625 C50.01977692 43.52141586 50.64502258 43.25376923 51.28921509 42.97801208 C58.05284175 40.26966734 62.75107108 42.17045683 69.25390625 44.765625 C70.17340561 45.12973732 70.17340561 45.12973732 71.11148071 45.50120544 C73.04923649 46.27000126 74.98359764 47.04695151 76.91796875 47.82421875 C78.23936672 48.35015393 79.56097942 48.87554995 80.8828125 49.40039062 C84.10537053 50.68127656 87.32493905 51.96949159 90.54296875 53.26171875 C90.52202148 52.07094727 90.50107422 50.88017578 90.47949219 49.65332031 C90.40705913 45.23286986 90.36115703 40.81247179 90.32324219 36.39160156 C90.30313423 34.4787514 90.27584368 32.56596264 90.24121094 30.65332031 C90.19265626 27.90284064 90.16999217 25.15317398 90.15234375 22.40234375 C90.13169861 21.54803772 90.11105347 20.69373169 90.08978271 19.8135376 C90.0875648 13.93680116 90.0875648 13.93680116 92.15039062 10.87890625 C96.79547757 7.73920666 102.03424107 5.88223453 107.22265625 3.83300781 C109.27974723 3.0169637 111.32523485 2.17577575 113.37109375 1.33203125 C114.69338548 0.80182421 116.01628453 0.27312877 117.33984375 -0.25390625 C118.52932617 -0.73118164 119.71880859 -1.20845703 120.94433594 -1.70019531 C127.91216395 -3.71018206 132.96723287 -2.9743493 139.7109375 -0.25390625 C140.3536409 0.00295959 140.9963443 0.25982544 141.65852356 0.5244751 C143.00476093 1.06602756 144.34832326 1.61427459 145.68920898 2.16894531 C147.7296335 3.0113739 149.77863721 3.82935019 151.83007812 4.64453125 C164.62478825 9.82494492 164.62478825 9.82494492 167.54296875 13.26171875 C168.29122426 16.90336113 168.24326329 20.48845073 168.20703125 24.1953125 C168.21181488 25.26540054 168.21659851 26.33548859 168.2215271 27.43800354 C168.22492799 29.6999763 168.21571249 31.96199808 168.19482422 34.22387695 C168.16808966 37.68357244 168.1945543 41.14001561 168.2265625 44.59960938 C168.22325792 46.79818424 168.21685071 48.99675708 168.20703125 51.1953125 C168.2171524 52.22877304 168.22727356 53.26223358 168.23770142 54.32701111 C168.16324076 58.89896682 168.11053402 61.45874177 165.42456055 65.25878906 C162.28564457 67.440579 159.31918765 68.94270388 155.7734375 70.375 C155.13360428 70.6342778 154.49377106 70.8935556 153.83454895 71.16069031 C152.48819564 71.70213208 151.13922588 72.23710882 149.7878418 72.76586914 C147.73871866 73.57097733 145.70257606 74.40393473 143.66601562 75.24023438 C142.34834035 75.76604052 141.03000041 76.29018469 139.7109375 76.8125 C138.52781982 77.28341064 137.34470215 77.75432129 136.12573242 78.23950195 C129.409674 80.15569525 124.14774262 79.5081081 117.63671875 76.85546875 C117.02654907 76.61131226 116.41637939 76.36715576 115.78771973 76.11560059 C113.86732431 75.34376761 111.9553281 74.55322304 110.04296875 73.76171875 C108.73098017 73.23050598 107.41848341 72.70054649 106.10546875 72.171875 C102.91197391 70.8829033 99.72571242 69.57704927 96.54296875 68.26171875 C96.56653442 70.0557312 96.56653442 70.0557312 96.59057617 71.88598633 C96.64483936 76.31951168 96.67930565 80.75300763 96.70776367 85.18676758 C96.72285855 87.10641413 96.74333648 89.02602615 96.76928711 90.94555664 C96.80563984 93.70337439 96.82268787 96.46073655 96.8359375 99.21875 C96.85142136 100.07821732 96.86690521 100.93768463 96.88285828 101.82319641 C96.88319817 103.02410164 96.88319817 103.02410164 96.88354492 104.24926758 C96.89353767 105.30516838 96.89353767 105.30516838 96.9037323 106.38240051 C96.42809249 108.86014133 95.48691285 109.69763666 93.54296875 111.26171875 C91.39981237 112.29611396 89.21565377 113.24688814 87.01171875 114.14453125 C86.37939331 114.40426727 85.74706787 114.6640033 85.09558105 114.93161011 C83.08085671 115.75707277 81.06201081 116.57188247 79.04296875 117.38671875 C77.68462169 117.94203823 76.32654551 118.49802079 74.96875 119.0546875 C57.99113069 125.99338719 57.99113069 125.99338719 47.4375 121.77734375 C46.79100998 121.52047791 46.14451996 121.26361206 45.47843933 120.9989624 C44.12234296 120.4566755 42.76861767 119.90842442 41.41723633 119.35449219 C39.3568245 118.51227293 37.28787816 117.69448192 35.21679688 116.87890625 C33.89395481 116.34648206 32.57166856 115.81267437 31.25 115.27734375 C30.05866455 114.79555664 28.8673291 114.31376953 27.63989258 113.81738281 C24.4002915 112.19004831 22.56976965 111.27032358 20.54296875 108.26171875 C20.00962973 105.20585689 20.07758102 102.21481213 20.15234375 99.12109375 C20.15800354 98.23891174 20.16366333 97.35672974 20.16949463 96.44781494 C20.19185284 93.63522662 20.24204743 90.8239208 20.29296875 88.01171875 C20.3130345 86.10288301 20.33128514 84.19402726 20.34765625 82.28515625 C20.39171575 77.6101843 20.46073891 72.93616883 20.54296875 68.26171875 C19.33350586 68.76155273 19.33350586 68.76155273 18.09960938 69.27148438 C15.077271 70.51270892 12.05033798 71.74110345 9.01953125 72.96142578 C7.71411899 73.48997586 6.41067552 74.02341789 5.109375 74.56201172 C3.22775143 75.3397687 1.33951545 76.09907552 -0.55078125 76.85546875 C-1.68193359 77.31630859 -2.81308594 77.77714844 -3.97851562 78.25195312 C-11.02732514 80.29812635 -16.1282304 79.39413441 -22.87890625 76.8125 C-23.54617737 76.55800583 -24.21344849 76.30351166 -24.90093994 76.04130554 C-26.29835563 75.50400566 -27.69319213 74.95995263 -29.08544922 74.40942383 C-31.20821037 73.57375457 -33.34106198 72.76926452 -35.4765625 71.96679688 C-36.84055503 71.43802907 -38.20386248 70.90748991 -39.56640625 70.375 C-41.4067041 69.66017456 -41.4067041 69.66017456 -43.28417969 68.9309082 C-46.95373507 67.00041035 -48.49569327 65.92981519 -50.45703125 62.26171875 C-51.02965977 58.56874302 -51.01751414 54.92648671 -50.98828125 51.1953125 C-50.99210815 50.12426773 -50.99593506 49.05322296 -50.99987793 47.94972229 C-51.00259568 45.68953509 -50.9952442 43.42931637 -50.97851562 41.16918945 C-50.95708428 37.7077845 -50.97833408 34.24845031 -51.00390625 30.78710938 C-51.00126336 28.58983917 -50.9961392 26.39257025 -50.98828125 24.1953125 C-50.99637817 23.15982773 -51.0044751 22.12434296 -51.01281738 21.05747986 C-50.92034214 13.98301277 -50.92034214 13.98301277 -48.85449219 10.7668457 C-45.84973243 8.8804563 -42.87179615 7.54411264 -39.56640625 6.24609375 C-38.90296204 5.985401 -38.23951782 5.72470825 -37.55596924 5.45611572 C-36.15608238 4.90974525 -34.75406553 4.36880451 -33.35009766 3.83300781 C-31.22082372 3.01700445 -29.10275855 2.17584008 -26.984375 1.33203125 C-25.6164883 0.80182739 -24.24801572 0.27313209 -22.87890625 -0.25390625 C-22.25465759 -0.50384338 -21.63040894 -0.75378052 -20.98724365 -1.0112915 C-13.31929955 -3.88254138 -7.42401712 -3.25353029 0 0 Z " fill="#FEFDFB" transform="translate(197.45703125,297.73828125)"></path><path d="M0 0 C0.50833591 1.24663331 1.00631145 2.49749387 1.5 3.75 C1.7784375 4.44609375 2.056875 5.1421875 2.34375 5.859375 C3 8 3 8 3 12 C2.46221924 12.20568604 1.92443848 12.41137207 1.37036133 12.62329102 C-22.9033875 21.06464373 -22.9033875 21.06464373 -41.24609375 38.02734375 C-42.50445636 41.31995057 -42.56770169 44.56738512 -42 48 C-40.11586085 51.32808239 -40.11586085 51.32808239 -38 54 C-38 54.66 -38 55.32 -38 56 C-37.4225 56.27328125 -36.845 56.5465625 -36.25 56.828125 C-34.01826345 57.99048779 -32.05557195 59.30175613 -30 60.75 C-12.9528428 72.17966005 6.28150883 76.55106657 26 81 C26.71800781 81.16773926 27.43601562 81.33547852 28.17578125 81.50830078 C51.75555719 87.0123169 76.4885895 88.23376617 100.625 88.25 C101.53541046 88.25067474 102.44582092 88.25134949 103.38381958 88.25204468 C131.31851234 88.21953527 158.67190727 86.00515569 186 80 C186.77633789 79.83387207 187.55267578 79.66774414 188.35253906 79.49658203 C192.95084655 78.49763937 197.48490414 77.32695975 202 76 C202.80066895 75.76587402 203.60133789 75.53174805 204.42626953 75.29052734 C224.49423081 69.66614641 224.49423081 69.66614641 241.57958984 58.37402344 C243 57 243 57 245 57 C245.268125 56.46375 245.53625 55.9275 245.8125 55.375 C246.69215034 53.61569932 247.640975 51.8906202 248.625 50.1875 C250.25505204 46.40874301 250.51001735 44.08013877 250 40 C243.68221133 27.36442265 228.6876519 20.8048747 215.93139648 16.55102539 C214.41845953 16.06657167 212.89831536 15.60396489 211.37133789 15.16577148 C209.2890625 14.51953125 209.2890625 14.51953125 206 13 C204.74849943 10.17610128 204.81820282 8.72846003 205.55859375 5.76171875 C205.84863281 5.07722656 206.13867188 4.39273438 206.4375 3.6875 C206.72496094 2.99011719 207.01242187 2.29273438 207.30859375 1.57421875 C207.65083984 0.79498047 207.65083984 0.79498047 208 0 C224.0763602 2.38300029 239.79750521 10.35272513 252 21 C252.63679688 21.54269531 253.27359375 22.08539063 253.9296875 22.64453125 C260.33724807 28.51583675 264.20762178 35.21249631 264.625 44 C264.20420105 53.10562176 259.59216542 60.8609546 253 67 C245.21697524 73.48833421 236.10876398 77.72465076 227 82 C226.03578125 82.4640625 225.0715625 82.928125 224.078125 83.40625 C207.44514881 90.90551094 189.11817397 93.99572333 171.19458008 96.61450195 C168.83320791 96.97374894 168.83320791 96.97374894 166 98 C147.10140034 101.18468248 128.12055109 101.47987274 109.02124023 101.39111328 C105.30961742 101.37403807 101.59864094 101.38420281 97.88704014 101.4014225 C73.13989011 101.49890733 48.72646647 99.92199171 24.4375 94.875 C23.35616791 94.65490265 23.35616791 94.65490265 22.25299072 94.43035889 C-2.94570006 89.25581772 -35.97660633 81.77124348 -51.5625 59.25 C-55.92033599 52.2671174 -56.95089008 46.16947495 -56 38 C-52.36591504 25.47439753 -41.20998547 17.26981831 -30.3046875 11.1796875 C-9.04412759 0 -9.04412759 0 0 0 Z " fill="#FEFCF9" transform="translate(152,186)"></path><path d="M0 0 C0.06956471 10.45742115 0.12284419 20.91478709 0.15543652 31.37239265 C0.17108061 36.22848825 0.19229598 41.08442532 0.22631836 45.94042969 C0.25895655 50.62830027 0.27686247 55.31601854 0.28463173 60.00399399 C0.29016722 61.79093701 0.30097674 63.57787187 0.31719017 65.36474991 C0.33902385 67.87111562 0.34196447 70.376855 0.34057617 72.88330078 C0.351362 73.61913895 0.36214783 74.35497711 0.3732605 75.1131134 C0.33670566 81.22741213 -1.24283824 85.15272738 -5.4375 89.5625 C-17.05326457 98.42342554 -33.5878126 100.63587173 -47.6875 102.75 C-48.51757568 102.87777832 -49.34765137 103.00555664 -50.20288086 103.13720703 C-57.30763589 104.12527174 -63.63922859 104 -71 104 C-71 78.59 -71 53.18 -71 27 C-62.70838202 23.54515917 -54.42195538 20.15207478 -46.0625 16.875 C-44.28093506 16.17636841 -44.28093506 16.17636841 -42.46337891 15.46362305 C-33.92846079 12.12314835 -25.37960197 8.81898786 -16.81588745 5.55303955 C-15.52555137 5.06071584 -14.23561096 4.56735383 -12.94607544 4.07293701 C-11.15025159 3.3850506 -9.35251353 2.70216773 -7.5546875 2.01953125 C-6.52843262 1.62870361 -5.50217773 1.23787598 -4.44482422 0.83520508 C-2 0 -2 0 0 0 Z " fill="#E97C0D" transform="translate(333,144)"></path><path d="M0 0 C7.95596711 2.21703422 15.61020158 5.0457974 23.3046875 8.03515625 C24.55866218 8.5195933 25.81274343 9.00375458 27.06692505 9.48765564 C29.67475495 10.49473567 32.28160202 11.50430389 34.88769531 12.51586914 C38.22159198 13.80983235 41.55743781 15.09867878 44.89396477 16.38584232 C47.4750945 17.38198733 50.05542823 18.38018011 52.63550186 19.37905693 C54.46093797 20.08556164 56.28684624 20.79084601 58.11276245 21.49610901 C59.22136627 21.92673141 60.32997009 22.35735382 61.47216797 22.80102539 C62.44572235 23.17836319 63.41927673 23.55570099 64.42233276 23.94447327 C66.6595981 24.86060912 68.83765662 25.91882831 71 27 C71 52.41 71 77.82 71 104 C50.65042029 104 20.44638737 102.99226523 4.21484375 88.39453125 C-0.00807577 83.6305134 -0.1427052 79.2835909 -0.11352539 73.22387695 C-0.11367142 72.43339966 -0.11381744 71.64292236 -0.1139679 70.82849121 C-0.11327109 68.21506 -0.10548955 65.60170001 -0.09765625 62.98828125 C-0.09579124 61.17652933 -0.09436773 59.3647769 -0.09336853 57.55302429 C-0.08954985 52.78382984 -0.07972508 48.01466582 -0.06866455 43.2454834 C-0.05843649 38.37915458 -0.05386792 33.51282084 -0.04882812 28.64648438 C-0.03810226 19.09764287 -0.0210336 9.54882397 0 0 Z " fill="#E4770F" transform="translate(179,144)"></path><path d="M0 0 C2.00926444 0.75537263 4.02254419 1.5001146 6.03881836 2.23657227 C8.30667519 3.09427711 10.57364357 3.95433378 12.83984375 4.81640625 C14.04314835 5.273535 15.24645294 5.73066376 16.48622131 6.2016449 C19.01390446 7.1625381 21.54093739 8.1251205 24.06762695 9.08862305 C27.3060919 10.32312392 30.54709615 11.5508115 33.78871822 12.77699375 C36.89089385 13.95208034 39.99016697 15.13474407 43.08984375 16.31640625 C44.25434555 16.75602188 45.41884735 17.19563751 46.61863708 17.64857483 C47.69057816 18.05917648 48.76251923 18.46977814 49.86694336 18.89282227 C50.81242538 19.25239517 51.75790741 19.61196808 52.73204041 19.98243713 C55 21 55 21 57 23 C49.96716525 25.68653317 42.93422975 28.37280246 35.90116882 31.05874348 C32.63474744 32.30620608 29.36835962 33.55375641 26.10205078 34.80151367 C22.33896953 36.2390376 18.57573823 37.67616833 14.8125 39.11328125 C13.65073242 39.55714676 12.48896484 40.00101227 11.29199219 40.45832825 C9.13731578 41.28103094 6.98100663 42.0994758 4.82275391 42.91275024 C3.09382902 43.57868614 1.37419771 44.27030818 -0.32666016 45.00497437 C-8.9882172 48.67500027 -16.02866183 45.08201432 -24.26953125 41.88671875 C-25.88380257 41.27048393 -25.88380257 41.27048393 -27.53068542 40.64179993 C-30.96060483 39.33049491 -34.38652621 38.00907439 -37.8125 36.6875 C-40.10456883 35.80989659 -42.39688422 34.93293685 -44.68945312 34.05664062 C-54.1519859 30.4337494 -63.6021482 26.7880418 -73 23 C-70.16079386 20.69858698 -67.53084278 19.26122914 -64.11474609 17.97875977 C-63.14628754 17.61150284 -62.17782898 17.24424591 -61.18002319 16.86585999 C-60.13834991 16.47829025 -59.09667664 16.09072052 -58.0234375 15.69140625 C-56.94301178 15.28341293 -55.86258606 14.87541962 -54.74942017 14.45506287 C-51.29354595 13.15142864 -47.8344125 11.85671198 -44.375 10.5625 C-40.9377462 9.26997097 -37.50118314 7.97562291 -34.06484985 6.6806488 C-31.92847722 5.87628776 -29.79144944 5.07366383 -27.65365601 4.27308655 C-26.66628448 3.90267746 -25.67891296 3.53226837 -24.66162109 3.15063477 C-23.23133575 2.62374557 -23.23133575 2.62374557 -21.77215576 2.08621216 C-18.99254967 1.03724066 -18.99254967 1.03724066 -16.36114502 -0.27102661 C-9.75108674 -3.38519579 -6.53736745 -2.95592986 0 0 Z " fill="#EA7E0C" transform="translate(264,112)"></path><path d="M0 0 C0 10.23 0 20.46 0 31 C-2.743125 32.155 -5.48625 33.31 -8.3125 34.5 C-9.60281128 35.04817383 -9.60281128 35.04817383 -10.91918945 35.60742188 C-11.60198975 35.89166016 -12.28479004 36.17589844 -12.98828125 36.46875 C-13.68477783 36.76201172 -14.38127441 37.05527344 -15.09887695 37.35742188 C-17 38 -17 38 -20 38 C-20 27.77 -20 17.54 -20 7 C-17.07125 5.845 -14.1425 4.69 -11.125 3.5 C-10.20348145 3.13455078 -9.28196289 2.76910156 -8.33251953 2.39257812 C-7.60661621 2.10833984 -6.88071289 1.82410156 -6.1328125 1.53125 C-5.38918457 1.23798828 -4.64555664 0.94472656 -3.87939453 0.64257812 C-2 0 -2 0 0 0 Z " fill="#DE731B" transform="translate(282,368)"></path><path d="M0 0 C6.70074623 2.23358208 13.36204479 4.58619811 20 7 C20 17.23 20 27.46 20 38 C14 37 14 37 0 31 C0 20.77 0 10.54 0 0 Z " fill="#DD711C" transform="translate(230,368)"></path><path d="M0 0 C0 10.23 0 20.46 0 31 C-15.4 38 -15.4 38 -19 38 C-19 27.77 -19 17.54 -19 7 C-14.5759375 5.2675 -14.5759375 5.2675 -10.0625 3.5 C-9.13187744 3.13455078 -8.20125488 2.76910156 -7.24243164 2.39257812 C-6.51403076 2.10833984 -5.78562988 1.82410156 -5.03515625 1.53125 C-4.2862915 1.23798828 -3.53742676 0.94472656 -2.76586914 0.64257812 C-1 0 -1 0 0 0 Z " fill="#E4750F" transform="translate(352,323)"></path><path d="M0 0 C2.98082734 1.14154614 5.9593646 2.28895118 8.9375 3.4375 C9.78763672 3.76298828 10.63777344 4.08847656 11.51367188 4.42382812 C12.32255859 4.73642578 13.13144531 5.04902344 13.96484375 5.37109375 C14.7137085 5.65911865 15.46257324 5.94714355 16.23413086 6.24389648 C18 7 18 7 19 8 C19.08790975 10.29151417 19.10694038 12.58572524 19.09765625 14.87890625 C19.0962413 15.5655687 19.09482635 16.25223114 19.09336853 16.95970154 C19.08775479 19.16067801 19.07520007 21.36155409 19.0625 23.5625 C19.05748676 25.05143083 19.05292355 26.54036324 19.04882812 28.02929688 C19.03778093 31.68623075 19.02050713 35.34310558 19 39 C16.01917266 37.85845386 13.0406354 36.71104882 10.0625 35.5625 C9.21236328 35.23701172 8.36222656 34.91152344 7.48632812 34.57617188 C6.67744141 34.26357422 5.86855469 33.95097656 5.03515625 33.62890625 C4.2862915 33.34088135 3.53742676 33.05285645 2.76586914 32.75610352 C1 32 1 32 0 31 C-0.08790975 28.70848583 -0.10694038 26.41427476 -0.09765625 24.12109375 C-0.0962413 23.4344313 -0.09482635 22.74776886 -0.09336853 22.04029846 C-0.08775479 19.83932199 -0.07520007 17.63844591 -0.0625 15.4375 C-0.05748676 13.94856917 -0.05292355 12.45963676 -0.04882812 10.97070312 C-0.03778093 7.31376925 -0.02050713 3.65689442 0 0 Z " fill="#E17310" transform="translate(301,323)"></path><path d="M0 0 C0 10.23 0 20.46 0 31 C-14 38 -14 38 -19 38 C-19 27.77 -19 17.54 -19 7 C-14.5759375 5.2675 -14.5759375 5.2675 -10.0625 3.5 C-9.13187744 3.13455078 -8.20125488 2.76910156 -7.24243164 2.39257812 C-6.51403076 2.10833984 -5.78562988 1.82410156 -5.03515625 1.53125 C-4.2862915 1.23798828 -3.53742676 0.94472656 -2.76586914 0.64257812 C-1 0 -1 0 0 0 Z " fill="#DC6C12" transform="translate(211,323)"></path><path d="M0 0 C1.12019531 0.42152344 2.24039063 0.84304688 3.39453125 1.27734375 C4.86717658 1.83075824 6.33983343 2.38414205 7.8125 2.9375 C8.55048828 3.21529297 9.28847656 3.49308594 10.04882812 3.77929688 C11.11713867 4.18051758 11.11713867 4.18051758 12.20703125 4.58984375 C12.8616333 4.83597412 13.51623535 5.08210449 14.19067383 5.33569336 C15.78311815 5.92037033 17.39066676 6.46355559 19 7 C19 17.23 19 27.46 19 38 C14.75995483 37.15199097 11.25219111 36.05741374 7.25 34.5 C5.52523437 33.83484375 5.52523437 33.83484375 3.765625 33.15625 C1 32 1 32 0 31 C-0.08790975 28.70848583 -0.10694038 26.41427476 -0.09765625 24.12109375 C-0.0962413 23.4344313 -0.09482635 22.74776886 -0.09336853 22.04029846 C-0.08775479 19.83932199 -0.07520007 17.63844591 -0.0625 15.4375 C-0.05748676 13.94856917 -0.05292355 12.45963676 -0.04882812 10.97070312 C-0.03778093 7.31376925 -0.02050713 3.65689442 0 0 Z " fill="#DA6913" transform="translate(160,323)"></path><path d="M0 0 C-5.02160657 3.95507066 -9.4739278 6.04009638 -15.9375 5.9375 C-20.60603762 5.12073795 -24.78326954 3.09860428 -29 1 C-20.16869369 -7.83130631 -10.03762745 -4.3422332 0 0 Z " fill="#DE731C" transform="translate(200,313)"></path><path d="M0 0 C-3.62568861 3.62568861 -9.01133638 5.75232069 -14.12109375 6.17578125 C-19.49218365 5.68946526 -24.22186782 3.3780056 -29 1 C-20.16869369 -7.83130631 -10.03762745 -4.3422332 0 0 Z " fill="#E57B15" transform="translate(341,313)"></path><path d="M0 0 C-3.3149704 3.3149704 -7.55518773 4.67729907 -12 6 C-17.90937287 6 -22.77520942 3.5472335 -28 1 C-26.33343731 -2.33312538 -23.04905062 -2.95556248 -19.6875 -4.23046875 C-12.45728891 -6.30074722 -6.449365 -3.20975341 0 0 Z " fill="#DE7319" transform="translate(270,358)"></path></svg>