<svg version="1.1" xmlns="http://www.w3.org/2000/svg" width="16px" height="16px" fill="currentColor" viewBox="0 0 512 512"><path d="M0 0 C168.96 0 337.92 0 512 0 C512 168.96 512 337.92 512 512 C343.04 512 174.08 512 0 512 C0 343.04 0 174.08 0 0 Z " fill="#DD2C33" transform="translate(0,0)"></path><path d="M0 0 C0.71577713 -0.00671722 1.43155426 -0.01343445 2.16902161 -0.02035522 C4.53601007 -0.03935878 6.90271539 -0.04326044 9.26977539 -0.04541016 C10.91500465 -0.05183603 12.56023275 -0.05856423 14.20545959 -0.06558228 C17.65457815 -0.07756062 21.10359649 -0.08126249 24.55273438 -0.08007812 C28.97263332 -0.0798748 33.39189022 -0.10718754 37.81163692 -0.14162254 C41.20971123 -0.16385778 44.60763012 -0.16791673 48.00576973 -0.16685867 C49.63527199 -0.16921932 51.26477823 -0.17806897 52.89420891 -0.19352341 C55.17342006 -0.21311791 57.45123518 -0.2073727 59.73046875 -0.1953125 C61.67547523 -0.19958755 61.67547523 -0.19958755 63.65977478 -0.20394897 C66.92993164 0.29052734 66.92993164 0.29052734 69.35151672 2.14334106 C71.46244634 5.01493019 71.38995065 6.82955781 71.32055664 10.36865234 C71.30766602 11.52880859 71.29477539 12.68896484 71.28149414 13.88427734 C71.2312207 15.69412109 71.2312207 15.69412109 71.17993164 17.54052734 C71.16188477 18.76255859 71.14383789 19.98458984 71.12524414 21.24365234 C71.07811264 24.26006813 71.01232577 27.27490226 70.92993164 30.29052734 C71.63698242 30.46793457 72.3440332 30.6453418 73.07250977 30.828125 C78.8490107 32.33083544 84.07072619 34.04520787 89.42993164 36.66552734 C90.70182376 37.27931301 91.9739617 37.89258954 93.24633789 38.50537109 C93.8626709 38.80556152 94.47900391 39.10575195 95.11401367 39.41503906 C97.84463479 40.73152298 100.60494459 41.98010848 103.36743164 43.22802734 C104.25301758 43.62892578 105.13860352 44.02982422 106.05102539 44.44287109 C106.98108398 44.86246094 106.98108398 44.86246094 107.92993164 45.29052734 C108.33083008 44.82904297 108.73172852 44.36755859 109.14477539 43.89208984 C121.46839318 29.75206581 121.46839318 29.75206581 124.92993164 26.29052734 C130.72097821 26.54904322 133.33658322 27.9426282 137.40625 31.99047852 C137.90470428 32.47841888 138.40315857 32.96635925 138.91671753 33.46908569 C140.5497598 35.07585589 142.16002467 36.70341663 143.76977539 38.33349609 C144.90232837 39.46200447 146.03577052 40.58962112 147.1700592 41.71638489 C149.53910742 44.07660446 151.89700679 46.4472912 154.24755859 48.82592773 C157.25926113 51.87185416 160.29715737 54.88999411 163.343894 57.90082836 C165.68737018 60.22261297 168.01635463 62.55851218 170.34121895 64.89892006 C171.45596734 66.01766613 172.57517685 67.1319855 173.69889641 68.2417202 C175.26738185 69.79494389 176.81531154 71.36614936 178.359375 72.94360352 C179.24427109 73.83327316 180.12916718 74.72294281 181.0408783 75.63957214 C183.30757829 78.82048821 183.43811562 80.46468923 182.92993164 84.29052734 C181.56665039 86.31005859 181.56665039 86.31005859 179.61743164 88.10302734 C178.89942383 88.76947266 178.18141602 89.43591797 177.44165039 90.12255859 C173.01531364 93.94311365 168.50875253 97.65440487 163.92993164 101.29052734 C164.18162109 101.81372559 164.43331055 102.33692383 164.69262695 102.87597656 C176.39007181 127.24118595 176.39007181 127.24118595 178.92993164 139.29052734 C180.18652588 139.26696167 180.18652588 139.26696167 181.46850586 139.24291992 C184.57330041 139.19182727 187.67788095 139.154195 190.78295898 139.12573242 C192.78912538 139.10320483 194.7950969 139.06509164 196.80102539 139.02685547 C198.05786133 139.0171875 199.31469727 139.00751953 200.60961914 138.99755859 C201.77219238 138.98184814 202.93476563 138.9661377 204.13256836 138.94995117 C205.51726318 139.11853638 205.51726318 139.11853638 206.92993164 139.29052734 C209.40654097 143.00544134 209.19434737 144.92208755 209.22045898 149.3605957 C209.22717621 150.07637283 209.23389343 150.79214996 209.24081421 151.52961731 C209.25981777 153.89660577 209.26371942 156.26331109 209.26586914 158.63037109 C209.27229501 160.27560035 209.27902321 161.92082846 209.28604126 163.5660553 C209.2980196 167.01517385 209.30172147 170.46419219 209.30053711 173.91333008 C209.30033379 178.33322902 209.32764653 182.75248592 209.36208153 187.17223263 C209.38431677 190.57030693 209.38837571 193.96822582 209.38731766 197.36636543 C209.38967831 198.99586769 209.39852795 200.62537393 209.41398239 202.25480461 C209.43357689 204.53401576 209.42783168 206.81183088 209.41577148 209.09106445 C209.41862152 210.38773544 209.42147156 211.68440643 209.42440796 213.02037048 C208.92993164 216.29052734 208.92993164 216.29052734 207.07711792 218.71211243 C204.20552879 220.82304205 202.39090118 220.75054635 198.85180664 220.68115234 C197.69165039 220.66826172 196.53149414 220.65537109 195.33618164 220.64208984 C193.52633789 220.59181641 193.52633789 220.59181641 191.67993164 220.54052734 C190.45790039 220.52248047 189.23586914 220.50443359 187.97680664 220.48583984 C184.96039086 220.43870835 181.94555673 220.37292147 178.92993164 220.29052734 C178.68339844 221.18626465 178.68339844 221.18626465 178.43188477 222.10009766 C176.5589739 228.64513442 174.16172053 234.81060615 171.42993164 241.04052734 C171.0393457 241.94673828 170.64875977 242.85294922 170.24633789 243.78662109 C168.26435928 248.35785123 166.21665724 252.86366111 163.92993164 257.29052734 C169.39472415 262.22899763 174.87463962 267.1458872 180.43383789 271.97802734 C181.28646105 272.72602051 182.12791542 273.48851113 182.92993164 274.29052734 C182.6630606 280.01334444 181.34135807 282.63337107 177.33764648 286.65917969 C176.86106598 287.14627411 176.38448547 287.63336853 175.89346313 288.13522339 C174.3239566 289.73100072 172.73368352 291.3039772 171.14086914 292.87646484 C170.03717695 293.98420233 168.93437644 295.0928289 167.83242798 296.20230103 C165.52348042 298.52007762 163.20407347 300.82669811 160.87670898 303.12597656 C157.90039592 306.06810485 154.95183757 309.03635523 152.01061058 312.01350975 C149.73941284 314.30643158 147.45406387 316.58481772 145.16423416 318.85911942 C144.07143783 319.94792501 142.98304851 321.04117298 141.89927292 322.13895798 C140.37979894 323.6737432 138.84227709 325.18786965 137.29858398 326.69824219 C136.42889984 327.56315277 135.5592157 328.42806335 134.66317749 329.31918335 C131.35155777 331.70767747 128.97594064 332.11704379 124.92993164 332.29052734 C122.96118164 331.13818359 122.96118164 331.13818359 121.42993164 329.35302734 C120.85887695 328.70978516 120.28782227 328.06654297 119.69946289 327.40380859 C119.11551758 326.70642578 118.53157227 326.00904297 117.92993164 325.29052734 C117.29442383 324.58283203 116.65891602 323.87513672 116.00415039 323.14599609 C113.43375266 320.27758123 111.06967094 317.50013629 108.92993164 314.29052734 C104.57051888 314.92031118 101.17086588 316.52029279 97.24243164 318.47802734 C88.74937431 322.6045185 79.92735104 325.47690135 70.92993164 328.29052734 C70.95087891 329.05719727 70.97182617 329.82386719 70.9934082 330.61376953 C71.07658322 334.08922194 71.12859739 337.56446497 71.17993164 341.04052734 C71.23020508 342.85037109 71.23020508 342.85037109 71.28149414 344.69677734 C71.29438477 345.85693359 71.30727539 347.01708984 71.32055664 348.21240234 C71.34150391 349.28071289 71.36245117 350.34902344 71.3840332 351.44970703 C70.79897209 355.109799 69.85560593 356.04870793 66.92993164 358.29052734 C63.66650391 358.79846191 63.66650391 358.79846191 59.74633789 358.80810547 C59.03041473 358.81511475 58.31449158 358.82212402 57.57687378 358.8293457 C55.21499621 358.84692282 52.85432097 358.8353051 50.49243164 358.82177734 C48.84863048 358.82447237 47.20483087 358.82835488 45.56103516 358.83337402 C42.11776536 358.83926864 38.67491093 358.83070763 35.23168945 358.81201172 C30.81959471 358.78922176 26.40847322 358.8023451 21.99641418 358.82630157 C18.60258663 358.84076077 15.20898955 358.8361531 11.81515503 358.82579041 C10.18846522 358.82312343 8.56175443 358.82639187 6.93508911 358.83570862 C4.66067136 358.84587677 2.3878261 358.83037211 0.11352539 358.80810547 C-1.18012939 358.8049231 -2.47378418 358.80174072 -3.80664062 358.79846191 C-7.61083343 358.20636024 -8.8169963 357.36188148 -11.07006836 354.29052734 C-11.43237305 351.44970703 -11.43237305 351.44970703 -11.24194336 348.21240234 C-11.18393555 347.05224609 -11.12592773 345.89208984 -11.06616211 344.69677734 C-10.9443457 342.88693359 -10.9443457 342.88693359 -10.82006836 341.04052734 C-10.72145508 339.20748047 -10.72145508 339.20748047 -10.62084961 337.33740234 C-10.45584705 334.32021276 -10.27157101 331.30546326 -10.07006836 328.29052734 C-11.96499023 327.9328125 -11.96499023 327.9328125 -13.89819336 327.56787109 C-19.50578361 326.31966629 -24.57924151 324.16691595 -29.82006836 321.85302734 C-30.73916992 321.45792969 -31.65827148 321.06283203 -32.60522461 320.65576172 C-36.19851139 319.09312398 -39.62277349 317.56676215 -42.96069336 315.50537109 C-45.24207534 313.95781134 -45.24207534 313.95781134 -49.07006836 314.29052734 C-50.80587971 315.72286225 -50.80587971 315.72286225 -52.32006836 317.72802734 C-52.92206055 318.44990234 -53.52405273 319.17177734 -54.14428711 319.91552734 C-55.46092167 321.53928761 -56.77595256 323.16434918 -58.08959961 324.79052734 C-63.15334422 330.83216527 -63.15334422 330.83216527 -67.07006836 332.79052734 C-78.12305628 330.94836269 -89.49198093 314.17262732 -97.41748047 306.29321289 C-99.48322255 304.24089481 -101.55603155 302.1961292 -103.63525391 300.1574707 C-106.16489003 297.67714315 -108.68203647 295.18477083 -111.19069099 292.68322945 C-112.6035051 291.28035118 -114.02839982 289.88967282 -115.45347595 288.49925232 C-116.30849197 287.64138626 -117.163508 286.7835202 -118.04443359 285.8996582 C-118.79973862 285.15244003 -119.55504364 284.40522186 -120.33323669 283.63536072 C-122.42289069 280.81419472 -122.83654737 278.76649339 -123.07006836 275.29052734 C-122.13647461 273.41943359 -122.13647461 273.41943359 -120.63256836 271.85302734 C-120.07827148 271.26908203 -119.52397461 270.68513672 -118.95288086 270.08349609 C-116.40483249 267.6570351 -113.79365259 265.32461637 -111.09741211 263.06396484 C-108.64006661 260.91437937 -106.36008885 258.61626739 -104.07006836 256.29052734 C-104.57795898 255.32115234 -105.08584961 254.35177734 -105.60913086 253.35302734 C-111.0635266 242.78721273 -116.28541928 231.91038194 -119.07006836 220.29052734 C-119.83673828 220.31147461 -120.6034082 220.33242188 -121.39331055 220.35400391 C-124.86876296 220.43717893 -128.34400599 220.48919309 -131.82006836 220.54052734 C-133.02663086 220.57404297 -134.23319336 220.60755859 -135.47631836 220.64208984 C-136.63647461 220.65498047 -137.79663086 220.66787109 -138.99194336 220.68115234 C-140.06025391 220.70209961 -141.12856445 220.72304688 -142.22924805 220.74462891 C-145.88934001 220.1595678 -146.82824895 219.21620163 -149.07006836 216.29052734 C-149.57800293 213.02709961 -149.57800293 213.02709961 -149.58764648 209.10693359 C-149.59465576 208.39101044 -149.60166504 207.67508728 -149.60888672 206.93746948 C-149.62646383 204.57559191 -149.61484611 202.21491668 -149.60131836 199.85302734 C-149.60401338 198.20922618 -149.60789589 196.56542657 -149.61291504 194.92163086 C-149.61880966 191.47836106 -149.61024864 188.03550663 -149.59155273 184.59228516 C-149.56876278 180.18019042 -149.58188611 175.76906892 -149.60584259 171.35700989 C-149.62030179 167.96318233 -149.61569412 164.56958526 -149.60533142 161.17575073 C-149.60266445 159.54906092 -149.60593289 157.92235013 -149.61524963 156.29568481 C-149.62541778 154.02126706 -149.60991313 151.7484218 -149.58764648 149.47412109 C-149.58446411 148.18046631 -149.58128174 146.88681152 -149.57800293 145.55395508 C-148.98590125 141.74976227 -148.1414225 140.5435994 -145.07006836 138.29052734 C-142.22924805 137.92822266 -142.22924805 137.92822266 -138.99194336 138.11865234 C-137.83178711 138.17666016 -136.67163086 138.23466797 -135.47631836 138.29443359 C-133.66647461 138.41625 -133.66647461 138.41625 -131.82006836 138.54052734 C-129.98702148 138.63914063 -129.98702148 138.63914063 -128.11694336 138.73974609 C-125.09975377 138.90474865 -122.08500427 139.08902469 -119.07006836 139.29052734 C-118.89338623 138.59797852 -118.7167041 137.90542969 -118.53466797 137.19189453 C-116.93818908 131.11373393 -115.08014325 125.32570435 -112.63256836 119.54052734 C-112.34575195 118.83798828 -112.05893555 118.13544922 -111.76342773 117.41162109 C-110.32530437 113.95884383 -108.78379025 110.72747227 -106.84741211 107.52490234 C-104.74900592 104.32135532 -104.74900592 104.32135532 -105.07006836 100.29052734 C-106.46861059 98.58862534 -106.46861059 98.58862534 -108.44506836 97.10302734 C-109.16307617 96.50103516 -109.88108398 95.89904297 -110.62084961 95.27880859 C-112.3584511 93.86821982 -114.10703245 92.47110817 -115.86303711 91.08349609 C-117.23395508 89.94847656 -117.23395508 89.94847656 -118.63256836 88.79052734 C-119.50010742 88.09958984 -120.36764648 87.40865234 -121.26147461 86.69677734 C-123.07006836 84.29052734 -123.07006836 84.29052734 -122.97012329 80.97567749 C-121.91995986 76.67592891 -120.57688845 75.03808463 -117.4777832 71.921875 C-117.0012027 71.43478058 -116.52462219 70.94768616 -116.03359985 70.4458313 C-114.46409332 68.85005397 -112.87382024 67.27707749 -111.28100586 65.70458984 C-110.17731367 64.59685235 -109.07451316 63.48822578 -107.9725647 62.37875366 C-105.66361714 60.06097707 -103.34421019 57.75435657 -101.0168457 55.45507812 C-98.04053264 52.51294983 -95.09197429 49.54469946 -92.1507473 46.56754494 C-89.87954956 44.27462311 -87.59420059 41.99623697 -85.30437088 39.72193527 C-84.21157455 38.63312968 -83.12318523 37.53988171 -82.03940964 36.44209671 C-80.51993566 34.90731149 -78.98241381 33.39318504 -77.4387207 31.8828125 C-76.13419449 30.58544662 -76.13419449 30.58544662 -74.80331421 29.26187134 C-71.49169449 26.87337722 -69.11607736 26.4640109 -65.07006836 26.29052734 C-63.10131836 27.44287109 -63.10131836 27.44287109 -61.57006836 29.22802734 C-60.99901367 29.87126953 -60.42795898 30.51451172 -59.83959961 31.17724609 C-59.2556543 31.87462891 -58.67170898 32.57201172 -58.07006836 33.29052734 C-57.43456055 33.99822266 -56.79905273 34.70591797 -56.14428711 35.43505859 C-53.57388938 38.30347346 -51.20980766 41.08091839 -49.07006836 44.29052734 C-44.27960502 43.65676955 -40.46346248 41.66479115 -36.19506836 39.54052734 C-17.12734129 30.29052734 -17.12734129 30.29052734 -10.07006836 30.29052734 C-10.09363403 29.03393311 -10.09363403 29.03393311 -10.11767578 27.75195312 C-10.16876843 24.64715857 -10.2064007 21.54257803 -10.23486328 18.4375 C-10.25739087 16.4313336 -10.29550406 14.42536208 -10.33374023 12.41943359 C-10.34824219 10.53417969 -10.34824219 10.53417969 -10.36303711 8.61083984 C-10.38660278 6.86697998 -10.38660278 6.86697998 -10.41064453 5.08789062 C-10.29825439 4.16476074 -10.18586426 3.24163086 -10.07006836 2.29052734 C-6.35515436 -0.18608199 -4.43850815 0.02611161 0 0 Z " fill="#DD2D34" transform="translate(226.070068359375,76.70947265625)"></path><path d="M0 0 C1.00728149 0.43544128 2.01456299 0.87088257 3.05236816 1.31951904 C6.30221398 2.7268189 9.54564702 4.14826352 12.7890625 5.5703125 C15.01144761 6.53664303 17.23426771 7.50197378 19.45751953 8.46630859 C22.75170491 9.89536031 26.04554404 11.3251492 29.33761597 12.75906372 C35.31377004 15.36072255 41.30042637 17.93086161 47.3203125 20.4296875 C48.53283691 20.93387207 49.74536133 21.43805664 50.99462891 21.95751953 C53.12494675 22.83875817 55.25730937 23.71507688 57.39208984 24.58544922 C58.3042627 24.96459473 59.21643555 25.34374023 60.15625 25.734375 C60.9179248 26.04584473 61.67959961 26.35731445 62.46435547 26.67822266 C64.627643 27.80672952 65.86381018 28.81086125 67.4140625 30.6953125 C67.79158592 32.67799759 67.79158592 32.67799759 67.79501343 34.97930908 C67.8034729 35.85365601 67.81193237 36.72800293 67.82064819 37.62884521 C67.81153915 39.06408539 67.81153915 39.06408539 67.80224609 40.52832031 C67.81013153 42.04365356 67.81013153 42.04365356 67.81817627 43.58959961 C67.83141897 46.94270128 67.822615 50.29533063 67.8125 53.6484375 C67.81452139 55.98476248 67.81743338 58.32108685 67.82119751 60.65740967 C67.8256282 65.56691463 67.81917274 70.47625619 67.80517578 75.38574219 C67.78819688 81.64287173 67.79784834 87.89961201 67.81589317 94.15672684 C67.82680799 98.99040581 67.82324765 103.8239948 67.8155098 108.6576767 C67.81352307 110.96188148 67.81591271 113.26609471 67.82294846 115.57028961 C67.86060556 131.38919734 66.86510083 145.6952046 61.6640625 160.7578125 C61.40802246 161.50675781 61.15198242 162.25570312 60.88818359 163.02734375 C56.85095864 174.47466512 51.60417402 184.63559454 43.4140625 193.6953125 C42.78757812 194.40300781 42.16109375 195.11070312 41.515625 195.83984375 C27.49817116 210.8013302 7.93756075 217.05706604 -12.0546875 217.94140625 C-34.22944588 218.49342357 -54.91198519 212.57040194 -71.2734375 197.07421875 C-94.72533127 172.94887533 -98.89121045 141.90840381 -98.95703125 109.83984375 C-98.96601422 107.56157884 -98.97513632 105.28331448 -98.98439026 103.00505066 C-99.00077131 98.26238579 -99.0085625 93.5197907 -99.01147461 88.77709961 C-99.01690032 82.69620516 -99.05479818 76.61596176 -99.10021877 70.53525257 C-99.12989639 65.845307 -99.13719587 61.15552168 -99.13820076 56.46549034 C-99.14240818 54.2219406 -99.15486326 51.97839061 -99.17571831 49.73493385 C-99.20248697 46.61160621 -99.19785449 43.48983768 -99.18530273 40.36645508 C-99.20013702 39.44127579 -99.21497131 38.5160965 -99.23025513 37.56288147 C-99.1583687 31.301088 -99.1583687 31.301088 -96.19798279 28.16825867 C-93.69993186 26.75959452 -91.27096393 25.48927907 -88.625 24.3828125 C-87.61856445 23.95637451 -86.61212891 23.52993652 -85.57519531 23.09057617 C-83.9098877 22.39992065 -83.9098877 22.39992065 -82.2109375 21.6953125 C-80.38511744 20.93022242 -78.55932581 20.16506341 -76.73413086 19.39848328 C-75.37270168 18.82668842 -74.01086894 18.25585372 -72.64868164 17.68586731 C-67.31444335 15.44599974 -62.01175179 13.13877894 -56.71554565 10.81051636 C-52.48686978 8.95339262 -48.25162594 7.11151761 -44.01580811 5.27075195 C-41.90175836 4.34801848 -39.79043664 3.41900869 -37.6819458 2.48364258 C-34.68331029 1.15511747 -31.67518245 -0.14928712 -28.6640625 -1.44921875 C-27.76603912 -1.85380814 -26.86801575 -2.25839752 -25.94277954 -2.67524719 C-16.02938832 -6.89453658 -9.40868894 -4.16109731 0 0 Z " fill="#FEFBFB" transform="translate(271.5859375,147.3046875)"></path><path d="M0 0 C0.71577713 -0.00671722 1.43155426 -0.01343445 2.16902161 -0.02035522 C4.53601007 -0.03935878 6.90271539 -0.04326044 9.26977539 -0.04541016 C10.91500465 -0.05183603 12.56023275 -0.05856423 14.20545959 -0.06558228 C17.65457815 -0.07756062 21.10359649 -0.08126249 24.55273438 -0.08007812 C28.97263332 -0.0798748 33.39189022 -0.10718754 37.81163692 -0.14162254 C41.20971123 -0.16385778 44.60763012 -0.16791673 48.00576973 -0.16685867 C49.63527199 -0.16921932 51.26477823 -0.17806897 52.89420891 -0.19352341 C55.17342006 -0.21311791 57.45123518 -0.2073727 59.73046875 -0.1953125 C61.67547523 -0.19958755 61.67547523 -0.19958755 63.65977478 -0.20394897 C66.92993164 0.29052734 66.92993164 0.29052734 69.35151672 2.14334106 C71.46244634 5.01493019 71.38995065 6.82955781 71.32055664 10.36865234 C71.30766602 11.52880859 71.29477539 12.68896484 71.28149414 13.88427734 C71.2312207 15.69412109 71.2312207 15.69412109 71.17993164 17.54052734 C71.16188477 18.76255859 71.14383789 19.98458984 71.12524414 21.24365234 C71.07811264 24.26006813 71.01232577 27.27490226 70.92993164 30.29052734 C71.63698242 30.46793457 72.3440332 30.6453418 73.07250977 30.828125 C78.8490107 32.33083544 84.07072619 34.04520787 89.42993164 36.66552734 C90.70182376 37.27931301 91.9739617 37.89258954 93.24633789 38.50537109 C93.8626709 38.80556152 94.47900391 39.10575195 95.11401367 39.41503906 C97.84463479 40.73152298 100.60494459 41.98010848 103.36743164 43.22802734 C104.25301758 43.62892578 105.13860352 44.02982422 106.05102539 44.44287109 C106.98108398 44.86246094 106.98108398 44.86246094 107.92993164 45.29052734 C108.33083008 44.82904297 108.73172852 44.36755859 109.14477539 43.89208984 C121.46839318 29.75206581 121.46839318 29.75206581 124.92993164 26.29052734 C130.72097821 26.54904322 133.33658322 27.9426282 137.40625 31.99047852 C137.90470428 32.47841888 138.40315857 32.96635925 138.91671753 33.46908569 C140.5497598 35.07585589 142.16002467 36.70341663 143.76977539 38.33349609 C144.90232837 39.46200447 146.03577052 40.58962112 147.1700592 41.71638489 C149.53910742 44.07660446 151.89700679 46.4472912 154.24755859 48.82592773 C157.25926113 51.87185416 160.29715737 54.88999411 163.343894 57.90082836 C165.68737018 60.22261297 168.01635463 62.55851218 170.34121895 64.89892006 C171.45596734 66.01766613 172.57517685 67.1319855 173.69889641 68.2417202 C175.26738185 69.79494389 176.81531154 71.36614936 178.359375 72.94360352 C179.24427109 73.83327316 180.12916718 74.72294281 181.0408783 75.63957214 C183.30757829 78.82048821 183.43811562 80.46468923 182.92993164 84.29052734 C181.56665039 86.31005859 181.56665039 86.31005859 179.61743164 88.10302734 C178.89942383 88.76947266 178.18141602 89.43591797 177.44165039 90.12255859 C173.01531364 93.94311365 168.50875253 97.65440487 163.92993164 101.29052734 C164.18162109 101.81372559 164.43331055 102.33692383 164.69262695 102.87597656 C176.39007181 127.24118595 176.39007181 127.24118595 178.92993164 139.29052734 C180.18652588 139.26696167 180.18652588 139.26696167 181.46850586 139.24291992 C184.57330041 139.19182727 187.67788095 139.154195 190.78295898 139.12573242 C192.78912538 139.10320483 194.7950969 139.06509164 196.80102539 139.02685547 C198.05786133 139.0171875 199.31469727 139.00751953 200.60961914 138.99755859 C201.77219238 138.98184814 202.93476563 138.9661377 204.13256836 138.94995117 C205.51726318 139.11853638 205.51726318 139.11853638 206.92993164 139.29052734 C209.40654097 143.00544134 209.19434737 144.92208755 209.22045898 149.3605957 C209.22717621 150.07637283 209.23389343 150.79214996 209.24081421 151.52961731 C209.25981777 153.89660577 209.26371942 156.26331109 209.26586914 158.63037109 C209.27229501 160.27560035 209.27902321 161.92082846 209.28604126 163.5660553 C209.2980196 167.01517385 209.30172147 170.46419219 209.30053711 173.91333008 C209.30033379 178.33322902 209.32764653 182.75248592 209.36208153 187.17223263 C209.38431677 190.57030693 209.38837571 193.96822582 209.38731766 197.36636543 C209.38967831 198.99586769 209.39852795 200.62537393 209.41398239 202.25480461 C209.43357689 204.53401576 209.42783168 206.81183088 209.41577148 209.09106445 C209.41862152 210.38773544 209.42147156 211.68440643 209.42440796 213.02037048 C208.92993164 216.29052734 208.92993164 216.29052734 207.07711792 218.71211243 C204.20552879 220.82304205 202.39090118 220.75054635 198.85180664 220.68115234 C197.69165039 220.66826172 196.53149414 220.65537109 195.33618164 220.64208984 C193.52633789 220.59181641 193.52633789 220.59181641 191.67993164 220.54052734 C190.45790039 220.52248047 189.23586914 220.50443359 187.97680664 220.48583984 C184.96039086 220.43870835 181.94555673 220.37292147 178.92993164 220.29052734 C178.68339844 221.18626465 178.68339844 221.18626465 178.43188477 222.10009766 C176.5589739 228.64513442 174.16172053 234.81060615 171.42993164 241.04052734 C171.0393457 241.94673828 170.64875977 242.85294922 170.24633789 243.78662109 C168.26435928 248.35785123 166.21665724 252.86366111 163.92993164 257.29052734 C169.39472415 262.22899763 174.87463962 267.1458872 180.43383789 271.97802734 C181.28646105 272.72602051 182.12791542 273.48851113 182.92993164 274.29052734 C182.6630606 280.01334444 181.34135807 282.63337107 177.33764648 286.65917969 C176.86106598 287.14627411 176.38448547 287.63336853 175.89346313 288.13522339 C174.3239566 289.73100072 172.73368352 291.3039772 171.14086914 292.87646484 C170.03717695 293.98420233 168.93437644 295.0928289 167.83242798 296.20230103 C165.52348042 298.52007762 163.20407347 300.82669811 160.87670898 303.12597656 C157.90039592 306.06810485 154.95183757 309.03635523 152.01061058 312.01350975 C149.73941284 314.30643158 147.45406387 316.58481772 145.16423416 318.85911942 C144.07143783 319.94792501 142.98304851 321.04117298 141.89927292 322.13895798 C140.37979894 323.6737432 138.84227709 325.18786965 137.29858398 326.69824219 C136.42889984 327.56315277 135.5592157 328.42806335 134.66317749 329.31918335 C131.35155777 331.70767747 128.97594064 332.11704379 124.92993164 332.29052734 C122.96118164 331.13818359 122.96118164 331.13818359 121.42993164 329.35302734 C120.85887695 328.70978516 120.28782227 328.06654297 119.69946289 327.40380859 C119.11551758 326.70642578 118.53157227 326.00904297 117.92993164 325.29052734 C117.29442383 324.58283203 116.65891602 323.87513672 116.00415039 323.14599609 C113.43375266 320.27758123 111.06967094 317.50013629 108.92993164 314.29052734 C104.57051888 314.92031118 101.17086588 316.52029279 97.24243164 318.47802734 C88.74937431 322.6045185 79.92735104 325.47690135 70.92993164 328.29052734 C70.95087891 329.05719727 70.97182617 329.82386719 70.9934082 330.61376953 C71.07658322 334.08922194 71.12859739 337.56446497 71.17993164 341.04052734 C71.23020508 342.85037109 71.23020508 342.85037109 71.28149414 344.69677734 C71.29438477 345.85693359 71.30727539 347.01708984 71.32055664 348.21240234 C71.34150391 349.28071289 71.36245117 350.34902344 71.3840332 351.44970703 C70.79897209 355.109799 69.85560593 356.04870793 66.92993164 358.29052734 C63.66650391 358.79846191 63.66650391 358.79846191 59.74633789 358.80810547 C59.03041473 358.81511475 58.31449158 358.82212402 57.57687378 358.8293457 C55.21499621 358.84692282 52.85432097 358.8353051 50.49243164 358.82177734 C48.84863048 358.82447237 47.20483087 358.82835488 45.56103516 358.83337402 C42.11776536 358.83926864 38.67491093 358.83070763 35.23168945 358.81201172 C30.81959471 358.78922176 26.40847322 358.8023451 21.99641418 358.82630157 C18.60258663 358.84076077 15.20898955 358.8361531 11.81515503 358.82579041 C10.18846522 358.82312343 8.56175443 358.82639187 6.93508911 358.83570862 C4.66067136 358.84587677 2.3878261 358.83037211 0.11352539 358.80810547 C-1.18012939 358.8049231 -2.47378418 358.80174072 -3.80664062 358.79846191 C-7.61083343 358.20636024 -8.8169963 357.36188148 -11.07006836 354.29052734 C-11.43237305 351.44970703 -11.43237305 351.44970703 -11.24194336 348.21240234 C-11.18393555 347.05224609 -11.12592773 345.89208984 -11.06616211 344.69677734 C-10.9443457 342.88693359 -10.9443457 342.88693359 -10.82006836 341.04052734 C-10.72145508 339.20748047 -10.72145508 339.20748047 -10.62084961 337.33740234 C-10.45584705 334.32021276 -10.27157101 331.30546326 -10.07006836 328.29052734 C-11.96499023 327.9328125 -11.96499023 327.9328125 -13.89819336 327.56787109 C-19.50578361 326.31966629 -24.57924151 324.16691595 -29.82006836 321.85302734 C-30.73916992 321.45792969 -31.65827148 321.06283203 -32.60522461 320.65576172 C-36.19851139 319.09312398 -39.62277349 317.56676215 -42.96069336 315.50537109 C-45.24207534 313.95781134 -45.24207534 313.95781134 -49.07006836 314.29052734 C-50.80587971 315.72286225 -50.80587971 315.72286225 -52.32006836 317.72802734 C-52.92206055 318.44990234 -53.52405273 319.17177734 -54.14428711 319.91552734 C-55.46092167 321.53928761 -56.77595256 323.16434918 -58.08959961 324.79052734 C-63.15334422 330.83216527 -63.15334422 330.83216527 -67.07006836 332.79052734 C-78.12305628 330.94836269 -89.49198093 314.17262732 -97.41748047 306.29321289 C-99.48322255 304.24089481 -101.55603155 302.1961292 -103.63525391 300.1574707 C-106.16489003 297.67714315 -108.68203647 295.18477083 -111.19069099 292.68322945 C-112.6035051 291.28035118 -114.02839982 289.88967282 -115.45347595 288.49925232 C-116.30849197 287.64138626 -117.163508 286.7835202 -118.04443359 285.8996582 C-118.79973862 285.15244003 -119.55504364 284.40522186 -120.33323669 283.63536072 C-122.42289069 280.81419472 -122.83654737 278.76649339 -123.07006836 275.29052734 C-122.13647461 273.41943359 -122.13647461 273.41943359 -120.63256836 271.85302734 C-120.07827148 271.26908203 -119.52397461 270.68513672 -118.95288086 270.08349609 C-116.40483249 267.6570351 -113.79365259 265.32461637 -111.09741211 263.06396484 C-108.64006661 260.91437937 -106.36008885 258.61626739 -104.07006836 256.29052734 C-104.57795898 255.32115234 -105.08584961 254.35177734 -105.60913086 253.35302734 C-111.0635266 242.78721273 -116.28541928 231.91038194 -119.07006836 220.29052734 C-119.83673828 220.31147461 -120.6034082 220.33242188 -121.39331055 220.35400391 C-124.86876296 220.43717893 -128.34400599 220.48919309 -131.82006836 220.54052734 C-133.02663086 220.57404297 -134.23319336 220.60755859 -135.47631836 220.64208984 C-136.63647461 220.65498047 -137.79663086 220.66787109 -138.99194336 220.68115234 C-140.06025391 220.70209961 -141.12856445 220.72304688 -142.22924805 220.74462891 C-145.88934001 220.1595678 -146.82824895 219.21620163 -149.07006836 216.29052734 C-149.57800293 213.02709961 -149.57800293 213.02709961 -149.58764648 209.10693359 C-149.59465576 208.39101044 -149.60166504 207.67508728 -149.60888672 206.93746948 C-149.62646383 204.57559191 -149.61484611 202.21491668 -149.60131836 199.85302734 C-149.60401338 198.20922618 -149.60789589 196.56542657 -149.61291504 194.92163086 C-149.61880966 191.47836106 -149.61024864 188.03550663 -149.59155273 184.59228516 C-149.56876278 180.18019042 -149.58188611 175.76906892 -149.60584259 171.35700989 C-149.62030179 167.96318233 -149.61569412 164.56958526 -149.60533142 161.17575073 C-149.60266445 159.54906092 -149.60593289 157.92235013 -149.61524963 156.29568481 C-149.62541778 154.02126706 -149.60991313 151.7484218 -149.58764648 149.47412109 C-149.58446411 148.18046631 -149.58128174 146.88681152 -149.57800293 145.55395508 C-148.98590125 141.74976227 -148.1414225 140.5435994 -145.07006836 138.29052734 C-142.22924805 137.92822266 -142.22924805 137.92822266 -138.99194336 138.11865234 C-137.83178711 138.17666016 -136.67163086 138.23466797 -135.47631836 138.29443359 C-133.66647461 138.41625 -133.66647461 138.41625 -131.82006836 138.54052734 C-129.98702148 138.63914063 -129.98702148 138.63914063 -128.11694336 138.73974609 C-125.09975377 138.90474865 -122.08500427 139.08902469 -119.07006836 139.29052734 C-118.89338623 138.59797852 -118.7167041 137.90542969 -118.53466797 137.19189453 C-116.93818908 131.11373393 -115.08014325 125.32570435 -112.63256836 119.54052734 C-112.34575195 118.83798828 -112.05893555 118.13544922 -111.76342773 117.41162109 C-110.32530437 113.95884383 -108.78379025 110.72747227 -106.84741211 107.52490234 C-104.74900592 104.32135532 -104.74900592 104.32135532 -105.07006836 100.29052734 C-106.46861059 98.58862534 -106.46861059 98.58862534 -108.44506836 97.10302734 C-109.16307617 96.50103516 -109.88108398 95.89904297 -110.62084961 95.27880859 C-112.3584511 93.86821982 -114.10703245 92.47110817 -115.86303711 91.08349609 C-117.23395508 89.94847656 -117.23395508 89.94847656 -118.63256836 88.79052734 C-119.50010742 88.09958984 -120.36764648 87.40865234 -121.26147461 86.69677734 C-123.07006836 84.29052734 -123.07006836 84.29052734 -122.97012329 80.97567749 C-121.91995986 76.67592891 -120.57688845 75.03808463 -117.4777832 71.921875 C-117.0012027 71.43478058 -116.52462219 70.94768616 -116.03359985 70.4458313 C-114.46409332 68.85005397 -112.87382024 67.27707749 -111.28100586 65.70458984 C-110.17731367 64.59685235 -109.07451316 63.48822578 -107.9725647 62.37875366 C-105.66361714 60.06097707 -103.34421019 57.75435657 -101.0168457 55.45507812 C-98.04053264 52.51294983 -95.09197429 49.54469946 -92.1507473 46.56754494 C-89.87954956 44.27462311 -87.59420059 41.99623697 -85.30437088 39.72193527 C-84.21157455 38.63312968 -83.12318523 37.53988171 -82.03940964 36.44209671 C-80.51993566 34.90731149 -78.98241381 33.39318504 -77.4387207 31.8828125 C-76.13419449 30.58544662 -76.13419449 30.58544662 -74.80331421 29.26187134 C-71.49169449 26.87337722 -69.11607736 26.4640109 -65.07006836 26.29052734 C-63.10131836 27.44287109 -63.10131836 27.44287109 -61.57006836 29.22802734 C-60.99901367 29.87126953 -60.42795898 30.51451172 -59.83959961 31.17724609 C-59.2556543 31.87462891 -58.67170898 32.57201172 -58.07006836 33.29052734 C-57.43456055 33.99822266 -56.79905273 34.70591797 -56.14428711 35.43505859 C-53.57388938 38.30347346 -51.20980766 41.08091839 -49.07006836 44.29052734 C-44.27960502 43.65676955 -40.46346248 41.66479115 -36.19506836 39.54052734 C-17.12734129 30.29052734 -17.12734129 30.29052734 -10.07006836 30.29052734 C-10.09363403 29.03393311 -10.09363403 29.03393311 -10.11767578 27.75195312 C-10.16876843 24.64715857 -10.2064007 21.54257803 -10.23486328 18.4375 C-10.25739087 16.4313336 -10.29550406 14.42536208 -10.33374023 12.41943359 C-10.34824219 10.53417969 -10.34824219 10.53417969 -10.36303711 8.61083984 C-10.38660278 6.86697998 -10.38660278 6.86697998 -10.41064453 5.08789062 C-10.29825439 4.16476074 -10.18586426 3.24163086 -10.07006836 2.29052734 C-6.35515436 -0.18608199 -4.43850815 0.02611161 0 0 Z M2.92993164 13.29052734 C2.92993164 21.21052734 2.92993164 29.13052734 2.92993164 37.29052734 C0.12447115 40.09598784 -0.57779312 40.70102793 -4.09741211 41.72021484 C-4.88341797 41.95530762 -5.66942383 42.19040039 -6.47924805 42.43261719 C-7.31359375 42.67447754 -8.14793945 42.91633789 -9.00756836 43.16552734 C-18.00077084 45.90060825 -26.65379802 48.83691514 -34.92163086 53.38037109 C-35.58904297 53.74662598 -36.25645508 54.11288086 -36.9440918 54.49023438 C-38.24411206 55.21320807 -39.53699777 55.94921823 -40.82104492 56.70019531 C-44.73147093 58.90311803 -47.58672309 59.96713939 -52.07006836 59.29052734 C-53.94116211 58.04052734 -53.94116211 58.04052734 -55.50756836 56.29052734 C-56.08893555 55.65759766 -56.67030273 55.02466797 -57.26928711 54.37255859 C-57.86354492 53.68548828 -58.45780273 52.99841797 -59.07006836 52.29052734 C-60.00786133 51.21351562 -60.00786133 51.21351562 -60.96459961 50.11474609 C-62.15080904 48.74873228 -63.32759958 47.37444466 -64.49194336 45.98974609 C-66.15741812 44.06460217 -66.15741812 44.06460217 -69.07006836 42.29052734 C-81.61006836 54.83052734 -94.15006836 67.37052734 -107.07006836 80.29052734 C-103.27127267 84.72245565 -100.04121821 88.40839591 -95.75756836 92.16552734 C-94.46399414 93.30634766 -94.46399414 93.30634766 -93.14428711 94.47021484 C-92.45979492 95.07091797 -91.77530273 95.67162109 -91.07006836 96.29052734 C-90.07006836 97.29052734 -90.07006836 97.29052734 -89.71850586 99.79833984 C-90.20574297 104.63822846 -92.30997998 107.98897259 -94.69506836 112.16552734 C-101.72033895 124.99579205 -105.7441823 136.87835443 -109.07006836 151.29052734 C-122.43506836 151.78552734 -122.43506836 151.78552734 -136.07006836 152.29052734 C-136.07006836 170.11052734 -136.07006836 187.93052734 -136.07006836 206.29052734 C-128.15006836 206.29052734 -120.23006836 206.29052734 -112.07006836 206.29052734 C-111.08006836 206.62052734 -110.09006836 206.95052734 -109.07006836 207.29052734 C-108.33178711 209.41552734 -108.33178711 209.41552734 -107.75756836 212.29052734 C-104.72263976 225.40575449 -100.02491483 237.19130285 -93.32177734 248.87084961 C-90.9429779 253.11515979 -89.18707478 256.27953876 -90.07006836 261.29052734 C-91.24975586 263.12646484 -91.24975586 263.12646484 -92.94506836 264.66552734 C-93.5728418 265.24173828 -94.20061523 265.81794922 -94.84741211 266.41162109 C-98.85104647 269.7960642 -102.92574491 273.08013594 -107.07006836 276.29052734 C-105.66497737 279.47312585 -104.00085493 281.604012 -101.53833008 284.04931641 C-100.81773407 284.76976135 -100.09713806 285.4902063 -99.35470581 286.23248291 C-98.57757233 286.99929382 -97.80043884 287.76610474 -96.99975586 288.55615234 C-96.20352814 289.34955017 -95.40730042 290.142948 -94.58694458 290.96038818 C-92.04430888 293.49183438 -89.49480488 296.01623538 -86.94506836 298.54052734 C-85.21935083 300.25621351 -83.49408481 301.97235396 -81.76928711 303.68896484 C-77.54143804 307.89476982 -73.30792967 312.09481241 -69.07006836 316.29052734 C-67.95659541 315.35550928 -66.84588852 314.41719671 -65.73632812 313.47753906 C-65.11750259 312.95537811 -64.49867706 312.43321716 -63.86109924 311.89523315 C-60.38186867 308.77795496 -57.5604158 305.08754611 -54.59741211 301.48583984 C-52.07006836 299.29052734 -52.07006836 299.29052734 -49.35913086 298.65380859 C-44.52704094 299.58923693 -40.75116746 301.92687694 -36.50756836 304.35302734 C-24.6102098 310.88503446 -11.63745375 316.48154262 1.92993164 318.29052734 C4.77793289 326.83453109 2.92993164 336.28435662 2.92993164 345.29052734 C20.74993164 345.29052734 38.56993164 345.29052734 56.92993164 345.29052734 C57.25993164 336.71052734 57.58993164 328.13052734 57.92993164 319.29052734 C61.95180664 318.03240234 65.97368164 316.77427734 70.11743164 315.47802734 C80.43375781 312.15341779 89.91880193 308.17546884 99.30371094 302.74633789 C106.97435491 298.37282795 106.97435491 298.37282795 111.92993164 299.29052734 C113.76586914 300.47021484 113.76586914 300.47021484 115.30493164 302.16552734 C115.88114258 302.79330078 116.45735352 303.42107422 117.05102539 304.06787109 C120.4354685 308.07150545 123.71954024 312.1462039 126.92993164 316.29052734 C130.09793238 314.88832086 132.24168832 313.23138568 134.6887207 310.79052734 C135.40916565 310.07638672 136.1296106 309.36224609 136.87188721 308.62646484 C137.63869812 307.85560547 138.40550903 307.08474609 139.19555664 306.29052734 C139.98895447 305.49904297 140.78235229 304.70755859 141.59979248 303.89208984 C143.27317218 302.22006998 144.94403345 300.54552637 146.61254883 298.86865234 C149.17706761 296.29340336 151.75210153 293.72901682 154.32836914 291.16552734 C155.95140691 289.5411685 157.57382445 287.91618965 159.19555664 286.29052734 C160.3579184 285.13423828 160.3579184 285.13423828 161.54376221 283.95458984 C162.60551666 282.88337891 162.60551666 282.88337891 163.6887207 281.79052734 C164.31619202 281.16146484 164.94366333 280.53240234 165.59014893 279.88427734 C167.14442592 278.38238715 167.14442592 278.38238715 166.92993164 276.29052734 C165.27184819 274.81536413 163.55147118 273.40981434 161.80493164 272.04052734 C150.1539206 262.6445507 150.1539206 262.6445507 149.49633789 258.66943359 C150.10400068 253.93404342 152.20996084 250.520998 154.55493164 246.41552734 C160.69413561 235.22299449 165.37814959 223.92531425 168.19165039 211.42724609 C168.92993164 209.29052734 168.92993164 209.29052734 171.92993164 206.29052734 C179.84993164 206.29052734 187.76993164 206.29052734 195.92993164 206.29052734 C195.92993164 188.47052734 195.92993164 170.65052734 195.92993164 152.29052734 C188.00993164 152.29052734 180.08993164 152.29052734 171.92993164 152.29052734 C169.09235265 149.45294836 168.56466647 148.91790151 167.67602539 145.36083984 C167.46631104 144.57523682 167.25659668 143.78963379 167.04052734 142.98022461 C166.70734497 141.71069946 166.70734497 141.71069946 166.36743164 140.41552734 C162.93234567 128.12635741 157.77068615 116.30836241 151.16821289 105.37255859 C149.36413122 102.3391973 149.23538985 100.76323629 149.92993164 97.29052734 C151.96674143 94.61798601 154.39472087 92.48327062 156.92993164 90.29052734 C157.64793945 89.66533203 158.36594727 89.04013672 159.10571289 88.39599609 C160.4717267 87.20978666 161.84601433 86.03299612 163.23071289 84.86865234 C165.15585681 83.20317759 165.15585681 83.20317759 166.92993164 80.29052734 C161.56174415 74.87178849 156.18585578 69.46078085 150.80444336 64.05517578 C148.97321521 62.21386628 147.14378287 60.37076904 145.31616211 58.52587891 C142.69468435 55.88024661 140.06689629 53.24103037 137.43774414 50.60302734 C136.6168631 49.77182373 135.79598206 48.94062012 134.95022583 48.08422852 C134.18958832 47.32343994 133.42895081 46.56265137 132.64526367 45.77880859 C131.97463898 45.10374268 131.30401428 44.42867676 130.61306763 43.7331543 C129.04630512 42.07360218 129.04630512 42.07360218 126.92993164 42.29052734 C125.45476843 43.94861079 124.04921864 45.66898781 122.67993164 47.41552734 C113.20307588 59.14805644 113.20307588 59.14805644 108.64868164 59.65771484 C104.34397967 59.23267074 102.18401145 58.04343298 98.55493164 55.72802734 C87.06001663 48.73831948 74.91079802 44.15791194 61.80883789 41.21240234 C58.92993164 40.29052734 58.92993164 40.29052734 56.92993164 37.29052734 C56.92993164 29.37052734 56.92993164 21.45052734 56.92993164 13.29052734 C39.10993164 13.29052734 21.28993164 13.29052734 2.92993164 13.29052734 Z " fill="#FEFAFA" transform="translate(226.070068359375,76.70947265625)"></path><path d="M0 0 C1.00728149 0.43544128 2.01456299 0.87088257 3.05236816 1.31951904 C6.30221398 2.7268189 9.54564702 4.14826352 12.7890625 5.5703125 C15.01144761 6.53664303 17.23426771 7.50197378 19.45751953 8.46630859 C22.75170491 9.89536031 26.04554404 11.3251492 29.33761597 12.75906372 C35.31377004 15.36072255 41.30042637 17.93086161 47.3203125 20.4296875 C48.53283691 20.93387207 49.74536133 21.43805664 50.99462891 21.95751953 C53.12494675 22.83875817 55.25730937 23.71507688 57.39208984 24.58544922 C58.3042627 24.96459473 59.21643555 25.34374023 60.15625 25.734375 C60.9179248 26.04584473 61.67959961 26.35731445 62.46435547 26.67822266 C64.627643 27.80672952 65.86381018 28.81086125 67.4140625 30.6953125 C67.79158592 32.67799759 67.79158592 32.67799759 67.79501343 34.97930908 C67.8034729 35.85365601 67.81193237 36.72800293 67.82064819 37.62884521 C67.81153915 39.06408539 67.81153915 39.06408539 67.80224609 40.52832031 C67.81013153 42.04365356 67.81013153 42.04365356 67.81817627 43.58959961 C67.83141897 46.94270128 67.822615 50.29533063 67.8125 53.6484375 C67.81452139 55.98476248 67.81743338 58.32108685 67.82119751 60.65740967 C67.8256282 65.56691463 67.81917274 70.47625619 67.80517578 75.38574219 C67.78819688 81.64287173 67.79784834 87.89961201 67.81589317 94.15672684 C67.82680799 98.99040581 67.82324765 103.8239948 67.8155098 108.6576767 C67.81352307 110.96188148 67.81591271 113.26609471 67.82294846 115.57028961 C67.86060556 131.38919734 66.86510083 145.6952046 61.6640625 160.7578125 C61.40802246 161.50675781 61.15198242 162.25570312 60.88818359 163.02734375 C56.85095864 174.47466512 51.60417402 184.63559454 43.4140625 193.6953125 C42.78757812 194.40300781 42.16109375 195.11070312 41.515625 195.83984375 C27.49817116 210.8013302 7.93756075 217.05706604 -12.0546875 217.94140625 C-34.22944588 218.49342357 -54.91198519 212.57040194 -71.2734375 197.07421875 C-94.72533127 172.94887533 -98.89121045 141.90840381 -98.95703125 109.83984375 C-98.96601422 107.56157884 -98.97513632 105.28331448 -98.98439026 103.00505066 C-99.00077131 98.26238579 -99.0085625 93.5197907 -99.01147461 88.77709961 C-99.01690032 82.69620516 -99.05479818 76.61596176 -99.10021877 70.53525257 C-99.12989639 65.845307 -99.13719587 61.15552168 -99.13820076 56.46549034 C-99.14240818 54.2219406 -99.15486326 51.97839061 -99.17571831 49.73493385 C-99.20248697 46.61160621 -99.19785449 43.48983768 -99.18530273 40.36645508 C-99.20013702 39.44127579 -99.21497131 38.5160965 -99.23025513 37.56288147 C-99.1583687 31.301088 -99.1583687 31.301088 -96.19798279 28.16825867 C-93.69993186 26.75959452 -91.27096393 25.48927907 -88.625 24.3828125 C-87.61856445 23.95637451 -86.61212891 23.52993652 -85.57519531 23.09057617 C-83.9098877 22.39992065 -83.9098877 22.39992065 -82.2109375 21.6953125 C-80.38511744 20.93022242 -78.55932581 20.16506341 -76.73413086 19.39848328 C-75.37270168 18.82668842 -74.01086894 18.25585372 -72.64868164 17.68586731 C-67.31444335 15.44599974 -62.01175179 13.13877894 -56.71554565 10.81051636 C-52.48686978 8.95339262 -48.25162594 7.11151761 -44.01580811 5.27075195 C-41.90175836 4.34801848 -39.79043664 3.41900869 -37.6819458 2.48364258 C-34.68331029 1.15511747 -31.67518245 -0.14928712 -28.6640625 -1.44921875 C-27.76603912 -1.85380814 -26.86801575 -2.25839752 -25.94277954 -2.67524719 C-16.02938832 -6.89453658 -9.40868894 -4.16109731 0 0 Z M-24.01782227 10.71142578 C-25.05652969 11.15253693 -26.09523712 11.59364807 -27.16542053 12.04812622 C-28.27485519 12.53240082 -29.38428986 13.01667542 -30.52734375 13.515625 C-31.68660873 14.01190399 -32.84587372 14.50818298 -34.04026794 15.01950073 C-37.12116959 16.34106081 -40.19765551 17.67202189 -43.27252197 19.00750732 C-45.74793232 20.08006433 -48.2272727 21.14333689 -50.70692539 22.20604134 C-62.4060092 27.22062006 -74.04974303 32.31607865 -85.5859375 37.6953125 C-85.65575271 50.34421292 -85.7089079 62.99306674 -85.74137402 75.64212132 C-85.75696388 81.51693641 -85.77807892 87.39161872 -85.81225586 93.26635742 C-85.84508901 98.94629644 -85.86284061 104.62610851 -85.87056923 110.30613518 C-85.87607003 112.46243218 -85.88681046 114.61872301 -85.90312767 116.77496529 C-86.09706373 143.48920552 -81.30144398 167.53939163 -62.63671875 187.8125 C-48.7372988 201.42069401 -30.48325759 204.95318364 -11.75952148 204.9440918 C-5.01268156 204.8528562 1.02366401 203.94596204 7.4140625 201.6953125 C8.41824219 201.34339844 9.42242187 200.99148438 10.45703125 200.62890625 C28.16396184 193.82890629 39.5263997 181.10804736 47.7265625 164.3203125 C52.73376308 152.07793678 54.58076354 138.91914482 54.52758789 125.79101562 C54.52780693 124.35548843 54.52780693 124.35548843 54.5280304 122.89096069 C54.52733817 119.75280426 54.51957826 116.61470846 54.51171875 113.4765625 C54.50985212 111.2908125 54.50842937 109.10506209 54.50743103 106.91931152 C54.50362517 101.18516878 54.49381146 95.45105163 54.48272705 89.71691895 C54.47247132 83.85815782 54.46792451 77.99939253 54.46289062 72.140625 C54.45218737 60.65884296 54.43513426 49.17707987 54.4140625 37.6953125 C46.08260818 34.0243687 37.74899204 30.35835855 29.4140625 26.6953125 C28.41006409 26.25382874 27.40606567 25.81234497 26.37164307 25.35748291 C20.89154722 22.94935479 15.40611423 20.55409871 9.91333008 18.17504883 C8.08633357 17.38133049 6.26119871 16.58331611 4.43774414 15.78149414 C1.73239857 14.59267758 -0.97869079 13.41797735 -3.69140625 12.24609375 C-4.90536324 11.70726311 -4.90536324 11.70726311 -6.1438446 11.157547 C-6.90357071 10.83267807 -7.66329681 10.50780914 -8.44604492 10.1730957 C-9.10344162 9.88650589 -9.76083832 9.59991608 -10.43815613 9.30464172 C-15.41802222 7.89184526 -19.35810839 8.70474643 -24.01782227 10.71142578 Z " fill="#FEF9FA" transform="translate(271.5859375,147.3046875)"></path><path d="M0 0 C0.9135878 0.39800812 1.8271756 0.79601624 2.76844788 1.20608521 C5.69528219 2.48394822 8.61522884 3.77675638 11.53515625 5.0703125 C13.4325003 5.9020516 15.33028352 6.73278966 17.22851562 7.5625 C21.0452344 9.23249059 24.85928752 10.90835942 28.67138672 12.58886719 C34.95196534 15.35521376 41.24445516 18.09387711 47.5390625 20.828125 C48.54670151 21.26583221 49.55434052 21.70353943 50.59251404 22.1545105 C52.9274147 23.16844978 55.26244808 24.18208168 57.59765625 25.1953125 C57.66751006 37.69655792 57.72064591 50.19775605 57.75309277 62.69915771 C57.76867436 68.50556386 57.78977382 74.31183537 57.82397461 80.11816406 C57.85683786 85.73326927 57.87456554 91.34824589 57.88228798 96.96343994 C57.88778349 99.0937909 57.89851314 101.22413572 57.91484642 103.35443115 C58.00558922 115.69295078 57.49267771 127.16360033 54.59765625 139.1953125 C54.37478439 140.13503906 54.15191254 141.07476562 53.92228699 142.04296875 C50.04951536 157.39131629 40.43130083 171.94894974 27.59765625 181.1953125 C20.01141131 185.62432772 12.18976177 189.19714842 3.59765625 191.1953125 C2.86675781 191.37964844 2.13585937 191.56398438 1.3828125 191.75390625 C-18.1006611 194.84174989 -37.52252866 191.02142778 -53.87890625 180.0546875 C-66.66723947 170.63170513 -73.93980222 157.16415259 -78.40234375 142.1953125 C-78.86253906 140.67164063 -78.86253906 140.67164063 -79.33203125 139.1171875 C-81.71628531 130.80635906 -82.55027363 122.93048958 -82.51586914 114.31274414 C-82.51601517 113.34611847 -82.51616119 112.3794928 -82.51631165 111.38357544 C-82.5156183 108.20751657 -82.50785303 105.0315173 -82.5 101.85546875 C-82.49813377 99.64586926 -82.49671083 97.43626936 -82.49571228 95.22666931 C-82.49190327 89.42510831 -82.48208682 83.62357255 -82.4710083 77.82202148 C-82.46075939 71.89632509 -82.45620721 65.97062459 -82.45117188 60.04492188 C-82.44046307 48.42837436 -82.4234061 36.81184553 -82.40234375 25.1953125 C-73.77766864 21.12558261 -65.13986482 17.14089897 -56.33984375 13.4609375 C-55.37884766 13.0562323 -54.41785156 12.6515271 -53.42773438 12.23455811 C-50.42040818 10.96875051 -47.41143854 9.70690911 -44.40234375 8.4453125 C-42.36186432 7.58751273 -40.32149901 6.72944143 -38.28125 5.87109375 C-35.41178324 4.66392382 -32.54217183 3.45711591 -29.67163086 2.25250244 C-28.81964111 1.89492859 -27.96765137 1.53735474 -27.08984375 1.16894531 C-26.28417969 0.83366821 -25.47851562 0.49839111 -24.6484375 0.1529541 C-23.23378572 -0.45019499 -21.82824198 -1.07565241 -20.4375 -1.73205566 C-12.53928464 -5.42786308 -7.50116277 -3.35400087 0 0 Z M-26.0234375 14.4296875 C-27.04156021 14.8641217 -28.05968292 15.29855591 -29.10865784 15.74615479 C-31.25829345 16.66586096 -33.40570984 17.5907692 -35.55102539 18.52050781 C-38.82015931 19.93678467 -42.09582841 21.33692236 -45.37304688 22.734375 C-47.46524837 23.63186985 -49.55705852 24.53027766 -51.6484375 25.4296875 C-52.6215538 25.84651794 -53.5946701 26.26334839 -54.59727478 26.69281006 C-63.7096607 30.00646436 -63.7096607 30.00646436 -70.40234375 36.1953125 C-70.51099861 38.76007004 -70.55966078 41.29807968 -70.56347656 43.86352539 C-70.56844147 44.65581039 -70.57340637 45.4480954 -70.57852173 46.26438904 C-70.59317976 48.8989244 -70.5999574 51.53339921 -70.60546875 54.16796875 C-70.61122472 56.00768535 -70.6169824 57.84740194 -70.6227417 59.68711853 C-70.63326711 63.55842365 -70.63909722 67.42970796 -70.64257812 71.30102539 C-70.64801441 76.21613535 -70.67192983 81.13096143 -70.70055008 86.04598331 C-70.71937308 89.85632566 -70.72439275 93.66660297 -70.725914 97.47698784 C-70.72890566 99.28553223 -70.73681318 101.09407647 -70.75009918 102.90257454 C-70.90193163 125.19294239 -67.90065082 146.95625355 -52.40234375 164.1953125 C-40.7220512 175.52519627 -27.36917379 179.59418861 -11.48803711 179.56616211 C0.53940411 179.27015156 11.83050869 176.48107662 21.59765625 169.1953125 C22.30277344 168.68226563 23.00789063 168.16921875 23.734375 167.640625 C37.1943288 156.92393797 43.44658025 138.75286584 45.59765625 122.1953125 C46.12030048 115.49698049 46.04557093 108.77272984 46.03125 102.05859375 C46.03582198 100.16147171 46.04113054 98.26435132 46.0471344 96.36723328 C46.05599689 92.42484729 46.0537149 88.48266472 46.04370117 84.5402832 C46.03211848 79.48848828 46.05259854 74.43738277 46.08161831 69.38567829 C46.09993461 65.48320581 46.09969875 61.58090088 46.09398079 57.67839622 C46.09382755 55.81445524 46.09987371 53.95050292 46.11227226 52.08660316 C46.12712376 49.49258881 46.11655553 46.89988113 46.09936523 44.3059082 C46.1090332 43.53969147 46.11870117 42.77347473 46.12866211 41.98403931 C46.08003536 38.48597559 45.88933538 36.57068971 43.71232605 33.76898193 C41.42563493 32.06729975 39.27162308 30.91047081 36.65234375 29.78515625 C35.66983643 29.35759033 34.6873291 28.93002441 33.67504883 28.48950195 C32.0898645 27.81794067 32.0898645 27.81794067 30.47265625 27.1328125 C29.37912842 26.66254639 28.28560059 26.19228027 27.15893555 25.70776367 C24.8383213 24.71161124 22.51591985 23.71961356 20.19189453 22.73144531 C16.57650199 21.18627143 12.97502995 19.6118462 9.375 18.03125 C7.05371224 17.02268496 4.73210708 16.01485007 2.41015625 15.0078125 C0.77312744 14.28549438 0.77312744 14.28549438 -0.89697266 13.54858398 C-2.43683838 12.88838257 -2.43683838 12.88838257 -4.0078125 12.21484375 C-4.90653076 11.82401611 -5.80524902 11.43318848 -6.73120117 11.03051758 C-14.01658999 8.75254343 -19.35659674 11.52454409 -26.0234375 14.4296875 Z " fill="#DE2F36" transform="translate(268.40234375,159.8046875)"></path><path d="M0 0 C0 46.2 0 92.4 0 140 C-11.3212437 138.38267947 -20.48656942 134.63386617 -27.94140625 125.6640625 C-35.44263081 114.87396411 -39.1777685 101.13429306 -39.11352539 88.08862305 C-39.11367142 87.30760727 -39.11381744 86.52659149 -39.1139679 85.72190857 C-39.1132737 83.15181661 -39.10550446 80.58179798 -39.09765625 78.01171875 C-39.09579032 76.22524556 -39.09436724 74.43877186 -39.09336853 72.65229797 C-39.08955716 67.95875629 -39.07973867 63.26524573 -39.06866455 58.57171631 C-39.05842075 53.77893495 -39.05386455 48.98614854 -39.04882812 44.19335938 C-39.03811514 34.79555927 -39.02105531 25.39778223 -39 16 C-35.0842316 14.26879427 -31.1672178 12.54042337 -27.25 10.8125 C-26.15816406 10.32974609 -25.06632813 9.84699219 -23.94140625 9.34960938 C-18.40805849 6.91035252 -12.86501194 4.49560521 -7.296875 2.13671875 C-5.84039551 1.5192981 -5.84039551 1.5192981 -4.35449219 0.8894043 C-2 0 -2 0 0 0 Z " fill="#DC2E36" transform="translate(250,186)"></path><path d="M0 0 C5.65047892 1.88349297 11.02869674 3.74997735 16.44140625 6.13671875 C17.09455307 6.42102249 17.74769989 6.70532623 18.42063904 6.99824524 C20.46952195 7.89105962 22.51603331 8.78916327 24.5625 9.6875 C25.96664213 10.3004848 27.37093787 10.91311785 28.77539062 11.52539062 C32.18537402 13.01287658 35.59325504 14.50510948 39 16 C39.06994985 25.91083034 39.12303728 35.82160057 39.15543652 45.73262882 C39.17099768 50.33624645 39.19205817 54.93969343 39.22631836 59.54321289 C39.25925661 63.99770691 39.27692451 68.45203828 39.28463173 72.90664482 C39.29011412 74.59404493 39.30081689 76.28143759 39.31719017 77.96876717 C39.48680355 96.19675437 37.56399572 114.36995896 25.234375 128.80859375 C18.60463025 135.31084341 9.36978376 140 0 140 C0 93.8 0 47.6 0 0 Z " fill="#DF3238" transform="translate(262,186)"></path></svg>