<svg version="1.1" xmlns="http://www.w3.org/2000/svg" width="16px" height="16px" fill="currentColor" viewBox="0 0 512 512"><path d="M0 0 C168.96 0 337.92 0 512 0 C512 168.96 512 337.92 512 512 C343.04 512 174.08 512 0 512 C0 343.04 0 174.08 0 0 Z " fill="#438A26" transform="translate(0,0)"></path><path d="M0 0 C9.53100602 8.2144106 15.88337271 17.11271669 20.3515625 28.9296875 C20.3515625 29.9196875 20.3515625 30.9096875 20.3515625 31.9296875 C18.74900142 32.43480994 17.14444458 32.93360377 15.5390625 33.4296875 C14.19908203 33.84734375 14.19908203 33.84734375 12.83203125 34.2734375 C10.3515625 34.9296875 10.3515625 34.9296875 7.3515625 34.9296875 C7.14402344 34.24003906 6.93648438 33.55039063 6.72265625 32.83984375 C3.20002067 22.09506828 -3.13759494 12.92954448 -13.2890625 7.5234375 C-25.18295571 1.93395763 -37.07832393 -0.38591193 -49.9609375 3.4921875 C-62.03661793 8.11795218 -70.41856712 16.38838569 -76.60546875 27.55859375 C-81.56988706 38.84474325 -80.93568609 51.56264823 -76.91796875 63.01953125 C-71.74628835 74.87461401 -62.69342548 82.70202526 -51.2109375 88.3046875 C-41.02868418 92.08530574 -28.21559517 91.11125164 -18.2578125 87.19140625 C-6.89504034 81.69713169 0.31174182 74.4725026 5.3515625 62.9296875 C10.19815327 63.52073515 13.95904417 64.90912907 18.3515625 66.9296875 C12.48165864 82.56989185 2.05590388 92.52137099 -12.7890625 99.703125 C-26.16979509 105.44294745 -42.06466785 106.01553146 -55.79296875 101.12109375 C-70.88227429 94.82528227 -82.90629074 84.18682628 -89.40527344 68.98266602 C-91.42954601 63.98148593 -92.6484375 60.38692006 -92.6484375 54.9296875 C-130.2684375 54.9296875 -167.8884375 54.9296875 -206.6484375 54.9296875 C-206.9784375 57.2396875 -207.3084375 59.5496875 -207.6484375 61.9296875 C-211.42067288 70.22860534 -218.55309628 76.60936395 -227.0234375 79.8671875 C-236.85900434 82.62594405 -245.97894273 81.10460457 -254.7734375 76.1796875 C-261.97164838 70.54630507 -265.79542445 65.70346958 -268.6484375 56.9296875 C-268.9784375 55.9396875 -269.3084375 54.9496875 -269.6484375 53.9296875 C-270.80102248 44.33030119 -268.53510941 36.07816472 -262.69921875 28.34765625 C-256.77979699 21.93937739 -250.14550011 17.67235458 -241.41015625 16.4921875 C-231.41093485 16.11618858 -223.26361471 18.90601068 -215.47265625 25.1640625 C-209.80076767 30.65377051 -207.772992 35.05780602 -206.6484375 42.9296875 C-169.3584375 42.9296875 -132.0684375 42.9296875 -93.6484375 42.9296875 C-93.3184375 39.2996875 -92.9884375 35.6696875 -92.6484375 31.9296875 C-87.8763468 15.63613481 -77.63214304 2.66762353 -62.83764648 -5.50854492 C-42.69873089 -16.06641063 -17.93599276 -14.0207613 0 0 Z " fill="#FBFDFB" transform="translate(352.6484375,207.0703125)"></path><path d="M0 0 C2.77306065 2.77306065 4.54026221 5.27238913 6.625 8.5625 C10.5896626 14.58587731 15.03032874 19.79324351 20 25 C20.52722656 25.60199219 21.05445313 26.20398438 21.59765625 26.82421875 C33.71447456 40.11863066 52.54778192 48.77270505 70 52 C70.99515625 52.18433594 71.9903125 52.36867188 73.015625 52.55859375 C78.70288554 53.33514884 84.45944804 53.1843579 90.1875 53.1875 C91.9209668 53.20586914 91.9209668 53.20586914 93.68945312 53.22460938 C112.33378903 53.25601477 133.11159533 48.10080513 147.67578125 35.7265625 C148.44277344 35.15679687 149.20976562 34.58703125 150 34 C153.44620861 35.1487362 154.09169196 36.07581642 156.1875 38.9375 C156.71730469 39.64777344 157.24710938 40.35804688 157.79296875 41.08984375 C159 43 159 43 159 45 C157.03076743 46.51077062 155.08925571 47.85941367 153 49.1875 C152.37496582 49.58606201 151.74993164 49.98462402 151.10595703 50.39526367 C132.22965541 62.08493078 111.76027271 67.4152295 89.625 67.3125 C87.71037964 67.30404053 87.71037964 67.30404053 85.75708008 67.29541016 C59.93303502 66.96232433 36.93852987 57.13784187 17 41 C16.32324219 40.46503906 15.64648438 39.93007813 14.94921875 39.37890625 C10.45221723 35.69954137 6.71797285 31.45252675 3 27 C-5.66746793 30.84996831 -12.82619128 38.66438233 -19.76171875 44.98046875 C-22.44612148 47.40252147 -25.19881784 49.71482508 -28 52 C-27.84015625 52.67546875 -27.6803125 53.3509375 -27.515625 54.046875 C-26.03182003 62.54503076 -25.51698841 73.33094873 -30 81 C-35.74598286 88.57117742 -42.16852865 95.6150449 -52 97 C-63.99265217 97.81475706 -71.63042874 96.57983065 -80.953125 88.9609375 C-86.47585923 83.67007379 -89.60808035 77.10148466 -90.3359375 69.484375 C-90.45376432 58.22013093 -88.84476111 50.10977799 -81 41.7578125 C-73.02384718 34.74752194 -65.11416664 33.53418859 -54.78125 33.7109375 C-48.24079731 34.21093078 -42.94787169 36.69750288 -38 41 C-35.22992511 39.71733489 -33.03244356 38.33456772 -30.75 36.3125 C-30.14679932 35.78293701 -29.54359863 35.25337402 -28.92211914 34.70776367 C-28.28781982 34.14420166 -27.65352051 33.58063965 -27 33 C-25.66619828 31.82847722 -24.33155051 30.65791704 -22.99609375 29.48828125 C-22.3294873 28.90385254 -21.66288086 28.31942383 -20.97607422 27.71728516 C-16.38700052 23.72920209 -11.68967268 19.86876163 -7 16 C-7.54723683 12.62537285 -8.0549 10.91765 -10 8 C-10 7.01 -10 6.02 -10 5 C-6.7 3.35 -3.4 1.7 0 0 Z " fill="#FBFCFA" transform="translate(225,293)"></path><path d="M0 0 C6.6450802 4.37942429 11.41907225 11.3314355 13.92578125 18.8515625 C14.40675643 26.56566446 14.60995384 33.88381688 11.58203125 41.1171875 C10.7488352 43.0101425 10.7488352 43.0101425 10.92578125 45.8515625 C13.02952791 47.75780236 15.10273624 49.46303264 17.36328125 51.1640625 C17.99766113 51.65173096 18.63204102 52.13939941 19.28564453 52.6418457 C24.02709121 56.2559512 28.87310601 59.68361532 33.92578125 62.8515625 C34.43625 62.06394531 34.94671875 61.27632813 35.47265625 60.46484375 C52.84528354 34.43670535 77.18301836 16.95368704 107.92578125 9.8515625 C113.63974421 8.74886789 119.12623292 8.77211663 124.92578125 8.8515625 C124.92578125 13.1415625 124.92578125 17.4315625 124.92578125 21.8515625 C123.97960937 21.92632812 123.0334375 22.00109375 122.05859375 22.078125 C101.04646631 24.04237817 81.86175121 31.93244435 65.92578125 45.8515625 C65.25417969 46.38007813 64.58257812 46.90859375 63.890625 47.453125 C50.4879671 58.27117491 42.42826693 74.23744329 35.92578125 89.8515625 C31.60803545 89.34359241 27.89276011 88.65473471 23.92578125 86.8515625 C24.47894711 82.88720718 25.38198993 79.5353247 26.92578125 75.8515625 C22.72240631 72.37058608 18.51263653 68.89785931 14.2890625 65.44140625 C11.8201216 63.4198326 9.38225583 61.381273 6.96875 59.29296875 C6.21207031 58.65230469 5.45539063 58.01164062 4.67578125 57.3515625 C4.051875 56.805 3.42796875 56.2584375 2.78515625 55.6953125 C0.87698796 54.58252626 0.87698796 54.58252626 -1.43359375 55.5703125 C-2.74070312 56.20453125 -2.74070312 56.20453125 -4.07421875 56.8515625 C-12.36926086 60.04719348 -22.09699921 60.32879839 -30.51171875 57.2890625 C-40.36684341 52.60705975 -45.68491561 45.33681387 -49.38671875 35.2890625 C-51.29727815 25.73626551 -49.49150336 17.37771194 -44.38671875 9.1015625 C-34.00125674 -5.44836695 -15.47258598 -8.56674252 0 0 Z " fill="#FAFCFA" transform="translate(184.07421875,126.1484375)"></path><path d="M0 0 C1.85334961 -0.01522705 1.85334961 -0.01522705 3.74414062 -0.03076172 C11.39725232 0.04207621 18.06167011 0.99848187 25.3125 3.4375 C27.06046875 4.00210938 27.06046875 4.00210938 28.84375 4.578125 C52.36342303 13.36705545 68.20470226 30.10837691 78.54296875 52.64697266 C80.41398191 57.00040239 81.59216412 60.68320988 81.3125 65.4375 C77.04633684 66.57514351 73.74763689 67.4375 69.3125 67.4375 C68.94898438 66.47070312 68.58546875 65.50390625 68.2109375 64.5078125 C60.98681324 45.63955658 49.88293168 29.61653167 31.3125 20.4375 C23.02439789 16.93661555 14.40000269 13.53681697 5.3125 13.4375 C4.42949219 13.38851562 3.54648437 13.33953125 2.63671875 13.2890625 C-15.85794228 12.65216027 -33.53081462 18.97002002 -47.39453125 31.21875 C-59.79896351 43.22167594 -66.63559916 56.7028201 -70.6875 73.4375 C-72.31240954 73.46448189 -73.93744633 73.48388757 -75.5625 73.5 C-76.91988281 73.51740234 -76.91988281 73.51740234 -78.3046875 73.53515625 C-80.6875 73.4375 -80.6875 73.4375 -82.6875 72.4375 C-82.2507704 52.62585732 -70.91457478 34.89397367 -57 21.44140625 C-48.48711501 14.06453125 -39.16391966 8.57524558 -28.6875 4.4375 C-27.72714844 4.02371094 -26.76679688 3.60992187 -25.77734375 3.18359375 C-17.29412519 0.10561179 -8.95049911 0.05271597 0 0 Z " fill="#FBFCFA" transform="translate(316.6875,165.5625)"></path><path d="M0 0 C0.42410156 0.95519531 0.84820312 1.91039062 1.28515625 2.89453125 C10.5174777 23.38656002 22.52818521 38.44866802 43.8125 46.9375 C53.62631135 50.37824591 62.59708391 51.39400489 73 52 C73.495 58.435 73.495 58.435 74 65 C50.35575159 66.00613823 29.8188975 58.50633567 12 43 C11.18015625 42.29230469 10.3603125 41.58460938 9.515625 40.85546875 C-1.1725858 30.92280389 -9.94914219 16.52690946 -12 2 C-7.84055256 0.69507531 -4.34963091 -0.12019705 0 0 Z " fill="#FAFCFA" transform="translate(247,269)"></path><path d="M0 0 C5.65773907 3.14690812 8.96574059 5.84622043 11.328125 11.90625 C12.97007138 17.83248033 12.47668115 22.34211512 9.6953125 27.828125 C6.78283682 32.25508803 3.15150458 34.99456021 -1.546875 37.34375 C-7.46689966 38.40935444 -12.6033973 37.80632558 -17.921875 34.90625 C-22.95975758 31.39988372 -25.95643363 26.63540898 -27.11328125 20.60546875 C-27.41158648 15.03389686 -26.04939237 10.35970781 -22.671875 5.90625 C-16.08795127 -0.18752246 -8.79082574 -3.59858363 0 0 Z " fill="#377E21" transform="translate(173.671875,340.09375)"></path><path d="M0 0 C3.95478251 2.91900614 7.41112181 6.50974362 9.625 10.9375 C10.31853815 17.93232768 10.67297204 24.46808365 6.30078125 30.28125 C1.98802032 34.54374566 -2.82701622 37.17284111 -8.9375 37.5 C-15.11551342 37.10107069 -20.15247074 34.63667785 -24.25 30 C-28.15637806 24.37021986 -29.24903928 19.72549339 -28.375 12.9375 C-26.74559873 6.92293154 -23.2855716 3.20308641 -18.01171875 0.00390625 C-12.08661124 -2.39247056 -5.99843131 -1.88839504 0 0 Z " fill="#468C29" transform="translate(175.375,136.0625)"></path><path d="M0 0 C4.8463931 3.68840537 7.62661683 6.93307938 8.49609375 13.046875 C8.77929931 19.26023325 8.10797342 24.50977817 4.125 29.4375 C-0.09769635 33.45379164 -4.10642923 35.79336566 -10 36 C-16.35259639 35.54764794 -20.91642655 33.79595236 -25.1875 29 C-29.83840211 23.30423769 -30.5785558 18.69219834 -29.875 11.4375 C-28.06316443 5.66227411 -23.75378048 1.83672709 -18.875 -1.5625 C-12.40270347 -3.78009961 -5.84295317 -3.63132296 0 0 Z " fill="#3A8122" transform="translate(125.875,239.5625)"></path><path d="M0 0 C29.7 0 59.4 0 90 0 C90 3.96 90 7.92 90 12 C60.3 12 30.6 12 0 12 C0 8.04 0 4.08 0 0 Z " fill="#FEFEFE" transform="translate(339,250)"></path><path d="M0 0 C1.6254308 0.14095064 3.25034051 0.28792087 4.875 0.4375 C5.77992188 0.51871094 6.68484375 0.59992188 7.6171875 0.68359375 C10 1 10 1 12 2 C11.70066822 9.59975807 9.91406116 15.65378521 6.8125 22.5625 C6.43802734 23.44357422 6.06355469 24.32464844 5.67773438 25.23242188 C3.03512223 31.27076835 -0.17327103 36.63865711 -4 42 C-8.08105062 40.45657029 -11.41572782 38.50065501 -15 36 C-13.6554673 32.40078938 -12.01212684 29.03354382 -10.23242188 25.63085938 C-5.89342602 17.30160939 -2.68932641 8.9988999 0 0 Z " fill="#F9FBF8" transform="translate(413,269)"></path><path d="M0 0 C7.20596089 7.20596089 9.09691112 21.6113128 9.125 31.625 C9.08375 33.06875 9.0425 34.5125 9 36 C4.71 36 0.42 36 -4 36 C-4.18175781 34.90042969 -4.36351562 33.80085938 -4.55078125 32.66796875 C-5.83644168 25.05489302 -7.18471225 17.59660666 -9.44921875 10.19921875 C-10 8 -10 8 -10 4 C-6.7 2.68 -3.4 1.36 0 0 Z " fill="#F7FAF6" transform="translate(419,205)"></path></svg>