<svg version="1.1" xmlns="http://www.w3.org/2000/svg" width="16px" height="16px" fill="currentColor" viewBox="0 0 512 512"><path d="M0 0 C168.96 0 337.92 0 512 0 C512 168.96 512 337.92 512 512 C343.04 512 174.08 512 0 512 C0 343.04 0 174.08 0 0 Z " fill="#438A26" transform="translate(0,0)"></path><path d="M0 0 C0.85428589 -0.0004985 1.70857178 -0.00099701 2.58874512 -0.00151062 C4.39431078 0.0008291 6.19987975 0.01055168 8.00537109 0.02709961 C10.77080415 0.05069213 13.53527313 0.04765993 16.30078125 0.04101562 C18.05469325 0.04659247 19.80860119 0.05370239 21.5625 0.0625 C22.80477356 0.06113289 22.80477356 0.06113289 24.07214355 0.05973816 C27.97916331 0.10804764 29.95841382 0.14805713 33.28125 2.36328125 C33.79296875 5.40234375 33.79296875 5.40234375 33.96875 8.98828125 C34.03449219 10.17679688 34.10023438 11.3653125 34.16796875 12.58984375 C34.22404297 13.96269531 34.22404297 13.96269531 34.28125 15.36328125 C36.23774397 16.20092393 38.19650556 17.03327184 40.15625 17.86328125 C41.79207031 18.559375 41.79207031 18.559375 43.4609375 19.26953125 C46.08786929 20.48380581 46.08786929 20.48380581 48.28125 20.36328125 C49.24239391 19.25449174 50.1519554 18.10053774 51.03125 16.92578125 C53.08890012 14.49536843 54.22703479 13.38921027 57.15625 11.98828125 C60.6753596 12.4105744 61.3105563 12.9815821 63.85546875 15.2890625 C64.55833008 15.92618164 65.26119141 16.56330078 65.98535156 17.21972656 C70.11287446 21.07336874 74.19168753 24.96713219 78.21875 28.92578125 C79.08048828 29.75013672 79.94222656 30.57449219 80.83007812 31.42382812 C81.64798828 32.23013672 82.46589844 33.03644531 83.30859375 33.8671875 C84.04843506 34.58720947 84.78827637 35.30723145 85.55053711 36.04907227 C87.67514584 38.88997595 88.14710441 40.83451512 88.28125 44.36328125 C85.88730097 47.82120762 83.77868496 50.03165794 80.28125 52.36328125 C80.6834375 53.29140625 80.6834375 53.29140625 81.09375 54.23828125 C82.7296287 58.54322518 83.99396326 62.94359677 85.28125 67.36328125 C86.65410156 67.31107422 86.65410156 67.31107422 88.0546875 67.2578125 C89.24320313 67.23074219 90.43171875 67.20367187 91.65625 67.17578125 C92.83960938 67.14097656 94.02296875 67.10617187 95.2421875 67.0703125 C96.24507812 67.16699219 97.24796875 67.26367188 98.28125 67.36328125 C100.87874344 71.25952141 100.58700629 74.56128746 100.58203125 79.08203125 C100.58631638 79.93631714 100.5906015 80.79060303 100.59501648 81.67077637 C100.60075746 83.47630934 100.60126174 85.28186545 100.59692383 87.08740234 C100.59376182 89.85293898 100.61723227 92.61740799 100.64257812 95.3828125 C100.6448509 97.1367174 100.64555471 98.89062518 100.64453125 100.64453125 C100.653741 101.47271362 100.66295074 102.300896 100.67243958 103.1541748 C100.62582127 108.92383985 100.62582127 108.92383985 98.94035339 111.07336426 C96.45157976 113.00833191 94.19739971 112.88391836 91.09375 113.05078125 C89.175625 113.15390625 87.2575 113.25703125 85.28125 113.36328125 C82.80625 119.79828125 82.80625 119.79828125 80.28125 126.36328125 C82.01375 127.87921875 82.01375 127.87921875 83.78125 129.42578125 C86.53871395 131.8385622 87.22056809 132.91435687 87.71923828 136.60351562 C87.16282053 141.3798999 85.1195229 143.52386619 81.8046875 146.734375 C81.24182037 147.30156754 80.67895325 147.86876007 80.09902954 148.45314026 C78.90865664 149.6438935 77.70955933 150.82598107 76.50244141 151.99975586 C74.65992874 153.79719251 72.85467754 155.62679068 71.05078125 157.46289062 C69.88748269 158.61796987 68.72218179 159.77103675 67.5546875 160.921875 C67.01693695 161.46863388 66.4791864 162.01539276 65.92514038 162.57872009 C63.28302546 165.10835724 61.69135585 166.30845509 58.02148438 166.79907227 C54.69266601 166.26967626 53.6273781 165.35094472 51.40625 162.86328125 C50.51292969 161.88875 50.51292969 161.88875 49.6015625 160.89453125 C49.16585937 160.38921875 48.73015625 159.88390625 48.28125 159.36328125 C47.70117188 159.56824219 47.12109375 159.77320313 46.5234375 159.984375 C45.74226563 160.25378906 44.96109375 160.52320313 44.15625 160.80078125 C43.39054687 161.06761719 42.62484375 161.33445312 41.8359375 161.609375 C39.00413215 162.44506068 36.19903007 162.92772857 33.28125 163.36328125 C33.32765625 164.26691406 33.3740625 165.17054688 33.421875 166.1015625 C33.45796875 167.28105469 33.4940625 168.46054687 33.53125 169.67578125 C33.57765625 170.84753906 33.6240625 172.01929688 33.671875 173.2265625 C33.28125 176.36328125 33.28125 176.36328125 31.77832031 178.03222656 C28.23543014 179.92075191 24.85694647 179.81169981 20.9375 179.796875 C20.13139282 179.80211685 19.32528564 179.8073587 18.49475098 179.8127594 C16.79355011 179.81917153 15.09230486 179.81785304 13.39111328 179.80932617 C10.78988726 179.80080953 8.19085326 179.8295965 5.58984375 179.86132812 C3.93489649 179.86294014 2.27994535 179.8623626 0.625 179.859375 C-0.15113647 179.87060898 -0.92727295 179.88184296 -1.72692871 179.89341736 C-5.27090891 179.84772197 -7.32665332 179.65260014 -10.21582031 177.52075195 C-12.25135798 174.59871713 -12.12191505 172.63607747 -11.96875 169.11328125 C-11.93265625 168.035625 -11.8965625 166.95796875 -11.859375 165.84765625 C-11.81296875 165.0278125 -11.7665625 164.20796875 -11.71875 163.36328125 C-12.47027344 163.23179687 -13.22179687 163.1003125 -13.99609375 162.96484375 C-16.71875 162.36328125 -16.71875 162.36328125 -20.28125 160.73828125 C-23.44020699 159.2278784 -23.44020699 159.2278784 -25.90625 159.36328125 C-27.96685689 160.33257344 -27.96685689 160.33257344 -29.53125 162.86328125 C-31.71875 165.36328125 -31.71875 165.36328125 -34.96875 166.61328125 C-39.05084828 166.34114136 -39.51431593 166.04158181 -42.36328125 163.4296875 C-43.06050293 162.79208496 -43.75772461 162.15448242 -44.47607422 161.49755859 C-48.42680823 157.73778102 -52.30934147 153.9165935 -56.15625 150.05078125 C-56.97029297 149.24060547 -57.78433594 148.43042969 -58.62304688 147.59570312 C-59.78223633 146.43458008 -59.78223633 146.43458008 -60.96484375 145.25 C-61.66279053 144.55092529 -62.3607373 143.85185059 -63.07983398 143.1315918 C-65.15286994 140.89488698 -65.66977004 139.63267103 -66.21875 136.61328125 C-65.55008466 132.26695654 -63.62010072 131.07265978 -60.25 128.46484375 C-59.7446875 128.10132813 -59.239375 127.7378125 -58.71875 127.36328125 C-59.37146556 123.84622167 -60.23268024 120.47003048 -61.28125 117.05078125 C-61.55066406 116.16777344 -61.82007813 115.28476562 -62.09765625 114.375 C-62.30261719 113.71113281 -62.50757813 113.04726563 -62.71875 112.36328125 C-63.53859375 112.4096875 -64.3584375 112.45609375 -65.203125 112.50390625 C-66.28078125 112.54 -67.3584375 112.57609375 -68.46875 112.61328125 C-69.53609375 112.6596875 -70.6034375 112.70609375 -71.703125 112.75390625 C-74.71875 112.36328125 -74.71875 112.36328125 -76.8762207 110.8762207 C-79.48366324 107.32005189 -79.27432386 104.00742843 -79.21484375 99.765625 C-79.21629898 98.9349501 -79.21775421 98.10427521 -79.21925354 97.24842834 C-79.21759638 95.49590541 -79.20605548 93.74336764 -79.18530273 91.9909668 C-79.15631178 89.30650183 -79.16470375 86.62400776 -79.17773438 83.93945312 C-79.1714978 82.23566748 -79.16310749 80.53188806 -79.15234375 78.828125 C-79.15527939 78.02495346 -79.15821503 77.22178192 -79.16123962 76.39427185 C-79.06786909 70.89067392 -79.06786909 70.89067392 -77.38769531 68.35253906 C-74.6707025 66.74205708 -72.13585843 67.08356516 -69.03125 67.17578125 C-67.26201172 67.21638672 -67.26201172 67.21638672 -65.45703125 67.2578125 C-64.55339844 67.29261719 -63.64976562 67.32742188 -62.71875 67.36328125 C-62.58597656 66.47382813 -62.45320313 65.584375 -62.31640625 64.66796875 C-61.79739301 61.79813084 -61.11310836 59.23404871 -60.15625 56.48828125 C-59.88683594 55.70710938 -59.61742187 54.9259375 -59.33984375 54.12109375 C-59.13488281 53.54101562 -58.92992187 52.9609375 -58.71875 52.36328125 C-59.2240625 51.92757812 -59.729375 51.491875 -60.25 51.04296875 C-60.8996875 50.44742188 -61.549375 49.851875 -62.21875 49.23828125 C-62.8684375 48.65820312 -63.518125 48.078125 -64.1875 47.48046875 C-66.32897652 44.51954969 -66.20126763 42.97256716 -65.71875 39.36328125 C-63.96837189 37.00352893 -62.34790543 35.12629112 -60.27734375 33.08984375 C-59.7168483 32.52123627 -59.15635284 31.95262878 -58.57887268 31.36679077 C-57.39167563 30.17114586 -56.19679524 28.98308758 -54.99487305 27.80224609 C-53.16356946 25.99550255 -51.36954096 24.15681287 -49.57617188 22.3125 C-48.41615366 21.15285231 -47.25410756 19.99522889 -46.08984375 18.83984375 C-45.55725449 18.28994781 -45.02466522 17.74005188 -44.47593689 17.17349243 C-41.59265577 14.39465839 -39.9834096 13.39411237 -35.95898438 12.92529297 C-32.26982562 13.42396316 -31.19403095 14.1058173 -28.78125 16.86328125 C-28.19472656 17.51296875 -27.60820312 18.16265625 -27.00390625 18.83203125 C-26.57980469 19.33734375 -26.15570313 19.84265625 -25.71875 20.36328125 C-24.87570313 20.00234375 -24.03265625 19.64140625 -23.1640625 19.26953125 C-22.06835938 18.80546875 -20.97265625 18.34140625 -19.84375 17.86328125 C-18.75320312 17.39921875 -17.66265625 16.93515625 -16.5390625 16.45703125 C-13.71875 15.36328125 -13.71875 15.36328125 -11.71875 15.36328125 C-11.77095703 14.11611328 -11.77095703 14.11611328 -11.82421875 12.84375 C-11.85128906 11.75707031 -11.87835938 10.67039062 -11.90625 9.55078125 C-11.94105469 8.47183594 -11.97585937 7.39289063 -12.01171875 6.28125 C-11.71875 3.36328125 -11.71875 3.36328125 -10.44250488 1.70417786 C-7.43126133 -0.63824699 -3.6617794 -0.04072058 0 0 Z " fill="#3B8222" transform="translate(197.71875,245.63671875)"></path><path d="M0 0 C1.24457726 -0.00786278 1.24457726 -0.00786278 2.51429749 -0.0158844 C4.26855348 -0.02230571 6.02285253 -0.02096615 7.77709961 -0.01245117 C10.45960325 -0.00394763 13.1399728 -0.03268816 15.82226562 -0.06445312 C17.52734311 -0.06606542 19.23242437 -0.06548706 20.9375 -0.0625 C21.73864731 -0.07373398 22.53979462 -0.08496796 23.36521912 -0.09654236 C26.8292942 -0.0532603 29.11511816 0.15989362 32.0480957 2.07104492 C33.98303681 5.14515838 33.99407697 7.11079547 33.92578125 10.73046875 C33.91289062 11.93574219 33.9 13.14101562 33.88671875 14.3828125 C33.85320312 15.63707031 33.8196875 16.89132813 33.78515625 18.18359375 C33.76710938 19.45332031 33.7490625 20.72304687 33.73046875 22.03125 C33.68332778 25.16612452 33.61753289 28.29947935 33.53515625 31.43359375 C34.11483154 31.41264648 34.69450684 31.39169922 35.29174805 31.37011719 C37.93520549 31.28662568 40.57838505 31.23483222 43.22265625 31.18359375 C44.59067383 31.13332031 44.59067383 31.13332031 45.98632812 31.08203125 C47.31567383 31.06269531 47.31567383 31.06269531 48.671875 31.04296875 C49.48358154 31.02202148 50.29528809 31.00107422 51.1315918 30.97949219 C54.63043 31.64052206 56.15712991 32.78647495 58.53515625 35.43359375 C58.98227007 38.32204516 59.12300344 40.60636442 59.0234375 43.48046875 C59.01282539 44.63727142 59.01282539 44.63727142 59.0019989 45.81744385 C58.97407203 48.27382587 58.91134364 50.72790426 58.84765625 53.18359375 C58.82257086 54.85152951 58.7997581 56.51950111 58.77929688 58.1875 C58.72425187 62.27041502 58.63799682 66.35161424 58.53515625 70.43359375 C60.84515625 70.43359375 63.15515625 70.43359375 65.53515625 70.43359375 C65.51159058 69.13941528 65.51159058 69.13941528 65.48754883 67.8190918 C65.4363967 64.61550108 65.39879465 61.4121186 65.37036133 58.20825195 C65.35528228 56.82211456 65.33481575 55.43602481 65.30883789 54.05004883 C65.27241909 52.05701229 65.25702607 50.06362652 65.2421875 48.0703125 C65.21862183 46.27146606 65.21862183 46.27146606 65.19458008 44.4362793 C65.53515625 41.43359375 65.53515625 41.43359375 66.53808594 39.54370117 C69.77786107 37.74281394 73.16992166 38.00708694 76.78125 38.03515625 C77.58877213 38.03228607 78.39629425 38.02941589 79.22828674 38.02645874 C80.9354828 38.02441811 82.64270224 38.02994797 84.34985352 38.04248047 C86.95968118 38.05851404 89.56795536 38.04264335 92.17773438 38.0234375 C93.837243 38.02542034 95.49675065 38.02926487 97.15625 38.03515625 C97.93552353 38.02908356 98.71479706 38.02301086 99.51768494 38.01675415 C102.64120811 38.0571732 105.16370856 38.26860668 108.03442383 39.54370117 C110.27061446 42.35976619 109.98790048 44.51398636 109.92578125 48.0703125 C109.91289062 49.36904297 109.9 50.66777344 109.88671875 52.00585938 C109.85329726 53.37761478 109.81943748 54.74935956 109.78515625 56.12109375 C109.76509001 57.50453187 109.74683944 58.88799759 109.73046875 60.27148438 C109.68325389 63.65915074 109.61150995 67.04645886 109.53515625 70.43359375 C113.82515625 70.43359375 118.11515625 70.43359375 122.53515625 70.43359375 C122.48875 68.45875 122.44234375 66.48390625 122.39453125 64.44921875 C122.35701637 61.86069218 122.32061591 59.27214929 122.28515625 56.68359375 C122.25164062 55.38164062 122.218125 54.0796875 122.18359375 52.73828125 C122.17070312 51.48789063 122.1578125 50.2375 122.14453125 48.94921875 C122.12358398 47.79711914 122.10263672 46.64501953 122.08105469 45.45800781 C122.53515625 42.43359375 122.53515625 42.43359375 124.03808594 40.05957031 C127.55626063 37.76869786 130.81475716 37.85994514 134.87890625 37.90234375 C136.08806702 37.89660339 136.08806702 37.89660339 137.32165527 37.89074707 C139.02288057 37.88802985 140.72414778 37.89537785 142.42529297 37.91210938 C145.02666521 37.93352385 147.62527597 37.91230356 150.2265625 37.88671875 C151.8815165 37.88936206 153.53646879 37.89448712 155.19140625 37.90234375 C155.96754272 37.89424683 156.7436792 37.8861499 157.54333496 37.87780762 C160.87193371 37.93549276 163.03578909 38.05947177 165.74049377 40.08581543 C168.03477067 43.08718957 168.03628795 44.76191716 168.03686523 48.515625 C168.04624619 49.74369873 168.05562714 50.97177246 168.06529236 52.23706055 C168.05481396 53.57341204 168.04344494 54.90975681 168.03125 56.24609375 C168.03140503 57.62085039 168.0328947 58.99560746 168.03565979 60.37036133 C168.03704299 63.2487322 168.02450001 66.1266043 168.00170898 69.00488281 C167.97332375 72.69048705 167.97606231 76.3752628 167.9887991 80.06092834 C167.99576121 82.89887543 167.98796108 85.73663173 167.97554207 88.57455444 C167.97103268 89.9332913 167.9706863 91.29204867 167.97460747 92.65078735 C167.97752453 94.55108013 167.95883516 96.45136884 167.93920898 98.3515625 C167.933806 99.43203857 167.92840302 100.51251465 167.9228363 101.62573242 C167.48237721 104.81585798 166.84754065 106.20820662 164.53515625 108.43359375 C161.50648651 108.83833277 158.84623145 108.99446556 155.81640625 108.96484375 C154.53497742 108.97058411 154.53497742 108.97058411 153.22766113 108.97644043 C151.42210715 108.9791615 149.61651388 108.9717866 147.81103516 108.95507812 C145.04500569 108.93366998 142.28157354 108.95487179 139.515625 108.98046875 C137.76171301 108.97782551 136.00780264 108.9727006 134.25390625 108.96484375 C133.01163269 108.97698914 133.01163269 108.97698914 131.7442627 108.98937988 C126.08033411 108.89674208 126.08033411 108.89674208 123.50854492 106.71191406 C122.39145036 104.09723475 122.19024999 102.2884692 122.2421875 99.44921875 C122.25185547 98.51464844 122.26152344 97.58007812 122.27148438 96.6171875 C122.29662109 95.64910156 122.32175781 94.68101562 122.34765625 93.68359375 C122.36119141 92.70003906 122.37472656 91.71648437 122.38867188 90.703125 C122.42396428 88.27971298 122.47776966 85.85658326 122.53515625 83.43359375 C118.24515625 83.43359375 113.95515625 83.43359375 109.53515625 83.43359375 C109.56996094 84.98691406 109.60476563 86.54023438 109.640625 88.140625 C109.66876065 90.17577046 109.69606105 92.21092758 109.72265625 94.24609375 C109.74779297 95.27025391 109.77292969 96.29441406 109.79882812 97.34960938 C109.81333008 98.82397461 109.81333008 98.82397461 109.828125 100.328125 C109.85169067 101.68707886 109.85169067 101.68707886 109.87573242 103.07348633 C109.45997012 105.95461476 108.77262265 106.63746146 106.53515625 108.43359375 C103.62891907 108.73194842 100.94146322 108.85392003 98.03515625 108.83203125 C96.78702148 108.83633652 96.78702148 108.83633652 95.51367188 108.84072876 C93.75520141 108.84276937 91.99670824 108.83723968 90.23828125 108.82470703 C87.54505712 108.80865277 84.85333365 108.8245552 82.16015625 108.84375 C80.4518196 108.84176757 78.74348389 108.83792389 77.03515625 108.83203125 C76.22884766 108.83810394 75.42253906 108.84417664 74.59179688 108.85043335 C68.96616195 108.77958476 68.96616195 108.77958476 66.82011414 107.05683899 C65.01633271 104.77818096 65.19228456 103.20586129 65.2421875 100.328125 C65.25185547 99.34521484 65.26152344 98.36230469 65.27148438 97.34960938 C65.29662109 96.32544922 65.32175781 95.30128906 65.34765625 94.24609375 C65.36119141 93.21033203 65.37472656 92.17457031 65.38867188 91.10742188 C65.42404236 88.54895676 65.47340081 85.99153595 65.53515625 83.43359375 C63.22515625 83.43359375 60.91515625 83.43359375 58.53515625 83.43359375 C58.55872192 85.00040894 58.55872192 85.00040894 58.58276367 86.59887695 C58.63705322 90.47331027 58.67150255 94.34770994 58.69995117 98.22241211 C58.71504009 99.89955295 58.73551373 101.57665432 58.76147461 103.25366211 C58.79785436 105.66399879 58.81488111 108.07381394 58.828125 110.484375 C58.84360886 111.23447342 58.85909271 111.98457184 58.87504578 112.75740051 C58.87598911 115.67365466 58.87088079 117.87970295 57.3359375 120.41210938 C54.91528501 121.78521269 53.20685571 121.77472149 50.4296875 121.7265625 C49.44677734 121.71689453 48.46386719 121.70722656 47.45117188 121.69726562 C46.42701172 121.67212891 45.40285156 121.64699219 44.34765625 121.62109375 C43.31189453 121.60755859 42.27613281 121.59402344 41.20898438 121.58007812 C38.65051926 121.54470764 36.09309845 121.49534919 33.53515625 121.43359375 C33.56134033 122.04356201 33.58752441 122.65353027 33.61450195 123.28198242 C33.71881344 126.06142133 33.78358607 128.84044814 33.84765625 131.62109375 C33.88955078 132.58080078 33.93144531 133.54050781 33.97460938 134.52929688 C33.99072266 135.46064453 34.00683594 136.39199219 34.0234375 137.3515625 C34.04962158 138.20516357 34.07580566 139.05876465 34.1027832 139.93823242 C33.24079049 143.72766362 31.62436222 145.13312122 28.53515625 147.43359375 C25.59324016 147.92105308 23.24441232 148.11439138 20.3125 148.0625 C19.13875572 148.06611794 19.13875572 148.06611794 17.94129944 148.06980896 C16.29308993 148.06883264 14.64484677 148.05549003 12.99682617 148.03051758 C10.47656862 147.99614711 7.95980838 148.00988117 5.43945312 148.02929688 C3.83462053 148.02239947 2.22979695 148.01272803 0.625 148 C-0.12612564 148.00495987 -0.87725128 148.00991974 -1.65113831 148.01502991 C-5.04125995 147.93880301 -7.12644235 147.66684199 -9.94604492 145.72338867 C-11.77041789 142.97289936 -11.93170767 141.50874232 -11.85546875 138.23046875 C-11.84257812 137.25078125 -11.8296875 136.27109375 -11.81640625 135.26171875 C-11.78289062 134.2459375 -11.749375 133.23015625 -11.71484375 132.18359375 C-11.69679687 131.15234375 -11.67875 130.12109375 -11.66015625 129.05859375 C-11.61308098 126.51652925 -11.54133921 123.97494308 -11.46484375 121.43359375 C-15.75484375 121.43359375 -20.04484375 121.43359375 -24.46484375 121.43359375 C-24.4184375 122.9753125 -24.37203125 124.51703125 -24.32421875 126.10546875 C-24.28669982 128.13149105 -24.25029979 130.1575343 -24.21484375 132.18359375 C-24.16457031 133.70726562 -24.16457031 133.70726562 -24.11328125 135.26171875 C-24.10039062 136.24140625 -24.0875 137.22109375 -24.07421875 138.23046875 C-24.05327148 139.13120117 -24.03232422 140.03193359 -24.01074219 140.95996094 C-24.46484375 143.43359375 -24.46484375 143.43359375 -25.96777344 145.72558594 C-29.47278181 148.12302812 -32.70714287 148.0076315 -36.80859375 147.96484375 C-37.61470093 147.96867065 -38.42080811 147.97249756 -39.25134277 147.97644043 C-40.95256807 147.97915765 -42.65383528 147.97180965 -44.35498047 147.95507812 C-46.95635271 147.93366365 -49.55496347 147.95488394 -52.15625 147.98046875 C-53.811204 147.97782544 -55.46615629 147.97270038 -57.12109375 147.96484375 C-57.89723022 147.97294067 -58.6733667 147.9810376 -59.47302246 147.98937988 C-62.79728599 147.93176987 -64.96463732 147.8073794 -67.66819763 145.78710938 C-69.97510637 142.7651755 -69.97696176 141.03880323 -69.99829102 137.25976562 C-70.01412735 136.01167114 -70.02996368 134.76357666 -70.04627991 133.47766113 C-70.04243858 132.1192182 -70.03739961 130.7607782 -70.03125 129.40234375 C-70.03648636 128.00516343 -70.04276289 126.60798665 -70.05003357 125.21081543 C-70.06043341 122.28539369 -70.05588257 119.36045851 -70.04125977 116.43505859 C-70.02406441 112.68860805 -70.04757552 108.94369012 -70.08274937 105.19741058 C-70.10472341 102.31310898 -70.1032823 99.42917423 -70.09498405 96.54481506 C-70.09416465 95.16372495 -70.10102623 93.78260788 -70.11575508 92.40159607 C-70.13319716 90.47027214 -70.11534104 88.53872719 -70.09594727 86.60742188 C-70.0949855 85.50918091 -70.09402374 84.41093994 -70.09303284 83.27941895 C-69.46484375 80.43359375 -69.46484375 80.43359375 -67.15672302 78.08007812 C-63.61651732 75.91471602 -60.52587528 75.85728194 -56.49609375 75.90234375 C-55.73816528 75.89851685 -54.98023682 75.89468994 -54.19934082 75.89074707 C-52.60244411 75.8880342 -51.00550249 75.89535172 -49.40869141 75.91210938 C-46.97196881 75.93353111 -44.53819399 75.91228986 -42.1015625 75.88671875 C-40.54556645 75.88936214 -38.98957222 75.89448736 -37.43359375 75.90234375 C-36.34745789 75.89019836 -36.34745789 75.89019836 -35.23937988 75.87780762 C-31.7840847 75.94148188 -29.54228192 76.39116362 -26.49731445 78.05957031 C-23.82674454 81.17892428 -23.8840785 82.87992274 -23.9765625 86.94921875 C-24.00073242 88.82480469 -24.00073242 88.82480469 -24.02539062 90.73828125 C-24.08823242 92.69121094 -24.08823242 92.69121094 -24.15234375 94.68359375 C-24.17490234 96.00101562 -24.19746094 97.3184375 -24.22070312 98.67578125 C-24.27963588 101.92886956 -24.36931511 105.18137437 -24.46484375 108.43359375 C-20.17484375 108.43359375 -15.88484375 108.43359375 -11.46484375 108.43359375 C-11.51125 106.45875 -11.55765625 104.48390625 -11.60546875 102.44921875 C-11.64298363 99.86069218 -11.67938409 97.27214929 -11.71484375 94.68359375 C-11.76511719 92.73066406 -11.76511719 92.73066406 -11.81640625 90.73828125 C-11.82929688 89.48789063 -11.8421875 88.2375 -11.85546875 86.94921875 C-11.87641602 85.79711914 -11.89736328 84.64501953 -11.91894531 83.45800781 C-11.46484375 80.43359375 -11.46484375 80.43359375 -9.94604492 78.06176758 C-6.50410614 75.803154 -3.36160419 75.84086296 0.625 75.8671875 C1.40653946 75.86098892 2.18807892 75.85479034 2.99330139 75.84840393 C4.64322669 75.84131272 6.29322365 75.8444677 7.94311523 75.85717773 C10.46147065 75.87103221 12.9760997 75.83698399 15.49414062 75.79882812 C17.10026132 75.79787673 18.70638665 75.79973684 20.3125 75.8046875 C21.06160141 75.79142929 21.81070282 75.77817108 22.58250427 75.76451111 C26.41109738 75.83233724 28.38244685 76.32407287 31.51855469 78.57324219 C33.92622825 81.98829104 34.12155478 83.68757564 34.0234375 87.828125 C34.00732422 89.03017578 33.99121094 90.23222656 33.97460938 91.47070312 C33.93271484 92.71658203 33.89082031 93.96246094 33.84765625 95.24609375 C33.82509766 96.51130859 33.80253906 97.77652344 33.77929688 99.08007812 C33.72046017 102.19842354 33.63078306 105.31615964 33.53515625 108.43359375 C37.49515625 108.43359375 41.45515625 108.43359375 45.53515625 108.43359375 C45.53515625 87.64359375 45.53515625 66.85359375 45.53515625 45.43359375 C41.57515625 45.43359375 37.61515625 45.43359375 33.53515625 45.43359375 C33.5815625 46.81933594 33.62796875 48.20507812 33.67578125 49.6328125 C33.71330752 51.46221799 33.74970676 53.29164684 33.78515625 55.12109375 C33.81867188 56.03310547 33.8521875 56.94511719 33.88671875 57.88476562 C33.90605469 59.21411133 33.90605469 59.21411133 33.92578125 60.5703125 C33.95720215 61.78787231 33.95720215 61.78787231 33.98925781 63.0300293 C33.32402133 66.55113314 32.21501653 68.04976001 29.53515625 70.43359375 C26.47914448 70.92878528 23.98962528 71.11300971 20.9375 71.0625 C20.1068251 71.06491196 19.27615021 71.06732391 18.42030334 71.06980896 C16.6677675 71.06883113 14.91520052 71.05545245 13.1628418 71.03051758 C10.47793996 70.99616136 7.79632117 71.0098707 5.11132812 71.02929688 C3.40753806 71.02239959 1.70375648 71.01272826 0 71 C-1.20475731 71.0074398 -1.20475731 71.0074398 -2.43385315 71.01502991 C-7.98274251 70.8974964 -7.98274251 70.8974964 -10.17591858 68.78710938 C-11.82703527 65.77224938 -11.84558739 63.67668156 -11.85302734 60.24389648 C-11.86248383 58.99257431 -11.87194031 57.74125214 -11.88168335 56.45201111 C-11.87631406 55.09040001 -11.87016122 53.7287918 -11.86328125 52.3671875 C-11.86530281 50.96761422 -11.86821493 49.56804197 -11.87197876 48.16847229 C-11.87639685 45.23892157 -11.869987 42.30964568 -11.85595703 39.38012695 C-11.83884919 35.62495571 -11.84871904 31.87042698 -11.86667442 28.1152792 C-11.87751292 25.22678278 -11.87406599 22.33843882 -11.86629105 19.44993782 C-11.86429002 18.06524644 -11.86674493 16.68054122 -11.87372971 15.29586601 C-11.88134605 13.36187886 -11.86767946 11.42784314 -11.85302734 9.49389648 C-11.85064056 8.39343491 -11.84825378 7.29297333 -11.84579468 6.15916443 C-11.46484375 3.43359375 -11.46484375 3.43359375 -10.17591858 1.58007812 C-7.14112694 -0.45334621 -3.53450778 -0.01291883 0 0 Z " fill="#FBFCFA" transform="translate(152.46484375,89.56640625)"></path><path d="M0 0 C2.88085938 1.40527344 2.88085938 1.40527344 5.84375 3.359375 C6.92527344 4.06320313 8.00679688 4.76703125 9.12109375 5.4921875 C10.24759406 6.24449493 11.37389467 6.99710147 12.5 7.75 C13.62548571 8.4882253 14.75178184 9.2252166 15.87890625 9.9609375 C18.92870689 11.96021087 21.96688757 13.97552598 25 16 C26.08804932 16.67272949 27.17609863 17.34545898 28.29711914 18.03857422 C31 20 31 20 32.08984375 23.2734375 C31.97945732 27.85207478 30.70298715 30.65844754 28.5625 34.625 C26.32092922 38.87758 24.78983092 42.10583816 25 47 C25.56509277 47.2266333 26.13018555 47.4532666 26.71240234 47.68676758 C29.27061052 48.7190501 31.82275488 49.76556612 34.375 50.8125 C35.26445312 51.16892578 36.15390625 51.52535156 37.0703125 51.89257812 C37.92109375 52.24384766 38.771875 52.59511719 39.6484375 52.95703125 C40.43395996 53.27647705 41.21948242 53.59592285 42.02880859 53.92504883 C44 55 44 55 46 58 C45.38436196 65.15046257 43.39788088 72.10981964 41.6875 79.0625 C41.24374023 80.94291992 41.24374023 80.94291992 40.79101562 82.86132812 C37.73885424 95.26114576 37.73885424 95.26114576 33 100 C27.54446457 100.29757466 22.87827953 99.68615103 17.58984375 98.33984375 C14.2485895 97.90139862 11.30349496 98.4217873 8 99 C8.02618408 99.57967529 8.05236816 100.15935059 8.0793457 100.7565918 C8.18370612 103.39994875 8.24844327 106.04287199 8.3125 108.6875 C8.35439453 109.59951172 8.39628906 110.51152344 8.43945312 111.45117188 C8.52206219 115.9946703 8.50038622 118.28464641 5.8359375 122.09375 C1.21686587 125.19858051 -3.04287987 124.89225772 -8.48828125 124.96044922 C-11.52511727 125.00826876 -14.55828388 125.11995574 -17.59375 125.22265625 C-19.95825992 125.27674795 -22.32284842 125.32750271 -24.6875 125.375 C-25.84660889 125.41343018 -27.00571777 125.45186035 -28.19995117 125.49145508 C-29.83927612 125.50728638 -29.83927612 125.50728638 -31.51171875 125.5234375 C-32.49615967 125.54325684 -33.48060059 125.56307617 -34.49487305 125.58349609 C-37 125 -37 125 -38.78808594 122.70996094 C-40.36109613 119.19255298 -40.98084904 115.65401037 -41.5625 111.875 C-42.42502743 106.15427758 -42.42502743 106.15427758 -45 101 C-45.54527344 101.12117188 -46.09054687 101.24234375 -46.65234375 101.3671875 C-48.24057964 101.72012881 -49.82914634 102.07158345 -51.41796875 102.421875 C-53.08976289 102.79619502 -54.75926831 103.18095283 -56.42578125 103.578125 C-65.01013514 105.59797297 -65.01013514 105.59797297 -68 105 C-71.45035478 101.32542194 -73.30849016 97.38341295 -75.05078125 92.72265625 C-75.31384567 92.03368759 -75.5769101 91.34471893 -75.84794617 90.63487244 C-76.39791353 89.18520841 -76.94307294 87.73371211 -77.48364258 86.28051758 C-78.31113899 84.06614206 -79.16335644 81.8623848 -80.01757812 79.65820312 C-80.55100756 78.24276255 -81.08295929 76.82676403 -81.61328125 75.41015625 C-81.86837967 74.7568483 -82.12347809 74.10354034 -82.38630676 73.43043518 C-83.90680869 69.25785037 -84.41447511 66.25300331 -83 62 C-81.23413086 60.40087891 -81.23413086 60.40087891 -78.96484375 59.2265625 C-78.15595703 58.79472656 -77.34707031 58.36289063 -76.51367188 57.91796875 C-75.66353516 57.49128906 -74.81339844 57.06460938 -73.9375 56.625 C-73.08349609 56.17511719 -72.22949219 55.72523438 -71.34960938 55.26171875 C-69.24223255 54.15505159 -67.1265829 53.06916073 -65 52 C-65.54778891 45.0526454 -68.20713804 41.41892435 -72.28515625 35.96484375 C-74.27436624 32.52564014 -74.74059018 30.89975111 -74 27 C-72.01953125 24.55859375 -72.01953125 24.55859375 -69 22 C-68.38044434 21.47035645 -67.76088867 20.94071289 -67.12255859 20.39501953 C-64.9960583 18.59395743 -62.8454719 16.8256978 -60.6875 15.0625 C-59.6056543 14.17014648 -59.6056543 14.17014648 -58.50195312 13.25976562 C-57.05757479 12.07446861 -55.60691438 10.89678311 -54.14990234 9.72705078 C-52.71540272 8.57469439 -51.29370048 7.40622569 -49.88525391 6.22216797 C-46.81455031 3.73420432 -44.73969516 2.14902949 -40.8203125 1.359375 C-37.17688315 2.18696837 -35.54351482 3.65677243 -32.875 6.25 C-32.04742187 7.03890625 -31.21984375 7.8278125 -30.3671875 8.640625 C-28.84634133 10.15645188 -27.34440086 11.69162107 -25.8671875 13.25 C-23.62411784 15.35229123 -22.01235406 15.66529399 -19 16 C-18.7628125 15.45730469 -18.525625 14.91460937 -18.28125 14.35546875 C-16.66137928 11.37747472 -14.65257409 8.92983441 -12.5 6.3125 C-11.7059375 5.33925781 -10.911875 4.36601562 -10.09375 3.36328125 C-6.86454459 -0.28162411 -4.78519799 -0.40237198 0 0 Z " fill="#4F932F" transform="translate(387,190)"></path><path d="M0 0 C0.85428589 -0.0004985 1.70857178 -0.00099701 2.58874512 -0.00151062 C4.39431078 0.0008291 6.19987975 0.01055168 8.00537109 0.02709961 C10.77080415 0.05069213 13.53527313 0.04765993 16.30078125 0.04101562 C18.05469325 0.04659247 19.80860119 0.05370239 21.5625 0.0625 C22.80477356 0.06113289 22.80477356 0.06113289 24.07214355 0.05973816 C27.97916331 0.10804764 29.95841382 0.14805713 33.28125 2.36328125 C33.79296875 5.40234375 33.79296875 5.40234375 33.96875 8.98828125 C34.03449219 10.17679688 34.10023438 11.3653125 34.16796875 12.58984375 C34.22404297 13.96269531 34.22404297 13.96269531 34.28125 15.36328125 C36.23774397 16.20092393 38.19650556 17.03327184 40.15625 17.86328125 C41.79207031 18.559375 41.79207031 18.559375 43.4609375 19.26953125 C46.08786929 20.48380581 46.08786929 20.48380581 48.28125 20.36328125 C49.24239391 19.25449174 50.1519554 18.10053774 51.03125 16.92578125 C53.08890012 14.49536843 54.22703479 13.38921027 57.15625 11.98828125 C60.6753596 12.4105744 61.3105563 12.9815821 63.85546875 15.2890625 C64.55833008 15.92618164 65.26119141 16.56330078 65.98535156 17.21972656 C70.11287446 21.07336874 74.19168753 24.96713219 78.21875 28.92578125 C79.08048828 29.75013672 79.94222656 30.57449219 80.83007812 31.42382812 C81.64798828 32.23013672 82.46589844 33.03644531 83.30859375 33.8671875 C84.04843506 34.58720947 84.78827637 35.30723145 85.55053711 36.04907227 C87.67514584 38.88997595 88.14710441 40.83451512 88.28125 44.36328125 C85.88730097 47.82120762 83.77868496 50.03165794 80.28125 52.36328125 C80.6834375 53.29140625 80.6834375 53.29140625 81.09375 54.23828125 C82.7296287 58.54322518 83.99396326 62.94359677 85.28125 67.36328125 C86.65410156 67.31107422 86.65410156 67.31107422 88.0546875 67.2578125 C89.24320313 67.23074219 90.43171875 67.20367187 91.65625 67.17578125 C92.83960938 67.14097656 94.02296875 67.10617187 95.2421875 67.0703125 C96.24507812 67.16699219 97.24796875 67.26367188 98.28125 67.36328125 C100.87874344 71.25952141 100.58700629 74.56128746 100.58203125 79.08203125 C100.58631638 79.93631714 100.5906015 80.79060303 100.59501648 81.67077637 C100.60075746 83.47630934 100.60126174 85.28186545 100.59692383 87.08740234 C100.59376182 89.85293898 100.61723227 92.61740799 100.64257812 95.3828125 C100.6448509 97.1367174 100.64555471 98.89062518 100.64453125 100.64453125 C100.653741 101.47271362 100.66295074 102.300896 100.67243958 103.1541748 C100.62582127 108.92383985 100.62582127 108.92383985 98.94035339 111.07336426 C96.45157976 113.00833191 94.19739971 112.88391836 91.09375 113.05078125 C89.175625 113.15390625 87.2575 113.25703125 85.28125 113.36328125 C82.80625 119.79828125 82.80625 119.79828125 80.28125 126.36328125 C82.01375 127.87921875 82.01375 127.87921875 83.78125 129.42578125 C86.53871395 131.8385622 87.22056809 132.91435687 87.71923828 136.60351562 C87.16282053 141.3798999 85.1195229 143.52386619 81.8046875 146.734375 C81.24182037 147.30156754 80.67895325 147.86876007 80.09902954 148.45314026 C78.90865664 149.6438935 77.70955933 150.82598107 76.50244141 151.99975586 C74.65992874 153.79719251 72.85467754 155.62679068 71.05078125 157.46289062 C69.88748269 158.61796987 68.72218179 159.77103675 67.5546875 160.921875 C67.01693695 161.46863388 66.4791864 162.01539276 65.92514038 162.57872009 C63.28302546 165.10835724 61.69135585 166.30845509 58.02148438 166.79907227 C54.69266601 166.26967626 53.6273781 165.35094472 51.40625 162.86328125 C50.51292969 161.88875 50.51292969 161.88875 49.6015625 160.89453125 C49.16585937 160.38921875 48.73015625 159.88390625 48.28125 159.36328125 C47.70117188 159.56824219 47.12109375 159.77320313 46.5234375 159.984375 C45.74226563 160.25378906 44.96109375 160.52320313 44.15625 160.80078125 C43.39054687 161.06761719 42.62484375 161.33445312 41.8359375 161.609375 C39.00413215 162.44506068 36.19903007 162.92772857 33.28125 163.36328125 C33.32765625 164.26691406 33.3740625 165.17054688 33.421875 166.1015625 C33.45796875 167.28105469 33.4940625 168.46054687 33.53125 169.67578125 C33.57765625 170.84753906 33.6240625 172.01929688 33.671875 173.2265625 C33.28125 176.36328125 33.28125 176.36328125 31.77832031 178.03222656 C28.23543014 179.92075191 24.85694647 179.81169981 20.9375 179.796875 C20.13139282 179.80211685 19.32528564 179.8073587 18.49475098 179.8127594 C16.79355011 179.81917153 15.09230486 179.81785304 13.39111328 179.80932617 C10.78988726 179.80080953 8.19085326 179.8295965 5.58984375 179.86132812 C3.93489649 179.86294014 2.27994535 179.8623626 0.625 179.859375 C-0.15113647 179.87060898 -0.92727295 179.88184296 -1.72692871 179.89341736 C-5.27090891 179.84772197 -7.32665332 179.65260014 -10.21582031 177.52075195 C-12.25135798 174.59871713 -12.12191505 172.63607747 -11.96875 169.11328125 C-11.93265625 168.035625 -11.8965625 166.95796875 -11.859375 165.84765625 C-11.81296875 165.0278125 -11.7665625 164.20796875 -11.71875 163.36328125 C-12.47027344 163.23179687 -13.22179687 163.1003125 -13.99609375 162.96484375 C-16.71875 162.36328125 -16.71875 162.36328125 -20.28125 160.73828125 C-23.44020699 159.2278784 -23.44020699 159.2278784 -25.90625 159.36328125 C-27.96685689 160.33257344 -27.96685689 160.33257344 -29.53125 162.86328125 C-31.71875 165.36328125 -31.71875 165.36328125 -34.96875 166.61328125 C-39.05084828 166.34114136 -39.51431593 166.04158181 -42.36328125 163.4296875 C-43.06050293 162.79208496 -43.75772461 162.15448242 -44.47607422 161.49755859 C-48.42680823 157.73778102 -52.30934147 153.9165935 -56.15625 150.05078125 C-56.97029297 149.24060547 -57.78433594 148.43042969 -58.62304688 147.59570312 C-59.78223633 146.43458008 -59.78223633 146.43458008 -60.96484375 145.25 C-61.66279053 144.55092529 -62.3607373 143.85185059 -63.07983398 143.1315918 C-65.15286994 140.89488698 -65.66977004 139.63267103 -66.21875 136.61328125 C-65.55008466 132.26695654 -63.62010072 131.07265978 -60.25 128.46484375 C-59.7446875 128.10132813 -59.239375 127.7378125 -58.71875 127.36328125 C-59.37146556 123.84622167 -60.23268024 120.47003048 -61.28125 117.05078125 C-61.55066406 116.16777344 -61.82007813 115.28476562 -62.09765625 114.375 C-62.30261719 113.71113281 -62.50757813 113.04726563 -62.71875 112.36328125 C-63.53859375 112.4096875 -64.3584375 112.45609375 -65.203125 112.50390625 C-66.28078125 112.54 -67.3584375 112.57609375 -68.46875 112.61328125 C-69.53609375 112.6596875 -70.6034375 112.70609375 -71.703125 112.75390625 C-74.71875 112.36328125 -74.71875 112.36328125 -76.8762207 110.8762207 C-79.48366324 107.32005189 -79.27432386 104.00742843 -79.21484375 99.765625 C-79.21629898 98.9349501 -79.21775421 98.10427521 -79.21925354 97.24842834 C-79.21759638 95.49590541 -79.20605548 93.74336764 -79.18530273 91.9909668 C-79.15631178 89.30650183 -79.16470375 86.62400776 -79.17773438 83.93945312 C-79.1714978 82.23566748 -79.16310749 80.53188806 -79.15234375 78.828125 C-79.15527939 78.02495346 -79.15821503 77.22178192 -79.16123962 76.39427185 C-79.06786909 70.89067392 -79.06786909 70.89067392 -77.38769531 68.35253906 C-74.6707025 66.74205708 -72.13585843 67.08356516 -69.03125 67.17578125 C-67.26201172 67.21638672 -67.26201172 67.21638672 -65.45703125 67.2578125 C-64.55339844 67.29261719 -63.64976562 67.32742188 -62.71875 67.36328125 C-62.58597656 66.47382813 -62.45320313 65.584375 -62.31640625 64.66796875 C-61.79739301 61.79813084 -61.11310836 59.23404871 -60.15625 56.48828125 C-59.88683594 55.70710938 -59.61742187 54.9259375 -59.33984375 54.12109375 C-59.13488281 53.54101562 -58.92992187 52.9609375 -58.71875 52.36328125 C-59.2240625 51.92757812 -59.729375 51.491875 -60.25 51.04296875 C-60.8996875 50.44742188 -61.549375 49.851875 -62.21875 49.23828125 C-62.8684375 48.65820312 -63.518125 48.078125 -64.1875 47.48046875 C-66.32897652 44.51954969 -66.20126763 42.97256716 -65.71875 39.36328125 C-63.96837189 37.00352893 -62.34790543 35.12629112 -60.27734375 33.08984375 C-59.7168483 32.52123627 -59.15635284 31.95262878 -58.57887268 31.36679077 C-57.39167563 30.17114586 -56.19679524 28.98308758 -54.99487305 27.80224609 C-53.16356946 25.99550255 -51.36954096 24.15681287 -49.57617188 22.3125 C-48.41615366 21.15285231 -47.25410756 19.99522889 -46.08984375 18.83984375 C-45.55725449 18.28994781 -45.02466522 17.74005188 -44.47593689 17.17349243 C-41.59265577 14.39465839 -39.9834096 13.39411237 -35.95898438 12.92529297 C-32.26982562 13.42396316 -31.19403095 14.1058173 -28.78125 16.86328125 C-28.19472656 17.51296875 -27.60820312 18.16265625 -27.00390625 18.83203125 C-26.57980469 19.33734375 -26.15570313 19.84265625 -25.71875 20.36328125 C-24.87570313 20.00234375 -24.03265625 19.64140625 -23.1640625 19.26953125 C-22.06835938 18.80546875 -20.97265625 18.34140625 -19.84375 17.86328125 C-18.75320312 17.39921875 -17.66265625 16.93515625 -16.5390625 16.45703125 C-13.71875 15.36328125 -13.71875 15.36328125 -11.71875 15.36328125 C-11.77095703 14.11611328 -11.77095703 14.11611328 -11.82421875 12.84375 C-11.85128906 11.75707031 -11.87835938 10.67039062 -11.90625 9.55078125 C-11.94105469 8.47183594 -11.97585937 7.39289063 -12.01171875 6.28125 C-11.71875 3.36328125 -11.71875 3.36328125 -10.44250488 1.70417786 C-7.43126133 -0.63824699 -3.6617794 -0.04072058 0 0 Z M1.28125 12.36328125 C1.095625 15.02390625 1.095625 15.02390625 0.90625 17.73828125 C0.53125 23.11328125 0.53125 23.11328125 -1.71875 25.36328125 C-4.10871494 26.21291812 -6.48376573 26.99507192 -8.90625 27.73828125 C-15.04678283 29.67277698 -15.04678283 29.67277698 -20.71875 32.67578125 C-24.44667 34.77273625 -26.51078628 35.14253379 -30.71875 34.36328125 C-32.82702213 32.52584508 -34.1127967 30.69921333 -35.71875 28.36328125 C-40.63810902 32.47947961 -45.24522956 36.76738487 -49.71875 41.36328125 C-48.92984597 44.56802139 -48.92984597 44.56802139 -46.09375 46.67578125 C-45.31 47.56265625 -44.52625 48.44953125 -43.71875 49.36328125 C-44.00467972 53.97714726 -45.57453719 57.56201186 -47.59375 61.67578125 C-49.80002936 66.27790096 -51.63814792 70.73440695 -52.98046875 75.65625 C-53.71875 77.36328125 -53.71875 77.36328125 -56.71875 79.36328125 C-61.17375 79.85828125 -61.17375 79.85828125 -65.71875 80.36328125 C-65.71875 86.63328125 -65.71875 92.90328125 -65.71875 99.36328125 C-64.130625 99.46640625 -62.5425 99.56953125 -60.90625 99.67578125 C-56.24881427 99.97821214 -56.24881427 99.97821214 -53.9765625 101.62890625 C-52.49210596 103.67579664 -51.99894435 105.34533322 -51.40625 107.80078125 C-49.9463413 113.15377981 -47.58779975 117.75034145 -44.92578125 122.6015625 C-43.64495637 125.53212298 -43.23199298 127.21244551 -43.71875 130.36328125 C-45.03125 132.1640625 -45.03125 132.1640625 -46.71875 133.67578125 C-47.275625 134.18753906 -47.8325 134.69929688 -48.40625 135.2265625 C-48.839375 135.60167969 -49.2725 135.97679687 -49.71875 136.36328125 C-48.13207422 140.26613892 -45.58524519 142.69849107 -42.59375 145.61328125 C-41.68367188 146.5053125 -40.77359375 147.39734375 -39.8359375 148.31640625 C-38.78792969 149.32960938 -38.78792969 149.32960938 -37.71875 150.36328125 C-35.11371878 149.17133115 -33.77062613 148.42589037 -31.90625 146.17578125 C-29.71875 144.36328125 -29.71875 144.36328125 -26.59375 144.30078125 C-22.54755878 145.14266392 -19.11681062 147.09959907 -15.4921875 149.0234375 C-11.48703139 150.95832278 -7.33083303 152.24818793 -3.08984375 153.56640625 C-0.71875 154.36328125 -0.71875 154.36328125 0.28125 155.36328125 C0.74337633 159.02035505 0.98554173 162.68804988 1.28125 166.36328125 C7.55125 166.36328125 13.82125 166.36328125 20.28125 166.36328125 C20.384375 164.77515625 20.4875 163.18703125 20.59375 161.55078125 C20.89180679 156.96070668 20.89180679 156.96070668 22.37109375 154.69140625 C25.1817674 152.73715464 28.28578211 151.89263392 31.53125 150.92578125 C35.6900586 149.63603666 39.62295101 148.41316292 43.28125 145.98828125 C46.28125 144.36328125 46.28125 144.36328125 49.96875 144.30078125 C53.86456154 145.55038118 55.1043978 146.96739182 57.28125 150.36328125 C61.35501031 148.75317598 64.04632069 145.82505854 67.03125 142.73828125 C67.53785156 142.22265625 68.04445313 141.70703125 68.56640625 141.17578125 C69.80928902 139.90944786 71.04590276 138.63696685 72.28125 137.36328125 C71.476875 136.55890625 70.6725 135.75453125 69.84375 134.92578125 C66.28125 131.36328125 66.28125 131.36328125 66.04296875 128.19921875 C66.29994836 124.06226825 67.23041449 121.66054831 69.09375 117.98828125 C71.34135143 113.40317433 73.22181246 108.97249172 74.640625 104.0703125 C75.28125 102.36328125 75.28125 102.36328125 77.28125 100.36328125 C80.60345821 99.7859795 83.91412151 99.62229113 87.28125 99.36328125 C87.28125 93.09328125 87.28125 86.82328125 87.28125 80.36328125 C84.31125 80.03328125 81.34125 79.70328125 78.28125 79.36328125 C74.97411764 76.05614889 74.27864096 73.99793167 72.84375 69.61328125 C71.52638678 65.67326364 70.23475947 61.93729238 67.96875 58.42578125 C65.90627835 54.68277715 65.57954921 52.57348597 66.28125 48.36328125 C67.90777316 46.6574155 69.57131566 44.98552665 71.28125 43.36328125 C71.17367386 39.2036706 68.24696819 36.8615408 65.46875 34.05078125 C64.59605469 33.14714844 63.72335937 32.24351562 62.82421875 31.3125 C60.52229076 29.12011098 60.52229076 29.12011098 58.0703125 29.44140625 C56.09588263 30.32092808 56.09588263 30.32092808 54.46875 32.42578125 C52.28125 34.36328125 52.28125 34.36328125 49.15625 34.92578125 C44.73452083 34.28391734 41.73932354 32.77015325 37.84375 30.66796875 C34.74193414 29.08869055 31.61472159 28.03921459 28.2890625 27.0390625 C22.67423246 25.14924616 22.67423246 25.14924616 21.28125 22.36328125 C20.83971556 19.03814533 20.58116469 15.70518777 20.28125 12.36328125 C14.01125 12.36328125 7.74125 12.36328125 1.28125 12.36328125 Z " fill="#FBFCFB" transform="translate(197.71875,245.63671875)"></path><path d="M0 0 C2.88085938 1.40527344 2.88085938 1.40527344 5.84375 3.359375 C6.92527344 4.06320313 8.00679688 4.76703125 9.12109375 5.4921875 C10.24759406 6.24449493 11.37389467 6.99710147 12.5 7.75 C13.62548571 8.4882253 14.75178184 9.2252166 15.87890625 9.9609375 C18.92870689 11.96021087 21.96688757 13.97552598 25 16 C26.08804932 16.67272949 27.17609863 17.34545898 28.29711914 18.03857422 C31 20 31 20 32.08984375 23.2734375 C31.97945732 27.85207478 30.70298715 30.65844754 28.5625 34.625 C26.32092922 38.87758 24.78983092 42.10583816 25 47 C25.56509277 47.2266333 26.13018555 47.4532666 26.71240234 47.68676758 C29.27061052 48.7190501 31.82275488 49.76556612 34.375 50.8125 C35.26445312 51.16892578 36.15390625 51.52535156 37.0703125 51.89257812 C37.92109375 52.24384766 38.771875 52.59511719 39.6484375 52.95703125 C40.43395996 53.27647705 41.21948242 53.59592285 42.02880859 53.92504883 C44 55 44 55 46 58 C45.38436196 65.15046257 43.39788088 72.10981964 41.6875 79.0625 C41.24374023 80.94291992 41.24374023 80.94291992 40.79101562 82.86132812 C37.73885424 95.26114576 37.73885424 95.26114576 33 100 C27.54446457 100.29757466 22.87827953 99.68615103 17.58984375 98.33984375 C14.2485895 97.90139862 11.30349496 98.4217873 8 99 C8.02618408 99.57967529 8.05236816 100.15935059 8.0793457 100.7565918 C8.18370612 103.39994875 8.24844327 106.04287199 8.3125 108.6875 C8.35439453 109.59951172 8.39628906 110.51152344 8.43945312 111.45117188 C8.52206219 115.9946703 8.50038622 118.28464641 5.8359375 122.09375 C1.21686587 125.19858051 -3.04287987 124.89225772 -8.48828125 124.96044922 C-11.52511727 125.00826876 -14.55828388 125.11995574 -17.59375 125.22265625 C-19.95825992 125.27674795 -22.32284842 125.32750271 -24.6875 125.375 C-25.84660889 125.41343018 -27.00571777 125.45186035 -28.19995117 125.49145508 C-29.83927612 125.50728638 -29.83927612 125.50728638 -31.51171875 125.5234375 C-32.49615967 125.54325684 -33.48060059 125.56307617 -34.49487305 125.58349609 C-37 125 -37 125 -38.78808594 122.70996094 C-40.36109613 119.19255298 -40.98084904 115.65401037 -41.5625 111.875 C-42.42502743 106.15427758 -42.42502743 106.15427758 -45 101 C-45.54527344 101.12117188 -46.09054687 101.24234375 -46.65234375 101.3671875 C-48.24057964 101.72012881 -49.82914634 102.07158345 -51.41796875 102.421875 C-53.08976289 102.79619502 -54.75926831 103.18095283 -56.42578125 103.578125 C-65.01013514 105.59797297 -65.01013514 105.59797297 -68 105 C-71.45035478 101.32542194 -73.30849016 97.38341295 -75.05078125 92.72265625 C-75.31384567 92.03368759 -75.5769101 91.34471893 -75.84794617 90.63487244 C-76.39791353 89.18520841 -76.94307294 87.73371211 -77.48364258 86.28051758 C-78.31113899 84.06614206 -79.16335644 81.8623848 -80.01757812 79.65820312 C-80.55100756 78.24276255 -81.08295929 76.82676403 -81.61328125 75.41015625 C-81.86837967 74.7568483 -82.12347809 74.10354034 -82.38630676 73.43043518 C-83.90680869 69.25785037 -84.41447511 66.25300331 -83 62 C-81.23413086 60.40087891 -81.23413086 60.40087891 -78.96484375 59.2265625 C-78.15595703 58.79472656 -77.34707031 58.36289063 -76.51367188 57.91796875 C-75.66353516 57.49128906 -74.81339844 57.06460938 -73.9375 56.625 C-73.08349609 56.17511719 -72.22949219 55.72523438 -71.34960938 55.26171875 C-69.24223255 54.15505159 -67.1265829 53.06916073 -65 52 C-65.54778891 45.0526454 -68.20713804 41.41892435 -72.28515625 35.96484375 C-74.27436624 32.52564014 -74.74059018 30.89975111 -74 27 C-72.01953125 24.55859375 -72.01953125 24.55859375 -69 22 C-68.38044434 21.47035645 -67.76088867 20.94071289 -67.12255859 20.39501953 C-64.9960583 18.59395743 -62.8454719 16.8256978 -60.6875 15.0625 C-59.6056543 14.17014648 -59.6056543 14.17014648 -58.50195312 13.25976562 C-57.05757479 12.07446861 -55.60691438 10.89678311 -54.14990234 9.72705078 C-52.71540272 8.57469439 -51.29370048 7.40622569 -49.88525391 6.22216797 C-46.81455031 3.73420432 -44.73969516 2.14902949 -40.8203125 1.359375 C-37.17688315 2.18696837 -35.54351482 3.65677243 -32.875 6.25 C-32.04742187 7.03890625 -31.21984375 7.8278125 -30.3671875 8.640625 C-28.84634133 10.15645188 -27.34440086 11.69162107 -25.8671875 13.25 C-23.62411784 15.35229123 -22.01235406 15.66529399 -19 16 C-18.7628125 15.45730469 -18.525625 14.91460937 -18.28125 14.35546875 C-16.66137928 11.37747472 -14.65257409 8.92983441 -12.5 6.3125 C-11.7059375 5.33925781 -10.911875 4.36601562 -10.09375 3.36328125 C-6.86454459 -0.28162411 -4.78519799 -0.40237198 0 0 Z M-3 15 C-3.61488281 15.77085937 -4.22976563 16.54171875 -4.86328125 17.3359375 C-5.67152344 18.33882812 -6.47976563 19.34171875 -7.3125 20.375 C-8.51326172 21.87160156 -8.51326172 21.87160156 -9.73828125 23.3984375 C-12.38782816 26.44610286 -14.02631067 27.83604974 -18.0390625 28.51171875 C-27.59579017 28.98018579 -27.59579017 28.98018579 -31.78125 26.05859375 C-34.125 23.625 -34.125 23.625 -36.1328125 21.1640625 C-37.99569551 19.00498889 -39.38619063 18.05714068 -42 17 C-44.275885 18.7437428 -46.54564631 20.49458423 -48.8125 22.25 C-49.77639648 22.98669922 -49.77639648 22.98669922 -50.75976562 23.73828125 C-53.98354115 26.24380627 -56.76893275 28.51654928 -59 32 C-58.41089844 32.845625 -57.82179688 33.69125 -57.21484375 34.5625 C-50.29417339 44.85310381 -50.29417339 44.85310381 -50.8125 49.3125 C-51.204375 50.529375 -51.59625 51.74625 -52 53 C-52.09023438 53.65355469 -52.18046875 54.30710938 -52.2734375 54.98046875 C-52.92334933 58.15032171 -53.86575814 60.15298217 -56.51171875 62.12890625 C-60.52833589 64.69919271 -64.73229333 66.88024081 -69 69 C-68.23754579 73.81600823 -66.58720144 78.24615702 -64.9375 82.8125 C-64.65583984 83.60076172 -64.37417969 84.38902344 -64.08398438 85.20117188 C-63.39241462 87.13522289 -62.69662722 89.06776488 -62 91 C-61.31035156 90.86722656 -60.62070312 90.73445313 -59.91015625 90.59765625 C-57.94570388 90.22847933 -55.97793849 89.87665442 -54.0078125 89.5390625 C-52.19995775 89.21505736 -50.39797383 88.84801307 -48.6171875 88.3984375 C-43.65406999 87.34888935 -40.88841061 88.191448 -36.5625 90.875 C-33.23336824 93.46318126 -31.41636289 95.28861292 -30.5 99.4375 C-30.31730348 100.95649104 -30.15069105 102.47750073 -30 104 C-29.65000675 105.52678216 -29.27626718 107.04838518 -28.875 108.5625 C-28.58625 109.696875 -28.2975 110.83125 -28 112 C-25.66658501 112.02734471 -23.33350051 112.04700237 -21 112.0625 C-19.700625 112.07410156 -18.40125 112.08570313 -17.0625 112.09765625 C-12.98160152 112.0667101 -9.03842109 111.57241013 -5 111 C-4.97164063 109.7934375 -4.94328125 108.586875 -4.9140625 107.34375 C-4.29663951 94.85721674 -4.29663951 94.85721674 -0.921875 90.0234375 C2.96683026 86.74308797 5.88039524 85.15994354 10.9375 84.4375 C12.29595 84.59091838 13.65028249 84.78277602 15 85 C16.99949675 85.17259932 18.99953241 85.33904284 21 85.5 C22.66702161 85.6630782 24.3338256 85.82848205 26 86 C26.86799717 83.10767725 27.7196556 80.21215302 28.5625 77.3125 C28.80935547 76.49587891 29.05621094 75.67925781 29.31054688 74.83789062 C31.23338566 68.87325241 31.23338566 68.87325241 30 63 C27.11793796 61.43836297 27.11793796 61.43836297 23.625 60.4375 C18.00939484 58.63826509 15.71064715 57.29231694 13.015625 52.10546875 C11.10654621 47.32303158 10.59048221 44.10950199 12 39 C13.23179036 36.35871838 14.54057415 33.7900007 15.94140625 31.234375 C17.21407713 28.96022363 17.21407713 28.96022363 17 26 C15.57451447 24.66786467 15.57451447 24.66786467 13.640625 23.5546875 C12.93679688 23.11769531 12.23296875 22.68070313 11.5078125 22.23046875 C10.76273437 21.78316406 10.01765625 21.33585937 9.25 20.875 C8.52039063 20.41996094 7.79078125 19.96492188 7.0390625 19.49609375 C3.69663796 17.44809908 0.87120834 15.80157038 -3 15 Z " fill="#FBFCFA" transform="translate(387,190)"></path><path d="M0 0 C8.83585583 6.2428578 15.17254386 14.4889635 18 25 C19.53566467 37.83058959 17.55903465 48.47366613 10.3125 59.3125 C4.54147613 66.45191098 -3.89751178 71.47437794 -12.75 73.6875 C-25.75396108 74.93788087 -36.37903705 72.98307672 -47 65 C-54.83755063 57.7029701 -60.40941226 48.89522554 -61.22265625 38.0234375 C-61.5500942 25.86552422 -58.62151668 16.58420049 -51 7 C-37.2637274 -6.75932004 -17.11074657 -9.85652696 0 0 Z " fill="#FAFCFA" transform="translate(230,301)"></path><path d="M0 0 C0.72832031 0.29745117 1.45664062 0.59490234 2.20703125 0.90136719 C19.25023513 8.00270214 34.45703375 18.51404575 48 31 C48.50192871 31.45810059 49.00385742 31.91620117 49.52099609 32.38818359 C62.01714096 43.92216139 72.47382346 57.7262888 80 73 C80 73.66 80 74.32 80 75 C78.56705502 75.84114171 77.12845595 76.67265687 75.6875 77.5 C74.48673828 78.19609375 74.48673828 78.19609375 73.26171875 78.90625 C71 80 71 80 68 80 C67.52433594 79.05253906 67.52433594 79.05253906 67.0390625 78.0859375 C49.12927231 43.75059387 18.05682523 19.76193108 -18.4934082 7.89672852 C-41.36004414 0.84043483 -65.74160936 -0.08827224 -89.19921875 4.34375 C-92.25592935 4.87152737 -94.91841676 5.14587376 -98 5 C-99.59138085 0.82262526 -100.21278058 -2.53160785 -100 -7 C-67.85206308 -17.62156506 -30.72584379 -12.7136832 0 0 Z " fill="#FAFCF9" transform="translate(304,102)"></path><path d="M0 0 C5.71589092 3.52819534 9.94216762 8.58065563 12 15 C13.21218635 24.79318976 12.51028619 33.00622446 6.52734375 40.95703125 C1.48112143 46.62359296 -4.49172819 49.36872284 -11.95703125 50.4140625 C-20.34189591 50.82308029 -26.75924767 48.75266574 -33.0703125 43.16796875 C-38.60998851 37.29220361 -41.07524763 31.67379496 -41.4375 23.625 C-41.22007745 16.50935299 -39.17505762 10.56545258 -34.5625 5.125 C-33.716875 4.42375 -32.87125 3.7225 -32 3 C-31.236875 2.29875 -30.47375 1.5975 -29.6875 0.875 C-19.90872164 -5.94740351 -10.4199511 -4.99970748 0 0 Z " fill="#3A8222" transform="translate(223,312)"></path><path d="M0 0 C7.47300808 3.92742031 12.31011517 9.18034551 15 17.25 C15.67368417 26.7204448 15.24425942 34.25546984 9.4375 41.9375 C3.51320516 48.23748183 -2.93078952 50.55703051 -11.5 50.9375 C-19.74358408 50.62971735 -25.19866207 48.24973761 -30.87109375 42.28125 C-36.25117117 35.57228056 -37.54151378 29.07356086 -37.3671875 20.5703125 C-36.53476389 13.04307769 -33.32559257 7.97660766 -27.5 3.25 C-19.38731134 -2.69168747 -9.39164003 -4.00247746 0 0 Z " fill="#FBFCFA" transform="translate(379,227.75)"></path><path d="M0 0 C4.75481646 0.57634139 7.97048212 2.55068521 12 5 C2.99146075 30.22390989 -24.20266892 51.37322085 -46.625 64.125 C-47.61922974 64.69263062 -47.61922974 64.69263062 -48.63354492 65.27172852 C-52.05824893 67.15630298 -55.10714792 68.50780031 -59 69 C-59.67354499 67.56570999 -60.33859701 66.12742943 -61 64.6875 C-61.556875 63.48673828 -61.556875 63.48673828 -62.125 62.26171875 C-63 60 -63 60 -63 57 C-61.91203125 56.45472656 -60.8240625 55.90945313 -59.703125 55.34765625 C-50.45170658 50.6337125 -42.05066104 45.62060941 -34 39 C-33.43152344 38.54222168 -32.86304688 38.08444336 -32.27734375 37.61279297 C-24.18539413 31.07849996 -17.25992477 24.36595894 -11 16 C-10.17555414 14.92755817 -9.34999687 13.85596999 -8.5234375 12.78515625 C-3.76058976 6.71004006 -3.76058976 6.71004006 0 0 Z " fill="#FAFCF9" transform="translate(368,324)"></path><path d="M0 0 C6.6 0 13.2 0 20 0 C20 14.85 20 29.7 20 45 C13.4 45 6.8 45 0 45 C0 30.15 0 15.3 0 0 Z " fill="#519433" transform="translate(230,141)"></path><path d="M0 0 C6.27 0 12.54 0 19 0 C19 14.85 19 29.7 19 45 C12.73 45 6.46 45 0 45 C0 30.15 0 15.3 0 0 Z " fill="#428827" transform="translate(154,179)"></path><path d="M0 0 C6.27 0 12.54 0 19 0 C19 14.85 19 29.7 19 45 C12.73 45 6.46 45 0 45 C0 30.15 0 15.3 0 0 Z " fill="#3C8322" transform="translate(96,179)"></path><path d="M0 0 C6.27 0 12.54 0 19 0 C19 14.85 19 29.7 19 45 C12.73 45 6.46 45 0 45 C0 30.15 0 15.3 0 0 Z " fill="#4F942E" transform="translate(288,141)"></path><path d="M0 0 C4.29 0 8.58 0 13 0 C13.22042969 2.55814453 13.22042969 2.55814453 13.4453125 5.16796875 C15.1119041 22.91877801 18.0409305 39.40750281 25.33032227 55.75366211 C26.09314483 58.31244098 25.98620364 59.54136514 25 62 C23.2578125 63.30078125 23.2578125 63.30078125 21.125 64.3125 C20.42632812 64.65925781 19.72765625 65.00601563 19.0078125 65.36328125 C17 66 17 66 14 65 C12.86934958 62.7447293 11.94082281 60.60228982 11.0625 58.25 C10.80235107 57.57042236 10.54220215 56.89084473 10.27416992 56.19067383 C9.49782958 54.13331193 8.74430422 52.06914546 8 50 C7.61328125 48.92621094 7.2265625 47.85242188 6.828125 46.74609375 C1.88821607 31.869368 -0.25233246 15.6446128 0 0 Z " fill="#FAFCFA" transform="translate(84,250)"></path><path d="M0 0 C6.27 0 12.54 0 19 0 C19 14.52 19 29.04 19 44 C12.73 44 6.46 44 0 44 C0 29.48 0 14.96 0 0 Z " fill="#488D2A" transform="translate(154,103)"></path><path d="M0 0 C3.16961356 1.28133314 4.57820229 2.5200233 6.8125 5.0625 C8.57021759 9.41053825 8.65950013 13.37608898 8 18 C6.18766463 21.83378636 4.69973473 23.53351018 1.1875 25.875 C-2.60257982 27.21267523 -5.00555439 27.56062395 -9 27 C-13.23940228 24.83738993 -16.23975123 22.50392292 -18 18 C-18.74892176 13.70090104 -18.98072396 9.67264576 -16.7265625 5.828125 C-11.67474409 -0.13548503 -7.68041399 -0.66628197 0 0 Z " fill="#4F942F" transform="translate(373,239)"></path></svg>