<svg version="1.1" xmlns="http://www.w3.org/2000/svg" width="16px" height="16px" fill="currentColor" viewBox="0 0 512 512"><path d="M0 0 C168.96 0 337.92 0 512 0 C512 168.96 512 337.92 512 512 C343.04 512 174.08 512 0 512 C0 343.04 0 174.08 0 0 Z " fill="#D72B6B" transform="translate(0,0)"></path><path d="M0 0 C1.0643074 -0.00549866 2.12861481 -0.01099731 3.22517395 -0.0166626 C4.39258118 -0.00228149 5.5599884 0.01209961 6.76277161 0.0269165 C7.99215958 0.0263324 9.22154755 0.02574829 10.4881897 0.02514648 C13.86018854 0.02745767 17.23121072 0.04753196 20.60303664 0.07544231 C24.12641132 0.10042883 27.64979868 0.10279578 31.17324829 0.10754395 C37.84564234 0.11998189 44.51777458 0.15281431 51.19005328 0.1929419 C58.78607192 0.23763436 66.38210298 0.25964025 73.97822034 0.27972364 C89.60423244 0.32154645 105.22996679 0.39271877 120.85578918 0.48101807 C120.85578918 4.77101807 120.85578918 9.06101807 120.85578918 13.48101807 C82.57578918 13.48101807 44.29578918 13.48101807 4.85578918 13.48101807 C4.85578918 123.04101807 4.85578918 232.60101807 4.85578918 345.48101807 C42.80578918 345.48101807 80.75578918 345.48101807 119.85578918 345.48101807 C119.85578918 349.77101807 119.85578918 354.06101807 119.85578918 358.48101807 C103.75731025 358.57359476 87.65894098 358.64498646 71.56026077 358.68826675 C64.08543591 358.70889628 56.61077942 358.73702408 49.13606262 358.78277588 C42.62145048 358.82263201 36.10696028 358.84844805 29.5922296 358.85737205 C26.14233415 358.86258897 22.69278754 358.87485801 19.24300385 358.90393829 C15.39283689 358.9361307 11.54301192 358.93697826 7.69270325 358.93511963 C6.54759277 358.94950073 5.4024823 358.96388184 4.22267151 358.97869873 C3.17381775 358.97320007 2.12496399 358.96770142 1.04432678 358.96203613 C0.13359531 358.9657233 -0.77713615 358.96941048 -1.71546555 358.97320938 C-5.05116642 358.29722124 -6.1784127 357.2452689 -8.14421082 354.48101807 C-8.63640213 351.36510849 -8.63640213 351.36510849 -8.62522888 347.62207031 C-8.62864658 346.93261582 -8.63206428 346.24316132 -8.63558555 345.53281426 C-8.642173 343.22313335 -8.62017589 340.91461528 -8.59831238 338.6050415 C-8.59718408 336.94930041 -8.59781742 335.29355731 -8.6000824 333.63781738 C-8.60123116 329.14215484 -8.57769565 324.64691825 -8.54978657 320.15135479 C-8.52479996 315.45350485 -8.52243308 310.7556454 -8.51768494 306.05773926 C-8.50524709 297.16128719 -8.47241454 288.26503149 -8.43228698 279.36866593 C-8.38759443 269.24061947 -8.36558856 259.11256369 -8.34550524 248.98444319 C-8.30368263 228.14985851 -8.23331485 207.31545065 -8.14421082 186.48101807 C-9.4073259 186.48323868 -10.67044098 186.48545929 -11.97183228 186.48774719 C-23.84744921 186.50797643 -35.72306267 186.52298915 -47.59869289 186.53283024 C-53.7047745 186.53805962 -59.81084226 186.54515827 -65.91691589 186.55645752 C-71.80426228 186.56728443 -77.69159531 186.57329448 -83.57895088 186.57589531 C-85.83053358 186.57774991 -88.08211551 186.58137119 -90.33369255 186.58674812 C-93.47554509 186.59395595 -96.61734164 186.59500912 -99.75920105 186.59454346 C-100.70003036 186.59813873 -101.64085968 186.60173401 -102.61019897 186.60543823 C-109.03015865 186.59507023 -109.03015865 186.59507023 -110.14421082 185.48101807 C-110.14421082 181.52101807 -110.14421082 177.56101807 -110.14421082 173.48101807 C-76.48421082 173.48101807 -42.82421082 173.48101807 -8.14421082 173.48101807 C-8.1790155 161.32773682 -8.21382019 149.17445557 -8.24967957 136.65289307 C-8.26500193 128.96929742 -8.27956729 121.28571279 -8.29069519 113.60211182 C-8.30851287 101.39715809 -8.3294864 89.19226639 -8.37052917 76.98736572 C-8.40040298 68.09955718 -8.41977903 59.21179883 -8.4264763 50.32394147 C-8.43039198 45.61658087 -8.43961373 40.90936389 -8.46140099 36.20204926 C-8.48173426 31.77307681 -8.48805103 27.34430743 -8.48353386 22.91529274 C-8.48436048 21.28827881 -8.49034496 19.66125822 -8.50182724 18.03428459 C-8.51672228 15.81524881 -8.51317585 13.59698275 -8.50497437 11.37792969 C-8.50773974 10.13535275 -8.51050512 8.8927758 -8.5133543 7.61254501 C-7.82744914 1.79385776 -5.76684136 -0.0229526 0 0 Z " fill="#FEF9FB" transform="translate(315.1442108154297,76.51898193359375)"></path><path d="M0 0 C2.56876979 1.04870398 4.80699438 2.10412282 7.20703125 3.4453125 C7.88070236 3.80656219 8.55437347 4.16781189 9.24845886 4.54000854 C11.4440754 5.72151793 13.6280185 6.92304784 15.8125 8.125 C17.35017324 8.95709481 18.88859404 9.78780954 20.42773438 10.6171875 C24.26194021 12.68685323 28.08760208 14.7717688 31.91119385 16.86096191 C35.91605811 19.04483758 39.93525369 21.20194768 43.95336914 23.36132812 C45.98402988 24.45354664 48.01316859 25.54859968 50.04077148 26.64648438 C56.34344391 30.05573109 62.6728197 33.40769545 69.0234375 36.7265625 C70.58860545 37.5467533 72.15370966 38.36706573 73.71875 39.1875 C76.02929424 40.39870349 78.34097168 41.60736701 80.65722656 42.80761719 C82.80361436 43.91989625 84.94511082 45.04112632 87.0859375 46.1640625 C88.04661636 46.65696274 88.04661636 46.65696274 89.02670288 47.15982056 C92.57096315 49.03090182 95.44473412 50.88764714 98 54 C98.5 57 98.5 57 98 60 C95.13348771 63.42935118 92.00175237 65.25320657 88.0390625 67.25 C87.46091797 67.54460617 86.88277344 67.83921234 86.28710938 68.14274597 C85.04749591 68.77367527 83.80616668 69.40124296 82.56329346 70.02572632 C79.2631076 71.68454852 75.97595325 73.36885351 72.6875 75.05078125 C72.02787262 75.38741287 71.36824524 75.72404449 70.68862915 76.07087708 C64.94493096 79.00932778 59.27375608 82.07045922 53.625 85.1875 C45.31305512 89.76672341 36.93435617 94.19788862 28.49853516 98.54467773 C23.73077607 101.01187258 19.01232406 103.53465179 14.3515625 106.19921875 C13.45002441 106.71154053 12.54848633 107.2238623 11.61962891 107.75170898 C9.92432525 108.7213342 8.23592678 109.70317709 6.55615234 110.69946289 C1.90138708 113.35602011 -1.48469239 114.85487268 -7 114 C-9.09539611 112.42957612 -9.89860231 111.54991459 -10.37752342 108.95256042 C-10.3786545 108.16279312 -10.37978558 107.37302582 -10.38095093 106.55932617 C-10.3894104 105.65080902 -10.39786987 104.74229187 -10.40658569 103.8062439 C-10.400513 102.8118631 -10.39444031 101.8174823 -10.38818359 100.79296875 C-10.39344055 99.74396393 -10.39869751 98.69495911 -10.40411377 97.61416626 C-10.41734313 94.13846043 -10.40856504 90.66321068 -10.3984375 87.1875 C-10.40045738 84.77758699 -10.4033681 82.36767458 -10.40713501 79.95776367 C-10.41156236 74.90374947 -10.40511395 69.84989419 -10.39111328 64.79589844 C-10.37402137 58.30890759 -10.38386033 51.82228907 -10.40183067 45.33531189 C-10.41265731 40.35800355 -10.40922728 35.38078387 -10.4014473 30.4034729 C-10.3994422 28.01119951 -10.40191536 25.61891813 -10.40888596 23.22665405 C-10.41648184 19.88656202 -10.40492182 16.54707786 -10.38818359 13.20703125 C-10.39425629 12.21265045 -10.40032898 11.21826965 -10.40658569 10.1937561 C-10.39812622 9.28523895 -10.38966675 8.3767218 -10.38095093 7.44067383 C-10.37981985 6.65090652 -10.37868877 5.86113922 -10.37752342 5.04743958 C-9.32147261 -0.67988777 -4.98455291 -0.53360879 0 0 Z " fill="#FEFAFB" transform="translate(87,199)"></path><path d="M0 0 C9.62228765 6.03650217 16.80742908 14.82907174 20.33203125 25.6953125 C23.2430162 40.09702749 21.07907589 51.85186524 13.546875 64.42578125 C8.47240866 71.82836814 1.13503076 76.50022577 -7 80 C-7.66386719 80.30035156 -8.32773437 80.60070312 -9.01171875 80.91015625 C-18.85020364 84.82009017 -29.47994417 83.94404099 -39.2421875 80.2734375 C-43.52027945 78.29800127 -47.24688759 75.83034304 -51 73 C-51.886875 72.401875 -52.77375 71.80375 -53.6875 71.1875 C-62.34540742 62.99758758 -66.99482332 52.14284338 -67.34375 40.41381836 C-67.52193619 26.29395489 -63.96197664 16.3501056 -54 6 C-38.31041667 -8.13585761 -18.25016436 -9.77239922 0 0 Z " fill="#E93C7A" transform="translate(414,121)"></path><path d="M0 0 C2.93158448 1.76356736 5.47541479 3.69762767 8 6 C8.86625 6.763125 9.7325 7.52625 10.625 8.3125 C19.85005876 18.75138228 23.94137825 28.94658527 23.38671875 42.80078125 C22.73605183 51.87522431 19.26980815 59.68749748 14 67 C13.443125 67.845625 12.88625 68.69125 12.3125 69.5625 C5.74365339 76.4864194 -1.9949602 80.21308252 -11 83 C-11.99 83.33 -12.98 83.66 -14 84 C-27.25291146 85.17846589 -38.47304432 82.08913437 -49 74 C-49.886875 73.401875 -50.77375 72.80375 -51.6875 72.1875 C-58.87485938 65.38864653 -64.95034001 54.8787833 -65.23828125 44.83984375 C-65.57799164 30.00177904 -63.26255911 19.36457888 -53 8 C-46.38851501 2.0296287 -39.48513654 -1.46305884 -31 -4 C-20.54867977 -7.48377341 -9.61362638 -4.57335651 0 0 Z " fill="#E13574" transform="translate(412,217)"></path><path d="M0 0 C1.16789062 0.34998047 1.16789062 0.34998047 2.359375 0.70703125 C14.54933876 4.85237607 23.25553094 15.04225565 28.875 26.3125 C33.00937782 36.96491974 32.68049822 49.08593989 28.4375 59.625 C22.21933527 72.07582402 14.2401233 79.74436 1.25 84.9375 C-10.23195514 88.69840071 -21.03592382 88.06273206 -32 83 C-35.17151775 81.19734401 -38.08975447 79.19470996 -41 77 C-41.886875 76.401875 -42.77375 75.80375 -43.6875 75.1875 C-50.87485938 68.38864653 -56.95034001 57.8787833 -57.23828125 47.83984375 C-57.57780668 33.0098578 -55.26928179 22.35297484 -45 11 C-32.41584292 -0.21099794 -16.39766136 -5.58424294 0 0 Z " fill="#DA2F6F" transform="translate(404,310)"></path><path d="M0 0 C9.20664839 7.35070499 14.88872858 16.89299523 16.3203125 28.625 C16.80358653 39.70808448 13.16900973 50.53658574 6 59 C-0.9521022 66.40159156 -9.71958012 71.56429198 -19.94140625 72.2734375 C-33.86236377 72.70653396 -43.60817842 69.72203621 -54 60 C-62.30850425 51.26494308 -64.61668144 41.30769431 -64.47045898 29.56518555 C-64.05889895 19.15765534 -60.13893689 11.54487644 -53 4 C-37.80994294 -9.62870973 -17.03522115 -11.84374874 0 0 Z " fill="#C41A5D" transform="translate(154,350)"></path><path d="M0 0 C0.8075473 -0.00845947 1.6150946 -0.01691895 2.44711304 -0.02563477 C3.32928497 -0.01956207 4.21145691 -0.01348938 5.12036133 -0.00723267 C6.51830429 -0.0151181 6.51830429 -0.0151181 7.94448853 -0.02316284 C11.03062613 -0.03638602 14.11624956 -0.02761646 17.20239258 -0.01748657 C19.34326273 -0.01950664 21.48413221 -0.02241751 23.625 -0.02618408 C28.11408025 -0.03061058 32.60298155 -0.02416581 37.09204102 -0.01016235 C42.85263818 0.0069296 48.61281606 -0.00290983 54.37339783 -0.02087975 C58.79483207 -0.03170871 63.21616655 -0.0282753 67.63760376 -0.02049637 C69.76193287 -0.01849191 71.88627098 -0.02096221 74.0105896 -0.02793503 C76.97711256 -0.03553482 79.94295192 -0.02396577 82.90942383 -0.00723267 C84.23268173 -0.01634171 84.23268173 -0.01634171 85.58267212 -0.02563477 C86.79399307 -0.01294556 86.79399307 -0.01294556 88.02978516 0 C88.73106033 0.00113108 89.43233551 0.00226215 90.15486145 0.00342751 C92.64119116 0.50806836 93.51746622 1.35430312 95.01489258 3.38095093 C95.392416 5.24098206 95.392416 5.24098206 95.39584351 7.36605835 C95.40430298 8.17360565 95.41276245 8.98115295 95.42147827 9.81317139 C95.41540558 10.69534332 95.40933289 11.57751526 95.40307617 12.48641968 C95.40833313 13.41838165 95.41359009 14.35034363 95.41900635 15.31054688 C95.43222953 18.39668448 95.42345997 21.48230791 95.41333008 24.56845093 C95.41535014 26.70932108 95.41826102 28.85019056 95.42202759 30.99105835 C95.42645409 35.4801386 95.42000931 39.9690399 95.40600586 44.45809937 C95.38891391 50.21869653 95.39875333 55.97887441 95.41672325 61.73945618 C95.42755222 66.16089042 95.4241188 70.5822249 95.41633987 75.00366211 C95.41433542 77.12799122 95.41680572 79.25232933 95.42377853 81.37664795 C95.43137833 84.34317091 95.41980928 87.30901027 95.40307617 90.27548218 C95.40914886 91.15765411 95.41522156 92.03982605 95.42147827 92.94873047 C95.4130188 93.75627777 95.40455933 94.56382507 95.39584351 95.39584351 C95.39471243 96.09711868 95.39358135 96.79839386 95.392416 97.5209198 C94.88777514 100.00724951 94.04154038 100.88352457 92.01489258 102.38095093 C90.15486145 102.75847435 90.15486145 102.75847435 88.02978516 102.76190186 C87.22223785 102.77036133 86.41469055 102.7788208 85.58267212 102.78753662 C84.25941422 102.77842758 84.25941422 102.77842758 82.90942383 102.76913452 C81.97746185 102.77439148 81.04549988 102.77964844 80.08529663 102.7850647 C76.99915903 102.79828788 73.91353559 102.78951832 70.82739258 102.77938843 C68.68652243 102.78140849 66.54565295 102.78431937 64.40478516 102.78808594 C59.91570491 102.79251244 55.42680361 102.78606766 50.93774414 102.77206421 C45.17714698 102.75497226 39.4169691 102.76481168 33.65638733 102.7827816 C29.23495308 102.79361057 24.81361861 102.79017715 20.3921814 102.78239822 C18.26785228 102.78039377 16.14351417 102.78286407 14.01919556 102.78983688 C11.0526726 102.79743668 8.08683323 102.78586763 5.12036133 102.76913452 C3.79710342 102.77824356 3.79710342 102.77824356 2.44711304 102.78753662 C1.63956573 102.77907715 0.83201843 102.77061768 0 102.76190186 C-0.70127518 102.76077078 -1.40255035 102.7596397 -2.12507629 102.75847435 C-4.611406 102.25383349 -5.48768107 101.40759873 -6.98510742 99.38095093 C-7.36263084 97.5209198 -7.36263084 97.5209198 -7.36605835 95.39584351 C-7.37451782 94.5882962 -7.38297729 93.7807489 -7.39169312 92.94873047 C-7.38562042 92.06655853 -7.37954773 91.1843866 -7.37329102 90.27548218 C-7.37854797 89.3435202 -7.38380493 88.41155823 -7.38922119 87.45135498 C-7.40244437 84.36521738 -7.39367481 81.27959394 -7.38354492 78.19345093 C-7.38556499 76.05258078 -7.38847586 73.9117113 -7.39224243 71.77084351 C-7.39666893 67.28176326 -7.39022415 62.79286196 -7.3762207 58.30380249 C-7.35912875 52.54320533 -7.36896818 46.78302745 -7.3869381 41.02244568 C-7.39776706 36.60101143 -7.39433365 32.17967696 -7.38655472 27.75823975 C-7.38455026 25.63391063 -7.38702056 23.50957252 -7.39399338 21.38525391 C-7.40159317 18.41873095 -7.39002412 15.45289158 -7.37329102 12.48641968 C-7.37936371 11.60424774 -7.3854364 10.72207581 -7.39169312 9.81317139 C-7.38323364 9.00562408 -7.37477417 8.19807678 -7.36605835 7.36605835 C-7.36436173 6.31414558 -7.36436173 6.31414558 -7.36263084 5.24098206 C-6.52450252 1.11158326 -3.92670301 0.00633332 0 0 Z M6.01489258 13.38095093 C6.01489258 38.46095093 6.01489258 63.54095093 6.01489258 89.38095093 C31.09489258 89.38095093 56.17489258 89.38095093 82.01489258 89.38095093 C82.01489258 64.30095093 82.01489258 39.22095093 82.01489258 13.38095093 C56.93489258 13.38095093 31.85489258 13.38095093 6.01489258 13.38095093 Z " fill="#FDF9FA" transform="translate(83.985107421875,76.61904907226563)"></path><path d="M0 0 C10.6990334 8.10874111 18.3799988 18.82799588 21.59765625 31.96875 C22.03510683 35.35611847 22.12301831 38.68065018 22.09765625 42.09375 C22.09121094 43.00882324 22.08476562 43.92389648 22.078125 44.86669922 C21.65613991 60.72723087 15.18410348 72.78183071 3.91015625 83.78125 C-8.4116159 94.35901748 -22.64373022 96.99542286 -38.40234375 95.96875 C-52.52153515 93.9468682 -64.71843258 86.61173858 -73.44140625 75.33203125 C-82.00044653 62.56631373 -84.71727489 49.1289268 -83.40234375 33.96875 C-82.52071517 29.71872525 -81.18446335 25.91989674 -79.40234375 21.96875 C-79.05171875 21.18242187 -78.70109375 20.39609375 -78.33984375 19.5859375 C-71.95611684 6.86281513 -60.89109148 -2.29999053 -47.7265625 -7.3046875 C-31.46763499 -12.38731022 -13.91493631 -9.45014379 0 0 Z M-62.83203125 18.74609375 C-70.16040554 29.11884244 -71.62929279 39.55903685 -70.40234375 51.96875 C-67.83551317 62.39721862 -61.41409889 71.63246898 -52.53125 77.68359375 C-42.15300156 83.94862813 -30.91482955 84.67731306 -19.11328125 82.30859375 C-9.27740812 79.10847165 -0.21745521 71.9316432 4.78125 62.80859375 C9.67805248 52.35131958 11.3722289 42.10099937 8.03515625 30.84375 C4.05362887 20.04473012 -4.20049645 11.55694086 -14.21484375 6.03125 C-19.47577803 3.80179114 -24.39181645 3.50762326 -30.02734375 3.46875 C-30.81471924 3.46238525 -31.60209473 3.45602051 -32.41333008 3.44946289 C-44.79082261 3.71671448 -54.97860777 9.26719424 -62.83203125 18.74609375 Z " fill="#FEFAFC" transform="translate(160.40234375,339.03125)"></path><path d="M0 0 C9.62228765 6.03650217 16.80742908 14.82907174 20.33203125 25.6953125 C23.2430162 40.09702749 21.07907589 51.85186524 13.546875 64.42578125 C8.47240866 71.82836814 1.13503076 76.50022577 -7 80 C-7.66386719 80.30035156 -8.32773437 80.60070312 -9.01171875 80.91015625 C-18.85020364 84.82009017 -29.47994417 83.94404099 -39.2421875 80.2734375 C-43.52027945 78.29800127 -47.24688759 75.83034304 -51 73 C-51.886875 72.401875 -52.77375 71.80375 -53.6875 71.1875 C-62.34540742 62.99758758 -66.99482332 52.14284338 -67.34375 40.41381836 C-67.52193619 26.29395489 -63.96197664 16.3501056 -54 6 C-38.31041667 -8.13585761 -18.25016436 -9.77239922 0 0 Z M-39 11 C-39.69867188 11.4125 -40.39734375 11.825 -41.1171875 12.25 C-47.56048666 16.52932322 -51.56665785 22.69997355 -54 30 C-54.84958134 41.37225311 -54.66213428 50.0822965 -47.16796875 59.23828125 C-41.00275483 65.88990258 -34.49476309 69.39142773 -25.45703125 70.23828125 C-16.42608119 70.4917348 -9.57032353 68.44227482 -2.625 62.5625 C5.32901759 54.99257984 8.09998472 48.5740316 8.5 37.5625 C8.2796992 28.38329991 5.47982449 22.4740774 -0.5625 15.6875 C-7.14889487 9.60680212 -14.77371701 6.76031223 -23.6875 6.4375 C-29.56307082 6.69692258 -33.99146236 7.95298091 -39 11 Z " fill="#FEFAFB" transform="translate(414,121)"></path><path d="M0 0 C2.93158448 1.76356736 5.47541479 3.69762767 8 6 C8.86625 6.763125 9.7325 7.52625 10.625 8.3125 C19.85005876 18.75138228 23.94137825 28.94658527 23.38671875 42.80078125 C22.73605183 51.87522431 19.26980815 59.68749748 14 67 C13.443125 67.845625 12.88625 68.69125 12.3125 69.5625 C5.74365339 76.4864194 -1.9949602 80.21308252 -11 83 C-11.99 83.33 -12.98 83.66 -14 84 C-27.25291146 85.17846589 -38.47304432 82.08913437 -49 74 C-49.886875 73.401875 -50.77375 72.80375 -51.6875 72.1875 C-58.87485938 65.38864653 -64.95034001 54.8787833 -65.23828125 44.83984375 C-65.57799164 30.00177904 -63.26255911 19.36457888 -53 8 C-46.38851501 2.0296287 -39.48513654 -1.46305884 -31 -4 C-20.54867977 -7.48377341 -9.61362638 -4.57335651 0 0 Z M-47.16796875 21.48828125 C-52.93413042 29.39370119 -52.83850434 37.65666591 -52 47 C-49.36158771 57.68895234 -43.11623199 63.34064318 -34 69 C-27.11002481 72.37168999 -18.93283135 71.74984259 -11.6875 69.75 C-2.9794799 66.76047499 3.29850359 60.8904212 8.17578125 53.12890625 C11.52394419 45.75025332 11.07359904 35.95237252 9.0625 28.25 C5.77979969 19.98930815 -1.19805404 13.81119639 -8.95703125 9.83984375 C-23.80046864 3.73785706 -37.15998478 10.49331662 -47.16796875 21.48828125 Z " fill="#FEFAFB" transform="translate(412,217)"></path><path d="M0 0 C1.16789062 0.34998047 1.16789062 0.34998047 2.359375 0.70703125 C14.54933876 4.85237607 23.25553094 15.04225565 28.875 26.3125 C33.00937782 36.96491974 32.68049822 49.08593989 28.4375 59.625 C22.21933527 72.07582402 14.2401233 79.74436 1.25 84.9375 C-10.23195514 88.69840071 -21.03592382 88.06273206 -32 83 C-35.17151775 81.19734401 -38.08975447 79.19470996 -41 77 C-41.886875 76.401875 -42.77375 75.80375 -43.6875 75.1875 C-50.87485938 68.38864653 -56.95034001 57.8787833 -57.23828125 47.83984375 C-57.57780668 33.0098578 -55.26928179 22.35297484 -45 11 C-32.41584292 -0.21099794 -16.39766136 -5.58424294 0 0 Z M-37.53125 22.0546875 C-43.98437248 30.60164228 -45.25119713 38.53945751 -44.29541016 49.04101562 C-43.23856432 56.04938834 -39.30650617 61.48946976 -34 66 C-33.2575 66.680625 -32.515 67.36125 -31.75 68.0625 C-24.45408688 73.20280243 -17.91904858 75.04264934 -9 74 C1.58747247 71.87945436 8.63814806 66.66503895 15 58 C19.3419608 50.13831019 19.28410424 39.85131901 17.0625 31.3125 C13.806152 23.01110581 6.82590316 16.82345863 -0.95703125 12.83984375 C-13.96686822 7.49163161 -28.3462917 11.65407296 -37.53125 22.0546875 Z " fill="#FEFAFB" transform="translate(404,310)"></path><path d="M0 0 C3.55869147 1.42347659 6.8046371 2.86174893 10.18359375 4.6171875 C11.18213379 5.13547119 12.18067383 5.65375488 13.20947266 6.18774414 C14.27472168 6.74453857 15.3399707 7.30133301 16.4375 7.875 C17.54915527 8.45435303 18.66081055 9.03370605 19.80615234 9.63061523 C27.84816128 13.8369669 35.82688687 18.14958541 43.77954102 22.52197266 C54.09869526 28.18144123 64.54597785 33.59484474 75 39 C75 39.66 75 40.32 75 41 C73.8550708 41.5873291 73.8550708 41.5873291 72.68701172 42.18652344 C55.30740584 51.11210127 38.06125651 60.23233526 20.95849609 69.68017578 C17.89079746 71.37340779 14.82045066 73.06176509 11.75 74.75 C10.8019751 75.2761792 9.8539502 75.8023584 8.87719727 76.34448242 C8.00506592 76.82377197 7.13293457 77.30306152 6.234375 77.796875 C5.07760254 78.43641113 5.07760254 78.43641113 3.89746094 79.08886719 C2 80 2 80 0 80 C0 53.6 0 27.2 0 0 Z " fill="#CC2264" transform="translate(90,216)"></path></svg>