<svg version="1.1" xmlns="http://www.w3.org/2000/svg" width="16px" height="16px" fill="currentColor" viewBox="0 0 512 512"><path d="M0 0 C168.96 0 337.92 0 512 0 C512 168.96 512 337.92 512 512 C343.04 512 174.08 512 0 512 C0 343.04 0 174.08 0 0 Z " fill="#2D8F7A" transform="translate(0,0)"></path><path d="M0 0 C0.83968323 -0.00029205 1.67936646 -0.00058411 2.54449463 -0.00088501 C5.30402162 0.00050192 8.06327442 0.01603305 10.82275391 0.03173828 C12.74231824 0.03547067 14.66188449 0.03831658 16.58145142 0.04031372 C21.62190047 0.04793235 26.66223339 0.06756562 31.70263672 0.08972168 C36.85073272 0.11021828 41.99884757 0.11932359 47.14697266 0.12939453 C57.23947146 0.15081319 67.33188426 0.18492774 77.42431641 0.22705078 C77.42431641 4.51705078 77.42431641 8.80705078 77.42431641 13.22705078 C75.8160498 13.22918831 75.8160498 13.22918831 74.17529297 13.23136902 C64.05287081 13.2480651 53.93084933 13.29091853 43.80863953 13.35914135 C38.60511554 13.3933785 33.40188413 13.41851627 28.19824219 13.42260742 C23.1729292 13.42689735 18.14827587 13.45541793 13.12316895 13.50048256 C11.20955248 13.51343533 9.29585699 13.51777313 7.38220215 13.51320457 C4.69369985 13.50828271 2.00711384 13.53445992 -0.68115234 13.56762695 C-1.46590439 13.55900131 -2.25065643 13.55037567 -3.05918884 13.54148865 C-8.98937973 13.66349961 -12.94013979 15.5590965 -17.57568359 19.22705078 C-24.09545319 26.26153903 -23.94833111 32.56793103 -23.94628906 41.76123047 C-23.95064257 43.95636749 -23.98692527 46.14945931 -24.02490234 48.34423828 C-24.09942771 57.54726861 -23.58882542 64.12270119 -16.82568359 71.03955078 C-9.158772 76.19997205 -2.52839124 76.66334167 6.48043823 76.61473083 C8.28095443 76.62280914 8.28095443 76.62280914 10.1178447 76.63105065 C13.43270169 76.64284639 16.74705337 76.64127586 20.06188989 76.63388383 C23.64345627 76.62914247 27.22496939 76.64167058 30.80651855 76.65190125 C37.81661902 76.66907596 44.8266298 76.66993199 51.83674584 76.66468834 C57.53632618 76.66064275 63.23588006 76.66209481 68.93545914 76.6674366 C69.74744419 76.66818502 70.55942925 76.66893344 71.39601991 76.66970455 C73.04570833 76.67123606 74.69539675 76.67277441 76.34508516 76.67431951 C91.80726575 76.68803987 107.26939571 76.68261024 122.73157515 76.6711343 C136.86665463 76.66120349 151.00160318 76.67414076 165.13666247 76.69806849 C179.66215704 76.72247125 194.18759066 76.7320644 208.71310532 76.72541577 C216.86342115 76.72192602 225.01363632 76.72413938 233.16393661 76.74166679 C240.10245831 76.75640355 247.04080845 76.7570051 253.97932683 76.73959588 C257.5168442 76.73109534 261.05405531 76.72891275 264.59155655 76.74424744 C268.43260277 76.7606913 272.27317873 76.74592014 276.11422729 76.72825623 C277.22358072 76.73786123 278.33293415 76.74746624 279.47590435 76.75736231 C287.03429155 76.68597307 294.57716501 75.74806414 300.36841762 70.44775862 C306.8644837 63.26359478 306.82669403 56.62809695 306.84985352 47.265625 C306.86170822 44.99774782 306.91087145 42.73263199 306.96142578 40.46533203 C307.047702 32.74630123 307.05770657 26.13372558 301.42431641 20.22705078 C295.79728286 15.01175139 291.56185225 13.9286876 283.98388672 13.90820312 C283.13474197 13.8981575 282.28559723 13.88811188 281.41072083 13.87776184 C278.60796781 13.84690605 275.80531043 13.82988803 273.00244141 13.81298828 C271.05758846 13.79427856 269.11274364 13.7747053 267.16790771 13.75430298 C262.05190829 13.70295507 256.93588255 13.66334352 251.81976318 13.62615967 C246.59803745 13.58613674 241.37642148 13.53503658 236.15478516 13.48486328 C225.91137265 13.38807248 215.6678982 13.30367773 205.42431641 13.22705078 C205.42431641 8.93705078 205.42431641 4.64705078 205.42431641 0.22705078 C216.35146236 0.15738405 227.27855502 0.10415497 238.20587826 0.07161427 C243.28048006 0.05599235 248.35492932 0.03481773 253.42944336 0.00073242 C258.33129427 -0.03198516 263.23299892 -0.04982834 268.13495064 -0.05758095 C270.00035464 -0.06310225 271.86575111 -0.07388383 273.73109245 -0.09013939 C276.35418555 -0.11207874 278.97668269 -0.11490931 281.59985352 -0.11352539 C282.74353645 -0.12970413 282.74353645 -0.12970413 283.9103241 -0.14620972 C294.20636392 -0.08785038 302.99356583 4.05337715 310.40478516 11.11376953 C319.28297698 20.74916321 320.6474797 29.49874131 320.71948242 42.22412109 C320.73095174 43.63210134 320.75132317 45.04003985 320.78100586 46.44775391 C321.07162962 60.25481808 318.29542336 69.66798075 308.90478516 79.87939453 C300.47182163 87.94303118 289.92913089 89.97375116 278.65939331 89.85523987 C276.81699859 89.86588145 276.81699859 89.86588145 274.93738377 89.87673801 C271.56281925 89.89119159 268.18967993 89.88351894 264.8152225 89.86601508 C261.16281908 89.85255849 257.51051729 89.86810751 253.85812378 89.87983704 C246.71748958 89.89815552 239.57713017 89.88974077 232.43650471 89.87174881 C226.63117439 89.85768932 220.82591837 89.85383719 215.02057266 89.85719109 C214.1924774 89.85766853 213.36438213 89.85814597 212.51119307 89.85863788 C210.82864878 89.85966427 209.1461045 89.86071963 207.46356024 89.86180364 C192.60716245 89.87035871 177.75089686 89.8537334 162.89453125 89.82397461 C148.49408417 89.79512967 134.09382743 89.78806015 119.69335938 89.8034668 C103.99122492 89.82024318 88.28918071 89.82424933 72.58704388 89.80675644 C70.91150547 89.80491215 69.23596705 89.80307742 67.56042862 89.80125237 C66.73614251 89.80034028 65.91185641 89.79942819 65.06259193 89.79848846 C59.26624932 89.7928928 53.4699509 89.79618107 47.67361069 89.80279732 C40.60707705 89.81054365 33.54073048 89.80373094 26.47423445 89.77862228 C22.87189489 89.76615845 19.26984611 89.75994257 15.66749573 89.77116394 C11.75657632 89.78311618 7.84615471 89.76388588 3.93527222 89.74171448 C2.24031626 89.75407563 2.24031626 89.75407563 0.51111877 89.7666865 C-10.79790928 89.64854445 -19.3393998 85.94165058 -27.57568359 78.22705078 C-36.79182119 68.53881705 -38.24837013 57.20730164 -38.13818359 44.28955078 C-38.16203125 43.00886719 -38.18587891 41.72818359 -38.21044922 40.40869141 C-38.19226096 28.50750818 -35.16016205 18.88486766 -26.82177734 10.19970703 C-18.8207374 3.17270673 -10.62482868 -0.09762225 0 0 Z " fill="#FBFDFC" transform="translate(114.57568359375,345.77294921875)"></path><path d="M0 0 C7.4154557 4.26767042 13.38790474 10.50766521 16.5 18.5625 C18.69618109 28.00607868 18.13171009 36.9447874 13.5 45.5625 C7.7938542 53.52195681 2.05419384 58.17395154 -7.5 60.5625 C-7.83 75.7425 -8.16 90.9225 -8.5 106.5625 C-3.22 107.8825 2.06 109.2025 7.5 110.5625 C13.41491938 112.1286348 19.31191022 113.75249477 25.20483398 115.39916992 C26.96534705 115.88919945 28.72710602 116.37477159 30.48999023 116.85620117 C33.07553391 117.56246945 35.65716734 118.28164008 38.23828125 119.00390625 C39.02568192 119.21648575 39.81308258 119.42906525 40.62434387 119.64808655 C47.3509063 121.55909511 47.3509063 121.55909511 49.5 124.5625 C49.86914349 127.33671856 49.86914349 127.33671856 49.86076355 130.7696991 C49.86488754 132.06960281 49.86901154 133.36950653 49.8732605 134.70880127 C49.86264298 136.15246789 49.85173855 137.59613242 49.84057617 139.03979492 C49.83973011 140.55745934 49.84020464 142.07512499 49.84190369 143.5927887 C49.84276587 147.71655364 49.82510409 151.84005781 49.80418181 155.96376204 C49.78545218 160.27191461 49.78366751 164.58007289 49.78010559 168.88825989 C49.77077419 177.04805662 49.74614562 185.20773305 49.71605712 193.36747676 C49.68254716 202.65634901 49.66603568 211.94522694 49.65097082 221.23414457 C49.61959699 240.34366652 49.5662123 259.45306919 49.5 278.5625 C45.21 278.5625 40.92 278.5625 36.5 278.5625 C36.5 230.3825 36.5 182.2025 36.5 132.5625 C31.22 131.2425 25.94 129.9225 20.5 128.5625 C17.23606111 127.68319338 13.98065851 126.79686969 10.73046875 125.87109375 C9.50992546 125.52402122 9.50992546 125.52402122 8.26472473 125.16993713 C6.58350221 124.69014791 4.90272607 124.20879163 3.22241211 123.72583008 C1.51047987 123.23564665 -0.20278027 122.75008066 -1.91723633 122.26879883 C-4.43334032 121.56246998 -6.94546453 120.84336746 -9.45703125 120.12109375 C-10.22255814 119.90851425 -10.98808502 119.69593475 -11.77680969 119.47691345 C-18.24830147 117.58644741 -18.24830147 117.58644741 -20.5 114.5625 C-20.89872742 112.15168762 -20.89872742 112.15168762 -20.93237305 109.26489258 C-20.95216721 108.18399857 -20.97196136 107.10310455 -20.99235535 105.98945618 C-20.99874527 104.82375595 -21.00513519 103.65805573 -21.01171875 102.45703125 C-21.03864555 100.66551888 -21.03864555 100.66551888 -21.06611633 98.83781433 C-21.12037033 95.01691232 -21.15416429 91.19613629 -21.1875 87.375 C-21.22065965 84.78709178 -21.25514802 82.19920023 -21.29101562 79.61132812 C-21.37610557 73.26183172 -21.44439153 66.91231931 -21.5 60.5625 C-22.31295532 60.26702271 -22.31295532 60.26702271 -23.14233398 59.96557617 C-23.85719971 59.70236572 -24.57206543 59.43915527 -25.30859375 59.16796875 C-26.01556396 58.90910889 -26.72253418 58.65024902 -27.45092773 58.38354492 C-34.7030829 55.47767124 -40.24064165 49.87582048 -43.83203125 43.01953125 C-47.27834871 34.58031571 -48.01326993 26.06505525 -45 17.375 C-40.95757209 8.6304424 -34.67773002 2.55927982 -25.90625 -1.39453125 C-17.16172811 -4.07203967 -8.37801168 -3.77645223 0 0 Z " fill="#FBFDFC" transform="translate(174.5,112.4375)"></path><path d="M0 0 C8.30995312 4.23690568 14.57654784 10.65181015 18.1484375 19.2890625 C21.16704023 29.12342432 20.49341535 37.0058629 15.6953125 46.09448242 C11.35991428 53.65698956 5.69084098 58.38499212 -2.5078125 61.3203125 C-12.72443412 63.67799441 -21.39091415 62.26100139 -30.4140625 57.2890625 C-36.45548336 52.53305033 -40.90843381 47.30594858 -43.3515625 39.9765625 C-43.3515625 38.9865625 -43.3515625 37.9965625 -43.3515625 36.9765625 C-54.2415625 36.9765625 -65.1315625 36.9765625 -76.3515625 36.9765625 C-76.3515625 96.0465625 -76.3515625 155.1165625 -76.3515625 215.9765625 C-80.6415625 215.9765625 -84.9315625 215.9765625 -89.3515625 215.9765625 C-89.44493622 191.53352778 -89.51550757 167.09051972 -89.55881119 142.64734268 C-89.57945077 131.29836318 -89.60759809 119.94949439 -89.65332031 108.60058594 C-89.69314528 98.71076057 -89.71898515 88.82101537 -89.72791648 78.93111205 C-89.73313857 73.69274586 -89.74544143 68.45460902 -89.77448273 63.21631622 C-89.80158322 58.28828003 -89.81001836 53.36056823 -89.80399323 48.4324646 C-89.80509587 46.62161243 -89.81308163 44.81074969 -89.8283844 42.99996185 C-89.84822875 40.53116903 -89.8435226 38.06360774 -89.83258057 35.5947876 C-89.84423193 34.87494068 -89.8558833 34.15509377 -89.86788774 33.41343331 C-89.82683738 29.99690095 -89.5752174 28.26444539 -87.45121765 25.53048706 C-85.05966996 23.76053703 -83.98142536 23.48704608 -81.04199219 23.52246094 C-80.20142273 23.52276306 -79.36085327 23.52306519 -78.49481201 23.52337646 C-77.14773163 23.55434418 -77.14773163 23.55434418 -75.7734375 23.5859375 C-74.8468634 23.59159729 -73.92028931 23.59725708 -72.96563721 23.60308838 C-70.01041688 23.62545329 -67.05641545 23.67564988 -64.1015625 23.7265625 C-62.0963717 23.74662735 -60.09116186 23.76487815 -58.0859375 23.78125 C-53.17401056 23.8253185 -48.26299308 23.89434695 -43.3515625 23.9765625 C-43.14249268 22.32527344 -43.14249268 22.32527344 -42.92919922 20.640625 C-41.86355506 13.88103605 -37.90747752 8.94511543 -32.546875 4.81640625 C-22.69345604 -1.54780467 -11.42295992 -3.48812995 0 0 Z " fill="#FBFDFC" transform="translate(377.3515625,175.0234375)"></path><path d="M0 0 C7.42148071 5.27723267 12.69322481 11.47133572 14.8125 20.4375 C14.874375 21.613125 14.93625 22.78875 15 24 C15.07347656 24.73734375 15.14695312 25.4746875 15.22265625 26.234375 C15.73469233 34.47946885 13.16727955 41.75121036 8.23828125 48.36328125 C3.65659355 53.29812135 -1.68330757 56.66630191 -8 59 C-8.99 59 -9.98 59 -11 59 C-11 128.96 -11 198.92 -11 271 C-14.96 271 -18.92 271 -23 271 C-23 201.04 -23 131.08 -23 59 C-24.98 58.67 -26.96 58.34 -29 58 C-38.05011259 53.57447963 -44.9630068 46.19351324 -48.34375 36.70703125 C-50.51894426 27.73435491 -49.43858839 18.81667755 -44.74609375 10.87890625 C-34.60228509 -3.74255091 -15.91877004 -9.69324763 0 0 Z " fill="#FDFEFD" transform="translate(273,81)"></path><path d="M0 0 C6.13918069 2.79053668 10.15151883 7.06446932 12.8125 13.3125 C13.8382455 20.51936124 11.98712138 26.01307446 8 32.0625 C3.5166359 36.67396021 -0.38635022 37.53494369 -6.6875 37.75 C-12.0518357 37.59777708 -15.22110737 37.18215135 -19.1875 33.3125 C-19.74308594 32.78785156 -20.29867188 32.26320312 -20.87109375 31.72265625 C-24.64187634 27.60353347 -25.63446716 24.26374284 -25.8125 18.6875 C-25.50103579 12.55731802 -24.21704969 9.19624248 -19.7265625 4.921875 C-13.67940692 -0.41926749 -7.88984237 -2.47966474 0 0 Z " fill="#3C9F89" transform="translate(371.1875,186.6875)"></path><path d="M0 0 C5.14448349 2.71113169 8.49026005 7.00521279 10.74609375 12.265625 C11.73372576 19.01827179 10.75642469 24.70809848 6.74609375 30.265625 C2.41151316 35.05070976 -2.29731405 36.93711476 -8.62890625 37.640625 C-14.53179784 37.02998104 -19.18352241 34.81890014 -23.12890625 30.328125 C-27.19743736 24.46465369 -28.29175132 19.35756632 -27.25390625 12.265625 C-25.32940512 7.3169078 -21.94479514 3.00644128 -17.47265625 0.11328125 C-12.01833253 -1.97050088 -5.52044616 -1.79868956 0 0 Z " fill="#31927D" transform="translate(168.25390625,123.734375)"></path><path d="M0 0 C4.64869258 2.69034765 7.45543695 6.41982817 9.5625 11.3125 C10.54820043 18.05194017 9.58517667 23.77206496 5.5625 29.3125 C1.37017917 33.71779969 -3.05058673 36.58387337 -9.1875 36.75 C-14.71938104 36.63577237 -18.2564014 34.84514118 -22.4375 31.3125 C-27.48028759 26.00430253 -28.99128837 21.09681104 -28.80859375 13.875 C-28.05676948 8.68345555 -25.48904851 5.22016163 -21.7109375 1.70703125 C-15.17260301 -3.0958194 -7.31641463 -3.32440441 0 0 Z " fill="#3B9E88" transform="translate(265.4375,91.6875)"></path><path d="M0 0 C8.58 0 17.16 0 26 0 C26 4.29 26 8.58 26 13 C17.42 13 8.84 13 0 13 C0 8.71 0 4.42 0 0 Z " fill="#F7FAFA" transform="translate(339,384)"></path><path d="M0 0 C8.25 0 16.5 0 25 0 C25 4.29 25 8.58 25 13 C16.75 13 8.5 13 0 13 C0 8.71 0 4.42 0 0 Z " fill="#FAFCFC" transform="translate(378,384)"></path></svg>