<svg version="1.1" xmlns="http://www.w3.org/2000/svg" width="16px" height="16px" fill="currentColor" viewBox="0 0 512 512"><path d="M0 0 C168.96 0 337.92 0 512 0 C512 168.96 512 337.92 512 512 C343.04 512 174.08 512 0 512 C0 343.04 0 174.08 0 0 Z " fill="#7847D5" transform="translate(0,0)"></path><path d="M0 0 C8.03609386 5.6617934 14.01742048 13.01128687 16.6875 22.578125 C18.26663339 33.96022679 16.47367393 43.78912348 10.875 53.828125 C3.54330994 63.04510679 -3.45088927 67.88360918 -15.3125 69.578125 C-15.3125 83.438125 -15.3125 97.298125 -15.3125 111.578125 C-11.0225 111.578125 -6.7325 111.578125 -2.3125 111.578125 C1.04983472 111.91461339 4.30136143 112.29015396 7.625 112.828125 C8.48488525 112.96452393 9.34477051 113.10092285 10.23071289 113.24145508 C17.58338978 114.46358086 24.62693848 116.16539643 31.6875 118.578125 C32.44579102 118.8369043 33.20408203 119.09568359 33.98535156 119.36230469 C81.11487538 135.71260989 119.86861248 167.92952231 141.90429688 212.96826172 C151.27464681 232.66990958 162.32645202 260.78748795 157.14453125 282.89453125 C153.43909895 290.67072017 142.66284504 294.40105259 135.1484375 297.36328125 C87.43438134 314.11166891 32.2577822 314.01299861 -17.81050873 313.83607483 C-20.23616024 313.82796226 -22.66180234 313.82303691 -25.08746338 313.81872559 C-48.19506852 313.77148619 -71.28470055 313.70433527 -94.3125 311.578125 C-95.04980347 311.5102478 -95.78710693 311.44237061 -96.54675293 311.37243652 C-177.71210827 303.78597264 -177.71210827 303.78597264 -197.8125 286.203125 C-203.56889586 278.47267715 -200.66405178 265.3949827 -199.47949219 256.44897461 C-194.08509537 220.37115956 -177.2195823 189.77612315 -152.3125 163.578125 C-151.69375 162.89492188 -151.075 162.21171875 -150.4375 161.5078125 C-139.72064985 150.07331614 -126.00482165 141.05088359 -112.3125 133.578125 C-111.68553223 133.23442871 -111.05856445 132.89073242 -110.41259766 132.53662109 C-84.22910865 118.37853556 -57.71869412 113.21358579 -28.3125 110.578125 C-27.9825 97.048125 -27.6525 83.518125 -27.3125 69.578125 C-29.9525 69.248125 -32.5925 68.918125 -35.3125 68.578125 C-45.89895972 64.13119643 -53.05347567 56.44811908 -57.40234375 45.99609375 C-60.80592343 36.95396575 -61.17511544 25.60944427 -57.16235352 16.66503906 C-51.7746903 6.18670451 -44.12547959 -0.87943868 -33.1875 -5.234375 C-21.25583027 -8.78717855 -10.39114172 -6.38914795 0 0 Z " fill="#FCFBFE" transform="translate(277.3125,121.421875)"></path><path d="M0 0 C33.66 0 67.32 0 102 0 C102 39.6 102 79.2 102 120 C94.12469855 121.12504306 94.12469855 121.12504306 90.90919495 121.12698364 C89.81405579 121.13121338 89.81405579 121.13121338 88.6967926 121.13552856 C87.92101364 121.13350433 87.14523468 121.1314801 86.34594727 121.12939453 C85.50921478 121.13114685 84.6724823 121.13289917 83.81039429 121.13470459 C81.06237677 121.13908229 78.31442435 121.13619926 75.56640625 121.1328125 C73.64501432 121.13348677 71.72362247 121.13445783 69.80223083 121.13571167 C65.7818012 121.13718317 61.76139384 121.13505192 57.7409668 121.13037109 C52.60213984 121.124678 47.46336517 121.12795365 42.32454014 121.13394356 C38.35845042 121.13756723 34.39237298 121.13640222 30.42628288 121.13381577 C28.53216483 121.1331513 26.63804564 121.13395806 24.74392891 121.13629532 C22.09040527 121.13885112 19.43696476 121.13494002 16.78344727 121.12939453 C16.00969254 121.13141876 15.23593781 121.13344299 14.43873596 121.13552856 C13.70582336 121.13270874 12.97291077 121.12988892 12.2177887 121.12698364 C11.28013593 121.1264181 11.28013593 121.1264181 10.32354069 121.12584114 C6.86702336 120.93863887 3.43485221 120.42935653 0 120 C0 80.4 0 40.8 0 0 Z " fill="#6F41CB" transform="translate(205,301)"></path><path d="M0 0 C0 13.86 0 27.72 0 42 C-18.81 42 -37.62 42 -57 42 C-57 66.42 -57 90.84 -57 116 C-59.20654359 117.10327179 -60.58207593 117.20402494 -63.03125 117.359375 C-93.10907167 119.50010492 -125.58265023 122.66655421 -153.40234375 134.8984375 C-156 136 -156 136 -158 136 C-155.86462389 99.69860608 -134.71813494 64.87731036 -108 41 C-77.26207943 15.13627075 -40.33698144 0 0 0 Z " fill="#6B3EC7" transform="translate(249,246)"></path><path d="M0 0 C43.66668375 0 84.9630339 21.48872527 115.56298828 51.53125 C119.37312239 55.4255359 122.69764277 59.67635822 126 64 C126.73734375 64.92167969 127.4746875 65.84335937 128.234375 66.79296875 C134.43452781 74.71419846 139.36725502 83.10150288 144 92 C144.32774414 92.6280957 144.65548828 93.25619141 144.99316406 93.90332031 C149.96524734 103.58740866 153.25581005 113.48360571 156 124 C156.19126465 124.70656738 156.3825293 125.41313477 156.57958984 126.14111328 C157.48565157 129.57715981 158 132.42009589 158 136 C152.76297184 135.11900461 148.01160512 133.21824656 143.05859375 131.3515625 C133.48322645 128.00616008 123.45376762 126.19909277 113.4909668 124.42993164 C111.51739125 124.07679513 109.54669594 123.70767536 107.57617188 123.33789062 C91.1012923 120.39400597 74.72373948 118.91128451 58 117 C58 92.58 58 68.16 58 43 C38.86 43 19.72 43 0 43 C0 28.81 0 14.62 0 0 Z " fill="#7A49D6" transform="translate(262,245)"></path><path d="M0 0 C0 14.85 0 29.7 0 45 C-6.94508045 45 -13.57414818 44.93709402 -20.4375 44.25 C-21.32091064 44.16202148 -22.20432129 44.07404297 -23.11450195 43.98339844 C-40.22207186 42.20010311 -57.21264097 39.84906738 -74 36.0625 C-75.54627075 35.71977051 -75.54627075 35.71977051 -77.1237793 35.37011719 C-85.83881392 33.30851134 -94.94831427 30.72221845 -102 25 C-100.5023206 20.62216789 -97.77306621 19.48447212 -93.75 17.5 C-92.07164063 16.64921875 -92.07164063 16.64921875 -90.359375 15.78125 C-80.11382857 11.2714906 -68.81169505 9.12204531 -57.875 7 C-57.23234192 6.87437683 -56.58968384 6.74875366 -55.92755127 6.61932373 C-37.75101623 3.10430384 -18.53351779 0 0 0 Z " fill="#6439BF" transform="translate(192,375)"></path><path d="M0 0 C18.9085023 1.18178139 18.9085023 1.18178139 27.25 2.25 C28.73959229 2.43961304 28.73959229 2.43961304 30.25927734 2.63305664 C87.72492186 10.24207365 87.72492186 10.24207365 101 22 C101 23.32 101 24.64 101 26 C87.16995045 33.98540944 71.45237763 36.75655055 55.875 39.1875 C54.34489799 39.43590163 52.81494932 39.68524967 51.28515625 39.93554688 C46.86113287 40.65343777 42.43261396 41.33732725 38 42 C37.32722015 42.10078857 36.65444031 42.20157715 35.96127319 42.30541992 C27.49111496 43.55551987 19.11779035 44.35167632 10.5625 44.625 C5.3340625 44.810625 5.3340625 44.810625 0 45 C0 30.15 0 15.3 0 0 Z " fill="#7445D0" transform="translate(320,375)"></path><path d="M0 0 C6.42497843 3.64185573 11.47346296 8.8693455 13.6875 16 C14.61876275 26.23179591 13.94888388 33.13375689 7.5 41.1875 C1.77737636 47.30192153 -2.90106952 49.21273663 -11.3125 49.5 C-20.47633454 49.19682084 -25.4060718 46.35513706 -31.76953125 39.9765625 C-35.6927212 34.95090652 -36.84519773 30.41325607 -36.75 24.125 C-36.74097656 23.41609619 -36.73195312 22.70719238 -36.72265625 21.97680664 C-36.45416547 13.87640249 -34.3069997 9.64495215 -28.5 4.1875 C-20.00627081 -2.638653 -10.14974774 -4.57976422 0 0 Z " fill="#804EDC" transform="translate(267.3125,130)"></path><path d="M0 0 C29.37 0 58.74 0 89 0 C89 3.96 89 7.92 89 12 C59.63 12 30.26 12 0 12 C0 8.04 0 4.08 0 0 Z " fill="#FEFEFF" transform="translate(320,154)"></path><path d="M0 0 C29.37 0 58.74 0 89 0 C89 3.96 89 7.92 89 12 C59.63 12 30.26 12 0 12 C0 8.04 0 4.08 0 0 Z " fill="#FFFFFF" transform="translate(109,154)"></path><path d="M0 0 C3.44620861 1.1487362 4.09169196 2.07581642 6.1875 4.9375 C6.71730469 5.64777344 7.24710937 6.35804687 7.79296875 7.08984375 C9 9 9 9 9 11 C7.07335518 12.49918986 5.1418187 13.88064909 3.125 15.25 C-2.68158071 19.28981773 -8.31136476 23.50704513 -13.875 27.875 C-20.3776595 32.97347911 -26.93506999 37.98532625 -33.55810547 42.92626953 C-38.42067464 46.55614456 -43.23579014 50.24156777 -48 54 C-50.93200474 51.14723863 -53.64315404 48.34920216 -56 45 C-54.57074331 41.5705315 -52.91339029 39.87804188 -49.94921875 37.671875 C-49.11575928 37.04482666 -48.2822998 36.41777832 -47.42358398 35.77172852 C-46.52067627 35.10455811 -45.61776855 34.4373877 -44.6875 33.75 C-42.77586319 32.31664424 -40.86441016 30.88304336 -38.953125 29.44921875 C-37.96892578 28.71493652 -36.98472656 27.9806543 -35.97070312 27.22412109 C-32.16927599 24.37804934 -28.39430198 21.49829398 -24.62182617 18.61401367 C-21.9926791 16.60467098 -19.3581403 14.60258282 -16.72265625 12.6015625 C-13.83829296 10.40905468 -10.96936436 8.20010134 -8.12109375 5.9609375 C-7.56107666 5.52579834 -7.00105957 5.09065918 -6.42407227 4.64233398 C-5.00400284 3.53783554 -3.59145434 2.42368495 -2.1796875 1.30859375 C-1.46039063 0.87675781 -0.74109375 0.44492188 0 0 Z " fill="#FBFAFE" transform="translate(357,79)"></path><path d="M0 0 C3.38031043 0.61675839 5.44849724 1.84818909 8.16796875 3.921875 C9.37102661 4.83187256 9.37102661 4.83187256 10.59838867 5.76025391 C11.45279541 6.41687012 12.30720215 7.07348633 13.1875 7.75 C14.07735596 8.42595215 14.96721191 9.1019043 15.8840332 9.79833984 C18.59415453 11.85935489 21.2975255 13.92897293 24 16 C25.49967295 17.14365815 26.99965062 18.2869169 28.5 19.4296875 C31.2685588 21.53976446 34.03055348 23.65805783 36.7890625 25.78125 C39.78354902 28.08142457 42.80261673 30.34505465 45.8359375 32.59375 C46.62653564 33.18462402 47.41713379 33.77549805 48.23168945 34.38427734 C49.75576103 35.52250195 51.2853596 36.65337278 52.82104492 37.77587891 C53.50013916 38.28554199 54.1792334 38.79520508 54.87890625 39.3203125 C55.4829126 39.76648926 56.08691895 40.21266602 56.70922852 40.67236328 C58 42 58 42 58 45 C56.6875 47.04296875 56.6875 47.04296875 55 49.1875 C54.443125 49.90292969 53.88625 50.61835938 53.3125 51.35546875 C52.879375 51.89816406 52.44625 52.44085938 52 53 C47.22235517 51.47043386 43.97707576 48.77915598 40.1875 45.625 C34.99477988 41.38765875 29.75245178 37.25045783 24.375 33.25 C23.41726685 32.53287842 23.41726685 32.53287842 22.44018555 31.80126953 C19.38459326 29.51486277 16.32316515 27.23730112 13.24707031 24.97851562 C10.3230034 22.8301021 7.41117426 20.66583907 4.5 18.5 C3.09113525 17.47567871 3.09113525 17.47567871 1.65380859 16.43066406 C0.78836426 15.78323242 -0.07708008 15.13580078 -0.96875 14.46875 C-1.74669922 13.89576172 -2.52464844 13.32277344 -3.32617188 12.73242188 C-5 11 -5 11 -5 7 C-3.90625 5.078125 -3.90625 5.078125 -2.5 3.25 C-2.0359375 2.63640625 -1.571875 2.0228125 -1.09375 1.390625 C-0.55234375 0.70226562 -0.55234375 0.70226562 0 0 Z " fill="#FBFAFE" transform="translate(307,178)"></path><path d="M0 0 C3.96487659 1.36622746 6.64201106 3.1488788 9.8125 5.875 C14.23804579 9.58161559 18.74280378 13.11816515 23.375 16.5625 C30.00915957 21.50276242 36.60831083 26.48671482 43.1875 31.5 C44.08452637 32.18263916 44.98155273 32.86527832 45.90576172 33.56860352 C49.97323502 36.66915518 54.02839036 39.77666464 58 43 C56.5140084 47.59306496 54.14985318 50.43569245 51 54 C46.06971853 50.8957487 41.41843006 47.60231909 36.9375 43.875 C31.9566084 39.7345908 26.83702949 35.82882254 21.64233398 31.96142578 C15.56280271 27.43275879 9.52717538 22.84807758 3.5 18.25 C2.5610791 17.53384521 1.6221582 16.81769043 0.65478516 16.07983398 C-1.56385577 14.38705183 -3.78213909 12.69380392 -6 11 C-5.28839233 7.85635166 -4.38003448 5.84004598 -2.4375 3.25 C-1.98246094 2.63640625 -1.52742187 2.0228125 -1.05859375 1.390625 C-0.70925781 0.93171875 -0.35992187 0.4728125 0 0 Z " fill="#FBFAFE" transform="translate(149,79)"></path><path d="M0 0 C1.5078125 1.64453125 1.5078125 1.64453125 3.125 3.8125 C3.66382813 4.52019531 4.20265625 5.22789062 4.7578125 5.95703125 C6 8 6 8 6 11 C4.54150391 12.40356445 4.54150391 12.40356445 2.4765625 13.86328125 C1.71214844 14.41306641 0.94773438 14.96285156 0.16015625 15.52929688 C-0.67644531 16.11775391 -1.51304687 16.70621094 -2.375 17.3125 C-4.13435523 18.57728386 -5.89213149 19.84426659 -7.6484375 21.11328125 C-8.54530273 21.75990723 -9.44216797 22.4065332 -10.36621094 23.07275391 C-14.31355024 25.9611759 -18.15739009 28.97446475 -22 32 C-28.4385951 37.03304183 -34.90492133 42.02687156 -41.4375 46.9375 C-42.24896484 47.55947266 -43.06042969 48.18144531 -43.89648438 48.82226562 C-45.02860352 49.6662793 -45.02860352 49.6662793 -46.18359375 50.52734375 C-47.18217407 51.28132446 -47.18217407 51.28132446 -48.20092773 52.05053711 C-49.09146851 52.52052124 -49.09146851 52.52052124 -50 53 C-53.66161578 51.77946141 -54.16270474 50.63217696 -56.1875 47.4375 C-56.71730469 46.61121094 -57.24710938 45.78492188 -57.79296875 44.93359375 C-58.39044922 43.97646484 -58.39044922 43.97646484 -59 43 C-54.19472965 39.32204733 -49.38773554 35.64636088 -44.57958984 31.97216797 C-42.86585673 30.66197148 -41.15263669 29.35110363 -39.43994141 28.03955078 C-29.77301726 20.63685219 -20.08344839 13.26507334 -10.3125 6 C-9.50441895 5.39422119 -8.69633789 4.78844238 -7.86376953 4.16430664 C-6.74977783 3.34047485 -6.74977783 3.34047485 -5.61328125 2.5 C-4.96141846 2.0153125 -4.30955566 1.530625 -3.63793945 1.03125 C-2 0 -2 0 0 0 Z " fill="#FBFAFD" transform="translate(201,178)"></path><path d="M0 0 C6.27 0 12.54 0 19 0 C19 6.27 19 12.54 19 19 C12.73 19 6.46 19 0 19 C0 12.73 0 6.46 0 0 Z " fill="#FDFCFE" transform="translate(269,371)"></path><path d="M0 0 C6.27 0 12.54 0 19 0 C19 6.27 19 12.54 19 19 C12.73 19 6.46 19 0 19 C0 12.73 0 6.46 0 0 Z " fill="#FCFCFE" transform="translate(224,371)"></path><path d="M0 0 C6.27 0 12.54 0 19 0 C19 5.94 19 11.88 19 18 C12.73 18 6.46 18 0 18 C0 12.06 0 6.12 0 0 Z " fill="#FFFFFF" transform="translate(269,327)"></path><path d="M0 0 C6.27 0 12.54 0 19 0 C19 5.94 19 11.88 19 18 C12.73 18 6.46 18 0 18 C0 12.06 0 6.12 0 0 Z " fill="#FFFFFF" transform="translate(224,327)"></path></svg>