<svg version="1.1" xmlns="http://www.w3.org/2000/svg" width="16px" height="16px" fill="currentColor" viewBox="0 0 512 512"><path d="M0 0 C168.96 0 337.92 0 512 0 C512 168.96 512 337.92 512 512 C343.04 512 174.08 512 0 512 C0 343.04 0 174.08 0 0 Z " fill="#DD2C33" transform="translate(0,0)"></path><path d="M0 0 C1.64071375 -0.01265991 1.64071375 -0.01265991 3.31457323 -0.02557558 C5.12417295 -0.01656051 5.12417295 -0.01656051 6.97033024 -0.00736332 C8.88716959 -0.01544163 8.88716959 -0.01544163 10.84273297 -0.02368313 C14.39699769 -0.03819054 17.95103158 -0.03387666 21.50530922 -0.02651632 C25.33565704 -0.02179995 29.16595381 -0.03428088 32.99628544 -0.04453373 C40.50303621 -0.0617573 48.00970341 -0.06255439 55.51646882 -0.05732083 C61.61620071 -0.05328447 67.71590784 -0.05471631 73.81563854 -0.06006908 C75.1163286 -0.06119172 75.1163286 -0.06119172 76.44329523 -0.06233703 C78.20468871 -0.06386846 79.96608218 -0.0654068 81.72747565 -0.066952 C98.25721464 -0.08068993 114.78690634 -0.0752303 131.31664426 -0.06376678 C146.44870348 -0.05383319 161.58064045 -0.06677494 176.71268081 -0.09070098 C192.23917823 -0.1150663 207.76561866 -0.12470617 223.29213482 -0.11804825 C232.01354086 -0.11455029 240.73485284 -0.11682601 249.45624447 -0.13429928 C256.88070799 -0.14898924 264.30501123 -0.1496989 271.7294715 -0.13222837 C275.51936199 -0.12368934 279.30896579 -0.12163897 283.09884167 -0.13687992 C287.20288635 -0.15318031 291.30623327 -0.13864112 295.41027164 -0.12088871 C296.61444074 -0.13049372 297.81860983 -0.14009872 299.05926889 -0.14999479 C300.1556858 -0.1401805 301.25210272 -0.13036621 302.38174438 -0.12025452 C303.8032563 -0.12009351 303.8032563 -0.12009351 305.25348562 -0.11992925 C308.58564364 0.54674831 309.7517819 1.66257946 311.75379276 4.38031673 C312.25634009 6.86549848 312.25634009 6.86549848 312.25995064 9.71554375 C312.27652217 11.34786883 312.27652217 11.34786883 312.29342848 13.01317018 C312.28106733 14.80570462 312.28106733 14.80570462 312.26845646 16.63445187 C312.27540199 17.90432652 312.28234752 19.17420117 312.28950351 20.48255688 C312.30817434 24.00988948 312.30181091 27.53680351 312.29135048 31.06415379 C312.28437092 34.86725147 312.30034693 38.67026207 312.31334782 42.47333431 C312.33501422 49.92482474 312.33485416 57.37616261 312.32672227 64.8276742 C312.32042778 70.88304356 312.32155424 76.93836835 312.32799435 82.99373722 C312.328896 83.85488899 312.32979766 84.71604076 312.33072663 85.60328804 C312.3325778 87.35260026 312.33444036 89.10191247 312.33631419 90.85122467 C312.35290195 107.26369693 312.34416528 123.67608329 312.32732861 140.0885504 C312.31263172 155.10996775 312.32725815 170.13118509 312.35609878 185.15257668 C312.38547882 200.5695085 312.39646907 215.98634795 312.38691658 231.40330654 C312.38589401 233.14656451 312.3848994 234.88982249 312.38393307 236.63308048 C312.38345668 237.49083526 312.38298029 238.34859005 312.38248946 239.2323374 C312.38032343 245.28092563 312.39013945 251.32942661 312.40470409 257.37799549 C312.42220431 264.74864129 312.42214354 272.11903204 312.39935244 279.48966771 C312.38818882 283.25139116 312.38509497 287.0126649 312.40365314 290.77436924 C312.42350002 294.84968442 312.40472132 298.92389827 312.38198185 302.99919796 C312.39381758 304.19199019 312.40565331 305.38478243 312.41784769 306.61371988 C312.32717457 314.57605736 312.32717457 314.57605736 309.44507599 318.61865997 C305.89869962 320.94004252 302.926104 321.01591212 298.82801151 320.86859798 C298.08042072 320.86152325 297.33282993 320.85444851 296.56258488 320.84715939 C294.18777874 320.81929318 291.81537926 320.75657805 289.44129276 320.69281673 C287.82609258 320.66772342 286.21085522 320.64491204 284.59558964 320.62445736 C280.64740457 320.56949321 276.70100588 320.483282 272.75379276 320.38031673 C272.75379276 316.09031673 272.75379276 311.80031673 272.75379276 307.38031673 C281.33379276 307.38031673 289.91379276 307.38031673 298.75379276 307.38031673 C298.75379276 220.92031673 298.75379276 134.46031673 298.75379276 45.38031673 C201.73379276 45.38031673 104.71379276 45.38031673 4.75379276 45.38031673 C4.75379276 131.84031673 4.75379276 218.30031673 4.75379276 307.38031673 C76.36379276 307.38031673 147.97379276 307.38031673 221.75379276 307.38031673 C221.75379276 311.67031673 221.75379276 315.96031673 221.75379276 320.38031673 C193.03084858 320.47153232 164.30792146 320.54233741 135.584861 320.58457805 C132.1952078 320.58958099 128.8055549 320.59475826 125.41590214 320.6000433 C124.40365759 320.60161716 124.40365759 320.60161716 123.37096366 320.60322282 C112.43872508 320.62063647 101.50657047 320.65217941 90.57438174 320.68892792 C79.36012716 320.72631069 68.1459146 320.74824745 56.93159461 320.75667071 C50.63130974 320.7618945 44.33121546 320.77420831 38.03099155 320.80323696 C32.10490638 320.83032136 26.17909091 320.83877579 20.25294971 320.83274746 C18.07443751 320.83385082 15.89591658 320.84184592 13.71745777 320.85713863 C10.74951874 320.8769571 7.78260619 320.87228546 4.81464481 320.8613348 C3.94694186 320.87298617 3.07923892 320.88463753 2.18524194 320.89664197 C0.99242455 320.88469568 0.99242455 320.88469568 -0.22449017 320.87250805 C-0.90950564 320.87402693 -1.59452112 320.87554581 -2.30029464 320.87711072 C-5.22572679 320.13024413 -6.42138651 318.74344297 -8.24620724 316.38031673 C-8.74645323 313.88000959 -8.74645323 313.88000959 -8.74677849 311.00826836 C-8.75659278 309.91185144 -8.76640707 308.81543453 -8.77651876 307.68579286 C-8.76691376 306.48162377 -8.75730875 305.27745468 -8.74741268 304.03679562 C-8.75294708 302.75734273 -8.75848148 301.47788983 -8.76418358 300.15966564 C-8.77896878 296.60565038 -8.76873925 293.05207679 -8.75444686 289.4980756 C-8.74335829 285.66640115 -8.75527258 281.83478974 -8.7642889 278.00311947 C-8.77823747 270.49613724 -8.77065351 262.98932298 -8.75561332 255.48234873 C-8.73877339 246.74534925 -8.74196089 238.00839184 -8.7457074 229.27138115 C-8.75158885 213.68599559 -8.73740278 198.10069078 -8.71275997 182.5153265 C-8.68883423 167.38183218 -8.68175694 152.24844572 -8.69225216 137.11493587 C-8.70365322 120.64567902 -8.70560181 104.17647209 -8.69115406 87.70721585 C-8.68962818 85.95219807 -8.68810782 84.1971803 -8.68659306 82.44216251 C-8.68583524 81.57859809 -8.68507743 80.71503366 -8.68429665 79.82530062 C-8.67954785 73.73071612 -8.68140944 67.63615387 -8.68565845 61.54156971 C-8.69057755 54.11821243 -8.68463458 46.69495727 -8.66476416 39.27162343 C-8.65487098 35.48190121 -8.64980874 31.69233471 -8.65765667 27.9026041 C-8.66597782 23.80053894 -8.65117487 19.69889123 -8.63388729 15.59685421 C-8.63989734 14.3904544 -8.64590738 13.18405458 -8.65209955 11.9410972 C-8.64365961 10.84728803 -8.63521967 9.75347887 -8.62652397 8.62652397 C-8.62549484 7.67901172 -8.62446571 6.73149946 -8.6234054 5.75527471 C-8.24620724 3.38031673 -8.24620724 3.38031673 -7.05032539 1.57619858 C-4.59973808 -0.04820327 -2.93335708 0.00318603 0 0 Z " fill="#FEF9FA" transform="translate(85.24620723724365,76.61968326568604)"></path><path d="M0 0 C1.15048828 -0.00773438 2.30097656 -0.01546875 3.48632812 -0.0234375 C26.60698733 0.02896059 46.40371142 9.32039775 62.8125 25.375 C81.74714868 45.17031453 87.20811214 68.16463938 86.63818359 94.71875 C86.00798965 115.79568794 74.43331082 135.17024771 59.70117188 149.64453125 C42.00455242 166.26431852 19.88425569 172.9602711 -4.0859375 172.4296875 C-26.18705858 171.65235758 -44.65938719 162.55168666 -60.4375 147.25 C-61.04980469 146.71117187 -61.66210938 146.17234375 -62.29296875 145.6171875 C-75.92929826 133.19783019 -84.40581492 112.6805419 -85.61767578 94.55517578 C-86.74999256 69.97294368 -81.36614555 47.55464985 -64.79248047 28.73339844 C-47.51395618 9.8173059 -25.69328519 -0.17214931 0 0 Z " fill="#DF2F35" transform="translate(239.4375,134.75)"></path><path d="M0 0 C1.15048828 -0.00773438 2.30097656 -0.01546875 3.48632812 -0.0234375 C26.60698733 0.02896059 46.40371142 9.32039775 62.8125 25.375 C81.74714868 45.17031453 87.20811214 68.16463938 86.63818359 94.71875 C86.00798965 115.79568794 74.43331082 135.17024771 59.70117188 149.64453125 C42.00455242 166.26431852 19.88425569 172.9602711 -4.0859375 172.4296875 C-26.18705858 171.65235758 -44.65938719 162.55168666 -60.4375 147.25 C-61.04980469 146.71117187 -61.66210938 146.17234375 -62.29296875 145.6171875 C-75.92929826 133.19783019 -84.40581492 112.6805419 -85.61767578 94.55517578 C-86.74999256 69.97294368 -81.36614555 47.55464985 -64.79248047 28.73339844 C-47.51395618 9.8173059 -25.69328519 -0.17214931 0 0 Z M-46.4375 29.25 C-47.57251953 30.17425781 -47.57251953 30.17425781 -48.73046875 31.1171875 C-60.78028486 41.1687929 -70.62448289 57.47675111 -72.4375 73.25 C-73.57934028 94.86340537 -71.45200958 116.00072644 -56.49731445 132.93676758 C-54.20279487 135.43664999 -51.83366844 137.84692618 -49.4375 140.25 C-48.79039062 140.9203125 -48.14328125 141.590625 -47.4765625 142.28125 C-33.70467403 155.51188521 -15.61936757 159.84368054 2.86987305 159.6550293 C10.10842292 159.45664238 16.7402877 158.81994079 23.5625 156.25 C24.54863281 155.89808594 25.53476562 155.54617188 26.55078125 155.18359375 C44.55884808 148.25037361 58.92266954 135.70139571 67.0234375 118.0703125 C68.25941403 115.14826393 69.42906708 112.21305686 70.5625 109.25 C70.91699219 108.43273437 71.27148438 107.61546875 71.63671875 106.7734375 C77.17377709 91.68086499 75.10546307 70.67764769 68.5625 56.25 C59.70142832 37.97816237 46.03135787 25.28341939 27.5625 17.25 C26.85609375 16.93417969 26.1496875 16.61835938 25.421875 16.29296875 C2.04076648 6.64588536 -27.81038 12.53984575 -46.4375 29.25 Z " fill="#FEFAFA" transform="translate(239.4375,134.75)"></path><path d="M0 0 C97.02 0 194.04 0 294 0 C294 6.27 294 12.54 294 19 C196.98 19 99.96 19 0 19 C0 12.73 0 6.46 0 0 Z " fill="#E6383D" transform="translate(90,90)"></path><path d="M0 0 C3.60461295 -0.08076726 7.20742563 -0.14038951 10.8125 -0.1875 C11.83666016 -0.21263672 12.86082031 -0.23777344 13.91601562 -0.26367188 C15.39038086 -0.27817383 15.39038086 -0.27817383 16.89453125 -0.29296875 C18.25348511 -0.31653442 18.25348511 -0.31653442 19.63989258 -0.34057617 C22.55663695 0.0803257 23.23503428 0.67387204 25 3 C25.37604749 5.42099285 25.37604749 5.42099285 25.37752342 8.35832214 C25.38534666 9.47713178 25.39316991 10.59594141 25.40123022 11.74865437 C25.39453805 12.98297294 25.38784589 14.21729151 25.38095093 15.48901367 C25.38797089 17.44978867 25.38797089 17.44978867 25.39513266 19.45017529 C25.40769554 23.08618706 25.40144845 26.72196364 25.39217401 30.35797644 C25.38540538 34.27623459 25.39585384 38.19445139 25.40411377 42.11270142 C25.41747675 49.7915766 25.41456198 57.47036397 25.40587585 65.14924264 C25.39910977 71.38818856 25.39817791 77.62710982 25.4014473 83.86605835 C25.401907 84.75290131 25.40236669 85.63974427 25.40284032 86.55346125 C25.40379947 88.35487947 25.40477211 90.15629767 25.4057581 91.95771587 C25.4143195 108.86274215 25.4044661 125.76771967 25.388357 142.67273796 C25.37495313 157.18842525 25.37728102 171.70404057 25.39111328 186.21972656 C25.40715586 203.06289639 25.41349546 219.90602346 25.40427649 236.74919987 C25.40332081 238.54411379 25.4023777 240.33902772 25.4014473 242.13394165 C25.40098447 243.01714984 25.40052164 243.90035802 25.40004479 244.81033009 C25.39745093 251.04416724 25.40183442 257.27797734 25.40888596 263.5118103 C25.41728649 271.10536434 25.41505141 278.69882532 25.39904372 286.29236865 C25.39114142 290.1691734 25.38810255 294.04582278 25.39799118 297.9226265 C25.40853303 302.11888262 25.3959743 306.31474403 25.38095093 310.51098633 C25.39098918 312.36246418 25.39098918 312.36246418 25.40123022 314.25134563 C25.38949535 315.92956008 25.38949535 315.92956008 25.37752342 317.64167786 C25.37703637 318.61099652 25.37654931 319.58031519 25.37604749 320.57900715 C24.93558234 323.41472076 24.27738322 324.30806511 22 326 C20.04475403 326.36076355 20.04475403 326.36076355 17.80395508 326.34057617 C16.96331009 326.34034958 16.1226651 326.34012299 15.25654602 326.33988953 C14.35333115 326.32440567 13.45011627 326.30892181 12.51953125 326.29296875 C11.59154221 326.28872391 10.66355316 326.28447906 9.70744324 326.28010559 C6.74216757 326.26330662 3.7775704 326.22565216 0.8125 326.1875 C-1.19725581 326.17245474 -3.20702227 326.15876606 -5.21679688 326.14648438 C-10.14479286 326.11339908 -15.07228138 326.06160833 -20 326 C-20 321.71 -20 317.42 -20 313 C-9.44 313 1.12 313 12 313 C12 213.67 12 114.34 12 12 C8.04 12 4.08 12 0 12 C0 8.04 0 4.08 0 0 Z " fill="#FEF9F9" transform="translate(410,109)"></path><path d="M0 0 C4.29 0 8.58 0 13 0 C13 15.51 13 31.02 13 47 C18.6615625 44.6178125 18.6615625 44.6178125 24.4375 42.1875 C25.69780029 41.65753418 26.95810059 41.12756836 28.2565918 40.58154297 C34.22896952 38.0579288 40.17334818 35.4909877 46.08203125 32.8203125 C47.20230713 32.31604736 48.32258301 31.81178223 49.47680664 31.29223633 C51.62221265 30.32234703 53.76351909 29.3433262 55.90014648 28.35424805 C56.87669189 27.9137915 57.8532373 27.47333496 58.859375 27.01953125 C60.13506348 26.43328979 60.13506348 26.43328979 61.43652344 25.83520508 C67.67363418 23.803095 72.21978251 25.62189537 77.93359375 28.2890625 C78.68858658 28.62996918 79.44357941 28.97087585 80.22145081 29.32211304 C82.63172709 30.41259692 85.03477794 31.51798417 87.4375 32.625 C89.80924236 33.70782071 92.18244685 34.78729217 94.55714417 35.86361694 C96.02865111 36.53162542 97.49838164 37.20357155 98.96568298 37.88076782 C106.22492276 41.19684639 113.55552884 44.02221153 121 47 C121 31.49 121 15.98 121 0 C125.29 0 129.58 0 134 0 C134.09033983 7.90160798 134.16373715 15.80281507 134.20724869 23.70480061 C134.22813122 27.37395208 134.25645977 31.0427322 134.30175781 34.71166992 C134.34519373 38.25190572 134.36913209 41.79178417 134.37950897 45.33226585 C134.39050595 47.34152905 134.42173582 49.3506483 134.45318604 51.35969543 C134.45348816 52.58073471 134.45379028 53.80177399 134.45410156 55.05981445 C134.46298401 56.13681107 134.47186646 57.21380768 134.48101807 58.32344055 C134 61 134 61 132.18475342 62.86784363 C128.6463245 64.70148527 125.68039667 64.02786508 122 63 C118.06645744 61.49094178 114.24537405 59.77622094 110.42825317 57.99465942 C108.53269071 57.11110538 106.63070887 56.24300893 104.72631836 55.37866211 C99.57402957 53.03666869 94.4329832 50.67093928 89.3046875 48.27685547 C85.89755853 46.68982602 82.48084421 45.12518623 79.0625 43.5625 C77.51961304 42.82700928 77.51961304 42.82700928 75.94555664 42.07666016 C74.50490845 41.42189697 74.50490845 41.42189697 73.03515625 40.75390625 C72.2037915 40.36533447 71.37242676 39.9767627 70.51586914 39.57641602 C67.03817162 38.7796335 65.28635655 39.63315238 62 41 C61.36163712 41.26543106 60.72327423 41.53086212 60.06556702 41.80433655 C57.82566701 42.74946006 55.59992451 43.7232852 53.375 44.703125 C52.55104736 45.06339783 51.72709473 45.42367065 50.87817383 45.79486084 C48.25103565 46.94412525 45.62546567 48.0969206 43 49.25 C41.26703735 50.00936628 39.53396537 50.76848309 37.80078125 51.52734375 C36.95290039 51.8987146 36.10501953 52.27008545 35.23144531 52.65270996 C33.54249985 53.39158308 31.85305016 54.12930471 30.16308594 54.86584473 C26.3778407 56.51600078 22.59906841 58.17606847 18.83984375 59.88476562 C18.20667236 60.16801697 17.57350098 60.45126831 16.92114258 60.74310303 C15.25936902 61.486745 13.60212775 62.2404928 11.9453125 62.99511719 C8.70485414 64.10069797 6.39757877 64.41286734 3 64 C1.34599304 62.84996033 1.34599304 62.84996033 0 61 C-0.36076355 58.32344055 -0.36076355 58.32344055 -0.34057617 55.05981445 C-0.34034958 53.83877518 -0.34012299 52.6177359 -0.33988953 51.35969543 C-0.32440567 50.04087875 -0.30892181 48.72206207 -0.29296875 47.36328125 C-0.28737243 45.99993862 -0.2831025 44.63658996 -0.28010559 43.27323914 C-0.26865949 39.68756408 -0.23919486 36.10225446 -0.20599365 32.51672363 C-0.17528739 28.8569025 -0.1615991 25.19702223 -0.14648438 21.53710938 C-0.1143244 14.35788715 -0.06155899 7.17904136 0 0 Z " fill="#FEF9F9" transform="translate(173,307)"></path><path d="M0 0 C4.29 0 8.58 0 13 0 C13 3.96 13 7.92 13 12 C84.61 12 156.22 12 230 12 C230 16.29 230 20.58 230 25 C201.13262538 25.06839778 172.26526029 25.12150833 143.39782063 25.15319599 C139.9918575 25.15694823 136.58589453 25.16083119 133.17993164 25.16479492 C132.50184902 25.16558185 131.8237664 25.16636878 131.12513582 25.16717956 C120.13727586 25.18024316 109.14946285 25.20390222 98.16163077 25.23145839 C86.89200698 25.25948611 75.62240669 25.27594603 64.35274631 25.28226548 C58.0206722 25.28618493 51.68870469 25.29543052 45.35666466 25.31719017 C39.4018868 25.33748841 33.44725988 25.34384732 27.49245071 25.33932304 C25.30223713 25.34015124 23.11201871 25.34615634 20.92183495 25.35761642 C17.94055576 25.37245621 14.95985284 25.36898477 11.9785614 25.36076355 C11.10405466 25.36950207 10.22954792 25.3782406 9.32854098 25.38724393 C3.42974623 25.34301877 3.42974623 25.34301877 1.2766431 23.62443525 C-0.51562086 21.34391005 -0.3427828 19.76714138 -0.29296875 16.89453125 C-0.28330078 15.91162109 -0.27363281 14.92871094 -0.26367188 13.91601562 C-0.23853516 12.89185547 -0.21339844 11.86769531 -0.1875 10.8125 C-0.17396484 9.77673828 -0.16042969 8.74097656 -0.14648438 7.67382812 C-0.11111805 5.11566388 -0.05731096 2.55776671 0 0 Z " fill="#FDF8F8" transform="translate(109,410)"></path><path d="M0 0 C3.77519562 1.76229689 6.30729323 3.76875188 9 7 C8.84206716 11.12508136 6.07649928 13.33639919 3.31591797 16.15161133 C2.82958389 16.65123383 2.34324982 17.15085632 1.84217834 17.6656189 C0.23373187 19.31272212 -1.38600631 20.94808711 -3.0078125 22.58203125 C-4.13312543 23.7220646 -5.25835827 24.86217702 -6.3835144 26.00236511 C-8.74350921 28.38934245 -11.11013916 30.76952809 -13.48046875 33.14624023 C-16.51573843 36.19239048 -19.52474743 39.26314662 -22.52816963 42.34065723 C-24.84301911 44.70387736 -27.17563398 47.04893213 -29.51351547 49.38934898 C-30.63087372 50.51393921 -31.74160856 51.64515087 -32.8454628 52.78299904 C-34.39186187 54.37333833 -35.96159223 55.93641741 -37.53955078 57.49536133 C-38.87072433 58.8396093 -38.87072433 58.8396093 -40.22879028 60.21101379 C-43 62 -43 62 -46.6424408 61.93780518 C-49.66829549 61.09264891 -51.05887898 60.68563209 -53.18139648 58.49975586 C-53.96141273 57.71905983 -53.96141273 57.71905983 -54.75718689 56.92259216 C-55.28977615 56.35903519 -55.82236542 55.79547821 -56.37109375 55.21484375 C-56.93828629 54.63916153 -57.50547882 54.06347931 -58.08985901 53.47035217 C-59.88705745 51.63973523 -61.66219576 49.78933219 -63.4375 47.9375 C-64.65680177 46.68808401 -65.87749156 45.44002099 -67.09960938 44.19335938 C-70.08270292 41.14433511 -73.04619469 38.07739549 -76 35 C-75.0919838 33.86800647 -74.17316174 32.74467637 -73.25 31.625 C-72.48429688 30.68527344 -72.48429688 30.68527344 -71.703125 29.7265625 C-70 28 -70 28 -66 26 C-59.73 32.27 -53.46 38.54 -47 45 C-43.29250701 43.1462535 -41.45754745 41.70141537 -38.59863281 38.82568359 C-37.7380426 37.96494232 -36.87745239 37.10420105 -35.99078369 36.21737671 C-35.07085632 35.28712677 -34.15092896 34.35687683 -33.203125 33.3984375 C-32.24520903 32.43678914 -31.28684886 31.47558306 -30.32806396 30.51480103 C-27.81164875 27.99076718 -25.30129893 25.46078409 -22.79217529 22.92950439 C-20.22837559 20.3452081 -17.65887082 17.76659801 -15.08984375 15.1875 C-10.05430543 10.13054303 -5.0251544 5.06727744 0 0 Z " fill="#FEFBFB" transform="translate(273,194)"></path></svg>