<svg version="1.1" xmlns="http://www.w3.org/2000/svg" width="16px" height="16px" fill="currentColor" viewBox="0 0 512 512"><path d="M0 0 C168.96 0 337.92 0 512 0 C512 168.96 512 337.92 512 512 C343.04 512 174.08 512 0 512 C0 343.04 0 174.08 0 0 Z " fill="#3E50D3" transform="translate(0,0)"></path><path d="M0 0 C0.75070483 -0.00438225 1.50140966 -0.00876451 2.27486312 -0.01327956 C4.77454323 -0.02656603 7.27418816 -0.03282357 9.77389526 -0.03897095 C11.57334549 -0.0468804 13.37279416 -0.05514987 15.17224121 -0.06375122 C21.07183333 -0.08989016 26.97143221 -0.10527824 32.87106323 -0.11953735 C34.91088743 -0.12490178 36.9507116 -0.1302793 38.99053574 -0.13566971 C47.48677775 -0.15729317 55.98301793 -0.17602295 64.47928047 -0.1872921 C76.60375375 -0.20348526 88.72790427 -0.23655625 100.85225594 -0.29369295 C109.40382212 -0.33259897 117.95530276 -0.35194949 126.50695503 -0.35721266 C131.59992884 -0.36084009 136.69255782 -0.37257877 141.78543472 -0.4053154 C178.93023198 -0.63224639 210.7828428 2.87173907 238.55075073 29.90390015 C244.92937339 36.34146195 249.79512901 43.28349864 254.23825073 51.15390015 C254.73840698 52.02659546 255.23856323 52.89929077 255.75387573 53.7984314 C263.65332009 68.52661229 265.59649958 84.56251337 265.61325073 101.02890015 C265.63774292 102.28831421 265.66223511 103.54772827 265.68746948 104.8453064 C265.71535367 113.88907682 264.15066858 121.61321837 261.23825073 130.15390015 C260.65551392 131.87866577 260.65551392 131.87866577 260.06100464 133.63827515 C254.81501287 148.69095249 244.72440924 164.01970501 232.23825073 174.15390015 C231.57825073 174.15390015 230.91825073 174.15390015 230.23825073 174.15390015 C230.23825073 174.81390015 230.23825073 175.47390015 230.23825073 176.15390015 C231.11868042 176.42202515 231.99911011 176.69015015 232.90621948 176.96640015 C246.22416862 181.71277358 255.05999339 191.7285266 261.04684448 204.1968689 C266.14609911 216.85305168 266.13033019 230.91027209 261.00143433 243.56332397 C256.79398439 252.96028037 250.44458118 262.12022307 241.23825073 267.15390015 C240.57825073 267.15390015 239.91825073 267.15390015 239.23825073 267.15390015 C239.28465698 267.74815796 239.33106323 268.34241577 239.37887573 268.9546814 C239.8523258 279.82712404 236.10220292 287.9354614 229.23825073 296.15390015 C228.23191116 297.48245517 227.23022625 298.81458602 226.23825073 300.15390015 C226.97559448 300.43233765 227.71293823 300.71077515 228.47262573 300.99765015 C241.11103425 306.28150455 249.11739951 316.48093072 254.79684448 328.63046265 C257.92152604 336.26857313 261.15495002 345.82304968 259.23825073 354.15390015 C257.57901597 356.58157996 256.24917917 357.96156692 253.29817009 358.52300835 C250.77220258 358.66940941 248.27402232 358.68258982 245.74386597 358.65560913 C244.3018129 358.66371361 244.3018129 358.66371361 242.83062744 358.67198181 C239.6523868 358.68449089 236.47504807 358.6679644 233.29684448 358.6499939 C231.09014336 358.65014882 228.88344195 358.6516367 226.67674255 358.65440369 C222.05234751 358.65578862 217.42826228 358.64321257 212.80392456 358.62045288 C206.86958688 358.59205161 200.93576343 358.59480895 195.0013876 358.60754299 C190.44526254 358.61448964 185.88925686 358.60672274 181.33314705 358.59428596 C179.14462809 358.58976278 176.95609636 358.5894422 174.76757622 358.59335136 C171.71252937 358.59625402 168.65819758 358.57980217 165.60324097 358.55795288 C164.24026131 358.56470535 164.24026131 358.56470535 162.8497467 358.57159424 C162.0184021 358.56168961 161.1870575 358.55178497 160.33052063 358.5415802 C159.60842124 358.5391503 158.88632185 358.53672041 158.14234066 358.53421688 C155.64275193 358.03495715 154.75875328 357.1735231 153.23825073 355.15390015 C152.90657305 352.54828804 152.76273568 350.2567243 152.80075073 347.65390015 C152.8121106 346.57749268 152.8121106 346.57749268 152.82369995 345.4793396 C153.0189599 339.11343781 154.44238371 333.89324208 157.23825073 328.15390015 C157.89180542 326.76751343 157.89180542 326.76751343 158.55856323 325.3531189 C164.31850419 313.97487487 172.13117224 306.42512754 183.23825073 300.15390015 C183.89825073 300.15390015 184.55825073 300.15390015 185.23825073 300.15390015 C184.70715698 299.53643921 184.17606323 298.91897827 183.62887573 298.2828064 C177.3631182 290.77075767 173.23825073 285.11014105 173.23825073 275.15390015 C160.36825073 275.15390015 147.49825073 275.15390015 134.23825073 275.15390015 C134.39626371 286.77671334 134.39626371 286.77671334 134.59860229 298.39877319 C134.61029167 299.86270987 134.62048291 301.32665961 134.62887573 302.7906189 C134.6493396 303.54234375 134.66980347 304.2940686 134.69088745 305.068573 C134.69336098 308.80546274 134.3703539 310.94266972 132.36984253 314.14144897 C130.23825073 316.15390015 130.23825073 316.15390015 127.74215698 316.71640015 C119.49991972 314.8647899 112.11549817 300.80907641 107.25778198 294.2203064 C105.28977076 291.55374327 103.29147653 288.91697194 101.24996948 286.3062439 C100.78389282 285.70981079 100.31781616 285.11337769 99.83761597 284.49887085 C98.9567021 283.37601248 98.07224868 282.25591947 97.18380737 281.13900757 C94.23825073 277.37310761 94.23825073 277.37310761 94.23825073 275.15390015 C93.45812622 275.17484741 92.67800171 275.19579468 91.87423706 275.21737671 C88.26654468 275.30161751 84.65906026 275.35289931 81.05075073 275.40390015 C79.82420776 275.43741577 78.59766479 275.4709314 77.33395386 275.50546265 C61.92911779 275.66804667 49.33880891 270.94551432 37.98825073 260.46640015 C27.55886517 249.31037707 22.33600913 234.59614814 22.84371948 219.36483765 C23.79278537 211.64075688 26.17721288 204.75716853 30.23825073 198.15390015 C29.1761438 198.17484741 28.11403687 198.19579468 27.01974487 198.21737671 C22.99221866 198.29103748 18.96474861 198.33614637 14.93673706 198.37362671 C13.20974646 198.39346063 11.48282035 198.42053655 9.756073 198.45565796 C-5.47141868 198.75710466 -19.53946154 197.00555817 -33.63674927 190.84140015 C-34.3381604 190.54217651 -35.03957153 190.24295288 -35.76223755 189.93466187 C-59.37483194 179.56378899 -77.82187199 159.96219482 -87.56399536 136.1968689 C-91.93780054 124.68715876 -94.14818577 113.33299107 -94.07424927 101.02890015 C-94.06860962 100.03044067 -94.06296997 99.0319812 -94.05715942 98.00326538 C-93.62461518 71.26475095 -83.53820244 47.27912229 -64.76174927 28.15390015 C-47.45061936 11.408341 -24.3046323 0.01755845 0 0 Z " fill="#435BDD" transform="translate(170.76174926757813,76.84609985351563)"></path><path d="M0 0 C0.75070483 -0.00438225 1.50140966 -0.00876451 2.27486312 -0.01327956 C4.77454323 -0.02656603 7.27418816 -0.03282357 9.77389526 -0.03897095 C11.57334549 -0.0468804 13.37279416 -0.05514987 15.17224121 -0.06375122 C21.07183333 -0.08989016 26.97143221 -0.10527824 32.87106323 -0.11953735 C34.91088743 -0.12490178 36.9507116 -0.1302793 38.99053574 -0.13566971 C47.48677775 -0.15729317 55.98301793 -0.17602295 64.47928047 -0.1872921 C76.60375375 -0.20348526 88.72790427 -0.23655625 100.85225594 -0.29369295 C109.40382212 -0.33259897 117.95530276 -0.35194949 126.50695503 -0.35721266 C131.59992884 -0.36084009 136.69255782 -0.37257877 141.78543472 -0.4053154 C178.93023198 -0.63224639 210.7828428 2.87173907 238.55075073 29.90390015 C244.92937339 36.34146195 249.79512901 43.28349864 254.23825073 51.15390015 C254.73840698 52.02659546 255.23856323 52.89929077 255.75387573 53.7984314 C263.65332009 68.52661229 265.59649958 84.56251337 265.61325073 101.02890015 C265.63774292 102.28831421 265.66223511 103.54772827 265.68746948 104.8453064 C265.71535367 113.88907682 264.15066858 121.61321837 261.23825073 130.15390015 C260.65551392 131.87866577 260.65551392 131.87866577 260.06100464 133.63827515 C254.81501287 148.69095249 244.72440924 164.01970501 232.23825073 174.15390015 C231.57825073 174.15390015 230.91825073 174.15390015 230.23825073 174.15390015 C230.23825073 174.81390015 230.23825073 175.47390015 230.23825073 176.15390015 C231.11868042 176.42202515 231.99911011 176.69015015 232.90621948 176.96640015 C246.22416862 181.71277358 255.05999339 191.7285266 261.04684448 204.1968689 C266.14609911 216.85305168 266.13033019 230.91027209 261.00143433 243.56332397 C256.79398439 252.96028037 250.44458118 262.12022307 241.23825073 267.15390015 C240.57825073 267.15390015 239.91825073 267.15390015 239.23825073 267.15390015 C239.28465698 267.74815796 239.33106323 268.34241577 239.37887573 268.9546814 C239.8523258 279.82712404 236.10220292 287.9354614 229.23825073 296.15390015 C228.23191116 297.48245517 227.23022625 298.81458602 226.23825073 300.15390015 C226.97559448 300.43233765 227.71293823 300.71077515 228.47262573 300.99765015 C241.11103425 306.28150455 249.11739951 316.48093072 254.79684448 328.63046265 C257.92152604 336.26857313 261.15495002 345.82304968 259.23825073 354.15390015 C257.57901597 356.58157996 256.24917917 357.96156692 253.29817009 358.52300835 C250.77220258 358.66940941 248.27402232 358.68258982 245.74386597 358.65560913 C244.3018129 358.66371361 244.3018129 358.66371361 242.83062744 358.67198181 C239.6523868 358.68449089 236.47504807 358.6679644 233.29684448 358.6499939 C231.09014336 358.65014882 228.88344195 358.6516367 226.67674255 358.65440369 C222.05234751 358.65578862 217.42826228 358.64321257 212.80392456 358.62045288 C206.86958688 358.59205161 200.93576343 358.59480895 195.0013876 358.60754299 C190.44526254 358.61448964 185.88925686 358.60672274 181.33314705 358.59428596 C179.14462809 358.58976278 176.95609636 358.5894422 174.76757622 358.59335136 C171.71252937 358.59625402 168.65819758 358.57980217 165.60324097 358.55795288 C164.24026131 358.56470535 164.24026131 358.56470535 162.8497467 358.57159424 C162.0184021 358.56168961 161.1870575 358.55178497 160.33052063 358.5415802 C159.60842124 358.5391503 158.88632185 358.53672041 158.14234066 358.53421688 C155.64275193 358.03495715 154.75875328 357.1735231 153.23825073 355.15390015 C152.90657305 352.54828804 152.76273568 350.2567243 152.80075073 347.65390015 C152.8121106 346.57749268 152.8121106 346.57749268 152.82369995 345.4793396 C153.0189599 339.11343781 154.44238371 333.89324208 157.23825073 328.15390015 C157.89180542 326.76751343 157.89180542 326.76751343 158.55856323 325.3531189 C164.31850419 313.97487487 172.13117224 306.42512754 183.23825073 300.15390015 C183.89825073 300.15390015 184.55825073 300.15390015 185.23825073 300.15390015 C184.70715698 299.53643921 184.17606323 298.91897827 183.62887573 298.2828064 C177.3631182 290.77075767 173.23825073 285.11014105 173.23825073 275.15390015 C160.36825073 275.15390015 147.49825073 275.15390015 134.23825073 275.15390015 C134.39626371 286.77671334 134.39626371 286.77671334 134.59860229 298.39877319 C134.61029167 299.86270987 134.62048291 301.32665961 134.62887573 302.7906189 C134.6493396 303.54234375 134.66980347 304.2940686 134.69088745 305.068573 C134.69336098 308.80546274 134.3703539 310.94266972 132.36984253 314.14144897 C130.23825073 316.15390015 130.23825073 316.15390015 127.74215698 316.71640015 C119.49991972 314.8647899 112.11549817 300.80907641 107.25778198 294.2203064 C105.28977076 291.55374327 103.29147653 288.91697194 101.24996948 286.3062439 C100.78389282 285.70981079 100.31781616 285.11337769 99.83761597 284.49887085 C98.9567021 283.37601248 98.07224868 282.25591947 97.18380737 281.13900757 C94.23825073 277.37310761 94.23825073 277.37310761 94.23825073 275.15390015 C93.45812622 275.17484741 92.67800171 275.19579468 91.87423706 275.21737671 C88.26654468 275.30161751 84.65906026 275.35289931 81.05075073 275.40390015 C79.82420776 275.43741577 78.59766479 275.4709314 77.33395386 275.50546265 C61.92911779 275.66804667 49.33880891 270.94551432 37.98825073 260.46640015 C27.55886517 249.31037707 22.33600913 234.59614814 22.84371948 219.36483765 C23.79278537 211.64075688 26.17721288 204.75716853 30.23825073 198.15390015 C29.1761438 198.17484741 28.11403687 198.19579468 27.01974487 198.21737671 C22.99221866 198.29103748 18.96474861 198.33614637 14.93673706 198.37362671 C13.20974646 198.39346063 11.48282035 198.42053655 9.756073 198.45565796 C-5.47141868 198.75710466 -19.53946154 197.00555817 -33.63674927 190.84140015 C-34.3381604 190.54217651 -35.03957153 190.24295288 -35.76223755 189.93466187 C-59.37483194 179.56378899 -77.82187199 159.96219482 -87.56399536 136.1968689 C-91.93780054 124.68715876 -94.14818577 113.33299107 -94.07424927 101.02890015 C-94.06860962 100.03044067 -94.06296997 99.0319812 -94.05715942 98.00326538 C-93.62461518 71.26475095 -83.53820244 47.27912229 -64.76174927 28.15390015 C-47.45061936 11.408341 -24.3046323 0.01755845 0 0 Z M-32.13674927 20.96640015 C-33.12578247 21.48351562 -33.12578247 21.48351562 -34.13479614 22.01107788 C-39.66118487 24.96168773 -44.83507458 28.27658938 -49.76174927 32.15390015 C-50.45526489 32.6953064 -51.14878052 33.23671265 -51.86331177 33.79452515 C-66.82288964 46.15494856 -77.79294536 65.98083139 -80.76174927 85.15390015 C-82.67306755 110.05799764 -78.99928521 133.35786185 -62.76174927 153.15390015 C-62.07210083 154.00725952 -61.38245239 154.8606189 -60.67190552 155.73983765 C-46.84213753 171.99544197 -26.07964126 183.16086695 -4.76174927 185.15390015 C1.94213381 185.50255631 8.66154264 185.50844039 15.37301636 185.55892944 C17.52975443 185.58054232 19.68640403 185.61468371 21.84274292 185.66146851 C24.98278196 185.72878243 28.12102767 185.75597126 31.26168823 185.7749939 C32.21304657 185.80282455 33.16440491 185.83065521 34.14459229 185.85932922 C40.50623745 185.84002646 44.19909145 184.37088853 49.45777225 180.86237431 C59.26463141 174.8365174 68.62935697 173.43492532 79.95773315 173.6055603 C81.38182786 173.60857678 82.80592904 173.60927527 84.23002625 173.60786438 C87.26882957 173.60922438 90.30702391 173.62563854 93.34569359 173.65401077 C98.15929297 173.69783115 102.97241197 173.70072311 107.78617859 173.69744873 C119.73403338 173.69534687 131.68163487 173.74174026 143.62930298 173.80667114 C152.935418 173.85694814 162.24099904 173.89177775 171.54726869 173.87820089 C176.32453243 173.87295018 181.10015479 173.8998801 185.87712324 173.95177102 C188.85503912 173.97689798 191.83240184 173.97266235 194.81037712 173.96058846 C196.83143053 173.96101318 198.85238492 173.99621399 200.87310791 174.03276062 C209.67655699 173.9549675 214.63646889 171.94444678 221.23825073 166.15390015 C222.17797729 165.41784546 223.11770386 164.68179077 224.08590698 163.9234314 C240.10668366 149.76750703 250.90722789 129.51760436 253.23825073 108.15390015 C253.69490606 98.61723781 253.07930075 89.51257107 251.23825073 80.15390015 C250.99848511 78.72884155 250.99848511 78.72884155 250.75387573 77.2749939 C248.05659218 63.87970057 240.40091883 51.13956238 231.23825073 41.15390015 C230.28498901 40.09815796 230.28498901 40.09815796 229.31246948 39.02108765 C218.35051022 27.46599631 202.80376552 18.69924361 187.23825073 15.15390015 C186.06959976 14.81812958 184.90094879 14.48235901 183.69688416 14.13641357 C176.06535152 12.45907931 168.16971329 12.858226 160.39620972 12.8633728 C158.58835067 12.8573814 156.78049417 12.85057446 154.97264099 12.84301758 C150.07967991 12.82540853 145.18678887 12.82066423 140.29379916 12.81938601 C137.22969833 12.81796048 134.16561508 12.81368321 131.10151863 12.80839157 C120.39114383 12.78990521 109.68081869 12.78171885 98.97042847 12.78329468 C89.02129608 12.78449435 79.07238123 12.76342258 69.12330383 12.73180735 C60.55478005 12.70555943 51.98632692 12.694931 43.41776329 12.6962055 C38.31219294 12.69671281 33.20681588 12.69115871 28.10128593 12.6698494 C23.29207096 12.65032401 18.48323077 12.65043917 13.67400169 12.66488266 C11.92140905 12.66695454 10.16879205 12.66236814 8.41624069 12.65016174 C-5.76077912 12.55791581 -19.43910377 14.05728511 -32.13674927 20.96640015 Z " fill="#FBFBFE" transform="translate(170.76174926757813,76.84609985351563)"></path><path d="M0 0 C1.41041414 -0.005995 2.82082503 -0.01280276 4.23123169 -0.02035522 C8.03925205 -0.0379229 11.84718237 -0.04270665 15.65523934 -0.0439868 C18.04056166 -0.04541412 20.4258615 -0.04969465 22.81117821 -0.05498123 C31.15033787 -0.07345042 39.48943385 -0.08165569 47.82861328 -0.08007812 C55.57386644 -0.07887732 63.31884069 -0.09997554 71.06402332 -0.13156545 C77.73781102 -0.15780523 84.41150805 -0.16844222 91.08534688 -0.16716731 C95.06068868 -0.16665996 99.03578224 -0.17221603 103.01107216 -0.19352341 C106.75330043 -0.21303663 110.49504694 -0.21294224 114.23729324 -0.19849014 C116.2459525 -0.19543739 118.2546125 -0.21198603 120.26319885 -0.22937012 C133.05125928 -0.14169127 145.83617344 3.26854648 155.1159668 12.54833984 C163.03660253 21.87189261 165.6843137 30.39101276 165.17456055 42.51708984 C164.3206251 52.70106069 159.55093015 60.4418642 152.7331543 67.91552734 C149.8581543 70.29052734 149.8581543 70.29052734 147.8737793 70.17333984 C145.33711726 69.0623212 144.38595148 67.74979394 142.7331543 65.54052734 C137.61764611 59.38644946 130.40476709 55.83889587 122.44799805 55.05224609 C111.15122966 54.73613623 103.49597876 58.05844141 95.1472168 65.58349609 C92.83100147 68.04972147 92.83100147 68.04972147 91.93115234 70.48875427 C90.81398869 73.12145635 89.73875417 75.12749826 87.8581543 77.29052734 C84.16754485 78.58271409 80.63256939 78.4098041 76.7565918 78.28271484 C75.14646713 78.28623459 75.14646713 78.28623459 73.5038147 78.28982544 C70.078544 78.2905417 66.65774686 78.23092254 63.2331543 78.16552734 C59.80232456 78.13191059 56.37206007 78.11096148 52.94107056 78.10549927 C50.80744508 78.09874126 48.6737852 78.07379821 46.5406189 78.02902222 C45.0936412 78.01513962 45.0936412 78.01513962 43.61743164 78.00097656 C42.34432632 77.97691238 42.34432632 77.97691238 41.04550171 77.95236206 C38.34161194 78.37038512 37.48150933 79.12412669 35.8581543 81.29052734 C35.35335773 83.89732964 35.35335773 83.89732964 35.34643555 86.83349609 C35.29326172 88.44321289 35.29326172 88.44321289 35.23901367 90.08544922 C35.21645508 91.205 35.19389648 92.32455078 35.1706543 93.47802734 C35.13649414 94.60917969 35.10233398 95.74033203 35.06713867 96.90576172 C34.98459116 99.70058475 34.91546248 102.49509133 34.8581543 105.29052734 C32.03321085 102.57760484 29.63392292 99.79294105 27.3269043 96.63037109 C26.68108398 95.75445312 26.03526367 94.87853516 25.36987305 93.97607422 C24.02686469 92.14149873 22.68572265 90.30555558 21.34643555 88.46826172 C20.70061523 87.59363281 20.05479492 86.71900391 19.3894043 85.81787109 C18.80739258 85.0211499 18.22538086 84.22442871 17.62573242 83.40356445 C14.78718992 80.01025155 13.16484221 78.43462975 8.65698242 77.9375 C7.41368164 77.94313965 6.17038086 77.9487793 4.8894043 77.95458984 C3.4987748 77.94205885 2.10814979 77.92902094 0.7175293 77.91552734 C-1.44995765 77.91163249 -3.61698262 77.91535736 -5.78442383 77.93017578 C-19.50047196 77.98695795 -29.90759319 75.4284793 -40.0168457 65.61083984 C-47.73431211 57.18404748 -50.77301516 47.62670848 -50.4230957 36.23974609 C-49.43681388 25.89748536 -44.9514174 17.61139945 -37.3918457 10.54052734 C-26.10437747 1.27405342 -14.13379834 -0.00981912 0 0 Z " fill="#4155D7" transform="translate(257.141845703125,261.70947265625)"></path><path d="M0 0 C6.58461701 4.48264933 11.10572136 10.2443072 13.609375 17.8515625 C15.47766179 28.12713984 14.27942541 36.78961435 8.3984375 45.32421875 C6.97534195 47.25652621 5.51857593 49.14227544 4 51 C4.73605469 51.268125 5.47210938 51.53625 6.23046875 51.8125 C17.38843918 56.59673556 25.44200186 67.20284617 30.03515625 78.13671875 C31.67956653 83.01668933 32.4795417 87.88810134 33 93 C33.08378906 93.79019531 33.16757813 94.58039063 33.25390625 95.39453125 C33.43523728 98.54735147 33.30986738 100.54128154 31.52307129 103.18640137 C27.91860312 105.77731451 24.53130469 105.55927385 20.25585938 105.51757812 C19.37412552 105.5245874 18.49239166 105.53159668 17.5839386 105.53881836 C14.67022175 105.55641921 11.75747667 105.5447682 8.84375 105.53125 C6.81880507 105.53394431 4.7938614 105.53782622 2.7689209 105.54284668 C-1.47465332 105.54874456 -5.71789072 105.54016931 -9.96142578 105.52148438 C-15.40253763 105.4986948 -20.84286029 105.51181631 -26.28394318 105.53577423 C-30.46525017 105.55022428 -34.64636988 105.54562983 -38.8276825 105.53526306 C-40.83395989 105.53259359 -42.84025426 105.53587327 -44.84651184 105.54518127 C-47.65008624 105.5553337 -50.4523804 105.53986417 -53.25585938 105.51757812 C-54.0861113 105.52567505 -54.91636322 105.53377197 -55.77177429 105.54211426 C-59.40659167 105.48855029 -61.55568846 105.33101631 -64.51330566 103.12756348 C-67.48583176 98.87367093 -66.56473383 93.95006491 -66 89 C-62.99023656 74.61062536 -55.35697654 61.82121426 -43.125 53.4375 C-39.33333333 51 -39.33333333 51 -37 51 C-37.47050781 50.443125 -37.94101563 49.88625 -38.42578125 49.3125 C-45.70429293 40.39142564 -47.86289856 33.44005268 -47.40234375 21.9140625 C-46.59015105 14.01292576 -43.41784807 9.0446936 -37.75 3.625 C-26.65758555 -5.37278775 -12.7424766 -7.49036016 0 0 Z " fill="#FBFCFE" transform="translate(195,132)"></path><path d="M0 0 C0.86625 0.680625 1.7325 1.36125 2.625 2.0625 C3.594375 2.743125 4.56375 3.42375 5.5625 4.125 C11.99999063 9.6138078 16.27726888 18.05259384 18.625 26.0625 C18.625 27.7125 18.625 29.3625 18.625 31.0625 C-7.445 31.0625 -33.515 31.0625 -60.375 31.0625 C-58.94986039 19.6613831 -54.48098183 9.71716377 -45.34765625 2.44921875 C-30.86414307 -7.80887582 -15.63660711 -8.97657075 0 0 Z " fill="#4051D3" transform="translate(397.375,390.9375)"></path><path d="M0 0 C1.79849437 1.0585144 3.57441082 2.15747588 5.3125 3.3125 C6.405625 4.034375 7.49875 4.75625 8.625 5.5 C14.66996281 11.82612388 21.3125 21.1464203 21.3125 30.3125 C-2.7775 30.3125 -26.8675 30.3125 -51.6875 30.3125 C-49.01893155 18.30394199 -44.2301434 8.35917756 -33.625 1.4375 C-23.77634538 -4.51750047 -10.31000131 -5.01951253 0 0 Z " fill="#4051D3" transform="translate(193.6875,193.6875)"></path><path d="M0 0 C40.26 0 80.52 0 122 0 C122 4.29 122 8.58 122 13 C81.74 13 41.48 13 0 13 C0 8.71 0 4.42 0 0 Z " fill="#FBFCFE" transform="translate(247,147)"></path><path d="M0 0 C6.02921109 2.70155036 9.88626289 7.0744967 13.15625 12.72265625 C14.6864334 19.14942654 14.38766558 24.68187006 11.1171875 30.4921875 C7.84203521 35.04101012 3.3054364 39.03237377 -2.21875 40.34765625 C-8.7437584 41.15228156 -13.837207 40.21103764 -19.21875 36.34765625 C-24.60091865 31.41897409 -26.88669587 26.77888224 -27.59375 19.47265625 C-27.41499103 13.9626738 -25.32480318 9.55632455 -21.53515625 5.58203125 C-14.98700003 -0.21977598 -8.73363486 -2.56781166 0 0 Z " fill="#4458D8" transform="translate(383.21875,329.65234375)"></path><path d="M0 0 C31.68 0 63.36 0 96 0 C96 4.29 96 8.58 96 13 C64.32 13 32.64 13 0 13 C0 8.71 0 4.42 0 0 Z " fill="#F8F9FD" transform="translate(247,294)"></path><path d="M0 0 C27.72 0 55.44 0 84 0 C84 4.29 84 8.58 84 13 C56.28 13 28.56 13 0 13 C0 8.71 0 4.42 0 0 Z " fill="#F7F8FD" transform="translate(247,198)"></path><path d="M0 0 C4.77398541 3.26311737 7.86615195 7.38064972 9.5234375 12.92578125 C10.39552533 18.25854819 9.45243324 22.38078786 6.5234375 26.92578125 C2.89220278 31.03481002 -0.36056504 34.42801808 -5.921875 35.31640625 C-12.27352309 35.70564374 -16.52087433 34.63974424 -21.59375 30.7578125 C-25.81427031 26.65112365 -27.63622159 22.27704541 -28.0390625 16.42578125 C-27.73149078 10.47939462 -24.8938421 6.63945753 -21.04296875 2.31640625 C-15.3840287 -2.70749065 -6.7685835 -2.93589979 0 0 Z " fill="#4458D8" transform="translate(187.4765625,142.07421875)"></path></svg>