<svg version="1.1" xmlns="http://www.w3.org/2000/svg" width="16px" height="16px" fill="currentColor" viewBox="0 0 512 512"><path d="M0 0 C168.96 0 337.92 0 512 0 C512 168.96 512 337.92 512 512 C343.04 512 174.08 512 0 512 C0 343.04 0 174.08 0 0 Z " fill="#D72B6B" transform="translate(0,0)"></path><path d="M0 0 C2.90576172 1.23413086 2.90576172 1.23413086 5.9296875 2.96484375 C7.04617676 3.59527588 8.16266602 4.22570801 9.31298828 4.87524414 C10.50045265 5.56244312 11.68778719 6.2498665 12.875 6.9375 C14.10461526 7.63720157 15.33492664 8.33568119 16.56591797 9.03295898 C18.98071374 10.40309545 21.39163789 11.77963147 23.79882812 13.16308594 C26.96784473 14.98154848 30.14825243 16.77765892 33.33666992 18.56176758 C35.16560481 19.58522206 36.99124544 20.61436312 38.81640625 21.64453125 C43.15203553 24.08864127 47.49615561 26.51751507 51.83984375 28.94726562 C66.78758234 37.30894 81.70217696 45.72829217 96.6015625 54.17578125 C104.72830228 58.78011255 112.85944749 63.37520173 121.02734375 67.90625 C121.6237265 68.23710602 122.22010925 68.56796204 122.83456421 68.90884399 C125.72657993 70.5124847 128.61985968 72.11376863 131.51464844 73.71240234 C134.68192119 75.46531901 137.84264315 77.22929032 141 79 C142.12100098 79.62551758 143.24200195 80.25103516 144.39697266 80.89550781 C145.47897949 81.51006836 146.56098633 82.12462891 147.67578125 82.7578125 C148.65071533 83.30840332 149.62564941 83.85899414 150.63012695 84.42626953 C153 86 153 86 155 89 C155.19927701 91.4621342 155.2826525 93.81182261 155.27415466 96.27450562 C155.27939134 97.02083114 155.28462802 97.76715667 155.29002339 98.53609812 C155.3050598 101.04413872 155.30572933 103.55197596 155.30639648 106.06005859 C155.31401551 107.85532477 155.32244256 109.65058767 155.33161926 111.44584656 C155.35359606 116.32808659 155.36236739 121.21026398 155.36744571 126.09254789 C155.37108541 129.14145498 155.37732344 132.19034556 155.3844471 135.23924637 C155.40895229 145.87207004 155.42199588 156.50484485 155.42553711 167.13769531 C155.42917359 177.05515505 155.45907434 186.97230554 155.50094169 196.88967073 C155.53560912 205.3993039 155.55108493 213.9088344 155.55178314 222.41853774 C155.55257715 227.50321827 155.56137238 232.58758392 155.58978081 237.67219162 C155.61590081 242.45426651 155.61820072 247.23576409 155.60212517 252.01787758 C155.60030585 253.77348015 155.60704484 255.52911546 155.62294388 257.28464699 C155.64332389 259.68096113 155.63290255 262.07523996 155.61473083 264.4715271 C155.63453079 265.51467656 155.63453079 265.51467656 155.65473074 266.57889974 C155.58836734 270.407961 155.0829798 271.9005303 152.59459019 274.88341713 C150.3623723 276.70438838 148.3471323 278.15070333 145.79296875 279.45703125 C145.04208984 279.84697266 144.29121094 280.23691406 143.51757812 280.63867188 C142.74865234 281.02603516 141.97972656 281.41339844 141.1875 281.8125 C140.39923828 282.21919922 139.61097656 282.62589844 138.79882812 283.04492188 C136.87023602 284.03843902 134.93570344 285.02041028 133 286 C136.77505016 290.58062939 140.7009893 294.73549291 145.125 298.6875 C149.69232916 302.84890331 154.21254832 307.04921416 158.625 311.375 C159.1214502 311.85026123 159.61790039 312.32552246 160.12939453 312.81518555 C164.06022696 316.70721343 166.64393773 320.38189508 167.3984375 325.9296875 C167.31151621 336.85279666 165.14692491 342.73440844 157.515625 350.72265625 C150.91924639 356.6942226 144.77426088 358.55434438 135.95703125 358.56640625 C127.50595546 356.94764008 122.21207177 350.53960655 116.48828125 344.60546875 C114.66105189 342.74520242 112.83357053 340.88518359 111.00585938 339.02539062 C108.14260898 336.09679093 105.28653488 333.16127462 102.43432617 330.22192383 C99.67361781 327.37862616 96.8932839 324.55490553 94.11328125 321.73046875 C93.25906082 320.84103073 92.40484039 319.95159271 91.5247345 319.03520203 C90.72677963 318.22718643 89.92882477 317.41917084 89.10668945 316.58666992 C88.40832474 315.86815353 87.70996002 315.14963715 86.99043274 314.40934753 C85.12346886 312.76476663 85.12346886 312.76476663 82.93922424 313.18310547 C79.93972625 314.44663831 77.04900353 315.89301533 74.1640625 317.39453125 C73.49722443 317.73772903 72.83038635 318.08092682 72.14334106 318.43452454 C69.96819085 319.55599539 67.79648987 320.68396006 65.625 321.8125 C64.11364409 322.59431044 62.6022506 323.37604822 61.09082031 324.15771484 C52.92647901 328.38922518 44.80500096 332.68812669 36.75 337.125 C33.16937137 339.08831408 29.58568667 341.04593929 26 343 C25.42042542 343.31660583 24.84085083 343.63321167 24.24371338 343.95941162 C20.34640469 346.08582792 16.43790495 348.1895056 12.51599121 350.27020264 C11.22722005 350.95783449 9.9418727 351.65192734 8.66027832 352.35284424 C6.86694162 353.33225655 5.0625471 354.28749929 3.25390625 355.23828125 C2.21564697 355.79555908 1.1773877 356.35283691 0.10766602 356.92700195 C-4.87237171 358.64648234 -8.45763905 357.67096526 -13.19946289 355.6081543 C-14.8196936 354.7251062 -14.8196936 354.7251062 -16.47265625 353.82421875 C-17.06866135 353.50321701 -17.66466644 353.18221527 -18.2787323 352.85148621 C-20.21231866 351.80689895 -22.13728947 350.74743198 -24.0625 349.6875 C-25.41517561 348.95299052 -26.76837183 348.21943903 -28.12207031 347.48681641 C-31.47886945 345.66701542 -34.82900962 343.83536116 -38.17681885 341.99908447 C-40.76457223 340.5810223 -43.35683594 339.17129603 -45.94921875 337.76171875 C-49.47409223 335.84350503 -52.99579088 333.91963059 -56.515625 331.9921875 C-62.66127813 328.63205502 -68.83040526 325.31590891 -75 322 C-83.01405579 317.692063 -91.01686645 313.36497847 -99 309 C-106.94248323 304.65779037 -114.90322198 300.35068544 -122.875 296.0625 C-123.95289795 295.48193848 -125.0307959 294.90137695 -126.14135742 294.30322266 C-131.69224488 291.31406002 -137.24723013 288.33291041 -142.80859375 285.36328125 C-144.97661533 284.20061933 -147.14458603 283.03786255 -149.3125 281.875 C-150.81562744 281.07654663 -150.81562744 281.07654663 -152.34912109 280.26196289 C-153.28191895 279.76043701 -154.2147168 279.25891113 -155.17578125 278.7421875 C-156.39648315 278.09032471 -156.39648315 278.09032471 -157.6418457 277.42529297 C-160.4286723 275.74090601 -162.67668946 274.31197974 -165 272 C-165.50393131 269.28827106 -165.67754434 267.19551471 -165.63491821 264.48461914 C-165.64271817 263.72448297 -165.65051812 262.96434679 -165.65855443 262.18117619 C-165.67851135 259.63201102 -165.66269656 257.08433269 -165.64697266 254.53515625 C-165.65374717 252.70855842 -165.66264937 250.88196743 -165.67352295 249.0553894 C-165.69634265 244.09253614 -165.68746892 239.13020181 -165.67162752 234.16733932 C-165.65898237 228.97751195 -165.67070478 223.78772948 -165.67855835 218.59790039 C-165.68765895 209.88191741 -165.6756562 201.16614616 -165.65185547 192.45019531 C-165.62464346 182.36849405 -165.63345733 172.28729833 -165.6609875 162.20560932 C-165.68366584 153.55496291 -165.68688488 144.90446883 -165.67379415 136.2538023 C-165.66599264 131.08481749 -165.6649773 125.91607043 -165.68147659 120.74710083 C-165.69590352 115.88780132 -165.68593219 111.02915456 -165.65700531 106.16992569 C-165.65038498 104.3849 -165.65230832 102.59981953 -165.66331863 100.81481552 C-165.67694909 98.38092516 -165.65989161 95.94913661 -165.63491821 93.51538086 C-165.64607182 92.80604432 -165.65722543 92.09670778 -165.66871703 91.3658762 C-165.59521521 87.68248679 -165.27484778 86.27505538 -162.62888145 83.62709045 C-159.92205706 81.95175887 -157.21875108 80.40847095 -154.37890625 78.96875 C-153.29085693 78.41219727 -152.20280762 77.85564453 -151.08178711 77.28222656 C-149.92042236 76.6940918 -148.75905762 76.10595703 -147.5625 75.5 C-145.09444991 74.23807282 -142.62901017 72.97109979 -140.1640625 71.703125 C-139.54786545 71.38655945 -138.9316684 71.0699939 -138.29679871 70.74383545 C-132.96291345 67.99676323 -127.69136118 65.14643074 -122.4375 62.25 C-113.13438899 57.13097994 -103.76431365 52.14589576 -94.375 47.1875 C-80.37663528 39.79344639 -66.40838147 32.34629866 -52.46044922 24.85742188 C-48.82988581 22.90868994 -45.19834257 20.96179643 -41.56640625 19.015625 C-40.64322098 18.52077606 -40.64322098 18.52077606 -39.7013855 18.01593018 C-36.67980065 16.39657201 -33.65731943 14.77893373 -30.6328125 13.16503906 C-25.77586709 10.57105189 -20.92462608 7.97310424 -16.12109375 5.28125 C-15.42798096 4.89702881 -14.73486816 4.51280762 -14.02075195 4.11694336 C-12.30291282 3.16145756 -10.59241427 2.19280376 -8.8828125 1.22265625 C-5.55132808 -0.19029039 -3.59758007 -0.29511829 0 0 Z " fill="#FEFAFC" transform="translate(255,77)"></path><path d="M0 0 C1.23177979 -0.01023193 2.46355957 -0.02046387 3.73266602 -0.03100586 C11.36625472 0.04247803 18.01786367 1.00249545 25.25 3.4375 C26.40371094 3.81390625 27.55742187 4.1903125 28.74609375 4.578125 C42.10282654 9.61572409 52.24815591 16.4495281 62.25 26.4375 C63.47396484 27.6440625 63.47396484 27.6440625 64.72265625 28.875 C73.50292317 38.03177923 79.74110871 49.24961191 83.25 61.4375 C83.54777344 62.45714844 83.84554687 63.47679687 84.15234375 64.52734375 C89.78596642 86.77625909 86.03638103 109.8494482 74.9375 129.75 C62.32878302 150.156213 44.12256858 163.48006469 21.25 170.4375 C-3.33441982 175.14515486 -26.30224981 171.81080306 -47.75 158.4375 C-67.21698386 144.59952352 -80.9654876 125.01102379 -85.33203125 101.2734375 C-88.02051329 76.59970513 -84.09679796 53.28297352 -68.6875 33.3125 C-67.07956562 31.31562218 -65.42855486 29.3772869 -63.75 27.4375 C-63.17765625 26.76460937 -62.6053125 26.09171875 -62.015625 25.3984375 C-45.91695126 7.94492488 -23.09978839 0.14929273 0 0 Z " fill="#D62B6B" transform="translate(271.75,198.5625)"></path><path d="M0 0 C0.74910645 0.41475586 1.49821289 0.82951172 2.27001953 1.25683594 C3.55646362 1.96332275 3.55646362 1.96332275 4.86889648 2.68408203 C5.78759521 3.19793457 6.70629395 3.71178711 7.65283203 4.24121094 C8.62244873 4.77697754 9.59206543 5.31274414 10.59106445 5.86474609 C19.38137783 10.73481592 28.12764315 15.68396796 36.86767578 20.64355469 C42.95062484 24.09363084 49.04984511 27.51423309 55.15283203 30.92871094 C56.19157471 31.50991699 57.23031738 32.09112305 58.30053711 32.68994141 C60.40715771 33.86844991 62.5138473 35.0468351 64.62060547 36.22509766 C70.87454005 39.7234709 77.12619899 43.22590928 83.37817383 46.7277832 C88.72260299 49.72108353 94.06786099 52.71288769 99.41455078 55.70214844 C110.23005928 61.75064702 121.03985238 67.80582731 131.77783203 73.99121094 C129.24620507 76.88951209 126.43663509 78.36695156 123.0246582 80.1015625 C122.44864365 80.39621399 121.87262909 80.69086548 121.27915955 80.9944458 C119.37964232 81.96350344 117.4756631 82.92333202 115.57080078 83.88183594 C114.2442167 84.55249048 112.91766381 85.22320672 111.59114075 85.89398193 C108.81179712 87.29713693 106.02981646 88.69491125 103.24633789 90.08984375 C99.6845145 91.8761942 96.13331746 93.68266715 92.58426952 95.49423599 C89.84869105 96.88623304 87.10601766 98.26376801 84.36120033 99.63744354 C83.04886591 100.29722193 81.73917541 100.96228723 80.43227196 101.63275909 C78.60182334 102.56999592 76.76228531 103.48638151 74.91918945 104.3984375 C73.87566818 104.92455627 72.83214691 105.45067505 71.75700378 105.99273682 C65.70936842 108.01961136 60.87574983 105.30758599 55.46533203 102.61621094 C33.6511378 92.1645692 6.85211729 89.89096741 -16.22216797 97.99121094 C-29.63123097 102.89459521 -40.94728493 109.7766203 -51.81201172 119.07324219 C-53.99825183 120.8130216 -55.60468287 122.06189058 -58.22216797 122.99121094 C-60.27978516 122.29467773 -60.27978516 122.29467773 -62.51904297 120.94042969 C-63.80875 120.18246094 -63.80875 120.18246094 -65.12451172 119.40917969 C-66.06423828 118.838125 -67.00396484 118.26707031 -67.97216797 117.67871094 C-70.04781469 116.4596377 -72.12609274 115.24503711 -74.20654297 114.03417969 C-75.33125 113.37853027 -76.45595703 112.72288086 -77.61474609 112.04736328 C-83.37873547 108.73150503 -89.27785365 105.66459925 -95.16384888 102.5725708 C-107.30918606 96.19188852 -119.33538016 89.64256581 -131.24169922 82.82324219 C-136.52508081 79.79916652 -141.86820669 76.88805565 -147.22216797 73.99121094 C-144.84808182 71.33322955 -142.40103003 69.88383479 -139.23388672 68.27636719 C-138.22890137 67.76130615 -137.22391602 67.24624512 -136.18847656 66.71557617 C-134.56546631 65.89295288 -134.56546631 65.89295288 -132.90966797 65.05371094 C-124.5796258 60.78089635 -116.29750078 56.44567205 -108.09716797 51.92871094 C-100.68667916 47.8535781 -93.23097405 43.88220671 -85.72216797 39.99121094 C-78.17221165 36.07870617 -70.67510104 32.0855261 -63.22216797 27.99121094 C-54.83055462 23.38122592 -46.37782775 18.90609562 -37.8671875 14.51977539 C-32.88121727 11.93984054 -27.945986 9.29605598 -23.05810547 6.53417969 C-21.55860352 5.69209961 -21.55860352 5.69209961 -20.02880859 4.83300781 C-18.11688672 3.75412851 -16.21153785 2.66349173 -14.31396484 1.55957031 C-13.45609375 1.07681641 -12.59822266 0.5940625 -11.71435547 0.09667969 C-10.96524902 -0.33491455 -10.21614258 -0.76650879 -9.44433594 -1.21118164 C-5.8731854 -2.49298221 -3.3601677 -1.52540243 0 0 Z " fill="#DE3271" transform="translate(257.22216796875,93.0087890625)"></path><path d="M0 0 C3.29102749 1.29186215 6.33578757 2.66567573 9.39453125 4.44140625 C10.6794043 5.18003906 10.6794043 5.18003906 11.99023438 5.93359375 C12.92158203 6.47113281 13.85292969 7.00867188 14.8125 7.5625 C24.44414208 13.06987169 34.18608224 18.32733603 44 23.5 C57.14011174 30.43023495 70.11888625 37.59683293 83 45 C84.37345425 45.78558241 85.74712554 46.57078558 87.12109375 47.35546875 C88.54615234 48.16951172 88.54615234 48.16951172 90 49 C89.49210937 49.84820312 88.98421875 50.69640625 88.4609375 51.5703125 C74.30997575 75.54171735 67.08263026 102.26400785 74 130 C78.51951464 146.65377489 85.28152077 161.1804556 97 174 C97.74765625 174.84046875 98.4953125 175.6809375 99.265625 176.546875 C110.70270406 188.74137652 125.23570197 196.74523399 141 202 C141 214.87 141 227.74 141 241 C122.71277574 231.85638787 122.71277574 231.85638787 114.5 227.3125 C112.60956799 226.27438807 110.71893579 225.23664062 108.828125 224.19921875 C107.86970703 223.67247559 106.91128906 223.14573242 105.92382812 222.60302734 C101.04189453 219.92644284 96.14624444 217.27529025 91.25 214.625 C89.7642749 213.8203833 89.7642749 213.8203833 88.24853516 212.99951172 C80.79724241 208.96663876 73.33686797 204.95076301 65.875 200.9375 C57.02115692 196.17558233 48.18480397 191.383219 39.36499023 186.55859375 C34.26188279 183.77008175 29.1497116 180.99906103 24.02734375 178.24609375 C23.14147079 177.76990097 23.14147079 177.76990097 22.23770142 177.28408813 C19.34764952 175.73108043 16.45661575 174.17993316 13.56445312 172.63085938 C12.52095703 172.07076172 11.47746094 171.51066406 10.40234375 170.93359375 C9.47929443 170.43915771 8.55624512 169.94472168 7.60522461 169.43530273 C6.74550049 168.96165283 5.88577637 168.48800293 5 168 C4.13366849 167.61203341 3.26733698 167.22406683 2.374753 166.82434368 C0 165 0 165 -0.61523914 162.05399036 C-0.61063018 160.839989 -0.60602121 159.62598764 -0.60127258 158.37519836 C-0.60554471 157.69884895 -0.60981683 157.02249954 -0.61421841 156.32565469 C-0.62246968 154.05408068 -0.59493227 151.78434391 -0.56762695 149.51293945 C-0.56621692 147.8869023 -0.56700758 146.26086196 -0.56983948 144.63482666 C-0.57127682 140.21544613 -0.541836 135.79674115 -0.50696969 131.37751794 C-0.47575894 126.76108725 -0.47277963 122.14464187 -0.46684265 117.52812195 C-0.45128863 108.78386981 -0.41023916 100.03992942 -0.3600952 91.29581469 C-0.30425014 81.34192777 -0.27672743 71.38802612 -0.25161803 61.43402159 C-0.19932461 40.95584025 -0.11135212 20.47793974 0 0 Z " fill="#CC2264" transform="translate(102,177)"></path><path d="M0 0 C0 54.45 0 108.9 0 165 C-6.27 168.3 -12.54 171.6 -19 175 C-26.78082192 168.33072407 -26.78082192 168.33072407 -29.5625 165.4375 C-31.75471102 163.17072398 -33.94472458 161.27871462 -36.5 159.4375 C-39 157 -39 157 -39.1875 154.375 C-37.8198318 150.487943 -36.08790091 146.85171986 -34.3359375 143.125 C-31.96656292 137.58260331 -30.46415631 131.83638344 -29 126 C-28.77183594 125.14277344 -28.54367187 124.28554688 -28.30859375 123.40234375 C-22.73051456 98.78858173 -29.4017183 74.36933437 -41.875 53.125 C-45.07315112 48.11704243 -48.63597327 43.71754485 -52.7265625 39.4140625 C-54.59361281 37.43152454 -56.37531974 35.41955952 -58.14208984 33.34912109 C-58.67845062 32.72121674 -59.2148114 32.09331238 -59.76742554 31.44638062 C-60.17417511 30.96907501 -60.58092468 30.49176941 -61 30 C-48.60294395 23.41647299 -36.14179863 16.9776635 -23.58666992 10.70068359 C-20.87785101 9.34515077 -18.17232844 7.98317394 -15.46679688 6.62109375 C-13.73717366 5.75481989 -12.00736346 4.88891925 -10.27734375 4.0234375 C-9.47231918 3.61733246 -8.66729462 3.21122742 -7.83787537 2.79281616 C-2.22890272 0 -2.22890272 0 0 0 Z " fill="#E03574" transform="translate(397,179)"></path><path d="M0 0 C3.95083023 1.62743746 6.78962212 4.34270445 9.85546875 7.23046875 C10.42106003 7.75811325 10.98665131 8.28575775 11.56938171 8.82939148 C18.31012726 15.16235305 24.8103126 21.73657374 31.3125 28.3125 C38.3618778 35.44065228 45.36128893 42.49659461 53 49 C60.3980924 55.88572452 60.3980924 55.88572452 60.6875 61.125 C59.52696856 67.6661772 56.31861382 71.22098492 51 75 C47.64623807 76.67688097 44.58336871 76.83705061 41 76 C37.62165188 73.7458679 34.94534912 70.90051652 32.15234375 67.96875 C31.33681534 67.14427368 30.52128693 66.31979736 29.68104553 65.47033691 C27.08053464 62.83175094 24.50936845 60.16648085 21.9375 57.5 C20.20427779 55.73520579 18.46926901 53.97216431 16.73242188 52.2109375 C10.17404889 45.53318432 3.64433118 38.86943989 -2.45202637 31.76293945 C-4.98425059 28.87906734 -7.70270345 26.19018882 -10.4375 23.5 C-10.97826172 22.96375 -11.51902344 22.4275 -12.07617188 21.875 C-13.38176617 20.58095964 -14.69052996 19.29011826 -16 18 C-14.47401851 14.21933799 -12.19469402 12.19041313 -9.125 9.5625 C-5.66844657 6.59605489 -2.7551344 3.63293304 0 0 Z " fill="#D62C6C" transform="translate(349,346)"></path><path d="M0 0 C1.12894876 0.93274109 2.25300876 1.87140122 3.375 2.8125 C4.00148438 3.33457031 4.62796875 3.85664063 5.2734375 4.39453125 C7 6 7 6 9 9 C-2.03002692 15.24048777 -13.17627416 21.21050756 -24.43920898 27.02001953 C-32.58408111 31.23252031 -40.64624222 35.58064777 -48.65722656 40.04248047 C-49.90971191 40.73494873 -49.90971191 40.73494873 -51.1875 41.44140625 C-51.90292969 41.84045166 -52.61835938 42.23949707 -53.35546875 42.65063477 C-57.16028445 44.59203214 -61.09666103 46.26518268 -65 48 C-65 36.45 -65 24.9 -65 13 C-61.184375 13.061875 -57.36875 13.12375 -53.4375 13.1875 C-34.41232768 13.28327047 -16.75933712 9.26692758 0 0 Z " fill="#CF2667" transform="translate(321,370)"></path><path d="M0 0 C1.16796875 1.99609375 1.16796875 1.99609375 2.1875 4.4375 C2.53167969 5.24058594 2.87585938 6.04367188 3.23046875 6.87109375 C4 9 4 9 4 11 C-2.6 13.97 -9.2 16.94 -16 20 C-16.33 24.29 -16.66 28.58 -17 33 C-21.29 33 -25.58 33 -30 33 C-30 29.04 -30 25.08 -30 21 C-30.82757813 20.74476563 -31.65515625 20.48953125 -32.5078125 20.2265625 C-36.43440151 18.84742497 -40.12257463 17.16394698 -43.875 15.375 C-44.56335938 15.05015625 -45.25171875 14.7253125 -45.9609375 14.390625 C-47.64205219 13.59676528 -49.32122921 12.79880442 -51 12 C-50.342425 7.44166456 -49.22049017 4.05480813 -47 0 C-40.92435066 1.89241537 -35.4171997 4.16038214 -29.7734375 7.109375 C-22.96994463 9.29415863 -17.20017691 5.9175861 -11.25 2.875 C-9.75980092 2.11334269 -8.26515979 1.36029622 -6.765625 0.6171875 C-6.11368164 0.28315918 -5.46173828 -0.05086914 -4.79003906 -0.39501953 C-3 -1 -3 -1 0 0 Z " fill="#FEFAFB" transform="translate(273,229)"></path><path d="M0 0 C4.29 0 8.58 0 13 0 C13 8.58 13 17.16 13 26 C8.71 26 4.42 26 0 26 C0 17.42 0 8.84 0 0 Z " fill="#FDF8FA" transform="translate(243,326)"></path><path d="M0 0 C4.29 0 8.58 0 13 0 C13 8.25 13 16.5 13 25 C8.71 25 4.42 25 0 25 C0 16.75 0 8.5 0 0 Z " fill="#FEFBFC" transform="translate(243,282)"></path><path d="M0 0 C2.33686678 1.20997769 2.9502888 2.4240252 4.0703125 4.78515625 C4.41707031 5.48382813 4.76382812 6.1825 5.12109375 6.90234375 C5.7578125 8.91015625 5.7578125 8.91015625 4.7578125 11.91015625 C2.24519423 13.26667964 -0.19701689 14.45902888 -2.8046875 15.59765625 C-3.51560547 15.91798828 -4.22652344 16.23832031 -4.95898438 16.56835938 C-6.71585412 17.35836121 -8.47850095 18.13549248 -10.2421875 18.91015625 C-11.11135637 17.50264404 -11.96203899 16.08370415 -12.8046875 14.66015625 C-13.51818359 13.47679687 -13.51818359 13.47679687 -14.24609375 12.26953125 C-15.2421875 9.91015625 -15.2421875 9.91015625 -15.2578125 7.8203125 C-13.68016496 4.85312155 -11.40576362 4.04790858 -8.4296875 2.59765625 C-7.37136719 2.06527344 -6.31304687 1.53289062 -5.22265625 0.984375 C-2.2421875 -0.08984375 -2.2421875 -0.08984375 0 0 Z " fill="#FDF8FA" transform="translate(303.2421875,212.08984375)"></path></svg>