<svg version="1.1" xmlns="http://www.w3.org/2000/svg" width="16px" height="16px" fill="currentColor" viewBox="0 0 512 512"><path d="M0 0 C168.96 0 337.92 0 512 0 C512 168.96 512 337.92 512 512 C343.04 512 174.08 512 0 512 C0 343.04 0 174.08 0 0 Z " fill="#D72B6B" transform="translate(0,0)"></path><path d="M0 0 C1.72879971 2.26490245 1.73053956 3.54531344 1.74640179 6.37830639 C1.75893993 7.32481564 1.77147808 8.27132488 1.78439617 9.24651623 C1.78296108 10.28301311 1.78152599 11.31951 1.78004742 12.38741589 C1.79533489 14.02667286 1.79533489 14.02667286 1.81093121 15.69904613 C1.84117678 19.31893494 1.850345 22.93855965 1.85939312 26.55855846 C1.87623119 29.06534748 1.89438023 31.57212801 1.9137907 34.07889843 C1.9565234 40.00740711 1.98601229 45.9358884 2.00911409 51.86449748 C2.03880447 59.27628127 2.08900533 66.68790202 2.13868999 74.09957409 C2.22483756 87.32151489 2.29270194 100.54348445 2.34767437 113.76558971 C3.75267193 114.04257702 3.75267193 114.04257702 5.18605328 114.32516003 C6.42790386 114.57878307 7.66975445 114.83240612 8.94923687 115.09371471 C10.17465191 115.34024792 11.40006695 115.58678112 12.66261578 115.84078503 C25.22008764 118.99221629 34.58637891 126.31730934 41.67970562 136.94918346 C45.87793803 144.03800213 49.58528257 151.68796063 51.34767437 159.76558971 C51.51186871 160.50478649 51.67606304 161.24398327 51.84523296 162.00557995 C53.63363317 171.1659418 53.719963 180.24321059 53.71827984 189.54098034 C53.72271105 192.28832991 53.75930879 195.0341419 53.79689312 197.78121471 C53.80275233 199.53641761 53.80672771 201.29162805 53.80861187 203.04683971 C53.83016842 204.27183178 53.83016842 204.27183178 53.85216045 205.52157116 C53.82361176 209.05600212 53.64714575 211.32251971 51.64406109 214.28609753 C48.89206029 216.05912802 47.39849838 216.23188795 44.14454937 216.15621471 C43.26121929 216.14622448 42.37788921 216.13623425 41.46779156 216.12594128 C40.35565289 216.08952526 39.24351421 216.05310925 38.09767437 216.01558971 C34.55017437 215.93308971 31.00267437 215.85058971 27.34767437 215.76558971 C27.34767437 228.63558971 27.34767437 241.50558971 27.34767437 254.76558971 C23.05767437 254.76558971 18.76767437 254.76558971 14.34767437 254.76558971 C14.34767437 241.89558971 14.34767437 229.02558971 14.34767437 215.76558971 C1.80767437 215.76558971 -10.73232563 215.76558971 -23.65232563 215.76558971 C-23.65232563 228.63558971 -23.65232563 241.50558971 -23.65232563 254.76558971 C-27.94232563 254.76558971 -32.23232563 254.76558971 -36.65232563 254.76558971 C-36.65232563 241.89558971 -36.65232563 229.02558971 -36.65232563 215.76558971 C-43.71300889 215.92345536 -43.71300889 215.92345536 -50.77244282 216.12594128 C-51.6557729 216.13593151 -52.53910297 216.14592175 -53.44920063 216.15621471 C-54.34993305 216.17716198 -55.25066547 216.19810925 -56.17869282 216.21969128 C-58.65232563 215.76558971 -58.65232563 215.76558971 -60.94431782 214.28658581 C-63.39297613 210.67239974 -63.22523619 207.25664078 -63.18357563 203.03902721 C-63.18931599 201.74649532 -63.18931599 201.74649532 -63.19517231 200.42785168 C-63.19789458 198.59705982 -63.19051129 196.76622929 -63.17381001 194.93551159 C-63.15276879 192.19824058 -63.17340626 189.46370642 -63.19920063 186.72652721 C-63.22372325 172.30951676 -62.03164539 157.13928012 -54.90232563 144.26558971 C-54.55798481 143.61598278 -54.21364399 142.96637585 -53.8588686 142.29708385 C-46.50046779 128.83010611 -37.22967267 121.15143204 -22.92576313 115.71090221 C-19.65232563 114.76558971 -19.65232563 114.76558971 -11.65232563 113.76558971 C-11.15732563 63.27558971 -11.15732563 63.27558971 -10.65232563 11.76558971 C-56.69144194 17.07779544 -99.69667537 32.40288306 -130.27732563 69.07808971 C-131.75388134 70.9597654 -133.21152318 72.85639919 -134.65232563 74.76558971 C-135.25125629 75.55207897 -135.25125629 75.55207897 -135.86228657 76.3544569 C-149.47551561 94.34602347 -160.12015485 114.80978694 -165.65232563 136.76558971 C-165.83279438 137.41930553 -166.01326313 138.07302135 -166.19920063 138.74654675 C-172.43977127 161.93258582 -172.65929874 191.4638149 -166.65232563 214.76558971 C-166.43721333 215.63006725 -166.22210102 216.49454479 -166.00047016 217.38521862 C-159.49204384 242.77824379 -147.74844901 265.87826252 -130.65232563 285.76558971 C-129.84408344 286.7078944 -129.03584126 287.65019909 -128.20310688 288.62105846 C-103.20202547 317.12535775 -67.27799972 336.73497473 -29.65232563 341.76558971 C-27.73033344 342.03822643 -27.73033344 342.03822643 -25.76951313 342.31637096 C-18.45097427 343.09770688 -11.06714749 343.00990399 -3.71482563 343.01558971 C-2.54056019 343.01660183 -2.54056019 343.01660183 -1.34257221 343.01763439 C10.16155006 343.00187128 21.14370474 342.59798978 32.34767437 339.76558971 C33.02781597 339.59930065 33.70795757 339.43301159 34.40870953 339.26168346 C76.78285584 328.69505266 114.25812 301.90431633 136.98048687 264.51168346 C146.51828969 248.23706198 153.08685289 230.70578023 157.47267437 212.39058971 C157.64154156 211.72543346 157.81040874 211.06027721 157.98439312 210.37496471 C167.4243811 170.9797393 158.05191723 126.02409326 137.34767437 91.76558971 C118.71626355 62.97465959 94.6037349 40.10919901 62.97658062 26.29293346 C60.34767437 24.76558971 60.34767437 24.76558971 59.38283062 22.84371471 C59.34134435 20.39141514 59.84368837 18.77515612 60.78517437 16.51558971 C61.07263531 15.80918346 61.36009624 15.10277721 61.65626812 14.37496471 C61.88443218 13.84387096 62.11259624 13.31277721 62.34767437 12.76558971 C67.31540034 13.32350355 71.32296867 14.94030609 75.72267437 17.20308971 C76.41385357 17.55508434 77.10503277 17.90707897 77.81715679 18.2697401 C89.90620774 24.54456576 101.10862139 31.75077133 111.34767437 40.76558971 C112.19845562 41.50680065 113.04923687 42.24801159 113.92579937 43.01168346 C116.43239018 45.22993944 118.89621849 47.48665855 121.34767437 49.76558971 C122.06310406 50.41527721 122.77853374 51.06496471 123.51564312 51.73433971 C134.69272995 62.32101576 143.76947098 75.42665355 151.34767437 88.76558971 C152.3280064 90.44781628 152.3280064 90.44781628 153.32814312 92.16402721 C173.88640633 128.33244723 180.44512533 174.13502072 171.34767437 214.76558971 C171.10404156 216.02371471 170.86040874 217.28183971 170.60939312 218.57808971 C160.73802256 264.23902651 130.57773122 303.83737296 92.00734234 329.20455456 C71.7591964 342.22084924 49.93587927 350.18898021 26.34767437 354.76558971 C25.43501812 354.96023815 24.52236187 355.15488659 23.58204937 355.35543346 C-20.87336269 363.51595491 -69.02808444 351.45119883 -105.97849751 326.23531628 C-121.00699841 315.67817475 -134.31546208 303.19102185 -145.65232563 288.76558971 C-146.27881001 287.99360241 -146.27881001 287.99360241 -146.91795063 287.2060194 C-160.78953316 270.0441142 -170.32188185 249.81348793 -176.65232563 228.76558971 C-177.04806782 227.51262096 -177.44381001 226.25965221 -177.85154438 224.96871471 C-190.6804632 181.28362313 -184.18285318 132.71363868 -163.0854311 92.7282362 C-141.8564354 53.95265586 -105.36134 21.48607104 -63.06248188 7.58590221 C-59.60647714 6.58292221 -56.13486291 5.67152002 -52.65232563 4.76558971 C-51.50763813 4.41625378 -50.36295063 4.06691784 -49.18357563 3.70699596 C-38.63743776 0.57754418 -9.5816088 -7.15817526 0 0 Z " fill="#FEFAFC" transform="translate(260.652325630188,78.2344102859497)"></path><path d="M0 0 C0.7734375 -0.01224609 1.546875 -0.02449219 2.34375 -0.03710938 C13.57829175 -0.06538423 23.58754753 3.4850775 31.9375 11.125 C49.00308913 29.33836326 46.25 53.51928483 46.25 77.1875 C16.55 77.1875 -13.15 77.1875 -43.75 77.1875 C-43.75 26.53368875 -43.75 26.53368875 -29.5625 11.1875 C-20.92190991 3.22984314 -11.43844393 0.00934513 0 0 Z " fill="#D82E6D" transform="translate(254.75,204.8125)"></path></svg>