<svg version="1.1" xmlns="http://www.w3.org/2000/svg" width="16px" height="16px" fill="currentColor" viewBox="0 0 512 512"><path d="M0 0 C168.96 0 337.92 0 512 0 C512 168.96 512 337.92 512 512 C343.04 512 174.08 512 0 512 C0 343.04 0 174.08 0 0 Z " fill="#DE2D34" transform="translate(0,0)"></path><path d="M0 0 C1.12795361 -0.00935994 1.12795361 -0.00935994 2.27869415 -0.01890898 C4.80004674 -0.03487215 7.32043701 -0.02222232 9.84179688 -0.00964355 C11.64868738 -0.01506322 13.45557347 -0.022185 15.26245117 -0.03088379 C20.17152718 -0.04913865 25.0802674 -0.04204069 29.98934937 -0.02936745 C35.12311722 -0.01925099 40.25685604 -0.02862936 45.390625 -0.03491211 C54.01242238 -0.04219246 62.63408278 -0.03259062 71.25585938 -0.0135498 C81.22843656 0.00821965 91.20068666 0.00116856 101.17325592 -0.02085543 C109.73046929 -0.03899836 118.2875841 -0.04157316 126.84481049 -0.03110075 C131.95787417 -0.02485974 137.07078404 -0.02404689 142.18383789 -0.0372467 C146.99052263 -0.04878848 151.79678503 -0.04081012 156.60342407 -0.01766968 C158.36910297 -0.01237363 160.13481731 -0.01391164 161.90048218 -0.02272034 C164.30783501 -0.03362444 166.71382798 -0.01997589 169.12109375 0 C169.82264839 -0.00892289 170.52420303 -0.01784577 171.24701691 -0.02703905 C174.49457109 0.02536347 176.31557028 0.33490233 178.99376678 2.22657013 C180.83750162 4.91120413 181.06291474 6.2840668 181.06848145 9.5177002 C181.07976074 10.5271167 181.09104004 11.5365332 181.10266113 12.57653809 C181.09456421 13.67796143 181.08646729 14.77938477 181.078125 15.91418457 C181.08513428 17.07877197 181.09214355 18.24335938 181.09936523 19.4432373 C181.1169912 23.2983779 181.10530528 27.15278631 181.09179688 31.00793457 C181.09449045 33.6830741 181.09836541 36.35819126 181.10339355 39.0333252 C181.11066884 44.64213007 181.10108559 50.2507242 181.08203125 55.85949707 C181.06026245 62.34211364 181.06731392 68.82422699 181.08933687 75.30683136 C181.10749447 80.87470046 181.11004753 86.44241816 181.0995822 92.01030731 C181.0933491 95.33489127 181.09407886 98.65918709 181.10572815 101.98376465 C181.11586435 105.69008614 181.10043172 109.39543564 181.078125 113.10168457 C181.08622192 114.20310791 181.09431885 115.30453125 181.10266113 116.43933105 C181.09138184 117.44874756 181.08010254 118.45816406 181.06848145 119.49816895 C181.06697334 120.37420776 181.06546524 121.25024658 181.06391144 122.15283203 C180.38494871 125.32950948 179.09316333 126.53139702 176.56054688 128.50793457 C173.67727957 128.88197005 171.18248065 129.01508355 168.30371094 128.96203613 C167.05925453 128.96291229 167.05925453 128.96291229 165.78965759 128.96380615 C163.05140124 128.96102265 160.31423771 128.92991868 157.57617188 128.89855957 C155.67617386 128.89109811 153.77616814 128.88540473 151.87615967 128.88140869 C146.87826242 128.86614486 141.88083102 128.8268565 136.88311768 128.78259277 C130.8851433 128.73445742 124.88701305 128.71610963 118.88890076 128.69277954 C109.77912558 128.65400601 100.67037232 128.57735746 91.56054688 128.50793457 C91.56054688 141.04793457 91.56054688 153.58793457 91.56054688 166.50793457 C97.56628906 166.46152832 103.57203125 166.41512207 109.75976562 166.36730957 C113.56512146 166.34687076 117.37040959 166.32761499 121.17578125 166.31262207 C127.21555643 166.28871298 133.25508899 166.26043224 139.29467773 166.20617676 C144.16410289 166.16270709 149.03326787 166.1387949 153.90287209 166.1284256 C155.76043608 166.12103625 157.61798588 166.10660654 159.47543907 166.08501434 C162.07793291 166.05596522 164.67935247 166.05197916 167.28198242 166.05383301 C168.04946808 166.0394519 168.81695374 166.0250708 169.60769653 166.01025391 C173.26885644 166.03846258 175.39230292 166.40428039 178.53674316 168.34155273 C181.31166251 171.31196674 181.21464759 173.21958905 181.26757812 177.24230957 C181.29658203 178.53781738 181.32558594 179.8333252 181.35546875 181.16809082 C181.36185758 182.53136969 181.36771018 183.89465117 181.37304688 185.25793457 C181.39619659 186.63688026 181.42156295 188.01579064 181.44921875 189.39465332 C181.50815901 192.76603647 181.54439105 196.13611895 181.56054688 199.50793457 C182.23891602 199.76623047 182.91728516 200.02452637 183.61621094 200.29064941 C184.51049805 200.63821289 185.40478516 200.98577637 186.32617188 201.34387207 C187.65310059 201.85506592 187.65310059 201.85506592 189.00683594 202.37658691 C196.7761519 205.81855729 200.78107153 212.13922594 204.56054688 219.50793457 C206.88855851 226.49196947 206.81905275 236.6362536 203.99804688 243.50793457 C199.59883574 251.62478892 192.96054402 258.23993577 184.43554688 261.82043457 C173.8195403 263.70391961 164.35710182 263.23441204 155.34179688 256.96496582 C149.28296594 252.02521 145.0207398 245.94270263 142.56054688 238.50793457 C141.69749192 229.2272917 141.81195323 220.56701218 147.48242188 212.91418457 C153.31150201 206.08009062 158.66989695 201.28606456 167.56054688 199.50793457 C167.56054688 192.90793457 167.56054688 186.30793457 167.56054688 179.50793457 C142.15054688 179.50793457 116.74054688 179.50793457 90.56054688 179.50793457 C90.56054688 190.39793457 90.56054688 201.28793457 90.56054688 212.50793457 C93.86054688 213.49793457 97.16054688 214.48793457 100.56054688 215.50793457 C107.87117117 220.26700764 113.54568137 227.04192828 116.15820312 235.42590332 C118.15717687 245.77010726 115.79763737 254.47055243 110.43164062 263.38293457 C105.90720396 269.43653624 98.74198082 273.56072984 91.56054688 275.50793457 C83.10442302 276.36048633 75.86334583 276.02804224 68.56054688 271.50793457 C67.86316406 271.09543457 67.16578125 270.68293457 66.44726562 270.25793457 C59.77818346 265.83699875 56.56750676 259.70430524 53.18554688 252.63293457 C51.40741383 243.74226936 51.89301806 235.39618408 56.56054688 227.50793457 C61.62778738 220.45920695 67.26282234 215.35372457 75.56054688 212.50793457 C76.55054688 212.50793457 77.54054688 212.50793457 78.56054688 212.50793457 C78.56054688 201.61793457 78.56054688 190.72793457 78.56054688 179.50793457 C53.15054688 179.50793457 27.74054688 179.50793457 1.56054688 179.50793457 C1.56054688 186.10793457 1.56054688 192.70793457 1.56054688 199.50793457 C4.53054687 200.49793457 7.50054687 201.48793457 10.56054688 202.50793457 C17.53013612 207.39316068 24.16767214 213.81971294 26.24023438 222.33605957 C27.72683711 232.41595125 26.90722121 241.25752692 21.01757812 249.72668457 C15.74295696 256.1962428 9.59614342 260.2571778 1.56054688 262.50793457 C-8.1127131 263.48319876 -15.70495881 262.7201813 -23.58789062 256.92980957 C-30.94005252 250.86222615 -35.84492936 244.49072108 -36.81054688 234.77355957 C-37.06982796 226.21199225 -36.44714629 219.76908966 -31.43945312 212.50793457 C-30.71757812 211.43543457 -29.99570313 210.36293457 -29.25195312 209.25793457 C-24.12499688 204.24491069 -18.50910938 200.79004619 -11.43945312 199.50793457 C-11.46563721 198.65038574 -11.49182129 197.79283691 -11.51879883 196.90930176 C-11.6041591 193.71877268 -11.66676825 190.5288265 -11.71411133 187.33752441 C-11.73921243 185.95809755 -11.77330186 184.57880315 -11.81665039 183.1998291 C-11.87748187 181.21457585 -11.90303249 179.22834098 -11.92773438 177.24230957 C-11.95391846 176.04831543 -11.98010254 174.85432129 -12.00708008 173.62414551 C-11.43945312 170.50793457 -11.43945312 170.50793457 -9.42138672 168.34155273 C-5.62249429 166.00557913 -2.4826029 165.97285297 1.83911133 166.05383301 C3.06915642 166.05295685 3.06915642 166.05295685 4.3240509 166.05206299 C7.02441287 166.0548414 9.72365989 166.08592112 12.42382812 166.11730957 C14.29997657 166.12477284 16.17613283 166.13046537 18.05229187 166.13446045 C22.98277426 166.14970999 27.91278297 166.188986 32.84307861 166.23327637 C38.76264915 166.28145046 44.68237834 166.29976632 50.60208893 166.3230896 C59.5885707 166.36183739 68.57401379 166.43849581 77.56054688 166.50793457 C77.56054688 153.96793457 77.56054688 141.42793457 77.56054688 128.50793457 C71.47101563 128.55434082 65.38148438 128.60074707 59.10742188 128.64855957 C55.2519361 128.66899528 51.39651701 128.68825082 47.54101562 128.70324707 C41.41994375 128.72716812 35.29911097 128.75548093 29.17822266 128.80969238 C24.24396391 128.85312112 19.30996153 128.87706559 14.37552643 128.88744354 C12.49201674 128.89484025 10.60852124 128.90928418 8.72512054 128.9308548 C6.0888984 128.95984949 3.45373849 128.96389226 0.81738281 128.96203613 C0.03695114 128.97641724 -0.74348053 128.99079834 -1.54756165 129.00561523 C-4.90010581 128.9800367 -6.95287968 128.88767256 -9.63945389 126.79098129 C-11.76623145 124.09346207 -11.94154668 122.89114836 -11.9473877 119.49816895 C-11.96430664 117.98404419 -11.96430664 117.98404419 -11.98156738 116.43933105 C-11.97347046 115.33790771 -11.96537354 114.23648438 -11.95703125 113.10168457 C-11.96404053 111.93709717 -11.9710498 110.77250977 -11.97827148 109.57263184 C-11.99589745 105.71749124 -11.98421153 101.86308283 -11.97070312 98.00793457 C-11.9733967 95.33279504 -11.97727166 92.65767788 -11.9822998 89.98254395 C-11.98957509 84.37373907 -11.97999184 78.76514494 -11.9609375 73.15637207 C-11.9391687 66.6737555 -11.94622017 60.19164215 -11.96824312 53.70903778 C-11.98640072 48.14116868 -11.98895378 42.57345098 -11.97848845 37.00556183 C-11.97225535 33.68097787 -11.97298511 30.35668205 -11.9846344 27.03210449 C-11.9947706 23.325783 -11.97933797 19.6204335 -11.95703125 15.91418457 C-11.96512817 14.81276123 -11.9732251 13.71133789 -11.98156738 12.57653809 C-11.97028809 11.56712158 -11.95900879 10.55770508 -11.9473877 9.5177002 C-11.94587959 8.64166138 -11.94437149 7.76562256 -11.94281769 6.86303711 C-10.55427098 0.36641397 -5.77878599 -0.07349884 0 0 Z " fill="#FEFBFB" transform="translate(171.439453125,159.4920654296875)"></path><path d="M0 0 C1.24845703 0.00483398 2.49691406 0.00966797 3.78320312 0.01464844 C26.61631336 0.16400159 46.93365312 3.8834918 68.25 12.125 C69.47074219 12.58648437 70.69148437 13.04796875 71.94921875 13.5234375 C115.52607223 31.03515795 150.09404004 67.69477076 168.5 110.4375 C174.43081381 124.72053167 178.81915326 139.69598994 180.25 155.125 C180.3339502 155.982146 180.41790039 156.83929199 180.50439453 157.72241211 C184.41624881 200.21746593 175.96912175 239.78363787 153.5 276.125 C153.13535645 276.73118164 152.77071289 277.33736328 152.39501953 277.96191406 C151.328125 279.625 151.328125 279.625 149.25 282.125 C145.11356447 282.125 144.55197567 281.97267359 141.5 279.625 C140.57960938 278.92890625 140.57960938 278.92890625 139.640625 278.21875 C139.18171875 277.8578125 138.7228125 277.496875 138.25 277.125 C138.8709174 274.10269822 139.85284454 271.86430026 141.47265625 269.24609375 C141.92503662 268.49924316 142.37741699 267.75239258 142.84350586 266.98291016 C143.32827393 266.1841748 143.81304199 265.38543945 144.3125 264.5625 C153.84223268 248.47205026 160.01688783 231.56997495 164.4375 213.4375 C164.60475586 212.76058105 164.77201172 212.08366211 164.94433594 211.38623047 C167.39247503 200.92990032 167.49079723 190.38564733 167.5 179.6875 C167.50067474 178.97912994 167.50134949 178.27075989 167.50204468 177.54092407 C167.48487001 166.15540119 166.79779299 155.24651761 164.25 144.125 C164.08371094 143.36010254 163.91742188 142.59520508 163.74609375 141.80712891 C157.68320397 114.42869052 144.41602736 88.8181633 125.26953125 68.296875 C123.49915862 66.39295395 121.83614232 64.44608849 120.1875 62.4375 C96.63836915 35.00594487 55.5924564 17.59592798 20.25 14.125 C17.39410175 13.97668639 14.54302321 13.93823376 11.68359375 13.921875 C10.88703873 13.91617493 10.0904837 13.91047485 9.26979065 13.90460205 C7.59157614 13.89521309 5.91334371 13.88864258 4.23510742 13.88476562 C1.71824345 13.87511785 -0.79778202 13.8440601 -3.31445312 13.8125 C-13.55155251 13.74525432 -22.76751313 14.6748012 -32.75 17.125 C-33.62019775 17.31852051 -34.49039551 17.51204102 -35.38696289 17.71142578 C-59.13749955 23.03382917 -81.90691752 33.65304309 -100.75 49.125 C-101.3063916 49.57601074 -101.8627832 50.02702148 -102.43603516 50.49169922 C-129.80237475 72.77259274 -150.08573297 103.73869022 -158.75 138.125 C-158.93046875 138.77871582 -159.1109375 139.43243164 -159.296875 140.10595703 C-170.28986469 180.94899897 -161.57138692 226.50928172 -141.29296875 262.90234375 C-139.65079771 265.74566749 -137.86289743 268.33935486 -135.86328125 270.94140625 C-133.75 274.125 -133.75 274.125 -134.01611328 276.23120117 C-134.96525549 278.68046802 -136.13381832 279.44895381 -138.3125 280.875 C-139.27349609 281.51695312 -139.27349609 281.51695312 -140.25390625 282.171875 C-140.74761719 282.48640625 -141.24132812 282.8009375 -141.75 283.125 C-146.15015986 281.63845951 -147.81099881 278.32470645 -150 274.5 C-150.38913574 273.83194336 -150.77827148 273.16388672 -151.17919922 272.47558594 C-175.30725199 230.52311771 -184.20084821 181.53327725 -171.80029297 134.14575195 C-158.29459341 85.71383067 -127.5603242 46.44973682 -83.9375 21.4375 C-58.01561742 6.97537826 -29.5926141 -0.11951783 0 0 Z " fill="#FEFAFA" transform="translate(253.75,76.875)"></path><path d="M0 0 C46.86 0 93.72 0 142 0 C138.48244918 4.22106099 135.96127797 7.05843633 131.8125 10.3125 C128.10337971 13.27681702 124.50502877 16.29683973 121 19.5 C116.70008209 23.41891252 112.24080453 27.09170869 107.71875 30.75 C105.07852271 32.93501569 102.5327028 35.19171391 100 37.5 C95.71002331 41.40985217 91.26513416 45.07787772 86.74609375 48.71875 C83.09273308 51.75368974 79.63593697 54.98138436 76.19140625 58.25 C72.76104027 60.989401 72.76104027 60.989401 70 61 C67.5546875 59.4453125 67.5546875 59.4453125 64.875 57.125 C63.41707031 55.87589844 63.41707031 55.87589844 61.9296875 54.6015625 C58.4435768 51.5058962 54.97704374 48.39047024 51.53125 45.25 C48.9115519 42.92137947 46.2248469 40.70437053 43.5 38.5 C39.03723787 34.88967558 34.77280467 31.11572071 30.53125 27.25 C27.9115519 24.92137947 25.2248469 22.70437053 22.5 20.5 C17.96692053 16.83127891 13.61263801 13.0114877 9.3046875 9.08203125 C7.1953725 7.17649753 5.04989112 5.32987827 2.875 3.5 C1.92625 2.675 0.9775 1.85 0 1 C0 0.67 0 0.34 0 0 Z " fill="#E23238" transform="translate(185,173)"></path><path d="M0 0 C2.94688369 1.11632398 4.69677308 2.8573402 6.98828125 5.01171875 C7.86871094 5.81867188 8.74914062 6.625625 9.65625 7.45703125 C11.15819117 8.86815737 12.64579842 10.2951893 14.1015625 11.75390625 C14.94267578 12.56214844 14.94267578 12.56214844 15.80078125 13.38671875 C16.50074219 14.10021484 16.50074219 14.10021484 17.21484375 14.828125 C20.47349147 16.48341418 23.66749567 16.5227786 27.17578125 15.82421875 C29.6027615 14.13007973 31.30708868 12.72982725 33.30078125 10.63671875 C34.2812509 9.66275088 35.26302004 8.6900894 36.24609375 7.71875 C36.72393311 7.23970215 37.20177246 6.7606543 37.6940918 6.26708984 C44.2084124 -0.07656393 44.2084124 -0.07656393 47.61328125 -0.42578125 C50.85545565 1.15576724 52.84775903 3.27021021 55.30859375 5.87890625 C57.08495312 7.72959028 58.91825592 9.40359534 60.86328125 11.07421875 C64.36292479 14.09138716 67.77831014 17.19306024 71.17578125 20.32421875 C75.12190558 23.9572753 79.10400115 27.5397812 83.15234375 31.05859375 C85.67292742 33.25802197 88.17780966 35.47413481 90.67578125 37.69921875 C91.53171875 38.45976562 92.38765625 39.2203125 93.26953125 40.00390625 C94.213125 40.90496094 94.213125 40.90496094 95.17578125 41.82421875 C95.17578125 42.15421875 95.17578125 42.48421875 95.17578125 42.82421875 C47.65578125 42.82421875 0.13578125 42.82421875 -48.82421875 42.82421875 C-43.23670345 36.11920039 -43.23670345 36.11920039 -40.26171875 33.63671875 C-36.71001516 30.60870681 -33.25379183 27.48911301 -29.82421875 24.32421875 C-25.92295206 20.7310899 -21.98404179 17.19242011 -17.97265625 13.72265625 C-14.54789502 10.69641269 -11.20189784 7.58347358 -7.859375 4.46679688 C-2.74744341 -0.26474294 -2.74744341 -0.26474294 0 0 Z " fill="#DD2D34" transform="translate(232.82421875,232.17578125)"></path><path d="M0 0 C4.0600385 2.70669234 7.21356119 4.94948233 10.6875 8.1875 C14.20704566 11.41155157 17.78673658 14.50102771 21.5 17.5 C25.95138323 21.10111901 30.20930086 24.85900561 34.4296875 28.7265625 C38.13527194 32.0041463 42.03181869 35.03013134 45.9453125 38.0546875 C46.96238281 39.01761719 46.96238281 39.01761719 48 40 C48 43 48 43 46.53125 44.796875 C45.52578125 45.76367188 45.52578125 45.76367188 44.5 46.75 C43.39398438 47.81541016 43.39398438 47.81541016 42.265625 48.90234375 C39.64368109 51.32990216 36.97427331 53.68945386 34.265625 56.01953125 C31.4668369 58.46605809 28.73311864 60.98078499 26 63.5 C22.07682826 67.1124074 18.11944517 70.67516346 14.0859375 74.1640625 C10.40910787 77.40022341 6.82189143 80.73660365 3.22265625 84.05859375 C1 86 1 86 0 86 C0 57.62 0 29.24 0 0 Z " fill="#DB2B33" transform="translate(173,181)"></path><path d="M0 0 C0 28.38 0 56.76 0 86 C-4.39257304 82.2349374 -8.69728376 78.48398858 -12.9375 74.5625 C-16.25757038 71.50161727 -19.58675848 68.45719255 -23 65.5 C-26.92378077 62.09939 -30.74013187 58.58472303 -34.55615234 55.06445312 C-38.13014761 51.77450663 -41.76430582 48.57020606 -45.4765625 45.4375 C-47 44 -47 44 -49 41 C-39.95072949 33.14209003 -30.88044163 25.30996138 -21.7734375 17.51904297 C-19.90951656 15.92249615 -18.0482387 14.32291044 -16.1875 12.72265625 C-15.55980713 12.18326416 -14.93211426 11.64387207 -14.28540039 11.08813477 C-13.091329 10.06191804 -11.89777052 9.03510408 -10.70483398 8.00756836 C-1.38087725 0 -1.38087725 0 0 0 Z " fill="#E4343A" transform="translate(339,181)"></path><path d="M0 0 C6.330399 3.21275675 10.30343541 7.26577497 12.58984375 14.125 C13.42326817 20.16137402 12.59911196 24.33730576 9.08984375 29.33203125 C6.09303992 32.91414832 3.09325215 35.62386387 -1.41015625 37.125 C-6.92171958 37.61014482 -11.78686687 37.89237316 -16.84765625 35.5 C-21.44875439 31.23556758 -25.17561756 27.4211473 -26.41015625 21.125 C-26.4975601 15.06135779 -25.39080904 10.85874926 -21.41015625 6.125 C-15.06175482 -0.00214347 -8.69516424 -3.1567533 0 0 Z " fill="#DB2C34" transform="translate(352.41015625,371.875)"></path><path d="M0 0 C5.04663371 2.82611488 8.97669864 6.93009592 10.8125 12.4375 C11.73869497 19.58913205 11.08792794 24.76500282 6.63671875 30.5546875 C2.19350884 35.14061293 -2.30743687 36.64779963 -8.625 37.0625 C-14.73598334 36.81636317 -18.7654002 34.56601641 -23.1875 30.4375 C-26.67794833 26.64517505 -27.4576426 23.02918971 -27.6875 17.9375 C-27.42559885 11.76170192 -25.80359788 8.05954356 -21.46875 3.71484375 C-15.13192366 -1.96413409 -8.01009063 -3.60454078 0 0 Z " fill="#D5242D" transform="translate(264.1875,385.5625)"></path><path d="M0 0 C5.06358941 2.99779866 9.14494539 6.76645328 11.80859375 12.09375 C12.3099363 18.53407357 12.78808293 24.70218401 8.80859375 30.09375 C3.79729023 35.10505352 0.22355659 37.23351818 -7.00390625 37.40625 C-12.27974937 37.34904206 -15.20703037 36.78658618 -19.19140625 33.09375 C-23.2353659 28.85722084 -26.45819127 24.86050305 -26.56640625 18.84375 C-26.41930926 13.8669684 -25.21074037 10.07492186 -22.19140625 6.09375 C-15.93399983 0.30218671 -8.47861345 -3.50630716 0 0 Z " fill="#D01F29" transform="translate(173.19140625,371.90625)"></path></svg>