<svg version="1.1" xmlns="http://www.w3.org/2000/svg" width="16px" height="16px" fill="currentColor" viewBox="0 0 512 512"><path d="M0 0 C168.96 0 337.92 0 512 0 C512 168.96 512 337.92 512 512 C343.04 512 174.08 512 0 512 C0 343.04 0 174.08 0 0 Z " fill="#E3740D" transform="translate(0,0)"></path><path d="M0 0 C6.71904474 4.60254565 11.55803145 12.60632866 16.47900391 19.02148438 C18.01237064 21.01609177 19.55789527 23.00077691 21.10546875 24.984375 C43.4337544 53.72544843 61.99656795 84.33845004 78 117 C79.32911553 119.66879824 80.6643114 122.33448109 82 125 C85.54243452 123.63408831 88.92627929 122.09068516 92.3125 120.375 C93.63701172 119.70597656 93.63701172 119.70597656 94.98828125 119.0234375 C95.65214844 118.68570313 96.31601562 118.34796875 97 118 C98.00533667 119.62170379 99.00411907 121.24747237 100 122.875 C100.8353125 124.23238281 100.8353125 124.23238281 101.6875 125.6171875 C103 128 103 128 103 130 C100.71125827 131.33858524 98.41930344 132.67101014 96.125 134 C95.47402344 134.3815625 94.82304687 134.763125 94.15234375 135.15625 C89.2265625 138 89.2265625 138 87 138 C87.44730469 139.09054688 87.89460937 140.18109375 88.35546875 141.3046875 C92.385943 151.29247571 95.730885 161.25368192 98.3984375 171.68603516 C99.00840206 174.0323193 99.65733422 176.36519067 100.3125 178.69921875 C111.38458688 219.06918459 110.07835282 259.90609394 90 297 C89.67 297.66 89.34 298.32 89 299 C103.94568394 290.49055952 118.87031343 281.95041878 133.70898438 273.25537109 C134.64291016 272.7083252 135.57683594 272.1612793 136.5390625 271.59765625 C137.35584473 271.11820557 138.17262695 270.63875488 139.01416016 270.14477539 C140.32127574 269.39126359 141.6505316 268.6747342 143 268 C143.0514519 261.35127131 143.0860424 254.70259541 143.10986328 248.05371094 C143.11981224 245.8001107 143.13337621 243.54652298 143.15087891 241.29296875 C143.29860675 221.75813435 141.77105452 203.16473781 138 184 C137.86899902 183.31566895 137.73799805 182.63133789 137.60302734 181.92626953 C129.91289894 142.34117082 113.21424837 104.10566138 93.0703125 69.32177734 C91.39637232 65.69057956 91.65311636 63.72373713 93 60 C96.29167886 57.80554743 97.18525453 57.53300314 101 58 C103.5234375 59.29296875 103.5234375 59.29296875 106.375 61.1875 C112.53280345 65.16494958 118.85454709 68.79383991 125.25 72.375 C132.46617925 76.43082168 139.66857881 80.50542674 146.8125 84.6875 C147.51729492 85.09726074 148.22208984 85.50702148 148.94824219 85.92919922 C151.55517254 87.46288002 153.85181755 88.85181755 156 91 C156.20385099 93.43662694 156.28247954 95.76057908 156.27415466 98.19894409 C156.27939134 98.94920431 156.28462802 99.69946453 156.29002339 100.47245991 C156.30508854 102.99975947 156.30572995 105.52685774 156.30639648 108.05419922 C156.31401361 109.86079249 156.32244033 111.6673825 156.33161926 113.47396851 C156.35361543 118.39132339 156.36237003 123.30861608 156.36744571 128.22601461 C156.37108327 131.29584719 156.37732018 134.36566332 156.3844471 137.43548965 C156.40895946 148.13847829 156.42199733 158.84141833 156.42553711 169.54443359 C156.42917369 179.53176 156.45907326 189.51877933 156.50094169 199.50601184 C156.53559573 208.07165965 156.5510847 216.63720547 156.55178314 225.20292294 C156.55257764 230.32279704 156.56139505 235.44235861 156.58978081 240.56216049 C156.61587783 245.37704891 156.61821369 250.19136383 156.60212517 255.00629044 C156.60030398 256.77521256 156.60706154 258.54416703 156.62294388 260.3130188 C156.64328382 262.7250612 156.63292629 265.13507412 156.61473083 267.54708862 C156.6279308 268.2500075 156.64113077 268.95292639 156.65473074 269.67714584 C156.59119476 273.35504583 156.27139242 274.73012653 153.62043858 277.36624336 C152.75569385 277.90538305 151.89094912 278.44452274 151 279 C150.16122314 279.5256958 149.32244629 280.0513916 148.45825195 280.59301758 C147.56066162 281.10501709 146.66307129 281.6170166 145.73828125 282.14453125 C144.71557129 282.73097412 143.69286133 283.31741699 142.63916016 283.92163086 C141.5413623 284.54561768 140.44356445 285.16960449 139.3125 285.8125 C138.1486714 286.47815244 136.9851019 287.14425807 135.82177734 287.81079102 C133.40869063 289.19295868 130.99450608 290.57318005 128.57958984 291.95214844 C123.08292813 295.09346847 117.60557572 298.26823349 112.125 301.4375 C103.64858097 306.33250525 95.15652313 311.19927019 86.65368652 316.04815674 C76.3955008 321.89815977 66.16719107 327.79619076 55.97436523 333.75952148 C48.31086744 338.24160573 40.62862194 342.69055899 32.9375 347.125 C31.30433838 348.06678101 31.30433838 348.06678101 29.63818359 349.02758789 C27.63279583 350.18325908 25.62575458 351.33606809 23.61669922 352.48535156 C22.00212089 353.41993301 20.3971459 354.37162791 18.80908203 355.35058594 C17.24749706 356.30509199 15.62867838 357.16511308 14 358 C11 357 11 357 9.61328125 354.71484375 C9.18402344 353.79832031 8.75476563 352.88179688 8.3125 351.9375 C7.87550781 351.01839844 7.43851563 350.09929687 6.98828125 349.15234375 C6.66214844 348.44207031 6.33601562 347.73179687 6 347 C6.56847656 346.67128906 7.13695312 346.34257812 7.72265625 346.00390625 C17.93413206 339.71336439 23.60819037 331.29616676 26.5859375 319.72265625 C31.39412056 288.1065846 16.34130367 255.49991062 -1.82421875 230.48828125 C-2.21222656 229.99714844 -2.60023438 229.50601563 -3 229 C-13.87024965 242.78517694 -22.20091903 258.44551725 -28 275 C-28.2568457 275.7326709 -28.51369141 276.4653418 -28.77832031 277.22021484 C-31.99908859 286.78949363 -33.44185673 295.89617368 -33.5 306 C-33.50636475 306.93086426 -33.51272949 307.86172852 -33.51928711 308.82080078 C-33.30791113 320.28820313 -30.21218924 331.1362871 -22.5 339.8125 C-20.05394722 341.95279618 -17.5734767 344.01474654 -15 346 C-16.22527029 350.05281712 -17.69880494 353.44360764 -20 357 C-24.10897287 355.7423893 -27.65406986 354.22023808 -31.359375 352.05078125 C-32.37918457 351.45773193 -33.39899414 350.86468262 -34.44970703 350.25366211 C-35.53880371 349.61307861 -36.62790039 348.97249512 -37.75 348.3125 C-38.9057488 347.63817285 -40.06184266 346.96443682 -41.21826172 346.29125977 C-43.61980548 344.89270204 -46.01984804 343.49161706 -48.41894531 342.08886719 C-53.97231834 338.84524109 -59.55059311 335.64478536 -65.125 332.4375 C-73.39123048 327.6733229 -81.63972757 322.87996351 -89.875 318.0625 C-98.55262637 312.98724645 -107.26620306 307.97767545 -116 303 C-125.10582848 297.80931674 -134.19386402 292.58961406 -143.25 287.3125 C-144.219375 286.74853516 -145.18875 286.18457031 -146.1875 285.60351562 C-150.34547747 283.17509234 -154.49417603 280.73080814 -158.609375 278.23046875 C-159.24327148 277.84656982 -159.87716797 277.4626709 -160.53027344 277.06713867 C-162 276 -162 276 -163 274 C-163.10828861 271.61864124 -163.15660792 269.26581752 -163.16062927 266.88371277 C-163.16571709 266.14232522 -163.17080491 265.40093767 -163.17604691 264.63708383 C-163.19180858 262.13981236 -163.20030617 259.6425699 -163.20874023 257.14526367 C-163.2182756 255.35999872 -163.22816661 253.57473564 -163.23838806 251.78947449 C-163.26980619 245.91566164 -163.2900417 240.04183448 -163.30859375 234.16796875 C-163.31189107 233.16946718 -163.31518839 232.17096562 -163.31858563 231.14220643 C-163.34936474 221.72989665 -163.37607919 212.31758374 -163.39300442 202.90523815 C-163.41492562 190.85479079 -163.45692492 178.80478819 -163.52644199 166.75451869 C-163.57363473 158.28738141 -163.59793156 149.82036435 -163.6052013 141.35309964 C-163.61016426 136.29291107 -163.62530625 131.23322349 -163.6649456 126.17317772 C-163.70174249 121.41323226 -163.71024463 116.65407537 -163.69693947 111.89401436 C-163.69699353 110.14645614 -163.7073364 108.39886359 -163.7286911 106.65143585 C-163.75628861 104.26574631 -163.74690567 101.88294967 -163.72825623 99.49723816 C-163.74505115 98.80501402 -163.76184608 98.11278987 -163.77914995 97.39958924 C-163.72608043 94.68464854 -163.5100411 92.60006785 -161.71761525 90.49126303 C-158.45386141 87.71503781 -154.78984477 85.55788597 -151.0625 83.46875 C-149.93021973 82.8286499 -148.79793945 82.1885498 -147.63134766 81.52905273 C-146.42107119 80.85239274 -145.21061825 80.1760483 -144 79.5 C-141.48515621 78.0878578 -138.97250193 76.6718719 -136.4609375 75.25390625 C-135.83230804 74.89949966 -135.20367859 74.54509308 -134.55599976 74.1799469 C-130.480942 71.87151118 -126.4661205 69.48184012 -122.4765625 67.02734375 C-121.48398438 66.42019531 -120.49140625 65.81304687 -119.46875 65.1875 C-117.61398592 64.04610672 -115.76714552 62.89170562 -113.9296875 61.72265625 C-107.8252588 57.98795919 -107.8252588 57.98795919 -103.51953125 58.05078125 C-100.46491835 59.2015889 -99.39494452 60.04599985 -98 63 C-98.43745019 67.44880451 -100.3894282 71.053819 -102.46484375 74.93359375 C-103.18504926 76.30749804 -103.90517975 77.68144166 -104.62524414 79.05541992 C-105.00294952 79.77055756 -105.38065491 80.48569519 -105.76980591 81.22250366 C-132.62372458 132.16164254 -149.79537509 183.93704135 -149.1875 241.9375 C-149.17240292 244.48241382 -149.15872353 247.02733646 -149.14648438 249.57226562 C-149.11393023 255.71504115 -149.06414167 261.85747714 -149 268 C-148.26647812 268.42233917 -147.53295624 268.84467834 -146.77720642 269.27981567 C-144.26995543 270.72358657 -141.76305627 272.16796661 -139.25637817 273.61273193 C-138.08723516 274.28655387 -136.91802555 274.96026028 -135.74874878 275.6338501 C-129.16493707 279.42728719 -122.58930572 283.23362176 -116.03515625 287.078125 C-114.94589844 287.71669434 -113.85664063 288.35526367 -112.734375 289.01318359 C-110.64831681 290.23765094 -108.56363902 291.46447357 -106.48046875 292.69384766 C-105.53945312 293.2460498 -104.5984375 293.79825195 -103.62890625 294.3671875 C-102.80463135 294.85300293 -101.98035645 295.33881836 -101.13110352 295.83935547 C-98.92083565 297.12418355 -98.92083565 297.12418355 -96 298 C-96.51949219 296.99582031 -97.03898437 295.99164063 -97.57421875 294.95703125 C-119.56963537 252.02240048 -115.9332538 206.0228068 -102 161 C-100.45754876 156.32148205 -98.84282557 151.67173744 -97.13354492 147.05151367 C-95.48645335 142.64465222 -95.48645335 142.64465222 -95 138 C-99.62 135.36 -104.24 132.72 -109 130 C-107.90309312 125.61237247 -106.29817473 122.85500277 -104 119 C-99.85701333 119.59834725 -96.81805623 121.00664285 -93.1875 123.0625 C-92.21167969 123.61035156 -91.23585938 124.15820312 -90.23046875 124.72265625 C-89.49441406 125.14417969 -88.75835937 125.56570312 -88 126 C-87.74089844 125.15566406 -87.48179687 124.31132812 -87.21484375 123.44140625 C-85.9240415 119.78482497 -84.32156538 116.3831599 -82.5625 112.9375 C-82.04079224 111.90919067 -82.04079224 111.90919067 -81.50854492 110.86010742 C-80.74702473 109.3641751 -79.98300682 107.86951225 -79.21679688 106.37597656 C-78.3934071 104.76818578 -77.57451871 103.15808308 -76.75976562 101.54589844 C-59.91811622 68.23657194 -38.53772592 37.29084711 -14.49169922 8.77880859 C-13.50483228 7.60199804 -12.52708662 6.41747199 -11.55908203 5.22509766 C-7.90247817 0.72949226 -5.94628113 -0.89755187 0 0 Z " fill="#FEFCFA" transform="translate(259,77)"></path><path d="M0 0 C4.56752806 3.2768871 7.61936782 7.10414251 10.9375 11.5625 C11.49888672 12.30846436 12.06027344 13.05442871 12.63867188 13.82299805 C13.82850742 15.40763367 15.01512459 16.99469026 16.19873047 18.58398438 C17.95778501 20.94337767 19.7298889 23.29247113 21.50390625 25.640625 C74 95.52288485 74 95.52288485 74 118 C71.37785672 119.50519387 68.75255792 121.00431319 66.125 122.5 C65.00544922 123.14388672 65.00544922 123.14388672 63.86328125 123.80078125 C62.79013672 124.40986328 62.79013672 124.40986328 61.6953125 125.03125 C61.03547363 125.40830078 60.37563477 125.78535156 59.69580078 126.17382812 C58 127 58 127 56 127 C56.92384166 128.67427615 57.86450569 130.33928003 58.8125 132 C59.33457031 132.928125 59.85664063 133.85625 60.39453125 134.8125 C60.92433594 135.534375 61.45414063 136.25625 62 137 C66.09459203 137 68.76750835 135.03072724 72.1875 133 C72.84169922 132.6184375 73.49589844 132.236875 74.16992188 131.84375 C75.78333545 130.90161068 77.39212298 129.95155734 79 129 C82.98778437 133.82806497 84.41638673 139.42571106 86.3125 145.3125 C86.70695313 146.53694824 87.10140625 147.76139648 87.5078125 149.02294922 C99.7371289 187.97931451 104.85248815 231.47738309 86 269 C80.50171555 279.48990105 73.50289482 289.79377679 64 297 C64.433125 295.783125 64.86625 294.56625 65.3125 293.3125 C69.11394263 281.66910883 70.48551393 270.94675785 70.39111328 258.77270508 C70.37513372 256.33291735 70.39099023 253.89481364 70.41015625 251.45507812 C70.4521023 219.26158353 59.87468399 187.72894637 46 159 C45.55140625 158.05656738 45.1028125 157.11313477 44.640625 156.14111328 C36.10385532 138.2437991 26.20980642 121.51070956 15.0625 105.125 C14.63831787 104.50109375 14.21413574 103.8771875 13.77709961 103.234375 C12.54871567 101.46484531 11.2829166 99.73031008 10 98 C9.53706543 97.3409668 9.07413086 96.68193359 8.59716797 96.00292969 C5.96556238 92.5295237 4.80096923 91.16908382 0.41015625 90.2421875 C-3.97690133 91.21708918 -4.96530227 92.49171087 -7.5625 96.125 C-7.97177734 96.6919458 -8.38105469 97.2588916 -8.80273438 97.84301758 C-10.23997826 99.87161641 -11.62396168 101.92939426 -13 104 C-13.81960205 105.23000732 -13.81960205 105.23000732 -14.65576172 106.48486328 C-22.69734601 118.65852247 -30.19538538 131.09438132 -37 144 C-37.34192383 144.64533691 -37.68384766 145.29067383 -38.03613281 145.95556641 C-49.42666941 167.6219863 -58.43342196 189.97712835 -64.25 213.75 C-64.4965332 214.75530762 -64.74306641 215.76061523 -64.99707031 216.79638672 C-67.93887998 229.29806059 -69.37015783 241.53193432 -69.3125 254.375 C-69.30903564 255.63924805 -69.30557129 256.90349609 -69.30200195 258.20605469 C-69.17112183 269.4660837 -67.92572266 279.62410831 -64.25 290.3125 C-63 294 -63 294 -64 297 C-86.80436939 273.58971742 -97.41637568 244.33377571 -97.16870117 211.77905273 C-97.06963279 205.81367766 -96.78142953 199.91910417 -96 194 C-95.87753906 193.03707031 -95.75507813 192.07414063 -95.62890625 191.08203125 C-92.63677067 169.76637512 -86.50472067 149.13360613 -79 129 C-74.77478988 130.65458341 -70.73280468 132.57526787 -66.6875 134.625 C-66.04232422 134.94984375 -65.39714844 135.2746875 -64.73242188 135.609375 C-63.15402459 136.40441956 -61.57688306 137.20195634 -60 138 C-59.70351562 137.24332031 -59.40703125 136.48664063 -59.1015625 135.70703125 C-57.88542557 132.71843944 -56.46910863 129.87143959 -55 127 C-56.02673828 126.61714844 -56.02673828 126.61714844 -57.07421875 126.2265625 C-60.44961726 124.81150892 -63.59974038 123.12741434 -66.8125 121.375 C-67.40998047 121.05015625 -68.00746094 120.7253125 -68.62304688 120.390625 C-70.08337135 119.59620849 -71.54187491 118.79844624 -73 118 C-72.0893031 112.72833301 -70.05438466 108.41866993 -67.75 103.625 C-67.0861731 102.24211792 -67.0861731 102.24211792 -66.40893555 100.83129883 C-53.75826163 74.88506612 -38.37426542 50.03784513 -21 27 C-20.44006348 26.2560498 -19.88012695 25.51209961 -19.30322266 24.74560547 C-12.99985797 16.39297669 -6.60270867 8.11873845 0 0 Z " fill="#E5770E" transform="translate(255,93)"></path><path d="M0 0 C3.73081677 3.52683913 6.74269813 7.20012378 9.5625 11.5 C9.98450684 12.13945557 10.40651367 12.77891113 10.84130859 13.43774414 C19.89043941 27.36695369 27.88820732 41.99563661 35 57 C35.35658691 57.73976074 35.71317383 58.47952148 36.08056641 59.24169922 C45.7041225 79.30224593 52.54243206 100.20797533 57 122 C57.24621094 123.17949219 57.49242187 124.35898437 57.74609375 125.57421875 C62.26762116 151.42488233 58.90876028 179.00693519 44 201 C42.74704438 197.38035043 43.32234108 194.720302 44 191 C45.78448094 165.66622139 36.89789133 141.9499755 25 120 C24.15308594 118.43185547 24.15308594 118.43185547 23.2890625 116.83203125 C20.11611587 111.19371999 16.60465612 105.84260968 12.875 100.5625 C12.46717285 99.98290527 12.0593457 99.40331055 11.63916016 98.80615234 C7.16766626 92.06610298 7.16766626 92.06610298 0.38671875 88.49609375 C-6.69156897 89.99052765 -11.33246847 100.11307467 -15.09204102 105.81591797 C-34.43943193 135.82754114 -43.2140703 164.36610265 -42 200 C-51.99748286 190.51525344 -56.46511668 172.20249406 -57.16113281 158.92651367 C-57.34992472 144.27648123 -57.38877813 130.2886143 -54 116 C-53.72683632 114.67001172 -53.4573731 113.33925865 -53.19140625 112.0078125 C-49.29903274 93.25344633 -42.23722641 75.24136701 -34 58 C-33.68063477 57.32952637 -33.36126953 56.65905273 -33.03222656 55.96826172 C-30.77462517 51.26626247 -28.41587077 46.62244029 -26 42 C-25.64776367 41.32066406 -25.29552734 40.64132813 -24.93261719 39.94140625 C-17.6280613 25.96973567 -8.88442151 13.00377312 0 0 Z " fill="#E17310" transform="translate(255,200)"></path><path d="M0 0 C0.70664795 0.30123779 1.4132959 0.60247559 2.14135742 0.9128418 C4.9487082 2.0488999 4.9487082 2.0488999 7.77075195 2.67114258 C15.36739141 4.52296016 23.23211012 7.3091276 27.97369385 13.87762451 C35.20427026 28.83027593 30.35032416 52.96426272 29 69 C26.75909916 66.75909916 26.36011448 65.46116378 25.44140625 62.46875 C25.14363281 61.52572021 24.84585937 60.58269043 24.5390625 59.61108398 C24.05566406 58.07109741 24.05566406 58.07109741 23.5625 56.5 C17.74743577 38.55524538 10.67934843 20.9916365 1.36328125 4.5625 C0 2 0 2 0 0 Z " fill="#EF8812" transform="translate(374,159)"></path><path d="M0 0 C0.33 0.66 0.66 1.32 1 2 C0.18652344 4.07763672 0.18652344 4.07763672 -1.140625 6.6796875 C-1.62917969 7.65784424 -2.11773437 8.63600098 -2.62109375 9.64379883 C-3.15863281 10.71009521 -3.69617188 11.7763916 -4.25 12.875 C-8.93293281 22.38199319 -13.15103881 31.93774968 -17 41.8125 C-17.44375977 42.94864746 -17.88751953 44.08479492 -18.34472656 45.25537109 C-21.10865405 52.43715521 -23.63150061 59.67865745 -26 67 C-26.33 67 -26.66 67 -27 67 C-27.433239 59.92220266 -27.72952222 52.84783667 -27.93383789 45.75976562 C-28.01902485 43.35319369 -28.13482974 40.94749424 -28.2824707 38.54394531 C-29.44712716 19.0873316 -29.44712716 19.0873316 -25.37423706 13.94891357 C-21.37000627 10.60890028 -16.9296333 8.60196931 -12.06773376 6.81015015 C-9.14495117 5.66498688 -6.57726241 4.05928666 -3.9375 2.375 C-3.16277344 1.90835938 -2.38804687 1.44171875 -1.58984375 0.9609375 C-1.06519531 0.64382812 -0.54054687 0.32671875 0 0 Z " fill="#E07112" transform="translate(136,159)"></path><path d="M0 0 C4.18056254 0.59055034 7.12061861 2.01277361 10.73828125 4.16015625 C11.80498047 4.78857422 12.87167969 5.41699219 13.97070312 6.06445312 C15.07349609 6.72380859 16.17628906 7.38316406 17.3125 8.0625 C18.43462891 8.72572266 19.55675781 9.38894531 20.71289062 10.07226562 C23.4791287 11.70846602 26.2412485 13.35121864 29 15 C27.45657029 19.08105062 25.50065501 22.41572782 23 26 C17.24745018 24.88377061 12.35404611 21.47256834 7.3125 18.625 C6.24193359 18.03460938 5.17136719 17.44421875 4.06835938 16.8359375 C3.05193359 16.26359375 2.03550781 15.69125 0.98828125 15.1015625 C0.05540283 14.57900879 -0.87747559 14.05645508 -1.83862305 13.51806641 C-4 12 -4 12 -5 9 C-4.00390625 6.73828125 -4.00390625 6.73828125 -2.5625 4.3125 C-2.08941406 3.50425781 -1.61632812 2.69601563 -1.12890625 1.86328125 C-0.75636719 1.24839844 -0.38382812 0.63351563 0 0 Z " fill="#FEFBF7" transform="translate(308,107)"></path><path d="M0 0 C3.49107379 1.16369126 3.85222763 1.88973538 5.6875 4.9375 C6.12449219 5.64777344 6.56148437 6.35804687 7.01171875 7.08984375 C8 9 8 9 8 11 C4.35693856 13.144543 0.70903424 15.28051959 -2.94360352 17.40869141 C-4.18553135 18.1338929 -5.42610453 18.86141945 -6.6652832 19.59130859 C-8.44652045 20.63993444 -10.23245915 21.68010712 -12.01953125 22.71875 C-13.09307861 23.34716797 -14.16662598 23.97558594 -15.27270508 24.62304688 C-18 26 -18 26 -21 26 C-21.86646667 24.56988027 -22.71781829 23.13059381 -23.5625 21.6875 C-24.03816406 20.88699219 -24.51382813 20.08648437 -25.00390625 19.26171875 C-26 17 -26 17 -25 14 C-23.34521484 12.80493164 -23.34521484 12.80493164 -21.2109375 11.66015625 C-20.43363281 11.23669922 -19.65632812 10.81324219 -18.85546875 10.37695312 C-18.03691406 9.94318359 -17.21835938 9.50941406 -16.375 9.0625 C-14.77846925 8.19954537 -13.18211273 7.3362683 -11.5859375 6.47265625 C-10.81088867 6.06031738 -10.03583984 5.64797852 -9.23730469 5.22314453 C-7.14950966 4.0817376 -5.13051208 2.86290482 -3.1015625 1.62109375 C-2.07804687 1.08613281 -1.05453125 0.55117187 0 0 Z " fill="#FEFBF8" transform="translate(201,107)"></path></svg>