<svg version="1.1" xmlns="http://www.w3.org/2000/svg" width="16px" height="16px" fill="currentColor" viewBox="0 0 512 512"><path d="M0 0 C168.96 0 337.92 0 512 0 C512 168.96 512 337.92 512 512 C343.04 512 174.08 512 0 512 C0 343.04 0 174.08 0 0 Z " fill="#2D8F7A" transform="translate(0,0)"></path><path d="M0 0 C1.24652596 -0.02569565 1.24652596 -0.02569565 2.51823425 -0.0519104 C3.42164551 -0.05526398 4.32505676 -0.05861755 5.25584412 -0.06207275 C6.21411606 -0.07696747 7.172388 -0.09186218 8.15969849 -0.10720825 C11.33170544 -0.15103722 14.50326175 -0.17147612 17.67552185 -0.18804932 C19.88547778 -0.20531229 22.09543363 -0.22258538 24.3053894 -0.23986816 C28.94319244 -0.27139169 33.58083965 -0.28892185 38.21873474 -0.29937744 C44.1418265 -0.3157936 50.06283573 -0.38778769 55.98527622 -0.4732933 C60.55375011 -0.52937745 65.12173037 -0.54480006 69.69051933 -0.54938507 C71.8725461 -0.55842699 74.05456677 -0.58238606 76.23625374 -0.62194061 C95.41751742 -0.94475683 95.41751742 -0.94475683 102.48118591 4.76556396 C103.9622917 6.27685412 105.40658692 7.82586571 106.7966156 9.42132568 C108.06844959 10.59478547 109.35098079 11.75696791 110.65208435 12.89788818 C111.76568129 13.94426859 112.87641021 14.99371043 113.9841156 16.04632568 C115.17994266 17.16956053 116.37655077 18.29196446 117.57395935 19.41351318 C118.13196228 19.93655029 118.68996521 20.4595874 119.26487732 20.99847412 C121.75098205 23.30784906 124.30651452 25.53243501 126.8747406 27.74945068 C129.20766634 29.77890641 131.50172805 31.84897269 133.7966156 33.92132568 C136.77724281 36.61115999 139.76906793 39.28442932 142.7966156 41.92132568 C154.43947274 52.06418283 154.43947274 52.06418283 157.7966156 55.42132568 C157.90252077 57.70303153 157.9363154 59.98808196 157.94378662 62.27223206 C157.94746331 62.99713654 157.95114 63.72204102 157.9549281 64.4689123 C157.96600776 66.91635463 157.96981599 69.36375456 157.97361755 71.81121826 C157.97987897 73.55854936 157.98652548 75.30587912 157.99353027 77.0532074 C158.0109699 81.81359087 158.02150004 86.57396427 158.0297358 91.33437181 C158.03487955 94.30586502 158.04095555 97.27735507 158.04724693 100.24884605 C158.06630704 109.53826638 158.08053657 118.82767871 158.0888589 128.11711484 C158.09863613 138.85448406 158.12496489 149.59164739 158.1653598 160.32894403 C158.19548026 168.61855651 158.21032389 176.90810985 158.21363991 185.19777602 C158.21599504 190.15330891 158.22501521 195.10862206 158.25010109 200.06409645 C158.27331583 204.72541567 158.27764178 209.38636945 158.26733971 214.0477314 C158.26684262 215.76021284 158.27321363 217.47271185 158.28689575 219.1851387 C158.30451234 221.52035747 158.29756034 223.85425018 158.28436279 226.18946838 C158.28675115 227.4971156 158.2891395 228.80476282 158.29160023 230.15203571 C157.7966156 233.42132568 157.7966156 233.42132568 156.17219925 235.84199142 C153.04622996 237.92019667 151.04438904 237.92185835 147.29953003 237.92253113 C146.32365129 237.93083272 146.32365129 237.93083272 145.32805783 237.93930203 C143.14978846 237.95290693 140.97266531 237.93794191 138.79441833 237.92303467 C137.23220839 237.9268179 135.67000179 237.93231799 134.10780334 237.93940735 C129.86609606 237.95337765 125.62479368 237.94218183 121.38310885 237.92569613 C116.94689021 237.91185571 112.51069532 237.91830447 108.07446289 237.92182922 C100.62541672 237.92453187 93.17653164 237.91105017 85.7275238 237.88787842 C77.11029451 237.86125855 68.4933344 237.85952445 59.87607807 237.87126678 C51.59149438 237.88203771 43.30700826 237.87586353 35.02243233 237.8617115 C31.49416363 237.85594672 27.96596622 237.85603821 24.43769646 237.8607769 C20.28521189 237.86554166 16.13302294 237.85546608 11.98059464 237.83382225 C10.45476974 237.82824768 8.92891647 237.82779522 7.40308952 237.83277512 C5.32396847 237.83871093 3.24575654 237.82625735 1.16671753 237.80900574 C0.00215751 237.80657584 -1.16240252 237.80414595 -2.36225224 237.80164242 C-5.5950598 237.36889563 -6.24642556 236.92785961 -8.2033844 234.42132568 C-8.50076282 231.31836088 -8.61207579 228.4156604 -8.59106445 225.31109619 C-8.59644999 224.36734902 -8.60183553 223.42360185 -8.60738426 222.45125628 C-8.62174162 219.27513282 -8.61454096 216.09942157 -8.60743713 212.92327881 C-8.61313659 210.6518673 -8.62009919 208.38045866 -8.62823486 206.10905457 C-8.64622722 199.92943473 -8.64498659 193.74995642 -8.63929248 187.57031822 C-8.63620971 182.41835452 -8.64228281 177.26641836 -8.64833122 172.11445856 C-8.66319935 159.26962112 -8.65954608 146.42488339 -8.64746792 133.58004981 C-8.63753261 122.41774556 -8.65047964 111.25560699 -8.67440211 100.0933283 C-8.69876759 88.63825794 -8.70800719 77.18329408 -8.70174938 65.72819281 C-8.69837031 59.29443596 -8.70085792 52.86081607 -8.71800041 46.42707825 C-8.73340994 40.37944268 -8.72958072 34.33212478 -8.71069527 28.28450203 C-8.70699289 26.06043117 -8.71016543 23.83633708 -8.72058105 21.61228752 C-8.73367985 18.58500468 -8.7223424 15.55879087 -8.70458984 12.53155518 C-8.71419485 11.643531 -8.72379986 10.75550683 -8.73369592 9.84057283 C-8.66223303 3.95137564 -8.66223303 3.95137564 -6.43477058 1.3782692 C-4.10384207 0.37863635 -2.52654445 0.03133857 0 0 Z " fill="#2F917C" transform="translate(258.20338439941406,197.57867431640625)"></path><path d="M0 0 C1.24652596 -0.02569565 1.24652596 -0.02569565 2.51823425 -0.0519104 C3.42164551 -0.05526398 4.32505676 -0.05861755 5.25584412 -0.06207275 C6.21411606 -0.07696747 7.172388 -0.09186218 8.15969849 -0.10720825 C11.33170544 -0.15103722 14.50326175 -0.17147612 17.67552185 -0.18804932 C19.88547778 -0.20531229 22.09543363 -0.22258538 24.3053894 -0.23986816 C28.94319244 -0.27139169 33.58083965 -0.28892185 38.21873474 -0.29937744 C44.1418265 -0.3157936 50.06283573 -0.38778769 55.98527622 -0.4732933 C60.55375011 -0.52937745 65.12173037 -0.54480006 69.69051933 -0.54938507 C71.8725461 -0.55842699 74.05456677 -0.58238606 76.23625374 -0.62194061 C95.41751742 -0.94475683 95.41751742 -0.94475683 102.48118591 4.76556396 C103.9622917 6.27685412 105.40658692 7.82586571 106.7966156 9.42132568 C108.06844959 10.59478547 109.35098079 11.75696791 110.65208435 12.89788818 C111.76568129 13.94426859 112.87641021 14.99371043 113.9841156 16.04632568 C115.17994266 17.16956053 116.37655077 18.29196446 117.57395935 19.41351318 C118.13196228 19.93655029 118.68996521 20.4595874 119.26487732 20.99847412 C121.75098205 23.30784906 124.30651452 25.53243501 126.8747406 27.74945068 C129.20766634 29.77890641 131.50172805 31.84897269 133.7966156 33.92132568 C136.77724281 36.61115999 139.76906793 39.28442932 142.7966156 41.92132568 C154.43947274 52.06418283 154.43947274 52.06418283 157.7966156 55.42132568 C157.90252077 57.70303153 157.9363154 59.98808196 157.94378662 62.27223206 C157.94746331 62.99713654 157.95114 63.72204102 157.9549281 64.4689123 C157.96600776 66.91635463 157.96981599 69.36375456 157.97361755 71.81121826 C157.97987897 73.55854936 157.98652548 75.30587912 157.99353027 77.0532074 C158.0109699 81.81359087 158.02150004 86.57396427 158.0297358 91.33437181 C158.03487955 94.30586502 158.04095555 97.27735507 158.04724693 100.24884605 C158.06630704 109.53826638 158.08053657 118.82767871 158.0888589 128.11711484 C158.09863613 138.85448406 158.12496489 149.59164739 158.1653598 160.32894403 C158.19548026 168.61855651 158.21032389 176.90810985 158.21363991 185.19777602 C158.21599504 190.15330891 158.22501521 195.10862206 158.25010109 200.06409645 C158.27331583 204.72541567 158.27764178 209.38636945 158.26733971 214.0477314 C158.26684262 215.76021284 158.27321363 217.47271185 158.28689575 219.1851387 C158.30451234 221.52035747 158.29756034 223.85425018 158.28436279 226.18946838 C158.28675115 227.4971156 158.2891395 228.80476282 158.29160023 230.15203571 C157.7966156 233.42132568 157.7966156 233.42132568 156.17219925 235.84199142 C153.04622996 237.92019667 151.04438904 237.92185835 147.29953003 237.92253113 C146.32365129 237.93083272 146.32365129 237.93083272 145.32805783 237.93930203 C143.14978846 237.95290693 140.97266531 237.93794191 138.79441833 237.92303467 C137.23220839 237.9268179 135.67000179 237.93231799 134.10780334 237.93940735 C129.86609606 237.95337765 125.62479368 237.94218183 121.38310885 237.92569613 C116.94689021 237.91185571 112.51069532 237.91830447 108.07446289 237.92182922 C100.62541672 237.92453187 93.17653164 237.91105017 85.7275238 237.88787842 C77.11029451 237.86125855 68.4933344 237.85952445 59.87607807 237.87126678 C51.59149438 237.88203771 43.30700826 237.87586353 35.02243233 237.8617115 C31.49416363 237.85594672 27.96596622 237.85603821 24.43769646 237.8607769 C20.28521189 237.86554166 16.13302294 237.85546608 11.98059464 237.83382225 C10.45476974 237.82824768 8.92891647 237.82779522 7.40308952 237.83277512 C5.32396847 237.83871093 3.24575654 237.82625735 1.16671753 237.80900574 C0.00215751 237.80657584 -1.16240252 237.80414595 -2.36225224 237.80164242 C-5.5950598 237.36889563 -6.24642556 236.92785961 -8.2033844 234.42132568 C-8.50076282 231.31836088 -8.61207579 228.4156604 -8.59106445 225.31109619 C-8.59644999 224.36734902 -8.60183553 223.42360185 -8.60738426 222.45125628 C-8.62174162 219.27513282 -8.61454096 216.09942157 -8.60743713 212.92327881 C-8.61313659 210.6518673 -8.62009919 208.38045866 -8.62823486 206.10905457 C-8.64622722 199.92943473 -8.64498659 193.74995642 -8.63929248 187.57031822 C-8.63620971 182.41835452 -8.64228281 177.26641836 -8.64833122 172.11445856 C-8.66319935 159.26962112 -8.65954608 146.42488339 -8.64746792 133.58004981 C-8.63753261 122.41774556 -8.65047964 111.25560699 -8.67440211 100.0933283 C-8.69876759 88.63825794 -8.70800719 77.18329408 -8.70174938 65.72819281 C-8.69837031 59.29443596 -8.70085792 52.86081607 -8.71800041 46.42707825 C-8.73340994 40.37944268 -8.72958072 34.33212478 -8.71069527 28.28450203 C-8.70699289 26.06043117 -8.71016543 23.83633708 -8.72058105 21.61228752 C-8.73367985 18.58500468 -8.7223424 15.55879087 -8.70458984 12.53155518 C-8.71419485 11.643531 -8.72379986 10.75550683 -8.73369592 9.84057283 C-8.66223303 3.95137564 -8.66223303 3.95137564 -6.43477058 1.3782692 C-4.10384207 0.37863635 -2.52654445 0.03133857 0 0 Z M3.7966156 13.42132568 C3.7966156 83.38132568 3.7966156 153.34132568 3.7966156 225.42132568 C50.3266156 225.42132568 96.8566156 225.42132568 144.7966156 225.42132568 C144.7966156 172.62132568 144.7966156 119.82132568 144.7966156 65.42132568 C127.3066156 65.09132568 109.8166156 64.76132568 91.7966156 64.42132568 C90.3116156 63.92632568 90.3116156 63.92632568 88.7966156 63.42132568 C88.4666156 46.92132568 88.1366156 30.42132568 87.7966156 13.42132568 C60.0766156 13.42132568 32.3566156 13.42132568 3.7966156 13.42132568 Z " fill="#FCFDFD" transform="translate(258.20338439941406,197.57867431640625)"></path><path d="M0 0 C0.85362625 -0.01561478 1.7072525 -0.03122955 2.58674622 -0.0473175 C3.51514313 -0.04393372 4.44354004 -0.04054993 5.40007019 -0.0370636 C6.38427444 -0.04889175 7.3684787 -0.06071991 8.38250732 -0.07290649 C11.63883201 -0.10582651 14.89432239 -0.10875032 18.15080261 -0.1085968 C20.41518497 -0.1189099 22.67956402 -0.12997277 24.94393921 -0.14175415 C29.69275 -0.16120029 34.44126622 -0.16460336 39.19010925 -0.15815735 C45.27023866 -0.15216467 51.34883955 -0.19636628 57.42865467 -0.25404644 C62.10678977 -0.29105348 66.78455691 -0.29594746 71.46282005 -0.29177284 C73.70390222 -0.29464365 75.94499941 -0.30870972 78.18593788 -0.3342495 C81.32476749 -0.36625845 84.46045085 -0.35365738 87.59928894 -0.33003235 C88.52161316 -0.3489151 89.44393738 -0.36779785 90.39421082 -0.38725281 C95.43055993 -0.297266 98.06613187 0.34798641 101.70602417 3.95162964 C102.72465949 5.12444057 103.72412529 6.3144952 104.69377136 7.52812195 C105.32025574 8.21519226 105.94674011 8.90226257 106.59220886 9.6101532 C107.07947449 10.18120789 107.56674011 10.75226257 108.06877136 11.34062195 C110.74053679 14.43771326 113.45157515 17.49311495 116.19377136 20.52812195 C119.45767984 24.1448854 122.68168085 27.79201803 125.88127136 31.46562195 C127.96588301 33.83776623 130.0780578 36.1836826 132.19377136 38.52812195 C138.88971531 45.94917657 138.88971531 45.94917657 141.82072449 49.46977234 C143.61947673 51.56679312 143.61947673 51.56679312 145.7618866 53.12333679 C149.88640694 56.63905604 151.84775611 59.8052343 152.34049988 65.19291687 C152.58101127 70.83148582 152.39230172 76.45357724 152.19377136 82.09062195 C152.15359625 84.07297198 152.11710258 86.05540025 152.08439636 88.03788757 C151.9967097 92.86991258 151.8589312 97.69814964 151.69377136 102.52812195 C147.73377136 102.52812195 143.77377136 102.52812195 139.69377136 102.52812195 C139.69377136 91.96812195 139.69377136 81.40812195 139.69377136 70.52812195 C134.56588074 70.59773132 134.56588074 70.59773132 129.33439636 70.66874695 C126.02484115 70.69993842 122.7153023 70.72422864 119.40568542 70.74784851 C117.10482967 70.76796883 114.80402507 70.79526829 112.50334167 70.82987976 C109.19689819 70.87837807 105.89113051 70.90108673 102.58439636 70.91874695 C101.5551001 70.93939209 100.52580383 70.96003723 99.46531677 70.98130798 C98.5046228 70.98161011 97.54392883 70.98191223 96.55412292 70.98222351 C95.71029053 70.99110596 94.86645813 70.9999884 93.99705505 71.00914001 C90.79787028 70.34102185 89.63574038 69.12259146 87.69377136 66.52812195 C87.2127533 64.03501892 87.2127533 64.03501892 87.2396698 61.20878601 C87.2401532 60.13322449 87.2406366 59.05766296 87.24113464 57.94950867 C87.27183044 56.26365662 87.27183044 56.26365662 87.30314636 54.54374695 C87.30717468 53.5058905 87.311203 52.46803406 87.31535339 51.39872742 C87.33626795 47.52501221 87.39211348 43.65154917 87.44377136 39.77812195 C87.52627136 31.11562195 87.60877136 22.45312195 87.69377136 13.52812195 C60.30377136 13.52812195 32.91377136 13.52812195 4.69377136 13.52812195 C4.69377136 62.03812195 4.69377136 110.54812195 4.69377136 160.52812195 C0.40377136 160.52812195 -3.88622864 160.52812195 -8.30622864 160.52812195 C-8.39877767 140.25736659 -8.47018298 119.98667078 -8.51347733 99.71574783 C-8.53411291 90.30384891 -8.56225248 80.89208357 -8.60798645 71.48027039 C-8.64782379 63.27805168 -8.67365421 55.0759297 -8.68258262 46.87361693 C-8.68780265 42.52949155 -8.70009211 38.18564292 -8.72914886 33.84160614 C-8.75626907 29.7540268 -8.7646806 25.66683862 -8.75865936 21.57917786 C-8.75976113 20.077933 -8.7677355 18.57667526 -8.78305054 17.07550812 C-8.80292119 15.02760243 -8.79579014 12.97948756 -8.7872467 10.9315033 C-8.79093388 9.78479282 -8.79462105 8.63808235 -8.79841995 7.45662308 C-7.93773691 2.33562399 -5.11807284 0.03740975 0 0 Z " fill="#FAFCFB" transform="translate(110.30622863769531,76.47187805175781)"></path><path d="M0 0 C1.08410156 0.00257813 2.16820312 0.00515625 3.28515625 0.0078125 C4.90744141 0.00394531 4.90744141 0.00394531 6.5625 0 C9.34765625 0.1328125 9.34765625 0.1328125 11.34765625 1.1328125 C10.68765625 6.4128125 10.02765625 11.6928125 9.34765625 17.1328125 C11.2028186 17.12495728 11.2028186 17.12495728 13.09545898 17.11694336 C17.6669035 17.09889689 22.23834484 17.08738179 26.80981445 17.07788086 C28.79159066 17.07283983 30.77336314 17.06600712 32.75512695 17.05737305 C35.59717734 17.04529735 38.43917872 17.03958205 41.28125 17.03515625 C42.17291367 17.02999496 43.06457733 17.02483368 43.98326111 17.01951599 C46.10506226 17.01932073 48.22676405 17.0707122 50.34765625 17.1328125 C52.01327024 18.79842649 51.5188157 20.79243955 51.53515625 23.0703125 C51.54933594 23.96621094 51.56351562 24.86210937 51.578125 25.78515625 C51.34765625 28.1328125 51.34765625 28.1328125 49.34765625 30.1328125 C46.77848968 30.43880313 44.30007241 30.64368337 41.72265625 30.7578125 C41.01625 30.79648437 40.30984375 30.83515625 39.58203125 30.875 C37.83767101 30.96928974 36.09269934 31.05214141 34.34765625 31.1328125 C33.85265625 32.89625 33.85265625 32.89625 33.34765625 34.6953125 C29.04928793 47.45047058 21.36473993 58.47074834 13.34765625 69.1328125 C14.07855469 69.40480469 14.80945313 69.67679687 15.5625 69.95703125 C18.23104938 71.08358576 20.47654546 72.38467208 22.91015625 73.9453125 C31.81512046 79.36227886 41.25089492 82.68812422 51.34765625 85.1328125 C52.03125 87.36328125 52.03125 87.36328125 52.34765625 90.1328125 C51.1328125 92.37109375 51.1328125 92.37109375 49.41015625 94.4453125 C48.84425781 95.14269531 48.27835937 95.84007812 47.6953125 96.55859375 C47.25058594 97.07808594 46.80585938 97.59757812 46.34765625 98.1328125 C41.21831226 97.55700227 36.62050105 96.40717981 31.78515625 94.5703125 C31.09623291 94.31000244 30.40730957 94.04969238 29.69750977 93.78149414 C19.85841631 89.92092648 10.75111013 84.53544403 2.34765625 78.1328125 C1.51105469 78.70128906 0.67445313 79.26976562 -0.1875 79.85546875 C-28.96509199 99.07537146 -28.96509199 99.07537146 -39.8125 97.8984375 C-42.99921233 96.57233216 -44.06704844 94.07693236 -45.65234375 91.1328125 C-45.76171875 88.4296875 -45.76171875 88.4296875 -45.65234375 86.1328125 C-44.80023315 85.82428345 -44.80023315 85.82428345 -43.9309082 85.50952148 C-31.57334054 81.00393707 -19.65902711 76.47060141 -8.65234375 69.1328125 C-9.89060444 65.66806383 -11.2233837 63.25207025 -13.65234375 60.5078125 C-20.44464069 52.07106472 -25.91317746 41.29673412 -29.65234375 31.1328125 C-31.15087891 31.04193359 -31.15087891 31.04193359 -32.6796875 30.94921875 C-33.97003906 30.86542969 -35.26039063 30.78164063 -36.58984375 30.6953125 C-38.52150391 30.57349609 -38.52150391 30.57349609 -40.4921875 30.44921875 C-43.65234375 30.1328125 -43.65234375 30.1328125 -44.65234375 29.1328125 C-44.75085546 27.30165367 -44.78207004 25.46661317 -44.77734375 23.6328125 C-44.77992188 22.6325 -44.7825 21.6321875 -44.78515625 20.6015625 C-44.65234375 18.1328125 -44.65234375 18.1328125 -43.65234375 17.1328125 C-40.69529054 17.04412951 -37.76169319 17.01760954 -34.8046875 17.03515625 C-33.47504723 17.03727867 -33.47504723 17.03727867 -32.11854553 17.03944397 C-29.27561121 17.04506035 -26.43275444 17.05761559 -23.58984375 17.0703125 C-21.66731884 17.07532539 -19.74479271 17.07988866 -17.82226562 17.08398438 C-13.09892826 17.09503509 -8.37564917 17.11231067 -3.65234375 17.1328125 C-3.66394531 15.98941406 -3.67554688 14.84601563 -3.6875 13.66796875 C-3.69687663 12.17708496 -3.70597696 10.68619941 -3.71484375 9.1953125 C-3.72322266 8.44056641 -3.73160156 7.68582031 -3.74023438 6.90820312 C-3.74886816 4.98286937 -3.70458708 3.05745669 -3.65234375 1.1328125 C-2.65234375 0.1328125 -2.65234375 0.1328125 0 0 Z " fill="#FAFCFC" transform="translate(326.65234375,282.8671875)"></path><path d="M0 0 C5.61 0 11.22 0 17 0 C17.82938168 2.2257702 18.65875802 4.45154239 19.4881134 6.67732239 C20.23929401 8.69327389 20.99050564 10.70921382 21.741745 12.72514343 C23.8552941 18.39711388 25.96802563 24.06938692 28.0793457 29.7421875 C31.92959636 40.08560154 35.78137146 50.4283422 39.66195679 60.76042175 C41.15447434 64.7349233 42.64356354 68.71070493 44.13232422 72.68661499 C44.83483184 74.55969097 45.53909206 76.43211058 46.24511719 78.30386353 C47.22378878 80.89887096 48.19652918 83.49602836 49.16796875 86.09375 C49.45766037 86.85701096 49.74735199 87.62027191 50.04582214 88.40666199 C51.16323482 91.40959074 52 93.76797986 52 97 C47.05 97 42.1 97 37 97 C35.66100575 93.23108983 34.32859288 89.46007538 33 85.6875 C32.6184375 84.61564453 32.236875 83.54378906 31.84375 82.43945312 C31.4828125 81.41142578 31.121875 80.38339844 30.75 79.32421875 C30.24726563 77.9024231 30.24726563 77.9024231 29.734375 76.4519043 C29 74 29 74 29 71 C15.47 71 1.94 71 -12 71 C-12.99 74.63 -13.98 78.26 -15 82 C-15.87317881 84.74251936 -16.75620796 87.46617542 -17.6875 90.1875 C-18.450625 92.435625 -19.21375 94.68375 -20 97 C-24.95 97 -29.9 97 -35 97 C-32.92336518 89.85097583 -30.57931527 82.8637091 -28.0078125 75.87890625 C-27.62501633 74.83220261 -27.24222015 73.78549896 -26.8478241 72.70707703 C-25.60979716 69.32447535 -24.36752251 65.94345262 -23.125 62.5625 C-22.27090993 60.23215775 -21.41698848 57.9017537 -20.56323242 55.57128906 C-13.76461413 37.02679078 -6.90799835 18.50400994 0 0 Z " fill="#FBFDFC" transform="translate(170,165)"></path><path d="M0 0 C6.08312305 -0.09951 12.16576338 -0.17177017 18.24951172 -0.21972656 C20.31535098 -0.23973625 22.38113437 -0.26695283 24.44677734 -0.30175781 C27.43080503 -0.35074716 30.41407846 -0.37307564 33.3984375 -0.390625 C34.76468765 -0.42159271 34.76468765 -0.42159271 36.15853882 -0.45318604 C46.55355788 -0.45675424 54.35082754 3.31113391 61.80078125 10.4453125 C69.997199 19.96655088 71.26072342 32.51050203 71.4140625 44.6015625 C71.43342865 45.564039 71.4527948 46.5265155 71.4727478 47.51815796 C71.53191573 50.55368545 71.57867481 53.58925218 71.625 56.625 C71.66323772 58.69923412 71.70229269 60.77345334 71.7421875 62.84765625 C71.83908339 67.89835432 71.91914865 72.94891846 72 78 C80.25 69.75 88.5 61.5 97 53 C101.44995051 55.22497525 103.60084691 57.44633995 107 61 C105.59879595 64.16751481 103.94604268 66.30241827 101.5 68.74291992 C100.42878906 69.8187458 100.42878906 69.8187458 99.3359375 70.91630554 C98.17964844 72.06181633 98.17964844 72.06181633 97 73.23046875 C96.20851563 74.0214949 95.41703125 74.81252106 94.6015625 75.6275177 C92.92944849 77.29661312 91.25490721 78.96327989 89.578125 80.62768555 C87.00462992 83.18290296 84.43924794 85.74605313 81.875 88.31054688 C80.25047165 89.93016072 78.62548716 91.54931719 77 93.16796875 C76.22914063 93.9377153 75.45828125 94.70746185 74.6640625 95.50053406 C73.94992187 96.20829483 73.23578125 96.9160556 72.5 97.64526367 C71.8709375 98.27051437 71.241875 98.89576508 70.59375 99.53996277 C68.35750966 101.58858655 67.19921691 101.9800513 64.1413269 102.28625488 C60.34471573 101.94028691 59.37249139 101.10528533 56.73876953 98.41992188 C55.56823532 97.24870789 55.56823532 97.24870789 54.37405396 96.05383301 C53.55194427 95.20075562 52.72983459 94.34767822 51.8828125 93.46875 C51.02565643 92.60310425 50.16850037 91.7374585 49.28536987 90.84558105 C46.55085321 88.07747818 43.83792881 85.28924794 41.125 82.5 C39.27482225 80.61973016 37.42327551 78.74080634 35.5703125 76.86328125 C31.03087417 72.2576885 26.50899088 67.63539511 22 63 C24 59 24 59 31 53 C39.58 61.58 48.16 70.16 57 79 C57.06923089 72.79229665 57.12885639 66.585957 57.16479492 60.37817383 C57.17979183 58.27070553 57.2001961 56.16326796 57.22631836 54.0559082 C57.26310475 51.00985078 57.27981776 47.9642094 57.29296875 44.91796875 C57.30845261 43.99042282 57.32393646 43.06287689 57.33988953 42.10722351 C57.34219045 32.96720697 55.9412567 24.38368064 49.79296875 17.33984375 C44.58462125 13.44776708 38.43088346 13.66666849 32.2265625 13.5859375 C30.8409462 13.55688828 30.8409462 13.55688828 29.42733765 13.5272522 C26.49331736 13.46774295 23.55925724 13.42118605 20.625 13.375 C18.62888968 13.33679383 16.63279537 13.29774058 14.63671875 13.2578125 C9.75794349 13.16206504 4.87909109 13.07792861 0 13 C0 8.71 0 4.42 0 0 Z " fill="#F9FCFB" transform="translate(275,77)"></path><path d="M0 0 C3.77678077 0.39582174 4.77758333 1.23285763 7.40255737 3.90930176 C8.57309158 5.08051575 8.57309158 5.08051575 9.76727295 6.27539062 C10.58938263 7.12846802 11.41149231 7.98154541 12.2585144 8.86047363 C13.11567047 9.72611938 13.97282654 10.59176514 14.85595703 11.48364258 C17.59047369 14.25174546 20.30339809 17.0399757 23.0163269 19.82922363 C24.86650466 21.70949347 26.71805139 23.58841729 28.5710144 25.46594238 C33.11045274 30.07153513 37.63233603 34.69382852 42.1413269 39.32922363 C40.1413269 43.32922363 40.1413269 43.32922363 33.1413269 49.32922363 C24.5613269 40.74922363 15.9813269 32.16922363 7.1413269 23.32922363 C7.04911567 29.84036133 6.96959026 36.34920139 6.92160034 42.86047363 C6.90157944 45.07181508 6.87435431 47.28310422 6.83956909 49.4942627 C6.79063063 52.68677741 6.76826223 55.87858759 6.7507019 59.07141113 C6.73005676 60.04786591 6.70941162 61.02432068 6.68814087 62.03036499 C6.68578351 69.36655459 7.8254402 76.63866797 12.89175415 82.2774353 C18.9492544 87.84919157 24.62505247 88.63754634 32.59835815 88.74328613 C33.50132126 88.76265228 34.40428436 88.78201843 35.33460999 88.80197144 C38.20758738 88.86156446 41.08060527 88.90807132 43.9538269 88.95422363 C45.90631796 88.99242208 47.8587925 89.0314749 49.81124878 89.07141113 C54.58780674 89.16724933 59.36444357 89.25135515 64.1413269 89.32922363 C64.1413269 93.61922363 64.1413269 97.90922363 64.1413269 102.32922363 C58.50376401 102.42892885 52.8667269 102.5010833 47.22848511 102.5489502 C45.31498256 102.56892783 43.40153998 102.59611962 41.48825073 102.63098145 C27.32723112 102.88233862 15.15883687 102.6055684 4.14523315 92.49719238 C-3.44713993 84.7655097 -7.00267015 74.44817881 -6.97219849 63.6307373 C-6.97212296 62.73018112 -6.97204742 61.82962494 -6.9719696 60.90177917 C-6.96680832 59.94326553 -6.96164703 58.98475189 -6.95632935 57.99719238 C-6.9549144 57.0054451 -6.95349945 56.01369781 -6.95204163 54.99189758 C-6.94645728 51.83347521 -6.93390761 48.67512448 -6.9211731 45.51672363 C-6.91615607 43.37154237 -6.91159352 41.22635999 -6.90750122 39.08117676 C-6.89649297 33.83050139 -6.87977039 28.57986763 -6.8586731 23.32922363 C-7.5186731 23.32922363 -8.1786731 23.32922363 -8.8586731 23.32922363 C-8.8586731 23.98922363 -8.8586731 24.64922363 -8.8586731 25.32922363 C-9.5186731 25.32922363 -10.1786731 25.32922363 -10.8586731 25.32922363 C-10.8586731 25.98922363 -10.8586731 26.64922363 -10.8586731 27.32922363 C-12.15164185 28.59875488 -12.15164185 28.59875488 -14.0461731 30.14172363 C-18.15406235 33.62899652 -21.9869582 37.33565382 -25.7961731 41.14172363 C-26.37584839 41.71704834 -26.95552368 42.29237305 -27.55276489 42.88513184 C-30.57517863 45.82648421 -30.57517863 45.82648421 -32.8586731 49.32922363 C-37.15105933 47.67830585 -39.73806459 44.59167798 -42.8586731 41.32922363 C-41.27455404 37.44653413 -38.63001672 34.81057998 -35.7024231 31.90734863 C-35.1994873 31.40249939 -34.69655151 30.89765015 -34.17837524 30.37750244 C-33.11837323 29.31614367 -32.05585822 28.25728945 -30.99099731 27.20080566 C-29.35727264 25.57783239 -27.73454016 23.94441295 -26.11257935 22.30969238 C-25.08066833 21.27910218 -24.04813751 20.24913212 -23.0149231 19.21984863 C-22.52842285 18.72929993 -22.04192261 18.23875122 -21.54067993 17.7333374 C-18.08861658 14.32922363 -18.08861658 14.32922363 -15.8586731 14.32922363 C-15.8586731 13.66922363 -15.8586731 13.00922363 -15.8586731 12.32922363 C-15.1986731 12.32922363 -14.5386731 12.32922363 -13.8586731 12.32922363 C-13.5286731 11.33922363 -13.1986731 10.34922363 -12.8586731 9.32922363 C-11.39523554 8.06091109 -9.92577566 6.79735034 -8.40164185 5.60266113 C-6.68378478 4.25706731 -6.68378478 4.25706731 -4.8586731 2.01672363 C-2.8586731 0.32922363 -2.8586731 0.32922363 0 0 Z " fill="#F9FCFB" transform="translate(172.85867309570313,332.6707763671875)"></path><path d="M0 0 C4.29 0 8.58 0 13 0 C13 12.54 13 25.08 13 38 C53.26 38 93.52 38 135 38 C135 42.29 135 46.58 135 51 C117.98885255 51.11571174 100.9778621 51.20495562 83.96641159 51.25906086 C76.06780354 51.28484989 68.16944439 51.32001339 60.27099609 51.37719727 C53.38721943 51.42701131 46.503623 51.45928594 39.61967111 51.47044247 C35.97408249 51.47696479 32.32900955 51.49230738 28.68358612 51.52865028 C24.61532148 51.56888024 20.54795502 51.56995075 16.47949219 51.56762695 C15.26892654 51.58560333 14.0583609 51.60357971 12.81111145 51.62210083 C4.70361675 51.57179591 4.70361675 51.57179591 1.24841309 48.76391602 C-0.01341417 45.97030178 -0.48762462 44.25193398 -0.45410156 41.2097168 C-0.45379944 40.28913986 -0.45349731 39.36856293 -0.45318604 38.42008972 C-0.43254089 37.4397023 -0.41189575 36.45931488 -0.390625 35.44921875 C-0.38496521 34.43527542 -0.37930542 33.42133209 -0.37347412 32.37666321 C-0.35112998 29.14645664 -0.30093598 25.91736983 -0.25 22.6875 C-0.22993252 20.49415667 -0.21168218 18.30079592 -0.1953125 16.10742188 C-0.15127139 10.73785151 -0.0822562 5.36911544 0 0 Z " fill="#FAFCFB" transform="translate(102,269)"></path><path d="M0 0 C1.70408755 2.55613133 2.61246105 4.41353966 3.60400391 7.25610352 C3.90416412 8.11031387 4.20432434 8.96452423 4.51358032 9.84461975 C4.83136444 10.7634343 5.14914856 11.68224884 5.4765625 12.62890625 C5.80667328 13.57434799 6.13678406 14.51978973 6.47689819 15.49388123 C7.17317227 17.49121972 7.86734471 19.48929191 8.55957031 21.48803711 C9.62269243 24.55584114 10.69364914 27.62082689 11.765625 30.68554688 C12.44057243 32.62483709 13.11506713 34.56428494 13.7890625 36.50390625 C14.11089508 37.42474503 14.43272766 38.3455838 14.76431274 39.29432678 C15.05816864 40.14538498 15.35202454 40.99644318 15.65478516 41.87329102 C15.91522614 42.62369156 16.17566711 43.3740921 16.44400024 44.14723206 C17 46 17 46 17 48 C6.11 48 -4.78 48 -16 48 C-15.35894236 44.15365415 -14.83688023 41.13797515 -13.6171875 37.57104492 C-13.3402002 36.75387497 -13.06321289 35.93670502 -12.77783203 35.09477234 C-12.47989746 34.23205215 -12.18196289 33.36933197 -11.875 32.48046875 C-11.41456299 31.13170403 -11.41456299 31.13170403 -10.94482422 29.75569153 C-10.29814709 27.86475887 -9.6491765 25.97460917 -8.99804688 24.08520508 C-7.99804481 21.18182334 -7.00630721 18.27571396 -6.015625 15.36914062 C-5.38590171 13.53108375 -4.7557099 11.69318731 -4.125 9.85546875 C-3.82706543 8.98262741 -3.52913086 8.10978607 -3.22216797 7.210495 C-2.94518066 6.40908585 -2.66819336 5.6076767 -2.3828125 4.78198242 C-2.01760498 3.71991829 -2.01760498 3.71991829 -1.64501953 2.63639832 C-1 1 -1 1 0 0 Z " fill="#33917D" transform="translate(178,178)"></path><path d="M0 0 C11.55 0 23.1 0 35 0 C31.26408326 11.20775023 26.04077304 20.35616898 18 29 C10.25424104 21.98040594 3.78619279 12.75672759 0 3 C0 2.01 0 1.02 0 0 Z " fill="#30917C" transform="translate(312,313)"></path><path d="M0 0 C8.99407846 6.74555885 8.99407846 6.74555885 11.78125 9.40234375 C12.39194336 9.97952148 13.00263672 10.55669922 13.63183594 11.15136719 C14.24833008 11.74079102 14.86482422 12.33021484 15.5 12.9375 C16.80647955 14.17143334 18.11376346 15.40451563 19.421875 16.63671875 C20.03869141 17.21856934 20.65550781 17.80041992 21.29101562 18.39990234 C25.34729789 22.19774148 29.37359793 25.91573196 34 29 C34 29.66 34 30.32 34 31 C22.78 31 11.56 31 0 31 C0 20.77 0 10.54 0 0 Z " fill="#42A18D" transform="translate(358,219)"></path><path d="M0 0 C5.63492063 5.63492063 5.63492063 5.63492063 7.8671875 8.05078125 C8.35678955 8.58034424 8.8463916 9.10990723 9.35083008 9.65551758 C9.85380615 10.20232178 10.35678223 10.74912598 10.875 11.3125 C11.40311279 11.88572998 11.93122559 12.45895996 12.4753418 13.04956055 C15.83433018 16.70543052 19.15279719 20.39116916 22.3984375 24.1484375 C23.58152095 25.51619739 24.77598454 26.87413279 25.9765625 28.2265625 C26.62367188 28.95617187 27.27078125 29.68578125 27.9375 30.4375 C28.52402344 31.09621094 29.11054688 31.75492188 29.71484375 32.43359375 C31 34 31 34 31 35 C20.77 35 10.54 35 0 35 C0 23.45 0 11.9 0 0 Z " fill="#409E89" transform="translate(211,100)"></path></svg>