<svg version="1.1" xmlns="http://www.w3.org/2000/svg" width="16px" height="16px" fill="currentColor" viewBox="0 0 512 512"><path d="M0 0 C168.96 0 337.92 0 512 0 C512 168.96 512 337.92 512 512 C343.04 512 174.08 512 0 512 C0 343.04 0 174.08 0 0 Z " fill="#DE2D34" transform="translate(0,0)"></path><path d="M0 0 C0.88779648 -0.01268417 1.77559296 -0.02536835 2.69029236 -0.03843689 C3.64658035 -0.03550125 4.60286835 -0.03256561 5.58813477 -0.02954102 C6.57322525 -0.03478287 7.55831573 -0.04002472 8.57325745 -0.04542542 C10.65706438 -0.0518502 12.74090757 -0.05050273 14.82470703 -0.04199219 C18.01408491 -0.03348848 21.20166858 -0.06222772 24.39086914 -0.09399414 C26.41495714 -0.09560637 28.43904832 -0.09502821 30.46313477 -0.09204102 C31.89453041 -0.10889198 31.89453041 -0.10889198 33.35484314 -0.12608337 C39.92965905 -0.05685601 39.92965905 -0.05685601 43.20068359 2.21923828 C45.23037893 5.40641912 44.98031662 7.92061146 44.84204102 11.65405273 C44.80594727 12.91733398 44.76985352 14.18061523 44.73266602 15.48217773 C44.68625977 16.44639648 44.63985352 17.41061523 44.59204102 18.40405273 C46.63304036 19.19743824 48.67487192 19.98868304 50.71704102 20.77905273 C51.85399414 21.21991211 52.99094727 21.66077148 54.16235352 22.11499023 C57.28486614 23.28859976 60.42019732 24.37248047 63.59204102 25.40405273 C63.79829102 24.86780273 64.00454102 24.33155273 64.21704102 23.77905273 C65.45053662 21.64846942 66.66537479 19.9381589 68.27954102 18.09155273 C68.9659668 17.29297852 68.9659668 17.29297852 69.66625977 16.47827148 C72.88588516 14.6823344 75.08693327 15.51672325 78.59204102 16.40405273 C81.309057 18.25875283 83.53958385 20.50969962 85.83813477 22.85327148 C86.82209984 23.82862602 86.82209984 23.82862602 87.82594299 24.82368469 C89.20384672 26.19751784 90.57425193 27.57890809 91.9375 28.96728516 C94.02647805 31.08844258 96.14560089 33.17563108 98.26977539 35.26147461 C99.60699031 36.60265357 100.94234322 37.94569216 102.27563477 39.29077148 C102.90988876 39.9128801 103.54414276 40.53498871 104.19761658 41.1759491 C107.01443222 44.08493028 108.46171151 45.60549481 109.12744141 49.68457031 C108.37556745 53.50359629 106.49697534 54.89524582 103.59204102 57.40405273 C101.23572277 59.34121312 101.23572277 59.34121312 99.59204102 61.40405273 C100.2257759 66.03758974 102.68029894 70.37969201 104.53344727 74.62670898 C105.59204102 77.40405273 105.59204102 77.40405273 105.59204102 80.40405273 C106.64004883 80.36924805 107.68805664 80.33444336 108.76782227 80.29858398 C110.14671248 80.27044337 111.52562004 80.2431435 112.90454102 80.21655273 C113.59483398 80.19141602 114.28512695 80.1662793 114.99633789 80.14038086 C120.13010832 80.06597839 120.13010832 80.06597839 122.29017639 81.64686584 C123.92549479 83.85413072 123.97719425 85.08116547 123.99609375 87.81201172 C124.01512001 89.14370644 124.01512001 89.14370644 124.03453064 90.50230408 C124.031595 91.45859207 124.02865936 92.41488007 124.02563477 93.40014648 C124.03087662 94.38523697 124.03611847 95.37032745 124.04151917 96.38526917 C124.04794395 98.4690761 124.04659648 100.55291929 124.03808594 102.63671875 C124.02958223 105.82609663 124.05832147 109.0136803 124.09008789 112.20288086 C124.09170012 114.22696886 124.09112196 116.25106004 124.08813477 118.27514648 C124.09936874 119.22941025 124.11060272 120.18367401 124.12217712 121.16685486 C124.05298688 127.73814561 124.05298688 127.73814561 121.77685547 131.02636719 C118.52566183 133.07648292 116.10382004 132.57202818 112.34204102 132.15405273 C110.44711914 131.96069336 110.44711914 131.96069336 108.51391602 131.76342773 C107.54969727 131.64483398 106.58547852 131.52624023 105.59204102 131.40405273 C105.4102832 132.02151367 105.22852539 132.63897461 105.04125977 133.27514648 C103.33483655 139.0244801 101.52549376 144.72710639 99.59204102 150.40405273 C100.25333008 150.9725293 100.91461914 151.54100586 101.59594727 152.12670898 C102.4402832 152.89885742 103.28461914 153.67100586 104.15454102 154.46655273 C105.00145508 155.2206543 105.84836914 155.97475586 106.72094727 156.75170898 C108.59204102 159.40405273 108.59204102 159.40405273 108.59619141 162.6328125 C107.28579636 167.55420134 104.96877984 169.89563586 101.39672852 173.39624023 C100.45822556 174.34335373 100.45822556 174.34335373 99.50076294 175.30960083 C98.17820389 176.63623011 96.84808799 177.95536339 95.51098633 179.26733398 C93.47323899 181.27295249 91.46948354 183.30856551 89.46704102 185.34936523 C88.17468951 186.63775167 86.88047788 187.92427552 85.58422852 189.20874023 C84.98915497 189.81595917 84.39408142 190.4231781 83.78097534 191.04879761 C79.92178248 194.78145956 77.20023203 196.41126175 71.59204102 196.40405273 C68.93969727 194.53295898 68.93969727 194.53295898 66.65454102 191.96655273 C65.49631836 190.70004883 65.49631836 190.70004883 64.31469727 189.40795898 C63.46198242 188.41602539 63.46198242 188.41602539 62.59204102 187.40405273 C62.05836914 187.58581055 61.52469727 187.76756836 60.97485352 187.95483398 C55.21612319 189.89765823 49.42210179 191.68789706 43.59204102 193.40405273 C43.7505957 194.13495117 43.90915039 194.86584961 44.07250977 195.61889648 C44.53738985 198.11107317 44.82094443 200.43665604 44.90454102 202.96655273 C44.94192383 203.7103418 44.97930664 204.45413086 45.01782227 205.22045898 C44.37579673 208.51304867 43.31916788 209.42180241 40.59204102 211.40405273 C37.21887712 212.00285341 33.88119101 211.94038522 30.46313477 211.90014648 C28.98406395 211.90232933 28.98406395 211.90232933 27.47511292 211.90455627 C25.39304648 211.90289786 23.31096772 211.89134312 21.22900391 211.87060547 C18.03763958 211.84162627 14.84793369 211.8500028 11.65649414 211.86303711 C9.63369959 211.85680044 7.61091029 211.84841005 5.58813477 211.83764648 C4.63184677 211.84058212 3.67555878 211.84351776 2.69029236 211.84654236 C1.80249588 211.83385818 0.9146994 211.82117401 0 211.80810547 C-1.17104027 211.80000099 -1.17104027 211.80000099 -2.36573792 211.79173279 C-4.96519291 211.29827159 -5.85582161 210.52483772 -7.40795898 208.40405273 C-7.62516909 205.75408947 -7.69147452 203.35328716 -7.59545898 200.71655273 C-7.57515625 199.66371094 -7.57515625 199.66371094 -7.55444336 198.58959961 C-7.51916081 196.86075445 -7.46535482 195.13230508 -7.40795898 193.40405273 C-8.28194336 193.29448242 -9.15592773 193.18491211 -10.05639648 193.07202148 C-14.42340378 192.20167388 -17.89517772 190.3077528 -21.82202148 188.26733398 C-24.33511069 187.15143388 -24.33511069 187.15143388 -26.59936523 188.06811523 C-28.69658972 189.48499549 -28.69658972 189.48499549 -30.72045898 192.46655273 C-33.40795898 195.40405273 -33.40795898 195.40405273 -36.72045898 196.71655273 C-40.68070188 196.38093893 -41.13419382 196.12981496 -43.89233398 193.60327148 C-44.59011963 192.96542725 -45.28790527 192.32758301 -46.00683594 191.67041016 C-46.79920654 190.92251221 -47.59157715 190.17461426 -48.40795898 189.40405273 C-49.32730225 188.53949463 -50.24664551 187.67493652 -51.19384766 186.78417969 C-53.75044043 184.36094088 -56.27287088 181.90490281 -58.78320312 179.43383789 C-59.83112363 178.40769789 -60.88527173 177.38788203 -61.9453125 176.37426758 C-63.49843806 174.88817139 -65.03082866 173.3831849 -66.56030273 171.87280273 C-67.46772217 170.99043945 -68.3751416 170.10807617 -69.31005859 169.19897461 C-71.83136856 165.83996652 -72.28444496 163.57003953 -72.40795898 159.40405273 C-70.82592773 156.97045898 -70.82592773 156.97045898 -68.59545898 154.96655273 C-67.86713867 154.2872168 -67.13881836 153.60788086 -66.38842773 152.90795898 C-64.40795898 151.40405273 -64.40795898 151.40405273 -62.40795898 151.40405273 C-62.82948242 150.28385742 -63.25100586 149.16366211 -63.68530273 148.00952148 C-64.23871722 146.53687616 -64.79210104 145.06421931 -65.34545898 143.59155273 C-65.62325195 142.85356445 -65.90104492 142.11557617 -66.18725586 141.35522461 C-66.45473633 140.64301758 -66.7222168 139.93081055 -66.99780273 139.19702148 C-67.24393311 138.54241943 -67.49006348 137.88781738 -67.74365234 137.21337891 C-68.32832931 135.62093458 -68.87151457 134.01338598 -69.40795898 132.40405273 C-70.4559668 132.36666992 -71.50397461 132.32928711 -72.58374023 132.29077148 C-73.96268203 132.22510759 -75.34158669 132.15866038 -76.72045898 132.09155273 C-77.41075195 132.06899414 -78.10104492 132.04643555 -78.81225586 132.02319336 C-83.93872451 131.75077232 -83.93872451 131.75077232 -86.10708618 130.14855957 C-87.75137529 127.94352185 -87.78781564 126.71441303 -87.79614258 123.98022461 C-87.80559906 123.08920044 -87.81505554 122.19817627 -87.82479858 121.28015137 C-87.81568954 119.84101379 -87.81568954 119.84101379 -87.80639648 118.37280273 C-87.80926666 117.38534058 -87.81213684 116.39787842 -87.81509399 115.38049316 C-87.81713573 113.29247464 -87.81159823 111.20443703 -87.79907227 109.11645508 C-87.78302049 105.9163139 -87.79891758 102.71743577 -87.81811523 99.51733398 C-87.81613282 97.48998744 -87.81228919 95.46264168 -87.80639648 93.43530273 C-87.81246918 92.47587769 -87.81854187 91.51645264 -87.82479858 90.5279541 C-87.8153421 89.63692993 -87.80588562 88.74590576 -87.79614258 87.82788086 C-87.7937558 87.04417114 -87.79136902 86.26046143 -87.78890991 85.45300293 C-87.30405472 82.8452021 -86.53483411 81.95849717 -84.40795898 80.40405273 C-81.75799572 80.18684263 -79.35719341 80.1205372 -76.72045898 80.21655273 C-76.01856445 80.23008789 -75.31666992 80.24362305 -74.59350586 80.25756836 C-72.8646607 80.29285091 -71.13621133 80.3466569 -69.40795898 80.40405273 C-69.22620117 79.75178711 -69.04444336 79.09952148 -68.85717773 78.42749023 C-67.7013364 74.40871881 -66.58983765 70.75481872 -64.65795898 67.02905273 C-63.22833321 64.59603975 -63.22833321 64.59603975 -63.57202148 62.47827148 C-64.97630392 58.99381366 -67.96511508 57.06803075 -70.79077148 54.69702148 C-72.40795898 52.40405273 -72.40795898 52.40405273 -72.39624023 49.19775391 C-71.10721491 44.24959074 -68.79730292 41.9248226 -65.21264648 38.41186523 C-64.58697784 37.78045624 -63.9613092 37.14904724 -63.31668091 36.49850464 C-61.99412186 35.17187536 -60.66400596 33.85274208 -59.3269043 32.54077148 C-57.28915695 30.53515298 -55.28540151 28.49953996 -53.28295898 26.45874023 C-51.99060748 25.17035379 -50.69639585 23.88382995 -49.40014648 22.59936523 C-48.80507294 21.9921463 -48.20999939 21.38492737 -47.59689331 20.75930786 C-43.73956851 17.02845273 -41.01501086 15.39299178 -35.40795898 15.40405273 C-32.93139648 17.31030273 -32.93139648 17.31030273 -30.78295898 19.90405273 C-28.73359133 22.50375821 -28.73359133 22.50375821 -26.40795898 24.40405273 C-22.39678769 24.30557881 -18.86577074 22.43099923 -15.22045898 20.84155273 C-9.62042357 18.40405273 -9.62042357 18.40405273 -7.40795898 18.40405273 C-7.46016602 16.83204102 -7.46016602 16.83204102 -7.51342773 15.22827148 C-7.54156835 13.84938127 -7.56886822 12.47047371 -7.59545898 11.09155273 C-7.6205957 10.40125977 -7.64573242 9.7109668 -7.67163086 8.99975586 C-7.74603333 3.86598543 -7.74603333 3.86598543 -6.16514587 1.70591736 C-3.957881 0.07059896 -2.73084625 0.0188995 0 0 Z " fill="#DE2E35" transform="translate(311.407958984375,223.595947265625)"></path><path d="M0 0 C0.81756293 -0.01173563 1.63512586 -0.02347126 2.47746342 -0.03556252 C5.22706037 -0.07104564 7.97633448 -0.08489389 10.72612 -0.09863281 C12.69398151 -0.1190626 14.66183155 -0.14062512 16.62966919 -0.16323853 C23.1040287 -0.23158589 29.57840907 -0.26758927 36.05302429 -0.30175781 C38.28368408 -0.31521371 40.51434294 -0.32882508 42.74500084 -0.34259033 C52.02941545 -0.39797695 61.31380807 -0.4456566 70.59835529 -0.47171021 C83.89008464 -0.50903293 97.17975419 -0.59077916 110.4707492 -0.73683929 C119.82212871 -0.83607034 129.17296394 -0.88502915 138.52485818 -0.89691925 C144.10633838 -0.90525326 149.68573032 -0.93492789 155.26664162 -1.01794434 C160.52642643 -1.09497009 165.78280967 -1.1092303 171.04302406 -1.07703781 C172.96427294 -1.07583254 174.88569197 -1.09653885 176.80640793 -1.14180374 C185.99731257 -1.34625322 193.05953889 -1.24388399 200.22407359 5.02528954 C202.50434994 7.24770042 204.65146973 9.5509134 206.73744905 11.95589828 C208.43238565 13.8616014 210.2952085 15.50438149 212.25224304 17.13574219 C215.40427532 19.8558043 218.48915832 22.6419289 221.56474304 25.44824219 C225.3540843 28.90399632 229.17558002 32.31347109 233.04521179 35.67871094 C236.21441042 38.45559097 239.33924025 41.28121184 242.46708679 44.10449219 C244.2482945 45.71159688 246.03229607 47.31560887 247.81864929 48.91699219 C248.70423523 49.71105469 249.58982117 50.50511719 250.50224304 51.32324219 C251.70687195 52.4021875 251.70687195 52.4021875 252.93583679 53.50292969 C253.63837585 54.14488281 254.34091492 54.78683594 255.06474304 55.44824219 C255.59662735 55.83244827 256.12851166 56.21665436 256.67651367 56.61250305 C258.80980429 59.43348146 258.4576285 62.37113818 258.40531921 65.76538086 C258.40575729 66.5070903 258.40619537 67.24879974 258.40664673 68.01298523 C258.40455687 70.46432835 258.38121723 72.91498732 258.35771179 75.36621094 C258.35211652 77.06585822 258.3478461 78.76551034 258.34484863 80.46516418 C258.33339438 84.93856159 258.30392231 89.41166678 258.27073669 93.88494873 C258.24004826 98.44962613 258.22634593 103.01435074 258.21122742 107.57910156 C258.17905309 116.53561016 258.12784979 125.49190187 258.06474304 134.44824219 C253.77474304 134.44824219 249.48474304 134.44824219 245.06474304 134.44824219 C245.06474304 113.32824219 245.06474304 92.20824219 245.06474304 70.44824219 C227.47318848 70.60648767 227.47318848 70.60648767 209.88212585 70.80859375 C207.67738111 70.82027577 205.47262774 70.83046874 203.26786804 70.83886719 C202.12237488 70.85933105 200.97688171 70.87979492 199.79667664 70.90087891 C198.70081238 70.9013623 197.60494812 70.9018457 196.47587585 70.90234375 C195.05024323 70.91566742 195.05024323 70.91566742 193.59580994 70.92926025 C191.06474304 70.44824219 191.06474304 70.44824219 187.06474304 66.44824219 C187.06474304 48.95824219 187.06474304 31.46824219 187.06474304 13.44824219 C126.01474304 13.44824219 64.96474304 13.44824219 2.06474304 13.44824219 C2.06474304 123.00824219 2.06474304 232.56824219 2.06474304 345.44824219 C52.55474304 345.44824219 103.04474304 345.44824219 155.06474304 345.44824219 C155.06474304 349.73824219 155.06474304 354.02824219 155.06474304 358.44824219 C133.8640154 358.51763136 112.66331502 358.5711964 91.46249676 358.6036787 C81.61901679 358.61916037 71.77560859 358.64027466 61.93217468 358.67456055 C53.35457605 358.70442318 44.77702939 358.72380773 36.19938022 358.73050767 C31.65581094 358.73442526 27.11239035 358.743659 22.56886864 358.76543236 C18.29502399 358.78574804 14.02138972 358.79208601 9.74750137 358.78756523 C8.17650651 358.78839264 6.60550483 358.79438759 5.03455162 358.80585861 C2.89397914 358.82072628 0.75420691 358.81721745 -1.38638306 358.80900574 C-3.18526206 358.81315381 -3.18526206 358.81315381 -5.02048206 358.81738567 C-7.93525696 358.44824219 -7.93525696 358.44824219 -9.59383518 357.29130059 C-11.49431338 354.68012164 -11.31131268 352.80403725 -11.31278038 349.59016418 C-11.32451524 347.74474675 -11.32451524 347.74474675 -11.33648717 345.86204815 C-11.33000042 344.48949237 -11.32323042 343.11693791 -11.31620789 341.74438477 C-11.31966248 340.29200036 -11.3244257 338.83961858 -11.33038962 337.38724232 C-11.34295668 333.38638734 -11.33670347 329.385746 -11.32743096 325.38489008 C-11.32066406 321.07399171 -11.33110994 316.76313097 -11.33937073 312.45223999 C-11.35273555 304.0033364 -11.34981812 295.5545126 -11.3411328 287.10560584 C-11.33436745 280.24118375 -11.33343455 273.37678408 -11.33670425 266.51235962 C-11.33716395 265.5367051 -11.33762365 264.56105058 -11.33809728 263.55583078 C-11.33905642 261.57402856 -11.34002906 259.59222636 -11.34101506 257.61042416 C-11.349577 239.01147566 -11.33972221 220.41257146 -11.32361396 201.81363022 C-11.31021005 185.84252816 -11.31253791 169.87149151 -11.32637024 153.90039062 C-11.34241186 135.36961508 -11.34875295 116.8388784 -11.33953345 98.30809689 C-11.33857776 96.33343952 -11.33763465 94.35878214 -11.33670425 92.38412476 C-11.33624143 91.41246504 -11.3357786 90.44080533 -11.33530175 89.43970138 C-11.3327076 82.58069193 -11.33709199 75.72170706 -11.34414291 68.86270142 C-11.35254238 60.50791624 -11.35031059 52.15321566 -11.33430068 43.79844022 C-11.32639696 39.53278905 -11.32336193 35.26727911 -11.33324814 31.00162888 C-11.34215233 27.10080087 -11.33733342 23.20024571 -11.32131548 19.29944265 C-11.31794943 17.88428245 -11.31970239 16.46909945 -11.32694285 15.05395377 C-11.33599729 13.13809149 -11.32496309 11.22216513 -11.31278038 9.30632019 C-11.31229332 8.23979312 -11.31180627 7.17326605 -11.31130445 6.07441998 C-10.93525696 3.44824219 -10.93525696 3.44824219 -9.62945837 1.60745335 C-6.73021207 -0.37627694 -3.39471144 0.00057058 0 0 Z " fill="#FDF8F9" transform="translate(87.93525695800781,76.5517578125)"></path><path d="M0 0 C0.88779648 -0.01268417 1.77559296 -0.02536835 2.69029236 -0.03843689 C3.64658035 -0.03550125 4.60286835 -0.03256561 5.58813477 -0.02954102 C6.57322525 -0.03478287 7.55831573 -0.04002472 8.57325745 -0.04542542 C10.65706438 -0.0518502 12.74090757 -0.05050273 14.82470703 -0.04199219 C18.01408491 -0.03348848 21.20166858 -0.06222772 24.39086914 -0.09399414 C26.41495714 -0.09560637 28.43904832 -0.09502821 30.46313477 -0.09204102 C31.89453041 -0.10889198 31.89453041 -0.10889198 33.35484314 -0.12608337 C39.92965905 -0.05685601 39.92965905 -0.05685601 43.20068359 2.21923828 C45.23037893 5.40641912 44.98031662 7.92061146 44.84204102 11.65405273 C44.80594727 12.91733398 44.76985352 14.18061523 44.73266602 15.48217773 C44.68625977 16.44639648 44.63985352 17.41061523 44.59204102 18.40405273 C46.63304036 19.19743824 48.67487192 19.98868304 50.71704102 20.77905273 C51.85399414 21.21991211 52.99094727 21.66077148 54.16235352 22.11499023 C57.28486614 23.28859976 60.42019732 24.37248047 63.59204102 25.40405273 C63.79829102 24.86780273 64.00454102 24.33155273 64.21704102 23.77905273 C65.45053662 21.64846942 66.66537479 19.9381589 68.27954102 18.09155273 C68.9659668 17.29297852 68.9659668 17.29297852 69.66625977 16.47827148 C72.88588516 14.6823344 75.08693327 15.51672325 78.59204102 16.40405273 C81.309057 18.25875283 83.53958385 20.50969962 85.83813477 22.85327148 C86.82209984 23.82862602 86.82209984 23.82862602 87.82594299 24.82368469 C89.20384672 26.19751784 90.57425193 27.57890809 91.9375 28.96728516 C94.02647805 31.08844258 96.14560089 33.17563108 98.26977539 35.26147461 C99.60699031 36.60265357 100.94234322 37.94569216 102.27563477 39.29077148 C102.90988876 39.9128801 103.54414276 40.53498871 104.19761658 41.1759491 C107.01443222 44.08493028 108.46171151 45.60549481 109.12744141 49.68457031 C108.37556745 53.50359629 106.49697534 54.89524582 103.59204102 57.40405273 C101.23572277 59.34121312 101.23572277 59.34121312 99.59204102 61.40405273 C100.2257759 66.03758974 102.68029894 70.37969201 104.53344727 74.62670898 C105.59204102 77.40405273 105.59204102 77.40405273 105.59204102 80.40405273 C106.64004883 80.36924805 107.68805664 80.33444336 108.76782227 80.29858398 C110.14671248 80.27044337 111.52562004 80.2431435 112.90454102 80.21655273 C113.59483398 80.19141602 114.28512695 80.1662793 114.99633789 80.14038086 C120.13010832 80.06597839 120.13010832 80.06597839 122.29017639 81.64686584 C123.92549479 83.85413072 123.97719425 85.08116547 123.99609375 87.81201172 C124.01512001 89.14370644 124.01512001 89.14370644 124.03453064 90.50230408 C124.031595 91.45859207 124.02865936 92.41488007 124.02563477 93.40014648 C124.03087662 94.38523697 124.03611847 95.37032745 124.04151917 96.38526917 C124.04794395 98.4690761 124.04659648 100.55291929 124.03808594 102.63671875 C124.02958223 105.82609663 124.05832147 109.0136803 124.09008789 112.20288086 C124.09170012 114.22696886 124.09112196 116.25106004 124.08813477 118.27514648 C124.09936874 119.22941025 124.11060272 120.18367401 124.12217712 121.16685486 C124.05298688 127.73814561 124.05298688 127.73814561 121.77685547 131.02636719 C118.52566183 133.07648292 116.10382004 132.57202818 112.34204102 132.15405273 C110.44711914 131.96069336 110.44711914 131.96069336 108.51391602 131.76342773 C107.54969727 131.64483398 106.58547852 131.52624023 105.59204102 131.40405273 C105.4102832 132.02151367 105.22852539 132.63897461 105.04125977 133.27514648 C103.33483655 139.0244801 101.52549376 144.72710639 99.59204102 150.40405273 C100.25333008 150.9725293 100.91461914 151.54100586 101.59594727 152.12670898 C102.4402832 152.89885742 103.28461914 153.67100586 104.15454102 154.46655273 C105.00145508 155.2206543 105.84836914 155.97475586 106.72094727 156.75170898 C108.59204102 159.40405273 108.59204102 159.40405273 108.59619141 162.6328125 C107.28579636 167.55420134 104.96877984 169.89563586 101.39672852 173.39624023 C100.45822556 174.34335373 100.45822556 174.34335373 99.50076294 175.30960083 C98.17820389 176.63623011 96.84808799 177.95536339 95.51098633 179.26733398 C93.47323899 181.27295249 91.46948354 183.30856551 89.46704102 185.34936523 C88.17468951 186.63775167 86.88047788 187.92427552 85.58422852 189.20874023 C84.98915497 189.81595917 84.39408142 190.4231781 83.78097534 191.04879761 C79.92178248 194.78145956 77.20023203 196.41126175 71.59204102 196.40405273 C68.93969727 194.53295898 68.93969727 194.53295898 66.65454102 191.96655273 C65.49631836 190.70004883 65.49631836 190.70004883 64.31469727 189.40795898 C63.46198242 188.41602539 63.46198242 188.41602539 62.59204102 187.40405273 C62.05836914 187.58581055 61.52469727 187.76756836 60.97485352 187.95483398 C55.21612319 189.89765823 49.42210179 191.68789706 43.59204102 193.40405273 C43.7505957 194.13495117 43.90915039 194.86584961 44.07250977 195.61889648 C44.53738985 198.11107317 44.82094443 200.43665604 44.90454102 202.96655273 C44.94192383 203.7103418 44.97930664 204.45413086 45.01782227 205.22045898 C44.37579673 208.51304867 43.31916788 209.42180241 40.59204102 211.40405273 C37.21887712 212.00285341 33.88119101 211.94038522 30.46313477 211.90014648 C28.98406395 211.90232933 28.98406395 211.90232933 27.47511292 211.90455627 C25.39304648 211.90289786 23.31096772 211.89134312 21.22900391 211.87060547 C18.03763958 211.84162627 14.84793369 211.8500028 11.65649414 211.86303711 C9.63369959 211.85680044 7.61091029 211.84841005 5.58813477 211.83764648 C4.63184677 211.84058212 3.67555878 211.84351776 2.69029236 211.84654236 C1.80249588 211.83385818 0.9146994 211.82117401 0 211.80810547 C-1.17104027 211.80000099 -1.17104027 211.80000099 -2.36573792 211.79173279 C-4.96519291 211.29827159 -5.85582161 210.52483772 -7.40795898 208.40405273 C-7.62516909 205.75408947 -7.69147452 203.35328716 -7.59545898 200.71655273 C-7.57515625 199.66371094 -7.57515625 199.66371094 -7.55444336 198.58959961 C-7.51916081 196.86075445 -7.46535482 195.13230508 -7.40795898 193.40405273 C-8.28194336 193.29448242 -9.15592773 193.18491211 -10.05639648 193.07202148 C-14.42340378 192.20167388 -17.89517772 190.3077528 -21.82202148 188.26733398 C-24.33511069 187.15143388 -24.33511069 187.15143388 -26.59936523 188.06811523 C-28.69658972 189.48499549 -28.69658972 189.48499549 -30.72045898 192.46655273 C-33.40795898 195.40405273 -33.40795898 195.40405273 -36.72045898 196.71655273 C-40.68070188 196.38093893 -41.13419382 196.12981496 -43.89233398 193.60327148 C-44.59011963 192.96542725 -45.28790527 192.32758301 -46.00683594 191.67041016 C-46.79920654 190.92251221 -47.59157715 190.17461426 -48.40795898 189.40405273 C-49.32730225 188.53949463 -50.24664551 187.67493652 -51.19384766 186.78417969 C-53.75044043 184.36094088 -56.27287088 181.90490281 -58.78320312 179.43383789 C-59.83112363 178.40769789 -60.88527173 177.38788203 -61.9453125 176.37426758 C-63.49843806 174.88817139 -65.03082866 173.3831849 -66.56030273 171.87280273 C-67.46772217 170.99043945 -68.3751416 170.10807617 -69.31005859 169.19897461 C-71.83136856 165.83996652 -72.28444496 163.57003953 -72.40795898 159.40405273 C-70.82592773 156.97045898 -70.82592773 156.97045898 -68.59545898 154.96655273 C-67.86713867 154.2872168 -67.13881836 153.60788086 -66.38842773 152.90795898 C-64.40795898 151.40405273 -64.40795898 151.40405273 -62.40795898 151.40405273 C-62.82948242 150.28385742 -63.25100586 149.16366211 -63.68530273 148.00952148 C-64.23871722 146.53687616 -64.79210104 145.06421931 -65.34545898 143.59155273 C-65.62325195 142.85356445 -65.90104492 142.11557617 -66.18725586 141.35522461 C-66.45473633 140.64301758 -66.7222168 139.93081055 -66.99780273 139.19702148 C-67.24393311 138.54241943 -67.49006348 137.88781738 -67.74365234 137.21337891 C-68.32832931 135.62093458 -68.87151457 134.01338598 -69.40795898 132.40405273 C-70.4559668 132.36666992 -71.50397461 132.32928711 -72.58374023 132.29077148 C-73.96268203 132.22510759 -75.34158669 132.15866038 -76.72045898 132.09155273 C-77.41075195 132.06899414 -78.10104492 132.04643555 -78.81225586 132.02319336 C-83.93872451 131.75077232 -83.93872451 131.75077232 -86.10708618 130.14855957 C-87.75137529 127.94352185 -87.78781564 126.71441303 -87.79614258 123.98022461 C-87.80559906 123.08920044 -87.81505554 122.19817627 -87.82479858 121.28015137 C-87.81568954 119.84101379 -87.81568954 119.84101379 -87.80639648 118.37280273 C-87.80926666 117.38534058 -87.81213684 116.39787842 -87.81509399 115.38049316 C-87.81713573 113.29247464 -87.81159823 111.20443703 -87.79907227 109.11645508 C-87.78302049 105.9163139 -87.79891758 102.71743577 -87.81811523 99.51733398 C-87.81613282 97.48998744 -87.81228919 95.46264168 -87.80639648 93.43530273 C-87.81246918 92.47587769 -87.81854187 91.51645264 -87.82479858 90.5279541 C-87.8153421 89.63692993 -87.80588562 88.74590576 -87.79614258 87.82788086 C-87.7937558 87.04417114 -87.79136902 86.26046143 -87.78890991 85.45300293 C-87.30405472 82.8452021 -86.53483411 81.95849717 -84.40795898 80.40405273 C-81.75799572 80.18684263 -79.35719341 80.1205372 -76.72045898 80.21655273 C-76.01856445 80.23008789 -75.31666992 80.24362305 -74.59350586 80.25756836 C-72.8646607 80.29285091 -71.13621133 80.3466569 -69.40795898 80.40405273 C-69.22620117 79.75178711 -69.04444336 79.09952148 -68.85717773 78.42749023 C-67.7013364 74.40871881 -66.58983765 70.75481872 -64.65795898 67.02905273 C-63.22833321 64.59603975 -63.22833321 64.59603975 -63.57202148 62.47827148 C-64.97630392 58.99381366 -67.96511508 57.06803075 -70.79077148 54.69702148 C-72.40795898 52.40405273 -72.40795898 52.40405273 -72.39624023 49.19775391 C-71.10721491 44.24959074 -68.79730292 41.9248226 -65.21264648 38.41186523 C-64.58697784 37.78045624 -63.9613092 37.14904724 -63.31668091 36.49850464 C-61.99412186 35.17187536 -60.66400596 33.85274208 -59.3269043 32.54077148 C-57.28915695 30.53515298 -55.28540151 28.49953996 -53.28295898 26.45874023 C-51.99060748 25.17035379 -50.69639585 23.88382995 -49.40014648 22.59936523 C-48.80507294 21.9921463 -48.20999939 21.38492737 -47.59689331 20.75930786 C-43.73956851 17.02845273 -41.01501086 15.39299178 -35.40795898 15.40405273 C-32.93139648 17.31030273 -32.93139648 17.31030273 -30.78295898 19.90405273 C-28.73359133 22.50375821 -28.73359133 22.50375821 -26.40795898 24.40405273 C-22.39678769 24.30557881 -18.86577074 22.43099923 -15.22045898 20.84155273 C-9.62042357 18.40405273 -9.62042357 18.40405273 -7.40795898 18.40405273 C-7.46016602 16.83204102 -7.46016602 16.83204102 -7.51342773 15.22827148 C-7.54156835 13.84938127 -7.56886822 12.47047371 -7.59545898 11.09155273 C-7.6205957 10.40125977 -7.64573242 9.7109668 -7.67163086 8.99975586 C-7.74603333 3.86598543 -7.74603333 3.86598543 -6.16514587 1.70591736 C-3.957881 0.07059896 -2.73084625 0.0188995 0 0 Z M5.59204102 13.40405273 C5.40641602 16.55967773 5.40641602 16.55967773 5.21704102 19.77905273 C4.84204102 26.15405273 4.84204102 26.15405273 2.59204102 28.40405273 C0.31823415 29.2065728 -1.97770442 29.94691943 -4.28295898 30.65405273 C-10.47752328 32.60202423 -16.04740251 35.07051951 -21.72436523 38.26733398 C-24.92461581 39.62289864 -26.96659772 39.89964581 -30.40795898 39.40405273 C-32.52514648 37.65405273 -32.52514648 37.65405273 -34.28295898 35.40405273 C-34.87850586 34.66155273 -35.47405273 33.91905273 -36.08764648 33.15405273 C-36.52334961 32.57655273 -36.95905273 31.99905273 -37.40795898 31.40405273 C-40.5600088 32.79752649 -42.66967671 34.42890353 -45.07983398 36.88061523 C-45.74370117 37.55092773 -46.40756836 38.22124023 -47.09155273 38.91186523 C-47.7734668 39.61053711 -48.45538086 40.30920898 -49.15795898 41.02905273 C-49.8553418 41.73545898 -50.55272461 42.44186523 -51.27124023 43.16967773 C-52.98808386 44.91003977 -54.70007731 46.65490254 -56.40795898 48.40405273 C-55.12247504 52.26050457 -53.12090465 53.30038754 -49.90405273 55.61108398 C-48.40795898 57.40405273 -48.40795898 57.40405273 -47.98999023 60.19311523 C-48.49205622 64.0501081 -49.78156742 66.56460752 -51.65795898 69.96655273 C-54.75958649 75.76833796 -56.86545387 81.48163556 -58.58374023 87.85717773 C-59.40795898 90.40405273 -59.40795898 90.40405273 -61.40795898 92.40405273 C-64.44702148 92.81811523 -64.44702148 92.81811523 -68.03295898 93.02905273 C-71.18858398 93.21467773 -71.18858398 93.21467773 -74.40795898 93.40405273 C-74.40795898 101.65405273 -74.40795898 109.90405273 -74.40795898 118.40405273 C-70.44795898 118.73405273 -66.48795898 119.06405273 -62.40795898 119.40405273 C-59.22336307 121.52711667 -58.98982329 121.81436813 -57.97827148 125.22045898 C-57.74253418 125.98068359 -57.50679687 126.7409082 -57.26391602 127.52416992 C-57.0227002 128.33015625 -56.78148437 129.13614258 -56.53295898 129.96655273 C-54.91571167 135.14378482 -53.36104896 139.98609741 -50.53295898 144.65405273 C-49.08151885 147.10008626 -48.32591567 148.71960394 -47.59545898 151.52905273 C-48.91601614 156.20179345 -52.63289563 158.55590226 -56.40795898 161.40405273 C-55.01448522 164.55610255 -53.38310819 166.66577046 -50.93139648 169.07592773 C-50.26108398 169.73979492 -49.59077148 170.40366211 -48.90014648 171.08764648 C-47.85213867 172.11051758 -47.85213867 172.11051758 -46.78295898 173.15405273 C-46.07655273 173.85143555 -45.37014648 174.54881836 -44.64233398 175.26733398 C-42.90197195 176.98417761 -41.15710918 178.69617106 -39.40795898 180.40405273 C-36.53633914 179.12579545 -35.47038226 178.49230633 -33.59545898 175.84155273 C-31.40795898 173.40405273 -31.40795898 173.40405273 -28.25952148 172.51733398 C-23.37186927 172.37357951 -20.75448933 173.78999355 -16.59545898 176.15405273 C-11.25904104 179.02014693 -6.24816758 181.38630812 -0.32592773 182.83374023 C1.59204102 183.40405273 1.59204102 183.40405273 4.59204102 185.40405273 C5.32028106 189.72902032 5.3768684 194.01453145 5.59204102 198.40405273 C13.84204102 198.40405273 22.09204102 198.40405273 30.59204102 198.40405273 C30.92204102 194.44405273 31.25204102 190.48405273 31.59204102 186.40405273 C34.56324078 183.43285297 35.02948876 183.07499843 38.77954102 182.21655273 C44.57160696 180.65780558 49.60462387 177.95911107 54.79394531 175.00878906 C59.39988261 172.53051683 62.35991296 171.85215035 67.59204102 173.40405273 C69.58813477 175.03295898 69.58813477 175.03295898 71.02954102 176.96655273 C71.52325195 177.6072168 72.01696289 178.24788086 72.52563477 178.90795898 C72.87754883 179.40166992 73.22946289 179.89538086 73.59204102 180.40405273 C76.74409083 179.01057897 78.85375875 177.37920194 81.26391602 174.92749023 C81.9277832 174.25717773 82.59165039 173.58686523 83.27563477 172.89624023 C83.95754883 172.19756836 84.63946289 171.49889648 85.34204102 170.77905273 C86.03942383 170.07264648 86.73680664 169.36624023 87.45532227 168.63842773 C89.17216589 166.8980657 90.88415934 165.15320293 92.59204102 163.40405273 C91.42761412 159.91077206 89.96214921 159.06306682 86.96704102 157.07592773 C84.70363545 154.32383233 84.70175165 151.90382189 84.59204102 148.40405273 C85.84985352 145.15014648 85.84985352 145.15014648 87.71704102 141.84155273 C91.03889639 135.74580261 93.40427861 129.66744498 95.54907227 123.07202148 C96.59204102 120.40405273 96.59204102 120.40405273 98.59204102 119.40405273 C104.53204102 118.90905273 104.53204102 118.90905273 110.59204102 118.40405273 C110.59204102 110.15405273 110.59204102 101.90405273 110.59204102 93.40405273 C107.3042806 93.30639648 104.01652018 93.20874023 100.72875977 93.11108398 C97.59204102 92.40405273 97.59204102 92.40405273 95.78735352 90.23608398 C94.53810885 87.27627229 93.61416785 84.38127301 92.77954102 81.27905273 C91.42438326 76.59952362 89.7743811 72.71021992 87.27954102 68.52905273 C85.35711558 65.15009579 84.60359149 63.54496849 84.27954102 59.59155273 C86.06500536 55.25542504 88.83265059 53.08372268 92.59204102 50.40405273 C91.20518878 47.28449554 89.5901461 45.14549474 87.18579102 42.73217773 C86.52450195 42.06831055 85.86321289 41.40444336 85.18188477 40.72045898 C84.49223633 40.03854492 83.80258789 39.35663086 83.09204102 38.65405273 C82.40239258 37.95666992 81.71274414 37.25928711 81.00219727 36.54077148 C80.3409082 35.88206055 79.67961914 35.22334961 78.99829102 34.54467773 C78.39307617 33.94171875 77.78786133 33.33875977 77.16430664 32.7175293 C75.6776807 31.19034552 75.6776807 31.19034552 73.59204102 31.40405273 C71.84546759 33.42071483 70.24886605 35.52714626 68.63891602 37.65405273 C66.59204102 39.40405273 66.59204102 39.40405273 63.69750977 39.82202148 C60.26789558 39.36042561 58.16083926 38.40946111 55.15454102 36.71655273 C49.13750312 33.51551877 43.14996887 31.51484722 36.64672852 29.57983398 C33.59204102 28.40405273 33.59204102 28.40405273 31.59204102 25.40405273 C31.09704102 19.46405273 31.09704102 19.46405273 30.59204102 13.40405273 C22.34204102 13.40405273 14.09204102 13.40405273 5.59204102 13.40405273 Z " fill="#FEFBFB" transform="translate(311.407958984375,223.595947265625)"></path><path d="M0 0 C4.29 0 8.58 0 13 0 C13 6.27 13 12.54 13 19 C34.12 19 55.24 19 77 19 C77 23.29 77 27.58 77 32 C55.88 32 34.76 32 13 32 C13 40.58 13 49.16 13 58 C34.12 58 55.24 58 77 58 C77 61.96 77 65.92 77 70 C55.88 70 34.76 70 13 70 C13 76.6 13 83.2 13 90 C8.71 90 4.42 90 0 90 C0 60.3 0 30.6 0 0 Z " fill="#FEFAFB" transform="translate(294,288)"></path><path d="M0 0 C3.79966033 3.15081794 7.40552772 6.33992924 10.82421875 9.90234375 C11.46037109 10.56427734 12.09652344 11.22621094 12.75195312 11.90820312 C14.06157638 13.2812592 15.36347834 14.66171465 16.65820312 16.04882812 C17.29048828 16.70173828 17.92277344 17.35464844 18.57421875 18.02734375 C19.13713623 18.62281006 19.70005371 19.21827637 20.2800293 19.83178711 C21.9209379 21.18984507 21.9209379 21.18984507 23.9387207 20.95385742 C26.71010195 19.67140018 28.31527118 17.93451279 30.40625 15.7109375 C31.23253906 14.85242188 32.05882812 13.99390625 32.91015625 13.109375 C34.64062319 11.282336 36.36717591 9.45158191 38.08984375 7.6171875 C38.91613281 6.76125 39.74242187 5.9053125 40.59375 5.0234375 C41.34333984 4.22856934 42.09292969 3.43370117 42.86523438 2.61474609 C45 1 45 1 47.16894531 1.16040039 C49.34057482 2.15616491 50.6203734 3.32176249 52.25 5.0625 C53.03117187 5.88427734 53.03117187 5.88427734 53.828125 6.72265625 C54.21484375 7.14417969 54.6015625 7.56570313 55 8 C53.48623919 11.56764285 51.39486871 13.83706287 48.6484375 16.546875 C47.79765625 17.39121094 46.946875 18.23554688 46.0703125 19.10546875 C45.18085938 19.97816406 44.29140625 20.85085938 43.375 21.75 C42.02921875 23.08224609 42.02921875 23.08224609 40.65625 24.44140625 C38.44192996 26.63216969 36.22307565 28.81812763 34 31 C35.51376081 34.56764285 37.60513129 36.83706287 40.3515625 39.546875 C41.20234375 40.39121094 42.053125 41.23554688 42.9296875 42.10546875 C43.81914062 42.97816406 44.70859375 43.85085938 45.625 44.75 C46.5221875 45.63816406 47.419375 46.52632813 48.34375 47.44140625 C50.55807004 49.63216969 52.77692435 51.81812763 55 54 C54.0919838 55.13199353 53.17316174 56.25532363 52.25 57.375 C51.73953125 58.00148438 51.2290625 58.62796875 50.703125 59.2734375 C49 61 49 61 45 63 C38.07 56.07 31.14 49.14 24 42 C18.35686821 46.80532908 18.35686821 46.80532908 13.03515625 51.8671875 C12.38095703 52.52460938 11.72675781 53.18203125 11.05273438 53.859375 C10.39595703 54.52453125 9.73917969 55.1896875 9.0625 55.875 C8.37865234 56.56335938 7.69480469 57.25171875 6.99023438 57.9609375 C5.32448536 59.63833511 3.6611378 61.31803791 2 63 C-2 61 -2 61 -8 54 C-1.07 47.07 5.86 40.14 13 33 C11.1172549 29.2345098 9.58807351 27.35356586 6.6484375 24.453125 C5.79765625 23.60878906 4.946875 22.76445312 4.0703125 21.89453125 C2.73613281 20.58548828 2.73613281 20.58548828 1.375 19.25 C0.02921875 17.91775391 0.02921875 17.91775391 -1.34375 16.55859375 C-3.55807004 14.36783031 -5.77692435 12.18187237 -8 10 C-5.95933017 5.73384496 -3.41446998 3.26601476 0 0 Z " fill="#FEFAFA" transform="translate(136,326)"></path><path d="M0 0 C3.21043882 1.38188453 5.04936365 2.92421903 7.25 5.625 C8.03117187 6.57246094 8.03117187 6.57246094 8.828125 7.5390625 C9.40820312 8.26222656 9.40820312 8.26222656 10 9 C3.62541085 15.55997366 -2.77057442 22.09809379 -9.19488621 28.60938358 C-12.1773325 31.63357608 -15.15188745 34.66475089 -18.10961914 37.71313477 C-20.96448985 40.65494883 -23.83848549 43.57676389 -26.72675896 46.4857769 C-27.82502151 47.59881819 -28.91621925 48.71887658 -30.00009346 49.84593391 C-31.52041636 51.42437192 -33.06401495 52.97592677 -34.61547852 54.52368164 C-35.48817886 55.41414688 -36.36087921 56.30461212 -37.26002502 57.22206116 C-40 59 -40 59 -43.64916992 58.92456055 C-47.80097431 57.77899528 -50.06422265 55.70348711 -52.93359375 52.65234375 C-53.4563942 52.12105362 -53.97919464 51.58976349 -54.51783752 51.04237366 C-56.17243397 49.35438609 -57.80485907 47.64670483 -59.4375 45.9375 C-60.56044437 44.78443772 -61.68478045 43.63272906 -62.81054688 42.48242188 C-65.55671779 39.67035712 -68.28320527 36.84044392 -71 34 C-69 30 -69 30 -62 24 C-56.06 29.94 -50.12 35.88 -44 42 C-40.39167507 40.19583754 -38.63921415 38.88376614 -35.87402344 36.10107422 C-35.07349548 35.3003952 -34.27296753 34.49971619 -33.44818115 33.67477417 C-32.59387512 32.81014557 -31.73956909 31.94551697 -30.859375 31.0546875 C-29.97719299 30.1696756 -29.09501099 29.2846637 -28.18609619 28.37283325 C-25.84805457 26.02549869 -23.51444126 23.67393215 -21.18286133 21.32019043 C-18.80003474 18.91686073 -16.41149652 16.51922233 -14.0234375 14.12109375 C-9.34368138 9.41928533 -4.66968133 4.71181336 0 0 Z " fill="#FEFAFA" transform="translate(193,131)"></path><path d="M0 0 C3.21043882 1.38188453 5.04936365 2.92421903 7.25 5.625 C8.03117187 6.57246094 8.03117187 6.57246094 8.828125 7.5390625 C9.40820312 8.26222656 9.40820312 8.26222656 10 9 C3.72964302 15.38628388 -2.55418303 21.7589155 -8.85554695 28.11460781 C-11.78121261 31.06635042 -14.7020528 34.02255485 -17.61230469 36.98950195 C-20.42183239 39.85341586 -23.24345278 42.70488764 -26.07381821 45.54820442 C-27.15067665 46.63429077 -28.22312958 47.72476383 -29.29101944 48.81966972 C-30.78946308 50.35449066 -32.30291939 51.87286099 -33.82080078 53.38842773 C-35.10653488 54.69081642 -35.10653488 54.69081642 -36.41824341 56.01951599 C-39.37862378 58.29044502 -41.30167421 58.81133087 -45 59 C-47.00195312 57.89819336 -47.00195312 57.89819336 -48.78125 56.15234375 C-49.45800781 55.50378418 -50.13476562 54.85522461 -50.83203125 54.18701172 C-51.54746094 53.46529785 -52.26289063 52.74358398 -53 52 C-53.76699219 51.25121582 -54.53398437 50.50243164 -55.32421875 49.73095703 C-57.73677314 47.36120285 -60.12138887 44.96629186 -62.5 42.5625 C-63.32242188 41.73556641 -64.14484375 40.90863281 -64.9921875 40.05664062 C-66.99712113 38.04005041 -68.99966253 36.02114764 -71 34 C-69 30 -69 30 -62 24 C-56.06 29.94 -50.12 35.88 -44 42 C-40.39167507 40.19583754 -38.63921415 38.88376614 -35.87402344 36.10107422 C-35.07349548 35.3003952 -34.27296753 34.49971619 -33.44818115 33.67477417 C-32.59387512 32.81014557 -31.73956909 31.94551697 -30.859375 31.0546875 C-29.97719299 30.1696756 -29.09501099 29.2846637 -28.18609619 28.37283325 C-25.84805457 26.02549869 -23.51444126 23.67393215 -21.18286133 21.32019043 C-18.80003474 18.91686073 -16.41149652 16.51922233 -14.0234375 14.12109375 C-9.34368138 9.41928533 -4.66968133 4.71181336 0 0 Z " fill="#FEFAFA" transform="translate(193,223)"></path><path d="M0 0 C5.62167523 3.37300514 5.62167523 3.37300514 8.26953125 5.890625 C9.13143066 6.70225098 9.13143066 6.70225098 10.01074219 7.53027344 C10.60532227 8.0977832 11.19990234 8.66529297 11.8125 9.25 C13.06302042 10.42791374 14.31431635 11.60500471 15.56640625 12.78125 C16.16211426 13.34199219 16.75782227 13.90273437 17.37158203 14.48046875 C19.87660848 16.81799268 22.45625512 19.06323813 25.046875 21.3046875 C27.54831439 23.47593689 30.02700429 25.67140885 32.5 27.875 C33.3559375 28.63554687 34.211875 29.39609375 35.09375 30.1796875 C35.7228125 30.78039062 36.351875 31.38109375 37 32 C37 32.33 37 32.66 37 33 C24.79 33 12.58 33 0 33 C0 22.11 0 11.22 0 0 Z " fill="#E93B40" transform="translate(288,101)"></path></svg>