<svg version="1.1" xmlns="http://www.w3.org/2000/svg" width="16px" height="16px" fill="currentColor" viewBox="0 0 512 512"><path d="M0 0 C168.96 0 337.92 0 512 0 C512 168.96 512 337.92 512 512 C343.04 512 174.08 512 0 512 C0 343.04 0 174.08 0 0 Z " fill="#2D8F7A" transform="translate(0,0)"></path><path d="M0 0 C15.43255155 12.20653795 26.21868779 26.46948187 35.078125 43.875 C36.19832031 43.30910156 37.31851563 42.74320313 38.47265625 42.16015625 C39.94525922 41.41916494 41.41791841 40.67828534 42.890625 39.9375 C43.62861328 39.56431641 44.36660156 39.19113281 45.12695312 38.80664062 C45.83916016 38.44892578 46.55136719 38.09121094 47.28515625 37.72265625 C47.9397583 37.39273682 48.59436035 37.06281738 49.26879883 36.72290039 C57.3686332 32.92709351 68.73669451 33.97761098 77.078125 36.875 C90.59519872 42.07219474 99.26762748 51.88682908 105.078125 64.875 C107.55138813 71.27474302 109.32461203 76.97336313 109.078125 83.875 C110.233125 84.060625 111.388125 84.24625 112.578125 84.4375 C124.55525579 87.13896641 135.75057707 92.97331927 145.078125 100.875 C145.86703125 101.54015625 146.6559375 102.2053125 147.46875 102.890625 C158.11318107 112.66612292 166.44619346 128.25320443 167.23925781 142.83837891 C167.28499199 146.39234985 167.3133924 149.94575952 167.328125 153.5 C167.3590625 155.33111328 167.3590625 155.33111328 167.390625 157.19921875 C167.45783408 172.90934056 162.38616205 186.28036224 153.078125 198.875 C152.42070313 199.78185547 152.42070313 199.78185547 151.75 200.70703125 C141.12518491 214.23229874 122.71856063 222.21081392 106.078125 224.875 C103.13456648 225.0141973 100.19512935 225.0013873 97.2487793 224.98852539 C95.93095207 224.98874443 95.93095207 224.98874443 94.58650208 224.9889679 C91.69175724 224.98827299 88.7970773 224.98050036 85.90234375 224.97265625 C83.89166804 224.97079057 81.88099188 224.96936737 79.87031555 224.96836853 C74.58493794 224.96455517 69.29958792 224.95473495 64.01422119 224.94366455 C58.61820855 224.93342505 53.22219144 224.92886547 47.82617188 224.92382812 C37.24347748 224.91311163 26.66080354 224.89604937 16.078125 224.875 C16.078125 220.915 16.078125 216.955 16.078125 212.875 C17.14506592 212.87357498 18.21200684 212.87214996 19.3112793 212.87068176 C29.43120747 212.85391656 39.55073843 212.81085496 49.67045593 212.74290943 C54.87150692 212.70881048 60.0722695 212.68355626 65.2734375 212.67944336 C70.30526654 212.67512346 75.33644685 212.6463588 80.36807251 212.60156822 C82.27507733 212.58871009 84.18216026 212.58424339 86.08920288 212.58884621 C104.63985163 212.6231492 121.13287512 208.9149168 136.390625 197.625 C149.8309404 183.87211912 153.35561347 168.9390548 153.3972168 150.29614258 C153.29673957 142.48808931 152.26967519 136.07698498 149.078125 128.875 C148.7275 128.07320312 148.376875 127.27140625 148.015625 126.4453125 C140.84634068 112.05695716 128.18290027 104.20697519 113.59765625 98.66796875 C109.6756135 97.4335894 105.67577555 96.58014066 101.64453125 95.78125 C98.52436584 94.67945643 97.6046276 93.79152981 96.078125 90.875 C95.70703125 88.24609375 95.70703125 88.24609375 95.640625 85.3125 C94.97095373 74.53210556 90.7772068 65.17652818 83.640625 57.125 C76.19030008 50.58325129 69.91529628 48.39851304 60.09765625 48.640625 C49.28044089 49.48025362 43.50786364 55.44526136 36.078125 62.875 C32.640625 63.3125 32.640625 63.3125 29.078125 62.875 C26.48166433 59.39463782 24.89127207 55.33724501 23.12304688 51.39013672 C11.76820452 26.24226495 -5.99843893 8.63760927 -31.83544922 -1.35888672 C-50.99472711 -8.3939691 -73.32984122 -5.86026426 -91.87890625 2.15234375 C-98.58333392 5.33167612 -104.27500508 9.08653705 -109.921875 13.875 C-110.89769531 14.65230469 -111.87351562 15.42960937 -112.87890625 16.23046875 C-126.58631715 27.69426098 -137.37400851 48.2374185 -139.921875 65.875 C-140.39529601 71.86873838 -140.58493889 77.86329925 -140.64648438 83.87451172 C-140.66485352 85.55697998 -140.66485352 85.55697998 -140.68359375 87.2734375 C-140.6829895 88.78429932 -140.6829895 88.78429932 -140.68237305 90.32568359 C-140.921875 92.875 -140.921875 92.875 -142.921875 95.875 C-145.41964934 96.91671196 -147.86347463 97.82682788 -150.421875 98.6875 C-157.104282 101.06837322 -163.08983375 103.76655458 -168.921875 107.875 C-169.55351562 108.31199219 -170.18515625 108.74898438 -170.8359375 109.19921875 C-181.0993338 117.08892207 -186.66555247 130.43027534 -188.66259766 142.85839844 C-191.01819792 161.17973386 -187.46202783 181.71369363 -176.58203125 196.87890625 C-170.74613943 203.89570794 -163.20054503 209.71516625 -153.921875 210.875 C-154.06418308 212.29202513 -154.21088246 213.7086096 -154.359375 215.125 C-154.44058594 215.91390625 -154.52179688 216.7028125 -154.60546875 217.515625 C-154.89822493 219.69864639 -155.34251919 221.7523182 -155.921875 223.875 C-169.94802299 221.30476346 -180.66918419 214.55410814 -189.015625 202.96875 C-202.02605463 182.96764176 -205.96479162 156.24016227 -201.046875 132.85546875 C-196.50816226 115.81556244 -185.71664778 102.12641488 -170.921875 92.875 C-158.5669749 85.875 -158.5669749 85.875 -153.921875 85.875 C-153.95667969 84.91722656 -153.99148437 83.95945312 -154.02734375 82.97265625 C-154.66918862 57.45121853 -146.57621712 34.38233435 -129.921875 14.875 C-129.26832031 14.07707031 -128.61476563 13.27914062 -127.94140625 12.45703125 C-96.28120871 -24.7393757 -38.74093578 -28.17522602 0 0 Z " fill="#FBFCFC" transform="translate(272.921875,140.125)"></path><path d="M0 0 C27.39 0 54.78 0 83 0 C83 27.39 83 54.78 83 83 C79.04 83 75.08 83 71 83 C70.67 63.2 70.34 43.4 70 23 C61.10339291 31.8072587 61.10339291 31.8072587 52.83984375 40.94140625 C50.04233133 44.07153162 47.03375494 46.98685658 44.04663086 49.93383789 C41.41959998 52.5392137 38.89999432 55.18462205 36.5 58 C33.65877199 61.33297901 30.61578377 64.42608801 27.5 67.5 C24.40508498 70.55337951 21.38065723 73.62323685 18.5625 76.9375 C15.06289503 81.04426535 11.24017991 84.78724806 7.40478516 88.57568359 C4.04955443 91.90566329 0.90282125 95.33922489 -2.16015625 98.94140625 C-4.95835792 102.07230281 -7.96773656 104.98829695 -10.95556641 107.93603516 C-13.56120739 110.52022318 -16.06053109 113.14209158 -18.4375 115.9375 C-21.93331413 120.03981683 -25.75010473 123.78096321 -29.58422852 127.5625 C-33.0583885 131.00653562 -36.2965077 134.57976581 -39.46484375 138.30859375 C-41.76310685 140.84077676 -44.30729614 142.89837748 -47 145 C-49.64 142.36 -52.28 139.72 -55 137 C-53.30427347 133.60854693 -52.41745372 132.2059289 -49.8125 129.75 C-47.34617783 127.35948691 -45.03410171 124.93159417 -42.8125 122.3125 C-39.70384674 118.69860287 -36.38885354 115.34713174 -33 112 C-29.1010267 108.1487936 -25.39175684 104.23578249 -21.83984375 100.05859375 C-19.04233133 96.92846838 -16.03375494 94.01314342 -13.04663086 91.06616211 C-10.41959998 88.4607863 -7.89999432 85.81537795 -5.5 83 C-2.2169922 79.14877931 1.35404512 75.6171114 4.953125 72.06640625 C7.58023558 69.46094768 10.09993084 66.81546575 12.5 64 C15.7830078 60.14877931 19.35404512 56.6171114 22.953125 53.06640625 C25.58023558 50.46094768 28.09993084 47.81546575 30.5 45 C33.78098607 41.15115095 37.34955494 37.62140952 40.9465332 34.07299805 C43.63783551 31.40395707 46.21864968 28.68811742 48.6875 25.8125 C52.26324269 21.69702257 56.14493254 17.85506746 60 14 C30.3 13.505 30.3 13.505 0 13 C0 8.71 0 4.42 0 0 Z " fill="#FBFDFC" transform="translate(263,244)"></path><path d="M0 0 C19.14 0 38.28 0 58 0 C58 19.14 58 38.28 58 58 C53.71 58 49.42 58 45 58 C44.67 46.78 44.34 35.56 44 24 C40.37 27.96 36.74 31.92 33 36 C30.42279657 38.7563141 27.84214838 41.50791797 25.25 44.25 C23.87095765 45.71211123 22.49205475 47.17435399 21.11328125 48.63671875 C20.42830566 49.36294434 19.74333008 50.08916992 19.03759766 50.83740234 C15.83154893 54.24013175 12.6340967 57.65089312 9.4375 61.0625 C8.82293945 61.71831055 8.20837891 62.37412109 7.57519531 63.04980469 C6.33637667 64.37186154 5.09760703 65.6939643 3.85888672 67.01611328 C1.36519149 69.67749593 -1.12924628 72.33818193 -3.6237793 74.9987793 C-4.87144611 76.32956978 -6.11900526 77.6604612 -7.36645508 78.99145508 C-10.53912921 82.37644253 -13.7134271 85.75988289 -16.890625 89.140625 C-24.31541544 97.0444643 -31.69697042 104.98336877 -39 113 C-42.92300272 111.17495091 -45.73787272 108.81729174 -49 106 C-47.3888491 102.10175558 -44.73481588 99.32904368 -41.875 96.3125 C-41.35075439 95.75216064 -40.82650879 95.19182129 -40.28637695 94.61450195 C-38.52889712 92.73858049 -36.76462563 90.86919952 -35 89 C-33.72495658 87.6435147 -32.45022458 86.28673661 -31.17578125 84.9296875 C-28.48034403 82.06145731 -25.78218528 79.19582128 -23.08203125 76.33203125 C-13.78316298 66.46785539 -4.52214765 56.56812718 4.72216797 46.65283203 C7.76214825 43.39332144 10.80700639 40.13854075 13.859375 36.890625 C14.5090625 36.19904297 15.15875 35.50746094 15.828125 34.79492188 C17.05131489 33.493418 18.27519713 32.1925642 19.5 30.89257812 C24.73601335 25.32046933 29.85389792 19.66071229 35 14 C17.675 13.505 17.675 13.505 0 13 C0 8.71 0 4.42 0 0 Z " fill="#F9FCFB" transform="translate(180,269)"></path></svg>