<svg version="1.1" xmlns="http://www.w3.org/2000/svg" width="16px" height="16px" fill="currentColor" viewBox="0 0 512 512"><path d="M0 0 C168.96 0 337.92 0 512 0 C512 168.96 512 337.92 512 512 C343.04 512 174.08 512 0 512 C0 343.04 0 174.08 0 0 Z " fill="#DD2C34" transform="translate(0,0)"></path><path d="M0 0 C1.23027829 -0.00782324 2.46055658 -0.01564648 3.72811604 -0.02370679 C5.10067181 -0.01722004 6.47322628 -0.01045004 7.84577942 -0.00342751 C9.29816382 -0.0068821 10.7505456 -0.01164532 12.20292187 -0.01760924 C16.20377684 -0.0301763 20.20441818 -0.02392309 24.20527411 -0.01465058 C28.51617248 -0.00788368 32.82703322 -0.01832956 37.13792419 -0.02659035 C45.58682778 -0.03995517 54.03565158 -0.03703774 62.48455834 -0.02835242 C69.34898043 -0.02158707 76.2133801 -0.02065417 83.07780457 -0.02392387 C84.05345908 -0.02438357 85.0291136 -0.02484327 86.03433341 -0.0253169 C88.01613562 -0.02627604 89.99793782 -0.02724868 91.97974002 -0.02823468 C110.57868853 -0.03679662 129.17759272 -0.02694183 147.77653396 -0.01083358 C163.74763602 0.00257033 179.71867268 0.00024247 195.68977356 -0.01358986 C214.2205491 -0.02963148 232.75128578 -0.03597257 251.2820673 -0.02675307 C253.25672467 -0.02579738 255.23138205 -0.02485427 257.20603943 -0.02392387 C258.17769914 -0.02346105 259.14935886 -0.02299822 260.15046281 -0.02252137 C267.00947226 -0.01992722 273.86845713 -0.02431161 280.72746277 -0.03136253 C289.08224794 -0.039762 297.43694853 -0.03753021 305.79172397 -0.0215203 C310.05737513 -0.01361658 314.32288508 -0.01058155 318.58853531 -0.02046776 C322.48936331 -0.02937195 326.38991848 -0.02455304 330.29072154 -0.0085351 C331.70588174 -0.00516905 333.12106474 -0.00692201 334.53621042 -0.01416247 C336.4520727 -0.02321691 338.36799905 -0.01218271 340.28384399 0 C341.35037107 0.00048706 342.41689814 0.00097411 343.51574421 0.00147593 C346.141922 0.37752342 346.141922 0.37752342 347.98445666 1.56036699 C349.5842387 4.07193614 349.5179797 5.857691 349.51944542 8.82954979 C349.52726866 9.9692598 349.5350919 11.1089698 349.54315221 12.28321648 C349.53646005 13.54088074 349.52976788 14.798545 349.52287292 16.0943203 C349.52632776 17.43946017 349.53109115 18.78459722 349.53705466 20.12972832 C349.54961839 23.83414808 349.54337005 27.53833703 349.534096 31.2427578 C349.52732773 35.23463597 349.53777567 39.22647354 349.54603577 43.21834373 C349.55939912 51.0415992 349.55648381 58.86476849 349.54779784 66.68802738 C349.54103192 73.04425007 349.54009984 79.40044856 349.54336929 85.75667381 C349.54382899 86.66016894 349.54428869 87.56366406 349.54476232 88.49453783 C349.54572146 90.32977804 349.5466941 92.16501825 349.54768009 94.00025845 C349.55624161 111.22289511 349.54638793 128.44548393 349.530279 145.66811275 C349.51687512 160.45669028 349.519203 175.24519717 349.53303528 190.03377342 C349.54907766 207.19336931 349.55541757 224.35292322 349.54619849 241.51252556 C349.54524281 243.34114138 349.54429969 245.1697572 349.54336929 246.99837303 C349.54290647 247.89816588 349.54244364 248.79795873 349.54196679 249.72501802 C349.53937287 256.07607497 349.54375654 262.42710536 349.55080795 268.77815819 C349.55920827 276.51444302 349.55697386 284.2506365 349.54096572 291.98691082 C349.53306313 295.9366242 349.53002504 299.88618508 349.53991318 303.83589745 C349.54881973 307.44806738 349.54399459 311.05994274 349.52798052 314.67208576 C349.52301519 316.6053342 349.5328653 318.53860292 349.54315221 320.47183037 C349.53532897 321.61154037 349.52750573 322.75125038 349.51944542 323.92549706 C349.51871483 325.40681492 349.51871483 325.40681492 349.51796949 326.9180584 C349.0804604 329.77950098 348.44150463 330.67499349 346.141922 332.37752342 C344.22463989 332.73828697 344.22463989 332.73828697 342.03767395 332.71809959 C340.80673759 332.7177597 340.80673759 332.7177597 339.55093384 332.71741295 C338.66959274 332.70192909 337.78825165 332.68644524 336.88020325 332.67049217 C335.97441025 332.66624733 335.06861725 332.66200249 334.13537598 332.65762901 C331.24142267 332.6408319 328.34816493 332.60317792 325.454422 332.56502342 C323.49284351 332.54997791 321.53125411 332.53628928 319.56965637 332.5240078 C314.76014344 332.49092499 309.95115066 332.43913564 305.141922 332.37752342 C305.141922 328.41752342 305.141922 324.45752342 305.141922 320.37752342 C315.701922 320.37752342 326.261922 320.37752342 337.141922 320.37752342 C337.141922 233.58752342 337.141922 146.79752342 337.141922 57.37752342 C226.921922 57.37752342 116.701922 57.37752342 3.141922 57.37752342 C3.141922 144.16752342 3.141922 230.95752342 3.141922 320.37752342 C83.661922 320.37752342 164.181922 320.37752342 247.141922 320.37752342 C247.141922 324.33752342 247.141922 328.29752342 247.141922 332.37752342 C214.96229421 332.445917 182.78268705 332.49902957 150.6030036 332.53071941 C146.80648735 332.53447167 143.00997124 332.53835462 139.2134552 332.54231834 C138.45761659 332.54310528 137.70177799 332.54389221 136.92303518 332.54470298 C124.67420514 332.55776759 112.4254172 332.58142722 100.17661216 332.60898181 C87.61425245 332.63700671 75.05191483 332.65369349 62.48952514 332.65978891 C54.7338065 332.66391142 46.97820687 332.67694594 39.22252486 332.70127282 C33.28194186 332.71896057 27.3414204 332.72089643 21.40081024 332.71684647 C18.95903857 332.71767486 16.51726258 332.72368262 14.07551765 332.73513985 C10.75269091 332.7499724 7.4303816 332.74651071 4.10754395 332.73828697 C3.13187255 332.7470255 2.15620116 332.75576402 1.15096396 332.76476735 C0.26369174 332.7587942 -0.62358049 332.75282106 -1.53773975 332.74666691 C-2.68886193 332.74837565 -2.68886193 332.74837565 -3.86323911 332.75011891 C-6.49520764 332.25852052 -7.34020423 331.5784377 -8.858078 329.37752342 C-9.23412549 326.9180584 -9.23412549 326.9180584 -9.23560143 323.92549706 C-9.24342467 322.78578705 -9.25124791 321.64607704 -9.25930822 320.47183037 C-9.25261605 319.21416611 -9.24592389 317.95650185 -9.23902893 316.66072655 C-9.24248377 315.31558667 -9.24724716 313.97044962 -9.25321066 312.62531853 C-9.26577439 308.92089876 -9.25952606 305.21670982 -9.25025201 301.51228905 C-9.24348373 297.52041088 -9.25393167 293.5285733 -9.26219177 289.53670311 C-9.27555513 281.71344764 -9.27263982 273.89027835 -9.26395385 266.06701946 C-9.25718792 259.71079677 -9.25625585 253.35459829 -9.2595253 246.99837303 C-9.259985 246.09487791 -9.2604447 245.19138278 -9.26091833 244.26050901 C-9.26187747 242.4252688 -9.26285011 240.5900286 -9.2638361 238.7547884 C-9.27239762 221.53215173 -9.26254393 204.30956291 -9.246435 187.08693409 C-9.23303113 172.29835656 -9.23535901 157.50984967 -9.24919128 142.72127342 C-9.26523367 125.56167754 -9.27157357 108.40212362 -9.26235449 91.24252129 C-9.26139881 89.41390547 -9.2604557 87.58528964 -9.2595253 85.75667381 C-9.25906247 84.85688097 -9.25859965 83.95708812 -9.25812279 83.03002882 C-9.25552887 76.67897188 -9.25991254 70.32794149 -9.26696396 63.97688866 C-9.27536427 56.24060382 -9.27312987 48.50441035 -9.25712173 40.76813602 C-9.24921913 36.81842265 -9.24618104 32.86886176 -9.25606918 28.9191494 C-9.26497574 25.30697946 -9.2601506 21.6951041 -9.24413653 18.08296108 C-9.2391712 16.14971264 -9.24902131 14.21644392 -9.25930822 12.28321648 C-9.25148498 11.14350647 -9.24366174 10.00379646 -9.23560143 8.82954979 C-9.23511437 7.84200455 -9.23462731 6.8544593 -9.23412549 5.83698845 C-8.858078 3.37752342 -8.858078 3.37752342 -7.70061266 1.56036699 C-5.07532571 -0.1249765 -3.11029333 0.0014204 0 0 Z " fill="#FEFEFE" transform="translate(85.85807800292969,89.62247657775879)"></path><path d="M0 0 C110.22 0 220.44 0 334 0 C334 10.89 334 21.78 334 33 C223.78 33 113.56 33 0 33 C0 22.11 0 11.22 0 0 Z " fill="#E73C41" transform="translate(89,102)"></path><path d="M0 0 C7.98979659 3.35571457 11.80990056 16.61337216 15.3125 24.0625 C16.34730773 26.24495695 17.38245308 28.42725386 18.41796875 30.609375 C19.09122192 32.03781738 19.09122192 32.03781738 19.77807617 33.49511719 C20.22256104 34.42485352 20.6670459 35.35458984 21.125 36.3125 C21.67909546 37.91847046 21.67909546 37.91847046 22.24438477 39.55688477 C24.31667233 42.59335234 24.64088152 42.77200492 28.02636719 43.49682617 C29.65457644 43.72700826 31.28706896 43.92810364 32.921875 44.10546875 C33.78887024 44.22304031 34.65586548 44.34061188 35.5491333 44.46174622 C38.32176366 44.83370305 41.09724792 45.16866211 43.875 45.5 C46.63727283 45.84793643 49.39816568 46.20375905 52.15802002 46.57038879 C53.87386086 46.79639283 55.59128093 47.01081406 57.3102417 47.2117157 C68.43934694 48.62684694 68.43934694 48.62684694 72.125 52.3125 C72.69950195 55.7421846 72.90566606 58.21405659 70.82635498 61.13977051 C68.90196283 63.12940872 66.8991755 64.98282845 64.8359375 66.828125 C63.32213061 68.25828301 61.80913437 69.68929948 60.296875 71.12109375 C57.90051227 73.34986835 55.49507087 75.56697985 53.07324219 77.76806641 C50.73624744 79.90530579 48.44162481 82.08158025 46.1484375 84.265625 C45.41628021 84.9087262 44.68412292 85.55182739 43.92977905 86.2144165 C41.88480078 88.18643886 40.40738729 89.77367115 39.125 92.3125 C39.08414193 96.20801286 40.00642796 99.60300957 41.125 103.3125 C41.34615479 104.43479004 41.56730957 105.55708008 41.79516602 106.71337891 C41.98780029 107.64585449 42.18043457 108.57833008 42.37890625 109.5390625 C42.59353516 110.5909375 42.80816406 111.6428125 43.02929688 112.7265625 C43.4697936 114.87545454 43.91251935 117.0238908 44.35742188 119.171875 C47.80409375 136.12408593 47.80409375 136.12408593 45.625 139.9375 C42.08692426 141.88344166 40.02732492 141.14920641 36.125 140.3125 C33.10229492 138.82543945 33.10229492 138.82543945 30.10546875 136.92578125 C28.44741211 135.8884082 28.44741211 135.8884082 26.75585938 134.83007812 C25.6078215 134.09544483 24.46003609 133.36041686 23.3125 132.625 C22.17714763 131.90837064 21.041084 131.19286684 19.90429688 130.47851562 C18.79505859 129.78048828 17.68582031 129.08246094 16.54296875 128.36328125 C15.45806152 127.68217285 14.3731543 127.00106445 13.25537109 126.29931641 C11.23747833 125.01857929 9.23377269 123.71507059 7.24853516 122.38427734 C6.37890137 121.81789551 5.50926758 121.25151367 4.61328125 120.66796875 C3.48660034 119.91036255 3.48660034 119.91036255 2.3371582 119.13745117 C0.08826196 118.04991888 0.08826196 118.04991888 -2.43212891 119.04052734 C-5.47127828 120.61996727 -5.47127828 120.61996727 -8.44921875 122.30859375 C-9.10817139 122.69740723 -9.76712402 123.0862207 -10.44604492 123.48681641 C-11.1444751 123.90366699 -11.84290527 124.32051758 -12.5625 124.75 C-13.29637939 125.18231934 -14.03025879 125.61463867 -14.78637695 126.06005859 C-18.82571009 128.45091983 -22.82114073 130.89797087 -26.78125 133.41796875 C-27.58087158 133.92207275 -28.38049316 134.42617676 -29.2043457 134.94555664 C-30.74675543 135.92139946 -32.28213243 136.908471 -33.80932617 137.90795898 C-37.8725101 140.47103302 -40.91299619 142.34413183 -45.875 141.3125 C-47.72855877 139.34492191 -48.79461344 138.05868293 -49.08764648 135.33862305 C-48.39321643 129.85912641 -47.28880528 124.52119886 -46.03515625 119.14453125 C-45.78274673 118.05058548 -45.78274673 118.05058548 -45.52523804 116.93453979 C-44.09541852 110.7539456 -44.09541852 110.7539456 -43.3581543 107.81762695 C-40.91776235 99.41510809 -40.91776235 99.41510809 -41.7109375 91.02099609 C-43.27856524 89.14513301 -44.93509763 87.79854916 -46.875 86.3125 C-48.3040873 84.86888705 -49.71723001 83.40937903 -51.1171875 81.9375 C-52.65884308 80.39321809 -54.20316201 78.85159089 -55.75 77.3125 C-56.51441406 76.54421875 -57.27882812 75.7759375 -58.06640625 74.984375 C-62.31752057 70.74047819 -66.64525568 66.67878212 -71.25048828 62.8203125 C-73.52803063 60.70638079 -74.77416589 58.96792171 -75.25 55.875 C-74.74292759 52.41000523 -73.58749753 51.48815773 -70.875 49.3125 C-67.84155273 48.52294922 -67.84155273 48.52294922 -64.30859375 48.1171875 C-63.01759766 47.95863281 -61.72660156 47.80007812 -60.39648438 47.63671875 C-59.03523679 47.48624875 -57.67390784 47.33651304 -56.3125 47.1875 C-53.6646579 46.87810803 -51.01797707 46.55976101 -48.37109375 46.2421875 C-47.09862793 46.09233398 -45.82616211 45.94248047 -44.51513672 45.78808594 C-40.34970311 45.24386966 -36.24582721 44.51559754 -32.12915039 43.68408203 C-29.875 43.3125 -29.875 43.3125 -25.875 43.3125 C-25.62282715 42.48580811 -25.3706543 41.65911621 -25.11083984 40.80737305 C-23.70766065 36.83927541 -21.96993163 33.15998007 -20.1015625 29.39453125 C-19.73654633 28.65547043 -19.37153015 27.91640961 -18.99545288 27.154953 C-18.22602504 25.60165632 -17.45438912 24.04945165 -16.68066406 22.49829102 C-15.50089025 20.12678951 -14.33626047 17.74822754 -13.171875 15.36914062 C-12.42019081 13.85631337 -11.66761683 12.34392784 -10.9140625 10.83203125 C-10.39666 9.76792778 -10.39666 9.76792778 -9.86880493 8.68232727 C-7.43010392 3.84935562 -5.59450315 0.60809817 0 0 Z " fill="#FEFAFA" transform="translate(256.875,165.6875)"></path><path d="M0 0 C0.66 0 1.32 0 2 0 C2.6501709 1.3929126 2.6501709 1.3929126 3.31347656 2.81396484 C4.92610431 6.26022346 6.55502628 9.69856628 8.18896484 13.13476562 C8.89362745 14.62256685 9.59386339 16.11247311 10.28955078 17.60449219 C11.29081077 19.74984526 12.30779084 21.88710305 13.328125 24.0234375 C13.63558655 24.69120209 13.9430481 25.35896667 14.25982666 26.04696655 C15.48730844 28.58569885 16.52572785 30.63518524 18.78564453 32.37353516 C21.87660962 33.24800224 24.90942434 33.63569535 28.1015625 34 C29.49218955 34.16664957 30.88281449 34.33331676 32.2734375 34.5 C34.45677054 34.75234007 36.64041678 35.00175253 38.82421875 35.25 C40.93840086 35.49292218 43.05117769 35.74607974 45.1640625 36 C46.42686035 36.144375 47.6896582 36.28875 48.99072266 36.4375 C52 37 52 37 54 39 C51.2465312 41.77834378 48.48966963 44.55327272 45.72973633 47.32519531 C44.33432717 48.72805627 42.94155582 50.13353942 41.54882812 51.5390625 C40.66259766 52.42851562 39.77636719 53.31796875 38.86328125 54.234375 C38.05157471 55.05131836 37.23986816 55.86826172 36.40356445 56.70996094 C34 59 34 59 31.25854492 61.17285156 C28.9267948 62.80133159 28.9267948 62.80133159 28 65 C27.93338083 73.32739627 29.56836232 81.24794867 31.62768555 89.26196289 C32.49574541 92.66216253 33 95.46088098 33 99 C29.58583156 97.72344032 26.59773796 96.2512571 23.53125 94.28515625 C22.30341797 93.50301758 22.30341797 93.50301758 21.05078125 92.70507812 C20.20902344 92.16302734 19.36726563 91.62097656 18.5 91.0625 C16.03225599 89.48473105 13.56400939 87.90801457 11.08984375 86.34033203 C9.46618202 85.29898823 7.86808291 84.21774121 6.28125 83.12109375 C3.28753444 81.6498671 1.31953178 81.7352085 -2 82 C-4.7657308 83.19550123 -4.7657308 83.19550123 -7.40625 84.95703125 C-8.39753906 85.57513672 -9.38882813 86.19324219 -10.41015625 86.83007812 C-11.42980469 87.48427734 -12.44945312 88.13847656 -13.5 88.8125 C-15.52999688 90.09183432 -17.56121145 91.36923886 -19.59375 92.64453125 C-20.93469727 93.50075073 -20.93469727 93.50075073 -22.30273438 94.37426758 C-25.1337637 96.08062387 -28.02649124 97.55878633 -31 99 C-30.50652291 92.21469 -29.10217919 85.85432958 -27.37207031 79.29321289 C-26.13215158 74.3784708 -25.41941321 70.06836572 -26 65 C-28.23588506 62.48404526 -28.23588506 62.48404526 -31 60 C-38 53 -45 46 -52 39 C-48.5378736 36.94441228 -45.4184833 36.53419352 -41.44140625 36.10546875 C-39.53198242 35.87827148 -39.53198242 35.87827148 -37.58398438 35.64648438 C-35.57267746 35.4136272 -33.56132505 35.18737685 -31.54760742 34.97631836 C-29.59336696 34.76800317 -27.6422766 34.5307835 -25.69140625 34.29296875 C-24.52810791 34.1643042 -23.36480957 34.03563965 -22.16625977 33.90307617 C-17.00781425 32.43179157 -14.8101147 29.37203904 -12.1472168 24.86206055 C-11.58687744 23.71519775 -11.02653809 22.56833496 -10.44921875 21.38671875 C-9.99371391 20.46509697 -9.99371391 20.46509697 -9.52900696 19.52485657 C-8.57224663 17.58360619 -7.6297178 15.63584338 -6.6875 13.6875 C-6.03674017 12.36087011 -5.38505591 11.03469326 -4.73242188 9.70898438 C-3.14423284 6.4778216 -1.56872072 3.24066765 0 0 Z " fill="#DF2F36" transform="translate(255,188)"></path><path d="M0 0 C46.86 0 93.72 0 142 0 C142 4.29 142 8.58 142 13 C95.14 13 48.28 13 0 13 C0 8.71 0 4.42 0 0 Z " fill="#FDF6F6" transform="translate(217,333)"></path><path d="M0 0 C29.37 0 58.74 0 89 0 C89 4.29 89 8.58 89 13 C59.63 13 30.26 13 0 13 C0 8.71 0 4.42 0 0 Z " fill="#FDF8F8" transform="translate(218,365)"></path><path d="M0 0 C12.87 0 25.74 0 39 0 C39 4.29 39 8.58 39 13 C26.13 13 13.26 13 0 13 C0 8.71 0 4.42 0 0 Z " fill="#FCF4F5" transform="translate(153,333)"></path><path d="M0 0 C12.54 0 25.08 0 38 0 C38 4.29 38 8.58 38 13 C25.46 13 12.92 13 0 13 C0 8.71 0 4.42 0 0 Z " fill="#FDF8F8" transform="translate(154,365)"></path></svg>