<svg version="1.1" xmlns="http://www.w3.org/2000/svg" width="16px" height="16px" fill="currentColor" viewBox="0 0 512 512"><path d="M0 0 C168.96 0 337.92 0 512 0 C512 168.96 512 337.92 512 512 C343.04 512 174.08 512 0 512 C0 343.04 0 174.08 0 0 Z " fill="#DE2D34" transform="translate(0,0)"></path><path d="M0 0 C2.97265625 1.6105957 2.97265625 1.6105957 6.0625 3.67578125 C6.89406616 4.22542793 6.89406616 4.22542793 7.74243164 4.78617859 C9.50152099 5.95208916 11.2507346 7.13191489 13 8.3125 C14.17385202 9.09404173 15.34832639 9.87464956 16.5234375 10.65429688 C19.68978124 12.75844106 22.84512261 14.87869734 26 17 C27.1029541 17.63671631 28.2059082 18.27343262 29.34228516 18.92944336 C32 21 32 21 32.68115234 23.47363281 C32.64973145 24.37436523 32.61831055 25.27509766 32.5859375 26.203125 C32.56660156 27.1828125 32.54726562 28.1625 32.52734375 29.171875 C32.47707031 30.18765625 32.42679688 31.2034375 32.375 32.25 C32.33439453 33.796875 32.33439453 33.796875 32.29296875 35.375 C32.22234205 37.91756132 32.11472532 40.45904658 32 43 C25.73 43 19.46 43 13 43 C13 47.29 13 51.58 13 56 C14.4540625 55.84917969 15.908125 55.69835937 17.40625 55.54296875 C36.34163545 54.21868267 48.54346199 60.69564133 64 71 C64.36076355 72.83499146 64.36076355 72.83499146 64.34057617 75.08251953 C64.34034958 75.92324005 64.34012299 76.76396057 64.33988953 77.63015747 C64.32440567 78.53853363 64.30892181 79.44690979 64.29296875 80.3828125 C64.28872391 81.31221649 64.28447906 82.24162048 64.28010559 83.19918823 C64.26328012 86.17475056 64.22562103 89.14964156 64.1875 92.125 C64.17245816 94.13931315 64.15876888 96.15363689 64.14648438 98.16796875 C64.11336394 103.11223879 64.06155529 108.05600549 64 113 C61.42138975 114.03444249 58.83825365 115.05272284 56.25 116.0625 C55.52039063 116.35705078 54.79078125 116.65160156 54.0390625 116.95507812 C53.33007812 117.22900391 52.62109375 117.50292969 51.890625 117.78515625 C51.24125977 118.04176025 50.59189453 118.29836426 49.92285156 118.56274414 C47.56176747 119.09965394 46.26380818 118.82797345 44 118 C41.73718034 116.38575923 39.589524 114.75002333 37.4375 113 C36.82342285 112.51176758 36.2093457 112.02353516 35.57666016 111.52050781 C32.59791043 109.14275421 29.6613534 106.72621703 26.77734375 104.234375 C25.81957031 103.41453125 24.86179688 102.5946875 23.875 101.75 C23.02679688 101.00234375 22.17859375 100.2546875 21.3046875 99.484375 C19.16240933 97.80779121 19.16240933 97.80779121 16.8984375 98.01171875 C14.4340406 99.29462495 13.33530429 100.79263249 11.75 103.0625 C11.22921875 103.79597656 10.7084375 104.52945313 10.171875 105.28515625 C9.78515625 105.85105469 9.3984375 106.41695313 9 107 C9.88051025 107.40968018 9.88051025 107.40968018 10.77880859 107.82763672 C12.9433128 108.97008003 14.65517261 110.20353856 16.5390625 111.7578125 C17.20292969 112.30179687 17.86679688 112.84578125 18.55078125 113.40625 C19.23527344 113.9734375 19.91976562 114.540625 20.625 115.125 C21.97098315 116.23222201 23.31734296 117.33898628 24.6640625 118.4453125 C25.35121338 119.02531006 26.03836426 119.60530762 26.74633789 120.20288086 C29.01792398 122.07051275 29.01792398 122.07051275 31.68920898 123.76782227 C35.52755944 126.40421282 38.39665685 128.42862629 40.09863281 132.86132812 C40.67800784 136.20491282 40.84759355 139.29463601 40.8125 142.6875 C40.80476562 143.84781738 40.79703125 145.00813477 40.7890625 146.20361328 C40.38852431 152.04014416 39.70153133 156.11745138 35.29296875 160.16796875 C31.30745346 163.08619948 27.00904018 165.35552237 22.609375 167.58349609 C18.41598714 169.85988423 14.74692988 172.75111973 11 175.6875 C1.40288392 183.01591007 1.40288392 183.01591007 -2.06640625 182.87890625 C-6.96477343 182.00387565 -11.40854437 179.93093234 -15.9375 177.9375 C-18.928125 176.638125 -21.91875 175.33875 -25 174 C-25 167.07 -25 160.14 -25 153 C-14.44 153 -3.88 153 7 153 C7 148.38 7 143.76 7 139 C-3.56 139 -14.12 139 -25 139 C-24.95166016 133.38291016 -24.95166016 133.38291016 -24.90234375 127.65234375 C-24.9017613 124.01492015 -24.91657137 120.37786107 -24.93286133 116.74047852 C-24.93593853 114.21766033 -24.92307681 111.69476931 -24.89379883 109.17211914 C-24.85442684 105.53915888 -24.87287622 101.91031888 -24.90234375 98.27734375 C-24.87776596 97.15416245 -24.85318817 96.03098114 -24.8278656 94.87376404 C-24.90621168 88.80118071 -24.90621168 88.80118071 -27.96514893 83.76248169 C-30.236223 81.97828868 -32.51356302 80.4640592 -35 79 C-36.04929687 78.2575 -37.09859375 77.515 -38.1796875 76.75 C-39.06914062 76.1725 -39.95859375 75.595 -40.875 75 C-41.77992188 74.401875 -42.68484375 73.80375 -43.6171875 73.1875 C-46.05076357 71.62459996 -46.05076357 71.62459996 -49 73 C-50.45644757 75.08812458 -50.45644757 75.08812458 -51.6875 77.5625 C-52.12449219 78.38878906 -52.56148438 79.21507812 -53.01171875 80.06640625 C-53.33785156 80.70449219 -53.66398437 81.34257812 -54 82 C-53.29488281 82.26167969 -52.58976562 82.52335937 -51.86328125 82.79296875 C-46.51456999 85.04774608 -41.95767371 87.70366629 -38 92 C-36.08582813 96.76678515 -36.19141716 100.2067007 -38 105 C-41.32630002 109.30984128 -45.77719247 112.46514797 -50.14892578 115.640625 C-52.77419894 117.56854916 -55.25401343 119.65867122 -57.75 121.75 C-62.80988535 125.86256655 -67.89873686 129.93890765 -73 134 C-71.38617243 137.40212299 -69.41396234 140.10324519 -67 143 C-62.96194134 141.63733356 -60.45631882 139.8590849 -57.375 136.9375 C-53.68150348 133.52087729 -49.93873523 130.208804 -46.0625 127 C-45.16660156 126.2575 -44.27070313 125.515 -43.34765625 124.75 C-41 123 -41 123 -38 122 C-38 139.16 -38 156.32 -38 174 C-55 183 -55 183 -59 182 C-60.94433594 180.88354492 -60.94433594 180.88354492 -62.984375 179.48046875 C-63.74758057 178.95807617 -64.51078613 178.43568359 -65.29711914 177.89746094 C-66.10656982 177.33317383 -66.91602051 176.76888672 -67.75 176.1875 C-68.5845874 175.61161133 -69.4191748 175.03572266 -70.27905273 174.44238281 C-77.31014479 169.55732956 -84.1679361 164.4595874 -90.97265625 159.265625 C-93.73469747 157.0585392 -93.73469747 157.0585392 -96 156 C-95.98839844 155.05680908 -95.97679688 154.11361816 -95.96484375 153.1418457 C-95.94061396 149.62744451 -95.95220897 146.11689277 -95.98779297 142.6027832 C-95.99588323 141.08488852 -95.98986602 139.56684835 -95.96923828 138.04907227 C-95.58407657 129.70302262 -95.58407657 129.70302262 -98.28515625 122.11083984 C-100.45460439 120.65480638 -102.5332191 119.88237165 -105 119 C-106.36759263 118.40077691 -107.73050739 117.79081939 -109.08984375 117.1730957 C-113.0355435 115.38749966 -117.00860975 113.68084031 -121 112 C-121.42343296 106.07845295 -121.72994056 100.16583848 -121.93383789 94.23266602 C-122.01884648 92.22068846 -122.13452646 90.20974683 -122.2824707 88.20141602 C-123.43931766 72.08161427 -123.43931766 72.08161427 -119.37322998 66.94488525 C-114.22967311 62.31209781 -107.80362083 57.84901144 -100.69116211 58.13134766 C-98.34406746 58.88894203 -96.28634609 59.65754558 -94.1328125 60.84765625 C-93.47539063 61.20537109 -92.81796875 61.56308594 -92.140625 61.93164062 C-91.14289063 62.49141602 -91.14289063 62.49141602 -90.125 63.0625 C-89.43664062 63.43955078 -88.74828125 63.81660156 -88.0390625 64.20507812 C-86.3550787 65.12893035 -84.67692533 66.06339667 -83 67 C-81.32291303 82.85609501 -81.32291303 82.85609501 -85.2734375 87.90625 C-89.66755331 91.06341632 -93.97347234 92.98938894 -99 95 C-97.02 98.3 -95.04 101.6 -93 105 C-88.22549033 103.09019613 -84.5329234 100.89931224 -80.3125 98.0625 C-79.63638672 97.61970703 -78.96027344 97.17691406 -78.26367188 96.72070312 C-77.61591797 96.28822266 -76.96816406 95.85574219 -76.30078125 95.41015625 C-75.71466064 95.01965088 -75.12854004 94.62914551 -74.5246582 94.22680664 C-72.71273836 92.89466039 -72.71273836 92.89466039 -71 90 C-70.81085812 87.51270138 -70.81085812 87.51270138 -70.97265625 84.73828125 C-71.27522374 67.78921698 -71.27522374 67.78921698 -67.703125 62.77734375 C-64.87424023 60.79330159 -62.1740358 59.35084138 -59 58 C-57.77248237 57.23841873 -56.5588522 56.45282819 -55.375 55.625 C-54.59125 55.08875 -53.8075 54.5525 -53 54 C-51.60439955 51.20879909 -51.78191712 48.79794308 -51.68359375 45.6796875 C-51.64169922 44.42285156 -51.59980469 43.16601562 -51.55664062 41.87109375 C-51.51732422 40.55238281 -51.47800781 39.23367188 -51.4375 37.875 C-51.39430488 36.53514249 -51.35069027 35.19529844 -51.30664062 33.85546875 C-51.2002909 30.5704438 -51.09961683 27.28523602 -51 24 C-55.29 24 -59.58 24 -64 24 C-63.86078125 25.5675 -63.7215625 27.135 -63.578125 28.75 C-62.59114745 44.57228435 -62.59114745 44.57228435 -65.09716797 48.890625 C-68.15902111 52.07110491 -71.79074242 53.85922254 -76 55 C-80.75375254 54.82250599 -84.735966 52.19551244 -88.8125 49.9375 C-91.184375 48.638125 -93.55625 47.33875 -96 46 C-96 37.75 -96 29.5 -96 21 C-92.679375 19.205625 -89.35875 17.41125 -85.9375 15.5625 C-78.34785772 11.4604469 -70.84618944 7.2841412 -63.65795898 2.50415039 C-59.64068723 -0.04596438 -59.64068723 -0.04596438 -56.83227539 0.15551758 C-52.8720715 1.33630762 -49.34963791 3.16761363 -45.6875 5.0625 C-44.94693359 5.43955078 -44.20636719 5.81660156 -43.44335938 6.20507812 C-41.62612478 7.13128157 -39.81267596 8.06490629 -38 9 C-37.99453156 9.92628204 -37.99453156 9.92628204 -37.98895264 10.87127686 C-37.9471597 17.29542753 -37.8778367 23.71886161 -37.79248047 30.14257812 C-37.76424535 32.5402917 -37.74304354 34.93809879 -37.72900391 37.3359375 C-37.70761028 40.78173797 -37.6609762 44.22641095 -37.609375 47.671875 C-37.60814636 48.74491882 -37.60691772 49.81796265 -37.60565186 50.92352295 C-37.58593323 51.92425842 -37.5662146 52.9249939 -37.54589844 53.95605469 C-37.53701599 54.83541687 -37.52813354 55.71477905 -37.51898193 56.62078857 C-36.56381566 60.99963562 -32.95258183 63.20424045 -29.36474609 65.54956055 C-28.67077728 66.00650803 -27.97680847 66.46345551 -27.2618103 66.93424988 C-26.52314728 67.41356461 -25.78448425 67.89287933 -25.0234375 68.38671875 C-23.87374985 69.1404351 -23.87374985 69.1404351 -22.70083618 69.90937805 C-20.26180693 71.50659632 -17.81840095 73.09697975 -15.375 74.6875 C-13.72368545 75.76846346 -12.07264074 76.84983925 -10.421875 77.93164062 C-8.85180195 78.95869947 -7.28149743 79.98540458 -5.7109375 81.01171875 C-4.96822601 81.49710617 -4.22551453 81.98249359 -3.46029663 82.48258972 C-2.77263214 82.93008072 -2.08496765 83.37757172 -1.37646484 83.83862305 C-0.77119965 84.23293015 -0.16593445 84.62723724 0.45767212 85.03349304 C2.04446473 86.0622293 2.04446473 86.0622293 4 87 C4.37125 85.948125 4.37125 85.948125 4.75 84.875 C6.16088026 81.62997541 7.97895398 78.89683263 10 76 C9.32042236 75.7316333 8.64084473 75.4632666 7.94067383 75.18676758 C-18.77350963 64.405726 -18.77350963 64.405726 -25 54 C-29.58358659 40.08854079 -26.778383 23.24530379 -25 9 C-21.97276995 7.28558559 -18.92633576 5.60857611 -15.875 3.9375 C-15.0190625 3.45216797 -14.163125 2.96683594 -13.28125 2.46679688 C-5.15717057 -1.93895389 -5.15717057 -1.93895389 0 0 Z " fill="#D4232C" transform="translate(211,238)"></path><path d="M0 0 C3.01235384 1.38776499 5.69425967 3.14418369 8.4375 5 C9.23792725 5.52384277 10.03835449 6.04768555 10.86303711 6.58740234 C13.58593604 8.37607732 16.29228659 10.18843046 19 12 C21.16850212 13.43085319 23.33780156 14.8604986 25.5078125 16.2890625 C29.75179438 19.09304905 33.99364591 21.9000354 38.22265625 24.7265625 C39.09672119 25.31002441 39.97078613 25.89348633 40.87133789 26.49462891 C43 28 43 28 45 30 C45.17488254 32.43744897 45.23177405 34.7593608 45.1953125 37.1953125 C45.1924826 37.90275604 45.18965271 38.61019958 45.18673706 39.33908081 C45.17553137 41.6012251 45.15042679 43.86297515 45.125 46.125 C45.11497067 47.65754637 45.10584474 49.19009894 45.09765625 50.72265625 C45.07559086 54.48192301 45.04105896 58.24089464 45 62 C45.8763208 62.26949463 46.7526416 62.53898926 47.65551758 62.81665039 C50.84456906 63.9450052 53.57055786 65.2744707 56.51171875 66.93359375 C57.51654297 67.50013672 58.52136719 68.06667969 59.55664062 68.65039062 C60.58982422 69.24013672 61.62300781 69.82988281 62.6875 70.4375 C63.73228516 71.02337891 64.77707031 71.60925781 65.85351562 72.21289062 C74.88018256 77.33362055 74.88018256 77.33362055 77 80 C77.38768005 82.38389587 77.38768005 82.38389587 77.40405273 85.23413086 C77.42307899 86.83610573 77.42307899 86.83610573 77.44248962 88.47044373 C77.43955399 89.62359573 77.43661835 90.77674774 77.43359375 91.96484375 C77.4388356 93.14969864 77.44407745 94.33455353 77.44947815 95.55531311 C77.45590606 98.06282772 77.45455148 100.57037244 77.44604492 103.07788086 C77.43754095 106.91900252 77.46627886 110.75863496 77.49804688 114.59960938 C77.49965904 117.03385372 77.49908106 119.4681007 77.49609375 121.90234375 C77.50732773 123.05347153 77.51856171 124.2045993 77.53013611 125.39060974 C77.52075516 126.46174515 77.51137421 127.53288055 77.50170898 128.63647461 C77.50154282 129.57784775 77.50137665 130.51922089 77.50120544 131.48912048 C76.8507726 134.7475817 75.52883748 135.91552477 73 138 C70.74169922 139.18847656 70.74169922 139.18847656 68.3046875 140.140625 C66.98404297 140.66269531 66.98404297 140.66269531 65.63671875 141.1953125 C64.26966797 141.71738281 64.26966797 141.71738281 62.875 142.25 C61.95589844 142.61351562 61.03679687 142.97703125 60.08984375 143.3515625 C53.30944549 146 53.30944549 146 51 146 C51.03665771 146.90766113 51.07331543 147.81532227 51.11108398 148.75048828 C51.23084891 152.13899114 51.31834377 155.52522765 51.38452148 158.91503906 C51.41959166 160.37796645 51.4672653 161.84065076 51.52807617 163.30273438 C52.01633319 175.34914273 52.01633319 175.34914273 49.68530273 179.13549805 C47.8805277 180.71489979 46.09570309 181.83939614 44 183 C42.73566191 183.90715724 41.47920006 184.82538314 40.23046875 185.75390625 C38.88513125 186.69343322 37.53737553 187.62950484 36.1875 188.5625 C34.69465218 189.60452338 33.20248884 190.64752793 31.7109375 191.69140625 C30.94233398 192.22910645 30.17373047 192.76680664 29.38183594 193.32080078 C24.57453666 196.70995663 19.82139014 200.17468362 15.06518555 203.63500977 C13.67562181 204.64336716 12.28249358 205.64683726 10.88525391 206.64453125 C9.19044185 207.86307522 7.52115786 209.11693915 5.85546875 210.375 C2.45999977 212.30730519 0.86290648 212.30524409 -3 212 C-6.08032227 210.97436523 -6.08032227 210.97436523 -9.31640625 209.55859375 C-11.08081055 208.80739258 -11.08081055 208.80739258 -12.88085938 208.04101562 C-14.7278264 207.23919525 -16.5727916 206.43298633 -18.41674805 205.62426758 C-20.21190219 204.84143453 -22.01409254 204.07479952 -23.81640625 203.30859375 C-24.88318604 202.84251709 -25.94996582 202.37644043 -27.04907227 201.89624023 C-31.14612642 200.65190452 -33.47300068 201.30236133 -37.29248047 203.04736328 C-38.44321045 203.67747314 -38.44321045 203.67747314 -39.6171875 204.3203125 C-40.47183594 204.77277344 -41.32648438 205.22523438 -42.20703125 205.69140625 C-43.98289678 206.64564146 -45.75379476 207.60918086 -47.51953125 208.58203125 C-51.3940835 210.61544288 -54.19995429 211.9636736 -58.61328125 212.1640625 C-63.17097238 210.59752045 -66.51439152 208.17020223 -70.3125 205.25 C-71.90071494 204.06466627 -73.48926668 202.8797837 -75.078125 201.6953125 C-76.29338867 200.77927246 -76.29338867 200.77927246 -77.53320312 199.84472656 C-80.73608318 197.44954033 -83.98317225 195.11942297 -87.23510742 192.79150391 C-106.1848197 179.22277046 -106.1848197 179.22277046 -109 175 C-109.31884766 171.99731445 -109.31884766 171.99731445 -109.4140625 168.36328125 C-109.45273438 167.06455078 -109.49140625 165.76582031 -109.53125 164.42773438 C-109.56270517 163.05599427 -109.59395251 161.68424939 -109.625 160.3125 C-109.66319197 158.92901215 -109.70224442 157.54554777 -109.7421875 156.16210938 C-109.83660517 152.7748755 -109.92218118 149.38764931 -110 146 C-110.58491211 145.74831055 -111.16982422 145.49662109 -111.77246094 145.23730469 C-114.43598566 144.08462501 -117.09293861 142.91749667 -119.75 141.75 C-120.67039062 141.35425781 -121.59078125 140.95851563 -122.5390625 140.55078125 C-123.87324219 139.96103516 -123.87324219 139.96103516 -125.234375 139.359375 C-126.05131836 139.00327148 -126.86826172 138.64716797 -127.70996094 138.28027344 C-130.37790255 136.78872911 -132.03534984 135.34894618 -134 133 C-134.5146637 130.45788574 -134.5146637 130.45788574 -134.53344727 127.56054688 C-134.5492836 126.47261841 -134.56511993 125.38468994 -134.58143616 124.26379395 C-134.57647629 123.09392944 -134.57151642 121.92406494 -134.56640625 120.71875 C-134.57570412 118.91029602 -134.57570412 118.91029602 -134.58518982 117.06530762 C-134.59229268 114.51669116 -134.58910598 111.96802835 -134.57641602 109.41943359 C-134.56255125 105.51443352 -134.59661842 101.61182885 -134.63476562 97.70703125 C-134.63571679 95.23177025 -134.63385817 92.75650623 -134.62890625 90.28125 C-134.64216446 89.1113855 -134.65542267 87.941521 -134.66908264 86.73620605 C-134.57624631 78.67760967 -134.57624631 78.67760967 -131.7487793 75.3527832 C-129.31120923 74.15315839 -126.93563834 73.02255582 -124.390625 72.07421875 C-118.74410443 69.58355429 -113.63895434 67.1471664 -110 62 C-108.30161553 55.33796189 -108.46544467 48.68255192 -108.82910156 41.85620117 C-108.86137848 41.18279694 -108.8936554 40.5093927 -108.9269104 39.81558228 C-109.03329511 37.94885632 -109.19407186 36.08546328 -109.35791016 34.22290039 C-109 31 -109 31 -106.85986328 28.28564453 C-104.05940993 26.04748128 -101.35466188 24.28491066 -98.203125 22.58203125 C-97.08711914 21.97166016 -95.97111328 21.36128906 -94.82128906 20.73242188 C-93.63105822 20.09207818 -92.44062469 19.4521111 -91.25 18.8125 C-88.81024362 17.48980152 -86.37339248 16.16183011 -83.9375 14.83203125 C-83.33810608 14.50566681 -82.73871216 14.17930237 -82.12115479 13.8430481 C-78.58333316 11.90551339 -75.11410657 9.88929341 -71.6875 7.76171875 C-70.92405273 7.28951904 -70.16060547 6.81731934 -69.37402344 6.33081055 C-68.00275416 5.47163942 -66.64055946 4.59772977 -65.29003906 3.70629883 C-62.29484462 1.84126879 -60.23198007 1.00491831 -56.68359375 0.9296875 C-50.74398459 2.65551243 -45.53938522 5.64983222 -40.11914062 8.58203125 C-39.26126953 9.03191406 -38.40339844 9.48179687 -37.51953125 9.9453125 C-36.74714111 10.36312988 -35.97475098 10.78094727 -35.17895508 11.21142578 C-32.54540006 12.16452188 -31.58746798 12.00177138 -29 11 C-27.32816989 10.20511622 -25.67717253 9.36571099 -24.04296875 8.49609375 C-22.62081055 7.75649414 -22.62081055 7.75649414 -21.16992188 7.00195312 C-19.18920805 5.96295393 -17.2125821 4.91612243 -15.24023438 3.86132812 C-5.62953363 -1.10344145 -5.62953363 -1.10344145 0 0 Z M-10.546875 16.1875 C-11.39121094 16.63867188 -12.23554688 17.08984375 -13.10546875 17.5546875 C-13.97816406 18.03164062 -14.85085937 18.50859375 -15.75 19 C-16.63816406 19.47695312 -17.52632813 19.95390625 -18.44140625 20.4453125 C-20.63169365 21.62288637 -22.81755976 22.80796408 -25 24 C-29.19322784 48.30542034 -29.19322784 48.30542034 -23.55401611 71.26165771 C-15.50630939 80.53584108 -3.24395625 86.49247008 8 91 C8.66 91 9.32 91 10 91 C9.566875 91.62648438 9.13375 92.25296875 8.6875 92.8984375 C8.130625 93.71570313 7.57375 94.53296875 7 95.375 C6.443125 96.18710937 5.88625 96.99921875 5.3125 97.8359375 C3.82714156 99.86318187 3.82714156 99.86318187 4 102 C-5.77104216 96.02242127 -15.38926477 89.82755517 -24.9375 83.5 C-26.01 82.79359375 -27.0825 82.0871875 -28.1875 81.359375 C-29.18652344 80.69421875 -30.18554688 80.0290625 -31.21484375 79.34375 C-32.11323975 78.74755859 -33.01163574 78.15136719 -33.93725586 77.53710938 C-36 76 -36 76 -37 74 C-37.11856636 72.3972902 -37.17706124 70.78994647 -37.20532227 69.18310547 C-37.2352401 67.68177567 -37.2352401 67.68177567 -37.26576233 66.15011597 C-37.28247482 65.06674957 -37.29918732 63.98338318 -37.31640625 62.8671875 C-37.33718735 61.76021515 -37.35796844 60.6532428 -37.37937927 59.51272583 C-37.44490991 55.96688201 -37.50377614 52.42096246 -37.5625 48.875 C-37.60568187 46.4752525 -37.64929605 44.07551273 -37.69335938 41.67578125 C-37.80059488 35.78393487 -37.90235472 29.89201269 -38 24 C-40.90670962 22.45955109 -43.82671338 20.94622078 -46.75 19.4375 C-47.9875 18.78104492 -47.9875 18.78104492 -49.25 18.11132812 C-50.04921875 17.70205078 -50.8484375 17.29277344 -51.671875 16.87109375 C-52.4050293 16.48880615 -53.13818359 16.10651855 -53.89355469 15.71264648 C-56.41370083 14.86003793 -57.53341788 15.08644082 -60 16 C-62.01795261 17.02071988 -64.00874513 18.09573718 -65.98046875 19.203125 C-66.55275711 19.52279236 -67.12504547 19.84245972 -67.7146759 20.17181396 C-69.54144414 21.19349858 -71.36450775 22.2215959 -73.1875 23.25 C-74.39363738 23.92621456 -75.60001547 24.60199995 -76.80664062 25.27734375 C-79.06036124 26.53933407 -81.31233655 27.80425003 -83.56323242 29.07128906 C-87.70161587 31.39374621 -91.8516632 33.69536845 -96 36 C-96 44.25 -96 52.5 -96 61 C-93.298125 62.505625 -90.59625 64.01125 -87.8125 65.5625 C-86.97050049 66.04146729 -86.12850098 66.52043457 -85.26098633 67.01391602 C-81.01177635 69.37565158 -81.01177635 69.37565158 -76.28125 69.91015625 C-75.5284375 69.60980469 -74.775625 69.30945313 -74 69 C-73.11699219 68.72929687 -72.23398438 68.45859375 -71.32421875 68.1796875 C-67.82941797 66.4504083 -66.20424053 65.2790702 -64 62 C-62.67878618 54.43980028 -63.4410888 46.60740243 -64 39 C-59.71 39 -55.42 39 -51 39 C-51.03296729 43.5644714 -51.10012855 48.12402217 -51.1875 52.6875 C-51.19620117 54.62786133 -51.19620117 54.62786133 -51.20507812 56.60742188 C-51.23408203 57.85458984 -51.26308594 59.10175781 -51.29296875 60.38671875 C-51.3086792 61.53358154 -51.32438965 62.68044434 -51.34057617 63.86206055 C-52.42967354 69.04464792 -55.93015108 71.23427057 -60.078125 74.203125 C-61.12484375 74.87859375 -62.1715625 75.5540625 -63.25 76.25 C-66.80009205 78.39827473 -66.80009205 78.39827473 -70 81 C-70.09695372 82.72186805 -70.13201648 84.447301 -70.140625 86.171875 C-70.15996094 87.22890625 -70.17929688 88.2859375 -70.19921875 89.375 C-70.23283513 91.60919647 -70.25128366 93.84367718 -70.25390625 96.078125 C-70.44134148 104.20689499 -70.44134148 104.20689499 -73.06640625 107.93359375 C-74.51853516 108.95646484 -74.51853516 108.95646484 -76 110 C-76.58861816 110.42974121 -77.17723633 110.85948242 -77.78369141 111.30224609 C-79.72095168 112.69136492 -81.69321002 114.00683003 -83.6875 115.3125 C-84.36361328 115.76689453 -85.03972656 116.22128906 -85.73632812 116.68945312 C-90.73948543 120 -90.73948543 120 -93 120 C-94.5078125 117.8125 -94.5078125 117.8125 -96.125 115 C-96.66382812 114.071875 -97.20265625 113.14375 -97.7578125 112.1875 C-98.37269531 111.1046875 -98.37269531 111.1046875 -99 110 C-97.94232422 109.5978125 -97.94232422 109.5978125 -96.86328125 109.1875 C-91.38233706 106.91436625 -86.72167049 104.75759939 -83 100 C-81.62438396 94.10988671 -82.37045194 87.95209074 -83 82 C-85.71651314 80.45570235 -88.44986276 78.94398394 -91.1875 77.4375 C-91.95642578 76.99986328 -92.72535156 76.56222656 -93.51757812 76.11132812 C-94.26845703 75.70205078 -95.01933594 75.29277344 -95.79296875 74.87109375 C-96.82200317 74.29766235 -96.82200317 74.29766235 -97.87182617 73.71264648 C-102.46337213 72.17510804 -106.91253642 74.53934446 -111.08032227 76.51638794 C-117.8075774 80.1016653 -117.8075774 80.1016653 -121.85009766 86.30432129 C-123.01437403 92.88727615 -122.45767228 99.49522838 -122 106.125 C-121.91964355 108.15076023 -121.84665665 110.17682699 -121.78125 112.203125 C-121.60582485 117.14304559 -121.33052884 122.06812828 -121 127 C-120.34402832 127.29245605 -119.68805664 127.58491211 -119.01220703 127.88623047 C-116.04766951 129.21110179 -113.08632111 130.54295593 -110.125 131.875 C-109.09246094 132.33519531 -108.05992188 132.79539062 -106.99609375 133.26953125 C-106.00996094 133.71425781 -105.02382812 134.15898437 -104.0078125 134.6171875 C-103.09660645 135.02565918 -102.18540039 135.43413086 -101.24658203 135.85498047 C-99 137 -99 137 -97 139 C-96.95092773 141.97412109 -96.95092773 141.97412109 -97.18359375 145.7734375 C-98.28398809 160.0743048 -98.28398809 160.0743048 -94.58300781 173.47509766 C-90.8702006 177.31826745 -86.29084357 179.50363969 -81.49169922 181.73095703 C-77.01685563 184.01003179 -73.12611456 187.11282398 -69.125 190.125 C-67.63010736 191.21438081 -66.13288715 192.30057842 -64.6328125 193.3828125 C-64.00262207 193.84059082 -63.37243164 194.29836914 -62.72314453 194.77001953 C-61.17073682 195.87812807 -59.58698718 196.94200855 -58 198 C-50.9715439 196.84426072 -50.9715439 196.84426072 -38 189 C-38 171.84 -38 154.68 -38 137 C-40.99343247 138.49671623 -42.74675582 139.46912697 -45.13671875 141.57421875 C-45.70994873 142.0741333 -46.28317871 142.57404785 -46.8737793 143.08911133 C-47.47230713 143.61657959 -48.07083496 144.14404785 -48.6875 144.6875 C-49.93640524 145.7694941 -51.18640546 146.85022561 -52.4375 147.9296875 C-53.04464844 148.45401367 -53.65179688 148.97833984 -54.27734375 149.51855469 C-56.55767395 151.47958696 -58.85322059 153.41589798 -61.1875 155.3125 C-62.19876953 156.14201172 -62.19876953 156.14201172 -63.23046875 156.98828125 C-63.81441406 157.32214844 -64.39835937 157.65601563 -65 158 C-69.06623972 156.64458676 -70.53046818 154.42990531 -73 151 C-71.76145489 147.28436466 -70.30982822 146.40541409 -67.25 144 C-66.25613281 143.20722656 -65.26226562 142.41445313 -64.23828125 141.59765625 C-63.70928223 141.17629395 -63.1802832 140.75493164 -62.63525391 140.32080078 C-59.29610284 137.6237558 -56.03801398 134.82720064 -52.79711914 132.01318359 C-50.24885004 129.81823467 -47.76499524 127.84423403 -44.953125 125.98046875 C-40.98694993 123.31954621 -38.49547631 121.53675074 -37 116.8984375 C-36.65355821 113.13088308 -36.78410995 110.58955777 -38 107 C-42.44094391 102.11646201 -47.86964532 99.27506764 -54 97 C-53.24088921 95.51478323 -52.46728766 94.03696575 -51.6875 92.5625 C-51.04361328 91.32693359 -51.04361328 91.32693359 -50.38671875 90.06640625 C-49 88 -49 88 -46 87 C-44.03881836 87.95629883 -44.03881836 87.95629883 -41.83984375 89.45703125 C-41.04642578 89.99263672 -40.25300781 90.52824219 -39.43554688 91.08007812 C-38.61119141 91.65177734 -37.78683594 92.22347656 -36.9375 92.8125 C-36.10927734 93.37259766 -35.28105469 93.93269531 -34.42773438 94.50976562 C-28.35327647 98.64672353 -28.35327647 98.64672353 -26 101 C-25.7215271 103.25259399 -25.7215271 103.25259399 -25.68115234 106.09228516 C-25.66128265 107.15323395 -25.64141296 108.21418274 -25.62094116 109.30728149 C-25.60938995 110.45626923 -25.59783875 111.60525696 -25.5859375 112.7890625 C-25.56657135 113.96262299 -25.5472052 115.13618347 -25.5272522 116.3453064 C-25.46732336 120.10512961 -25.42101754 123.86498323 -25.375 127.625 C-25.3368325 130.16928442 -25.29778151 132.71355575 -25.2578125 135.2578125 C-25.15994312 141.50514143 -25.08047852 147.75232566 -25 154 C-14.44 154 -3.88 154 7 154 C7 158.62 7 163.24 7 168 C-3.56 168 -14.12 168 -25 168 C-25 174.93 -25 181.86 -25 189 C-21.44370165 190.53696803 -17.88119352 192.0548222 -14.3125 193.5625 C-13.30509766 194.00013672 -12.29769531 194.43777344 -11.25976562 194.88867188 C-10.28330078 195.29794922 -9.30683594 195.70722656 -8.30078125 196.12890625 C-7.40528564 196.51119385 -6.50979004 196.89348145 -5.5871582 197.28735352 C-1.93727142 198.29273424 0.5442203 197.79704276 3.8425293 195.99121094 C4.41398682 195.57645508 4.98544434 195.16169922 5.57421875 194.734375 C6.5631311 194.02631714 6.5631311 194.02631714 7.57202148 193.30395508 C8.27012939 192.7911499 8.9682373 192.27834473 9.6875 191.75 C10.418479 191.22365967 11.14945801 190.69731934 11.90258789 190.1550293 C14.27433689 188.44474229 16.63726314 186.72271035 19 185 C21.50688327 183.18401687 24.01543698 181.3703682 26.5246582 179.55761719 C28.11355101 178.40843113 29.70067745 177.25679828 31.28588867 176.10253906 C32.36447144 175.3189502 32.36447144 175.3189502 33.46484375 174.51953125 C34.100271 174.05651611 34.73569824 173.59350098 35.39038086 173.11645508 C37 172 37 172 39 171 C41.22568762 155.38158424 41.22568762 155.38158424 36.59765625 141.2109375 C33.96913663 138.7900972 31.01611741 136.95354956 27.92578125 135.17724609 C24.49001805 133.07693548 21.47820285 130.42988026 18.375 127.875 C14.04163867 124.34370502 14.04163867 124.34370502 9 122 C12.465 117.545 12.465 117.545 16 113 C19.83281971 113.95820493 20.96596376 114.52171134 23.828125 116.94921875 C24.54613281 117.55056641 25.26414063 118.15191406 26.00390625 118.77148438 C26.74511719 119.40376953 27.48632812 120.03605469 28.25 120.6875 C30.43771308 122.53520439 32.62921418 124.37726138 34.83398438 126.20458984 C36.27456512 127.39868709 37.70315569 128.60740338 39.11914062 129.83056641 C39.79654297 130.3879248 40.47394531 130.9452832 41.171875 131.51953125 C41.76581055 132.02202393 42.35974609 132.5245166 42.97167969 133.04223633 C45.54797151 134.49433621 45.54797151 134.49433621 51 133 C55.29 131.35 59.58 129.7 64 128 C64 114.14 64 100.28 64 86 C45.52924046 74.45577529 34.82844305 68.32348791 13 71 C13 66.71 13 62.42 13 58 C19.27 58 25.54 58 32 58 C33.38540729 50.65801065 34.63322914 43.18086034 32 36 C26.69305927 29.87334871 19.17093855 26.26862042 12.04833984 22.62939453 C7.97191212 20.45046784 4.18275575 17.90563945 0.3684082 15.30053711 C-3.82770536 12.99637291 -6.62779819 14.0690801 -10.546875 16.1875 Z " fill="#FEF9FA" transform="translate(211,223)"></path><path d="M0 0 C1.12175336 -0.00538554 2.24350671 -0.01077108 3.39925259 -0.01631981 C7.1600939 -0.03063333 10.92058492 -0.02348701 14.68144226 -0.01637268 C17.37706111 -0.02207452 20.07265476 -0.02893739 22.76826477 -0.03717041 C29.33179444 -0.05436078 35.89522839 -0.0551978 42.45877472 -0.04995751 C47.79513975 -0.04591438 53.13147651 -0.04736106 58.46784019 -0.05270576 C59.22765309 -0.05345419 59.98746599 -0.05420261 60.77030351 -0.05497371 C62.31393774 -0.05650521 63.85757195 -0.05804356 65.40120616 -0.05958868 C79.87570337 -0.07331502 94.35014652 -0.06787549 108.8246425 -0.05640347 C122.05844771 -0.04647479 135.29211302 -0.05940516 148.52589665 -0.08333766 C162.1213238 -0.10773846 175.71668583 -0.11733388 189.31213444 -0.11068493 C196.94210228 -0.10719439 204.57196258 -0.10941364 212.20191383 -0.12693596 C218.69841512 -0.14167039 225.19473319 -0.14227748 231.69123093 -0.12486505 C235.00383153 -0.11636197 238.3160383 -0.1163627 241.6286335 -0.1295166 C245.22506134 -0.1427063 248.8206024 -0.13119519 252.41699219 -0.11352539 C253.45669468 -0.1231304 254.49639717 -0.1327354 255.56760579 -0.14263147 C264.51997316 -0.05225359 271.66967052 2.5243305 278.32865906 8.6103363 C284.30261531 15.37190371 286.05010533 22.14030055 286.03941345 30.93861389 C286.04387014 32.08471872 286.04387014 32.08471872 286.04841685 33.25397718 C286.0570938 35.81629677 286.05861127 38.37856959 286.06010437 40.94090271 C286.06473334 42.77746175 286.06975811 44.61401982 286.07514954 46.45057678 C286.08827002 51.44258733 286.0947181 56.43458442 286.09916019 61.42660952 C286.10209218 64.54708188 286.10619728 67.66755057 286.11066437 70.78802109 C286.1243399 80.5558526 286.13400564 90.32367572 286.13786626 100.09151614 C286.14234384 111.3579499 286.15987761 122.62426215 286.18886685 133.89065897 C286.21050702 142.60420212 286.22057183 151.31771115 286.22190738 160.03128088 C286.22295396 165.23283712 286.2288302 170.43427914 286.24672699 175.63580704 C286.26324746 180.53270035 286.26534388 185.42939408 286.25658798 190.32630539 C286.25581967 192.11850266 286.26013305 193.91071084 286.27004623 195.70288086 C286.33910604 208.97179596 285.47992991 219.70526251 276.89897156 230.38768005 C271.77707973 235.50957188 265.63689709 237.54708457 258.52397156 237.6806488 C256.64874516 237.6609786 254.77362316 237.62560172 252.89897156 237.57518005 C251.93346375 237.5616449 250.96795593 237.54810974 249.97319031 237.53416443 C247.6145173 237.49913463 245.25705385 237.4500209 242.89897156 237.38768005 C242.62657654 237.98226013 242.35418152 238.57684021 242.0735321 239.18943787 C240.92867667 241.33208561 239.77252458 242.80774642 238.10600281 244.55955505 C237.56169617 245.13737732 237.01738953 245.71519958 236.45658875 246.31053162 C235.88070007 246.9134906 235.3048114 247.51644958 234.71147156 248.13768005 C233.5244446 249.39731598 232.33823911 250.65772656 231.15287781 251.91893005 C230.30233826 252.82191833 230.30233826 252.82191833 229.43461609 253.7431488 C227.08205036 256.26252603 224.82293126 258.85695446 222.57084656 261.46580505 C220.54139083 263.7987308 218.47132455 266.09279251 216.39897156 268.38768005 C213.70913725 271.36830726 211.03586792 274.36013238 208.39897156 277.38768005 C204.28801879 282.1037497 200.12617137 286.7754446 195.89897156 291.38768005 C195.37819031 291.9703363 194.85740906 292.55299255 194.32084656 293.15330505 C192.89897156 294.38768005 192.89897156 294.38768005 189.89897156 294.82518005 C186.89897156 294.38768005 186.89897156 294.38768005 185.23275757 292.6927948 C183.62768277 289.9188254 183.53560325 288.25924257 183.55839539 285.06834412 C183.55862198 284.00754639 183.55884857 282.94674866 183.55908203 281.85380554 C183.58230782 280.1458078 183.58230782 280.1458078 183.60600281 278.40330505 C183.61024765 277.23257446 183.61449249 276.06184387 183.61886597 274.8556366 C183.6356598 271.1160839 183.67331452 267.3770699 183.71147156 263.63768005 C183.72651743 261.10253159 183.740206 258.56737467 183.75248718 256.0322113 C183.7830138 249.81699299 183.8417369 243.60293959 183.89897156 237.38768005 C173.33897156 237.38768005 162.77897156 237.38768005 151.89897156 237.38768005 C151.89897156 233.09768005 151.89897156 228.80768005 151.89897156 224.38768005 C157.6647084 224.28876929 163.42995096 224.2161916 169.19633484 224.16795349 C171.15768537 224.14784373 173.118976 224.12055187 175.0801239 224.08592224 C177.9000985 224.03737584 180.7192802 224.01470519 183.53959656 223.99705505 C184.85386627 223.96608734 184.85386627 223.96608734 186.19468689 223.93449402 C189.85161252 223.93314755 192.22661731 224.00767616 195.44584656 225.82713318 C197.65565026 229.72102116 197.502164 233.33807766 197.50834656 237.74705505 C197.52488281 238.65143311 197.54141907 239.55581116 197.55845642 240.4875946 C197.60697135 243.37102526 197.628315 246.2539284 197.64897156 249.13768005 C197.67712833 251.09473789 197.70705535 253.05177112 197.73881531 255.0087738 C197.81273125 259.80169913 197.86228454 264.59433102 197.89897156 269.38768005 C199.49187228 267.63939278 201.08424188 265.89062668 202.67631531 264.1415863 C203.56310974 263.16778015 204.44990417 262.193974 205.36357117 261.19065857 C207.98694722 258.29041972 210.56629883 255.35662029 213.12944031 252.40330505 C215.15012112 250.10160241 217.21209774 247.84003627 219.27397156 245.57518005 C223.27050532 241.15580483 227.04332125 236.58818979 230.75834656 231.9306488 C231.46475281 231.09146912 232.17115906 230.25228943 232.89897156 229.38768005 C233.55381531 228.46857849 234.20865906 227.54947693 234.88334656 226.6025238 C239.66488702 223.09069292 244.6205522 223.72305661 250.39897156 223.76268005 C252.63859274 223.76268005 254.87825719 223.75012009 257.11772156 223.72361755 C258.10707703 223.7292572 259.0964325 223.73489685 260.11576843 223.7407074 C263.58141884 223.301117 265.19611388 222.62698549 267.89897156 220.38768005 C271.27521727 215.2468245 272.48361102 210.50314278 272.39344788 204.36004639 C272.40069112 203.2096486 272.40069112 203.2096486 272.4080807 202.03601044 C272.41927621 199.48792031 272.40209098 196.94085074 272.3848114 194.39280701 C272.3869591 192.55739573 272.39083953 190.72198578 272.39631653 188.88658142 C272.40598477 183.91773476 272.39073946 178.94924911 272.37041044 173.9804461 C272.35280714 168.77644801 272.35636512 163.57246052 272.35713196 158.36843872 C272.35526091 149.63349893 272.33792087 140.8986984 272.31059265 132.1638031 C272.27911446 122.06513416 272.2685976 111.96661751 272.27006376 101.86790305 C272.27141447 91.11155074 272.25753637 80.35525711 272.23917055 69.59892249 C272.23490832 66.500428 272.23348827 63.40194297 272.23269272 60.30344582 C272.23068398 55.43688763 272.21847542 50.57045732 272.19836044 45.70394135 C272.19251867 43.91771668 272.19005805 42.1314773 272.19121552 40.34524345 C272.19219716 37.90814727 272.18088382 35.47140909 272.16639709 33.03436279 C272.1710429 31.97298354 272.1710429 31.97298354 272.17578256 30.89016229 C272.12038811 25.25169955 271.2060722 21.8623577 267.46147156 17.63768005 C264.0639053 14.65445114 261.67127895 14.26315722 257.30869389 14.24787235 C256.36118733 14.24218111 255.41368078 14.23648987 254.43746191 14.23062617 C253.39448193 14.22944629 252.35150194 14.22826641 251.2769165 14.22705078 C249.61734095 14.21941905 249.61734095 14.21941905 247.92423862 14.21163315 C244.19779997 14.19587216 240.47138076 14.18737409 236.74491882 14.17893982 C234.75945647 14.17183293 232.77399409 14.16471983 230.78853364 14.15709949 C222.10389041 14.12378355 213.41923536 14.10225915 204.73454919 14.08389965 C202.47411697 14.07910484 200.21368523 14.07412153 197.95325351 14.06909442 C183.92144158 14.0381312 169.88962555 14.01144177 155.85778904 13.99467564 C152.60808874 13.99072605 149.35838851 13.98672306 146.10868835 13.98265076 C145.3009775 13.9816424 144.49326664 13.98063403 143.6610797 13.97959512 C130.5659298 13.96257474 117.47096842 13.92144898 104.37591065 13.87062777 C90.93768943 13.81890262 77.49956533 13.78974045 64.06124538 13.78247875 C56.51345812 13.77781083 48.96597995 13.76300033 41.41829109 13.72273445 C34.99290914 13.68849755 28.56789203 13.67446923 22.14242405 13.68715859 C18.86266167 13.69300018 15.58383637 13.68577059 12.30415535 13.65898895 C8.75145846 13.63152059 5.20071942 13.64072269 1.64801025 13.65942383 C0.60726099 13.6426289 -0.43348827 13.62583397 -1.50577539 13.6085301 C-4.1732934 13.64380165 -6.51720194 13.72491641 -9.10102844 14.38768005 C-13.0419882 18.7042637 -14.21839824 22.69336197 -14.25924683 28.41799927 C-14.27393005 29.97659668 -14.27393005 29.97659668 -14.28890991 31.56668091 C-14.29466537 32.70603592 -14.30042084 33.84539093 -14.30635071 35.01927185 C-14.3212001 36.81946274 -14.3212001 36.81946274 -14.33634949 38.65602112 C-14.36254227 41.94705553 -14.38440223 45.23806561 -14.40435147 48.52914023 C-14.42621884 51.96848902 -14.45360386 55.40779372 -14.48040771 58.84710693 C-14.53032445 65.35997929 -14.57526706 71.87287613 -14.61843008 78.38579637 C-14.66781116 85.80050603 -14.72272606 93.21517147 -14.77810967 100.62983835 C-14.89191408 115.88241163 -14.99856018 131.13502617 -15.10102844 146.38768005 C-19.06102844 146.38768005 -23.02102844 146.38768005 -27.10102844 146.38768005 C-27.19376797 129.98440272 -27.26508014 113.58123412 -27.30827713 97.17775822 C-27.32887061 89.56071083 -27.3569293 81.94382969 -27.40278625 74.32688904 C-27.44275296 67.68514545 -27.46848461 61.04352232 -27.47738242 54.40166181 C-27.48258065 50.8873337 -27.49473021 47.37335008 -27.52394867 43.85913277 C-27.55636139 39.92856186 -27.55698155 35.99832279 -27.55513 32.06761169 C-27.56951111 30.91242538 -27.58389221 29.75723907 -27.59870911 28.56704712 C-27.54967088 18.9267237 -25.06835825 12.24046446 -18.85884094 4.89549255 C-13.01110777 -0.12056301 -7.32464285 -0.04206963 0 0 Z " fill="#FEFAFA" transform="translate(149.1010284423828,76.61231994628906)"></path><path d="M0 0 C4.29 0 8.58 0 13 0 C13 46.53 13 93.06 13 141 C8.71 141 4.42 141 0 141 C0 94.47 0 47.94 0 0 Z " fill="#FEF8F8" transform="translate(294,115)"></path><path d="M0 0 C4.29 0 8.58 0 13 0 C13 29.7 13 59.4 13 90 C8.71 90 4.42 90 0 90 C0 60.3 0 30.6 0 0 Z " fill="#FDF7F7" transform="translate(205,115)"></path><path d="M0 0 C3.96 0 7.92 0 12 0 C12 27.39 12 54.78 12 83 C8.04 83 4.08 83 0 83 C0 55.61 0 28.22 0 0 Z " fill="#FFFFFF" transform="translate(250,141)"></path><path d="M0 0 C4.29 0 8.58 0 13 0 C13 21.45 13 42.9 13 65 C8.71 65 4.42 65 0 65 C0 43.55 0 22.1 0 0 Z " fill="#FEF8F9" transform="translate(339,153)"></path><path d="M0 0 C4.29 0 8.58 0 13 0 C13 16.83 13 33.66 13 51 C8.71 51 4.42 51 0 51 C0 34.17 0 17.34 0 0 Z " fill="#FEFBFC" transform="translate(384,141)"></path><path d="M0 0 C4.29 0 8.58 0 13 0 C13 15.18 13 30.36 13 46 C8.71 46 4.42 46 0 46 C0 30.82 0 15.64 0 0 Z " fill="#FDF6F6" transform="translate(160,153)"></path></svg>