<svg version="1.1" xmlns="http://www.w3.org/2000/svg" width="16px" height="16px" fill="currentColor" viewBox="0 0 512 512"><path d="M0 0 C168.96 0 337.92 0 512 0 C512 168.96 512 337.92 512 512 C343.04 512 174.08 512 0 512 C0 343.04 0 174.08 0 0 Z " fill="#4053D6" transform="translate(0,0)"></path><path d="M0 0 C1.41173469 -0.01173486 1.41173469 -0.01173486 2.85198927 -0.02370679 C3.88786948 -0.01701463 4.92374969 -0.01032246 5.9910202 -0.00342751 C7.08994236 -0.00810748 8.18886453 -0.01278745 9.32108736 -0.01760924 C13.02234311 -0.02962437 16.72323305 -0.02007638 20.42449188 -0.01066017 C23.07029053 -0.01472298 25.71606353 -0.01995421 28.36185455 -0.02659035 C34.81349823 -0.0399495 41.26503736 -0.03704028 47.71668518 -0.02835242 C52.95877878 -0.02158484 58.20084304 -0.02065514 63.44293976 -0.02392387 C64.56088906 -0.02461342 64.56088906 -0.02461342 65.7014232 -0.0253169 C67.21535441 -0.02627605 68.72928562 -0.02724869 70.24321681 -0.02823468 C84.44855539 -0.03679496 98.65383595 -0.02694445 112.85916501 -0.01083358 C125.05528611 0.00257019 137.25132155 0.00024228 149.4474411 -0.01358986 C163.60098987 -0.02963442 177.75448775 -0.03597093 191.90804434 -0.02675307 C193.41649214 -0.02579739 194.92493994 -0.02485428 196.43338776 -0.02392387 C197.17562632 -0.02346105 197.91786488 -0.02299822 198.68259552 -0.02252137 C203.92006479 -0.0199281 209.15750185 -0.02430971 214.39496613 -0.03136253 C220.7753096 -0.03976528 227.15554232 -0.03752335 233.53587306 -0.0215203 C236.79296707 -0.0136209 240.04983745 -0.01218152 243.30693626 -0.02046776 C246.83324683 -0.02861434 250.35903069 -0.01844483 253.88530731 -0.00342751 C255.43912762 -0.01346575 255.43912762 -0.01346575 257.02433825 -0.02370679 C257.9654947 -0.01588355 258.90665116 -0.00806031 259.87632751 0 C260.69072029 0.00048706 261.50511306 0.00097411 262.3441844 0.00147593 C264.98864557 0.47638175 265.8696368 1.21827098 267.43816376 3.37752342 C267.73306966 6.23346403 267.84271323 8.87145358 267.81911469 11.72847557 C267.82379466 12.5905517 267.82847463 13.45262782 267.83329642 14.34082747 C267.8452991 17.24058397 267.83576865 20.13987246 267.82634735 23.0396328 C267.83041071 25.11400187 267.83575126 27.18836877 267.84227753 29.26273155 C267.85598495 34.90519108 267.85063833 40.54748654 267.84114027 46.18994904 C267.83356141 52.08625936 267.84058434 57.98255534 267.84529877 63.8788662 C267.8507615 73.78192742 267.84355113 83.68492159 267.82927704 93.58797264 C267.81294957 105.04818136 267.81823771 116.50822998 267.83475626 127.96843481 C267.84835638 137.79607565 267.850298 147.6236682 267.84244025 157.4513154 C267.83775562 163.32613341 267.83716053 169.2008761 267.84704971 175.07568932 C267.85569566 180.59799469 267.84974091 186.12009302 267.83236694 191.64237595 C267.8283894 193.67293707 267.82955768 195.70351552 267.83615494 197.73406982 C267.84431052 200.49847475 267.83412164 203.26220946 267.81911469 206.02657127 C267.82580685 206.83677648 267.83249902 207.64698169 267.83939397 208.48173857 C267.78199452 213.90468978 267.78199452 213.90468978 266.19853264 216.08225542 C263.94933734 217.73719873 262.67344827 217.75431326 259.8947382 217.75784016 C258.95768183 217.7662801 258.02062547 217.77472004 257.05517346 217.78341573 C256.02386632 217.77740569 254.99255918 217.77139564 253.93000031 217.76520348 C252.83586726 217.77058901 251.74173422 217.77597455 250.61444563 217.78152329 C246.92935159 217.79588943 243.24461239 217.78867771 239.55950165 217.78157616 C236.92518574 217.78727518 234.29087231 217.79423761 231.65656281 217.80237389 C225.23266421 217.81959306 218.80886329 217.82039546 212.38494761 217.81516098 C207.16479106 217.81112377 201.94466344 217.81255749 196.72450829 217.81790924 C195.98227283 217.81865766 195.24003738 217.81940608 194.47530995 217.82017719 C192.96758147 217.82170862 191.459853 217.82324697 189.95212453 217.82479215 C175.80446338 217.83852852 161.65685748 217.83307158 147.50919759 217.82160694 C134.55958311 217.81167371 121.6101115 217.82461472 108.66051907 217.84854113 C95.37144405 217.87291024 82.08243564 217.88254538 68.79333872 217.87588841 C61.32948207 217.87239126 53.86573532 217.87466079 46.40189552 217.89213943 C40.04790854 217.90683415 33.69410883 217.90753289 27.34012563 217.89006852 C24.09702077 217.88153325 20.85432119 217.8816228 17.61122131 217.89472008 C14.09826436 217.9078274 10.58622734 217.89647277 7.07331085 217.87872887 C6.04423443 217.88833387 5.01515802 217.89793888 3.95489746 217.90783495 C-2.75616773 217.83774145 -2.75616773 217.83774145 -6.1952076 215.87327576 C-8.16117293 212.28300813 -8.11073202 208.93329197 -8.06304169 204.94428062 C-8.06857608 204.08543363 -8.07411048 203.22658663 -8.07981259 202.34171396 C-8.09344524 199.45874504 -8.07843581 196.57663791 -8.06354523 193.69368553 C-8.06732742 191.62902012 -8.07282664 189.56435724 -8.07991791 187.49970055 C-8.09390183 181.88823718 -8.08268242 176.27707942 -8.06620669 170.66563296 C-8.05237841 164.80002702 -8.05881366 158.93443921 -8.06233978 153.06882286 C-8.06504345 143.21879195 -8.05155207 133.36888279 -8.02838898 123.51888084 C-8.00177094 112.12056095 -8.00003393 100.72244457 -8.01177734 89.32410425 C-8.02254469 78.3709171 -8.01637672 67.41780378 -8.00222206 56.4646225 C-7.99645395 51.79759609 -7.9965514 47.13062356 -8.00128746 42.46359634 C-8.00604879 36.97163414 -7.9959906 31.47989569 -7.97433281 25.98797607 C-7.96875351 23.96870618 -7.96831005 21.94941483 -7.97328568 19.93014336 C-7.97921156 17.18110551 -7.96678556 14.43275807 -7.9495163 11.68378258 C-7.95552634 10.87815044 -7.96153639 10.0725183 -7.96772856 9.24247307 C-7.90581652 3.85066439 -7.90581652 3.85066439 -6.32318121 1.67376751 C-4.0684244 0.01440195 -2.78586289 0.00166612 0 0 Z " fill="#3E50D3" transform="translate(167.56183624267578,217.6224765777588)"></path><path d="M0 0 C1.41173469 -0.01173486 1.41173469 -0.01173486 2.85198927 -0.02370679 C3.88786948 -0.01701463 4.92374969 -0.01032246 5.9910202 -0.00342751 C7.08994236 -0.00810748 8.18886453 -0.01278745 9.32108736 -0.01760924 C13.02234311 -0.02962437 16.72323305 -0.02007638 20.42449188 -0.01066017 C23.07029053 -0.01472298 25.71606353 -0.01995421 28.36185455 -0.02659035 C34.81349823 -0.0399495 41.26503736 -0.03704028 47.71668518 -0.02835242 C52.95877878 -0.02158484 58.20084304 -0.02065514 63.44293976 -0.02392387 C64.56088906 -0.02461342 64.56088906 -0.02461342 65.7014232 -0.0253169 C67.21535441 -0.02627605 68.72928562 -0.02724869 70.24321681 -0.02823468 C84.44855539 -0.03679496 98.65383595 -0.02694445 112.85916501 -0.01083358 C125.05528611 0.00257019 137.25132155 0.00024228 149.4474411 -0.01358986 C163.60098987 -0.02963442 177.75448775 -0.03597093 191.90804434 -0.02675307 C193.41649214 -0.02579739 194.92493994 -0.02485428 196.43338776 -0.02392387 C197.17562632 -0.02346105 197.91786488 -0.02299822 198.68259552 -0.02252137 C203.92006479 -0.0199281 209.15750185 -0.02430971 214.39496613 -0.03136253 C220.7753096 -0.03976528 227.15554232 -0.03752335 233.53587306 -0.0215203 C236.79296707 -0.0136209 240.04983745 -0.01218152 243.30693626 -0.02046776 C246.83324683 -0.02861434 250.35903069 -0.01844483 253.88530731 -0.00342751 C255.43912762 -0.01346575 255.43912762 -0.01346575 257.02433825 -0.02370679 C257.9654947 -0.01588355 258.90665116 -0.00806031 259.87632751 0 C260.69072029 0.00048706 261.50511306 0.00097411 262.3441844 0.00147593 C264.98864557 0.47638175 265.8696368 1.21827098 267.43816376 3.37752342 C267.73306966 6.23346403 267.84271323 8.87145358 267.81911469 11.72847557 C267.82379466 12.5905517 267.82847463 13.45262782 267.83329642 14.34082747 C267.8452991 17.24058397 267.83576865 20.13987246 267.82634735 23.0396328 C267.83041071 25.11400187 267.83575126 27.18836877 267.84227753 29.26273155 C267.85598495 34.90519108 267.85063833 40.54748654 267.84114027 46.18994904 C267.83356141 52.08625936 267.84058434 57.98255534 267.84529877 63.8788662 C267.8507615 73.78192742 267.84355113 83.68492159 267.82927704 93.58797264 C267.81294957 105.04818136 267.81823771 116.50822998 267.83475626 127.96843481 C267.84835638 137.79607565 267.850298 147.6236682 267.84244025 157.4513154 C267.83775562 163.32613341 267.83716053 169.2008761 267.84704971 175.07568932 C267.85569566 180.59799469 267.84974091 186.12009302 267.83236694 191.64237595 C267.8283894 193.67293707 267.82955768 195.70351552 267.83615494 197.73406982 C267.84431052 200.49847475 267.83412164 203.26220946 267.81911469 206.02657127 C267.82580685 206.83677648 267.83249902 207.64698169 267.83939397 208.48173857 C267.78199452 213.90468978 267.78199452 213.90468978 266.19853264 216.08225542 C263.94933734 217.73719873 262.67344827 217.75431326 259.8947382 217.75784016 C258.95768183 217.7662801 258.02062547 217.77472004 257.05517346 217.78341573 C256.02386632 217.77740569 254.99255918 217.77139564 253.93000031 217.76520348 C252.83586726 217.77058901 251.74173422 217.77597455 250.61444563 217.78152329 C246.92935159 217.79588943 243.24461239 217.78867771 239.55950165 217.78157616 C236.92518574 217.78727518 234.29087231 217.79423761 231.65656281 217.80237389 C225.23266421 217.81959306 218.80886329 217.82039546 212.38494761 217.81516098 C207.16479106 217.81112377 201.94466344 217.81255749 196.72450829 217.81790924 C195.98227283 217.81865766 195.24003738 217.81940608 194.47530995 217.82017719 C192.96758147 217.82170862 191.459853 217.82324697 189.95212453 217.82479215 C175.80446338 217.83852852 161.65685748 217.83307158 147.50919759 217.82160694 C134.55958311 217.81167371 121.6101115 217.82461472 108.66051907 217.84854113 C95.37144405 217.87291024 82.08243564 217.88254538 68.79333872 217.87588841 C61.32948207 217.87239126 53.86573532 217.87466079 46.40189552 217.89213943 C40.04790854 217.90683415 33.69410883 217.90753289 27.34012563 217.89006852 C24.09702077 217.88153325 20.85432119 217.8816228 17.61122131 217.89472008 C14.09826436 217.9078274 10.58622734 217.89647277 7.07331085 217.87872887 C6.04423443 217.88833387 5.01515802 217.89793888 3.95489746 217.90783495 C-2.75616773 217.83774145 -2.75616773 217.83774145 -6.1952076 215.87327576 C-8.16117293 212.28300813 -8.11073202 208.93329197 -8.06304169 204.94428062 C-8.06857608 204.08543363 -8.07411048 203.22658663 -8.07981259 202.34171396 C-8.09344524 199.45874504 -8.07843581 196.57663791 -8.06354523 193.69368553 C-8.06732742 191.62902012 -8.07282664 189.56435724 -8.07991791 187.49970055 C-8.09390183 181.88823718 -8.08268242 176.27707942 -8.06620669 170.66563296 C-8.05237841 164.80002702 -8.05881366 158.93443921 -8.06233978 153.06882286 C-8.06504345 143.21879195 -8.05155207 133.36888279 -8.02838898 123.51888084 C-8.00177094 112.12056095 -8.00003393 100.72244457 -8.01177734 89.32410425 C-8.02254469 78.3709171 -8.01637672 67.41780378 -8.00222206 56.4646225 C-7.99645395 51.79759609 -7.9965514 47.13062356 -8.00128746 42.46359634 C-8.00604879 36.97163414 -7.9959906 31.47989569 -7.97433281 25.98797607 C-7.96875351 23.96870618 -7.96831005 21.94941483 -7.97328568 19.93014336 C-7.97921156 17.18110551 -7.96678556 14.43275807 -7.9495163 11.68378258 C-7.95552634 10.87815044 -7.96153639 10.0725183 -7.96772856 9.24247307 C-7.90581652 3.85066439 -7.90581652 3.85066439 -6.32318121 1.67376751 C-4.0684244 0.01440195 -2.78586289 0.00166612 0 0 Z M5.43816376 13.37752342 C5.43816376 76.40752342 5.43816376 139.43752342 5.43816376 204.37752342 C87.60816376 204.37752342 169.77816376 204.37752342 254.43816376 204.37752342 C254.43816376 141.34752342 254.43816376 78.31752342 254.43816376 13.37752342 C172.26816376 13.37752342 90.09816376 13.37752342 5.43816376 13.37752342 Z " fill="#F9F9FD" transform="translate(167.56183624267578,217.6224765777588)"></path><path d="M0 0 C1.0828125 0.27457031 1.0828125 0.27457031 2.1875 0.5546875 C19.52641268 5.57058724 33.14964713 18.67480465 42 34 C42.73828125 36.37890625 42.73828125 36.37890625 43 38 C43.82177734 37.45859375 43.82177734 37.45859375 44.66015625 36.90625 C52.8358763 32.12046266 61.28939209 31.54793646 70.52734375 33.546875 C79.00953148 36.47738132 85.47372626 41.94066146 89.453125 49.91015625 C92.91174701 57.93058143 92.91174701 57.93058143 93.265625 62.21875 C93.50796875 63.1365625 93.7503125 64.054375 94 65 C96.62690004 66.57397785 96.62690004 66.57397785 99.9375 67.4375 C111.2350016 71.33105909 120.55442364 78.17216581 126.53515625 88.703125 C130.47806444 96.93380215 132 103.88326087 132 113 C127.38 113 122.76 113 118 113 C117.773125 110.875625 117.54625 108.75125 117.3125 106.5625 C116.02047994 97.6708897 113.25890268 90.96602791 106.07421875 85.33984375 C99.61187877 81.16548854 92.54717098 78.62555161 85.09375 76.87109375 C82.29410404 75.70631567 81.43843242 74.67389585 80 72 C79.4453125 68.57421875 79.4453125 68.57421875 79.125 64.6875 C78.45405688 58.42636716 77.52337519 54.52337519 73 50 C67.7039313 45.99565537 61.36843975 46.210524 55 47 C51.95514056 48.52242972 49.94756367 50.11364845 47.48828125 52.4140625 C43.51169693 56 43.51169693 56 40.3125 56 C35.11079461 53.75061388 33.59920423 49.34234766 31.3125 44.4375 C23.86704746 29.14506555 13.20553912 18.88144956 -3 13 C-15.60253428 9.57899682 -30.52261699 11.00013803 -42 17 C-56.31596441 25.3873068 -64.07829256 38.16970441 -68.54150391 53.90966797 C-69.01341076 56.06114107 -69.15682668 58.02272887 -69.2109375 60.22265625 C-69.25347656 61.40118164 -69.25347656 61.40118164 -69.296875 62.60351562 C-69.34907504 64.24651202 -69.39331134 65.88978024 -69.4296875 67.53320312 C-69.47609375 68.70979492 -69.47609375 68.70979492 -69.5234375 69.91015625 C-69.54325684 70.62308838 -69.56307617 71.33602051 -69.58349609 72.07055664 C-70.11841677 74.54856257 -71.04690653 75.42523466 -73 77 C-74.88879686 77.85603367 -76.81033875 78.64147328 -78.75 79.375 C-88.57461034 83.3877023 -93.16255398 87.41496765 -98 97 C-98.56460938 98.09634766 -98.56460938 98.09634766 -99.140625 99.21484375 C-102.19404867 109.11071229 -101.20691898 122.28272113 -96.6171875 131.44921875 C-92.45724182 138.01067897 -87.50034225 144.23012191 -80 147 C-76.02109807 147.59762163 -72.08142977 147.69511704 -68.0625 147.75 C-66.99708984 147.77964844 -65.93167969 147.80929688 -64.83398438 147.83984375 C-62.22305549 147.91009296 -59.61152573 147.95736285 -57 148 C-57 152.29 -57 156.58 -57 161 C-60.81327872 161.10869203 -64.62340992 161.18765644 -68.4375 161.25 C-69.50677734 161.28351563 -70.57605469 161.31703125 -71.67773438 161.3515625 C-83.51422568 161.49635138 -91.70049639 157.10044867 -100.1015625 148.96484375 C-104.95568074 143.81075191 -108.22564931 138.49499154 -111 132 C-111.35320312 131.22140625 -111.70640625 130.4428125 -112.0703125 129.640625 C-115.92162716 118.70159682 -115.56792037 103.44854155 -111.31640625 92.73828125 C-105.63051469 80.91095193 -97.84016127 72.79926266 -86 67 C-85.01 67 -84.02 67 -83 67 C-83.061875 65.80375 -83.12375 64.6075 -83.1875 63.375 C-83.04514289 45.12481833 -74.12687479 28.10754053 -62.0234375 14.83203125 C-45.74282944 -0.9302803 -21.68349837 -5.94790407 0 0 Z " fill="#FAFAFE" transform="translate(192,82)"></path><path d="M0 0 C4.25943799 1.42494761 7.05651685 3.50668937 10.4375 6.4375 C11.50240305 7.348115 12.56887095 8.2569025 13.63671875 9.1640625 C14.1889209 9.63360352 14.74112305 10.10314453 15.31005859 10.58691406 C18.07116857 12.89568386 20.90921101 15.10308693 23.75 17.3125 C28.88344809 21.31517604 33.95746969 25.3834009 39 29.5 C45.28144242 34.62627838 51.62236577 39.66919854 58.01171875 44.66015625 C58.99785156 45.43230469 59.98398437 46.20445312 61 47 C61.92941406 47.69351563 62.85882813 48.38703125 63.81640625 49.1015625 C66 51 66 51 67.25 54.3125 C66.93661287 58.93496018 65.82184837 60.01886015 62.4609375 63.0078125 C58.29683844 66.37874984 54.10625349 69.70853249 49.8671875 72.984375 C45.91682837 76.04595349 42.05148542 79.2055995 38.1875 82.375 C31.90670846 87.51327253 25.50724786 92.47381435 19.04199219 97.37719727 C13.24539146 101.78291192 7.58700592 106.3300836 2 111 C-2.28359673 109.1144852 -4.15103592 106.64034299 -7 103 C-5.46078927 98.78178326 -2.34381024 96.65841488 1.125 94.0625 C2.39949206 93.08601026 3.67288704 92.10808737 4.9453125 91.12890625 C5.61079102 90.61859863 6.27626953 90.10829102 6.96191406 89.58251953 C10.35587565 86.94719861 13.67542137 84.2219482 17 81.5 C23.20494436 76.4350756 29.4720627 71.45759256 35.78125 66.5234375 C40.21721275 63.05285513 44.61085988 59.5295159 49 56 C45.50926451 52.42599926 41.88907964 49.08939746 38.0625 45.875 C37.49893799 45.39981934 36.93537598 44.92463867 36.35473633 44.43505859 C31.79792392 40.61727374 27.14784582 36.92888318 22.45678711 33.27807617 C17.13226194 29.12876082 11.89671378 24.87470045 6.68041992 20.59033203 C2.21094214 16.93374882 -2.35567803 13.43159539 -7 10 C-5.10614981 6.09965426 -2.83192748 3.27907392 0 0 Z " fill="#FBFBFE" transform="translate(221,271)"></path><path d="M0 0 C31.68 0 63.36 0 96 0 C96 4.29 96 8.58 96 13 C64.32 13 32.64 13 0 13 C0 8.71 0 4.42 0 0 Z " fill="#FBFBFE" transform="translate(294,371)"></path></svg>