<svg version="1.1" xmlns="http://www.w3.org/2000/svg" width="16px" height="16px" fill="currentColor" viewBox="0 0 512 512"><path d="M0 0 C168.96 0 337.92 0 512 0 C512 168.96 512 337.92 512 512 C343.04 512 174.08 512 0 512 C0 343.04 0 174.08 0 0 Z " fill="#D72B6B" transform="translate(0,0)"></path><path d="M0 0 C0.66959246 -0.00623996 1.33918491 -0.01247993 2.02906805 -0.01890898 C4.2717363 -0.03485807 6.51332049 -0.02222838 8.7559967 -0.00964355 C10.36422357 -0.01506392 11.97244548 -0.0221861 13.58065796 -0.03088379 C17.94850975 -0.04913189 22.31598396 -0.0420432 26.68384242 -0.02936745 C31.25392985 -0.01924569 35.82398479 -0.02863099 40.39407349 -0.03491211 C48.07011218 -0.04219166 55.74599699 -0.03259353 63.42201233 -0.0135498 C72.29599949 0.00821181 81.16961894 0.00117404 90.04359716 -0.02085543 C97.66155931 -0.03900992 105.27941077 -0.04156728 112.89738756 -0.03110075 C117.44766393 -0.02486508 121.9977675 -0.02403201 126.54803276 -0.0372467 C130.8269807 -0.04880506 135.10545494 -0.04077997 139.38435173 -0.01766968 C140.95449029 -0.01238214 142.52466874 -0.01389718 144.09479141 -0.02272034 C146.23910608 -0.03365873 148.38190488 -0.01993562 150.52612305 0 C151.7257112 0.0015081 152.92529936 0.0030162 154.16123867 0.00457001 C157.96682669 0.60975412 159.64110712 1.78673044 162.32655334 4.50793457 C162.92782593 7.26678467 162.92782593 7.26678467 162.8941803 10.46984863 C162.89380264 11.67079163 162.89342499 12.87173462 162.89303589 14.10906982 C162.86722946 15.40085144 162.84142303 16.69263306 162.81483459 18.02355957 C162.80550426 19.36304402 162.79838918 20.70254558 162.793396 22.04205322 C162.77434257 25.56062268 162.72525898 29.07815332 162.6698761 32.59631348 C162.61864613 36.18910672 162.59587414 39.78206853 162.57069397 43.37512207 C162.51713619 50.41985746 162.42921568 57.46371875 162.32655334 64.50793457 C158.03655334 64.50793457 153.74655334 64.50793457 149.32655334 64.50793457 C149.32655334 47.67793457 149.32655334 30.84793457 149.32655334 13.50793457 C100.81655334 13.50793457 52.30655334 13.50793457 2.32655334 13.50793457 C2.32655334 85.44793457 2.32655334 157.38793457 2.32655334 231.50793457 C50.83655334 231.50793457 99.34655334 231.50793457 149.32655334 231.50793457 C149.32655334 191.24793457 149.32655334 150.98793457 149.32655334 109.50793457 C153.61655334 109.50793457 157.90655334 109.50793457 162.32655334 109.50793457 C162.44230661 126.37142706 162.53153026 143.23476085 162.5856142 160.09855938 C162.61139402 167.92875888 162.64653992 175.75870698 162.70375061 183.58874512 C162.75359285 190.41356776 162.78584599 197.23820834 162.79699582 204.06320792 C162.80351335 207.67697266 162.81882556 211.29021655 162.85520363 214.90381432 C162.89548967 218.938349 162.89650229 222.97197871 162.8941803 227.00671387 C162.92114487 228.80314331 162.92114487 228.80314331 162.94865417 230.63586426 C162.94178085 231.73657761 162.93490753 232.83729095 162.92782593 233.97135925 C162.93473938 235.40244286 162.93473938 235.40244286 162.94179249 236.86243725 C162.05305427 240.68396682 160.42014853 242.15584907 157.32655334 244.50793457 C154.17964935 245.13434696 154.17964935 245.13434696 150.57081604 245.13612366 C149.90445271 245.14321804 149.23808938 245.15031243 148.55153322 245.1576218 C146.32555705 245.17518087 144.10133204 245.15711058 141.87538147 245.13903809 C140.27685756 245.14417778 138.67833932 245.15145944 137.07983398 245.16072083 C132.74294237 245.17923698 128.40666546 245.16629517 124.06979942 245.14663053 C119.53041748 245.13024436 114.99107448 245.13905687 110.45167542 245.14414978 C102.82865073 245.14867078 95.20587142 245.13280056 87.582901 245.1048584 C78.77079754 245.07280641 69.95913663 245.07282218 61.14700174 245.09007317 C52.66858276 245.10593922 44.19032596 245.0992042 35.71191406 245.08213615 C32.10433635 245.07526514 28.49688863 245.07629861 24.88931274 245.08368111 C20.64069881 245.09134463 16.39258824 245.07921597 12.14406013 245.0518322 C10.58521583 245.04494793 9.02632451 245.04485089 7.46748161 245.05204773 C5.3385237 245.06074378 3.21111878 245.04478712 1.08229065 245.02259827 C-0.70408184 245.01838789 -0.70408184 245.01838789 -2.52654266 245.01409245 C-6.52020764 244.37173889 -8.08064168 243.63858774 -10.67344666 240.50793457 C-11.40314101 237.37036174 -11.34365991 234.30370833 -11.30163574 231.09436035 C-11.30873013 230.13004656 -11.31582452 229.16573277 -11.32313389 228.17219734 C-11.3407742 224.93214511 -11.32257779 221.6932829 -11.30455017 218.45324707 C-11.30968666 216.13404797 -11.31696588 213.81485277 -11.32623291 211.4956665 C-11.34478932 205.18990451 -11.33178125 198.88456388 -11.31214261 192.57881927 C-11.29578995 185.98764024 -11.30456429 179.39648861 -11.30966187 172.80529785 C-11.31510541 161.73540768 -11.29839342 150.66567679 -11.27037048 139.5958252 C-11.2415324 128.20382677 -11.23444915 116.81206886 -11.24986267 105.42004395 C-11.26840663 91.69551937 -11.26669177 77.97116875 -11.24764824 64.24664307 C-11.24076582 59.0026757 -11.24182243 53.75879769 -11.24919319 48.51483154 C-11.25683996 42.34239623 -11.24478213 36.17030843 -11.21734428 29.99793243 C-11.21044252 27.72913902 -11.21038154 25.46031325 -11.21755981 23.19152069 C-11.22621271 20.10112553 -11.21036846 17.01181314 -11.18811035 13.92150879 C-11.19635112 13.01762484 -11.20459189 12.11374088 -11.21308237 11.18246651 C-11.16289352 7.42283533 -11.09465352 5.17468863 -9.05837059 1.95133209 C-5.88211163 0.02900483 -3.709505 0.00466499 0 0 Z " fill="#FDF9FA" transform="translate(87.67344665527344,165.4920654296875)"></path><path d="M0 0 C1.09957031 0.39058594 2.19914062 0.78117187 3.33203125 1.18359375 C21.09573421 8.09714077 35.87859025 20.85039768 46 37 C46.71123141 38.64814202 47.39337642 40.31055333 48 42 C48.969375 41.401875 49.93875 40.80375 50.9375 40.1875 C60.31459442 34.92809175 69.95122631 33.02414797 80.51171875 35.984375 C91.77788598 40.14656221 100.75503637 46.26212294 106.375 57.1875 C106.93837431 58.44886019 107.48224532 59.71923842 108 61 C108.4125 62.010625 108.825 63.02125 109.25 64.0625 C110.11794301 67.46194346 110.13977533 70.50561671 110 74 C110.7321875 74.1340625 111.464375 74.268125 112.21875 74.40625 C126.38693077 77.4309178 138.50495972 86.63541698 146.64453125 98.37109375 C155.07381516 111.51749517 157.29306791 128.51600055 154.3125 143.8125 C153.91637729 145.22063485 153.47531395 146.61658625 153 148 C152.53980469 149.39412109 152.53980469 149.39412109 152.0703125 150.81640625 C146.71460316 165.27682148 136.42800391 174.76637194 122.88671875 181.5625 C112.68760787 186.00724871 102.96799334 188.46430218 91.8371582 188.34057617 C90.25467033 188.34123329 90.25467033 188.34123329 88.64021301 188.34190369 C85.19353975 188.33983312 81.74736831 188.31658418 78.30078125 188.29296875 C75.89511887 188.28736664 73.48945305 188.28309945 71.08378601 188.28010559 C64.78242378 188.26870534 58.48127223 188.23927981 52.17999268 188.20599365 C45.73786264 188.17518855 39.29569824 188.16157801 32.85351562 188.14648438 C20.23558502 188.11440536 7.6178101 188.06326766 -5 188 C-5 183.71 -5 179.42 -5 175 C-3.70311249 174.99635437 -2.40622498 174.99270874 -1.07003784 174.98895264 C11.19901429 174.95188494 23.46781816 174.89398408 35.73668098 174.81609726 C42.04305125 174.77672075 48.34928393 174.74448408 54.65576172 174.72900391 C60.75083237 174.71377265 66.8455245 174.67921247 72.94042587 174.63169098 C75.25658743 174.61694374 77.57280304 174.60896284 79.88901138 174.60811615 C98.40781257 174.59454805 116.01717587 173.53634472 130.375 160.25 C138.31440997 151.72489586 141.40411323 141.06880084 141.3125 129.625 C141.30404053 128.5102832 141.30404053 128.5102832 141.29541016 127.37304688 C141.03542361 115.56296479 136.72449917 107.04267469 128.875 98.3125 C121.6474367 91.46533477 112.02741649 88.43195559 102.6171875 85.859375 C100 85 100 85 98 83 C97.61116448 80.99245659 97.31174979 78.96710542 97.0625 76.9375 C95.772422 68.00543325 94.29144994 59.97246814 87 54 C80.34829772 49.8688327 73.82258594 47.63515463 66 49 C60.08759601 50.77277823 56.13907718 53.37397257 52 58 C49 60 49 60 45.578125 60.109375 C41.48910681 58.8416008 41.48910681 58.8416008 39.734375 55.640625 C39.05311072 54.18619717 38.39274383 52.72185655 37.75 51.25 C29.12331979 33.38621696 15.93768705 22.10371698 -2 14 C-3.22783203 13.43925781 -3.22783203 13.43925781 -4.48046875 12.8671875 C-16.57432258 8.70465176 -35.24480586 9.02955618 -47 14 C-48.45019531 14.58587891 -48.45019531 14.58587891 -49.9296875 15.18359375 C-63.66734406 21.35330465 -71.61419456 31.39796946 -79 44 C-79.99967183 45.66686352 -80.99954027 47.33360926 -82 49 C-86.38889325 48.33501617 -89.9811485 46.81242323 -94 45 C-92.63348421 40.27800826 -90.60928688 36.34149437 -87.9375 32.25 C-87.54191895 31.64091797 -87.14633789 31.03183594 -86.73876953 30.40429688 C-76.20795265 14.56434931 -61.75139893 2.56513115 -43 -2 C-29.26001548 -4.2019206 -13.14691002 -4.93243557 0 0 Z " fill="#FEF9FB" transform="translate(280,106)"></path><path d="M0 0 C69.96 0 139.92 0 212 0 C212 4.29 212 8.58 212 13 C142.04 13 72.08 13 0 13 C0 8.71 0 4.42 0 0 Z " fill="#FEF9FB" transform="translate(115,243)"></path><path d="M0 0 C25.41 0 50.82 0 77 0 C77 4.29 77 8.58 77 13 C51.59 13 26.18 13 0 13 C0 8.71 0 4.42 0 0 Z " fill="#FDF7F9" transform="translate(115,281)"></path><path d="M0 0 C19.14 0 38.28 0 58 0 C58 4.29 58 8.58 58 13 C38.86 13 19.72 13 0 13 C0 8.71 0 4.42 0 0 Z " fill="#FDF5F8" transform="translate(115,204)"></path><path d="M0 0 C14.85 0 29.7 0 45 0 C45 4.29 45 8.58 45 13 C30.15 13 15.3 13 0 13 C0 8.71 0 4.42 0 0 Z " fill="#FDF8FA" transform="translate(115,320)"></path><path d="M0 0 C10.56 0 21.12 0 32 0 C32 4.29 32 8.58 32 13 C21.44 13 10.88 13 0 13 C0 8.71 0 4.42 0 0 Z " fill="#FDF7FA" transform="translate(179,320)"></path><path d="M0 0 C10.56 0 21.12 0 32 0 C32 4.29 32 8.58 32 13 C21.44 13 10.88 13 0 13 C0 8.71 0 4.42 0 0 Z " fill="#FEF9FB" transform="translate(339,243)"></path></svg>