<svg version="1.1" xmlns="http://www.w3.org/2000/svg" width="16px" height="16px" fill="currentColor" viewBox="0 0 512 512"><path d="M0 0 C168.96 0 337.92 0 512 0 C512 168.96 512 337.92 512 512 C343.04 512 174.08 512 0 512 C0 343.04 0 174.08 0 0 Z " fill="#2D8F7A" transform="translate(0,0)"></path><path d="M0 0 C1.09699219 0.36222656 2.19398438 0.72445312 3.32421875 1.09765625 C29.17280091 10.29588512 50.0135542 28.17917007 62.01171875 53.0625 C73.48033216 77.92341832 75.46088009 109.07076911 66.265625 135.05078125 C61.14908434 148.74490225 54.47090867 165.22453017 42.20947266 173.99633789 C37.90065569 177.28108141 34.6450965 180.14646896 33.41381836 185.59292603 C32.58394906 193.16452804 32.88890989 200.7761178 33.125 208.375 C33.19915252 211.81635126 33.25722399 215.25636856 33.28707886 218.69839478 C33.30879428 220.8301957 33.35754848 222.96193867 33.4367981 225.09237671 C33.45265961 226.05753204 33.46852112 227.02268738 33.48486328 228.01708984 C33.5113797 228.86105316 33.53789612 229.70501648 33.56521606 230.57455444 C32.66345327 234.44418361 31.25091402 235.71929229 28 238 C24.22798254 238.73818162 20.51328642 238.6829805 16.6796875 238.64697266 C15.5360675 238.65573425 14.39244751 238.66449585 13.21417236 238.67352295 C9.43406226 238.69552868 5.65512199 238.6809584 1.875 238.6640625 C-0.75146713 238.66743025 -3.37793274 238.67228252 -6.00439453 238.67855835 C-11.50891798 238.68764753 -17.01310569 238.67568667 -22.51757812 238.65185547 C-28.8758974 238.62464498 -35.233415 238.63345971 -41.59171486 238.6609875 C-47.71552767 238.68643597 -53.83898587 238.68371151 -59.96282959 238.66907883 C-62.56557324 238.66574149 -65.16833733 238.66984329 -67.77105713 238.68147659 C-71.40781991 238.69416408 -75.04303976 238.67483404 -78.6796875 238.64697266 C-79.75724304 238.65709381 -80.83479858 238.66721497 -81.94500732 238.67764282 C-86.68186561 238.61035381 -89.21319101 238.54876372 -93.17204285 235.78764343 C-95.16188159 232.75312981 -95.61210259 231.33546874 -95.56762695 227.75073242 C-95.56706047 226.21971138 -95.56706047 226.21971138 -95.56648254 224.65776062 C-95.54067612 223.5680043 -95.51486969 222.47824799 -95.48828125 221.35546875 C-95.48120651 220.2305452 -95.47413177 219.10562164 -95.46684265 217.9466095 C-95.43889144 214.35955851 -95.37614717 210.77407788 -95.3125 207.1875 C-95.28741827 204.75327778 -95.26460489 202.31903105 -95.24414062 199.88476562 C-95.18906226 193.9226428 -95.10542705 187.9614336 -95 182 C-95.60956543 181.71278076 -96.21913086 181.42556152 -96.84716797 181.12963867 C-114.40125523 171.9186201 -123.9469532 147.46085604 -129.921875 130.09375 C-132.85952771 119.90988729 -133.31975024 109.53228658 -133.25 99 C-133.26160156 97.24816406 -133.26160156 97.24816406 -133.2734375 95.4609375 C-133.21379325 68.56138218 -122.67092845 43.9706879 -104.0625 24.625 C-77.09348766 -1.08181207 -35.83634648 -12.49152649 0 0 Z " fill="#2F907B" transform="translate(287,132)"></path><path d="M0 0 C1.09699219 0.36222656 2.19398438 0.72445312 3.32421875 1.09765625 C29.17280091 10.29588512 50.0135542 28.17917007 62.01171875 53.0625 C73.48033216 77.92341832 75.46088009 109.07076911 66.265625 135.05078125 C61.14908434 148.74490225 54.47090867 165.22453017 42.20947266 173.99633789 C37.90065569 177.28108141 34.6450965 180.14646896 33.41381836 185.59292603 C32.58394906 193.16452804 32.88890989 200.7761178 33.125 208.375 C33.19915252 211.81635126 33.25722399 215.25636856 33.28707886 218.69839478 C33.30879428 220.8301957 33.35754848 222.96193867 33.4367981 225.09237671 C33.45265961 226.05753204 33.46852112 227.02268738 33.48486328 228.01708984 C33.5113797 228.86105316 33.53789612 229.70501648 33.56521606 230.57455444 C32.66345327 234.44418361 31.25091402 235.71929229 28 238 C24.22798254 238.73818162 20.51328642 238.6829805 16.6796875 238.64697266 C15.5360675 238.65573425 14.39244751 238.66449585 13.21417236 238.67352295 C9.43406226 238.69552868 5.65512199 238.6809584 1.875 238.6640625 C-0.75146713 238.66743025 -3.37793274 238.67228252 -6.00439453 238.67855835 C-11.50891798 238.68764753 -17.01310569 238.67568667 -22.51757812 238.65185547 C-28.8758974 238.62464498 -35.233415 238.63345971 -41.59171486 238.6609875 C-47.71552767 238.68643597 -53.83898587 238.68371151 -59.96282959 238.66907883 C-62.56557324 238.66574149 -65.16833733 238.66984329 -67.77105713 238.68147659 C-71.40781991 238.69416408 -75.04303976 238.67483404 -78.6796875 238.64697266 C-79.75724304 238.65709381 -80.83479858 238.66721497 -81.94500732 238.67764282 C-86.68186561 238.61035381 -89.21319101 238.54876372 -93.17204285 235.78764343 C-95.16188159 232.75312981 -95.61210259 231.33546874 -95.56762695 227.75073242 C-95.56706047 226.21971138 -95.56706047 226.21971138 -95.56648254 224.65776062 C-95.54067612 223.5680043 -95.51486969 222.47824799 -95.48828125 221.35546875 C-95.48120651 220.2305452 -95.47413177 219.10562164 -95.46684265 217.9466095 C-95.43889144 214.35955851 -95.37614717 210.77407788 -95.3125 207.1875 C-95.28741827 204.75327778 -95.26460489 202.31903105 -95.24414062 199.88476562 C-95.18906226 193.9226428 -95.10542705 187.9614336 -95 182 C-95.60956543 181.71278076 -96.21913086 181.42556152 -96.84716797 181.12963867 C-114.40125523 171.9186201 -123.9469532 147.46085604 -129.921875 130.09375 C-132.85952771 119.90988729 -133.31975024 109.53228658 -133.25 99 C-133.26160156 97.24816406 -133.26160156 97.24816406 -133.2734375 95.4609375 C-133.21379325 68.56138218 -122.67092845 43.9706879 -104.0625 24.625 C-77.09348766 -1.08181207 -35.83634648 -12.49152649 0 0 Z M-99 38 C-110.32808237 51.25993967 -116.44973622 66.08852847 -120 83 C-120.19335938 83.7734375 -120.38671875 84.546875 -120.5859375 85.34375 C-124.42091362 109.94548362 -117.231449 137.11102559 -102.75 157.125 C-96.91895123 164.63050534 -90.41340576 171.06927539 -83 177 C-82.67 192.84 -82.34 208.68 -82 225 C-48.34 225 -14.68 225 20 225 C20.33 209.16 20.66 193.32 21 177 C25.29 173.04 29.58 169.08 34 165 C51.53041632 147.1821998 59.31354387 121.12086923 59.3828125 96.6105957 C59.04558339 76.11514518 51.7228846 56.9991639 39 41 C38.35804688 40.18273437 37.71609375 39.36546875 37.0546875 38.5234375 C23.79858085 22.72372367 3.34500968 11.89559609 -17 9 C-49.37651831 6.71530604 -76.08009218 14.09781041 -99 38 Z " fill="#FAFCFC" transform="translate(287,132)"></path><path d="M0 0 C0.89161835 -0.00845947 1.78323669 -0.01691895 2.70187378 -0.02563477 C3.67238678 -0.01956207 4.64289978 -0.01348938 5.64282227 -0.00723267 C6.67085968 -0.01248962 7.69889709 -0.01774658 8.75808716 -0.02316284 C12.15862185 -0.03637403 15.558689 -0.02762053 18.95922852 -0.01748657 C21.32047618 -0.01950698 23.68172323 -0.02241814 26.04296875 -0.02618408 C30.99265481 -0.03060896 35.94217851 -0.02417093 40.8918457 -0.01016235 C47.24082869 0.00692942 53.58943124 -0.00291086 59.93840027 -0.02087975 C64.81452305 -0.03171303 69.69055543 -0.02827329 74.56668091 -0.02049637 C76.90788823 -0.01849311 79.24910373 -0.02095802 81.59030151 -0.02793503 C84.86063422 -0.03554179 88.13034821 -0.02395556 91.40063477 -0.00723267 C92.85640427 -0.01634171 92.85640427 -0.01634171 94.34158325 -0.02563477 C95.67901077 -0.01294556 95.67901077 -0.01294556 97.04345703 0 C98.20265404 0.00169662 98.20265404 0.00169662 99.38526917 0.00342751 C102.13591636 0.4894811 103.514081 1.46077968 105.52172852 3.38095093 C106.41967014 8.67880651 105.19185234 11.63649619 102.21899414 15.82382202 C101.50259766 16.78022583 101.50259766 16.78022583 100.77172852 17.75595093 C100.28381836 18.4335144 99.7959082 19.11107788 99.29321289 19.80917358 C98.25355349 21.25274132 97.2077963 22.69193379 96.15649414 24.12704468 C94.47905193 26.43979057 92.84717344 28.7792606 91.22485352 31.13095093 C90.15719875 32.67265469 89.08949181 34.21432233 88.02172852 35.75595093 C87.51802734 36.48733276 87.01432617 37.2187146 86.49536133 37.97225952 C86.019375 38.65111206 85.54338867 39.3299646 85.05297852 40.02938843 C84.6359668 40.62928589 84.21895508 41.22918335 83.78930664 41.84725952 C81.73392692 44.3341423 80.03436767 45.3285269 76.84085083 45.65510559 C75.22133011 45.67106529 75.22133011 45.67106529 73.5690918 45.68734741 C71.73170944 45.71132851 71.73170944 45.71132851 69.85720825 45.73579407 C68.5188234 45.74217086 67.18043355 45.74756357 65.84204102 45.75204468 C64.46825055 45.76101284 63.09446108 45.77013472 61.72067261 45.77940369 C58.84069446 45.79589117 55.96083252 45.80359326 53.08081055 45.80648804 C49.39618392 45.81187046 45.71265441 45.84954316 42.02833748 45.8952322 C39.19037929 45.92502428 36.35268455 45.93221204 33.51458359 45.93321419 C32.15661471 45.93741269 30.79864477 45.94983251 29.44083023 45.97073174 C18.55752402 46.12490475 18.55752402 46.12490475 14.34082031 43.09628296 C13.44036987 41.7521936 13.44036987 41.7521936 12.52172852 40.38095093 C11.98249756 39.71120239 11.4432666 39.04145386 10.88769531 38.35140991 C10.42016846 37.69986938 9.9526416 37.04832886 9.47094727 36.37704468 C8.67563599 35.27453369 8.67563599 35.27453369 7.86425781 34.14974976 C7.31809814 33.38042114 6.77193848 32.61109253 6.20922852 31.81845093 C5.64179932 31.02140747 5.07437012 30.22436401 4.48974609 29.40316772 C3.35583742 27.80551184 2.22451413 26.20601748 1.09594727 24.60458374 C-0.28757887 22.65031017 -1.69102805 20.71292234 -3.10327148 18.77938843 C-4.18608398 17.25184937 -4.18608398 17.25184937 -5.29077148 15.69345093 C-6.22856445 14.38827515 -6.22856445 14.38827515 -7.18530273 13.05673218 C-8.86779692 9.57483333 -8.98942305 7.19903085 -8.47827148 3.38095093 C-5.72653048 0.7272372 -3.77957269 0.00553183 0 0 Z " fill="#F9FBFB" transform="translate(207.478271484375,389.6190490722656)"></path><path d="M0 0 C5.94 0.99 5.94 0.99 12 2 C11.47446779 15.13897573 9.73979988 27.9993409 7.83984375 41 C7.52683478 43.17423662 7.21439048 45.34855459 6.90248108 47.52294922 C6.08774976 53.19202357 5.26545145 58.85997413 4.44146729 64.52770996 C3.59890251 70.33290676 2.76364395 76.13915435 1.92773438 81.9453125 C0.29222692 93.29790369 -1.35129209 104.6493189 -3 116 C-4.60407328 116.02708567 -6.2082785 116.04643483 -7.8125 116.0625 C-8.70582031 116.07410156 -9.59914062 116.08570313 -10.51953125 116.09765625 C-13 116 -13 116 -16 115 C-16.15826319 108.75588543 -15.56102726 102.8707376 -14.63891602 96.70019531 C-14.49421875 95.7008345 -14.34952148 94.70147369 -14.20043945 93.67182922 C-13.72377857 90.38976314 -13.23898217 87.10895703 -12.75390625 83.828125 C-12.41955826 81.53992019 -12.08565683 79.25165009 -11.75218201 76.96331787 C-11.05368433 72.17831506 -10.35144964 67.39388146 -9.64624023 62.60986328 C-8.74195446 56.47489089 -7.84444962 50.33895166 -6.94940281 44.20262527 C-6.26059692 39.48240286 -5.5695156 34.76251607 -4.87760735 30.0427475 C-4.54588536 27.779751 -4.21457069 25.51669476 -3.8836689 23.25357819 C-3.42139293 20.09614462 -2.95636885 16.93912858 -2.49047852 13.78222656 C-2.28547981 12.37796165 -2.28547981 12.37796165 -2.07633972 10.94532776 C-1.94875275 10.08473251 -1.82116577 9.22413727 -1.68971252 8.33746338 C-1.52517248 7.21924383 -1.52517248 7.21924383 -1.35730839 6.07843399 C-1.00557054 4.03240341 -0.50351474 2.01405897 0 0 Z " fill="#F8FBFA" transform="translate(258,174)"></path><path d="M0 0 C25.74 0 51.48 0 78 0 C74.535 5.445 74.535 5.445 71 11 C70.10289307 12.51770996 69.20578613 14.03541992 68.28149414 15.59912109 C65.75737237 18.85637755 63.80910707 19.6189846 59.75170898 20.19384766 C57.66866147 20.3137708 55.5823789 20.38435123 53.49609375 20.4140625 C51.82378441 20.46111832 51.82378441 20.46111832 50.11769104 20.50912476 C47.76036993 20.55830402 45.40250211 20.58552875 43.04467773 20.59228516 C39.46494842 20.62475106 35.9090745 20.7953219 32.33398438 20.97265625 C16.09914132 21.35362161 16.09914132 21.35362161 10.58428955 17.16540527 C6.90982902 13.28827313 0 5.72069475 0 0 Z " fill="#24826F" transform="translate(217,403)"></path><path d="M0 0 C7.57142857 4.14285714 7.57142857 4.14285714 10 7 C8.5763191 10.05327319 6.88673962 12.66605604 4.8828125 15.37109375 C4.27566406 16.19287109 3.66851562 17.01464844 3.04296875 17.86132812 C2.41003906 18.71146484 1.77710938 19.56160156 1.125 20.4375 C0.49980469 21.28376953 -0.12539062 22.13003906 -0.76953125 23.00195312 C-3.77623598 27.06068668 -6.80285763 31.08791875 -10 35 C-8.64130065 38.85307922 -6.89784291 41.70244052 -4.375 44.90625 C-3.66859375 45.81503906 -2.9621875 46.72382813 -2.234375 47.66015625 C-1.49703125 48.59730469 -0.7596875 49.53445312 0 50.5 C1.46372015 52.36035761 2.92226009 54.22480541 4.375 56.09375 C5.34566406 57.32641602 5.34566406 57.32641602 6.3359375 58.58398438 C8 61 8 61 10 66 C7.03 68.31 4.06 70.62 1 73 C-3.9480937 68.40878635 -7.87790098 63.1251051 -11.9375 57.75 C-12.62779297 56.84636719 -13.31808594 55.94273437 -14.02929688 55.01171875 C-16.04345273 52.35799681 -18.02754681 49.68482557 -20 47 C-20.61891113 46.17435547 -21.23782227 45.34871094 -21.87548828 44.49804688 C-22.43349121 43.72009766 -22.99149414 42.94214844 -23.56640625 42.140625 C-24.06213135 41.46032227 -24.55785645 40.78001953 -25.06860352 40.07910156 C-26.32398781 37.27678109 -25.9547872 35.88745675 -25 33 C-23.76000977 30.89453125 -23.76000977 30.89453125 -22.19140625 28.8125 C-21.61350342 28.03696777 -21.03560059 27.26143555 -20.44018555 26.46240234 C-19.82054932 25.64980957 -19.20091309 24.8372168 -18.5625 24 C-17.62047729 22.74437256 -17.62047729 22.74437256 -16.65942383 21.46337891 C-14.78274169 18.96798672 -12.893571 16.48259202 -11 14 C-10.1961084 12.94184082 -10.1961084 12.94184082 -9.37597656 11.86230469 C-1.48884855 1.48884855 -1.48884855 1.48884855 0 0 Z " fill="#FAFCFC" transform="translate(218,196)"></path><path d="M0 0 C4.42860001 4.18673673 8.10424695 8.79722686 11.8125 13.625 C12.42689941 14.42317139 13.04129883 15.22134277 13.67431641 16.04370117 C14.89422598 17.63247668 16.11205647 19.22285108 17.32763672 20.81494141 C18.77164642 22.70164022 20.22887693 24.5768877 21.69140625 26.44921875 C22.77228516 27.86654297 22.77228516 27.86654297 23.875 29.3125 C24.49117188 30.11300781 25.10734375 30.91351563 25.7421875 31.73828125 C27.26084982 34.46904363 27.28967513 35.90877747 27 39 C25.90527344 40.96606445 25.90527344 40.96606445 24.359375 42.86328125 C23.78848145 43.57822754 23.21758789 44.29317383 22.62939453 45.02978516 C22.00919434 45.78308105 21.38899414 46.53637695 20.75 47.3125 C19.47002677 48.90909299 18.19140885 50.50677336 16.9140625 52.10546875 C16.2634082 52.91419434 15.61275391 53.72291992 14.94238281 54.55615234 C11.92418618 58.3535566 9.02112922 62.23415566 6.125 66.125 C5.60776367 66.81762939 5.09052734 67.51025879 4.55761719 68.22387695 C3.37019883 69.81476525 2.18484125 71.40719143 1 73 C-0.51056694 72.10085301 -2.00825429 71.18003899 -3.5 70.25 C-4.75296875 69.48429687 -4.75296875 69.48429687 -6.03125 68.703125 C-6.6809375 68.14109375 -7.330625 67.5790625 -8 67 C-8 62.63545442 -7.61258007 61.9841187 -5.11328125 58.6640625 C-4.50419922 57.84679687 -3.89511719 57.02953125 -3.26757812 56.1875 C-2.29981445 54.9190625 -2.29981445 54.9190625 -1.3125 53.625 C-0.37374023 52.36816406 -0.37374023 52.36816406 0.58398438 51.0859375 C3.28639226 47.48649998 5.99242035 43.98024895 9.01953125 40.6484375 C11.23316487 38.29967295 11.23316487 38.29967295 10.84204102 36.13720703 C9.7744256 33.42746353 8.2927455 31.45898721 6.5078125 29.15625 C5.80269531 28.23972656 5.09757812 27.32320312 4.37109375 26.37890625 C3.62988281 25.42886719 2.88867188 24.47882813 2.125 23.5 C1.39152344 22.54996094 0.65804688 21.59992188 -0.09765625 20.62109375 C-1.46428622 18.85119593 -2.83362952 17.08338755 -4.20654297 15.31835938 C-5.82463376 13.22669178 -7.41959383 11.1202207 -9 9 C-7.48328036 4.44984107 -3.83108947 2.49942736 0 0 Z " fill="#FAFCFC" transform="translate(293,196)"></path><path d="M0 0 C12.21 0 24.42 0 37 0 C37 4.29 37 8.58 37 13 C24.79 13 12.58 13 0 13 C0 8.71 0 4.42 0 0 Z " fill="#FCFDFD" transform="translate(379,224)"></path><path d="M0 0 C12.21 0 24.42 0 37 0 C37 4.29 37 8.58 37 13 C24.79 13 12.58 13 0 13 C0 8.71 0 4.42 0 0 Z " fill="#FBFDFC" transform="translate(96,224)"></path><path d="M0 0 C3.96 0 7.92 0 12 0 C12 12.54 12 25.08 12 38 C8.04 38 4.08 38 0 38 C0 25.46 0 12.92 0 0 Z " fill="#FFFFFF" transform="translate(250,77)"></path><path d="M0 0 C4 2 4 2 7 4 C7 4.66 7 5.32 7 6 C7.99 6.33 8.98 6.66 10 7 C8.4152642 10.86328627 5.94043113 13.28876923 2.9921875 16.203125 C2.50670441 16.6857782 2.02122131 17.1684314 1.52102661 17.66571045 C-0.02299866 19.19858562 -1.57384824 20.72434004 -3.125 22.25 C-4.17624009 23.29120361 -5.22702657 24.33286541 -6.27734375 25.375 C-8.84633004 27.92199464 -11.42148161 30.46265177 -14 33 C-15.13199353 32.0919838 -16.25532363 31.17316174 -17.375 30.25 C-18.00148438 29.73953125 -18.62796875 29.2290625 -19.2734375 28.703125 C-21 27 -21 27 -23 23 C-15.41 15.41 -7.82 7.82 0 0 Z " fill="#FAFCFC" transform="translate(365,114)"></path><path d="M0 0 C3.76603869 1.56282982 6.13639151 3.9063475 8.984375 6.7890625 C9.44483215 7.25234955 9.90528931 7.7156366 10.37969971 8.19296265 C11.84125078 9.66565898 13.29567168 11.14517403 14.75 12.625 C15.74302611 13.62806322 16.73651089 14.63067257 17.73046875 15.6328125 C20.15897941 18.08330835 22.58114675 20.5399667 25 23 C23 27 23 27 16 33 C8.08 25.08 0.16 17.16 -8 9 C-2 2 -2 2 0 0 Z " fill="#FBFCFC" transform="translate(145,114)"></path></svg>