<svg version="1.1" xmlns="http://www.w3.org/2000/svg" width="16px" height="16px" fill="currentColor" viewBox="0 0 512 512"><path d="M0 0 C168.96 0 337.92 0 512 0 C512 168.96 512 337.92 512 512 C343.04 512 174.08 512 0 512 C0 343.04 0 174.08 0 0 Z " fill="#3F52D5" transform="translate(0,0)"></path><path d="M0 0 C0.67530258 -0.00145523 1.35060516 -0.00291046 2.04637146 -0.00440979 C3.46935353 -0.00275445 4.89235417 0.00876623 6.31518555 0.02954102 C8.49279718 0.05854984 10.66798051 0.05013491 12.84570312 0.03710938 C14.23048057 0.0433458 15.61525035 0.05173601 17 0.0625 C18.25756104 0.07224854 19.51512207 0.08199707 20.81079102 0.09204102 C23.93359375 0.49609375 23.93359375 0.49609375 25.61705017 1.6971283 C27.39394761 4.12513536 27.23697963 5.7091896 27.12109375 8.68359375 C27.08048828 10.03517578 27.08048828 10.03517578 27.0390625 11.4140625 C27.00425781 12.10113281 26.96945313 12.78820312 26.93359375 13.49609375 C27.51282736 13.49343571 28.09206098 13.49077767 28.68884712 13.48803908 C63.01791893 13.33139707 97.34690948 13.21129037 131.67626077 13.13863644 C135.79809047 13.12988148 139.91991943 13.12082123 144.04174805 13.11157227 C144.86233094 13.10973609 145.68291383 13.10789992 146.52836286 13.1060081 C159.81569161 13.07554771 173.10280839 13.02035516 186.39001138 12.95602418 C200.02363157 12.89056645 213.65714073 12.85168295 227.29091161 12.83747429 C235.7040105 12.82786866 244.11651026 12.79753005 252.52942472 12.74067848 C258.29827529 12.7036801 264.06681609 12.69249212 269.83577669 12.70158411 C273.16480098 12.70606889 276.49193442 12.6953685 279.82091713 12.66165543 C283.43203231 12.62687436 287.04057516 12.63518092 290.65174866 12.65431213 C291.70136955 12.63392224 292.75099044 12.61353235 293.83241802 12.59252459 C299.09407684 12.6679806 302.11124213 13.05899653 305.91995907 16.85729885 C306.93031537 18.06539393 307.93505298 19.27821448 308.93359375 20.49609375 C310.07988172 21.5397583 311.24474006 22.56368737 312.43359375 23.55859375 C316.53869407 27.09443211 320.48362395 30.78937014 324.43359375 34.49609375 C330.10806081 39.82943636 330.10806081 39.82943636 335.93359375 44.99609375 C339.92621114 48.43344647 343.76931385 52.02782257 347.62109375 55.62109375 C348.26369141 56.21986328 348.90628906 56.81863281 349.56835938 57.43554688 C359.65067897 66.86739424 359.65067897 66.86739424 361.05859375 69.99609375 C360.93359375 72.49609375 360.93359375 72.49609375 359.0349884 75.11686707 C354.71679957 78.42955418 351.48636027 78.16760962 346.1862793 78.0637207 C344.72214851 78.0648159 344.72214851 78.0648159 343.22843933 78.06593323 C340.00849456 78.06245528 336.79000394 78.02358294 333.5703125 77.984375 C331.335442 77.97504765 329.10056126 77.96793117 326.86567688 77.9629364 C320.98818657 77.94386072 315.11131568 77.89475405 309.23406982 77.8394165 C302.17984569 77.77923603 295.12541424 77.7563106 288.07100677 77.72714996 C277.35810519 77.67869042 266.64656224 77.58287747 255.93359375 77.49609375 C255.93359375 94.32609375 255.93359375 111.15609375 255.93359375 128.49609375 C259.23359375 129.48609375 262.53359375 130.47609375 265.93359375 131.49609375 C268.69875462 132.49389099 271.4389146 133.51006823 274.17578125 134.578125 C274.93043167 134.86908554 275.68508209 135.16004608 276.46260071 135.45982361 C278.91275254 136.40561873 281.36075365 137.3568332 283.80859375 138.30859375 C285.52245426 138.97255809 287.23640422 139.63629155 288.95043945 140.29980469 C291.60009361 141.3259155 294.2494962 142.35265554 296.89820862 143.38119507 C302.19433898 145.43765855 307.49505734 147.48155171 312.80102539 149.51249695 C316.11838197 150.78284049 319.43377357 152.0582589 322.74884033 153.33456421 C324.32238727 153.93919376 325.89672279 154.54177526 327.47186279 155.14224243 C329.66324929 155.97825781 331.85144452 156.82215043 334.0390625 157.66796875 C334.68208817 157.91111313 335.32511383 158.15425751 335.98762512 158.4047699 C339.38344932 159.72774787 342.28753002 160.97028952 344.93359375 163.49609375 C345.43695831 165.94679165 345.43695831 165.94679165 345.44152832 168.917099 C345.45844727 170.60585899 345.45844727 170.60585899 345.47570801 172.32873535 C345.46356262 174.18262878 345.46356262 174.18262878 345.45117188 176.07397461 C345.46168579 178.02546165 345.46168579 178.02546165 345.47241211 180.01637268 C345.49066652 183.58674885 345.48356914 187.15666331 345.47089577 190.72704768 C345.46077674 194.4621333 345.47015858 198.19717908 345.47644043 201.93226624 C345.48372098 208.20613713 345.47411954 214.47981979 345.45507812 220.75366211 C345.4333179 228.00706614 345.44035263 235.26002029 345.46238375 242.51341337 C345.4805376 248.73942634 345.48309591 254.96530389 345.47262907 261.19133478 C345.46639277 264.9105034 345.46556186 268.62946061 345.47877502 272.34861565 C345.49247851 276.49562067 345.4734842 280.64185085 345.45117188 284.78881836 C345.4592688 286.02272308 345.46736572 287.25662781 345.47570801 288.52792358 C345.46442871 289.6565834 345.45314941 290.78524323 345.44152832 291.94810486 C345.43926617 293.41897254 345.43926617 293.41897254 345.43695831 294.91955471 C344.76115327 298.3787535 343.8323649 299.49566052 340.93359375 301.49609375 C338.26777304 301.89129333 336.01331703 302.04140343 333.34901428 302.01075745 C332.58141657 302.01770297 331.81381885 302.0246485 331.0229606 302.0318045 C328.44868737 302.05011328 325.87533168 302.03979982 323.30102539 302.02954102 C321.45634775 302.03659756 319.61167589 302.04534146 317.76701355 302.0556488 C312.75458327 302.07818258 307.74246815 302.07519371 302.73000646 302.06632733 C298.54744771 302.06122314 294.36494849 302.0685054 290.18239588 302.07579941 C280.31628734 302.09281119 270.45033342 302.08921979 260.58422852 302.07250977 C250.40145065 302.05558655 240.21910139 302.07142292 230.03637034 302.10373265 C221.29739807 302.13041218 212.55855936 302.13770898 203.81955045 302.12921757 C198.59854239 302.12428364 193.37779227 302.12652915 188.15681648 302.14700508 C183.24747073 302.16533646 178.3387424 302.15943463 173.42943001 302.13480568 C171.62707834 302.12978971 169.82467985 302.13330791 168.02236557 302.14595413 C165.56258301 302.16184889 163.10484251 302.14696994 160.64515686 302.12428284 C159.93095127 302.13611857 159.21674567 302.14795429 158.48089749 302.16014868 C154.75161064 302.09020958 153.01171689 301.55423822 149.99088287 299.30593109 C147.68063464 296.1506032 147.30775158 294.76769873 147.30540466 290.9105072 C147.2927507 289.79874619 147.28009674 288.68698517 147.26705933 287.54153442 C147.27875153 286.3314975 147.29044373 285.12146057 147.30249023 283.87475586 C147.29175728 281.95209145 147.29175728 281.95209145 147.2808075 279.99058533 C147.26231336 276.48219593 147.27521775 272.97456771 147.29489779 269.46621013 C147.31129905 265.79253317 147.30246953 262.11890386 147.29737854 258.44520569 C147.29285977 252.27739315 147.30871509 246.1098841 147.33666992 239.94213867 C147.36873535 232.81250931 147.36870008 225.68342683 147.35145515 218.55375856 C147.33559024 211.69208099 147.34232237 204.83060382 147.35939217 197.96893501 C147.36626265 195.04991887 147.36523039 192.13106337 147.35784721 189.21204948 C147.34876178 185.13706967 147.37271921 181.06293459 147.40014648 176.98803711 C147.39035767 175.16994537 147.39035767 175.16994537 147.38037109 173.31512451 C147.39945778 171.65171272 147.39945778 171.65171272 147.41893005 169.95469666 C147.42173697 168.99146453 147.4245439 168.0282324 147.42743587 167.03581142 C148.08241513 163.74936175 149.36838085 162.58520203 151.93359375 160.49609375 C154.60205078 159.22265625 154.60205078 159.22265625 157.69140625 158.12109375 C158.85752441 157.69924805 160.02364258 157.27740234 161.22509766 156.84277344 C162.50283331 156.39360596 163.78066824 155.94472078 165.05859375 155.49609375 C166.39013908 155.01946969 167.72135029 154.54191132 169.05224609 154.06347656 C172.60627535 152.78950081 176.1653626 151.53030723 179.72607422 150.27514648 C181.93554774 149.49540417 184.1437599 148.71219439 186.3515625 147.92773438 C194.94906795 144.87297454 203.55352485 141.83854593 212.16357422 138.81933594 C215.53763954 137.63507004 218.90989131 136.4458503 222.28125 135.25390625 C224.06116674 134.62621367 225.84111176 133.99860128 227.62109375 133.37109375 C228.38566895 133.10006836 229.15024414 132.82904297 229.93798828 132.54980469 C230.64165527 132.30262695 231.34532227 132.05544922 232.0703125 131.80078125 C232.65514404 131.59437012 233.23997559 131.38795898 233.8425293 131.17529297 C236.84721469 130.19934028 239.89593614 129.36399592 242.93359375 128.49609375 C242.93359375 111.66609375 242.93359375 94.83609375 242.93359375 77.49609375 C199.04359375 77.49609375 155.15359375 77.49609375 109.93359375 77.49609375 C109.98 97.445625 110.02640625 117.39515625 110.07421875 137.94921875 C110.09464629 150.55468888 110.11409089 163.16014888 110.12890625 175.765625 C110.13673803 182.38492879 110.14482004 189.00423219 110.15332031 195.62353516 C110.15437531 196.45318515 110.1554303 197.28283515 110.15651727 198.13762605 C110.17392618 211.5409806 110.20546784 224.94426667 110.24220493 238.34758058 C110.27957864 252.09758652 110.30182203 265.84755654 110.30994773 279.59761119 C110.31544293 288.08578011 110.33281417 296.5737556 110.36525962 305.061865 C110.38636348 310.87830508 110.3928032 316.6946448 110.38759926 322.51112041 C110.38503093 325.8697162 110.39120425 329.22769972 110.41041565 332.58628273 C110.43021076 336.22415699 110.42557043 339.86119226 110.41461182 343.49908447 C110.42626318 344.56522578 110.43791455 345.6313671 110.44991899 346.72981572 C110.39184715 353.82357136 110.39184715 353.82357136 108.12410355 357.15166092 C104.88693814 359.13848219 101.7916864 359.05416245 98.10742188 359.01367188 C96.93112465 359.02418579 96.93112465 359.02418579 95.73106384 359.03491211 C93.14196233 359.05250019 90.55395615 359.04086705 87.96484375 359.02734375 C86.16410106 359.03003844 84.36335978 359.03392068 82.56262207 359.03894043 C78.78981667 359.04483656 75.01739024 359.03626894 71.24462891 359.01757812 C66.40882452 358.99478836 61.5739081 359.00791085 56.73813629 359.03186798 C53.02005321 359.04632294 49.30218061 359.04172139 45.58409119 359.03135681 C43.80110062 359.02868868 42.01809093 359.03196233 40.23512268 359.04127502 C37.74282218 359.05143586 35.25195907 359.03594746 32.75976562 359.01367188 C32.02302109 359.0217688 31.28627655 359.02986572 30.52720642 359.03820801 C27.4885477 358.98789872 25.34045988 358.75109779 22.74308395 357.12318802 C19.88438762 352.972812 20.39629141 348.8793092 20.45257568 343.95465088 C20.44915798 342.8690918 20.44574028 341.78353273 20.44221902 340.66507792 C20.43561243 337.01505967 20.45766307 333.3657712 20.47949219 329.71582031 C20.48062006 327.10442624 20.47998799 324.4930309 20.47772217 321.88163757 C20.47562411 316.25309903 20.4881807 310.62474588 20.51067352 304.99625397 C20.54317313 296.85841853 20.55359843 288.7206728 20.55862549 280.5827795 C20.56738136 267.37984254 20.59400482 254.17700439 20.63183594 240.97412109 C20.66854849 228.14827977 20.69686394 215.32246528 20.71386719 202.49658203 C20.71491808 201.7060791 20.71596898 200.91557616 20.71705171 200.10111859 C20.72227184 196.13542242 20.72732668 192.16972605 20.73229933 188.20402956 C20.77377045 155.30131235 20.84422678 122.39871627 20.93359375 89.49609375 C19.69270996 89.52751465 19.69270996 89.52751465 18.42675781 89.55957031 C14.67916005 89.64270994 10.93175626 89.69474906 7.18359375 89.74609375 C5.88164063 89.77960938 4.5796875 89.813125 3.23828125 89.84765625 C1.98789063 89.86054688 0.7375 89.8734375 -0.55078125 89.88671875 C-1.70288086 89.90766602 -2.85498047 89.92861328 -4.04199219 89.95019531 C-7.72420207 89.3973288 -8.87461127 88.45914314 -11.06640625 85.49609375 C-11.46118589 82.75312955 -11.61411032 80.41110168 -11.58398438 77.66992188 C-11.59099365 76.88572372 -11.59800293 76.10152557 -11.60522461 75.29356384 C-11.62281269 72.70446233 -11.61117955 70.11645615 -11.59765625 67.52734375 C-11.60035094 65.72660106 -11.60423318 63.92585978 -11.60925293 62.12512207 C-11.61514906 58.35231667 -11.60658144 54.57989024 -11.58789062 50.80712891 C-11.56510086 45.97132452 -11.57822335 41.1364081 -11.60218048 36.30063629 C-11.61663544 32.58255321 -11.61203389 28.86468061 -11.60166931 25.14659119 C-11.59900118 23.36360062 -11.60227483 21.58059093 -11.61158752 19.79762268 C-11.62174836 17.30532218 -11.60625996 14.81445907 -11.58398438 12.32226562 C-11.5920813 11.58552109 -11.60017822 10.84877655 -11.60852051 10.08970642 C-11.55207204 6.68024387 -11.29743381 4.80652999 -9.23731995 2.03831482 C-6.1274487 -0.17094341 -3.78604239 -0.00557377 0 0 Z " fill="#FAFBFE" transform="translate(81.06640625,76.50390625)"></path><path d="M0 0 C56.43 0 112.86 0 171 0 C171 37.95 171 75.9 171 115 C114.57 115 58.14 115 0 115 C0 77.05 0 39.1 0 0 Z " fill="#4155D7" transform="translate(242,250)"></path><path d="M0 0 C0 36.63 0 73.26 0 111 C-3.47232839 109.2638358 -5.09903954 108.14349411 -7.72363281 105.48754883 C-8.43827698 104.76952591 -9.15292114 104.05150299 -9.88922119 103.3117218 C-10.65280945 102.53467392 -11.41639771 101.75762604 -12.203125 100.95703125 C-12.99974548 100.1552092 -13.79636597 99.35338715 -14.61712646 98.52726746 C-17.1662075 95.96037582 -19.7085286 93.38692442 -22.25 90.8125 C-24.77799819 88.25675608 -27.30747833 85.7025261 -29.84002686 83.15129089 C-31.41452445 81.5646798 -32.98634314 79.97540406 -34.55499268 78.38301086 C-38.64775546 74.25349403 -42.82414192 70.30343976 -47.24578857 66.52688599 C-49.95883713 64.16541703 -52.48107103 61.62755021 -55 59.0625 C-55.48855469 58.56943359 -55.97710937 58.07636719 -56.48046875 57.56835938 C-57.65603525 56.38126771 -58.82838826 55.19099502 -60 54 C-57.71475421 51.04614518 -55.49505612 48.38954898 -52.625 46 C-48.64815255 42.60404038 -44.81969908 39.0700059 -41 35.5 C-36.76246611 31.545746 -32.49710883 27.64707686 -28.109375 23.859375 C-25.25971225 21.34745006 -22.47498203 18.76803872 -19.6875 16.1875 C-19.13465332 15.67662842 -18.58180664 15.16575684 -18.01220703 14.6394043 C-15.79543766 12.59020022 -13.57924345 10.54049981 -11.37207031 8.48095703 C-9.85606377 7.06642286 -8.33477001 5.65778672 -6.8125 4.25 C-5.93207031 3.43015625 -5.05164063 2.6103125 -4.14453125 1.765625 C-2 0 -2 0 0 0 Z " fill="#3C49CC" transform="translate(178,226)"></path><path d="M0 0 C7.77464789 6.6639839 7.77464789 6.6639839 10.4375 9.4375 C12.77592312 11.82542953 15.18138721 14.0589198 17.72265625 16.22875977 C21.99783664 19.94707397 26.0100556 23.8821394 30 27.90234375 C30.7211499 28.6249086 31.4422998 29.34747345 32.18530273 30.0919342 C34.45925415 32.37142604 36.72967954 34.6543924 39 36.9375 C40.55315235 38.49567506 42.10653567 40.05361993 43.66015625 41.61132812 C47.44277586 45.40489759 51.2225169 49.20131615 55 53 C53.18654725 56.91376597 50.660696 59.61253398 47.6171875 62.61328125 C47.08408966 63.14592087 46.55099182 63.67856049 46.0017395 64.2273407 C44.87266483 65.35339921 43.74116559 66.4770312 42.60742188 67.59838867 C40.89664129 69.29108744 39.19382508 70.99147489 37.4921875 72.69335938 C32.44598278 77.72263565 27.3734272 82.63451841 21.953125 87.26293945 C17.80119684 90.95556056 13.95968851 94.98012325 10.0625 98.9375 C8.36815673 100.65718872 6.67166723 102.37476647 4.97265625 104.08984375 C4.23281494 104.84128662 3.49297363 105.59272949 2.73071289 106.36694336 C1 108 1 108 0 108 C0 72.36 0 36.72 0 0 Z " fill="#3840C5" transform="translate(115,295)"></path><path d="M0 0 C4.26728452 3.65767244 8.26526886 7.14130406 12.20092773 11.08740234 C12.67012131 11.55644989 13.13931488 12.02549744 13.62272644 12.50875854 C15.14540331 14.03212212 16.66452495 15.55897678 18.18359375 17.0859375 C19.24954109 18.15375345 20.31571205 19.22134622 21.38209534 20.28872681 C24.16750139 23.07792318 26.94988929 25.870111 29.73162842 28.66296387 C32.57901064 31.52063575 35.42927986 34.37542502 38.27929688 37.23046875 C43.85567081 42.81751842 49.42885494 48.40773634 55 54 C54.06453557 55.10737905 53.12673658 56.21278619 52.18798828 57.31738281 C51.66600861 57.933172 51.14402893 58.54896118 50.60623169 59.18341064 C48.20197786 61.90253388 45.56985759 64.32408861 42.875 66.75 C42.03521606 67.51534058 42.03521606 67.51534058 41.1784668 68.29614258 C40.02162893 69.35022267 38.86334524 70.4027182 37.70361328 71.45361328 C35.5651692 73.39470024 33.44004386 75.34999821 31.31494141 77.30566406 C26.43941797 81.78981464 21.53092706 86.23613505 16.59375 90.65234375 C14.6398056 92.42089885 12.70524922 94.20328405 10.78125 96.00390625 C9.96333984 96.76574219 9.96333984 96.76574219 9.12890625 97.54296875 C8.05994557 98.54015269 6.99470035 99.54133757 5.93359375 100.546875 C2.22321588 104 2.22321588 104 0 104 C0 69.68 0 35.36 0 0 Z " fill="#3D4CCF" transform="translate(115,160)"></path><path d="M0 0 C0 20.46 0 40.92 0 62 C-20.79 62 -41.58 62 -63 62 C-59.16288064 57.52336074 -55.38548347 53.23551744 -51.2265625 49.09375 C-50.69912445 48.56535522 -50.1716864 48.03696045 -49.62826538 47.49255371 C-48.52195867 46.38557246 -47.41441213 45.27982896 -46.30566406 44.17529297 C-44.63231271 42.50728934 -42.96435883 40.83402327 -41.296875 39.16015625 C-36.36410719 34.2246318 -31.3970868 29.40101649 -26.08691406 24.86865234 C-21.20221301 20.49482199 -16.66733079 15.72777863 -12.0625 11.0625 C-9.99372962 8.96721097 -7.92170002 6.87522387 -5.84765625 4.78515625 C-4.94023682 3.86613525 -4.03281738 2.94711426 -3.09790039 2.00024414 C-1 0 -1 0 0 0 Z " fill="#373EC2" transform="translate(178,360)"></path><path d="M0 0 C3.11895029 1.42600655 5.59657812 3.14615731 8.25 5.3125 C9.56291016 6.37791016 9.56291016 6.37791016 10.90234375 7.46484375 C11.93516367 8.30956846 12.96769293 9.15464863 14 10 C16.60257148 12.12696046 19.2070147 14.25161009 21.8125 16.375 C22.49086914 16.92873291 23.16923828 17.48246582 23.86816406 18.05297852 C28.89856213 22.14450424 34.00190155 26.12832044 39.19067383 30.01708984 C40.4773392 30.98943802 41.74149373 31.991471 43 33 C43 33.33 43 33.66 43 34 C15.61 34 -11.78 34 -40 34 C-32.28775702 26.28775702 -24.11949912 19.45047466 -15.52734375 12.76171875 C-7.49210935 6.68613894 -7.49210935 6.68613894 0 0 Z " fill="#4459D9" transform="translate(163,107)"></path><path d="M0 0 C3.40241718 1.40557173 5.86709759 3.55747471 8.5625 5.99609375 C9.71397971 7.00508156 10.86768671 8.01153236 12.0234375 9.015625 C12.60963867 9.52561035 13.19583984 10.0355957 13.79980469 10.56103516 C16.51869681 12.87096373 19.34349596 15.03097102 22.1875 17.18359375 C39.03032224 29.99423822 39.03032224 29.99423822 40.5625 33.05859375 C13.1725 33.05859375 -14.2175 33.05859375 -42.4375 33.05859375 C-38.77311015 29.3942039 -35.20213161 26.18511393 -31.125 23.05859375 C-24.31262069 17.77314289 -17.61464085 12.35628766 -10.93359375 6.90625 C-10.33015137 6.42043457 -9.72670898 5.93461914 -9.10498047 5.43408203 C-7.62270448 4.21136711 -6.19891789 2.91851449 -4.78515625 1.6171875 C-2.4375 0.05859375 -2.4375 0.05859375 0 0 Z " fill="#4862E2" transform="translate(275.4375,107.94140625)"></path><path d="M0 0 C26.73 0 53.46 0 81 0 C77.44332104 3.55667896 73.90002375 6.90157453 70.0625 10.125 C69.50473877 10.59510498 68.94697754 11.06520996 68.37231445 11.54956055 C59.4839044 18.9938667 50.31894889 26.10397782 41 33 C36.22543375 29.94221452 31.86884524 26.546011 27.5 22.9375 C21.60289069 18.09842369 15.65945582 13.33295626 9.60546875 8.69116211 C6.08990742 5.96585905 3.18779234 3.18779234 0 0 Z " fill="#475FDF" transform="translate(179,102)"></path><path d="M0 0 C4.65060081 2.79036049 8.17842776 6.07136488 11.95703125 9.94921875 C13.76808204 11.76719517 15.61504344 13.45635501 17.5625 15.125 C21.77841848 18.7567852 25.86050533 22.52647955 29.9375 26.3125 C30.95082397 27.24763428 30.95082397 27.24763428 31.98461914 28.20166016 C32.61746826 28.79124512 33.25031738 29.38083008 33.90234375 29.98828125 C34.76073853 30.78552612 34.76073853 30.78552612 35.63647461 31.59887695 C37 33 37 33 38 35 C13.25 35 -11.5 35 -37 35 C-30.30057143 27.184 -30.30057143 27.184 -27.4375 24.8125 C-23.74610977 21.67164215 -20.1762714 18.42194589 -16.625 15.125 C-11.12962898 10.03049981 -5.58693176 4.99418731 0 0 Z " fill="#4B6BEA" transform="translate(380,106)"></path><path d="M0 0 C1.83473877 0.7439502 1.83473877 0.7439502 3.70654297 1.50292969 C5.01278928 2.04469537 6.31893981 2.58669204 7.625 3.12890625 C8.963323 3.67573912 10.30203107 4.22163049 11.64111328 4.76660156 C15.00122352 6.13661532 18.3564425 7.51819012 21.71057129 8.902771 C24.63451056 10.10726693 27.56334447 11.29967449 30.4921875 12.4921875 C35.54049649 14.5488323 40.58465869 16.61531502 45.625 18.69140625 C45.625 19.02140625 45.625 19.35140625 45.625 19.69140625 C7.675 19.69140625 -30.275 19.69140625 -69.375 19.69140625 C-66.79486753 17.97131794 -64.80517042 17.00306367 -61.9387207 15.95141602 C-61.04381424 15.62089737 -60.14890778 15.29037872 -59.22688293 14.94984436 C-58.26126938 14.59772385 -57.29565582 14.24560333 -56.30078125 13.8828125 C-54.8040815 13.33173073 -54.8040815 13.33173073 -53.27714539 12.76951599 C-50.08193884 11.59395629 -46.88477449 10.42382843 -43.6875 9.25390625 C-41.55260017 8.46976633 -39.41783296 7.68526525 -37.28320312 6.90039062 C-27.38493822 3.2613574 -27.38493822 3.2613574 -22.83169556 1.60574341 C-21.25913368 1.02046464 -19.69431189 0.41366601 -18.14071655 -0.22024536 C-11.18806854 -3.03483139 -6.87015512 -2.81955817 0 0 Z " fill="#4860DF" transform="translate(340.375,217.30859375)"></path><path d="M0 0 C25.41 0 50.82 0 77 0 C75.35 1.65 73.7 3.3 72 5 C71.42636719 5.58523437 70.85273438 6.17046875 70.26171875 6.7734375 C66.81735496 10.27762894 63.25319387 13.55280528 59.53125 16.7578125 C53.56864138 22.03950593 47.80566268 27.54698598 42 33 C39.23344582 31.70891619 36.95037933 30.2935196 34.6015625 28.34765625 C33.96412109 27.82373291 33.32667969 27.29980957 32.66992188 26.76000977 C31.99509766 26.19983154 31.32027344 25.63965332 30.625 25.0625 C29.19084481 23.88451438 27.75593453 22.70744752 26.3203125 21.53125 C25.59875977 20.93957031 24.87720703 20.34789063 24.13378906 19.73828125 C20.94994574 17.14457823 17.73103105 14.59705057 14.5 12.0625 C13.92572266 11.61156982 13.35144531 11.16063965 12.75976562 10.69604492 C9.58110216 8.20958457 6.37109488 5.77255429 3.125 3.375 C2.09375 2.59125 1.0625 1.8075 0 1 C0 0.67 0 0.34 0 0 Z " fill="#4967E7" transform="translate(289,102)"></path><path d="M0 0 C16.5 0 33 0 50 0 C50 16.17 50 32.34 50 49 C46.20110324 47.10055162 44.27345657 45.52157765 41.32324219 42.56616211 C39.94226349 41.18979836 39.94226349 41.18979836 38.53338623 39.78562927 C37.53770072 38.78304791 36.54220133 37.78028169 35.546875 36.77734375 C34.52162553 35.75090183 33.49600574 34.72482966 32.47003174 33.69911194 C30.32521355 31.55273204 28.18379075 29.40304056 26.04492188 27.25073242 C23.29702123 24.48578879 20.5425297 21.72752759 17.78571701 18.97147274 C15.66998162 16.85546617 13.55685671 14.7368693 11.44461823 12.61737251 C10.42927657 11.59883994 9.41332038 10.58091961 8.3967514 9.56361198 C6.98170187 8.14640641 5.57034161 6.72552001 4.15917969 5.30444336 C3.35405945 4.49551132 2.54893921 3.68657928 1.71942139 2.85313416 C0 1 0 1 0 0 Z " fill="#4053D5" transform="translate(128,154)"></path><path d="M0 0 C4.55833544 0.657575 7.94519187 1.77950983 12 4 C10.09236907 10.04060996 7.8822052 15.836512 5.296875 21.6171875 C4.94178864 22.42065109 4.58670227 23.22411469 4.22085571 24.05192566 C3.46067706 25.77129788 2.69876213 27.48990334 1.9352417 29.20779419 C-0.08576585 33.75576368 -2.09341256 38.30962323 -4.1015625 42.86328125 C-4.71340897 44.24969063 -4.71340897 44.24969063 -5.33761597 45.66410828 C-9.49739493 55.10287055 -13.57206658 64.577458 -17.625 74.0625 C-17.95213989 74.82778015 -18.27927979 75.5930603 -18.61633301 76.38153076 C-20.4134713 80.58658828 -22.20805087 84.79272794 -24 89 C-28.2205965 87.6404241 -32.0681098 86.05956153 -36 84 C-34.08830794 77.95102173 -31.87676664 72.14096065 -29.296875 66.34765625 C-28.94178864 65.54145844 -28.58670227 64.73526062 -28.22085571 63.90463257 C-27.06769549 61.28889564 -25.90890695 58.67569521 -24.75 56.0625 C-23.94835905 54.24699013 -23.14709376 52.43131434 -22.34619141 50.61547852 C-20.70921352 46.90576937 -19.06996724 43.19707605 -17.42871094 39.48925781 C-15.10641968 34.24239396 -12.79043762 28.99276742 -10.4765625 23.7421875 C-6.98782327 15.82659979 -3.49536589 7.91266385 0 0 Z " fill="#FAFBFE" transform="translate(334,265)"></path><path d="M0 0 C1.54296875 1.609375 1.54296875 1.609375 3.1875 3.75 C4.01314453 4.79414063 4.01314453 4.79414063 4.85546875 5.859375 C6 8 6 8 5.80126953 9.93823242 C4.78354716 12.55696046 3.57293233 13.46397031 1.32421875 15.12890625 C0.57849609 15.68900391 -0.16722656 16.24910156 -0.93554688 16.82617188 C-1.71994141 17.39916016 -2.50433594 17.97214844 -3.3125 18.5625 C-4.08529297 19.13935547 -4.85808594 19.71621094 -5.65429688 20.31054688 C-7.09983262 21.38817326 -8.54848075 22.46164642 -10.0012207 23.52954102 C-11.39678063 24.55622447 -12.77165535 25.61136193 -14.12963867 26.68725586 C-16 28 -16 28 -18 28 C-18 28.66 -18 29.32 -18 30 C-17.12601562 30.38091797 -17.12601562 30.38091797 -16.234375 30.76953125 C-13.75811967 32.13320333 -12.19479374 33.64225203 -10.25 35.6875 C-6.84310587 39.20966499 -3.2757607 42.37481682 0.53125 45.45703125 C2 47 2 47 2 50 C0.46875 51.82421875 0.46875 51.82421875 -1.5 53.6875 C-2.1496875 54.31011719 -2.799375 54.93273437 -3.46875 55.57421875 C-3.9740625 56.04472656 -4.479375 56.51523437 -5 57 C-9.03590928 55.36041185 -11.8925513 52.51761823 -15 49.5625 C-18.44735016 46.30109212 -21.88595716 43.06241609 -25.51953125 40.0078125 C-26.07318359 39.5327124 -26.62683594 39.0576123 -27.19726562 38.56811523 C-28.73212429 37.25620082 -30.28171021 35.96157427 -31.83203125 34.66796875 C-34 32 -34 32 -34.76171875 28.55078125 C-33.67254691 23.47356483 -31.10723427 21.91700111 -27 19 C-26.25347168 18.43909668 -25.50694336 17.87819336 -24.73779297 17.30029297 C-22.32056903 15.48949451 -19.88264742 13.71037593 -17.4375 11.9375 C-10.8475962 7.17960417 -10.8475962 7.17960417 -4.53515625 2.06640625 C-2 0 -2 0 0 0 Z " fill="#FAFBFE" transform="translate(294,274)"></path><path d="M0 0 C2.3970612 0.22097157 3.63924037 0.65844046 5.39453125 2.3203125 C6.09642578 3.21363281 6.09642578 3.21363281 6.8125 4.125 C9.31303318 7.17752726 11.94379408 9.93265102 14.82421875 12.62109375 C15.85035278 13.59248291 15.85035278 13.59248291 16.8972168 14.58349609 C18.2859055 15.89044032 19.68962247 17.18161921 21.10864258 18.45556641 C25.91838643 23.03633207 25.91838643 23.03633207 26.3046875 27.59765625 C24.71584833 31.74100631 22.44185073 34.08431258 19.125 36.875 C18.54508301 37.38603271 17.96516602 37.89706543 17.36767578 38.42358398 C12.75960236 42.4526621 8.02915509 46.34620729 3.2421875 50.16015625 C1.0218368 51.89695637 1.0218368 51.89695637 -0.6171875 53.74609375 C-2 55 -2 55 -5 55 C-6.82421875 53.03125 -6.82421875 53.03125 -8.6875 50.5 C-9.31011719 49.6646875 -9.93273437 48.829375 -10.57421875 47.96875 C-11.04472656 47.3190625 -11.51523437 46.669375 -12 46 C-9.19475827 43.09126391 -6.32162702 40.37790277 -3.23046875 37.7734375 C-2.56982422 37.2165625 -1.90917969 36.6596875 -1.22851562 36.0859375 C0.14748758 34.93246496 1.52780643 33.78412362 2.91210938 32.640625 C3.56630859 32.08632813 4.22050781 31.53203125 4.89453125 30.9609375 C5.49112549 30.46384277 6.08771973 29.96674805 6.70239258 29.45458984 C8.33284607 27.95176351 8.33284607 27.95176351 8 25 C6.51090095 23.094658 6.51090095 23.094658 4.5 21.20703125 C3.778125 20.49482422 3.05625 19.78261719 2.3125 19.04882812 C1.549375 18.31083984 0.78625 17.57285156 0 16.8125 C-0.763125 16.06291016 -1.52625 15.31332031 -2.3125 14.54101562 C-4.20180839 12.68713177 -6.09775206 10.84058931 -8 9 C-7.04270084 7.87411986 -6.08412105 6.7493285 -5.125 5.625 C-4.59132813 4.99851562 -4.05765625 4.37203125 -3.5078125 3.7265625 C-2.38567993 2.44163349 -1.20628025 1.20628025 0 0 Z " fill="#FAFAFE" transform="translate(356,280)"></path><path d="M0 0 C4.29 0 8.58 0 13 0 C13 21.12 13 42.24 13 64 C8.71 64 4.42 64 0 64 C0 42.88 0 21.76 0 0 Z " fill="#4454D4" transform="translate(83,90)"></path><path d="M0 0 C13.53 0 27.06 0 41 0 C33.83312531 7.16687469 26.31820604 13.62931852 18.3215332 19.83764648 C13.48999605 23.59069795 8.78356234 27.46980163 4.109375 31.41796875 C2 33 2 33 0 33 C0 22.11 0 11.22 0 0 Z " fill="#4A5CD8" transform="translate(108,102)"></path></svg>