<svg version="1.1" xmlns="http://www.w3.org/2000/svg" width="16px" height="16px" fill="currentColor" viewBox="0 0 512 512"><path d="M0 0 C168.96 0 337.92 0 512 0 C512 168.96 512 337.92 512 512 C343.04 512 174.08 512 0 512 C0 343.04 0 174.08 0 0 Z " fill="#2D8F7A" transform="translate(0,0)"></path><path d="M0 0 C1.10142334 0.00737183 1.10142334 0.00737183 2.22509766 0.01489258 C21.90436895 0.42957357 40.26338016 9.14282801 53.875 23.3125 C65.82652138 37.15319697 72.46423927 52.54770808 72.1875 70.8125 C72.19072266 71.87597656 72.19394531 72.93945312 72.19726562 74.03515625 C72.06637252 93.43113435 65.11617034 110.25195861 51.5 124.1875 C39.95640376 135.3125 39.95640376 135.3125 33.875 135.3125 C33.9064209 136.78058105 33.9064209 136.78058105 33.93847656 138.27832031 C34.01097963 141.91602904 34.05683633 145.55367416 34.09472656 149.19189453 C34.1148188 150.76524604 34.14209799 152.33852308 34.17675781 153.91162109 C34.22538494 156.17564272 34.24799135 158.43867573 34.265625 160.703125 C34.28627014 161.40431458 34.30691528 162.10550415 34.32818604 162.82794189 C34.32965822 166.04584907 34.18269697 167.91306258 32.19232178 170.49687195 C29.34942125 172.72429241 27.92308117 172.8231656 24.34375 172.84594727 C22.68182617 172.86970177 22.68182617 172.86970177 20.98632812 172.89393616 C19.79458984 172.88897629 18.60285156 172.88401642 17.375 172.87890625 C16.14716797 172.88510483 14.91933594 172.89130341 13.65429688 172.89768982 C11.05860182 172.90479309 8.46286126 172.90160526 5.8671875 172.88891602 C1.88977479 172.8750515 -2.08528609 172.90911784 -6.0625 172.94726562 C-8.58333391 172.94821678 -11.10417077 172.94635817 -13.625 172.94140625 C-14.81673828 172.95466446 -16.00847656 172.96792267 -17.23632812 172.98158264 C-25.35672773 172.88972475 -25.35672773 172.88972475 -28.88183594 170.24121094 C-30.44186348 166.56601643 -30.57927017 163.8179534 -30.515625 159.82421875 C-30.50996521 159.12102005 -30.50430542 158.41782135 -30.49847412 157.6933136 C-30.47619769 155.46149752 -30.42602373 153.23132539 -30.375 151 C-30.35492343 149.48114309 -30.33667468 147.96226084 -30.3203125 146.44335938 C-30.27636357 142.73254455 -30.20739921 139.0226829 -30.125 135.3125 C-31.05908691 135.02060791 -31.99317383 134.72871582 -32.95556641 134.42797852 C-44.86781027 130.23547796 -54.54358059 117.35981285 -60.51953125 106.70703125 C-68.95579113 88.86978104 -71.01472944 68.25779637 -65.125 49.3125 C-61.50997002 40.16439356 -56.75709985 31.61207028 -50.125 24.3125 C-49.47144531 23.56742188 -48.81789063 22.82234375 -48.14453125 22.0546875 C-36.09322973 9.10337986 -17.90733828 -0.14444778 0 0 Z " fill="#349681" transform="translate(369.125,224.6875)"></path><path d="M0 0 C1.12523669 -0.11996527 2.25047338 -0.23993053 3.40980816 -0.36353111 C4.64805245 -0.4782004 5.88629675 -0.59286968 7.1620636 -0.71101379 C8.46916951 -0.83789896 9.77627542 -0.96478413 11.12299061 -1.0955143 C134.22564016 -12.67181263 134.22564016 -12.67181263 175.01773071 20.30865479 C201.1228403 42.60747439 223.06864745 70.30964703 226.3351593 105.36003113 C227.91177025 126.01839148 225.59790087 146.63450279 221.59687805 166.89909363 C217.30687805 166.89909363 213.01687805 166.89909363 208.59687805 166.89909363 C208.59687805 141.81909363 208.59687805 116.73909363 208.59687805 90.89909363 C185.12649745 91.09692088 185.12649745 91.09692088 161.6566925 91.34953308 C157.10896301 91.37211609 157.10896301 91.37211609 154.97741699 91.37631226 C153.49422703 91.38397145 152.0110675 91.4015188 150.52807617 91.42697144 C148.27613073 91.46367694 146.0260806 91.46862088 143.77388 91.46672058 C142.5059108 91.47782364 141.23794159 91.4889267 139.93154907 91.50036621 C135.58907999 90.71737815 134.15284139 89.46691704 131.59687805 85.89909363 C130.99560547 82.56442261 130.99560547 82.56442261 131.0292511 78.72209167 C131.02864842 78.00781163 131.02804575 77.29353159 131.02742481 76.5576067 C131.03114092 74.25786797 131.06913257 71.96018583 131.1085968 69.66081238 C131.11595339 68.23622106 131.1210511 66.81161622 131.12385559 65.38700867 C131.15001039 60.1199968 131.21981719 54.85327475 131.28437805 49.58659363 C131.38750305 37.80971863 131.49062805 26.03284363 131.59687805 13.89909363 C89.68687805 13.89909363 47.77687805 13.89909363 4.59687805 13.89909363 C4.59687805 112.89909363 4.59687805 211.89909363 4.59687805 313.89909363 C71.91687805 313.89909363 139.23687805 313.89909363 208.59687805 313.89909363 C208.59687805 303.33909363 208.59687805 292.77909363 208.59687805 281.89909363 C212.88687805 281.89909363 217.17687805 281.89909363 221.59687805 281.89909363 C221.67097337 287.82557937 221.72545421 293.75179616 221.76167297 299.67863464 C221.77676984 301.69528397 221.7972492 303.71190042 221.82319641 305.72843933 C221.85954017 308.62525033 221.87659525 311.52162769 221.8898468 314.41862488 C221.90533066 315.32183975 221.92081451 316.22505463 221.93676758 317.15563965 C221.93710747 318.41660713 221.93710747 318.41660713 221.93745422 319.70304871 C221.94744698 320.81224419 221.94744698 320.81224419 221.9576416 321.94384766 C221.48579617 324.50112894 220.59442971 325.27027759 218.59687805 326.89909363 C215.58034148 327.19419524 212.77020756 327.30350644 209.75239563 327.28004456 C208.83723332 327.28472453 207.92207102 327.2894045 206.97917652 327.29422629 C203.89977518 327.30623231 200.82081427 327.29669714 197.7414093 327.28727722 C195.53896321 327.29134043 193.33651915 327.29668089 191.13407898 327.3032074 C185.14246017 327.3169166 179.15099584 327.31156745 173.15937424 327.30207014 C166.89871036 327.2944922 160.63806001 327.30151395 154.37739563 327.30622864 C143.18816096 327.31204189 131.99898317 327.30269965 120.80976212 327.28745063 C110.66031531 327.27404697 100.51097144 327.27637492 90.36152649 327.29020691 C78.58117618 327.30625398 66.80087604 327.3122415 55.02051449 327.30337012 C48.78240423 327.29868507 42.5443649 327.29809157 36.30625916 327.30797958 C30.44251548 327.3166244 24.57896682 327.31067283 18.71524429 327.29329681 C16.5589035 327.28931866 14.40254638 327.29048857 12.24621201 327.29708481 C9.3110374 327.30523796 6.37649443 327.29505429 3.44136047 327.28004456 C2.58057294 327.28673672 1.7197854 327.29342889 0.8329134 327.30032384 C-4.90607479 327.2430861 -4.90607479 327.2430861 -7.12071764 325.71039355 C-8.87539308 323.23204606 -8.77912493 321.56668951 -8.78064537 318.54077148 C-8.78846861 317.42196185 -8.79629185 316.30315222 -8.80435216 315.15043926 C-8.79766 313.91612069 -8.79096783 312.68180212 -8.78407288 311.41007996 C-8.78875285 310.10289662 -8.79343282 308.79571329 -8.79825461 307.44891834 C-8.81081749 303.81290657 -8.8045704 300.17712999 -8.79529595 296.54111719 C-8.78852733 292.62285904 -8.79897579 288.70464223 -8.80723572 284.78639221 C-8.8205987 277.10751703 -8.81768393 269.42872966 -8.80899779 261.74985099 C-8.80223172 255.51090507 -8.80129986 249.27198381 -8.80456924 243.03303528 C-8.80502894 242.14619232 -8.80548864 241.25934936 -8.80596227 240.34563237 C-8.80692142 238.54421416 -8.80789405 236.74279596 -8.80888005 234.94137776 C-8.81744145 218.03635148 -8.80758805 201.13137395 -8.79147895 184.22635567 C-8.77807508 169.71066838 -8.78040297 155.19505306 -8.79423523 140.67936707 C-8.8102778 123.83619723 -8.81661741 106.99307016 -8.80739844 90.14989376 C-8.80644276 88.35497984 -8.80549965 86.56006591 -8.80456924 84.76515198 C-8.80410642 83.88194379 -8.80364359 82.99873561 -8.80316674 82.08876354 C-8.80057288 75.85492639 -8.80495637 69.62111629 -8.8120079 63.38728333 C-8.82040843 55.79372928 -8.81817336 48.20026831 -8.80216567 40.60672498 C-8.79426336 36.72992023 -8.7912245 32.85327084 -8.80111313 28.97646713 C-8.81165498 24.78021101 -8.79909624 20.5843496 -8.78407288 16.3881073 C-8.79076504 15.15378873 -8.79745721 13.91947016 -8.80435216 12.64774799 C-8.79652892 11.52893836 -8.78870568 10.41012873 -8.78064537 9.25741577 C-8.78015831 8.28809711 -8.77967126 7.31877844 -8.77916944 6.32008648 C-7.97529159 1.14472279 -4.72462865 0.48891973 0 0 Z " fill="#F8FBFA" transform="translate(85.40312194824219,76.10090637207031)"></path><path d="M0 0 C1.10142334 0.00737183 1.10142334 0.00737183 2.22509766 0.01489258 C21.90436895 0.42957357 40.26338016 9.14282801 53.875 23.3125 C65.82652138 37.15319697 72.46423927 52.54770808 72.1875 70.8125 C72.19072266 71.87597656 72.19394531 72.93945312 72.19726562 74.03515625 C72.06637252 93.43113435 65.11617034 110.25195861 51.5 124.1875 C39.95640376 135.3125 39.95640376 135.3125 33.875 135.3125 C33.9064209 136.78058105 33.9064209 136.78058105 33.93847656 138.27832031 C34.01097963 141.91602904 34.05683633 145.55367416 34.09472656 149.19189453 C34.1148188 150.76524604 34.14209799 152.33852308 34.17675781 153.91162109 C34.22538494 156.17564272 34.24799135 158.43867573 34.265625 160.703125 C34.28627014 161.40431458 34.30691528 162.10550415 34.32818604 162.82794189 C34.32965822 166.04584907 34.18269697 167.91306258 32.19232178 170.49687195 C29.34942125 172.72429241 27.92308117 172.8231656 24.34375 172.84594727 C22.68182617 172.86970177 22.68182617 172.86970177 20.98632812 172.89393616 C19.79458984 172.88897629 18.60285156 172.88401642 17.375 172.87890625 C16.14716797 172.88510483 14.91933594 172.89130341 13.65429688 172.89768982 C11.05860182 172.90479309 8.46286126 172.90160526 5.8671875 172.88891602 C1.88977479 172.8750515 -2.08528609 172.90911784 -6.0625 172.94726562 C-8.58333391 172.94821678 -11.10417077 172.94635817 -13.625 172.94140625 C-14.81673828 172.95466446 -16.00847656 172.96792267 -17.23632812 172.98158264 C-25.35672773 172.88972475 -25.35672773 172.88972475 -28.88183594 170.24121094 C-30.44186348 166.56601643 -30.57927017 163.8179534 -30.515625 159.82421875 C-30.50996521 159.12102005 -30.50430542 158.41782135 -30.49847412 157.6933136 C-30.47619769 155.46149752 -30.42602373 153.23132539 -30.375 151 C-30.35492343 149.48114309 -30.33667468 147.96226084 -30.3203125 146.44335938 C-30.27636357 142.73254455 -30.20739921 139.0226829 -30.125 135.3125 C-31.05908691 135.02060791 -31.99317383 134.72871582 -32.95556641 134.42797852 C-44.86781027 130.23547796 -54.54358059 117.35981285 -60.51953125 106.70703125 C-68.95579113 88.86978104 -71.01472944 68.25779637 -65.125 49.3125 C-61.50997002 40.16439356 -56.75709985 31.61207028 -50.125 24.3125 C-49.47144531 23.56742188 -48.81789063 22.82234375 -48.14453125 22.0546875 C-36.09322973 9.10337986 -17.90733828 -0.14444778 0 0 Z M-42.09375 34.46875 C-53.80092217 48.64059 -56.37733208 63.72787538 -55.41064453 81.58886719 C-54.04749803 94.58652733 -46.47950768 107.8896932 -37.078125 116.76171875 C-34.07822343 119.1436406 -30.82248551 121.00421558 -27.5 122.8984375 C-23.87462275 125.05696803 -20.05089505 127.46070989 -18.125 131.3125 C-17.97058791 133.41624996 -17.87507361 135.52445119 -17.80859375 137.6328125 C-17.76669922 138.88964844 -17.72480469 140.14648438 -17.68164062 141.44140625 C-17.64232422 142.76011719 -17.60300781 144.07882812 -17.5625 145.4375 C-17.51930488 146.77735751 -17.47569027 148.11720156 -17.43164062 149.45703125 C-17.3252909 152.7420562 -17.22461683 156.02726398 -17.125 159.3125 C-12.835 159.3125 -8.545 159.3125 -4.125 159.3125 C-4.125 140.1725 -4.125 121.0325 -4.125 101.3125 C-10.395 101.3125 -16.665 101.3125 -23.125 101.3125 C-23.125 97.3525 -23.125 93.3925 -23.125 89.3125 C-6.295 89.3125 10.535 89.3125 27.875 89.3125 C27.875 93.6025 27.875 97.8925 27.875 102.3125 C21.605 102.3125 15.335 102.3125 8.875 102.3125 C8.875 121.1225 8.875 139.9325 8.875 159.3125 C12.835 159.3125 16.795 159.3125 20.875 159.3125 C20.90078125 157.34925781 20.9265625 155.38601563 20.953125 153.36328125 C21.0094039 150.78383187 21.06675127 148.20440565 21.125 145.625 C21.13917969 144.33142578 21.15335937 143.03785156 21.16796875 141.70507812 C21.20019531 140.45791016 21.23242188 139.21074219 21.265625 137.92578125 C21.28657227 136.77891846 21.30751953 135.63205566 21.32910156 134.45043945 C21.98183308 130.69840093 23.2577003 129.02806323 25.875 126.3125 C27.8828125 125.046875 27.8828125 125.046875 30 124.0625 C44.37729099 116.46071396 52.979298 103.43566043 57.875 88.3125 C58.12121094 87.62800781 58.36742187 86.94351563 58.62109375 86.23828125 C62.77381579 73.03548912 59.84174911 57.63843148 53.6875 45.625 C45.1899461 30.91360982 34.18331374 20.74860458 17.875 15.3125 C17.14023437 15.06757813 16.40546875 14.82265625 15.6484375 14.5703125 C-6.42974115 8.53395654 -27.3461156 18.31657899 -42.09375 34.46875 Z " fill="#FAFCFC" transform="translate(369.125,224.6875)"></path><path d="M0 0 C54.78 0 109.56 0 166 0 C166 4.29 166 8.58 166 13 C111.22 13 56.44 13 0 13 C0 8.71 0 4.42 0 0 Z " fill="#FBFDFC" transform="translate(109,243)"></path><path d="M0 0 C1.10794922 -0.01260864 2.21589844 -0.02521729 3.35742188 -0.03820801 C4.54916016 -0.03011108 5.74089844 -0.02201416 6.96875 -0.01367188 C8.19658203 -0.01749878 9.42441406 -0.02132568 10.68945312 -0.02526855 C13.28516459 -0.02799029 15.88090336 -0.02061099 18.4765625 -0.00390625 C22.45374599 0.01749738 26.42912282 -0.0037015 30.40625 -0.02929688 C32.92708733 -0.02665365 35.44792353 -0.02152878 37.96875 -0.01367188 C39.16048828 -0.0217688 40.35222656 -0.02986572 41.58007812 -0.03820801 C43.24200195 -0.01929504 43.24200195 -0.01929504 44.9375 0 C45.91138672 0.00318237 46.88527344 0.00636475 47.88867188 0.00964355 C51.21566095 0.66462092 52.42622546 1.8551837 54.46875 4.51757812 C54.71263302 11.11867848 51.22037616 15.58668361 47.59375 20.76757812 C46.77970703 21.97027344 46.77970703 21.97027344 45.94921875 23.19726562 C44.48776378 25.33406287 43.03246441 27.45439587 41.46875 29.51757812 C41.05890869 30.0807373 40.64906738 30.64389648 40.22680664 31.22412109 C36.18170414 34.200229 29.90435743 33.28220191 25.01000977 33.34814453 C22.80185018 33.39216743 20.6055348 33.51078094 18.40039062 33.63085938 C8.10937405 33.93589868 8.10937405 33.93589868 3.82373047 30.23095703 C1.77151126 27.41759284 0.09669506 24.59243756 -1.53125 21.51757812 C-2.35329749 20.32780785 -3.19304091 19.14971679 -4.0625 17.99414062 C-4.7121875 17.053125 -5.361875 16.11210937 -6.03125 15.14257812 C-6.7015625 14.18609375 -7.371875 13.22960937 -8.0625 12.24414062 C-9.66967721 9.26060421 -10.17998447 7.83693617 -9.53125 4.51757812 C-6.57693482 0.80176422 -4.69854449 0.01535345 0 0 Z " fill="#FAFCFC" transform="translate(348.53125,402.482421875)"></path><path d="M0 0 C0.66 0 1.32 0 2 0 C3.36662292 1.38539124 3.36662292 1.38539124 4.98510742 3.35180664 C9.47389163 8.62624924 14.33770735 13.48130184 19.23828125 18.37109375 C20.21012184 19.34360956 21.18181408 20.31627364 22.15336609 21.28907776 C24.17297388 23.31014804 26.19434967 25.329428 28.21704102 27.34741211 C30.81075611 29.93538459 33.39989333 32.52788364 35.98775959 35.12170315 C37.98561979 37.12316918 39.98584582 39.12225709 41.98680687 41.12062263 C43.40737545 42.54020078 44.82593196 43.96179148 46.24446106 45.38340759 C47.10262924 46.23842361 47.96079742 47.09343964 48.8449707 47.97436523 C49.60107132 48.72967026 50.35717194 49.48497528 51.13618469 50.26316833 C52.89286981 52.06418281 52.89286981 52.06418281 55 53 C55 53.66 55 54.32 55 55 C36.85 55 18.7 55 0 55 C0 36.85 0 18.7 0 0 Z " fill="#3C9C87" transform="translate(230,99)"></path><path d="M0 0 C35.97 0 71.94 0 109 0 C109 4.29 109 8.58 109 13 C73.03 13 37.06 13 0 13 C0 8.71 0 4.42 0 0 Z " fill="#F7FBFA" transform="translate(166,198)"></path><path d="M0 0 C33.66 0 67.32 0 102 0 C102 4.29 102 8.58 102 13 C68.34 13 34.68 13 0 13 C0 8.71 0 4.42 0 0 Z " fill="#F8FAFA" transform="translate(109,333)"></path><path d="M0 0 C31.68 0 63.36 0 96 0 C96 4.29 96 8.58 96 13 C64.32 13 32.64 13 0 13 C0 8.71 0 4.42 0 0 Z " fill="#FBFCFC" transform="translate(109,288)"></path><path d="M0 0 C27.39 0 54.78 0 83 0 C83 3.96 83 7.92 83 12 C55.61 12 28.22 12 0 12 C0 8.04 0 4.08 0 0 Z " fill="#FFFFFF" transform="translate(109,154)"></path><path d="M0 0 C18.81 0 37.62 0 57 0 C57 4.29 57 8.58 57 13 C38.19 13 19.38 13 0 13 C0 8.71 0 4.42 0 0 Z " fill="#FBFDFC" transform="translate(218,288)"></path><path d="M0 0 C14.85 0 29.7 0 45 0 C45 4.29 45 8.58 45 13 C30.15 13 15.3 13 0 13 C0 8.71 0 4.42 0 0 Z " fill="#F6FAF9" transform="translate(109,198)"></path><path d="M0 0 C8.91 0 17.82 0 27 0 C23 6 23 6 20.70996094 6.68115234 C19.89301758 6.64973145 19.07607422 6.61831055 18.234375 6.5859375 C17.34492188 6.56660156 16.45546875 6.54726563 15.5390625 6.52734375 C14.61867188 6.47707031 13.69828125 6.42679687 12.75 6.375 C11.81414062 6.34792969 10.87828125 6.32085937 9.9140625 6.29296875 C7.6070276 6.22234523 5.30469231 6.12380579 3 6 C2.01 4.02 1.02 2.04 0 0 Z " fill="#2C8C77" transform="translate(358,416)"></path></svg>