<svg version="1.1" xmlns="http://www.w3.org/2000/svg" width="16px" height="16px" fill="currentColor" viewBox="0 0 512 512"><path d="M0 0 C168.96 0 337.92 0 512 0 C512 168.96 512 337.92 512 512 C343.04 512 174.08 512 0 512 C0 343.04 0 174.08 0 0 Z " fill="#E4760C" transform="translate(0,0)"></path><path d="M0 0 C63.36 0 126.72 0 192 0 C192 110.22 192 220.44 192 334 C128.64 334 65.28 334 0 334 C0 223.78 0 113.56 0 0 Z " fill="#DF7011" transform="translate(77,89)"></path><path d="M0 0 C63.36 0 126.72 0 192 0 C192 110.22 192 220.44 192 334 C128.64 334 65.28 334 0 334 C0 223.78 0 113.56 0 0 Z M12 13 C12 114.64 12 216.28 12 321 C67.11 321 122.22 321 179 321 C179 219.36 179 117.72 179 13 C123.89 13 68.78 13 12 13 Z " fill="#FEFBF9" transform="translate(77,89)"></path><path d="M0 0 C4.30491463 -0.12418758 8.6088635 -0.21461002 12.91503906 -0.2746582 C14.37778907 -0.29970529 15.84041512 -0.33375392 17.30273438 -0.37719727 C19.41307219 -0.43829356 21.52174752 -0.46630435 23.6328125 -0.48828125 C24.90012207 -0.51446533 26.16743164 -0.54064941 27.47314453 -0.56762695 C32.18128656 0.19012123 33.68148577 1.6130722 37 5 C39.35993614 8.32302008 39.23314895 11.28621127 39.1953125 15.296875 C39.18886719 16.50214844 39.18242187 17.70742187 39.17578125 18.94921875 C39.15902344 20.20347656 39.14226562 21.45773438 39.125 22.75 C39.11597656 24.01972656 39.10695313 25.28945312 39.09765625 26.59765625 C39.07409005 29.73196093 39.04118832 32.86588541 39 36 C39.75087891 35.96986816 40.50175781 35.93973633 41.27539062 35.90869141 C45.12559045 36.0377214 48.11761325 37.68715552 51.5 39.375 C55.62045807 41.38219344 59.71242843 43.36742467 64 45 C64.31517578 44.19755859 64.31517578 44.19755859 64.63671875 43.37890625 C66.52896967 40.0769555 69.12361379 37.58736972 71.8125 34.9375 C72.59463867 34.14375977 72.59463867 34.14375977 73.39257812 33.33398438 C77.74068551 29.00759039 81.50757071 25.57265787 87.9375 25.5625 C88.75089844 25.54316406 89.56429687 25.52382812 90.40234375 25.50390625 C97.51324928 26.86192881 102.6910304 33.39969582 107.57421875 38.30859375 C108.78269218 39.51419701 108.78269218 39.51419701 110.01557922 40.74415588 C111.71149462 42.4387145 113.40490384 44.13578457 115.09594727 45.83520508 C117.68219924 48.43217727 120.27895884 51.01829635 122.87695312 53.60351562 C124.52668343 55.25456734 126.17579332 56.90623924 127.82421875 58.55859375 C128.5992424 59.32956894 129.37426605 60.10054413 130.17277527 60.8948822 C131.25453789 61.9861013 131.25453789 61.9861013 132.3581543 63.09936523 C133.30696724 64.05056496 133.30696724 64.05056496 134.27494812 65.02098083 C137.18858328 68.36357006 138.87380971 71.00850488 139.4375 75.4375 C138.40745103 83.82504158 130.91868877 89.16300202 125.04882812 94.609375 C124.38689453 95.24617188 123.72496094 95.88296875 123.04296875 96.5390625 C122.43477295 97.10834473 121.82657715 97.67762695 121.19995117 98.26416016 C119.77521828 99.92136963 119.77521828 99.92136963 120.21020508 101.96606445 C120.60115356 102.97286255 120.60115356 102.97286255 121 104 C121.36641602 104.9736853 121.36641602 104.9736853 121.74023438 105.96704102 C122.16272461 106.97528931 122.16272461 106.97528931 122.59375 108.00390625 C122.90183594 108.74447266 123.20992188 109.48503906 123.52734375 110.24804688 C123.84832031 111.01181641 124.16929687 111.77558594 124.5 112.5625 C125.13630454 114.08426447 125.77175595 115.60638601 126.40625 117.12890625 C126.82874023 118.13546265 126.82874023 118.13546265 127.25976562 119.16235352 C127.90007952 120.75194543 128.45807709 122.37423128 129 124 C129.75619629 124.0093457 130.51239258 124.01869141 131.29150391 124.02832031 C134.73665134 124.082192 138.18046562 124.16580841 141.625 124.25 C142.81480469 124.26417969 144.00460937 124.27835937 145.23046875 124.29296875 C156.44400873 124.60619612 156.44400873 124.60619612 161 129 C166.29806693 134.75860907 165.57941565 140.98903469 165.53125 148.5 C165.5350769 149.80904297 165.53890381 151.11808594 165.54284668 152.46679688 C165.54872605 155.23066196 165.54023041 157.99400802 165.52148438 160.7578125 C165.49869442 164.28862831 165.51182609 167.81822777 165.53577423 171.34899902 C165.55375956 174.73276177 165.54114232 178.11620276 165.53125 181.5 C165.53934692 182.76263672 165.54744385 184.02527344 165.55578613 185.32617188 C165.4659052 193.74798666 164.61601526 197.4195521 158.6171875 203.359375 C152.91421144 205.94603801 147.30141094 205.4172778 141.125 205.25 C139.86429688 205.23195313 138.60359375 205.21390625 137.3046875 205.1953125 C134.20234386 205.14830729 131.1015662 205.08260676 128 205 C127.83890747 205.85597778 127.83890747 205.85597778 127.67456055 206.72924805 C126.38696937 213.08123223 124.09058418 218.30721556 121.14453125 224.08203125 C119.89814673 227.25967369 119.81518792 227.9302264 121 231 C122.55090294 232.93060964 122.55090294 232.93060964 124.52734375 234.75 C125.23697266 235.4409375 125.94660156 236.131875 126.67773438 236.84375 C127.42345703 237.5553125 128.16917969 238.266875 128.9375 239 C130.40952195 240.41191332 131.87715486 241.82842023 133.33984375 243.25 C134.32005493 244.18585938 134.32005493 244.18585938 135.32006836 245.140625 C137.78415837 247.86791893 138.86147981 250.12930164 139.4375 253.75 C138.31284261 262.10459774 131.28710686 268.14460481 125.55859375 273.8046875 C124.75390152 274.60987823 123.94920929 275.41506897 123.12013245 276.24465942 C121.42849414 277.93396944 119.73319178 279.61961754 118.03442383 281.30175781 C115.43325185 283.87920941 112.84578848 286.46985826 110.25976562 289.0625 C108.61016756 290.7065248 106.95980338 292.34978132 105.30859375 293.9921875 C104.14909462 295.15305374 104.14909462 295.15305374 102.96617126 296.33737183 C102.24184402 297.05216705 101.51751678 297.76696228 100.77124023 298.50341797 C100.13790268 299.13214813 99.50456512 299.7608783 98.85203552 300.40866089 C94.5524188 304.10305453 90.90584839 304.37920612 85.3984375 304.25 C79.77733754 303.6640873 76.73302918 299.90271232 73 296 C72.23558594 295.25621094 71.47117187 294.51242187 70.68359375 293.74609375 C69.44802734 292.54146484 69.44802734 292.54146484 68.1875 291.3125 C67.39730469 290.54550781 66.60710937 289.77851563 65.79296875 288.98828125 C64 287 64 287 64 285 C62.94941406 285.48210937 61.89882813 285.96421875 60.81640625 286.4609375 C59.3986376 287.09940285 57.98065735 287.73739848 56.5625 288.375 C55.87478516 288.69210937 55.18707031 289.00921875 54.47851562 289.3359375 C49.41435016 291.59714627 44.44907451 292.98692364 39 294 C39.02356567 295.08099976 39.02356567 295.08099976 39.04760742 296.18383789 C39.11030487 299.47664415 39.14910095 302.76932438 39.1875 306.0625 C39.21263672 307.19623047 39.23777344 308.32996094 39.26367188 309.49804688 C39.31866657 315.78577406 39.18178916 320.50555648 36 326 C31.2564369 330.50638495 27.76720051 331.12562096 21.36328125 331.09765625 C20.06455078 331.09443359 18.76582031 331.09121094 17.42773438 331.08789062 C16.05598892 331.07953531 14.68424413 331.07107037 13.3125 331.0625 C11.92903805 331.05748335 10.54557437 331.05292073 9.16210938 331.04882812 C5.77472104 331.03702538 2.3873551 331.01908967 -1 331 C-1 326.71 -1 322.42 -1 318 C7.91 318 16.82 318 26 318 C26 307.11 26 296.22 26 285 C30.95 283.35 35.9 281.7 41 280 C43.87722308 278.85435074 46.68636631 277.70962161 49.5 276.4375 C50.13679688 276.15970703 50.77359375 275.88191406 51.4296875 275.59570312 C54.6975268 274.14518262 57.69815468 272.57614557 60.71875 270.66015625 C64 269 64 269 65.92089844 269.62426758 C68.44579022 271.29497744 70.41954509 273.19548489 72.546875 275.3515625 C73.81337891 276.62773438 73.81337891 276.62773438 75.10546875 277.9296875 C75.97816406 278.81914062 76.85085938 279.70859375 77.75 280.625 C78.63816406 281.5221875 79.52632813 282.419375 80.44140625 283.34375 C82.63216969 285.55807004 84.81812763 287.77692435 87 290 C90.75310882 288.44234073 93.09417913 286.1220056 95.921875 283.23828125 C96.61739471 282.53495918 96.61739471 282.53495918 97.32696533 281.81742859 C98.80617025 280.32048402 100.27852701 278.81704251 101.75 277.3125 C113.2694113 265.57259397 113.2694113 265.57259397 119.35253906 260.42651367 C119.89620117 259.95576416 120.43986328 259.48501465 121 259 C121.58749023 258.52602783 122.17498047 258.05205566 122.78027344 257.5637207 C124.199495 256.08210982 124.199495 256.08210982 123.96704102 254.11035156 C122.64213189 251.21903259 120.79624173 249.46046359 118.52734375 247.234375 C117.62822266 246.34492188 116.72910156 245.45546875 115.80273438 244.5390625 C114.85720703 243.61867188 113.91167969 242.69828125 112.9375 241.75 C111.97783027 240.80538327 111.01883771 239.86007805 110.06054688 238.9140625 C107.71361172 236.60250828 105.35996609 234.2982366 103 232 C104.42335033 227.57911004 106.13209304 223.66707984 108.3125 219.5625 C111.55082918 213.30838686 113.85753942 206.9914183 115.95703125 200.27734375 C116.84848283 197.47611574 117.90824 194.7294 119 192 C129.89 192 140.78 192 152 192 C152 174.18 152 156.36 152 138 C141.11 138 130.22 138 119 138 C115.79044118 129.44117647 115.79044118 129.44117647 114.8125 125.5 C113.19247045 119.89086544 110.5670597 114.86101145 107.8684082 109.70898438 C107.52898193 109.05736328 107.18955566 108.40574219 106.83984375 107.734375 C106.38146118 106.87150879 106.38146118 106.87150879 105.91381836 105.99121094 C104.73121987 103.41432787 103.89659721 100.68979162 103 98 C109.93 91.07 116.86 84.14 124 77 C122.04300711 73.08601421 119.87016757 70.62615961 116.80078125 67.640625 C116.28750778 67.1325531 115.77423431 66.6244812 115.2454071 66.10101318 C113.60580301 64.47916351 111.95968847 62.8641434 110.3125 61.25 C108.1593195 59.13367256 106.00957844 57.0139328 103.86328125 54.890625 C103.34686066 54.3805188 102.83044006 53.8704126 102.29837036 53.34484863 C98.81306552 49.87730984 95.5251648 46.30147853 92.39135742 42.51464844 C90.87868878 40.74759456 90.87868878 40.74759456 88 39 C80.74 46.26 73.48 53.52 66 61 C61.47128447 59.49042816 58.00226845 58.02824485 53.875 55.8125 C44.95656321 51.16463668 35.52020159 48.19513615 26 45 C26 34.11 26 23.22 26 12 C17.42 12 8.84 12 0 12 C0 8.04 0 4.08 0 0 Z " fill="#FEFBF8" transform="translate(277,91)"></path><path d="M0 0 C0 4.29 0 8.58 0 13 C-1.69125 13.15855469 -3.3825 13.31710938 -5.125 13.48046875 C-38.40266606 16.80946377 -68.03168174 28.96707179 -90.3125 54.875 C-111.46938274 81.54654562 -121.18423491 112.76246698 -117.53515625 146.83203125 C-113.59928788 177.66091101 -97.18949782 206.93531669 -72.59472656 226.00537109 C-50.6510467 242.3660611 -26.87041562 248.88815761 0 251 C0 255.29 0 259.58 0 264 C-35.4335928 264.71583016 -67.5554135 250.2928363 -93 226 C-115.85349537 203.66151298 -130.56140715 171.98753509 -132 140 C-132.06445312 138.81921875 -132.12890625 137.6384375 -132.1953125 136.421875 C-133.57812112 99.04441914 -118.63870063 66.31034853 -94.11328125 38.890625 C-69.98332285 13.59716756 -34.65995463 -0.7002011 0 0 Z " fill="#FEFBF9" transform="translate(242,124)"></path><path d="M0 0 C17.71844563 -1.12498067 36.31407388 5.59150234 49.859375 17.04296875 C50.56578125 17.68878906 51.2721875 18.33460938 52 19 C52.89203125 19.80050781 53.7840625 20.60101563 54.703125 21.42578125 C68.54645155 34.49373022 78.62956992 53.1674631 79.30078125 72.48828125 C79.32009206 74.42959539 79.32357616 76.37112142 79.3125 78.3125 C79.30512817 79.83979736 79.30512817 79.83979736 79.29760742 81.39794922 C79.18440299 88.65348277 78.48609569 95.14077214 76 102 C75.47212891 103.59134766 75.47212891 103.59134766 74.93359375 105.21484375 C70.64159698 117.35425376 63.98803732 126.85936442 55 136 C54.31292969 136.69996094 53.62585938 137.39992188 52.91796875 138.12109375 C40.67327587 149.77513354 22.74131075 158.24990451 5.6875 158.0625 C3.810625 158.041875 1.93375 158.02125 0 158 C0 153.71 0 149.42 0 145 C1.56234375 144.90525391 1.56234375 144.90525391 3.15625 144.80859375 C21.05323115 143.4047026 36.63123109 136.35850833 49.12890625 123.20703125 C62.05342345 107.96203705 65.91836759 90.50689696 65 71 C63.11568829 53.03940865 53.4380847 37.67766704 39.75 26.25 C34.32206236 22.20771546 28.21521735 19.60040829 22 17 C21.22785156 16.63777344 20.45570313 16.27554688 19.66015625 15.90234375 C15.89284685 14.62444585 12.13203834 14.27838112 8.1875 13.875 C7.00510742 13.74544922 7.00510742 13.74544922 5.79882812 13.61328125 C3.86656916 13.40248936 1.93336737 13.20037104 0 13 C0 8.71 0 4.42 0 0 Z " fill="#FEFBF9" transform="translate(280,177)"></path><path d="M0 0 C3.77519562 1.76229689 6.30729323 3.76875188 9 7 C8.74360254 10.7016479 6.86534309 12.49991746 4.30639648 15.03417969 C3.52566269 15.81468689 2.74492889 16.59519409 1.9405365 17.39935303 C1.09262039 18.23178528 0.24470428 19.06421753 -0.62890625 19.921875 C-1.49313705 20.78186096 -2.35736786 21.64184692 -3.24778748 22.52789307 C-6.01240612 25.27570575 -8.78726862 28.01291036 -11.5625 30.75 C-13.43753251 32.60998825 -15.31189018 34.47065707 -17.18554688 36.33203125 C-21.78256017 40.89594973 -26.38802955 45.45119938 -31 50 C-26.56583328 55.31068805 -21.88483314 60.24836617 -16.9765625 65.12109375 C-16.23038666 65.86585464 -15.48421082 66.61061554 -14.71542358 67.37794495 C-12.35430611 69.73350827 -9.98971838 72.08555216 -7.625 74.4375 C-6.01409144 76.04338763 -4.40341204 77.64950516 -2.79296875 79.25585938 C1.13537513 83.17323513 5.06656674 87.08773487 9 91 C7.61811547 94.21043882 6.07578097 96.04936365 3.375 98.25 C2.74335938 98.77078125 2.11171875 99.2915625 1.4609375 99.828125 C0.97882813 100.21484375 0.49671875 100.6015625 0 101 C-6.52504513 94.52121765 -13.04473254 88.03710575 -19.55757141 81.54605293 C-22.58164545 78.53243307 -25.6075588 75.52070867 -28.63769531 72.51318359 C-31.55978875 69.61276035 -34.47702362 66.70753268 -37.39089966 63.79885483 C-38.50557425 62.68788649 -39.62201266 61.57868505 -40.74020386 60.47125626 C-42.30150799 58.92438964 -43.85652212 57.37145907 -45.41015625 55.81689453 C-46.29840088 54.93309113 -47.18664551 54.04928772 -48.10180664 53.13870239 C-50 51 -50 51 -50 49 C-48.60046387 47.62046814 -48.60046387 47.62046814 -46.62304688 45.99194336 C-41.49387967 41.62704346 -36.77745379 36.90302921 -32.03125 32.12890625 C-31.11033569 31.206577 -30.18942139 30.28424774 -29.24060059 29.33396912 C-26.81852446 26.90811523 -24.39946921 24.47927148 -21.9810791 22.04974365 C-19.50226163 19.56060884 -17.02053203 17.07438105 -14.5390625 14.58789062 C-9.68989076 9.72806542 -4.84391137 4.86506822 0 0 Z " fill="#FEFCFA" transform="translate(208,210)"></path></svg>