<svg version="1.1" xmlns="http://www.w3.org/2000/svg" width="16px" height="16px" fill="currentColor" viewBox="0 0 512 512"><path d="M0 0 C168.96 0 337.92 0 512 0 C512 168.96 512 337.92 512 512 C343.04 512 174.08 512 0 512 C0 343.04 0 174.08 0 0 Z " fill="#E3750D" transform="translate(0,0)"></path><path d="M0 0 C1.64857483 1.03260803 1.64857483 1.03260803 3 3 C3.30124929 5.70792365 3.42012042 8.18700151 3.40405273 10.89624023 C3.41091599 11.6997995 3.41777924 12.50335876 3.42485046 13.33126831 C3.44316885 15.99055596 3.4392738 18.64925647 3.43359375 21.30859375 C3.43815328 23.15560601 3.44345816 25.00261656 3.44947815 26.84962463 C3.45841924 30.72249235 3.45597496 34.59515396 3.44604492 38.46801758 C3.4345563 43.43272747 3.45475987 48.39672601 3.48396206 53.36134243 C3.5023032 57.17634099 3.50203574 60.99116845 3.49632454 64.80620003 C3.49617106 66.63664815 3.50223768 68.46710768 3.51461601 70.29751396 C3.52948441 72.85691892 3.51888023 75.41500182 3.50170898 77.97436523 C3.51621094 79.10989082 3.51621094 79.10989082 3.53100586 80.26835632 C3.48209967 83.74723154 3.29172174 85.6291068 1.10992432 88.4030304 C-1.12684743 90.09600889 -3.36886889 91.6435355 -5.76171875 93.109375 C-6.70337891 93.69114502 -7.64503906 94.27291504 -8.61523438 94.87231445 C-9.62908203 95.49195068 -10.64292969 96.11158691 -11.6875 96.75 C-13.85884755 98.09119462 -16.02939504 99.43368522 -18.19921875 100.77734375 C-19.31989746 101.47069824 -20.44057617 102.16405273 -21.59521484 102.87841797 C-28.08371511 106.90929004 -34.49770111 111.05824091 -40.9206543 115.19238281 C-41.87496338 115.8056543 -42.82927246 116.41892578 -43.8125 117.05078125 C-44.72240189 117.66084518 -45.63230377 118.27090912 -46.56977844 118.89945984 C-48.98466249 120.45529749 -51.4078126 121.65784662 -54.04162598 122.80055237 C-61.89857886 126.44875004 -61.89857886 126.44875004 -66.90997314 133.1837635 C-68.34986183 139.70203569 -67.9831223 146.34693233 -67.78125 152.9765625 C-67.77383661 155.11460105 -67.77349845 157.25267476 -67.77990723 159.39071655 C-67.77783841 164.99236573 -67.68027889 170.58835418 -67.56219482 176.18859863 C-67.45858659 181.91318234 -67.44611873 187.6379033 -67.42578125 193.36328125 C-67.3726118 204.57750548 -67.21846733 215.7878624 -67 227 C-66.09545578 227.28883057 -65.19091156 227.57766113 -64.25895691 227.87524414 C-61.64118126 228.77871067 -59.30828692 229.7345311 -56.85668945 230.99609375 C-55.7180822 231.57810547 -55.7180822 231.57810547 -54.55647278 232.171875 C-53.75021957 232.58953125 -52.94396637 233.0071875 -52.11328125 233.4375 C-51.25679489 233.87707031 -50.40030853 234.31664062 -49.51786804 234.76953125 C-46.78068061 236.1757141 -44.04661788 237.5878599 -41.3125 239 C-39.52558072 239.91833874 -37.73847288 240.83631066 -35.95117188 241.75390625 C-27.15820249 246.27365687 -18.38373267 250.82867059 -9.62890625 255.421875 C-8.86685379 255.82067871 -8.10480133 256.21948242 -7.31965637 256.63037109 C-1.67119676 259.6029425 3.85312163 262.74618862 9.3359375 266.015625 C11.91782667 267.2809907 11.91782667 267.2809907 14.24389648 266.27880859 C17.46616764 264.78370218 20.62092296 263.18068947 23.76171875 261.5234375 C25.05789676 260.84626622 26.3541221 260.16918551 27.65039062 259.4921875 C29.67891282 258.4291935 31.70672904 257.36488646 33.73364258 256.29882812 C35.69952187 255.26602493 37.66794185 254.23820356 39.63671875 253.2109375 C40.24505051 252.88910492 40.85338226 252.56727234 41.48014832 252.23568726 C45.77349687 250 45.77349687 250 48 250 C48 243.07 48 236.14 48 229 C45.03 229 42.06 229 39 229 C36.46875 226.9453125 36.46875 226.9453125 34.5 224.125 C33.7575 223.11695313 33.015 222.10890625 32.25 221.0703125 C31.5075 220.05710937 30.765 219.04390625 30 218 C28.52309141 216.31283706 27.02352219 214.64519236 25.5 213 C22.38541332 209.58260628 19.4081338 206.0947765 16.5 202.5 C12.85297896 197.99223099 9.05863308 193.66024979 5.140625 189.38671875 C2.6891561 186.6534204 0.3504987 183.82059843 -2 181 C-2.33 197.17 -2.66 213.34 -3 230 C-7.29 230 -11.58 230 -16 230 C-16 194.03 -16 158.06 -16 121 C-11.71 121 -7.42 121 -3 121 C-2.67 135.52 -2.34 150.04 -2 165 C0.31 162.36 2.62 159.72 5 157 C6.9502643 154.86642104 8.90544053 152.7404282 10.875 150.625 C15.96909483 145.12955707 21.00108141 139.58227534 26 134 C27.66610473 132.14532838 29.33276232 130.29115323 31 128.4375 C31.7425 127.61121094 32.485 126.78492188 33.25 125.93359375 C34.14940606 124.93983036 35.05224029 123.94775971 36 123 C38.86267567 122.92674832 41.700719 122.90761795 44.5625 122.9375 C45.36880859 122.94201172 46.17511719 122.94652344 47.00585938 122.95117188 C49.00393756 122.96299482 51.00197783 122.98093086 53 123 C49.08695675 128.43592495 44.87107892 133.42443877 40.3515625 138.3671875 C38.00298292 140.99666032 35.77521304 143.69311033 33.5625 146.4375 C30.46851286 150.26455727 27.2716945 153.94280873 23.9375 157.5625 C19.37235402 162.52057717 15.13265833 167.67833662 11 173 C16.29459066 180.41242692 22.28568037 187.1702158 28.27441406 194.02001953 C31.03361382 197.18599435 33.76801809 200.37303795 36.5 203.5625 C36.97969238 204.12146973 37.45938477 204.68043945 37.95361328 205.25634766 C38.4123584 205.79179199 38.87110352 206.32723633 39.34375 206.87890625 C39.73755859 207.3385376 40.13136719 207.79816895 40.53710938 208.27172852 C42.70680712 210.83502797 44.85195781 213.41852963 47 216 C47.00586624 215.3426738 47.01173248 214.6853476 47.01777649 214.00810242 C47.08161303 207.17869902 47.16600729 200.34977113 47.26245117 193.52075195 C47.2957461 190.97068544 47.32376363 188.42054441 47.34643555 185.87036133 C47.379897 182.20882351 47.43220981 178.54797136 47.48828125 174.88671875 C47.49467117 173.7428923 47.5010611 172.59906586 47.50764465 171.420578 C47.53733589 169.82926811 47.53733589 169.82926811 47.56762695 168.20581055 C47.58428154 166.80349434 47.58428154 166.80349434 47.60127258 165.37284851 C48 163 48 163 49.22460938 161.19592285 C51.55963788 159.62302171 53.03244379 159.63778234 55.83862305 159.65942383 C56.8194133 159.65965042 57.80020355 159.65987701 58.81071472 159.66011047 C59.86704605 159.67559433 60.92337738 159.69107819 62.01171875 159.70703125 C63.09508011 159.71127609 64.17844147 159.71552094 65.29463196 159.71989441 C68.75917277 159.73670431 72.22313462 159.77436152 75.6875 159.8125 C78.03449682 159.82754381 80.38150274 159.84123274 82.72851562 159.85351562 C88.48608028 159.88406514 94.24239111 159.94278416 100 160 C100 150.43 100 140.86 100 131 C97.03 130.01 97.03 130.01 94 129 C92.11116018 127.99766596 90.25215575 126.93768118 88.421875 125.83203125 C87.35630371 125.19346191 86.29073242 124.55489258 85.19287109 123.89697266 C84.63235046 123.55756653 84.07182983 123.2181604 83.49432373 122.86846924 C80.490428 121.04998714 77.47492642 119.25090433 74.4609375 117.44921875 C73.8423587 117.07877441 73.22377991 116.70833008 72.5864563 116.32666016 C66.22329194 112.52173851 59.80399432 108.81761405 53.375 105.125 C51.23820623 103.89466154 49.1014854 102.66419638 46.96484375 101.43359375 C44.05527809 99.75853055 41.14559288 98.08368441 38.23486328 96.41064453 C35.79927677 95.00825417 33.36776825 93.59908037 30.9375 92.1875 C30.2347998 91.7848291 29.53209961 91.3821582 28.80810547 90.96728516 C24.11453388 88.22906776 24.11453388 88.22906776 23 86 C22.89135367 83.39193327 22.84268318 80.81015988 22.83886719 78.20141602 C22.83390228 77.39639648 22.82893738 76.59137695 22.82382202 75.76196289 C22.80918826 73.09260206 22.80239693 70.42330064 22.796875 67.75390625 C22.79112522 65.90307106 22.78536747 64.0522359 22.77960205 62.20140076 C22.76908907 58.31842775 22.76324813 54.43547547 22.75976562 50.55249023 C22.75427558 45.57098687 22.73023797 40.58975611 22.70179367 35.60833836 C22.68319459 31.78483777 22.67796319 27.96140326 22.67642975 24.13786125 C22.67339728 22.30099939 22.66534884 20.46413886 22.65224457 18.62732124 C22.63523837 16.06066085 22.63705065 13.49467199 22.64355469 10.92797852 C22.6343399 10.16579514 22.62512512 9.40361176 22.6156311 8.61833191 C22.65635261 3.50281261 22.65635261 3.50281261 24.34710693 1.02896118 C27.00722973 -0.62702199 28.92944852 -0.37584713 32 0 C34.99414062 1.35424805 34.99414062 1.35424805 38.15625 3.26171875 C38.731474 3.60359726 39.306698 3.94547577 39.89935303 4.29771423 C41.77379335 5.41554371 43.63664484 6.55130638 45.5 7.6875 C46.80880716 8.47246525 48.11838659 9.25614421 49.42871094 10.03857422 C52.0624293 11.6133523 54.69205706 13.19462448 57.31835938 14.78173828 C61.40198579 17.24700843 65.51114183 19.66774997 69.62451172 22.08300781 C78.24221055 27.14432321 86.81157796 32.28506666 95.375 37.4375 C103.5079787 42.32992656 111.66994092 47.16694314 119.875 51.9375 C172.59611958 82.59611958 172.59611958 82.59611958 176 86 C176.09443335 88.30053835 176.11742128 90.60402173 176.11352539 92.90649414 C176.11367142 93.62840439 176.11381744 94.35031464 176.1139679 95.09410095 C176.11326869 97.49114947 176.10547595 99.88812123 176.09765625 102.28515625 C176.0957921 103.94282489 176.09436818 105.60049407 176.09336853 107.25816345 C176.08954312 111.62954214 176.07971265 116.00088781 176.06866455 120.37225342 C176.05845092 124.82954461 176.05387101 129.28684111 176.04882812 133.74414062 C176.0380904 142.49610893 176.02101371 151.24805036 176 160 C176.86278564 159.97905273 177.72557129 159.95810547 178.61450195 159.93652344 C181.8180751 159.86832098 185.02127816 159.81818686 188.2253418 159.78027344 C189.61153338 159.76016725 190.99764025 159.73287755 192.38354492 159.69824219 C194.37641906 159.64968775 196.36991389 159.62916028 198.36328125 159.609375 C199.56251221 159.58842773 200.76174316 159.56748047 201.99731445 159.54589844 C205 160 205 160 206.66343784 161.54917908 C208.48893742 164.89655243 208.41849254 167.95079455 208.38768005 171.66723633 C208.39575836 172.83194191 208.39575836 172.83194191 208.40399987 174.02017689 C208.41831755 176.62428914 208.41116649 179.22789581 208.40405273 181.83203125 C208.40975427 183.69803273 208.41671769 185.56403072 208.42485046 187.43002319 C208.44281973 192.50019128 208.44160655 197.57018666 208.43590808 202.64037704 C208.43282204 206.87024214 208.43890207 211.10007378 208.44494683 215.32993412 C208.45900248 225.3062473 208.45742177 235.28247487 208.44604492 245.25878906 C208.43455896 255.5585422 208.44864509 265.8580351 208.4754414 276.15775394 C208.49757444 284.99520995 208.5042413 293.83258412 208.49836498 302.67006588 C208.49498891 307.95081246 208.49745373 313.23139215 208.51461601 318.51211548 C208.5300452 323.47636721 208.52617449 328.4402323 208.50731087 333.40446854 C208.50361397 335.22820586 208.50676533 337.05197159 208.51719666 338.87568283 C208.53033332 341.36182656 208.51892536 343.84667639 208.50120544 346.33276367 C208.51081045 347.057664 208.52041546 347.78256433 208.53031152 348.52943134 C208.48255132 351.7769831 208.1831248 353.72709405 206.35771275 356.44745636 C203.31226825 358.45286838 201.41338015 358.50300078 197.77539062 358.50793457 C195.85738647 358.52485352 195.85738647 358.52485352 193.90063477 358.54211426 C192.48583758 358.53433723 191.07104263 358.52614457 189.65625 358.51757812 C188.16462521 358.52299892 186.67300577 358.53012134 185.18139648 358.53881836 C181.13177372 358.55706004 177.08255839 358.5499809 173.03292847 358.53730202 C168.79602964 358.52717864 164.55916582 358.53656585 160.32226562 358.54284668 C153.2069675 358.55012503 146.09183542 358.54053052 138.9765625 358.52148438 C130.748972 358.49971519 122.52177797 358.50676643 114.29419708 358.52879 C107.23165746 358.5469387 100.16923723 358.54950494 93.10668182 358.53903532 C88.88786825 358.53279744 84.66924107 358.53197274 80.45043945 358.54518127 C76.48419627 358.55673156 72.51846451 358.54872962 68.55227661 358.52560425 C67.09621022 358.52031268 65.64010083 358.52183866 64.18405151 358.53065491 C62.19758638 358.54157434 60.21102724 358.525457 58.22460938 358.50793457 C57.11259155 358.50642647 56.00057373 358.50491837 54.8548584 358.50336456 C51.32055014 357.88020037 50.13090684 356.8458649 48 354 C47.609375 350.546875 47.609375 350.546875 47.75 346.75 C47.78609375 345.48671875 47.8221875 344.2234375 47.859375 342.921875 C47.90578125 341.95765625 47.9521875 340.9934375 48 340 C47.14245117 340.47421387 46.28490234 340.94842773 45.40136719 341.43701172 C42.21122282 343.20084407 39.02049391 344.96361665 35.82958984 346.72607422 C34.45019897 347.4881561 33.07096551 348.25052299 31.69189453 349.01318359 C29.70647106 350.11110703 27.72047857 351.20799493 25.734375 352.3046875 C25.12068054 352.6443454 24.50698608 352.9840033 23.87469482 353.33395386 C22.25310887 354.22866564 20.62676345 355.11473684 19 356 C17.89724731 356.61065308 17.89724731 356.61065308 16.7722168 357.23364258 C13.73659352 358.54633323 11.05013701 357.91266774 8 357 C4.36824513 355.42981555 0.91314297 353.57449575 -2.5625 351.6875 C-4.0798877 350.87998291 -4.0798877 350.87998291 -5.62792969 350.05615234 C-13.26599719 345.97832178 -20.85791448 341.81407409 -28.44555664 337.64331055 C-36.87951754 333.02348619 -45.419217 328.61766577 -53.96728516 324.21362305 C-61.97389633 320.07814628 -69.89896962 315.81449476 -77.79296875 311.46875 C-84.64333315 307.70952528 -91.55763512 304.08610816 -98.5 300.5 C-107.51436318 295.84248623 -116.46099618 291.07924807 -125.35058594 286.18774414 C-129.42558073 283.94574377 -133.50488899 281.72143561 -137.6328125 279.578125 C-138.3345459 279.21243408 -139.0362793 278.84674316 -139.75927734 278.4699707 C-141.60199955 277.51425913 -143.44924883 276.56728997 -145.296875 275.62109375 C-148 274 -148 274 -150 271 C-150.20996897 268.51833245 -150.30430032 266.14623986 -150.30780029 263.6630249 C-150.3165648 262.9099434 -150.32532931 262.1568619 -150.33435941 261.38095975 C-150.36113196 258.84999173 -150.37349187 256.31916297 -150.38574219 253.78808594 C-150.40154437 251.97635773 -150.41808228 250.16463581 -150.43530273 248.35292053 C-150.48773895 242.39679984 -150.51835618 236.44065103 -150.546875 230.484375 C-150.5575943 228.4343387 -150.56834932 226.38430259 -150.57913971 224.33426666 C-150.62239549 215.80729484 -150.65986965 207.2803306 -150.68238449 198.75327682 C-150.7148697 186.530383 -150.78123785 174.30876009 -150.89518619 162.08634543 C-150.97256732 153.49346509 -151.01164742 144.90092481 -151.02222562 136.30770516 C-151.02953522 131.17444607 -151.05359657 126.04254244 -151.11843109 120.90966034 C-151.17856729 116.07952654 -151.19123039 111.25156892 -151.16766357 106.42114067 C-151.16722184 104.65018285 -151.18385663 102.8791245 -151.21897125 101.10851479 C-151.46945238 87.74930965 -151.46945238 87.74930965 -147.86040497 83.45291901 C-145.30380753 81.62544391 -142.85734567 80.29400679 -140 79 C-138.42849587 78.08603324 -136.86339271 77.16085437 -135.30859375 76.21875 C-133.68716679 75.30844313 -132.06336554 74.40235538 -130.4375 73.5 C-122.54986572 69.05718948 -114.74983468 64.49143654 -107 59.8125 C-97.8081035 54.2681132 -88.57848854 48.79421272 -79.3125 43.375 C-78.39233597 42.83675095 -78.39233597 42.83675095 -77.45358276 42.28762817 C-75.02061503 40.86450798 -72.58764542 39.44139102 -70.15455627 38.01847839 C-61.97560546 33.23340099 -53.82233551 28.40492506 -45.66796875 23.578125 C-42.87351424 21.92518266 -40.07756709 20.27478925 -37.28125 18.625 C-36.33241943 18.06482178 -35.38358887 17.50464355 -34.40600586 16.92749023 C-32.53532704 15.82390698 -30.66376817 14.72181393 -28.79125977 13.62133789 C-24.6614279 11.18940482 -20.55199791 8.73724399 -16.49609375 6.18359375 C-15.81409912 5.75852539 -15.13210449 5.33345703 -14.42944336 4.89550781 C-13.19257001 4.1211121 -11.96219618 3.33617762 -10.74047852 2.53808594 C-7.03368283 0.22772729 -4.35320334 -0.65420331 0 0 Z " fill="#FEFCFA" transform="translate(227,77)"></path><path d="M0 0 C0.419339 7.89258542 0.73790225 15.78044599 0.93261909 23.68145466 C1.02615022 27.35196926 1.15255379 31.01481396 1.35791016 34.6809082 C2.6470215 58.30519916 2.6470215 58.30519916 -1.69189453 64.36160278 C-5.84195586 68.0812914 -10.47398677 70.1615819 -15.66616821 72.05158997 C-19.52370204 73.61919386 -22.83539632 75.95810593 -26.25 78.3125 C-27.01554199 78.81015869 -27.78108398 79.30781738 -28.56982422 79.82055664 C-29.49045654 80.42178345 -29.49045654 80.42178345 -30.4296875 81.03515625 C-35.72090401 84.4776203 -41.04741925 87.8641846 -46.375 91.25 C-47.26606445 91.81630127 -48.15712891 92.38260254 -49.07519531 92.96606445 C-49.94499023 93.51866943 -50.81478516 94.07127441 -51.7109375 94.640625 C-52.56913086 95.18654297 -53.42732422 95.73246094 -54.31152344 96.29492188 C-56.21804303 97.50406942 -58.1278955 98.7079691 -60.04003906 99.90820312 C-61.0297168 100.53146484 -62.01939453 101.15472656 -63.0390625 101.796875 C-63.94092285 102.36245117 -64.8427832 102.92802734 -65.77197266 103.51074219 C-68.07608273 104.94613157 -68.07608273 104.94613157 -70 107 C-70.30872773 108.97685131 -70.30872773 108.97685131 -70.26742554 111.27572632 C-70.28022049 112.62165108 -70.28022049 112.62165108 -70.29327393 113.99476624 C-70.29191437 115.47534767 -70.29191437 115.47534767 -70.29052734 116.98583984 C-70.29724457 118.02333878 -70.30396179 119.06083771 -70.31088257 120.129776 C-70.32994428 123.57354467 -70.33379094 127.0171193 -70.3359375 130.4609375 C-70.34235993 132.8474638 -70.34908787 135.2339893 -70.35610962 137.62051392 C-70.36810299 142.62918931 -70.37178834 147.63779563 -70.37060547 152.64648438 C-70.37040221 159.07180383 -70.39770286 165.49668132 -70.43214989 171.92189598 C-70.45436313 176.85291588 -70.45844471 181.78382852 -70.45738602 186.71489334 C-70.45975045 189.08402657 -70.468621 191.45316239 -70.48405075 193.82224655 C-70.50359674 197.13360474 -70.4979169 200.44399812 -70.48583984 203.75537109 C-70.50269836 205.22987984 -70.50269836 205.22987984 -70.51989746 206.73417664 C-70.53842341 211.98658668 -70.53842341 211.98658668 -68.16850281 216.52429199 C-65.24499779 218.51379357 -62.21753372 220.18314545 -59.05859375 221.7578125 C-58.38355301 222.10223389 -57.70851227 222.44665527 -57.01301575 222.80151367 C-54.82465306 223.91633788 -52.6311189 225.02056016 -50.4375 226.125 C-48.91784496 226.89739137 -47.39864096 227.67067076 -45.87988281 228.44482422 C-42.90342928 229.96178262 -39.92559033 231.4759621 -36.94677734 232.98828125 C-32.35736951 235.32252681 -27.79722212 237.70969899 -23.25 240.125 C-17.68890603 243.07250299 -12.10946922 245.98243085 -6.515625 248.8671875 C-5.85645081 249.20726837 -5.19727661 249.54734924 -4.51812744 249.8977356 C-1.21551501 251.6011582 2.08824163 253.30231212 5.39355469 255.00048828 C6.60614913 255.62526859 7.81871552 256.25010333 9.03125 256.875 C10.10955078 257.42929687 11.18785156 257.98359375 12.29882812 258.5546875 C15 260 15 260 18 262 C23.68525125 262.60633493 27.53950605 261.17910371 32.4296875 258.5 C33.10548859 258.14486328 33.78128967 257.78972656 34.47756958 257.42382812 C36.61744071 256.29589455 38.7462227 255.14871097 40.875 254 C43.02730634 252.85568726 45.18167665 251.71535732 47.33670044 250.57617188 C48.67315175 249.86784364 50.00758883 249.1556997 51.33981323 248.43945312 C55.89361756 246 55.89361756 246 57 246 C57.3957642 253.77898107 57.69681138 261.55556831 57.88080692 269.3421154 C57.96918777 272.95958095 58.08867717 276.57011975 58.2824707 280.18359375 C59.49868266 303.46412832 59.49868266 303.46412832 55.41653442 309.24075317 C51.46802039 312.7538516 47.0030413 314.63830237 42.03067017 316.2911377 C39.46227476 317.18770806 37.31547905 318.48594845 35.05078125 319.98046875 C33.80509744 320.71683975 32.5590356 321.45257184 31.3125 322.1875 C30.67634766 322.58001953 30.04019531 322.97253906 29.38476562 323.37695312 C25.046688 325.90116925 22.81086371 326.16318208 18 325 C15.37304688 323.88354492 15.37304688 323.88354492 12.71875 322.48046875 C11.72359375 321.95904297 10.7284375 321.43761719 9.703125 320.90039062 C8.11757813 320.05250977 8.11757813 320.05250977 6.5 319.1875 C5.39140625 318.60291016 4.2828125 318.01832031 3.140625 317.41601562 C-4.84245512 313.19209138 -12.77350361 308.87390831 -20.6875 304.5222168 C-27.57338122 300.74598866 -34.52274123 297.10420361 -41.5 293.5 C-50.2972612 288.95564789 -59.01591457 284.29168125 -67.69140625 279.51953125 C-74.57648765 275.74511972 -81.52420457 272.1036252 -88.5 268.5 C-96.79838322 264.21142653 -105.05089919 259.85073152 -113.25 255.375 C-114.16072266 254.87806641 -115.07144531 254.38113281 -116.00976562 253.86914062 C-120.70770234 251.29331372 -120.70770234 251.29331372 -123 250 C-124.28479091 249.43119346 -124.28479091 249.43119346 -125.59553719 248.85089588 C-128 247 -128 247 -128.64037895 243.96142864 C-128.64745935 242.70359979 -128.65453976 241.44577093 -128.66183472 240.14982605 C-128.67776804 239.09877472 -128.67776804 239.09877472 -128.69402325 238.02649003 C-128.72339436 235.67241317 -128.71689232 233.31980774 -128.71044922 230.96557617 C-128.72376954 229.28029187 -128.73915982 227.59502283 -128.75646973 225.90977478 C-128.79642691 221.32694065 -128.80397085 216.74459243 -128.80335379 212.16160369 C-128.80513193 208.33705109 -128.82104468 204.51260605 -128.83647549 200.68808824 C-128.87202287 191.66430763 -128.87975536 182.64078118 -128.87158203 173.61694336 C-128.86374222 164.30693383 -128.90768624 154.99815901 -128.97638309 145.68842715 C-129.03322638 137.69761405 -129.05532113 129.70720096 -129.05014813 121.71618825 C-129.0475694 116.94251523 -129.05877002 112.16986021 -129.10439682 107.39638329 C-129.14601918 102.90518435 -129.14432121 98.41605037 -129.10943604 93.92481422 C-129.10393162 92.2776632 -129.11376271 90.63037795 -129.14014053 88.98342896 C-129.32610933 76.53604114 -129.32610933 76.53604114 -126.04003048 72.72975445 C-123.74092476 71.16955777 -121.56115338 70.06037882 -119 69 C-117.89954346 68.32831787 -116.79908691 67.65663574 -115.6652832 66.96459961 C-114.63749756 66.36655518 -113.60971191 65.76851074 -112.55078125 65.15234375 C-111.69410858 64.65212456 -111.69410858 64.65212456 -110.82012939 64.14179993 C-109.60939972 63.4352406 -108.39795343 62.7299079 -107.18582153 62.02575684 C-104.6125053 60.5308565 -102.04278434 59.02982194 -99.47276306 57.52926636 C-98.17010387 56.76879362 -96.86725812 56.00864036 -95.56422424 55.24880981 C-89.8847544 51.93650501 -84.22051987 48.59881428 -78.5625 45.25 C-77.68311768 44.72978271 -76.80373535 44.20956543 -75.89770508 43.67358398 C-74.14411038 42.63606609 -72.39061004 41.5983887 -70.63720703 40.56054688 C-66.09280901 37.87143447 -61.54627274 35.1859413 -57 32.5 C-55.16665695 31.41668311 -53.33332361 30.33334979 -51.5 29.25 C-47.83333333 27.08333333 -44.16666667 24.91666667 -40.5 22.75 C-39.59088867 22.21270264 -38.68177734 21.67540527 -37.74511719 21.12182617 C-35.92839736 20.04850086 -34.11134489 18.97573838 -32.29394531 17.90356445 C-27.45341969 15.04685368 -22.62057623 12.17801152 -17.796875 9.29296875 C-16.78496094 8.6896875 -15.77304688 8.08640625 -14.73046875 7.46484375 C-12.77782696 6.30042434 -10.82722341 5.13257856 -8.87890625 3.9609375 C-8.00621094 3.44144531 -7.13351563 2.92195313 -6.234375 2.38671875 C-5.07760254 1.69388794 -5.07760254 1.69388794 -3.89746094 0.98706055 C-2 0 -2 0 0 0 Z " fill="#DD6D11" transform="translate(218,95)"></path><path d="M0 0 C44.55 0 89.1 0 135 0 C135 57.09 135 114.18 135 173 C90.45 173 45.9 173 0 173 C0 115.91 0 58.82 0 0 Z " fill="#E47710" transform="translate(287,249)"></path><path d="M0 0 C4.56897543 1.45423461 8.4461876 3.28132811 12.5 5.8125 C13.83145555 6.62724365 15.16352517 7.44098432 16.49609375 8.25390625 C17.21651855 8.69492676 17.93694336 9.13594727 18.67919922 9.59033203 C22.94951663 12.1841478 27.25804414 14.71339145 31.5625 17.25 C33.45967138 18.36973073 35.35680636 19.48952315 37.25390625 20.609375 C38.20539551 21.17076172 39.15688477 21.73214844 40.13720703 22.31054688 C44.7593711 25.03827802 49.37961088 27.76926382 54 30.5 C55.83332361 31.58334979 57.66665695 32.66668311 59.5 33.75 C63.16666667 35.91666667 66.83333333 38.08333333 70.5 40.25 C71.40782227 40.78641113 72.31564453 41.32282227 73.25097656 41.87548828 C75.08115842 42.95701849 76.91123685 44.03872374 78.74121094 45.12060547 C83.37192202 47.85798381 88.0044862 50.59213545 92.640625 53.3203125 C101.56490121 58.57543607 110.47069882 63.8569642 119.3125 69.25 C120.46057129 69.94923584 120.46057129 69.94923584 121.63183594 70.66259766 C126.87462831 73.87462831 126.87462831 73.87462831 128 75 C128.09413687 77.05556661 128.11742998 79.11440181 128.11352539 81.17211914 C128.11367142 81.81600082 128.11381744 82.45988251 128.1139679 83.12327576 C128.11326885 85.26060303 128.10547691 87.39784413 128.09765625 89.53515625 C128.09579204 91.01346285 128.09436815 92.49177007 128.09336853 93.97007751 C128.08954359 97.86798802 128.07971352 101.76586149 128.06866455 105.66375732 C128.05665516 110.33683761 128.05204808 115.00993026 128.04621124 119.68302155 C128.03650174 126.78870682 128.01734505 133.89431076 128 141 C111.17 141 94.34 141 77 141 C76.8125 124.25 76.8125 124.25 76.79223633 118.98144531 C76.76578182 117.59696663 76.73750274 116.21252109 76.70703125 114.828125 C76.71101929 114.11446777 76.71500732 113.40081055 76.71911621 112.66552734 C76.61538021 109.03285817 76.34501168 107.35705271 73.7824707 104.70507812 C72.86425537 104.14240234 71.94604004 103.57972656 71 103 C70.16645996 102.47954102 69.33291992 101.95908203 68.47412109 101.42285156 C67.58289551 100.9172168 66.69166992 100.41158203 65.7734375 99.890625 C64.75499756 99.30885498 63.73655762 98.72708496 62.68725586 98.12768555 C61.59421143 97.50804932 60.50116699 96.88841309 59.375 96.25 C57.02914817 94.90892186 54.68393913 93.56679492 52.33984375 92.22265625 C51.73723221 91.87745438 51.13462067 91.5322525 50.51374817 91.17658997 C43.95070021 87.4103477 37.44124028 83.55499189 30.9375 79.6875 C29.81472656 79.02000732 28.69195312 78.35251465 27.53515625 77.66479492 C25.36731125 76.37587941 23.19950377 75.08690079 21.03173828 73.79785156 C15.95325561 70.78625981 10.85916821 67.80111432 5.75756836 64.82885742 C1.10812602 62.10812602 1.10812602 62.10812602 0 61 C-0.09391296 59.09756238 -0.11743658 57.19161541 -0.11352539 55.28686523 C-0.11344986 54.0656749 -0.11337433 52.84448456 -0.11329651 51.58628845 C-0.10818911 50.24372314 -0.10297311 48.90115825 -0.09765625 47.55859375 C-0.09579199 46.19238842 -0.09436813 44.82618243 -0.09336853 43.4599762 C-0.08954394 39.85798305 -0.07971417 36.25603 -0.06866455 32.65405273 C-0.05844916 28.98096255 -0.05387064 25.30786591 -0.04882812 21.63476562 C-0.03809184 14.42315877 -0.02101614 7.211585 0 0 Z " fill="#EC800A" transform="translate(262,95)"></path><path d="M0 0 C0.72110962 -0.0038269 1.44221924 -0.00765381 2.18518066 -0.01159668 C3.70826617 -0.01431603 5.23139836 -0.00695293 6.75439453 0.00976562 C9.08601981 0.03117901 11.41456432 0.00996916 13.74609375 -0.015625 C15.2265693 -0.01298172 16.70704294 -0.00785674 18.1875 0 C18.8844397 -0.00809692 19.58137939 -0.01619385 20.29943848 -0.02453613 C23.33034847 0.03418716 25.160253 0.1712873 27.52954102 2.13867188 C28.94327063 5.31704998 28.99933346 7.86584474 29.02734375 11.34375 C29.0325856 11.99448486 29.03782745 12.64521973 29.04322815 13.31567383 C29.04963282 14.68732276 29.04833142 16.05902674 29.03979492 17.43066406 C29.03127508 19.52508521 29.06007474 21.61678497 29.09179688 23.7109375 C29.09340892 25.04687419 29.09283128 26.38281568 29.08984375 27.71875 C29.09262329 29.53439453 29.09262329 29.53439453 29.09545898 31.38671875 C28.59375 34.53125 28.59375 34.53125 27.00219727 36.92163086 C23.74298282 39.09983672 21.46764991 39.06373993 17.5625 39.09765625 C16.88956909 39.10385483 16.21663818 39.11005341 15.52331543 39.11643982 C14.10458824 39.12352441 12.68577768 39.12038751 11.26708984 39.10766602 C9.09967834 39.09378796 6.93657883 39.12788936 4.76953125 39.16601562 C3.38801978 39.16696683 2.00650292 39.16510791 0.625 39.16015625 C-1.25348633 39.1612439 -1.25348633 39.1612439 -3.16992188 39.16235352 C-6.40625 38.53125 -6.40625 38.53125 -8.81469727 36.41015625 C-10.7225209 32.9591582 -10.90860461 30.77030053 -10.90234375 26.83984375 C-10.90298828 25.56560547 -10.90363281 24.29136719 -10.90429688 22.97851562 C-10.89390381 22.32020752 -10.88351074 21.66189941 -10.87280273 20.98364258 C-10.84377785 18.9706815 -10.85221823 16.96034731 -10.86523438 14.94726562 C-10.80249822 5.41619526 -10.80249822 5.41619526 -9.34204102 2.15454102 C-6.46124893 -0.26119698 -3.59205081 -0.04173182 0 0 Z " fill="#FEFCFA" transform="translate(374.40625,268.46875)"></path><path d="M0 0 C0.6965419 -0.0038269 1.3930838 -0.00765381 2.11073303 -0.01159668 C3.58254442 -0.01431602 5.05440411 -0.00695297 6.52612305 0.00976562 C8.77437708 0.03114749 11.0194245 0.00998656 13.26757812 -0.015625 C14.69922578 -0.01298109 16.13087145 -0.00785479 17.5625 0 C19.51337524 0.00676758 19.51337524 0.00676758 21.50366211 0.01367188 C24.84765625 0.53125 24.84765625 0.53125 27.26977539 2.13867188 C29.38075095 5.33959413 29.36466468 7.52294053 29.37890625 11.34375 C29.38273315 11.99448486 29.38656006 12.64521973 29.39050293 13.31567383 C29.39321701 14.68735304 29.38589078 16.05908444 29.36914062 17.43066406 C29.34771744 19.52526685 29.36895262 21.61644084 29.39453125 23.7109375 C29.39188788 25.04688254 29.38676268 26.38282545 29.37890625 27.71875 C29.37439453 28.92917969 29.36988281 30.13960938 29.36523438 31.38671875 C28.84765625 34.53125 28.84765625 34.53125 27.25390625 36.92163086 C23.99619676 39.10081904 21.72074891 39.06374694 17.81640625 39.09765625 C17.14347534 39.10385483 16.47054443 39.11005341 15.77722168 39.11643982 C14.35849449 39.12352441 12.93968393 39.12038751 11.52099609 39.10766602 C9.35358459 39.09378796 7.19048508 39.12788936 5.0234375 39.16601562 C3.64192603 39.16696683 2.26040917 39.16510791 0.87890625 39.16015625 C-0.99958008 39.1612439 -0.99958008 39.1612439 -2.91601562 39.16235352 C-6.15234375 38.53125 -6.15234375 38.53125 -8.56079102 36.41015625 C-10.46861465 32.9591582 -10.65469836 30.77030053 -10.6484375 26.83984375 C-10.64908203 25.56560547 -10.64972656 24.29136719 -10.65039062 22.97851562 C-10.63999756 22.32020752 -10.62960449 21.66189941 -10.61889648 20.98364258 C-10.5898716 18.9706815 -10.59831198 16.96034731 -10.61132812 14.94726562 C-10.54850512 5.40300203 -10.54850512 5.40300203 -9.07226562 2.15454102 C-6.15675845 -0.31051585 -3.76847298 0.01308416 0 0 Z " fill="#FEFCFA" transform="translate(374.15234375,332.46875)"></path><path d="M0 0 C0.69891357 -0.00287018 1.39782715 -0.00574036 2.11791992 -0.00869751 C3.59392101 -0.01073675 5.06994921 -0.00521653 6.54589844 0.00732422 C8.80465138 0.0233817 11.06161518 0.0074728 13.3203125 -0.01171875 C14.75521228 -0.00973629 16.19011095 -0.00589256 17.625 0 C18.93082031 0.00338379 20.23664063 0.00676758 21.58203125 0.01025391 C24.8125 0.3984375 24.8125 0.3984375 26.73461914 1.48999023 C28.3912785 4.42319663 28.22014588 6.98475635 28.24609375 10.33203125 C28.2513356 11.00637711 28.25657745 11.68072296 28.26197815 12.37550354 C28.26839439 13.80020777 28.26706639 15.22496501 28.25854492 16.6496582 C28.2500414 18.82534572 28.27878342 20.99840053 28.31054688 23.17382812 C28.31215927 24.55989505 28.31158062 25.94596661 28.30859375 27.33203125 C28.31137329 29.2200647 28.31137329 29.2200647 28.31420898 31.14624023 C27.8125 34.3984375 27.8125 34.3984375 26.22314453 36.80908203 C22.94400437 38.97104298 20.65820505 38.90029062 16.74609375 38.89453125 C16.07079117 38.89598648 15.39548859 38.89744171 14.69972229 38.89894104 C13.27674022 38.8972857 11.85373958 38.88576502 10.4309082 38.86499023 C8.25329657 38.83598141 6.07811324 38.84439634 3.90039062 38.85742188 C2.51561318 38.85118545 1.1308434 38.84279524 -0.25390625 38.83203125 C-1.51146729 38.82228271 -2.76902832 38.81253418 -4.06469727 38.80249023 C-7.1875 38.3984375 -7.1875 38.3984375 -9.09594727 37.32055664 C-10.8024548 34.31556138 -10.57705137 31.64013562 -10.5859375 28.2109375 C-10.58880768 27.51202393 -10.59167786 26.81311035 -10.59463501 26.09301758 C-10.59667425 24.61701649 -10.59115403 23.14098829 -10.57861328 21.66503906 C-10.5625558 19.40628612 -10.5784647 17.14932232 -10.59765625 14.890625 C-10.59567379 13.45572522 -10.59183006 12.02082655 -10.5859375 10.5859375 C-10.58255371 9.28011719 -10.57916992 7.97429687 -10.57568359 6.62890625 C-10.1875 3.3984375 -10.1875 3.3984375 -9.11181641 1.47412109 C-6.10229098 -0.20818911 -3.42228508 0.00886821 0 0 Z " fill="#FEFCFA" transform="translate(317.1875,332.6015625)"></path><path d="M0 0 C0.69891357 -0.00287018 1.39782715 -0.00574036 2.11791992 -0.00869751 C3.59392101 -0.01073675 5.06994921 -0.00521653 6.54589844 0.00732422 C8.80465138 0.0233817 11.06161518 0.0074728 13.3203125 -0.01171875 C14.75521228 -0.00973629 16.19011095 -0.00589256 17.625 0 C18.93082031 0.00338379 20.23664063 0.00676758 21.58203125 0.01025391 C24.8125 0.3984375 24.8125 0.3984375 26.73461914 1.48999023 C28.3912785 4.42319663 28.22014588 6.98475635 28.24609375 10.33203125 C28.2513356 11.00637711 28.25657745 11.68072296 28.26197815 12.37550354 C28.26839439 13.80020777 28.26706639 15.22496501 28.25854492 16.6496582 C28.2500414 18.82534572 28.27878342 20.99840053 28.31054688 23.17382812 C28.31215927 24.55989505 28.31158062 25.94596661 28.30859375 27.33203125 C28.31137329 29.2200647 28.31137329 29.2200647 28.31420898 31.14624023 C27.8125 34.3984375 27.8125 34.3984375 26.22314453 36.80908203 C22.94400437 38.97104298 20.65820505 38.90029062 16.74609375 38.89453125 C16.07079117 38.89598648 15.39548859 38.89744171 14.69972229 38.89894104 C13.27674022 38.8972857 11.85373958 38.88576502 10.4309082 38.86499023 C8.25329657 38.83598141 6.07811324 38.84439634 3.90039062 38.85742188 C2.51561318 38.85118545 1.1308434 38.84279524 -0.25390625 38.83203125 C-1.51146729 38.82228271 -2.76902832 38.81253418 -4.06469727 38.80249023 C-7.1875 38.3984375 -7.1875 38.3984375 -9.09594727 37.32055664 C-10.8024548 34.31556138 -10.57705137 31.64013562 -10.5859375 28.2109375 C-10.58880768 27.51202393 -10.59167786 26.81311035 -10.59463501 26.09301758 C-10.59667425 24.61701649 -10.59115403 23.14098829 -10.57861328 21.66503906 C-10.5625558 19.40628612 -10.5784647 17.14932232 -10.59765625 14.890625 C-10.59567379 13.45572522 -10.59183006 12.02082655 -10.5859375 10.5859375 C-10.58255371 9.28011719 -10.57916992 7.97429687 -10.57568359 6.62890625 C-10.1875 3.3984375 -10.1875 3.3984375 -9.11181641 1.47412109 C-6.10229098 -0.20818911 -3.42228508 0.00886821 0 0 Z " fill="#FEFCFA" transform="translate(317.1875,268.6015625)"></path><path d="M0 0 C4.29 0 8.58 0 13 0 C13 4.29 13 8.58 13 13 C8.71 13 4.42 13 0 13 C0 8.71 0 4.42 0 0 Z " fill="#E67C17" transform="translate(377,345)"></path><path d="M0 0 C4.29 0 8.58 0 13 0 C13 4.29 13 8.58 13 13 C8.71 13 4.42 13 0 13 C0 8.71 0 4.42 0 0 Z " fill="#E98115" transform="translate(377,281)"></path><path d="M0 0 C3.96 0 7.92 0 12 0 C12 3.96 12 7.92 12 12 C8.04 12 4.08 12 0 12 C0 8.04 0 4.08 0 0 Z " fill="#E1720E" transform="translate(320,346)"></path><path d="M0 0 C3.96 0 7.92 0 12 0 C12 3.96 12 7.92 12 12 C8.04 12 4.08 12 0 12 C0 8.04 0 4.08 0 0 Z " fill="#E5770C" transform="translate(320,282)"></path></svg>