<svg version="1.1" xmlns="http://www.w3.org/2000/svg" width="16px" height="16px" fill="currentColor" viewBox="0 0 512 512"><path d="M0 0 C168.96 0 337.92 0 512 0 C512 168.96 512 337.92 512 512 C343.04 512 174.08 512 0 512 C0 343.04 0 174.08 0 0 Z " fill="#438A26" transform="translate(0,0)"></path><path d="M0 0 C0.89822983 -0.03898911 1.79645966 -0.07797821 2.72190857 -0.1181488 C12.19366835 -0.50108448 21.67359658 -0.66915362 31.15136719 -0.82324219 C35.62768524 -0.90289542 40.09414962 -1.04804949 44.56640625 -1.25390625 C49.9982268 -1.50322983 55.42084213 -1.62828009 60.85807228 -1.67243385 C62.90761276 -1.70866035 64.95693501 -1.78556582 67.00314903 -1.9077816 C74.00352536 -2.30428742 80.82003504 -2.43792298 87.2277832 0.72143555 C90.62183594 3.89552424 93.49061902 7.44377188 96.42418778 11.03373134 C104.36453779 20.63206578 110.9755159 25.91546846 123.66425377 27.1242246 C133.67129285 27.77789942 143.69818422 27.52650794 153.71340084 27.22509289 C159.21357985 27.08663456 164.71374574 27.09038647 170.21539307 27.07891846 C180.59991082 27.03696627 190.97881607 26.87670133 201.36120915 26.66910768 C216.63543056 26.36920035 231.91134599 26.25155205 247.18787003 26.13209915 C249.44338279 26.1141945 251.69889504 26.09622404 253.95440674 26.07818604 C255.05513905 26.06958974 256.15587136 26.06099345 257.28995919 26.05213666 C263.82610966 25.99708455 270.36069253 25.90791131 276.89596796 25.78792048 C280.94401401 25.71534751 284.99219837 25.65743954 289.04050636 25.60164452 C290.91921803 25.57178001 292.79783168 25.53479125 294.67625237 25.49023628 C297.23540291 25.43001323 299.79380076 25.39416558 302.35345459 25.36395264 C303.4728693 25.3277557 303.4728693 25.3277557 304.61489844 25.29082751 C308.05708626 25.27401083 309.89365167 25.47280423 312.69154739 27.55475235 C314.81221861 30.5457142 314.68461611 32.59562553 314.6184082 36.23706055 C314.59907227 38.11264648 314.59907227 38.11264648 314.5793457 40.02612305 C314.54583008 41.32807617 314.51231445 42.6300293 314.4777832 43.97143555 C314.45973633 45.28885742 314.44168945 46.6062793 314.4230957 47.96362305 C314.37594591 51.21695862 314.31014364 54.4688318 314.2277832 57.72143555 C315.46866699 57.69001465 315.46866699 57.69001465 316.73461914 57.65795898 C320.48221691 57.57481935 324.22962069 57.52278024 327.9777832 57.47143555 C329.27973633 57.43791992 330.58168945 57.4044043 331.9230957 57.36987305 C333.17348633 57.35698242 334.42387695 57.3440918 335.7121582 57.33081055 C337.44030762 57.29938965 337.44030762 57.29938965 339.20336914 57.26733398 C342.2277832 57.72143555 342.2277832 57.72143555 344.38548374 59.17528439 C347.13242913 62.97170203 346.77888822 66.33587212 346.72898865 70.91395569 C346.73452304 71.85447373 346.74005744 72.79499178 346.74575955 73.76401037 C346.75939978 76.92334402 346.74437832 80.0818923 346.72949219 83.24121094 C346.7332741 85.50291785 346.73877308 87.76462245 346.74586487 90.02632141 C346.75985248 96.17494829 346.7486267 102.32329639 346.73215365 108.47190785 C346.71832865 114.89805792 346.72476026 121.32419139 346.72828674 127.75035095 C346.73099069 138.54195741 346.71758405 149.33342617 346.69433594 160.125 C346.67040924 171.23278934 346.66333372 182.34043171 346.67382812 193.44824219 C346.68644738 206.82909351 346.68395368 220.2098408 346.66816902 233.59069633 C346.66240001 238.70429509 346.66249907 243.81784467 346.66723442 248.93144417 C346.67199482 254.94869518 346.66194134 260.9657419 346.64027977 266.98295403 C346.6346992 269.19573147 346.63425817 271.40852849 346.63923264 273.62130737 C346.64515585 276.63306722 346.63273734 279.64419619 346.61546326 282.65589905 C346.62447832 283.9810757 346.62447832 283.9810757 346.63367552 285.33302361 C346.57129939 291.28013601 346.57129939 291.28013601 344.88553482 293.44576067 C342.28370969 295.44792006 339.97198443 295.08022092 336.73681641 295.06201172 C336.0828891 295.0624498 335.42896179 295.06288788 334.75521851 295.06333923 C332.59602897 295.06125094 330.43761815 295.03791943 328.27856445 295.0144043 C326.78069991 295.00880845 325.28282988 295.0045383 323.78495789 295.00154114 C319.84419574 294.99009134 315.90376575 294.96062332 311.96313477 294.9274292 C307.94137058 294.89673103 303.91955268 294.88303636 299.89770508 294.86791992 C292.00756177 294.83575341 284.11775208 294.78298469 276.2277832 294.72143555 C276.2277832 290.43143555 276.2277832 286.14143555 276.2277832 281.72143555 C295.3677832 281.72143555 314.5077832 281.72143555 334.2277832 281.72143555 C334.2277832 212.09143555 334.2277832 142.46143555 334.2277832 70.72143555 C234.5677832 70.72143555 134.9077832 70.72143555 32.2277832 70.72143555 C32.26739711 139.03943263 32.26739711 139.03943263 32.31787109 207.35742188 C32.3223877 220.54699707 32.3223877 220.54699707 32.32322693 226.71440125 C32.32416156 231.03760792 32.32792085 235.36080242 32.33335876 239.68400574 C32.34019441 245.19097393 32.34227871 250.69792429 32.34085548 256.20489633 C32.34115329 258.2306657 32.34315001 260.25643567 32.34699833 262.28220141 C32.35194058 265.00955303 32.35078475 267.73683453 32.34803772 270.46418762 C32.35240672 271.66471283 32.35240672 271.66471283 32.35686398 272.88949108 C32.34811597 276.10044118 32.25080877 278.65235884 31.2277832 281.72143555 C53.0077832 281.72143555 74.7877832 281.72143555 97.2277832 281.72143555 C97.2277832 286.01143555 97.2277832 290.30143555 97.2277832 294.72143555 C85.27494734 294.8607784 73.32230638 294.96723062 61.3688221 295.03230858 C55.81760993 295.06355127 50.26695562 295.10589535 44.71606445 295.17407227 C39.35381503 295.23951616 33.9921004 295.27519465 28.62948227 295.29069901 C26.58900414 295.30174047 24.54855354 295.32330199 22.5083046 295.35581589 C1.42554135 295.67827361 1.42554135 295.67827361 -5.7722168 288.72143555 C-11.27619297 281.75035462 -12.64364809 275.83190341 -12.51393127 267.09901428 C-12.52117452 265.96960983 -12.52841777 264.84020538 -12.53588051 263.67657655 C-12.55271144 259.91372842 -12.52686735 256.15242655 -12.50097656 252.38964844 C-12.50087391 249.68369539 -12.50977628 246.97778861 -12.51823425 244.27185059 C-12.53330912 237.70004351 -12.51650336 231.12869162 -12.48868335 224.55694116 C-12.45745148 216.90300197 -12.45774391 209.24915981 -12.45920109 201.59516888 C-12.46070071 187.94307009 -12.43327306 174.2911827 -12.38964844 160.63916016 C-12.34733238 147.38977206 -12.32613876 134.14056987 -12.328125 120.89111328 C-12.3283048 119.66546277 -12.3283048 119.66546277 -12.32848824 118.41505165 C-12.3286093 117.59936426 -12.32873037 116.78367688 -12.3288551 115.9432717 C-12.33092314 100.85332193 -12.31327066 85.76345112 -12.28639545 70.67352693 C-12.27734144 65.33629936 -12.27415626 59.99908628 -12.27279854 54.66185188 C-12.27075466 48.16454303 -12.25739497 41.6673674 -12.22980011 35.17011512 C-12.21592893 31.85425552 -12.20840727 28.53860131 -12.21058273 25.22270775 C-12.212047 21.6332512 -12.1951666 18.04435067 -12.1733551 14.45497131 C-12.17800091 13.40052025 -12.18264671 12.34606919 -12.1874333 11.25966507 C-12.17775996 10.30192513 -12.16808663 9.34418519 -12.15812016 8.35742283 C-12.15600688 7.52859799 -12.15389361 6.69977315 -12.15171629 5.84583241 C-11.02115932 -0.48290242 -5.28220832 0.16744753 0 0 Z " fill="#FBFCFA" transform="translate(88.772216796875,76.278564453125)"></path><path d="M0 0 C13.91594741 4.17651722 25.57266689 28.87373488 32.07421875 40.9453125 C37.97701912 52.22505742 42.3723818 63.70737309 45.62548828 76.01171875 C46.07867621 77.72231924 46.55704753 79.42620402 47.0390625 81.12890625 C48.35464315 86.15560247 49.22195567 90.59519232 48.91796875 95.79296875 C48.6075161 105.64221355 49.81182877 112.29292585 56.56640625 119.625 C61.70924249 125.00290472 67.2288515 129.99204774 72.85180664 134.86035156 C75.13671875 136.94140625 75.13671875 136.94140625 76.13671875 138.94140625 C76.37166766 144.87325212 75.78594746 150.47493323 74.89453125 156.33203125 C74.76609833 157.19906677 74.63766541 158.06610229 74.50534058 158.95941162 C74.23417629 160.77839091 73.960055 162.59693162 73.68310547 164.41503906 C73.26103068 167.19593973 72.85263069 169.97862287 72.4453125 172.76171875 C72.17920437 174.53527932 71.91230489 176.30872138 71.64453125 178.08203125 C71.52361115 178.91124084 71.40269104 179.74045044 71.27810669 180.5947876 C71.09814651 181.75684723 71.09814651 181.75684723 70.91455078 182.94238281 C70.81240265 183.61996643 70.71025452 184.29755005 70.60501099 184.9956665 C70.07056578 187.21626979 69.30232822 188.97859803 68.13671875 190.94140625 C65.29196914 192.36378106 63.28943732 192.24972627 60.13671875 191.94140625 C57.8190918 190.2890625 57.8190918 190.2890625 55.6484375 188.00390625 C54.46604492 186.78574219 54.46604492 186.78574219 53.25976562 185.54296875 C52.45603516 184.68445313 51.65230469 183.8259375 50.82421875 182.94140625 C49.20482954 181.25227044 47.58382781 179.56467854 45.9609375 177.87890625 C45.25026123 177.12480469 44.53958496 176.37070312 43.80737305 175.59375 C42.40984505 173.82420629 42.40984505 173.82420629 41.13671875 173.94140625 C40.88277344 175.07320312 40.62882812 176.205 40.3671875 177.37109375 C40.02015623 178.85301108 39.67246562 180.33477411 39.32421875 181.81640625 C39.15857422 182.56277344 38.99292969 183.30914062 38.82226562 184.078125 C37.4765625 189.71484375 37.4765625 189.71484375 34.13671875 191.94140625 C31.13867188 192.20210266 31.13867188 192.20210266 27.41796875 192.21606445 C26.40041504 192.22373085 26.40041504 192.22373085 25.36230469 192.23155212 C23.12035293 192.24545035 20.87870845 192.24449145 18.63671875 192.2421875 C17.07877488 192.24607391 15.52083206 192.25040846 13.96289062 192.25517273 C10.69788172 192.26263512 7.43298095 192.26234326 4.16796875 192.25708008 C-0.01876698 192.25128099 -4.20506097 192.26822659 -8.39172363 192.29142475 C-11.60875034 192.30614557 -14.82567019 192.30703614 -18.04272461 192.30391502 C-19.58651607 192.30442893 -21.13031341 192.30967962 -22.67407227 192.31972694 C-24.8311855 192.33204451 -26.98743221 192.3253292 -29.14453125 192.3137207 C-30.37236328 192.31435013 -31.60019531 192.31497955 -32.86523438 192.31562805 C-35.86328125 191.94140625 -35.86328125 191.94140625 -37.72387695 190.59391785 C-39.38692264 188.18195373 -39.89242388 185.78383806 -40.55078125 182.94140625 C-40.80214844 181.88953125 -41.05351562 180.83765625 -41.3125 179.75390625 C-41.86328125 176.94140625 -41.86328125 176.94140625 -41.86328125 173.94140625 C-47.45506794 178.65850005 -52.65266058 183.66674543 -57.76171875 188.90234375 C-60.33251846 191.39668845 -61.22278634 191.88689604 -64.80078125 192.19140625 C-67.86328125 191.94140625 -67.86328125 191.94140625 -69.4609375 190.88671875 C-71.52163738 188.02814343 -71.84983062 184.97381591 -72.36328125 181.56640625 C-72.48292236 180.82616211 -72.60256348 180.08591797 -72.72583008 179.32324219 C-72.98186567 177.71615717 -73.23135867 176.10801934 -73.47509766 174.49902344 C-73.87482946 171.86531883 -74.29660213 169.23566462 -74.71875 166.60546875 C-75.91246172 158.99057701 -77.05111403 151.32840238 -77.48828125 143.62890625 C-77.54242188 142.70464844 -77.5965625 141.78039062 -77.65234375 140.828125 C-75.94029363 134.56473371 -70.44862936 130.33343447 -65.56640625 126.35546875 C-57.48133778 119.63218996 -52.18339232 114.16811454 -50.86499023 103.42675781 C-50.53115812 98.97005052 -50.29541908 94.51331563 -50.09423828 90.04882812 C-49.52934343 82.4484247 -47.18393156 75.1656625 -44.86328125 67.94140625 C-44.54883057 66.94270508 -44.54883057 66.94270508 -44.22802734 65.92382812 C-39.59606561 51.56082437 -18.6777101 -0.38221781 0 0 Z " fill="#448A27" transform="translate(275.86328125,166.05859375)"></path><path d="M0 0 C10.14368781 -0.56226324 20.28354259 -0.98544221 30.43977356 -1.24349213 C35.15970899 -1.3675333 39.86882236 -1.5347504 44.58251953 -1.81054688 C76.86683302 -3.65071045 76.86683302 -3.65071045 84.44824219 2.39181519 C87.5459808 5.31502791 90.19424836 8.58307996 92.8125 11.93359375 C99.09194522 19.89997872 104.17420552 24.83164977 114.55078125 26.17822266 C125.26341364 27.23994363 136.0654633 26.93242594 146.80962753 26.63538361 C152.210433 26.51200297 157.61097704 26.52734977 163.01293945 26.52685547 C173.20381199 26.50541567 183.38906241 26.36246773 193.57806301 26.17383957 C205.19347887 25.96487029 216.80851131 25.89440331 228.42550278 25.83452415 C252.28644632 25.70848492 276.14233528 25.40699836 300 25 C300 31.27 300 37.54 300 44 C297.8627723 44.00634791 297.8627723 44.00634791 295.68236828 44.01282406 C261.88446274 44.11342973 228.08657686 44.21912558 194.28870712 44.33111694 C190.13168052 44.34488705 185.97465378 44.35861407 181.81762695 44.37231445 C180.99001359 44.37504276 180.16240023 44.37777106 179.30970768 44.38058204 C165.89693297 44.42469566 152.48414984 44.46531599 139.07136037 44.50465261 C125.315692 44.5450723 111.56003931 44.58922912 97.80439407 44.63687855 C89.31170654 44.66617865 80.81902022 44.69253957 72.32631228 44.71517897 C66.50801867 44.73096789 60.68974427 44.75037624 54.87147196 44.77266841 C51.51117951 44.785435 48.15091666 44.79603452 44.79060555 44.80341911 C41.15262211 44.81166395 37.51471184 44.82593612 33.87675476 44.84178162 C32.80770061 44.84275972 31.73864645 44.84373783 30.63719672 44.84474558 C29.18088614 44.85295724 29.18088614 44.85295724 27.69515514 44.8613348 C26.43467351 44.86532186 26.43467351 44.86532186 25.1487276 44.86938947 C22.81429544 44.91852061 22.81429544 44.91852061 20 46 C19.99761165 47.10344348 19.99522329 48.20688696 19.99276257 49.34376812 C19.93400505 76.17540724 19.85814549 103.00695629 19.76428509 129.83849621 C19.71929236 142.81395341 19.6798857 155.78938296 19.65356445 168.76489258 C19.63061256 180.07247126 19.59724599 191.37996267 19.55129844 202.68747216 C19.52732838 208.67640346 19.50862439 214.66524811 19.50238609 220.6542263 C19.49635239 226.28896922 19.47641457 231.92349032 19.44572449 237.55815125 C19.43691675 239.62817153 19.43322731 241.69822077 19.43499184 243.76825905 C19.4366387 246.59126274 19.41999542 249.41358551 19.39872742 252.23649597 C19.40357499 253.05848565 19.40842257 253.88047532 19.41341704 254.72737378 C19.35614373 259.32354412 18.90351013 262.37225991 16 266 C12.83181244 268.11212504 10.86780748 268.33156464 7.1328125 268.55859375 C3.56066926 267.62303243 2.23923283 265.9120608 0 263 C-0.7383992 259.47463266 -0.65311345 256.00486485 -0.60127258 252.41423035 C-0.60554471 251.33598395 -0.60981683 250.25773756 -0.61421841 249.14681703 C-0.62246584 245.52738944 -0.59493251 241.90911606 -0.56762695 238.28979492 C-0.56621687 235.69795764 -0.56700768 233.10611835 -0.56983948 230.51428223 C-0.57246048 224.93100688 -0.55678133 219.34802383 -0.52865028 213.76482201 C-0.48800432 205.69251469 -0.47499198 197.62034862 -0.46871033 189.54795007 C-0.45776883 176.45091329 -0.42449865 163.35403228 -0.37719727 150.25708008 C-0.33129787 137.53508279 -0.29590785 124.81312783 -0.2746582 112.09106445 C-0.27334459 111.30679823 -0.27203097 110.52253201 -0.27067754 109.71450015 C-0.26415233 105.78004285 -0.25783379 101.84558525 -0.25161803 97.91112745 C-0.19978954 65.27397157 -0.1117283 32.63700663 0 0 Z " fill="#458B28" transform="translate(90,90)"></path><path d="M0 0 C13.91594741 4.17651722 25.57266689 28.87373488 32.07421875 40.9453125 C37.97701912 52.22505742 42.3723818 63.70737309 45.62548828 76.01171875 C46.07867621 77.72231924 46.55704753 79.42620402 47.0390625 81.12890625 C48.35464315 86.15560247 49.22195567 90.59519232 48.91796875 95.79296875 C48.6075161 105.64221355 49.81182877 112.29292585 56.56640625 119.625 C61.70924249 125.00290472 67.2288515 129.99204774 72.85180664 134.86035156 C75.13671875 136.94140625 75.13671875 136.94140625 76.13671875 138.94140625 C76.37166766 144.87325212 75.78594746 150.47493323 74.89453125 156.33203125 C74.76609833 157.19906677 74.63766541 158.06610229 74.50534058 158.95941162 C74.23417629 160.77839091 73.960055 162.59693162 73.68310547 164.41503906 C73.26103068 167.19593973 72.85263069 169.97862287 72.4453125 172.76171875 C72.17920437 174.53527932 71.91230489 176.30872138 71.64453125 178.08203125 C71.52361115 178.91124084 71.40269104 179.74045044 71.27810669 180.5947876 C71.09814651 181.75684723 71.09814651 181.75684723 70.91455078 182.94238281 C70.81240265 183.61996643 70.71025452 184.29755005 70.60501099 184.9956665 C70.07056578 187.21626979 69.30232822 188.97859803 68.13671875 190.94140625 C65.29196914 192.36378106 63.28943732 192.24972627 60.13671875 191.94140625 C57.8190918 190.2890625 57.8190918 190.2890625 55.6484375 188.00390625 C54.46604492 186.78574219 54.46604492 186.78574219 53.25976562 185.54296875 C52.45603516 184.68445313 51.65230469 183.8259375 50.82421875 182.94140625 C49.20482954 181.25227044 47.58382781 179.56467854 45.9609375 177.87890625 C45.25026123 177.12480469 44.53958496 176.37070312 43.80737305 175.59375 C42.40984505 173.82420629 42.40984505 173.82420629 41.13671875 173.94140625 C40.88277344 175.07320312 40.62882812 176.205 40.3671875 177.37109375 C40.02015623 178.85301108 39.67246562 180.33477411 39.32421875 181.81640625 C39.15857422 182.56277344 38.99292969 183.30914062 38.82226562 184.078125 C37.4765625 189.71484375 37.4765625 189.71484375 34.13671875 191.94140625 C31.13867188 192.20210266 31.13867188 192.20210266 27.41796875 192.21606445 C26.40041504 192.22373085 26.40041504 192.22373085 25.36230469 192.23155212 C23.12035293 192.24545035 20.87870845 192.24449145 18.63671875 192.2421875 C17.07877488 192.24607391 15.52083206 192.25040846 13.96289062 192.25517273 C10.69788172 192.26263512 7.43298095 192.26234326 4.16796875 192.25708008 C-0.01876698 192.25128099 -4.20506097 192.26822659 -8.39172363 192.29142475 C-11.60875034 192.30614557 -14.82567019 192.30703614 -18.04272461 192.30391502 C-19.58651607 192.30442893 -21.13031341 192.30967962 -22.67407227 192.31972694 C-24.8311855 192.33204451 -26.98743221 192.3253292 -29.14453125 192.3137207 C-30.37236328 192.31435013 -31.60019531 192.31497955 -32.86523438 192.31562805 C-35.86328125 191.94140625 -35.86328125 191.94140625 -37.72387695 190.59391785 C-39.38692264 188.18195373 -39.89242388 185.78383806 -40.55078125 182.94140625 C-40.80214844 181.88953125 -41.05351562 180.83765625 -41.3125 179.75390625 C-41.86328125 176.94140625 -41.86328125 176.94140625 -41.86328125 173.94140625 C-47.45506794 178.65850005 -52.65266058 183.66674543 -57.76171875 188.90234375 C-60.33251846 191.39668845 -61.22278634 191.88689604 -64.80078125 192.19140625 C-67.86328125 191.94140625 -67.86328125 191.94140625 -69.4609375 190.88671875 C-71.52163738 188.02814343 -71.84983062 184.97381591 -72.36328125 181.56640625 C-72.48292236 180.82616211 -72.60256348 180.08591797 -72.72583008 179.32324219 C-72.98186567 177.71615717 -73.23135867 176.10801934 -73.47509766 174.49902344 C-73.87482946 171.86531883 -74.29660213 169.23566462 -74.71875 166.60546875 C-75.91246172 158.99057701 -77.05111403 151.32840238 -77.48828125 143.62890625 C-77.54242188 142.70464844 -77.5965625 141.78039062 -77.65234375 140.828125 C-75.94029363 134.56473371 -70.44862936 130.33343447 -65.56640625 126.35546875 C-57.48133778 119.63218996 -52.18339232 114.16811454 -50.86499023 103.42675781 C-50.53115812 98.97005052 -50.29541908 94.51331563 -50.09423828 90.04882812 C-49.52934343 82.4484247 -47.18393156 75.1656625 -44.86328125 67.94140625 C-44.54883057 66.94270508 -44.54883057 66.94270508 -44.22802734 65.92382812 C-39.59606561 51.56082437 -18.6777101 -0.38221781 0 0 Z M-1.86328125 16.94140625 C-3.48381659 18.7579988 -4.96087246 20.56641939 -6.42578125 22.50390625 C-6.86978271 23.08962402 -7.31378418 23.6753418 -7.77124023 24.27880859 C-19.86971852 40.54346509 -29.34313534 59.02340466 -34.29443359 78.71289062 C-34.717875 80.37176322 -35.17088344 82.02314386 -35.63916016 83.66992188 C-37.36807523 89.9827843 -38.16932241 95.84264627 -38.37768555 102.37744141 C-38.93541692 118.45931151 -38.93541692 118.45931151 -43.55078125 123.56640625 C-45.27844651 125.07563107 -47.05702345 126.52718577 -48.86328125 127.94140625 C-58.61760511 135.65774835 -58.61760511 135.65774835 -64.671875 145.97265625 C-64.40006549 149.11356614 -63.68429393 151.89712031 -62.86328125 154.94140625 C-62.42483993 158.0160279 -62.12016055 161.1024745 -61.80078125 164.19140625 C-61.62563397 165.67616681 -61.44751645 167.16058179 -61.265625 168.64453125 C-61.13285156 169.7325 -61.00007812 170.82046875 -60.86328125 171.94140625 C-57.69782932 170.55795446 -55.74338201 168.98704827 -53.4375 166.4296875 C-52.80521484 165.75486328 -52.17292969 165.08003906 -51.52148438 164.38476562 C-50.20719514 162.96366597 -48.90502656 161.53126048 -47.61523438 160.08789062 C-45.7710551 158.142814 -44.08826891 156.43850428 -41.86328125 154.94140625 C-37.8828125 154.984375 -37.8828125 154.984375 -34.86328125 155.94140625 C-31.55440347 163.88271292 -30.01914691 171.31794361 -27.86328125 179.94140625 C-10.04328125 179.94140625 7.77671875 179.94140625 26.13671875 179.94140625 C28.31524372 173.40583134 29.96702593 167.43878793 31.29296875 160.76171875 C32.60012648 156.39242302 32.60012648 156.39242302 35.13671875 154.94140625 C39.10747993 154.70119971 41.03436251 155.08404724 44.18652344 157.53564453 C46.3762079 159.62598314 48.45326748 161.78434231 50.51171875 164.00390625 C51.93449023 165.49642143 53.35887728 166.98739881 54.78515625 168.4765625 C55.40567871 169.14051025 56.02620117 169.80445801 56.66552734 170.48852539 C57.91069356 172.0585171 57.91069356 172.0585171 59.13671875 171.94140625 C59.83868634 167.88126864 60.52074514 163.81803037 61.19921875 159.75390625 C61.49795898 158.02817383 61.49795898 158.02817383 61.80273438 156.26757812 C61.98642578 155.15576172 62.17011719 154.04394531 62.359375 152.8984375 C62.53218994 151.8772583 62.70500488 150.8560791 62.88305664 149.80395508 C63.29461482 145.1595666 62.96869613 142.93843661 59.92773438 139.29418945 C58.97617305 138.34997508 58.01391034 137.41646136 57.04296875 136.4921875 C56.53624634 135.99349655 56.02952393 135.4948056 55.50744629 134.98100281 C53.89308021 133.39554903 52.26565505 131.82437408 50.63671875 130.25390625 C49.01048214 128.6701872 47.38709013 127.08365178 45.76599121 125.49467468 C44.75791428 124.50828555 43.74637496 123.52542008 42.7310791 122.54646301 C39.01145379 118.93249584 38.04258329 117.1425224 37.77734375 112.015625 C36.48351225 90.4254554 32.48190455 71.49650383 23.13671875 51.94140625 C22.81300293 51.26352051 22.48928711 50.58563477 22.15576172 49.88720703 C16.35743047 37.97512947 8.98086352 26.82603864 0.13671875 16.94140625 C-0.52328125 16.94140625 -1.18328125 16.94140625 -1.86328125 16.94140625 Z " fill="#FAFCFA" transform="translate(275.86328125,166.05859375)"></path><path d="M0 0 C6.12897841 2.47496009 11.03954308 7.07908617 14 13 C14.71483622 19.3882832 15.21627336 25.27003143 11.25 30.625 C7.60910118 34.83593853 4.0340826 37.6853544 -1.63671875 38.2734375 C-8.75568264 38.51043246 -13.65641366 37.94442687 -19 33 C-23.19426931 27.62273165 -24.41605534 23.33005845 -24.34765625 16.63671875 C-23.61509586 11.08078323 -20.44244959 7.3369045 -16.4375 3.625 C-10.93487585 -0.0434161 -6.59911858 -0.9625782 0 0 Z " fill="#FBFCFA" transform="translate(280,252)"></path><path d="M0 0 C4.29 0 8.58 0 13 0 C13 21.12 13 42.24 13 64 C8.71 64 4.42 64 0 64 C0 42.88 0 21.76 0 0 Z " fill="#F8FAF7" transform="translate(269,371)"></path><path d="M0 0 C4.29 0 8.58 0 13 0 C13 12.87 13 25.74 13 39 C8.71 39 4.42 39 0 39 C0 26.13 0 13.26 0 0 Z " fill="#F6F9F4" transform="translate(301,384)"></path><path d="M0 0 C4.29 0 8.58 0 13 0 C13 12.87 13 25.74 13 39 C8.71 39 4.42 39 0 39 C0 26.13 0 13.26 0 0 Z " fill="#F5F9F4" transform="translate(237,384)"></path><path d="M0 0 C1.875 1.0625 1.875 1.0625 3 3 C3.4375 6.5 3.4375 6.5 3 10 C1.375 12 1.375 12 -1 13 C-4.125 12.875 -4.125 12.875 -7 12 C-9.31282587 8.53076119 -9.42478586 7.07794425 -9 3 C-6.79086995 -0.68188342 -4.01844539 -0.50230567 0 0 Z " fill="#4B8F2F" transform="translate(278,265)"></path></svg>