<svg version="1.1" xmlns="http://www.w3.org/2000/svg" width="16px" height="16px" fill="currentColor" viewBox="0 0 512 512"><path d="M0 0 C168.96 0 337.92 0 512 0 C512 168.96 512 337.92 512 512 C343.04 512 174.08 512 0 512 C0 343.04 0 174.08 0 0 Z " fill="#438A26" transform="translate(0,0)"></path><path d="M0 0 C0 4.29 0 8.58 0 13 C-4.68719209 12.01720166 -9.24989168 10.95678094 -13.8125 9.5 C-23.90230679 6.42731641 -33.99515493 5.61627907 -44.5 5.5625 C-46.19962891 5.51319336 -46.19962891 5.51319336 -47.93359375 5.46289062 C-57.3092791 5.40382273 -65.78019141 7.62543367 -73.4375 13.25 C-80.98210467 21.34664891 -82.49880428 29.37780871 -82.26953125 40.1640625 C-81.77479204 47.20513357 -79.81918168 52.62310834 -74.75 57.625 C-71.01099588 60.49122615 -67.02152872 62.6735291 -62.81640625 64.765625 C-62.11977371 65.11277557 -61.42314117 65.45992615 -60.70539856 65.81759644 C-52.72033261 69.72436313 -44.47649462 72.9299563 -36.1875 76.125 C-1.99519529 89.31048292 -1.99519529 89.31048292 6.0390625 103.7265625 C11.36292053 116.3220315 11.71748791 130.10956119 7.26171875 142.9609375 C1.12824822 157.73443616 -9.20903753 165.89409214 -23.625 172.13671875 C-44.90047885 179.70872077 -72.52237688 176.21106174 -92.8125 167.1875 C-94.194375 166.465625 -95.57625 165.74375 -97 165 C-97 160.71 -97 156.42 -97 152 C-93.1910035 152.7617993 -89.84610694 153.66329193 -86.1875 154.875 C-74.35481473 158.49752041 -63.40577392 160.26119303 -51.0625 160.3125 C-50.10359863 160.31797852 -49.14469727 160.32345703 -48.15673828 160.32910156 C-35.29056568 160.19938872 -23.41704329 157.18194238 -13.91015625 148.14453125 C-11.12869958 145.02179155 -9.43920282 141.90413584 -8 138 C-7.5875 136.9275 -7.175 135.855 -6.75 134.75 C-5.14972019 126.74860095 -4.76301407 118.23314026 -9 111 C-16.94292653 99.39450179 -30.09074037 95.08859985 -42.625 90.125 C-51.48947191 86.60647438 -60.25371983 83.01348425 -68.79296875 78.75390625 C-69.4496756 78.42669586 -70.10638245 78.09948547 -70.7829895 77.76235962 C-75.60934908 75.30653106 -79.94625748 72.58719926 -84 69 C-85.299375 67.8553125 -85.299375 67.8553125 -86.625 66.6875 C-95.2278772 56.95266528 -98.65180023 47.29664132 -98.28125 34.265625 C-97.16523445 21.30744446 -92.11346762 11.04467622 -82.66796875 2.10546875 C-58.21233133 -17.19407527 -26.63354348 -10.21846243 0 0 Z " fill="#FBFCFA" transform="translate(287,176)"></path><path d="M0 0 C31.35 0 62.7 0 95 0 C95 4.29 95 8.58 95 13 C68.27 13 41.54 13 14 13 C14 35.44 14 57.88 14 81 C36.77 81 59.54 81 83 81 C83 85.29 83 89.58 83 94 C60.56 94 38.12 94 15 94 C15 121.06 15 148.12 15 176 C10.05 176 5.1 176 0 176 C0 117.92 0 59.84 0 0 Z " fill="#FCFDFB" transform="translate(83,171)"></path><path d="M0 0 C1.79613921 0.07237191 3.59076094 0.20262604 5.37890625 0.38671875 C6.30123047 0.43634766 7.22355469 0.48597656 8.17382812 0.53710938 C10.43796961 0.66615371 12.68547856 0.84591184 14.94140625 1.07421875 C13.52612709 4.05982408 11.89225221 6.74300259 10.02734375 9.46875 C9.43920898 10.33032715 8.85107422 11.1919043 8.24511719 12.07958984 C7.60864258 13.00594238 6.97216797 13.93229492 6.31640625 14.88671875 C5.32302246 16.33812256 5.32302246 16.33812256 4.30957031 17.81884766 C-1.84970262 26.80316991 -8.07370209 35.74230523 -14.30078125 44.6796875 C-17.68440739 49.53621661 -21.06684985 54.39346617 -24.43359375 59.26171875 C-24.87993164 59.90286621 -25.32626953 60.54401367 -25.78613281 61.20458984 C-27.77297137 64.0841686 -29.53886988 66.92634079 -31.05859375 70.07421875 C-25.63991086 78.23180978 -20.17442485 86.35632132 -14.67712402 94.46109009 C-13.33533299 96.43944489 -11.99424887 98.41827732 -10.65332031 100.3972168 C-6.28798496 106.83898569 -1.92013041 113.27903783 2.45100403 119.71687317 C4.39689671 122.58314601 6.3418923 125.45002697 8.28677368 128.31698608 C9.22070104 129.69313242 10.15508589 131.06896839 11.0899353 132.44448853 C12.39046956 134.3580914 13.68953161 136.27268565 14.98828125 138.1875 C16.09961426 139.82392456 16.09961426 139.82392456 17.23339844 141.4934082 C18.94140625 144.07421875 18.94140625 144.07421875 19.94140625 146.07421875 C1.55983605 147.8560548 1.55983605 147.8560548 -3.8828125 144.15234375 C-5.74609375 141.51171875 -5.74609375 141.51171875 -7.25170898 138.53540039 C-9.07365407 135.04536992 -11.12334029 131.80437394 -13.33203125 128.5546875 C-13.75847427 127.92108307 -14.1849173 127.28747864 -14.62428284 126.63467407 C-16.09898132 124.44553899 -17.57885667 122.25995074 -19.05859375 120.07421875 C-20.21978166 118.3533106 -21.38065586 116.63219074 -22.54125977 114.91088867 C-27.02027332 108.2706378 -31.50412708 101.6336584 -35.99145508 94.99902344 C-37.91993293 92.14725981 -39.84680415 89.29441622 -41.7734375 86.44140625 C-42.3609227 85.57369598 -42.9484079 84.70598572 -43.55369568 83.8119812 C-44.61767505 82.23551779 -45.67673487 80.65571608 -46.72946167 79.07171631 C-47.80847781 77.45010763 -48.90815206 75.84225842 -50.01391602 74.23876953 C-51.29874443 71.57663149 -50.97768025 70.81622875 -50.05859375 68.07421875 C-48.5421301 65.69013121 -46.9910571 63.39334057 -45.35546875 61.09375 C-44.34747956 59.65243399 -43.34035868 58.21051045 -42.33398438 56.76806641 C-41.79974854 56.00496155 -41.2655127 55.24185669 -40.71508789 54.45562744 C-37.87964006 50.37933165 -35.1029004 46.26354823 -32.32421875 42.1484375 C-31.4644342 40.87626877 -31.4644342 40.87626877 -30.58728027 39.57839966 C-29.41703312 37.84637758 -28.24715356 36.11410709 -27.07763672 34.3815918 C-25.29810171 31.74618051 -23.51626845 29.11233268 -21.734375 26.47851562 C-20.8667881 25.19277397 -20.8667881 25.19277397 -19.98167419 23.88105774 C-18.84815452 22.20372134 -17.710759 20.52899671 -16.56922913 18.85710144 C-14.25115801 15.44294013 -11.98898915 12.0617926 -10.04077148 8.42114258 C-5.72613915 0.52443145 -5.72613915 0.52443145 0 0 Z " fill="#FBFCFB" transform="translate(409.05859375,201.92578125)"></path><path d="M0 0 C3.70095987 1.23365329 4.54449081 2.6274456 6.8125 5.75 C7.45832031 6.61109375 8.10414063 7.4721875 8.76953125 8.359375 C10 11 10 11 9.30883789 13.30493164 C7.84817834 16.31262065 6.15768404 18.98811761 4.2890625 21.76171875 C3.92440384 22.30589951 3.55974518 22.85008026 3.18403625 23.41075134 C2.00200963 25.17261471 0.81359714 26.93006421 -0.375 28.6875 C-1.18982111 29.89927478 -2.00419039 31.1113535 -2.81811523 32.32373047 C-4.44398622 34.74466456 -6.07202963 37.16411478 -7.70166016 39.58251953 C-11.3475373 44.99749398 -14.95174115 50.44025563 -18.55810547 55.8815918 C-21.88947709 60.88947709 -21.88947709 60.88947709 -23 62 C-24.41570123 62.08651611 -25.835595 62.10704904 -27.25390625 62.09765625 C-28.10791016 62.09443359 -28.96191406 62.09121094 -29.84179688 62.08789062 C-30.73962891 62.07951172 -31.63746094 62.07113281 -32.5625 62.0625 C-33.46419922 62.05798828 -34.36589844 62.05347656 -35.29492188 62.04882812 C-37.53001314 62.03700225 -39.76497437 62.0205222 -42 62 C-40.41791674 57.25375021 -37.78190144 53.62863057 -34.875 49.625 C-33.78814458 48.10742781 -32.70225949 46.58916036 -31.6171875 45.0703125 C-31.03420898 44.25594727 -30.45123047 43.44158203 -29.85058594 42.60253906 C-26.52755369 37.92925097 -23.2674496 33.21223227 -20 28.5 C-13.38022745 18.96654495 -6.71114055 9.46931764 0 0 Z " fill="#FBFCFA" transform="translate(348,286)"></path><path d="M0 0 C17.44331808 -1.78171035 17.44331808 -1.78171035 22.7578125 1.921875 C24.82045514 4.83891773 26.39652119 7.80778701 28 11 C29.13977405 12.80595496 30.33307016 14.56637816 31.53955078 16.32836914 C32.82405417 18.20437477 34.07108419 20.10171896 35.31640625 22.00390625 C37.19241713 24.83728104 39.14485712 27.59813464 41.15234375 30.33984375 C41.66885498 31.05567627 42.18536621 31.77150879 42.7175293 32.5090332 C43.72110366 33.89472366 44.73907786 35.27012483 45.77270508 36.63354492 C47.140625 38.5390625 47.140625 38.5390625 49 42 C48.27176128 46.0172513 45.74080283 49.02666273 43.375 52.3125 C42.74335938 53.19550781 42.11171875 54.07851563 41.4609375 54.98828125 C40.97882813 55.65214844 40.49671875 56.31601562 40 57 C36.21670984 55.73890328 35.63429023 54.3870405 33.4453125 51.1015625 C32.75421387 50.07361572 32.06311523 49.04566895 31.35107422 47.98657227 C30.60897462 46.86609775 29.86695154 45.74557256 29.125 44.625 C28.36169353 43.48502363 27.59752642 42.34562307 26.83251953 41.20678711 C25.28680936 38.90448477 23.74463079 36.59988098 22.20507812 34.29345703 C19.12623701 29.69496648 16.00478569 25.1264017 12.875 20.5625 C12.34898193 19.79252686 11.82296387 19.02255371 11.28100586 18.22924805 C7.94078 13.34531504 4.55003439 8.50355827 1.07421875 3.71484375 C0 2 0 2 0 0 Z " fill="#FAFCF9" transform="translate(310,203)"></path></svg>