<svg version="1.1" xmlns="http://www.w3.org/2000/svg" width="16px" height="16px" fill="currentColor" viewBox="0 0 512 512"><path d="M0 0 C168.96 0 337.92 0 512 0 C512 168.96 512 337.92 512 512 C343.04 512 174.08 512 0 512 C0 343.04 0 174.08 0 0 Z " fill="#7646D3" transform="translate(0,0)"></path><path d="M0 0 C3.81787354 1.70046563 6.49942373 1.8453652 10.66796875 1.8531189 C11.38097137 1.85837585 12.093974 1.86363281 12.82858276 1.86904907 C15.16980327 1.88218094 17.51033588 1.87353569 19.8515625 1.8633728 C21.48771291 1.86539551 23.12386243 1.86830858 24.76000977 1.87207031 C28.18286758 1.87648442 31.60548994 1.87009219 35.02832031 1.85604858 C39.40638473 1.8389571 43.78389734 1.84880321 48.16194153 1.86676598 C51.53865688 1.8776286 54.91524232 1.87414614 58.29196167 1.8663826 C59.9058336 1.86438744 61.51971748 1.86681576 63.13357544 1.87382126 C65.39275158 1.88147683 67.65104548 1.86977529 69.91015625 1.8531189 C71.1933374 1.85073212 72.47651855 1.84834534 73.79858398 1.84588623 C77.59495631 1.43155004 79.99730578 0.34942332 83.2890625 -1.5350647 C93.72182327 -5.87609358 106.5831031 -6.26428132 117.2890625 -2.5350647 C131.77042735 3.75434458 143.13345703 12.90068418 149.28125 27.88290405 C151.74603594 34.88993837 152.44064264 41.63733595 152.46606445 49.0496521 C152.47263565 49.89117325 152.47920685 50.7326944 152.48597717 51.59971619 C152.50560822 54.37119656 152.5173503 57.14262298 152.52734375 59.91415405 C152.53141928 60.86578745 152.5354948 61.81742085 152.53969383 62.79789162 C152.56051171 67.83558557 152.57483159 72.87325264 152.58422852 77.91098022 C152.59528067 83.09119362 152.62967928 88.27097605 152.66940022 93.45103741 C152.69564926 97.45499932 152.70392771 101.45885979 152.70750999 105.46290016 C152.71235494 107.37131471 152.72390859 109.27972537 152.74254799 111.18805504 C152.87034022 125.13915728 151.9490072 137.45348457 142.2890625 148.4649353 C134.18015478 155.09802182 125.51702546 156.27866553 115.2890625 155.4649353 C100.07619371 152.08703737 89.97728947 138.32445513 82.0234375 126.00009155 C76.04109044 116.39829936 71.10724037 106.25123549 66.1640625 96.0899353 C65.8221991 95.39032684 65.48033569 94.69071838 65.12811279 93.96990967 C64.15098021 91.96388348 63.18311524 89.95368784 62.21875 87.9414978 C61.65397949 86.76667847 61.08920898 85.59185913 60.50732422 84.38143921 C59.2890625 81.4649353 59.2890625 81.4649353 59.2890625 78.4649353 C47.0790625 78.7949353 34.8690625 79.1249353 22.2890625 79.4649353 C19.5975 85.3739978 19.5975 85.3739978 16.8515625 91.4024353 C-7.00397551 143.19758976 -7.00397551 143.19758976 -30.05859375 154.6289978 C-38.05095165 157.14794418 -48.0319942 156.35426062 -55.5625 152.78915405 C-62.1083743 148.75451516 -65.7795315 143.45293343 -68.7109375 136.4649353 C-69.1028125 135.5986853 -69.4946875 134.7324353 -69.8984375 133.8399353 C-71.77200153 128.36336352 -71.86771026 122.82950311 -71.88793945 117.09555054 C-71.89451065 116.27674911 -71.90108185 115.45794769 -71.90785217 114.61433411 C-71.92748301 111.91739795 -71.93922698 109.22051731 -71.94921875 106.52352905 C-71.95329428 105.59645708 -71.9573698 104.66938511 -71.96156883 103.71422005 C-71.98238944 98.80389762 -71.99670658 93.89360279 -72.00610352 88.98324585 C-72.01713951 83.94222779 -72.05151853 78.90165456 -72.09127522 73.86079311 C-72.11757379 69.95797473 -72.12580719 66.05526009 -72.12938499 62.15236092 C-72.1342194 60.29583811 -72.14574213 58.43931894 -72.16442299 56.58288383 C-72.32712273 39.33816835 -69.69699154 23.82746711 -57.4609375 10.6524353 C-42.42443411 -3.19875813 -18.95740276 -10.7346037 0 0 Z " fill="#FCFBFE" transform="translate(282.7109375,279.5350646972656)"></path><path d="M0 0 C3.5 0.4375 3.5 0.4375 5.15234375 1.4921875 C7.1810425 4.42057005 7.25201858 7.54489903 7.5625 11 C7.72304785 12.45988044 7.88580148 13.91952002 8.05078125 15.37890625 C8.1276416 16.08289551 8.20450195 16.78688477 8.28369141 17.51220703 C10.67856374 38.82819257 21.51046999 58.29788323 37.68359375 72.2734375 C50.22118157 81.9070348 64.5201613 87.98530905 80.4765625 88.00390625 C84.24124109 88.54380202 85.89062952 89.70687625 88.5 92.4375 C88.5 96.0625 88.5 96.0625 87.5 99.4375 C83.95476941 101.80098706 81.71325856 101.92172936 77.5 102.375 C61.66185431 104.31138447 47.49569098 109.6654132 35.5 120.4375 C34.67886719 121.16582031 33.85773438 121.89414063 33.01171875 122.64453125 C16.36461936 138.28118455 9.00005952 159.15392322 7.32128906 181.43432617 C6.83581541 186.94904123 6.83581541 186.94904123 5.125 189.4375 C2.52083575 191.04006262 0.47308536 190.80913567 -2.5 190.4375 C-4.53667615 188.89243534 -5.36073078 187.71603844 -6.5 185.4375 C-6.63277359 183.20985418 -6.73093909 180.98010819 -6.8125 178.75 C-7.46756672 166.57520141 -10.86278302 155.25272247 -16.5 144.4375 C-16.97953125 143.48488281 -17.4590625 142.53226563 -17.953125 141.55078125 C-27.13856763 124.49528704 -40.7958631 113.81609835 -58.5 106.4375 C-59.23605469 106.1178125 -59.97210938 105.798125 -60.73046875 105.46875 C-66.51380215 103.23148369 -72.50896628 102.74127165 -78.64941406 102.25878906 C-84.02335784 101.76936328 -84.02335784 101.76936328 -86.48046875 100.05859375 C-88.14176108 97.41707529 -87.93343621 95.47155345 -87.5 92.4375 C-85.41721959 89.74156461 -84.26699445 88.56362798 -80.86328125 88.00390625 C-79.35314453 88.00197266 -79.35314453 88.00197266 -77.8125 88 C-58.94119691 87.04583299 -42.98727252 78.43840763 -29.5 65.4375 C-15.25160993 49.61345858 -7.06726021 28.71198684 -6.8359375 7.4765625 C-6.28570869 2.49891114 -5.01242962 0.6265537 0 0 Z " fill="#FCFBFE" transform="translate(164.5,133.5625)"></path><path d="M0 0 C8.33078393 5.84987366 14.60467659 15.42895681 16.43359375 25.49609375 C17.77183682 37.014006 14.95056931 47.01661377 8.18359375 56.43359375 C1.41700686 64.39599987 -8.16800883 69.64316969 -18.58203125 70.84375 C-30.2623167 71.18816867 -40.84193032 67.57952042 -49.57421875 59.6796875 C-58.26224899 50.37108367 -60.97027849 40.61541742 -60.83984375 28.1328125 C-60.04917103 17.61686531 -54.99434647 9.67777581 -47.5 2.5234375 C-33.16826432 -9.55213943 -15.80893064 -9.26398523 0 0 Z " fill="#7344CE" transform="translate(284.56640625,294.50390625)"></path><path d="M0 0 C8.66575153 7.31659261 14.43179973 16.13296281 15.5078125 27.59375 C15.6473842 40.71348961 12.733058 50.17577432 3.58203125 59.6640625 C-5.14619731 67.7556438 -14.75061173 70.41154039 -26.41015625 70.29296875 C-37.14080868 69.42225295 -45.2225812 63.95029621 -52.515625 56.390625 C-59.82419555 47.47282791 -62.02787487 37.80180259 -61.4375 26.5 C-60.45952694 16.89285288 -55.23907571 8.14605387 -48.140625 1.69921875 C-33.40573818 -9.02837621 -15.31921022 -10.74883811 0 0 Z " fill="#7C4BD8" transform="translate(406.828125,294.984375)"></path><path d="M0 0 C2.19902215 2.03207662 3.59353294 3.85495961 4.875 6.5546875 C14.083763 25.29118844 26.6643419 38.77198424 44.875 49.15234375 C48 51 48 51 50 53 C48.88882813 53.68964844 47.77765625 54.37929687 46.6328125 55.08984375 C38.10487179 60.44859137 30.10729652 65.79135166 23 73 C22.24589844 73.74378906 21.49179688 74.48757812 20.71484375 75.25390625 C12.21874806 84.09975545 6.18783083 94.94766475 1 106 C-0.72206132 103.41690801 -2.11700518 100.82793597 -3.51196289 98.0625 C-13.73892768 78.00784407 -28.86224987 63.12214954 -49 53 C-46.00512191 50.63228462 -42.91437504 48.81919948 -39.5625 47 C-21.01336183 36.20037997 -8.12397792 19.78427564 0 0 Z " fill="#7244CE" transform="translate(164,176)"></path><path d="M0 0 C2.86029702 2.21167948 3.88791698 3.44951631 4.6171875 7.03125 C4.70226562 8.1759375 4.78734375 9.320625 4.875 10.5 C6.04792222 20.38752854 10.21230097 30.4351628 18 37 C26.05559714 42.55244549 33.01911601 45.61551637 42.75 46.375 C45.80702662 46.68704943 46.958669 46.97343007 49.625 48.6875 C51 51 51 51 50.9375 54.0625 C49.96562013 57.10772359 49.49984855 58.11963146 47 60 C44.50390625 60.3359375 44.50390625 60.3359375 41.5625 60.375 C29.80542753 61.14084067 20.73512956 66.18939789 13 75 C8.01968403 81.64393104 6.14556929 88.43700682 5.02368164 96.51782227 C4.45952916 100.42828211 3.91735573 103.22189753 1 106 C-2.5 106.5 -2.5 106.5 -6 106 C-9.5832142 102.6647887 -9.71849069 98.48511631 -10.3125 93.875 C-11.4470485 86.50668572 -13.27934376 80.92878627 -18 75 C-18.50273437 74.35804688 -19.00546875 73.71609375 -19.5234375 73.0546875 C-24.99906031 66.88459545 -34.2473313 61.47426582 -42.55859375 60.7890625 C-44.47497963 60.67985191 -46.39165879 60.57566934 -48.30859375 60.4765625 C-51.36962179 59.93455173 -52.80994014 59.19005986 -55 57 C-55.73819114 51.09447089 -55.73819114 51.09447089 -53.875 48.33203125 C-51.18233863 46.41911973 -48.83473625 46.46109835 -45.5625 46.1875 C-35.5732429 44.93884286 -25.72367514 40.7580867 -19 33 C-13.71745072 25.56437377 -10.11896482 18.38328129 -9.5625 9.25 C-9.31534704 5.75593567 -9.19359754 4.29731051 -7.25 1.3125 C-4.48047105 -0.30305855 -3.15166152 -0.6303323 0 0 Z " fill="#FCFBFE" transform="translate(385,137)"></path><path d="M0 0 C2.88793384 2.20760327 3.43330072 4.03310506 3.9375 7.5625 C5.575627 16.62504129 8.27532901 24.46127797 16 30 C21.67932347 33.04488098 27.52341107 34.50334444 33.87109375 35.41015625 C36.40187074 36.111344 37.41161334 36.9286243 39 39 C39.5 41.9375 39.5 41.9375 39 45 C35.42865006 49.43339993 31.07590648 49.62170206 25.77734375 50.4609375 C17.63310953 52.04167494 12.83018457 56.44017374 8 63 C5.53420057 66.78089246 4.86892906 69.64861765 4.5625 74.0625 C4.29464636 77.47763397 3.98407293 79.02949458 2.3125 82.125 C0 84 0 84 -3 84.625 C-6 84 -6 84 -8.25 82.25 C-10.01924675 78.96425603 -10.4346135 76.83688737 -10.9375 73.1875 C-12.10272328 65.00080199 -15.52754962 59.46782998 -21.984375 54.31640625 C-27.01731216 51.02939109 -32.45670913 49.00919324 -38.4375 48.4375 C-42 48 -42 48 -44 46.8125 C-45.50815882 44.07896214 -45.3826201 42.06096083 -45 39 C-42.19008283 34.74801214 -36.709932 34.58093533 -32.06835938 33.62695312 C-24.10914939 31.84748522 -18.60407985 27.67455363 -14 21 C-11.80464638 16.83052994 -10.91523526 12.92757632 -10.5625 8.25 C-10.2866861 5.17891826 -10.06276986 4.0953172 -8.3125 1.4375 C-5.29002398 -0.44133644 -3.49872367 -0.5210865 0 0 Z " fill="#FCFAFE" transform="translate(282,77)"></path><path d="M0 0 C0.82254021 0.61909744 0.82254021 0.61909744 1.66169739 1.2507019 C2.38153305 1.79171539 3.10136871 2.33272888 3.84301758 2.89013672 C4.55637772 3.42661835 5.26973785 3.96309998 6.00471497 4.51583862 C17.69585178 13.21210679 30.31527353 17.69690173 45 16 C48.56740245 15.1269648 51.98897972 14.09167542 55.453125 12.875 C58 12 58 12 60 12 C53.53547763 29.46123705 42.51471498 48.89838911 27.25 60 C20.94084724 61.94127777 14.53016302 62.17471855 8.5 59.375 C2.48268442 53.6585502 0.40505142 47.70558846 -0.17193604 39.57809448 C-0.22919261 37.02738701 -0.22550397 34.48474372 -0.1953125 31.93359375 C-0.1924826 31.01409439 -0.18965271 30.09459503 -0.18673706 29.14723206 C-0.17564584 26.24384907 -0.15056263 23.34078791 -0.125 20.4375 C-0.11495588 18.45508262 -0.10583255 16.47266034 -0.09765625 14.49023438 C-0.07574286 9.66003445 -0.04129081 4.83007157 0 0 Z " fill="#6B3EC7" transform="translate(224,361)"></path><path d="M0 0 C0.33 0 0.66 0 1 0 C1.10196696 6.38617208 1.17170187 12.77213187 1.21972656 19.15893555 C1.23976081 21.32861171 1.26699612 23.49823443 1.30175781 25.66772461 C1.350637 28.798149 1.37305125 31.92785548 1.390625 35.05859375 C1.41127014 36.01833603 1.43191528 36.97807831 1.45318604 37.96690369 C1.45579025 45.89937904 -0.3709848 51.92212854 -5.5625 58 C-9.9455893 61.59638097 -14.39601847 61.4643552 -19.8671875 61.3984375 C-27.53943672 60.42266516 -33.02933304 54.62285228 -37.8359375 48.92578125 C-46.30313677 37.4782501 -52.90112157 24.82686752 -59 12 C-56.85401647 12.51047645 -54.76066266 13.07711537 -52.66015625 13.75390625 C-38.08709209 18.29018337 -24.47813744 16.06496237 -11 9.125 C-6.61034236 6.58702685 -3.39019139 3.74705364 0 0 Z " fill="#7848D4" transform="translate(421,361)"></path><path d="M0 0 C13.53 0 27.06 0 41 0 C39.86820733 2.26358535 38.72837939 4.52331253 37.5625 6.76953125 C36.7890625 8.27580078 36.7890625 8.27580078 36 9.8125 C35.484375 10.80894531 34.96875 11.80539062 34.4375 12.83203125 C31.58919447 19.10913936 30.67667242 24.64858854 30.75 31.4375 C30.74226563 32.14970703 30.73453125 32.86191406 30.7265625 33.59570312 C30.74513324 38.70729798 31.69251686 43.06580766 33 48 C33 49.32 33 50.64 33 52 C24.42 52 15.84 52 7 52 C7.66 49.03 8.32 46.06 9 43 C10.64304258 27.79760126 9.17157178 14.56845022 0 2 C0 1.34 0 0.68 0 0 Z " fill="#7B4CD5" transform="translate(303,294)"></path><path d="M0 0 C4.29 0 8.58 0 13 0 C13 4.29 13 8.58 13 13 C17.29 13 21.58 13 26 13 C26 17.29 26 21.58 26 26 C21.71 26 17.42 26 13 26 C13 30.29 13 34.58 13 39 C8.71 39 4.42 39 0 39 C0 34.71 0 30.42 0 26 C-4.29 26 -8.58 26 -13 26 C-13 21.71 -13 17.42 -13 13 C-8.71 13 -4.42 13 0 13 C0 8.71 0 4.42 0 0 Z " fill="#FAF9FD" transform="translate(256,307)"></path><path d="M0 0 C2.36260784 2.23528167 4.22045439 4.61859882 6.125 7.25 C10.14130191 12.49088863 15.05054459 17.02527229 21 20 C19.87089866 23.38730402 19.34331335 23.67259926 16.5 25.5625 C12.02643088 28.77057299 8.5776153 32.58579193 4.98046875 36.73046875 C3.37796256 38.56687131 1.74943493 40.30575229 0 42 C-0.42410156 41.43152344 -0.84820312 40.86304688 -1.28515625 40.27734375 C-6.76310921 33.06570897 -12.22237915 26.74245174 -20 22 C-17.16135839 19.07265084 -14.27714435 16.40044731 -11.125 13.8125 C-6.50071814 9.83878251 -3.28289744 5.09875009 0 0 Z " fill="#8855E4" transform="translate(382,169)"></path><path d="M0 0 C0.66 0 1.32 0 2 0 C3.16850976 1.70268565 4.33552339 3.4064328 5.4921875 5.1171875 C7.09846069 7.12294832 8.69020445 8.37758762 10.8125 9.8125 C11.864375 10.534375 12.91625 11.25625 14 12 C14 12.66 14 13.32 14 14 C12.390625 15.296875 12.390625 15.296875 10.25 16.75 C6.44350054 19.48045721 4.44054255 22.05758511 2 26 C1.34 26 0.68 26 0 26 C-1.55078125 24.390625 -1.55078125 24.390625 -3.3125 22.25 C-5.98762235 19.08238651 -8.73925686 16.56907035 -12 14 C-12 13.34 -12 12.68 -12 12 C-10.390625 10.44921875 -10.390625 10.44921875 -8.25 8.6875 C-5.08238651 6.01237765 -2.56907035 3.26074314 0 0 Z " fill="#8856E2" transform="translate(278,106)"></path><path d="M0 0 C3 2 3 2 5 5 C5.37990283 8.22917403 5.02828703 10.92088353 4 14 C1.84734761 16.67450752 0.41455329 17.73336793 -2.96875 18.37109375 C-6.54665726 18.59137535 -8.58202442 18.32151967 -11.4375 16.125 C-14.2463885 12.30491164 -14.48390104 9.75836021 -14 5 C-9.45613306 -0.5004705 -6.96669891 -1.653115 0 0 Z " fill="#FBF9FD" transform="translate(379,308)"></path><path d="M0 0 C3.64575305 0.870234 5.12960019 2.43704001 7.16015625 5.515625 C7.71934946 9.42997744 7.51472764 11.71783937 5.91015625 15.328125 C3.99892653 17.71716215 3.1010007 18.69872376 0.16015625 19.515625 C-4.50253632 19.515625 -6.3029653 19.00681167 -9.77734375 15.828125 C-12.06650253 12.15159727 -12.71868245 10.73405077 -11.83984375 6.515625 C-8.73467204 1.10661621 -6.27893377 -0.46122385 0 0 Z " fill="#FBFAFE" transform="translate(395.83984375,326.484375)"></path></svg>