<svg version="1.1" xmlns="http://www.w3.org/2000/svg" width="16px" height="16px" fill="currentColor" viewBox="0 0 512 512"><path d="M0 0 C168.96 0 337.92 0 512 0 C512 168.96 512 337.92 512 512 C343.04 512 174.08 512 0 512 C0 343.04 0 174.08 0 0 Z " fill="#7646D3" transform="translate(0,0)"></path><path d="M0 0 C1.31368032 -0.0060911 2.62736063 -0.01218221 3.98084944 -0.01845789 C7.62128878 -0.03485204 11.26151147 -0.0325406 14.9019748 -0.02708292 C18.83053054 -0.02441204 22.75902863 -0.03894567 26.68756104 -0.05117798 C34.382064 -0.07223226 42.07649161 -0.07677281 49.77101997 -0.07499009 C56.02605354 -0.07368238 62.28106361 -0.0774871 68.53609276 -0.08491516 C70.33798828 -0.08701437 72.13988379 -0.08911197 73.94177932 -0.09120798 C74.83864511 -0.09225151 75.7355109 -0.09329504 76.65955444 -0.09437019 C93.62199639 -0.11327281 110.58439508 -0.11222239 127.54684319 -0.10540086 C143.06011308 -0.09982632 158.57321778 -0.12064699 174.08644906 -0.15376133 C190.01874154 -0.18750596 205.95095491 -0.20266564 221.88328379 -0.1980443 C230.82671816 -0.19580027 239.76999988 -0.20103294 248.7134037 -0.22593689 C256.32798112 -0.24696009 263.9423222 -0.25053204 271.55690936 -0.2316373 C275.44066035 -0.22248535 279.32397082 -0.22131927 283.20768738 -0.24199295 C287.42159697 -0.26417582 291.63447037 -0.24747158 295.84838867 -0.22705078 C297.07096573 -0.23956863 298.29354279 -0.25208648 299.55316764 -0.26498365 C308.19881615 -0.17512779 313.91128997 1.75241564 320.45451355 7.42175293 C320.98174011 8.05210449 321.50896667 8.68245605 322.0521698 9.33190918 C322.87007996 10.27356934 322.87007996 10.27356934 323.70451355 11.23425293 C326.54896509 15.59154296 327.36434332 19.96695311 327.37473202 25.10232162 C327.3853304 26.78302045 327.3853304 26.78302045 327.3961429 28.4976728 C327.39372782 29.718478 327.39131273 30.93928321 327.38882446 32.19708252 C327.39406114 33.50189017 327.39929782 34.80669781 327.40469319 36.15104508 C327.41885278 39.7667072 327.42053687 43.38228328 327.42009628 46.99796915 C327.42174628 50.89994993 327.43481619 54.80189545 327.44628906 58.70385742 C327.46912353 67.23282668 327.47705792 75.76177103 327.48211551 84.29076672 C327.48537416 89.61802477 327.49189764 94.94527562 327.4991169 100.2725296 C327.51868036 115.0275283 327.5350862 129.7825203 327.53799343 144.53753281 C327.538181 145.48144206 327.53836857 146.42535131 327.53856182 147.39786388 C327.53892807 149.31132269 327.53929177 151.2247815 327.53965294 153.13824031 C327.53983575 154.08805924 327.54001856 155.03787817 327.54020691 156.01647949 C327.54047773 157.44295041 327.54047773 157.44295041 327.54075403 158.89823893 C327.54429565 174.30736363 327.57131839 189.71634859 327.6087048 205.12542483 C327.64679785 220.95262424 327.66615098 236.77975432 327.66645294 252.60700059 C327.66703727 261.49067192 327.67551327 270.3741765 327.70445061 279.25780487 C327.72897778 286.82220535 327.73623837 294.38637827 327.72120308 301.95080778 C327.71403973 305.80836248 327.71486629 309.66546793 327.73761368 313.52297211 C327.76206855 317.71024442 327.74755217 321.89649705 327.72940063 326.08380127 C327.7426006 327.29568359 327.75580057 328.50756591 327.76940054 329.75617194 C327.68690141 338.09480908 326.13785592 345.01487094 320.35925859 351.30530524 C312.77578368 358.4533929 305.19577271 358.83258309 295.19174194 358.78881836 C293.23324884 358.79795501 293.23324884 358.79795501 291.23519021 358.80727625 C287.62174339 358.82364932 284.00851512 358.82136327 280.39504421 358.81590128 C276.49375359 358.8132278 272.5925208 358.82776888 268.69125366 358.83999634 C261.05203173 358.86103951 253.41288571 358.86559181 245.77363821 358.86380845 C239.56297348 358.8625002 233.35233241 358.8663082 227.14167213 358.87373352 C225.35185077 358.87583275 223.5620294 358.87793035 221.77220803 358.88002634 C220.43588231 358.88159163 220.43588231 358.88159163 219.07256011 358.88318855 C202.22739904 358.90208662 185.38228152 358.90104212 168.53711424 358.89421922 C153.13451395 358.88864477 137.73208005 358.90946576 122.32951864 358.94257969 C106.50680078 358.97633234 90.68416258 358.99148301 74.86140805 358.98686266 C65.98111347 358.98461947 57.10097264 358.989839 48.22070885 359.01475525 C40.6599825 359.03578879 33.0994942 359.03934013 25.538758 359.02045566 C21.68322874 359.01131016 17.82814308 359.0101178 13.97264862 359.03081131 C9.78760452 359.0530246 5.60360175 359.03627416 1.41854858 359.01586914 C0.20734838 359.02838699 -1.00385182 359.04090484 -2.25175506 359.05380201 C-10.58688436 358.96674481 -17.50838914 357.41509393 -23.79625255 351.63902426 C-30.69615325 344.31860843 -31.31937678 337.06854737 -31.22590637 327.4005127 C-31.22634445 326.2095549 -31.22678253 325.01859711 -31.22723389 323.79154968 C-31.22550847 320.54397673 -31.21051778 317.29679731 -31.18951201 314.04930234 C-31.17069112 310.64872544 -31.16899053 307.24813987 -31.16543579 303.84751892 C-31.15613114 297.41613852 -31.13153897 290.98491207 -31.10138732 284.5535993 C-31.0677939 277.22832605 -31.05134492 269.90304525 -31.03630102 262.57771409 C-31.00498785 247.51652684 -30.95225836 232.45548345 -30.8853302 217.39440918 C-28.90623622 217.36754365 -26.92704049 217.34807542 -24.9478302 217.33190918 C-23.84568176 217.32030762 -22.74353333 217.30870605 -21.60798645 217.29675293 C-18.8853302 217.39440918 -18.8853302 217.39440918 -17.8853302 218.39440918 C-17.78601603 219.93926331 -17.75624633 221.48864057 -17.75402832 223.03668213 C-17.75002014 224.04052948 -17.74601196 225.04437683 -17.74188232 226.0786438 C-17.7426754 227.74460098 -17.7426754 227.74460098 -17.7434845 229.44421387 C-17.74001007 230.6067569 -17.73653564 231.76929993 -17.73295593 232.96707153 C-17.72558245 235.50165067 -17.7202456 238.03623634 -17.71666527 240.57082367 C-17.70952504 244.57970884 -17.69423191 248.58850881 -17.67532349 252.59735107 C-17.66898562 253.96895975 -17.66266 255.34056849 -17.65634632 256.71217728 C-17.65318051 257.39922572 -17.6500147 258.08627416 -17.64675295 258.79414225 C-17.60465841 268.13028293 -17.57171119 277.46638309 -17.55940247 286.8026123 C-17.55102077 293.09541224 -17.52852371 299.38799242 -17.4900468 305.68068242 C-17.47028402 309.01150397 -17.46009347 312.34192364 -17.46288109 315.67281342 C-17.46522701 319.39122167 -17.44311867 323.10873835 -17.4153595 326.82702637 C-17.42196091 327.92956757 -17.42856232 329.03210876 -17.43536377 330.1680603 C-17.38131654 336.16252615 -17.38131654 336.16252615 -14.97720337 341.55487061 C-11.74013777 344.40146147 -9.93327176 344.5203407 -5.70249462 344.52583694 C-4.04479212 344.53159866 -4.04479212 344.53159866 -2.35360068 344.53747678 C-1.12940635 344.5366103 0.09478798 344.53574381 1.3560791 344.53485107 C3.29507978 344.53930776 3.29507978 344.53930776 5.27325219 344.54385448 C8.87338328 344.55194319 12.47349445 344.55371508 16.07363355 344.55445194 C19.951718 344.55629926 23.82979203 344.56384496 27.70787048 344.57058716 C36.19335291 344.58418435 44.67883063 344.59019737 53.16432214 344.59459782 C58.46002506 344.59735793 63.75572615 344.60159486 69.05142784 344.60610199 C83.70590888 344.61829653 98.36038845 344.62859544 113.01487446 344.63197708 C114.42248153 344.63230643 114.42248153 344.63230643 115.85852511 344.63264243 C117.26955263 344.63296985 117.26955263 344.63296985 118.70908576 344.63330388 C120.61535792 344.63374735 122.52163007 344.63419391 124.42790222 344.63464355 C125.37348455 344.63486498 126.31906688 344.63508641 127.29330321 344.63531455 C142.61872116 344.63926344 157.94409159 344.65671939 173.26949117 344.68000308 C188.99370309 344.70370037 204.71789114 344.71617819 220.44212121 344.717345 C229.27478795 344.71826268 238.10739278 344.72403836 246.9400425 344.74216461 C254.46072214 344.75754375 261.98132075 344.76269904 269.50201312 344.75442651 C273.34058761 344.75051219 277.1789988 344.75148746 281.01755333 344.76548386 C285.17592417 344.78050799 289.33392494 344.77237946 293.49230957 344.76190186 C294.70981173 344.76995826 295.9273139 344.77801466 297.18171006 344.7863152 C298.85114743 344.77643044 298.85114743 344.77643044 300.5543108 344.76634598 C301.51429881 344.76694307 302.47428682 344.76754015 303.46336538 344.76815534 C306.69197129 344.31302878 308.52302863 343.35935791 311.1146698 341.39440918 C313.27508856 338.3140773 313.36719417 335.66980109 313.37473202 331.96547794 C313.3853304 330.3018023 313.3853304 330.3018023 313.3961429 328.60451704 C313.39372782 327.3861484 313.39131273 326.16777975 313.38882446 324.91249084 C313.39406114 323.61811488 313.39929782 322.32373891 313.40469319 320.99013942 C313.4188871 317.39451022 313.42053622 313.7989674 313.42009628 310.20331419 C313.42174322 306.32661546 313.43480728 302.44995246 313.44628906 298.57327271 C313.46914582 290.096172 313.47706009 281.61909631 313.48211551 273.14196897 C313.48537111 267.85060773 313.49189267 262.55925377 313.4991169 257.26789665 C313.51868207 242.62191406 313.53508731 227.97593825 313.53799343 213.32994175 C313.53827479 211.92394004 313.53827479 211.92394004 313.53856182 210.48953426 C313.53892808 208.58928613 313.53929178 206.689038 313.53965294 204.78878988 C313.53983575 203.84548751 313.54001856 202.90218514 313.54020691 201.93029785 C313.54038746 200.98584653 313.54056801 200.0413952 313.54075403 199.06832414 C313.54429765 183.75592529 313.57133211 168.4436669 313.6087048 153.13131679 C313.64675448 137.41607601 313.66615065 121.70090499 313.66645294 105.9856171 C313.66703819 97.15964315 313.67557388 88.33383685 313.70445061 79.50790596 C313.72891967 71.99455054 313.73627767 64.48142392 313.72120308 56.96803946 C313.71401622 53.13339521 313.71496723 49.29920317 313.73761368 45.46460915 C313.76191256 41.31050794 313.74761835 37.15744307 313.72940063 33.00331116 C313.74920059 31.17910427 313.74920059 31.17910427 313.76940054 29.31804472 C313.91044281 22.6474136 313.91044281 22.6474136 310.63874912 17.16885281 C309.38932986 16.29050321 309.38932986 16.29050321 308.1146698 15.39440918 C307.7846698 15.06440918 307.4546698 14.73440918 307.1146698 14.39440918 C305.4252845 14.29355274 303.73165495 14.26333163 302.03926468 14.2601881 C300.93263733 14.25573026 299.82600998 14.25127241 298.68584847 14.24667948 C296.8393513 14.24695603 296.8393513 14.24695603 294.95555115 14.24723816 C293.6596549 14.24356147 292.36375865 14.23988478 291.02859282 14.23609668 C287.41480324 14.22604735 283.80103026 14.22235519 280.18722868 14.21970737 C276.29617318 14.21581293 272.40513093 14.20623397 268.51408386 14.19749451 C259.1083915 14.1777048 249.70269802 14.16766033 240.29699004 14.15876672 C235.8715283 14.15438757 231.44606777 14.14901977 227.02060699 14.14377785 C212.31555555 14.12676241 197.61050487 14.11226753 182.9054451 14.10502911 C179.0868403 14.1031191 175.26823551 14.10119878 171.44963074 14.09924316 C170.50049229 14.09875942 169.55135385 14.09827568 168.57345363 14.09777728 C153.19299138 14.08947442 137.81260684 14.06413459 122.43217853 14.03166249 C106.653758 13.99862082 90.875377 13.98058293 75.09692168 13.97738487 C66.23291824 13.97521699 57.36902809 13.96642798 48.50505829 13.94092369 C40.95689108 13.91925606 33.40886466 13.91114675 25.86066988 13.92089047 C22.00787648 13.92544679 18.15537379 13.92347228 14.30261993 13.90412903 C10.12878126 13.88335435 5.95559219 13.89344527 1.78172302 13.90666199 C-0.05138982 13.89020812 -0.05138982 13.89020812 -1.92153525 13.87342185 C-8.32564233 13.86366842 -8.32564233 13.86366842 -14.11452103 16.29989338 C-16.77558795 19.4474074 -17.0142375 21.18361627 -17.04354858 25.22854614 C-17.05823181 26.7598391 -17.05823181 26.7598391 -17.07321167 28.32206726 C-17.07896713 29.44631607 -17.0847226 30.57056488 -17.09065247 31.72888184 C-17.10550186 33.49959297 -17.10550186 33.49959297 -17.12065125 35.30607605 C-17.14687177 38.547577 -17.16872031 41.78907261 -17.18865323 45.03061724 C-17.21049868 48.41658733 -17.23789441 51.80251232 -17.26470947 55.18844604 C-17.31465589 61.60218646 -17.35958747 68.01595188 -17.40273184 74.42974126 C-17.45208758 81.73076671 -17.50701186 89.03174692 -17.56241143 96.33272862 C-17.67626138 111.35324688 -17.78289631 126.37380842 -17.8853302 141.39440918 C-22.1753302 141.39440918 -26.4653302 141.39440918 -30.8853302 141.39440918 C-31.00126665 125.51269271 -31.09040072 109.63112697 -31.14439106 93.74909306 C-31.17013041 86.3741264 -31.20519844 78.99942813 -31.26252747 71.62463379 C-31.31249417 65.19384033 -31.34465224 58.76324132 -31.35577267 52.33225912 C-31.36226925 48.92962046 -31.37744671 45.52753793 -31.41398048 42.1250782 C-31.45036552 38.31877013 -31.45527123 34.51360779 -31.45295715 30.70715332 C-31.47093353 29.58936996 -31.48890991 28.47158661 -31.50743103 27.31993103 C-31.45500172 19.33108636 -29.73589232 13.38616444 -24.10043812 7.54406834 C-22.41801081 5.99189848 -20.79361754 4.66148125 -18.8853302 3.39440918 C-18.12104863 2.88095695 -17.35676706 2.36750473 -16.56932545 1.83849335 C-11.07804545 -0.31402585 -5.84827706 -0.02534773 0 0 Z " fill="#FAF9FD" transform="translate(107.88533020019531,76.6055908203125)"></path><path d="M0 0 C4.70986457 -0.05024886 9.41956582 -0.08611102 14.12963867 -0.10986328 C15.72471848 -0.11978751 17.31978077 -0.13333127 18.91479492 -0.15087891 C33.10694362 -0.30285782 46.72257011 0.60182708 60.4375 4.625 C61.3229248 4.88224854 62.20834961 5.13949707 63.12060547 5.40454102 C71.60916263 7.99024144 79.31505462 11.59948272 87 16 C88.00417969 16.56589844 89.00835937 17.13179687 90.04296875 17.71484375 C114.19848651 32.19452647 134.15617082 58.1767754 141.1640625 85.4296875 C141.43992188 86.60789062 141.71578125 87.78609375 142 89 C142.27585938 90.11632812 142.55171875 91.23265625 142.8359375 92.3828125 C144.83561343 101.54964374 145.41054469 110.64037914 145.9375 120 C147.65132974 149.21373798 157.90244027 176.05637137 179.5859375 196.4296875 C199.36323069 213.19108848 222.17158341 222.76227436 248.19140625 223.31640625 C249.43747902 223.3475779 249.43747902 223.3475779 250.70872498 223.37937927 C253.32657715 223.44404482 255.9445176 223.50336792 258.5625 223.5625 C260.35222217 223.60576445 262.14193586 223.64938106 263.93164062 223.69335938 C268.28767315 223.79963924 272.64379319 223.90113258 277 224 C275.90631807 222.73839425 274.81092802 221.47826916 273.71484375 220.21875 C273.10503662 219.51685547 272.49522949 218.81496094 271.86694336 218.09179688 C269.35254911 215.27457053 266.7024229 212.63651015 264 210 C265.38188453 206.78956118 266.92421903 204.95063635 269.625 202.75 C270.25664062 202.22921875 270.88828125 201.7084375 271.5390625 201.171875 C272.02117187 200.78515625 272.50328125 200.3984375 273 200 C276.68767402 203.66299079 280.37207881 207.3292268 284.0534668 210.99853516 C285.30680012 212.24683371 286.56102868 213.49423407 287.81616211 214.74072266 C289.61807502 216.53053264 291.41676427 218.32352745 293.21484375 220.1171875 C293.77840073 220.67558319 294.3419577 221.23397888 294.92259216 221.80929565 C299.73788346 226.62388814 299.73788346 226.62388814 300.5 230.625 C299.23221166 239.1825713 288.45571687 246.66193922 282.5625 252.5 C281.64017578 253.4178125 280.71785156 254.335625 279.76757812 255.28125 C277.51400101 257.52315055 275.25810925 259.762666 273 262 C271.86800647 261.0919838 270.74467637 260.17316174 269.625 259.25 C268.99851562 258.73953125 268.37203125 258.2290625 267.7265625 257.703125 C265.91687682 255.91800519 264.99882545 254.32050356 264 252 C264.92683594 251.08476562 265.85367187 250.16953125 266.80859375 249.2265625 C268.01836039 248.0261739 269.22798865 246.82564583 270.4375 245.625 C271.04916016 245.02171875 271.66082031 244.4184375 272.29101562 243.796875 C272.87431641 243.21679688 273.45761719 242.63671875 274.05859375 242.0390625 C274.59798584 241.50490723 275.13737793 240.97075195 275.69311523 240.42041016 C277.10846977 239.01347612 277.10846977 239.01347612 278 237 C276.86272461 237.02094727 275.72544922 237.04189453 274.55371094 237.06347656 C270.22978925 237.13729035 265.90591959 237.18229903 261.58154297 237.21972656 C259.72955893 237.23952705 257.87763458 237.26657479 256.02587891 237.30175781 C225.79090621 237.86075133 198.52486053 229.37150584 175 210 C174.07574219 209.24074219 173.15148437 208.48148438 172.19921875 207.69921875 C160.56014167 197.64055383 152.04616574 185.5763651 145 172 C144.52949219 171.10023438 144.05898437 170.20046875 143.57421875 169.2734375 C135.94049093 153.62784053 133.15479333 136.92950737 132.5625 119.6875 C131.59043921 92.79886955 123.35950025 68.06170557 105 48 C104.18015625 47.08734375 103.3603125 46.1746875 102.515625 45.234375 C92.15833854 34.26423135 79.9267273 26.71121935 66 21 C65.15824219 20.62230469 64.31648438 20.24460938 63.44921875 19.85546875 C43.90909994 11.74160915 20.77386402 13.31703789 0 13 C0 8.71 0 4.42 0 0 Z " fill="#FCFBFE" transform="translate(109,134)"></path><path d="M0 0 C17.16 0 34.32 0 52 0 C52 38.28 52 76.56 52 116 C34.84 116 17.68 116 0 116 C0 77.72 0 39.44 0 0 Z " fill="#FBF9FE" transform="translate(358,185)"></path><path d="M0 0 C17.16 0 34.32 0 52 0 C52 33.99 52 67.98 52 103 C34.84 103 17.68 103 0 103 C0 69.01 0 35.02 0 0 Z " fill="#FAF9FD" transform="translate(281,198)"></path><path d="M0 0 C4.28199937 0.11413958 6.76847722 3.37089413 9.5703125 6.2421875 C10.35376541 7.02845016 10.35376541 7.02845016 11.15304565 7.83059692 C12.25415742 8.93842065 13.35167059 10.04983125 14.44580078 11.16455078 C16.11892796 12.86881496 17.80247244 14.5621944 19.48828125 16.25390625 C20.55791711 17.33271357 21.62694822 18.4121209 22.6953125 19.4921875 C23.19741241 19.99853729 23.69951233 20.50488708 24.21682739 21.02658081 C29.69015635 26.61240693 29.69015635 26.61240693 30.5078125 30.27416992 C29.71286733 34.54126742 26.93599237 36.68126469 23.875 39.61328125 C23.25351074 40.22769577 22.63202148 40.84211029 21.99169922 41.47514343 C20.00589753 43.43297849 18.00341709 45.37271013 16 47.3125 C14.64990532 48.63751502 13.30093247 49.96367413 11.953125 51.29101562 C8.64828285 54.54075805 5.32837551 57.77437165 2 61 C-1.77519562 59.23770311 -4.30729323 57.23124812 -7 54 C-6.68772087 50.8053569 -5.5424329 49.17793502 -3.27734375 46.984375 C-2.73916016 46.45585937 -2.20097656 45.92734375 -1.64648438 45.3828125 C-1.08251953 44.84398437 -0.51855469 44.30515625 0.0625 43.75 C0.91424805 42.91855469 0.91424805 42.91855469 1.78320312 42.0703125 C3.18212469 40.70665786 4.59019114 39.35239583 6 38 C-22.30953187 37.00089303 -22.30953187 37.00089303 -50 42 C-50.69351563 42.20898926 -51.38703125 42.41797852 -52.1015625 42.63330078 C-67.47387606 47.43714877 -80.95203334 55.38539272 -93 66 C-93.97582031 66.7734375 -94.95164062 67.546875 -95.95703125 68.34375 C-99.30028007 71.12374567 -101.91763915 74.31454299 -104.5625 77.75 C-105.03921143 78.36182129 -105.51592285 78.97364258 -106.00708008 79.60400391 C-109.49359248 84.15495865 -112.51879333 88.81825347 -115 94 C-118.01217112 93.35550393 -120.51655836 92.34977818 -123.25 90.9375 C-123.95640625 90.57527344 -124.6628125 90.21304688 -125.390625 89.83984375 C-126.18726563 89.42412109 -126.18726563 89.42412109 -127 89 C-125.63527847 84.05850831 -123.38603833 80.27213236 -120.375 76.1875 C-119.92914551 75.57511475 -119.48329102 74.96272949 -119.02392578 74.33178711 C-103.8318854 53.72409077 -82.79638337 38.48164544 -58.625 30.1875 C-57.82433105 29.90938477 -57.02366211 29.63126953 -56.19873047 29.34472656 C-41.49888716 24.57736675 -26.77173643 23.52301446 -11.4375 23.3125 C-9.73239778 23.27920674 -8.02731868 23.24470681 -6.32226562 23.20898438 C-2.21483771 23.1232884 1.89188209 23.06208203 6 23 C1.38 18.38 -3.24 13.76 -8 9 C-2 2 -2 2 0 0 Z " fill="#FBFAFE" transform="translate(380,110)"></path><path d="M0 0 C8.58 0 17.16 0 26 0 C26 29.7 26 59.4 26 90 C17.42 90 8.84 90 0 90 C0 60.3 0 30.6 0 0 Z " fill="#8451DF" transform="translate(371,198)"></path><path d="M0 0 C14.19650946 5.9429271 28.15879664 12.27119573 42 19 C35.94411317 33.13930364 29.69098575 47.14933626 23 61 C14.89624163 57.88138801 6.97116625 54.38986409 -0.9440918 50.82666016 C-3.08699801 49.86399467 -5.23386845 48.91054566 -7.38085938 47.95703125 C-8.7450438 47.34431104 -10.10898551 46.73105011 -11.47265625 46.1171875 C-12.11421158 45.83382538 -12.75576691 45.55046326 -13.41676331 45.2585144 C-17.88575283 43.22849434 -17.88575283 43.22849434 -19 41 C-17.98000107 38.3069819 -16.89190205 35.72366969 -15.703125 33.10546875 C-15.35368835 32.3210994 -15.00425171 31.53673004 -14.64422607 30.72859192 C-13.90128124 29.06504468 -13.15452307 27.40319614 -12.40429688 25.74291992 C-11.26101804 23.21189209 -10.12950864 20.67587015 -9 18.13867188 C-8.27673403 16.52312736 -7.55279691 14.9078831 -6.828125 13.29296875 C-6.3216745 12.15990547 -6.3216745 12.15990547 -5.80499268 11.00395203 C-4.07403915 7.18203618 -2.25781415 3.54893056 0 0 Z " fill="#FCFBFE" transform="translate(169,256)"></path><path d="M0 0 C0.54011719 0.37125 1.08023438 0.7425 1.63671875 1.125 C2.52359375 1.7025 3.41046875 2.28 4.32421875 2.875 C9.76243254 8.16623504 12.75431839 14.09418934 13.01171875 21.6875 C12.92139791 29.16606553 10.78587014 34.63326311 5.76953125 40.1953125 C-0.65578859 46.17060994 -6.78396791 48.73425904 -15.58203125 48.48046875 C-22.01076979 47.65881818 -27.72983889 44.62605829 -32.36328125 40.125 C-38.15292081 32.35034116 -39.43363798 25.71361234 -38.36328125 16.125 C-35.7530488 7.59513323 -30.69003835 2.72105426 -23.23828125 -1.75 C-15.82473827 -4.54472162 -6.77269545 -4.08917461 0 0 Z " fill="#FCFBFE" transform="translate(179.36328125,175.875)"></path><path d="M0 0 C5.94445001 3.13273623 9.61968536 8.0797948 13 13.75 C15.05172443 20.99138033 15.19496472 27.87028088 12.0625 34.8125 C8.77790243 40.59078638 4.42850823 45.11262731 -1.76171875 47.6640625 C-8.55005176 49.45090538 -16.83501975 49.89243745 -23.375 47 C-29.83243533 43.07842447 -34.88700506 36.73704097 -36.9375 29.5 C-37.99680341 21.10888872 -36.91610942 14.42936263 -31.9375 7.5 C-23.45451023 -1.71841025 -12.03975885 -4.68327969 0 0 Z " fill="#FCFBFE" transform="translate(113.9375,232.5)"></path><path d="M0 0 C8.58 0 17.16 0 26 0 C26 25.41 26 50.82 26 77 C17.42 77 8.84 77 0 77 C0 51.59 0 26.18 0 0 Z " fill="#7D4CD8" transform="translate(294,211)"></path><path d="M0 0 C3.77948596 1.48088888 7.3850182 3.15047443 11 5 C7.84555527 20.70212486 -12.59484719 36.58629986 -25 45.0625 C-36.41916 52.57835145 -48.82617877 58.22157413 -61.8125 62.4375 C-62.52760742 62.67243164 -63.24271484 62.90736328 -63.97949219 63.14941406 C-77.44085274 67.24793385 -90.95784129 67.26440832 -104.875 67.125 C-106.64192196 67.11494039 -108.40884952 67.10581986 -110.17578125 67.09765625 C-114.45066254 67.07590126 -118.72526707 67.04153949 -123 67 C-123 62.71 -123 58.42 -123 54 C-121.26435791 54.00169189 -121.26435791 54.00169189 -119.49365234 54.00341797 C-88.64660867 54.43400582 -88.64660867 54.43400582 -59 47 C-57.94256592 46.57726807 -57.94256592 46.57726807 -56.86376953 46.14599609 C-52.44232565 44.33151114 -48.21624296 42.25728102 -44 40 C-42.96875 39.45601563 -41.9375 38.91203125 -40.875 38.3515625 C-23.70521269 28.8276961 -10.98198041 16.11760382 0 0 Z " fill="#FBFAFD" transform="translate(232,304)"></path><path d="M0 0 C3.43761572 2.12108204 5.77560839 4.1042085 7 8 C7.48365156 13.22343681 6.92346277 16.61480585 4 21 C0.77010591 23.78945399 -1.2663318 24.89519026 -5.5 25.5 C-10.62182097 24.76831129 -13.53931703 22.70413013 -16.875 18.8125 C-18.48123136 14.79692159 -18.80996194 11.25979982 -18 7 C-13.89640883 -0.68609139 -7.88319061 -1.95672053 0 0 Z " fill="#6D41C7" transform="translate(108,244)"></path><path d="M0 0 C3.23857278 1.30921027 4.60256422 2.52033613 6.8125 5.1875 C8.38296988 8.90703394 8.60577351 12.01804883 8 16 C6.50282018 19.20824247 4.72481464 21.72932114 2 24 C-2.80864914 25.60288305 -7.17071411 25.77236515 -11.8125 23.8125 C-15.10840048 21.08161103 -16.73553076 18.95771745 -17.3203125 14.62890625 C-17.5122719 10.32261694 -17.45133661 7.74703991 -15.1875 4 C-10.22383179 -0.53821094 -6.47079807 -0.66260972 0 0 Z " fill="#7647D1" transform="translate(171,186)"></path><path d="M0 0 C6.40615131 2.51431409 12.7337314 5.15444808 19 8 C17.60121198 12.46797338 15.86369228 16.63822079 13.875 20.875 C13.33617187 22.02742188 12.79734375 23.17984375 12.2421875 24.3671875 C11.83226562 25.23601562 11.42234375 26.10484375 11 27 C6.53202662 25.60121198 2.36177921 23.86369228 -1.875 21.875 C-3.02742187 21.33617187 -4.17984375 20.79734375 -5.3671875 20.2421875 C-6.23601562 19.83226562 -7.10484375 19.42234375 -8 19 C-6.00386732 12.2813095 -3.2708579 6.19265192 0 0 Z " fill="#7144CC" transform="translate(175,273)"></path></svg>