<svg version="1.1" xmlns="http://www.w3.org/2000/svg" width="16px" height="16px" fill="currentColor" viewBox="0 0 512 512"><path d="M0 0 C168.96 0 337.92 0 512 0 C512 168.96 512 337.92 512 512 C343.04 512 174.08 512 0 512 C0 343.04 0 174.08 0 0 Z " fill="#DD2C33" transform="translate(0,0)"></path><path d="M0 0 C17.83899964 13.39256242 29.28794501 31.09913629 33.16796875 53.0859375 C34.64328929 65.82500963 34.87755125 78.93807511 30.58984375 91.125 C29.5471419 94.16935441 28.85053072 96.74824335 28.6171875 99.96484375 C29.91301536 102.24250158 29.91301536 102.24250158 32.0655365 104.14057922 C32.85509232 104.91518997 33.64464813 105.68980072 34.45812988 106.48788452 C35.34069458 107.31857452 36.22325928 108.14926453 37.13256836 109.00512695 C38.53981743 110.37202513 39.947056 111.73893421 41.35390007 113.10624921 C42.86977296 114.57335755 44.39371769 116.03162775 45.91987419 117.48803139 C49.10619216 120.53176589 52.26018198 123.60760391 55.40882874 126.69023132 C64.3667634 135.45146419 73.35897437 144.17651874 82.40112305 152.85083008 C87.39491627 157.64201999 92.35705379 162.46380796 97.28741938 167.32026356 C99.89505823 169.88591729 102.51627483 172.43302985 105.17820549 174.94240761 C123.52536301 192.26164837 123.52536301 192.26164837 124.01112461 201.28238964 C123.85918579 204.61843146 123.31016706 207.6948478 122.6171875 210.96484375 C122.54948732 212.69809258 122.51107583 214.43362405 122.5390625 216.16796875 C122.48610578 217.51710422 122.42910634 218.86608989 122.3671875 220.21484375 C122.35300781 220.90707031 122.33882812 221.59929687 122.32421875 222.3125 C122.16377386 225.66900717 121.62417195 227.95185301 120.02734375 230.921875 C116.83042888 233.63173963 114.3036874 233.60697641 110.3046875 233.40234375 C109.20882324 233.36210083 109.20882324 233.36210083 108.09082031 233.32104492 C106.47781188 233.25358515 104.86529298 233.17359462 103.25341797 233.08300781 C100.44528969 232.95713875 97.65062167 232.95609821 94.83984375 232.95703125 C79.92344508 232.66316032 79.92344508 232.66316032 75.77783203 229.61035156 C73.69750823 227.38612268 71.88800926 225.01221397 70.06005859 222.57983398 C66.35085609 218.31323111 63.33981267 217.4740298 57.71484375 216.9921875 C51.5764823 216.75463663 45.45549031 216.86809097 39.32177734 217.19091797 C36.6171875 216.96484375 36.6171875 216.96484375 34.76782227 215.85375977 C33.0917202 213.10222111 33.24814723 210.8929759 33.24609375 207.6875 C33.22869141 206.45193359 33.21128906 205.21636719 33.19335938 203.94335938 C33.18425847 201.33659923 33.17903841 198.72982259 33.17773438 196.12304688 C33.15904297 194.88619141 33.14035156 193.64933594 33.12109375 192.375 C33.11924072 191.24199463 33.1173877 190.10898926 33.11547852 188.94165039 C32.82327834 185.90640919 32.82327834 185.90640919 30.98632812 183.59570312 C27.89923419 181.47062198 25.93809569 181.46703965 22.20703125 181.4609375 C20.97017578 181.44224609 19.73332031 181.42355469 18.45898438 181.40429688 C17.17056641 181.40365234 15.88214844 181.40300781 14.5546875 181.40234375 C12.0012217 181.39342891 9.44775938 181.37189846 6.89453125 181.3359375 C5.76265381 181.3352124 4.63077637 181.3344873 3.46459961 181.33374023 C0.6171875 180.96484375 0.6171875 180.96484375 -1.26293945 179.82299805 C-2.89610581 177.11315957 -2.66702748 175.00803363 -2.578125 171.86328125 C-2.57296875 170.65027344 -2.5678125 169.43726563 -2.5625 168.1875 C-2.52636841 165.64538445 -2.46689875 163.1034814 -2.3828125 160.5625 C-2.39722628 153.73757386 -2.84096088 149.62813706 -7.64453125 144.546875 C-10.80018674 141.61827474 -10.80018674 141.61827474 -14.88183594 140.84741211 C-17.210823 141.30494739 -19.20679885 142.02341849 -21.3828125 142.96484375 C-40.31828384 149.402904 -61.96872075 147.5323033 -79.9921875 139.3203125 C-99.48595207 129.37130593 -115.13825546 113.08136724 -122.38671875 92.2890625 C-128.92243679 70.47770542 -128.30540982 49.31921035 -117.3828125 28.96484375 C-112.95511224 21.09707562 -107.70543526 14.39800187 -101.3828125 7.96484375 C-100.76921875 7.33835938 -100.155625 6.711875 -99.5234375 6.06640625 C-72.54254354 -19.41554916 -30.03400718 -20.36430457 0 0 Z " fill="#DE2E35" transform="translate(321.3828125,199.03515625)"></path><path d="M0 0 C17.83899964 13.39256242 29.28794501 31.09913629 33.16796875 53.0859375 C34.64328929 65.82500963 34.87755125 78.93807511 30.58984375 91.125 C29.5471419 94.16935441 28.85053072 96.74824335 28.6171875 99.96484375 C29.91301536 102.24250158 29.91301536 102.24250158 32.0655365 104.14057922 C32.85509232 104.91518997 33.64464813 105.68980072 34.45812988 106.48788452 C35.34069458 107.31857452 36.22325928 108.14926453 37.13256836 109.00512695 C38.53981743 110.37202513 39.947056 111.73893421 41.35390007 113.10624921 C42.86977296 114.57335755 44.39371769 116.03162775 45.91987419 117.48803139 C49.10619216 120.53176589 52.26018198 123.60760391 55.40882874 126.69023132 C64.3667634 135.45146419 73.35897437 144.17651874 82.40112305 152.85083008 C87.39491627 157.64201999 92.35705379 162.46380796 97.28741938 167.32026356 C99.89505823 169.88591729 102.51627483 172.43302985 105.17820549 174.94240761 C123.52536301 192.26164837 123.52536301 192.26164837 124.01112461 201.28238964 C123.85918579 204.61843146 123.31016706 207.6948478 122.6171875 210.96484375 C122.54948732 212.69809258 122.51107583 214.43362405 122.5390625 216.16796875 C122.48610578 217.51710422 122.42910634 218.86608989 122.3671875 220.21484375 C122.35300781 220.90707031 122.33882812 221.59929687 122.32421875 222.3125 C122.16377386 225.66900717 121.62417195 227.95185301 120.02734375 230.921875 C116.83042888 233.63173963 114.3036874 233.60697641 110.3046875 233.40234375 C109.20882324 233.36210083 109.20882324 233.36210083 108.09082031 233.32104492 C106.47781188 233.25358515 104.86529298 233.17359462 103.25341797 233.08300781 C100.44528969 232.95713875 97.65062167 232.95609821 94.83984375 232.95703125 C79.92344508 232.66316032 79.92344508 232.66316032 75.77783203 229.61035156 C73.69750823 227.38612268 71.88800926 225.01221397 70.06005859 222.57983398 C66.35085609 218.31323111 63.33981267 217.4740298 57.71484375 216.9921875 C51.5764823 216.75463663 45.45549031 216.86809097 39.32177734 217.19091797 C36.6171875 216.96484375 36.6171875 216.96484375 34.76782227 215.85375977 C33.0917202 213.10222111 33.24814723 210.8929759 33.24609375 207.6875 C33.22869141 206.45193359 33.21128906 205.21636719 33.19335938 203.94335938 C33.18425847 201.33659923 33.17903841 198.72982259 33.17773438 196.12304688 C33.15904297 194.88619141 33.14035156 193.64933594 33.12109375 192.375 C33.11924072 191.24199463 33.1173877 190.10898926 33.11547852 188.94165039 C32.82327834 185.90640919 32.82327834 185.90640919 30.98632812 183.59570312 C27.89923419 181.47062198 25.93809569 181.46703965 22.20703125 181.4609375 C20.97017578 181.44224609 19.73332031 181.42355469 18.45898438 181.40429688 C17.17056641 181.40365234 15.88214844 181.40300781 14.5546875 181.40234375 C12.0012217 181.39342891 9.44775938 181.37189846 6.89453125 181.3359375 C5.76265381 181.3352124 4.63077637 181.3344873 3.46459961 181.33374023 C0.6171875 180.96484375 0.6171875 180.96484375 -1.26293945 179.82299805 C-2.89610581 177.11315957 -2.66702748 175.00803363 -2.578125 171.86328125 C-2.57296875 170.65027344 -2.5678125 169.43726563 -2.5625 168.1875 C-2.52636841 165.64538445 -2.46689875 163.1034814 -2.3828125 160.5625 C-2.39722628 153.73757386 -2.84096088 149.62813706 -7.64453125 144.546875 C-10.80018674 141.61827474 -10.80018674 141.61827474 -14.88183594 140.84741211 C-17.210823 141.30494739 -19.20679885 142.02341849 -21.3828125 142.96484375 C-40.31828384 149.402904 -61.96872075 147.5323033 -79.9921875 139.3203125 C-99.48595207 129.37130593 -115.13825546 113.08136724 -122.38671875 92.2890625 C-128.92243679 70.47770542 -128.30540982 49.31921035 -117.3828125 28.96484375 C-112.95511224 21.09707562 -107.70543526 14.39800187 -101.3828125 7.96484375 C-100.76921875 7.33835938 -100.155625 6.711875 -99.5234375 6.06640625 C-72.54254354 -19.41554916 -30.03400718 -20.36430457 0 0 Z M-99.21484375 24.1484375 C-111.39367781 39.96994985 -115.23862236 57.22503695 -113.3828125 76.96484375 C-112.5648585 81.59668976 -111.24464225 85.6538213 -109.3828125 89.96484375 C-108.67125 91.68574219 -108.67125 91.68574219 -107.9453125 93.44140625 C-100.11793136 110.71432905 -85.81464981 123.19983304 -68.32763672 130.2734375 C-61.06666144 132.85479351 -54.03754268 133.27828074 -46.3828125 133.21484375 C-45.44953125 133.22257813 -44.51625 133.2303125 -43.5546875 133.23828125 C-34.31946589 133.21248454 -26.66590789 131.27050161 -18.15625 127.76953125 C-14.43643153 126.69025997 -12.25676184 126.29748273 -8.3828125 126.96484375 C-5.05569498 129.4105149 -2.31782169 132.32635114 0.4921875 135.33984375 C1.26304687 136.13390625 2.03390625 136.92796875 2.828125 137.74609375 C9.68815832 144.87183258 9.68815832 144.87183258 9.93359375 150.97265625 C9.97548828 151.95878906 10.01738281 152.94492187 10.06054688 153.9609375 C10.09986328 154.99347656 10.13917969 156.02601563 10.1796875 157.08984375 C10.22287109 158.13011719 10.26605469 159.17039062 10.31054688 160.2421875 C10.4168163 162.81626903 10.51885333 165.39044883 10.6171875 167.96484375 C11.24173828 167.958479 11.86628906 167.95211426 12.50976562 167.94555664 C15.38007989 167.93679273 18.24724301 167.98170214 21.1171875 168.02734375 C22.09945312 168.01638672 23.08171875 168.00542969 24.09375 167.99414062 C30.68099455 168.147843 34.27623368 169.33018225 38.91137695 174.08520508 C39.47429443 174.70548584 40.03721191 175.3257666 40.6171875 175.96484375 C41.13563232 176.42592529 41.65407715 176.88700684 42.18823242 177.36206055 C46.16315889 181.19615702 46.25706757 185.10998624 46.41210938 190.3125 C46.41791016 191.31152344 46.42371094 192.31054688 46.4296875 193.33984375 C46.45482422 194.36207031 46.47996094 195.38429688 46.50585938 196.4375 C46.5644926 198.94700187 46.60094622 201.45476916 46.6171875 203.96484375 C47.24173828 203.958479 47.86628906 203.95211426 48.50976562 203.94555664 C51.38007989 203.93679273 54.24724301 203.98170214 57.1171875 204.02734375 C58.09945312 204.01638672 59.08171875 204.00542969 60.09375 203.99414062 C66.68253431 204.14787893 70.11640813 205.35500303 74.82592773 209.97802734 C75.99051154 211.26975189 77.12054285 212.59378677 78.20727539 213.95166016 C80.79424938 217.0083835 82.51817211 218.7199373 86.50732422 219.60888672 C89.87518335 219.87555301 93.17676087 219.93499 96.5546875 219.90234375 C97.71548828 219.91845703 98.87628906 219.93457031 100.07226562 219.95117188 C102.92178292 219.9863511 105.76767063 219.99000997 108.6171875 219.96484375 C109.06412399 217.61842718 109.36910446 215.33911168 109.6171875 212.96484375 C109.73447456 211.93136747 109.85176163 210.8978912 109.97260284 209.83309746 C110.38439057 203.29820568 110.34846377 198.85675451 106.01062012 193.72854614 C104.34160551 192.04348747 102.63392604 190.39615117 100.89648438 188.78173828 C99.96989517 187.86595505 99.04330597 186.95017181 98.08863831 186.00663757 C96.086496 184.02826472 94.06454039 182.07382109 92.02357483 180.13553238 C88.7948273 177.06853408 85.6179882 173.95109118 82.44616699 170.82540894 C76.854851 165.32824489 71.22186139 159.87541416 65.57879639 154.43145752 C57.0749827 146.22667327 48.60686898 137.98531233 40.17531824 129.70629776 C37.01707089 126.60833214 33.83845854 123.53341219 30.64162445 120.47529912 C29.13561702 119.02918579 27.6389027 117.57418237 26.14573669 116.11482239 C24.32773511 114.33865119 22.49527434 112.57711116 20.64601135 110.83351135 C14.099894 104.36302208 14.099894 104.36302208 14.00598145 99.57662964 C14.61578003 95.97316088 15.50134442 93.14014775 17.0546875 89.83984375 C22.86189697 77.36509749 22.72197564 58.66096171 18.65625 45.58984375 C15.14235551 36.71263661 10.75177508 29.26192167 4.6171875 21.96484375 C4.00230469 21.14886719 3.38742187 20.33289063 2.75390625 19.4921875 C-7.18087426 7.74117655 -23.30324229 0.73063798 -38.3828125 -1.03515625 C-62.60333725 -2.73638065 -83.23725068 5.62574111 -99.21484375 24.1484375 Z " fill="#FEFAFA" transform="translate(321.3828125,199.03515625)"></path><path d="M0 0 C11.48167827 9.71064816 21.78360086 20.66638835 29 34 C29 34.66 29 35.32 29 36 C29.72445312 35.51789063 30.44890625 35.03578125 31.1953125 34.5390625 C32.16210938 33.90742188 33.12890625 33.27578125 34.125 32.625 C35.07632813 31.99851563 36.02765625 31.37203125 37.0078125 30.7265625 C45.57722526 25.78180997 55.96410608 25.39821949 65.4296875 27.91015625 C77.87728931 32.83535239 86.83118882 41.15324517 92.8125 53.1875 C95.65206168 59.86430719 96.81714494 66.8740195 98 74 C98.81339844 74.1959375 99.62679688 74.391875 100.46484375 74.59375 C120.31809861 79.77480189 138.46866245 88.86822682 149.1875 107.125 C157.01840622 122.45090225 158.51771813 139.40316156 153.96875 156.01953125 C148.79856512 171.92618877 140.51511379 185.03743389 125.3125 193.0078125 C116.92882578 197.15559206 108.45493682 201 99 201 C98.67 197.04 98.34 193.08 98 189 C99.010625 188.62875 100.02125 188.2575 101.0625 187.875 C101.78824219 187.59785156 102.51398438 187.32070313 103.26171875 187.03515625 C105.33933228 186.24975313 107.42724022 185.49151597 109.51953125 184.74609375 C120.19963125 180.83613285 130.56381327 175.56062081 136 165 C143.13372268 148.78145101 144.3282068 132.5538982 138.15625 115.6953125 C132.84646242 103.93138658 122.41308333 96.85062442 110.6953125 92.234375 C104.78467695 90.04038867 98.88937361 88.06020155 92.6875 86.875 C88.59337336 85.90351232 87.51455378 85.27751669 85 82 C84.34765625 78.75 84.34765625 78.75 84.0625 75 C83.00421264 64.60827643 79.51537292 54.55032815 72 47 C64.55116516 41.33548681 58.25811763 40.39775 49 41 C43.31048479 41.89886438 40.34553956 44.48668875 36.4375 48.625 C31.69930303 53.62461474 31.69930303 53.62461474 28.1875 54.375 C25 54 25 54 22.96875 51.82421875 C21.0620445 49.08900432 19.68605878 46.46922885 18.3125 43.4375 C14.98616595 36.62603707 10.77374746 30.86557284 6 25 C5.30003906 24.13375 4.60007812 23.2675 3.87890625 22.375 C-9.49628847 6.66834932 -29.40079312 -5.16888306 -50 -8 C-73.15865627 -9.82068759 -94.44356914 -6.18271825 -113 8.4375 C-128.73185832 22.24108869 -140.66090402 41.57073135 -142.20556641 62.82910156 C-142.3732868 66.79610989 -142.50115282 70.75447791 -142.49682617 74.7253418 C-142.50818604 75.62679932 -142.5195459 76.52825684 -142.53125 77.45703125 C-142.52673828 78.26116455 -142.52222656 79.06529785 -142.51757812 79.89379883 C-143 82 -143 82 -144.89013672 83.7355957 C-147.14228269 85.08526754 -149.0831819 85.73747559 -151.625 86.375 C-163.90233105 89.88538058 -175.01370588 96.62316899 -181.7578125 107.7109375 C-189.30101018 121.6112955 -191.45404648 135.77685381 -186.96484375 151.23046875 C-182.23975685 164.79357244 -173.71375299 174.30227222 -161 181 C-154.01115878 184.25751074 -147.6288265 187.07078766 -139.86425781 187.20532227 C-138.84350159 187.22526749 -137.82274536 187.24521271 -136.77105713 187.26576233 C-135.67613953 187.28247482 -134.58122192 187.29918732 -133.453125 187.31640625 C-132.3267865 187.33718735 -131.200448 187.35796844 -130.03997803 187.37937927 C-126.44338051 187.44474333 -122.84671023 187.50369885 -119.25 187.5625 C-116.8111904 187.6056977 -114.37238816 187.6493124 -111.93359375 187.69335938 C-105.95580366 187.80041134 -99.97794042 187.90171604 -94 188 C-94 192.29 -94 196.58 -94 201 C-100.68534137 201.09998785 -107.37023331 201.17199046 -114.05615234 201.21972656 C-116.32348223 201.23965772 -118.59076197 201.26681268 -120.85791016 201.30175781 C-146.28150498 201.68339235 -166.1154899 197.69665512 -185.33203125 179.83203125 C-197.16248519 167.80003636 -202.35996431 152.9155149 -202.3125 136.3125 C-202.33666992 134.65057617 -202.33666992 134.65057617 -202.36132812 132.95507812 C-202.37123729 116.00048958 -196.64913914 101.86886099 -184.875 89.57421875 C-177.57707575 83.03980016 -166.09518142 74 -156 74 C-156.04640625 73.11441406 -156.0928125 72.22882813 -156.140625 71.31640625 C-156.86214987 46.55264199 -146.91427713 24.11263526 -130.06298828 6.15625 C-95.40011634 -29.93046791 -38.34615678 -31.66248396 0 0 Z " fill="#FEFAFA" transform="translate(273,99)"></path><path d="M0 0 C6.69693012 4.38719892 12.05524204 9.29107895 14.6015625 17.0859375 C16.16395919 25.31360448 16.35988348 34.29246552 11.56640625 41.40234375 C11.05851562 42.03785156 10.550625 42.67335938 10.02734375 43.328125 C9.26550781 44.29685547 9.26550781 44.29685547 8.48828125 45.28515625 C3.28751543 51.13909882 -2.65262537 53.80238071 -10.375 54.7421875 C-19.44861642 55.11656038 -26.09097942 53.5701987 -33 47.56640625 C-39.02889516 41.28258952 -42.08771337 34.13348601 -42.59765625 25.453125 C-42.31189401 17.8065217 -39.27669728 11.16358522 -34.296875 5.3828125 C-32.60229772 3.83237168 -30.89978239 2.57436075 -28.97265625 1.328125 C-28.40160156 0.91820312 -27.83054687 0.50828125 -27.2421875 0.0859375 C-19.30522089 -4.82178172 -8.10385747 -4.28583896 0 0 Z " fill="#FEFBFB" transform="translate(287.97265625,238.671875)"></path><path d="M0 0 C4.45146251 2.18526342 7.18885145 4.9394521 10 9 C11.55933311 13.67799933 11.57094713 17.49750756 9.8125 22.125 C7.19539125 26.27627595 4.72801733 29.42399422 0 31 C-5.3232961 31.50976619 -9.65894804 31.67052598 -14.5 29.25 C-18.3329773 25.80032043 -20.63069235 23.01777112 -21.2734375 17.765625 C-21.49721196 12.22290381 -21.05612108 8.69766715 -17.40234375 4.40625 C-12.30412703 -0.70616788 -6.96119216 -0.92133426 0 0 Z " fill="#DE3037" transform="translate(280,249)"></path></svg>