<svg version="1.1" xmlns="http://www.w3.org/2000/svg" width="16px" height="16px" fill="currentColor" viewBox="0 0 512 512"><path d="M0 0 C168.96 0 337.92 0 512 0 C512 168.96 512 337.92 512 512 C343.04 512 174.08 512 0 512 C0 343.04 0 174.08 0 0 Z " fill="#4053D6" transform="translate(0,0)"></path><path d="M0 0 C15.95915818 12.65230558 28.60480077 30.34140668 31 51 C32.52647954 72.56576369 28.17786217 91.79037264 14.5625 109 C7.61382865 116.93623937 0.23469088 122.91031651 -9 128 C-8.48203857 128.21092285 -7.96407715 128.4218457 -7.43041992 128.63916016 C28.39034821 143.29184591 55.47551697 166.07673756 70.78100586 202.30932617 C73.26505079 208.43571953 75.33188069 214.60554266 77 221 C77.44859375 222.63195312 77.44859375 222.63195312 77.90625 224.296875 C79.86722948 232.46762285 80.15962846 240.13786493 80.078125 248.51171875 C80.07248535 249.61946655 80.0668457 250.72721436 80.06103516 251.86853027 C80.04641893 254.57911002 80.02593409 257.28950891 80 260 C78.94884789 259.9959358 77.89769579 259.9918716 76.81469059 259.98768425 C51.18054003 259.89087358 25.54679312 259.85197994 -0.08753872 259.87302971 C-12.48443534 259.88188312 -24.88079212 259.87225039 -37.27758789 259.81835938 C-48.08880234 259.77140887 -58.89938973 259.75989667 -69.71067387 259.7900821 C-75.42991098 259.80483549 -81.14792746 259.80242566 -86.867033 259.75750351 C-92.26273553 259.71568342 -97.656381 259.72165213 -103.05207062 259.76252174 C-105.02032968 259.76932667 -106.9887376 259.75944292 -108.95679665 259.73056984 C-122.41176541 259.54629323 -131.1618551 262.01241247 -142.2129432 269.77548432 C-144.90939492 271.62312979 -147.72517498 273.19960042 -150.57421875 274.80078125 C-152.08387207 275.66896484 -152.08387207 275.66896484 -153.62402344 276.5546875 C-155.74772677 277.77326129 -157.87212392 278.99062641 -159.99707031 280.20703125 C-165.49328877 283.36318101 -170.95201792 286.56107871 -176.34765625 289.88671875 C-177.34385986 290.49539795 -178.34006348 291.10407715 -179.36645508 291.73120117 C-181.2435152 292.88261092 -183.11238762 294.04751208 -184.97143555 295.2277832 C-185.81101807 295.74042725 -186.65060059 296.25307129 -187.515625 296.78125 C-188.60278809 297.4628418 -188.60278809 297.4628418 -189.71191406 298.15820312 C-192.86336604 299.31763616 -194.77836348 298.86154058 -198 298 C-200.65527344 296.74755859 -200.65527344 296.74755859 -203.359375 295.1484375 C-204.37902344 294.55224609 -205.39867187 293.95605469 -206.44921875 293.34179688 C-208.08310547 292.36823242 -208.08310547 292.36823242 -209.75 291.375 C-210.90697352 290.69497822 -212.06453713 290.01595953 -213.22265625 289.33789062 C-215.62665148 287.92932676 -218.02805773 286.51649359 -220.42773438 285.10058594 C-225.9283502 281.85982939 -231.46610255 278.68345821 -237 275.5 C-239.1342579 274.2684775 -241.26837151 273.03670492 -243.40234375 271.8046875 C-247.43848588 269.47588644 -251.47642289 267.15025505 -255.51651001 264.82830811 C-257.94660552 263.43150193 -260.37603935 262.03354722 -262.80541992 260.63549805 C-264.53304415 259.64194008 -266.2616312 258.65005691 -267.99023438 257.65820312 C-269.02599609 257.06201172 -270.06175781 256.46582031 -271.12890625 255.8515625 C-272.04744385 255.32385254 -272.96598145 254.79614258 -273.91235352 254.25244141 C-276 253 -276 253 -277 252 C-277.16452504 249.09098607 -277.2636398 246.20458068 -277.31982422 243.29272461 C-277.34085205 242.37883972 -277.36187988 241.46495483 -277.38354492 240.52337646 C-277.56669071 232.07421838 -277.67261347 223.6236584 -277.75568962 215.17298031 C-277.8123028 209.49288759 -277.89383642 203.81562152 -278.03564453 198.13696289 C-278.17211173 192.65010792 -278.24452743 187.1658158 -278.27234268 181.67737007 C-278.29380151 179.58751793 -278.33782471 177.49776852 -278.405056 175.40888786 C-278.89357834 159.49619551 -278.89357834 159.49619551 -275.76486015 155.37178612 C-272.28501146 152.28672975 -268.3025256 150.70530325 -264 149 C-261.82249118 147.77914487 -259.65963485 146.5313908 -257.51953125 145.24609375 C-255.28501516 143.97452013 -253.04929986 142.70505196 -250.8125 141.4375 C-248.35744354 140.04146953 -245.90334622 138.6437565 -243.44921875 137.24609375 C-242.83159668 136.89461273 -242.21397461 136.54313171 -241.57763672 136.18099976 C-236.19603557 133.1166819 -230.82899846 130.02763104 -225.46655273 126.92993164 C-223.26298547 125.65724959 -221.05809739 124.3868513 -218.85180664 123.11889648 C-214.36582194 120.53888865 -209.89040018 117.9519381 -205.4765625 115.25 C-204.50759033 114.66605469 -204.50759033 114.66605469 -203.51904297 114.0703125 C-201.91665437 113.1008298 -200.32485434 112.11389907 -198.734375 111.125 C-195.28850689 109.70727141 -193.59876046 110.15689065 -190 111 C-187.52832031 112.16064453 -187.52832031 112.16064453 -185.078125 113.6328125 C-184.14814697 114.18420898 -183.21816895 114.73560547 -182.26000977 115.30371094 C-181.26670654 115.90473633 -180.27340332 116.50576172 -179.25 117.125 C-177.09814685 118.40447129 -174.94578502 119.68308739 -172.79296875 120.9609375 C-171.67841309 121.62577148 -170.56385742 122.29060547 -169.41552734 122.97558594 C-162.74045209 126.93196363 -156.0017897 130.77878999 -149.26977539 134.63720703 C-144.39641533 137.43710393 -139.5440573 140.25632152 -134.7578125 143.203125 C-133.97591553 143.68040039 -133.19401855 144.15767578 -132.38842773 144.64941406 C-130.97130532 145.51902262 -129.5612689 146.40034141 -128.16040039 147.29589844 C-125.46080947 148.94621706 -123.55266596 150.00651153 -120.34765625 149.96875 C-117.57235765 148.82353527 -115.59318684 147.38051938 -113.25 145.5 C-108.48204535 141.90947784 -103.58974896 138.97252261 -98.3125 136.1875 C-97.6122168 135.81496094 -96.91193359 135.44242188 -96.19042969 135.05859375 C-84.51775858 129 -84.51775858 129 -78 129 C-78 128.34 -78 127.68 -78 127 C-78.88945312 126.74476563 -79.77890625 126.48953125 -80.6953125 126.2265625 C-85.99651843 124.25897543 -89.77527075 120.67939095 -94 117 C-94.69480469 116.401875 -95.38960937 115.80375 -96.10546875 115.1875 C-109.53213283 102.75242588 -117.50359613 84.77181413 -118.2734375 66.62890625 C-118.76709275 45.80968157 -114.58962931 28.69994597 -100.625 12.6875 C-99.10293547 11.10589893 -97.56125968 9.54292274 -96 8 C-94.87851562 6.84564453 -94.87851562 6.84564453 -93.734375 5.66796875 C-68.75284523 -18.61043849 -28.21471843 -18.88985404 0 0 Z " fill="#FBFBFE" transform="translate(354,130)"></path><path d="M0 0 C0.89759033 0.52247314 1.79518066 1.04494629 2.7199707 1.58325195 C3.74388916 2.17678467 4.76780762 2.77031738 5.82275391 3.38183594 C6.91934326 4.02193604 8.01593262 4.66203613 9.14575195 5.3215332 C10.88867186 6.33371397 12.63159542 7.34588851 14.3747406 8.35768127 C15.57874662 9.05680764 16.782489 9.75638822 17.98597717 10.45640564 C22.14904517 12.87752183 26.32040975 15.28375205 30.49731445 17.6809082 C31.63338135 18.33357666 32.76944824 18.98624512 33.93994141 19.65869141 C36.08884301 20.89277805 38.23837398 22.12576976 40.38867188 23.35742188 C42.33838213 24.47924839 44.27758311 25.6196447 46.20309448 26.78251648 C49.41719889 28.68909448 49.41719889 28.68909448 52.82896423 30.08999634 C56.80861626 31.99913741 59.30993367 33.51273896 62.45825195 36.6340332 C64.43934402 42.67232546 64.3422618 48.51216129 64.25512695 54.81762695 C64.26898356 56.60070302 64.28639734 58.38375463 64.30718994 60.16676331 C64.33530905 63.89598877 64.31568804 67.62116842 64.26293945 71.35009766 C64.20006212 76.11290292 64.2634175 80.86426169 64.36378098 85.62608242 C64.42601825 89.30648811 64.41710458 92.98419209 64.38761139 96.66490364 C64.38266313 98.41872596 64.40026377 100.17277179 64.44155121 101.92611504 C64.70020134 115.19124432 64.70020134 115.19124432 60.99482155 119.2285614 C57.41829059 122.05527336 53.50666703 123.99543177 49.33656597 125.79240799 C46.50045387 127.06319841 43.87860831 128.66425846 41.2199707 130.2668457 C39.19605265 131.43233598 37.1712969 132.59637266 35.14575195 133.7590332 C32.90869017 135.04534787 30.67171373 136.33181097 28.43481445 137.6184082 C26.72793457 138.59970703 26.72793457 138.59970703 24.98657227 139.60083008 C21.35471307 141.69144768 17.73047083 143.79508037 14.10668945 145.8996582 C12.32178308 146.93483439 10.53673101 147.96975881 8.75161743 149.00457764 C7.04886682 149.99271759 5.34766189 150.98351949 3.64648438 151.97436523 C2.61628174 152.57104004 1.5860791 153.16771484 0.5246582 153.7824707 C-0.38340576 154.31018066 -1.29146973 154.83789062 -2.22705078 155.3815918 C-4.54174805 156.6340332 -4.54174805 156.6340332 -7.54174805 157.6340332 C-9.85644531 156.60864258 -9.85644531 156.60864258 -12.6081543 154.9777832 C-13.6381958 154.37474365 -14.6682373 153.7717041 -15.72949219 153.15039062 C-16.84316162 152.48499268 -17.95683105 151.81959473 -19.10424805 151.1340332 C-20.26825339 150.44847889 -21.43289586 149.7640053 -22.59814453 149.08056641 C-25.02841935 147.65410752 -27.45585068 146.22297203 -29.8815918 144.78881836 C-35.59433701 141.41770045 -41.35213283 138.12488957 -47.10424805 134.8215332 C-50.0704195 133.1157385 -53.03223731 131.41012561 -55.96510315 129.64756775 C-58.51450671 128.15664786 -61.10037868 126.91596686 -63.80075073 125.72218323 C-75.00732299 120.47028201 -75.00732299 120.47028201 -77.56345177 115.74550438 C-79.22577107 110.42909148 -79.1037164 104.94921741 -79.0456543 99.4309082 C-79.07495323 97.66263048 -79.10822474 95.89441459 -79.14524841 94.12628174 C-79.20170143 90.42913581 -79.19369775 86.73891063 -79.14257812 83.04174805 C-79.09639332 79.26917406 -79.14470284 75.51798727 -79.28613281 71.74780273 C-80.40593144 41.73847314 -80.40593144 41.73847314 -74.26815796 33.63070679 C-68.66218226 28.81030924 -62.35862735 26.10257966 -55.43069458 23.68341064 C-51.66314513 22.31489054 -48.57484668 20.49317686 -45.1784668 18.37231445 C-42.11942052 16.60840006 -39.05816068 14.84852368 -35.99414062 13.09326172 C-30.91068533 10.17653754 -25.85297505 7.23314623 -20.85424805 4.1730957 C-19.54774292 3.38358521 -19.54774292 3.38358521 -18.21484375 2.578125 C-16.60519178 1.60246816 -15.0040553 0.61256304 -13.41357422 -0.39404297 C-12.70692627 -0.81919189 -12.00027832 -1.24434082 -11.2722168 -1.68237305 C-10.66788818 -2.05821533 -10.06355957 -2.43405762 -9.44091797 -2.82128906 C-5.88082053 -3.84231714 -3.09531071 -1.66345821 0 0 Z " fill="#3A44C8" transform="translate(166.541748046875,257.365966796875)"></path><path d="M0 0 C0.89589844 0.19335938 1.79179687 0.38671875 2.71484375 0.5859375 C28.96472693 7.31219708 52.98611739 27.65488559 66.8125 50.5 C77.25228397 68.39024276 84 88.15309655 84 109 C24.93 109 -34.14 109 -95 109 C-95 79.96 -95 50.92 -95 21 C-77.41269074 9.27512716 -77.41269074 9.27512716 -71.6875 6.6875 C-70.9972876 6.369021 -70.3070752 6.05054199 -69.59594727 5.72241211 C-47.31088173 -4.16509984 -23.59792101 -5.35520159 0 0 Z " fill="#4053D5" transform="translate(337,269)"></path><path d="M0 0 C1.73489361 1.21286724 3.44415895 2.4632692 5.125 3.75 C6.40117187 4.71873047 6.40117187 4.71873047 7.703125 5.70703125 C18.73349068 14.82569245 26.07246351 27.48731757 28.875 41.5 C28.98713911 42.91467795 29.06552564 44.33213129 29.125 45.75 C29.18816406 46.82765625 29.25132812 47.9053125 29.31640625 49.015625 C29.87648976 66.28787788 25.17702048 81.79277102 13.8125 95.125 C2.95406627 106.44120918 -11.86173353 114.41315311 -27.70703125 115.05078125 C-47.09348288 115.28161814 -62.37338012 110.76717028 -76.625 97.171875 C-80.50361977 92.99697177 -83.78707944 88.53268627 -86.875 83.75 C-87.48988281 82.80253906 -87.48988281 82.80253906 -88.1171875 81.8359375 C-95.50551532 68.8347715 -96.68426368 52.43356644 -93.3125 38.1875 C-88.5290422 22.06423663 -78.91417795 9.05619762 -64.875 -0.25 C-44.28525552 -11.29336712 -20.36605167 -12.16857405 0 0 Z " fill="#445DDF" transform="translate(342.875,138.25)"></path><path d="M0 0 C11.47440826 10.16524759 18.24751896 22.86708902 19.6015625 38.1484375 C20.09305066 54.06509239 14.55273436 68.61927016 3.91796875 80.5234375 C1.28215139 83.07506413 -1.61321167 85.0437822 -4.671875 87.0625 C-1.98798263 88.85176158 0.44486381 90.04094841 3.390625 91.3125 C18.32609064 98.05434135 18.32609064 98.05434135 20.28515625 101.98046875 C20.34567886 104.91306416 19.22254405 106.06933382 17.390625 108.3125 C16.82472656 109.01890625 16.25882813 109.7253125 15.67578125 110.453125 C15.23105469 110.98421875 14.78632813 111.5153125 14.328125 112.0625 C11.83728139 110.83604401 9.38233996 109.56025553 6.9296875 108.2578125 C-13.98668522 97.28550577 -35.69304456 93.7194647 -58.66308594 100.66455078 C-67.71999565 103.66181763 -75.26829102 108.00725085 -82.671875 114.0625 C-83.32671875 114.55492187 -83.9815625 115.04734375 -84.65625 115.5546875 C-100.0795866 127.63402634 -107.66270844 150.20366373 -110.1953125 168.93359375 C-110.43099996 171.63762965 -110.5662037 174.35026986 -110.671875 177.0625 C-114.961875 177.0625 -119.251875 177.0625 -123.671875 177.0625 C-122.88844105 149.79899848 -113.01334669 124.03977277 -93.25390625 104.6953125 C-87.84818313 99.96837155 -82.03374308 96.38383642 -75.734375 93 C-75.00025391 92.60538574 -74.26613281 92.21077148 -73.50976562 91.80419922 C-69.78037128 89.88354391 -68.02030281 89.0625 -63.671875 89.0625 C-63.671875 88.4025 -63.671875 87.7425 -63.671875 87.0625 C-64.76048828 86.69511719 -64.76048828 86.69511719 -65.87109375 86.3203125 C-76.78194397 81.42032119 -82.45085041 69.60273531 -86.671875 59.0625 C-91.04582974 46.66962823 -90.10099662 30.93268011 -84.671875 19.0625 C-77.20928904 4.6206562 -66.05519723 -4.17455729 -51.19140625 -10.17578125 C-33.07839449 -15.65180806 -14.6427446 -11.57390591 0 0 Z " fill="#FBFBFE" transform="translate(200.671875,88.9375)"></path><path d="M0 0 C9.39359867 5.84784593 16.48706924 14.68880752 19.5625 25.43359375 C21.77656848 38.42147761 19.70655998 49.90420732 12.375 60.8125 C8.27224387 66.08530139 3.79507947 69.71909347 -2 73 C-2.73476562 73.433125 -3.46953125 73.86625 -4.2265625 74.3125 C-13.51285785 78.90778017 -26.33780802 78.60144908 -36.0625 75.4375 C-46.7640267 70.76684899 -55.89299052 62.10013973 -60.22265625 51.2109375 C-63.92848947 40.67072845 -64.39175994 30.46757819 -60 20 C-54.29824871 8.49282922 -46.15051907 0.76331207 -34.2265625 -4.140625 C-22.80767925 -7.18197405 -10.2827941 -5.68186736 0 0 Z " fill="#4256D8" transform="translate(187,95)"></path><path d="M0 0 C2.29374322 1.17086474 3.21277251 2.36999099 4.6171875 4.515625 C5.04515625 5.15628906 5.473125 5.79695313 5.9140625 6.45703125 C6.38585937 7.19759766 6.38585937 7.19759766 6.8671875 7.953125 C5.28132143 12.33512334 1.84071682 14.82214698 -1.6328125 17.703125 C-2.58546997 18.50580811 -2.58546997 18.50580811 -3.55737305 19.32470703 C-7.76443369 22.85568043 -12.02789154 26.31173326 -16.3359375 29.71875 C-19.98640351 32.63504407 -23.59014911 35.60613669 -27.1953125 38.578125 C-27.91396484 39.16779053 -28.63261719 39.75745605 -29.37304688 40.36499023 C-33.23749529 43.54088126 -37.07091971 46.746721 -40.8671875 50.00390625 C-42.01755493 50.98012939 -42.01755493 50.98012939 -43.19116211 51.97607422 C-44.66953688 53.23172406 -46.13947126 54.49739448 -47.59985352 55.77392578 C-48.26686279 56.33708496 -48.93387207 56.90024414 -49.62109375 57.48046875 C-50.20415283 57.98312256 -50.78721191 58.48577637 -51.38793945 59.00366211 C-53.1328125 59.953125 -53.1328125 59.953125 -55.10766602 59.77661133 C-57.38287255 58.85144296 -59.08588282 57.73019268 -61.046875 56.25 C-61.7999292 55.68748535 -62.5529834 55.1249707 -63.32885742 54.54541016 C-64.1304126 53.93745605 -64.93196777 53.32950195 -65.7578125 52.703125 C-67.453803 51.43406137 -69.15043489 50.16585453 -70.84765625 48.8984375 C-71.71632324 48.2477832 -72.58499023 47.59712891 -73.47998047 46.92675781 C-77.72814798 43.76624004 -82.0226256 40.67079628 -86.3203125 37.578125 C-87.10422363 37.01319336 -87.88813477 36.44826172 -88.69580078 35.86621094 C-90.50752135 34.5609885 -92.31982589 33.25658799 -94.1328125 31.953125 C-92.45884945 27.36146 -90.33898224 24.58115918 -87.1328125 20.953125 C-81.53989109 23.96299981 -76.62901748 27.48035723 -71.6328125 31.390625 C-69.4845031 33.06046477 -67.33443876 34.72706912 -65.171875 36.37841797 C-63.8352312 37.41066803 -62.51641874 38.4665244 -61.21875 39.54736328 C-59.24615216 41.18826425 -59.24615216 41.18826425 -56.1328125 42.953125 C-52.02587993 42.27165161 -49.64185453 39.83960723 -46.6953125 37.015625 C-42.7302698 33.33841503 -38.65889734 29.94018298 -34.3828125 26.640625 C-29.45606352 22.8271706 -24.65897571 18.90214164 -19.9453125 14.828125 C-19.36765137 14.33119141 -18.78999023 13.83425781 -18.19482422 13.32226562 C-15.96193696 11.40022261 -13.73008505 9.47751983 -11.51611328 7.53369141 C-10.02303669 6.22486484 -8.51575853 4.93229192 -7.0078125 3.640625 C-6.15960938 2.90199219 -5.31140625 2.16335938 -4.4375 1.40234375 C-2.1328125 -0.046875 -2.1328125 -0.046875 0 0 Z " fill="#FAFBFD" transform="translate(208.1328125,307.046875)"></path></svg>