<svg version="1.1" xmlns="http://www.w3.org/2000/svg" width="16px" height="16px" fill="currentColor" viewBox="0 0 512 512"><path d="M0 0 C168.96 0 337.92 0 512 0 C512 168.96 512 337.92 512 512 C343.04 512 174.08 512 0 512 C0 343.04 0 174.08 0 0 Z " fill="#3F52D5" transform="translate(0,0)"></path><path d="M0 0 C3.30306296 0.02375247 6.60531921 0.02050227 9.90844727 0.01391602 C28.06244097 0.03682209 46.19461512 0.93255495 64.04321289 4.46118164 C65.11603516 4.67145996 66.18885742 4.88173828 67.29418945 5.09838867 C89.15970651 9.6443344 115.27056199 17.49113316 128.94946289 36.37915039 C131.36932187 40.47492522 132.35590036 43.92265753 132.33276367 48.67724609 C132.33253708 50.23829826 132.33253708 50.23829826 132.33230591 51.83088684 C132.32198334 52.94251694 132.31166077 54.05414703 132.30102539 55.19946289 C132.2981955 56.34658249 132.2953656 57.49370209 132.29244995 58.67558289 C132.28126986 62.33338932 132.25616884 65.99094942 132.23071289 69.64868164 C132.2206803 72.13109998 132.21155494 74.61352215 132.20336914 77.09594727 C132.18133756 83.17612006 132.14682224 89.25610911 132.10571289 95.33618164 C128.14571289 95.33618164 124.18571289 95.33618164 120.10571289 95.33618164 C119.77571289 88.73618164 119.44571289 82.13618164 119.10571289 75.33618164 C117.84758789 76.32618164 116.58946289 77.31618164 115.29321289 78.33618164 C105.04657217 85.52783248 92.23077491 90.38539221 80.10571289 93.33618164 C79.16646973 93.56748779 79.16646973 93.56748779 78.20825195 93.8034668 C73.18593542 95.03424579 68.15594239 96.22520939 63.10571289 97.33618164 C62.34863037 97.50408203 61.59154785 97.67198242 60.81152344 97.8449707 C13.13879205 107.93617318 -53.98360721 108.25109801 -96.45678711 81.46118164 C-97.94724995 80.4357432 -99.42893788 79.39719772 -100.89428711 78.33618164 C-101.88428711 77.67618164 -102.87428711 77.01618164 -103.89428711 76.33618164 C-103.85618359 85.99431959 -103.79675443 95.65202581 -103.71038437 105.30985355 C-103.67093944 109.79479968 -103.63873641 114.27955035 -103.62329102 118.76464844 C-103.60810463 123.09615483 -103.57362433 127.42712376 -103.52597809 131.75839043 C-103.51118464 133.40767167 -103.50324726 135.05702966 -103.50240326 136.70637703 C-103.50002559 139.02374135 -103.47288481 141.33962991 -103.44018555 143.65673828 C-103.4313031 144.97356094 -103.42242065 146.29038361 -103.41326904 147.64710999 C-102.51531825 154.03000043 -99.24969644 158.7474597 -94.24975586 162.73461914 C-84.27055467 169.51981398 -73.50917247 174.12584714 -61.89428711 177.33618164 C-60.94803467 177.60640137 -60.94803467 177.60640137 -59.98266602 177.88208008 C-20.89774292 188.74063947 24.33436864 186.65947327 63.71508789 178.88696289 C66.91734226 178.36678102 69.86918307 178.23193758 73.10571289 178.33618164 C73.61131197 179.77172189 74.10998779 181.20970184 74.60571289 182.64868164 C75.02336914 183.84944336 75.02336914 183.84944336 75.44946289 185.07446289 C76.10571289 187.33618164 76.10571289 187.33618164 76.10571289 190.33618164 C40.51852521 199.86665355 1.53654953 201.13109505 -34.89428711 196.33618164 C-35.68818848 196.23966309 -36.48208984 196.14314453 -37.30004883 196.04370117 C-53.36720278 194.05530516 -68.90762238 189.93400188 -83.95678711 183.96118164 C-84.90062256 183.59621582 -84.90062256 183.59621582 -85.86352539 183.22387695 C-90.3047047 181.3652082 -94.16281947 178.89446158 -98.15380859 176.20483398 C-99.23009018 175.4812973 -100.30637177 174.75776062 -101.41526794 174.01229858 C-102.64238243 173.1826207 -102.64238243 173.1826207 -103.89428711 172.33618164 C-103.83299223 181.22925312 -103.75582609 190.12200572 -103.6585722 199.01475716 C-103.61390478 203.14433962 -103.57464084 207.27382425 -103.54785156 211.40356445 C-103.52178211 215.39136661 -103.48135441 219.37879157 -103.43110085 223.36635971 C-103.41445665 224.88528617 -103.40292714 226.40427784 -103.3966732 227.92328262 C-103.38700503 230.05626927 -103.35891585 232.18829632 -103.32666016 234.32104492 C-103.3155571 235.53349884 -103.30445404 236.74595276 -103.29301453 237.99514771 C-102.46583013 244.92632681 -98.85358244 248.9905676 -93.71069336 253.32446289 C-76.12547183 265.88533541 -52.76458553 269.4565765 -31.89428711 272.33618164 C-30.72099854 272.51270264 -29.54770996 272.68922363 -28.33886719 272.87109375 C-22.72562204 273.5605298 -17.10105881 273.51812713 -11.45288086 273.53930664 C-10.25357437 273.54500671 -9.05426788 273.55070679 -7.81861877 273.55657959 C-5.27947868 273.56600298 -2.74032651 273.57255296 -0.20117188 273.57641602 C3.60382825 273.58601915 7.40826353 273.6170259 11.21313477 273.64868164 C30.35692635 273.73136153 48.90343503 272.32330869 67.55883789 267.88696289 C70.10571289 267.33618164 70.10571289 267.33618164 73.10571289 267.33618164 C73.61083533 268.93874272 74.10962916 270.54329956 74.60571289 272.14868164 C75.02336914 273.48866211 75.02336914 273.48866211 75.44946289 274.85571289 C76.10571289 277.33618164 76.10571289 277.33618164 76.10571289 280.33618164 C67.98514033 282.26055262 59.86116664 283.7638372 51.60571289 284.96118164 C50.36301636 285.14547729 50.36301636 285.14547729 49.09521484 285.33349609 C34.94453482 287.32212919 20.84879858 287.52258809 6.58544922 287.52148438 C3.44167416 287.52366536 0.29825414 287.54186927 -2.84545898 287.56079102 C-15.32710661 287.59587267 -27.52259864 287.00198131 -39.89428711 285.33618164 C-40.93335205 285.20074951 -41.97241699 285.06531738 -43.04296875 284.92578125 C-64.60135725 281.87467617 -84.74239852 275.4374407 -102.89428711 263.33618164 C-103.03379008 272.04668168 -103.14016049 280.75679261 -103.20516014 289.46816921 C-103.23636955 293.51401384 -103.27864786 297.55908984 -103.34692383 301.60449219 C-103.41249368 305.51437406 -103.44807116 309.4235204 -103.46355057 313.33390999 C-103.47457019 314.81982046 -103.49608892 316.30569422 -103.52866745 317.79128838 C-103.7168938 326.73664225 -103.296997 333.54320067 -96.89428711 340.33618164 C-65.77645233 367.71015192 -7.90670094 365.55615504 30.60772705 363.1819458 C57.98584145 361.13735838 92.51679304 356.11076546 114.10571289 337.33618164 C118.22749683 331.72597572 119.27957985 327.47205847 119.66821289 320.64868164 C119.73298828 319.59583984 119.73298828 319.59583984 119.79907227 318.52172852 C119.90488649 316.79342958 120.0057787 315.06483054 120.10571289 313.33618164 C124.06571289 313.33618164 128.02571289 313.33618164 132.10571289 313.33618164 C132.886445 334.65450561 132.886445 334.65450561 128.10571289 341.33618164 C127.61973633 342.01551758 127.13375977 342.69485352 126.63305664 343.39477539 C108.04401119 366.64206864 70.24148166 372.43454247 42.51879883 375.67651367 C-4.57995716 380.68740085 -63.28989666 381.40407622 -103.32006836 352.59008789 C-109.86134272 347.25605438 -114.73821911 340.53774104 -116.89428711 332.33618164 C-117.194905 328.47845958 -117.18129272 324.62972822 -117.1751709 320.7618103 C-117.18111314 319.58908746 -117.18705539 318.41636462 -117.1931777 317.20810473 C-117.2075052 313.96114083 -117.21289373 310.71430611 -117.21437263 307.46731544 C-117.21808345 303.9620222 -117.23318304 300.4567744 -117.24664307 296.95150757 C-117.27377203 289.29015079 -117.2858534 281.628815 -117.29466438 273.96741819 C-117.30019593 269.18019513 -117.30867189 264.39298011 -117.31767273 259.60576248 C-117.34205375 246.34168951 -117.36265284 233.07762296 -117.36942291 219.81352806 C-117.36986204 218.96508549 -117.37030118 218.11664292 -117.37075362 217.24248997 C-117.37119017 216.39205906 -117.37162673 215.54162815 -117.37207651 214.66542661 C-117.37296343 212.94223427 -117.37385656 211.21904194 -117.37475586 209.49584961 C-117.37519872 208.64109329 -117.37564158 207.78633697 -117.37609786 206.90567894 C-117.38398999 193.06277011 -117.4188881 179.22007208 -117.4654749 165.37724464 C-117.51295946 151.15239226 -117.53782924 136.92764554 -117.54015875 122.70271266 C-117.54198912 114.7210171 -117.55341405 106.73959621 -117.58979797 98.75797653 C-117.62067808 91.95995649 -117.63079551 85.162296 -117.61432177 78.36421911 C-117.60653555 74.89921381 -117.60823243 71.43493166 -117.63643646 67.97001648 C-117.66191473 64.20354597 -117.65010341 60.43891418 -117.62927246 56.67245483 C-117.64538527 55.59090854 -117.66149808 54.50936225 -117.67809916 53.39504182 C-117.55499364 43.83582838 -114.15363608 35.63988205 -107.70678711 28.52368164 C-95.47317453 17.5160956 -79.611122 11.30856848 -63.89428711 7.33618164 C-62.72124023 6.99844727 -61.54819336 6.66071289 -60.33959961 6.31274414 C-40.66035323 0.87128932 -20.32030289 -0.15546247 0 0 Z " fill="#FBFBFE" transform="translate(193.894287109375,70.663818359375)"></path><path d="M0 0 C33.90585567 -0.6986821 68.10977892 1.67386228 99.65820312 15.08251953 C100.80933594 15.56591797 101.96046875 16.04931641 103.14648438 16.54736328 C111.29954138 20.28720264 118.63166187 25.54270765 123.65820312 33.08251953 C124.36251938 37.84074912 124.2133327 41.90286918 122.15820312 46.27001953 C101.43103655 69.58808193 64.21610736 74.60380386 34.62695312 76.73095703 C-5.99737691 79.09142913 -57.58831047 80.42259462 -91.34179688 54.08251953 C-96.3360427 49.26632169 -99.41121272 45.50015904 -99.77929688 38.39501953 C-99.69351544 33.46973539 -98.55599804 30.71800788 -95.34570312 27.01611328 C-75.4801878 7.84763358 -45.68122289 3.56373399 -19.34179688 1.08251953 C-18.04113281 0.95103516 -16.74046875 0.81955078 -15.40039062 0.68408203 C-10.2671123 0.26710882 -5.14626083 0.12707745 0 0 Z " fill="#435ADC" transform="translate(189.341796875,82.91748046875)"></path><path d="M0 0 C0.85907959 -0.00563965 1.71815918 -0.0112793 2.60327148 -0.01708984 C12.59364079 0.09616441 21.04485937 2.39422544 30.1875 6.3125 C30.1875 10.2725 30.1875 14.2325 30.1875 18.3125 C27.58333333 17.82421875 24.97916667 17.3359375 22.375 16.84765625 C14.63076218 15.54745946 7.16005875 15.10168881 -0.6875 15.0625 C-1.71230469 15.041875 -2.73710937 15.02125 -3.79296875 15 C-14.68493634 14.94464057 -24.11211898 17.58284287 -32.8125 24.3125 C-45.76636272 37.68030194 -46.31844991 56.16398183 -46.23364258 73.77099609 C-45.93230522 87.428286 -43.57485252 101.60040081 -34.15234375 112.17578125 C-24.6359476 120.91178956 -13.79160258 122.68325912 -1.3125 122.625 C-0.15790283 122.62298584 0.99669434 122.62097168 2.1862793 122.61889648 C10.89704212 122.5168912 18.77721888 121.5329983 27.1875 119.3125 C28.8375 118.9825 30.4875 118.6525 32.1875 118.3125 C32.1875 122.2725 32.1875 126.2325 32.1875 130.3125 C14.05613939 138.55402755 -7.41006048 140.72360235 -26.6875 134.5703125 C-39.24042401 129.51776059 -48.64943995 121.35504371 -54.8125 109.3125 C-55.19148438 108.60480469 -55.57046875 107.89710938 -55.9609375 107.16796875 C-65.42663742 87.98747155 -65.60758797 60.66066602 -59.8125 40.3125 C-54.7249825 25.41994878 -46.17173163 13.62093697 -32.1875 6 C-21.75662111 1.18473893 -11.33178002 0.0701286 0 0 Z " fill="#FBFBFE" transform="translate(338.8125,210.6875)"></path><path d="M0 0 C0.9796875 -0.00257813 1.959375 -0.00515625 2.96875 -0.0078125 C5.5 0.125 5.5 0.125 7.5 1.125 C7.35823579 3.83360124 7.21171784 6.54180752 7.0625 9.25 C7.02318359 10.01054687 6.98386719 10.77109375 6.94335938 11.5546875 C6.70490998 15.81009203 6.29769763 19.92870826 5.5 24.125 C6.0347998 23.85236328 6.56959961 23.57972656 7.12060547 23.29882812 C9.53665007 22.07006386 11.95576347 20.84746702 14.375 19.625 C15.21675781 19.19574219 16.05851562 18.76648438 16.92578125 18.32421875 C17.73144531 17.91816406 18.53710938 17.51210937 19.3671875 17.09375 C20.11081543 16.71669922 20.85444336 16.33964844 21.62060547 15.95117188 C23.5 15.125 23.5 15.125 25.5 15.125 C28.83031797 20.22454939 29.73998753 22.87782471 29.5 29.125 C26.75124318 29.79718507 24.00119274 30.46292435 21.25 31.125 C20.47269531 31.31578125 19.69539063 31.5065625 18.89453125 31.703125 C17.76337891 31.97382813 17.76337891 31.97382813 16.609375 32.25 C15.57248535 32.50136719 15.57248535 32.50136719 14.51464844 32.7578125 C12.5 33.125 12.5 33.125 8.5 33.125 C13.76571414 39.1864973 19.11662147 45.16788271 24.5 51.125 C22.90056984 54.47117626 21.42753158 56.76671067 18.5 59.125 C16.50999869 59.51359478 14.50929433 59.85325118 12.5 60.125 C4.05353075 46.4917426 4.05353075 46.4917426 0.5 40.125 C-3.97821202 46.55647471 -7.84667572 53.1940479 -11.5 60.125 C-16.34521939 59.45484517 -19.01814609 58.70633545 -22.5 55.125 C-23.75 52.8125 -23.75 52.8125 -23.5 50.125 C-22.0163036 48.28804256 -20.37021705 46.76227441 -18.625 45.171875 C-14.8324822 41.518788 -11.71935943 37.28090036 -8.5 33.125 C-9.5725 33.021875 -10.645 32.91875 -11.75 32.8125 C-17.45287077 32.1150266 -22.95572761 30.59423218 -28.5 29.125 C-28.63657216 27.73196395 -28.73271149 26.33493879 -28.8125 24.9375 C-28.89951172 23.77154297 -28.89951172 23.77154297 -28.98828125 22.58203125 C-28.27876033 19.011722 -26.15927743 17.48275306 -23.5 15.125 C-22.53578125 15.61871094 -21.5715625 16.11242187 -20.578125 16.62109375 C-19.30219148 17.26844237 -18.02614379 17.91556599 -16.75 18.5625 C-16.11578125 18.88798828 -15.4815625 19.21347656 -14.828125 19.54882812 C-11.73965114 21.10915086 -8.87251074 22.37232279 -5.5 23.125 C-5.7165625 21.37123047 -5.7165625 21.37123047 -5.9375 19.58203125 C-6.12515554 18.03387301 -6.3126469 16.48569487 -6.5 14.9375 C-6.59539062 14.16857422 -6.69078125 13.39964844 -6.7890625 12.60742188 C-7.25192894 8.75571189 -7.62467468 5.01329149 -7.5 1.125 C-4.89080172 -0.17959914 -2.91057385 -0.0076594 0 0 Z " fill="#F9FAFE" transform="translate(406.5,156.875)"></path></svg>