<svg version="1.1" xmlns="http://www.w3.org/2000/svg" width="16px" height="16px" fill="currentColor" viewBox="0 0 512 512"><path d="M0 0 C168.96 0 337.92 0 512 0 C512 168.96 512 337.92 512 512 C343.04 512 174.08 512 0 512 C0 343.04 0 174.08 0 0 Z " fill="#7746D3" transform="translate(0,0)"></path><path d="M0 0 C0.7551982 -0.00538554 1.5103964 -0.01077108 2.28847939 -0.01631981 C4.82660358 -0.03066158 7.3642108 -0.02348055 9.90235901 -0.01637268 C11.71895265 -0.02207302 13.5355427 -0.02903597 15.35212708 -0.03717041 C20.2921945 -0.05515436 25.23208481 -0.0539236 30.17217517 -0.04822803 C34.292636 -0.04514366 38.41306243 -0.05122024 42.53351837 -0.05726677 C52.25236008 -0.07132765 61.97111391 -0.06973778 71.68995667 -0.05836487 C81.72441819 -0.04688226 91.75861249 -0.06095819 101.79303879 -0.08776134 C110.40117766 -0.10989586 119.00923252 -0.11656079 127.61739784 -0.11068493 C132.76178607 -0.10730874 137.90600299 -0.10977426 143.05036736 -0.12693596 C147.88738909 -0.14236719 152.72401406 -0.13849218 157.5610199 -0.11963081 C159.3379922 -0.11593428 161.11499364 -0.11908424 162.89193916 -0.1295166 C165.31465159 -0.14265607 167.73603683 -0.13124298 170.15869141 -0.11352539 C170.86481912 -0.1231304 171.57094683 -0.1327354 172.29847234 -0.14263147 C175.52618378 -0.09393718 177.39442692 0.21706359 180.07885075 2.06081295 C182.02873528 4.96181073 182.14560302 6.63586177 182.15077209 10.11875916 C182.16205139 11.28804459 182.17333069 12.45733002 182.18495178 13.66204834 C182.17685486 14.94113571 182.16875793 16.22022308 182.16041565 17.53807068 C182.16583705 18.90161893 182.17295982 20.26516133 182.18165588 21.62869263 C182.19989048 25.32916565 182.19282147 29.02919257 182.18013954 32.72967339 C182.17001244 36.60221941 182.17940441 40.47472725 182.1856842 44.34727478 C182.19296148 50.85055906 182.18337091 57.35366164 182.1643219 63.85691833 C182.14255285 71.37561113 182.14960418 78.89387007 182.17162752 86.41255236 C182.18977934 92.86788157 182.19234096 99.32308016 182.18187284 105.77842665 C182.17563665 109.63395264 182.17480556 113.4892747 182.1880188 117.3447876 C182.19957368 120.96960573 182.19155905 124.59386451 182.16844177 128.21862221 C182.16062947 130.1835109 182.17251373 132.14844691 182.18495178 134.11331177 C182.17367249 135.2825972 182.16239319 136.45188263 182.15077209 137.65660095 C182.14926399 138.6727523 182.14775589 139.68890366 182.14620209 140.73584747 C181.48036503 144.24362001 180.58343421 145.36798287 177.64283752 147.38768005 C175.00798414 147.77870351 172.79106513 147.92469201 170.15869141 147.8888855 C169.40193322 147.89441989 168.64517503 147.89995429 167.86548477 147.9056564 C165.32796365 147.91927732 162.79142366 147.90428659 160.25392151 147.88938904 C158.43555788 147.89317167 156.61719712 147.89867125 154.79884338 147.90576172 C149.85883151 147.9197399 144.91916701 147.90853042 139.97917438 147.8920505 C134.81424853 147.87821711 129.64934319 147.88465805 124.48440552 147.88818359 C115.81132904 147.89088683 107.13839086 147.87739952 98.46534729 147.85423279 C88.43030847 147.82761398 78.3955008 147.8258782 68.36043876 147.83762115 C58.71539116 147.84839001 49.07042737 147.84221942 39.42538643 147.82806587 C35.31657498 147.82229916 31.20782474 147.8223941 27.09901237 147.82713127 C22.26365882 147.83189404 17.4285593 147.82182853 12.59325409 147.80017662 C10.81586883 147.79459932 9.0384592 147.79415207 7.26107216 147.79912949 C4.84043031 147.80505953 2.42057118 147.7926219 0 147.77536011 C-1.06253765 147.78437518 -1.06253765 147.78437518 -2.1465407 147.79357237 C-4.89243131 147.75780463 -6.9133571 147.65551738 -9.2931757 146.21929264 C-10.79467845 143.63451302 -10.73484556 141.67902821 -10.7381134 138.69419861 C-10.74657288 137.50801437 -10.75503235 136.32183014 -10.76374817 135.09970093 C-10.75767548 133.79674576 -10.75160278 132.49379059 -10.74534607 131.15135193 C-10.74941073 129.76662786 -10.75475202 128.38190704 -10.76127625 126.99719238 C-10.77496839 123.23481121 -10.76964349 119.47267646 -10.76013899 115.71029091 C-10.75255217 111.77588351 -10.75958528 107.84149744 -10.76429749 103.90708923 C-10.7697579 97.29950669 -10.76255597 90.69202468 -10.74827576 84.0844574 C-10.73194864 76.44143158 -10.73723695 68.79864582 -10.75375497 61.15562582 C-10.76736174 54.59759002 -10.76929349 48.03962656 -10.76143897 41.48158121 C-10.75675797 37.56294729 -10.75614923 33.64442626 -10.76604843 29.72579956 C-10.77470412 26.04199402 -10.76872214 22.35849848 -10.75136566 18.67472649 C-10.74549587 16.67504174 -10.75442828 14.67533082 -10.76374817 12.67565918 C-10.7552887 11.48947495 -10.74682922 10.30329071 -10.7381134 9.0811615 C-10.73698233 8.04804085 -10.73585125 7.0149202 -10.7346859 5.95049286 C-10.35716248 3.38768005 -10.35716248 3.38768005 -9.2931757 1.55606747 C-6.32847011 -0.23313761 -3.36161595 -0.02852153 0 0 Z " fill="#FCFBFE" transform="translate(247.35716247558594,287.61231994628906)"></path><path d="M0 0 C54.78 0 109.56 0 166 0 C166 39.93 166 79.86 166 121 C161.71 121 157.42 121 153 121 C152.99413376 119.76416168 152.98826752 118.52832336 152.98222351 117.2550354 C152.92510385 105.62977413 152.85239909 94.00470186 152.76428509 82.37963295 C152.7194856 76.4025163 152.68025078 70.42546933 152.65356445 64.44824219 C152.62762685 58.68394209 152.58729274 52.91990878 152.53681374 47.15577316 C152.52008022 44.95250126 152.50860652 42.74918314 152.50238609 40.54585648 C152.4928153 37.46859769 152.46484097 34.39203154 152.43237305 31.31494141 C152.43380814 30.39640884 152.43524323 29.47787628 152.4367218 28.5315094 C152.42418365 27.69575882 152.41164551 26.86000824 152.39872742 25.99893188 C152.39181397 24.9066072 152.39181397 24.9066072 152.38476086 23.79221535 C152.12806315 21.58192757 152.12806315 21.58192757 149 20 C145.73356737 19.68969215 145.73356737 19.68969215 141.99609375 19.734375 C141.31700455 19.73246155 140.63791534 19.7305481 139.93824768 19.72857666 C138.50513335 19.72721753 137.07200659 19.73089504 135.63891602 19.73925781 C133.44194015 19.74997833 131.24577886 19.73934547 129.04882812 19.7265625 C127.65624819 19.72788382 126.26366877 19.73044564 124.87109375 19.734375 C122.96734985 19.73775879 122.96734985 19.73775879 121.02514648 19.74121094 C117.88813003 19.68236093 117.88813003 19.68236093 116 22 C115.68743474 23.85429037 115.68743474 23.85429037 115.7215271 25.99893188 C115.71036362 26.83468246 115.69920013 27.67043304 115.68769836 28.5315094 C115.68553818 29.45004196 115.68337799 30.36857452 115.68115234 31.31494141 C115.67110672 32.28083694 115.6610611 33.24673248 115.65071106 34.24189758 C115.61973827 37.44511298 115.60280483 40.64824428 115.5859375 43.8515625 C115.56723719 46.06831595 115.54766465 48.28506219 115.5272522 50.50180054 C115.4758049 56.34448003 115.43624671 62.18718263 115.39910889 68.02996826 C115.35914804 73.98878759 115.30801968 79.94750975 115.2578125 85.90625 C115.16090412 97.60409853 115.07654722 109.30200177 115 121 C110.71 121 106.42 121 102 121 C101.67 94.27 101.34 67.54 101 40 C95.89871168 38.29957056 90.46032393 38.81407585 85.12109375 38.81469727 C83.00760855 38.81250788 80.8946431 38.79433048 78.78125 38.77539062 C77.43750178 38.77245698 76.09375109 38.77047199 74.75 38.76953125 C73.52796875 38.76542236 72.3059375 38.76131348 71.046875 38.75708008 C67.82484192 38.76518122 67.82484192 38.76518122 65 41 C64.68380955 43.62925352 64.56258838 46.02858854 64.56762695 48.66259766 C64.5574353 49.45292892 64.54724365 50.24326019 64.53674316 51.05754089 C64.50648792 53.67645236 64.49732834 56.29499886 64.48828125 58.9140625 C64.47144381 60.72725655 64.45329485 62.54043886 64.43388367 64.35360718 C64.38627583 69.13098482 64.3565364 73.9083149 64.33044434 78.68585205 C64.30069303 83.55889283 64.25414418 88.43176947 64.20898438 93.3046875 C64.12282869 102.869706 64.05553815 112.43475817 64 122 C59.71 122 55.42 122 51 122 C50.9906543 120.16783936 50.98130859 118.33567871 50.97167969 116.44799805 C50.93616947 110.39685161 50.88238312 104.34608406 50.81609726 98.29519939 C50.77657492 94.62622466 50.74441026 90.95749162 50.72900391 87.28833008 C50.71386791 83.74781155 50.67947887 80.20795727 50.63169098 76.66773415 C50.60961645 74.65869347 50.60752363 72.64946564 50.60565186 70.64030457 C50.58593323 69.41926529 50.5662146 68.19822601 50.54589844 66.94018555 C50.53701599 65.86318893 50.52813354 64.78619232 50.51898193 63.67655945 C50.23831235 60.89470229 50.23831235 60.89470229 48.15667725 59.1539917 C43.72830005 56.78446212 38.43653125 57.52231301 33.52783203 57.55395508 C31.50580367 57.56247554 29.48659393 57.5336736 27.46484375 57.50195312 C25.54865234 57.50291992 25.54865234 57.50291992 23.59375 57.50390625 C22.42521484 57.50205322 21.25667969 57.5002002 20.05273438 57.49829102 C16.28849988 58.1169332 15.33838924 59.03721569 13 62 C12.38661897 64.77484218 12.38661897 64.77484218 12.45410156 67.87011719 C12.42452362 69.64150055 12.42452362 69.64150055 12.39434814 71.44866943 C12.39250519 73.35353119 12.39250519 73.35353119 12.390625 75.296875 C12.37408875 76.60078186 12.35755249 77.90468872 12.34051514 79.24810791 C12.29687061 82.70701979 12.27684946 86.16567822 12.26177979 89.62481689 C12.24219784 93.15758229 12.20022922 96.69007438 12.16015625 100.22265625 C12.08488594 107.14836151 12.03664559 114.07398375 12 121 C8.04 121 4.08 121 0 121 C0 81.07 0 41.14 0 0 Z " fill="#7646D2" transform="translate(250,301)"></path><path d="M0 0 C4.29 0 8.58 0 13 0 C13.20625 1.4025 13.4125 2.805 13.625 4.25 C16.42963777 18.09667321 24.45183229 28.06633531 35.828125 35.9375 C103.65258141 80.0401022 205.50212132 80.64111317 284 82 C285.77096039 82.03126984 285.77096039 82.03126984 287.57769775 82.06317139 C307.05134604 82.40595019 326.52545229 82.71298529 346 83 C346 87.62 346 92.24 346 97 C344.53103271 97.01981934 343.06206543 97.03963867 341.54858398 97.06005859 C272.69677279 97.79230264 272.69677279 97.79230264 204 102 C202.84145508 102.10425293 201.68291016 102.20850586 200.48925781 102.31591797 C183.30055621 103.90558447 166.20467508 106.05480739 149.125 108.54882812 C146.48104768 108.93054874 143.83586449 109.29131486 141.1875 109.640625 C109.19081489 114.03331123 74.19191119 121.8450846 46 138 C45.08089844 138.49886719 44.16179687 138.99773437 43.21484375 139.51171875 C33.70656614 144.87573935 24.7932248 151.62584984 19 161 C18.61199219 161.62390625 18.22398438 162.2478125 17.82421875 162.890625 C14.77183899 168.35160988 13.92300843 173.84661049 13 180 C8.71 180 4.42 180 0 180 C0.59013114 163.4763282 7.24439918 150.92580348 19.05078125 139.54296875 C56.30309438 107.42210007 111.83323886 99.6489296 158.74609375 93.44287109 C163.41175287 92.80785416 168.0662551 92.09884958 172.72094727 91.38818359 C177.81711419 90.78488485 182.87784976 90.8311379 188 91 C188 90.34 188 89.68 188 89 C187.37270996 89.01957764 186.74541992 89.03915527 186.09912109 89.05932617 C178.1567798 89.19502519 170.48841416 88.37183035 162.625 87.3125 C161.95659088 87.22385681 161.28818176 87.13521362 160.59951782 87.04388428 C44.17213947 71.56332134 44.17213947 71.56332134 10.0625 30.5 C3.48720585 21.53514773 -0.46441363 11.14592722 0 0 Z " fill="#FBFAFE" transform="translate(83,166)"></path><path d="M0 0 C4.29 0 8.58 0 13 0 C13.00257813 1.01835938 13.00515625 2.03671875 13.0078125 3.0859375 C13.41143571 22.96556792 20.30648863 40.84506017 34.1640625 55.34765625 C48.69869977 68.94134593 67.29505724 77.72797321 86 84 C87.15371094 84.40476562 88.30742187 84.80953125 89.49609375 85.2265625 C158.25451416 108.17070709 235.42743665 108.20215348 307 109 C307 113.29 307 117.58 307 122 C247.66771465 122.4564022 187.3271269 120.70957079 129 109 C128.0826709 108.82001465 127.1653418 108.6400293 126.22021484 108.45458984 C86.24360476 100.53013143 39.71172333 87.5997418 14.25 53.1875 C5.16147765 39.52263934 -0.25757461 23.96377321 -0.0625 7.5625 C-0.05798828 6.83095703 -0.05347656 6.09941406 -0.04882812 5.34570312 C-0.03718148 3.56376581 -0.01925191 1.78187137 0 0 Z " fill="#FBFAFE" transform="translate(122,115)"></path><path d="M0 0 C4.29 0 8.58 0 13 0 C13.01417969 1.50046875 13.02835938 3.0009375 13.04296875 4.546875 C13.51064231 28.97027374 18.02919229 53.08340287 36 71 C55.33295116 88.76727646 80.04697097 98.17208298 105 105 C105.67562988 105.19045898 106.35125977 105.38091797 107.04736328 105.57714844 C158.85596187 120.10930924 215.61669776 120.30636197 269 121 C269 125.29 269 129.58 269 134 C243.59499828 134.29029184 218.35093968 133.70179311 193 132 C192.23776123 131.94908203 191.47552246 131.89816406 190.69018555 131.84570312 C162.6944177 129.94951566 134.18409378 127.24211692 107 120 C105.64334229 119.64083496 105.64334229 119.64083496 104.25927734 119.27441406 C69.35694252 109.88669141 31.30135438 95.44485671 11.96875 62.7109375 C3.04438477 46.54849698 -0.2196543 28.70366471 -0.0625 10.4375 C-0.05798828 9.42880859 -0.05347656 8.42011719 -0.04882812 7.38085938 C-0.03716788 4.92054671 -0.01923752 2.46026508 0 0 Z " fill="#FBFAFE" transform="translate(160,77)"></path><path d="M0 0 C0 4.29 0 8.58 0 13 C-1.50046875 13.47308594 -3.0009375 13.94617188 -4.546875 14.43359375 C-33.67958627 23.77578962 -65.65544888 35.7493751 -81.09375 64.18261719 C-85.93337094 73.88793462 -87.97084368 83.64759199 -88.5625 94.375 C-88.60568359 95.11105469 -88.64886719 95.84710938 -88.69335938 96.60546875 C-88.79843799 98.40348068 -88.89962093 100.20171958 -89 102 C-93.29 102 -97.58 102 -102 102 C-102.94073513 78.01125407 -95.84960705 58.2863976 -80.24609375 39.9375 C-62.59360985 21.0268477 -26.29101961 0 0 0 Z " fill="#FCFBFE" transform="translate(224,295)"></path><path d="M0 0 C1.21108671 12.43045946 1.21108671 12.43045946 -1.359375 15.76171875 C-3.51083293 17.02858964 -5.71315003 17.99773859 -8 19 C-25.59752379 29.57828677 -39.42850554 43.09364817 -46 63 C-46.24951416 63.7412915 -46.49902832 64.48258301 -46.75610352 65.24633789 C-49.28540662 73.46984329 -49.75702189 81.66166922 -50.1875 90.1875 C-50.2691051 91.63092068 -50.35178047 93.07428126 -50.43554688 94.51757812 C-50.63798891 98.01120652 -50.81852326 101.50497148 -51 105 C-55.29 105 -59.58 105 -64 105 C-64.31662285 91.5845727 -64.25944479 79.06587783 -61 66 C-60.7215625 64.80117188 -60.443125 63.60234375 -60.15625 62.3671875 C-54.48510981 40.122629 -38.81993767 21.67560935 -19.29736328 9.97998047 C-2.39877379 0 -2.39877379 0 0 0 Z " fill="#FCFBFE" transform="translate(224,330)"></path><path d="M0 0 C3.96 0 7.92 0 12 0 C12 29.37 12 58.74 12 89 C8.04 89 4.08 89 0 89 C0 59.63 0 30.26 0 0 Z " fill="#7746D4" transform="translate(378,333)"></path><path d="M0 0 C4.29 0 8.58 0 13 0 C13 23.43 13 46.86 13 71 C8.71 71 4.42 71 0 71 C0 47.57 0 24.14 0 0 Z " fill="#774AD0" transform="translate(326,352)"></path><path d="M0 0 C4.29 0 8.58 0 13 0 C13 16.83 13 33.66 13 51 C8.71 51 4.42 51 0 51 C0 34.17 0 17.34 0 0 Z " fill="#6F42CB" transform="translate(275,371)"></path></svg>