<svg version="1.1" xmlns="http://www.w3.org/2000/svg" width="16px" height="16px" fill="currentColor" viewBox="0 0 512 512"><path d="M0 0 C168.96 0 337.92 0 512 0 C512 168.96 512 337.92 512 512 C343.04 512 174.08 512 0 512 C0 343.04 0 174.08 0 0 Z " fill="#7746D3" transform="translate(0,0)"></path><path d="M0 0 C1.04027344 0.55171875 2.08054687 1.1034375 3.15234375 1.671875 C28.57771791 15.70427598 48.69621016 38.44076167 62 64 C62.33628418 64.63599121 62.67256836 65.27198242 63.01904297 65.92724609 C74.14733178 87.23773623 78.44861962 109.37951087 78.4375 133.25 C78.43790283 134.13506226 78.43830566 135.02012451 78.4387207 135.93200684 C78.38042708 158.19313459 74.46093208 177.77700115 65 198 C64.62214355 198.80808105 64.24428711 199.61616211 63.85498047 200.44873047 C46.24982434 237.32489118 15.19267479 265.07731127 -23.15576172 278.98657227 C-25.09980287 279.67018333 -27.04861654 280.33767839 -29 281 C-30.09183594 281.38027344 -31.18367187 281.76054687 -32.30859375 282.15234375 C-69.49297307 293.98170812 -111.19755141 288.47157196 -145.67480469 271.21191406 C-157.28897047 265.15849964 -167.25608736 257.69415409 -177 249 C-177.74765625 248.37351562 -178.4953125 247.74703125 -179.265625 247.1015625 C-205.16536098 225.38249256 -223.71881452 189.99174283 -227.6015625 156.5 C-230.17886389 126.62621317 -228.5879186 94.89647491 -214 68 C-209.23456911 68.57762799 -206.07029845 70.60288666 -202 73 C-202.38671875 73.98097656 -202.7734375 74.96195312 -203.171875 75.97265625 C-206.75525168 85.20434772 -209.66693038 94.36340808 -212 104 C-212.21527344 104.86496094 -212.43054688 105.72992188 -212.65234375 106.62109375 C-217.04174775 125.10785365 -216.47501791 145.60661928 -212 164 C-211.83371094 164.71671875 -211.66742188 165.4334375 -211.49609375 166.171875 C-206.23680753 188.45566551 -196.1261372 208.78476343 -181 226 C-180.30390625 226.82886719 -179.6078125 227.65773438 -178.890625 228.51171875 C-156.92358385 254.04639979 -122.52150684 271.15432422 -89 274 C-49.66731525 275.92382742 -14.57126713 266.29199248 16 241 C16.55268555 240.54512207 17.10537109 240.09024414 17.67480469 239.62158203 C35.20997488 224.96252253 47.79133681 205.17254149 56 184 C56.46148437 182.8346875 56.92296875 181.669375 57.3984375 180.46875 C69.58732858 147.07857565 67.86967873 108.99343596 53.08203125 76.71875 C36.0556134 41.00398966 8.17725338 15.42276688 -29 2 C-29.96679688 1.62230469 -30.93359375 1.24460938 -31.9296875 0.85546875 C-47.7959276 -5.01196353 -64.47667255 -5.43097307 -81.1875 -5.1875 C-83.02798358 -5.1723941 -84.86847945 -5.15871635 -86.70898438 -5.14648438 C-91.13963695 -5.11401932 -95.56967472 -5.06257975 -100 -5 C-100.93777474 -9.4812004 -101.077475 -13.42897493 -101 -18 C-65.28371524 -22.55321745 -31.63609915 -17.39101763 0 0 Z " fill="#FCFBFE" transform="translate(331,141)"></path><path d="M0 0 C0 4.29 0 8.58 0 13 C-5.75568413 13.95141773 -11.4249428 14.23332274 -17.25 14.4375 C-24.63899226 14.73501312 -31.78469883 15.25954093 -39 17 C-39 17.33 -39 17.66 -39 18 C-37.10531665 18.31939834 -35.20915006 18.62999579 -33.3125 18.9375 C-31.72888672 19.19853516 -31.72888672 19.19853516 -30.11328125 19.46484375 C-17.71646588 21.20033421 -5.24125536 21.23553963 7.25 21.25 C8.17165955 21.25233643 9.09331909 21.25467285 10.04290771 21.25708008 C24.88459946 21.27125399 39.33702388 20.47973569 54 18 C54 17.67 54 17.34 54 17 C49.545 16.01 49.545 16.01 45 15 C45.33 11.04 45.66 7.08 46 3 C51.70092153 2.82144765 56.61308965 3.32688635 62.125 4.75 C63.14013672 4.98589844 63.14013672 4.98589844 64.17578125 5.2265625 C69.61865139 6.59517588 73.91398259 8.84444868 77.875 12.9375 C79.30560833 15.56028194 79.28047797 17.03181136 79 20 C77.80786133 22.34790039 77.80786133 22.34790039 76.08203125 24.84765625 C75.41848633 25.82428223 74.75494141 26.8009082 74.07128906 27.80712891 C73.32588867 28.88140137 72.58048828 29.95567383 71.8125 31.0625 C70.61009937 32.8241966 69.41240967 34.58903637 68.21499634 36.35412598 C67.3268726 37.66314106 66.43747955 38.97129566 65.54696655 40.27868652 C59.49779752 49.1741066 53.60674113 58.17447977 47.69735718 67.16305542 C45.15885868 71.02413029 42.61798942 74.88364083 40.07655334 78.74278259 C38.93112099 80.48217848 37.78602365 82.22179506 36.64134216 83.96168518 C36.11871292 84.75566208 35.59608368 85.54963898 35.05761719 86.36767578 C34.55539139 87.13334869 34.05316559 87.89902161 33.53572083 88.68789673 C32.47243753 90.28872205 31.39253739 91.87858771 30.29960632 93.45932007 C29.75528458 94.25069366 29.21096283 95.04206726 28.65014648 95.85742188 C28.15820297 96.56201538 27.66625946 97.26660889 27.15940857 97.99255371 C25.37433742 101.08329717 25.30085107 103.8570236 25.3125 107.375 C25.29219759 113.58753816 25.29219759 113.58753816 23.71875 115.80859375 C16.48007572 120.82631115 7.47491647 120.88100827 -1 120 C-6.16323494 118.65134452 -9.98607026 117.5208946 -13 113 C-13.11475122 110.86041625 -13.16124074 108.71686692 -13.16796875 106.57421875 C-13.6594134 98.37751133 -16.65206171 93.4022367 -21.3125 86.8125 C-22.78319775 84.62934107 -24.25324427 82.4457433 -25.72265625 80.26171875 C-26.4511377 79.20001465 -27.17961914 78.13831055 -27.93017578 77.04443359 C-30.81268353 72.80465162 -33.53809483 68.47505177 -36.25 64.125 C-37.21021693 62.59980653 -38.17114891 61.07506298 -39.1328125 59.55078125 C-39.60235352 58.80521973 -40.07189453 58.0596582 -40.55566406 57.29150391 C-42.56541286 54.10294708 -44.58030144 50.91765205 -46.59570312 47.73266602 C-47.6041696 46.1367324 -48.61072497 44.53958934 -49.61523438 42.94116211 C-52.03535741 39.09122203 -54.4773365 35.26009095 -56.9765625 31.4609375 C-57.44433105 30.73994873 -57.91209961 30.01895996 -58.39404297 29.27612305 C-59.2701291 27.92666016 -60.15651843 26.58380568 -61.05517578 25.24926758 C-63.55574872 21.36587262 -64.74281931 18.62125639 -64 14 C-60.15116666 8.08882251 -52.50195539 5.60577509 -46 4 C-30.81264329 1.11749518 -15.44917209 -0.2087726 0 0 Z " fill="#FCFBFE" transform="translate(173,145)"></path><path d="M0 0 C0.98097656 0.13277344 1.96195313 0.26554688 2.97265625 0.40234375 C4.33590513 0.58097636 5.69918834 0.75934713 7.0625 0.9375 C8.01866211 1.06801758 8.01866211 1.06801758 8.99414062 1.20117188 C38.01461613 4.95022852 67.04389501 3.03301016 96 0 C94.80802192 3.17256912 93.52884206 5.94695696 91.62109375 8.74609375 C91.12375732 9.48230957 90.6264209 10.21852539 90.11401367 10.97705078 C89.2841394 12.19497314 89.2841394 12.19497314 88.4375 13.4375 C87.19234888 15.29793656 85.94759215 17.15863711 84.703125 19.01953125 C82.12027655 22.86547814 79.52358119 26.7010055 76.90820312 30.52490234 C74.05552069 34.69704316 71.22614085 38.8843366 68.40725708 43.07937622 C67.26723851 44.7668578 66.11925276 46.44898616 64.96310425 48.12545776 C56.18557869 60.4061411 56.18557869 60.4061411 54 75 C53 76 53 76 50.27734375 76.09765625 C49.17519531 76.08605469 48.07304687 76.07445312 46.9375 76.0625 C45.83277344 76.05347656 44.72804687 76.04445313 43.58984375 76.03515625 C42.73519531 76.02355469 41.88054687 76.01195312 41 76 C40.9894458 75.31035156 40.9788916 74.62070313 40.96801758 73.91015625 C40.61561036 66.5304834 38.88079013 62.00011253 34.6875 56 C33.58666947 54.34412887 32.48642546 52.6878677 31.38671875 51.03125 C30.82259277 50.19722656 30.2584668 49.36320312 29.67724609 48.50390625 C27.03280065 44.55609948 24.5211998 40.52715415 22 36.5 C21.01108534 34.93317151 20.02149856 33.36676704 19.03125 31.80078125 C16.92501763 28.46614247 14.82123101 25.12997393 12.71875 21.79296875 C12.17992187 20.93832031 11.64109375 20.08367187 11.0859375 19.203125 C10.05926783 17.57461449 9.03318739 15.94573231 8.0078125 14.31640625 C5.93830677 11.03492478 3.85756487 7.77683428 1.65625 4.58203125 C0 2 0 2 0 0 Z " fill="#7546D1" transform="translate(132,176)"></path><path d="M0 0 C4.29 0 8.58 0 13 0 C13.391875 1.2375 13.78375 2.475 14.1875 3.75 C15.93520771 8.45216599 18.51848576 10.75924288 23 13 C28.09382228 13.38443942 30.80145251 12.87900399 35 10 C35.66 10 36.32 10 37 10 C37.99 6.7 38.98 3.4 40 0 C44.29 0 48.58 0 53 0 C53.53625 1.4025 54.0725 2.805 54.625 4.25 C56.62219196 8.69988384 58.43062182 10.93930003 63 13 C68.22030531 13.65253816 71.57263942 12.81741128 76 10 C79.09327333 6.79625262 79.48209829 4.55370512 81 0 C85.29 0 89.58 0 94 0 C94.65104167 2.5390625 95.30208333 5.078125 95.953125 7.6171875 C96.79103039 10.11293943 96.79103039 10.11293943 98.921875 11.2578125 C103.2228675 12.79388125 106.39922666 13.38989605 111 13 C114.85302705 10.92529312 117.80055859 8.82008245 120 5 C120.33 3.35 120.66 1.7 121 0 C125.29 0 129.58 0 134 0 C134 7.7747406 131.59746755 12.84091784 126.6875 18.8125 C119.73936005 24.46796275 113.91620117 27.46605876 104.8671875 27.42578125 C99.37703141 26.61048559 94.77274717 23.70129092 90 21 C88.67111082 20.32451812 87.33962179 19.6539386 86 19 C85.319375 19.598125 84.63875 20.19625 83.9375 20.8125 C76.04666305 26.68865517 68.71056979 26.96580802 59 26 C54.50857377 24.64660126 51.22344399 22.38849985 48 19 C45.84707106 20.07148084 43.70099355 21.15381582 41.5625 22.25390625 C40.716875 22.68574219 39.87125 23.11757813 39 23.5625 C38.154375 23.99691406 37.30875 24.43132812 36.4375 24.87890625 C30.91243649 27.42008129 25.29042028 27.96659226 19.43359375 26.24609375 C14.68762694 24.4424849 10.7564077 22.50598052 7 19 C4.45331883 20.22240696 2.06020663 21.55691459 -0.375 23 C-4.89110037 25.59168072 -8.73663012 27 -14 27 C-14 22.71 -14 18.42 -14 14 C-12.7625 13.608125 -11.525 13.21625 -10.25 12.8125 C-6.25579902 11.30232507 -4.25568441 9.73055498 -2 6 C-1.34 4.02 -0.68 2.04 0 0 Z " fill="#FCFAFE" transform="translate(258,272)"></path><path d="M0 0 C4.29 0 8.58 0 13 0 C13.0809323 3.41714149 13.14046835 6.83236685 13.1875 10.25 C13.21263672 11.21808594 13.23777344 12.18617188 13.26367188 13.18359375 C13.27333984 14.11816406 13.28300781 15.05273438 13.29296875 16.015625 C13.3086792 16.87446289 13.32438965 17.73330078 13.34057617 18.61816406 C12.91744464 21.57735489 12.11168393 22.89807458 10 25 C7.30469001 25.8039548 4.83352598 25.81419502 2 26 C2.73605469 26.86882812 3.47210938 27.73765625 4.23046875 28.6328125 C5.21615806 29.79686464 6.20183446 30.96092773 7.1875 32.125 C7.67025391 32.69476563 8.15300781 33.26453125 8.65039062 33.8515625 C9.62063481 34.99762274 10.58922341 36.14508663 11.55615234 37.29394531 C12.52234826 38.43560529 13.49674172 39.5703756 14.47900391 40.69824219 C18 44.78433642 18 44.78433642 18 47 C22.15314177 42.9639581 25.96682872 38.69502763 29.75 34.3125 C30.63365234 33.29833008 30.63365234 33.29833008 31.53515625 32.26367188 C32.09589844 31.61591797 32.65664062 30.96816406 33.234375 30.30078125 C33.99572754 29.42160034 33.99572754 29.42160034 34.77246094 28.5246582 C36.08781959 27.0015071 36.08781959 27.0015071 37 25 C35.741875 25.061875 34.48375 25.12375 33.1875 25.1875 C30.64275331 25.31265148 29.45551722 25.33942667 27.390625 23.80078125 C25.52977646 21.39108693 25.65464684 19.91536581 25.70703125 16.89453125 C25.7215332 15.42016602 25.7215332 15.42016602 25.73632812 13.91601562 C25.76146484 12.89185547 25.78660156 11.86769531 25.8125 10.8125 C25.82603516 9.77673828 25.83957031 8.74097656 25.85351562 7.67382812 C25.88888195 5.11566388 25.94268904 2.55776671 26 0 C29.96 0 33.92 0 38 0 C38 4.29 38 8.58 38 13 C39.12019531 12.96519531 40.24039063 12.93039062 41.39453125 12.89453125 C42.86717251 12.86639161 44.33982998 12.83909163 45.8125 12.8125 C46.91948242 12.77479492 46.91948242 12.77479492 48.04882812 12.73632812 C53.40469547 12.66362404 53.40469547 12.66362404 56.01171875 14.13671875 C57.49548576 16.93417671 57.39735734 18.88015473 57 22 C55.63671875 24.31640625 55.63671875 24.31640625 53.6875 26.5625 C52.95789063 27.42101562 52.22828125 28.27953125 51.4765625 29.1640625 C50.65929687 30.09992188 49.84203125 31.03578125 49 32 C47.64862259 33.5905059 46.30387894 35.18648146 44.95898438 36.7824707 C43.55763507 38.44326562 42.15012778 40.09869768 40.7421875 41.75390625 C38.18838562 44.76560033 35.68182378 47.81378445 33.1875 50.875 C32.46304688 51.75671875 31.73859375 52.6384375 30.9921875 53.546875 C29.74611187 55.08125833 28.51873494 56.63124068 27.3203125 58.203125 C24.95532328 61.21756722 23.54444497 62.77777756 19.9375 64.25 C16.6504624 63.97025212 15.58744868 63.23121045 13.46484375 60.76953125 C12.98144531 60.18558594 12.49804688 59.60164063 12 59 C10.58459204 57.45717763 9.16778248 55.91564058 7.75 54.375 C3.8361027 50.00254378 0.10009552 45.51120717 -3.58984375 40.94921875 C-6.79464941 37.02761701 -10.07601345 33.1732142 -13.37060547 29.3269043 C-18.91418543 22.82381985 -18.91418543 22.82381985 -19.3125 19 C-19 16 -19 16 -17.9921875 14.32421875 C-14.83228904 12.22381566 -11.46804994 12.68798782 -7.8125 12.8125 C-7.06291016 12.82603516 -6.31332031 12.83957031 -5.54101562 12.85351562 C-3.69370233 12.88881461 -1.84675934 12.94262083 0 13 C0 8.71 0 4.42 0 0 Z " fill="#FDFCFE" transform="translate(160,269)"></path><path d="M0 0 C4.29 0 8.58 0 13 0 C13.4125 1.2375 13.825 2.475 14.25 3.75 C15.85561247 8.04938883 17.80362992 10.90181496 22 13 C27.18582881 13.43947702 31.04967782 13.29714863 35.5234375 10.48828125 C38.42019192 7.56853672 39.02256857 3.90972573 40 0 C44.29 0 48.58 0 53 0 C53.53625 1.4025 54.0725 2.805 54.625 4.25 C56.62219196 8.69988384 58.43062182 10.93930003 63 13 C68.22030531 13.65253816 71.57263942 12.81741128 76 10 C79.35133647 6.64866353 79.14310555 5.1413667 80 0 C84.62 0 89.24 0 94 0 C94.37125 1.4025 94.7425 2.805 95.125 4.25 C96.32934544 7.88015971 96.9068653 8.92073642 99.9375 11.5 C103.06575113 13.16442413 103.06575113 13.16442413 107 14 C107 18.29 107 22.58 107 27 C100.1589978 26.78282533 96.45967897 25.47060758 91.04296875 21.27734375 C88.83629934 19.64657023 88.83629934 19.64657023 85 20 C84.2575 20.598125 83.515 21.19625 82.75 21.8125 C77.02166191 26.36913257 71.08335758 27.61797882 63.8203125 27.42578125 C57.70300532 26.50225427 52.17382324 23.56177476 48 19 C44.86097443 20.50673227 41.87204841 22.22217078 38.87890625 24 C32.33867845 27.48086968 25.73261686 28.3853388 18.53125 26.27734375 C13.53659262 24.16487736 9.2929032 21.28818117 5 18 C5 18.66 5 19.32 5 20 C-1.03943192 24.67568923 -6.33178175 27 -14 27 C-14 22.71 -14 18.42 -14 14 C-12.5975 13.46375 -11.195 12.9275 -9.75 12.375 C-5.30237924 10.40294174 -3.21966869 8.43933738 -1 4 C-0.67 2.68 -0.34 1.36 0 0 Z " fill="#FBF9FD" transform="translate(246,202)"></path><path d="M0 0 C4.29 0 8.58 0 13 0 C13.556875 1.2375 14.11375 2.475 14.6875 3.75 C16.6105958 7.51606261 18.16703762 9.9557534 22 12 C26.36662409 12.70351166 30.07371589 12.26215588 34.3125 11.0625 C38.28224161 8.01595411 39.24705526 4.65204566 41 0 C45.29 0 49.58 0 54 0 C54.556875 1.423125 55.11375 2.84625 55.6875 4.3125 C56.99124489 7.1916033 57.86713721 8.87472937 60.1875 11.0625 C64.21153776 12.40384592 67.80600068 12.67930975 72 12 C75.8026029 9.9949912 77.61790841 8.57313738 80 5 C80.33 3.35 80.66 1.7 81 0 C85.29 0 89.58 0 94 0 C98 7.75 98 7.75 98 10 C101.3 10.99 104.6 11.98 108 13 C108 17.29 108 21.58 108 26 C99.51129839 26.7073918 93.75656428 22.729595 87 18 C86.49210937 18.40992188 85.98421875 18.81984375 85.4609375 19.2421875 C78.46607878 24.7175638 73.04494838 26.52399177 64.109375 26.390625 C57.47256646 25.55685508 52.19212882 22.02389983 47 18 C46.40832031 18.40992188 45.81664062 18.81984375 45.20703125 19.2421875 C44.41683594 19.78101563 43.62664062 20.31984375 42.8125 20.875 C42.03519531 21.40867187 41.25789063 21.94234375 40.45703125 22.4921875 C34.12634032 26.3771584 28.31258979 26.9072692 21 26 C15.94943021 24.23025856 11.63932693 21.96488973 8 18 C5.23682715 19.31143965 2.81152599 20.80741885 0.3125 22.5625 C-4.11063337 25.39463813 -7.80123251 25.75630777 -13 26 C-13 21.71 -13 17.42 -13 13 C-11.7625 12.608125 -10.525 12.21625 -9.25 11.8125 C-5.27440011 10.31373402 -3.22079478 8.73093522 -1 5 C-0.67 3.35 -0.34 1.7 0 0 Z " fill="#FCFBFE" transform="translate(211,351)"></path><path d="M0 0 C1.65225586 -0.0009668 1.65225586 -0.0009668 3.33789062 -0.00195312 C4.48322266 0.01802734 5.62855469 0.03800781 6.80859375 0.05859375 C7.95779297 0.05150391 9.10699219 0.04441406 10.29101562 0.03710938 C18.62404699 0.10057124 18.62404699 0.10057124 21.0703125 1.65600586 C23.74125308 5.83600568 22.71187993 11.70287222 22.68359375 16.49609375 C22.71356445 18.29820313 22.71356445 18.29820313 22.74414062 20.13671875 C22.74349609 21.2865625 22.74285156 22.43640625 22.7421875 23.62109375 C22.74496704 25.20277344 22.74496704 25.20277344 22.74780273 26.81640625 C22.24609375 29.49609375 22.24609375 29.49609375 20.55883789 31.33398438 C16.0810067 33.58400828 11.15935341 33.00768163 6.24609375 32.99609375 C5.15296875 33.02445313 4.05984375 33.0528125 2.93359375 33.08203125 C-4.84444422 33.10109507 -4.84444422 33.10109507 -8.47265625 30.6875 C-10.43941762 25.78858524 -10.33190445 21.16272323 -10.25390625 15.93359375 C-10.269375 14.89267578 -10.28484375 13.85175781 -10.30078125 12.77929688 C-10.295625 11.77705078 -10.29046875 10.77480469 -10.28515625 9.7421875 C-10.28064453 8.83138428 -10.27613281 7.92058105 -10.27148438 6.98217773 C-9.0723748 1.22249245 -5.42541758 -0.00998037 0 0 Z " fill="#FBFAFD" transform="translate(143.75390625,108.50390625)"></path><path d="M0 0 C1.55557617 -0.0299707 1.55557617 -0.0299707 3.14257812 -0.06054688 C7.40438728 -0.05780968 10.77377775 0.12143116 14.75 1.71484375 C17.7901682 6.28164814 17.24167729 11.08926541 17.125 16.4375 C17.13595703 17.530625 17.14691406 18.62375 17.15820312 19.75 C17.08498233 27.71642263 17.08498233 27.71642263 14.88671875 30.75024414 C11.98697404 32.85530041 10.36854885 32.9401425 6.80859375 32.93359375 C5.15633789 32.93456055 5.15633789 32.93456055 3.47070312 32.93554688 C2.32537109 32.91556641 1.18003906 32.89558594 0 32.875 C-1.14919922 32.88208984 -2.29839844 32.88917969 -3.48242188 32.89648438 C-11.81545324 32.83302251 -11.81545324 32.83302251 -14.26171875 31.27758789 C-16.93265933 27.09758807 -15.90328618 21.23072153 -15.875 16.4375 C-15.9049707 14.63539062 -15.9049707 14.63539062 -15.93554688 12.796875 C-15.93490234 11.64703125 -15.93425781 10.4971875 -15.93359375 9.3125 C-15.93544678 8.25804688 -15.9372998 7.20359375 -15.93920898 6.1171875 C-15.4375 3.4375 -15.4375 3.4375 -13.734375 1.59741211 C-9.40777834 -0.58750081 -4.75224045 -0.0323682 0 0 Z " fill="#FCFBFE" transform="translate(188.4375,82.5625)"></path><path d="M0 0 C1.051875 -0.00064453 2.10375 -0.00128906 3.1875 -0.00195312 C4.8271875 0.02801758 4.8271875 0.02801758 6.5 0.05859375 C7.593125 0.05150391 8.68625 0.04441406 9.8125 0.03710938 C17.72185136 0.10011279 17.72185136 0.10011279 20.81054688 1.671875 C23.12946306 4.17576831 23.01609159 5.73659032 23.03125 9.1171875 C23.03898437 10.76750977 23.03898437 10.76750977 23.046875 12.45117188 C23.03140625 13.60037109 23.0159375 14.74957031 23 15.93359375 C23.01546875 17.07892578 23.0309375 18.22425781 23.046875 19.40429688 C23.04171875 20.50580078 23.0365625 21.60730469 23.03125 22.7421875 C23.02673828 23.74950928 23.02222656 24.75683105 23.01757812 25.79467773 C22.35243164 29.26630313 21.34714755 30.43383715 18.5 32.49609375 C15.90625 33.01367188 15.90625 33.01367188 13 33.02734375 C11.948125 33.0325 10.89625 33.03765625 9.8125 33.04296875 C8.719375 33.0275 7.62625 33.01203125 6.5 32.99609375 C5.406875 33.0115625 4.31375 33.02703125 3.1875 33.04296875 C2.135625 33.0378125 1.08375 33.03265625 0 33.02734375 C-0.9590625 33.02283203 -1.918125 33.01832031 -2.90625 33.01367188 C-6.3011717 32.33622138 -7.46832431 31.27467449 -9.5 28.49609375 C-10.01757812 25.90234375 -10.01757812 25.90234375 -10.03125 22.99609375 C-10.03640625 21.94421875 -10.0415625 20.89234375 -10.046875 19.80859375 C-10.03140625 18.71546875 -10.0159375 17.62234375 -10 16.49609375 C-10.01546875 15.40296875 -10.0309375 14.30984375 -10.046875 13.18359375 C-10.03914062 11.60578125 -10.03914062 11.60578125 -10.03125 9.99609375 C-10.02673828 9.03703125 -10.02222656 8.07796875 -10.01757812 7.08984375 C-8.88370709 1.40765227 -5.40267821 -0.01043864 0 0 Z " fill="#FCFCFE" transform="translate(188.5,127.50390625)"></path><path d="M0 0 C1.98 0 3.96 0 6 0 C6 1.98 6 3.96 6 6 C4.02 6 2.04 6 0 6 C0 4.02 0 2.04 0 0 Z " fill="#7B4AD7" transform="translate(192,141)"></path><path d="M0 0 C1.98 0 3.96 0 6 0 C6 1.98 6 3.96 6 6 C4.02 6 2.04 6 0 6 C0 4.02 0 2.04 0 0 Z " fill="#7D4DD6" transform="translate(147,122)"></path><path d="M0 0 C1.98 0 3.96 0 6 0 C6 1.98 6 3.96 6 6 C4.02 6 2.04 6 0 6 C0 4.02 0 2.04 0 0 Z " fill="#7E4CDB" transform="translate(186,96)"></path></svg>