<svg version="1.1" xmlns="http://www.w3.org/2000/svg" width="16px" height="16px" fill="currentColor" viewBox="0 0 512 512"><path d="M0 0 C168.96 0 337.92 0 512 0 C512 168.96 512 337.92 512 512 C343.04 512 174.08 512 0 512 C0 343.04 0 174.08 0 0 Z " fill="#2C8E79" transform="translate(0,0)"></path><path d="M0 0 C4.80245814 4.08526685 8.58131908 8.71658403 12 14 C12 14.66 12 15.32 12 16 C12.88558594 15.55269531 13.77117187 15.10539062 14.68359375 14.64453125 C24.20717853 9.95175034 33.7305982 6.65024986 44 4 C45.14597656 3.70222656 46.29195312 3.40445313 47.47265625 3.09765625 C60.3690753 -0.05201596 73.10999164 -1.3920679 86.375 -1.375 C87.06465851 -1.37478851 87.75431702 -1.37457703 88.46487427 -1.37435913 C111.47952337 -1.30456264 134.25587994 2.76857807 155 13 C159.79080001 15.28883288 159.79080001 15.28883288 165 16 C166.38222046 14.26524194 166.38222046 14.26524194 167.625 12 C174.51152557 1.21224073 184.67937477 -5.03416551 197 -8 C211.37628452 -9.12841377 222.45858337 -6.96355277 234 2 C242.66808403 10.00957843 249.50455379 20.19792378 250.18359375 32.26171875 C250.45432743 47.2476242 246.38371961 58.88015551 236.02734375 70.0625 C233.79329133 72.19754817 231.43988264 74.10560239 229 76 C229.47308594 76.71800781 229.94617188 77.43601562 230.43359375 78.17578125 C239.60043206 92.52465291 246.52550261 107.56992856 251 124 C251.29519531 125.02222656 251.59039062 126.04445312 251.89453125 127.09765625 C263.28344792 168.78221333 254.63083084 213.39847648 235 251 C235.39541992 251.44005371 235.79083984 251.88010742 236.19824219 252.33349609 C239.35737496 255.92008636 242.01772824 259.36896537 244.25 263.625 C244.72953125 264.52476562 245.2090625 265.42453125 245.703125 266.3515625 C250.99974353 277.16815095 251.75177685 288.71965779 247.9375 300.1875 C242.45221622 314.05479046 234.00572181 322.40655446 220.734375 328.8359375 C211.00537632 332.97771122 196.96573961 332.76129584 187.25 328.875 C181.09030586 325.80822159 175.790624 321.92167451 171 317 C166.51895693 318.38504968 162.45308701 320.17647707 158.25 322.25 C119.16592353 340.89009801 72.92640082 343.24670908 31.99121094 329.31640625 C8.96703032 321.09597263 -14.23779727 308.01936793 -31 290 C-31.825 289.175 -32.65 288.35 -33.5 287.5 C-34.325 286.675 -35.15 285.85 -36 285 C-36.51771973 284.50040771 -37.03543945 284.00081543 -37.56884766 283.48608398 C-41.7265224 279.43167253 -45.40791896 275.21816111 -48.875 270.5625 C-49.38893311 269.87293213 -49.90286621 269.18336426 -50.43237305 268.47290039 C-55.63923564 261.34086567 -59.98018567 253.85224772 -64 246 C-64.31807617 245.38302246 -64.63615234 244.76604492 -64.96386719 244.13037109 C-76.63215414 221.19005563 -82.18801408 196.8298435 -82.18530273 171.19140625 C-82.18747548 168.90084854 -82.20564525 166.61078457 -82.22460938 164.3203125 C-82.27319389 151.78643803 -81.08761285 139.66733759 -78.1875 127.4375 C-77.93963745 126.39106323 -77.93963745 126.39106323 -77.68676758 125.32348633 C-76.20466019 119.31252801 -74.15168902 113.5993863 -71.85546875 107.85546875 C-70.7753709 104.31064491 -70.7753709 104.31064491 -72 101 C-74.25955094 99.07954046 -74.25955094 99.07954046 -77.0625 97.3125 C-90.59360568 87.81268229 -98.23872061 74.29095815 -101.5859375 58.1796875 C-103.91399161 40.30198898 -100.4356354 25.01089494 -90 10.15234375 C-80.9713357 -1.56879722 -67.52689372 -11.06329205 -52.70703125 -13.7578125 C-32.88709926 -15.53102431 -16.32160416 -12.01558853 0 0 Z " fill="#FAFCFC" transform="translate(179,91)"></path><path d="M0 0 C0.63808594 0.11827148 1.27617187 0.23654297 1.93359375 0.35839844 C14.19183842 2.67005398 25.65064391 6.86054872 37 12 C37.69303223 12.28431885 38.38606445 12.5686377 39.10009766 12.86157227 C41.015625 13.75390625 41.015625 13.75390625 44 16 C44.75776592 18.92773196 45.05277278 20.99089074 45.125 23.9375 C46.06178112 36.8780864 50.17792057 47.74257174 59.83984375 56.70703125 C65.92640352 61.62357749 75.06927938 67.25436499 83.16308594 66.90722656 C83.92911133 66.81924805 84.69513672 66.73126953 85.484375 66.640625 C99.11136041 65.48855706 99.11136041 65.48855706 103.77734375 69.22265625 C105.52480527 72.04932713 106.91694783 74.8415619 108.14160156 77.9296875 C109.04747403 80.11449937 110.09856492 82.16323818 111.2109375 84.25 C122.30284738 105.45946797 127.43145913 128.24745505 127.3125 152.0625 C127.31034485 152.83723663 127.3081897 153.61197327 127.30596924 154.41018677 C127.25352847 166.15798026 126.85756739 177.54902342 124 189 C123.80664062 189.78761719 123.61328125 190.57523438 123.4140625 191.38671875 C120.88824448 201.31848465 117.47158252 210.79774158 113.375 220.1875 C113.00294434 221.05560303 112.63088867 221.92370605 112.24755859 222.81811523 C111.88484863 223.61419189 111.52213867 224.41026855 111.1484375 225.23046875 C110.83052246 225.93582764 110.51260742 226.64118652 110.18505859 227.36791992 C109 229 109 229 107.01196289 229.77050781 C104.3655393 230.07236902 102.58037575 229.41441285 100.0625 228.5625 C87.95783566 225.08562833 77.11573091 226.75402158 66.05078125 232.54296875 C55.40837436 238.88775976 47.95600535 247.84211412 44.43994141 259.92456055 C42.29684112 270.03471344 43.64088909 281.37720432 47 291 C41.23511182 294.93244124 35.41253385 297.65840552 28.875 300.0625 C27.94486084 300.40756592 27.01472168 300.75263184 26.05639648 301.1081543 C-13.54683163 315.61755841 -56.50974157 314.6894077 -94.984375 296.9453125 C-112.88494715 288.4149812 -128.13328093 277.23163273 -142 263 C-142.556875 262.48824219 -143.11375 261.97648437 -143.6875 261.44921875 C-170.20633525 236.48087991 -185.13379093 196.86858552 -186.31640625 160.984375 C-186.69457732 137.39106466 -183.34421424 114.78991235 -174 93 C-172.59621094 93.23783203 -172.59621094 93.23783203 -171.1640625 93.48046875 C-152.91100815 96.06119944 -136.69650108 94.00687682 -121 84 C-120.34 83.34 -119.68 82.68 -119 82 C-115.77035482 82.33961725 -114.05647331 83.55334833 -111.7578125 85.765625 C-111.16613281 86.32636719 -110.57445312 86.88710937 -109.96484375 87.46484375 C-109.35769531 88.05394531 -108.75054687 88.64304687 -108.125 89.25 C-106.92068265 90.40251875 -105.71496725 91.5535785 -104.5078125 92.703125 C-103.92547852 93.25806641 -103.34314453 93.81300781 -102.74316406 94.38476562 C-100.24585802 96.69879598 -97.64075969 98.85185909 -95 101 C-95.42410156 101.62003906 -95.84820312 102.24007812 -96.28515625 102.87890625 C-109.44881898 122.75459042 -116.56541813 145.3337713 -112.3515625 169.30078125 C-109.30293717 183.5578437 -103.2373125 196.73047876 -94 208 C-93.45859375 208.70382812 -92.9171875 209.40765625 -92.359375 210.1328125 C-80.64111324 224.63842779 -60.13068583 235.34846521 -41.6875 237.578125 C-17.18687268 240.01562857 4.85985535 234.837845 24.41748047 219.296875 C36.6646088 209.26035144 44.65586767 196.81208331 50 182 C50.30679688 181.175 50.61359375 180.35 50.9296875 179.5 C57.68594446 160.4537899 55.61824887 137.11789681 47.41699219 118.91674805 C37.61921388 98.49331336 21.17977178 83.27794315 -0.11328125 75.4296875 C-20.90765174 68.1807086 -44.0633337 68.44480471 -64.18505859 77.6875 C-72.17050002 81.55465158 -79.14135687 86.3883829 -86 92 C-91.17962842 88.36323962 -95.69383917 84.44073082 -100.1015625 79.90234375 C-102.59566266 77.4031117 -105.24444807 75.20444155 -108 73 C-106.82694165 70.62470275 -105.61721538 68.27593752 -104.37890625 65.93359375 C-95.40820752 48.66741016 -93.5373834 32.04850142 -98 13 C-67.95073922 -1.5510747 -32.92898513 -6.57069199 0 0 Z " fill="#2E907A" transform="translate(295,105)"></path><path d="M0 0 C1.57007813 -0.01740234 1.57007813 -0.01740234 3.171875 -0.03515625 C22.96434596 0.0381492 39.14056957 8.15187161 53.3125 21.5625 C68.05838577 36.77182789 73.05265626 53.85124833 72.91601562 74.421875 C72.63125161 91.65537136 66.27022267 107.51349851 54.625 120.375 C54.04492188 121.04660156 53.46484375 121.71820313 52.8671875 122.41015625 C41.05545777 135.23502598 23.15861195 142.8031603 5.91015625 143.6484375 C-15.96399842 144.24618337 -34.26006729 137.40610752 -50.5625 122.35546875 C-64.80127094 107.36582512 -70.95653621 87.95820993 -70.6484375 67.66015625 C-70.16577928 54.4157279 -65.88607832 39.29710766 -56.65234375 29.48046875 C-55.90082031 28.78566406 -55.14929688 28.09085938 -54.375 27.375 C-53.93220703 27.79273682 -53.48941406 28.21047363 -53.03320312 28.64086914 C-50.98185083 30.57455151 -48.92843683 32.50603149 -46.875 34.4375 C-45.83085937 35.42266602 -45.83085937 35.42266602 -44.765625 36.42773438 C-35.8857941 44.77323418 -35.8857941 44.77323418 -26.375 52.375 C-26.89756299 55.61489052 -27.78830793 58.50521545 -28.9375 61.5625 C-32.01197676 70.77071011 -30.53327701 78.73459264 -26.375 87.375 C-22.14921358 94.81187032 -15.68341798 100.36670879 -7.375 102.75 C1.68052353 104.46128004 9.15570213 103.02939092 17.625 99.375 C20.62771913 97.31313456 20.62771913 97.31313456 22.625 95.375 C23.285 95.375 23.945 95.375 24.625 95.375 C25.04072266 94.52421875 25.04072266 94.52421875 25.46484375 93.65625 C27.0338548 90.57105656 28.77424876 87.59113865 30.50390625 84.59375 C34.02639522 77.62241295 33.99631161 67.73929877 31.68359375 60.37890625 C30.47970808 57.89943013 29.17470075 55.65246076 27.625 53.375 C27.24085938 52.79234375 26.85671875 52.2096875 26.4609375 51.609375 C21.93261156 45.50999721 15.00411519 41.68419786 7.625 40.375 C-0.12652629 39.76648646 -6.62137696 39.58171554 -13.41015625 43.6953125 C-15.375 44.375 -15.375 44.375 -17.8828125 43.72265625 C-20.50956562 42.30223333 -22.15606365 40.86434442 -24.1875 38.6875 C-27.41734682 35.33063673 -30.74837419 32.22145423 -34.27734375 29.18359375 C-36.66472899 27.12519642 -39.02083063 25.03377914 -41.375 22.9375 C-42.5196875 21.91849609 -42.5196875 21.91849609 -43.6875 20.87890625 C-44.244375 20.38261719 -44.80125 19.88632813 -45.375 19.375 C-42.21838365 11.57730448 -32.65290752 7.77203439 -25.40625 4.515625 C-16.73227161 1.2517053 -9.30352617 -0.10236153 0 0 Z " fill="#2F907B" transform="translate(264.375,187.625)"></path><path d="M0 0 C10.69227695 7.35578994 17.11259161 17.58777484 21.1875 29.8125 C22.29065074 42.13148207 22.23622522 53.79002194 16.1875 64.8125 C15.75308594 65.62589844 15.31867188 66.43929687 14.87109375 67.27734375 C7.66241935 79.29180108 -3.98078065 86.66909093 -17.375 90.1875 C-31.4528265 92.64919644 -43.97818948 89.34873699 -56.02734375 81.83984375 C-65.45395864 74.97811426 -72.26699436 64.72176973 -75.4765625 53.48828125 C-77.40738389 38.10906437 -75.93134113 25.20231694 -67.25 12.0625 C-50.68076027 -9.22307763 -22.87206962 -13.4541586 0 0 Z " fill="#30907B" transform="translate(165.8125,97.1875)"></path><path d="M0 0 C9.77758051 5.37404795 15.17325199 13.05881846 18.63671875 23.44921875 C19.95247714 34.40888809 17.67733816 42.39404261 11.63671875 51.44921875 C6.52688584 57.63369693 -0.29482004 61.70303406 -8.30908203 62.68847656 C-18.9774214 63.56788377 -27.10239969 62.57374485 -35.6015625 55.6171875 C-42.76268241 48.97973266 -46.33125835 41.76143034 -46.7578125 32.01733398 C-46.96009323 22.28142475 -45.10423507 14.82425076 -38.46484375 7.296875 C-27.73782551 -2.7305551 -13.75841244 -5.72430298 0 0 Z " fill="#2F917B" transform="translate(397.36328125,346.55078125)"></path><path d="M0 0 C7.33590199 4.77843157 11.62856456 11.65837182 14 20 C15.32339593 30.72647224 12.87791124 40.16037827 6.4375 48.875 C1.39325043 54.26257545 -7.47221888 58.61745894 -14.8203125 59.23828125 C-22.21377368 59.40432825 -27.64458785 58.86641044 -34 55 C-35.04800781 54.38125 -35.04800781 54.38125 -36.1171875 53.75 C-43.49878749 48.8475034 -47.64893302 41.43178111 -50 33 C-50.88055277 24.83952844 -50.30216839 18.0496591 -46 11 C-45.57589844 10.30132812 -45.15179688 9.60265625 -44.71484375 8.8828125 C-34.17648681 -6.6752075 -15.80622083 -8.79670733 0 0 Z " fill="#43A891" transform="translate(402,101)"></path><path d="M0 0 C1.74609375 1.12109375 1.74609375 1.12109375 3.375 2.375 C3.98472656 2.79910156 4.59445313 3.22320312 5.22265625 3.66015625 C11.37835843 8.35208211 15.1987402 14.72337062 16.375 22.375 C17.33121668 31.7020315 15.09321975 39.32476684 9.25 46.6875 C4.50959231 51.75624761 -2.77909807 55.92015 -9.7890625 56.578125 C-19.71812224 56.76724995 -27.30428127 54.21619567 -34.625 47.375 C-41.2289751 39.93295699 -42.26759294 31.96242089 -42 22.296875 C-41.25027488 14.45599977 -37.18500553 9.09790845 -31.47265625 3.8828125 C-23.21095859 -2.85929172 -9.93455628 -4.63612626 0 0 Z " fill="#FBFCFC" transform="translate(151.625,111.625)"></path><path d="M0 0 C4.56511208 3.59941529 7.40146735 7.69457723 8.30078125 13.484375 C8.46096764 19.09089875 8.24756382 23.80861817 4.828125 28.44140625 C0.01061892 33.36596802 -4.0556169 36.19009511 -11.046875 36.75390625 C-17.35723106 36.5756476 -22.74317 33.87011125 -27.171875 29.44140625 C-30.63328632 24.56601971 -31.88664719 19.85965428 -31.62109375 13.8984375 C-30.36746136 7.04161336 -25.69255027 2.31762506 -20.171875 -1.55859375 C-13.5224836 -3.70622327 -6.08692273 -3.55070492 0 0 Z " fill="#2F917C" transform="translate(277.171875,242.55859375)"></path><path d="M0 0 C4.71645885 2.03156766 7.55907379 4.66884883 10.01953125 9.1796875 C11.82626293 13.86227189 11.92114854 18.01376028 9.87890625 22.62890625 C7.36847942 26.88571696 4.8294326 30.2245142 0.12109375 32.07421875 C-6.5969354 33.00727835 -10.75035102 32.87420737 -16.36328125 28.9296875 C-19.88697072 25.8503571 -21.72844679 22.77696115 -22.50390625 18.1484375 C-22.79464852 12.7424484 -21.74406332 9.5726901 -18.12890625 5.38671875 C-12.51263366 0.09997235 -7.69706804 -2.21732052 0 0 Z " fill="#31917C" transform="translate(144.12890625,122.61328125)"></path></svg>