<svg version="1.1" xmlns="http://www.w3.org/2000/svg" width="16px" height="16px" fill="currentColor" viewBox="0 0 512 512"><path d="M0 0 C168.96 0 337.92 0 512 0 C512 168.96 512 337.92 512 512 C343.04 512 174.08 512 0 512 C0 343.04 0 174.08 0 0 Z " fill="#7746D3" transform="translate(0,0)"></path><path d="M0 0 C6.72706079 4.06035741 10.58817818 8.70027589 12.9609375 16.18359375 C14.30053105 26.7234147 14.30053105 26.7234147 12.00073242 30.94702148 C10.8067205 33.14988983 10.17839169 34.67352059 9.9609375 37.18359375 C11.77594636 41.55063893 14.49114878 45.19339408 17.2734375 48.99609375 C17.98306641 50.01251953 18.69269531 51.02894531 19.42382812 52.07617188 C22.23384261 56.08063393 25.11459717 60.03059375 28.00927734 63.97412109 C33.57485954 71.56701941 38.78638968 79.35976914 43.9609375 87.22265625 C47.82696328 93.06699992 51.81387736 98.78586825 55.96142578 104.43359375 C59.36803616 109.11882688 62.6335522 113.8990171 65.8984375 118.68359375 C66.90487305 120.14539063 66.90487305 120.14539063 67.93164062 121.63671875 C68.56908203 122.57 69.20652344 123.50328125 69.86328125 124.46484375 C70.43554443 125.30080078 71.00780762 126.13675781 71.59741211 126.99804688 C72.9609375 129.18359375 72.9609375 129.18359375 73.9609375 132.18359375 C74.51523437 132.02632812 75.06953125 131.8690625 75.640625 131.70703125 C83.23126228 129.99466527 89.88919644 130.75132612 96.66796875 134.56640625 C102.57626403 138.73341519 106.9482857 144.19850808 108.9609375 151.18359375 C110.08734857 160.43424466 107.89059499 166.83095976 102.7734375 174.43359375 C96.80500613 180.26939331 91.91122607 182.50377372 83.4609375 182.80859375 C74.81587649 182.48840631 69.41888162 180.0566362 63.5234375 173.80859375 C60.51033697 170.32335496 60.39131925 168.18992987 58.9609375 163.18359375 C11.7709375 163.18359375 -35.4190625 163.18359375 -84.0390625 163.18359375 C-84.3690625 164.83359375 -84.6990625 166.48359375 -85.0390625 168.18359375 C-88.4603974 174.2659669 -93.24295417 179.11743186 -99.859375 181.67578125 C-107.14212014 183.37247815 -114.89284626 183.27796692 -121.3984375 179.3828125 C-128.10498384 174.48064648 -132.35575044 168.31960203 -134.0390625 160.18359375 C-134.82987518 152.01186271 -132.32567306 145.81134987 -127.2890625 139.37109375 C-123.3463347 135.04713527 -118.50170916 133.00447597 -113.0390625 131.18359375 C-112.10578125 131.40660156 -111.1725 131.62960938 -110.2109375 131.859375 C-106.11306041 132.62187953 -102.82977889 133.00585658 -99.0390625 131.18359375 C-93.47693241 125.75831748 -89.69457702 118.64662312 -85.74951172 112.01708984 C-83.46158483 108.22695575 -80.96316777 104.61314984 -78.4140625 100.99609375 C-77.53484684 99.72246511 -76.6572549 98.44771414 -75.78125 97.171875 C-75.34006836 96.53072754 -74.89888672 95.88958008 -74.44433594 95.22900391 C-71.80315671 91.38470239 -69.17162739 87.53379697 -66.5390625 83.68359375 C-61.61993962 76.49009995 -56.69060734 69.30375325 -51.75 62.125 C-49.83559791 59.34315638 -47.92468149 56.55895219 -46.015625 53.7734375 C-45.51756348 53.04729248 -45.01950195 52.32114746 -44.50634766 51.57299805 C-43.55482129 50.18560611 -42.60393548 48.79777455 -41.65380859 47.40942383 C-41.22406738 46.78318115 -40.79432617 46.15693848 -40.3515625 45.51171875 C-39.95219482 44.92922363 -39.55282715 44.34672852 -39.14135742 43.74658203 C-38.20959426 42.42539759 -37.2182226 41.14655833 -36.21484375 39.87890625 C-34.78571321 38.20010965 -34.78571321 38.20010965 -35.2265625 35.80859375 C-36.00678913 33.15723961 -36.00678913 33.15723961 -37.1015625 30.55859375 C-38.81740642 24.38155563 -39.17060092 17.87666564 -36.4765625 11.93359375 C-28.65522146 -1.45873758 -14.36420994 -7.49324309 0 0 Z " fill="#FBFAFE" transform="translate(262.0390625,98.81640625)"></path><path d="M0 0 C0.7425 0.165 1.485 0.33 2.25 0.5 C9.83220972 1.5109613 17.47489639 1.36820066 25 0 C31.718887 9.03294475 38.04500331 18.32159613 44.38037109 27.625 C46.78582624 31.15232404 49.20447409 34.67050774 51.625 38.1875 C52.07077393 38.83549561 52.51654785 39.48349121 52.97583008 40.15112305 C53.86955525 41.45024599 54.76335365 42.74931855 55.65722656 44.04833984 C57.0192908 46.0280383 58.38083737 48.00809168 59.7421875 49.98828125 C60.197146 50.65005371 60.65210449 51.31182617 61.12084961 51.99365234 C62.0384408 53.32853718 62.95592172 54.66349782 63.87329102 55.99853516 C66.63709845 60.02013794 69.40605485 64.03812853 72.17895508 68.0534668 C73.54678398 70.03967891 74.90656638 72.03121746 76.265625 74.0234375 C78.13721364 76.76310742 80.04838028 79.4695718 81.984375 82.1640625 C82.92734921 83.50502141 83.87006705 84.84616064 84.8125 86.1875 C85.26375244 86.79924072 85.71500488 87.41098145 86.17993164 88.04125977 C87.39453125 89.79296875 87.39453125 89.79296875 89 93 C88.44921875 95.55078125 88.44921875 95.55078125 87 98 C86.01 99.98 85.02 101.96 84 104 C36.81 104 -10.38 104 -59 104 C-63 96 -63 96 -64 93 C-62.91113281 90.89379883 -62.91113281 90.89379883 -61.203125 88.45703125 C-60.26774902 87.10569092 -60.26774902 87.10569092 -59.31347656 85.72705078 C-58.6325293 84.76524902 -57.95158203 83.80344727 -57.25 82.8125 C-56.56131836 81.82233887 -55.87263672 80.83217773 -55.16308594 79.81201172 C-53.76640157 77.80464318 -52.36570116 75.80006278 -50.9609375 73.79833984 C-48.36378932 70.09210075 -45.8062828 66.35946577 -43.25 62.625 C-42.37024189 61.34604435 -41.49003725 60.06739574 -40.609375 58.7890625 C-37.90387706 54.86100496 -35.20176765 50.93062386 -32.5 47 C-31.58334714 45.66665718 -30.66668049 44.33332383 -29.75 43 C-29.29625 42.34 -28.8425 41.68 -28.375 41 C-27 39 -25.625 37 -24.25 35 C-23.7957666 34.3392749 -23.3415332 33.6785498 -22.87353516 32.99780273 C-21.96183428 31.67173657 -21.05005115 30.34572694 -20.13818359 29.01977539 C-17.76984389 25.57572648 -15.4031744 22.13054641 -13.0390625 18.68359375 C-12.55115234 17.97267578 -12.06324219 17.26175781 -11.56054688 16.52929688 C-10.63683166 15.18331185 -9.71361415 13.83698507 -8.79101562 12.49023438 C-5.90851305 8.29152057 -2.97079531 4.13675261 0 0 Z " fill="#7A49D7" transform="translate(237,145)"></path><path d="M0 0 C2.27017267 1.73239217 4.39463526 3.57074862 6.53515625 5.4609375 C18.61553299 15.52791812 27.53893516 19.6776234 43.54785156 18.65039062 C54.06494965 17.64777783 60.52939185 11.43873114 68.06738281 4.74267578 C78.84780706 -4.67136735 91.13016361 -7.4706089 105.16015625 -6.921875 C119.43611327 -5.93497188 129.90363815 0.84961244 140.08203125 10.33984375 C149.84635212 18.78256068 160.10115251 19.16258685 172.45800781 18.64013672 C180.04356868 17.98571715 185.83166128 13.12319497 191.53515625 8.4609375 C195.81875298 10.3464523 197.68619217 12.82059451 200.53515625 16.4609375 C197.0850276 24.40306533 188.86910015 27.43867239 181.26953125 30.48046875 C169.26603542 34.7845794 153.99683076 33.77512952 142.53515625 28.4609375 C136.8293522 25.18836638 131.94382173 20.9773779 126.91015625 16.7734375 C116.21774905 7.88329157 106.48550511 6.50430326 92.96972656 7.20458984 C83.3556361 8.21690382 77.11077175 14.60241131 70.46484375 20.98828125 C57.81268927 31.66669963 42.52852174 33.80322583 26.53515625 32.4609375 C22.50361714 31.64536177 19.1619307 30.37888577 15.53515625 28.4609375 C14.70113281 28.03683594 13.86710938 27.61273438 13.0078125 27.17578125 C8.30182255 24.57262194 4.45260165 21.57753599 0.53515625 17.8984375 C-9.300282 8.69904494 -18.94965899 6.94072379 -31.98828125 7.20703125 C-43.07015934 7.68118354 -49.27391437 13.55554835 -57.21875 20.61328125 C-68.26408896 30.39179389 -80.68999403 33.32127257 -95.22265625 32.77734375 C-107.63602092 32.01145946 -117.30941256 26.65263909 -126.46484375 18.4609375 C-124.79733227 14.51954672 -122.23773726 11.6716563 -119.46484375 8.4609375 C-116.5083116 9.84639763 -113.97951179 11.48443466 -111.33984375 13.3984375 C-102.97200517 18.99982208 -94.32441649 20.53677255 -84.41015625 19.1796875 C-75.66018339 17.35238393 -68.81297936 12.9647275 -62.21484375 7.0859375 C-45.18866305 -8.07251042 -20.07311782 -12.53376929 0 0 Z " fill="#FCFBFE" transform="translate(221.46484375,296.5390625)"></path><path d="M0 0 C2.58065366 2.20184211 5.05143863 4.48957171 7.51953125 6.81640625 C17.29526978 15.42213513 27.23208954 17.91171456 40.04492188 17.19091797 C48.9659243 16.31976114 55.40927874 11.68205288 62 6 C74.76496956 -4.95330178 87.09380416 -10.23703872 104 -9 C117.05737892 -7.03063613 126.83633649 -1.45361275 136.26171875 7.58984375 C145.13304977 15.39813368 153.76701706 17.38596528 165.29296875 17.27734375 C174.60609112 16.58057696 182.04714827 13.13486918 189 7 C193.31221345 8.92987711 195.26771169 11.17479637 198 15 C196.00219111 20.99342668 188.3837808 24.3838994 183 27.3125 C172.1904826 32.30975705 158.02626838 32.87304361 146.6875 29.4375 C138.29657167 26.19013126 131.37967123 21.40843909 124.8125 15.3125 C115.86962205 7.01847439 106.15380548 4.41875825 94.046875 4.6953125 C84.0423449 5.69576551 77.39461672 10.57772736 70 17 C57.2800013 27.49399892 44.6629574 32.3291478 27.96923828 31.21142578 C14.84497568 29.80234924 6.0487249 22.78201606 -3.61816406 14.55029297 C-13.59533333 6.18265422 -24.15376172 3.91420379 -37 5 C-46.15943133 6.79809653 -52.10536497 12.02726496 -59 18 C-71.89006317 28.55315963 -85.40460701 32.25615448 -102 31 C-112.14913917 28.84975865 -121.19123926 23.76759265 -129 17 C-127.33248852 13.05860922 -124.77289351 10.2107188 -122 7 C-119.15006845 7.97711939 -117.11491961 8.90149748 -114.8125 10.875 C-105.87011779 17.63146656 -95.82669428 18.2660576 -85 17 C-77.86738601 15.36601636 -72.57990158 11.55659783 -67 7 C-46.85416987 -9.19868275 -23.2295063 -16.01795807 0 0 Z " fill="#FCFBFE" transform="translate(219,385)"></path><path d="M0 0 C2.60489371 1.93128781 4.90652548 4.04164573 7.26171875 6.26953125 C15.78667093 14.25492949 25.05176637 18.07073923 36.5859375 17.91796875 C46.77872646 17.37776515 55.26513496 13.02978395 62.51171875 5.95703125 C73.96174288 -4.98519496 87.00331164 -8.75134942 102.4765625 -8.50390625 C116.00740912 -7.97899152 126.73406719 -1.74128542 136.38671875 7.39453125 C144.30082518 14.80294398 153.51718691 18.18626398 164.25 18.04296875 C173.41018351 17.24444715 180.8072726 14.22930188 187.6796875 8.16015625 C189.38671875 6.76953125 189.38671875 6.76953125 191.38671875 6.76953125 C193.11328125 8.51953125 193.11328125 8.51953125 195.01171875 10.76953125 C195.95917969 11.88328125 195.95917969 11.88328125 196.92578125 13.01953125 C197.64894531 13.88578125 197.64894531 13.88578125 198.38671875 14.76953125 C194.9365901 22.71165908 186.72066265 25.74726614 179.12109375 28.7890625 C168.32863297 32.65893058 153.11408449 32.75125234 142.6484375 28.01953125 C135.69994665 24.17925997 129.85115294 19.48750598 123.8503418 14.32202148 C119.6578324 10.80096077 115.50745143 8.59508393 110.38671875 6.76953125 C109.39671875 6.27453125 109.39671875 6.27453125 108.38671875 5.76953125 C92.49838696 4.92388821 83.03291476 6.5324934 70.79296875 16.984375 C57.08446465 28.55573872 44.66823531 31.88748732 26.95849609 31.0078125 C16.86315004 30.07245483 8.82115674 25.41166679 1.38671875 18.76953125 C-10.07595191 8.612952 -19.11508433 4.74745822 -34.3828125 5.41015625 C-45.3173467 6.18623272 -51.48161778 11.9135559 -59.36328125 18.921875 C-62.8896427 22.0446774 -66.34648376 24.73178196 -70.61328125 26.76953125 C-71.40863281 27.15753906 -72.20398438 27.54554688 -73.0234375 27.9453125 C-83.84608277 32.37483398 -98.58103642 32.91541047 -109.73828125 29.20703125 C-116.49246371 26.18599117 -123.55572771 22.24300202 -128.61328125 16.76953125 C-126.94576977 12.82814047 -124.38617476 9.98025005 -121.61328125 6.76953125 C-118.64923497 8.16163389 -116.08546068 9.80310772 -113.42578125 11.70703125 C-104.4749179 17.66941417 -95.54714792 19.24639821 -84.90625 17.265625 C-76.37537253 14.97237837 -70.43835363 10.521379 -63.80078125 4.83203125 C-45.23287926 -11.034285 -20.91107722 -13.30092673 0 0 Z " fill="#FCFBFE" transform="translate(218.61328125,344.23046875)"></path><path d="M0 0 C4.29 0 8.58 0 13 0 C13.33 7.92 13.66 15.84 14 24 C14.99257812 22.2675 15.98515625 20.535 17.0078125 18.75 C18.02384999 17.07980138 19.04027621 15.40980961 20.06689453 13.74609375 C21.10750656 12.02886781 22.09538323 10.2800393 23.08203125 8.53125 C25.18332248 5.16918403 26.97005914 2.56748207 30 0 C34.83004769 -0.98472966 39.14787369 -0.74422814 44 0 C42.57199551 3.07935236 40.86102711 5.66833881 38.8125 8.37109375 C38.19632812 9.19287109 37.58015625 10.01464844 36.9453125 10.86132812 C35.65031526 12.57628933 34.35344414 14.28983719 33.0546875 16.00195312 C32.43851562 16.82501953 31.82234375 17.64808594 31.1875 18.49609375 C30.62417969 19.24044678 30.06085938 19.9847998 29.48046875 20.75170898 C27.87676817 23.18714411 26.71872275 25.16380946 26 28 C26.90472045 30.38366776 26.90472045 30.38366776 28.65625 32.58203125 C29.26726562 33.43216797 29.87828125 34.28230469 30.5078125 35.15820312 C31.16523438 36.03412109 31.82265625 36.91003906 32.5 37.8125 C33.12648438 38.67681641 33.75296875 39.54113281 34.3984375 40.43164062 C36.827141 43.76984823 39.29017285 47.07802958 41.80859375 50.34912109 C42.35644531 51.06277832 42.90429688 51.77643555 43.46875 52.51171875 C43.95794922 53.13908936 44.44714844 53.76645996 44.95117188 54.4128418 C46 56 46 56 46 58 C40.80058903 59.52663556 35.97383217 60.4623374 31 58 C25.26012349 52.10372359 21.31399796 44.61436947 17.3659668 37.4519043 C15.96702552 34.864265 15.96702552 34.864265 14 32 C13.67 40.58 13.34 49.16 13 58 C8.71 58 4.42 58 0 58 C0 38.86 0 19.72 0 0 Z " fill="#F9F8FD" transform="translate(230,179)"></path><path d="M0 0 C4.10219771 1.81259899 6.76415359 4.10797107 9 8 C9.75221681 12.16505233 10.00901339 16.14579827 7.94140625 19.9453125 C5.45481967 23.00005091 3.50859086 24.8299495 -0.42578125 25.2734375 C-8.25299519 25.54881986 -8.25299519 25.54881986 -12.0625 22.75 C-15.48630504 17.89040575 -16.63418719 15.13047618 -16 9 C-12.28890163 1.85269944 -8.07469431 -0.86514582 0 0 Z " fill="#7043CB" transform="translate(157,243)"></path><path d="M0 0 C3.48478389 1.24926215 5.43164611 2.35586559 7.875 5.125 C9.45756719 9.16933838 9.68659164 12.71446096 9 17 C6.9087445 21.10782331 5.23264925 23.26810866 1 25 C-2.99539131 25.76806044 -6.53605023 25.86098715 -10.10546875 23.76171875 C-14.38659553 20.20441134 -15.77364655 17.94017242 -16.4375 12.25 C-16.41253207 7.74744944 -14.51128348 5.53249625 -11.5078125 2.34765625 C-8.10471212 -0.69397491 -4.33696148 -0.44419531 0 0 Z " fill="#8350DE" transform="translate(253,109)"></path><path d="M0 0 C3.29110633 2.10070617 4.8333853 3.75007795 7 7 C7.45705286 12.57604492 7.22168614 16.2230171 4 21 C0.21498501 24.44092272 -3.71560657 24.50888729 -8.625 24.35546875 C-12.04405475 23.84373523 -13.72750658 22.5565551 -16 20 C-18.49648796 15.75330518 -18.82779132 11.82460196 -18 7 C-13.92211916 -0.68461211 -7.8642978 -1.96607445 0 0 Z " fill="#804EDB" transform="translate(351,244)"></path></svg>