<svg version="1.1" xmlns="http://www.w3.org/2000/svg" width="16px" height="16px" fill="currentColor" viewBox="0 0 512 512"><path d="M0 0 C168.96 0 337.92 0 512 0 C512 168.96 512 337.92 512 512 C343.04 512 174.08 512 0 512 C0 343.04 0 174.08 0 0 Z " fill="#3F52D5" transform="translate(0,0)"></path><path d="M0 0 C0.85428589 -0.0004985 1.70857178 -0.00099701 2.58874512 -0.00151062 C4.39431078 0.0008291 6.19987975 0.01055168 8.00537109 0.02709961 C10.77080415 0.05069213 13.53527313 0.04765993 16.30078125 0.04101562 C18.05469325 0.04659247 19.80860119 0.05370239 21.5625 0.0625 C22.80477356 0.06113289 22.80477356 0.06113289 24.07214355 0.05973816 C27.97916331 0.10804764 29.95841382 0.14805713 33.28125 2.36328125 C33.79296875 5.40234375 33.79296875 5.40234375 33.96875 8.98828125 C34.03449219 10.17679688 34.10023438 11.3653125 34.16796875 12.58984375 C34.22404297 13.96269531 34.22404297 13.96269531 34.28125 15.36328125 C35.8365412 16.06693727 37.40089827 16.75057503 38.96875 17.42578125 C40.27392578 18.00005859 40.27392578 18.00005859 41.60546875 18.5859375 C44.68362486 19.48017555 46.26746893 19.4113349 49.28125 18.36328125 C50.88840378 16.86919356 52.1245937 15.27941548 53.4609375 13.54296875 C55.28125 12.36328125 55.28125 12.36328125 58.52636719 12.4597168 C62.94596574 13.52323658 65.15462421 15.44222694 68.1796875 18.640625 C68.70011627 19.16717178 69.22054504 19.69371857 69.75674438 20.23622131 C71.40452469 21.91080071 73.02996414 23.60534812 74.65625 25.30078125 C75.77079387 26.43686454 76.88666738 27.57164502 78.00390625 28.70507812 C87.06426246 37.95286225 87.06426246 37.95286225 87.78125 42.61328125 C87.22693427 46.77064926 86.81607891 47.22484784 83.78125 49.80078125 C82.04875 51.06921875 82.04875 51.06921875 80.28125 52.36328125 C81.93125 56.65328125 83.58125 60.94328125 85.28125 65.36328125 C88.015625 65.49348958 90.75 65.62369792 93.484375 65.75390625 C97.0889068 66.53925117 98.08550754 67.39418284 100.28125 70.36328125 C100.87580355 73.30117512 100.84190976 76.19029907 100.8125 79.1796875 C100.8163269 80.03255844 100.82015381 80.88542938 100.82409668 81.7641449 C100.82681431 83.56372257 100.81946345 85.36333983 100.80273438 87.1628418 C100.78129495 89.92000075 100.80255324 92.67456191 100.828125 95.43164062 C100.82548221 97.18099534 100.82035825 98.93034844 100.8125 100.6796875 C100.82059692 101.50473282 100.82869385 102.32977814 100.83703613 103.17982483 C100.74381325 108.85566155 100.74381325 108.85566155 98.43652344 111.38769531 C95.52541932 112.7054085 93.21196972 112.65450037 90.03125 112.55078125 C88.95359375 112.52371094 87.8759375 112.49664062 86.765625 112.46875 C85.94578125 112.43394531 85.1259375 112.39914062 84.28125 112.36328125 C84.1265625 113.60078125 84.1265625 113.60078125 83.96875 114.86328125 C83.16478944 118.95617137 81.81772842 122.4886835 80.28125 126.36328125 C80.7865625 126.78738281 81.291875 127.21148437 81.8125 127.6484375 C82.78703125 128.52822266 82.78703125 128.52822266 83.78125 129.42578125 C84.4309375 129.99425781 85.080625 130.56273437 85.75 131.1484375 C87.99207483 134.3914386 87.71894493 136.48123855 87.28125 140.36328125 C85.59301598 142.73945412 84.11801936 144.48894715 82.05859375 146.48046875 C81.52029434 147.02309357 80.98199493 147.56571838 80.42738342 148.12478638 C79.28828381 149.26426629 78.14046002 150.39508346 76.98461914 151.51757812 C75.22551827 153.23168609 73.50371577 154.97772571 71.78320312 156.73046875 C70.66873104 157.83671902 69.55225673 158.94095657 68.43359375 160.04296875 C67.92287827 160.56269257 67.41216278 161.08241638 66.88597107 161.6178894 C63.19892374 165.14166621 60.36625098 166.24460698 55.28125 166.36328125 C53.2421875 164.89453125 53.2421875 164.89453125 51.65625 162.86328125 C49.96801993 160.92786725 49.96801993 160.92786725 48.28125 159.36328125 C45.70535136 159.04426534 45.70535136 159.04426534 43.28125 160.36328125 C36.32125 163.36328125 36.32125 163.36328125 33.28125 163.36328125 C33.32765625 164.26691406 33.3740625 165.17054688 33.421875 166.1015625 C33.45796875 167.28105469 33.4940625 168.46054687 33.53125 169.67578125 C33.57765625 170.84753906 33.6240625 172.01929688 33.671875 173.2265625 C33.28125 176.36328125 33.28125 176.36328125 31.77832031 178.03222656 C28.23543014 179.92075191 24.85694647 179.81169981 20.9375 179.796875 C20.13139282 179.80211685 19.32528564 179.8073587 18.49475098 179.8127594 C16.79355011 179.81917153 15.09230486 179.81785304 13.39111328 179.80932617 C10.78988726 179.80080953 8.19085326 179.8295965 5.58984375 179.86132812 C3.93489649 179.86294014 2.27994535 179.8623626 0.625 179.859375 C-0.15113647 179.87060898 -0.92727295 179.88184296 -1.72692871 179.89341736 C-5.27090891 179.84772197 -7.32665332 179.65260014 -10.21582031 177.52075195 C-12.25135798 174.59871713 -12.12191505 172.63607747 -11.96875 169.11328125 C-11.93265625 168.035625 -11.8965625 166.95796875 -11.859375 165.84765625 C-11.81296875 165.0278125 -11.7665625 164.20796875 -11.71875 163.36328125 C-12.585 163.26015625 -13.45125 163.15703125 -14.34375 163.05078125 C-17.71875 162.36328125 -17.71875 162.36328125 -20.84375 160.73828125 C-23.507108 159.21047409 -23.507108 159.21047409 -25.84375 159.36328125 C-27.9649693 160.31873283 -27.9649693 160.31873283 -29.53125 162.86328125 C-31.71875 165.36328125 -31.71875 165.36328125 -34.96875 166.61328125 C-39.05084828 166.34114136 -39.51431593 166.04158181 -42.36328125 163.4296875 C-43.06050293 162.79208496 -43.75772461 162.15448242 -44.47607422 161.49755859 C-48.42680823 157.73778102 -52.30934147 153.9165935 -56.15625 150.05078125 C-56.97029297 149.24060547 -57.78433594 148.43042969 -58.62304688 147.59570312 C-59.78223633 146.43458008 -59.78223633 146.43458008 -60.96484375 145.25 C-61.66279053 144.55092529 -62.3607373 143.85185059 -63.07983398 143.1315918 C-65.1668408 140.87981311 -65.67059179 139.66599001 -66.15625 136.61328125 C-65.60601716 132.52583732 -64.14247186 131.21171489 -61.2265625 128.46484375 C-59.71875 127.36328125 -59.71875 127.36328125 -57.71875 127.36328125 C-58.0796875 126.53183594 -58.440625 125.70039063 -58.8125 124.84375 C-59.2765625 123.75707031 -59.740625 122.67039062 -60.21875 121.55078125 C-60.6828125 120.47183594 -61.146875 119.39289063 -61.625 118.28125 C-62.71875 115.36328125 -62.71875 115.36328125 -62.71875 112.36328125 C-63.53859375 112.4096875 -64.3584375 112.45609375 -65.203125 112.50390625 C-66.28078125 112.54 -67.3584375 112.57609375 -68.46875 112.61328125 C-69.53609375 112.6596875 -70.6034375 112.70609375 -71.703125 112.75390625 C-74.71875 112.36328125 -74.71875 112.36328125 -76.87402344 110.87402344 C-79.47725139 107.33093235 -79.29293089 104.03193058 -79.25 99.80078125 C-79.2538269 98.97247803 -79.25765381 98.1441748 -79.26159668 97.29077148 C-79.26431425 95.54246808 -79.25696381 93.79412391 -79.24023438 92.04589844 C-79.21882082 89.37212348 -79.24003944 86.70103529 -79.265625 84.02734375 C-79.26298169 82.326817 -79.25785665 80.62629191 -79.25 78.92578125 C-79.26214539 77.72876587 -79.26214539 77.72876587 -79.27453613 76.50756836 C-79.2140262 72.91989 -79.02693128 70.78272756 -76.87402344 67.85253906 C-73.95277385 65.83400457 -71.98187338 65.96053676 -68.46875 66.11328125 C-67.39109375 66.149375 -66.3134375 66.18546875 -65.203125 66.22265625 C-64.38328125 66.2690625 -63.5634375 66.31546875 -62.71875 66.36328125 C-62.615625 65.49703125 -62.5125 64.63078125 -62.40625 63.73828125 C-61.71875 60.36328125 -61.71875 60.36328125 -60.03125 57.23828125 C-58.44775893 54.55342818 -58.44775893 54.55342818 -59.21875 52.30078125 C-60.7770979 50.17074914 -60.7770979 50.17074914 -63.34375 47.98828125 C-65.71875 45.36328125 -65.71875 45.36328125 -66.2253418 42.60498047 C-65.52688115 38.13550554 -63.10872659 35.90858996 -59.98828125 32.87109375 C-59.40084641 32.28029022 -58.81341156 31.68948669 -58.20817566 31.08078003 C-56.96530552 29.83820832 -55.71496173 28.60307316 -54.45776367 27.375 C-52.53585379 25.49278994 -50.64503904 23.58296696 -48.75585938 21.66796875 C-47.54341454 20.46308236 -46.3292764 19.259897 -45.11328125 18.05859375 C-44.26610283 17.20093918 -44.26610283 17.20093918 -43.40180969 16.32595825 C-40.95991248 13.96989858 -39.33477603 12.46361351 -35.93212891 11.90942383 C-33.01967015 12.50662886 -32.14151338 13.64617792 -30.28125 15.92578125 C-27.65846592 18.90528975 -27.65846592 18.90528975 -23.84375 19.48828125 C-22.296875 18.93140625 -22.296875 18.93140625 -20.71875 18.36328125 C-19.09384962 17.84213721 -17.46884459 17.32131936 -15.84375 16.80078125 C-14.46721703 16.32603638 -13.09166868 15.84837918 -11.71875 15.36328125 C-11.77095703 14.11611328 -11.77095703 14.11611328 -11.82421875 12.84375 C-11.85128906 11.75707031 -11.87835938 10.67039063 -11.90625 9.55078125 C-11.94105469 8.47183594 -11.97585937 7.39289063 -12.01171875 6.28125 C-11.71875 3.36328125 -11.71875 3.36328125 -10.44250488 1.70417786 C-7.43126133 -0.63824699 -3.6617794 -0.04072058 0 0 Z " fill="#4255D7" transform="translate(243.71875,148.63671875)"></path><path d="M0 0 C4.3259502 3.45509606 7.93253908 7.39880862 11 12 C13.56282742 12.72965366 13.56282742 12.72965366 16 13 C16.24363281 12.43796875 16.48726563 11.8759375 16.73828125 11.296875 C18.24736767 8.54968362 20.02966948 6.52296434 22.1875 4.25 C23.29158203 3.05117188 23.29158203 3.05117188 24.41796875 1.828125 C27 0 27 0 30.2109375 -0.6796875 C35.71289235 0.3072611 39.11289126 3.21065442 43.4375 6.625 C44.24509766 7.24246094 45.05269531 7.85992187 45.88476562 8.49609375 C47.4900962 9.72499306 49.08712759 10.96481651 50.67529297 12.21582031 C52.19838918 13.38477506 53.7549237 14.51166876 55.34423828 15.58886719 C60.67086526 19.22859046 60.67086526 19.22859046 62.25 22.9296875 C61.91800064 27.0070547 60.19535635 29.78891927 58 33.125 C55.01729674 37.26296129 55.01729674 37.26296129 54.171875 42.07104492 C55.23032659 44.53650071 56.15593152 44.98077475 58.5625 46.10546875 C59.27664063 46.44900391 59.99078125 46.79253906 60.7265625 47.14648438 C61.47679687 47.49001953 62.22703125 47.83355469 63 48.1875 C70.95146819 51.95146819 70.95146819 51.95146819 72 53 C71.56967179 59.52557399 70.2235118 65.30607826 68.1875 71.5 C67.93935547 72.29019531 67.69121094 73.08039063 67.43554688 73.89453125 C62.85137402 88.14862598 62.85137402 88.14862598 59 92 C56.75 92.01171875 56.75 92.01171875 54 91.6875 C53.02417969 91.57921875 52.04835938 91.4709375 51.04296875 91.359375 C49.53669922 91.18148437 49.53669922 91.18148437 48 91 C46.10449651 90.80919435 44.20868226 90.62143779 42.3125 90.4375 C40.87494803 90.29217982 39.43742722 90.14654898 38 90 C36.64695435 94.05913694 36.3781017 98.21666893 36.01367188 102.46289062 C35.67368029 105.4987447 35.23033642 107.67318855 33.45825195 110.1875 C30.05213398 112.6988735 26.94995496 112.59320228 22.875 112.56640625 C22.09108887 112.57260483 21.30717773 112.57880341 20.49951172 112.58518982 C18.84539022 112.59228026 17.19119723 112.58912739 15.53710938 112.57641602 C13.00777851 112.56254267 10.48214378 112.59663353 7.953125 112.63476562 C6.3437491 112.63571682 4.73436857 112.63385799 3.125 112.62890625 C2.3707373 112.64216446 1.61647461 112.65542267 0.83935547 112.66908264 C-2.95404427 112.60188716 -4.65080354 112.3270599 -7.4609375 109.69506836 C-10.82619564 103.80212981 -10.13766313 96.6078304 -10 90 C-10.66644531 90.06058594 -11.33289063 90.12117188 -12.01953125 90.18359375 C-13.95782923 90.35980266 -15.89668408 90.52994981 -17.8359375 90.6953125 C-19.90849837 90.89489244 -21.97741919 91.13819552 -24.0390625 91.4296875 C-24.99554688 91.55601562 -25.95203125 91.68234375 -26.9375 91.8125 C-27.81277344 91.94269531 -28.68804687 92.07289063 -29.58984375 92.20703125 C-32 92 -32 92 -34.00317383 90.37890625 C-36.35232458 87.58026034 -37.24245864 85.20428078 -38.359375 81.73046875 C-38.75253906 80.51166016 -39.14570313 79.29285156 -39.55078125 78.03710938 C-39.74752441 77.40442139 -39.94426758 76.7717334 -40.14697266 76.11987305 C-40.74658148 74.19845448 -41.36971663 72.28588352 -41.99609375 70.37304688 C-43.88926124 64.40736792 -45.47886079 59.327769 -45 53 C-41.69215027 49.43674191 -37.58869597 47.7060871 -33.1875 45.75 C-32.02605469 45.22921875 -30.86460937 44.7084375 -29.66796875 44.171875 C-28.78753906 43.78515625 -27.90710938 43.3984375 -27 43 C-28.59762569 37.73403959 -30.96438175 33.39500207 -33.7578125 28.68359375 C-35.79770614 24.27665371 -35.79770614 24.27665371 -35 21 C-32.92927604 18.65510211 -30.50710553 16.85686081 -28 15 C-27.26845703 14.45150391 -26.53691406 13.90300781 -25.78320312 13.33789062 C-23.45469162 11.61870924 -21.10655654 9.93049524 -18.75 8.25 C-17.94820313 7.67378906 -17.14640625 7.09757812 -16.3203125 6.50390625 C-5.81591644 -1.03185614 -5.81591644 -1.03185614 0 0 Z " fill="#FBFBFE" transform="translate(348,298)"></path><path d="M0 0 C0.85428589 -0.0004985 1.70857178 -0.00099701 2.58874512 -0.00151062 C4.39431078 0.0008291 6.19987975 0.01055168 8.00537109 0.02709961 C10.77080415 0.05069213 13.53527313 0.04765993 16.30078125 0.04101562 C18.05469325 0.04659247 19.80860119 0.05370239 21.5625 0.0625 C22.80477356 0.06113289 22.80477356 0.06113289 24.07214355 0.05973816 C27.97916331 0.10804764 29.95841382 0.14805713 33.28125 2.36328125 C33.79296875 5.40234375 33.79296875 5.40234375 33.96875 8.98828125 C34.03449219 10.17679688 34.10023438 11.3653125 34.16796875 12.58984375 C34.22404297 13.96269531 34.22404297 13.96269531 34.28125 15.36328125 C35.8365412 16.06693727 37.40089827 16.75057503 38.96875 17.42578125 C40.27392578 18.00005859 40.27392578 18.00005859 41.60546875 18.5859375 C44.68362486 19.48017555 46.26746893 19.4113349 49.28125 18.36328125 C50.88840378 16.86919356 52.1245937 15.27941548 53.4609375 13.54296875 C55.28125 12.36328125 55.28125 12.36328125 58.52636719 12.4597168 C62.94596574 13.52323658 65.15462421 15.44222694 68.1796875 18.640625 C68.70011627 19.16717178 69.22054504 19.69371857 69.75674438 20.23622131 C71.40452469 21.91080071 73.02996414 23.60534812 74.65625 25.30078125 C75.77079387 26.43686454 76.88666738 27.57164502 78.00390625 28.70507812 C87.06426246 37.95286225 87.06426246 37.95286225 87.78125 42.61328125 C87.22693427 46.77064926 86.81607891 47.22484784 83.78125 49.80078125 C82.04875 51.06921875 82.04875 51.06921875 80.28125 52.36328125 C81.93125 56.65328125 83.58125 60.94328125 85.28125 65.36328125 C88.015625 65.49348958 90.75 65.62369792 93.484375 65.75390625 C97.0889068 66.53925117 98.08550754 67.39418284 100.28125 70.36328125 C100.87580355 73.30117512 100.84190976 76.19029907 100.8125 79.1796875 C100.8163269 80.03255844 100.82015381 80.88542938 100.82409668 81.7641449 C100.82681431 83.56372257 100.81946345 85.36333983 100.80273438 87.1628418 C100.78129495 89.92000075 100.80255324 92.67456191 100.828125 95.43164062 C100.82548221 97.18099534 100.82035825 98.93034844 100.8125 100.6796875 C100.82059692 101.50473282 100.82869385 102.32977814 100.83703613 103.17982483 C100.74381325 108.85566155 100.74381325 108.85566155 98.43652344 111.38769531 C95.52541932 112.7054085 93.21196972 112.65450037 90.03125 112.55078125 C88.95359375 112.52371094 87.8759375 112.49664062 86.765625 112.46875 C85.94578125 112.43394531 85.1259375 112.39914062 84.28125 112.36328125 C84.1265625 113.60078125 84.1265625 113.60078125 83.96875 114.86328125 C83.16478944 118.95617137 81.81772842 122.4886835 80.28125 126.36328125 C80.7865625 126.78738281 81.291875 127.21148437 81.8125 127.6484375 C82.78703125 128.52822266 82.78703125 128.52822266 83.78125 129.42578125 C84.4309375 129.99425781 85.080625 130.56273437 85.75 131.1484375 C87.99207483 134.3914386 87.71894493 136.48123855 87.28125 140.36328125 C85.59301598 142.73945412 84.11801936 144.48894715 82.05859375 146.48046875 C81.52029434 147.02309357 80.98199493 147.56571838 80.42738342 148.12478638 C79.28828381 149.26426629 78.14046002 150.39508346 76.98461914 151.51757812 C75.22551827 153.23168609 73.50371577 154.97772571 71.78320312 156.73046875 C70.66873104 157.83671902 69.55225673 158.94095657 68.43359375 160.04296875 C67.92287827 160.56269257 67.41216278 161.08241638 66.88597107 161.6178894 C63.19892374 165.14166621 60.36625098 166.24460698 55.28125 166.36328125 C53.2421875 164.89453125 53.2421875 164.89453125 51.65625 162.86328125 C49.96801993 160.92786725 49.96801993 160.92786725 48.28125 159.36328125 C45.70535136 159.04426534 45.70535136 159.04426534 43.28125 160.36328125 C36.32125 163.36328125 36.32125 163.36328125 33.28125 163.36328125 C33.32765625 164.26691406 33.3740625 165.17054688 33.421875 166.1015625 C33.45796875 167.28105469 33.4940625 168.46054687 33.53125 169.67578125 C33.57765625 170.84753906 33.6240625 172.01929688 33.671875 173.2265625 C33.28125 176.36328125 33.28125 176.36328125 31.77832031 178.03222656 C28.23543014 179.92075191 24.85694647 179.81169981 20.9375 179.796875 C20.13139282 179.80211685 19.32528564 179.8073587 18.49475098 179.8127594 C16.79355011 179.81917153 15.09230486 179.81785304 13.39111328 179.80932617 C10.78988726 179.80080953 8.19085326 179.8295965 5.58984375 179.86132812 C3.93489649 179.86294014 2.27994535 179.8623626 0.625 179.859375 C-0.15113647 179.87060898 -0.92727295 179.88184296 -1.72692871 179.89341736 C-5.27090891 179.84772197 -7.32665332 179.65260014 -10.21582031 177.52075195 C-12.25135798 174.59871713 -12.12191505 172.63607747 -11.96875 169.11328125 C-11.93265625 168.035625 -11.8965625 166.95796875 -11.859375 165.84765625 C-11.81296875 165.0278125 -11.7665625 164.20796875 -11.71875 163.36328125 C-12.585 163.26015625 -13.45125 163.15703125 -14.34375 163.05078125 C-17.71875 162.36328125 -17.71875 162.36328125 -20.84375 160.73828125 C-23.507108 159.21047409 -23.507108 159.21047409 -25.84375 159.36328125 C-27.9649693 160.31873283 -27.9649693 160.31873283 -29.53125 162.86328125 C-31.71875 165.36328125 -31.71875 165.36328125 -34.96875 166.61328125 C-39.05084828 166.34114136 -39.51431593 166.04158181 -42.36328125 163.4296875 C-43.06050293 162.79208496 -43.75772461 162.15448242 -44.47607422 161.49755859 C-48.42680823 157.73778102 -52.30934147 153.9165935 -56.15625 150.05078125 C-56.97029297 149.24060547 -57.78433594 148.43042969 -58.62304688 147.59570312 C-59.78223633 146.43458008 -59.78223633 146.43458008 -60.96484375 145.25 C-61.66279053 144.55092529 -62.3607373 143.85185059 -63.07983398 143.1315918 C-65.1668408 140.87981311 -65.67059179 139.66599001 -66.15625 136.61328125 C-65.60601716 132.52583732 -64.14247186 131.21171489 -61.2265625 128.46484375 C-59.71875 127.36328125 -59.71875 127.36328125 -57.71875 127.36328125 C-58.0796875 126.53183594 -58.440625 125.70039063 -58.8125 124.84375 C-59.2765625 123.75707031 -59.740625 122.67039062 -60.21875 121.55078125 C-60.6828125 120.47183594 -61.146875 119.39289063 -61.625 118.28125 C-62.71875 115.36328125 -62.71875 115.36328125 -62.71875 112.36328125 C-63.53859375 112.4096875 -64.3584375 112.45609375 -65.203125 112.50390625 C-66.28078125 112.54 -67.3584375 112.57609375 -68.46875 112.61328125 C-69.53609375 112.6596875 -70.6034375 112.70609375 -71.703125 112.75390625 C-74.71875 112.36328125 -74.71875 112.36328125 -76.87402344 110.87402344 C-79.47725139 107.33093235 -79.29293089 104.03193058 -79.25 99.80078125 C-79.2538269 98.97247803 -79.25765381 98.1441748 -79.26159668 97.29077148 C-79.26431425 95.54246808 -79.25696381 93.79412391 -79.24023438 92.04589844 C-79.21882082 89.37212348 -79.24003944 86.70103529 -79.265625 84.02734375 C-79.26298169 82.326817 -79.25785665 80.62629191 -79.25 78.92578125 C-79.26214539 77.72876587 -79.26214539 77.72876587 -79.27453613 76.50756836 C-79.2140262 72.91989 -79.02693128 70.78272756 -76.87402344 67.85253906 C-73.95277385 65.83400457 -71.98187338 65.96053676 -68.46875 66.11328125 C-67.39109375 66.149375 -66.3134375 66.18546875 -65.203125 66.22265625 C-64.38328125 66.2690625 -63.5634375 66.31546875 -62.71875 66.36328125 C-62.615625 65.49703125 -62.5125 64.63078125 -62.40625 63.73828125 C-61.71875 60.36328125 -61.71875 60.36328125 -60.03125 57.23828125 C-58.44775893 54.55342818 -58.44775893 54.55342818 -59.21875 52.30078125 C-60.7770979 50.17074914 -60.7770979 50.17074914 -63.34375 47.98828125 C-65.71875 45.36328125 -65.71875 45.36328125 -66.2253418 42.60498047 C-65.52688115 38.13550554 -63.10872659 35.90858996 -59.98828125 32.87109375 C-59.40084641 32.28029022 -58.81341156 31.68948669 -58.20817566 31.08078003 C-56.96530552 29.83820832 -55.71496173 28.60307316 -54.45776367 27.375 C-52.53585379 25.49278994 -50.64503904 23.58296696 -48.75585938 21.66796875 C-47.54341454 20.46308236 -46.3292764 19.259897 -45.11328125 18.05859375 C-44.26610283 17.20093918 -44.26610283 17.20093918 -43.40180969 16.32595825 C-40.95991248 13.96989858 -39.33477603 12.46361351 -35.93212891 11.90942383 C-33.01967015 12.50662886 -32.14151338 13.64617792 -30.28125 15.92578125 C-27.65846592 18.90528975 -27.65846592 18.90528975 -23.84375 19.48828125 C-22.296875 18.93140625 -22.296875 18.93140625 -20.71875 18.36328125 C-19.09384962 17.84213721 -17.46884459 17.32131936 -15.84375 16.80078125 C-14.46721703 16.32603638 -13.09166868 15.84837918 -11.71875 15.36328125 C-11.77095703 14.11611328 -11.77095703 14.11611328 -11.82421875 12.84375 C-11.85128906 11.75707031 -11.87835938 10.67039063 -11.90625 9.55078125 C-11.94105469 8.47183594 -11.97585937 7.39289063 -12.01171875 6.28125 C-11.71875 3.36328125 -11.71875 3.36328125 -10.44250488 1.70417786 C-7.43126133 -0.63824699 -3.6617794 -0.04072058 0 0 Z M1.28125 12.36328125 C1.095625 15.02390625 1.095625 15.02390625 0.90625 17.73828125 C0.53125 23.11328125 0.53125 23.11328125 -1.71875 25.36328125 C-4.10871494 26.21291812 -6.48376573 26.99507192 -8.90625 27.73828125 C-15.04678283 29.67277698 -15.04678283 29.67277698 -20.71875 32.67578125 C-24.40792294 34.75094103 -26.55251934 35.07075438 -30.71875 34.36328125 C-33.15625 31.86328125 -33.15625 31.86328125 -34.71875 29.36328125 C-39.16801052 29.77642687 -41.55975104 32.86789652 -44.46875 35.92578125 C-44.97535156 36.44591797 -45.48195313 36.96605469 -46.00390625 37.50195312 C-47.24909405 38.78238209 -48.48486502 40.07195679 -49.71875 41.36328125 C-48.53935878 43.9186289 -47.71003236 45.37122968 -45.59375 47.30078125 C-43.71875 49.36328125 -43.71875 49.36328125 -43.36328125 51.50390625 C-43.86608053 55.54840154 -45.61867453 58.61524232 -47.53125 62.17578125 C-49.7279492 66.32686744 -51.78461847 70.37872813 -53.35546875 74.8125 C-54.71875 78.36328125 -54.71875 78.36328125 -56.71875 79.36328125 C-61.17375 79.85828125 -61.17375 79.85828125 -65.71875 80.36328125 C-65.71875 86.63328125 -65.71875 92.90328125 -65.71875 99.36328125 C-64.130625 99.46640625 -62.5425 99.56953125 -60.90625 99.67578125 C-56.31617543 99.97383804 -56.31617543 99.97383804 -54.046875 101.453125 C-52.09260532 104.26382463 -51.24821557 107.36782905 -50.28125 110.61328125 C-48.98595817 114.78551054 -47.74877867 118.73918021 -45.34375 122.42578125 C-43.71875 125.36328125 -43.71875 125.36328125 -43.65625 128.48828125 C-44.97377148 132.05333938 -46.87963731 133.88815737 -49.71875 136.36328125 C-48.13207422 140.26613892 -45.58524519 142.69849107 -42.59375 145.61328125 C-41.68367188 146.5053125 -40.77359375 147.39734375 -39.8359375 148.31640625 C-38.78792969 149.32960938 -38.78792969 149.32960938 -37.71875 150.36328125 C-35.11371878 149.17133115 -33.77062613 148.42589037 -31.90625 146.17578125 C-29.71875 144.36328125 -29.71875 144.36328125 -26.59375 144.30078125 C-22.54682318 145.14281698 -19.11523318 147.09876866 -15.4921875 149.02734375 C-11.49262757 150.95389234 -7.33574201 152.19768492 -3.08984375 153.46875 C-0.71875 154.36328125 -0.71875 154.36328125 0.28125 156.36328125 C0.72278444 159.68841717 0.98133531 163.02137473 1.28125 166.36328125 C7.55125 166.36328125 13.82125 166.36328125 20.28125 166.36328125 C20.61125 162.40328125 20.94125 158.44328125 21.28125 154.36328125 C23.385 153.77546875 23.385 153.77546875 25.53125 153.17578125 C32.69356894 151.03015075 40.03607506 148.52673121 46.28125 144.36328125 C49.71875 144.42578125 49.71875 144.42578125 53.28125 145.36328125 C55.71875 147.92578125 55.71875 147.92578125 57.28125 150.36328125 C61.11372336 148.77835652 63.61211291 146.33211511 66.53125 143.42578125 C67.86929688 142.11287109 67.86929688 142.11287109 69.234375 140.7734375 C71.60491281 138.50918254 71.60491281 138.50918254 71.28125 135.36328125 C70.45625 134.80640625 69.63125 134.24953125 68.78125 133.67578125 C66.28125 131.36328125 66.28125 131.36328125 65.53125 127.98828125 C65.80987223 123.01951814 68.33396501 118.8953672 70.6340332 114.59960938 C73.15457078 109.84567593 74.46027166 105.65403058 75.28125 100.36328125 C81.22125 99.86828125 81.22125 99.86828125 87.28125 99.36328125 C87.28125 93.09328125 87.28125 86.82328125 87.28125 80.36328125 C84.31125 80.03328125 81.34125 79.70328125 78.28125 79.36328125 C74.35844406 76.67066725 73.51107753 73.67833031 72.34375 69.17578125 C71.13649645 64.86347156 69.83635992 61.28822977 67.46875 57.48828125 C65.56056108 54.29029796 65.28125286 53.36346174 65.21875 49.42578125 C66.28125 46.36328125 66.28125 46.36328125 68.34375 44.92578125 C68.983125 44.74015625 69.6225 44.55453125 70.28125 44.36328125 C70.73233353 40.33073524 70.73233353 40.33073524 68.15625 38.05078125 C67.2075 37.16390625 66.25875 36.27703125 65.28125 35.36328125 C63.6966053 33.50355153 62.14892885 31.61906325 60.61328125 29.71875 C60.17371094 29.27144531 59.73414063 28.82414062 59.28125 28.36328125 C58.62125 28.36328125 57.96125 28.36328125 57.28125 28.36328125 C56.1562157 29.90618543 55.03465754 31.45348599 53.98828125 33.05078125 C51.13922622 35.24135903 48.76110007 34.72900951 45.28125 34.36328125 C41.8515625 32.9375 41.8515625 32.9375 38.40625 31.05078125 C34.34376031 28.87989002 30.38661396 26.90794906 25.96875 25.55078125 C24.1434375 24.96296875 24.1434375 24.96296875 22.28125 24.36328125 C20.45445894 20.70969913 20.64201174 16.38319781 20.28125 12.36328125 C14.01125 12.36328125 7.74125 12.36328125 1.28125 12.36328125 Z " fill="#FBFBFE" transform="translate(243.71875,148.63671875)"></path><path d="M0 0 C14.23449536 12.29469258 28.41219382 26.91725688 36.57421875 44.13671875 C36.57421875 45.12671875 36.57421875 46.11671875 36.57421875 47.13671875 C35.14409902 48.00318542 33.70481256 48.85453704 32.26171875 49.69921875 C31.46121094 50.17488281 30.66070312 50.65054688 29.8359375 51.140625 C27.57421875 52.13671875 27.57421875 52.13671875 24.57421875 51.13671875 C22.98071085 48.7464569 21.51537094 46.36602272 20.07421875 43.88671875 C15.27321898 35.92251846 9.83437 28.99442989 3.57421875 22.13671875 C2.57648438 21.03263672 2.57648438 21.03263672 1.55859375 19.90625 C-19.06389967 -1.79935757 -51.8017681 -17.22654687 -81.703125 -18.1171875 C-116.0235674 -18.63828975 -148.05747938 -10.78474627 -174.42578125 12.13671875 C-175.76382813 13.25820312 -175.76382813 13.25820312 -177.12890625 14.40234375 C-196.86576129 31.49291655 -210.50363701 56.54768318 -215.42578125 82.13671875 C-215.42578125 84.11671875 -215.42578125 86.09671875 -215.42578125 88.13671875 C-211.79578125 84.50671875 -208.16578125 80.87671875 -204.42578125 77.13671875 C-197.46484375 82.80859375 -197.46484375 82.80859375 -195.42578125 87.13671875 C-198.99936056 90.85878473 -202.59234185 94.56056639 -206.20458984 98.24511719 C-207.43015527 99.50082744 -208.65027821 100.76187386 -209.86474609 102.02832031 C-211.61317356 103.84965849 -213.38038441 105.65080289 -215.15234375 107.44921875 C-215.95896957 108.30229614 -215.95896957 108.30229614 -216.78189087 109.17260742 C-219.34021037 111.73315616 -220.97346199 113.06002661 -224.58349609 113.67211914 C-227.72015194 113.08126823 -228.89944801 112.44569861 -231.17578125 110.2578125 C-231.85253906 109.61827637 -232.52929688 108.97874023 -233.2265625 108.31982422 C-233.95230469 107.59939941 -234.67804688 106.87897461 -235.42578125 106.13671875 C-236.22371094 105.35828613 -237.02164063 104.57985352 -237.84375 103.77783203 C-240.39039666 101.27017473 -242.9111509 98.73895677 -245.42578125 96.19921875 C-246.29589844 95.32458984 -247.16601562 94.44996094 -248.0625 93.54882812 C-250.18591674 91.41374426 -252.30694503 89.2763467 -254.42578125 87.13671875 C-252.42578125 83.13671875 -252.42578125 83.13671875 -245.42578125 77.13671875 C-240.80578125 81.75671875 -236.18578125 86.37671875 -231.42578125 91.13671875 C-231.08546875 89.491875 -230.74515625 87.84703125 -230.39453125 86.15234375 C-222.37968541 48.71969057 -204.78253615 14.65193853 -172.1015625 -7.1875 C-118.83302052 -40.5483825 -49.7412002 -41.43571111 0 0 Z " fill="#FBFBFE" transform="translate(344.42578125,127.86328125)"></path><path d="M0 0 C8.79410212 6.3729014 15.15487626 14.42328439 18 25 C19.43872306 37.02063541 18.29885056 47.83748527 10.9453125 57.77734375 C3.3769647 66.69437637 -6.18265039 72.97340043 -18.01953125 74.3515625 C-29.85070437 74.68569062 -40.43794821 70.99893351 -49.23046875 62.9609375 C-55.60328881 56.19355259 -60.51854914 48.46853353 -61 39 C-61.11021484 37.56527344 -61.11021484 37.56527344 -61.22265625 36.1015625 C-61.72218119 25.31694709 -58.5576372 16.20018748 -51.71875 7.80859375 C-38.40726019 -6.19872394 -16.94313627 -10.71146577 0 0 Z " fill="#FBFBFE" transform="translate(276,204)"></path><path d="M0 0 C1.75390625 1.6796875 1.75390625 1.6796875 3.5625 3.875 C4.16191406 4.59429687 4.76132812 5.31359375 5.37890625 6.0546875 C5.91386719 6.69664062 6.44882812 7.33859375 7 8 C9.83994609 10.83994609 11.85397569 10.33354948 15.8125 10.375 C17.03582031 10.40335937 18.25914062 10.43171875 19.51953125 10.4609375 C24.80338217 9.76116824 27.59580708 6.79384253 30.8125 2.75 C31.534375 1.8425 32.25625 0.935 33 0 C37.26029191 0.57999024 40.35161535 3.12387893 43.75 5.5625 C44.35199219 5.98724609 44.95398438 6.41199219 45.57421875 6.84960938 C47.05329714 7.89435522 48.52717259 8.94646016 50 10 C48.83469576 13.07598327 47.64396899 15.56546102 45.875 18.375 C43.3381222 22.80023046 43.34096239 26.30815622 44.5546875 31.265625 C46.3066433 36.3045836 48.27497835 38.58177739 53.0625 41 C55.68627521 42.13631167 58.28665397 43.09555132 61 44 C60.28739906 48.28379643 58.93078264 52.25093853 57.4375 56.3125 C57.08655273 57.28026367 57.08655273 57.28026367 56.72851562 58.26757812 C56.15552993 59.84621219 55.57820536 61.42327026 55 63 C53.700625 62.835 52.40125 62.67 51.0625 62.5 C49.37552209 62.32812921 47.68799118 62.16161618 46 62 C44.85144531 61.86271484 44.85144531 61.86271484 43.6796875 61.72265625 C38.47578505 61.35094893 34.74633104 62.2674388 30.6640625 65.6015625 C26.96620825 70.93133365 26.82221749 77.73059162 26 84 C19.4 84 12.8 84 6 84 C5.855625 81.669375 5.71125 79.33875 5.5625 76.9375 C5.00901108 71.69148579 4.07154382 68.04397008 -0.125 64.5625 C-4.59095947 61.77305886 -7.87815611 61.22396305 -13 62 C-14.66666667 62.16666667 -16.33333333 62.33333333 -18 62.5 C-19.33388058 62.66222872 -20.6674398 62.82726071 -22 63 C-24.70071112 56.72019113 -26.70024676 50.71539173 -28 44 C-27.02417969 43.59910156 -26.04835938 43.19820313 -25.04296875 42.78515625 C-17.91905646 39.85660052 -17.91905646 39.85660052 -12.3671875 34.77734375 C-10.70300303 30.06754014 -10.62326151 25.8185847 -12 21 C-13.22337513 18.57330506 -14.53034289 16.24042714 -15.94140625 13.91796875 C-17 12 -17 12 -17 10 C-14.76360773 8.19788734 -12.53217136 6.52435503 -10.1875 4.875 C-9.54490234 4.40707031 -8.90230469 3.93914062 -8.24023438 3.45703125 C-3.37720937 0 -3.37720937 0 0 0 Z " fill="#4356D7" transform="translate(345,313)"></path><path d="M0 0 C1.7552859 2.41617075 3.22113695 4.72910058 4.6875 7.3125 C22.63808511 37.34463807 51.46095649 58.65906796 85.375 67.25 C105.39076264 72.25085979 126.90873361 71.13832915 147 67 C147.99128906 66.80277344 148.98257813 66.60554688 150.00390625 66.40234375 C150.66261719 66.26957031 151.32132813 66.13679688 152 66 C152.50757862 67.41396902 153.00574925 68.83131729 153.5 70.25 C153.91765625 71.43335938 153.91765625 71.43335938 154.34375 72.640625 C155 75 155 75 155 79 C152.89634047 79.46065537 150.79203832 79.91837622 148.6875 80.375 C147.51574219 80.63023437 146.34398437 80.88546875 145.13671875 81.1484375 C143.75789052 81.43267038 142.37897723 81.71649087 141 82 C140.19602783 82.17716553 139.39205566 82.35433105 138.5637207 82.53686523 C130.95953707 84.09682316 123.56076103 84.34706776 115.8125 84.3125 C114.53036621 84.30831055 113.24823242 84.30412109 111.92724609 84.29980469 C102.55639625 84.18817626 94.06463022 83.36291484 85 81 C83.77023438 80.7215625 82.54046875 80.443125 81.2734375 80.15625 C71.64657162 77.84420768 62.8769206 74.29880373 54 70 C53.02450195 69.52771973 53.02450195 69.52771973 52.02929688 69.04589844 C38.84397371 62.55882503 27.66523293 54.11246172 17 44 C16.525625 43.55817383 16.05125 43.11634766 15.5625 42.66113281 C4.05915368 31.89921311 -4.39193764 19.75497367 -12 6 C-7.97117324 1.87045257 -5.91866391 0 0 0 Z " fill="#FAFBFE" transform="translate(139,297)"></path><path d="M0 0 C5.08871596 4.08191624 8.63681082 9.146532 9.87890625 15.64453125 C10.64550168 24.43847599 10.64002463 31.62796334 4.87890625 38.64453125 C-1.48036175 45.57328593 -7.62662552 48.67725598 -16.99609375 49.14453125 C-24.28052164 48.92406937 -29.77901583 46.65870718 -35.19140625 41.77734375 C-42.08098148 34.36888838 -43.7764838 28.18951095 -43.53125 18.15625 C-42.717442 11.1885034 -39.85775947 5.90977298 -34.68359375 1.20703125 C-23.83052788 -7.1269933 -11.5559046 -7.38471251 0 0 Z " fill="#4255D7" transform="translate(271.12109375,216.35546875)"></path><path d="M0 0 C4.85426053 5.07490873 7.9875304 10.75928635 8.3125 17.875 C7.85206694 25.39540672 5.51905868 31.65362246 -0.0625 36.8125 C-6.17790276 41.57891686 -11.65755512 43.52996392 -19.40625 43.28515625 C-26.59957452 42.24765752 -32.66022346 38.5784688 -37.06640625 32.82421875 C-40.52393602 27.13013508 -42.40538637 20.51529748 -41.25 13.875 C-38.62443639 5.86366488 -34.6785786 0.09909371 -27.25 -4.125 C-16.56071613 -8.08399403 -9.18624655 -6.00639198 0 0 Z " fill="#FAFAFE" transform="translate(378.25,335.125)"></path><path d="M0 0 C3.20932932 2.00509474 6.08942521 4.33754372 9 6.75 C10.54069295 7.99599665 12.08234607 9.24080704 13.625 10.484375 C14.35847656 11.08056641 15.09195313 11.67675781 15.84765625 12.29101562 C18.81858382 14.64996446 21.88797615 16.8315153 25 19 C24.07265428 20.48555383 23.13275187 21.96327506 22.1875 23.4375 C21.66542969 24.26121094 21.14335937 25.08492188 20.60546875 25.93359375 C19 28 19 28 16 29 C13.86583293 27.63354025 11.96536094 26.26596018 10 24.6875 C8.93789356 23.85756901 7.87540537 23.02812629 6.8125 22.19921875 C5.884375 21.47347656 4.95625 20.74773437 4 20 C3.01 19.34 2.02 18.68 1 18 C1.05220703 19.0209375 1.05220703 19.0209375 1.10546875 20.0625 C1.28040624 26.3269281 0.81625567 32.22931447 -0.3125 38.375 C-0.48906128 39.37273437 -0.48906128 39.37273437 -0.66918945 40.390625 C-1.50725528 44.66299128 -2.89823789 48.19681142 -5 52 C-9.34116587 51.3422476 -12.9947883 49.75965131 -17 48 C-16.73445313 46.82824219 -16.46890625 45.65648437 -16.1953125 44.44921875 C-14.29003091 35.9907049 -12.46543036 27.54834377 -11 19 C-15.62 22.3 -20.24 25.6 -25 29 C-28.98036219 27.00981891 -29.66470578 26.46634005 -31.75 22.875 C-32.39195312 21.78832031 -32.39195312 21.78832031 -33.046875 20.6796875 C-33.36140625 20.12539063 -33.6759375 19.57109375 -34 19 C-30.62730896 16.41364114 -27.25144197 13.8314596 -23.875 11.25 C-22.92367188 10.52039063 -21.97234375 9.79078125 -20.9921875 9.0390625 C-19.14652552 7.62918182 -17.29480039 6.22719593 -15.43652344 4.83398438 C-14.01584608 3.76463284 -12.606358 2.67944745 -11.22753906 1.55664062 C-7.26193372 -1.50517559 -4.70858281 -1.49637166 0 0 Z " fill="#FBFBFE" transform="translate(393,236)"></path><path d="M0 0 C2.70552388 2.19823815 4.44778333 3.89556667 6 7 C6.58029015 14.07953977 6.58029015 14.07953977 4.1875 17.875 C1.09178412 20.88226686 -0.44867838 21.94577164 -4.8125 22.375 C-9.15636697 22.26300343 -11.67638916 20.84880929 -15 18 C-17.58644464 14.5905957 -17.36503115 11.1613551 -17 7 C-15.68407862 3.95260312 -14.35508251 2.3133081 -11.875 0.125 C-7.72812429 -1.4976905 -4.24627208 -1.28465115 0 0 Z " fill="#4558D7" transform="translate(367,343)"></path></svg>