<svg version="1.1" xmlns="http://www.w3.org/2000/svg" width="16px" height="16px" fill="currentColor" viewBox="0 0 512 512"><path d="M0 0 C168.96 0 337.92 0 512 0 C512 168.96 512 337.92 512 512 C343.04 512 174.08 512 0 512 C0 343.04 0 174.08 0 0 Z " fill="#E3740D" transform="translate(0,0)"></path><path d="M0 0 C1.00010605 -0.0033284 2.0002121 -0.0066568 3.03062439 -0.01008606 C5.14272606 -0.01513296 7.25483566 -0.01749508 9.36694336 -0.01733398 C12.55531421 -0.01950771 15.74333145 -0.03765232 18.93164062 -0.05664062 C32.28196808 -0.09425914 45.03901003 0.35857327 57.96484375 4.04296875 C61.76585832 5.11151123 65.55788792 6.17566662 69.38671875 7.140625 C77.47511426 9.17923081 84.9752568 11.629229 92.52734375 15.16796875 C93.32060059 15.53809082 94.11385742 15.90821289 94.93115234 16.28955078 C107.58513601 22.24749701 119.35557389 28.73991205 130.52734375 37.16796875 C131.92726563 38.204375 131.92726563 38.204375 133.35546875 39.26171875 C162.71767451 62.11852563 184.67066857 94.85977661 190.83984375 131.91796875 C195.15065933 170.59095855 186.17098599 207.59881831 162.0390625 238.40234375 C150.89307166 252.16352477 138.31980513 264.40400652 123.52734375 274.16796875 C122.94049805 274.55645996 122.35365234 274.94495117 121.74902344 275.34521484 C104.31221698 286.70380008 85.49149409 294.50231426 65.52734375 300.16796875 C64.61984375 300.43085693 63.71234375 300.69374512 62.77734375 300.96459961 C14.35034699 314.66947361 -41.85716316 306.46406248 -85.47265625 282.16796875 C-94.68711686 276.86900742 -103.43253968 271.14981357 -111.47265625 264.16796875 C-112.27832031 263.471875 -113.08398438 262.77578125 -113.9140625 262.05859375 C-139.10445873 239.82481679 -157.0157851 213.27257683 -164.47265625 180.16796875 C-164.64966064 179.39227539 -164.82666504 178.61658203 -165.0090332 177.81738281 C-166.63601256 169.88248016 -166.81969694 162.1249973 -166.78515625 154.04296875 C-166.78192352 153.0153392 -166.78192352 153.0153392 -166.77862549 151.96694946 C-166.57376967 111.36701395 -148.3827843 77.68023139 -120.1237793 49.44604492 C-113.40994587 42.90220051 -106.29103301 37.3218357 -98.47265625 32.16796875 C-96.85810547 31.09675781 -96.85810547 31.09675781 -95.2109375 30.00390625 C-67.41224813 12.29207218 -33.14788935 0.03891031 0 0 Z " fill="#E3750F" transform="translate(243.47265625,102.83203125)"></path><path d="M0 0 C0.86214111 0.53633057 0.86214111 0.53633057 1.74169922 1.08349609 C23.96002509 15.21343615 41.15012605 36.44507115 47.66015625 62.171875 C49.12727629 68.85932478 49.53987402 75.29208831 49.5 82.125 C49.49033203 83.88324097 49.49033203 83.88324097 49.48046875 85.67700195 C48.93530914 111.89308196 37.12327234 133.47560997 18.78442383 151.77416992 C-10.06841742 179.28448637 -47.06750924 185.89358866 -85.421875 185.12744141 C-92.5248756 184.87445517 -99.14554504 183.91796017 -106 182 C-107.19979492 181.66935547 -107.19979492 181.66935547 -108.42382812 181.33203125 C-139.67574063 172.42982859 -166.48414152 154.38663176 -183 126 C-187 118.33333333 -187 118.33333333 -187 115 C-185.84650653 114.99641747 -185.84650653 114.99641747 -184.66971016 114.99276257 C-165.93113525 114.93354545 -147.1926913 114.8579525 -128.45425606 114.76428509 C-119.39236746 114.71937972 -110.33051769 114.67995299 -101.26855469 114.65356445 C-93.3672497 114.63054171 -85.46606817 114.5970961 -77.56486118 114.55129844 C-73.38385066 114.52742374 -69.20296197 114.50865736 -65.02188492 114.50238609 C-61.08034583 114.49630908 -57.13911823 114.47621565 -53.19769478 114.44572449 C-51.7570659 114.43698597 -50.31639624 114.43321293 -48.87574196 114.43499184 C-37.04889838 114.44497778 -26.05320549 113.30886929 -17 105 C-10.06357352 95.73162715 -7.97438286 87.51255239 -9 76 C-9.87590505 72.64568181 -11.19528828 69.94693433 -13 67 C-13.54914063 65.97132813 -13.54914063 65.97132813 -14.109375 64.921875 C-18.32920012 58.09721956 -25.5785851 54.50380479 -33 52 C-38.25244343 51.09141409 -43.41274076 51.0506524 -48.72607422 51.11352539 C-50.24537972 51.10561439 -51.76467182 51.094638 -53.28393555 51.08087158 C-57.36187746 51.05242936 -61.43865617 51.06624034 -65.51659536 51.08831334 C-69.79542101 51.10406402 -74.07403038 51.08002186 -78.35281372 51.06040955 C-86.43440459 51.02930584 -94.51556918 51.03339025 -102.59718621 51.05048412 C-111.8066116 51.06822273 -121.01581185 51.04617482 -130.22520423 51.02097714 C-149.15022063 50.97007804 -168.07495018 50.96851798 -187 51 C-186.22863278 46.58770456 -184.68119278 43.15679563 -182.4375 39.3125 C-182.07744873 38.69383057 -181.71739746 38.07516113 -181.34643555 37.43774414 C-172.2757886 22.18553138 -159.19380948 9.13129604 -144 0 C-143.37673828 -0.37608398 -142.75347656 -0.75216797 -142.11132812 -1.13964844 C-99.57964592 -26.28350219 -42.05585558 -26.340819 0 0 Z " fill="#E4750D" transform="translate(328,173)"></path><path d="M0 0 C2.17655349 -0.00217486 4.35258927 -0.02034661 6.52905273 -0.03930664 C15.21157623 -0.0744988 23.45330826 0.56185315 32.01147461 2.18530273 C32.74213135 2.3101001 33.47278809 2.43489746 34.22558594 2.56347656 C67.06623387 8.35741913 98.71452141 27.97786712 118.32397461 54.99780273 C126.34409689 66.49164952 131.73765803 78.571412 135.01147461 92.18530273 C135.36725586 93.37381836 135.72303711 94.56233398 136.08959961 95.78686523 C142.04882255 119.81876527 134.75977784 146.92452142 123.00366211 167.93920898 C112.89922179 184.40350291 99.10873434 197.66242821 83.01147461 208.18530273 C82.20838867 208.73444336 81.40530273 209.28358398 80.57788086 209.84936523 C72.3589619 215.17670612 63.0770381 218.58522997 54.01147461 222.18530273 C53.0047168 222.60038086 51.99795898 223.01545898 50.96069336 223.44311523 C26.89932792 232.49731793 -5.14513974 233.80484562 -29.98852539 227.18530273 C-31.4759266 226.84935116 -32.96427185 226.51756109 -34.45336914 226.18920898 C-56.54479523 221.10990972 -75.7282684 210.74476411 -92.98852539 196.18530273 C-93.62274414 195.67354492 -94.25696289 195.16178711 -94.91040039 194.63452148 C-111.26385261 181.21166579 -126.32759567 158.02590855 -129.32836914 136.77905273 C-129.45891534 133.89659276 -129.29045156 131.72206038 -127.86352539 129.18530273 C-124.92663088 127.618959 -123.31079979 127.69311393 -119.98852539 128.18530273 C-118.70773583 128.9908618 -117.44506015 129.82549039 -116.19509888 130.67810059 C-109.85266078 134.27046939 -103.41053051 133.8722895 -96.30834961 133.80053711 C-94.84055949 133.80404376 -93.37277319 133.80970846 -91.90499878 133.81735229 C-87.9421226 133.83152958 -83.97994618 133.81461045 -80.01713705 133.79106712 C-75.85909457 133.77087397 -71.70107875 133.77684193 -67.54299927 133.7791748 C-60.56427551 133.77912134 -53.58582343 133.75942351 -46.60717773 133.72729492 C-38.54942719 133.69037767 -30.49203188 133.68162444 -22.4342078 133.68859243 C-14.6659301 133.6949057 -6.89777363 133.68412979 0.87047958 133.66462708 C4.1693584 133.65647212 7.46817509 133.65373999 10.76706314 133.65531921 C14.6528984 133.65620061 18.53839807 133.64191383 22.42414474 133.61609268 C23.84669619 133.60895473 25.2692834 133.6068358 26.69184875 133.61021042 C35.49345489 133.62710184 41.83535155 133.61900391 48.82397461 127.87280273 C52.51974821 123.33228089 53.43991434 119.04482889 53.26147461 113.20092773 C52.50818556 107.12753481 49.55671162 103.06538311 45.01147461 99.18530273 C41.59967445 97.03138735 38.84243687 96.93206143 34.84501648 96.92460632 C33.57909668 96.91752151 32.31317688 96.91043671 31.00889587 96.90313721 C29.60830653 96.905431 28.20771752 96.90794069 26.80712891 96.91064453 C25.33022809 96.90629667 23.85332953 96.90111327 22.37643433 96.89515686 C18.36597311 96.88176138 14.3556061 96.88118896 10.34512687 96.88372016 C6.99535578 96.88478983 3.64560375 96.87990645 0.29583675 96.87511474 C-7.60943062 96.86401696 -15.51465048 96.86358321 -23.41992188 96.86962891 C-31.56899561 96.8756654 -39.71789654 96.86336659 -47.8669408 96.84205884 C-54.86750873 96.82442864 -61.86802173 96.81844384 -68.86861104 96.82169658 C-73.04781903 96.82350784 -77.22690384 96.82088933 -81.40609169 96.80698204 C-85.3385944 96.79438574 -89.27082849 96.79636471 -93.20332718 96.80939293 C-94.64363001 96.81175462 -96.08395184 96.80903864 -97.52423286 96.80076981 C-106.56050874 96.75264808 -112.40999129 97.13294667 -119.98852539 102.18530273 C-123.04456377 102.50364007 -125.12187758 102.6475149 -127.86352539 101.18530273 C-130.33912092 96.78424401 -129.33676928 92.59005464 -128.17993164 87.92358398 C-123.54519699 72.83263136 -116.0046002 59.35953731 -105.98852539 47.18530273 C-105.38137695 46.43764648 -104.77422852 45.68999023 -104.14868164 44.91967773 C-78.95285992 14.98178526 -38.29058536 -0.00426921 0 0 Z M-36.73852539 17.74780273 C-37.5699707 18.00319824 -38.40141602 18.25859375 -39.25805664 18.52172852 C-58.87534778 24.82041758 -75.21605979 34.95996549 -89.98852539 49.18530273 C-90.70782227 49.82983398 -91.42711914 50.47436523 -92.16821289 51.13842773 C-100.43867583 58.77781118 -107.81342364 69.69284014 -111.98852539 80.18530273 C-111.98852539 81.17530273 -111.98852539 82.16530273 -111.98852539 83.18530273 C-111.20775572 83.18400392 -110.42698605 83.1827051 -109.62255669 83.18136692 C-90.57375647 83.15209161 -71.52533195 83.16164994 -52.47657585 83.21376896 C-43.26447332 83.23804976 -34.0526987 83.24946553 -24.84057617 83.22998047 C-16.80582424 83.21301904 -8.77153128 83.22082235 -0.73683941 83.25765032 C3.5127275 83.27628278 7.76151927 83.28299838 12.0110817 83.25999641 C16.02194645 83.23867934 20.03140132 83.2508052 24.04214478 83.28714752 C25.50367863 83.29475771 26.96533316 83.29078244 28.42678452 83.273489 C39.7839468 83.14954081 49.97681899 85.361865 58.40097237 93.49116611 C60.20577074 95.63085995 61.63304989 97.75178748 63.01147461 100.18530273 C63.54514648 101.10569336 63.54514648 101.10569336 64.08959961 102.04467773 C67.1902971 108.64070694 67.51587094 117.16807669 65.44018555 124.09057617 C61.7950764 133.73647724 56.60431282 139.68979324 47.32397461 143.99780273 C42.34160612 145.78393483 37.96326664 146.31276529 32.67765808 146.34352112 C30.76154221 146.35820435 30.76154221 146.35820435 28.80671692 146.3731842 C27.3986515 146.37908763 25.99058568 146.38489812 24.58251953 146.390625 C23.09411348 146.40020915 21.60571012 146.41021954 20.11730957 146.42062378 C16.08262761 146.44762077 12.04793402 146.46865846 8.01321197 146.48862576 C3.79445646 146.51051748 -0.42426339 146.53789057 -4.64299011 146.56468201 C-12.6291047 146.61456584 -20.61523913 146.65952064 -28.60139245 146.70270437 C-37.69446653 146.7521136 -46.78750484 146.80701805 -55.8805443 146.86238396 C-74.58317143 146.97613785 -93.28583234 147.08299122 -111.98852539 147.18530273 C-111.5333725 148.61189975 -111.07284298 150.03678196 -110.61010742 151.4609375 C-110.35423859 152.2546022 -110.09836975 153.04826691 -109.83474731 153.86598206 C-106.175645 163.89483078 -98.30792809 172.6611615 -90.98852539 180.18530273 C-89.94438477 181.32225586 -89.94438477 181.32225586 -88.87915039 182.48217773 C-73.46007452 198.8016376 -52.28610367 208.25331324 -30.98852539 214.18530273 C-30.29919922 214.37882324 -29.60987305 214.57234375 -28.8996582 214.77172852 C-18.86052651 217.42467422 -8.68222101 217.4598381 1.63647461 217.49780273 C2.92279785 217.50352295 4.20912109 217.50924316 5.53442383 217.51513672 C40.52110492 217.24964666 73.99312972 204.10414712 98.66918945 179.06176758 C115.35281057 161.47490705 124.67390987 139.21677324 124.44897461 114.87280273 C124.43995117 113.69290771 124.43092773 112.5130127 124.42163086 111.29736328 C123.92080084 85.95849455 111.95209235 64.3717152 94.15380859 46.71826172 C69.69133079 23.50918837 37.05121781 12.97508929 3.88647461 12.87280273 C3.21364441 12.86903625 2.54081421 12.86526978 1.84759521 12.86138916 C-11.2544669 12.82425247 -24.17122788 13.83529152 -36.73852539 17.74780273 Z " fill="#FEFCFA" transform="translate(252.988525390625,140.814697265625)"></path><path d="M0 0 C1.00010605 -0.0033284 2.0002121 -0.0066568 3.03062439 -0.01008606 C5.14272606 -0.01513296 7.25483566 -0.01749508 9.36694336 -0.01733398 C12.55531421 -0.01950771 15.74333145 -0.03765232 18.93164062 -0.05664062 C32.28196808 -0.09425914 45.03901003 0.35857327 57.96484375 4.04296875 C61.76585832 5.11151123 65.55788792 6.17566662 69.38671875 7.140625 C77.47511426 9.17923081 84.9752568 11.629229 92.52734375 15.16796875 C93.32060059 15.53809082 94.11385742 15.90821289 94.93115234 16.28955078 C107.58513601 22.24749701 119.35557389 28.73991205 130.52734375 37.16796875 C131.92726563 38.204375 131.92726563 38.204375 133.35546875 39.26171875 C162.71767451 62.11852563 184.67066857 94.85977661 190.83984375 131.91796875 C195.15065933 170.59095855 186.17098599 207.59881831 162.0390625 238.40234375 C150.89307166 252.16352477 138.31980513 264.40400652 123.52734375 274.16796875 C122.94049805 274.55645996 122.35365234 274.94495117 121.74902344 275.34521484 C104.31221698 286.70380008 85.49149409 294.50231426 65.52734375 300.16796875 C64.61984375 300.43085693 63.71234375 300.69374512 62.77734375 300.96459961 C14.35034699 314.66947361 -41.85716316 306.46406248 -85.47265625 282.16796875 C-94.68711686 276.86900742 -103.43253968 271.14981357 -111.47265625 264.16796875 C-112.27832031 263.471875 -113.08398438 262.77578125 -113.9140625 262.05859375 C-139.10445873 239.82481679 -157.0157851 213.27257683 -164.47265625 180.16796875 C-164.64966064 179.39227539 -164.82666504 178.61658203 -165.0090332 177.81738281 C-166.63601256 169.88248016 -166.81969694 162.1249973 -166.78515625 154.04296875 C-166.78192352 153.0153392 -166.78192352 153.0153392 -166.77862549 151.96694946 C-166.57376967 111.36701395 -148.3827843 77.68023139 -120.1237793 49.44604492 C-113.40994587 42.90220051 -106.29103301 37.3218357 -98.47265625 32.16796875 C-96.85810547 31.09675781 -96.85810547 31.09675781 -95.2109375 30.00390625 C-67.41224813 12.29207218 -33.14788935 0.03891031 0 0 Z M-113.47265625 61.16796875 C-114.32085937 61.95429688 -115.1690625 62.740625 -116.04296875 63.55078125 C-132.34493747 79.03509636 -145.03639946 100.31678398 -150.47265625 122.16796875 C-150.85671631 123.65043091 -150.85671631 123.65043091 -151.24853516 125.1628418 C-153.24440193 133.50334595 -153.94392965 141.522637 -153.86376953 150.07202148 C-153.84768822 152.10143464 -153.86372537 154.12884958 -153.8828125 156.15820312 C-153.90331318 168.45174584 -151.84833316 180.26164925 -147.91015625 191.91796875 C-147.66112549 192.65547363 -147.41209473 193.39297852 -147.15551758 194.15283203 C-140.60122434 212.61677936 -129.86847408 228.01808171 -116.47265625 242.16796875 C-115.6528125 243.05226563 -114.83296875 243.9365625 -113.98828125 244.84765625 C-89.32570068 270.60473005 -54.45138077 285.79116163 -19.73291016 291.77734375 C-17.7714327 292.11633316 -15.81484753 292.48340046 -13.859375 292.85546875 C6.59918069 296.25342956 28.21287521 294.84676381 48.52734375 291.16796875 C49.39343262 291.01231445 50.25952148 290.85666016 51.15185547 290.69628906 C84.18833785 284.45641058 114.43856277 268.41683408 138.52734375 245.16796875 C139.37941406 244.3790625 140.23148437 243.59015625 141.109375 242.77734375 C162.95650649 221.99676513 177.85599844 191.25128189 178.8046875 161.0625 C179.04808757 147.88754307 179.20410668 134.91780828 175.52734375 122.16796875 C175.33930176 121.51183594 175.15125977 120.85570312 174.95751953 120.1796875 C168.5777261 98.61933546 156.90408736 80.41029064 141.52734375 64.16796875 C140.7075 63.28367188 139.88765625 62.399375 139.04296875 61.48828125 C123.31397584 45.06125611 103.47132934 33.64106578 82.52734375 25.16796875 C81.4290625 24.70648438 80.33078125 24.245 79.19921875 23.76953125 C15.37496695 -2.1688962 -64.35071839 13.18509032 -113.47265625 61.16796875 Z " fill="#FEFCFA" transform="translate(243.47265625,102.83203125)"></path></svg>