<svg version="1.1" xmlns="http://www.w3.org/2000/svg" width="16px" height="16px" fill="currentColor" viewBox="0 0 512 512"><path d="M0 0 C168.96 0 337.92 0 512 0 C512 168.96 512 337.92 512 512 C343.04 512 174.08 512 0 512 C0 343.04 0 174.08 0 0 Z " fill="#E3740D" transform="translate(0,0)"></path><path d="M0 0 C13.95300956 11.05916083 28.59347798 24.17166683 37.1875 40.0625 C36.02380874 43.55357379 35.29776462 43.91472763 32.25 45.75 C31.53972656 46.18699219 30.82945312 46.62398438 30.09765625 47.07421875 C28.1875 48.0625 28.1875 48.0625 26.1875 48.0625 C24.70167136 46.07013887 23.31479644 44.0656716 21.9375 42 C5.44771278 18.22182461 -17.80793343 -0.68207305 -46.8125 -5.9375 C-66.27454995 -7.53540267 -82.76530605 -4.23483693 -98.42578125 8.125 C-100.98573765 10.35451102 -103.41027784 12.66413374 -105.8125 15.0625 C-106.64652344 15.88492188 -107.48054688 16.70734375 -108.33984375 17.5546875 C-121.37046725 31.08726106 -130.21462398 49.24487024 -135.8125 67.0625 C-136.21210938 68.30902344 -136.61171875 69.55554688 -137.0234375 70.83984375 C-150.11381194 114.33157885 -146.88673961 162.30898041 -134.5234375 205.5078125 C-133.54902688 209.00926605 -132.68521783 212.53433303 -131.8125 216.0625 C-130.42417969 215.73378906 -130.42417969 215.73378906 -129.0078125 215.3984375 C-127.65104278 215.07812029 -126.29427182 214.7578083 -124.9375 214.4375 C-124.19153564 214.2607373 -123.44557129 214.08397461 -122.67700195 213.90185547 C-117.99017679 212.79569506 -113.2978775 211.71973639 -108.59765625 210.671875 C-107.50759277 210.42646973 -106.4175293 210.18106445 -105.29443359 209.92822266 C-103.18275487 209.4534314 -101.06988828 208.9838749 -98.95556641 208.52099609 C-88.75406901 206.21525523 -78.79891649 203.1484323 -68.8125 200.0625 C-68.02710846 199.82086121 -67.24171692 199.57922241 -66.43252563 199.33026123 C-30.64378 188.2970107 4.50350427 175.51046317 38.1875 159.0625 C39.08114258 158.63275879 39.97478516 158.20301758 40.89550781 157.76025391 C74.99881294 141.36735404 74.99881294 141.36735404 104.33203125 117.8359375 C106.1875 116.0625 106.1875 116.0625 108.1875 116.0625 C108.5278125 115.2890625 108.5278125 115.2890625 108.875 114.5 C110.04662935 112.32411693 111.29749402 110.62310254 112.8125 108.6875 C115.22270069 105.41499877 115.68956595 103.17944077 115.1875 99.0625 C103.25442213 90.73709684 86.12707308 92.51485165 72.1875 92.0625 C72.1875 88.1025 72.1875 84.1425 72.1875 80.0625 C111.14397588 79.11491005 111.14397588 79.11491005 123.1875 88.0625 C127.17942886 92.02598281 129.35784866 95.35743993 129.625 101 C129.49448767 110.99724428 123.4865547 118.52739072 116.83984375 125.5390625 C66.25438203 173.66602608 -12.85347166 198.4840623 -78.64697266 217.1628418 C-81.20377696 217.88949796 -83.7570521 218.62626916 -86.30859375 219.37109375 C-94.87199264 221.84069216 -103.48122045 223.96693355 -112.1875 225.875 C-113.18064209 226.09406006 -114.17378418 226.31312012 -115.19702148 226.53881836 C-116.59609741 226.83864624 -116.59609741 226.83864624 -118.0234375 227.14453125 C-118.85149902 227.32218018 -119.67956055 227.4998291 -120.53271484 227.68286133 C-122.8125 228.0625 -122.8125 228.0625 -126.8125 228.0625 C-117.44220672 252.75146386 -104.30518847 275.12082364 -85.8125 294.0625 C-85.07644531 294.86042969 -84.34039062 295.65835937 -83.58203125 296.48046875 C-73.52133971 307.12757582 -61.094106 314.20134452 -47.8125 320.0625 C-46.77867187 320.52011719 -45.74484375 320.97773438 -44.6796875 321.44921875 C-28.80113967 327.35703354 -9.62510942 325.27354827 5.60546875 318.5546875 C31.50250485 305.49990963 46.60343083 280.38000078 55.5 253.6875 C56.42254318 250.82032416 57.31225611 247.94441832 58.1875 245.0625 C58.49429687 244.07894531 58.80109375 243.09539062 59.1171875 242.08203125 C62.85407878 229.34963366 64.49207026 216.27566504 65.1875 203.0625 C69.8075 203.0625 74.4275 203.0625 79.1875 203.0625 C75.26131523 247.80034223 62.65814477 289.94825726 28.21484375 320.671875 C22.91908613 324.85381521 17.16858775 327.9752559 11.1875 331.0625 C10.43082031 331.48402344 9.67414063 331.90554688 8.89453125 332.33984375 C-7.55818294 340.77305315 -30.42036626 340.16793389 -47.68164062 334.79882812 C-64.53850733 328.97386135 -78.66783456 318.89698055 -91.8125 307.0625 C-92.66585937 306.29421875 -93.51921875 305.5259375 -94.3984375 304.734375 C-114.09778198 285.99130938 -130.94924379 258.76594302 -139.8125 233.0625 C-139.8125 232.4025 -139.8125 231.7425 -139.8125 231.0625 C-140.54436523 231.18367187 -141.27623047 231.30484375 -142.03027344 231.4296875 C-199.71537792 240.75398167 -199.71537792 240.75398167 -221.8671875 227.8671875 C-226.29061575 224.54411454 -228.26290122 220.34177274 -229.1640625 214.96484375 C-229.75752732 206.10972389 -225.25695488 199.4507852 -219.625 193 C-212.76973421 185.77265564 -205.4429466 179.3519019 -197.4375 173.4375 C-196.54478394 172.76170898 -196.54478394 172.76170898 -195.6340332 172.07226562 C-191.47080184 169.07970301 -191.47080184 169.07970301 -188.5703125 169.00390625 C-186.13706546 170.46926169 -185.33909192 172.10727704 -184.0625 174.625 C-183.42054688 175.86443359 -183.42054688 175.86443359 -182.765625 177.12890625 C-182.45109375 177.76699219 -182.1365625 178.40507812 -181.8125 179.0625 C-183.04124903 180.02136875 -184.27054313 180.97953899 -185.5 181.9375 C-186.31597656 182.57429687 -187.13195312 183.21109375 -187.97265625 183.8671875 C-189.99209815 185.42829664 -192.01835923 186.97447975 -194.05859375 188.5078125 C-206.36248346 197.58617397 -206.36248346 197.58617397 -214.8125 210.0625 C-215.14940298 213.35626525 -215.14940298 213.35626525 -214.8125 216.0625 C-213.41971983 216.71489158 -212.02310788 217.35910552 -210.625 218 C-209.84769531 218.35964844 -209.07039063 218.71929687 -208.26953125 219.08984375 C-201.32151254 221.84033128 -193.97691682 221.25359639 -186.625 221.25 C-185.95353943 221.2507251 -185.28207886 221.2514502 -184.590271 221.25219727 C-175.12382862 221.25106651 -165.85060375 220.84051297 -156.4765625 219.5 C-152.52533142 219.02821121 -148.78703957 218.99199819 -144.8125 219.0625 C-145.00360352 218.46115234 -145.19470703 217.85980469 -145.39160156 217.24023438 C-150.17998782 201.99345937 -153.74365378 186.91258889 -155.8125 171.0625 C-155.89863556 170.431091 -155.98477112 169.79968201 -156.07351685 169.1491394 C-157.76813432 156.54309433 -158.17488387 144.0851374 -158.125 131.375 C-158.12317719 130.40860596 -158.12135437 129.44221191 -158.11947632 128.4465332 C-158.07410557 114.14898344 -157.72724489 100.11014853 -154.8125 86.0625 C-154.64089355 85.22009766 -154.46928711 84.37769531 -154.29248047 83.50976562 C-147.76343671 52.58578714 -133.57481858 17.95179959 -107.8125 -1.9375 C-107.07773438 -2.50855469 -106.34296875 -3.07960938 -105.5859375 -3.66796875 C-73.0988552 -27.63645129 -31.48079095 -24.19447727 0 0 Z " fill="#FEFCFA" transform="translate(305.8125,96.9375)"></path></svg>