<svg version="1.1" xmlns="http://www.w3.org/2000/svg" width="16px" height="16px" fill="currentColor" viewBox="0 0 512 512"><path d="M0 0 C168.96 0 337.92 0 512 0 C512 168.96 512 337.92 512 512 C343.04 512 174.08 512 0 512 C0 343.04 0 174.08 0 0 Z " fill="#E3740D" transform="translate(0,0)"></path><path d="M0 0 C1.07373871 -0.00525696 2.14747742 -0.01051392 3.25375366 -0.01593018 C6.80156012 -0.02912899 10.34891752 -0.02039154 13.89672852 -0.01025391 C16.36385687 -0.01227481 18.83098465 -0.01518639 21.29811096 -0.01895142 C26.46881803 -0.02337475 31.6393696 -0.01694376 36.81005859 -0.00292969 C43.43569807 0.01415299 50.06097272 0.00432654 56.68659878 -0.01364708 C61.78154748 -0.02449216 66.87640984 -0.02103503 71.97136116 -0.0132637 C74.41418565 -0.01126325 76.85701799 -0.01371553 79.2998333 -0.02070236 C82.7157248 -0.02832747 86.13102731 -0.01669653 89.546875 0 C90.5553801 -0.00607269 91.56388519 -0.01214539 92.60295105 -0.0184021 C97.8333383 0.02892051 102.02045695 0.10103856 106.33813477 3.38818359 C109.23972387 8.82828726 109.76962974 13.20832166 109.71908569 19.30712891 C109.72376567 20.18205112 109.72844564 21.05697334 109.73326743 21.95840836 C109.74519342 24.87786455 109.73576953 27.79684926 109.72631836 30.71630859 C109.73038512 32.81433383 109.73572759 34.91235693 109.74224854 37.01037598 C109.75591544 42.70038615 109.75062599 48.39023298 109.74111128 54.08024597 C109.7335115 60.03738848 109.74056118 65.99451709 109.74526978 71.95166016 C109.75072638 81.9552664 109.74353815 91.95880619 109.72924805 101.96240234 C109.71292176 113.52486116 109.71821033 125.08716127 109.73472726 136.64961624 C109.74834478 146.58015933 109.75026047 156.51065466 109.74241126 166.44120407 C109.73773622 172.37086335 109.73710529 178.30044806 109.74702072 184.23010254 C109.75569191 189.80500206 109.74966549 195.37969713 109.73233795 200.95457458 C109.72837396 202.99958456 109.72950565 205.04461177 109.73612595 207.08961487 C109.74433483 209.88305433 109.73402762 212.67584034 109.71908569 215.46923828 C109.72577786 216.27673649 109.73247002 217.0842347 109.73936498 217.91620255 C109.68539251 223.12540293 108.78983421 226.76486527 106.33813477 231.38818359 C102.89489899 234.19713909 100.67133213 234.51136813 96.33813477 234.38818359 C96.37293945 235.50837891 96.40774414 236.62857422 96.44360352 237.78271484 C96.47174316 239.2553561 96.49904313 240.72801357 96.52563477 242.20068359 C96.55077148 242.93867188 96.5759082 243.67666016 96.60180664 244.43701172 C96.67526265 249.84827087 96.67526265 249.84827087 95.26904297 252.1003418 C92.29413176 254.0844936 89.69108693 253.77744667 86.15063477 253.78662109 C85.45172119 253.78949127 84.75280762 253.79236145 84.03271484 253.7953186 C82.55671375 253.79735785 81.08068555 253.79183762 79.60473633 253.77929688 C77.34598338 253.76323939 75.08901959 253.7791483 72.83032227 253.79833984 C71.39542248 253.79635738 69.96052382 253.79251365 68.52563477 253.78662109 C67.21981445 253.7832373 65.91399414 253.77985352 64.56860352 253.77636719 C61.33813477 253.38818359 61.33813477 253.38818359 59.40722656 252.1003418 C57.5284157 249.09141269 58.03475593 245.62885128 58.15063477 242.20068359 C58.21250977 239.62255859 58.27438477 237.04443359 58.33813477 234.38818359 C49.75813477 234.38818359 41.17813477 234.38818359 32.33813477 234.38818359 C32.45651899 239.51916077 32.45651899 239.51916077 32.60839844 244.64916992 C32.66917948 249.85869349 32.66917948 249.85869349 31.26904297 252.09814453 C28.29703888 254.08373937 25.69023584 253.79535263 22.15063477 253.82177734 C21.1022644 253.82964012 21.1022644 253.82964012 20.03271484 253.83766174 C18.55673551 253.84407806 17.08070501 253.8427499 15.60473633 253.83422852 C13.34567377 253.82571202 11.08913532 253.85448898 8.83032227 253.88623047 C7.39542719 253.88784246 5.96052764 253.88726498 4.52563477 253.88427734 C3.21981445 253.88613037 1.91399414 253.8879834 0.56860352 253.88989258 C-2.66186523 253.38818359 -2.66186523 253.38818359 -4.59277344 251.58666992 C-6.17644274 248.33000353 -5.97961229 245.17155241 -5.84936523 241.63818359 C-5.83583008 240.94080078 -5.82229492 240.24341797 -5.80834961 239.52490234 C-5.77315973 237.81232819 -5.71935678 236.10015418 -5.66186523 234.38818359 C-6.76916992 234.25927734 -7.87647461 234.13037109 -9.01733398 233.99755859 C-13.11796236 233.31192298 -14.21096248 232.65605393 -16.66186523 229.38818359 C-18.97739675 224.92746805 -18.94538532 220.62148419 -18.92256165 215.70974731 C-18.92829997 214.39992726 -18.92829997 214.39992726 -18.93415421 213.0636462 C-18.94447177 210.13807266 -18.9404944 207.21269584 -18.93652344 204.28710938 C-18.94087061 202.18938007 -18.94605378 200.09165235 -18.95201111 197.993927 C-18.96541216 192.29556983 -18.96597851 186.59727895 -18.96344781 180.89890909 C-18.96237878 176.14239431 -18.96725974 171.38589297 -18.97205323 166.62938106 C-18.98315238 155.40785841 -18.98358361 144.18636923 -18.97753906 132.96484375 C-18.97149882 121.38766446 -18.98381068 109.8106067 -19.00510913 98.23344815 C-19.02272167 88.29445881 -19.02872701 78.35550816 -19.02547139 68.41650379 C-19.02365774 62.48010065 -19.0263029 56.54378419 -19.04018593 50.60739517 C-19.05275381 45.02432576 -19.05082989 39.44144584 -19.03777504 33.85837936 C-19.0354074 31.81014187 -19.03815062 29.76189108 -19.04639816 27.71366882 C-19.05685141 24.91575483 -19.04877622 22.11847828 -19.03608704 19.32058716 C-19.04346132 18.51172471 -19.05083561 17.70286227 -19.05843335 16.86948884 C-19.0087201 11.65226326 -18.09146746 8.02827232 -15.66186523 3.38818359 C-11.28246766 -0.75742702 -5.67839297 -0.03412384 0 0 Z " fill="#E3750E" transform="translate(242.661865234375,168.61181640625)"></path><path d="M0 0 C1.07373871 -0.00525696 2.14747742 -0.01051392 3.25375366 -0.01593018 C6.80156012 -0.02912899 10.34891752 -0.02039154 13.89672852 -0.01025391 C16.36385687 -0.01227481 18.83098465 -0.01518639 21.29811096 -0.01895142 C26.46881803 -0.02337475 31.6393696 -0.01694376 36.81005859 -0.00292969 C43.43569807 0.01415299 50.06097272 0.00432654 56.68659878 -0.01364708 C61.78154748 -0.02449216 66.87640984 -0.02103503 71.97136116 -0.0132637 C74.41418565 -0.01126325 76.85701799 -0.01371553 79.2998333 -0.02070236 C82.7157248 -0.02832747 86.13102731 -0.01669653 89.546875 0 C90.5553801 -0.00607269 91.56388519 -0.01214539 92.60295105 -0.0184021 C97.8333383 0.02892051 102.02045695 0.10103856 106.33813477 3.38818359 C109.23972387 8.82828726 109.76962974 13.20832166 109.71908569 19.30712891 C109.72376567 20.18205112 109.72844564 21.05697334 109.73326743 21.95840836 C109.74519342 24.87786455 109.73576953 27.79684926 109.72631836 30.71630859 C109.73038512 32.81433383 109.73572759 34.91235693 109.74224854 37.01037598 C109.75591544 42.70038615 109.75062599 48.39023298 109.74111128 54.08024597 C109.7335115 60.03738848 109.74056118 65.99451709 109.74526978 71.95166016 C109.75072638 81.9552664 109.74353815 91.95880619 109.72924805 101.96240234 C109.71292176 113.52486116 109.71821033 125.08716127 109.73472726 136.64961624 C109.74834478 146.58015933 109.75026047 156.51065466 109.74241126 166.44120407 C109.73773622 172.37086335 109.73710529 178.30044806 109.74702072 184.23010254 C109.75569191 189.80500206 109.74966549 195.37969713 109.73233795 200.95457458 C109.72837396 202.99958456 109.72950565 205.04461177 109.73612595 207.08961487 C109.74433483 209.88305433 109.73402762 212.67584034 109.71908569 215.46923828 C109.72577786 216.27673649 109.73247002 217.0842347 109.73936498 217.91620255 C109.68539251 223.12540293 108.78983421 226.76486527 106.33813477 231.38818359 C102.89489899 234.19713909 100.67133213 234.51136813 96.33813477 234.38818359 C96.37293945 235.50837891 96.40774414 236.62857422 96.44360352 237.78271484 C96.47174316 239.2553561 96.49904313 240.72801357 96.52563477 242.20068359 C96.55077148 242.93867188 96.5759082 243.67666016 96.60180664 244.43701172 C96.67526265 249.84827087 96.67526265 249.84827087 95.26904297 252.1003418 C92.29413176 254.0844936 89.69108693 253.77744667 86.15063477 253.78662109 C85.45172119 253.78949127 84.75280762 253.79236145 84.03271484 253.7953186 C82.55671375 253.79735785 81.08068555 253.79183762 79.60473633 253.77929688 C77.34598338 253.76323939 75.08901959 253.7791483 72.83032227 253.79833984 C71.39542248 253.79635738 69.96052382 253.79251365 68.52563477 253.78662109 C67.21981445 253.7832373 65.91399414 253.77985352 64.56860352 253.77636719 C61.33813477 253.38818359 61.33813477 253.38818359 59.40722656 252.1003418 C57.5284157 249.09141269 58.03475593 245.62885128 58.15063477 242.20068359 C58.21250977 239.62255859 58.27438477 237.04443359 58.33813477 234.38818359 C49.75813477 234.38818359 41.17813477 234.38818359 32.33813477 234.38818359 C32.45651899 239.51916077 32.45651899 239.51916077 32.60839844 244.64916992 C32.66917948 249.85869349 32.66917948 249.85869349 31.26904297 252.09814453 C28.29703888 254.08373937 25.69023584 253.79535263 22.15063477 253.82177734 C21.1022644 253.82964012 21.1022644 253.82964012 20.03271484 253.83766174 C18.55673551 253.84407806 17.08070501 253.8427499 15.60473633 253.83422852 C13.34567377 253.82571202 11.08913532 253.85448898 8.83032227 253.88623047 C7.39542719 253.88784246 5.96052764 253.88726498 4.52563477 253.88427734 C3.21981445 253.88613037 1.91399414 253.8879834 0.56860352 253.88989258 C-2.66186523 253.38818359 -2.66186523 253.38818359 -4.59277344 251.58666992 C-6.17644274 248.33000353 -5.97961229 245.17155241 -5.84936523 241.63818359 C-5.83583008 240.94080078 -5.82229492 240.24341797 -5.80834961 239.52490234 C-5.77315973 237.81232819 -5.71935678 236.10015418 -5.66186523 234.38818359 C-6.76916992 234.25927734 -7.87647461 234.13037109 -9.01733398 233.99755859 C-13.11796236 233.31192298 -14.21096248 232.65605393 -16.66186523 229.38818359 C-18.97739675 224.92746805 -18.94538532 220.62148419 -18.92256165 215.70974731 C-18.92829997 214.39992726 -18.92829997 214.39992726 -18.93415421 213.0636462 C-18.94447177 210.13807266 -18.9404944 207.21269584 -18.93652344 204.28710938 C-18.94087061 202.18938007 -18.94605378 200.09165235 -18.95201111 197.993927 C-18.96541216 192.29556983 -18.96597851 186.59727895 -18.96344781 180.89890909 C-18.96237878 176.14239431 -18.96725974 171.38589297 -18.97205323 166.62938106 C-18.98315238 155.40785841 -18.98358361 144.18636923 -18.97753906 132.96484375 C-18.97149882 121.38766446 -18.98381068 109.8106067 -19.00510913 98.23344815 C-19.02272167 88.29445881 -19.02872701 78.35550816 -19.02547139 68.41650379 C-19.02365774 62.48010065 -19.0263029 56.54378419 -19.04018593 50.60739517 C-19.05275381 45.02432576 -19.05082989 39.44144584 -19.03777504 33.85837936 C-19.0354074 31.81014187 -19.03815062 29.76189108 -19.04639816 27.71366882 C-19.05685141 24.91575483 -19.04877622 22.11847828 -19.03608704 19.32058716 C-19.04346132 18.51172471 -19.05083561 17.70286227 -19.05843335 16.86948884 C-19.0087201 11.65226326 -18.09146746 8.02827232 -15.66186523 3.38818359 C-11.28246766 -0.75742702 -5.67839297 -0.03412384 0 0 Z M-5.66186523 12.38818359 C-5.66186523 81.68818359 -5.66186523 150.98818359 -5.66186523 222.38818359 C27.99813477 222.38818359 61.65813477 222.38818359 96.33813477 222.38818359 C96.33813477 153.08818359 96.33813477 83.78818359 96.33813477 12.38818359 C62.67813477 12.38818359 29.01813477 12.38818359 -5.66186523 12.38818359 Z " fill="#FEFDFB" transform="translate(242.661865234375,168.61181640625)"></path><path d="M0 0 C0.88107422 0.00491455 1.76214844 0.0098291 2.66992188 0.01489258 C9.55332231 0.1381717 15.73444509 0.99751774 22.25 3.3125 C23.25289063 3.6528125 24.25578125 3.993125 25.2890625 4.34375 C40.58389342 10.07447146 50.08635298 21.03768688 57.25 35.3125 C58.11625 34.8175 58.9825 34.3225 59.875 33.8125 C67.25472657 30.68397494 76.34654208 31.24470401 83.75 34 C93.41428442 38.56368987 98.57087707 46.18437431 102.125 56.0625 C103.37708545 59.83314814 103.25 61.99439042 103.25 66.3125 C98.96 66.3125 94.67 66.3125 90.25 66.3125 C89.98445312 65.42046875 89.71890625 64.5284375 89.4453125 63.609375 C88.91550781 61.85367188 88.91550781 61.85367188 88.375 60.0625 C87.85292969 58.32226562 87.85292969 58.32226562 87.3203125 56.546875 C86.45891859 53.94383063 85.68974164 51.63696837 84.25 49.3125 C81.79295238 48.07959799 81.79295238 48.07959799 79.25 47.3125 C78.59 46.9825 77.93 46.6525 77.25 46.3125 C72.42522416 45.59771839 68.03588476 45.20762509 63.78125 47.83984375 C61.81517763 49.58152742 60.00285971 51.35810829 58.25 53.3125 C57.25 54.3125 57.25 54.3125 54.9375 54.625 C51.38345058 54.21173844 50.53485925 53.00945812 48.25 50.3125 C47.1953125 47.8671875 47.1953125 47.8671875 46.375 45.1875 C42.4932941 33.93205161 36.57591481 25.34438836 25.9921875 19.51953125 C13.63180043 13.59273973 -2.54926841 11.40122498 -15.875 15.875 C-30.31123995 22.3362905 -39.16378758 32.68872098 -44.75 47.3125 C-46.82843957 53.41969571 -47.09705196 58.97509923 -47.140625 65.34765625 C-47.31615351 70.83779801 -47.31615351 70.83779801 -49.4921875 73.21875 C-51.79990719 74.33667649 -54.07047386 75.24234149 -56.5 76.0625 C-64.34449942 79.11699535 -69.62139336 83.80889766 -73.05859375 91.515625 C-76.05134197 99.29338874 -76.09170213 108.9232173 -73.65625 116.890625 C-69.49590186 125.69817053 -64.18309125 130.62268309 -55.35131836 134.4609375 C-50.70451479 135.98210605 -46.04113158 135.99183164 -41.1875 136.0625 C-40.17880859 136.09214844 -39.17011719 136.12179688 -38.13085938 136.15234375 C-35.67098812 136.2222927 -33.21049417 136.26974597 -30.75 136.3125 C-30.75 140.6025 -30.75 144.8925 -30.75 149.3125 C-47.14689635 149.9426113 -60.63753533 150.40060963 -73.76171875 139.171875 C-74.41785156 138.55828125 -75.07398438 137.9446875 -75.75 137.3125 C-76.37519531 136.74015625 -77.00039062 136.1678125 -77.64453125 135.578125 C-85.86674965 127.19468663 -89.30235771 117.07061529 -89.3125 105.5625 C-89.00143056 92.33358896 -85.13471606 81.76517164 -75.9375 72 C-72.04656792 68.30398938 -66.39020486 63.3125 -60.75 63.3125 C-60.811875 62.260625 -60.87375 61.20875 -60.9375 60.125 C-60.83036079 44.88444724 -53.73274576 30.52906827 -43.75 19.3125 C-43.20730469 18.68859375 -42.66460937 18.0646875 -42.10546875 17.421875 C-31.31603017 5.79859222 -15.61279488 -0.1033464 0 0 Z " fill="#FEFBF9" transform="translate(248.75,95.6875)"></path><path d="M0 0 C14.85 0 29.7 0 45 0 C45 4.29 45 8.58 45 13 C30.15 13 15.3 13 0 13 C0 8.71 0 4.42 0 0 Z " fill="#FDF9F4" transform="translate(256,264)"></path><path d="M0 0 C14.85 0 29.7 0 45 0 C45 4.29 45 8.58 45 13 C30.15 13 15.3 13 0 13 C0 8.71 0 4.42 0 0 Z " fill="#FDF9F4" transform="translate(256,238)"></path><path d="M0 0 C14.85 0 29.7 0 45 0 C45 4.29 45 8.58 45 13 C30.15 13 15.3 13 0 13 C0 8.71 0 4.42 0 0 Z " fill="#FEFAF7" transform="translate(256,213)"></path><path d="M0 0 C3.375 0.9375 3.375 0.9375 5.375 3.9375 C5.1875 7.5 5.1875 7.5 4.375 10.9375 C1.12673326 13.10301116 0.14405843 13.48906953 -3.625 12.9375 C-6.35751347 10.94350369 -7.45747946 9.7751027 -8.125 6.4375 C-7.12997193 1.46235967 -5.00784378 -0.08634213 0 0 Z " fill="#FDF6EE" transform="translate(314.625,213.0625)"></path><path d="M0 0 C3.4375 0.75 3.4375 0.75 5.4375 2.75 C5.7642107 5.82108055 5.91888276 7.90050101 4.375 10.625 C1.29678089 12.41235303 -1.09156068 12.18386742 -4.5625 11.75 C-6.5625 10.125 -6.5625 10.125 -7.5625 7.75 C-7.4375 4.625 -7.4375 4.625 -6.5625 1.75 C-3.5625 -0.25 -3.5625 -0.25 0 0 Z " fill="#FDF8F4" transform="translate(314.5625,264.25)"></path><path d="M0 0 C3.5625 0.3125 3.5625 0.3125 5.5625 1.375 C7.19628851 4.54046524 6.41517564 6.96270286 5.5625 10.3125 C2.5625 12.3125 2.5625 12.3125 -1 12.125 C-4.4375 11.3125 -4.4375 11.3125 -6.4375 8.3125 C-6.01108868 3.08896136 -5.66029921 0.51457266 0 0 Z " fill="#FEFAF6" transform="translate(313.4375,238.6875)"></path><path d="M0 0 C4.29 0 8.58 0 13 0 C13 2.31 13 4.62 13 7 C8.71 7 4.42 7 0 7 C0 4.69 0 2.38 0 0 Z " fill="#E3812F" transform="translate(314,403)"></path><path d="M0 0 C4.29 0 8.58 0 13 0 C13 2.31 13 4.62 13 7 C8.71 7 4.42 7 0 7 C0 4.69 0 2.38 0 0 Z " fill="#DF7C2E" transform="translate(250,403)"></path></svg>