<svg version="1.1" xmlns="http://www.w3.org/2000/svg" width="16px" height="16px" fill="currentColor" viewBox="0 0 512 512"><path d="M0 0 C168.96 0 337.92 0 512 0 C512 168.96 512 337.92 512 512 C343.04 512 174.08 512 0 512 C0 343.04 0 174.08 0 0 Z " fill="#3F52D5" transform="translate(0,0)"></path><path d="M0 0 C0.82741699 0.13422363 1.65483398 0.26844727 2.50732422 0.40673828 C19.32033535 3.14472729 37.3495853 6.35567979 48 21 C49.35388652 23.70777304 49.13215855 25.82389197 49.14044189 28.85675049 C49.14615204 30.10453781 49.15186218 31.35232513 49.15774536 32.63792419 C49.15899079 34.0284728 49.16011587 35.41902152 49.16113281 36.80957031 C49.1657601 38.26809312 49.17078464 39.72661471 49.17617798 41.18513489 C49.18931445 45.15430053 49.19574961 49.12344925 49.20018864 53.09263325 C49.20311797 55.57217195 49.20722256 58.051706 49.21169281 60.53124237 C49.22537238 68.28826954 49.23503621 76.04528613 49.2388947 83.80232453 C49.24337369 92.75791125 49.26091221 101.7133452 49.2898953 110.66888547 C49.31151544 117.58955996 49.32159919 124.51019148 49.32293582 131.43089938 C49.32398381 135.56484517 49.32989009 139.69864744 49.34775543 143.83255768 C49.36424142 147.72315658 49.36638914 151.6135042 49.35761642 155.5041256 C49.35684627 156.93033967 49.36118599 158.35656727 49.37107468 159.78274727 C49.38380508 161.73356199 49.3761217 163.68447777 49.36749268 165.63531494 C49.36895924 166.72596378 49.3704258 167.81661263 49.3719368 168.94031143 C48.57580359 175.48959534 45.1671505 179.32063903 40.2734375 183.33984375 C20.69578501 197.63623947 -7.77063934 199.18759638 -31.07641602 199.18530273 C-33.53354625 199.18747441 -35.99021521 199.20565027 -38.44726562 199.22460938 C-52.77627209 199.27665481 -67.1916344 198.46904402 -81.125 194.875 C-81.94774414 194.66472168 -82.77048828 194.45444336 -83.61816406 194.23779297 C-94.63108575 191.23059803 -107.69531842 186.1824387 -115 177 C-116.85889857 173.14209696 -117.25427248 170.04575704 -117.26742554 165.78248596 C-117.27595551 164.53057465 -117.28448547 163.27866333 -117.29327393 161.98881531 C-117.29257497 160.60916125 -117.29165194 159.22950729 -117.29052734 157.84985352 C-117.29651439 156.39088599 -117.30332034 154.93192163 -117.31088257 153.47296143 C-117.32852986 149.51635227 -117.33323735 145.55982965 -117.33451414 141.60318494 C-117.33593678 139.13015613 -117.34020847 136.65714926 -117.34550858 134.1841259 C-117.36400317 125.55364461 -117.37217972 116.92322506 -117.37060547 108.29272461 C-117.36940354 100.25206062 -117.39051722 92.21166484 -117.4220928 84.17106873 C-117.44825253 77.26306286 -117.45897293 70.35514463 -117.45769465 63.44708961 C-117.45718501 59.32321261 -117.46286916 55.19957413 -117.48405075 51.07574654 C-117.50342873 47.19734589 -117.50356098 43.31941145 -117.48901749 39.44099426 C-117.48692786 38.01961523 -117.49163958 36.59820705 -117.5037384 35.17687798 C-117.60898782 21.95372773 -117.60898782 21.95372773 -113 17 C-112.52820313 16.443125 -112.05640625 15.88625 -111.5703125 15.3125 C-86.16562742 -7.75770051 -31.68012996 -5.56840417 0 0 Z " fill="#FBFBFE" transform="translate(290,156)"></path><path d="M0 0 C0.56992676 0.19335938 1.13985352 0.38671875 1.72705078 0.5859375 C12.2100879 4.11596209 22.64173922 6.93028844 33.5625 8.6875 C34.65763916 8.86635742 34.65763916 8.86635742 35.77490234 9.04882812 C48.21343299 10.93436223 60.75569074 11.20860024 73.3125 11.1875 C74.03811127 11.18656342 74.76372253 11.18562683 75.51132202 11.18466187 C96.43974386 11.126205 116.51775039 8.51421002 136.1015625 0.69921875 C138 0 138 0 140 0 C140.12397147 4.46564301 140.21450992 8.93036439 140.2746582 13.3972168 C140.29974109 14.91529801 140.3338166 16.43325918 140.37719727 17.95092773 C140.43813293 20.13815965 140.46626895 22.32379039 140.48828125 24.51171875 C140.51446533 25.82615967 140.54064941 27.14060059 140.56762695 28.49487305 C139.85815069 32.87592709 138.40889466 34.25921341 135 37 C132.23828125 38.4765625 132.23828125 38.4765625 129.3125 39.625 C128.35988281 40.00914062 127.40726562 40.39328125 126.42578125 40.7890625 C97.3752423 51.05778208 63.1138051 52.61119973 33 46 C32.28376465 45.85014648 31.5675293 45.70029297 30.82958984 45.54589844 C7.52115841 40.58620962 7.52115841 40.58620962 0 33 C-0.44854867 30.24735812 -0.58900395 28.12737377 -0.48828125 25.390625 C-0.48120651 24.66381531 -0.47413177 23.93700562 -0.46684265 23.18817139 C-0.4389273 20.87438543 -0.37620383 18.56305002 -0.3125 16.25 C-0.28741299 14.67842046 -0.26460051 13.10680284 -0.24414062 11.53515625 C-0.18911132 7.6891648 -0.10286666 3.84499735 0 0 Z " fill="#4256D8" transform="translate(186,201)"></path><path d="M0 0 C0.93779297 0.40049561 1.87558594 0.80099121 2.84179688 1.21362305 C10.96496224 4.61503495 18.81040749 7.19596353 27.5 8.8125 C28.51835937 9.01552734 29.53671875 9.21855469 30.5859375 9.42773438 C39.01946168 11.08705764 47.11440516 12.15701049 55.7109375 12.16796875 C56.63734039 12.17129715 57.56374329 12.17462555 58.51821899 12.17805481 C60.47649645 12.1831008 62.43478245 12.18546386 64.39306641 12.18530273 C67.33120692 12.18746773 70.26895809 12.20558872 73.20703125 12.22460938 C96.62180997 12.29474609 118.21426867 8.79826224 140 0 C140.14873164 4.60801142 140.257388 9.21461592 140.32958984 13.82446289 C140.35969601 15.39111679 140.4005923 16.95760303 140.45263672 18.52368164 C140.52573887 20.78053143 140.55951301 23.03514796 140.5859375 25.29296875 C140.61690521 25.98899704 140.64787292 26.68502533 140.67977905 27.40214539 C140.68168658 30.18148209 140.53760263 32.35174778 138.72485352 34.53759766 C133.78895107 38.75325273 128.00575602 40.78532941 122 43 C121.23042969 43.28875 120.46085937 43.5775 119.66796875 43.875 C86.4135015 55.05688741 39.21037145 53.9761224 7.4375 39 C4.21544769 37.12535138 2.25142812 35.92454803 0 33 C-0.34959406 30.31827524 -0.46923774 28.06062042 -0.390625 25.390625 C-0.38496521 24.66381531 -0.37930542 23.93700562 -0.37347412 23.18817139 C-0.35114553 20.87476755 -0.30096048 18.5629328 -0.25 16.25 C-0.22993023 14.67840784 -0.21168029 13.10679132 -0.1953125 11.53515625 C-0.15129293 7.68950283 -0.08229375 3.84501711 0 0 Z " fill="#4052D4" transform="translate(186,249)"></path><path d="M0 0 C1.05832031 0.44730469 2.11664063 0.89460938 3.20703125 1.35546875 C45.56706502 18.55022925 97.86637836 16.89675053 140 0 C140.17437877 4.56201698 140.28089025 9.12317706 140.375 13.6875 C140.42527344 14.98107422 140.47554687 16.27464844 140.52734375 17.60742188 C140.67143336 26.90120195 140.67143336 26.90120195 138.82666016 29.92016602 C137.3125 31.234375 137.3125 31.234375 134 33 C133.12601563 33.47566406 132.25203125 33.95132813 131.3515625 34.44140625 C112.07413749 42.36779733 92.54259177 44.3517688 71.89355469 44.26074219 C69.00434389 44.25001613 66.11575463 44.26070115 63.2265625 44.2734375 C49.46383672 44.28493026 36.0636308 43.58235812 22.75 39.75 C21.998396 39.53746582 21.24679199 39.32493164 20.47241211 39.10595703 C13.33528211 36.9826781 4.68480069 34.11000105 0 28 C-0.34057617 25.08911133 -0.34057617 25.08911133 -0.29296875 21.58203125 C-0.28330078 20.32841797 -0.27363281 19.07480469 -0.26367188 17.78320312 C-0.23853516 16.47287109 -0.21339844 15.16253906 -0.1875 13.8125 C-0.17244967 12.47722837 -0.15876187 11.14194063 -0.14648438 9.80664062 C-0.11107694 6.53735424 -0.0616889 3.26887907 0 0 Z " fill="#3F4ED0" transform="translate(186,298)"></path><path d="M0 0 C1.0625 1.56640625 1.0625 1.56640625 0.9609375 3.59765625 C-1.34257737 8.64535839 -8.12334179 10.78156402 -13 12.69140625 C-47.6457951 24.46148458 -99.34822805 25.23557439 -132.8125 9.44140625 C-137.25792254 6.77415273 -137.25792254 6.77415273 -138.9375 4.56640625 C-138.80272212 2.06338841 -138.35109984 0.96606452 -136.546875 -0.77734375 C-130.37943355 -4.61255944 -123.92539744 -6.57442838 -116.9375 -8.43359375 C-115.40609375 -8.85125 -115.40609375 -8.85125 -113.84375 -9.27734375 C-82.6726193 -17.1488414 -27.56820389 -20.39824764 0 0 Z " fill="#435ADC" transform="translate(324.9375,180.43359375)"></path><path d="M0 0 C3.93467549 1.59247554 6.57577776 4.30662369 9.50292969 7.27587891 C10.03996017 7.81261734 10.57699066 8.34935577 11.1302948 8.90235901 C12.89893859 10.67239283 14.66039824 12.44939857 16.421875 14.2265625 C17.64883466 15.45725344 18.87623749 16.6875027 20.10406494 17.91732788 C23.33067488 21.15156516 26.55123291 24.39176408 29.77056885 27.63323975 C33.63654332 31.52329386 37.50999071 35.40590529 41.38218689 39.2897644 C47.26053715 45.18749311 53.12931312 51.09459815 59 57 C59.33 41.82 59.66 26.64 60 11 C64.29 11 68.58 11 73 11 C73.0677425 19.68389334 73.12279663 28.36761155 73.15543652 37.05170918 C73.17110102 41.08397033 73.1923533 45.11604153 73.22631836 49.14819336 C73.25888429 53.0385392 73.27684711 56.9287022 73.28463173 60.81917381 C73.29018026 62.30437283 73.30101511 63.7895617 73.31719017 65.274683 C73.33892851 67.35302072 73.34196856 69.43060032 73.34057617 71.5090332 C73.35056892 73.28441216 73.35056892 73.28441216 73.36076355 75.09565735 C73 78 73 78 71.88439941 79.88439941 C69.069572 81.55083122 66.76437181 81.3588989 63.5090332 81.34057617 C62.8551059 81.34101425 62.20117859 81.34145233 61.5274353 81.34190369 C59.36824577 81.33981539 57.20983495 81.31648388 55.05078125 81.29296875 C53.55291671 81.28737291 52.05504668 81.28310275 50.55717468 81.28010559 C46.61641254 81.2686558 42.67598255 81.23918778 38.73535156 81.20599365 C34.71358738 81.17529548 30.69176947 81.16160082 26.66992188 81.14648438 C18.77977856 81.11431786 10.88996888 81.06154914 3 81 C3 76.71 3 72.42 3 68 C25.77 67.505 25.77 67.505 49 67 C30.19 48.19 11.38 29.38 -8 10 C-5.77502475 5.55004949 -3.55366005 3.39915309 0 0 Z " fill="#F8F9FD" transform="translate(362,354)"></path><path d="M0 0 C0.65392731 -0.00043808 1.30785461 -0.00087616 1.9815979 -0.00132751 C4.14078743 0.00076078 6.29919826 0.02409229 8.45825195 0.04760742 C9.95611649 0.05320327 11.45398653 0.05747342 12.95185852 0.06047058 C16.89262066 0.07192037 20.83305065 0.1013884 24.77368164 0.13458252 C28.79544583 0.16528069 32.81726373 0.17897536 36.83911133 0.1940918 C44.72925464 0.22625831 52.61906433 0.27902703 60.5090332 0.34057617 C60.5090332 4.63057617 60.5090332 8.92057617 60.5090332 13.34057617 C45.3290332 13.67057617 30.1490332 14.00057617 14.5090332 14.34057617 C33.3190332 33.15057617 52.1290332 51.96057617 71.5090332 71.34057617 C69.28405795 75.79052668 67.06269325 77.94142308 63.5090332 81.34057617 C59.57435771 79.74810063 56.93325544 77.03395248 54.00610352 74.06469727 C53.46907303 73.52795883 52.93204254 72.9912204 52.3787384 72.43821716 C50.61009462 70.66818334 48.84863497 68.8911776 47.0871582 67.11401367 C45.86019854 65.88332273 44.63279571 64.65307347 43.40496826 63.42324829 C40.17835833 60.18901101 36.9578003 56.9488121 33.73846436 53.70733643 C29.87248988 49.81728231 25.99904249 45.93467088 22.12684631 42.05081177 C16.24849605 36.15308306 10.37972009 30.24597802 4.5090332 24.34057617 C4.1790332 39.52057617 3.8490332 54.70057617 3.5090332 70.34057617 C-0.7809668 70.34057617 -5.0709668 70.34057617 -9.4909668 70.34057617 C-9.55870929 61.65668284 -9.61376343 52.97296463 -9.64640331 44.288867 C-9.66206781 40.25660584 -9.6833201 36.22453464 -9.71728516 32.19238281 C-9.74985109 28.30203697 -9.7678139 24.41187397 -9.77559853 20.52140236 C-9.78114705 19.03620334 -9.79198191 17.55101447 -9.80815697 16.06589317 C-9.82989531 13.98755545 -9.83293536 11.90997586 -9.83154297 9.83154297 C-9.8382048 8.647957 -9.84486664 7.46437103 -9.85173035 6.24491882 C-9.4909668 3.34057617 -9.4909668 3.34057617 -8.37536621 1.45617676 C-5.56053879 -0.21025505 -3.2553386 -0.01832273 0 0 Z " fill="#F8F9FD" transform="translate(86.490966796875,76.659423828125)"></path><path d="M0 0 C8.53625269 -0.06778666 17.072296 -0.1228221 25.60874557 -0.15543652 C29.5725988 -0.17109008 33.53625828 -0.19232243 37.5 -0.22631836 C41.32551222 -0.25892327 45.15083812 -0.27685534 48.97647858 -0.28463173 C50.43573184 -0.29017325 51.89497495 -0.30099456 53.35414886 -0.31719017 C55.398758 -0.33898033 57.44259805 -0.34196639 59.48730469 -0.34057617 C60.65090515 -0.34723801 61.81450562 -0.35389984 63.0133667 -0.36076355 C66.38997538 0.04710619 67.77838949 0.41793393 70 3 C70.48101807 5.90434265 70.48101807 5.90434265 70.45410156 9.4909668 C70.45468567 10.1448941 70.45526978 10.79882141 70.45587158 11.4725647 C70.45308688 13.63199122 70.42198042 15.79003371 70.390625 17.94921875 C70.38316389 19.44707993 70.37747034 20.94495088 70.37347412 22.44282532 C70.35820726 26.38370756 70.31891724 30.32399936 70.2746582 34.26464844 C70.23372767 38.28637708 70.2154679 42.3082012 70.1953125 46.33007812 C70.1524231 54.22035314 70.08206548 62.11003508 70 70 C65.71 70 61.42 70 57 70 C56.67 54.82 56.34 39.64 56 24 C37.19 42.81 18.38 61.62 -1 81 C-5.44995051 78.77502475 -7.60084691 76.55366005 -11 73 C-9.40752446 69.06532451 -6.69337631 66.42422224 -3.72412109 63.49707031 C-3.18738266 62.96003983 -2.65064423 62.42300934 -2.09764099 61.8697052 C-0.32760717 60.10106141 1.44939857 58.33960176 3.2265625 56.578125 C4.45725344 55.35116534 5.6875027 54.12376251 6.91732788 52.89593506 C10.15156516 49.66932512 13.39176408 46.44876709 16.63323975 43.22943115 C20.52329386 39.36345668 24.40590529 35.49000929 28.2897644 31.61781311 C34.18749311 25.73946285 40.09459815 19.87068688 46 14 C30.82 13.67 15.64 13.34 0 13 C0 8.71 0 4.42 0 0 Z " fill="#F8F9FE" transform="translate(365,77)"></path><path d="M0 0 C4.29238623 1.65091778 6.8793915 4.73754566 10 8 C8.68582318 10.90432092 7.27584791 12.97315168 5.02246094 15.22045898 C4.42133484 15.82466171 3.82020874 16.42886444 3.2008667 17.05137634 C2.55192444 17.69313309 1.90298218 18.33488983 1.234375 18.99609375 C0.56335754 19.66665298 -0.10765991 20.33721222 -0.79901123 21.02809143 C-2.2189488 22.4450108 -3.64131316 23.85950179 -5.06591797 25.27172852 C-7.23327726 27.42091746 -9.39261328 29.57791373 -11.55078125 31.73632812 C-12.93442662 33.11505438 -14.31852673 34.49332446 -15.703125 35.87109375 C-16.34397034 36.51082626 -16.98481567 37.15055878 -17.64508057 37.80967712 C-21.28893695 41.41565515 -25.03086251 44.75657374 -29 48 C-30.68668851 49.64640136 -32.35239362 51.31448857 -34 53 C-35.09731406 54.08889907 -36.19637946 55.17603515 -37.296875 56.26171875 C-38.44794781 57.40361444 -39.59898906 58.54554195 -40.75 59.6875 C-41.33910156 60.26822266 -41.92820312 60.84894531 -42.53515625 61.44726562 C-45.64906764 64.43155316 -45.64906764 64.43155316 -48 68 C-32.49 68 -16.98 68 -1 68 C-1 72.29 -1 76.58 -1 81 C-9.68389334 81.0677425 -18.36761155 81.12279663 -27.05170918 81.15543652 C-31.08397033 81.17110102 -35.11604153 81.1923533 -39.14819336 81.22631836 C-43.0385392 81.25888429 -46.9287022 81.27684711 -50.81917381 81.28463173 C-52.30437283 81.29018026 -53.7895617 81.30101511 -55.274683 81.31719017 C-57.35302072 81.33892851 -59.43060032 81.34196856 -61.5090332 81.34057617 C-62.69261917 81.34723801 -63.87620514 81.35389984 -65.09565735 81.36076355 C-68 81 -68 81 -69.88439941 79.88439941 C-71.55083122 77.069572 -71.3588989 74.76437181 -71.34057617 71.5090332 C-71.34101425 70.8551059 -71.34145233 70.20117859 -71.34190369 69.5274353 C-71.33981539 67.36824577 -71.31648388 65.20983495 -71.29296875 63.05078125 C-71.28737291 61.55291671 -71.28310275 60.05504668 -71.28010559 58.55717468 C-71.2686558 54.61641254 -71.23918778 50.67598255 -71.20599365 46.73535156 C-71.17529548 42.71358738 -71.16160082 38.69176947 -71.14648438 34.66992188 C-71.11431786 26.77977856 -71.06154914 18.88996888 -71 11 C-66.71 11 -62.42 11 -58 11 C-58 26.51 -58 42.02 -58 58 C-51.618207 52.44938552 -51.618207 52.44938552 -45.52758789 46.65698242 C-44.7506105 45.8831572 -43.97363312 45.10933197 -43.17311096 44.3120575 C-42.36446091 43.50138321 -41.55581085 42.69070892 -40.72265625 41.85546875 C-39.87070175 41.00447098 -39.01874725 40.15347321 -38.14097595 39.27668762 C-36.355695 37.49208294 -34.57165928 35.70623176 -32.78881836 33.91918945 C-30.04980339 31.17477838 -27.30544048 28.43579568 -24.56054688 25.69726562 C-22.82259558 23.95865423 -21.08495414 22.21973305 -19.34765625 20.48046875 C-18.52483658 19.65967331 -17.70201691 18.83887787 -16.85426331 17.99320984 C-16.09935104 17.23514542 -15.34443878 16.47708099 -14.56665039 15.69604492 C-13.90016983 15.02876877 -13.23368927 14.36149261 -12.54701233 13.67399597 C-10.91695628 12.06608828 -10.91695628 12.06608828 -10 10 C-9.34 10 -8.68 10 -8 10 C-8 9.34 -8 8.68 -8 8 C-6.52295788 6.74772516 -5.04172601 5.49833478 -3.5078125 4.31640625 C-1.73237056 2.88235909 -1.73237056 2.88235909 0 0 Z " fill="#FAFAFD" transform="translate(148,354)"></path><path d="M0 0 C18.62276603 2.75752925 39.0994939 14.70738826 53 27 C53.6909375 27.54914063 54.381875 28.09828125 55.09375 28.6640625 C64.83589217 36.57018557 73.10011447 48.39679899 75 61 C76.23800037 75.99749015 72.35739484 87.10961909 63 99 C62.36964844 99.83015625 61.73929687 100.6603125 61.08984375 101.515625 C47.17987791 118.05158439 23.1188223 129.11106474 3 136 C2.01 136 1.02 136 0 136 C-0.99 132.04 -1.98 128.08 -3 124 C7.28926991 119.28408462 7.28926991 119.28408462 11.765625 117.42578125 C30.68876639 109.51924808 50.31775298 98.73873326 59.375 79.3125 C62.5762659 70.38982271 62.1040306 62.48006963 58.1875 53.875 C46.24350178 31.33236956 19.42713074 20.90818167 -3 12 C-2.218342 7.92270288 -1.17172466 3.98386386 0 0 Z " fill="#FAFBFE" transform="translate(357,183)"></path><path d="M0 0 C0.50833591 1.24663331 1.00631145 2.49749387 1.5 3.75 C1.7784375 4.44609375 2.056875 5.1421875 2.34375 5.859375 C3 8 3 8 3 12 C1.8140625 12.47308594 0.628125 12.94617188 -0.59375 13.43359375 C-23.16749377 22.58555534 -45.51911733 33.61956943 -56 57 C-58.70422402 65.11267205 -57.04223891 72.56178456 -53.54296875 80.1484375 C-42.058707 101.37251618 -18.36023678 111.52386679 3 120 C2.68950274 121.43793392 2.3765224 122.8753318 2.0625 124.3125 C1.88847656 125.11300781 1.71445313 125.91351563 1.53515625 126.73828125 C1 129 1 129 0 132 C-4.82418136 131.4062546 -8.96751404 129.97046327 -13.375 128 C-14.06762939 127.69167236 -14.76025879 127.38334473 -15.47387695 127.06567383 C-37.36567897 117.10946316 -59.99936905 103.03733673 -69.11328125 79.6015625 C-72.05285149 67.66198644 -71.42555762 54.63648131 -65 44 C-53.18346858 25.24767839 -23.60795991 0 0 0 Z " fill="#FBFBFE" transform="translate(151,185)"></path></svg>