<svg version="1.1" xmlns="http://www.w3.org/2000/svg" width="16px" height="16px" fill="currentColor" viewBox="0 0 512 512"><path d="M0 0 C168.96 0 337.92 0 512 0 C512 168.96 512 337.92 512 512 C343.04 512 174.08 512 0 512 C0 343.04 0 174.08 0 0 Z " fill="#2D8F7A" transform="translate(0,0)"></path><path d="M0 0 C2.28564453 1.01879883 2.28564453 1.01879883 4.6328125 2.45703125 C5.51267822 2.98804443 6.39254395 3.51905762 7.29907227 4.06616211 C8.69790649 4.93059937 8.69790649 4.93059937 10.125 5.8125 C12.09492312 6.99761022 14.06497776 8.18250185 16.03515625 9.3671875 C18.96337572 11.14569704 21.88727851 12.93055744 24.80419922 14.72753906 C27.38158969 16.31240278 29.970979 17.87589004 32.5625 19.4375 C33.34061035 19.92774658 34.1187207 20.41799316 34.92041016 20.9230957 C35.64921387 21.35968506 36.37801758 21.79627441 37.12890625 22.24609375 C38.07358765 22.82895142 38.07358765 22.82895142 39.03735352 23.42358398 C42.67052632 24.4906223 45.46789005 22.27749925 48.65625 20.61474609 C49.5946875 20.08961426 50.533125 19.56448242 51.5 19.0234375 C52.54623535 18.43828369 53.5924707 17.85312988 54.67041016 17.25024414 C55.7691748 16.63141357 56.86793945 16.01258301 58 15.375 C59.12325684 14.74779053 60.24651367 14.12058105 61.40380859 13.47436523 C68.25132375 9.62890153 74.90803322 5.65585648 81.3515625 1.16015625 C84.8434636 -0.36948184 87.44135336 -0.07773369 91 1 C94.15398537 2.63770112 97.02041224 4.63310257 99.9296875 6.66796875 C100.7857962 7.2512645 101.64190491 7.83456024 102.5239563 8.43553162 C105.31580223 10.34122619 108.09524946 12.26421603 110.875 14.1875 C112.79854099 15.50511414 114.72302844 16.82134761 116.6484375 18.13623047 C119.57688099 20.13638072 122.50464399 22.1374502 125.42913818 24.14337158 C131.611369 28.38223445 137.82212443 32.57384862 144.0703125 36.71484375 C145.22404861 37.47969337 145.22404861 37.47969337 146.40109253 38.25999451 C149.30692522 40.18446369 152.21408952 42.10688266 155.1239624 44.02523804 C157.08460711 45.3185708 159.04250154 46.61597484 161 47.9140625 C162.6396875 48.9961499 162.6396875 48.9961499 164.3125 50.10009766 C168.38493517 52.97906663 168.38493517 52.97906663 170 55 C170.28433228 57.19166565 170.28433228 57.19166565 170.16259766 59.77172852 C170.12752106 60.7402626 170.09244446 61.70879669 170.05630493 62.7066803 C170.00936493 63.75351486 169.96242493 64.80034943 169.9140625 65.87890625 C169.86809698 68.10212882 169.82657349 70.32544684 169.7890625 72.54882812 C169.7194589 76.0527814 169.62573072 79.54751072 169.45507812 83.0480957 C168.36245716 95.61072993 168.36245716 95.61072993 172.527771 106.95846558 C176.48853853 110.29796247 180.9948518 112.24916862 185.79278564 114.10501099 C189.01455085 115.41138364 191.83156835 117.13092798 194.8046875 118.93359375 C197.87921506 120.70916272 200.9545346 122.48306772 204.03515625 124.24804688 C205.52982422 125.11333008 205.52982422 125.11333008 207.0546875 125.99609375 C207.93624512 126.50325928 208.81780273 127.0104248 209.72607422 127.53295898 C213.58175613 130.02048235 213.58175613 130.02048235 215 132 C215.30140807 134.85692905 215.42002169 137.49678227 215.40405273 140.35522461 C215.41434761 141.63371529 215.41434761 141.63371529 215.42485046 142.93803406 C215.44317381 145.75963939 215.43927305 148.58069161 215.43359375 151.40234375 C215.43815301 153.36145713 215.44345781 155.32056891 215.44947815 157.27967834 C215.45842021 161.38793429 215.4559738 165.49599596 215.44604492 169.60424805 C215.43455589 174.87161331 215.45476022 180.13830813 215.48396206 185.40558529 C215.50229996 189.45219694 215.50203638 193.49864723 215.49632454 197.54528999 C215.49617102 199.48738101 215.50224071 201.42948275 215.51461601 203.37153435 C215.52947817 206.08657872 215.51888435 208.80037578 215.50170898 211.51538086 C215.51137695 212.31915161 215.52104492 213.12292236 215.53100586 213.9510498 C215.48443838 217.46278158 215.33343007 219.55656443 213.1920929 222.40437317 C211.29420075 223.78585095 209.52653856 224.97946608 207.42480469 226.01464844 C206.40419952 226.52472443 206.40419952 226.52472443 205.36297607 227.04510498 C204.63991272 227.39631409 203.91684937 227.74752319 203.171875 228.109375 C202.42286926 228.48104797 201.67386353 228.85272095 200.90216064 229.23565674 C198.52177355 230.41470377 196.13605336 231.58246945 193.75 232.75 C192.12984289 233.55004161 190.51004691 234.350815 188.890625 235.15234375 C184.93121536 237.11006162 180.9669865 239.05768435 177 241 C176.99786247 242.05782684 176.99786247 242.05782684 176.99568176 243.13702393 C176.97784151 249.78778989 176.93619885 256.43793293 176.86790943 263.08838272 C176.83363861 266.50741573 176.80852954 269.92600195 176.80444336 273.34521484 C176.79934081 277.27742401 176.75423677 281.20868667 176.70703125 285.140625 C176.7109639 286.36678528 176.71489655 287.59294556 176.71894836 288.85626221 C176.69930527 289.99714294 176.67966217 291.13802368 176.65942383 292.31347656 C176.64943108 293.81905121 176.64943108 293.81905121 176.63923645 295.3550415 C175.5665292 299.79356523 172.09360391 301.28192524 168.45825195 303.66894531 C167.56066162 304.21647461 166.66307129 304.76400391 165.73828125 305.328125 C164.71516846 305.95477051 163.69205566 306.58141602 162.63793945 307.22705078 C161.54054443 307.89462402 160.44314941 308.56219727 159.3125 309.25 C158.15237168 309.95911906 156.99246351 310.66859839 155.83276367 311.37841797 C153.42318701 312.85291562 151.0126708 314.32585996 148.6015625 315.79785156 C144.07555503 318.56290033 139.56138582 321.34709104 135.046875 324.13085938 C125.48308226 330.02737652 115.90615376 335.90218947 106.3125 341.75 C105.37446533 342.32250488 104.43643066 342.89500977 103.4699707 343.48486328 C101.74658737 344.53374215 100.01937474 345.57636673 98.28759766 346.61132812 C96.85652114 347.48005419 95.44121813 348.37597657 94.05224609 349.31054688 C91.20336848 351.16077547 89.19519313 351.99027592 85.78515625 352.16015625 C80.15696862 350.43510803 75.44650578 347.4866133 70.4375 344.4375 C68.84264771 343.48991821 68.84264771 343.48991821 67.21557617 342.52319336 C63.33170446 340.21545407 59.4600394 337.88838376 55.60058594 335.54003906 C53.67727536 334.37037404 51.74573141 333.21565085 49.8125 332.0625 C48.78769531 331.43472656 47.76289063 330.80695313 46.70703125 330.16015625 C43.42876522 328.75518509 42.38682076 329.03770992 39 330 C36.97565028 330.97782132 34.9867293 332.0305718 33.02734375 333.1328125 C31.30547852 334.09574219 31.30547852 334.09574219 29.54882812 335.078125 C28.3450079 335.76033871 27.14123201 336.44263066 25.9375 337.125 C24.76140504 337.78445614 23.58497516 338.44331534 22.40820312 339.1015625 C15.48242724 342.98493209 15.48242724 342.98493209 8.66455078 347.05371094 C7.62153809 347.6934082 6.57852539 348.33310547 5.50390625 348.9921875 C4.12634155 349.86012939 4.12634155 349.86012939 2.72094727 350.74560547 C-0.47766121 352.22020846 -2.51341057 352.38602992 -6 352 C-8.06030273 351.12060547 -8.06030273 351.12060547 -9.93359375 349.8671875 C-10.65232666 349.39829102 -11.37105957 348.92939453 -12.11157227 348.44628906 C-12.87912842 347.92776367 -13.64668457 347.40923828 -14.4375 346.875 C-16.14192499 345.76102285 -17.84771312 344.64912922 -19.5546875 343.5390625 C-20.89225098 342.66362793 -20.89225098 342.66362793 -22.25683594 341.77050781 C-26.80202074 338.83693001 -31.43226935 336.04665772 -36.0625 333.25 C-38.00419185 332.07208525 -39.94559212 330.89368971 -41.88671875 329.71484375 C-42.87849121 329.11269043 -43.87026367 328.51053711 -44.89208984 327.89013672 C-88.8340016 301.1659984 -88.8340016 301.1659984 -92 298 C-92.12322758 296.22096643 -92.17789019 294.43713797 -92.20532227 292.65405273 C-92.2352401 290.94239174 -92.2352401 290.94239174 -92.26576233 289.19615173 C-92.28247482 287.9545076 -92.29918732 286.71286346 -92.31640625 285.43359375 C-92.33718735 284.16983414 -92.35796844 282.90607452 -92.37937927 281.60401917 C-92.43383714 278.23881367 -92.4840428 274.87359827 -92.53222656 271.50830078 C-92.58239759 268.07644099 -92.63810655 264.64467169 -92.69335938 261.21289062 C-92.80070191 254.47533239 -92.90244325 247.73770664 -93 241 C-94.08007324 240.47043701 -95.16014648 239.94087402 -96.27294922 239.39526367 C-100.27633204 237.42975268 -104.27442329 235.45368177 -108.27099609 233.47436523 C-110.00198991 232.61893036 -111.73440838 231.76637209 -113.46826172 230.91674805 C-115.95920226 229.69551704 -118.44484818 228.46405697 -120.9296875 227.23046875 C-121.70682098 226.85222458 -122.48395447 226.47398041 -123.28463745 226.08427429 C-124.00523346 225.72412735 -124.72582947 225.36398041 -125.46826172 224.99291992 C-126.42090408 224.52326057 -126.42090408 224.52326057 -127.39279175 224.04411316 C-129 223 -129 223 -131 220 C-131.21530175 217.18846883 -131.31444453 214.47401886 -131.32226562 211.66064453 C-131.33219543 210.80992371 -131.34212524 209.95920288 -131.35235596 209.08270264 C-131.38158622 206.26603979 -131.39520001 203.44960215 -131.40625 200.6328125 C-131.41775333 198.67609653 -131.42926879 196.71938063 -131.4407959 194.76266479 C-131.46181169 190.65866037 -131.47349993 186.55473426 -131.48046875 182.45068359 C-131.49144258 177.19218464 -131.5395057 171.93472037 -131.59641266 166.6765461 C-131.63366213 162.63419572 -131.6440763 158.59209477 -131.6471405 154.54958725 C-131.65319478 152.6110658 -131.66925647 150.67254881 -131.69551086 148.73419571 C-131.72963441 146.02137786 -131.72587612 143.31109003 -131.71289062 140.59814453 C-131.74053497 139.39788132 -131.74053497 139.39788132 -131.76873779 138.17337036 C-131.72441747 135.2169723 -131.6298435 132.77405561 -129.71443367 130.420084 C-126.56615947 127.74115418 -122.98106982 125.67919816 -119.3671875 123.6953125 C-118.31273438 123.11136719 -117.25828125 122.52742188 -116.171875 121.92578125 C-115.08390625 121.33152344 -113.9959375 120.73726563 -112.875 120.125 C-110.72595598 118.94120457 -108.57751679 117.75631047 -106.4296875 116.5703125 C-105.37362305 115.98926758 -104.31755859 115.40822266 -103.22949219 114.80957031 C-98.89402533 112.380293 -94.62746843 109.84001866 -90.36767578 107.28076172 C-88 106 -88 106 -86 106 C-86.00888245 105.2947821 -86.01776489 104.58956421 -86.0269165 103.86297607 C-86.10710923 97.21260292 -86.16798781 90.56236495 -86.20724869 83.91161728 C-86.22811201 80.4924632 -86.25640505 77.07370906 -86.30175781 73.65478516 C-86.35358618 69.72303069 -86.37295578 65.79143743 -86.390625 61.859375 C-86.41127014 60.63321472 -86.43191528 59.40705444 -86.45318604 58.14373779 C-86.45348816 57.00285706 -86.45379028 55.86197632 -86.45410156 54.68652344 C-86.46298401 53.68280701 -86.47186646 52.67909058 -86.48101807 51.6449585 C-85.86762669 48.27212316 -84.60969396 47.14738012 -82 45 C-80.43638848 43.95792772 -78.83359735 42.97306226 -77.203125 42.0390625 C-76.25695312 41.4925 -75.31078125 40.9459375 -74.3359375 40.3828125 C-73.31757813 39.80273438 -72.29921875 39.22265625 -71.25 38.625 C-69.06761285 37.36735317 -66.88532388 36.10953597 -64.703125 34.8515625 C-63.58744141 34.2112207 -62.47175781 33.57087891 -61.32226562 32.91113281 C-56.20069365 29.96494929 -51.1008524 26.98186152 -46 24 C-44.02486411 22.84744282 -42.04960289 21.6951004 -40.07421875 20.54296875 C-39.08728027 19.96724121 -38.1003418 19.39151367 -37.08349609 18.79833984 C-33.83331765 16.90278842 -30.58270934 15.00797569 -27.33203125 13.11328125 C-26.24083984 12.47712891 -25.14964844 11.84097656 -24.02539062 11.18554688 C-21.93439425 9.96654048 -19.84325584 8.74777765 -17.75195312 7.52929688 C-16.80900391 6.97951172 -15.86605469 6.42972656 -14.89453125 5.86328125 C-14.06800049 5.38157471 -13.24146973 4.89986816 -12.38989258 4.40356445 C-10.7300368 3.42874467 -9.10329107 2.39619433 -7.5065918 1.32104492 C-4.64604562 -0.18654399 -3.18556555 -0.43861966 0 0 Z " fill="#FBFDFC" transform="translate(214,83)"></path><path d="M0 0 C5.13085262 1.46823776 9.29128829 3.75573954 13.8125 6.5 C15.15213381 7.30243392 16.49199102 8.10449498 17.83203125 8.90625 C18.54733505 9.35948135 19.26263885 9.81271271 19.99961853 10.27967834 C22.38771254 11.64893418 24.66071524 12.74248236 27.17591858 13.82810974 C38.61371477 19.09788495 38.61371477 19.09788495 40.92682076 23.9402504 C42.06405092 28.64162097 41.83740725 33.35774145 41.52412796 38.15347481 C41.34812751 40.86941308 41.28038153 43.5703763 41.23812866 46.29148865 C41.12913924 52.05349802 40.88389364 57.8055704 40.625 63.5625 C40.33368587 70.24308113 40.09969146 76.91825903 39.98661423 83.60438347 C39.91528832 86.27058446 39.75239689 88.9205881 39.58413696 91.58216858 C39.08088649 99.6200535 39.08088649 99.6200535 42.40612793 106.60446358 C45.94030167 109.4637259 49.83844234 111.37813541 54.00786209 113.13833237 C57.27222405 114.55028032 60.35525852 116.26844955 63.484375 117.95703125 C64.69752326 118.60295297 65.91101726 119.24822614 67.125 119.89257812 C67.72054687 120.2104126 68.31609375 120.52824707 68.9296875 120.85571289 C70.15792023 121.50129284 71.39324222 122.13353786 72.63476562 122.75317383 C83.0874835 127.99988463 83.0874835 127.99988463 85.38696289 133.04003906 C86.14453125 136.25390625 86.14453125 136.25390625 86.52270508 139.26000977 C87.26590307 143.52646043 89.70162476 146.3064613 93 149 C98.09026745 152.27547644 104.19471652 151.54579588 110 151 C114.74084693 149.76289634 117.37830252 146.8675165 119.9375 142.8125 C122.63386189 137.36620611 123.19862882 132.59588646 121.265625 126.796875 C118.79526846 121.3296925 115.72965428 118.21317968 110.1875 115.75 C105.69304503 114.69248118 101.35672584 113.83624488 97.109375 115.93359375 C96.51640625 116.30613281 95.9234375 116.67867188 95.3125 117.0625 C92 119 92 119 89.69091797 118.8371582 C86.36719531 117.80313126 83.64469759 116.29061937 80.6328125 114.54296875 C79.73609329 114.02661613 79.73609329 114.02661613 78.82125854 113.49983215 C76.91862595 112.40227402 75.02178633 111.29512478 73.125 110.1875 C71.85844823 109.4544293 70.59152433 108.72200115 69.32421875 107.99023438 C66.97566375 106.63311004 64.62986229 105.27162151 62.28564453 103.90698242 C58.86614697 101.92231193 55.43278794 99.96159311 52 98 C52 72.92 52 47.84 52 22 C60.58 17.05 69.16 12.1 78 7 C81.96 4.69 85.92 2.38 90 0 C94.05736826 1.42556182 95.82007459 2.39467831 99 5 C105.91267314 9.98195924 112.99970291 14.70909013 120.09664917 19.42282104 C121.85303175 20.58942145 123.60839315 21.75754485 125.36352539 22.92602539 C129.98469128 26.00205551 134.60796019 29.07491824 139.23144531 32.14746094 C141.21863276 33.46823292 143.20554597 34.78941761 145.19213867 36.11108398 C146.97803152 37.29919109 148.76461625 38.48625908 150.55200195 39.67211914 C151.34823975 40.20184326 152.14447754 40.73156738 152.96484375 41.27734375 C153.6518335 41.73359131 154.33882324 42.18983887 155.04663086 42.65991211 C155.69124268 43.10214111 156.33585449 43.54437012 157 44 C158.10275269 44.70938721 158.10275269 44.70938721 159.2277832 45.43310547 C161 47 161 47 161.390625 50.79296875 C161.36410276 52.25832231 161.31649117 53.72341551 161.25 55.1875 C161.23195313 55.93708984 161.21390625 56.68667969 161.1953125 57.45898438 C161.14824109 59.3065371 161.07649766 61.15343159 161 63 C156.28674133 63.34026199 151.70279934 63.53527797 147 63 C144.4375 60.25 144.4375 60.25 143 57 C138.13874804 52.5126905 133.84244158 50.49300733 127.12109375 50.68359375 C122.02043376 51.44446568 118.13504537 53.8052154 114.625 57.5 C110.97810117 63.11061359 110.18776499 67.32162326 111 74 C112.95514276 80.19304681 116.24541833 83.86337208 121.89453125 87.078125 C127.04372967 89.33269054 132.62035105 88.43539343 137.75 86.5 C141.35498347 84.79918729 142.55207494 83.3390262 144.1875 79.75 C145.2734375 77.640625 145.2734375 77.640625 147 76 C151.73046433 75.28555916 156.25150023 75.53735861 161 76 C161.0093457 76.61520508 161.01869141 77.23041016 161.02832031 77.86425781 C161.08211085 80.66031086 161.16573819 83.4547062 161.25 86.25 C161.26417969 87.21808594 161.27835938 88.18617188 161.29296875 89.18359375 C161.32519531 90.11816406 161.35742188 91.05273438 161.390625 92.015625 C161.41157227 92.87446289 161.43251953 93.73330078 161.45410156 94.61816406 C162.42668919 98.8617083 165.29606924 100.54997673 168.83398438 102.81176758 C169.90970703 103.41657959 170.98542969 104.0213916 172.09375 104.64453125 C172.68111938 104.97740646 173.26848877 105.31028168 173.87365723 105.65324402 C175.74569474 106.71251195 177.62260786 107.76275715 179.5 108.8125 C181.34765541 109.85351154 183.19424644 110.89638991 185.04064941 111.93962097 C186.73571187 112.89607009 188.43320518 113.84820751 190.13085938 114.80004883 C190.99297028 115.31554039 190.99297028 115.31554039 191.87249756 115.84144592 C194.11345113 117.1117636 194.11345113 117.1117636 197.07720947 118.26390076 C200.58467919 119.87716475 203.19604953 121.33497707 206 124 C207.66829519 129.18937175 207.40561946 134.19021567 207.171875 139.55859375 C207.14946706 141.07309724 207.13239792 142.58768828 207.12042236 144.10231018 C207.07479731 148.071646 206.95713886 152.03563373 206.82397461 156.00286865 C206.70076778 160.05781684 206.64631899 164.11363785 206.5859375 168.16992188 C206.45758957 176.11572452 206.2530649 184.05719551 206 192 C201.73314774 190.62926991 198.09491796 189.06513283 194.234375 186.77734375 C193.17992187 186.15666016 192.12546875 185.53597656 191.0390625 184.89648438 C189.95367187 184.25001953 188.86828125 183.60355469 187.75 182.9375 C185.57833596 181.65459074 183.40647131 180.37202099 181.234375 179.08984375 C180.27756836 178.52128662 179.32076172 177.95272949 178.33496094 177.36694336 C176.91417071 176.53517794 175.47254299 175.7362715 174 175 C173.76171875 173.21484375 173.76171875 173.21484375 173.6875 170.9375 C173.18335784 165.66081201 171.56072606 161.94350412 168 158 C162.96739258 153.86440826 157.27054916 153.25509365 150.91015625 153.48828125 C146.15904887 154.32371087 143.16452795 156.42305236 140 160 C136.6643092 165.42049755 136.13479109 170.78799445 137 177 C138.4178 181.6699288 140.23148034 184.38832109 144.0625 187.4375 C149.0840438 190.10853394 153.39652673 190.71862725 159 190 C161.13829797 189.04318913 163.03255594 187.97829604 164.98046875 186.6796875 C168.21612312 185.59070518 169.87680585 186.64673458 173 188 C176.59942212 189.86107113 180.11406222 191.85281622 183.625 193.875 C184.56601562 194.40480469 185.50703125 194.93460938 186.4765625 195.48046875 C187.3840625 195.99996094 188.2915625 196.51945313 189.2265625 197.0546875 C190.04721191 197.52374512 190.86786133 197.99280273 191.71337891 198.47607422 C194.13154863 200.08767099 196.01711663 201.88397611 198 204 C197.47156494 204.27674561 196.94312988 204.55349121 196.39868164 204.83862305 C193.9526884 206.12044195 191.50759216 207.40396316 189.0625 208.6875 C188.23169922 209.12255859 187.40089844 209.55761719 186.54492188 210.00585938 C177.22630598 214.23320506 177.22630598 214.23320506 169 220 C168.97631594 221.71864177 169.02257324 223.43828992 169.09619141 225.15551758 C169.3039209 230.68936761 169.43673735 236.21871925 169.51114845 241.75601673 C169.56088006 245.10829842 169.6537501 248.44651745 169.80566406 251.79663086 C170.74194924 273.35927858 170.74194924 273.35927858 166.25796509 279.31304932 C161.8348016 283.24167703 156.7900203 285.674452 151.37451172 287.96176147 C148.12842043 289.38109203 145.33708571 291.17250245 142.37109375 293.109375 C140.39394955 294.32408998 138.41608538 295.5376339 136.4375 296.75 C134.23434703 298.10281904 132.03122296 299.45568514 129.828125 300.80859375 C128.1584668 301.83315674 128.1584668 301.83315674 126.45507812 302.87841797 C122.87948212 305.07320578 119.30668258 307.27252126 115.734375 309.47265625 C115.14072647 309.83823639 114.54707794 310.20381653 113.93544006 310.58047485 C111.07786628 312.34026153 108.22040387 314.10022874 105.36303711 315.86035156 C104.33960205 316.49038086 103.31616699 317.12041016 102.26171875 317.76953125 C101.36412842 318.32229736 100.46653809 318.87506348 99.54174805 319.44458008 C98.70297119 319.95786865 97.86419434 320.47115723 97 321 C96.16960205 321.58225342 95.3392041 322.16450684 94.48364258 322.7644043 C92 324 92 324 89.52197266 323.87182617 C86.65304187 322.8800593 84.25562497 321.6080248 81.6484375 320.05078125 C80.63136719 319.44943359 79.61429688 318.84808594 78.56640625 318.22851562 C77.51324219 317.59623047 76.46007812 316.96394531 75.375 316.3125 C73.30040532 315.0778695 71.2248888 313.84478664 69.1484375 312.61328125 C68.23239746 312.06454346 67.31635742 311.51580566 66.37255859 310.95043945 C61.63308004 308.20947419 56.80647205 305.62171203 52 303 C52 289.14 52 275.28 52 261 C57.506875 260.835 63.01375 260.67 68.6875 260.5 C70.41701904 260.42716797 72.14653809 260.35433594 73.9284668 260.27929688 C84.8082547 260.01234265 84.8082547 260.01234265 88.08569336 262.72851562 C89.3828125 264.875 89.3828125 264.875 90.20361328 267.0234375 C91.37741585 269.93671327 93.23070304 271.03408148 95.984375 272.375 C101.5986998 274.11587591 107.04611426 273.7437421 112.375 271.3125 C116.78175915 268.78039041 119.18374387 265.83657629 121.25 261.1875 C122.64812563 255.24546607 122.94259428 251.0566422 119.875 245.75 C116.78509458 241.28192654 113.15941136 238.71980379 108 237 C101.70899252 236.21781435 97.16020286 236.82855266 91.7890625 240.22265625 C89.25526771 242.58209011 89.25526771 242.58209011 86 249 C74.78 249 63.56 249 52 249 C51.67 217.65 51.34 186.3 51 154 C49.35 153.34 47.7 152.68 46 152 C43.88319485 150.79165275 41.78850669 149.54415802 39.7109375 148.26953125 C38.51064675 147.54193801 37.31011891 146.81473578 36.109375 146.08789062 C34.23261791 144.94649275 32.3579587 143.80201118 30.48730469 142.65063477 C28.67141642 141.53526214 26.84819611 140.43281359 25.0234375 139.33203125 C23.93981934 138.66921143 22.85620117 138.0063916 21.73974609 137.32348633 C19.00651324 135.61038503 19.00651324 135.61038503 16 137 C14.54355243 139.08812458 14.54355243 139.08812458 13.3125 141.5625 C12.87550781 142.38878906 12.43851562 143.21507812 11.98828125 144.06640625 C11.66214844 144.70449219 11.33601563 145.34257812 11 146 C11.65226562 146.22945312 12.30453125 146.45890625 12.9765625 146.6953125 C16.98633146 148.42562624 20.63394303 150.63167388 24.375 152.875 C25.84090117 153.74780688 27.30704442 154.62020733 28.7734375 155.4921875 C29.47823242 155.91209961 30.18302734 156.33201172 30.90917969 156.76464844 C33.92044491 158.54384064 36.95784189 160.27423749 40 162 C41.95375374 179.3708746 41.95375374 179.3708746 37.78515625 184.98046875 C34.63303582 187.2544689 31.40069989 189.1204652 28 191 C25.78983526 192.56652357 23.67985175 194.24852541 21.5625 195.9375 C20.48705422 196.76871193 19.41021818 197.59812805 18.33203125 198.42578125 C15.99254044 200.231129 13.6576112 202.04224758 11.32421875 203.85546875 C10.4269104 204.55071655 10.4269104 204.55071655 9.51147461 205.26000977 C8.35575557 206.1555919 7.20156584 207.05315177 6.04907227 207.95288086 C2.11257024 211 2.11257024 211 1 211 C0.99589111 210.14768799 0.99178223 209.29537598 0.98754883 208.41723633 C0.9604958 205.23904652 0.9113357 202.06216708 0.84741211 198.88452148 C0.82429022 197.51224569 0.80984997 196.13979391 0.80444336 194.76733398 C0.79511335 192.78865529 0.75142981 190.81023376 0.70703125 188.83203125 C0.6913208 187.64327393 0.67561035 186.4545166 0.65942383 185.22973633 C-0.18625011 181.08778132 -1.80977231 179.69151876 -5 177 C-5.61963623 176.46076904 -6.23927246 175.92153809 -6.87768555 175.3659668 C-7.4581665 174.89843994 -8.03864746 174.43091309 -8.63671875 173.94921875 C-9.29736328 173.41490234 -9.95800781 172.88058594 -10.63867188 172.33007812 C-11.6528418 171.51700195 -11.6528418 171.51700195 -12.6875 170.6875 C-13.34427734 170.15705078 -14.00105469 169.62660156 -14.67773438 169.08007812 C-15.67836914 168.27280273 -15.67836914 168.27280273 -16.69921875 167.44921875 C-17.37944092 166.88380371 -18.05966309 166.31838867 -18.76049805 165.73583984 C-21.01244787 163.92214217 -21.01244787 163.92214217 -23.70239258 162.36181641 C-28.03296163 159.54383476 -30.56021808 157.58921446 -31.9699707 152.49487305 C-32.41819516 149.04509311 -32.45140722 145.63780229 -32.35864258 142.1640625 C-32.31243846 139.99711404 -32.37854042 137.85319699 -32.45507812 135.6875 C-32.50346795 130.29039819 -32.47366972 125.71829955 -28.80126953 121.4362793 C-25.96642513 119.34170803 -23.10850787 117.65709879 -20 116 C-18.33139462 114.93428546 -16.66945636 113.85803169 -15.015625 112.76953125 C-13.42956724 111.77986226 -11.84104777 110.79412667 -10.25 109.8125 C-0.3972016 104.60187004 -0.3972016 104.60187004 7 97 C7.15745826 93.9395806 7.25866877 90.898581 7.31640625 87.8359375 C7.3475779 86.47512558 7.3475779 86.47512558 7.37937927 85.08682251 C7.44487135 82.1829602 7.50375814 79.27900595 7.5625 76.375 C7.60568555 74.40884458 7.64929985 72.44269853 7.69335938 70.4765625 C7.80055239 65.65113638 7.90182081 60.8256176 8 56 C3.71 56 -0.58 56 -5 56 C-4.76434326 57.47871582 -4.76434326 57.47871582 -4.52392578 58.98730469 C-0.65206893 85.58822156 -0.65206893 85.58822156 -6.2989502 93.91552734 C-13.69358974 102.11238051 -24.82050047 107.98707705 -35 112 C-45.3073893 112 -56.68485663 104.77410412 -64.28775024 98.15625 C-72.63446169 89.52663593 -71.94419249 77.16533648 -71.875 65.875 C-71.89826355 64.1624855 -71.89826355 64.1624855 -71.92199707 62.41537476 C-71.96708568 44.67157943 -71.96708568 44.67157943 -67.40777588 39.02972412 C-63.69906231 35.81420007 -59.60450716 33.7661102 -55.09011841 31.91061401 C-51.58568151 30.38381566 -48.38547978 28.35759851 -45.125 26.375 C-39.2687747 23 -39.2687747 23 -37 23 C-37 40.49 -37 57.98 -37 76 C-32.71 76 -28.42 76 -24 76 C-24 55.54 -24 35.08 -24 14 C-16.41 9.71 -8.82 5.42 -1 1 C-0.67 0.67 -0.34 0.34 0 0 Z " fill="#32947F" transform="translate(210,97)"></path><path d="M0 0 C10.02288317 4.13977123 25.11498315 10.53893651 29.89251709 20.94378662 C31.44613504 25.97750879 31.62593385 30.95464955 31.5 36.1875 C31.49403305 37.2698291 31.49403305 37.2698291 31.48794556 38.37402344 C31.35702743 44.32678361 30.89501078 49.8579238 26.8034668 54.48291016 C23.97159603 56.58778632 21.08700468 58.29364335 18 60 C15.95637102 61.34134593 13.92119748 62.69565973 11.89453125 64.0625 C9.8691475 65.37802256 7.841798 66.69052355 5.8125 68 C4.24145508 69.01900391 4.24145508 69.01900391 2.63867188 70.05859375 C0.09418694 71.70844243 -2.45203642 73.35553088 -5 75 C-3.35 77.97 -1.7 80.94 0 84 C4.99777133 83.00044573 7.96979809 81.32596038 12.05078125 78.52734375 C12.70958786 78.0848378 13.36839447 77.64233185 14.04716492 77.18641663 C16.14080724 75.7776415 18.22665989 74.35779482 20.3125 72.9375 C21.7345259 71.97777415 23.1570468 71.01878131 24.58007812 70.06054688 C28.05917691 67.71548394 31.53133489 65.36046539 35 63 C38.43536236 65.25135336 41.77282352 67.51933198 44.9453125 70.12890625 C45.62980469 70.68900391 46.31429687 71.24910156 47.01953125 71.82617188 C47.71433594 72.39916016 48.40914063 72.97214844 49.125 73.5625 C50.52288695 74.71030625 51.92130768 75.85746279 53.3203125 77.00390625 C53.93148926 77.50736572 54.54266602 78.0108252 55.17236328 78.52954102 C56.98189948 80.07061902 56.98189948 80.07061902 59.17919922 81.21020508 C61.94856387 83.93241107 61.72576085 86.94953321 61.8125 90.6328125 C61.83530029 91.38408417 61.85810059 92.13535583 61.8815918 92.90939331 C61.91936226 94.50121614 61.94551671 96.09335068 61.9609375 97.68554688 C61.99961202 100.10077074 62.12341753 102.50207303 62.25 104.9140625 C62.56008775 116.16393784 62.56008775 116.16393784 58.50610352 120.93505859 C55.44070073 123.23488846 52.34633074 125.13892488 49 127 C47.67588362 127.95898761 46.36784953 128.94130882 45.08984375 129.9609375 C43.49425342 131.18283939 41.89855616 132.40461403 40.29882812 133.62109375 C37.67524131 135.63326514 35.34682834 137.65317166 33 140 C34.98 142.64 36.96 145.28 39 148 C43.42591367 146.53289158 46.68576517 144.09945321 50.25 141.1875 C51.49910583 140.18638331 52.74914652 139.18643222 54 138.1875 C54.65355469 137.66414062 55.30710937 137.14078125 55.98046875 136.6015625 C59.36717097 133.91578318 62.80946723 131.30372188 66.25 128.6875 C72.19319991 124.15854405 78.10723963 119.59437715 84 115 C86.99906608 112.66546434 89.99930855 110.33244599 93 108 C94.18698486 107.07646729 94.18698486 107.07646729 95.39794922 106.13427734 C97.74103375 104.31419852 100.08860964 102.50007719 102.4375 100.6875 C103.15357422 100.12998047 103.86964844 99.57246094 104.60742188 98.99804688 C105.27193359 98.48693359 105.93644531 97.97582031 106.62109375 97.44921875 C107.2030249 96.99893311 107.78495605 96.54864746 108.38452148 96.0847168 C110 95 110 95 113 94 C113 128.65 113 163.3 113 199 C104.09 203.95 95.18 208.9 86 214 C82.7 215.98 79.4 217.96 76 220 C71.89086422 219.17817284 70.27917654 218.81345485 67.01171875 216.71484375 C66.30595703 216.26689453 65.60019531 215.81894531 64.87304688 215.35742188 C64.15181641 214.88884766 63.43058594 214.42027344 62.6875 213.9375 C61.57665039 213.22883789 61.57665039 213.22883789 60.44335938 212.50585938 C58.62448781 211.34412851 56.8116341 210.17298518 55 209 C56.09857962 205.70426115 56.55386713 205.3340163 59.2890625 203.46875 C59.97669678 202.99276367 60.66433105 202.51677734 61.37280273 202.02636719 C62.11602783 201.52266602 62.85925293 201.01896484 63.625 200.5 C65.17156135 199.43372391 66.71711312 198.36598218 68.26171875 197.296875 C69.44193604 196.48186523 69.44193604 196.48186523 70.64599609 195.65039062 C74.95196637 192.63147764 79.15721506 189.47373491 83.35205078 186.30273438 C87.78383102 183 87.78383102 183 90 183 C89.24088921 181.51478323 88.46728766 180.03696575 87.6875 178.5625 C87.25824219 177.73878906 86.82898438 176.91507813 86.38671875 176.06640625 C85.09979113 173.69352356 85.09979113 173.69352356 82 173 C79.35549669 174.62033151 76.92250313 176.28407025 74.4375 178.125 C73.69677246 178.66108887 72.95604492 179.19717773 72.19287109 179.74951172 C70.61190557 180.89505727 69.03420455 182.04511908 67.45947266 183.19921875 C64.15861924 185.61604372 60.83898614 188.00643136 57.51977539 190.39794922 C54.58308925 192.51581218 51.65253205 194.64207529 48.72314453 196.77001953 C44.18091319 200.012264 44.18091319 200.012264 41.69506836 199.84375 C38.40580636 198.81397471 35.81728568 197.30479029 32.87890625 195.5 C32.29769516 195.14542725 31.71648407 194.79085449 31.11766052 194.42553711 C29.26159727 193.29060523 27.41214609 192.14535312 25.5625 191 C23.75213451 189.89195033 21.94060886 188.78586005 20.12774658 187.68190002 C18.91364412 186.93159027 17.70797979 186.16746296 16.51092529 185.39024353 C13.40961286 183.38767985 10.43380529 181.71207027 6.99902344 180.34594727 C2.91922987 178.57077476 -0.55585475 176.84386686 -3 173 C-5.30994813 164.59778679 -4.30837776 155.53555129 -3.875 146.9375 C-3.80472231 144.52166407 -3.74085307 142.10563267 -3.68359375 139.68945312 C-3.52982492 133.78868425 -3.29610775 127.89524914 -3 122 C-1.91895996 121.39744385 -0.83791992 120.7948877 0.27587891 120.17407227 C1.71782851 119.36744871 3.15971995 118.56072116 4.6015625 117.75390625 C5.31127197 117.35868774 6.02098145 116.96346924 6.75219727 116.55627441 C11.96392727 113.6360891 16.98808297 110.52757615 21.9609375 107.21484375 C24 106 24 106 26 106 C24.02 102.7 22.04 99.4 20 96 C15.38347394 97.35168556 11.68343048 99.24281581 7.625 101.8125 C7.05700684 102.16562256 6.48901367 102.51874512 5.90380859 102.88256836 C3.43460064 104.42274999 1.00483999 105.9965929 -1.375 107.671875 C-2.035 108.13078125 -2.695 108.5896875 -3.375 109.0625 C-3.91898438 109.46597656 -4.46296875 109.86945313 -5.0234375 110.28515625 C-9.10510299 111.76133172 -13.28985358 110.28962319 -17.16552734 108.70898438 C-18.2117627 108.17595703 -19.25799805 107.64292969 -20.3359375 107.09375 C-21.48191406 106.51496094 -22.62789062 105.93617188 -23.80859375 105.33984375 C-24.99741804 104.72660555 -26.18621987 104.11332381 -27.375 103.5 C-28.58679391 102.8858386 -29.7990302 102.27254925 -31.01171875 101.66015625 C-39.81755832 97.18244168 -39.81755832 97.18244168 -41 96 C-41.08858646 93.26105915 -41.11523479 90.5474673 -41.09765625 87.80859375 C-41.0962413 86.98875504 -41.09482635 86.16891632 -41.09336853 85.32423401 C-41.08775289 82.69528618 -41.07519779 80.06642227 -41.0625 77.4375 C-41.05748701 75.65950643 -41.05292376 73.88151154 -41.04882812 72.10351562 C-41.03777839 67.73564455 -41.02050331 63.36783652 -41 59 C-30.06327768 53.20181789 -19.10470121 47.47083159 -8 42 C-8.71840092 38.20088882 -9.72555405 34.65341173 -11 31 C-18.61244608 33.7351251 -25.75096206 37.30293291 -32.92919922 41.00170898 C-34.06252686 41.58094116 -34.06252686 41.58094116 -35.21875 42.171875 C-36.2387207 42.6992627 -36.2387207 42.6992627 -37.27929688 43.23730469 C-39 44 -39 44 -41 44 C-42.51821367 36.1033425 -43.79883828 27.7144556 -41 20 C-35.49889106 13.89883785 -27.62835748 10.73546157 -20.22070312 7.50732422 C-15.80366691 5.44010305 -11.75729019 2.86855429 -7.66503906 0.22485352 C-4.42120284 -1.26601551 -3.34284368 -1.14567537 0 0 Z " fill="#23836F" transform="translate(137,201)"></path><path d="M0 0 C2.73251347 1.99399631 3.83247946 3.1623973 4.5 6.5 C3.82597224 9.87013879 2.7912125 11.01677007 0 13 C-3.0625 13.5 -3.0625 13.5 -6 13 C-7.9375 11.4375 -7.9375 11.4375 -9 9 C-8.875 5.375 -8.875 5.375 -8 2 C-4.75173326 -0.16551116 -3.76905843 -0.55156953 0 0 Z " fill="#44A48F" transform="translate(342,160)"></path><path d="M0 0 C3.375 0.9375 3.375 0.9375 5.375 3.9375 C5.88819996 7.27329974 5.69722026 8.49593891 3.6875 11.25 C1.375 12.9375 1.375 12.9375 -1.125 13.4375 C-4.4626027 12.76997946 -5.63100369 11.67001347 -7.625 8.9375 C-8.28974877 5.61375617 -7.92761443 4.39747394 -6.0625 1.5625 C-3.625 -0.0625 -3.625 -0.0625 0 0 Z " fill="#3E9C87" transform="translate(314.625,224.0625)"></path><path d="M0 0 C3.5625 0.3125 3.5625 0.3125 5.5625 1.375 C7.17897822 4.50692656 6.34915296 6.98435286 5.5625 10.3125 C3.5625 12.3125 3.5625 12.3125 0.125 12.6875 C-3.4375 12.3125 -3.4375 12.3125 -5.4375 10.6875 C-6.77930884 7.50070399 -6.36697204 5.60140107 -5.4375 2.3125 C-3.4375 0.3125 -3.4375 0.3125 0 0 Z " fill="#33907C" transform="translate(313.4375,345.6875)"></path><path d="M0 0 C3.5625 0.3125 3.5625 0.3125 5.5 1.4375 C7.06672245 4.20230433 6.95226435 6.19438517 6.5625 9.3125 C5.4375 11.1875 5.4375 11.1875 3.5625 12.3125 C0.44438517 12.70226435 -1.54769567 12.81672245 -4.3125 11.25 C-6.05723477 8.24517901 -5.74585443 5.70439869 -5.4375 2.3125 C-3.4375 0.3125 -3.4375 0.3125 0 0 Z " fill="#399A85" transform="translate(364.4375,262.6875)"></path></svg>