<svg version="1.1" xmlns="http://www.w3.org/2000/svg" width="16px" height="16px" fill="currentColor" viewBox="0 0 512 512"><path d="M0 0 C168.96 0 337.92 0 512 0 C512 168.96 512 337.92 512 512 C343.04 512 174.08 512 0 512 C0 343.04 0 174.08 0 0 Z " fill="#2D907B" transform="translate(0,0)"></path><path d="M0 0 C1.11038635 -0.00983414 2.22077271 -0.01966827 3.36480713 -0.02980042 C5.18525543 -0.01529846 5.18525543 -0.01529846 7.04248047 -0.00050354 C8.32411072 -0.00590652 9.60574097 -0.01130951 10.9262085 -0.01687622 C14.43869713 -0.0308359 17.95069621 -0.01965797 21.46315765 -0.00316501 C25.13950483 0.01068789 28.81582365 0.00422515 32.4921875 0.0007019 C38.6659331 -0.00200004 44.83948426 0.01147388 51.01318359 0.03465271 C58.15010474 0.06126249 65.2867008 0.06300957 72.42365456 0.05126435 C79.29010806 0.04048377 86.15644401 0.04667578 93.02288818 0.06081963 C95.94466939 0.06657705 98.8663645 0.06649869 101.78814697 0.06175423 C105.86789643 0.05609428 109.94716067 0.07530556 114.02685547 0.09715271 C115.24048767 0.09265106 116.45411987 0.08814941 117.70452881 0.08351135 C118.81491516 0.09341599 119.92530151 0.10332062 121.06933594 0.11352539 C122.03386688 0.11595529 122.99839783 0.11838518 123.99215698 0.12088871 C127.05244181 0.57865567 128.28830863 1.39685648 130.53466797 3.50120544 C131.03721529 5.54914993 131.03721529 5.54914993 131.04082584 7.95092678 C131.05187353 8.86708277 131.06292122 9.78323876 131.07430369 10.72715706 C131.06194254 12.23909923 131.06194254 12.23909923 131.04933167 13.78158569 C131.05627719 14.85121742 131.06322272 15.92084915 131.07037872 17.02289397 C131.08874874 20.62516707 131.07835628 24.22678903 131.06811523 27.8290863 C131.07516862 30.40429175 131.08391118 32.97949304 131.09422302 35.5546875 C131.11589454 41.83423038 131.11572809 48.11359227 131.10759748 54.39316028 C131.10130402 59.49604763 131.10242847 64.5988821 131.10886955 69.70176888 C131.10977121 70.42735216 131.11067286 71.15293544 131.11160184 71.9005061 C131.113453 73.37441259 131.11531556 74.84831906 131.1171894 76.32222552 C131.13377899 90.15229311 131.12503901 103.98225876 131.10820382 117.81232024 C131.09350732 130.47097537 131.1081324 143.12939313 131.13697398 155.78801768 C131.1663524 168.77878047 131.17734474 181.76943365 131.16779178 194.76022822 C131.16676921 196.22909421 131.1657746 197.69796022 131.16480827 199.16682625 C131.16433188 199.88957533 131.16385549 200.6123244 131.16336467 201.35697497 C131.16119838 206.45424188 131.17101598 211.55140527 131.1855793 216.64864922 C131.20490351 223.50808115 131.19804903 230.36706379 131.1733799 237.22647667 C131.16835346 239.74844896 131.17190886 242.27045463 131.18452835 244.79240036 C131.20035772 248.22672952 131.18560178 251.65958334 131.16285706 255.09384155 C131.17469278 256.09957228 131.18652851 257.10530301 131.1987229 258.14151043 C131.10846973 264.81685163 131.10846973 264.81685163 128.33933926 268.11949921 C125.29095614 269.62126877 123.41388332 270.00585036 120.03173828 270.01586914 C118.39150696 270.03495583 118.39150696 270.03495583 116.71813965 270.0544281 C115.52837524 270.04790222 114.33861084 270.04137634 113.11279297 270.03465271 C111.22179871 270.04757607 111.22179871 270.04757607 109.29260254 270.0607605 C105.84212175 270.08323171 102.39210013 270.08032062 98.9415741 270.07143903 C96.05878216 270.06632364 93.17607609 270.07362602 90.293293 270.0809111 C83.49216432 270.09790244 76.69126006 270.09435163 69.89013672 270.07762146 C62.87748221 270.06069389 55.86544989 270.07654447 48.85286331 270.10884434 C42.82720972 270.13554525 36.80174975 270.14281517 30.77604294 270.13432926 C27.17920875 270.12940222 23.58274904 270.13160314 19.98596191 270.15211678 C15.97576066 270.17389435 11.96673864 270.15507014 7.95654297 270.13230896 C6.76677856 270.14400116 5.57701416 270.15569336 4.35119629 270.16773987 C2.71096497 270.14875893 2.71096497 270.14875893 1.03759766 270.12939453 C-0.38374481 270.12851507 -0.38374481 270.12851507 -1.83380127 270.12761784 C-5.77948568 269.18838291 -7.12898077 267.81476045 -9.46533203 264.50120544 C-10.18964197 261.01782827 -10.13574656 257.60372558 -10.09352112 254.0562439 C-10.10061551 252.99307042 -10.10770989 251.92989695 -10.11501926 250.83450609 C-10.13264523 247.26592739 -10.11446988 243.69843118 -10.09643555 240.12986755 C-10.10157253 237.57407128 -10.10885213 235.01827854 -10.11811829 232.4624939 C-10.13474028 226.23794912 -10.12797998 220.01380685 -10.11003006 213.78927725 C-10.09600679 208.73124613 -10.09211065 203.67330024 -10.09547234 198.61525154 C-10.09594978 197.89548996 -10.09642722 197.17572838 -10.09691913 196.43415584 C-10.09794545 194.97200641 -10.09900081 193.50985701 -10.10008489 192.04770762 C-10.10865275 179.11832571 -10.09197357 166.18909539 -10.06225586 153.25975037 C-10.03341221 140.71053196 -10.0263376 128.1615319 -10.04174805 115.61228943 C-10.05850344 101.94908466 -10.06255167 88.28598356 -10.04503769 74.62277609 C-10.04319328 73.1662986 -10.04135855 71.7098211 -10.03953362 70.25334358 C-10.03816548 69.17839726 -10.03816548 69.17839726 -10.03676971 68.08173485 C-10.03116064 63.0285519 -10.03447487 57.97541952 -10.04107857 52.9222393 C-10.04961061 46.12354171 -10.03667453 39.32520657 -10.00922966 32.52654457 C-10.00232593 30.02715365 -10.00226898 27.52773336 -10.00944519 25.0283432 C-10.01809312 21.6249342 -10.00226174 18.22250974 -9.97999573 14.81918335 C-9.98823649 13.82259876 -9.99647726 12.82601416 -10.00496775 11.79923004 C-9.92504493 5.21189618 -9.92504493 5.21189618 -7.7747488 1.88765717 C-4.96224837 0.19918061 -3.27432185 0.00071046 0 0 Z " fill="#2A8A75" transform="translate(92.46533203125,76.49879455566406)"></path><path d="M0 0 C1.11038635 -0.00983414 2.22077271 -0.01966827 3.36480713 -0.02980042 C5.18525543 -0.01529846 5.18525543 -0.01529846 7.04248047 -0.00050354 C8.32411072 -0.00590652 9.60574097 -0.01130951 10.9262085 -0.01687622 C14.43869713 -0.0308359 17.95069621 -0.01965797 21.46315765 -0.00316501 C25.13950483 0.01068789 28.81582365 0.00422515 32.4921875 0.0007019 C38.6659331 -0.00200004 44.83948426 0.01147388 51.01318359 0.03465271 C58.15010474 0.06126249 65.2867008 0.06300957 72.42365456 0.05126435 C79.29010806 0.04048377 86.15644401 0.04667578 93.02288818 0.06081963 C95.94466939 0.06657705 98.8663645 0.06649869 101.78814697 0.06175423 C105.86789643 0.05609428 109.94716067 0.07530556 114.02685547 0.09715271 C115.24048767 0.09265106 116.45411987 0.08814941 117.70452881 0.08351135 C118.81491516 0.09341599 119.92530151 0.10332062 121.06933594 0.11352539 C122.03386688 0.11595529 122.99839783 0.11838518 123.99215698 0.12088871 C127.05244181 0.57865567 128.28830863 1.39685648 130.53466797 3.50120544 C131.03721529 5.54914993 131.03721529 5.54914993 131.04082584 7.95092678 C131.05187353 8.86708277 131.06292122 9.78323876 131.07430369 10.72715706 C131.06194254 12.23909923 131.06194254 12.23909923 131.04933167 13.78158569 C131.05627719 14.85121742 131.06322272 15.92084915 131.07037872 17.02289397 C131.08874874 20.62516707 131.07835628 24.22678903 131.06811523 27.8290863 C131.07516862 30.40429175 131.08391118 32.97949304 131.09422302 35.5546875 C131.11589454 41.83423038 131.11572809 48.11359227 131.10759748 54.39316028 C131.10130402 59.49604763 131.10242847 64.5988821 131.10886955 69.70176888 C131.10977121 70.42735216 131.11067286 71.15293544 131.11160184 71.9005061 C131.113453 73.37441259 131.11531556 74.84831906 131.1171894 76.32222552 C131.13377899 90.15229311 131.12503901 103.98225876 131.10820382 117.81232024 C131.09350732 130.47097537 131.1081324 143.12939313 131.13697398 155.78801768 C131.1663524 168.77878047 131.17734474 181.76943365 131.16779178 194.76022822 C131.16676921 196.22909421 131.1657746 197.69796022 131.16480827 199.16682625 C131.16433188 199.88957533 131.16385549 200.6123244 131.16336467 201.35697497 C131.16119838 206.45424188 131.17101598 211.55140527 131.1855793 216.64864922 C131.20490351 223.50808115 131.19804903 230.36706379 131.1733799 237.22647667 C131.16835346 239.74844896 131.17190886 242.27045463 131.18452835 244.79240036 C131.20035772 248.22672952 131.18560178 251.65958334 131.16285706 255.09384155 C131.17469278 256.09957228 131.18652851 257.10530301 131.1987229 258.14151043 C131.10846973 264.81685163 131.10846973 264.81685163 128.33933926 268.11949921 C125.29095614 269.62126877 123.41388332 270.00585036 120.03173828 270.01586914 C118.39150696 270.03495583 118.39150696 270.03495583 116.71813965 270.0544281 C115.52837524 270.04790222 114.33861084 270.04137634 113.11279297 270.03465271 C111.22179871 270.04757607 111.22179871 270.04757607 109.29260254 270.0607605 C105.84212175 270.08323171 102.39210013 270.08032062 98.9415741 270.07143903 C96.05878216 270.06632364 93.17607609 270.07362602 90.293293 270.0809111 C83.49216432 270.09790244 76.69126006 270.09435163 69.89013672 270.07762146 C62.87748221 270.06069389 55.86544989 270.07654447 48.85286331 270.10884434 C42.82720972 270.13554525 36.80174975 270.14281517 30.77604294 270.13432926 C27.17920875 270.12940222 23.58274904 270.13160314 19.98596191 270.15211678 C15.97576066 270.17389435 11.96673864 270.15507014 7.95654297 270.13230896 C6.76677856 270.14400116 5.57701416 270.15569336 4.35119629 270.16773987 C2.71096497 270.14875893 2.71096497 270.14875893 1.03759766 270.12939453 C-0.38374481 270.12851507 -0.38374481 270.12851507 -1.83380127 270.12761784 C-5.77948568 269.18838291 -7.12898077 267.81476045 -9.46533203 264.50120544 C-10.18964197 261.01782827 -10.13574656 257.60372558 -10.09352112 254.0562439 C-10.10061551 252.99307042 -10.10770989 251.92989695 -10.11501926 250.83450609 C-10.13264523 247.26592739 -10.11446988 243.69843118 -10.09643555 240.12986755 C-10.10157253 237.57407128 -10.10885213 235.01827854 -10.11811829 232.4624939 C-10.13474028 226.23794912 -10.12797998 220.01380685 -10.11003006 213.78927725 C-10.09600679 208.73124613 -10.09211065 203.67330024 -10.09547234 198.61525154 C-10.09594978 197.89548996 -10.09642722 197.17572838 -10.09691913 196.43415584 C-10.09794545 194.97200641 -10.09900081 193.50985701 -10.10008489 192.04770762 C-10.10865275 179.11832571 -10.09197357 166.18909539 -10.06225586 153.25975037 C-10.03341221 140.71053196 -10.0263376 128.1615319 -10.04174805 115.61228943 C-10.05850344 101.94908466 -10.06255167 88.28598356 -10.04503769 74.62277609 C-10.04319328 73.1662986 -10.04135855 71.7098211 -10.03953362 70.25334358 C-10.03816548 69.17839726 -10.03816548 69.17839726 -10.03676971 68.08173485 C-10.03116064 63.0285519 -10.03447487 57.97541952 -10.04107857 52.9222393 C-10.04961061 46.12354171 -10.03667453 39.32520657 -10.00922966 32.52654457 C-10.00232593 30.02715365 -10.00226898 27.52773336 -10.00944519 25.0283432 C-10.01809312 21.6249342 -10.00226174 18.22250974 -9.97999573 14.81918335 C-9.98823649 13.82259876 -9.99647726 12.82601416 -10.00496775 11.79923004 C-9.92504493 5.21189618 -9.92504493 5.21189618 -7.7747488 1.88765717 C-4.96224837 0.19918061 -3.27432185 0.00071046 0 0 Z M3.53466797 13.50120544 C3.53466797 93.69120544 3.53466797 173.88120544 3.53466797 256.50120544 C41.15466797 256.50120544 78.77466797 256.50120544 117.53466797 256.50120544 C117.53466797 176.31120544 117.53466797 96.12120544 117.53466797 13.50120544 C79.91466797 13.50120544 42.29466797 13.50120544 3.53466797 13.50120544 Z " fill="#F9FBFB" transform="translate(92.46533203125,76.49879455566406)"></path><path d="M0 0 C24.71692394 6.47248767 42.25610694 21.17613091 56.16015625 42.16015625 C57.14814565 43.50241357 58.14289321 44.83994654 59.16015625 46.16015625 C59.65644531 45.89460938 60.15273438 45.6290625 60.6640625 45.35546875 C70.72564949 40.1242072 81.76855314 37.85847093 92.91015625 41.34765625 C94.34011942 41.91964152 95.75703461 42.5251669 97.16015625 43.16015625 C98.37445313 43.670625 98.37445313 43.670625 99.61328125 44.19140625 C110.86168338 49.2980428 118.7435563 57.26923137 123.19140625 68.84375 C124.55432334 73.09024629 125.30288818 76.67995969 125.16015625 81.16015625 C125.85882813 81.28261719 126.5575 81.40507812 127.27734375 81.53125 C143.84868517 85.14640714 157.33796528 95.33808247 166.41015625 109.47265625 C172.95793495 120.58715683 175.33603326 130.89810836 175.34765625 143.66015625 C175.35990234 144.36785156 175.37214844 145.07554687 175.38476562 145.8046875 C175.42960734 162.15696508 166.88236997 176.15162034 156.03515625 187.78515625 C141.31737093 201.9203098 120.61874361 210.31156626 100.23681641 210.27368164 C99.57269745 210.27382767 98.90857849 210.27397369 98.22433472 210.27412415 C96.04926176 210.27343259 93.87427657 210.26567598 91.69921875 210.2578125 C90.18321784 210.25594563 88.66721633 210.254523 87.1512146 210.25352478 C83.17610994 210.24972081 79.20104227 210.23990878 75.22595215 210.2288208 C71.16366069 210.21856095 67.10136321 210.21401739 63.0390625 210.20898438 C55.07940828 210.19828447 47.11979114 210.18070499 39.16015625 210.16015625 C39.16015625 205.87015625 39.16015625 201.58015625 39.16015625 197.16015625 C41.15199951 197.14557373 43.14384277 197.13099121 45.19604492 197.1159668 C51.82581104 197.0640237 58.45534241 196.99866203 65.08489513 196.92444134 C69.0988121 196.87998306 73.11263328 196.84067531 77.12670898 196.8137207 C81.01080049 196.7874397 84.89451835 196.74686917 88.77837563 196.69696999 C90.2496502 196.68046686 91.72098915 196.66885076 93.19234276 196.66254234 C113.25228126 196.56795401 132.2183605 191.39982079 147.34765625 177.59765625 C158.60590964 165.68944184 161.81390685 152.61579692 161.46875 136.796875 C160.89359195 124.92857213 154.48244956 113.95662597 145.97265625 105.84765625 C138.63111037 99.72551097 128.65750066 94.36058013 118.97265625 93.72265625 C115.16015625 93.16015625 115.16015625 93.16015625 113.44140625 92.02734375 C111.56104784 89.28706533 111.85867292 87.01664056 111.84765625 83.72265625 C111.39988962 75.3959191 109.14406133 68.39145586 103.3359375 62.22265625 C95.94514759 56.22607214 87.59858396 53.42016344 78.12109375 53.7734375 C71.93613899 54.58123502 66.57013825 56.65232991 61.97265625 60.91015625 C59.16015625 63.16015625 59.16015625 63.16015625 55.53515625 63.84765625 C52.16015625 63.16015625 52.16015625 63.16015625 50.09765625 60.91015625 C48.92256731 58.81178315 47.92323906 56.65468386 46.90234375 54.4765625 C38.13128847 36.04776055 23.7786543 23.65863 5.09765625 15.84765625 C-1.23094817 13.67160458 -7.94946003 13.05124654 -14.58032227 12.3737793 C-21.24442722 11.6042564 -21.24442722 11.6042564 -24.4375 9.22265625 C-25.83984375 7.16015625 -25.83984375 7.16015625 -26.33984375 4.66015625 C-25.83984375 2.16015625 -25.83984375 2.16015625 -24.52734375 -0.15234375 C-17.62506922 -4.48633008 -7.49301564 -1.63885897 0 0 Z " fill="#F9FCFB" transform="translate(259.83984375,135.83984375)"></path><path d="M0 0 C29.04 0 58.08 0 88 0 C88 3.96 88 7.92 88 12 C58.96 12 29.92 12 0 12 C0 8.04 0 4.08 0 0 Z " fill="#FEFFFF" transform="translate(109,186)"></path><path d="M0 0 C29.04 0 58.08 0 88 0 C88 3.96 88 7.92 88 12 C58.96 12 29.92 12 0 12 C0 8.04 0 4.08 0 0 Z " fill="#FFFFFF" transform="translate(109,154)"></path><path d="M0 0 C29.04 0 58.08 0 88 0 C88 3.96 88 7.92 88 12 C58.96 12 29.92 12 0 12 C0 8.04 0 4.08 0 0 Z " fill="#FFFFFF" transform="translate(109,122)"></path><path d="M0 0 C3.96 0 7.92 0 12 0 C12 23.1 12 46.2 12 70 C8.04 70 4.08 70 0 70 C0 46.9 0 23.8 0 0 Z " fill="#FFFFFF" transform="translate(255,365)"></path><path d="M0 0 C4.29 0 8.58 0 13 0 C13 19.14 13 38.28 13 58 C8.71 58 4.42 58 0 58 C0 38.86 0 19.72 0 0 Z " fill="#F7FBFA" transform="translate(299,365)"></path><path d="M0 0 C4.29 0 8.58 0 13 0 C13 18.81 13 37.62 13 57 C8.71 57 4.42 57 0 57 C0 38.19 0 19.38 0 0 Z " fill="#F9FBFB" transform="translate(210,365)"></path></svg>