<svg version="1.1" xmlns="http://www.w3.org/2000/svg" width="16px" height="16px" fill="currentColor" viewBox="0 0 512 512"><path d="M0 0 C168.96 0 337.92 0 512 0 C512 168.96 512 337.92 512 512 C343.04 512 174.08 512 0 512 C0 343.04 0 174.08 0 0 Z " fill="#E4750C" transform="translate(0,0)"></path><path d="M0 0 C1.24672732 0.65897063 2.48632993 1.33154031 3.71972656 2.01513672 C4.39526581 2.37661301 5.07080505 2.73808929 5.76681519 3.11051941 C7.97116288 4.29364734 10.16559275 5.49401659 12.36035156 6.69482422 C13.89538529 7.52302437 15.43103664 8.35008076 16.96728516 9.17602539 C20.06326847 10.84304173 23.15539691 12.51687389 26.24414062 14.19726562 C30.08559595 16.2868807 33.93555657 18.35980385 37.79003906 20.42529297 C42.01006698 22.68668329 46.22479608 24.95737357 50.43457031 27.23779297 C54.75771139 29.57767663 59.09539009 31.88784892 63.44238281 34.18310547 C64.55081543 34.77244873 65.65924805 35.36179199 66.80126953 35.96899414 C68.90968164 37.08979164 71.02180184 38.2036513 73.13818359 39.30932617 C74.07645996 39.81036865 75.01473633 40.31141113 75.98144531 40.82763672 C76.80572021 41.26221191 77.62999512 41.69678711 78.47924805 42.14453125 C80.87486124 43.74672965 82.07038596 45.13966859 83.61035156 47.56982422 C83.9906683 49.734725 83.9906683 49.734725 83.99803162 52.11729431 C84.01288857 53.47779655 84.01288857 53.47779655 84.02804565 54.86578369 C84.02354401 55.85342712 84.01904236 56.84107056 84.0144043 57.85864258 C84.02469917 59.42754997 84.02469917 59.42754997 84.03520203 61.02815247 C84.05351717 64.48879537 84.04962566 67.94898696 84.04394531 71.40966797 C84.04850486 73.81336109 84.05380975 76.21705289 84.05982971 78.6207428 C84.06877012 83.66038303 84.06632703 88.69986487 84.05639648 93.73950195 C84.04490627 100.2005613 84.06511501 106.66107419 84.09431362 113.12206173 C84.11265207 118.08658832 84.11238781 123.0509834 84.1066761 128.01553535 C84.1065226 130.39778981 84.11259091 132.78005301 84.12496758 135.16227531 C84.13983056 138.49240357 84.12923399 141.82151508 84.11206055 145.15161133 C84.12172852 146.13723053 84.13139648 147.12284973 84.14135742 148.13833618 C84.0952154 152.40724099 84.01894397 154.89089209 81.78211975 158.60768127 C79.25573815 160.89020933 76.72634144 162.22428313 73.61035156 163.56982422 C75.13268673 167.62827671 77.03172761 171.36881874 79.08691406 175.18310547 C79.41702484 175.79751999 79.74713562 176.41193451 80.08724976 177.04496765 C81.13413243 178.99210249 82.18467922 180.93723214 83.23535156 182.88232422 C83.94913685 184.20836499 84.66268105 185.53453555 85.37597656 186.86083984 C87.11798128 190.09867454 88.86327601 193.33472225 90.61035156 196.56982422 C92.33568639 195.64269375 94.05930586 194.71237078 95.78222656 193.78076172 C96.74225586 193.26304199 97.70228516 192.74532227 98.69140625 192.21191406 C102.28337226 190.19120786 105.70747809 187.97003225 109.12597656 185.67138672 C112.67498702 184.09776888 114.72777207 184.04769776 118.61035156 184.56982422 C122.3104374 186.1677103 125.71706417 188.19139615 129.17285156 190.25732422 C130.1713916 190.83877197 131.16993164 191.42021973 132.19873047 192.01928711 C135.34424521 193.85569302 138.47704238 195.71268829 141.61035156 197.56982422 C143.63684083 198.75357991 145.6641669 199.93590436 147.69238281 201.11669922 C151.37512237 203.26951187 155.05723047 205.42321864 158.72753906 207.59716797 C159.45569824 208.02763428 160.18385742 208.45810059 160.93408203 208.90161133 C162.25883545 209.72737671 162.25883545 209.72737671 163.61035156 210.56982422 C164.35842575 210.88223053 165.10649994 211.19463684 165.87724304 211.51651001 C168.74149893 212.9309044 170.52782074 214.12921697 172.61035156 216.56982422 C173.98397922 221.99227625 173.85454869 227.36299541 173.77050781 232.91357422 C173.77403421 234.52731151 173.78038033 236.14104488 173.78941345 237.75476074 C173.7981535 241.1312756 173.77498728 244.50563849 173.72875977 247.88183594 C173.67187344 252.20061752 173.69102734 256.51504338 173.7337122 260.83385468 C173.7587899 264.16455549 173.7451671 267.49424016 173.71981621 270.8249054 C173.71198944 272.4164333 173.71567514 274.00806243 173.73127937 275.59953308 C173.81846898 287.98362134 173.81846898 287.98362134 170.88873291 291.83023071 C168.84931018 293.39044305 166.93348959 294.49082086 164.61035156 295.56982422 C163.34613686 296.33803174 162.08721403 297.11510908 160.83691406 297.90576172 C159.63958581 298.59105759 158.43908319 299.27083941 157.23535156 299.94482422 C156.31302734 300.4765625 156.31302734 300.4765625 155.37207031 301.01904297 C150.87127096 303.56982422 150.87127096 303.56982422 148.61035156 303.56982422 C150.37700242 306.98866817 152.14929174 310.40455972 153.92285156 313.81982422 C154.72577637 315.37056641 154.72577637 315.37056641 155.54492188 316.95263672 C158.23406406 322.11932682 160.96502357 327.24752398 163.85644531 332.30419922 C164.36199951 333.19333008 164.86755371 334.08246094 165.38842773 334.99853516 C166.34856122 336.67578278 167.32086933 338.3461367 168.30688477 340.00830078 C170.9480711 344.63660953 172.56957293 348.08855928 171.61035156 353.56982422 C169.39420273 355.79543241 168.01349088 356.51399199 164.88677406 356.94702238 C163.30659272 356.94856607 163.30659272 356.94856607 161.69448853 356.95014095 C160.47676947 356.95858089 159.25905041 356.96702083 158.00443077 356.97571653 C156.65122738 356.96992114 155.29802519 356.9638401 153.94482422 356.95750427 C152.508788 356.96167586 151.07275507 356.96715241 149.63672829 356.97382408 C145.68567505 356.98832043 141.73482966 356.984021 137.78376484 356.97665727 C133.5246667 356.97193826 129.26561435 356.98442414 125.00653076 356.99467468 C116.66104013 357.01189249 108.31562469 357.01269659 99.97012091 357.00746178 C93.18915892 357.00342468 86.40821921 357.00485815 79.6272583 357.01021004 C78.66312944 357.01095846 77.69900058 357.01170688 76.70565569 357.01247798 C74.74720875 357.01400941 72.78876181 357.01554776 70.83031487 357.01709295 C52.45452027 357.03082858 34.0787682 357.02537266 15.70297456 357.01390774 C-1.12001302 357.0039724 -17.94289066 357.01691934 -34.76586127 357.04084193 C-52.02808812 357.06520477 -69.2902637 357.07484786 -86.5525074 357.0681892 C-96.24864016 357.06469095 -105.94468831 357.06696901 -115.64080811 357.08444023 C-123.89418213 357.09912699 -132.14741197 357.09984393 -140.40078306 357.08236932 C-144.61395112 357.07382807 -148.82686124 357.07178549 -153.04001617 357.08702087 C-156.89404974 357.10078545 -160.7476024 357.09621215 -164.60160756 357.07678164 C-165.9985875 357.07299585 -167.39560522 357.07601723 -168.79255176 357.08639329 C-170.68625871 357.09946304 -172.58009485 357.0856578 -174.4737854 357.07039547 C-175.52723963 357.07028813 -176.58069386 357.0701808 -177.66607094 357.07007021 C-181.09134412 356.4409421 -182.27128205 355.28253838 -184.38964844 352.56982422 C-185.72220479 346.50624563 -182.09939375 341.92987145 -179.07714844 336.94482422 C-177.98048996 335.08509347 -176.88548124 333.22438905 -175.79199219 331.36279297 C-175.2297998 330.41194824 -174.66760742 329.46110352 -174.08837891 328.48144531 C-171.35040361 323.78856037 -168.74321457 319.02570657 -166.13964844 314.25732422 C-165.4236145 312.94997314 -165.4236145 312.94997314 -164.69311523 311.61621094 C-163.59030804 309.60164367 -162.4890892 307.58623003 -161.38964844 305.56982422 C-166.09275128 301.52146707 -171.25518384 298.76626052 -176.68261719 295.83740234 C-177.37226563 295.4590625 -178.06191406 295.08072266 -178.77246094 294.69091797 C-179.70662842 294.18709595 -179.70662842 294.18709595 -180.65966797 293.6730957 C-182.66894204 292.39170853 -183.92782964 291.47888937 -185.38964844 289.56982422 C-185.81770325 286.52276611 -185.81770325 286.52276611 -185.88891602 282.73095703 C-185.90541702 282.03950592 -185.92191803 281.34805481 -185.93891907 280.63565063 C-185.98783273 278.34801836 -186.01314831 276.06099888 -186.03417969 273.77294922 C-186.04390997 272.990093 -186.05364025 272.20723679 -186.06366539 271.40065765 C-186.11449163 267.25586095 -186.14725808 263.11137298 -186.1652832 258.96630859 C-186.18729585 254.69341998 -186.2696927 250.423968 -186.36639881 246.15221024 C-186.42995707 242.85947285 -186.44859053 239.56755231 -186.45523643 236.27425385 C-186.46612923 234.70007647 -186.49372052 233.12591919 -186.53864479 231.55234528 C-186.86491224 219.29374398 -186.86491224 219.29374398 -183.30221558 215.1305542 C-180.742708 213.30415623 -178.23045854 211.90816788 -175.38964844 210.56982422 C-173.78766602 209.58127441 -173.78766602 209.58127441 -172.15332031 208.57275391 C-171.23099609 208.05100586 -170.30867188 207.52925781 -169.35839844 206.99169922 C-167.78409058 206.09366577 -167.78409058 206.09366577 -166.17797852 205.17749023 C-164.55025513 204.25794556 -164.55025513 204.25794556 -162.88964844 203.31982422 C-153.32132442 197.89307798 -153.32132442 197.89307798 -143.94042969 192.15185547 C-143.13089844 191.63848633 -142.32136719 191.12511719 -141.48730469 190.59619141 C-140.01119312 189.65059686 -138.54303833 188.69241079 -137.08496094 187.71923828 C-132.70116024 184.91799825 -129.71954776 183.61563673 -124.38964844 184.56982422 C-120.61844541 186.30510401 -117.11375634 188.40246202 -113.57714844 190.56982422 C-111.69769563 191.69825836 -109.81628245 192.82343597 -107.93261719 193.94482422 C-107.10785889 194.44755859 -106.28310059 194.95029297 -105.43334961 195.46826172 C-103.48316961 196.72798081 -103.48316961 196.72798081 -101.38964844 196.56982422 C-99.12306774 192.65901081 -96.86293436 188.74457013 -94.60864258 184.82666016 C-93.84119028 183.49491899 -93.07199946 182.16417809 -92.30102539 180.83447266 C-91.1918388 178.92075034 -90.0889962 177.00349372 -88.98730469 175.08544922 C-88.47007591 174.1977182 -88.47007591 174.1977182 -87.94239807 173.29205322 C-86.30660593 170.43028501 -84.95397951 167.83663513 -84.38964844 164.56982422 C-85.43765625 163.97234375 -85.43765625 163.97234375 -86.50683594 163.36279297 C-87.41691406 162.83298828 -88.32699219 162.30318359 -89.26464844 161.75732422 C-90.62203125 160.97421875 -90.62203125 160.97421875 -92.00683594 160.17529297 C-94.38964844 158.56982422 -94.38964844 158.56982422 -96.38964844 155.56982422 C-96.64971066 153.52797127 -96.64971066 153.52797127 -96.6638031 151.14260864 C-96.67377823 150.23698181 -96.68375336 149.33135498 -96.69403076 148.39828491 C-96.69469543 147.4070462 -96.69536011 146.4158075 -96.69604492 145.39453125 C-96.70436844 144.34873901 -96.71269196 143.30294678 -96.7212677 142.22546387 C-96.74541391 138.7594839 -96.75414538 135.29369194 -96.76074219 131.82763672 C-96.76970472 129.42251528 -96.77882649 127.01739443 -96.7881012 124.61227417 C-96.80460614 119.56669762 -96.81229411 114.52118756 -96.81518555 109.47558594 C-96.82057197 103.00659029 -96.85825723 96.5382183 -96.90392971 90.06939888 C-96.93365428 85.10059318 -96.94090811 80.13193851 -96.9419117 75.16305161 C-96.94612283 72.7779848 -96.95859261 70.39291789 -96.97942924 68.00793839 C-97.00624794 64.67279284 -97.00154563 61.33910412 -96.98901367 58.00390625 C-97.00384796 57.016716 -97.01868225 56.02952576 -97.03396606 55.01242065 C-96.9846965 50.41396201 -96.93581427 48.27935381 -94.06091309 44.54454041 C-90.92855135 42.22896099 -87.699592 40.3280131 -84.23730469 38.56591797 C-83.54950424 38.20609329 -82.8617038 37.84626862 -82.15306091 37.47554016 C-79.92363939 36.31116132 -77.68792775 35.15943985 -75.45214844 34.00732422 C-73.12167452 32.79292269 -70.79298835 31.57513821 -68.46432495 30.35726929 C-66.91990583 29.54989514 -65.37492418 28.74359612 -63.82937622 27.93838501 C-57.81094105 24.80145085 -51.83754402 21.58865057 -45.88964844 18.31982422 C-45.05183838 17.86244873 -44.21402832 17.40507324 -43.35083008 16.93383789 C-38.98255103 14.5482942 -34.62447003 12.14564799 -30.2767334 9.72283936 C-27.90079634 8.40225437 -25.51915976 7.09217608 -23.13647461 5.78381348 C-21.43266117 4.84356088 -19.73623546 3.88996019 -18.04003906 2.93603516 C-17.00041016 2.3665918 -15.96078125 1.79714844 -14.88964844 1.21044922 C-13.51292969 0.44522949 -13.51292969 0.44522949 -12.10839844 -0.33544922 C-7.49258196 -2.19404486 -4.5712748 -1.92873291 0 0 Z " fill="#FEFCFA" transform="translate(262.3896484375,78.43017578125)"></path><path d="M0 0 C6.74957401 2.249858 6.74957401 2.249858 10.06396484 3.79663086 C10.80689789 4.14136948 11.54983093 4.48610809 12.3152771 4.84129333 C13.501129 5.39745079 13.501129 5.39745079 14.7109375 5.96484375 C15.55556549 6.3576503 16.40019348 6.75045685 17.27041626 7.15516663 C19.97337211 8.41290544 22.67426114 9.67500868 25.375 10.9375 C40.55731168 18.01646447 55.77127842 25.02016928 71 32 C71 64.01 71 96.02 71 129 C67.45833921 127.58333568 64.34979321 126.1907963 61.03515625 124.3828125 C60.08157227 123.86444824 59.12798828 123.34608398 58.14550781 122.81201172 C56.61941895 121.97694092 56.61941895 121.97694092 55.0625 121.125 C53.99999023 120.54637207 52.93748047 119.96774414 51.84277344 119.37158203 C49.63751538 118.17017105 47.43293125 116.96752224 45.22900391 115.76367188 C42.23097789 114.1261594 39.23113754 112.49203832 36.23046875 110.859375 C24.1345767 104.27389239 12.06782557 97.63730406 0 91 C0 60.97 0 30.94 0 0 Z " fill="#E4770F" transform="translate(179,138)"></path><path d="M0 0 C0 30.03 0 60.06 0 91 C-26.30417799 105.16378815 -26.30417799 105.16378815 -36.72045898 110.75341797 C-37.67895752 111.26791504 -38.63745605 111.78241211 -39.625 112.3125 C-40.68984619 112.88371582 -41.75469238 113.45493164 -42.85180664 114.04345703 C-49.75473528 117.7577232 -56.61492484 121.53758233 -63.37158203 125.51293945 C-66.15731815 127.12194892 -67.7197755 128 -71 128 C-71 96.32 -71 64.64 -71 32 C-57.47 25.73 -43.94 19.46 -30 13 C-17.06961036 6.95385887 -17.06961036 6.95385887 -4.14672852 0.8918457 C-2 0 -2 0 0 0 Z " fill="#E97C0D" transform="translate(333,138)"></path><path d="M0 0 C28.05 0 56.1 0 85 0 C88.00214738 10.2073011 90.91360566 20.21830247 93.25 30.5625 C93.50523437 31.65884766 93.76046875 32.75519531 94.0234375 33.88476562 C95.33984557 39.63885458 96.26240322 45.09922579 97 51 C60.7 51 24.4 51 -13 51 C-11.68 45.72 -10.36 40.44 -9 35 C-7.72366063 29.66371557 -6.45360096 24.32630065 -5.20117188 18.984375 C-4.95818359 17.96085937 -4.71519531 16.93734375 -4.46484375 15.8828125 C-4.254646 14.98965332 -4.04444824 14.09649414 -3.82788086 13.17626953 C-2.67431231 8.75045803 -1.31423662 4.38078874 0 0 Z " fill="#DB6B11" transform="translate(213,371)"></path><path d="M0 0 C2.80712891 1.25244141 2.80712891 1.25244141 5.7265625 2.8515625 C6.82774414 3.44855957 7.92892578 4.04555664 9.06347656 4.66064453 C10.25073332 5.31528048 11.43790573 5.97006944 12.625 6.625 C13.85857037 7.29759171 15.09262843 7.96928965 16.32714844 8.64013672 C18.25088845 9.68599865 20.17409227 10.73277286 22.09545898 11.7829895 C26.64486488 14.26961031 31.21096858 16.72288922 35.7890625 19.15625 C36.41861847 19.49127533 37.04817444 19.82630066 37.69680786 20.17147827 C40.71693012 21.77853871 43.73797233 23.38381743 46.76025391 24.98681641 C52.65090296 28.13109663 58.39149048 31.37498775 64 35 C60.64777149 37.75663637 56.99849649 39.56051378 53.0859375 41.37109375 C52.40670731 41.68985474 51.72747711 42.00861572 51.02766418 42.33703613 C48.81226254 43.37520179 46.59379147 44.40660142 44.375 45.4375 C42.84402929 46.15215182 41.31318717 46.86707917 39.7824707 47.58227539 C36.68360113 49.02903439 33.58330325 50.47267115 30.48193359 51.9140625 C26.98763601 53.53869881 23.49767585 55.17231005 20.01013184 56.81138611 C17.07144154 58.19143895 14.12928416 59.56405745 11.1875 60.9375 C9.59010986 61.68954712 9.59010986 61.68954712 7.96044922 62.45678711 C6.97705566 62.9131958 5.99366211 63.36960449 4.98046875 63.83984375 C4.13379639 64.23550537 3.28712402 64.63116699 2.41479492 65.03881836 C-2.07773014 66.82701684 -3.97287827 67.36957152 -8.70336914 65.66748047 C-10.15383132 64.99802663 -11.59740683 64.31352477 -13.03515625 63.6171875 C-13.81893646 63.2509729 -14.60271667 62.8847583 -15.4102478 62.50744629 C-17.96714905 61.30924 -20.51463629 60.09228917 -23.0625 58.875 C-24.81651567 58.04896877 -26.57115886 57.22426876 -28.32641602 56.40087891 C-31.86298074 54.73991042 -35.39618834 53.07211043 -38.92675781 51.3984375 C-45.47095049 48.29915934 -52.0415091 45.25751332 -58.61398315 42.21881104 C-61.49307083 40.88654698 -64.36955357 39.54869095 -67.24609375 38.2109375 C-68.17091553 37.78087402 -69.0957373 37.35081055 -70.04858398 36.90771484 C-71.01453491 36.458396 -71.01453491 36.458396 -72 36 C-69.52878566 33.21111009 -66.84786816 31.68660525 -63.56640625 29.953125 C-62.45547607 29.36249268 -61.3445459 28.77186035 -60.19995117 28.16333008 C-58.98748824 27.52551386 -57.77500399 26.88773817 -56.5625 26.25 C-55.31520183 25.58871771 -54.06821736 24.92684343 -52.8215332 24.2644043 C-50.21396506 22.87948606 -47.60504329 21.4971684 -44.99511719 20.11669922 C-39.15649395 17.02621927 -33.33269789 13.90806628 -27.50973511 10.78820801 C-25.72471744 9.83242792 -23.93874803 8.87844764 -22.15258789 7.92480469 C-21.05422607 7.33731445 -19.95586426 6.74982422 -18.82421875 6.14453125 C-17.80247559 5.60135254 -16.78073242 5.05817383 -15.72802734 4.49853516 C-13.44682734 3.24544713 -11.27323819 1.91167314 -9.08203125 0.51171875 C-5.3244706 -1.33134332 -4.00440856 -0.97755134 0 0 Z " fill="#EA7E0B" transform="translate(260,92)"></path><path d="M0 0 C10.39840833 -1.00456522 16.60261169 1.08055948 25.3125 6.625 C27.00008868 7.64406994 28.68769164 8.66311733 30.37623596 9.68060303 C32.68701933 11.081489 34.98230573 12.50674441 37.2779541 13.93225098 C41.18233396 16.35314915 45.1031331 18.74596444 49.04174805 21.11083984 C51.09641736 22.34475767 53.14022233 23.59700087 55.17114258 24.86962891 C60.54051703 28.10542735 60.54051703 28.10542735 66.6171875 29.19140625 C71.08883111 27.61652022 74.92386197 25.43785548 78.9375 22.9375 C79.71673828 22.46505859 80.49597656 21.99261719 81.29882812 21.50585938 C83.20588741 20.34758411 85.10568539 19.17896117 87 18 C89.76359402 21.29639771 91.96812733 24.52658042 93.9453125 28.34375 C94.46480469 29.34277344 94.98429687 30.34179688 95.51953125 31.37109375 C96.04933594 32.40363281 96.57914062 33.43617188 97.125 34.5 C97.66253906 35.53253906 98.20007813 36.56507813 98.75390625 37.62890625 C101.04353368 42.05399667 103.1459995 46.36499874 105 51 C73.98 51 42.96 51 11 51 C4.50961538 23.74038462 4.50961538 23.74038462 2.6875 15.9375 C2.42388672 14.82568359 2.16027344 13.71386719 1.88867188 12.56835938 C1.51645508 10.97024414 1.51645508 10.97024414 1.13671875 9.33984375 C0.91717529 8.40519287 0.69763184 7.47054199 0.47143555 6.50756836 C0 4 0 4 0 0 Z " fill="#E0720F" transform="translate(312,371)"></path><path d="M0 0 C-1.13657302 7.08888432 -2.75121701 13.86921379 -4.78515625 20.75390625 C-6.66775593 27.21744516 -8.30172391 33.75007863 -9.98144531 40.26855469 C-10.22862305 41.22536133 -10.47580078 42.18216797 -10.73046875 43.16796875 C-10.95114014 44.02672607 -11.17181152 44.8854834 -11.39916992 45.77026367 C-11.8735042 47.53056232 -12.42348943 49.2704683 -13 51 C-43.03 51 -73.06 51 -104 51 C-102.47740612 46.43221836 -101.06763105 43.04654931 -98.7421875 38.9453125 C-98.11699219 37.83671875 -97.49179688 36.728125 -96.84765625 35.5859375 C-96.19667969 34.44382812 -95.54570313 33.30171875 -94.875 32.125 C-94.20915523 30.94818823 -93.54378604 29.77110724 -92.87890625 28.59375 C-91.25725735 25.72648674 -89.63082801 22.86204916 -88 20 C-84.11394043 20 -83.35643715 20.09352565 -80.28515625 21.96875 C-79.59873047 22.37480469 -78.91230469 22.78085937 -78.20507812 23.19921875 C-76.77954588 24.06467406 -75.35506038 24.9318559 -73.93164062 25.80078125 C-73.24392578 26.20683594 -72.55621094 26.61289062 -71.84765625 27.03125 C-71.22898682 27.40830078 -70.61031738 27.78535156 -69.97290039 28.17382812 C-67.43798202 29.23535068 -65.73142688 29.30022261 -63 29 C-60.57130943 27.98023658 -60.57130943 27.98023658 -58.17578125 26.46484375 C-57.2422583 25.90941895 -56.30873535 25.35399414 -55.34692383 24.78173828 C-54.34556396 24.17313965 -53.3442041 23.56454102 -52.3125 22.9375 C-51.26537842 22.31858887 -50.21825684 21.69967773 -49.1394043 21.06201172 C-43.99973219 18.02290788 -38.8908498 14.94137057 -33.81697083 11.79414368 C-32.10342345 10.73643978 -30.38274976 9.69150918 -28.65893555 8.65063477 C-26.48162333 7.3326834 -24.31799926 5.99175647 -22.17114258 4.62475586 C-14.61634828 0.08946657 -8.75426464 -0.84572845 0 0 Z " fill="#D66415" transform="translate(200,371)"></path><path d="M0 0 C19.8 0 39.6 0 60 0 C61.9490625 7.4559375 61.9490625 7.4559375 63.9375 15.0625 C64.55032837 17.39453491 64.55032837 17.39453491 65.17553711 19.77368164 C65.4978833 21.01496826 65.82022949 22.25625488 66.15234375 23.53515625 C66.48226318 24.797229 66.81218262 26.05930176 67.15209961 27.35961914 C67.96870968 30.86565794 68.49089962 34.43629731 69 38 C43.26 38 17.52 38 -9 38 C-8.32272194 32.58177556 -7.62000262 28.09108511 -6.1875 22.9375 C-5.87167969 21.79152344 -5.55585938 20.64554687 -5.23046875 19.46484375 C-4.62138672 17.25474609 -4.62138672 17.25474609 -4 15 C-2.68 10.05 -1.36 5.1 0 0 Z " fill="#DF6F10" transform="translate(226,320)"></path><path d="M0 0 C3.09056587 1.58574545 3.9688362 4.01312963 5.55957031 7.05151367 C5.88210785 7.65972961 6.20464539 8.26794556 6.53695679 8.89459229 C7.56507732 10.84153108 8.57381894 12.79783204 9.58300781 14.75463867 C10.26932477 16.05734596 10.95681222 17.35943731 11.64550781 18.66088867 C17.00700893 28.85573477 17.00700893 28.85573477 18.95800781 34.00463867 C18.35738525 34.35768066 17.7567627 34.71072266 17.13793945 35.07446289 C14.42893339 36.67083678 11.72469544 38.2751173 9.02050781 39.87963867 C7.6022168 40.71301758 7.6022168 40.71301758 6.15527344 41.56323242 C5.25615234 42.09819336 4.35703125 42.6331543 3.43066406 43.18432617 C2.59801025 43.67658691 1.76535645 44.16884766 0.9074707 44.67602539 C-1.17410941 45.86283861 -1.17410941 45.86283861 -2.04199219 48.00463867 C-2.53699219 52.95463867 -2.53699219 52.95463867 -3.04199219 58.00463867 C-10.96199219 58.00463867 -18.88199219 58.00463867 -27.04199219 58.00463867 C-33.0687779 37.11178153 -33.0687779 37.11178153 -34.91699219 30.06713867 C-35.14128906 29.21249023 -35.36558594 28.3578418 -35.59667969 27.47729492 C-36.11206459 24.61555242 -36.1180182 21.90629827 -36.04199219 19.00463867 C-32.15292716 16.75748024 -28.25318642 14.53008421 -24.34570312 12.31518555 C-22.72146009 11.39117785 -21.09996328 10.46233457 -19.48046875 9.5300293 C-16.79929954 7.98872328 -14.10905368 6.46432451 -11.41699219 4.94213867 C-10.55235352 4.44093506 -9.68771484 3.93973145 -8.796875 3.42333984 C-7.97799805 2.96419189 -7.15912109 2.50504395 -6.31542969 2.03198242 C-5.58759277 1.61682373 -4.85975586 1.20166504 -4.10986328 0.77392578 C-2.04199219 0.00463867 -2.04199219 0.00463867 0 0 Z " fill="#E5770E" transform="translate(323.0419921875,248.995361328125)"></path><path d="M0 0 C3.73612289 1.46049887 7.17439667 3.118081 10.67578125 5.08203125 C11.75150391 5.68466797 12.82722656 6.28730469 13.93554688 6.90820312 C15.60713867 7.85083008 15.60713867 7.85083008 17.3125 8.8125 C18.41529297 9.42931641 19.51808594 10.04613281 20.65429688 10.68164062 C23.78033114 12.43781868 26.90233525 14.19417887 30 16 C30.70333466 16.30378067 31.40666931 16.60756134 32.13131714 16.92054749 C34.50853852 18.07614167 36.17676893 19.07758494 38 21 C39.11370649 24.88719427 38.93339745 28.62897043 38.78125 32.64453125 C38.76993042 33.7694548 38.75861084 34.89437836 38.74694824 36.0533905 C38.70221308 39.6415029 38.60184465 43.22559858 38.5 46.8125 C38.45986981 49.24668703 38.42336826 51.68093678 38.390625 54.11523438 C38.3024873 60.07819015 38.16867644 66.03880818 38 72 C33.96408715 70.43204017 30.3208508 68.56985017 26.5625 66.41015625 C25.65866577 65.89236855 25.65866577 65.89236855 24.73657227 65.36412048 C22.82262402 64.26660899 20.9113237 63.16457445 19 62.0625 C17.71631037 61.32588506 16.43245769 60.5895542 15.1484375 59.85351562 C11.76143685 57.90950512 8.37644429 55.96231568 5 54 C4.05229736 53.66436035 3.10459473 53.3287207 2.12817383 52.98291016 C-0.54234213 50.49467675 -0.38069343 49.55238316 -0.56762695 45.9777832 C-0.56683434 43.83528611 -0.53852764 41.69268921 -0.48828125 39.55078125 C-0.48120651 38.4230278 -0.47413177 37.29527435 -0.46684265 36.13334656 C-0.43881852 32.52572741 -0.37606108 28.91965129 -0.3125 25.3125 C-0.28742769 22.86916301 -0.26461267 20.42580174 -0.24414062 17.98242188 C-0.18896549 11.98775337 -0.10525816 5.9939869 0 0 Z " fill="#D66414" transform="translate(90,311)"></path><path d="M0 0 C0 16.83 0 33.66 0 51 C-4.41375 53.536875 -8.8275 56.07375 -13.375 58.6875 C-14.74575684 59.47729248 -16.11651367 60.26708496 -17.52880859 61.08081055 C-18.64078613 61.71801025 -19.75276367 62.35520996 -20.8984375 63.01171875 C-22.01911621 63.65584717 -23.13979492 64.29997559 -24.29443359 64.96362305 C-28.79503686 67.43690884 -33.40673777 69.70336889 -38 72 C-38 55.17 -38 38.34 -38 21 C-31.07 17.04 -24.14 13.08 -17 9 C-10.85817787 5.29139925 -10.85817787 5.29139925 -4.73828125 1.546875 C-2 0 -2 0 0 0 Z " fill="#D96813" transform="translate(179,311)"></path><path d="M0 0 C3.81813998 1.52725599 7.11750127 3.08616799 10.67578125 5.08203125 C11.75150391 5.68466797 12.82722656 6.28730469 13.93554688 6.90820312 C15.60713867 7.85083008 15.60713867 7.85083008 17.3125 8.8125 C18.41529297 9.42931641 19.51808594 10.04613281 20.65429688 10.68164062 C23.78033114 12.43781868 26.90233525 14.19417887 30 16 C30.70333466 16.30378067 31.40666931 16.60756134 32.13131714 16.92054749 C34.50853852 18.07614167 36.17676893 19.07758494 38 21 C39.11370649 24.88719427 38.93339745 28.62897043 38.78125 32.64453125 C38.76993042 33.7694548 38.75861084 34.89437836 38.74694824 36.0533905 C38.70221308 39.6415029 38.60184465 43.22559858 38.5 46.8125 C38.45986981 49.24668703 38.42336826 51.68093678 38.390625 54.11523438 C38.3024873 60.07819015 38.16867644 66.03880818 38 72 C29.56481331 67.91836668 21.43645279 63.46112491 13.375 58.6875 C11.2580667 57.44097445 9.14089199 56.19485875 7.0234375 54.94921875 C6.10481934 54.40612061 5.18620117 53.86302246 4.23974609 53.3034668 C2.84965475 52.49447424 1.4385612 51.7192806 0 51 C0 34.17 0 17.34 0 0 Z " fill="#E4750D" transform="translate(333,311)"></path><path d="M0 0 C0 16.83 0 33.66 0 51 C-13.5 58.6875 -13.5 58.6875 -17.70898438 61.08081055 C-25.32217196 65.4208842 -25.32217196 65.4208842 -32.78125 70.01953125 C-36 72 -36 72 -38 72 C-38 55.17 -38 38.34 -38 21 C-34.473125 19.02 -30.94625 17.04 -27.3125 15 C-19.50027268 10.60472699 -11.77821065 6.12870828 -4.23046875 1.29296875 C-2 0 -2 0 0 0 Z " fill="#E6790D" transform="translate(422,311)"></path><path d="M0 0 C4.32561523 0.60135014 7.46732215 2.16731845 11.25390625 4.30859375 C11.83663803 4.63537613 12.41936981 4.96215851 13.01976013 5.29884338 C14.87102151 6.33868085 16.71683875 7.38776058 18.5625 8.4375 C20.41284436 9.48158675 22.26425273 10.52376255 24.11595154 11.56544495 C25.79464275 12.51112447 27.47075622 13.46137546 29.14672852 14.41186523 C31.40821488 15.6706116 33.67232508 16.87041889 36 18 C35.39221028 23.48852538 34.48606728 28.76056078 33.1875 34.125 C33.01444336 34.85130615 32.84138672 35.5776123 32.66308594 36.32592773 C30.98058891 43.28100668 29.02286732 50.13670017 27 57 C18.75 57 10.5 57 2 57 C1.505 50.565 1.505 50.565 1 44 C-0.65 43.34 -2.3 42.68 -4 42 C-5.19790431 41.37839674 -6.38306864 40.73130602 -7.55078125 40.0546875 C-8.16630859 39.70019531 -8.78183594 39.34570312 -9.41601562 38.98046875 C-10.04185547 38.61566406 -10.66769531 38.25085938 -11.3125 37.875 C-11.95767578 37.50246094 -12.60285156 37.12992187 -13.26757812 36.74609375 C-14.84675945 35.83367787 -16.42361864 34.91724491 -18 34 C-16.66463383 29.55570203 -14.90014628 25.79827395 -12.55859375 21.796875 C-12.23085464 21.23301086 -11.90311554 20.66914673 -11.56544495 20.0881958 C-10.52797298 18.30571645 -9.4829876 16.52778736 -8.4375 14.75 C-7.73189888 13.54197199 -7.02681582 12.33364123 -6.32226562 11.125 C-5.03716182 8.92125264 -3.7495735 6.71895095 -2.45874023 4.51855469 C-1.5993197 3.03474176 -0.76685128 1.53370256 0 0 Z " fill="#DF7011" transform="translate(190,250)"></path><path d="M0 0 C2.51025391 1.19580078 2.51025391 1.19580078 4.9765625 2.6953125 C6.34627197 3.51745239 6.34627197 3.51745239 7.74365234 4.35620117 C8.69449707 4.93990479 9.6453418 5.5236084 10.625 6.125 C12.58828126 7.31162886 14.55182114 8.49782996 16.515625 9.68359375 C17.45728516 10.25577637 18.39894531 10.82795898 19.36914062 11.41748047 C23.57662413 13.94837394 27.85785956 16.34345708 32.1484375 18.73046875 C32.75945312 19.14941406 33.37046875 19.56835938 34 20 C34 20.66 34 21.32 34 22 C32.36417969 22.89138672 32.36417969 22.89138672 30.6953125 23.80078125 C29.17143061 24.63721172 27.64803113 25.47452142 26.125 26.3125 C24.9198877 26.97342651 24.9198877 26.97342651 23.69042969 27.64770508 C19.38336311 30.03451687 15.1570088 32.49551128 11.0078125 35.1484375 C10.20972168 35.65592529 9.41163086 36.16341309 8.58935547 36.6862793 C7.05550502 37.67058804 5.53062486 38.66904893 4.01611328 39.68286133 C0.81965279 41.72828763 -1.18544305 42.97900626 -5.03125 43.078125 C-8.9185497 41.66642143 -12.2468783 39.74238389 -15.75 37.5625 C-17.24224479 36.65809917 -18.73578221 35.75582842 -20.23046875 34.85546875 C-21.00438965 34.38802246 -21.77831055 33.92057617 -22.57568359 33.43896484 C-26.6894023 30.99724701 -30.87415554 28.68562306 -35.0625 26.375 C-35.85430664 25.93744385 -36.64611328 25.4998877 -37.46191406 25.04907227 C-39.3069272 24.03087254 -41.15330336 23.01514318 -43 22 C-40.3295917 18.94062799 -37.01601447 17.09378254 -33.5390625 15.09375 C-32.91148041 14.7277771 -32.28389832 14.3618042 -31.63729858 13.98474121 C-29.63571079 12.8187774 -27.63047403 11.65926417 -25.625 10.5 C-24.28360173 9.72048632 -22.94245314 8.94054282 -21.6015625 8.16015625 C-19.70560357 7.05685396 -17.80931526 5.95417318 -15.91104126 4.8548584 C-13.35400479 3.37388686 -10.86631298 1.90511376 -8.45458984 0.19335938 C-5.1698167 -1.40361408 -3.47414314 -0.99172332 0 0 Z " fill="#E87B0E" transform="translate(382,278)"></path><path d="M0 0 C2.84912109 1.41113281 2.84912109 1.41113281 5.7734375 3.203125 C6.8459375 3.85410156 7.9184375 4.50507813 9.0234375 5.17578125 C10.12945312 5.86027344 11.23546875 6.54476563 12.375 7.25 C13.47328125 7.91902344 14.5715625 8.58804687 15.703125 9.27734375 C17.83717745 10.57978103 19.96723358 11.88879432 22.09277344 13.20507812 C23.9103251 14.32723464 25.73540593 15.43738917 27.57128906 16.52929688 C29.41321104 17.63396342 31.21293789 18.80862526 33 20 C33 20.66 33 21.32 33 22 C30.99244577 23.35681386 29.0033 24.5761438 26.90234375 25.7734375 C26.27526016 26.13845367 25.64817657 26.50346985 25.00209045 26.87954712 C22.98453369 28.05171362 20.96115952 29.21340743 18.9375 30.375 C17.59921751 31.1503657 16.26132188 31.92639953 14.92382812 32.703125 C11.28798889 34.81165625 7.64577206 36.90868277 4 39 C3.39987091 39.38810852 2.79974182 39.77621704 2.181427 40.17608643 C-0.50521519 41.8682688 -2.37935999 43.01565862 -5.60302734 42.93432617 C-8.36671319 41.85705731 -10.80334599 40.57280212 -13.3515625 39.05078125 C-14.36863281 38.44943359 -15.38570312 37.84808594 -16.43359375 37.22851562 C-18.01333984 36.28008789 -18.01333984 36.28008789 -19.625 35.3125 C-21.69959468 34.0778695 -23.7751112 32.84478664 -25.8515625 31.61328125 C-26.86508789 31.01209473 -27.87861328 30.4109082 -28.92285156 29.79150391 C-33.559925 27.09181771 -38.27001489 24.53253971 -43 22 C-40.17560349 18.70278834 -36.47494295 16.75029876 -32.77734375 14.5859375 C-32.0760585 14.17082916 -31.37477325 13.75572083 -30.65223694 13.32803345 C-28.41646645 12.00611083 -26.17700931 10.69057648 -23.9375 9.375 C-22.42619626 8.48217024 -20.91512581 7.58894547 -19.40429688 6.6953125 C-5.76670977 -1.3592275 -5.76670977 -1.3592275 0 0 Z " fill="#DA6A14" transform="translate(139,278)"></path><path d="M0 0 C0.25394531 1.01578125 0.50789063 2.0315625 0.76953125 3.078125 C0.93485352 3.7390918 1.10017578 4.40005859 1.27050781 5.08105469 C1.63375 6.53467794 1.99637386 7.98845584 2.35839844 9.44238281 C3.20272024 12.83013066 4.05571888 16.21448273 4.93359375 19.59375 C5.20300781 20.6353125 5.47242188 21.676875 5.75 22.75 C5.99234375 23.67296875 6.2346875 24.5959375 6.484375 25.546875 C7 28 7 28 7 32 C-10.16 32 -27.32 32 -45 32 C-43.7017905 24.85984777 -42.36484739 17.88350873 -40.5625 10.875 C-40.25602539 9.60269531 -40.25602539 9.60269531 -39.94335938 8.3046875 C-39.73646484 7.5003125 -39.52957031 6.6959375 -39.31640625 5.8671875 C-39.13537354 5.14644043 -38.95434082 4.42569336 -38.76782227 3.68310547 C-38.51444092 3.12768066 -38.26105957 2.57225586 -38 2 C-35 1 -35 1 -32.07421875 2.43359375 C-29.82333365 3.76543234 -27.57332718 5.09875704 -25.32421875 6.43359375 C-21.69459638 8.14390934 -19.94346934 8.61410526 -16 8 C-13.4420239 6.74893745 -11.14468485 5.50175151 -8.75 4 C-2.20945946 0 -2.20945946 0 0 0 Z " fill="#E17310" transform="translate(275,275)"></path><path d="M0 0 C6.93 0 13.86 0 21 0 C21 12.54 21 25.08 21 38 C17.04 38 13.08 38 9 38 C8.76925781 37.06542969 8.53851563 36.13085938 8.30078125 35.16796875 C7.97166488 33.84106873 7.64220903 32.51425288 7.3125 31.1875 C7.05001465 30.13042847 7.05001465 30.13042847 6.78222656 29.05200195 C5.76059019 24.96322776 4.70971344 20.8839833 3.62109375 16.8125 C3.39317139 15.95889893 3.16524902 15.10529785 2.93041992 14.22583008 C2.48198409 12.55292468 2.03039751 10.88086022 1.57543945 9.2097168 C1.37007568 8.44312744 1.16471191 7.67653809 0.953125 6.88671875 C0.76911133 6.20826904 0.58509766 5.52981934 0.39550781 4.83081055 C0 3 0 3 0 0 Z " fill="#E27410" transform="translate(299,320)"></path><path d="M0 0 C6.93 0 13.86 0 21 0 C18.22794403 12.73092371 15.21573647 25.37428058 12 38 C8.04 38 4.08 38 0 38 C0 25.46 0 12.92 0 0 Z " fill="#DC6C13" transform="translate(192,320)"></path></svg>