<svg version="1.1" xmlns="http://www.w3.org/2000/svg" width="16px" height="16px" fill="currentColor" viewBox="0 0 512 512"><path d="M0 0 C168.96 0 337.92 0 512 0 C512 168.96 512 337.92 512 512 C343.04 512 174.08 512 0 512 C0 343.04 0 174.08 0 0 Z " fill="#438A26" transform="translate(0,0)"></path><path d="M0 0 C1.84464844 0.67675781 1.84464844 0.67675781 3.7265625 1.3671875 C40.64929006 15.29858011 40.64929006 15.29858011 46 26 C46.10439474 28.64854105 46.14779612 31.27117067 46.14717102 33.92025757 C46.15084771 34.74810528 46.1545244 35.575953 46.1583125 36.42888701 C46.16937587 39.2187108 46.17319763 42.00849737 46.17700195 44.79833984 C46.1832645 46.79212056 46.18991111 48.7859001 46.19691467 50.77967834 C46.21434154 56.20733727 46.2248806 61.63498738 46.2331202 67.06266737 C46.2382658 70.45076241 46.24434166 73.83885469 46.25063133 77.22694778 C46.26968639 87.81916879 46.28391799 98.41138279 46.2922433 109.00361764 C46.30202395 121.24648888 46.32836379 133.48917972 46.36874419 145.73198736 C46.39885785 155.1850921 46.41370758 164.63814499 46.41702431 174.09129679 C46.41937985 179.74209183 46.42840581 185.3926942 46.45348549 191.04343796 C46.47668876 196.35727402 46.48103073 201.67078951 46.47072411 206.98466301 C46.47022677 208.93741481 46.47660493 210.89018199 46.49028015 212.84288597 C46.5078788 215.50423784 46.50095283 218.16442409 46.48774719 220.82577515 C46.49871644 221.60262205 46.50968568 222.37946894 46.52098733 223.17985666 C46.47852928 226.71201943 46.27940537 228.63484419 44.10271835 231.47956371 C41.68376663 233.22866243 40.5108698 233.50106574 37.55444336 233.50170898 C36.68351547 233.51108994 35.81258759 233.52047089 34.91526794 233.53013611 C33.98287796 233.51890213 33.05048798 233.50766815 32.08984375 233.49609375 C31.12599258 233.49754898 30.16214142 233.49900421 29.16908264 233.50050354 C27.13409396 233.49884528 25.09909265 233.48729225 23.06420898 233.46655273 C19.94526082 233.43757211 16.82800953 233.44595052 13.70898438 233.45898438 C11.73176256 233.45274771 9.75454611 233.44435734 7.77734375 233.43359375 C6.84292953 233.43652939 5.90851532 233.43946503 4.94578552 233.44248962 C4.0780098 233.42980545 3.21023407 233.41712128 2.31616211 233.40405273 C1.55323349 233.39864975 0.79030487 233.39324677 0.0042572 233.38768005 C-2.68393664 232.8677073 -3.38514051 232.22248461 -5 230 C-5.36914349 226.83534718 -5.36914349 226.83534718 -5.36076355 222.84370422 C-5.36332682 222.11018508 -5.3658901 221.37666593 -5.36853105 220.62091893 C-5.37348323 218.15631866 -5.35695288 215.69232729 -5.34057617 213.2277832 C-5.33973021 211.46381647 -5.34020444 209.69984868 -5.34190369 207.93588257 C-5.34276626 203.14066653 -5.32509812 198.34567451 -5.30418181 193.55051064 C-5.28545866 188.54167576 -5.28366802 183.53283604 -5.28010559 178.52397156 C-5.27077228 169.03608416 -5.24614112 159.54830017 -5.21605712 150.06045836 C-5.18255309 139.26012517 -5.16603717 128.45978709 -5.15097082 117.65941489 C-5.11959268 95.43955216 -5.06680722 73.21978259 -5 51 C-5.94456055 50.6885202 -6.88912109 50.37704041 -7.86230469 50.05612183 C-10.40031079 49.20185034 -12.80562961 48.27813593 -15.25 47.1953125 C-44.03831307 34.64012364 -73.26142349 31.30615903 -103.0625 42.9375 C-107.10186152 44.5985891 -110.91453721 46.4727128 -114.72045898 48.60375977 C-115.52394272 49.05284195 -116.32742645 49.50192413 -117.15525818 49.96461487 C-117.76402298 50.30629196 -118.37278778 50.64796906 -119 51 C-119.00146656 51.91367718 -119.00293312 52.82735435 -119.00444412 53.76871872 C-119.0414716 75.98514004 -119.10043228 98.2014083 -119.18390274 120.41770554 C-119.22373751 131.16128546 -119.25610743 141.90479166 -119.27099609 152.6484375 C-119.28398963 162.01096936 -119.31089536 171.37333931 -119.35461307 180.73578 C-119.37727968 185.69463639 -119.39290757 190.65329271 -119.39188385 195.61220551 C-119.3911403 200.2776937 -119.40896776 204.94273875 -119.44116783 209.60811234 C-119.4497012 211.3221726 -119.45139357 213.03628238 -119.44580269 214.75035477 C-119.43919259 217.08789627 -119.45700923 219.42401538 -119.48101807 221.76141357 C-119.48654882 223.72483263 -119.48654882 223.72483263 -119.49219131 225.72791672 C-120.08225039 229.52998334 -120.96290135 230.71734871 -124 233 C-126.13124084 233.50120544 -126.13124084 233.50120544 -128.44555664 233.50170898 C-129.31648453 233.51108994 -130.18741241 233.52047089 -131.08473206 233.53013611 C-132.01712204 233.51890213 -132.94951202 233.50766815 -133.91015625 233.49609375 C-134.87400742 233.49754898 -135.83785858 233.49900421 -136.83091736 233.50050354 C-138.86590604 233.49884528 -140.90090735 233.48729225 -142.93579102 233.46655273 C-146.05473918 233.43757211 -149.17199047 233.44595052 -152.29101562 233.45898438 C-154.26823744 233.45274771 -156.24545389 233.44435734 -158.22265625 233.43359375 C-159.15707047 233.43652939 -160.09148468 233.43946503 -161.05421448 233.44248962 C-161.9219902 233.42980545 -162.78976593 233.41712128 -163.68383789 233.40405273 C-164.44676651 233.39864975 -165.20969513 233.39324677 -165.9957428 233.38768005 C-168.72067126 232.86060179 -169.38605443 232.28358478 -171 230 C-171.30559206 227.22801681 -171.42620685 224.67802993 -171.41459656 221.90374756 C-171.42280436 221.06899501 -171.43101216 220.23424246 -171.43946868 219.37419438 C-171.46321179 216.5667436 -171.46537081 213.75969287 -171.4675293 210.95214844 C-171.47977533 208.94337729 -171.49322687 206.93461318 -171.50779724 204.92585754 C-171.54291491 199.46085602 -171.55811733 193.99597536 -171.56763434 188.53087521 C-171.57420322 185.11744369 -171.58454572 181.70404442 -171.59613991 178.29062653 C-171.63590172 166.38465726 -171.65790418 154.47878494 -171.66577148 142.57275391 C-171.67364157 131.47137511 -171.72286854 120.37068735 -171.79083699 109.2695291 C-171.84713253 99.74245253 -171.87268387 90.21560589 -171.87471896 80.68836427 C-171.87656112 74.99646877 -171.89125216 69.30530131 -171.93753624 63.6135788 C-171.98015714 58.25837156 -171.98458263 52.90447564 -171.95974159 47.54916954 C-171.9571535 45.58475585 -171.96822294 43.62026905 -171.99401855 41.65602303 C-172.17715331 26.81822856 -172.17715331 26.81822856 -169.2691288 22.32649994 C-167.25136507 20.52213098 -165.38449265 19.26056063 -163 18 C-161.91152951 17.21852717 -160.82901375 16.4286635 -159.75390625 15.62890625 C-114.09626915 -13.93399464 -50.80904154 -19.06766278 0 0 Z " fill="#FBFCFB" transform="translate(319,202)"></path><path d="M0 0 C1.33446143 0.45753903 2.6691006 0.91455993 4.00390625 1.37109375 C13.48488404 4.6924554 22.36754303 8.85620532 31 14 C31.60519236 14.33605292 32.21038472 14.67210585 32.83391625 15.0183422 C36.49732898 17.26988851 37.81621148 18.23890296 38.8613348 22.56692219 C38.89059108 23.96980606 38.88145758 25.37381562 38.84178162 26.77644348 C38.84776259 27.552507 38.85374356 28.32857052 38.85990578 29.12815112 C38.87142629 31.72566824 38.83296375 34.32001163 38.79467773 36.91723633 C38.79270298 38.78001836 38.79381201 40.64280585 38.79777527 42.50558472 C38.79978483 47.56138954 38.7586131 52.61603333 38.70975757 57.67156816 C38.66601652 62.95527663 38.66188788 68.23901134 38.65357971 73.52287292 C38.63181752 83.52797407 38.57436684 93.53254019 38.50413328 103.53740567 C38.42590809 114.92779756 38.38740787 126.31821493 38.35226524 137.70880854 C38.27908496 161.13951245 38.15454092 184.5697037 38 208 C29.75 208 21.5 208 13 208 C13.00523682 205.81868973 13.01047363 203.63737946 13.01586914 201.38996887 C13.06135031 180.86239235 13.06274165 160.33515273 13.02334595 139.80756092 C13.00415458 129.25332659 12.99991337 118.69948015 13.03076172 108.14526367 C13.05760881 98.9470719 13.05651271 89.74938254 13.02174091 80.55120963 C13.00430465 75.67980448 13.00094335 70.80929947 13.03103638 65.93793678 C13.0589167 61.35332576 13.04945501 56.77031313 13.01126289 52.18579102 C13.0038401 50.50277232 13.01009939 48.81962952 13.03101921 47.13672447 C13.50680939 38.48174129 13.50680939 38.48174129 10.23777962 30.91493034 C8.17438551 29.59694159 6.31952974 28.75733944 4 28 C3.19804199 27.56623047 2.39608398 27.13246094 1.56982422 26.68554688 C0.9048291 26.36650391 0.23983398 26.04746094 -0.4453125 25.71875 C-1.20465088 25.35410645 -1.96398926 24.98946289 -2.74633789 24.61376953 C-32.51039509 10.67723777 -64.05782987 5.54497646 -95.97265625 16.28515625 C-104.47083891 19.49319786 -112.52497934 23.64845759 -120.515625 27.94921875 C-121.11665039 28.27237061 -121.71767578 28.59552246 -122.33691406 28.9284668 C-124.31947293 30.20583774 -125.55788795 31.10136846 -127 33 C-127.46294886 36.22662935 -127.46294886 36.22662935 -127.39872742 40.00444031 C-127.40537424 40.72162525 -127.41202107 41.43881018 -127.41886932 42.177728 C-127.4375595 44.58697165 -127.43489007 46.9957213 -127.43237305 49.4050293 C-127.44138656 51.12959498 -127.45171276 52.85415423 -127.46325684 54.57870483 C-127.49090131 59.26641099 -127.50012143 63.95399585 -127.50611091 68.64177299 C-127.51547524 73.53855966 -127.541677 78.43525502 -127.56611633 83.33198547 C-127.60983855 92.60730935 -127.63835033 101.88261557 -127.66143972 111.15801126 C-127.68846076 121.71657802 -127.73237414 132.27505318 -127.77772844 142.83355463 C-127.87065665 164.55565543 -127.9417007 186.27778104 -128 208 C-136.58 208 -145.16 208 -154 208 C-154.23149035 183.47855827 -154.40994487 158.9573797 -154.51812172 134.43506527 C-154.56968548 123.0488611 -154.63998311 111.66334829 -154.75439453 100.27758789 C-154.85406888 90.35366992 -154.91858236 80.43025261 -154.94088495 70.50584799 C-154.95392247 65.25064814 -154.98455597 59.99688054 -155.05730057 54.74213982 C-155.12523447 49.79476934 -155.14610619 44.84941918 -155.13107681 39.90162659 C-155.13382563 38.08710302 -155.15369007 36.27251122 -155.19205475 34.45839119 C-155.46785429 20.7428919 -155.46785429 20.7428919 -151.81594467 16.40670967 C-149.27331231 14.59773198 -146.84243901 13.27040917 -144 12 C-142.86475195 11.28894944 -141.73907488 10.56210433 -140.62890625 9.8125 C-100.12182476 -14.13053925 -43.64143614 -15.70725351 0 0 Z " fill="#418826" transform="translate(314,214)"></path><path d="M0 0 C1.83092456 1.4774544 3.64462873 2.97659301 5.4375 4.5 C6.283125 5.18449219 7.12875 5.86898437 8 6.57421875 C19.10316486 15.9598628 27.11476307 27.50925722 33.4375 40.5 C34.31792969 40.00628906 35.19835937 39.51257813 36.10546875 39.00390625 C37.27845197 38.35641951 38.45163997 37.70930364 39.625 37.0625 C40.77355469 36.42441406 41.92210937 35.78632813 43.10546875 35.12890625 C51.82635627 30.86558844 64.23689211 31.17021277 73.625 33.18359375 C79.23136495 35.29474055 83.9182849 38.61423137 88.4375 42.5 C89.03304688 42.97824219 89.62859375 43.45648438 90.2421875 43.94921875 C99.5581344 52.16795412 104.19116885 65.45213219 105.4375 77.5 C106.60925781 77.86351562 107.78101563 78.22703125 108.98828125 78.6015625 C129.08636607 84.9710962 145.31172518 94.08058417 155.75 113.1875 C162.62542532 127.96872773 164.81334319 149.42088196 159.40625 165.06640625 C158.92671875 166.27103516 158.92671875 166.27103516 158.4375 167.5 C158.0971875 168.47839844 157.756875 169.45679688 157.40625 170.46484375 C152.39203184 183.89820524 142.92321561 194.15847963 129.9375 200.3125 C122.04976954 203.60554403 115.04233193 205.97804622 106.4375 205.5 C105.11049283 201.51897848 105.40375932 197.65010389 105.4375 193.5 C106.571875 193.18546875 107.70625 192.8709375 108.875 192.546875 C127.81523951 187.22107861 127.81523951 187.22107861 141.1875 173.3125 C141.96569373 171.72181926 142.71519732 170.116827 143.4375 168.5 C143.83066406 167.72011719 144.22382813 166.94023437 144.62890625 166.13671875 C149.75260283 154.08621286 149.62387991 136.92702021 145.8125 124.5 C142.74494837 117.20508041 138.38552355 110.73992551 132.4375 105.5 C131.921875 105.04238281 131.40625 104.58476562 130.875 104.11328125 C121.79467206 96.65723611 110.67242009 92.16749717 99.14453125 90.3984375 C95.55110258 89.20581327 94.40303422 87.69907639 92.4375 84.5 C91.75 81.7734375 91.75 81.7734375 91.4375 78.875 C89.93909994 68.36036508 86.73315854 58.65830417 78.296875 51.74609375 C71.55713759 46.98930629 64.79903702 44.49351869 56.4375 45.5 C50.69039907 46.83903542 46.25315891 49.06024363 41.4375 52.5 C40.4475 52.83 39.4575 53.16 38.4375 53.5 C37.7537955 54.82467746 37.08785814 56.15863633 36.4375 57.5 C33.19596834 59.6610211 32.20057099 60.14247553 28.4375 59.5 C24.71664493 55.59800797 22.81195581 51.23706757 20.6875 46.375 C17.36349025 39.06467781 13.55797896 32.72706577 8.4375 26.5 C7.81230469 25.71238281 7.18710937 24.92476562 6.54296875 24.11328125 C-5.25866799 9.95612434 -25.16935851 -1.23029919 -43.5625 -3.5 C-69.35816923 -4.65009246 -90.56824323 -0.71913418 -110.5625 16.5 C-111.16835937 17.00917969 -111.77421875 17.51835938 -112.3984375 18.04296875 C-122.7138709 27.46246075 -129.17556504 40.45776093 -133.5625 53.5 C-133.93632812 54.52738281 -134.31015625 55.55476563 -134.6953125 56.61328125 C-136.20714052 63.3892672 -135.92275716 70.32797451 -135.953125 77.24804688 C-135.97632813 78.37662109 -135.99953125 79.50519531 -136.0234375 80.66796875 C-136.03576416 82.20360474 -136.03576416 82.20360474 -136.04833984 83.77026367 C-136.69331181 87.19449519 -137.8733483 88.35256122 -140.5625 90.5 C-143.19140625 91.5546875 -143.19140625 91.5546875 -146.125 92.375 C-160.86650607 96.9895762 -171.30210638 104.80634622 -178.5625 118.5 C-184.40669035 129.8263512 -184.65122471 145.49016221 -181.6796875 157.78125 C-179.29119732 165.05744525 -175.84147549 170.96594796 -170.5625 176.5 C-169.99015625 177.11230469 -169.4178125 177.72460938 -168.828125 178.35546875 C-160.32167392 186.58927717 -148.90486594 190.89432134 -137.5625 193.5 C-138.2225 197.46 -138.8825 201.42 -139.5625 205.5 C-144.95187658 205.77888107 -149.26735957 204.93640473 -154.25 203 C-154.94625488 202.73155273 -155.64250977 202.46310547 -156.35986328 202.18652344 C-174.34977434 194.93112916 -186.36501398 181.83825156 -193.9453125 164.30078125 C-199.65712926 147.7445012 -198.14828153 128.0040113 -190.8125 112.3125 C-182.66157237 96.95190665 -169.12587922 85.15439498 -152.5625 79.5 C-151.5725 79.5 -150.5825 79.5 -149.5625 79.5 C-149.61470703 78.15421875 -149.61470703 78.15421875 -149.66796875 76.78125 C-150.26758205 49.14193221 -139.31844042 26.84427712 -120.4375 6.9375 C-88.31020171 -24.43646854 -35.70162516 -26.13542047 0 0 Z " fill="#FBFCFA" transform="translate(273.5625,94.5)"></path></svg>