<svg version="1.1" xmlns="http://www.w3.org/2000/svg" width="16px" height="16px" fill="currentColor" viewBox="0 0 512 512"><path d="M0 0 C168.96 0 337.92 0 512 0 C512 168.96 512 337.92 512 512 C343.04 512 174.08 512 0 512 C0 343.04 0 174.08 0 0 Z " fill="#DD2C33" transform="translate(0,0)"></path><path d="M0 0 C2.82641602 1.18652344 2.82641602 1.18652344 5.75390625 2.859375 C6.84445312 3.47425781 7.935 4.08914062 9.05859375 4.72265625 C10.22670013 5.39819957 11.39466549 6.07398679 12.5625 6.75 C13.78060085 7.44254927 14.99935949 8.13394275 16.21875 8.82421875 C19.82110715 10.86800286 23.41077447 12.9332439 27 15 C28.8315722 16.04767794 30.66355786 17.09463361 32.49609375 18.140625 C35.00023669 19.57073501 37.50361076 21.00207415 40.00415039 22.43847656 C47.13164719 26.52765595 54.31128738 30.51961857 61.5 34.5 C70.42208957 39.44068673 79.30840034 44.43567124 88.15283203 49.51391602 C94.86913543 53.36585682 101.61658421 57.15999032 108.375 60.9375 C116.81701295 65.65865987 125.25867607 70.38032019 133.6875 75.125 C135.11231689 75.92345337 135.11231689 75.92345337 136.56591797 76.73803711 C149.52068645 84.0413729 149.52068645 84.0413729 151 87 C151.1054897 89.30698192 151.14397779 91.61709673 151.15390015 93.9264679 C151.1582824 94.64743768 151.16266465 95.36840747 151.1671797 96.11122483 C151.18058868 98.53940312 151.18675123 100.96754511 151.19287109 103.39575195 C151.20077036 105.13175624 151.20903919 106.86775887 151.21765137 108.60375977 C151.24388993 114.31525093 151.25917995 120.0267495 151.2734375 125.73828125 C151.27879626 127.70261325 151.28417376 129.66694519 151.28956985 131.63127708 C151.31120048 139.80051316 151.32993837 147.96974724 151.34119225 156.13900471 C151.3574391 167.85658091 151.39063265 179.57382591 151.44759309 191.29127723 C151.48625704 199.5248733 151.50582068 207.75838064 151.51111281 215.99206513 C151.51477089 220.91246111 151.5268406 225.83250398 151.55921555 230.7528019 C151.58923418 235.38136268 151.59563031 240.00935556 151.58383179 244.63799286 C151.58361054 246.33716381 151.59195815 248.03636064 151.60948563 249.73544121 C151.63211387 252.05517481 151.62391429 254.37283795 151.60800171 256.69258118 C151.61296693 258.63965957 151.61296693 258.63965957 151.61803246 260.62607288 C150.83841179 264.88213303 149.29754903 266.29361165 146 269 C144.14200579 270.27777672 142.23842617 271.49110679 140.30078125 272.64453125 C139.18767578 273.31291016 138.07457031 273.98128906 136.92773438 274.66992188 C135.72265938 275.38411986 134.51758117 276.09831243 133.3125 276.8125 C131.41201418 277.95021422 129.51312994 279.09057232 127.61422729 280.23092651 C126.31683221 281.00972305 125.018915 281.78765039 123.7204895 282.56472778 C117.44616181 286.3212896 111.22045534 290.15497655 105 294 C92.54742358 301.68046199 80.0446363 309.27654341 67.53222656 316.85888672 C61.68584204 320.40211949 55.843186 323.95149612 50 327.5 C47.6927458 328.90110338 45.38545355 330.30214406 43.078125 331.703125 C42.50474396 332.05127762 41.93136292 332.39943024 41.34060669 332.75813293 C37.64025197 335.00474235 33.9391795 337.25016532 30.2376709 339.49487305 C27.68823098 341.04098913 25.13902869 342.58749676 22.58984375 344.1340332 C21.38227977 344.86648741 20.17460123 345.59875279 18.96679688 346.33081055 C17.28485978 347.35025973 15.60336056 348.37043123 13.921875 349.390625 C12.89513672 350.01001953 11.86839844 350.62941406 10.81054688 351.26757812 C9.06691991 352.34235027 7.34009657 353.44558517 5.64257812 354.59179688 C4.96130859 355.05134766 4.28003906 355.51089844 3.578125 355.984375 C3.0202832 356.37850586 2.46244141 356.77263672 1.88769531 357.17871094 C-0.87485851 358.38062908 -3.01765693 358.27781249 -6 358 C-8.42749023 356.93701172 -8.42749023 356.93701172 -10.80859375 355.4296875 C-11.70835937 354.87023437 -12.608125 354.31078125 -13.53515625 353.734375 C-14.97181641 352.81398438 -14.97181641 352.81398438 -16.4375 351.875 C-18.50889516 350.58037802 -20.58051601 349.28611709 -22.65234375 347.9921875 C-24.23571533 346.99396973 -24.23571533 346.99396973 -25.85107422 345.97558594 C-30.70262672 342.93179908 -35.60169049 339.96771504 -40.5 337 C-42.42344451 335.82986657 -44.34662108 334.65929258 -46.26953125 333.48828125 C-47.21908691 332.91029785 -48.16864258 332.33231445 -49.14697266 331.73681641 C-51.95622583 330.02664808 -54.76525367 328.31611023 -57.57421875 326.60546875 C-59.44529922 325.46612402 -61.31639307 324.32680127 -63.1875 323.1875 C-64.12553467 322.61628418 -65.06356934 322.04506836 -66.0300293 321.45654297 C-71.26968726 318.26695578 -76.51206074 315.08189817 -81.7578125 311.90234375 C-95.36129777 303.6559111 -108.94111033 295.37352499 -122.4765625 287.015625 C-126.46909584 284.55212106 -130.46981303 282.10310445 -134.48165894 279.67124939 C-136.90588177 278.20127928 -139.32725933 276.72665752 -141.74847412 275.2517395 C-143.4638609 274.20945837 -145.18330747 273.17386823 -146.90283203 272.13842773 C-147.93520996 271.50880127 -148.96758789 270.8791748 -150.03125 270.23046875 C-150.94455078 269.67770264 -151.85785156 269.12493652 -152.79882812 268.55541992 C-155 267 -155 267 -157 264 C-157.26006222 260.88054848 -157.26006222 260.88054848 -157.27415466 256.95327759 C-157.27939134 256.23145337 -157.28462802 255.50962916 -157.29002339 254.76593149 C-157.30505694 252.34080624 -157.30572926 249.91589135 -157.30639648 247.49072266 C-157.31401571 245.75456891 -157.32244279 244.01841855 -157.33161926 242.28227234 C-157.35359417 237.56118398 -157.36236714 232.84016039 -157.36744571 228.11902666 C-157.37108565 225.17062515 -157.3773238 222.2222407 -157.3844471 219.27384567 C-157.40895167 208.99114992 -157.42199574 198.7085047 -157.42553711 188.42578125 C-157.42917351 178.83550635 -157.45907378 169.24555128 -157.50094169 159.65537417 C-157.53561141 151.42599309 -157.55108497 143.19671817 -157.55178314 134.96726453 C-157.55257707 130.05025364 -157.56136881 125.1335684 -157.58978081 120.21663284 C-157.61590478 115.59214081 -157.61819857 110.96824573 -157.60212517 106.34371376 C-157.60030616 104.64616281 -157.60704211 102.94857798 -157.62294388 101.25110054 C-157.64333096 98.93358662 -157.63289895 96.61817589 -157.61473083 94.3006897 C-157.61674216 93.00393625 -157.61875349 91.70718281 -157.62082577 90.3711338 C-156.8388981 86.12520372 -155.29190047 84.69740606 -152 82 C-149.5625 80.42944336 -149.5625 80.42944336 -147 79.08984375 C-146.0416626 78.58138916 -145.0833252 78.07293457 -144.09594727 77.54907227 C-143.07428467 77.01725342 -142.05262207 76.48543457 -141 75.9375 C-138.82054632 74.78065617 -136.64217895 73.62176369 -134.46484375 72.4609375 C-133.37413574 71.88053711 -132.28342773 71.30013672 -131.15966797 70.70214844 C-126.58067552 68.23539404 -122.06759048 65.6611542 -117.5625 63.0625 C-109.94498178 58.67744897 -102.29828435 54.34928068 -94.625 50.0625 C-86.57152268 45.56229954 -78.52791871 41.04564628 -70.5 36.5 C-62.4720799 31.95435293 -54.42834662 27.43793591 -46.375 22.9375 C-36.68470495 17.52051808 -27.02954964 12.04489812 -17.3984375 6.5234375 C-16.6465918 6.09643555 -15.89474609 5.66943359 -15.12011719 5.22949219 C-13.75630175 4.43859231 -12.40627139 3.62315855 -11.07519531 2.77832031 C-7.11579805 0.3082972 -4.62919734 -0.41494005 0 0 Z " fill="#DB2B33" transform="translate(259,77)"></path><path d="M0 0 C1.69679039 0.77718574 3.36301274 1.6232121 5 2.51953125 C6.4375061 3.30154907 6.4375061 3.30154907 7.90405273 4.09936523 C9.43654663 4.94736694 9.43654663 4.94736694 11 5.8125 C12.06871338 6.39781494 13.13742676 6.98312988 14.23852539 7.58618164 C22.74693656 12.26350787 31.18222412 17.06425648 39.59765625 21.90625 C45.49786493 25.29584746 51.43466968 28.61885676 57.375 31.9375 C66.36862935 36.96304777 75.34649211 42.01523882 84.3112793 47.09204102 C92.5990242 51.78188339 100.90805766 56.43330559 109.2265625 61.06835938 C116.20036204 64.96275872 123.11329769 68.95365342 130 73 C128.80201174 76.59396479 128.17627605 76.73619291 124.93359375 78.42578125 C124.06822998 78.8851709 123.20286621 79.34456055 122.3112793 79.81787109 C121.36293213 80.31109863 120.41458496 80.80432617 119.4375 81.3125 C111.25031043 85.66891247 103.17624952 90.16443123 95.1875 94.875 C85.98035887 100.29144859 76.69770003 105.55243893 67.36279297 110.74511719 C60.12502831 114.7820185 52.95610618 118.92403633 45.8125 123.125 C37.17025171 128.20393059 28.4541906 133.11423057 19.62036133 137.85253906 C15.59697657 140.01400492 11.61520583 142.19676739 7.7265625 144.59375 C7.08799316 144.98256348 6.44942383 145.37137695 5.79150391 145.77197266 C4.14244839 146.78729465 2.50795967 147.82617571 0.875 148.8671875 C-2 150 -2 150 -4.7421875 149.546875 C-9.33243571 147.36733268 -13.72474098 144.91361097 -18.125 142.375 C-19.12273437 141.80523437 -20.12046875 141.23546875 -21.1484375 140.6484375 C-24.43503721 138.77038052 -27.71742877 136.88508778 -31 135 C-33.30953423 133.67904869 -35.61933929 132.35858794 -37.9296875 131.0390625 C-39.10335937 130.36866374 -40.27702471 129.69825353 -41.45068359 129.02783203 C-42.03485046 128.69414612 -42.61901733 128.36046021 -43.22088623 128.0166626 C-45.01169626 126.99331625 -46.80205156 125.96917858 -48.59228516 124.94482422 C-56.80639425 120.24569928 -65.03869918 115.57959082 -73.28173828 110.93139648 C-82.0088063 106.00570329 -90.70679605 101.02942217 -99.39770508 96.0402832 C-105.33812525 92.63459613 -111.29737167 89.27010532 -117.30078125 85.9765625 C-118.47090668 85.33202392 -119.64099208 84.68741268 -120.81103516 84.04272461 C-123.01855857 82.82978387 -125.23032733 81.62452947 -127.44677734 80.42797852 C-128.91751709 79.61864868 -128.91751709 79.61864868 -130.41796875 78.79296875 C-131.28188232 78.3239917 -132.1457959 77.85501465 -133.03588867 77.37182617 C-135 76 -135 76 -136 73 C-135.36312256 72.64397705 -134.72624512 72.2879541 -134.07006836 71.92114258 C-122.53359216 65.47049555 -111.00213876 59.01172883 -99.5 52.5 C-90.4606038 47.38263976 -81.401857 42.30066818 -72.3359375 37.23046875 C-64.44175364 32.81325173 -56.5637395 28.36808726 -48.69262695 23.90991211 C-43.58804157 21.02088152 -38.47654766 18.14486399 -33.35546875 15.28515625 C-31.68677734 14.35316406 -31.68677734 14.35316406 -29.984375 13.40234375 C-27.85625673 12.21473272 -25.72740288 11.02843839 -23.59765625 9.84375 C-22.62054688 9.29847656 -21.6434375 8.75320312 -20.63671875 8.19140625 C-19.6936084 7.66691895 -18.75049805 7.14243164 -17.77880859 6.60205078 C-14.18645784 4.53097315 -10.71581703 2.28244436 -7.26489258 -0.01586914 C-4.33846659 -1.2874465 -3.01095756 -0.97193373 0 0 Z " fill="#E33339" transform="translate(259,92)"></path><path d="M0 0 C2.82641602 1.18652344 2.82641602 1.18652344 5.75390625 2.859375 C6.84445312 3.47425781 7.935 4.08914062 9.05859375 4.72265625 C10.22670013 5.39819957 11.39466549 6.07398679 12.5625 6.75 C13.78060085 7.44254927 14.99935949 8.13394275 16.21875 8.82421875 C19.82110715 10.86800286 23.41077447 12.9332439 27 15 C28.8315722 16.04767794 30.66355786 17.09463361 32.49609375 18.140625 C35.00023669 19.57073501 37.50361076 21.00207415 40.00415039 22.43847656 C47.13164719 26.52765595 54.31128738 30.51961857 61.5 34.5 C70.42208957 39.44068673 79.30840034 44.43567124 88.15283203 49.51391602 C94.86913543 53.36585682 101.61658421 57.15999032 108.375 60.9375 C116.81701295 65.65865987 125.25867607 70.38032019 133.6875 75.125 C135.11231689 75.92345337 135.11231689 75.92345337 136.56591797 76.73803711 C149.52068645 84.0413729 149.52068645 84.0413729 151 87 C151.1054897 89.30698192 151.14397779 91.61709673 151.15390015 93.9264679 C151.1582824 94.64743768 151.16266465 95.36840747 151.1671797 96.11122483 C151.18058868 98.53940312 151.18675123 100.96754511 151.19287109 103.39575195 C151.20077036 105.13175624 151.20903919 106.86775887 151.21765137 108.60375977 C151.24388993 114.31525093 151.25917995 120.0267495 151.2734375 125.73828125 C151.27879626 127.70261325 151.28417376 129.66694519 151.28956985 131.63127708 C151.31120048 139.80051316 151.32993837 147.96974724 151.34119225 156.13900471 C151.3574391 167.85658091 151.39063265 179.57382591 151.44759309 191.29127723 C151.48625704 199.5248733 151.50582068 207.75838064 151.51111281 215.99206513 C151.51477089 220.91246111 151.5268406 225.83250398 151.55921555 230.7528019 C151.58923418 235.38136268 151.59563031 240.00935556 151.58383179 244.63799286 C151.58361054 246.33716381 151.59195815 248.03636064 151.60948563 249.73544121 C151.63211387 252.05517481 151.62391429 254.37283795 151.60800171 256.69258118 C151.61296693 258.63965957 151.61296693 258.63965957 151.61803246 260.62607288 C150.83841179 264.88213303 149.29754903 266.29361165 146 269 C144.14200579 270.27777672 142.23842617 271.49110679 140.30078125 272.64453125 C139.18767578 273.31291016 138.07457031 273.98128906 136.92773438 274.66992188 C135.72265938 275.38411986 134.51758117 276.09831243 133.3125 276.8125 C131.41201418 277.95021422 129.51312994 279.09057232 127.61422729 280.23092651 C126.31683221 281.00972305 125.018915 281.78765039 123.7204895 282.56472778 C117.44616181 286.3212896 111.22045534 290.15497655 105 294 C92.54742358 301.68046199 80.0446363 309.27654341 67.53222656 316.85888672 C61.68584204 320.40211949 55.843186 323.95149612 50 327.5 C47.6927458 328.90110338 45.38545355 330.30214406 43.078125 331.703125 C42.50474396 332.05127762 41.93136292 332.39943024 41.34060669 332.75813293 C37.64025197 335.00474235 33.9391795 337.25016532 30.2376709 339.49487305 C27.68823098 341.04098913 25.13902869 342.58749676 22.58984375 344.1340332 C21.38227977 344.86648741 20.17460123 345.59875279 18.96679688 346.33081055 C17.28485978 347.35025973 15.60336056 348.37043123 13.921875 349.390625 C12.89513672 350.01001953 11.86839844 350.62941406 10.81054688 351.26757812 C9.06691991 352.34235027 7.34009657 353.44558517 5.64257812 354.59179688 C4.96130859 355.05134766 4.28003906 355.51089844 3.578125 355.984375 C3.0202832 356.37850586 2.46244141 356.77263672 1.88769531 357.17871094 C-0.87485851 358.38062908 -3.01765693 358.27781249 -6 358 C-8.42749023 356.93701172 -8.42749023 356.93701172 -10.80859375 355.4296875 C-11.70835937 354.87023437 -12.608125 354.31078125 -13.53515625 353.734375 C-14.97181641 352.81398438 -14.97181641 352.81398438 -16.4375 351.875 C-18.50889516 350.58037802 -20.58051601 349.28611709 -22.65234375 347.9921875 C-24.23571533 346.99396973 -24.23571533 346.99396973 -25.85107422 345.97558594 C-30.70262672 342.93179908 -35.60169049 339.96771504 -40.5 337 C-42.42344451 335.82986657 -44.34662108 334.65929258 -46.26953125 333.48828125 C-47.21908691 332.91029785 -48.16864258 332.33231445 -49.14697266 331.73681641 C-51.95622583 330.02664808 -54.76525367 328.31611023 -57.57421875 326.60546875 C-59.44529922 325.46612402 -61.31639307 324.32680127 -63.1875 323.1875 C-64.12553467 322.61628418 -65.06356934 322.04506836 -66.0300293 321.45654297 C-71.26968726 318.26695578 -76.51206074 315.08189817 -81.7578125 311.90234375 C-95.36129777 303.6559111 -108.94111033 295.37352499 -122.4765625 287.015625 C-126.46909584 284.55212106 -130.46981303 282.10310445 -134.48165894 279.67124939 C-136.90588177 278.20127928 -139.32725933 276.72665752 -141.74847412 275.2517395 C-143.4638609 274.20945837 -145.18330747 273.17386823 -146.90283203 272.13842773 C-147.93520996 271.50880127 -148.96758789 270.8791748 -150.03125 270.23046875 C-150.94455078 269.67770264 -151.85785156 269.12493652 -152.79882812 268.55541992 C-155 267 -155 267 -157 264 C-157.26006222 260.88054848 -157.26006222 260.88054848 -157.27415466 256.95327759 C-157.27939134 256.23145337 -157.28462802 255.50962916 -157.29002339 254.76593149 C-157.30505694 252.34080624 -157.30572926 249.91589135 -157.30639648 247.49072266 C-157.31401571 245.75456891 -157.32244279 244.01841855 -157.33161926 242.28227234 C-157.35359417 237.56118398 -157.36236714 232.84016039 -157.36744571 228.11902666 C-157.37108565 225.17062515 -157.3773238 222.2222407 -157.3844471 219.27384567 C-157.40895167 208.99114992 -157.42199574 198.7085047 -157.42553711 188.42578125 C-157.42917351 178.83550635 -157.45907378 169.24555128 -157.50094169 159.65537417 C-157.53561141 151.42599309 -157.55108497 143.19671817 -157.55178314 134.96726453 C-157.55257707 130.05025364 -157.56136881 125.1335684 -157.58978081 120.21663284 C-157.61590478 115.59214081 -157.61819857 110.96824573 -157.60212517 106.34371376 C-157.60030616 104.64616281 -157.60704211 102.94857798 -157.62294388 101.25110054 C-157.64333096 98.93358662 -157.63289895 96.61817589 -157.61473083 94.3006897 C-157.61674216 93.00393625 -157.61875349 91.70718281 -157.62082577 90.3711338 C-156.8388981 86.12520372 -155.29190047 84.69740606 -152 82 C-149.5625 80.42944336 -149.5625 80.42944336 -147 79.08984375 C-146.0416626 78.58138916 -145.0833252 78.07293457 -144.09594727 77.54907227 C-143.07428467 77.01725342 -142.05262207 76.48543457 -141 75.9375 C-138.82054632 74.78065617 -136.64217895 73.62176369 -134.46484375 72.4609375 C-133.37413574 71.88053711 -132.28342773 71.30013672 -131.15966797 70.70214844 C-126.58067552 68.23539404 -122.06759048 65.6611542 -117.5625 63.0625 C-109.94498178 58.67744897 -102.29828435 54.34928068 -94.625 50.0625 C-86.57152268 45.56229954 -78.52791871 41.04564628 -70.5 36.5 C-62.4720799 31.95435293 -54.42834662 27.43793591 -46.375 22.9375 C-36.68470495 17.52051808 -27.02954964 12.04489812 -17.3984375 6.5234375 C-16.6465918 6.09643555 -15.89474609 5.66943359 -15.12011719 5.22949219 C-13.75630175 4.43859231 -12.40627139 3.62315855 -11.07519531 2.77832031 C-7.11579805 0.3082972 -4.62919734 -0.41494005 0 0 Z M-9.03515625 16.09765625 C-9.83034668 16.56163818 -10.62553711 17.02562012 -11.44482422 17.50366211 C-12.74057373 18.27528687 -12.74057373 18.27528687 -14.0625 19.0625 C-15.96125004 20.17096761 -17.86104128 21.2776531 -19.76171875 22.3828125 C-21.27838135 23.26694824 -21.27838135 23.26694824 -22.82568359 24.16894531 C-28.30313742 27.32852874 -33.84060001 30.37913024 -39.375 33.4375 C-48.75472754 38.63238537 -58.1085099 43.86974684 -67.43701172 49.15600586 C-74.44567483 53.12620666 -81.46952175 57.06857174 -88.5 61 C-112.3584979 74.31020495 -112.3584979 74.31020495 -136 88 C-134.66513685 92.00458944 -133.08479795 92.33057422 -129.40234375 94.30078125 C-128.8256041 94.61343933 -128.24886444 94.92609741 -127.65464783 95.24822998 C-126.40690336 95.92371285 -125.15691103 96.59505624 -123.90496826 97.26272583 C-120.5626729 99.046061 -117.2372674 100.86041607 -113.91015625 102.671875 C-113.23593628 103.03801407 -112.56171631 103.40415314 -111.86706543 103.78138733 C-105.79738771 107.08683678 -99.82556546 110.54733622 -93.875 114.0625 C-85.4860078 119.00559885 -77.02558934 123.79645621 -68.5 128.5 C-59.93406281 133.2263073 -51.43392019 138.04200469 -43 143 C-40.0588493 144.71826943 -37.11628318 146.43407837 -34.17285156 148.1484375 C-31.92216074 149.46186003 -29.67432505 150.77953195 -27.42871094 152.1015625 C-24.3558054 153.90794976 -21.27049827 155.69146953 -18.17675781 157.46191406 C-16.98599797 158.14797244 -15.79935401 158.84123015 -14.6171875 159.54199219 C-12.97203811 160.51574785 -11.31048809 161.46163132 -9.6484375 162.40625 C-8.70145996 162.95603516 -7.75448242 163.50582031 -6.77880859 164.07226562 C-2.36962438 165.54431799 0.42322472 163.78343927 4.41162109 161.80175781 C5.19102051 161.35670898 5.97041992 160.91166016 6.7734375 160.453125 C7.66812744 159.94515381 8.56281738 159.43718262 9.48461914 158.91381836 C10.43844482 158.3647583 11.39227051 157.81569824 12.375 157.25 C13.38232178 156.67580322 14.38964355 156.10160645 15.42749023 155.51000977 C23.6838915 150.79106206 31.88423673 145.97704268 40.08544922 141.16308594 C47.55005852 136.7997562 55.10809142 132.63799202 62.71777344 128.53442383 C70.5109938 124.31251566 78.1584057 119.8627921 85.79736328 115.36914062 C94.28203196 110.38868001 102.84851475 105.56466735 111.45239258 100.79345703 C116.23087753 98.13790718 120.99809289 95.46249141 125.7265625 92.71875 C126.54979004 92.24373047 127.37301758 91.76871094 128.22119141 91.27929688 C128.80819824 90.85712891 129.39520508 90.43496094 130 90 C130 89.34 130 88.68 130 88 C129.06039429 87.4738208 129.06039429 87.4738208 128.10180664 86.93701172 C127.21356201 86.43959473 126.32531738 85.94217773 125.41015625 85.4296875 C124.41097168 84.87015381 123.41178711 84.31062012 122.38232422 83.73413086 C120.13782488 82.47719142 117.89335965 81.2201911 115.64892578 79.96313477 C109.96075668 76.77738392 104.27211938 73.5924789 98.58203125 70.41015625 C87.59602079 64.26460629 76.62205714 58.09876477 65.66796875 51.89648438 C58.58292375 47.88745686 51.48125475 43.90878658 44.375 39.9375 C36.46027412 35.51194978 28.56112607 31.06079935 20.6875 26.5625 C19.82568115 26.07096436 18.9638623 25.57942871 18.07592773 25.07299805 C14.42001244 22.982219 10.77558578 20.87894456 7.171875 18.69921875 C6.10453125 18.05597656 5.0371875 17.41273437 3.9375 16.75 C3.05964844 16.20859375 2.18179688 15.6671875 1.27734375 15.109375 C-2.75432545 13.14540578 -5.4116066 13.94953341 -9.03515625 16.09765625 Z M-144 100 C-144.65620588 120.43534989 -145.14881978 140.86854482 -145.45074081 161.31227016 C-145.59471089 170.80691005 -145.79062926 180.29498129 -146.11230469 189.78540039 C-146.39280627 198.06506392 -146.57233097 206.33997324 -146.63447785 214.62425572 C-146.670791 219.00764493 -146.75491869 223.37744733 -146.96044159 227.7564373 C-148.34955233 244.93672324 -148.34955233 244.93672324 -142.77950478 260.59198618 C-136.90068673 266.61738752 -129.20215145 270.25085763 -121.55582595 273.51880854 C-114.6029407 276.49203577 -108.38706609 280.47086086 -102 284.5 C-99.67829907 285.9213848 -97.34920411 287.32995648 -95.01953125 288.73828125 C-94.3711026 289.13197906 -93.72267395 289.52567688 -93.05459595 289.93130493 C-89.57713078 292.04260081 -86.09949744 294.1536194 -82.62174988 296.26445007 C-61.40330817 309.14306777 -61.40330817 309.14306777 -51.0300293 315.45727539 C-49.15675813 316.59752041 -47.28322908 317.73734186 -45.40942383 318.87670898 C-40.47809645 321.87643652 -35.55367314 324.88691894 -30.63671875 327.91015625 C-29.58911377 328.55251221 -28.54150879 329.19486816 -27.4621582 329.85668945 C-25.45484757 331.08774473 -23.44937041 332.32179635 -21.44604492 333.55932617 C-20.09216675 334.38847534 -20.09216675 334.38847534 -18.7109375 335.234375 C-17.52443604 335.96479004 -17.52443604 335.96479004 -16.31396484 336.70996094 C-13.62603265 338.27305742 -13.62603265 338.27305742 -9 340 C-9 327.13 -9 314.26 -9 301 C-5.04 301 -1.08 301 3 301 C3 313.87 3 326.74 3 340 C6.95604424 338.4175823 10.20395294 336.81252496 13.83203125 334.65625 C14.95150146 333.99246338 16.07097168 333.32867676 17.22436523 332.64477539 C18.42054311 331.93007274 19.61658513 331.21514265 20.8125 330.5 C22.04950811 329.76350242 23.28656901 329.02709349 24.52368164 328.29077148 C31.30860611 324.24518038 38.05757791 320.1486744 44.73413086 315.92626953 C51.23059687 311.82632229 57.80403194 307.85388587 64.375 303.875 C73.60499053 298.28468382 82.8159467 292.66564748 92 287 C101.4156005 281.19275594 110.85477173 275.42577222 120.3125 269.6875 C121.21971802 269.13703003 121.21971802 269.13703003 122.14526367 268.57543945 C132.9374445 262.02858712 132.9374445 262.02858712 135.63275433 260.7968626 C138.28292476 259.19016187 138.28292476 259.19016187 138.61523914 256.14769459 C138.61063018 254.97793929 138.60602121 253.80818399 138.60127258 252.60298157 C138.60554471 251.95113347 138.60981683 251.29928537 138.61421841 250.6276843 C138.62246791 248.43900174 138.59493594 246.2522272 138.56762695 244.0637207 C138.56621688 242.49679612 138.56700766 240.92986822 138.56983948 239.36294556 C138.57127666 235.10470634 138.54183856 230.84716842 138.50696969 226.58909249 C138.47575623 222.14082643 138.47277942 217.69254508 138.46684265 213.2441864 C138.45128941 204.81867228 138.41024106 196.39348176 138.3600952 187.96811026 C138.30424766 178.37697507 138.27672681 168.78582458 138.25161803 159.19456732 C138.1993264 139.46286413 138.11135547 119.73145243 138 100 C136.43182924 100.77656962 134.86453905 101.55491752 133.29760742 102.33398438 C132.4247258 102.76723022 131.55184418 103.20047607 130.6525116 103.64685059 C126.4559167 105.78769699 122.38803818 108.13899857 118.3125 110.5 C116.45602885 111.56822932 114.59924718 112.63591914 112.7421875 113.703125 C111.3185791 114.52200195 111.3185791 114.52200195 109.86621094 115.35742188 C105.23605605 118.01088713 100.58652671 120.62978669 95.9375 123.25 C86.71737118 128.45063424 77.52494109 133.69880808 68.33944702 138.96026611 C60.00446259 143.73283977 51.64037776 148.45033267 43.25 153.125 C33.63288117 158.48340589 24.10125047 163.97690608 14.61230469 169.55908203 C13.67161133 170.11192871 12.73091797 170.66477539 11.76171875 171.234375 C10.93631592 171.72131836 10.11091309 172.20826172 9.26049805 172.70996094 C7.21300418 173.87844108 5.10856861 174.94571569 3 176 C3 185.24 3 194.48 3 204 C-0.96 204 -4.92 204 -9 204 C-9 194.76 -9 185.52 -9 176 C-12.650625 173.958125 -16.30125 171.91625 -20.0625 169.8125 C-40.51543737 158.36256377 -60.90154944 146.79816231 -81.23876953 135.14404297 C-84.74195693 133.13672209 -88.2456472 131.13028547 -91.75 129.125 C-92.33897064 128.78795044 -92.92794128 128.45090088 -93.53475952 128.1036377 C-103.15041155 122.60352881 -112.79924501 117.16563228 -122.47949219 111.77978516 C-128.59731785 108.37044795 -134.65622132 104.87535239 -140.68164062 101.30493164 C-142.70184257 99.91824913 -142.70184257 99.91824913 -144 100 Z " fill="#FEFAFA" transform="translate(259,77)"></path><path d="M0 0 C3.4375 0.75 3.4375 0.75 5.4375 2.75 C5.65745734 5.76598932 5.75211926 8.6915459 5.75976562 11.71020508 C5.77466034 13.10311012 5.77466034 13.10311012 5.78985596 14.52415466 C5.81914221 17.60597667 5.83271043 20.68759276 5.84375 23.76953125 C5.85524999 25.90703845 5.86676549 28.04454557 5.8782959 30.18205261 C5.89932851 34.66866011 5.91100533 39.15519581 5.91796875 43.6418457 C5.92893719 49.39245544 5.97698237 55.14211773 6.03391266 60.89243031 C6.07115393 65.30965447 6.08157595 69.72665027 6.0846405 74.14401817 C6.09069806 76.26395532 6.10677065 78.38388824 6.13301086 80.50367165 C6.16711112 83.47038472 6.16338037 86.434782 6.15039062 89.40161133 C6.17803497 90.71643997 6.17803497 90.71643997 6.20623779 92.05783081 C6.12633052 97.88134449 6.12633052 97.88134449 4.15125561 100.3720293 C2.56584167 101.71890259 2.56584167 101.71890259 -0.5625 103.75 C-1.47539795 104.3591626 -2.3882959 104.9683252 -3.32885742 105.59594727 C-4.26576416 106.16369873 -5.2026709 106.7314502 -6.16796875 107.31640625 C-7.75158203 108.28223633 -7.75158203 108.28223633 -9.3671875 109.26757812 C-10.48351562 109.94240234 -11.59984375 110.61722656 -12.75 111.3125 C-15.10941357 112.74910757 -17.46673264 114.18913854 -19.82421875 115.62890625 C-20.40763031 115.98457672 -20.99104187 116.34024719 -21.59213257 116.70669556 C-26.44849367 119.67027799 -31.26300664 122.6954873 -36.0625 125.75 C-43.21886051 130.29181057 -50.40907363 134.77775447 -57.62158203 139.22973633 C-59.33466731 140.28759392 -61.04625853 141.34786975 -62.7578125 142.40820312 C-63.81355469 143.05853516 -64.86929687 143.70886719 -65.95703125 144.37890625 C-66.89393799 144.95713135 -67.83084473 145.53535645 -68.79614258 146.13110352 C-71.66045071 147.80732161 -74.57902246 149.29825902 -77.5625 150.75 C-78.99980068 145.56700665 -79.81129447 140.75534306 -77.5625 135.75 C-72.44779982 130.38128693 -65.30992799 127.0979131 -58.86962891 123.58740234 C-53.25004274 120.46522565 -47.82971526 117.02421004 -42.375 113.625 C-40.19482273 112.28643647 -38.01384344 110.94917827 -35.83203125 109.61328125 C-29.24137308 105.56379473 -22.69681619 101.44377383 -16.17114258 97.29052734 C-15.45466553 96.83500488 -14.73818848 96.37948242 -14 95.91015625 C-13.37996094 95.51449463 -12.75992188 95.11883301 -12.12109375 94.71118164 C-10.5625 93.75 -10.5625 93.75 -8.5625 92.75 C-8.2325 68.33 -7.9025 43.91 -7.5625 18.75 C-24.64540749 28.79655228 -24.64540749 28.79655228 -41.5 39.1875 C-49.8004944 44.4086786 -58.12888018 49.58021975 -66.5 54.6875 C-67.49572021 55.297146 -68.49144043 55.90679199 -69.51733398 56.53491211 C-70.42813721 57.08928955 -71.33894043 57.64366699 -72.27734375 58.21484375 C-73.08292725 58.705896 -73.88851074 59.19694824 -74.71850586 59.70288086 C-76.5625 60.75 -76.5625 60.75 -77.5625 60.75 C-78.7584108 55.63066254 -79.54664061 50.72576591 -77.5625 45.75 C-73.34819654 40.99770035 -67.07533625 38.30110725 -61.54443359 35.37353516 C-56.22510912 32.47739075 -51.13473707 29.2082923 -46 26 C-43.80075894 24.64635606 -41.60021791 23.29482209 -39.3984375 21.9453125 C-32.88360334 17.94735896 -26.37068884 13.94630071 -19.8598938 9.94177246 C-18.15683696 8.89457629 -16.45330091 7.84815959 -14.74975586 6.80175781 C-13.2049353 5.85187988 -13.2049353 5.85187988 -11.62890625 4.8828125 C-10.72084229 4.32480957 -9.81277832 3.76680664 -8.87719727 3.19189453 C-3.37319291 -0.23671529 -3.37319291 -0.23671529 0 0 Z " fill="#FEFAFA" transform="translate(365.5625,224.25)"></path><path d="M0 0 C2.63010834 1.24658104 5.08567833 2.72476377 7.5625 4.25 C8.29863525 4.69327637 9.03477051 5.13655273 9.79321289 5.59326172 C12.20298147 7.05023753 14.60250268 8.52292778 17 10 C18.19834473 10.73621582 18.19834473 10.73621582 19.42089844 11.48730469 C23.69837747 14.11868001 27.96694403 16.76405133 32.23046875 19.41796875 C36.41150999 22.01877393 40.60289162 24.60228649 44.80078125 27.17578125 C45.37847763 27.53017273 45.95617401 27.88456421 46.55137634 28.24969482 C49.37681723 29.98289437 52.20314328 31.71459885 55.03100586 33.44384766 C57.08014215 34.70120342 59.12359118 35.96788922 61.16040039 37.24511719 C62.99705316 38.38017523 64.85766521 39.47771014 66.74389648 40.52832031 C69.0682194 41.88571577 71.06851337 43.12552819 73 45 C73.73449277 48.23176821 73.91566831 49.75987436 73.5625 52.875 C73.5015918 53.90753906 73.5015918 53.90753906 73.43945312 54.9609375 C73.33427942 56.64371683 73.17283921 58.32281952 73 60 C65.38219212 55.959861 58.03073674 51.61657696 50.75 47 C42.45079423 41.77621375 34.12717097 36.5979403 25.75 31.5 C24.84733398 30.94957031 23.94466797 30.39914063 23.01464844 29.83203125 C18.25754868 26.94173011 13.47527858 24.09989503 8.66503906 21.29882812 C7.06695404 20.36786316 7.06695404 20.36786316 5.43658447 19.41809082 C4.6325116 18.95012085 3.82843872 18.48215088 3 18 C2.66569082 27.44111938 2.44194391 36.87680458 2.35490799 46.32345963 C2.31109244 50.71184738 2.23087076 55.09294713 2.06396484 59.47851562 C0.55945021 77.83857067 0.55945021 77.83857067 5.88592529 94.70568848 C10.51854853 98.90357483 15.76112916 101.17890305 21.63354492 103.16418457 C24.59063437 104.20860794 27.04126591 105.70087432 29.6328125 107.453125 C30.38328857 107.91944336 31.13376465 108.38576172 31.90698242 108.86621094 C32.63892822 109.32286133 33.37087402 109.77951172 34.125 110.25 C35.85266692 111.32323493 37.58054262 112.39613381 39.30859375 113.46875 C40.2094873 114.02820313 41.11038086 114.58765625 42.03857422 115.1640625 C47.15985861 118.3390055 52.28891765 121.50130979 57.4196167 124.66101074 C58.5928857 125.38372662 59.76594276 126.10678667 60.93878174 126.8302002 C62.57717559 127.84073918 64.21630595 128.85008377 65.85546875 129.859375 C66.80059326 130.44170898 67.74571777 131.02404297 68.71948242 131.62402344 C70.9220479 132.99400605 70.9220479 132.99400605 73 134 C73 138.95 73 143.9 73 149 C69.04244823 147.41697929 65.89566522 145.84591768 62.30078125 143.6484375 C60.63039795 142.63100464 60.63039795 142.63100464 58.92626953 141.59301758 C57.72159081 140.85382322 56.51700331 140.11448016 55.3125 139.375 C54.05859399 138.60870132 52.80452241 137.84267349 51.55029297 137.0769043 C48.32336983 135.1052296 45.09950824 133.12860507 41.87640381 131.1506958 C40.08468822 130.05193465 38.29188657 128.95497548 36.49853516 127.85888672 C24.78081008 120.69587498 13.09994977 113.47749825 1.5 106.125 C0.10128662 105.24098511 0.10128662 105.24098511 -1.32568359 104.33911133 C-2.60306396 103.52543091 -2.60306396 103.52543091 -3.90625 102.6953125 C-5.02483398 101.9839917 -5.02483398 101.9839917 -6.16601562 101.25830078 C-8 100 -8 100 -10 98 C-10.20944657 94.97306319 -10.29362665 92.03690745 -10.29052734 89.00805664 C-10.29724457 88.07624069 -10.30396179 87.14442474 -10.31088257 86.18437195 C-10.32993722 83.09291302 -10.33379044 80.0016703 -10.3359375 76.91015625 C-10.34235995 74.76785694 -10.34908788 72.62555853 -10.35610962 70.48326111 C-10.36810089 65.98825038 -10.37178851 61.49331662 -10.37060547 56.99829102 C-10.37040211 51.22976019 -10.3977136 45.46172111 -10.43214989 39.69330692 C-10.45435314 35.26759053 -10.45844504 30.84199374 -10.45738602 26.41622734 C-10.45975155 24.28909039 -10.46862821 22.1619506 -10.48405075 20.03486824 C-10.50357898 17.06333793 -10.49792471 14.09288439 -10.48583984 11.12133789 C-10.49707886 10.23759491 -10.50831787 9.35385193 -10.51989746 8.44332886 C-10.45838922 2.51177115 -10.45838922 2.51177115 -8.14321899 -0.07301331 C-4.98004607 -1.44115124 -3.29624076 -0.97488818 0 0 Z " fill="#FEFAFA" transform="translate(151,225)"></path><path d="M0 0 C3.49472611 1.39789045 6.44993488 2.71716195 9.67578125 4.546875 C10.57409668 5.05500732 11.47241211 5.56313965 12.39794922 6.08666992 C13.35975098 6.63556885 14.32155273 7.18446777 15.3125 7.75 C16.32070801 8.32274658 17.32891602 8.89549316 18.36767578 9.4855957 C25.72792346 13.67755874 33.0576021 17.92126801 40.375 22.1875 C41.37160645 22.76661133 42.36821289 23.34572266 43.39501953 23.94238281 C48.00555529 26.6297708 52.58777264 29.34722743 57.11328125 32.17578125 C57.89203613 32.65571533 58.67079102 33.13564941 59.47314453 33.63012695 C60.90438029 34.51553642 62.32674112 35.41552956 63.73779297 36.33276367 C65.82032139 37.67009076 65.82032139 37.67009076 69 39 C72.91202768 37.81867139 76.38939305 35.77226445 79.953125 33.796875 C80.52224106 33.4823941 81.09135712 33.16791321 81.67771912 32.84390259 C83.5367934 31.81554404 85.39345227 30.78291186 87.25 29.75 C88.54523202 29.03188926 89.84056201 28.31395519 91.13598633 27.59619141 C94.44893305 25.75920812 97.75952995 23.91803721 101.06915283 22.07507324 C102.92708303 21.04059932 104.78550038 20.007006 106.64404297 18.97363281 C109.99337659 17.11012209 113.34094045 15.24348726 116.6875 13.375 C117.68233398 12.82038086 118.67716797 12.26576172 119.70214844 11.69433594 C125.21557047 8.60674461 130.64861332 5.42608074 136.01489258 2.08837891 C138 1 138 1 140 1 C140 5.95 140 10.9 140 16 C138.5459375 16.77601563 137.091875 17.55203125 135.59375 18.3515625 C124.8317416 24.1229267 114.15482185 30.00131497 103.625 36.1875 C102.63306641 36.76790039 101.64113281 37.34830078 100.61914062 37.94628906 C94.96728207 41.25358459 94.96728207 41.25358459 89.33105469 44.58740234 C86.89629332 46.03254803 84.45002144 47.45592817 82 48.875 C81.30084473 49.2980542 80.60168945 49.7211084 79.88134766 50.15698242 C75.35652183 52.74535018 71.24075283 54.24154239 66 53 C62.20767557 51.3273195 58.76051751 49.19414644 55.25 47 C53.12341433 45.71445949 50.99576442 44.43067823 48.8671875 43.1484375 C47.75311523 42.47135742 46.63904297 41.79427734 45.49121094 41.09667969 C40.10860821 37.84539471 34.63632968 34.74957787 29.16882324 31.64404297 C26.32658726 30.0294131 23.48781965 28.40870419 20.6484375 26.7890625 C19.57432617 26.17708008 18.50021484 25.56509766 17.39355469 24.93457031 C11.59297332 21.62782163 5.79674227 18.31347372 0 15 C0 10.05 0 5.1 0 0 Z " fill="#FEFBFB" transform="translate(186,292)"></path></svg>