<svg version="1.1" xmlns="http://www.w3.org/2000/svg" width="16px" height="16px" fill="currentColor" viewBox="0 0 512 512"><path d="M0 0 C168.96 0 337.92 0 512 0 C512 168.96 512 337.92 512 512 C343.04 512 174.08 512 0 512 C0 343.04 0 174.08 0 0 Z " fill="#E3740D" transform="translate(0,0)"></path><path d="M0 0 C4.07787131 1.94635182 7.96977843 4.16777592 11.875 6.4375 C12.99269775 7.0756665 14.11039551 7.71383301 15.26196289 8.37133789 C18.51583656 10.23434283 21.7599575 12.1130627 25 14 C26.18940186 14.69222656 26.18940186 14.69222656 27.40283203 15.3984375 C30.76603447 17.36180365 34.11934009 19.34134219 37.46875 21.328125 C43.09868016 24.66002003 48.76925756 27.92135957 54.4375 31.1875 C55.53167236 31.81825439 56.62584473 32.44900879 57.75317383 33.09887695 C62.95948286 36.09903949 68.16728612 39.09658346 73.37678528 42.09120178 C75.15129074 43.11150425 76.92543737 44.13242776 78.69946289 45.15356445 C80.92317007 46.43333321 83.14757649 47.71188804 85.37280273 48.98901367 C86.38673096 49.57271729 87.40065918 50.1564209 88.4453125 50.7578125 C89.39954102 51.30598633 90.35376953 51.85416016 91.33691406 52.41894531 C94.40340449 54.2394983 97.35884386 56.19621127 100.27685547 58.24560547 C102.64665457 59.28310607 103.59536483 58.9224013 106 58 C107.89323825 57.02559639 109.75754088 55.99429904 111.6015625 54.9296875 C112.71805176 54.28829834 113.83454102 53.64690918 114.98486328 52.98608398 C116.19829845 52.28248634 117.41167583 51.57878903 118.625 50.875 C119.88630809 50.14808856 121.14786789 49.42161372 122.40966797 48.69555664 C125.65199365 46.82844338 128.89106826 44.95576507 132.12939453 43.08172607 C134.99046874 41.42723579 137.85465077 39.7781529 140.71875 38.12890625 C144.99920726 35.66327982 149.27777436 33.19442515 153.5546875 30.72265625 C157.91140146 28.2049872 162.27092435 25.69228757 166.6328125 23.18359375 C167.72859619 22.55267822 168.82437988 21.9217627 169.95336914 21.27172852 C172.13102961 20.01880367 174.30988281 18.76794935 176.48999023 17.51928711 C181.80266673 14.46651372 187.06961382 11.36181738 192.27734375 8.1328125 C193.27411133 7.52131348 194.27087891 6.90981445 195.29785156 6.27978516 C197.17054066 5.12636309 199.03391671 3.95762549 200.88574219 2.77099609 C204.51542594 0.54601255 207.08598404 -0.93327578 211.37109375 -1.24609375 C216.91903824 0.65895931 221.81520871 3.49583201 226.875 6.4375 C227.97602051 7.06769043 229.07704102 7.69788086 230.21142578 8.34716797 C232.43300457 9.6215896 234.65163795 10.90116045 236.8671875 12.18603516 C239.67343314 13.81091087 242.48997327 15.41536277 245.3125 17.01171875 C246.83391566 17.88179503 248.35479297 18.75281371 249.875 19.625 C250.56319824 20.01357178 251.25139648 20.40214355 251.96044922 20.80249023 C255.44141994 22.83179365 257.9044669 24.54842203 260 28 C260.39440918 30.42149353 260.39440918 30.42149353 260.41992188 33.14819336 C260.43583374 34.17283188 260.45174561 35.1974704 260.46813965 36.25315857 C260.46844177 37.90481773 260.46844177 37.90481773 260.46875 39.58984375 C260.47636353 40.72651993 260.48397705 41.86319611 260.49182129 43.03431702 C260.50262377 45.43748783 260.50547481 47.8407056 260.50097656 50.24389648 C260.50000448 53.92055557 260.54162327 57.59512674 260.5859375 61.27148438 C260.59114462 63.60676648 260.59383269 65.94205584 260.59375 68.27734375 C260.61014526 69.37642563 260.62654053 70.47550751 260.64343262 71.6078949 C260.57453139 79.21808746 260.57453139 79.21808746 257.75512695 83.05517578 C255.31191799 84.77981934 252.94671666 86.40486158 250.32421875 87.83984375 C249.42493652 88.33887207 248.5256543 88.83790039 247.59912109 89.35205078 C246.63828613 89.87524902 245.67745117 90.39844727 244.6875 90.9375 C242.630633 92.0778459 240.57467382 93.21983048 238.51953125 94.36328125 C237.45428223 94.95447754 236.3890332 95.54567383 235.29150391 96.15478516 C229.78022896 99.24440213 224.32739593 102.43295529 218.875 105.625 C217.86268311 106.21659912 216.85036621 106.80819824 215.80737305 107.41772461 C210.53023395 110.49656679 210.53023395 110.49656679 205.31689453 113.68115234 C203 115 203 115 201 115 C201 115.66 201 116.32 201 117 C201.71446289 117.27005859 202.42892578 117.54011719 203.16503906 117.81835938 C206.02863414 119.011935 208.65468893 120.38826523 211.359375 121.90625 C212.38474365 122.48052734 213.4101123 123.05480469 214.46655273 123.64648438 C215.55009033 124.25814453 216.63362793 124.86980469 217.75 125.5 C218.86511963 126.12712891 219.98023926 126.75425781 221.12915039 127.40039062 C229.56827138 132.159892 237.95166855 137.00503944 246.26953125 141.97314453 C247.90135382 142.94146363 249.5441185 143.89127428 251.1875 144.83984375 C252.095 145.36707031 253.0025 145.89429688 253.9375 146.4375 C254.68902344 146.86933594 255.44054687 147.30117188 256.21484375 147.74609375 C258 149 258 149 260 152 C260.27415466 154.30123901 260.27415466 154.30123901 260.30639648 157.03466797 C260.32238388 158.05938202 260.33837128 159.08409607 260.35484314 160.13986206 C260.36288719 161.79926315 260.36288719 161.79926315 260.37109375 163.4921875 C260.38012222 164.63027863 260.3891507 165.76836975 260.39845276 166.94094849 C260.4129694 169.35009118 260.42184549 171.75927343 260.42553711 174.16845703 C260.43743179 177.85386618 260.48660554 181.53760067 260.53710938 185.22265625 C260.54657351 187.56249182 260.55380859 189.90233768 260.55859375 192.2421875 C260.57812607 193.34440643 260.59765839 194.44662537 260.61778259 195.58224487 C260.57279612 203.21369506 260.57279612 203.21369506 257.79077148 207.03271484 C255.16244878 208.88548576 252.58395964 210.64355114 249.7890625 212.234375 C248.79841797 212.80454346 247.80777344 213.37471191 246.78710938 213.9621582 C245.74361328 214.552146 244.70011719 215.14213379 243.625 215.75 C241.46026605 216.98710705 239.29620252 218.22538799 237.1328125 219.46484375 C236.08254883 220.06538574 235.03228516 220.66592773 233.95019531 221.28466797 C231.39106248 222.77262455 228.8712926 224.30076906 226.3671875 225.87890625 C225.70122559 226.29624023 225.03526367 226.71357422 224.34912109 227.14355469 C222.633101 228.22835852 220.92554678 229.32652284 219.21875 230.42578125 C215.39963215 232.29362651 212.23939149 233.52270934 208 233 C204.11051521 231.41840455 200.6665703 229.24026949 197.125 227 C194.97986998 225.69545739 192.83401155 224.39211193 190.6875 223.08984375 C189.5840625 222.41163574 188.480625 221.73342773 187.34375 221.03466797 C181.99378099 217.77921807 176.55909056 214.67474439 171.125 211.5625 C168.93979314 210.30392529 166.75489883 209.04480775 164.5703125 207.78515625 C163.48524414 207.16012207 162.40017578 206.53508789 161.28222656 205.89111328 C156.93383406 203.38570951 152.58686903 200.87783676 148.24023438 198.36938477 C146.09351068 197.13087788 143.9463802 195.89307578 141.79882812 194.65600586 C136.7125661 191.72522129 131.63035465 188.78797746 126.56085205 185.82830811 C124.1618043 184.42821831 121.7606759 183.03171905 119.359375 181.63549805 C117.66201774 180.64656763 115.96769098 179.65244162 114.2734375 178.65820312 C113.24734375 178.06201172 112.22125 177.46582031 111.1640625 176.8515625 C109.80982178 176.05999756 109.80982178 176.05999756 108.42822266 175.25244141 C105.34854521 173.64990203 105.34854521 173.64990203 102 173 C99.6553102 173.90936608 99.6553102 173.90936608 97.2734375 175.4375 C96.33773926 175.99493896 95.40204102 176.55237793 94.43798828 177.12670898 C93.42720215 177.74489502 92.41641602 178.36308105 91.375 179 C89.19322971 180.30425797 87.01091976 181.60761355 84.828125 182.91015625 C83.69955078 183.58836426 82.57097656 184.26657227 81.40820312 184.96533203 C76.01593796 188.18446799 70.57075055 191.30999587 65.125 194.4375 C62.94257096 195.69507413 60.7602801 196.95288809 58.578125 198.2109375 C55.2884971 200.10594299 51.99874071 202.0007253 48.70898438 203.89550781 C45.4306894 205.78398492 42.15273262 207.67304701 38.875 209.5625 C37.28268555 210.48023193 37.28268555 210.48023193 35.65820312 211.41650391 C26.9394474 216.44665746 18.24375689 221.51585808 9.56201172 226.60961914 C8.62631348 227.15739014 7.69061523 227.70516113 6.7265625 228.26953125 C5.90752441 228.75010986 5.08848633 229.23068848 4.24462891 229.72583008 C3.50390137 230.14630615 2.76317383 230.56678223 2 231 C1.38688965 231.40694092 0.7737793 231.81388184 0.14208984 232.2331543 C-3.17297697 233.41991346 -5.60641682 232.777834 -9 232 C-12.05102539 230.54467773 -12.05102539 230.54467773 -15.09765625 228.68359375 C-16.22300781 228.00522461 -17.34835938 227.32685547 -18.5078125 226.62792969 C-19.69289358 225.89808716 -20.8777864 225.16793888 -22.0625 224.4375 C-23.88054855 223.33263895 -25.70073076 222.2313509 -27.52096558 221.13009644 C-28.71189178 220.40899834 -29.90194572 219.68645755 -31.09109497 218.96243286 C-36.50569448 215.67037402 -42.02006694 212.59016584 -47.59375 209.578125 C-50.16939091 207.88890596 -51.38677348 206.60667906 -53 204 C-53.39440918 201.57850647 -53.39440918 201.57850647 -53.41992188 198.85180664 C-53.43583374 197.82716812 -53.45174561 196.8025296 -53.46813965 195.74684143 C-53.46834106 194.64573532 -53.46854248 193.54462921 -53.46875 192.41015625 C-53.47636353 191.27348007 -53.48397705 190.13680389 -53.49182129 188.96568298 C-53.50262377 186.56251217 -53.50547481 184.1592944 -53.50097656 181.75610352 C-53.50000448 178.07944443 -53.54162327 174.40487326 -53.5859375 170.72851562 C-53.59114462 168.39323352 -53.59383269 166.05794416 -53.59375 163.72265625 C-53.61014526 162.62357437 -53.62654053 161.52449249 -53.64343262 160.3921051 C-53.57465729 152.79581816 -53.57465729 152.79581816 -50.82348633 148.98583984 C-48.01007533 147.00708627 -45.23448574 145.18108212 -42.23046875 143.50390625 C-41.10495605 142.86904297 -39.97944336 142.23417969 -38.81982422 141.58007812 C-37.6091168 140.90743089 -36.39834058 140.2349075 -35.1875 139.5625 C-33.30928706 138.50822505 -31.43269726 137.45110341 -29.55627441 136.39364624 C-28.27772796 135.67320356 -26.9986714 134.95366543 -25.71911621 134.23501587 C-21.41524691 131.81386749 -17.14140763 129.34633361 -12.88671875 126.83984375 C-11.78755127 126.19265381 -10.68838379 125.54546387 -9.5559082 124.87866211 C-7.46550858 123.64406044 -5.37675034 122.40667459 -3.28979492 121.16625977 C-2.35627197 120.61639404 -1.42274902 120.06652832 -0.4609375 119.5 C0.35584473 119.0153125 1.17262695 118.530625 2.01416016 118.03125 C4 117 4 117 6 117 C6 116.34 6 115.68 6 115 C5.00419922 114.63648438 5.00419922 114.63648438 3.98828125 114.265625 C0.23307006 112.67518261 -3.2586312 110.74390411 -6.8125 108.75 C-7.58078125 108.32106445 -8.3490625 107.89212891 -9.140625 107.45019531 C-18.90566578 101.96989399 -28.57920261 96.32587454 -38.22265625 90.63476562 C-40.09973016 89.52990567 -41.9827459 88.43508824 -43.87109375 87.34960938 C-44.76957031 86.82689453 -45.66804688 86.30417969 -46.59375 85.765625 C-47.39490234 85.30446289 -48.19605469 84.84330078 -49.02148438 84.36816406 C-51 83 -51 83 -53 80 C-53.27415466 77.69876099 -53.27415466 77.69876099 -53.30639648 74.96533203 C-53.32238388 73.94061798 -53.33837128 72.91590393 -53.35484314 71.86013794 C-53.36020584 70.75387054 -53.36556854 69.64760315 -53.37109375 68.5078125 C-53.38012222 67.36972137 -53.3891507 66.23163025 -53.39845276 65.05905151 C-53.4129694 62.64990882 -53.42184549 60.24072657 -53.42553711 57.83154297 C-53.43743179 54.14613382 -53.48660554 50.46239933 -53.53710938 46.77734375 C-53.54657351 44.43750818 -53.55380859 42.09766232 -53.55859375 39.7578125 C-53.57812607 38.65559357 -53.59765839 37.55337463 -53.61778259 36.41775513 C-53.57279022 28.78530443 -53.57279022 28.78530443 -50.78637695 24.96508789 C-48.18151922 23.12801614 -45.62846103 21.37971349 -42.859375 19.80078125 C-41.8789624 19.23560791 -40.8985498 18.67043457 -39.88842773 18.08813477 C-38.85274658 17.50217529 -37.81706543 16.91621582 -36.75 16.3125 C-34.58931133 15.07905721 -32.42915822 13.84467579 -30.26953125 12.609375 C-28.6755249 11.69961914 -28.6755249 11.69961914 -27.04931641 10.77148438 C-24.29479534 9.17125981 -21.58468224 7.52143009 -18.88671875 5.828125 C-18.12713867 5.35721436 -17.36755859 4.88630371 -16.58496094 4.40112305 C-15.19478071 3.53455208 -13.8131777 2.6540013 -12.44238281 1.75708008 C-7.80718983 -1.09576226 -5.19736738 -1.59092114 0 0 Z " fill="#FEFCF9" transform="translate(155,140)"></path><path d="M0 0 C3.33155135 1.30269478 6.26551574 2.8417808 9.35375977 4.64428711 C11.05048828 5.62945312 11.05048828 5.62945312 12.78149414 6.63452148 C13.96058797 7.32648103 15.13962394 8.01853917 16.31860352 8.71069336 C17.50125519 9.39934445 18.68419564 10.08749987 19.86743164 10.77514648 C23.00141358 12.60047196 26.13193264 14.43113035 29.25610352 16.27319336 C30.19405762 16.68102051 31.13201172 17.08884766 32.09838867 17.5090332 C34.25610352 19.27319336 34.25610352 19.27319336 34.82373047 22.73486328 C34.82294063 24.15804179 34.79478696 25.58137617 34.74438477 27.00366211 C34.73731003 27.75408279 34.73023529 28.50450348 34.72294617 29.27766418 C34.69497009 31.67302431 34.63223361 34.06604083 34.56860352 36.46069336 C34.54352444 38.08500854 34.52071057 39.70936039 34.50024414 41.33374023 C34.44513394 45.31446007 34.35884585 49.29342951 34.25610352 53.27319336 C30.47725458 51.86439312 27.09990655 50.12533892 23.62329102 48.08569336 C22.57012695 47.46952148 21.51696289 46.85334961 20.43188477 46.21850586 C19.34262695 45.57655273 18.25336914 44.93459961 17.13110352 44.27319336 C16.03411133 43.63124023 14.93711914 42.98928711 13.80688477 42.32788086 C5.75044344 37.60275331 5.75044344 37.60275331 2.25610352 35.27319336 C-4.08337528 34.62861323 -7.77893577 35.85833873 -13.11889648 39.33569336 C-14.61634152 40.26220053 -16.11513002 41.18653859 -17.61499023 42.10913086 C-18.43080566 42.61669922 -19.24662109 43.12426758 -20.0871582 43.6472168 C-25.05760588 46.68922943 -30.12638835 49.56222784 -35.18139648 52.46069336 C-37.42770192 53.75459676 -39.67379289 55.04887256 -41.91967773 56.34350586 C-44.19438774 57.65345306 -46.46912718 58.96334915 -48.74389648 60.27319336 C-61.42737266 67.57789124 -74.10638827 74.88917679 -86.74389648 82.27319336 C-98.29119164 89.0202053 -109.87291676 95.70658653 -121.46166992 102.38208008 C-126.89049591 105.50999484 -132.3170893 108.64177784 -137.74389648 111.77319336 C-139.91055231 113.02321215 -142.07721898 114.27321214 -144.24389648 115.52319336 C-145.31639648 116.14194336 -146.38889648 116.76069336 -147.49389648 117.39819336 C-157.24389649 123.02319336 -157.24389649 123.02319336 -160.49731445 124.90014648 C-162.65260959 126.14359845 -164.80788321 127.38708772 -166.96313477 128.63061523 C-171.96727322 131.51782211 -176.97160169 134.40469766 -181.97674561 137.29016113 C-183.72730889 138.2993844 -185.47780059 139.30873172 -187.22827148 140.31811523 C-189.40781813 141.57486996 -191.58749481 142.83139922 -193.76733398 144.08764648 C-194.76764648 144.66450195 -195.76795898 145.24135742 -196.79858398 145.83569336 C-197.77537109 146.39385742 -198.7521582 146.95202148 -199.75854492 147.52709961 C-201.84623356 148.74816186 -203.91058958 150.00960408 -205.95581055 151.30053711 C-207.52540527 152.27700195 -207.52540527 152.27700195 -209.12670898 153.27319336 C-210.06144043 153.87131836 -210.99617188 154.46944336 -211.95922852 155.08569336 C-215.45515426 156.57650371 -217.12075372 156.32440674 -220.74389648 155.27319336 C-223.50463867 153.98217773 -223.50463867 153.98217773 -226.29077148 152.36694336 C-227.30010742 151.7881543 -228.30944336 151.20936523 -229.34936523 150.61303711 C-230.9059082 149.70231445 -230.9059082 149.70231445 -232.49389648 148.77319336 C-234.57196908 147.57518578 -236.65009152 146.37726467 -238.72827148 145.17944336 C-240.10063965 144.37990234 -240.10063965 144.37990234 -241.50073242 143.56420898 C-242.89386389 142.76241543 -244.30620717 141.99203802 -245.74389648 141.27319336 C-245.74389648 140.61319336 -245.74389648 139.95319336 -245.74389648 139.27319336 C-244.74144897 138.71559326 -244.74144897 138.71559326 -243.71875 138.14672852 C-226.93701114 128.80735846 -226.93701114 128.80735846 -210.32983398 119.16308594 C-204.01718123 115.42094898 -197.66483896 111.74941199 -191.30639648 108.08569336 C-190.21439941 107.45638916 -189.12240234 106.82708496 -187.99731445 106.17871094 C-185.16543278 104.54721573 -182.33330925 102.91614136 -179.50109863 101.28521729 C-174.71624865 98.52948274 -169.93249478 95.77184715 -165.1491394 93.01351929 C-163.46879296 92.04475345 -161.7881112 91.0765693 -160.10742188 90.10839844 C-159.08382568 89.51824951 -158.06022949 88.92810059 -157.00561523 88.32006836 C-156.1080249 87.80283203 -155.21043457 87.2855957 -154.28564453 86.75268555 C-153.02747925 86.02033691 -153.02747925 86.02033691 -151.74389648 85.27319336 C-150.82713135 84.79140625 -149.91036621 84.30961914 -148.96582031 83.81323242 C-146.32361835 82.35471539 -146.32361835 82.35471539 -145.93139648 78.58569336 C-145.86952148 77.49256836 -145.80764648 76.39944336 -145.74389648 75.27319336 C-152.56201727 70.56613605 -159.61140251 66.37494655 -166.80639648 62.27319336 C-168.52028967 61.28997931 -170.23417714 60.30675506 -171.94766235 59.3228302 C-173.1190001 58.65028607 -174.29053015 57.97807674 -175.46224976 57.30619812 C-181.65287254 53.75575213 -187.82624298 50.17588422 -193.99389648 46.58569336 C-194.98655518 46.01012695 -195.97921387 45.43456055 -197.00195312 44.84155273 C-197.93257568 44.29950195 -198.86319824 43.75745117 -199.82202148 43.19897461 C-200.63058594 42.72886963 -201.43915039 42.25876465 -202.2722168 41.77441406 C-203.08787109 41.27901123 -203.90352539 40.7836084 -204.74389648 40.27319336 C-206.36303955 39.42809204 -206.36303955 39.42809204 -208.01489258 38.56591797 C-210.74389648 36.27319336 -210.74389648 36.27319336 -211.42504883 32.78979492 C-211.42410476 31.41410356 -211.3905316 30.03817035 -211.32983398 28.66381836 C-211.3213443 27.93700867 -211.31285461 27.21019897 -211.30410767 26.46136475 C-211.27060249 24.14711215 -211.1953458 21.83638631 -211.11889648 19.52319336 C-211.08879237 17.95162923 -211.06141732 16.38001028 -211.03686523 14.80834961 C-210.97082298 10.96194523 -210.86733569 7.11816645 -210.74389648 3.27319336 C-205.91398544 4.80463888 -201.80593234 6.83330119 -197.49389648 9.46069336 C-195.97770733 10.36817741 -194.46072761 11.27434141 -192.94311523 12.17944336 C-191.70053955 12.92194336 -191.70053955 12.92194336 -190.43286133 13.67944336 C-185.41721718 16.65221665 -180.35969014 19.55254508 -175.30639648 22.46069336 C-174.20215332 23.09700684 -173.09791016 23.73332031 -171.96020508 24.38891602 C-168.5551381 26.35098354 -165.14956123 28.31216362 -161.74389648 30.27319336 C-158.45148822 32.16936499 -155.15927112 34.06586122 -151.86791992 35.96386719 C-149.71240708 37.20570044 -147.55551689 38.44514622 -145.3972168 39.68212891 C-139.89551288 42.8423886 -134.43515187 46.05431719 -129.02124023 49.36303711 C-127.3924292 50.34711548 -127.3924292 50.34711548 -125.73071289 51.35107422 C-123.66738501 52.60046511 -121.61303899 53.86485447 -119.56958008 55.14648438 C-115.67235818 57.4924804 -112.82018729 59.19391301 -108.24389648 59.53100586 C-103.0851769 57.67709101 -98.60027583 54.99707225 -93.93139648 52.14819336 C-91.77695441 50.86218929 -89.62198854 49.57706242 -87.46655273 48.29272461 C-86.35683105 47.62708496 -85.24710938 46.96144531 -84.10375977 46.27563477 C-78.72581099 43.07043669 -73.29736432 39.95429735 -67.86889648 36.83569336 C-65.6864866 35.57808599 -63.50419558 34.32027233 -61.32202148 33.06225586 C-58.03239359 31.16725036 -54.7426372 29.27246806 -51.45288086 27.37768555 C-48.17458587 25.48920843 -44.89661289 23.6001745 -41.61889648 21.71069336 C-40.02875732 20.79404907 -40.02875732 20.79404907 -38.40649414 19.85888672 C-29.63000356 14.79470308 -20.87505568 9.69414783 -12.13012695 4.57568359 C-10.71691162 3.74919312 -10.71691162 3.74919312 -9.27514648 2.90600586 C-8.44563477 2.42019043 -7.61612305 1.934375 -6.76147461 1.43383789 C-2.92307031 -0.77426642 -2.92307031 -0.77426642 0 0 Z " fill="#E5780E" transform="translate(367.743896484375,153.726806640625)"></path><path d="M0 0 C2.88427734 1.39868164 2.88427734 1.39868164 5.8359375 3.16015625 C6.89941406 3.78857422 7.96289062 4.41699219 9.05859375 5.06445312 C10.70021484 6.05348633 10.70021484 6.05348633 12.375 7.0625 C13.49261719 7.72572266 14.61023438 8.38894531 15.76171875 9.07226562 C18.51291926 10.70652576 21.25865159 12.34928534 24 14 C22.69204145 17.92387566 21.2626032 18.2734936 17.69140625 20.265625 C16.00217041 21.21804077 16.00217041 21.21804077 14.27880859 22.18969727 C13.04005672 22.87649669 11.8012867 23.5632634 10.5625 24.25 C9.28668728 24.96632588 8.01146657 25.68370709 6.73681641 26.40209961 C4.1093667 27.88243388 1.47988874 29.35906736 -1.15087891 30.83349609 C-6.83744121 34.02694463 -12.48096763 37.29465123 -18.125 40.5625 C-20.26162002 41.79704589 -22.39833904 43.03142045 -24.53515625 44.265625 C-25.5936377 44.87728516 -26.65211914 45.48894531 -27.74267578 46.11914062 C-32.22907894 48.70970051 -36.71874085 51.2945855 -41.20874023 53.87890625 C-43.41695976 55.15204439 -45.62354916 56.4280148 -47.82836914 57.70703125 C-52.6518789 60.50511989 -57.4815283 63.27895643 -62.375 65.953125 C-63.17607178 66.39938232 -63.97714355 66.84563965 -64.80249023 67.30541992 C-66.25631117 68.11407543 -67.71888671 68.90728931 -69.19165039 69.6809082 C-72.32944437 71.44734916 -73.83413472 72.60535504 -75.24609375 75.96484375 C-74.90393546 80.18479604 -73.11776923 81.2270717 -70 84 C-67.27570371 85.84552633 -67.27570371 85.84552633 -64.30078125 87.4609375 C-63.18590332 88.09032227 -62.07102539 88.71970703 -60.92236328 89.36816406 C-59.7190837 90.03712408 -58.51579574 90.70606904 -57.3125 91.375 C-56.06961396 92.07424384 -54.82727107 92.77445391 -53.58544922 93.47558594 C-51.0161073 94.92575755 -48.44494627 96.37262155 -45.87255859 97.81738281 C-39.76588176 101.25285578 -33.69521474 104.75064351 -27.625 108.25 C-26.00525269 109.1788501 -26.00525269 109.1788501 -24.3527832 110.12646484 C-23.34175537 110.7086377 -22.33072754 111.29081055 -21.2890625 111.890625 C-20.40943848 112.39625977 -19.52981445 112.90189453 -18.62353516 113.42285156 C-17.75776855 113.94331055 -16.89200195 114.46376953 -16 115 C-14.36949707 115.85078125 -14.36949707 115.85078125 -12.70605469 116.71875 C-10 119 -10 119 -9.31884766 122.48339844 C-9.31979172 123.8590898 -9.35336488 125.23502301 -9.4140625 126.609375 C-9.42255219 127.33618469 -9.43104187 128.06299438 -9.43978882 128.81182861 C-9.47329399 131.12608121 -9.54855068 133.43680705 -9.625 135.75 C-9.65510411 137.32156413 -9.68247917 138.89318308 -9.70703125 140.46484375 C-9.7730735 144.31124813 -9.87656079 148.15502691 -10 152 C-13.94578132 150.78456482 -17.37506725 149.37761298 -20.921875 147.26953125 C-21.85112793 146.72176025 -22.78038086 146.17398926 -23.73779297 145.60961914 C-24.73182129 145.01656982 -25.72584961 144.42352051 -26.75 143.8125 C-28.91367549 142.53580222 -31.07775166 141.25978329 -33.2421875 139.984375 C-34.35819336 139.32501953 -35.47419922 138.66566406 -36.62402344 137.98632812 C-42.02126394 134.81074607 -47.44767158 131.6862903 -52.875 128.5625 C-55.04818149 127.30990347 -57.22135854 126.05729925 -59.39453125 124.8046875 C-62.73077109 122.88281492 -66.06721467 120.96129685 -69.40380859 119.04003906 C-71.67485543 117.73220138 -73.94560991 116.42385588 -76.21606445 115.11499023 C-78.42287331 113.84390569 -80.63101637 112.57513436 -82.84057617 111.30883789 C-87.66011435 108.54029287 -92.45060351 105.74692408 -97.1640625 102.80078125 C-97.93806396 102.32294189 -98.71206543 101.84510254 -99.50952148 101.3527832 C-100.90475243 100.48617916 -102.29076993 99.60445103 -103.66430664 98.70385742 C-106.63289844 96.86981928 -108.77890557 96.00894906 -112.28125 95.8671875 C-117.62904514 97.49624274 -122.05794191 100.22384125 -126.8125 103.125 C-128.96694207 104.41100407 -131.12190794 105.69613094 -133.27734375 106.98046875 C-134.38706543 107.6461084 -135.49678711 108.31174805 -136.64013672 108.99755859 C-142.01808459 112.20275612 -147.44650634 115.31894242 -152.875 118.4375 C-155.06002503 119.69639036 -157.2449202 120.95550615 -159.4296875 122.21484375 C-160.51475586 122.83987793 -161.59982422 123.46491211 -162.71777344 124.10888672 C-167.06615002 126.61428132 -171.41324552 129.12188793 -175.75927734 131.63134766 C-177.90645854 132.86944656 -180.05520543 134.10483443 -182.20556641 135.33740234 C-187.2965301 138.25966342 -192.36752068 141.20675897 -197.38757324 144.24905396 C-199.76249724 145.68613607 -202.14621068 147.10826117 -204.53076172 148.52929688 C-206.21289332 149.54020016 -207.88203312 150.57262227 -209.55078125 151.60546875 C-210.57042969 152.21132813 -211.59007812 152.8171875 -212.640625 153.44140625 C-213.97915527 154.25653687 -213.97915527 154.25653687 -215.34472656 155.08813477 C-218.96673164 156.33199179 -220.54694922 155.55369296 -224 154 C-226.05988599 152.92723036 -228.09182883 151.79964164 -230.09765625 150.62890625 C-231.22880859 149.97212891 -232.35996094 149.31535156 -233.52539062 148.63867188 C-234.70448445 147.94671233 -235.88352043 147.25465419 -237.0625 146.5625 C-238.24515168 145.87384891 -239.42809212 145.18569349 -240.61132812 144.49804688 C-243.74531007 142.6727214 -246.87582912 140.84206301 -250 139 C-250.9379541 138.59217285 -251.8759082 138.1843457 -252.84228516 137.76416016 C-255 136 -255 136 -255.56762695 132.53833008 C-255.56683711 131.11515157 -255.53868344 129.69181719 -255.48828125 128.26953125 C-255.48120651 127.51911057 -255.47413177 126.76868988 -255.46684265 125.99552917 C-255.43886657 123.60016905 -255.37613009 121.20715253 -255.3125 118.8125 C-255.28742092 117.18818482 -255.26460706 115.56383297 -255.24414062 113.93945312 C-255.18903043 109.95873329 -255.10274233 105.97976385 -255 102 C-249.6635777 104.54077311 -244.49497716 107.23674714 -239.45703125 110.33203125 C-238.52826172 110.90244141 -237.59949219 111.47285156 -236.64257812 112.06054688 C-234.73862557 113.23918417 -232.84024698 114.42686847 -230.94726562 115.62304688 C-223.97734605 120.01860363 -223.97734605 120.01860363 -216 120 C-212.022826 118.22704292 -208.31096901 116.08474293 -204.5625 113.875 C-203.46284912 113.24263428 -202.36319824 112.61026855 -201.23022461 111.95874023 C-197.81117562 109.98751769 -194.40488193 107.99557322 -191 106 C-188.97962916 104.82602662 -186.95881395 103.65281756 -184.9375 102.48046875 C-180.98337325 100.18277834 -177.03484624 97.87581838 -173.08984375 95.5625 C-166.78429581 91.8678669 -160.45705564 88.21147319 -154.125 84.5625 C-153.04484619 83.93996338 -151.96469238 83.31742676 -150.85180664 82.67602539 C-148.66203666 81.41423174 -146.47217645 80.15259466 -144.28222656 78.89111328 C-138.85340058 75.76319852 -133.42680719 72.63141552 -128 69.5 C-125.83334417 68.24998121 -123.6666775 66.99998122 -121.5 65.75 C-120.4275 65.13125 -119.355 64.5125 -118.25 63.875 C-108.5 58.25 -108.5 58.25 -105.24951172 56.37475586 C-103.08442929 55.12564482 -100.91939018 53.87645871 -98.75439453 52.62719727 C-93.31384294 49.48797691 -87.87252784 46.35009437 -82.4296875 43.21484375 C-71.97793851 37.192527 -61.53696112 31.15338042 -51.125 25.0625 C-40.8481895 19.05106263 -30.52031011 13.13174685 -20.17431641 7.24047852 C-19.0507373 6.60037842 -17.9271582 5.96027832 -16.76953125 5.30078125 C-15.77542236 4.73528564 -14.78131348 4.16979004 -13.75708008 3.5871582 C-10.9913437 2.05374827 -10.9913437 2.05374827 -8.5144043 0.23120117 C-5.1675771 -1.40760352 -3.5475815 -1.02863405 0 0 Z " fill="#E27310" transform="translate(370,203)"></path><path d="M0 0 C1.93527142 0.95454667 3.8329214 1.98709091 5.69921875 3.0703125 C6.81441895 3.71282959 7.92961914 4.35534668 9.07861328 5.01733398 C10.28164446 5.71977127 11.4846051 6.42232937 12.6875 7.125 C13.92653732 7.84189002 15.16596333 8.55810863 16.40576172 9.27368164 C18.97599928 10.75860446 21.54388265 12.24747951 24.10986328 13.73974609 C29.70008427 16.99010256 35.30405377 20.21659606 40.90640259 23.44598389 C42.60461436 24.42573885 44.30170403 25.40743791 45.9987793 26.38916016 C47.02269775 26.98132324 48.04661621 27.57348633 49.1015625 28.18359375 C50.00213379 28.70493896 50.90270508 29.22628418 51.83056641 29.76342773 C53.20075408 30.54443162 54.58936005 31.29468003 56 32 C56 45.86 56 59.72 56 74 C51.7925 76.454375 47.585 78.90875 43.25 81.4375 C41.9290332 82.21150146 40.60806641 82.98550293 39.24707031 83.78295898 C38.20131836 84.38954346 37.15556641 84.99612793 36.078125 85.62109375 C34.47565918 86.55586548 34.47565918 86.55586548 32.84082031 87.50952148 C30.44203594 88.76807929 28.59871749 89.41985997 26 90 C26.02525757 88.22955322 26.02525757 88.22955322 26.05102539 86.42333984 C26.10180273 82.0282821 26.09326012 77.63496412 26.06713867 73.23974609 C26.06406355 71.3406154 26.07690412 69.44138766 26.10620117 67.54248047 C26.70233824 57.11075572 26.70233824 57.11075572 23.35375977 47.63598633 C20.97640587 46.01908451 18.67817017 45.04061648 16 44 C14.05450554 42.88828888 12.12415743 41.74979094 10.20703125 40.58984375 C8.07708155 39.36966738 5.94550511 38.15232727 3.8125 36.9375 C1.51896797 35.62336369 -0.77412647 34.30850304 -3.06640625 32.9921875 C-3.64191223 32.66197098 -4.21741821 32.33175446 -4.81036377 31.99153137 C-13.92727732 26.75297388 -22.96196354 21.37311405 -32 16 C-27.53504052 11.205172 -22.21435998 8.3966366 -16.5625 5.1875 C-15.52544922 4.57712891 -14.48839844 3.96675781 -13.41992188 3.33789062 C-12.41638672 2.76619141 -11.41285156 2.19449219 -10.37890625 1.60546875 C-9.01100952 0.81885864 -9.01100952 0.81885864 -7.61547852 0.01635742 C-4.45845424 -1.21044105 -3.18383173 -1.07988712 0 0 Z " fill="#E77B0F" transform="translate(346,265)"></path><path d="M0 0 C0.02505615 1.16571533 0.0501123 2.33143066 0.07592773 3.5324707 C0.17004691 7.85436131 0.27025669 12.1760929 0.37231445 16.49780273 C0.41564622 18.36885866 0.45732257 20.23995369 0.49731445 22.11108398 C0.55505949 24.79943631 0.61874181 27.48759215 0.68359375 30.17578125 C0.70030624 31.01337479 0.71701874 31.85096832 0.73423767 32.71394348 C0.81914061 36.03673288 0.94250673 38.82752018 2 42 C4.31883197 43.08827483 4.31883197 43.08827483 7 44 C8.57373278 44.8205546 10.13201455 45.67124431 11.67578125 46.546875 C12.57506348 47.05549072 13.4743457 47.56410645 14.40087891 48.08813477 C15.36171387 48.63655029 16.32254883 49.18496582 17.3125 49.75 C18.31200684 50.318396 19.31151367 50.88679199 20.34130859 51.47241211 C23.56408855 53.30938164 26.78270934 55.15343457 30 57 C31.1029541 57.63244629 32.2059082 58.26489258 33.34228516 58.91650391 C36.60677219 60.79237656 39.86677396 62.67577668 43.125 64.5625 C44.13731689 65.14547852 45.14963379 65.72845703 46.19262695 66.32910156 C50.71858908 68.96319846 55.04664929 71.53021365 59 75 C53.15699847 79.20286075 46.9876332 82.85931307 40.75 86.4375 C39.96963379 86.89882324 39.18926758 87.36014648 38.38525391 87.83544922 C37.63421387 88.25971191 36.88317383 88.68397461 36.109375 89.12109375 C35.43874023 89.5070874 34.76810547 89.89308105 34.07714844 90.29077148 C30.56109287 91.49130527 27.96696756 90.45641526 24.7019043 88.9152832 C23.91726807 88.46499756 23.13263184 88.01471191 22.32421875 87.55078125 C21.42525879 87.03902344 20.52629883 86.52726562 19.60009766 86 C18.63894043 85.443125 17.6777832 84.88625 16.6875 84.3125 C15.68509277 83.73886719 14.68268555 83.16523438 13.64990234 82.57421875 C5.12524126 77.68408257 -3.36555731 72.7338329 -11.84106445 67.7590332 C-12.77781006 67.20948975 -13.71455566 66.65994629 -14.6796875 66.09375 C-15.89760986 65.37735352 -15.89760986 65.37735352 -17.14013672 64.64648438 C-21.06752824 62.38540119 -25.03852395 60.20082003 -29 58 C-29 44.14 -29 30.28 -29 16 C-24.75125 13.545625 -20.5025 11.09125 -16.125 8.5625 C-14.7858252 7.78849854 -13.44665039 7.01449707 -12.06689453 6.21704102 C-10.49077393 5.30716431 -10.49077393 5.30716431 -8.8828125 4.37890625 C-7.26463623 3.44413452 -7.26463623 3.44413452 -5.61376953 2.49047852 C-1.24635545 0 -1.24635545 0 0 0 Z " fill="#E07110" transform="translate(144,157)"></path><path d="M0 0 C2.75168333 1.11253733 5.25806963 2.55800222 7.8125 4.0625 C8.56861572 4.49570557 9.32473145 4.92891113 10.10375977 5.37524414 C12.74627684 6.89958087 15.37362945 8.44801273 18 10 C19.06637695 10.62616211 20.13275391 11.25232422 21.23144531 11.89746094 C24.638796 13.90195751 28.03966989 15.91691064 31.4375 17.9375 C32.53360596 18.5879126 33.62971191 19.2383252 34.7590332 19.90844727 C35.78601318 20.52518311 36.81299316 21.14191895 37.87109375 21.77734375 C38.78818115 22.32640381 39.70526855 22.87546387 40.65014648 23.44116211 C44.73980535 26.1541462 44.73980535 26.1541462 46 28 C46.26153286 30.51727719 46.3497922 32.78103966 46.29296875 35.29296875 C46.28872391 35.99899734 46.28447906 36.70502594 46.28010559 37.43244934 C46.26333034 39.68452303 46.22568243 41.93569742 46.1875 44.1875 C46.17245157 45.71548185 46.15876344 47.24347776 46.14648438 48.77148438 C46.11343089 52.51466872 46.06165832 56.25718196 46 60 C41.71 60 37.42 60 33 60 C32.67 54.39 32.34 48.78 32 43 C30.23011719 43.99902344 28.46023438 44.99804688 26.63671875 46.02734375 C24.91913201 46.9939209 23.20153486 47.96047967 21.48364258 48.92651367 C20.29105795 49.59777817 19.09899561 50.26997148 17.9074707 50.94311523 C16.19360118 51.91114075 14.47768503 52.87553993 12.76171875 53.83984375 C11.73006592 54.42113037 10.69841309 55.00241699 9.63549805 55.60131836 C7 57 7 57 4 58 C4 66.91 4 75.82 4 85 C-0.29 85 -4.58 85 -9 85 C-9.14873164 80.39198858 -9.257388 75.78538408 -9.32958984 71.17553711 C-9.35969601 69.60888321 -9.4005923 68.04239697 -9.45263672 66.47631836 C-9.52573887 64.21946857 -9.55951301 61.96485204 -9.5859375 59.70703125 C-9.63238907 58.66298882 -9.63238907 58.66298882 -9.67977905 57.59785461 C-9.68251955 53.60485305 -9.17514283 52.18285435 -6.3828125 49.26757812 C-3.15178502 46.96466888 0.256653 44.96069578 3.7109375 43.01171875 C4.32393707 42.66365677 4.93693665 42.31559479 5.56851196 41.95698547 C7.50086433 40.86148408 9.43778618 39.77437688 11.375 38.6875 C12.69692763 37.94000648 14.01854524 37.19196441 15.33984375 36.44335938 C18.55634102 34.62255915 21.77698775 32.80924864 25 31 C20.12210169 26.97616825 14.95833546 23.85213328 9.5 20.6875 C8.09427734 19.84348633 8.09427734 19.84348633 6.66015625 18.98242188 C5.75136719 18.45583984 4.84257812 17.92925781 3.90625 17.38671875 C3.08447266 16.90420654 2.26269531 16.42169434 1.41601562 15.92456055 C-1.60691749 14.7677449 -2.94390213 14.99051705 -6 16 C-7.86710007 16.93732057 -9.69650557 17.95174901 -11.4921875 19.01953125 C-12.52730469 19.62990234 -13.56242187 20.24027344 -14.62890625 20.86914062 C-15.70011719 21.51044922 -16.77132812 22.15175781 -17.875 22.8125 C-19.99730589 24.06916233 -22.11969949 25.32567655 -24.2421875 26.58203125 C-25.23694092 27.19030762 -26.23169434 27.79858398 -27.2565918 28.42529297 C-30 30 -30 30 -32.28442383 30.87548828 C-34.50890647 31.62161732 -34.50890647 31.62161732 -37 34 C-38.0059464 38.41616765 -37.97848416 42.73692042 -37.9375 47.25 C-37.95361328 48.47203125 -37.96972656 49.6940625 -37.98632812 50.953125 C-38.02166509 53.9685464 -38.01486559 56.9844082 -38 60 C-42.29 60 -46.58 60 -51 60 C-51.09903473 55.51601216 -51.17154483 51.03260708 -51.21972656 46.54785156 C-51.23981599 45.02299915 -51.26709316 43.49822352 -51.30175781 41.97363281 C-51.35039796 39.77910402 -51.37299396 37.58559531 -51.390625 35.390625 C-51.41157227 34.07094727 -51.43251953 32.75126953 -51.45410156 31.39160156 C-51 28 -51 28 -49.32250977 25.74780273 C-46.77961102 23.83414646 -44.22045848 22.21180215 -41.44921875 20.64453125 C-40.36479492 20.02586182 -39.28037109 19.40719238 -38.16308594 18.76977539 C-37.01614258 18.12387451 -35.86919922 17.47797363 -34.6875 16.8125 C-32.33048983 15.4766629 -29.97556943 14.13717322 -27.62109375 12.796875 C-26.48269043 12.14912109 -25.34428711 11.50136719 -24.17138672 10.83398438 C-21.46951339 9.27151536 -18.80566456 7.6710049 -16.16015625 6.015625 C-15.48315674 5.5930542 -14.80615723 5.1704834 -14.10864258 4.73510742 C-12.38392439 3.64699216 -10.66812406 2.5447765 -8.953125 1.44140625 C-5.50139652 -0.24336598 -3.79377056 -0.58365701 0 0 Z " fill="#FEFCFA" transform="translate(261,77)"></path><path d="M0 0 C4.29 0 8.58 0 13 0 C13.12397147 4.46564301 13.21450992 8.93036439 13.2746582 13.3972168 C13.29974109 14.91529801 13.3338166 16.43325918 13.37719727 17.95092773 C13.43813293 20.13815965 13.46626895 22.32379039 13.48828125 24.51171875 C13.51446533 25.82615967 13.54064941 27.14060059 13.56762695 28.49487305 C12.85413284 32.90073757 11.42578745 34.235324 8 37 C6.06225586 38.37451172 6.06225586 38.37451172 4.21484375 39.4296875 C3.52447021 39.82945801 2.83409668 40.22922852 2.12280273 40.64111328 C1.40165283 41.0482959 0.68050293 41.45547852 -0.0625 41.875 C-0.80749756 42.30409668 -1.55249512 42.73319336 -2.32006836 43.17529297 C-3.82620052 44.04245507 -5.33407805 44.90659334 -6.84375 45.76757812 C-9.92970593 47.53138084 -12.99542684 49.32857143 -16.0625 51.125 C-17.70813876 52.08366741 -19.35388741 53.04214643 -21 54 C-16.25338199 58.13317797 -10.92263265 61.16856649 -5.5 64.3125 C-4.56285156 64.87517578 -3.62570313 65.43785156 -2.66015625 66.01757812 C-1.29697266 66.80745117 -1.29697266 66.80745117 0.09375 67.61328125 C0.91552734 68.09579346 1.73730469 68.57830566 2.58398438 69.07543945 C5.62106061 70.23766739 6.92817618 70.02111862 10 69 C12.03623941 67.97807618 14.03416003 66.87811469 16 65.7265625 C17.7015625 64.7365625 17.7015625 64.7365625 19.4375 63.7265625 C20.62508032 63.02617785 21.81257963 62.3256558 23 61.625 C24.18712379 60.93164713 25.37462059 60.2389325 26.5625 59.546875 C29.71347145 57.70642122 32.85973971 55.85866289 36 54 C37.40125122 53.33303101 37.40125122 53.33303101 38.83081055 52.65258789 C41.26517842 51.15836684 41.26517842 51.15836684 41.65942383 48.27270508 C41.67513428 47.19915771 41.69084473 46.12561035 41.70703125 45.01953125 C41.73603516 43.85615234 41.76503906 42.69277344 41.79492188 41.49414062 C41.80362305 39.67172852 41.80362305 39.67172852 41.8125 37.8125 C41.83763672 36.58595703 41.86277344 35.35941406 41.88867188 34.09570312 C41.94765153 31.06414867 41.97666031 28.03203831 42 25 C46.29 25 50.58 25 55 25 C55.17380987 29.44724067 55.30041203 33.89265479 55.38452148 38.34228516 C55.41959932 39.85370334 55.46727845 41.36488607 55.52807617 42.87548828 C56.00998027 55.16201789 56.00998027 55.16201789 53.8347168 59.12060547 C51.99673098 60.80428642 50.21409861 61.85229801 48 63 C47.11094971 63.53286621 46.22189941 64.06573242 45.3059082 64.61474609 C42.21810556 66.43911414 39.08935699 68.16387752 35.9375 69.875 C33.69865558 71.10183742 31.46037036 72.32969589 29.22265625 73.55859375 C28.15031738 74.14624512 27.07797852 74.73389648 25.97314453 75.33935547 C23.44501545 76.75143742 20.96239258 78.20621965 18.49609375 79.72265625 C17.86775635 80.10502441 17.23941895 80.48739258 16.59204102 80.88134766 C15.00926894 81.85491114 13.4376642 82.84656823 11.8671875 83.83984375 C7.94554835 85.42666504 6.0933695 85.13587848 2 84 C-1.6883476 82.27080433 -5.17823184 80.25220884 -8.6875 78.1875 C-9.68539551 77.61088623 -10.68329102 77.03427246 -11.71142578 76.44018555 C-14.81549018 74.6399067 -17.90849783 72.82175187 -21 71 C-21.99177246 70.42024414 -22.98354492 69.84048828 -24.00537109 69.24316406 C-26.80026251 67.60793002 -29.5892074 65.9631796 -32.375 64.3125 C-33.23053467 63.80807373 -34.08606934 63.30364746 -34.9675293 62.78393555 C-35.749104 62.31511963 -36.53067871 61.84630371 -37.3359375 61.36328125 C-38.02220215 60.95376221 -38.7084668 60.54424316 -39.41552734 60.12231445 C-41 59 -41 59 -42 57 C-42.08639869 54.59161322 -42.11567764 52.21266119 -42.09765625 49.8046875 C-42.0962413 49.09724396 -42.09482635 48.38980042 -42.09336853 47.66091919 C-42.087766 45.39890331 -42.07521318 43.13698602 -42.0625 40.875 C-42.05748532 39.34244935 -42.05292236 37.80989714 -42.04882812 36.27734375 C-42.03779577 32.51819112 -42.02052952 28.75911228 -42 25 C-37.71 25 -33.42 25 -29 25 C-28.67 30.61 -28.34 36.22 -28 42 C-24.78979683 40.25336038 -21.58182335 38.50282556 -18.375 36.75 C-17.01955078 36.01330078 -17.01955078 36.01330078 -15.63671875 35.26171875 C-11.82382253 33.1743668 -8.05779857 31.109392 -4.4765625 28.640625 C-2 27 -2 27 0 27 C0 18.09 0 9.18 0 0 Z " fill="#FEFCFA" transform="translate(252,350)"></path></svg>