<svg version="1.1" xmlns="http://www.w3.org/2000/svg" width="16px" height="16px" fill="currentColor" viewBox="0 0 512 512"><path d="M0 0 C168.96 0 337.92 0 512 0 C512 168.96 512 337.92 512 512 C343.04 512 174.08 512 0 512 C0 343.04 0 174.08 0 0 Z " fill="#E3750D" transform="translate(0,0)"></path><path d="M0 0 C3.15475282 1.22426627 6.09263554 2.75864205 9.0625 4.375 C9.89942383 4.82327148 10.73634766 5.27154297 11.59863281 5.73339844 C19.02381926 9.81483003 25.52265754 14.54839505 32 20 C32.69351563 20.55429688 33.38703125 21.10859375 34.1015625 21.6796875 C38.59759213 25.34385262 42.33416019 29.51707541 46 34 C46.78632813 34.96035156 47.57265625 35.92070312 48.3828125 36.91015625 C57.51656687 48.29959373 64.14104989 60.63981831 70 74 C70.40089844 73.01902344 70.80179688 72.03804688 71.21484375 71.02734375 C83.4014011 41.83722059 103.17962861 18.97038391 131.0625 3.8125 C131.76463623 3.42553955 132.46677246 3.0385791 133.19018555 2.63989258 C137.25818814 0.52257664 140.33181083 -0.8011215 145 0 C147.93045925 1.28109698 150.63772569 2.85169558 153.375 4.5 C154.47908203 5.14388672 154.47908203 5.14388672 155.60546875 5.80078125 C157.41044544 6.85563776 159.20618718 7.92626881 161 9 C159.45657029 13.08105062 157.50065501 16.41572782 155 20 C151.84718151 19.04682232 149.24279955 18.1638897 146.5 16.3125 C143.17068892 14.56461169 141.62015243 15.1315179 138 16 C112.496356 27.82934977 93.63415355 51.03632127 83.43359375 76.81640625 C77.96575488 92.20796461 76.5420871 107.3564336 76.8125 123.5625 C76.82760756 125.17121112 76.84128499 126.77993631 76.85351562 128.38867188 C76.88596425 132.25947478 76.9373925 136.12957234 77 140 C77.86637085 138.37360596 77.86637085 138.37360596 78.75024414 136.71435547 C97.89079535 100.96817681 130.1484556 75.83530082 167 60 C167.99257813 59.56300781 168.98515625 59.12601563 170.0078125 58.67578125 C180.63441587 54.27808769 191.86434973 51.7672709 203 49 C198.38 46.36 193.76 43.72 189 41 C189 36.86021808 189.32382336 36.01426496 191.5 32.75 C192.19609375 31.69039062 192.19609375 31.69039062 192.90625 30.609375 C193.2671875 30.07828125 193.628125 29.5471875 194 29 C200.09479111 31.26072987 205.60326802 34.60854444 211.23022461 37.82202148 C213.1877612 38.93764886 215.15127952 40.04220445 217.11523438 41.14648438 C218.36236046 41.85610115 219.60911837 42.56636543 220.85546875 43.27734375 C221.98621826 43.91921631 223.11696777 44.56108887 224.28198242 45.22241211 C227 47 227 47 229 50 C229.1712914 52.54229597 229.23242934 54.97189481 229.1953125 57.51171875 C229.19106766 58.60405571 229.19106766 58.60405571 229.18673706 59.71846008 C229.17555257 62.04164137 229.15045166 64.36443547 229.125 66.6875 C229.11496794 68.2636663 229.10584248 69.83983865 229.09765625 71.41601562 C229.07561896 75.27749267 229.04110141 79.13868071 229 83 C224.71 83 220.42 83 216 83 C216 75.74 216 68.48 216 61 C173.58247944 67.05964579 130.08221954 88.20017445 103.64160156 122.77636719 C96.57601579 132.28004328 90.85049886 142.20806953 86 153 C85.51789063 154.05316406 85.03578125 155.10632813 84.5390625 156.19140625 C77.83201228 172.10540722 75.88715759 189.9314929 75.5625 207.0625 C75.5315625 208.41708817 75.5315625 208.41708817 75.5 209.79904175 C75.22032343 220.33872464 75.22032343 220.33872464 78.88232422 229.93359375 C83.78997082 234.41849947 89.54275467 236.67040763 96 238 C95.97905273 236.89188965 95.95810547 235.7837793 95.93652344 234.64208984 C95.86318885 230.46367728 95.81786676 226.28531939 95.78027344 222.10644531 C95.76036787 220.31044903 95.73323321 218.51451572 95.69824219 216.71875 C95.2998931 195.72341001 99.97514584 176.66195045 115 161 C129.18193765 147.35832664 145.4101897 141.44600766 164.875 141.5625 C166.05191406 141.54251953 167.22882813 141.52253906 168.44140625 141.50195312 C185.71820063 141.51145631 200.03358305 148.17645255 212.26953125 160.140625 C225.11839574 173.59608824 229.67659691 188.81576248 229.3125 207.00390625 C228.71589423 220.19137955 222.57785124 232.89566051 213 242 C204.64887854 249.04293121 194.04830728 254.39736506 183 255 C182.10925781 255.061875 181.21851563 255.12375 180.30078125 255.1875 C168.31743858 255.67849483 158.35915398 251.3941683 149 244 C140.67545549 235.41290028 136.01539742 225.19616107 135.625 213.25 C135.84360619 202.38872379 138.95067121 195.06743126 146.484375 187.234375 C152.55444327 181.84294791 158.94349828 177.83043504 167.1875 177.9375 C169.5696875 177.9684375 169.5696875 177.9684375 172 178 C172 182.29 172 186.58 172 191 C170.35 191.185625 168.7 191.37125 167 191.5625 C160.76074904 192.71225887 156.97411193 195.07132197 153 200 C149.40355763 205.75916785 149.19121546 212.4010534 150 219 C152.07840032 227.4868013 156.53262515 232.8401495 163.5625 237.8125 C172.75331097 242.29007458 182.06776501 242.36004509 191.6875 239.0625 C201.75794541 234.77097847 209.19860996 227.40218419 213.57421875 217.40234375 C215.27455064 212.77644857 215.46072647 208.5158427 215.375 203.625 C215.36484863 202.78718994 215.35469727 201.94937988 215.34423828 201.08618164 C215.01486906 187.9509883 209.84758863 177.48715156 200.97265625 167.8125 C189.3262765 157.11166791 175.18614342 154.42920529 160 155 C145.84532608 156.19809816 132.12580385 161.78436733 122.67578125 172.6796875 C108.14859684 192.06716836 106.1321196 217.56451581 108.88085938 241.15332031 C109.71912705 245.84356386 111.22347912 248.4933147 114.828125 251.7421875 C119.8669449 255.0086425 125.24621694 257.09218236 130.94287109 258.93359375 C135.31757313 260.45960385 139.0046492 262.74423697 142.875 265.25 C144.03783933 265.9447597 145.20177604 266.63768856 146.3671875 267.328125 C149 269 149 269 151 271 C151.375 274.4375 151.375 274.4375 151 278 C148.7470024 280.3514991 147.34026606 280.95540255 144.09828949 281.38031673 C142.96414864 281.38274663 141.83000778 281.38517653 140.66149902 281.38768005 C138.70563118 281.402537 138.70563118 281.402537 136.71025085 281.41769409 C135.26711942 281.41345606 133.8239889 281.40889821 132.38085938 281.40405273 C130.85968015 281.40975551 129.33850522 281.41671941 127.81733704 281.42485046 C123.68721014 281.44280616 119.55729541 281.44160916 115.42714119 281.43590808 C111.98015163 281.4328201 108.53320305 281.43890423 105.08621931 281.44494683 C96.95571967 281.45899798 88.82532509 281.45742551 80.69482422 281.44604492 C72.30365385 281.43455912 63.91280291 281.44864568 55.52167463 281.4754414 C48.31902039 281.49758173 41.11646655 281.50423967 33.91378069 281.49836498 C29.61111839 281.49499067 25.30866094 281.49744196 21.00602722 281.51461601 C16.96101408 281.53005698 12.91647516 281.52616175 8.87148094 281.50731087 C7.38638082 281.50361722 5.90124577 281.50675606 4.41617775 281.51719666 C2.3903212 281.53035274 0.36434263 281.51648439 -1.66149902 281.50120544 C-2.79563988 281.50099616 -3.92978073 281.50078688 -5.09828949 281.50057125 C-8.65891858 280.8863306 -9.82048733 279.82987548 -12 277 C-12.8125 274.125 -12.8125 274.125 -12 271 C-5.50681846 265.47694914 2.75436144 261.58439768 10.125 257.375 C11.83623047 256.39273438 11.83623047 256.39273438 13.58203125 255.390625 C16.7195071 253.59049368 19.85916315 251.7942592 23 250 C24.29281349 249.2612436 25.58561944 248.522474 26.87841797 247.78369141 C28.42360107 246.90076416 28.42360107 246.90076416 30 246 C30.10009741 240.15084627 30.17203914 234.30220881 30.21972656 228.45239258 C30.23964008 226.46923113 30.26678102 224.4861268 30.30175781 222.50317383 C30.6536498 202.01581542 28.11839538 184.73843225 13.4140625 169.22265625 C6.65910762 163.00328841 -1.33407823 159.71969014 -10 157 C-11.07507813 156.64164063 -12.15015625 156.28328125 -13.2578125 155.9140625 C-27.18392506 152.51248595 -41.06052189 154.87719921 -53.375 161.9375 C-54.92889842 162.93961602 -56.47218138 163.95855529 -58 165 C-59.03125 165.70125 -60.0625 166.4025 -61.125 167.125 C-69.86082617 174.89293634 -75.35201499 186.44762298 -76.33984375 197.9609375 C-76.78643864 209.88558291 -74.69083569 219.63875655 -67 229 C-60.63794578 235.79155999 -52.74588289 240.38856039 -43.37109375 241.23828125 C-34.70497734 241.45753053 -26.75756401 240.05275111 -19.625 234.8125 C-12.34102331 227.00823926 -10.68037874 219.5407116 -10.78515625 209.1328125 C-11.14391037 203.90152519 -12.97025137 201.19673489 -16.3125 197.3125 C-21.61248422 192.75204846 -26.22094189 191.58440156 -33 191 C-33 186.71 -33 182.42 -33 178 C-23.03570343 177.12079736 -15.64616674 180.39160859 -7.625 186.25 C0.73397479 195.00702121 3.52357681 204.4458569 3.30859375 216.37109375 C2.39091008 227.16258902 -2.30489572 236.57559537 -10.13671875 244.03515625 C-15.00595887 248.03762064 -20.09789147 250.82662321 -26 253 C-26.95261719 253.35835937 -27.90523437 253.71671875 -28.88671875 254.0859375 C-40.63007967 257.53380005 -54.00849316 254.22033244 -64.5546875 248.57421875 C-74.77490303 241.99475092 -82.08196244 233.00024827 -87 222 C-87.391875 221.13375 -87.78375 220.2675 -88.1875 219.375 C-92.50065861 206.76730561 -90.9267858 190.84254315 -85.35424805 178.91967773 C-76.50558751 161.02120361 -63.54860634 149.85748499 -44.87890625 142.82421875 C-39.30231925 141.63926421 -33.87190506 141.71130864 -28.1875 141.75 C-27.06279297 141.74226562 -25.93808594 141.73453125 -24.77929688 141.7265625 C-6.14602014 141.76987052 10.36423391 147.86716351 24.1875 160.625 C40.39938422 177.91767651 44.13069315 198.83681769 44.625 221.75 C44.66329461 223.23699914 44.70235242 224.72397883 44.7421875 226.2109375 C44.83689905 229.80711089 44.92136909 233.40343476 45 237 C46.13179687 236.3503125 47.26359375 235.700625 48.4296875 235.03125 C49.91133076 234.18727599 51.39310858 233.34353819 52.875 232.5 C53.99455078 231.85611328 53.99455078 231.85611328 55.13671875 231.19921875 C55.85214844 230.79316406 56.56757813 230.38710938 57.3046875 229.96875 C57.96452637 229.59169922 58.62436523 229.21464844 59.30419922 228.82617188 C61 228 61 228 63 228 C62.93003299 222.34774811 62.8415771 216.69616139 62.73754883 211.04443359 C62.70473673 209.13044761 62.67657638 207.21637499 62.65356445 205.30224609 C62.45754374 189.41205649 61.79365572 173.33865605 55.875 158.375 C55.5764209 157.59632568 55.2778418 156.81765137 54.97021484 156.01538086 C47.78906732 137.94496896 36.43021638 122.9074206 23 109 C22.45778809 108.43514893 21.91557617 107.87029785 21.35693359 107.28833008 C-4.50509923 80.82292208 -41.51535059 67.44739555 -77 60 C-77 67.59 -77 75.18 -77 83 C-81.29 83 -85.58 83 -90 83 C-90.14873164 78.39198858 -90.257388 73.78538408 -90.32958984 69.17553711 C-90.35969601 67.60888321 -90.4005923 66.04239697 -90.45263672 64.47631836 C-90.52573887 62.21946857 -90.55951301 59.96485204 -90.5859375 57.70703125 C-90.63238907 56.66298882 -90.63238907 56.66298882 -90.67977905 55.59785461 C-90.6825217 51.60172906 -90.17561131 50.18303611 -87.37841797 47.26757812 C-86.27394591 46.48039667 -85.14678325 45.72415561 -84 45 C-82.40623535 43.99199341 -82.40623535 43.99199341 -80.78027344 42.96362305 C-79.65137695 42.31949463 -78.52248047 41.67536621 -77.359375 41.01171875 C-76.75111877 40.66365677 -76.14286255 40.31559479 -75.51617432 39.95698547 C-74.24385795 39.23074935 -72.96988935 38.50740067 -71.69433594 37.78686523 C-69.73699418 36.68014626 -67.78622533 35.56245311 -65.8359375 34.44335938 C-56.27535773 29 -56.27535773 29 -54 29 C-53.10565843 30.40453643 -52.23506808 31.82421869 -51.375 33.25 C-50.88773438 34.03890625 -50.40046875 34.8278125 -49.8984375 35.640625 C-49 38 -49 38 -49.5078125 40.09375 C-51.50356628 42.64329933 -53.63658199 43.75800851 -56.5 45.25 C-57.4796875 45.77078125 -58.459375 46.2915625 -59.46875 46.828125 C-62 48 -62 48 -64 48 C-64 48.66 -64 49.32 -64 50 C-62.96875 50.0825 -61.9375 50.165 -60.875 50.25 C-20.28508704 55.54433647 21.89406128 82.89102997 46.78686523 114.92895508 C47.29032471 115.5917749 47.79378418 116.25459473 48.3125 116.9375 C48.76761963 117.53264404 49.22273926 118.12778809 49.69165039 118.7409668 C54.38718591 125.12848081 58.14465926 132.08783373 62 139 C62.64232617 100.74371192 58.9171683 66.98644954 31.0390625 38.07421875 C21.51785991 28.38885749 11.40199693 20.70105941 -1 15 C-4.47184696 15.08902172 -6.6714708 16.35962685 -9.5625 18.125 C-13 20 -13 20 -15.1875 20.1875 C-18.13947349 18.2534484 -19.87867172 15.32270896 -21 12 C-21.0234375 10.03515625 -21.0234375 10.03515625 -20 8 C-17.77624783 6.38593883 -15.70079331 5.06465687 -13.3125 3.75 C-12.39307617 3.20472656 -12.39307617 3.20472656 -11.45507812 2.6484375 C-7.43108764 0.37827532 -4.57993662 -0.7479796 0 0 Z " fill="#FEFCFA" transform="translate(186,119)"></path><path d="M0 0 C2.56359117 1.29184326 4.89687638 2.60244506 7.3125 4.125 C8.78917217 5.02669527 10.26712975 5.9262875 11.74609375 6.82421875 C12.5644873 7.32356934 13.38288086 7.82291992 14.22607422 8.33740234 C17.38831664 10.23274391 20.58220649 12.0692587 23.78515625 13.89453125 C24.36979141 14.22829773 24.95442657 14.56206421 25.55677795 14.90594482 C28.48640413 16.57777315 31.41827796 18.24542743 34.3527832 19.90869141 C35.43003662 20.52534668 36.50729004 21.14200195 37.6171875 21.77734375 C38.58253418 22.32640381 39.54788086 22.87546387 40.54248047 23.44116211 C43 25 43 25 46 28 C12.67 28 -20.66 28 -55 28 C-51.25802986 25.00642389 -48.02694025 22.74191448 -43.9140625 20.42578125 C-43.33970963 20.10014191 -42.76535675 19.77450256 -42.17359924 19.43899536 C-40.32645269 18.39253909 -38.47601208 17.35210132 -36.625 16.3125 C-34.09094658 14.88545836 -31.5583933 13.45580015 -29.02734375 12.0234375 C-28.41113663 11.67492233 -27.7949295 11.32640717 -27.16004944 10.96733093 C-23.74409846 9.02501538 -20.38036531 7.02547286 -17.06640625 4.9140625 C-16.05296143 4.27150513 -16.05296143 4.27150513 -15.01904297 3.6159668 C-13.32952626 2.52888373 -11.65427813 1.4197096 -9.98046875 0.30859375 C-6.07545208 -1.40592864 -4.09628656 -1.11594678 0 0 Z " fill="#DD6D12" transform="translate(260,359)"></path><path d="M0 0 C2.99438477 1.33520508 2.99438477 1.33520508 5.94140625 3.01953125 C7.55885742 3.93508789 7.55885742 3.93508789 9.20898438 4.86914062 C10.31564453 5.51044922 11.42230469 6.15175781 12.5625 6.8125 C13.67302734 7.44220703 14.78355469 8.07191406 15.92773438 8.72070312 C21.06970132 11.65325519 26.14414562 14.61199615 31 18 C29.02 21.63 27.04 25.26 25 29 C21.60883849 27.6435354 18.71006162 26.37686911 15.57421875 24.6171875 C14.85580811 24.21612793 14.13739746 23.81506836 13.3972168 23.40185547 C12.50301025 22.89799316 11.60880371 22.39413086 10.6875 21.875 C7.820625 20.26625 4.95375 18.6575 2 17 C2 25.25 2 33.5 2 42 C-2.29 42 -6.58 42 -11 42 C-11 33.75 -11 25.5 -11 17 C-17.82377261 20.94451338 -17.82377261 20.94451338 -24.64208984 24.8984375 C-25.91366943 25.62933594 -25.91366943 25.62933594 -27.2109375 26.375 C-28.51490479 27.12910156 -28.51490479 27.12910156 -29.84521484 27.8984375 C-32 29 -32 29 -34 29 C-34.89434157 27.59546357 -35.76493192 26.17578131 -36.625 24.75 C-37.11226562 23.96109375 -37.59953125 23.1721875 -38.1015625 22.359375 C-39 20 -39 20 -38.39916992 18.06176758 C-36.51428608 15.28426905 -34.45489292 14.25262835 -31.51171875 12.65234375 C-30.41279297 12.04712891 -29.31386719 11.44191406 -28.18164062 10.81835938 C-27.02857422 10.19767578 -25.87550781 9.57699219 -24.6875 8.9375 C-22.42034564 7.69702988 -20.15341055 6.4561589 -17.88671875 5.21484375 C-16.37404419 4.39681274 -16.37404419 4.39681274 -14.83081055 3.56225586 C-11.99800167 2.07465458 -11.99800167 2.07465458 -9.56958008 0.23657227 C-5.97092782 -1.49522571 -3.83400985 -0.94397073 0 0 Z " fill="#FEFCF9" transform="translate(260,78)"></path><path d="M0 0 C14.19 0 28.38 0 43 0 C43 4.29 43 8.58 43 13 C28.81 13 14.62 13 0 13 C0 8.71 0 4.42 0 0 Z " fill="#FDFAF7" transform="translate(234,423)"></path><path d="M0 0 C4.29 0 8.58 0 13 0 C13 8.91 13 17.82 13 27 C8.71 27 4.42 27 0 27 C0 18.09 0 9.18 0 0 Z " fill="#FEFAF5" transform="translate(402,230)"></path><path d="M0 0 C4.29 0 8.58 0 13 0 C13 8.91 13 17.82 13 27 C8.71 27 4.42 27 0 27 C0 18.09 0 9.18 0 0 Z " fill="#FEFCFB" transform="translate(96,230)"></path></svg>