<svg version="1.1" xmlns="http://www.w3.org/2000/svg" width="16px" height="16px" fill="currentColor" viewBox="0 0 512 512"><path d="M0 0 C168.96 0 337.92 0 512 0 C512 168.96 512 337.92 512 512 C343.04 512 174.08 512 0 512 C0 343.04 0 174.08 0 0 Z " fill="#DE2C33" transform="translate(0,0)"></path><path d="M0 0 C4.75644192 4.07695022 9.27622211 8.13531337 13.67475891 12.56123352 C14.30819582 13.19452157 14.94163272 13.82780961 15.59426469 14.48028821 C17.69844635 16.58515973 19.7990402 18.69357443 21.8996582 20.80200195 C23.41444479 22.31870925 24.92946036 23.8351879 26.44468689 25.35145569 C29.69761285 28.60753463 32.94898066 31.86515864 36.19915199 35.1239872 C41.3348689 40.27324625 46.47441569 45.4186711 51.61454773 50.56352234 C62.5168291 61.47689008 73.41487044 72.39448746 84.3125 83.3125 C96.0947097 95.11672185 107.87764154 106.9202174 119.66544026 118.71885842 C124.77936867 123.83778033 129.89084641 128.95913327 135.00048697 134.08233511 C138.17077382 137.260056 141.34310834 140.43572647 144.51601601 143.61083031 C145.99155509 145.08824875 147.4662259 146.56653494 148.93998337 148.04573059 C150.94442842 150.05734174 152.95188966 152.06589288 154.9601593 154.07368469 C155.54876482 154.66588517 156.13737033 155.25808565 156.74381238 155.86823159 C160.59226386 159.7569429 160.59226386 159.7569429 165.625 161.5 C175.38289928 160.05438529 185.24275823 145.88016556 192.02905273 139.06860352 C193.54560908 137.55012593 195.06239479 136.03187739 196.57939148 134.51383972 C199.83284918 131.25723202 203.08474956 127.99908011 206.33544731 124.73971748 C211.47096467 119.59064799 216.61032096 114.44542173 221.7502594 109.30076599 C232.64897343 98.39097201 243.54344 87.476941 254.4375 76.5625 C266.22296213 64.75502471 278.00915092 52.94828018 289.80019909 41.14638275 C294.915241 36.02634442 300.02783179 30.90387458 305.13859069 25.77956116 C308.3066472 22.60407837 311.47674444 19.43063906 314.64741707 16.25776863 C316.12337593 14.77992819 317.59846546 13.30121896 319.07264709 11.82160568 C321.07520702 9.81189608 323.08076628 7.80522975 325.08714294 5.79933167 C325.67797918 5.20490047 326.26881542 4.61046927 326.87755579 3.998025 C330.88590669 0 330.88590669 0 332 0 C332 106.26 332 212.52 332 322 C222.44 322 112.88 322 0 322 C0 215.74 0 109.48 0 0 Z " fill="#DB2931" transform="translate(90,100)"></path><path d="M0 0 C1.23027829 -0.00782324 2.46055658 -0.01564648 3.72811604 -0.02370679 C5.10067181 -0.01722004 6.47322628 -0.01045004 7.84577942 -0.00342751 C9.29816382 -0.0068821 10.7505456 -0.01164532 12.20292187 -0.01760924 C16.20377684 -0.0301763 20.20441818 -0.02392309 24.20527411 -0.01465058 C28.51617248 -0.00788368 32.82703322 -0.01832956 37.13792419 -0.02659035 C45.58682778 -0.03995517 54.03565158 -0.03703774 62.48455834 -0.02835242 C69.34898043 -0.02158707 76.2133801 -0.02065417 83.07780457 -0.02392387 C84.05345908 -0.02438357 85.0291136 -0.02484327 86.03433341 -0.0253169 C88.01613562 -0.02627604 89.99793782 -0.02724868 91.97974002 -0.02823468 C110.57868853 -0.03679662 129.17759272 -0.02694183 147.77653396 -0.01083358 C163.74763602 0.00257033 179.71867268 0.00024247 195.68977356 -0.01358986 C214.2205491 -0.02963148 232.75128578 -0.03597257 251.2820673 -0.02675307 C253.25672467 -0.02579738 255.23138205 -0.02485427 257.20603943 -0.02392387 C258.17769914 -0.02346105 259.14935886 -0.02299822 260.15046281 -0.02252137 C267.00947226 -0.01992722 273.86845713 -0.02431161 280.72746277 -0.03136253 C289.08224794 -0.039762 297.43694853 -0.03753021 305.79172397 -0.0215203 C310.05737513 -0.01361658 314.32288508 -0.01058155 318.58853531 -0.02046776 C322.48936331 -0.02937195 326.38991848 -0.02455304 330.29072154 -0.0085351 C331.70588174 -0.00516905 333.12106474 -0.00692201 334.53621042 -0.01416247 C336.4520727 -0.02321691 338.36799905 -0.01218271 340.28384399 0 C341.35037107 0.00048706 342.41689814 0.00097411 343.51574421 0.00147593 C346.141922 0.37752342 346.141922 0.37752342 347.98445666 1.53498876 C349.63496808 4.16238882 349.51803231 6.14125402 349.51944542 9.23560143 C349.52726866 10.46587972 349.5350919 11.69615801 349.54315221 12.96371746 C349.53666545 14.33627324 349.52989546 15.7088277 349.52287292 17.08138084 C349.52632752 18.53376524 349.53109074 19.98614703 349.53705466 21.43852329 C349.54962172 25.43937827 349.54336851 29.44001961 349.534096 33.44087553 C349.5273291 37.7517739 349.53777498 42.06263464 349.54603577 46.37352562 C349.55940059 54.82242921 349.55648316 63.27125301 349.54779784 71.72015977 C349.54103249 78.58458186 349.54009959 85.44898153 349.54336929 92.31340599 C349.54382899 93.28906051 349.54428869 94.26471503 349.54476232 95.26993483 C349.54572146 97.25173704 349.5466941 99.23353925 349.54768009 101.21534145 C349.55624204 119.81428995 349.54638725 138.41319415 349.530279 157.01213539 C349.51687509 172.98323745 349.51920295 188.9542741 349.53303528 204.92537498 C349.5490769 223.45615053 349.55541799 241.98688721 349.54619849 260.51766872 C349.5452428 262.49232609 349.54429969 264.46698347 349.54336929 266.44164085 C349.54290647 267.41330057 349.54244364 268.38496028 349.54196679 269.38606423 C349.53937264 276.24507368 349.54375703 283.10405855 349.55080795 289.96306419 C349.55920742 298.31784937 349.55697563 306.67254995 349.54096572 315.02732539 C349.533062 319.29297656 349.53002697 323.5584865 349.53991318 327.82413673 C349.54881737 331.72496474 349.54399845 335.6255199 349.52798052 339.52632296 C349.52461447 340.94148316 349.52636743 342.35666616 349.53360789 343.77181184 C349.54266233 345.68767412 349.53162813 347.60360048 349.51944542 349.51944542 C349.51871483 351.11923603 349.51871483 351.11923603 349.51796949 352.75134563 C349.141922 355.37752342 349.141922 355.37752342 347.98445666 357.22005808 C345.3570566 358.8705695 343.3781914 358.75363373 340.28384399 358.75504684 C339.0535657 358.76287009 337.82328741 358.77069333 336.55572796 358.77875364 C335.18317218 358.77226688 333.81061772 358.76549689 332.43806458 358.75847435 C330.98568017 358.76192894 329.53329839 358.76669217 328.08092213 358.77265608 C324.08006715 358.78522315 320.07942581 358.77896994 316.07856989 358.76969743 C311.76767152 358.76293052 307.45681078 358.77337641 303.1459198 358.78163719 C294.69701621 358.79500201 286.24819241 358.79208458 277.79928565 358.78339927 C270.93486356 358.77663392 264.07046389 358.77570102 257.20603943 358.77897072 C256.23038491 358.77943042 255.25473039 358.77989012 254.24951059 358.78036375 C252.26770837 358.78132289 250.28590617 358.78229553 248.30410397 358.78328152 C229.70515547 358.79184347 211.10625127 358.78198868 192.50731003 358.76588042 C176.53620797 358.75247651 160.56517132 358.75480438 144.59407043 358.7686367 C126.06329489 358.78467833 107.53255821 358.79101942 89.0017767 358.78179991 C87.02711932 358.78084423 85.05246195 358.77990112 83.07780457 358.77897072 C82.10614485 358.77850789 81.13448514 358.77804507 80.13338119 358.77756821 C73.27437174 358.77497406 66.41538687 358.77935845 59.55638123 358.78640938 C51.20159605 358.79480885 42.84689547 358.79257706 34.49212003 358.77656715 C30.22646886 358.76866343 25.96095892 358.7656284 21.69530869 358.7755146 C17.79448068 358.78441879 13.89392552 358.77959988 9.99312246 358.76358195 C8.57796226 358.76021589 7.16277926 358.76196885 5.74763358 358.76920931 C3.8317713 358.77826376 1.91584494 358.76722955 0 358.75504684 C-1.06652707 358.75455979 -2.13305414 358.75407273 -3.23190022 358.75357091 C-5.858078 358.37752342 -5.858078 358.37752342 -7.70061266 357.22005808 C-9.35112408 354.59265803 -9.23418831 352.61379283 -9.23560143 349.51944542 C-9.24733629 347.67402798 -9.24733629 347.67402798 -9.25930822 345.79132938 C-9.25282146 344.41877361 -9.24605147 343.04621914 -9.23902893 341.673666 C-9.24248352 340.2212816 -9.24724675 338.76889982 -9.25321066 337.31652355 C-9.26577773 333.31566857 -9.25952452 329.31502724 -9.25025201 325.31417131 C-9.2434851 321.00327294 -9.25393099 316.6924122 -9.26219177 312.38152122 C-9.27555659 303.93261764 -9.27263916 295.48379384 -9.26395385 287.03488708 C-9.2571885 280.17046499 -9.2562556 273.30606532 -9.2595253 266.44164085 C-9.259985 265.46598634 -9.2604447 264.49033182 -9.26091833 263.48511201 C-9.26187747 261.5033098 -9.26285011 259.52150759 -9.2638361 257.5397054 C-9.27239805 238.94075689 -9.26254326 220.3418527 -9.246435 201.74291146 C-9.23303109 185.7718094 -9.23535896 169.80077274 -9.24919128 153.82967186 C-9.26523291 135.29889632 -9.271574 116.76815964 -9.26235449 98.23737812 C-9.26139881 96.26272075 -9.2604557 94.28806337 -9.2595253 92.31340599 C-9.25906247 91.34174628 -9.25859965 90.37008656 -9.25812279 89.36898261 C-9.25552865 82.50997316 -9.25991303 75.65098829 -9.26696396 68.79198265 C-9.27536343 60.43719747 -9.27313164 52.08249689 -9.25712173 43.72772145 C-9.24921801 39.46207029 -9.24618298 35.19656034 -9.25606918 30.93091011 C-9.26497337 27.03008211 -9.26015446 23.12952694 -9.24413653 19.22872388 C-9.24077048 17.81356368 -9.24252343 16.39838068 -9.24976389 14.983235 C-9.25881834 13.06737272 -9.24778413 11.15144637 -9.23560143 9.23560143 C-9.23511437 8.16907435 -9.23462731 7.10254728 -9.23412549 6.00370121 C-8.858078 3.37752342 -8.858078 3.37752342 -7.70061266 1.53498876 C-5.07321261 -0.11552266 -3.09434741 0.00141311 0 0 Z M4.141922 23.37752342 C4.141922 129.63752342 4.141922 235.89752342 4.141922 345.37752342 C113.701922 345.37752342 223.261922 345.37752342 336.141922 345.37752342 C336.141922 239.11752342 336.141922 132.85752342 336.141922 23.37752342 C331.38548008 27.45447364 326.86569988 31.51283679 322.46716309 35.93875694 C321.83372618 36.57204499 321.20028927 37.20533304 320.54765731 37.85781163 C318.44347564 39.96268315 316.34288179 42.07109785 314.24226379 44.17952538 C312.7274772 45.69623268 311.21246164 47.21271132 309.69723511 48.72897911 C306.44430914 51.98505805 303.19294133 55.24268206 299.94277 58.50151062 C294.8070531 63.65076968 289.6675063 68.79619453 284.52737427 73.94104576 C273.6250929 84.8544135 262.72705156 95.77201088 251.829422 106.69002342 C240.0472123 118.49424527 228.26428046 130.29774082 216.47648174 142.09638184 C211.36255333 147.21530376 206.25107558 152.3366567 201.14143503 157.45985854 C197.97114818 160.63757942 194.79881366 163.8132499 191.62590599 166.98835373 C190.1503669 168.46577217 188.6756961 169.94405836 187.20193863 171.42325401 C185.19749358 173.43486516 183.19003234 175.4434163 181.1817627 177.45120811 C180.59315718 178.04340859 180.00455166 178.63560907 179.39810961 179.24575502 C174.51544822 184.11589938 174.51544822 184.11589938 170.516922 184.87752342 C160.75902272 183.43190871 150.89916377 169.25768898 144.11286926 162.44612694 C142.59631291 160.92764936 141.0795272 159.40940082 139.56253052 157.89136314 C136.30907281 154.63475544 133.05717244 151.37660353 129.80647469 148.11724091 C124.67095732 142.96817141 119.53160104 137.82294515 114.3916626 132.67828941 C103.49294856 121.76849543 92.598482 110.85446442 81.704422 99.94002342 C69.91895986 88.13254813 58.13277108 76.32580361 46.34172291 64.52390617 C41.226681 59.40386785 36.1140902 54.281398 31.0033313 49.15708458 C27.83527479 45.9816018 24.66517756 42.80816248 21.49450493 39.63529205 C20.01854607 38.15745161 18.54345653 36.67874238 17.0692749 35.1991291 C15.06671498 33.1894195 13.06115572 31.18275318 11.05477905 29.17685509 C10.46394281 28.58242389 9.87310658 27.98799269 9.26436621 27.37554842 C7.06486616 24.63925124 7.06486616 24.63925124 4.141922 23.37752342 Z " fill="#E5343A" transform="translate(85.85807800292969,76.62247657775879)"></path><path d="M0 0 C1.23027829 -0.00782324 2.46055658 -0.01564648 3.72811604 -0.02370679 C5.10067181 -0.01722004 6.47322628 -0.01045004 7.84577942 -0.00342751 C9.29816382 -0.0068821 10.7505456 -0.01164532 12.20292187 -0.01760924 C16.20377684 -0.0301763 20.20441818 -0.02392309 24.20527411 -0.01465058 C28.51617248 -0.00788368 32.82703322 -0.01832956 37.13792419 -0.02659035 C45.58682778 -0.03995517 54.03565158 -0.03703774 62.48455834 -0.02835242 C69.34898043 -0.02158707 76.2133801 -0.02065417 83.07780457 -0.02392387 C84.05345908 -0.02438357 85.0291136 -0.02484327 86.03433341 -0.0253169 C88.01613562 -0.02627604 89.99793782 -0.02724868 91.97974002 -0.02823468 C110.57868853 -0.03679662 129.17759272 -0.02694183 147.77653396 -0.01083358 C163.74763602 0.00257033 179.71867268 0.00024247 195.68977356 -0.01358986 C214.2205491 -0.02963148 232.75128578 -0.03597257 251.2820673 -0.02675307 C253.25672467 -0.02579738 255.23138205 -0.02485427 257.20603943 -0.02392387 C258.17769914 -0.02346105 259.14935886 -0.02299822 260.15046281 -0.02252137 C267.00947226 -0.01992722 273.86845713 -0.02431161 280.72746277 -0.03136253 C289.08224794 -0.039762 297.43694853 -0.03753021 305.79172397 -0.0215203 C310.05737513 -0.01361658 314.32288508 -0.01058155 318.58853531 -0.02046776 C322.48936331 -0.02937195 326.38991848 -0.02455304 330.29072154 -0.0085351 C331.70588174 -0.00516905 333.12106474 -0.00692201 334.53621042 -0.01416247 C336.4520727 -0.02321691 338.36799905 -0.01218271 340.28384399 0 C341.35037107 0.00048706 342.41689814 0.00097411 343.51574421 0.00147593 C346.141922 0.37752342 346.141922 0.37752342 347.98445666 1.53498876 C349.63496808 4.16238882 349.51803231 6.14125402 349.51944542 9.23560143 C349.52726866 10.46587972 349.5350919 11.69615801 349.54315221 12.96371746 C349.53666545 14.33627324 349.52989546 15.7088277 349.52287292 17.08138084 C349.52632752 18.53376524 349.53109074 19.98614703 349.53705466 21.43852329 C349.54962172 25.43937827 349.54336851 29.44001961 349.534096 33.44087553 C349.5273291 37.7517739 349.53777498 42.06263464 349.54603577 46.37352562 C349.55940059 54.82242921 349.55648316 63.27125301 349.54779784 71.72015977 C349.54103249 78.58458186 349.54009959 85.44898153 349.54336929 92.31340599 C349.54382899 93.28906051 349.54428869 94.26471503 349.54476232 95.26993483 C349.54572146 97.25173704 349.5466941 99.23353925 349.54768009 101.21534145 C349.55624204 119.81428995 349.54638725 138.41319415 349.530279 157.01213539 C349.51687509 172.98323745 349.51920295 188.9542741 349.53303528 204.92537498 C349.5490769 223.45615053 349.55541799 241.98688721 349.54619849 260.51766872 C349.5452428 262.49232609 349.54429969 264.46698347 349.54336929 266.44164085 C349.54290647 267.41330057 349.54244364 268.38496028 349.54196679 269.38606423 C349.53937264 276.24507368 349.54375703 283.10405855 349.55080795 289.96306419 C349.55920742 298.31784937 349.55697563 306.67254995 349.54096572 315.02732539 C349.533062 319.29297656 349.53002697 323.5584865 349.53991318 327.82413673 C349.54881737 331.72496474 349.54399845 335.6255199 349.52798052 339.52632296 C349.52461447 340.94148316 349.52636743 342.35666616 349.53360789 343.77181184 C349.54266233 345.68767412 349.53162813 347.60360048 349.51944542 349.51944542 C349.51871483 351.11923603 349.51871483 351.11923603 349.51796949 352.75134563 C349.141922 355.37752342 349.141922 355.37752342 347.98445666 357.22005808 C345.3570566 358.8705695 343.3781914 358.75363373 340.28384399 358.75504684 C339.0535657 358.76287009 337.82328741 358.77069333 336.55572796 358.77875364 C335.18317218 358.77226688 333.81061772 358.76549689 332.43806458 358.75847435 C330.98568017 358.76192894 329.53329839 358.76669217 328.08092213 358.77265608 C324.08006715 358.78522315 320.07942581 358.77896994 316.07856989 358.76969743 C311.76767152 358.76293052 307.45681078 358.77337641 303.1459198 358.78163719 C294.69701621 358.79500201 286.24819241 358.79208458 277.79928565 358.78339927 C270.93486356 358.77663392 264.07046389 358.77570102 257.20603943 358.77897072 C256.23038491 358.77943042 255.25473039 358.77989012 254.24951059 358.78036375 C252.26770837 358.78132289 250.28590617 358.78229553 248.30410397 358.78328152 C229.70515547 358.79184347 211.10625127 358.78198868 192.50731003 358.76588042 C176.53620797 358.75247651 160.56517132 358.75480438 144.59407043 358.7686367 C126.06329489 358.78467833 107.53255821 358.79101942 89.0017767 358.78179991 C87.02711932 358.78084423 85.05246195 358.77990112 83.07780457 358.77897072 C82.10614485 358.77850789 81.13448514 358.77804507 80.13338119 358.77756821 C73.27437174 358.77497406 66.41538687 358.77935845 59.55638123 358.78640938 C51.20159605 358.79480885 42.84689547 358.79257706 34.49212003 358.77656715 C30.22646886 358.76866343 25.96095892 358.7656284 21.69530869 358.7755146 C17.79448068 358.78441879 13.89392552 358.77959988 9.99312246 358.76358195 C8.57796226 358.76021589 7.16277926 358.76196885 5.74763358 358.76920931 C3.8317713 358.77826376 1.91584494 358.76722955 0 358.75504684 C-1.06652707 358.75455979 -2.13305414 358.75407273 -3.23190022 358.75357091 C-5.858078 358.37752342 -5.858078 358.37752342 -7.70061266 357.22005808 C-9.35112408 354.59265803 -9.23418831 352.61379283 -9.23560143 349.51944542 C-9.24733629 347.67402798 -9.24733629 347.67402798 -9.25930822 345.79132938 C-9.25282146 344.41877361 -9.24605147 343.04621914 -9.23902893 341.673666 C-9.24248352 340.2212816 -9.24724675 338.76889982 -9.25321066 337.31652355 C-9.26577773 333.31566857 -9.25952452 329.31502724 -9.25025201 325.31417131 C-9.2434851 321.00327294 -9.25393099 316.6924122 -9.26219177 312.38152122 C-9.27555659 303.93261764 -9.27263916 295.48379384 -9.26395385 287.03488708 C-9.2571885 280.17046499 -9.2562556 273.30606532 -9.2595253 266.44164085 C-9.259985 265.46598634 -9.2604447 264.49033182 -9.26091833 263.48511201 C-9.26187747 261.5033098 -9.26285011 259.52150759 -9.2638361 257.5397054 C-9.27239805 238.94075689 -9.26254326 220.3418527 -9.246435 201.74291146 C-9.23303109 185.7718094 -9.23535896 169.80077274 -9.24919128 153.82967186 C-9.26523291 135.29889632 -9.271574 116.76815964 -9.26235449 98.23737812 C-9.26139881 96.26272075 -9.2604557 94.28806337 -9.2595253 92.31340599 C-9.25906247 91.34174628 -9.25859965 90.37008656 -9.25812279 89.36898261 C-9.25552865 82.50997316 -9.25991303 75.65098829 -9.26696396 68.79198265 C-9.27536343 60.43719747 -9.27313164 52.08249689 -9.25712173 43.72772145 C-9.24921801 39.46207029 -9.24618298 35.19656034 -9.25606918 30.93091011 C-9.26497337 27.03008211 -9.26015446 23.12952694 -9.24413653 19.22872388 C-9.24077048 17.81356368 -9.24252343 16.39838068 -9.24976389 14.983235 C-9.25881834 13.06737272 -9.24778413 11.15144637 -9.23560143 9.23560143 C-9.23511437 8.16907435 -9.23462731 7.10254728 -9.23412549 6.00370121 C-8.858078 3.37752342 -8.858078 3.37752342 -7.70061266 1.53498876 C-5.07321261 -0.11552266 -3.09434741 0.00141311 0 0 Z M14.141922 13.37752342 C18.16353408 18.06940418 22.15699586 22.53545452 26.52006531 26.87592125 C27.13364116 27.49035152 27.74721701 28.1047818 28.37938607 28.73783118 C30.41749721 30.77757763 32.4591399 32.81375059 34.50080872 34.84993553 C35.96987026 36.31871476 37.43871115 37.7877147 38.90734863 39.25691795 C42.88190356 43.23175911 46.8595283 47.20351529 50.83772039 51.17471576 C54.99951817 55.33025097 59.15847339 59.48862912 63.31773376 63.64670372 C71.18849928 71.51436448 79.06180987 79.3794732 86.9360429 87.24366337 C95.90292248 96.19935525 104.86695366 105.15789585 113.83074927 114.1166743 C132.26464402 132.54012403 150.70210461 150.96000174 169.141922 169.37752342 C173.41364237 167.72307486 176.2724741 164.52204776 179.43141174 161.33527184 C180.37371356 160.39659164 180.37371356 160.39659164 181.33505177 159.43894821 C183.44180292 157.33783929 185.54132103 155.22964878 187.64094543 153.12141991 C189.14848325 151.61495482 190.65645386 150.10892274 192.16482544 148.60329247 C196.26202825 144.51094164 200.35294636 140.4123605 204.44264889 136.31251597 C208.71683312 132.02956054 212.99627604 127.75186556 217.27503967 123.47348595 C224.45755167 116.29003712 231.63617754 109.10272328 238.81233215 101.91292381 C247.12171833 93.58779699 255.43633479 85.26792357 263.75396132 76.95103019 C271.74302211 68.96257862 279.72922717 60.97127888 287.71382904 52.97837067 C291.11816746 49.57049205 294.5233626 46.16347282 297.92920685 42.75709915 C301.93372782 38.75157752 305.93570243 34.74352911 309.93567467 30.73346519 C311.40868346 29.25752285 312.8825526 27.7824386 314.35731697 26.30825043 C316.36065576 24.30539841 318.36091688 22.29952451 320.36036682 20.29279137 C320.95295343 19.70175336 321.54554004 19.11071535 322.15608382 18.5017671 C324.8846534 16.2997057 324.8846534 16.2997057 326.141922 13.37752342 C223.181922 13.37752342 120.221922 13.37752342 14.141922 13.37752342 Z M4.141922 23.37752342 C4.141922 129.63752342 4.141922 235.89752342 4.141922 345.37752342 C113.701922 345.37752342 223.261922 345.37752342 336.141922 345.37752342 C336.141922 239.11752342 336.141922 132.85752342 336.141922 23.37752342 C331.38548008 27.45447364 326.86569988 31.51283679 322.46716309 35.93875694 C321.83372618 36.57204499 321.20028927 37.20533304 320.54765731 37.85781163 C318.44347564 39.96268315 316.34288179 42.07109785 314.24226379 44.17952538 C312.7274772 45.69623268 311.21246164 47.21271132 309.69723511 48.72897911 C306.44430914 51.98505805 303.19294133 55.24268206 299.94277 58.50151062 C294.8070531 63.65076968 289.6675063 68.79619453 284.52737427 73.94104576 C273.6250929 84.8544135 262.72705156 95.77201088 251.829422 106.69002342 C240.0472123 118.49424527 228.26428046 130.29774082 216.47648174 142.09638184 C211.36255333 147.21530376 206.25107558 152.3366567 201.14143503 157.45985854 C197.97114818 160.63757942 194.79881366 163.8132499 191.62590599 166.98835373 C190.1503669 168.46577217 188.6756961 169.94405836 187.20193863 171.42325401 C185.19749358 173.43486516 183.19003234 175.4434163 181.1817627 177.45120811 C180.59315718 178.04340859 180.00455166 178.63560907 179.39810961 179.24575502 C174.51544822 184.11589938 174.51544822 184.11589938 170.516922 184.87752342 C160.75902272 183.43190871 150.89916377 169.25768898 144.11286926 162.44612694 C142.59631291 160.92764936 141.0795272 159.40940082 139.56253052 157.89136314 C136.30907281 154.63475544 133.05717244 151.37660353 129.80647469 148.11724091 C124.67095732 142.96817141 119.53160104 137.82294515 114.3916626 132.67828941 C103.49294856 121.76849543 92.598482 110.85446442 81.704422 99.94002342 C69.91895986 88.13254813 58.13277108 76.32580361 46.34172291 64.52390617 C41.226681 59.40386785 36.1140902 54.281398 31.0033313 49.15708458 C27.83527479 45.9816018 24.66517756 42.80816248 21.49450493 39.63529205 C20.01854607 38.15745161 18.54345653 36.67874238 17.0692749 35.1991291 C15.06671498 33.1894195 13.06115572 31.18275318 11.05477905 29.17685509 C10.46394281 28.58242389 9.87310658 27.98799269 9.26436621 27.37554842 C7.06486616 24.63925124 7.06486616 24.63925124 4.141922 23.37752342 Z " fill="#FDF7F8" transform="translate(85.85807800292969,76.62247657775879)"></path></svg>