<svg version="1.1" xmlns="http://www.w3.org/2000/svg" width="16px" height="16px" fill="currentColor" viewBox="0 0 512 512"><path d="M0 0 C168.96 0 337.92 0 512 0 C512 168.96 512 337.92 512 512 C343.04 512 174.08 512 0 512 C0 343.04 0 174.08 0 0 Z " fill="#2E8F7A" transform="translate(0,0)"></path><path d="M0 0 C2.82641602 1.18652344 2.82641602 1.18652344 5.75390625 2.859375 C7.39045166 3.78206177 7.39045166 3.78206177 9.06005859 4.72338867 C10.22769747 5.39865194 11.3951742 6.07419567 12.5625 6.75 C13.77621622 7.44033409 14.99057985 8.12953111 16.20556641 8.81762695 C18.6561413 10.20846906 21.10227959 11.60663171 23.54443359 13.01220703 C26.59346923 14.76614572 29.64824951 16.50923055 32.70703125 18.24609375 C36.97123719 20.67058921 41.2274241 23.10872194 45.48046875 25.55273438 C49.77547586 28.01986637 54.07514419 30.47883151 58.375 32.9375 C59.22642578 33.42508789 60.07785156 33.91267578 60.95507812 34.41503906 C65.68721839 37.12139793 70.43052257 39.80626263 75.1875 42.46875 C76.21955566 43.04761963 77.25161133 43.62648926 78.31494141 44.22290039 C80.29963972 45.3349585 82.28618791 46.44372403 84.27490234 47.54858398 C85.18191895 48.05719971 86.08893555 48.56581543 87.0234375 49.08984375 C87.81669434 49.53191162 88.60995117 49.97397949 89.42724609 50.42944336 C90.27625488 50.94772705 91.12526367 51.46601074 92 52 C92.57734705 52.28253191 93.1546941 52.56506382 93.74953651 52.8561573 C96.78094038 54.56921565 98.67033386 55.85789738 99.6613369 59.29115009 C99.92834281 62.25312129 99.96851944 65.14680734 99.9375 68.12084961 C99.96071823 69.80460945 99.96071823 69.80460945 99.98440552 71.52238464 C100.02541172 75.23308169 100.01474674 78.94147844 100 82.65234375 C100.00979412 85.23157976 100.02137483 87.81080956 100.03466797 90.39002991 C100.05401812 95.79638059 100.04756402 101.20185059 100.02246094 106.6081543 C99.99405984 112.84999455 100.02396179 119.08960937 100.08308029 125.33118433 C100.13788795 131.34517866 100.1422855 137.35803728 100.12646484 143.37231636 C100.12549102 145.92681688 100.13843373 148.4813619 100.16552734 151.03571892 C100.19782917 154.60872936 100.17272208 158.17692052 100.1328125 161.74975586 C100.15417267 162.80501465 100.17553284 163.86027344 100.19754028 164.94750977 C100.03591383 171.96986437 100.03591383 171.96986437 97.02404881 174.96492958 C94.74034557 176.50788026 92.47190221 177.78692191 90 179 C89.03118896 179.57556641 88.06237793 180.15113281 87.06420898 180.74414062 C85.79299194 181.44313477 85.79299194 181.44313477 84.49609375 182.15625 C83.52067627 182.69652832 82.54525879 183.23680664 81.5402832 183.79345703 C80.51636475 184.35661621 79.49244629 184.91977539 78.4375 185.5 C69.83221527 190.2714363 61.29187436 195.13333424 52.8125 200.125 C44.28696859 205.13629121 35.6840674 209.96683168 26.97192383 214.64599609 C22.46354336 217.07582951 18.008411 219.56136957 13.61328125 222.19140625 C12.7519458 222.70485596 11.89061035 223.21830566 11.00317383 223.74731445 C9.38278633 224.72005268 7.76882631 225.70361335 6.1628418 226.69995117 C-1.06176989 231.03214572 -1.06176989 231.03214572 -6 230 C-9.62433244 228.3425549 -13.01478812 226.34862937 -16.4375 224.3125 C-18.51542035 223.10641818 -20.59355103 221.90069867 -22.671875 220.6953125 C-23.72826172 220.07688477 -24.78464844 219.45845703 -25.87304688 218.82128906 C-30.61585599 216.05884715 -35.40240789 213.37577761 -40.1875 210.6875 C-49.9926475 205.15303145 -59.769166 199.56884111 -69.53930664 193.97290039 C-75.28778794 190.68201253 -81.04410384 187.40617092 -86.8203125 184.1640625 C-87.88507813 183.5659375 -88.94984375 182.9678125 -90.046875 182.3515625 C-92.05306239 181.2262645 -94.0608033 180.10373026 -96.0703125 178.984375 C-96.9571875 178.48679687 -97.8440625 177.98921875 -98.7578125 177.4765625 C-99.92014404 176.8280835 -99.92014404 176.8280835 -101.10595703 176.16650391 C-103 175 -103 175 -105 173 C-105.27123547 170.95904922 -105.27123547 170.95904922 -105.30107117 168.39605713 C-105.31682693 167.42593689 -105.3325827 166.45581665 -105.34881592 165.45629883 C-105.35576477 164.38822998 -105.36271362 163.32016113 -105.36987305 162.21972656 C-105.38462173 161.09765808 -105.39937042 159.9755896 -105.41456604 158.81951904 C-105.45921718 155.09323049 -105.48734609 151.36709896 -105.51171875 147.640625 C-105.52111795 146.37017082 -105.53051716 145.09971664 -105.54020119 143.79076385 C-105.57801283 138.45154012 -105.61191223 133.11236782 -105.63057232 127.77304459 C-105.65736897 120.12421459 -105.71487915 112.47707813 -105.81633729 104.82886147 C-105.89356546 98.80066232 -105.92133039 92.77322639 -105.93177223 86.74449921 C-105.94337476 84.18154272 -105.97027688 81.61860848 -106.01270103 79.05597687 C-106.06856831 75.46864292 -106.06785079 71.8854968 -106.0534668 68.29785156 C-106.09728989 66.70789368 -106.09728989 66.70789368 -106.14199829 65.08581543 C-106.03231008 58.03262104 -106.03231008 58.03262104 -103.03706932 55.03647804 C-100.74933999 53.48987635 -98.47764155 52.21361838 -96 51 C-94.95489258 50.38366699 -93.90978516 49.76733398 -92.83300781 49.13232422 C-91.88264648 48.6117041 -90.93228516 48.09108398 -89.953125 47.5546875 C-88.87232666 46.95922119 -87.79152832 46.36375488 -86.67797852 45.75024414 C-85.54674561 45.13141357 -84.4155127 44.51258301 -83.25 43.875 C-80.82561871 42.53993924 -78.40301454 41.20166909 -75.98046875 39.86328125 C-75.38012314 39.53200729 -74.77977753 39.20073334 -74.16123962 38.85942078 C-68.93526848 35.9726645 -63.74133425 33.0328117 -58.5625 30.0625 C-57.74354248 29.59279785 -56.92458496 29.1230957 -56.08081055 28.63916016 C-54.35054108 27.64603221 -52.62048637 26.65253003 -50.890625 25.65869141 C-45.72804863 22.69631439 -40.55861176 19.74593037 -35.3901062 16.79391479 C-32.51114198 15.14947227 -29.63253906 13.50439758 -26.75390625 11.859375 C-25.65320801 11.23482422 -24.55250977 10.61027344 -23.41845703 9.96679688 C-21.00973953 8.58094998 -18.62538953 7.17586434 -16.24951172 5.73632812 C-15.62721176 5.3652594 -15.0049118 4.99419067 -14.36375427 4.61187744 C-12.62790821 3.57565735 -10.89952189 2.52697044 -9.17163086 1.47753906 C-5.68031468 -0.14892892 -3.79724975 -0.5125816 0 0 Z " fill="#FCFDFD" transform="translate(259,141)"></path><path d="M0 0 C0 31.02 0 62.04 0 94 C-8.25 98.62 -16.5 103.24 -25 108 C-29.67169617 110.65868888 -34.34006772 113.32105054 -39 116 C-46.04370841 120.04068103 -53.09396684 124.0668197 -60.1875 128.01953125 C-61.90646484 128.97762695 -61.90646484 128.97762695 -63.66015625 129.95507812 C-65.83311375 131.16354747 -68.00751967 132.36941731 -70.18359375 133.57226562 C-71.15425781 134.11173828 -72.12492187 134.65121094 -73.125 135.20703125 C-73.97320312 135.6760083 -74.82140625 136.14498535 -75.6953125 136.62817383 C-78.03917437 137.96198452 -78.03917437 137.96198452 -80.1796875 139.67456055 C-82 141 -82 141 -84 141 C-84.30158365 128.88278643 -84.53237741 116.76646896 -84.67355824 104.64626312 C-84.74133116 99.0177074 -84.83319155 93.3917236 -84.98071289 87.76464844 C-85.12227008 82.33088576 -85.1997511 76.89959106 -85.23340416 71.46412659 C-85.25737428 69.39377471 -85.30419042 67.32355402 -85.37449074 65.2542572 C-85.88884244 49.48286626 -85.88884244 49.48286626 -82.76571274 45.37754059 C-79.28470075 42.29507815 -75.30384126 40.70151196 -71 39 C-68.83887692 37.8139009 -66.69060352 36.60374612 -64.5625 35.359375 C-62.37645632 34.15360592 -60.18891704 32.95054497 -58 31.75 C-55.62128357 30.43820724 -53.24410662 29.12363984 -50.8671875 27.80859375 C-49.98738724 27.32219673 -49.98738724 27.32219673 -49.08981323 26.82597351 C-43.74255121 23.86595709 -38.42764418 20.85155484 -33.125 17.8125 C-32.29637451 17.338125 -31.46774902 16.86375 -30.61401367 16.375 C-26.10518578 13.79022627 -21.6038383 11.19277096 -17.10546875 8.58984375 C-16.13657715 8.03127686 -15.16768555 7.47270996 -14.16943359 6.8972168 C-12.30173062 5.82035883 -10.43607649 4.73993745 -8.57275391 3.65551758 C-7.74050293 3.17622803 -6.90825195 2.69693848 -6.05078125 2.203125 C-5.31512939 1.77676758 -4.57947754 1.35041016 -3.8215332 0.91113281 C-2 0 -2 0 0 0 Z " fill="#31927D" transform="translate(346,213)"></path><path d="M0 0 C4.2904122 1.4301374 7.16412963 2.50035485 10.88671875 4.73046875 C11.81121826 5.27848145 12.73571777 5.82649414 13.68823242 6.39111328 C14.67799072 6.9839209 15.66774902 7.57672852 16.6875 8.1875 C25.61596531 13.46850737 34.6061731 18.61139132 43.6875 23.625 C52.08773778 28.2689164 60.47363432 32.93407252 68.8125 37.6875 C69.65965576 38.16848145 70.50681152 38.64946289 71.37963867 39.14501953 C72.16830322 39.59603027 72.95696777 40.04704102 73.76953125 40.51171875 C74.44604736 40.89803467 75.12256348 41.28435059 75.81958008 41.68237305 C76.53911865 42.11718994 77.25865723 42.55200684 78 43 C79.02092239 43.49983902 80.04184479 43.99967804 81.09370422 44.5146637 C84.42336063 47.36203939 84.42336063 47.36203939 84.7215271 51.04962158 C84.73890233 52.727381 84.723002 54.40568042 84.68115234 56.08300781 C84.68246658 57.45913742 84.68246658 57.45913742 84.68380737 58.86306763 C84.6796288 61.89395447 84.63296376 64.92262511 84.5859375 67.953125 C84.57474633 70.054899 84.56620577 72.15668865 84.56021118 74.25848389 C84.53730685 79.78925829 84.47836886 85.31908661 84.4119873 90.8494873 C84.35059991 96.493278 84.32320368 102.13722165 84.29296875 107.78125 C84.22862794 118.85458225 84.12622829 129.92721244 84 141 C80.73282634 139.7167325 77.69689721 138.35803306 74.65625 136.6015625 C73.83334473 136.12855713 73.01043945 135.65555176 72.16259766 135.16821289 C71.28394043 134.65895264 70.4052832 134.14969238 69.5 133.625 C67.6015999 132.53248709 65.70316135 131.44004099 63.8046875 130.34765625 C62.83756836 129.78965332 61.87044922 129.23165039 60.87402344 128.65673828 C56.46386849 126.114493 52.04488154 123.58778596 47.625 121.0625 C46.770271 120.57378418 45.91554199 120.08506836 45.03491211 119.58154297 C37.4841181 115.26780687 29.91526978 110.9862658 22.34033203 106.71508789 C14.87697749 102.50479871 7.44043411 98.25167663 0 94 C0 62.98 0 31.96 0 0 Z " fill="#298975" transform="translate(166,213)"></path><path d="M0 0 C3.62071888 0.46695163 6.38424496 1.5439349 9.5625 3.30078125 C10.4302002 3.77676758 11.29790039 4.25275391 12.19189453 4.74316406 C13.11856934 5.26104492 14.04524414 5.77892578 15 6.3125 C15.97694824 6.85229492 16.95389648 7.39208984 17.96044922 7.94824219 C27.02475985 12.97310242 36.02394912 18.11117521 45.00683594 23.27978516 C50.29621547 26.31966837 55.59293893 29.34670642 60.8895874 32.37390137 C62.7003542 33.40911748 64.51061621 34.44521154 66.32080078 35.48144531 C72.52460427 39.02926484 78.74019876 42.55182164 85 46 C80.1690446 50.29881993 74.57155098 53.15593288 68.9375 56.25 C66.67775721 57.50277377 64.41866674 58.75672475 62.16015625 60.01171875 C61.57536499 60.3362352 60.99057373 60.66075165 60.38806152 60.99510193 C54.44295846 64.29875349 48.53777359 67.67083915 42.63729858 71.05337524 C40.87775221 72.06092403 39.11651015 73.06544369 37.35473633 74.0690918 C31.65498907 77.31855187 25.97505396 80.59687457 20.328125 83.9375 C19.28027832 84.54972412 18.23243164 85.16194824 17.15283203 85.79272461 C15.18750283 86.94146444 13.22960156 88.10304397 11.28076172 89.27954102 C10.40693848 89.78670654 9.53311523 90.29387207 8.6328125 90.81640625 C7.50190186 91.48845093 7.50190186 91.48845093 6.34814453 92.17407227 C2.33997984 93.58388939 -0.79266623 92.5754136 -4.53515625 90.79174805 C-5.36917969 90.28683838 -6.20320313 89.78192871 -7.0625 89.26171875 C-8.01278076 88.69501465 -8.96306152 88.12831055 -9.94213867 87.54443359 C-10.95123291 86.93164551 -11.96032715 86.31885742 -13 85.6875 C-15.16121683 84.39974962 -17.32401191 83.11464476 -19.48828125 81.83203125 C-21.12337646 80.86257568 -21.12337646 80.86257568 -22.79150391 79.87353516 C-27.53496189 77.10369064 -32.35197023 74.47978636 -37.1875 71.875 C-44.59120588 67.87568867 -51.94511836 63.80238743 -59.25 59.625 C-60.08297607 59.1491748 -60.91595215 58.67334961 -61.77416992 58.18310547 C-63.37266474 57.26568609 -64.96822183 56.34312578 -66.56054688 55.41503906 C-68.30808105 54.40135731 -70.06587043 53.4052752 -71.83007812 52.42089844 C-72.74724609 51.89786133 -73.66441406 51.37482422 -74.609375 50.8359375 C-75.44952148 50.36462402 -76.28966797 49.89331055 -77.15527344 49.40771484 C-77.7640332 48.94316895 -78.37279297 48.47862305 -79 48 C-79 47.01 -79 46.02 -79 45 C-78.38930664 44.6596875 -77.77861328 44.319375 -77.14941406 43.96875 C-64.14326266 36.71578311 -51.17301317 29.40609004 -38.25411987 21.99899292 C-28.39261468 16.34600065 -18.48976324 10.77120163 -8.55273438 5.25195312 C-7.57240234 4.70603516 -6.59207031 4.16011719 -5.58203125 3.59765625 C-4.71811768 3.11820557 -3.8542041 2.63875488 -2.96411133 2.14477539 C-1.0642823 1.14923051 -1.0642823 1.14923051 0 0 Z " fill="#32947F" transform="translate(254,155)"></path><path d="M0 0 C4.29 0 8.58 0 13 0 C13 46.2 13 92.4 13 140 C59.2 140 105.4 140 153 140 C153 144.29 153 148.58 153 153 C133.49427817 153.09252547 113.98861814 153.16394221 94.48272228 153.20724869 C85.42614976 153.22788952 76.36971593 153.25603905 67.31323242 153.30175781 C59.42122362 153.34157917 51.52931524 153.36742174 43.63720876 153.37635398 C39.45687227 153.38157675 35.27682314 153.39388334 31.0965786 153.42292023 C27.16412493 153.4500153 23.23207772 153.45845713 19.29953957 153.45243073 C17.85431334 153.45353363 16.4090739 153.46152299 14.96392822 153.4768219 C12.99449937 153.49665314 11.02485375 153.48957063 9.05534363 153.48101807 C7.95195743 153.48470524 6.84857122 153.48839241 5.71174908 153.49219131 C3 153 3 153 1.14408875 151.35353851 C-0.31268988 148.35675647 -0.3691796 146.19512327 -0.36076355 142.86236572 C-0.36488754 141.60315811 -0.36901154 140.3439505 -0.3732605 139.04658508 C-0.36264375 137.65377593 -0.35173933 136.26096894 -0.34057617 134.86816406 C-0.33972984 133.3996126 -0.34020517 131.93105988 -0.34190369 130.46250916 C-0.34276481 126.47722476 -0.32512015 122.49221096 -0.30418181 118.50698948 C-0.28543456 114.34164869 -0.28366612 110.17630177 -0.28010559 106.01092529 C-0.27077938 98.12386272 -0.24615782 90.23692483 -0.21605712 82.34991717 C-0.18253103 73.37056907 -0.16603161 64.39121504 -0.15097082 55.41181993 C-0.11960875 36.94114063 -0.06623314 18.47058491 0 0 Z " fill="#F8FAFA" transform="translate(77,282)"></path><path d="M0 0 C3.96 0 7.92 0 12 0 C12.06939416 19.5057382 12.12295676 39.01144163 12.15543652 58.51727772 C12.17091708 67.57381704 12.19202926 76.63027833 12.22631836 85.68676758 C12.25618438 93.57877598 12.27556634 101.4707279 12.28226548 109.36279124 C12.28618251 113.54307241 12.29541259 117.72319195 12.31719017 121.9034214 C12.33751123 125.83582812 12.34384275 129.76800619 12.33932304 133.70046043 C12.34015022 135.14567684 12.34614204 136.59090068 12.35761642 138.03607178 C12.37249018 140.00554409 12.367178 141.97513834 12.36076355 143.94465637 C12.36352893 145.04804257 12.36629431 146.15142878 12.36914349 147.28825092 C12 150 12 150 10.85591125 151.85591125 C8.16925784 153.51211649 6.09033458 153.36864746 2.94465637 153.36076355 C1.04528572 153.36694954 1.04528572 153.36694954 -0.89245605 153.3732605 C-2.29834197 153.36264303 -3.70422573 153.3517386 -5.11010742 153.34057617 C-6.58836347 153.33973009 -8.06662078 153.34020468 -9.5448761 153.34190369 C-13.56120934 153.3427658 -17.57727477 153.32510523 -21.59354568 153.30418181 C-25.78958901 153.28545094 -29.98563822 153.28366741 -34.18171692 153.28010559 C-42.1290194 153.27077455 -50.07619834 153.24614648 -58.02344638 153.21605712 C-67.0704848 153.18254602 -76.11752907 153.16603539 -85.16461408 153.15097082 C-103.77648141 153.11959782 -122.38822626 153.06621377 -141 153 C-141 148.71 -141 144.42 -141 140 C-94.47 140 -47.94 140 0 140 C0 93.8 0 47.6 0 0 Z " fill="#FBFDFC" transform="translate(423,282)"></path><path d="M0 0 C1.89937065 -0.00618599 1.89937065 -0.00618599 3.83711243 -0.01249695 C5.24299834 -0.00187948 6.6488821 0.00902495 8.05476379 0.02018738 C9.53301984 0.02103346 11.01127716 0.02055887 12.48953247 0.01885986 C16.50586571 0.01799775 20.52193115 0.03565832 24.53820205 0.05658174 C28.73424539 0.07531261 32.9302946 0.07709614 37.12637329 0.08065796 C45.07367577 0.089989 53.02085472 0.11461707 60.96810275 0.14470643 C70.01514117 0.17821753 79.06218544 0.19472816 88.10927045 0.20979273 C106.72113779 0.24116573 125.33288263 0.29454978 143.94465637 0.36076355 C143.94465637 4.32076355 143.94465637 8.28076355 143.94465637 12.36076355 C97.74465637 12.36076355 51.54465637 12.36076355 3.94465637 12.36076355 C3.94465637 58.89076355 3.94465637 105.42076355 3.94465637 153.36076355 C-0.34534363 153.36076355 -4.63534363 153.36076355 -9.05534363 153.36076355 C-9.12473779 133.85502535 -9.17830039 114.34932192 -9.21078014 94.84348583 C-9.22626071 85.78694651 -9.24737289 76.73048522 -9.28166199 67.67399597 C-9.311528 59.78198757 -9.33090997 51.89003565 -9.33760911 43.99797231 C-9.34152614 39.81769114 -9.35075621 35.6375716 -9.3725338 31.45734215 C-9.39285486 27.52493543 -9.39918638 23.59275735 -9.39466667 19.66030312 C-9.39549385 18.21508671 -9.40148567 16.76986287 -9.41296005 15.32469177 C-9.42783381 13.35521946 -9.42252163 11.38562521 -9.41610718 9.41610718 C-9.41887256 8.31272098 -9.42163794 7.20933477 -9.42448711 6.07251263 C-9.05534363 3.36076355 -9.05534363 3.36076355 -7.91125488 1.50485229 C-5.22460147 -0.15135294 -3.14567821 -0.00788391 0 0 Z " fill="#FBFDFC" transform="translate(86.05534362792969,76.63923645019531)"></path><path d="M0 0 C19.5057382 -0.06939416 39.01144163 -0.12295676 58.51727772 -0.15543652 C67.57381704 -0.17091708 76.63027833 -0.19202926 85.68676758 -0.22631836 C93.57877598 -0.25618438 101.4707279 -0.27556634 109.36279124 -0.28226548 C113.54307241 -0.28618251 117.72319195 -0.29541259 121.9034214 -0.31719017 C125.83582812 -0.33751123 129.76800619 -0.34384275 133.70046043 -0.33932304 C135.14567684 -0.34015022 136.59090068 -0.34614204 138.03607178 -0.35761642 C140.00554409 -0.37249018 141.97513834 -0.367178 143.94465637 -0.36076355 C145.04804257 -0.36352893 146.15142878 -0.36629431 147.28825092 -0.36914349 C150 0 150 0 151.85591125 1.14408875 C153.51211649 3.83074216 153.36864746 5.90966542 153.36076355 9.05534363 C153.36694954 10.95471428 153.36694954 10.95471428 153.3732605 12.89245605 C153.36264303 14.29834197 153.3517386 15.70422573 153.34057617 17.11010742 C153.33973009 18.58836347 153.34020468 20.06662078 153.34190369 21.5448761 C153.3427658 25.56120934 153.32510523 29.57727477 153.30418181 33.59354568 C153.28545094 37.78958901 153.28366741 41.98563822 153.28010559 46.18171692 C153.27077455 54.1290194 153.24614648 62.07619834 153.21605712 70.02344638 C153.18254602 79.0704848 153.16603539 88.11752907 153.15097082 97.16461408 C153.11959782 115.77648141 153.06621377 134.38822626 153 153 C149.04 153 145.08 153 141 153 C140.67 106.8 140.34 60.6 140 13 C93.8 12.67 47.6 12.34 0 12 C0 8.04 0 4.08 0 0 Z " fill="#FEFEFE" transform="translate(282,77)"></path><path d="M0 0 C18.81 0 37.62 0 57 0 C57 3.96 57 7.92 57 12 C38.19 12 19.38 12 0 12 C0 8.04 0 4.08 0 0 Z " fill="#FFFFFF" transform="translate(378,250)"></path><path d="M0 0 C18.81 0 37.62 0 57 0 C57 3.96 57 7.92 57 12 C38.19 12 19.38 12 0 12 C0 8.04 0 4.08 0 0 Z " fill="#FFFFFF" transform="translate(77,250)"></path><path d="M0 0 C3.96 0 7.92 0 12 0 C12 14.85 12 29.7 12 45 C8.04 45 4.08 45 0 45 C0 30.15 0 15.3 0 0 Z " fill="#FDFDFD" transform="translate(250,390)"></path><path d="M0 0 C3.96 0 7.92 0 12 0 C12 14.19 12 28.38 12 43 C8.04 43 4.08 43 0 43 C0 28.81 0 14.62 0 0 Z " fill="#FFFFFF" transform="translate(250,78)"></path></svg>