<svg version="1.1" xmlns="http://www.w3.org/2000/svg" width="16px" height="16px" fill="currentColor" viewBox="0 0 512 512"><path d="M0 0 C168.96 0 337.92 0 512 0 C512 168.96 512 337.92 512 512 C343.04 512 174.08 512 0 512 C0 343.04 0 174.08 0 0 Z " fill="#DE2D34" transform="translate(0,0)"></path><path d="M0 0 C1.10479706 -0.01921509 2.20959412 -0.03843018 3.34786987 -0.05822754 C5.13851364 -0.07097717 5.13851364 -0.07097717 6.96533203 -0.08398438 C8.80564499 -0.10108459 8.80564499 -0.10108459 10.68313599 -0.11853027 C13.28058417 -0.13743506 15.87808038 -0.15050016 18.47558594 -0.15820312 C22.45088217 -0.17762561 26.42411478 -0.2396656 30.39892578 -0.30273438 C32.9210489 -0.31579355 35.44318683 -0.32629484 37.96533203 -0.33398438 C39.15504608 -0.35867798 40.34476013 -0.38337158 41.57052612 -0.40881348 C49.75885871 -0.3645799 49.75885871 -0.3645799 53.56201172 2.74780273 C54.60702515 4.40316772 54.60702515 4.40316772 55.59814453 6.32226562 C56.00279938 7.03476471 56.40745422 7.74726379 56.82437134 8.48135376 C58.21740479 11.01507958 59.5182529 13.58269238 60.80908203 16.16992188 C61.29369904 17.12535385 61.77831604 18.08078583 62.27761841 19.06517029 C63.84980385 22.16821245 65.41137493 25.27647018 66.97314453 28.38476562 C68.0666686 30.54666777 69.16107544 32.70812361 70.25634766 34.86914062 C72.41285221 39.1245387 74.56651261 43.38135578 76.71826172 47.63916016 C80.13419034 54.3900824 83.605447 61.11077774 87.09814453 67.82226562 C93.59388238 80.33426519 100.00451178 92.88919991 106.41064453 105.44726562 C113.53649177 119.41593833 120.6699841 133.38039242 127.84814453 147.32226562 C128.20592987 148.0172113 128.56371521 148.71215698 128.93234253 149.42816162 C129.28990631 150.12266418 129.64747009 150.81716675 130.01586914 151.53271484 C130.7386137 152.93651987 131.46135132 154.34032847 132.18408203 155.74414062 C132.72014824 156.78533554 132.72014824 156.78533554 133.26704407 157.8475647 C137.67836848 166.4176975 142.07562889 174.9950416 146.47314453 183.57226562 C147.30948523 185.20328966 148.14582963 186.8343118 148.98217773 188.46533203 C152.83524355 195.97996748 156.68711815 203.49521095 160.53656006 211.01170349 C161.8450051 213.56632208 163.15391628 216.12070142 164.46289062 218.67504883 C166.15908105 221.98513893 167.85319048 225.29628214 169.54589844 228.6081543 C173.22776268 235.80481205 176.93091906 242.98639033 180.74267578 250.11523438 C181.35892822 251.2742627 181.97518066 252.43329102 182.61010742 253.62744141 C183.72742166 255.7214443 184.85471898 257.81016738 185.99438477 259.89208984 C190.6444209 268.62109142 190.6444209 268.62109142 189.59814453 273.32226562 C187.53909305 275.90525755 186.33981803 277.1717116 183.0627594 277.83692932 C182.10965378 277.8431279 181.15654816 277.84932648 180.17456055 277.85571289 C179.08985977 277.87154922 178.005159 277.88738556 176.8875885 277.90370178 C175.13749733 277.89626198 175.13749733 277.89626198 173.35205078 277.88867188 C172.14878647 277.89487045 170.94552216 277.90106903 169.70579529 277.90745544 C167.16137502 277.91455882 164.61690831 277.91137071 162.07250977 277.89868164 C158.17849146 277.88482911 154.28688122 277.91886866 150.39306641 277.95703125 C147.92106061 277.95798254 145.4490518 277.95612309 142.97705078 277.95117188 C141.81234756 277.96443008 140.64764435 277.97768829 139.44764709 277.99134827 C131.42692953 277.89894189 131.42692953 277.89894189 127.55712891 275.20629883 C125.43243556 272.07830748 123.54834026 268.93361004 121.87548828 265.54882812 C121.5378093 264.88585724 121.20013031 264.22288635 120.85221863 263.53982544 C119.73768738 261.34674055 118.63684591 259.14706968 117.53564453 256.94726562 C116.742877 255.38197249 115.94907207 253.81720439 115.15429688 252.25292969 C113.47981298 248.95492336 111.81007682 245.6545753 110.14355469 242.35253906 C106.45323533 235.04881508 102.70843781 227.77309569 98.96780396 220.49505615 C96.86528662 216.40240318 94.76703488 212.30756462 92.66845703 208.21289062 C91.82244714 206.56249039 90.9764185 204.91209976 90.13037109 203.26171875 C89.71194946 202.44550049 89.29352783 201.62928223 88.86242676 200.78833008 C86.77205841 196.71093108 84.6812213 192.63377251 82.59033203 188.55664062 C82.17823486 187.75307129 81.7661377 186.94950195 81.34155273 186.12158203 C80.09375993 183.68847147 78.84595472 181.25536727 77.59814453 178.82226562 C72.99716163 169.85082172 68.39619926 160.87936758 63.79681396 151.90710449 C55.03931069 134.8234232 46.27545952 117.74307 37.49209595 100.67266846 C33.22196924 92.37337664 28.95525915 84.07235109 24.69580078 75.76757812 C24.07512474 74.55784332 24.07512474 74.55784332 23.44190979 73.32366943 C21.34942576 69.24434882 19.2598028 65.16360441 17.17553711 61.08007812 C13.31561928 53.52430897 9.43337925 45.98325842 5.45808411 38.48739624 C3.65546012 35.085831 1.86578053 31.67753254 0.07687378 28.26873779 C-0.77609476 26.65263145 -1.63558539 25.03994869 -2.50192261 23.43096924 C-3.69994835 21.20512363 -4.8751965 18.96856775 -6.04638672 16.72851562 C-6.40360809 16.07922089 -6.76082947 15.42992615 -7.12887573 14.76095581 C-9.4466189 10.25363111 -9.78609444 7.20081341 -8.40185547 2.32226562 C-5.0595709 0.09407591 -3.90946013 0.05486394 0 0 Z " fill="#E3343A" transform="translate(245.40185546875,114.677734375)"></path><path d="M0 0 C6.38076238 2.55230495 9.06642451 10.65859128 12 16.4375 C15.96161044 24.14268392 19.9962536 31.79237984 24.1875 39.375 C29.69553307 49.37259617 34.90970064 59.51168511 40.11138916 69.67053223 C44.93312257 79.08235608 49.85580477 88.42009146 54.97265625 97.67578125 C59.66591013 106.20781073 64.09904858 114.86857291 68.54229736 123.53234863 C72.73689281 131.70652059 76.99189276 139.83349992 81.4375 147.875 C86.47579415 156.99125046 91.25342238 166.22986982 96 175.5 C100.78906475 184.85281129 105.61304444 194.17258365 110.6875 203.375 C114.94071927 211.11568099 119.16431524 218.87136499 123.28701782 226.68243408 C124.22740184 228.45734745 125.18032762 230.22559795 126.13354492 231.99365234 C126.70306885 233.07855957 127.27259277 234.1634668 127.859375 235.28125 C128.36952148 236.24095703 128.87966797 237.20066406 129.40527344 238.18945312 C130.67082946 241.43857911 130.99570157 243.54525162 130.5 247 C128.4536052 249.60498542 127.24845725 250.84806893 123.96461487 251.5146637 C123.01150925 251.52086227 122.05840363 251.52706085 121.07641602 251.53344727 C119.44936485 251.55720177 119.44936485 251.55720177 117.78944397 251.58143616 C116.0393528 251.57399635 116.0393528 251.57399635 114.25390625 251.56640625 C113.05064194 251.57260483 111.84737762 251.57880341 110.60765076 251.58518982 C108.06323048 251.59229319 105.51876378 251.58910508 102.97436523 251.57641602 C99.08034693 251.56256349 95.18873669 251.59660304 91.29492188 251.63476562 C88.82291608 251.63571692 86.35090727 251.63385747 83.87890625 251.62890625 C82.71420303 251.64216446 81.54949982 251.65542267 80.34950256 251.66908264 C72.29804233 251.57632208 72.29804233 251.57632208 68.39453125 248.75732422 C66.69866846 246.28914453 65.15106876 243.92885596 63.80859375 241.25390625 C63.34517578 240.34576172 62.88175781 239.43761719 62.40429688 238.50195312 C61.92025391 237.53193359 61.43621094 236.56191406 60.9375 235.5625 C59.87556154 233.4795176 58.81171095 231.39750908 57.74609375 229.31640625 C56.93760986 227.73303467 56.93760986 227.73303467 56.11279297 226.11767578 C53.65541945 221.36734882 51.08184715 216.68349876 48.5 212 C43.88082715 203.59486667 39.41267265 195.120548 35 186.60546875 C31.58050819 180.02472801 28.07070727 173.49980308 24.5 167 C19.8821712 158.59410852 15.4126912 150.1205838 11 141.60546875 C7.58050819 135.02472801 4.07070727 128.49980308 0.5 122 C-3.59431745 114.54706276 -7.58734743 107.04988296 -11.5 99.5 C-16.48055849 89.89270661 -21.60495478 80.37094976 -26.80859375 70.8828125 C-27.25315918 70.06458008 -27.69772461 69.24634766 -28.15576172 68.40332031 C-29.0533849 66.79848875 -29.98792222 65.21376687 -30.95751953 63.65136719 C-33.43005037 59.58866987 -35.41009551 56.0600546 -35.05175781 51.11767578 C-33.82383834 46.40485564 -31.00889271 42.47525822 -28.375 38.4375 C-27.09293149 36.41067376 -25.81170728 34.38331327 -24.53125 32.35546875 C-23.86738281 31.31567871 -23.20351562 30.27588867 -22.51953125 29.20458984 C-20.49551154 25.99287772 -18.53540507 22.75035983 -16.59375 19.48828125 C-15.97000488 18.44293213 -15.34625977 17.39758301 -14.70361328 16.32055664 C-13.50503634 14.30793953 -12.31054726 12.29288107 -11.12060547 10.27514648 C-10.57291504 9.36450439 -10.02522461 8.4538623 -9.4609375 7.515625 C-8.98446777 6.71415039 -8.50799805 5.91267578 -8.01708984 5.08691406 C-5.7784436 2.00742451 -3.90920709 0 0 0 Z " fill="#DD2E35" transform="translate(227.5,141)"></path><path d="M0 0 C3.37740797 3.05383779 5.3370714 6.11977083 7.41796875 10.15625 C7.72068192 10.74039673 8.02339508 11.32454346 8.33528137 11.9263916 C8.96990368 13.1549536 9.60084589 14.38542289 10.22827148 15.61767578 C11.18678795 17.49860272 12.157816 19.37264783 13.13085938 21.24609375 C18.82264356 32.30016642 18.82264356 32.30016642 19 35 C17.86694336 37.64355469 17.86694336 37.64355469 16.08984375 40.671875 C15.10999512 42.36268188 15.10999512 42.36268188 14.11035156 44.08764648 C13.38628312 45.30855877 12.66199378 46.52934007 11.9375 47.75 C11.20036465 49.01244149 10.46437463 50.27555238 9.72949219 51.53930664 C7.85562518 54.7557976 5.96814912 57.96406756 4.0770874 61.17047119 C2.45543968 63.92498417 0.84673954 66.68698851 -0.76171875 69.44921875 C-1.34477783 70.45009521 -1.92783691 71.45097168 -2.52856445 72.48217773 C-3.09663818 73.45743408 -3.66471191 74.43269043 -4.25 75.4375 C-7.66449462 81.29559148 -11.08727589 87.14816815 -14.5390625 92.984375 C-15.6514828 94.88515857 -16.76348011 96.78618976 -17.875 98.6875 C-18.65278809 99.98868774 -18.65278809 99.98868774 -19.44628906 101.31616211 C-19.91518555 102.1231958 -20.38408203 102.93022949 -20.8671875 103.76171875 C-21.28081543 104.46256592 -21.69444336 105.16341309 -22.12060547 105.88549805 C-23.19877684 108.47795841 -23.36843763 110.21765101 -23 113 C-22.03217687 114.78331316 -22.03217687 114.78331316 -20 116 C-17.24334014 116.30964506 -14.70767649 116.43748445 -11.94848633 116.43237305 C-10.71887932 116.44766052 -10.71887932 116.44766052 -9.46443176 116.46325684 C-6.75356276 116.49346314 -4.04304665 116.50266432 -1.33203125 116.51171875 C0.54699383 116.52855979 2.4260076 116.54670925 4.30500793 116.56611633 C9.25170357 116.61368491 14.19835338 116.64344987 19.14520264 116.66955566 C24.19259698 116.69932663 29.23983329 116.74586882 34.28710938 116.79101562 C44.19132371 116.87712673 54.09557049 116.94443725 64 117 C66.28393108 121.2330172 68.56244505 125.46888671 70.8359375 129.70751953 C71.61048702 131.14972814 72.38652377 132.59113904 73.1640625 134.03173828 C74.27994335 136.09981848 75.39048444 138.17068697 76.5 140.2421875 C76.84998047 140.88807831 77.19996094 141.53396912 77.56054688 142.19943237 C80 146.77225659 80 146.77225659 80 149 C24.23 149 -31.54 149 -89 149 C-87.31879595 144.79698987 -85.41470826 141.10385471 -83.10546875 137.25 C-82.53044365 136.28132996 -82.53044365 136.28132996 -81.94380188 135.29309082 C-80.69549064 133.19311097 -79.44171126 131.09646053 -78.1875 129 C-77.31500123 127.53586863 -76.44260618 126.07167544 -75.5703125 124.60742188 C-70.4658126 116.05256914 -65.28518989 107.55026035 -60.00146484 99.10473633 C-54.97758877 91.04109127 -50.14785969 82.86492423 -45.3125 74.6875 C-35.18894915 57.56836142 -35.18894915 57.56836142 -29.85913086 49.17724609 C-24.61494475 40.87892711 -19.62727091 32.42059226 -14.59350586 23.99365234 C-9.79041413 15.95700914 -4.92793109 7.96082586 0 0 Z " fill="#D4232C" transform="translate(184,230)"></path><path d="M0 0 C1.10479706 -0.01921509 2.20959412 -0.03843018 3.34786987 -0.05822754 C5.13851364 -0.07097717 5.13851364 -0.07097717 6.96533203 -0.08398438 C8.80564499 -0.10108459 8.80564499 -0.10108459 10.68313599 -0.11853027 C13.28058417 -0.13743506 15.87808038 -0.15050016 18.47558594 -0.15820312 C22.45088217 -0.17762561 26.42411478 -0.2396656 30.39892578 -0.30273438 C32.9210489 -0.31579355 35.44318683 -0.32629484 37.96533203 -0.33398438 C39.15504608 -0.35867798 40.34476013 -0.38337158 41.57052612 -0.40881348 C49.75885871 -0.3645799 49.75885871 -0.3645799 53.56201172 2.74780273 C54.60702515 4.40316772 54.60702515 4.40316772 55.59814453 6.32226562 C56.00279938 7.03476471 56.40745422 7.74726379 56.82437134 8.48135376 C58.21740479 11.01507958 59.5182529 13.58269238 60.80908203 16.16992188 C61.29369904 17.12535385 61.77831604 18.08078583 62.27761841 19.06517029 C63.84980385 22.16821245 65.41137493 25.27647018 66.97314453 28.38476562 C68.0666686 30.54666777 69.16107544 32.70812361 70.25634766 34.86914062 C72.41285221 39.1245387 74.56651261 43.38135578 76.71826172 47.63916016 C80.13419034 54.3900824 83.605447 61.11077774 87.09814453 67.82226562 C93.59388238 80.33426519 100.00451178 92.88919991 106.41064453 105.44726562 C113.53649177 119.41593833 120.6699841 133.38039242 127.84814453 147.32226562 C128.20592987 148.0172113 128.56371521 148.71215698 128.93234253 149.42816162 C129.28990631 150.12266418 129.64747009 150.81716675 130.01586914 151.53271484 C130.7386137 152.93651987 131.46135132 154.34032847 132.18408203 155.74414062 C132.72014824 156.78533554 132.72014824 156.78533554 133.26704407 157.8475647 C137.67836848 166.4176975 142.07562889 174.9950416 146.47314453 183.57226562 C147.30948523 185.20328966 148.14582963 186.8343118 148.98217773 188.46533203 C152.83524355 195.97996748 156.68711815 203.49521095 160.53656006 211.01170349 C161.8450051 213.56632208 163.15391628 216.12070142 164.46289062 218.67504883 C166.15908105 221.98513893 167.85319048 225.29628214 169.54589844 228.6081543 C173.22776268 235.80481205 176.93091906 242.98639033 180.74267578 250.11523438 C181.35892822 251.2742627 181.97518066 252.43329102 182.61010742 253.62744141 C183.72742166 255.7214443 184.85471898 257.81016738 185.99438477 259.89208984 C190.6444209 268.62109142 190.6444209 268.62109142 189.59814453 273.32226562 C187.53909305 275.90525755 186.33981803 277.1717116 183.0627594 277.83692932 C182.10965378 277.8431279 181.15654816 277.84932648 180.17456055 277.85571289 C179.08985977 277.87154922 178.005159 277.88738556 176.8875885 277.90370178 C175.13749733 277.89626198 175.13749733 277.89626198 173.35205078 277.88867188 C172.14878647 277.89487045 170.94552216 277.90106903 169.70579529 277.90745544 C167.16137502 277.91455882 164.61690831 277.91137071 162.07250977 277.89868164 C158.17849146 277.88482911 154.28688122 277.91886866 150.39306641 277.95703125 C147.92106061 277.95798254 145.4490518 277.95612309 142.97705078 277.95117188 C141.81234756 277.96443008 140.64764435 277.97768829 139.44764709 277.99134827 C131.42692953 277.89894189 131.42692953 277.89894189 127.55712891 275.20629883 C125.43243556 272.07830748 123.54834026 268.93361004 121.87548828 265.54882812 C121.5378093 264.88585724 121.20013031 264.22288635 120.85221863 263.53982544 C119.73768738 261.34674055 118.63684591 259.14706968 117.53564453 256.94726562 C116.742877 255.38197249 115.94907207 253.81720439 115.15429688 252.25292969 C113.47981298 248.95492336 111.81007682 245.6545753 110.14355469 242.35253906 C106.45323533 235.04881508 102.70843781 227.77309569 98.96780396 220.49505615 C96.86528662 216.40240318 94.76703488 212.30756462 92.66845703 208.21289062 C91.82244714 206.56249039 90.9764185 204.91209976 90.13037109 203.26171875 C89.71194946 202.44550049 89.29352783 201.62928223 88.86242676 200.78833008 C86.77205841 196.71093108 84.6812213 192.63377251 82.59033203 188.55664062 C82.17823486 187.75307129 81.7661377 186.94950195 81.34155273 186.12158203 C80.09375993 183.68847147 78.84595472 181.25536727 77.59814453 178.82226562 C72.99716163 169.85082172 68.39619926 160.87936758 63.79681396 151.90710449 C55.03931069 134.8234232 46.27545952 117.74307 37.49209595 100.67266846 C33.22196924 92.37337664 28.95525915 84.07235109 24.69580078 75.76757812 C24.07512474 74.55784332 24.07512474 74.55784332 23.44190979 73.32366943 C21.34942576 69.24434882 19.2598028 65.16360441 17.17553711 61.08007812 C13.31561928 53.52430897 9.43337925 45.98325842 5.45808411 38.48739624 C3.65546012 35.085831 1.86578053 31.67753254 0.07687378 28.26873779 C-0.77609476 26.65263145 -1.63558539 25.03994869 -2.50192261 23.43096924 C-3.69994835 21.20512363 -4.8751965 18.96856775 -6.04638672 16.72851562 C-6.40360809 16.07922089 -6.76082947 15.42992615 -7.12887573 14.76095581 C-9.4466189 10.25363111 -9.78609444 7.20081341 -8.40185547 2.32226562 C-5.0595709 0.09407591 -3.90946013 0.05486394 0 0 Z M7.59814453 13.32226562 C14.63347631 28.54416529 22.25980494 43.42317593 29.97171021 58.30821228 C34.2410985 66.55364741 38.47078315 74.81932886 42.69958496 83.08563232 C49.65033993 96.67246897 56.61379815 110.25266724 63.59814453 123.82226562 C71.40926613 138.99906631 79.19327372 154.18966465 86.97224426 169.38296509 C87.41211166 170.24207489 87.85197906 171.10118469 88.30517578 171.98632812 C88.7452446 172.84584076 89.18531342 173.70535339 89.63871765 174.59091187 C94.30889381 183.7116451 98.98434116 192.82967274 103.66064453 201.94726562 C104.06520874 202.73610138 104.46977295 203.52493713 104.88659668 204.337677 C109.19234885 212.73320571 113.49867239 221.12844124 117.80534363 229.52349854 C119.6636232 233.14596001 121.52174908 236.76850031 123.37985229 240.39105225 C124.69603081 242.95690813 126.01244089 245.52264513 127.32885742 248.08837891 C128.12956952 249.64940779 128.93027002 251.21044262 129.73095703 252.77148438 C130.09455826 253.47999039 130.45815948 254.1884964 130.83277893 254.91847229 C132.43655682 258.04580438 134.02634185 261.17866025 135.59814453 264.32226562 C147.80814453 264.32226562 160.01814453 264.32226562 172.59814453 264.32226562 C171.07370826 259.74895681 169.41641589 255.74432002 167.20361328 251.52148438 C166.86433304 250.86521561 166.5250528 250.20894684 166.17549133 249.53279114 C165.4377436 248.10697542 164.69802054 246.68218041 163.95654297 245.25830078 C162.75903567 242.95866729 161.5665906 240.65647256 160.37548828 238.35351562 C159.10511708 235.89730275 157.83447584 233.44123472 156.56234741 230.9859314 C152.15385213 222.47551996 147.78645496 213.9442379 143.42227173 205.41104126 C136.49763895 191.8728248 129.55708755 178.34287466 122.59814453 164.82226562 C116.1256006 152.24619313 109.66923636 139.66191711 103.22314453 127.07226562 C102.78408783 126.21477722 102.34503113 125.35728882 101.89266968 124.47381592 C100.11730942 121.00646744 98.34196014 117.53911335 96.56663513 114.07174683 C88.99060735 99.27588692 81.40572777 84.48456706 73.81610107 69.69567871 C72.58979532 67.30599565 71.36373492 64.91618681 70.13769531 62.52636719 C61.70130573 46.08383917 53.25153047 29.65204232 44.59814453 13.32226562 C32.38814453 13.32226562 20.17814453 13.32226562 7.59814453 13.32226562 Z " fill="#FEFAFA" transform="translate(245.40185546875,114.677734375)"></path><path d="M0 0 C7.99712236 2.76823466 11.95864122 15.07442044 15.5625 22.1875 C20.15361741 31.23146255 20.15361741 31.23146255 25.12890625 40.06640625 C25.55453857 40.78497803 25.9801709 41.5035498 26.41870117 42.24389648 C27.19558401 43.53587104 27.98767484 44.81888247 28.7980957 46.09008789 C30.53478287 48.98538357 31.2471781 51.01225833 31.33203125 54.40234375 C29.82140452 59.59955413 27.30183662 63.91695256 24.5625 68.5625 C23.9845166 69.56313477 23.4065332 70.56376953 22.81103516 71.59472656 C20.96851424 74.77811891 19.11009035 77.9518477 17.25 81.125 C16.05261992 83.18314859 14.85599484 85.24173663 13.66015625 87.30078125 C11.42353994 91.1472982 9.18010135 94.9896665 6.9296875 98.828125 C2.00263128 107.24073474 -2.86994767 115.68507078 -7.75 124.125 C-6.3384539 124.1050145 -6.3384539 124.1050145 -4.89839172 124.08462524 C3.97372946 123.96294899 12.84568119 123.87303044 21.71844769 123.81412697 C26.28001896 123.7828254 30.84091625 123.74037511 35.40209961 123.67236328 C39.80472742 123.60712718 44.2067074 123.57128512 48.60978127 123.55573654 C50.28877779 123.54465765 51.96773919 123.5230222 53.64645958 123.49061966 C56.00035309 123.44699568 58.35157725 123.44106776 60.70581055 123.44384766 C61.3984903 123.422276 62.09117004 123.40070435 62.80484009 123.378479 C65.53960357 123.41337701 67.64066647 123.60953372 69.76999474 125.41084099 C72.42731704 128.53299174 74.42556536 131.96985754 76.265625 135.6171875 C77.0532019 137.15838257 77.0532019 137.15838257 77.85668945 138.73071289 C78.67012817 140.34901001 78.67012817 140.34901001 79.5 142 C84.10771506 151.12495208 84.10771506 151.12495208 89.09765625 160.04296875 C89.72849121 161.111521 89.72849121 161.111521 90.37207031 162.20166016 C91.13668975 163.47717584 91.91494823 164.74466815 92.70996094 166.00146484 C95.48027498 170.63838649 95.75554628 173.87509634 95.25 179.125 C92.74109921 181.63390079 91.22060339 181.36843592 87.79737383 181.39714891 C87.03094716 181.39336958 86.26452049 181.38959026 85.47486877 181.38569641 C84.6626497 181.38952196 83.85043063 181.39334751 83.01359886 181.39728898 C80.27666064 181.40765416 77.53993083 181.40362021 74.80297852 181.3996582 C72.84698288 181.40400274 70.89098894 181.40918501 68.93499756 181.41514587 C63.61068513 181.428575 58.28644351 181.4291102 52.96211743 181.42658257 C48.52349774 181.4255155 44.08489254 181.43038945 39.64627594 181.435188 C29.17815414 181.44629673 18.71006821 181.44671292 8.24194336 181.44067383 C-2.57124617 181.43463175 -13.38430565 181.44694789 -24.19747299 181.4682439 C-33.4688295 181.4858346 -42.74014452 181.49186526 -52.01151711 181.48860615 C-57.55436457 181.4867891 -63.09711929 181.4894714 -68.63995171 181.50332069 C-73.85116217 181.51585331 -79.06216929 181.5139984 -84.27337646 181.50090981 C-86.18944936 181.49853447 -88.10553636 181.5013127 -90.02159309 181.50953293 C-92.63059644 181.51992159 -95.23890744 181.51196376 -97.84788513 181.4992218 C-98.61208108 181.50659609 -99.37627703 181.51397037 -100.16363043 181.52156812 C-105.24660948 181.46908374 -105.24660948 181.46908374 -107.71997166 179.7784605 C-109.3710003 177.12813474 -109.11883554 175.18160389 -108.75 172.125 C-107.45922852 169.31787109 -107.45922852 169.31787109 -105.62890625 166.3984375 C-104.6092981 164.74811523 -104.6092981 164.74811523 -103.5690918 163.06445312 C-102.81700455 161.87623244 -102.06480426 160.6880833 -101.3125 159.5 C-100.54000945 158.25803927 -99.7689551 157.01518419 -98.99926758 155.77148438 C-97.39537314 153.18235911 -95.78533318 150.59721338 -94.17089844 148.01464844 C-90.73362072 142.50558689 -87.37178185 136.95098072 -84.00973511 131.39581299 C-82.93382675 129.61893356 -81.8560114 127.84322499 -80.77758789 126.06787109 C-76.74768989 119.43257672 -72.73704388 112.78612957 -68.75 106.125 C-64.05051459 98.27359876 -59.31318925 90.44549254 -54.5625 82.625 C-54.20234802 82.03199097 -53.84219604 81.43898193 -53.47113037 80.82800293 C-49.84850847 74.86349016 -46.22349972 68.90044555 -42.59135437 62.94172668 C-40.85140825 60.08685769 -39.11297842 57.2310672 -37.375 54.375 C-37.03203888 53.81164948 -36.68907776 53.24829895 -36.33572388 52.6678772 C-32.05769054 45.6362536 -27.82279801 38.58056539 -23.6328125 31.49609375 C-23.20380646 30.77110687 -22.77480042 30.04612 -22.33279419 29.29916382 C-20.24375693 25.76711464 -18.15898096 22.23264621 -16.08056641 18.69433594 C-5.20950813 0.23679582 -5.20950813 0.23679582 0 0 Z M-1.75 20.125 C-10.45995084 34.43253702 -19.14339862 48.75503058 -27.75 63.125 C-33.57585315 72.8506561 -39.42503395 82.56150681 -45.3125 92.25 C-45.83677582 93.11292664 -45.83677582 93.11292664 -46.37164307 93.99328613 C-49.87095196 99.75222487 -53.37404344 105.50884883 -56.88139343 111.26289368 C-64.63265517 123.98144071 -72.33829987 136.7263052 -79.96026611 149.52282715 C-80.8150866 150.95754692 -81.67082957 152.3917175 -82.52752686 153.82531738 C-83.71925021 155.82058973 -84.90707298 157.81812959 -86.09375 159.81640625 C-86.62840378 160.7097039 -86.62840378 160.7097039 -87.17385864 161.62104797 C-88.6481875 164.11276527 -89.83041669 166.36625008 -90.75 169.125 C-34.98 169.125 20.79 169.125 78.25 169.125 C76.72820484 164.55961452 75.25551283 161.00785084 72.9921875 156.8515625 C72.36699219 155.69785156 71.74179687 154.54414063 71.09765625 153.35546875 C70.44020906 152.15358845 69.78265566 150.95176624 69.125 149.75 C68.45919301 148.52497993 67.79382415 147.29972163 67.12890625 146.07421875 C65.50689429 143.08877644 63.8804687 140.10582961 62.25 137.125 C61.20430344 137.11913376 60.15860687 137.11326752 59.08122253 137.10722351 C49.23690428 137.05006418 39.39280838 136.97733839 29.54871655 136.88928509 C24.48749056 136.84451617 19.42634629 136.80527453 14.36499023 136.77856445 C9.48246464 136.75259641 4.60025242 136.71224045 -0.2820797 136.66181374 C-2.14679765 136.64510092 -4.01156986 136.63361422 -5.87635231 136.62738609 C-8.48406623 136.61779281 -11.09097042 136.58979181 -13.69848633 136.55737305 C-14.86050064 136.55952568 -14.86050064 136.55952568 -16.04598999 136.5617218 C-21.2238269 136.47040193 -21.2238269 136.47040193 -23.76062012 134.80514526 C-25.50674806 131.83990547 -24.52046981 129.34578145 -23.75 126.125 C-22.38989258 123.14086914 -22.38989258 123.14086914 -20.64453125 120.16015625 C-19.99766357 119.0424585 -19.3507959 117.92476074 -18.68432617 116.77319336 C-17.97727103 115.57783193 -17.26999016 114.38260401 -16.5625 113.1875 C-15.83531538 111.94013383 -15.10917368 110.69215913 -14.3840332 109.44360352 C-12.53758489 106.26993209 -10.67844074 103.10390427 -8.81604004 99.9395752 C-7.18917523 97.17038416 -5.57511916 94.39378569 -3.9609375 91.6171875 C5.49592734 75.36497842 5.49592734 75.36497842 9.6015625 68.55078125 C10.12322998 67.67558838 10.64489746 66.80039551 11.18237305 65.89868164 C12.15799905 64.26282665 13.14328242 62.63267762 14.13989258 61.00952148 C14.56681396 60.28966064 14.99373535 59.5697998 15.43359375 58.828125 C15.81056396 58.20583008 16.18753418 57.58353516 16.57592773 56.94238281 C17.48100039 54.50219416 17.16359819 53.56507873 16.25 51.125 C15.19705561 48.8740864 14.11544805 46.66733849 12.9765625 44.4609375 C12.65215179 43.82765533 12.32774109 43.19437317 11.99349976 42.54190063 C11.30808735 41.20779104 10.62042631 39.8748346 9.93066406 38.54296875 C8.87726644 36.50438611 7.83681345 34.45953691 6.796875 32.4140625 C6.12838507 31.1167848 5.45913965 29.81989607 4.7890625 28.5234375 C4.47957672 27.91196869 4.17009094 27.30049988 3.85122681 26.67050171 C2.22008968 23.55204553 1.24957088 22.12471392 -1.75 20.125 Z " fill="#FEFBFC" transform="translate(185.75,209.875)"></path><path d="M0 0 C6.38076238 2.55230495 9.06642451 10.65859128 12 16.4375 C15.96161044 24.14268392 19.9962536 31.79237984 24.1875 39.375 C29.69553307 49.37259617 34.90970064 59.51168511 40.11138916 69.67053223 C44.93312257 79.08235608 49.85580477 88.42009146 54.97265625 97.67578125 C59.66591013 106.20781073 64.09904858 114.86857291 68.54229736 123.53234863 C72.73689281 131.70652059 76.99189276 139.83349992 81.4375 147.875 C86.47579415 156.99125046 91.25342238 166.22986982 96 175.5 C100.78906475 184.85281129 105.61304444 194.17258365 110.6875 203.375 C114.94071927 211.11568099 119.16431524 218.87136499 123.28701782 226.68243408 C124.22740184 228.45734745 125.18032762 230.22559795 126.13354492 231.99365234 C126.70306885 233.07855957 127.27259277 234.1634668 127.859375 235.28125 C128.36952148 236.24095703 128.87966797 237.20066406 129.40527344 238.18945312 C130.67082946 241.43857911 130.99570157 243.54525162 130.5 247 C128.4536052 249.60498542 127.24845725 250.84806893 123.96461487 251.5146637 C123.01150925 251.52086227 122.05840363 251.52706085 121.07641602 251.53344727 C119.44936485 251.55720177 119.44936485 251.55720177 117.78944397 251.58143616 C116.0393528 251.57399635 116.0393528 251.57399635 114.25390625 251.56640625 C113.05064194 251.57260483 111.84737762 251.57880341 110.60765076 251.58518982 C108.06323048 251.59229319 105.51876378 251.58910508 102.97436523 251.57641602 C99.08034693 251.56256349 95.18873669 251.59660304 91.29492188 251.63476562 C88.82291608 251.63571692 86.35090727 251.63385747 83.87890625 251.62890625 C82.71420303 251.64216446 81.54949982 251.65542267 80.34950256 251.66908264 C72.29804233 251.57632208 72.29804233 251.57632208 68.39453125 248.75732422 C66.69866846 246.28914453 65.15106876 243.92885596 63.80859375 241.25390625 C63.34517578 240.34576172 62.88175781 239.43761719 62.40429688 238.50195312 C61.92025391 237.53193359 61.43621094 236.56191406 60.9375 235.5625 C59.87556154 233.4795176 58.81171095 231.39750908 57.74609375 229.31640625 C56.93760986 227.73303467 56.93760986 227.73303467 56.11279297 226.11767578 C53.65541945 221.36734882 51.08184715 216.68349876 48.5 212 C43.88082715 203.59486667 39.41267265 195.120548 35 186.60546875 C31.58050819 180.02472801 28.07070727 173.49980308 24.5 167 C19.8821712 158.59410852 15.4126912 150.1205838 11 141.60546875 C7.58050819 135.02472801 4.07070727 128.49980308 0.5 122 C-3.59431745 114.54706276 -7.58734743 107.04988296 -11.5 99.5 C-16.48055849 89.89270661 -21.60495478 80.37094976 -26.80859375 70.8828125 C-27.25315918 70.06458008 -27.69772461 69.24634766 -28.15576172 68.40332031 C-29.0533849 66.79848875 -29.98792222 65.21376687 -30.95751953 63.65136719 C-33.43005037 59.58866987 -35.41009551 56.0600546 -35.05175781 51.11767578 C-33.82383834 46.40485564 -31.00889271 42.47525822 -28.375 38.4375 C-27.09293149 36.41067376 -25.81170728 34.38331327 -24.53125 32.35546875 C-23.86738281 31.31567871 -23.20351562 30.27588867 -22.51953125 29.20458984 C-20.49551154 25.99287772 -18.53540507 22.75035983 -16.59375 19.48828125 C-15.97000488 18.44293213 -15.34625977 17.39758301 -14.70361328 16.32055664 C-13.50503634 14.30793953 -12.31054726 12.29288107 -11.12060547 10.27514648 C-10.57291504 9.36450439 -10.02522461 8.4538623 -9.4609375 7.515625 C-8.98446777 6.71415039 -8.50799805 5.91267578 -8.01708984 5.08691406 C-5.7784436 2.00742451 -3.90920709 0 0 0 Z M-1.5 20 C-3.02267368 22.31323356 -4.4915903 24.63912602 -5.9375 27 C-8.71507376 31.52760873 -11.50145375 36.03494284 -14.45703125 40.44921875 C-14.9250415 41.16013672 -15.39305176 41.87105469 -15.87524414 42.60351562 C-16.77822863 43.97234454 -17.69505797 45.33215925 -18.62670898 46.68164062 C-20.04228394 48.76517671 -20.04228394 48.76517671 -21.5 52 C-20.3215195 55.89541966 -18.30924164 59.44913739 -16.4453125 63.05859375 C-16.14787643 63.63532333 -15.85044037 64.21205292 -15.54399109 64.80625916 C-14.57373951 66.68477458 -13.59964047 68.56125837 -12.625 70.4375 C-12.29019623 71.08382385 -11.95539246 71.73014771 -11.61044312 72.39605713 C-6.80402018 81.67141949 -1.88896695 90.87944342 3.14990234 100.03100586 C6.69104953 106.47480086 10.11744849 112.97169202 13.5 119.5 C17.41246788 127.04997463 21.40568541 134.54706797 25.5 142 C30.1178288 150.40589148 34.5873088 158.8794162 39 167.39453125 C42.4194934 173.97527506 45.92940492 180.50013313 49.5 187 C54.68406471 196.44013353 59.69101346 205.96470685 64.65234375 215.5234375 C68.55423687 223.04084626 72.52801432 230.51942697 76.5 238 C88.71 238 100.92 238 113.5 238 C111.9156167 233.2468501 110.14257894 229.14531864 107.7890625 224.78515625 C107.24282227 223.75940742 107.24282227 223.75940742 106.68554688 222.7129364 C105.50284514 220.49388225 104.31391758 218.278229 103.125 216.0625 C101.88912063 213.74727331 100.65486963 211.43118364 99.42074585 209.11502075 C98.59934519 207.57362667 97.7774263 206.03250863 96.95498657 204.4916687 C93.63433331 198.26707326 90.36933088 192.01470505 87.125 185.75 C83.44425636 178.65655532 79.66938073 171.62409272 75.8125 164.625 C70.30548095 154.62594504 65.08957222 144.48706884 59.88760376 134.32745361 C55.53123432 125.82377635 51.12531175 117.361636 46.5 109 C41.48077619 99.92625 36.72538065 90.72882359 32 81.5 C26.72263609 71.19395367 21.36610525 60.94926272 15.77246094 50.81005859 C10.16838902 40.63486042 4.83492123 30.31818366 -0.5 20 C-0.83 20 -1.16 20 -1.5 20 Z " fill="#FEFAFA" transform="translate(227.5,141)"></path></svg>