<svg version="1.1" xmlns="http://www.w3.org/2000/svg" width="16px" height="16px" fill="currentColor" viewBox="0 0 512 512"><path d="M0 0 C168.96 0 337.92 0 512 0 C512 168.96 512 337.92 512 512 C343.04 512 174.08 512 0 512 C0 343.04 0 174.08 0 0 Z " fill="#E3740D" transform="translate(0,0)"></path><path d="M0 0 C33.99 0 67.98 0 103 0 C103 33.99 103 67.98 103 103 C69.01 103 35.02 103 0 103 C0 69.01 0 35.02 0 0 Z " fill="#E3760F" transform="translate(275,275)"></path><path d="M0 0 C33.99 0 67.98 0 103 0 C103 33.99 103 67.98 103 103 C69.01 103 35.02 103 0 103 C0 69.01 0 35.02 0 0 Z " fill="#E3760F" transform="translate(134,134)"></path><path d="M0 0 C1.15497986 -0.0071553 2.30995972 -0.01431061 3.49993896 -0.02168274 C7.31733763 -0.03859035 11.13356552 -0.0191543 14.95092773 0.00219727 C17.60222444 0.00136882 20.2534804 -0.00103412 22.9047699 -0.00511169 C28.46057624 -0.00962932 34.01604554 0.0062177 39.57177734 0.03417969 C45.99251493 0.06624632 52.41264526 0.06620897 58.83342606 0.04896492 C65.01487684 0.03309612 71.19610525 0.03983448 77.37754631 0.05690193 C80.00623005 0.06209177 82.63493128 0.06159228 85.26361275 0.05535698 C88.93393964 0.04991882 92.60322878 0.07023673 96.2734375 0.09765625 C97.36393906 0.09113037 98.45444061 0.08460449 99.57798767 0.07788086 C100.57754486 0.09060532 101.57710205 0.10332977 102.60694885 0.11643982 C103.47431451 0.11924674 104.34168016 0.12205366 105.23532963 0.12494564 C108.43626211 0.81830929 109.61701247 2.03685294 111.57202148 4.63110352 C112.07259274 7.00461674 112.07259274 7.00461674 112.07322693 9.68556213 C112.08306107 10.70483795 112.0928952 11.72411377 112.10302734 12.77427673 C112.09335937 13.88662186 112.08369141 14.99896698 112.07373047 16.14501953 C112.08183495 17.90894043 112.08183495 17.90894043 112.09010315 19.70849609 C112.10046539 22.92966931 112.09289085 26.15017518 112.07639194 29.37130475 C112.06253574 32.74249005 112.06900203 36.11364452 112.07252502 39.48484802 C112.07522634 45.14493415 112.06175724 50.80480811 112.03857422 56.46484375 C112.01195192 63.00989878 112.01022163 69.55459938 112.02196258 76.09969002 C112.03273817 82.39590719 112.02655592 88.69199607 112.0124073 94.98820305 C112.00664682 97.66798877 112.00673058 100.34768062 112.0114727 103.02746773 C112.01437302 106.76739225 111.9979339 110.50673135 111.97607422 114.24658203 C111.98282669 115.91813606 111.98282669 115.91813606 111.98971558 117.62345886 C111.97981094 118.63991486 111.96990631 119.65637085 111.95970154 120.70362854 C111.95605669 122.03013097 111.95605669 122.03013097 111.95233822 123.38343143 C111.57202148 125.63110352 111.57202148 125.63110352 110.35575867 127.4148407 C107.99887228 129.02191225 106.48933345 129.01096692 103.64454651 129.01878357 C102.62809052 129.0286882 101.61163452 129.03859283 100.56437683 129.04879761 C99.45000748 129.04429596 98.33563812 129.03979431 97.1875 129.03515625 C96.01330505 129.0420195 94.83911011 129.04888275 93.6293335 129.05595398 C90.40815717 129.07113415 87.18734286 129.07271178 83.96614575 129.06701159 C81.27722709 129.06392357 78.58836096 129.07000791 75.89944977 129.07605034 C69.55580627 129.09010346 63.21229742 129.08852803 56.86865234 129.07714844 C50.32415777 129.06566797 43.78007303 129.07973945 37.23563248 129.10654491 C31.61684296 129.12869734 25.99818213 129.13534032 20.37935203 129.1294685 C17.02345242 129.12609635 13.66781549 129.1285305 10.31195259 129.14571953 C6.56963516 129.16055381 2.828226 129.15000675 -0.9140625 129.1328125 C-2.58258018 129.14731445 -2.58258018 129.14731445 -4.2848053 129.16210938 C-5.81371902 129.14735817 -5.81371902 129.14735817 -7.3735199 129.13230896 C-8.70058787 129.13199503 -8.70058787 129.13199503 -10.05446529 129.13167477 C-13.28274559 128.45083411 -14.45961849 127.24485015 -16.42797852 124.63110352 C-16.93413639 122.29441166 -16.93413639 122.29441166 -16.94264221 119.66603088 C-16.95536667 118.66647369 -16.96809113 117.6669165 -16.98120117 116.6370697 C-16.97467529 115.54656815 -16.96814941 114.45606659 -16.96142578 113.33251953 C-16.97004135 112.17929199 -16.97865692 111.02606445 -16.98753357 109.83789062 C-17.01026427 106.02003634 -17.00344092 102.20291185 -16.99438477 98.38500977 C-16.99829511 96.40439859 -17.00221556 94.42378703 -17.00768417 92.44317955 C-17.02468232 86.21594234 -17.02111878 79.98895016 -17.00439453 73.76171875 C-16.98747478 67.34152656 -17.00330497 60.92201435 -17.03561741 54.50189644 C-17.06232609 48.98580862 -17.06958593 43.4699323 -17.06110233 37.95378631 C-17.05617641 34.66094889 -17.06047229 31.36861069 -17.07888985 28.07580757 C-17.09628153 24.4030596 -17.08183499 20.73177089 -17.05908203 17.05908203 C-17.07077423 15.97060471 -17.08246643 14.88212738 -17.09451294 13.76066589 C-17.03768084 9.25874026 -16.87194585 6.40335488 -14.6027832 2.45629883 C-9.8016094 -0.30389614 -5.44969883 -0.05853954 0 0 Z M-3.42797852 13.63110352 C-3.42797852 47.62110352 -3.42797852 81.61110352 -3.42797852 116.63110352 C30.56202148 116.63110352 64.55202148 116.63110352 99.57202148 116.63110352 C99.57202148 82.64110352 99.57202148 48.65110352 99.57202148 13.63110352 C65.58202148 13.63110352 31.59202148 13.63110352 -3.42797852 13.63110352 Z " fill="#FEFCFA" transform="translate(278.427978515625,261.368896484375)"></path><path d="M0 0 C1.01645599 -0.00990463 2.03291199 -0.01980927 3.08016968 -0.03001404 C4.19453903 -0.02551239 5.30890839 -0.02101074 6.45704651 -0.01637268 C7.63124146 -0.02323593 8.8054364 -0.03009918 10.01521301 -0.03717041 C13.23638933 -0.05235058 16.45720365 -0.05392822 19.67840075 -0.04822803 C22.36731942 -0.04514 25.05618555 -0.05122434 27.74509674 -0.05726677 C34.08874023 -0.07131989 40.43224909 -0.06974446 46.77589417 -0.05836487 C53.32038873 -0.0468844 59.86447348 -0.06095588 66.40891403 -0.08776134 C72.02770355 -0.10991377 77.64636438 -0.11655675 83.26519448 -0.11068493 C86.62109409 -0.10731278 89.97673102 -0.10974693 93.33259392 -0.12693596 C97.07491135 -0.14177024 100.8163205 -0.13122318 104.55860901 -0.11402893 C105.67095413 -0.1236969 106.78329926 -0.13336487 107.92935181 -0.14332581 C109.45826553 -0.1285746 109.45826553 -0.1285746 111.01806641 -0.11352539 C112.34513438 -0.11321146 112.34513438 -0.11321146 113.6990118 -0.1128912 C116.9272921 0.56794946 118.104165 1.77393342 120.07252502 4.38768005 C120.5786829 6.72437191 120.5786829 6.72437191 120.58718872 9.35275269 C120.59991318 10.35230988 120.61263763 11.35186707 120.62574768 12.38171387 C120.6192218 13.47221542 120.61269592 14.56271698 120.60597229 15.68626404 C120.61458786 16.83949158 120.62320343 17.99271912 120.63208008 19.18089294 C120.65481078 22.99874723 120.64798743 26.81587172 120.63893127 30.6337738 C120.64284162 32.61438498 120.64676206 34.59499654 120.65223068 36.57560402 C120.66922882 42.80284123 120.66566529 49.0298334 120.64894104 55.25706482 C120.63202129 61.67725701 120.64785148 68.09676922 120.68016392 74.51688713 C120.7068726 80.03297495 120.71413244 85.54885127 120.70564884 91.06499726 C120.70072292 94.35783468 120.7050188 97.65017288 120.72343636 100.942976 C120.74082804 104.61572397 120.7263815 108.28701268 120.70362854 111.95970154 C120.72116684 113.59241753 120.72116684 113.59241753 120.73905945 115.25811768 C120.68222735 119.76004331 120.51649236 122.61542869 118.24732971 126.56248474 C113.44615591 129.32267971 109.09424534 129.07732311 103.64454651 129.01878357 C101.91207672 129.02951653 101.91207672 129.02951653 100.14460754 129.04046631 C96.32720888 129.05737391 92.51098099 129.03793787 88.69361877 129.0165863 C86.04232207 129.01741475 83.39106611 129.01981769 80.73977661 129.02389526 C75.18397027 129.02841289 69.62850097 129.01256587 64.07276917 128.98460388 C57.65203157 128.95253725 51.23190125 128.9525746 44.81112045 128.96981865 C38.62966967 128.98568745 32.44844126 128.97894909 26.2670002 128.96188164 C23.63831646 128.9566918 21.00961523 128.95719129 18.38093376 128.96342659 C14.71060687 128.96886475 11.04131773 128.94854683 7.37110901 128.92112732 C6.28060745 128.9276532 5.1901059 128.93417908 4.06655884 128.94090271 C3.06700165 128.92817825 2.06744446 128.9154538 1.03759766 128.90234375 C0.170232 128.89953683 -0.69713366 128.89672991 -1.59078312 128.89383793 C-4.7917156 128.20047428 -5.97246597 126.98193062 -7.92747498 124.38768005 C-8.42804623 122.01416683 -8.42804623 122.01416683 -8.42868042 119.33322144 C-8.43851456 118.31394562 -8.44834869 117.2946698 -8.45848083 116.24450684 C-8.44881287 115.13216171 -8.4391449 114.01981659 -8.42918396 112.87376404 C-8.43458694 111.69781677 -8.43998993 110.52186951 -8.44555664 109.31028748 C-8.45591888 106.08911425 -8.44834434 102.86860839 -8.43184543 99.64747882 C-8.41798923 96.27629352 -8.42445552 92.90513905 -8.42797852 89.53393555 C-8.43067984 83.87384942 -8.41721073 78.21397546 -8.39402771 72.55393982 C-8.36740542 66.00888479 -8.36567512 59.46418419 -8.37741607 52.91909355 C-8.38819166 46.62287638 -8.38200941 40.3267875 -8.36786079 34.03058052 C-8.36210031 31.3507948 -8.36218408 28.67110294 -8.36692619 25.99131584 C-8.36982652 22.25139132 -8.3533874 18.51205222 -8.33152771 14.77220154 C-8.33602936 13.65783218 -8.34053101 12.54346283 -8.34516907 11.39532471 C-8.33526443 10.37886871 -8.3253598 9.36241272 -8.31515503 8.31515503 C-8.31272513 7.43082007 -8.31029524 6.54648512 -8.30779171 5.63535213 C-7.92747498 3.38768005 -7.92747498 3.38768005 -6.71121216 1.60394287 C-4.35432577 -0.00312868 -2.84478694 0.00781665 0 0 Z M4.07252502 12.38768005 C4.07252502 46.37768005 4.07252502 80.36768005 4.07252502 115.38768005 C38.06252502 115.38768005 72.05252502 115.38768005 107.07252502 115.38768005 C107.07252502 81.39768005 107.07252502 47.40768005 107.07252502 12.38768005 C73.08252502 12.38768005 39.09252502 12.38768005 4.07252502 12.38768005 Z " fill="#FEFCFA" transform="translate(129.92747497558594,121.61231994628906)"></path><path d="M0 0 C1.49933578 -0.01702469 1.49933578 -0.01702469 3.02896118 -0.03439331 C4.11946274 -0.03146271 5.20996429 -0.0285321 6.33351135 -0.0255127 C7.48673889 -0.03398224 8.63996643 -0.04245178 9.82814026 -0.05117798 C13.64587893 -0.07460543 17.46321595 -0.07556874 21.28102112 -0.07434082 C23.26163207 -0.07964519 25.24224315 -0.0849557 27.22285134 -0.09120798 C33.45004243 -0.11043751 39.67709948 -0.11332751 45.90431213 -0.10656738 C52.32448322 -0.09992596 58.74407987 -0.12279521 65.16413444 -0.15988111 C70.68020481 -0.19058668 76.19609046 -0.20193729 81.71224457 -0.1980443 C85.00510661 -0.19597767 88.29742165 -0.20367683 91.59022331 -0.22593689 C95.26293076 -0.24803268 98.9342468 -0.23847041 102.60694885 -0.2208252 C103.69542618 -0.23408844 104.7839035 -0.24735168 105.90536499 -0.26101685 C110.40858806 -0.21066081 113.26086275 -0.05035877 117.20973206 2.21861267 C119.96948294 7.02051368 119.72457544 11.37222249 119.66603088 16.8223877 C119.67676384 18.55485748 119.67676384 18.55485748 119.68771362 20.32232666 C119.70462123 24.13972532 119.68518518 27.95595321 119.66383362 31.77331543 C119.66466206 34.42461214 119.66706501 37.0758681 119.67114258 39.72715759 C119.6756602 45.28296394 119.65981319 50.83843323 119.6318512 56.39416504 C119.59978456 62.81490263 119.59982191 69.23503296 119.61706597 75.65581375 C119.63293476 81.83726454 119.62619641 88.01849294 119.60912895 94.19993401 C119.60393911 96.82861775 119.60443861 99.45731897 119.6106739 102.08600044 C119.61611207 105.75632733 119.59579415 109.42561648 119.56837463 113.0958252 C119.57816345 114.73157753 119.57816345 114.73157753 119.58815002 116.40037537 C119.4972222 123.54312134 119.4972222 123.54312134 117.58074951 127.07218933 C113.67910879 129.09857865 110.10371922 128.91909657 105.76832581 128.84851074 C104.83139893 128.84909485 103.89447205 128.84967896 102.92915344 128.85028076 C99.83382556 128.84749514 96.73946192 128.8163801 93.64430237 128.78503418 C91.49768093 128.7775735 89.35105268 128.77187975 87.204422 128.7678833 C81.5555286 128.75261343 75.90704684 128.71331956 70.25831604 128.66906738 C64.49380563 128.6281441 58.72922868 128.60987855 52.96461487 128.58972168 C41.65453822 128.54682694 30.34476703 128.47855892 19.03492737 128.39440918 C20.47466002 126.67761458 21.92572555 124.97323875 23.39642811 123.28281689 C24.76565925 121.70474682 26.10576005 120.10146276 27.43841553 118.49238586 C30.79160234 115.78301722 33.44812628 115.71969545 37.57911682 115.82678223 C38.71001 115.82587821 38.71001 115.82587821 39.8637495 115.82495594 C42.29266565 115.8286739 44.719638 115.86667569 47.14820862 115.90612793 C48.65222755 115.91348391 50.15625927 115.918582 51.66029358 115.92138672 C57.22286734 115.94754856 62.78516667 116.01735528 68.34742737 116.08190918 C87.00273987 116.23659668 87.00273987 116.23659668 106.03492737 116.39440918 C106.03492737 82.40440918 106.03492737 48.41440918 106.03492737 13.39440918 C72.04492737 13.39440918 38.05492737 13.39440918 3.03492737 13.39440918 C3.46941723 37.91199609 3.46941723 37.91199609 4.02589417 62.42687988 C4.07557678 67.20141602 4.07557678 67.20141602 4.08480835 69.44657898 C4.10154726 70.9931179 4.13992185 72.53952566 4.19625854 74.08512878 C4.69364708 88.46772729 4.69364708 88.46772729 -0.92695141 94.52709484 C-7.06998634 100.39440918 -7.06998634 100.39440918 -8.96507263 100.39440918 C-9.05764347 87.79905517 -9.12877205 75.20378172 -9.17232132 62.60815716 C-9.19321998 56.75984899 -9.2215795 50.9117731 -9.26683044 45.06359863 C-9.31020646 39.42260764 -9.33419256 33.78184043 -9.3445816 28.14069557 C-9.35198778 25.98562915 -9.36644982 23.83057534 -9.38799286 21.67560387 C-9.41691691 18.66322478 -9.42103321 15.65177722 -9.41917419 12.63928223 C-9.4335553 11.74304642 -9.4479364 10.84681061 -9.4627533 9.92341614 C-9.45725464 9.1031192 -9.45175598 8.28282227 -9.4460907 7.43766785 C-9.44977787 6.72512187 -9.45346504 6.01257589 -9.45726395 5.27843761 C-8.96507263 3.39440918 -8.96507263 3.39440918 -7.24532604 1.66635609 C-4.59731025 0.18926785 -3.0180062 0.01297409 0 0 Z " fill="#FEFCFA" transform="translate(130.96507263183594,261.6055908203125)"></path><path d="M0 0 C0.93692688 -0.00058411 1.87385376 -0.00116821 2.83917236 -0.00177002 C5.93450024 0.0010156 9.02886389 0.03213064 12.12402344 0.06347656 C14.27064488 0.07093724 16.41727313 0.07663099 18.56390381 0.08062744 C24.2127972 0.09589732 29.86127897 0.13519118 35.51000977 0.17944336 C41.27452018 0.22036664 47.03909712 0.23863219 52.80371094 0.25878906 C64.11378759 0.3016838 75.42355878 0.36995182 86.73339844 0.45410156 C85.29366579 2.17089616 83.84260026 3.87527199 82.3718977 5.56569386 C81.00266655 7.14376393 79.66256576 8.74704798 78.32991028 10.35612488 C74.97672346 13.06549352 72.32019953 13.12881529 68.18920898 13.02172852 C67.05831581 13.02263253 67.05831581 13.02263253 65.9045763 13.0235548 C63.47566015 13.01983685 61.04868781 12.98183506 58.62011719 12.94238281 C57.11609826 12.93502683 55.61206653 12.92992874 54.10803223 12.92712402 C48.54545847 12.90096218 42.98315914 12.83115546 37.42089844 12.76660156 C24.98402344 12.66347656 12.54714844 12.56035156 -0.26660156 12.45410156 C-0.26660156 46.44410156 -0.26660156 80.43410156 -0.26660156 115.45410156 C33.72339844 115.45410156 67.71339844 115.45410156 102.73339844 115.45410156 C102.29890858 90.93651466 102.29890858 90.93651466 101.74243164 66.42163086 C101.69274902 61.64709473 101.69274902 61.64709473 101.68351746 59.40193176 C101.66677855 57.85539284 101.62840396 56.30898508 101.57206726 54.76338196 C101.07467873 40.38078346 101.07467873 40.38078346 106.69527721 34.3214159 C112.83831215 28.45410156 112.83831215 28.45410156 114.73339844 28.45410156 C114.82601431 40.90180023 114.89712085 53.34941714 114.94064713 65.79738998 C114.96153592 71.5772899 114.98987755 77.35695436 115.03515625 83.13671875 C115.0785673 88.71287607 115.1025258 94.28880669 115.11290741 99.86511993 C115.12030726 101.99424052 115.13475718 104.12334848 115.15631866 106.25237274 C115.18528921 109.23102281 115.18935705 112.20873207 115.1875 115.1875 C115.2018811 116.07078979 115.21626221 116.95407959 115.2310791 117.86413574 C115.20709542 121.4113481 115.06006317 123.82513634 113.41117859 126.99992371 C108.95902523 129.41768112 104.41714938 129.01736457 99.43481445 128.98754883 C98.28158691 128.9961644 97.12835938 129.00477997 95.94018555 129.01365662 C92.12233126 129.03638732 88.30520678 129.02956397 84.48730469 129.02050781 C82.50669351 129.02441816 80.52608195 129.0283386 78.54547447 129.03380722 C72.31823726 129.05080536 66.09124509 129.04724182 59.86401367 129.03051758 C53.44382148 129.01359783 47.02430927 129.02942801 40.60419136 129.06174046 C35.08810354 129.08844913 29.57222722 129.09570897 24.05608124 129.08722538 C20.76324381 129.08229946 17.47090561 129.08659533 14.17810249 129.10501289 C10.50535452 129.12240457 6.83406582 129.10795803 3.16137695 129.08520508 C2.07289963 129.09689728 0.9844223 129.10858948 -0.13703918 129.12063599 C-4.63896482 129.06380388 -7.4943502 128.89806889 -11.44140625 126.62890625 C-14.20160122 121.82773245 -13.95624462 117.47582188 -13.89770508 112.02612305 C-13.90486038 110.87114319 -13.91201569 109.71616333 -13.91938782 108.52618408 C-13.93629542 104.70878542 -13.91685938 100.89255753 -13.89550781 97.07519531 C-13.89633626 94.42389861 -13.8987392 91.77264265 -13.90281677 89.12135315 C-13.9073344 83.5655468 -13.89148738 78.01007751 -13.86352539 72.4543457 C-13.83145876 66.03360811 -13.83149611 59.61347779 -13.84874016 53.19269699 C-13.86460895 47.0112462 -13.8578706 40.8300178 -13.84080315 34.64857674 C-13.83561331 32.019893 -13.8361128 29.39119177 -13.8423481 26.7625103 C-13.84778626 23.09218341 -13.82746834 19.42289427 -13.80004883 15.75268555 C-13.80657471 14.66218399 -13.81310059 13.57168243 -13.81982422 12.44813538 C-13.72889639 5.3053894 -13.72889639 5.3053894 -11.81242371 1.77632141 C-7.91078299 -0.25006791 -4.33539341 -0.07058583 0 0 Z " fill="#FEFCFA" transform="translate(275.2666015625,121.5458984375)"></path><path d="M0 0 C4.44995051 2.22497525 6.60084691 4.44633995 10 8 C8.67289741 10.94209835 7.23210009 13.01614431 4.95016479 15.29034424 C4.32476807 15.9184903 3.69937134 16.54663635 3.05502319 17.19381714 C2.02787704 18.21017746 2.02787704 18.21017746 0.97998047 19.24707031 C0.25792419 19.96941864 -0.46413208 20.69176697 -1.20806885 21.43600464 C-3.59493989 23.82148279 -5.9888162 26.19979939 -8.3828125 28.578125 C-10.03948779 30.23107002 -11.69572195 31.88445727 -13.35153198 33.53826904 C-17.71025917 37.88936088 -22.07495924 42.23441313 -26.44091797 46.57824707 C-30.89521505 51.01208371 -35.34385418 55.45158909 -39.79296875 59.890625 C-48.52311091 68.59931895 -57.26008621 77.30111274 -66 86 C-46.2 86.495 -46.2 86.495 -26 87 C-26 91.29 -26 95.58 -26 100 C-33.90160458 100.06775484 -41.80298364 100.12280356 -49.70480061 100.15543652 C-53.37386676 100.17109805 -57.04272401 100.19234475 -60.71166992 100.22631836 C-64.25188947 100.25889514 -67.79190799 100.27684934 -71.33226585 100.28463173 C-73.34147655 100.29287924 -75.35060628 100.31630137 -77.35969543 100.33988953 C-79.19125435 100.34022942 -79.19125435 100.34022942 -81.05981445 100.34057617 C-82.67530937 100.35056892 -82.67530937 100.35056892 -84.32344055 100.36076355 C-87 100 -87 100 -88.84997559 98.84997559 C-90.50011329 96.19549763 -90.3598388 94.17393974 -90.34057617 91.05981445 C-90.34034958 89.83877518 -90.34012299 88.6177359 -90.33988953 87.35969543 C-90.32440567 86.04087875 -90.30892181 84.72206207 -90.29296875 83.36328125 C-90.28737243 81.99993862 -90.2831025 80.63658996 -90.28010559 79.27323914 C-90.26865949 75.68756408 -90.23919486 72.10225446 -90.20599365 68.51672363 C-90.17528739 64.8569025 -90.1615991 61.19702223 -90.14648438 57.53710938 C-90.1143244 50.35788715 -90.06155899 43.17904136 -90 36 C-85.71 36 -81.42 36 -77 36 C-76.67 49.2 -76.34 62.4 -76 76 C-50.92 50.92 -25.84 25.84 0 0 Z " fill="#FDF9F6" transform="translate(167,335)"></path><path d="M0 0 C7.90160458 -0.06775484 15.80298364 -0.12280356 23.70480061 -0.15543652 C27.37386676 -0.17109805 31.04272401 -0.19234475 34.71166992 -0.22631836 C38.25188947 -0.25889514 41.79190799 -0.27684934 45.33226585 -0.28463173 C47.34147655 -0.29287924 49.35060628 -0.31630137 51.35969543 -0.33988953 C53.19125435 -0.34022942 53.19125435 -0.34022942 55.05981445 -0.34057617 C56.67530937 -0.35056892 56.67530937 -0.35056892 58.32344055 -0.36076355 C61 0 61 0 62.84997559 1.15002441 C64.50011329 3.80450237 64.3598388 5.82606026 64.34057617 8.94018555 C64.34034958 10.16122482 64.34012299 11.3822641 64.33988953 12.64030457 C64.32440567 13.95912125 64.30892181 15.27793793 64.29296875 16.63671875 C64.28737243 18.00006138 64.2831025 19.36341004 64.28010559 20.72676086 C64.26865949 24.31243592 64.23919486 27.89774554 64.20599365 31.48327637 C64.17528739 35.1430975 64.1615991 38.80297777 64.14648438 42.46289062 C64.1143244 49.64211285 64.06155899 56.82095864 64 64 C59.71 64 55.42 64 51 64 C50.67 50.8 50.34 37.6 50 24 C24.92 49.08 -0.16 74.16 -26 100 C-30.44995051 97.77502475 -32.60084691 95.55366005 -36 92 C-34.67289741 89.05790165 -33.23210009 86.98385569 -30.95016479 84.70965576 C-30.32476807 84.0815097 -29.69937134 83.45336365 -29.05502319 82.80618286 C-28.37025909 82.12860931 -27.685495 81.45103577 -26.97998047 80.75292969 C-26.25792419 80.03058136 -25.53586792 79.30823303 -24.79193115 78.56399536 C-22.40506011 76.17851721 -20.0111838 73.80020061 -17.6171875 71.421875 C-15.96051221 69.76892998 -14.30427805 68.11554273 -12.64846802 66.46173096 C-8.28974083 62.11063912 -3.92504076 57.76558687 0.44091797 53.42175293 C4.89521505 48.98791629 9.34385418 44.54841091 13.79296875 40.109375 C22.52311091 31.40068105 31.26008621 22.69888726 40 14 C20.2 13.505 20.2 13.505 0 13 C0 8.71 0 4.42 0 0 Z " fill="#FEFAF5" transform="translate(371,77)"></path></svg>