<svg version="1.1" xmlns="http://www.w3.org/2000/svg" width="16px" height="16px" fill="currentColor" viewBox="0 0 512 512"><path d="M0 0 C168.96 0 337.92 0 512 0 C512 168.96 512 337.92 512 512 C343.04 512 174.08 512 0 512 C0 343.04 0 174.08 0 0 Z " fill="#7646D3" transform="translate(0,0)"></path><path d="M0 0 C1.26328125 -0.00322266 2.5265625 -0.00644531 3.828125 -0.00976562 C14.92005718 0.05299737 25.78590619 1.00947808 36.25 4.875 C36.95471436 5.13112061 37.65942871 5.38724121 38.38549805 5.65112305 C61.32617329 14.32279484 83.28801289 29.97120777 96 51.3125 C96.34724121 51.87485352 96.69448242 52.43720703 97.05224609 53.01660156 C103.18845687 63.00067887 107.68982389 73.07445212 111 84.3125 C111.3403125 85.41851562 111.680625 86.52453125 112.03125 87.6640625 C119.90641545 118.80013331 112.25956196 151.02210699 96.19921875 178.03125 C92.27316771 183.88894604 87.74972475 189.11309717 83 194.3125 C82.35546875 195.03953125 81.7109375 195.7665625 81.046875 196.515625 C62.40637341 216.45285714 34.68419982 228.24870394 7.66601562 229.41308594 C-2.38725733 229.74012012 -12.1307785 229.43083166 -22 227.3125 C-23.14210937 227.07917969 -24.28421875 226.84585938 -25.4609375 226.60546875 C-42.0174804 222.73992195 -56.76271697 214.85425328 -70 204.3125 C-70.83917969 203.64476562 -71.67835938 202.97703125 -72.54296875 202.2890625 C-84.01783246 192.6114666 -93.33397818 179.64454365 -100 166.3125 C-119.14 165.9825 -138.28 165.6525 -158 165.3125 C-158 161.0225 -158 156.7325 -158 152.3125 C-140.84 152.3125 -123.68 152.3125 -106 152.3125 C-107.32 147.6925 -108.64 143.0725 -110 138.3125 C-110.495 132.3725 -110.495 132.3725 -111 126.3125 C-130.8 126.3125 -150.6 126.3125 -171 126.3125 C-171 122.0225 -171 117.7325 -171 113.3125 C-151.53 113.3125 -132.06 113.3125 -112 113.3125 C-112 109.6825 -112 106.0525 -112 102.3125 C-110.515 94.8875 -110.515 94.8875 -109 87.3125 C-125.17 87.3125 -141.34 87.3125 -158 87.3125 C-158 83.0225 -158 78.7325 -158 74.3125 C-140.18 74.3125 -122.36 74.3125 -104 74.3125 C-103.67 72.6625 -103.34 71.0125 -103 69.3125 C-91.17115209 40.89085722 -68.87390139 19.82481485 -41 7.3125 C-36.71601513 5.67324439 -32.43745806 4.45318485 -28 3.3125 C-27.03416992 3.04719482 -26.06833984 2.78188965 -25.07324219 2.50854492 C-16.62194905 0.33572536 -8.70054718 -0.11097637 0 0 Z " fill="#7847D4" transform="translate(241,115.6875)"></path><path d="M0 0 C1.14876617 0.00039276 1.14876617 0.00039276 2.32073975 0.00079346 C43.10073193 0.16491723 80.49018113 17.52531308 109.13671875 46.34765625 C111.92491357 49.30290412 114.59412145 52.31165525 117.1875 55.4375 C117.63158203 55.97117188 118.07566406 56.50484375 118.53320312 57.0546875 C138.00814053 80.92899925 151.10208486 112.81904292 151.42578125 143.828125 C151.44054001 144.99551712 151.44054001 144.99551712 151.45559692 146.18649292 C151.78117925 178.58536341 151.78117925 178.58536341 147.1875 193.4375 C146.94080566 194.25766602 146.69411133 195.07783203 146.43994141 195.92285156 C143.02948634 207.00630714 138.60284139 217.37482137 133.15478516 227.59960938 C131.4435287 230.85108303 129.82193483 234.14688619 128.1875 237.4375 C128.78699463 238.03175781 129.38648926 238.62601563 130.00415039 239.23828125 C132.26324527 241.48016107 134.51994873 243.72441531 136.77514648 245.97021484 C137.74492273 246.93501459 138.7156007 247.89890895 139.68725586 248.86181641 C141.09735927 250.25955687 142.5037727 251.66101674 143.91015625 253.0625 C145.17484741 254.31933594 145.17484741 254.31933594 146.46508789 255.6015625 C148.53187138 257.75453148 150.48560061 259.92290796 152.42724609 262.18383789 C156.59507063 266.98537767 161.09610184 271.41675011 165.62890625 275.87109375 C167.44755618 277.67223271 169.2659065 279.47367424 171.08398438 281.27539062 C173.92013956 284.0805979 176.75803443 286.88392209 179.60229492 289.6809082 C182.36803986 292.40411425 185.12407194 295.13685662 187.87890625 297.87109375 C188.72280411 298.6963707 189.56670197 299.52164764 190.43617249 300.37193298 C199.31127567 309.20860926 206.20447578 318.03088115 206.5625 330.875 C206.31372504 340.64507104 203.45731001 347.7060889 196.875 355 C187.86501577 363.17184616 180.64509777 365.11366816 168.64453125 364.8046875 C155.88720783 364.05441321 147.45054967 354.00262095 139.27331543 345.1754303 C131.80832037 337.12520652 124.12877046 329.30513123 116.34375 321.56640625 C115.8300246 321.05537479 115.31629921 320.54434334 114.78700638 320.01782608 C109.99375414 315.25083394 105.19380528 310.49061514 100.38916016 305.73510742 C97.72759481 303.10021908 95.0708417 300.46055828 92.41703796 297.81785393 C91.41415197 296.82116817 90.40937341 295.82638296 89.40266418 294.83355904 C88.0133222 293.46329925 86.63050437 292.08643377 85.24804688 290.70922852 C84.4613562 289.92999527 83.67466553 289.15076202 82.86413574 288.34791565 C81.1875 286.4375 81.1875 286.4375 81.1875 284.4375 C80.60226562 284.7778125 80.01703125 285.118125 79.4140625 285.46875 C46.05892888 304.29987649 8.08411458 313.30692043 -29.8125 304.4375 C-31.73642578 304.03724609 -31.73642578 304.03724609 -33.69921875 303.62890625 C-61.47876232 297.59107923 -85.5197195 282.98641025 -105.8125 263.4375 C-106.50601563 262.80714844 -107.19953125 262.17679687 -107.9140625 261.52734375 C-118.13613621 251.95729532 -126.21294372 239.70709759 -132.8125 227.4375 C-130.62732901 225.03174393 -128.55330329 223.64214419 -125.625 222.25 C-124.90957031 221.90582031 -124.19414063 221.56164062 -123.45703125 221.20703125 C-122.91433594 220.95308594 -122.37164062 220.69914063 -121.8125 220.4375 C-121.31943359 221.18580078 -121.31943359 221.18580078 -120.81640625 221.94921875 C-119.7824753 223.50992212 -118.74272685 225.06677748 -117.69921875 226.62109375 C-116.39798458 228.56351577 -115.10966296 230.51462896 -113.83203125 232.47265625 C-94.42936126 261.55899031 -65.12122176 281.89996757 -31.1875 290.1875 C-29.89948486 290.50400513 -29.89948486 290.50400513 -28.58544922 290.8269043 C6.62913146 299.00471382 42.89831979 290.89973622 73.61328125 272.79296875 C100.49262401 255.64153111 119.38200871 230.1360282 130.1875 200.4375 C130.56648438 199.468125 130.94546875 198.49875 131.3359375 197.5 C140.34849205 173.1051155 140.78625754 140.25677792 133.1875 115.4375 C133.00558105 114.79055176 132.82366211 114.14360352 132.63623047 113.47705078 C127.09352993 93.77792651 116.3088397 75.9928622 103.1875 60.4375 C102.67574219 59.80328125 102.16398438 59.1690625 101.63671875 58.515625 C82.27101835 34.92183368 50.85043429 19.97126027 21.1875 15.4375 C19.93839844 15.24542969 18.68929687 15.05335937 17.40234375 14.85546875 C-19.62998473 10.47676914 -56.2154175 20.69377377 -85.4375 43.6875 C-103.23443394 58.91911013 -115.46998372 75.48413943 -125.8125 96.4375 C-130.2097938 95.65525257 -133.75809445 94.26595741 -137.8125 92.4375 C-135.97546938 86.23752165 -133.64209109 80.78839462 -130.3125 75.25 C-129.87744141 74.52022949 -129.44238281 73.79045898 -128.99414062 73.03857422 C-124.51327961 65.68925902 -119.37947025 58.98961361 -113.8125 52.4375 C-112.9771875 51.44878906 -112.141875 50.46007812 -111.28125 49.44140625 C-105.65323321 43.02083646 -99.56659725 37.640864 -92.8125 32.4375 C-91.46091797 31.34501953 -91.46091797 31.34501953 -90.08203125 30.23046875 C-64.25413121 9.88877092 -32.66191583 -0.02573411 0 0 Z " fill="#FBFAFE" transform="translate(241.8125,76.5625)"></path><path d="M0 0 C2.12489246 2.05978433 3.25865057 4.03380691 3.59936523 6.97363281 C3.55912166 14.73259357 2.55408337 22.20474281 1.33984375 29.859375 C-1.68895254 43.06102567 -1.68895254 43.06102567 1.203125 55.40625 C2.01136719 56.09203125 2.81960938 56.7778125 3.65234375 57.484375 C6.94605813 60.34847446 9.39930952 62.78422603 11.33984375 66.734375 C11.33984375 70.76188365 10.93866309 72.92906623 8.52734375 76.171875 C3.60294375 78.58579657 -1.27256231 78.04371054 -6.66015625 77.734375 C-6.73363281 78.971875 -6.73363281 78.971875 -6.80859375 80.234375 C-7.24083905 86.91181966 -7.76396164 93.58043356 -8.47265625 100.234375 C-8.60285156 101.5234375 -8.73304688 102.8125 -8.8671875 104.140625 C-9.95211988 109.05755995 -12.24880308 112.23481226 -15.66015625 115.859375 C-36.40559479 128.82527409 -66.03222081 126.15440626 -88.73046875 121.04296875 C-94.10792297 119.60404751 -99.5318736 117.57663345 -103.66015625 113.734375 C-106.02181716 109.59670624 -107.12823991 106.15369405 -107.65234375 101.43359375 C-107.79760498 100.16942627 -107.94286621 98.90525879 -108.0925293 97.6027832 C-108.24040348 96.20918231 -108.38793491 94.81554501 -108.53515625 93.421875 C-108.69821339 91.95849245 -108.86205454 90.49519709 -109.02661133 89.03198242 C-110.80336253 73.05196876 -112.39985631 57.0502502 -113.99755859 41.05151367 C-114.10073898 40.02186493 -114.20391937 38.99221619 -114.31022644 37.93136597 C-114.50370179 35.9975993 -114.69593502 34.06370778 -114.88667297 32.12966919 C-115.36903375 27.31040322 -115.95523929 22.52735284 -116.66015625 17.734375 C-116.84019879 15.55071616 -116.96663649 13.36187187 -117.03515625 11.171875 C-117.08414063 10.09808594 -117.133125 9.02429688 -117.18359375 7.91796875 C-116.50697632 3.80272093 -114.69863493 1.43956624 -111.66015625 -1.265625 C-83.79517284 -19.18131346 -26.94115531 -20.53866899 0 0 Z " fill="#FCFBFE" transform="translate(301.66015625,174.265625)"></path><path d="M0 0 C1.26328125 -0.00322266 2.5265625 -0.00644531 3.828125 -0.00976562 C14.92005718 0.05299737 25.78590619 1.00947808 36.25 4.875 C36.95471436 5.13112061 37.65942871 5.38724121 38.38549805 5.65112305 C61.32617329 14.32279484 83.28801289 29.97120777 96 51.3125 C96.34724121 51.87485352 96.69448242 52.43720703 97.05224609 53.01660156 C103.18845687 63.00067887 107.68982389 73.07445212 111 84.3125 C111.3403125 85.41851562 111.680625 86.52453125 112.03125 87.6640625 C119.90641545 118.80013331 112.25956196 151.02210699 96.19921875 178.03125 C92.27316771 183.88894604 87.74972475 189.11309717 83 194.3125 C82.35546875 195.03953125 81.7109375 195.7665625 81.046875 196.515625 C62.40637341 216.45285714 34.68419982 228.24870394 7.66601562 229.41308594 C-2.38725733 229.74012012 -12.1307785 229.43083166 -22 227.3125 C-23.14210937 227.07917969 -24.28421875 226.84585938 -25.4609375 226.60546875 C-42.0174804 222.73992195 -56.76271697 214.85425328 -70 204.3125 C-70.83917969 203.64476562 -71.67835938 202.97703125 -72.54296875 202.2890625 C-84.01783246 192.6114666 -93.33397818 179.64454365 -100 166.3125 C-119.14 165.9825 -138.28 165.6525 -158 165.3125 C-158 161.0225 -158 156.7325 -158 152.3125 C-140.84 152.3125 -123.68 152.3125 -106 152.3125 C-107.32 147.6925 -108.64 143.0725 -110 138.3125 C-110.495 132.3725 -110.495 132.3725 -111 126.3125 C-130.8 126.3125 -150.6 126.3125 -171 126.3125 C-171 122.0225 -171 117.7325 -171 113.3125 C-151.53 113.3125 -132.06 113.3125 -112 113.3125 C-112 109.6825 -112 106.0525 -112 102.3125 C-110.515 94.8875 -110.515 94.8875 -109 87.3125 C-125.17 87.3125 -141.34 87.3125 -158 87.3125 C-158 83.0225 -158 78.7325 -158 74.3125 C-140.18 74.3125 -122.36 74.3125 -104 74.3125 C-103.67 72.6625 -103.34 71.0125 -103 69.3125 C-91.17115209 40.89085722 -68.87390139 19.82481485 -41 7.3125 C-36.71601513 5.67324439 -32.43745806 4.45318485 -28 3.3125 C-27.03416992 3.04719482 -26.06833984 2.78188965 -25.07324219 2.50854492 C-16.62194905 0.33572536 -8.70054718 -0.11097637 0 0 Z M-26 16.3125 C-27.62440592 16.73147676 -29.24931438 17.14851645 -30.875 17.5625 C-46.45541306 22.38917692 -59.40590596 32.10746952 -71 43.3125 C-71.66515625 43.951875 -72.3303125 44.59125 -73.015625 45.25 C-91.59726688 64.58699318 -99.54061696 90.26211827 -99.28125 116.54125977 C-98.76122083 140.75129445 -91.10798985 162.94875615 -75 181.3125 C-74.39800781 182.05757812 -73.79601562 182.80265625 -73.17578125 183.5703125 C-57.98388506 201.85154607 -34.73310563 213.35389836 -11.29638672 216.10595703 C15.59847767 218.52495079 41.7695239 212.51344198 63.08496094 195.39135742 C78.77030987 182.28420147 90.88077418 165.96662362 97 146.3125 C97.30421875 145.33539063 97.6084375 144.35828125 97.921875 143.3515625 C105.58891077 116.95092046 102.11381797 88.28377937 89.12109375 64.28076172 C75.42149468 40.22889594 52.70407386 22.68868057 26 15.3125 C24.74832031 14.96574219 23.49664062 14.61898437 22.20703125 14.26171875 C16.09695692 12.92752137 9.96665901 12.97668988 3.7355957 12.99682617 C1.7014357 12.9999784 -0.3312539 12.97648298 -2.36523438 12.95117188 C-10.71355827 12.94709355 -18.01709106 13.90990661 -26 16.3125 Z " fill="#FCFAFE" transform="translate(241,115.6875)"></path><path d="M0 0 C1.52119093 0.26881752 3.04191853 0.54025616 4.5625 0.8125 C5.58037598 0.99312988 6.59825195 1.17375977 7.64697266 1.35986328 C9.85380422 1.78117625 12.05262088 2.24733021 14.23974609 2.76123047 C23.76233688 4.93793746 32.84681126 5.43604862 42.59790039 5.33618164 C45.06364595 5.31248899 47.5283089 5.31566268 49.99414062 5.32226562 C62.04435207 5.30117354 73.63156457 4.24561755 85.375 1.375 C86.45523438 1.11460937 87.53546875 0.85421875 88.6484375 0.5859375 C89.42445313 0.39257812 90.20046875 0.19921875 91 0 C90.62616185 8.0181837 89.82286837 15.83827548 88.5 23.75 C88.36940186 24.53616699 88.23880371 25.32233398 88.10424805 26.13232422 C87.1354612 31.72907759 87.1354612 31.72907759 86 34 C82.49228519 33.39407948 79.43385675 32.47402412 76.1640625 31.07421875 C75.26429688 30.68943359 74.36453125 30.30464844 73.4375 29.90820312 C72.509375 29.50537109 71.58125 29.10253906 70.625 28.6875 C69.70460938 28.29626953 68.78421875 27.90503906 67.8359375 27.50195312 C53.67090655 21.40087194 53.67090655 21.40087194 49 15 C46.11138291 13.55569145 44.20352299 13.62311494 41 14 C37.97966263 15.93692369 37.97966263 15.93692369 36 19 C35.48394554 23.20215772 35.54726688 26.45716327 38 30 C40.21501796 31.10750898 41.59982706 31.15470377 44.0546875 31.30078125 C49.35358694 31.84803075 53.4316771 33.77171817 58.125 36.1875 C59.77939633 37.00765609 61.43567738 37.82402052 63.09375 38.63671875 C64.32158203 39.2387915 64.32158203 39.2387915 65.57421875 39.85302734 C70.37815554 42.12445398 75.33062086 44.00322336 80.2890625 45.90625 C83 47 83 47 84 48 C83.83919139 54.84055077 82.85115755 61.70415422 82.0625 68.5 C81.98797607 69.18199463 81.91345215 69.86398926 81.83666992 70.56665039 C81.00256333 77.42268285 81.00256333 77.42268285 79 80 C60.4597867 88.70138845 32.85027092 88.79039018 13.5625 81.9375 C9.22413793 80.22413793 9.22413793 80.22413793 8 79 C7.74599915 77.11147606 7.5541159 75.2145678 7.38671875 73.31640625 C7.27505371 72.09493896 7.16338867 70.87347168 7.04833984 69.61499023 C6.98974792 68.95586639 6.93115601 68.29674255 6.87078857 67.61764526 C5.62321983 53.62913008 4.07958088 39.68786207 2.3581543 25.75024414 C1.30928143 17.17343296 0.52679206 8.62474733 0 0 Z " fill="#7848D3" transform="translate(199,200)"></path><path d="M0 0 C3.2239517 1.41539343 5.35666792 3.11414928 7.8125 5.625 C8.43769531 6.25664062 9.06289063 6.88828125 9.70703125 7.5390625 C11.53705675 9.50314438 13.28415482 11.49599217 15.02807617 13.53466797 C19.41125 18.55066702 24.11318741 23.22017072 28.84375 27.90625 C30.2619165 29.31862932 31.68008007 30.73101161 33.09807587 32.14356232 C35.56323132 34.59787501 38.03170509 37.04884533 40.5 39.5 C43.44985631 42.42937203 46.39907839 45.35936285 49.34436035 48.29333496 C51.17068429 50.11220613 52.99925361 51.92882652 54.83044434 53.74279785 C74.06361431 72.90013381 74.06361431 72.90013381 74.3125 82.1875 C74.22749237 88.63107817 72.77494315 93.11153645 68.28125 97.7890625 C62.60022837 102.86828099 57.9127172 103.49996192 50.33984375 103.3828125 C42.26353693 102.45710716 37.74217204 96.85057928 32.53417969 91.0793457 C26.21805573 84.16280505 19.65325677 77.52435278 13.015625 70.91796875 C11.8218612 69.72607714 10.62832325 68.53395928 9.43499756 67.34162903 C6.34012112 64.25051487 3.24225112 61.16241891 0.14367676 58.07501221 C-3.03629199 54.90539532 -6.21332229 51.73283587 -9.390625 48.56054688 C-15.59093049 42.37086728 -21.79441196 36.18438345 -28 30 C-26.11102112 25.82530096 -23.25424034 23.24921867 -19.875 20.25 C-18.69423943 19.18087142 -17.51455032 18.1105583 -16.3359375 17.0390625 C-15.76327148 16.51989258 -15.19060547 16.00072266 -14.60058594 15.46582031 C-9.33139752 10.64028534 -4.46198752 5.5774844 0 0 Z " fill="#7848D4" transform="translate(361,325)"></path><path d="M0 0 C0.495 1.485 0.495 1.485 1 3 C-13.20742293 10.47292724 -27.34709958 11.52097738 -43.0871582 11.44604492 C-45.79911561 11.43754196 -48.50895227 11.46640365 -51.22070312 11.49804688 C-59.94398285 11.53417652 -68.28401368 11.09068122 -76.82421875 9.22265625 C-77.53399368 9.06744003 -78.24376862 8.91222382 -78.97505188 8.75230408 C-84.06116008 7.50732965 -88.383217 5.4626504 -93 3 C-93 2.34 -93 1.68 -93 1 C-67.92583993 -12.71982343 -25.72264911 -13.22418324 0 0 Z " fill="#7F4ED9" transform="translate(291,182)"></path><path d="M0 0 C0.99 0 1.98 0 3 0 C2.34 1.98 1.68 3.96 1 6 C0.34 5.67 -0.32 5.34 -1 5 C-0.67 3.35 -0.34 1.7 0 0 Z " fill="#8C62DB" transform="translate(241,220)"></path></svg>