<svg version="1.1" xmlns="http://www.w3.org/2000/svg" width="16px" height="16px" fill="currentColor" viewBox="0 0 512 512"><path d="M0 0 C168.96 0 337.92 0 512 0 C512 168.96 512 337.92 512 512 C343.04 512 174.08 512 0 512 C0 343.04 0 174.08 0 0 Z " fill="#2D907A" transform="translate(0,0)"></path><path d="M0 0 C2.86887976 1.81755115 5.43801942 3.77833263 8 6 C8.845625 6.5775 9.69125 7.155 10.5625 7.75 C19.78956535 16.26729109 26.29254535 29.42409594 27.21875 41.9609375 C27.68244868 58.229033 22.34724613 71.97085975 11.24609375 83.84375 C9 86 9 86 6.28515625 88.15625 C3.92880978 89.7963124 3.92880978 89.7963124 3 92 C4.258125 92.350625 5.51625 92.70125 6.8125 93.0625 C17.19172908 96.56020259 25.19790215 103.54765136 33 111 C33.60328125 111.52851563 34.2065625 112.05703125 34.828125 112.6015625 C49.86021382 126.29902661 59.0576184 148.17843932 60.34765625 168.2734375 C60.65455738 177.72800848 60.65455738 177.72800848 58.88806152 181.16081333 C56.13444499 183.84314902 54.15691606 183.50055231 50.35742188 183.50120544 C49.33994747 183.50950704 49.33994747 183.50950704 48.30191803 183.51797634 C46.02382517 183.53161448 43.74682199 183.51659786 41.46875 183.50170898 C39.83772312 183.50549104 38.20669944 183.51099015 36.57568359 183.51808167 C32.1417809 183.53206845 27.70826485 183.52084406 23.27438354 183.50437045 C18.6392993 183.4905428 14.00423803 183.49697742 9.36914062 183.50050354 C1.58457186 183.50320748 -6.19984288 183.48971432 -13.984375 183.46655273 C-22.99068546 183.43994182 -31.99673834 183.4381952 -41.00307465 183.4499411 C-49.65874027 183.46071182 -58.3143125 183.45453737 -66.9699707 183.44038582 C-70.65733033 183.43461987 -74.34462177 183.43471346 -78.03198242 183.43945122 C-82.37240634 183.4442156 -86.71254739 183.43414187 -91.05291748 183.41249657 C-92.64808193 183.40692114 -94.24327352 183.40647032 -95.83843994 183.41144943 C-98.01175022 183.41738354 -100.18419015 183.40493457 -102.35742188 183.38768005 C-104.18364075 183.38403521 -104.18364075 183.38403521 -106.04675293 183.38031673 C-109 183 -109 183 -110.89025879 181.68206882 C-112.72292123 178.9042461 -112.44051697 175.90086122 -112.375 172.6875 C-112.3608606 171.6205188 -112.3608606 171.6205188 -112.34643555 170.53198242 C-111.69581028 147.21575042 -100.50672239 126.31522338 -84.78125 109.6484375 C-76.41488413 101.81277394 -66.13999341 94.88103278 -55 92 C-55.99 91.01 -55.99 91.01 -57 90 C-57.45632812 89.53722656 -57.91265625 89.07445312 -58.3828125 88.59765625 C-59.51902834 87.47516283 -60.68346835 86.38087491 -61.8671875 85.30859375 C-72.16170748 75.71506248 -77.88493703 63.42641354 -79.37890625 49.45703125 C-79.87359402 35.0791705 -74.62701504 20.36705041 -64.8203125 9.6875 C-58.38214192 3.71906719 -51.25332105 -0.99608855 -43 -4 C-42.13890625 -4.35320312 -41.2778125 -4.70640625 -40.390625 -5.0703125 C-26.85973793 -8.78039444 -12.12151468 -6.76835845 0 0 Z " fill="#F9FCFB" transform="translate(291,252)"></path><path d="M0 0 C1.71171387 0.85670288 1.71171387 0.85670288 3.45800781 1.73071289 C4.08554459 2.0396347 4.71308136 2.34855652 5.3596344 2.6668396 C7.38336293 3.66638166 9.3970481 4.68455594 11.41113281 5.70336914 C12.80129751 6.39448519 14.19217135 7.0841766 15.58374023 7.77246094 C17.66292953 8.80137053 19.74146304 9.83143531 21.81730652 10.86708069 C28.25766022 14.07970385 34.76498687 17.141245 41.30273438 20.15039062 C46.4471319 22.55186823 46.4471319 22.55186823 48.66113281 24.76586914 C48.90722847 27.10469246 48.90722847 27.10469246 48.90164185 30.09353638 C48.90576584 31.78890533 48.90576584 31.78890533 48.90997314 33.51852417 C48.89918732 35.38723679 48.89918732 35.38723679 48.88818359 37.29370117 C48.88847565 38.60097168 48.8887677 39.90824219 48.8890686 41.25512695 C48.88964383 44.84585771 48.87786221 48.4364556 48.86392069 52.0271554 C48.8514415 55.77744535 48.85024506 59.52773815 48.84786987 63.27804565 C48.84164681 70.38245156 48.82522487 77.48679611 48.80517089 84.59117496 C48.78283754 92.67812052 48.77182493 100.76506896 48.76178002 108.85203767 C48.74085932 125.49001845 48.7052658 142.12793356 48.66113281 158.76586914 C44.37113281 158.76586914 40.08113281 158.76586914 35.66113281 158.76586914 C35.66113281 116.85586914 35.66113281 74.94586914 35.66113281 31.76586914 C32.69113281 30.77586914 32.69113281 30.77586914 29.66113281 29.76586914 C28.37450532 29.19207033 27.10058772 28.58821671 25.84643555 27.9465332 C25.16230087 27.5998761 24.4781662 27.25321899 23.77330017 26.89605713 C22.69490623 26.34434845 22.69490623 26.34434845 21.59472656 25.78149414 C20.04241433 25.00330773 18.48966667 24.22598943 16.93652344 23.44946289 C14.50734341 22.2308074 12.08137114 21.00702987 9.66235352 19.76831055 C7.31434588 18.568772 4.95595876 17.39223773 2.59472656 16.21899414 C1.87377304 15.84309143 1.15281952 15.46718872 0.41001892 15.07989502 C-3.63076767 13.09058772 -3.63076767 13.09058772 -8.0078125 13.36010742 C-8.77706055 13.82400879 -9.54630859 14.28791016 -10.33886719 14.76586914 C-11.18215576 15.23460449 -12.02544434 15.70333984 -12.89428711 16.1862793 C-13.77705322 16.72043457 -14.65981934 17.25458984 -15.56933594 17.80493164 C-17.02049805 18.67504883 -17.02049805 18.67504883 -18.50097656 19.56274414 C-20.52994618 20.78877097 -22.55858833 22.01533988 -24.58691406 23.24243164 C-25.55048828 23.81993164 -26.5140625 24.39743164 -27.50683594 24.99243164 C-28.82590942 25.79028076 -28.82590942 25.79028076 -30.17163086 26.60424805 C-32.33886719 27.76586914 -32.33886719 27.76586914 -34.33886719 27.76586914 C-34.33886719 45.58586914 -34.33886719 63.40586914 -34.33886719 81.76586914 C-38.62886719 81.76586914 -42.91886719 81.76586914 -47.33886719 81.76586914 C-47.33886719 66.91586914 -47.33886719 52.06586914 -47.33886719 36.76586914 C-50.65949219 38.72524414 -53.98011719 40.68461914 -57.40136719 42.70336914 C-58.91935913 43.5985022 -58.91935913 43.5985022 -60.46801758 44.51171875 C-62.34117592 45.61783965 -64.19808176 46.75164308 -66.04418945 47.90234375 C-68.5482919 49.3187064 -70.7253543 50.33386123 -73.3815918 51.33447266 C-77.70269699 53.12440731 -81.52591261 54.90776308 -84.33886719 58.76586914 C-86.94474442 66.7480514 -86.06737152 75.55787385 -85.77636719 83.82836914 C-85.74932175 86.14796073 -85.7290702 88.4676421 -85.71582031 90.78735352 C-85.66872904 96.45026671 -85.53690282 102.10633029 -85.33886719 107.76586914 C-84.63761719 108.03085205 -83.93636719 108.29583496 -83.21386719 108.56884766 C-80.13910972 109.84903922 -77.26931666 111.33554123 -74.33886719 112.91821289 C-73.20449219 113.52987305 -72.07011719 114.1415332 -70.90136719 114.77172852 C-70.31613281 115.08907959 -69.73089844 115.40643066 -69.12792969 115.73339844 C-67.34567069 116.69968051 -65.56122395 117.66181738 -63.77636719 118.62329102 C-54.68333824 123.53662654 -54.68333824 123.53662654 -51.77636719 125.47119141 C-48.93379294 126.98102426 -47.51267192 127.22571627 -44.33886719 126.76586914 C-41.64670593 125.59825065 -41.64670593 125.59825065 -38.95214844 123.91430664 C-37.93056641 123.30973633 -36.90898437 122.70516602 -35.85644531 122.08227539 C-34.79876953 121.44161133 -33.74109375 120.80094727 -32.65136719 120.14086914 C-31.61302734 119.5234082 -30.5746875 118.90594727 -29.50488281 118.26977539 C-25.45831874 115.85959616 -21.42326463 113.43238389 -17.41064453 110.96606445 C-16.5142627 110.41789062 -15.61788086 109.8697168 -14.69433594 109.30493164 C-13.90051514 108.81460449 -13.10669434 108.32427734 -12.28881836 107.8190918 C-10.33886719 106.76586914 -10.33886719 106.76586914 -8.33886719 106.76586914 C-8.33886719 87.95586914 -8.33886719 69.14586914 -8.33886719 49.76586914 C-4.37886719 49.76586914 -0.41886719 49.76586914 3.66113281 49.76586914 C3.7741195 58.04136199 3.86583891 66.31625475 3.92019367 74.59231186 C3.94628207 78.43528663 3.98166429 82.27770614 4.03833008 86.12036133 C4.09267992 89.82920023 4.12255906 93.53750532 4.13551903 97.24671173 C4.14475386 98.66136327 4.16278808 100.07598575 4.1897831 101.49040985 C4.22610109 103.47223893 4.22817541 105.45460584 4.22875977 107.43676758 C4.23986282 108.56483826 4.25096588 109.69290894 4.2624054 110.85516357 C3.66113281 113.76586914 3.66113281 113.76586914 1.29266357 116.05967712 C-1.38795801 117.7976979 -4.07614291 119.42997438 -6.87402344 120.97290039 C-7.93169922 121.56006836 -8.989375 122.14723633 -10.07910156 122.75219727 C-11.17544922 123.35483398 -12.27179688 123.9574707 -13.40136719 124.57836914 C-15.55952899 125.77127714 -17.71708277 126.96528583 -19.87402344 128.16040039 C-20.93637207 128.74772949 -21.9987207 129.33505859 -23.09326172 129.94018555 C-27.4317617 132.38063258 -31.70617977 134.92457866 -35.97338867 137.48730469 C-38.33886719 138.76586914 -38.33886719 138.76586914 -40.33886719 138.76586914 C-41.40275599 148.26766062 -42.44402722 158.57854256 -39.33886719 167.76586914 C-33.93782842 174.17405702 -26.17321945 177.57814761 -18.54785156 180.71386719 C-16.33886719 181.76586914 -16.33886719 181.76586914 -15.33886719 183.76586914 C-16.55371094 186.14868164 -16.55371094 186.14868164 -18.27636719 188.89086914 C-18.84226562 189.80094727 -19.40816406 190.71102539 -19.99121094 191.64868164 C-20.4359375 192.34735352 -20.88066406 193.04602539 -21.33886719 193.76586914 C-28.13534721 190.17701219 -34.60998774 186.37161615 -40.92871094 181.98852539 C-43.15144444 180.58452981 -43.15144444 180.58452981 -45.07958984 180.95751953 C-48.23965249 182.08816222 -51.02832782 183.76263725 -53.89746094 185.47680664 C-54.52362808 185.84560944 -55.14979523 186.21441223 -55.79493713 186.59439087 C-57.79155496 187.77187108 -59.78396937 188.95626524 -61.77636719 190.14086914 C-63.11268661 190.93038732 -64.4492725 191.71945467 -65.78613281 192.50805664 C-72.49397859 196.45369141 -72.49397859 196.45369141 -79.13208008 200.5144043 C-81.33886719 201.76586914 -81.33886719 201.76586914 -83.33886719 201.76586914 C-84.23320876 200.36133271 -85.10379911 198.94165045 -85.96386719 197.51586914 C-86.45113281 196.72696289 -86.93839844 195.93805664 -87.44042969 195.12524414 C-88.33886719 192.76586914 -88.33886719 192.76586914 -87.63842773 190.77563477 C-86.12754694 188.43906314 -84.86728595 187.59129684 -82.44433594 186.25024414 C-81.26641479 185.58931763 -81.26641479 185.58931763 -80.06469727 184.91503906 C-78.80822388 184.22244995 -78.80822388 184.22244995 -77.52636719 183.51586914 C-76.25152466 182.76623901 -76.25152466 182.76623901 -74.95092773 182.00146484 C-71.10235274 179.75213736 -67.44397863 177.69025251 -63.19042969 176.32446289 C-59.06238068 174.72518563 -57.18109018 173.1477123 -54.33886719 169.76586914 C-53.4916331 166.33948258 -53.4916331 166.33948258 -53.54980469 162.59790039 C-53.53351517 161.93064941 -53.51722565 161.26339844 -53.5004425 160.57592773 C-53.38714041 153.62741251 -53.79504553 146.69074606 -54.33886719 139.76586914 C-55.09393555 139.34813232 -55.84900391 138.93039551 -56.62695312 138.5 C-59.4903491 136.91498391 -62.35305323 135.32873126 -65.21533203 133.74169922 C-66.44260589 133.06153298 -67.67013558 132.38182809 -68.89794922 131.70263672 C-70.09053413 131.04285694 -71.2827138 130.38234416 -72.4744873 129.72109985 C-73.66775389 129.05949457 -74.86217949 128.39997549 -76.05773926 127.74252319 C-78.98304054 126.1237559 -81.83003962 124.45639586 -84.66113281 122.67260742 C-85.69431641 122.02404785 -86.7275 121.37548828 -87.79199219 120.70727539 C-88.69594727 120.11760986 -89.59990234 119.52794434 -90.53125 118.92041016 C-95.21435882 116.99463436 -98.92435242 118.27327283 -103.56445312 119.88916016 C-104.63985352 120.34476318 -105.71525391 120.80036621 -106.82324219 121.26977539 C-108.0053125 121.7628418 -109.18738281 122.2559082 -110.40527344 122.76391602 C-111.63342402 123.28472647 -112.86128597 123.80621807 -114.08886719 124.32836914 C-116.51856891 125.35695343 -118.95123737 126.37750969 -121.38574219 127.39477539 C-122.45663086 127.84925049 -123.52751953 128.30372559 -124.63085938 128.77197266 C-127.33886719 129.76586914 -127.33886719 129.76586914 -130.33886719 129.76586914 C-130.00886719 142.30586914 -129.67886719 154.84586914 -129.33886719 167.76586914 C-119.63507552 161.7694988 -119.63507552 161.7694988 -109.953125 155.73803711 C-108.73352836 154.99342963 -107.51319936 154.25001979 -106.29199219 153.50805664 C-105.66470215 153.10917236 -105.03741211 152.71028809 -104.39111328 152.29931641 C-102.546875 151.19116211 -102.546875 151.19116211 -99.33886719 149.76586914 C-96.65645832 150.52043565 -95.74717268 151.23154343 -94.07324219 153.42211914 C-91.33886719 158.54364692 -91.33886719 158.54364692 -91.33886719 160.76586914 C-93.57411781 162.26614816 -95.79948864 163.6342737 -98.12792969 164.97680664 C-98.82397308 165.3862149 -99.52001648 165.79562317 -100.2371521 166.21743774 C-102.4753747 167.53224534 -104.71932943 168.83687672 -106.96386719 170.14086914 C-109.18581534 171.43961688 -111.4065181 172.74045153 -113.62631226 174.0428772 C-115.00943067 174.85353524 -116.39398177 175.6617555 -117.78018188 176.46713257 C-119.04752187 177.20677141 -120.30944349 177.95579546 -121.56498718 178.71528625 C-123.25749781 179.71767801 -124.99785022 180.63794603 -126.73901367 181.55322266 C-129.66361649 183.61646685 -129.66361649 183.61646685 -130.28979492 187.35009766 C-130.40172315 188.77938026 -130.47720644 190.21183131 -130.52246094 191.64477539 C-130.58040077 192.79159286 -130.58040077 192.79159286 -130.63951111 193.96157837 C-130.73511454 196.41896614 -130.76670446 198.86920502 -130.77636719 201.32836914 C-130.7841217 202.15599762 -130.79187622 202.9836261 -130.79986572 203.83633423 C-131.06021739 214.91781988 -131.06021739 214.91781988 -126.02246094 224.27368164 C-122.51811516 226.80549393 -118.70227285 228.38291692 -114.6484375 229.83569336 C-110.92051394 231.33710866 -107.83561455 233.68190998 -104.58886719 236.01586914 C-100.7287439 238.90382264 -100.7287439 238.90382264 -96.10913086 239.61791992 C-92.42712425 238.48544411 -89.32452672 236.61422066 -86.06152344 234.61743164 C-85.37255478 234.20423676 -84.68358612 233.79104187 -83.97373962 233.36532593 C-81.77873961 232.0473536 -79.58985588 230.71962023 -77.40136719 229.39086914 C-75.21542367 228.07105419 -73.02823827 226.75335409 -70.83970642 225.43783569 C-69.48115986 224.62043715 -68.1242589 223.80029508 -66.76930237 222.97695923 C-63.03672813 220.72248282 -59.27067678 218.66309687 -55.33886719 216.76586914 C-54.30560733 218.19446321 -53.28759085 219.63409297 -52.27636719 221.07836914 C-51.70789063 221.87887695 -51.13941406 222.67938477 -50.55371094 223.50415039 C-50.1528125 224.25051758 -49.75191406 224.99688477 -49.33886719 225.76586914 C-50.73641829 229.95852246 -53.68607934 231.06874127 -57.33105469 233.17993164 C-58.03279816 233.59503998 -58.73454163 234.01014832 -59.45755005 234.43783569 C-60.94304682 235.31436439 -62.43106977 236.18662373 -63.92138672 237.05493164 C-66.20273976 238.38438466 -68.47642554 239.72620295 -70.74902344 241.07055664 C-72.19260184 241.92024936 -73.63659872 242.76923161 -75.08105469 243.61743164 C-75.76239471 244.018461 -76.44373474 244.41949036 -77.14572144 244.83267212 C-79.85495652 246.40850982 -82.35629048 247.77167691 -85.33886719 248.76586914 C-85.65571519 255.06062163 -85.82576268 261.34791202 -85.90039062 267.65014648 C-85.94223483 269.78645411 -86.01605675 271.92240858 -86.12402344 274.05639648 C-86.97356719 286.17917661 -86.97356719 286.17917661 -82.60736084 297.08685303 C-78.39689647 301.23836921 -73.64781382 304.39895899 -68.57687378 307.40292358 C-65.27199768 309.41559245 -62.26001705 311.76270385 -59.21386719 314.14086914 C-57.59016473 315.3509455 -55.96574516 316.56006547 -54.33886719 317.76586914 C-55.23801417 319.27643608 -56.1588282 320.77412343 -57.08886719 322.26586914 C-57.85457031 323.51883789 -57.85457031 323.51883789 -58.63574219 324.79711914 C-59.19777344 325.44680664 -59.75980469 326.09649414 -60.33886719 326.76586914 C-64.84018777 326.76586914 -65.49964034 326.24740508 -68.90136719 323.58227539 C-69.77567383 322.90567871 -70.64998047 322.22908203 -71.55078125 321.53198242 C-72.47084961 320.80479004 -73.39091797 320.07759766 -74.33886719 319.32836914 C-76.22915948 317.85788927 -78.11978286 316.38783489 -80.01074219 314.91821289 C-81.38069336 313.84676025 -81.38069336 313.84676025 -82.77832031 312.75366211 C-86.9117955 309.54478006 -91.13162732 306.45704181 -95.35449219 303.36743164 C-97.33886719 301.76586914 -97.33886719 301.76586914 -98.33886719 299.76586914 C-98.35144203 298.38139895 -98.29832269 296.99602468 -98.2109375 295.61425781 C-95.93784734 272.95183873 -95.93784734 272.95183873 -101.13671875 251.56079102 C-105.74813133 246.9989209 -111.34420596 244.90158237 -117.41162109 242.86743164 C-122.33757626 241.01372774 -126.53523733 238.10026845 -130.90136719 235.20336914 C-132.08641846 234.46654907 -132.08641846 234.46654907 -133.29541016 233.71484375 C-137.47338585 231.1155897 -137.47338585 231.1155897 -139.33886719 229.76586914 C-140.02665756 229.2792128 -140.71444794 228.79255646 -141.42308044 228.29115295 C-144.36141149 224.41800797 -143.8975628 220.75044621 -143.85644531 216.01196289 C-143.86345459 215.02293976 -143.87046387 214.03391663 -143.87768555 213.0149231 C-143.89529759 209.74411991 -143.88363098 206.4741812 -143.87011719 203.20336914 C-143.87281117 200.93180169 -143.8766928 198.66023537 -143.88171387 196.38867188 C-143.88761329 191.62724837 -143.87903138 186.86612496 -143.86035156 182.10473633 C-143.83756213 175.99777846 -143.85068278 169.89152373 -143.87464142 163.78459167 C-143.88908719 159.09373668 -143.88449893 154.40304871 -143.87413025 149.71218872 C-143.8714596 147.46029579 -143.87474454 145.20838775 -143.88404846 142.95651245 C-143.89419361 139.81052409 -143.87874055 136.66567851 -143.85644531 133.51977539 C-143.8685907 132.12011032 -143.8685907 132.12011032 -143.88098145 130.69216919 C-143.79839945 124.41055466 -143.79839945 124.41055466 -141.56439209 121.27642822 C-139.46134159 119.84899777 -137.57531136 118.77004344 -135.21289062 117.84301758 C-134.41236267 117.52298767 -133.61183472 117.20295776 -132.78704834 116.87322998 C-131.93274231 116.54389465 -131.07843628 116.21455933 -130.19824219 115.87524414 C-129.31606018 115.52576721 -128.43387817 115.17629028 -127.52496338 114.81622314 C-124.71667786 113.70630334 -121.90297256 112.61093782 -119.08886719 111.51586914 C-117.17963713 110.76421906 -115.27077824 110.01162544 -113.36230469 109.25805664 C-108.69205605 107.41636618 -104.01689492 105.58770457 -99.33886719 103.76586914 C-99.34339149 102.82745682 -99.34339149 102.82745682 -99.3480072 101.87008667 C-99.37260308 95.34814832 -99.34842566 88.82767389 -99.29614258 82.3059082 C-99.28301714 79.87332634 -99.28225539 77.44064464 -99.29418945 75.00805664 C-99.30920599 71.50705799 -99.27951009 68.00882851 -99.24121094 64.50805664 C-99.25546616 63.42346161 -99.26972137 62.33886658 -99.28440857 61.22140503 C-99.14370692 53.8542508 -99.14370692 53.8542508 -96.89448547 50.81263733 C-95.12190164 49.24920882 -93.35709827 47.99123873 -91.33886719 46.76586914 C-90.49622314 46.20601318 -89.6535791 45.64615723 -88.78540039 45.06933594 C-87.99480225 44.62243408 -87.2042041 44.17553223 -86.38964844 43.71508789 C-85.01643433 42.92847778 -85.01643433 42.92847778 -83.61547852 42.12597656 C-82.63732178 41.57401611 -81.65916504 41.02205566 -80.65136719 40.45336914 C-72.16070054 35.58425179 -63.73830264 30.62156343 -55.38861084 25.51477051 C-51.87937981 23.37074045 -48.36239485 21.23945542 -44.84597778 19.10723877 C-41.68980425 17.19337352 -38.53562503 15.27636375 -35.38476562 13.35375977 C-32.07921156 11.33893319 -28.7637704 9.34128348 -25.4414978 7.35415649 C-24.17728955 6.59450341 -22.9163137 5.82944159 -21.65884399 5.0586853 C-19.90818828 3.98678986 -18.14687305 2.93495866 -16.38183594 1.88696289 C-15.38176514 1.28295654 -14.38169434 0.6789502 -13.35131836 0.05664062 C-8.49951369 -2.02225485 -4.91760093 -1.8176713 0 0 Z " fill="#FAFCFC" transform="translate(220.3388671875,72.234130859375)"></path><path d="M0 0 C3.65793765 3.06135464 7.04225605 6.34841006 10.39404297 9.73974609 C11.06177734 10.39716797 11.72951172 11.05458984 12.41748047 11.73193359 C23.75729357 23.68748315 31.39404297 41.25535515 31.39404297 57.73974609 C-16.78595703 57.73974609 -64.96595703 57.73974609 -114.60595703 57.73974609 C-114.60595703 51.64377965 -114.32293824 47.53633202 -112.48095703 41.98974609 C-112.25432373 41.29582764 -112.02769043 40.60190918 -111.79418945 39.88696289 C-104.48191606 18.22457126 -90.82974334 3.11683143 -70.60595703 -7.26025391 C-48.22354458 -17.93057183 -19.73396621 -15.48597349 0 0 Z " fill="#23836F" transform="translate(306.60595703125,364.26025390625)"></path><path d="M0 0 C3.80541971 1.17232979 7.57517614 2.38120529 11.3203125 3.734375 C12.34511719 4.09402344 12.34511719 4.09402344 13.390625 4.4609375 C17.53574116 5.93915907 21.59939293 7.55876767 25.65234375 9.2734375 C30.62838488 11.36794863 35.64472616 13.31673094 40.69921875 15.2109375 C41.43682434 15.48824707 42.17442993 15.76555664 42.93438721 16.05126953 C45.98839482 17.19857853 49.04291083 18.34429324 52.10180664 19.47851562 C54.36627493 20.31947503 56.62670932 21.17058056 58.88671875 22.0234375 C59.57729874 22.2766275 60.26787872 22.5298175 60.97938538 22.79067993 C67.2625 25.17866479 67.2625 25.17866479 69.1953125 27.984375 C69.0814577 34.01867963 66.67486473 38.90983168 64.1328125 44.296875 C63.38874801 45.89565974 62.64770493 47.49585522 61.91015625 49.09765625 C61.58136475 49.79673096 61.25257324 50.49580566 60.91381836 51.21606445 C60.06983404 52.975071 60.06983404 52.975071 60.1953125 54.984375 C62.0370666 56.64976017 62.0370666 56.64976017 64.4453125 58.421875 C73.08295767 65.17003529 81.33106125 72.40406094 88.1953125 80.984375 C93.84244801 79.33983169 98.54466126 76.66493783 103.54101562 73.64257812 C104.16814453 73.28744141 104.79527344 72.93230469 105.44140625 72.56640625 C106.27176392 72.07491089 106.27176392 72.07491089 107.11889648 71.57348633 C110.52487266 70.60715823 112.81530622 71.00197384 116.1953125 71.984375 C117.91473021 74.32201935 118.91009948 76.08493727 120.01953125 78.69921875 C120.34507492 79.40545883 120.67061859 80.11169891 121.00602722 80.83934021 C121.71540211 82.38708524 122.41239586 83.94054946 123.09857178 85.49871826 C124.22601829 88.05396669 125.38886224 90.59047026 126.56103516 93.12548828 C129.07751078 98.58404254 131.54442012 104.06421103 134.0078125 109.546875 C134.86104653 111.4382781 135.71456081 113.3295548 136.56835938 115.22070312 C141.16732104 125.41955154 141.16732104 125.41955154 143.1953125 129.984375 C143.49480804 130.65717499 143.79430359 131.32997498 144.10287476 132.02316284 C146.94621225 138.51146365 146.94621225 138.51146365 146.1953125 141.984375 C141.96924046 146.17615842 137.00220641 147.80491941 131.5078125 149.734375 C130.64091797 150.05019531 129.77402344 150.36601562 128.88085938 150.69140625 C122.50322984 152.984375 122.50322984 152.984375 120.1953125 152.984375 C120.33751221 153.62906738 120.47971191 154.27375977 120.6262207 154.93798828 C122.12569727 162.31386293 122.46817422 169.3475432 122.3828125 176.859375 C122.3818457 178.51066406 122.3818457 178.51066406 122.38085938 180.1953125 C122.35491715 184.94562261 122.25260903 189.33648889 121.1953125 193.984375 C121.83855469 194.15453125 122.48179687 194.3246875 123.14453125 194.5 C126.16652836 195.31046428 129.18092486 196.14605418 132.1953125 196.984375 C133.35675781 197.29761719 134.51820313 197.61085938 135.71484375 197.93359375 C136.86339844 198.25972656 138.01195312 198.58585938 139.1953125 198.921875 C140.2678125 199.21964844 141.3403125 199.51742187 142.4453125 199.82421875 C145.56711333 201.14122847 146.7471634 201.9230304 148.1953125 204.984375 C147.74530932 210.7576278 145.45663551 215.94803745 143.37109375 221.2890625 C142.98720993 222.28584015 142.60332611 223.2826178 142.20780945 224.30960083 C140.97980632 227.49494713 139.74405769 230.67721957 138.5078125 233.859375 C137.29451701 236.99773373 136.0828197 240.13670407 134.87179565 243.27593994 C134.08352712 245.31634777 133.29296057 247.35586939 132.50003052 249.39447021 C130.75189194 253.89684369 129.02882803 258.40146797 127.41552734 262.95410156 C127.14935104 263.6974173 126.88317474 264.44073303 126.6089325 265.20657349 C125.91923843 267.14723514 125.24447369 269.09318513 124.57104492 271.03955078 C123.13296211 274.11783915 122.16474383 275.3899014 119.1953125 276.984375 C114.06629515 276.80171769 109.67021314 274.642006 105.0703125 272.546875 C104.36777344 272.23427734 103.66523438 271.92167969 102.94140625 271.59960938 C99.65603053 270.13081664 96.39489625 268.63390134 93.1953125 266.984375 C92.94652344 267.68304688 92.69773437 268.38171875 92.44140625 269.1015625 C88.02295081 279.32356913 79.7785372 288.96301578 71.1953125 295.984375 C70.2053125 295.984375 69.2153125 295.984375 68.1953125 295.984375 C66.58984375 294.234375 66.58984375 294.234375 65.0078125 291.984375 C64.21310547 290.870625 64.21310547 290.870625 63.40234375 289.734375 C63.00402344 289.156875 62.60570312 288.579375 62.1953125 287.984375 C63.56585194 284.84099848 65.06739409 283.0422828 67.6328125 280.796875 C73.02020118 275.58676785 76.72838184 269.31969443 80.6796875 263.0078125 C81.32647461 261.98445801 81.32647461 261.98445801 81.98632812 260.94042969 C83.08557314 259.16192583 84.12086679 257.34429279 85.1484375 255.5234375 C87.1953125 252.984375 87.1953125 252.984375 89.765625 251.83203125 C95.04883812 252.066707 99.31145109 254.23266978 104.0703125 256.421875 C105.04484375 256.85564453 106.019375 257.28941406 107.0234375 257.73632812 C109.42051591 258.8056131 111.80913698 259.89107224 114.1953125 260.984375 C114.37040848 260.37534332 114.54550446 259.76631165 114.72590637 259.13882446 C116.50209807 253.07577333 118.52740768 247.16277545 120.76953125 241.2578125 C121.09822708 240.38412018 121.42692291 239.51042786 121.76557922 238.61026001 C122.80153613 235.85877647 123.8420855 233.10905734 124.8828125 230.359375 C125.59210325 228.47798006 126.30109035 226.59647061 127.00976562 224.71484375 C128.7347788 220.13669149 130.46390881 215.56011405 132.1953125 210.984375 C131.47158447 210.79101562 130.74785645 210.59765625 130.00219727 210.3984375 C119.97861356 207.69717655 119.97861356 207.69717655 115.1328125 205.984375 C114.23433594 205.675 113.33585938 205.365625 112.41015625 205.046875 C110.1953125 203.984375 110.1953125 203.984375 108.1953125 200.984375 C108.04712027 198.51697429 108.01084132 196.16623484 108.0703125 193.703125 C108.08704919 192.2142756 108.1036454 190.72542462 108.12011719 189.23657227 C108.13248413 188.45935822 108.14485107 187.68214417 108.15759277 186.88137817 C108.45279569 169.53623167 108.45279569 169.53623167 106.5546875 152.31640625 C106.07244773 149.20595972 105.89409473 147.47193936 107.578125 144.74609375 C111.2733334 142.25872213 115.15394639 140.76796632 119.3203125 139.234375 C120.14402344 138.91855469 120.96773437 138.60273438 121.81640625 138.27734375 C127.88135823 135.984375 127.88135823 135.984375 130.1953125 135.984375 C119.80559198 111.9360244 119.80559198 111.9360244 109.1953125 87.984375 C103.7559724 88.63042689 99.48407408 91.49054429 94.8984375 94.27734375 C91.46084691 96.23466574 89.53004818 96.98085887 85.4765625 97.0234375 C81.53724326 95.77598641 80.44900315 94.56646798 78.0703125 91.234375 C70.06795023 80.79886204 61.10575544 71.91196346 49.95654297 64.84960938 C46.86260901 62.77658328 45.3253406 61.32786943 43.99609375 57.81640625 C44.27678812 52.41716747 46.28148754 48.35687554 48.6328125 43.546875 C49.06658203 42.62455078 49.50035156 41.70222656 49.94726562 40.75195312 C51.01461571 38.48823261 52.0973889 36.23338347 53.1953125 33.984375 C51.93460937 33.63503906 50.67390625 33.28570312 49.375 32.92578125 C41.73059073 30.63138065 34.30653631 27.7270951 26.85253906 24.88647461 C24.30694062 23.91678126 21.75911262 22.95313363 19.2109375 21.99023438 C17.58319948 21.37274856 15.9555906 20.75492221 14.328125 20.13671875 C13.57081085 19.85021957 12.8134967 19.5637204 12.03323364 19.26853943 C8.67050682 17.98431836 5.36808188 16.69227001 2.1953125 14.984375 C2.02515625 15.54125 1.855 16.098125 1.6796875 16.671875 C-0.03784687 22.08028109 -2.15811005 26.96500396 -4.8046875 31.984375 C-6.2636301 31.50706662 -7.72182246 31.02746458 -9.1796875 30.546875 C-9.99179687 30.28003906 -10.80390625 30.01320313 -11.640625 29.73828125 C-13.8046875 28.984375 -13.8046875 28.984375 -15.8046875 27.984375 C-15.17321619 22.74150137 -13.54324114 18.26633015 -11.5546875 13.421875 C-11.26722656 12.68001953 -10.97976563 11.93816406 -10.68359375 11.17382812 C-6.1126144 -0.03405356 -6.1126144 -0.03405356 0 0 Z " fill="#F9FCFB" transform="translate(287.8046875,70.015625)"></path><path d="M0 0 C3.97062975 2.45153967 7.27255563 5.20243286 10.51171875 8.55078125 C11.05441406 9.06125 11.59710938 9.57171875 12.15625 10.09765625 C18.81424638 16.90735381 21.76075203 26.18294379 22.13671875 35.55078125 C21.71265892 46.12871817 17.70516623 55.79213433 10.51171875 63.55078125 C9.9496875 64.16566406 9.38765625 64.78054688 8.80859375 65.4140625 C1.13160639 72.94589673 -8.46337798 76.01786584 -19.05078125 76.17578125 C-30.49261218 75.97965013 -39.06433839 71.97606222 -47.296875 64.0078125 C-55.67704791 54.61186105 -59.15424055 44.52857921 -58.83203125 32.04296875 C-57.83844121 21.94899725 -52.96260076 12.65210103 -45.5390625 5.734375 C-32.54127846 -4.45445767 -15.18089354 -7.51634199 0 0 Z " fill="#2C8D78" transform="translate(283.48828125,262.44921875)"></path><path d="M0 0 C4.75415214 0.63696407 8.58692351 2.54434212 12.8125 4.6875 C13.52446533 5.04618164 14.23643066 5.40486328 14.9699707 5.77441406 C20.06069668 8.39353456 24.62786005 11.2903055 29 15 C29.7940625 15.598125 30.588125 16.19625 31.40625 16.8125 C43.69087039 27.17302322 53.09922219 44.93642432 54.83447266 60.84863281 C55.14286482 64.85682122 55.19094159 68.85636721 55.1875 72.875 C55.18741943 73.75325439 55.18733887 74.63150879 55.18725586 75.53637695 C55.05142145 90.94857855 55.05142145 90.94857855 52 94 C43.71320755 93.32075472 43.71320755 93.32075472 40 91 C40.15855469 90.08605469 40.31710937 89.17210937 40.48046875 88.23046875 C42.31999621 75.22308186 42.94390815 59.94336684 37 48 C36.57589844 47.07574219 36.15179688 46.15148437 35.71484375 45.19921875 C28.16913089 30.00269954 15.17171283 19.40699947 -0.625 13.6875 C-1.40875 13.460625 -2.1925 13.23375 -3 13 C-2.68817931 11.58318366 -2.37551263 10.16655349 -2.0625 8.75 C-1.88847656 7.96109375 -1.71445312 7.1721875 -1.53515625 6.359375 C-1.052444 4.23121297 -0.53836822 2.11467158 0 0 Z " fill="#F9FCFB" transform="translate(279,176)"></path></svg>