<svg version="1.1" xmlns="http://www.w3.org/2000/svg" width="16px" height="16px" fill="currentColor" viewBox="0 0 512 512"><path d="M0 0 C168.96 0 337.92 0 512 0 C512 168.96 512 337.92 512 512 C343.04 512 174.08 512 0 512 C0 343.04 0 174.08 0 0 Z " fill="#7646D3" transform="translate(0,0)"></path><path d="M0 0 C0.83536285 -0.01264893 1.67072571 -0.02529785 2.53140259 -0.03833008 C3.43409882 -0.04590332 4.33679504 -0.05347656 5.2668457 -0.0612793 C6.68953262 -0.0759021 6.68953262 -0.0759021 8.14096069 -0.09082031 C101.67468455 -0.85121845 101.67468455 -0.85121845 132.63012695 26.73950195 C133.33137695 27.54387695 134.03262695 28.34825195 134.75512695 29.17700195 C135.41448242 29.90209961 135.41448242 29.90209961 136.0871582 30.6418457 C141.83440796 37.15097872 142.04814098 42.42933537 142.02255249 50.77140808 C142.0270836 51.85076592 142.03161472 52.93012376 142.03628314 54.04218942 C142.0489617 57.66553937 142.0473045 61.28873967 142.0456543 64.91210938 C142.05163745 67.50742792 142.0584425 70.10274468 142.06600952 72.69805908 C142.08261641 79.0207377 142.08811897 85.34337903 142.08923428 91.66607764 C142.0901851 96.80746873 142.0942971 101.94884755 142.10063553 107.09023476 C142.11824871 121.67448865 142.12747452 136.25871312 142.12597458 150.84297772 C142.12589467 151.6290773 142.12581476 152.41517688 142.12573242 153.22509766 C142.12565066 154.01215996 142.1255689 154.79922226 142.12548466 155.61013494 C142.1246722 168.35833567 142.14379947 181.10641812 142.17200916 193.85458466 C142.20076155 206.95164338 142.21454809 220.04864448 142.2128216 233.14573556 C142.21215841 240.49574389 142.21761922 247.84562829 142.2391777 255.19560814 C142.25933118 262.11082609 142.25869167 269.0257786 142.24414444 275.94100952 C142.24205379 278.476595 142.2467724 281.01219679 142.25886536 283.54775429 C142.27432694 287.01470197 142.26500234 290.48074898 142.24960327 293.94767761 C142.2598904 294.9462399 142.27017752 295.94480218 142.28077638 296.97362393 C142.19410868 305.83043145 139.80605381 313.96345497 133.6262207 320.52856445 C98.70754636 351.29198945 34.51258295 348.41491124 -8.9050293 345.93383789 C-36.08267634 344.15068954 -72.94350023 340.55465027 -93.8894043 320.73950195 C-100.85729744 312.70734848 -102.54408206 304.90462599 -102.51902771 294.50030518 C-102.52426439 293.42417646 -102.52950107 292.34804775 -102.53489643 291.23930907 C-102.54989974 287.63289046 -102.55060167 284.02661369 -102.55126953 280.42016602 C-102.55889078 277.8345516 -102.56731822 275.24893945 -102.57649231 272.66333008 C-102.59931157 265.63844517 -102.60725954 258.61359054 -102.61231875 251.58867359 C-102.61557922 247.19946914 -102.6221038 242.81027342 -102.62932014 238.42107391 C-102.64888172 226.26017159 -102.66528863 214.09927738 -102.66819668 201.93835831 C-102.66838425 201.16063528 -102.66857182 200.38291226 -102.66876507 199.58162187 C-102.66913131 198.00510391 -102.66949501 196.42858594 -102.66985618 194.85206798 C-102.67003899 194.0695208 -102.67022181 193.28697362 -102.67041016 192.48071289 C-102.67059071 191.6972067 -102.67077125 190.91370052 -102.67095727 190.10645172 C-102.6744983 177.41325468 -102.70151809 164.72022735 -102.73890804 152.02708915 C-102.77701962 138.9842387 -102.79635436 125.94147241 -102.79665619 112.89856505 C-102.7972401 105.57983665 -102.80568941 98.26131075 -102.83465385 90.94263458 C-102.86177705 84.05773168 -102.86304836 77.17323556 -102.84699821 70.28829956 C-102.84518244 67.76399614 -102.85188585 65.23966976 -102.86781693 62.71541595 C-102.88827018 59.2636815 -102.87772801 55.81335042 -102.85960388 52.3616333 C-102.87280385 51.36764408 -102.88600382 50.37365487 -102.89960378 49.34954476 C-102.80161429 41.15362538 -100.26577162 34.78529747 -94.99487305 28.48950195 C-94.08737305 27.72637695 -93.17987305 26.96325195 -92.24487305 26.17700195 C-91.6312793 25.6355957 -91.01768555 25.09418945 -90.38549805 24.53637695 C-69.07188093 6.64538449 -37.57951821 3.83475286 -11.07543945 1.50244141 C-8.37618105 1.26158925 -8.37618105 1.26158925 -6.33326721 0.66772461 C-4.15735578 0.15643749 -2.23273733 0.03025264 0 0 Z " fill="#7646D1" transform="translate(236.244873046875,82.822998046875)"></path><path d="M0 0 C0.83536285 -0.01264893 1.67072571 -0.02529785 2.53140259 -0.03833008 C3.43409882 -0.04590332 4.33679504 -0.05347656 5.2668457 -0.0612793 C6.68953262 -0.0759021 6.68953262 -0.0759021 8.14096069 -0.09082031 C101.67468455 -0.85121845 101.67468455 -0.85121845 132.63012695 26.73950195 C133.33137695 27.54387695 134.03262695 28.34825195 134.75512695 29.17700195 C135.41448242 29.90209961 135.41448242 29.90209961 136.0871582 30.6418457 C141.83440796 37.15097872 142.04814098 42.42933537 142.02255249 50.77140808 C142.0270836 51.85076592 142.03161472 52.93012376 142.03628314 54.04218942 C142.0489617 57.66553937 142.0473045 61.28873967 142.0456543 64.91210938 C142.05163745 67.50742792 142.0584425 70.10274468 142.06600952 72.69805908 C142.08261641 79.0207377 142.08811897 85.34337903 142.08923428 91.66607764 C142.0901851 96.80746873 142.0942971 101.94884755 142.10063553 107.09023476 C142.11824871 121.67448865 142.12747452 136.25871312 142.12597458 150.84297772 C142.12589467 151.6290773 142.12581476 152.41517688 142.12573242 153.22509766 C142.12565066 154.01215996 142.1255689 154.79922226 142.12548466 155.61013494 C142.1246722 168.35833567 142.14379947 181.10641812 142.17200916 193.85458466 C142.20076155 206.95164338 142.21454809 220.04864448 142.2128216 233.14573556 C142.21215841 240.49574389 142.21761922 247.84562829 142.2391777 255.19560814 C142.25933118 262.11082609 142.25869167 269.0257786 142.24414444 275.94100952 C142.24205379 278.476595 142.2467724 281.01219679 142.25886536 283.54775429 C142.27432694 287.01470197 142.26500234 290.48074898 142.24960327 293.94767761 C142.2598904 294.9462399 142.27017752 295.94480218 142.28077638 296.97362393 C142.19410868 305.83043145 139.80605381 313.96345497 133.6262207 320.52856445 C98.70754636 351.29198945 34.51258295 348.41491124 -8.9050293 345.93383789 C-36.08267634 344.15068954 -72.94350023 340.55465027 -93.8894043 320.73950195 C-100.85729744 312.70734848 -102.54408206 304.90462599 -102.51902771 294.50030518 C-102.52426439 293.42417646 -102.52950107 292.34804775 -102.53489643 291.23930907 C-102.54989974 287.63289046 -102.55060167 284.02661369 -102.55126953 280.42016602 C-102.55889078 277.8345516 -102.56731822 275.24893945 -102.57649231 272.66333008 C-102.59931157 265.63844517 -102.60725954 258.61359054 -102.61231875 251.58867359 C-102.61557922 247.19946914 -102.6221038 242.81027342 -102.62932014 238.42107391 C-102.64888172 226.26017159 -102.66528863 214.09927738 -102.66819668 201.93835831 C-102.66838425 201.16063528 -102.66857182 200.38291226 -102.66876507 199.58162187 C-102.66913131 198.00510391 -102.66949501 196.42858594 -102.66985618 194.85206798 C-102.67003899 194.0695208 -102.67022181 193.28697362 -102.67041016 192.48071289 C-102.67059071 191.6972067 -102.67077125 190.91370052 -102.67095727 190.10645172 C-102.6744983 177.41325468 -102.70151809 164.72022735 -102.73890804 152.02708915 C-102.77701962 138.9842387 -102.79635436 125.94147241 -102.79665619 112.89856505 C-102.7972401 105.57983665 -102.80568941 98.26131075 -102.83465385 90.94263458 C-102.86177705 84.05773168 -102.86304836 77.17323556 -102.84699821 70.28829956 C-102.84518244 67.76399614 -102.85188585 65.23966976 -102.86781693 62.71541595 C-102.88827018 59.2636815 -102.87772801 55.81335042 -102.85960388 52.3616333 C-102.87280385 51.36764408 -102.88600382 50.37365487 -102.89960378 49.34954476 C-102.80161429 41.15362538 -100.26577162 34.78529747 -94.99487305 28.48950195 C-94.08737305 27.72637695 -93.17987305 26.96325195 -92.24487305 26.17700195 C-91.6312793 25.6355957 -91.01768555 25.09418945 -90.38549805 24.53637695 C-69.07188093 6.64538449 -37.57951821 3.83475286 -11.07543945 1.50244141 C-8.37618105 1.26158925 -8.37618105 1.26158925 -6.33326721 0.66772461 C-4.15735578 0.15643749 -2.23273733 0.03025264 0 0 Z M-89.24487305 67.17700195 C-89.33615605 97.10579815 -89.40692858 127.03458966 -89.44913436 156.96349511 C-89.45413709 160.49820595 -89.45931439 164.03291652 -89.46459961 167.56762695 C-89.46564885 168.27131356 -89.46669809 168.97500016 -89.46777913 169.7000106 C-89.48517649 181.08866865 -89.51671047 192.47724579 -89.55348423 203.86585587 C-89.59091231 215.55473773 -89.61311284 227.24357726 -89.62122703 238.93251657 C-89.62644299 245.496733 -89.63870743 252.06076604 -89.66779327 258.62492371 C-89.6949501 264.80381738 -89.70331734 270.98245216 -89.69730377 277.16139984 C-89.69840387 279.42853451 -89.7063559 281.69567788 -89.72169495 283.96276093 C-89.74162647 287.06065554 -89.73680009 290.15757551 -89.72589111 293.25549316 C-89.74336816 294.59793476 -89.74336816 294.59793476 -89.76119828 295.9674964 C-89.69611526 302.81567325 -88.05449812 308.29780521 -83.1940918 313.27856445 C-70.94948762 321.5262253 -57.53635839 325.31022523 -43.24487305 328.17700195 C-42.56199219 328.31734863 -41.87911133 328.45769531 -41.17553711 328.60229492 C-22.09410433 332.4649884 -2.94137881 333.51501276 16.49316406 333.43774414 C19.68679831 333.42702152 22.87986889 333.43771685 26.07348633 333.45043945 C44.00077487 333.46387471 61.91916361 332.65309785 79.50512695 328.92700195 C81.05997803 328.60493774 81.05997803 328.60493774 82.64624023 328.27636719 C99.035846 324.74623988 117.4988795 320.49704557 127.75512695 306.17700195 C129.48105807 302.72513971 128.88745735 298.73791795 128.87538147 294.9390564 C128.87623589 293.96954564 128.87709032 293.00003488 128.87797064 292.00114501 C128.87962597 288.73210884 128.87410317 285.46312328 128.86865234 282.1940918 C128.86837046 279.85885113 128.86852823 277.52361037 128.86909485 275.18836975 C128.86938277 268.8312452 128.86348693 262.47413936 128.85652089 256.11701918 C128.85091752 250.15176703 128.84989881 244.18651564 128.84886902 238.22126122 C128.84667892 226.40377021 128.84001995 214.58628609 128.83056641 202.76879883 C128.82139122 191.28735387 128.8143109 179.80591078 128.81005859 168.32446289 C128.80979587 167.61707039 128.80953315 166.90967788 128.80926246 166.18084924 C128.80795745 162.63216563 128.80669374 159.08348201 128.80545056 155.53479838 C128.79507924 126.08219513 128.77738786 96.62959861 128.75512695 67.17700195 C127.1132415 68.00606804 127.1132415 68.00606804 125.43818665 68.85188293 C123.985697 69.58250791 122.53315411 70.31302703 121.08056641 71.04345703 C120.36107063 71.40711617 119.64157486 71.7707753 118.90027618 72.14545441 C113.69163814 74.76088611 108.4944006 77.06666753 102.94262695 78.86450195 C102.08354736 79.14575928 101.22446777 79.4270166 100.33935547 79.71679688 C75.85088011 87.34599059 50.04300827 89.54547032 24.52685547 89.3828125 C21.55923877 89.36445005 18.59193556 89.36230472 15.62426758 89.36254883 C-18.89482123 89.30166797 -54.61903545 86.45617103 -85.24487305 69.17700195 C-86.5752545 68.50446392 -87.90799186 67.8365252 -89.24487305 67.17700195 Z " fill="#FBFAFD" transform="translate(236.244873046875,82.822998046875)"></path><path d="M0 0 C0.79011475 0.00829834 1.58022949 0.01659668 2.39428711 0.02514648 C12.80556721 0.32585259 20.6593929 4.16580477 28.125 11.4375 C35.04051584 19.66897807 38.70906687 27.53925807 38.5625 38.3125 C38.55420166 39.10261475 38.54590332 39.89272949 38.53735352 40.70678711 C38.23626623 51.13126487 34.38750079 58.95281945 27.125 66.4375 C20.94677018 71.78504346 15.02850324 74.51807779 7.125 76.4375 C6.795 83.0375 6.465 89.6375 6.125 96.4375 C7.95716064 96.42178955 9.78932129 96.4060791 11.67700195 96.38989258 C17.72790342 96.34153325 23.77875917 96.3070531 29.82980061 96.28206348 C33.49886676 96.26640195 37.16772401 96.24515525 40.83666992 96.21118164 C44.37688947 96.17860486 47.91690799 96.16065066 51.45726585 96.15286827 C53.46647655 96.14462076 55.47560628 96.12119863 57.48469543 96.09761047 C59.31625435 96.09727058 59.31625435 96.09727058 61.18481445 96.09692383 C62.80030937 96.08693108 62.80030937 96.08693108 64.44844055 96.07673645 C67.125 96.4375 67.125 96.4375 68.97497559 97.73095703 C70.97440527 100.69794853 70.48721807 104.15293404 70.41796875 107.60546875 C70.41372391 108.40028152 70.40947906 109.1950943 70.40510559 110.01399231 C70.3883193 112.55134021 70.35066824 115.08789238 70.3125 117.625 C70.29745305 119.34569165 70.28376466 121.06639576 70.27148438 122.78710938 C70.23841607 127.00421262 70.18663495 131.22072142 70.125 135.4375 C71.23270752 135.73769043 72.34041504 136.03788086 73.48168945 136.34716797 C79.68355719 138.20319835 84.26597002 142.4807458 87.625 148 C90.48695155 154.51252976 90.5168245 163.63980528 88.0625 170.3125 C83.52915825 177.62434153 78.75943202 183.33758526 70.125 185.4375 C62.76043847 186.39690318 56.46055468 186.17474826 50.12890625 182.05859375 C44.66519711 177.63863412 40.92752434 173.31755771 39.125 166.4375 C38.34301741 158.59948842 37.98515872 150.81946959 43.125 144.4375 C46.69039502 140.76251292 50.35135701 137.42010172 55.125 135.4375 C56.115 135.4375 57.105 135.4375 58.125 135.4375 C58.125 126.5275 58.125 117.6175 58.125 108.4375 C40.965 108.4375 23.805 108.4375 6.125 108.4375 C6.125 117.3475 6.125 126.2575 6.125 135.4375 C8.435 136.0975 10.745 136.7575 13.125 137.4375 C18.75224868 140.98448809 23.45942441 145.90090147 25.125 152.4375 C26.15316676 162.64825955 25.36549596 169.54628471 19 177.625 C13.61023052 183.4198461 8.05080204 185.6068349 0.1875 186 C-8.1223126 185.6722593 -14.23789742 182.55552669 -19.875 176.5 C-25.13136084 170.34651988 -25.32707142 163.63443979 -25.1796875 155.84765625 C-24.4751851 147.96264864 -20.78974132 143.85027103 -14.875 138.8828125 C-11.75820706 136.6304426 -9.76891432 135.4375 -5.875 135.4375 C-5.875 126.5275 -5.875 117.6175 -5.875 108.4375 C-23.035 108.4375 -40.195 108.4375 -57.875 108.4375 C-57.875 117.3475 -57.875 126.2575 -57.875 135.4375 C-55.565 136.0975 -53.255 136.7575 -50.875 137.4375 C-45.24775132 140.98448809 -40.54057559 145.90090147 -38.875 152.4375 C-37.84683324 162.64825955 -38.63450404 169.54628471 -45 177.625 C-50.1977851 183.22512411 -55.69780441 185.59381839 -63.3125 185.9375 C-71.60664797 185.55522782 -77.66743406 183.16085424 -83.375 177.0625 C-88.94309179 170.60442632 -89.33597866 164.10503923 -89.1796875 155.84765625 C-88.4751851 147.96264864 -84.78974132 143.85027103 -78.875 138.8828125 C-75.75820706 136.6304426 -73.76891432 135.4375 -69.875 135.4375 C-69.89071045 134.36266357 -69.9064209 133.28782715 -69.92260742 132.18041992 C-69.97689111 128.19416797 -70.01134421 124.20794872 -70.03979492 120.22143555 C-70.05488516 118.49579373 -70.07535975 116.77019028 -70.10131836 115.04467773 C-70.13769209 112.56484512 -70.15472359 110.08551936 -70.16796875 107.60546875 C-70.18345261 106.83349655 -70.19893646 106.06152435 -70.21488953 105.26615906 C-70.21656316 99.94435202 -70.21656316 99.94435202 -68.72497559 97.73095703 C-66.08391414 95.8843924 -64.1400922 96.07709737 -60.93481445 96.09692383 C-59.71377518 96.09715042 -58.4927359 96.09737701 -57.23469543 96.09761047 C-55.25647041 96.12083626 -55.25647041 96.12083626 -53.23828125 96.14453125 C-51.87493862 96.15012757 -50.51158996 96.1543975 -49.14823914 96.15739441 C-45.56256408 96.16884051 -41.97725446 96.19830514 -38.39172363 96.23150635 C-34.7319025 96.26221261 -31.07202223 96.2759009 -27.41210938 96.29101562 C-20.23288715 96.3231756 -13.05404136 96.37594101 -5.875 96.4375 C-6.205 89.8375 -6.535 83.2375 -6.875 76.4375 C-8.298125 76.1075 -9.72125 75.7775 -11.1875 75.4375 C-21.73593712 72.22515725 -29.7086736 65.09628415 -34.875 55.4375 C-37.52704591 49.78651284 -38.39709027 44.78021759 -38.3125 38.5625 C-38.30420166 37.77238525 -38.29590332 36.98227051 -38.28735352 36.16821289 C-37.98664741 25.75693279 -34.14669523 17.9031071 -26.875 10.4375 C-18.64352193 3.52198416 -10.77324193 -0.14656687 0 0 Z " fill="#FDFCFE" transform="translate(255.875,198.5625)"></path><path d="M0 0 C5.22636793 5.44565609 5.22636793 5.44565609 5.66796875 9.828125 C5.21442488 14.14540336 3.34245571 16.77601676 0.359375 19.765625 C-27.52936371 41.90261344 -71.65990641 42.24441773 -105.390625 42.265625 C-106.57124512 42.2699353 -107.75186523 42.27424561 -108.96826172 42.27868652 C-129.39538944 42.31063497 -149.3757903 40.71908269 -169.265625 35.890625 C-170.3582666 35.63015381 -171.4509082 35.36968262 -172.57666016 35.10131836 C-186.31700181 31.73451368 -203.59921443 27.2652889 -211.69921875 14.66796875 C-213.22089596 11.59304426 -213.54965934 10.12205948 -212.640625 6.765625 C-203.07774815 -8.29211125 -182.27532884 -13.26473841 -166.05078125 -17.078125 C-121.17979005 -26.65571117 -37.99019154 -32.14554669 0 0 Z " fill="#814EDE" transform="translate(359.640625,118.234375)"></path><path d="M0 0 C8.59917557 2.86639186 13.08334158 9.16668316 17 17 C17.80402772 25.7119966 18.19230992 33.53984176 12.90625 40.9453125 C7.40212311 46.87803944 0.6666794 50.78104021 -7.52734375 51.09765625 C-14.83496809 50.84142819 -20.39846167 48.7299703 -26 44 C-32.10882875 36.71162099 -33.64201071 30.31091297 -33.3984375 20.875 C-32.69600025 14.04345344 -29.9599367 9.41951274 -24.66796875 5.09375 C-16.74929883 -0.330347 -9.45964308 -1.24236336 0 0 Z " fill="#7949D5" transform="translate(264,212)"></path><path d="M0 0 C3.20083553 1.64614399 5.24803524 3.97459352 7.375 6.875 C8.75017467 11.55059389 8.55896687 14.92347121 6.3125 19.25 C3.43181528 22.67567913 1.39238695 24.60126884 -3.109375 25.3515625 C-7.26517473 25.6165296 -10.11690435 25.38694361 -13.4375 22.75 C-16.81439385 19.12601636 -17.82874435 17.54130086 -18.375 12.625 C-17.85752594 7.62275071 -15.88628456 4.68561599 -12.1640625 1.359375 C-8.33973723 -1.04290874 -4.35166726 -0.74129348 0 0 Z " fill="#7244CC" transform="translate(261,346)"></path><path d="M0 0 C3.42484369 2.28322912 4.97163392 4.19326784 6.8125 7.875 C7.42704266 12.17679863 7.13236327 14.25896703 5.125 18.125 C2.24431528 21.55067913 0.20488695 23.47626884 -4.296875 24.2265625 C-8.45267473 24.4915296 -11.30440435 24.26194361 -14.625 21.625 C-18.00189385 18.00101636 -19.01624435 16.41630086 -19.5625 11.5 C-19.11265417 7.15149031 -17.98540424 5.20223747 -15.1875 1.875 C-10.35049215 -2.04689826 -5.76079882 -2.03322311 0 0 Z " fill="#6C40C7" transform="translate(198.1875,347.125)"></path><path d="M0 0 C3.43761572 2.12108204 5.77560839 4.1042085 7 8 C7.46931049 12.2237944 7.28387834 14.45327135 5.3125 18.25 C2.43181528 21.67567913 0.39238695 23.60126884 -4.109375 24.3515625 C-8.26517473 24.6165296 -11.11690435 24.38694361 -14.4375 21.75 C-17.81439385 18.12601636 -18.82874435 16.54130086 -19.375 11.625 C-18.92230438 7.24894231 -17.86419662 5.31643819 -15 2 C-10.08715913 -1.54181551 -5.672626 -1.54898275 0 0 Z " fill="#7648D1" transform="translate(326,347)"></path></svg>