<svg version="1.1" xmlns="http://www.w3.org/2000/svg" width="16px" height="16px" fill="currentColor" viewBox="0 0 512 512"><path d="M0 0 C168.96 0 337.92 0 512 0 C512 168.96 512 337.92 512 512 C343.04 512 174.08 512 0 512 C0 343.04 0 174.08 0 0 Z " fill="#3F53D6" transform="translate(0,0)"></path><path d="M0 0 C1.79630859 0.29197266 1.79630859 0.29197266 3.62890625 0.58984375 C19.50901838 3.43580234 34.70584725 8.53435965 49 16 C49.6506543 16.33902344 50.30130859 16.67804688 50.97167969 17.02734375 C72.63132439 28.45911369 91.64139906 43.79629944 107.75 62.25 C108.40484375 62.99765625 109.0596875 63.7453125 109.734375 64.515625 C111.60072837 68.17920755 111.23917142 70.11156554 110 74 C107.99292083 76.29597693 105.63720386 77.91611887 103.125 79.625 C102.41754639 80.1307959 101.71009277 80.6365918 100.98120117 81.15771484 C98.67106802 82.79771576 96.33964633 84.40242524 94 86 C92.80769775 86.81791016 92.80769775 86.81791016 91.59130859 87.65234375 C88.35292109 89.8708643 85.11150879 92.08463909 81.85986328 94.28369141 C76.20713489 98.11918421 70.82439356 102.17326506 65.453125 106.39453125 C60.43330493 110.25604747 55.14495799 113.74876265 49.88476562 117.27148438 C45.07058549 120.51218989 40.54686967 123.91902924 36.13183594 127.69067383 C33.51308815 129.29905042 32.0234564 129.4191266 29 129 C26.52734375 126.8046875 26.52734375 126.8046875 24 124 C5.47634236 106.82903867 -15.30641209 101.018362 -40.19042969 101.82519531 C-55.39171434 102.77098257 -69.58867174 110.27308818 -81 120 C-82.010625 120.7425 -83.02125 121.485 -84.0625 122.25 C-95.50131263 132.05019484 -104.46004246 150.10357906 -106 165 C-106.76019811 179.34240428 -106.93753091 193.69862622 -100.875 207 C-100.57150635 207.67861084 -100.2680127 208.35722168 -99.95532227 209.05639648 C-97.05625171 215.29651858 -93.33603092 220.66334656 -89 226 C-88.55527344 226.61875 -88.11054688 227.2375 -87.65234375 227.875 C-78.32828215 240.19302633 -60.13351929 249.62768399 -45 252 C-40.74622991 252.29842145 -36.51295398 252.32477809 -32.25 252.3125 C-31.1465625 252.32861328 -30.043125 252.34472656 -28.90625 252.36132812 C-8.25603865 252.37344679 10.45281606 243.43780661 25 229 C27.40840977 226.39239844 29.72062126 223.72032999 32 221 C32.33 220.67 32.66 220.34 33 220 C39.17260514 220.26465142 42.64524545 222.34209419 47.4375 225.875 C48.8526193 226.88315689 50.267991 227.89095957 51.68359375 228.8984375 C52.40015137 229.4150293 53.11670898 229.93162109 53.85498047 230.46386719 C57.20162327 232.86052966 60.60143805 235.17786582 64 237.5 C65.33362334 238.4162447 66.66695604 239.33291257 68 240.25 C68.66 240.70375 69.32 241.1575 70 241.625 C72 243 74 244.375 76 245.75 C76.66040283 246.2039917 77.32080566 246.6579834 78.0012207 247.12573242 C79.3306181 248.03976417 80.65988307 248.95398854 81.98901367 249.8684082 C85.38149073 252.20200986 88.77641052 254.53191845 92.17578125 256.85546875 C113.32605801 271.32605801 113.32605801 271.32605801 116 274 C116.56531291 279.16963783 115.41681311 281.52537478 112.25 285.5625 C111.84950439 286.07353271 111.44900879 286.58456543 111.03637695 287.11108398 C84.0040155 320.99802481 48.02215636 342.8005278 6 353 C5.27683594 353.17934082 4.55367187 353.35868164 3.80859375 353.54345703 C-18.3597142 358.75922481 -45.91610194 358.39446033 -68 353 C-68.74266113 352.82307617 -69.48532227 352.64615234 -70.25048828 352.46386719 C-118.67435544 340.64121524 -159.54251277 311.13788705 -185.734375 268.6484375 C-209.28015572 228.87193911 -216.89210584 179.43258278 -205.67578125 134.51171875 C-193.02439249 86.84824842 -163.09047574 45.8546761 -120.28417969 20.93603516 C-106.63458581 13.26526339 -92.1435437 7.03172267 -77 3 C-76.02804688 2.72542969 -75.05609375 2.45085937 -74.0546875 2.16796875 C-50.64740211 -3.90834702 -23.73321335 -4.16970268 0 0 Z " fill="#FBFBFE" transform="translate(287,79)"></path><path d="M0 0 C0 10.23 0 20.46 0 31 C-2.536875 31.350625 -5.07375 31.70125 -7.6875 32.0625 C-37.1099833 36.70571433 -63.12420347 51.00774157 -84 72 C-84.80953125 72.80953125 -85.6190625 73.6190625 -86.453125 74.453125 C-101.46141686 90.30104157 -111.9484934 110.86054303 -117 132 C-117.33773437 133.13566406 -117.67546875 134.27132812 -118.0234375 135.44140625 C-127.04307379 168.3089609 -118.98273271 204.80641657 -102.5 233.86328125 C-85.22013136 263.03302874 -56.38733196 285.36201788 -23.63671875 294.3359375 C-22.76660156 294.55507813 -21.89648438 294.77421875 -21 295 C-20.30519531 295.19851563 -19.61039063 295.39703125 -18.89453125 295.6015625 C-12.65608915 297.32517331 -6.4697246 298.00465775 0 299 C0 309.56 0 320.12 0 331 C-37.49100131 327.25089987 -71.36070639 314.13987442 -99 288 C-100.34989846 286.84914139 -101.70390621 285.70308069 -103.0625 284.5625 C-122.29619592 267.67531498 -135.10372664 244.68064376 -144 221 C-144.46148437 219.82695312 -144.92296875 218.65390625 -145.3984375 217.4453125 C-155.75287495 189.26869181 -157.33932111 152.9437493 -149 124 C-148.63793457 122.71947754 -148.63793457 122.71947754 -148.26855469 121.41308594 C-138.46200328 87.67608202 -119.08093017 56.50129799 -91 35 C-90.06542969 34.26136719 -89.13085938 33.52273437 -88.16796875 32.76171875 C-69.57361574 18.34922827 -48.87818156 8.43139339 -26 3 C-24.1128125 2.52240234 -24.1128125 2.52240234 -22.1875 2.03515625 C-14.26738868 0.15065608 -8.60705063 0 0 0 Z " fill="#3D4BCE" transform="translate(243,91)"></path><path d="M0 0 C5.31442643 4.2429115 10.28579998 8.72977884 14.94921875 13.6796875 C11.27617139 17.73371584 6.92012798 20.64898629 2.44921875 23.7421875 C0.93846913 24.79509534 -0.57195804 25.84846604 -2.08203125 26.90234375 C-2.74783203 27.36390869 -3.41363281 27.82547363 -4.09960938 28.30102539 C-5.48730695 29.28154694 -6.84543703 30.30450223 -8.18115234 31.35473633 C-10.05078125 32.6796875 -10.05078125 32.6796875 -11.93359375 32.65625 C-14.96955973 31.25589669 -17.37124508 29.17147996 -19.92578125 27.0546875 C-35.30440768 14.79305358 -53.74617289 8.23589773 -73.36328125 8.4296875 C-74.88320679 8.44201416 -74.88320679 8.44201416 -76.43383789 8.45458984 C-101.11481342 8.82246078 -122.54115146 18.06510489 -140.05078125 35.6796875 C-143.34948353 39.50262132 -146.25789137 43.47618996 -149.05078125 47.6796875 C-149.61410156 48.51242188 -150.17742187 49.34515625 -150.7578125 50.203125 C-159.89945128 64.50573959 -162.66127503 80.0056129 -164.05078125 96.6796875 C-174.94078125 96.6796875 -185.83078125 96.6796875 -197.05078125 96.6796875 C-197.05078125 63.60060176 -184.8705418 36.17792165 -163.05078125 11.6796875 C-162.4784375 11.02226562 -161.90609375 10.36484375 -161.31640625 9.6875 C-119.58549382 -35.27002937 -47.04651161 -35.7818539 0 0 Z " fill="#4258D9" transform="translate(331.05078125,159.3203125)"></path><path d="M0 0 C10.89 0 21.78 0 33 0 C33.825 3.155625 34.65 6.31125 35.5 9.5625 C39.23477668 23.04599607 44.86890714 34.31047542 54 45 C54.433125 45.57621094 54.86625 46.15242188 55.3125 46.74609375 C67.31298557 62.21100522 88.16726749 71.68787558 107 75 C134.81849061 76.57578084 159.53974805 71.63673239 180.83032227 52.90356445 C184.94413069 49.37287356 184.94413069 49.37287356 188 45 C192.46718186 46.51145251 195.99501202 48.97350384 199.75 51.75 C200.98617697 52.64954094 202.22315734 53.54797885 203.4609375 54.4453125 C204.06131836 54.88133789 204.66169922 55.31736328 205.28027344 55.76660156 C208.7846146 58.27993653 212.38610318 60.64809889 216 63 C198.63119118 87.73739438 170.97052306 101.69503125 142 108 C109.97611307 113.16073311 78.62409338 105.72436431 51.71875 87.9765625 C46.20682068 83.96932653 41.07363408 79.54321658 36 75 C35.26910156 74.35417969 34.53820312 73.70835937 33.78515625 73.04296875 C13.96067879 54.4347169 2.21969775 26.63637303 0 0 Z " fill="#3D4BCD" transform="translate(135,269)"></path><path d="M0 0 C4.19917398 0.77127685 5.7317863 3.21946069 8.0625 6.5625 C9.53766693 9.07715217 10.78715353 11.66266389 12 14.3125 C12.33990967 15.04621826 12.67981934 15.77993652 13.0300293 16.53588867 C22.51475372 37.54207136 27.48505416 59.47920415 27.375 82.5 C27.37350952 83.26951996 27.37201904 84.03903992 27.3704834 84.83187866 C27.27778488 111.49481015 22.43528226 138.07858968 9.0625 161.5625 C5.77970708 163.75102862 4.86692929 164.02855054 1.0625 163.5625 C-1.39428711 162.25244141 -1.39428711 162.25244141 -3.96484375 160.4140625 C-5.39159424 159.40738525 -5.39159424 159.40738525 -6.84716797 158.38037109 C-7.84635254 157.65672363 -8.84553711 156.93307617 -9.875 156.1875 C-10.8973877 155.45740723 -11.91977539 154.72731445 -12.97314453 153.97509766 C-15.01883316 152.5138915 -17.06185332 151.04894154 -19.10205078 149.58007812 C-21.55146436 147.83718559 -24.02232314 146.14572411 -26.52734375 144.484375 C-27.17904541 144.04528809 -27.83074707 143.60620117 -28.50219727 143.15380859 C-30.19135002 142.01889841 -31.88835786 140.89570375 -33.5859375 139.7734375 C-35.9375 137.5625 -35.9375 137.5625 -36.93359375 134.6953125 C-36.9382493 130.96156366 -36.07584104 128.49547599 -34.625 125.0625 C-29.17676457 111.9492686 -27.59368118 99.72914174 -27.6875 85.5625 C-27.67976563 84.39460938 -27.67203125 83.22671875 -27.6640625 82.0234375 C-27.68773428 71.3474636 -28.76803657 61.00331707 -32.25 50.875 C-32.46221191 50.24980469 -32.67442383 49.62460938 -32.89306641 48.98046875 C-34.51827994 44.34449648 -36.57713667 40.10417832 -39.1171875 35.90625 C-40.34359559 32.40222688 -39.91865046 30.11521416 -38.9375 26.5625 C-36.6640625 24.1484375 -36.6640625 24.1484375 -33.5625 21.9375 C-32.72247437 21.32733032 -32.72247437 21.32733032 -31.86547852 20.70483398 C-29.9072464 19.29695297 -27.92557001 17.92791029 -25.9375 16.5625 C-25.14166504 16.01126465 -24.34583008 15.4600293 -23.52587891 14.89208984 C-18.68209653 11.54142645 -13.81781107 8.22301396 -8.92944336 4.93774414 C-7.54151449 3.97951356 -6.1882801 2.96988622 -4.86547852 1.92358398 C-2.9375 0.5625 -2.9375 0.5625 0 0 Z " fill="#FAFBFE" transform="translate(407.9375,170.4375)"></path><path d="M0 0 C4.05076948 1.83566516 7.63494609 4.33771397 11.3125 6.8125 C12.2705957 7.45155273 12.2705957 7.45155273 13.24804688 8.10351562 C17.55783508 10.98980742 21.79174554 13.9676614 26 17 C24.48291029 22.34593518 20.92997451 25.71046839 17.1875 29.625 C16.51460938 30.33285645 15.84171875 31.04071289 15.1484375 31.77001953 C-10.89995141 58.79338345 -50.21036734 80.85646876 -88.41455078 82.07714844 C-93.94870028 82.16170224 -99.46253676 82.07967573 -105 82 C-105 71.77 -105 61.54 -105 51 C-102.339375 50.731875 -99.67875 50.46375 -96.9375 50.1875 C-68.86999491 47.10098671 -41.89000045 38.37719206 -20 20 C-18.71416016 18.92298828 -18.71416016 18.92298828 -17.40234375 17.82421875 C-11.08504647 12.32709608 -5.51872615 6.28195423 0 0 Z " fill="#3F4ED0" transform="translate(361,340)"></path><path d="M0 0 C8.74886484 0 16.66409222 0.04962989 25.1875 1.3125 C26.14164795 1.45002686 27.0957959 1.58755371 28.07885742 1.72924805 C34.55947744 2.69992582 40.78373806 3.89234037 47 6 C48.24136719 6.39832031 49.48273438 6.79664062 50.76171875 7.20703125 C72.54277115 14.38554646 91.70743575 24.90967258 109 40 C109.51224121 40.44520996 110.02448242 40.89041992 110.55224609 41.34912109 C116.4368746 46.49394741 121.59520215 51.51293407 126 58 C122.98386511 60.25635207 119.96127246 62.50389636 116.9375 64.75 C116.08994141 65.38421875 115.24238281 66.0184375 114.36914062 66.671875 C109.71765312 70.12008195 105.10190368 73.25867862 100 76 C98.96166016 74.89205078 98.96166016 74.89205078 97.90234375 73.76171875 C76.85101104 51.75649752 46.23989389 34.08825327 15.13671875 32.68359375 C13.93728638 32.62643188 13.93728638 32.62643188 12.71362305 32.56811523 C11.71500244 32.52501221 10.71638184 32.48190918 9.6875 32.4375 C6.490625 32.293125 3.29375 32.14875 0 32 C0 21.44 0 10.88 0 0 Z " fill="#4865E5" transform="translate(256,90)"></path><path d="M0 0 C3.72465963 3.37165182 5.05706264 7.34238804 6.875 11.9375 C7.22506104 12.81905762 7.57512207 13.70061523 7.93579102 14.60888672 C10.34041084 20.85547222 12.30961092 27.13386967 13.9375 33.625 C14.13649902 34.41640381 14.33549805 35.20780762 14.54052734 36.02319336 C19.34664926 56.39474213 19.5860851 82.75888335 14 103 C13.77473633 103.82306641 13.54947266 104.64613281 13.31738281 105.49414062 C10.90586155 114.13778937 8.22361386 122.62436042 5 131 C0.90919937 129.14716918 -2.7196161 126.61812645 -6.4375 124.125 C-7.42073242 123.47337891 -7.42073242 123.47337891 -8.42382812 122.80859375 C-12.09100719 120.35890342 -15.59969747 117.81720633 -19 115 C-18.05825106 110.49838676 -17.05120839 106.05366552 -15.7109375 101.65234375 C-12.48356261 90.57370188 -11.52301484 79.91689766 -11.5625 68.4375 C-11.56264099 67.75976532 -11.56278198 67.08203064 -11.56292725 66.38375854 C-11.60690353 53.53665083 -13.27927616 42.09900342 -17.5625 30 C-18.18996161 28.18790109 -18.81630865 26.37541576 -19.44140625 24.5625 C-19.85434937 23.38880859 -19.85434937 23.38880859 -20.27563477 22.19140625 C-20.95303554 20.14208056 -21.50689472 18.10040721 -22 16 C-14.9592219 10.14306954 -7.68863066 4.9672253 0 0 Z " fill="#4761E2" transform="translate(405,187)"></path></svg>