<svg version="1.1" xmlns="http://www.w3.org/2000/svg" width="16px" height="16px" fill="currentColor" viewBox="0 0 512 512"><path d="M0 0 C168.96 0 337.92 0 512 0 C512 168.96 512 337.92 512 512 C343.04 512 174.08 512 0 512 C0 343.04 0 174.08 0 0 Z " fill="#3F52D5" transform="translate(0,0)"></path><path d="M0 0 C118.14 0 236.28 0 358 0 C358 114.18 358 228.36 358 346 C339.19 346 320.38 346 301 346 C301 341.71 301 337.42 301 333 C315.52 333 330.04 333 345 333 C345 244.23 345 155.46 345 64 C235.11 64 125.22 64 12 64 C12 152.77 12 241.54 12 333 C79.65 333 147.3 333 217 333 C217 337.29 217 341.58 217 346 C145.39 346 73.78 346 0 346 C0 231.82 0 117.64 0 0 Z " fill="#FBFBFE" transform="translate(77,83)"></path><path d="M0 0 C109.56 0 219.12 0 332 0 C332 12.54 332 25.08 332 38 C222.44 38 112.88 38 0 38 C0 25.46 0 12.92 0 0 Z " fill="#445FE1" transform="translate(90,96)"></path><path d="M0 0 C4.87976751 4.06554671 9.46855256 8.32826276 13.94506836 12.83154297 C14.59957977 13.48590836 15.25409119 14.14027374 15.92843628 14.81446838 C18.06795414 16.95467689 20.20391876 19.09839383 22.33984375 21.2421875 C23.83177655 22.73598749 25.32393186 24.22956528 26.81629944 25.72293091 C30.72618949 29.63662239 34.63306594 33.55330865 38.53930664 37.47064209 C42.53284006 41.47444088 46.52923809 45.47537813 50.52539062 49.4765625 C58.35305485 57.31492213 66.17753599 65.15645093 74 73 C69.93445329 77.87976751 65.67173724 82.46855256 61.16845703 86.94506836 C60.51409164 87.59957977 59.85972626 88.25409119 59.18553162 88.92843628 C57.04532311 91.06795414 54.90160617 93.20391876 52.7578125 95.33984375 C51.26401251 96.83177655 49.77043472 98.32393186 48.27706909 99.81629944 C44.36337761 103.72618949 40.44669135 107.63306594 36.52935791 111.53930664 C32.52555912 115.53284006 28.52462187 119.52923809 24.5234375 123.52539062 C16.68507787 131.35305485 8.84354907 139.17753599 1 147 C-0.13199353 146.0919838 -1.25532363 145.17316174 -2.375 144.25 C-3.31472656 143.48429687 -3.31472656 143.48429687 -4.2734375 142.703125 C-6 141 -6 141 -8 137 C12.79 116.21 33.58 95.42 55 74 C51.12027396 69.47365296 47.2969902 65.15386462 43.08642578 60.97290039 C42.5295961 60.41592468 41.97276642 59.85894897 41.39906311 59.28509521 C39.58351 57.47023101 37.76445606 55.65892089 35.9453125 53.84765625 C34.67571469 52.57992626 33.40633952 51.31197327 32.13717651 50.04380798 C28.81532426 46.72575224 25.49047867 43.41071211 22.16497803 40.09631348 C18.76440491 36.70601645 15.36670263 33.31284494 11.96875 29.91992188 C5.31528981 23.27714838 -1.34133959 16.63756054 -8 10 C-5.95933017 5.73384496 -3.41446998 3.26601476 0 0 Z " fill="#FCFCFE" transform="translate(158,205)"></path><path d="M0 0 C35.97 0 71.94 0 109 0 C109 3.96 109 7.92 109 12 C73.03 12 37.06 12 0 12 C0 8.04 0 4.08 0 0 Z " fill="#FEFEFE" transform="translate(243,314)"></path><path d="M0 0 C4.29 0 8.58 0 13 0 C13 4.29 13 8.58 13 13 C8.71 13 4.42 13 0 13 C0 8.71 0 4.42 0 0 Z " fill="#F6F7FD" transform="translate(160,109)"></path><path d="M0 0 C4.29 0 8.58 0 13 0 C13 4.29 13 8.58 13 13 C8.71 13 4.42 13 0 13 C0 8.71 0 4.42 0 0 Z " fill="#F3F4FC" transform="translate(134,109)"></path><path d="M0 0 C4.29 0 8.58 0 13 0 C13 4.29 13 8.58 13 13 C8.71 13 4.42 13 0 13 C0 8.71 0 4.42 0 0 Z " fill="#F3F4FC" transform="translate(109,109)"></path></svg>