<svg version="1.1" xmlns="http://www.w3.org/2000/svg" width="16px" height="16px" fill="currentColor" viewBox="0 0 512 512"><path d="M0 0 C168.96 0 337.92 0 512 0 C512 168.96 512 337.92 512 512 C343.04 512 174.08 512 0 512 C0 343.04 0 174.08 0 0 Z " fill="#2C8E79" transform="translate(0,0)"></path><path d="M0 0 C8.54357771 5.97236766 14.85710149 13.40269495 16.92578125 23.74609375 C56.85578125 24.07609375 96.78578125 24.40609375 137.92578125 24.74609375 C138.58578125 21.77609375 139.24578125 18.80609375 139.92578125 15.74609375 C145.31760852 5.57015115 153.29813251 -0.30777507 163.92578125 -4.25390625 C175.352315 -5.67777338 184.88401662 -4.09511943 194.48828125 2.5078125 C200.15308531 7.10114868 203.1126826 12.10311381 205.92578125 18.74609375 C206.47105469 19.66648437 206.47105469 19.66648437 207.02734375 20.60546875 C209.95699137 27.58567264 208.53769587 37.27910866 205.92578125 44.12109375 C201.02275931 54.31061421 194.1402373 60.12566129 183.92578125 64.74609375 C175.66713156 67.49897698 165.38862797 66.45485791 157.4453125 63.16796875 C153.03077756 60.67666531 149.46350834 57.34496674 145.92578125 53.74609375 C140.1631524 55.36151921 135.24358395 58.16319328 130.05078125 61.05859375 C128.06662748 62.15274502 126.08224468 63.24648105 124.09765625 64.33984375 C123.07607422 64.90445313 122.05449219 65.4690625 121.00195312 66.05078125 C116.11464566 68.7442307 111.20854365 71.4026475 106.30078125 74.05859375 C105.33221191 74.58324219 104.36364258 75.10789062 103.36572266 75.6484375 C90.90821029 82.38943689 78.41678281 89.0674193 65.92578125 95.74609375 C68.40078125 98.71609375 68.40078125 98.71609375 70.92578125 101.74609375 C69.27486347 106.03847998 66.18823559 108.62548525 62.92578125 111.74609375 C58.63339502 110.09517597 56.04638975 107.00854809 52.92578125 103.74609375 C49.41227104 105.09662511 46.08175818 106.62830451 42.7421875 108.36328125 C41.74268066 108.88204834 40.74317383 109.40081543 39.71337891 109.93530273 C38.64909668 110.49161377 37.58481445 111.0479248 36.48828125 111.62109375 C35.38532715 112.19609619 34.28237305 112.77109863 33.14599609 113.36352539 C23.19300138 118.57079206 13.27174479 123.8508765 3.48852539 129.37207031 C0.92578125 130.74609375 0.92578125 130.74609375 -2.10766602 132.09667969 C-7.56180083 134.42330278 -7.56180083 134.42330278 -11.03613281 138.90698242 C-11.38286199 141.38139117 -11.3989171 143.6276629 -11.26171875 146.12109375 C-11.25978516 146.95253906 -11.25785156 147.78398437 -11.25585938 148.640625 C-11.24415809 150.67664808 -11.16589762 152.71210214 -11.07421875 154.74609375 C-15.36421875 154.74609375 -19.65421875 154.74609375 -24.07421875 154.74609375 C-24.40421875 151.44609375 -24.73421875 148.14609375 -25.07421875 144.74609375 C-28.89755075 146.78984409 -32.72036223 148.83456397 -36.54272461 150.88012695 C-37.83913653 151.5737435 -39.13568257 152.26710943 -40.43237305 152.96020508 C-42.31205279 153.96497406 -44.19126223 154.97061689 -46.0703125 155.9765625 C-46.67942474 156.30220184 -47.28853699 156.62784119 -47.91610718 156.96334839 C-52.12349406 159.21859344 -56.28952531 161.5376398 -60.42211914 163.92700195 C-62.07421875 164.74609375 -62.07421875 164.74609375 -64.07421875 164.74609375 C-63.57921875 167.22109375 -63.57921875 167.22109375 -63.07421875 169.74609375 C-28.75421875 169.74609375 5.56578125 169.74609375 40.92578125 169.74609375 C40.92578125 174.03609375 40.92578125 178.32609375 40.92578125 182.74609375 C6.60578125 182.74609375 -27.71421875 182.74609375 -63.07421875 182.74609375 C-62.65693831 187.71012897 -62.65693831 187.71012897 -59.74853516 189.50366211 C-58.73452637 190.02581299 -57.72051758 190.54796387 -56.67578125 191.0859375 C-55.55558594 191.67439453 -54.43539062 192.26285156 -53.28125 192.86914062 C-52.08751048 193.47449282 -50.89349862 194.07930827 -49.69921875 194.68359375 C-47.39965302 195.88004198 -45.10017306 197.07665507 -42.80078125 198.2734375 C-41.67961914 198.8494873 -40.55845703 199.42553711 -39.40332031 200.01904297 C-34.58504533 202.51863795 -29.82575769 205.12233415 -25.07421875 207.74609375 C-24.74421875 204.44609375 -24.41421875 201.14609375 -24.07421875 197.74609375 C-19.78421875 197.74609375 -15.49421875 197.74609375 -11.07421875 197.74609375 C-11.30367188 198.88304687 -11.533125 200.02 -11.76953125 201.19140625 C-12.40788592 206.37669743 -12.49496706 211.00354314 -10.07421875 215.74609375 C-4.36657045 221.02038117 3.18914416 223.96669165 10.20423889 227.11904907 C16.73663287 230.05679416 22.99956616 233.4447102 29.28329468 236.87539673 C31.07481943 237.85016664 32.87158734 238.81431759 34.67114258 239.77416992 C43.72353053 244.6025925 43.72353053 244.6025925 48.09765625 247.19921875 C50.70372277 249.0098606 50.70372277 249.0098606 52.98828125 248.37109375 C55.82388614 245.99284449 58.36670621 243.42149039 60.92578125 240.74609375 C65.21816748 242.39701153 67.80517275 245.48363941 70.92578125 248.74609375 C69.55172702 251.70559517 67.90801193 254.16104771 65.92578125 256.74609375 C66.77994629 257.19823242 67.63411133 257.65037109 68.51416016 258.11621094 C84.77616425 266.72704387 101.00922375 275.381759 117.14550781 284.2265625 C122.52222616 287.16515532 127.91211687 290.07948312 133.30078125 292.99609375 C134.36103516 293.57004883 135.42128906 294.14400391 136.51367188 294.73535156 C138.98422611 296.07254109 141.45491943 297.40947269 143.92578125 298.74609375 C144.46122559 298.33907227 144.99666992 297.93205078 145.54833984 297.51269531 C146.25812988 296.97612305 146.96791992 296.43955078 147.69921875 295.88671875 C148.39966309 295.35594727 149.10010742 294.82517578 149.82177734 294.27832031 C158.71806268 287.7996609 166.98781454 285.74713494 177.92578125 286.74609375 C187.66574515 288.88351027 195.56948643 294.01614658 201.30078125 302.18359375 C202.20794935 303.68546094 203.08559578 305.20575372 203.92578125 306.74609375 C204.26609375 307.3596875 204.60640625 307.97328125 204.95703125 308.60546875 C208.19079901 315.61196556 208.02832646 324.21133154 206.234375 331.58984375 C202.48614518 341.75240829 195.35276803 350.36962219 185.55078125 355.12109375 C177.31057465 358.08555832 167.63128967 358.33509986 159.33984375 355.53515625 C152.21159906 352.06783723 146.49094782 348.18320164 142.17578125 341.43359375 C141.5828125 340.52996094 140.98984375 339.62632812 140.37890625 338.6953125 C138.92578125 335.74609375 138.92578125 335.74609375 137.92578125 328.74609375 C97.66578125 328.74609375 57.40578125 328.74609375 15.92578125 328.74609375 C15.59578125 331.05609375 15.26578125 333.36609375 14.92578125 335.74609375 C10.50137159 345.19765874 4.35420045 351.05757427 -5.13671875 355.12109375 C-14.28406019 358.14479828 -24.91406875 358.37231475 -33.73046875 354.19921875 C-43.72039685 348.00546333 -49.84040444 339.96602341 -53.07421875 328.74609375 C-54.25082121 318.08826446 -52.47263091 308.78718207 -45.76171875 300.30859375 C-45.22933594 299.71175781 -44.69695312 299.11492187 -44.1484375 298.5 C-42.86865203 296.83165772 -42.86865203 296.83165772 -43.3359375 294.98168945 C-44.24434854 292.2309223 -45.47462386 289.79337662 -46.8125 287.22265625 C-47.3789624 286.13090088 -47.9454248 285.03914551 -48.52905273 283.91430664 C-49.14801415 282.73309909 -49.76724295 281.55203162 -50.38671875 280.37109375 C-51.02622751 279.1451554 -51.66563054 277.91916189 -52.30493164 276.69311523 C-57.0663383 267.58227987 -61.95946812 258.54645466 -66.90625 249.53515625 C-70.36333845 243.23190631 -73.78022813 236.90732202 -77.18264771 230.57443237 C-77.85405064 229.32561204 -78.52645603 228.07733008 -79.19992065 226.82962036 C-80.14240106 225.08313214 -81.08103706 223.33457099 -82.01953125 221.5859375 C-82.56109863 220.57909912 -83.10266602 219.57226074 -83.66064453 218.53491211 C-84.95648481 215.97836918 -86.05915886 213.42463894 -87.07421875 210.74609375 C-87.78449219 210.90335938 -88.49476562 211.060625 -89.2265625 211.22265625 C-100.23693089 213.24650997 -109.30539494 211.24824538 -118.6171875 205.0546875 C-125.58695546 199.46252862 -129.28083648 192.12624056 -132.07421875 183.74609375 C-132.96913577 171.64270784 -131.86371178 162.87548539 -123.82421875 153.43359375 C-117.48139082 146.79914155 -110.7084213 142.09128373 -101.3125 141.515625 C-100.01699219 141.52980469 -98.72148438 141.54398438 -97.38671875 141.55859375 C-96.08347656 141.56503906 -94.78023437 141.57148438 -93.4375 141.578125 C-90.07421875 141.74609375 -90.07421875 141.74609375 -87.07421875 142.74609375 C-86.80053467 141.86518066 -86.52685059 140.98426758 -86.24487305 140.07666016 C-85.16085658 136.99258244 -83.90798235 134.32011404 -82.34375 131.45703125 C-81.79581787 130.44753418 -81.24788574 129.43803711 -80.68334961 128.39794922 C-80.09046143 127.31658691 -79.49757324 126.23522461 -78.88671875 125.12109375 C-77.93946595 123.37840491 -76.9922273 121.63570825 -76.04573059 119.89260864 C-75.38811711 118.68205719 -74.72989508 117.47183613 -74.0710907 116.26193237 C-69.88533368 108.57339086 -65.76583953 100.84945234 -61.64770508 93.12451172 C-58.54616838 87.31743118 -55.41174313 81.53355838 -52.203125 75.78515625 C-51.28672241 74.13217529 -51.28672241 74.13217529 -50.35180664 72.44580078 C-49.19323616 70.36034208 -48.0249011 68.28026905 -46.84545898 66.20654297 C-46.33313721 65.28115723 -45.82081543 64.35577148 -45.29296875 63.40234375 C-44.61137695 62.19288086 -44.61137695 62.19288086 -43.91601562 60.95898438 C-42.92989444 58.36669828 -43.07472933 57.29496118 -44.07421875 54.74609375 C-44.98552288 53.31911153 -45.94892309 51.92466917 -46.94921875 50.55859375 C-52.70817617 42.04475044 -54.18487663 34.00408002 -53.07421875 23.74609375 C-50.14864253 12.01073152 -42.40780234 3.76761207 -32.24609375 -2.35546875 C-22.4866428 -6.89573506 -9.06536887 -5.48019474 0 0 Z " fill="#FBFCFC" transform="translate(209.07421875,81.25390625)"></path><path d="M0 0 C1.07879425 -0.00855011 1.07879425 -0.00855011 2.17938232 -0.01727295 C3.70599897 -0.02673861 5.2326362 -0.03326312 6.75927734 -0.03710938 C9.08598074 -0.04677779 11.41178683 -0.07776905 13.73828125 -0.109375 C15.22134892 -0.11590869 16.70442292 -0.12115772 18.1875 -0.125 C19.22683685 -0.1435202 19.22683685 -0.1435202 20.28717041 -0.16241455 C24.66117208 -0.14243704 27.39263538 0.50957719 30.859375 3.203125 C33.28067831 6.83507996 33.06960285 8.58661848 32.984375 12.890625 C32.96632813 14.07011719 32.94828125 15.24960938 32.9296875 16.46484375 C32.90648437 17.36847656 32.88328125 18.27210938 32.859375 19.203125 C35.89642391 20.52420538 38.5290926 21.31447183 41.859375 21.203125 C44.42882761 19.37768897 46.35993291 17.39936444 48.42578125 15.0234375 C51.28104491 12.88771861 53.26859966 12.74337333 56.78843689 12.83468628 C60.325491 13.46396037 62.48701068 15.68778654 64.890625 18.171875 C65.67270325 18.94247253 65.67270325 18.94247253 66.47058105 19.7286377 C67.56250356 20.81514042 68.64448511 21.91171629 69.71679688 23.01757812 C71.35570051 24.69935438 73.0329715 26.33411531 74.71875 27.96875 C75.77861602 29.03390293 76.83599744 30.10153512 77.890625 31.171875 C78.6404364 31.89739563 78.6404364 31.89739563 79.40539551 32.63757324 C82.07757972 35.45796224 83.18360556 37.5621294 83.28320312 41.37304688 C82.74072424 46.27535604 81.01841352 49.41071566 77.203125 52.578125 C75.63055318 54.14253049 75.63055318 54.14253049 75.78515625 56.46484375 C75.97658203 57.66560547 75.97658203 57.66560547 76.171875 58.890625 C76.29175781 59.69886719 76.41164063 60.50710937 76.53515625 61.33984375 C76.69564453 62.26216797 76.69564453 62.26216797 76.859375 63.203125 C77.73980469 63.15671875 78.62023437 63.1103125 79.52734375 63.0625 C81.26951172 63.00835937 81.26951172 63.00835937 83.046875 62.953125 C84.19542969 62.90671875 85.34398437 62.8603125 86.52734375 62.8125 C90.49917362 63.2781307 92.04708985 64.42682887 94.859375 67.203125 C97.1955431 71.87546121 96.1712946 78.84125951 96.20947266 84.03295898 C96.22602178 85.68284216 96.25329856 87.33265395 96.29150391 88.98217773 C96.34638649 91.36479758 96.3681621 93.74573872 96.3828125 96.12890625 C96.40548187 96.86240799 96.42815125 97.59590973 96.45150757 98.35163879 C96.43532725 102.29103195 95.99622872 104.02882732 93.53491211 107.16357422 C90.22189651 109.6890722 88.17523521 109.89052318 84.046875 110.015625 C82.30470703 110.08716797 82.30470703 110.08716797 80.52734375 110.16015625 C79.64691406 110.17433594 78.76648438 110.18851562 77.859375 110.203125 C76.869375 112.843125 75.879375 115.483125 74.859375 118.203125 C75.35308594 118.68523437 75.84679687 119.16734375 76.35546875 119.6640625 C76.99613281 120.29570312 77.63679687 120.92734375 78.296875 121.578125 C78.93496094 122.20460938 79.57304687 122.83109375 80.23046875 123.4765625 C82.98186797 126.39291372 83.4079335 129.01203702 83.30078125 133.01953125 C82.39632492 137.49378868 79.02123552 140.10915719 75.859375 143.203125 C74.61281369 144.4696148 73.36819682 145.73801993 72.125 147.0078125 C69.45673878 149.71724762 66.7842418 152.42200271 64.08984375 155.10546875 C63.51645264 155.67773193 62.94306152 156.24999512 62.35229492 156.83959961 C59.2710342 159.65380094 56.25556603 159.70059109 52.23046875 159.70703125 C48.52064588 158.91861749 46.95886329 156.4799506 44.55859375 153.69921875 C42.75979918 151.78322747 42.75979918 151.78322747 39.046875 152.203125 C36.00178507 153.06568272 36.00178507 153.06568272 33.859375 154.203125 C33.46546282 156.88585418 33.46546282 156.88585418 33.359375 160.015625 C33.010319 167.17999944 33.010319 167.17999944 30.859375 170.203125 C25.17185202 174.44018261 18.90841813 173.72515218 12.13989258 173.70410156 C9.93112835 173.70312907 7.72584148 173.74478408 5.51757812 173.7890625 C4.10156968 173.79427044 2.68554927 173.79695768 1.26953125 173.796875 C-0.00784912 173.80396484 -1.28522949 173.81105469 -2.60131836 173.81835938 C-7.26459735 173.00774593 -8.85120177 171.55711942 -12.140625 168.203125 C-13.14322007 165.19533979 -13.44377142 162.66491853 -13.703125 159.515625 C-13.78691406 158.52175781 -13.87070312 157.52789062 -13.95703125 156.50390625 C-14.04791016 155.36501953 -14.04791016 155.36501953 -14.140625 154.203125 C-17.55228674 152.5819313 -17.55228674 152.5819313 -21.25390625 152.38671875 C-23.47400996 153.34738475 -24.66028341 154.52365712 -26.328125 156.265625 C-29.0456605 158.65798531 -30.94160509 159.73975108 -34.578125 160.015625 C-40.40150657 159.53685705 -43.23703951 156.24726513 -47.140625 152.203125 C-48.31875546 151.05305341 -49.50001688 149.9061845 -50.68359375 148.76171875 C-51.96221214 147.51432605 -53.23954595 146.26561532 -54.515625 145.015625 C-55.44507935 144.10659424 -55.44507935 144.10659424 -56.39331055 143.17919922 C-56.97765869 142.59541504 -57.56200684 142.01163086 -58.1640625 141.41015625 C-58.68919434 140.8891333 -59.21432617 140.36811035 -59.75537109 139.83129883 C-62.12398057 137.04732692 -63.06378174 134.59502564 -63.765625 131.015625 C-63.04536498 126.62203886 -62.0900137 125.86540901 -59.015625 122.828125 C-55.86428781 119.75513512 -55.86428781 119.75513512 -55.0546875 115.62890625 C-55.58528291 113.37564439 -56.21806549 111.3240091 -57.140625 109.203125 C-58.56955078 109.30753906 -58.56955078 109.30753906 -60.02734375 109.4140625 C-61.28160156 109.46820313 -62.53585937 109.52234375 -63.828125 109.578125 C-65.69017578 109.68253906 -65.69017578 109.68253906 -67.58984375 109.7890625 C-71.53687605 109.13773704 -72.692504 108.10692942 -75.10792542 105.00360107 C-76.86866467 101.93381297 -76.85459073 98.79236099 -76.8046875 95.35546875 C-76.80947113 94.62115128 -76.81425476 93.8868338 -76.81918335 93.13026428 C-76.82256878 91.58641401 -76.81346139 90.04249071 -76.79248047 88.4987793 C-76.76564907 86.1427383 -76.79228606 83.79144273 -76.82421875 81.43554688 C-76.82091515 79.92967705 -76.81450994 78.42381016 -76.8046875 76.91796875 C-76.81480865 76.21888901 -76.82492981 75.51980927 -76.83535767 74.79954529 C-76.74260198 70.90964454 -76.23730665 69.31993807 -73.72412109 66.28344727 C-69.85462647 63.16759358 -67.93633155 63.08827706 -63.015625 63.140625 C-61.91992188 63.14964844 -60.82421875 63.15867188 -59.6953125 63.16796875 C-58.43074219 63.18537109 -58.43074219 63.18537109 -57.140625 63.203125 C-55.94228449 60.18330692 -55.11988708 57.46934684 -55.140625 54.203125 C-57.05819584 51.32676874 -59.50048829 49.394135 -62.140625 47.203125 C-63.77086314 43.94264871 -63.6079785 41.82511465 -63.140625 38.203125 C-61.8527832 36.37133789 -61.8527832 36.37133789 -60.12890625 34.48828125 C-59.49355957 33.7921875 -58.85821289 33.09609375 -58.20361328 32.37890625 C-54.79766433 28.78673855 -51.33811642 25.2560984 -47.828125 21.765625 C-47.11333984 21.04697266 -46.39855469 20.32832031 -45.66210938 19.58789062 C-44.97826172 18.90533203 -44.29441406 18.22277344 -43.58984375 17.51953125 C-42.97455811 16.90537354 -42.35927246 16.29121582 -41.7253418 15.65844727 C-39.87356286 13.95786889 -38.7462578 13.24259598 -36.22265625 13.078125 C-29.98303247 13.42178758 -29.98303247 13.42178758 -27.30859375 15.90234375 C-26.75816406 16.55847656 -26.20773437 17.21460938 -25.640625 17.890625 C-24.06686978 19.84815623 -24.06686978 19.84815623 -22.140625 21.203125 C-18.87773685 21.22407452 -16.15688496 20.40005356 -13.140625 19.203125 C-13.19863281 18.32269531 -13.25664062 17.44226563 -13.31640625 16.53515625 C-13.6800299 7.17444469 -13.6800299 7.17444469 -12.0625 4.26171875 C-10.703125 2.953125 -10.703125 2.953125 -8.140625 1.203125 C-6.21252371 -0.72497629 -2.62911997 0.01593955 0 0 Z " fill="#369983" transform="translate(342.140625,171.796875)"></path><path d="M0 0 C1.07879425 -0.00855011 1.07879425 -0.00855011 2.17938232 -0.01727295 C3.70599897 -0.02673861 5.2326362 -0.03326312 6.75927734 -0.03710938 C9.08598074 -0.04677779 11.41178683 -0.07776905 13.73828125 -0.109375 C15.22134892 -0.11590869 16.70442292 -0.12115772 18.1875 -0.125 C19.22683685 -0.1435202 19.22683685 -0.1435202 20.28717041 -0.16241455 C24.66117208 -0.14243704 27.39263538 0.50957719 30.859375 3.203125 C33.28067831 6.83507996 33.06960285 8.58661848 32.984375 12.890625 C32.96632813 14.07011719 32.94828125 15.24960938 32.9296875 16.46484375 C32.90648437 17.36847656 32.88328125 18.27210938 32.859375 19.203125 C35.89642391 20.52420538 38.5290926 21.31447183 41.859375 21.203125 C44.42882761 19.37768897 46.35993291 17.39936444 48.42578125 15.0234375 C51.28104491 12.88771861 53.26859966 12.74337333 56.78843689 12.83468628 C60.325491 13.46396037 62.48701068 15.68778654 64.890625 18.171875 C65.67270325 18.94247253 65.67270325 18.94247253 66.47058105 19.7286377 C67.56250356 20.81514042 68.64448511 21.91171629 69.71679688 23.01757812 C71.35570051 24.69935438 73.0329715 26.33411531 74.71875 27.96875 C75.77861602 29.03390293 76.83599744 30.10153512 77.890625 31.171875 C78.6404364 31.89739563 78.6404364 31.89739563 79.40539551 32.63757324 C82.07757972 35.45796224 83.18360556 37.5621294 83.28320312 41.37304688 C82.74072424 46.27535604 81.01841352 49.41071566 77.203125 52.578125 C75.63055318 54.14253049 75.63055318 54.14253049 75.78515625 56.46484375 C75.97658203 57.66560547 75.97658203 57.66560547 76.171875 58.890625 C76.29175781 59.69886719 76.41164063 60.50710937 76.53515625 61.33984375 C76.69564453 62.26216797 76.69564453 62.26216797 76.859375 63.203125 C77.73980469 63.15671875 78.62023437 63.1103125 79.52734375 63.0625 C81.26951172 63.00835937 81.26951172 63.00835937 83.046875 62.953125 C84.19542969 62.90671875 85.34398437 62.8603125 86.52734375 62.8125 C90.49917362 63.2781307 92.04708985 64.42682887 94.859375 67.203125 C97.1955431 71.87546121 96.1712946 78.84125951 96.20947266 84.03295898 C96.22602178 85.68284216 96.25329856 87.33265395 96.29150391 88.98217773 C96.34638649 91.36479758 96.3681621 93.74573872 96.3828125 96.12890625 C96.40548187 96.86240799 96.42815125 97.59590973 96.45150757 98.35163879 C96.43532725 102.29103195 95.99622872 104.02882732 93.53491211 107.16357422 C90.22189651 109.6890722 88.17523521 109.89052318 84.046875 110.015625 C82.30470703 110.08716797 82.30470703 110.08716797 80.52734375 110.16015625 C79.64691406 110.17433594 78.76648438 110.18851562 77.859375 110.203125 C76.869375 112.843125 75.879375 115.483125 74.859375 118.203125 C75.35308594 118.68523437 75.84679687 119.16734375 76.35546875 119.6640625 C76.99613281 120.29570312 77.63679687 120.92734375 78.296875 121.578125 C78.93496094 122.20460938 79.57304687 122.83109375 80.23046875 123.4765625 C82.98186797 126.39291372 83.4079335 129.01203702 83.30078125 133.01953125 C82.39632492 137.49378868 79.02123552 140.10915719 75.859375 143.203125 C74.61281369 144.4696148 73.36819682 145.73801993 72.125 147.0078125 C69.45673878 149.71724762 66.7842418 152.42200271 64.08984375 155.10546875 C63.51645264 155.67773193 62.94306152 156.24999512 62.35229492 156.83959961 C59.2710342 159.65380094 56.25556603 159.70059109 52.23046875 159.70703125 C48.52064588 158.91861749 46.95886329 156.4799506 44.55859375 153.69921875 C42.75979918 151.78322747 42.75979918 151.78322747 39.046875 152.203125 C36.00178507 153.06568272 36.00178507 153.06568272 33.859375 154.203125 C33.46546282 156.88585418 33.46546282 156.88585418 33.359375 160.015625 C33.010319 167.17999944 33.010319 167.17999944 30.859375 170.203125 C25.17185202 174.44018261 18.90841813 173.72515218 12.13989258 173.70410156 C9.93112835 173.70312907 7.72584148 173.74478408 5.51757812 173.7890625 C4.10156968 173.79427044 2.68554927 173.79695768 1.26953125 173.796875 C-0.00784912 173.80396484 -1.28522949 173.81105469 -2.60131836 173.81835938 C-7.26459735 173.00774593 -8.85120177 171.55711942 -12.140625 168.203125 C-13.14322007 165.19533979 -13.44377142 162.66491853 -13.703125 159.515625 C-13.78691406 158.52175781 -13.87070312 157.52789062 -13.95703125 156.50390625 C-14.04791016 155.36501953 -14.04791016 155.36501953 -14.140625 154.203125 C-17.55228674 152.5819313 -17.55228674 152.5819313 -21.25390625 152.38671875 C-23.47400996 153.34738475 -24.66028341 154.52365712 -26.328125 156.265625 C-29.0456605 158.65798531 -30.94160509 159.73975108 -34.578125 160.015625 C-40.40150657 159.53685705 -43.23703951 156.24726513 -47.140625 152.203125 C-48.31875546 151.05305341 -49.50001688 149.9061845 -50.68359375 148.76171875 C-51.96221214 147.51432605 -53.23954595 146.26561532 -54.515625 145.015625 C-55.44507935 144.10659424 -55.44507935 144.10659424 -56.39331055 143.17919922 C-56.97765869 142.59541504 -57.56200684 142.01163086 -58.1640625 141.41015625 C-58.68919434 140.8891333 -59.21432617 140.36811035 -59.75537109 139.83129883 C-62.12398057 137.04732692 -63.06378174 134.59502564 -63.765625 131.015625 C-63.04536498 126.62203886 -62.0900137 125.86540901 -59.015625 122.828125 C-55.86428781 119.75513512 -55.86428781 119.75513512 -55.0546875 115.62890625 C-55.58528291 113.37564439 -56.21806549 111.3240091 -57.140625 109.203125 C-58.56955078 109.30753906 -58.56955078 109.30753906 -60.02734375 109.4140625 C-61.28160156 109.46820313 -62.53585937 109.52234375 -63.828125 109.578125 C-65.69017578 109.68253906 -65.69017578 109.68253906 -67.58984375 109.7890625 C-71.53687605 109.13773704 -72.692504 108.10692942 -75.10792542 105.00360107 C-76.86866467 101.93381297 -76.85459073 98.79236099 -76.8046875 95.35546875 C-76.80947113 94.62115128 -76.81425476 93.8868338 -76.81918335 93.13026428 C-76.82256878 91.58641401 -76.81346139 90.04249071 -76.79248047 88.4987793 C-76.76564907 86.1427383 -76.79228606 83.79144273 -76.82421875 81.43554688 C-76.82091515 79.92967705 -76.81450994 78.42381016 -76.8046875 76.91796875 C-76.81480865 76.21888901 -76.82492981 75.51980927 -76.83535767 74.79954529 C-76.74260198 70.90964454 -76.23730665 69.31993807 -73.72412109 66.28344727 C-69.85462647 63.16759358 -67.93633155 63.08827706 -63.015625 63.140625 C-61.91992188 63.14964844 -60.82421875 63.15867188 -59.6953125 63.16796875 C-58.43074219 63.18537109 -58.43074219 63.18537109 -57.140625 63.203125 C-55.94228449 60.18330692 -55.11988708 57.46934684 -55.140625 54.203125 C-57.05819584 51.32676874 -59.50048829 49.394135 -62.140625 47.203125 C-63.77086314 43.94264871 -63.6079785 41.82511465 -63.140625 38.203125 C-61.8527832 36.37133789 -61.8527832 36.37133789 -60.12890625 34.48828125 C-59.49355957 33.7921875 -58.85821289 33.09609375 -58.20361328 32.37890625 C-54.79766433 28.78673855 -51.33811642 25.2560984 -47.828125 21.765625 C-47.11333984 21.04697266 -46.39855469 20.32832031 -45.66210938 19.58789062 C-44.97826172 18.90533203 -44.29441406 18.22277344 -43.58984375 17.51953125 C-42.97455811 16.90537354 -42.35927246 16.29121582 -41.7253418 15.65844727 C-39.87356286 13.95786889 -38.7462578 13.24259598 -36.22265625 13.078125 C-29.98303247 13.42178758 -29.98303247 13.42178758 -27.30859375 15.90234375 C-26.75816406 16.55847656 -26.20773437 17.21460938 -25.640625 17.890625 C-24.06686978 19.84815623 -24.06686978 19.84815623 -22.140625 21.203125 C-18.87773685 21.22407452 -16.15688496 20.40005356 -13.140625 19.203125 C-13.19863281 18.32269531 -13.25664062 17.44226563 -13.31640625 16.53515625 C-13.6800299 7.17444469 -13.6800299 7.17444469 -12.0625 4.26171875 C-10.703125 2.953125 -10.703125 2.953125 -8.140625 1.203125 C-6.21252371 -0.72497629 -2.62911997 0.01593955 0 0 Z M-0.140625 13.203125 C-0.24375 15.28625 -0.346875 17.369375 -0.453125 19.515625 C-0.75586547 25.63098259 -0.75586547 25.63098259 -2.34375 27.9921875 C-4.65584956 29.55034155 -6.93556569 30.37999115 -9.578125 31.265625 C-13.50744804 32.59341306 -13.50744804 32.59341306 -17.28515625 34.28515625 C-20.54104113 35.89596245 -22.55856715 35.80013464 -26.140625 35.203125 C-29.12809714 32.80686889 -31.64803571 30.10359253 -34.140625 27.203125 C-39.43074624 31.61155937 -44.32870928 36.27872294 -49.140625 41.203125 C-48.18332584 42.32900514 -47.22474605 43.4537965 -46.265625 44.578125 C-45.73195313 45.20460937 -45.19828125 45.83109375 -44.6484375 46.4765625 C-43.52630493 47.76149151 -42.34690525 48.99684475 -41.140625 50.203125 C-40.25785086 56.13032279 -42.20198733 60.09121383 -44.8515625 65.359375 C-46.49861039 68.80788204 -46.49861039 68.80788204 -48.140625 75.203125 C-53.090625 75.533125 -58.040625 75.863125 -63.140625 76.203125 C-63.140625 82.803125 -63.140625 89.403125 -63.140625 96.203125 C-61.243125 96.285625 -59.345625 96.368125 -57.390625 96.453125 C-53.83640871 96.60765614 -51.80626511 96.71413103 -48.91796875 98.8359375 C-46.76510932 101.70326236 -45.65998529 104.45500761 -44.453125 107.828125 C-43.82857422 109.54902344 -43.82857422 109.54902344 -43.19140625 111.3046875 C-42.84464844 112.26117188 -42.49789062 113.21765625 -42.140625 114.203125 C-41.645625 115.193125 -41.645625 115.193125 -41.140625 116.203125 C-40.578125 118.828125 -40.578125 118.828125 -41.140625 122.203125 C-43.56253533 125.14969424 -46.27979083 127.68712352 -49.140625 130.203125 C-47.53051973 134.27688531 -44.60240229 136.96819569 -41.515625 139.953125 C-41 140.45972656 -40.484375 140.96632813 -39.953125 141.48828125 C-38.68679161 142.73116402 -37.4143106 143.96777776 -36.140625 145.203125 C-33.13123184 143.85906052 -31.14265567 142.34120355 -28.828125 140.015625 C-26.1755174 137.72754064 -25.51879247 137.22494235 -21.890625 137.015625 C-17.67740712 138.34981066 -13.77038155 140.03841376 -9.7890625 141.94921875 C-7.15224009 143.24347754 -7.15224009 143.24347754 -4.3671875 144.23828125 C-2.140625 145.203125 -2.140625 145.203125 -1.140625 147.203125 C-0.69020163 151.52941365 -0.43848675 155.86285374 -0.140625 160.203125 C6.459375 160.203125 13.059375 160.203125 19.859375 160.203125 C19.9625 158.12 20.065625 156.036875 20.171875 153.890625 C20.48031388 147.66015956 20.48031388 147.66015956 22.16967773 145.62329102 C25.00290751 143.24200253 28.24719809 141.94401732 31.609375 140.453125 C32.3003125 140.12441406 32.99125 139.79570312 33.703125 139.45703125 C38.43907353 137.34721959 41.69862156 136.72416664 46.859375 138.203125 C49.07421875 139.83203125 49.07421875 139.83203125 50.796875 141.765625 C51.38339844 142.40628906 51.96992188 143.04695312 52.57421875 143.70703125 C52.99832031 144.20074219 53.42242187 144.69445312 53.859375 145.203125 C57.93313531 143.59301973 60.62444569 140.66490229 63.609375 137.578125 C64.11597656 137.0625 64.62257813 136.546875 65.14453125 136.015625 C66.38741402 134.74929161 67.62402776 133.4768106 68.859375 132.203125 C67.22211248 128.49941464 65.16067109 126.52239206 62.1015625 123.9609375 C60.22774018 121.30930215 60.53167695 119.38140126 60.859375 116.203125 C61.84765625 113.45703125 61.84765625 113.45703125 63.171875 110.765625 C63.625625 109.82203125 64.079375 108.8784375 64.546875 107.90625 C64.98 107.01421875 65.413125 106.1221875 65.859375 105.203125 C66.88488927 102.87969424 67.87148145 100.54287287 68.859375 98.203125 C73.809375 97.873125 78.759375 97.543125 83.859375 97.203125 C83.859375 90.273125 83.859375 83.343125 83.859375 76.203125 C81.61125 76.14125 79.363125 76.079375 77.046875 76.015625 C73.21484375 75.91015625 73.21484375 75.91015625 69.859375 75.203125 C68.07421875 73.01953125 68.07421875 73.01953125 66.859375 70.203125 C66.41335938 69.25695312 65.96734375 68.31078125 65.5078125 67.3359375 C60.52391174 55.56414736 60.52391174 55.56414736 60.859375 51.203125 C62.50975374 48.91732912 64.27829313 46.97130687 66.29296875 45 C68.18793066 43.22352424 68.18793066 43.22352424 67.859375 40.203125 C65.99988166 37.99278386 64.14867524 35.98294012 62.109375 33.953125 C61.57054687 33.3859375 61.03171875 32.81875 60.4765625 32.234375 C58.71533547 30.40502591 58.71533547 30.40502591 55.859375 28.203125 C52.47410019 28.62357526 51.17704484 29.66890499 49.046875 32.265625 C46.76330712 34.61152352 46.06193446 35.15856192 42.734375 35.890625 C35.55284578 34.61648272 26.15554603 31.49929603 20.859375 26.203125 C20.3941458 21.87821647 20.15437027 17.54376963 19.859375 13.203125 C13.259375 13.203125 6.659375 13.203125 -0.140625 13.203125 Z " fill="#FAFCFC" transform="translate(342.140625,171.796875)"></path><path d="M0 0 C7.4799103 5.52808185 11.97954679 12.72300368 14.3203125 21.71484375 C15.69164372 32.8638781 14.27928036 42.61340919 7.7109375 52.01953125 C1.57662924 59.47637386 -6.07977727 65.45244994 -15.78588867 67.06469727 C-28.48639072 68.19801783 -37.64574191 65.70531189 -47.921875 58.04296875 C-54.61267785 52.01263142 -59.10903481 42.31520273 -60.015625 33.41796875 C-60.14908314 21.62026881 -57.38287477 12.85673774 -49.2421875 4.08984375 C-48.3965625 3.30609375 -47.5509375 2.52234375 -46.6796875 1.71484375 C-45.9578125 1.03421875 -45.2359375 0.35359375 -44.4921875 -0.34765625 C-30.27851924 -10.13929438 -14.19808602 -9.10190781 0 0 Z " fill="#FAFCFC" transform="translate(374.6796875,228.28515625)"></path><path d="M0 0 C3.55869147 1.42347659 6.8046371 2.86174893 10.18359375 4.6171875 C11.68079956 5.39425049 11.68079956 5.39425049 13.20825195 6.18701172 C14.27390381 6.74404785 15.33955566 7.30108398 16.4375 7.875 C18.11042114 8.74729248 18.11042114 8.74729248 19.81713867 9.63720703 C27.7366475 13.78099885 35.60428952 18.0119136 43.43676758 22.31762695 C48.75833134 25.2409021 54.09726294 28.1280439 59.45703125 30.98046875 C60.09355118 31.3195929 60.73007111 31.65871704 61.38587952 32.00811768 C63.91977566 33.35781001 66.45372973 34.70733275 68.99136353 36.04998779 C70.74838288 36.97964606 72.50314195 37.91357233 74.2578125 38.84765625 C75.2698877 39.38398682 76.28196289 39.92031738 77.32470703 40.47290039 C79.7141783 41.83684844 81.84831235 43.29164579 84 45 C83.67 46.65 83.34 48.3 83 50 C43.4 50 3.8 50 -37 50 C-37.99 46.7 -38.98 43.4 -40 40 C-26.8 26.8 -13.6 13.6 0 0 Z " fill="#268672" transform="translate(263,347)"></path><path d="M0 0 C40.59 0 81.18 0 123 0 C122 5 122 5 119.94067383 6.57055664 C118.58752075 7.23365845 118.58752075 7.23365845 117.20703125 7.91015625 C116.19584229 8.41861084 115.18465332 8.92706543 114.14282227 9.45092773 C113.04381592 9.98274658 111.94480957 10.51456543 110.8125 11.0625 C108.50420666 12.21935767 106.19693195 13.37824982 103.890625 14.5390625 C102.14555664 15.40966309 102.14555664 15.40966309 100.36523438 16.29785156 C95.53860288 18.73918026 90.79764937 21.32424604 86.0625 23.9375 C84.27893592 24.91719496 82.49507613 25.89635175 80.7109375 26.875 C79.79924805 27.37515625 78.88755859 27.8753125 77.94824219 28.390625 C71.2893886 32.02553415 64.60076375 35.60566332 57.91625977 39.19311523 C56.37023071 40.0237146 56.37023071 40.0237146 54.79296875 40.87109375 C53.8086084 41.39558105 52.82424805 41.92006836 51.81005859 42.46044922 C49.97819104 43.46407709 48.16668003 44.506083 46.38134766 45.59033203 C45.59163574 46.06712402 44.80192383 46.54391602 43.98828125 47.03515625 C43.30934814 47.46320557 42.63041504 47.89125488 41.9309082 48.33227539 C40 49 40 49 38.12770081 48.26501465 C35.77843081 46.86826707 34.00032587 45.31753017 32.02587891 43.42749023 C31.25893707 42.69590195 30.49199524 41.96431366 29.70181274 41.21055603 C26.24209325 37.85327296 22.7887893 34.48996936 19.35302734 31.1081543 C17.53508397 29.32844403 15.70558901 27.56045706 13.86474609 25.80444336 C11.20834076 23.26951853 8.58973524 20.70047397 5.9765625 18.12109375 C5.14758453 17.34261581 4.31860657 16.56413788 3.46450806 15.7620697 C2.34246475 14.63158958 2.34246475 14.63158958 1.19775391 13.47827148 C0.53031158 12.82922348 -0.13713074 12.18017548 -0.82479858 11.51145935 C-2 9 -2 9 0 0 Z " fill="#399D87" transform="translate(225,119)"></path><path d="M0 0 C15.56519143 7.55881501 30.74940003 15.83003573 46 24 C46 45.45 46 66.9 46 89 C42.535 89.495 42.535 89.495 39 90 C31.13984504 76.01817141 23.55304029 61.8936633 15.99951172 47.74462891 C12.95353414 42.03928938 9.9027098 36.33654563 6.85018921 30.63470459 C5.90312783 28.86505868 4.95704209 27.09489075 4.01098633 25.32470703 C1.02574838 19.74649428 -1.98493814 14.19342881 -5.14794922 8.71362305 C-6 7 -6 7 -6 5 C-4.04072937 3.2856382 -2.04119788 1.61594832 0 0 Z " fill="#22816D" transform="translate(139,280)"></path><path d="M0 0 C2.31 0.33 4.62 0.66 7 1 C7 22.45 7 43.9 7 66 C-8.25 74.0625 -8.25 74.0625 -12.98144531 76.55883789 C-14.26390637 77.23800141 -15.54614128 77.91759214 -16.828125 78.59765625 C-17.51803528 78.96230484 -18.20794556 79.32695343 -18.91876221 79.70265198 C-24.27448827 82.55527631 -29.44644732 85.63151124 -34.57324219 88.88061523 C-37 90 -37 90 -39.18457031 89.84008789 C-41.93534654 88.56716952 -43.26324965 86.41904513 -45 84 C-38.40610379 71.20707089 -31.75888859 58.45494674 -24.82348633 45.84350586 C-19.34188968 35.85208687 -14.02129633 25.77546854 -8.69824219 15.69897461 C-8.16527275 14.69187439 -8.16527275 14.69187439 -7.62153625 13.66442871 C-6.9549631 12.40480825 -6.28950887 11.14459475 -5.62541199 9.88366699 C-3.84725399 6.52519765 -1.98649405 3.2396011 0 0 Z " fill="#2C8D78" transform="translate(178,145)"></path><path d="M0 0 C3.09179136 1.3761536 5.19638753 2.95158445 7.57519531 5.34814453 C8.25559875 6.02869904 8.9360022 6.70925354 9.63702393 7.41043091 C10.36008728 8.14381683 11.08315063 8.87720276 11.828125 9.6328125 C12.57713074 10.38464813 13.32613647 11.13648376 14.09783936 11.91110229 C16.4866302 14.31107901 18.86836897 16.71792009 21.25 19.125 C22.86933169 20.75436352 24.48911802 22.38327534 26.109375 24.01171875 C30.07820505 28.00258806 34.04126899 31.99911415 38 36 C34.85369417 38.41206991 31.69575832 40.32966761 28.1875 42.1875 C26.46345947 43.10486938 26.46345947 43.10486938 24.70458984 44.04077148 C23.46975622 44.69390374 22.23489235 45.3469788 21 46 C18.47033447 47.34313916 15.94199251 48.6887539 13.4140625 50.03515625 C12.78456696 50.3701564 12.15507141 50.70515656 11.50650024 51.05030823 C4.91364878 54.5659298 -1.62238444 58.18369077 -8.1328125 61.84960938 C-8.885625 62.26919922 -9.6384375 62.68878906 -10.4140625 63.12109375 C-11.0632666 63.4864624 -11.7124707 63.85183105 -12.38134766 64.22827148 C-14 65 -14 65 -16 65 C-16 46.19 -16 27.38 -16 8 C-12.04 6.35 -8.08 4.7 -4 3 C-2.68 2.01 -1.36 1.02 0 0 Z " fill="#32947F" transform="translate(214,138)"></path><path d="M0 0 C3.41398714 1.36559486 6.51362846 2.71247349 9.74609375 4.3984375 C10.65584961 4.8723291 11.56560547 5.3462207 12.50292969 5.83447266 C13.47133789 6.34284668 14.43974609 6.8512207 15.4375 7.375 C16.44071289 7.90013184 17.44392578 8.42526367 18.47753906 8.96630859 C25.76636708 12.79504825 33.01970953 16.6869175 40.25 20.625 C41.65076782 21.38756104 41.65076782 21.38756104 43.07983398 22.16552734 C46.47185807 24.02238036 49.78031312 25.85354208 53 28 C51.63886987 31.04581486 50.10669904 33.13839026 47.74365234 35.48339844 C47.08311859 36.14378113 46.42258484 36.80416382 45.74203491 37.48455811 C45.03052277 38.18574768 44.31901062 38.88693726 43.5859375 39.609375 C42.85629791 40.33618469 42.12665833 41.06299438 41.37490845 41.81182861 C39.0462612 44.12929198 36.71075174 46.4396995 34.375 48.75 C32.79381347 50.32115444 31.21307875 51.89276371 29.6328125 53.46484375 C25.7604331 57.31518653 21.88239829 61.15976117 18 65 C14.41379687 63.62682136 11.21723768 62.02075384 7.94140625 60 C5.42579306 58.70423143 2.68450989 57.89483663 0 57 C0 38.19 0 19.38 0 0 Z " fill="#24846F" transform="translate(198,312)"></path><path d="M0 0 C5.98166982 3.47518065 9.61850199 7.55846824 11.9296875 14.12109375 C12.86251545 21.25243268 12.82616266 28.85644288 8.9296875 35.12109375 C5.25032684 39.82725274 0.9420099 43.94342235 -5.0703125 45.12109375 C-12.25247541 45.91550906 -18.98645835 46.46889294 -25.2578125 42.43359375 C-28.33086933 39.97168894 -30.91383247 37.43875533 -33.0703125 34.12109375 C-33.6478125 33.29609375 -34.2253125 32.47109375 -34.8203125 31.62109375 C-37.14691927 25.10659479 -37.41753803 17.25944877 -34.6328125 10.80859375 C-27.02851353 -1.98292345 -13.35937622 -6.86985717 0 0 Z " fill="#369883" transform="translate(364.0703125,236.87890625)"></path><path d="M0 0 C6.44119065 3.73589058 10.93173631 7.60781257 13.125 14.8125 C14.23370089 21.73410932 13.22182592 27.45386013 9.828125 33.578125 C6.50193446 37.94184287 1.95761851 40.39619075 -2.875 42.8125 C-10.06145013 43.52503755 -16.29111683 43.75686062 -22.23046875 39.29296875 C-28.22432975 33.89707013 -31.83554739 27.92069438 -32.3125 19.8125 C-32.03751638 14.19183478 -29.83656864 9.8584804 -25.96875 5.82421875 C-18.41536792 -0.9822804 -10.07915842 -3.9685277 0 0 Z " fill="#44A992" transform="translate(390.875,91.1875)"></path><path d="M0 0 C6.00103858 2.70452996 10.04444955 7.27249285 12.95703125 13.09765625 C14.34896501 20.33571178 14.63626802 27.10946336 10.84765625 33.6328125 C7.48500027 38.18900379 2.9039334 41.47513512 -2.41796875 43.34765625 C-9.79253187 44.20177232 -16.374841 43.97442593 -22.41796875 39.34765625 C-26.69175869 35.23604138 -30.08512047 31.19263309 -30.7890625 25.17578125 C-30.93067536 17.54534716 -30.74094543 12.08757627 -25.41796875 6.34765625 C-18.13801343 -0.89506145 -10.03901885 -2.70842673 0 0 Z " fill="#23826E" transform="translate(120.41796875,236.65234375)"></path><path d="M0 0 C4.59265827 3.37049557 8.40998868 7.5409259 10.5625 12.875 C11.42695734 20.47418311 11.39112421 27.65867734 6.5625 33.875 C1.19152023 39.68814276 -3.90053362 41.90126319 -11.8125 42.25 C-17.89474159 42.11777736 -22.44160865 40.65969274 -26.93359375 36.484375 C-32.42306777 30.29446364 -34.02279643 24.97581319 -33.78125 16.84375 C-33.06869741 10.6898867 -30.5714617 6.65904228 -26.0625 2.5 C-18.88268355 -3.06246832 -8.09237842 -4.77557816 0 0 Z " fill="#359782" transform="translate(202.4375,92.125)"></path><path d="M0 0 C5.87529418 3.25573627 8.7563121 8.2001242 11.6875 14.0625 C12.38235935 21.46673895 12.32241839 27.99102796 7.6875 34.0625 C3.23591493 38.78835334 -1.02668383 41.65422655 -7.58203125 42.46875 C-14.62633703 42.65514839 -19.42206541 42.57494687 -24.765625 37.7109375 C-31.1893179 30.86548699 -32.86326398 25.65305196 -32.68359375 16.2890625 C-32.01620094 10.48625767 -29.60257171 7.09415895 -25.3046875 3.28125 C-17.58432715 -2.75829389 -9.16821031 -4.04234727 0 0 Z " fill="#2D8E79" transform="translate(391.3125,382.9375)"></path><path d="M0 0 C5.62950263 2.83492874 9.85669241 7.57356779 12.1875 13.4375 C13.04913806 21.01189969 13.0594936 28.269907 8.1875 34.4375 C2.55917598 40.24701755 -1.28958031 42.58172064 -9.5 42.8125 C-17.03193505 42.75038095 -21.04046091 41.14166178 -26.33203125 35.9453125 C-31.38118472 30.32867493 -32.404885 24.92272259 -32.2421875 17.57421875 C-31.36837699 11.19540206 -28.3781965 6.67632766 -23.57421875 2.484375 C-16.03585029 -2.66143313 -8.48889956 -3.2616745 0 0 Z " fill="#1E7C69" transform="translate(200.8125,382.5625)"></path></svg>