<svg version="1.1" xmlns="http://www.w3.org/2000/svg" width="16px" height="16px" fill="currentColor" viewBox="0 0 512 512"><path d="M0 0 C168.96 0 337.92 0 512 0 C512 168.96 512 337.92 512 512 C343.04 512 174.08 512 0 512 C0 343.04 0 174.08 0 0 Z " fill="#E3740D" transform="translate(0,0)"></path><path d="M0 0 C0.56068846 7.8212967 0.98457357 15.63777204 1.24349213 23.47420597 C1.36794554 27.11648011 1.53569409 30.74488259 1.81054688 34.37915039 C3.53192157 57.74608626 3.53192157 57.74608626 -2.29412842 64.76309204 C-7.98731709 69.52349942 -14.30858919 72.70390074 -21.07804871 75.65951538 C-25.21582897 77.55777796 -28.88405127 79.98952518 -32.625 82.5625 C-33.95491499 83.4329295 -35.28670953 84.30050002 -36.62109375 85.1640625 C-37.65145752 85.83356934 -37.65145752 85.83356934 -38.70263672 86.51660156 C-44.28560186 90.1215002 -49.90334274 93.67247021 -55.51611328 97.23071289 C-58.01372065 98.81586407 -60.50765758 100.40658768 -63 102 C-63.64018066 102.40492676 -64.28036133 102.80985352 -64.93994141 103.22705078 C-67.98612802 105.11792871 -67.98612802 105.11792871 -70 108 C-70.10259883 109.48361388 -70.14376462 110.97169382 -70.15390015 112.45881653 C-70.16250061 113.39672531 -70.17110107 114.33463409 -70.17996216 115.30096436 C-70.18422211 116.33320129 -70.18848206 117.36543823 -70.19287109 118.42895508 C-70.20104858 119.51361557 -70.20922607 120.59827606 -70.21765137 121.71580505 C-70.24253131 125.31704144 -70.25902718 128.91823837 -70.2734375 132.51953125 C-70.28142302 134.36088937 -70.28142302 134.36088937 -70.28956985 136.23944664 C-70.31355196 142.06521917 -70.3327929 147.89097537 -70.3455919 153.71678334 C-70.36065628 160.44028728 -70.39575087 167.1633059 -70.44759309 173.88662416 C-70.49097002 179.71079035 -70.506938 185.5347934 -70.51332474 191.35910606 C-70.52005363 193.83628776 -70.5353178 196.31346132 -70.55921555 198.79053688 C-70.59073522 202.25505429 -70.59092311 205.71823896 -70.58349609 209.18286133 C-70.59990143 210.20902557 -70.61630676 211.23518982 -70.63320923 212.29244995 C-70.58514388 218.09328945 -70.58514388 218.09328945 -67.70391846 223.0357666 C-65.5412391 224.60682249 -63.53542852 226.04711063 -61.15380859 227.24487305 C-60.43470306 227.61263351 -59.71559753 227.98039398 -58.97470093 228.35929871 C-58.207034 228.73959732 -57.43936707 229.11989594 -56.6484375 229.51171875 C-55.42817368 230.13141289 -55.42817368 230.13141289 -54.18325806 230.7636261 C-51.58504421 232.08080265 -48.98038125 233.38456742 -46.375 234.6875 C-43.83312816 235.96937131 -41.29267905 237.25403014 -38.75233459 238.53892517 C-37.05198431 239.39886528 -35.35116466 240.25787792 -33.64988708 241.11598206 C-22.75874865 246.61807631 -11.96442775 252.3063072 -1.23199463 258.11158752 C1.61093693 259.64666253 4.46277207 261.1650883 7.3125 262.6875 C9.04016602 263.63399414 9.04016602 263.63399414 10.80273438 264.59960938 C11.91583984 265.18935547 13.02894531 265.77910156 14.17578125 266.38671875 C15.15458252 266.91483154 16.13338379 267.44294434 17.1418457 267.98706055 C21.93518055 269.68583447 25.38200006 268.39084226 29.80102539 266.28857422 C31.23759645 265.55239347 32.66957481 264.80720456 34.09765625 264.0546875 C34.87669815 263.65260574 35.65574005 263.25052399 36.45838928 262.83625793 C38.99719975 261.52359582 41.52981675 260.1994397 44.0625 258.875 C45.8191087 257.96384733 47.57611087 257.05345287 49.33349609 256.14379883 C52.87544288 254.30894886 56.41502745 252.46966325 59.95263672 250.62646484 C64.48435069 248.26618597 69.02338449 245.92045677 73.56640625 243.58203125 C80.66429726 239.92611452 80.66429726 239.92611452 87.7578125 236.26171875 C88.77907227 235.73497559 89.80033203 235.20823242 90.85253906 234.66552734 C93.10761655 233.47221842 95.32984854 232.25602518 97.54589844 230.99462891 C98.13273407 230.66493607 98.7195697 230.33524323 99.32418823 229.99555969 C100.96081273 229.07247808 102.58979254 228.13588034 104.21826172 227.19848633 C107 226 107 226 108.94482422 226.06738281 C112.03350914 227.4689956 114.92735627 229.15459597 117.828125 230.90234375 C118.49044128 231.29617249 119.15275757 231.69000122 119.83514404 232.09576416 C121.97655359 233.37118967 124.11337228 234.65408277 126.25 235.9375 C127.70818108 236.80860452 129.16651443 237.67945421 130.625 238.55004883 C140.15676777 244.24932188 149.64465408 250.01442506 159 256 C156.27042901 258.93600584 153.71023226 260.91376515 150.16796875 262.77734375 C148.74121826 263.53712524 148.74121826 263.53712524 147.28564453 264.31225586 C146.26325684 264.84858643 145.24086914 265.38491699 144.1875 265.9375 C142.00031578 267.10231656 139.81414129 268.26903081 137.62890625 269.4375 C136.51918457 270.03046875 135.40946289 270.6234375 134.26611328 271.234375 C129.34362713 273.895417 124.48393195 276.66260728 119.625 279.4375 C110.39286553 284.69631078 101.06481215 289.75605156 91.69628906 294.76708984 C83.58541321 299.11694218 75.56323884 303.60591211 67.56713867 308.16259766 C59.52466781 312.73416618 51.40446694 317.15306799 43.24609375 321.51416016 C37.10710663 324.80713081 31.1545215 328.23582747 25.3671875 332.12109375 C21.99887562 333.37170459 20.30892369 332.27590925 17 331 C15.13965649 330.09561983 13.30138409 329.14481433 11.484375 328.15625 C10.41574219 327.57875 9.34710938 327.00125 8.24609375 326.40625 C7.09238281 325.7771875 5.93867188 325.148125 4.75 324.5 C2.22513475 323.13323689 -0.30161015 321.76996074 -2.828125 320.40625 C-3.48824585 320.04934082 -4.1483667 319.69243164 -4.82849121 319.32470703 C-11.81111042 315.55267542 -18.82662929 311.84353973 -25.84469604 308.13800049 C-38.30231218 301.56037917 -50.73346605 294.93603774 -63.14306641 288.26831055 C-71.28618414 283.89999598 -79.46979817 279.61507498 -87.67333984 275.36157227 C-95.33097414 271.37876494 -102.91424374 267.26720498 -110.47021484 263.0949707 C-111.31148926 262.63179443 -112.15276367 262.16861816 -113.01953125 261.69140625 C-113.74245361 261.29123291 -114.46537598 260.89105957 -115.21020508 260.47875977 C-117.8468495 259.08117901 -120.50419706 257.73975986 -123.17436218 256.40757751 C-124.07731364 255.95685851 -124.9802651 255.50613951 -125.91057873 255.04176235 C-126.60008775 254.69798078 -127.28959677 254.3541992 -128 254 C-128.25698935 230.78249295 -128.45095058 207.56522044 -128.56993389 184.34657955 C-128.62664939 173.56561166 -128.70396626 162.78552755 -128.82983398 152.00512695 C-128.939492 142.60858481 -129.01044402 133.21268265 -129.03497344 123.81551844 C-129.04931257 118.83959987 -129.08299044 113.86551209 -129.16303062 108.89018059 C-129.23778634 104.20531057 -129.26071275 99.52302195 -129.24418449 94.83761215 C-129.24720712 93.11981094 -129.26904503 91.40192214 -129.31126022 89.68463707 C-129.61470716 76.70215505 -129.61470716 76.70215505 -125.59071732 72.4602375 C-122.78698286 70.64957688 -120.07340384 69.28636793 -117 68 C-115.81555467 67.31641405 -114.64134268 66.61425881 -113.48583984 65.8828125 C-112.48762207 65.30273438 -111.4894043 64.72265625 -110.4609375 64.125 C-109.90094559 63.79844925 -109.34095367 63.4718985 -108.76399231 63.13545227 C-107.57878984 62.44438965 -106.39308089 61.75419499 -105.20687866 61.06484985 C-102.01372067 59.20870409 -98.82500378 57.34496918 -95.63671875 55.48046875 C-94.9917897 55.10335251 -94.34686066 54.72623627 -93.68238831 54.33769226 C-87.48862636 50.71041354 -81.33469144 47.01809103 -75.1875 43.3125 C-66.23169666 37.91734387 -57.22936431 32.60996681 -48.18969727 27.35668945 C-40.31224659 22.77548159 -32.463158 18.14798362 -24.625 13.5 C-22.95848389 12.51205444 -22.95848389 12.51205444 -21.25830078 11.50415039 C-19.66477783 10.5585022 -19.66477783 10.5585022 -18.0390625 9.59375 C-16.51587402 8.69076172 -16.51587402 8.69076172 -14.96191406 7.76953125 C-12.98844462 6.59052478 -11.02157774 5.40039526 -9.06152344 4.19921875 C-8.16208008 3.64878906 -7.26263672 3.09835938 -6.3359375 2.53125 C-5.54493652 2.04205078 -4.75393555 1.55285156 -3.93896484 1.04882812 C-2 0 -2 0 0 0 Z " fill="#DF6F10" transform="translate(237,95)"></path><path d="M0 0 C2.75048828 1.18652344 2.75048828 1.18652344 5.5703125 2.859375 C6.62065674 3.47409668 7.67100098 4.08881836 8.75317383 4.72216797 C9.86587646 5.39135254 10.9785791 6.06053711 12.125 6.75 C13.29972703 7.44396802 14.47511008 8.13682667 15.65112305 8.82861328 C19.11083552 10.86912322 22.55617851 12.93278286 26 15 C27.7122371 16.02344166 29.42447641 17.04687962 31.13671875 18.0703125 C33.47923633 19.47359369 35.82002511 20.87954484 38.1574707 22.29125977 C45.66916995 26.82507724 53.23888479 31.25830146 60.8125 35.6875 C69.33739563 40.67396409 77.84796749 45.67974837 86.3046875 50.78125 C91.04034875 53.63271699 95.80255493 56.43933041 100.5625 59.25 C101.48820801 59.79696533 102.41391602 60.34393066 103.36767578 60.9074707 C108.23584678 63.78251676 113.10771481 66.6510947 117.984375 69.51171875 C118.96075928 70.08567383 119.93714355 70.65962891 120.94311523 71.25097656 C122.79551127 72.33974979 124.64910587 73.42648759 126.50415039 74.51074219 C141.09435117 83.09435117 141.09435117 83.09435117 144 86 C144.10339576 88.05602945 144.13523057 90.11566484 144.14044189 92.17428589 C144.14341302 92.82639199 144.14638414 93.4784981 144.1494453 94.150365 C144.15816736 96.35139539 144.15964348 98.55237162 144.16113281 100.75341797 C144.16575851 102.32503375 144.17078283 103.89664839 144.17617798 105.46826172 C144.18932794 109.7492587 144.19575198 114.03023999 144.20018864 118.31125402 C144.20311519 120.98323244 144.20721919 123.65520653 144.21169281 126.32718277 C144.22537459 134.67954581 144.2350379 143.03189899 144.2388947 151.38427246 C144.24337727 161.04002064 144.26093149 170.69562738 144.2898953 180.35133255 C144.31148171 187.80526868 144.32159735 195.25916495 144.32293582 202.71313202 C144.32398604 207.1694857 144.32993965 211.62570655 144.34775543 216.08202744 C144.36418371 220.27300234 144.36641733 224.46374384 144.35761642 228.65473938 C144.35684322 230.19509123 144.36122587 231.73545535 144.37107468 233.27577591 C144.38371074 235.3747142 144.37796398 237.47281537 144.36749268 239.57174683 C144.36895924 240.74757765 144.3704258 241.92340847 144.3719368 243.13487053 C144 246 144 246 142.65302658 247.8778553 C140.02396993 249.66257069 138.10485737 249.37304949 135 249 C132.10107422 247.70922852 132.10107422 247.70922852 129.0546875 245.87890625 C128.21537186 245.38188202 128.21537186 245.38188202 127.35910034 244.87481689 C125.52323576 243.78324899 123.69928691 242.67329027 121.875 241.5625 C120.59340179 240.79476715 119.31116478 240.02809975 118.02832031 239.26245117 C114.68219966 237.26058716 111.34630253 235.24229953 108.01281738 233.21948242 C105.38039536 231.62460729 102.74233526 230.03920067 100.10415649 228.45387268 C96.98350016 226.57772287 93.86610096 224.69620447 90.75 222.8125 C90.16957947 222.46164337 89.58915894 222.11078674 88.9911499 221.7492981 C70.63109288 210.63109288 70.63109288 210.63109288 68 208 C67.90503292 205.59651714 67.87441138 203.22189018 67.88647461 200.81811523 C67.88632858 200.06694427 67.88618256 199.31577332 67.8860321 198.5418396 C67.88673137 196.04739541 67.89452436 193.55302497 67.90234375 191.05859375 C67.90420788 189.33366436 67.90563181 187.60873443 67.90663147 185.88380432 C67.91045703 181.33487497 67.92028762 176.78597733 67.93133545 172.23706055 C67.94154876 167.59879994 67.94612892 162.96053423 67.95117188 158.32226562 C67.96190986 149.21482978 67.97898673 140.10741752 68 131 C66.58676956 130.54207062 66.58676956 130.54207062 65.14498901 130.07489014 C62.2899016 129.09908218 60.01645722 128.00468753 57.4453125 126.453125 C56.59582031 125.94523437 55.74632812 125.43734375 54.87109375 124.9140625 C53.96488281 124.36492187 53.05867188 123.81578125 52.125 123.25 C50.14887487 122.06697744 48.17229646 120.88471179 46.1953125 119.703125 C45.17469727 119.09146484 44.15408203 118.47980469 43.10253906 117.84960938 C38.09051827 114.86164356 33.04474833 111.93224711 28 109 C25.00950562 107.25642036 22.01963289 105.51177806 19.02978516 103.76708984 C16.97017577 102.56584466 14.90993073 101.36568881 12.84912109 100.16650391 C9.79255917 98.38639181 6.73965198 96.60016016 3.6875 94.8125 C2.75615234 94.27173828 1.82480469 93.73097656 0.86523438 93.17382812 C0.00607422 92.66916016 -0.85308594 92.16449219 -1.73828125 91.64453125 C-2.49149658 91.20471924 -3.24471191 90.76490723 -4.02075195 90.31176758 C-7.56040827 87.96582291 -7.56040827 87.96582291 -9 86 C-9.29606882 83.28640346 -9.40985423 80.80216518 -9.38818359 78.08789062 C-9.39344055 77.28272507 -9.39869751 76.47755951 -9.40411377 75.647995 C-9.41732825 72.98388323 -9.40857073 70.32036794 -9.3984375 67.65625 C-9.40045782 65.80684291 -9.40336891 63.95743659 -9.40713501 62.10803223 C-9.41156032 58.2309613 -9.40512067 54.35409763 -9.39111328 50.47705078 C-9.37402126 45.50337476 -9.38386134 40.53018438 -9.40183067 35.55652618 C-9.41266293 31.7372877 -9.40922474 27.91816466 -9.4014473 24.09892273 C-9.39944374 22.26486657 -9.40190999 20.43079997 -9.40888596 18.59675598 C-9.41649131 16.03492404 -9.40490951 13.47388234 -9.38818359 10.91210938 C-9.39425629 10.15149704 -9.40032898 9.3908847 -9.40658569 8.60722351 C-9.34475971 3.50470284 -9.34475971 3.50470284 -7.65319824 1.02838135 C-5.01388361 -0.6134193 -3.04231599 -0.35250069 0 0 Z " fill="#EC810B" transform="translate(278,77)"></path><path d="M0 0 C2.14915466 1.53851318 2.14915466 1.53851318 4 4 C4.39991275 6.73707075 4.55773504 9.07416143 4.53344727 11.81030273 C4.54206284 12.59289459 4.55067841 13.37548645 4.55955505 14.18179321 C4.58223839 16.76606419 4.5754719 19.34925276 4.56640625 21.93359375 C4.57164109 23.73194196 4.57791706 25.53028742 4.58518982 27.32862854 C4.59559858 31.0972282 4.59102626 34.8654504 4.57641602 38.6340332 C4.55923383 43.46090547 4.58271343 48.28658674 4.61790562 53.11332607 C4.63987932 56.82717257 4.63843814 60.54073412 4.6301403 64.25462532 C4.62932064 66.0340105 4.63618699 67.81341657 4.65091133 69.59274101 C4.668356 72.08266986 4.6538175 74.5704595 4.63110352 77.06030273 C4.64864182 78.16002663 4.64864182 78.16002663 4.66653442 79.28196716 C4.59388069 83.20139462 4.13577396 84.8362317 1.60043335 87.89431763 C-0.72102801 89.77410442 -2.99465484 91.47880304 -5.52734375 93.05859375 C-6.39061279 93.60209473 -7.25388184 94.1455957 -8.14331055 94.70556641 C-9.06539307 95.27710449 -9.98747559 95.84864258 -10.9375 96.4375 C-12.92199376 97.6834046 -14.90636533 98.92950386 -16.890625 100.17578125 C-17.90447266 100.8095166 -18.91832031 101.44325195 -19.96289062 102.09619141 C-24.72146606 105.07909906 -29.45313875 108.10387414 -34.1875 111.125 C-35.9997714 112.27770324 -37.81226993 113.43004946 -39.625 114.58203125 C-43.2527431 116.88765473 -46.87718416 119.1983622 -50.5 121.51171875 C-52.2290671 122.61213563 -53.95822954 123.71240273 -55.6875 124.8125 C-56.48373779 125.32248535 -57.27997559 125.8324707 -58.1003418 126.35791016 C-58.83422119 126.82374512 -59.56810059 127.28958008 -60.32421875 127.76953125 C-60.96447998 128.17792236 -61.60474121 128.58631348 -62.2644043 129.00708008 C-64 130 -64 130 -67 131 C-67 164.66 -67 198.32 -67 233 C-65.35 233.66 -63.7 234.32 -62 235 C-60.30122985 235.80487508 -58.61147252 236.62896247 -56.9296875 237.46875 C-55.47719604 238.19348511 -55.47719604 238.19348511 -53.99536133 238.93286133 C-52.96564209 239.45001709 -51.93592285 239.96717285 -50.875 240.5 C-49.79822998 241.03971436 -48.72145996 241.57942871 -47.61206055 242.13549805 C-40.57156502 245.67634731 -33.57521955 249.29093598 -26.6105957 252.97827148 C-19.60204742 256.68850539 -12.5799098 260.37200469 -5.54428101 264.03060913 C-4.2312993 264.7142638 -2.91913281 265.39948656 -1.6078186 266.08633423 C0.23724599 267.05248239 2.08505577 268.01317429 3.93359375 268.97265625 C5.00665771 269.53218994 6.07972168 270.09172363 7.18530273 270.66821289 C11.64724419 272.92277322 11.64724419 272.92277322 16.35571289 272.1706543 C17.65109985 271.5041687 17.65109985 271.5041687 18.97265625 270.82421875 C20.42949829 270.08522339 20.42949829 270.08522339 21.91577148 269.33129883 C22.95419189 268.78884521 23.9926123 268.2463916 25.0625 267.6875 C26.68877319 266.85545044 26.68877319 266.85545044 28.34790039 266.0065918 C31.57267873 264.35158702 34.78799287 262.67963566 38 261 C38.80920898 260.57750977 39.61841797 260.15501953 40.45214844 259.71972656 C43.34375588 258.206422 46.23202034 256.68711547 49.11450195 255.15649414 C54.47929985 252.31056506 59.86848202 249.51458984 65.26953125 246.73828125 C66.00465439 246.36034927 66.73977753 245.9824173 67.49717712 245.59303284 C71.2025306 243.68891697 74.90915372 241.78730662 78.61694336 239.88793945 C79.99985579 239.17793327 81.38275042 238.46789241 82.765625 237.7578125 C83.39100662 237.43835159 84.01638824 237.11889069 84.66072083 236.78974915 C87.72726718 235.21363287 90.70410736 233.56853911 93.63964844 231.76513672 C96.97512834 230.01306467 98.35545185 229.32752922 102 230 C104.67773438 231.29077148 104.67773438 231.29077148 107.59375 233.12109375 C108.69283691 233.80123535 109.79192383 234.48137695 110.92431641 235.18212891 C112.11621793 235.93390818 113.30811228 236.68569884 114.5 237.4375 C117.01505266 239.0012404 119.53496545 240.5570793 122.0546875 242.11328125 C123.02708878 242.71598846 123.02708878 242.71598846 124.01913452 243.33087158 C128.62317298 246.17679841 133.26714913 248.94577222 137.9453125 251.66796875 C138.91503998 252.23235909 138.91503998 252.23235909 139.90435791 252.80815125 C142.4167489 254.26789529 144.93058464 255.72504176 147.44848633 257.17526245 C165.68091473 267.68091473 165.68091473 267.68091473 170 272 C170.125 275.1875 170.125 275.1875 169 279 C162.94131608 284.33178508 154.96581869 287.82378194 147.875 291.5625 C139.35229671 296.10087564 130.88577773 300.71327166 122.5 305.5 C114.39554642 310.12056549 106.22637844 314.60025354 98 319 C88.77536791 323.93402628 79.63660253 328.99486789 70.54736328 334.17358398 C62.71897664 338.622913 54.81481262 342.92096635 46.87451172 347.16699219 C41.88904482 349.8449936 36.96223167 352.58514214 32.1015625 355.484375 C30.68641357 356.32246704 30.68641357 356.32246704 29.24267578 357.17749023 C27.46896568 358.23486397 25.70360065 359.30642002 23.94873047 360.39477539 C19.85546541 362.82832936 16.14749978 364.94939476 11.20800781 364.57202148 C5.94606559 363.20882703 1.31690877 360.29004141 -3.375 357.625 C-4.60080586 356.94579718 -5.82772493 356.26860013 -7.05566406 355.59326172 C-9.00482386 354.52083131 -10.95312872 353.44706157 -12.89819336 352.36721802 C-19.75103819 348.56376446 -26.67720138 344.903453 -33.61169434 341.25161743 C-37.21484963 339.35320897 -40.81425693 337.44771901 -44.4140625 335.54296875 C-45.48696533 334.97554207 -45.48696533 334.97554207 -46.58154297 334.39665222 C-57.40721845 328.67062259 -68.21949598 322.91934126 -79.03326416 317.17086792 C-84.41126581 314.31222554 -89.79090803 311.45668121 -95.1710968 308.60215759 C-98.52264121 306.82367575 -101.87340801 305.04375947 -105.22241211 303.26049805 C-106.53498379 302.56166797 -107.84756513 301.86285605 -109.16015625 301.1640625 C-109.80558884 300.82041153 -110.45102142 300.47676056 -111.11601257 300.12269592 C-115.09039038 298.00885395 -119.07221209 295.9098104 -123.05996704 293.82131958 C-125.6561599 292.46013294 -128.24859156 291.09188376 -130.8404541 289.72247314 C-132.63472836 288.77778437 -134.43399705 287.84260075 -136.23339844 286.90771484 C-137.85616699 286.04847412 -137.85616699 286.04847412 -139.51171875 285.171875 C-140.92650513 284.4308252 -140.92650513 284.4308252 -142.36987305 283.67480469 C-145.49038285 281.68773542 -147.63706406 279.86754948 -150 277 C-150.49130156 274.19894137 -150.67399418 272.00665091 -150.62818909 269.21250916 C-150.63528347 268.43518435 -150.64237786 267.65785954 -150.64968723 266.85697943 C-150.66727161 264.25562915 -150.64916131 261.6557722 -150.63110352 259.05444336 C-150.63624214 257.18829162 -150.64352299 255.32214473 -150.65278625 253.45600891 C-150.67131436 248.38989978 -150.65835323 243.32431633 -150.63869596 238.25822902 C-150.62232228 232.95897598 -150.63112045 227.65975656 -150.63621521 222.36048889 C-150.6407372 213.46216422 -150.62485876 204.56404969 -150.59692383 195.66577148 C-150.56486167 185.37336284 -150.56489116 175.08133303 -150.5821386 164.78889745 C-150.59799271 154.89234913 -150.59127794 144.99593989 -150.57420158 135.09939766 C-150.56732317 130.88533394 -150.56837162 126.67138144 -150.57574654 122.45731926 C-150.58339802 117.4971236 -150.57132044 112.53736002 -150.54389763 107.57723808 C-150.53700113 105.75512474 -150.53692932 103.93297115 -150.54411316 102.11085892 C-150.5527791 99.62692343 -150.5369017 97.14433023 -150.5146637 94.6605072 C-150.52290446 93.93628899 -150.53114523 93.21207078 -150.53963572 92.46590656 C-150.48321855 89.06114105 -150.24902645 87.31318131 -148.1006155 84.61129093 C-145.98164902 82.98592376 -143.88105841 81.56206658 -141.5703125 80.22265625 C-140.27154175 79.46311646 -140.27154175 79.46311646 -138.9465332 78.68823242 C-138.01542725 78.15174072 -137.08432129 77.61524902 -136.125 77.0625 C-134.12100594 75.89337967 -132.11710209 74.72410469 -130.11328125 73.5546875 C-129.09186035 72.96139648 -128.07043945 72.36810547 -127.01806641 71.75683594 C-122.43614105 69.08966761 -117.87452698 66.38851229 -113.3125 63.6875 C-111.48571613 62.60800684 -109.65889226 61.52858136 -107.83203125 60.44921875 C-101.38511486 56.63771593 -94.94247704 52.81899997 -88.5 49 C-80.23222085 44.09898939 -71.96247901 39.20134598 -63.6875 34.3125 C-62.79716064 33.78640137 -61.90682129 33.26030273 -60.98950195 32.71826172 C-56.53603084 30.08720054 -52.08135153 27.45821088 -47.625 24.83203125 C-46.72885986 24.30335449 -45.83271973 23.77467773 -44.90942383 23.22998047 C-43.10547169 22.16628136 -41.3006308 21.10408798 -39.49487305 20.04345703 C-34.96620925 17.3760154 -30.45993112 14.67898466 -25.99079895 11.91265869 C-24.28046734 10.85442275 -22.5670451 9.80136664 -20.8527832 8.74951172 C-18.66091153 7.40147792 -16.47551966 6.04283577 -14.29760742 4.67236328 C-13.30220947 4.06247559 -12.30681152 3.45258789 -11.28125 2.82421875 C-9.96737305 2.00570435 -9.96737305 2.00570435 -8.62695312 1.1706543 C-5.44227669 -0.24853934 -3.45048447 -0.50401307 0 0 Z M-16.66015625 21.19140625 C-17.51924591 21.69608932 -17.51924591 21.69608932 -18.39569092 22.21096802 C-20.28720357 23.32383703 -22.17486415 24.44306982 -24.0625 25.5625 C-25.38158859 26.3405321 -26.70084504 27.11827968 -28.02026367 27.89575195 C-37.33869171 33.39379666 -46.61804036 38.9565558 -55.88623047 44.53881836 C-63.94604265 49.38692725 -72.0571672 54.14221925 -80.18823242 58.86962891 C-88.64895947 63.78912501 -97.07946075 68.75818461 -105.5 73.74609375 C-109.3700946 76.0383698 -113.24585066 78.32073763 -117.125 80.59765625 C-118.63102783 81.48312134 -118.63102783 81.48312134 -120.16748047 82.38647461 C-122.09249262 83.51805885 -124.01854694 84.64787267 -125.94580078 85.77563477 C-126.81188965 86.28537842 -127.67797852 86.79512207 -128.5703125 87.3203125 C-129.33102051 87.76648926 -130.09172852 88.21266602 -130.87548828 88.67236328 C-131.57657715 89.1104834 -132.27766602 89.54860352 -133 90 C-134.04084558 90.56217586 -134.04084558 90.56217586 -135.10271835 91.13570881 C-137.31260744 92.93606071 -137.31260744 92.93606071 -137.49219131 96.16465282 C-137.48850414 97.481895 -137.48481697 98.79913717 -137.48101807 100.15629578 C-137.48443577 100.88981492 -137.48785347 101.62333407 -137.49137473 102.37908107 C-137.4979781 104.84385372 -137.47593831 107.30754403 -137.45410156 109.7722168 C-137.45297361 111.53618341 -137.45360592 113.30015191 -137.45587158 115.06411743 C-137.4570217 119.85940508 -137.43346433 124.65429447 -137.40557575 129.44948936 C-137.3806116 134.45831531 -137.37822404 139.46714987 -137.37347412 144.47602844 C-137.36102966 153.96395446 -137.32818817 163.45169666 -137.28807616 172.93954164 C-137.24340417 183.73986346 -137.22138292 194.54019394 -137.20129442 205.34058511 C-137.15945682 227.56049277 -137.08907622 249.78023482 -137 272 C-136.11983215 272.452612 -135.23966431 272.905224 -134.33282471 273.37155151 C-131.01231038 275.07952266 -127.69270716 276.78925843 -124.37335205 278.4994812 C-122.9469168 279.23412123 -121.5202472 279.96830645 -120.09332275 280.70199585 C-111.58843143 285.07543847 -103.12266935 289.5015474 -94.75 294.125 C-86.72968348 298.54380403 -78.64046762 302.80644307 -70.5 307 C-61.33240512 311.72315004 -52.24103414 316.55791898 -43.20703125 321.53125 C-35.32531478 325.8564423 -27.35800658 330.00640962 -19.35986328 334.11181641 C-14.08196985 336.83198051 -8.86122859 339.6167371 -3.703125 342.55859375 C-2.19975586 343.409375 -2.19975586 343.409375 -0.66601562 344.27734375 C1.23480514 345.3595257 3.12727999 346.45654181 5.00976562 347.5703125 C5.85732422 348.05113281 6.70488281 348.53195312 7.578125 349.02734375 C8.68269043 349.67304321 8.68269043 349.67304321 9.80957031 350.33178711 C12.8726875 351.26622221 14.18193224 350.4297352 17 349 C17.8544873 348.56905029 18.70897461 348.13810059 19.58935547 347.6940918 C20.50604004 347.20078369 21.42272461 346.70747559 22.3671875 346.19921875 C23.40552734 345.64105469 24.44386719 345.08289063 25.51367188 344.5078125 C26.62291016 343.90710938 27.73214844 343.30640625 28.875 342.6875 C30.03322266 342.06230469 31.19144531 341.43710937 32.38476562 340.79296875 C40.75335146 336.26489085 49.04554393 331.60891684 57.31201172 326.8972168 C64.48427661 322.82226218 71.72614397 318.89030514 79 315 C88.21651813 310.07031367 97.34802244 305.01520775 106.4284668 299.83959961 C114.4729108 295.26623988 122.59738826 290.8498575 130.75830078 286.48803711 C133.51504667 285.00860414 136.26085096 283.51174916 139 282 C139.96341309 281.47003418 140.92682617 280.94006836 141.91943359 280.39404297 C142.8367627 279.87084473 143.7540918 279.34764648 144.69921875 278.80859375 C145.52639404 278.34122803 146.35356934 277.8738623 147.20581055 277.39233398 C147.79789307 276.93286377 148.38997559 276.47339355 149 276 C149 275.01 149 274.02 149 273 C146.54782396 271.15621425 146.54782396 271.15621425 143.32421875 269.41015625 C142.73139603 269.06906326 142.1385733 268.72797028 141.52778625 268.37654114 C139.58663073 267.2617221 137.63730686 266.16210591 135.6875 265.0625 C133.02141331 263.5409232 130.35976624 262.01170683 127.69921875 260.48046875 C127.03767792 260.1008197 126.37613708 259.72117065 125.69454956 259.33001709 C119.20477889 255.58473181 112.90697538 251.55163667 106.7253418 247.31665039 C106.032229 246.85895264 105.33911621 246.40125488 104.625 245.9296875 C104.03976562 245.52991699 103.45453125 245.13014648 102.8515625 244.71826172 C100.19773308 243.68878306 98.70722808 244.1789226 96 245 C94.01014937 245.90093028 92.05101055 246.87108628 90.1171875 247.88671875 C88.96379883 248.48822754 87.81041016 249.08973633 86.62207031 249.70947266 C85.37300697 250.3687395 84.1239846 251.02808398 82.875 251.6875 C81.57422644 252.36831279 80.27311428 253.04847901 78.97167969 253.72802734 C76.29114489 255.1285093 73.61225376 256.53206269 70.93457031 257.93798828 C63.95098582 261.60198787 56.94349242 265.22019027 49.93432617 268.83496094 C44.84222593 271.46619908 39.76324074 274.11505777 34.72451782 276.84747314 C32.99118769 277.78650935 31.25391963 278.71826492 29.51660156 279.64990234 C27.35117337 280.8126528 25.19251239 281.98812571 23.04199219 283.17822266 C22.07293945 283.69562012 21.10388672 284.21301758 20.10546875 284.74609375 C18.83932739 285.43723267 18.83932739 285.43723267 17.54760742 286.14233398 C12.72240279 287.7667656 9.06670933 286.13528345 4.6730957 284.02563477 C3.00296609 283.17270567 1.33743733 282.31072785 -0.32421875 281.44140625 C-1.67553642 280.74663429 -1.67553642 280.74663429 -3.05415344 280.03782654 C-5.93596431 278.5537111 -8.81170858 277.05824001 -11.6875 275.5625 C-13.57058422 274.59106123 -15.45404468 273.6203514 -17.33789062 272.65039062 C-27.07969623 267.6267115 -36.78902057 262.54246811 -46.48197937 257.42527771 C-50.898691 255.09622566 -55.32870556 252.79887266 -59.78125 250.5390625 C-60.74417969 250.04792969 -61.70710938 249.55679688 -62.69921875 249.05078125 C-64.62553013 248.07016249 -66.55543975 247.0965903 -68.48828125 246.12890625 C-69.90173828 245.40380859 -69.90173828 245.40380859 -71.34375 244.6640625 C-72.17068359 244.24592285 -72.99761719 243.8277832 -73.84960938 243.39697266 C-76.28557282 241.81448142 -77.4541944 240.45326962 -79 238 C-79.38311005 235.77262974 -79.38311005 235.77262974 -79.39440918 233.30067444 C-79.40575897 232.36001633 -79.41710876 231.41935822 -79.42880249 230.45019531 C-79.42440659 228.91262573 -79.42440659 228.91262573 -79.41992188 227.34399414 C-79.42839142 226.2590416 -79.43686096 225.17408905 -79.44558716 224.05625916 C-79.46900799 220.46577265 -79.46997809 216.8757134 -79.46875 213.28515625 C-79.47584835 210.79178189 -79.48354686 208.29840918 -79.49182129 205.80503845 C-79.50527769 200.57710399 -79.50701042 195.34927981 -79.50097656 190.12133789 C-79.49506949 184.75037255 -79.50916527 179.37990013 -79.54199219 174.0090332 C-79.58108152 167.52692422 -79.59579599 161.04523925 -79.59120178 154.56301689 C-79.59289694 152.09143695 -79.60257725 149.61984925 -79.62034607 147.1483326 C-79.64245066 143.69352729 -79.63287552 140.24020011 -79.61523438 136.78540039 C-79.62849762 135.76237823 -79.64176086 134.73935608 -79.65542603 133.68533325 C-79.57281348 126.73159116 -79.57281348 126.73159116 -76.58343506 122.91358948 C-72.32363263 119.7582893 -72.32363263 119.7582893 -70.171875 118.4921875 C-69.46409912 118.0691333 -68.75632324 117.6460791 -68.02709961 117.21020508 C-67.27565674 116.7695874 -66.52421387 116.32896973 -65.75 115.875 C-64.11999247 114.89897225 -62.49111025 113.92106305 -60.86328125 112.94140625 C-60.04424316 112.44914551 -59.22520508 111.95688477 -58.38134766 111.44970703 C-54.85623978 109.30370636 -51.39345563 107.06767183 -47.9375 104.8125 C-41.12370602 100.37365885 -34.28992936 95.96696361 -27.44094849 91.58261108 C-25.78174765 90.52032608 -24.12316747 89.45707184 -22.46459961 88.39379883 C-21.43987549 87.73790771 -20.41515137 87.0820166 -19.359375 86.40625 C-18.44639648 85.82166016 -17.53341797 85.23707031 -16.59277344 84.63476562 C-14 83 -14 83 -11.37342834 81.77482605 C-8.73571742 80.20474488 -8.73571742 80.20474488 -8.39872742 77.28547668 C-8.40983047 76.19071518 -8.42093353 75.09595367 -8.43237305 73.96801758 C-8.4327507 72.72695755 -8.43312836 71.48589752 -8.43351746 70.20722961 C-8.45905065 68.85298665 -8.48513063 67.49875391 -8.51171875 66.14453125 C-8.52104575 64.75877659 -8.5281624 63.37300544 -8.53315735 61.98722839 C-8.55223684 58.34207536 -8.60134335 54.69792056 -8.65667725 51.05316162 C-8.7078507 47.3331045 -8.73066716 43.61288586 -8.75585938 39.89257812 C-8.80946329 32.59459727 -8.89478496 25.29743857 -9 18 C-12.08495643 18 -14.01955987 19.63350526 -16.66015625 21.19140625 Z " fill="#FEFCFA" transform="translate(246,77)"></path><path d="M0 0 C2.75048828 1.18652344 2.75048828 1.18652344 5.5703125 2.859375 C6.62065674 3.47409668 7.67100098 4.08881836 8.75317383 4.72216797 C9.86587646 5.39135254 10.9785791 6.06053711 12.125 6.75 C13.29972703 7.44396802 14.47511008 8.13682667 15.65112305 8.82861328 C19.11083552 10.86912322 22.55617851 12.93278286 26 15 C27.7122371 16.02344166 29.42447641 17.04687962 31.13671875 18.0703125 C33.47923633 19.47359369 35.82002511 20.87954484 38.1574707 22.29125977 C45.66916995 26.82507724 53.23888479 31.25830146 60.8125 35.6875 C69.33739563 40.67396409 77.84796749 45.67974837 86.3046875 50.78125 C91.04034875 53.63271699 95.80255493 56.43933041 100.5625 59.25 C101.48820801 59.79696533 102.41391602 60.34393066 103.36767578 60.9074707 C108.23584678 63.78251676 113.10771481 66.6510947 117.984375 69.51171875 C118.96075928 70.08567383 119.93714355 70.65962891 120.94311523 71.25097656 C122.79551127 72.33974979 124.64910587 73.42648759 126.50415039 74.51074219 C141.09435117 83.09435117 141.09435117 83.09435117 144 86 C144.10339576 88.05602945 144.13523057 90.11566484 144.14044189 92.17428589 C144.14341302 92.82639199 144.14638414 93.4784981 144.1494453 94.150365 C144.15816736 96.35139539 144.15964348 98.55237162 144.16113281 100.75341797 C144.16575851 102.32503375 144.17078283 103.89664839 144.17617798 105.46826172 C144.18932794 109.7492587 144.19575198 114.03023999 144.20018864 118.31125402 C144.20311519 120.98323244 144.20721919 123.65520653 144.21169281 126.32718277 C144.22537459 134.67954581 144.2350379 143.03189899 144.2388947 151.38427246 C144.24337727 161.04002064 144.26093149 170.69562738 144.2898953 180.35133255 C144.31148171 187.80526868 144.32159735 195.25916495 144.32293582 202.71313202 C144.32398604 207.1694857 144.32993965 211.62570655 144.34775543 216.08202744 C144.36418371 220.27300234 144.36641733 224.46374384 144.35761642 228.65473938 C144.35684322 230.19509123 144.36122587 231.73545535 144.37107468 233.27577591 C144.38371074 235.3747142 144.37796398 237.47281537 144.36749268 239.57174683 C144.36895924 240.74757765 144.3704258 241.92340847 144.3719368 243.13487053 C144 246 144 246 142.65302658 247.8778553 C140.02396993 249.66257069 138.10485737 249.37304949 135 249 C132.10107422 247.70922852 132.10107422 247.70922852 129.0546875 245.87890625 C128.21537186 245.38188202 128.21537186 245.38188202 127.35910034 244.87481689 C125.52323576 243.78324899 123.69928691 242.67329027 121.875 241.5625 C120.59340179 240.79476715 119.31116478 240.02809975 118.02832031 239.26245117 C114.68219966 237.26058716 111.34630253 235.24229953 108.01281738 233.21948242 C105.38039536 231.62460729 102.74233526 230.03920067 100.10415649 228.45387268 C96.98350016 226.57772287 93.86610096 224.69620447 90.75 222.8125 C90.16957947 222.46164337 89.58915894 222.11078674 88.9911499 221.7492981 C70.63109288 210.63109288 70.63109288 210.63109288 68 208 C67.90503292 205.59651714 67.87441138 203.22189018 67.88647461 200.81811523 C67.88632858 200.06694427 67.88618256 199.31577332 67.8860321 198.5418396 C67.88673137 196.04739541 67.89452436 193.55302497 67.90234375 191.05859375 C67.90420788 189.33366436 67.90563181 187.60873443 67.90663147 185.88380432 C67.91045703 181.33487497 67.92028762 176.78597733 67.93133545 172.23706055 C67.94154876 167.59879994 67.94612892 162.96053423 67.95117188 158.32226562 C67.96190986 149.21482978 67.97898673 140.10741752 68 131 C66.58676956 130.54207062 66.58676956 130.54207062 65.14498901 130.07489014 C62.2899016 129.09908218 60.01645722 128.00468753 57.4453125 126.453125 C56.59582031 125.94523437 55.74632812 125.43734375 54.87109375 124.9140625 C53.96488281 124.36492187 53.05867188 123.81578125 52.125 123.25 C50.14887487 122.06697744 48.17229646 120.88471179 46.1953125 119.703125 C45.17469727 119.09146484 44.15408203 118.47980469 43.10253906 117.84960938 C38.09051827 114.86164356 33.04474833 111.93224711 28 109 C25.00950562 107.25642036 22.01963289 105.51177806 19.02978516 103.76708984 C16.97017577 102.56584466 14.90993073 101.36568881 12.84912109 100.16650391 C9.79255917 98.38639181 6.73965198 96.60016016 3.6875 94.8125 C2.75615234 94.27173828 1.82480469 93.73097656 0.86523438 93.17382812 C0.00607422 92.66916016 -0.85308594 92.16449219 -1.73828125 91.64453125 C-2.49149658 91.20471924 -3.24471191 90.76490723 -4.02075195 90.31176758 C-7.56040827 87.96582291 -7.56040827 87.96582291 -9 86 C-9.29606882 83.28640346 -9.40985423 80.80216518 -9.38818359 78.08789062 C-9.39344055 77.28272507 -9.39869751 76.47755951 -9.40411377 75.647995 C-9.41732825 72.98388323 -9.40857073 70.32036794 -9.3984375 67.65625 C-9.40045782 65.80684291 -9.40336891 63.95743659 -9.40713501 62.10803223 C-9.41156032 58.2309613 -9.40512067 54.35409763 -9.39111328 50.47705078 C-9.37402126 45.50337476 -9.38386134 40.53018438 -9.40183067 35.55652618 C-9.41266293 31.7372877 -9.40922474 27.91816466 -9.4014473 24.09892273 C-9.39944374 22.26486657 -9.40190999 20.43079997 -9.40888596 18.59675598 C-9.41649131 16.03492404 -9.40490951 13.47388234 -9.38818359 10.91210938 C-9.39425629 10.15149704 -9.40032898 9.3908847 -9.40658569 8.60722351 C-9.34475971 3.50470284 -9.34475971 3.50470284 -7.65319824 1.02838135 C-5.01388361 -0.6134193 -3.04231599 -0.35250069 0 0 Z M4 18 C3.43974611 25.83857862 3.0156385 33.6723685 2.75650787 41.52601814 C2.63196389 45.17613219 2.46403656 48.81244266 2.18945312 52.45458984 C0.54407327 68.4718677 0.54407327 68.4718677 6.23974609 82.6385498 C11.8818687 87.15526216 18.12892324 89.98256971 24.80705261 92.63697815 C30.15964214 94.92191917 35.03682835 97.98138048 40 101 C41.9706137 102.15583322 43.94303595 103.30859352 45.91796875 104.45703125 C46.90458496 105.03275879 47.89120117 105.60848633 48.90771484 106.20166016 C52.1799996 108.10468002 55.45857579 109.99651941 58.73828125 111.88671875 C59.83849609 112.52287109 60.93871094 113.15902344 62.07226562 113.81445312 C64.18724278 115.03703486 66.3043412 116.25595638 68.42382812 117.47070312 C69.37322266 118.02048828 70.32261719 118.57027344 71.30078125 119.13671875 C72.55628784 119.85927856 72.55628784 119.85927856 73.8371582 120.59643555 C77.51518854 122.98327338 77.51518854 122.98327338 79 125 C79.21031189 128.13162231 79.21031189 128.13162231 78.98803711 132.04736328 C78.91591432 133.52861589 78.84466162 135.00991105 78.77415466 136.49124146 C78.73204802 137.27704716 78.68994137 138.06285286 78.64655876 138.87247086 C78.44249197 143.06257398 78.35469667 147.25561717 78.25195312 151.44921875 C78.12067983 156.7766049 77.95522997 162.09241705 77.62524414 167.41162109 C75.81052508 185.75722742 75.81052508 185.75722742 81.20731735 202.68740463 C87.45484983 209.36574282 96.03964213 212.953221 104.34214783 216.38090515 C110.34282792 218.92264474 115.7150382 222.55671532 121.1875 226.0625 C123.07438093 227.22402842 124.963277 228.38229968 126.85546875 229.53515625 C127.63559326 230.013479 128.41571777 230.49180176 129.21948242 230.98461914 C130.80316372 232.08256366 130.80316372 232.08256366 132 232 C132.58593043 214.1373916 133.02573998 196.27729732 133.2953043 178.40713406 C133.42384527 170.10774186 133.59875964 161.81434104 133.88598633 153.51879883 C134.13645243 146.28146092 134.29672696 139.04845918 134.35221237 131.80690819 C134.38463372 127.97519849 134.45972301 124.15588059 134.64325142 120.32818413 C135.84895962 104.25426983 135.84895962 104.25426983 129.55315399 90.26225471 C123.55782099 85.47053179 116.98795967 82.22162026 109.9381361 79.26649857 C106.106702 77.61493934 102.70255027 75.58255783 99.1640625 73.37890625 C96.9850685 72.10558333 94.80539407 70.83342401 92.625 69.5625 C90.17779053 68.13252658 87.73137658 66.70119598 85.28515625 65.26953125 C84.67943283 64.91510956 84.07370941 64.56068787 83.44963074 64.19552612 C74.73253243 59.09142943 66.04962504 53.92963584 57.36328125 48.7734375 C53.3232253 46.37558666 49.27952531 43.9841825 45.23046875 41.6015625 C43.40360415 40.52611247 41.57678029 39.45059323 39.75 38.375 C38.87835205 37.86203369 38.0067041 37.34906738 37.10864258 36.82055664 C32.24473445 33.9484533 27.40859128 31.03574008 22.59375 28.08203125 C21.53446289 27.43250488 20.47517578 26.78297852 19.38378906 26.11376953 C17.33107524 24.85201259 15.28084252 23.58620822 13.23339844 22.31591797 C12.3159082 21.75146973 11.39841797 21.18702148 10.453125 20.60546875 C9.64004883 20.10168701 8.82697266 19.59790527 7.98925781 19.07885742 C6.08414894 17.84108605 6.08414894 17.84108605 4 18 Z " fill="#FEFDFB" transform="translate(278,77)"></path><path d="M0 0 C4.29 0 8.58 0 13 0 C13.33 14.19 13.66 28.38 14 43 C16.495625 40.36 18.99125 37.72 21.5625 35 C22.33408447 34.1853125 23.10566895 33.370625 23.90063477 32.53125 C27.80600596 28.39047157 31.61678219 24.18898321 35.34545898 19.88867188 C38.42018758 16.37884445 41.62277716 12.98706038 44.8125 9.58203125 C47.86181606 6.32763979 47.86181606 6.32763979 50.31640625 2.625 C52.78597689 0.24137729 54.97484505 0.59172609 58.30664062 0.6484375 C59.09232422 0.68195313 59.87800781 0.71546875 60.6875 0.75 C61.48478516 0.76804688 62.28207031 0.78609375 63.10351562 0.8046875 C65.06952449 0.85177753 67.03491494 0.92352101 69 1 C67.43767979 4.67956291 65.16415918 7.16515793 62.4375 10.0625 C58.96608181 13.79595956 55.6408372 17.59216657 52.4375 21.5625 C48.85904632 25.99626071 45.11547096 30.22837631 41.27734375 34.4375 C38.01272019 38.11090147 34.92978016 41.92316537 31.84765625 45.75 C30 48 30 48 28 50 C28.13213513 54.80641532 30.79630355 57.37840169 34 60.625 C35.01024754 61.68518498 36.0180209 62.74773254 37.0234375 63.8125 C37.77898926 64.61107422 37.77898926 64.61107422 38.54980469 65.42578125 C40.68226165 67.74060996 42.65341848 70.17271486 44.625 72.625 C47.48881783 76.18184136 50.42346328 79.62539052 53.5 83 C60.45084496 90.64229028 66.88665437 98.67615642 73 107 C58.29325941 109.05894368 58.29325941 109.05894368 53.16308594 105.8515625 C49.69561319 102.66830883 47.05875909 98.83991368 44.40332031 94.97558594 C42.1473118 91.79959066 39.57138215 88.92151543 37 86 C36.00743711 84.84518968 35.01655583 83.68893193 34.02734375 82.53125 C31.93732486 80.09278098 29.84598931 77.65544824 27.75390625 75.21875 C27.21958984 74.59613281 26.68527344 73.97351563 26.13476562 73.33203125 C25.12209168 72.15204596 24.10909596 70.97233671 23.09570312 69.79296875 C22.63228516 69.25285156 22.16886719 68.71273437 21.69140625 68.15625 C21.29123291 67.69025391 20.89105957 67.22425781 20.47875977 66.74414062 C18.30224144 64.17702045 16.15461172 61.58553406 14 59 C13.67 75.5 13.34 92 13 109 C8.71 109 4.42 109 0 109 C0 73.03 0 37.06 0 0 Z " fill="#FEFBF9" transform="translate(230,205)"></path></svg>