<svg version="1.1" xmlns="http://www.w3.org/2000/svg" width="16px" height="16px" fill="currentColor" viewBox="0 0 512 512"><path d="M0 0 C168.96 0 337.92 0 512 0 C512 168.96 512 337.92 512 512 C343.04 512 174.08 512 0 512 C0 343.04 0 174.08 0 0 Z " fill="#E3740D" transform="translate(0,0)"></path><path d="M0 0 C1.74884682 0.8730548 3.49549752 1.75051737 5.2403717 2.63148499 C6.19916733 3.11153992 7.15796295 3.59159485 8.14581299 4.0861969 C11.31598717 5.67452842 14.48332917 7.26842766 17.65077209 8.86219788 C19.87375685 9.97683012 22.09695067 11.09104552 24.32034302 12.2048645 C29.58884003 14.84508896 34.85569021 17.4885725 40.1216045 20.13394409 C50.04195187 25.11749667 59.96496927 30.0957179 69.88981819 35.07029915 C73.11337742 36.68709509 76.335511 38.30670373 79.55749512 39.92663574 C81.59869354 40.95110477 83.64011717 41.97512522 85.68177795 42.99867249 C87.15117278 43.73571867 87.15117278 43.73571867 88.65025234 44.48765469 C93.77045884 47.04436678 98.91009601 49.55029301 104.08512878 51.99430847 C105.1433336 52.4943744 106.20153841 52.99444033 107.29181004 53.50965977 C109.31131149 54.4598869 111.33359321 55.40423486 113.35903072 56.34174252 C114.26113561 56.76542897 115.16324049 57.18911543 116.09268188 57.62564087 C116.885579 57.99337396 117.67847612 58.36110704 118.49540043 58.73998356 C120.57256357 59.90387365 121.97630524 61.13452494 123.56092834 62.89735413 C122.89899475 63.27843323 122.23706116 63.65951233 121.55506897 64.05213928 C109.53991172 70.97139794 97.53149295 77.90112589 85.56092834 84.89735413 C76.15103395 90.39682479 66.71622265 95.85184612 57.27186584 101.29188538 C49.03378121 106.04008929 40.81717095 110.82411271 32.60877991 115.62342834 C26.30005042 119.30887982 19.97576477 122.96612529 13.64125061 126.60707092 C8.27499021 129.69323124 2.9159164 132.79168042 -2.43907166 135.89735413 C-3.44244568 136.47888245 -4.4458197 137.06041077 -5.479599 137.65956116 C-8.28452496 139.29145879 -11.08180004 140.93564079 -13.87657166 142.58485413 C-15.11938904 143.30632629 -15.11938904 143.30632629 -16.38731384 144.04237366 C-17.14560486 144.4933844 -17.90389587 144.94439514 -18.68516541 145.40907288 C-19.34186218 145.79538879 -19.99855896 146.18170471 -20.67515564 146.57972717 C-22.86648239 148.21662551 -24.02911753 149.52810995 -25.43907166 151.89735413 C-25.73273904 154.43052003 -25.85551972 156.71794801 -25.83779907 159.24983215 C-25.8444459 159.99237283 -25.85109273 160.73491351 -25.85794097 161.49995542 C-25.8765991 163.98900614 -25.87396385 166.47757736 -25.8714447 168.96669006 C-25.88046016 170.75051555 -25.89078684 172.53433482 -25.90232849 174.31814575 C-25.92995005 179.16281198 -25.93919001 184.00736082 -25.94518256 188.8520956 C-25.95455282 193.91436875 -25.98075509 198.97655376 -26.00518799 204.03877258 C-26.04889382 213.62572428 -26.0774157 223.21265891 -26.10051137 232.79967999 C-26.12754115 243.71376323 -26.17145403 254.62775797 -26.21680009 265.54177809 C-26.30970487 287.99358882 -26.3813589 310.44542731 -26.43907166 332.89735413 C-27.19732113 332.483583 -27.9555706 332.06981188 -28.73679733 331.64350224 C-29.72988026 331.10168025 -30.72296318 330.55985826 -31.74613953 330.00161743 C-32.731264 329.46409631 -33.71638847 328.92657518 -34.7313652 328.37276554 C-37.46797607 326.8816043 -40.20913859 325.39931757 -42.95469666 323.92469788 C-53.89689043 318.03252828 -64.77951153 312.05171519 -75.58506775 305.91249084 C-82.97096167 301.71826435 -90.38583414 297.57858581 -97.81407166 293.45985413 C-110.70892645 286.30757657 -123.58350603 279.12001379 -136.43907166 271.89735413 C-137.53026306 271.28456604 -138.62145447 270.67177795 -139.74571228 270.04042053 C-142.97803001 268.22401703 -146.20883463 266.40495486 -149.43907166 264.58485413 C-150.92745544 263.74833313 -150.92745544 263.74833313 -152.44590759 262.89491272 C-153.35115173 262.38396057 -154.25639587 261.87300842 -155.18907166 261.34657288 C-155.98829041 260.89628723 -156.78750916 260.44600159 -157.61094666 259.98207092 C-159.43907166 258.89735413 -159.43907166 258.89735413 -160.43907166 257.89735413 C-160.5844939 255.6748262 -160.65898592 253.44765637 -160.70736694 251.22090149 C-160.72374382 250.51459776 -160.74012069 249.80829402 -160.75699383 249.08058715 C-160.81047608 246.69569819 -160.85629514 244.31072968 -160.90171814 241.92567444 C-160.937427 240.22250085 -160.9732731 238.51933013 -161.00924683 236.81616211 C-161.32710937 221.2246877 -161.51246206 205.6311901 -161.66107082 190.03728104 C-161.76335763 179.55318906 -161.90689625 169.07297643 -162.15367126 158.59120178 C-162.36890123 149.44758843 -162.50591727 140.30670298 -162.54968888 131.16060138 C-162.57543101 126.32067071 -162.63886825 121.48817162 -162.79569817 116.6505661 C-163.71074113 87.2535224 -163.71074113 87.2535224 -158.28472519 80.02888107 C-153.13377278 75.52034831 -147.47512875 72.95093553 -141.02611542 70.80478954 C-137.52144709 69.57548673 -134.65451533 67.84891302 -131.51719666 65.87391663 C-129.57517616 64.75553388 -127.63247709 63.63832855 -125.68907166 62.52235413 C-123.48854405 61.2554388 -121.28802343 59.98851136 -119.08750916 58.72157288 C-117.9901947 58.09041565 -116.89288025 57.45925842 -115.76231384 56.80897522 C-110.27774278 53.6540978 -104.79544093 50.49529064 -99.31407166 47.33485413 C-98.23673767 46.71368713 -97.15940369 46.09252014 -96.04942322 45.45252991 C-88.83366071 41.28842005 -81.63227404 37.10029704 -74.43907166 32.89735413 C-65.0902449 27.43489345 -55.73076144 21.99120241 -46.33457947 16.61048889 C-41.20647422 13.67050374 -36.0976258 10.70727717 -31.04243469 7.64376831 C-28.66982889 6.20791697 -26.28845911 4.78697363 -23.90629578 3.36705017 C-22.22504849 2.35647923 -20.55672362 1.32450822 -18.88877869 0.29212952 C-17.35906433 -0.6167804 -17.35906433 -0.6167804 -15.79844666 -1.54405212 C-14.90609314 -2.08747253 -14.01373962 -2.63089294 -13.09434509 -3.19078064 C-8.36614048 -4.81452505 -4.28637862 -2.07918301 0 0 Z " fill="#E2730E" transform="translate(269.43907165527344,94.10264587402344)"></path><path d="M0 0 C2.8100346 1.79363911 4.50940468 3.01880935 6 6 C6.10086575 8.16778143 6.13513234 10.33874507 6.14044189 12.50886536 C6.14341302 13.18491607 6.14638414 13.86096678 6.1494453 14.55750388 C6.15814998 16.83367707 6.15964203 19.10979778 6.16113281 21.38598633 C6.16575976 23.01361708 6.17078425 24.64124673 6.17617798 26.26887512 C6.1893164 30.69870278 6.19574981 35.12851528 6.20018864 39.55835938 C6.2031172 42.32466668 6.20722161 45.09096981 6.21169281 47.85727501 C6.2253719 56.5086429 6.23503639 65.16000129 6.2388947 73.81137925 C6.24337581 83.80498836 6.26092442 93.79846073 6.2898953 103.79202825 C6.31149927 111.51183091 6.3215983 119.23159506 6.32293582 126.95142764 C6.32398483 131.56432419 6.32991279 136.17709227 6.34775543 140.78995705 C6.36421382 145.12950938 6.36640253 149.46883635 6.35761642 153.80840874 C6.35684483 155.40113554 6.36120484 156.99387434 6.37107468 158.58657074 C6.38376127 160.76137766 6.37793598 162.93538251 6.36749268 165.11018372 C6.36895924 166.3271182 6.3704258 167.54405268 6.3719368 168.79786396 C5.96348941 172.31433267 5.09002139 174.17422854 3 177 C0.96069336 178.59887695 0.96069336 178.59887695 -1.41015625 179.98828125 C-2.30371826 180.52106689 -3.19728027 181.05385254 -4.11791992 181.6027832 C-5.57548706 182.44909302 -5.57548706 182.44909302 -7.0625 183.3125 C-9.16462444 184.56155475 -11.26616563 185.81159151 -13.3671875 187.0625 C-14.4612793 187.70960938 -15.55537109 188.35671875 -16.68261719 189.0234375 C-22.05565308 192.22479889 -27.36902725 195.52158085 -32.6875 198.8125 C-42.35469452 204.77450305 -52.05190717 210.68502581 -61.76611328 216.56991577 C-70.26290442 221.71808392 -78.73372276 226.90635949 -87.1875 232.125 C-96.09162804 237.61902191 -105.02850452 243.05447347 -114 248.4375 C-115.07531982 249.08283691 -116.15063965 249.72817383 -117.25854492 250.39306641 C-127.68171764 256.63182824 -127.68171764 256.63182824 -134 256 C-137.47998516 253.99707521 -139.7068445 251.87946651 -141 248 C-141.11111506 245.51731291 -141.16760669 243.06191985 -141.17700195 240.57861328 C-141.18357315 239.82542816 -141.19014435 239.07224304 -141.19691467 238.29623413 C-141.21662234 235.80425922 -141.22830345 233.31234446 -141.23828125 230.8203125 C-141.24235678 229.96876461 -141.2464323 229.11721672 -141.25063133 228.23986435 C-141.27147942 223.73429355 -141.28578763 219.22875311 -141.29516602 214.72314453 C-141.30623907 210.07022499 -141.34065265 205.41778254 -141.38033772 200.76503181 C-141.40647915 197.18593455 -141.41485554 193.60695152 -141.41844749 190.02776718 C-141.42331841 188.31255743 -141.43494683 186.59735296 -141.45348549 184.88223648 C-141.47782931 182.48116401 -141.47692136 180.08133383 -141.4699707 177.68017578 C-141.48278076 176.97350769 -141.49559082 176.2668396 -141.50878906 175.53875732 C-141.45826297 170.74475121 -140.36219479 168.38082974 -137 165 C-134.56835938 163.16992188 -134.56835938 163.16992188 -131.84375 161.46875 C-130.83094971 160.82945557 -129.81814941 160.19016113 -128.7746582 159.53149414 C-127.694021 158.86110107 -126.61338379 158.19070801 -125.5 157.5 C-123.80419081 156.43216843 -122.10838784 155.36432622 -120.41340637 154.29518127 C-119.2689142 153.57388459 -118.12371858 152.85370289 -116.97782898 152.1346283 C-111.71858478 148.83407003 -106.51008747 145.45902473 -101.3125 142.0625 C-99.82968394 141.09465845 -98.34661418 140.12720546 -96.86328125 139.16015625 C-96.16406555 138.68134003 -95.46484985 138.2025238 -94.7444458 137.709198 C-92 136 -92 136 -88.512146 134.39212036 C-81.61634055 131.06695806 -81.61634055 131.06695806 -77.2142849 125.09158897 C-76.00240513 119.44214936 -76.37368975 113.69318821 -76.58984375 107.95703125 C-76.60623876 106.10101516 -76.61569204 104.24492603 -76.61854553 102.38883972 C-76.64124401 97.52115163 -76.7431529 92.65859747 -76.86657715 87.7925415 C-77.05210906 79.99684823 -77.12193169 72.19960582 -77.18142891 64.40210533 C-77.21434735 61.68549723 -77.28437552 58.9717765 -77.35984802 56.25605774 C-77.3865425 54.58714171 -77.4123903 52.91821186 -77.43725586 51.24926758 C-77.46787613 50.4995166 -77.4984964 49.74976563 -77.53004456 48.97729492 C-77.55759204 45.06625336 -77.06183522 42.5979302 -74.63153076 39.59817505 C-72.09407752 37.09288505 -69.84024922 35.39337146 -66.73828125 33.66015625 C-65.71428223 33.07943359 -64.6902832 32.49871094 -63.63525391 31.90039062 C-62.53874512 31.29388672 -61.44223633 30.68738281 -60.3125 30.0625 C-58.57033442 29.07879311 -56.82817941 28.0950669 -55.08666992 27.11019897 C-53.27639186 26.08829861 -51.46333733 25.07146153 -49.64990234 24.05517578 C-43.77739495 20.75719193 -37.95448275 17.37326153 -32.125 14 C-29.08125652 12.24514891 -26.03744059 10.49045899 -22.99145508 8.73950195 C-20.89538086 7.52065524 -18.8100856 6.28317017 -16.7331543 5.03198242 C-15.67265869 4.39623291 -14.61216309 3.7604834 -13.51953125 3.10546875 C-12.56667236 2.52692139 -11.61381348 1.94837402 -10.63208008 1.35229492 C-6.64381733 -0.69677171 -4.39747915 -0.84863633 0 0 Z " fill="#E5770C" transform="translate(416,185)"></path><path d="M0 0 C5.58784337 0.08314135 9.80448629 2.5671257 14.62890625 5.17578125 C16.34718872 6.08149023 18.06736756 6.98360733 19.7890625 7.8828125 C20.74506851 8.38214294 21.70107452 8.88147339 22.68605042 9.39593506 C27.44136729 11.8358601 32.27897352 14.1024309 37.10717773 16.39355469 C48.70152295 21.91856989 60.20694989 27.61017639 71.69140625 33.359375 C73.70436912 34.36551819 75.71739125 35.37154283 77.73046875 36.37745667 C81.89550521 38.45924714 86.05983383 40.54244459 90.22363281 42.62670898 C95.54678059 45.29116014 100.87174842 47.95195126 106.19723511 50.6117239 C110.3312578 52.67692787 114.46432546 54.74403717 118.59710693 56.81172371 C120.56153057 57.7942674 122.52624782 58.77622431 124.49127197 59.75756645 C127.22562437 61.12346867 129.95867623 62.49193944 132.69140625 63.86108398 C133.49037323 64.25955536 134.28934021 64.65802673 135.11251831 65.068573 C148.02289624 71.54801624 148.02289624 71.54801624 150.56640625 75.36328125 C151.03860159 80.46299092 150.55399476 83.2326154 147.56640625 87.36328125 C145.34375 89.07421875 145.34375 89.07421875 142.50390625 90.73828125 C141.68055786 91.22639282 141.68055786 91.22639282 140.84057617 91.72436523 C138.75733035 92.95178228 136.66219113 94.15739753 134.56640625 95.36328125 C132.65741726 96.47112188 130.74857462 97.57921471 128.83984375 98.6875 C123.24551674 101.928277 117.64132008 105.15170382 112.03466797 108.37109375 C106.50019721 111.55012243 100.97037336 114.73719252 95.44140625 117.92578125 C93.82649292 118.85692749 93.82649292 118.85692749 92.17895508 119.80688477 C84.96242129 123.97133453 77.76033198 128.15991569 70.56640625 132.36328125 C62.28858505 137.19996012 53.99698754 142.01192161 45.69140625 146.80078125 C44.62422363 147.41614746 43.55704102 148.03151367 42.45751953 148.66552734 C37.38038873 151.59191324 32.30186895 154.51586728 27.22134399 157.43635559 C25.44139285 158.4597738 23.66179956 159.48381138 21.88232422 160.50805664 C19.65291288 161.79106752 17.42281249 163.07288213 15.19189453 164.35327148 C14.17853027 164.93665283 13.16516602 165.52003418 12.12109375 166.12109375 C11.23921387 166.62785645 10.35733398 167.13461914 9.44873047 167.65673828 C8.49756348 168.21989746 7.54639648 168.78305664 6.56640625 169.36328125 C5.57712285 169.68662146 5.57712285 169.68662146 4.56785393 170.0164938 C1.86211389 171.13035773 0.44268015 172.09094673 -1.43359375 174.36328125 C-2.68002041 180.09235786 -2.46155918 185.79607501 -2.37011719 191.63452148 C-2.37117486 193.42846206 -2.37580617 195.22240357 -2.38374329 197.0163269 C-2.39321835 200.87780235 -2.37753133 204.73806907 -2.34236908 208.59939384 C-2.28704535 214.70514369 -2.2882445 220.81008517 -2.29718018 226.91603088 C-2.30468455 236.57395267 -2.27492277 246.23133795 -2.22896123 255.88914019 C-2.14697373 273.18238153 -2.10957068 290.47563834 -2.1135695 307.76907116 C-2.11325609 313.83827663 -2.09062707 319.90687363 -2.05003405 325.97593868 C-2.02829723 329.75218426 -2.02270536 333.52833544 -2.02110863 337.30463791 C-2.01685443 339.05500332 -2.00568301 340.80536774 -1.98706245 342.55563927 C-1.96247167 344.94679697 -1.96251618 347.33676345 -1.96844482 349.72801208 C-1.95522745 350.41916798 -1.94201007 351.11032387 -1.92839217 351.82242388 C-1.97811401 356.75586513 -3.35188175 359.56203618 -6.43359375 363.36328125 C-10.03222913 365.16259894 -13.56718088 364.99513011 -17.43359375 364.36328125 C-21.82995585 362.54445887 -25.84574046 360.16123762 -29.93359375 357.73828125 C-31.12712359 357.05011694 -32.3218084 356.36395233 -33.51757812 355.6796875 C-35.97135584 354.27278609 -38.41938463 352.85661034 -40.86328125 351.43261719 C-46.18121792 348.34040186 -51.55992885 345.35720484 -56.93359375 342.36328125 C-58.99369631 341.20870211 -61.05359054 340.05375119 -63.11328125 338.8984375 C-69.75156035 335.1808767 -76.40485675 331.49058086 -83.05859375 327.80078125 C-92.30009662 322.67479959 -101.51464966 317.50420534 -110.70678711 312.2902832 C-115.94042792 309.32569066 -121.18529518 306.38237962 -126.4453125 303.46484375 C-127.34136703 302.96781952 -127.34136703 302.96781952 -128.25552368 302.46075439 C-131.15211295 300.8549136 -134.04997611 299.25143952 -136.94921875 297.65039062 C-142.3346435 294.6697576 -147.70565598 291.66469826 -153.046875 288.60546875 C-154.01020752 288.05487793 -154.97354004 287.50428711 -155.96606445 286.93701172 C-159.48575958 284.69223535 -161.10269031 283.35599158 -162.43359375 279.36328125 C-162.53530828 276.91647371 -162.5814058 274.49786862 -162.58076477 272.05081177 C-162.58444146 271.30040269 -162.58811815 270.54999361 -162.59190625 269.77684486 C-162.602945 267.25503162 -162.60678721 264.73325957 -162.6105957 262.21142578 C-162.61686009 260.4063097 -162.62350687 258.60119491 -162.63050842 256.79608154 C-162.6479175 251.88699361 -162.65846942 246.97791541 -162.66671395 242.06880426 C-162.67186314 239.00315208 -162.67793884 235.93750292 -162.68422508 232.87185287 C-162.70327488 223.28396704 -162.7175078 213.69608891 -162.72583705 204.10818779 C-162.73561687 193.0329585 -162.76195673 181.95792868 -162.80233794 170.8827697 C-162.83246729 162.32643687 -162.8473028 153.77016133 -162.85061806 145.21377647 C-162.85297171 140.10118951 -162.86197326 134.98881571 -162.88707924 129.87628555 C-162.91031008 125.06802115 -162.91461335 120.26011102 -162.90431786 115.45180511 C-162.90382121 113.686528 -162.91017953 111.92123374 -162.9238739 110.15600967 C-162.94151942 107.74681859 -162.93452389 105.33890914 -162.92134094 102.92971802 C-162.93231019 102.2303941 -162.94327943 101.53107018 -162.95458108 100.81055462 C-162.8917944 96.06143451 -161.76759202 93.70781513 -158.43359375 90.36328125 C-155.82177734 88.56494141 -155.82177734 88.56494141 -152.83203125 86.90234375 C-151.71538086 86.27376465 -150.59873047 85.64518555 -149.44824219 84.99755859 C-148.23504582 84.32776365 -147.02182915 83.65800549 -145.80859375 82.98828125 C-144.54784447 82.28193513 -143.28776281 81.5743962 -142.02832031 80.86572266 C-139.43535647 79.40736543 -136.84006611 77.95328472 -134.24316406 76.50195312 C-128.52626725 73.3002598 -122.85501833 70.01964861 -117.18359375 66.73828125 C-115.58136963 65.81329834 -115.58136963 65.81329834 -113.94677734 64.86962891 C-105.7739469 60.14856927 -97.62056029 55.39456981 -89.47167969 50.63232422 C-81.04761944 45.71252927 -72.59789725 40.83796913 -64.14453125 35.96875 C-55.92037967 31.22857671 -47.71740901 26.45307877 -39.52319336 21.66137695 C-34.08794585 18.48588408 -28.64374736 15.32672685 -23.1875 12.1875 C-22.58505463 11.84075226 -21.98260925 11.49400452 -21.36190796 11.13674927 C-18.42420448 9.44631729 -15.48534149 7.75797308 -12.54492188 6.07226562 C-11.49884766 5.47091797 -10.45277344 4.86957031 -9.375 4.25 C-8.44373291 3.71592529 -7.51246582 3.18185059 -6.55297852 2.6315918 C-2.61844735 0.27703709 -2.61844735 0.27703709 0 0 Z M-3.81640625 15.71484375 C-5.1772937 16.48610596 -5.1772937 16.48610596 -6.56567383 17.27294922 C-7.5533374 17.83900879 -8.54100098 18.40506836 -9.55859375 18.98828125 C-10.58686279 19.57367676 -11.61513184 20.15907227 -12.67456055 20.76220703 C-21.91099622 26.0335593 -31.09515407 31.39389052 -40.2734375 36.765625 C-46.60446352 40.46841093 -52.95422828 44.13822535 -59.30859375 47.80078125 C-60.38713623 48.42251221 -61.46567871 49.04424316 -62.5769043 49.68481445 C-66.95905211 52.21020294 -71.34184412 54.73447234 -75.72460938 57.25878906 C-88.28445378 64.49394602 -100.83195248 71.74870078 -113.34448242 79.06542969 C-118.77954014 82.2408878 -124.22359749 85.39992618 -129.6796875 88.5390625 C-130.28213287 88.88581024 -130.88457825 89.23255798 -131.50527954 89.58981323 C-134.44298302 91.28024521 -137.38184601 92.96858942 -140.32226562 94.65429688 C-141.89137695 95.55631836 -141.89137695 95.55631836 -143.4921875 96.4765625 C-144.42345459 97.01063721 -145.35472168 97.54471191 -146.31420898 98.0949707 C-148.34476598 99.19323555 -148.34476598 99.19323555 -149.43359375 100.36328125 C-149.5526467 102.6021754 -149.60003449 104.84487987 -149.62113953 107.08683777 C-149.62904961 107.79808046 -149.63695969 108.50932315 -149.64510947 109.24211866 C-149.67032246 111.64340651 -149.68813444 114.04469055 -149.70581055 116.44604492 C-149.72188721 118.16057612 -149.73826694 119.87510451 -149.75492859 121.58963013 C-149.89968739 137.25465514 -149.97468377 152.92048307 -150.03384686 168.58603954 C-150.07844053 180.17148972 -150.15560256 191.75575788 -150.27543133 203.34067935 C-150.35679105 211.47998239 -150.39997704 219.61896109 -150.41514903 227.75865346 C-150.42532564 232.62313995 -150.45269883 237.48613896 -150.52145958 242.35017967 C-150.58546344 246.92829702 -150.6022715 251.50417526 -150.58296394 256.08267593 C-150.58411802 257.76215768 -150.60238966 259.44172882 -150.63910675 261.12080956 C-151.13914602 270.07709503 -151.13914602 270.07709503 -147.24314404 277.65929604 C-144.68037587 279.22237914 -142.24545917 280.33089545 -139.43359375 281.36328125 C-138.37197021 281.96914063 -137.31034668 282.575 -136.21655273 283.19921875 C-135.29688721 283.70710938 -134.37722168 284.215 -133.4296875 284.73828125 C-131.84389893 285.61625366 -131.84389893 285.61625366 -130.22607422 286.51196289 C-129.11893066 287.12289795 -128.01178711 287.73383301 -126.87109375 288.36328125 C-124.4656707 289.69445506 -122.06098533 291.02695933 -119.65625 292.359375 C-119.05063232 292.69472763 -118.44501465 293.03008026 -117.82104492 293.37559509 C-111.80656832 296.70722922 -105.80607227 300.06365219 -99.80859375 303.42578125 C-98.78628662 303.99876953 -97.76397949 304.57175781 -96.71069336 305.16210938 C-94.64917824 306.31774077 -92.58773593 307.47350206 -90.52636719 308.62939453 C-86.37238497 310.95822163 -82.21725072 313.28498853 -78.06201172 315.61157227 C-75.98020618 316.7772469 -73.89850007 317.94309912 -71.81689453 319.10913086 C-66.56049856 322.05345352 -61.30287914 324.99555351 -56.04296875 327.93359375 C-53.9230872 329.11832877 -51.80329476 330.30322324 -49.68359375 331.48828125 C-48.65943359 332.06078613 -47.63527344 332.63329102 -46.58007812 333.22314453 C-38.59308388 337.69581047 -30.64133563 342.22834492 -22.71582031 346.80908203 C-21.90081055 347.27813965 -21.08580078 347.74719727 -20.24609375 348.23046875 C-19.53066406 348.64409668 -18.81523437 349.05772461 -18.078125 349.48388672 C-16.59743592 350.44187339 -16.59743592 350.44187339 -15.43359375 350.36328125 C-15.43212719 349.43506467 -15.43066063 348.50684809 -15.42914963 347.55050373 C-15.39257015 324.97488975 -15.33314097 302.39942431 -15.24969101 279.8239336 C-15.20986548 268.90662702 -15.17749084 257.98939289 -15.16259766 247.07202148 C-15.14959935 237.55749425 -15.12268133 228.0431262 -15.07898068 218.52868861 C-15.05632488 213.48987654 -15.04068554 208.4512611 -15.0417099 203.41239357 C-15.04245408 198.67057337 -15.02460088 193.92918852 -14.99242592 189.18748093 C-14.98390057 187.44642687 -14.98219481 185.70532413 -14.98779106 183.96425819 C-14.99441309 181.58766584 -14.97655535 179.21246591 -14.95257568 176.83601379 C-14.9603361 176.14631636 -14.96809652 175.45661893 -14.9760921 174.74602157 C-14.89180065 170.03023014 -13.73611508 167.68835093 -10.43359375 164.36328125 C-7.82177734 162.56494141 -7.82177734 162.56494141 -4.83203125 160.90234375 C-3.71538086 160.27376465 -2.59873047 159.64518555 -1.44824219 158.99755859 C-0.23504582 158.32776365 0.97817085 157.65800549 2.19140625 156.98828125 C3.45215553 156.28193513 4.71223719 155.5743962 5.97167969 154.86572266 C8.56464353 153.40736543 11.15993389 151.95328472 13.75683594 150.50195312 C19.47373275 147.3002598 25.14498167 144.01964861 30.81640625 140.73828125 C31.88455566 140.12162598 32.95270508 139.5049707 34.05322266 138.86962891 C42.2260531 134.14856927 50.37943971 129.39456981 58.52832031 124.63232422 C65.85981909 120.35060381 73.20943672 116.10106619 80.56640625 111.86328125 C98.62311221 101.46021303 116.61579844 90.9482864 134.56640625 80.36328125 C131.95794452 77.30157617 128.74774834 75.76730804 125.19140625 74.05078125 C124.5240596 73.72437653 123.85671295 73.3979718 123.16914368 73.06167603 C118.72748884 70.89370134 114.27797404 68.74337124 109.81860352 66.61206055 C94.94702981 59.49252874 80.1674383 52.20106507 65.4296875 44.80859375 C64.51410316 44.34947161 63.59851883 43.89034946 62.65518951 43.41731453 C54.10534374 39.12923441 45.55820248 34.83577893 37.01293945 30.53857422 C32.28038136 28.15895839 27.54591468 25.78317753 22.81023216 23.40978622 C21.02203091 22.51258459 19.23458979 21.61386625 17.44793129 20.71359634 C14.98180397 19.47099413 12.51330275 18.23323762 10.04418945 16.99658203 C9.31147827 16.62584564 8.57876709 16.25510925 7.82385254 15.87313843 C2.60741876 13.27001652 1.18708022 12.86707724 -3.81640625 15.71484375 Z " fill="#FEFCFA" transform="translate(258.43359375,76.63671875)"></path><path d="M0 0 C2.8100346 1.79363911 4.50940468 3.01880935 6 6 C6.10086575 8.16778143 6.13513234 10.33874507 6.14044189 12.50886536 C6.14341302 13.18491607 6.14638414 13.86096678 6.1494453 14.55750388 C6.15814998 16.83367707 6.15964203 19.10979778 6.16113281 21.38598633 C6.16575976 23.01361708 6.17078425 24.64124673 6.17617798 26.26887512 C6.1893164 30.69870278 6.19574981 35.12851528 6.20018864 39.55835938 C6.2031172 42.32466668 6.20722161 45.09096981 6.21169281 47.85727501 C6.2253719 56.5086429 6.23503639 65.16000129 6.2388947 73.81137925 C6.24337581 83.80498836 6.26092442 93.79846073 6.2898953 103.79202825 C6.31149927 111.51183091 6.3215983 119.23159506 6.32293582 126.95142764 C6.32398483 131.56432419 6.32991279 136.17709227 6.34775543 140.78995705 C6.36421382 145.12950938 6.36640253 149.46883635 6.35761642 153.80840874 C6.35684483 155.40113554 6.36120484 156.99387434 6.37107468 158.58657074 C6.38376127 160.76137766 6.37793598 162.93538251 6.36749268 165.11018372 C6.36895924 166.3271182 6.3704258 167.54405268 6.3719368 168.79786396 C5.96348941 172.31433267 5.09002139 174.17422854 3 177 C0.96069336 178.59887695 0.96069336 178.59887695 -1.41015625 179.98828125 C-2.30371826 180.52106689 -3.19728027 181.05385254 -4.11791992 181.6027832 C-5.57548706 182.44909302 -5.57548706 182.44909302 -7.0625 183.3125 C-9.16462444 184.56155475 -11.26616563 185.81159151 -13.3671875 187.0625 C-14.4612793 187.70960938 -15.55537109 188.35671875 -16.68261719 189.0234375 C-22.05565308 192.22479889 -27.36902725 195.52158085 -32.6875 198.8125 C-42.35469452 204.77450305 -52.05190717 210.68502581 -61.76611328 216.56991577 C-70.26290442 221.71808392 -78.73372276 226.90635949 -87.1875 232.125 C-96.09162804 237.61902191 -105.02850452 243.05447347 -114 248.4375 C-115.07531982 249.08283691 -116.15063965 249.72817383 -117.25854492 250.39306641 C-127.68171764 256.63182824 -127.68171764 256.63182824 -134 256 C-137.47998516 253.99707521 -139.7068445 251.87946651 -141 248 C-141.11111506 245.51731291 -141.16760669 243.06191985 -141.17700195 240.57861328 C-141.18357315 239.82542816 -141.19014435 239.07224304 -141.19691467 238.29623413 C-141.21662234 235.80425922 -141.22830345 233.31234446 -141.23828125 230.8203125 C-141.24235678 229.96876461 -141.2464323 229.11721672 -141.25063133 228.23986435 C-141.27147942 223.73429355 -141.28578763 219.22875311 -141.29516602 214.72314453 C-141.30623907 210.07022499 -141.34065265 205.41778254 -141.38033772 200.76503181 C-141.40647915 197.18593455 -141.41485554 193.60695152 -141.41844749 190.02776718 C-141.42331841 188.31255743 -141.43494683 186.59735296 -141.45348549 184.88223648 C-141.47782931 182.48116401 -141.47692136 180.08133383 -141.4699707 177.68017578 C-141.48278076 176.97350769 -141.49559082 176.2668396 -141.50878906 175.53875732 C-141.45826297 170.74475121 -140.36219479 168.38082974 -137 165 C-134.56835938 163.16992188 -134.56835938 163.16992188 -131.84375 161.46875 C-130.83094971 160.82945557 -129.81814941 160.19016113 -128.7746582 159.53149414 C-127.694021 158.86110107 -126.61338379 158.19070801 -125.5 157.5 C-123.80419081 156.43216843 -122.10838784 155.36432622 -120.41340637 154.29518127 C-119.2689142 153.57388459 -118.12371858 152.85370289 -116.97782898 152.1346283 C-111.71858478 148.83407003 -106.51008747 145.45902473 -101.3125 142.0625 C-99.82968394 141.09465845 -98.34661418 140.12720546 -96.86328125 139.16015625 C-96.16406555 138.68134003 -95.46484985 138.2025238 -94.7444458 137.709198 C-92 136 -92 136 -88.512146 134.39212036 C-81.61634055 131.06695806 -81.61634055 131.06695806 -77.2142849 125.09158897 C-76.00240513 119.44214936 -76.37368975 113.69318821 -76.58984375 107.95703125 C-76.60623876 106.10101516 -76.61569204 104.24492603 -76.61854553 102.38883972 C-76.64124401 97.52115163 -76.7431529 92.65859747 -76.86657715 87.7925415 C-77.05210906 79.99684823 -77.12193169 72.19960582 -77.18142891 64.40210533 C-77.21434735 61.68549723 -77.28437552 58.9717765 -77.35984802 56.25605774 C-77.3865425 54.58714171 -77.4123903 52.91821186 -77.43725586 51.24926758 C-77.46787613 50.4995166 -77.4984964 49.74976563 -77.53004456 48.97729492 C-77.55759204 45.06625336 -77.06183522 42.5979302 -74.63153076 39.59817505 C-72.09407752 37.09288505 -69.84024922 35.39337146 -66.73828125 33.66015625 C-65.71428223 33.07943359 -64.6902832 32.49871094 -63.63525391 31.90039062 C-62.53874512 31.29388672 -61.44223633 30.68738281 -60.3125 30.0625 C-58.57033442 29.07879311 -56.82817941 28.0950669 -55.08666992 27.11019897 C-53.27639186 26.08829861 -51.46333733 25.07146153 -49.64990234 24.05517578 C-43.77739495 20.75719193 -37.95448275 17.37326153 -32.125 14 C-29.08125652 12.24514891 -26.03744059 10.49045899 -22.99145508 8.73950195 C-20.89538086 7.52065524 -18.8100856 6.28317017 -16.7331543 5.03198242 C-15.67265869 4.39623291 -14.61216309 3.7604834 -13.51953125 3.10546875 C-12.56667236 2.52692139 -11.61381348 1.94837402 -10.63208008 1.35229492 C-6.64381733 -0.69677171 -4.39747915 -0.84863633 0 0 Z M-12.96875 17.7109375 C-14.52565552 18.58177979 -14.52565552 18.58177979 -16.11401367 19.47021484 C-17.23138916 20.09879395 -18.34876465 20.72737305 -19.5 21.375 C-20.63606689 22.01260254 -21.77213379 22.65020508 -22.94262695 23.30712891 C-30.00338652 27.28120944 -37.03233175 31.30226308 -43.9921875 35.45068359 C-44.58644531 35.80469238 -45.18070312 36.15870117 -45.79296875 36.5234375 C-46.66829002 37.07976868 -46.66829002 37.07976868 -47.56129456 37.64733887 C-50 39 -50 39 -53.41758728 40.28762817 C-57.44347095 41.92383038 -61.10509813 43.67746046 -64 47 C-66.57263456 53.20938731 -65.76690355 60.45518599 -65.5859375 67.03125 C-65.58225994 68.99279589 -65.58476346 70.95436224 -65.59317017 72.91589355 C-65.59870852 78.06005497 -65.52069005 83.19963483 -65.42486572 88.34277344 C-65.34186193 93.59812274 -65.33840333 98.85346932 -65.328125 104.109375 C-65.29632358 114.40778883 -65.17619081 124.70311473 -65 135 C-65.7809906 135.30430435 -66.5619812 135.6086087 -67.36663818 135.9221344 C-69.90311419 136.96034351 -71.98286975 138.1462795 -74.265625 139.65234375 C-75.46348633 140.43738281 -75.46348633 140.43738281 -76.68554688 141.23828125 C-77.95495117 142.07939453 -77.95495117 142.07939453 -79.25 142.9375 C-81.05715937 144.12389947 -82.86445312 145.31009426 -84.671875 146.49609375 C-85.57228516 147.08890137 -86.47269531 147.68170898 -87.40039062 148.29248047 C-91.08774176 150.71446899 -94.79300609 153.1082333 -98.5 155.5 C-99.86472057 156.38260034 -101.22930144 157.26541671 -102.59375 158.1484375 C-103.29242188 158.60057617 -103.99109375 159.05271484 -104.7109375 159.51855469 C-105.46632813 160.00743164 -106.22171875 160.49630859 -107 161 C-107.87914062 161.56879883 -108.75828125 162.13759766 -109.6640625 162.72363281 C-112.44356933 164.52276345 -115.22190641 166.32368807 -118 168.125 C-119.31967773 168.97868164 -119.31967773 168.97868164 -120.66601562 169.84960938 C-121.47748047 170.37619141 -122.28894531 170.90277344 -123.125 171.4453125 C-123.84945313 171.91469238 -124.57390625 172.38407227 -125.3203125 172.86767578 C-126.95670808 173.89301948 -126.95670808 173.89301948 -128 175 C-128.09413687 177.05556661 -128.11742998 179.11440181 -128.11352539 181.17211914 C-128.11367142 181.81600082 -128.11381744 182.45988251 -128.1139679 183.12327576 C-128.11326885 185.26060303 -128.10547691 187.39784413 -128.09765625 189.53515625 C-128.09579204 191.01346285 -128.09436815 192.49177007 -128.09336853 193.97007751 C-128.08954359 197.86798802 -128.07971352 201.76586149 -128.06866455 205.66375732 C-128.05844992 209.63846333 -128.0538708 213.61317529 -128.04882812 217.58789062 C-128.03809122 225.391944 -128.02101509 233.19596682 -128 241 C-124.17356749 239.51496013 -120.80750809 237.792029 -117.30078125 235.6484375 C-116.18727295 234.97014893 -115.07376465 234.29186035 -113.92651367 233.59301758 C-112.72178147 232.85377775 -111.51711187 232.11443589 -110.3125 231.375 C-109.05787665 230.60867646 -107.8030724 229.84264903 -106.5480957 229.0769043 C-102.6950842 226.72386472 -98.84683199 224.36312556 -95 222 C-94.41536987 221.64089539 -93.83073975 221.28179077 -93.22839355 220.9118042 C-88.2974977 217.88228342 -83.36887674 214.84908122 -78.44262695 211.81201172 C-71.47595177 207.51773979 -64.49443616 203.24888876 -57.5 199 C-40.33199254 188.606789 -40.33199254 188.606789 -23.30694866 177.98275757 C-20 176 -20 176 -16.6077013 174.40567017 C-9.79060743 171.06938103 -9.79060743 171.06938103 -5.8248806 164.83255005 C-5.39796961 160.87008911 -5.38844521 157.01901232 -5.52416992 153.046875 C-5.52784144 151.53832824 -5.52576957 150.02975829 -5.51841736 148.52122498 C-5.51469992 144.44332468 -5.59088487 140.37043614 -5.68187881 136.29369736 C-5.76337791 132.02719593 -5.77079974 127.76056791 -5.78620911 123.4934082 C-5.82654993 115.42127193 -5.93313092 107.35143579 -6.06375247 99.28031063 C-6.20927037 90.08836483 -6.28058713 80.89630668 -6.34579313 71.70349503 C-6.48152754 52.80102788 -6.71005073 33.90069911 -7 15 C-9.08578892 15 -11.22248371 16.73325736 -12.96875 17.7109375 Z " fill="#FEFBF9" transform="translate(416,185)"></path></svg>