<svg version="1.1" xmlns="http://www.w3.org/2000/svg" width="16px" height="16px" fill="currentColor" viewBox="0 0 512 512"><path d="M0 0 C168.96 0 337.92 0 512 0 C512 168.96 512 337.92 512 512 C343.04 512 174.08 512 0 512 C0 343.04 0 174.08 0 0 Z " fill="#E3740D" transform="translate(0,0)"></path><path d="M0 0 C1.65447762 0.81425844 3.30230199 1.64213173 4.94433594 2.48120117 C5.8189447 2.91800705 6.69355347 3.35481293 7.59466553 3.80485535 C9.43644873 4.72808163 11.27529103 5.65719539 13.11132812 6.59179688 C15.92584549 8.02271311 18.75046768 9.43191461 21.57714844 10.83862305 C23.36684916 11.73904833 25.15593382 12.64069937 26.94433594 13.54370117 C28.21304535 14.17668877 28.21304535 14.17668877 29.50738525 14.82246399 C30.28869812 15.22265244 31.07001099 15.62284088 31.875 16.03515625 C32.90708588 16.55811028 32.90708588 16.55811028 33.96002197 17.09162903 C35.67871094 18.21166992 35.67871094 18.21166992 37.67871094 21.21166992 C37.91921997 23.47062683 37.91921997 23.47062683 37.90576172 26.14208984 C37.90553513 27.64330635 37.90553513 27.64330635 37.90530396 29.17485046 C37.89498138 30.25305557 37.88465881 31.33126068 37.87402344 32.44213867 C37.87119354 33.54769608 37.86836365 34.65325348 37.865448 35.79231262 C37.85424095 39.32804121 37.82913521 42.86351772 37.80371094 46.39916992 C37.79368182 48.79434856 37.78455586 51.18953116 37.77636719 53.5847168 C37.75429991 59.46045404 37.72081712 65.33604397 37.67871094 71.21166992 C38.60683594 71.50912109 39.53496094 71.80657227 40.49121094 72.11303711 C44.85108189 73.61574998 48.67723175 75.89312184 52.67871094 78.16479492 C57.40904699 79.81548511 60.6318785 77.7168252 65.00268555 75.60766602 C66.19724172 74.98686714 67.38996022 74.36252249 68.58105469 73.73510742 C69.89650711 73.05743602 71.21227205 72.38037097 72.52832031 71.70385742 C74.57657746 70.64570995 76.62230489 69.58346557 78.6628418 68.51049805 C80.6500116 67.46826776 82.64576602 66.4443017 84.64355469 65.42260742 C85.24481674 65.10077484 85.8460788 64.77894226 86.46556091 64.44735718 C90.74798696 62.28039293 93.91852606 61.61419617 98.67871094 62.21166992 C101.77729659 63.31284056 104.6510925 64.75370951 107.56933594 66.26245117 C108.39576599 66.677061 109.22219604 67.09167084 110.07366943 67.5188446 C111.81156528 68.39415088 113.54608364 69.27619189 115.27734375 70.16455078 C117.92699226 71.52328858 120.5867638 72.86026142 123.24902344 74.1940918 C124.93976142 75.0489592 126.62988763 75.90503785 128.31933594 76.76245117 C129.11309631 77.16256912 129.90685669 77.56268707 130.72467041 77.97492981 C131.46263855 78.3550975 132.20060669 78.7352652 132.9609375 79.12695312 C133.60822815 79.45782425 134.2555188 79.78869537 134.92242432 80.1295929 C136.91470576 81.35707021 138.26266796 82.334353 139.67871094 84.21166992 C140.06639099 86.7094574 140.06639099 86.7094574 140.08276367 89.72119141 C140.10178993 91.41325966 140.10178993 91.41325966 140.12120056 93.13951111 C140.1167971 94.96767113 140.1167971 94.96767113 140.11230469 96.83276367 C140.11754654 98.0842067 140.12278839 99.33564972 140.12818909 100.62501526 C140.13461861 103.27409202 140.13469577 105.92230932 140.12475586 108.57128906 C140.11327043 111.96223552 140.13346774 115.35213994 140.162673 118.74294949 C140.18545635 121.98122622 140.17856749 125.21942555 140.17480469 128.45776367 C140.18603867 129.67451279 140.19727264 130.8912619 140.20884705 132.1448822 C140.19946609 133.27607986 140.19008514 134.40727753 140.18041992 135.57275391 C140.18017067 137.06475563 140.18017067 137.06475563 140.17991638 138.5868988 C139.5343462 141.96769603 138.32524021 143.07111037 135.67871094 145.21166992 C133.8021698 146.42073059 133.8021698 146.42073059 131.84741211 147.42578125 C131.1095195 147.8091011 130.37162689 148.19242096 129.6113739 148.58735657 C128.82277481 148.98545029 128.03417572 149.38354401 127.22167969 149.79370117 C125.98989738 150.42135628 125.98989738 150.42135628 124.73323059 151.06169128 C122.99968875 151.94074658 121.26392964 152.81544123 119.52612305 153.68603516 C116.87630763 155.01909053 114.24161469 156.37923718 111.60644531 157.7409668 C109.91654799 158.59358074 108.22581869 159.44454807 106.53417969 160.29370117 C105.75165329 160.70191605 104.96912689 161.11013092 104.16288757 161.53071594 C99.23583882 163.9539227 96.15565114 164.78446827 90.67871094 163.21166992 C87.61644588 161.97554941 84.69085429 160.53341299 81.75292969 159.02807617 C80.5097271 158.40472633 80.5097271 158.40472633 79.2414093 157.76878357 C77.5002804 156.89336876 75.7615563 156.01315627 74.02514648 155.12841797 C71.36230874 153.77218246 68.69221147 152.43120119 66.02050781 151.0925293 C64.3267057 150.2385892 62.63333084 149.383801 60.94042969 148.52807617 C60.14150803 148.12593399 59.34258636 147.72379181 58.51945496 147.3094635 C57.78141129 146.93244797 57.04336761 146.55543243 56.28295898 146.16699219 C55.63344772 145.83691666 54.98393646 145.50684113 54.31474304 145.16676331 C52.67871094 144.21166992 52.67871094 144.21166992 50.67871094 142.21166992 C50.4382019 140.03500366 50.4382019 140.03500366 50.45166016 137.30297852 C50.45188675 135.77161758 50.45188675 135.77161758 50.45211792 134.20932007 C50.46244049 133.1040799 50.47276306 131.99883972 50.48339844 130.86010742 C50.48622833 129.73093903 50.48905823 128.60177063 50.49197388 127.43838501 C50.50319631 123.82104022 50.52830472 120.20394027 50.55371094 116.58666992 C50.56373807 114.13875682 50.57286438 111.69083986 50.58105469 109.24291992 C50.60314237 103.23241928 50.6366402 97.22206209 50.67871094 91.21166992 C49.75058594 90.91349365 48.82246094 90.61531738 47.86621094 90.30810547 C43.52253678 88.81396939 39.68485852 86.58357749 35.67871094 84.35620117 C31.96895008 82.94088876 30.47342346 83.05978656 26.67871094 84.21166992 C23.57573761 85.63043682 20.60180263 87.25004003 17.61621094 88.89916992 C15.92326588 89.80740854 14.22925038 90.71365465 12.53417969 91.61791992 C11.70837402 92.06006836 10.88256836 92.5022168 10.03173828 92.95776367 C6.85081896 94.65284581 3.66264948 96.30661482 0.42871094 97.89916992 C-0.52519531 98.37741211 -1.47910156 98.8556543 -2.46191406 99.34838867 C-8.05863459 101.03810894 -12.81590813 99.25076428 -17.86502075 96.63327026 C-18.51316742 96.28531403 -19.16131409 95.93735779 -19.82910156 95.57885742 C-21.24177939 94.84822897 -22.65454233 94.11776505 -24.06738281 93.38745117 C-26.26617932 92.23509064 -28.46243424 91.07812835 -30.65673828 89.91723633 C-32.79154954 88.79252512 -34.93465894 87.68506483 -37.07910156 86.57885742 C-37.73129669 86.22685272 -38.38349182 85.87484802 -39.05545044 85.51217651 C-41.88044995 84.06156333 -43.85189458 83.17944959 -47.05639648 83.39941406 C-50.35067689 84.58083811 -53.42028731 86.14439627 -56.50878906 87.77416992 C-63.06761979 91.21166992 -63.06761979 91.21166992 -65.32128906 91.21166992 C-65.30352417 91.83949875 -65.28575928 92.46732758 -65.26745605 93.11418152 C-65.09040749 99.65127111 -64.96978916 106.18767983 -64.88183594 112.7265625 C-64.8416143 115.16629701 -64.78702752 117.60583882 -64.71777344 120.04492188 C-64.62066925 123.55281052 -64.57534837 127.05815102 -64.54003906 130.56713867 C-64.49874878 131.65689499 -64.4574585 132.74665131 -64.41491699 133.86943054 C-64.41056196 141.22585002 -64.41056196 141.22585002 -66.87522888 143.89373779 C-68.96479702 145.23394609 -71.04255118 146.23080062 -73.32128906 147.21166992 C-74.63214681 147.91753269 -75.93836448 148.63208898 -77.23950195 149.35571289 C-80.83498595 151.23246759 -84.44853392 153.07428516 -88.06665039 154.90698242 C-89.61719423 155.69638584 -91.16375269 156.4936645 -92.70629883 157.29858398 C-94.95608799 158.47222122 -97.21685445 159.62159501 -99.48144531 160.76635742 C-100.16392838 161.12768768 -100.84641144 161.48901794 -101.54957581 161.86129761 C-106.20661753 164.169266 -109.13981008 164.62705682 -114.32128906 163.21166992 C-117.38414163 161.99067418 -120.30900149 160.55695846 -123.24707031 159.06323242 C-124.07587204 158.65003754 -124.90467377 158.23684265 -125.7585907 157.81112671 C-127.49977719 156.94004585 -129.23850083 156.0640264 -130.97485352 155.18334961 C-133.63642642 153.83533417 -136.30713707 152.50690881 -138.97949219 151.18041992 C-140.67342804 150.33000474 -142.36680768 149.47848054 -144.05957031 148.62573242 C-144.85849197 148.22875153 -145.65741364 147.83177063 -146.48054504 147.42276001 C-147.21858871 147.04582001 -147.95663239 146.66888 -148.71704102 146.28051758 C-149.36655228 145.95266266 -150.01606354 145.62480774 -150.68525696 145.28701782 C-152.32128906 144.21166992 -152.32128906 144.21166992 -154.32128906 141.21166992 C-154.59544373 138.71388245 -154.59544373 138.71388245 -154.62768555 135.70214844 C-154.64367294 134.57410294 -154.65966034 133.44605743 -154.6761322 132.28382874 C-154.6814949 131.06505539 -154.6868576 129.84628204 -154.69238281 128.59057617 C-154.70141129 127.33913315 -154.71043976 126.08769012 -154.71974182 124.79832458 C-154.73426148 122.14942026 -154.7439305 119.50094776 -154.74682617 116.85205078 C-154.75221333 113.4609888 -154.78990695 110.07111625 -154.83557034 106.68039036 C-154.87249581 103.44218938 -154.87385444 100.20395945 -154.87988281 96.96557617 C-154.89941513 95.74882706 -154.91894745 94.53207794 -154.93907166 93.27845764 C-154.89419307 84.92557523 -154.89419307 84.92557523 -152.29370117 81.68505859 C-150.82235718 80.9557312 -150.82235718 80.9557312 -149.32128906 80.21166992 C-148.72922165 79.87953995 -148.13715424 79.54740997 -147.52714539 79.20521545 C-145.44514401 78.04096461 -143.3338843 76.95775875 -141.20410156 75.88354492 C-140.4287204 75.4896759 -139.65333923 75.09580688 -138.85446167 74.69000244 C-137.22051418 73.86328264 -135.58490834 73.0398332 -133.94775391 72.21948242 C-131.4540351 70.96556486 -128.97177978 69.69070604 -126.48925781 68.41479492 C-124.89486554 67.61140081 -123.29983371 66.80927443 -121.70410156 66.00854492 C-120.96845978 65.62736511 -120.23281799 65.2461853 -119.47488403 64.85345459 C-114.92050131 62.60587098 -111.50006497 61.50416498 -106.32128906 62.21166992 C-103.54279116 63.23376281 -101.00313606 64.57772012 -98.41113281 66.00073242 C-96.91191637 66.78484001 -95.4125633 67.56868641 -93.91308594 68.35229492 C-91.5771663 69.59496774 -89.24496055 70.84412236 -86.91577148 72.09936523 C-84.65197004 73.31275329 -82.3764086 74.50134097 -80.09863281 75.68823242 C-79.40785141 76.07040924 -78.71707001 76.45258606 -78.00535583 76.84634399 C-74.62110155 78.5985475 -72.81731848 79.31503546 -69.03149414 78.52612305 C-68.13712646 78.09235352 -67.24275879 77.65858398 -66.32128906 77.21166992 C-65.28488281 76.7140918 -64.24847656 76.21651367 -63.18066406 75.70385742 C-62.15457031 75.17018555 -61.12847656 74.63651367 -60.07128906 74.08666992 C-54.54138476 71.21166992 -54.54138476 71.21166992 -52.32128906 71.21166992 C-52.33017151 70.59414856 -52.33905396 69.9766272 -52.34820557 69.34039307 C-52.43665825 62.91672008 -52.49701475 56.4932199 -52.54101562 50.0690918 C-52.56113842 47.67123387 -52.58843966 45.27342505 -52.62304688 42.87573242 C-52.67153397 39.43029669 -52.69425147 35.98550941 -52.71191406 32.53979492 C-52.7325592 31.4667511 -52.75320435 30.39370728 -52.7744751 29.28814697 C-52.77492828 27.78704376 -52.77492828 27.78704376 -52.77539062 26.25561523 C-52.78427307 25.37625305 -52.79315552 24.49689087 -52.80230713 23.59088135 C-52.15490864 20.38871914 -50.81366299 19.26471072 -48.32128906 17.21166992 C-46.4380188 16.00933838 -46.4380188 16.00933838 -44.47412109 15.01342773 C-43.73300079 14.63333557 -42.99188049 14.25324341 -42.228302 13.8616333 C-41.43656586 13.46667664 -40.64482971 13.07171997 -39.82910156 12.66479492 C-39.00554169 12.24872986 -38.18198181 11.83266479 -37.33346558 11.4039917 C-35.59560977 10.52933573 -33.85565811 9.65883314 -32.11376953 8.79223633 C-29.45527194 7.46615067 -26.80814757 6.11909546 -24.16113281 4.77026367 C-22.46777202 3.9213104 -20.77378165 3.07361154 -19.07910156 2.22729492 C-17.89757004 1.62271454 -17.89757004 1.62271454 -16.69216919 1.00592041 C-10.50320442 -2.03698518 -6.47273816 -2.88660021 0 0 Z " fill="#FEFCFA" transform="translate(263.3212890625,123.788330078125)"></path><path d="M0 0 C2.34915285 2.25912544 3.78321216 4.23365317 5.1875 7.1875 C5.53167969 7.90292969 5.87585938 8.61835938 6.23046875 9.35546875 C6.48441406 9.89816406 6.73835938 10.44085938 7 11 C0.82700105 15.44022732 -5.7035599 19.10958358 -12.35791016 22.75878906 C-20.09896601 27.01879915 -27.72363184 31.46932116 -35.34423828 35.94042969 C-39.74870991 38.52341758 -44.15306691 41.10186399 -48.60546875 43.6015625 C-49.26579102 43.97265137 -49.92611328 44.34374023 -50.60644531 44.72607422 C-52.29623023 45.67100195 -53.98974769 46.60924661 -55.68359375 47.546875 C-58.11188573 48.79041478 -58.11188573 48.79041478 -59 51 C-58.30140869 51.25797363 -57.60281738 51.51594727 -56.88305664 51.78173828 C-53.70382194 53.12515272 -50.84503398 54.74010218 -47.87109375 56.4921875 C-47.28930359 56.83378906 -46.70751343 57.17539062 -46.10809326 57.52734375 C-44.21581901 58.63974463 -42.32660776 59.75723157 -40.4375 60.875 C-39.11315909 61.65531773 -37.78869505 62.43542653 -36.46411133 63.21533203 C-28.57532129 67.86495985 -20.7078528 72.54956314 -12.86401367 77.2746582 C-5.17849083 81.90295649 2.53455905 86.4843262 10.25 91.0625 C10.92302155 91.46194824 11.59604309 91.86139648 12.28945923 92.27294922 C19.41474696 96.50188644 26.54141657 100.72848845 33.66937256 104.95292664 C36.58013447 106.67822471 39.4904747 108.40423334 42.40075684 110.13034058 C44.448061 111.34420492 46.49599351 112.55700413 48.54394531 113.76977539 C49.18148743 114.14810013 49.81902954 114.52642487 50.47589111 114.91621399 C51.69983917 115.64174206 52.92501785 116.36519902 54.15155029 117.08634949 C57.38942704 118.99915296 60.50216701 121.02562147 63.59375 123.1640625 C66.75038362 125.38210995 66.75038362 125.38210995 69.40917969 124.28540039 C71.95106229 123.02427978 74.41112673 121.7040893 76.859375 120.26953125 C77.7973291 119.72159912 78.7352832 119.17366699 79.70166016 118.60913086 C80.7076123 118.01624268 81.71356445 117.42335449 82.75 116.8125 C83.80622559 116.19318604 84.86245117 115.57387207 85.95068359 114.93579102 C94.59779511 109.85387349 103.20183296 104.70092115 111.7956543 99.52954102 C118.36819732 95.57479317 124.95518012 91.64635542 131.5625 87.75 C140.79779946 82.30197967 150.02726265 76.84425583 159.25 71.375 C159.93967865 70.96627655 160.6293573 70.5575531 161.3399353 70.13644409 C170.2977492 64.82612803 179.23355991 59.48537431 188.05175781 53.94482422 C192.78778834 51 192.78778834 51 195 51 C192.60030318 48.34434213 190.03555811 46.72001447 186.93359375 44.953125 C185.90298828 44.36265381 184.87238281 43.77218262 183.81054688 43.16381836 C182.69744141 42.5322583 181.58433594 41.90069824 180.4375 41.25 C179.27770068 40.58718429 178.11819991 39.92384595 176.95898438 39.26000977 C174.53747533 37.87389901 172.11468066 36.49007618 169.69091797 35.10791016 C163.78303034 31.73673603 157.89210631 28.33615133 152 24.9375 C150.41916626 24.02822754 150.41916626 24.02822754 148.80639648 23.10058594 C145.86691825 21.40719852 142.93236413 19.70567192 140 18 C139.03191406 17.44070801 138.06382812 16.88141602 137.06640625 16.30517578 C135.70322266 15.50635986 135.70322266 15.50635986 134.3125 14.69140625 C133.50425781 14.22033447 132.69601562 13.7492627 131.86328125 13.26391602 C130 12 130 12 129 10 C130.76981342 6.52866177 132.92824104 3.29790201 135 0 C142.9053415 3.84381031 150.56517933 7.95521418 158.125 12.4375 C160.22227961 13.67121341 162.31995009 14.90426256 164.41796875 16.13671875 C166.03324463 17.08683838 166.03324463 17.08683838 167.68115234 18.05615234 C173.2493165 21.31742371 178.84436696 24.53180864 184.4375 27.75 C187.6368568 29.59538957 190.83562981 31.44178646 194.03417969 33.28857422 C195.94815997 34.393036 197.86282434 35.49631354 199.77832031 36.59814453 C202.20938948 37.99780959 204.63652845 39.40402382 207.0625 40.8125 C207.7649585 41.21500977 208.46741699 41.61751953 209.19116211 42.03222656 C213.88552908 44.77105816 213.88552908 44.77105816 215 47 C215.375 49.875 215.375 49.875 215 53 C210.71421585 57.10210769 205.35165289 59.85190858 200.25 62.8125 C198.25601803 63.97962795 196.26254735 65.14762973 194.26953125 66.31640625 C192.71806396 67.22543701 192.71806396 67.22543701 191.13525391 68.15283203 C186.04811399 71.14997427 180.99425589 74.20197619 175.9375 77.25 C166.21642335 83.10042289 156.44423322 88.85808422 146.64840698 94.58190918 C137.21978468 100.09271065 127.8401619 105.67946825 118.48608398 111.31616211 C109.00788848 117.01763443 99.46905379 122.61324065 89.91796875 128.19140625 C89.33771942 128.53074188 88.75747009 128.87007751 88.15963745 129.21969604 C86.48098962 130.19955077 84.79936582 131.17430154 83.11767578 132.14892578 C81.1015912 133.3459464 79.10789267 134.58187544 77.14404297 135.86279297 C76.28053223 136.42240723 75.41702148 136.98202148 74.52734375 137.55859375 C73.7912085 138.05544678 73.05507324 138.5522998 72.29663086 139.06420898 C69.09352822 140.36935328 67.31231741 139.93049611 64 139 C60.88916016 137.44384766 60.88916016 137.44384766 57.5390625 135.4140625 C56.61762955 134.86152298 56.61762955 134.86152298 55.67758179 134.29782104 C53.65469275 133.08220554 51.6400405 131.85357356 49.625 130.625 C48.19461713 129.7626647 46.76361614 128.90135394 45.33203125 128.04101562 C42.35859086 126.25298515 39.38785821 124.46057631 36.41894531 122.66503906 C30.29148149 118.96377627 24.13220545 115.31644376 17.97271729 111.66882324 C15.31932309 110.09670298 12.66776757 108.52149569 10.01620483 106.94628906 C4.64559416 103.75579159 -0.72693142 100.5685585 -6.10243225 97.38630676 C-20.92587018 88.61076493 -35.71296803 79.78252957 -50.42041016 70.8137207 C-57.63678739 66.41750664 -64.88196767 62.07845797 -72.20678711 57.86499023 C-74.74213025 56.39586634 -76.91759171 55.08240829 -79 53 C-79.5 50.1875 -79.5 50.1875 -79 47 C-74.09000399 42.07277594 -67.98430872 38.95934963 -61.9536438 35.58557129 C-59.44886387 34.18422214 -56.95160039 32.76972039 -54.45393372 31.35574341 C-53.17205369 30.63007631 -51.88981515 29.90504216 -50.60722351 29.18063354 C-44.55854574 25.76128873 -38.55643161 22.26434924 -32.5625 18.75 C-21.75290053 12.42134923 -10.88922333 6.19049597 0 0 Z " fill="#FEFCFA" transform="translate(188,289)"></path><path d="M0 0 C1.12607666 0.60690674 2.25215332 1.21381348 3.41235352 1.83911133 C4.62011128 2.50183011 5.82770844 3.16484166 7.03515625 3.828125 C8.28998616 4.5092552 9.54511709 5.18983112 10.80053711 5.86987305 C19.57934748 10.6391377 28.28880744 15.53022889 36.9597168 20.49291992 C43.95165395 24.48184209 51.03952056 28.25390182 58.25024414 31.83325195 C58.97848389 32.20409912 59.70672363 32.57494629 60.45703125 32.95703125 C61.09092773 33.2722876 61.72482422 33.58754395 62.37792969 33.91235352 C64.60942133 35.42504128 65.75051197 36.72900592 67.09765625 39.078125 C67.5300293 42.10253906 67.5300293 42.10253906 67.609375 45.59375 C67.64482422 46.84414062 67.68027344 48.09453125 67.71679688 49.3828125 C67.73935547 50.68476563 67.76191406 51.98671875 67.78515625 53.328125 C67.81931641 54.64554688 67.85347656 55.96296875 67.88867188 57.3203125 C67.97116331 60.57283178 68.04031295 63.82508096 68.09765625 67.078125 C68.7023877 66.68431641 69.30711914 66.29050781 69.93017578 65.88476562 C72.68546044 64.10171716 75.45369779 62.33985651 78.22265625 60.578125 C79.64964844 59.64806641 79.64964844 59.64806641 81.10546875 58.69921875 C82.03359375 58.11269531 82.96171875 57.52617187 83.91796875 56.921875 C84.76633301 56.37724609 85.61469727 55.83261719 86.48876953 55.27148438 C89.60692226 53.84517607 91.70204348 53.74661429 95.09765625 54.078125 C97.60686215 55.33568692 99.78116705 56.59411453 102.09765625 58.140625 C102.76611572 58.57310547 103.4345752 59.00558594 104.12329102 59.45117188 C106.46068734 60.97518274 108.77977038 62.52460515 111.09765625 64.078125 C112.04624512 64.70960449 112.99483398 65.34108398 113.97216797 65.99169922 C116.99944185 68.01134638 120.01913195 70.04172068 123.03515625 72.078125 C124.01291016 72.7369165 124.99066406 73.39570801 125.99804688 74.07446289 C126.90619141 74.69442139 127.81433594 75.31437988 128.75 75.953125 C129.56460693 76.50742188 130.37921387 77.06171875 131.21850586 77.6328125 C133.09765625 79.078125 133.09765625 79.078125 134.09765625 81.078125 C132.11765625 84.048125 130.13765625 87.018125 128.09765625 90.078125 C124.22780908 89.11066321 122.22600118 88.04289296 118.95703125 85.875 C117.96832031 85.22402344 116.97960937 84.57304687 115.9609375 83.90234375 C114.93355469 83.21785156 113.90617187 82.53335938 112.84765625 81.828125 C109.84516996 79.84304171 106.84176389 77.85977519 103.83007812 75.88867188 C102.12030941 74.7557515 100.42581025 73.59903548 98.75585938 72.40820312 C97.7262207 71.69567383 97.7262207 71.69567383 96.67578125 70.96875 C96.09731445 70.55141602 95.51884766 70.13408203 94.92285156 69.70410156 C93.02035341 68.85835106 93.02035341 68.85835106 90.73535156 69.74267578 C87.82781323 71.21474489 85.08089492 72.82800769 82.31640625 74.5546875 C81.22714844 75.225 80.13789063 75.8953125 79.015625 76.5859375 C77.3011376 77.64562354 75.58896669 78.70857359 73.88134766 79.77929688 C72.22003128 80.81851343 70.54955905 81.84304767 68.87890625 82.8671875 C67.39487305 83.79072021 67.39487305 83.79072021 65.88085938 84.73291016 C62.88845172 86.17924052 61.35833784 86.69333537 58.09765625 86.078125 C55.77270508 84.57983398 55.77270508 84.57983398 54.09765625 82.078125 C53.95758385 79.25645072 54.02873931 76.83423594 54.296875 74.05078125 C55.92113411 57.60292555 55.92113411 57.60292555 51.32617188 42.34130859 C46.27279982 37.89629313 40.08435891 35.79025349 33.82373047 33.54541016 C27.31415846 31.10691005 21.30727633 27.51915639 15.22927856 24.17883301 C11.83066791 22.32424034 8.40100278 20.52931106 4.97265625 18.73046875 C1.37334824 16.83837706 -2.17417294 14.9168087 -5.65991211 12.82568359 C-8.70241271 10.77285692 -8.70241271 10.77285692 -11.65625 11.46484375 C-16.4414614 13.84305351 -21.15758574 16.31532676 -25.83984375 18.890625 C-26.88873779 19.46304932 -27.93763184 20.03547363 -29.01831055 20.62524414 C-37.37957415 25.2035999 -45.69084651 29.86973716 -53.97436523 34.5871582 C-54.85423096 35.08820068 -55.73409668 35.58924316 -56.640625 36.10546875 C-57.49470947 36.61400391 -58.34879395 37.12253906 -59.22875977 37.64648438 C-61.90234375 39.078125 -61.90234375 39.078125 -64.98022461 40.13476562 C-68.369616 41.42970585 -70.41616829 42.4145889 -72.90234375 45.078125 C-74.33892041 51.29728356 -74.08503947 57.3580112 -73.83984375 63.703125 C-73.77847076 66.26105483 -73.73289048 68.81776021 -73.70863342 71.37631226 C-73.68970974 72.96388621 -73.64740931 74.55139831 -73.57884216 76.13760376 C-73.5027263 79.61455698 -73.63176463 81.67782787 -75.60375977 84.59521484 C-78.44966612 86.43122495 -79.5706163 86.68963683 -82.90234375 86.078125 C-85.17735972 84.89376563 -87.2142806 83.69671947 -89.33984375 82.2890625 C-90.57659477 81.50484842 -91.81358111 80.72100534 -93.05078125 79.9375 C-94.98372472 78.69482315 -96.91260029 77.44643055 -98.83691406 76.19042969 C-100.70323289 74.97822566 -102.5827199 73.78902562 -104.46484375 72.6015625 C-105.32130493 72.02829727 -105.32130493 72.02829727 -106.19506836 71.44345093 C-108.90583439 69.74691401 -110.30558777 68.94265227 -113.48876953 69.6652832 C-114.28524902 70.131521 -115.08172852 70.59775879 -115.90234375 71.078125 C-116.71944824 71.55096924 -117.53655273 72.02381348 -118.37841797 72.51098633 C-119.22936035 73.0552124 -120.08030273 73.59943848 -120.95703125 74.16015625 C-121.90191406 74.76279297 -122.84679687 75.36542969 -123.8203125 75.98632812 C-124.79613281 76.61474609 -125.77195313 77.24316406 -126.77734375 77.890625 C-127.74542969 78.50744141 -128.71351563 79.12425781 -129.7109375 79.75976562 C-133.86574924 82.41941042 -137.9408594 85.0758802 -141.84765625 88.08984375 C-144.90234375 90.078125 -144.90234375 90.078125 -147.00048828 89.83154297 C-149.75179602 88.74161541 -150.33617857 87.11139522 -151.65234375 84.515625 C-152.0803125 83.68933594 -152.50828125 82.86304688 -152.94921875 82.01171875 C-153.26375 81.37363281 -153.57828125 80.73554688 -153.90234375 80.078125 C-146.1652009 74.2460238 -138.1750495 68.91333258 -130.00390625 63.71484375 C-127.50137699 62.12122482 -125.03777581 60.49500722 -122.61328125 58.78515625 C-121.20949219 57.81642578 -121.20949219 57.81642578 -119.77734375 56.828125 C-118.99101562 56.26609375 -118.2046875 55.7040625 -117.39453125 55.125 C-113.70161246 53.57374258 -111.77867552 54.01951257 -107.90234375 55.078125 C-104.28655451 56.88819606 -100.88425276 58.98656965 -97.46484375 61.140625 C-96.54251953 61.70845703 -95.62019531 62.27628906 -94.66992188 62.86132812 C-92.40726262 64.25643927 -90.15196483 65.66212147 -87.90234375 67.078125 C-87.89823486 66.25610596 -87.89412598 65.43408691 -87.88989258 64.5871582 C-87.85695132 60.85425458 -87.78630271 57.12298166 -87.71484375 53.390625 C-87.70614258 51.45026367 -87.70614258 51.45026367 -87.69726562 49.47070312 C-87.66826172 48.22353516 -87.63925781 46.97636719 -87.609375 45.69140625 C-87.59366455 44.54454346 -87.5779541 43.39768066 -87.56176758 42.21606445 C-86.69565641 38.09458098 -85.13983286 36.71270362 -81.90234375 34.078125 C-79.12939453 32.33984375 -79.12939453 32.33984375 -76.09765625 30.765625 C-74.96835693 30.17160889 -73.83905762 29.57759277 -72.67553711 28.96557617 C-72.08094696 28.65800385 -71.48635681 28.35043152 -70.87374878 28.03353882 C-67.71056189 26.39676226 -64.5632149 24.72997866 -61.4140625 23.06640625 C-60.77741165 22.73103348 -60.1407608 22.39566071 -59.4848175 22.05012512 C-53.53524922 18.90688789 -47.68090475 15.60581381 -41.83984375 12.265625 C-38.19675149 10.1982581 -34.5503633 8.13678326 -30.90234375 6.078125 C-30 5.56749512 -29.09765625 5.05686523 -28.16796875 4.53076172 C-25.56826349 3.06983631 -22.95666973 1.63310546 -20.33984375 0.203125 C-19.57212646 -0.23233643 -18.80440918 -0.66779785 -18.01342773 -1.11645508 C-16.93557007 -1.69689575 -16.93557007 -1.69689575 -15.8359375 -2.2890625 C-15.21775146 -2.63050293 -14.59956543 -2.97194336 -13.96264648 -3.32373047 C-8.85627988 -4.80620448 -4.42408082 -2.40239085 0 0 Z " fill="#FEFCFA" transform="translate(265.90234375,86.921875)"></path><path d="M0 0 C1.72379883 0.86334961 1.72379883 0.86334961 3.48242188 1.74414062 C4.071604 2.0418335 4.66078613 2.33952637 5.26782227 2.64624023 C7.08444185 3.56375711 8.90424459 4.47470552 10.72460938 5.38476562 C19.62133291 9.85570791 19.62133291 9.85570791 20.76171875 10.99609375 C20.85450205 12.3776949 20.87918918 13.76397413 20.87524414 15.14868164 C20.87513084 16.46993797 20.87513084 16.46993797 20.87501526 17.81788635 C20.86985397 18.77517136 20.86469269 19.73245636 20.859375 20.71875 C20.85796005 21.69396103 20.8565451 22.66917206 20.85508728 23.67393494 C20.84947008 26.80218518 20.83691468 29.93036498 20.82421875 33.05859375 C20.81920597 35.17382709 20.81464268 37.28906156 20.81054688 39.40429688 C20.79949506 44.60158671 20.78274021 49.7988352 20.76171875 54.99609375 C16.60952245 57.17132606 12.44709608 59.32499819 8.27392578 61.4597168 C6.85687733 62.18831345 5.44275806 62.92263738 4.03173828 63.6628418 C1.99871507 64.72806573 -0.04407737 65.77200386 -2.08984375 66.8125 C-3.02771225 67.31240196 -3.02771225 67.31240196 -3.98452759 67.82240295 C-8.19362885 69.92907244 -10.73521145 70.35411546 -15.23828125 68.99609375 C-17.50963273 68.01902718 -19.74581289 66.95785516 -21.94921875 65.8359375 C-23.07118652 65.2699585 -24.1931543 64.70397949 -25.34912109 64.12084961 C-26.75629395 63.39905518 -28.1634668 62.67726074 -29.61328125 61.93359375 C-34.10953125 59.64421875 -38.60578125 57.35484375 -43.23828125 54.99609375 C-43.23828125 40.47609375 -43.23828125 25.95609375 -43.23828125 10.99609375 C-36.96828125 7.69609375 -30.69828125 4.39609375 -24.23828125 0.99609375 C-19.50251677 -1.60805311 -19.50251677 -1.60805311 -14.78125 -4.23828125 C-9.66621492 -5.77829181 -4.5434674 -2.28061106 0 0 Z " fill="#E87B0C" transform="translate(267.23828125,140.00390625)"></path><path d="M0 0 C1.04623535 0.53302734 2.0924707 1.06605469 3.17041016 1.61523438 C4.31638672 2.19402344 5.46236328 2.7728125 6.64306641 3.36914062 C7.8318907 3.98237882 9.02069253 4.59566057 10.20947266 5.20898438 C11.42126657 5.82314577 12.63350286 6.43643512 13.84619141 7.04882812 C22.65203098 11.5265427 22.65203098 11.5265427 23.83447266 12.70898438 C23.92725596 14.09058552 23.95194308 15.47686475 23.94799805 16.86157227 C23.94788475 18.1828286 23.94788475 18.1828286 23.94776917 19.53077698 C23.94260788 20.48806198 23.93744659 21.44534698 23.93212891 22.43164062 C23.93071396 23.40685165 23.92929901 24.38206268 23.92784119 25.38682556 C23.92222398 28.5150758 23.90966858 31.64325561 23.89697266 34.77148438 C23.89195987 36.88671772 23.88739658 39.00195218 23.88330078 41.1171875 C23.87224897 46.31447734 23.85549412 51.51172583 23.83447266 56.70898438 C19.66261817 58.88154757 15.4818266 61.03540232 11.29174805 63.17260742 C9.86825279 63.90193607 8.44731297 64.63627524 7.02905273 65.37573242 C4.98766862 66.43896821 2.93771452 67.48373176 0.88525391 68.52539062 C-0.06035652 69.02529259 -0.06035652 69.02529259 -1.02507019 69.53529358 C-3.80200011 70.92498155 -5.74016055 71.74024553 -8.86962891 71.51025391 C-10.96063942 70.78049035 -12.95347303 70.02798116 -14.95068359 69.07226562 C-15.99579102 68.57629883 -15.99579102 68.57629883 -17.06201172 68.0703125 C-18.13418945 67.55114258 -18.13418945 67.55114258 -19.22802734 67.02148438 C-19.91574219 66.69470703 -20.60345703 66.36792969 -21.31201172 66.03125 C-27.64031887 63.00868868 -33.89134391 59.84607609 -40.16552734 56.70898438 C-40.16552734 42.18898437 -40.16552734 27.66898438 -40.16552734 12.70898438 C-35.35990234 10.21335938 -30.55427734 7.71773437 -25.60302734 5.14648438 C-24.10054443 4.3542749 -22.59806152 3.56206543 -21.05004883 2.74584961 C-19.83797218 2.12665629 -18.6252064 1.50880931 -17.41162109 0.89257812 C-16.79967896 0.56358521 -16.18773682 0.23459229 -15.55725098 -0.10437012 C-9.80889017 -2.98369012 -5.81611201 -2.37201915 0 0 Z " fill="#EA7E0B" transform="translate(366.16552734375,202.291015625)"></path><path d="M0 0 C6.93 3.465 6.93 3.465 14 7 C14 21.52 14 36.04 14 51 C3 56.25 3 56.25 -0.41796875 57.87988281 C-1.33191406 58.31655273 -2.24585938 58.75322266 -3.1875 59.203125 C-4.68023437 59.91178711 -4.68023437 59.91178711 -6.203125 60.63476562 C-8.65752507 61.83282823 -11.04129294 63.11341983 -13.4375 64.421875 C-17.37168064 66.164648 -18.04906226 66.16904165 -22 65 C-24.23153636 64.00533169 -26.43403941 62.94439099 -28.61328125 61.83984375 C-30.29997925 60.99087524 -30.29997925 60.99087524 -32.02075195 60.12475586 C-33.43702881 59.40296143 -34.85330566 58.68116699 -36.3125 57.9375 C-40.829375 55.648125 -45.34625 53.35875 -50 51 C-50 36.48 -50 21.96 -50 7 C-43.73 3.7 -37.46 0.4 -31 -3 C-29.02 -4.381875 -27.04 -5.76375 -25 -7.1875 C-16.41913281 -11.48995162 -7.4341657 -4.17246819 0 0 Z " fill="#DE6F10" transform="translate(172,208)"></path><path d="M0 0 C2.42893979 1.12675168 4.56220819 2.25618023 6.82421875 3.6484375 C7.45229935 4.02102692 8.08037994 4.39361633 8.72749329 4.77749634 C10.72172414 5.96452116 12.70444814 7.16941241 14.6875 8.375 C16.03119326 9.17826848 17.37558824 9.98036438 18.72070312 10.78125 C27.84582616 16.23055077 27.84582616 16.23055077 32 19 C30.54955729 23.10958767 28.48889248 26.43258745 26 30 C20.86208102 28.54000128 16.74180653 26.23053884 12.25 23.4375 C7.70090796 20.58394267 7.70090796 20.58394267 3 18 C3 50.34 3 82.68 3 116 C10.26 111.71 17.52 107.42 25 103 C28.40927379 106.40927379 29.96370905 109.71676731 32 114 C25.41366273 118.47956551 18.70524204 122.71528915 11.875 126.8125 C10.92496094 127.39708984 9.97492188 127.98167969 8.99609375 128.58398438 C-0.49139448 134.26200264 -0.49139448 134.26200264 -6 134 C-8.72722501 132.89824605 -11.02902125 131.36193736 -13.4375 129.6875 C-14.8316462 128.76634405 -16.22619021 127.84578995 -17.62109375 126.92578125 C-18.69206299 126.20575928 -18.69206299 126.20575928 -19.78466797 125.47119141 C-23.47126209 123.02294188 -27.23834999 120.70553685 -31 118.375 C-32.35454287 117.52924805 -33.70874511 116.68295016 -35.0625 115.8359375 C-36.031875 115.23007812 -37.00125 114.62421875 -38 114 C-37.21572648 112.35063087 -36.42234741 110.70558873 -35.625 109.0625 C-35.18414062 108.14597656 -34.74328125 107.22945313 -34.2890625 106.28515625 C-33 104 -33 104 -31 103 C-23.74 107.29 -16.48 111.58 -9 116 C-9.495 67.49 -9.495 67.49 -10 18 C-19.9 23.94 -19.9 23.94 -30 30 C-35.01453907 27.49273047 -35.5605642 25.87887159 -38 21 C-38 20.34 -38 19.68 -38 19 C-35.76632296 17.4508926 -33.54313912 16.0361035 -31.2109375 14.6484375 C-30.5148941 14.22954254 -29.81885071 13.81064758 -29.10171509 13.37905884 C-27.62268879 12.49265998 -26.14127449 11.61023567 -24.65771484 10.73144531 C-22.39664824 9.38786392 -20.14946626 8.0229903 -17.90234375 6.65625 C-16.46434119 5.79813793 -15.02556247 4.94132492 -13.5859375 4.0859375 C-12.91694427 3.6766098 -12.24795105 3.2672821 -11.5586853 2.84555054 C-7.57373712 0.51799378 -4.72912493 -0.77430475 0 0 Z " fill="#FEFDFC" transform="translate(259,250)"></path></svg>