<svg version="1.1" xmlns="http://www.w3.org/2000/svg" width="16px" height="16px" fill="currentColor" viewBox="0 0 512 512"><path d="M0 0 C168.96 0 337.92 0 512 0 C512 168.96 512 337.92 512 512 C343.04 512 174.08 512 0 512 C0 343.04 0 174.08 0 0 Z " fill="#E3740D" transform="translate(0,0)"></path><path d="M0 0 C2.75238725 1.14994612 5.37437628 2.51142251 8.01171875 3.90234375 C8.77298569 4.29553802 9.53425262 4.6887323 10.31858826 5.09384155 C12.77907366 6.3671816 15.23328039 7.65213121 17.6875 8.9375 C19.38555137 9.81928473 21.08395754 10.70038655 22.78271484 11.58081055 C27.52749922 14.04304917 32.26494674 16.51910997 37 19 C38.04140137 19.54495117 39.08280273 20.08990234 40.15576172 20.65136719 C43.89234499 22.60913434 47.62376938 24.57633811 51.3515625 26.55078125 C57.38139947 29.73821183 63.44278392 32.8650266 69.5 36 C77.9219894 40.35995347 86.33255628 44.73931822 94.71655273 49.171875 C100.46835617 52.20763459 106.24477145 55.19408042 112.02539062 58.17456055 C121.23089556 62.92535848 130.42501792 67.69074873 139.5 72.6875 C140.22904541 73.08517578 140.95809082 73.48285156 141.70922852 73.89257812 C148.18143273 77.4970714 148.18143273 77.4970714 150 80 C150.38311005 83.11945152 150.38311005 83.11945152 150.39440918 87.04672241 C150.40050028 87.76854663 150.40659139 88.49037084 150.41286707 89.23406851 C150.42955188 91.65929682 150.42471361 94.08400324 150.41992188 96.50927734 C150.4272591 98.24543302 150.43584431 99.98158381 150.44558716 101.71772766 C150.46784982 106.43885255 150.47073143 111.15980316 150.46883965 115.88097334 C150.46872015 119.81991369 150.47727585 123.75881684 150.48561716 127.69774687 C150.5048688 136.98992928 150.50772884 146.28202186 150.50097656 155.57421875 C150.49433593 165.16450866 150.51719697 174.75441394 150.55429029 184.34462583 C150.58496685 192.57401831 150.5963495 200.80328694 150.59245348 209.03273547 C150.59038365 213.94973043 150.59590097 218.86642624 150.62034607 223.78336716 C150.64257662 228.40788128 150.64076634 233.03176949 150.62041855 237.65628624 C150.61700179 239.3538289 150.62212622 241.05141339 150.63640213 242.74889946 C150.65454801 245.06643608 150.64188348 247.3818388 150.62145996 249.6993103 C150.62217247 250.99606375 150.62288498 252.29281719 150.62361908 253.6288662 C149.69008502 258.6753254 146.78212834 260.7427385 142.73364258 263.59887695 C141.96173584 264.05738037 141.1898291 264.51588379 140.39453125 264.98828125 C139.0628894 265.78806396 139.0628894 265.78806396 137.7043457 266.60400391 C136.75003662 267.16780762 135.79572754 267.73161133 134.8125 268.3125 C132.73909728 269.55517897 130.66619991 270.7987014 128.59375 272.04296875 C127.51351563 272.68927246 126.43328125 273.33557617 125.3203125 274.00146484 C119.78964572 277.33043825 114.30340629 280.73099861 108.8125 284.125 C100.3742749 289.32877896 91.9088219 294.48176009 83.39892578 299.56738281 C74.20711253 305.06283093 65.06657164 310.64200078 55.92333984 316.21777344 C51.11719116 319.14786241 46.30845691 322.07370114 41.5 325 C39.60286155 326.15494294 37.70572614 327.30989087 35.80859375 328.46484375 C31.78074055 330.91666994 27.75195487 333.36695622 23.72265625 335.81640625 C22.17578125 336.75709961 22.17578125 336.75709961 20.59765625 337.71679688 C18.63565878 338.90990344 16.67343476 340.10263758 14.7109375 341.29492188 C13.81761719 341.83826172 12.92429687 342.38160156 12.00390625 342.94140625 C11.15199707 343.45590332 10.30008789 343.97040039 9.42236328 344.50048828 C7.85337799 345.47173477 6.30292317 346.47385302 4.77685547 347.51123047 C4.0963916 347.97029785 3.41592773 348.42936523 2.71484375 348.90234375 C2.13726318 349.30831787 1.55968262 349.71429199 0.96459961 350.13256836 C-1.83956229 351.37069278 -3.96393143 351.28867775 -7 351 C-9.42749023 349.93701172 -9.42749023 349.93701172 -11.80859375 348.4296875 C-12.70835937 347.87023437 -13.608125 347.31078125 -14.53515625 346.734375 C-15.97181641 345.81398438 -15.97181641 345.81398438 -17.4375 344.875 C-19.50889516 343.58037802 -21.58051601 342.28611709 -23.65234375 340.9921875 C-25.23571533 339.99396973 -25.23571533 339.99396973 -26.85107422 338.97558594 C-31.7026269 335.93179897 -36.60169582 332.96772417 -41.5 330 C-43.41693104 328.83376778 -45.33359697 327.66709968 -47.25 326.5 C-48.19875 325.9225 -49.1475 325.345 -50.125 324.75 C-68.33333333 313.66666667 -86.54166667 302.58333333 -104.75 291.5 C-105.6997168 290.92193604 -106.64943359 290.34387207 -107.62792969 289.74829102 C-109.53491883 288.58746568 -111.4418206 287.4264968 -113.34863281 286.26538086 C-118.28764041 283.25812845 -123.22837167 280.25376345 -128.171875 277.25390625 C-129.69844727 276.32674805 -129.69844727 276.32674805 -131.25585938 275.38085938 C-133.17846427 274.21325001 -135.10159639 273.0465081 -137.02539062 271.88085938 C-139.68897488 270.26250366 -142.34573005 268.6335825 -145 267 C-146.00482422 266.38624512 -147.00964844 265.77249023 -148.04492188 265.14013672 C-149.03556641 264.52541504 -150.02621094 263.91069336 -151.046875 263.27734375 C-152.39797363 262.44384399 -152.39797363 262.44384399 -153.77636719 261.59350586 C-156 260 -156 260 -158 257 C-158.26006222 253.98987007 -158.26006222 253.98987007 -158.27415466 250.21902466 C-158.28200968 249.17916564 -158.28200968 249.17916564 -158.29002339 248.11829937 C-158.30505334 245.78990852 -158.30572918 243.46173685 -158.30639648 241.13330078 C-158.31401595 239.46611153 -158.32244308 237.7989258 -158.33161926 236.13174438 C-158.35359181 231.59866629 -158.36236682 227.06565565 -158.36744571 222.53253031 C-158.37108594 219.70138527 -158.37732425 216.870258 -158.3844471 214.03911972 C-158.40895089 204.16490653 -158.42199556 194.29074595 -158.42553711 184.41650391 C-158.42917341 175.20794425 -158.45907309 165.9997177 -158.50094169 156.79125988 C-158.53561428 148.88883955 -158.55108502 140.98652976 -158.55178314 133.08403385 C-158.55257698 128.36263714 -158.56136432 123.64157961 -158.58978081 118.92026138 C-158.61590976 114.47961547 -158.61819588 110.03959119 -158.60212517 105.59890366 C-158.60030655 103.96907956 -158.60703867 102.33922015 -158.62294388 100.70947266 C-158.64333986 98.48389032 -158.63289443 96.26049633 -158.61473083 94.03494263 C-158.61674216 92.78980959 -158.61875349 91.54467655 -158.62082577 90.26181221 C-157.82833273 86.09806192 -156.22074551 84.6613793 -153 82 C-150.51831055 80.36938477 -150.51831055 80.36938477 -147.88671875 78.94140625 C-146.89857178 78.39798584 -145.9104248 77.85456543 -144.89233398 77.29467773 C-143.83473877 76.72305908 -142.77714355 76.15144043 -141.6875 75.5625 C-139.42079237 74.31707256 -137.15519391 73.06962458 -134.890625 71.8203125 C-133.74013672 71.18641602 -132.58964844 70.55251953 -131.40429688 69.89941406 C-126.19937139 66.99534635 -121.06977566 63.96750516 -115.9375 60.9375 C-106.99153113 55.67512222 -97.93593773 50.66085568 -88.79101562 45.75366211 C-79.65213988 40.84129226 -70.65425272 35.70223588 -61.66259766 30.52685547 C-56.99556868 27.85056726 -52.31011508 25.20695902 -47.625 22.5625 C-46.20755493 21.76211304 -46.20755493 21.76211304 -44.76147461 20.94555664 C-42.83358457 19.85710239 -40.90560524 18.76880628 -38.97753906 17.68066406 C-33.81737285 14.76802187 -28.65868829 11.85275873 -23.5 8.9375 C-22.5507666 8.40133057 -21.6015332 7.86516113 -20.62353516 7.31274414 C-19.278479 6.55272095 -19.278479 6.55272095 -17.90625 5.77734375 C-17.05933594 5.30409668 -16.21242187 4.83084961 -15.33984375 4.34326172 C-13.87297718 3.50116031 -12.42366589 2.62682084 -11.00390625 1.70751953 C-6.78556314 -0.98894323 -4.79940008 -1.22444184 0 0 Z " fill="#E3750F" transform="translate(260,84)"></path><path d="M0 0 C2.75238725 1.14994612 5.37437628 2.51142251 8.01171875 3.90234375 C8.77298569 4.29553802 9.53425262 4.6887323 10.31858826 5.09384155 C12.77907366 6.3671816 15.23328039 7.65213121 17.6875 8.9375 C19.38555137 9.81928473 21.08395754 10.70038655 22.78271484 11.58081055 C27.52749922 14.04304917 32.26494674 16.51910997 37 19 C38.04140137 19.54495117 39.08280273 20.08990234 40.15576172 20.65136719 C43.89234499 22.60913434 47.62376938 24.57633811 51.3515625 26.55078125 C57.38139947 29.73821183 63.44278392 32.8650266 69.5 36 C77.9219894 40.35995347 86.33255628 44.73931822 94.71655273 49.171875 C100.46835617 52.20763459 106.24477145 55.19408042 112.02539062 58.17456055 C121.23089556 62.92535848 130.42501792 67.69074873 139.5 72.6875 C140.22904541 73.08517578 140.95809082 73.48285156 141.70922852 73.89257812 C148.18143273 77.4970714 148.18143273 77.4970714 150 80 C150.38311005 83.11945152 150.38311005 83.11945152 150.39440918 87.04672241 C150.40050028 87.76854663 150.40659139 88.49037084 150.41286707 89.23406851 C150.42955188 91.65929682 150.42471361 94.08400324 150.41992188 96.50927734 C150.4272591 98.24543302 150.43584431 99.98158381 150.44558716 101.71772766 C150.46784982 106.43885255 150.47073143 111.15980316 150.46883965 115.88097334 C150.46872015 119.81991369 150.47727585 123.75881684 150.48561716 127.69774687 C150.5048688 136.98992928 150.50772884 146.28202186 150.50097656 155.57421875 C150.49433593 165.16450866 150.51719697 174.75441394 150.55429029 184.34462583 C150.58496685 192.57401831 150.5963495 200.80328694 150.59245348 209.03273547 C150.59038365 213.94973043 150.59590097 218.86642624 150.62034607 223.78336716 C150.64257662 228.40788128 150.64076634 233.03176949 150.62041855 237.65628624 C150.61700179 239.3538289 150.62212622 241.05141339 150.63640213 242.74889946 C150.65454801 245.06643608 150.64188348 247.3818388 150.62145996 249.6993103 C150.62217247 250.99606375 150.62288498 252.29281719 150.62361908 253.6288662 C149.69008502 258.6753254 146.78212834 260.7427385 142.73364258 263.59887695 C141.96173584 264.05738037 141.1898291 264.51588379 140.39453125 264.98828125 C139.0628894 265.78806396 139.0628894 265.78806396 137.7043457 266.60400391 C136.75003662 267.16780762 135.79572754 267.73161133 134.8125 268.3125 C132.73909728 269.55517897 130.66619991 270.7987014 128.59375 272.04296875 C127.51351563 272.68927246 126.43328125 273.33557617 125.3203125 274.00146484 C119.78964572 277.33043825 114.30340629 280.73099861 108.8125 284.125 C100.3742749 289.32877896 91.9088219 294.48176009 83.39892578 299.56738281 C74.20711253 305.06283093 65.06657164 310.64200078 55.92333984 316.21777344 C51.11719116 319.14786241 46.30845691 322.07370114 41.5 325 C39.60286155 326.15494294 37.70572614 327.30989087 35.80859375 328.46484375 C31.78074055 330.91666994 27.75195487 333.36695622 23.72265625 335.81640625 C22.17578125 336.75709961 22.17578125 336.75709961 20.59765625 337.71679688 C18.63565878 338.90990344 16.67343476 340.10263758 14.7109375 341.29492188 C13.81761719 341.83826172 12.92429687 342.38160156 12.00390625 342.94140625 C11.15199707 343.45590332 10.30008789 343.97040039 9.42236328 344.50048828 C7.85337799 345.47173477 6.30292317 346.47385302 4.77685547 347.51123047 C4.0963916 347.97029785 3.41592773 348.42936523 2.71484375 348.90234375 C2.13726318 349.30831787 1.55968262 349.71429199 0.96459961 350.13256836 C-1.83956229 351.37069278 -3.96393143 351.28867775 -7 351 C-9.42749023 349.93701172 -9.42749023 349.93701172 -11.80859375 348.4296875 C-12.70835937 347.87023437 -13.608125 347.31078125 -14.53515625 346.734375 C-15.97181641 345.81398438 -15.97181641 345.81398438 -17.4375 344.875 C-19.50889516 343.58037802 -21.58051601 342.28611709 -23.65234375 340.9921875 C-25.23571533 339.99396973 -25.23571533 339.99396973 -26.85107422 338.97558594 C-31.7026269 335.93179897 -36.60169582 332.96772417 -41.5 330 C-43.41693104 328.83376778 -45.33359697 327.66709968 -47.25 326.5 C-48.19875 325.9225 -49.1475 325.345 -50.125 324.75 C-68.33333333 313.66666667 -86.54166667 302.58333333 -104.75 291.5 C-105.6997168 290.92193604 -106.64943359 290.34387207 -107.62792969 289.74829102 C-109.53491883 288.58746568 -111.4418206 287.4264968 -113.34863281 286.26538086 C-118.28764041 283.25812845 -123.22837167 280.25376345 -128.171875 277.25390625 C-129.69844727 276.32674805 -129.69844727 276.32674805 -131.25585938 275.38085938 C-133.17846427 274.21325001 -135.10159639 273.0465081 -137.02539062 271.88085938 C-139.68897488 270.26250366 -142.34573005 268.6335825 -145 267 C-146.00482422 266.38624512 -147.00964844 265.77249023 -148.04492188 265.14013672 C-149.03556641 264.52541504 -150.02621094 263.91069336 -151.046875 263.27734375 C-152.39797363 262.44384399 -152.39797363 262.44384399 -153.77636719 261.59350586 C-156 260 -156 260 -158 257 C-158.26006222 253.98987007 -158.26006222 253.98987007 -158.27415466 250.21902466 C-158.28200968 249.17916564 -158.28200968 249.17916564 -158.29002339 248.11829937 C-158.30505334 245.78990852 -158.30572918 243.46173685 -158.30639648 241.13330078 C-158.31401595 239.46611153 -158.32244308 237.7989258 -158.33161926 236.13174438 C-158.35359181 231.59866629 -158.36236682 227.06565565 -158.36744571 222.53253031 C-158.37108594 219.70138527 -158.37732425 216.870258 -158.3844471 214.03911972 C-158.40895089 204.16490653 -158.42199556 194.29074595 -158.42553711 184.41650391 C-158.42917341 175.20794425 -158.45907309 165.9997177 -158.50094169 156.79125988 C-158.53561428 148.88883955 -158.55108502 140.98652976 -158.55178314 133.08403385 C-158.55257698 128.36263714 -158.56136432 123.64157961 -158.58978081 118.92026138 C-158.61590976 114.47961547 -158.61819588 110.03959119 -158.60212517 105.59890366 C-158.60030655 103.96907956 -158.60703867 102.33922015 -158.62294388 100.70947266 C-158.64333986 98.48389032 -158.63289443 96.26049633 -158.61473083 94.03494263 C-158.61674216 92.78980959 -158.61875349 91.54467655 -158.62082577 90.26181221 C-157.82833273 86.09806192 -156.22074551 84.6613793 -153 82 C-150.51831055 80.36938477 -150.51831055 80.36938477 -147.88671875 78.94140625 C-146.89857178 78.39798584 -145.9104248 77.85456543 -144.89233398 77.29467773 C-143.83473877 76.72305908 -142.77714355 76.15144043 -141.6875 75.5625 C-139.42079237 74.31707256 -137.15519391 73.06962458 -134.890625 71.8203125 C-133.74013672 71.18641602 -132.58964844 70.55251953 -131.40429688 69.89941406 C-126.19937139 66.99534635 -121.06977566 63.96750516 -115.9375 60.9375 C-106.99153113 55.67512222 -97.93593773 50.66085568 -88.79101562 45.75366211 C-79.65213988 40.84129226 -70.65425272 35.70223588 -61.66259766 30.52685547 C-56.99556868 27.85056726 -52.31011508 25.20695902 -47.625 22.5625 C-46.20755493 21.76211304 -46.20755493 21.76211304 -44.76147461 20.94555664 C-42.83358457 19.85710239 -40.90560524 18.76880628 -38.97753906 17.68066406 C-33.81737285 14.76802187 -28.65868829 11.85275873 -23.5 8.9375 C-22.5507666 8.40133057 -21.6015332 7.86516113 -20.62353516 7.31274414 C-19.278479 6.55272095 -19.278479 6.55272095 -17.90625 5.77734375 C-17.05933594 5.30409668 -16.21242187 4.83084961 -15.33984375 4.34326172 C-13.87297718 3.50116031 -12.42366589 2.62682084 -11.00390625 1.70751953 C-6.78556314 -0.98894323 -4.79940008 -1.22444184 0 0 Z M2 16 C2 30.19 2 44.38 2 59 C14.24529974 65.45018921 14.24529974 65.45018921 26.50390625 71.875 C27.20064453 72.23980469 27.89738281 72.60460937 28.61523438 72.98046875 C29.97837472 73.69416911 31.3430942 74.40485777 32.70898438 75.11328125 C35.45515934 76.55587555 37.79268799 77.79268799 40 80 C40.26742554 82.07382202 40.26742554 82.07382202 40.29052734 84.66162109 C40.30328705 85.62957611 40.31604675 86.59753113 40.32919312 87.59481812 C40.33141876 88.64376251 40.33364441 89.69270691 40.3359375 90.7734375 C40.3459227 92.38637192 40.3459227 92.38637192 40.35610962 94.03189087 C40.36624915 96.30998012 40.37092624 98.58809915 40.37060547 100.86621094 C40.37497372 104.35401375 40.41126743 107.84054669 40.44921875 111.328125 C40.45508754 113.53905816 40.45905652 115.74999735 40.4609375 117.9609375 C40.47530853 119.00583344 40.48967957 120.05072937 40.50448608 121.12728882 C40.45943011 128.26110261 40.45943011 128.26110261 38.50415039 131.40576172 C34.92774092 133.6826413 31.26854926 135.66077135 27.47265625 137.546875 C26.6467247 137.96294006 25.82079315 138.37900513 24.96983337 138.80767822 C23.22774235 139.68226622 21.483596 140.55277069 19.73754883 141.41943359 C17.06881471 142.74685907 14.41024513 144.09321452 11.75195312 145.44140625 C10.0552682 146.29022424 8.35802078 147.13791899 6.66015625 147.984375 C5.4708828 148.58895538 5.4708828 148.58895538 4.25758362 149.20574951 C-2.83226723 152.69123823 -2.83226723 152.69123823 -7 152 C-8.99438477 151.24072266 -8.99438477 151.24072266 -10.94140625 150.1640625 C-11.68076416 149.76388916 -12.42012207 149.36371582 -13.18188477 148.95141602 C-13.96748779 148.51369873 -14.75309082 148.07598145 -15.5625 147.625 C-17.24876971 146.70737097 -18.93631586 145.79208446 -20.625 144.87890625 C-21.93791016 144.16758545 -21.93791016 144.16758545 -23.27734375 143.44189453 C-28.66896434 140.58654023 -34.17214411 137.94436282 -39.67602539 135.31298828 C-40.47516357 134.92224121 -41.27430176 134.53149414 -42.09765625 134.12890625 C-43.15738647 133.61952515 -43.15738647 133.61952515 -44.23852539 133.09985352 C-46 132 -46 132 -48 129 C-48.27415466 126.80592346 -48.27415466 126.80592346 -48.30639648 124.22485352 C-48.32238388 123.25697403 -48.33837128 122.28909454 -48.35484314 121.29188538 C-48.36020584 120.24810226 -48.36556854 119.20431915 -48.37109375 118.12890625 C-48.38012222 117.05503159 -48.3891507 115.98115692 -48.39845276 114.8747406 C-48.41296601 112.60263869 -48.42184465 110.33049488 -48.42553711 108.05834961 C-48.43744285 104.57920147 -48.48662812 101.10182107 -48.53710938 97.62304688 C-48.54657225 95.41667534 -48.55380793 93.21029289 -48.55859375 91.00390625 C-48.57812607 89.96214737 -48.59765839 88.92038849 -48.61778259 87.84706116 C-48.57290791 80.67748473 -48.57290791 80.67748473 -45.9309082 77.55322266 C-44.9637085 77.04065918 -43.99650879 76.5280957 -43 76 C-41.84854492 75.3706958 -40.69708984 74.7413916 -39.51074219 74.09301758 C-38.19245605 73.43744854 -36.87100158 72.78822211 -35.546875 72.14453125 C-34.49563446 71.62387337 -34.49563446 71.62387337 -33.42315674 71.09269714 C-31.20156213 69.99353098 -28.97603917 68.90263282 -26.75 67.8125 C-24.51041481 66.71023418 -22.27169913 65.60625056 -20.03399658 64.50016785 C-18.64523516 63.81428505 -17.25525101 63.13087147 -15.86395264 62.45014954 C-12.72127239 61.04037761 -12.72127239 61.04037761 -10 59 C-9.91125865 55.89748799 -9.88481545 52.8173188 -9.90234375 49.71484375 C-9.9037587 48.78402481 -9.90517365 47.85320587 -9.90663147 46.8941803 C-9.91224828 43.90858809 -9.9248036 40.92306971 -9.9375 37.9375 C-9.94251284 35.91862087 -9.94707612 33.89974057 -9.95117188 31.88085938 C-9.96222317 26.92054428 -9.97949905 21.96028468 -10 17 C-13.69991533 18.15645129 -17.02329173 19.41023664 -20.37109375 21.36328125 C-21.18046387 21.83113037 -21.98983398 22.29897949 -22.82373047 22.78100586 C-23.68627441 23.28639893 -24.54881836 23.79179199 -25.4375 24.3125 C-27.32387646 25.40423748 -29.21060768 26.49536217 -31.09765625 27.5859375 C-32.07105957 28.15022461 -33.04446289 28.71451172 -34.04736328 29.29589844 C-38.80514818 32.0418335 -43.58982402 34.73967126 -48.375 37.4375 C-50.30992155 38.52990236 -52.24481725 39.62235053 -54.1796875 40.71484375 C-55.14100586 41.25737793 -56.10232422 41.79991211 -57.09277344 42.35888672 C-60.93900605 44.53006371 -64.78401041 46.70340997 -68.62890625 48.87695312 C-71.5050627 50.50286197 -74.3814377 52.12838372 -77.2578125 53.75390625 C-81.06586962 55.90620203 -84.87309507 58.05995864 -88.6796875 60.21484375 C-99.99185187 66.61672964 -111.31943646 72.99019212 -122.66552734 79.33178711 C-127.7909784 82.19743725 -132.90814142 85.07504191 -138 88 C-138 88.66 -138 89.32 -138 90 C-135.59075118 91.68531231 -135.59075118 91.68531231 -132.46484375 93.421875 C-131.88282196 93.75886917 -131.30080017 94.09586334 -130.70114136 94.44306946 C-128.7836364 95.55195003 -126.86058745 96.65083445 -124.9375 97.75 C-122.28170328 99.28144842 -119.62899256 100.81819839 -116.9765625 102.35546875 C-116.30665787 102.74290756 -115.63675323 103.13034637 -114.94654846 103.52952576 C-107.50784193 107.84279429 -100.18588786 112.34212366 -92.88452148 116.88378906 C-92.00094971 117.42874023 -91.11737793 117.97369141 -90.20703125 118.53515625 C-89.4385083 119.013479 -88.66998535 119.49180176 -87.87817383 119.98461914 C-86.06261985 121.15852401 -86.06261985 121.15852401 -84 121 C-85.98 124.3 -87.96 127.6 -90 131 C-94.43407174 129.67926533 -98.07407363 127.93304532 -102.0078125 125.5078125 C-102.56735123 125.16534988 -103.12688995 124.82288727 -103.7033844 124.470047 C-105.51395871 123.36041376 -107.31937655 122.24266732 -109.125 121.125 C-110.37432491 120.35810285 -111.62408443 119.59191328 -112.87426758 118.82641602 C-115.38611532 117.28799222 -117.89649272 115.74721582 -120.40576172 114.20458984 C-125.48240676 111.08689985 -130.58165252 108.00708123 -135.6875 104.9375 C-136.52361816 104.4317041 -137.35973633 103.9259082 -138.22119141 103.40478516 C-138.97706543 102.95022949 -139.73293945 102.49567383 -140.51171875 102.02734375 C-141.49338013 101.43554321 -141.49338013 101.43554321 -142.49487305 100.83178711 C-143.85926108 99.91938517 -143.85926108 99.91938517 -145 100 C-145 147.85 -145 195.7 -145 245 C-131.93134115 238.80958265 -118.9340206 232.4670103 -106 226 C-105.67 210.82 -105.34 195.64 -105 180 C-102.525 179.01 -102.525 179.01 -100 178 C-98.73654295 177.38790291 -97.4822167 176.75652286 -96.23876953 176.10473633 C-95.54099396 175.74128616 -94.84321838 175.377836 -94.1242981 175.00337219 C-93.38460785 174.61682968 -92.6449176 174.23028717 -91.8828125 173.83203125 C-90.29086737 173.01269425 -88.69840301 172.19436543 -87.10546875 171.37695312 C-84.61014003 170.0953755 -82.11810164 168.80887907 -79.63427734 167.50512695 C-77.22544291 166.24300454 -74.80565766 165.00449702 -72.3828125 163.76953125 C-71.27934982 163.18060844 -71.27934982 163.18060844 -70.15359497 162.57978821 C-65.36380226 160.17160077 -62.3699954 159.57113924 -57 161 C-54.42382812 161.99633789 -54.42382812 161.99633789 -52.03125 163.22265625 C-51.13696289 163.67519775 -50.24267578 164.12773926 -49.32128906 164.59399414 C-48.39026367 165.07860107 -47.45923828 165.56320801 -46.5 166.0625 C-45.05318848 166.80197876 -45.05318848 166.80197876 -43.57714844 167.55639648 C-40.71189283 169.02594768 -37.85498806 170.51061746 -35 172 C-34.19111328 172.41894531 -33.38222656 172.83789062 -32.54882812 173.26953125 C-30.44555744 174.3603863 -28.3463671 175.45844481 -26.25 176.5625 C-25.63705078 176.88420166 -25.02410156 177.20590332 -24.39257812 177.53735352 C-21.93219235 178.85394434 -19.9863811 180.0136189 -18 182 C-17.73930359 184.11851501 -17.73930359 184.11851501 -17.7253418 186.76928711 C-17.71580978 187.76049057 -17.70627777 188.75169403 -17.69645691 189.77293396 C-17.69736832 190.84688919 -17.69827972 191.92084442 -17.69921875 193.02734375 C-17.69493362 194.12720108 -17.6906485 195.22705841 -17.68623352 196.36024475 C-17.68048254 198.68961905 -17.67999558 201.0190113 -17.68432617 203.34838867 C-17.68748401 206.91941885 -17.66404302 210.48961936 -17.63867188 214.06054688 C-17.63639882 216.32031145 -17.63569541 218.58007826 -17.63671875 220.83984375 C-17.627509 221.91177475 -17.61829926 222.98370575 -17.60881042 224.08811951 C-17.61503922 225.08247513 -17.62126801 226.07683075 -17.62768555 227.10131836 C-17.62705612 227.97686874 -17.6264267 228.85241913 -17.6257782 229.75450134 C-18.08692873 232.52161135 -18.80523798 233.30058303 -21 235 C-22.76301575 236.08207703 -22.76301575 236.08207703 -24.73364258 237.0847168 C-25.47483841 237.46488449 -26.21603424 237.84505219 -26.97969055 238.23674011 C-27.77658798 238.63685806 -28.57348541 239.03697601 -29.39453125 239.44921875 C-30.21950607 239.86669876 -31.0444809 240.28417877 -31.89445496 240.71430969 C-33.63873709 241.59403665 -35.3846566 242.47052356 -37.13208008 243.34399414 C-39.79861309 244.68053947 -42.45496176 246.03596288 -45.11132812 247.39257812 C-46.80930508 248.2459681 -48.50785473 249.09821972 -50.20703125 249.94921875 C-50.99785599 250.35540939 -51.78868073 250.76160004 -52.60346985 251.18009949 C-56.88648547 253.29527569 -60.11069995 254.65324073 -65 254 C-66.98779297 253.30078125 -66.98779297 253.30078125 -68.7421875 252.3125 C-69.40831055 251.94688965 -70.07443359 251.5812793 -70.76074219 251.20458984 C-71.45844727 250.8070752 -72.15615234 250.40956055 -72.875 250 C-74.37693127 249.17845613 -75.87955367 248.35817468 -77.3828125 247.5390625 C-78.1449707 247.11915039 -78.90712891 246.69923828 -79.69238281 246.26660156 C-83.35491634 244.25631549 -87.04008805 242.29628181 -90.75 240.375 C-91.40468262 240.02050781 -92.05936523 239.66601562 -92.73388672 239.30078125 C-95.40238179 237.92797567 -97.46939056 236.98590569 -100.5 237.06640625 C-103.87896696 238.32823922 -107.05857838 239.89506964 -110.25 241.5625 C-114.72690502 243.86537408 -119.20806831 246.12153365 -123.79296875 248.203125 C-124.95747559 248.73377563 -124.95747559 248.73377563 -126.14550781 249.27514648 C-127.6528727 249.95737842 -129.16388472 250.63161869 -130.67871094 251.29711914 C-132.48937546 252.12141198 -134.25049759 253.05279041 -136 254 C-136.33 254.99 -136.66 255.98 -137 257 C-135.81748657 257.70793701 -135.81748657 257.70793701 -134.61108398 258.43017578 C-118.62702843 268.00228596 -102.66410365 277.60622488 -86.76220703 287.31445312 C-82.01072753 290.21388873 -77.25511196 293.10652703 -72.5 296 C-70.58331449 297.1666357 -68.6666478 298.33330233 -66.75 299.5 C-65.80125 300.0775 -64.8525 300.655 -63.875 301.25 C-55.25 306.5 -55.25 306.5 -52.37060547 308.25292969 C-50.46888934 309.41032726 -48.56687482 310.5672347 -46.66455078 311.72363281 C-41.64148524 314.77800159 -36.62507341 317.8426711 -31.6171875 320.921875 C-30.57240234 321.56253906 -29.52761719 322.20320313 -28.45117188 322.86328125 C-26.44794845 324.09192495 -24.44654769 325.32354693 -22.44726562 326.55859375 C-21.54427734 327.11160156 -20.64128906 327.66460937 -19.7109375 328.234375 C-18.52443604 328.96479004 -18.52443604 328.96479004 -17.31396484 329.70996094 C-14.62603265 331.27305742 -14.62603265 331.27305742 -10 333 C-10 311.55 -10 290.1 -10 268 C-6.04 268 -2.08 268 2 268 C2 289.45 2 310.9 2 333 C5.51916582 331.59233367 8.36386812 330.31326639 11.5625 328.41796875 C12.4302002 327.90524414 13.29790039 327.39251953 14.19189453 326.86425781 C15.11856934 326.31092773 16.04524414 325.75759766 17 325.1875 C17.97694824 324.60709961 18.95389648 324.02669922 19.96044922 323.42871094 C27.25036029 319.08223795 34.47922957 314.64241536 41.68408203 310.15673828 C49.05008463 305.57390121 56.45638939 301.05940741 63.875 296.5625 C64.47075836 296.20131073 65.06651672 295.84012146 65.68032837 295.46798706 C68.06868659 294.02008202 70.45713232 292.57232161 72.84577942 291.12489319 C78.5058211 287.69476011 84.15987681 284.25484013 89.8125 280.8125 C90.72870117 280.2546582 91.64490234 279.69681641 92.58886719 279.12207031 C95.39266288 277.41485268 98.19634229 275.70744422 101 274 C105.20820541 271.43728985 109.41656637 268.87483535 113.625 266.3125 C114.59155518 265.72380127 115.55811035 265.13510254 116.55395508 264.52856445 C117.45654053 263.979021 118.35912598 263.42947754 119.2890625 262.86328125 C120.08006348 262.38157471 120.87106445 261.89986816 121.68603516 261.40356445 C123.36833854 260.3831422 125.0748413 259.40229208 126.79443359 258.44604492 C127.52227051 257.9688501 128.25010742 257.49165527 129 257 C129 256.34 129 255.68 129 255 C123.99583298 252.37420173 118.97901777 249.77511385 113.94873047 247.19970703 C112.23993035 246.32018233 110.53479092 245.43350685 108.83349609 244.53955078 C106.38529028 243.25470721 103.92501007 241.9962746 101.4609375 240.7421875 C100.70444916 240.3381369 99.94796082 239.9340863 99.16854858 239.51779175 C95.50997042 237.68658445 93.80820598 236.838693 89.69360352 237.65991211 C88.36026978 238.32325562 88.36026978 238.32325562 87 239 C85.82566406 239.56074219 84.65132812 240.12148438 83.44140625 240.69921875 C82.1468984 241.35896793 80.85399252 242.02186749 79.5625 242.6875 C78.15036787 243.40098446 76.73759065 244.11319336 75.32421875 244.82421875 C74.60927246 245.18435059 73.89432617 245.54448242 73.15771484 245.91552734 C69.74062512 247.63296483 66.31832649 249.33571831 62.875 251 C61.69679688 251.5775 60.51859375 252.155 59.3046875 252.75 C55.14994078 254.3215354 52.28484968 254.93431654 48.07275391 253.21191406 C45.79776266 252.0830976 43.58787362 250.87114654 41.375 249.625 C39.69915358 248.70867171 38.02202335 247.79468821 36.34375 246.8828125 C35.47492188 246.40875977 34.60609375 245.93470703 33.7109375 245.44628906 C28.29535549 242.55706826 22.76228026 239.89476203 17.23583984 237.22509766 C16.43355957 236.83112793 15.6312793 236.4371582 14.8046875 236.03125 C13.73710205 235.51401367 13.73710205 235.51401367 12.64794922 234.98632812 C11 234 11 234 10 232 C9.8847394 230.41841793 9.83052069 228.83218591 9.80712891 227.24658203 C9.79106598 226.25860626 9.77500305 225.27063049 9.75845337 224.25271606 C9.71407623 219.73733151 9.67295041 215.22209441 9.64990234 210.70654297 C9.63332499 208.32232922 9.60601195 205.93816552 9.56787109 203.55419922 C9.51322274 200.12180731 9.49124736 196.69058031 9.4765625 193.2578125 C9.45389313 192.19104279 9.43122375 191.12427307 9.40786743 190.025177 C9.42899216 182.65548278 9.42899216 182.65548278 12.21630859 179.45581055 C13.13492676 178.97539307 14.05354492 178.49497559 15 178 C15.81597656 177.55358154 16.63195312 177.10716309 17.47265625 176.6472168 C18.32730469 176.25187744 19.18195313 175.85653809 20.0625 175.44921875 C21.49625977 174.77681152 21.49625977 174.77681152 22.95898438 174.09082031 C23.96251953 173.62772461 24.96605469 173.16462891 26 172.6875 C33.65481152 169.11892944 41.07331733 165.46072141 48.28125 161.046875 C52.3831279 159.46741627 55.9214417 160.18051202 59.99194336 161.78533936 C62.17426758 162.80737427 64.31469715 163.88907411 66.453125 165 C67.23516296 165.39574219 68.01720093 165.79148438 68.82293701 166.19921875 C71.30355166 167.45672631 73.77689904 168.72778906 76.25 170 C78.73873609 171.2693708 81.22888397 172.53591003 83.71990967 173.80078125 C85.26521708 174.58661349 86.80894289 175.37556546 88.35089111 176.16796875 C91.20794412 177.62968228 93.95032184 178.98344061 97 180 C97.33 195.18 97.66 210.36 98 226 C104.249375 229.135 110.49875 232.27 116.9375 235.5 C119.89964478 236.98790039 119.89964478 236.98790039 122.92163086 238.50585938 C124.47762247 239.28531469 126.03368828 240.06462189 127.58984375 240.84375 C128.40521606 241.25399414 129.22058838 241.66423828 130.06066895 242.08691406 C130.832052 242.47266602 131.60343506 242.85841797 132.39819336 243.25585938 C133.07103867 243.59339233 133.74388397 243.93092529 134.43711853 244.27868652 C135.86444297 245.06984172 135.86444297 245.06984172 137 245 C137 195.17 137 145.34 137 94 C128.91603905 98.71564389 120.97687332 103.49220662 113.125 108.5625 C112.05942871 109.24562256 110.99385742 109.92874512 109.89599609 110.63256836 C104.44610524 114.12709027 99.01113272 117.64279279 93.59375 121.1875 C92.58812012 121.84032959 91.58249023 122.49315918 90.54638672 123.16577148 C88.63098932 124.40935517 86.7209284 125.66120573 84.81689453 126.92211914 C83.96208496 127.47504639 83.10727539 128.02797363 82.2265625 128.59765625 C81.47971191 129.08758057 80.73286133 129.57750488 79.96337891 130.08227539 C78 131 78 131 75 130 C71 124.74285714 71 124.74285714 71 121 C72.38256836 119.82421875 72.38256836 119.82421875 74.33984375 118.6875 C75.06397461 118.25783936 75.78810547 117.82817871 76.53417969 117.38549805 C77.72382324 116.69967651 77.72382324 116.69967651 78.9375 116 C80.60923081 115.00846002 82.27977849 114.01492295 83.94921875 113.01953125 C84.79919434 112.51502441 85.64916992 112.01051758 86.52490234 111.49072266 C90.84826212 108.88681313 95.06401121 106.1223341 99.28271484 103.35327148 C103.46886934 100.61415276 107.69102809 97.94938149 111.95703125 95.3359375 C112.96926758 94.70985596 113.98150391 94.08377441 115.02441406 93.4387207 C117.0231837 92.20434714 119.02892145 90.98117422 121.04199219 89.77026367 C121.94723633 89.20799072 122.85248047 88.64571777 123.78515625 88.06640625 C124.59863525 87.57084229 125.41211426 87.07527832 126.25024414 86.56469727 C126.82766357 86.04834717 127.40508301 85.53199707 128 85 C128 83.68 128 82.36 128 81 C127.1495813 80.57871826 127.1495813 80.57871826 126.28198242 80.14892578 C114.79703415 74.45209562 103.37100781 68.66671422 92.04296875 62.6640625 C86.21254757 59.5761984 80.35595186 56.5390866 74.5 53.5 C66.45204186 49.32135728 58.41529721 45.12302218 50.39819336 40.88549805 C45.69362809 38.40365639 40.97471185 35.95136034 36.24609375 33.515625 C35.04670408 32.89706985 33.84732262 32.2784988 32.64794922 31.65991211 C30.32973894 30.46446868 28.0095317 29.27321751 25.68798828 28.08422852 C19.10941607 24.69302501 12.69504288 21.1221327 6.36108398 17.29174805 C4.15612788 15.840012 4.15612788 15.840012 2 16 Z " fill="#FEFCFA" transform="translate(260,84)"></path><path d="M0 0 C1.14049805 0.57492187 2.28099609 1.14984375 3.45605469 1.7421875 C4.06809753 2.04914551 4.68014038 2.35610352 5.31072998 2.67236328 C6.59626561 3.31847746 7.88036497 3.96745643 9.16308594 4.61914062 C11.13263278 5.61957645 13.10638354 6.61128551 15.08105469 7.6015625 C24.71416191 12.45341973 24.71416191 12.45341973 25.87792969 13.6171875 C25.96651614 16.35612835 25.99316448 19.0697202 25.97558594 21.80859375 C25.97417099 22.62843246 25.97275604 23.44827118 25.97129822 24.29295349 C25.96568258 26.92190132 25.95312748 29.55076523 25.94042969 32.1796875 C25.9354167 33.95768107 25.93085344 35.73567596 25.92675781 37.51367188 C25.91570807 41.88154295 25.898433 46.24935098 25.87792969 50.6171875 C21.74540566 52.79511356 17.60135473 54.94858035 13.44506836 57.08081055 C12.034462 57.80867243 10.6271607 58.54297851 9.22338867 59.28393555 C7.19873172 60.35116876 5.16311243 61.39425676 3.12402344 62.43359375 C2.19389687 62.93349571 2.19389687 62.93349571 1.24497986 63.4434967 C-3.29962676 65.71837405 -6.23285516 65.86765897 -11.12207031 64.6171875 C-14.28759766 63.32617187 -14.28759766 63.32617187 -17.45800781 61.7109375 C-19.17697266 60.84275391 -19.17697266 60.84275391 -20.93066406 59.95703125 C-22.11948835 59.34379305 -23.30829018 58.73051131 -24.49707031 58.1171875 C-25.70886422 57.5030261 -26.92110052 56.88973675 -28.13378906 56.27734375 C-36.93962864 51.79962918 -36.93962864 51.79962918 -38.12207031 50.6171875 C-38.21069023 47.8055537 -38.23729386 45.01860495 -38.21972656 42.20703125 C-38.21831161 41.36499649 -38.21689667 40.52296173 -38.21543884 39.65541077 C-38.20982295 36.95513415 -38.1972678 34.25493922 -38.18457031 31.5546875 C-38.17955736 29.72851682 -38.1749941 27.90234484 -38.17089844 26.07617188 C-38.15984835 21.58981208 -38.1425731 17.10351366 -38.12207031 12.6171875 C-33.95021583 10.4446243 -29.76942425 8.29076956 -25.5793457 6.15356445 C-24.15585045 5.42423581 -22.73491062 4.68989663 -21.31665039 3.95043945 C-19.27526627 2.88720366 -17.22531218 1.84244011 -15.17285156 0.80078125 C-14.54244461 0.46751328 -13.91203766 0.1342453 -13.26252747 -0.2091217 C-7.84262428 -2.92146032 -5.36828733 -2.37769624 0 0 Z " fill="#E4770E" transform="translate(320.1220703125,259.3828125)"></path><path d="M0 0 C1.14686279 0.58128662 2.29372559 1.16257324 3.4753418 1.76147461 C5.16203979 2.61044312 5.16203979 2.61044312 6.8828125 3.4765625 C8.29908936 4.19835693 9.71536621 4.92015137 11.17456055 5.66381836 C17.94987305 9.09788086 17.94987305 9.09788086 24.86206055 12.60131836 C24.86206055 25.14131836 24.86206055 37.68131836 24.86206055 50.60131836 C15.31223837 55.64523852 15.31223837 55.64523852 10.72924805 58.03881836 C8.00434663 59.46520705 5.30493542 60.91277144 2.61987305 62.41381836 C1.79229492 62.86756836 0.9647168 63.32131836 0.11206055 63.78881836 C-0.5634082 64.17424805 -1.23887695 64.55967773 -1.93481445 64.95678711 C-7.6264551 66.62189475 -12.93810971 64.00307459 -17.9465332 61.44116211 C-19.06600342 60.87518311 -20.18547363 60.3092041 -21.33886719 59.72607422 C-22.73693604 59.00427979 -24.13500488 58.28248535 -25.57543945 57.53881836 C-30.05106445 55.24944336 -34.52668945 52.96006836 -39.13793945 50.60131836 C-39.13793945 38.39131836 -39.13793945 26.18131836 -39.13793945 13.60131836 C-29.52106639 8.51811403 -29.52106639 8.51811403 -25.14575195 6.23022461 C-22.21263255 4.69527326 -19.28903298 3.14645798 -16.38012695 1.56616211 C-15.35145508 1.02088867 -14.3227832 0.47561523 -13.26293945 -0.08618164 C-12.37864258 -0.56442383 -11.4943457 -1.04266602 -10.58325195 -1.53540039 C-6.57627761 -2.95000316 -3.79992268 -1.69374909 0 0 Z " fill="#DE6F11" transform="translate(205.137939453125,259.398681640625)"></path><path d="M0 0 C1.14162598 0.58128662 2.28325195 1.16257324 3.45947266 1.76147461 C4.07247223 2.07080429 4.6854718 2.38013397 5.31704712 2.69883728 C7.25646128 3.67965751 9.18998088 4.67150462 11.12353516 5.66381836 C12.44477477 6.33447946 13.76638603 7.00440892 15.08837891 7.67358398 C18.31277241 9.30772311 21.53197961 10.95179456 24.74853516 12.60131836 C24.99653449 17.76046762 25.17751907 22.91612624 25.29785156 28.07983398 C25.34801767 29.83402945 25.41617525 31.5878092 25.50292969 33.34057617 C26.20193074 47.83045689 26.20193074 47.83045689 22.83837891 51.92871094 C20.20137514 53.53156007 17.65206524 54.5655882 14.74853516 55.60131836 C13.02228139 56.51386399 11.30829847 57.4500313 9.60791016 58.40991211 C7.90690636 59.29032462 6.20377668 60.16664208 4.49853516 61.03881836 C3.21076172 61.72621094 3.21076172 61.72621094 1.89697266 62.42749023 C1.05908203 62.85481445 0.22119141 63.28213867 -0.64208984 63.72241211 C-1.38491211 64.10840576 -2.12773437 64.49439941 -2.89306641 64.89208984 C-8.03382707 66.43804323 -12.38218461 64.28166991 -16.94677734 61.94897461 C-18.51492187 61.15523437 -18.51492187 61.15523437 -20.11474609 60.34545898 C-21.19111328 59.79051758 -22.26748047 59.23557617 -23.37646484 58.66381836 C-24.46056641 58.11274414 -25.54466797 57.56166992 -26.66162109 56.99389648 C-28.67275538 55.97092769 -30.68222576 54.94467618 -32.68945312 53.9140625 C-34.87012622 52.79671171 -37.05987949 51.69711104 -39.25146484 50.60131836 C-39.25146484 38.06131836 -39.25146484 25.52131836 -39.25146484 12.60131836 C-34.42521484 10.10569336 -29.59896484 7.61006836 -24.62646484 5.03881836 C-23.11487793 4.24660889 -21.60329102 3.45439941 -20.04589844 2.63818359 C-18.8312152 2.0191517 -17.61592222 1.40131418 -16.39990234 0.78491211 C-15.78284424 0.45591919 -15.16578613 0.12692627 -14.5300293 -0.21203613 C-8.89172272 -3.0356696 -5.64184673 -2.42695149 0 0 Z " fill="#E7790C" transform="translate(263.25146484375,157.398681640625)"></path></svg>