<svg version="1.1" xmlns="http://www.w3.org/2000/svg" width="16px" height="16px" fill="currentColor" viewBox="0 0 512 512"><path d="M0 0 C168.96 0 337.92 0 512 0 C512 168.96 512 337.92 512 512 C343.04 512 174.08 512 0 512 C0 343.04 0 174.08 0 0 Z " fill="#D72B6B" transform="translate(0,0)"></path><path d="M0 0 C7.89129214 4.79722436 13.40414214 11.48349454 17 20 C19.63339207 30.86737855 18.43719383 40.66156405 12.6796875 50.18359375 C7.73886111 57.32484282 1.17940011 62.16866919 -7 65 C-8.32 65 -9.64 65 -11 65 C-11 71.6 -11 78.2 -11 85 C-7.84018555 84.97905273 -4.68037109 84.95810547 -1.42480469 84.93652344 C9.0046261 84.87030236 19.43406608 84.82608411 29.86365128 84.79275131 C36.1883479 84.7718593 42.51282949 84.74351166 48.83740234 84.69824219 C54.93874989 84.65484284 61.03989035 84.63087506 67.14138031 84.62049103 C69.47145601 84.61308909 71.80152013 84.5986352 74.13150787 84.57707977 C77.39033171 84.54812513 80.6482952 84.54404078 83.90722656 84.54589844 C84.874673 84.53151733 85.84211945 84.51713623 86.83888245 84.50231934 C93.33828543 84.54252023 93.33828543 84.54252023 96.60241699 86.79919434 C98.69317855 90.09156398 98.495088 93.27754431 98.390625 97.046875 C98.38496521 97.81807678 98.37930542 98.58927856 98.37347412 99.3838501 C98.35113589 101.83987279 98.30094763 104.29442055 98.25 106.75 C98.22993154 108.41794763 98.21168137 110.08591821 98.1953125 111.75390625 C98.15127992 115.83650323 98.08227283 119.91800181 98 124 C93.71 124 89.42 124 85 124 C85 115.42 85 106.84 85 98 C17.35 98 -50.3 98 -120 98 C-120 104.6 -120 111.2 -120 118 C-116.97126709 117.98428955 -116.97126709 117.98428955 -113.88134766 117.96826172 C-107.21974597 117.93516367 -100.55814071 117.91304703 -93.89647865 117.89637566 C-89.85639736 117.88592593 -85.81640011 117.8717452 -81.77636719 117.84912109 C-77.87955267 117.82743488 -73.98281913 117.81544033 -70.08594894 117.81024551 C-68.59714864 117.80654214 -67.1083529 117.79931062 -65.61958694 117.78853989 C-63.53877333 117.77408081 -61.45829694 117.77201967 -59.37744141 117.77294922 C-58.19163483 117.768508 -57.00582825 117.76406677 -55.78408813 117.75949097 C-53 118 -53 118 -51 120 C-50.34076454 127.64713134 -52.12533674 134.08738963 -54.3125 141.375 C-54.933896 143.50772446 -55.55499201 145.64053635 -56.17578125 147.7734375 C-56.48467285 148.80823242 -56.79356445 149.84302734 -57.11181641 150.90917969 C-57.70146669 152.96112376 -58.2511606 155.02499366 -58.75927734 157.09863281 C-58.99727051 158.06897461 -59.23526367 159.03931641 -59.48046875 160.0390625 C-59.67922607 160.89967285 -59.8779834 161.7602832 -60.08276367 162.64697266 C-61.23712832 165.60831586 -62.54991405 166.97910812 -65 169 C-67.53106689 169.48101807 -67.53106689 169.48101807 -70.41113281 169.45410156 C-72.03236053 169.45364838 -72.03236053 169.45364838 -73.68634033 169.45318604 C-74.84687927 169.43254089 -76.00741821 169.41189575 -77.203125 169.390625 C-78.39605164 169.38496521 -79.58897827 169.37930542 -80.8180542 169.37347412 C-84.62911056 169.35107926 -88.43922767 169.30087429 -92.25 169.25 C-94.83331976 169.22993915 -97.41665425 169.21168766 -100 169.1953125 C-106.33369537 169.15120382 -112.66668843 169.08215232 -119 169 C-119 172.96 -119 176.92 -119 181 C-116.1232959 180.97643433 -116.1232959 180.97643433 -113.18847656 180.95239258 C-106.85020018 180.90400629 -100.51196753 180.8695408 -94.17355728 180.84456348 C-90.33076913 180.82891121 -86.4881809 180.80768127 -82.64550781 180.77368164 C-78.93670437 180.74107205 -75.22809316 180.72314369 -71.51915741 180.71536827 C-70.10456059 180.70982759 -68.68997422 180.69900788 -67.27545929 180.68280983 C-65.29344452 180.66101699 -63.3112361 180.65977444 -61.32910156 180.65942383 C-60.20103088 180.65276199 -59.07296021 180.64610016 -57.91070557 180.63923645 C-54.64411699 181.04410945 -53.25569089 181.61951052 -51 184 C-50.11483873 191.58061191 -52.14471988 198.1519741 -54.3125 205.375 C-54.933896 207.50772446 -55.55499201 209.64053635 -56.17578125 211.7734375 C-56.48467285 212.80823242 -56.79356445 213.84302734 -57.11181641 214.90917969 C-57.70146669 216.96112376 -58.2511606 219.02499366 -58.75927734 221.09863281 C-58.99727051 222.06897461 -59.23526367 223.03931641 -59.48046875 224.0390625 C-59.67922607 224.89967285 -59.8779834 225.7602832 -60.08276367 226.64697266 C-61.23712832 229.60831586 -62.54991405 230.97910812 -65 233 C-67.53106689 233.48101807 -67.53106689 233.48101807 -70.41113281 233.45410156 C-72.03236053 233.45364838 -72.03236053 233.45364838 -73.68634033 233.45318604 C-74.84687927 233.43254089 -76.00741821 233.41189575 -77.203125 233.390625 C-78.39605164 233.38496521 -79.58897827 233.37930542 -80.8180542 233.37347412 C-84.62911056 233.35107926 -88.43922767 233.30087429 -92.25 233.25 C-94.83331976 233.22993915 -97.41665425 233.21168766 -100 233.1953125 C-106.33398652 233.15460565 -112.66594165 233.07631396 -119 233 C-119 241.25 -119 249.5 -119 258 C-51.68 258 15.64 258 85 258 C85 249.75 85 241.5 85 233 C89.29 233 93.58 233 98 233 C98.09900135 237.76881876 98.17152928 242.5370373 98.21972656 247.30664062 C98.23982144 248.92849143 98.26710254 250.55026997 98.30175781 252.171875 C98.3503727 254.5053898 98.37298889 256.83794557 98.390625 259.171875 C98.41127014 259.89493835 98.43191528 260.61800171 98.45318604 261.36297607 C98.45455322 264.44196198 98.27230455 266.57231371 96.60241699 269.19506836 C92.56487214 271.9953469 88.70824003 271.52546869 83.90722656 271.45410156 C82.88251755 271.45468567 81.85780853 271.45526978 80.80204773 271.45587158 C77.4145624 271.45308456 74.02795664 271.42196224 70.640625 271.390625 C68.29222087 271.38316484 65.94381052 271.37747085 63.59539795 271.37347412 C57.41386737 271.35820024 51.23271263 271.31890275 45.05133057 271.2746582 C38.74390752 271.23374366 32.43642375 271.21547123 26.12890625 271.1953125 C13.75243902 271.15241065 1.37625076 271.08413767 -11 271 C-11 275.62 -11 280.24 -11 285 C-10.05125 285.04125 -9.1025 285.0825 -8.125 285.125 C-0.2735317 286.28523722 6.60939237 291.61732032 11.4609375 297.6875 C17.37821065 306.57842819 19.46167905 315.39683642 18 326 C15.48628402 335.5590392 10.48746175 343.69916641 1.921875 348.8515625 C-7.85845464 353.83622326 -16.95747816 355.62608365 -27.859375 353.421875 C-36.844468 350.27423096 -44.52363646 343.1643927 -49.10546875 334.875 C-53.09529424 326.512047 -53.48740228 316.02880896 -50.875 307.125 C-47.35317474 298.2794854 -39.94792666 290.04827368 -31.25 286.0625 C-28 285 -28 285 -24 285 C-24 280.38 -24 275.76 -24 271 C-25.30656555 271.01110306 -26.6131311 271.02220612 -27.95928955 271.03364563 C-40.26066425 271.13491794 -52.56195459 271.20991582 -64.86365128 271.25906086 C-71.18841143 271.28517613 -77.51283559 271.32061049 -83.83740234 271.37719727 C-89.93876201 271.43144656 -96.03979812 271.46140598 -102.14138031 271.47438622 C-104.47147467 271.48363871 -106.80155093 271.50170635 -109.13150787 271.52865028 C-112.3904728 271.56484515 -115.64809362 271.56994917 -118.90722656 271.56762695 C-119.874673 271.58560333 -120.84211945 271.60357971 -121.83888245 271.62210083 C-128.35610296 271.57171195 -128.35610296 271.57171195 -131.60241699 268.68933105 C-133.42267693 265.18665426 -133.50484495 262.14376897 -133.390625 258.29296875 C-133.38213531 257.20487663 -133.38213531 257.20487663 -133.37347412 256.09480286 C-133.35119099 253.79167992 -133.30101487 251.49014776 -133.25 249.1875 C-133.22992434 247.62046528 -133.21167543 246.05340601 -133.1953125 244.48632812 C-133.15135337 240.65694481 -133.08238623 236.82874154 -133 233 C-134.18937164 233.00999275 -134.18937164 233.00999275 -135.402771 233.02018738 C-142.87730776 233.08031264 -150.35172718 233.12598145 -157.82644272 233.15543652 C-161.66923087 233.17108879 -165.5118191 233.19231873 -169.35449219 233.22631836 C-173.06329563 233.25892795 -176.77190684 233.27685631 -180.48084259 233.28463173 C-181.89543941 233.29017241 -183.31002578 233.30099212 -184.72454071 233.31719017 C-186.70655548 233.33898301 -188.6887639 233.34022556 -190.67089844 233.34057617 C-191.79896912 233.34723801 -192.92703979 233.35389984 -194.08929443 233.36076355 C-197.35280821 232.95627165 -198.73885801 232.3688727 -201 230 C-201.99741827 222.347807 -199.79112656 215.2700961 -197.74682617 207.94311523 C-197.18848478 205.94103118 -196.64658249 203.93505951 -196.10742188 201.92773438 C-191.19322596 183.79548398 -191.19322596 183.79548398 -187 181 C-184.58918762 180.75949097 -184.58918762 180.75949097 -181.70239258 180.77294922 C-180.62149857 180.77310028 -179.54060455 180.77325134 -178.42695618 180.77340698 C-176.67840584 180.78889084 -176.67840584 180.78889084 -174.89453125 180.8046875 C-173.70018967 180.8075174 -172.50584808 180.81034729 -171.27531433 180.81326294 C-167.45427503 180.82447323 -163.63346866 180.84957963 -159.8125 180.875 C-157.22461276 180.88502869 -154.63672184 180.89415473 -152.04882812 180.90234375 C-145.69912877 180.92441539 -139.3496039 180.95895129 -133 181 C-133 177.04 -133 173.08 -133 169 C-135.8767041 169.02356567 -135.8767041 169.02356567 -138.81152344 169.04760742 C-145.14979982 169.09599371 -151.48803247 169.1304592 -157.82644272 169.15543652 C-161.66923087 169.17108879 -165.5118191 169.19231873 -169.35449219 169.22631836 C-173.06329563 169.25892795 -176.77190684 169.27685631 -180.48084259 169.28463173 C-181.89543941 169.29017241 -183.31002578 169.30099212 -184.72454071 169.31719017 C-186.70655548 169.33898301 -188.6887639 169.34022556 -190.67089844 169.34057617 C-191.79896912 169.34723801 -192.92703979 169.35389984 -194.08929443 169.36076355 C-197.32075046 168.96024501 -198.68990637 168.25423001 -201 166 C-202.70017648 159.48890331 -199.99567337 152.00749565 -198.25 145.75 C-197.97559082 144.74090576 -197.70118164 143.73181152 -197.41845703 142.69213867 C-196.62401105 139.79136244 -195.81273462 136.89569313 -195 134 C-194.61677254 132.58474772 -194.23390214 131.16939864 -193.8515625 129.75390625 C-191.22192577 120.48706641 -191.22192577 120.48706641 -187 117 C-184.46893311 116.51898193 -184.46893311 116.51898193 -181.58886719 116.54589844 C-180.50804871 116.54620056 -179.42723022 116.54650269 -178.31365967 116.54681396 C-177.15312073 116.56745911 -175.99258179 116.58810425 -174.796875 116.609375 C-173.60394836 116.61503479 -172.41102173 116.62069458 -171.1819458 116.62652588 C-167.37088944 116.64892074 -163.56077233 116.69912571 -159.75 116.75 C-157.16668024 116.77006085 -154.58334575 116.78831234 -152 116.8046875 C-145.66634606 116.84879589 -139.33324013 116.91574022 -133 117 C-133.02618408 116.20827393 -133.05236816 115.41654785 -133.0793457 114.60083008 C-133.18344122 111.00492283 -133.248369 107.40933269 -133.3125 103.8125 C-133.35439453 102.56662109 -133.39628906 101.32074219 -133.43945312 100.03710938 C-133.45556641 98.83505859 -133.47167969 97.63300781 -133.48828125 96.39453125 C-133.51446533 95.28956299 -133.54064941 94.18459473 -133.56762695 93.04614258 C-132.77414266 88.78794749 -131.5651339 87.45498569 -128 85 C-124.62039192 84.30484708 -121.32517008 84.36759272 -117.88549805 84.43237305 C-116.87039658 84.43164291 -115.8552951 84.43091278 -114.80943298 84.43016052 C-111.45964828 84.43363941 -108.11126006 84.47251673 -104.76171875 84.51171875 C-102.43716695 84.52104575 -100.11260531 84.5281624 -97.78804016 84.53315735 C-91.67382609 84.55223572 -85.56020717 84.60134486 -79.44622803 84.65667725 C-73.20577038 84.70785096 -66.96521643 84.73066745 -60.72460938 84.75585938 C-48.48276954 84.80946206 -36.2415274 84.89740591 -24 85 C-24 78.4 -24 71.8 -24 65 C-26.97 64.34 -29.94 63.68 -33 63 C-42.13721929 58.48763863 -47.53194364 51.1958194 -51.38256836 41.94091797 C-52.49934092 38.43030435 -52.57386856 34.97356824 -52.5625 31.3125 C-52.56080811 30.52593018 -52.55911621 29.73936035 -52.55737305 28.92895508 C-52.29092146 20.20556194 -49.12839321 13.67586203 -43.5 7.0625 C-42.675 6.381875 -41.85 5.70125 -41 5 C-40.0925 4.154375 -39.185 3.30875 -38.25 2.4375 C-27.39075008 -6.18441702 -12.0250994 -6.96417627 0 0 Z " fill="#FDF9FB" transform="translate(272,81)"></path><path d="M0 0 C1.93073112 -0.01268921 1.93073112 -0.01268921 3.90046692 -0.02563477 C5.3299268 -0.01980165 6.75938543 -0.01365713 8.18884277 -0.00723267 C9.6917916 -0.01129702 11.19473745 -0.01663813 12.69767761 -0.02316284 C16.78235616 -0.03685859 20.86680781 -0.03152856 24.9514904 -0.02202559 C29.22222387 -0.01444065 33.49293766 -0.02147135 37.76367188 -0.02618408 C44.93619278 -0.03164504 52.10862108 -0.02444112 59.28112793 -0.01016235 C67.57852618 0.00616484 75.87570329 0.00087657 84.17309618 -0.01564157 C91.29163525 -0.02924676 98.41010767 -0.03118085 105.52865553 -0.02332556 C109.78263442 -0.01864371 114.03650932 -0.0180382 118.29048157 -0.02793503 C122.28945603 -0.0365884 126.28814485 -0.03061286 130.28708839 -0.01325226 C131.75647825 -0.00927866 133.22589206 -0.01043637 134.69527245 -0.01704025 C136.69747445 -0.02521053 138.69972886 -0.01315876 140.7019043 0 C141.82351707 0.00113108 142.94512985 0.00226215 144.1007309 0.00342751 C146.85095215 0.38095093 146.85095215 0.38095093 148.71305084 1.68771935 C151.15529895 5.32185844 150.12414679 9.92850664 149.3572998 14.00546265 C148.68099015 16.95975988 147.93629623 19.88794757 147.16345215 22.81845093 C146.89162109 23.87669067 146.61979004 24.93493042 146.33972168 26.02523804 C144.56097727 32.87906317 142.66902462 39.69407674 140.61047363 46.46908569 C139.58427571 49.84752363 138.61751646 53.2255896 137.75720215 56.65048218 C137.58269531 57.34069458 137.40818848 58.03090698 137.22839355 58.74203491 C136.75803381 60.62735926 136.30012673 62.51577809 135.84313965 64.40438843 C134.82223823 67.46709269 134.39853917 68.51258259 131.85095215 70.38095093 C129.08511353 70.76126766 129.08511353 70.76126766 125.66394043 70.76863098 C124.36837219 70.77853561 123.07280396 70.78844025 121.73797607 70.79864502 C120.29907132 70.79440675 118.86016748 70.78984887 117.42126465 70.78500366 C115.90846247 70.7907048 114.39566459 70.79766807 112.88287354 70.80580139 C108.77134883 70.82377527 104.66003703 70.82255667 100.5484848 70.81685901 C97.11884834 70.8137736 93.68925317 70.81985228 90.25962257 70.82589775 C82.17089036 70.83995492 74.08226374 70.83837148 65.99353027 70.82699585 C57.64155488 70.81550976 49.2899004 70.82959571 40.9379673 70.85639232 C33.77271572 70.87852299 26.60756507 70.88519278 19.44228172 70.87931591 C15.16031588 70.87593923 10.87855584 70.87840845 6.59661865 70.89556694 C2.57131954 70.91099253 -1.45350268 70.90712994 -5.47878265 70.8882618 C-6.95785173 70.88456383 -8.4369558 70.88771942 -9.91599274 70.89814758 C-11.93130483 70.91127438 -13.94673934 70.89745368 -15.96203613 70.88215637 C-17.09102325 70.88194709 -18.22001038 70.8817378 -19.38320923 70.88152218 C-22.14904785 70.38095093 -22.14904785 70.38095093 -24.04452515 68.57252598 C-27.01161282 62.68528139 -23.01345519 53.46600608 -21.39904785 47.44345093 C-21.13172852 46.4321814 -20.86440918 45.42091187 -20.58898926 44.3789978 C-18.80098127 37.66839691 -16.91736733 30.99128044 -14.9083252 24.34359741 C-13.8849784 20.94666607 -12.91988962 17.54865131 -12.05529785 14.10751343 C-11.88079102 13.41786499 -11.70628418 12.72821655 -11.52648926 12.01766968 C-11.05581831 10.13315627 -10.59805512 8.24543228 -10.14123535 6.35751343 C-8.22499021 0.60877801 -5.88847813 0.00593816 0 0 Z " fill="#DF3372" transform="translate(291.1490478515625,223.61904907226563)"></path><path d="M0 0 C1.93073112 -0.01268921 1.93073112 -0.01268921 3.90046692 -0.02563477 C5.3299268 -0.01980165 6.75938543 -0.01365713 8.18884277 -0.00723267 C9.6917916 -0.01129702 11.19473745 -0.01663813 12.69767761 -0.02316284 C16.78235616 -0.03685859 20.86680781 -0.03152856 24.9514904 -0.02202559 C29.22222387 -0.01444065 33.49293766 -0.02147135 37.76367188 -0.02618408 C44.93619278 -0.03164504 52.10862108 -0.02444112 59.28112793 -0.01016235 C67.57852618 0.00616484 75.87570329 0.00087657 84.17309618 -0.01564157 C91.29163525 -0.02924676 98.41010767 -0.03118085 105.52865553 -0.02332556 C109.78263442 -0.01864371 114.03650932 -0.0180382 118.29048157 -0.02793503 C122.28945603 -0.0365884 126.28814485 -0.03061286 130.28708839 -0.01325226 C131.75647825 -0.00927866 133.22589206 -0.01043637 134.69527245 -0.01704025 C136.69747445 -0.02521053 138.69972886 -0.01315876 140.7019043 0 C141.82351707 0.00113108 142.94512985 0.00226215 144.1007309 0.00342751 C146.85095215 0.38095093 146.85095215 0.38095093 148.71305084 1.68771935 C151.15529895 5.32185844 150.12414679 9.92850664 149.3572998 14.00546265 C148.68099015 16.95975988 147.93629623 19.88794757 147.16345215 22.81845093 C146.89162109 23.87669067 146.61979004 24.93493042 146.33972168 26.02523804 C144.56097727 32.87906317 142.66902462 39.69407674 140.61047363 46.46908569 C139.58427571 49.84752363 138.61751646 53.2255896 137.75720215 56.65048218 C137.58269531 57.34069458 137.40818848 58.03090698 137.22839355 58.74203491 C136.75803381 60.62735926 136.30012673 62.51577809 135.84313965 64.40438843 C134.82223823 67.46709269 134.39853917 68.51258259 131.85095215 70.38095093 C129.08511353 70.76126766 129.08511353 70.76126766 125.66394043 70.76863098 C124.36837219 70.77853561 123.07280396 70.78844025 121.73797607 70.79864502 C120.29907132 70.79440675 118.86016748 70.78984887 117.42126465 70.78500366 C115.90846247 70.7907048 114.39566459 70.79766807 112.88287354 70.80580139 C108.77134883 70.82377527 104.66003703 70.82255667 100.5484848 70.81685901 C97.11884834 70.8137736 93.68925317 70.81985228 90.25962257 70.82589775 C82.17089036 70.83995492 74.08226374 70.83837148 65.99353027 70.82699585 C57.64155488 70.81550976 49.2899004 70.82959571 40.9379673 70.85639232 C33.77271572 70.87852299 26.60756507 70.88519278 19.44228172 70.87931591 C15.16031588 70.87593923 10.87855584 70.87840845 6.59661865 70.89556694 C2.57131954 70.91099253 -1.45350268 70.90712994 -5.47878265 70.8882618 C-6.95785173 70.88456383 -8.4369558 70.88771942 -9.91599274 70.89814758 C-11.93130483 70.91127438 -13.94673934 70.89745368 -15.96203613 70.88215637 C-17.09102325 70.88194709 -18.22001038 70.8817378 -19.38320923 70.88152218 C-22.14904785 70.38095093 -22.14904785 70.38095093 -24.04452515 68.57252598 C-27.01161282 62.68528139 -23.01345519 53.46600608 -21.39904785 47.44345093 C-21.13172852 46.4321814 -20.86440918 45.42091187 -20.58898926 44.3789978 C-18.80098127 37.66839691 -16.91736733 30.99128044 -14.9083252 24.34359741 C-13.8849784 20.94666607 -12.91988962 17.54865131 -12.05529785 14.10751343 C-11.88079102 13.41786499 -11.70628418 12.72821655 -11.52648926 12.01766968 C-11.05581831 10.13315627 -10.59805512 8.24543228 -10.14123535 6.35751343 C-8.22499021 0.60877801 -5.88847813 0.00593816 0 0 Z M1.85095215 13.38095093 C0.55239813 17.27661299 -0.67023954 21.1033193 -1.7701416 25.04891968 C-2.06598145 26.10788452 -2.36182129 27.16684937 -2.66662598 28.25790405 C-2.9702002 29.35038452 -3.27377441 30.44286499 -3.58654785 31.56845093 C-3.88625488 32.64159546 -4.18596191 33.71473999 -4.49475098 34.82040405 C-5.09116571 36.95895842 -5.68543287 39.09811297 -6.27746582 41.23788452 C-6.85932283 43.33615545 -7.44690803 45.4328462 -8.04016113 47.52792358 C-8.31457031 48.50680542 -8.58897949 49.48568726 -8.8717041 50.49423218 C-9.24114136 51.80001221 -9.24114136 51.80001221 -9.61804199 53.13217163 C-10.26395323 55.48246487 -10.26395323 55.48246487 -10.14904785 58.38095093 C34.07095215 58.38095093 78.29095215 58.38095093 123.85095215 58.38095093 C128.22271671 43.52522129 128.22271671 43.52522129 132.16345215 28.56845093 C132.55887207 27.01674194 132.55887207 27.01674194 132.96228027 25.4336853 C133.2104248 24.44046265 133.45856934 23.44723999 133.7142334 22.42391968 C133.93377686 21.54759888 134.15332031 20.67127808 134.3795166 19.7684021 C134.98010097 17.13250542 134.98010097 17.13250542 134.85095215 13.38095093 C90.96095215 13.38095093 47.07095215 13.38095093 1.85095215 13.38095093 Z " fill="#FEFCFD" transform="translate(291.1490478515625,223.61904907226563)"></path><path d="M0 0 C37.95 0 75.9 0 115 0 C112.94430907 8.73668646 110.83823106 17.48530682 108 26 C70.05 26 32.1 26 -7 26 C-4.94430907 17.26331354 -2.83823106 8.51469318 0 0 Z " fill="#D22969" transform="translate(92,211)"></path><path d="M0 0 C37.95 0 75.9 0 115 0 C112 13 112 13 108 26 C70.05 26 32.1 26 -7 26 C-4.94430907 17.26331354 -2.83823106 8.51469318 0 0 Z " fill="#CD2565" transform="translate(92,275)"></path><path d="M0 0 C6.42255798 3.72508363 10.99344662 7.59617963 13.125 14.8125 C14.15459434 21.87532474 13.631934 27.75925584 9.75390625 33.8359375 C5.24269366 39.30997484 0.42292208 42.38270779 -6.609375 43.0859375 C-13.79523617 43.32794837 -18.41293187 42.62674144 -23.875 37.8125 C-28.75635174 32.93114826 -31.60926925 28.04565257 -32.04296875 21.13671875 C-31.78095027 14.12044619 -29.75840977 9.80207085 -24.875 4.8125 C-17.82714928 -1.56412684 -9.15757193 -3.6056659 0 0 Z " fill="#CC2364" transform="translate(263.875,379.1875)"></path><path d="M0 0 C6.44119065 3.73589058 10.93173631 7.60781257 13.125 14.8125 C14.24126872 21.78135516 13.1901508 27.43008631 9.75390625 33.578125 C6.34559256 38.25331787 1.89618263 41.79907606 -3.875 42.8125 C-10.82253869 43.50725387 -16.44566345 43.55152624 -22.1953125 39.29296875 C-28.28631235 33.92438981 -31.30004037 28.33003992 -32.3125 20.375 C-31.32670556 12.34781672 -28.05249883 7.32633204 -21.875 2.22265625 C-15.52770543 -2.2526823 -7.31172265 -2.87888856 0 0 Z " fill="#E23775" transform="translate(263.875,91.1875)"></path></svg>