<svg version="1.1" xmlns="http://www.w3.org/2000/svg" width="16px" height="16px" fill="currentColor" viewBox="0 0 512 512"><path d="M0 0 C168.96 0 337.92 0 512 0 C512 168.96 512 337.92 512 512 C343.04 512 174.08 512 0 512 C0 343.04 0 174.08 0 0 Z " fill="#438926" transform="translate(0,0)"></path><path d="M0 0 C4.5727414 3.92493637 8.14091635 8.01821826 11.40625 13.07421875 C12.210625 12.90921875 13.015 12.74421875 13.84375 12.57421875 C21.63515267 11.48068855 27.80735832 11.30312599 34.40625 16.07421875 C38.62289479 19.8176529 41.37661402 23.14720618 42.59375 28.69921875 C43.49209204 32.0293784 44.11659421 32.88676947 47.07421875 34.80078125 C49.21252877 35.81654362 51.36530204 36.80240036 53.53125 37.7578125 C59.985341 40.7130145 64.0935205 46.95195918 67.40625 53.07421875 C69.88469551 61.95155993 69.80840689 72.28563296 65.84375 80.63671875 C60.58284887 89.66589326 54.43353866 94.81498291 44.40625 98.07421875 C41.88973797 98.41323073 39.94588117 98.35639999 37.40625 98.07421875 C37.40625 93.78421875 37.40625 89.49421875 37.40625 85.07421875 C39.118125 84.53796875 40.83 84.00171875 42.59375 83.44921875 C47.91512695 81.5179082 50.41597295 79.85866202 53.40625 75.07421875 C55.55615506 68.63855524 55.60017861 60.5947347 52.71875 54.51171875 C48.76371559 50.34289869 45.92368439 48.11159128 40.34375 46.63671875 C37.09212868 45.72355912 35.52350568 45.17388608 32.90625 42.94921875 C31.5226149 40.29725147 31.01122913 38.46424033 30.46875 35.57421875 C29.60704502 31.08585979 28.2479865 28.78089674 24.40625 26.07421875 C21.44965127 25.24071924 21.44965127 25.24071924 18.40625 26.07421875 C17.436875 26.89921875 16.4675 27.72421875 15.46875 28.57421875 C12.40625 31.07421875 12.40625 31.07421875 8.71875 31.69921875 C5.40625 31.07421875 5.40625 31.07421875 3.78125 29.13671875 C3.3275 28.12609375 2.87375 27.11546875 2.40625 26.07421875 C-3.2146005 15.46558282 -8.52447294 9.93343821 -19.46875 4.69921875 C-29.45304206 2.70236034 -37.27892245 3.89922227 -45.71484375 9.4765625 C-51.68478451 14.09226339 -55.23899007 19.94313726 -57.59375 27.07421875 C-58.00346927 30.74623107 -58.15132521 34.36747006 -58.27734375 38.05859375 C-58.59375 41.07421875 -58.59375 41.07421875 -60.71875 44.26171875 C-63.89290379 46.2628157 -67.14843092 47.59765343 -70.59375 49.07421875 C-74.77033923 52.69392942 -77.34080412 55.53161991 -77.89453125 61.09765625 C-77.9733598 70.68309212 -77.9733598 70.68309212 -73.15234375 78.6875 C-68.68423611 83.03120557 -64.69073056 84.13622174 -58.59375 85.07421875 C-58.59375 89.36421875 -58.59375 93.65421875 -58.59375 98.07421875 C-67.3516523 99.08474594 -74.23675868 95.17905421 -81.2578125 90.17578125 C-83.67912558 87.99740928 -85.15018606 86.00657278 -86.78125 83.19921875 C-87.26980469 82.37679687 -87.75835937 81.554375 -88.26171875 80.70703125 C-92.47274537 72.38377043 -92.97264732 63.24210078 -90.94140625 54.15625 C-87.96420566 45.91464323 -82.28012138 39.26678496 -74.59375 35.07421875 C-73.60375 35.07421875 -72.61375 35.07421875 -71.59375 35.07421875 C-71.67625 33.81609375 -71.75875 32.55796875 -71.84375 31.26171875 C-71.80780122 19.81203149 -65.4511498 10.03335903 -57.90625 1.88671875 C-41.32424666 -13.96744856 -17.91947225 -13.3046684 0 0 Z " fill="#FAFCFA" transform="translate(369.59375,251.92578125)"></path><path d="M0 0 C3.96 0 7.92 0 12 0 C12.09259816 10.37881568 12.16371316 20.75753343 12.20724869 31.13667774 C12.22814151 35.95593141 12.25648994 40.7749029 12.30175781 45.59399414 C12.34515533 50.24296029 12.36912433 54.89165469 12.37950897 59.54080772 C12.38691134 61.31629402 12.40136619 63.09176511 12.42292023 64.867136 C12.4518739 67.35031127 12.45595948 69.83235748 12.45410156 72.31567383 C12.47567322 73.42158371 12.47567322 73.42158371 12.49768066 74.54983521 C12.47121634 77.80938213 12.42479266 79.5425998 10.15986633 81.98138428 C7.01305257 83.46545481 5.27112707 83.07523035 2 82 C-0.01733398 79.97290039 -0.01733398 79.97290039 -1.80859375 77.28515625 C-2.82542236 75.78879639 -2.82542236 75.78879639 -3.86279297 74.26220703 C-4.56807129 73.18567871 -5.27334961 72.10915039 -6 71 C-7.11241058 69.35312145 -8.22482211 67.70624353 -9.33731079 66.05941772 C-11.26249694 63.19655523 -13.16155399 60.31648937 -15.0625 57.4375 C-16.21966073 55.68773641 -17.37758968 53.93849322 -18.53697205 52.19020081 C-19.5862289 50.60759891 -20.63316857 49.02346142 -21.67993164 47.43920898 C-24.72867216 42.91983534 -27.87373297 38.46609576 -31 34 C-31.33 50.17 -31.66 66.34 -32 83 C-36.29 83 -40.58 83 -45 83 C-45.09266175 73.1599946 -45.16374551 63.32009291 -45.20724869 53.47974014 C-45.22812765 48.91049036 -45.25645071 44.34153898 -45.30175781 39.77246094 C-45.34520488 35.36339127 -45.36913478 30.9546087 -45.37950897 26.54534149 C-45.38690243 24.86278513 -45.40134017 23.18024457 -45.42292023 21.49781036 C-45.45194003 19.14174899 -45.45595675 16.78687527 -45.45410156 14.43066406 C-45.46848267 13.73438904 -45.48286377 13.03811401 -45.49768066 12.32073975 C-45.46913786 8.97276244 -45.18809706 7.25155089 -43.15960693 4.53875732 C-41 3 -41 3 -37.9921875 2.94921875 C-34.2876971 4.25014293 -33.28700359 5.56949461 -31.125 8.8125 C-30.52945312 9.68519531 -29.93390625 10.55789063 -29.3203125 11.45703125 C-28.54661143 12.63784818 -27.77322203 13.81886933 -27 15 C-25.77993545 16.83289034 -24.55841706 18.66481326 -23.3359375 20.49609375 C-12.16796875 37.24804688 -12.16796875 37.24804688 -1 54 C-0.67 36.18 -0.34 18.36 0 0 Z " fill="#FCFDFB" transform="translate(378,308)"></path><path d="M0 0 C0 2.97 0 5.94 0 9 C-4.23981252 8.08680961 -8.40580847 7.17721502 -12.5625 5.9375 C-22.96271431 3.10107792 -37.81117388 1.4326485 -47.8125 6.125 C-52.36673704 8.88109862 -55.60117666 12.20235332 -58 17 C-58.1501182 19.41343878 -58.2215537 21.8320643 -58.25 24.25 C-58.27578125 25.55453125 -58.3015625 26.8590625 -58.328125 28.203125 C-57.90567945 33.09142347 -56.8129775 36.46128433 -53.01171875 39.6875 C-44.33590683 44.58678203 -35.25425353 48.36564275 -25.97265625 51.9453125 C-0.80254995 61.69196504 -0.80254995 61.69196504 5.13671875 73.203125 C7.7288202 81.60106454 7.1660959 92.95265947 3.3203125 100.859375 C-2.58498126 110.43363825 -11.19488448 116.04952565 -22 119 C-38.29649472 121.77428422 -53.97906584 119.81704294 -69 113 C-69 110.03 -69 107.06 -69 104 C-67.42412109 104.41572266 -67.42412109 104.41572266 -65.81640625 104.83984375 C-50.10327433 108.92507065 -30.64352419 113.34348056 -15.75 104.75 C-10.50277215 101.19610066 -7.05285827 97.06893035 -5 91 C-4.23731684 85.62910489 -4.23871271 80.53156145 -6.875 75.6875 C-13.87433102 66.5002522 -26.48296956 63.23439355 -36.90209961 59.32543945 C-49.23671902 54.672813 -60.93843356 49.75518246 -68 38 C-71.14825033 30.88221665 -71.32476255 22.16066109 -68.97265625 14.7734375 C-64.82601721 5.69907506 -58.95304844 -0.60300941 -49.6875 -4.4375 C-48.13739498 -4.99413997 -46.57506643 -5.51850301 -45 -6 C-44.38382813 -6.19207031 -43.76765625 -6.38414062 -43.1328125 -6.58203125 C-28.73689429 -9.40320936 -13.25578835 -5.42908587 0 0 Z " fill="#F9FBF8" transform="translate(222,186)"></path><path d="M0 0 C22.44 0 44.88 0 68 0 C68 2.97 68 5.94 68 9 C48.86 9 29.72 9 10 9 C10 24.18 10 39.36 10 55 C26.17 55 42.34 55 59 55 C59 58.3 59 61.6 59 65 C42.83 65 26.66 65 10 65 C10 83.48 10 101.96 10 121 C6.7 121 3.4 121 0 121 C0 81.07 0 41.14 0 0 Z " fill="#FAFBF9" transform="translate(77,182)"></path><path d="M0 0 C1.17175781 0.04640625 2.34351563 0.0928125 3.55078125 0.140625 C5.32001953 0.19476563 5.32001953 0.19476563 7.125 0.25 C8.48044922 0.31960937 8.48044922 0.31960937 9.86328125 0.390625 C8.23409136 5.49944268 5.14236573 9.38765986 1.98828125 13.640625 C0.81429465 15.24419933 -0.35886189 16.84838163 -1.53125 18.453125 C-2.1288916 19.26910156 -2.7265332 20.08507812 -3.34228516 20.92578125 C-6.16574254 24.80409767 -8.93568708 28.71947966 -11.69921875 32.640625 C-12.18696777 33.3305957 -12.6747168 34.02056641 -13.17724609 34.73144531 C-14.08553209 36.01995141 -14.9891553 37.31176201 -15.88720703 38.60742188 C-16.7044844 39.77377473 -17.5408882 40.92701404 -18.39794922 42.06445312 C-20.54138 44.94702447 -20.54138 44.94702447 -21.14453125 48.39453125 C-19.14068435 52.36339082 -16.36999105 55.83782501 -13.75390625 59.41796875 C-12.13671875 62.390625 -12.13671875 62.390625 -12.296875 64.9375 C-12.57402344 65.74703125 -12.85117187 66.5565625 -13.13671875 67.390625 C-13.38550781 68.27363281 -13.63429688 69.15664063 -13.890625 70.06640625 C-14.15746094 70.93652344 -14.42429687 71.80664062 -14.69921875 72.703125 C-14.96863281 73.58613281 -15.23804688 74.46914063 -15.515625 75.37890625 C-15.82306641 76.37470703 -15.82306641 76.37470703 -16.13671875 77.390625 C-18.88464549 74.76427478 -21.1443566 72.13562539 -23.265625 68.984375 C-23.82572266 68.15808594 -24.38582031 67.33179688 -24.96289062 66.48046875 C-25.82237305 65.19849609 -25.82237305 65.19849609 -26.69921875 63.890625 C-27.84559466 62.19219545 -28.99270473 60.49426114 -30.140625 58.796875 C-30.64408447 58.04728516 -31.14754395 57.29769531 -31.66625977 56.52539062 C-32.67006644 55.068096 -33.72523964 53.64521068 -34.82177734 52.25634766 C-36.13671875 50.390625 -36.13671875 50.390625 -36.171875 48.1328125 C-34.64381508 44.08489527 -32.17004655 40.95107776 -29.57421875 37.515625 C-28.39636933 35.92340286 -27.22069679 34.32956872 -26.046875 32.734375 C-25.41797363 31.88101563 -24.78907227 31.02765625 -24.14111328 30.1484375 C-20.51643947 25.16131017 -17.01883456 20.08577734 -13.51171875 15.015625 C-12.16582483 13.06999405 -10.81949949 11.12466142 -9.47265625 9.1796875 C-8.9007959 8.35162598 -8.32893555 7.52356445 -7.73974609 6.67041016 C-7.21074707 5.91808105 -6.68174805 5.16575195 -6.13671875 4.390625 C-5.63760986 3.63990723 -5.13850098 2.88918945 -4.62426758 2.11572266 C-3.13671875 0.390625 -3.13671875 0.390625 0 0 Z " fill="#F9FBF8" transform="translate(308.13671875,203.609375)"></path><path d="M0 0 C3.00765886 2.84936103 5.27845212 5.23511958 7 9 C6.42894531 9.79019531 5.85789062 10.58039063 5.26953125 11.39453125 C4.88571289 11.92933105 4.50189453 12.46413086 4.10644531 13.01513672 C3.22973033 14.23294345 2.34737967 15.4467092 1.45996094 16.65673828 C-1.25000764 20.39292868 -3.73229267 24.17686841 -6.06640625 28.16015625 C-13.82801919 41.06416787 -13.82801919 41.06416787 -17.94580078 42.83837891 C-22.09475243 43.60482336 -25.95579329 43.03682061 -30 42 C-26.91460241 36.29921625 -23.32160822 31.1826963 -19.4375 26 C-18.19249604 24.32567867 -16.94770734 22.65119725 -15.703125 20.9765625 C-15.08373047 20.14543945 -14.46433594 19.31431641 -13.82617188 18.45800781 C-10.6207943 14.14360388 -7.45572476 9.79971177 -4.28881836 5.45703125 C-1.10770351 1.10770351 -1.10770351 1.10770351 0 0 Z " fill="#FAFCF9" transform="translate(265,261)"></path><path d="M0 0 C5.21814259 -1.55194758 9.99457351 -2.42002448 15 0 C20.95433974 5.84884947 25.19476966 13.29665778 29.42871094 20.43457031 C30.93370882 22.99869402 30.93370882 22.99869402 32.70410156 25.19042969 C34 27 34 27 34 29.375 C32.61042432 33.02263617 30.69772391 35.1706798 28 38 C27.34 38 26.68 38 26 38 C24.78588867 36.54150391 24.78588867 36.54150391 23.41796875 34.4765625 C22.90387451 33.71069824 22.38978027 32.94483398 21.86010742 32.15576172 C21.30814697 31.32061035 20.75618652 30.48545898 20.1875 29.625 C14.93933912 21.80225559 9.53677251 14.12039018 3.96362305 6.52587891 C3.44324463 5.81351074 2.92286621 5.10114258 2.38671875 4.3671875 C1.92483154 3.73925293 1.46294434 3.11131836 0.98706055 2.46435547 C0 1 0 1 0 0 Z " fill="#FAFCFA" transform="translate(238,205)"></path></svg>