<svg version="1.1" xmlns="http://www.w3.org/2000/svg" width="16px" height="16px" fill="currentColor" viewBox="0 0 512 512"><path d="M0 0 C168.96 0 337.92 0 512 0 C512 168.96 512 337.92 512 512 C343.04 512 174.08 512 0 512 C0 343.04 0 174.08 0 0 Z " fill="#438926" transform="translate(0,0)"></path><path d="M0 0 C1.29312103 -0.01029488 1.29312103 -0.01029488 2.61236572 -0.02079773 C5.46643473 -0.039122 8.31995697 -0.03522017 11.17407227 -0.02954102 C13.15560587 -0.03410023 15.1371379 -0.03940502 17.1186676 -0.04542542 C21.27400125 -0.05436766 25.42914282 -0.05192085 29.58447266 -0.04199219 C34.9123692 -0.03050308 40.23960293 -0.05070755 45.56741238 -0.07990932 C49.66034668 -0.09824662 53.75312144 -0.09798376 57.8460865 -0.0922718 C59.8105061 -0.09211828 61.77493631 -0.09818853 63.73931694 -0.11056328 C66.48548953 -0.12542428 69.23042878 -0.11483239 71.9765625 -0.09765625 C72.78968399 -0.10732422 73.60280548 -0.11699219 74.44056702 -0.12695312 C77.9238477 -0.08128111 80.14067054 0.1256625 83.06062317 2.09721375 C84.87826395 4.90686939 85.03822363 6.482826 85.00708008 9.81518555 C85.00677795 10.89600403 85.00647583 11.97682251 85.00616455 13.09039307 C84.98551941 14.25093201 84.96487427 15.41147095 84.94360352 16.60717773 C84.93794373 17.80010437 84.93228394 18.99303101 84.92645264 20.22210693 C84.90405778 24.0331633 84.85385281 27.8432804 84.80297852 31.65405273 C84.78291767 34.23737249 84.76466618 36.82070698 84.74829102 39.40405273 C84.70418262 45.73770667 84.63723829 52.0708126 84.55297852 58.40405273 C85.17172852 58.52780273 85.79047852 58.65155273 86.42797852 58.77905273 C88.55297852 59.40405273 88.55297852 59.40405273 90.55297852 61.40405273 C91.00128084 64.46605724 90.87702958 67.56298675 90.86547852 70.65405273 C90.8815918 71.5009668 90.89770508 72.34788086 90.91430664 73.22045898 C90.91826935 78.31650065 90.64560245 82.14618353 87.55297852 86.40405273 C82.12345876 90.18136376 78.21279012 90.98791084 71.68359375 90.92163086 C70.82414154 90.92864014 69.96468933 90.93564941 69.07919312 90.94287109 C66.25631799 90.96038501 63.43445645 90.94885304 60.61157227 90.93530273 C58.64054676 90.9379993 56.66952255 90.9418831 54.69850159 90.94689941 C50.57540168 90.9527853 46.45264925 90.94425985 42.32958984 90.92553711 C37.05129858 90.9027332 31.77382029 90.91588566 26.49555874 90.93982697 C22.4282674 90.95429668 18.36116812 90.9496738 14.29387093 90.9393158 C12.34785935 90.93665254 10.40183019 90.93990413 8.45583916 90.94923401 C5.73441384 90.95942058 3.01429689 90.94387004 0.29296875 90.92163086 C-0.90650139 90.93377625 -0.90650139 90.93377625 -2.13020325 90.94616699 C-7.35153435 90.86732682 -10.27724781 89.80960873 -14.44702148 86.40405273 C-18.62484232 81.64998075 -18.65606297 77.0642521 -18.69702148 70.96655273 C-18.72795898 69.82089844 -18.72795898 69.82089844 -18.75952148 68.65209961 C-18.78328178 65.23952699 -18.72367494 62.95821352 -17.18139648 59.86889648 C-15.44702148 58.40405273 -15.44702148 58.40405273 -11.44702148 58.40405273 C-11.45368332 57.72167038 -11.46034515 57.03928802 -11.46720886 56.33622742 C-11.53346978 49.24763694 -11.57878369 42.15913412 -11.61181641 35.0703125 C-11.62692268 32.42314075 -11.64740879 29.7759941 -11.67333984 27.12890625 C-11.7096414 23.32863172 -11.72672951 19.52868747 -11.73999023 15.72827148 C-11.75547409 14.54069748 -11.77095795 13.35312347 -11.78691101 12.12956238 C-11.7871376 11.02864761 -11.7873642 9.92773285 -11.78759766 8.79345703 C-11.79425949 7.82304977 -11.80092133 6.85264252 -11.80778503 5.85282898 C-11.44702148 3.40405273 -11.44702148 3.40405273 -10.45367432 1.59246826 C-7.18219149 -0.34502732 -3.69623938 -0.02041251 0 0 Z " fill="#FCFDFB" transform="translate(344.447021484375,255.595947265625)"></path><path d="M0 0 C0 3.63 0 7.26 0 11 C-11.17431193 8.24770642 -11.17431193 8.24770642 -15.75 6.875 C-27.13541202 3.80969676 -43.28369599 2.43051434 -54.05859375 7.80859375 C-59.88197444 11.3822982 -64.16736642 15.22543318 -66 22 C-66.77306483 29.21001284 -67.35592532 37.00872218 -63.36328125 43.375 C-55.75294107 52.44635105 -43.07811772 56.39982697 -32.375 60.64453125 C-31.19333252 61.11544189 -30.01166504 61.58635254 -28.79418945 62.0715332 C-26.44101818 63.00353111 -24.08293262 63.92324254 -21.71948242 64.82885742 C-11.65489311 68.8002031 -2.21281706 73.85550989 4 83 C4.4125 83.59683594 4.825 84.19367188 5.25 84.80859375 C9.81808993 92.94550393 9.01377393 103.89222156 7.52734375 112.84765625 C4.57949055 122.85623567 -2.59753739 131.4763089 -11.67578125 136.47265625 C-21.06209478 140.92563763 -29.14215899 142.31493419 -39.4375 142.1875 C-40.91573242 142.1865332 -40.91573242 142.1865332 -42.42382812 142.18554688 C-51.33943571 142.13237228 -59.43818448 141.53968902 -67.875 138.5625 C-68.5246875 138.34529297 -69.174375 138.12808594 -69.84375 137.90429688 C-72.88797257 136.86136877 -75.30492829 135.79671447 -78 134 C-78.29296875 131.6171875 -78.29296875 131.6171875 -78.1875 128.875 C-78.16042969 127.96492187 -78.13335937 127.05484375 -78.10546875 126.1171875 C-78.07066406 125.41851562 -78.03585938 124.71984375 -78 124 C-73.12806116 125.03828205 -68.34619766 126.17236564 -63.5625 127.5625 C-48.13066946 131.78864446 -30.63807384 132.09254077 -16.296875 124.4765625 C-11.01694557 121.08232215 -7.42584264 116.33947281 -5.46875 110.375 C-4.22570094 104.07688474 -4.12039392 97.59252318 -6.1875 91.5 C-14.76366377 79.67080859 -28.92982861 75.36874318 -42.04223633 70.33081055 C-55.92632345 64.97008242 -69.78530755 58.85572099 -77.015625 45.0625 C-80.52376958 36.642953 -80.51916815 25.01161839 -77.375 16.5 C-71.97536642 5.24761674 -63.66227033 -1.68253477 -52.0625 -6.125 C-34.44030253 -11.15991356 -16.6466037 -6.05113611 0 0 Z " fill="#FAFCFA" transform="translate(242,174)"></path><path d="M0 0 C23.43 0 46.86 0 71 0 C71 14.85 71 29.7 71 45 C47.57 45 24.14 45 0 45 C0 30.15 0 15.3 0 0 Z " fill="#4D922D" transform="translate(345,269)"></path><path d="M0 0 C25.41 0 50.82 0 77 0 C77 3.63 77 7.26 77 11 C55.55 11 34.1 11 12 11 C12 29.15 12 47.3 12 66 C30.15 66 48.3 66 67 66 C67 69.3 67 72.6 67 76 C48.52 76 30.04 76 11 76 C11 98.11 11 120.22 11 143 C7.37 143 3.74 143 0 143 C0 95.81 0 48.62 0 0 Z " fill="#FCFDFC" transform="translate(77,170)"></path><path d="M0 0 C3.22941731 0.10030354 6.31571654 0.46971408 9.5032196 1.00360107 C8.08794044 3.9892064 6.45406556 6.67238492 4.5891571 9.39813232 C4.00045837 10.26043457 3.41175964 11.12273682 2.80522156 12.01116943 C2.16931091 12.93679687 1.53340027 13.86242432 0.8782196 14.81610107 C0.22103943 15.77717773 -0.43614075 16.73825439 -1.11323547 17.72845459 C-4.6865255 22.94426792 -8.28492914 28.14181727 -11.90693665 33.32391357 C-12.6222052 34.3476709 -13.33747375 35.37142822 -14.07441711 36.4262085 C-15.45194261 38.39462581 -16.8323503 40.36103015 -18.21601868 42.32513428 C-21.56564903 47.10648212 -24.70903825 51.872744 -27.4967804 57.00360107 C-26.8470929 57.73578857 -26.1974054 58.46797607 -25.5280304 59.22235107 C-16.69577919 70.27447291 -17.51471168 81.38222404 -18.4967804 95.00360107 C-22.28068098 91.55947932 -24.91203571 87.63851292 -27.6999054 83.39422607 C-28.18255859 82.66741638 -28.66521179 81.94060669 -29.16249084 81.19177246 C-30.69496486 78.88191425 -32.22094513 76.56784869 -33.7467804 74.25360107 C-34.78802061 72.68170392 -35.82968271 71.11008615 -36.8717804 69.53875732 C-39.41834431 65.69692352 -41.95909505 61.85130471 -44.4967804 58.00360107 C-38.93674848 49.10662083 -33.08841497 40.42400849 -27.1842804 31.75360107 C-25.8417045 29.77981231 -24.4996257 27.8056972 -23.15931702 25.83036804 C-22.27009368 24.52316675 -21.37724824 23.21842177 -20.48072815 21.91621399 C-18.18548228 18.56823359 -15.98692213 15.19507588 -13.90400696 11.71038818 C-13.47779556 11.01741638 -13.05158417 10.32444458 -12.61245728 9.61047363 C-11.80647505 8.29414305 -11.02282955 6.96376333 -10.26672363 5.61816406 C-7.43226867 1.05751747 -5.07510495 0.23275361 0 0 Z " fill="#FAFCF9" transform="translate(338.4967803955078,194.99639892578125)"></path><path d="M0 0 C2.94897721 2.74559948 5.26205705 5.34117274 7 9 C6.53883975 12.02535049 5.39166885 14.32564388 3.84545898 16.94238281 C3.39665878 17.70286926 2.94785858 18.46335571 2.48545837 19.24688721 C0.39413918 22.69585944 -1.73010644 26.12289752 -3.87768555 29.53710938 C-4.99671785 31.33897678 -6.09341257 33.15491869 -7.16674805 34.984375 C-15.90362447 49.84605816 -15.90362447 49.84605816 -21.15594482 51.8034668 C-25.92220944 52.57846078 -30.31399309 52.02025793 -35 51 C-33.56830884 47.9750583 -31.90373424 45.26140291 -30.015625 42.5 C-29.41661377 41.62206787 -28.81760254 40.74413574 -28.20043945 39.83959961 C-27.55679443 38.90253174 -26.91314941 37.96546387 -26.25 37 C-25.58766357 36.03263916 -24.92532715 35.06527832 -24.24291992 34.06860352 C-19.6269238 27.33915429 -14.98280945 20.62936127 -10.3125 13.9375 C-9.44963379 12.6990332 -9.44963379 12.6990332 -8.56933594 11.43554688 C-5.82641826 7.52081826 -3.04865525 3.68657338 0 0 Z " fill="#F9FBF8" transform="translate(287,263)"></path><path d="M0 0 C5.37678924 -1.0439705 10.71915133 -1.84539818 16 0 C20.73867101 3.75830169 23.5933182 9.37188902 26.5546875 14.54394531 C28.016962 17.02882393 29.58587291 19.39771908 31.21875 21.7734375 C32.25029708 23.28625581 33.28155715 24.79926987 34.3125 26.3125 C34.79952393 27.02269287 35.28654785 27.73288574 35.78833008 28.46459961 C39.07306308 33.48157986 39.07306308 33.48157986 38.70605469 36.08569336 C37.81494835 38.50172544 36.52297774 40.22598586 34.9375 42.25 C34.38964844 42.95640625 33.84179688 43.6628125 33.27734375 44.390625 C32.85582031 44.92171875 32.43429687 45.4528125 32 46 C28.66292494 44.88764165 28.35284813 44.44999966 26.5390625 41.6328125 C25.84103516 40.56498535 25.84103516 40.56498535 25.12890625 39.47558594 C24.63261719 38.69989258 24.13632812 37.92419922 23.625 37.125 C22.55589444 35.48619117 21.48553787 33.8481979 20.4140625 32.2109375 C19.85750977 31.35725586 19.30095703 30.50357422 18.72753906 29.62402344 C15.87622936 25.29306291 12.93848154 21.02209362 10 16.75 C8.44992451 14.49412378 6.90039651 12.2379207 5.35546875 9.97851562 C4.48850958 8.71305504 3.61657572 7.45097916 2.73828125 6.19335938 C0 2.22044956 0 2.22044956 0 0 Z " fill="#F9FBF8" transform="translate(256,196)"></path><path d="M0 0 C27.72 0 55.44 0 84 0 C84 2.31 84 4.62 84 7 C56.28 7 28.56 7 0 7 C0 4.69 0 2.38 0 0 Z " fill="#58983C" transform="translate(339,326)"></path></svg>