<svg version="1.1" xmlns="http://www.w3.org/2000/svg" width="16px" height="16px" fill="currentColor" viewBox="0 0 512 512"><path d="M0 0 C168.96 0 337.92 0 512 0 C512 168.96 512 337.92 512 512 C343.04 512 174.08 512 0 512 C0 343.04 0 174.08 0 0 Z " fill="#438A26" transform="translate(0,0)"></path><path d="M0 0 C10.1233087 5.87917241 17.23008105 13.85473203 20.2734375 25.3203125 C20.59760019 28.5029098 20.56239033 31.62584912 20.4609375 34.8203125 C20.44740234 35.64273438 20.43386719 36.46515625 20.41992188 37.3125 C20.38498766 39.31539471 20.33119807 41.31794606 20.2734375 43.3203125 C20.84151123 43.57611084 21.40958496 43.83190918 21.99487305 44.09545898 C37.7050879 51.22405036 50.94838927 59.28127706 64.2734375 70.3203125 C65.9234375 69.0003125 67.5734375 67.6803125 69.2734375 66.3203125 C68.78798451 63.21341337 68.06494815 60.87831508 66.7109375 58.0078125 C63.74520054 50.27046905 64.03030329 39.71669242 66.7109375 31.9453125 C71.25358655 22.42661678 79.31862342 15.05360307 89.06640625 11.22265625 C98.40914769 8.59394337 107.93593883 9.61546414 116.62109375 13.77734375 C125.74149856 19.08302843 132.49006476 27.04713676 135.2734375 37.3203125 C136.28912183 47.84327454 135.63883068 57.34255406 129.28515625 66.04296875 C122.44348762 74.06627273 115.10152129 79.60590534 104.390625 80.7265625 C94.44359647 81.08110543 87.79477034 79.83701353 79.2734375 74.3203125 C78.9434375 75.3103125 78.6134375 76.3003125 78.2734375 77.3203125 C77.2834375 77.9803125 76.2934375 78.6403125 75.2734375 79.3203125 C76.2542008 82.80747089 77.76275638 84.94835042 80.2109375 87.5078125 C90.22400664 98.58477024 96.90959481 112.93618489 103.2734375 126.3203125 C104.09714844 126.08634766 104.09714844 126.08634766 104.9375 125.84765625 C115.39213214 123.48749682 124.1159763 126.33572688 133.2734375 131.3203125 C140.34928416 136.34653254 146.63350237 144.63744169 148.2734375 153.3203125 C149.36711592 164.59887119 147.731393 173.86008389 141.0859375 183.1328125 C134.93404046 190.51508895 126.8331149 195.19564457 117.2734375 196.3203125 C114.60569308 196.36770817 111.94189973 196.33676756 109.2734375 196.3203125 C109.13808594 197.32707031 109.00273437 198.33382812 108.86328125 199.37109375 C103.59038114 235.06093513 82.93931806 268.17529059 54.19360352 289.80615234 C35.34581879 303.60457503 12.64680626 313.67362221 -10.7265625 316.3203125 C-11.54125 316.42988281 -12.3559375 316.53945313 -13.1953125 316.65234375 C-43.31661833 320.138606 -77.83513004 315.25871232 -102.8737793 297.08032227 C-104.75450283 296.0635155 -104.75450283 296.0635155 -106.79418945 297.09521484 C-107.43187256 297.49949707 -108.06955566 297.9037793 -108.7265625 298.3203125 C-109.603125 298.80628906 -110.4796875 299.29226563 -111.3828125 299.79296875 C-113.27975608 300.85348529 -115.17559019 301.91598877 -117.0703125 302.98046875 C-123.98906554 306.47036918 -132.28417145 306.3273312 -139.7421875 304.63671875 C-150.32956712 301.07308958 -157.95021221 294.82610189 -162.984375 284.8203125 C-166.88250456 275.44299384 -167.2518629 266.37630213 -163.5390625 256.8828125 C-161.97062612 253.46730633 -160.38041025 250.6595865 -157.8515625 247.8828125 C-155.45033389 245.59155119 -155.45033389 245.59155119 -155.89453125 243.12890625 C-156.95137726 239.56143075 -158.42134753 236.22005351 -159.9140625 232.8203125 C-173.85726316 199.89393836 -176.81210765 161.97935811 -164.265625 127.99609375 C-153.63019384 102.59522898 -138.94623692 80.1699643 -116.7265625 63.3203125 C-115.56060547 62.43085938 -115.56060547 62.43085938 -114.37109375 61.5234375 C-96.84567967 48.72430762 -71.97703705 35.03663128 -49.7265625 36.3203125 C-49.83097656 35.12148437 -49.83097656 35.12148437 -49.9375 33.8984375 C-50.43272996 23.85234407 -48.0700184 16.90740748 -41.8984375 8.96875 C-31.36880857 -2.45974969 -14.32187095 -6.80407823 0 0 Z " fill="#FBFCFA" transform="translate(267.7265625,98.6796875)"></path><path d="M0 0 C1.53686695 1.64503354 2.88316985 3.40287405 4.26953125 5.17578125 C6.29086851 7.30662663 8.4388185 8.5867844 11 10 C10.4765438 37.79076537 -4.58620704 64.05283063 -23 84 C-23.68835938 84.75925781 -24.37671875 85.51851563 -25.0859375 86.30078125 C-46.20073058 108.52922376 -78.32500578 122.45616388 -108.796875 123.30078125 C-111.11450526 123.32020181 -113.43231577 123.32376809 -115.75 123.3125 C-116.9757373 123.30686035 -118.20147461 123.3012207 -119.46435547 123.29541016 C-128.92989407 123.16923629 -137.85513423 122.47085948 -147 120 C-147.71768555 119.80664062 -148.43537109 119.61328125 -149.17480469 119.4140625 C-158.02868984 116.92929958 -166.36822599 113.60935155 -174.5625 109.4375 C-175.29533203 109.07382324 -176.02816406 108.71014648 -176.78320312 108.33544922 C-179.63755331 106.8061372 -181.6651658 105.69967147 -183.08984375 102.72265625 C-182.84902388 95.42476711 -182.84902388 95.42476711 -181 92 C-178.28327801 89.78479146 -175.26803533 88.50294641 -172.0625 87.125 C-170.23594457 86.27826992 -168.41044794 85.42925261 -166.5859375 84.578125 C-165.65491211 84.15337891 -164.72388672 83.72863281 -163.76464844 83.29101562 C-159.49467508 81.2970542 -155.34373637 79.09405098 -151.1875 76.875 C-150.00752441 76.25093262 -150.00752441 76.25093262 -148.80371094 75.61425781 C-145.20919313 73.71286427 -141.62146336 71.79911636 -138.0390625 69.875 C-129.10706598 65.07865928 -120.08325297 60.50252269 -111 56 C-107.06077331 54.04512192 -103.12379347 52.08577657 -99.1875 50.125 C-98.26461182 49.66770508 -97.34172363 49.21041016 -96.39086914 48.73925781 C-89.38831284 45.25028591 -82.46477308 41.62248055 -75.54768372 37.96824646 C-66.36598998 33.12470713 -57.12125141 28.40625931 -47.875 23.6875 C-33.33894939 16.26967688 -33.33894939 16.26967688 -18.85546875 8.75 C-17.68709473 8.13809814 -16.5187207 7.52619629 -15.31494141 6.89575195 C-13.2020007 5.7859902 -11.09088688 4.67274063 -8.98193359 3.55541992 C-8.07137207 3.07693604 -7.16081055 2.59845215 -6.22265625 2.10546875 C-5.44672119 1.69449951 -4.67078613 1.28353027 -3.87133789 0.86010742 C-2 0 -2 0 0 0 Z " fill="#3E8523" transform="translate(353,280)"></path><path d="M0 0 C1.6953125 1.86328125 1.6953125 1.86328125 3.125 4.3125 C5.08292924 7.68804517 5.08292924 7.68804517 7.7421875 10.48046875 C9 12 9 12 8.82568359 14.09399414 C7.71204977 18.01344519 5.93074645 21.41407292 4.046875 25.015625 C3.63968231 25.80630371 3.23248962 26.59698242 2.81295776 27.41162109 C1.46429509 30.02737831 0.10707575 32.6385991 -1.25 35.25 C-2.20459707 37.09829298 -3.15852491 38.94693174 -4.11181641 40.79589844 C-6.09243943 44.63612226 -8.07593641 48.47484059 -10.06152344 52.3125 C-14.09445408 60.11198891 -18.09443276 67.9282904 -22.09338379 75.74523926 C-23.38805106 78.27550669 -24.68362684 80.8053069 -25.97949219 83.33496094 C-32.97358557 96.98850364 -39.955385 110.64831889 -46.93530273 124.30911255 C-55.15173798 140.38969478 -63.38001688 156.4641852 -71.61523438 172.53515625 C-72.25097885 173.77589653 -72.25097885 173.77589653 -72.89956665 175.04170227 C-73.69030181 176.5848735 -74.48112902 178.12799757 -75.27206421 179.67106628 C-77.14812322 183.32940033 -77.14812322 183.32940033 -79 187 C-81.46466983 187.28838718 -83.83930286 187.46764398 -86.3125 187.5625 C-92.22891402 187.77420821 -92.22891402 187.77420821 -98 189 C-112.23159797 160.0856583 -118.59916192 127.80739727 -110 96 C-109.81727539 95.30503418 -109.63455078 94.61006836 -109.44628906 93.89404297 C-100.75465723 62.04613419 -79.52543192 33.43667893 -50.89990234 16.77783203 C-39.42690318 10.29929134 -28.07533063 5.20056166 -15.1875 2.25 C-14.27291016 2.02957031 -13.35832031 1.80914062 -12.41601562 1.58203125 C-4.27090172 -0.32540633 -4.27090172 -0.32540633 0 0 Z " fill="#3E8523" transform="translate(222,147)"></path><path d="M0 0 C1.99927409 2.18130676 3.74709663 4.31731001 5.5 6.6875 C6.02247314 7.3899585 6.54494629 8.09241699 7.08325195 8.81616211 C11.27801606 14.63938524 14.83303626 20.7231226 18.1875 27.0625 C18.65671875 27.94188232 19.1259375 28.82126465 19.609375 29.72729492 C22.05219009 34.50217807 23.94538141 38.58593236 24 44 C22.92578125 45.96875 22.92578125 45.96875 21.3125 47.5 C16.91411411 52.05181796 12.94161413 57.35706506 13.02478027 63.9705658 C13.10822693 64.98855003 13.10822693 64.98855003 13.19335938 66.02709961 C13.40939797 70.79038896 13.51792699 75.42829607 12 80 C7.85905418 84.37448658 2.99585613 86.29375232 -2.5 88.5625 C-4.0028419 89.24759734 -5.50216042 89.94047084 -6.99804688 90.640625 C-10.10573861 92.08790234 -13.22585186 93.50070224 -16.359375 94.89111328 C-22.86562328 97.80841252 -29.15938501 101.12085211 -35.46917725 104.43621826 C-38.88902442 106.22759615 -42.32420114 107.98909982 -45.7578125 109.75390625 C-47.13321352 110.46225577 -48.50853914 111.17075171 -49.88378906 111.87939453 C-50.56364868 112.22963684 -51.2435083 112.57987915 -51.94396973 112.94073486 C-55.35596732 114.69859327 -58.76782014 116.45673259 -62.1796875 118.21484375 C-73.28004271 123.93463657 -84.38120526 129.65285982 -95.484375 135.3671875 C-96.19389313 135.73239502 -96.90341125 136.09760254 -97.63442993 136.47387695 C-101.22893689 138.32369121 -104.82432027 140.17176886 -108.42138672 142.01660156 C-115.63406793 145.71710607 -122.83854635 149.43199409 -130.02487183 153.18348694 C-133.63451724 155.06634195 -137.24813521 156.94149421 -140.86224365 158.81576538 C-142.61302635 159.72623964 -144.36195192 160.64029446 -146.10894775 161.55801392 C-148.53676467 162.83294596 -150.97065261 164.09548045 -153.40625 165.35546875 C-154.13266693 165.74092865 -154.85908386 166.12638855 -155.60751343 166.52352905 C-157.36752835 167.42617621 -159.18087498 168.22333497 -161 169 C-161.99 168.67 -162.98 168.34 -164 168 C-164.87560654 165.4294796 -164.87560654 165.4294796 -165 162 C-163.40714911 159.32285859 -161.21526844 157.28863872 -158.99029541 155.12832642 C-158.33173105 154.46166438 -157.67316669 153.79500235 -156.99464583 153.10813844 C-154.77614159 150.87102929 -152.53342794 148.65988737 -150.29003906 146.44775391 C-148.69753103 144.85231024 -147.10654237 143.25534875 -145.51696777 141.65698242 C-141.18974946 137.31490932 -136.84096846 132.9950341 -132.48767567 128.6791234 C-127.94239352 124.16638528 -123.41570929 119.63506497 -118.88665771 115.10604858 C-111.27833336 107.50329355 -103.65686114 99.91398491 -96.02636719 92.33349609 C-88.1705468 84.52912628 -80.32638731 76.71328312 -72.49511719 68.88427734 C-72.01265739 68.4019604 -71.53019759 67.91964346 -71.0331178 67.42271085 C-70.55150432 66.94123599 -70.06989085 66.45976113 -69.57368302 65.96369612 C-68.60404065 64.99434413 -67.63439222 64.02499819 -66.6647377 63.05565834 C-66.18657022 62.57764591 -65.70840275 62.09963347 -65.21574534 61.60713581 C-57.30799665 53.70303181 -49.38760971 45.81159916 -41.46740246 37.91998243 C-38.75995734 35.22091237 -36.05453621 32.51982696 -33.34949493 29.81834793 C-29.10502428 25.58076363 -24.85290988 21.35100001 -20.59465027 17.12727356 C-19.02913207 15.5721497 -17.46616598 14.01445203 -15.90589142 12.45406723 C-13.78332561 10.33226386 -11.65182686 8.21987539 -9.51763916 6.10977173 C-8.89536194 5.48353082 -8.27308472 4.85728992 -7.63195062 4.21207201 C-3.3425657 0 -3.3425657 0 0 0 Z " fill="#458C28" transform="translate(334,189)"></path><path d="M0 0 C5.59543349 0.26315158 9.82100572 2.02996707 14.6875 4.5625 C15.38302979 4.91820068 16.07855957 5.27390137 16.79516602 5.64038086 C26.5781679 10.74470224 35.43006553 17.07480043 44 24 C42.72807839 26.7836185 41.41812466 28.83135597 39.25512505 30.99097061 C38.69379966 31.5562781 38.13247427 32.12158558 37.55413902 32.7040236 C36.93741297 33.31492396 36.32068693 33.92582432 35.68527222 34.55523682 C35.03019499 35.21202289 34.37511776 35.86880897 33.70018971 36.54549766 C31.50000415 38.74898215 29.29273769 40.94523398 27.08544922 43.14160156 C25.50839008 44.71809667 23.93177098 46.29503208 22.3555603 47.87237549 C18.0710266 52.15748404 13.78034547 56.43638939 9.48855734 60.71423054 C5.00598687 65.18431571 0.52906304 69.66004872 -3.94845581 74.13519287 C-11.46584131 81.64706438 -18.98670901 89.15543162 -26.51025391 96.66113281 C-34.25934201 104.39186138 -42.00632563 112.12468886 -49.75048828 119.86035156 C-50.22788213 120.33721996 -50.70527597 120.81408836 -51.1971363 121.30540732 C-53.59208082 123.69774175 -55.98698403 126.09011755 -58.38186669 128.4825139 C-78.24817619 148.3280918 -98.12179531 168.16633741 -118 188 C-122.875 185.25 -122.875 185.25 -124 183 C-123.39030457 181.29286194 -123.39030457 181.29286194 -122.34448242 179.21899414 C-121.95624802 178.43959976 -121.56801361 177.66020538 -121.16801453 176.85719299 C-120.73487442 176.00842087 -120.30173431 175.15964874 -119.85546875 174.28515625 C-119.41165359 173.40081406 -118.96783844 172.51647186 -118.51057434 171.60533142 C-117.07696424 168.75391672 -115.63219338 165.90831244 -114.1875 163.0625 C-113.25516871 161.20933169 -112.32352049 159.35581955 -111.39257812 157.50195312 C-106.48733342 147.75694727 -101.48480609 138.06790764 -96.38322449 128.42433167 C-93.33523211 122.65797319 -90.38179224 116.85133137 -87.5 111 C-83.69706932 103.33471784 -79.78354406 95.74013215 -75.76953125 88.18359375 C-72.5859331 82.16789882 -69.52676885 76.09592199 -66.5 70 C-62.72323945 62.39366631 -58.84579498 54.8533169 -54.85522461 47.35717773 C-50.75669203 39.621289 -46.87407888 31.77942486 -43.02172852 23.91845703 C-42.30134399 22.46028564 -42.30134399 22.46028564 -41.56640625 20.97265625 C-41.14302979 20.10906494 -40.71965332 19.24547363 -40.28344727 18.35571289 C-38.99906619 15.99828604 -37.82922043 13.97038303 -36 12 C-34.10571289 11.54931641 -34.10571289 11.54931641 -31.97265625 11.6015625 C-31.18584473 11.6005957 -30.3990332 11.59962891 -29.58837891 11.59863281 C-28.33806885 11.61168457 -28.33806885 11.61168457 -27.0625 11.625 C-18.09481992 11.44513735 -10.12478013 9.97368096 -3.41015625 3.45703125 C-2.80494141 2.76673828 -2.80494141 2.76673828 -2.1875 2.0625 C-1.465625 1.381875 -0.74375 0.70125 0 0 Z " fill="#458B27" transform="translate(279,154)"></path><path d="M0 0 C4.86247986 3.18851138 8.98286891 7.9817011 11.14453125 13.40625 C11.94051883 20.06360069 11.50838176 26.51278391 8.14453125 32.40625 C3.89464148 37.46017297 -1.50696076 41.97772175 -8.2734375 42.64453125 C-15.72516627 42.84422497 -20.94013492 41.92115196 -26.57421875 36.86328125 C-31.38591466 31.70957754 -33.46115192 26.46220544 -34.35546875 19.53125 C-34.06702961 13.42595486 -31.2535023 7.75593609 -26.91796875 3.5078125 C-18.40230861 -3.10472662 -9.92418119 -4.86649866 0 0 Z " fill="#4F942E" transform="translate(391.85546875,239.59375)"></path><path d="M0 0 C4.72352658 3.97205644 8.45680075 8.37867166 9.38671875 14.578125 C9.68385113 21.914221 8.33408642 28.14258862 3.45703125 33.78515625 C-1.66569517 38.55620809 -7.0021868 40.61318539 -13.875 41.5 C-19.98029514 41.21156086 -25.65031391 38.39803355 -29.8984375 34.0625 C-35.11496896 27.34462533 -37.01589115 21.51785659 -36 13 C-34.10429864 6.30505469 -29.57401607 1.9301168 -24 -2 C-16.0502971 -5.97485145 -7.20026564 -4.92904091 0 0 Z " fill="#4E942E" transform="translate(266,113)"></path><path d="M0 0 C4.94633156 4.19814696 8.26675451 9.64126294 9.3515625 16.08984375 C9.78527127 22.58406187 7.60798078 27.67393314 4 33 C-0.17965062 37.61760946 -4.5554459 40.54864464 -10.83203125 41.37109375 C-17.96172403 41.52994667 -22.59977538 40.79752098 -28 36 C-33.54067062 30.68194561 -35.99641186 25.87422594 -36.375 18.125 C-36.2064004 11.87744814 -34.42158839 7.56314262 -30.12890625 3.01953125 C-20.85739397 -5.48081555 -11.02836185 -6.37694392 0 0 Z " fill="#337B1E" transform="translate(151,350)"></path><path d="M0 0 C5.27513177 3.62043242 8.71232857 7.67361428 10 14 C10.69479413 20.94794129 10.73090894 26.55701355 6.4921875 32.31640625 C2.11179284 37.25868399 -2.36389415 40.60417076 -9.0859375 41.3359375 C-16.01245815 41.41820022 -20.50787207 41.37128549 -26 37 C-31.60752391 31.49680211 -34.27441257 26.69797081 -34.4375 18.6875 C-34.31581024 11.50780425 -32.41965529 7.57551089 -27.54296875 2.4765625 C-19.77375067 -4.61618012 -8.9711448 -5.00313845 0 0 Z " fill="#559A32" transform="translate(380,125)"></path></svg>