<svg version="1.1" xmlns="http://www.w3.org/2000/svg" width="16px" height="16px" fill="currentColor" viewBox="0 0 512 512"><path d="M0 0 C168.96 0 337.92 0 512 0 C512 168.96 512 337.92 512 512 C343.04 512 174.08 512 0 512 C0 343.04 0 174.08 0 0 Z " fill="#2C8E79" transform="translate(0,0)"></path><path d="M0 0 C1.22172035 -0.00445784 2.44344071 -0.00891569 3.70218289 -0.01350862 C5.07030432 -0.01341931 6.43842576 -0.01322944 7.80654716 -0.01294994 C9.25037767 -0.01624762 10.69420726 -0.01997299 12.13803566 -0.02409142 C16.12002585 -0.03413069 20.10200096 -0.03783131 24.08400202 -0.04048073 C28.37319171 -0.04437816 32.66236939 -0.05395696 36.95155144 -0.0626936 C47.31791891 -0.08247524 57.68428738 -0.09252694 68.05066901 -0.10142139 C72.93000815 -0.10580202 77.80934619 -0.11116945 82.68868446 -0.11641026 C98.9052775 -0.1334252 115.12186986 -0.14791947 131.33847046 -0.155159 C135.54876646 -0.15706896 139.75906246 -0.15898928 143.96935844 -0.16094494 C145.53907289 -0.16167055 145.53907289 -0.16167055 147.14049874 -0.16241082 C164.09346649 -0.17071143 181.04636368 -0.19604769 197.99930061 -0.22852562 C215.39707491 -0.26158447 232.79481333 -0.27960675 250.1926192 -0.28280324 C259.96381558 -0.28496956 269.73490911 -0.29373594 279.50607491 -0.31926441 C287.82780614 -0.34095547 296.14940956 -0.34902974 304.47116585 -0.33929763 C308.71722947 -0.33474812 312.96302929 -0.33667676 317.20905685 -0.35605907 C321.09790177 -0.37365756 324.9862898 -0.37272024 328.87513934 -0.35716178 C330.28033254 -0.35478063 331.6855571 -0.35913566 333.09070231 -0.37099043 C347.88626736 -0.48806169 347.88626736 -0.48806169 353.29455376 4.13422108 C358.81184612 10.0403111 360.16958765 15.34840183 360.01608086 23.25191212 C360.02120741 24.2314874 360.02633395 25.21106269 360.03161585 26.22032207 C360.04144952 29.48210007 360.00858129 32.7420003 359.9757061 36.00360584 C359.97401262 38.34973068 359.97496568 40.6958587 359.97836113 43.0419817 C359.98008025 49.39689792 359.94484238 55.75113249 359.90291739 62.10589051 C359.86917674 68.07845398 359.86317398 74.05101882 359.85700615 80.02365946 C359.84389571 91.8484833 359.80402438 103.67305786 359.74719048 115.49774647 C359.69206087 126.97983019 359.64961759 138.46184606 359.6241436 149.94403553 C359.62177909 151.00684618 359.62177909 151.00684618 359.61936681 152.09112776 C359.61153621 155.64590058 359.60395405 159.20067389 359.59649539 162.75544751 C359.53436158 192.21519932 359.42829297 221.67470753 359.29455376 251.13422108 C357.49409997 247.7256482 356.7725511 244.75658169 356.10705376 240.94672108 C354.20283878 231.5637758 350.57279118 222.69069593 346.29455376 214.13422108 C346.29455376 168.59422108 346.29455376 123.05422108 346.29455376 76.13422108 C230.13455376 76.13422108 113.97455376 76.13422108 -5.70544624 76.13422108 C-5.70544624 167.21422108 -5.70544624 258.29422108 -5.70544624 352.13422108 C57.884059 351.81768091 57.884059 351.81768091 121.47302055 351.41351795 C133.79223442 351.37738514 133.79223442 351.37738514 139.56562614 351.37067127 C143.58458342 351.36323961 147.6026891 351.33334976 151.62141228 351.28961658 C156.75905198 351.2344537 161.89546606 351.21834362 167.03337443 351.22964287 C168.9117421 351.22728272 170.79015572 351.21158722 172.66826761 351.18050003 C185.17485184 350.98322225 192.16312443 352.72117234 202.29455376 360.13422108 C204.27501418 361.17238123 206.27033196 362.18420734 208.29455376 363.13422108 C208.29455376 363.46422108 208.29455376 363.79422108 208.29455376 364.13422108 C179.28807963 364.22758029 150.28162795 364.29815903 121.27503395 364.34146976 C118.59615631 364.34554927 115.91727882 364.34971454 113.23840141 364.35394764 C112.57254356 364.35499688 111.90668571 364.35604612 111.22065035 364.35712716 C100.433908 364.37454058 89.64725078 364.40608338 78.86055896 364.44283226 C67.79546712 364.4802157 56.73041005 364.50215194 45.66525674 364.51057506 C39.44880776 364.51579873 33.23255196 364.52811181 27.01616478 364.5571413 C21.16887312 364.58422678 15.32185481 364.59267992 9.47450638 364.5866518 C7.32502 364.58775511 5.17552478 364.5957496 3.02609253 364.61104298 C0.09756059 364.63086316 -2.82993118 364.62618922 -5.75848579 364.61523914 C-6.6145159 364.62689051 -7.470546 364.63854187 -8.35251641 364.65054631 C-9.52965852 364.63860002 -9.52965852 364.63860002 -10.73058128 364.62641239 C-11.40648347 364.62793127 -12.08238566 364.62945015 -12.77876973 364.63101506 C-15.70782541 363.87575738 -16.88858051 362.51465079 -18.70544624 360.13422108 C-19.20799357 357.42807031 -19.20799357 357.42807031 -19.21160412 354.26076603 C-19.22265181 353.05248056 -19.23369949 351.84419508 -19.24508196 350.5992949 C-19.23712442 349.25670704 -19.22878673 347.91412138 -19.22010994 346.57153797 C-19.22543351 345.14659904 -19.2324981 343.72166572 -19.241157 342.29674315 C-19.25983748 338.37616082 -19.25346091 334.45595482 -19.24300396 330.53535652 C-19.23602698 326.30888833 -19.25199865 322.08249864 -19.2650013 317.85605335 C-19.28667364 309.57337097 -19.28650583 301.29082581 -19.27837575 293.00812438 C-19.27208137 286.27581805 -19.27320763 279.54355181 -19.27964783 272.81124592 C-19.28054948 271.85382267 -19.28145114 270.89639943 -19.28238012 269.90996335 C-19.28423129 267.96505333 -19.28609385 266.02014331 -19.28796767 264.07523331 C-19.30455817 245.82425068 -19.29581715 227.57334528 -19.2789821 209.32236728 C-19.26429221 192.62492052 -19.2789013 175.92765381 -19.30775226 159.23023024 C-19.33714788 142.09001723 -19.34811753 124.9498873 -19.33857006 107.80965018 C-19.3375475 105.87058657 -19.33655289 103.93152294 -19.33558655 101.9924593 C-19.33511016 101.03838279 -19.33463377 100.08430629 -19.33414294 99.10131837 C-19.33197858 92.37937682 -19.34178435 85.6575139 -19.35635757 78.93558979 C-19.37387721 70.74012424 -19.37376926 62.54488806 -19.35100592 54.34943154 C-19.33985888 50.16812198 -19.33671128 45.98721658 -19.35530663 41.80592442 C-19.37211884 37.97625514 -19.3657511 34.14734227 -19.34108984 30.31772193 C-19.33620836 28.93413155 -19.33971749 27.55048007 -19.35257728 26.16694084 C-19.42078277 18.2565228 -19.15065737 12.20646596 -13.70544624 6.13422108 C-9.2289211 1.76468003 -6.25622147 0.01054479 0 0 Z " fill="#FDFEFE" transform="translate(69.70544624328613,57.86577892303467)"></path><path d="M0 0 C6.76844627 5.85227536 12.10930278 12.31603991 17.140625 19.6953125 C17.69492187 20.49453125 18.24921875 21.29375 18.8203125 22.1171875 C22.02075195 27.05879867 24.29372722 32.21712703 26.390625 37.6953125 C26.76030396 38.6558252 26.76030396 38.6558252 27.13745117 39.63574219 C30.82503472 49.73612658 31.48073276 59.42652321 31.453125 70.1328125 C31.46923828 71.37869141 31.48535156 72.62457031 31.50195312 73.90820312 C31.50739046 84.26633178 29.43909835 92.85173237 25.640625 102.4453125 C25.2384375 103.47140625 24.83625 104.4975 24.421875 105.5546875 C23.03521136 108.95370447 21.59688712 112.32558969 20.140625 115.6953125 C22.46958469 118.05383906 24.8046061 120.40627924 27.140625 122.7578125 C27.78902344 123.41458984 28.43742188 124.07136719 29.10546875 124.74804688 C29.75644531 125.40224609 30.40742188 126.05644531 31.078125 126.73046875 C31.66464844 127.322229 32.25117188 127.91398926 32.85546875 128.52368164 C34.82891715 130.39909013 36.84236579 132.18255133 38.90112305 133.96240234 C43.1030819 137.61900834 47.08488089 141.46145807 51.03515625 145.38671875 C51.74919113 146.09505356 52.46322601 146.80338837 53.19889832 147.53318787 C54.69346425 149.01838137 56.18663912 150.50497595 57.6784668 151.99291992 C59.95761947 154.26228768 62.24722545 156.52076445 64.53710938 158.77929688 C65.9954483 160.23111155 67.45315306 161.68356358 68.91015625 163.13671875 C69.59141068 163.80562637 70.2726651 164.474534 70.9745636 165.16371155 C75.6850532 169.89647632 79.54672401 174.4496889 79.640625 181.4453125 C79.3812651 188.94419644 75.94607268 195.04159964 70.953125 200.5078125 C64.7664415 206.15885241 58.14953681 209.21418946 49.7578125 209.359375 C42.04371795 207.40206743 36.35602947 201.33389212 30.94921875 195.83203125 C30.20027847 195.0812178 29.4513382 194.33040436 28.67970276 193.55683899 C27.1056068 191.97605579 25.53509484 190.39169639 23.96801758 188.80395508 C21.588596 186.39342042 19.19871504 183.993676 16.80664062 181.59570312 C15.27021007 180.05009848 13.73438265 178.503894 12.19921875 176.95703125 C11.49486191 176.24842453 10.79050507 175.53981781 10.06480408 174.80973816 C6.12469409 170.81349513 2.34394492 166.72641702 -1.30969238 162.46614075 C-3.68430428 159.75266266 -6.22533156 157.22061796 -8.796875 154.6953125 C-9.53647461 153.96248047 -9.53647461 153.96248047 -10.29101562 153.21484375 C-11.47810729 152.03927725 -12.66837998 150.86692424 -13.859375 149.6953125 C-14.97054687 150.16582031 -16.08171875 150.63632812 -17.2265625 151.12109375 C-41.0688737 161.1342745 -67.12087154 165.94668389 -91.93798828 155.84960938 C-101.40695647 151.90193598 -109.91834692 147.26072942 -117.859375 140.6953125 C-119.13361328 139.66470703 -119.13361328 139.66470703 -120.43359375 138.61328125 C-137.32882902 124.25362493 -149.03183822 101.83135177 -150.859375 79.6953125 C-152.14835024 52.34486922 -146.10127203 28.96339054 -127.5546875 8.23730469 C-93.83229049 -28.79541237 -38.52470765 -31.0513354 0 0 Z " fill="#2F907B" transform="translate(381.859375,252.3046875)"></path><path d="M0 0 C1.19968538 -0.01043099 2.39937076 -0.02086198 3.63541025 -0.03160906 C4.95494355 -0.02268617 6.27447685 -0.01376328 7.63399601 -0.00457001 C9.04869783 -0.00917766 10.46339487 -0.01552966 11.87808186 -0.02347898 C15.77026101 -0.04021463 19.66204909 -0.03190694 23.55422986 -0.01953411 C27.74995902 -0.01050307 31.9456198 -0.0244437 36.14133549 -0.0354538 C44.36285978 -0.05326494 52.58423823 -0.04938738 60.8057683 -0.03780323 C67.48661168 -0.02877875 74.16741411 -0.02754064 80.84826183 -0.0318985 C81.79822516 -0.03251143 82.7481885 -0.03312436 83.72693859 -0.03375587 C85.65663481 -0.03503474 87.58633102 -0.03633159 89.51602722 -0.03764623 C107.62242448 -0.04905979 125.72874081 -0.03592649 143.8351248 -0.01444477 C159.37750251 0.00342403 174.91976072 0.0003254 190.46213627 -0.01811981 C208.501095 -0.0395178 226.53998273 -0.04795804 244.57895237 -0.03567076 C246.50195379 -0.03439653 248.42495522 -0.03313905 250.34795666 -0.0318985 C251.29416297 -0.0312814 252.24036928 -0.03066429 253.21524851 -0.03002849 C259.88899176 -0.02657216 266.56269006 -0.03241009 273.23642635 -0.04181671 C281.36827545 -0.05302631 289.49997006 -0.05001871 297.63180142 -0.02869374 C301.78230627 -0.01816881 305.93255341 -0.01408584 310.08305645 -0.02729034 C313.88102386 -0.03919066 317.67849418 -0.03269125 321.47641636 -0.01138014 C323.50457157 -0.00477986 325.53276117 -0.01787138 327.5608806 -0.03160906 C328.76317373 -0.02117807 329.96546686 -0.01074708 331.20419312 0 C332.24207881 0.00064941 333.2799645 0.00129882 334.34930128 0.00196791 C337.16501713 0.50336456 337.16501713 0.50336456 342.16501713 4.50336456 C342.16501713 20.34336456 342.16501713 36.18336456 342.16501713 52.50336456 C226.00501713 52.50336456 109.84501713 52.50336456 -9.83498287 52.50336456 C-9.83498287 0.00615475 -9.83498287 0.00615475 0 0 Z " fill="#3E9F8A" transform="translate(73.83498287200928,69.49663543701172)"></path><path d="M0 0 C6.76844627 5.85227536 12.10930278 12.31603991 17.140625 19.6953125 C17.69492187 20.49453125 18.24921875 21.29375 18.8203125 22.1171875 C22.02075195 27.05879867 24.29372722 32.21712703 26.390625 37.6953125 C26.76030396 38.6558252 26.76030396 38.6558252 27.13745117 39.63574219 C30.82503472 49.73612658 31.48073276 59.42652321 31.453125 70.1328125 C31.46923828 71.37869141 31.48535156 72.62457031 31.50195312 73.90820312 C31.50739046 84.26633178 29.43909835 92.85173237 25.640625 102.4453125 C25.2384375 103.47140625 24.83625 104.4975 24.421875 105.5546875 C23.03521136 108.95370447 21.59688712 112.32558969 20.140625 115.6953125 C22.46958469 118.05383906 24.8046061 120.40627924 27.140625 122.7578125 C27.78902344 123.41458984 28.43742188 124.07136719 29.10546875 124.74804688 C29.75644531 125.40224609 30.40742188 126.05644531 31.078125 126.73046875 C31.66464844 127.322229 32.25117188 127.91398926 32.85546875 128.52368164 C34.82891715 130.39909013 36.84236579 132.18255133 38.90112305 133.96240234 C43.1030819 137.61900834 47.08488089 141.46145807 51.03515625 145.38671875 C51.74919113 146.09505356 52.46322601 146.80338837 53.19889832 147.53318787 C54.69346425 149.01838137 56.18663912 150.50497595 57.6784668 151.99291992 C59.95761947 154.26228768 62.24722545 156.52076445 64.53710938 158.77929688 C65.9954483 160.23111155 67.45315306 161.68356358 68.91015625 163.13671875 C69.59141068 163.80562637 70.2726651 164.474534 70.9745636 165.16371155 C75.6850532 169.89647632 79.54672401 174.4496889 79.640625 181.4453125 C79.3812651 188.94419644 75.94607268 195.04159964 70.953125 200.5078125 C64.7664415 206.15885241 58.14953681 209.21418946 49.7578125 209.359375 C42.04371795 207.40206743 36.35602947 201.33389212 30.94921875 195.83203125 C30.20027847 195.0812178 29.4513382 194.33040436 28.67970276 193.55683899 C27.1056068 191.97605579 25.53509484 190.39169639 23.96801758 188.80395508 C21.588596 186.39342042 19.19871504 183.993676 16.80664062 181.59570312 C15.27021007 180.05009848 13.73438265 178.503894 12.19921875 176.95703125 C11.49486191 176.24842453 10.79050507 175.53981781 10.06480408 174.80973816 C6.12469409 170.81349513 2.34394492 166.72641702 -1.30969238 162.46614075 C-3.68430428 159.75266266 -6.22533156 157.22061796 -8.796875 154.6953125 C-9.53647461 153.96248047 -9.53647461 153.96248047 -10.29101562 153.21484375 C-11.47810729 152.03927725 -12.66837998 150.86692424 -13.859375 149.6953125 C-14.97054687 150.16582031 -16.08171875 150.63632812 -17.2265625 151.12109375 C-41.0688737 161.1342745 -67.12087154 165.94668389 -91.93798828 155.84960938 C-101.40695647 151.90193598 -109.91834692 147.26072942 -117.859375 140.6953125 C-119.13361328 139.66470703 -119.13361328 139.66470703 -120.43359375 138.61328125 C-137.32882902 124.25362493 -149.03183822 101.83135177 -150.859375 79.6953125 C-152.14835024 52.34486922 -146.10127203 28.96339054 -127.5546875 8.23730469 C-93.83229049 -28.79541237 -38.52470765 -31.0513354 0 0 Z M-89.859375 -3.3046875 C-90.49520508 -3.02592773 -91.13103516 -2.74716797 -91.78613281 -2.45996094 C-101.70564567 2.01199119 -109.28658043 7.95448255 -116.859375 15.6953125 C-117.94992187 16.73751953 -117.94992187 16.73751953 -119.0625 17.80078125 C-133.51126942 32.5055328 -138.4979022 52.02805111 -138.33056641 72.01049805 C-137.82345335 90.58452 -132.03131296 106.49471821 -119.859375 120.6953125 C-119.41335938 121.28441406 -118.96734375 121.87351562 -118.5078125 122.48046875 C-107.01685951 137.23055169 -87.10004911 146.35582724 -68.859375 148.6953125 C-47.13769765 150.81311695 -26.02734389 144.04909579 -9.0078125 130.41015625 C5.04152457 118.19923105 15.37183668 101.26624988 18.140625 82.6953125 C19.75762469 57.56427181 16.46784949 38.45199967 0.140625 18.6953125 C-0.45878906 17.89609375 -1.05820312 17.096875 -1.67578125 16.2734375 C-12.89903335 3.02237062 -31.61827126 -6.63242128 -48.859375 -8.3046875 C-63.27726587 -9.16875066 -76.49951311 -9.19451909 -89.859375 -3.3046875 Z " fill="#FAFCFC" transform="translate(381.859375,252.3046875)"></path><path d="M0 0 C2.75 2.4375 2.75 2.4375 5 5 C6.2684375 6.3921875 6.2684375 6.3921875 7.5625 7.8125 C15.32888213 17.31288569 16.93987136 28.02266492 16 40 C13.90779468 51.04366608 8.03822245 60.39262617 -1.0625 67 C-11.61925157 73.74728158 -23.48600236 76.01306958 -35.8984375 73.38671875 C-45.56359993 70.24346392 -54.49792838 64.39450531 -59.71875 55.53125 C-65.15882125 44.78379217 -68.09793398 35.03635251 -65.30078125 22.98828125 C-61.44242213 11.31552391 -53.91777228 1.51885715 -43 -4.375 C-28.41519451 -10.87631369 -13.10841339 -8.78237637 0 0 Z " fill="#2E907B" transform="translate(347,289)"></path><path d="M0 0 C0.98613281 -0.01611328 1.97226562 -0.03222656 2.98828125 -0.04882812 C17.1393913 -0.05815033 29.41109495 5.42137362 39.6875 15.12890625 C50.55473394 26.63417854 55.32339813 40.59678787 55.03125 56.2578125 C54.29296674 71.71008122 46.85336334 84.97051015 35.75 95.3125 C23.25729137 105.17516471 8.4324847 108.50876059 -7.25 107.3125 C-22.87939488 103.96458301 -35.3670379 96.47274747 -44.4921875 83.19140625 C-52.65708001 69.81912674 -54.65274741 54.56883435 -51.8515625 39.11425781 C-49.88445822 31.80192595 -45.8105846 25.28441641 -41.25 19.3125 C-40.63640625 18.48878906 -40.0228125 17.66507812 -39.390625 16.81640625 C-33.60611191 10.05021484 -25.55526126 5.33531581 -17.25 2.3125 C-16.40566406 1.95542969 -15.56132812 1.59835937 -14.69140625 1.23046875 C-9.78016146 -0.07956817 -5.06100359 -0.0162838 0 0 Z M-30.58203125 26.05078125 C-38.33288459 36.56072056 -41.44688161 47.3196852 -40.25 60.3125 C-36.70329893 73.37854675 -29.7798078 83.1186883 -18.25 90.3125 C-8.55440514 95.22836323 2.07867564 95.81823281 12.56640625 93.06640625 C25.00539128 88.77172984 32.59926128 81.88288188 38.75 70.3125 C43.11526122 60.81073 43.40343795 49.25146579 40.125 39.375 C35.2816125 27.85697955 26.35156978 19.62905419 15.0625 14.5625 C-0.93098697 8.5272219 -18.97882576 13.78611037 -30.58203125 26.05078125 Z " fill="#FAFCFC" transform="translate(321.25,268.6875)"></path><path d="M0 0 C99 0 198 0 300 0 C300 3.96 300 7.92 300 12 C201 12 102 12 0 12 C0 8.04 0 4.08 0 0 Z " fill="#FFFFFF" transform="translate(90,205)"></path><path d="M0 0 C52.47 0 104.94 0 159 0 C159 3.96 159 7.92 159 12 C106.53 12 54.06 12 0 12 C0 8.04 0 4.08 0 0 Z " fill="#FFFFFF" transform="translate(231,90)"></path><path d="M0 0 C48.84 0 97.68 0 148 0 C147.34 1.32 146.68 2.64 146 4 C145.48913377 5.15011015 145.48913377 5.15011015 144.96794701 6.32345486 C143.54704247 9.01530955 142.24493219 10.93029073 140 13 C135.49954182 14.31756975 131.12733383 14.13884209 126.46728516 14.02172852 C125.08710904 14.01918774 123.70692077 14.020619 122.32675171 14.02571106 C118.59061586 14.02828819 114.85709304 13.97547283 111.12156343 13.91254544 C107.21393964 13.85618992 103.30625238 13.85098975 99.39828491 13.84031677 C92.00305437 13.81237012 84.60902472 13.73855392 77.21432245 13.64817137 C68.79371554 13.54748922 60.37305053 13.49806961 51.95199132 13.45291245 C34.63394721 13.35889967 17.31714659 13.19883403 0 13 C0 8.71 0 4.42 0 0 Z " fill="#FBFDFC" transform="translate(90,256)"></path><path d="M0 0 C3.13879381 1.3875818 5.22254795 2.99523408 7.609375 5.44921875 C8.28226562 6.13306641 8.95515625 6.81691406 9.6484375 7.52148438 C10.68871094 8.59366211 10.68871094 8.59366211 11.75 9.6875 C17.52378842 15.61226193 17.52378842 15.61226193 23.640625 21.17578125 C29.36354079 26.10712536 34.75508573 31.38378684 40.13916016 36.67919922 C41.3870578 37.90024627 42.64206309 39.11406854 43.90380859 40.32080078 C45.74463037 42.08264183 47.56152991 43.86632002 49.375 45.65625 C49.94049561 46.18875366 50.50599121 46.72125732 51.08862305 47.26989746 C53.93312433 50.12931357 54.96403945 51.69255332 55.43847656 55.7487793 C54.949676 59.37314295 54.24369243 60.69831403 51.75 63.3125 C51.14671875 63.96863281 50.5434375 64.62476563 49.921875 65.30078125 C47.1001156 67.7956295 45.03679142 68.8248008 41.3112793 69.4543457 C36.38619758 68.7785677 34.22778825 65.99796636 30.87890625 62.5 C30.21592026 61.830896 29.55293427 61.16179199 28.86985779 60.47241211 C26.75296898 58.32860743 24.65804552 56.16465061 22.5625 54 C21.15693552 52.57290112 19.75004729 51.14710473 18.34179688 49.72265625 C12.57586134 43.86386326 6.92236318 37.96996307 1.53791809 31.75634766 C-0.15841493 29.81908549 -1.91670403 27.96821696 -3.74609375 26.15625 C-4.35517578 25.55039062 -4.96425781 24.94453125 -5.59179688 24.3203125 C-6.20087891 23.71960938 -6.80996094 23.11890625 -7.4375 22.5 C-8.07365234 21.86835938 -8.70980469 21.23671875 -9.36523438 20.5859375 C-10.90782806 19.05494226 -12.45357314 17.52712333 -14 16 C-12.45302041 12.70298379 -10.95836343 10.87730446 -8.125 8.5625 C-5.01224305 5.93646504 -2.40799436 3.31099224 0 0 Z " fill="#2F917B" transform="translate(393,379)"></path><path d="M0 0 C41.58 0 83.16 0 126 0 C125.67 4.29 125.34 8.58 125 13 C83.75 13 42.5 13 0 13 C0 8.71 0 4.42 0 0 Z " fill="#FBFCFC" transform="translate(90,307)"></path><path d="M0 0 C6.27 0 12.54 0 19 0 C19 3.96 19 7.92 19 12 C12.73 12 6.46 12 0 12 C0 8.04 0 4.08 0 0 Z " fill="#FFFFFF" transform="translate(128,90)"></path><path d="M0 0 C6.27 0 12.54 0 19 0 C19 3.96 19 7.92 19 12 C12.73 12 6.46 12 0 12 C0 8.04 0 4.08 0 0 Z " fill="#FCFDFD" transform="translate(90,90)"></path><path d="M0 0 C5.94 0 11.88 0 18 0 C18 3.96 18 7.92 18 12 C12.06 12 6.12 12 0 12 C0 8.04 0 4.08 0 0 Z " fill="#FFFFFF" transform="translate(167,90)"></path></svg>