<svg version="1.1" xmlns="http://www.w3.org/2000/svg" width="16px" height="16px" fill="currentColor" viewBox="0 0 512 512"><path d="M0 0 C168.96 0 337.92 0 512 0 C512 168.96 512 337.92 512 512 C343.04 512 174.08 512 0 512 C0 343.04 0 174.08 0 0 Z " fill="#DE2D34" transform="translate(0,0)"></path><path d="M0 0 C0.33 4.29 0.66 8.58 1 13 C-5.61122725 16.38878069 -12.23375621 19.43908223 -19.1328125 22.1875 C-20.07583221 22.56719437 -21.01885193 22.94688873 -21.990448 23.33808899 C-25.03378129 24.5625416 -28.07936901 25.78127531 -31.125 27 C-33.23716106 27.84874996 -35.34913884 28.69795616 -37.4609375 29.54760742 C-41.67291437 31.24202866 -45.8855556 32.93478162 -50.09863281 34.62646484 C-58.07527083 37.83176347 -66.03858673 41.06961222 -74 44.3125 C-78.66504357 46.21236416 -83.33189075 48.10768294 -88 50 C-88.66789551 50.27261658 -89.33579102 50.54523315 -90.02392578 50.82611084 C-92.09799325 51.67244439 -94.17383215 52.51430302 -96.25 53.35546875 C-96.89477295 53.61975174 -97.5395459 53.88403473 -98.20385742 54.15632629 C-102.77258206 56 -102.77258206 56 -105 56 C-105 56.66 -105 57.32 -105 58 C-104.12722412 58.27529541 -103.25444824 58.55059082 -102.35522461 58.83422852 C-99.20655709 59.92823182 -96.31090184 61.19444727 -93.31640625 62.65234375 C-91.69629639 63.43726196 -91.69629639 63.43726196 -90.04345703 64.23803711 C-88.89474121 64.79885986 -87.74602539 65.35968262 -86.5625 65.9375 C-85.34769628 66.52719204 -84.13268664 67.11646002 -82.91748047 67.70532227 C-81.06243768 68.60430666 -79.20752757 69.50355344 -77.35327148 70.40415955 C-71.78886255 73.10659135 -66.20878296 75.77540021 -60.625 78.4375 C-51.27904016 82.89973366 -41.95107163 87.39874986 -32.62652588 91.90548706 C-23.6800028 96.22909916 -14.72303335 100.53019268 -5.75537109 104.80981445 C0.86155264 107.97028292 7.46702387 111.15404988 14.06811523 114.34741211 C16.58191582 115.56325853 19.09704213 116.77628825 21.61352539 117.98657227 C26.89508724 120.52751882 32.17118223 123.07516391 37.41015625 125.703125 C38.58118896 126.28090698 38.58118896 126.28090698 39.77587891 126.87036133 C41.15821142 127.55278457 42.53488475 128.2468732 43.90380859 128.95581055 C48.13277059 131.02012322 50.4785428 131.09158476 55 130 C57.54012055 128.92069039 59.97254349 127.80446242 62.43359375 126.5703125 C63.13907852 126.22447113 63.84456329 125.87862976 64.57142639 125.52230835 C66.86363874 124.39687246 69.1504588 123.26090189 71.4375 122.125 C73.0360275 121.33831665 74.63498957 120.55251576 76.234375 119.76757812 C79.39956599 118.21386893 82.56329936 116.65725373 85.72607422 115.09863281 C90.96329797 112.52194001 96.22726784 110.00310139 101.5 107.5 C111.19196348 102.88512119 120.84706168 98.1957584 130.5 93.5 C142.14232158 87.83699019 153.79724804 82.20294292 165.484375 76.6328125 C169.54088869 74.69923723 173.5919112 72.75454248 177.640625 70.8046875 C178.7632373 70.26432861 179.88584961 69.72396973 181.04248047 69.16723633 C183.19304698 68.13165584 185.34314693 67.09510565 187.49267578 66.05737305 C204.23537643 58 204.23537643 58 207 58 C207 57.34 207 56.68 207 56 C206.3201001 55.89163818 205.6402002 55.78327637 204.93969727 55.67163086 C201.45575248 54.8756561 198.2568486 53.6129757 194.96484375 52.25390625 C194.2702002 51.9712793 193.57555664 51.68865234 192.85986328 51.39746094 C190.55066852 50.45667789 188.24411467 49.50958936 185.9375 48.5625 C184.30492756 47.89601418 182.67219291 47.22992555 181.03930664 46.56420898 C176.62324839 44.76240114 172.20951612 42.95496392 167.79638672 41.14599609 C162.04959879 38.79088674 156.30109644 36.43996345 150.5528717 34.08836365 C145.87748124 32.17547948 141.20258441 30.26141565 136.52905273 28.34399414 C124.71135641 23.49847892 112.86636885 18.72505194 101 14 C101.33 9.38 101.66 4.76 102 0 C107.8067138 1.88444833 113.47495021 3.92018513 119.109375 6.265625 C119.86112 6.57550354 120.61286499 6.88538208 121.38739014 7.20465088 C123.00138508 7.8702562 124.61483615 8.53718163 126.2277832 9.20532227 C130.59198282 11.01293142 134.96033845 12.81045465 139.328125 14.609375 C140.22233154 14.97796631 141.11653809 15.34655762 142.0378418 15.72631836 C150.09434254 19.04498731 158.16718915 22.32241406 166.24526978 25.58813477 C170.77995528 27.42206683 175.31262014 29.26098753 179.84550476 31.09936523 C184.01105913 32.78865763 188.17721421 34.4764452 192.34423828 36.16210938 C196.87712495 37.99643554 201.40736918 39.83716448 205.93603516 41.68188477 C207.67297407 42.38825284 209.41075573 43.0925525 211.14941406 43.79467773 C213.5615072 44.76911653 215.97050333 45.75085764 218.37890625 46.734375 C219.45121239 47.16462982 219.45121239 47.16462982 220.54518127 47.60357666 C224.03249783 49.03674151 227.24669335 50.38027347 230 53 C230.5 55.9375 230.5 55.9375 230 59 C226.87429942 62.91043426 222.84552521 64.80478324 218.41015625 66.8984375 C217.29960121 67.4346019 217.29960121 67.4346019 216.16661072 67.9815979 C213.8022643 69.12060707 211.43250833 70.24782742 209.0625 71.375 C207.50419883 72.12425493 205.94625254 72.87424841 204.38867188 73.625 C199.93414978 75.76781248 195.46907993 77.88774894 191 80 C190.33184265 80.31698853 189.6636853 80.63397705 188.97528076 80.96057129 C187.1510123 81.82457414 185.32364615 82.68202774 183.49609375 83.5390625 C182.47572021 84.01811035 181.45534668 84.4971582 180.40405273 84.99072266 C178 86 178 86 176 86 C176 86.66 176 87.32 176 88 C176.60771744 88.1712439 177.21543488 88.34248779 177.84156799 88.5189209 C184.00693575 90.30527857 189.91423728 92.44640129 195.83984375 94.90625 C196.7286171 95.2722229 197.61739044 95.6381958 198.53309631 96.01525879 C200.39198663 96.78259421 202.24984344 97.55243783 204.10668945 98.32470703 C206.95090701 99.50556631 209.80038599 100.67303214 212.65039062 101.83984375 C214.46387407 102.59034313 216.27703699 103.34161759 218.08984375 104.09375 C218.9398143 104.44070923 219.78978485 104.78766846 220.66551208 105.1451416 C221.45385941 105.47558472 222.24220673 105.80602783 223.05444336 106.14648438 C223.74598007 106.4327771 224.43751678 106.71906982 225.15000916 107.01403809 C227.20911274 108.11144769 228.52207695 109.19639004 230 111 C230.5 113.9375 230.5 113.9375 230 117 C226.22961856 120.58096466 221.95341389 122.69158292 217.3125 124.8984375 C216.20406738 125.4346019 216.20406738 125.4346019 215.07324219 125.9815979 C212.71833497 127.11873922 210.35923091 128.24686131 208 129.375 C206.44634319 130.12443763 204.89295526 130.87443296 203.33984375 131.625 C194.6006339 135.83988566 185.82653438 139.97074944 177 144 C179.81077734 146.81077734 183.23187858 147.85833764 186.8671875 149.30078125 C187.65715118 149.61903366 188.44711487 149.93728607 189.26101685 150.2651825 C191.79710679 151.28577287 194.33593753 152.2993303 196.875 153.3125 C198.54706989 153.98323834 200.21894712 154.65445714 201.890625 155.32617188 C202.70638 155.65382538 203.52213501 155.98147888 204.36260986 156.31906128 C205.98325951 156.97056559 207.60366403 157.62268 209.22381592 158.27542114 C212.74464328 159.69388036 216.26672175 161.10704044 219.80175781 162.48974609 C220.88038086 162.91980957 221.95900391 163.34987305 223.0703125 163.79296875 C223.98828613 164.15285889 224.90625977 164.51274902 225.85205078 164.88354492 C228 166 228 166 230 169 C230.109375 172.40234375 230.109375 172.40234375 229 176 C226.70401497 178.08921864 224.05042027 179.26474427 221.25 180.5625 C220.41871582 180.97322754 219.58743164 181.38395508 218.73095703 181.80712891 C215.83248286 183.23049143 212.91652585 184.61403251 210 186 C207.72029995 187.10851165 205.4417008 188.2192895 203.1640625 189.33203125 C196.3857027 192.63639203 189.58578326 195.89487855 182.78234863 199.1472168 C180.00698918 200.47511633 177.23397061 201.80787565 174.4609375 203.140625 C166.32573122 207.05014586 158.18709307 210.95248891 150.046875 214.8515625 C138.14087464 220.5571251 126.25209149 226.2970759 114.375 232.0625 C103.04503019 237.56203671 91.70771746 243.04465436 80.33203125 248.44921875 C76.58407111 250.23267341 72.85663459 252.05332352 69.13671875 253.89453125 C68.17991211 254.3632666 67.22310547 254.83200195 66.23730469 255.31494141 C64.42728839 256.20227238 62.62159391 257.09849861 60.82128906 258.00537109 C59.60844238 258.59632568 59.60844238 258.59632568 58.37109375 259.19921875 C57.66911865 259.54815186 56.96714355 259.89708496 56.24389648 260.2565918 C50.50620618 262.15750214 46.53358509 260.61622704 41.35154724 258.07913208 C40.09665245 257.44248123 40.09665245 257.44248123 38.81640625 256.79296875 C37.93271866 256.35661102 37.04903107 255.9202533 36.13856506 255.47067261 C33.27442996 254.05363801 30.41863655 252.62057726 27.5625 251.1875 C25.58902192 250.20825709 23.61489841 249.23031387 21.64013672 248.25366211 C17.78638999 246.34697013 13.93500434 244.43564721 10.08544922 242.52050781 C4.29238178 239.64317491 -1.52995297 236.83284574 -7.375 234.0625 C-9.104323 233.23991191 -10.83348973 232.41699522 -12.5625 231.59375 C-13.42359375 231.18382812 -14.2846875 230.77390625 -15.171875 230.3515625 C-20.91507001 227.60688643 -26.64403166 224.83258914 -32.375 222.0625 C-41.41068185 217.69580976 -50.4508293 213.33869322 -59.5 209 C-66.04528401 205.86164175 -72.5882989 202.7187014 -79.125 199.5625 C-80.03320747 199.12403496 -80.03320747 199.12403496 -80.95976257 198.67671204 C-84.02197125 197.19795434 -87.08343485 195.71767918 -90.14379883 194.23510742 C-96.18931411 191.30844145 -102.24482206 188.40646532 -108.32421875 185.55078125 C-109.48050781 185.00486328 -110.63679688 184.45894531 -111.828125 183.89648438 C-114.018883 182.86351651 -116.21276859 181.8371482 -118.41015625 180.81835938 C-119.38210937 180.35880859 -120.3540625 179.89925781 -121.35546875 179.42578125 C-122.20778076 179.02786377 -123.06009277 178.62994629 -123.93823242 178.2199707 C-126 177 -126 177 -128 174 C-128.125 170.5625 -128.125 170.5625 -127 167 C-121.13126187 163.65002641 -114.84973332 161.2056481 -108.59375 158.671875 C-107.6284436 158.27800598 -106.66313721 157.88413696 -105.6685791 157.47833252 C-102.61357988 156.23260048 -99.55682894 154.99123445 -96.5 153.75 C-94.41654896 152.90133058 -92.33321442 152.0523751 -90.25 151.203125 C-85.16800913 149.13210686 -80.08457651 147.06466135 -75 145 C-78.23919937 142.49993041 -81.43836842 140.69660968 -85.13671875 138.92578125 C-85.72944077 138.64065674 -86.32216278 138.35553223 -86.93284607 138.06176758 C-88.84914139 137.14127296 -90.76831912 136.22696067 -92.6875 135.3125 C-94.0032827 134.68097892 -95.31887464 134.04906023 -96.63427734 133.41674805 C-102.27001942 130.71180646 -107.91439929 128.02715392 -113.58984375 125.40625 C-114.37335205 125.04362061 -115.15686035 124.68099121 -115.96411133 124.30737305 C-117.3607365 123.66436688 -118.76015427 123.02737683 -120.1628418 122.39770508 C-125.95763683 119.73763574 -125.95763683 119.73763574 -128 117 C-128.5 114.0625 -128.5 114.0625 -128 111 C-123.6587467 106.55461125 -117.96316733 104.69853274 -112.30078125 102.453125 C-111.26938522 102.03705994 -110.2379892 101.62099487 -109.17533875 101.19232178 C-107.00253581 100.3177259 -104.82808134 99.44722323 -102.65209961 98.58056641 C-99.3104836 97.24919662 -95.97425409 95.90499976 -92.63867188 94.55859375 C-90.52634398 93.71018442 -88.41372371 92.86250261 -86.30078125 92.015625 C-85.29872147 91.61257141 -84.29666168 91.20951782 -83.26423645 90.79425049 C-82.33955063 90.42676697 -81.41486481 90.05928345 -80.4621582 89.68066406 C-79.23901665 89.19246185 -79.23901665 89.19246185 -77.99116516 88.69439697 C-76 88 -76 88 -74 88 C-74 87.34 -74 86.68 -74 86 C-74.83917969 85.74114014 -75.67835938 85.48228027 -76.54296875 85.21557617 C-80.26978112 83.9051384 -83.77312908 82.28886912 -87.3125 80.55078125 C-88.00327637 80.21507614 -88.69405273 79.87937103 -89.40576172 79.53349304 C-91.60554061 78.46327721 -93.80275106 77.38789876 -96 76.3125 C-98.16136928 75.26045241 -100.32320521 74.20936867 -102.48510742 73.15841675 C-103.9079085 72.46351275 -105.32866778 71.76441203 -106.74731445 71.06106567 C-110.18658898 69.35634231 -113.6319975 67.70564036 -117.1484375 66.16552734 C-118.12369385 65.72251534 -118.12369385 65.72251534 -119.11865234 65.27055359 C-120.88386128 64.47060023 -122.66035836 63.69568928 -124.4375 62.92260742 C-127 61 -127 61 -128.125 57.53637695 C-128 54 -128 54 -126.62353516 51.80932617 C-122.96713163 49.2876803 -119.13634396 47.69643962 -115.0234375 46.05078125 C-114.12237274 45.68097137 -113.22130798 45.3111615 -112.29293823 44.93014526 C-109.32414417 43.71457679 -106.34970969 42.51351076 -103.375 41.3125 C-101.29490175 40.46414452 -99.21515341 39.61493063 -97.13574219 38.76489258 C-91.79423299 36.58452598 -86.44779233 34.41657279 -81.09924316 32.25354004 C-78.15374467 31.06218457 -75.20902866 29.86892083 -72.26464844 28.67480469 C-65.20570232 25.81236392 -58.14627013 22.9511759 -51.08154297 20.10302734 C-42.67071251 16.71103119 -34.26978784 13.29771354 -25.890625 9.828125 C-25.0887677 9.49633743 -24.2869104 9.16454987 -23.46075439 8.82270813 C-19.68034837 7.2575909 -15.90183244 5.68812266 -12.12597656 4.11206055 C-10.8027741 3.56289255 -9.47953423 3.0138147 -8.15625 2.46484375 C-7.00962891 1.986521 -5.86300781 1.50819824 -4.68164062 1.01538086 C-2 0 -2 0 0 0 Z " fill="#FEFAFB" transform="translate(205,174)"></path><path d="M0 0 C0.83136475 0.3808374 1.66272949 0.7616748 2.51928711 1.15405273 C3.76077515 1.78742554 3.76077515 1.78742554 5.02734375 2.43359375 C5.972146 2.91183594 6.91694824 3.39007813 7.89038086 3.8828125 C8.89593018 4.39585937 9.90147949 4.90890625 10.9375 5.4375 C19.06525713 9.54311486 27.21534963 13.5866311 35.4375 17.5 C36.84938599 18.17204468 36.84938599 18.17204468 38.28979492 18.85766602 C40.21433772 19.77300332 42.13906218 20.68795877 44.06396484 21.60253906 C48.09319125 23.52032485 52.11674739 25.4498059 56.13916016 27.38183594 C58.20678965 28.37427213 60.2754705 29.36452102 62.34521484 30.35253906 C67.39981344 32.76923704 72.43991173 35.20927066 77.4480896 37.72061157 C79.88969889 38.9433668 82.33701658 40.15444857 84.78479004 41.36480713 C86.51809665 42.2278898 88.24307367 43.10763718 89.96777344 43.98779297 C91.03157227 44.51260254 92.09537109 45.03741211 93.19140625 45.578125 C94.58661499 46.28050293 94.58661499 46.28050293 96.01000977 46.99707031 C103.160124 49.39542659 107.95490252 47.97814112 114.48231506 44.7754364 C115.39694016 44.30684708 116.31156525 43.83825775 117.25390625 43.35546875 C118.23125229 42.87104813 119.20859833 42.3866275 120.21556091 41.88752747 C123.33883883 40.33562465 126.45074461 38.76235919 129.5625 37.1875 C131.59495524 36.17102925 133.62815327 35.15604231 135.66210938 34.14257812 C138.71698631 32.62028585 141.77119341 31.09680041 144.82226562 29.56689453 C152.77642002 25.58349247 160.79026969 21.73685992 168.82719421 17.92384338 C174.6527496 15.15053394 180.41726943 12.28320055 186.1484375 9.3203125 C188.21119735 8.26795609 190.27523095 7.21814949 192.33984375 6.16943359 C193.72666983 5.4577203 195.10835666 4.73592392 196.48535156 4.00537109 C198.54734258 2.91538 200.62575609 1.86509727 202.7109375 0.8203125 C203.3141684 0.48935577 203.91739929 0.15839905 204.53890991 -0.18258667 C208.23801191 -1.98269124 210.60946305 -2.1222175 214.40356445 -0.89526367 C215.94442503 -0.28507406 217.47679109 0.34699365 219 1 C220.45114472 1.56305031 221.90272113 2.12498935 223.35473633 2.68579102 C224.84835284 3.28890334 226.34075158 3.89503869 227.83203125 4.50390625 C228.63106369 4.82785873 229.43009613 5.15181122 230.25334167 5.48558044 C231.92521386 6.16410329 233.59654004 6.84397291 235.26733398 7.52514648 C237.82203777 8.56638738 240.37864432 9.60284371 242.93554688 10.63867188 C244.56782188 11.30180392 246.19998728 11.96520582 247.83203125 12.62890625 C248.97270805 13.09146568 248.97270805 13.09146568 250.13642883 13.56336975 C253.48857702 14.93207917 256.79675777 16.30255989 260 18 C256.48378167 20.34414555 252.77841223 22.12702029 248.984375 23.96484375 C248.18540802 24.35388885 247.38644104 24.74293396 246.56326294 25.14376831 C243.9599247 26.41058632 241.35501828 27.6741408 238.75 28.9375 C236.95193642 29.81134072 235.15392227 30.68528314 233.35595703 31.55932617 C222.44890182 36.8581043 211.52543962 42.12082272 200.578125 47.3359375 C193.91540882 50.51223602 187.27054507 53.72548655 180.625 56.9375 C166.69390335 63.67062127 166.69390335 63.67062127 159.828125 66.9609375 C158.84303955 67.43321777 157.8579541 67.90549805 156.84301758 68.39208984 C154.86744792 69.3375422 152.89072333 70.28058509 150.9128418 71.22119141 C145.34808185 73.87646655 139.81729597 76.58446197 134.31433105 79.3651886 C131.14640243 80.96363666 127.97104517 82.54702702 124.79522705 84.12973022 C123.2366876 84.91158212 121.68169961 85.70055832 120.1305542 86.49697876 C117.94858541 87.61655899 115.75542953 88.71072971 113.55859375 89.80078125 C112.91370499 90.13968384 112.26881622 90.47858643 111.60438538 90.82775879 C106.48657567 93.32034882 103.39912652 93.18509904 98 92 C95.25366211 90.95947266 95.25366211 90.95947266 92.77734375 89.6640625 C91.37029175 88.94210693 91.37029175 88.94210693 89.93481445 88.20556641 C88.94570068 87.68397949 87.95658691 87.16239258 86.9375 86.625 C84.78476234 85.51906376 82.63109374 84.41493801 80.4765625 83.3125 C79.39149414 82.75433594 78.30642578 82.19617188 77.18847656 81.62109375 C72.43602983 79.20484212 67.62986812 76.90836696 62.8125 74.625 C60.91262137 73.72164655 59.01288531 72.81799318 57.11328125 71.9140625 C56.13311035 71.44774414 55.15293945 70.98142578 54.14306641 70.50097656 C48.25219122 67.68777937 42.37708419 64.84185901 36.5 62 C26.9243736 57.37127861 17.33968843 52.76223795 7.73999023 48.18359375 C2.47599912 45.67043297 -2.77979785 43.14106307 -8.02734375 40.59375 C-23.26545025 33.20030436 -38.56438689 25.97510686 -54 19 C-52.66235193 16.32470386 -51.4088877 16.13839554 -48.66723633 14.99707031 C-47.74570267 14.6103717 -46.82416901 14.2236731 -45.87471008 13.82525635 C-44.87062607 13.413703 -43.86654205 13.00214966 -42.83203125 12.578125 C-41.80446213 12.15448669 -40.77689301 11.73084839 -39.71818542 11.29437256 C-37.53822455 10.39960055 -35.35663707 9.50878301 -33.17358398 8.62158203 C-29.83627597 7.25970243 -26.51113674 5.87067233 -23.18554688 4.48046875 C-21.0684044 3.61548185 -18.95058644 2.75214605 -16.83203125 1.890625 C-15.34108696 1.2611496 -15.34108696 1.2611496 -13.82002258 0.61895752 C-5.27571881 -2.79121765 -5.27571881 -2.79121765 0 0 Z " fill="#D6262E" transform="translate(153,328)"></path><path d="M0 0 C0.98017593 0.48300568 1.96035187 0.96601135 2.9702301 1.46365356 C6.11014766 3.01269925 9.24465852 4.57233155 12.37890625 6.1328125 C15.43937925 7.64835504 18.50095895 9.16164122 21.56277466 10.67446899 C23.61159593 11.68678186 25.65999416 12.69995135 27.70797729 13.71395874 C35.73996597 17.68456631 43.81245063 21.56550064 51.90208435 25.41705322 C57.38190988 28.02758689 62.84436336 30.66848676 68.28515625 33.359375 C69.49990681 33.95722064 70.71474782 34.55488253 71.9296875 35.15234375 C73.71706647 36.03311003 75.5042871 36.91424461 77.28662109 37.80517578 C79.09415265 38.70727541 80.90833478 39.5960104 82.72265625 40.484375 C83.75455078 40.99564941 84.78644531 41.50692383 85.84960938 42.03369141 C90.24404968 43.7735622 94.01463127 44.82850823 98.63427734 43.46020508 C99.48586426 43.02861084 100.33745117 42.5970166 101.21484375 42.15234375 C102.67881592 41.42857544 102.67881592 41.42857544 104.17236328 40.69018555 C105.20989746 40.15562744 106.24743164 39.62106934 107.31640625 39.0703125 C109.57138068 37.94744681 111.82659552 36.82506381 114.08203125 35.703125 C115.8000293 34.8373584 115.8000293 34.8373584 117.55273438 33.95410156 C122.69110914 31.38195258 127.87889638 28.91639551 133.06640625 26.4453125 C141.24349416 22.5258779 149.40953621 18.58387824 157.57006836 14.63012695 C160.21805418 13.3473781 162.86733865 12.06737444 165.51782227 10.78979492 C171.63578052 7.83908072 177.74002686 4.86797404 183.8125 1.82421875 C184.86421387 1.30351807 185.91592773 0.78281738 186.99951172 0.24633789 C188.94373635 -0.71692699 190.88205244 -1.69225078 192.81298828 -2.68188477 C193.67134277 -3.10397217 194.52969727 -3.52605957 195.4140625 -3.9609375 C196.14890869 -4.33154297 196.88375488 -4.70214844 197.64086914 -5.08398438 C202.86731233 -6.57931398 207.76661286 -4.18323239 212.59765625 -2.23046875 C213.22184448 -1.9797612 213.84603271 -1.72905365 214.48913574 -1.4707489 C216.47555782 -0.6710368 218.45841065 0.13714734 220.44140625 0.9453125 C221.74067556 1.4686203 223.04015339 1.99141068 224.33984375 2.51367188 C232.92599861 5.97521821 241.44658845 9.57798791 249.94140625 13.2578125 C247.41513508 16.17519588 244.64720431 17.54491686 241.18359375 19.19140625 C240.01376953 19.75150391 238.84394531 20.31160156 237.63867188 20.88867188 C236.36462346 21.4909703 235.09053385 22.09318161 233.81640625 22.6953125 C232.49775105 23.32424992 231.17939522 23.95381538 229.86132812 24.58398438 C227.17435368 25.86760293 224.48583966 27.14790349 221.79589844 28.42529297 C216.33612758 31.01889549 210.88930117 33.63938254 205.44140625 36.2578125 C203.39195095 37.24093516 201.34247148 38.22400745 199.29296875 39.20703125 C192.4629873 42.48555029 185.63889526 45.77623548 178.81640625 49.0703125 C177.916409 49.50484238 177.916409 49.50484238 176.99822998 49.94815063 C170.0033021 53.3258312 163.0104289 56.707736 156.01953125 60.09375 C126.81394306 74.23885892 126.81394306 74.23885892 114.9453125 79.86328125 C111.74138559 81.38433746 108.56503488 82.94599877 105.40625 84.55859375 C104.37371094 85.07389648 104.37371094 85.07389648 103.3203125 85.59960938 C101.54031696 86.48960715 99.76964878 87.3981964 98 88.30859375 C91.1918819 90.42145799 83.71333155 84.84629876 77.62890625 81.8828125 C75.3620346 80.78634372 73.09510601 79.68999266 70.828125 78.59375 C69.67618652 78.03526367 68.52424805 77.47677734 67.33740234 76.90136719 C63.20714698 74.90245424 59.06925448 72.91979155 54.93041992 70.9387207 C43.32399565 65.38246385 31.74419809 59.77205352 20.16833496 54.15252686 C11.52078389 49.9551443 2.86688613 45.77227128 -5.80859375 41.6328125 C-44.27393275 23.27617603 -44.27393275 23.27617603 -62.05859375 14.2578125 C-60.74151512 11.62365524 -59.61160135 11.46666494 -56.90942383 10.36254883 C-56.02793167 9.99909866 -55.14643951 9.6356485 -54.23823547 9.26118469 C-53.27789902 8.87464218 -52.31756256 8.48809967 -51.328125 8.08984375 C-50.34494797 7.69077316 -49.36177094 7.29170258 -48.34880066 6.88053894 C-46.2629129 6.0371908 -44.1754851 5.19764343 -42.08666992 4.36157227 C-38.89562885 3.08016491 -35.71448528 1.77611645 -32.53320312 0.47070312 C-30.50707847 -0.34516213 -28.4804026 -1.1596601 -26.453125 -1.97265625 C-25.02780205 -2.56157906 -25.02780205 -2.56157906 -23.57368469 -3.16239929 C-14.01568282 -6.93332281 -8.85420456 -4.43623659 0 0 Z " fill="#DA2A31" transform="translate(162.05859375,274.7421875)"></path><path d="M0 0 C0.90707199 -0.00990463 1.81414398 -0.01980927 2.748703 -0.03001404 C3.74151276 -0.02551239 4.73432251 -0.02101074 5.75721741 -0.01637268 C6.80461594 -0.02323593 7.85201447 -0.03009918 8.93115234 -0.03717041 C12.40203818 -0.05550903 15.87247504 -0.05159071 19.34339905 -0.0459137 C21.75091703 -0.05047215 24.15843371 -0.0557767 26.56594849 -0.0617981 C31.61576111 -0.07074314 36.66541572 -0.0682902 41.71522522 -0.05836487 C48.19322637 -0.04687454 54.6706825 -0.0670812 61.14861202 -0.09628201 C66.12167844 -0.11460997 71.09461345 -0.11435829 76.06770515 -0.10864449 C78.45636828 -0.10849085 80.84504007 -0.11456992 83.23367119 -0.12693596 C86.57129684 -0.14177913 89.90790529 -0.13121708 93.24549866 -0.11402893 C94.23628418 -0.1236969 95.2270697 -0.13336487 96.24787903 -0.14332581 C102.91432738 -0.07127464 102.91432738 -0.07127464 106.2116394 2.25073242 C107.5660553 4.38768005 107.5660553 4.38768005 107.55726624 7.08055115 C106.28117323 11.33817573 104.57023942 15.27188277 102.7066803 19.30174255 C102.3204248 20.15263458 101.93416931 21.00352661 101.53620911 21.88020325 C100.30283012 24.59412756 99.05989686 27.30353717 97.8160553 30.01268005 C87.16795615 49.47517097 87.16795615 49.47517097 83.5660553 70.38768005 C83.69625061 71.54525818 83.82644592 72.7028363 83.96058655 73.89549255 C84.63132303 79.38135351 85.35499525 84.81867067 86.6285553 90.20018005 C87.36925734 93.35413714 87.94897051 96.48763291 88.3785553 99.70018005 C88.54291077 100.90094177 88.54291077 100.90094177 88.71058655 102.1259613 C88.5660553 104.38768005 88.5660553 104.38768005 85.5660553 108.38768005 C75.6660553 108.38768005 65.7660553 108.38768005 55.5660553 108.38768005 C55.5660553 129.50768005 55.5660553 150.62768005 55.5660553 172.38768005 C51.6060553 172.38768005 47.6460553 172.38768005 43.5660553 172.38768005 C43.5660553 151.26768005 43.5660553 130.14768005 43.5660553 108.38768005 C33.6660553 108.38768005 23.7660553 108.38768005 13.5660553 108.38768005 C8.63964817 100.99806937 12.61435741 89.53983464 14.1441803 81.35838318 C14.32464905 80.34840271 14.5051178 79.33842224 14.6910553 78.2978363 C14.85863342 77.40201843 15.02621155 76.50620056 15.1988678 75.58323669 C16.19244463 66.93634364 15.49317228 60.73971461 11.80433655 52.8290863 C11.41666611 51.95928635 11.02899567 51.08948639 10.62957764 50.19332886 C9.39645885 47.43747192 8.13815329 44.69401926 6.8785553 41.95018005 C6.05198815 40.11435479 5.22710383 38.27777087 4.40394592 36.44041443 C1.60361818 30.20664197 -1.2201035 23.98433367 -4.11412048 17.79344177 C-4.56642029 16.82293884 -5.01872009 15.85243591 -5.48472595 14.8525238 C-6.04607239 13.66904358 -6.04607239 13.66904358 -6.61875916 12.46165466 C-7.91462992 9.16473278 -8.01620271 6.88122811 -7.4339447 3.38768005 C-5.20915837 0.43708888 -3.62604068 0.0111747 0 0 Z " fill="#FEFBFB" transform="translate(206.43394470214844,76.61231994628906)"></path><path d="M0 0 C27.06 0 54.12 0 82 0 C76.30526522 14.80631043 76.30526522 14.80631043 73.01171875 21.6796875 C72.29830301 23.20027458 71.5854272 24.72111507 70.87304688 26.2421875 C69.77494973 28.57511944 68.67276792 30.9058374 67.5612793 33.23242188 C66.47017164 35.5218655 65.39608294 37.81868477 64.32421875 40.1171875 C63.98992355 40.80585907 63.65562836 41.49453064 63.311203 42.20407104 C60.29856316 48.72305444 60.5542308 53.97099989 62.45214844 60.91162109 C63.39439058 64.50339441 63.99241384 68.15576468 64.625 71.8125 C64.82609375 72.93688477 64.82609375 72.93688477 65.03125 74.08398438 C65.55868932 77.09523231 66 79.93673574 66 83 C49.83 83 33.66 83 17 83 C17.65018459 75.19778497 18.37626054 68.25454937 19.98242188 60.71679688 C22.03309815 50.60484143 19.99267688 44.94222838 15.5625 35.875 C14.4624875 33.56231718 13.36486507 31.24849616 12.26953125 28.93359375 C11.44509521 27.19891846 11.44509521 27.19891846 10.60400391 25.42919922 C8.21015911 20.31139952 5.96375883 15.13525825 3.75 9.9375 C3.36787354 9.04595215 2.98574707 8.1544043 2.59204102 7.23583984 C0 1.13870062 0 1.13870062 0 0 Z " fill="#E6373C" transform="translate(215,90)"></path></svg>