<svg version="1.1" xmlns="http://www.w3.org/2000/svg" width="16px" height="16px" fill="currentColor" viewBox="0 0 512 512"><path d="M0 0 C168.96 0 337.92 0 512 0 C512 168.96 512 337.92 512 512 C343.04 512 174.08 512 0 512 C0 343.04 0 174.08 0 0 Z " fill="#DD2C33" transform="translate(0,0)"></path><path d="M0 0 C11.09091795 3.69697265 17.16668011 18.71256239 22.75 28.25 C23.28399414 29.15733887 23.81798828 30.06467773 24.36816406 30.99951172 C31.71835834 43.49398281 38.94872703 56.0576084 46.1809082 68.62060547 C52.28745638 79.21299136 58.50210212 89.74050247 64.75 100.25 C67.18843548 97.98941413 68.89531194 95.63231767 70.6484375 92.8125 C71.48157471 91.4836377 71.48157471 91.4836377 72.33154297 90.12792969 C72.92338379 89.17821289 73.51522461 88.22849609 74.125 87.25 C103.21937536 41.07931805 103.21937536 41.07931805 113.75 37.25 C125.20615396 36.20487718 135.54411515 44.44873468 144.30688477 51.04833984 C147.20650751 53.47302809 147.20650751 53.47302809 150.75 54.25 C151.33265625 53.17105469 151.9153125 52.09210938 152.515625 50.98046875 C175.05451441 9.59774279 175.05451441 9.59774279 185.75 4.25 C191.89748115 3.7377099 194.82871443 4.20360964 199.75 8.25 C201.45993434 9.8722454 203.12347684 11.54413425 204.75 13.25 C205.5241626 13.99431274 205.5241626 13.99431274 206.31396484 14.75366211 C210.72495128 19.00778827 214.39838837 23.50592026 217.9375 28.5 C218.49356934 29.27867432 219.04963867 30.05734863 219.62255859 30.85961914 C229.90628566 45.41198073 239.05213216 60.70804663 247.75 76.25 C248.31009766 77.2498291 248.87019531 78.2496582 249.44726562 79.27978516 C276.52275025 127.88989702 276.52275025 127.88989702 273.75 146.25 C272.31772448 148.75006515 271.18098097 149.58981788 268.75 151.25 C268.42 151.58 268.09 151.91 267.75 152.25 C261.11265601 152.36360646 256.21464491 150.40369803 250.6875 146.9375 C249.59187744 146.27089355 249.59187744 146.27089355 248.47412109 145.59082031 C241.27149329 141.12000977 234.56631312 136.04971956 227.8671875 130.86816406 C224.08214943 127.97526365 220.2220705 125.18451777 216.375 122.375 C207.70166719 116.01267707 199.20458105 109.44027986 190.73828125 102.80615234 C185.77006241 98.91771584 180.76813269 95.07376363 175.75 91.25 C174.52869385 90.31728271 174.52869385 90.31728271 173.28271484 89.36572266 C170.54683342 87.27990284 167.80532959 85.2016722 165.0625 83.125 C164.17578613 82.44832275 163.28907227 81.77164551 162.37548828 81.07446289 C161.54645996 80.44918701 160.71743164 79.82391113 159.86328125 79.1796875 C159.11860596 78.61491699 158.37393066 78.05014648 157.60668945 77.46826172 C155.84141898 76.06713453 155.84141898 76.06713453 153.75 76.25 C153.42950684 76.8262915 153.10901367 77.40258301 152.77880859 77.99633789 C115.92734969 144.10605627 115.92734969 144.10605627 98.1875 153.625 C94.33902444 154.61178861 91.5111695 155.21296794 87.87109375 153.22265625 C78.31590099 146.4723146 71.9477714 136.99170984 65.75 127.25 C62.87051391 130.79098965 60.17134989 134.42546868 57.5 138.125 C48.20311529 150.49031464 48.20311529 150.49031464 41.625 151.9375 C32.29879367 149.70732022 27.45398006 140.88237328 22.75 133.25 C19.49877958 127.64658766 16.36797052 121.97924231 13.27954102 116.28491211 C9.01821851 108.43215684 4.503633 100.81174866 -0.25 93.25 C-4.31951606 94.77390209 -6.8799947 96.45036659 -10.0625 99.4375 C-10.93777344 100.24832031 -11.81304687 101.05914062 -12.71484375 101.89453125 C-13.55144531 102.67183594 -14.38804687 103.44914062 -15.25 104.25 C-16.53644455 105.38096782 -17.82772455 106.50647231 -19.125 107.625 C-21.97269734 110.10026208 -24.75727683 112.63522336 -27.52441406 115.20019531 C-32.73762978 120.02945355 -38.06561633 124.62268385 -43.61328125 129.0703125 C-46.1974491 131.20655793 -48.62367983 133.45042731 -51.0625 135.75 C-57.73424958 141.78432128 -66.19739767 149.05850812 -75.3125 150.5625 C-79.25 150.25 -79.25 150.25 -82.3125 148.8125 C-84.91562654 145.36965522 -84.69918428 142.37953586 -84.25 138.25 C-83.17578125 134.8828125 -83.17578125 134.8828125 -81.5625 131.375 C-81.25779785 130.70992432 -80.9530957 130.04484863 -80.63916016 129.35961914 C-79.53282651 126.97795076 -78.39471112 124.61346275 -77.25 122.25 C-76.78867676 121.29174316 -76.32735352 120.33348633 -75.85205078 119.34619141 C-68.73368525 104.64044762 -61.06887903 90.32657503 -52.91796875 76.17138672 C-50.59676295 72.10587902 -48.33419771 68.00868671 -46.06665039 63.91308594 C-11.09574989 0.85351922 -11.09574989 0.85351922 0 0 Z " fill="#FEFAFB" transform="translate(161.25,178.75)"></path><path d="M0 0 C3.60182139 3.37985498 6.2137713 6.64517179 8.6796875 10.91796875 C9.00897751 11.48358017 9.33826752 12.04919159 9.67753601 12.63194275 C10.75079199 14.4796017 11.81287575 16.33342354 12.875 18.1875 C13.63072819 19.49308171 14.38716832 20.79825156 15.14428711 22.10302734 C17.07209022 25.42969072 18.99073961 28.76152078 20.90582275 32.09552002 C23.17936074 36.05274686 25.46007809 40.005841 27.73901367 43.95996094 C28.95507235 46.07068322 30.17007847 48.18201227 31.3840332 50.29394531 C36.68473181 59.50016198 42.09515857 68.63911897 47.54711914 77.75634766 C51.52230383 84.42383747 55.33816891 91.15522538 59 98 C54.23887391 105.5331595 49.48670558 112.96576208 44 120 C39.79622157 118.51466496 38.22376024 115.63507995 36.125 111.9375 C35.74988281 111.29699707 35.37476563 110.65649414 34.98828125 109.99658203 C32.47150006 105.6651217 30.04368602 101.28484177 27.6171875 96.90234375 C18.61317559 78.10355464 18.61317559 78.10355464 5 63 C-0.03116603 62.02622593 -2.54664583 62.13558674 -6.98828125 64.77734375 C-15.07893522 70.64472657 -22.26883563 77.74212239 -29.50927734 84.60205078 C-31.9312991 86.87334075 -34.44182547 89.03650851 -36.95703125 91.203125 C-39.09318287 93.08195817 -41.18138301 95.00861031 -43.26708984 96.94311523 C-59.73449112 112.20082589 -59.73449112 112.20082589 -66 115 C-56.07595117 93.20909914 -44.5284306 72.33877716 -32.359375 51.73046875 C-30.20025175 48.06894531 -28.08340349 44.3896384 -26.015625 40.67578125 C-7.54283379 7.54283379 -7.54283379 7.54283379 0 0 Z " fill="#D82830" transform="translate(160,195)"></path><path d="M0 0 C22.80548025 9.75910191 39.38443861 51.78845432 50.82080078 72.83398438 C51.98498595 74.9724214 53.162229 77.10331199 54.33984375 79.234375 C58.40807225 86.67122781 62.1063046 94.20298293 65.4375 102 C65.76766113 102.76497803 66.09782227 103.52995605 66.43798828 104.31811523 C68.57363267 109.45494905 69.96744499 114.53609672 71 120 C62.76753216 115.7732713 55.44103119 110.45403835 48 105 C46.50265591 103.91008516 45.00525792 102.82024437 43.5078125 101.73046875 C34.00408379 94.79089413 24.6531974 87.67833576 15.38671875 80.42578125 C9.08779755 75.49697615 2.72577308 70.65125984 -3.63574219 65.80371094 C-6.3142341 63.76026833 -8.98916768 61.71221124 -11.6640625 59.6640625 C-13.58849024 58.19264107 -15.51296875 56.72128604 -17.4375 55.25 C-18.35635986 54.54568848 -19.27521973 53.84137695 -20.22192383 53.11572266 C-21.0755249 52.46394043 -21.92912598 51.8121582 -22.80859375 51.140625 C-23.56970459 50.55829102 -24.33081543 49.97595703 -25.11499023 49.37597656 C-26.9531125 47.95422356 -26.9531125 47.95422356 -29 47 C-27.71822773 42.76707088 -26.11550718 39.19010198 -23.83984375 35.40234375 C-23.2149707 34.35900879 -22.59009766 33.31567383 -21.94628906 32.24072266 C-21.28338867 31.15065918 -20.62048828 30.0605957 -19.9375 28.9375 C-18.92574707 27.26373291 -18.92574707 27.26373291 -17.89355469 25.55615234 C-5.41045844 5.04308164 -5.41045844 5.04308164 0 0 Z " fill="#E5363C" transform="translate(351,196)"></path><path d="M0 0 C3.73342329 1.44172542 6.80994554 3.5207842 10.0859375 5.796875 C10.72015625 6.22742188 11.354375 6.65796875 12.0078125 7.1015625 C16.28814971 10.01918011 20.50393717 13.02479208 24.7109375 16.046875 C23.40739231 19.46834908 21.92127494 22.63685782 20.12890625 25.828125 C19.61553711 26.74223145 19.10216797 27.65633789 18.57324219 28.59814453 C18.02055664 29.57122559 17.46787109 30.54430664 16.8984375 31.546875 C16.32383789 32.55991699 15.74923828 33.57295898 15.15722656 34.61669922 C-15.06504397 87.53446361 -15.06504397 87.53446361 -26.2890625 91.046875 C-31.705168 85.48686331 -36.50160192 79.67279384 -40.9140625 73.296875 C-41.36378418 72.67159912 -41.81350586 72.04632324 -42.27685547 71.40209961 C-44.18054822 68.57507461 -45.27524808 66.54222058 -45.37109375 63.10546875 C-43.90126116 58.9506712 -41.76695996 55.53013314 -39.3515625 51.859375 C-38.83303711 51.05636963 -38.31451172 50.25336426 -37.78027344 49.42602539 C-35.96272838 46.62437052 -34.12674309 43.83536146 -32.2890625 41.046875 C-31.55487007 39.92630701 -30.82099508 38.80553099 -30.08740234 37.68457031 C-28.1359845 34.70482411 -26.17695672 31.73020545 -24.21237183 28.75912476 C-23.4411536 27.59257871 -22.67103939 26.42530191 -21.90213013 25.25723267 C-5.31891761 0.10891981 -5.31891761 0.10891981 0 0 Z " fill="#DD2E35" transform="translate(280.2890625,228.953125)"></path></svg>