<svg version="1.1" xmlns="http://www.w3.org/2000/svg" width="16px" height="16px" fill="currentColor" viewBox="0 0 512 512"><path d="M0 0 C168.96 0 337.92 0 512 0 C512 168.96 512 337.92 512 512 C343.04 512 174.08 512 0 512 C0 343.04 0 174.08 0 0 Z " fill="#D72B6B" transform="translate(0,0)"></path><path d="M0 0 C0.86802246 0.04592285 1.73604492 0.0918457 2.63037109 0.13916016 C12.12498099 0.683867 21.59695863 1.51134484 31.07147217 2.32415771 C42.40862196 3.29641529 53.7478623 4.1680719 65.09970093 4.94970703 C71.32189825 5.38161922 77.54248568 5.83616135 83.76318359 6.2890625 C88.42974136 6.62872616 93.09684184 6.96002217 97.76416016 7.2890625 C103.93736211 7.72546022 110.10878712 8.18244067 116.27913857 8.65744972 C119.68732063 8.91929816 123.09566133 9.1731386 126.50585938 9.40740967 C130.33529764 9.67465492 134.16150644 9.97071357 137.98828125 10.2734375 C139.14157425 10.34747803 140.29486725 10.42151855 141.48310852 10.49780273 C142.54998398 10.58795654 143.61685944 10.67811035 144.71606445 10.77099609 C145.64417435 10.83966888 146.57228424 10.90834167 147.52851868 10.97909546 C151.27647686 12.09187758 152.78626673 13.62888358 155.125 16.75 C155.7355453 19.74714208 156.04205549 22.24615797 156.15161133 25.26196289 C156.20110931 26.10838852 156.2506073 26.95481415 156.30160522 27.82688904 C156.45941639 30.6247742 156.58351616 33.42306411 156.70703125 36.22265625 C156.81008139 38.18552065 156.91506855 40.14828423 157.02189636 42.11094666 C157.24159647 46.23362572 157.4461174 50.35666649 157.63842773 54.48071289 C157.88224576 59.70919908 158.15023181 64.93603877 158.42830372 70.1628046 C158.6957425 75.20319134 158.95235191 80.2441108 159.20703125 85.28515625 C159.25482035 86.22085009 159.30260944 87.15654392 159.35184669 88.12059212 C159.99890651 101.0074342 160.24001546 113.84733231 160.125 126.75 C160.81808258 126.63326935 161.51116516 126.5165387 162.22525024 126.39627075 C172.86734844 124.67669913 183.55866512 123.52731147 194.2734375 122.3671875 C196.30076638 122.14598688 198.32807934 121.92464028 200.3553772 121.70315552 C204.57932118 121.24239081 208.80349244 120.78378316 213.02783203 120.32666016 C218.43163262 119.74167056 223.83475042 119.15061656 229.23770714 118.55788994 C233.4136198 118.10055759 237.58990867 117.64673861 241.76631546 117.19394302 C243.75907553 116.97740863 245.75171032 116.75971794 247.7442131 116.5408287 C250.5262 116.23567823 253.30866758 115.93534921 256.09130859 115.63623047 C256.90598602 115.54586517 257.72066345 115.45549988 258.56002808 115.36239624 C270.72829034 114.06989084 270.72829034 114.06989084 274.29234123 115.80535793 C276.96556785 118.64193015 276.67953357 121.40782248 276.63293457 125.10716248 C276.64229451 126.23995977 276.64229451 126.23995977 276.65184355 127.39564186 C276.66783729 129.93391648 276.65514494 132.47123923 276.64257812 135.00952148 C276.64799648 136.82611656 276.65511752 138.64270724 276.66381836 140.45928955 C276.68209012 145.39941467 276.67496798 150.33920652 276.66230202 155.27933764 C276.65219273 160.44380785 276.66156207 165.60824904 276.66784668 170.77272034 C276.67512979 179.44757218 276.66551867 188.12228794 276.64648438 196.79711914 C276.62472124 206.83159086 276.63176031 216.86573744 276.65379 226.90020126 C276.67193328 235.50834929 276.67450735 244.11639935 276.66403532 252.72456032 C276.65779362 257.86893771 276.65698321 263.01316221 276.67018127 268.15752983 C276.68172331 272.99456904 276.67374418 277.83118857 276.65060425 282.66818237 C276.64530805 284.44514837 276.64684647 286.22214958 276.65565491 287.99910164 C276.66655857 290.42183168 276.65291084 292.84321036 276.63293457 295.26585388 C276.6463189 296.32504545 276.6463189 296.32504545 276.65997362 297.40563482 C276.60620326 300.75909359 276.33848866 302.4748029 274.25684357 305.15814304 C271.66652172 307.09234775 269.62413218 307.67889483 266.46484375 308.35546875 C265.30082031 308.61199219 264.13679688 308.86851562 262.9375 309.1328125 C261.65875 309.39835937 260.38 309.66390625 259.0625 309.9375 C257.69896102 310.23188169 256.33568627 310.52748946 254.97265625 310.82421875 C250.3613826 311.82173545 245.74344576 312.78633772 241.125 313.75 C239.40116761 314.11131527 237.67737286 314.47281017 235.95361328 314.83447266 C228.64538772 316.36668232 221.3364168 317.8952219 214.02514648 319.4128418 C203.53410444 321.59367835 193.06889349 323.8520529 182.625 326.25 C170.15568547 329.11189254 157.64976107 331.7682898 145.125 334.375 C144.18861694 334.56995056 143.25223389 334.76490112 142.28747559 334.96575928 C138.64429696 335.72415431 135.0010978 336.4824506 131.35784912 337.24050903 C118.89950425 339.83501945 106.46528464 342.5278972 94.05859375 345.359375 C80.66968967 348.41400461 67.27237428 351.41117704 53.82827759 354.2144165 C52.330443 354.52715718 50.83301694 354.8418616 49.33602905 355.15863037 C47.24478232 355.60022138 45.15201528 356.03369625 43.05859375 356.46484375 C41.86290771 356.71355225 40.66722168 356.96226074 39.43530273 357.21850586 C36.18979057 357.73959738 33.39677154 358.09909223 30.125 357.75 C28.2253418 356.29882812 28.2253418 356.29882812 26.63671875 354.28125 C26.04938965 353.54777344 25.46206055 352.81429688 24.85693359 352.05859375 C24.28539551 351.29675781 23.71385742 350.53492188 23.125 349.75 C22.60373535 349.06035156 22.0824707 348.37070312 21.54541016 347.66015625 C19.98145047 345.54217949 18.45576503 343.40093483 16.9375 341.25 C15.79807927 339.65408743 14.65742925 338.05905189 13.515625 336.46484375 C12.94779297 335.67190918 12.37996094 334.87897461 11.79492188 334.06201172 C9.3031218 330.61210723 6.7509189 327.20936264 4.1875 323.8125 C-1.96900404 315.64558422 -8.03470681 307.41343538 -14.09277344 299.17333984 C-17.01730746 295.19677482 -19.94635433 291.22353729 -22.875 287.25 C-24.04168888 285.66668304 -25.20835553 284.08334969 -26.375 282.5 C-26.9525 281.71625 -27.53 280.9325 -28.125 280.125 C-33.375 273 -33.375 273 -35.12548828 270.62426758 C-36.29043849 269.04331017 -37.45547734 267.46241808 -38.62060547 265.8815918 C-41.5642698 261.88744172 -44.50631346 257.8921157 -47.4453125 253.89453125 C-48.63008962 252.28376685 -49.81498485 250.6730893 -51 249.0625 C-51.87180908 247.87744873 -51.87180908 247.87744873 -52.76123047 246.66845703 C-55.98678575 242.29072363 -59.23574365 237.93226636 -62.51416016 233.59399414 C-64.47087321 231.00101176 -66.41544032 228.39917931 -68.35449219 225.79296875 C-69.42008982 224.36122164 -70.4887093 222.93172094 -71.55957031 221.50390625 C-73.26342329 219.22184004 -74.94627198 216.92558987 -76.625 214.625 C-77.15109863 213.92616699 -77.67719727 213.22733398 -78.21923828 212.50732422 C-78.6986084 211.8423291 -79.17797852 211.17733398 -79.671875 210.4921875 C-80.31141113 209.62376221 -80.31141113 209.62376221 -80.96386719 208.73779297 C-83.11483739 204.04508146 -81.74548983 199.70706281 -80.07298279 195.04499817 C-79.80526566 194.32889877 -79.53754852 193.61279938 -79.26171875 192.875 C-78.98090958 192.09940231 -78.7001004 191.32380463 -78.41078186 190.52470398 C-77.79561139 188.82863258 -77.17611732 187.13412464 -76.55285645 185.44100952 C-75.18191471 181.71586866 -73.83229481 177.98310976 -72.48141479 174.25065613 C-71.75287291 172.23793015 -71.02329439 170.22557914 -70.29275513 168.21357727 C-66.38723717 157.44493033 -62.5982949 146.63604853 -58.8117981 135.82510376 C-51.61015901 115.268701 -44.31240892 94.74853133 -36.93417358 74.25488281 C-32.72877268 62.57209119 -28.55182795 50.88143557 -24.48828125 39.1484375 C-24.14165436 38.14844223 -23.79502747 37.14844696 -23.43789673 36.1181488 C-21.81435106 31.42969925 -20.19803643 26.73892955 -18.59277344 22.04418945 C-18.02160315 20.3874916 -17.45032073 18.7308324 -16.87890625 17.07421875 C-16.63183426 16.34339081 -16.38476227 15.61256287 -16.13020325 14.85958862 C-10.77532454 -0.60140336 -10.77532454 -0.60140336 0 0 Z " fill="#D62B6B" transform="translate(158.875,77.25)"></path><path d="M0 0 C0.86802246 0.04592285 1.73604492 0.0918457 2.63037109 0.13916016 C12.12498099 0.683867 21.59695863 1.51134484 31.07147217 2.32415771 C42.40862196 3.29641529 53.7478623 4.1680719 65.09970093 4.94970703 C71.32189825 5.38161922 77.54248568 5.83616135 83.76318359 6.2890625 C88.42974136 6.62872616 93.09684184 6.96002217 97.76416016 7.2890625 C103.93736211 7.72546022 110.10878712 8.18244067 116.27913857 8.65744972 C119.68732063 8.91929816 123.09566133 9.1731386 126.50585938 9.40740967 C130.33529764 9.67465492 134.16150644 9.97071357 137.98828125 10.2734375 C139.14157425 10.34747803 140.29486725 10.42151855 141.48310852 10.49780273 C142.54998398 10.58795654 143.61685944 10.67811035 144.71606445 10.77099609 C145.64417435 10.83966888 146.57228424 10.90834167 147.52851868 10.97909546 C151.27647686 12.09187758 152.78626673 13.62888358 155.125 16.75 C155.7355453 19.74714208 156.04205549 22.24615797 156.15161133 25.26196289 C156.20110931 26.10838852 156.2506073 26.95481415 156.30160522 27.82688904 C156.45941639 30.6247742 156.58351616 33.42306411 156.70703125 36.22265625 C156.81008139 38.18552065 156.91506855 40.14828423 157.02189636 42.11094666 C157.24159647 46.23362572 157.4461174 50.35666649 157.63842773 54.48071289 C157.88224576 59.70919908 158.15023181 64.93603877 158.42830372 70.1628046 C158.6957425 75.20319134 158.95235191 80.2441108 159.20703125 85.28515625 C159.25482035 86.22085009 159.30260944 87.15654392 159.35184669 88.12059212 C159.99890651 101.0074342 160.24001546 113.84733231 160.125 126.75 C160.81808258 126.63326935 161.51116516 126.5165387 162.22525024 126.39627075 C172.86734844 124.67669913 183.55866512 123.52731147 194.2734375 122.3671875 C196.30076638 122.14598688 198.32807934 121.92464028 200.3553772 121.70315552 C204.57932118 121.24239081 208.80349244 120.78378316 213.02783203 120.32666016 C218.43163262 119.74167056 223.83475042 119.15061656 229.23770714 118.55788994 C233.4136198 118.10055759 237.58990867 117.64673861 241.76631546 117.19394302 C243.75907553 116.97740863 245.75171032 116.75971794 247.7442131 116.5408287 C250.5262 116.23567823 253.30866758 115.93534921 256.09130859 115.63623047 C256.90598602 115.54586517 257.72066345 115.45549988 258.56002808 115.36239624 C270.72829034 114.06989084 270.72829034 114.06989084 274.29234123 115.80535793 C276.96556785 118.64193015 276.67953357 121.40782248 276.63293457 125.10716248 C276.64229451 126.23995977 276.64229451 126.23995977 276.65184355 127.39564186 C276.66783729 129.93391648 276.65514494 132.47123923 276.64257812 135.00952148 C276.64799648 136.82611656 276.65511752 138.64270724 276.66381836 140.45928955 C276.68209012 145.39941467 276.67496798 150.33920652 276.66230202 155.27933764 C276.65219273 160.44380785 276.66156207 165.60824904 276.66784668 170.77272034 C276.67512979 179.44757218 276.66551867 188.12228794 276.64648438 196.79711914 C276.62472124 206.83159086 276.63176031 216.86573744 276.65379 226.90020126 C276.67193328 235.50834929 276.67450735 244.11639935 276.66403532 252.72456032 C276.65779362 257.86893771 276.65698321 263.01316221 276.67018127 268.15752983 C276.68172331 272.99456904 276.67374418 277.83118857 276.65060425 282.66818237 C276.64530805 284.44514837 276.64684647 286.22214958 276.65565491 287.99910164 C276.66655857 290.42183168 276.65291084 292.84321036 276.63293457 295.26585388 C276.6463189 296.32504545 276.6463189 296.32504545 276.65997362 297.40563482 C276.60620326 300.75909359 276.33848866 302.4748029 274.25684357 305.15814304 C271.66652172 307.09234775 269.62413218 307.67889483 266.46484375 308.35546875 C265.30082031 308.61199219 264.13679688 308.86851562 262.9375 309.1328125 C261.65875 309.39835937 260.38 309.66390625 259.0625 309.9375 C257.69896102 310.23188169 256.33568627 310.52748946 254.97265625 310.82421875 C250.3613826 311.82173545 245.74344576 312.78633772 241.125 313.75 C239.40116761 314.11131527 237.67737286 314.47281017 235.95361328 314.83447266 C228.64538772 316.36668232 221.3364168 317.8952219 214.02514648 319.4128418 C203.53410444 321.59367835 193.06889349 323.8520529 182.625 326.25 C170.15568547 329.11189254 157.64976107 331.7682898 145.125 334.375 C144.18861694 334.56995056 143.25223389 334.76490112 142.28747559 334.96575928 C138.64429696 335.72415431 135.0010978 336.4824506 131.35784912 337.24050903 C118.89950425 339.83501945 106.46528464 342.5278972 94.05859375 345.359375 C80.66968967 348.41400461 67.27237428 351.41117704 53.82827759 354.2144165 C52.330443 354.52715718 50.83301694 354.8418616 49.33602905 355.15863037 C47.24478232 355.60022138 45.15201528 356.03369625 43.05859375 356.46484375 C41.86290771 356.71355225 40.66722168 356.96226074 39.43530273 357.21850586 C36.18979057 357.73959738 33.39677154 358.09909223 30.125 357.75 C28.2253418 356.29882812 28.2253418 356.29882812 26.63671875 354.28125 C26.04938965 353.54777344 25.46206055 352.81429688 24.85693359 352.05859375 C24.28539551 351.29675781 23.71385742 350.53492188 23.125 349.75 C22.60373535 349.06035156 22.0824707 348.37070312 21.54541016 347.66015625 C19.98145047 345.54217949 18.45576503 343.40093483 16.9375 341.25 C15.79807927 339.65408743 14.65742925 338.05905189 13.515625 336.46484375 C12.94779297 335.67190918 12.37996094 334.87897461 11.79492188 334.06201172 C9.3031218 330.61210723 6.7509189 327.20936264 4.1875 323.8125 C-1.96900404 315.64558422 -8.03470681 307.41343538 -14.09277344 299.17333984 C-17.01730746 295.19677482 -19.94635433 291.22353729 -22.875 287.25 C-24.04168888 285.66668304 -25.20835553 284.08334969 -26.375 282.5 C-26.9525 281.71625 -27.53 280.9325 -28.125 280.125 C-33.375 273 -33.375 273 -35.12548828 270.62426758 C-36.29043849 269.04331017 -37.45547734 267.46241808 -38.62060547 265.8815918 C-41.5642698 261.88744172 -44.50631346 257.8921157 -47.4453125 253.89453125 C-48.63008962 252.28376685 -49.81498485 250.6730893 -51 249.0625 C-51.87180908 247.87744873 -51.87180908 247.87744873 -52.76123047 246.66845703 C-55.98678575 242.29072363 -59.23574365 237.93226636 -62.51416016 233.59399414 C-64.47087321 231.00101176 -66.41544032 228.39917931 -68.35449219 225.79296875 C-69.42008982 224.36122164 -70.4887093 222.93172094 -71.55957031 221.50390625 C-73.26342329 219.22184004 -74.94627198 216.92558987 -76.625 214.625 C-77.15109863 213.92616699 -77.67719727 213.22733398 -78.21923828 212.50732422 C-78.6986084 211.8423291 -79.17797852 211.17733398 -79.671875 210.4921875 C-80.31141113 209.62376221 -80.31141113 209.62376221 -80.96386719 208.73779297 C-83.11483739 204.04508146 -81.74548983 199.70706281 -80.07298279 195.04499817 C-79.80526566 194.32889877 -79.53754852 193.61279938 -79.26171875 192.875 C-78.98090958 192.09940231 -78.7001004 191.32380463 -78.41078186 190.52470398 C-77.79561139 188.82863258 -77.17611732 187.13412464 -76.55285645 185.44100952 C-75.18191471 181.71586866 -73.83229481 177.98310976 -72.48141479 174.25065613 C-71.75287291 172.23793015 -71.02329439 170.22557914 -70.29275513 168.21357727 C-66.38723717 157.44493033 -62.5982949 146.63604853 -58.8117981 135.82510376 C-51.61015901 115.268701 -44.31240892 94.74853133 -36.93417358 74.25488281 C-32.72877268 62.57209119 -28.55182795 50.88143557 -24.48828125 39.1484375 C-24.14165436 38.14844223 -23.79502747 37.14844696 -23.43789673 36.1181488 C-21.81435106 31.42969925 -20.19803643 26.73892955 -18.59277344 22.04418945 C-18.02160315 20.3874916 -17.45032073 18.7308324 -16.87890625 17.07421875 C-16.63183426 16.34339081 -16.38476227 15.61256287 -16.13020325 14.85958862 C-10.77532454 -0.60140336 -10.77532454 -0.60140336 0 0 Z M-0.875 12.75 C-4.2293751 20.58756713 -7.2859134 28.47080154 -10.0703125 36.52734375 C-10.45520844 37.63062515 -10.84010437 38.73390656 -11.23666382 39.87062073 C-12.06312064 42.24006314 -12.88808278 44.61002734 -13.71166992 46.98046875 C-15.93730027 53.38448073 -18.17537773 59.78413575 -20.4140625 66.18359375 C-20.6426873 66.8374493 -20.8713121 67.49130486 -21.10686493 68.16497421 C-25.78939845 81.55314756 -30.56959745 94.90548445 -35.375 108.25 C-43.18733768 129.95240295 -50.85642212 151.70271752 -58.46679688 173.4765625 C-58.87377808 174.64023849 -59.28075928 175.80391449 -59.70007324 177.00285339 C-60.45788253 179.17027652 -61.21486204 181.33799002 -61.9708252 183.50605774 C-62.31045288 184.4777037 -62.65008057 185.44934967 -63 186.45043945 C-63.47566406 187.81430283 -63.47566406 187.81430283 -63.9609375 189.20571899 C-64.80053932 191.54273966 -65.70422629 193.84330273 -66.625 196.14916992 C-67.75179313 199.3950824 -68.39544078 201.38866791 -67.875 204.75 C-66.84956428 206.82450139 -66.84956428 206.82450139 -65.3046875 208.7265625 C-64.74523437 209.46970703 -64.18578125 210.21285156 -63.609375 210.97851562 C-62.68898438 212.16477539 -62.68898438 212.16477539 -61.75 213.375 C-60.45541587 215.08570046 -59.16115384 216.79664471 -57.8671875 218.5078125 C-57.20170898 219.37954102 -56.53623047 220.25126953 -55.85058594 221.14941406 C-52.81227802 225.14892666 -49.84536134 229.19992919 -46.875 233.25 C-45.71130429 234.82969735 -44.54724032 236.40912348 -43.3828125 237.98828125 C-41.02156803 241.19263898 -38.66241454 244.39852217 -36.3046875 247.60546875 C-30.85863105 255.01019463 -25.40042234 262.40424366 -19.875 269.75 C-13.74471479 277.8998895 -7.69789741 286.1102261 -1.65722656 294.32666016 C1.84445222 299.08798394 5.35200289 303.84498421 8.85913086 308.60229492 C11.86676089 312.68272094 14.87135892 316.76532792 17.87109375 320.8515625 C18.48919922 321.69267578 19.10730469 322.53378906 19.74414062 323.40039062 C20.91182124 324.98948981 22.0785689 326.57927521 23.24414062 328.16992188 C24.31825865 329.63087712 25.40322912 331.08392278 26.49951172 332.52832031 C28.125 334.75 28.125 334.75 29.73876953 337.33886719 C32.60366317 341.93053196 32.60366317 341.93053196 37.23925781 344.20019531 C39.9684122 343.97608384 42.46609199 343.40911703 45.125 342.75 C47.56602163 342.28702994 50.00746456 341.82627829 52.44921875 341.3671875 C55.23981208 340.7998497 58.02598208 340.21198063 60.8125 339.625 C62.32418963 339.31040691 63.83590892 338.99595634 65.34765625 338.68164062 C76.4025338 336.37187554 87.41732353 333.9025888 98.42529297 331.37866211 C108.0704188 329.17944575 117.74289559 327.15484517 127.4375 325.1875 C138.31491651 322.97940208 149.14594771 320.635216 159.94970703 318.08740234 C169.53976694 315.84417377 179.17133459 313.82152404 188.8125 311.8125 C201.87980041 309.08932118 214.91849939 306.27498168 227.92456055 303.27172852 C239.62799892 300.58394967 251.35756683 298.20154858 263.125 295.75 C263.125 240.64 263.125 185.53 263.125 128.75 C250.63553332 129.479199 250.63553332 129.479199 238.21875 130.68969727 C237.46182861 130.77762543 236.70490723 130.86555359 235.92504883 130.95614624 C234.31871958 131.14313798 232.71259952 131.33193515 231.10668945 131.52249336 C228.54756999 131.82557649 225.98778014 132.1223136 223.42773438 132.41746521 C216.16171317 133.25598238 208.89672497 134.10312335 201.6328125 134.9597168 C197.15428522 135.48740035 192.67477796 136.00600407 188.19458008 136.51930046 C186.51042253 136.71402993 184.82664463 136.91207795 183.14331055 137.11380196 C160.34965317 139.84349528 160.34965317 139.84349528 151.125 138.75 C148.53939263 134.87158895 148.61945845 131.40933362 148.37890625 126.890625 C148.32326004 125.97802917 148.26761383 125.06543335 148.21028137 124.12518311 C148.02725828 121.08390513 147.85736096 118.04203926 147.6875 115 C147.56205626 112.87365677 147.43590445 110.7473552 147.30908203 108.62109375 C146.60055063 96.61938496 145.95076065 84.61437271 145.30078125 72.609375 C145.19960747 70.742883 145.19960747 70.742883 145.09638977 68.83868408 C144.76733387 62.75245428 144.44290435 56.66603897 144.12719727 50.57910156 C144.06747238 49.44732483 144.0077475 48.3155481 143.94621277 47.1494751 C143.83482301 45.03839175 143.72561781 42.92719145 143.61909485 40.81585693 C143.1906216 32.74914648 143.1906216 32.74914648 142.125 24.75 C139.18796615 23.28148307 136.4164711 23.39305292 133.140625 23.171875 C132.40257629 23.12037292 131.66452759 23.06887085 130.90411377 23.01580811 C129.26846525 22.90171453 127.6326948 22.78935974 125.99682617 22.6784668 C121.38769999 22.36472518 116.77979441 22.03405532 112.171875 21.703125 C111.15851074 21.6304541 110.14514648 21.5577832 109.10107422 21.48291016 C95.26972621 20.48241656 81.44739741 19.36613423 67.625 18.25 C66.95522251 18.19601673 66.28544502 18.14203346 65.59537125 18.08641434 C48.10270561 16.67648848 30.61434346 15.23458572 13.14453125 13.5625 C11.99210937 13.45292969 10.8396875 13.34335938 9.65234375 13.23046875 C8.69062256 13.13660889 7.72890137 13.04274902 6.73803711 12.94604492 C4.18821571 12.7547428 1.68072963 12.7365986 -0.875 12.75 Z " fill="#FEFAFB" transform="translate(158.875,77.25)"></path><path d="M0 0 C4.29 0 8.58 0 13 0 C13 52.8 13 105.6 13 160 C8.71 160 4.42 160 0 160 C0 107.2 0 54.4 0 0 Z " fill="#FEFBFC" transform="translate(256,173)"></path><path d="M0 0 C4.29 0 8.58 0 13 0 C13 33.99 13 67.98 13 103 C8.71 103 4.42 103 0 103 C0 69.01 0 35.02 0 0 Z " fill="#FEFAFB" transform="translate(211,230)"></path><path d="M0 0 C4.29 0 8.58 0 13 0 C13 23.43 13 46.86 13 71 C8.71 71 4.42 71 0 71 C0 47.57 0 24.14 0 0 Z " fill="#FDF6F9" transform="translate(301,262)"></path><path d="M0 0 C4.29 0 8.58 0 13 0 C13 23.43 13 46.86 13 71 C8.71 71 4.42 71 0 71 C0 47.57 0 24.14 0 0 Z " fill="#FDF6F8" transform="translate(166,262)"></path></svg>