<svg version="1.1" xmlns="http://www.w3.org/2000/svg" width="16px" height="16px" fill="currentColor" viewBox="0 0 512 512"><path d="M0 0 C168.96 0 337.92 0 512 0 C512 168.96 512 337.92 512 512 C343.04 512 174.08 512 0 512 C0 343.04 0 174.08 0 0 Z " fill="#D72B6B" transform="translate(0,0)"></path><path d="M0 0 C2.18359375 1.50390625 2.18359375 1.50390625 4.4375 3.5625 C22.74334434 18.90350477 46.08344212 20.57998259 69 19 C82.33188111 17.15049048 95.06185826 12.37068617 105.3125 3.5625 C109.4032645 0.1107116 109.4032645 0.1107116 112.10546875 -0.390625 C114 -0.1875 114 -0.1875 117 1 C119 4 119 4 119.0625 7.1875 C118.0091226 10.96726596 117.44418135 11.87207638 114.875 14.5625 C100.83868296 29.60758726 99.18408291 50.25239702 99.6796875 69.79296875 C100.42503686 87.49635659 105.21200387 103.47790416 117.5 116.6875 C119 119 119 119 118.9375 122.6875 C118 126 118 126 115 128 C111.78911473 128.46988565 110.44970749 128.30707929 107.74609375 126.4609375 C106.98425781 125.77257812 106.22242188 125.08421875 105.4375 124.375 C87.11752528 109.03608626 63.45995271 107.30929732 40.55371094 109.20214844 C26.71850823 110.83963335 14.52784911 115.90376217 4 125 C0.45534838 128.01570167 0.45534838 128.01570167 -3.625 127.875 C-7 127 -7 127 -9 124 C-9.46988565 120.78911473 -9.30707929 119.44970749 -7.4609375 116.74609375 C-6.77257812 115.98425781 -6.08421875 115.22242188 -5.375 114.4375 C10.04033609 96.02625054 11.26693963 72.95000974 10 50 C8.54813746 36.5166374 3.36128266 23.84902393 -5.5 13.5625 C-8.89336506 9.57841375 -8.89336506 9.57841375 -9.38671875 6.90234375 C-9.1875 5 -9.1875 5 -8 2 C-4.73635657 -0.17576229 -3.78459928 -0.50803821 0 0 Z " fill="#FEFAFB" transform="translate(201,192)"></path><path d="M0 0 C7.04689776 5.07335308 12.15310014 10.69903935 15 19 C15 19.99 15 20.98 15 22 C29.355 21.505 29.355 21.505 44 21 C41.69 18.69 39.38 16.38 37 14 C37 13.34 37 12.68 37 12 C38.75 10.2734375 38.75 10.2734375 41 8.375 C41.7425 7.74335938 42.485 7.11171875 43.25 6.4609375 C43.8275 5.97882813 44.405 5.49671875 45 5 C50.19305721 7.2867176 53.71161145 11.30395548 57.6875 15.25 C58.8640918 16.37728516 58.8640918 16.37728516 60.06445312 17.52734375 C65.67353582 23.08309895 65.67353582 23.08309895 67.18359375 27.32421875 C66.96971017 30.44145821 66.53906858 31.3522783 64.375 33.5625 C63.73691406 34.2225 63.09882813 34.8825 62.44140625 35.5625 C61.63574219 36.366875 60.83007812 37.17125 60 38 C58.92370427 39.14388262 57.84964811 40.28987493 56.77734375 41.4375 C55.62387999 42.64725018 54.46892329 43.85557858 53.3125 45.0625 C52.7541748 45.6594165 52.19584961 46.25633301 51.62060547 46.87133789 C49.98828125 48.53515625 49.98828125 48.53515625 47 51 C44.16510751 50.6859361 43.25484582 50.27647264 41.296875 48.15234375 C39.86458333 46.1015625 38.43229167 44.05078125 37 42 C39.31 39.69 41.62 37.38 44 35 C34.43 34.67 24.86 34.34 15 34 C14.67 35.65 14.34 37.3 14 39 C10.57141433 48.40096071 4.27177967 53.78901364 -4.5703125 58.0546875 C-12.04326074 60.96216897 -20.56760842 61.17633056 -28.125 58.5 C-37.58051076 54.20067396 -43.20627532 47.53512052 -47 38 C-49.62698728 30.11903816 -49.01975257 21.05003043 -45.5625 13.5625 C-40.94582957 5.52927721 -34.54453498 -0.31059653 -25.734375 -3.375 C-16.7765437 -5.4225043 -7.93508075 -4.76361644 0 0 Z " fill="#FEFBFC" transform="translate(138,228)"></path><path d="M0 0 C1.2065625 0.27714844 2.413125 0.55429688 3.65625 0.83984375 C5.27078763 1.20593077 6.88537357 1.57180483 8.5 1.9375 C9.29148438 2.11990234 10.08296875 2.30230469 10.8984375 2.49023438 C30.05880661 6.80917004 52.53276238 7.45169237 71 0 C71.99 0 72.98 0 74 0 C73.58427734 1.57587891 73.58427734 1.57587891 73.16015625 3.18359375 C72.79394747 4.60147902 72.42808046 6.0194526 72.0625 7.4375 C71.78889648 8.46907227 71.78889648 8.46907227 71.50976562 9.52148438 C66.66930086 28.44330117 67.24552235 49.44238733 73 68 C73.36691664 69.99411216 73.71155562 71.99303439 74 74 C68.92997048 73.21651847 64.05394143 72.024754 59.09765625 70.71875 C44.82118479 67.40617655 28.24989238 67.7115633 14 71 C12.06655407 71.40485844 10.13310369 71.80969635 8.19946289 72.21362305 C5.46234412 72.79121167 2.73095305 73.39401929 0 74 C0.19335938 73.26136719 0.38671875 72.52273438 0.5859375 71.76171875 C0.97652344 70.23998047 0.97652344 70.23998047 1.375 68.6875 C1.63023437 67.70136719 1.88546875 66.71523438 2.1484375 65.69921875 C4.35606142 56.10921944 5.35678709 47.10857461 5.3125 37.25 C5.30976074 36.01733398 5.30702148 34.78466797 5.30419922 33.51464844 C5.20238574 24.641662 4.37221563 16.57479777 2 8 C1.62937632 6.53732473 1.2622854 5.07375049 0.8984375 3.609375 C0.60195312 2.41828125 0.30546875 1.2271875 0 0 Z " fill="#D72C6C" transform="translate(219,219)"></path><path d="M0 0 C2.96490151 1.93084635 5.28478698 3.91056069 7.53125 6.6484375 C8.5521875 7.7621875 8.5521875 7.7621875 9.59375 8.8984375 C15.16925509 16.81205762 16.69468778 23.97662646 15.53125 33.6484375 C13.03929319 43.22981153 8.25315832 50.19257755 -0.16015625 55.359375 C-8.50411646 60.01843908 -16.73465154 61.17368202 -26.2109375 59.02734375 C-34.75916398 56.03146998 -41.32520207 50.44808075 -45.46875 42.3984375 C-49.23484738 34.18625294 -50.14669339 25.0665295 -47.4453125 16.34375 C-43.30417342 7.35221598 -37.40493133 0.99941308 -28.21875 -2.8515625 C-17.9096242 -6.0435094 -9.40501211 -5.27175679 0 0 Z " fill="#FEFAFB" transform="translate(413.46875,228.3515625)"></path><path d="M0 0 C7.61735541 4.45129411 13.57388823 10.84516376 16.81640625 19.1171875 C19.238249 28.65224133 17.27374936 38.10817431 12.8125 46.6875 C7.45494069 53.17296654 1.12957503 59.63347113 -7.58666992 60.84350586 C-9.73435737 60.96378036 -11.84946495 60.98005391 -14 60.9375 C-14.7535376 60.92517334 -15.5070752 60.91284668 -16.28344727 60.90014648 C-25.99923444 60.60572869 -31.14675232 57.84121665 -38.2890625 51.10546875 C-45.09048565 43.49769131 -47.06712811 34.81350286 -46.96875 24.828125 C-45.97653333 16.8522295 -41.50999701 9.33188048 -35.5078125 4.03125 C-25.04001476 -3.87214749 -12.10857628 -5.4941322 0 0 Z " fill="#FEFAFC" transform="translate(366.5625,124.4375)"></path><path d="M0 0 C7.93513465 4.60367187 13.85697185 11.02363444 16.8671875 19.76953125 C19.03979684 29.35851692 18.13578615 37.39368022 13.26171875 45.9375 C8.5731097 52.92363144 2.73512512 58.2345132 -5.5 60.5625 C-14.27888085 61.79091551 -23.64589913 61.92553433 -31.390625 57.171875 C-39.35050886 51.09877843 -44.48670363 44.51713204 -46.5 34.5625 C-47.43989054 24.0542156 -45.63814945 16.09635733 -39 7.8125 C-28.51333912 -3.04042293 -13.84352224 -6.24007253 0 0 Z " fill="#FEFAFB" transform="translate(174.5,124.4375)"></path><path d="M0 0 C7.95717024 4.88094463 14.01037994 11.85518161 16.92578125 20.82421875 C18.77374712 30.92269891 17.41639248 39.86058228 11.6875 48.34375 C5.82270178 55.67474777 -1.25388753 60.13875897 -10.59375 61.51171875 C-20.85494274 62.19120272 -29.20717106 59.66969193 -37.0625 52.88671875 C-43.67790182 46.04026429 -46.83038796 38.94560804 -47.1875 29.4375 C-46.79373935 19.25938393 -43.2260582 12.40910252 -36.14453125 5.14453125 C-26.57846718 -3.44819721 -11.86013205 -5.46692151 0 0 Z " fill="#FEFAFB" transform="translate(174.6875,329.0625)"></path><path d="M0 0 C8.62363528 5.32505781 13.92099592 12.35229167 17.3125 21.9375 C18.81644165 30.87485816 16.82411578 40.79840626 11.625 48.25 C5.9120604 55.15077853 -1.44282399 60.23494215 -10.44921875 61.44140625 C-21.00663779 61.59897967 -28.78121922 60.03749574 -37.0625 52.88671875 C-43.67790182 46.04026429 -46.83038796 38.94560804 -47.1875 29.4375 C-46.79373935 19.25938393 -43.2260582 12.40910252 -36.14453125 5.14453125 C-26.57846718 -3.44819721 -11.86013205 -5.46692151 0 0 Z " fill="#FEFAFC" transform="translate(366.6875,329.0625)"></path><path d="M0 0 C1.33658287 0.00650326 2.67317266 0.01171445 4.00976562 0.015625 C15.14839655 0.103983 25.72647701 0.80426525 36.5625 3.4375 C37.46057373 3.65237061 38.35864746 3.86724121 39.28393555 4.08862305 C47.2951352 6.08839301 54.77820819 8.88213684 62.3125 12.25 C61.66800393 15.26217112 60.66227818 17.76655836 59.25 20.5 C58.88777344 21.20640625 58.52554688 21.9128125 58.15234375 22.640625 C57.73662109 23.43726563 57.73662109 23.43726563 57.3125 24.25 C55.85416667 23.8125 54.39583333 23.375 52.9375 22.9375 C52.01839844 22.66292969 51.09929687 22.38835937 50.15234375 22.10546875 C48.39187406 21.57514844 46.63357359 21.03749494 44.87890625 20.48828125 C31.11064823 16.21537359 17.91442119 14.04830782 3.50927734 14.00976562 C1.34562412 14.00014725 -0.81704111 13.96910451 -2.98046875 13.9375 C-16.00223211 13.83689846 -28.07055888 15.95915909 -40.375 20.375 C-41.87849307 20.89962311 -43.38238551 21.42310343 -44.88671875 21.9453125 C-45.52440186 22.17234863 -46.16208496 22.39938477 -46.8190918 22.63330078 C-48.75739581 23.27307027 -50.70215501 23.77862151 -52.6875 24.25 C-53.52864171 22.81705502 -54.36015687 21.37845595 -55.1875 19.9375 C-55.6515625 19.13699219 -56.115625 18.33648437 -56.59375 17.51171875 C-57.6875 15.25 -57.6875 15.25 -57.6875 12.25 C-49.33057276 8.38808665 -41.05102952 5.76873855 -32.08813477 3.79101562 C-30.25701581 3.37834812 -28.43308887 2.93363299 -26.61303711 2.47460938 C-17.63357046 0.3260896 -9.21015033 -0.14482792 0 0 Z " fill="#FEF9FB" transform="translate(253.6875,108.75)"></path><path d="M0 0 C1.7015625 0.5878125 1.7015625 0.5878125 3.4375 1.1875 C8.0240075 2.70429776 12.6286207 4.15608361 17.25 5.5625 C17.91572021 5.77221436 18.58144043 5.98192871 19.26733398 6.19799805 C30.99930955 9.71856363 42.88463069 10.40970028 55.0625 10.375 C55.7844455 10.37445618 56.50639099 10.37391235 57.25021362 10.37335205 C73.44321251 10.31746247 88.08574753 8.14856974 103.06860352 1.84326172 C107.71220342 -0.09593219 107.71220342 -0.09593219 111 1 C112.16796875 2.99609375 112.16796875 2.99609375 113.1875 5.4375 C113.53167969 6.24058594 113.87585938 7.04367187 114.23046875 7.87109375 C115 10 115 10 115 12 C85.4266765 22.82529681 53.21412035 29.64391025 22 21 C21.18289551 20.77473633 20.36579102 20.54947266 19.52392578 20.31738281 C11.15370001 17.98086659 2.93207576 15.5774194 -5 12 C-4.54738642 10.56068883 -4.08767021 9.12361001 -3.625 7.6875 C-3.24214844 6.48673828 -3.24214844 6.48673828 -2.8515625 5.26171875 C-2 3 -2 3 0 0 Z " fill="#FEFAFB" transform="translate(201,379)"></path><path d="M0 0 C5.89274826 3.14332427 11.01427207 6.9297082 16.25 11.0625 C17.45269531 11.99932617 17.45269531 11.99932617 18.6796875 12.95507812 C27.85040509 20.13982928 27.85040509 20.13982928 28.5 23.875 C27.3750327 30.90604564 18.836964 35.25201862 13.4375 39.1875 C12.16229492 40.13012695 12.16229492 40.13012695 10.86132812 41.09179688 C3.9761012 46.14096329 3.9761012 46.14096329 0 48 C-1.17249353 46.54634731 -2.33783816 45.08692581 -3.5 43.625 C-4.47453125 42.40683594 -4.47453125 42.40683594 -5.46875 41.1640625 C-7 39 -7 39 -7 37 C-5.5390625 35.7109375 -5.5390625 35.7109375 -3.625 34.375 C-2.99851562 33.92898438 -2.37203125 33.48296875 -1.7265625 33.0234375 C0 32 0 32 2 32 C2 31.34 2 30.68 2 30 C-6.25 30 -14.5 30 -23 30 C-23 26.04 -23 22.08 -23 18 C-14.75 18 -6.5 18 2 18 C2 17.34 2 16.68 2 16 C1.2575 15.731875 0.515 15.46375 -0.25 15.1875 C-2.86636554 14.05770579 -4.80187111 12.79106798 -7 11 C-5.5140084 6.40693504 -3.14985318 3.56430755 0 0 Z " fill="#FEFCFD" transform="translate(330,232)"></path><path d="M0 0 C5.12924988 2.29388718 8.72686432 5.69346482 11.84765625 10.34765625 C13.5976367 15.59759759 13.98482049 21.49766788 11.90625 26.70703125 C8.91797926 31.69060503 5.47444009 35.47206164 -0.15234375 37.34765625 C-6.42661048 38.02572338 -12.37702135 38.57198874 -17.71484375 34.78515625 C-21.94801799 30.93681603 -24.71154699 27.45619174 -25.52734375 21.703125 C-25.80567049 15.34509857 -25.00647651 11.41888356 -21.15234375 6.34765625 C-14.97530858 0.15410494 -8.60883983 -2.6092128 0 0 Z " fill="#C92061" transform="translate(166.15234375,339.65234375)"></path><path d="M0 0 C5.12924988 2.29388718 8.72686432 5.69346482 11.84765625 10.34765625 C13.5976367 15.59759759 13.98482049 21.49766788 11.90625 26.70703125 C8.91797926 31.69060503 5.47444009 35.47206164 -0.15234375 37.34765625 C-6.39300029 38.02209109 -12.37531318 38.56517848 -17.71484375 34.84765625 C-22.09334892 30.88571076 -24.64354454 26.72375102 -25.52734375 20.859375 C-25.82087001 14.81456848 -24.76049623 11.19017669 -21.15234375 6.34765625 C-14.98552576 0.14786062 -8.60101559 -2.60684139 0 0 Z " fill="#D72D6D" transform="translate(358.15234375,339.65234375)"></path><path d="M0 0 C5.09473426 3.07606597 9.40478922 7.27686765 11.3125 13 C12.11692494 19.46987486 11.50401859 23.98286213 7.66796875 29.3125 C3.60675523 34.36853527 0.55561209 36.39280849 -5.98046875 37.328125 C-12.03177992 37.74092762 -15.93644907 36.49393955 -20.76953125 32.82421875 C-25.43971921 28.38230882 -26.89757772 23.87003277 -27.25 17.5 C-27.00925393 11.8929464 -25.50948745 8.11026388 -21.6875 4 C-15.09437031 -1.99375427 -8.34772045 -2.2637886 0 0 Z " fill="#E23775" transform="translate(404.6875,238)"></path><path d="M0 0 C4.63635933 2.65068624 7.36328486 6.04185904 10 10.6875 C11.22234795 15.46576926 11.71604053 19.96090486 9.7421875 24.59375 C6.38912452 30.24545364 2.18982834 34.64104578 -4.3125 36.375 C-10.75098587 37.21044367 -15.28980997 36.61049915 -20.62109375 32.80859375 C-24.81244008 29.25611314 -27.02691104 26.01760162 -27.62109375 20.51953125 C-27.88336366 13.74025135 -27.74768034 9.11763473 -23.07421875 3.96484375 C-16.26720891 -2.17806757 -8.64935269 -3.88404894 0 0 Z " fill="#CD2465" transform="translate(130.3125,238.625)"></path><path d="M0 0 C5.14448349 2.71113169 8.49026005 7.00521279 10.74609375 12.265625 C11.7327589 19.01166111 10.76261652 24.71664431 6.74609375 30.265625 C2.37833407 34.9684457 -2.20632664 37.2892842 -8.56640625 37.703125 C-13.80478928 37.58089606 -17.27836034 35.55604282 -21.25390625 32.265625 C-26.29894257 26.95506045 -27.80088034 22.05103685 -27.62890625 14.828125 C-26.80359035 9.18846632 -23.43197784 4.98525482 -19.25390625 1.265625 C-13.75011486 -2.2949418 -6.06619339 -1.97650668 0 0 Z " fill="#E63B79" transform="translate(360.25390625,135.734375)"></path><path d="M0 0 C5.14448349 2.71113169 8.49026005 7.00521279 10.74609375 12.265625 C11.7327589 19.01166111 10.76261652 24.71664431 6.74609375 30.265625 C2.37833407 34.9684457 -2.20632664 37.2892842 -8.56640625 37.703125 C-13.80478928 37.58089606 -17.27836034 35.55604282 -21.25390625 32.265625 C-26.29894257 26.95506045 -27.80088034 22.05103685 -27.62890625 14.828125 C-26.80359035 9.18846632 -23.43197784 4.98525482 -19.25390625 1.265625 C-13.75011486 -2.2949418 -6.06619339 -1.97650668 0 0 Z " fill="#D82E6D" transform="translate(168.25390625,135.734375)"></path><path d="M0 0 C0.28721924 0.72590332 0.57443848 1.45180664 0.87036133 2.19970703 C2.18165011 5.50923823 3.4970349 8.8171267 4.8125 12.125 C5.49022461 13.83816406 5.49022461 13.83816406 6.18164062 15.5859375 C6.62314453 16.69453125 7.06464844 17.803125 7.51953125 18.9453125 C7.92276611 19.96125488 8.32600098 20.97719727 8.74145508 22.02392578 C10.03715593 25.08786243 11.48183251 28.04082728 13 31 C11.37829621 32.00533667 9.75252763 33.00411907 8.125 34 C7.22007812 34.556875 6.31515625 35.11375 5.3828125 35.6875 C3 37 3 37 1 37 C-12.59192851 9.3114491 -12.59192851 9.3114491 -11.5859375 3.68359375 C-11.39257812 3.12800781 -11.19921875 2.57242187 -11 2 C-7.12315913 0.80712589 -4.08378077 0 0 0 Z " fill="#FDF8FA" transform="translate(127,293)"></path><path d="M0 0 C1.6256807 0.30893932 3.25052748 0.6222695 4.875 0.9375 C5.77992188 1.11152344 6.68484375 1.28554688 7.6171875 1.46484375 C10 2 10 2 12 3 C10.50422461 14.59225927 5.26457907 26.16127237 -1 36 C-5.19360449 35.32902328 -8.40334352 33.1441606 -12 31 C-11.36667354 26.55827046 -9.64551198 22.8598424 -7.6875 18.875 C-4.724289 12.70601594 -2.17451811 6.49654169 0 0 Z " fill="#FDF8FA" transform="translate(385,293)"></path><path d="M0 0 C1.23266602 1.69897461 1.23266602 1.69897461 2.25390625 3.90234375 C2.63353516 4.71123047 3.01316406 5.52011719 3.40429688 6.35351562 C3.97760742 7.63258789 3.97760742 7.63258789 4.5625 8.9375 C4.94857422 9.75541016 5.33464844 10.57332031 5.73242188 11.41601562 C12 25.00822509 12 25.00822509 12 32 C10.56445975 32.50559908 9.1264798 33.0042749 7.6875 33.5 C6.88699219 33.7784375 6.08648437 34.056875 5.26171875 34.34375 C3 35 3 35 0 35 C-0.36351562 33.98421875 -0.72703125 32.9684375 -1.1015625 31.921875 C-3.93935804 24.11365488 -6.95685623 16.68276726 -10.8984375 9.35546875 C-12 7 -12 7 -12 4 C-10.390625 2.578125 -10.390625 2.578125 -8.25 1.25 C-7.55390625 0.80140625 -6.8578125 0.3528125 -6.140625 -0.109375 C-3.51846903 -1.200345 -2.61029471 -1.03986318 0 0 Z " fill="#FEF9FB" transform="translate(385,184)"></path><path d="M0 0 C4.03791199 1.28631545 7.43360176 2.69233055 11 5 C10.39842548 8.9603656 9.14284911 11.92011802 7.25 15.4375 C3.81426596 22.10149622 1.37314215 28.90157482 -1 36 C-5.571279 35.45144652 -9.67435795 34.58255197 -14 33 C-10.44380668 21.24031527 -6.17681468 10.62913794 0 0 Z " fill="#FDF9FB" transform="translate(128,183)"></path></svg>