<svg version="1.1" xmlns="http://www.w3.org/2000/svg" width="16px" height="16px" fill="currentColor" viewBox="0 0 512 512"><path d="M0 0 C168.96 0 337.92 0 512 0 C512 168.96 512 337.92 512 512 C343.04 512 174.08 512 0 512 C0 343.04 0 174.08 0 0 Z " fill="#438926" transform="translate(0,0)"></path><path d="M0 0 C3.96 0 7.92 0 12 0 C12 7.92 12 15.84 12 24 C13.65 24.33 15.3 24.66 17 25 C19.64072835 26.00645209 22.23850535 27.04912547 24.83984375 28.1484375 C25.61866409 28.47308487 26.39748444 28.79773224 27.1999054 29.13221741 C29.78084406 30.20902994 32.35911159 31.29209697 34.9375 32.375 C36.7435915 33.12952308 38.54991084 33.88350101 40.35644531 34.63696289 C43.21395237 35.82881399 46.07131519 37.02099883 48.92800903 38.21479797 C59.33419194 42.56280922 69.75756157 46.8689987 80.18264771 51.17144775 C83.21571604 52.42334927 86.24840523 53.67616522 89.28100586 54.92919922 C91.1508663 55.70152791 93.02073874 56.47382757 94.890625 57.24609375 C95.74094803 57.59744888 96.59127106 57.94880402 97.46736145 58.31080627 C98.99836611 58.9427739 100.5306565 59.57164128 102.0645752 60.19650269 C103.66485209 60.86086236 105.24523936 61.57290931 106.81933594 62.29711914 C109.4457917 63.14368947 110.48662563 63.12600425 113 62 C115.19157867 60.22144687 115.19157867 60.22144687 117.328125 57.96484375 C118.12734375 57.15595703 118.9265625 56.34707031 119.75 55.51367188 C120.575 54.66353516 121.4 53.81339844 122.25 52.9375 C123.51070313 51.65649414 123.51070313 51.65649414 124.796875 50.34960938 C126.87147597 48.23964588 128.93875832 46.12300292 131 44 C132.13199353 44.9080162 133.25532363 45.82683826 134.375 46.75 C135.00148438 47.26046875 135.62796875 47.7709375 136.2734375 48.296875 C138.08312318 50.08199481 139.00117455 51.67949644 140 54 C139.44948975 54.51385254 138.89897949 55.02770508 138.33178711 55.55712891 C135.84884059 57.89460774 133.39331908 60.25905033 130.9375 62.625 C129.6371582 63.83736328 129.6371582 63.83736328 128.31054688 65.07421875 C127.49521484 65.86699219 126.67988281 66.65976563 125.83984375 67.4765625 C125.08050537 68.19924316 124.32116699 68.92192383 123.53881836 69.66650391 C121.7336835 71.92207415 121.7336835 71.92207415 122.06323242 74.78662109 C123.18056059 78.61937412 124.58733181 82.26970079 126.1484375 85.9375 C126.63540855 87.10360809 126.63540855 87.10360809 127.13221741 88.29327393 C128.20740091 90.86463099 129.2912865 93.43222777 130.375 96 C131.12971361 97.80145384 131.88368776 99.60321763 132.63696289 101.40527344 C133.82844403 104.25525782 135.02046468 107.10500589 136.21479797 109.95379639 C140.57172351 120.3473705 144.87353638 130.76355426 149.17144775 141.18164062 C150.42314534 144.21521056 151.67600691 147.24829728 152.92919922 150.28125 C153.70152374 152.15103078 154.4738232 154.02082192 155.24609375 155.890625 C155.59744888 156.74094299 155.94880402 157.59126099 156.31080627 158.46734619 C156.94250148 159.99770064 157.57253214 161.52874391 158.20040894 163.06066895 C158.86527311 164.67323291 159.54773865 166.2785262 160.23461914 167.88183594 C161 170 161 170 161 173 C168.92 173 176.84 173 185 173 C185 176.96 185 180.92 185 185 C177.08 185 169.16 185 161 185 C159.515 189.95 159.515 189.95 158 195 C156.84184056 197.97414946 155.6584074 200.90510919 154.40234375 203.8359375 C154.05541473 204.65763428 153.70848572 205.47933105 153.3510437 206.32592773 C152.60489268 208.09241197 151.85660491 209.85799494 151.10635376 211.6227417 C149.0911889 216.36777859 147.09859725 221.12231177 145.1015625 225.875 C144.25954652 227.87634686 143.41742292 229.87764844 142.57519531 231.87890625 C142.15226196 232.88421387 141.72932861 233.88952148 141.2935791 234.92529297 C140.42622094 236.98691581 139.55862384 239.04843814 138.6907959 241.10986328 C136.12068264 247.21887076 133.56455273 253.33341317 131.02664185 259.45587158 C130.21955183 261.39633628 129.40762422 263.33479621 128.59078979 265.2711792 C127.45067294 267.97537332 126.32702029 270.68585751 125.20703125 273.3984375 C124.86525848 274.19862305 124.52348572 274.99880859 124.1713562 275.82324219 C122.88380108 278.98181128 121.98545932 281.33898084 122.06103516 284.7746582 C123.22745743 287.53907294 124.66372153 289.11812978 126.81640625 291.20703125 C127.58017578 291.95791016 128.34394531 292.70878906 129.13085938 293.48242188 C129.93330078 294.25134766 130.73574219 295.02027344 131.5625 295.8125 C132.36880859 296.60076172 133.17511719 297.38902344 134.00585938 298.20117188 C135.99520169 300.14342916 137.99327271 302.07573661 140 304 C139.0919838 305.13199353 138.17316174 306.25532363 137.25 307.375 C136.73953125 308.00148438 136.2290625 308.62796875 135.703125 309.2734375 C133.91800519 311.08312318 132.32050356 312.00117455 130 313 C129.48614746 312.44948975 128.97229492 311.89897949 128.44287109 311.33178711 C126.10539226 308.84884059 123.74094967 306.39331908 121.375 303.9375 C120.56675781 303.07060547 119.75851562 302.20371094 118.92578125 301.31054688 C118.13300781 300.49521484 117.34023438 299.67988281 116.5234375 298.83984375 C115.80075684 298.08050537 115.07807617 297.32116699 114.33349609 296.53881836 C112.07212107 294.72779284 112.07212107 294.72779284 109.17236328 295.0769043 C105.56968056 296.12521454 102.1535741 297.43594204 98.71875 298.9296875 C98.00815933 299.23204819 97.29756866 299.53440887 96.56544495 299.84593201 C95.01958656 300.50434375 93.4749559 301.16564385 91.931427 301.82949829 C87.71916304 303.64075118 83.49768263 305.43031918 79.27734375 307.22265625 C78.38156113 307.60373032 77.4857785 307.98480438 76.56285095 308.37742615 C65.43061288 313.10569814 54.24597801 317.70708039 43.0625 322.3125 C40.09650772 323.53422165 37.13055601 324.75604101 34.16477966 325.97828674 C32.3886987 326.71008991 30.61239872 327.44136188 28.83583069 328.17198181 C28.03672775 328.50106033 27.23762482 328.83013885 26.41430664 329.16918945 C25.66335724 329.47772858 24.91240784 329.7862677 24.13870239 330.10415649 C22.11084068 330.95357189 20.10620416 331.84527626 18.09936523 332.74291992 C15 334 15 334 12 334 C12 341.92 12 349.84 12 358 C8.04 358 4.08 358 0 358 C0 350.08 0 342.16 0 334 C-1.65 333.67 -3.3 333.34 -5 333 C-6.39450665 332.51052788 -7.77520396 331.98002048 -9.13964844 331.41210938 C-9.92933517 331.08606216 -10.71902191 330.76001495 -11.53263855 330.42408752 C-12.38296158 330.06757614 -13.23328461 329.71106476 -14.109375 329.34375 C-15.01307327 328.96915146 -15.91677155 328.59455292 -16.84785461 328.20860291 C-19.81702537 326.9766597 -22.783493 325.73834209 -25.75 324.5 C-27.80637828 323.64547909 -29.86293962 322.7913986 -31.91967773 321.93774414 C-36.16277119 320.175866 -40.40481331 318.41149199 -44.64599609 316.64501953 C-53.55232522 312.93607548 -62.46556078 309.2438087 -71.3782959 305.55029297 C-74.02368549 304.45359137 -76.66865532 303.35588394 -79.31347656 302.2578125 C-80.13406052 301.91722305 -80.95464447 301.57663361 -81.8000946 301.22572327 C-83.31925064 300.59514224 -84.83831144 299.96433171 -86.35725403 299.33323669 C-88.23718045 298.55310383 -90.118525 297.77639064 -92 297 C-92.88357178 296.58242432 -93.76714355 296.16484863 -94.67749023 295.73461914 C-97.60642163 294.80818641 -99.10903484 294.98123505 -102 296 C-104.20494525 297.65780839 -104.20494525 297.65780839 -106.20703125 299.81640625 C-106.95791016 300.58017578 -107.70878906 301.34394531 -108.48242188 302.13085938 C-109.25134766 302.93330078 -110.02027344 303.73574219 -110.8125 304.5625 C-111.60076172 305.36880859 -112.38902344 306.17511719 -113.20117188 307.00585938 C-115.14342916 308.99520169 -117.07573661 310.99327271 -119 313 C-122.21043882 311.61811547 -124.04936365 310.07578097 -126.25 307.375 C-126.77078125 306.74335938 -127.2915625 306.11171875 -127.828125 305.4609375 C-128.21484375 304.97882813 -128.6015625 304.49671875 -129 304 C-128.41919678 303.45585449 -127.83839355 302.91170898 -127.23999023 302.35107422 C-124.62098828 299.87749933 -122.02936387 297.37698324 -119.4375 294.875 C-118.52291016 294.0190625 -117.60832031 293.163125 -116.66601562 292.28125 C-115.80556641 291.44335938 -114.94511719 290.60546875 -114.05859375 289.7421875 C-112.85674438 288.59532471 -112.85674438 288.59532471 -111.63061523 287.42529297 C-109.73581192 285.10347676 -109.73581192 285.10347676 -110.03588867 282.22705078 C-111.22997092 278.23024673 -112.72083277 274.45468448 -114.3671875 270.625 C-114.71412155 269.80311188 -115.0610556 268.98122375 -115.41850281 268.13442993 C-116.17125803 266.35287016 -116.92689455 264.57252564 -117.68508911 262.79327393 C-119.30384062 258.99331173 -120.90740087 255.18700181 -122.51191711 251.38101196 C-123.3579662 249.37451066 -124.20472976 247.36831048 -125.0521698 245.36239624 C-129.50544877 234.81915375 -133.91267935 224.2570265 -138.29376221 213.68359375 C-139.13735107 211.64992247 -139.98284134 209.61703883 -140.83026123 207.58496094 C-142.01745081 204.73809474 -143.19887792 201.88890306 -144.37890625 199.0390625 C-144.73224533 198.19509918 -145.08558441 197.35113586 -145.44963074 196.4815979 C-145.7724855 195.69828094 -146.09534027 194.91496399 -146.42797852 194.10791016 C-146.84950951 193.09333237 -146.84950951 193.09333237 -147.27955627 192.05825806 C-148 190 -148 190 -149 185 C-156.92 185 -164.84 185 -173 185 C-173 181.04 -173 177.08 -173 173 C-165.08 173 -157.16 173 -149 173 C-148.67 171.35 -148.34 169.7 -148 168 C-147.0419043 165.44721674 -146.04914277 162.93647205 -145 160.421875 C-144.69226151 159.6741835 -144.38452301 158.926492 -144.06745911 158.15614319 C-143.0493127 155.68561226 -142.02471228 153.21781398 -141 150.75 C-140.28568158 149.02057915 -139.57173919 147.29100294 -138.8581543 145.5612793 C-136.96696812 140.98064379 -135.06998124 136.40243391 -133.17132568 131.82489014 C-131.60990723 128.05921194 -130.05111858 124.29244739 -128.49221802 120.52572632 C-125.54626475 113.40815381 -122.59868952 106.29125352 -119.64376831 99.17739868 C-118.98815466 97.59756261 -118.33391258 96.0171565 -117.68118286 94.43612671 C-116.27825363 91.04310598 -114.86084935 87.66098887 -113.36865234 84.30615234 C-112.90023926 83.23961426 -112.43182617 82.17307617 -111.94921875 81.07421875 C-111.54405029 80.17662842 -111.13888184 79.27903809 -110.72143555 78.35424805 C-109.88732056 75.63229515 -109.84243929 74.58705118 -111 72 C-112.77855313 69.80842133 -112.77855313 69.80842133 -115.03515625 67.671875 C-115.84404297 66.87265625 -116.65292969 66.0734375 -117.48632812 65.25 C-118.33646484 64.425 -119.18660156 63.6 -120.0625 62.75 C-120.91650391 61.90953125 -121.77050781 61.0690625 -122.65039062 60.203125 C-124.76035412 58.12852403 -126.87699708 56.06124168 -129 54 C-128.0919838 52.86800647 -127.17316174 51.74467637 -126.25 50.625 C-125.73953125 49.99851563 -125.2290625 49.37203125 -124.703125 48.7265625 C-122.91800519 46.91687682 -121.32050356 45.99882545 -119 45 C-118.23707642 45.82576538 -118.23707642 45.82576538 -117.45874023 46.66821289 C-115.13955943 49.15382066 -112.78944946 51.60789335 -110.4375 54.0625 C-109.63763672 54.92939453 -108.83777344 55.79628906 -108.01367188 56.68945312 C-106.8293457 57.91245117 -106.8293457 57.91245117 -105.62109375 59.16015625 C-104.9036499 59.91949463 -104.18620605 60.67883301 -103.44702148 61.46118164 C-101.00377355 63.31466715 -101.00377355 63.31466715 -97.61499023 62.90014648 C-94.05354719 62.01333346 -90.90145266 60.90370786 -87.5390625 59.4375 C-86.62228226 59.0427523 -86.62228226 59.0427523 -85.6869812 58.64002991 C-84.35998857 58.06775954 -83.03460543 57.49174544 -81.71069336 56.91238403 C-78.0673018 55.31858681 -74.4115246 53.75354892 -70.7578125 52.18359375 C-69.98080994 51.84879501 -69.20380737 51.51399628 -68.40325928 51.16905212 C-58.80730885 47.04125272 -49.15329509 43.05384934 -39.5 39.0625 C-37.80026776 38.35878484 -36.10056019 37.65501009 -34.40087891 36.95117188 C-31.16945549 35.61321483 -27.9366865 34.27858091 -24.703125 32.94580078 C-21.49951954 31.62406325 -18.30263982 30.28743791 -15.109375 28.94091797 C-13.93767761 28.44995888 -13.93767761 28.44995888 -12.74230957 27.94908142 C-11.26484513 27.32978584 -9.78906899 26.70644141 -8.31530762 26.0783844 C-5.37731205 24.85159771 -3.21812466 24 0 24 C0 16.08 0 8.16 0 0 Z " fill="#438A27" transform="translate(250,77)"></path><path d="M0 0 C3.96 0 7.92 0 12 0 C12 7.92 12 15.84 12 24 C13.65 24.33 15.3 24.66 17 25 C19.64072835 26.00645209 22.23850535 27.04912547 24.83984375 28.1484375 C25.61866409 28.47308487 26.39748444 28.79773224 27.1999054 29.13221741 C29.78084406 30.20902994 32.35911159 31.29209697 34.9375 32.375 C36.7435915 33.12952308 38.54991084 33.88350101 40.35644531 34.63696289 C43.21395237 35.82881399 46.07131519 37.02099883 48.92800903 38.21479797 C59.33419194 42.56280922 69.75756157 46.8689987 80.18264771 51.17144775 C83.21571604 52.42334927 86.24840523 53.67616522 89.28100586 54.92919922 C91.1508663 55.70152791 93.02073874 56.47382757 94.890625 57.24609375 C95.74094803 57.59744888 96.59127106 57.94880402 97.46736145 58.31080627 C98.99836611 58.9427739 100.5306565 59.57164128 102.0645752 60.19650269 C103.66485209 60.86086236 105.24523936 61.57290931 106.81933594 62.29711914 C109.4457917 63.14368947 110.48662563 63.12600425 113 62 C115.19157867 60.22144687 115.19157867 60.22144687 117.328125 57.96484375 C118.12734375 57.15595703 118.9265625 56.34707031 119.75 55.51367188 C120.575 54.66353516 121.4 53.81339844 122.25 52.9375 C123.51070313 51.65649414 123.51070313 51.65649414 124.796875 50.34960938 C126.87147597 48.23964588 128.93875832 46.12300292 131 44 C132.13199353 44.9080162 133.25532363 45.82683826 134.375 46.75 C135.00148438 47.26046875 135.62796875 47.7709375 136.2734375 48.296875 C138.08312318 50.08199481 139.00117455 51.67949644 140 54 C139.44948975 54.51385254 138.89897949 55.02770508 138.33178711 55.55712891 C135.84884059 57.89460774 133.39331908 60.25905033 130.9375 62.625 C129.6371582 63.83736328 129.6371582 63.83736328 128.31054688 65.07421875 C127.49521484 65.86699219 126.67988281 66.65976563 125.83984375 67.4765625 C125.08050537 68.19924316 124.32116699 68.92192383 123.53881836 69.66650391 C121.7336835 71.92207415 121.7336835 71.92207415 122.06323242 74.78662109 C123.18056059 78.61937412 124.58733181 82.26970079 126.1484375 85.9375 C126.63540855 87.10360809 126.63540855 87.10360809 127.13221741 88.29327393 C128.20740091 90.86463099 129.2912865 93.43222777 130.375 96 C131.12971361 97.80145384 131.88368776 99.60321763 132.63696289 101.40527344 C133.82844403 104.25525782 135.02046468 107.10500589 136.21479797 109.95379639 C140.57172351 120.3473705 144.87353638 130.76355426 149.17144775 141.18164062 C150.42314534 144.21521056 151.67600691 147.24829728 152.92919922 150.28125 C153.70152374 152.15103078 154.4738232 154.02082192 155.24609375 155.890625 C155.59744888 156.74094299 155.94880402 157.59126099 156.31080627 158.46734619 C156.94250148 159.99770064 157.57253214 161.52874391 158.20040894 163.06066895 C158.86527311 164.67323291 159.54773865 166.2785262 160.23461914 167.88183594 C161 170 161 170 161 173 C168.92 173 176.84 173 185 173 C185 176.96 185 180.92 185 185 C177.08 185 169.16 185 161 185 C159.515 189.95 159.515 189.95 158 195 C156.84184056 197.97414946 155.6584074 200.90510919 154.40234375 203.8359375 C154.05541473 204.65763428 153.70848572 205.47933105 153.3510437 206.32592773 C152.60489268 208.09241197 151.85660491 209.85799494 151.10635376 211.6227417 C149.0911889 216.36777859 147.09859725 221.12231177 145.1015625 225.875 C144.25954652 227.87634686 143.41742292 229.87764844 142.57519531 231.87890625 C142.15226196 232.88421387 141.72932861 233.88952148 141.2935791 234.92529297 C140.42622094 236.98691581 139.55862384 239.04843814 138.6907959 241.10986328 C136.12068264 247.21887076 133.56455273 253.33341317 131.02664185 259.45587158 C130.21955183 261.39633628 129.40762422 263.33479621 128.59078979 265.2711792 C127.45067294 267.97537332 126.32702029 270.68585751 125.20703125 273.3984375 C124.86525848 274.19862305 124.52348572 274.99880859 124.1713562 275.82324219 C122.88380108 278.98181128 121.98545932 281.33898084 122.06103516 284.7746582 C123.22745743 287.53907294 124.66372153 289.11812978 126.81640625 291.20703125 C127.58017578 291.95791016 128.34394531 292.70878906 129.13085938 293.48242188 C129.93330078 294.25134766 130.73574219 295.02027344 131.5625 295.8125 C132.36880859 296.60076172 133.17511719 297.38902344 134.00585938 298.20117188 C135.99520169 300.14342916 137.99327271 302.07573661 140 304 C139.0919838 305.13199353 138.17316174 306.25532363 137.25 307.375 C136.73953125 308.00148438 136.2290625 308.62796875 135.703125 309.2734375 C133.91800519 311.08312318 132.32050356 312.00117455 130 313 C129.48614746 312.44948975 128.97229492 311.89897949 128.44287109 311.33178711 C126.10539226 308.84884059 123.74094967 306.39331908 121.375 303.9375 C120.56675781 303.07060547 119.75851562 302.20371094 118.92578125 301.31054688 C118.13300781 300.49521484 117.34023438 299.67988281 116.5234375 298.83984375 C115.80075684 298.08050537 115.07807617 297.32116699 114.33349609 296.53881836 C112.07212107 294.72779284 112.07212107 294.72779284 109.17236328 295.0769043 C105.56968056 296.12521454 102.1535741 297.43594204 98.71875 298.9296875 C98.00815933 299.23204819 97.29756866 299.53440887 96.56544495 299.84593201 C95.01958656 300.50434375 93.4749559 301.16564385 91.931427 301.82949829 C87.71916304 303.64075118 83.49768263 305.43031918 79.27734375 307.22265625 C78.38156113 307.60373032 77.4857785 307.98480438 76.56285095 308.37742615 C65.43061288 313.10569814 54.24597801 317.70708039 43.0625 322.3125 C40.09650772 323.53422165 37.13055601 324.75604101 34.16477966 325.97828674 C32.3886987 326.71008991 30.61239872 327.44136188 28.83583069 328.17198181 C28.03672775 328.50106033 27.23762482 328.83013885 26.41430664 329.16918945 C25.66335724 329.47772858 24.91240784 329.7862677 24.13870239 330.10415649 C22.11084068 330.95357189 20.10620416 331.84527626 18.09936523 332.74291992 C15 334 15 334 12 334 C12 341.92 12 349.84 12 358 C8.04 358 4.08 358 0 358 C0 350.08 0 342.16 0 334 C-1.65 333.67 -3.3 333.34 -5 333 C-6.39450665 332.51052788 -7.77520396 331.98002048 -9.13964844 331.41210938 C-9.92933517 331.08606216 -10.71902191 330.76001495 -11.53263855 330.42408752 C-12.38296158 330.06757614 -13.23328461 329.71106476 -14.109375 329.34375 C-15.01307327 328.96915146 -15.91677155 328.59455292 -16.84785461 328.20860291 C-19.81702537 326.9766597 -22.783493 325.73834209 -25.75 324.5 C-27.80637828 323.64547909 -29.86293962 322.7913986 -31.91967773 321.93774414 C-36.16277119 320.175866 -40.40481331 318.41149199 -44.64599609 316.64501953 C-53.55232522 312.93607548 -62.46556078 309.2438087 -71.3782959 305.55029297 C-74.02368549 304.45359137 -76.66865532 303.35588394 -79.31347656 302.2578125 C-80.13406052 301.91722305 -80.95464447 301.57663361 -81.8000946 301.22572327 C-83.31925064 300.59514224 -84.83831144 299.96433171 -86.35725403 299.33323669 C-88.23718045 298.55310383 -90.118525 297.77639064 -92 297 C-92.88357178 296.58242432 -93.76714355 296.16484863 -94.67749023 295.73461914 C-97.60642163 294.80818641 -99.10903484 294.98123505 -102 296 C-104.20494525 297.65780839 -104.20494525 297.65780839 -106.20703125 299.81640625 C-106.95791016 300.58017578 -107.70878906 301.34394531 -108.48242188 302.13085938 C-109.25134766 302.93330078 -110.02027344 303.73574219 -110.8125 304.5625 C-111.60076172 305.36880859 -112.38902344 306.17511719 -113.20117188 307.00585938 C-115.14342916 308.99520169 -117.07573661 310.99327271 -119 313 C-122.21043882 311.61811547 -124.04936365 310.07578097 -126.25 307.375 C-126.77078125 306.74335938 -127.2915625 306.11171875 -127.828125 305.4609375 C-128.21484375 304.97882813 -128.6015625 304.49671875 -129 304 C-128.41919678 303.45585449 -127.83839355 302.91170898 -127.23999023 302.35107422 C-124.62098828 299.87749933 -122.02936387 297.37698324 -119.4375 294.875 C-118.52291016 294.0190625 -117.60832031 293.163125 -116.66601562 292.28125 C-115.80556641 291.44335938 -114.94511719 290.60546875 -114.05859375 289.7421875 C-112.85674438 288.59532471 -112.85674438 288.59532471 -111.63061523 287.42529297 C-109.73581192 285.10347676 -109.73581192 285.10347676 -110.03588867 282.22705078 C-111.22997092 278.23024673 -112.72083277 274.45468448 -114.3671875 270.625 C-114.71412155 269.80311188 -115.0610556 268.98122375 -115.41850281 268.13442993 C-116.17125803 266.35287016 -116.92689455 264.57252564 -117.68508911 262.79327393 C-119.30384062 258.99331173 -120.90740087 255.18700181 -122.51191711 251.38101196 C-123.3579662 249.37451066 -124.20472976 247.36831048 -125.0521698 245.36239624 C-129.50544877 234.81915375 -133.91267935 224.2570265 -138.29376221 213.68359375 C-139.13735107 211.64992247 -139.98284134 209.61703883 -140.83026123 207.58496094 C-142.01745081 204.73809474 -143.19887792 201.88890306 -144.37890625 199.0390625 C-144.73224533 198.19509918 -145.08558441 197.35113586 -145.44963074 196.4815979 C-145.7724855 195.69828094 -146.09534027 194.91496399 -146.42797852 194.10791016 C-146.84950951 193.09333237 -146.84950951 193.09333237 -147.27955627 192.05825806 C-148 190 -148 190 -149 185 C-156.92 185 -164.84 185 -173 185 C-173 181.04 -173 177.08 -173 173 C-165.08 173 -157.16 173 -149 173 C-148.67 171.35 -148.34 169.7 -148 168 C-147.0419043 165.44721674 -146.04914277 162.93647205 -145 160.421875 C-144.69226151 159.6741835 -144.38452301 158.926492 -144.06745911 158.15614319 C-143.0493127 155.68561226 -142.02471228 153.21781398 -141 150.75 C-140.28568158 149.02057915 -139.57173919 147.29100294 -138.8581543 145.5612793 C-136.96696812 140.98064379 -135.06998124 136.40243391 -133.17132568 131.82489014 C-131.60990723 128.05921194 -130.05111858 124.29244739 -128.49221802 120.52572632 C-125.54626475 113.40815381 -122.59868952 106.29125352 -119.64376831 99.17739868 C-118.98815466 97.59756261 -118.33391258 96.0171565 -117.68118286 94.43612671 C-116.27825363 91.04310598 -114.86084935 87.66098887 -113.36865234 84.30615234 C-112.90023926 83.23961426 -112.43182617 82.17307617 -111.94921875 81.07421875 C-111.54405029 80.17662842 -111.13888184 79.27903809 -110.72143555 78.35424805 C-109.88732056 75.63229515 -109.84243929 74.58705118 -111 72 C-112.77855313 69.80842133 -112.77855313 69.80842133 -115.03515625 67.671875 C-115.84404297 66.87265625 -116.65292969 66.0734375 -117.48632812 65.25 C-118.33646484 64.425 -119.18660156 63.6 -120.0625 62.75 C-120.91650391 61.90953125 -121.77050781 61.0690625 -122.65039062 60.203125 C-124.76035412 58.12852403 -126.87699708 56.06124168 -129 54 C-128.0919838 52.86800647 -127.17316174 51.74467637 -126.25 50.625 C-125.73953125 49.99851563 -125.2290625 49.37203125 -124.703125 48.7265625 C-122.91800519 46.91687682 -121.32050356 45.99882545 -119 45 C-118.23707642 45.82576538 -118.23707642 45.82576538 -117.45874023 46.66821289 C-115.13955943 49.15382066 -112.78944946 51.60789335 -110.4375 54.0625 C-109.63763672 54.92939453 -108.83777344 55.79628906 -108.01367188 56.68945312 C-106.8293457 57.91245117 -106.8293457 57.91245117 -105.62109375 59.16015625 C-104.9036499 59.91949463 -104.18620605 60.67883301 -103.44702148 61.46118164 C-101.00377355 63.31466715 -101.00377355 63.31466715 -97.61499023 62.90014648 C-94.05354719 62.01333346 -90.90145266 60.90370786 -87.5390625 59.4375 C-86.62228226 59.0427523 -86.62228226 59.0427523 -85.6869812 58.64002991 C-84.35998857 58.06775954 -83.03460543 57.49174544 -81.71069336 56.91238403 C-78.0673018 55.31858681 -74.4115246 53.75354892 -70.7578125 52.18359375 C-69.98080994 51.84879501 -69.20380737 51.51399628 -68.40325928 51.16905212 C-58.80730885 47.04125272 -49.15329509 43.05384934 -39.5 39.0625 C-37.80026776 38.35878484 -36.10056019 37.65501009 -34.40087891 36.95117188 C-31.16945549 35.61321483 -27.9366865 34.27858091 -24.703125 32.94580078 C-21.49951954 31.62406325 -18.30263982 30.28743791 -15.109375 28.94091797 C-13.93767761 28.44995888 -13.93767761 28.44995888 -12.74230957 27.94908142 C-11.26484513 27.32978584 -9.78906899 26.70644141 -8.31530762 26.0783844 C-5.37731205 24.85159771 -3.21812466 24 0 24 C0 16.08 0 8.16 0 0 Z M-2.82421875 37.68359375 C-3.50646515 37.97046051 -4.18871155 38.25732727 -4.89163208 38.55288696 C-7.15966444 39.50806353 -9.4234502 40.4729262 -11.6875 41.4375 C-13.28114768 42.11011509 -14.87514882 42.78189326 -16.46948242 43.45288086 C-18.99221011 44.51481377 -21.51465543 45.57738061 -24.036026 46.64253235 C-33.05986055 50.45461684 -42.10620593 54.21187921 -51.15615845 57.9614563 C-53.74687127 59.03529714 -56.33676852 60.11108378 -58.92651367 61.18725586 C-68.58904054 65.19860387 -78.27427765 69.14414323 -88 73 C-88.41678054 76.99584222 -88.41678054 76.99584222 -86.06384277 79.41717529 C-85.15783325 80.31430237 -84.25182373 81.21142944 -83.31835938 82.13574219 C-82.82092728 82.63375839 -82.32349518 83.1317746 -81.81098938 83.6448822 C-80.16454667 85.28853833 -78.50439027 86.91757469 -76.84375 88.546875 C-75.69944822 89.68371646 -74.55602644 90.82144432 -73.41345215 91.96002197 C-70.40382358 94.95437792 -67.38237667 97.93652848 -64.3583374 100.9163208 C-61.27465262 103.95908829 -58.20226008 107.01321056 -55.12890625 110.06640625 C-49.09695095 116.05546191 -43.05246711 122.03167444 -37 128 C-38.71581084 132.63268926 -40.65150248 133.37625207 -45 137 C-62.49 119.51 -79.98 102.02 -98 84 C-101.5033655 85.75168275 -102.27338406 90.04789545 -103.68359375 93.54296875 C-104.05144485 94.43861038 -104.41929596 95.33425201 -104.79829407 96.2570343 C-106.01807221 99.23116009 -107.22811517 102.20913423 -108.4375 105.1875 C-109.71008993 108.30661481 -110.98432555 111.42505321 -112.25888062 114.54336548 C-113.14365452 116.70821946 -114.02761265 118.87340701 -114.91079712 121.03890991 C-118.05860112 128.74373112 -121.27415258 136.41787307 -124.51953125 144.08203125 C-125.83742501 147.21045776 -127.15398628 150.33944117 -128.47000122 153.46865845 C-129.32117183 155.48443291 -130.17733251 157.49810778 -131.0385437 159.50961304 C-132.24239138 162.32381647 -133.42770937 165.14517558 -134.609375 167.96875 C-134.96985428 168.7980452 -135.33033356 169.62734039 -135.70173645 170.48176575 C-138.75441343 177.8662017 -137.39737026 182.44543439 -134.42407227 189.6459198 C-134.06756592 190.49108658 -133.71105957 191.33625336 -133.34375 192.20703125 C-132.78192017 193.56052422 -132.78192017 193.56052422 -132.20874023 194.94136047 C-130.97856913 197.90097906 -129.73947908 200.85676886 -128.5 203.8125 C-127.64463249 205.86354033 -126.78982104 207.91481264 -125.93554688 209.96630859 C-124.61761728 213.13037531 -123.29896084 216.29412607 -121.97766113 219.45678711 C-118.97981022 226.63378396 -116.0121651 233.8226111 -113.0625 241.01953125 C-111.91046963 243.82392341 -110.75794 246.62810981 -109.60522461 249.43222046 C-108.87120884 251.22058331 -108.13893556 253.00966239 -107.40844727 254.79946899 C-106.39218441 257.28780131 -105.36880666 259.77309247 -104.34375 262.2578125 C-104.04766846 262.98801102 -103.75158691 263.71820953 -103.4465332 264.47053528 C-101.92727471 268.13299824 -100.41522079 270.77970562 -98 274 C-80.51 256.51 -63.02 239.02 -45 221 C-42.69 222.98 -40.38 224.96 -38 227 C-38 231 -38 231 -39.97412109 233.45513916 C-40.89789551 234.37003113 -41.82166992 235.2849231 -42.7734375 236.22753906 C-43.28062317 236.73530884 -43.78780884 237.24307861 -44.31036377 237.76623535 C-45.98926876 239.44235346 -47.68189698 241.10386011 -49.375 242.765625 C-50.54172202 243.92488681 -51.70756406 245.08503488 -52.87255859 246.24603271 C-55.94136959 249.29957024 -59.02200266 252.34090619 -62.10522461 255.37988281 C-65.24923206 258.48297482 -68.38194831 261.59741935 -71.515625 264.7109375 C-77.6660689 270.81848026 -83.82904419 276.91318318 -90 283 C-87.31683747 285.68316253 -84.17844238 286.70905477 -80.71484375 288.09765625 C-79.96290741 288.4039798 -79.21097107 288.71030334 -78.43624878 289.02590942 C-76.79885441 289.69234823 -75.16052647 290.35649679 -73.52139282 291.01864624 C-70.01865015 292.43370149 -66.52035257 293.85958626 -63.02183533 295.28504944 C-61.18258702 296.03439716 -59.3431154 296.78319696 -57.50343323 297.53147888 C-47.25356724 301.70301016 -37.03231355 305.94299908 -26.8125 310.1875 C-25.09433822 310.90051673 -23.37615832 311.61348979 -21.65795898 312.32641602 C-20.83967117 312.66630051 -20.02138336 313.006185 -19.17829895 313.35636902 C-17.59684275 314.01231956 -16.01465984 314.66652132 -14.4316864 315.31880188 C-11.05642157 316.71232033 -7.7068132 318.1319953 -4.37646484 319.63134766 C-3.32797363 320.09976074 -2.27948242 320.56817383 -1.19921875 321.05078125 C-0.32483154 321.45594971 0.54955566 321.86111816 1.45043945 322.27856445 C7.65868156 324.0352776 13.55247503 320.72894217 19.20703125 318.34375 C20.10935989 317.96919678 21.01168854 317.59464355 21.94136047 317.20874023 C24.90097906 315.97856913 27.85676886 314.73947908 30.8125 313.5 C32.86354033 312.64463249 34.91481264 311.78982104 36.96630859 310.93554688 C40.13037531 309.61761728 43.29412607 308.29896084 46.45678711 306.97766113 C53.63378396 303.97981022 60.8226111 301.0121651 68.01953125 298.0625 C70.82392341 296.91046963 73.62810981 295.75794 76.43222046 294.60522461 C78.22058331 293.87120884 80.00966239 293.13893556 81.79946899 292.40844727 C84.28780131 291.39218441 86.77309247 290.36880666 89.2578125 289.34375 C89.98801102 289.04766846 90.71820953 288.75158691 91.47053528 288.4465332 C95.03315768 286.96869045 97.97609782 285.3757049 101 283 C100.33823257 282.34045319 99.67646515 281.68090637 98.99464417 281.00137329 C92.76741747 274.79439234 86.54281321 268.58479229 80.32078648 262.37259865 C77.1216736 259.17871094 73.92163442 255.98576281 70.71948242 252.79492188 C67.63098087 249.71726215 64.54490746 246.63718707 61.46052361 243.55540085 C60.28160222 242.37833136 59.10179908 241.20214436 57.92111397 240.02684402 C56.27134023 238.38429785 54.62469062 236.73868083 52.97875977 235.09228516 C52.4867659 234.60388657 51.99477203 234.11548798 51.48786926 233.61228943 C48.11405216 230.22810432 48.11405216 230.22810432 47 228 C47.5775 227.7525 48.155 227.505 48.75 227.25 C51.3002997 225.83316683 53.01785701 224.12372463 55 222 C58.78152073 223.56697308 61.15262175 225.92301494 64.01220703 228.81689453 C64.49725708 229.30486511 64.98230713 229.79283569 65.48205566 230.29559326 C66.53080272 231.35193137 67.57723347 232.41057313 68.62158585 233.47125626 C70.27277773 235.1480094 71.93016809 236.81840442 73.58932495 238.48727417 C77.1068459 242.02762537 80.61645682 245.57575446 84.125 249.125 C88.19737093 253.24451128 92.27288765 257.36080272 96.35689926 261.4687767 C97.99295577 263.11783767 99.62289595 264.77278745 101.25271606 266.42800903 C102.25037636 267.43293052 103.24831634 268.43757444 104.24658203 269.44189453 C105.55418991 270.76521286 105.55418991 270.76521286 106.88821411 272.11526489 C108.77693799 274.22195362 108.77693799 274.22195362 111 274 C119.63664847 254.11730092 127.94234972 234.1089953 136.11854553 214.03309631 C137.94141419 209.56525424 139.78642856 205.1078966 141.66407776 200.66279602 C142.47380745 198.74560951 143.27857416 196.8264186 144.08178711 194.90649414 C145.04100523 192.61876288 146.00997056 190.33508424 146.99047852 188.05639648 C147.40740967 187.05552002 147.82434082 186.05464355 148.25390625 185.0234375 C148.61814697 184.16669434 148.9823877 183.30995117 149.35766602 182.42724609 C150.73650438 177.21690362 148.14935633 172.54199732 146.18359375 167.75390625 C145.89540771 167.04263077 145.60722168 166.33135529 145.31030273 165.598526 C144.35738697 163.25124701 143.39767013 160.90681995 142.4375 158.5625 C141.76753401 156.91785711 141.09769559 155.27316224 140.42797852 153.62841797 C134.87722376 140.02617845 129.19579888 126.47909534 123.45678711 112.95532227 C119.52401651 103.68034918 115.70015984 94.37030024 112 85 C108.00415778 84.58321946 108.00415778 84.58321946 105.58282471 86.93615723 C104.68569763 87.84216675 103.78857056 88.74817627 102.86425781 89.68164062 C102.11723351 90.42778877 102.11723351 90.42778877 101.3551178 91.18901062 C99.71146167 92.83545333 98.08242531 94.49560973 96.453125 96.15625 C95.31628354 97.30055178 94.17855568 98.44397356 93.03997803 99.58654785 C90.04562208 102.59617642 87.06347152 105.61762333 84.0836792 108.6416626 C81.04091171 111.72534738 77.98678944 114.79773992 74.93359375 117.87109375 C68.94453809 123.90304905 62.96832556 129.94753289 57 136 C52.36731074 134.28418916 51.62374793 132.34849752 48 128 C65.49 110.51 82.98 93.02 101 75 C97.74250736 72.55688052 95.54118037 71.23610974 91.8828125 69.75 C90.82328369 69.31574707 89.76375488 68.88149414 88.67211914 68.43408203 C87.50156982 67.96083496 86.33102051 67.48758789 85.125 67 C83.87660496 66.49007321 82.62848555 65.97947124 81.38061523 65.46826172 C78.55429985 64.31089815 75.72688045 63.15628156 72.89892578 62.00292969 C64.29528836 58.48976852 55.70851013 54.93550992 47.11932373 51.38720703 C44.11997348 50.14873164 41.11987911 48.91207463 38.11962891 47.67578125 C36.21644789 46.89068187 34.3132898 46.10552692 32.41015625 45.3203125 C31.04497864 44.75815033 31.04497864 44.75815033 29.65222168 44.18463135 C25.63508106 42.52554547 21.62862477 40.85058911 17.65185547 39.09667969 C17.00421738 38.8120285 16.35657928 38.52737732 15.6893158 38.23410034 C14.01559914 37.49361918 12.34632138 36.74312613 10.67749023 35.99169922 C5.52437645 34.08306895 1.91996856 35.64076472 -2.82421875 37.68359375 Z " fill="#FBFDFB" transform="translate(250,77)"></path><path d="M0 0 C0.8751123 0.00757324 1.75022461 0.01514648 2.65185547 0.02294922 C16.00138898 0.3610683 27.26251834 5.52937879 36.9375 14.6875 C46.11793455 24.35453002 50.7847387 35.07260896 50.5625 48.375 C50.55234863 49.25599365 50.54219727 50.1369873 50.53173828 51.04467773 C50.38303986 57.26522837 49.83232311 62.73554295 47.1875 68.4375 C46.79691406 69.32308594 46.40632813 70.20867187 46.00390625 71.12109375 C39.34384172 84.72422838 28.78230671 91.84479219 15.1875 97.4375 C4.55629368 100.52229265 -9.46503067 99.84482637 -19.27734375 94.91796875 C-20.11394531 94.42941406 -20.95054687 93.94085938 -21.8125 93.4375 C-22.61816406 92.97988281 -23.42382812 92.52226562 -24.25390625 92.05078125 C-36.03695714 84.77360092 -42.43830706 75.05225715 -46.98046875 62.109375 C-49.70344944 50.0924649 -49.07818075 37.16685833 -42.8125 26.4375 C-42.35488281 25.63183594 -41.89726562 24.82617188 -41.42578125 23.99609375 C-32.18708467 9.03699875 -17.69095403 -0.21603607 0 0 Z " fill="#448A27" transform="translate(254.8125,206.5625)"></path><path d="M0 0 C0.8751123 0.00757324 1.75022461 0.01514648 2.65185547 0.02294922 C16.00138898 0.3610683 27.26251834 5.52937879 36.9375 14.6875 C46.11793455 24.35453002 50.7847387 35.07260896 50.5625 48.375 C50.55234863 49.25599365 50.54219727 50.1369873 50.53173828 51.04467773 C50.38303986 57.26522837 49.83232311 62.73554295 47.1875 68.4375 C46.79691406 69.32308594 46.40632813 70.20867187 46.00390625 71.12109375 C39.34384172 84.72422838 28.78230671 91.84479219 15.1875 97.4375 C4.55629368 100.52229265 -9.46503067 99.84482637 -19.27734375 94.91796875 C-20.11394531 94.42941406 -20.95054687 93.94085938 -21.8125 93.4375 C-22.61816406 92.97988281 -23.42382812 92.52226562 -24.25390625 92.05078125 C-36.03695714 84.77360092 -42.43830706 75.05225715 -46.98046875 62.109375 C-49.70344944 50.0924649 -49.07818075 37.16685833 -42.8125 26.4375 C-42.35488281 25.63183594 -41.89726562 24.82617188 -41.42578125 23.99609375 C-32.18708467 9.03699875 -17.69095403 -0.21603607 0 0 Z M-27.8125 26.4375 C-35.02308337 35.61152861 -35.87870003 46.11234045 -34.8125 57.4375 C-33.01742043 67.09960614 -27.31854054 74.10987404 -19.6953125 80.1015625 C-10.20786833 86.4142199 1.35483117 86.89269658 12.3203125 84.85546875 C21.82669594 81.88980212 29.15427084 74.98512178 34.25 66.5546875 C38.43344557 57.10707291 38.83268556 45.44398523 35.75 35.5625 C32.07304122 26.9352893 24.81319989 19.25699811 16.1875 15.4375 C-0.55998623 9.77468092 -15.96704099 13.48019285 -27.8125 26.4375 Z " fill="#FAFCFA" transform="translate(254.8125,206.5625)"></path></svg>