<svg version="1.1" xmlns="http://www.w3.org/2000/svg" width="16px" height="16px" fill="currentColor" viewBox="0 0 512 512"><path d="M0 0 C168.96 0 337.92 0 512 0 C512 168.96 512 337.92 512 512 C343.04 512 174.08 512 0 512 C0 343.04 0 174.08 0 0 Z " fill="#448A26" transform="translate(0,0)"></path><path d="M0 0 C1.22951637 -0.02190399 1.22951637 -0.02190399 2.48387146 -0.04425049 C10.08253946 -0.17074279 17.68227907 -0.23912977 25.2817812 -0.29209328 C30.3849267 -0.32775388 35.48648259 -0.38078613 40.58886719 -0.47753906 C45.52447905 -0.57084883 50.45868803 -0.6190946 55.39513206 -0.63648605 C57.26938143 -0.65050569 59.14358645 -0.67997498 61.01732826 -0.72578812 C72.08959872 -0.98307307 79.41495639 -0.51790585 87.88639832 7.02218628 C89.02290581 8.12809616 89.02290581 8.12809616 90.18237305 9.25634766 C91.44257911 10.28512955 92.71070882 11.30450661 93.99487305 12.30322266 C111.47310964 26.94614798 124.75418977 43.45566996 134.18237305 64.25634766 C134.60389648 65.18447266 135.02541992 66.11259766 135.4597168 67.06884766 C145.78361931 91.37871621 144.86689762 120.85865726 135.36987305 145.25634766 C130.70755228 156.10789924 124.44305093 164.85518205 116.18237305 173.25634766 C115.5069043 173.94470703 114.83143555 174.63306641 114.13549805 175.34228516 C93.10698726 195.34308677 63.23475447 201.7063338 35.11987305 201.63134766 C34.35057465 201.63080383 33.58127625 201.63026001 32.78866577 201.62969971 C20.55774923 201.59001934 8.95278844 200.85110359 -2.81762695 197.25634766 C-3.86007568 196.94286377 -3.86007568 196.94286377 -4.92358398 196.62304688 C-21.11282043 191.56272595 -35.00198342 183.39877027 -46.81762695 171.25634766 C-47.65165039 170.40814453 -48.48567383 169.55994141 -49.3449707 168.68603516 C-67.36142467 149.56041514 -71.62290238 125.98003581 -71.1027832 100.55712891 C-70.03197227 70.61474633 -56.02398197 45.63708912 -35.81762695 24.25634766 C-35.09446289 23.46873047 -34.37129883 22.68111328 -33.6262207 21.86962891 C-26.57346901 14.45886951 -18.54004662 8.47374129 -10.33300781 2.40454102 C-6.93585456 -0.16945798 -4.27194026 0.05762183 0 0 Z " fill="#3C8322" transform="translate(204.817626953125,229.74365234375)"></path><path d="M0 0 C1.19753906 0.42925781 2.39507812 0.85851562 3.62890625 1.30078125 C24.99686796 9.34492378 43.53475831 21.20082795 60 37 C60.94101562 37.87785156 61.88203125 38.75570312 62.8515625 39.66015625 C75.48192005 51.65930433 85.03849088 65.56755453 93 81 C93.34514648 81.64984863 93.69029297 82.29969727 94.04589844 82.96923828 C113.35904004 119.59166971 116.05759845 163.46231185 104.25 202.8125 C103.82054437 204.17407485 103.38853123 205.5348476 102.953125 206.89453125 C101.90219674 209.77725505 101.90219674 209.77725505 102 212 C102.6297876 211.67725098 103.2595752 211.35450195 103.90844727 211.02197266 C106.78989758 209.54988423 109.67611454 208.08738655 112.5625 206.625 C114.0484668 205.86316406 114.0484668 205.86316406 115.56445312 205.0859375 C120.65469142 202.51545171 125.43801192 200.29493692 131 199 C133.99420173 203.3116505 133.99420173 203.3116505 134.01635742 205.94189453 C132.39631438 209.22245251 129.35800646 210.21091687 126.17578125 211.6796875 C125.47793015 212.01493439 124.78007904 212.35018127 124.06108093 212.69558716 C121.81768104 213.76884356 119.56534097 214.82172996 117.3125 215.875 C115.84510812 216.575578 114.37830415 217.27738885 112.91210938 217.98046875 C104.0354753 222.21522737 95.072605 226.20342487 86 230 C83.28692526 223.22184719 80.58183303 216.44054941 77.88232422 209.65698242 C76.96262125 207.34862868 76.04107861 205.04100705 75.11767578 202.73413086 C73.79237778 199.42230939 72.47367112 196.10793011 71.15625 192.79296875 C70.74064819 191.7585112 70.32504639 190.72405365 69.89685059 189.6582489 C69.32625916 188.21709465 69.32625916 188.21709465 68.74414062 186.74682617 C68.40660767 185.90077316 68.06907471 185.05472015 67.72131348 184.18302917 C67 182 67 182 67 179 C69.38923239 177.87175137 71.31669171 176.99604684 73.98339844 177.01147461 C77.22767771 178.60179989 77.85807766 181.65800451 79.015625 184.87890625 C79.27631775 185.5655687 79.5370105 186.25223114 79.80560303 186.95970154 C80.63530567 189.15536852 81.44277954 191.358481 82.25 193.5625 C82.80845183 195.0519745 83.36833052 196.54091485 83.9296875 198.02929688 C85.30309548 201.68020475 86.65662366 205.33794094 88 209 C88.63479425 206.96676349 89.26711716 204.93275534 89.8984375 202.8984375 C90.25083496 201.76583496 90.60323242 200.63323242 90.96630859 199.46630859 C98.23445013 175.09383019 99.19442691 149.86429159 94 125 C93.79914795 123.98897217 93.79914795 123.98897217 93.59423828 122.95751953 C87.68792628 93.8555095 72.39597152 69.12648626 52 48 C51.11441406 47.01966797 51.11441406 47.01966797 50.2109375 46.01953125 C35.59474671 30.24154068 14.88488126 20.15693895 -5 13 C-5.71333496 12.74202637 -6.42666992 12.48405273 -7.16162109 12.21826172 C-42.20613993 -0.20226149 -83.06961193 2.35173214 -116.73071289 17.90576172 C-118.83305795 18.91395918 -120.91967965 19.94717348 -123 21 C-123.6177832 21.31163086 -124.23556641 21.62326172 -124.87207031 21.94433594 C-159.6881046 39.87411926 -186.67124787 71.94559763 -198.61328125 109.2421875 C-208.81912689 143.31945554 -207.35209048 177.56539686 -195.5949707 210.95727539 C-195 213 -195 213 -195 216 C-196.43429001 216.67354499 -197.87257057 217.33859701 -199.3125 218 C-200.51326172 218.556875 -200.51326172 218.556875 -201.73828125 219.125 C-204 220 -204 220 -207 220 C-211.8122014 206.45296023 -216.19903225 193.30355381 -218 179 C-218.0920874 178.34322266 -218.1841748 177.68644531 -218.27905273 177.00976562 C-220.37305178 160.82161356 -220.25397401 143.01432233 -217 127 C-216.77401123 125.84854492 -216.77401123 125.84854492 -216.54345703 124.67382812 C-210.04773557 92.30129887 -194.88918996 65.35639657 -173 41 C-172.39800781 40.32453125 -171.79601562 39.6490625 -171.17578125 38.953125 C-165.46612596 32.91268363 -158.60651846 28.0050563 -152 23 C-151.17628906 22.36964844 -150.35257812 21.73929688 -149.50390625 21.08984375 C-107.6365922 -9.60317851 -48.67834808 -18.3417864 0 0 Z " fill="#FAFCFA" transform="translate(296,92)"></path><path d="M0 0 C1.22951637 -0.02190399 1.22951637 -0.02190399 2.48387146 -0.04425049 C10.08253946 -0.17074279 17.68227907 -0.23912977 25.2817812 -0.29209328 C30.3849267 -0.32775388 35.48648259 -0.38078613 40.58886719 -0.47753906 C45.52447905 -0.57084883 50.45868803 -0.6190946 55.39513206 -0.63648605 C57.26938143 -0.65050569 59.14358645 -0.67997498 61.01732826 -0.72578812 C72.08959872 -0.98307307 79.41495639 -0.51790585 87.88639832 7.02218628 C89.02290581 8.12809616 89.02290581 8.12809616 90.18237305 9.25634766 C91.44257911 10.28512955 92.71070882 11.30450661 93.99487305 12.30322266 C111.47310964 26.94614798 124.75418977 43.45566996 134.18237305 64.25634766 C134.60389648 65.18447266 135.02541992 66.11259766 135.4597168 67.06884766 C145.78361931 91.37871621 144.86689762 120.85865726 135.36987305 145.25634766 C130.70755228 156.10789924 124.44305093 164.85518205 116.18237305 173.25634766 C115.5069043 173.94470703 114.83143555 174.63306641 114.13549805 175.34228516 C93.10698726 195.34308677 63.23475447 201.7063338 35.11987305 201.63134766 C34.35057465 201.63080383 33.58127625 201.63026001 32.78866577 201.62969971 C20.55774923 201.59001934 8.95278844 200.85110359 -2.81762695 197.25634766 C-3.86007568 196.94286377 -3.86007568 196.94286377 -4.92358398 196.62304688 C-21.11282043 191.56272595 -35.00198342 183.39877027 -46.81762695 171.25634766 C-47.65165039 170.40814453 -48.48567383 169.55994141 -49.3449707 168.68603516 C-67.36142467 149.56041514 -71.62290238 125.98003581 -71.1027832 100.55712891 C-70.03197227 70.61474633 -56.02398197 45.63708912 -35.81762695 24.25634766 C-35.09446289 23.46873047 -34.37129883 22.68111328 -33.6262207 21.86962891 C-26.57346901 14.45886951 -18.54004662 8.47374129 -10.33300781 2.40454102 C-6.93585456 -0.16945798 -4.27194026 0.05762183 0 0 Z M-18.55511475 24.69335938 C-20.22691837 26.76304984 -22.16157949 28.45410263 -24.16137695 30.20166016 C-25.22354393 31.25145053 -26.27626314 32.31091787 -27.31762695 33.38134766 C-27.88819824 33.96207031 -28.45876953 34.54279297 -29.04663086 35.14111328 C-48.88841929 55.71109252 -59.31028178 82.02270825 -59.0324707 110.48291016 C-57.83948952 131.43599778 -49.97878362 151.78305632 -34.57543945 166.38134766 C-14.22879686 183.45918538 9.30240374 188.48334072 35.24487305 188.50634766 C35.93145996 188.5070224 36.61804688 188.50769714 37.32543945 188.50839233 C62.90480705 188.46852703 88.89872579 182.62107136 107.5300293 164.03759766 C124.92877716 145.79325527 129.71682268 124.68894114 129.46362305 100.17431641 C129.11576908 87.36459413 125.77002786 75.79109706 120.18237305 64.25634766 C119.74151367 63.34626953 119.3006543 62.43619141 118.84643555 61.49853516 C110.59744269 45.50186946 97.97163292 31.70633741 84.18237305 20.25634766 C83.24488976 19.38586037 83.24488976 19.38586037 82.28846741 18.49778748 C74.41015842 11.96087066 66.42994122 12.12822295 56.70581055 12.11572266 C55.00964 12.09571613 53.31348271 12.0745557 51.61734009 12.05230713 C48.07178094 12.01506551 44.52742045 12.00589491 40.98168945 12.01416016 C37.37401083 12.01919564 33.77191785 11.9776712 30.1652832 11.89111328 C2.96367046 10.30723146 2.96367046 10.30723146 -18.55511475 24.69335938 Z " fill="#FAFCFA" transform="translate(204.817626953125,229.74365234375)"></path><path d="M0 0 C2.6496582 1.39282227 2.6496582 1.39282227 5.30078125 3.31640625 C6.27853516 3.99767578 7.25628906 4.67894531 8.26367188 5.38085938 C10.29033857 6.83107507 12.31123859 8.28938492 14.32617188 9.75585938 C20.27703886 14.13459644 20.27703886 14.13459644 27.3203125 15.1484375 C28.88860588 14.80162877 30.44798811 14.4136176 32 14 C34.31282653 13.54836062 36.62673539 13.10224617 38.94140625 12.66015625 C41.48266352 12.13188037 44.02301454 11.59922855 46.5625 11.0625 C47.83802734 10.79759766 49.11355469 10.53269531 50.42773438 10.25976562 C58.07483016 8.66108187 58.07483016 8.66108187 65.66796875 6.828125 C70.23188912 5.69383295 74.08147497 5.11452691 78.4375 7.125 C80 9 80 9 80.29296875 11.84765625 C79.9542057 15.49274665 79.25268615 16.59159137 76.875 19.3125 C75.78638672 20.59253906 75.78638672 20.59253906 74.67578125 21.8984375 C74.2576416 22.38022461 73.83950195 22.86201172 73.40869141 23.35839844 C71.19140434 25.94228721 69.04272131 28.58181821 66.88452148 31.21508789 C65.06859042 33.4300712 63.24601705 35.63943246 61.421875 37.84765625 C57.84758837 42.17895542 54.3030964 46.53384269 50.76953125 50.8984375 C46.52011381 55.945207 46.52011381 55.945207 42.25613403 56.39440918 C40.66326395 56.41838082 39.07009113 56.42559501 37.47705078 56.41992188 C36.17170883 56.43262619 36.17170883 56.43262619 34.83999634 56.44558716 C31.95828707 56.46901904 29.0771099 56.46997776 26.1953125 56.46875 C24.19375392 56.47584852 22.19219738 56.48354705 20.19064331 56.49182129 C15.99243517 56.50528081 11.79441511 56.50682855 7.59619141 56.50097656 C2.2167179 56.49508314 -3.16185226 56.52565055 -8.54115105 56.56609344 C-12.67616639 56.59194833 -16.81096371 56.59484978 -20.94604874 56.59120178 C-22.92919304 56.59289551 -24.91234715 56.60256231 -26.89541245 56.62034607 C-29.67030915 56.64248913 -32.44337113 56.6328575 -35.21826172 56.61523438 C-36.03713867 56.62849762 -36.85601562 56.64176086 -37.69970703 56.65542603 C-41.92910775 56.59303358 -43.50242391 56.4080308 -46.88772583 53.63195801 C-47.58477631 52.76341187 -48.28182678 51.89486572 -49 51 C-49.85078125 50.10023438 -50.7015625 49.20046875 -51.578125 48.2734375 C-56.85204488 42.55231388 -61.91360737 36.74592057 -66.79296875 30.6796875 C-69.79192079 27.03848202 -72.95826784 23.56385717 -76.15234375 20.09375 C-80.0364381 15.69232385 -80.0364381 15.69232385 -79.8125 11.4375 C-79 8 -79 8 -76 6 C-69.33447935 5.8661613 -62.51775703 7.56108048 -56.01171875 8.8828125 C-54.15304792 9.24896769 -52.29432235 9.61484513 -50.43554688 9.98046875 C-47.54700841 10.55408272 -44.65914062 11.13071415 -41.7722168 11.71240234 C-38.95779344 12.27752087 -36.14125613 12.8308953 -33.32421875 13.3828125 C-32.46269699 13.55982697 -31.60117523 13.73684143 -30.71354675 13.91921997 C-24.83144364 15.09022843 -24.83144364 15.09022843 -19 14 C-16.59589893 11.86306434 -16.59589893 11.86306434 -14.4375 9.1875 C-12.96146811 7.45565669 -11.48241124 5.7263859 -10 4 C-9.37222656 3.23300781 -8.74445313 2.46601563 -8.09765625 1.67578125 C-5.22343133 -0.62038726 -3.62061459 -0.35300164 0 0 Z " fill="#FBFCFA" transform="translate(237,148)"></path><path d="M0 0 C4.29 0 8.58 0 13 0 C13 2.64 13 5.28 13 8 C14.30324219 7.92265625 14.30324219 7.92265625 15.6328125 7.84375 C24.01299027 8.23262136 31.75872055 13.7646556 37.3125 19.78125 C42.84084336 27.04999775 45.17383349 33.96065842 45 43 C40.71 43 36.42 43 32 43 C31.79375 41.68 31.5875 40.36 31.375 39 C30.00309387 32.95027506 27.20163455 28.09407477 21.93359375 24.6484375 C19.01080952 23.1520581 16.11524009 22.03841336 13 21 C13 35.85 13 50.7 13 66 C15.31 66.33 17.62 66.66 20 67 C29.71344542 70.54548083 37.39193457 76.53386915 42.03515625 85.8203125 C45.79704578 94.31883217 46.32526401 102.77580042 43.4375 111.625 C39.32186615 121.71262003 32.62054335 128.44554162 22.7890625 133.03125 C19.32081275 134.42370715 16.76881515 135 13 135 C13 139.29 13 143.58 13 148 C8.71 148 4.42 148 0 148 C0 143.05 0 138.1 0 133 C-1.65 132.67 -3.3 132.34 -5 132 C-15.05463951 127.02597339 -20.70065645 119.04207906 -24.37109375 108.67578125 C-25 106 -25 106 -25 100 C-20.71 100 -16.42 100 -12 100 C-11.5875 101.52625 -11.175 103.0525 -10.75 104.625 C-8.62342608 111.65064376 -6.43040413 115.14175752 0 119 C0 104.48 0 89.96 0 75 C-1.98 74.34 -3.96 73.68 -6 73 C-14.72196046 67.88094283 -21.25812342 60.58060018 -24.33984375 50.921875 C-26.38966466 41.84929489 -25.46959054 33.19624647 -21 25 C-15.52112443 17.4652006 -9.17167747 11.29291937 0 9 C0 6.03 0 3.06 0 0 Z " fill="#FAFCFA" transform="translate(234,255)"></path><path d="M0 0 C5.57294023 2.40401343 8.68673162 7.11829011 12.265625 11.85546875 C14.4423744 14.54698997 15.31894386 14.92260726 18.75 15.3125 C22.91603721 14.9119195 24.84510117 13.72468536 28 11 C28.66 9.02 29.32 7.04 30 5 C34.29 5 38.58 5 43 5 C42.61181347 12.2461485 40.59724192 17.27057597 35.51171875 22.54296875 C29.28364674 28.03075313 23.49508936 28.51393948 15.4453125 28.37109375 C7.54020626 27.51963673 3.26278814 22.62514395 -1.65234375 16.76953125 C-3 15 -3 15 -4 13 C-6.58097844 13.37824684 -7.75513667 13.73799624 -9.5625 15.671875 C-10.036875 16.35765625 -10.51125 17.0434375 -11 17.75 C-11.99659474 19.16906426 -12.99685171 20.58556091 -14 22 C-14.47080994 22.85873215 -14.94161987 23.71746429 -15.42669678 24.60221863 C-19.44540902 28.34681945 -23.43292426 27.65990916 -28.73535156 27.56762695 C-29.82833557 27.56835709 -30.92131958 27.56908722 -32.04742432 27.56983948 C-35.66232828 27.56635435 -39.27594595 27.52744669 -42.890625 27.48828125 C-45.39596859 27.47895649 -47.90132129 27.47183879 -50.40667725 27.46684265 C-56.32830224 27.44969879 -62.2495141 27.41028753 -68.17092681 27.3600952 C-75.57480649 27.29870072 -82.97874342 27.27186551 -90.3828125 27.24414062 C-103.5887834 27.19050704 -116.79434597 27.10516182 -130 27 C-130 23.04 -130 19.08 -130 15 C-128.04681351 15.00785522 -128.04681351 15.00785522 -126.0541687 15.01586914 C-113.78257426 15.06001589 -101.51159363 15.06221434 -89.23997307 15.02334595 C-82.93089403 15.00471106 -76.62252706 15.00085423 -70.31347656 15.03076172 C-64.22469208 15.05908152 -58.13709734 15.0485937 -52.04837418 15.01119995 C-49.72556939 15.00375358 -47.40267631 15.01028978 -45.07995224 15.03103638 C-41.82523754 15.05771848 -38.57438349 15.03467859 -35.31982422 15 C-34.35956833 15.01941147 -33.39931244 15.03882294 -32.40995789 15.05882263 C-27.27096086 14.96130068 -27.27096086 14.96130068 -23.09898758 12.22595215 C-21.58441233 10.21144315 -20.28584964 8.16477555 -19 6 C-13.46740621 0.05717381 -7.98000702 -1.37713526 0 0 Z " fill="#FDFEFD" transform="translate(319,196)"></path><path d="M0 0 C3.30013549 0.62795536 5.50721685 1.82755497 8.265625 3.72265625 C9.07386719 4.26083984 9.88210937 4.79902344 10.71484375 5.35351562 C12.3960447 6.48683676 14.07065452 7.63000128 15.73828125 8.78320312 C23.30938644 13.78061249 28.26430709 13.60824345 36.890625 11.87109375 C40.10027087 11.16027267 43.30378703 10.42514962 46.5078125 9.68945312 C47.54164063 9.46064453 48.57546875 9.23183594 49.640625 8.99609375 C50.57422852 8.78138428 51.50783203 8.5666748 52.46972656 8.34545898 C55.01207712 7.99835111 56.59116447 8.18657651 59 9 C58.50371094 9.61746094 58.00742187 10.23492187 57.49609375 10.87109375 C56.81675781 11.71800781 56.13742187 12.56492188 55.4375 13.4375 C54.44556641 14.67306641 54.44556641 14.67306641 53.43359375 15.93359375 C51.03950647 18.74608273 51.03950647 18.74608273 49.85676575 21.22247314 C48.16073435 24.12239498 46.67280262 25.93754676 44 28 C38.08954285 29.41821982 32.2557074 29.34204849 26.203125 29.30078125 C24.44584343 29.31448192 22.68857792 29.33040318 20.93133545 29.34843445 C17.25238689 29.37519093 13.57539275 29.36801494 9.89648438 29.33813477 C5.20604996 29.30373135 0.52241492 29.3641662 -4.1671257 29.45188618 C-7.79663183 29.50724432 -11.42453655 29.50604388 -15.05435944 29.48897362 C-16.78142056 29.48851679 -18.50859683 29.50641902 -20.23525238 29.54384804 C-34.35688518 29.80676991 -34.35688518 29.80676991 -39.4510498 25.37362671 C-42.30345592 22.47413512 -44.64125475 19.30746398 -47 16 C-48.21489502 14.61237405 -49.44142449 13.23469538 -50.6875 11.875 C-53 9 -53 9 -53 7 C-49.0852928 7.69197444 -45.17091745 8.38579369 -41.25683594 9.08129883 C-39.92619602 9.31747932 -38.59546764 9.55316195 -37.26464844 9.78833008 C-35.34807332 10.12709691 -33.43184478 10.46782271 -31.515625 10.80859375 C-30.36352539 11.01282959 -29.21142578 11.21706543 -28.02441406 11.42749023 C-25.65031745 11.87689745 -23.3383425 12.40146619 -21 13 C-16.4216009 13.57332368 -13.14222985 13.87027036 -9.375 11 C-8.59125 10.01 -7.8075 9.02 -7 8 C-5.7340738 6.55817669 -4.46300723 5.12085443 -3.1875 3.6875 C-2.12324005 2.45985685 -1.06012706 1.23121385 0 0 Z " fill="#498F2B" transform="translate(234,163)"></path><path d="M0 0 C7.10183008 1.42036602 12.75988955 4.73003938 17.0625 10.6875 C19.78540098 15.66841642 19.92982294 20.47485377 19 26 C16.88507269 33.03289225 13.47067368 37.09481019 7.28125 40.94140625 C5 42 5 42 0 43 C0 28.81 0 14.62 0 0 Z " fill="#3D8424" transform="translate(247,334)"></path><path d="M0 0 C0 12.54 0 25.08 0 38 C-5.54544099 34.67273541 -9.49366829 31.03086067 -12 25 C-12.81317206 18.79032242 -12.39620676 12.38287674 -9 7 C-2.36 0 -2.36 0 0 0 Z " fill="#428728" transform="translate(234,278)"></path></svg>