<svg version="1.1" xmlns="http://www.w3.org/2000/svg" width="16px" height="16px" fill="currentColor" viewBox="0 0 512 512"><path d="M0 0 C168.96 0 337.92 0 512 0 C512 168.96 512 337.92 512 512 C343.04 512 174.08 512 0 512 C0 343.04 0 174.08 0 0 Z " fill="#D72B6B" transform="translate(0,0)"></path><path d="M0 0 C3.94741379 1.55818966 3.94741379 1.55818966 5.375 3.9375 C5.69766179 9.2076426 4.05951858 11.58971949 0.6875 15.5625 C-14.01559958 32.90056366 -15.33017264 56.2535399 -13.625 77.9375 C-11.53058293 91.14653743 -6.93387716 104.34545643 2.25 114.25 C4.6132875 116.8124115 5.31943939 117.67484983 6.0625 121.1875 C5.19855582 124.64327672 4.35847697 125.97468621 1.375 127.9375 C-2.81448433 128.1236993 -4.37017056 127.16463059 -7.5 124.375 C-8.08394531 123.84003906 -8.66789062 123.30507813 -9.26953125 122.75390625 C-26.26240358 109.64994998 -49.78360667 105.66590546 -70.70263672 108.18798828 C-74.74439837 108.85355708 -78.67794905 109.85508169 -82.625 110.9375 C-83.49125 111.14246094 -84.3575 111.34742188 -85.25 111.55859375 C-95.52767866 114.21036661 -104.79512804 119.65417854 -112.625 126.75 C-114.625 127.9375 -114.625 127.9375 -117.2578125 127.73046875 C-119.625 126.9375 -119.625 126.9375 -121.5 125.25 C-122.625 122.9375 -122.625 122.9375 -122.75 120.1875 C-121.62310593 116.93202824 -120.72830637 115.76076757 -118.4375 113.3125 C-103.7480404 97.44908769 -102.98004737 75.23066606 -103.48876953 54.86914062 C-104.29340736 37.55356529 -110.65078422 24.17566567 -121.34375 10.78515625 C-123.05002907 8.32457698 -123.07620737 6.87034792 -122.625 3.9375 C-121.5625 2.125 -121.5625 2.125 -119.625 0.9375 C-116.5625 0.25 -116.5625 0.25 -112.625 0.9375 C-110.47265625 2.484375 -110.47265625 2.484375 -108.125 4.5 C-92.10326275 18.23291764 -70.07604018 21.38209724 -49.625 19.9375 C-33.17253338 17.88845169 -17.8174245 12.46371077 -4.97265625 1.71875 C-2.625 -0.0625 -2.625 -0.0625 0 0 Z " fill="#FEFBFC" transform="translate(314.625,192.0625)"></path><path d="M0 0 C18.66325985 16.20475483 38.53451368 39.10954216 45.31445312 63.57421875 C45.31445312 64.89421875 45.31445312 66.21421875 45.31445312 67.57421875 C43.87891287 68.07981783 42.44093293 68.57849365 41.00195312 69.07421875 C40.20144531 69.35265625 39.4009375 69.63109375 38.57617188 69.91796875 C36.31445312 70.57421875 36.31445312 70.57421875 33.31445312 70.57421875 C32.62222656 68.90359375 32.62222656 68.90359375 31.91601562 67.19921875 C25.60673652 52.30669118 17.93041129 38.84760912 7.31445312 26.57421875 C6.6415625 25.76855469 5.96867188 24.96289062 5.27539062 24.1328125 C-4.15592329 13.17534051 -15.06372771 4.60466197 -27.68554688 -2.42578125 C-28.7503125 -3.02003906 -29.81507813 -3.61429688 -30.91210938 -4.2265625 C-51.75753679 -15.23509618 -72.36106772 -19.64414235 -95.74804688 -19.80078125 C-96.82291351 -19.81297195 -96.82291351 -19.81297195 -97.91949463 -19.82540894 C-111.56969071 -19.94118122 -124.72892539 -18.24321828 -137.68554688 -13.73828125 C-138.42554932 -13.48554443 -139.16555176 -13.23280762 -139.92797852 -12.97241211 C-156.08758318 -7.24746219 -170.60081285 1.55220554 -183.68554688 12.57421875 C-184.47445312 13.20457031 -185.26335937 13.83492187 -186.07617188 14.484375 C-203.37999888 28.96935277 -214.50442356 49.88861427 -222.68554688 70.57421875 C-227.00054228 70.01006741 -230.70962869 69.38145429 -234.68554688 67.57421875 C-234.13184247 63.47178951 -233.23084846 60.11755807 -231.46289062 56.37890625 C-231.01107422 55.42169678 -230.55925781 54.4644873 -230.09375 53.47827148 C-229.60841797 52.47868408 -229.12308594 51.47909668 -228.62304688 50.44921875 C-228.12353516 49.41676025 -227.62402344 48.38430176 -227.109375 47.32055664 C-223.48057704 39.94126323 -219.66341334 33.14017322 -214.68554688 26.57421875 C-214.26273438 26.00912598 -213.83992188 25.4440332 -213.40429688 24.86181641 C-192.93535057 -2.38892212 -164.73164296 -20.99826061 -131.68554688 -29.42578125 C-130.54859375 -29.73257813 -129.41164063 -30.039375 -128.24023438 -30.35546875 C-84.46948979 -41.87408575 -34.2658868 -28.98504909 0 0 Z " fill="#FEFAFB" transform="translate(350.685546875,142.42578125)"></path><path d="M0 0 C0.33825806 0.79096069 0.33825806 0.79096069 0.68334961 1.59790039 C7.47198286 17.3593656 14.69368246 31.93394432 26 45 C26.66257813 45.80695313 27.32515625 46.61390625 28.0078125 47.4453125 C47.72144544 70.65065902 79.81168642 87.21334041 110.1315918 89.82788086 C151.37488804 92.30268926 187.18701028 83.52032952 218.84960938 55.85791016 C236.03026615 40.42073423 247.37212515 21.22685767 256 0 C257.43793392 0.31049726 258.8753318 0.6234776 260.3125 0.9375 C261.11300781 1.11152344 261.91351563 1.28554688 262.73828125 1.46484375 C265 2 265 2 268 3 C266.70384097 10.43385323 264.15371773 16.41662728 260.625 23.0625 C260.09334229 24.06966064 259.56168457 25.07682129 259.01391602 26.11450195 C240.59146012 60.16336604 209.2021813 86.69128706 172.015625 97.859375 C170.67809953 98.24314289 169.33962068 98.62361111 168 99 C166.90171875 99.31453125 165.8034375 99.6290625 164.671875 99.953125 C152.46301365 103.21308274 140.42675298 104.36648731 127.8125 104.3125 C127.13435242 104.31067719 126.45620483 104.30885437 125.75750732 104.30697632 C114.91424863 104.25804954 104.53816876 103.62292491 94 101 C93.30874023 100.83371094 92.61748047 100.66742188 91.90527344 100.49609375 C60.04243344 92.61431015 29.64147212 73.46723194 10 47 C9.61134766 46.48050781 9.22269531 45.96101563 8.82226562 45.42578125 C2.90287556 37.39981275 -1.73477758 28.915508 -6.0625 19.9375 C-6.53993652 18.94975586 -7.01737305 17.96201172 -7.50927734 16.94433594 C-9.6793968 12.31590897 -11.57313845 8.16589586 -12 3 C-10.75336669 2.49166409 -9.50250613 1.99368855 -8.25 1.5 C-7.55390625 1.2215625 -6.8578125 0.943125 -6.140625 0.65625 C-4 0 -4 0 0 0 Z " fill="#FEFAFC" transform="translate(128,299)"></path><path d="M0 0 C1.05058594 0.27714844 2.10117188 0.55429688 3.18359375 0.83984375 C4.60147902 1.20605253 6.0194526 1.57191954 7.4375 1.9375 C8.12521484 2.11990234 8.81292969 2.30230469 9.52148438 2.49023438 C30.15229555 7.76788375 51.83306838 6.09141408 72 0 C72.66 0 73.32 0 74 0 C73.58427734 1.80984375 73.58427734 1.80984375 73.16015625 3.65625 C72.79406923 5.27078763 72.42819517 6.88537357 72.0625 8.5 C71.88009766 9.29148438 71.69769531 10.08296875 71.50976562 10.8984375 C67.50615752 28.65989893 68.17518519 46.27524846 72 64 C72.39781996 66.02044319 72.79399977 68.04121106 73.1875 70.0625 C73.45713787 71.37524611 73.72773983 72.68779524 74 74 C72.2984375 73.58427734 72.2984375 73.58427734 70.5625 73.16015625 C69.04172152 72.79404291 67.52088505 72.42817037 66 72.0625 C65.25621094 71.88009766 64.51242187 71.69769531 63.74609375 71.50976562 C47.63267702 67.65655728 29.14350465 67.13399381 13 71 C11.81277344 71.26425781 10.62554687 71.52851563 9.40234375 71.80078125 C6.26176036 72.50951183 3.1292179 73.24293115 0 74 C0.27714844 72.865625 0.55429688 71.73125 0.83984375 70.5625 C1.20595709 69.04172152 1.57182963 67.52088505 1.9375 66 C2.11990234 65.25621094 2.30230469 64.51242187 2.49023438 63.74609375 C6.77290623 45.83673871 6.30857124 26.84379015 2 9 C1.60257155 7.16701179 1.206456 5.33373766 0.8125 3.5 C0.4103125 1.7675 0.4103125 1.7675 0 0 Z " fill="#D72D6D" transform="translate(219,219)"></path><path d="M0 0 C7.83391665 4.84014716 13.91011259 11.06386543 17.03515625 19.84375 C19.67030371 31.42904328 17.50401197 40.80881971 11.9453125 50.93359375 C5.89128265 58.50113106 -1.59111896 64.21312644 -11.3046875 65.74609375 C-22.72354416 66.65900365 -31.50904637 64.67806241 -40.4921875 57.43359375 C-47.28436416 51.10984307 -51.71590152 43.36960066 -52.6875 34.08984375 C-52.91752038 26.42249788 -52.44817197 20.28301955 -48.3046875 13.74609375 C-47.86898438 13.05 -47.43328125 12.35390625 -46.984375 11.63671875 C-36.19829071 -4.04141471 -16.85423695 -9.16984756 0 0 Z " fill="#FEFAFB" transform="translate(417.3046875,225.25390625)"></path><path d="M0 0 C6.69745623 5.21076815 10.89615369 12.64995142 13.15234375 20.7578125 C14.31002974 31.24429371 12.43481643 40.36772896 6.40234375 49.0703125 C0.2003649 56.65223165 -8.18308476 62.02823456 -18.0234375 63.10546875 C-30.40046621 63.43998304 -38.78450301 60.34431122 -47.7578125 51.9765625 C-54.50077915 44.99021914 -57.02371544 37.31948956 -57.34765625 27.6953125 C-57.02899099 17.97602214 -53.64199442 9.77038423 -46.84765625 2.7578125 C-32.46988063 -9.44002781 -15.67919184 -10.54119029 0 0 Z " fill="#FEFAFB" transform="translate(133.84765625,228.2421875)"></path><path d="M0 0 C5.16691514 3.02479824 9.43504706 7.84866083 11.625 13.4375 C12.47387834 20.69317589 12.80392642 27.72610176 8.25390625 33.75390625 C2.51470811 39.6857873 -2.35438352 42.52551184 -10.625 42.75 C-17.02300372 42.66480687 -21.4052008 41.16918612 -26.12890625 36.82421875 C-31.60444872 30.87368946 -32.86769245 25.16481406 -32.68359375 17.18359375 C-31.90935042 10.29380816 -28.46324637 5.99107819 -23.25390625 1.6640625 C-16.48277267 -2.75617855 -7.39669183 -3.32067283 0 0 Z " fill="#E23775" transform="translate(410.375,235.5625)"></path><path d="M0 0 C6.89819748 2.41765397 10.98317909 6.16554281 14.73828125 12.46875 C16.6853768 18.31003665 16.36749466 24.44864377 14.55078125 30.28125 C10.87700175 36.74203465 6.9671057 41.34892998 -0.26171875 43.46875 C-7.61659332 44.43884113 -14.2336929 44.07050188 -20.26171875 39.46875 C-24.88879893 35.11020572 -27.80397607 30.86660912 -28.66796875 24.453125 C-28.86726196 17.57750925 -28.38832605 12.87083184 -24.12109375 7.34375 C-17.29600562 0.46130819 -9.52667957 -2.23770021 0 0 Z " fill="#CC2364" transform="translate(118.26171875,234.53125)"></path><path d="M0 0 C4.81205284 2.63358251 9.14476631 5.46877364 13.4375 8.875 C17.72264324 12.26676104 22.00687754 15.44741131 26.70703125 18.2578125 C28.50050818 20.67440074 28.72683425 22.94594768 28.59936523 25.90917969 C27.38103946 30.1591764 23.62430636 32.17951882 20.125 34.5625 C19.3522876 35.11897217 18.5795752 35.67544434 17.78344727 36.2487793 C15.53880552 37.85766224 13.27280136 39.43126453 11 41 C9.879939 41.79466476 8.76123137 42.59124427 7.64453125 43.390625 C5.44520636 44.95205046 3.23478696 46.49000881 1 48 C-4.80205656 42.35475578 -4.80205656 42.35475578 -7 39 C-7 38.34 -7 37.68 -7 37 C-4.03 35.02 -1.06 33.04 2 31 C-5.92 30.67 -13.84 30.34 -22 30 C-22 26.04 -22 22.08 -22 18 C-14.08 17.67 -6.16 17.34 2 17 C-2.455 14.03 -2.455 14.03 -7 11 C-5.0199877 6.04996925 -3.41170047 3.86060843 0 0 Z " fill="#FEFCFD" transform="translate(330,232)"></path><path d="M0 0 C5.17764543 2.28644938 8.70835797 6.26145745 12.6875 10.1875 C13.47189453 10.93064453 14.25628906 11.67378906 15.06445312 12.43945312 C15.81017578 13.17486328 16.55589844 13.91027344 17.32421875 14.66796875 C18.00572998 15.33078857 18.68724121 15.9936084 19.3894043 16.67651367 C21.60096472 19.86696698 21.99680291 22.13099138 22 26 C20.27758789 28.63061523 20.27758789 28.63061523 17.72265625 31.05859375 C16.81708984 31.93837891 15.91152344 32.81816406 14.97851562 33.72460938 C14.01623047 34.61986328 13.05394531 35.51511719 12.0625 36.4375 C11.09259256 37.36725771 10.12447043 38.29888166 9.15820312 39.23242188 C6.78906662 41.50726439 4.40334541 43.7614192 2 46 C-2.62068454 43.8231071 -4.77956903 40.9523471 -8 37 C-5.69 34.69 -3.38 32.38 -1 30 C-14.86 29.505 -14.86 29.505 -29 29 C-29 25.04 -29 21.08 -29 17 C-19.76 16.67 -10.52 16.34 -1 16 C-3.31 13.69 -5.62 11.38 -8 9 C-2.25 2.25 -2.25 2.25 0 0 Z " fill="#FEFDFD" transform="translate(183,233)"></path></svg>