<svg version="1.1" xmlns="http://www.w3.org/2000/svg" width="16px" height="16px" fill="currentColor" viewBox="0 0 512 512"><path d="M0 0 C168.96 0 337.92 0 512 0 C512 168.96 512 337.92 512 512 C343.04 512 174.08 512 0 512 C0 343.04 0 174.08 0 0 Z " fill="#D72B6B" transform="translate(0,0)"></path><path d="M0 0 C0.99112793 -0.00945648 1.98225586 -0.01891296 3.00341797 -0.02865601 C4.07221191 -0.02258331 5.14100586 -0.01651062 6.2421875 -0.01025391 C7.34062988 -0.01312408 8.43907227 -0.01599426 9.57080078 -0.01895142 C11.89421097 -0.02099377 14.21763828 -0.01545204 16.54101562 -0.00292969 C20.10325462 0.01312082 23.66435892 -0.00277338 27.2265625 -0.02197266 C29.48177335 -0.01999026 31.73698348 -0.01614665 33.9921875 -0.01025391 C35.06098145 -0.0163266 36.12977539 -0.02239929 37.23095703 -0.02865601 C38.71764893 -0.01447128 38.71764893 -0.01447128 40.234375 0 C41.10690918 0.00238678 41.97944336 0.00477356 42.87841797 0.00723267 C45.62561656 0.47469832 46.50507076 1.13743604 48.1171875 3.38818359 C48.49393268 6.18069943 48.71910691 8.77597561 48.8046875 11.57568359 C48.83884766 12.32527344 48.87300781 13.07486328 48.90820312 13.84716797 C48.99053044 15.69365197 49.05554031 17.54089353 49.1171875 19.38818359 C52.04755627 20.75818561 54.98745664 22.10636911 57.9296875 23.45068359 C58.76306641 23.840625 59.59644531 24.23056641 60.45507812 24.63232422 C61.25751953 24.99648437 62.05996094 25.36064453 62.88671875 25.73583984 C63.62510986 26.07623291 64.36350098 26.41662598 65.12426758 26.76733398 C67.29033687 27.65495744 67.29033687 27.65495744 70.1171875 26.38818359 C71.93374372 24.59571495 71.93374372 24.59571495 73.6796875 22.45068359 C78.74804061 16.44495765 78.74804061 16.44495765 81.45703125 16.02832031 C84.93900046 16.49935763 86.15173253 17.72978871 88.6796875 20.14599609 C89.54851562 20.96874023 90.41734375 21.79148438 91.3125 22.63916016 C92.23804688 23.54633789 93.16359375 24.45351562 94.1171875 25.38818359 C94.59639648 25.85430054 95.07560547 26.32041748 95.56933594 26.80065918 C98.60119635 29.75161321 101.60298385 32.73109349 104.58837891 35.72900391 C106.13979531 37.28587083 107.69660818 38.83720218 109.25390625 40.38818359 C110.25032149 41.38525826 111.24642722 42.38264234 112.2421875 43.38037109 C113.13164062 44.27095215 114.02109375 45.1615332 114.9375 46.07910156 C119.13472199 50.5254866 119.13472199 50.5254866 119.05859375 54.27099609 C117.87119741 58.20270681 116.18334968 59.64936455 113.0546875 62.26318359 C111.67603516 63.43494141 111.67603516 63.43494141 110.26953125 64.63037109 C109.20412109 65.50048828 109.20412109 65.50048828 108.1171875 66.38818359 C109.17247087 69.06584187 110.2611151 71.72008937 111.40625 74.36083984 C111.84710938 75.38048828 112.28796875 76.40013672 112.7421875 77.45068359 C113.18820312 78.47291016 113.63421875 79.49513672 114.09375 80.54833984 C115.1171875 83.38818359 115.1171875 83.38818359 115.1171875 87.38818359 C116.22578125 87.35337891 117.334375 87.31857422 118.4765625 87.28271484 C119.94008898 87.2545701 121.40363189 87.22727068 122.8671875 87.20068359 C123.59679687 87.17554688 124.32640625 87.15041016 125.078125 87.12451172 C128.18826273 87.08210075 130.56977944 87.08613969 133.32800293 88.60804749 C135.62152396 90.88996947 135.62282166 91.96656261 135.63476562 95.16333008 C135.64737427 96.13120956 135.65998291 97.09908905 135.67297363 98.09629822 C135.66487671 99.14008133 135.65677979 100.18386444 135.6484375 101.25927734 C135.6522644 102.33315201 135.65609131 103.40702667 135.66003418 104.51344299 C135.66275739 106.78558285 135.65536772 109.05775384 135.63867188 111.32983398 C135.61729016 114.8089799 135.63845024 118.28605569 135.6640625 121.76513672 C135.66141889 123.97152149 135.65629322 126.17790497 135.6484375 128.38427734 C135.65653442 129.42603622 135.66463135 130.4677951 135.67297363 131.54112244 C135.58002297 138.69954855 135.58002297 138.69954855 133.32714844 142.05151367 C129.96584401 144.0845607 126.66193848 143.81250078 122.8671875 143.63818359 C122.12210938 143.62013672 121.37703125 143.60208984 120.609375 143.58349609 C118.77809049 143.53654008 116.94747101 143.46480011 115.1171875 143.38818359 C114.8903125 144.48130859 114.6634375 145.57443359 114.4296875 146.70068359 C113.28877971 151.44178932 111.18696278 155.56169268 108.9453125 159.87255859 C107.88106212 162.31239946 107.88106212 162.31239946 108.72265625 164.50537109 C110.83827419 167.36175161 113.53135864 169.26843716 116.33984375 171.41162109 C118.85295627 174.20642315 119.17815504 175.60546219 119.1171875 179.38818359 C117.15086653 182.44421414 114.60977539 184.87569852 112.0234375 187.41162109 C111.28395874 188.15779694 110.54447998 188.90397278 109.78259277 189.67276001 C108.21392397 191.24619198 106.6363815 192.81081935 105.05078125 194.3671875 C102.6293498 196.75120919 100.24742873 199.17014705 97.8671875 201.59521484 C96.3381764 203.11959926 94.80699472 204.64181024 93.2734375 206.16162109 C92.56272095 206.88650726 91.85200439 207.61139343 91.11975098 208.35824585 C87.73832695 211.63049363 86.02777505 213.248805 81.27319336 213.9765625 C77.10955354 213.20032888 75.82210036 211.64038404 73.1796875 208.38818359 C72.02146484 206.99599609 72.02146484 206.99599609 70.83984375 205.57568359 C70.27136719 204.85380859 69.70289063 204.13193359 69.1171875 203.38818359 C63.86537578 205.06813532 58.87586262 207.16616902 53.82421875 209.36474609 C51.1171875 210.38818359 51.1171875 210.38818359 48.1171875 210.38818359 C48.16359375 211.49677734 48.21 212.60537109 48.2578125 213.74755859 C48.29533852 215.21107327 48.33173779 216.67461715 48.3671875 218.13818359 C48.40070313 218.86779297 48.43421875 219.59740234 48.46875 220.34912109 C48.52638712 223.51916267 48.44059014 225.85349123 46.78051758 228.59814453 C42.50669088 231.47060739 38.14735112 230.95856019 33.11328125 230.91943359 C32.03844986 230.9232605 30.96361847 230.9270874 29.85621643 230.93103027 C27.58585676 230.93375054 25.3154658 230.92638144 23.04516602 230.90966797 C19.56390827 230.88824035 16.08470956 230.90947786 12.60351562 230.93505859 C10.39843293 230.93241575 8.19335152 230.92729167 5.98828125 230.91943359 C4.94449814 230.92753052 3.90071503 230.93562744 2.82530212 230.94396973 C1.37348289 230.92505676 1.37348289 230.92505676 -0.10766602 230.90576172 C-1.38529564 230.90098816 -1.38529564 230.90098816 -2.68873596 230.89611816 C-4.8828125 230.38818359 -4.8828125 230.38818359 -6.66294861 228.59899902 C-8.51886717 225.23543246 -8.19886668 221.86955101 -8.0703125 218.13818359 C-8.05677734 217.39310547 -8.04324219 216.64802734 -8.02929688 215.88037109 C-7.99408454 214.04932943 -7.94028101 212.2186619 -7.8828125 210.38818359 C-9.8009375 210.04787109 -9.8009375 210.04787109 -11.7578125 209.70068359 C-16.55915496 208.67670061 -20.40567009 206.68718494 -24.62109375 204.21630859 C-26.83687023 203.15254495 -26.83687023 203.15254495 -28.96875 203.98974609 C-31.85799495 206.10066383 -33.70406426 208.84470535 -35.80859375 211.70849609 C-37.8828125 213.38818359 -37.8828125 213.38818359 -41.01855469 213.92895508 C-46.56479981 213.15280314 -48.96114986 210.31855409 -52.78515625 206.41552734 C-53.5077211 205.69965958 -54.23028595 204.98379181 -54.9747467 204.24623108 C-56.49512044 202.73061292 -58.0067213 201.20614998 -59.51000977 199.67358398 C-61.81272496 197.33339461 -64.15037471 195.03287826 -66.49414062 192.73388672 C-67.96839545 191.2550061 -69.44047729 189.77395544 -70.91015625 188.29052734 C-71.95996925 187.26196877 -71.95996925 187.26196877 -73.0309906 186.21263123 C-76.24492509 182.88755919 -77.75523767 181.24122129 -78.45532227 176.56005859 C-77.70017174 172.37629925 -76.1462569 171.10223217 -72.8828125 168.45068359 C-71.9546875 167.67853516 -71.0265625 166.90638672 -70.0703125 166.11083984 C-68.9875 165.258125 -68.9875 165.258125 -67.8828125 164.38818359 C-69.64875222 158.93357538 -71.73504849 153.63706047 -73.859375 148.31396484 C-74.8828125 145.38818359 -74.8828125 145.38818359 -74.8828125 142.38818359 C-75.99140625 142.50677734 -77.1 142.62537109 -78.2421875 142.74755859 C-79.70562854 142.87889305 -81.16917656 143.00903925 -82.6328125 143.13818359 C-83.36242187 143.21939453 -84.09203125 143.30060547 -84.84375 143.38427734 C-88.04451366 143.64615801 -90.29726633 143.73837394 -93.0949707 142.06518555 C-95.9589199 137.776888 -95.4332684 133.42543508 -95.37890625 128.38427734 C-95.38036148 127.30944595 -95.38181671 126.23461456 -95.38331604 125.12721252 C-95.38165708 122.85683479 -95.37009622 120.5864458 -95.34936523 118.31616211 C-95.32039111 114.83512805 -95.32876088 111.35561465 -95.34179688 107.87451172 C-95.33556016 105.66942617 -95.32716974 103.46434544 -95.31640625 101.25927734 C-95.31934189 100.21549423 -95.32227753 99.17171112 -95.32530212 98.09629822 C-95.31261795 97.12841873 -95.29993378 96.16053925 -95.28686523 95.16333008 C-95.28146225 94.311577 -95.27605927 93.45982391 -95.27049255 92.58226013 C-94.79873747 89.91236069 -94.0096038 89.02019799 -91.8828125 87.38818359 C-89.98168945 87.04760742 -89.98168945 87.04760742 -87.87109375 87.09521484 C-87.11376953 87.10488281 -86.35644531 87.11455078 -85.57617188 87.12451172 C-84.79048828 87.14964844 -84.00480469 87.17478516 -83.1953125 87.20068359 C-81.99938477 87.22098633 -81.99938477 87.22098633 -80.77929688 87.24169922 C-78.81351283 87.2770127 -76.84807668 87.33081913 -74.8828125 87.38818359 C-74.6559375 86.10943359 -74.4290625 84.83068359 -74.1953125 83.51318359 C-73.17132951 78.71184114 -71.18181385 74.865326 -68.7109375 70.64990234 C-67.64717386 68.43412587 -67.64717386 68.43412587 -68.484375 66.30224609 C-70.59529274 63.41300115 -73.33933426 61.56693184 -76.203125 59.46240234 C-77.8828125 57.38818359 -77.8828125 57.38818359 -78.43945312 54.26831055 C-77.63001468 48.62602753 -74.62831663 46.12635678 -70.65625 42.23193359 C-69.91581451 41.48480103 -69.17537903 40.73766846 -68.4125061 39.96789551 C-66.84561375 38.39624744 -65.26987729 36.83337394 -63.68603516 35.27880859 C-61.26243617 32.89273567 -58.87848602 30.47157255 -56.49609375 28.04443359 C-54.9683857 26.52135029 -53.4385081 25.00043936 -51.90625 23.48193359 C-51.19350922 22.75502319 -50.48076843 22.02811279 -49.74642944 21.2791748 C-44.70114301 16.39754068 -44.70114301 16.39754068 -40.50927734 16.34960938 C-37.68073787 17.46808929 -36.18259713 18.53474801 -34.1328125 20.76318359 C-33.27429688 21.67197266 -33.27429688 21.67197266 -32.3984375 22.59912109 C-30.8828125 24.38818359 -30.8828125 24.38818359 -28.8828125 27.38818359 C-28.19445312 27.11232422 -27.50609375 26.83646484 -26.796875 26.55224609 C-25.83523438 26.16810547 -24.87359375 25.78396484 -23.8828125 25.38818359 C-22.81804687 24.96279297 -21.75328125 24.53740234 -20.65625 24.09912109 C-19.53476562 23.65826172 -18.41328125 23.21740234 -17.2578125 22.76318359 C-16.13117188 22.31716797 -15.00453125 21.87115234 -13.84375 21.41162109 C-10.8828125 20.38818359 -10.8828125 20.38818359 -7.8828125 20.38818359 C-7.91761719 19.19580078 -7.95242188 18.00341797 -7.98828125 16.77490234 C-8.01642003 15.20851017 -8.0437201 13.64210278 -8.0703125 12.07568359 C-8.09544922 11.29 -8.12058594 10.50431641 -8.14648438 9.69482422 C-8.15615234 8.9375 -8.16582031 8.18017578 -8.17578125 7.39990234 C-8.1914917 6.70340576 -8.20720215 6.00690918 -8.22338867 5.28930664 C-7.3963946 0.67296054 -4.19930035 0.01148701 0 0 Z " fill="#D72C6C" transform="translate(299.8828125,204.61181640625)"></path><path d="M0 0 C0.99112793 -0.00945648 1.98225586 -0.01891296 3.00341797 -0.02865601 C4.07221191 -0.02258331 5.14100586 -0.01651062 6.2421875 -0.01025391 C7.34062988 -0.01312408 8.43907227 -0.01599426 9.57080078 -0.01895142 C11.89421097 -0.02099377 14.21763828 -0.01545204 16.54101562 -0.00292969 C20.10325462 0.01312082 23.66435892 -0.00277338 27.2265625 -0.02197266 C29.48177335 -0.01999026 31.73698348 -0.01614665 33.9921875 -0.01025391 C35.06098145 -0.0163266 36.12977539 -0.02239929 37.23095703 -0.02865601 C38.71764893 -0.01447128 38.71764893 -0.01447128 40.234375 0 C41.10690918 0.00238678 41.97944336 0.00477356 42.87841797 0.00723267 C45.62561656 0.47469832 46.50507076 1.13743604 48.1171875 3.38818359 C48.49393268 6.18069943 48.71910691 8.77597561 48.8046875 11.57568359 C48.83884766 12.32527344 48.87300781 13.07486328 48.90820312 13.84716797 C48.99053044 15.69365197 49.05554031 17.54089353 49.1171875 19.38818359 C52.04755627 20.75818561 54.98745664 22.10636911 57.9296875 23.45068359 C58.76306641 23.840625 59.59644531 24.23056641 60.45507812 24.63232422 C61.25751953 24.99648437 62.05996094 25.36064453 62.88671875 25.73583984 C63.62510986 26.07623291 64.36350098 26.41662598 65.12426758 26.76733398 C67.29033687 27.65495744 67.29033687 27.65495744 70.1171875 26.38818359 C71.93374372 24.59571495 71.93374372 24.59571495 73.6796875 22.45068359 C78.74804061 16.44495765 78.74804061 16.44495765 81.45703125 16.02832031 C84.93900046 16.49935763 86.15173253 17.72978871 88.6796875 20.14599609 C89.54851562 20.96874023 90.41734375 21.79148438 91.3125 22.63916016 C92.23804688 23.54633789 93.16359375 24.45351562 94.1171875 25.38818359 C94.59639648 25.85430054 95.07560547 26.32041748 95.56933594 26.80065918 C98.60119635 29.75161321 101.60298385 32.73109349 104.58837891 35.72900391 C106.13979531 37.28587083 107.69660818 38.83720218 109.25390625 40.38818359 C110.25032149 41.38525826 111.24642722 42.38264234 112.2421875 43.38037109 C113.13164062 44.27095215 114.02109375 45.1615332 114.9375 46.07910156 C119.13472199 50.5254866 119.13472199 50.5254866 119.05859375 54.27099609 C117.87119741 58.20270681 116.18334968 59.64936455 113.0546875 62.26318359 C111.67603516 63.43494141 111.67603516 63.43494141 110.26953125 64.63037109 C109.20412109 65.50048828 109.20412109 65.50048828 108.1171875 66.38818359 C109.17247087 69.06584187 110.2611151 71.72008937 111.40625 74.36083984 C111.84710938 75.38048828 112.28796875 76.40013672 112.7421875 77.45068359 C113.18820312 78.47291016 113.63421875 79.49513672 114.09375 80.54833984 C115.1171875 83.38818359 115.1171875 83.38818359 115.1171875 87.38818359 C116.22578125 87.35337891 117.334375 87.31857422 118.4765625 87.28271484 C119.94008898 87.2545701 121.40363189 87.22727068 122.8671875 87.20068359 C123.59679687 87.17554688 124.32640625 87.15041016 125.078125 87.12451172 C128.18826273 87.08210075 130.56977944 87.08613969 133.32800293 88.60804749 C135.62152396 90.88996947 135.62282166 91.96656261 135.63476562 95.16333008 C135.64737427 96.13120956 135.65998291 97.09908905 135.67297363 98.09629822 C135.66487671 99.14008133 135.65677979 100.18386444 135.6484375 101.25927734 C135.6522644 102.33315201 135.65609131 103.40702667 135.66003418 104.51344299 C135.66275739 106.78558285 135.65536772 109.05775384 135.63867188 111.32983398 C135.61729016 114.8089799 135.63845024 118.28605569 135.6640625 121.76513672 C135.66141889 123.97152149 135.65629322 126.17790497 135.6484375 128.38427734 C135.65653442 129.42603622 135.66463135 130.4677951 135.67297363 131.54112244 C135.58002297 138.69954855 135.58002297 138.69954855 133.32714844 142.05151367 C129.96584401 144.0845607 126.66193848 143.81250078 122.8671875 143.63818359 C122.12210938 143.62013672 121.37703125 143.60208984 120.609375 143.58349609 C118.77809049 143.53654008 116.94747101 143.46480011 115.1171875 143.38818359 C114.8903125 144.48130859 114.6634375 145.57443359 114.4296875 146.70068359 C113.28877971 151.44178932 111.18696278 155.56169268 108.9453125 159.87255859 C107.88106212 162.31239946 107.88106212 162.31239946 108.72265625 164.50537109 C110.83827419 167.36175161 113.53135864 169.26843716 116.33984375 171.41162109 C118.85295627 174.20642315 119.17815504 175.60546219 119.1171875 179.38818359 C117.15086653 182.44421414 114.60977539 184.87569852 112.0234375 187.41162109 C111.28395874 188.15779694 110.54447998 188.90397278 109.78259277 189.67276001 C108.21392397 191.24619198 106.6363815 192.81081935 105.05078125 194.3671875 C102.6293498 196.75120919 100.24742873 199.17014705 97.8671875 201.59521484 C96.3381764 203.11959926 94.80699472 204.64181024 93.2734375 206.16162109 C92.56272095 206.88650726 91.85200439 207.61139343 91.11975098 208.35824585 C87.73832695 211.63049363 86.02777505 213.248805 81.27319336 213.9765625 C77.10955354 213.20032888 75.82210036 211.64038404 73.1796875 208.38818359 C72.02146484 206.99599609 72.02146484 206.99599609 70.83984375 205.57568359 C70.27136719 204.85380859 69.70289063 204.13193359 69.1171875 203.38818359 C63.86537578 205.06813532 58.87586262 207.16616902 53.82421875 209.36474609 C51.1171875 210.38818359 51.1171875 210.38818359 48.1171875 210.38818359 C48.16359375 211.49677734 48.21 212.60537109 48.2578125 213.74755859 C48.29533852 215.21107327 48.33173779 216.67461715 48.3671875 218.13818359 C48.40070313 218.86779297 48.43421875 219.59740234 48.46875 220.34912109 C48.52638712 223.51916267 48.44059014 225.85349123 46.78051758 228.59814453 C42.50669088 231.47060739 38.14735112 230.95856019 33.11328125 230.91943359 C32.03844986 230.9232605 30.96361847 230.9270874 29.85621643 230.93103027 C27.58585676 230.93375054 25.3154658 230.92638144 23.04516602 230.90966797 C19.56390827 230.88824035 16.08470956 230.90947786 12.60351562 230.93505859 C10.39843293 230.93241575 8.19335152 230.92729167 5.98828125 230.91943359 C4.94449814 230.92753052 3.90071503 230.93562744 2.82530212 230.94396973 C1.37348289 230.92505676 1.37348289 230.92505676 -0.10766602 230.90576172 C-1.38529564 230.90098816 -1.38529564 230.90098816 -2.68873596 230.89611816 C-4.8828125 230.38818359 -4.8828125 230.38818359 -6.66294861 228.59899902 C-8.51886717 225.23543246 -8.19886668 221.86955101 -8.0703125 218.13818359 C-8.05677734 217.39310547 -8.04324219 216.64802734 -8.02929688 215.88037109 C-7.99408454 214.04932943 -7.94028101 212.2186619 -7.8828125 210.38818359 C-9.8009375 210.04787109 -9.8009375 210.04787109 -11.7578125 209.70068359 C-16.55915496 208.67670061 -20.40567009 206.68718494 -24.62109375 204.21630859 C-26.83687023 203.15254495 -26.83687023 203.15254495 -28.96875 203.98974609 C-31.85799495 206.10066383 -33.70406426 208.84470535 -35.80859375 211.70849609 C-37.8828125 213.38818359 -37.8828125 213.38818359 -41.01855469 213.92895508 C-46.56479981 213.15280314 -48.96114986 210.31855409 -52.78515625 206.41552734 C-53.5077211 205.69965958 -54.23028595 204.98379181 -54.9747467 204.24623108 C-56.49512044 202.73061292 -58.0067213 201.20614998 -59.51000977 199.67358398 C-61.81272496 197.33339461 -64.15037471 195.03287826 -66.49414062 192.73388672 C-67.96839545 191.2550061 -69.44047729 189.77395544 -70.91015625 188.29052734 C-71.95996925 187.26196877 -71.95996925 187.26196877 -73.0309906 186.21263123 C-76.24492509 182.88755919 -77.75523767 181.24122129 -78.45532227 176.56005859 C-77.70017174 172.37629925 -76.1462569 171.10223217 -72.8828125 168.45068359 C-71.9546875 167.67853516 -71.0265625 166.90638672 -70.0703125 166.11083984 C-68.9875 165.258125 -68.9875 165.258125 -67.8828125 164.38818359 C-69.64875222 158.93357538 -71.73504849 153.63706047 -73.859375 148.31396484 C-74.8828125 145.38818359 -74.8828125 145.38818359 -74.8828125 142.38818359 C-75.99140625 142.50677734 -77.1 142.62537109 -78.2421875 142.74755859 C-79.70562854 142.87889305 -81.16917656 143.00903925 -82.6328125 143.13818359 C-83.36242187 143.21939453 -84.09203125 143.30060547 -84.84375 143.38427734 C-88.04451366 143.64615801 -90.29726633 143.73837394 -93.0949707 142.06518555 C-95.9589199 137.776888 -95.4332684 133.42543508 -95.37890625 128.38427734 C-95.38036148 127.30944595 -95.38181671 126.23461456 -95.38331604 125.12721252 C-95.38165708 122.85683479 -95.37009622 120.5864458 -95.34936523 118.31616211 C-95.32039111 114.83512805 -95.32876088 111.35561465 -95.34179688 107.87451172 C-95.33556016 105.66942617 -95.32716974 103.46434544 -95.31640625 101.25927734 C-95.31934189 100.21549423 -95.32227753 99.17171112 -95.32530212 98.09629822 C-95.31261795 97.12841873 -95.29993378 96.16053925 -95.28686523 95.16333008 C-95.28146225 94.311577 -95.27605927 93.45982391 -95.27049255 92.58226013 C-94.79873747 89.91236069 -94.0096038 89.02019799 -91.8828125 87.38818359 C-89.98168945 87.04760742 -89.98168945 87.04760742 -87.87109375 87.09521484 C-87.11376953 87.10488281 -86.35644531 87.11455078 -85.57617188 87.12451172 C-84.79048828 87.14964844 -84.00480469 87.17478516 -83.1953125 87.20068359 C-81.99938477 87.22098633 -81.99938477 87.22098633 -80.77929688 87.24169922 C-78.81351283 87.2770127 -76.84807668 87.33081913 -74.8828125 87.38818359 C-74.6559375 86.10943359 -74.4290625 84.83068359 -74.1953125 83.51318359 C-73.17132951 78.71184114 -71.18181385 74.865326 -68.7109375 70.64990234 C-67.64717386 68.43412587 -67.64717386 68.43412587 -68.484375 66.30224609 C-70.59529274 63.41300115 -73.33933426 61.56693184 -76.203125 59.46240234 C-77.8828125 57.38818359 -77.8828125 57.38818359 -78.43945312 54.26831055 C-77.63001468 48.62602753 -74.62831663 46.12635678 -70.65625 42.23193359 C-69.91581451 41.48480103 -69.17537903 40.73766846 -68.4125061 39.96789551 C-66.84561375 38.39624744 -65.26987729 36.83337394 -63.68603516 35.27880859 C-61.26243617 32.89273567 -58.87848602 30.47157255 -56.49609375 28.04443359 C-54.9683857 26.52135029 -53.4385081 25.00043936 -51.90625 23.48193359 C-51.19350922 22.75502319 -50.48076843 22.02811279 -49.74642944 21.2791748 C-44.70114301 16.39754068 -44.70114301 16.39754068 -40.50927734 16.34960938 C-37.68073787 17.46808929 -36.18259713 18.53474801 -34.1328125 20.76318359 C-33.27429688 21.67197266 -33.27429688 21.67197266 -32.3984375 22.59912109 C-30.8828125 24.38818359 -30.8828125 24.38818359 -28.8828125 27.38818359 C-28.19445312 27.11232422 -27.50609375 26.83646484 -26.796875 26.55224609 C-25.83523438 26.16810547 -24.87359375 25.78396484 -23.8828125 25.38818359 C-22.81804687 24.96279297 -21.75328125 24.53740234 -20.65625 24.09912109 C-19.53476562 23.65826172 -18.41328125 23.21740234 -17.2578125 22.76318359 C-16.13117188 22.31716797 -15.00453125 21.87115234 -13.84375 21.41162109 C-10.8828125 20.38818359 -10.8828125 20.38818359 -7.8828125 20.38818359 C-7.91761719 19.19580078 -7.95242188 18.00341797 -7.98828125 16.77490234 C-8.01642003 15.20851017 -8.0437201 13.64210278 -8.0703125 12.07568359 C-8.09544922 11.29 -8.12058594 10.50431641 -8.14648438 9.69482422 C-8.15615234 8.9375 -8.16582031 8.18017578 -8.17578125 7.39990234 C-8.1914917 6.70340576 -8.20720215 6.00690918 -8.22338867 5.28930664 C-7.3963946 0.67296054 -4.19930035 0.01148701 0 0 Z M6.1171875 13.38818359 C6.0553125 15.63630859 5.9934375 17.88443359 5.9296875 20.20068359 C5.82421875 24.03271484 5.82421875 24.03271484 5.1171875 27.38818359 C1.62100207 30.38491396 -2.64935475 31.37676793 -7.0078125 32.70068359 C-11.98261307 34.25530877 -16.36143004 36.0454673 -20.8828125 38.70068359 C-27.94081658 42.69361648 -27.94081658 42.69361648 -32.8828125 41.38818359 C-35.84422085 38.9623491 -38.39055831 36.2882612 -40.8828125 33.38818359 C-44.24616844 34.84563783 -46.42815255 36.69936213 -48.9921875 39.30224609 C-49.74628906 40.06279297 -50.50039062 40.82333984 -51.27734375 41.60693359 C-52.44330078 42.79802734 -52.44330078 42.79802734 -53.6328125 44.01318359 C-54.42558594 44.81498047 -55.21835938 45.61677734 -56.03515625 46.44287109 C-57.98895743 48.42021205 -59.93793353 50.40207268 -61.8828125 52.38818359 C-59.99528237 56.40352204 -57.60988514 58.5668917 -54.24609375 61.41162109 C-52.8828125 63.38818359 -52.8828125 63.38818359 -52.9375 66.14208984 C-54.07757918 70.05698984 -55.76419774 73.3758353 -57.6953125 76.95068359 C-60.9600184 83.17586275 -63.25886832 89.08135914 -64.99609375 95.91162109 C-65.8828125 98.38818359 -65.8828125 98.38818359 -68.8828125 100.38818359 C-73.1728125 100.38818359 -77.4628125 100.38818359 -81.8828125 100.38818359 C-81.8828125 109.95818359 -81.8828125 119.52818359 -81.8828125 129.38818359 C-77.5928125 129.71818359 -73.3028125 130.04818359 -68.8828125 130.38818359 C-64.38922708 134.88176901 -64.38922708 134.88176901 -63.35546875 138.39990234 C-63.1229541 139.15360107 -62.89043945 139.9072998 -62.65087891 140.68383789 C-62.30162354 141.86780151 -62.30162354 141.86780151 -61.9453125 143.07568359 C-60.35526425 148.20478913 -58.83231702 152.96686035 -56.0078125 157.57568359 C-53.7331416 161.4090634 -52.81477822 163.86957702 -53.8828125 168.38818359 C-56.30063112 171.35669843 -58.98265068 173.89585703 -61.8828125 176.38818359 C-60.42535826 179.75153953 -58.57163396 181.93352364 -55.96875 184.49755859 C-55.20820313 185.25166016 -54.44765625 186.00576172 -53.6640625 186.78271484 C-52.87 187.56001953 -52.0759375 188.33732422 -51.2578125 189.13818359 C-50.45601562 189.93095703 -49.65421875 190.72373047 -48.828125 191.54052734 C-46.85078404 193.49432853 -44.86892341 195.44330462 -42.8828125 197.38818359 C-38.86747406 195.50065346 -36.70410439 193.11525623 -33.859375 189.75146484 C-31.8828125 188.38818359 -31.8828125 188.38818359 -29.12890625 188.44287109 C-25.21390508 189.58297974 -21.89539728 191.26987654 -18.3203125 193.20068359 C-12.10029237 196.45617005 -6.16050136 198.79336298 0.640625 200.59912109 C3.1171875 201.38818359 3.1171875 201.38818359 5.1171875 203.38818359 C5.1171875 208.00818359 5.1171875 212.62818359 5.1171875 217.38818359 C15.0171875 217.38818359 24.9171875 217.38818359 35.1171875 217.38818359 C35.1171875 212.76818359 35.1171875 208.14818359 35.1171875 203.38818359 C39.60560177 200.02187289 39.60560177 200.02187289 43.05859375 198.99365234 C43.80214111 198.76299072 44.54568848 198.5323291 45.31176758 198.29467773 C46.48388794 197.93877563 46.48388794 197.93877563 47.6796875 197.57568359 C54.2462823 195.5133655 60.02726358 193.13678206 65.85546875 189.39208984 C68.80354664 188.08353023 70.10727313 188.27726883 73.1171875 189.38818359 C75.35546875 191.23583984 75.35546875 191.23583984 77.4296875 193.45068359 C78.12707031 194.18416016 78.82445312 194.91763672 79.54296875 195.67333984 C80.06246094 196.23923828 80.58195313 196.80513672 81.1171875 197.38818359 C84.48054344 195.93072935 86.66252755 194.07700506 89.2265625 191.47412109 C89.98066406 190.71357422 90.73476563 189.95302734 91.51171875 189.16943359 C92.28902344 188.37537109 93.06632813 187.58130859 93.8671875 186.76318359 C94.65996094 185.96138672 95.45273437 185.15958984 96.26953125 184.33349609 C98.22333243 182.35615514 100.17230853 180.37429451 102.1171875 178.38818359 C100.23629057 174.40144393 97.86594186 172.15902672 94.578125 169.26708984 C93.1171875 167.38818359 93.1171875 167.38818359 92.74609375 164.91943359 C93.17126395 162.0193253 93.98218978 160.69686187 95.6796875 158.32568359 C99.51377253 152.34232524 101.56224032 145.8797235 103.75610352 139.16918945 C104.03510498 138.32364502 104.31410645 137.47810059 104.6015625 136.60693359 C104.84616211 135.84316406 105.09076172 135.07939453 105.34277344 134.29248047 C106.1171875 132.38818359 106.1171875 132.38818359 108.1171875 130.38818359 C112.77385894 129.79632847 117.42650816 129.64403883 122.1171875 129.38818359 C122.1171875 120.14818359 122.1171875 110.90818359 122.1171875 101.38818359 C119.8690625 101.32630859 117.6209375 101.26443359 115.3046875 101.20068359 C111.47265625 101.09521484 111.47265625 101.09521484 108.1171875 100.38818359 C105.12045713 96.89199817 104.12860316 92.62164134 102.8046875 88.26318359 C99.44072392 77.50451251 99.44072392 77.50451251 93.1171875 68.38818359 C92.7734375 66.12646484 92.7734375 66.12646484 93.1171875 63.38818359 C95.0859375 60.93115234 95.0859375 60.93115234 97.6171875 58.57568359 C98.4525 57.78548828 99.2878125 56.99529297 100.1484375 56.18115234 C100.798125 55.58947266 101.4478125 54.99779297 102.1171875 54.38818359 C100.65973326 51.02482766 98.80600896 48.84284354 96.203125 46.27880859 C95.44257813 45.52470703 94.68203125 44.77060547 93.8984375 43.99365234 C92.70734375 42.82769531 92.70734375 42.82769531 91.4921875 41.63818359 C90.69039062 40.84541016 89.88859375 40.05263672 89.0625 39.23583984 C87.08515904 37.28203866 85.10329841 35.33306257 83.1171875 33.38818359 C79.9350772 34.88946585 78.02628599 36.37935711 75.6796875 39.01318359 C72.44737127 42.28658859 72.44737127 42.28658859 69.6796875 43.13818359 C67.16565996 42.40237065 65.8023459 41.563806 63.66796875 40.10302734 C58.66136861 36.91871801 53.33566375 35.1009838 47.7421875 33.20068359 C45.77428904 32.52477539 43.8080469 31.84401939 41.84375 31.15771484 C40.55331787 30.71842651 40.55331787 30.71842651 39.23681641 30.27026367 C37.1171875 29.38818359 37.1171875 29.38818359 35.1171875 27.38818359 C34.52533238 22.73151216 34.37304274 18.07886294 34.1171875 13.38818359 C24.8771875 13.38818359 15.6371875 13.38818359 6.1171875 13.38818359 Z " fill="#FEF9FB" transform="translate(299.8828125,204.61181640625)"></path><path d="M0 0 C1.3668791 1.1517465 2.72101691 2.31877115 4.0625 3.5 C4.84496094 4.14066406 5.62742187 4.78132813 6.43359375 5.44140625 C18.29617485 15.4903634 26.29272352 27.6500848 33.0625 41.5 C34.45662109 40.77683594 34.45662109 40.77683594 35.87890625 40.0390625 C37.12743755 39.40071567 38.37614495 38.76271322 39.625 38.125 C40.23408203 37.80789062 40.84316406 37.49078125 41.47070312 37.1640625 C51.77586808 31.929693 61.53872628 30.96968668 72.6875 34.125 C85.6562941 38.56169272 93.64744117 45.25293444 99.875 57.4375 C103.63157888 65.13114486 105.42576931 71.96317115 105.0625 80.5 C105.76117188 80.61988281 106.45984375 80.73976563 107.1796875 80.86328125 C121.45861266 84.01702759 133.80428031 91.27697146 144.0625 101.5 C144.70058594 102.11488281 145.33867187 102.72976562 145.99609375 103.36328125 C157.33677764 115.15860281 161.3127929 130.97097787 161.25 146.9375 C161.20287632 149.12538525 161.14624939 151.31321045 161.0625 153.5 C156.7725 153.5 152.4825 153.5 148.0625 153.5 C148.02511719 152.48421875 147.98773438 151.4684375 147.94921875 150.421875 C147.21146678 133.67429212 143.98652258 119.80189341 131.4375 107.625 C121.84318218 99.54792314 109.91652527 95.02176362 97.8046875 92.37890625 C93.67349171 91.05480504 93.67349171 91.05480504 92.0625 88.5 C91.69140625 85.3125 91.69140625 85.3125 91.625 81.5 C91.19950813 70.59397161 88.01897144 61.00224353 79.9375 53.375 C73.38897623 48.08044887 66.18722991 45.73893659 57.78515625 46.12890625 C47.49762801 47.53108011 41.19695136 53.36554864 34.0625 60.5 C30.6875 60.875 30.6875 60.875 27.0625 60.5 C24.43638447 57.00084074 22.84064276 52.88881205 21.05566406 48.9128418 C16.95447011 39.83380129 12.50370269 32.1518667 6.0625 24.5 C4.89267578 23.02273437 4.89267578 23.02273437 3.69921875 21.515625 C-7.82489438 7.75157032 -27.05283348 -2.34294697 -44.73291016 -4.3125 C-66.78764732 -6.18825173 -86.93808724 -2.49184112 -104.9375 11 C-106.28949975 12.14498278 -107.62391638 13.31114048 -108.9375 14.5 C-109.58589844 15.056875 -110.23429687 15.61375 -110.90234375 16.1875 C-123.84317345 28.07768808 -135.00313122 47.87035612 -136.13623047 65.61157227 C-136.28836224 70.417246 -136.36296168 75.22159859 -136.41601562 80.02929688 C-136.44244141 81.20169922 -136.46886719 82.37410156 -136.49609375 83.58203125 C-136.50954834 84.64655518 -136.52300293 85.7110791 -136.53686523 86.80786133 C-136.9375 89.5 -136.9375 89.5 -138.28881836 91.29418945 C-140.70070877 93.0581946 -143.25017275 93.88436936 -146.0625 94.875 C-160.58856879 100.31222176 -172.51325808 108.67480378 -179.15234375 123.1484375 C-185.54638096 138.66706163 -185.06728198 157.91775047 -178.9375 173.5 C-173.45618256 186.2952942 -164.2165453 195.95972522 -151.9375 202.5 C-144.98312323 205.18316072 -137.83656515 204.85176046 -130.47265625 204.9140625 C-129.07017404 204.93279619 -127.66770283 204.95237121 -126.26524353 204.9727478 C-122.59437584 205.0238429 -118.9234717 205.06358877 -115.25244141 205.10089111 C-111.49828238 205.14107355 -107.74427201 205.19210055 -103.99023438 205.2421875 C-96.6394177 205.33867858 -89.28854222 205.42216432 -81.9375 205.5 C-81.9375 209.79 -81.9375 214.08 -81.9375 218.5 C-89.92717114 218.59093878 -97.91642928 218.66407918 -105.90648174 218.70724869 C-109.61794696 218.72798433 -113.32903498 218.75603909 -117.0402832 218.80175781 C-120.63243544 218.8457245 -124.22422854 218.86924205 -127.81662941 218.87950897 C-129.83097318 218.89032566 -131.84517563 218.9214672 -133.85929871 218.95318604 C-151.76103251 218.95747742 -164.5802884 212.20440437 -177.4296875 200.10546875 C-187.50786834 189.63483538 -192.37353927 177.37149423 -195.9375 163.5 C-196.11474609 162.86723145 -196.29199219 162.23446289 -196.47460938 161.58251953 C-200.00814489 145.68533707 -196.69635916 125.9051044 -189.0859375 111.82421875 C-180.27160842 98.18604776 -167.77149852 88.77298909 -152.9375 82.5 C-151.9475 82.5 -150.9575 82.5 -149.9375 82.5 C-149.96070313 81.49582031 -149.98390625 80.49164063 -150.0078125 79.45703125 C-150.4287163 53.9263887 -142.33905314 30.48866548 -124.9375 11.5 C-124.10476562 10.57445313 -123.27203125 9.64890625 -122.4140625 8.6953125 C-112.09287117 -2.23122729 -100.06274534 -9.43216388 -85.9375 -14.5 C-84.78636719 -14.91378906 -83.63523437 -15.32757813 -82.44921875 -15.75390625 C-54.26079839 -24.29675381 -23.29954043 -17.52548329 0 0 Z " fill="#FEFAFB" transform="translate(273.9375,95.5)"></path><path d="M0 0 C4.29 0 8.58 0 13 0 C13 1.98 13 3.96 13 6 C40.39 6 67.78 6 96 6 C96 10.29 96 14.58 96 19 C68.61 19 41.22 19 13 19 C13 23.29 13 27.58 13 32 C8.71 32 4.42 32 0 32 C0 27.71 0 23.42 0 19 C-8.58 19 -17.16 19 -26 19 C-26 14.71 -26 10.42 -26 6 C-17.42 6 -8.84 6 0 6 C0 4.02 0 2.04 0 0 Z " fill="#FEFAFC" transform="translate(288,346)"></path><path d="M0 0 C3.96 0 7.92 0 12 0 C12 1.98 12 3.96 12 6 C20.58 6 29.16 6 38 6 C38 10.29 38 14.58 38 19 C29.42 19 20.84 19 12 19 C12 23.29 12 27.58 12 32 C8.04 32 4.08 32 0 32 C0 27.71 0 23.42 0 19 C-27.72 19 -55.44 19 -84 19 C-84 14.71 -84 10.42 -84 6 C-56.28 6 -28.56 6 0 6 C0 4.02 0 2.04 0 0 Z " fill="#FEFBFC" transform="translate(346,269)"></path><path d="M0 0 C3.96 0 7.92 0 12 0 C12 2.31 12 4.62 12 7 C31.14 7 50.28 7 70 7 C70 10.96 70 14.92 70 19 C50.86 19 31.72 19 12 19 C12 23.29 12 27.58 12 32 C8.04 32 4.08 32 0 32 C0 27.71 0 23.42 0 19 C-16.83 19 -33.66 19 -51 19 C-51 15.04 -51 11.08 -51 7 C-34.17 7 -17.34 7 0 7 C0 4.69 0 2.38 0 0 Z " fill="#FEFEFE" transform="translate(314,307)"></path></svg>