<svg version="1.1" xmlns="http://www.w3.org/2000/svg" width="16px" height="16px" fill="currentColor" viewBox="0 0 512 512"><path d="M0 0 C168.96 0 337.92 0 512 0 C512 168.96 512 337.92 512 512 C343.04 512 174.08 512 0 512 C0 343.04 0 174.08 0 0 Z " fill="#3F52D5" transform="translate(0,0)"></path><path d="M0 0 C1.5778125 1.11375 1.5778125 1.11375 3.1875 2.25 C7.92147369 6.87877428 13.67003012 13.98959559 14.12304783 20.86841106 C14.12212604 21.5735827 14.12120424 22.27875433 14.12025452 23.0052948 C14.12231651 24.22311897 14.12231651 24.22311897 14.12442017 25.46554565 C14.12082489 26.35243073 14.11722961 27.2393158 14.11352539 28.15307617 C14.11367142 29.08985703 14.11381744 30.02663788 14.1139679 30.99180603 C14.1132705 34.09221705 14.10548617 37.19256821 14.09765625 40.29296875 C14.09579146 42.44102445 14.09436784 44.58908057 14.09336853 46.73713684 C14.0895482 52.39408541 14.07972201 58.05100835 14.06866455 63.70794678 C14.05844005 69.47912245 14.05386868 75.25030226 14.04882812 81.02148438 C14.03809934 92.34766752 14.02102869 103.67383163 14 115 C9.71 115 5.42 115 1 115 C0.67 93.55 0.34 72.1 0 50 C-6.93 54.455 -6.93 54.455 -14 59 C-43.16278032 72.04650698 -73.7027333 76.44503445 -105.4375 76.4375 C-106.88743851 76.43910126 -106.88743851 76.43910126 -108.3666687 76.44073486 C-134.20948887 76.39996204 -160.63550926 74.20311275 -185 65 C-186.14597656 64.5771875 -187.29195312 64.154375 -188.47265625 63.71875 C-196.64559994 60.49503517 -204.52728771 56.53562774 -211.66674805 51.3984375 C-212.60516792 50.72433838 -212.60516792 50.72433838 -213.56254578 50.03662109 C-214.03690567 49.69453613 -214.51126556 49.35245117 -215 49 C-214.96187042 58.51048671 -214.90240364 68.02053597 -214.81609726 77.53070831 C-214.77667834 81.94724459 -214.74446263 86.36358315 -214.72900391 90.78027344 C-214.71380029 95.04694898 -214.67928974 99.31308078 -214.63169098 103.57951355 C-214.61691521 105.20284789 -214.60896118 106.82625989 -214.60811615 108.44966125 C-214.59822608 117.92716211 -214.48543784 125.22666416 -208.421875 133.03125 C-183.52051739 154.90720902 -142.69072829 158.58360938 -111.15209961 158.33618164 C-107.93643125 158.31249213 -104.72159382 158.31566549 -101.50585938 158.32226562 C-88.55598776 158.30333578 -75.85428195 157.56720152 -63 156 C-61.99503148 159.01490557 -61.89664697 161.04181692 -61.9375 164.1875 C-61.94652344 165.08855469 -61.95554688 165.98960937 -61.96484375 166.91796875 C-61.98224609 167.94857422 -61.98224609 167.94857422 -62 169 C-98.88367231 176.07452188 -143.22787145 174.86155382 -179 163 C-179.69963867 162.77054688 -180.39927734 162.54109375 -181.12011719 162.3046875 C-191.96844058 158.67027451 -202.35683291 154.10453301 -211.68530273 147.38696289 C-212.30823715 146.93922012 -212.93117157 146.49147736 -213.57298279 146.03016663 C-214.04389847 145.69021164 -214.51481415 145.35025665 -215 145 C-214.96185335 153.72820592 -214.90236234 162.4559359 -214.81609726 171.18379974 C-214.77669515 175.23713225 -214.74447137 179.29024989 -214.72900391 183.34375 C-214.71378896 187.26032022 -214.67925909 191.17629943 -214.63169098 195.09260559 C-214.61692672 196.58196354 -214.60896184 198.0714059 -214.60811615 199.56083679 C-214.59780783 208.61767268 -214.4914853 215.9226688 -208.203125 223.03125 C-172.09785335 250.18241428 -116.94558044 252.28765026 -73.71484375 246.4375 C-70.1040014 246.01224833 -66.63175695 245.92443679 -63 246 C-61.65295839 250.04112484 -61.93886759 253.78186395 -62 258 C-93.46419815 265.61024305 -129.51716079 263.69308102 -161 257 C-161.69496582 256.85836426 -162.38993164 256.71672852 -163.10595703 256.57080078 C-181.15359523 252.8578859 -199.55158479 246.80846165 -214 235 C-214.10157378 242.01077881 -214.17153861 249.02136725 -214.21972656 256.03271484 C-214.23981893 258.41690157 -214.26709781 260.80103915 -214.30175781 263.18505859 C-214.35037859 266.61568338 -214.37299312 270.04565555 -214.390625 273.4765625 C-214.41127014 274.53928375 -214.43191528 275.602005 -214.45318604 276.69692993 C-214.45541526 284.07974114 -213.3746264 287.48320531 -208.23828125 292.8359375 C-193.8596487 304.3271773 -175.23613452 309.7498734 -157.5625 313.6875 C-156.65806152 313.89012451 -155.75362305 314.09274902 -154.82177734 314.30151367 C-139.69383879 317.51449158 -125.00984739 318.32436415 -109.59130859 318.26074219 C-106.50468306 318.25001627 -103.41863931 318.26070114 -100.33203125 318.2734375 C-89.05210924 318.28185923 -78.14308466 317.81779257 -67 316 C-65.59137695 315.77304443 -65.59137695 315.77304443 -64.15429688 315.54150391 C-61.75976848 315.128702 -59.38055862 314.67399501 -57 314.1875 C-56.16533203 314.01790771 -55.33066406 313.84831543 -54.47070312 313.67358398 C-35.74824623 309.72554114 -12.18097928 303.77146892 -1 287 C0.12183708 283.63448877 0.20800968 280.90939768 0.31640625 277.36328125 C0.35830078 276.06455078 0.40019531 274.76582031 0.44335938 273.42773438 C0.48316987 272.05599239 0.52288216 270.68424756 0.5625 269.3125 C0.60570835 267.92902355 0.64932339 266.54555973 0.69335938 265.16210938 C0.79958028 261.77484281 0.90162358 258.38750201 1 255 C0.33014572 255.00888245 -0.33970856 255.01776489 -1.02986145 255.0269165 C-7.98865239 255.11526806 -14.94728457 255.17568372 -21.90649414 255.21972656 C-24.50519276 255.23986774 -27.10384593 255.26718228 -29.70239258 255.30175781 C-33.43321942 255.35016388 -37.1634482 255.37294401 -40.89453125 255.390625 C-42.06023148 255.41127014 -43.2259317 255.43191528 -44.42695618 255.45318604 C-45.50785019 255.45348816 -46.5887442 255.45379028 -47.70239258 255.45410156 C-48.65503494 255.46298401 -49.60767731 255.47186646 -50.58918762 255.48101807 C-53 255 -53 255 -54.62812805 253.33930206 C-56.3570764 250.39111696 -56.36973535 248.49943313 -56.36076355 245.09014893 C-56.36694954 243.2770649 -56.36694954 243.2770649 -56.3732605 241.42735291 C-56.36264387 240.0912148 -56.35173945 238.75507896 -56.34057617 237.41894531 C-56.33972979 236.00950641 -56.34020525 234.60006618 -56.34190369 233.19062805 C-56.34276465 229.36649081 -56.32512263 225.54263569 -56.30418181 221.71856403 C-56.28543187 217.72138714 -56.2836659 213.72420383 -56.28010559 209.72698975 C-56.27078017 202.15866835 -56.24615969 194.59047691 -56.21605712 187.02221274 C-56.18252856 178.40561545 -56.16603099 169.78901195 -56.15097082 161.17236567 C-56.11961054 143.44816805 -56.06623632 125.72409923 -56 108 C-51.71 108 -47.42 108 -43 108 C-43 152.22 -43 196.44 -43 242 C5.18 242 53.36 242 103 242 C103 246.29 103 250.58 103 255 C73.63 255 44.26 255 14 255 C14 265.23 14 275.46 14 286 C4.25739082 305.48521836 -8.92273631 314.01006823 -29 321 C-30.07169434 321.38285156 -30.07169434 321.38285156 -31.16503906 321.7734375 C-46.09347379 327.01102988 -61.33448706 329.15905556 -77 331 C-77.8139624 331.1045752 -78.6279248 331.20915039 -79.46655273 331.31689453 C-117.20445333 335.75945248 -160.45839042 332.13971934 -195 316 C-196.02351563 315.55269531 -197.04703125 315.10539062 -198.1015625 314.64453125 C-209.24479139 309.5048249 -220.38115406 302.26071994 -226 291 C-226.94882301 288.15353096 -227.1285612 286.39314036 -227.13701439 283.44209957 C-227.14208893 282.50177661 -227.14716347 281.56145365 -227.15239179 280.59263605 C-227.15288955 279.55763973 -227.15338731 278.52264341 -227.15390015 277.45628357 C-227.1582824 276.35821682 -227.16266465 275.26015006 -227.1671797 274.12880856 C-227.18058969 270.43019034 -227.18675155 266.73159595 -227.19287109 263.03295898 C-227.20077038 260.38867512 -227.20903411 257.74439433 -227.21765137 255.10011292 C-227.24217389 247.15019714 -227.25680335 239.20027512 -227.26971143 231.25033316 C-227.27342381 229.00437503 -227.27739702 226.75841751 -227.2814641 224.51245999 C-227.3067037 210.56192691 -227.32875436 196.61139283 -227.34119225 182.66084194 C-227.3441219 179.42941217 -227.34708356 176.19798243 -227.35009766 172.96655273 C-227.35084371 172.16340635 -227.35158976 171.36025998 -227.35235842 170.53277583 C-227.36500576 157.52900401 -227.39822028 144.52536912 -227.43989949 131.52166127 C-227.48235201 118.16703055 -227.5058912 104.81246985 -227.51111281 91.45777184 C-227.51452343 83.96125575 -227.52623704 76.46495354 -227.55921555 68.96850395 C-227.58726309 62.58247918 -227.59819496 56.19671213 -227.58702008 49.81063055 C-227.58184502 46.55453218 -227.58738946 43.2990843 -227.60948563 40.04304123 C-227.63218042 36.50578036 -227.62387875 32.96987027 -227.60800171 29.43260193 C-227.6218838 28.41322066 -227.63576588 27.3938394 -227.65006864 26.34356779 C-227.54995606 17.2661776 -224.50602078 10.48259312 -218.375 3.8125 C-206.60977442 -7.13753205 -191.25069288 -13.60143035 -176 -18 C-175.26233398 -18.21543457 -174.52466797 -18.43086914 -173.76464844 -18.65283203 C-122.96334709 -33.09009019 -43.42454672 -34.61877383 0 0 Z " fill="#FBFBFE" transform="translate(317,103)"></path><path d="M0 0 C1.0176947 -0.00367584 2.0353894 -0.00735168 3.08392334 -0.01113892 C14.86355573 -0.03333329 26.24136993 0.31774417 37.875 2.3125 C38.91575684 2.4787085 39.95651367 2.64491699 41.02880859 2.81616211 C62.73176579 6.41357795 89.33768158 12.23403991 103.875 30.3125 C106.10070696 34.09985053 106.25476315 36.90724747 105.875 41.3125 C102.73518162 50.53571648 94.55932362 56.0543121 86.27148438 60.37353516 C74.54821278 66.12452052 61.8606189 69.87810181 49.125 72.625 C48.44276367 72.77227539 47.76052734 72.91955078 47.05761719 73.07128906 C31.38852902 76.17602254 15.80114827 76.68442533 -0.125 76.625 C-1.16302765 76.62284485 -2.2010553 76.6206897 -3.27053833 76.61846924 C-35.17692661 76.51216275 -78.71561217 74.94915032 -103.27734375 51.234375 C-106.78916094 47.35629467 -109.72320322 43.83807979 -110.5625 38.5625 C-109.63196541 31.6499573 -104.99696853 26.4481302 -99.75 22.10546875 C-70.8036903 2.33410543 -33.87524151 0.05925794 0 0 Z " fill="#435ADC" transform="translate(212.125,89.6875)"></path><path d="M0 0 C5.71700538 4.75136274 10.97689423 9.84614587 16.21484375 15.1171875 C17.07058487 15.97434357 17.92632599 16.83149963 18.80799866 17.71463013 C21.52020465 20.43239954 24.2288983 23.15363891 26.9375 25.875 C28.78427369 27.72679342 30.63127653 29.57835834 32.47851562 31.4296875 C36.98833201 35.95048435 41.49527569 40.47412946 46 45 C49.11966041 43.51136264 51.24012613 41.99711308 53.671875 39.5234375 C54.66767578 38.51796875 54.66767578 38.51796875 55.68359375 37.4921875 C56.36550781 36.79351562 57.04742187 36.09484375 57.75 35.375 C58.44738281 34.66859375 59.14476562 33.9621875 59.86328125 33.234375 C61.58012488 31.49401297 63.29211832 29.74915019 65 28 C68.0465159 29.33354238 68.95938732 29.93941663 70.890625 32.8203125 C73.68277617 36.92583627 76.37031578 39.98268217 81 42 C91.53125441 43.59640444 102.41700375 42.73362398 113 42 C109.535 38.535 109.535 38.535 106 35 C111.5 28.25 111.5 28.25 116 26 C123.26 33.26 130.52 40.52 138 48 C136.12678339 51.74643321 134.65002355 53.5740022 131.71875 56.44140625 C130.87699219 57.27220703 130.03523437 58.10300781 129.16796875 58.95898438 C128.28753906 59.81814453 127.40710938 60.67730469 126.5 61.5625 C124.75819752 63.26987446 123.01851516 64.97941524 121.28125 66.69140625 C120.50845703 67.44623291 119.73566406 68.20105957 118.93945312 68.97875977 C116.84291866 71.04513956 116.84291866 71.04513956 115 74 C112.80173302 74.36914349 112.80173302 74.36914349 110.01400757 74.36076355 C108.95948898 74.36488754 107.9049704 74.36901154 106.8184967 74.3732605 C105.65684494 74.36247467 104.49519318 74.35168884 103.29833984 74.34057617 C101.46910728 74.34123329 101.46910728 74.34123329 99.60292053 74.34190369 C96.25375602 74.34016855 92.9051425 74.32509703 89.55607557 74.30418181 C86.05804019 74.28546052 82.55999791 74.28366818 79.06192017 74.28010559 C72.43558819 74.2707717 65.80940425 74.24613988 59.18313754 74.21605712 C51.64032932 74.1825548 44.09751413 74.16603762 36.55465007 74.15097082 C21.03634757 74.11959138 5.51819285 74.06680494 -10 74 C-10.18578913 65.64617694 -10.32771728 57.29322402 -10.41449738 48.93784237 C-10.45615979 45.0575074 -10.5126134 41.17859085 -10.60351562 37.29907227 C-10.69077764 33.55123141 -10.73834139 29.80474982 -10.75901794 26.05597115 C-10.77374133 24.62971158 -10.80249605 23.2035222 -10.84584045 21.77784538 C-11.17201086 10.59959206 -11.17201086 10.59959206 -8.23608398 6.59255981 C-6.23947233 4.83717437 -4.24800905 3.40969169 -2 2 C-1.34 1.34 -0.68 0.68 0 0 Z " fill="#4153D5" transform="translate(284,271)"></path><path d="M0 0 C10.56 0 21.12 0 32 0 C32 10.89 32 21.78 32 33 C27.71 33 23.42 33 19 33 C18.505 28.545 18.505 28.545 18 24 C13.38 28.62 8.76 33.24 4 38 C5.60407902 41.20815804 6.41713934 42.66358318 8.8203125 45.015625 C9.35527344 45.54414063 9.89023437 46.07265625 10.44140625 46.6171875 C10.99699219 47.15601563 11.55257812 47.69484375 12.125 48.25 C12.96998047 49.08144531 12.96998047 49.08144531 13.83203125 49.9296875 C15.21686028 51.29104485 16.60783204 52.64614859 18 54 C18.33 51.03 18.66 48.06 19 45 C23.29 45 27.58 45 32 45 C32 55.89 32 66.78 32 78 C21.44 78 10.88 78 0 78 C0 73.71 0 69.42 0 65 C4.455 64.505 4.455 64.505 9 64 C1.575 56.575 1.575 56.575 -6 49 C-11.84448377 53.991949 -11.84448377 53.991949 -17.375 59.25 C-18.04273438 59.91515625 -18.71046875 60.5803125 -19.3984375 61.265625 C-21.07687266 62.92188053 -21.07687266 62.92188053 -22 65 C-23.1645874 64.98316162 -24.3291748 64.96632324 -25.52905273 64.94897461 C-29.88504946 64.89801714 -34.23929867 64.90680367 -38.59545898 64.93286133 C-40.47408234 64.93592755 -42.35280512 64.92318211 -44.23120117 64.89379883 C-55.24037823 64.4300738 -55.24037823 64.4300738 -65.29345703 68.07470703 C-67.49368958 70.27493958 -69.31612152 72.38954288 -71 75 C-74.77519562 73.23770311 -77.30729323 71.23124812 -80 68 C-79.84892037 63.09025076 -75.67469729 59.36601225 -72.45811462 56.0174408 C-69.422042 53.2432315 -67.1350793 51.64730956 -62.95361328 51.52783203 C-59.13049495 51.75422831 -55.33233965 52.28992326 -51.53518677 52.78097534 C-41.05056596 53.97468873 -31.32910879 53.82941449 -22.57421875 47.37402344 C-10.77768342 37.6138827 -0.69463792 25.79938923 9 14 C6.03 13.67 3.06 13.34 0 13 C0 8.71 0 4.42 0 0 Z " fill="#F9F9FE" transform="translate(388,217)"></path><path d="M0 0 C5.71700538 4.75136274 10.97689423 9.84614587 16.21484375 15.1171875 C17.07058487 15.97434357 17.92632599 16.83149963 18.80799866 17.71463013 C21.52020465 20.43239954 24.2288983 23.15363891 26.9375 25.875 C28.78427369 27.72679342 30.63127653 29.57835834 32.47851562 31.4296875 C36.98833201 35.95048435 41.49527569 40.47412946 46 45 C49.11966041 43.51136264 51.24012613 41.99711308 53.671875 39.5234375 C54.33574219 38.853125 54.99960937 38.1828125 55.68359375 37.4921875 C56.36550781 36.79351562 57.04742187 36.09484375 57.75 35.375 C58.44738281 34.66859375 59.14476562 33.9621875 59.86328125 33.234375 C61.58012488 31.49401297 63.29211832 29.74915019 65 28 C68.0465159 29.33354238 68.95938732 29.93941663 70.890625 32.8203125 C73.68277617 36.92583627 76.37031578 39.98268217 81 42 C91.53125441 43.59640444 102.41700375 42.73362398 113 42 C109.535 38.535 109.535 38.535 106 35 C111.5 28.25 111.5 28.25 116 26 C123.26 33.26 130.52 40.52 138 48 C136.07823234 51.84353532 134.4400867 53.79333212 131.4296875 56.765625 C130.53378906 57.65507812 129.63789063 58.54453125 128.71484375 59.4609375 C127.77769531 60.38132812 126.84054687 61.30171875 125.875 62.25 C124.92011363 63.19484856 123.96568141 64.14015633 123.01171875 65.0859375 C120.67890913 67.39518338 118.34155914 69.69963203 116 72 C111.37931546 69.8231071 109.22043097 66.9523471 106 63 C108.31 60.69 110.62 58.38 113 56 C111.89076172 56.01160156 110.78152344 56.02320313 109.63867188 56.03515625 C105.49325797 56.06787423 101.3494459 56.04772128 97.20410156 56.01220703 C95.41569763 56.0041337 93.62716986 56.0100896 91.83886719 56.03076172 C76.93247139 56.18863325 76.93247139 56.18863325 71.99609375 53.15234375 C70.04082685 51.19707685 68.45549489 49.34481563 67 47 C63.84795019 48.39347376 61.73828227 50.02485079 59.328125 52.4765625 C58.33232422 53.48203125 58.33232422 53.48203125 57.31640625 54.5078125 C56.63449219 55.20648438 55.95257813 55.90515625 55.25 56.625 C54.55261719 57.33140625 53.85523438 58.0378125 53.13671875 58.765625 C51.41987512 60.50598703 49.70788168 62.25084981 48 64 C44.13533667 62.41219641 41.69940845 59.94066771 38.77246094 56.99951172 C38.26469116 56.492034 37.75692139 55.98455627 37.23376465 55.46170044 C35.56251491 53.78906131 33.89845444 52.10945783 32.234375 50.4296875 C31.07467623 49.26625722 29.91453408 48.10326874 28.75396729 46.94070435 C25.70490648 43.884018 22.66190037 40.82137256 19.62011719 37.75744629 C16.51340087 34.63024835 13.40099455 31.50872493 10.2890625 28.38671875 C4.18712583 22.2633512 -1.90842598 16.1336764 -8 10 C-5.95933017 5.73384496 -3.41446998 3.26601476 0 0 Z " fill="#FCFCFE" transform="translate(284,271)"></path><path d="M0 0 C5.67397543 -0.2238066 11.345342 -0.38639536 17.02270508 -0.49438477 C18.95024401 -0.53942902 20.87747912 -0.6006884 22.80395508 -0.67895508 C38.86921747 -1.31491501 38.86921747 -1.31491501 44.25439453 2.00830078 C46.44925492 4.22778793 48.2224765 6.44452419 50 9 C50.66 9.33 51.32 9.66 52 10 C52 9.34 52 8.68 52 8 C52.66 8 53.32 8 54 8 C54.2475 7.4225 54.495 6.845 54.75 6.25 C56.33880006 3.39015988 57.31861252 1.96769488 60 0 C63.60592325 -0.71359975 67.1453158 -0.74039375 70.8125 -0.75 C71.78509766 -0.79898438 72.75769531 -0.84796875 73.75976562 -0.8984375 C77.8454207 -0.93163172 80.80491495 -0.94311349 84.09008789 1.64941406 C85.87168854 3.68814055 87.44172665 5.78758862 89 8 C91.35188359 10.57604194 93.71320232 13.14266963 96.08203125 15.703125 C98 18 98 18 100 22 C97.03 24.64 94.06 27.28 91 30 C88.38592901 27.46920915 85.95573236 24.94487005 83.67578125 22.10546875 C78.59194962 15.55861489 78.59194962 15.55861489 71.25 12.4375 C63.20168852 13.24747384 57.0035644 22.29155548 52 28 C48.43435718 26.68176757 46.69525074 24.51445113 44.33624268 21.61907959 C39.93144881 16.4307635 36.24602335 13.36605532 29.3302002 12.70056152 C25.29244955 12.54567015 21.28709363 12.61479017 17.25 12.75 C15.57034276 12.76200219 13.89063733 12.76855126 12.2109375 12.76953125 C8.13734298 12.78359122 4.07151059 12.87104968 0 13 C0 8.71 0 4.42 0 0 Z " fill="#FAFBFE" transform="translate(280,224)"></path><path d="M0 0 C3.21043882 1.38188453 5.04936365 2.92421903 7.25 5.625 C7.77078125 6.25664062 8.2915625 6.88828125 8.828125 7.5390625 C9.40820312 8.26222656 9.40820312 8.26222656 10 9 C2.70159453 17.44646925 2.70159453 17.44646925 -1 21 C-4.94139078 19.33248852 -7.7892812 16.77289351 -11 14 C-10.52590352 9.68269587 -7.96603297 7.66352539 -4.9375 4.75 C-4.01839844 3.85796875 -3.09929687 2.9659375 -2.15234375 2.046875 C-1.44207031 1.37140625 -0.73179687 0.6959375 0 0 Z " fill="#F4F5FC" transform="translate(287,303)"></path></svg>